# Made in Blockbench 3.8.0
mtllib 820_playing_cards.mtl
o RootNode
v 0.0000625 0.012562500186264515 0.0000625
v 0.0000625 0.012562500186264515 0
v 0.0000625 0.012500000186264515 0.0000625
v 0.0000625 0.012500000186264515 0
v 0 0.012562500186264515 0
v 0 0.012562500186264515 0.0000625
v 0 0.012500000186264515 0
v 0 0.012500000186264515 0.0000625
vt 0 1
vt 0 1
vt 0 1
vt 0 1
vt 0 1
vt 0 1
vt 0 1
vt 0 1
vt 0 1
vt 0 1
vt 0 1
vt 0 1
vt 0 1
vt 0 1
vt 0 1
vt 0 1
vt 0 1
vt 0 1
vt 0 1
vt 0 1
vt 0 1
vt 0 1
vt 0 1
vt 0 1
vt 0 1
vt 0 1
vt 0 1
vt 0 1
vt 0 1
vt 0 1
vt 0 1
vt 0 1
vt 0 1
vt 0 1
vt 0 1
vt 0 1
vn 1 0 0
vn 1 0 0
vn 1 0 0
vn 1 0 0
vn 1 0 0
vn 1 0 0
vn -1 0 0
vn -1 0 0
vn -1 0 0
vn -1 0 0
vn -1 0 0
vn -1 0 0
vn 0 1 0
vn 0 1 0
vn 0 1 0
vn 0 1 0
vn 0 1 0
vn 0 1 0
vn 0 -1 0
vn 0 -1 0
vn 0 -1 0
vn 0 -1 0
vn 0 -1 0
vn 0 -1 0
vn 0 0 1
vn 0 0 1
vn 0 0 1
vn 0 0 1
vn 0 0 1
vn 0 0 1
vn 0 0 -1
vn 0 0 -1
vn 0 0 -1
vn 0 0 -1
vn 0 0 -1
vn 0 0 -1
usemtl m_0
f 1/1/1 3/2/2 2/3/3
f 3/4/4 4/5/5 2/6/6
usemtl m_0
f 5/7/7 7/8/8 6/9/9
f 7/10/10 8/11/11 6/12/12
usemtl m_0
f 5/13/13 6/14/14 2/15/15
f 6/16/16 1/17/17 2/18/18
usemtl m_0
f 8/19/19 7/20/20 3/21/21
f 7/22/22 4/23/23 3/24/24
usemtl m_0
f 6/25/25 8/26/26 1/27/27
f 8/28/28 3/29/29 1/30/30
usemtl m_0
f 2/31/31 4/32/32 5/33/33
f 4/34/34 7/35/35 5/36/36
o Card_1
v 0.11741534806463558 0.038235256657584676 -0.23434980642257341
v -0.11545305041023568 0.06476725771275453 -0.23440017265199942
v 0.1156465479534491 0.022710696400795868 -0.23434980642257341
v -0.11722185052142216 0.04924269745596571 -0.23440017265199942
v -0.11551977370099893 0.06477485987102302 0.07809982013233602
v 0.11734862477387233 0.038242858815853174 0.07815018636176208
v -0.11728857381218541 0.04925029961423421 0.07809982013233602
v 0.11557982466268585 0.022718298559064362 0.07815018636176208
vt 0.2890625 0.6875
vt 0.2890625 0.6796875
vt 0.40625 0.6875
vt 0.2890625 0.6796875
vt 0.40625 0.6796875
vt 0.40625 0.6875
vt 0.015625 0.6875
vt 0.015625 0.6796875
vt 0.1328125 0.6875
vt 0.015625 0.6796875
vt 0.1328125 0.6796875
vt 0.1328125 0.6875
vt 0.1328125 0.8046875
vt 0.1328125 0.6875
vt 0.2890625 0.8046875
vt 0.1328125 0.6875
vt 0.2890625 0.6875
vt 0.2890625 0.8046875
vt 0.2890625 0.8046875
vt 0.2890625 0.6875
vt 0.4453125 0.8046875
vt 0.2890625 0.6875
vt 0.4453125 0.6875
vt 0.4453125 0.8046875
vt 0.1328125 0.6875
vt 0.1328125 0.6796875
vt 0.2890625 0.6875
vt 0.1328125 0.6796875
vt 0.2890625 0.6796875
vt 0.2890625 0.6875
vt 0.40625 0.6875
vt 0.40625 0.6796875
vt 0.5625 0.6875
vt 0.40625 0.6796875
vt 0.5625 0.6796875
vt 0.5625 0.6875
vn 0.00021351453044241543 -0.000024326906459158592 -0.9999999769098729
vn 0.00021351453044241543 -0.000024326906459158592 -0.9999999769098729
vn 0.00021351453044241543 -0.000024326906459158592 -0.9999999769098729
vn 0.00021351453044241543 -0.000024326906459158592 -0.9999999769098729
vn 0.00021351453044241543 -0.000024326906459158592 -0.9999999769098729
vn 0.00021351453044241543 -0.000024326906459158592 -0.9999999769098729
vn -0.00021351453044241543 0.000024326906459158592 0.9999999769098729
vn -0.00021351453044241543 0.000024326906459158592 0.9999999769098729
vn -0.00021351453044241543 0.000024326906459158592 0.9999999769098729
vn -0.00021351453044241543 0.000024326906459158592 0.9999999769098729
vn -0.00021351453044241543 0.000024326906459158592 0.9999999769098729
vn -0.00021351453044241543 0.000024326906459158592 0.9999999769098729
vn 0.1132032071159344 0.9935718564344839 -2.86026085628832e-17
vn 0.1132032071159344 0.9935718564344839 -2.86026085628832e-17
vn 0.1132032071159344 0.9935718564344839 -2.86026085628832e-17
vn 0.1132032071159344 0.9935718564344839 -2.86026085628832e-17
vn 0.1132032071159344 0.9935718564344839 -2.86026085628832e-17
vn 0.1132032071159344 0.9935718564344839 -2.86026085628832e-17
vn -0.1132032071159344 -0.9935718564344839 2.86026085628832e-17
vn -0.1132032071159344 -0.9935718564344839 2.86026085628832e-17
vn -0.1132032071159344 -0.9935718564344839 2.86026085628832e-17
vn -0.1132032071159344 -0.9935718564344839 2.86026085628832e-17
vn -0.1132032071159344 -0.9935718564344839 2.86026085628832e-17
vn -0.1132032071159344 -0.9935718564344839 2.86026085628832e-17
vn 0.9935718334927836 -0.113203204502058 0.0002148959122177639
vn 0.9935718334927836 -0.113203204502058 0.0002148959122177639
vn 0.9935718334927836 -0.113203204502058 0.0002148959122177639
vn 0.9935718334927836 -0.113203204502058 0.0002148959122177639
vn 0.9935718334927836 -0.113203204502058 0.0002148959122177639
vn 0.9935718334927836 -0.113203204502058 0.0002148959122177639
vn -0.9935718334927836 0.113203204502058 -0.0002148959122177639
vn -0.9935718334927836 0.113203204502058 -0.0002148959122177639
vn -0.9935718334927836 0.113203204502058 -0.0002148959122177639
vn -0.9935718334927836 0.113203204502058 -0.0002148959122177639
vn -0.9935718334927836 0.113203204502058 -0.0002148959122177639
vn -0.9935718334927836 0.113203204502058 -0.0002148959122177639
usemtl m_0
f 9/37/37 11/38/38 10/39/39
f 11/40/40 12/41/41 10/42/42
usemtl m_0
f 13/43/43 15/44/44 14/45/45
f 15/46/46 16/47/47 14/48/48
usemtl m_0
f 13/49/49 14/50/50 10/51/51
f 14/52/52 9/53/53 10/54/54
usemtl m_0
f 16/55/55 15/56/56 11/57/57
f 15/58/58 12/59/59 11/60/60
usemtl m_0
f 14/61/61 16/62/62 9/63/63
f 16/64/64 11/65/65 9/66/66
usemtl m_0
f 10/67/67 12/68/68 13/69/69
f 12/70/70 15/71/71 13/72/72
o Card_2
v 0.2921389282623694 0.03405408658595319 -0.14753585617372406
v 0.07940304855210542 0.058292274156042295 -0.24286474147202836
v 0.29037012830940556 0.018529526311137197 -0.14753585606734393
v 0.07763424859914156 0.04276771388122629 -0.24286474136564823
v -0.04688508142473387 0.07268098886218426 0.042618223196720734
v 0.16585079828553018 0.04844280129209516 0.13794710849502503
v -0.04865388137769773 0.05715642858736826 0.042618223303100805
v 0.16408199833256631 0.03291824101727916 0.1379471086014051
vt 0.2890625 0.4140625
vt 0.2890625 0.40625
vt 0.40625 0.4140625
vt 0.2890625 0.40625
vt 0.40625 0.40625
vt 0.40625 0.4140625
vt 0.015625 0.4140625
vt 0.015625 0.40625
vt 0.1328125 0.4140625
vt 0.015625 0.40625
vt 0.1328125 0.40625
vt 0.1328125 0.4140625
vt 0.1328125 0.53125
vt 0.1328125 0.4140625
vt 0.2890625 0.53125
vt 0.1328125 0.4140625
vt 0.2890625 0.4140625
vt 0.2890625 0.53125
vt 0.2890625 0.53125
vt 0.2890625 0.4140625
vt 0.4453125 0.53125
vt 0.2890625 0.4140625
vt 0.4453125 0.4140625
vt 0.4453125 0.53125
vt 0.1328125 0.4140625
vt 0.1328125 0.40625
vt 0.2890625 0.4140625
vt 0.1328125 0.40625
vt 0.2890625 0.40625
vt 0.2890625 0.4140625
vt 0.40625 0.4140625
vt 0.40625 0.40625
vt 0.5625 0.4140625
vt 0.40625 0.40625
vt 0.5625 0.40625
vt 0.5625 0.4140625
vn 0.40412201592588554 -0.04604388705965427 -0.9135454869399967
vn 0.40412201592588554 -0.04604388705965427 -0.9135454869399967
vn 0.40412201592588554 -0.04604388705965427 -0.9135454869399967
vn 0.40412201592588554 -0.04604388705965427 -0.9135454869399967
vn 0.40412201592588554 -0.04604388705965427 -0.9135454869399967
vn 0.40412201592588554 -0.04604388705965427 -0.9135454869399967
vn -0.40412201592588554 0.04604388705965427 0.9135454869399967
vn -0.40412201592588554 0.04604388705965427 0.9135454869399967
vn -0.40412201592588554 0.04604388705965427 0.9135454869399967
vn -0.40412201592588554 0.04604388705965427 0.9135454869399967
vn -0.40412201592588554 0.04604388705965427 0.9135454869399967
vn -0.40412201592588554 0.04604388705965427 0.9135454869399967
vn 0.11320319698968698 0.993571857588224 -6.8083261736684425e-9
vn 0.11320319698968698 0.993571857588224 -6.8083261736684425e-9
vn 0.11320319698968698 0.993571857588224 -6.8083261736684425e-9
vn 0.11320319698968698 0.993571857588224 -6.8083261736684425e-9
vn 0.11320319698968698 0.993571857588224 -6.8083261736684425e-9
vn 0.11320319698968698 0.993571857588224 -6.8083261736684425e-9
vn -0.11320319698968698 -0.993571857588224 6.8083261736684425e-9
vn -0.11320319698968698 -0.993571857588224 6.8083261736684425e-9
vn -0.11320319698968698 -0.993571857588224 6.8083261736684425e-9
vn -0.11320319698968698 -0.993571857588224 6.8083261736684425e-9
vn -0.11320319698968698 -0.993571857588224 6.8083261736684425e-9
vn -0.11320319698968698 -0.993571857588224 6.8083261736684425e-9
vn 0.907673086763793 -0.1034162669657135 0.4067365772727649
vn 0.907673086763793 -0.1034162669657135 0.4067365772727649
vn 0.907673086763793 -0.1034162669657135 0.4067365772727649
vn 0.907673086763793 -0.1034162669657135 0.4067365772727649
vn 0.907673086763793 -0.1034162669657135 0.4067365772727649
vn 0.907673086763793 -0.1034162669657135 0.4067365772727649
vn -0.907673086763793 0.1034162669657135 -0.4067365772727649
vn -0.907673086763793 0.1034162669657135 -0.4067365772727649
vn -0.907673086763793 0.1034162669657135 -0.4067365772727649
vn -0.907673086763793 0.1034162669657135 -0.4067365772727649
vn -0.907673086763793 0.1034162669657135 -0.4067365772727649
vn -0.907673086763793 0.1034162669657135 -0.4067365772727649
usemtl m_0
f 17/73/73 19/74/74 18/75/75
f 19/76/76 20/77/77 18/78/78
usemtl m_0
f 21/79/79 23/80/80 22/81/81
f 23/82/82 24/83/83 22/84/84
usemtl m_0
f 21/85/85 22/86/86 18/87/87
f 22/88/88 17/89/89 18/90/90
usemtl m_0
f 24/91/91 23/92/92 19/93/93
f 23/94/94 20/95/95 19/96/96
usemtl m_0
f 22/97/97 24/98/98 17/99/99
f 24/100/100 19/101/101 17/102/102
usemtl m_0
f 18/103/103 20/104/104 21/105/105
f 20/106/106 23/107/107 21/108/108
o Card_3
v 0.416904633098997 0.03556490225516334 0.0026375601057972986
v 0.2610852913841781 0.053318277245236814 -0.17153703921632635
v 0.41513583299935236 0.020040341997059508 0.0026375596885931385
v 0.25931649128453343 0.03779371698713299 -0.1715370396335305
v 0.03034531740963453 0.07960776918149785 0.03756622958634026
v 0.18616465912445349 0.06185439419142438 0.21174082890846396
v 0.028576517309989863 0.06408320892339403 0.0375662291691361
v 0.18439585902480882 0.04632983393332055 0.21174082849125975
vt 0.71875 0.2578125
vt 0.71875 0.25
vt 0.8359375 0.2578125
vt 0.71875 0.25
vt 0.8359375 0.25
vt 0.8359375 0.2578125
vt 0.4453125 0.2578125
vt 0.4453125 0.25
vt 0.5625 0.2578125
vt 0.4453125 0.25
vt 0.5625 0.25
vt 0.5625 0.2578125
vt 0.5625 0.375
vt 0.5625 0.2578125
vt 0.71875 0.375
vt 0.5625 0.2578125
vt 0.71875 0.2578125
vt 0.71875 0.375
vt 0.71875 0.375
vt 0.71875 0.2578125
vt 0.875 0.375
vt 0.71875 0.2578125
vt 0.875 0.2578125
vt 0.875 0.375
vt 0.5625 0.2578125
vt 0.5625 0.25
vt 0.71875 0.2578125
vt 0.5625 0.25
vt 0.71875 0.25
vt 0.71875 0.2578125
vt 0.8359375 0.2578125
vt 0.8359375 0.25
vt 0.9921875 0.2578125
vt 0.8359375 0.25
vt 0.9921875 0.25
vt 0.9921875 0.2578125
vn 0.7383679167185392 -0.08412637419603533 -0.6691304601685332
vn 0.7383679167185392 -0.08412637419603533 -0.6691304601685332
vn 0.7383679167185392 -0.08412637419603533 -0.6691304601685332
vn 0.7383679167185392 -0.08412637419603533 -0.6691304601685332
vn 0.7383679167185392 -0.08412637419603533 -0.6691304601685332
vn 0.7383679167185392 -0.08412637419603533 -0.6691304601685332
vn -0.7383679167185392 0.08412637419603533 0.6691304601685332
vn -0.7383679167185392 0.08412637419603533 0.6691304601685332
vn -0.7383679167185392 0.08412637419603533 0.6691304601685332
vn -0.7383679167185392 0.08412637419603533 0.6691304601685332
vn -0.7383679167185392 0.08412637419603533 0.6691304601685332
vn -0.7383679167185392 0.08412637419603533 0.6691304601685332
vn 0.1132032063772582 0.9935718565186453 2.6701068016332652e-8
vn 0.1132032063772582 0.9935718565186453 2.6701068016332652e-8
vn 0.1132032063772582 0.9935718565186453 2.6701068016332652e-8
vn 0.1132032063772582 0.9935718565186453 2.6701068016332652e-8
vn 0.1132032063772582 0.9935718565186453 2.6701068016332652e-8
vn 0.1132032063772582 0.9935718565186453 2.6701068016332652e-8
vn -0.1132032063772582 -0.9935718565186453 -2.6701068016332652e-8
vn -0.1132032063772582 -0.9935718565186453 -2.6701068016332652e-8
vn -0.1132032063772582 -0.9935718565186453 -2.6701068016332652e-8
vn -0.1132032063772582 -0.9935718565186453 -2.6701068016332652e-8
vn -0.1132032063772582 -0.9935718565186453 -2.6701068016332652e-8
vn -0.1132032063772582 -0.9935718565186453 -2.6701068016332652e-8
vn 0.6648291913165607 -0.07574773329098017 0.7431449571077277
vn 0.6648291913165607 -0.07574773329098017 0.7431449571077277
vn 0.6648291913165607 -0.07574773329098017 0.7431449571077277
vn 0.6648291913165607 -0.07574773329098017 0.7431449571077277
vn 0.6648291913165607 -0.07574773329098017 0.7431449571077277
vn 0.6648291913165607 -0.07574773329098017 0.7431449571077277
vn -0.6648291913165607 0.07574773329098017 -0.7431449571077277
vn -0.6648291913165607 0.07574773329098017 -0.7431449571077277
vn -0.6648291913165607 0.07574773329098017 -0.7431449571077277
vn -0.6648291913165607 0.07574773329098017 -0.7431449571077277
vn -0.6648291913165607 0.07574773329098017 -0.7431449571077277
vn -0.6648291913165607 0.07574773329098017 -0.7431449571077277
usemtl m_0
f 25/109/109 27/110/110 26/111/111
f 27/112/112 28/113/113 26/114/114
usemtl m_0
f 29/115/115 31/116/116 30/117/117
f 31/118/118 32/119/119 30/120/120
usemtl m_0
f 29/121/121 30/122/122 26/123/123
f 30/124/124 25/125/125 26/126/126
usemtl m_0
f 32/127/127 31/128/128 27/129/129
f 31/130/130 28/131/131 27/132/132
usemtl m_0
f 30/133/133 32/134/134 25/135/135
f 32/136/136 27/137/137 25/138/138
usemtl m_0
f 26/139/139 28/140/140 29/141/141
f 28/142/142 31/143/143 29/144/144
o Card_4
v -0.07763432861369879 0.04473227826811693 -0.2428647285094624
v -0.29037019230023003 0.06897046340387994 -0.14753580683366618
v -0.07940312828577567 0.029207717961297917 -0.24286472807999915
v -0.2921389919723069 0.05344590309706093 -0.14753580640420294
v -0.16408201276322015 0.054581755219358916 0.13794713624001154
v 0.04865385092331108 0.0303435700835959 0.04261821456421533
v -0.16585081243529703 0.039057194912539894 0.13794713666947478
v 0.0468850512512342 0.014819009776776883 0.04261821499367857
vt 0.2890625 0.1328125
vt 0.2890625 0.125
vt 0.40625 0.1328125
vt 0.2890625 0.125
vt 0.40625 0.125
vt 0.40625 0.1328125
vt 0.015625 0.1328125
vt 0.015625 0.125
vt 0.1328125 0.1328125
vt 0.015625 0.125
vt 0.1328125 0.125
vt 0.1328125 0.1328125
vt 0.1328125 0.25
vt 0.1328125 0.1328125
vt 0.2890625 0.25
vt 0.1328125 0.1328125
vt 0.2890625 0.1328125
vt 0.2890625 0.25
vt 0.2890625 0.25
vt 0.2890625 0.1328125
vt 0.4453125 0.25
vt 0.2890625 0.1328125
vt 0.4453125 0.1328125
vt 0.4453125 0.25
vt 0.1328125 0.1328125
vt 0.1328125 0.125
vt 0.2890625 0.1328125
vt 0.1328125 0.125
vt 0.2890625 0.125
vt 0.2890625 0.1328125
vt 0.40625 0.1328125
vt 0.40625 0.125
vt 0.5625 0.1328125
vt 0.40625 0.125
vt 0.5625 0.125
vt 0.5625 0.1328125
vn -0.4041221745184315 0.0460438661904673 -0.9135454178357681
vn -0.4041221745184315 0.0460438661904673 -0.9135454178357681
vn -0.4041221745184315 0.0460438661904673 -0.9135454178357681
vn -0.4041221745184315 0.0460438661904673 -0.9135454178357681
vn -0.4041221745184315 0.0460438661904673 -0.9135454178357681
vn -0.4041221745184315 0.0460438661904673 -0.9135454178357681
vn 0.4041221745184315 -0.0460438661904673 0.9135454178357681
vn 0.4041221745184315 -0.0460438661904673 0.9135454178357681
vn 0.4041221745184315 -0.0460438661904673 0.9135454178357681
vn 0.4041221745184315 -0.0460438661904673 0.9135454178357681
vn 0.4041221745184315 -0.0460438661904673 0.9135454178357681
vn 0.4041221745184315 -0.0460438661904673 0.9135454178357681
vn 0.11320317901292043 0.9935718596364169 -2.7485647959013524e-8
vn 0.11320317901292043 0.9935718596364169 -2.7485647959013524e-8
vn 0.11320317901292043 0.9935718596364169 -2.7485647959013524e-8
vn 0.11320317901292043 0.9935718596364169 -2.7485647959013524e-8
vn 0.11320317901292043 0.9935718596364169 -2.7485647959013524e-8
vn 0.11320317901292043 0.9935718596364169 -2.7485647959013524e-8
vn -0.11320317901292043 -0.9935718596364169 2.7485647959013524e-8
vn -0.11320317901292043 -0.9935718596364169 2.7485647959013524e-8
vn -0.11320317901292043 -0.9935718596364169 2.7485647959013524e-8
vn -0.11320317901292043 -0.9935718596364169 2.7485647959013524e-8
vn -0.11320317901292043 -0.9935718596364169 2.7485647959013524e-8
vn -0.11320317901292043 -0.9935718596364169 2.7485647959013524e-8
vn 0.9076730183958663 -0.1034162565792555 -0.406736732483397
vn 0.9076730183958663 -0.1034162565792555 -0.406736732483397
vn 0.9076730183958663 -0.1034162565792555 -0.406736732483397
vn 0.9076730183958663 -0.1034162565792555 -0.406736732483397
vn 0.9076730183958663 -0.1034162565792555 -0.406736732483397
vn 0.9076730183958663 -0.1034162565792555 -0.406736732483397
vn -0.9076730183958663 0.1034162565792555 0.406736732483397
vn -0.9076730183958663 0.1034162565792555 0.406736732483397
vn -0.9076730183958663 0.1034162565792555 0.406736732483397
vn -0.9076730183958663 0.1034162565792555 0.406736732483397
vn -0.9076730183958663 0.1034162565792555 0.406736732483397
vn -0.9076730183958663 0.1034162565792555 0.406736732483397
usemtl m_0
f 33/145/145 35/146/146 34/147/147
f 35/148/148 36/149/149 34/150/150
usemtl m_0
f 37/151/151 39/152/152 38/153/153
f 39/154/154 40/155/155 38/156/156
usemtl m_0
f 37/157/157 38/158/158 34/159/159
f 38/160/160 33/161/161 34/162/162
usemtl m_0
f 40/163/163 39/164/164 35/165/165
f 39/166/166 36/167/167 35/168/168
usemtl m_0
f 38/169/169 40/170/170 33/171/171
f 40/172/172 35/173/173 33/174/174
usemtl m_0
f 34/175/175 36/176/176 37/177/177
f 36/178/178 39/179/179 37/180/180
o Card_5
v -0.25931645509765344 0.04970628660239902 -0.17153706304397442
v -0.41513581284762935 0.06745966105548705 0.002637521987578051
v -0.26108525524897697 0.03418172635018325 -0.17153706288430803
v -0.4169046129989529 0.05193510080327128 0.002637522147244442
v -0.18439585828236998 0.0411701670837403 0.2117408119519677
v -0.028576500532394092 0.02341679263065227 0.037566226920415224
v -0.1861646584336935 0.02564560683152452 0.2117408121116341
v -0.030345300683717588 0.007892232378436493 0.037566227080081616
vt 0.2890625 0.2734375
vt 0.2890625 0.265625
vt 0.40625 0.2734375
vt 0.2890625 0.265625
vt 0.40625 0.265625
vt 0.40625 0.2734375
vt 0.015625 0.2734375
vt 0.015625 0.265625
vt 0.1328125 0.2734375
vt 0.015625 0.265625
vt 0.1328125 0.265625
vt 0.1328125 0.2734375
vt 0.1328125 0.390625
vt 0.1328125 0.2734375
vt 0.2890625 0.390625
vt 0.1328125 0.2734375
vt 0.2890625 0.2734375
vt 0.2890625 0.390625
vt 0.2890625 0.390625
vt 0.2890625 0.2734375
vt 0.4453125 0.390625
vt 0.2890625 0.2734375
vt 0.4453125 0.2734375
vt 0.4453125 0.390625
vt 0.1328125 0.2734375
vt 0.1328125 0.265625
vt 0.2890625 0.2734375
vt 0.1328125 0.265625
vt 0.2890625 0.265625
vt 0.2890625 0.2734375
vt 0.40625 0.2734375
vt 0.40625 0.265625
vt 0.5625 0.2734375
vt 0.40625 0.265625
vt 0.5625 0.265625
vt 0.5625 0.2734375
vn -0.7383678546088295 0.0841263807095896 -0.6691305278860464
vn -0.7383678546088295 0.0841263807095896 -0.6691305278860464
vn -0.7383678546088295 0.0841263807095896 -0.6691305278860464
vn -0.7383678546088295 0.0841263807095896 -0.6691305278860464
vn -0.7383678546088295 0.0841263807095896 -0.6691305278860464
vn -0.7383678546088295 0.0841263807095896 -0.6691305278860464
vn 0.7383678546088295 -0.0841263807095896 0.6691305278860464
vn 0.7383678546088295 -0.0841263807095896 0.6691305278860464
vn 0.7383678546088295 -0.0841263807095896 0.6691305278860464
vn 0.7383678546088295 -0.0841263807095896 0.6691305278860464
vn 0.7383678546088295 -0.0841263807095896 0.6691305278860464
vn 0.7383678546088295 -0.0841263807095896 0.6691305278860464
vn 0.11320320968470445 0.9935718561418097 -1.0218647893134307e-8
vn 0.11320320968470445 0.9935718561418097 -1.0218647893134307e-8
vn 0.11320320968470445 0.9935718561418097 -1.0218647893134307e-8
vn 0.11320320968470445 0.9935718561418097 -1.0218647893134307e-8
vn 0.11320320968470445 0.9935718561418097 -1.0218647893134307e-8
vn 0.11320320968470445 0.9935718561418097 -1.0218647893134307e-8
vn -0.11320320968470445 -0.9935718561418097 1.0218647893134307e-8
vn -0.11320320968470445 -0.9935718561418097 1.0218647893134307e-8
vn -0.11320320968470445 -0.9935718561418097 1.0218647893134307e-8
vn -0.11320320968470445 -0.9935718561418097 1.0218647893134307e-8
vn -0.11320320968470445 -0.9935718561418097 1.0218647893134307e-8
vn -0.11320320968470445 -0.9935718561418097 1.0218647893134307e-8
vn 0.6648292597332301 -0.0757477309998422 -0.7431448961346234
vn 0.6648292597332301 -0.0757477309998422 -0.7431448961346234
vn 0.6648292597332301 -0.0757477309998422 -0.7431448961346234
vn 0.6648292597332301 -0.0757477309998422 -0.7431448961346234
vn 0.6648292597332301 -0.0757477309998422 -0.7431448961346234
vn 0.6648292597332301 -0.0757477309998422 -0.7431448961346234
vn -0.6648292597332301 0.0757477309998422 0.7431448961346234
vn -0.6648292597332301 0.0757477309998422 0.7431448961346234
vn -0.6648292597332301 0.0757477309998422 0.7431448961346234
vn -0.6648292597332301 0.0757477309998422 0.7431448961346234
vn -0.6648292597332301 0.0757477309998422 0.7431448961346234
vn -0.6648292597332301 0.0757477309998422 0.7431448961346234
usemtl m_0
f 41/181/181 43/182/182 42/183/183
f 43/184/184 44/185/185 42/186/186
usemtl m_0
f 45/187/187 47/188/188 46/189/189
f 47/190/190 48/191/191 46/192/192
usemtl m_0
f 45/193/193 46/194/194 42/195/195
f 46/196/196 41/197/197 42/198/198
usemtl m_0
f 48/199/199 47/200/200 43/201/201
f 47/202/202 44/203/203 43/204/204
usemtl m_0
f 46/205/205 48/206/206 41/207/207
f 48/208/208 43/209/209 41/210/210
usemtl m_0
f 42/211/211 44/212/212 45/213/213
f 44/214/214 47/215/215 45/216/216
