# Procedurally generated by dev-env-utils/scripts/gen_novelties.py -- do not hand edit
mtllib coffeecup.mtl
o coffeecup
v 0.56875 0.00000 0.50000
v 0.56539 0.00000 0.52124
v 0.50000 0.00000 0.50000
v 0.55562 0.00000 0.54041
v 0.54041 0.00000 0.55562
v 0.52124 0.00000 0.56539
v 0.50000 0.00000 0.56875
v 0.47876 0.00000 0.56539
v 0.45959 0.00000 0.55562
v 0.44438 0.00000 0.54041
v 0.43461 0.00000 0.52124
v 0.43125 0.00000 0.50000
v 0.43461 0.00000 0.47876
v 0.44438 0.00000 0.45959
v 0.45959 0.00000 0.44438
v 0.47876 0.00000 0.43461
v 0.50000 0.00000 0.43125
v 0.52124 0.00000 0.43461
v 0.54041 0.00000 0.44438
v 0.55562 0.00000 0.45959
v 0.56539 0.00000 0.47876
v 0.57727 0.00750 0.52511
v 0.58125 0.00750 0.50000
v 0.56573 0.00750 0.54776
v 0.54776 0.00750 0.56573
v 0.52511 0.00750 0.57727
v 0.50000 0.00750 0.58125
v 0.47489 0.00750 0.57727
v 0.45224 0.00750 0.56573
v 0.43427 0.00750 0.54776
v 0.42273 0.00750 0.52511
v 0.41875 0.00750 0.50000
v 0.42273 0.00750 0.47489
v 0.43427 0.00750 0.45224
v 0.45224 0.00750 0.43427
v 0.47489 0.00750 0.42273
v 0.50000 0.00750 0.41875
v 0.52511 0.00750 0.42273
v 0.54776 0.00750 0.43427
v 0.56573 0.00750 0.45224
v 0.57727 0.00750 0.47489
v 0.61294 0.01625 0.53670
v 0.61875 0.01625 0.50000
v 0.59607 0.01625 0.56980
v 0.56980 0.01625 0.59607
v 0.53670 0.01625 0.61294
v 0.50000 0.01625 0.61875
v 0.46330 0.01625 0.61294
v 0.43020 0.01625 0.59607
v 0.40393 0.01625 0.56980
v 0.38706 0.01625 0.53670
v 0.38125 0.01625 0.50000
v 0.38706 0.01625 0.46330
v 0.40393 0.01625 0.43020
v 0.43020 0.01625 0.40393
v 0.46330 0.01625 0.38706
v 0.50000 0.01625 0.38125
v 0.53670 0.01625 0.38706
v 0.56980 0.01625 0.40393
v 0.59607 0.01625 0.43020
v 0.61294 0.01625 0.46330
v 0.61591 0.02063 0.53766
v 0.62187 0.02063 0.50000
v 0.59860 0.02063 0.57164
v 0.57164 0.02063 0.59860
v 0.53766 0.02063 0.61591
v 0.50000 0.02063 0.62187
v 0.46234 0.02063 0.61591
v 0.42836 0.02063 0.59860
v 0.40140 0.02063 0.57164
v 0.38409 0.02063 0.53766
v 0.37812 0.02063 0.50000
v 0.38409 0.02063 0.46234
v 0.40140 0.02063 0.42836
v 0.42836 0.02063 0.40140
v 0.46234 0.02063 0.38409
v 0.50000 0.02063 0.37812
v 0.53766 0.02063 0.38409
v 0.57164 0.02063 0.40140
v 0.59860 0.02063 0.42836
v 0.61591 0.02063 0.46234
v 0.60402 0.01937 0.53380
v 0.60938 0.01937 0.50000
v 0.58849 0.01937 0.56429
v 0.56429 0.01937 0.58849
v 0.53380 0.01937 0.60402
v 0.50000 0.01937 0.60938
v 0.46620 0.01937 0.60402
v 0.43571 0.01937 0.58849
v 0.41151 0.01937 0.56429
v 0.39598 0.01937 0.53380
v 0.39062 0.01937 0.50000
v 0.39598 0.01937 0.46620
v 0.41151 0.01937 0.43571
v 0.43571 0.01937 0.41151
v 0.46620 0.01937 0.39598
v 0.50000 0.01937 0.39062
v 0.53380 0.01937 0.39598
v 0.56429 0.01937 0.41151
v 0.58849 0.01937 0.43571
v 0.60402 0.01937 0.46620
v 0.56836 0.01250 0.52221
v 0.57188 0.01250 0.50000
v 0.55815 0.01250 0.54225
v 0.54225 0.01250 0.55815
v 0.52221 0.01250 0.56836
v 0.50000 0.01250 0.57188
v 0.47779 0.01250 0.56836
v 0.45775 0.01250 0.55815
v 0.44185 0.01250 0.54225
v 0.43164 0.01250 0.52221
v 0.42812 0.01250 0.50000
v 0.43164 0.01250 0.47779
v 0.44185 0.01250 0.45775
v 0.45775 0.01250 0.44185
v 0.47779 0.01250 0.43164
v 0.50000 0.01250 0.42812
v 0.52221 0.01250 0.43164
v 0.54225 0.01250 0.44185
v 0.55815 0.01250 0.45775
v 0.56836 0.01250 0.47779
v 0.50000 0.01250 0.50000
v 0.54755 0.01875 0.51545
v 0.54280 0.01250 0.51391
v 0.54500 0.01250 0.50000
v 0.55000 0.01875 0.50000
v 0.54045 0.01875 0.52939
v 0.53641 0.01250 0.52645
v 0.52939 0.01875 0.54045
v 0.52645 0.01250 0.53641
v 0.51545 0.01875 0.54755
v 0.51391 0.01250 0.54280
v 0.50000 0.01875 0.55000
v 0.50000 0.01250 0.54500
v 0.48455 0.01875 0.54755
v 0.48609 0.01250 0.54280
v 0.47061 0.01875 0.54045
v 0.47355 0.01250 0.53641
v 0.45955 0.01875 0.52939
v 0.46359 0.01250 0.52645
v 0.45245 0.01875 0.51545
v 0.45720 0.01250 0.51391
v 0.45000 0.01875 0.50000
v 0.45500 0.01250 0.50000
v 0.45245 0.01875 0.48455
v 0.45720 0.01250 0.48609
v 0.45955 0.01875 0.47061
v 0.46359 0.01250 0.47355
v 0.47061 0.01875 0.45955
v 0.47355 0.01250 0.46359
v 0.48455 0.01875 0.45245
v 0.48609 0.01250 0.45720
v 0.50000 0.01875 0.45000
v 0.50000 0.01250 0.45500
v 0.51545 0.01875 0.45245
v 0.51391 0.01250 0.45720
v 0.52939 0.01875 0.45955
v 0.52645 0.01250 0.46359
v 0.54045 0.01875 0.47061
v 0.53641 0.01250 0.47355
v 0.54755 0.01875 0.48455
v 0.54280 0.01250 0.48609
v 0.54993 0.06875 0.51622
v 0.55250 0.06875 0.50000
v 0.54247 0.06875 0.53086
v 0.53086 0.06875 0.54247
v 0.51622 0.06875 0.54993
v 0.50000 0.06875 0.55250
v 0.48378 0.06875 0.54993
v 0.46914 0.06875 0.54247
v 0.45753 0.06875 0.53086
v 0.45007 0.06875 0.51622
v 0.44750 0.06875 0.50000
v 0.45007 0.06875 0.48378
v 0.45753 0.06875 0.46914
v 0.46914 0.06875 0.45753
v 0.48378 0.06875 0.45007
v 0.50000 0.06875 0.44750
v 0.51622 0.06875 0.45007
v 0.53086 0.06875 0.45753
v 0.54247 0.06875 0.46914
v 0.54993 0.06875 0.48378
v 0.55112 0.10750 0.51661
v 0.55375 0.10750 0.50000
v 0.54348 0.10750 0.53159
v 0.53159 0.10750 0.54348
v 0.51661 0.10750 0.55112
v 0.50000 0.10750 0.55375
v 0.48339 0.10750 0.55112
v 0.46841 0.10750 0.54348
v 0.45652 0.10750 0.53159
v 0.44888 0.10750 0.51661
v 0.44625 0.10750 0.50000
v 0.44888 0.10750 0.48339
v 0.45652 0.10750 0.46841
v 0.46841 0.10750 0.45652
v 0.48339 0.10750 0.44888
v 0.50000 0.10750 0.44625
v 0.51661 0.10750 0.44888
v 0.53159 0.10750 0.45652
v 0.54348 0.10750 0.46841
v 0.55112 0.10750 0.48339
v 0.54518 0.10875 0.51468
v 0.54750 0.10875 0.50000
v 0.53843 0.10875 0.52792
v 0.52792 0.10875 0.53843
v 0.51468 0.10875 0.54518
v 0.50000 0.10875 0.54750
v 0.48532 0.10875 0.54518
v 0.47208 0.10875 0.53843
v 0.46157 0.10875 0.52792
v 0.45482 0.10875 0.51468
v 0.45250 0.10875 0.50000
v 0.45482 0.10875 0.48532
v 0.46157 0.10875 0.47208
v 0.47208 0.10875 0.46157
v 0.48532 0.10875 0.45482
v 0.50000 0.10875 0.45250
v 0.51468 0.10875 0.45482
v 0.52792 0.10875 0.46157
v 0.53843 0.10875 0.47208
v 0.54518 0.10875 0.48532
v 0.54399 0.09375 0.51429
v 0.54625 0.09375 0.50000
v 0.53742 0.09375 0.52719
v 0.52719 0.09375 0.53742
v 0.51429 0.09375 0.54399
v 0.50000 0.09375 0.54625
v 0.48571 0.09375 0.54399
v 0.47281 0.09375 0.53742
v 0.46258 0.09375 0.52719
v 0.45601 0.09375 0.51429
v 0.45375 0.09375 0.50000
v 0.45601 0.09375 0.48571
v 0.46258 0.09375 0.47281
v 0.47281 0.09375 0.46258
v 0.48571 0.09375 0.45601
v 0.50000 0.09375 0.45375
v 0.51429 0.09375 0.45601
v 0.52719 0.09375 0.46258
v 0.53742 0.09375 0.47281
v 0.54399 0.09375 0.48571
v 0.55250 0.02812 0.50000
v 0.56518 0.03065 0.50000
v 0.56386 0.03382 0.50595
v 0.55250 0.03156 0.50595
v 0.56123 0.04017 0.50595
v 0.55250 0.03844 0.50595
v 0.55991 0.04335 0.50000
v 0.55250 0.04187 0.50000
v 0.56123 0.04017 0.49405
v 0.55250 0.03844 0.49405
v 0.56386 0.03382 0.49405
v 0.55250 0.03156 0.49405
v 0.57592 0.03783 0.50000
v 0.57349 0.04026 0.50595
v 0.56863 0.04512 0.50595
v 0.56620 0.04755 0.50000
v 0.56863 0.04512 0.49405
v 0.57349 0.04026 0.49405
v 0.58310 0.04857 0.50000
v 0.57993 0.04989 0.50595
v 0.57358 0.05252 0.50595
v 0.57040 0.05384 0.50000
v 0.57358 0.05252 0.49405
v 0.57993 0.04989 0.49405
v 0.58562 0.06125 0.50000
v 0.58219 0.06125 0.50595
v 0.57531 0.06125 0.50595
v 0.57188 0.06125 0.50000
v 0.57531 0.06125 0.49405
v 0.58219 0.06125 0.49405
v 0.58310 0.07393 0.50000
v 0.57993 0.07261 0.50595
v 0.57358 0.06998 0.50595
v 0.57040 0.06866 0.50000
v 0.57358 0.06998 0.49405
v 0.57993 0.07261 0.49405
v 0.57592 0.08467 0.50000
v 0.57349 0.08224 0.50595
v 0.56863 0.07738 0.50595
v 0.56620 0.07495 0.50000
v 0.56863 0.07738 0.49405
v 0.57349 0.08224 0.49405
v 0.56518 0.09185 0.50000
v 0.56386 0.08868 0.50595
v 0.56123 0.08233 0.50595
v 0.55991 0.07915 0.50000
v 0.56123 0.08233 0.49405
v 0.56386 0.08868 0.49405
v 0.55250 0.09438 0.50000
v 0.55250 0.09094 0.50595
v 0.55250 0.08406 0.50595
v 0.55250 0.08063 0.50000
v 0.55250 0.08406 0.49405
v 0.55250 0.09094 0.49405
v 0.50000 0.09375 0.50000
vt 0.00400 0.14571
vt 0.05360 0.14571
vt 0.00400 0.00400
vt 0.10320 0.14571
vt 0.05360 0.00400
vt 0.15280 0.14571
vt 0.10320 0.00400
vt 0.20240 0.14571
vt 0.15280 0.00400
vt 0.25200 0.14571
vt 0.20240 0.00400
vt 0.30160 0.14571
vt 0.25200 0.00400
vt 0.35120 0.14571
vt 0.30160 0.00400
vt 0.40080 0.14571
vt 0.35120 0.00400
vt 0.45040 0.14571
vt 0.40080 0.00400
vt 0.50000 0.14571
vt 0.45040 0.00400
vt 0.54960 0.14571
vt 0.50000 0.00400
vt 0.59920 0.14571
vt 0.54960 0.00400
vt 0.64880 0.14571
vt 0.59920 0.00400
vt 0.69840 0.14571
vt 0.64880 0.00400
vt 0.74800 0.14571
vt 0.69840 0.00400
vt 0.79760 0.14571
vt 0.74800 0.00400
vt 0.84720 0.14571
vt 0.79760 0.00400
vt 0.89680 0.14571
vt 0.84720 0.00400
vt 0.94640 0.14571
vt 0.89680 0.00400
vt 0.99600 0.14571
vt 0.94640 0.00400
vt 0.05360 0.28743
vt 0.00400 0.28743
vt 0.10320 0.28743
vt 0.15280 0.28743
vt 0.20240 0.28743
vt 0.25200 0.28743
vt 0.30160 0.28743
vt 0.35120 0.28743
vt 0.40080 0.28743
vt 0.45040 0.28743
vt 0.50000 0.28743
vt 0.54960 0.28743
vt 0.59920 0.28743
vt 0.64880 0.28743
vt 0.69840 0.28743
vt 0.74800 0.28743
vt 0.79760 0.28743
vt 0.84720 0.28743
vt 0.89680 0.28743
vt 0.94640 0.28743
vt 0.99600 0.28743
vt 0.05360 0.42914
vt 0.00400 0.42914
vt 0.10320 0.42914
vt 0.15280 0.42914
vt 0.20240 0.42914
vt 0.25200 0.42914
vt 0.30160 0.42914
vt 0.35120 0.42914
vt 0.40080 0.42914
vt 0.45040 0.42914
vt 0.50000 0.42914
vt 0.54960 0.42914
vt 0.59920 0.42914
vt 0.64880 0.42914
vt 0.69840 0.42914
vt 0.74800 0.42914
vt 0.79760 0.42914
vt 0.84720 0.42914
vt 0.89680 0.42914
vt 0.94640 0.42914
vt 0.99600 0.42914
vt 0.05360 0.57086
vt 0.00400 0.57086
vt 0.10320 0.57086
vt 0.15280 0.57086
vt 0.20240 0.57086
vt 0.25200 0.57086
vt 0.30160 0.57086
vt 0.35120 0.57086
vt 0.40080 0.57086
vt 0.45040 0.57086
vt 0.50000 0.57086
vt 0.54960 0.57086
vt 0.59920 0.57086
vt 0.64880 0.57086
vt 0.69840 0.57086
vt 0.74800 0.57086
vt 0.79760 0.57086
vt 0.84720 0.57086
vt 0.89680 0.57086
vt 0.94640 0.57086
vt 0.99600 0.57086
vt 0.05360 0.71257
vt 0.00400 0.71257
vt 0.10320 0.71257
vt 0.15280 0.71257
vt 0.20240 0.71257
vt 0.25200 0.71257
vt 0.30160 0.71257
vt 0.35120 0.71257
vt 0.40080 0.71257
vt 0.45040 0.71257
vt 0.50000 0.71257
vt 0.54960 0.71257
vt 0.59920 0.71257
vt 0.64880 0.71257
vt 0.69840 0.71257
vt 0.74800 0.71257
vt 0.79760 0.71257
vt 0.84720 0.71257
vt 0.89680 0.71257
vt 0.94640 0.71257
vt 0.99600 0.71257
vt 0.05360 0.85429
vt 0.00400 0.85429
vt 0.10320 0.85429
vt 0.15280 0.85429
vt 0.20240 0.85429
vt 0.25200 0.85429
vt 0.30160 0.85429
vt 0.35120 0.85429
vt 0.40080 0.85429
vt 0.45040 0.85429
vt 0.50000 0.85429
vt 0.54960 0.85429
vt 0.59920 0.85429
vt 0.64880 0.85429
vt 0.69840 0.85429
vt 0.74800 0.85429
vt 0.79760 0.85429
vt 0.84720 0.85429
vt 0.89680 0.85429
vt 0.94640 0.85429
vt 0.99600 0.85429
vt 0.05360 0.99600
vt 0.10320 0.99600
vt 0.15280 0.99600
vt 0.20240 0.99600
vt 0.25200 0.99600
vt 0.30160 0.99600
vt 0.35120 0.99600
vt 0.40080 0.99600
vt 0.45040 0.99600
vt 0.50000 0.99600
vt 0.54960 0.99600
vt 0.59920 0.99600
vt 0.64880 0.99600
vt 0.69840 0.99600
vt 0.74800 0.99600
vt 0.79760 0.99600
vt 0.84720 0.99600
vt 0.89680 0.99600
vt 0.94640 0.99600
vt 0.99600 0.99600
vt 0.05360 0.20240
vt 0.00400 0.20240
vt 0.10320 0.20240
vt 0.15280 0.20240
vt 0.20240 0.20240
vt 0.25200 0.20240
vt 0.30160 0.20240
vt 0.35120 0.20240
vt 0.40080 0.20240
vt 0.45040 0.20240
vt 0.50000 0.20240
vt 0.54960 0.20240
vt 0.59920 0.20240
vt 0.64880 0.20240
vt 0.69840 0.20240
vt 0.74800 0.20240
vt 0.79760 0.20240
vt 0.84720 0.20240
vt 0.89680 0.20240
vt 0.94640 0.20240
vt 0.99600 0.20240
vt 0.99600 0.00400
vt 0.05360 0.40080
vt 0.00400 0.40080
vt 0.10320 0.40080
vt 0.15280 0.40080
vt 0.20240 0.40080
vt 0.25200 0.40080
vt 0.30160 0.40080
vt 0.35120 0.40080
vt 0.40080 0.40080
vt 0.45040 0.40080
vt 0.50000 0.40080
vt 0.54960 0.40080
vt 0.59920 0.40080
vt 0.64880 0.40080
vt 0.69840 0.40080
vt 0.74800 0.40080
vt 0.79760 0.40080
vt 0.84720 0.40080
vt 0.89680 0.40080
vt 0.94640 0.40080
vt 0.99600 0.40080
vt 0.05360 0.59920
vt 0.00400 0.59920
vt 0.10320 0.59920
vt 0.15280 0.59920
vt 0.20240 0.59920
vt 0.25200 0.59920
vt 0.30160 0.59920
vt 0.35120 0.59920
vt 0.40080 0.59920
vt 0.45040 0.59920
vt 0.50000 0.59920
vt 0.54960 0.59920
vt 0.59920 0.59920
vt 0.64880 0.59920
vt 0.69840 0.59920
vt 0.74800 0.59920
vt 0.79760 0.59920
vt 0.84720 0.59920
vt 0.89680 0.59920
vt 0.94640 0.59920
vt 0.99600 0.59920
vt 0.05360 0.79760
vt 0.00400 0.79760
vt 0.10320 0.79760
vt 0.15280 0.79760
vt 0.20240 0.79760
vt 0.25200 0.79760
vt 0.30160 0.79760
vt 0.35120 0.79760
vt 0.40080 0.79760
vt 0.45040 0.79760
vt 0.50000 0.79760
vt 0.54960 0.79760
vt 0.59920 0.79760
vt 0.64880 0.79760
vt 0.69840 0.79760
vt 0.74800 0.79760
vt 0.79760 0.79760
vt 0.84720 0.79760
vt 0.89680 0.79760
vt 0.94640 0.79760
vt 0.99600 0.79760
vt 0.00400 0.99600
vt 0.74800 0.66533
vt 0.00400 0.66533
vt 0.74800 0.33467
vt 0.00400 0.33467
vt 0.50000 0.66533
vt 0.50000 0.33467
vt 0.25200 0.66533
vt 0.25200 0.33467
vt 0.99600 0.66533
vt 0.99600 0.33467
vt 0.50000 0.50000
vt 0.96543 0.34877
vt 0.98939 0.50000
vt 0.89592 0.21235
vt 0.78765 0.10408
vt 0.65123 0.03457
vt 0.50000 0.01061
vt 0.34877 0.03457
vt 0.21235 0.10408
vt 0.10408 0.21235
vt 0.03457 0.34877
vt 0.01061 0.50000
vt 0.03457 0.65123
vt 0.10408 0.78765
vt 0.21235 0.89592
vt 0.34877 0.96543
vt 0.50000 0.98939
vt 0.65123 0.96543
vt 0.78765 0.89592
vt 0.89592 0.78765
vt 0.96543 0.65123
vn 0.09192 -0.99577 0.00000
vn 0.08742 -0.99577 0.02840
vn 0.00000 -1.00000 0.00000
vn 0.07436 -0.99577 0.05403
vn 0.05403 -0.99577 0.07436
vn 0.02840 -0.99577 0.08742
vn 0.00000 -0.99577 0.09192
vn -0.02840 -0.99577 0.08742
vn -0.05403 -0.99577 0.07436
vn -0.07436 -0.99577 0.05403
vn -0.08742 -0.99577 0.02840
vn -0.09192 -0.99577 0.00000
vn -0.08742 -0.99577 -0.02840
vn -0.07436 -0.99577 -0.05403
vn -0.05403 -0.99577 -0.07436
vn -0.02840 -0.99577 -0.08742
vn -0.00000 -0.99577 -0.09192
vn 0.02840 -0.99577 -0.08742
vn 0.05403 -0.99577 -0.07436
vn 0.07436 -0.99577 -0.05403
vn 0.08742 -0.99577 -0.02840
vn 0.09192 -0.99577 -0.00000
vn 0.29396 -0.95103 0.09551
vn 0.30909 -0.95103 0.00000
vn 0.25006 -0.95103 0.18168
vn 0.18168 -0.95103 0.25006
vn 0.09551 -0.95103 0.29396
vn 0.00000 -0.95103 0.30909
vn -0.09551 -0.95103 0.29396
vn -0.18168 -0.95103 0.25006
vn -0.25006 -0.95103 0.18168
vn -0.29396 -0.95103 0.09551
vn -0.30909 -0.95103 0.00000
vn -0.29396 -0.95103 -0.09551
vn -0.25006 -0.95103 -0.18168
vn -0.18168 -0.95103 -0.25006
vn -0.09551 -0.95103 -0.29396
vn -0.00000 -0.95103 -0.30909
vn 0.09551 -0.95103 -0.29396
vn 0.18168 -0.95103 -0.25006
vn 0.25006 -0.95103 -0.18168
vn 0.29396 -0.95103 -0.09551
vn 0.30909 -0.95103 -0.00000
vn 0.29238 -0.95157 0.09500
vn 0.30743 -0.95157 0.00000
vn 0.24872 -0.95157 0.18070
vn 0.18070 -0.95157 0.24872
vn 0.09500 -0.95157 0.29238
vn 0.00000 -0.95157 0.30743
vn -0.09500 -0.95157 0.29238
vn -0.18070 -0.95157 0.24872
vn -0.24872 -0.95157 0.18070
vn -0.29238 -0.95157 0.09500
vn -0.30743 -0.95157 0.00000
vn -0.29238 -0.95157 -0.09500
vn -0.24872 -0.95157 -0.18070
vn -0.18070 -0.95157 -0.24872
vn -0.09500 -0.95157 -0.29238
vn -0.00000 -0.95157 -0.30743
vn 0.09500 -0.95157 -0.29238
vn 0.18070 -0.95157 -0.24872
vn 0.24872 -0.95157 -0.18070
vn 0.29238 -0.95157 -0.09500
vn 0.30743 -0.95157 -0.00000
vn 0.30075 0.94868 0.09772
vn 0.31623 0.94868 0.00000
vn 0.25583 0.94868 0.18587
vn 0.18587 0.94868 0.25583
vn 0.09772 0.94868 0.30075
vn 0.00000 0.94868 0.31623
vn -0.09772 0.94868 0.30075
vn -0.18587 0.94868 0.25583
vn -0.25583 0.94868 0.18587
vn -0.30075 0.94868 0.09772
vn -0.31623 0.94868 0.00000
vn -0.30075 0.94868 -0.09772
vn -0.25583 0.94868 -0.18587
vn -0.18587 0.94868 -0.25583
vn -0.09772 0.94868 -0.30075
vn -0.00000 0.94868 -0.31623
vn 0.09772 0.94868 -0.30075
vn 0.18587 0.94868 -0.25583
vn 0.25583 0.94868 -0.18587
vn 0.30075 0.94868 -0.09772
vn 0.31623 0.94868 -0.00000
vn -0.15255 0.98705 -0.04957
vn -0.16040 0.98705 0.00000
vn -0.12976 0.98705 -0.09428
vn -0.09428 0.98705 -0.12976
vn -0.04957 0.98705 -0.15255
vn -0.00000 0.98705 -0.16040
vn 0.04957 0.98705 -0.15255
vn 0.09428 0.98705 -0.12976
vn 0.12976 0.98705 -0.09428
vn 0.15255 0.98705 -0.04957
vn 0.16040 0.98705 -0.00000
vn 0.15255 0.98705 0.04957
vn 0.12976 0.98705 0.09428
vn 0.09428 0.98705 0.12976
vn 0.04957 0.98705 0.15255
vn 0.00000 0.98705 0.16040
vn -0.04957 0.98705 0.15255
vn -0.09428 0.98705 0.12976
vn -0.12976 0.98705 0.09428
vn -0.15255 0.98705 0.04957
vn -0.05966 0.99803 -0.01939
vn -0.06273 0.99803 0.00000
vn -0.05075 0.99803 -0.03687
vn -0.03687 0.99803 -0.05075
vn -0.01939 0.99803 -0.05966
vn -0.00000 0.99803 -0.06273
vn 0.01939 0.99803 -0.05966
vn 0.03687 0.99803 -0.05075
vn 0.05075 0.99803 -0.03687
vn 0.05966 0.99803 -0.01939
vn 0.06273 0.99803 -0.00000
vn 0.05966 0.99803 0.01939
vn 0.05075 0.99803 0.03687
vn 0.03687 0.99803 0.05075
vn 0.01939 0.99803 0.05966
vn 0.00000 0.99803 0.06273
vn -0.01939 0.99803 0.05966
vn -0.03687 0.99803 0.05075
vn -0.05075 0.99803 0.03687
vn -0.05966 0.99803 0.01939
vn 0.00000 1.00000 0.00000
vn 0.94271 -0.13216 0.30631
vn 0.74265 -0.62470 0.24130
vn 0.78087 -0.62470 0.00000
vn 0.99123 -0.13216 0.00000
vn 0.80192 -0.13216 0.58263
vn 0.63174 -0.62470 0.45898
vn 0.58263 -0.13216 0.80192
vn 0.45898 -0.62470 0.63174
vn 0.30631 -0.13216 0.94271
vn 0.24130 -0.62470 0.74265
vn 0.00000 -0.13216 0.99123
vn 0.00000 -0.62470 0.78087
vn -0.30631 -0.13216 0.94271
vn -0.24130 -0.62470 0.74265
vn -0.58263 -0.13216 0.80192
vn -0.45898 -0.62470 0.63174
vn -0.80192 -0.13216 0.58263
vn -0.63174 -0.62470 0.45898
vn -0.94271 -0.13216 0.30631
vn -0.74265 -0.62470 0.24130
vn -0.99123 -0.13216 0.00000
vn -0.78087 -0.62470 0.00000
vn -0.94271 -0.13216 -0.30631
vn -0.74265 -0.62470 -0.24130
vn -0.80192 -0.13216 -0.58263
vn -0.63174 -0.62470 -0.45898
vn -0.58263 -0.13216 -0.80192
vn -0.45898 -0.62470 -0.63174
vn -0.30631 -0.13216 -0.94271
vn -0.24130 -0.62470 -0.74265
vn -0.00000 -0.13216 -0.99123
vn -0.00000 -0.62470 -0.78087
vn 0.30631 -0.13216 -0.94271
vn 0.24130 -0.62470 -0.74265
vn 0.58263 -0.13216 -0.80192
vn 0.45898 -0.62470 -0.63174
vn 0.80192 -0.13216 -0.58263
vn 0.63174 -0.62470 -0.45898
vn 0.94271 -0.13216 -0.30631
vn 0.74265 -0.62470 -0.24130
vn 0.99123 -0.13216 -0.00000
vn 0.78087 -0.62470 -0.00000
vn 0.95021 -0.04222 0.30874
vn 0.99911 -0.04222 0.00000
vn 0.80830 -0.04222 0.58726
vn 0.58726 -0.04222 0.80830
vn 0.30874 -0.04222 0.95021
vn 0.00000 -0.04222 0.99911
vn -0.30874 -0.04222 0.95021
vn -0.58726 -0.04222 0.80830
vn -0.80830 -0.04222 0.58726
vn -0.95021 -0.04222 0.30874
vn -0.99911 -0.04222 0.00000
vn -0.95021 -0.04222 -0.30874
vn -0.80830 -0.04222 -0.58726
vn -0.58726 -0.04222 -0.80830
vn -0.30874 -0.04222 -0.95021
vn -0.00000 -0.04222 -0.99911
vn 0.30874 -0.04222 -0.95021
vn 0.58726 -0.04222 -0.80830
vn 0.80830 -0.04222 -0.58726
vn 0.95021 -0.04222 -0.30874
vn 0.99911 -0.04222 -0.00000
vn 0.94371 0.12403 0.30663
vn 0.99228 0.12403 0.00000
vn 0.80277 0.12403 0.58325
vn 0.58325 0.12403 0.80277
vn 0.30663 0.12403 0.94371
vn 0.00000 0.12403 0.99228
vn -0.30663 0.12403 0.94371
vn -0.58325 0.12403 0.80277
vn -0.80277 0.12403 0.58325
vn -0.94371 0.12403 0.30663
vn -0.99228 0.12403 0.00000
vn -0.94371 0.12403 -0.30663
vn -0.80277 0.12403 -0.58325
vn -0.58325 0.12403 -0.80277
vn -0.30663 0.12403 -0.94371
vn -0.00000 0.12403 -0.99228
vn 0.30663 0.12403 -0.94371
vn 0.58325 0.12403 -0.80277
vn 0.80277 0.12403 -0.58325
vn 0.94371 0.12403 -0.30663
vn 0.99228 0.12403 -0.00000
vn -0.83493 0.47885 -0.27128
vn -0.87790 0.47885 0.00000
vn -0.71023 0.47885 -0.51601
vn -0.51601 0.47885 -0.71023
vn -0.27128 0.47885 -0.83493
vn -0.00000 0.47885 -0.87790
vn 0.27128 0.47885 -0.83493
vn 0.51601 0.47885 -0.71023
vn 0.71023 0.47885 -0.51601
vn 0.83493 0.47885 -0.27128
vn 0.87790 0.47885 -0.00000
vn 0.83493 0.47885 0.27128
vn 0.71023 0.47885 0.51601
vn 0.51601 0.47885 0.71023
vn 0.27128 0.47885 0.83493
vn 0.00000 0.47885 0.87790
vn -0.27128 0.47885 0.83493
vn -0.51601 0.47885 0.71023
vn -0.71023 0.47885 0.51601
vn -0.83493 0.47885 0.27128
vn -0.94777 0.08305 -0.30795
vn -0.99655 0.08305 0.00000
vn -0.80622 0.08305 -0.58575
vn -0.58575 0.08305 -0.80622
vn -0.30795 0.08305 -0.94777
vn -0.00000 0.08305 -0.99655
vn 0.30795 0.08305 -0.94777
vn 0.58575 0.08305 -0.80622
vn 0.80622 0.08305 -0.58575
vn 0.94777 0.08305 -0.30795
vn 0.99655 0.08305 -0.00000
vn 0.94777 0.08305 0.30795
vn 0.80622 0.08305 0.58575
vn 0.58575 0.08305 0.80622
vn 0.30795 0.08305 0.94777
vn 0.00000 0.08305 0.99655
vn -0.30795 0.08305 0.94777
vn -0.58575 0.08305 0.80622
vn -0.80622 0.08305 0.58575
vn -0.94777 0.08305 0.30795
vn 0.38268 -0.92388 0.00000
vn 0.19134 -0.46194 0.86603
vn 0.00000 -0.50000 0.86603
vn -0.19134 0.46194 0.86603
vn -0.00000 0.50000 0.86603
vn -0.38268 0.92388 0.00000
vn -0.00000 1.00000 0.00000
vn -0.19134 0.46194 -0.86603
vn -0.00000 0.50000 -0.86603
vn 0.19134 -0.46194 -0.86603
vn 0.00000 -0.50000 -0.86603
vn 0.38268 -0.92388 -0.00000
vn 0.00000 -1.00000 -0.00000
vn 0.70711 -0.70711 0.00000
vn 0.35355 -0.35355 0.86603
vn -0.35355 0.35355 0.86603
vn -0.70711 0.70711 0.00000
vn -0.35355 0.35355 -0.86603
vn 0.35355 -0.35355 -0.86603
vn 0.70711 -0.70711 -0.00000
vn 0.92388 -0.38268 0.00000
vn 0.46194 -0.19134 0.86603
vn -0.46194 0.19134 0.86603
vn -0.92388 0.38268 0.00000
vn -0.46194 0.19134 -0.86603
vn 0.46194 -0.19134 -0.86603
vn 0.92388 -0.38268 -0.00000
vn 1.00000 0.00000 0.00000
vn 0.50000 0.00000 0.86603
vn -0.50000 0.00000 0.86603
vn -1.00000 0.00000 0.00000
vn -0.50000 0.00000 -0.86603
vn 0.50000 0.00000 -0.86603
vn 1.00000 0.00000 -0.00000
vn 0.92388 0.38268 0.00000
vn 0.46194 0.19134 0.86603
vn -0.46194 -0.19134 0.86603
vn -0.92388 -0.38268 0.00000
vn -0.46194 -0.19134 -0.86603
vn 0.46194 0.19134 -0.86603
vn 0.92388 0.38268 -0.00000
vn 0.70711 0.70711 0.00000
vn 0.35355 0.35355 0.86603
vn -0.35355 -0.35355 0.86603
vn -0.70711 -0.70711 0.00000
vn -0.35355 -0.35355 -0.86603
vn 0.35355 0.35355 -0.86603
vn 0.70711 0.70711 -0.00000
vn 0.38268 0.92388 0.00000
vn 0.19134 0.46194 0.86603
vn -0.19134 -0.46194 0.86603
vn -0.38268 -0.92388 0.00000
vn -0.19134 -0.46194 -0.86603
vn 0.19134 0.46194 -0.86603
vn 0.38268 0.92388 -0.00000
vn 0.00000 0.50000 0.86603
vn -0.00000 -0.50000 0.86603
vn -0.00000 -1.00000 0.00000
vn -0.00000 -0.50000 -0.86603
vn 0.00000 0.50000 -0.86603
vn 0.00000 1.00000 -0.00000
usemtl china
f 1/1/1 2/2/2 3/3/3
f 2/2/2 4/4/4 3/5/3
f 4/4/4 5/6/5 3/7/3
f 5/6/5 6/8/6 3/9/3
f 6/8/6 7/10/7 3/11/3
f 7/10/7 8/12/8 3/13/3
f 8/12/8 9/14/9 3/15/3
f 9/14/9 10/16/10 3/17/3
f 10/16/10 11/18/11 3/19/3
f 11/18/11 12/20/12 3/21/3
f 12/20/12 13/22/13 3/23/3
f 13/22/13 14/24/14 3/25/3
f 14/24/14 15/26/15 3/27/3
f 15/26/15 16/28/16 3/29/3
f 16/28/16 17/30/17 3/31/3
f 17/30/17 18/32/18 3/33/3
f 18/32/18 19/34/19 3/35/3
f 19/34/19 20/36/20 3/37/3
f 20/36/20 21/38/21 3/39/3
f 21/38/21 1/40/22 3/41/3
f 22/42/23 2/2/2 1/1/1
f 23/43/24 22/42/23 1/1/1
f 24/44/25 4/4/4 2/2/2
f 22/42/23 24/44/25 2/2/2
f 25/45/26 5/6/5 4/4/4
f 24/44/25 25/45/26 4/4/4
f 26/46/27 6/8/6 5/6/5
f 25/45/26 26/46/27 5/6/5
f 27/47/28 7/10/7 6/8/6
f 26/46/27 27/47/28 6/8/6
f 28/48/29 8/12/8 7/10/7
f 27/47/28 28/48/29 7/10/7
f 29/49/30 9/14/9 8/12/8
f 28/48/29 29/49/30 8/12/8
f 30/50/31 10/16/10 9/14/9
f 29/49/30 30/50/31 9/14/9
f 31/51/32 11/18/11 10/16/10
f 30/50/31 31/51/32 10/16/10
f 32/52/33 12/20/12 11/18/11
f 31/51/32 32/52/33 11/18/11
f 33/53/34 13/22/13 12/20/12
f 32/52/33 33/53/34 12/20/12
f 34/54/35 14/24/14 13/22/13
f 33/53/34 34/54/35 13/22/13
f 35/55/36 15/26/15 14/24/14
f 34/54/35 35/55/36 14/24/14
f 36/56/37 16/28/16 15/26/15
f 35/55/36 36/56/37 15/26/15
f 37/57/38 17/30/17 16/28/16
f 36/56/37 37/57/38 16/28/16
f 38/58/39 18/32/18 17/30/17
f 37/57/38 38/58/39 17/30/17
f 39/59/40 19/34/19 18/32/18
f 38/58/39 39/59/40 18/32/18
f 40/60/41 20/36/20 19/34/19
f 39/59/40 40/60/41 19/34/19
f 41/61/42 21/38/21 20/36/20
f 40/60/41 41/61/42 20/36/20
f 23/62/43 1/40/22 21/38/21
f 41/61/42 23/62/43 21/38/21
f 42/63/44 22/42/23 23/43/24
f 43/64/45 42/63/44 23/43/24
f 44/65/46 24/44/25 22/42/23
f 42/63/44 44/65/46 22/42/23
f 45/66/47 25/45/26 24/44/25
f 44/65/46 45/66/47 24/44/25
f 46/67/48 26/46/27 25/45/26
f 45/66/47 46/67/48 25/45/26
f 47/68/49 27/47/28 26/46/27
f 46/67/48 47/68/49 26/46/27
f 48/69/50 28/48/29 27/47/28
f 47/68/49 48/69/50 27/47/28
f 49/70/51 29/49/30 28/48/29
f 48/69/50 49/70/51 28/48/29
f 50/71/52 30/50/31 29/49/30
f 49/70/51 50/71/52 29/49/30
f 51/72/53 31/51/32 30/50/31
f 50/71/52 51/72/53 30/50/31
f 52/73/54 32/52/33 31/51/32
f 51/72/53 52/73/54 31/51/32
f 53/74/55 33/53/34 32/52/33
f 52/73/54 53/74/55 32/52/33
f 54/75/56 34/54/35 33/53/34
f 53/74/55 54/75/56 33/53/34
f 55/76/57 35/55/36 34/54/35
f 54/75/56 55/76/57 34/54/35
f 56/77/58 36/56/37 35/55/36
f 55/76/57 56/77/58 35/55/36
f 57/78/59 37/57/38 36/56/37
f 56/77/58 57/78/59 36/56/37
f 58/79/60 38/58/39 37/57/38
f 57/78/59 58/79/60 37/57/38
f 59/80/61 39/59/40 38/58/39
f 58/79/60 59/80/61 38/58/39
f 60/81/62 40/60/41 39/59/40
f 59/80/61 60/81/62 39/59/40
f 61/82/63 41/61/42 40/60/41
f 60/81/62 61/82/63 40/60/41
f 43/83/64 23/62/43 41/61/42
f 61/82/63 43/83/64 41/61/42
f 62/84/65 42/63/44 43/64/45
f 63/85/66 62/84/65 43/64/45
f 64/86/67 44/65/46 42/63/44
f 62/84/65 64/86/67 42/63/44
f 65/87/68 45/66/47 44/65/46
f 64/86/67 65/87/68 44/65/46
f 66/88/69 46/67/48 45/66/47
f 65/87/68 66/88/69 45/66/47
f 67/89/70 47/68/49 46/67/48
f 66/88/69 67/89/70 46/67/48
f 68/90/71 48/69/50 47/68/49
f 67/89/70 68/90/71 47/68/49
f 69/91/72 49/70/51 48/69/50
f 68/90/71 69/91/72 48/69/50
f 70/92/73 50/71/52 49/70/51
f 69/91/72 70/92/73 49/70/51
f 71/93/74 51/72/53 50/71/52
f 70/92/73 71/93/74 50/71/52
f 72/94/75 52/73/54 51/72/53
f 71/93/74 72/94/75 51/72/53
f 73/95/76 53/74/55 52/73/54
f 72/94/75 73/95/76 52/73/54
f 74/96/77 54/75/56 53/74/55
f 73/95/76 74/96/77 53/74/55
f 75/97/78 55/76/57 54/75/56
f 74/96/77 75/97/78 54/75/56
f 76/98/79 56/77/58 55/76/57
f 75/97/78 76/98/79 55/76/57
f 77/99/80 57/78/59 56/77/58
f 76/98/79 77/99/80 56/77/58
f 78/100/81 58/79/60 57/78/59
f 77/99/80 78/100/81 57/78/59
f 79/101/82 59/80/61 58/79/60
f 78/100/81 79/101/82 58/79/60
f 80/102/83 60/81/62 59/80/61
f 79/101/82 80/102/83 59/80/61
f 81/103/84 61/82/63 60/81/62
f 80/102/83 81/103/84 60/81/62
f 63/104/85 43/83/64 61/82/63
f 81/103/84 63/104/85 61/82/63
f 82/105/86 62/84/65 63/85/66
f 83/106/87 82/105/86 63/85/66
f 84/107/88 64/86/67 62/84/65
f 82/105/86 84/107/88 62/84/65
f 85/108/89 65/87/68 64/86/67
f 84/107/88 85/108/89 64/86/67
f 86/109/90 66/88/69 65/87/68
f 85/108/89 86/109/90 65/87/68
f 87/110/91 67/89/70 66/88/69
f 86/109/90 87/110/91 66/88/69
f 88/111/92 68/90/71 67/89/70
f 87/110/91 88/111/92 67/89/70
f 89/112/93 69/91/72 68/90/71
f 88/111/92 89/112/93 68/90/71
f 90/113/94 70/92/73 69/91/72
f 89/112/93 90/113/94 69/91/72
f 91/114/95 71/93/74 70/92/73
f 90/113/94 91/114/95 70/92/73
f 92/115/96 72/94/75 71/93/74
f 91/114/95 92/115/96 71/93/74
f 93/116/97 73/95/76 72/94/75
f 92/115/96 93/116/97 72/94/75
f 94/117/98 74/96/77 73/95/76
f 93/116/97 94/117/98 73/95/76
f 95/118/99 75/97/78 74/96/77
f 94/117/98 95/118/99 74/96/77
f 96/119/100 76/98/79 75/97/78
f 95/118/99 96/119/100 75/97/78
f 97/120/101 77/99/80 76/98/79
f 96/119/100 97/120/101 76/98/79
f 98/121/102 78/100/81 77/99/80
f 97/120/101 98/121/102 77/99/80
f 99/122/103 79/101/82 78/100/81
f 98/121/102 99/122/103 78/100/81
f 100/123/104 80/102/83 79/101/82
f 99/122/103 100/123/104 79/101/82
f 101/124/105 81/103/84 80/102/83
f 100/123/104 101/124/105 80/102/83
f 83/125/87 63/104/85 81/103/84
f 101/124/105 83/125/87 81/103/84
f 102/126/106 82/105/86 83/106/87
f 103/127/107 102/126/106 83/106/87
f 104/128/108 84/107/88 82/105/86
f 102/126/106 104/128/108 82/105/86
f 105/129/109 85/108/89 84/107/88
f 104/128/108 105/129/109 84/107/88
f 106/130/110 86/109/90 85/108/89
f 105/129/109 106/130/110 85/108/89
f 107/131/111 87/110/91 86/109/90
f 106/130/110 107/131/111 86/109/90
f 108/132/112 88/111/92 87/110/91
f 107/131/111 108/132/112 87/110/91
f 109/133/113 89/112/93 88/111/92
f 108/132/112 109/133/113 88/111/92
f 110/134/114 90/113/94 89/112/93
f 109/133/113 110/134/114 89/112/93
f 111/135/115 91/114/95 90/113/94
f 110/134/114 111/135/115 90/113/94
f 112/136/116 92/115/96 91/114/95
f 111/135/115 112/136/116 91/114/95
f 113/137/117 93/116/97 92/115/96
f 112/136/116 113/137/117 92/115/96
f 114/138/118 94/117/98 93/116/97
f 113/137/117 114/138/118 93/116/97
f 115/139/119 95/118/99 94/117/98
f 114/138/118 115/139/119 94/117/98
f 116/140/120 96/119/100 95/118/99
f 115/139/119 116/140/120 95/118/99
f 117/141/121 97/120/101 96/119/100
f 116/140/120 117/141/121 96/119/100
f 118/142/122 98/121/102 97/120/101
f 117/141/121 118/142/122 97/120/101
f 119/143/123 99/122/103 98/121/102
f 118/142/122 119/143/123 98/121/102
f 120/144/124 100/123/104 99/122/103
f 119/143/123 120/144/124 99/122/103
f 121/145/125 101/124/105 100/123/104
f 120/144/124 121/145/125 100/123/104
f 103/146/107 83/125/87 101/124/105
f 121/145/125 103/146/107 101/124/105
f 122/147/126 102/126/106 103/127/107
f 122/148/126 104/128/108 102/126/106
f 122/149/126 105/129/109 104/128/108
f 122/150/126 106/130/110 105/129/109
f 122/151/126 107/131/111 106/130/110
f 122/152/126 108/132/112 107/131/111
f 122/153/126 109/133/113 108/132/112
f 122/154/126 110/134/114 109/133/113
f 122/155/126 111/135/115 110/134/114
f 122/156/126 112/136/116 111/135/115
f 122/157/126 113/137/117 112/136/116
f 122/158/126 114/138/118 113/137/117
f 122/159/126 115/139/119 114/138/118
f 122/160/126 116/140/120 115/139/119
f 122/161/126 117/141/121 116/140/120
f 122/162/126 118/142/122 117/141/121
f 122/163/126 119/143/123 118/142/122
f 122/164/126 120/144/124 119/143/123
f 122/165/126 121/145/125 120/144/124
f 122/166/126 103/146/107 121/145/125
f 123/167/127 124/5/128 125/3/129
f 126/168/130 123/167/127 125/3/129
f 127/169/131 128/7/132 124/5/128
f 123/167/127 127/169/131 124/5/128
f 129/170/133 130/9/134 128/7/132
f 127/169/131 129/170/133 128/7/132
f 131/171/135 132/11/136 130/9/134
f 129/170/133 131/171/135 130/9/134
f 133/172/137 134/13/138 132/11/136
f 131/171/135 133/172/137 132/11/136
f 135/173/139 136/15/140 134/13/138
f 133/172/137 135/173/139 134/13/138
f 137/174/141 138/17/142 136/15/140
f 135/173/139 137/174/141 136/15/140
f 139/175/143 140/19/144 138/17/142
f 137/174/141 139/175/143 138/17/142
f 141/176/145 142/21/146 140/19/144
f 139/175/143 141/176/145 140/19/144
f 143/177/147 144/23/148 142/21/146
f 141/176/145 143/177/147 142/21/146
f 145/178/149 146/25/150 144/23/148
f 143/177/147 145/178/149 144/23/148
f 147/179/151 148/27/152 146/25/150
f 145/178/149 147/179/151 146/25/150
f 149/180/153 150/29/154 148/27/152
f 147/179/151 149/180/153 148/27/152
f 151/181/155 152/31/156 150/29/154
f 149/180/153 151/181/155 150/29/154
f 153/182/157 154/33/158 152/31/156
f 151/181/155 153/182/157 152/31/156
f 155/183/159 156/35/160 154/33/158
f 153/182/157 155/183/159 154/33/158
f 157/184/161 158/37/162 156/35/160
f 155/183/159 157/184/161 156/35/160
f 159/185/163 160/39/164 158/37/162
f 157/184/161 159/185/163 158/37/162
f 161/186/165 162/41/166 160/39/164
f 159/185/163 161/186/165 160/39/164
f 126/187/167 125/188/168 162/41/166
f 161/186/165 126/187/167 162/41/166
f 163/189/169 123/167/127 126/168/130
f 164/190/170 163/189/169 126/168/130
f 165/191/171 127/169/131 123/167/127
f 163/189/169 165/191/171 123/167/127
f 166/192/172 129/170/133 127/169/131
f 165/191/171 166/192/172 127/169/131
f 167/193/173 131/171/135 129/170/133
f 166/192/172 167/193/173 129/170/133
f 168/194/174 133/172/137 131/171/135
f 167/193/173 168/194/174 131/171/135
f 169/195/175 135/173/139 133/172/137
f 168/194/174 169/195/175 133/172/137
f 170/196/176 137/174/141 135/173/139
f 169/195/175 170/196/176 135/173/139
f 171/197/177 139/175/143 137/174/141
f 170/196/176 171/197/177 137/174/141
f 172/198/178 141/176/145 139/175/143
f 171/197/177 172/198/178 139/175/143
f 173/199/179 143/177/147 141/176/145
f 172/198/178 173/199/179 141/176/145
f 174/200/180 145/178/149 143/177/147
f 173/199/179 174/200/180 143/177/147
f 175/201/181 147/179/151 145/178/149
f 174/200/180 175/201/181 145/178/149
f 176/202/182 149/180/153 147/179/151
f 175/201/181 176/202/182 147/179/151
f 177/203/183 151/181/155 149/180/153
f 176/202/182 177/203/183 149/180/153
f 178/204/184 153/182/157 151/181/155
f 177/203/183 178/204/184 151/181/155
f 179/205/185 155/183/159 153/182/157
f 178/204/184 179/205/185 153/182/157
f 180/206/186 157/184/161 155/183/159
f 179/205/185 180/206/186 155/183/159
f 181/207/187 159/185/163 157/184/161
f 180/206/186 181/207/187 157/184/161
f 182/208/188 161/186/165 159/185/163
f 181/207/187 182/208/188 159/185/163
f 164/209/189 126/187/167 161/186/165
f 182/208/188 164/209/189 161/186/165
f 183/210/190 163/189/169 164/190/170
f 184/211/191 183/210/190 164/190/170
f 185/212/192 165/191/171 163/189/169
f 183/210/190 185/212/192 163/189/169
f 186/213/193 166/192/172 165/191/171
f 185/212/192 186/213/193 165/191/171
f 187/214/194 167/193/173 166/192/172
f 186/213/193 187/214/194 166/192/172
f 188/215/195 168/194/174 167/193/173
f 187/214/194 188/215/195 167/193/173
f 189/216/196 169/195/175 168/194/174
f 188/215/195 189/216/196 168/194/174
f 190/217/197 170/196/176 169/195/175
f 189/216/196 190/217/197 169/195/175
f 191/218/198 171/197/177 170/196/176
f 190/217/197 191/218/198 170/196/176
f 192/219/199 172/198/178 171/197/177
f 191/218/198 192/219/199 171/197/177
f 193/220/200 173/199/179 172/198/178
f 192/219/199 193/220/200 172/198/178
f 194/221/201 174/200/180 173/199/179
f 193/220/200 194/221/201 173/199/179
f 195/222/202 175/201/181 174/200/180
f 194/221/201 195/222/202 174/200/180
f 196/223/203 176/202/182 175/201/181
f 195/222/202 196/223/203 175/201/181
f 197/224/204 177/203/183 176/202/182
f 196/223/203 197/224/204 176/202/182
f 198/225/205 178/204/184 177/203/183
f 197/224/204 198/225/205 177/203/183
f 199/226/206 179/205/185 178/204/184
f 198/225/205 199/226/206 178/204/184
f 200/227/207 180/206/186 179/205/185
f 199/226/206 200/227/207 179/205/185
f 201/228/208 181/207/187 180/206/186
f 200/227/207 201/228/208 180/206/186
f 202/229/209 182/208/188 181/207/187
f 201/228/208 202/229/209 181/207/187
f 184/230/210 164/209/189 182/208/188
f 202/229/209 184/230/210 182/208/188
f 203/231/211 183/210/190 184/211/191
f 204/232/212 203/231/211 184/211/191
f 205/233/213 185/212/192 183/210/190
f 203/231/211 205/233/213 183/210/190
f 206/234/214 186/213/193 185/212/192
f 205/233/213 206/234/214 185/212/192
f 207/235/215 187/214/194 186/213/193
f 206/234/214 207/235/215 186/213/193
f 208/236/216 188/215/195 187/214/194
f 207/235/215 208/236/216 187/214/194
f 209/237/217 189/216/196 188/215/195
f 208/236/216 209/237/217 188/215/195
f 210/238/218 190/217/197 189/216/196
f 209/237/217 210/238/218 189/216/196
f 211/239/219 191/218/198 190/217/197
f 210/238/218 211/239/219 190/217/197
f 212/240/220 192/219/199 191/218/198
f 211/239/219 212/240/220 191/218/198
f 213/241/221 193/220/200 192/219/199
f 212/240/220 213/241/221 192/219/199
f 214/242/222 194/221/201 193/220/200
f 213/241/221 214/242/222 193/220/200
f 215/243/223 195/222/202 194/221/201
f 214/242/222 215/243/223 194/221/201
f 216/244/224 196/223/203 195/222/202
f 215/243/223 216/244/224 195/222/202
f 217/245/225 197/224/204 196/223/203
f 216/244/224 217/245/225 196/223/203
f 218/246/226 198/225/205 197/224/204
f 217/245/225 218/246/226 197/224/204
f 219/247/227 199/226/206 198/225/205
f 218/246/226 219/247/227 198/225/205
f 220/248/228 200/227/207 199/226/206
f 219/247/227 220/248/228 199/226/206
f 221/249/229 201/228/208 200/227/207
f 220/248/228 221/249/229 200/227/207
f 222/250/230 202/229/209 201/228/208
f 221/249/229 222/250/230 201/228/208
f 204/251/212 184/230/210 202/229/209
f 222/250/230 204/251/212 202/229/209
f 223/147/231 203/231/211 204/232/212
f 224/252/232 223/147/231 204/232/212
f 225/148/233 205/233/213 203/231/211
f 223/147/231 225/148/233 203/231/211
f 226/149/234 206/234/214 205/233/213
f 225/148/233 226/149/234 205/233/213
f 227/150/235 207/235/215 206/234/214
f 226/149/234 227/150/235 206/234/214
f 228/151/236 208/236/216 207/235/215
f 227/150/235 228/151/236 207/235/215
f 229/152/237 209/237/217 208/236/216
f 228/151/236 229/152/237 208/236/216
f 230/153/238 210/238/218 209/237/217
f 229/152/237 230/153/238 209/237/217
f 231/154/239 211/239/219 210/238/218
f 230/153/238 231/154/239 210/238/218
f 232/155/240 212/240/220 211/239/219
f 231/154/239 232/155/240 211/239/219
f 233/156/241 213/241/221 212/240/220
f 232/155/240 233/156/241 212/240/220
f 234/157/242 214/242/222 213/241/221
f 233/156/241 234/157/242 213/241/221
f 235/158/243 215/243/223 214/242/222
f 234/157/242 235/158/243 214/242/222
f 236/159/244 216/244/224 215/243/223
f 235/158/243 236/159/244 215/243/223
f 237/160/245 217/245/225 216/244/224
f 236/159/244 237/160/245 216/244/224
f 238/161/246 218/246/226 217/245/225
f 237/160/245 238/161/246 217/245/225
f 239/162/247 219/247/227 218/246/226
f 238/161/246 239/162/247 218/246/226
f 240/163/248 220/248/228 219/247/227
f 239/162/247 240/163/248 219/247/227
f 241/164/249 221/249/229 220/248/228
f 240/163/248 241/164/249 220/248/228
f 242/165/250 222/250/230 221/249/229
f 241/164/249 242/165/250 221/249/229
f 224/166/232 204/251/212 222/250/230
f 242/165/250 224/166/232 222/250/230
f 243/252/3 244/161/251 245/253/252
f 243/252/3 245/253/252 246/254/253
f 246/254/253 245/253/252 247/255/254
f 246/254/253 247/255/254 248/256/255
f 248/256/255 247/255/254 249/33/256
f 248/256/255 249/33/256 250/3/257
f 250/3/257 249/33/256 251/255/258
f 250/3/257 251/255/258 252/256/259
f 252/256/259 251/255/258 253/253/260
f 252/256/259 253/253/260 254/254/261
f 254/254/261 253/253/260 244/161/262
f 254/254/261 244/161/262 243/252/263
f 244/161/251 255/156/264 256/257/265
f 244/161/251 256/257/265 245/253/252
f 245/253/252 256/257/265 257/258/266
f 245/253/252 257/258/266 247/255/254
f 247/255/254 257/258/266 258/23/267
f 247/255/254 258/23/267 249/33/256
f 249/33/256 258/23/267 259/258/268
f 249/33/256 259/258/268 251/255/258
f 251/255/258 259/258/268 260/257/269
f 251/255/258 260/257/269 253/253/260
f 253/253/260 260/257/269 255/156/270
f 253/253/260 255/156/270 244/161/262
f 255/156/264 261/151/271 262/259/272
f 255/156/264 262/259/272 256/257/265
f 256/257/265 262/259/272 263/260/273
f 256/257/265 263/260/273 257/258/266
f 257/258/266 263/260/273 264/13/274
f 257/258/266 264/13/274 258/23/267
f 258/23/267 264/13/274 265/260/275
f 258/23/267 265/260/275 259/258/268
f 259/258/268 265/260/275 266/259/276
f 259/258/268 266/259/276 260/257/269
f 260/257/269 266/259/276 261/151/277
f 260/257/269 261/151/277 255/156/270
f 261/151/271 267/166/278 268/261/279
f 261/151/271 268/261/279 262/259/272
f 262/259/272 268/261/279 269/262/280
f 262/259/272 269/262/280 263/260/273
f 263/260/273 269/262/280 270/188/281
f 263/260/273 270/188/281 264/13/274
f 264/13/274 270/188/281 271/262/282
f 264/13/274 271/262/282 265/260/275
f 265/260/275 271/262/282 272/261/283
f 265/260/275 272/261/283 266/259/276
f 266/259/276 272/261/283 267/166/284
f 266/259/276 267/166/284 261/151/277
f 267/166/278 273/151/285 274/259/286
f 267/166/278 274/259/286 268/261/279
f 268/261/279 274/259/286 275/260/287
f 268/261/279 275/260/287 269/262/280
f 269/262/280 275/260/287 276/13/288
f 269/262/280 276/13/288 270/188/281
f 270/188/281 276/13/288 277/260/289
f 270/188/281 277/260/289 271/262/282
f 271/262/282 277/260/289 278/259/290
f 271/262/282 278/259/290 272/261/283
f 272/261/283 278/259/290 273/151/291
f 272/261/283 273/151/291 267/166/284
f 273/151/285 279/156/292 280/257/293
f 273/151/285 280/257/293 274/259/286
f 274/259/286 280/257/293 281/258/294
f 274/259/286 281/258/294 275/260/287
f 275/260/287 281/258/294 282/23/295
f 275/260/287 282/23/295 276/13/288
f 276/13/288 282/23/295 283/258/296
f 276/13/288 283/258/296 277/260/289
f 277/260/289 283/258/296 284/257/297
f 277/260/289 284/257/297 278/259/290
f 278/259/290 284/257/297 279/156/298
f 278/259/290 279/156/298 273/151/291
f 279/156/292 285/161/299 286/253/300
f 279/156/292 286/253/300 280/257/293
f 280/257/293 286/253/300 287/255/301
f 280/257/293 287/255/301 281/258/294
f 281/258/294 287/255/301 288/33/302
f 281/258/294 288/33/302 282/23/295
f 282/23/295 288/33/302 289/255/303
f 282/23/295 289/255/303 283/258/296
f 283/258/296 289/255/303 290/253/304
f 283/258/296 290/253/304 284/257/297
f 284/257/297 290/253/304 285/161/305
f 284/257/297 285/161/305 279/156/298
f 285/161/299 291/252/126 292/254/306
f 285/161/299 292/254/306 286/253/300
f 286/253/300 292/254/306 293/256/307
f 286/253/300 293/256/307 287/255/301
f 287/255/301 293/256/307 294/3/308
f 287/255/301 294/3/308 288/33/302
f 288/33/302 294/3/308 295/256/309
f 288/33/302 295/256/309 289/255/303
f 289/255/303 295/256/309 296/254/310
f 289/255/303 296/254/310 290/253/304
f 290/253/304 296/254/310 291/252/311
f 290/253/304 291/252/311 285/161/305
usemtl coffee
f 297/263/126 223/264/126 224/265/126
f 297/263/126 225/266/126 223/264/126
f 297/263/126 226/267/126 225/266/126
f 297/263/126 227/268/126 226/267/126
f 297/263/126 228/269/126 227/268/126
f 297/263/126 229/270/126 228/269/126
f 297/263/126 230/271/126 229/270/126
f 297/263/126 231/272/126 230/271/126
f 297/263/126 232/273/126 231/272/126
f 297/263/126 233/274/126 232/273/126
f 297/263/126 234/275/126 233/274/126
f 297/263/126 235/276/126 234/275/126
f 297/263/126 236/277/126 235/276/126
f 297/263/126 237/278/126 236/277/126
f 297/263/126 238/279/126 237/278/126
f 297/263/126 239/280/126 238/279/126
f 297/263/126 240/281/126 239/280/126
f 297/263/126 241/282/126 240/281/126
f 297/263/126 242/283/126 241/282/126
f 297/263/126 224/265/126 242/283/126
