# Procedurally generated by dev-env-utils/scripts/gen_novelties.py -- do not hand edit
mtllib cookies.mtl
o cookies
v 0.61250 0.00000 0.50000
v 0.60867 0.00000 0.52912
v 0.50000 0.00000 0.50000
v 0.59743 0.00000 0.55625
v 0.57955 0.00000 0.57955
v 0.55625 0.00000 0.59743
v 0.52912 0.00000 0.60867
v 0.50000 0.00000 0.61250
v 0.47088 0.00000 0.60867
v 0.44375 0.00000 0.59743
v 0.42045 0.00000 0.57955
v 0.40257 0.00000 0.55625
v 0.39133 0.00000 0.52912
v 0.38750 0.00000 0.50000
v 0.39133 0.00000 0.47088
v 0.40257 0.00000 0.44375
v 0.42045 0.00000 0.42045
v 0.44375 0.00000 0.40257
v 0.47088 0.00000 0.39133
v 0.50000 0.00000 0.38750
v 0.52912 0.00000 0.39133
v 0.55625 0.00000 0.40257
v 0.57955 0.00000 0.42045
v 0.59743 0.00000 0.44375
v 0.60867 0.00000 0.47088
v 0.62074 0.00625 0.53235
v 0.62500 0.00625 0.50000
v 0.60825 0.00625 0.56250
v 0.58839 0.00625 0.58839
v 0.56250 0.00625 0.60825
v 0.53235 0.00625 0.62074
v 0.50000 0.00625 0.62500
v 0.46765 0.00625 0.62074
v 0.43750 0.00625 0.60825
v 0.41161 0.00625 0.58839
v 0.39175 0.00625 0.56250
v 0.37926 0.00625 0.53235
v 0.37500 0.00625 0.50000
v 0.37926 0.00625 0.46765
v 0.39175 0.00625 0.43750
v 0.41161 0.00625 0.41161
v 0.43750 0.00625 0.39175
v 0.46765 0.00625 0.37926
v 0.50000 0.00625 0.37500
v 0.53235 0.00625 0.37926
v 0.56250 0.00625 0.39175
v 0.58839 0.00625 0.41161
v 0.60825 0.00625 0.43750
v 0.62074 0.00625 0.46765
v 0.67507 0.01875 0.54691
v 0.68125 0.01875 0.50000
v 0.65697 0.01875 0.59062
v 0.62816 0.01875 0.62816
v 0.59062 0.01875 0.65697
v 0.54691 0.01875 0.67507
v 0.50000 0.01875 0.68125
v 0.45309 0.01875 0.67507
v 0.40938 0.01875 0.65697
v 0.37184 0.01875 0.62816
v 0.34303 0.01875 0.59062
v 0.32493 0.01875 0.54691
v 0.31875 0.01875 0.50000
v 0.32493 0.01875 0.45309
v 0.34303 0.01875 0.40938
v 0.37184 0.01875 0.37184
v 0.40937 0.01875 0.34303
v 0.45309 0.01875 0.32493
v 0.50000 0.01875 0.31875
v 0.54691 0.01875 0.32493
v 0.59062 0.01875 0.34303
v 0.62816 0.01875 0.37184
v 0.65697 0.01875 0.40937
v 0.67507 0.01875 0.45309
v 0.68111 0.02375 0.54853
v 0.68750 0.02375 0.50000
v 0.66238 0.02375 0.59375
v 0.63258 0.02375 0.63258
v 0.59375 0.02375 0.66238
v 0.54853 0.02375 0.68111
v 0.50000 0.02375 0.68750
v 0.45147 0.02375 0.68111
v 0.40625 0.02375 0.66238
v 0.36742 0.02375 0.63258
v 0.33762 0.02375 0.59375
v 0.31889 0.02375 0.54853
v 0.31250 0.02375 0.50000
v 0.31889 0.02375 0.45147
v 0.33762 0.02375 0.40625
v 0.36742 0.02375 0.36742
v 0.40625 0.02375 0.33762
v 0.45147 0.02375 0.31889
v 0.50000 0.02375 0.31250
v 0.54853 0.02375 0.31889
v 0.59375 0.02375 0.33762
v 0.63258 0.02375 0.36742
v 0.66238 0.02375 0.40625
v 0.68111 0.02375 0.45147
v 0.66904 0.02250 0.54529
v 0.67500 0.02250 0.50000
v 0.65155 0.02250 0.58750
v 0.62374 0.02250 0.62374
v 0.58750 0.02250 0.65155
v 0.54529 0.02250 0.66904
v 0.50000 0.02250 0.67500
v 0.45471 0.02250 0.66904
v 0.41250 0.02250 0.65155
v 0.37626 0.02250 0.62374
v 0.34845 0.02250 0.58750
v 0.33096 0.02250 0.54529
v 0.32500 0.02250 0.50000
v 0.33096 0.02250 0.45471
v 0.34845 0.02250 0.41250
v 0.37626 0.02250 0.37626
v 0.41250 0.02250 0.34845
v 0.45471 0.02250 0.33096
v 0.50000 0.02250 0.32500
v 0.54529 0.02250 0.33096
v 0.58750 0.02250 0.34845
v 0.62374 0.02250 0.37626
v 0.65155 0.02250 0.41250
v 0.66904 0.02250 0.45471
v 0.61470 0.01250 0.53073
v 0.61875 0.01250 0.50000
v 0.60284 0.01250 0.55937
v 0.58397 0.01250 0.58397
v 0.55937 0.01250 0.60284
v 0.53073 0.01250 0.61470
v 0.50000 0.01250 0.61875
v 0.46927 0.01250 0.61470
v 0.44063 0.01250 0.60284
v 0.41603 0.01250 0.58397
v 0.39716 0.01250 0.55937
v 0.38530 0.01250 0.53073
v 0.38125 0.01250 0.50000
v 0.38530 0.01250 0.46927
v 0.39716 0.01250 0.44063
v 0.41603 0.01250 0.41603
v 0.44062 0.01250 0.39716
v 0.46927 0.01250 0.38530
v 0.50000 0.01250 0.38125
v 0.53073 0.01250 0.38530
v 0.55937 0.01250 0.39716
v 0.58397 0.01250 0.41603
v 0.60284 0.01250 0.44062
v 0.61470 0.01250 0.46927
v 0.50000 0.01250 0.50000
v 0.60140 0.01312 0.51813
v 0.61398 0.01009 0.53080
v 0.58390 0.01312 0.54844
v 0.61850 0.00786 0.54821
v 0.61375 0.00705 0.56567
v 0.60100 0.00786 0.57852
v 0.58367 0.01009 0.58330
v 0.56640 0.01312 0.57875
v 0.55382 0.01616 0.56607
v 0.54930 0.01839 0.54867
v 0.55405 0.01920 0.53120
v 0.56680 0.01839 0.51836
v 0.58413 0.01616 0.51357
v 0.60140 0.01313 0.51813
v 0.61688 0.01479 0.52998
v 0.60340 0.01805 0.51640
v 0.62172 0.01241 0.54862
v 0.61663 0.01154 0.56734
v 0.60297 0.01241 0.58110
v 0.58440 0.01479 0.58623
v 0.56590 0.01805 0.58135
v 0.55242 0.02130 0.56776
v 0.54758 0.02369 0.54912
v 0.55267 0.02456 0.53041
v 0.56633 0.02369 0.51664
v 0.58489 0.02130 0.51151
v 0.61557 0.02055 0.53173
v 0.60299 0.02359 0.51905
v 0.62010 0.01833 0.54913
v 0.61534 0.01751 0.56659
v 0.60260 0.01833 0.57944
v 0.58526 0.02055 0.58423
v 0.56799 0.02359 0.57967
v 0.55541 0.02663 0.56699
v 0.55089 0.02885 0.54959
v 0.55564 0.02967 0.53213
v 0.56839 0.02885 0.51928
v 0.58572 0.02663 0.51449
v 0.58549 0.02359 0.54936
v 0.53500 0.01437 0.59688
v 0.53031 0.01134 0.61411
v 0.50000 0.01437 0.59688
v 0.51750 0.00911 0.62673
v 0.50000 0.00830 0.63134
v 0.48250 0.00911 0.62673
v 0.46969 0.01134 0.61411
v 0.46500 0.01437 0.59688
v 0.46969 0.01741 0.57964
v 0.48250 0.01964 0.56702
v 0.50000 0.02045 0.56241
v 0.51750 0.01964 0.56702
v 0.53031 0.01741 0.57964
v 0.53500 0.01438 0.59688
v 0.53248 0.01604 0.61621
v 0.53750 0.01930 0.59774
v 0.51875 0.01366 0.62973
v 0.50000 0.01279 0.63467
v 0.48125 0.01366 0.62973
v 0.46752 0.01604 0.61621
v 0.46250 0.01930 0.59774
v 0.46752 0.02255 0.57928
v 0.48125 0.02494 0.56576
v 0.50000 0.02581 0.56081
v 0.51875 0.02494 0.56576
v 0.53248 0.02255 0.57928
v 0.53031 0.02180 0.61595
v 0.53500 0.02484 0.59872
v 0.51750 0.01958 0.62857
v 0.50000 0.01876 0.63319
v 0.48250 0.01958 0.62857
v 0.46969 0.02180 0.61595
v 0.46500 0.02484 0.59872
v 0.46969 0.02788 0.58149
v 0.48250 0.03010 0.56887
v 0.50000 0.03092 0.56425
v 0.51750 0.03010 0.56887
v 0.53031 0.02788 0.58149
v 0.50000 0.02484 0.59872
v 0.43360 0.01312 0.57875
v 0.41633 0.01009 0.58330
v 0.41610 0.01312 0.54844
v 0.39900 0.00786 0.57852
v 0.38625 0.00705 0.56567
v 0.38150 0.00786 0.54821
v 0.38602 0.01009 0.53080
v 0.39860 0.01312 0.51813
v 0.41587 0.01616 0.51357
v 0.43320 0.01839 0.51836
v 0.44595 0.01920 0.53120
v 0.45070 0.01839 0.54867
v 0.44618 0.01616 0.56607
v 0.43360 0.01313 0.57875
v 0.41560 0.01479 0.58623
v 0.43410 0.01805 0.58135
v 0.39703 0.01241 0.58110
v 0.38337 0.01154 0.56734
v 0.37828 0.01241 0.54862
v 0.38312 0.01479 0.52998
v 0.39660 0.01805 0.51640
v 0.41511 0.02130 0.51151
v 0.43367 0.02369 0.51664
v 0.44733 0.02456 0.53041
v 0.45242 0.02369 0.54912
v 0.44758 0.02130 0.56776
v 0.41474 0.02055 0.58423
v 0.43201 0.02359 0.57967
v 0.39740 0.01833 0.57944
v 0.38466 0.01751 0.56659
v 0.37990 0.01833 0.54913
v 0.38443 0.02055 0.53173
v 0.39701 0.02359 0.51905
v 0.41428 0.02663 0.51449
v 0.43161 0.02885 0.51928
v 0.44436 0.02967 0.53213
v 0.44911 0.02885 0.54959
v 0.44459 0.02663 0.56699
v 0.41451 0.02359 0.54936
v 0.39860 0.01437 0.48187
v 0.38602 0.01134 0.46920
v 0.41610 0.01437 0.45156
v 0.38150 0.00911 0.45179
v 0.38625 0.00830 0.43433
v 0.39900 0.00911 0.42148
v 0.41633 0.01134 0.41670
v 0.43360 0.01437 0.42125
v 0.44618 0.01741 0.43393
v 0.45070 0.01964 0.45133
v 0.44595 0.02045 0.46880
v 0.43320 0.01964 0.48164
v 0.41587 0.01741 0.48643
v 0.39860 0.01438 0.48187
v 0.38312 0.01604 0.47002
v 0.39660 0.01930 0.48360
v 0.37828 0.01366 0.45138
v 0.38337 0.01279 0.43266
v 0.39703 0.01366 0.41890
v 0.41560 0.01604 0.41377
v 0.43410 0.01930 0.41865
v 0.44758 0.02255 0.43224
v 0.45242 0.02494 0.45088
v 0.44733 0.02581 0.46959
v 0.43367 0.02494 0.48336
v 0.41511 0.02255 0.48849
v 0.38443 0.02180 0.46827
v 0.39701 0.02484 0.48095
v 0.37990 0.01958 0.45087
v 0.38466 0.01876 0.43341
v 0.39740 0.01958 0.42056
v 0.41474 0.02180 0.41577
v 0.43201 0.02484 0.42033
v 0.44459 0.02788 0.43301
v 0.44911 0.03010 0.45041
v 0.44436 0.03092 0.46787
v 0.43161 0.03010 0.48072
v 0.41428 0.02788 0.48551
v 0.41451 0.02484 0.45064
v 0.46500 0.01312 0.40313
v 0.46969 0.01009 0.38589
v 0.50000 0.01312 0.40313
v 0.48250 0.00786 0.37327
v 0.50000 0.00705 0.36866
v 0.51750 0.00786 0.37327
v 0.53031 0.01009 0.38589
v 0.53500 0.01312 0.40313
v 0.53031 0.01616 0.42036
v 0.51750 0.01839 0.43298
v 0.50000 0.01920 0.43759
v 0.48250 0.01839 0.43298
v 0.46969 0.01616 0.42036
v 0.46500 0.01313 0.40313
v 0.46752 0.01479 0.38379
v 0.46250 0.01805 0.40226
v 0.48125 0.01241 0.37027
v 0.50000 0.01154 0.36533
v 0.51875 0.01241 0.37027
v 0.53248 0.01479 0.38379
v 0.53750 0.01805 0.40226
v 0.53248 0.02130 0.42072
v 0.51875 0.02369 0.43424
v 0.50000 0.02456 0.43919
v 0.48125 0.02369 0.43424
v 0.46752 0.02130 0.42072
v 0.46969 0.02055 0.38405
v 0.46500 0.02359 0.40128
v 0.48250 0.01833 0.37143
v 0.50000 0.01751 0.36681
v 0.51750 0.01833 0.37143
v 0.53031 0.02055 0.38405
v 0.53500 0.02359 0.40128
v 0.53031 0.02663 0.41851
v 0.51750 0.02885 0.43113
v 0.50000 0.02967 0.43575
v 0.48250 0.02885 0.43113
v 0.46969 0.02663 0.41851
v 0.50000 0.02359 0.40128
v 0.56640 0.01437 0.42125
v 0.58367 0.01134 0.41670
v 0.58390 0.01437 0.45156
v 0.60100 0.00911 0.42148
v 0.61375 0.00830 0.43433
v 0.61850 0.00911 0.45179
v 0.61398 0.01134 0.46920
v 0.60140 0.01437 0.48187
v 0.58413 0.01741 0.48643
v 0.56680 0.01964 0.48164
v 0.55405 0.02045 0.46880
v 0.54930 0.01964 0.45133
v 0.55382 0.01741 0.43393
v 0.56640 0.01438 0.42125
v 0.58440 0.01604 0.41377
v 0.56590 0.01930 0.41865
v 0.60297 0.01366 0.41890
v 0.61663 0.01279 0.43266
v 0.62172 0.01366 0.45138
v 0.61688 0.01604 0.47002
v 0.60340 0.01930 0.48360
v 0.58489 0.02255 0.48849
v 0.56633 0.02494 0.48336
v 0.55267 0.02581 0.46959
v 0.54758 0.02494 0.45088
v 0.55242 0.02255 0.43224
v 0.58526 0.02180 0.41577
v 0.56799 0.02484 0.42033
v 0.60260 0.01958 0.42056
v 0.61534 0.01876 0.43341
v 0.62010 0.01958 0.45087
v 0.61557 0.02180 0.46827
v 0.60299 0.02484 0.48095
v 0.58572 0.02788 0.48551
v 0.56839 0.03010 0.48072
v 0.55564 0.03092 0.46787
v 0.55089 0.03010 0.45041
v 0.55541 0.02788 0.43301
v 0.58549 0.02484 0.45064
v 0.51625 0.01312 0.48750
v 0.51156 0.01312 0.50500
v 0.48125 0.01312 0.48750
v 0.49875 0.01312 0.51781
v 0.48125 0.01312 0.52250
v 0.46375 0.01312 0.51781
v 0.45094 0.01312 0.50500
v 0.44625 0.01312 0.48750
v 0.45094 0.01312 0.47000
v 0.46375 0.01312 0.45719
v 0.48125 0.01312 0.45250
v 0.49875 0.01312 0.45719
v 0.51156 0.01312 0.47000
v 0.51373 0.01812 0.50625
v 0.51875 0.01812 0.48750
v 0.50000 0.01812 0.51998
v 0.48125 0.01812 0.52500
v 0.46250 0.01812 0.51998
v 0.44877 0.01812 0.50625
v 0.44375 0.01812 0.48750
v 0.44877 0.01812 0.46875
v 0.46250 0.01812 0.45502
v 0.48125 0.01812 0.45000
v 0.50000 0.01812 0.45502
v 0.51373 0.01812 0.46875
v 0.51156 0.02375 0.50500
v 0.51625 0.02375 0.48750
v 0.49875 0.02375 0.51781
v 0.48125 0.02375 0.52250
v 0.46375 0.02375 0.51781
v 0.45094 0.02375 0.50500
v 0.44625 0.02375 0.48750
v 0.45094 0.02375 0.47000
v 0.46375 0.02375 0.45719
v 0.48125 0.02375 0.45250
v 0.49875 0.02375 0.45719
v 0.51156 0.02375 0.47000
v 0.48125 0.02375 0.48750
v 0.54530 0.02987 0.49022
v 0.55299 0.02922 0.50661
v 0.51875 0.02500 0.51250
v 0.55151 0.02744 0.52458
v 0.54125 0.02500 0.53931
v 0.52496 0.02256 0.54686
v 0.50701 0.02078 0.54520
v 0.49220 0.02013 0.53478
v 0.48451 0.02078 0.51839
v 0.48599 0.02256 0.50042
v 0.49625 0.02500 0.48569
v 0.51254 0.02744 0.47814
v 0.53049 0.02922 0.47980
v 0.55491 0.03447 0.50664
v 0.54666 0.03517 0.48908
v 0.55332 0.03256 0.52589
v 0.54232 0.02995 0.54167
v 0.52487 0.02734 0.54976
v 0.50563 0.02543 0.54798
v 0.48977 0.02473 0.53682
v 0.48153 0.02543 0.51926
v 0.48312 0.02734 0.50000
v 0.49411 0.02995 0.48422
v 0.51157 0.03256 0.47613
v 0.53080 0.03447 0.47791
v 0.55186 0.03974 0.50756
v 0.54417 0.04039 0.49117
v 0.55038 0.03796 0.52553
v 0.54011 0.03552 0.54026
v 0.52383 0.03309 0.54781
v 0.50587 0.03130 0.54615
v 0.49107 0.03065 0.53573
v 0.48337 0.03130 0.51934
v 0.48486 0.03309 0.50137
v 0.49512 0.03552 0.48664
v 0.51141 0.03796 0.47909
v 0.52936 0.03974 0.48075
v 0.51762 0.03552 0.51345
v 0.48178 0.03625 0.46086
v 0.49974 0.03808 0.45931
v 0.49375 0.03625 0.49375
v 0.51609 0.03942 0.46700
v 0.52646 0.03991 0.48184
v 0.52806 0.03942 0.49988
v 0.52047 0.03808 0.51628
v 0.50572 0.03625 0.52664
v 0.48776 0.03442 0.52819
v 0.47141 0.03308 0.52050
v 0.46104 0.03259 0.50566
v 0.45944 0.03308 0.48762
v 0.46703 0.03442 0.47122
v 0.49967 0.04318 0.45703
v 0.48043 0.04122 0.45869
v 0.51720 0.04462 0.46526
v 0.52830 0.04514 0.48117
v 0.53002 0.04462 0.50050
v 0.52189 0.04318 0.51807
v 0.50608 0.04122 0.52917
v 0.48684 0.03926 0.53082
v 0.46932 0.03783 0.52259
v 0.45821 0.03730 0.50668
v 0.45650 0.03783 0.48736
v 0.46463 0.03926 0.46979
v 0.49869 0.04865 0.45969
v 0.48074 0.04682 0.46124
v 0.51505 0.04999 0.46738
v 0.52542 0.05048 0.48222
v 0.52702 0.04999 0.50026
v 0.51943 0.04865 0.51666
v 0.50468 0.04682 0.52702
v 0.48672 0.04499 0.52857
v 0.47036 0.04365 0.52088
v 0.46000 0.04316 0.50603
v 0.45839 0.04365 0.48800
v 0.46598 0.04499 0.47160
v 0.49271 0.04682 0.49413
vt 0.00400 0.14571
vt 0.04533 0.14571
vt 0.00400 0.00400
vt 0.08667 0.14571
vt 0.04533 0.00400
vt 0.12800 0.14571
vt 0.08667 0.00400
vt 0.16933 0.14571
vt 0.12800 0.00400
vt 0.21067 0.14571
vt 0.16933 0.00400
vt 0.25200 0.14571
vt 0.21067 0.00400
vt 0.29333 0.14571
vt 0.25200 0.00400
vt 0.33467 0.14571
vt 0.29333 0.00400
vt 0.37600 0.14571
vt 0.33467 0.00400
vt 0.41733 0.14571
vt 0.37600 0.00400
vt 0.45867 0.14571
vt 0.41733 0.00400
vt 0.50000 0.14571
vt 0.45867 0.00400
vt 0.54133 0.14571
vt 0.50000 0.00400
vt 0.58267 0.14571
vt 0.54133 0.00400
vt 0.62400 0.14571
vt 0.58267 0.00400
vt 0.66533 0.14571
vt 0.62400 0.00400
vt 0.70667 0.14571
vt 0.66533 0.00400
vt 0.74800 0.14571
vt 0.70667 0.00400
vt 0.78933 0.14571
vt 0.74800 0.00400
vt 0.83067 0.14571
vt 0.78933 0.00400
vt 0.87200 0.14571
vt 0.83067 0.00400
vt 0.91333 0.14571
vt 0.87200 0.00400
vt 0.95467 0.14571
vt 0.91333 0.00400
vt 0.99600 0.14571
vt 0.95467 0.00400
vt 0.04533 0.28743
vt 0.00400 0.28743
vt 0.08667 0.28743
vt 0.12800 0.28743
vt 0.16933 0.28743
vt 0.21067 0.28743
vt 0.25200 0.28743
vt 0.29333 0.28743
vt 0.33467 0.28743
vt 0.37600 0.28743
vt 0.41733 0.28743
vt 0.45867 0.28743
vt 0.50000 0.28743
vt 0.54133 0.28743
vt 0.58267 0.28743
vt 0.62400 0.28743
vt 0.66533 0.28743
vt 0.70667 0.28743
vt 0.74800 0.28743
vt 0.78933 0.28743
vt 0.83067 0.28743
vt 0.87200 0.28743
vt 0.91333 0.28743
vt 0.95467 0.28743
vt 0.99600 0.28743
vt 0.04533 0.42914
vt 0.00400 0.42914
vt 0.08667 0.42914
vt 0.12800 0.42914
vt 0.16933 0.42914
vt 0.21067 0.42914
vt 0.25200 0.42914
vt 0.29333 0.42914
vt 0.33467 0.42914
vt 0.37600 0.42914
vt 0.41733 0.42914
vt 0.45867 0.42914
vt 0.50000 0.42914
vt 0.54133 0.42914
vt 0.58267 0.42914
vt 0.62400 0.42914
vt 0.66533 0.42914
vt 0.70667 0.42914
vt 0.74800 0.42914
vt 0.78933 0.42914
vt 0.83067 0.42914
vt 0.87200 0.42914
vt 0.91333 0.42914
vt 0.95467 0.42914
vt 0.99600 0.42914
vt 0.04533 0.57086
vt 0.00400 0.57086
vt 0.08667 0.57086
vt 0.12800 0.57086
vt 0.16933 0.57086
vt 0.21067 0.57086
vt 0.25200 0.57086
vt 0.29333 0.57086
vt 0.33467 0.57086
vt 0.37600 0.57086
vt 0.41733 0.57086
vt 0.45867 0.57086
vt 0.50000 0.57086
vt 0.54133 0.57086
vt 0.58267 0.57086
vt 0.62400 0.57086
vt 0.66533 0.57086
vt 0.70667 0.57086
vt 0.74800 0.57086
vt 0.78933 0.57086
vt 0.83067 0.57086
vt 0.87200 0.57086
vt 0.91333 0.57086
vt 0.95467 0.57086
vt 0.99600 0.57086
vt 0.04533 0.71257
vt 0.00400 0.71257
vt 0.08667 0.71257
vt 0.12800 0.71257
vt 0.16933 0.71257
vt 0.21067 0.71257
vt 0.25200 0.71257
vt 0.29333 0.71257
vt 0.33467 0.71257
vt 0.37600 0.71257
vt 0.41733 0.71257
vt 0.45867 0.71257
vt 0.50000 0.71257
vt 0.54133 0.71257
vt 0.58267 0.71257
vt 0.62400 0.71257
vt 0.66533 0.71257
vt 0.70667 0.71257
vt 0.74800 0.71257
vt 0.78933 0.71257
vt 0.83067 0.71257
vt 0.87200 0.71257
vt 0.91333 0.71257
vt 0.95467 0.71257
vt 0.99600 0.71257
vt 0.04533 0.85429
vt 0.00400 0.85429
vt 0.08667 0.85429
vt 0.12800 0.85429
vt 0.16933 0.85429
vt 0.21067 0.85429
vt 0.25200 0.85429
vt 0.29333 0.85429
vt 0.33467 0.85429
vt 0.37600 0.85429
vt 0.41733 0.85429
vt 0.45867 0.85429
vt 0.50000 0.85429
vt 0.54133 0.85429
vt 0.58267 0.85429
vt 0.62400 0.85429
vt 0.66533 0.85429
vt 0.70667 0.85429
vt 0.74800 0.85429
vt 0.78933 0.85429
vt 0.83067 0.85429
vt 0.87200 0.85429
vt 0.91333 0.85429
vt 0.95467 0.85429
vt 0.99600 0.85429
vt 0.04533 0.99600
vt 0.08667 0.99600
vt 0.12800 0.99600
vt 0.16933 0.99600
vt 0.21067 0.99600
vt 0.25200 0.99600
vt 0.29333 0.99600
vt 0.33467 0.99600
vt 0.37600 0.99600
vt 0.41733 0.99600
vt 0.45867 0.99600
vt 0.50000 0.99600
vt 0.54133 0.99600
vt 0.58267 0.99600
vt 0.62400 0.99600
vt 0.66533 0.99600
vt 0.70667 0.99600
vt 0.74800 0.99600
vt 0.78933 0.99600
vt 0.83067 0.99600
vt 0.87200 0.99600
vt 0.91333 0.99600
vt 0.95467 0.99600
vt 0.99600 0.99600
vt 0.94442 0.50000
vt 0.88488 0.27779
vt 0.50000 0.50000
vt 0.72221 0.11512
vt 0.50000 0.05558
vt 0.27779 0.11512
vt 0.11512 0.27779
vt 0.05558 0.50000
vt 0.11512 0.72221
vt 0.27779 0.88488
vt 0.50000 0.94442
vt 0.72221 0.88488
vt 0.88488 0.72221
vt 0.91237 0.26192
vt 0.97616 0.50000
vt 0.73808 0.08763
vt 0.50000 0.02384
vt 0.26192 0.08763
vt 0.08763 0.26192
vt 0.02384 0.50000
vt 0.08763 0.73808
vt 0.26192 0.91237
vt 0.50000 0.97616
vt 0.73808 0.91237
vt 0.91237 0.73808
vn 0.04994 -0.99875 0.00000
vn 0.04824 -0.99875 0.01292
vn 0.00000 -1.00000 0.00000
vn 0.04325 -0.99875 0.02497
vn 0.03531 -0.99875 0.03531
vn 0.02497 -0.99875 0.04325
vn 0.01292 -0.99875 0.04824
vn 0.00000 -0.99875 0.04994
vn -0.01292 -0.99875 0.04824
vn -0.02497 -0.99875 0.04325
vn -0.03531 -0.99875 0.03531
vn -0.04325 -0.99875 0.02497
vn -0.04824 -0.99875 0.01292
vn -0.04994 -0.99875 0.00000
vn -0.04824 -0.99875 -0.01292
vn -0.04325 -0.99875 -0.02497
vn -0.03531 -0.99875 -0.03531
vn -0.02497 -0.99875 -0.04325
vn -0.01292 -0.99875 -0.04824
vn -0.00000 -0.99875 -0.04994
vn 0.01292 -0.99875 -0.04824
vn 0.02497 -0.99875 -0.04325
vn 0.03531 -0.99875 -0.03531
vn 0.04325 -0.99875 -0.02497
vn 0.04824 -0.99875 -0.01292
vn 0.04994 -0.99875 -0.00000
vn 0.25415 -0.96476 0.06810
vn 0.26312 -0.96476 0.00000
vn 0.22787 -0.96476 0.13156
vn 0.18605 -0.96476 0.18605
vn 0.13156 -0.96476 0.22787
vn 0.06810 -0.96476 0.25415
vn 0.00000 -0.96476 0.26312
vn -0.06810 -0.96476 0.25415
vn -0.13156 -0.96476 0.22787
vn -0.18605 -0.96476 0.18605
vn -0.22787 -0.96476 0.13156
vn -0.25415 -0.96476 0.06810
vn -0.26312 -0.96476 0.00000
vn -0.25415 -0.96476 -0.06810
vn -0.22787 -0.96476 -0.13156
vn -0.18605 -0.96476 -0.18605
vn -0.13156 -0.96476 -0.22787
vn -0.06810 -0.96476 -0.25415
vn -0.00000 -0.96476 -0.26312
vn 0.06810 -0.96476 -0.25415
vn 0.13156 -0.96476 -0.22787
vn 0.18605 -0.96476 -0.18605
vn 0.22787 -0.96476 -0.13156
vn 0.25415 -0.96476 -0.06810
vn 0.26312 -0.96476 -0.00000
vn 0.26044 -0.96296 0.06979
vn 0.26963 -0.96296 0.00000
vn 0.23351 -0.96296 0.13481
vn 0.19066 -0.96296 0.19066
vn 0.13481 -0.96296 0.23351
vn 0.06979 -0.96296 0.26044
vn 0.00000 -0.96296 0.26963
vn -0.06979 -0.96296 0.26044
vn -0.13481 -0.96296 0.23351
vn -0.19066 -0.96296 0.19066
vn -0.23351 -0.96296 0.13481
vn -0.26044 -0.96296 0.06979
vn -0.26963 -0.96296 0.00000
vn -0.26044 -0.96296 -0.06979
vn -0.23351 -0.96296 -0.13481
vn -0.19066 -0.96296 -0.19066
vn -0.13481 -0.96296 -0.23351
vn -0.06979 -0.96296 -0.26044
vn -0.00000 -0.96296 -0.26963
vn 0.06979 -0.96296 -0.26044
vn 0.13481 -0.96296 -0.23351
vn 0.19066 -0.96296 -0.19066
vn 0.23351 -0.96296 -0.13481
vn 0.26044 -0.96296 -0.06979
vn 0.26963 -0.96296 -0.00000
vn 0.49696 0.85749 0.13316
vn 0.51450 0.85749 0.00000
vn 0.44557 0.85749 0.25725
vn 0.36380 0.85749 0.36380
vn 0.25725 0.85749 0.44557
vn 0.13316 0.85749 0.49696
vn 0.00000 0.85749 0.51450
vn -0.13316 0.85749 0.49696
vn -0.25725 0.85749 0.44557
vn -0.36380 0.85749 0.36380
vn -0.44557 0.85749 0.25725
vn -0.49696 0.85749 0.13316
vn -0.51450 0.85749 0.00000
vn -0.49696 0.85749 -0.13316
vn -0.44557 0.85749 -0.25725
vn -0.36380 0.85749 -0.36380
vn -0.25725 0.85749 -0.44557
vn -0.13316 0.85749 -0.49696
vn -0.00000 0.85749 -0.51450
vn 0.13316 0.85749 -0.49696
vn 0.25725 0.85749 -0.44557
vn 0.36380 0.85749 -0.36380
vn 0.44557 0.85749 -0.25725
vn 0.49696 0.85749 -0.13316
vn 0.51450 0.85749 -0.00000
vn -0.15599 0.98687 -0.04180
vn -0.16149 0.98687 0.00000
vn -0.13985 0.98687 -0.08074
vn -0.11419 0.98687 -0.11419
vn -0.08074 0.98687 -0.13985
vn -0.04180 0.98687 -0.15599
vn -0.00000 0.98687 -0.16149
vn 0.04180 0.98687 -0.15599
vn 0.08074 0.98687 -0.13985
vn 0.11419 0.98687 -0.11419
vn 0.13985 0.98687 -0.08074
vn 0.15599 0.98687 -0.04180
vn 0.16149 0.98687 -0.00000
vn 0.15599 0.98687 0.04180
vn 0.13985 0.98687 0.08074
vn 0.11419 0.98687 0.11419
vn 0.08074 0.98687 0.13985
vn 0.04180 0.98687 0.15599
vn 0.00000 0.98687 0.16149
vn -0.04180 0.98687 0.15599
vn -0.08074 0.98687 0.13985
vn -0.11419 0.98687 0.11419
vn -0.13985 0.98687 0.08074
vn -0.15599 0.98687 0.04180
vn -0.05511 0.99837 -0.01477
vn -0.05705 0.99837 0.00000
vn -0.04941 0.99837 -0.02852
vn -0.04034 0.99837 -0.04034
vn -0.02852 0.99837 -0.04941
vn -0.01477 0.99837 -0.05511
vn -0.00000 0.99837 -0.05705
vn 0.01477 0.99837 -0.05511
vn 0.02852 0.99837 -0.04941
vn 0.04034 0.99837 -0.04034
vn 0.04941 0.99837 -0.02852
vn 0.05511 0.99837 -0.01477
vn 0.05705 0.99837 -0.00000
vn 0.05511 0.99837 0.01477
vn 0.04941 0.99837 0.02852
vn 0.04034 0.99837 0.04034
vn 0.02852 0.99837 0.04941
vn 0.01477 0.99837 0.05511
vn 0.00000 0.99837 0.05705
vn -0.01477 0.99837 0.05511
vn -0.02852 0.99837 0.04941
vn -0.04034 0.99837 0.04034
vn -0.04941 0.99837 0.02852
vn -0.05511 0.99837 0.01477
vn 0.00000 1.00000 0.00000
vn -0.08298 -0.97617 -0.20052
vn -0.03548 -0.98764 -0.15265
vn -0.15038 -0.98481 -0.08682
vn -0.01841 -0.99604 -0.08693
vn -0.03635 -0.99912 -0.02098
vn -0.08449 -0.99604 0.02753
vn -0.14993 -0.98764 0.04560
vn -0.21515 -0.97617 0.02839
vn -0.26265 -0.96469 -0.01948
vn -0.27972 -0.95629 -0.08519
vn -0.26178 -0.95322 -0.15114
vn -0.21364 -0.95629 -0.19965
vn -0.14820 -0.96469 -0.21772
vn 0.85945 -0.08682 -0.50380
vn 0.50000 0.00000 -0.86603
vn 0.98861 -0.15038 -0.00658
vn 0.85287 -0.17365 0.49240
vn 0.48861 -0.15038 0.85945
vn -0.00658 -0.08682 0.99620
vn -0.50000 -0.00000 0.86603
vn -0.85945 0.08682 0.50380
vn -0.98861 0.15038 0.00658
vn -0.85287 0.17365 -0.49240
vn -0.48861 0.15038 -0.85945
vn 0.00658 0.08682 -0.99620
vn 0.27621 0.96103 0.01113
vn 0.22289 0.97391 -0.04260
vn 0.29537 0.95160 0.08489
vn 0.27523 0.94815 0.15891
vn 0.22120 0.95160 0.21335
vn 0.14774 0.96103 0.23364
vn 0.07455 0.97391 0.21433
vn 0.02123 0.98679 0.16060
vn 0.00207 0.99622 0.08684
vn 0.02221 0.99967 0.01282
vn 0.07624 0.99622 -0.04163
vn 0.14970 0.98679 -0.06191
vn 0.15038 0.98481 0.08682
vn 0.13216 -0.97617 -0.17212
vn 0.11446 -0.98764 -0.10705
vn 0.00000 -0.98481 -0.17365
vn 0.06608 -0.99604 -0.05941
vn 0.00000 -0.99912 -0.04197
vn -0.06608 -0.99604 -0.05941
vn -0.11446 -0.98764 -0.10705
vn -0.13216 -0.97617 -0.17212
vn -0.11446 -0.96469 -0.23720
vn -0.06608 -0.95629 -0.28484
vn -0.00000 -0.95322 -0.30228
vn 0.06608 -0.95629 -0.28484
vn 0.11446 -0.96469 -0.23720
vn 0.86603 -0.08682 0.49240
vn 1.00000 0.00000 0.00000
vn 0.50000 -0.15038 0.85287
vn 0.00000 -0.17365 0.98481
vn -0.50000 -0.15038 0.85287
vn -0.86603 -0.08682 0.49240
vn -1.00000 -0.00000 0.00000
vn -0.86603 0.08682 -0.49240
vn -0.50000 0.15038 -0.85287
vn -0.00000 0.17365 -0.98481
vn 0.50000 0.15038 -0.85287
vn 0.86603 0.08682 -0.49240
vn 1.00000 0.00000 -0.00000
vn 0.12847 0.96103 0.24477
vn 0.14834 0.97391 0.17173
vn 0.07417 0.95160 0.29824
vn 0.00000 0.94815 0.31781
vn -0.07417 0.95160 0.29824
vn -0.12847 0.96103 0.24477
vn -0.14834 0.97391 0.17173
vn -0.12847 0.98679 0.09868
vn -0.07417 0.99622 0.04521
vn -0.00000 0.99967 0.02564
vn 0.07417 0.99622 0.04521
vn 0.12847 0.98679 0.09868
vn 0.00000 0.98481 0.17365
vn 0.21515 -0.97617 0.02839
vn 0.14993 -0.98764 0.04560
vn 0.15038 -0.98481 -0.08682
vn 0.08449 -0.99604 0.02753
vn 0.03635 -0.99912 -0.02098
vn 0.01841 -0.99604 -0.08693
vn 0.03548 -0.98764 -0.15265
vn 0.08298 -0.97617 -0.20052
vn 0.14820 -0.96469 -0.21772
vn 0.21364 -0.95629 -0.19965
vn 0.26178 -0.95322 -0.15114
vn 0.27972 -0.95629 -0.08519
vn 0.26265 -0.96469 -0.01948
vn 0.00658 -0.08682 0.99620
vn 0.50000 0.00000 0.86603
vn -0.48861 -0.15038 0.85945
vn -0.85287 -0.17365 0.49240
vn -0.98861 -0.15038 -0.00658
vn -0.85945 -0.08682 -0.50380
vn -0.50000 -0.00000 -0.86603
vn -0.00658 0.08682 -0.99620
vn 0.48861 0.15038 -0.85945
vn 0.85287 0.17365 -0.49240
vn 0.98861 0.15038 0.00658
vn 0.85945 0.08682 0.50380
vn -0.14774 0.96103 0.23364
vn -0.07455 0.97391 0.21433
vn -0.22120 0.95160 0.21335
vn -0.27523 0.94815 0.15891
vn -0.29537 0.95160 0.08489
vn -0.27621 0.96103 0.01113
vn -0.22289 0.97391 -0.04260
vn -0.14970 0.98679 -0.06191
vn -0.07624 0.99622 -0.04163
vn -0.02221 0.99967 0.01282
vn -0.00207 0.99622 0.08684
vn -0.02123 0.98679 0.16060
vn -0.15038 0.98481 0.08682
vn 0.08298 -0.97617 0.20052
vn 0.03548 -0.98764 0.15265
vn 0.15038 -0.98481 0.08682
vn 0.01841 -0.99604 0.08693
vn 0.03635 -0.99912 0.02098
vn 0.08449 -0.99604 -0.02753
vn 0.14993 -0.98764 -0.04560
vn 0.21515 -0.97617 -0.02839
vn 0.26265 -0.96469 0.01948
vn 0.27972 -0.95629 0.08519
vn 0.26178 -0.95322 0.15114
vn 0.21364 -0.95629 0.19965
vn 0.14820 -0.96469 0.21772
vn -0.85945 -0.08682 0.50380
vn -0.50000 0.00000 0.86603
vn -0.98861 -0.15038 0.00658
vn -0.85287 -0.17365 -0.49240
vn -0.48861 -0.15038 -0.85945
vn 0.00658 -0.08682 -0.99620
vn 0.50000 -0.00000 -0.86603
vn 0.85945 0.08682 -0.50380
vn 0.98861 0.15038 -0.00658
vn 0.85287 0.17365 0.49240
vn 0.48861 0.15038 0.85945
vn -0.00658 0.08682 0.99620
vn -0.27621 0.96103 -0.01113
vn -0.22289 0.97391 0.04260
vn -0.29537 0.95160 -0.08489
vn -0.27523 0.94815 -0.15891
vn -0.22120 0.95160 -0.21335
vn -0.14774 0.96103 -0.23364
vn -0.07455 0.97391 -0.21433
vn -0.02123 0.98679 -0.16060
vn -0.00207 0.99622 -0.08684
vn -0.02221 0.99967 -0.01282
vn -0.07624 0.99622 0.04163
vn -0.14970 0.98679 0.06191
vn -0.15038 0.98481 -0.08682
vn -0.13216 -0.97617 0.17212
vn -0.11446 -0.98764 0.10705
vn 0.00000 -0.98481 0.17365
vn -0.06608 -0.99604 0.05941
vn -0.00000 -0.99912 0.04197
vn 0.06608 -0.99604 0.05941
vn 0.11446 -0.98764 0.10705
vn 0.13216 -0.97617 0.17212
vn 0.11446 -0.96469 0.23720
vn 0.06608 -0.95629 0.28484
vn 0.00000 -0.95322 0.30228
vn -0.06608 -0.95629 0.28484
vn -0.11446 -0.96469 0.23720
vn -0.86603 -0.08682 -0.49240
vn -1.00000 0.00000 0.00000
vn -0.50000 -0.15038 -0.85287
vn -0.00000 -0.17365 -0.98481
vn 0.50000 -0.15038 -0.85287
vn 0.86603 -0.08682 -0.49240
vn 1.00000 -0.00000 -0.00000
vn 0.86603 0.08682 0.49240
vn 0.50000 0.15038 0.85287
vn 0.00000 0.17365 0.98481
vn -0.50000 0.15038 0.85287
vn -0.86603 0.08682 0.49240
vn -0.12847 0.96103 -0.24477
vn -0.14834 0.97391 -0.17173
vn -0.07417 0.95160 -0.29824
vn -0.00000 0.94815 -0.31781
vn 0.07417 0.95160 -0.29824
vn 0.12847 0.96103 -0.24477
vn 0.14834 0.97391 -0.17173
vn 0.12847 0.98679 -0.09868
vn 0.07417 0.99622 -0.04521
vn 0.00000 0.99967 -0.02564
vn -0.07417 0.99622 -0.04521
vn -0.12847 0.98679 -0.09868
vn -0.00000 0.98481 -0.17365
vn -0.21515 -0.97617 -0.02839
vn -0.14993 -0.98764 -0.04560
vn -0.15038 -0.98481 0.08682
vn -0.08449 -0.99604 -0.02753
vn -0.03635 -0.99912 0.02098
vn -0.01841 -0.99604 0.08693
vn -0.03548 -0.98764 0.15265
vn -0.08298 -0.97617 0.20052
vn -0.14820 -0.96469 0.21772
vn -0.21364 -0.95629 0.19965
vn -0.26178 -0.95322 0.15114
vn -0.27972 -0.95629 0.08519
vn -0.26265 -0.96469 0.01948
vn -0.00658 -0.08682 -0.99620
vn -0.50000 0.00000 -0.86603
vn 0.48861 -0.15038 -0.85945
vn 0.85287 -0.17365 -0.49240
vn 0.98861 -0.15038 0.00658
vn 0.85945 -0.08682 0.50380
vn 0.50000 -0.00000 0.86603
vn 0.00658 0.08682 0.99620
vn -0.48861 0.15038 0.85945
vn -0.85287 0.17365 0.49240
vn -0.98861 0.15038 -0.00658
vn -0.85945 0.08682 -0.50380
vn 0.14774 0.96103 -0.23364
vn 0.07455 0.97391 -0.21433
vn 0.22120 0.95160 -0.21335
vn 0.27523 0.94815 -0.15891
vn 0.29537 0.95160 -0.08489
vn 0.27621 0.96103 -0.01113
vn 0.22289 0.97391 0.04260
vn 0.14970 0.98679 0.06191
vn 0.07624 0.99622 0.04163
vn 0.02221 0.99967 -0.01282
vn 0.00207 0.99622 -0.08684
vn 0.02123 0.98679 -0.16060
vn 0.15038 0.98481 -0.08682
vn 0.13216 -0.99123 0.00000
vn 0.11446 -0.99123 0.06608
vn 0.06608 -0.99123 0.11446
vn 0.00000 -0.99123 0.13216
vn -0.06608 -0.99123 0.11446
vn -0.11446 -0.99123 0.06608
vn -0.13216 -0.99123 0.00000
vn -0.11446 -0.99123 -0.06608
vn -0.06608 -0.99123 -0.11446
vn -0.00000 -0.99123 -0.13216
vn 0.06608 -0.99123 -0.11446
vn 0.11446 -0.99123 -0.06608
vn 0.13216 -0.99123 -0.00000
vn 0.86603 0.00000 0.50000
vn 0.00000 0.00000 1.00000
vn -0.86603 0.00000 0.50000
vn -0.86603 0.00000 -0.50000
vn -0.00000 0.00000 -1.00000
vn 0.86603 0.00000 -0.50000
vn 0.12847 0.98894 0.07417
vn 0.14834 0.98894 0.00000
vn 0.07417 0.98894 0.12847
vn 0.00000 0.98894 0.14834
vn -0.07417 0.98894 0.12847
vn -0.12847 0.98894 0.07417
vn -0.14834 0.98894 0.00000
vn -0.12847 0.98894 -0.07417
vn -0.07417 0.98894 -0.12847
vn -0.00000 0.98894 -0.14834
vn 0.07417 0.98894 -0.12847
vn 0.12847 0.98894 -0.07417
vn 0.14834 0.98894 -0.00000
vn 0.20594 -0.96319 -0.17280
vn 0.23498 -0.96565 -0.11091
vn 0.10661 -0.99027 -0.08946
vn 0.22938 -0.97238 -0.04306
vn 0.19063 -0.98158 0.01257
vn 0.12912 -0.99078 0.04107
vn 0.06133 -0.99751 0.03480
vn 0.00542 -0.99997 -0.00455
vn -0.02363 -0.99751 -0.06644
vn -0.01802 -0.99078 -0.13429
vn 0.02072 -0.98158 -0.18992
vn 0.08223 -0.97238 -0.21842
vn 0.15003 -0.96565 -0.21215
vn 0.97835 0.12053 -0.16823
vn 0.75859 0.13917 -0.63653
vn 0.93597 0.06959 0.34515
vn 0.64279 0.00000 0.76604
vn 0.17738 -0.06959 0.98168
vn -0.33556 -0.12053 0.93428
vn -0.75859 -0.13917 0.63653
vn -0.97835 -0.12053 0.16823
vn -0.93597 -0.06959 -0.34515
vn -0.64279 -0.00000 -0.76604
vn -0.17738 0.06959 -0.98168
vn 0.33556 0.12053 -0.93428
vn 0.03970 0.99719 0.06351
vn 0.00710 0.99996 -0.00595
vn 0.03341 0.98963 0.13967
vn -0.01008 0.97931 0.20210
vn -0.07912 0.96899 0.23409
vn -0.15521 0.96143 0.22706
vn -0.21796 0.95867 0.18289
vn -0.25056 0.96143 0.11342
vn -0.24427 0.96899 0.03727
vn -0.20078 0.97931 -0.02517
vn -0.13175 0.98963 -0.05715
vn -0.05566 0.99719 -0.05012
vn -0.10661 0.99027 0.08946
vn 0.05216 -0.98580 -0.15963
vn 0.11997 -0.97889 -0.16547
vn 0.09822 -0.99452 -0.03575
vn 0.18173 -0.97383 -0.13647
vn 0.22088 -0.97198 -0.08039
vn 0.22693 -0.97383 -0.01227
vn 0.19827 -0.97889 0.04964
vn 0.14257 -0.98580 0.08876
vn 0.07475 -0.99271 0.09459
vn 0.01300 -0.99776 0.06559
vn -0.02615 -0.99961 0.00952
vn -0.03220 -0.99776 -0.05860
vn -0.00354 -0.99271 -0.12051
vn 0.17107 0.05226 -0.98387
vn -0.34202 0.00000 -0.93969
vn 0.63833 0.09052 -0.76442
vn 0.93454 0.10453 -0.34015
vn 0.98035 0.09052 0.17527
vn 0.76347 0.05226 0.64372
vn 0.34202 0.00000 0.93969
vn -0.17107 -0.05226 0.98387
vn -0.63833 -0.09052 0.76442
vn -0.93454 -0.10453 0.34015
vn -0.98035 -0.09052 -0.17527
vn -0.76347 -0.05226 -0.64372
vn -0.34202 -0.00000 -0.93969
vn -0.07176 0.99127 -0.11059
vn -0.14787 0.98352 -0.10404
vn -0.00245 0.99695 -0.07804
vn 0.04149 0.99902 -0.01510
vn 0.04829 0.99695 0.06136
vn 0.01612 0.99127 0.13085
vn -0.04640 0.98352 0.17475
vn -0.12252 0.97577 0.18130
vn -0.19183 0.97009 0.14875
vn -0.23577 0.96801 0.08581
vn -0.24256 0.97009 0.00936
vn -0.21039 0.97577 -0.06014
vn -0.09822 0.99452 0.03575
usemtl plate
f 1/1/1 2/2/2 3/3/3
f 2/2/2 4/4/4 3/5/3
f 4/4/4 5/6/5 3/7/3
f 5/6/5 6/8/6 3/9/3
f 6/8/6 7/10/7 3/11/3
f 7/10/7 8/12/8 3/13/3
f 8/12/8 9/14/9 3/15/3
f 9/14/9 10/16/10 3/17/3
f 10/16/10 11/18/11 3/19/3
f 11/18/11 12/20/12 3/21/3
f 12/20/12 13/22/13 3/23/3
f 13/22/13 14/24/14 3/25/3
f 14/24/14 15/26/15 3/27/3
f 15/26/15 16/28/16 3/29/3
f 16/28/16 17/30/17 3/31/3
f 17/30/17 18/32/18 3/33/3
f 18/32/18 19/34/19 3/35/3
f 19/34/19 20/36/20 3/37/3
f 20/36/20 21/38/21 3/39/3
f 21/38/21 22/40/22 3/41/3
f 22/40/22 23/42/23 3/43/3
f 23/42/23 24/44/24 3/45/3
f 24/44/24 25/46/25 3/47/3
f 25/46/25 1/48/26 3/49/3
f 26/50/27 2/2/2 1/1/1
f 27/51/28 26/50/27 1/1/1
f 28/52/29 4/4/4 2/2/2
f 26/50/27 28/52/29 2/2/2
f 29/53/30 5/6/5 4/4/4
f 28/52/29 29/53/30 4/4/4
f 30/54/31 6/8/6 5/6/5
f 29/53/30 30/54/31 5/6/5
f 31/55/32 7/10/7 6/8/6
f 30/54/31 31/55/32 6/8/6
f 32/56/33 8/12/8 7/10/7
f 31/55/32 32/56/33 7/10/7
f 33/57/34 9/14/9 8/12/8
f 32/56/33 33/57/34 8/12/8
f 34/58/35 10/16/10 9/14/9
f 33/57/34 34/58/35 9/14/9
f 35/59/36 11/18/11 10/16/10
f 34/58/35 35/59/36 10/16/10
f 36/60/37 12/20/12 11/18/11
f 35/59/36 36/60/37 11/18/11
f 37/61/38 13/22/13 12/20/12
f 36/60/37 37/61/38 12/20/12
f 38/62/39 14/24/14 13/22/13
f 37/61/38 38/62/39 13/22/13
f 39/63/40 15/26/15 14/24/14
f 38/62/39 39/63/40 14/24/14
f 40/64/41 16/28/16 15/26/15
f 39/63/40 40/64/41 15/26/15
f 41/65/42 17/30/17 16/28/16
f 40/64/41 41/65/42 16/28/16
f 42/66/43 18/32/18 17/30/17
f 41/65/42 42/66/43 17/30/17
f 43/67/44 19/34/19 18/32/18
f 42/66/43 43/67/44 18/32/18
f 44/68/45 20/36/20 19/34/19
f 43/67/44 44/68/45 19/34/19
f 45/69/46 21/38/21 20/36/20
f 44/68/45 45/69/46 20/36/20
f 46/70/47 22/40/22 21/38/21
f 45/69/46 46/70/47 21/38/21
f 47/71/48 23/42/23 22/40/22
f 46/70/47 47/71/48 22/40/22
f 48/72/49 24/44/24 23/42/23
f 47/71/48 48/72/49 23/42/23
f 49/73/50 25/46/25 24/44/24
f 48/72/49 49/73/50 24/44/24
f 27/74/51 1/48/26 25/46/25
f 49/73/50 27/74/51 25/46/25
f 50/75/52 26/50/27 27/51/28
f 51/76/53 50/75/52 27/51/28
f 52/77/54 28/52/29 26/50/27
f 50/75/52 52/77/54 26/50/27
f 53/78/55 29/53/30 28/52/29
f 52/77/54 53/78/55 28/52/29
f 54/79/56 30/54/31 29/53/30
f 53/78/55 54/79/56 29/53/30
f 55/80/57 31/55/32 30/54/31
f 54/79/56 55/80/57 30/54/31
f 56/81/58 32/56/33 31/55/32
f 55/80/57 56/81/58 31/55/32
f 57/82/59 33/57/34 32/56/33
f 56/81/58 57/82/59 32/56/33
f 58/83/60 34/58/35 33/57/34
f 57/82/59 58/83/60 33/57/34
f 59/84/61 35/59/36 34/58/35
f 58/83/60 59/84/61 34/58/35
f 60/85/62 36/60/37 35/59/36
f 59/84/61 60/85/62 35/59/36
f 61/86/63 37/61/38 36/60/37
f 60/85/62 61/86/63 36/60/37
f 62/87/64 38/62/39 37/61/38
f 61/86/63 62/87/64 37/61/38
f 63/88/65 39/63/40 38/62/39
f 62/87/64 63/88/65 38/62/39
f 64/89/66 40/64/41 39/63/40
f 63/88/65 64/89/66 39/63/40
f 65/90/67 41/65/42 40/64/41
f 64/89/66 65/90/67 40/64/41
f 66/91/68 42/66/43 41/65/42
f 65/90/67 66/91/68 41/65/42
f 67/92/69 43/67/44 42/66/43
f 66/91/68 67/92/69 42/66/43
f 68/93/70 44/68/45 43/67/44
f 67/92/69 68/93/70 43/67/44
f 69/94/71 45/69/46 44/68/45
f 68/93/70 69/94/71 44/68/45
f 70/95/72 46/70/47 45/69/46
f 69/94/71 70/95/72 45/69/46
f 71/96/73 47/71/48 46/70/47
f 70/95/72 71/96/73 46/70/47
f 72/97/74 48/72/49 47/71/48
f 71/96/73 72/97/74 47/71/48
f 73/98/75 49/73/50 48/72/49
f 72/97/74 73/98/75 48/72/49
f 51/99/76 27/74/51 49/73/50
f 73/98/75 51/99/76 49/73/50
f 74/100/77 50/75/52 51/76/53
f 75/101/78 74/100/77 51/76/53
f 76/102/79 52/77/54 50/75/52
f 74/100/77 76/102/79 50/75/52
f 77/103/80 53/78/55 52/77/54
f 76/102/79 77/103/80 52/77/54
f 78/104/81 54/79/56 53/78/55
f 77/103/80 78/104/81 53/78/55
f 79/105/82 55/80/57 54/79/56
f 78/104/81 79/105/82 54/79/56
f 80/106/83 56/81/58 55/80/57
f 79/105/82 80/106/83 55/80/57
f 81/107/84 57/82/59 56/81/58
f 80/106/83 81/107/84 56/81/58
f 82/108/85 58/83/60 57/82/59
f 81/107/84 82/108/85 57/82/59
f 83/109/86 59/84/61 58/83/60
f 82/108/85 83/109/86 58/83/60
f 84/110/87 60/85/62 59/84/61
f 83/109/86 84/110/87 59/84/61
f 85/111/88 61/86/63 60/85/62
f 84/110/87 85/111/88 60/85/62
f 86/112/89 62/87/64 61/86/63
f 85/111/88 86/112/89 61/86/63
f 87/113/90 63/88/65 62/87/64
f 86/112/89 87/113/90 62/87/64
f 88/114/91 64/89/66 63/88/65
f 87/113/90 88/114/91 63/88/65
f 89/115/92 65/90/67 64/89/66
f 88/114/91 89/115/92 64/89/66
f 90/116/93 66/91/68 65/90/67
f 89/115/92 90/116/93 65/90/67
f 91/117/94 67/92/69 66/91/68
f 90/116/93 91/117/94 66/91/68
f 92/118/95 68/93/70 67/92/69
f 91/117/94 92/118/95 67/92/69
f 93/119/96 69/94/71 68/93/70
f 92/118/95 93/119/96 68/93/70
f 94/120/97 70/95/72 69/94/71
f 93/119/96 94/120/97 69/94/71
f 95/121/98 71/96/73 70/95/72
f 94/120/97 95/121/98 70/95/72
f 96/122/99 72/97/74 71/96/73
f 95/121/98 96/122/99 71/96/73
f 97/123/100 73/98/75 72/97/74
f 96/122/99 97/123/100 72/97/74
f 75/124/101 51/99/76 73/98/75
f 97/123/100 75/124/101 73/98/75
f 98/125/102 74/100/77 75/101/78
f 99/126/103 98/125/102 75/101/78
f 100/127/104 76/102/79 74/100/77
f 98/125/102 100/127/104 74/100/77
f 101/128/105 77/103/80 76/102/79
f 100/127/104 101/128/105 76/102/79
f 102/129/106 78/104/81 77/103/80
f 101/128/105 102/129/106 77/103/80
f 103/130/107 79/105/82 78/104/81
f 102/129/106 103/130/107 78/104/81
f 104/131/108 80/106/83 79/105/82
f 103/130/107 104/131/108 79/105/82
f 105/132/109 81/107/84 80/106/83
f 104/131/108 105/132/109 80/106/83
f 106/133/110 82/108/85 81/107/84
f 105/132/109 106/133/110 81/107/84
f 107/134/111 83/109/86 82/108/85
f 106/133/110 107/134/111 82/108/85
f 108/135/112 84/110/87 83/109/86
f 107/134/111 108/135/112 83/109/86
f 109/136/113 85/111/88 84/110/87
f 108/135/112 109/136/113 84/110/87
f 110/137/114 86/112/89 85/111/88
f 109/136/113 110/137/114 85/111/88
f 111/138/115 87/113/90 86/112/89
f 110/137/114 111/138/115 86/112/89
f 112/139/116 88/114/91 87/113/90
f 111/138/115 112/139/116 87/113/90
f 113/140/117 89/115/92 88/114/91
f 112/139/116 113/140/117 88/114/91
f 114/141/118 90/116/93 89/115/92
f 113/140/117 114/141/118 89/115/92
f 115/142/119 91/117/94 90/116/93
f 114/141/118 115/142/119 90/116/93
f 116/143/120 92/118/95 91/117/94
f 115/142/119 116/143/120 91/117/94
f 117/144/121 93/119/96 92/118/95
f 116/143/120 117/144/121 92/118/95
f 118/145/122 94/120/97 93/119/96
f 117/144/121 118/145/122 93/119/96
f 119/146/123 95/121/98 94/120/97
f 118/145/122 119/146/123 94/120/97
f 120/147/124 96/122/99 95/121/98
f 119/146/123 120/147/124 95/121/98
f 121/148/125 97/123/100 96/122/99
f 120/147/124 121/148/125 96/122/99
f 99/149/103 75/124/101 97/123/100
f 121/148/125 99/149/103 97/123/100
f 122/150/126 98/125/102 99/126/103
f 123/151/127 122/150/126 99/126/103
f 124/152/128 100/127/104 98/125/102
f 122/150/126 124/152/128 98/125/102
f 125/153/129 101/128/105 100/127/104
f 124/152/128 125/153/129 100/127/104
f 126/154/130 102/129/106 101/128/105
f 125/153/129 126/154/130 101/128/105
f 127/155/131 103/130/107 102/129/106
f 126/154/130 127/155/131 102/129/106
f 128/156/132 104/131/108 103/130/107
f 127/155/131 128/156/132 103/130/107
f 129/157/133 105/132/109 104/131/108
f 128/156/132 129/157/133 104/131/108
f 130/158/134 106/133/110 105/132/109
f 129/157/133 130/158/134 105/132/109
f 131/159/135 107/134/111 106/133/110
f 130/158/134 131/159/135 106/133/110
f 132/160/136 108/135/112 107/134/111
f 131/159/135 132/160/136 107/134/111
f 133/161/137 109/136/113 108/135/112
f 132/160/136 133/161/137 108/135/112
f 134/162/138 110/137/114 109/136/113
f 133/161/137 134/162/138 109/136/113
f 135/163/139 111/138/115 110/137/114
f 134/162/138 135/163/139 110/137/114
f 136/164/140 112/139/116 111/138/115
f 135/163/139 136/164/140 111/138/115
f 137/165/141 113/140/117 112/139/116
f 136/164/140 137/165/141 112/139/116
f 138/166/142 114/141/118 113/140/117
f 137/165/141 138/166/142 113/140/117
f 139/167/143 115/142/119 114/141/118
f 138/166/142 139/167/143 114/141/118
f 140/168/144 116/143/120 115/142/119
f 139/167/143 140/168/144 115/142/119
f 141/169/145 117/144/121 116/143/120
f 140/168/144 141/169/145 116/143/120
f 142/170/146 118/145/122 117/144/121
f 141/169/145 142/170/146 117/144/121
f 143/171/147 119/146/123 118/145/122
f 142/170/146 143/171/147 118/145/122
f 144/172/148 120/147/124 119/146/123
f 143/171/147 144/172/148 119/146/123
f 145/173/149 121/148/125 120/147/124
f 144/172/148 145/173/149 120/147/124
f 123/174/127 99/149/103 121/148/125
f 145/173/149 123/174/127 121/148/125
f 146/175/150 122/150/126 123/151/127
f 146/176/150 124/152/128 122/150/126
f 146/177/150 125/153/129 124/152/128
f 146/178/150 126/154/130 125/153/129
f 146/179/150 127/155/131 126/154/130
f 146/180/150 128/156/132 127/155/131
f 146/181/150 129/157/133 128/156/132
f 146/182/150 130/158/134 129/157/133
f 146/183/150 131/159/135 130/158/134
f 146/184/150 132/160/136 131/159/135
f 146/185/150 133/161/137 132/160/136
f 146/186/150 134/162/138 133/161/137
f 146/187/150 135/163/139 134/162/138
f 146/188/150 136/164/140 135/163/139
f 146/189/150 137/165/141 136/164/140
f 146/190/150 138/166/142 137/165/141
f 146/191/150 139/167/143 138/166/142
f 146/192/150 140/168/144 139/167/143
f 146/193/150 141/169/145 140/168/144
f 146/194/150 142/170/146 141/169/145
f 146/195/150 143/171/147 142/170/146
f 146/196/150 144/172/148 143/171/147
f 146/197/150 145/173/149 144/172/148
f 146/198/150 123/174/127 145/173/149
usemtl cookie
f 147/199/151 148/200/152 149/201/153
f 148/200/152 150/202/154 149/201/153
f 150/202/154 151/203/155 149/201/153
f 151/203/155 152/204/156 149/201/153
f 152/204/156 153/205/157 149/201/153
f 153/205/157 154/206/158 149/201/153
f 154/206/158 155/207/159 149/201/153
f 155/207/159 156/208/160 149/201/153
f 156/208/160 157/209/161 149/201/153
f 157/209/161 158/210/162 149/201/153
f 158/210/162 159/211/163 149/201/153
f 159/211/163 160/199/151 149/201/153
f 161/212/164 148/200/152 147/199/151
f 162/213/165 161/212/164 147/199/151
f 163/214/166 150/202/154 148/200/152
f 161/212/164 163/214/166 148/200/152
f 164/215/167 151/203/155 150/202/154
f 163/214/166 164/215/167 150/202/154
f 165/216/168 152/204/156 151/203/155
f 164/215/167 165/216/168 151/203/155
f 166/217/169 153/205/157 152/204/156
f 165/216/168 166/217/169 152/204/156
f 167/218/170 154/206/158 153/205/157
f 166/217/169 167/218/170 153/205/157
f 168/219/171 155/207/159 154/206/158
f 167/218/170 168/219/171 154/206/158
f 169/220/172 156/208/160 155/207/159
f 168/219/171 169/220/172 155/207/159
f 170/221/173 157/209/161 156/208/160
f 169/220/172 170/221/173 156/208/160
f 171/222/174 158/210/162 157/209/161
f 170/221/173 171/222/174 157/209/161
f 172/223/175 159/211/163 158/210/162
f 171/222/174 172/223/175 158/210/162
f 162/213/165 160/199/151 159/211/163
f 172/223/175 162/213/165 159/211/163
f 173/200/176 161/212/164 162/213/165
f 174/199/177 173/200/176 162/213/165
f 175/202/178 163/214/166 161/212/164
f 173/200/176 175/202/178 161/212/164
f 176/203/179 164/215/167 163/214/166
f 175/202/178 176/203/179 163/214/166
f 177/204/180 165/216/168 164/215/167
f 176/203/179 177/204/180 164/215/167
f 178/205/181 166/217/169 165/216/168
f 177/204/180 178/205/181 165/216/168
f 179/206/182 167/218/170 166/217/169
f 178/205/181 179/206/182 166/217/169
f 180/207/183 168/219/171 167/218/170
f 179/206/182 180/207/183 167/218/170
f 181/208/184 169/220/172 168/219/171
f 180/207/183 181/208/184 168/219/171
f 182/209/185 170/221/173 169/220/172
f 181/208/184 182/209/185 169/220/172
f 183/210/186 171/222/174 170/221/173
f 182/209/185 183/210/186 170/221/173
f 184/211/187 172/223/175 171/222/174
f 183/210/186 184/211/187 171/222/174
f 174/199/177 162/213/165 172/223/175
f 184/211/187 174/199/177 172/223/175
f 185/201/188 173/200/176 174/199/177
f 185/201/188 175/202/178 173/200/176
f 185/201/188 176/203/179 175/202/178
f 185/201/188 177/204/180 176/203/179
f 185/201/188 178/205/181 177/204/180
f 185/201/188 179/206/182 178/205/181
f 185/201/188 180/207/183 179/206/182
f 185/201/188 181/208/184 180/207/183
f 185/201/188 182/209/185 181/208/184
f 185/201/188 183/210/186 182/209/185
f 185/201/188 184/211/187 183/210/186
f 185/201/188 174/199/177 184/211/187
f 186/199/189 187/200/190 188/201/191
f 187/200/190 189/202/192 188/201/191
f 189/202/192 190/203/193 188/201/191
f 190/203/193 191/204/194 188/201/191
f 191/204/194 192/205/195 188/201/191
f 192/205/195 193/206/196 188/201/191
f 193/206/196 194/207/197 188/201/191
f 194/207/197 195/208/198 188/201/191
f 195/208/198 196/209/199 188/201/191
f 196/209/199 197/210/200 188/201/191
f 197/210/200 198/211/201 188/201/191
f 198/211/201 199/199/189 188/201/191
f 200/212/202 187/200/190 186/199/189
f 201/213/203 200/212/202 186/199/189
f 202/214/204 189/202/192 187/200/190
f 200/212/202 202/214/204 187/200/190
f 203/215/205 190/203/193 189/202/192
f 202/214/204 203/215/205 189/202/192
f 204/216/206 191/204/194 190/203/193
f 203/215/205 204/216/206 190/203/193
f 205/217/207 192/205/195 191/204/194
f 204/216/206 205/217/207 191/204/194
f 206/218/208 193/206/196 192/205/195
f 205/217/207 206/218/208 192/205/195
f 207/219/209 194/207/197 193/206/196
f 206/218/208 207/219/209 193/206/196
f 208/220/210 195/208/198 194/207/197
f 207/219/209 208/220/210 194/207/197
f 209/221/211 196/209/199 195/208/198
f 208/220/210 209/221/211 195/208/198
f 210/222/212 197/210/200 196/209/199
f 209/221/211 210/222/212 196/209/199
f 211/223/213 198/211/201 197/210/200
f 210/222/212 211/223/213 197/210/200
f 201/213/214 199/199/189 198/211/201
f 211/223/213 201/213/214 198/211/201
f 212/200/215 200/212/202 201/213/203
f 213/199/216 212/200/215 201/213/203
f 214/202/217 202/214/204 200/212/202
f 212/200/215 214/202/217 200/212/202
f 215/203/218 203/215/205 202/214/204
f 214/202/217 215/203/218 202/214/204
f 216/204/219 204/216/206 203/215/205
f 215/203/218 216/204/219 203/215/205
f 217/205/220 205/217/207 204/216/206
f 216/204/219 217/205/220 204/216/206
f 218/206/221 206/218/208 205/217/207
f 217/205/220 218/206/221 205/217/207
f 219/207/222 207/219/209 206/218/208
f 218/206/221 219/207/222 206/218/208
f 220/208/223 208/220/210 207/219/209
f 219/207/222 220/208/223 207/219/209
f 221/209/224 209/221/211 208/220/210
f 220/208/223 221/209/224 208/220/210
f 222/210/225 210/222/212 209/221/211
f 221/209/224 222/210/225 209/221/211
f 223/211/226 211/223/213 210/222/212
f 222/210/225 223/211/226 210/222/212
f 213/199/216 201/213/214 211/223/213
f 223/211/226 213/199/216 211/223/213
f 224/201/227 212/200/215 213/199/216
f 224/201/227 214/202/217 212/200/215
f 224/201/227 215/203/218 214/202/217
f 224/201/227 216/204/219 215/203/218
f 224/201/227 217/205/220 216/204/219
f 224/201/227 218/206/221 217/205/220
f 224/201/227 219/207/222 218/206/221
f 224/201/227 220/208/223 219/207/222
f 224/201/227 221/209/224 220/208/223
f 224/201/227 222/210/225 221/209/224
f 224/201/227 223/211/226 222/210/225
f 224/201/227 213/199/216 223/211/226
f 225/199/228 226/200/229 227/201/230
f 226/200/229 228/202/231 227/201/230
f 228/202/231 229/203/232 227/201/230
f 229/203/232 230/204/233 227/201/230
f 230/204/233 231/205/234 227/201/230
f 231/205/234 232/206/235 227/201/230
f 232/206/235 233/207/236 227/201/230
f 233/207/236 234/208/237 227/201/230
f 234/208/237 235/209/238 227/201/230
f 235/209/238 236/210/239 227/201/230
f 236/210/239 237/211/240 227/201/230
f 237/211/240 238/199/228 227/201/230
f 239/212/241 226/200/229 225/199/228
f 240/213/242 239/212/241 225/199/228
f 241/214/243 228/202/231 226/200/229
f 239/212/241 241/214/243 226/200/229
f 242/215/244 229/203/232 228/202/231
f 241/214/243 242/215/244 228/202/231
f 243/216/245 230/204/233 229/203/232
f 242/215/244 243/216/245 229/203/232
f 244/217/246 231/205/234 230/204/233
f 243/216/245 244/217/246 230/204/233
f 245/218/247 232/206/235 231/205/234
f 244/217/246 245/218/247 231/205/234
f 246/219/248 233/207/236 232/206/235
f 245/218/247 246/219/248 232/206/235
f 247/220/249 234/208/237 233/207/236
f 246/219/248 247/220/249 233/207/236
f 248/221/250 235/209/238 234/208/237
f 247/220/249 248/221/250 234/208/237
f 249/222/251 236/210/239 235/209/238
f 248/221/250 249/222/251 235/209/238
f 250/223/252 237/211/240 236/210/239
f 249/222/251 250/223/252 236/210/239
f 240/213/242 238/199/228 237/211/240
f 250/223/252 240/213/242 237/211/240
f 251/200/253 239/212/241 240/213/242
f 252/199/254 251/200/253 240/213/242
f 253/202/255 241/214/243 239/212/241
f 251/200/253 253/202/255 239/212/241
f 254/203/256 242/215/244 241/214/243
f 253/202/255 254/203/256 241/214/243
f 255/204/257 243/216/245 242/215/244
f 254/203/256 255/204/257 242/215/244
f 256/205/258 244/217/246 243/216/245
f 255/204/257 256/205/258 243/216/245
f 257/206/259 245/218/247 244/217/246
f 256/205/258 257/206/259 244/217/246
f 258/207/260 246/219/248 245/218/247
f 257/206/259 258/207/260 245/218/247
f 259/208/261 247/220/249 246/219/248
f 258/207/260 259/208/261 246/219/248
f 260/209/262 248/221/250 247/220/249
f 259/208/261 260/209/262 247/220/249
f 261/210/263 249/222/251 248/221/250
f 260/209/262 261/210/263 248/221/250
f 262/211/264 250/223/252 249/222/251
f 261/210/263 262/211/264 249/222/251
f 252/199/254 240/213/242 250/223/252
f 262/211/264 252/199/254 250/223/252
f 263/201/265 251/200/253 252/199/254
f 263/201/265 253/202/255 251/200/253
f 263/201/265 254/203/256 253/202/255
f 263/201/265 255/204/257 254/203/256
f 263/201/265 256/205/258 255/204/257
f 263/201/265 257/206/259 256/205/258
f 263/201/265 258/207/260 257/206/259
f 263/201/265 259/208/261 258/207/260
f 263/201/265 260/209/262 259/208/261
f 263/201/265 261/210/263 260/209/262
f 263/201/265 262/211/264 261/210/263
f 263/201/265 252/199/254 262/211/264
f 264/199/266 265/200/267 266/201/268
f 265/200/267 267/202/269 266/201/268
f 267/202/269 268/203/270 266/201/268
f 268/203/270 269/204/271 266/201/268
f 269/204/271 270/205/272 266/201/268
f 270/205/272 271/206/273 266/201/268
f 271/206/273 272/207/274 266/201/268
f 272/207/274 273/208/275 266/201/268
f 273/208/275 274/209/276 266/201/268
f 274/209/276 275/210/277 266/201/268
f 275/210/277 276/211/278 266/201/268
f 276/211/278 277/199/266 266/201/268
f 278/212/279 265/200/267 264/199/266
f 279/213/280 278/212/279 264/199/266
f 280/214/281 267/202/269 265/200/267
f 278/212/279 280/214/281 265/200/267
f 281/215/282 268/203/270 267/202/269
f 280/214/281 281/215/282 267/202/269
f 282/216/283 269/204/271 268/203/270
f 281/215/282 282/216/283 268/203/270
f 283/217/284 270/205/272 269/204/271
f 282/216/283 283/217/284 269/204/271
f 284/218/285 271/206/273 270/205/272
f 283/217/284 284/218/285 270/205/272
f 285/219/286 272/207/274 271/206/273
f 284/218/285 285/219/286 271/206/273
f 286/220/287 273/208/275 272/207/274
f 285/219/286 286/220/287 272/207/274
f 287/221/288 274/209/276 273/208/275
f 286/220/287 287/221/288 273/208/275
f 288/222/289 275/210/277 274/209/276
f 287/221/288 288/222/289 274/209/276
f 289/223/290 276/211/278 275/210/277
f 288/222/289 289/223/290 275/210/277
f 279/213/280 277/199/266 276/211/278
f 289/223/290 279/213/280 276/211/278
f 290/200/291 278/212/279 279/213/280
f 291/199/292 290/200/291 279/213/280
f 292/202/293 280/214/281 278/212/279
f 290/200/291 292/202/293 278/212/279
f 293/203/294 281/215/282 280/214/281
f 292/202/293 293/203/294 280/214/281
f 294/204/295 282/216/283 281/215/282
f 293/203/294 294/204/295 281/215/282
f 295/205/296 283/217/284 282/216/283
f 294/204/295 295/205/296 282/216/283
f 296/206/297 284/218/285 283/217/284
f 295/205/296 296/206/297 283/217/284
f 297/207/298 285/219/286 284/218/285
f 296/206/297 297/207/298 284/218/285
f 298/208/299 286/220/287 285/219/286
f 297/207/298 298/208/299 285/219/286
f 299/209/300 287/221/288 286/220/287
f 298/208/299 299/209/300 286/220/287
f 300/210/301 288/222/289 287/221/288
f 299/209/300 300/210/301 287/221/288
f 301/211/302 289/223/290 288/222/289
f 300/210/301 301/211/302 288/222/289
f 291/199/292 279/213/280 289/223/290
f 301/211/302 291/199/292 289/223/290
f 302/201/303 290/200/291 291/199/292
f 302/201/303 292/202/293 290/200/291
f 302/201/303 293/203/294 292/202/293
f 302/201/303 294/204/295 293/203/294
f 302/201/303 295/205/296 294/204/295
f 302/201/303 296/206/297 295/205/296
f 302/201/303 297/207/298 296/206/297
f 302/201/303 298/208/299 297/207/298
f 302/201/303 299/209/300 298/208/299
f 302/201/303 300/210/301 299/209/300
f 302/201/303 301/211/302 300/210/301
f 302/201/303 291/199/292 301/211/302
f 303/199/304 304/200/305 305/201/306
f 304/200/305 306/202/307 305/201/306
f 306/202/307 307/203/308 305/201/306
f 307/203/308 308/204/309 305/201/306
f 308/204/309 309/205/310 305/201/306
f 309/205/310 310/206/311 305/201/306
f 310/206/311 311/207/312 305/201/306
f 311/207/312 312/208/313 305/201/306
f 312/208/313 313/209/314 305/201/306
f 313/209/314 314/210/315 305/201/306
f 314/210/315 315/211/316 305/201/306
f 315/211/316 316/199/304 305/201/306
f 317/212/317 304/200/305 303/199/304
f 318/213/318 317/212/317 303/199/304
f 319/214/319 306/202/307 304/200/305
f 317/212/317 319/214/319 304/200/305
f 320/215/320 307/203/308 306/202/307
f 319/214/319 320/215/320 306/202/307
f 321/216/321 308/204/309 307/203/308
f 320/215/320 321/216/321 307/203/308
f 322/217/322 309/205/310 308/204/309
f 321/216/321 322/217/322 308/204/309
f 323/218/323 310/206/311 309/205/310
f 322/217/322 323/218/323 309/205/310
f 324/219/324 311/207/312 310/206/311
f 323/218/323 324/219/324 310/206/311
f 325/220/325 312/208/313 311/207/312
f 324/219/324 325/220/325 311/207/312
f 326/221/326 313/209/314 312/208/313
f 325/220/325 326/221/326 312/208/313
f 327/222/327 314/210/315 313/209/314
f 326/221/326 327/222/327 313/209/314
f 328/223/328 315/211/316 314/210/315
f 327/222/327 328/223/328 314/210/315
f 318/213/318 316/199/304 315/211/316
f 328/223/328 318/213/318 315/211/316
f 329/200/329 317/212/317 318/213/318
f 330/199/330 329/200/329 318/213/318
f 331/202/331 319/214/319 317/212/317
f 329/200/329 331/202/331 317/212/317
f 332/203/332 320/215/320 319/214/319
f 331/202/331 332/203/332 319/214/319
f 333/204/333 321/216/321 320/215/320
f 332/203/332 333/204/333 320/215/320
f 334/205/334 322/217/322 321/216/321
f 333/204/333 334/205/334 321/216/321
f 335/206/335 323/218/323 322/217/322
f 334/205/334 335/206/335 322/217/322
f 336/207/336 324/219/324 323/218/323
f 335/206/335 336/207/336 323/218/323
f 337/208/337 325/220/325 324/219/324
f 336/207/336 337/208/337 324/219/324
f 338/209/338 326/221/326 325/220/325
f 337/208/337 338/209/338 325/220/325
f 339/210/339 327/222/327 326/221/326
f 338/209/338 339/210/339 326/221/326
f 340/211/340 328/223/328 327/222/327
f 339/210/339 340/211/340 327/222/327
f 330/199/330 318/213/318 328/223/328
f 340/211/340 330/199/330 328/223/328
f 341/201/341 329/200/329 330/199/330
f 341/201/341 331/202/331 329/200/329
f 341/201/341 332/203/332 331/202/331
f 341/201/341 333/204/333 332/203/332
f 341/201/341 334/205/334 333/204/333
f 341/201/341 335/206/335 334/205/334
f 341/201/341 336/207/336 335/206/335
f 341/201/341 337/208/337 336/207/336
f 341/201/341 338/209/338 337/208/337
f 341/201/341 339/210/339 338/209/338
f 341/201/341 340/211/340 339/210/339
f 341/201/341 330/199/330 340/211/340
f 342/199/342 343/200/343 344/201/344
f 343/200/343 345/202/345 344/201/344
f 345/202/345 346/203/346 344/201/344
f 346/203/346 347/204/347 344/201/344
f 347/204/347 348/205/348 344/201/344
f 348/205/348 349/206/349 344/201/344
f 349/206/349 350/207/350 344/201/344
f 350/207/350 351/208/351 344/201/344
f 351/208/351 352/209/352 344/201/344
f 352/209/352 353/210/353 344/201/344
f 353/210/353 354/211/354 344/201/344
f 354/211/354 355/199/342 344/201/344
f 356/212/355 343/200/343 342/199/342
f 357/213/356 356/212/355 342/199/342
f 358/214/357 345/202/345 343/200/343
f 356/212/355 358/214/357 343/200/343
f 359/215/358 346/203/346 345/202/345
f 358/214/357 359/215/358 345/202/345
f 360/216/359 347/204/347 346/203/346
f 359/215/358 360/216/359 346/203/346
f 361/217/360 348/205/348 347/204/347
f 360/216/359 361/217/360 347/204/347
f 362/218/361 349/206/349 348/205/348
f 361/217/360 362/218/361 348/205/348
f 363/219/362 350/207/350 349/206/349
f 362/218/361 363/219/362 349/206/349
f 364/220/363 351/208/351 350/207/350
f 363/219/362 364/220/363 350/207/350
f 365/221/364 352/209/352 351/208/351
f 364/220/363 365/221/364 351/208/351
f 366/222/365 353/210/353 352/209/352
f 365/221/364 366/222/365 352/209/352
f 367/223/366 354/211/354 353/210/353
f 366/222/365 367/223/366 353/210/353
f 357/213/356 355/199/342 354/211/354
f 367/223/366 357/213/356 354/211/354
f 368/200/367 356/212/355 357/213/356
f 369/199/368 368/200/367 357/213/356
f 370/202/369 358/214/357 356/212/355
f 368/200/367 370/202/369 356/212/355
f 371/203/370 359/215/358 358/214/357
f 370/202/369 371/203/370 358/214/357
f 372/204/371 360/216/359 359/215/358
f 371/203/370 372/204/371 359/215/358
f 373/205/372 361/217/360 360/216/359
f 372/204/371 373/205/372 360/216/359
f 374/206/373 362/218/361 361/217/360
f 373/205/372 374/206/373 361/217/360
f 375/207/374 363/219/362 362/218/361
f 374/206/373 375/207/374 362/218/361
f 376/208/375 364/220/363 363/219/362
f 375/207/374 376/208/375 363/219/362
f 377/209/376 365/221/364 364/220/363
f 376/208/375 377/209/376 364/220/363
f 378/210/377 366/222/365 365/221/364
f 377/209/376 378/210/377 365/221/364
f 379/211/378 367/223/366 366/222/365
f 378/210/377 379/211/378 366/222/365
f 369/199/368 357/213/356 367/223/366
f 379/211/378 369/199/368 367/223/366
f 380/201/379 368/200/367 369/199/368
f 380/201/379 370/202/369 368/200/367
f 380/201/379 371/203/370 370/202/369
f 380/201/379 372/204/371 371/203/370
f 380/201/379 373/205/372 372/204/371
f 380/201/379 374/206/373 373/205/372
f 380/201/379 375/207/374 374/206/373
f 380/201/379 376/208/375 375/207/374
f 380/201/379 377/209/376 376/208/375
f 380/201/379 378/210/377 377/209/376
f 380/201/379 379/211/378 378/210/377
f 380/201/379 369/199/368 379/211/378
f 381/199/380 382/200/381 383/201/3
f 382/200/381 384/202/382 383/201/3
f 384/202/382 385/203/383 383/201/3
f 385/203/383 386/204/384 383/201/3
f 386/204/384 387/205/385 383/201/3
f 387/205/385 388/206/386 383/201/3
f 388/206/386 389/207/387 383/201/3
f 389/207/387 390/208/388 383/201/3
f 390/208/388 391/209/389 383/201/3
f 391/209/389 392/210/390 383/201/3
f 392/210/390 393/211/391 383/201/3
f 393/211/391 381/199/392 383/201/3
f 394/212/393 382/200/381 381/199/380
f 395/213/203 394/212/393 381/199/380
f 396/214/242 384/202/382 382/200/381
f 394/212/393 396/214/242 382/200/381
f 397/215/394 385/203/383 384/202/382
f 396/214/242 397/215/394 384/202/382
f 398/216/280 386/204/384 385/203/383
f 397/215/394 398/216/280 385/203/383
f 399/217/395 387/205/385 386/204/384
f 398/216/280 399/217/395 386/204/384
f 400/218/318 388/206/386 387/205/385
f 399/217/395 400/218/318 387/205/385
f 401/219/396 389/207/387 388/206/386
f 400/218/318 401/219/396 388/206/386
f 402/220/356 390/208/388 389/207/387
f 401/219/396 402/220/356 389/207/387
f 403/221/397 391/209/389 390/208/388
f 402/220/356 403/221/397 390/208/388
f 404/222/165 392/210/390 391/209/389
f 403/221/397 404/222/165 391/209/389
f 405/223/398 393/211/391 392/210/390
f 404/222/165 405/223/398 392/210/390
f 395/213/214 381/199/392 393/211/391
f 405/223/398 395/213/214 393/211/391
f 406/200/399 394/212/393 395/213/203
f 407/199/400 406/200/399 395/213/203
f 408/202/401 396/214/242 394/212/393
f 406/200/399 408/202/401 394/212/393
f 409/203/402 397/215/394 396/214/242
f 408/202/401 409/203/402 396/214/242
f 410/204/403 398/216/280 397/215/394
f 409/203/402 410/204/403 397/215/394
f 411/205/404 399/217/395 398/216/280
f 410/204/403 411/205/404 398/216/280
f 412/206/405 400/218/318 399/217/395
f 411/205/404 412/206/405 399/217/395
f 413/207/406 401/219/396 400/218/318
f 412/206/405 413/207/406 400/218/318
f 414/208/407 402/220/356 401/219/396
f 413/207/406 414/208/407 401/219/396
f 415/209/408 403/221/397 402/220/356
f 414/208/407 415/209/408 402/220/356
f 416/210/409 404/222/165 403/221/397
f 415/209/408 416/210/409 403/221/397
f 417/211/410 405/223/398 404/222/165
f 416/210/409 417/211/410 404/222/165
f 407/199/411 395/213/214 405/223/398
f 417/211/410 407/199/411 405/223/398
f 418/201/150 406/200/399 407/199/400
f 418/201/150 408/202/401 406/200/399
f 418/201/150 409/203/402 408/202/401
f 418/201/150 410/204/403 409/203/402
f 418/201/150 411/205/404 410/204/403
f 418/201/150 412/206/405 411/205/404
f 418/201/150 413/207/406 412/206/405
f 418/201/150 414/208/407 413/207/406
f 418/201/150 415/209/408 414/208/407
f 418/201/150 416/210/409 415/209/408
f 418/201/150 417/211/410 416/210/409
f 418/201/150 407/199/411 417/211/410
f 419/199/412 420/200/413 421/201/414
f 420/200/413 422/202/415 421/201/414
f 422/202/415 423/203/416 421/201/414
f 423/203/416 424/204/417 421/201/414
f 424/204/417 425/205/418 421/201/414
f 425/205/418 426/206/419 421/201/414
f 426/206/419 427/207/420 421/201/414
f 427/207/420 428/208/421 421/201/414
f 428/208/421 429/209/422 421/201/414
f 429/209/422 430/210/423 421/201/414
f 430/210/423 431/211/424 421/201/414
f 431/211/424 419/199/412 421/201/414
f 432/212/425 420/200/413 419/199/412
f 433/213/426 432/212/425 419/199/412
f 434/214/427 422/202/415 420/200/413
f 432/212/425 434/214/427 420/200/413
f 435/215/428 423/203/416 422/202/415
f 434/214/427 435/215/428 422/202/415
f 436/216/429 424/204/417 423/203/416
f 435/215/428 436/216/429 423/203/416
f 437/217/430 425/205/418 424/204/417
f 436/216/429 437/217/430 424/204/417
f 438/218/431 426/206/419 425/205/418
f 437/217/430 438/218/431 425/205/418
f 439/219/432 427/207/420 426/206/419
f 438/218/431 439/219/432 426/206/419
f 440/220/433 428/208/421 427/207/420
f 439/219/432 440/220/433 427/207/420
f 441/221/434 429/209/422 428/208/421
f 440/220/433 441/221/434 428/208/421
f 442/222/435 430/210/423 429/209/422
f 441/221/434 442/222/435 429/209/422
f 443/223/436 431/211/424 430/210/423
f 442/222/435 443/223/436 430/210/423
f 433/213/426 419/199/412 431/211/424
f 443/223/436 433/213/426 431/211/424
f 444/200/437 432/212/425 433/213/426
f 445/199/438 444/200/437 433/213/426
f 446/202/439 434/214/427 432/212/425
f 444/200/437 446/202/439 432/212/425
f 447/203/440 435/215/428 434/214/427
f 446/202/439 447/203/440 434/214/427
f 448/204/441 436/216/429 435/215/428
f 447/203/440 448/204/441 435/215/428
f 449/205/442 437/217/430 436/216/429
f 448/204/441 449/205/442 436/216/429
f 450/206/443 438/218/431 437/217/430
f 449/205/442 450/206/443 437/217/430
f 451/207/444 439/219/432 438/218/431
f 450/206/443 451/207/444 438/218/431
f 452/208/445 440/220/433 439/219/432
f 451/207/444 452/208/445 439/219/432
f 453/209/446 441/221/434 440/220/433
f 452/208/445 453/209/446 440/220/433
f 454/210/447 442/222/435 441/221/434
f 453/209/446 454/210/447 441/221/434
f 455/211/448 443/223/436 442/222/435
f 454/210/447 455/211/448 442/222/435
f 445/199/438 433/213/426 443/223/436
f 455/211/448 445/199/438 443/223/436
f 456/201/449 444/200/437 445/199/438
f 456/201/449 446/202/439 444/200/437
f 456/201/449 447/203/440 446/202/439
f 456/201/449 448/204/441 447/203/440
f 456/201/449 449/205/442 448/204/441
f 456/201/449 450/206/443 449/205/442
f 456/201/449 451/207/444 450/206/443
f 456/201/449 452/208/445 451/207/444
f 456/201/449 453/209/446 452/208/445
f 456/201/449 454/210/447 453/209/446
f 456/201/449 455/211/448 454/210/447
f 456/201/449 445/199/438 455/211/448
f 457/199/450 458/200/451 459/201/452
f 458/200/451 460/202/453 459/201/452
f 460/202/453 461/203/454 459/201/452
f 461/203/454 462/204/455 459/201/452
f 462/204/455 463/205/456 459/201/452
f 463/205/456 464/206/457 459/201/452
f 464/206/457 465/207/458 459/201/452
f 465/207/458 466/208/459 459/201/452
f 466/208/459 467/209/460 459/201/452
f 467/209/460 468/210/461 459/201/452
f 468/210/461 469/211/462 459/201/452
f 469/211/462 457/199/450 459/201/452
f 470/212/463 458/200/451 457/199/450
f 471/213/464 470/212/463 457/199/450
f 472/214/465 460/202/453 458/200/451
f 470/212/463 472/214/465 458/200/451
f 473/215/466 461/203/454 460/202/453
f 472/214/465 473/215/466 460/202/453
f 474/216/467 462/204/455 461/203/454
f 473/215/466 474/216/467 461/203/454
f 475/217/468 463/205/456 462/204/455
f 474/216/467 475/217/468 462/204/455
f 476/218/469 464/206/457 463/205/456
f 475/217/468 476/218/469 463/205/456
f 477/219/470 465/207/458 464/206/457
f 476/218/469 477/219/470 464/206/457
f 478/220/471 466/208/459 465/207/458
f 477/219/470 478/220/471 465/207/458
f 479/221/472 467/209/460 466/208/459
f 478/220/471 479/221/472 466/208/459
f 480/222/473 468/210/461 467/209/460
f 479/221/472 480/222/473 467/209/460
f 481/223/474 469/211/462 468/210/461
f 480/222/473 481/223/474 468/210/461
f 471/213/475 457/199/450 469/211/462
f 481/223/474 471/213/475 469/211/462
f 482/200/476 470/212/463 471/213/464
f 483/199/477 482/200/476 471/213/464
f 484/202/478 472/214/465 470/212/463
f 482/200/476 484/202/478 470/212/463
f 485/203/479 473/215/466 472/214/465
f 484/202/478 485/203/479 472/214/465
f 486/204/480 474/216/467 473/215/466
f 485/203/479 486/204/480 473/215/466
f 487/205/481 475/217/468 474/216/467
f 486/204/480 487/205/481 474/216/467
f 488/206/482 476/218/469 475/217/468
f 487/205/481 488/206/482 475/217/468
f 489/207/483 477/219/470 476/218/469
f 488/206/482 489/207/483 476/218/469
f 490/208/484 478/220/471 477/219/470
f 489/207/483 490/208/484 477/219/470
f 491/209/485 479/221/472 478/220/471
f 490/208/484 491/209/485 478/220/471
f 492/210/486 480/222/473 479/221/472
f 491/209/485 492/210/486 479/221/472
f 493/211/487 481/223/474 480/222/473
f 492/210/486 493/211/487 480/222/473
f 483/199/477 471/213/475 481/223/474
f 493/211/487 483/199/477 481/223/474
f 494/201/488 482/200/476 483/199/477
f 494/201/488 484/202/478 482/200/476
f 494/201/488 485/203/479 484/202/478
f 494/201/488 486/204/480 485/203/479
f 494/201/488 487/205/481 486/204/480
f 494/201/488 488/206/482 487/205/481
f 494/201/488 489/207/483 488/206/482
f 494/201/488 490/208/484 489/207/483
f 494/201/488 491/209/485 490/208/484
f 494/201/488 492/210/486 491/209/485
f 494/201/488 493/211/487 492/210/486
f 494/201/488 483/199/477 493/211/487
