# Procedurally generated by dev-env-utils/scripts/gen_novelties.py -- do not hand edit
mtllib waterdispenser.mtl
o waterdispenser
v 0.33750 0.00000 0.33125
v 0.33750 0.00000 0.36250
v 0.33750 0.01875 0.36250
v 0.33750 0.01875 0.33125
v 0.36875 0.01875 0.36250
v 0.36875 0.00000 0.36250
v 0.36875 0.00000 0.33125
v 0.36875 0.01875 0.33125
v 0.33750 0.00000 0.63750
v 0.33750 0.00000 0.66875
v 0.33750 0.01875 0.66875
v 0.33750 0.01875 0.63750
v 0.36875 0.01875 0.66875
v 0.36875 0.00000 0.66875
v 0.36875 0.00000 0.63750
v 0.36875 0.01875 0.63750
v 0.63125 0.00000 0.33125
v 0.63125 0.00000 0.36250
v 0.63125 0.01875 0.36250
v 0.63125 0.01875 0.33125
v 0.66250 0.01875 0.36250
v 0.66250 0.00000 0.36250
v 0.66250 0.00000 0.33125
v 0.66250 0.01875 0.33125
v 0.63125 0.00000 0.63750
v 0.63125 0.00000 0.66875
v 0.63125 0.01875 0.66875
v 0.63125 0.01875 0.63750
v 0.66250 0.01875 0.66875
v 0.66250 0.00000 0.66875
v 0.66250 0.00000 0.63750
v 0.66250 0.01875 0.63750
v 0.62500 0.53125 0.36875
v 0.37500 0.53125 0.36875
v 0.37500 0.75000 0.36875
v 0.62500 0.75000 0.36875
v 0.33750 0.53125 0.66875
v 0.33750 0.53125 0.33125
v 0.66250 0.53125 0.66875
v 0.66250 0.53125 0.33125
v 0.33750 0.75000 0.33125
v 0.33750 0.75000 0.66875
v 0.33750 0.93750 0.66875
v 0.33750 0.93750 0.33125
v 0.66250 0.93750 0.66875
v 0.66250 0.75000 0.66875
v 0.66250 0.75000 0.33125
v 0.66250 0.93750 0.33125
v 0.37500 0.75000 0.66875
v 0.37500 0.53125 0.66875
v 0.37500 0.53125 0.33125
v 0.37500 0.75000 0.33125
v 0.62500 0.53125 0.33125
v 0.62500 0.53125 0.66875
v 0.62500 0.75000 0.66875
v 0.62500 0.75000 0.33125
v 0.39375 0.53125 0.33125
v 0.39375 0.53125 0.38750
v 0.39375 0.55625 0.38750
v 0.39375 0.55625 0.33125
v 0.60625 0.55625 0.38750
v 0.60625 0.53125 0.38750
v 0.60625 0.53125 0.33125
v 0.60625 0.55625 0.33125
v 0.42500 0.66250 0.32500
v 0.42500 0.66250 0.36875
v 0.42500 0.71875 0.36875
v 0.42500 0.71875 0.32500
v 0.46250 0.71875 0.36875
v 0.46250 0.66250 0.36875
v 0.46250 0.66250 0.32500
v 0.46250 0.71875 0.32500
v 0.43438 0.62500 0.33437
v 0.43438 0.62500 0.35312
v 0.43438 0.66250 0.35312
v 0.43438 0.66250 0.33437
v 0.45312 0.66250 0.35312
v 0.45312 0.62500 0.35312
v 0.45312 0.62500 0.33437
v 0.45312 0.66250 0.33437
v 0.53750 0.66250 0.32500
v 0.53750 0.66250 0.36875
v 0.53750 0.71875 0.36875
v 0.53750 0.71875 0.32500
v 0.57500 0.71875 0.36875
v 0.57500 0.66250 0.36875
v 0.57500 0.66250 0.32500
v 0.57500 0.71875 0.32500
v 0.54688 0.62500 0.33437
v 0.54688 0.62500 0.35312
v 0.54688 0.66250 0.35312
v 0.54688 0.66250 0.33437
v 0.56562 0.66250 0.35312
v 0.56562 0.62500 0.35312
v 0.56562 0.62500 0.33437
v 0.56562 0.66250 0.33437
v 0.55350 0.98750 0.51738
v 0.55350 0.92500 0.51738
v 0.55625 0.92500 0.50000
v 0.55625 0.98750 0.50000
v 0.54551 0.98750 0.53306
v 0.54551 0.92500 0.53306
v 0.53306 0.98750 0.54551
v 0.53306 0.92500 0.54551
v 0.51738 0.98750 0.55350
v 0.51738 0.92500 0.55350
v 0.50000 0.98750 0.55625
v 0.50000 0.92500 0.55625
v 0.48262 0.98750 0.55350
v 0.48262 0.92500 0.55350
v 0.46694 0.98750 0.54551
v 0.46694 0.92500 0.54551
v 0.45449 0.98750 0.53306
v 0.45449 0.92500 0.53306
v 0.44650 0.98750 0.51738
v 0.44650 0.92500 0.51738
v 0.44375 0.98750 0.50000
v 0.44375 0.92500 0.50000
v 0.44650 0.98750 0.48262
v 0.44650 0.92500 0.48262
v 0.45449 0.98750 0.46694
v 0.45449 0.92500 0.46694
v 0.46694 0.98750 0.45449
v 0.46694 0.92500 0.45449
v 0.48262 0.98750 0.44650
v 0.48262 0.92500 0.44650
v 0.50000 0.98750 0.44375
v 0.50000 0.92500 0.44375
v 0.51738 0.98750 0.44650
v 0.51738 0.92500 0.44650
v 0.53306 0.98750 0.45449
v 0.53306 0.92500 0.45449
v 0.54551 0.98750 0.46694
v 0.54551 0.92500 0.46694
v 0.55350 0.98750 0.48262
v 0.55350 0.92500 0.48262
v 0.58916 1.01875 0.52897
v 0.59375 1.01875 0.50000
v 0.57585 1.01875 0.55510
v 0.55510 1.01875 0.57585
v 0.52897 1.01875 0.58916
v 0.50000 1.01875 0.59375
v 0.47103 1.01875 0.58916
v 0.44490 1.01875 0.57585
v 0.42415 1.01875 0.55510
v 0.41084 1.01875 0.52897
v 0.40625 1.01875 0.50000
v 0.41084 1.01875 0.47103
v 0.42415 1.01875 0.44490
v 0.44490 1.01875 0.42415
v 0.47103 1.01875 0.41084
v 0.50000 1.01875 0.40625
v 0.52897 1.01875 0.41084
v 0.55510 1.01875 0.42415
v 0.57585 1.01875 0.44490
v 0.58916 1.01875 0.47103
v 0.63077 1.07500 0.54249
v 0.63750 1.07500 0.50000
v 0.61124 1.07500 0.58082
v 0.58082 1.07500 0.61124
v 0.54249 1.07500 0.63077
v 0.50000 1.07500 0.63750
v 0.45751 1.07500 0.63077
v 0.41918 1.07500 0.61124
v 0.38876 1.07500 0.58082
v 0.36923 1.07500 0.54249
v 0.36250 1.07500 0.50000
v 0.36923 1.07500 0.45751
v 0.38876 1.07500 0.41918
v 0.41918 1.07500 0.38876
v 0.45751 1.07500 0.36923
v 0.50000 1.07500 0.36250
v 0.54249 1.07500 0.36923
v 0.58082 1.07500 0.38876
v 0.61124 1.07500 0.41918
v 0.63077 1.07500 0.45751
v 0.63077 1.18750 0.54249
v 0.63750 1.18750 0.50000
v 0.61124 1.18750 0.58082
v 0.58082 1.18750 0.61124
v 0.54249 1.18750 0.63077
v 0.50000 1.18750 0.63750
v 0.45751 1.18750 0.63077
v 0.41918 1.18750 0.61124
v 0.38876 1.18750 0.58082
v 0.36923 1.18750 0.54249
v 0.36250 1.18750 0.50000
v 0.36923 1.18750 0.45751
v 0.38876 1.18750 0.41918
v 0.41918 1.18750 0.38876
v 0.45751 1.18750 0.36923
v 0.50000 1.18750 0.36250
v 0.54249 1.18750 0.36923
v 0.58082 1.18750 0.38876
v 0.61124 1.18750 0.41918
v 0.63077 1.18750 0.45751
v 0.63969 1.20000 0.54539
v 0.64687 1.20000 0.50000
v 0.61882 1.20000 0.58633
v 0.58633 1.20000 0.61882
v 0.54539 1.20000 0.63969
v 0.50000 1.20000 0.64687
v 0.45461 1.20000 0.63969
v 0.41367 1.20000 0.61882
v 0.38118 1.20000 0.58633
v 0.36031 1.20000 0.54539
v 0.35313 1.20000 0.50000
v 0.36031 1.20000 0.45461
v 0.38118 1.20000 0.41367
v 0.41367 1.20000 0.38118
v 0.45461 1.20000 0.36031
v 0.50000 1.20000 0.35313
v 0.54539 1.20000 0.36031
v 0.58633 1.20000 0.38118
v 0.61882 1.20000 0.41367
v 0.63969 1.20000 0.45461
v 0.63077 1.21250 0.54249
v 0.63750 1.21250 0.50000
v 0.61124 1.21250 0.58082
v 0.58082 1.21250 0.61124
v 0.54249 1.21250 0.63077
v 0.50000 1.21250 0.63750
v 0.45751 1.21250 0.63077
v 0.41918 1.21250 0.61124
v 0.38876 1.21250 0.58082
v 0.36923 1.21250 0.54249
v 0.36250 1.21250 0.50000
v 0.36923 1.21250 0.45751
v 0.38876 1.21250 0.41918
v 0.41918 1.21250 0.38876
v 0.45751 1.21250 0.36923
v 0.50000 1.21250 0.36250
v 0.54249 1.21250 0.36923
v 0.58082 1.21250 0.38876
v 0.61124 1.21250 0.41918
v 0.63077 1.21250 0.45751
v 0.63077 1.35000 0.54249
v 0.63750 1.35000 0.50000
v 0.61124 1.35000 0.58082
v 0.58082 1.35000 0.61124
v 0.54249 1.35000 0.63077
v 0.50000 1.35000 0.63750
v 0.45751 1.35000 0.63077
v 0.41918 1.35000 0.61124
v 0.38876 1.35000 0.58082
v 0.36923 1.35000 0.54249
v 0.36250 1.35000 0.50000
v 0.36923 1.35000 0.45751
v 0.38876 1.35000 0.41918
v 0.41918 1.35000 0.38876
v 0.45751 1.35000 0.36923
v 0.50000 1.35000 0.36250
v 0.54249 1.35000 0.36923
v 0.58082 1.35000 0.38876
v 0.61124 1.35000 0.41918
v 0.63077 1.35000 0.45751
v 0.63969 1.36250 0.54539
v 0.64687 1.36250 0.50000
v 0.61882 1.36250 0.58633
v 0.58633 1.36250 0.61882
v 0.54539 1.36250 0.63969
v 0.50000 1.36250 0.64687
v 0.45461 1.36250 0.63969
v 0.41367 1.36250 0.61882
v 0.38118 1.36250 0.58633
v 0.36031 1.36250 0.54539
v 0.35313 1.36250 0.50000
v 0.36031 1.36250 0.45461
v 0.38118 1.36250 0.41367
v 0.41367 1.36250 0.38118
v 0.45461 1.36250 0.36031
v 0.50000 1.36250 0.35313
v 0.54539 1.36250 0.36031
v 0.58633 1.36250 0.38118
v 0.61882 1.36250 0.41367
v 0.63969 1.36250 0.45461
v 0.63077 1.37500 0.54249
v 0.63750 1.37500 0.50000
v 0.61124 1.37500 0.58082
v 0.58082 1.37500 0.61124
v 0.54249 1.37500 0.63077
v 0.50000 1.37500 0.63750
v 0.45751 1.37500 0.63077
v 0.41918 1.37500 0.61124
v 0.38876 1.37500 0.58082
v 0.36923 1.37500 0.54249
v 0.36250 1.37500 0.50000
v 0.36923 1.37500 0.45751
v 0.38876 1.37500 0.41918
v 0.41918 1.37500 0.38876
v 0.45751 1.37500 0.36923
v 0.50000 1.37500 0.36250
v 0.54249 1.37500 0.36923
v 0.58082 1.37500 0.38876
v 0.61124 1.37500 0.41918
v 0.63077 1.37500 0.45751
v 0.63077 1.40000 0.54249
v 0.63750 1.40000 0.50000
v 0.61124 1.40000 0.58082
v 0.58082 1.40000 0.61124
v 0.54249 1.40000 0.63077
v 0.50000 1.40000 0.63750
v 0.45751 1.40000 0.63077
v 0.41918 1.40000 0.61124
v 0.38876 1.40000 0.58082
v 0.36923 1.40000 0.54249
v 0.36250 1.40000 0.50000
v 0.36923 1.40000 0.45751
v 0.38876 1.40000 0.41918
v 0.41918 1.40000 0.38876
v 0.45751 1.40000 0.36923
v 0.50000 1.40000 0.36250
v 0.54249 1.40000 0.36923
v 0.58082 1.40000 0.38876
v 0.61124 1.40000 0.41918
v 0.63077 1.40000 0.45751
v 0.61294 1.43750 0.53670
v 0.61875 1.43750 0.50000
v 0.59607 1.43750 0.56980
v 0.56980 1.43750 0.59607
v 0.53670 1.43750 0.61294
v 0.50000 1.43750 0.61875
v 0.46330 1.43750 0.61294
v 0.43020 1.43750 0.59607
v 0.40393 1.43750 0.56980
v 0.38706 1.43750 0.53670
v 0.38125 1.43750 0.50000
v 0.38706 1.43750 0.46330
v 0.40393 1.43750 0.43020
v 0.43020 1.43750 0.40393
v 0.46330 1.43750 0.38706
v 0.50000 1.43750 0.38125
v 0.53670 1.43750 0.38706
v 0.56980 1.43750 0.40393
v 0.59607 1.43750 0.43020
v 0.61294 1.43750 0.46330
v 0.55944 1.45938 0.51931
v 0.56250 1.45938 0.50000
v 0.55056 1.45938 0.53674
v 0.53674 1.45938 0.55056
v 0.51931 1.45938 0.55944
v 0.50000 1.45938 0.56250
v 0.48069 1.45938 0.55944
v 0.46326 1.45938 0.55056
v 0.44944 1.45938 0.53674
v 0.44056 1.45938 0.51931
v 0.43750 1.45938 0.50000
v 0.44056 1.45938 0.48069
v 0.44944 1.45938 0.46326
v 0.46326 1.45938 0.44944
v 0.48069 1.45938 0.44056
v 0.50000 1.45938 0.43750
v 0.51931 1.45938 0.44056
v 0.53674 1.45938 0.44944
v 0.55056 1.45938 0.46326
v 0.55944 1.45938 0.48069
v 0.50000 1.46250 0.50000
vt 0.33260 0.00400
vt 0.36360 0.00400
vt 0.36360 0.02260
vt 0.33260 0.02260
vt 0.63020 0.00400
vt 0.66120 0.00400
vt 0.66120 0.02260
vt 0.63020 0.02260
vt 0.63640 0.00400
vt 0.66740 0.00400
vt 0.66740 0.02260
vt 0.63640 0.02260
vt 0.33880 0.00400
vt 0.36980 0.00400
vt 0.36980 0.02260
vt 0.33880 0.02260
vt 0.37600 0.53100
vt 0.62400 0.53100
vt 0.62400 0.74800
vt 0.37600 0.74800
vt 0.66740 0.53100
vt 0.33260 0.53100
vt 0.33880 0.66740
vt 0.66120 0.66740
vt 0.66120 0.33260
vt 0.33880 0.33260
vt 0.66120 0.53100
vt 0.33880 0.53100
vt 0.33260 0.74800
vt 0.66740 0.74800
vt 0.66740 0.93400
vt 0.33260 0.93400
vt 0.33880 0.74800
vt 0.66120 0.74800
vt 0.66120 0.93400
vt 0.33880 0.93400
vt 0.38840 0.53100
vt 0.38840 0.55580
vt 0.33260 0.55580
vt 0.60540 0.61160
vt 0.60540 0.66740
vt 0.39460 0.66740
vt 0.39460 0.61160
vt 0.39460 0.53100
vt 0.60540 0.53100
vt 0.60540 0.55580
vt 0.39460 0.55580
vt 0.32640 0.66120
vt 0.36980 0.66120
vt 0.36980 0.71700
vt 0.32640 0.71700
vt 0.42560 0.67360
vt 0.46280 0.67360
vt 0.46280 0.63020
vt 0.42560 0.63020
vt 0.53720 0.66120
vt 0.57440 0.66120
vt 0.57440 0.71700
vt 0.53720 0.71700
vt 0.33570 0.62400
vt 0.35430 0.62400
vt 0.35430 0.66120
vt 0.33570 0.66120
vt 0.43490 0.66430
vt 0.45350 0.66430
vt 0.45350 0.64570
vt 0.43490 0.64570
vt 0.54650 0.62400
vt 0.56510 0.62400
vt 0.56510 0.66120
vt 0.54650 0.66120
vt 0.53720 0.67360
vt 0.57440 0.67360
vt 0.57440 0.63020
vt 0.53720 0.63020
vt 0.42560 0.66120
vt 0.46280 0.66120
vt 0.46280 0.71700
vt 0.42560 0.71700
vt 0.54650 0.66430
vt 0.56510 0.66430
vt 0.56510 0.64570
vt 0.54650 0.64570
vt 0.43490 0.62400
vt 0.45350 0.62400
vt 0.45350 0.66120
vt 0.43490 0.66120
vt 0.05360 0.11935
vt 0.05360 0.00400
vt 0.00400 0.00400
vt 0.00400 0.11935
vt 0.10320 0.11935
vt 0.10320 0.00400
vt 0.15280 0.11935
vt 0.15280 0.00400
vt 0.20240 0.11935
vt 0.20240 0.00400
vt 0.25200 0.11935
vt 0.25200 0.00400
vt 0.30160 0.11935
vt 0.30160 0.00400
vt 0.35120 0.11935
vt 0.35120 0.00400
vt 0.40080 0.11935
vt 0.40080 0.00400
vt 0.45040 0.11935
vt 0.45040 0.00400
vt 0.50000 0.11935
vt 0.50000 0.00400
vt 0.54960 0.11935
vt 0.54960 0.00400
vt 0.59920 0.11935
vt 0.59920 0.00400
vt 0.64880 0.11935
vt 0.64880 0.00400
vt 0.69840 0.11935
vt 0.69840 0.00400
vt 0.74800 0.11935
vt 0.74800 0.00400
vt 0.79760 0.11935
vt 0.79760 0.00400
vt 0.84720 0.11935
vt 0.84720 0.00400
vt 0.89680 0.11935
vt 0.89680 0.00400
vt 0.94640 0.11935
vt 0.94640 0.00400
vt 0.99600 0.11935
vt 0.99600 0.00400
vt 0.05360 0.17702
vt 0.00400 0.17702
vt 0.10320 0.17702
vt 0.15280 0.17702
vt 0.20240 0.17702
vt 0.25200 0.17702
vt 0.30160 0.17702
vt 0.35120 0.17702
vt 0.40080 0.17702
vt 0.45040 0.17702
vt 0.50000 0.17702
vt 0.54960 0.17702
vt 0.59920 0.17702
vt 0.64880 0.17702
vt 0.69840 0.17702
vt 0.74800 0.17702
vt 0.79760 0.17702
vt 0.84720 0.17702
vt 0.89680 0.17702
vt 0.94640 0.17702
vt 0.99600 0.17702
vt 0.05360 0.28084
vt 0.00400 0.28084
vt 0.10320 0.28084
vt 0.15280 0.28084
vt 0.20240 0.28084
vt 0.25200 0.28084
vt 0.30160 0.28084
vt 0.35120 0.28084
vt 0.40080 0.28084
vt 0.45040 0.28084
vt 0.50000 0.28084
vt 0.54960 0.28084
vt 0.59920 0.28084
vt 0.64880 0.28084
vt 0.69840 0.28084
vt 0.74800 0.28084
vt 0.79760 0.28084
vt 0.84720 0.28084
vt 0.89680 0.28084
vt 0.94640 0.28084
vt 0.99600 0.28084
vt 0.05360 0.48847
vt 0.00400 0.48847
vt 0.10320 0.48847
vt 0.15280 0.48847
vt 0.20240 0.48847
vt 0.25200 0.48847
vt 0.30160 0.48847
vt 0.35120 0.48847
vt 0.40080 0.48847
vt 0.45040 0.48847
vt 0.50000 0.48847
vt 0.54960 0.48847
vt 0.59920 0.48847
vt 0.64880 0.48847
vt 0.69840 0.48847
vt 0.74800 0.48847
vt 0.79760 0.48847
vt 0.84720 0.48847
vt 0.89680 0.48847
vt 0.94640 0.48847
vt 0.99600 0.48847
vt 0.05360 0.51153
vt 0.00400 0.51153
vt 0.10320 0.51153
vt 0.15280 0.51153
vt 0.20240 0.51153
vt 0.25200 0.51153
vt 0.30160 0.51153
vt 0.35120 0.51153
vt 0.40080 0.51153
vt 0.45040 0.51153
vt 0.50000 0.51153
vt 0.54960 0.51153
vt 0.59920 0.51153
vt 0.64880 0.51153
vt 0.69840 0.51153
vt 0.74800 0.51153
vt 0.79760 0.51153
vt 0.84720 0.51153
vt 0.89680 0.51153
vt 0.94640 0.51153
vt 0.99600 0.51153
vt 0.05360 0.53460
vt 0.00400 0.53460
vt 0.10320 0.53460
vt 0.15280 0.53460
vt 0.20240 0.53460
vt 0.25200 0.53460
vt 0.30160 0.53460
vt 0.35120 0.53460
vt 0.40080 0.53460
vt 0.45040 0.53460
vt 0.50000 0.53460
vt 0.54960 0.53460
vt 0.59920 0.53460
vt 0.64880 0.53460
vt 0.69840 0.53460
vt 0.74800 0.53460
vt 0.79760 0.53460
vt 0.84720 0.53460
vt 0.89680 0.53460
vt 0.94640 0.53460
vt 0.99600 0.53460
vt 0.05360 0.78837
vt 0.00400 0.78837
vt 0.10320 0.78837
vt 0.15280 0.78837
vt 0.20240 0.78837
vt 0.25200 0.78837
vt 0.30160 0.78837
vt 0.35120 0.78837
vt 0.40080 0.78837
vt 0.45040 0.78837
vt 0.50000 0.78837
vt 0.54960 0.78837
vt 0.59920 0.78837
vt 0.64880 0.78837
vt 0.69840 0.78837
vt 0.74800 0.78837
vt 0.79760 0.78837
vt 0.84720 0.78837
vt 0.89680 0.78837
vt 0.94640 0.78837
vt 0.99600 0.78837
vt 0.05360 0.81144
vt 0.00400 0.81144
vt 0.10320 0.81144
vt 0.15280 0.81144
vt 0.20240 0.81144
vt 0.25200 0.81144
vt 0.30160 0.81144
vt 0.35120 0.81144
vt 0.40080 0.81144
vt 0.45040 0.81144
vt 0.50000 0.81144
vt 0.54960 0.81144
vt 0.59920 0.81144
vt 0.64880 0.81144
vt 0.69840 0.81144
vt 0.74800 0.81144
vt 0.79760 0.81144
vt 0.84720 0.81144
vt 0.89680 0.81144
vt 0.94640 0.81144
vt 0.99600 0.81144
vt 0.05360 0.83451
vt 0.00400 0.83451
vt 0.10320 0.83451
vt 0.15280 0.83451
vt 0.20240 0.83451
vt 0.25200 0.83451
vt 0.30160 0.83451
vt 0.35120 0.83451
vt 0.40080 0.83451
vt 0.45040 0.83451
vt 0.50000 0.83451
vt 0.54960 0.83451
vt 0.59920 0.83451
vt 0.64880 0.83451
vt 0.69840 0.83451
vt 0.74800 0.83451
vt 0.79760 0.83451
vt 0.84720 0.83451
vt 0.89680 0.83451
vt 0.94640 0.83451
vt 0.99600 0.83451
vt 0.05360 0.88065
vt 0.00400 0.88065
vt 0.10320 0.88065
vt 0.15280 0.88065
vt 0.20240 0.88065
vt 0.25200 0.88065
vt 0.30160 0.88065
vt 0.35120 0.88065
vt 0.40080 0.88065
vt 0.45040 0.88065
vt 0.50000 0.88065
vt 0.54960 0.88065
vt 0.59920 0.88065
vt 0.64880 0.88065
vt 0.69840 0.88065
vt 0.74800 0.88065
vt 0.79760 0.88065
vt 0.84720 0.88065
vt 0.89680 0.88065
vt 0.94640 0.88065
vt 0.99600 0.88065
vt 0.05360 0.94986
vt 0.00400 0.94986
vt 0.10320 0.94986
vt 0.15280 0.94986
vt 0.20240 0.94986
vt 0.25200 0.94986
vt 0.30160 0.94986
vt 0.35120 0.94986
vt 0.40080 0.94986
vt 0.45040 0.94986
vt 0.50000 0.94986
vt 0.54960 0.94986
vt 0.59920 0.94986
vt 0.64880 0.94986
vt 0.69840 0.94986
vt 0.74800 0.94986
vt 0.79760 0.94986
vt 0.84720 0.94986
vt 0.89680 0.94986
vt 0.94640 0.94986
vt 0.99600 0.94986
vt 0.05360 0.99023
vt 0.00400 0.99023
vt 0.10320 0.99023
vt 0.15280 0.99023
vt 0.20240 0.99023
vt 0.25200 0.99023
vt 0.30160 0.99023
vt 0.35120 0.99023
vt 0.40080 0.99023
vt 0.45040 0.99023
vt 0.50000 0.99023
vt 0.54960 0.99023
vt 0.59920 0.99023
vt 0.64880 0.99023
vt 0.69840 0.99023
vt 0.74800 0.99023
vt 0.79760 0.99023
vt 0.84720 0.99023
vt 0.89680 0.99023
vt 0.94640 0.99023
vt 0.99600 0.99023
vt 0.05360 0.99600
vt 0.10320 0.99600
vt 0.15280 0.99600
vt 0.20240 0.99600
vt 0.25200 0.99600
vt 0.30160 0.99600
vt 0.35120 0.99600
vt 0.40080 0.99600
vt 0.45040 0.99600
vt 0.50000 0.99600
vt 0.54960 0.99600
vt 0.59920 0.99600
vt 0.64880 0.99600
vt 0.69840 0.99600
vt 0.74800 0.99600
vt 0.79760 0.99600
vt 0.84720 0.99600
vt 0.89680 0.99600
vt 0.94640 0.99600
vt 0.99600 0.99600
vn -1.00000 0.00000 0.00000
vn 1.00000 0.00000 0.00000
vn 0.00000 0.00000 -1.00000
vn 0.00000 0.00000 1.00000
vn 0.00000 -1.00000 0.00000
vn 0.00000 1.00000 0.00000
vn 0.88303 -0.37139 0.28692
vn 0.95106 0.00000 0.30902
vn 0.92848 -0.37139 0.00000
vn 0.75115 -0.37139 0.54574
vn 0.80902 0.00000 0.58779
vn 0.54574 -0.37139 0.75115
vn 0.58779 0.00000 0.80902
vn 0.28692 -0.37139 0.88303
vn 0.30902 0.00000 0.95106
vn 0.00000 -0.37139 0.92848
vn -0.28692 -0.37139 0.88303
vn -0.30902 0.00000 0.95106
vn -0.54574 -0.37139 0.75115
vn -0.58779 0.00000 0.80902
vn -0.75115 -0.37139 0.54574
vn -0.80902 0.00000 0.58779
vn -0.88303 -0.37139 0.28692
vn -0.95106 0.00000 0.30902
vn -0.92848 -0.37139 0.00000
vn -0.88303 -0.37139 -0.28692
vn -0.95106 0.00000 -0.30902
vn -0.75115 -0.37139 -0.54574
vn -0.80902 0.00000 -0.58779
vn -0.54574 -0.37139 -0.75115
vn -0.58779 0.00000 -0.80902
vn -0.28692 -0.37139 -0.88303
vn -0.30902 0.00000 -0.95106
vn -0.00000 -0.37139 -0.92848
vn -0.00000 0.00000 -1.00000
vn 0.28692 -0.37139 -0.88303
vn 0.30902 0.00000 -0.95106
vn 0.54574 -0.37139 -0.75115
vn 0.58779 0.00000 -0.80902
vn 0.75115 -0.37139 -0.54574
vn 0.80902 0.00000 -0.58779
vn 0.88303 -0.37139 -0.28692
vn 0.95106 0.00000 -0.30902
vn 0.92848 -0.37139 -0.00000
vn 1.00000 0.00000 -0.00000
vn 0.69693 -0.68045 0.22645
vn 0.73279 -0.68045 0.00000
vn 0.59284 -0.68045 0.43073
vn 0.43073 -0.68045 0.59284
vn 0.22645 -0.68045 0.69693
vn 0.00000 -0.68045 0.73279
vn -0.22645 -0.68045 0.69693
vn -0.43073 -0.68045 0.59284
vn -0.59284 -0.68045 0.43073
vn -0.69693 -0.68045 0.22645
vn -0.73279 -0.68045 0.00000
vn -0.69693 -0.68045 -0.22645
vn -0.59284 -0.68045 -0.43073
vn -0.43073 -0.68045 -0.59284
vn -0.22645 -0.68045 -0.69693
vn -0.00000 -0.68045 -0.73279
vn 0.22645 -0.68045 -0.69693
vn 0.43073 -0.68045 -0.59284
vn 0.59284 -0.68045 -0.43073
vn 0.69693 -0.68045 -0.22645
vn 0.73279 -0.68045 -0.00000
vn 0.92062 -0.25096 0.29913
vn 0.96800 -0.25096 0.00000
vn 0.78313 -0.25096 0.56897
vn 0.56897 -0.25096 0.78313
vn 0.29913 -0.25096 0.92062
vn 0.00000 -0.25096 0.96800
vn -0.29913 -0.25096 0.92062
vn -0.56897 -0.25096 0.78313
vn -0.78313 -0.25096 0.56897
vn -0.92062 -0.25096 0.29913
vn -0.96800 -0.25096 0.00000
vn -0.92062 -0.25096 -0.29913
vn -0.78313 -0.25096 -0.56897
vn -0.56897 -0.25096 -0.78313
vn -0.29913 -0.25096 -0.92062
vn -0.00000 -0.25096 -0.96800
vn 0.29913 -0.25096 -0.92062
vn 0.56897 -0.25096 -0.78313
vn 0.78313 -0.25096 -0.56897
vn 0.92062 -0.25096 -0.29913
vn 0.96800 -0.25096 -0.00000
vn 0.94839 -0.07479 0.30815
vn 0.99720 -0.07479 0.00000
vn 0.80675 -0.07479 0.58614
vn 0.58614 -0.07479 0.80675
vn 0.30815 -0.07479 0.94839
vn 0.00000 -0.07479 0.99720
vn -0.30815 -0.07479 0.94839
vn -0.58614 -0.07479 0.80675
vn -0.80675 -0.07479 0.58614
vn -0.94839 -0.07479 0.30815
vn -0.99720 -0.07479 0.00000
vn -0.94839 -0.07479 -0.30815
vn -0.80675 -0.07479 -0.58614
vn -0.58614 -0.07479 -0.80675
vn -0.30815 -0.07479 -0.94839
vn -0.00000 -0.07479 -0.99720
vn 0.30815 -0.07479 -0.94839
vn 0.58614 -0.07479 -0.80675
vn 0.80675 -0.07479 -0.58614
vn 0.94839 -0.07479 -0.30815
vn 0.99720 -0.07479 -0.00000
vn 0.94920 0.06238 0.30842
vn 0.99805 0.06238 0.00000
vn 0.80744 0.06238 0.58664
vn 0.58664 0.06238 0.80744
vn 0.30842 0.06238 0.94920
vn 0.00000 0.06238 0.99805
vn -0.30842 0.06238 0.94920
vn -0.58664 0.06238 0.80744
vn -0.80744 0.06238 0.58664
vn -0.94920 0.06238 0.30842
vn -0.99805 0.06238 0.00000
vn -0.94920 0.06238 -0.30842
vn -0.80744 0.06238 -0.58664
vn -0.58664 0.06238 -0.80744
vn -0.30842 0.06238 -0.94920
vn -0.00000 0.06238 -0.99805
vn 0.30842 0.06238 -0.94920
vn 0.58664 0.06238 -0.80744
vn 0.80744 0.06238 -0.58664
vn 0.94920 0.06238 -0.30842
vn 0.99805 0.06238 -0.00000
vn 0.94920 -0.06238 0.30842
vn 0.99805 -0.06238 0.00000
vn 0.80744 -0.06238 0.58664
vn 0.58664 -0.06238 0.80744
vn 0.30842 -0.06238 0.94920
vn 0.00000 -0.06238 0.99805
vn -0.30842 -0.06238 0.94920
vn -0.58664 -0.06238 0.80744
vn -0.80744 -0.06238 0.58664
vn -0.94920 -0.06238 0.30842
vn -0.99805 -0.06238 0.00000
vn -0.94920 -0.06238 -0.30842
vn -0.80744 -0.06238 -0.58664
vn -0.58664 -0.06238 -0.80744
vn -0.30842 -0.06238 -0.94920
vn -0.00000 -0.06238 -0.99805
vn 0.30842 -0.06238 -0.94920
vn 0.58664 -0.06238 -0.80744
vn 0.80744 -0.06238 -0.58664
vn 0.94920 -0.06238 -0.30842
vn 0.99805 -0.06238 -0.00000
vn 0.92266 0.24254 0.29979
vn 0.97014 0.24254 0.00000
vn 0.78486 0.24254 0.57024
vn 0.57024 0.24254 0.78486
vn 0.29979 0.24254 0.92266
vn 0.00000 0.24254 0.97014
vn -0.29979 0.24254 0.92266
vn -0.57024 0.24254 0.78486
vn -0.78486 0.24254 0.57024
vn -0.92266 0.24254 0.29979
vn -0.97014 0.24254 0.00000
vn -0.92266 0.24254 -0.29979
vn -0.78486 0.24254 -0.57024
vn -0.57024 0.24254 -0.78486
vn -0.29979 0.24254 -0.92266
vn -0.00000 0.24254 -0.97014
vn 0.29979 0.24254 -0.92266
vn 0.57024 0.24254 -0.78486
vn 0.78486 0.24254 -0.57024
vn 0.92266 0.24254 -0.29979
vn 0.97014 0.24254 -0.00000
vn 0.91095 0.28735 0.29598
vn 0.95783 0.28735 0.00000
vn 0.77490 0.28735 0.56300
vn 0.56300 0.28735 0.77490
vn 0.29598 0.28735 0.91095
vn 0.00000 0.28735 0.95783
vn -0.29598 0.28735 0.91095
vn -0.56300 0.28735 0.77490
vn -0.77490 0.28735 0.56300
vn -0.91095 0.28735 0.29598
vn -0.95783 0.28735 0.00000
vn -0.91095 0.28735 -0.29598
vn -0.77490 0.28735 -0.56300
vn -0.56300 0.28735 -0.77490
vn -0.29598 0.28735 -0.91095
vn -0.00000 0.28735 -0.95783
vn 0.29598 0.28735 -0.91095
vn 0.56300 0.28735 -0.77490
vn 0.77490 0.28735 -0.56300
vn 0.91095 0.28735 -0.29598
vn 0.95783 0.28735 -0.00000
vn 0.59032 0.78405 0.19181
vn 0.62070 0.78405 0.00000
vn 0.50216 0.78405 0.36484
vn 0.36484 0.78405 0.50216
vn 0.19181 0.78405 0.59032
vn 0.00000 0.78405 0.62070
vn -0.19181 0.78405 0.59032
vn -0.36484 0.78405 0.50216
vn -0.50216 0.78405 0.36484
vn -0.59032 0.78405 0.19181
vn -0.62070 0.78405 0.00000
vn -0.59032 0.78405 -0.19181
vn -0.50216 0.78405 -0.36484
vn -0.36484 0.78405 -0.50216
vn -0.19181 0.78405 -0.59032
vn -0.00000 0.78405 -0.62070
vn 0.19181 0.78405 -0.59032
vn 0.36484 0.78405 -0.50216
vn 0.50216 0.78405 -0.36484
vn 0.59032 0.78405 -0.19181
vn 0.62070 0.78405 -0.00000
vn 0.19593 0.97855 0.06366
vn 0.20601 0.97855 0.00000
vn 0.16667 0.97855 0.12109
vn 0.12109 0.97855 0.16667
vn 0.06366 0.97855 0.19593
vn 0.00000 0.97855 0.20601
vn -0.06366 0.97855 0.19593
vn -0.12109 0.97855 0.16667
vn -0.16667 0.97855 0.12109
vn -0.19593 0.97855 0.06366
vn -0.20601 0.97855 0.00000
vn -0.19593 0.97855 -0.06366
vn -0.16667 0.97855 -0.12109
vn -0.12109 0.97855 -0.16667
vn -0.06366 0.97855 -0.19593
vn -0.00000 0.97855 -0.20601
vn 0.06366 0.97855 -0.19593
vn 0.12109 0.97855 -0.16667
vn 0.16667 0.97855 -0.12109
vn 0.19593 0.97855 -0.06366
vn 0.20601 0.97855 -0.00000
vn 0.04749 0.99875 0.01543
vn 0.04040 0.99875 0.02935
vn 0.02935 0.99875 0.04040
vn 0.01543 0.99875 0.04749
vn 0.00000 0.99875 0.04994
vn -0.01543 0.99875 0.04749
vn -0.02935 0.99875 0.04040
vn -0.04040 0.99875 0.02935
vn -0.04749 0.99875 0.01543
vn -0.04994 0.99875 0.00000
vn -0.04749 0.99875 -0.01543
vn -0.04040 0.99875 -0.02935
vn -0.02935 0.99875 -0.04040
vn -0.01543 0.99875 -0.04749
vn -0.00000 0.99875 -0.04994
vn 0.01543 0.99875 -0.04749
vn 0.02935 0.99875 -0.04040
vn 0.04040 0.99875 -0.02935
vn 0.04749 0.99875 -0.01543
vn 0.04994 0.99875 -0.00000
usemtl panel
f 1/1/1 2/2/1 3/3/1
f 1/1/1 3/3/1 4/4/1
f 5/3/2 6/2/2 7/1/2
f 8/4/2 5/3/2 7/1/2
f 7/5/3 1/6/3 4/7/3
f 7/5/3 4/7/3 8/8/3
f 3/7/4 2/6/4 6/5/4
f 5/8/4 3/7/4 6/5/4
f 9/9/1 10/10/1 11/11/1
f 9/9/1 11/11/1 12/12/1
f 13/11/2 14/10/2 15/9/2
f 16/12/2 13/11/2 15/9/2
f 15/5/3 9/6/3 12/7/3
f 15/5/3 12/7/3 16/8/3
f 11/7/4 10/6/4 14/5/4
f 13/8/4 11/7/4 14/5/4
f 17/1/1 18/2/1 19/3/1
f 17/1/1 19/3/1 20/4/1
f 21/3/2 22/2/2 23/1/2
f 24/4/2 21/3/2 23/1/2
f 23/13/3 17/14/3 20/15/3
f 23/13/3 20/15/3 24/16/3
f 19/15/4 18/14/4 22/13/4
f 21/16/4 19/15/4 22/13/4
f 25/9/1 26/10/1 27/11/1
f 25/9/1 27/11/1 28/12/1
f 29/11/2 30/10/2 31/9/2
f 32/12/2 29/11/2 31/9/2
f 31/13/3 25/14/3 28/15/3
f 31/13/3 28/15/3 32/16/3
f 27/15/4 26/14/4 30/13/4
f 29/16/4 27/15/4 30/13/4
f 33/17/3 34/18/3 35/19/3
f 33/17/3 35/19/3 36/20/3
usemtl body
f 4/4/1 11/11/1 37/21/1
f 4/4/1 37/21/1 38/22/1
f 39/21/2 29/11/2 24/4/2
f 40/22/2 39/21/2 24/4/2
f 4/23/5 24/24/5 29/25/5
f 4/23/5 29/25/5 11/26/5
f 39/25/6 40/24/6 38/23/6
f 37/26/6 39/25/6 38/23/6
f 24/16/3 4/7/3 38/27/3
f 24/16/3 38/27/3 40/28/3
f 37/27/4 11/7/4 29/16/4
f 39/28/4 37/27/4 29/16/4
f 41/29/1 42/30/1 43/31/1
f 41/29/1 43/31/1 44/32/1
f 45/31/2 46/30/2 47/29/2
f 48/32/2 45/31/2 47/29/2
f 41/23/5 47/24/5 46/25/5
f 41/23/5 46/25/5 42/26/5
f 45/25/6 48/24/6 44/23/6
f 43/26/6 45/25/6 44/23/6
f 47/33/3 41/34/3 44/35/3
f 47/33/3 44/35/3 48/36/3
f 43/35/4 42/34/4 46/33/4
f 45/36/4 43/35/4 46/33/4
f 38/22/1 37/21/1 42/30/1
f 38/22/1 42/30/1 41/29/1
f 49/30/2 50/21/2 51/22/2
f 52/29/2 49/30/2 51/22/2
f 51/18/3 38/27/3 41/34/3
f 51/18/3 41/34/3 52/19/3
f 42/34/4 37/27/4 50/18/4
f 49/19/4 42/34/4 50/18/4
f 53/22/1 54/21/1 55/30/1
f 53/22/1 55/30/1 56/29/1
f 46/30/2 39/21/2 40/22/2
f 47/29/2 46/30/2 40/22/2
f 40/28/3 53/17/3 56/20/3
f 40/28/3 56/20/3 47/33/3
f 55/20/4 54/17/4 39/28/4
f 46/33/4 55/20/4 39/28/4
f 49/19/4 50/18/4 54/17/4
f 55/20/4 49/19/4 54/17/4
usemtl grille
f 57/22/1 58/37/1 59/38/1
f 57/22/1 59/38/1 60/39/1
f 61/38/2 62/37/2 63/22/2
f 64/39/2 61/38/2 63/22/2
f 61/40/6 64/41/6 60/42/6
f 59/43/6 61/40/6 60/42/6
f 63/44/3 57/45/3 60/46/3
f 63/44/3 60/46/3 64/47/3
usemtl hot
f 65/48/1 66/49/1 67/50/1
f 65/48/1 67/50/1 68/51/1
f 69/50/2 70/49/2 71/48/2
f 72/51/2 69/50/2 71/48/2
f 65/52/5 71/53/5 70/54/5
f 65/52/5 70/54/5 66/55/5
f 69/54/6 72/53/6 68/52/6
f 67/55/6 69/54/6 68/52/6
f 71/56/3 65/57/3 68/58/3
f 71/56/3 68/58/3 72/59/3
f 67/58/4 66/57/4 70/56/4
f 69/59/4 67/58/4 70/56/4
f 73/60/1 74/61/1 75/62/1
f 73/60/1 75/62/1 76/63/1
f 77/62/2 78/61/2 79/60/2
f 80/63/2 77/62/2 79/60/2
f 73/64/5 79/65/5 78/66/5
f 73/64/5 78/66/5 74/67/5
f 77/66/6 80/65/6 76/64/6
f 75/67/6 77/66/6 76/64/6
f 79/68/3 73/69/3 76/70/3
f 79/68/3 76/70/3 80/71/3
f 75/70/4 74/69/4 78/68/4
f 77/71/4 75/70/4 78/68/4
usemtl cold
f 81/48/1 82/49/1 83/50/1
f 81/48/1 83/50/1 84/51/1
f 85/50/2 86/49/2 87/48/2
f 88/51/2 85/50/2 87/48/2
f 81/72/5 87/73/5 86/74/5
f 81/72/5 86/74/5 82/75/5
f 85/74/6 88/73/6 84/72/6
f 83/75/6 85/74/6 84/72/6
f 87/76/3 81/77/3 84/78/3
f 87/76/3 84/78/3 88/79/3
f 83/78/4 82/77/4 86/76/4
f 85/79/4 83/78/4 86/76/4
f 89/60/1 90/61/1 91/62/1
f 89/60/1 91/62/1 92/63/1
f 93/62/2 94/61/2 95/60/2
f 96/63/2 93/62/2 95/60/2
f 89/80/5 95/81/5 94/82/5
f 89/80/5 94/82/5 90/83/5
f 93/82/6 96/81/6 92/80/6
f 91/83/6 93/82/6 92/80/6
f 95/84/3 89/85/3 92/86/3
f 95/84/3 92/86/3 96/87/3
f 91/86/4 90/85/4 94/84/4
f 93/87/4 91/86/4 94/84/4
usemtl bottle
f 97/88/7 98/89/8 99/90/2
f 100/91/9 97/88/7 99/90/2
f 101/92/10 102/93/11 98/89/8
f 97/88/7 101/92/10 98/89/8
f 103/94/12 104/95/13 102/93/11
f 101/92/10 103/94/12 102/93/11
f 105/96/14 106/97/15 104/95/13
f 103/94/12 105/96/14 104/95/13
f 107/98/16 108/99/4 106/97/15
f 105/96/14 107/98/16 106/97/15
f 109/100/17 110/101/18 108/99/4
f 107/98/16 109/100/17 108/99/4
f 111/102/19 112/103/20 110/101/18
f 109/100/17 111/102/19 110/101/18
f 113/104/21 114/105/22 112/103/20
f 111/102/19 113/104/21 112/103/20
f 115/106/23 116/107/24 114/105/22
f 113/104/21 115/106/23 114/105/22
f 117/108/25 118/109/1 116/107/24
f 115/106/23 117/108/25 116/107/24
f 119/110/26 120/111/27 118/109/1
f 117/108/25 119/110/26 118/109/1
f 121/112/28 122/113/29 120/111/27
f 119/110/26 121/112/28 120/111/27
f 123/114/30 124/115/31 122/113/29
f 121/112/28 123/114/30 122/113/29
f 125/116/32 126/117/33 124/115/31
f 123/114/30 125/116/32 124/115/31
f 127/118/34 128/119/35 126/117/33
f 125/116/32 127/118/34 126/117/33
f 129/120/36 130/121/37 128/119/35
f 127/118/34 129/120/36 128/119/35
f 131/122/38 132/123/39 130/121/37
f 129/120/36 131/122/38 130/121/37
f 133/124/40 134/125/41 132/123/39
f 131/122/38 133/124/40 132/123/39
f 135/126/42 136/127/43 134/125/41
f 133/124/40 135/126/42 134/125/41
f 100/128/44 99/129/45 136/127/43
f 135/126/42 100/128/44 136/127/43
f 137/130/46 97/88/7 100/91/9
f 138/131/47 137/130/46 100/91/9
f 139/132/48 101/92/10 97/88/7
f 137/130/46 139/132/48 97/88/7
f 140/133/49 103/94/12 101/92/10
f 139/132/48 140/133/49 101/92/10
f 141/134/50 105/96/14 103/94/12
f 140/133/49 141/134/50 103/94/12
f 142/135/51 107/98/16 105/96/14
f 141/134/50 142/135/51 105/96/14
f 143/136/52 109/100/17 107/98/16
f 142/135/51 143/136/52 107/98/16
f 144/137/53 111/102/19 109/100/17
f 143/136/52 144/137/53 109/100/17
f 145/138/54 113/104/21 111/102/19
f 144/137/53 145/138/54 111/102/19
f 146/139/55 115/106/23 113/104/21
f 145/138/54 146/139/55 113/104/21
f 147/140/56 117/108/25 115/106/23
f 146/139/55 147/140/56 115/106/23
f 148/141/57 119/110/26 117/108/25
f 147/140/56 148/141/57 117/108/25
f 149/142/58 121/112/28 119/110/26
f 148/141/57 149/142/58 119/110/26
f 150/143/59 123/114/30 121/112/28
f 149/142/58 150/143/59 121/112/28
f 151/144/60 125/116/32 123/114/30
f 150/143/59 151/144/60 123/114/30
f 152/145/61 127/118/34 125/116/32
f 151/144/60 152/145/61 125/116/32
f 153/146/62 129/120/36 127/118/34
f 152/145/61 153/146/62 127/118/34
f 154/147/63 131/122/38 129/120/36
f 153/146/62 154/147/63 129/120/36
f 155/148/64 133/124/40 131/122/38
f 154/147/63 155/148/64 131/122/38
f 156/149/65 135/126/42 133/124/40
f 155/148/64 156/149/65 133/124/40
f 138/150/66 100/128/44 135/126/42
f 156/149/65 138/150/66 135/126/42
f 157/151/67 137/130/46 138/131/47
f 158/152/68 157/151/67 138/131/47
f 159/153/69 139/132/48 137/130/46
f 157/151/67 159/153/69 137/130/46
f 160/154/70 140/133/49 139/132/48
f 159/153/69 160/154/70 139/132/48
f 161/155/71 141/134/50 140/133/49
f 160/154/70 161/155/71 140/133/49
f 162/156/72 142/135/51 141/134/50
f 161/155/71 162/156/72 141/134/50
f 163/157/73 143/136/52 142/135/51
f 162/156/72 163/157/73 142/135/51
f 164/158/74 144/137/53 143/136/52
f 163/157/73 164/158/74 143/136/52
f 165/159/75 145/138/54 144/137/53
f 164/158/74 165/159/75 144/137/53
f 166/160/76 146/139/55 145/138/54
f 165/159/75 166/160/76 145/138/54
f 167/161/77 147/140/56 146/139/55
f 166/160/76 167/161/77 146/139/55
f 168/162/78 148/141/57 147/140/56
f 167/161/77 168/162/78 147/140/56
f 169/163/79 149/142/58 148/141/57
f 168/162/78 169/163/79 148/141/57
f 170/164/80 150/143/59 149/142/58
f 169/163/79 170/164/80 149/142/58
f 171/165/81 151/144/60 150/143/59
f 170/164/80 171/165/81 150/143/59
f 172/166/82 152/145/61 151/144/60
f 171/165/81 172/166/82 151/144/60
f 173/167/83 153/146/62 152/145/61
f 172/166/82 173/167/83 152/145/61
f 174/168/84 154/147/63 153/146/62
f 173/167/83 174/168/84 153/146/62
f 175/169/85 155/148/64 154/147/63
f 174/168/84 175/169/85 154/147/63
f 176/170/86 156/149/65 155/148/64
f 175/169/85 176/170/86 155/148/64
f 158/171/87 138/150/66 156/149/65
f 176/170/86 158/171/87 156/149/65
f 177/172/88 157/151/67 158/152/68
f 178/173/89 177/172/88 158/152/68
f 179/174/90 159/153/69 157/151/67
f 177/172/88 179/174/90 157/151/67
f 180/175/91 160/154/70 159/153/69
f 179/174/90 180/175/91 159/153/69
f 181/176/92 161/155/71 160/154/70
f 180/175/91 181/176/92 160/154/70
f 182/177/93 162/156/72 161/155/71
f 181/176/92 182/177/93 161/155/71
f 183/178/94 163/157/73 162/156/72
f 182/177/93 183/178/94 162/156/72
f 184/179/95 164/158/74 163/157/73
f 183/178/94 184/179/95 163/157/73
f 185/180/96 165/159/75 164/158/74
f 184/179/95 185/180/96 164/158/74
f 186/181/97 166/160/76 165/159/75
f 185/180/96 186/181/97 165/159/75
f 187/182/98 167/161/77 166/160/76
f 186/181/97 187/182/98 166/160/76
f 188/183/99 168/162/78 167/161/77
f 187/182/98 188/183/99 167/161/77
f 189/184/100 169/163/79 168/162/78
f 188/183/99 189/184/100 168/162/78
f 190/185/101 170/164/80 169/163/79
f 189/184/100 190/185/101 169/163/79
f 191/186/102 171/165/81 170/164/80
f 190/185/101 191/186/102 170/164/80
f 192/187/103 172/166/82 171/165/81
f 191/186/102 192/187/103 171/165/81
f 193/188/104 173/167/83 172/166/82
f 192/187/103 193/188/104 172/166/82
f 194/189/105 174/168/84 173/167/83
f 193/188/104 194/189/105 173/167/83
f 195/190/106 175/169/85 174/168/84
f 194/189/105 195/190/106 174/168/84
f 196/191/107 176/170/86 175/169/85
f 195/190/106 196/191/107 175/169/85
f 178/192/108 158/171/87 176/170/86
f 196/191/107 178/192/108 176/170/86
f 197/193/8 177/172/88 178/173/89
f 198/194/2 197/193/8 178/173/89
f 199/195/11 179/174/90 177/172/88
f 197/193/8 199/195/11 177/172/88
f 200/196/13 180/175/91 179/174/90
f 199/195/11 200/196/13 179/174/90
f 201/197/15 181/176/92 180/175/91
f 200/196/13 201/197/15 180/175/91
f 202/198/4 182/177/93 181/176/92
f 201/197/15 202/198/4 181/176/92
f 203/199/18 183/178/94 182/177/93
f 202/198/4 203/199/18 182/177/93
f 204/200/20 184/179/95 183/178/94
f 203/199/18 204/200/20 183/178/94
f 205/201/22 185/180/96 184/179/95
f 204/200/20 205/201/22 184/179/95
f 206/202/24 186/181/97 185/180/96
f 205/201/22 206/202/24 185/180/96
f 207/203/1 187/182/98 186/181/97
f 206/202/24 207/203/1 186/181/97
f 208/204/27 188/183/99 187/182/98
f 207/203/1 208/204/27 187/182/98
f 209/205/29 189/184/100 188/183/99
f 208/204/27 209/205/29 188/183/99
f 210/206/31 190/185/101 189/184/100
f 209/205/29 210/206/31 189/184/100
f 211/207/33 191/186/102 190/185/101
f 210/206/31 211/207/33 190/185/101
f 212/208/35 192/187/103 191/186/102
f 211/207/33 212/208/35 191/186/102
f 213/209/37 193/188/104 192/187/103
f 212/208/35 213/209/37 192/187/103
f 214/210/39 194/189/105 193/188/104
f 213/209/37 214/210/39 193/188/104
f 215/211/41 195/190/106 194/189/105
f 214/210/39 215/211/41 194/189/105
f 216/212/43 196/191/107 195/190/106
f 215/211/41 216/212/43 195/190/106
f 198/213/45 178/192/108 196/191/107
f 216/212/43 198/213/45 196/191/107
f 217/214/109 197/193/8 198/194/2
f 218/215/110 217/214/109 198/194/2
f 219/216/111 199/195/11 197/193/8
f 217/214/109 219/216/111 197/193/8
f 220/217/112 200/196/13 199/195/11
f 219/216/111 220/217/112 199/195/11
f 221/218/113 201/197/15 200/196/13
f 220/217/112 221/218/113 200/196/13
f 222/219/114 202/198/4 201/197/15
f 221/218/113 222/219/114 201/197/15
f 223/220/115 203/199/18 202/198/4
f 222/219/114 223/220/115 202/198/4
f 224/221/116 204/200/20 203/199/18
f 223/220/115 224/221/116 203/199/18
f 225/222/117 205/201/22 204/200/20
f 224/221/116 225/222/117 204/200/20
f 226/223/118 206/202/24 205/201/22
f 225/222/117 226/223/118 205/201/22
f 227/224/119 207/203/1 206/202/24
f 226/223/118 227/224/119 206/202/24
f 228/225/120 208/204/27 207/203/1
f 227/224/119 228/225/120 207/203/1
f 229/226/121 209/205/29 208/204/27
f 228/225/120 229/226/121 208/204/27
f 230/227/122 210/206/31 209/205/29
f 229/226/121 230/227/122 209/205/29
f 231/228/123 211/207/33 210/206/31
f 230/227/122 231/228/123 210/206/31
f 232/229/124 212/208/35 211/207/33
f 231/228/123 232/229/124 211/207/33
f 233/230/125 213/209/37 212/208/35
f 232/229/124 233/230/125 212/208/35
f 234/231/126 214/210/39 213/209/37
f 233/230/125 234/231/126 213/209/37
f 235/232/127 215/211/41 214/210/39
f 234/231/126 235/232/127 214/210/39
f 236/233/128 216/212/43 215/211/41
f 235/232/127 236/233/128 215/211/41
f 218/234/129 198/213/45 216/212/43
f 236/233/128 218/234/129 216/212/43
f 237/235/130 217/214/109 218/215/110
f 238/236/131 237/235/130 218/215/110
f 239/237/132 219/216/111 217/214/109
f 237/235/130 239/237/132 217/214/109
f 240/238/133 220/217/112 219/216/111
f 239/237/132 240/238/133 219/216/111
f 241/239/134 221/218/113 220/217/112
f 240/238/133 241/239/134 220/217/112
f 242/240/135 222/219/114 221/218/113
f 241/239/134 242/240/135 221/218/113
f 243/241/136 223/220/115 222/219/114
f 242/240/135 243/241/136 222/219/114
f 244/242/137 224/221/116 223/220/115
f 243/241/136 244/242/137 223/220/115
f 245/243/138 225/222/117 224/221/116
f 244/242/137 245/243/138 224/221/116
f 246/244/139 226/223/118 225/222/117
f 245/243/138 246/244/139 225/222/117
f 247/245/140 227/224/119 226/223/118
f 246/244/139 247/245/140 226/223/118
f 248/246/141 228/225/120 227/224/119
f 247/245/140 248/246/141 227/224/119
f 249/247/142 229/226/121 228/225/120
f 248/246/141 249/247/142 228/225/120
f 250/248/143 230/227/122 229/226/121
f 249/247/142 250/248/143 229/226/121
f 251/249/144 231/228/123 230/227/122
f 250/248/143 251/249/144 230/227/122
f 252/250/145 232/229/124 231/228/123
f 251/249/144 252/250/145 231/228/123
f 253/251/146 233/230/125 232/229/124
f 252/250/145 253/251/146 232/229/124
f 254/252/147 234/231/126 233/230/125
f 253/251/146 254/252/147 233/230/125
f 255/253/148 235/232/127 234/231/126
f 254/252/147 255/253/148 234/231/126
f 256/254/149 236/233/128 235/232/127
f 255/253/148 256/254/149 235/232/127
f 238/255/150 218/234/129 236/233/128
f 256/254/149 238/255/150 236/233/128
f 257/256/8 237/235/130 238/236/131
f 258/257/2 257/256/8 238/236/131
f 259/258/11 239/237/132 237/235/130
f 257/256/8 259/258/11 237/235/130
f 260/259/13 240/238/133 239/237/132
f 259/258/11 260/259/13 239/237/132
f 261/260/15 241/239/134 240/238/133
f 260/259/13 261/260/15 240/238/133
f 262/261/4 242/240/135 241/239/134
f 261/260/15 262/261/4 241/239/134
f 263/262/18 243/241/136 242/240/135
f 262/261/4 263/262/18 242/240/135
f 264/263/20 244/242/137 243/241/136
f 263/262/18 264/263/20 243/241/136
f 265/264/22 245/243/138 244/242/137
f 264/263/20 265/264/22 244/242/137
f 266/265/24 246/244/139 245/243/138
f 265/264/22 266/265/24 245/243/138
f 267/266/1 247/245/140 246/244/139
f 266/265/24 267/266/1 246/244/139
f 268/267/27 248/246/141 247/245/140
f 267/266/1 268/267/27 247/245/140
f 269/268/29 249/247/142 248/246/141
f 268/267/27 269/268/29 248/246/141
f 270/269/31 250/248/143 249/247/142
f 269/268/29 270/269/31 249/247/142
f 271/270/33 251/249/144 250/248/143
f 270/269/31 271/270/33 250/248/143
f 272/271/35 252/250/145 251/249/144
f 271/270/33 272/271/35 251/249/144
f 273/272/37 253/251/146 252/250/145
f 272/271/35 273/272/37 252/250/145
f 274/273/39 254/252/147 253/251/146
f 273/272/37 274/273/39 253/251/146
f 275/274/41 255/253/148 254/252/147
f 274/273/39 275/274/41 254/252/147
f 276/275/43 256/254/149 255/253/148
f 275/274/41 276/275/43 255/253/148
f 258/276/45 238/255/150 256/254/149
f 276/275/43 258/276/45 256/254/149
f 277/277/151 257/256/8 258/257/2
f 278/278/152 277/277/151 258/257/2
f 279/279/153 259/258/11 257/256/8
f 277/277/151 279/279/153 257/256/8
f 280/280/154 260/259/13 259/258/11
f 279/279/153 280/280/154 259/258/11
f 281/281/155 261/260/15 260/259/13
f 280/280/154 281/281/155 260/259/13
f 282/282/156 262/261/4 261/260/15
f 281/281/155 282/282/156 261/260/15
f 283/283/157 263/262/18 262/261/4
f 282/282/156 283/283/157 262/261/4
f 284/284/158 264/263/20 263/262/18
f 283/283/157 284/284/158 263/262/18
f 285/285/159 265/264/22 264/263/20
f 284/284/158 285/285/159 264/263/20
f 286/286/160 266/265/24 265/264/22
f 285/285/159 286/286/160 265/264/22
f 287/287/161 267/266/1 266/265/24
f 286/286/160 287/287/161 266/265/24
f 288/288/162 268/267/27 267/266/1
f 287/287/161 288/288/162 267/266/1
f 289/289/163 269/268/29 268/267/27
f 288/288/162 289/289/163 268/267/27
f 290/290/164 270/269/31 269/268/29
f 289/289/163 290/290/164 269/268/29
f 291/291/165 271/270/33 270/269/31
f 290/290/164 291/291/165 270/269/31
f 292/292/166 272/271/35 271/270/33
f 291/291/165 292/292/166 271/270/33
f 293/293/167 273/272/37 272/271/35
f 292/292/166 293/293/167 272/271/35
f 294/294/168 274/273/39 273/272/37
f 293/293/167 294/294/168 273/272/37
f 295/295/169 275/274/41 274/273/39
f 294/294/168 295/295/169 274/273/39
f 296/296/170 276/275/43 275/274/41
f 295/295/169 296/296/170 275/274/41
f 278/297/171 258/276/45 276/275/43
f 296/296/170 278/297/171 276/275/43
f 297/298/172 277/277/151 278/278/152
f 298/299/173 297/298/172 278/278/152
f 299/300/174 279/279/153 277/277/151
f 297/298/172 299/300/174 277/277/151
f 300/301/175 280/280/154 279/279/153
f 299/300/174 300/301/175 279/279/153
f 301/302/176 281/281/155 280/280/154
f 300/301/175 301/302/176 280/280/154
f 302/303/177 282/282/156 281/281/155
f 301/302/176 302/303/177 281/281/155
f 303/304/178 283/283/157 282/282/156
f 302/303/177 303/304/178 282/282/156
f 304/305/179 284/284/158 283/283/157
f 303/304/178 304/305/179 283/283/157
f 305/306/180 285/285/159 284/284/158
f 304/305/179 305/306/180 284/284/158
f 306/307/181 286/286/160 285/285/159
f 305/306/180 306/307/181 285/285/159
f 307/308/182 287/287/161 286/286/160
f 306/307/181 307/308/182 286/286/160
f 308/309/183 288/288/162 287/287/161
f 307/308/182 308/309/183 287/287/161
f 309/310/184 289/289/163 288/288/162
f 308/309/183 309/310/184 288/288/162
f 310/311/185 290/290/164 289/289/163
f 309/310/184 310/311/185 289/289/163
f 311/312/186 291/291/165 290/290/164
f 310/311/185 311/312/186 290/290/164
f 312/313/187 292/292/166 291/291/165
f 311/312/186 312/313/187 291/291/165
f 313/314/188 293/293/167 292/292/166
f 312/313/187 313/314/188 292/292/166
f 314/315/189 294/294/168 293/293/167
f 313/314/188 314/315/189 293/293/167
f 315/316/190 295/295/169 294/294/168
f 314/315/189 315/316/190 294/294/168
f 316/317/191 296/296/170 295/295/169
f 315/316/190 316/317/191 295/295/169
f 298/318/192 278/297/171 296/296/170
f 316/317/191 298/318/192 296/296/170
f 317/319/193 297/298/172 298/299/173
f 318/320/194 317/319/193 298/299/173
f 319/321/195 299/300/174 297/298/172
f 317/319/193 319/321/195 297/298/172
f 320/322/196 300/301/175 299/300/174
f 319/321/195 320/322/196 299/300/174
f 321/323/197 301/302/176 300/301/175
f 320/322/196 321/323/197 300/301/175
f 322/324/198 302/303/177 301/302/176
f 321/323/197 322/324/198 301/302/176
f 323/325/199 303/304/178 302/303/177
f 322/324/198 323/325/199 302/303/177
f 324/326/200 304/305/179 303/304/178
f 323/325/199 324/326/200 303/304/178
f 325/327/201 305/306/180 304/305/179
f 324/326/200 325/327/201 304/305/179
f 326/328/202 306/307/181 305/306/180
f 325/327/201 326/328/202 305/306/180
f 327/329/203 307/308/182 306/307/181
f 326/328/202 327/329/203 306/307/181
f 328/330/204 308/309/183 307/308/182
f 327/329/203 328/330/204 307/308/182
f 329/331/205 309/310/184 308/309/183
f 328/330/204 329/331/205 308/309/183
f 330/332/206 310/311/185 309/310/184
f 329/331/205 330/332/206 309/310/184
f 331/333/207 311/312/186 310/311/185
f 330/332/206 331/333/207 310/311/185
f 332/334/208 312/313/187 311/312/186
f 331/333/207 332/334/208 311/312/186
f 333/335/209 313/314/188 312/313/187
f 332/334/208 333/335/209 312/313/187
f 334/336/210 314/315/189 313/314/188
f 333/335/209 334/336/210 313/314/188
f 335/337/211 315/316/190 314/315/189
f 334/336/210 335/337/211 314/315/189
f 336/338/212 316/317/191 315/316/190
f 335/337/211 336/338/212 315/316/190
f 318/339/213 298/318/192 316/317/191
f 336/338/212 318/339/213 316/317/191
f 337/340/214 317/319/193 318/320/194
f 338/341/215 337/340/214 318/320/194
f 339/342/216 319/321/195 317/319/193
f 337/340/214 339/342/216 317/319/193
f 340/343/217 320/322/196 319/321/195
f 339/342/216 340/343/217 319/321/195
f 341/344/218 321/323/197 320/322/196
f 340/343/217 341/344/218 320/322/196
f 342/345/219 322/324/198 321/323/197
f 341/344/218 342/345/219 321/323/197
f 343/346/220 323/325/199 322/324/198
f 342/345/219 343/346/220 322/324/198
f 344/347/221 324/326/200 323/325/199
f 343/346/220 344/347/221 323/325/199
f 345/348/222 325/327/201 324/326/200
f 344/347/221 345/348/222 324/326/200
f 346/349/223 326/328/202 325/327/201
f 345/348/222 346/349/223 325/327/201
f 347/350/224 327/329/203 326/328/202
f 346/349/223 347/350/224 326/328/202
f 348/351/225 328/330/204 327/329/203
f 347/350/224 348/351/225 327/329/203
f 349/352/226 329/331/205 328/330/204
f 348/351/225 349/352/226 328/330/204
f 350/353/227 330/332/206 329/331/205
f 349/352/226 350/353/227 329/331/205
f 351/354/228 331/333/207 330/332/206
f 350/353/227 351/354/228 330/332/206
f 352/355/229 332/334/208 331/333/207
f 351/354/228 352/355/229 331/333/207
f 353/356/230 333/335/209 332/334/208
f 352/355/229 353/356/230 332/334/208
f 354/357/231 334/336/210 333/335/209
f 353/356/230 354/357/231 333/335/209
f 355/358/232 335/337/211 334/336/210
f 354/357/231 355/358/232 334/336/210
f 356/359/233 336/338/212 335/337/211
f 355/358/232 356/359/233 335/337/211
f 338/360/234 318/339/213 336/338/212
f 356/359/233 338/360/234 336/338/212
f 357/361/235 337/340/214 338/341/215
f 357/362/236 339/342/216 337/340/214
f 357/363/237 340/343/217 339/342/216
f 357/364/238 341/344/218 340/343/217
f 357/365/239 342/345/219 341/344/218
f 357/366/240 343/346/220 342/345/219
f 357/367/241 344/347/221 343/346/220
f 357/368/242 345/348/222 344/347/221
f 357/369/243 346/349/223 345/348/222
f 357/370/244 347/350/224 346/349/223
f 357/371/245 348/351/225 347/350/224
f 357/372/246 349/352/226 348/351/225
f 357/373/247 350/353/227 349/352/226
f 357/374/248 351/354/228 350/353/227
f 357/375/249 352/355/229 351/354/228
f 357/376/250 353/356/230 352/355/229
f 357/377/251 354/357/231 353/356/230
f 357/378/252 355/358/232 354/357/231
f 357/379/253 356/359/233 355/358/232
f 357/380/254 338/360/234 356/359/233
