# Procedurally generated by dev-env-utils/scripts/gen_decorative_lighting.py
# Half-shell wall wash sconce
mtllib sconce_halfshell.mtl
o sconce_halfshell
v 0.775000 0.325000 0.956250
v 0.225000 0.250000 0.956250
v 0.225000 0.325000 0.956250
v 0.775000 0.325000 0.956250
v 0.775000 0.250000 0.956250
v 0.225000 0.250000 0.956250
v 0.225000 0.325000 1.000000
v 0.775000 0.250000 1.000000
v 0.775000 0.325000 1.000000
v 0.225000 0.325000 1.000000
v 0.225000 0.250000 1.000000
v 0.775000 0.250000 1.000000
v 0.225000 0.325000 0.956250
v 0.225000 0.250000 1.000000
v 0.225000 0.325000 1.000000
v 0.225000 0.325000 0.956250
v 0.225000 0.250000 0.956250
v 0.225000 0.250000 1.000000
v 0.775000 0.325000 1.000000
v 0.775000 0.250000 0.956250
v 0.775000 0.325000 0.956250
v 0.775000 0.325000 1.000000
v 0.775000 0.250000 1.000000
v 0.775000 0.250000 0.956250
v 0.225000 0.325000 0.956250
v 0.775000 0.325000 1.000000
v 0.775000 0.325000 0.956250
v 0.225000 0.325000 0.956250
v 0.225000 0.325000 1.000000
v 0.775000 0.325000 1.000000
v 0.225000 0.250000 1.000000
v 0.775000 0.250000 0.956250
v 0.775000 0.250000 1.000000
v 0.225000 0.250000 1.000000
v 0.225000 0.250000 0.956250
v 0.775000 0.250000 0.956250
v 0.418750 0.275000 1.000000
v 0.297713 0.318750 0.959763
v 0.420311 0.275000 0.984149
v 0.418750 0.275000 1.000000
v 0.293750 0.318750 1.000000
v 0.297713 0.318750 0.959763
v 0.420311 0.275000 0.984149
v 0.309450 0.318750 0.921072
v 0.424935 0.275000 0.968907
v 0.420311 0.275000 0.984149
v 0.297713 0.318750 0.959763
v 0.309450 0.318750 0.921072
v 0.424935 0.275000 0.968907
v 0.328509 0.318750 0.885414
v 0.432443 0.275000 0.954860
v 0.424935 0.275000 0.968907
v 0.309450 0.318750 0.921072
v 0.328509 0.318750 0.885414
v 0.432443 0.275000 0.954860
v 0.354159 0.318750 0.854159
v 0.442548 0.275000 0.942548
v 0.432443 0.275000 0.954860
v 0.328509 0.318750 0.885414
v 0.354159 0.318750 0.854159
v 0.442548 0.275000 0.942548
v 0.385414 0.318750 0.828509
v 0.454860 0.275000 0.932443
v 0.442548 0.275000 0.942548
v 0.354159 0.318750 0.854159
v 0.385414 0.318750 0.828509
v 0.454860 0.275000 0.932443
v 0.421072 0.318750 0.809450
v 0.468907 0.275000 0.924935
v 0.454860 0.275000 0.932443
v 0.385414 0.318750 0.828509
v 0.421072 0.318750 0.809450
v 0.468907 0.275000 0.924935
v 0.459763 0.318750 0.797713
v 0.484149 0.275000 0.920311
v 0.468907 0.275000 0.924935
v 0.421072 0.318750 0.809450
v 0.459763 0.318750 0.797713
v 0.484149 0.275000 0.920311
v 0.500000 0.318750 0.793750
v 0.500000 0.275000 0.918750
v 0.484149 0.275000 0.920311
v 0.459763 0.318750 0.797713
v 0.500000 0.318750 0.793750
v 0.500000 0.275000 0.918750
v 0.540237 0.318750 0.797713
v 0.515851 0.275000 0.920311
v 0.500000 0.275000 0.918750
v 0.500000 0.318750 0.793750
v 0.540237 0.318750 0.797713
v 0.515851 0.275000 0.920311
v 0.578928 0.318750 0.809450
v 0.531093 0.275000 0.924935
v 0.515851 0.275000 0.920311
v 0.540237 0.318750 0.797713
v 0.578928 0.318750 0.809450
v 0.531093 0.275000 0.924935
v 0.614586 0.318750 0.828509
v 0.545140 0.275000 0.932443
v 0.531093 0.275000 0.924935
v 0.578928 0.318750 0.809450
v 0.614586 0.318750 0.828509
v 0.545140 0.275000 0.932443
v 0.645841 0.318750 0.854159
v 0.557452 0.275000 0.942548
v 0.545140 0.275000 0.932443
v 0.614586 0.318750 0.828509
v 0.645841 0.318750 0.854159
v 0.557452 0.275000 0.942548
v 0.671491 0.318750 0.885414
v 0.567557 0.275000 0.954860
v 0.557452 0.275000 0.942548
v 0.645841 0.318750 0.854159
v 0.671491 0.318750 0.885414
v 0.567557 0.275000 0.954860
v 0.690550 0.318750 0.921072
v 0.575065 0.275000 0.968907
v 0.567557 0.275000 0.954860
v 0.671491 0.318750 0.885414
v 0.690550 0.318750 0.921072
v 0.575065 0.275000 0.968907
v 0.702287 0.318750 0.959763
v 0.579689 0.275000 0.984149
v 0.575065 0.275000 0.968907
v 0.690550 0.318750 0.921072
v 0.702287 0.318750 0.959763
v 0.579689 0.275000 0.984149
v 0.706250 0.318750 1.000000
v 0.581250 0.275000 1.000000
v 0.579689 0.275000 0.984149
v 0.702287 0.318750 0.959763
v 0.706250 0.318750 1.000000
v 0.293750 0.318750 1.000000
v 0.211894 0.387500 0.942692
v 0.297713 0.318750 0.959763
v 0.293750 0.318750 1.000000
v 0.206250 0.387500 1.000000
v 0.211894 0.387500 0.942692
v 0.297713 0.318750 0.959763
v 0.228610 0.387500 0.887587
v 0.309450 0.318750 0.921072
v 0.297713 0.318750 0.959763
v 0.211894 0.387500 0.942692
v 0.228610 0.387500 0.887587
v 0.309450 0.318750 0.921072
v 0.255756 0.387500 0.836801
v 0.328509 0.318750 0.885414
v 0.309450 0.318750 0.921072
v 0.228610 0.387500 0.887587
v 0.255756 0.387500 0.836801
v 0.328509 0.318750 0.885414
v 0.292287 0.387500 0.792287
v 0.354159 0.318750 0.854159
v 0.328509 0.318750 0.885414
v 0.255756 0.387500 0.836801
v 0.292287 0.387500 0.792287
v 0.354159 0.318750 0.854159
v 0.336801 0.387500 0.755756
v 0.385414 0.318750 0.828509
v 0.354159 0.318750 0.854159
v 0.292287 0.387500 0.792287
v 0.336801 0.387500 0.755756
v 0.385414 0.318750 0.828509
v 0.387587 0.387500 0.728610
v 0.421072 0.318750 0.809450
v 0.385414 0.318750 0.828509
v 0.336801 0.387500 0.755756
v 0.387587 0.387500 0.728610
v 0.421072 0.318750 0.809450
v 0.442692 0.387500 0.711894
v 0.459763 0.318750 0.797713
v 0.421072 0.318750 0.809450
v 0.387587 0.387500 0.728610
v 0.442692 0.387500 0.711894
v 0.459763 0.318750 0.797713
v 0.500000 0.387500 0.706250
v 0.500000 0.318750 0.793750
v 0.459763 0.318750 0.797713
v 0.442692 0.387500 0.711894
v 0.500000 0.387500 0.706250
v 0.500000 0.318750 0.793750
v 0.557308 0.387500 0.711894
v 0.540237 0.318750 0.797713
v 0.500000 0.318750 0.793750
v 0.500000 0.387500 0.706250
v 0.557308 0.387500 0.711894
v 0.540237 0.318750 0.797713
v 0.612413 0.387500 0.728610
v 0.578928 0.318750 0.809450
v 0.540237 0.318750 0.797713
v 0.557308 0.387500 0.711894
v 0.612413 0.387500 0.728610
v 0.578928 0.318750 0.809450
v 0.663199 0.387500 0.755756
v 0.614586 0.318750 0.828509
v 0.578928 0.318750 0.809450
v 0.612413 0.387500 0.728610
v 0.663199 0.387500 0.755756
v 0.614586 0.318750 0.828509
v 0.707713 0.387500 0.792287
v 0.645841 0.318750 0.854159
v 0.614586 0.318750 0.828509
v 0.663199 0.387500 0.755756
v 0.707713 0.387500 0.792287
v 0.645841 0.318750 0.854159
v 0.744244 0.387500 0.836801
v 0.671491 0.318750 0.885414
v 0.645841 0.318750 0.854159
v 0.707713 0.387500 0.792287
v 0.744244 0.387500 0.836801
v 0.671491 0.318750 0.885414
v 0.771390 0.387500 0.887587
v 0.690550 0.318750 0.921072
v 0.671491 0.318750 0.885414
v 0.744244 0.387500 0.836801
v 0.771390 0.387500 0.887587
v 0.690550 0.318750 0.921072
v 0.788106 0.387500 0.942692
v 0.702287 0.318750 0.959763
v 0.690550 0.318750 0.921072
v 0.771390 0.387500 0.887587
v 0.788106 0.387500 0.942692
v 0.702287 0.318750 0.959763
v 0.793750 0.387500 1.000000
v 0.706250 0.318750 1.000000
v 0.702287 0.318750 0.959763
v 0.788106 0.387500 0.942692
v 0.793750 0.387500 1.000000
v 0.206250 0.387500 1.000000
v 0.168985 0.468750 0.934157
v 0.211894 0.387500 0.942692
v 0.206250 0.387500 1.000000
v 0.162500 0.468750 1.000000
v 0.168985 0.468750 0.934157
v 0.211894 0.387500 0.942692
v 0.188191 0.468750 0.870844
v 0.228610 0.387500 0.887587
v 0.211894 0.387500 0.942692
v 0.168985 0.468750 0.934157
v 0.188191 0.468750 0.870844
v 0.228610 0.387500 0.887587
v 0.219379 0.468750 0.812495
v 0.255756 0.387500 0.836801
v 0.228610 0.387500 0.887587
v 0.188191 0.468750 0.870844
v 0.219379 0.468750 0.812495
v 0.255756 0.387500 0.836801
v 0.261351 0.468750 0.761351
v 0.292287 0.387500 0.792287
v 0.255756 0.387500 0.836801
v 0.219379 0.468750 0.812495
v 0.261351 0.468750 0.761351
v 0.292287 0.387500 0.792287
v 0.312495 0.468750 0.719379
v 0.336801 0.387500 0.755756
v 0.292287 0.387500 0.792287
v 0.261351 0.468750 0.761351
v 0.312495 0.468750 0.719379
v 0.336801 0.387500 0.755756
v 0.370844 0.468750 0.688191
v 0.387587 0.387500 0.728610
v 0.336801 0.387500 0.755756
v 0.312495 0.468750 0.719379
v 0.370844 0.468750 0.688191
v 0.387587 0.387500 0.728610
v 0.434157 0.468750 0.668985
v 0.442692 0.387500 0.711894
v 0.387587 0.387500 0.728610
v 0.370844 0.468750 0.688191
v 0.434157 0.468750 0.668985
v 0.442692 0.387500 0.711894
v 0.500000 0.468750 0.662500
v 0.500000 0.387500 0.706250
v 0.442692 0.387500 0.711894
v 0.434157 0.468750 0.668985
v 0.500000 0.468750 0.662500
v 0.500000 0.387500 0.706250
v 0.565843 0.468750 0.668985
v 0.557308 0.387500 0.711894
v 0.500000 0.387500 0.706250
v 0.500000 0.468750 0.662500
v 0.565843 0.468750 0.668985
v 0.557308 0.387500 0.711894
v 0.629156 0.468750 0.688191
v 0.612413 0.387500 0.728610
v 0.557308 0.387500 0.711894
v 0.565843 0.468750 0.668985
v 0.629156 0.468750 0.688191
v 0.612413 0.387500 0.728610
v 0.687505 0.468750 0.719379
v 0.663199 0.387500 0.755756
v 0.612413 0.387500 0.728610
v 0.629156 0.468750 0.688191
v 0.687505 0.468750 0.719379
v 0.663199 0.387500 0.755756
v 0.738649 0.468750 0.761351
v 0.707713 0.387500 0.792287
v 0.663199 0.387500 0.755756
v 0.687505 0.468750 0.719379
v 0.738649 0.468750 0.761351
v 0.707713 0.387500 0.792287
v 0.780621 0.468750 0.812495
v 0.744244 0.387500 0.836801
v 0.707713 0.387500 0.792287
v 0.738649 0.468750 0.761351
v 0.780621 0.468750 0.812495
v 0.744244 0.387500 0.836801
v 0.811809 0.468750 0.870844
v 0.771390 0.387500 0.887587
v 0.744244 0.387500 0.836801
v 0.780621 0.468750 0.812495
v 0.811809 0.468750 0.870844
v 0.771390 0.387500 0.887587
v 0.831015 0.468750 0.934157
v 0.788106 0.387500 0.942692
v 0.771390 0.387500 0.887587
v 0.811809 0.468750 0.870844
v 0.831015 0.468750 0.934157
v 0.788106 0.387500 0.942692
v 0.837500 0.468750 1.000000
v 0.793750 0.387500 1.000000
v 0.788106 0.387500 0.942692
v 0.831015 0.468750 0.934157
v 0.837500 0.468750 1.000000
v 0.162500 0.468750 1.000000
v 0.156725 0.550000 0.931718
v 0.168985 0.468750 0.934157
v 0.162500 0.468750 1.000000
v 0.150000 0.550000 1.000000
v 0.156725 0.550000 0.931718
v 0.168985 0.468750 0.934157
v 0.176642 0.550000 0.866061
v 0.188191 0.468750 0.870844
v 0.168985 0.468750 0.934157
v 0.156725 0.550000 0.931718
v 0.176642 0.550000 0.866061
v 0.188191 0.468750 0.870844
v 0.208986 0.550000 0.805550
v 0.219379 0.468750 0.812495
v 0.188191 0.468750 0.870844
v 0.176642 0.550000 0.866061
v 0.208986 0.550000 0.805550
v 0.219379 0.468750 0.812495
v 0.252513 0.550000 0.752513
v 0.261351 0.468750 0.761351
v 0.219379 0.468750 0.812495
v 0.208986 0.550000 0.805550
v 0.252513 0.550000 0.752513
v 0.261351 0.468750 0.761351
v 0.305550 0.550000 0.708986
v 0.312495 0.468750 0.719379
v 0.261351 0.468750 0.761351
v 0.252513 0.550000 0.752513
v 0.305550 0.550000 0.708986
v 0.312495 0.468750 0.719379
v 0.366061 0.550000 0.676642
v 0.370844 0.468750 0.688191
v 0.312495 0.468750 0.719379
v 0.305550 0.550000 0.708986
v 0.366061 0.550000 0.676642
v 0.370844 0.468750 0.688191
v 0.431718 0.550000 0.656725
v 0.434157 0.468750 0.668985
v 0.370844 0.468750 0.688191
v 0.366061 0.550000 0.676642
v 0.431718 0.550000 0.656725
v 0.434157 0.468750 0.668985
v 0.500000 0.550000 0.650000
v 0.500000 0.468750 0.662500
v 0.434157 0.468750 0.668985
v 0.431718 0.550000 0.656725
v 0.500000 0.550000 0.650000
v 0.500000 0.468750 0.662500
v 0.568282 0.550000 0.656725
v 0.565843 0.468750 0.668985
v 0.500000 0.468750 0.662500
v 0.500000 0.550000 0.650000
v 0.568282 0.550000 0.656725
v 0.565843 0.468750 0.668985
v 0.633939 0.550000 0.676642
v 0.629156 0.468750 0.688191
v 0.565843 0.468750 0.668985
v 0.568282 0.550000 0.656725
v 0.633939 0.550000 0.676642
v 0.629156 0.468750 0.688191
v 0.694450 0.550000 0.708986
v 0.687505 0.468750 0.719379
v 0.629156 0.468750 0.688191
v 0.633939 0.550000 0.676642
v 0.694450 0.550000 0.708986
v 0.687505 0.468750 0.719379
v 0.747487 0.550000 0.752513
v 0.738649 0.468750 0.761351
v 0.687505 0.468750 0.719379
v 0.694450 0.550000 0.708986
v 0.747487 0.550000 0.752513
v 0.738649 0.468750 0.761351
v 0.791014 0.550000 0.805550
v 0.780621 0.468750 0.812495
v 0.738649 0.468750 0.761351
v 0.747487 0.550000 0.752513
v 0.791014 0.550000 0.805550
v 0.780621 0.468750 0.812495
v 0.823358 0.550000 0.866061
v 0.811809 0.468750 0.870844
v 0.780621 0.468750 0.812495
v 0.791014 0.550000 0.805550
v 0.823358 0.550000 0.866061
v 0.811809 0.468750 0.870844
v 0.843275 0.550000 0.931718
v 0.831015 0.468750 0.934157
v 0.811809 0.468750 0.870844
v 0.823358 0.550000 0.866061
v 0.843275 0.550000 0.931718
v 0.831015 0.468750 0.934157
v 0.850000 0.550000 1.000000
v 0.837500 0.468750 1.000000
v 0.831015 0.468750 0.934157
v 0.843275 0.550000 0.931718
v 0.850000 0.550000 1.000000
v 0.500000 0.275000 1.000000
v 0.418750 0.275000 1.000000
v 0.420311 0.275000 0.984149
v 0.500000 0.275000 1.000000
v 0.420311 0.275000 0.984149
v 0.424935 0.275000 0.968907
v 0.500000 0.275000 1.000000
v 0.424935 0.275000 0.968907
v 0.432443 0.275000 0.954860
v 0.500000 0.275000 1.000000
v 0.432443 0.275000 0.954860
v 0.442548 0.275000 0.942548
v 0.500000 0.275000 1.000000
v 0.442548 0.275000 0.942548
v 0.454860 0.275000 0.932443
v 0.500000 0.275000 1.000000
v 0.454860 0.275000 0.932443
v 0.468907 0.275000 0.924935
v 0.500000 0.275000 1.000000
v 0.468907 0.275000 0.924935
v 0.484149 0.275000 0.920311
v 0.500000 0.275000 1.000000
v 0.484149 0.275000 0.920311
v 0.500000 0.275000 0.918750
v 0.500000 0.275000 1.000000
v 0.500000 0.275000 0.918750
v 0.515851 0.275000 0.920311
v 0.500000 0.275000 1.000000
v 0.515851 0.275000 0.920311
v 0.531093 0.275000 0.924935
v 0.500000 0.275000 1.000000
v 0.531093 0.275000 0.924935
v 0.545140 0.275000 0.932443
v 0.500000 0.275000 1.000000
v 0.545140 0.275000 0.932443
v 0.557452 0.275000 0.942548
v 0.500000 0.275000 1.000000
v 0.557452 0.275000 0.942548
v 0.567557 0.275000 0.954860
v 0.500000 0.275000 1.000000
v 0.567557 0.275000 0.954860
v 0.575065 0.275000 0.968907
v 0.500000 0.275000 1.000000
v 0.575065 0.275000 0.968907
v 0.579689 0.275000 0.984149
v 0.500000 0.275000 1.000000
v 0.579689 0.275000 0.984149
v 0.581250 0.275000 1.000000
v 0.500000 0.275000 1.000000
v 0.418750 0.275000 1.000000
v 0.293750 0.318750 1.000000
v 0.500000 0.275000 1.000000
v 0.293750 0.318750 1.000000
v 0.206250 0.387500 1.000000
v 0.500000 0.275000 1.000000
v 0.206250 0.387500 1.000000
v 0.162500 0.468750 1.000000
v 0.500000 0.275000 1.000000
v 0.162500 0.468750 1.000000
v 0.150000 0.550000 1.000000
v 0.500000 0.275000 1.000000
v 0.150000 0.550000 1.000000
v 0.500000 0.550000 1.000000
v 0.500000 0.275000 1.000000
v 0.706250 0.318750 1.000000
v 0.581250 0.275000 1.000000
v 0.500000 0.275000 1.000000
v 0.793750 0.387500 1.000000
v 0.706250 0.318750 1.000000
v 0.500000 0.275000 1.000000
v 0.837500 0.468750 1.000000
v 0.793750 0.387500 1.000000
v 0.500000 0.275000 1.000000
v 0.850000 0.550000 1.000000
v 0.837500 0.468750 1.000000
v 0.500000 0.275000 1.000000
v 0.500000 0.550000 1.000000
v 0.850000 0.550000 1.000000
v 0.146875 0.550000 1.000000
v 0.153660 0.575000 0.931109
v 0.153660 0.550000 0.931109
v 0.146875 0.550000 1.000000
v 0.146875 0.575000 1.000000
v 0.153660 0.575000 0.931109
v 0.153660 0.550000 0.931109
v 0.173755 0.575000 0.864865
v 0.173755 0.550000 0.864865
v 0.153660 0.550000 0.931109
v 0.153660 0.575000 0.931109
v 0.173755 0.575000 0.864865
v 0.173755 0.550000 0.864865
v 0.206387 0.575000 0.803814
v 0.206387 0.550000 0.803814
v 0.173755 0.550000 0.864865
v 0.173755 0.575000 0.864865
v 0.206387 0.575000 0.803814
v 0.206387 0.550000 0.803814
v 0.250303 0.575000 0.750303
v 0.250303 0.550000 0.750303
v 0.206387 0.550000 0.803814
v 0.206387 0.575000 0.803814
v 0.250303 0.575000 0.750303
v 0.250303 0.550000 0.750303
v 0.303814 0.575000 0.706387
v 0.303814 0.550000 0.706387
v 0.250303 0.550000 0.750303
v 0.250303 0.575000 0.750303
v 0.303814 0.575000 0.706387
v 0.303814 0.550000 0.706387
v 0.364865 0.575000 0.673755
v 0.364865 0.550000 0.673755
v 0.303814 0.550000 0.706387
v 0.303814 0.575000 0.706387
v 0.364865 0.575000 0.673755
v 0.364865 0.550000 0.673755
v 0.431109 0.575000 0.653660
v 0.431109 0.550000 0.653660
v 0.364865 0.550000 0.673755
v 0.364865 0.575000 0.673755
v 0.431109 0.575000 0.653660
v 0.431109 0.550000 0.653660
v 0.500000 0.575000 0.646875
v 0.500000 0.550000 0.646875
v 0.431109 0.550000 0.653660
v 0.431109 0.575000 0.653660
v 0.500000 0.575000 0.646875
v 0.500000 0.550000 0.646875
v 0.568891 0.575000 0.653660
v 0.568891 0.550000 0.653660
v 0.500000 0.550000 0.646875
v 0.500000 0.575000 0.646875
v 0.568891 0.575000 0.653660
v 0.568891 0.550000 0.653660
v 0.635135 0.575000 0.673755
v 0.635135 0.550000 0.673755
v 0.568891 0.550000 0.653660
v 0.568891 0.575000 0.653660
v 0.635135 0.575000 0.673755
v 0.635135 0.550000 0.673755
v 0.696186 0.575000 0.706387
v 0.696186 0.550000 0.706387
v 0.635135 0.550000 0.673755
v 0.635135 0.575000 0.673755
v 0.696186 0.575000 0.706387
v 0.696186 0.550000 0.706387
v 0.749697 0.575000 0.750303
v 0.749697 0.550000 0.750303
v 0.696186 0.550000 0.706387
v 0.696186 0.575000 0.706387
v 0.749697 0.575000 0.750303
v 0.749697 0.550000 0.750303
v 0.793613 0.575000 0.803814
v 0.793613 0.550000 0.803814
v 0.749697 0.550000 0.750303
v 0.749697 0.575000 0.750303
v 0.793613 0.575000 0.803814
v 0.793613 0.550000 0.803814
v 0.826245 0.575000 0.864865
v 0.826245 0.550000 0.864865
v 0.793613 0.550000 0.803814
v 0.793613 0.575000 0.803814
v 0.826245 0.575000 0.864865
v 0.826245 0.550000 0.864865
v 0.846340 0.575000 0.931109
v 0.846340 0.550000 0.931109
v 0.826245 0.550000 0.864865
v 0.826245 0.575000 0.864865
v 0.846340 0.575000 0.931109
v 0.846340 0.550000 0.931109
v 0.853125 0.575000 1.000000
v 0.853125 0.550000 1.000000
v 0.846340 0.550000 0.931109
v 0.846340 0.575000 0.931109
v 0.853125 0.575000 1.000000
v 0.500000 0.550000 1.000000
v 0.146875 0.550000 1.000000
v 0.146875 0.575000 1.000000
v 0.500000 0.550000 1.000000
v 0.146875 0.575000 1.000000
v 0.500000 0.575000 1.000000
v 0.500000 0.550000 1.000000
v 0.853125 0.575000 1.000000
v 0.853125 0.550000 1.000000
v 0.500000 0.550000 1.000000
v 0.500000 0.575000 1.000000
v 0.853125 0.575000 1.000000
vt 0.062500 0.937500
vt 0.937500 0.062500
vt 0.937500 0.937500
vt 0.062500 0.937500
vt 0.062500 0.062500
vt 0.937500 0.062500
vt 0.062500 0.937500
vt 0.937500 0.062500
vt 0.937500 0.937500
vt 0.062500 0.937500
vt 0.062500 0.062500
vt 0.937500 0.062500
vt 0.062500 0.937500
vt 0.937500 0.062500
vt 0.937500 0.937500
vt 0.062500 0.937500
vt 0.062500 0.062500
vt 0.937500 0.062500
vt 0.062500 0.937500
vt 0.937500 0.062500
vt 0.937500 0.937500
vt 0.062500 0.937500
vt 0.062500 0.062500
vt 0.937500 0.062500
vt 0.062500 0.937500
vt 0.937500 0.062500
vt 0.937500 0.937500
vt 0.062500 0.937500
vt 0.062500 0.062500
vt 0.937500 0.062500
vt 0.062500 0.937500
vt 0.937500 0.062500
vt 0.937500 0.937500
vt 0.062500 0.937500
vt 0.062500 0.062500
vt 0.937500 0.062500
vt 0.031250 0.968750
vt 0.089844 0.734375
vt 0.089844 0.968750
vt 0.031250 0.968750
vt 0.031250 0.734375
vt 0.089844 0.734375
vt 0.089844 0.968750
vt 0.148438 0.734375
vt 0.148438 0.968750
vt 0.089844 0.968750
vt 0.089844 0.734375
vt 0.148438 0.734375
vt 0.148438 0.968750
vt 0.207031 0.734375
vt 0.207031 0.968750
vt 0.148438 0.968750
vt 0.148438 0.734375
vt 0.207031 0.734375
vt 0.207031 0.968750
vt 0.265625 0.734375
vt 0.265625 0.968750
vt 0.207031 0.968750
vt 0.207031 0.734375
vt 0.265625 0.734375
vt 0.265625 0.968750
vt 0.324219 0.734375
vt 0.324219 0.968750
vt 0.265625 0.968750
vt 0.265625 0.734375
vt 0.324219 0.734375
vt 0.324219 0.968750
vt 0.382812 0.734375
vt 0.382812 0.968750
vt 0.324219 0.968750
vt 0.324219 0.734375
vt 0.382812 0.734375
vt 0.382812 0.968750
vt 0.441406 0.734375
vt 0.441406 0.968750
vt 0.382812 0.968750
vt 0.382812 0.734375
vt 0.441406 0.734375
vt 0.441406 0.968750
vt 0.500000 0.734375
vt 0.500000 0.968750
vt 0.441406 0.968750
vt 0.441406 0.734375
vt 0.500000 0.734375
vt 0.500000 0.968750
vt 0.558594 0.734375
vt 0.558594 0.968750
vt 0.500000 0.968750
vt 0.500000 0.734375
vt 0.558594 0.734375
vt 0.558594 0.968750
vt 0.617188 0.734375
vt 0.617188 0.968750
vt 0.558594 0.968750
vt 0.558594 0.734375
vt 0.617188 0.734375
vt 0.617188 0.968750
vt 0.675781 0.734375
vt 0.675781 0.968750
vt 0.617188 0.968750
vt 0.617188 0.734375
vt 0.675781 0.734375
vt 0.675781 0.968750
vt 0.734375 0.734375
vt 0.734375 0.968750
vt 0.675781 0.968750
vt 0.675781 0.734375
vt 0.734375 0.734375
vt 0.734375 0.968750
vt 0.792969 0.734375
vt 0.792969 0.968750
vt 0.734375 0.968750
vt 0.734375 0.734375
vt 0.792969 0.734375
vt 0.792969 0.968750
vt 0.851562 0.734375
vt 0.851562 0.968750
vt 0.792969 0.968750
vt 0.792969 0.734375
vt 0.851562 0.734375
vt 0.851562 0.968750
vt 0.910156 0.734375
vt 0.910156 0.968750
vt 0.851562 0.968750
vt 0.851562 0.734375
vt 0.910156 0.734375
vt 0.910156 0.968750
vt 0.968750 0.734375
vt 0.968750 0.968750
vt 0.910156 0.968750
vt 0.910156 0.734375
vt 0.968750 0.734375
vt 0.031250 0.734375
vt 0.089844 0.500000
vt 0.089844 0.734375
vt 0.031250 0.734375
vt 0.031250 0.500000
vt 0.089844 0.500000
vt 0.089844 0.734375
vt 0.148438 0.500000
vt 0.148438 0.734375
vt 0.089844 0.734375
vt 0.089844 0.500000
vt 0.148438 0.500000
vt 0.148438 0.734375
vt 0.207031 0.500000
vt 0.207031 0.734375
vt 0.148438 0.734375
vt 0.148438 0.500000
vt 0.207031 0.500000
vt 0.207031 0.734375
vt 0.265625 0.500000
vt 0.265625 0.734375
vt 0.207031 0.734375
vt 0.207031 0.500000
vt 0.265625 0.500000
vt 0.265625 0.734375
vt 0.324219 0.500000
vt 0.324219 0.734375
vt 0.265625 0.734375
vt 0.265625 0.500000
vt 0.324219 0.500000
vt 0.324219 0.734375
vt 0.382812 0.500000
vt 0.382812 0.734375
vt 0.324219 0.734375
vt 0.324219 0.500000
vt 0.382812 0.500000
vt 0.382812 0.734375
vt 0.441406 0.500000
vt 0.441406 0.734375
vt 0.382812 0.734375
vt 0.382812 0.500000
vt 0.441406 0.500000
vt 0.441406 0.734375
vt 0.500000 0.500000
vt 0.500000 0.734375
vt 0.441406 0.734375
vt 0.441406 0.500000
vt 0.500000 0.500000
vt 0.500000 0.734375
vt 0.558594 0.500000
vt 0.558594 0.734375
vt 0.500000 0.734375
vt 0.500000 0.500000
vt 0.558594 0.500000
vt 0.558594 0.734375
vt 0.617188 0.500000
vt 0.617188 0.734375
vt 0.558594 0.734375
vt 0.558594 0.500000
vt 0.617188 0.500000
vt 0.617188 0.734375
vt 0.675781 0.500000
vt 0.675781 0.734375
vt 0.617188 0.734375
vt 0.617188 0.500000
vt 0.675781 0.500000
vt 0.675781 0.734375
vt 0.734375 0.500000
vt 0.734375 0.734375
vt 0.675781 0.734375
vt 0.675781 0.500000
vt 0.734375 0.500000
vt 0.734375 0.734375
vt 0.792969 0.500000
vt 0.792969 0.734375
vt 0.734375 0.734375
vt 0.734375 0.500000
vt 0.792969 0.500000
vt 0.792969 0.734375
vt 0.851562 0.500000
vt 0.851562 0.734375
vt 0.792969 0.734375
vt 0.792969 0.500000
vt 0.851562 0.500000
vt 0.851562 0.734375
vt 0.910156 0.500000
vt 0.910156 0.734375
vt 0.851562 0.734375
vt 0.851562 0.500000
vt 0.910156 0.500000
vt 0.910156 0.734375
vt 0.968750 0.500000
vt 0.968750 0.734375
vt 0.910156 0.734375
vt 0.910156 0.500000
vt 0.968750 0.500000
vt 0.031250 0.500000
vt 0.089844 0.265625
vt 0.089844 0.500000
vt 0.031250 0.500000
vt 0.031250 0.265625
vt 0.089844 0.265625
vt 0.089844 0.500000
vt 0.148438 0.265625
vt 0.148438 0.500000
vt 0.089844 0.500000
vt 0.089844 0.265625
vt 0.148438 0.265625
vt 0.148438 0.500000
vt 0.207031 0.265625
vt 0.207031 0.500000
vt 0.148438 0.500000
vt 0.148438 0.265625
vt 0.207031 0.265625
vt 0.207031 0.500000
vt 0.265625 0.265625
vt 0.265625 0.500000
vt 0.207031 0.500000
vt 0.207031 0.265625
vt 0.265625 0.265625
vt 0.265625 0.500000
vt 0.324219 0.265625
vt 0.324219 0.500000
vt 0.265625 0.500000
vt 0.265625 0.265625
vt 0.324219 0.265625
vt 0.324219 0.500000
vt 0.382812 0.265625
vt 0.382812 0.500000
vt 0.324219 0.500000
vt 0.324219 0.265625
vt 0.382812 0.265625
vt 0.382812 0.500000
vt 0.441406 0.265625
vt 0.441406 0.500000
vt 0.382812 0.500000
vt 0.382812 0.265625
vt 0.441406 0.265625
vt 0.441406 0.500000
vt 0.500000 0.265625
vt 0.500000 0.500000
vt 0.441406 0.500000
vt 0.441406 0.265625
vt 0.500000 0.265625
vt 0.500000 0.500000
vt 0.558594 0.265625
vt 0.558594 0.500000
vt 0.500000 0.500000
vt 0.500000 0.265625
vt 0.558594 0.265625
vt 0.558594 0.500000
vt 0.617188 0.265625
vt 0.617188 0.500000
vt 0.558594 0.500000
vt 0.558594 0.265625
vt 0.617188 0.265625
vt 0.617188 0.500000
vt 0.675781 0.265625
vt 0.675781 0.500000
vt 0.617188 0.500000
vt 0.617188 0.265625
vt 0.675781 0.265625
vt 0.675781 0.500000
vt 0.734375 0.265625
vt 0.734375 0.500000
vt 0.675781 0.500000
vt 0.675781 0.265625
vt 0.734375 0.265625
vt 0.734375 0.500000
vt 0.792969 0.265625
vt 0.792969 0.500000
vt 0.734375 0.500000
vt 0.734375 0.265625
vt 0.792969 0.265625
vt 0.792969 0.500000
vt 0.851562 0.265625
vt 0.851562 0.500000
vt 0.792969 0.500000
vt 0.792969 0.265625
vt 0.851562 0.265625
vt 0.851562 0.500000
vt 0.910156 0.265625
vt 0.910156 0.500000
vt 0.851562 0.500000
vt 0.851562 0.265625
vt 0.910156 0.265625
vt 0.910156 0.500000
vt 0.968750 0.265625
vt 0.968750 0.500000
vt 0.910156 0.500000
vt 0.910156 0.265625
vt 0.968750 0.265625
vt 0.031250 0.265625
vt 0.089844 0.031250
vt 0.089844 0.265625
vt 0.031250 0.265625
vt 0.031250 0.031250
vt 0.089844 0.031250
vt 0.089844 0.265625
vt 0.148438 0.031250
vt 0.148438 0.265625
vt 0.089844 0.265625
vt 0.089844 0.031250
vt 0.148438 0.031250
vt 0.148438 0.265625
vt 0.207031 0.031250
vt 0.207031 0.265625
vt 0.148438 0.265625
vt 0.148438 0.031250
vt 0.207031 0.031250
vt 0.207031 0.265625
vt 0.265625 0.031250
vt 0.265625 0.265625
vt 0.207031 0.265625
vt 0.207031 0.031250
vt 0.265625 0.031250
vt 0.265625 0.265625
vt 0.324219 0.031250
vt 0.324219 0.265625
vt 0.265625 0.265625
vt 0.265625 0.031250
vt 0.324219 0.031250
vt 0.324219 0.265625
vt 0.382812 0.031250
vt 0.382812 0.265625
vt 0.324219 0.265625
vt 0.324219 0.031250
vt 0.382812 0.031250
vt 0.382812 0.265625
vt 0.441406 0.031250
vt 0.441406 0.265625
vt 0.382812 0.265625
vt 0.382812 0.031250
vt 0.441406 0.031250
vt 0.441406 0.265625
vt 0.500000 0.031250
vt 0.500000 0.265625
vt 0.441406 0.265625
vt 0.441406 0.031250
vt 0.500000 0.031250
vt 0.500000 0.265625
vt 0.558594 0.031250
vt 0.558594 0.265625
vt 0.500000 0.265625
vt 0.500000 0.031250
vt 0.558594 0.031250
vt 0.558594 0.265625
vt 0.617188 0.031250
vt 0.617188 0.265625
vt 0.558594 0.265625
vt 0.558594 0.031250
vt 0.617188 0.031250
vt 0.617188 0.265625
vt 0.675781 0.031250
vt 0.675781 0.265625
vt 0.617188 0.265625
vt 0.617188 0.031250
vt 0.675781 0.031250
vt 0.675781 0.265625
vt 0.734375 0.031250
vt 0.734375 0.265625
vt 0.675781 0.265625
vt 0.675781 0.031250
vt 0.734375 0.031250
vt 0.734375 0.265625
vt 0.792969 0.031250
vt 0.792969 0.265625
vt 0.734375 0.265625
vt 0.734375 0.031250
vt 0.792969 0.031250
vt 0.792969 0.265625
vt 0.851562 0.031250
vt 0.851562 0.265625
vt 0.792969 0.265625
vt 0.792969 0.031250
vt 0.851562 0.031250
vt 0.851562 0.265625
vt 0.910156 0.031250
vt 0.910156 0.265625
vt 0.851562 0.265625
vt 0.851562 0.031250
vt 0.910156 0.031250
vt 0.910156 0.265625
vt 0.968750 0.031250
vt 0.968750 0.265625
vt 0.910156 0.265625
vt 0.910156 0.031250
vt 0.968750 0.031250
vt 0.500000 0.500000
vt 0.062500 0.500000
vt 0.070906 0.585352
vt 0.500000 0.500000
vt 0.070906 0.585352
vt 0.095803 0.667424
vt 0.500000 0.500000
vt 0.095803 0.667424
vt 0.136232 0.743062
vt 0.500000 0.500000
vt 0.136232 0.743062
vt 0.190641 0.809359
vt 0.500000 0.500000
vt 0.190641 0.809359
vt 0.256938 0.863768
vt 0.500000 0.500000
vt 0.256938 0.863768
vt 0.332576 0.904197
vt 0.500000 0.500000
vt 0.332576 0.904197
vt 0.414648 0.929094
vt 0.500000 0.500000
vt 0.414648 0.929094
vt 0.500000 0.937500
vt 0.500000 0.500000
vt 0.500000 0.937500
vt 0.585352 0.929094
vt 0.500000 0.500000
vt 0.585352 0.929094
vt 0.667424 0.904197
vt 0.500000 0.500000
vt 0.667424 0.904197
vt 0.743062 0.863768
vt 0.500000 0.500000
vt 0.743062 0.863768
vt 0.809359 0.809359
vt 0.500000 0.500000
vt 0.809359 0.809359
vt 0.863768 0.743062
vt 0.500000 0.500000
vt 0.863768 0.743062
vt 0.904197 0.667424
vt 0.500000 0.500000
vt 0.904197 0.667424
vt 0.929094 0.585352
vt 0.500000 0.500000
vt 0.929094 0.585352
vt 0.937500 0.500000
vt 0.062500 0.968750
vt 0.875000 0.968750
vt 0.875000 0.819602
vt 0.062500 0.968750
vt 0.875000 0.819602
vt 0.875000 0.585227
vt 0.062500 0.968750
vt 0.875000 0.585227
vt 0.875000 0.308239
vt 0.062500 0.968750
vt 0.875000 0.308239
vt 0.875000 0.031250
vt 0.062500 0.968750
vt 0.875000 0.031250
vt 0.062500 0.031250
vt 0.062500 0.968750
vt 0.875000 0.819602
vt 0.875000 0.968750
vt 0.062500 0.968750
vt 0.875000 0.585227
vt 0.875000 0.819602
vt 0.062500 0.968750
vt 0.875000 0.308239
vt 0.875000 0.585227
vt 0.062500 0.968750
vt 0.875000 0.031250
vt 0.875000 0.308239
vt 0.062500 0.968750
vt 0.062500 0.031250
vt 0.875000 0.031250
vt 0.031250 0.968750
vt 0.089844 0.031250
vt 0.089844 0.968750
vt 0.031250 0.968750
vt 0.031250 0.031250
vt 0.089844 0.031250
vt 0.089844 0.968750
vt 0.148438 0.031250
vt 0.148438 0.968750
vt 0.089844 0.968750
vt 0.089844 0.031250
vt 0.148438 0.031250
vt 0.148438 0.968750
vt 0.207031 0.031250
vt 0.207031 0.968750
vt 0.148438 0.968750
vt 0.148438 0.031250
vt 0.207031 0.031250
vt 0.207031 0.968750
vt 0.265625 0.031250
vt 0.265625 0.968750
vt 0.207031 0.968750
vt 0.207031 0.031250
vt 0.265625 0.031250
vt 0.265625 0.968750
vt 0.324219 0.031250
vt 0.324219 0.968750
vt 0.265625 0.968750
vt 0.265625 0.031250
vt 0.324219 0.031250
vt 0.324219 0.968750
vt 0.382812 0.031250
vt 0.382812 0.968750
vt 0.324219 0.968750
vt 0.324219 0.031250
vt 0.382812 0.031250
vt 0.382812 0.968750
vt 0.441406 0.031250
vt 0.441406 0.968750
vt 0.382812 0.968750
vt 0.382812 0.031250
vt 0.441406 0.031250
vt 0.441406 0.968750
vt 0.500000 0.031250
vt 0.500000 0.968750
vt 0.441406 0.968750
vt 0.441406 0.031250
vt 0.500000 0.031250
vt 0.500000 0.968750
vt 0.558594 0.031250
vt 0.558594 0.968750
vt 0.500000 0.968750
vt 0.500000 0.031250
vt 0.558594 0.031250
vt 0.558594 0.968750
vt 0.617188 0.031250
vt 0.617188 0.968750
vt 0.558594 0.968750
vt 0.558594 0.031250
vt 0.617188 0.031250
vt 0.617188 0.968750
vt 0.675781 0.031250
vt 0.675781 0.968750
vt 0.617188 0.968750
vt 0.617188 0.031250
vt 0.675781 0.031250
vt 0.675781 0.968750
vt 0.734375 0.031250
vt 0.734375 0.968750
vt 0.675781 0.968750
vt 0.675781 0.031250
vt 0.734375 0.031250
vt 0.734375 0.968750
vt 0.792969 0.031250
vt 0.792969 0.968750
vt 0.734375 0.968750
vt 0.734375 0.031250
vt 0.792969 0.031250
vt 0.792969 0.968750
vt 0.851562 0.031250
vt 0.851562 0.968750
vt 0.792969 0.968750
vt 0.792969 0.031250
vt 0.851562 0.031250
vt 0.851562 0.968750
vt 0.910156 0.031250
vt 0.910156 0.968750
vt 0.851562 0.968750
vt 0.851562 0.031250
vt 0.910156 0.031250
vt 0.910156 0.968750
vt 0.968750 0.031250
vt 0.968750 0.968750
vt 0.910156 0.968750
vt 0.910156 0.031250
vt 0.968750 0.031250
vt 0.062500 0.968750
vt 0.875000 0.968750
vt 0.875000 0.031250
vt 0.062500 0.968750
vt 0.875000 0.031250
vt 0.062500 0.031250
vt 0.062500 0.968750
vt 0.875000 0.031250
vt 0.875000 0.968750
vt 0.062500 0.968750
vt 0.062500 0.031250
vt 0.875000 0.031250
vn -0.000000 0.000000 -1.000000
vn 0.000000 -0.000000 -1.000000
vn -0.000000 0.000000 1.000000
vn 0.000000 0.000000 1.000000
vn -1.000000 0.000000 0.000000
vn -1.000000 0.000000 0.000000
vn 1.000000 0.000000 0.000000
vn 1.000000 0.000000 0.000000
vn 0.000000 1.000000 0.000000
vn 0.000000 1.000000 0.000000
vn 0.000000 -1.000000 0.000000
vn 0.000000 -1.000000 0.000000
vn -0.330176 -0.943359 -0.032519
vn -0.330176 -0.943359 -0.032519
vn -0.317487 -0.943359 -0.096309
vn -0.317487 -0.943359 -0.096309
vn -0.292598 -0.943359 -0.156397
vn -0.292598 -0.943359 -0.156397
vn -0.256464 -0.943359 -0.210475
vn -0.256464 -0.943359 -0.210475
vn -0.210475 -0.943359 -0.256464
vn -0.210475 -0.943359 -0.256464
vn -0.156397 -0.943359 -0.292598
vn -0.156397 -0.943359 -0.292598
vn -0.096309 -0.943359 -0.317487
vn -0.096309 -0.943359 -0.317487
vn -0.032519 -0.943359 -0.330176
vn -0.032519 -0.943359 -0.330176
vn 0.032519 -0.943359 -0.330176
vn 0.032519 -0.943359 -0.330176
vn 0.096309 -0.943359 -0.317487
vn 0.096309 -0.943359 -0.317487
vn 0.156397 -0.943359 -0.292598
vn 0.156397 -0.943359 -0.292598
vn 0.210475 -0.943359 -0.256464
vn 0.210475 -0.943359 -0.256464
vn 0.256464 -0.943359 -0.210475
vn 0.256464 -0.943359 -0.210475
vn 0.292598 -0.943359 -0.156397
vn 0.292598 -0.943359 -0.156397
vn 0.317487 -0.943359 -0.096309
vn 0.317487 -0.943359 -0.096309
vn 0.330176 -0.943359 -0.032519
vn 0.330176 -0.943359 -0.032519
vn -0.616681 -0.784867 -0.060738
vn -0.616681 -0.784867 -0.060738
vn -0.592982 -0.784867 -0.179879
vn -0.592982 -0.784867 -0.179879
vn -0.546496 -0.784867 -0.292108
vn -0.546496 -0.784867 -0.292108
vn -0.479007 -0.784867 -0.393111
vn -0.479007 -0.784867 -0.393111
vn -0.393111 -0.784867 -0.479007
vn -0.393111 -0.784867 -0.479007
vn -0.292108 -0.784867 -0.546496
vn -0.292108 -0.784867 -0.546496
vn -0.179879 -0.784867 -0.592982
vn -0.179879 -0.784867 -0.592982
vn -0.060738 -0.784867 -0.616681
vn -0.060738 -0.784867 -0.616681
vn 0.060738 -0.784867 -0.616681
vn 0.060738 -0.784867 -0.616681
vn 0.179879 -0.784867 -0.592982
vn 0.179879 -0.784867 -0.592982
vn 0.292108 -0.784867 -0.546496
vn 0.292108 -0.784867 -0.546496
vn 0.393111 -0.784867 -0.479007
vn 0.393111 -0.784867 -0.479007
vn 0.479007 -0.784867 -0.393111
vn 0.479007 -0.784867 -0.393111
vn 0.546496 -0.784867 -0.292108
vn 0.546496 -0.784867 -0.292108
vn 0.592982 -0.784867 -0.179879
vn 0.592982 -0.784867 -0.179879
vn 0.616681 -0.784867 -0.060738
vn 0.616681 -0.784867 -0.060738
vn -0.877179 -0.472327 -0.086395
vn -0.877179 -0.472327 -0.086395
vn -0.843470 -0.472327 -0.255864
vn -0.843470 -0.472327 -0.255864
vn -0.777346 -0.472327 -0.415500
vn -0.777346 -0.472327 -0.415500
vn -0.681349 -0.472327 -0.559169
vn -0.681349 -0.472327 -0.559169
vn -0.559169 -0.472327 -0.681349
vn -0.559169 -0.472327 -0.681349
vn -0.415500 -0.472327 -0.777346
vn -0.415500 -0.472327 -0.777346
vn -0.255864 -0.472327 -0.843470
vn -0.255864 -0.472327 -0.843470
vn -0.086395 -0.472327 -0.877179
vn -0.086395 -0.472327 -0.877179
vn 0.086395 -0.472327 -0.877179
vn 0.086395 -0.472327 -0.877179
vn 0.255864 -0.472327 -0.843470
vn 0.255864 -0.472327 -0.843470
vn 0.415500 -0.472327 -0.777346
vn 0.415500 -0.472327 -0.777346
vn 0.559169 -0.472327 -0.681349
vn 0.559169 -0.472327 -0.681349
vn 0.681349 -0.472327 -0.559169
vn 0.681349 -0.472327 -0.559169
vn 0.777346 -0.472327 -0.415500
vn 0.777346 -0.472327 -0.415500
vn 0.843470 -0.472327 -0.255864
vn 0.843470 -0.472327 -0.255864
vn 0.877179 -0.472327 -0.086395
vn 0.877179 -0.472327 -0.086395
vn -0.983722 -0.151342 -0.096888
vn -0.983722 -0.151342 -0.096888
vn -0.945918 -0.151342 -0.286941
vn -0.945918 -0.151342 -0.286941
vn -0.871763 -0.151342 -0.465967
vn -0.871763 -0.151342 -0.465967
vn -0.764107 -0.151342 -0.627086
vn -0.764107 -0.151342 -0.627086
vn -0.627086 -0.151342 -0.764107
vn -0.627086 -0.151342 -0.764107
vn -0.465967 -0.151342 -0.871763
vn -0.465967 -0.151342 -0.871763
vn -0.286941 -0.151342 -0.945918
vn -0.286941 -0.151342 -0.945918
vn -0.096888 -0.151342 -0.983722
vn -0.096888 -0.151342 -0.983722
vn 0.096888 -0.151342 -0.983722
vn 0.096888 -0.151342 -0.983722
vn 0.286941 -0.151342 -0.945918
vn 0.286941 -0.151342 -0.945918
vn 0.465967 -0.151342 -0.871763
vn 0.465967 -0.151342 -0.871763
vn 0.627086 -0.151342 -0.764107
vn 0.627086 -0.151342 -0.764107
vn 0.764107 -0.151342 -0.627086
vn 0.764107 -0.151342 -0.627086
vn 0.871763 -0.151342 -0.465967
vn 0.871763 -0.151342 -0.465967
vn 0.945918 -0.151342 -0.286941
vn 0.945918 -0.151342 -0.286941
vn 0.983722 -0.151342 -0.096888
vn 0.983722 -0.151342 -0.096888
vn -0.000000 -1.000000 0.000000
vn 0.000000 -1.000000 0.000000
vn 0.000000 -1.000000 0.000000
vn 0.000000 -1.000000 0.000000
vn 0.000000 -1.000000 0.000000
vn 0.000000 -1.000000 0.000000
vn 0.000000 -1.000000 0.000000
vn 0.000000 -1.000000 -0.000000
vn 0.000000 -1.000000 0.000000
vn 0.000000 -1.000000 0.000000
vn 0.000000 -1.000000 0.000000
vn 0.000000 -1.000000 0.000000
vn 0.000000 -1.000000 0.000000
vn 0.000000 -1.000000 0.000000
vn 0.000000 -1.000000 0.000000
vn 0.000000 -1.000000 0.000000
vn 0.000000 0.000000 -1.000000
vn 0.000000 0.000000 -1.000000
vn 0.000000 0.000000 -1.000000
vn 0.000000 0.000000 -1.000000
vn 0.000000 0.000000 -1.000000
vn 0.000000 0.000000 -1.000000
vn 0.000000 -0.000000 -1.000000
vn -0.000000 0.000000 -1.000000
vn -0.000000 0.000000 -1.000000
vn -0.000000 0.000000 -1.000000
vn -0.995185 0.000000 -0.098017
vn -0.995185 0.000000 -0.098017
vn -0.956940 0.000000 -0.290285
vn -0.956940 0.000000 -0.290285
vn -0.881921 0.000000 -0.471397
vn -0.881921 0.000000 -0.471397
vn -0.773010 0.000000 -0.634393
vn -0.773010 0.000000 -0.634393
vn -0.634393 0.000000 -0.773010
vn -0.634393 0.000000 -0.773010
vn -0.471397 0.000000 -0.881921
vn -0.471397 0.000000 -0.881921
vn -0.290285 0.000000 -0.956940
vn -0.290285 0.000000 -0.956940
vn -0.098017 0.000000 -0.995185
vn -0.098017 0.000000 -0.995185
vn 0.098017 0.000000 -0.995185
vn 0.098017 0.000000 -0.995185
vn 0.290285 0.000000 -0.956940
vn 0.290285 0.000000 -0.956940
vn 0.471397 0.000000 -0.881921
vn 0.471397 0.000000 -0.881921
vn 0.634393 0.000000 -0.773010
vn 0.634393 0.000000 -0.773010
vn 0.773010 0.000000 -0.634393
vn 0.773010 0.000000 -0.634393
vn 0.881921 0.000000 -0.471397
vn 0.881921 0.000000 -0.471397
vn 0.956940 0.000000 -0.290285
vn 0.956940 0.000000 -0.290285
vn 0.995185 0.000000 -0.098017
vn 0.995185 0.000000 -0.098017
vn 0.000000 0.000000 -1.000000
vn 0.000000 0.000000 -1.000000
vn -0.000000 0.000000 -1.000000
vn -0.000000 0.000000 -1.000000
usemtl body
f 1/1/1 2/2/1 3/3/1
f 4/4/2 5/5/2 6/6/2
f 7/7/3 8/8/3 9/9/3
f 10/10/4 11/11/4 12/12/4
f 13/13/5 14/14/5 15/15/5
f 16/16/6 17/17/6 18/18/6
f 19/19/7 20/20/7 21/21/7
f 22/22/8 23/23/8 24/24/8
f 25/25/9 26/26/9 27/27/9
f 28/28/10 29/29/10 30/30/10
f 31/31/11 32/32/11 33/33/11
f 34/34/12 35/35/12 36/36/12
f 499/499/167 500/500/167 501/501/167
f 502/502/168 503/503/168 504/504/168
f 505/505/169 506/506/169 507/507/169
f 508/508/170 509/509/170 510/510/170
f 511/511/171 512/512/171 513/513/171
f 514/514/172 515/515/172 516/516/172
f 517/517/173 518/518/173 519/519/173
f 520/520/174 521/521/174 522/522/174
f 523/523/175 524/524/175 525/525/175
f 526/526/176 527/527/176 528/528/176
f 529/529/177 530/530/177 531/531/177
f 532/532/178 533/533/178 534/534/178
f 535/535/179 536/536/179 537/537/179
f 538/538/180 539/539/180 540/540/180
f 541/541/181 542/542/181 543/543/181
f 544/544/182 545/545/182 546/546/182
f 547/547/183 548/548/183 549/549/183
f 550/550/184 551/551/184 552/552/184
f 553/553/185 554/554/185 555/555/185
f 556/556/186 557/557/186 558/558/186
f 559/559/187 560/560/187 561/561/187
f 562/562/188 563/563/188 564/564/188
f 565/565/189 566/566/189 567/567/189
f 568/568/190 569/569/190 570/570/190
f 571/571/191 572/572/191 573/573/191
f 574/574/192 575/575/192 576/576/192
f 577/577/193 578/578/193 579/579/193
f 580/580/194 581/581/194 582/582/194
f 583/583/195 584/584/195 585/585/195
f 586/586/196 587/587/196 588/588/196
f 589/589/197 590/590/197 591/591/197
f 592/592/198 593/593/198 594/594/198
f 595/595/199 596/596/199 597/597/199
f 598/598/200 599/599/200 600/600/200
f 601/601/201 602/602/201 603/603/201
f 604/604/202 605/605/202 606/606/202
usemtl lens
f 37/37/13 38/38/13 39/39/13
f 40/40/14 41/41/14 42/42/14
f 43/43/15 44/44/15 45/45/15
f 46/46/16 47/47/16 48/48/16
f 49/49/17 50/50/17 51/51/17
f 52/52/18 53/53/18 54/54/18
f 55/55/19 56/56/19 57/57/19
f 58/58/20 59/59/20 60/60/20
f 61/61/21 62/62/21 63/63/21
f 64/64/22 65/65/22 66/66/22
f 67/67/23 68/68/23 69/69/23
f 70/70/24 71/71/24 72/72/24
f 73/73/25 74/74/25 75/75/25
f 76/76/26 77/77/26 78/78/26
f 79/79/27 80/80/27 81/81/27
f 82/82/28 83/83/28 84/84/28
f 85/85/29 86/86/29 87/87/29
f 88/88/30 89/89/30 90/90/30
f 91/91/31 92/92/31 93/93/31
f 94/94/32 95/95/32 96/96/32
f 97/97/33 98/98/33 99/99/33
f 100/100/34 101/101/34 102/102/34
f 103/103/35 104/104/35 105/105/35
f 106/106/36 107/107/36 108/108/36
f 109/109/37 110/110/37 111/111/37
f 112/112/38 113/113/38 114/114/38
f 115/115/39 116/116/39 117/117/39
f 118/118/40 119/119/40 120/120/40
f 121/121/41 122/122/41 123/123/41
f 124/124/42 125/125/42 126/126/42
f 127/127/43 128/128/43 129/129/43
f 130/130/44 131/131/44 132/132/44
f 133/133/45 134/134/45 135/135/45
f 136/136/46 137/137/46 138/138/46
f 139/139/47 140/140/47 141/141/47
f 142/142/48 143/143/48 144/144/48
f 145/145/49 146/146/49 147/147/49
f 148/148/50 149/149/50 150/150/50
f 151/151/51 152/152/51 153/153/51
f 154/154/52 155/155/52 156/156/52
f 157/157/53 158/158/53 159/159/53
f 160/160/54 161/161/54 162/162/54
f 163/163/55 164/164/55 165/165/55
f 166/166/56 167/167/56 168/168/56
f 169/169/57 170/170/57 171/171/57
f 172/172/58 173/173/58 174/174/58
f 175/175/59 176/176/59 177/177/59
f 178/178/60 179/179/60 180/180/60
f 181/181/61 182/182/61 183/183/61
f 184/184/62 185/185/62 186/186/62
f 187/187/63 188/188/63 189/189/63
f 190/190/64 191/191/64 192/192/64
f 193/193/65 194/194/65 195/195/65
f 196/196/66 197/197/66 198/198/66
f 199/199/67 200/200/67 201/201/67
f 202/202/68 203/203/68 204/204/68
f 205/205/69 206/206/69 207/207/69
f 208/208/70 209/209/70 210/210/70
f 211/211/71 212/212/71 213/213/71
f 214/214/72 215/215/72 216/216/72
f 217/217/73 218/218/73 219/219/73
f 220/220/74 221/221/74 222/222/74
f 223/223/75 224/224/75 225/225/75
f 226/226/76 227/227/76 228/228/76
f 229/229/77 230/230/77 231/231/77
f 232/232/78 233/233/78 234/234/78
f 235/235/79 236/236/79 237/237/79
f 238/238/80 239/239/80 240/240/80
f 241/241/81 242/242/81 243/243/81
f 244/244/82 245/245/82 246/246/82
f 247/247/83 248/248/83 249/249/83
f 250/250/84 251/251/84 252/252/84
f 253/253/85 254/254/85 255/255/85
f 256/256/86 257/257/86 258/258/86
f 259/259/87 260/260/87 261/261/87
f 262/262/88 263/263/88 264/264/88
f 265/265/89 266/266/89 267/267/89
f 268/268/90 269/269/90 270/270/90
f 271/271/91 272/272/91 273/273/91
f 274/274/92 275/275/92 276/276/92
f 277/277/93 278/278/93 279/279/93
f 280/280/94 281/281/94 282/282/94
f 283/283/95 284/284/95 285/285/95
f 286/286/96 287/287/96 288/288/96
f 289/289/97 290/290/97 291/291/97
f 292/292/98 293/293/98 294/294/98
f 295/295/99 296/296/99 297/297/99
f 298/298/100 299/299/100 300/300/100
f 301/301/101 302/302/101 303/303/101
f 304/304/102 305/305/102 306/306/102
f 307/307/103 308/308/103 309/309/103
f 310/310/104 311/311/104 312/312/104
f 313/313/105 314/314/105 315/315/105
f 316/316/106 317/317/106 318/318/106
f 319/319/107 320/320/107 321/321/107
f 322/322/108 323/323/108 324/324/108
f 325/325/109 326/326/109 327/327/109
f 328/328/110 329/329/110 330/330/110
f 331/331/111 332/332/111 333/333/111
f 334/334/112 335/335/112 336/336/112
f 337/337/113 338/338/113 339/339/113
f 340/340/114 341/341/114 342/342/114
f 343/343/115 344/344/115 345/345/115
f 346/346/116 347/347/116 348/348/116
f 349/349/117 350/350/117 351/351/117
f 352/352/118 353/353/118 354/354/118
f 355/355/119 356/356/119 357/357/119
f 358/358/120 359/359/120 360/360/120
f 361/361/121 362/362/121 363/363/121
f 364/364/122 365/365/122 366/366/122
f 367/367/123 368/368/123 369/369/123
f 370/370/124 371/371/124 372/372/124
f 373/373/125 374/374/125 375/375/125
f 376/376/126 377/377/126 378/378/126
f 379/379/127 380/380/127 381/381/127
f 382/382/128 383/383/128 384/384/128
f 385/385/129 386/386/129 387/387/129
f 388/388/130 389/389/130 390/390/130
f 391/391/131 392/392/131 393/393/131
f 394/394/132 395/395/132 396/396/132
f 397/397/133 398/398/133 399/399/133
f 400/400/134 401/401/134 402/402/134
f 403/403/135 404/404/135 405/405/135
f 406/406/136 407/407/136 408/408/136
f 409/409/137 410/410/137 411/411/137
f 412/412/138 413/413/138 414/414/138
f 415/415/139 416/416/139 417/417/139
f 418/418/140 419/419/140 420/420/140
f 421/421/141 422/422/141 423/423/141
f 424/424/142 425/425/142 426/426/142
f 427/427/143 428/428/143 429/429/143
f 430/430/144 431/431/144 432/432/144
f 433/433/145 434/434/145 435/435/145
f 436/436/146 437/437/146 438/438/146
f 439/439/147 440/440/147 441/441/147
f 442/442/148 443/443/148 444/444/148
f 445/445/149 446/446/149 447/447/149
f 448/448/150 449/449/150 450/450/150
f 451/451/151 452/452/151 453/453/151
f 454/454/152 455/455/152 456/456/152
f 457/457/153 458/458/153 459/459/153
f 460/460/154 461/461/154 462/462/154
f 463/463/155 464/464/155 465/465/155
f 466/466/156 467/467/156 468/468/156
f 469/469/157 470/470/157 471/471/157
f 472/472/158 473/473/158 474/474/158
f 475/475/159 476/476/159 477/477/159
f 478/478/160 479/479/160 480/480/160
f 481/481/161 482/482/161 483/483/161
f 484/484/162 485/485/162 486/486/162
f 487/487/163 488/488/163 489/489/163
f 490/490/164 491/491/164 492/492/164
f 493/493/165 494/494/165 495/495/165
f 496/496/166 497/497/166 498/498/166
