# Procedurally generated by dev-env-utils/scripts/gen_crash_cushion.py -- do not hand edit
mtllib crash_cushion_nose.mtl
o crash_cushion_nose_inv
v 0.046875 0.100000 0.175098
v 1.000000 0.100000 0.050000
v 1.000000 0.100000 0.087500
v 0.046875 0.100000 0.212598
v 0.046875 0.825000 0.212598
v 1.000000 0.825000 0.087500
v 1.000000 0.825000 0.050000
v 0.046875 0.825000 0.175098
v 0.046875 0.100000 0.337402
v 1.000000 0.100000 0.462500
v 1.000000 0.100000 0.500000
v 0.046875 0.100000 0.374902
v 0.046875 0.825000 0.374902
v 1.000000 0.825000 0.500000
v 1.000000 0.825000 0.462500
v 0.046875 0.825000 0.337402
v 0.000000 0.000000 0.162500
v 1.000000 0.000000 0.162500
v 1.000000 0.000000 0.387500
v 0.000000 0.000000 0.387500
v 1.000000 0.081250 0.387500
v 0.000000 0.081250 0.387500
v 1.000000 0.081250 0.162500
v 0.000000 0.081250 0.162500
v 0.062500 0.062500 0.181250
v 0.062500 0.843750 0.181250
v 0.062500 0.843750 0.368750
v 0.062500 0.062500 0.368750
v 0.018750 0.062500 0.181250
v 0.018750 0.062500 0.368750
v 0.018750 0.843750 0.368750
v 0.018750 0.843750 0.181250
v 0.953125 0.115625 0.475000
v 0.953125 0.809375 0.475000
v 0.953125 0.809375 0.075000
v 0.953125 0.115625 0.075000
v 0.990625 0.115625 0.075000
v 0.990625 0.809375 0.075000
v 0.990625 0.809375 0.475000
v 0.990625 0.115625 0.475000
vt 0.890625 0.125000
vt 0.890625 0.375000
vt 0.781250 0.000000
vt 0.781250 1.000000
vt 0.000000 1.000000
vt 0.000000 0.000000
vn 0.000000 -1.000000 0.000000
vn -0.000000 1.000000 -0.000000
vn -0.130134 -0.000000 -0.991496
vn 1.000000 -0.000000 -0.000000
vn 0.130134 -0.000000 0.991496
vn -1.000000 -0.000000 -0.000000
vn 0.130134 -0.000000 -0.991496
vn -0.130134 -0.000000 0.991496
vn 0.000000 -0.000000 1.000000
vn 0.000000 -0.000000 -1.000000
usemtl body
f 1/1/1 2/1/1 3/1/1
f 1/1/1 3/1/1 4/1/1
f 5/1/2 6/1/2 7/1/2
f 5/1/2 7/1/2 8/1/2
f 8/1/3 7/1/3 2/1/3
f 8/1/3 2/1/3 1/1/3
f 7/1/4 6/1/4 3/1/4
f 7/1/4 3/1/4 2/1/4
f 6/1/5 5/1/5 4/1/5
f 6/1/5 4/1/5 3/1/5
f 5/1/6 8/1/6 1/1/6
f 5/1/6 1/1/6 4/1/6
f 9/1/1 10/1/1 11/1/1
f 9/1/1 11/1/1 12/1/1
f 13/1/2 14/1/2 15/1/2
f 13/1/2 15/1/2 16/1/2
f 16/1/7 15/1/7 10/1/7
f 16/1/7 10/1/7 9/1/7
f 15/1/4 14/1/4 11/1/4
f 15/1/4 11/1/4 10/1/4
f 14/1/8 13/1/8 12/1/8
f 14/1/8 12/1/8 11/1/8
f 13/1/6 16/1/6 9/1/6
f 13/1/6 9/1/6 12/1/6
f 17/2/1 18/2/1 19/2/1
f 17/2/1 19/2/1 20/2/1
f 20/2/9 19/2/9 21/2/9
f 20/2/9 21/2/9 22/2/9
f 22/2/2 21/2/2 23/2/2
f 22/2/2 23/2/2 24/2/2
f 24/2/10 23/2/10 18/2/10
f 24/2/10 18/2/10 17/2/10
f 20/2/6 22/2/6 24/2/6
f 20/2/6 24/2/6 17/2/6
f 25/1/4 26/1/4 27/1/4
f 25/1/4 27/1/4 28/1/4
f 29/1/1 25/1/1 28/1/1
f 29/1/1 28/1/1 30/1/1
f 31/1/2 27/1/2 26/1/2
f 31/1/2 26/1/2 32/1/2
f 32/1/10 26/1/10 25/1/10
f 32/1/10 25/1/10 29/1/10
f 30/1/9 28/1/9 27/1/9
f 30/1/9 27/1/9 31/1/9
f 30/3/6 31/4/6 32/5/6
f 30/3/6 32/5/6 29/6/6
f 33/1/6 34/1/6 35/1/6
f 33/1/6 35/1/6 36/1/6
f 37/1/4 38/1/4 39/1/4
f 37/1/4 39/1/4 40/1/4
f 36/1/1 37/1/1 40/1/1
f 36/1/1 40/1/1 33/1/1
f 34/1/2 39/1/2 38/1/2
f 34/1/2 38/1/2 35/1/2
f 35/1/10 38/1/10 37/1/10
f 35/1/10 37/1/10 36/1/10
f 33/1/9 40/1/9 39/1/9
f 33/1/9 39/1/9 34/1/9
f 18/2/4 23/2/4 21/2/4
f 18/2/4 21/2/4 19/2/4
