# Procedurally generated by dev-env-utils/scripts/gen_crash_cushion.py -- do not hand edit
mtllib crash_cushion_bay.mtl
o crash_cushion_bay_core_down
v 0.000000 1.100000 0.050000
v 1.000000 0.100000 0.050000
v 1.000000 0.100000 0.087500
v 0.000000 1.100000 0.087500
v 1.000000 0.825000 0.087500
v 0.000000 1.825000 0.087500
v 1.000000 0.825000 0.050000
v 0.000000 1.825000 0.050000
v 0.000000 1.806250 0.034375
v 1.000000 0.806250 0.034375
v 1.000000 0.806250 0.068750
v 0.000000 1.806250 0.068750
v 1.000000 0.868750 0.068750
v 0.000000 1.868750 0.068750
v 1.000000 0.868750 0.034375
v 0.000000 1.868750 0.034375
v 0.000000 1.100000 0.462500
v 1.000000 0.100000 0.462500
v 1.000000 0.100000 0.500000
v 0.000000 1.100000 0.500000
v 1.000000 0.825000 0.500000
v 0.000000 1.825000 0.500000
v 1.000000 0.825000 0.462500
v 0.000000 1.825000 0.462500
v 0.000000 1.806250 0.481250
v 1.000000 0.806250 0.481250
v 1.000000 0.806250 0.515625
v 0.000000 1.806250 0.515625
v 1.000000 0.868750 0.515625
v 0.000000 1.868750 0.515625
v 1.000000 0.868750 0.481250
v 0.000000 1.868750 0.481250
v 0.000000 1.000000 0.162500
v 1.000000 0.000000 0.162500
v 1.000000 0.000000 0.387500
v 0.000000 1.000000 0.387500
v 1.000000 0.081250 0.387500
v 0.000000 1.081250 0.387500
v 1.000000 0.081250 0.162500
v 0.000000 1.081250 0.162500
v 0.009375 1.106250 0.028125
v 0.078125 1.037500 0.028125
v 0.078125 1.037500 0.075000
v 0.009375 1.106250 0.075000
v 0.078125 1.731250 0.075000
v 0.009375 1.800000 0.075000
v 0.078125 1.731250 0.028125
v 0.009375 1.800000 0.028125
v 0.009375 1.106250 0.475000
v 0.078125 1.037500 0.475000
v 0.078125 1.037500 0.521875
v 0.009375 1.106250 0.521875
v 0.078125 1.731250 0.521875
v 0.009375 1.800000 0.521875
v 0.078125 1.731250 0.475000
v 0.009375 1.800000 0.475000
vt 0.890625 0.125000
vt 0.890625 0.625000
vt 0.890625 0.375000
vn -0.707107 -0.707107 0.000000
vn -0.000000 -0.000000 1.000000
vn 0.707107 0.707107 0.000000
vn -0.000000 -0.000000 -1.000000
vn -1.000000 0.000000 0.000000
vn 1.000000 0.000000 0.000000
usemtl body
f 1/1/1 2/1/1 3/1/1
f 1/1/1 3/1/1 4/1/1
f 4/1/2 3/1/2 5/1/2
f 4/1/2 5/1/2 6/1/2
f 6/1/3 5/1/3 7/1/3
f 6/1/3 7/1/3 8/1/3
f 8/1/4 7/1/4 2/1/4
f 8/1/4 2/1/4 1/1/4
f 9/2/1 10/2/1 11/2/1
f 9/2/1 11/2/1 12/2/1
f 12/2/2 11/2/2 13/2/2
f 12/2/2 13/2/2 14/2/2
f 14/2/3 13/2/3 15/2/3
f 14/2/3 15/2/3 16/2/3
f 16/2/4 15/2/4 10/2/4
f 16/2/4 10/2/4 9/2/4
f 17/1/1 18/1/1 19/1/1
f 17/1/1 19/1/1 20/1/1
f 20/1/2 19/1/2 21/1/2
f 20/1/2 21/1/2 22/1/2
f 22/1/3 21/1/3 23/1/3
f 22/1/3 23/1/3 24/1/3
f 24/1/4 23/1/4 18/1/4
f 24/1/4 18/1/4 17/1/4
f 25/2/1 26/2/1 27/2/1
f 25/2/1 27/2/1 28/2/1
f 28/2/2 27/2/2 29/2/2
f 28/2/2 29/2/2 30/2/2
f 30/2/3 29/2/3 31/2/3
f 30/2/3 31/2/3 32/2/3
f 32/2/4 31/2/4 26/2/4
f 32/2/4 26/2/4 25/2/4
f 33/3/1 34/3/1 35/3/1
f 33/3/1 35/3/1 36/3/1
f 36/3/2 35/3/2 37/3/2
f 36/3/2 37/3/2 38/3/2
f 38/3/3 37/3/3 39/3/3
f 38/3/3 39/3/3 40/3/3
f 40/3/4 39/3/4 34/3/4
f 40/3/4 34/3/4 33/3/4
f 41/2/1 42/2/1 43/2/1
f 41/2/1 43/2/1 44/2/1
f 44/2/2 43/2/2 45/2/2
f 44/2/2 45/2/2 46/2/2
f 46/2/3 45/2/3 47/2/3
f 46/2/3 47/2/3 48/2/3
f 48/2/4 47/2/4 42/2/4
f 48/2/4 42/2/4 41/2/4
f 44/2/5 46/2/5 48/2/5
f 44/2/5 48/2/5 41/2/5
f 42/2/6 47/2/6 45/2/6
f 42/2/6 45/2/6 43/2/6
f 49/2/1 50/2/1 51/2/1
f 49/2/1 51/2/1 52/2/1
f 52/2/2 51/2/2 53/2/2
f 52/2/2 53/2/2 54/2/2
f 54/2/3 53/2/3 55/2/3
f 54/2/3 55/2/3 56/2/3
f 56/2/4 55/2/4 50/2/4
f 56/2/4 50/2/4 49/2/4
f 52/2/5 54/2/5 56/2/5
f 52/2/5 56/2/5 49/2/5
f 50/2/6 55/2/6 53/2/6
f 50/2/6 53/2/6 51/2/6
