# Procedurally generated by dev-env-utils/scripts/gen_crash_cushion.py -- do not hand edit
mtllib crash_cushion_nose.mtl
o crash_cushion_nose_end_right_down
v 0.953125 0.115625 0.475000
v 0.953125 0.809375 0.475000
v 0.953125 0.809375 0.075000
v 0.953125 0.115625 0.075000
v 0.990625 0.115625 0.075000
v 0.990625 0.809375 0.075000
v 0.990625 0.809375 0.475000
v 0.990625 0.115625 0.475000
v 1.000000 0.000000 0.162500
v 1.000000 0.081250 0.162500
v 1.000000 0.081250 0.387500
v 1.000000 0.000000 0.387500
vt 0.890625 0.125000
vt 0.890625 0.375000
vn -1.000000 0.000000 0.000000
vn 1.000000 0.000000 0.000000
vn 0.000000 -1.000000 0.000000
vn 0.000000 1.000000 0.000000
vn 0.000000 0.000000 -1.000000
vn 0.000000 0.000000 1.000000
usemtl body
f 1/1/1 2/1/1 3/1/1
f 1/1/1 3/1/1 4/1/1
f 5/1/2 6/1/2 7/1/2
f 5/1/2 7/1/2 8/1/2
f 4/1/3 5/1/3 8/1/3
f 4/1/3 8/1/3 1/1/3
f 2/1/4 7/1/4 6/1/4
f 2/1/4 6/1/4 3/1/4
f 3/1/5 6/1/5 5/1/5
f 3/1/5 5/1/5 4/1/5
f 1/1/6 8/1/6 7/1/6
f 1/1/6 7/1/6 2/1/6
f 9/2/2 10/2/2 11/2/2
f 9/2/2 11/2/2 12/2/2
