# Procedurally generated by dev-env-utils/scripts/gen_guardrails_box_cable.py -- do not hand edit
mtllib guardrail_box_beam_double.mtl
o guardrail_box_beam_double_core_down
v 0.000000 0.500000 0.050000
v 1.000000 -0.500000 0.050000
v 1.000000 -0.500000 0.250000
v 0.000000 0.500000 0.250000
v 1.000000 -0.300000 0.250000
v 0.000000 0.700000 0.250000
v 1.000000 -0.300000 0.050000
v 0.000000 0.700000 0.050000
v 0.000000 0.700000 0.950000
v 1.000000 -0.300000 0.950000
v 1.000000 -0.300000 0.750000
v 0.000000 0.700000 0.750000
v 1.000000 -0.500000 0.750000
v 0.000000 0.500000 0.750000
v 1.000000 -0.500000 0.950000
v 0.000000 0.500000 0.950000
vt 0.890625 0.125000
vn -0.707107 -0.707107 0.000000
vn -0.000000 -0.000000 1.000000
vn 0.707107 0.707107 0.000000
vn -0.000000 -0.000000 -1.000000
usemtl body
f 1/1/1 2/1/1 3/1/1
f 1/1/1 3/1/1 4/1/1
f 4/1/2 3/1/2 5/1/2
f 4/1/2 5/1/2 6/1/2
f 6/1/3 5/1/3 7/1/3
f 6/1/3 7/1/3 8/1/3
f 8/1/4 7/1/4 2/1/4
f 8/1/4 2/1/4 1/1/4
f 9/1/3 10/1/3 11/1/3
f 9/1/3 11/1/3 12/1/3
f 12/1/4 11/1/4 13/1/4
f 12/1/4 13/1/4 14/1/4
f 14/1/1 13/1/1 15/1/1
f 14/1/1 15/1/1 16/1/1
f 16/1/2 15/1/2 10/1/2
f 16/1/2 10/1/2 9/1/2
