# Procedurally generated by dev-env-utils/scripts/gen_guardrails.py -- do not hand edit
mtllib guardrail_w_beam_wood_double.mtl
o guardrail_w_beam_wood_double_inv
v 0.000000 0.387500 0.250000
v 1.000000 0.387500 0.250000
v 1.000000 0.700000 0.250000
v 0.000000 0.700000 0.250000
v 1.000000 0.700000 0.150000
v 0.000000 0.700000 0.150000
v 1.000000 0.643750 0.068750
v 0.000000 0.643750 0.068750
v 1.000000 0.600000 0.050000
v 0.000000 0.600000 0.050000
v 1.000000 0.562500 0.068750
v 0.000000 0.562500 0.068750
v 1.000000 0.543750 0.140625
v 0.000000 0.543750 0.140625
v 1.000000 0.525000 0.068750
v 0.000000 0.525000 0.068750
v 1.000000 0.487500 0.050000
v 0.000000 0.487500 0.050000
v 1.000000 0.443750 0.068750
v 0.000000 0.443750 0.068750
v 1.000000 0.387500 0.150000
v 0.000000 0.387500 0.150000
v 0.000000 0.387500 0.850000
v 1.000000 0.387500 0.850000
v 1.000000 0.443750 0.931250
v 0.000000 0.443750 0.931250
v 1.000000 0.487500 0.950000
v 0.000000 0.487500 0.950000
v 1.000000 0.525000 0.931250
v 0.000000 0.525000 0.931250
v 1.000000 0.543750 0.859375
v 0.000000 0.543750 0.859375
v 1.000000 0.562500 0.931250
v 0.000000 0.562500 0.931250
v 1.000000 0.600000 0.950000
v 0.000000 0.600000 0.950000
v 1.000000 0.643750 0.931250
v 0.000000 0.643750 0.931250
v 1.000000 0.700000 0.850000
v 0.000000 0.700000 0.850000
v 1.000000 0.700000 0.750000
v 0.000000 0.700000 0.750000
v 1.000000 0.387500 0.750000
v 0.000000 0.387500 0.750000
v 0.400000 0.375000 0.400000
v 0.400000 0.712500 0.400000
v 0.400000 0.712500 0.250000
v 0.400000 0.375000 0.250000
v 0.600000 0.375000 0.250000
v 0.600000 0.712500 0.250000
v 0.600000 0.712500 0.400000
v 0.600000 0.375000 0.400000
v 0.400000 0.375000 0.750000
v 0.400000 0.712500 0.750000
v 0.400000 0.712500 0.600000
v 0.400000 0.375000 0.600000
v 0.600000 0.375000 0.600000
v 0.600000 0.712500 0.600000
v 0.600000 0.712500 0.750000
v 0.600000 0.375000 0.750000
v 0.375000 0.000000 0.600000
v 0.375000 0.737500 0.600000
v 0.375000 0.737500 0.400000
v 0.375000 0.000000 0.400000
v 0.625000 0.000000 0.400000
v 0.625000 0.737500 0.400000
v 0.625000 0.737500 0.600000
v 0.625000 0.000000 0.600000
v 0.000000 0.443750 0.250000
v 0.000000 0.487500 0.250000
v 0.000000 0.525000 0.250000
v 0.000000 0.543750 0.250000
v 0.000000 0.562500 0.250000
v 0.000000 0.600000 0.250000
v 0.000000 0.643750 0.250000
v 0.000000 0.443750 0.750000
v 0.000000 0.487500 0.750000
v 0.000000 0.525000 0.750000
v 0.000000 0.543750 0.750000
v 0.000000 0.562500 0.750000
v 0.000000 0.600000 0.750000
v 0.000000 0.643750 0.750000
v 1.000000 0.443750 0.250000
v 1.000000 0.487500 0.250000
v 1.000000 0.525000 0.250000
v 1.000000 0.543750 0.250000
v 1.000000 0.562500 0.250000
v 1.000000 0.600000 0.250000
v 1.000000 0.643750 0.250000
v 1.000000 0.443750 0.750000
v 1.000000 0.487500 0.750000
v 1.000000 0.525000 0.750000
v 1.000000 0.543750 0.750000
v 1.000000 0.562500 0.750000
v 1.000000 0.600000 0.750000
v 1.000000 0.643750 0.750000
vt 0.890625 0.125000
vt 0.890625 0.875000
vt 0.890625 0.625000
vn 0.000000 -0.000000 1.000000
vn -0.000000 1.000000 0.000000
vn -0.000000 0.822192 -0.569210
vn -0.000000 0.393919 -0.919145
vn 0.000000 -0.447214 -0.894427
vn 0.000000 -0.967617 -0.252422
vn -0.000000 0.967617 -0.252422
vn -0.000000 0.447214 -0.894427
vn 0.000000 -0.393919 -0.919145
vn 0.000000 -0.822192 -0.569210
vn 0.000000 -1.000000 0.000000
vn 0.000000 -0.822192 0.569210
vn 0.000000 -0.393919 0.919145
vn -0.000000 0.447214 0.894427
vn -0.000000 0.967617 0.252422
vn 0.000000 -0.967617 0.252422
vn 0.000000 -0.447214 0.894427
vn -0.000000 0.393919 0.919145
vn -0.000000 0.822192 0.569210
vn 0.000000 -0.000000 -1.000000
vn -1.000000 0.000000 0.000000
vn 1.000000 0.000000 0.000000
usemtl body
f 1/1/1 2/1/1 3/1/1
f 1/1/1 3/1/1 4/1/1
f 4/1/2 3/1/2 5/1/2
f 4/1/2 5/1/2 6/1/2
f 6/1/3 5/1/3 7/1/3
f 6/1/3 7/1/3 8/1/3
f 8/1/4 7/1/4 9/1/4
f 8/1/4 9/1/4 10/1/4
f 10/1/5 9/1/5 11/1/5
f 10/1/5 11/1/5 12/1/5
f 12/1/6 11/1/6 13/1/6
f 12/1/6 13/1/6 14/1/6
f 14/1/7 13/1/7 15/1/7
f 14/1/7 15/1/7 16/1/7
f 16/1/8 15/1/8 17/1/8
f 16/1/8 17/1/8 18/1/8
f 18/1/9 17/1/9 19/1/9
f 18/1/9 19/1/9 20/1/9
f 20/1/10 19/1/10 21/1/10
f 20/1/10 21/1/10 22/1/10
f 22/1/11 21/1/11 2/1/11
f 22/1/11 2/1/11 1/1/11
f 23/1/12 24/1/12 25/1/12
f 23/1/12 25/1/12 26/1/12
f 26/1/13 25/1/13 27/1/13
f 26/1/13 27/1/13 28/1/13
f 28/1/14 27/1/14 29/1/14
f 28/1/14 29/1/14 30/1/14
f 30/1/15 29/1/15 31/1/15
f 30/1/15 31/1/15 32/1/15
f 32/1/16 31/1/16 33/1/16
f 32/1/16 33/1/16 34/1/16
f 34/1/17 33/1/17 35/1/17
f 34/1/17 35/1/17 36/1/17
f 36/1/18 35/1/18 37/1/18
f 36/1/18 37/1/18 38/1/18
f 38/1/19 37/1/19 39/1/19
f 38/1/19 39/1/19 40/1/19
f 40/1/2 39/1/2 41/1/2
f 40/1/2 41/1/2 42/1/2
f 42/1/20 41/1/20 43/1/20
f 42/1/20 43/1/20 44/1/20
f 44/1/11 43/1/11 24/1/11
f 44/1/11 24/1/11 23/1/11
f 45/2/21 46/2/21 47/2/21
f 45/2/21 47/2/21 48/2/21
f 49/2/22 50/2/22 51/2/22
f 49/2/22 51/2/22 52/2/22
f 48/2/11 49/2/11 52/2/11
f 48/2/11 52/2/11 45/2/11
f 46/2/2 51/2/2 50/2/2
f 46/2/2 50/2/2 47/2/2
f 47/2/20 50/2/20 49/2/20
f 47/2/20 49/2/20 48/2/20
f 53/2/21 54/2/21 55/2/21
f 53/2/21 55/2/21 56/2/21
f 57/2/22 58/2/22 59/2/22
f 57/2/22 59/2/22 60/2/22
f 56/2/11 57/2/11 60/2/11
f 56/2/11 60/2/11 53/2/11
f 54/2/2 59/2/2 58/2/2
f 54/2/2 58/2/2 55/2/2
f 53/2/1 60/2/1 59/2/1
f 53/2/1 59/2/1 54/2/1
f 61/3/21 62/3/21 63/3/21
f 61/3/21 63/3/21 64/3/21
f 65/3/22 66/3/22 67/3/22
f 65/3/22 67/3/22 68/3/22
f 64/3/11 65/3/11 68/3/11
f 64/3/11 68/3/11 61/3/11
f 62/3/2 67/3/2 66/3/2
f 62/3/2 66/3/2 63/3/2
f 63/3/20 66/3/20 65/3/20
f 63/3/20 65/3/20 64/3/20
f 61/3/1 68/3/1 67/3/1
f 61/3/1 67/3/1 62/3/1
f 1/1/21 69/1/21 20/1/21
f 1/1/21 20/1/21 22/1/21
f 69/1/21 70/1/21 18/1/21
f 69/1/21 18/1/21 20/1/21
f 70/1/21 71/1/21 16/1/21
f 70/1/21 16/1/21 18/1/21
f 71/1/21 72/1/21 14/1/21
f 71/1/21 14/1/21 16/1/21
f 72/1/21 73/1/21 12/1/21
f 72/1/21 12/1/21 14/1/21
f 73/1/21 74/1/21 10/1/21
f 73/1/21 10/1/21 12/1/21
f 74/1/21 75/1/21 8/1/21
f 74/1/21 8/1/21 10/1/21
f 75/1/21 4/1/21 6/1/21
f 75/1/21 6/1/21 8/1/21
f 23/1/21 26/1/21 76/1/21
f 23/1/21 76/1/21 44/1/21
f 26/1/21 28/1/21 77/1/21
f 26/1/21 77/1/21 76/1/21
f 28/1/21 30/1/21 78/1/21
f 28/1/21 78/1/21 77/1/21
f 30/1/21 32/1/21 79/1/21
f 30/1/21 79/1/21 78/1/21
f 32/1/21 34/1/21 80/1/21
f 32/1/21 80/1/21 79/1/21
f 34/1/21 36/1/21 81/1/21
f 34/1/21 81/1/21 80/1/21
f 36/1/21 38/1/21 82/1/21
f 36/1/21 82/1/21 81/1/21
f 38/1/21 40/1/21 42/1/21
f 38/1/21 42/1/21 82/1/21
f 21/1/22 19/1/22 83/1/22
f 21/1/22 83/1/22 2/1/22
f 19/1/22 17/1/22 84/1/22
f 19/1/22 84/1/22 83/1/22
f 17/1/22 15/1/22 85/1/22
f 17/1/22 85/1/22 84/1/22
f 15/1/22 13/1/22 86/1/22
f 15/1/22 86/1/22 85/1/22
f 13/1/22 11/1/22 87/1/22
f 13/1/22 87/1/22 86/1/22
f 11/1/22 9/1/22 88/1/22
f 11/1/22 88/1/22 87/1/22
f 9/1/22 7/1/22 89/1/22
f 9/1/22 89/1/22 88/1/22
f 7/1/22 5/1/22 3/1/22
f 7/1/22 3/1/22 89/1/22
f 43/1/22 90/1/22 25/1/22
f 43/1/22 25/1/22 24/1/22
f 90/1/22 91/1/22 27/1/22
f 90/1/22 27/1/22 25/1/22
f 91/1/22 92/1/22 29/1/22
f 91/1/22 29/1/22 27/1/22
f 92/1/22 93/1/22 31/1/22
f 92/1/22 31/1/22 29/1/22
f 93/1/22 94/1/22 33/1/22
f 93/1/22 33/1/22 31/1/22
f 94/1/22 95/1/22 35/1/22
f 94/1/22 35/1/22 33/1/22
f 95/1/22 96/1/22 37/1/22
f 95/1/22 37/1/22 35/1/22
f 96/1/22 41/1/22 39/1/22
f 96/1/22 39/1/22 37/1/22
