# Procedurally generated by dev-env-utils/scripts/gen_guardrails_box_cable.py -- do not hand edit
mtllib guardrail_box_beam_stacked.mtl
o guardrail_box_beam_stacked_inv
v 0.000000 0.800000 0.050000
v 1.000000 0.800000 0.050000
v 1.000000 0.800000 0.250000
v 0.000000 0.800000 0.250000
v 1.000000 1.000000 0.250000
v 0.000000 1.000000 0.250000
v 1.000000 1.000000 0.050000
v 0.000000 1.000000 0.050000
v 0.000000 0.300000 0.050000
v 1.000000 0.300000 0.050000
v 1.000000 0.300000 0.250000
v 0.000000 0.300000 0.250000
v 1.000000 0.500000 0.250000
v 0.000000 0.500000 0.250000
v 1.000000 0.500000 0.050000
v 0.000000 0.500000 0.050000
v 0.000000 0.400000 0.150000
v 1.000000 0.400000 0.150000
v 0.400000 0.675000 0.400000
v 0.400000 0.987500 0.400000
v 0.400000 0.987500 0.250000
v 0.400000 0.675000 0.250000
v 0.600000 0.675000 0.250000
v 0.600000 0.987500 0.250000
v 0.600000 0.987500 0.400000
v 0.600000 0.675000 0.400000
v 0.400000 0.175000 0.400000
v 0.400000 0.487500 0.400000
v 0.400000 0.487500 0.250000
v 0.400000 0.175000 0.250000
v 0.600000 0.175000 0.250000
v 0.600000 0.487500 0.250000
v 0.600000 0.487500 0.400000
v 0.600000 0.175000 0.400000
v 0.375000 0.000000 0.437500
v 0.375000 1.000000 0.437500
v 0.375000 1.000000 0.400000
v 0.375000 0.000000 0.400000
v 0.625000 0.000000 0.400000
v 0.625000 1.000000 0.400000
v 0.625000 1.000000 0.437500
v 0.625000 0.000000 0.437500
v 0.375000 0.000000 0.600000
v 0.375000 1.000000 0.600000
v 0.412500 0.000000 0.437500
v 0.412500 1.000000 0.437500
v 0.412500 1.000000 0.600000
v 0.412500 0.000000 0.600000
v 0.587500 0.000000 0.600000
v 0.587500 1.000000 0.600000
v 0.587500 1.000000 0.437500
v 0.587500 0.000000 0.437500
v 0.625000 1.000000 0.600000
v 0.625000 0.000000 0.600000
v 0.287500 0.000000 0.712500
v 0.287500 0.037500 0.712500
v 0.287500 0.037500 0.287500
v 0.287500 0.000000 0.287500
v 0.712500 0.000000 0.287500
v 0.712500 0.037500 0.287500
v 0.712500 0.037500 0.712500
v 0.712500 0.000000 0.712500
v 0.000000 0.900000 0.150000
v 1.000000 0.900000 0.150000
vt 0.890625 0.125000
vt 0.890625 0.875000
vt 0.890625 0.625000
vt 0.890625 0.375000
vn 0.000000 -1.000000 0.000000
vn 0.000000 -0.000000 1.000000
vn -0.000000 1.000000 0.000000
vn 0.000000 -0.000000 -1.000000
vn -1.000000 0.000000 0.000000
vn 1.000000 0.000000 0.000000
usemtl body
f 1/1/1 2/1/1 3/1/1
f 1/1/1 3/1/1 4/1/1
f 4/1/2 3/1/2 5/1/2
f 4/1/2 5/1/2 6/1/2
f 6/1/3 5/1/3 7/1/3
f 6/1/3 7/1/3 8/1/3
f 8/1/4 7/1/4 2/1/4
f 8/1/4 2/1/4 1/1/4
f 9/1/1 10/1/1 11/1/1
f 9/1/1 11/1/1 12/1/1
f 12/1/2 11/1/2 13/1/2
f 12/1/2 13/1/2 14/1/2
f 14/1/3 13/1/3 15/1/3
f 14/1/3 15/1/3 16/1/3
f 16/1/4 15/1/4 10/1/4
f 16/1/4 10/1/4 9/1/4
f 17/1/5 9/1/5 12/1/5
f 17/1/5 12/1/5 14/1/5
f 17/1/5 14/1/5 16/1/5
f 17/1/5 16/1/5 9/1/5
f 11/1/6 10/1/6 18/1/6
f 13/1/6 11/1/6 18/1/6
f 15/1/6 13/1/6 18/1/6
f 10/1/6 15/1/6 18/1/6
f 19/2/5 20/2/5 21/2/5
f 19/2/5 21/2/5 22/2/5
f 23/2/6 24/2/6 25/2/6
f 23/2/6 25/2/6 26/2/6
f 22/2/1 23/2/1 26/2/1
f 22/2/1 26/2/1 19/2/1
f 20/2/3 25/2/3 24/2/3
f 20/2/3 24/2/3 21/2/3
f 21/2/4 24/2/4 23/2/4
f 21/2/4 23/2/4 22/2/4
f 27/2/5 28/2/5 29/2/5
f 27/2/5 29/2/5 30/2/5
f 31/2/6 32/2/6 33/2/6
f 31/2/6 33/2/6 34/2/6
f 30/2/1 31/2/1 34/2/1
f 30/2/1 34/2/1 27/2/1
f 28/2/3 33/2/3 32/2/3
f 28/2/3 32/2/3 29/2/3
f 29/2/4 32/2/4 31/2/4
f 29/2/4 31/2/4 30/2/4
f 35/3/5 36/3/5 37/3/5
f 35/3/5 37/3/5 38/3/5
f 39/3/6 40/3/6 41/3/6
f 39/3/6 41/3/6 42/3/6
f 36/3/3 41/3/3 40/3/3
f 36/3/3 40/3/3 37/3/3
f 37/3/4 40/3/4 39/3/4
f 37/3/4 39/3/4 38/3/4
f 35/3/2 42/3/2 41/3/2
f 35/3/2 41/3/2 36/3/2
f 43/3/5 44/3/5 36/3/5
f 43/3/5 36/3/5 35/3/5
f 45/3/6 46/3/6 47/3/6
f 45/3/6 47/3/6 48/3/6
f 44/3/3 47/3/3 46/3/3
f 44/3/3 46/3/3 36/3/3
f 43/3/2 48/3/2 47/3/2
f 43/3/2 47/3/2 44/3/2
f 49/3/5 50/3/5 51/3/5
f 49/3/5 51/3/5 52/3/5
f 42/3/6 41/3/6 53/3/6
f 42/3/6 53/3/6 54/3/6
f 50/3/3 53/3/3 41/3/3
f 50/3/3 41/3/3 51/3/3
f 49/3/2 54/3/2 53/3/2
f 49/3/2 53/3/2 50/3/2
f 55/4/5 56/4/5 57/4/5
f 55/4/5 57/4/5 58/4/5
f 59/4/6 60/4/6 61/4/6
f 59/4/6 61/4/6 62/4/6
f 58/4/1 59/4/1 62/4/1
f 58/4/1 62/4/1 55/4/1
f 56/4/3 61/4/3 60/4/3
f 56/4/3 60/4/3 57/4/3
f 57/4/4 60/4/4 59/4/4
f 57/4/4 59/4/4 58/4/4
f 55/4/2 62/4/2 61/4/2
f 55/4/2 61/4/2 56/4/2
f 63/1/5 1/1/5 4/1/5
f 63/1/5 4/1/5 6/1/5
f 63/1/5 6/1/5 8/1/5
f 63/1/5 8/1/5 1/1/5
f 3/1/6 2/1/6 64/1/6
f 5/1/6 3/1/6 64/1/6
f 7/1/6 5/1/6 64/1/6
f 2/1/6 7/1/6 64/1/6
