# Procedurally generated by dev-env-utils/scripts/gen_guardrails_box_cable.py -- do not hand edit
mtllib guardrail_box_beam.mtl
o guardrail_box_beam_inv
v 0.000000 0.587500 0.050000
v 1.000000 0.587500 0.050000
v 1.000000 0.587500 0.250000
v 0.000000 0.587500 0.250000
v 1.000000 0.787500 0.250000
v 0.000000 0.787500 0.250000
v 1.000000 0.787500 0.050000
v 0.000000 0.787500 0.050000
v 0.400000 0.462500 0.400000
v 0.400000 0.800000 0.400000
v 0.400000 0.800000 0.250000
v 0.400000 0.462500 0.250000
v 0.600000 0.462500 0.250000
v 0.600000 0.800000 0.250000
v 0.600000 0.800000 0.400000
v 0.600000 0.462500 0.400000
v 0.287500 0.000000 0.712500
v 0.287500 0.037500 0.712500
v 0.287500 0.037500 0.287500
v 0.287500 0.000000 0.287500
v 0.712500 0.000000 0.287500
v 0.712500 0.037500 0.287500
v 0.712500 0.037500 0.712500
v 0.712500 0.000000 0.712500
v 0.375000 0.037500 0.437500
v 0.375000 0.825000 0.437500
v 0.375000 0.825000 0.400000
v 0.375000 0.037500 0.400000
v 0.625000 0.037500 0.400000
v 0.625000 0.825000 0.400000
v 0.625000 0.825000 0.437500
v 0.625000 0.037500 0.437500
v 0.375000 0.037500 0.600000
v 0.375000 0.825000 0.600000
v 0.412500 0.037500 0.437500
v 0.412500 0.825000 0.437500
v 0.412500 0.825000 0.600000
v 0.412500 0.037500 0.600000
v 0.587500 0.037500 0.600000
v 0.587500 0.825000 0.600000
v 0.587500 0.825000 0.437500
v 0.587500 0.037500 0.437500
v 0.625000 0.825000 0.600000
v 0.625000 0.037500 0.600000
v 0.000000 0.687500 0.150000
v 1.000000 0.687500 0.150000
vt 0.890625 0.125000
vt 0.890625 0.875000
vt 0.890625 0.375000
vt 0.890625 0.625000
vn 0.000000 -1.000000 0.000000
vn 0.000000 -0.000000 1.000000
vn -0.000000 1.000000 0.000000
vn 0.000000 -0.000000 -1.000000
vn -1.000000 0.000000 0.000000
vn 1.000000 0.000000 0.000000
usemtl body
f 1/1/1 2/1/1 3/1/1
f 1/1/1 3/1/1 4/1/1
f 4/1/2 3/1/2 5/1/2
f 4/1/2 5/1/2 6/1/2
f 6/1/3 5/1/3 7/1/3
f 6/1/3 7/1/3 8/1/3
f 8/1/4 7/1/4 2/1/4
f 8/1/4 2/1/4 1/1/4
f 9/2/5 10/2/5 11/2/5
f 9/2/5 11/2/5 12/2/5
f 13/2/6 14/2/6 15/2/6
f 13/2/6 15/2/6 16/2/6
f 12/2/1 13/2/1 16/2/1
f 12/2/1 16/2/1 9/2/1
f 10/2/3 15/2/3 14/2/3
f 10/2/3 14/2/3 11/2/3
f 11/2/4 14/2/4 13/2/4
f 11/2/4 13/2/4 12/2/4
f 17/3/5 18/3/5 19/3/5
f 17/3/5 19/3/5 20/3/5
f 21/3/6 22/3/6 23/3/6
f 21/3/6 23/3/6 24/3/6
f 20/3/1 21/3/1 24/3/1
f 20/3/1 24/3/1 17/3/1
f 18/3/3 23/3/3 22/3/3
f 18/3/3 22/3/3 19/3/3
f 19/3/4 22/3/4 21/3/4
f 19/3/4 21/3/4 20/3/4
f 17/3/2 24/3/2 23/3/2
f 17/3/2 23/3/2 18/3/2
f 25/4/5 26/4/5 27/4/5
f 25/4/5 27/4/5 28/4/5
f 29/4/6 30/4/6 31/4/6
f 29/4/6 31/4/6 32/4/6
f 28/4/1 29/4/1 32/4/1
f 28/4/1 32/4/1 25/4/1
f 26/4/3 31/4/3 30/4/3
f 26/4/3 30/4/3 27/4/3
f 27/4/4 30/4/4 29/4/4
f 27/4/4 29/4/4 28/4/4
f 25/4/2 32/4/2 31/4/2
f 25/4/2 31/4/2 26/4/2
f 33/4/5 34/4/5 26/4/5
f 33/4/5 26/4/5 25/4/5
f 35/4/6 36/4/6 37/4/6
f 35/4/6 37/4/6 38/4/6
f 25/4/1 35/4/1 38/4/1
f 25/4/1 38/4/1 33/4/1
f 34/4/3 37/4/3 36/4/3
f 34/4/3 36/4/3 26/4/3
f 33/4/2 38/4/2 37/4/2
f 33/4/2 37/4/2 34/4/2
f 39/4/5 40/4/5 41/4/5
f 39/4/5 41/4/5 42/4/5
f 32/4/6 31/4/6 43/4/6
f 32/4/6 43/4/6 44/4/6
f 42/4/1 32/4/1 44/4/1
f 42/4/1 44/4/1 39/4/1
f 40/4/3 43/4/3 31/4/3
f 40/4/3 31/4/3 41/4/3
f 39/4/2 44/4/2 43/4/2
f 39/4/2 43/4/2 40/4/2
f 45/1/5 1/1/5 4/1/5
f 45/1/5 4/1/5 6/1/5
f 45/1/5 6/1/5 8/1/5
f 45/1/5 8/1/5 1/1/5
f 3/1/6 2/1/6 46/1/6
f 5/1/6 3/1/6 46/1/6
f 7/1/6 5/1/6 46/1/6
f 2/1/6 7/1/6 46/1/6
