# Procedurally generated by dev-env-utils/scripts/gen_guardrail_ends.py -- do not hand edit
mtllib guardrail_end_terminal.mtl
o guardrail_end_terminal
v 0.000000 0.687500 0.150000
v 0.000000 0.743750 0.068750
v 0.098684 0.743750 0.068750
v 0.098684 0.687500 0.150000
v 0.000000 0.687500 0.250000
v 0.098684 0.687500 0.250000
v 0.098684 0.743750 0.168750
v 0.000000 0.743750 0.168750
v 0.000000 0.787500 0.050000
v 0.098684 0.787500 0.050000
v 0.098684 0.787500 0.150000
v 0.000000 0.787500 0.150000
v 0.000000 0.825000 0.068750
v 0.098684 0.825000 0.068750
v 0.098684 0.825000 0.168750
v 0.000000 0.825000 0.168750
v 0.000000 0.843750 0.140625
v 0.098684 0.843750 0.140625
v 0.098684 0.843750 0.240625
v 0.000000 0.843750 0.240625
v 0.000000 0.862500 0.068750
v 0.098684 0.862500 0.068750
v 0.098684 0.862500 0.168750
v 0.000000 0.862500 0.168750
v 0.000000 0.900000 0.050000
v 0.098684 0.900000 0.050000
v 0.098684 0.900000 0.150000
v 0.000000 0.900000 0.150000
v 0.000000 0.943750 0.068750
v 0.098684 0.943750 0.068750
v 0.098684 0.943750 0.168750
v 0.000000 0.943750 0.168750
v 0.000000 1.000000 0.150000
v 0.098684 1.000000 0.150000
v 0.098684 1.000000 0.250000
v 0.000000 1.000000 0.250000
v 0.197482 0.743750 0.068750
v 0.197204 0.687500 0.150000
v 0.197040 0.687500 0.250000
v 0.197318 0.743750 0.168750
v 0.197625 0.787500 0.050000
v 0.197461 0.787500 0.150000
v 0.197691 0.825000 0.068751
v 0.197526 0.825000 0.168750
v 0.197621 0.843749 0.140626
v 0.197456 0.843749 0.240625
v 0.197787 0.862499 0.068751
v 0.197622 0.862499 0.168751
v 0.197914 0.899999 0.050001
v 0.197749 0.899999 0.150001
v 0.197995 0.943749 0.068751
v 0.197831 0.943749 0.168751
v 0.198006 0.999999 0.150001
v 0.197842 0.999999 0.250001
v 0.296857 0.743235 0.069083
v 0.295114 0.686993 0.150320
v 0.294176 0.686993 0.250316
v 0.295919 0.743235 0.169078
v 0.297796 0.786978 0.050341
v 0.296858 0.786978 0.150336
v 0.298274 0.824472 0.069096
v 0.297335 0.824472 0.169092
v 0.297926 0.843220 0.140971
v 0.296988 0.843220 0.240967
v 0.298927 0.861967 0.069102
v 0.297989 0.861967 0.169098
v 0.299757 0.899461 0.050359
v 0.298819 0.899461 0.150355
v 0.300344 0.943204 0.069116
v 0.299405 0.943204 0.169111
v 0.300562 0.999446 0.150371
v 0.299624 0.999446 0.250367
v 0.396868 0.740251 0.070653
v 0.392555 0.684059 0.151828
v 0.390374 0.684059 0.251804
v 0.394686 0.740251 0.170629
v 0.399252 0.783957 0.051950
v 0.397071 0.783957 0.151927
v 0.400537 0.821418 0.070733
v 0.398355 0.821418 0.170709
v 0.399815 0.840149 0.142609
v 0.397634 0.840149 0.242586
v 0.402230 0.858880 0.070770
v 0.400049 0.858880 0.170746
v 0.404333 0.896342 0.052061
v 0.402151 0.896342 0.152038
v 0.405899 0.940047 0.070850
v 0.403718 0.940047 0.170826
v 0.406667 0.996240 0.152136
v 0.404485 0.996240 0.252112
v 0.497128 0.734149 0.073520
v 0.489972 0.678068 0.154572
v 0.486524 0.678068 0.254512
v 0.493680 0.734149 0.173461
v 0.501162 0.777767 0.054898
v 0.497713 0.777767 0.154839
v 0.503418 0.815154 0.073737
v 0.499969 0.815154 0.173678
v 0.502390 0.833848 0.145620
v 0.498942 0.833848 0.245560
v 0.506320 0.852542 0.073838
v 0.502872 0.852542 0.173778
v 0.509870 0.889929 0.055199
v 0.506421 0.889929 0.155139
v 0.512610 0.933548 0.074055
v 0.509161 0.933548 0.173995
v 0.514162 0.989629 0.155407
v 0.510713 0.989629 0.255347
v 0.597517 0.724613 0.077689
v 0.587391 0.668717 0.158551
v 0.582677 0.668717 0.258440
v 0.592803 0.724613 0.177578
v 0.603298 0.768087 0.059191
v 0.598584 0.768087 0.159080
v 0.606612 0.805351 0.078118
v 0.601898 0.805351 0.178007
v 0.605322 0.823983 0.150012
v 0.600608 0.823983 0.249901
v 0.610809 0.842615 0.078316
v 0.606095 0.842615 0.178205
v 0.615891 0.879879 0.059785
v 0.611176 0.879879 0.159674
v 0.619904 0.923353 0.078745
v 0.615189 0.923353 0.178634
v 0.622370 0.979249 0.160202
v 0.617655 0.979249 0.260091
v 0.697987 0.711416 0.083161
v 0.684812 0.655786 0.163767
v 0.678835 0.655786 0.263588
v 0.692009 0.711416 0.182982
v 0.705577 0.754683 0.064831
v 0.699599 0.754683 0.164653
v 0.710001 0.791769 0.083880
v 0.704024 0.791769 0.183701
v 0.708478 0.810312 0.155793
v 0.702500 0.810312 0.255614
v 0.715546 0.828856 0.084212
v 0.709569 0.828856 0.184033
v 0.722212 0.865942 0.065828
v 0.716235 0.865942 0.165649
v 0.727561 0.909209 0.084932
v 0.721584 0.909209 0.184753
v 0.731022 0.964838 0.166534
v 0.725045 0.964838 0.266356
v 0.798502 0.694378 0.089936
v 0.782236 0.639100 0.170219
v 0.774998 0.639100 0.269957
v 0.791264 0.694378 0.189674
v 0.807937 0.737372 0.071821
v 0.800699 0.737372 0.171559
v 0.813503 0.774224 0.091024
v 0.806266 0.774224 0.190762
v 0.811763 0.792649 0.162962
v 0.804525 0.792649 0.262700
v 0.820427 0.811075 0.091527
v 0.813189 0.811075 0.191265
v 0.828708 0.847927 0.073328
v 0.821470 0.847927 0.173066
v 0.835428 0.890921 0.092615
v 0.828190 0.890921 0.192353
v 0.839933 0.946199 0.174406
v 0.832695 0.946199 0.274144
v 0.899037 0.673350 0.098014
v 0.879663 0.618510 0.177907
v 0.871169 0.618510 0.277546
v 0.890542 0.673350 0.197653
v 0.910330 0.716003 0.080159
v 0.901835 0.716003 0.179797
v 0.917052 0.752562 0.099550
v 0.908557 0.752562 0.199188
v 0.915103 0.770842 0.171520
v 0.906609 0.770842 0.271158
v 0.925366 0.789122 0.100259
v 0.916871 0.789122 0.199897
v 0.935273 0.825682 0.082285
v 0.926779 0.825682 0.181924
v 0.943381 0.868335 0.101795
v 0.934886 0.868335 0.201433
v 0.948951 0.923175 0.183814
v 0.940456 0.923175 0.283453
v 0.999568 0.648204 0.107394
v 0.977095 0.593888 0.186832
v 0.967347 0.593888 0.286355
v 0.989820 0.648204 0.206918
v 1.012715 0.690450 0.089842
v 1.002967 0.690450 0.189366
v 1.020589 0.726660 0.109453
v 1.010842 0.726660 0.208977
v 1.018434 0.744766 0.181461
v 1.008687 0.744766 0.280984
v 1.030292 0.762871 0.110403
v 1.020544 0.762871 0.209927
v 1.041821 0.799082 0.092693
v 1.032074 0.799082 0.192216
v 1.051313 0.841328 0.112462
v 1.041566 0.841328 0.211986
v 1.057947 0.895644 0.194750
v 1.048199 0.895644 0.294274
v 1.100075 0.618830 0.118073
v 1.074531 0.565120 0.196993
v 1.063535 0.565120 0.296386
v 1.089079 0.618830 0.217467
v 1.115055 0.660605 0.100866
v 1.104060 0.660605 0.200259
v 1.124067 0.696412 0.120727
v 1.113071 0.696412 0.220121
v 1.121701 0.714315 0.192779
v 1.110705 0.714315 0.292172
v 1.135140 0.732219 0.121952
v 1.124145 0.732219 0.221346
v 1.148276 0.768025 0.104541
v 1.137280 0.768025 0.203935
v 1.159133 0.809800 0.124606
v 1.148137 0.809800 0.224000
v 1.166809 0.863510 0.207201
v 1.155813 0.863510 0.306595
v 1.200540 0.585132 0.130048
v 1.171972 0.532104 0.208391
v 1.159733 0.532104 0.307639
v 1.188301 0.585132 0.229296
v 1.217320 0.626375 0.113225
v 1.205082 0.626375 0.212473
v 1.227442 0.661727 0.133365
v 1.215203 0.661727 0.232614
v 1.224853 0.679403 0.205466
v 1.212615 0.679403 0.304714
v 1.239858 0.697079 0.134896
v 1.227619 0.697079 0.234145
v 1.254569 0.732430 0.117818
v 1.242330 0.732430 0.217067
v 1.266760 0.773674 0.138214
v 1.254521 0.773674 0.237462
v 1.275440 0.826702 0.221150
v 1.263201 0.826702 0.320398
v 1.300949 0.547021 0.143315
v 1.269419 0.494746 0.221025
v 1.255943 0.494746 0.320113
v 1.287473 0.547021 0.242403
v 1.319483 0.587679 0.126914
v 1.306007 0.587679 0.226001
v 1.330677 0.622529 0.147359
v 1.317201 0.622529 0.246446
v 1.327852 0.639954 0.219511
v 1.314375 0.639954 0.318599
v 1.344398 0.657379 0.149225
v 1.330922 0.657379 0.248312
v 1.360645 0.692229 0.132512
v 1.347169 0.692229 0.231599
v 1.374126 0.732887 0.153268
v 1.360650 0.732887 0.252355
v 1.383758 0.785162 0.236576
v 1.370282 0.785162 0.335663
v 1.401289 0.504421 0.157871
v 1.366872 0.452961 0.234897
v 1.352165 0.452961 0.333810
v 1.386582 0.504421 0.256784
v 1.421522 0.544445 0.141924
v 1.406814 0.544445 0.240836
v 1.433743 0.578752 0.162697
v 1.419035 0.578752 0.261609
v 1.430661 0.595905 0.234904
v 1.415954 0.595905 0.333816
v 1.448721 0.613058 0.164924
v 1.434014 0.613058 0.263837
v 1.466457 0.647365 0.148605
v 1.451750 0.647365 0.247518
v 1.481174 0.687389 0.169749
v 1.466467 0.687389 0.268662
v 1.491693 0.738848 0.253457
v 1.476986 0.738848 0.352369
v 1.501551 0.457260 0.173712
v 1.464332 0.406669 0.250007
v 1.448400 0.406669 0.348729
v 1.485619 0.457260 0.272434
v 1.523418 0.496608 0.158248
v 1.507487 0.496608 0.256971
v 1.536614 0.530336 0.179370
v 1.520682 0.530336 0.278093
v 1.533255 0.547200 0.251633
v 1.517323 0.547200 0.350355
v 1.552797 0.564063 0.181981
v 1.536865 0.564063 0.280704
v 1.571967 0.597791 0.166082
v 1.556036 0.597791 0.264805
v 1.587860 0.637139 0.187640
v 1.571929 0.637139 0.286362
v 1.599190 0.687731 0.271769
v 1.583259 0.687731 0.370492
v 1.601726 0.405472 0.190832
v 1.561799 0.355794 0.266354
v 1.544651 0.355794 0.364872
v 1.584578 0.405472 0.289350
v 1.625158 0.444111 0.175878
v 1.608010 0.444111 0.274397
v 1.639272 0.477230 0.197367
v 1.622124 0.477230 0.295886
v 1.635612 0.493789 0.269685
v 1.618463 0.493789 0.368204
v 1.656602 0.510348 0.200383
v 1.639453 0.510348 0.298902
v 1.677146 0.543467 0.184927
v 1.659998 0.543467 0.283446
v 1.694148 0.582106 0.206919
v 1.677000 0.582106 0.305437
v 1.706209 0.631784 0.291490
v 1.689061 0.631784 0.390008
v 1.701810 0.348998 0.209227
v 1.659274 0.300268 0.283939
v 1.640917 0.300268 0.382239
v 1.683452 0.348998 0.307528
v 1.726734 0.386899 0.194808
v 1.708377 0.386899 0.293108
v 1.741705 0.419385 0.216678
v 1.723348 0.419385 0.314978
v 1.737718 0.435628 0.289051
v 1.719360 0.435628 0.387351
v 1.760119 0.451872 0.220116
v 1.741761 0.451872 0.318417
v 1.781974 0.484358 0.205124
v 1.763617 0.484358 0.303424
v 1.800014 0.522259 0.227567
v 1.781657 0.522259 0.325867
v 1.812719 0.570989 0.312594
v 1.794362 0.570989 0.410895
v 1.801799 0.287779 0.228894
v 1.756758 0.240024 0.302762
v 1.737199 0.240024 0.400830
v 1.782241 0.287779 0.326963
v 1.828138 0.324922 0.215028
v 1.808580 0.324922 0.313097
v 1.843905 0.356758 0.237292
v 1.824346 0.356758 0.335360
v 1.839564 0.372677 0.309717
v 1.820006 0.372677 0.407785
v 1.863338 0.388595 0.241167
v 1.843780 0.388595 0.339236
v 1.886439 0.420432 0.226655
v 1.866880 0.420432 0.324724
v 1.905444 0.457574 0.249565
v 1.885886 0.457574 0.347634
v 1.918703 0.505329 0.335059
v 1.899145 0.505329 0.433128
v 1.901097 0.222262 0.249513
v 1.854845 0.175000 0.322948
v 1.834689 0.175000 0.420895
v 1.880942 0.222262 0.347461
v 1.928113 0.259021 0.235930
v 1.907958 0.259021 0.333877
v 1.944252 0.290529 0.258393
v 1.924096 0.290529 0.356341
v 1.939724 0.306283 0.330843
v 1.919568 0.306283 0.428790
v 1.964169 0.322037 0.262492
v 1.944014 0.322037 0.360440
v 1.987866 0.353545 0.248225
v 1.967710 0.353545 0.346173
v 2.007324 0.390304 0.271372
v 1.987168 0.390304 0.369320
v 2.020824 0.437566 0.357103
v 2.000668 0.437566 0.455050
v 0.087500 0.675000 0.400000
v 0.087500 0.987500 0.400000
v 0.087500 0.987500 0.250000
v 0.087500 0.675000 0.250000
v 0.287500 0.675000 0.250000
v 0.287500 0.987500 0.250000
v 0.287500 0.987500 0.400000
v 0.287500 0.675000 0.400000
v 0.062500 0.000000 0.600000
v 0.062500 1.000000 0.600000
v 0.062500 1.000000 0.375000
v 0.062500 0.000000 0.375000
v 0.312500 0.000000 0.375000
v 0.312500 1.000000 0.375000
v 0.312500 1.000000 0.600000
v 0.312500 0.000000 0.600000
v 0.462500 0.659389 0.407322
v 0.462500 0.971889 0.407322
v 0.462500 0.971889 0.257322
v 0.462500 0.659389 0.257322
v 0.662500 0.659389 0.257322
v 0.662500 0.971889 0.257322
v 0.662500 0.971889 0.407322
v 0.662500 0.659389 0.407322
v 0.437500 0.000000 0.607322
v 0.437500 0.984389 0.607322
v 0.437500 0.984389 0.382322
v 0.437500 0.000000 0.382322
v 0.687500 0.000000 0.382322
v 0.687500 0.984389 0.382322
v 0.687500 0.984389 0.607322
v 0.687500 0.000000 0.607322
v 0.750000 0.275000 0.025000
v 2.000000 0.006250 0.025000
v 2.000000 0.006250 0.475000
v 0.750000 0.275000 0.475000
v 0.750000 0.325000 0.475000
v 2.000000 0.056250 0.475000
v 2.000000 0.056250 0.025000
v 0.750000 0.325000 0.025000
v 1.812500 0.018750 0.512500
v 1.812500 0.462500 0.512500
v 1.812500 0.462500 0.112500
v 1.812500 0.018750 0.112500
v 2.100000 0.018750 0.112500
v 2.100000 0.018750 0.512500
v 2.100000 0.462500 0.512500
v 2.100000 0.462500 0.112500
vt 0.890625 0.125000
vt 0.890625 0.625000
vt 0.000000 0.651376
vt 0.309806 0.651376
vt 0.309806 0.000000
vt 0.000000 0.000000
vt 0.431034 0.651376
vt 0.431034 0.000000
vn 0.000000 -0.822192 -0.569210
vn 0.000000 -0.632729 -0.774374
vn -0.000000 0.822192 0.569210
vn -0.000000 0.632729 0.774374
vn 0.000000 0.029374 -0.999569
vn -0.000000 -0.029374 0.999569
vn 0.000000 0.776839 -0.629699
vn -0.000000 -0.776839 0.629699
vn 0.000000 0.000000 -1.000000
vn -0.000000 -0.000000 1.000000
vn 0.000000 -0.776839 -0.629699
vn -0.000000 0.776839 0.629699
vn 0.000000 -0.029374 -0.999569
vn -0.000000 0.029374 0.999569
vn 0.000000 0.632729 -0.774374
vn -0.000000 -0.632729 0.774374
vn 0.000000 0.822192 -0.569210
vn -0.000000 -0.822192 0.569210
vn -0.000000 -1.000000 0.000000
vn 0.000000 1.000000 -0.000000
vn -0.000351 -0.632726 -0.774375
vn -0.001175 -0.822189 -0.569213
vn 0.001175 0.822189 0.569213
vn 0.000351 0.632726 0.774375
vn 0.001719 0.029374 -0.999567
vn -0.001719 -0.029374 0.999567
vn 0.003029 0.776837 -0.629695
vn -0.003029 -0.776837 0.629695
vn 0.001644 0.000000 -0.999999
vn -0.001644 -0.000000 0.999999
vn -0.000959 -0.776837 -0.629701
vn 0.000959 0.776837 0.629701
vn 0.001568 -0.029374 -0.999567
vn -0.001568 0.029374 0.999567
vn 0.002897 0.632726 -0.774370
vn -0.002897 -0.632726 0.774370
vn 0.003046 0.822189 -0.569206
vn -0.003046 -0.822189 0.569206
vn -0.002567 -0.999997 -0.000004
vn 0.002567 0.999997 0.000004
vn -0.003764 -0.632632 -0.774443
vn -0.008992 -0.822067 -0.569319
vn 0.008992 0.822067 0.569319
vn 0.003764 0.632632 0.774443
vn 0.009891 0.029369 -0.999520
vn -0.009891 -0.029369 0.999520
vn 0.019450 0.776721 -0.629544
vn -0.019450 -0.776721 0.629544
vn 0.009383 0.000000 -0.999956
vn -0.009383 -0.000000 0.999956
vn -0.007634 -0.776721 -0.629798
vn 0.007634 0.776721 0.629798
vn 0.008867 -0.029369 -0.999529
vn -0.008867 0.029369 0.999529
vn 0.018296 0.632632 -0.774236
vn -0.018296 -0.632632 0.774236
vn 0.019673 0.822067 -0.569050
vn -0.019673 -0.822067 0.569050
vn -0.017432 -0.999848 -0.000164
vn 0.017432 0.999848 0.000164
vn -0.011678 -0.632083 -0.774813
vn -0.024710 -0.821353 -0.569885
vn 0.024710 0.821353 0.569885
vn 0.011678 0.632083 0.774813
vn 0.023133 0.029344 -0.999302
vn -0.023133 -0.029344 0.999302
vn 0.048817 0.776046 -0.628784
vn -0.048817 -0.776046 0.628784
vn 0.021816 0.000000 -0.999762
vn -0.021816 -0.000000 0.999762
vn -0.021342 -0.776046 -0.630315
vn 0.021342 0.776046 0.630315
vn 0.020480 -0.029344 -0.999360
vn -0.020480 0.029344 0.999360
vn 0.045465 0.632083 -0.773566
vn -0.045465 -0.632083 0.773566
vn 0.049545 0.821353 -0.568264
vn -0.049545 -0.821353 0.568264
vn -0.045157 -0.998979 -0.000985
vn 0.045157 0.998979 0.000985
vn -0.022271 -0.630828 -0.775603
vn -0.044012 -0.819722 -0.571068
vn 0.044012 0.819722 0.571068
vn 0.022271 0.630828 0.775603
vn 0.036746 0.029285 -0.998895
vn -0.036746 -0.029285 0.998895
vn 0.081848 0.774506 -0.627249
vn -0.081848 -0.774506 0.627249
vn 0.034487 0.000000 -0.999405
vn -0.034487 -0.000000 0.999405
vn -0.038415 -0.774506 -0.631399
vn 0.038415 0.774506 0.631399
vn 0.032199 -0.029285 -0.999052
vn -0.032199 0.029285 0.999052
vn 0.075683 0.630828 -0.772223
vn -0.075683 -0.630828 0.772223
vn 0.083273 0.819722 -0.566675
vn -0.083273 -0.819722 0.566675
vn -0.077406 -0.996996 -0.002671
vn 0.077406 0.996996 0.002671
vn -0.034316 -0.628744 -0.776855
vn -0.065195 -0.817014 -0.572920
vn 0.065195 0.817014 0.572920
vn 0.034316 0.628744 0.776855
vn 0.050409 0.029189 -0.998302
vn -0.050409 -0.029189 0.998302
vn 0.116638 0.771947 -0.624895
vn -0.116638 -0.771947 0.624895
vn 0.047142 0.000000 -0.998888
vn -0.047142 -0.000000 0.998888
vn -0.057267 -0.771947 -0.633102
vn 0.057267 0.771947 0.633102
vn 0.043834 -0.029189 -0.998612
vn -0.043834 0.029189 0.998612
vn 0.107327 0.628744 -0.770170
vn -0.107327 -0.628744 0.770170
vn 0.118863 0.817014 -0.564234
vn -0.118863 -0.817014 0.564234
vn -0.111931 -0.993702 -0.005283
vn 0.111931 0.993702 0.005283
vn -0.047276 -0.625748 -0.778592
vn -0.087556 -0.813121 -0.575473
vn 0.087556 0.813121 0.575473
vn 0.047276 0.625748 0.778592
vn 0.064092 0.029050 -0.997521
vn -0.064092 -0.029050 0.997521
vn 0.152513 0.768268 -0.621694
vn -0.152513 -0.768268 0.621694
vn 0.059774 0.000000 -0.998212
vn -0.059774 -0.000000 0.998212
vn -0.077234 -0.768268 -0.635452
vn 0.077234 0.768268 0.635452
vn 0.055405 -0.029050 -0.998041
vn -0.055405 0.029050 0.998041
vn 0.139851 0.625748 -0.767386
vn -0.139851 -0.625748 0.767386
vn 0.155604 0.813121 -0.560912
vn -0.155604 -0.813121 0.560912
vn -0.147873 -0.988967 -0.008855
vn 0.147873 0.988967 0.008855
vn -0.060774 -0.621793 -0.780820
vn -0.110604 -0.807982 -0.578733
vn 0.110604 0.807982 0.578733
vn 0.060774 0.621793 0.780820
vn 0.077770 0.028866 -0.996553
vn -0.077770 -0.028866 0.996553
vn 0.189004 0.763413 -0.617639
vn -0.189004 -0.763413 0.617639
vn 0.072377 0.000000 -0.997377
vn -0.072377 -0.000000 0.997377
vn -0.097852 -0.763413 -0.638456
vn 0.097852 0.763413 0.638456
vn 0.066923 -0.028866 -0.997340
vn -0.066923 0.028866 0.997340
vn 0.172868 0.621793 -0.763865
vn -0.172868 -0.621793 0.763865
vn 0.193000 0.807982 -0.556701
vn -0.193000 -0.807982 0.556701
vn -0.184630 -0.982717 -0.013398
vn 0.184630 0.982717 0.013398
vn -0.074508 -0.616864 -0.783535
vn -0.133944 -0.801578 -0.582694
vn 0.133944 0.801578 0.582694
vn 0.074508 0.616864 0.783535
vn 0.091422 0.028637 -0.995400
vn -0.091422 -0.028637 0.995400
vn 0.225731 0.757362 -0.612739
vn -0.225731 -0.757362 0.612739
vn 0.084946 0.000000 -0.996386
vn -0.084946 -0.000000 0.996386
vn -0.118750 -0.757362 -0.642107
vn 0.118750 0.757362 0.642107
vn 0.078397 -0.028637 -0.996511
vn -0.078397 0.028637 0.996511
vn 0.206069 0.616864 -0.759615
vn -0.206069 -0.616864 0.759615
vn 0.230649 0.801578 -0.551611
vn -0.230649 -0.801578 0.551611
vn -0.221720 -0.974927 -0.018903
vn 0.221720 0.974927 0.018903
vn -0.088222 -0.610974 -0.786719
vn -0.157239 -0.793924 -0.587334
vn 0.157239 0.793924 0.587334
vn 0.088222 0.610974 0.786719
vn 0.105032 0.028364 -0.994064
vn -0.105032 -0.028364 0.994064
vn 0.262369 0.750130 -0.607015
vn -0.262369 -0.750130 0.607015
vn 0.097475 0.000000 -0.995238
vn -0.097475 -0.000000 0.995238
vn -0.139609 -0.750130 -0.646385
vn 0.139609 0.750130 0.646385
vn 0.089833 -0.028364 -0.995553
vn -0.089833 0.028364 0.995553
vn 0.239186 0.610974 -0.754653
vn -0.239186 -0.610974 0.754653
vn 0.268207 0.793924 -0.545665
vn -0.268207 -0.793924 0.545665
vn -0.258726 -0.965618 -0.025340
vn 0.258726 0.965618 0.025340
vn -0.101691 -0.604160 -0.790348
vn -0.180197 -0.785069 -0.592617
vn 0.180197 0.785069 0.592617
vn 0.101691 0.604160 0.790348
vn 0.118583 0.028047 -0.992548
vn -0.118583 -0.028047 0.992548
vn 0.298633 0.741764 -0.600503
vn -0.298633 -0.741764 0.600503
vn 0.109957 0.000000 -0.993936
vn -0.109957 -0.000000 0.993936
vn -0.160153 -0.741764 -0.651258
vn 0.160153 0.741764 0.651258
vn 0.101236 -0.028047 -0.994467
vn -0.101236 0.028047 0.994467
vn 0.271986 0.604160 -0.749009
vn -0.271986 -0.604160 0.749009
vn 0.305374 0.785069 -0.538900
vn -0.305374 -0.785069 0.538900
vn -0.295290 -0.954849 -0.032667
vn 0.295290 0.954849 0.032667
vn -0.114722 -0.596481 -0.794386
vn -0.202563 -0.775091 -0.598500
vn 0.202563 0.775091 0.598500
vn 0.114722 0.596481 0.794386
vn 0.132060 0.027691 -0.990855
vn -0.132060 -0.027691 0.990855
vn 0.334278 0.732336 -0.593247
vn -0.334278 -0.732336 0.593247
vn 0.122387 0.000000 -0.992482
vn -0.122387 -0.000000 0.992482
vn -0.180143 -0.732336 -0.656683
vn 0.180143 0.732336 0.656683
vn 0.112609 -0.027691 -0.993253
vn -0.112609 0.027691 0.993253
vn 0.304269 0.596481 -0.742718
vn -0.304269 -0.596481 0.742718
vn 0.341891 0.775091 -0.531361
vn -0.341891 -0.775091 0.531361
vn -0.331099 -0.942712 -0.040829
vn 0.331099 0.942712 0.040829
vn -0.127151 -0.588013 -0.798795
vn -0.224120 -0.764087 -0.604931
vn 0.224120 0.764087 0.604931
vn 0.127151 0.588013 0.798795
vn 0.145450 0.027298 -0.988989
vn -0.145450 -0.027298 0.988989
vn 0.369092 0.721939 -0.585299
vn -0.369092 -0.721939 0.585299
vn 0.134761 0.000000 -0.990878
vn -0.134761 -0.000000 0.990878
vn -0.199375 -0.721939 -0.662611
vn 0.199375 0.721939 0.662611
vn 0.123955 -0.027298 -0.991912
vn -0.123955 0.027298 0.991912
vn 0.335861 0.588013 -0.735825
vn -0.335861 -0.588013 0.735825
vn 0.377534 0.764087 -0.523105
vn -0.377534 -0.764087 0.523105
vn -0.365885 -0.929329 -0.049761
vn 0.365885 0.929329 0.049761
vn -0.138841 -0.578845 -0.803531
vn -0.244691 -0.752174 -0.611850
vn 0.244691 0.752174 0.611850
vn 0.138841 0.578845 0.803531
vn 0.158740 0.026872 -0.986955
vn -0.158740 -0.026872 0.986955
vn 0.402901 0.710683 -0.576715
vn -0.402901 -0.710683 0.576715
vn 0.147071 0.000000 -0.989126
vn -0.147071 -0.000000 0.989126
vn -0.217680 -0.710683 -0.668988
vn 0.217680 0.710683 0.668988
vn 0.135275 -0.026872 -0.990444
vn -0.135275 0.026872 0.990444
vn 0.366616 0.578845 -0.728375
vn -0.366616 -0.578845 0.728375
vn 0.412120 0.752174 -0.514190
vn -0.412120 -0.752174 0.514190
vn -0.399426 -0.914840 -0.059390
vn 0.399426 0.914840 0.059390
vn -0.149684 -0.569075 -0.808547
vn -0.264132 -0.739478 -0.619198
vn 0.264132 0.739478 0.619198
vn 0.149684 0.569075 0.808547
vn 0.171921 0.026419 -0.984756
vn -0.171921 -0.026419 0.984756
vn 0.435562 0.698688 -0.567557
vn -0.435562 -0.698688 0.567557
vn 0.159313 0.000000 -0.987228
vn -0.159313 -0.000000 0.987228
vn -0.234923 -0.698688 -0.675756
vn 0.234923 0.698688 0.675756
vn 0.146569 -0.026419 -0.988848
vn -0.146569 0.026419 0.988848
vn 0.396420 0.569075 -0.720420
vn -0.396420 -0.569075 0.720420
vn 0.445497 0.739478 -0.504682
vn -0.445497 -0.739478 0.504682
vn -0.431547 -0.899398 -0.069641
vn 0.431547 0.899398 0.069641
vn -0.159599 -0.558805 -0.813797
vn -0.282334 -0.726133 -0.626912
vn 0.282334 0.726133 0.626912
vn 0.159599 0.558805 0.813797
vn 0.184983 0.025942 -0.982399
vn -0.184983 -0.025942 0.982399
vn 0.466969 0.686079 -0.557886
vn -0.466969 -0.686079 0.557886
vn 0.171483 0.000000 -0.985187
vn -0.171483 -0.000000 0.985187
vn -0.251004 -0.686079 -0.682857
vn 0.251004 0.686079 0.682857
vn 0.157835 -0.025942 -0.987125
vn -0.157835 0.025942 0.987125
vn 0.425183 0.558805 -0.712009
vn -0.425183 -0.558805 0.712009
vn 0.477554 0.726133 -0.494645
vn -0.477554 -0.726133 0.494645
vn -0.462111 -0.883167 -0.080436
vn 0.462111 0.883167 0.080436
vn -0.168530 -0.548137 -0.819234
vn -0.299224 -0.712271 -0.634930
vn 0.299224 0.712271 0.634930
vn 0.168530 0.548137 0.819234
vn 0.197918 0.025447 -0.979888
vn -0.197918 -0.025447 0.979888
vn 0.497043 0.672981 -0.547763
vn -0.497043 -0.672981 0.547763
vn 0.183574 0.000000 -0.983006
vn -0.183574 -0.000000 0.983006
vn -0.265850 -0.672981 -0.690232
vn 0.265850 0.672981 0.690232
vn 0.169072 -0.025447 -0.985275
vn -0.169072 0.025447 0.985275
vn 0.452840 0.548137 -0.703194
vn -0.452840 -0.548137 0.703194
vn 0.508208 0.712271 -0.484144
vn -0.508208 -0.712271 0.484144
vn -0.491024 -0.866307 -0.091698
vn 0.491024 0.866307 0.091698
vn -0.176442 -0.537171 -0.824812
vn -0.314753 -0.698022 -0.643192
vn 0.314753 0.698022 0.643192
vn 0.176442 0.537171 0.824812
vn 0.210721 0.024938 -0.977228
vn -0.210721 -0.024938 0.977228
vn 0.525736 0.659518 -0.537250
vn -0.525736 -0.659518 0.537250
vn 0.195583 0.000000 -0.980687
vn -0.195583 -0.000000 0.980687
vn -0.279420 -0.659518 -0.697826
vn 0.279420 0.659518 0.697826
vn 0.180276 -0.024938 -0.983300
vn -0.180276 0.024938 0.983300
vn 0.479350 0.537171 -0.694025
vn -0.479350 -0.537171 0.694025
vn 0.537409 0.698022 -0.473242
vn -0.537409 -0.698022 0.473242
vn -0.518226 -0.848976 -0.103352
vn 0.518226 0.848976 0.103352
vn -0.179984 -0.531625 -0.827636
vn -0.321966 -0.690814 -0.647390
vn 0.321966 0.690814 0.647390
vn 0.179984 0.531625 0.827636
vn 0.217069 0.024680 -0.975844
vn -0.217069 -0.024680 0.975844
vn 0.539524 0.652708 -0.531871
vn -0.539524 -0.652708 0.531871
vn 0.201555 0.000000 -0.979477
vn -0.201555 -0.000000 0.979477
vn -0.285686 -0.652708 -0.701681
vn 0.285686 0.652708 0.701681
vn 0.185866 -0.024680 -0.982265
vn -0.185866 0.024680 0.982265
vn 0.492142 0.531625 -0.689327
vn -0.492142 -0.531625 0.689327
vn 0.551420 0.690814 -0.467666
vn -0.551420 -0.690814 0.467666
vn -0.531133 -0.840210 -0.109295
vn 0.531133 0.840210 0.109295
vn -1.000000 -0.000000 -0.000000
vn 0.822966 -0.542261 0.169348
vn 1.000000 0.000000 0.000000
vn -0.210197 -0.977659 0.000000
vn 0.210197 0.977659 -0.000000
usemtl body
f 1/1/1 2/1/2 3/1/2
f 1/1/1 3/1/2 4/1/1
f 5/1/3 6/1/3 7/1/4
f 5/1/3 7/1/4 8/1/4
f 2/1/2 9/1/5 10/1/5
f 2/1/2 10/1/5 3/1/2
f 8/1/4 7/1/4 11/1/6
f 8/1/4 11/1/6 12/1/6
f 9/1/5 13/1/7 14/1/7
f 9/1/5 14/1/7 10/1/5
f 12/1/6 11/1/6 15/1/8
f 12/1/6 15/1/8 16/1/8
f 13/1/7 17/1/9 18/1/9
f 13/1/7 18/1/9 14/1/7
f 16/1/8 15/1/8 19/1/10
f 16/1/8 19/1/10 20/1/10
f 17/1/9 21/1/11 22/1/11
f 17/1/9 22/1/11 18/1/9
f 20/1/10 19/1/10 23/1/12
f 20/1/10 23/1/12 24/1/12
f 21/1/11 25/1/13 26/1/13
f 21/1/11 26/1/13 22/1/11
f 24/1/12 23/1/12 27/1/14
f 24/1/12 27/1/14 28/1/14
f 25/1/13 29/1/15 30/1/15
f 25/1/13 30/1/15 26/1/13
f 28/1/14 27/1/14 31/1/16
f 28/1/14 31/1/16 32/1/16
f 29/1/15 33/1/17 34/1/17
f 29/1/15 34/1/17 30/1/15
f 32/1/16 31/1/16 35/1/18
f 32/1/16 35/1/18 36/1/18
f 6/1/19 5/1/19 1/1/19
f 4/1/19 6/1/19 1/1/19
f 33/1/20 36/1/20 35/1/20
f 33/1/20 35/1/20 34/1/20
f 4/1/1 3/1/2 37/1/21
f 4/1/1 37/1/21 38/1/22
f 6/1/3 39/1/23 40/1/24
f 6/1/3 40/1/24 7/1/4
f 3/1/2 10/1/5 41/1/25
f 3/1/2 41/1/25 37/1/21
f 7/1/4 40/1/24 42/1/26
f 7/1/4 42/1/26 11/1/6
f 10/1/5 14/1/7 43/1/27
f 10/1/5 43/1/27 41/1/25
f 11/1/6 42/1/26 44/1/28
f 11/1/6 44/1/28 15/1/8
f 14/1/7 18/1/9 45/1/29
f 14/1/7 45/1/29 43/1/27
f 15/1/8 44/1/28 46/1/30
f 15/1/8 46/1/30 19/1/10
f 18/1/9 22/1/11 47/1/31
f 18/1/9 47/1/31 45/1/29
f 19/1/10 46/1/30 48/1/32
f 19/1/10 48/1/32 23/1/12
f 22/1/11 26/1/13 49/1/33
f 22/1/11 49/1/33 47/1/31
f 23/1/12 48/1/32 50/1/34
f 23/1/12 50/1/34 27/1/14
f 26/1/13 30/1/15 51/1/35
f 26/1/13 51/1/35 49/1/33
f 27/1/14 50/1/34 52/1/36
f 27/1/14 52/1/36 31/1/16
f 30/1/15 34/1/17 53/1/37
f 30/1/15 53/1/37 51/1/35
f 31/1/16 52/1/36 54/1/38
f 31/1/16 54/1/38 35/1/18
f 39/1/39 6/1/19 4/1/19
f 38/1/39 39/1/39 4/1/19
f 34/1/20 35/1/20 54/1/40
f 34/1/20 54/1/40 53/1/40
f 38/1/22 37/1/21 55/1/41
f 38/1/22 55/1/41 56/1/42
f 39/1/23 57/1/43 58/1/44
f 39/1/23 58/1/44 40/1/24
f 37/1/21 41/1/25 59/1/45
f 37/1/21 59/1/45 55/1/41
f 40/1/24 58/1/44 60/1/46
f 40/1/24 60/1/46 42/1/26
f 41/1/25 43/1/27 61/1/47
f 41/1/25 61/1/47 59/1/45
f 42/1/26 60/1/46 62/1/48
f 42/1/26 62/1/48 44/1/28
f 43/1/27 45/1/29 63/1/49
f 43/1/27 63/1/49 61/1/47
f 44/1/28 62/1/48 64/1/50
f 44/1/28 64/1/50 46/1/30
f 45/1/29 47/1/31 65/1/51
f 45/1/29 65/1/51 63/1/49
f 46/1/30 64/1/50 66/1/52
f 46/1/30 66/1/52 48/1/32
f 47/1/31 49/1/33 67/1/53
f 47/1/31 67/1/53 65/1/51
f 48/1/32 66/1/52 68/1/54
f 48/1/32 68/1/54 50/1/34
f 49/1/33 51/1/35 69/1/55
f 49/1/33 69/1/55 67/1/53
f 50/1/34 68/1/54 70/1/56
f 50/1/34 70/1/56 52/1/36
f 51/1/35 53/1/37 71/1/57
f 51/1/35 71/1/57 69/1/55
f 52/1/36 70/1/56 72/1/58
f 52/1/36 72/1/58 54/1/38
f 57/1/59 39/1/39 38/1/39
f 56/1/59 57/1/59 38/1/39
f 53/1/40 54/1/40 72/1/60
f 53/1/40 72/1/60 71/1/60
f 56/1/42 55/1/41 73/1/61
f 56/1/42 73/1/61 74/1/62
f 57/1/43 75/1/63 76/1/64
f 57/1/43 76/1/64 58/1/44
f 55/1/41 59/1/45 77/1/65
f 55/1/41 77/1/65 73/1/61
f 58/1/44 76/1/64 78/1/66
f 58/1/44 78/1/66 60/1/46
f 59/1/45 61/1/47 79/1/67
f 59/1/45 79/1/67 77/1/65
f 60/1/46 78/1/66 80/1/68
f 60/1/46 80/1/68 62/1/48
f 61/1/47 63/1/49 81/1/69
f 61/1/47 81/1/69 79/1/67
f 62/1/48 80/1/68 82/1/70
f 62/1/48 82/1/70 64/1/50
f 63/1/49 65/1/51 83/1/71
f 63/1/49 83/1/71 81/1/69
f 64/1/50 82/1/70 84/1/72
f 64/1/50 84/1/72 66/1/52
f 65/1/51 67/1/53 85/1/73
f 65/1/51 85/1/73 83/1/71
f 66/1/52 84/1/72 86/1/74
f 66/1/52 86/1/74 68/1/54
f 67/1/53 69/1/55 87/1/75
f 67/1/53 87/1/75 85/1/73
f 68/1/54 86/1/74 88/1/76
f 68/1/54 88/1/76 70/1/56
f 69/1/55 71/1/57 89/1/77
f 69/1/55 89/1/77 87/1/75
f 70/1/56 88/1/76 90/1/78
f 70/1/56 90/1/78 72/1/58
f 75/1/79 57/1/59 56/1/59
f 74/1/79 75/1/79 56/1/59
f 71/1/60 72/1/60 90/1/80
f 71/1/60 90/1/80 89/1/80
f 74/1/62 73/1/61 91/1/81
f 74/1/62 91/1/81 92/1/82
f 75/1/63 93/1/83 94/1/84
f 75/1/63 94/1/84 76/1/64
f 73/1/61 77/1/65 95/1/85
f 73/1/61 95/1/85 91/1/81
f 76/1/64 94/1/84 96/1/86
f 76/1/64 96/1/86 78/1/66
f 77/1/65 79/1/67 97/1/87
f 77/1/65 97/1/87 95/1/85
f 78/1/66 96/1/86 98/1/88
f 78/1/66 98/1/88 80/1/68
f 79/1/67 81/1/69 99/1/89
f 79/1/67 99/1/89 97/1/87
f 80/1/68 98/1/88 100/1/90
f 80/1/68 100/1/90 82/1/70
f 81/1/69 83/1/71 101/1/91
f 81/1/69 101/1/91 99/1/89
f 82/1/70 100/1/90 102/1/92
f 82/1/70 102/1/92 84/1/72
f 83/1/71 85/1/73 103/1/93
f 83/1/71 103/1/93 101/1/91
f 84/1/72 102/1/92 104/1/94
f 84/1/72 104/1/94 86/1/74
f 85/1/73 87/1/75 105/1/95
f 85/1/73 105/1/95 103/1/93
f 86/1/74 104/1/94 106/1/96
f 86/1/74 106/1/96 88/1/76
f 87/1/75 89/1/77 107/1/97
f 87/1/75 107/1/97 105/1/95
f 88/1/76 106/1/96 108/1/98
f 88/1/76 108/1/98 90/1/78
f 93/1/99 75/1/79 74/1/79
f 92/1/99 93/1/99 74/1/79
f 89/1/80 90/1/80 108/1/100
f 89/1/80 108/1/100 107/1/100
f 92/1/82 91/1/81 109/1/101
f 92/1/82 109/1/101 110/1/102
f 93/1/83 111/1/103 112/1/104
f 93/1/83 112/1/104 94/1/84
f 91/1/81 95/1/85 113/1/105
f 91/1/81 113/1/105 109/1/101
f 94/1/84 112/1/104 114/1/106
f 94/1/84 114/1/106 96/1/86
f 95/1/85 97/1/87 115/1/107
f 95/1/85 115/1/107 113/1/105
f 96/1/86 114/1/106 116/1/108
f 96/1/86 116/1/108 98/1/88
f 97/1/87 99/1/89 117/1/109
f 97/1/87 117/1/109 115/1/107
f 98/1/88 116/1/108 118/1/110
f 98/1/88 118/1/110 100/1/90
f 99/1/89 101/1/91 119/1/111
f 99/1/89 119/1/111 117/1/109
f 100/1/90 118/1/110 120/1/112
f 100/1/90 120/1/112 102/1/92
f 101/1/91 103/1/93 121/1/113
f 101/1/91 121/1/113 119/1/111
f 102/1/92 120/1/112 122/1/114
f 102/1/92 122/1/114 104/1/94
f 103/1/93 105/1/95 123/1/115
f 103/1/93 123/1/115 121/1/113
f 104/1/94 122/1/114 124/1/116
f 104/1/94 124/1/116 106/1/96
f 105/1/95 107/1/97 125/1/117
f 105/1/95 125/1/117 123/1/115
f 106/1/96 124/1/116 126/1/118
f 106/1/96 126/1/118 108/1/98
f 111/1/119 93/1/99 92/1/99
f 110/1/119 111/1/119 92/1/99
f 107/1/100 108/1/100 126/1/120
f 107/1/100 126/1/120 125/1/120
f 110/1/102 109/1/101 127/1/121
f 110/1/102 127/1/121 128/1/122
f 111/1/103 129/1/123 130/1/124
f 111/1/103 130/1/124 112/1/104
f 109/1/101 113/1/105 131/1/125
f 109/1/101 131/1/125 127/1/121
f 112/1/104 130/1/124 132/1/126
f 112/1/104 132/1/126 114/1/106
f 113/1/105 115/1/107 133/1/127
f 113/1/105 133/1/127 131/1/125
f 114/1/106 132/1/126 134/1/128
f 114/1/106 134/1/128 116/1/108
f 115/1/107 117/1/109 135/1/129
f 115/1/107 135/1/129 133/1/127
f 116/1/108 134/1/128 136/1/130
f 116/1/108 136/1/130 118/1/110
f 117/1/109 119/1/111 137/1/131
f 117/1/109 137/1/131 135/1/129
f 118/1/110 136/1/130 138/1/132
f 118/1/110 138/1/132 120/1/112
f 119/1/111 121/1/113 139/1/133
f 119/1/111 139/1/133 137/1/131
f 120/1/112 138/1/132 140/1/134
f 120/1/112 140/1/134 122/1/114
f 121/1/113 123/1/115 141/1/135
f 121/1/113 141/1/135 139/1/133
f 122/1/114 140/1/134 142/1/136
f 122/1/114 142/1/136 124/1/116
f 123/1/115 125/1/117 143/1/137
f 123/1/115 143/1/137 141/1/135
f 124/1/116 142/1/136 144/1/138
f 124/1/116 144/1/138 126/1/118
f 129/1/139 111/1/119 110/1/119
f 128/1/139 129/1/139 110/1/119
f 125/1/120 126/1/120 144/1/140
f 125/1/120 144/1/140 143/1/140
f 128/1/122 127/1/121 145/1/141
f 128/1/122 145/1/141 146/1/142
f 129/1/123 147/1/143 148/1/144
f 129/1/123 148/1/144 130/1/124
f 127/1/121 131/1/125 149/1/145
f 127/1/121 149/1/145 145/1/141
f 130/1/124 148/1/144 150/1/146
f 130/1/124 150/1/146 132/1/126
f 131/1/125 133/1/127 151/1/147
f 131/1/125 151/1/147 149/1/145
f 132/1/126 150/1/146 152/1/148
f 132/1/126 152/1/148 134/1/128
f 133/1/127 135/1/129 153/1/149
f 133/1/127 153/1/149 151/1/147
f 134/1/128 152/1/148 154/1/150
f 134/1/128 154/1/150 136/1/130
f 135/1/129 137/1/131 155/1/151
f 135/1/129 155/1/151 153/1/149
f 136/1/130 154/1/150 156/1/152
f 136/1/130 156/1/152 138/1/132
f 137/1/131 139/1/133 157/1/153
f 137/1/131 157/1/153 155/1/151
f 138/1/132 156/1/152 158/1/154
f 138/1/132 158/1/154 140/1/134
f 139/1/133 141/1/135 159/1/155
f 139/1/133 159/1/155 157/1/153
f 140/1/134 158/1/154 160/1/156
f 140/1/134 160/1/156 142/1/136
f 141/1/135 143/1/137 161/1/157
f 141/1/135 161/1/157 159/1/155
f 142/1/136 160/1/156 162/1/158
f 142/1/136 162/1/158 144/1/138
f 147/1/159 129/1/139 128/1/139
f 146/1/159 147/1/159 128/1/139
f 143/1/140 144/1/140 162/1/160
f 143/1/140 162/1/160 161/1/160
f 146/1/142 145/1/141 163/1/161
f 146/1/142 163/1/161 164/1/162
f 147/1/143 165/1/163 166/1/164
f 147/1/143 166/1/164 148/1/144
f 145/1/141 149/1/145 167/1/165
f 145/1/141 167/1/165 163/1/161
f 148/1/144 166/1/164 168/1/166
f 148/1/144 168/1/166 150/1/146
f 149/1/145 151/1/147 169/1/167
f 149/1/145 169/1/167 167/1/165
f 150/1/146 168/1/166 170/1/168
f 150/1/146 170/1/168 152/1/148
f 151/1/147 153/1/149 171/1/169
f 151/1/147 171/1/169 169/1/167
f 152/1/148 170/1/168 172/1/170
f 152/1/148 172/1/170 154/1/150
f 153/1/149 155/1/151 173/1/171
f 153/1/149 173/1/171 171/1/169
f 154/1/150 172/1/170 174/1/172
f 154/1/150 174/1/172 156/1/152
f 155/1/151 157/1/153 175/1/173
f 155/1/151 175/1/173 173/1/171
f 156/1/152 174/1/172 176/1/174
f 156/1/152 176/1/174 158/1/154
f 157/1/153 159/1/155 177/1/175
f 157/1/153 177/1/175 175/1/173
f 158/1/154 176/1/174 178/1/176
f 158/1/154 178/1/176 160/1/156
f 159/1/155 161/1/157 179/1/177
f 159/1/155 179/1/177 177/1/175
f 160/1/156 178/1/176 180/1/178
f 160/1/156 180/1/178 162/1/158
f 165/1/179 147/1/159 146/1/159
f 164/1/179 165/1/179 146/1/159
f 161/1/160 162/1/160 180/1/180
f 161/1/160 180/1/180 179/1/180
f 164/1/162 163/1/161 181/1/181
f 164/1/162 181/1/181 182/1/182
f 165/1/163 183/1/183 184/1/184
f 165/1/163 184/1/184 166/1/164
f 163/1/161 167/1/165 185/1/185
f 163/1/161 185/1/185 181/1/181
f 166/1/164 184/1/184 186/1/186
f 166/1/164 186/1/186 168/1/166
f 167/1/165 169/1/167 187/1/187
f 167/1/165 187/1/187 185/1/185
f 168/1/166 186/1/186 188/1/188
f 168/1/166 188/1/188 170/1/168
f 169/1/167 171/1/169 189/1/189
f 169/1/167 189/1/189 187/1/187
f 170/1/168 188/1/188 190/1/190
f 170/1/168 190/1/190 172/1/170
f 171/1/169 173/1/171 191/1/191
f 171/1/169 191/1/191 189/1/189
f 172/1/170 190/1/190 192/1/192
f 172/1/170 192/1/192 174/1/172
f 173/1/171 175/1/173 193/1/193
f 173/1/171 193/1/193 191/1/191
f 174/1/172 192/1/192 194/1/194
f 174/1/172 194/1/194 176/1/174
f 175/1/173 177/1/175 195/1/195
f 175/1/173 195/1/195 193/1/193
f 176/1/174 194/1/194 196/1/196
f 176/1/174 196/1/196 178/1/176
f 177/1/175 179/1/177 197/1/197
f 177/1/175 197/1/197 195/1/195
f 178/1/176 196/1/196 198/1/198
f 178/1/176 198/1/198 180/1/178
f 183/1/199 165/1/179 164/1/179
f 182/1/199 183/1/199 164/1/179
f 179/1/180 180/1/180 198/1/200
f 179/1/180 198/1/200 197/1/200
f 182/1/182 181/1/181 199/1/201
f 182/1/182 199/1/201 200/1/202
f 183/1/183 201/1/203 202/1/204
f 183/1/183 202/1/204 184/1/184
f 181/1/181 185/1/185 203/1/205
f 181/1/181 203/1/205 199/1/201
f 184/1/184 202/1/204 204/1/206
f 184/1/184 204/1/206 186/1/186
f 185/1/185 187/1/187 205/1/207
f 185/1/185 205/1/207 203/1/205
f 186/1/186 204/1/206 206/1/208
f 186/1/186 206/1/208 188/1/188
f 187/1/187 189/1/189 207/1/209
f 187/1/187 207/1/209 205/1/207
f 188/1/188 206/1/208 208/1/210
f 188/1/188 208/1/210 190/1/190
f 189/1/189 191/1/191 209/1/211
f 189/1/189 209/1/211 207/1/209
f 190/1/190 208/1/210 210/1/212
f 190/1/190 210/1/212 192/1/192
f 191/1/191 193/1/193 211/1/213
f 191/1/191 211/1/213 209/1/211
f 192/1/192 210/1/212 212/1/214
f 192/1/192 212/1/214 194/1/194
f 193/1/193 195/1/195 213/1/215
f 193/1/193 213/1/215 211/1/213
f 194/1/194 212/1/214 214/1/216
f 194/1/194 214/1/216 196/1/196
f 195/1/195 197/1/197 215/1/217
f 195/1/195 215/1/217 213/1/215
f 196/1/196 214/1/216 216/1/218
f 196/1/196 216/1/218 198/1/198
f 201/1/219 183/1/199 182/1/199
f 200/1/219 201/1/219 182/1/199
f 197/1/200 198/1/200 216/1/220
f 197/1/200 216/1/220 215/1/220
f 200/1/202 199/1/201 217/1/221
f 200/1/202 217/1/221 218/1/222
f 201/1/203 219/1/223 220/1/224
f 201/1/203 220/1/224 202/1/204
f 199/1/201 203/1/205 221/1/225
f 199/1/201 221/1/225 217/1/221
f 202/1/204 220/1/224 222/1/226
f 202/1/204 222/1/226 204/1/206
f 203/1/205 205/1/207 223/1/227
f 203/1/205 223/1/227 221/1/225
f 204/1/206 222/1/226 224/1/228
f 204/1/206 224/1/228 206/1/208
f 205/1/207 207/1/209 225/1/229
f 205/1/207 225/1/229 223/1/227
f 206/1/208 224/1/228 226/1/230
f 206/1/208 226/1/230 208/1/210
f 207/1/209 209/1/211 227/1/231
f 207/1/209 227/1/231 225/1/229
f 208/1/210 226/1/230 228/1/232
f 208/1/210 228/1/232 210/1/212
f 209/1/211 211/1/213 229/1/233
f 209/1/211 229/1/233 227/1/231
f 210/1/212 228/1/232 230/1/234
f 210/1/212 230/1/234 212/1/214
f 211/1/213 213/1/215 231/1/235
f 211/1/213 231/1/235 229/1/233
f 212/1/214 230/1/234 232/1/236
f 212/1/214 232/1/236 214/1/216
f 213/1/215 215/1/217 233/1/237
f 213/1/215 233/1/237 231/1/235
f 214/1/216 232/1/236 234/1/238
f 214/1/216 234/1/238 216/1/218
f 219/1/239 201/1/219 200/1/219
f 218/1/239 219/1/239 200/1/219
f 215/1/220 216/1/220 234/1/240
f 215/1/220 234/1/240 233/1/240
f 218/1/222 217/1/221 235/1/241
f 218/1/222 235/1/241 236/1/242
f 219/1/223 237/1/243 238/1/244
f 219/1/223 238/1/244 220/1/224
f 217/1/221 221/1/225 239/1/245
f 217/1/221 239/1/245 235/1/241
f 220/1/224 238/1/244 240/1/246
f 220/1/224 240/1/246 222/1/226
f 221/1/225 223/1/227 241/1/247
f 221/1/225 241/1/247 239/1/245
f 222/1/226 240/1/246 242/1/248
f 222/1/226 242/1/248 224/1/228
f 223/1/227 225/1/229 243/1/249
f 223/1/227 243/1/249 241/1/247
f 224/1/228 242/1/248 244/1/250
f 224/1/228 244/1/250 226/1/230
f 225/1/229 227/1/231 245/1/251
f 225/1/229 245/1/251 243/1/249
f 226/1/230 244/1/250 246/1/252
f 226/1/230 246/1/252 228/1/232
f 227/1/231 229/1/233 247/1/253
f 227/1/231 247/1/253 245/1/251
f 228/1/232 246/1/252 248/1/254
f 228/1/232 248/1/254 230/1/234
f 229/1/233 231/1/235 249/1/255
f 229/1/233 249/1/255 247/1/253
f 230/1/234 248/1/254 250/1/256
f 230/1/234 250/1/256 232/1/236
f 231/1/235 233/1/237 251/1/257
f 231/1/235 251/1/257 249/1/255
f 232/1/236 250/1/256 252/1/258
f 232/1/236 252/1/258 234/1/238
f 237/1/259 219/1/239 218/1/239
f 236/1/259 237/1/259 218/1/239
f 233/1/240 234/1/240 252/1/260
f 233/1/240 252/1/260 251/1/260
f 236/1/242 235/1/241 253/1/261
f 236/1/242 253/1/261 254/1/262
f 237/1/243 255/1/263 256/1/264
f 237/1/243 256/1/264 238/1/244
f 235/1/241 239/1/245 257/1/265
f 235/1/241 257/1/265 253/1/261
f 238/1/244 256/1/264 258/1/266
f 238/1/244 258/1/266 240/1/246
f 239/1/245 241/1/247 259/1/267
f 239/1/245 259/1/267 257/1/265
f 240/1/246 258/1/266 260/1/268
f 240/1/246 260/1/268 242/1/248
f 241/1/247 243/1/249 261/1/269
f 241/1/247 261/1/269 259/1/267
f 242/1/248 260/1/268 262/1/270
f 242/1/248 262/1/270 244/1/250
f 243/1/249 245/1/251 263/1/271
f 243/1/249 263/1/271 261/1/269
f 244/1/250 262/1/270 264/1/272
f 244/1/250 264/1/272 246/1/252
f 245/1/251 247/1/253 265/1/273
f 245/1/251 265/1/273 263/1/271
f 246/1/252 264/1/272 266/1/274
f 246/1/252 266/1/274 248/1/254
f 247/1/253 249/1/255 267/1/275
f 247/1/253 267/1/275 265/1/273
f 248/1/254 266/1/274 268/1/276
f 248/1/254 268/1/276 250/1/256
f 249/1/255 251/1/257 269/1/277
f 249/1/255 269/1/277 267/1/275
f 250/1/256 268/1/276 270/1/278
f 250/1/256 270/1/278 252/1/258
f 255/1/279 237/1/259 236/1/259
f 254/1/279 255/1/279 236/1/259
f 251/1/260 252/1/260 270/1/280
f 251/1/260 270/1/280 269/1/280
f 254/1/262 253/1/261 271/1/281
f 254/1/262 271/1/281 272/1/282
f 255/1/263 273/1/283 274/1/284
f 255/1/263 274/1/284 256/1/264
f 253/1/261 257/1/265 275/1/285
f 253/1/261 275/1/285 271/1/281
f 256/1/264 274/1/284 276/1/286
f 256/1/264 276/1/286 258/1/266
f 257/1/265 259/1/267 277/1/287
f 257/1/265 277/1/287 275/1/285
f 258/1/266 276/1/286 278/1/288
f 258/1/266 278/1/288 260/1/268
f 259/1/267 261/1/269 279/1/289
f 259/1/267 279/1/289 277/1/287
f 260/1/268 278/1/288 280/1/290
f 260/1/268 280/1/290 262/1/270
f 261/1/269 263/1/271 281/1/291
f 261/1/269 281/1/291 279/1/289
f 262/1/270 280/1/290 282/1/292
f 262/1/270 282/1/292 264/1/272
f 263/1/271 265/1/273 283/1/293
f 263/1/271 283/1/293 281/1/291
f 264/1/272 282/1/292 284/1/294
f 264/1/272 284/1/294 266/1/274
f 265/1/273 267/1/275 285/1/295
f 265/1/273 285/1/295 283/1/293
f 266/1/274 284/1/294 286/1/296
f 266/1/274 286/1/296 268/1/276
f 267/1/275 269/1/277 287/1/297
f 267/1/275 287/1/297 285/1/295
f 268/1/276 286/1/296 288/1/298
f 268/1/276 288/1/298 270/1/278
f 273/1/299 255/1/279 254/1/279
f 272/1/299 273/1/299 254/1/279
f 269/1/280 270/1/280 288/1/300
f 269/1/280 288/1/300 287/1/300
f 272/1/282 271/1/281 289/1/301
f 272/1/282 289/1/301 290/1/302
f 273/1/283 291/1/303 292/1/304
f 273/1/283 292/1/304 274/1/284
f 271/1/281 275/1/285 293/1/305
f 271/1/281 293/1/305 289/1/301
f 274/1/284 292/1/304 294/1/306
f 274/1/284 294/1/306 276/1/286
f 275/1/285 277/1/287 295/1/307
f 275/1/285 295/1/307 293/1/305
f 276/1/286 294/1/306 296/1/308
f 276/1/286 296/1/308 278/1/288
f 277/1/287 279/1/289 297/1/309
f 277/1/287 297/1/309 295/1/307
f 278/1/288 296/1/308 298/1/310
f 278/1/288 298/1/310 280/1/290
f 279/1/289 281/1/291 299/1/311
f 279/1/289 299/1/311 297/1/309
f 280/1/290 298/1/310 300/1/312
f 280/1/290 300/1/312 282/1/292
f 281/1/291 283/1/293 301/1/313
f 281/1/291 301/1/313 299/1/311
f 282/1/292 300/1/312 302/1/314
f 282/1/292 302/1/314 284/1/294
f 283/1/293 285/1/295 303/1/315
f 283/1/293 303/1/315 301/1/313
f 284/1/294 302/1/314 304/1/316
f 284/1/294 304/1/316 286/1/296
f 285/1/295 287/1/297 305/1/317
f 285/1/295 305/1/317 303/1/315
f 286/1/296 304/1/316 306/1/318
f 286/1/296 306/1/318 288/1/298
f 291/1/319 273/1/299 272/1/299
f 290/1/319 291/1/319 272/1/299
f 287/1/300 288/1/300 306/1/320
f 287/1/300 306/1/320 305/1/320
f 290/1/302 289/1/301 307/1/321
f 290/1/302 307/1/321 308/1/322
f 291/1/303 309/1/323 310/1/324
f 291/1/303 310/1/324 292/1/304
f 289/1/301 293/1/305 311/1/325
f 289/1/301 311/1/325 307/1/321
f 292/1/304 310/1/324 312/1/326
f 292/1/304 312/1/326 294/1/306
f 293/1/305 295/1/307 313/1/327
f 293/1/305 313/1/327 311/1/325
f 294/1/306 312/1/326 314/1/328
f 294/1/306 314/1/328 296/1/308
f 295/1/307 297/1/309 315/1/329
f 295/1/307 315/1/329 313/1/327
f 296/1/308 314/1/328 316/1/330
f 296/1/308 316/1/330 298/1/310
f 297/1/309 299/1/311 317/1/331
f 297/1/309 317/1/331 315/1/329
f 298/1/310 316/1/330 318/1/332
f 298/1/310 318/1/332 300/1/312
f 299/1/311 301/1/313 319/1/333
f 299/1/311 319/1/333 317/1/331
f 300/1/312 318/1/332 320/1/334
f 300/1/312 320/1/334 302/1/314
f 301/1/313 303/1/315 321/1/335
f 301/1/313 321/1/335 319/1/333
f 302/1/314 320/1/334 322/1/336
f 302/1/314 322/1/336 304/1/316
f 303/1/315 305/1/317 323/1/337
f 303/1/315 323/1/337 321/1/335
f 304/1/316 322/1/336 324/1/338
f 304/1/316 324/1/338 306/1/318
f 309/1/339 291/1/319 290/1/319
f 308/1/339 309/1/339 290/1/319
f 305/1/320 306/1/320 324/1/340
f 305/1/320 324/1/340 323/1/340
f 308/1/322 307/1/321 325/1/341
f 308/1/322 325/1/341 326/1/342
f 309/1/323 327/1/343 328/1/344
f 309/1/323 328/1/344 310/1/324
f 307/1/321 311/1/325 329/1/345
f 307/1/321 329/1/345 325/1/341
f 310/1/324 328/1/344 330/1/346
f 310/1/324 330/1/346 312/1/326
f 311/1/325 313/1/327 331/1/347
f 311/1/325 331/1/347 329/1/345
f 312/1/326 330/1/346 332/1/348
f 312/1/326 332/1/348 314/1/328
f 313/1/327 315/1/329 333/1/349
f 313/1/327 333/1/349 331/1/347
f 314/1/328 332/1/348 334/1/350
f 314/1/328 334/1/350 316/1/330
f 315/1/329 317/1/331 335/1/351
f 315/1/329 335/1/351 333/1/349
f 316/1/330 334/1/350 336/1/352
f 316/1/330 336/1/352 318/1/332
f 317/1/331 319/1/333 337/1/353
f 317/1/331 337/1/353 335/1/351
f 318/1/332 336/1/352 338/1/354
f 318/1/332 338/1/354 320/1/334
f 319/1/333 321/1/335 339/1/355
f 319/1/333 339/1/355 337/1/353
f 320/1/334 338/1/354 340/1/356
f 320/1/334 340/1/356 322/1/336
f 321/1/335 323/1/337 341/1/357
f 321/1/335 341/1/357 339/1/355
f 322/1/336 340/1/356 342/1/358
f 322/1/336 342/1/358 324/1/338
f 327/1/359 309/1/339 308/1/339
f 326/1/359 327/1/359 308/1/339
f 323/1/340 324/1/340 342/1/360
f 323/1/340 342/1/360 341/1/360
f 326/1/342 325/1/341 343/1/361
f 326/1/342 343/1/361 344/1/362
f 327/1/343 345/1/363 346/1/364
f 327/1/343 346/1/364 328/1/344
f 325/1/341 329/1/345 347/1/365
f 325/1/341 347/1/365 343/1/361
f 328/1/344 346/1/364 348/1/366
f 328/1/344 348/1/366 330/1/346
f 329/1/345 331/1/347 349/1/367
f 329/1/345 349/1/367 347/1/365
f 330/1/346 348/1/366 350/1/368
f 330/1/346 350/1/368 332/1/348
f 331/1/347 333/1/349 351/1/369
f 331/1/347 351/1/369 349/1/367
f 332/1/348 350/1/368 352/1/370
f 332/1/348 352/1/370 334/1/350
f 333/1/349 335/1/351 353/1/371
f 333/1/349 353/1/371 351/1/369
f 334/1/350 352/1/370 354/1/372
f 334/1/350 354/1/372 336/1/352
f 335/1/351 337/1/353 355/1/373
f 335/1/351 355/1/373 353/1/371
f 336/1/352 354/1/372 356/1/374
f 336/1/352 356/1/374 338/1/354
f 337/1/353 339/1/355 357/1/375
f 337/1/353 357/1/375 355/1/373
f 338/1/354 356/1/374 358/1/376
f 338/1/354 358/1/376 340/1/356
f 339/1/355 341/1/357 359/1/377
f 339/1/355 359/1/377 357/1/375
f 340/1/356 358/1/376 360/1/378
f 340/1/356 360/1/378 342/1/358
f 345/1/379 327/1/359 326/1/359
f 344/1/379 345/1/379 326/1/359
f 341/1/360 342/1/360 360/1/380
f 341/1/360 360/1/380 359/1/380
f 1/1/381 5/1/381 8/1/381
f 1/1/381 8/1/381 2/1/381
f 2/1/381 8/1/381 12/1/381
f 2/1/381 12/1/381 9/1/381
f 9/1/381 12/1/381 16/1/381
f 9/1/381 16/1/381 13/1/381
f 13/1/381 16/1/381 20/1/381
f 13/1/381 20/1/381 17/1/381
f 17/1/381 20/1/381 24/1/381
f 17/1/381 24/1/381 21/1/381
f 21/1/381 24/1/381 28/1/381
f 21/1/381 28/1/381 25/1/381
f 25/1/381 28/1/381 32/1/381
f 25/1/381 32/1/381 29/1/381
f 29/1/381 32/1/381 36/1/381
f 29/1/381 36/1/381 33/1/381
f 346/1/382 345/1/382 344/1/382
f 343/1/382 346/1/382 344/1/382
f 348/1/382 346/1/382 343/1/382
f 347/1/382 348/1/382 343/1/382
f 350/1/382 348/1/382 347/1/382
f 349/1/382 350/1/382 347/1/382
f 352/1/382 350/1/382 349/1/382
f 351/1/382 352/1/382 349/1/382
f 354/1/382 352/1/382 351/1/382
f 353/1/382 354/1/382 351/1/382
f 356/1/382 354/1/382 353/1/382
f 355/1/382 356/1/382 353/1/382
f 358/1/382 356/1/382 355/1/382
f 357/1/382 358/1/382 355/1/382
f 360/1/382 358/1/382 357/1/382
f 359/1/382 360/1/382 357/1/382
f 361/1/381 362/1/381 363/1/381
f 361/1/381 363/1/381 364/1/381
f 365/1/383 366/1/383 367/1/383
f 365/1/383 367/1/383 368/1/383
f 364/1/19 365/1/19 368/1/19
f 364/1/19 368/1/19 361/1/19
f 362/1/20 367/1/20 366/1/20
f 362/1/20 366/1/20 363/1/20
f 363/1/9 366/1/9 365/1/9
f 363/1/9 365/1/9 364/1/9
f 361/1/10 368/1/10 367/1/10
f 361/1/10 367/1/10 362/1/10
f 369/1/381 370/1/381 371/1/381
f 369/1/381 371/1/381 372/1/381
f 373/1/383 374/1/383 375/1/383
f 373/1/383 375/1/383 376/1/383
f 372/1/19 373/1/19 376/1/19
f 372/1/19 376/1/19 369/1/19
f 370/1/20 375/1/20 374/1/20
f 370/1/20 374/1/20 371/1/20
f 371/1/9 374/1/9 373/1/9
f 371/1/9 373/1/9 372/1/9
f 369/1/10 376/1/10 375/1/10
f 369/1/10 375/1/10 370/1/10
f 377/1/381 378/1/381 379/1/381
f 377/1/381 379/1/381 380/1/381
f 381/1/383 382/1/383 383/1/383
f 381/1/383 383/1/383 384/1/383
f 380/1/19 381/1/19 384/1/19
f 380/1/19 384/1/19 377/1/19
f 378/1/20 383/1/20 382/1/20
f 378/1/20 382/1/20 379/1/20
f 379/1/9 382/1/9 381/1/9
f 379/1/9 381/1/9 380/1/9
f 377/1/10 384/1/10 383/1/10
f 377/1/10 383/1/10 378/1/10
f 385/1/381 386/1/381 387/1/381
f 385/1/381 387/1/381 388/1/381
f 389/1/383 390/1/383 391/1/383
f 389/1/383 391/1/383 392/1/383
f 388/1/19 389/1/19 392/1/19
f 388/1/19 392/1/19 385/1/19
f 386/1/20 391/1/20 390/1/20
f 386/1/20 390/1/20 387/1/20
f 387/1/9 390/1/9 389/1/9
f 387/1/9 389/1/9 388/1/9
f 385/1/10 392/1/10 391/1/10
f 385/1/10 391/1/10 386/1/10
f 393/2/384 394/2/384 395/2/384
f 393/2/384 395/2/384 396/2/384
f 397/2/385 398/2/385 399/2/385
f 397/2/385 399/2/385 400/2/385
f 400/2/9 399/2/9 394/2/9
f 400/2/9 394/2/9 393/2/9
f 399/2/383 398/2/383 395/2/383
f 399/2/383 395/2/383 394/2/383
f 398/2/10 397/2/10 396/2/10
f 398/2/10 396/2/10 395/2/10
f 397/2/381 400/2/381 393/2/381
f 397/2/381 393/2/381 396/2/381
f 401/1/381 402/1/381 403/1/381
f 401/1/381 403/1/381 404/1/381
f 404/1/19 405/1/19 406/1/19
f 404/1/19 406/1/19 401/1/19
f 402/1/20 407/1/20 408/1/20
f 402/1/20 408/1/20 403/1/20
f 401/1/10 406/1/10 407/1/10
f 401/1/10 407/1/10 402/1/10
f 403/3/9 408/4/9 405/5/9
f 403/3/9 405/5/9 404/6/9
f 408/3/383 407/7/383 406/8/383
f 408/3/383 406/8/383 405/6/383
