# Procedurally generated by dev-env-utils/scripts/gen_guardrails_thrie.py -- do not hand edit
mtllib guardrail_w_beam_thrie_transition.mtl
o guardrail_w_beam_thrie_transition_end_right_flat_mirrored
v 1.000000 0.687500 0.150000
v 1.000000 0.722303 0.099729
v 1.000000 0.722303 0.250000
v 1.000000 0.687500 0.250000
v 1.000000 0.737598 0.077636
v 1.000000 0.737598 0.250000
v 1.000000 0.743750 0.068750
v 1.000000 0.743750 0.250000
v 1.000000 0.758514 0.062422
v 1.000000 0.758514 0.250000
v 1.000000 0.787500 0.050000
v 1.000000 0.787500 0.250000
v 1.000000 0.811174 0.061837
v 1.000000 0.811174 0.250000
v 1.000000 0.825000 0.068750
v 1.000000 0.825000 0.250000
v 1.000000 0.835863 0.110393
v 1.000000 0.835863 0.250000
v 1.000000 0.843750 0.140625
v 1.000000 0.843750 0.250000
v 1.000000 0.851637 0.110393
v 1.000000 0.851637 0.250000
v 1.000000 0.862500 0.068750
v 1.000000 0.862500 0.250000
v 1.000000 0.876326 0.061837
v 1.000000 0.876326 0.250000
v 1.000000 0.900000 0.050000
v 1.000000 0.900000 0.250000
v 1.000000 0.928986 0.062422
v 1.000000 0.928986 0.250000
v 1.000000 0.943750 0.068750
v 1.000000 0.943750 0.250000
v 1.000000 0.949902 0.077636
v 1.000000 0.949902 0.250000
v 1.000000 0.965197 0.099729
v 1.000000 0.965197 0.250000
v 1.000000 1.000000 0.150000
v 1.000000 1.000000 0.250000
vt 0.890625 0.125000
vn 1.000000 0.000000 0.000000
usemtl body
f 1/1/1 2/1/1 3/1/1
f 1/1/1 3/1/1 4/1/1
f 2/1/1 5/1/1 6/1/1
f 2/1/1 6/1/1 3/1/1
f 5/1/1 7/1/1 8/1/1
f 5/1/1 8/1/1 6/1/1
f 7/1/1 9/1/1 10/1/1
f 7/1/1 10/1/1 8/1/1
f 9/1/1 11/1/1 12/1/1
f 9/1/1 12/1/1 10/1/1
f 11/1/1 13/1/1 14/1/1
f 11/1/1 14/1/1 12/1/1
f 13/1/1 15/1/1 16/1/1
f 13/1/1 16/1/1 14/1/1
f 15/1/1 17/1/1 18/1/1
f 15/1/1 18/1/1 16/1/1
f 17/1/1 19/1/1 20/1/1
f 17/1/1 20/1/1 18/1/1
f 19/1/1 21/1/1 22/1/1
f 19/1/1 22/1/1 20/1/1
f 21/1/1 23/1/1 24/1/1
f 21/1/1 24/1/1 22/1/1
f 23/1/1 25/1/1 26/1/1
f 23/1/1 26/1/1 24/1/1
f 25/1/1 27/1/1 28/1/1
f 25/1/1 28/1/1 26/1/1
f 27/1/1 29/1/1 30/1/1
f 27/1/1 30/1/1 28/1/1
f 29/1/1 31/1/1 32/1/1
f 29/1/1 32/1/1 30/1/1
f 31/1/1 33/1/1 34/1/1
f 31/1/1 34/1/1 32/1/1
f 33/1/1 35/1/1 36/1/1
f 33/1/1 36/1/1 34/1/1
f 35/1/1 37/1/1 38/1/1
f 35/1/1 38/1/1 36/1/1
