# Procedurally generated by dev-env-utils/scripts/gen_guardrails_box_cable.py -- do not hand edit
mtllib guardrail_cable_barrier_double.mtl
o guardrail_cable_barrier_double_post_down
v 0.443750 -0.500000 0.306250
v 0.443750 0.437500 0.306250
v 0.443750 0.437500 0.193750
v 0.443750 -0.500000 0.193750
v 0.556250 -0.500000 0.193750
v 0.556250 0.437500 0.193750
v 0.556250 0.437500 0.306250
v 0.556250 -0.500000 0.306250
v 0.465625 0.056250 0.193750
v 0.465625 0.168750 0.193750
v 0.465625 0.168750 0.096875
v 0.465625 0.056250 0.096875
v 0.534375 0.056250 0.096875
v 0.534375 0.168750 0.096875
v 0.534375 0.168750 0.193750
v 0.534375 0.056250 0.193750
v 0.465625 0.193750 0.193750
v 0.465625 0.306250 0.193750
v 0.465625 0.306250 0.096875
v 0.465625 0.193750 0.096875
v 0.534375 0.193750 0.096875
v 0.534375 0.306250 0.096875
v 0.534375 0.306250 0.193750
v 0.534375 0.193750 0.193750
v 0.465625 0.318750 0.193750
v 0.465625 0.431250 0.193750
v 0.465625 0.431250 0.096875
v 0.465625 0.318750 0.096875
v 0.534375 0.318750 0.096875
v 0.534375 0.431250 0.096875
v 0.534375 0.431250 0.193750
v 0.534375 0.318750 0.193750
v 0.465625 0.056250 0.403125
v 0.465625 0.168750 0.403125
v 0.465625 0.168750 0.306250
v 0.465625 0.056250 0.306250
v 0.534375 0.056250 0.306250
v 0.534375 0.168750 0.306250
v 0.534375 0.168750 0.403125
v 0.534375 0.056250 0.403125
v 0.465625 0.193750 0.403125
v 0.465625 0.306250 0.403125
v 0.465625 0.306250 0.306250
v 0.465625 0.193750 0.306250
v 0.534375 0.193750 0.306250
v 0.534375 0.306250 0.306250
v 0.534375 0.306250 0.403125
v 0.534375 0.193750 0.403125
v 0.465625 0.318750 0.403125
v 0.465625 0.431250 0.403125
v 0.465625 0.431250 0.306250
v 0.465625 0.318750 0.306250
v 0.534375 0.318750 0.306250
v 0.534375 0.431250 0.306250
v 0.534375 0.431250 0.403125
v 0.534375 0.318750 0.403125
vt 0.890625 0.125000
vn -1.000000 0.000000 0.000000
vn 1.000000 0.000000 0.000000
vn 0.000000 -1.000000 0.000000
vn 0.000000 1.000000 0.000000
vn 0.000000 0.000000 -1.000000
vn 0.000000 0.000000 1.000000
usemtl body
f 1/1/1 2/1/1 3/1/1
f 1/1/1 3/1/1 4/1/1
f 5/1/2 6/1/2 7/1/2
f 5/1/2 7/1/2 8/1/2
f 4/1/3 5/1/3 8/1/3
f 4/1/3 8/1/3 1/1/3
f 2/1/4 7/1/4 6/1/4
f 2/1/4 6/1/4 3/1/4
f 3/1/5 6/1/5 5/1/5
f 3/1/5 5/1/5 4/1/5
f 1/1/6 8/1/6 7/1/6
f 1/1/6 7/1/6 2/1/6
f 9/1/1 10/1/1 11/1/1
f 9/1/1 11/1/1 12/1/1
f 13/1/2 14/1/2 15/1/2
f 13/1/2 15/1/2 16/1/2
f 12/1/3 13/1/3 16/1/3
f 12/1/3 16/1/3 9/1/3
f 10/1/4 15/1/4 14/1/4
f 10/1/4 14/1/4 11/1/4
f 11/1/5 14/1/5 13/1/5
f 11/1/5 13/1/5 12/1/5
f 9/1/6 16/1/6 15/1/6
f 9/1/6 15/1/6 10/1/6
f 17/1/1 18/1/1 19/1/1
f 17/1/1 19/1/1 20/1/1
f 21/1/2 22/1/2 23/1/2
f 21/1/2 23/1/2 24/1/2
f 20/1/3 21/1/3 24/1/3
f 20/1/3 24/1/3 17/1/3
f 18/1/4 23/1/4 22/1/4
f 18/1/4 22/1/4 19/1/4
f 19/1/5 22/1/5 21/1/5
f 19/1/5 21/1/5 20/1/5
f 17/1/6 24/1/6 23/1/6
f 17/1/6 23/1/6 18/1/6
f 25/1/1 26/1/1 27/1/1
f 25/1/1 27/1/1 28/1/1
f 29/1/2 30/1/2 31/1/2
f 29/1/2 31/1/2 32/1/2
f 28/1/3 29/1/3 32/1/3
f 28/1/3 32/1/3 25/1/3
f 26/1/4 31/1/4 30/1/4
f 26/1/4 30/1/4 27/1/4
f 27/1/5 30/1/5 29/1/5
f 27/1/5 29/1/5 28/1/5
f 25/1/6 32/1/6 31/1/6
f 25/1/6 31/1/6 26/1/6
f 33/1/1 34/1/1 35/1/1
f 33/1/1 35/1/1 36/1/1
f 37/1/2 38/1/2 39/1/2
f 37/1/2 39/1/2 40/1/2
f 36/1/3 37/1/3 40/1/3
f 36/1/3 40/1/3 33/1/3
f 34/1/4 39/1/4 38/1/4
f 34/1/4 38/1/4 35/1/4
f 35/1/5 38/1/5 37/1/5
f 35/1/5 37/1/5 36/1/5
f 33/1/6 40/1/6 39/1/6
f 33/1/6 39/1/6 34/1/6
f 41/1/1 42/1/1 43/1/1
f 41/1/1 43/1/1 44/1/1
f 45/1/2 46/1/2 47/1/2
f 45/1/2 47/1/2 48/1/2
f 44/1/3 45/1/3 48/1/3
f 44/1/3 48/1/3 41/1/3
f 42/1/4 47/1/4 46/1/4
f 42/1/4 46/1/4 43/1/4
f 43/1/5 46/1/5 45/1/5
f 43/1/5 45/1/5 44/1/5
f 41/1/6 48/1/6 47/1/6
f 41/1/6 47/1/6 42/1/6
f 49/1/1 50/1/1 51/1/1
f 49/1/1 51/1/1 52/1/1
f 53/1/2 54/1/2 55/1/2
f 53/1/2 55/1/2 56/1/2
f 52/1/3 53/1/3 56/1/3
f 52/1/3 56/1/3 49/1/3
f 50/1/4 55/1/4 54/1/4
f 50/1/4 54/1/4 51/1/4
f 51/1/5 54/1/5 53/1/5
f 51/1/5 53/1/5 52/1/5
f 49/1/6 56/1/6 55/1/6
f 49/1/6 55/1/6 50/1/6
