# Procedurally generated by dev-env-utils/scripts/gen_guardrails_thrie.py -- do not hand edit
mtllib guardrail_end_turndown_thrie.mtl
o guardrail_end_turndown_thrie_mirrored
v 1.000000 0.337500 0.150000
v 1.000000 0.387500 0.068750
v 0.960526 0.387500 0.068750
v 0.960526 0.337500 0.150000
v 1.000000 0.337500 0.250000
v 0.960526 0.337500 0.250000
v 0.960526 0.387500 0.168750
v 1.000000 0.387500 0.168750
v 1.000000 0.425000 0.050000
v 0.960526 0.425000 0.050000
v 0.960526 0.425000 0.150000
v 1.000000 0.425000 0.150000
v 1.000000 0.462500 0.068750
v 0.960526 0.462500 0.068750
v 0.960526 0.462500 0.168750
v 1.000000 0.462500 0.168750
v 1.000000 0.517500 0.140625
v 0.960526 0.517500 0.140625
v 0.960526 0.517500 0.240625
v 1.000000 0.517500 0.240625
v 1.000000 0.573750 0.068750
v 0.960526 0.573750 0.068750
v 0.960526 0.573750 0.168750
v 1.000000 0.573750 0.168750
v 1.000000 0.618750 0.050000
v 0.960526 0.618750 0.050000
v 0.960526 0.618750 0.150000
v 1.000000 0.618750 0.150000
v 1.000000 0.663750 0.068750
v 0.960526 0.663750 0.068750
v 0.960526 0.663750 0.168750
v 1.000000 0.663750 0.168750
v 1.000000 0.720000 0.140625
v 0.960526 0.720000 0.140625
v 0.960526 0.720000 0.240625
v 1.000000 0.720000 0.240625
v 1.000000 0.775000 0.068750
v 0.960526 0.775000 0.068750
v 0.960526 0.775000 0.168750
v 1.000000 0.775000 0.168750
v 1.000000 0.812500 0.050000
v 0.960526 0.812500 0.050000
v 0.960526 0.812500 0.150000
v 1.000000 0.812500 0.150000
v 1.000000 0.850000 0.068750
v 0.960526 0.850000 0.068750
v 0.960526 0.850000 0.168750
v 1.000000 0.850000 0.168750
v 1.000000 0.900000 0.150000
v 0.960526 0.900000 0.150000
v 0.960526 0.900000 0.250000
v 1.000000 0.900000 0.250000
v 0.920855 0.387500 0.068750
v 0.921053 0.337500 0.150000
v 0.921053 0.337500 0.250000
v 0.920855 0.387500 0.168750
v 0.920707 0.424999 0.050000
v 0.920707 0.424999 0.150000
v 0.920559 0.462499 0.068750
v 0.920559 0.462499 0.168750
v 0.920341 0.517499 0.140625
v 0.920341 0.517499 0.240625
v 0.920119 0.573748 0.068750
v 0.920119 0.573748 0.168750
v 0.919941 0.618748 0.050000
v 0.919941 0.618748 0.150000
v 0.919763 0.663747 0.068750
v 0.919763 0.663747 0.168750
v 0.919541 0.719997 0.140625
v 0.919541 0.719997 0.240625
v 0.919324 0.774997 0.068750
v 0.919324 0.774997 0.168750
v 0.919175 0.812496 0.050000
v 0.919175 0.812496 0.150000
v 0.919027 0.849996 0.068750
v 0.919027 0.849996 0.168750
v 0.918830 0.899996 0.150000
v 0.918830 0.899996 0.250000
v 0.880237 0.387170 0.068750
v 0.881579 0.337188 0.150000
v 0.881579 0.337188 0.250000
v 0.880237 0.387170 0.168750
v 0.879231 0.424656 0.050000
v 0.879231 0.424656 0.150000
v 0.878224 0.462143 0.068750
v 0.878224 0.462143 0.168750
v 0.876748 0.517123 0.140625
v 0.876748 0.517123 0.240625
v 0.875239 0.573353 0.068750
v 0.875239 0.573353 0.168750
v 0.874031 0.618337 0.050000
v 0.874031 0.618337 0.150000
v 0.872824 0.663320 0.068750
v 0.872824 0.663320 0.168750
v 0.871314 0.719550 0.140625
v 0.871314 0.719550 0.240625
v 0.869838 0.774530 0.068750
v 0.869838 0.774530 0.168750
v 0.868832 0.812017 0.050000
v 0.868832 0.812017 0.150000
v 0.867825 0.849503 0.068750
v 0.867825 0.849503 0.168750
v 0.866484 0.899485 0.150000
v 0.866484 0.899485 0.250000
v 0.838632 0.385260 0.068750
v 0.842105 0.335381 0.150000
v 0.842105 0.335381 0.250000
v 0.838632 0.385260 0.168750
v 0.836027 0.422669 0.050000
v 0.836027 0.422669 0.150000
v 0.833423 0.460079 0.068750
v 0.833423 0.460079 0.168750
v 0.829602 0.514946 0.140625
v 0.829602 0.514946 0.240625
v 0.825695 0.571060 0.068750
v 0.825695 0.571060 0.168750
v 0.822569 0.615951 0.050000
v 0.822569 0.615951 0.150000
v 0.819444 0.660843 0.068750
v 0.819444 0.660843 0.168750
v 0.815537 0.716957 0.140625
v 0.815537 0.716957 0.240625
v 0.811716 0.771824 0.068750
v 0.811716 0.771824 0.168750
v 0.809112 0.809233 0.050000
v 0.809112 0.809233 0.150000
v 0.806507 0.846643 0.068750
v 0.806507 0.846643 0.168750
v 0.803034 0.896522 0.150000
v 0.803034 0.896522 0.250000
v 0.796572 0.381322 0.068750
v 0.802632 0.331691 0.150000
v 0.802632 0.331691 0.250000
v 0.796572 0.381322 0.168750
v 0.792028 0.418546 0.050000
v 0.792028 0.418546 0.150000
v 0.787483 0.455770 0.068750
v 0.787483 0.455770 0.168750
v 0.780818 0.510364 0.140625
v 0.780818 0.510364 0.240625
v 0.774001 0.566200 0.068750
v 0.774001 0.566200 0.168750
v 0.768547 0.610868 0.050000
v 0.768547 0.610868 0.150000
v 0.763094 0.655536 0.068750
v 0.763094 0.655536 0.168750
v 0.756277 0.711372 0.140625
v 0.756277 0.711372 0.240625
v 0.749612 0.765966 0.068750
v 0.749612 0.765966 0.168750
v 0.745067 0.803190 0.050000
v 0.745067 0.803190 0.150000
v 0.740523 0.840414 0.068750
v 0.740523 0.840414 0.168750
v 0.734463 0.890045 0.150000
v 0.734463 0.890045 0.250000
v 0.752532 0.374760 0.068750
v 0.763118 0.325928 0.150000
v 0.763118 0.325928 0.250000
v 0.752532 0.374760 0.168750
v 0.744594 0.411384 0.050000
v 0.744594 0.411384 0.150000
v 0.736655 0.448008 0.068750
v 0.736655 0.448008 0.168750
v 0.725011 0.501724 0.140625
v 0.725011 0.501724 0.240625
v 0.713103 0.556660 0.068750
v 0.713103 0.556660 0.168750
v 0.703576 0.600609 0.050000
v 0.703576 0.600609 0.150000
v 0.694050 0.644557 0.068750
v 0.694050 0.644557 0.168750
v 0.682141 0.699494 0.140625
v 0.682141 0.699494 0.240625
v 0.670498 0.753209 0.068750
v 0.670498 0.753209 0.168750
v 0.662559 0.789833 0.050000
v 0.662559 0.789833 0.150000
v 0.654620 0.826457 0.068750
v 0.654620 0.826457 0.168750
v 0.644035 0.875289 0.150000
v 0.644035 0.875289 0.250000
v 0.705986 0.364311 0.068750
v 0.722547 0.317773 0.150000
v 0.722547 0.317773 0.250000
v 0.705986 0.364311 0.168750
v 0.693565 0.399214 0.050000
v 0.693565 0.399214 0.150000
v 0.681143 0.434118 0.068750
v 0.681143 0.434118 0.168750
v 0.662926 0.485310 0.140625
v 0.662926 0.485310 0.240625
v 0.644294 0.537665 0.068750
v 0.644294 0.537665 0.168750
v 0.629389 0.579549 0.050000
v 0.629389 0.579549 0.150000
v 0.614483 0.621434 0.068750
v 0.614483 0.621434 0.168750
v 0.595851 0.673789 0.140625
v 0.595851 0.673789 0.240625
v 0.577634 0.724981 0.068750
v 0.577634 0.724981 0.168750
v 0.565213 0.759884 0.050000
v 0.565213 0.759884 0.150000
v 0.552791 0.794788 0.068750
v 0.552791 0.794788 0.168750
v 0.536230 0.841326 0.150000
v 0.536230 0.841326 0.250000
v 0.658368 0.349861 0.068750
v 0.679754 0.306650 0.150000
v 0.679754 0.306650 0.250000
v 0.658368 0.349861 0.168750
v 0.642327 0.382270 0.050000
v 0.642327 0.382270 0.150000
v 0.626287 0.414678 0.068750
v 0.626287 0.414678 0.168750
v 0.602762 0.462210 0.140625
v 0.602762 0.462210 0.240625
v 0.578702 0.510823 0.068750
v 0.578702 0.510823 0.168750
v 0.559453 0.549713 0.050000
v 0.559453 0.549713 0.150000
v 0.540205 0.588603 0.068750
v 0.540205 0.588603 0.168750
v 0.516145 0.637215 0.140625
v 0.516145 0.637215 0.240625
v 0.492620 0.684748 0.068750
v 0.492620 0.684748 0.168750
v 0.476579 0.717156 0.050000
v 0.476579 0.717156 0.150000
v 0.460539 0.749564 0.068750
v 0.460539 0.749564 0.168750
v 0.439152 0.792776 0.150000
v 0.439152 0.792776 0.250000
v 0.609945 0.331636 0.068750
v 0.634459 0.292085 0.150000
v 0.634459 0.292085 0.250000
v 0.609945 0.331636 0.168750
v 0.591560 0.361300 0.050000
v 0.591560 0.361300 0.150000
v 0.573175 0.390963 0.068750
v 0.573175 0.390963 0.168750
v 0.546209 0.434469 0.140625
v 0.546209 0.434469 0.240625
v 0.518631 0.478964 0.068750
v 0.518631 0.478964 0.168750
v 0.496568 0.514560 0.050000
v 0.496568 0.514560 0.150000
v 0.474506 0.550156 0.068750
v 0.474506 0.550156 0.168750
v 0.446928 0.594650 0.140625
v 0.446928 0.594650 0.240625
v 0.419962 0.638156 0.068750
v 0.419962 0.638156 0.168750
v 0.401577 0.667820 0.050000
v 0.401577 0.667820 0.150000
v 0.383191 0.697483 0.068750
v 0.383191 0.697483 0.168750
v 0.358678 0.737034 0.150000
v 0.358678 0.737034 0.250000
v 0.560681 0.309769 0.068750
v 0.586903 0.273859 0.150000
v 0.586903 0.273859 0.250000
v 0.560681 0.309769 0.168750
v 0.541014 0.336702 0.050000
v 0.541014 0.336702 0.150000
v 0.521348 0.363635 0.068750
v 0.521348 0.363635 0.168750
v 0.492504 0.403136 0.140625
v 0.492504 0.403136 0.240625
v 0.463004 0.443535 0.068750
v 0.463004 0.443535 0.168750
v 0.439404 0.475854 0.050000
v 0.439404 0.475854 0.150000
v 0.415804 0.508174 0.068750
v 0.415804 0.508174 0.168750
v 0.386304 0.548573 0.140625
v 0.386304 0.548573 0.240625
v 0.357460 0.588074 0.068750
v 0.357460 0.588074 0.168750
v 0.337794 0.615007 0.050000
v 0.337794 0.615007 0.150000
v 0.318127 0.641939 0.068750
v 0.318127 0.641939 0.168750
v 0.291905 0.677850 0.150000
v 0.291905 0.677850 0.250000
v 0.510766 0.284475 0.068750
v 0.537594 0.251993 0.150000
v 0.537594 0.251993 0.250000
v 0.510766 0.284475 0.168750
v 0.490644 0.308837 0.050000
v 0.490644 0.308837 0.150000
v 0.470523 0.333198 0.068750
v 0.470523 0.333198 0.168750
v 0.441012 0.368928 0.140625
v 0.441012 0.368928 0.240625
v 0.410830 0.405470 0.068750
v 0.410830 0.405470 0.168750
v 0.386685 0.434704 0.050000
v 0.386685 0.434704 0.150000
v 0.362540 0.463938 0.068750
v 0.362540 0.463938 0.168750
v 0.332358 0.500480 0.140625
v 0.332358 0.500480 0.240625
v 0.302847 0.536210 0.068750
v 0.302847 0.536210 0.168750
v 0.282726 0.560571 0.050000
v 0.282726 0.560571 0.150000
v 0.262605 0.584933 0.068750
v 0.262605 0.584933 0.168750
v 0.235776 0.617415 0.150000
v 0.235776 0.617415 0.250000
v 0.460532 0.256050 0.068750
v 0.487159 0.226688 0.150000
v 0.487159 0.226688 0.250000
v 0.460532 0.256050 0.168750
v 0.440562 0.278071 0.050000
v 0.440562 0.278071 0.150000
v 0.420591 0.300093 0.068750
v 0.420591 0.300093 0.168750
v 0.391302 0.332391 0.140625
v 0.391302 0.332391 0.240625
v 0.361346 0.365423 0.068750
v 0.361346 0.365423 0.168750
v 0.337382 0.391849 0.050000
v 0.337382 0.391849 0.150000
v 0.313418 0.418275 0.068750
v 0.313418 0.418275 0.168750
v 0.283463 0.451307 0.140625
v 0.283463 0.451307 0.240625
v 0.254173 0.483605 0.068750
v 0.254173 0.483605 0.168750
v 0.234203 0.505627 0.050000
v 0.234203 0.505627 0.150000
v 0.214233 0.527648 0.068750
v 0.214233 0.527648 0.168750
v 0.187606 0.557010 0.150000
v 0.187606 0.557010 0.250000
v 0.410394 0.224847 0.068750
v 0.436268 0.198251 0.150000
v 0.436268 0.198251 0.250000
v 0.410394 0.224847 0.168750
v 0.390989 0.244795 0.050000
v 0.390989 0.244795 0.150000
v 0.371583 0.264743 0.068750
v 0.371583 0.264743 0.168750
v 0.343122 0.293999 0.140625
v 0.343122 0.293999 0.240625
v 0.314015 0.323921 0.068750
v 0.314015 0.323921 0.168750
v 0.290728 0.347858 0.050000
v 0.290728 0.347858 0.150000
v 0.267442 0.371795 0.068750
v 0.267442 0.371795 0.168750
v 0.238334 0.401717 0.140625
v 0.238334 0.401717 0.240625
v 0.209873 0.430974 0.068750
v 0.209873 0.430974 0.168750
v 0.190468 0.450921 0.050000
v 0.190468 0.450921 0.150000
v 0.171063 0.470869 0.068750
v 0.171063 0.470869 0.168750
v 0.145189 0.497466 0.150000
v 0.145189 0.497466 0.250000
v 0.360813 0.191260 0.068750
v 0.385599 0.167048 0.150000
v 0.385599 0.167048 0.250000
v 0.360813 0.191260 0.168750
v 0.342224 0.209419 0.050000
v 0.342224 0.209419 0.150000
v 0.323635 0.227578 0.068750
v 0.323635 0.227578 0.168750
v 0.296371 0.254211 0.140625
v 0.296371 0.254211 0.240625
v 0.268487 0.281449 0.068750
v 0.268487 0.281449 0.168750
v 0.246180 0.303240 0.050000
v 0.246180 0.303240 0.150000
v 0.223872 0.325031 0.068750
v 0.223872 0.325031 0.168750
v 0.195989 0.352269 0.140625
v 0.195989 0.352269 0.240625
v 0.168724 0.378902 0.068750
v 0.168724 0.378902 0.168750
v 0.150135 0.397061 0.050000
v 0.150135 0.397061 0.150000
v 0.131546 0.415220 0.068750
v 0.131546 0.415220 0.168750
v 0.106760 0.439432 0.150000
v 0.106760 0.439432 0.250000
v 0.312276 0.155698 0.068750
v 0.335824 0.133471 0.150000
v 0.335824 0.133471 0.250000
v 0.312276 0.155698 0.168750
v 0.294615 0.172368 0.050000
v 0.294615 0.172368 0.150000
v 0.276954 0.189038 0.068750
v 0.276954 0.189038 0.168750
v 0.251051 0.213488 0.140625
v 0.251051 0.213488 0.240625
v 0.224559 0.238493 0.068750
v 0.224559 0.238493 0.168750
v 0.203366 0.258497 0.050000
v 0.203366 0.258497 0.150000
v 0.182173 0.278502 0.068750
v 0.182173 0.278502 0.168750
v 0.155681 0.303507 0.140625
v 0.155681 0.303507 0.240625
v 0.129778 0.327957 0.068750
v 0.129778 0.327957 0.168750
v 0.112117 0.344627 0.050000
v 0.112117 0.344627 0.150000
v 0.094456 0.361297 0.068750
v 0.094456 0.361297 0.168750
v 0.070908 0.383524 0.150000
v 0.070908 0.383524 0.250000
v 0.265280 0.118573 0.068750
v 0.287599 0.097906 0.150000
v 0.287599 0.097906 0.250000
v 0.265280 0.118573 0.168750
v 0.248541 0.134073 0.050000
v 0.248541 0.134073 0.150000
v 0.231802 0.149573 0.068750
v 0.231802 0.149573 0.168750
v 0.207251 0.172306 0.140625
v 0.207251 0.172306 0.240625
v 0.182142 0.195556 0.068750
v 0.182142 0.195556 0.168750
v 0.162055 0.214156 0.050000
v 0.162055 0.214156 0.150000
v 0.141968 0.232756 0.068750
v 0.141968 0.232756 0.168750
v 0.116859 0.256006 0.140625
v 0.116859 0.256006 0.240625
v 0.092308 0.278739 0.068750
v 0.092308 0.278739 0.168750
v 0.075569 0.294239 0.050000
v 0.075569 0.294239 0.150000
v 0.058829 0.309739 0.068750
v 0.058829 0.309739 0.168750
v 0.036510 0.330406 0.150000
v 0.036510 0.330406 0.250000
v 0.220324 0.080282 0.068750
v 0.241557 0.060715 0.150000
v 0.241557 0.060715 0.250000
v 0.220324 0.080282 0.168750
v 0.204400 0.094956 0.050000
v 0.204400 0.094956 0.150000
v 0.188475 0.109631 0.068750
v 0.188475 0.109631 0.168750
v 0.165119 0.131154 0.140625
v 0.165119 0.131154 0.240625
v 0.141232 0.153166 0.068750
v 0.141232 0.153166 0.168750
v 0.122122 0.170776 0.050000
v 0.122122 0.170776 0.150000
v 0.103013 0.188385 0.068750
v 0.103013 0.188385 0.168750
v 0.079126 0.210397 0.140625
v 0.079126 0.210397 0.240625
v 0.055770 0.231920 0.068750
v 0.055770 0.231920 0.168750
v 0.039845 0.246595 0.050000
v 0.039845 0.246595 0.150000
v 0.023921 0.261270 0.068750
v 0.023921 0.261270 0.168750
v 0.002688 0.280836 0.150000
v 0.002688 0.280836 0.250000
v 0.177897 0.041185 0.068750
v 0.198297 0.022208 0.150000
v 0.198297 0.022208 0.250000
v 0.177897 0.041185 0.168750
v 0.162596 0.055418 0.050000
v 0.162596 0.055418 0.150000
v 0.147295 0.069650 0.068750
v 0.147295 0.069650 0.168750
v 0.124854 0.090525 0.140625
v 0.124854 0.090525 0.240625
v 0.101903 0.111874 0.068750
v 0.101903 0.111874 0.168750
v 0.083542 0.128953 0.050000
v 0.083542 0.128953 0.150000
v 0.065181 0.146032 0.068750
v 0.065181 0.146032 0.168750
v 0.042230 0.167381 0.140625
v 0.042230 0.167381 0.240625
v 0.019789 0.188256 0.068750
v 0.019789 0.188256 0.168750
v 0.004489 0.202488 0.050000
v 0.004489 0.202488 0.150000
v -0.010812 0.216721 0.068750
v -0.010812 0.216721 0.168750
v -0.031213 0.235698 0.150000
v -0.031213 0.235698 0.250000
v 0.137632 0.000710 0.068750
v 0.157690 -0.018103 0.150000
v 0.157690 -0.018103 0.250000
v 0.137632 0.000710 0.168750
v 0.122589 0.014820 0.050000
v 0.122589 0.014820 0.150000
v 0.107546 0.028930 0.068750
v 0.107546 0.028930 0.168750
v 0.085482 0.049625 0.140625
v 0.085482 0.049625 0.240625
v 0.062918 0.070790 0.068750
v 0.062918 0.070790 0.168750
v 0.044866 0.087722 0.050000
v 0.044866 0.087722 0.150000
v 0.026814 0.104654 0.068750
v 0.026814 0.104654 0.168750
v 0.004249 0.125819 0.140625
v 0.004249 0.125819 0.240625
v -0.017814 0.146514 0.068750
v -0.017814 0.146514 0.168750
v -0.032857 0.160624 0.050000
v -0.032857 0.160624 0.150000
v -0.047901 0.174734 0.068750
v -0.047901 0.174734 0.168750
v -0.067958 0.193548 0.150000
v -0.067958 0.193548 0.250000
v 0.950000 0.323385 0.400000
v 0.950000 0.910885 0.400000
v 0.950000 0.910885 0.250000
v 0.950000 0.323385 0.250000
v 0.750000 0.323385 0.250000
v 0.750000 0.910885 0.250000
v 0.750000 0.910885 0.400000
v 0.750000 0.323385 0.400000
v 0.975000 0.000000 0.600000
v 0.975000 0.935885 0.600000
v 0.975000 0.935885 0.375000
v 0.975000 0.000000 0.375000
v 0.725000 0.000000 0.375000
v 0.725000 0.935885 0.375000
v 0.725000 0.935885 0.600000
v 0.725000 0.000000 0.600000
v 0.337500 0.000000 0.293750
v 0.337500 0.078125 0.293750
v 0.337500 0.078125 0.018750
v 0.337500 0.000000 0.018750
v 0.037500 0.000000 0.018750
v 0.037500 0.078125 0.018750
v 0.037500 0.078125 0.293750
v 0.037500 0.000000 0.293750
vt 0.890625 0.125000
vt 0.890625 0.375000
vn -0.000000 -0.851658 -0.524097
vn -0.000000 -0.675317 -0.737528
vn 0.000000 0.851658 0.524097
vn 0.000000 0.675317 0.737528
vn -0.000000 0.000000 -1.000000
vn 0.000000 -0.000000 1.000000
vn -0.000000 0.637029 -0.770840
vn 0.000000 -0.637029 0.770840
vn -0.000000 0.005438 -0.999985
vn 0.000000 -0.005438 0.999985
vn -0.000000 -0.605800 -0.795617
vn 0.000000 0.605800 0.795617
vn -0.000000 0.605800 -0.795617
vn 0.000000 -0.605800 0.795617
vn -0.000000 -0.005438 -0.999985
vn 0.000000 0.005438 0.999985
vn -0.000000 -0.637029 -0.770840
vn 0.000000 0.637029 0.770840
vn -0.000000 0.675317 -0.737528
vn 0.000000 -0.675317 0.737528
vn -0.000000 0.851658 -0.524097
vn 0.000000 -0.851658 0.524097
vn 0.000000 -1.000000 0.000000
vn -0.000000 1.000000 -0.000000
vn 0.002669 -0.675312 -0.737528
vn 0.003366 -0.851652 -0.524097
vn -0.003366 0.851652 0.524097
vn -0.002669 0.675312 0.737528
vn -0.002518 0.637024 -0.770840
vn 0.002518 -0.637024 0.770840
vn -0.000021 0.005438 -0.999985
vn 0.000021 -0.005438 0.999985
vn 0.002394 -0.605795 -0.795617
vn -0.002394 0.605795 0.795617
vn -0.002394 0.605795 -0.795617
vn 0.002394 -0.605795 0.795617
vn 0.000021 -0.005438 -0.999985
vn -0.000021 0.005438 0.999985
vn 0.002518 -0.637024 -0.770840
vn -0.002518 0.637024 0.770840
vn -0.002669 0.675312 -0.737528
vn 0.002669 -0.675312 0.737528
vn -0.003366 0.851652 -0.524097
vn 0.003366 -0.851652 0.524097
vn 0.003952 -0.999992 -0.000000
vn -0.003952 0.999992 0.000000
vn 0.018123 -0.675074 -0.737528
vn 0.022855 -0.851352 -0.524097
vn -0.022855 0.851352 0.524097
vn -0.018123 0.675074 0.737528
vn -0.017095 0.636799 -0.770840
vn 0.017095 -0.636799 0.770840
vn -0.000146 0.005436 -0.999985
vn 0.000146 -0.005436 0.999985
vn 0.016257 -0.605582 -0.795617
vn -0.016257 0.605582 0.795617
vn -0.016257 0.605582 -0.795617
vn 0.016257 -0.605582 0.795617
vn 0.000146 -0.005436 -0.999985
vn -0.000146 0.005436 0.999985
vn 0.017095 -0.636799 -0.770840
vn -0.017095 0.636799 0.770840
vn -0.018123 0.675074 -0.737528
vn 0.018123 -0.675074 0.737528
vn -0.022855 0.851352 -0.524097
vn 0.022855 -0.851352 0.524097
vn 0.026836 -0.999640 -0.000000
vn -0.026836 0.999640 0.000000
vn 0.046908 -0.673686 -0.737528
vn 0.059157 -0.849601 -0.524097
vn -0.059157 0.849601 0.524097
vn -0.046908 0.673686 0.737528
vn -0.044248 0.635490 -0.770840
vn 0.044248 -0.635490 0.770840
vn -0.000378 0.005425 -0.999985
vn 0.000378 -0.005425 0.999985
vn 0.042079 -0.604337 -0.795617
vn -0.042079 0.604337 0.795617
vn -0.042079 0.604337 -0.795617
vn 0.042079 -0.604337 0.795617
vn 0.000378 -0.005425 -0.999985
vn -0.000378 0.005425 0.999985
vn 0.044248 -0.635490 -0.770840
vn -0.044248 0.635490 0.770840
vn -0.046908 0.673686 -0.737528
vn 0.046908 -0.673686 0.737528
vn -0.059157 0.849601 -0.524097
vn 0.059157 -0.849601 0.524097
vn 0.069461 -0.997585 -0.000000
vn -0.069461 0.997585 0.000000
vn 0.081841 -0.670340 -0.737528
vn 0.103211 -0.845381 -0.524097
vn -0.103211 0.845381 0.524097
vn -0.081841 0.670340 0.737528
vn -0.077200 0.632333 -0.770840
vn 0.077200 -0.632333 0.770840
vn -0.000659 0.005398 -0.999985
vn 0.000659 -0.005398 0.999985
vn 0.073416 -0.601335 -0.795617
vn -0.073416 0.601335 0.795617
vn -0.073416 0.601335 -0.795617
vn 0.073416 -0.601335 0.795617
vn 0.000659 -0.005398 -0.999985
vn -0.000659 0.005398 0.999985
vn 0.077200 -0.632333 -0.770840
vn -0.077200 0.632333 0.770840
vn -0.081841 0.670340 -0.737528
vn 0.081841 -0.670340 0.737528
vn -0.103211 0.845381 -0.524097
vn 0.103211 -0.845381 0.524097
vn 0.121188 -0.992630 -0.000000
vn -0.121188 0.992630 0.000000
vn 0.143108 -0.660196 -0.737334
vn 0.180454 -0.832483 -0.523840
vn -0.180454 0.832483 0.523840
vn -0.143108 0.660196 0.737334
vn -0.135001 0.622795 -0.770650
vn 0.135001 -0.622795 0.770650
vn -0.001152 0.005314 -0.999985
vn 0.001152 -0.005314 0.999985
vn 0.128384 -0.592271 -0.795445
vn -0.128384 0.592271 0.795445
vn -0.128384 0.592271 -0.795445
vn 0.128384 -0.592271 0.795445
vn 0.001152 -0.005314 -0.999985
vn -0.001152 0.005314 0.999985
vn 0.135001 -0.622795 -0.770650
vn -0.135001 0.622795 0.770650
vn -0.143108 0.660196 -0.737334
vn 0.143108 -0.660196 0.737334
vn -0.180454 0.832483 -0.523840
vn 0.180454 -0.832483 0.523840
vn 0.211846 -0.977303 -0.000000
vn -0.211846 0.977303 0.000000
vn 0.227683 -0.639790 -0.734050
vn 0.286483 -0.805020 -0.519491
vn -0.286483 0.805020 0.519491
vn -0.227683 0.639790 0.734050
vn -0.214960 0.604040 -0.767416
vn 0.214960 -0.604040 0.767416
vn -0.001818 0.005108 -0.999985
vn 0.001818 -0.005108 0.999985
vn 0.204467 -0.574553 -0.792516
vn -0.204467 0.574553 0.792516
vn -0.204467 0.574553 -0.792516
vn 0.204467 -0.574553 0.792516
vn 0.001818 -0.005108 -0.999985
vn -0.001818 0.005108 0.999985
vn 0.214960 -0.604040 -0.767416
vn -0.214960 0.604040 0.767416
vn -0.227683 0.639790 -0.734050
vn 0.227683 -0.639790 0.734050
vn -0.286483 0.805020 -0.519491
vn 0.286483 -0.805020 0.519491
vn 0.335273 -0.942121 -0.000000
vn -0.335273 0.942121 0.000000
vn 0.304561 -0.615351 -0.727039
vn 0.381473 -0.770748 -0.510319
vn -0.381473 0.770748 0.510319
vn -0.304561 0.615351 0.727039
vn -0.288037 0.581966 -0.760493
vn 0.288037 -0.581966 0.760493
vn -0.002389 0.004827 -0.999985
vn 0.002389 -0.004827 0.999985
vn 0.274098 -0.553802 -0.786240
vn -0.274098 0.553802 0.786240
vn -0.274098 0.553802 -0.786240
vn 0.274098 -0.553802 0.786240
vn 0.002389 -0.004827 -0.999985
vn -0.002389 0.004827 0.999985
vn 0.288037 -0.581966 -0.760493
vn -0.288037 0.581966 0.760493
vn -0.304561 0.615351 -0.727039
vn 0.304561 -0.615351 0.727039
vn -0.381473 0.770748 -0.510319
vn 0.381473 -0.770748 0.510319
vn 0.443581 -0.896234 -0.000000
vn -0.443581 0.896234 0.000000
vn 0.367439 -0.592829 -0.716619
vn 0.457158 -0.737582 -0.496970
vn -0.457158 0.737582 0.496970
vn -0.367439 0.592829 0.716619
vn -0.348364 0.562052 -0.750160
vn 0.348364 -0.562052 0.750160
vn -0.002807 0.004529 -0.999986
vn 0.002807 -0.004529 0.999986
vn 0.331726 -0.535209 -0.776858
vn -0.331726 0.535209 0.776858
vn -0.331726 0.535209 -0.776858
vn 0.331726 -0.535209 0.776858
vn 0.002807 -0.004529 -0.999986
vn -0.002807 0.004529 0.999986
vn 0.348364 -0.562052 -0.750160
vn -0.348364 0.562052 0.750160
vn -0.367439 0.592829 -0.716619
vn 0.367439 -0.592829 0.716619
vn -0.457158 0.737582 -0.496970
vn 0.457158 -0.737582 0.496970
vn 0.526821 -0.849976 -0.000000
vn -0.526821 0.849976 0.000000
vn 0.419377 -0.574325 -0.703047
vn 0.517320 -0.708455 -0.480074
vn -0.517320 0.708455 0.480074
vn -0.419377 0.574325 0.703047
vn -0.398830 0.546186 -0.736624
vn 0.398830 -0.546186 0.736624
vn -0.003095 0.004238 -0.999986
vn 0.003095 -0.004238 0.999986
vn 0.380120 -0.520563 -0.764541
vn -0.380120 0.520563 0.764541
vn -0.380120 0.520563 -0.764541
vn 0.380120 -0.520563 0.764541
vn 0.003095 -0.004238 -0.999986
vn -0.003095 0.004238 0.999986
vn 0.398830 -0.546186 -0.736624
vn -0.398830 0.546186 0.736624
vn -0.419377 0.574325 -0.703047
vn 0.419377 -0.574325 0.703047
vn -0.517320 0.708455 -0.480074
vn 0.517320 -0.708455 0.480074
vn 0.589721 -0.807607 -0.000000
vn -0.589721 0.807607 0.000000
vn 0.462994 -0.560564 -0.686588
vn 0.565339 -0.684476 -0.460309
vn -0.565339 0.684476 0.460309
vn -0.462994 0.560564 0.686588
vn -0.441864 0.534981 -0.720105
vn 0.441864 -0.534981 0.720105
vn -0.003274 0.003964 -0.999987
vn 0.003274 -0.003964 0.999987
vn 0.421601 -0.510447 -0.749464
vn -0.421601 0.510447 0.749464
vn -0.421601 0.510447 -0.749464
vn 0.421601 -0.510447 0.749464
vn 0.003274 -0.003964 -0.999987
vn -0.003274 0.003964 0.999987
vn 0.441864 -0.534981 -0.720105
vn -0.441864 0.534981 0.720105
vn -0.462994 0.560564 -0.686588
vn 0.462994 -0.560564 0.686588
vn -0.565339 0.684476 -0.460309
vn 0.565339 -0.684476 0.460309
vn 0.636816 -0.771016 -0.000000
vn -0.636816 0.771016 0.000000
vn 0.500140 -0.551512 -0.667604
vn 0.603751 -0.665766 -0.438452
vn -0.603751 0.665766 0.438452
vn -0.500140 0.551512 0.667604
vn -0.479129 0.528344 -0.700919
vn 0.479129 -0.528344 0.700919
vn -0.003364 0.003710 -0.999987
vn 0.003364 -0.003710 0.999987
vn 0.457758 -0.504777 -0.731886
vn -0.457758 0.504777 0.731886
vn -0.457758 0.504777 -0.731886
vn 0.457758 -0.504777 0.731886
vn 0.003364 -0.003710 -0.999987
vn -0.003364 0.003710 0.999987
vn 0.479129 -0.528344 -0.700919
vn -0.479129 0.528344 0.700919
vn -0.500140 0.551512 -0.667604
vn 0.500140 -0.551512 0.667604
vn -0.603751 0.665766 -0.438452
vn 0.603751 -0.665766 0.438452
vn 0.671764 -0.740765 -0.000000
vn -0.671764 0.740765 0.000000
vn 0.531900 -0.546769 -0.646627
vn 0.634280 -0.652011 -0.415417
vn -0.634280 0.652011 0.415417
vn -0.531900 0.546769 0.646627
vn -0.511537 0.525837 -0.679578
vn 0.511537 -0.525837 0.679578
vn -0.003384 0.003478 -0.999988
vn 0.003384 -0.003478 0.999988
vn 0.489454 -0.503137 -0.712241
vn -0.489454 0.503137 0.712241
vn -0.489454 0.503137 -0.712241
vn 0.489454 -0.503137 0.712241
vn 0.003384 -0.003478 -0.999988
vn -0.003384 0.003478 0.999988
vn 0.511537 -0.525837 -0.679578
vn -0.511537 0.525837 0.679578
vn -0.531900 0.546769 -0.646627
vn 0.531900 -0.546769 0.646627
vn -0.634280 0.652011 -0.415417
vn 0.634280 -0.652011 0.415417
vn 0.697293 -0.716786 -0.000000
vn -0.697293 0.716786 0.000000
vn 0.558723 -0.545789 -0.624455
vn 0.658004 -0.642772 -0.392268
vn -0.658004 0.642772 0.392268
vn -0.558723 0.545789 0.624455
vn -0.539361 0.526876 -0.656880
vn 0.539361 -0.526876 0.656880
vn -0.003348 0.003270 -0.999989
vn 0.003348 -0.003270 0.999989
vn 0.516928 -0.504962 -0.691230
vn -0.516928 0.504962 0.691230
vn -0.516928 0.504962 -0.691230
vn 0.516928 -0.504962 0.691230
vn 0.003348 -0.003270 -0.999989
vn -0.003348 0.003270 0.999989
vn 0.539361 -0.526876 -0.656880
vn -0.539361 0.526876 0.656880
vn -0.558723 0.545789 -0.624455
vn 0.558723 -0.545789 0.624455
vn -0.658004 0.642772 -0.392268
vn 0.658004 -0.642772 0.392268
vn 0.715338 -0.698778 -0.000000
vn -0.715338 0.698778 0.000000
vn 0.580551 -0.547979 -0.602228
vn 0.675540 -0.637638 -0.370221
vn -0.675540 0.637638 0.370221
vn -0.580551 0.547979 0.602228
vn -0.562377 0.530824 -0.634002
vn 0.562377 -0.530824 0.634002
vn -0.003273 0.003089 -0.999990
vn 0.003273 -0.003089 0.999990
vn 0.539908 -0.509617 -0.669918
vn -0.539908 0.509617 0.669918
vn -0.539908 0.509617 -0.669918
vn 0.539908 -0.509617 0.669918
vn 0.003273 -0.003089 -0.999990
vn -0.003273 0.003089 0.999990
vn 0.562377 -0.530824 -0.634002
vn -0.562377 0.530824 0.634002
vn -0.580551 0.547979 -0.602228
vn 0.580551 -0.547979 0.602228
vn -0.675540 0.637638 -0.370221
vn 0.675540 -0.637638 0.370221
vn 0.727213 -0.686412 -0.000000
vn -0.727213 0.686412 0.000000
vn 0.596951 -0.552756 -0.581472
vn 0.687169 -0.636295 -0.350609
vn -0.687169 0.636295 0.350609
vn -0.596951 0.552756 0.581472
vn -0.579982 0.537043 -0.612541
vn 0.579982 -0.537043 0.612541
vn -0.003177 0.002942 -0.999991
vn 0.003177 -0.002942 0.999991
vn 0.557729 -0.516437 -0.649793
vn -0.557729 0.516437 0.649793
vn -0.557729 0.516437 -0.649793
vn 0.557729 -0.516437 0.649793
vn 0.003177 -0.002942 -0.999991
vn -0.003177 0.002942 0.999991
vn 0.579982 -0.537043 -0.612541
vn -0.579982 0.537043 0.612541
vn -0.596951 0.552756 -0.581472
vn 0.596951 -0.552756 0.581472
vn -0.687169 0.636295 -0.350609
vn 0.687169 -0.636295 0.350609
vn 0.733746 -0.679423 -0.000000
vn -0.733746 0.679423 0.000000
vn 0.607220 -0.559559 -0.564072
vn 0.692925 -0.638538 -0.334850
vn -0.692925 0.638538 0.334850
vn -0.607220 0.559559 0.564072
vn -0.591320 0.544907 -0.594489
vn 0.591320 -0.544907 0.594489
vn -0.003078 0.002836 -0.999991
vn 0.003078 -0.002836 0.999991
vn 0.569440 -0.524745 -0.632757
vn -0.569440 0.524745 0.632757
vn -0.569440 0.524745 -0.632757
vn 0.569440 -0.524745 0.632757
vn 0.003078 -0.002836 -0.999991
vn -0.003078 0.002836 0.999991
vn 0.591320 -0.544907 -0.594489
vn -0.591320 0.544907 0.594489
vn -0.607220 0.559559 -0.564072
vn 0.607220 -0.559559 0.564072
vn -0.692925 0.638538 -0.334850
vn 0.692925 -0.638538 0.334850
vn 0.735377 -0.677658 -0.000000
vn -0.735377 0.677658 0.000000
vn 0.610475 -0.567860 -0.552137
vn 0.692608 -0.644261 -0.324380
vn -0.692608 0.644261 0.324380
vn -0.610475 0.567860 0.552137
vn -0.595376 0.553816 -0.582078
vn 0.595376 -0.553816 0.582078
vn -0.002992 0.002783 -0.999992
vn 0.002992 -0.002783 0.999992
vn 0.573915 -0.533853 -0.620985
vn -0.573915 0.533853 0.620985
vn -0.573915 0.533853 -0.620985
vn 0.573915 -0.533853 0.620985
vn 0.002992 -0.002783 -0.999992
vn -0.002992 0.002783 0.999992
vn 0.595376 -0.553816 -0.582078
vn -0.595376 0.553816 0.582078
vn -0.610475 0.567860 -0.552137
vn 0.610475 -0.567860 0.552137
vn -0.692608 0.644261 -0.324380
vn 0.692608 -0.644261 0.324380
vn 0.732200 -0.681089 -0.000000
vn -0.732200 0.681089 0.000000
vn 0.610220 -0.572367 -0.547748
vn 0.690867 -0.648013 -0.320596
vn -0.690867 0.648013 0.320596
vn -0.610220 0.572367 0.547748
vn -0.595443 0.558508 -0.577509
vn 0.595443 -0.558508 0.577509
vn -0.002953 0.002770 -0.999992
vn 0.002953 -0.002770 0.999992
vn 0.574191 -0.538574 -0.616638
vn -0.574191 0.538574 0.616638
vn -0.574191 0.538574 -0.616638
vn 0.574191 -0.538574 0.616638
vn 0.002953 -0.002770 -0.999992
vn -0.002953 0.002770 0.999992
vn 0.595443 -0.558508 -0.577509
vn -0.595443 0.558508 0.577509
vn -0.610220 0.572367 -0.547748
vn 0.610220 -0.572367 0.547748
vn -0.690867 0.648013 -0.320596
vn 0.690867 -0.648013 0.320596
vn 0.729366 -0.684123 -0.000000
vn -0.729366 0.684123 0.000000
vn 1.000000 -0.000000 -0.000000
vn -0.684123 -0.729366 0.000000
vn -1.000000 0.000000 0.000000
usemtl body
f 3/1/2 2/1/2 1/1/1
f 4/1/1 3/1/2 1/1/1
f 7/1/4 6/1/3 5/1/3
f 8/1/4 7/1/4 5/1/3
f 10/1/5 9/1/5 2/1/2
f 3/1/2 10/1/5 2/1/2
f 11/1/6 7/1/4 8/1/4
f 12/1/6 11/1/6 8/1/4
f 14/1/7 13/1/7 9/1/5
f 10/1/5 14/1/7 9/1/5
f 15/1/8 11/1/6 12/1/6
f 16/1/8 15/1/8 12/1/6
f 18/1/9 17/1/9 13/1/7
f 14/1/7 18/1/9 13/1/7
f 19/1/10 15/1/8 16/1/8
f 20/1/10 19/1/10 16/1/8
f 22/1/11 21/1/11 17/1/9
f 18/1/9 22/1/11 17/1/9
f 23/1/12 19/1/10 20/1/10
f 24/1/12 23/1/12 20/1/10
f 26/1/5 25/1/5 21/1/11
f 22/1/11 26/1/5 21/1/11
f 27/1/6 23/1/12 24/1/12
f 28/1/6 27/1/6 24/1/12
f 30/1/13 29/1/13 25/1/5
f 26/1/5 30/1/13 25/1/5
f 31/1/14 27/1/6 28/1/6
f 32/1/14 31/1/14 28/1/6
f 34/1/15 33/1/15 29/1/13
f 30/1/13 34/1/15 29/1/13
f 35/1/16 31/1/14 32/1/14
f 36/1/16 35/1/16 32/1/14
f 38/1/17 37/1/17 33/1/15
f 34/1/15 38/1/17 33/1/15
f 39/1/18 35/1/16 36/1/16
f 40/1/18 39/1/18 36/1/16
f 42/1/5 41/1/5 37/1/17
f 38/1/17 42/1/5 37/1/17
f 43/1/6 39/1/18 40/1/18
f 44/1/6 43/1/6 40/1/18
f 46/1/19 45/1/19 41/1/5
f 42/1/5 46/1/19 41/1/5
f 47/1/20 43/1/6 44/1/6
f 48/1/20 47/1/20 44/1/6
f 50/1/21 49/1/21 45/1/19
f 46/1/19 50/1/21 45/1/19
f 51/1/22 47/1/20 48/1/20
f 52/1/22 51/1/22 48/1/20
f 1/1/23 5/1/23 6/1/23
f 1/1/23 6/1/23 4/1/23
f 51/1/24 52/1/24 49/1/24
f 50/1/24 51/1/24 49/1/24
f 53/1/25 3/1/2 4/1/1
f 54/1/26 53/1/25 4/1/1
f 56/1/28 55/1/27 6/1/3
f 7/1/4 56/1/28 6/1/3
f 57/1/5 10/1/5 3/1/2
f 53/1/25 57/1/5 3/1/2
f 58/1/6 56/1/28 7/1/4
f 11/1/6 58/1/6 7/1/4
f 59/1/29 14/1/7 10/1/5
f 57/1/5 59/1/29 10/1/5
f 60/1/30 58/1/6 11/1/6
f 15/1/8 60/1/30 11/1/6
f 61/1/31 18/1/9 14/1/7
f 59/1/29 61/1/31 14/1/7
f 62/1/32 60/1/30 15/1/8
f 19/1/10 62/1/32 15/1/8
f 63/1/33 22/1/11 18/1/9
f 61/1/31 63/1/33 18/1/9
f 64/1/34 62/1/32 19/1/10
f 23/1/12 64/1/34 19/1/10
f 65/1/5 26/1/5 22/1/11
f 63/1/33 65/1/5 22/1/11
f 66/1/6 64/1/34 23/1/12
f 27/1/6 66/1/6 23/1/12
f 67/1/35 30/1/13 26/1/5
f 65/1/5 67/1/35 26/1/5
f 68/1/36 66/1/6 27/1/6
f 31/1/14 68/1/36 27/1/6
f 69/1/37 34/1/15 30/1/13
f 67/1/35 69/1/37 30/1/13
f 70/1/38 68/1/36 31/1/14
f 35/1/16 70/1/38 31/1/14
f 71/1/39 38/1/17 34/1/15
f 69/1/37 71/1/39 34/1/15
f 72/1/40 70/1/38 35/1/16
f 39/1/18 72/1/40 35/1/16
f 73/1/5 42/1/5 38/1/17
f 71/1/39 73/1/5 38/1/17
f 74/1/6 72/1/40 39/1/18
f 43/1/6 74/1/6 39/1/18
f 75/1/41 46/1/19 42/1/5
f 73/1/5 75/1/41 42/1/5
f 76/1/42 74/1/6 43/1/6
f 47/1/20 76/1/42 43/1/6
f 77/1/43 50/1/21 46/1/19
f 75/1/41 77/1/43 46/1/19
f 78/1/44 76/1/42 47/1/20
f 51/1/22 78/1/44 47/1/20
f 4/1/23 6/1/23 55/1/45
f 4/1/23 55/1/45 54/1/45
f 78/1/46 51/1/24 50/1/24
f 77/1/46 78/1/46 50/1/24
f 79/1/47 53/1/25 54/1/26
f 80/1/48 79/1/47 54/1/26
f 82/1/50 81/1/49 55/1/27
f 56/1/28 82/1/50 55/1/27
f 83/1/5 57/1/5 53/1/25
f 79/1/47 83/1/5 53/1/25
f 84/1/6 82/1/50 56/1/28
f 58/1/6 84/1/6 56/1/28
f 85/1/51 59/1/29 57/1/5
f 83/1/5 85/1/51 57/1/5
f 86/1/52 84/1/6 58/1/6
f 60/1/30 86/1/52 58/1/6
f 87/1/53 61/1/31 59/1/29
f 85/1/51 87/1/53 59/1/29
f 88/1/54 86/1/52 60/1/30
f 62/1/32 88/1/54 60/1/30
f 89/1/55 63/1/33 61/1/31
f 87/1/53 89/1/55 61/1/31
f 90/1/56 88/1/54 62/1/32
f 64/1/34 90/1/56 62/1/32
f 91/1/5 65/1/5 63/1/33
f 89/1/55 91/1/5 63/1/33
f 92/1/6 90/1/56 64/1/34
f 66/1/6 92/1/6 64/1/34
f 93/1/57 67/1/35 65/1/5
f 91/1/5 93/1/57 65/1/5
f 94/1/58 92/1/6 66/1/6
f 68/1/36 94/1/58 66/1/6
f 95/1/59 69/1/37 67/1/35
f 93/1/57 95/1/59 67/1/35
f 96/1/60 94/1/58 68/1/36
f 70/1/38 96/1/60 68/1/36
f 97/1/61 71/1/39 69/1/37
f 95/1/59 97/1/61 69/1/37
f 98/1/62 96/1/60 70/1/38
f 72/1/40 98/1/62 70/1/38
f 99/1/5 73/1/5 71/1/39
f 97/1/61 99/1/5 71/1/39
f 100/1/6 98/1/62 72/1/40
f 74/1/6 100/1/6 72/1/40
f 101/1/63 75/1/41 73/1/5
f 99/1/5 101/1/63 73/1/5
f 102/1/64 100/1/6 74/1/6
f 76/1/42 102/1/64 74/1/6
f 103/1/65 77/1/43 75/1/41
f 101/1/63 103/1/65 75/1/41
f 104/1/66 102/1/64 76/1/42
f 78/1/44 104/1/66 76/1/42
f 54/1/45 55/1/45 81/1/67
f 54/1/45 81/1/67 80/1/67
f 104/1/68 78/1/46 77/1/46
f 103/1/68 104/1/68 77/1/46
f 105/1/69 79/1/47 80/1/48
f 106/1/70 105/1/69 80/1/48
f 108/1/72 107/1/71 81/1/49
f 82/1/50 108/1/72 81/1/49
f 109/1/5 83/1/5 79/1/47
f 105/1/69 109/1/5 79/1/47
f 110/1/6 108/1/72 82/1/50
f 84/1/6 110/1/6 82/1/50
f 111/1/73 85/1/51 83/1/5
f 109/1/5 111/1/73 83/1/5
f 112/1/74 110/1/6 84/1/6
f 86/1/52 112/1/74 84/1/6
f 113/1/75 87/1/53 85/1/51
f 111/1/73 113/1/75 85/1/51
f 114/1/76 112/1/74 86/1/52
f 88/1/54 114/1/76 86/1/52
f 115/1/77 89/1/55 87/1/53
f 113/1/75 115/1/77 87/1/53
f 116/1/78 114/1/76 88/1/54
f 90/1/56 116/1/78 88/1/54
f 117/1/5 91/1/5 89/1/55
f 115/1/77 117/1/5 89/1/55
f 118/1/6 116/1/78 90/1/56
f 92/1/6 118/1/6 90/1/56
f 119/1/79 93/1/57 91/1/5
f 117/1/5 119/1/79 91/1/5
f 120/1/80 118/1/6 92/1/6
f 94/1/58 120/1/80 92/1/6
f 121/1/81 95/1/59 93/1/57
f 119/1/79 121/1/81 93/1/57
f 122/1/82 120/1/80 94/1/58
f 96/1/60 122/1/82 94/1/58
f 123/1/83 97/1/61 95/1/59
f 121/1/81 123/1/83 95/1/59
f 124/1/84 122/1/82 96/1/60
f 98/1/62 124/1/84 96/1/60
f 125/1/5 99/1/5 97/1/61
f 123/1/83 125/1/5 97/1/61
f 126/1/6 124/1/84 98/1/62
f 100/1/6 126/1/6 98/1/62
f 127/1/85 101/1/63 99/1/5
f 125/1/5 127/1/85 99/1/5
f 128/1/86 126/1/6 100/1/6
f 102/1/64 128/1/86 100/1/6
f 129/1/87 103/1/65 101/1/63
f 127/1/85 129/1/87 101/1/63
f 130/1/88 128/1/86 102/1/64
f 104/1/66 130/1/88 102/1/64
f 80/1/67 81/1/67 107/1/89
f 80/1/67 107/1/89 106/1/89
f 130/1/90 104/1/68 103/1/68
f 129/1/90 130/1/90 103/1/68
f 131/1/91 105/1/69 106/1/70
f 132/1/92 131/1/91 106/1/70
f 134/1/94 133/1/93 107/1/71
f 108/1/72 134/1/94 107/1/71
f 135/1/5 109/1/5 105/1/69
f 131/1/91 135/1/5 105/1/69
f 136/1/6 134/1/94 108/1/72
f 110/1/6 136/1/6 108/1/72
f 137/1/95 111/1/73 109/1/5
f 135/1/5 137/1/95 109/1/5
f 138/1/96 136/1/6 110/1/6
f 112/1/74 138/1/96 110/1/6
f 139/1/97 113/1/75 111/1/73
f 137/1/95 139/1/97 111/1/73
f 140/1/98 138/1/96 112/1/74
f 114/1/76 140/1/98 112/1/74
f 141/1/99 115/1/77 113/1/75
f 139/1/97 141/1/99 113/1/75
f 142/1/100 140/1/98 114/1/76
f 116/1/78 142/1/100 114/1/76
f 143/1/5 117/1/5 115/1/77
f 141/1/99 143/1/5 115/1/77
f 144/1/6 142/1/100 116/1/78
f 118/1/6 144/1/6 116/1/78
f 145/1/101 119/1/79 117/1/5
f 143/1/5 145/1/101 117/1/5
f 146/1/102 144/1/6 118/1/6
f 120/1/80 146/1/102 118/1/6
f 147/1/103 121/1/81 119/1/79
f 145/1/101 147/1/103 119/1/79
f 148/1/104 146/1/102 120/1/80
f 122/1/82 148/1/104 120/1/80
f 149/1/105 123/1/83 121/1/81
f 147/1/103 149/1/105 121/1/81
f 150/1/106 148/1/104 122/1/82
f 124/1/84 150/1/106 122/1/82
f 151/1/5 125/1/5 123/1/83
f 149/1/105 151/1/5 123/1/83
f 152/1/6 150/1/106 124/1/84
f 126/1/6 152/1/6 124/1/84
f 153/1/107 127/1/85 125/1/5
f 151/1/5 153/1/107 125/1/5
f 154/1/108 152/1/6 126/1/6
f 128/1/86 154/1/108 126/1/6
f 155/1/109 129/1/87 127/1/85
f 153/1/107 155/1/109 127/1/85
f 156/1/110 154/1/108 128/1/86
f 130/1/88 156/1/110 128/1/86
f 106/1/89 107/1/89 133/1/111
f 106/1/89 133/1/111 132/1/111
f 156/1/112 130/1/90 129/1/90
f 155/1/112 156/1/112 129/1/90
f 157/1/113 131/1/91 132/1/92
f 158/1/114 157/1/113 132/1/92
f 160/1/116 159/1/115 133/1/93
f 134/1/94 160/1/116 133/1/93
f 161/1/5 135/1/5 131/1/91
f 157/1/113 161/1/5 131/1/91
f 162/1/6 160/1/116 134/1/94
f 136/1/6 162/1/6 134/1/94
f 163/1/117 137/1/95 135/1/5
f 161/1/5 163/1/117 135/1/5
f 164/1/118 162/1/6 136/1/6
f 138/1/96 164/1/118 136/1/6
f 165/1/119 139/1/97 137/1/95
f 163/1/117 165/1/119 137/1/95
f 166/1/120 164/1/118 138/1/96
f 140/1/98 166/1/120 138/1/96
f 167/1/121 141/1/99 139/1/97
f 165/1/119 167/1/121 139/1/97
f 168/1/122 166/1/120 140/1/98
f 142/1/100 168/1/122 140/1/98
f 169/1/5 143/1/5 141/1/99
f 167/1/121 169/1/5 141/1/99
f 170/1/6 168/1/122 142/1/100
f 144/1/6 170/1/6 142/1/100
f 171/1/123 145/1/101 143/1/5
f 169/1/5 171/1/123 143/1/5
f 172/1/124 170/1/6 144/1/6
f 146/1/102 172/1/124 144/1/6
f 173/1/125 147/1/103 145/1/101
f 171/1/123 173/1/125 145/1/101
f 174/1/126 172/1/124 146/1/102
f 148/1/104 174/1/126 146/1/102
f 175/1/127 149/1/105 147/1/103
f 173/1/125 175/1/127 147/1/103
f 176/1/128 174/1/126 148/1/104
f 150/1/106 176/1/128 148/1/104
f 177/1/5 151/1/5 149/1/105
f 175/1/127 177/1/5 149/1/105
f 178/1/6 176/1/128 150/1/106
f 152/1/6 178/1/6 150/1/106
f 179/1/129 153/1/107 151/1/5
f 177/1/5 179/1/129 151/1/5
f 180/1/130 178/1/6 152/1/6
f 154/1/108 180/1/130 152/1/6
f 181/1/131 155/1/109 153/1/107
f 179/1/129 181/1/131 153/1/107
f 182/1/132 180/1/130 154/1/108
f 156/1/110 182/1/132 154/1/108
f 132/1/111 133/1/111 159/1/133
f 132/1/111 159/1/133 158/1/133
f 182/1/134 156/1/112 155/1/112
f 181/1/134 182/1/134 155/1/112
f 183/1/135 157/1/113 158/1/114
f 184/1/136 183/1/135 158/1/114
f 186/1/138 185/1/137 159/1/115
f 160/1/116 186/1/138 159/1/115
f 187/1/5 161/1/5 157/1/113
f 183/1/135 187/1/5 157/1/113
f 188/1/6 186/1/138 160/1/116
f 162/1/6 188/1/6 160/1/116
f 189/1/139 163/1/117 161/1/5
f 187/1/5 189/1/139 161/1/5
f 190/1/140 188/1/6 162/1/6
f 164/1/118 190/1/140 162/1/6
f 191/1/141 165/1/119 163/1/117
f 189/1/139 191/1/141 163/1/117
f 192/1/142 190/1/140 164/1/118
f 166/1/120 192/1/142 164/1/118
f 193/1/143 167/1/121 165/1/119
f 191/1/141 193/1/143 165/1/119
f 194/1/144 192/1/142 166/1/120
f 168/1/122 194/1/144 166/1/120
f 195/1/5 169/1/5 167/1/121
f 193/1/143 195/1/5 167/1/121
f 196/1/6 194/1/144 168/1/122
f 170/1/6 196/1/6 168/1/122
f 197/1/145 171/1/123 169/1/5
f 195/1/5 197/1/145 169/1/5
f 198/1/146 196/1/6 170/1/6
f 172/1/124 198/1/146 170/1/6
f 199/1/147 173/1/125 171/1/123
f 197/1/145 199/1/147 171/1/123
f 200/1/148 198/1/146 172/1/124
f 174/1/126 200/1/148 172/1/124
f 201/1/149 175/1/127 173/1/125
f 199/1/147 201/1/149 173/1/125
f 202/1/150 200/1/148 174/1/126
f 176/1/128 202/1/150 174/1/126
f 203/1/5 177/1/5 175/1/127
f 201/1/149 203/1/5 175/1/127
f 204/1/6 202/1/150 176/1/128
f 178/1/6 204/1/6 176/1/128
f 205/1/151 179/1/129 177/1/5
f 203/1/5 205/1/151 177/1/5
f 206/1/152 204/1/6 178/1/6
f 180/1/130 206/1/152 178/1/6
f 207/1/153 181/1/131 179/1/129
f 205/1/151 207/1/153 179/1/129
f 208/1/154 206/1/152 180/1/130
f 182/1/132 208/1/154 180/1/130
f 158/1/133 159/1/133 185/1/155
f 158/1/133 185/1/155 184/1/155
f 208/1/156 182/1/134 181/1/134
f 207/1/156 208/1/156 181/1/134
f 209/1/157 183/1/135 184/1/136
f 210/1/158 209/1/157 184/1/136
f 212/1/160 211/1/159 185/1/137
f 186/1/138 212/1/160 185/1/137
f 213/1/5 187/1/5 183/1/135
f 209/1/157 213/1/5 183/1/135
f 214/1/6 212/1/160 186/1/138
f 188/1/6 214/1/6 186/1/138
f 215/1/161 189/1/139 187/1/5
f 213/1/5 215/1/161 187/1/5
f 216/1/162 214/1/6 188/1/6
f 190/1/140 216/1/162 188/1/6
f 217/1/163 191/1/141 189/1/139
f 215/1/161 217/1/163 189/1/139
f 218/1/164 216/1/162 190/1/140
f 192/1/142 218/1/164 190/1/140
f 219/1/165 193/1/143 191/1/141
f 217/1/163 219/1/165 191/1/141
f 220/1/166 218/1/164 192/1/142
f 194/1/144 220/1/166 192/1/142
f 221/1/5 195/1/5 193/1/143
f 219/1/165 221/1/5 193/1/143
f 222/1/6 220/1/166 194/1/144
f 196/1/6 222/1/6 194/1/144
f 223/1/167 197/1/145 195/1/5
f 221/1/5 223/1/167 195/1/5
f 224/1/168 222/1/6 196/1/6
f 198/1/146 224/1/168 196/1/6
f 225/1/169 199/1/147 197/1/145
f 223/1/167 225/1/169 197/1/145
f 226/1/170 224/1/168 198/1/146
f 200/1/148 226/1/170 198/1/146
f 227/1/171 201/1/149 199/1/147
f 225/1/169 227/1/171 199/1/147
f 228/1/172 226/1/170 200/1/148
f 202/1/150 228/1/172 200/1/148
f 229/1/5 203/1/5 201/1/149
f 227/1/171 229/1/5 201/1/149
f 230/1/6 228/1/172 202/1/150
f 204/1/6 230/1/6 202/1/150
f 231/1/173 205/1/151 203/1/5
f 229/1/5 231/1/173 203/1/5
f 232/1/174 230/1/6 204/1/6
f 206/1/152 232/1/174 204/1/6
f 233/1/175 207/1/153 205/1/151
f 231/1/173 233/1/175 205/1/151
f 234/1/176 232/1/174 206/1/152
f 208/1/154 234/1/176 206/1/152
f 184/1/155 185/1/155 211/1/177
f 184/1/155 211/1/177 210/1/177
f 234/1/178 208/1/156 207/1/156
f 233/1/178 234/1/178 207/1/156
f 235/1/179 209/1/157 210/1/158
f 236/1/180 235/1/179 210/1/158
f 238/1/182 237/1/181 211/1/159
f 212/1/160 238/1/182 211/1/159
f 239/1/5 213/1/5 209/1/157
f 235/1/179 239/1/5 209/1/157
f 240/1/6 238/1/182 212/1/160
f 214/1/6 240/1/6 212/1/160
f 241/1/183 215/1/161 213/1/5
f 239/1/5 241/1/183 213/1/5
f 242/1/184 240/1/6 214/1/6
f 216/1/162 242/1/184 214/1/6
f 243/1/185 217/1/163 215/1/161
f 241/1/183 243/1/185 215/1/161
f 244/1/186 242/1/184 216/1/162
f 218/1/164 244/1/186 216/1/162
f 245/1/187 219/1/165 217/1/163
f 243/1/185 245/1/187 217/1/163
f 246/1/188 244/1/186 218/1/164
f 220/1/166 246/1/188 218/1/164
f 247/1/5 221/1/5 219/1/165
f 245/1/187 247/1/5 219/1/165
f 248/1/6 246/1/188 220/1/166
f 222/1/6 248/1/6 220/1/166
f 249/1/189 223/1/167 221/1/5
f 247/1/5 249/1/189 221/1/5
f 250/1/190 248/1/6 222/1/6
f 224/1/168 250/1/190 222/1/6
f 251/1/191 225/1/169 223/1/167
f 249/1/189 251/1/191 223/1/167
f 252/1/192 250/1/190 224/1/168
f 226/1/170 252/1/192 224/1/168
f 253/1/193 227/1/171 225/1/169
f 251/1/191 253/1/193 225/1/169
f 254/1/194 252/1/192 226/1/170
f 228/1/172 254/1/194 226/1/170
f 255/1/5 229/1/5 227/1/171
f 253/1/193 255/1/5 227/1/171
f 256/1/6 254/1/194 228/1/172
f 230/1/6 256/1/6 228/1/172
f 257/1/195 231/1/173 229/1/5
f 255/1/5 257/1/195 229/1/5
f 258/1/196 256/1/6 230/1/6
f 232/1/174 258/1/196 230/1/6
f 259/1/197 233/1/175 231/1/173
f 257/1/195 259/1/197 231/1/173
f 260/1/198 258/1/196 232/1/174
f 234/1/176 260/1/198 232/1/174
f 210/1/177 211/1/177 237/1/199
f 210/1/177 237/1/199 236/1/199
f 260/1/200 234/1/178 233/1/178
f 259/1/200 260/1/200 233/1/178
f 261/1/201 235/1/179 236/1/180
f 262/1/202 261/1/201 236/1/180
f 264/1/204 263/1/203 237/1/181
f 238/1/182 264/1/204 237/1/181
f 265/1/5 239/1/5 235/1/179
f 261/1/201 265/1/5 235/1/179
f 266/1/6 264/1/204 238/1/182
f 240/1/6 266/1/6 238/1/182
f 267/1/205 241/1/183 239/1/5
f 265/1/5 267/1/205 239/1/5
f 268/1/206 266/1/6 240/1/6
f 242/1/184 268/1/206 240/1/6
f 269/1/207 243/1/185 241/1/183
f 267/1/205 269/1/207 241/1/183
f 270/1/208 268/1/206 242/1/184
f 244/1/186 270/1/208 242/1/184
f 271/1/209 245/1/187 243/1/185
f 269/1/207 271/1/209 243/1/185
f 272/1/210 270/1/208 244/1/186
f 246/1/188 272/1/210 244/1/186
f 273/1/5 247/1/5 245/1/187
f 271/1/209 273/1/5 245/1/187
f 274/1/6 272/1/210 246/1/188
f 248/1/6 274/1/6 246/1/188
f 275/1/211 249/1/189 247/1/5
f 273/1/5 275/1/211 247/1/5
f 276/1/212 274/1/6 248/1/6
f 250/1/190 276/1/212 248/1/6
f 277/1/213 251/1/191 249/1/189
f 275/1/211 277/1/213 249/1/189
f 278/1/214 276/1/212 250/1/190
f 252/1/192 278/1/214 250/1/190
f 279/1/215 253/1/193 251/1/191
f 277/1/213 279/1/215 251/1/191
f 280/1/216 278/1/214 252/1/192
f 254/1/194 280/1/216 252/1/192
f 281/1/5 255/1/5 253/1/193
f 279/1/215 281/1/5 253/1/193
f 282/1/6 280/1/216 254/1/194
f 256/1/6 282/1/6 254/1/194
f 283/1/217 257/1/195 255/1/5
f 281/1/5 283/1/217 255/1/5
f 284/1/218 282/1/6 256/1/6
f 258/1/196 284/1/218 256/1/6
f 285/1/219 259/1/197 257/1/195
f 283/1/217 285/1/219 257/1/195
f 286/1/220 284/1/218 258/1/196
f 260/1/198 286/1/220 258/1/196
f 236/1/199 237/1/199 263/1/221
f 236/1/199 263/1/221 262/1/221
f 286/1/222 260/1/200 259/1/200
f 285/1/222 286/1/222 259/1/200
f 287/1/223 261/1/201 262/1/202
f 288/1/224 287/1/223 262/1/202
f 290/1/226 289/1/225 263/1/203
f 264/1/204 290/1/226 263/1/203
f 291/1/5 265/1/5 261/1/201
f 287/1/223 291/1/5 261/1/201
f 292/1/6 290/1/226 264/1/204
f 266/1/6 292/1/6 264/1/204
f 293/1/227 267/1/205 265/1/5
f 291/1/5 293/1/227 265/1/5
f 294/1/228 292/1/6 266/1/6
f 268/1/206 294/1/228 266/1/6
f 295/1/229 269/1/207 267/1/205
f 293/1/227 295/1/229 267/1/205
f 296/1/230 294/1/228 268/1/206
f 270/1/208 296/1/230 268/1/206
f 297/1/231 271/1/209 269/1/207
f 295/1/229 297/1/231 269/1/207
f 298/1/232 296/1/230 270/1/208
f 272/1/210 298/1/232 270/1/208
f 299/1/5 273/1/5 271/1/209
f 297/1/231 299/1/5 271/1/209
f 300/1/6 298/1/232 272/1/210
f 274/1/6 300/1/6 272/1/210
f 301/1/233 275/1/211 273/1/5
f 299/1/5 301/1/233 273/1/5
f 302/1/234 300/1/6 274/1/6
f 276/1/212 302/1/234 274/1/6
f 303/1/235 277/1/213 275/1/211
f 301/1/233 303/1/235 275/1/211
f 304/1/236 302/1/234 276/1/212
f 278/1/214 304/1/236 276/1/212
f 305/1/237 279/1/215 277/1/213
f 303/1/235 305/1/237 277/1/213
f 306/1/238 304/1/236 278/1/214
f 280/1/216 306/1/238 278/1/214
f 307/1/5 281/1/5 279/1/215
f 305/1/237 307/1/5 279/1/215
f 308/1/6 306/1/238 280/1/216
f 282/1/6 308/1/6 280/1/216
f 309/1/239 283/1/217 281/1/5
f 307/1/5 309/1/239 281/1/5
f 310/1/240 308/1/6 282/1/6
f 284/1/218 310/1/240 282/1/6
f 311/1/241 285/1/219 283/1/217
f 309/1/239 311/1/241 283/1/217
f 312/1/242 310/1/240 284/1/218
f 286/1/220 312/1/242 284/1/218
f 262/1/221 263/1/221 289/1/243
f 262/1/221 289/1/243 288/1/243
f 312/1/244 286/1/222 285/1/222
f 311/1/244 312/1/244 285/1/222
f 313/1/245 287/1/223 288/1/224
f 314/1/246 313/1/245 288/1/224
f 316/1/248 315/1/247 289/1/225
f 290/1/226 316/1/248 289/1/225
f 317/1/5 291/1/5 287/1/223
f 313/1/245 317/1/5 287/1/223
f 318/1/6 316/1/248 290/1/226
f 292/1/6 318/1/6 290/1/226
f 319/1/249 293/1/227 291/1/5
f 317/1/5 319/1/249 291/1/5
f 320/1/250 318/1/6 292/1/6
f 294/1/228 320/1/250 292/1/6
f 321/1/251 295/1/229 293/1/227
f 319/1/249 321/1/251 293/1/227
f 322/1/252 320/1/250 294/1/228
f 296/1/230 322/1/252 294/1/228
f 323/1/253 297/1/231 295/1/229
f 321/1/251 323/1/253 295/1/229
f 324/1/254 322/1/252 296/1/230
f 298/1/232 324/1/254 296/1/230
f 325/1/5 299/1/5 297/1/231
f 323/1/253 325/1/5 297/1/231
f 326/1/6 324/1/254 298/1/232
f 300/1/6 326/1/6 298/1/232
f 327/1/255 301/1/233 299/1/5
f 325/1/5 327/1/255 299/1/5
f 328/1/256 326/1/6 300/1/6
f 302/1/234 328/1/256 300/1/6
f 329/1/257 303/1/235 301/1/233
f 327/1/255 329/1/257 301/1/233
f 330/1/258 328/1/256 302/1/234
f 304/1/236 330/1/258 302/1/234
f 331/1/259 305/1/237 303/1/235
f 329/1/257 331/1/259 303/1/235
f 332/1/260 330/1/258 304/1/236
f 306/1/238 332/1/260 304/1/236
f 333/1/5 307/1/5 305/1/237
f 331/1/259 333/1/5 305/1/237
f 334/1/6 332/1/260 306/1/238
f 308/1/6 334/1/6 306/1/238
f 335/1/261 309/1/239 307/1/5
f 333/1/5 335/1/261 307/1/5
f 336/1/262 334/1/6 308/1/6
f 310/1/240 336/1/262 308/1/6
f 337/1/263 311/1/241 309/1/239
f 335/1/261 337/1/263 309/1/239
f 338/1/264 336/1/262 310/1/240
f 312/1/242 338/1/264 310/1/240
f 288/1/243 289/1/243 315/1/265
f 288/1/243 315/1/265 314/1/265
f 338/1/266 312/1/244 311/1/244
f 337/1/266 338/1/266 311/1/244
f 339/1/267 313/1/245 314/1/246
f 340/1/268 339/1/267 314/1/246
f 342/1/270 341/1/269 315/1/247
f 316/1/248 342/1/270 315/1/247
f 343/1/5 317/1/5 313/1/245
f 339/1/267 343/1/5 313/1/245
f 344/1/6 342/1/270 316/1/248
f 318/1/6 344/1/6 316/1/248
f 345/1/271 319/1/249 317/1/5
f 343/1/5 345/1/271 317/1/5
f 346/1/272 344/1/6 318/1/6
f 320/1/250 346/1/272 318/1/6
f 347/1/273 321/1/251 319/1/249
f 345/1/271 347/1/273 319/1/249
f 348/1/274 346/1/272 320/1/250
f 322/1/252 348/1/274 320/1/250
f 349/1/275 323/1/253 321/1/251
f 347/1/273 349/1/275 321/1/251
f 350/1/276 348/1/274 322/1/252
f 324/1/254 350/1/276 322/1/252
f 351/1/5 325/1/5 323/1/253
f 349/1/275 351/1/5 323/1/253
f 352/1/6 350/1/276 324/1/254
f 326/1/6 352/1/6 324/1/254
f 353/1/277 327/1/255 325/1/5
f 351/1/5 353/1/277 325/1/5
f 354/1/278 352/1/6 326/1/6
f 328/1/256 354/1/278 326/1/6
f 355/1/279 329/1/257 327/1/255
f 353/1/277 355/1/279 327/1/255
f 356/1/280 354/1/278 328/1/256
f 330/1/258 356/1/280 328/1/256
f 357/1/281 331/1/259 329/1/257
f 355/1/279 357/1/281 329/1/257
f 358/1/282 356/1/280 330/1/258
f 332/1/260 358/1/282 330/1/258
f 359/1/5 333/1/5 331/1/259
f 357/1/281 359/1/5 331/1/259
f 360/1/6 358/1/282 332/1/260
f 334/1/6 360/1/6 332/1/260
f 361/1/283 335/1/261 333/1/5
f 359/1/5 361/1/283 333/1/5
f 362/1/284 360/1/6 334/1/6
f 336/1/262 362/1/284 334/1/6
f 363/1/285 337/1/263 335/1/261
f 361/1/283 363/1/285 335/1/261
f 364/1/286 362/1/284 336/1/262
f 338/1/264 364/1/286 336/1/262
f 314/1/265 315/1/265 341/1/287
f 314/1/265 341/1/287 340/1/287
f 364/1/288 338/1/266 337/1/266
f 363/1/288 364/1/288 337/1/266
f 365/1/289 339/1/267 340/1/268
f 366/1/290 365/1/289 340/1/268
f 368/1/292 367/1/291 341/1/269
f 342/1/270 368/1/292 341/1/269
f 369/1/5 343/1/5 339/1/267
f 365/1/289 369/1/5 339/1/267
f 370/1/6 368/1/292 342/1/270
f 344/1/6 370/1/6 342/1/270
f 371/1/293 345/1/271 343/1/5
f 369/1/5 371/1/293 343/1/5
f 372/1/294 370/1/6 344/1/6
f 346/1/272 372/1/294 344/1/6
f 373/1/295 347/1/273 345/1/271
f 371/1/293 373/1/295 345/1/271
f 374/1/296 372/1/294 346/1/272
f 348/1/274 374/1/296 346/1/272
f 375/1/297 349/1/275 347/1/273
f 373/1/295 375/1/297 347/1/273
f 376/1/298 374/1/296 348/1/274
f 350/1/276 376/1/298 348/1/274
f 377/1/5 351/1/5 349/1/275
f 375/1/297 377/1/5 349/1/275
f 378/1/6 376/1/298 350/1/276
f 352/1/6 378/1/6 350/1/276
f 379/1/299 353/1/277 351/1/5
f 377/1/5 379/1/299 351/1/5
f 380/1/300 378/1/6 352/1/6
f 354/1/278 380/1/300 352/1/6
f 381/1/301 355/1/279 353/1/277
f 379/1/299 381/1/301 353/1/277
f 382/1/302 380/1/300 354/1/278
f 356/1/280 382/1/302 354/1/278
f 383/1/303 357/1/281 355/1/279
f 381/1/301 383/1/303 355/1/279
f 384/1/304 382/1/302 356/1/280
f 358/1/282 384/1/304 356/1/280
f 385/1/5 359/1/5 357/1/281
f 383/1/303 385/1/5 357/1/281
f 386/1/6 384/1/304 358/1/282
f 360/1/6 386/1/6 358/1/282
f 387/1/305 361/1/283 359/1/5
f 385/1/5 387/1/305 359/1/5
f 388/1/306 386/1/6 360/1/6
f 362/1/284 388/1/306 360/1/6
f 389/1/307 363/1/285 361/1/283
f 387/1/305 389/1/307 361/1/283
f 390/1/308 388/1/306 362/1/284
f 364/1/286 390/1/308 362/1/284
f 340/1/287 341/1/287 367/1/309
f 340/1/287 367/1/309 366/1/309
f 390/1/310 364/1/288 363/1/288
f 389/1/310 390/1/310 363/1/288
f 391/1/311 365/1/289 366/1/290
f 392/1/312 391/1/311 366/1/290
f 394/1/314 393/1/313 367/1/291
f 368/1/292 394/1/314 367/1/291
f 395/1/5 369/1/5 365/1/289
f 391/1/311 395/1/5 365/1/289
f 396/1/6 394/1/314 368/1/292
f 370/1/6 396/1/6 368/1/292
f 397/1/315 371/1/293 369/1/5
f 395/1/5 397/1/315 369/1/5
f 398/1/316 396/1/6 370/1/6
f 372/1/294 398/1/316 370/1/6
f 399/1/317 373/1/295 371/1/293
f 397/1/315 399/1/317 371/1/293
f 400/1/318 398/1/316 372/1/294
f 374/1/296 400/1/318 372/1/294
f 401/1/319 375/1/297 373/1/295
f 399/1/317 401/1/319 373/1/295
f 402/1/320 400/1/318 374/1/296
f 376/1/298 402/1/320 374/1/296
f 403/1/5 377/1/5 375/1/297
f 401/1/319 403/1/5 375/1/297
f 404/1/6 402/1/320 376/1/298
f 378/1/6 404/1/6 376/1/298
f 405/1/321 379/1/299 377/1/5
f 403/1/5 405/1/321 377/1/5
f 406/1/322 404/1/6 378/1/6
f 380/1/300 406/1/322 378/1/6
f 407/1/323 381/1/301 379/1/299
f 405/1/321 407/1/323 379/1/299
f 408/1/324 406/1/322 380/1/300
f 382/1/302 408/1/324 380/1/300
f 409/1/325 383/1/303 381/1/301
f 407/1/323 409/1/325 381/1/301
f 410/1/326 408/1/324 382/1/302
f 384/1/304 410/1/326 382/1/302
f 411/1/5 385/1/5 383/1/303
f 409/1/325 411/1/5 383/1/303
f 412/1/6 410/1/326 384/1/304
f 386/1/6 412/1/6 384/1/304
f 413/1/327 387/1/305 385/1/5
f 411/1/5 413/1/327 385/1/5
f 414/1/328 412/1/6 386/1/6
f 388/1/306 414/1/328 386/1/6
f 415/1/329 389/1/307 387/1/305
f 413/1/327 415/1/329 387/1/305
f 416/1/330 414/1/328 388/1/306
f 390/1/308 416/1/330 388/1/306
f 366/1/309 367/1/309 393/1/331
f 366/1/309 393/1/331 392/1/331
f 416/1/332 390/1/310 389/1/310
f 415/1/332 416/1/332 389/1/310
f 417/1/333 391/1/311 392/1/312
f 418/1/334 417/1/333 392/1/312
f 420/1/336 419/1/335 393/1/313
f 394/1/314 420/1/336 393/1/313
f 421/1/5 395/1/5 391/1/311
f 417/1/333 421/1/5 391/1/311
f 422/1/6 420/1/336 394/1/314
f 396/1/6 422/1/6 394/1/314
f 423/1/337 397/1/315 395/1/5
f 421/1/5 423/1/337 395/1/5
f 424/1/338 422/1/6 396/1/6
f 398/1/316 424/1/338 396/1/6
f 425/1/339 399/1/317 397/1/315
f 423/1/337 425/1/339 397/1/315
f 426/1/340 424/1/338 398/1/316
f 400/1/318 426/1/340 398/1/316
f 427/1/341 401/1/319 399/1/317
f 425/1/339 427/1/341 399/1/317
f 428/1/342 426/1/340 400/1/318
f 402/1/320 428/1/342 400/1/318
f 429/1/5 403/1/5 401/1/319
f 427/1/341 429/1/5 401/1/319
f 430/1/6 428/1/342 402/1/320
f 404/1/6 430/1/6 402/1/320
f 431/1/343 405/1/321 403/1/5
f 429/1/5 431/1/343 403/1/5
f 432/1/344 430/1/6 404/1/6
f 406/1/322 432/1/344 404/1/6
f 433/1/345 407/1/323 405/1/321
f 431/1/343 433/1/345 405/1/321
f 434/1/346 432/1/344 406/1/322
f 408/1/324 434/1/346 406/1/322
f 435/1/347 409/1/325 407/1/323
f 433/1/345 435/1/347 407/1/323
f 436/1/348 434/1/346 408/1/324
f 410/1/326 436/1/348 408/1/324
f 437/1/5 411/1/5 409/1/325
f 435/1/347 437/1/5 409/1/325
f 438/1/6 436/1/348 410/1/326
f 412/1/6 438/1/6 410/1/326
f 439/1/349 413/1/327 411/1/5
f 437/1/5 439/1/349 411/1/5
f 440/1/350 438/1/6 412/1/6
f 414/1/328 440/1/350 412/1/6
f 441/1/351 415/1/329 413/1/327
f 439/1/349 441/1/351 413/1/327
f 442/1/352 440/1/350 414/1/328
f 416/1/330 442/1/352 414/1/328
f 392/1/331 393/1/331 419/1/353
f 392/1/331 419/1/353 418/1/353
f 442/1/354 416/1/332 415/1/332
f 441/1/354 442/1/354 415/1/332
f 443/1/355 417/1/333 418/1/334
f 444/1/356 443/1/355 418/1/334
f 446/1/358 445/1/357 419/1/335
f 420/1/336 446/1/358 419/1/335
f 447/1/5 421/1/5 417/1/333
f 443/1/355 447/1/5 417/1/333
f 448/1/6 446/1/358 420/1/336
f 422/1/6 448/1/6 420/1/336
f 449/1/359 423/1/337 421/1/5
f 447/1/5 449/1/359 421/1/5
f 450/1/360 448/1/6 422/1/6
f 424/1/338 450/1/360 422/1/6
f 451/1/361 425/1/339 423/1/337
f 449/1/359 451/1/361 423/1/337
f 452/1/362 450/1/360 424/1/338
f 426/1/340 452/1/362 424/1/338
f 453/1/363 427/1/341 425/1/339
f 451/1/361 453/1/363 425/1/339
f 454/1/364 452/1/362 426/1/340
f 428/1/342 454/1/364 426/1/340
f 455/1/5 429/1/5 427/1/341
f 453/1/363 455/1/5 427/1/341
f 456/1/6 454/1/364 428/1/342
f 430/1/6 456/1/6 428/1/342
f 457/1/365 431/1/343 429/1/5
f 455/1/5 457/1/365 429/1/5
f 458/1/366 456/1/6 430/1/6
f 432/1/344 458/1/366 430/1/6
f 459/1/367 433/1/345 431/1/343
f 457/1/365 459/1/367 431/1/343
f 460/1/368 458/1/366 432/1/344
f 434/1/346 460/1/368 432/1/344
f 461/1/369 435/1/347 433/1/345
f 459/1/367 461/1/369 433/1/345
f 462/1/370 460/1/368 434/1/346
f 436/1/348 462/1/370 434/1/346
f 463/1/5 437/1/5 435/1/347
f 461/1/369 463/1/5 435/1/347
f 464/1/6 462/1/370 436/1/348
f 438/1/6 464/1/6 436/1/348
f 465/1/371 439/1/349 437/1/5
f 463/1/5 465/1/371 437/1/5
f 466/1/372 464/1/6 438/1/6
f 440/1/350 466/1/372 438/1/6
f 467/1/373 441/1/351 439/1/349
f 465/1/371 467/1/373 439/1/349
f 468/1/374 466/1/372 440/1/350
f 442/1/352 468/1/374 440/1/350
f 418/1/353 419/1/353 445/1/375
f 418/1/353 445/1/375 444/1/375
f 468/1/376 442/1/354 441/1/354
f 467/1/376 468/1/376 441/1/354
f 469/1/377 443/1/355 444/1/356
f 470/1/378 469/1/377 444/1/356
f 472/1/380 471/1/379 445/1/357
f 446/1/358 472/1/380 445/1/357
f 473/1/5 447/1/5 443/1/355
f 469/1/377 473/1/5 443/1/355
f 474/1/6 472/1/380 446/1/358
f 448/1/6 474/1/6 446/1/358
f 475/1/381 449/1/359 447/1/5
f 473/1/5 475/1/381 447/1/5
f 476/1/382 474/1/6 448/1/6
f 450/1/360 476/1/382 448/1/6
f 477/1/383 451/1/361 449/1/359
f 475/1/381 477/1/383 449/1/359
f 478/1/384 476/1/382 450/1/360
f 452/1/362 478/1/384 450/1/360
f 479/1/385 453/1/363 451/1/361
f 477/1/383 479/1/385 451/1/361
f 480/1/386 478/1/384 452/1/362
f 454/1/364 480/1/386 452/1/362
f 481/1/5 455/1/5 453/1/363
f 479/1/385 481/1/5 453/1/363
f 482/1/6 480/1/386 454/1/364
f 456/1/6 482/1/6 454/1/364
f 483/1/387 457/1/365 455/1/5
f 481/1/5 483/1/387 455/1/5
f 484/1/388 482/1/6 456/1/6
f 458/1/366 484/1/388 456/1/6
f 485/1/389 459/1/367 457/1/365
f 483/1/387 485/1/389 457/1/365
f 486/1/390 484/1/388 458/1/366
f 460/1/368 486/1/390 458/1/366
f 487/1/391 461/1/369 459/1/367
f 485/1/389 487/1/391 459/1/367
f 488/1/392 486/1/390 460/1/368
f 462/1/370 488/1/392 460/1/368
f 489/1/5 463/1/5 461/1/369
f 487/1/391 489/1/5 461/1/369
f 490/1/6 488/1/392 462/1/370
f 464/1/6 490/1/6 462/1/370
f 491/1/393 465/1/371 463/1/5
f 489/1/5 491/1/393 463/1/5
f 492/1/394 490/1/6 464/1/6
f 466/1/372 492/1/394 464/1/6
f 493/1/395 467/1/373 465/1/371
f 491/1/393 493/1/395 465/1/371
f 494/1/396 492/1/394 466/1/372
f 468/1/374 494/1/396 466/1/372
f 444/1/375 445/1/375 471/1/397
f 444/1/375 471/1/397 470/1/397
f 494/1/398 468/1/376 467/1/376
f 493/1/398 494/1/398 467/1/376
f 495/1/399 469/1/377 470/1/378
f 496/1/400 495/1/399 470/1/378
f 498/1/402 497/1/401 471/1/379
f 472/1/380 498/1/402 471/1/379
f 499/1/5 473/1/5 469/1/377
f 495/1/399 499/1/5 469/1/377
f 500/1/6 498/1/402 472/1/380
f 474/1/6 500/1/6 472/1/380
f 501/1/403 475/1/381 473/1/5
f 499/1/5 501/1/403 473/1/5
f 502/1/404 500/1/6 474/1/6
f 476/1/382 502/1/404 474/1/6
f 503/1/405 477/1/383 475/1/381
f 501/1/403 503/1/405 475/1/381
f 504/1/406 502/1/404 476/1/382
f 478/1/384 504/1/406 476/1/382
f 505/1/407 479/1/385 477/1/383
f 503/1/405 505/1/407 477/1/383
f 506/1/408 504/1/406 478/1/384
f 480/1/386 506/1/408 478/1/384
f 507/1/5 481/1/5 479/1/385
f 505/1/407 507/1/5 479/1/385
f 508/1/6 506/1/408 480/1/386
f 482/1/6 508/1/6 480/1/386
f 509/1/409 483/1/387 481/1/5
f 507/1/5 509/1/409 481/1/5
f 510/1/410 508/1/6 482/1/6
f 484/1/388 510/1/410 482/1/6
f 511/1/411 485/1/389 483/1/387
f 509/1/409 511/1/411 483/1/387
f 512/1/412 510/1/410 484/1/388
f 486/1/390 512/1/412 484/1/388
f 513/1/413 487/1/391 485/1/389
f 511/1/411 513/1/413 485/1/389
f 514/1/414 512/1/412 486/1/390
f 488/1/392 514/1/414 486/1/390
f 515/1/5 489/1/5 487/1/391
f 513/1/413 515/1/5 487/1/391
f 516/1/6 514/1/414 488/1/392
f 490/1/6 516/1/6 488/1/392
f 517/1/415 491/1/393 489/1/5
f 515/1/5 517/1/415 489/1/5
f 518/1/416 516/1/6 490/1/6
f 492/1/394 518/1/416 490/1/6
f 519/1/417 493/1/395 491/1/393
f 517/1/415 519/1/417 491/1/393
f 520/1/418 518/1/416 492/1/394
f 494/1/396 520/1/418 492/1/394
f 470/1/397 471/1/397 497/1/419
f 470/1/397 497/1/419 496/1/419
f 520/1/420 494/1/398 493/1/398
f 519/1/420 520/1/420 493/1/398
f 8/1/421 5/1/421 1/1/421
f 2/1/421 8/1/421 1/1/421
f 12/1/421 8/1/421 2/1/421
f 9/1/421 12/1/421 2/1/421
f 16/1/421 12/1/421 9/1/421
f 13/1/421 16/1/421 9/1/421
f 20/1/421 16/1/421 13/1/421
f 17/1/421 20/1/421 13/1/421
f 24/1/421 20/1/421 17/1/421
f 21/1/421 24/1/421 17/1/421
f 28/1/421 24/1/421 21/1/421
f 25/1/421 28/1/421 21/1/421
f 32/1/421 28/1/421 25/1/421
f 29/1/421 32/1/421 25/1/421
f 36/1/421 32/1/421 29/1/421
f 33/1/421 36/1/421 29/1/421
f 40/1/421 36/1/421 33/1/421
f 37/1/421 40/1/421 33/1/421
f 44/1/421 40/1/421 37/1/421
f 41/1/421 44/1/421 37/1/421
f 48/1/421 44/1/421 41/1/421
f 45/1/421 48/1/421 41/1/421
f 52/1/421 48/1/421 45/1/421
f 49/1/421 52/1/421 45/1/421
f 496/1/422 497/1/422 498/1/422
f 496/1/422 498/1/422 495/1/422
f 495/1/422 498/1/422 500/1/422
f 495/1/422 500/1/422 499/1/422
f 499/1/422 500/1/422 502/1/422
f 499/1/422 502/1/422 501/1/422
f 501/1/422 502/1/422 504/1/422
f 501/1/422 504/1/422 503/1/422
f 503/1/422 504/1/422 506/1/422
f 503/1/422 506/1/422 505/1/422
f 505/1/422 506/1/422 508/1/422
f 505/1/422 508/1/422 507/1/422
f 507/1/422 508/1/422 510/1/422
f 507/1/422 510/1/422 509/1/422
f 509/1/422 510/1/422 512/1/422
f 509/1/422 512/1/422 511/1/422
f 511/1/422 512/1/422 514/1/422
f 511/1/422 514/1/422 513/1/422
f 513/1/422 514/1/422 516/1/422
f 513/1/422 516/1/422 515/1/422
f 515/1/422 516/1/422 518/1/422
f 515/1/422 518/1/422 517/1/422
f 517/1/422 518/1/422 520/1/422
f 517/1/422 520/1/422 519/1/422
f 523/1/421 522/1/421 521/1/421
f 524/1/421 523/1/421 521/1/421
f 527/1/423 526/1/423 525/1/423
f 528/1/423 527/1/423 525/1/423
f 528/1/23 525/1/23 524/1/23
f 521/1/23 528/1/23 524/1/23
f 526/1/24 527/1/24 522/1/24
f 523/1/24 526/1/24 522/1/24
f 525/1/5 526/1/5 523/1/5
f 524/1/5 525/1/5 523/1/5
f 527/1/6 528/1/6 521/1/6
f 522/1/6 527/1/6 521/1/6
f 531/1/421 530/1/421 529/1/421
f 532/1/421 531/1/421 529/1/421
f 535/1/423 534/1/423 533/1/423
f 536/1/423 535/1/423 533/1/423
f 536/1/23 533/1/23 532/1/23
f 529/1/23 536/1/23 532/1/23
f 534/1/24 535/1/24 530/1/24
f 531/1/24 534/1/24 530/1/24
f 533/1/5 534/1/5 531/1/5
f 532/1/5 533/1/5 531/1/5
f 535/1/6 536/1/6 529/1/6
f 530/1/6 535/1/6 529/1/6
f 539/2/421 538/2/421 537/2/421
f 540/2/421 539/2/421 537/2/421
f 543/2/423 542/2/423 541/2/423
f 544/2/423 543/2/423 541/2/423
f 544/2/23 541/2/23 540/2/23
f 537/2/23 544/2/23 540/2/23
f 542/2/24 543/2/24 538/2/24
f 539/2/24 542/2/24 538/2/24
f 541/2/5 542/2/5 539/2/5
f 540/2/5 541/2/5 539/2/5
f 543/2/6 544/2/6 537/2/6
f 538/2/6 543/2/6 537/2/6
