# Procedurally generated by dev-env-utils/scripts/gen_guardrails.py -- do not hand edit
mtllib guardrail_w_beam.mtl
o guardrail_w_beam_inv
v 0.000000 0.475000 0.250000
v 1.000000 0.475000 0.250000
v 1.000000 0.787500 0.250000
v 0.000000 0.787500 0.250000
v 1.000000 0.787500 0.150000
v 0.000000 0.787500 0.150000
v 1.000000 0.731250 0.068750
v 0.000000 0.731250 0.068750
v 1.000000 0.687500 0.050000
v 0.000000 0.687500 0.050000
v 1.000000 0.650000 0.068750
v 0.000000 0.650000 0.068750
v 1.000000 0.631250 0.140625
v 0.000000 0.631250 0.140625
v 1.000000 0.612500 0.068750
v 0.000000 0.612500 0.068750
v 1.000000 0.575000 0.050000
v 0.000000 0.575000 0.050000
v 1.000000 0.531250 0.068750
v 0.000000 0.531250 0.068750
v 1.000000 0.475000 0.150000
v 0.000000 0.475000 0.150000
v 0.400000 0.462500 0.400000
v 0.400000 0.800000 0.400000
v 0.400000 0.800000 0.250000
v 0.400000 0.462500 0.250000
v 0.600000 0.462500 0.250000
v 0.600000 0.800000 0.250000
v 0.600000 0.800000 0.400000
v 0.600000 0.462500 0.400000
v 0.375000 0.000000 0.437500
v 0.375000 0.825000 0.437500
v 0.375000 0.825000 0.400000
v 0.375000 0.000000 0.400000
v 0.625000 0.000000 0.400000
v 0.625000 0.825000 0.400000
v 0.625000 0.825000 0.437500
v 0.625000 0.000000 0.437500
v 0.375000 0.000000 0.600000
v 0.375000 0.825000 0.600000
v 0.412500 0.000000 0.437500
v 0.412500 0.825000 0.437500
v 0.412500 0.825000 0.600000
v 0.412500 0.000000 0.600000
v 0.587500 0.000000 0.600000
v 0.587500 0.825000 0.600000
v 0.587500 0.825000 0.437500
v 0.587500 0.000000 0.437500
v 0.625000 0.825000 0.600000
v 0.625000 0.000000 0.600000
v 0.000000 0.531250 0.250000
v 0.000000 0.575000 0.250000
v 0.000000 0.612500 0.250000
v 0.000000 0.631250 0.250000
v 0.000000 0.650000 0.250000
v 0.000000 0.687500 0.250000
v 0.000000 0.731250 0.250000
v 1.000000 0.531250 0.250000
v 1.000000 0.575000 0.250000
v 1.000000 0.612500 0.250000
v 1.000000 0.631250 0.250000
v 1.000000 0.650000 0.250000
v 1.000000 0.687500 0.250000
v 1.000000 0.731250 0.250000
vt 0.890625 0.125000
vt 0.890625 0.875000
vt 0.890625 0.625000
vn 0.000000 -0.000000 1.000000
vn -0.000000 1.000000 0.000000
vn -0.000000 0.822192 -0.569210
vn -0.000000 0.393919 -0.919145
vn 0.000000 -0.447214 -0.894427
vn 0.000000 -0.967617 -0.252422
vn -0.000000 0.967617 -0.252422
vn -0.000000 0.447214 -0.894427
vn 0.000000 -0.393919 -0.919145
vn 0.000000 -0.822192 -0.569210
vn 0.000000 -1.000000 0.000000
vn -1.000000 0.000000 0.000000
vn 1.000000 0.000000 0.000000
vn 0.000000 0.000000 -1.000000
usemtl body
f 1/1/1 2/1/1 3/1/1
f 1/1/1 3/1/1 4/1/1
f 4/1/2 3/1/2 5/1/2
f 4/1/2 5/1/2 6/1/2
f 6/1/3 5/1/3 7/1/3
f 6/1/3 7/1/3 8/1/3
f 8/1/4 7/1/4 9/1/4
f 8/1/4 9/1/4 10/1/4
f 10/1/5 9/1/5 11/1/5
f 10/1/5 11/1/5 12/1/5
f 12/1/6 11/1/6 13/1/6
f 12/1/6 13/1/6 14/1/6
f 14/1/7 13/1/7 15/1/7
f 14/1/7 15/1/7 16/1/7
f 16/1/8 15/1/8 17/1/8
f 16/1/8 17/1/8 18/1/8
f 18/1/9 17/1/9 19/1/9
f 18/1/9 19/1/9 20/1/9
f 20/1/10 19/1/10 21/1/10
f 20/1/10 21/1/10 22/1/10
f 22/1/11 21/1/11 2/1/11
f 22/1/11 2/1/11 1/1/11
f 23/2/12 24/2/12 25/2/12
f 23/2/12 25/2/12 26/2/12
f 27/2/13 28/2/13 29/2/13
f 27/2/13 29/2/13 30/2/13
f 26/2/11 27/2/11 30/2/11
f 26/2/11 30/2/11 23/2/11
f 24/2/2 29/2/2 28/2/2
f 24/2/2 28/2/2 25/2/2
f 25/2/14 28/2/14 27/2/14
f 25/2/14 27/2/14 26/2/14
f 31/3/12 32/3/12 33/3/12
f 31/3/12 33/3/12 34/3/12
f 35/3/13 36/3/13 37/3/13
f 35/3/13 37/3/13 38/3/13
f 34/3/11 35/3/11 38/3/11
f 34/3/11 38/3/11 31/3/11
f 32/3/2 37/3/2 36/3/2
f 32/3/2 36/3/2 33/3/2
f 33/3/14 36/3/14 35/3/14
f 33/3/14 35/3/14 34/3/14
f 31/3/1 38/3/1 37/3/1
f 31/3/1 37/3/1 32/3/1
f 39/3/12 40/3/12 32/3/12
f 39/3/12 32/3/12 31/3/12
f 41/3/13 42/3/13 43/3/13
f 41/3/13 43/3/13 44/3/13
f 31/3/11 41/3/11 44/3/11
f 31/3/11 44/3/11 39/3/11
f 40/3/2 43/3/2 42/3/2
f 40/3/2 42/3/2 32/3/2
f 39/3/1 44/3/1 43/3/1
f 39/3/1 43/3/1 40/3/1
f 45/3/12 46/3/12 47/3/12
f 45/3/12 47/3/12 48/3/12
f 38/3/13 37/3/13 49/3/13
f 38/3/13 49/3/13 50/3/13
f 48/3/11 38/3/11 50/3/11
f 48/3/11 50/3/11 45/3/11
f 46/3/2 49/3/2 37/3/2
f 46/3/2 37/3/2 47/3/2
f 45/3/1 50/3/1 49/3/1
f 45/3/1 49/3/1 46/3/1
f 1/1/12 51/1/12 20/1/12
f 1/1/12 20/1/12 22/1/12
f 51/1/12 52/1/12 18/1/12
f 51/1/12 18/1/12 20/1/12
f 52/1/12 53/1/12 16/1/12
f 52/1/12 16/1/12 18/1/12
f 53/1/12 54/1/12 14/1/12
f 53/1/12 14/1/12 16/1/12
f 54/1/12 55/1/12 12/1/12
f 54/1/12 12/1/12 14/1/12
f 55/1/12 56/1/12 10/1/12
f 55/1/12 10/1/12 12/1/12
f 56/1/12 57/1/12 8/1/12
f 56/1/12 8/1/12 10/1/12
f 57/1/12 4/1/12 6/1/12
f 57/1/12 6/1/12 8/1/12
f 21/1/13 19/1/13 58/1/13
f 21/1/13 58/1/13 2/1/13
f 19/1/13 17/1/13 59/1/13
f 19/1/13 59/1/13 58/1/13
f 17/1/13 15/1/13 60/1/13
f 17/1/13 60/1/13 59/1/13
f 15/1/13 13/1/13 61/1/13
f 15/1/13 61/1/13 60/1/13
f 13/1/13 11/1/13 62/1/13
f 13/1/13 62/1/13 61/1/13
f 11/1/13 9/1/13 63/1/13
f 11/1/13 63/1/13 62/1/13
f 9/1/13 7/1/13 64/1/13
f 9/1/13 64/1/13 63/1/13
f 7/1/13 5/1/13 3/1/13
f 7/1/13 3/1/13 64/1/13
