# Procedurally generated by dev-env-utils/scripts/gen_guardrails_box_cable.py -- do not hand edit
mtllib guardrail_cable_barrier.mtl
o guardrail_cable_barrier_end_left
v 0.000000 0.675000 0.150000
v 0.000000 0.706758 0.136845
v 0.000000 0.688155 0.118242
v 0.000000 0.661845 0.118242
v 0.000000 0.643242 0.136845
v 0.000000 0.643242 0.163155
v 0.000000 0.661845 0.181758
v 0.000000 0.688155 0.181758
v 0.000000 0.706758 0.163155
v 0.000000 0.812500 0.150000
v 0.000000 0.844258 0.136845
v 0.000000 0.825655 0.118242
v 0.000000 0.799345 0.118242
v 0.000000 0.780742 0.136845
v 0.000000 0.780742 0.163155
v 0.000000 0.799345 0.181758
v 0.000000 0.825655 0.181758
v 0.000000 0.844258 0.163155
v 0.000000 0.937500 0.150000
v 0.000000 0.969258 0.136845
v 0.000000 0.950655 0.118242
v 0.000000 0.924345 0.118242
v 0.000000 0.905742 0.136845
v 0.000000 0.905742 0.163155
v 0.000000 0.924345 0.181758
v 0.000000 0.950655 0.181758
v 0.000000 0.969258 0.163155
vt 0.890625 0.625000
vn -1.000000 0.000000 0.000000
usemtl body
f 1/1/1 2/1/1 3/1/1
f 1/1/1 3/1/1 4/1/1
f 1/1/1 4/1/1 5/1/1
f 1/1/1 5/1/1 6/1/1
f 1/1/1 6/1/1 7/1/1
f 1/1/1 7/1/1 8/1/1
f 1/1/1 8/1/1 9/1/1
f 1/1/1 9/1/1 2/1/1
f 10/1/1 11/1/1 12/1/1
f 10/1/1 12/1/1 13/1/1
f 10/1/1 13/1/1 14/1/1
f 10/1/1 14/1/1 15/1/1
f 10/1/1 15/1/1 16/1/1
f 10/1/1 16/1/1 17/1/1
f 10/1/1 17/1/1 18/1/1
f 10/1/1 18/1/1 11/1/1
f 19/1/1 20/1/1 21/1/1
f 19/1/1 21/1/1 22/1/1
f 19/1/1 22/1/1 23/1/1
f 19/1/1 23/1/1 24/1/1
f 19/1/1 24/1/1 25/1/1
f 19/1/1 25/1/1 26/1/1
f 19/1/1 26/1/1 27/1/1
f 19/1/1 27/1/1 20/1/1
