# Procedurally generated by dev-env-utils/scripts/gen_guardrails_thrie.py -- do not hand edit
mtllib guardrail_w_beam_thrie_transition.mtl
o guardrail_w_beam_thrie_transition_fill_up_mirrored
v 1.000000 1.687500 0.250000
v 1.414214 1.687500 0.250000
v 1.414214 2.000000 0.250000
v 1.000000 2.000000 0.250000
v 1.414214 2.000000 0.150000
v 1.000000 2.000000 0.150000
v 1.414214 1.965197 0.099729
v 1.000000 1.965197 0.099729
v 1.414214 1.949902 0.077636
v 1.000000 1.949902 0.077636
v 1.414214 1.943750 0.068750
v 1.000000 1.943750 0.068750
v 1.414214 1.928986 0.062422
v 1.000000 1.928986 0.062422
v 1.414214 1.900000 0.050000
v 1.000000 1.900000 0.050000
v 1.414214 1.876326 0.061837
v 1.000000 1.876326 0.061837
v 1.414214 1.862500 0.068750
v 1.000000 1.862500 0.068750
v 1.414214 1.851637 0.110393
v 1.000000 1.851637 0.110393
v 1.414214 1.843750 0.140625
v 1.000000 1.843750 0.140625
v 1.414214 1.835863 0.110393
v 1.000000 1.835863 0.110393
v 1.414214 1.825000 0.068750
v 1.000000 1.825000 0.068750
v 1.414214 1.811174 0.061837
v 1.000000 1.811174 0.061837
v 1.414214 1.787500 0.050000
v 1.000000 1.787500 0.050000
v 1.414214 1.758514 0.062422
v 1.000000 1.758514 0.062422
v 1.414214 1.743750 0.068750
v 1.000000 1.743750 0.068750
v 1.414214 1.737598 0.077636
v 1.000000 1.737598 0.077636
v 1.414214 1.722303 0.099729
v 1.000000 1.722303 0.099729
v 1.414214 1.687500 0.150000
v 1.000000 1.687500 0.150000
vt 0.890625 0.125000
vn 0.000000 0.000000 1.000000
vn -0.000000 1.000000 0.000000
vn 0.000000 0.822192 -0.569210
vn 0.000000 0.393919 -0.919145
vn 0.000000 -0.447214 -0.894427
vn 0.000000 -0.967617 -0.252422
vn 0.000000 0.967617 -0.252422
vn 0.000000 0.447214 -0.894427
vn 0.000000 -0.393919 -0.919145
vn 0.000000 -0.822192 -0.569210
vn 0.000000 -1.000000 0.000000
usemtl body
f 1/1/1 2/1/1 3/1/1
f 1/1/1 3/1/1 4/1/1
f 4/1/2 3/1/2 5/1/2
f 4/1/2 5/1/2 6/1/2
f 6/1/3 5/1/3 7/1/3
f 6/1/3 7/1/3 8/1/3
f 8/1/3 7/1/3 9/1/3
f 8/1/3 9/1/3 10/1/3
f 10/1/3 9/1/3 11/1/3
f 10/1/3 11/1/3 12/1/3
f 12/1/4 11/1/4 13/1/4
f 12/1/4 13/1/4 14/1/4
f 14/1/4 13/1/4 15/1/4
f 14/1/4 15/1/4 16/1/4
f 16/1/5 15/1/5 17/1/5
f 16/1/5 17/1/5 18/1/5
f 18/1/5 17/1/5 19/1/5
f 18/1/5 19/1/5 20/1/5
f 20/1/6 19/1/6 21/1/6
f 20/1/6 21/1/6 22/1/6
f 22/1/6 21/1/6 23/1/6
f 22/1/6 23/1/6 24/1/6
f 24/1/7 23/1/7 25/1/7
f 24/1/7 25/1/7 26/1/7
f 26/1/7 25/1/7 27/1/7
f 26/1/7 27/1/7 28/1/7
f 28/1/8 27/1/8 29/1/8
f 28/1/8 29/1/8 30/1/8
f 30/1/8 29/1/8 31/1/8
f 30/1/8 31/1/8 32/1/8
f 32/1/9 31/1/9 33/1/9
f 32/1/9 33/1/9 34/1/9
f 34/1/9 33/1/9 35/1/9
f 34/1/9 35/1/9 36/1/9
f 36/1/10 35/1/10 37/1/10
f 36/1/10 37/1/10 38/1/10
f 38/1/10 37/1/10 39/1/10
f 38/1/10 39/1/10 40/1/10
f 40/1/10 39/1/10 41/1/10
f 40/1/10 41/1/10 42/1/10
f 42/1/11 41/1/11 2/1/11
f 42/1/11 2/1/11 1/1/11
