# Procedurally generated by dev-env-utils/scripts/gen_guardrails_thrie.py -- do not hand edit
mtllib guardrail_w_beam_thrie_transition.mtl
o guardrail_w_beam_thrie_transition_core_up_mirrored
v 0.000000 0.250000 0.250000
v 0.083333 0.344792 0.250000
v 0.083333 0.886458 0.250000
v 0.000000 0.812500 0.250000
v 0.083333 0.886458 0.150000
v 0.000000 0.812500 0.150000
v 0.083333 0.837725 0.071332
v 0.000000 0.762500 0.068750
v 0.083333 0.802075 0.052303
v 0.000000 0.725000 0.050000
v 0.083333 0.787737 0.058475
v 0.000000 0.709917 0.057541
v 0.083333 0.765957 0.068223
v 0.000000 0.687500 0.068750
v 0.083333 0.736131 0.103008
v 0.000000 0.657598 0.107827
v 0.083333 0.711152 0.134059
v 0.000000 0.632500 0.140625
v 0.083333 0.696374 0.117224
v 0.000000 0.617635 0.121631
v 0.083333 0.657532 0.072220
v 0.000000 0.576250 0.068750
v 0.083333 0.615625 0.057552
v 0.000000 0.531250 0.050000
v 0.083333 0.573718 0.072220
v 0.000000 0.486250 0.068750
v 0.083333 0.534876 0.117224
v 0.000000 0.444865 0.121631
v 0.083333 0.520098 0.134059
v 0.000000 0.430000 0.140625
v 0.083333 0.495119 0.103008
v 0.000000 0.404902 0.107827
v 0.083333 0.465293 0.068223
v 0.000000 0.375000 0.068750
v 0.083333 0.443513 0.058475
v 0.000000 0.352583 0.057541
v 0.083333 0.429175 0.052303
v 0.000000 0.337500 0.050000
v 0.083333 0.393525 0.071332
v 0.000000 0.300000 0.068750
v 0.083333 0.344792 0.150000
v 0.000000 0.250000 0.150000
v 0.166667 0.439583 0.250000
v 0.166667 0.960417 0.250000
v 0.166667 0.960417 0.150000
v 0.166667 0.912949 0.073913
v 0.166667 0.879150 0.054606
v 0.166667 0.865556 0.059410
v 0.166667 0.844414 0.067695
v 0.166667 0.814665 0.098189
v 0.166667 0.789804 0.127494
v 0.166667 0.775113 0.112818
v 0.166667 0.738814 0.075690
v 0.166667 0.700000 0.065104
v 0.166667 0.661186 0.075690
v 0.166667 0.624887 0.112818
v 0.166667 0.610196 0.127494
v 0.166667 0.585335 0.098189
v 0.166667 0.555586 0.067695
v 0.166667 0.534444 0.059410
v 0.166667 0.520850 0.054606
v 0.166667 0.487051 0.073913
v 0.166667 0.439583 0.150000
v 0.250000 0.534375 0.250000
v 0.250000 1.034375 0.250000
v 0.250000 1.034375 0.150000
v 0.250000 0.988174 0.076495
v 0.250000 0.956225 0.056909
v 0.250000 0.943375 0.060344
v 0.250000 0.922871 0.067168
v 0.250000 0.893198 0.093370
v 0.250000 0.868456 0.120928
v 0.250000 0.853851 0.108411
v 0.250000 0.820097 0.079161
v 0.250000 0.784375 0.072656
v 0.250000 0.748653 0.079161
v 0.250000 0.714899 0.108411
v 0.250000 0.700294 0.120928
v 0.250000 0.675552 0.093370
v 0.250000 0.645879 0.067168
v 0.250000 0.625375 0.060344
v 0.250000 0.612525 0.056909
v 0.250000 0.580576 0.076495
v 0.250000 0.534375 0.150000
v 0.333333 0.629167 0.250000
v 0.333333 1.108333 0.250000
v 0.333333 1.108333 0.150000
v 0.333333 1.063399 0.079076
v 0.333333 1.033301 0.059212
v 0.333333 1.021195 0.061278
v 0.333333 1.001329 0.066641
v 0.333333 0.971732 0.088551
v 0.333333 0.947109 0.114362
v 0.333333 0.932590 0.104004
v 0.333333 0.901379 0.082631
v 0.333333 0.868750 0.080208
v 0.333333 0.836121 0.082631
v 0.333333 0.804910 0.104004
v 0.333333 0.790391 0.114362
v 0.333333 0.765768 0.088551
v 0.333333 0.736171 0.066641
v 0.333333 0.716305 0.061278
v 0.333333 0.704199 0.059212
v 0.333333 0.674101 0.079076
v 0.333333 0.629167 0.150000
v 0.416667 0.723958 0.250000
v 0.416667 1.182292 0.250000
v 0.416667 1.182292 0.150000
v 0.416667 1.138624 0.081658
v 0.416667 1.110376 0.061515
v 0.416667 1.099014 0.062212
v 0.416667 1.079786 0.066114
v 0.416667 1.050265 0.083732
v 0.416667 1.025761 0.107797
v 0.416667 1.011329 0.099597
v 0.416667 0.982661 0.086101
v 0.416667 0.953125 0.087760
v 0.416667 0.923589 0.086101
v 0.416667 0.894921 0.099597
v 0.416667 0.880489 0.107797
v 0.416667 0.855985 0.083732
v 0.416667 0.826464 0.066114
v 0.416667 0.807236 0.062212
v 0.416667 0.795874 0.061515
v 0.416667 0.767626 0.081658
v 0.416667 0.723958 0.150000
v 0.500000 0.818750 0.250000
v 0.500000 1.256250 0.250000
v 0.500000 1.256250 0.150000
v 0.500000 1.213848 0.084239
v 0.500000 1.187451 0.063818
v 0.500000 1.176834 0.063146
v 0.500000 1.158243 0.065586
v 0.500000 1.128799 0.078913
v 0.500000 1.104413 0.101231
v 0.500000 1.090068 0.095191
v 0.500000 1.063943 0.089571
v 0.500000 1.037500 0.095313
v 0.500000 1.011057 0.089571
v 0.500000 0.984932 0.095191
v 0.500000 0.970587 0.101231
v 0.500000 0.946201 0.078913
v 0.500000 0.916757 0.065586
v 0.500000 0.898166 0.063146
v 0.500000 0.887549 0.063818
v 0.500000 0.861152 0.084239
v 0.500000 0.818750 0.150000
v 0.583333 0.913542 0.250000
v 0.583333 1.330208 0.250000
v 0.583333 1.330208 0.150000
v 0.583333 1.289073 0.086821
v 0.583333 1.264526 0.066121
v 0.583333 1.254653 0.064080
v 0.583333 1.236700 0.065059
v 0.583333 1.207332 0.074095
v 0.583333 1.183065 0.094665
v 0.583333 1.168806 0.090784
v 0.583333 1.145226 0.093042
v 0.583333 1.121875 0.102865
v 0.583333 1.098524 0.093042
v 0.583333 1.074944 0.090784
v 0.583333 1.060685 0.094665
v 0.583333 1.036418 0.074095
v 0.583333 1.007050 0.065059
v 0.583333 0.989097 0.064080
v 0.583333 0.979224 0.066121
v 0.583333 0.954677 0.086821
v 0.583333 0.913542 0.150000
v 0.666667 1.008333 0.250000
v 0.666667 1.404167 0.250000
v 0.666667 1.404167 0.150000
v 0.666667 1.364298 0.089402
v 0.666667 1.341601 0.068424
v 0.666667 1.332472 0.065014
v 0.666667 1.315157 0.064532
v 0.666667 1.285866 0.069276
v 0.666667 1.261717 0.088100
v 0.666667 1.247545 0.086377
v 0.666667 1.226508 0.096512
v 0.666667 1.206250 0.110417
v 0.666667 1.185992 0.096512
v 0.666667 1.164955 0.086377
v 0.666667 1.150783 0.088100
v 0.666667 1.126634 0.069276
v 0.666667 1.097343 0.064532
v 0.666667 1.080028 0.065014
v 0.666667 1.070899 0.068424
v 0.666667 1.048202 0.089402
v 0.666667 1.008333 0.150000
v 0.750000 1.103125 0.250000
v 0.750000 1.478125 0.250000
v 0.750000 1.478125 0.150000
v 0.750000 1.439523 0.091984
v 0.750000 1.418676 0.070727
v 0.750000 1.410292 0.065948
v 0.750000 1.393614 0.064004
v 0.750000 1.364399 0.064457
v 0.750000 1.340369 0.081534
v 0.750000 1.326284 0.081970
v 0.750000 1.307790 0.099982
v 0.750000 1.290625 0.117969
v 0.750000 1.273460 0.099982
v 0.750000 1.254966 0.081970
v 0.750000 1.240881 0.081534
v 0.750000 1.216851 0.064457
v 0.750000 1.187636 0.064004
v 0.750000 1.170958 0.065948
v 0.750000 1.162574 0.070727
v 0.750000 1.141727 0.091984
v 0.750000 1.103125 0.150000
v 0.833333 1.197917 0.250000
v 0.833333 1.552083 0.250000
v 0.833333 1.552083 0.150000
v 0.833333 1.514747 0.094566
v 0.833333 1.495751 0.073030
v 0.833333 1.488111 0.066882
v 0.833333 1.472072 0.063477
v 0.833333 1.442933 0.059638
v 0.833333 1.419022 0.074968
v 0.833333 1.405023 0.077564
v 0.833333 1.389072 0.103452
v 0.833333 1.375000 0.125521
v 0.833333 1.360928 0.103452
v 0.833333 1.344977 0.077564
v 0.833333 1.330978 0.074968
v 0.833333 1.307067 0.059638
v 0.833333 1.277928 0.063477
v 0.833333 1.261889 0.066882
v 0.833333 1.254249 0.073030
v 0.833333 1.235253 0.094566
v 0.833333 1.197917 0.150000
v 0.916667 1.292708 0.250000
v 0.916667 1.626042 0.250000
v 0.916667 1.626042 0.150000
v 0.916667 1.589972 0.097147
v 0.916667 1.572827 0.075333
v 0.916667 1.565931 0.067816
v 0.916667 1.550529 0.062950
v 0.916667 1.521466 0.054819
v 0.916667 1.497674 0.068403
v 0.916667 1.483761 0.073157
v 0.916667 1.470354 0.106923
v 0.916667 1.459375 0.133073
v 0.916667 1.448396 0.106923
v 0.916667 1.434989 0.073157
v 0.916667 1.421076 0.068403
v 0.916667 1.397284 0.054819
v 0.916667 1.368221 0.062950
v 0.916667 1.352819 0.067816
v 0.916667 1.345923 0.075333
v 0.916667 1.328778 0.097147
v 0.916667 1.292708 0.150000
v 1.000000 1.387500 0.250000
v 1.000000 1.700000 0.250000
v 1.000000 1.700000 0.150000
v 1.000000 1.665197 0.099729
v 1.000000 1.649902 0.077636
v 1.000000 1.643750 0.068750
v 1.000000 1.628986 0.062422
v 1.000000 1.600000 0.050000
v 1.000000 1.576326 0.061837
v 1.000000 1.562500 0.068750
v 1.000000 1.551637 0.110393
v 1.000000 1.543750 0.140625
v 1.000000 1.535863 0.110393
v 1.000000 1.525000 0.068750
v 1.000000 1.511174 0.061837
v 1.000000 1.487500 0.050000
v 1.000000 1.458514 0.062422
v 1.000000 1.443750 0.068750
v 1.000000 1.437598 0.077636
v 1.000000 1.422303 0.099729
v 1.000000 1.387500 0.150000
vt 0.890625 0.125000
vn 0.000000 0.000000 1.000000
vn -0.663783 0.747925 0.000000
vn -0.602981 0.679415 -0.418102
vn -0.351936 0.418603 -0.837205
vn 0.401470 -0.409591 -0.819181
vn 0.393202 -0.411192 -0.822383
vn 0.596836 -0.637206 -0.487601
vn 0.580695 -0.646544 -0.494747
vn -0.620779 0.617392 -0.483177
vn -0.613399 0.621951 -0.486744
vn -0.319106 0.364507 -0.874818
vn 0.427638 -0.347673 -0.834415
vn 0.648638 -0.599368 -0.469070
vn 0.633163 -0.609543 -0.477034
vn -0.671624 0.588388 -0.450245
vn -0.666862 0.591794 -0.452851
vn -0.440176 0.401558 -0.803117
vn -0.431234 0.403494 -0.806988
vn 0.459041 -0.397311 -0.794622
vn 0.697017 -0.610686 -0.375807
vn 0.751041 -0.660256 0.000000
vn -0.602278 0.678623 -0.420394
vn -0.369578 0.437547 -0.819735
vn 0.364226 -0.368240 -0.855417
vn 0.364720 -0.380361 -0.849885
vn 0.579252 -0.618819 -0.530594
vn 0.572390 -0.638911 -0.513968
vn -0.605730 0.597964 -0.524909
vn -0.599922 0.605672 -0.522738
vn -0.272241 0.317885 -0.908204
vn 0.387256 -0.304586 -0.870207
vn 0.634912 -0.584873 -0.504787
vn 0.613489 -0.593480 -0.520973
vn -0.665581 0.581520 -0.467800
vn -0.651818 0.575720 -0.493639
vn -0.409143 0.372744 -0.832865
vn -0.388135 0.364402 -0.846500
vn 0.476782 -0.413919 -0.775468
vn 0.696400 -0.610078 -0.377932
vn -0.601525 0.677775 -0.422834
vn -0.387896 0.457174 -0.800331
vn 0.316966 -0.315983 -0.894252
vn 0.331351 -0.344285 -0.878450
vn 0.556320 -0.594796 -0.580281
vn 0.563005 -0.630221 -0.534646
vn -0.585784 0.572783 -0.573391
vn -0.580322 0.582322 -0.569322
vn -0.211578 0.257174 -0.942919
vn 0.333583 -0.248059 -0.909500
vn 0.614851 -0.563914 -0.551325
vn 0.587473 -0.571918 -0.572525
vn -0.658688 0.573763 -0.486750
vn -0.631894 0.554773 -0.541236
vn -0.372402 0.338652 -0.864079
vn -0.332842 0.314166 -0.889110
vn 0.494977 -0.430986 -0.754486
vn 0.695739 -0.609426 -0.380194
vn -0.600717 0.676864 -0.425434
vn -0.406850 0.477432 -0.778801
vn 0.256632 -0.249570 -0.933732
vn 0.292211 -0.302024 -0.907411
vn 0.525975 -0.562949 -0.637526
vn 0.552358 -0.620289 -0.556904
vn -0.558912 0.539617 -0.629627
vn -0.550107 0.546886 -0.631109
vn -0.132583 0.177561 -0.975138
vn 0.261152 -0.172926 -0.949682
vn 0.583685 -0.531749 -0.613641
vn 0.552434 -0.542435 -0.632915
vn -0.650790 0.564966 -0.507234
vn -0.605044 0.527002 -0.596817
vn -0.328824 0.298246 -0.896060
vn -0.261502 0.249232 -0.932470
vn 0.513562 -0.448456 -0.731534
vn 0.695028 -0.608726 -0.382607
vn -0.599847 0.675883 -0.428212
vn -0.426381 0.498249 -0.754948
vn 0.179832 -0.165460 -0.969682
vn 0.246376 -0.252602 -0.935677
vn 0.485336 -0.520223 -0.702721
vn 0.540229 -0.608890 -0.580866
vn -0.522189 0.495314 -0.694250
vn -0.500090 0.489283 -0.714502
vn -0.030679 0.074010 -0.996786
vn 0.163131 -0.073053 -0.983896
vn 0.531460 -0.478610 -0.698916
vn 0.504482 -0.501466 -0.702872
vn -0.641698 0.554941 -0.529400
vn -0.568271 0.489589 -0.661340
vn -0.277206 0.250422 -0.927602
vn -0.169977 0.165754 -0.971408
vn 0.532451 -0.466256 -0.706471
vn 0.694262 -0.607973 -0.385187
vn -0.598907 0.674825 -0.431187
vn -0.446403 0.519525 -0.728572
vn 0.083897 -0.060991 -0.994606
vn 0.192997 -0.195130 -0.961601
vn 0.430584 -0.462554 -0.775011
vn 0.526358 -0.595753 -0.606651
vn -0.471552 0.435612 -0.766734
vn -0.410590 0.388378 -0.824972
vn 0.095840 -0.055829 -0.993830
vn 0.033675 0.056055 -0.997860
vn 0.436198 -0.383279 -0.814142
vn 0.438267 -0.444013 -0.781521
vn -0.631181 0.543464 -0.553405
vn -0.517314 0.438592 -0.734863
vn -0.216425 0.194156 -0.956799
vn -0.055513 0.061112 -0.996586
vn 0.551540 -0.484293 -0.679164
vn 0.693435 -0.607159 -0.387951
vn -0.597890 0.673679 -0.434379
vn -0.466804 0.541127 -0.699482
vn -0.030848 0.063159 -0.997527
vn 0.131509 -0.129030 -0.982882
vn 0.357226 -0.385147 -0.850912
vn 0.510434 -0.580556 -0.634360
vn -0.401884 0.355355 -0.843926
vn -0.242889 0.203986 -0.948364
vn 0.240377 -0.205944 -0.948581
vn -0.125260 0.210494 -0.969537
vn 0.252927 -0.203446 -0.945853
vn 0.347368 -0.363908 -0.864238
vn -0.618957 0.530264 -0.579407
vn -0.446567 0.368955 -0.815138
vn -0.145732 0.128771 -0.980908
vn 0.079880 -0.062987 -0.994813
vn 0.570699 -0.502455 -0.649494
vn 0.692538 -0.606278 -0.390920
vn -0.596785 0.672434 -0.437814
vn -0.487439 0.562888 -0.667503
vn -0.158176 0.199912 -0.966962
vn 0.061931 -0.054357 -0.996599
vn 0.261397 -0.283844 -0.922553
vn 0.492088 -0.562911 -0.664063
vn -0.308165 0.249880 -0.917929
vn 0.037393 -0.095248 -0.994751
vn 0.384562 -0.357939 -0.850877
vn -0.295288 0.370467 -0.880658
vn -0.058490 0.095151 -0.993743
vn 0.226633 -0.255829 -0.939782
vn -0.604684 0.515010 -0.607554
vn -0.349996 0.275468 -0.895332
vn -0.065189 0.054346 -0.996392
vn 0.225901 -0.197227 -0.953976
vn 0.589777 -0.520604 -0.617360
vn 0.691562 -0.605320 -0.394117
vn -0.595581 0.671077 -0.441520
vn -0.508129 0.584607 -0.632487
vn -0.285386 0.335385 -0.897815
vn -0.014787 0.027831 -0.999503
vn 0.142796 -0.158237 -0.977021
vn 0.470890 -0.542363 -0.695776
vn -0.188648 0.118496 -0.974870
vn 0.340755 -0.408042 -0.846988
vn 0.505787 -0.488185 -0.711235
vn -0.445970 0.506514 -0.737939
vn -0.385690 0.400436 -0.831200
vn 0.077602 -0.120299 -0.989700
vn -0.587940 0.497307 -0.637975
vn -0.224300 0.155802 -0.961985
vn 0.023827 -0.027826 -0.999329
vn 0.365236 -0.325762 -0.872056
vn 0.608599 -0.538585 -0.582695
vn 0.690498 -0.604277 -0.397571
vn -0.594263 0.669592 -0.445530
vn -0.528662 0.606043 -0.594330
vn -0.398119 0.454258 -0.796964
vn -0.096506 0.115210 -0.988642
vn 0.008249 -0.015482 -0.999846
vn 0.446341 -0.518379 -0.729427
vn -0.049471 -0.030919 -0.998297
vn 0.527773 -0.592625 -0.608482
vn 0.591912 -0.583091 -0.556457
vn -0.556566 0.601033 -0.573580
vn -0.574831 0.570917 -0.586193
vn -0.085974 0.030843 -0.995820
vn -0.568219 0.476679 -0.670749
vn -0.074375 0.015440 -0.997111
vn 0.118296 -0.114938 -0.986304
vn 0.481970 -0.433882 -0.761217
vn 0.626968 -0.556217 -0.545467
vn 0.689332 -0.603134 -0.401311
vn -0.592816 0.667962 -0.449884
vn -0.548791 0.626924 -0.552987
vn -0.487477 0.547384 -0.680248
vn -0.179958 0.204258 -0.962234
vn -0.128192 0.129552 -0.983251
vn 0.417881 -0.490350 -0.764809
vn 0.094148 -0.181466 -0.978880
vn 0.613412 -0.672391 -0.414266
vn 0.645340 -0.644090 -0.410712
vn -0.627057 0.656803 -0.418819
vn -0.657129 0.641754 -0.395390
vn -0.241510 0.176880 -0.954142
vn -0.544914 0.452563 -0.705872
vn 0.083792 -0.130170 -0.987945
vn 0.213744 -0.202849 -0.955597
vn 0.569486 -0.515327 -0.640409
vn 0.644667 -0.573305 -0.505693
vn 0.688049 -0.601879 -0.405376
vn -0.591220 0.666164 -0.454626
vn -0.568245 0.646947 -0.508484
vn -0.552504 0.614202 -0.563467
vn -0.261246 0.290804 -0.920426
vn -0.251414 0.260775 -0.932088
vn 0.384902 -0.457609 -0.801526
vn 0.224735 -0.315083 -0.922072
vn 0.651455 -0.705138 -0.279977
vn 0.675239 -0.680087 -0.285541
vn -0.668336 0.685860 -0.287964
vn -0.692593 0.670416 -0.266191
vn -0.370836 0.300299 -0.878807
vn -0.517310 0.424311 -0.743203
vn 0.229685 -0.262226 -0.937274
vn 0.305115 -0.286901 -0.908071
vn 0.630192 -0.572147 -0.524886
vn 0.661471 -0.589641 -0.463443
vn 0.686632 -0.600494 -0.409809
usemtl body
f 1/1/1 2/1/1 3/1/1
f 1/1/1 3/1/1 4/1/1
f 4/1/2 3/1/2 5/1/2
f 4/1/2 5/1/2 6/1/2
f 6/1/3 5/1/3 7/1/3
f 6/1/3 7/1/3 8/1/3
f 8/1/4 7/1/4 9/1/4
f 8/1/4 9/1/4 10/1/4
f 10/1/5 9/1/5 11/1/5
f 10/1/5 11/1/5 12/1/5
f 12/1/6 11/1/6 13/1/6
f 12/1/6 13/1/6 14/1/6
f 14/1/7 13/1/7 15/1/7
f 14/1/7 15/1/7 16/1/7
f 16/1/8 15/1/8 17/1/8
f 16/1/8 17/1/8 18/1/8
f 18/1/9 17/1/9 19/1/9
f 18/1/9 19/1/9 20/1/9
f 20/1/10 19/1/10 21/1/10
f 20/1/10 21/1/10 22/1/10
f 22/1/11 21/1/11 23/1/11
f 22/1/11 23/1/11 24/1/11
f 24/1/12 23/1/12 25/1/12
f 24/1/12 25/1/12 26/1/12
f 26/1/13 25/1/13 27/1/13
f 26/1/13 27/1/13 28/1/13
f 28/1/14 27/1/14 29/1/14
f 28/1/14 29/1/14 30/1/14
f 30/1/15 29/1/15 31/1/15
f 30/1/15 31/1/15 32/1/15
f 32/1/16 31/1/16 33/1/16
f 32/1/16 33/1/16 34/1/16
f 34/1/17 33/1/17 35/1/17
f 34/1/17 35/1/17 36/1/17
f 36/1/18 35/1/18 37/1/18
f 36/1/18 37/1/18 38/1/18
f 38/1/19 37/1/19 39/1/19
f 38/1/19 39/1/19 40/1/19
f 40/1/20 39/1/20 41/1/20
f 40/1/20 41/1/20 42/1/20
f 42/1/21 41/1/21 2/1/21
f 42/1/21 2/1/21 1/1/21
f 2/1/1 43/1/1 44/1/1
f 2/1/1 44/1/1 3/1/1
f 3/1/2 44/1/2 45/1/2
f 3/1/2 45/1/2 5/1/2
f 5/1/22 45/1/22 46/1/22
f 5/1/22 46/1/22 7/1/22
f 7/1/23 46/1/23 47/1/23
f 7/1/23 47/1/23 9/1/23
f 9/1/24 47/1/24 48/1/24
f 9/1/24 48/1/24 11/1/24
f 11/1/25 48/1/25 49/1/25
f 11/1/25 49/1/25 13/1/25
f 13/1/26 49/1/26 50/1/26
f 13/1/26 50/1/26 15/1/26
f 15/1/27 50/1/27 51/1/27
f 15/1/27 51/1/27 17/1/27
f 17/1/28 51/1/28 52/1/28
f 17/1/28 52/1/28 19/1/28
f 19/1/29 52/1/29 53/1/29
f 19/1/29 53/1/29 21/1/29
f 21/1/30 53/1/30 54/1/30
f 21/1/30 54/1/30 23/1/30
f 23/1/31 54/1/31 55/1/31
f 23/1/31 55/1/31 25/1/31
f 25/1/32 55/1/32 56/1/32
f 25/1/32 56/1/32 27/1/32
f 27/1/33 56/1/33 57/1/33
f 27/1/33 57/1/33 29/1/33
f 29/1/34 57/1/34 58/1/34
f 29/1/34 58/1/34 31/1/34
f 31/1/35 58/1/35 59/1/35
f 31/1/35 59/1/35 33/1/35
f 33/1/36 59/1/36 60/1/36
f 33/1/36 60/1/36 35/1/36
f 35/1/37 60/1/37 61/1/37
f 35/1/37 61/1/37 37/1/37
f 37/1/38 61/1/38 62/1/38
f 37/1/38 62/1/38 39/1/38
f 39/1/39 62/1/39 63/1/39
f 39/1/39 63/1/39 41/1/39
f 41/1/21 63/1/21 43/1/21
f 41/1/21 43/1/21 2/1/21
f 43/1/1 64/1/1 65/1/1
f 43/1/1 65/1/1 44/1/1
f 44/1/2 65/1/2 66/1/2
f 44/1/2 66/1/2 45/1/2
f 45/1/40 66/1/40 67/1/40
f 45/1/40 67/1/40 46/1/40
f 46/1/41 67/1/41 68/1/41
f 46/1/41 68/1/41 47/1/41
f 47/1/42 68/1/42 69/1/42
f 47/1/42 69/1/42 48/1/42
f 48/1/43 69/1/43 70/1/43
f 48/1/43 70/1/43 49/1/43
f 49/1/44 70/1/44 71/1/44
f 49/1/44 71/1/44 50/1/44
f 50/1/45 71/1/45 72/1/45
f 50/1/45 72/1/45 51/1/45
f 51/1/46 72/1/46 73/1/46
f 51/1/46 73/1/46 52/1/46
f 52/1/47 73/1/47 74/1/47
f 52/1/47 74/1/47 53/1/47
f 53/1/48 74/1/48 75/1/48
f 53/1/48 75/1/48 54/1/48
f 54/1/49 75/1/49 76/1/49
f 54/1/49 76/1/49 55/1/49
f 55/1/50 76/1/50 77/1/50
f 55/1/50 77/1/50 56/1/50
f 56/1/51 77/1/51 78/1/51
f 56/1/51 78/1/51 57/1/51
f 57/1/52 78/1/52 79/1/52
f 57/1/52 79/1/52 58/1/52
f 58/1/53 79/1/53 80/1/53
f 58/1/53 80/1/53 59/1/53
f 59/1/54 80/1/54 81/1/54
f 59/1/54 81/1/54 60/1/54
f 60/1/55 81/1/55 82/1/55
f 60/1/55 82/1/55 61/1/55
f 61/1/56 82/1/56 83/1/56
f 61/1/56 83/1/56 62/1/56
f 62/1/57 83/1/57 84/1/57
f 62/1/57 84/1/57 63/1/57
f 63/1/21 84/1/21 64/1/21
f 63/1/21 64/1/21 43/1/21
f 64/1/1 85/1/1 86/1/1
f 64/1/1 86/1/1 65/1/1
f 65/1/2 86/1/2 87/1/2
f 65/1/2 87/1/2 66/1/2
f 66/1/58 87/1/58 88/1/58
f 66/1/58 88/1/58 67/1/58
f 67/1/59 88/1/59 89/1/59
f 67/1/59 89/1/59 68/1/59
f 68/1/60 89/1/60 90/1/60
f 68/1/60 90/1/60 69/1/60
f 69/1/61 90/1/61 91/1/61
f 69/1/61 91/1/61 70/1/61
f 70/1/62 91/1/62 92/1/62
f 70/1/62 92/1/62 71/1/62
f 71/1/63 92/1/63 93/1/63
f 71/1/63 93/1/63 72/1/63
f 72/1/64 93/1/64 94/1/64
f 72/1/64 94/1/64 73/1/64
f 73/1/65 94/1/65 95/1/65
f 73/1/65 95/1/65 74/1/65
f 74/1/66 95/1/66 96/1/66
f 74/1/66 96/1/66 75/1/66
f 75/1/67 96/1/67 97/1/67
f 75/1/67 97/1/67 76/1/67
f 76/1/68 97/1/68 98/1/68
f 76/1/68 98/1/68 77/1/68
f 77/1/69 98/1/69 99/1/69
f 77/1/69 99/1/69 78/1/69
f 78/1/70 99/1/70 100/1/70
f 78/1/70 100/1/70 79/1/70
f 79/1/71 100/1/71 101/1/71
f 79/1/71 101/1/71 80/1/71
f 80/1/72 101/1/72 102/1/72
f 80/1/72 102/1/72 81/1/72
f 81/1/73 102/1/73 103/1/73
f 81/1/73 103/1/73 82/1/73
f 82/1/74 103/1/74 104/1/74
f 82/1/74 104/1/74 83/1/74
f 83/1/75 104/1/75 105/1/75
f 83/1/75 105/1/75 84/1/75
f 84/1/21 105/1/21 85/1/21
f 84/1/21 85/1/21 64/1/21
f 85/1/1 106/1/1 107/1/1
f 85/1/1 107/1/1 86/1/1
f 86/1/2 107/1/2 108/1/2
f 86/1/2 108/1/2 87/1/2
f 87/1/76 108/1/76 109/1/76
f 87/1/76 109/1/76 88/1/76
f 88/1/77 109/1/77 110/1/77
f 88/1/77 110/1/77 89/1/77
f 89/1/78 110/1/78 111/1/78
f 89/1/78 111/1/78 90/1/78
f 90/1/79 111/1/79 112/1/79
f 90/1/79 112/1/79 91/1/79
f 91/1/80 112/1/80 113/1/80
f 91/1/80 113/1/80 92/1/80
f 92/1/81 113/1/81 114/1/81
f 92/1/81 114/1/81 93/1/81
f 93/1/82 114/1/82 115/1/82
f 93/1/82 115/1/82 94/1/82
f 94/1/83 115/1/83 116/1/83
f 94/1/83 116/1/83 95/1/83
f 95/1/84 116/1/84 117/1/84
f 95/1/84 117/1/84 96/1/84
f 96/1/85 117/1/85 118/1/85
f 96/1/85 118/1/85 97/1/85
f 97/1/86 118/1/86 119/1/86
f 97/1/86 119/1/86 98/1/86
f 98/1/87 119/1/87 120/1/87
f 98/1/87 120/1/87 99/1/87
f 99/1/88 120/1/88 121/1/88
f 99/1/88 121/1/88 100/1/88
f 100/1/89 121/1/89 122/1/89
f 100/1/89 122/1/89 101/1/89
f 101/1/90 122/1/90 123/1/90
f 101/1/90 123/1/90 102/1/90
f 102/1/91 123/1/91 124/1/91
f 102/1/91 124/1/91 103/1/91
f 103/1/92 124/1/92 125/1/92
f 103/1/92 125/1/92 104/1/92
f 104/1/93 125/1/93 126/1/93
f 104/1/93 126/1/93 105/1/93
f 105/1/21 126/1/21 106/1/21
f 105/1/21 106/1/21 85/1/21
f 106/1/1 127/1/1 128/1/1
f 106/1/1 128/1/1 107/1/1
f 107/1/2 128/1/2 129/1/2
f 107/1/2 129/1/2 108/1/2
f 108/1/94 129/1/94 130/1/94
f 108/1/94 130/1/94 109/1/94
f 109/1/95 130/1/95 131/1/95
f 109/1/95 131/1/95 110/1/95
f 110/1/96 131/1/96 132/1/96
f 110/1/96 132/1/96 111/1/96
f 111/1/97 132/1/97 133/1/97
f 111/1/97 133/1/97 112/1/97
f 112/1/98 133/1/98 134/1/98
f 112/1/98 134/1/98 113/1/98
f 113/1/99 134/1/99 135/1/99
f 113/1/99 135/1/99 114/1/99
f 114/1/100 135/1/100 136/1/100
f 114/1/100 136/1/100 115/1/100
f 115/1/101 136/1/101 137/1/101
f 115/1/101 137/1/101 116/1/101
f 116/1/102 137/1/102 138/1/102
f 116/1/102 138/1/102 117/1/102
f 117/1/103 138/1/103 139/1/103
f 117/1/103 139/1/103 118/1/103
f 118/1/104 139/1/104 140/1/104
f 118/1/104 140/1/104 119/1/104
f 119/1/105 140/1/105 141/1/105
f 119/1/105 141/1/105 120/1/105
f 120/1/106 141/1/106 142/1/106
f 120/1/106 142/1/106 121/1/106
f 121/1/107 142/1/107 143/1/107
f 121/1/107 143/1/107 122/1/107
f 122/1/108 143/1/108 144/1/108
f 122/1/108 144/1/108 123/1/108
f 123/1/109 144/1/109 145/1/109
f 123/1/109 145/1/109 124/1/109
f 124/1/110 145/1/110 146/1/110
f 124/1/110 146/1/110 125/1/110
f 125/1/111 146/1/111 147/1/111
f 125/1/111 147/1/111 126/1/111
f 126/1/21 147/1/21 127/1/21
f 126/1/21 127/1/21 106/1/21
f 127/1/1 148/1/1 149/1/1
f 127/1/1 149/1/1 128/1/1
f 128/1/2 149/1/2 150/1/2
f 128/1/2 150/1/2 129/1/2
f 129/1/112 150/1/112 151/1/112
f 129/1/112 151/1/112 130/1/112
f 130/1/113 151/1/113 152/1/113
f 130/1/113 152/1/113 131/1/113
f 131/1/114 152/1/114 153/1/114
f 131/1/114 153/1/114 132/1/114
f 132/1/115 153/1/115 154/1/115
f 132/1/115 154/1/115 133/1/115
f 133/1/116 154/1/116 155/1/116
f 133/1/116 155/1/116 134/1/116
f 134/1/117 155/1/117 156/1/117
f 134/1/117 156/1/117 135/1/117
f 135/1/118 156/1/118 157/1/118
f 135/1/118 157/1/118 136/1/118
f 136/1/119 157/1/119 158/1/119
f 136/1/119 158/1/119 137/1/119
f 137/1/120 158/1/120 159/1/120
f 137/1/120 159/1/120 138/1/120
f 138/1/121 159/1/121 160/1/121
f 138/1/121 160/1/121 139/1/121
f 139/1/122 160/1/122 161/1/122
f 139/1/122 161/1/122 140/1/122
f 140/1/123 161/1/123 162/1/123
f 140/1/123 162/1/123 141/1/123
f 141/1/124 162/1/124 163/1/124
f 141/1/124 163/1/124 142/1/124
f 142/1/125 163/1/125 164/1/125
f 142/1/125 164/1/125 143/1/125
f 143/1/126 164/1/126 165/1/126
f 143/1/126 165/1/126 144/1/126
f 144/1/127 165/1/127 166/1/127
f 144/1/127 166/1/127 145/1/127
f 145/1/128 166/1/128 167/1/128
f 145/1/128 167/1/128 146/1/128
f 146/1/129 167/1/129 168/1/129
f 146/1/129 168/1/129 147/1/129
f 147/1/21 168/1/21 148/1/21
f 147/1/21 148/1/21 127/1/21
f 148/1/1 169/1/1 170/1/1
f 148/1/1 170/1/1 149/1/1
f 149/1/2 170/1/2 171/1/2
f 149/1/2 171/1/2 150/1/2
f 150/1/130 171/1/130 172/1/130
f 150/1/130 172/1/130 151/1/130
f 151/1/131 172/1/131 173/1/131
f 151/1/131 173/1/131 152/1/131
f 152/1/132 173/1/132 174/1/132
f 152/1/132 174/1/132 153/1/132
f 153/1/133 174/1/133 175/1/133
f 153/1/133 175/1/133 154/1/133
f 154/1/134 175/1/134 176/1/134
f 154/1/134 176/1/134 155/1/134
f 155/1/135 176/1/135 177/1/135
f 155/1/135 177/1/135 156/1/135
f 156/1/136 177/1/136 178/1/136
f 156/1/136 178/1/136 157/1/136
f 157/1/137 178/1/137 179/1/137
f 157/1/137 179/1/137 158/1/137
f 158/1/138 179/1/138 180/1/138
f 158/1/138 180/1/138 159/1/138
f 159/1/139 180/1/139 181/1/139
f 159/1/139 181/1/139 160/1/139
f 160/1/140 181/1/140 182/1/140
f 160/1/140 182/1/140 161/1/140
f 161/1/141 182/1/141 183/1/141
f 161/1/141 183/1/141 162/1/141
f 162/1/142 183/1/142 184/1/142
f 162/1/142 184/1/142 163/1/142
f 163/1/143 184/1/143 185/1/143
f 163/1/143 185/1/143 164/1/143
f 164/1/144 185/1/144 186/1/144
f 164/1/144 186/1/144 165/1/144
f 165/1/145 186/1/145 187/1/145
f 165/1/145 187/1/145 166/1/145
f 166/1/146 187/1/146 188/1/146
f 166/1/146 188/1/146 167/1/146
f 167/1/147 188/1/147 189/1/147
f 167/1/147 189/1/147 168/1/147
f 168/1/21 189/1/21 169/1/21
f 168/1/21 169/1/21 148/1/21
f 169/1/1 190/1/1 191/1/1
f 169/1/1 191/1/1 170/1/1
f 170/1/2 191/1/2 192/1/2
f 170/1/2 192/1/2 171/1/2
f 171/1/148 192/1/148 193/1/148
f 171/1/148 193/1/148 172/1/148
f 172/1/149 193/1/149 194/1/149
f 172/1/149 194/1/149 173/1/149
f 173/1/150 194/1/150 195/1/150
f 173/1/150 195/1/150 174/1/150
f 174/1/151 195/1/151 196/1/151
f 174/1/151 196/1/151 175/1/151
f 175/1/152 196/1/152 197/1/152
f 175/1/152 197/1/152 176/1/152
f 176/1/153 197/1/153 198/1/153
f 176/1/153 198/1/153 177/1/153
f 177/1/154 198/1/154 199/1/154
f 177/1/154 199/1/154 178/1/154
f 178/1/155 199/1/155 200/1/155
f 178/1/155 200/1/155 179/1/155
f 179/1/156 200/1/156 201/1/156
f 179/1/156 201/1/156 180/1/156
f 180/1/157 201/1/157 202/1/157
f 180/1/157 202/1/157 181/1/157
f 181/1/158 202/1/158 203/1/158
f 181/1/158 203/1/158 182/1/158
f 182/1/159 203/1/159 204/1/159
f 182/1/159 204/1/159 183/1/159
f 183/1/160 204/1/160 205/1/160
f 183/1/160 205/1/160 184/1/160
f 184/1/161 205/1/161 206/1/161
f 184/1/161 206/1/161 185/1/161
f 185/1/162 206/1/162 207/1/162
f 185/1/162 207/1/162 186/1/162
f 186/1/163 207/1/163 208/1/163
f 186/1/163 208/1/163 187/1/163
f 187/1/164 208/1/164 209/1/164
f 187/1/164 209/1/164 188/1/164
f 188/1/165 209/1/165 210/1/165
f 188/1/165 210/1/165 189/1/165
f 189/1/21 210/1/21 190/1/21
f 189/1/21 190/1/21 169/1/21
f 190/1/1 211/1/1 212/1/1
f 190/1/1 212/1/1 191/1/1
f 191/1/2 212/1/2 213/1/2
f 191/1/2 213/1/2 192/1/2
f 192/1/166 213/1/166 214/1/166
f 192/1/166 214/1/166 193/1/166
f 193/1/167 214/1/167 215/1/167
f 193/1/167 215/1/167 194/1/167
f 194/1/168 215/1/168 216/1/168
f 194/1/168 216/1/168 195/1/168
f 195/1/169 216/1/169 217/1/169
f 195/1/169 217/1/169 196/1/169
f 196/1/170 217/1/170 218/1/170
f 196/1/170 218/1/170 197/1/170
f 197/1/171 218/1/171 219/1/171
f 197/1/171 219/1/171 198/1/171
f 198/1/172 219/1/172 220/1/172
f 198/1/172 220/1/172 199/1/172
f 199/1/173 220/1/173 221/1/173
f 199/1/173 221/1/173 200/1/173
f 200/1/174 221/1/174 222/1/174
f 200/1/174 222/1/174 201/1/174
f 201/1/175 222/1/175 223/1/175
f 201/1/175 223/1/175 202/1/175
f 202/1/176 223/1/176 224/1/176
f 202/1/176 224/1/176 203/1/176
f 203/1/177 224/1/177 225/1/177
f 203/1/177 225/1/177 204/1/177
f 204/1/178 225/1/178 226/1/178
f 204/1/178 226/1/178 205/1/178
f 205/1/179 226/1/179 227/1/179
f 205/1/179 227/1/179 206/1/179
f 206/1/180 227/1/180 228/1/180
f 206/1/180 228/1/180 207/1/180
f 207/1/181 228/1/181 229/1/181
f 207/1/181 229/1/181 208/1/181
f 208/1/182 229/1/182 230/1/182
f 208/1/182 230/1/182 209/1/182
f 209/1/183 230/1/183 231/1/183
f 209/1/183 231/1/183 210/1/183
f 210/1/21 231/1/21 211/1/21
f 210/1/21 211/1/21 190/1/21
f 211/1/1 232/1/1 233/1/1
f 211/1/1 233/1/1 212/1/1
f 212/1/2 233/1/2 234/1/2
f 212/1/2 234/1/2 213/1/2
f 213/1/184 234/1/184 235/1/184
f 213/1/184 235/1/184 214/1/184
f 214/1/185 235/1/185 236/1/185
f 214/1/185 236/1/185 215/1/185
f 215/1/186 236/1/186 237/1/186
f 215/1/186 237/1/186 216/1/186
f 216/1/187 237/1/187 238/1/187
f 216/1/187 238/1/187 217/1/187
f 217/1/188 238/1/188 239/1/188
f 217/1/188 239/1/188 218/1/188
f 218/1/189 239/1/189 240/1/189
f 218/1/189 240/1/189 219/1/189
f 219/1/190 240/1/190 241/1/190
f 219/1/190 241/1/190 220/1/190
f 220/1/191 241/1/191 242/1/191
f 220/1/191 242/1/191 221/1/191
f 221/1/192 242/1/192 243/1/192
f 221/1/192 243/1/192 222/1/192
f 222/1/193 243/1/193 244/1/193
f 222/1/193 244/1/193 223/1/193
f 223/1/194 244/1/194 245/1/194
f 223/1/194 245/1/194 224/1/194
f 224/1/195 245/1/195 246/1/195
f 224/1/195 246/1/195 225/1/195
f 225/1/196 246/1/196 247/1/196
f 225/1/196 247/1/196 226/1/196
f 226/1/197 247/1/197 248/1/197
f 226/1/197 248/1/197 227/1/197
f 227/1/198 248/1/198 249/1/198
f 227/1/198 249/1/198 228/1/198
f 228/1/199 249/1/199 250/1/199
f 228/1/199 250/1/199 229/1/199
f 229/1/200 250/1/200 251/1/200
f 229/1/200 251/1/200 230/1/200
f 230/1/201 251/1/201 252/1/201
f 230/1/201 252/1/201 231/1/201
f 231/1/21 252/1/21 232/1/21
f 231/1/21 232/1/21 211/1/21
f 232/1/1 253/1/1 254/1/1
f 232/1/1 254/1/1 233/1/1
f 233/1/2 254/1/2 255/1/2
f 233/1/2 255/1/2 234/1/2
f 234/1/202 255/1/202 256/1/202
f 234/1/202 256/1/202 235/1/202
f 235/1/203 256/1/203 257/1/203
f 235/1/203 257/1/203 236/1/203
f 236/1/204 257/1/204 258/1/204
f 236/1/204 258/1/204 237/1/204
f 237/1/205 258/1/205 259/1/205
f 237/1/205 259/1/205 238/1/205
f 238/1/206 259/1/206 260/1/206
f 238/1/206 260/1/206 239/1/206
f 239/1/207 260/1/207 261/1/207
f 239/1/207 261/1/207 240/1/207
f 240/1/208 261/1/208 262/1/208
f 240/1/208 262/1/208 241/1/208
f 241/1/209 262/1/209 263/1/209
f 241/1/209 263/1/209 242/1/209
f 242/1/210 263/1/210 264/1/210
f 242/1/210 264/1/210 243/1/210
f 243/1/211 264/1/211 265/1/211
f 243/1/211 265/1/211 244/1/211
f 244/1/212 265/1/212 266/1/212
f 244/1/212 266/1/212 245/1/212
f 245/1/213 266/1/213 267/1/213
f 245/1/213 267/1/213 246/1/213
f 246/1/214 267/1/214 268/1/214
f 246/1/214 268/1/214 247/1/214
f 247/1/215 268/1/215 269/1/215
f 247/1/215 269/1/215 248/1/215
f 248/1/216 269/1/216 270/1/216
f 248/1/216 270/1/216 249/1/216
f 249/1/217 270/1/217 271/1/217
f 249/1/217 271/1/217 250/1/217
f 250/1/218 271/1/218 272/1/218
f 250/1/218 272/1/218 251/1/218
f 251/1/219 272/1/219 273/1/219
f 251/1/219 273/1/219 252/1/219
f 252/1/21 273/1/21 253/1/21
f 252/1/21 253/1/21 232/1/21
