# Procedurally generated by dev-env-utils/scripts/gen_guardrail_ends.py -- do not hand edit
mtllib guardrail_end_turndown.mtl
o guardrail_end_turndown_mirrored
v 1.000000 0.387500 0.150000
v 1.000000 0.443750 0.068750
v 0.955882 0.443750 0.068750
v 0.955882 0.387500 0.150000
v 1.000000 0.387500 0.250000
v 0.955882 0.387500 0.250000
v 0.955882 0.443750 0.168750
v 1.000000 0.443750 0.168750
v 1.000000 0.487500 0.050000
v 0.955882 0.487500 0.050000
v 0.955882 0.487500 0.150000
v 1.000000 0.487500 0.150000
v 1.000000 0.525000 0.068750
v 0.955882 0.525000 0.068750
v 0.955882 0.525000 0.168750
v 1.000000 0.525000 0.168750
v 1.000000 0.543750 0.140625
v 0.955882 0.543750 0.140625
v 0.955882 0.543750 0.240625
v 1.000000 0.543750 0.240625
v 1.000000 0.562500 0.068750
v 0.955882 0.562500 0.068750
v 0.955882 0.562500 0.168750
v 1.000000 0.562500 0.168750
v 1.000000 0.600000 0.050000
v 0.955882 0.600000 0.050000
v 0.955882 0.600000 0.150000
v 1.000000 0.600000 0.150000
v 1.000000 0.643750 0.068750
v 0.955882 0.643750 0.068750
v 0.955882 0.643750 0.168750
v 1.000000 0.643750 0.168750
v 1.000000 0.700000 0.150000
v 0.955882 0.700000 0.150000
v 0.955882 0.700000 0.250000
v 1.000000 0.700000 0.250000
v 0.911211 0.443747 0.068750
v 0.911765 0.387500 0.150000
v 0.911765 0.387500 0.250000
v 0.911211 0.443747 0.168750
v 0.910780 0.487495 0.050000
v 0.910780 0.487495 0.150000
v 0.910410 0.524993 0.068750
v 0.910410 0.524993 0.168750
v 0.910225 0.543742 0.140625
v 0.910225 0.543742 0.240625
v 0.910041 0.562492 0.068750
v 0.910041 0.562492 0.168750
v 0.909671 0.599990 0.050000
v 0.909671 0.599990 0.150000
v 0.909240 0.643738 0.068750
v 0.909240 0.643738 0.168750
v 0.908686 0.699985 0.150000
v 0.908686 0.699985 0.250000
v 0.864985 0.442818 0.068750
v 0.867647 0.386631 0.150000
v 0.867647 0.386631 0.250000
v 0.864985 0.442818 0.168750
v 0.862915 0.486519 0.050000
v 0.862915 0.486519 0.150000
v 0.861141 0.523977 0.068750
v 0.861141 0.523977 0.168750
v 0.860254 0.542706 0.140625
v 0.860254 0.542706 0.240625
v 0.859367 0.561435 0.068750
v 0.859367 0.561435 0.168750
v 0.857592 0.598893 0.050000
v 0.857592 0.598893 0.150000
v 0.855522 0.642594 0.068750
v 0.855522 0.642594 0.168750
v 0.852860 0.698781 0.150000
v 0.852860 0.698781 0.250000
v 0.817519 0.439248 0.068750
v 0.823529 0.383320 0.150000
v 0.823529 0.383320 0.250000
v 0.817519 0.439248 0.168750
v 0.812844 0.482748 0.050000
v 0.812844 0.482748 0.150000
v 0.808837 0.520033 0.068750
v 0.808837 0.520033 0.168750
v 0.806833 0.538676 0.140625
v 0.806833 0.538676 0.240625
v 0.804830 0.557318 0.068750
v 0.804830 0.557318 0.168750
v 0.800823 0.594604 0.050000
v 0.800823 0.594604 0.150000
v 0.796148 0.638103 0.068750
v 0.796148 0.638103 0.168750
v 0.790137 0.694031 0.150000
v 0.790137 0.694031 0.250000
v 0.769704 0.432554 0.068750
v 0.779412 0.377148 0.150000
v 0.779412 0.377148 0.250000
v 0.769704 0.432554 0.168750
v 0.762154 0.475648 0.050000
v 0.762154 0.475648 0.150000
v 0.755683 0.512585 0.068750
v 0.755683 0.512585 0.168750
v 0.752447 0.531054 0.140625
v 0.752447 0.531054 0.240625
v 0.749211 0.549522 0.068750
v 0.749211 0.549522 0.168750
v 0.742740 0.586460 0.050000
v 0.742740 0.586460 0.150000
v 0.735190 0.629553 0.068750
v 0.735190 0.629553 0.168750
v 0.725482 0.684959 0.150000
v 0.725482 0.684959 0.250000
v 0.721757 0.422458 0.068750
v 0.735294 0.367861 0.150000
v 0.735294 0.367861 0.250000
v 0.721757 0.422458 0.168750
v 0.711229 0.464922 0.050000
v 0.711229 0.464922 0.150000
v 0.702205 0.501320 0.068750
v 0.702205 0.501320 0.168750
v 0.697692 0.519519 0.140625
v 0.697692 0.519519 0.240625
v 0.693180 0.537718 0.068750
v 0.693180 0.537718 0.168750
v 0.684156 0.574116 0.050000
v 0.684156 0.574116 0.150000
v 0.673627 0.616580 0.068750
v 0.673627 0.616580 0.168750
v 0.660091 0.671177 0.150000
v 0.660091 0.671177 0.250000
v 0.673812 0.408774 0.068750
v 0.691176 0.355271 0.150000
v 0.691176 0.355271 0.250000
v 0.673812 0.408774 0.168750
v 0.660307 0.450387 0.050000
v 0.660307 0.450387 0.150000
v 0.648730 0.486056 0.068750
v 0.648730 0.486056 0.168750
v 0.642942 0.503890 0.140625
v 0.642942 0.503890 0.240625
v 0.637154 0.521724 0.068750
v 0.637154 0.521724 0.168750
v 0.625578 0.557392 0.050000
v 0.625578 0.557392 0.150000
v 0.612072 0.599006 0.068750
v 0.612072 0.599006 0.168750
v 0.594708 0.652508 0.150000
v 0.594708 0.652508 0.250000
v 0.625972 0.391372 0.068750
v 0.647059 0.339224 0.150000
v 0.647059 0.339224 0.250000
v 0.625972 0.391372 0.168750
v 0.609571 0.431932 0.050000
v 0.609571 0.431932 0.150000
v 0.595512 0.466697 0.068750
v 0.595512 0.466697 0.168750
v 0.588483 0.484079 0.140625
v 0.588483 0.484079 0.240625
v 0.581454 0.501462 0.068750
v 0.581454 0.501462 0.168750
v 0.567396 0.536227 0.050000
v 0.567396 0.536227 0.150000
v 0.550995 0.576787 0.068750
v 0.550995 0.576787 0.168750
v 0.529908 0.628934 0.150000
v 0.529908 0.628934 0.250000
v 0.578315 0.370164 0.068750
v 0.602941 0.319591 0.150000
v 0.602941 0.319591 0.250000
v 0.578315 0.370164 0.168750
v 0.559161 0.409498 0.050000
v 0.559161 0.409498 0.150000
v 0.542743 0.443213 0.068750
v 0.542743 0.443213 0.168750
v 0.534534 0.460071 0.140625
v 0.534534 0.460071 0.240625
v 0.526325 0.476928 0.068750
v 0.526325 0.476928 0.168750
v 0.509908 0.510643 0.050000
v 0.509908 0.510643 0.150000
v 0.490754 0.549978 0.068750
v 0.490754 0.549978 0.168750
v 0.466127 0.600551 0.150000
v 0.466127 0.600551 0.250000
v 0.530896 0.345085 0.068750
v 0.558824 0.296258 0.150000
v 0.558824 0.296258 0.250000
v 0.530896 0.345085 0.168750
v 0.509175 0.383062 0.050000
v 0.509175 0.383062 0.150000
v 0.490556 0.415614 0.068750
v 0.490556 0.415614 0.168750
v 0.481247 0.431890 0.140625
v 0.481247 0.431890 0.240625
v 0.471938 0.448166 0.068750
v 0.471938 0.448166 0.168750
v 0.453320 0.480717 0.050000
v 0.453320 0.480717 0.150000
v 0.431599 0.518694 0.068750
v 0.431599 0.518694 0.168750
v 0.403671 0.567522 0.150000
v 0.403671 0.567522 0.250000
v 0.483749 0.316089 0.068750
v 0.514706 0.269124 0.150000
v 0.514706 0.269124 0.250000
v 0.483749 0.316089 0.168750
v 0.459671 0.352618 0.050000
v 0.459671 0.352618 0.150000
v 0.439033 0.383928 0.068750
v 0.439033 0.383928 0.168750
v 0.428714 0.399583 0.140625
v 0.428714 0.399583 0.240625
v 0.418395 0.415238 0.068750
v 0.418395 0.415238 0.168750
v 0.397757 0.446548 0.050000
v 0.397757 0.446548 0.150000
v 0.373680 0.483076 0.068750
v 0.373680 0.483076 0.168750
v 0.342723 0.530042 0.150000
v 0.342723 0.530042 0.250000
v 0.436887 0.283134 0.068750
v 0.470588 0.238098 0.150000
v 0.470588 0.238098 0.250000
v 0.436887 0.283134 0.168750
v 0.410675 0.318163 0.050000
v 0.410675 0.318163 0.150000
v 0.388207 0.348187 0.068750
v 0.388207 0.348187 0.168750
v 0.376973 0.363199 0.140625
v 0.376973 0.363199 0.240625
v 0.365740 0.378211 0.068750
v 0.365740 0.378211 0.168750
v 0.343272 0.408236 0.050000
v 0.343272 0.408236 0.150000
v 0.317060 0.443264 0.068750
v 0.317060 0.443264 0.168750
v 0.283359 0.488300 0.150000
v 0.283359 0.488300 0.250000
v 0.390309 0.246182 0.068750
v 0.426471 0.203096 0.150000
v 0.426471 0.203096 0.250000
v 0.390309 0.246182 0.168750
v 0.362183 0.279693 0.050000
v 0.362183 0.279693 0.150000
v 0.338075 0.308417 0.068750
v 0.338075 0.308417 0.168750
v 0.326021 0.322779 0.140625
v 0.326021 0.322779 0.240625
v 0.313967 0.337141 0.068750
v 0.313967 0.337141 0.168750
v 0.289860 0.365865 0.050000
v 0.289860 0.365865 0.150000
v 0.261734 0.399376 0.068750
v 0.261734 0.399376 0.168750
v 0.225572 0.442462 0.150000
v 0.225572 0.442462 0.250000
v 0.344003 0.205193 0.068750
v 0.382353 0.164042 0.150000
v 0.382353 0.164042 0.250000
v 0.344003 0.205193 0.168750
v 0.314175 0.237198 0.050000
v 0.314175 0.237198 0.150000
v 0.288608 0.264632 0.068750
v 0.288608 0.264632 0.168750
v 0.275825 0.278348 0.140625
v 0.275825 0.278348 0.240625
v 0.263041 0.292065 0.068750
v 0.263041 0.292065 0.168750
v 0.237475 0.319498 0.050000
v 0.237475 0.319498 0.150000
v 0.207647 0.351504 0.068750
v 0.207647 0.351504 0.168750
v 0.169297 0.392654 0.150000
v 0.169297 0.392654 0.250000
v 0.297950 0.160122 0.068750
v 0.338235 0.120865 0.150000
v 0.338235 0.120865 0.250000
v 0.297950 0.160122 0.168750
v 0.266617 0.190656 0.050000
v 0.266617 0.190656 0.150000
v 0.239760 0.216827 0.068750
v 0.239760 0.216827 0.168750
v 0.226331 0.229913 0.140625
v 0.226331 0.229913 0.240625
v 0.212903 0.242999 0.068750
v 0.212903 0.242999 0.168750
v 0.186046 0.269171 0.050000
v 0.186046 0.269171 0.150000
v 0.154713 0.299704 0.068750
v 0.154713 0.299704 0.168750
v 0.114427 0.338962 0.150000
v 0.114427 0.338962 0.250000
v 0.252127 0.110925 0.068750
v 0.294118 0.073497 0.150000
v 0.294118 0.073497 0.250000
v 0.252127 0.110925 0.168750
v 0.219468 0.140036 0.050000
v 0.219468 0.140036 0.150000
v 0.191475 0.164988 0.068750
v 0.191475 0.164988 0.168750
v 0.177478 0.177464 0.140625
v 0.177478 0.177464 0.240625
v 0.163481 0.189940 0.068750
v 0.163481 0.189940 0.168750
v 0.135488 0.214893 0.050000
v 0.135488 0.214893 0.150000
v 0.102829 0.244003 0.068750
v 0.102829 0.244003 0.168750
v 0.060838 0.281432 0.150000
v 0.060838 0.281432 0.250000
v 0.207239 0.058420 0.068750
v 0.250000 0.021875 0.150000
v 0.250000 0.021875 0.250000
v 0.207239 0.058420 0.168750
v 0.173980 0.086844 0.050000
v 0.173980 0.086844 0.150000
v 0.145473 0.111208 0.068750
v 0.145473 0.111208 0.168750
v 0.131219 0.123389 0.140625
v 0.131219 0.123389 0.240625
v 0.116965 0.135571 0.068750
v 0.116965 0.135571 0.168750
v 0.088458 0.159934 0.050000
v 0.088458 0.159934 0.150000
v 0.055199 0.188358 0.068750
v 0.055199 0.188358 0.168750
v 0.012438 0.224904 0.150000
v 0.012438 0.224904 0.250000
v 0.950000 0.373129 0.400000
v 0.950000 0.710629 0.400000
v 0.950000 0.710629 0.250000
v 0.950000 0.373129 0.250000
v 0.750000 0.373129 0.250000
v 0.750000 0.710629 0.250000
v 0.750000 0.710629 0.400000
v 0.750000 0.373129 0.400000
v 0.975000 0.000000 0.600000
v 0.975000 0.735629 0.600000
v 0.975000 0.735629 0.375000
v 0.975000 0.000000 0.375000
v 0.725000 0.000000 0.375000
v 0.725000 0.735629 0.375000
v 0.725000 0.735629 0.600000
v 0.725000 0.000000 0.600000
v 0.337500 0.000000 0.293750
v 0.337500 0.078125 0.293750
v 0.337500 0.078125 0.018750
v 0.337500 0.000000 0.018750
v 0.037500 0.000000 0.018750
v 0.037500 0.078125 0.018750
v 0.037500 0.078125 0.293750
v 0.037500 0.000000 0.293750
vt 0.890625 0.125000
vt 0.890625 0.375000
vn -0.000000 -0.822192 -0.569210
vn -0.000000 -0.632729 -0.774374
vn 0.000000 0.822192 0.569210
vn 0.000000 0.632729 0.774374
vn -0.000000 0.029374 -0.999569
vn 0.000000 -0.029374 0.999569
vn -0.000000 0.776839 -0.629699
vn 0.000000 -0.776839 0.629699
vn -0.000000 0.000000 -1.000000
vn 0.000000 -0.000000 1.000000
vn -0.000000 -0.776839 -0.629699
vn 0.000000 0.776839 0.629699
vn -0.000000 -0.029374 -0.999569
vn 0.000000 0.029374 0.999569
vn -0.000000 0.632729 -0.774374
vn 0.000000 -0.632729 0.774374
vn -0.000000 0.822192 -0.569210
vn 0.000000 -0.822192 0.569210
vn 0.000000 -1.000000 0.000000
vn -0.000000 1.000000 -0.000000
vn 0.006234 -0.632698 -0.774374
vn 0.008100 -0.822152 -0.569210
vn -0.008100 0.822152 0.569210
vn -0.006234 0.632698 0.774374
vn -0.000289 0.029372 -0.999569
vn 0.000289 -0.029372 0.999569
vn -0.007653 0.776802 -0.629699
vn 0.007653 -0.776802 0.629699
vn 0.007653 -0.776802 -0.629699
vn -0.007653 0.776802 0.629699
vn 0.000289 -0.029372 -0.999569
vn -0.000289 0.029372 0.999569
vn -0.006234 0.632698 -0.774374
vn 0.006234 -0.632698 0.774374
vn -0.008100 0.822152 -0.569210
vn 0.008100 -0.822152 0.569210
vn 0.009852 -0.999951 -0.000000
vn -0.009852 0.999951 0.000000
vn 0.029939 -0.632020 -0.774374
vn 0.038904 -0.821271 -0.569210
vn -0.038904 0.821271 0.569210
vn -0.029939 0.632020 0.774374
vn -0.001390 0.029341 -0.999569
vn 0.001390 -0.029341 0.999569
vn -0.036758 0.775969 -0.629699
vn 0.036758 -0.775969 0.629699
vn 0.036758 -0.775969 -0.629699
vn -0.036758 0.775969 0.629699
vn 0.001390 -0.029341 -0.999569
vn -0.001390 0.029341 0.999569
vn -0.029939 0.632020 -0.774374
vn 0.029939 -0.632020 0.774374
vn -0.038904 0.821271 -0.569210
vn 0.038904 -0.821271 0.569210
vn 0.047317 -0.998880 -0.000000
vn -0.047317 0.998880 0.000000
vn 0.067611 -0.629106 -0.774374
vn 0.087856 -0.817485 -0.569210
vn -0.087856 0.817485 0.569210
vn -0.067611 0.629106 0.774374
vn -0.003139 0.029206 -0.999569
vn 0.003139 -0.029206 0.999569
vn -0.083010 0.772392 -0.629699
vn 0.083010 -0.772392 0.629699
vn 0.083010 -0.772392 -0.629699
vn -0.083010 0.772392 0.629699
vn 0.003139 -0.029206 -0.999569
vn -0.003139 0.029206 0.999569
vn -0.067611 0.629106 -0.774374
vn 0.067611 -0.629106 0.774374
vn -0.087856 0.817485 -0.569210
vn 0.087856 -0.817485 0.569210
vn 0.106856 -0.994275 -0.000000
vn -0.106856 0.994275 0.000000
vn 0.109193 -0.623235 -0.774374
vn 0.141889 -0.809856 -0.569210
vn -0.141889 0.809856 0.569210
vn -0.109193 0.623235 0.774374
vn -0.005069 0.028933 -0.999569
vn 0.005069 -0.028933 0.999569
vn -0.134063 0.765184 -0.629699
vn 0.134063 -0.765184 0.629699
vn 0.134063 -0.765184 -0.629699
vn -0.134063 0.765184 0.629699
vn 0.005069 -0.028933 -0.999569
vn -0.005069 0.028933 0.999569
vn -0.109193 0.623235 -0.774374
vn 0.109193 -0.623235 0.774374
vn -0.141889 0.809856 -0.569210
vn 0.141889 -0.809856 0.569210
vn 0.172574 -0.984996 -0.000000
vn -0.172574 0.984996 0.000000
vn 0.152267 -0.614134 -0.774374
vn 0.197862 -0.798029 -0.569210
vn -0.197862 0.798029 0.569210
vn -0.152267 0.614134 0.774374
vn -0.007069 0.028510 -0.999569
vn 0.007069 -0.028510 0.999569
vn -0.186947 0.754009 -0.629699
vn 0.186947 -0.754009 0.629699
vn 0.186947 -0.754009 -0.629699
vn -0.186947 0.754009 0.629699
vn 0.007069 -0.028510 -0.999569
vn -0.007069 0.028510 0.999569
vn -0.152267 0.614134 -0.774374
vn 0.152267 -0.614134 0.774374
vn -0.197862 0.798029 -0.569210
vn 0.197862 -0.798029 0.569210
vn 0.240651 -0.970612 -0.000000
vn -0.240651 0.970612 0.000000
vn 0.195323 -0.601826 -0.774374
vn 0.253810 -0.782036 -0.569210
vn -0.253810 0.782036 0.569210
vn -0.195323 0.601826 0.774374
vn -0.009068 0.027939 -0.999569
vn 0.009068 -0.027939 0.999569
vn -0.239810 0.738898 -0.629699
vn 0.239810 -0.738898 0.629699
vn 0.239810 -0.738898 -0.629699
vn -0.239810 0.738898 0.629699
vn 0.009068 -0.027939 -0.999569
vn -0.009068 0.027939 0.999569
vn -0.195323 0.601826 -0.774374
vn 0.195323 -0.601826 0.774374
vn -0.253810 0.782036 -0.569210
vn 0.253810 -0.782036 0.569210
vn 0.308699 -0.951160 -0.000000
vn -0.308699 0.951160 0.000000
vn 0.237199 -0.586585 -0.774374
vn 0.308226 -0.762232 -0.569210
vn -0.308226 0.762232 0.569210
vn -0.237199 0.586585 0.774374
vn -0.011012 0.027232 -0.999569
vn 0.011012 -0.027232 0.999569
vn -0.291224 0.720186 -0.629699
vn 0.291224 -0.720186 0.629699
vn 0.291224 -0.720186 -0.629699
vn -0.291224 0.720186 0.629699
vn 0.011012 -0.027232 -0.999569
vn -0.011012 0.027232 0.999569
vn -0.237199 0.586585 -0.774374
vn 0.237199 -0.586585 0.774374
vn -0.308226 0.762232 -0.569210
vn 0.308226 -0.762232 0.569210
vn 0.374883 -0.927072 -0.000000
vn -0.374883 0.927072 0.000000
vn 0.277012 -0.568867 -0.774374
vn 0.359960 -0.739208 -0.569210
vn -0.359960 0.739208 0.569210
vn -0.277012 0.568867 0.774374
vn -0.012860 0.026409 -0.999569
vn 0.012860 -0.026409 0.999569
vn -0.340104 0.698433 -0.629699
vn 0.340104 -0.698433 0.629699
vn 0.340104 -0.698433 -0.629699
vn -0.340104 0.698433 0.629699
vn 0.012860 -0.026409 -0.999569
vn -0.012860 0.026409 0.999569
vn -0.277012 0.568867 -0.774374
vn 0.277012 -0.568867 0.774374
vn -0.359960 0.739208 -0.569210
vn 0.359960 -0.739208 0.569210
vn 0.437805 -0.899070 -0.000000
vn -0.437805 0.899070 0.000000
vn 0.314142 -0.549236 -0.774374
vn 0.408208 -0.713699 -0.569210
vn -0.408208 0.713699 0.569210
vn -0.314142 0.549236 0.774374
vn -0.014584 0.025498 -0.999569
vn 0.014584 -0.025498 0.999569
vn -0.385691 0.674331 -0.629699
vn 0.385691 -0.674331 0.629699
vn 0.385691 -0.674331 -0.629699
vn -0.385691 0.674331 0.629699
vn 0.014584 -0.025498 -0.999569
vn -0.014584 0.025498 0.999569
vn -0.314142 0.549236 -0.774374
vn 0.314142 -0.549236 0.774374
vn -0.408208 0.713699 -0.569210
vn 0.408208 -0.713699 0.569210
vn 0.496488 -0.868044 -0.000000
vn -0.496488 0.868044 0.000000
vn 0.348220 -0.528288 -0.774374
vn 0.452491 -0.686478 -0.569210
vn -0.452491 0.686478 0.569210
vn -0.348220 0.528288 0.774374
vn -0.016166 0.024525 -0.999569
vn 0.016166 -0.024525 0.999569
vn -0.427531 0.648611 -0.629699
vn 0.427531 -0.648611 0.629699
vn 0.427531 -0.648611 -0.629699
vn -0.427531 0.648611 0.629699
vn 0.016166 -0.024525 -0.999569
vn -0.016166 0.024525 0.999569
vn -0.348220 0.528288 -0.774374
vn 0.348220 -0.528288 0.774374
vn -0.452491 0.686478 -0.569210
vn 0.452491 -0.686478 0.569210
vn 0.550347 -0.834936 -0.000000
vn -0.550347 0.834936 0.000000
vn 0.379090 -0.506593 -0.774374
vn 0.492604 -0.658287 -0.569210
vn -0.492604 0.658287 0.569210
vn -0.379090 0.506593 0.774374
vn -0.017599 0.023518 -0.999569
vn 0.017599 -0.023518 0.999569
vn -0.465432 0.621975 -0.629699
vn 0.465432 -0.621975 0.629699
vn 0.465432 -0.621975 -0.629699
vn -0.465432 0.621975 0.629699
vn 0.017599 -0.023518 -0.999569
vn -0.017599 0.023518 0.999569
vn -0.379090 0.506593 -0.774374
vn 0.379090 -0.506593 0.774374
vn -0.492604 0.658287 -0.569210
vn 0.492604 -0.658287 0.569210
vn 0.599135 -0.800648 -0.000000
vn -0.599135 0.800648 0.000000
vn 0.406765 -0.484652 -0.774374
vn 0.528567 -0.629776 -0.569210
vn -0.528567 0.629776 0.569210
vn -0.406765 0.484652 0.774374
vn -0.018884 0.022499 -0.999569
vn 0.018884 -0.022499 0.999569
vn -0.499411 0.595037 -0.629699
vn 0.499411 -0.595037 0.629699
vn 0.499411 -0.595037 -0.629699
vn -0.499411 0.595037 0.629699
vn 0.018884 -0.022499 -0.999569
vn -0.018884 0.022499 0.999569
vn -0.406765 0.484652 -0.774374
vn 0.406765 -0.484652 0.774374
vn -0.528567 0.629776 -0.569210
vn 0.528567 -0.629776 0.569210
vn 0.642875 -0.765971 -0.000000
vn -0.642875 0.765971 0.000000
vn 0.431382 -0.462877 -0.774374
vn 0.560554 -0.601481 -0.569210
vn -0.560554 0.601481 0.569210
vn -0.431382 0.462877 0.774374
vn -0.020026 0.021489 -0.999569
vn 0.020026 -0.021489 0.999569
vn -0.529633 0.568303 -0.629699
vn 0.529633 -0.568303 0.629699
vn 0.529633 -0.568303 -0.629699
vn -0.529633 0.568303 0.629699
vn 0.020026 -0.021489 -0.999569
vn -0.020026 0.021489 0.999569
vn -0.431382 0.462877 -0.774374
vn 0.431382 -0.462877 0.774374
vn -0.560554 0.601481 -0.569210
vn 0.560554 -0.601481 0.569210
vn 0.681780 -0.731558 -0.000000
vn -0.681780 0.731558 0.000000
vn 0.453151 -0.441588 -0.774374
vn 0.588842 -0.573816 -0.569210
vn -0.588842 0.573816 0.569210
vn -0.453151 0.441588 0.774374
vn -0.021037 0.020500 -0.999569
vn 0.021037 -0.020500 0.999569
vn -0.556361 0.542164 -0.629699
vn 0.556361 -0.542164 0.629699
vn 0.556361 -0.542164 -0.629699
vn -0.556361 0.542164 0.629699
vn 0.021037 -0.020500 -0.999569
vn -0.021037 0.020500 0.999569
vn -0.453151 0.441588 -0.774374
vn 0.453151 -0.441588 0.774374
vn -0.588842 0.573816 -0.569210
vn 0.588842 -0.573816 0.569210
vn 0.716186 -0.697910 -0.000000
vn -0.716186 0.697910 0.000000
vn 0.472328 -0.421013 -0.774374
vn 0.613761 -0.547080 -0.569210
vn -0.613761 0.547080 0.569210
vn -0.472328 0.421013 0.774374
vn -0.021927 0.019545 -0.999569
vn 0.021927 -0.019545 0.999569
vn -0.579906 0.516903 -0.629699
vn 0.579906 -0.516903 0.629699
vn 0.579906 -0.516903 -0.629699
vn -0.579906 0.516903 0.629699
vn 0.021927 -0.019545 -0.999569
vn -0.021927 0.019545 0.999569
vn -0.472328 0.421013 -0.774374
vn 0.472328 -0.421013 0.774374
vn -0.613761 0.547080 -0.569210
vn 0.613761 -0.547080 0.569210
vn 0.746494 -0.665392 -0.000000
vn -0.746494 0.665392 0.000000
vn 0.480999 -0.411078 -0.774374
vn 0.625029 -0.534171 -0.569210
vn -0.625029 0.534171 0.569210
vn -0.480999 0.411078 0.774374
vn -0.022330 0.019084 -0.999569
vn 0.022330 -0.019084 0.999569
vn -0.590552 0.504706 -0.629699
vn 0.590552 -0.504706 0.629699
vn 0.590552 -0.504706 -0.629699
vn -0.590552 0.504706 0.629699
vn 0.022330 -0.019084 -0.999569
vn -0.022330 0.019084 0.999569
vn -0.480999 0.411078 -0.774374
vn 0.480999 -0.411078 0.774374
vn -0.625029 0.534171 -0.569210
vn 0.625029 -0.534171 0.569210
vn 0.760198 -0.649692 -0.000000
vn -0.760198 0.649692 0.000000
vn 1.000000 -0.000000 -0.000000
vn -0.649692 -0.760198 0.000000
vn -1.000000 0.000000 0.000000
usemtl body
f 3/1/2 2/1/2 1/1/1
f 4/1/1 3/1/2 1/1/1
f 7/1/4 6/1/3 5/1/3
f 8/1/4 7/1/4 5/1/3
f 10/1/5 9/1/5 2/1/2
f 3/1/2 10/1/5 2/1/2
f 11/1/6 7/1/4 8/1/4
f 12/1/6 11/1/6 8/1/4
f 14/1/7 13/1/7 9/1/5
f 10/1/5 14/1/7 9/1/5
f 15/1/8 11/1/6 12/1/6
f 16/1/8 15/1/8 12/1/6
f 18/1/9 17/1/9 13/1/7
f 14/1/7 18/1/9 13/1/7
f 19/1/10 15/1/8 16/1/8
f 20/1/10 19/1/10 16/1/8
f 22/1/11 21/1/11 17/1/9
f 18/1/9 22/1/11 17/1/9
f 23/1/12 19/1/10 20/1/10
f 24/1/12 23/1/12 20/1/10
f 26/1/13 25/1/13 21/1/11
f 22/1/11 26/1/13 21/1/11
f 27/1/14 23/1/12 24/1/12
f 28/1/14 27/1/14 24/1/12
f 30/1/15 29/1/15 25/1/13
f 26/1/13 30/1/15 25/1/13
f 31/1/16 27/1/14 28/1/14
f 32/1/16 31/1/16 28/1/14
f 34/1/17 33/1/17 29/1/15
f 30/1/15 34/1/17 29/1/15
f 35/1/18 31/1/16 32/1/16
f 36/1/18 35/1/18 32/1/16
f 1/1/19 5/1/19 6/1/19
f 1/1/19 6/1/19 4/1/19
f 35/1/20 36/1/20 33/1/20
f 34/1/20 35/1/20 33/1/20
f 37/1/21 3/1/2 4/1/1
f 38/1/22 37/1/21 4/1/1
f 40/1/24 39/1/23 6/1/3
f 7/1/4 40/1/24 6/1/3
f 41/1/25 10/1/5 3/1/2
f 37/1/21 41/1/25 3/1/2
f 42/1/26 40/1/24 7/1/4
f 11/1/6 42/1/26 7/1/4
f 43/1/27 14/1/7 10/1/5
f 41/1/25 43/1/27 10/1/5
f 44/1/28 42/1/26 11/1/6
f 15/1/8 44/1/28 11/1/6
f 45/1/9 18/1/9 14/1/7
f 43/1/27 45/1/9 14/1/7
f 46/1/10 44/1/28 15/1/8
f 19/1/10 46/1/10 15/1/8
f 47/1/29 22/1/11 18/1/9
f 45/1/9 47/1/29 18/1/9
f 48/1/30 46/1/10 19/1/10
f 23/1/12 48/1/30 19/1/10
f 49/1/31 26/1/13 22/1/11
f 47/1/29 49/1/31 22/1/11
f 50/1/32 48/1/30 23/1/12
f 27/1/14 50/1/32 23/1/12
f 51/1/33 30/1/15 26/1/13
f 49/1/31 51/1/33 26/1/13
f 52/1/34 50/1/32 27/1/14
f 31/1/16 52/1/34 27/1/14
f 53/1/35 34/1/17 30/1/15
f 51/1/33 53/1/35 30/1/15
f 54/1/36 52/1/34 31/1/16
f 35/1/18 54/1/36 31/1/16
f 4/1/19 6/1/19 39/1/37
f 4/1/19 39/1/37 38/1/37
f 54/1/38 35/1/20 34/1/20
f 53/1/38 54/1/38 34/1/20
f 55/1/39 37/1/21 38/1/22
f 56/1/40 55/1/39 38/1/22
f 58/1/42 57/1/41 39/1/23
f 40/1/24 58/1/42 39/1/23
f 59/1/43 41/1/25 37/1/21
f 55/1/39 59/1/43 37/1/21
f 60/1/44 58/1/42 40/1/24
f 42/1/26 60/1/44 40/1/24
f 61/1/45 43/1/27 41/1/25
f 59/1/43 61/1/45 41/1/25
f 62/1/46 60/1/44 42/1/26
f 44/1/28 62/1/46 42/1/26
f 63/1/9 45/1/9 43/1/27
f 61/1/45 63/1/9 43/1/27
f 64/1/10 62/1/46 44/1/28
f 46/1/10 64/1/10 44/1/28
f 65/1/47 47/1/29 45/1/9
f 63/1/9 65/1/47 45/1/9
f 66/1/48 64/1/10 46/1/10
f 48/1/30 66/1/48 46/1/10
f 67/1/49 49/1/31 47/1/29
f 65/1/47 67/1/49 47/1/29
f 68/1/50 66/1/48 48/1/30
f 50/1/32 68/1/50 48/1/30
f 69/1/51 51/1/33 49/1/31
f 67/1/49 69/1/51 49/1/31
f 70/1/52 68/1/50 50/1/32
f 52/1/34 70/1/52 50/1/32
f 71/1/53 53/1/35 51/1/33
f 69/1/51 71/1/53 51/1/33
f 72/1/54 70/1/52 52/1/34
f 54/1/36 72/1/54 52/1/34
f 38/1/37 39/1/37 57/1/55
f 38/1/37 57/1/55 56/1/55
f 72/1/56 54/1/38 53/1/38
f 71/1/56 72/1/56 53/1/38
f 73/1/57 55/1/39 56/1/40
f 74/1/58 73/1/57 56/1/40
f 76/1/60 75/1/59 57/1/41
f 58/1/42 76/1/60 57/1/41
f 77/1/61 59/1/43 55/1/39
f 73/1/57 77/1/61 55/1/39
f 78/1/62 76/1/60 58/1/42
f 60/1/44 78/1/62 58/1/42
f 79/1/63 61/1/45 59/1/43
f 77/1/61 79/1/63 59/1/43
f 80/1/64 78/1/62 60/1/44
f 62/1/46 80/1/64 60/1/44
f 81/1/9 63/1/9 61/1/45
f 79/1/63 81/1/9 61/1/45
f 82/1/10 80/1/64 62/1/46
f 64/1/10 82/1/10 62/1/46
f 83/1/65 65/1/47 63/1/9
f 81/1/9 83/1/65 63/1/9
f 84/1/66 82/1/10 64/1/10
f 66/1/48 84/1/66 64/1/10
f 85/1/67 67/1/49 65/1/47
f 83/1/65 85/1/67 65/1/47
f 86/1/68 84/1/66 66/1/48
f 68/1/50 86/1/68 66/1/48
f 87/1/69 69/1/51 67/1/49
f 85/1/67 87/1/69 67/1/49
f 88/1/70 86/1/68 68/1/50
f 70/1/52 88/1/70 68/1/50
f 89/1/71 71/1/53 69/1/51
f 87/1/69 89/1/71 69/1/51
f 90/1/72 88/1/70 70/1/52
f 72/1/54 90/1/72 70/1/52
f 56/1/55 57/1/55 75/1/73
f 56/1/55 75/1/73 74/1/73
f 90/1/74 72/1/56 71/1/56
f 89/1/74 90/1/74 71/1/56
f 91/1/75 73/1/57 74/1/58
f 92/1/76 91/1/75 74/1/58
f 94/1/78 93/1/77 75/1/59
f 76/1/60 94/1/78 75/1/59
f 95/1/79 77/1/61 73/1/57
f 91/1/75 95/1/79 73/1/57
f 96/1/80 94/1/78 76/1/60
f 78/1/62 96/1/80 76/1/60
f 97/1/81 79/1/63 77/1/61
f 95/1/79 97/1/81 77/1/61
f 98/1/82 96/1/80 78/1/62
f 80/1/64 98/1/82 78/1/62
f 99/1/9 81/1/9 79/1/63
f 97/1/81 99/1/9 79/1/63
f 100/1/10 98/1/82 80/1/64
f 82/1/10 100/1/10 80/1/64
f 101/1/83 83/1/65 81/1/9
f 99/1/9 101/1/83 81/1/9
f 102/1/84 100/1/10 82/1/10
f 84/1/66 102/1/84 82/1/10
f 103/1/85 85/1/67 83/1/65
f 101/1/83 103/1/85 83/1/65
f 104/1/86 102/1/84 84/1/66
f 86/1/68 104/1/86 84/1/66
f 105/1/87 87/1/69 85/1/67
f 103/1/85 105/1/87 85/1/67
f 106/1/88 104/1/86 86/1/68
f 88/1/70 106/1/88 86/1/68
f 107/1/89 89/1/71 87/1/69
f 105/1/87 107/1/89 87/1/69
f 108/1/90 106/1/88 88/1/70
f 90/1/72 108/1/90 88/1/70
f 74/1/73 75/1/73 93/1/91
f 74/1/73 93/1/91 92/1/91
f 108/1/92 90/1/74 89/1/74
f 107/1/92 108/1/92 89/1/74
f 109/1/93 91/1/75 92/1/76
f 110/1/94 109/1/93 92/1/76
f 112/1/96 111/1/95 93/1/77
f 94/1/78 112/1/96 93/1/77
f 113/1/97 95/1/79 91/1/75
f 109/1/93 113/1/97 91/1/75
f 114/1/98 112/1/96 94/1/78
f 96/1/80 114/1/98 94/1/78
f 115/1/99 97/1/81 95/1/79
f 113/1/97 115/1/99 95/1/79
f 116/1/100 114/1/98 96/1/80
f 98/1/82 116/1/100 96/1/80
f 117/1/9 99/1/9 97/1/81
f 115/1/99 117/1/9 97/1/81
f 118/1/10 116/1/100 98/1/82
f 100/1/10 118/1/10 98/1/82
f 119/1/101 101/1/83 99/1/9
f 117/1/9 119/1/101 99/1/9
f 120/1/102 118/1/10 100/1/10
f 102/1/84 120/1/102 100/1/10
f 121/1/103 103/1/85 101/1/83
f 119/1/101 121/1/103 101/1/83
f 122/1/104 120/1/102 102/1/84
f 104/1/86 122/1/104 102/1/84
f 123/1/105 105/1/87 103/1/85
f 121/1/103 123/1/105 103/1/85
f 124/1/106 122/1/104 104/1/86
f 106/1/88 124/1/106 104/1/86
f 125/1/107 107/1/89 105/1/87
f 123/1/105 125/1/107 105/1/87
f 126/1/108 124/1/106 106/1/88
f 108/1/90 126/1/108 106/1/88
f 92/1/91 93/1/91 111/1/109
f 92/1/91 111/1/109 110/1/109
f 126/1/110 108/1/92 107/1/92
f 125/1/110 126/1/110 107/1/92
f 127/1/111 109/1/93 110/1/94
f 128/1/112 127/1/111 110/1/94
f 130/1/114 129/1/113 111/1/95
f 112/1/96 130/1/114 111/1/95
f 131/1/115 113/1/97 109/1/93
f 127/1/111 131/1/115 109/1/93
f 132/1/116 130/1/114 112/1/96
f 114/1/98 132/1/116 112/1/96
f 133/1/117 115/1/99 113/1/97
f 131/1/115 133/1/117 113/1/97
f 134/1/118 132/1/116 114/1/98
f 116/1/100 134/1/118 114/1/98
f 135/1/9 117/1/9 115/1/99
f 133/1/117 135/1/9 115/1/99
f 136/1/10 134/1/118 116/1/100
f 118/1/10 136/1/10 116/1/100
f 137/1/119 119/1/101 117/1/9
f 135/1/9 137/1/119 117/1/9
f 138/1/120 136/1/10 118/1/10
f 120/1/102 138/1/120 118/1/10
f 139/1/121 121/1/103 119/1/101
f 137/1/119 139/1/121 119/1/101
f 140/1/122 138/1/120 120/1/102
f 122/1/104 140/1/122 120/1/102
f 141/1/123 123/1/105 121/1/103
f 139/1/121 141/1/123 121/1/103
f 142/1/124 140/1/122 122/1/104
f 124/1/106 142/1/124 122/1/104
f 143/1/125 125/1/107 123/1/105
f 141/1/123 143/1/125 123/1/105
f 144/1/126 142/1/124 124/1/106
f 126/1/108 144/1/126 124/1/106
f 110/1/109 111/1/109 129/1/127
f 110/1/109 129/1/127 128/1/127
f 144/1/128 126/1/110 125/1/110
f 143/1/128 144/1/128 125/1/110
f 145/1/129 127/1/111 128/1/112
f 146/1/130 145/1/129 128/1/112
f 148/1/132 147/1/131 129/1/113
f 130/1/114 148/1/132 129/1/113
f 149/1/133 131/1/115 127/1/111
f 145/1/129 149/1/133 127/1/111
f 150/1/134 148/1/132 130/1/114
f 132/1/116 150/1/134 130/1/114
f 151/1/135 133/1/117 131/1/115
f 149/1/133 151/1/135 131/1/115
f 152/1/136 150/1/134 132/1/116
f 134/1/118 152/1/136 132/1/116
f 153/1/9 135/1/9 133/1/117
f 151/1/135 153/1/9 133/1/117
f 154/1/10 152/1/136 134/1/118
f 136/1/10 154/1/10 134/1/118
f 155/1/137 137/1/119 135/1/9
f 153/1/9 155/1/137 135/1/9
f 156/1/138 154/1/10 136/1/10
f 138/1/120 156/1/138 136/1/10
f 157/1/139 139/1/121 137/1/119
f 155/1/137 157/1/139 137/1/119
f 158/1/140 156/1/138 138/1/120
f 140/1/122 158/1/140 138/1/120
f 159/1/141 141/1/123 139/1/121
f 157/1/139 159/1/141 139/1/121
f 160/1/142 158/1/140 140/1/122
f 142/1/124 160/1/142 140/1/122
f 161/1/143 143/1/125 141/1/123
f 159/1/141 161/1/143 141/1/123
f 162/1/144 160/1/142 142/1/124
f 144/1/126 162/1/144 142/1/124
f 128/1/127 129/1/127 147/1/145
f 128/1/127 147/1/145 146/1/145
f 162/1/146 144/1/128 143/1/128
f 161/1/146 162/1/146 143/1/128
f 163/1/147 145/1/129 146/1/130
f 164/1/148 163/1/147 146/1/130
f 166/1/150 165/1/149 147/1/131
f 148/1/132 166/1/150 147/1/131
f 167/1/151 149/1/133 145/1/129
f 163/1/147 167/1/151 145/1/129
f 168/1/152 166/1/150 148/1/132
f 150/1/134 168/1/152 148/1/132
f 169/1/153 151/1/135 149/1/133
f 167/1/151 169/1/153 149/1/133
f 170/1/154 168/1/152 150/1/134
f 152/1/136 170/1/154 150/1/134
f 171/1/9 153/1/9 151/1/135
f 169/1/153 171/1/9 151/1/135
f 172/1/10 170/1/154 152/1/136
f 154/1/10 172/1/10 152/1/136
f 173/1/155 155/1/137 153/1/9
f 171/1/9 173/1/155 153/1/9
f 174/1/156 172/1/10 154/1/10
f 156/1/138 174/1/156 154/1/10
f 175/1/157 157/1/139 155/1/137
f 173/1/155 175/1/157 155/1/137
f 176/1/158 174/1/156 156/1/138
f 158/1/140 176/1/158 156/1/138
f 177/1/159 159/1/141 157/1/139
f 175/1/157 177/1/159 157/1/139
f 178/1/160 176/1/158 158/1/140
f 160/1/142 178/1/160 158/1/140
f 179/1/161 161/1/143 159/1/141
f 177/1/159 179/1/161 159/1/141
f 180/1/162 178/1/160 160/1/142
f 162/1/144 180/1/162 160/1/142
f 146/1/145 147/1/145 165/1/163
f 146/1/145 165/1/163 164/1/163
f 180/1/164 162/1/146 161/1/146
f 179/1/164 180/1/164 161/1/146
f 181/1/165 163/1/147 164/1/148
f 182/1/166 181/1/165 164/1/148
f 184/1/168 183/1/167 165/1/149
f 166/1/150 184/1/168 165/1/149
f 185/1/169 167/1/151 163/1/147
f 181/1/165 185/1/169 163/1/147
f 186/1/170 184/1/168 166/1/150
f 168/1/152 186/1/170 166/1/150
f 187/1/171 169/1/153 167/1/151
f 185/1/169 187/1/171 167/1/151
f 188/1/172 186/1/170 168/1/152
f 170/1/154 188/1/172 168/1/152
f 189/1/9 171/1/9 169/1/153
f 187/1/171 189/1/9 169/1/153
f 190/1/10 188/1/172 170/1/154
f 172/1/10 190/1/10 170/1/154
f 191/1/173 173/1/155 171/1/9
f 189/1/9 191/1/173 171/1/9
f 192/1/174 190/1/10 172/1/10
f 174/1/156 192/1/174 172/1/10
f 193/1/175 175/1/157 173/1/155
f 191/1/173 193/1/175 173/1/155
f 194/1/176 192/1/174 174/1/156
f 176/1/158 194/1/176 174/1/156
f 195/1/177 177/1/159 175/1/157
f 193/1/175 195/1/177 175/1/157
f 196/1/178 194/1/176 176/1/158
f 178/1/160 196/1/178 176/1/158
f 197/1/179 179/1/161 177/1/159
f 195/1/177 197/1/179 177/1/159
f 198/1/180 196/1/178 178/1/160
f 180/1/162 198/1/180 178/1/160
f 164/1/163 165/1/163 183/1/181
f 164/1/163 183/1/181 182/1/181
f 198/1/182 180/1/164 179/1/164
f 197/1/182 198/1/182 179/1/164
f 199/1/183 181/1/165 182/1/166
f 200/1/184 199/1/183 182/1/166
f 202/1/186 201/1/185 183/1/167
f 184/1/168 202/1/186 183/1/167
f 203/1/187 185/1/169 181/1/165
f 199/1/183 203/1/187 181/1/165
f 204/1/188 202/1/186 184/1/168
f 186/1/170 204/1/188 184/1/168
f 205/1/189 187/1/171 185/1/169
f 203/1/187 205/1/189 185/1/169
f 206/1/190 204/1/188 186/1/170
f 188/1/172 206/1/190 186/1/170
f 207/1/9 189/1/9 187/1/171
f 205/1/189 207/1/9 187/1/171
f 208/1/10 206/1/190 188/1/172
f 190/1/10 208/1/10 188/1/172
f 209/1/191 191/1/173 189/1/9
f 207/1/9 209/1/191 189/1/9
f 210/1/192 208/1/10 190/1/10
f 192/1/174 210/1/192 190/1/10
f 211/1/193 193/1/175 191/1/173
f 209/1/191 211/1/193 191/1/173
f 212/1/194 210/1/192 192/1/174
f 194/1/176 212/1/194 192/1/174
f 213/1/195 195/1/177 193/1/175
f 211/1/193 213/1/195 193/1/175
f 214/1/196 212/1/194 194/1/176
f 196/1/178 214/1/196 194/1/176
f 215/1/197 197/1/179 195/1/177
f 213/1/195 215/1/197 195/1/177
f 216/1/198 214/1/196 196/1/178
f 198/1/180 216/1/198 196/1/178
f 182/1/181 183/1/181 201/1/199
f 182/1/181 201/1/199 200/1/199
f 216/1/200 198/1/182 197/1/182
f 215/1/200 216/1/200 197/1/182
f 217/1/201 199/1/183 200/1/184
f 218/1/202 217/1/201 200/1/184
f 220/1/204 219/1/203 201/1/185
f 202/1/186 220/1/204 201/1/185
f 221/1/205 203/1/187 199/1/183
f 217/1/201 221/1/205 199/1/183
f 222/1/206 220/1/204 202/1/186
f 204/1/188 222/1/206 202/1/186
f 223/1/207 205/1/189 203/1/187
f 221/1/205 223/1/207 203/1/187
f 224/1/208 222/1/206 204/1/188
f 206/1/190 224/1/208 204/1/188
f 225/1/9 207/1/9 205/1/189
f 223/1/207 225/1/9 205/1/189
f 226/1/10 224/1/208 206/1/190
f 208/1/10 226/1/10 206/1/190
f 227/1/209 209/1/191 207/1/9
f 225/1/9 227/1/209 207/1/9
f 228/1/210 226/1/10 208/1/10
f 210/1/192 228/1/210 208/1/10
f 229/1/211 211/1/193 209/1/191
f 227/1/209 229/1/211 209/1/191
f 230/1/212 228/1/210 210/1/192
f 212/1/194 230/1/212 210/1/192
f 231/1/213 213/1/195 211/1/193
f 229/1/211 231/1/213 211/1/193
f 232/1/214 230/1/212 212/1/194
f 214/1/196 232/1/214 212/1/194
f 233/1/215 215/1/197 213/1/195
f 231/1/213 233/1/215 213/1/195
f 234/1/216 232/1/214 214/1/196
f 216/1/198 234/1/216 214/1/196
f 200/1/199 201/1/199 219/1/217
f 200/1/199 219/1/217 218/1/217
f 234/1/218 216/1/200 215/1/200
f 233/1/218 234/1/218 215/1/200
f 235/1/219 217/1/201 218/1/202
f 236/1/220 235/1/219 218/1/202
f 238/1/222 237/1/221 219/1/203
f 220/1/204 238/1/222 219/1/203
f 239/1/223 221/1/205 217/1/201
f 235/1/219 239/1/223 217/1/201
f 240/1/224 238/1/222 220/1/204
f 222/1/206 240/1/224 220/1/204
f 241/1/225 223/1/207 221/1/205
f 239/1/223 241/1/225 221/1/205
f 242/1/226 240/1/224 222/1/206
f 224/1/208 242/1/226 222/1/206
f 243/1/9 225/1/9 223/1/207
f 241/1/225 243/1/9 223/1/207
f 244/1/10 242/1/226 224/1/208
f 226/1/10 244/1/10 224/1/208
f 245/1/227 227/1/209 225/1/9
f 243/1/9 245/1/227 225/1/9
f 246/1/228 244/1/10 226/1/10
f 228/1/210 246/1/228 226/1/10
f 247/1/229 229/1/211 227/1/209
f 245/1/227 247/1/229 227/1/209
f 248/1/230 246/1/228 228/1/210
f 230/1/212 248/1/230 228/1/210
f 249/1/231 231/1/213 229/1/211
f 247/1/229 249/1/231 229/1/211
f 250/1/232 248/1/230 230/1/212
f 232/1/214 250/1/232 230/1/212
f 251/1/233 233/1/215 231/1/213
f 249/1/231 251/1/233 231/1/213
f 252/1/234 250/1/232 232/1/214
f 234/1/216 252/1/234 232/1/214
f 218/1/217 219/1/217 237/1/235
f 218/1/217 237/1/235 236/1/235
f 252/1/236 234/1/218 233/1/218
f 251/1/236 252/1/236 233/1/218
f 253/1/237 235/1/219 236/1/220
f 254/1/238 253/1/237 236/1/220
f 256/1/240 255/1/239 237/1/221
f 238/1/222 256/1/240 237/1/221
f 257/1/241 239/1/223 235/1/219
f 253/1/237 257/1/241 235/1/219
f 258/1/242 256/1/240 238/1/222
f 240/1/224 258/1/242 238/1/222
f 259/1/243 241/1/225 239/1/223
f 257/1/241 259/1/243 239/1/223
f 260/1/244 258/1/242 240/1/224
f 242/1/226 260/1/244 240/1/224
f 261/1/9 243/1/9 241/1/225
f 259/1/243 261/1/9 241/1/225
f 262/1/10 260/1/244 242/1/226
f 244/1/10 262/1/10 242/1/226
f 263/1/245 245/1/227 243/1/9
f 261/1/9 263/1/245 243/1/9
f 264/1/246 262/1/10 244/1/10
f 246/1/228 264/1/246 244/1/10
f 265/1/247 247/1/229 245/1/227
f 263/1/245 265/1/247 245/1/227
f 266/1/248 264/1/246 246/1/228
f 248/1/230 266/1/248 246/1/228
f 267/1/249 249/1/231 247/1/229
f 265/1/247 267/1/249 247/1/229
f 268/1/250 266/1/248 248/1/230
f 250/1/232 268/1/250 248/1/230
f 269/1/251 251/1/233 249/1/231
f 267/1/249 269/1/251 249/1/231
f 270/1/252 268/1/250 250/1/232
f 252/1/234 270/1/252 250/1/232
f 236/1/235 237/1/235 255/1/253
f 236/1/235 255/1/253 254/1/253
f 270/1/254 252/1/236 251/1/236
f 269/1/254 270/1/254 251/1/236
f 271/1/255 253/1/237 254/1/238
f 272/1/256 271/1/255 254/1/238
f 274/1/258 273/1/257 255/1/239
f 256/1/240 274/1/258 255/1/239
f 275/1/259 257/1/241 253/1/237
f 271/1/255 275/1/259 253/1/237
f 276/1/260 274/1/258 256/1/240
f 258/1/242 276/1/260 256/1/240
f 277/1/261 259/1/243 257/1/241
f 275/1/259 277/1/261 257/1/241
f 278/1/262 276/1/260 258/1/242
f 260/1/244 278/1/262 258/1/242
f 279/1/9 261/1/9 259/1/243
f 277/1/261 279/1/9 259/1/243
f 280/1/10 278/1/262 260/1/244
f 262/1/10 280/1/10 260/1/244
f 281/1/263 263/1/245 261/1/9
f 279/1/9 281/1/263 261/1/9
f 282/1/264 280/1/10 262/1/10
f 264/1/246 282/1/264 262/1/10
f 283/1/265 265/1/247 263/1/245
f 281/1/263 283/1/265 263/1/245
f 284/1/266 282/1/264 264/1/246
f 266/1/248 284/1/266 264/1/246
f 285/1/267 267/1/249 265/1/247
f 283/1/265 285/1/267 265/1/247
f 286/1/268 284/1/266 266/1/248
f 268/1/250 286/1/268 266/1/248
f 287/1/269 269/1/251 267/1/249
f 285/1/267 287/1/269 267/1/249
f 288/1/270 286/1/268 268/1/250
f 270/1/252 288/1/270 268/1/250
f 254/1/253 255/1/253 273/1/271
f 254/1/253 273/1/271 272/1/271
f 288/1/272 270/1/254 269/1/254
f 287/1/272 288/1/272 269/1/254
f 289/1/273 271/1/255 272/1/256
f 290/1/274 289/1/273 272/1/256
f 292/1/276 291/1/275 273/1/257
f 274/1/258 292/1/276 273/1/257
f 293/1/277 275/1/259 271/1/255
f 289/1/273 293/1/277 271/1/255
f 294/1/278 292/1/276 274/1/258
f 276/1/260 294/1/278 274/1/258
f 295/1/279 277/1/261 275/1/259
f 293/1/277 295/1/279 275/1/259
f 296/1/280 294/1/278 276/1/260
f 278/1/262 296/1/280 276/1/260
f 297/1/9 279/1/9 277/1/261
f 295/1/279 297/1/9 277/1/261
f 298/1/10 296/1/280 278/1/262
f 280/1/10 298/1/10 278/1/262
f 299/1/281 281/1/263 279/1/9
f 297/1/9 299/1/281 279/1/9
f 300/1/282 298/1/10 280/1/10
f 282/1/264 300/1/282 280/1/10
f 301/1/283 283/1/265 281/1/263
f 299/1/281 301/1/283 281/1/263
f 302/1/284 300/1/282 282/1/264
f 284/1/266 302/1/284 282/1/264
f 303/1/285 285/1/267 283/1/265
f 301/1/283 303/1/285 283/1/265
f 304/1/286 302/1/284 284/1/266
f 286/1/268 304/1/286 284/1/266
f 305/1/287 287/1/269 285/1/267
f 303/1/285 305/1/287 285/1/267
f 306/1/288 304/1/286 286/1/268
f 288/1/270 306/1/288 286/1/268
f 272/1/271 273/1/271 291/1/289
f 272/1/271 291/1/289 290/1/289
f 306/1/290 288/1/272 287/1/272
f 305/1/290 306/1/290 287/1/272
f 307/1/291 289/1/273 290/1/274
f 308/1/292 307/1/291 290/1/274
f 310/1/294 309/1/293 291/1/275
f 292/1/276 310/1/294 291/1/275
f 311/1/295 293/1/277 289/1/273
f 307/1/291 311/1/295 289/1/273
f 312/1/296 310/1/294 292/1/276
f 294/1/278 312/1/296 292/1/276
f 313/1/297 295/1/279 293/1/277
f 311/1/295 313/1/297 293/1/277
f 314/1/298 312/1/296 294/1/278
f 296/1/280 314/1/298 294/1/278
f 315/1/9 297/1/9 295/1/279
f 313/1/297 315/1/9 295/1/279
f 316/1/10 314/1/298 296/1/280
f 298/1/10 316/1/10 296/1/280
f 317/1/299 299/1/281 297/1/9
f 315/1/9 317/1/299 297/1/9
f 318/1/300 316/1/10 298/1/10
f 300/1/282 318/1/300 298/1/10
f 319/1/301 301/1/283 299/1/281
f 317/1/299 319/1/301 299/1/281
f 320/1/302 318/1/300 300/1/282
f 302/1/284 320/1/302 300/1/282
f 321/1/303 303/1/285 301/1/283
f 319/1/301 321/1/303 301/1/283
f 322/1/304 320/1/302 302/1/284
f 304/1/286 322/1/304 302/1/284
f 323/1/305 305/1/287 303/1/285
f 321/1/303 323/1/305 303/1/285
f 324/1/306 322/1/304 304/1/286
f 306/1/288 324/1/306 304/1/286
f 290/1/289 291/1/289 309/1/307
f 290/1/289 309/1/307 308/1/307
f 324/1/308 306/1/290 305/1/290
f 323/1/308 324/1/308 305/1/290
f 8/1/309 5/1/309 1/1/309
f 2/1/309 8/1/309 1/1/309
f 12/1/309 8/1/309 2/1/309
f 9/1/309 12/1/309 2/1/309
f 16/1/309 12/1/309 9/1/309
f 13/1/309 16/1/309 9/1/309
f 20/1/309 16/1/309 13/1/309
f 17/1/309 20/1/309 13/1/309
f 24/1/309 20/1/309 17/1/309
f 21/1/309 24/1/309 17/1/309
f 28/1/309 24/1/309 21/1/309
f 25/1/309 28/1/309 21/1/309
f 32/1/309 28/1/309 25/1/309
f 29/1/309 32/1/309 25/1/309
f 36/1/309 32/1/309 29/1/309
f 33/1/309 36/1/309 29/1/309
f 308/1/310 309/1/310 310/1/310
f 308/1/310 310/1/310 307/1/310
f 307/1/310 310/1/310 312/1/310
f 307/1/310 312/1/310 311/1/310
f 311/1/310 312/1/310 314/1/310
f 311/1/310 314/1/310 313/1/310
f 313/1/310 314/1/310 316/1/310
f 313/1/310 316/1/310 315/1/310
f 315/1/310 316/1/310 318/1/310
f 315/1/310 318/1/310 317/1/310
f 317/1/310 318/1/310 320/1/310
f 317/1/310 320/1/310 319/1/310
f 319/1/310 320/1/310 322/1/310
f 319/1/310 322/1/310 321/1/310
f 321/1/310 322/1/310 324/1/310
f 321/1/310 324/1/310 323/1/310
f 327/1/309 326/1/309 325/1/309
f 328/1/309 327/1/309 325/1/309
f 331/1/311 330/1/311 329/1/311
f 332/1/311 331/1/311 329/1/311
f 332/1/19 329/1/19 328/1/19
f 325/1/19 332/1/19 328/1/19
f 330/1/20 331/1/20 326/1/20
f 327/1/20 330/1/20 326/1/20
f 329/1/9 330/1/9 327/1/9
f 328/1/9 329/1/9 327/1/9
f 331/1/10 332/1/10 325/1/10
f 326/1/10 331/1/10 325/1/10
f 335/1/309 334/1/309 333/1/309
f 336/1/309 335/1/309 333/1/309
f 339/1/311 338/1/311 337/1/311
f 340/1/311 339/1/311 337/1/311
f 340/1/19 337/1/19 336/1/19
f 333/1/19 340/1/19 336/1/19
f 338/1/20 339/1/20 334/1/20
f 335/1/20 338/1/20 334/1/20
f 337/1/9 338/1/9 335/1/9
f 336/1/9 337/1/9 335/1/9
f 339/1/10 340/1/10 333/1/10
f 334/1/10 339/1/10 333/1/10
f 343/2/309 342/2/309 341/2/309
f 344/2/309 343/2/309 341/2/309
f 347/2/311 346/2/311 345/2/311
f 348/2/311 347/2/311 345/2/311
f 348/2/19 345/2/19 344/2/19
f 341/2/19 348/2/19 344/2/19
f 346/2/20 347/2/20 342/2/20
f 343/2/20 346/2/20 342/2/20
f 345/2/9 346/2/9 343/2/9
f 344/2/9 345/2/9 343/2/9
f 347/2/10 348/2/10 341/2/10
f 342/2/10 347/2/10 341/2/10
