# Procedurally generated by dev-env-utils/scripts/gen_guardrails_box_cable.py -- do not hand edit
mtllib guardrail_cable_anchor.mtl
o guardrail_cable_anchor_inv
v 0.268926 0.000000 0.354754
v 0.268926 0.000000 0.645246
v 0.268926 0.897887 0.645246
v 0.268926 0.897887 0.354754
v 0.836708 0.000000 0.645246
v 0.836708 0.000000 0.354754
v 0.836708 0.277289 0.354754
v 0.836708 0.277289 0.645246
v 0.245819 0.448944 0.625440
v 0.245819 0.937500 0.625440
v 0.245819 0.937500 0.374560
v 0.245819 0.448944 0.374560
v 0.292033 0.448944 0.374560
v 0.292033 0.937500 0.374560
v 0.292033 0.937500 0.625440
v 0.292033 0.448944 0.625440
v 0.163292 0.588125 0.486104
v 0.414173 0.588125 0.486104
v 0.414173 0.568473 0.466452
v 0.163292 0.568473 0.466452
v 0.414173 0.540682 0.466452
v 0.163292 0.540682 0.466452
v 0.414173 0.521030 0.486104
v 0.163292 0.521030 0.486104
v 0.414173 0.521030 0.513896
v 0.163292 0.521030 0.513896
v 0.414173 0.540682 0.533548
v 0.163292 0.540682 0.533548
v 0.414173 0.568473 0.533548
v 0.163292 0.568473 0.533548
v 0.414173 0.588125 0.513896
v 0.163292 0.588125 0.513896
v 0.163292 0.554577 0.500000
v 0.163292 0.733372 0.486104
v 0.414173 0.733372 0.486104
v 0.414173 0.713720 0.466452
v 0.163292 0.713720 0.466452
v 0.414173 0.685928 0.466452
v 0.163292 0.685928 0.466452
v 0.414173 0.666276 0.486104
v 0.163292 0.666276 0.486104
v 0.414173 0.666276 0.513896
v 0.163292 0.666276 0.513896
v 0.414173 0.685928 0.533548
v 0.163292 0.685928 0.533548
v 0.414173 0.713720 0.533548
v 0.163292 0.713720 0.533548
v 0.414173 0.733372 0.513896
v 0.163292 0.733372 0.513896
v 0.163292 0.699824 0.500000
v 0.163292 0.865414 0.486104
v 0.414173 0.865414 0.486104
v 0.414173 0.845762 0.466452
v 0.163292 0.845762 0.466452
v 0.414173 0.817970 0.466452
v 0.163292 0.817970 0.466452
v 0.414173 0.798319 0.486104
v 0.163292 0.798319 0.486104
v 0.414173 0.798319 0.513896
v 0.163292 0.798319 0.513896
v 0.414173 0.817970 0.533548
v 0.163292 0.817970 0.533548
v 0.414173 0.845762 0.533548
v 0.163292 0.845762 0.533548
v 0.414173 0.865414 0.513896
v 0.163292 0.865414 0.513896
v 0.163292 0.831866 0.500000
vt 0.890625 0.125000
vt 0.890625 0.625000
vt 0.890625 0.875000
vn -1.000000 0.000000 0.000000
vn 1.000000 0.000000 0.000000
vn 0.000000 0.000000 -1.000000
vn 0.000000 0.000000 1.000000
vn 0.737805 0.675013 0.000000
vn 0.000000 -1.000000 0.000000
vn 0.000000 1.000000 0.000000
vn -0.000000 0.707107 -0.707107
vn 0.000000 -0.707107 -0.707107
vn 0.000000 -0.707107 0.707107
vn -0.000000 0.707107 0.707107
usemtl body
f 1/1/1 2/1/1 3/1/1
f 1/1/1 3/1/1 4/1/1
f 5/1/2 6/1/2 7/1/2
f 5/1/2 7/1/2 8/1/2
f 4/1/3 7/1/3 6/1/3
f 4/1/3 6/1/3 1/1/3
f 8/1/4 3/1/4 2/1/4
f 8/1/4 2/1/4 5/1/4
f 3/1/5 8/1/5 7/1/5
f 3/1/5 7/1/5 4/1/5
f 1/1/6 6/1/6 5/1/6
f 1/1/6 5/1/6 2/1/6
f 9/2/1 10/2/1 11/2/1
f 9/2/1 11/2/1 12/2/1
f 13/2/2 14/2/2 15/2/2
f 13/2/2 15/2/2 16/2/2
f 12/2/6 13/2/6 16/2/6
f 12/2/6 16/2/6 9/2/6
f 10/2/7 15/2/7 14/2/7
f 10/2/7 14/2/7 11/2/7
f 11/2/3 14/2/3 13/2/3
f 11/2/3 13/2/3 12/2/3
f 9/2/4 16/2/4 15/2/4
f 9/2/4 15/2/4 10/2/4
f 17/3/8 18/3/8 19/3/8
f 17/3/8 19/3/8 20/3/8
f 20/3/3 19/3/3 21/3/3
f 20/3/3 21/3/3 22/3/3
f 22/3/9 21/3/9 23/3/9
f 22/3/9 23/3/9 24/3/9
f 24/3/6 23/3/6 25/3/6
f 24/3/6 25/3/6 26/3/6
f 26/3/10 25/3/10 27/3/10
f 26/3/10 27/3/10 28/3/10
f 28/3/4 27/3/4 29/3/4
f 28/3/4 29/3/4 30/3/4
f 30/3/11 29/3/11 31/3/11
f 30/3/11 31/3/11 32/3/11
f 32/3/7 31/3/7 18/3/7
f 32/3/7 18/3/7 17/3/7
f 33/3/1 17/3/1 20/3/1
f 33/3/1 20/3/1 22/3/1
f 33/3/1 22/3/1 24/3/1
f 33/3/1 24/3/1 26/3/1
f 33/3/1 26/3/1 28/3/1
f 33/3/1 28/3/1 30/3/1
f 33/3/1 30/3/1 32/3/1
f 33/3/1 32/3/1 17/3/1
f 34/3/8 35/3/8 36/3/8
f 34/3/8 36/3/8 37/3/8
f 37/3/3 36/3/3 38/3/3
f 37/3/3 38/3/3 39/3/3
f 39/3/9 38/3/9 40/3/9
f 39/3/9 40/3/9 41/3/9
f 41/3/6 40/3/6 42/3/6
f 41/3/6 42/3/6 43/3/6
f 43/3/10 42/3/10 44/3/10
f 43/3/10 44/3/10 45/3/10
f 45/3/4 44/3/4 46/3/4
f 45/3/4 46/3/4 47/3/4
f 47/3/11 46/3/11 48/3/11
f 47/3/11 48/3/11 49/3/11
f 49/3/7 48/3/7 35/3/7
f 49/3/7 35/3/7 34/3/7
f 50/3/1 34/3/1 37/3/1
f 50/3/1 37/3/1 39/3/1
f 50/3/1 39/3/1 41/3/1
f 50/3/1 41/3/1 43/3/1
f 50/3/1 43/3/1 45/3/1
f 50/3/1 45/3/1 47/3/1
f 50/3/1 47/3/1 49/3/1
f 50/3/1 49/3/1 34/3/1
f 51/3/8 52/3/8 53/3/8
f 51/3/8 53/3/8 54/3/8
f 54/3/3 53/3/3 55/3/3
f 54/3/3 55/3/3 56/3/3
f 56/3/9 55/3/9 57/3/9
f 56/3/9 57/3/9 58/3/9
f 58/3/6 57/3/6 59/3/6
f 58/3/6 59/3/6 60/3/6
f 60/3/10 59/3/10 61/3/10
f 60/3/10 61/3/10 62/3/10
f 62/3/4 61/3/4 63/3/4
f 62/3/4 63/3/4 64/3/4
f 64/3/11 63/3/11 65/3/11
f 64/3/11 65/3/11 66/3/11
f 66/3/7 65/3/7 52/3/7
f 66/3/7 52/3/7 51/3/7
f 67/3/1 51/3/1 54/3/1
f 67/3/1 54/3/1 56/3/1
f 67/3/1 56/3/1 58/3/1
f 67/3/1 58/3/1 60/3/1
f 67/3/1 60/3/1 62/3/1
f 67/3/1 62/3/1 64/3/1
f 67/3/1 64/3/1 66/3/1
f 67/3/1 66/3/1 51/3/1
