# Procedurally generated by dev-env-utils/scripts/gen_guardrails_box_cable.py -- do not hand edit
mtllib guardrail_end_bullnose_box.mtl
o guardrail_end_bullnose_box_inv
v 0.202524 0.564904 0.157452
v 0.421060 0.564904 0.157477
v 0.416680 0.564904 0.349735
v 0.202524 0.564904 0.349760
v 0.416680 0.757212 0.349735
v 0.202524 0.757212 0.349760
v 0.421060 0.757212 0.157477
v 0.202524 0.757212 0.157452
v 0.495094 0.564904 0.166040
v 0.452302 0.564904 0.353526
v 0.452302 0.757212 0.353526
v 0.495094 0.757212 0.166040
v 0.567496 0.564904 0.191375
v 0.484057 0.564904 0.364638
v 0.484057 0.757212 0.364638
v 0.567496 0.757212 0.191375
v 0.632445 0.564904 0.232185
v 0.512544 0.564904 0.382537
v 0.512544 0.757212 0.382537
v 0.632445 0.757212 0.232185
v 0.686685 0.564904 0.286425
v 0.536333 0.564904 0.406327
v 0.536333 0.757212 0.406327
v 0.686685 0.757212 0.286425
v 0.727495 0.564904 0.351374
v 0.554232 0.564904 0.434813
v 0.554232 0.757212 0.434813
v 0.727495 0.757212 0.351374
v 0.752830 0.564904 0.423776
v 0.565344 0.564904 0.466568
v 0.565344 0.757212 0.466568
v 0.752830 0.757212 0.423776
v 0.761418 0.564904 0.500000
v 0.569111 0.564904 0.500000
v 0.569111 0.757212 0.500000
v 0.761418 0.757212 0.500000
v 0.752830 0.564904 0.576224
v 0.565344 0.564904 0.533432
v 0.565344 0.757212 0.533432
v 0.752830 0.757212 0.576224
v 0.727495 0.564904 0.648626
v 0.554232 0.564904 0.565187
v 0.554232 0.757212 0.565187
v 0.727495 0.757212 0.648626
v 0.686685 0.564904 0.713575
v 0.536333 0.564904 0.593673
v 0.536333 0.757212 0.593673
v 0.686685 0.757212 0.713575
v 0.632445 0.564904 0.767815
v 0.512544 0.564904 0.617463
v 0.512544 0.757212 0.617463
v 0.632445 0.757212 0.767815
v 0.567496 0.564904 0.808625
v 0.484057 0.564904 0.635362
v 0.484057 0.757212 0.635362
v 0.567496 0.757212 0.808625
v 0.495094 0.564904 0.833960
v 0.452302 0.564904 0.646474
v 0.452302 0.757212 0.646474
v 0.495094 0.757212 0.833960
v 0.422044 0.564904 0.842496
v 0.415696 0.564904 0.650293
v 0.415696 0.757212 0.650293
v 0.422044 0.757212 0.842496
v 0.286659 0.564904 0.842548
v 0.286659 0.564904 0.650240
v 0.286659 0.757212 0.650240
v 0.286659 0.757212 0.842548
v 0.202524 0.661058 0.253606
v 0.286659 0.661058 0.746394
v 0.214543 0.000000 0.385817
v 0.214543 0.036058 0.385817
v 0.214543 0.036058 0.121394
v 0.214543 0.000000 0.121394
v 0.478966 0.000000 0.121394
v 0.478966 0.036058 0.121394
v 0.478966 0.036058 0.385817
v 0.478966 0.000000 0.385817
v 0.226563 0.036058 0.373798
v 0.226563 0.588942 0.373798
v 0.226563 0.588942 0.133413
v 0.226563 0.036058 0.133413
v 0.466947 0.036058 0.133413
v 0.466947 0.588942 0.133413
v 0.466947 0.588942 0.373798
v 0.466947 0.036058 0.373798
v 0.214543 0.000000 0.878606
v 0.214543 0.036058 0.878606
v 0.214543 0.036058 0.614183
v 0.214543 0.000000 0.614183
v 0.478966 0.000000 0.614183
v 0.478966 0.036058 0.614183
v 0.478966 0.036058 0.878606
v 0.478966 0.000000 0.878606
v 0.226563 0.036058 0.866587
v 0.226563 0.588942 0.866587
v 0.226563 0.588942 0.626202
v 0.226563 0.036058 0.626202
v 0.466947 0.036058 0.626202
v 0.466947 0.588942 0.626202
v 0.466947 0.588942 0.866587
v 0.466947 0.036058 0.866587
v 0.533053 0.000000 0.632212
v 0.533053 0.036058 0.632212
v 0.533053 0.036058 0.367788
v 0.533053 0.000000 0.367788
v 0.797476 0.000000 0.367788
v 0.797476 0.036058 0.367788
v 0.797476 0.036058 0.632212
v 0.797476 0.000000 0.632212
v 0.545072 0.036058 0.620192
v 0.545072 0.588942 0.620192
v 0.545072 0.588942 0.379808
v 0.545072 0.036058 0.379808
v 0.785457 0.036058 0.379808
v 0.785457 0.588942 0.379808
v 0.785457 0.588942 0.620192
v 0.785457 0.036058 0.620192
v 0.647236 0.709135 0.596154
v 0.647236 0.937500 0.596154
v 0.647236 0.937500 0.403846
v 0.647236 0.709135 0.403846
v 0.683293 0.709135 0.403846
v 0.683293 0.937500 0.403846
v 0.683293 0.937500 0.596154
v 0.683293 0.709135 0.596154
vt 0.890625 0.125000
vt 0.890625 0.375000
vt 0.890625 0.625000
vt 0.890625 0.875000
vn -0.000000 -1.000000 0.000000
vn -0.000000 -0.000000 1.000000
vn -0.000000 1.000000 0.000000
vn 0.000000 -0.000000 -1.000000
vn -0.022775 -0.000000 0.999741
vn 0.022775 -0.000000 -0.999741
vn -0.222521 -0.000000 0.974928
vn 0.222521 -0.000000 -0.974928
vn -0.433884 -0.000000 0.900969
vn 0.433884 -0.000000 -0.900969
vn -0.623490 -0.000000 0.781831
vn 0.623490 -0.000000 -0.781831
vn -0.781831 -0.000000 0.623490
vn 0.781831 -0.000000 -0.623490
vn -0.900969 -0.000000 0.433884
vn 0.900969 -0.000000 -0.433884
vn -0.974928 -0.000000 0.222521
vn 0.974928 -0.000000 -0.222521
vn -1.000000 -0.000000 0.000000
vn 1.000000 -0.000000 -0.000000
vn -0.974928 -0.000000 -0.222521
vn 0.974928 -0.000000 0.222521
vn -0.900969 -0.000000 -0.433884
vn 0.900969 -0.000000 0.433884
vn -0.781831 -0.000000 -0.623490
vn 0.781831 -0.000000 0.623490
vn -0.623490 -0.000000 -0.781831
vn 0.623490 -0.000000 0.781831
vn -0.433884 -0.000000 -0.900969
vn 0.433884 -0.000000 0.900969
vn -0.222521 -0.000000 -0.974928
vn 0.222521 -0.000000 0.974928
vn -0.033010 -0.000000 -0.999455
vn 0.033010 -0.000000 0.999455
usemtl body
f 1/1/1 2/1/1 3/1/1
f 1/1/1 3/1/1 4/1/1
f 4/1/2 3/1/2 5/1/2
f 4/1/2 5/1/2 6/1/2
f 6/1/3 5/1/3 7/1/3
f 6/1/3 7/1/3 8/1/3
f 8/1/4 7/1/4 2/1/4
f 8/1/4 2/1/4 1/1/4
f 2/1/1 9/1/1 10/1/1
f 2/1/1 10/1/1 3/1/1
f 3/1/5 10/1/5 11/1/5
f 3/1/5 11/1/5 5/1/5
f 5/1/3 11/1/3 12/1/3
f 5/1/3 12/1/3 7/1/3
f 7/1/6 12/1/6 9/1/6
f 7/1/6 9/1/6 2/1/6
f 9/1/1 13/1/1 14/1/1
f 9/1/1 14/1/1 10/1/1
f 10/1/7 14/1/7 15/1/7
f 10/1/7 15/1/7 11/1/7
f 11/1/3 15/1/3 16/1/3
f 11/1/3 16/1/3 12/1/3
f 12/1/8 16/1/8 13/1/8
f 12/1/8 13/1/8 9/1/8
f 13/1/1 17/1/1 18/1/1
f 13/1/1 18/1/1 14/1/1
f 14/1/9 18/1/9 19/1/9
f 14/1/9 19/1/9 15/1/9
f 15/1/3 19/1/3 20/1/3
f 15/1/3 20/1/3 16/1/3
f 16/1/10 20/1/10 17/1/10
f 16/1/10 17/1/10 13/1/10
f 17/1/1 21/1/1 22/1/1
f 17/1/1 22/1/1 18/1/1
f 18/1/11 22/1/11 23/1/11
f 18/1/11 23/1/11 19/1/11
f 19/1/3 23/1/3 24/1/3
f 19/1/3 24/1/3 20/1/3
f 20/1/12 24/1/12 21/1/12
f 20/1/12 21/1/12 17/1/12
f 21/1/1 25/1/1 26/1/1
f 21/1/1 26/1/1 22/1/1
f 22/1/13 26/1/13 27/1/13
f 22/1/13 27/1/13 23/1/13
f 23/1/3 27/1/3 28/1/3
f 23/1/3 28/1/3 24/1/3
f 24/1/14 28/1/14 25/1/14
f 24/1/14 25/1/14 21/1/14
f 25/1/1 29/1/1 30/1/1
f 25/1/1 30/1/1 26/1/1
f 26/1/15 30/1/15 31/1/15
f 26/1/15 31/1/15 27/1/15
f 27/1/3 31/1/3 32/1/3
f 27/1/3 32/1/3 28/1/3
f 28/1/16 32/1/16 29/1/16
f 28/1/16 29/1/16 25/1/16
f 29/1/1 33/1/1 34/1/1
f 29/1/1 34/1/1 30/1/1
f 30/1/17 34/1/17 35/1/17
f 30/1/17 35/1/17 31/1/17
f 31/1/3 35/1/3 36/1/3
f 31/1/3 36/1/3 32/1/3
f 32/1/18 36/1/18 33/1/18
f 32/1/18 33/1/18 29/1/18
f 33/1/1 37/1/1 38/1/1
f 33/1/1 38/1/1 34/1/1
f 34/1/19 38/1/19 39/1/19
f 34/1/19 39/1/19 35/1/19
f 35/1/3 39/1/3 40/1/3
f 35/1/3 40/1/3 36/1/3
f 36/1/20 40/1/20 37/1/20
f 36/1/20 37/1/20 33/1/20
f 37/1/1 41/1/1 42/1/1
f 37/1/1 42/1/1 38/1/1
f 38/1/21 42/1/21 43/1/21
f 38/1/21 43/1/21 39/1/21
f 39/1/3 43/1/3 44/1/3
f 39/1/3 44/1/3 40/1/3
f 40/1/22 44/1/22 41/1/22
f 40/1/22 41/1/22 37/1/22
f 41/1/1 45/1/1 46/1/1
f 41/1/1 46/1/1 42/1/1
f 42/1/23 46/1/23 47/1/23
f 42/1/23 47/1/23 43/1/23
f 43/1/3 47/1/3 48/1/3
f 43/1/3 48/1/3 44/1/3
f 44/1/24 48/1/24 45/1/24
f 44/1/24 45/1/24 41/1/24
f 45/1/1 49/1/1 50/1/1
f 45/1/1 50/1/1 46/1/1
f 46/1/25 50/1/25 51/1/25
f 46/1/25 51/1/25 47/1/25
f 47/1/3 51/1/3 52/1/3
f 47/1/3 52/1/3 48/1/3
f 48/1/26 52/1/26 49/1/26
f 48/1/26 49/1/26 45/1/26
f 49/1/1 53/1/1 54/1/1
f 49/1/1 54/1/1 50/1/1
f 50/1/27 54/1/27 55/1/27
f 50/1/27 55/1/27 51/1/27
f 51/1/3 55/1/3 56/1/3
f 51/1/3 56/1/3 52/1/3
f 52/1/28 56/1/28 53/1/28
f 52/1/28 53/1/28 49/1/28
f 53/1/1 57/1/1 58/1/1
f 53/1/1 58/1/1 54/1/1
f 54/1/29 58/1/29 59/1/29
f 54/1/29 59/1/29 55/1/29
f 55/1/3 59/1/3 60/1/3
f 55/1/3 60/1/3 56/1/3
f 56/1/30 60/1/30 57/1/30
f 56/1/30 57/1/30 53/1/30
f 57/1/1 61/1/1 62/1/1
f 57/1/1 62/1/1 58/1/1
f 58/1/31 62/1/31 63/1/31
f 58/1/31 63/1/31 59/1/31
f 59/1/3 63/1/3 64/1/3
f 59/1/3 64/1/3 60/1/3
f 60/1/32 64/1/32 61/1/32
f 60/1/32 61/1/32 57/1/32
f 61/1/1 65/1/1 66/1/1
f 61/1/1 66/1/1 62/1/1
f 62/1/33 66/1/33 67/1/33
f 62/1/33 67/1/33 63/1/33
f 63/1/3 67/1/3 68/1/3
f 63/1/3 68/1/3 64/1/3
f 64/1/34 68/1/34 65/1/34
f 64/1/34 65/1/34 61/1/34
f 1/1/19 4/1/19 69/1/19
f 4/1/19 6/1/19 69/1/19
f 6/1/19 8/1/19 69/1/19
f 8/1/19 1/1/19 69/1/19
f 66/1/19 65/1/19 70/1/19
f 67/1/19 66/1/19 70/1/19
f 68/1/19 67/1/19 70/1/19
f 65/1/19 68/1/19 70/1/19
f 71/2/19 72/2/19 73/2/19
f 71/2/19 73/2/19 74/2/19
f 75/2/20 76/2/20 77/2/20
f 75/2/20 77/2/20 78/2/20
f 74/2/1 75/2/1 78/2/1
f 74/2/1 78/2/1 71/2/1
f 72/2/3 77/2/3 76/2/3
f 72/2/3 76/2/3 73/2/3
f 73/2/4 76/2/4 75/2/4
f 73/2/4 75/2/4 74/2/4
f 71/2/2 78/2/2 77/2/2
f 71/2/2 77/2/2 72/2/2
f 79/3/19 80/3/19 81/3/19
f 79/3/19 81/3/19 82/3/19
f 83/3/20 84/3/20 85/3/20
f 83/3/20 85/3/20 86/3/20
f 82/3/1 83/3/1 86/3/1
f 82/3/1 86/3/1 79/3/1
f 80/3/3 85/3/3 84/3/3
f 80/3/3 84/3/3 81/3/3
f 81/3/4 84/3/4 83/3/4
f 81/3/4 83/3/4 82/3/4
f 79/3/2 86/3/2 85/3/2
f 79/3/2 85/3/2 80/3/2
f 87/2/19 88/2/19 89/2/19
f 87/2/19 89/2/19 90/2/19
f 91/2/20 92/2/20 93/2/20
f 91/2/20 93/2/20 94/2/20
f 90/2/1 91/2/1 94/2/1
f 90/2/1 94/2/1 87/2/1
f 88/2/3 93/2/3 92/2/3
f 88/2/3 92/2/3 89/2/3
f 89/2/4 92/2/4 91/2/4
f 89/2/4 91/2/4 90/2/4
f 87/2/2 94/2/2 93/2/2
f 87/2/2 93/2/2 88/2/2
f 95/3/19 96/3/19 97/3/19
f 95/3/19 97/3/19 98/3/19
f 99/3/20 100/3/20 101/3/20
f 99/3/20 101/3/20 102/3/20
f 98/3/1 99/3/1 102/3/1
f 98/3/1 102/3/1 95/3/1
f 96/3/3 101/3/3 100/3/3
f 96/3/3 100/3/3 97/3/3
f 97/3/4 100/3/4 99/3/4
f 97/3/4 99/3/4 98/3/4
f 95/3/2 102/3/2 101/3/2
f 95/3/2 101/3/2 96/3/2
f 103/2/19 104/2/19 105/2/19
f 103/2/19 105/2/19 106/2/19
f 107/2/20 108/2/20 109/2/20
f 107/2/20 109/2/20 110/2/20
f 106/2/1 107/2/1 110/2/1
f 106/2/1 110/2/1 103/2/1
f 104/2/3 109/2/3 108/2/3
f 104/2/3 108/2/3 105/2/3
f 105/2/4 108/2/4 107/2/4
f 105/2/4 107/2/4 106/2/4
f 103/2/2 110/2/2 109/2/2
f 103/2/2 109/2/2 104/2/2
f 111/3/19 112/3/19 113/3/19
f 111/3/19 113/3/19 114/3/19
f 115/3/20 116/3/20 117/3/20
f 115/3/20 117/3/20 118/3/20
f 114/3/1 115/3/1 118/3/1
f 114/3/1 118/3/1 111/3/1
f 112/3/3 117/3/3 116/3/3
f 112/3/3 116/3/3 113/3/3
f 113/3/4 116/3/4 115/3/4
f 113/3/4 115/3/4 114/3/4
f 111/3/2 118/3/2 117/3/2
f 111/3/2 117/3/2 112/3/2
f 119/4/19 120/4/19 121/4/19
f 119/4/19 121/4/19 122/4/19
f 123/4/20 124/4/20 125/4/20
f 123/4/20 125/4/20 126/4/20
f 122/4/1 123/4/1 126/4/1
f 122/4/1 126/4/1 119/4/1
f 120/4/3 125/4/3 124/4/3
f 120/4/3 124/4/3 121/4/3
f 121/4/4 124/4/4 123/4/4
f 121/4/4 123/4/4 122/4/4
f 119/4/2 126/4/2 125/4/2
f 119/4/2 125/4/2 120/4/2
