# Procedurally generated by dev-env-utils/scripts/gen_guardrail_ends.py -- do not hand edit
mtllib guardrail_end_turndown.mtl
o guardrail_end_turndown
v 0.000000 0.387500 0.150000
v 0.000000 0.443750 0.068750
v 0.044118 0.443750 0.068750
v 0.044118 0.387500 0.150000
v 0.000000 0.387500 0.250000
v 0.044118 0.387500 0.250000
v 0.044118 0.443750 0.168750
v 0.000000 0.443750 0.168750
v 0.000000 0.487500 0.050000
v 0.044118 0.487500 0.050000
v 0.044118 0.487500 0.150000
v 0.000000 0.487500 0.150000
v 0.000000 0.525000 0.068750
v 0.044118 0.525000 0.068750
v 0.044118 0.525000 0.168750
v 0.000000 0.525000 0.168750
v 0.000000 0.543750 0.140625
v 0.044118 0.543750 0.140625
v 0.044118 0.543750 0.240625
v 0.000000 0.543750 0.240625
v 0.000000 0.562500 0.068750
v 0.044118 0.562500 0.068750
v 0.044118 0.562500 0.168750
v 0.000000 0.562500 0.168750
v 0.000000 0.600000 0.050000
v 0.044118 0.600000 0.050000
v 0.044118 0.600000 0.150000
v 0.000000 0.600000 0.150000
v 0.000000 0.643750 0.068750
v 0.044118 0.643750 0.068750
v 0.044118 0.643750 0.168750
v 0.000000 0.643750 0.168750
v 0.000000 0.700000 0.150000
v 0.044118 0.700000 0.150000
v 0.044118 0.700000 0.250000
v 0.000000 0.700000 0.250000
v 0.088789 0.443747 0.068750
v 0.088235 0.387500 0.150000
v 0.088235 0.387500 0.250000
v 0.088789 0.443747 0.168750
v 0.089220 0.487495 0.050000
v 0.089220 0.487495 0.150000
v 0.089590 0.524993 0.068750
v 0.089590 0.524993 0.168750
v 0.089775 0.543742 0.140625
v 0.089775 0.543742 0.240625
v 0.089959 0.562492 0.068750
v 0.089959 0.562492 0.168750
v 0.090329 0.599990 0.050000
v 0.090329 0.599990 0.150000
v 0.090760 0.643738 0.068750
v 0.090760 0.643738 0.168750
v 0.091314 0.699985 0.150000
v 0.091314 0.699985 0.250000
v 0.135015 0.442818 0.068750
v 0.132353 0.386631 0.150000
v 0.132353 0.386631 0.250000
v 0.135015 0.442818 0.168750
v 0.137085 0.486519 0.050000
v 0.137085 0.486519 0.150000
v 0.138859 0.523977 0.068750
v 0.138859 0.523977 0.168750
v 0.139746 0.542706 0.140625
v 0.139746 0.542706 0.240625
v 0.140633 0.561435 0.068750
v 0.140633 0.561435 0.168750
v 0.142408 0.598893 0.050000
v 0.142408 0.598893 0.150000
v 0.144478 0.642594 0.068750
v 0.144478 0.642594 0.168750
v 0.147140 0.698781 0.150000
v 0.147140 0.698781 0.250000
v 0.182481 0.439248 0.068750
v 0.176471 0.383320 0.150000
v 0.176471 0.383320 0.250000
v 0.182481 0.439248 0.168750
v 0.187156 0.482748 0.050000
v 0.187156 0.482748 0.150000
v 0.191163 0.520033 0.068750
v 0.191163 0.520033 0.168750
v 0.193167 0.538676 0.140625
v 0.193167 0.538676 0.240625
v 0.195170 0.557318 0.068750
v 0.195170 0.557318 0.168750
v 0.199177 0.594604 0.050000
v 0.199177 0.594604 0.150000
v 0.203852 0.638103 0.068750
v 0.203852 0.638103 0.168750
v 0.209863 0.694031 0.150000
v 0.209863 0.694031 0.250000
v 0.230296 0.432554 0.068750
v 0.220588 0.377148 0.150000
v 0.220588 0.377148 0.250000
v 0.230296 0.432554 0.168750
v 0.237846 0.475648 0.050000
v 0.237846 0.475648 0.150000
v 0.244317 0.512585 0.068750
v 0.244317 0.512585 0.168750
v 0.247553 0.531054 0.140625
v 0.247553 0.531054 0.240625
v 0.250789 0.549522 0.068750
v 0.250789 0.549522 0.168750
v 0.257260 0.586460 0.050000
v 0.257260 0.586460 0.150000
v 0.264810 0.629553 0.068750
v 0.264810 0.629553 0.168750
v 0.274518 0.684959 0.150000
v 0.274518 0.684959 0.250000
v 0.278243 0.422458 0.068750
v 0.264706 0.367861 0.150000
v 0.264706 0.367861 0.250000
v 0.278243 0.422458 0.168750
v 0.288771 0.464922 0.050000
v 0.288771 0.464922 0.150000
v 0.297795 0.501320 0.068750
v 0.297795 0.501320 0.168750
v 0.302308 0.519519 0.140625
v 0.302308 0.519519 0.240625
v 0.306820 0.537718 0.068750
v 0.306820 0.537718 0.168750
v 0.315844 0.574116 0.050000
v 0.315844 0.574116 0.150000
v 0.326373 0.616580 0.068750
v 0.326373 0.616580 0.168750
v 0.339909 0.671177 0.150000
v 0.339909 0.671177 0.250000
v 0.326188 0.408774 0.068750
v 0.308824 0.355271 0.150000
v 0.308824 0.355271 0.250000
v 0.326188 0.408774 0.168750
v 0.339693 0.450387 0.050000
v 0.339693 0.450387 0.150000
v 0.351270 0.486056 0.068750
v 0.351270 0.486056 0.168750
v 0.357058 0.503890 0.140625
v 0.357058 0.503890 0.240625
v 0.362846 0.521724 0.068750
v 0.362846 0.521724 0.168750
v 0.374422 0.557392 0.050000
v 0.374422 0.557392 0.150000
v 0.387928 0.599006 0.068750
v 0.387928 0.599006 0.168750
v 0.405292 0.652508 0.150000
v 0.405292 0.652508 0.250000
v 0.374028 0.391372 0.068750
v 0.352941 0.339224 0.150000
v 0.352941 0.339224 0.250000
v 0.374028 0.391372 0.168750
v 0.390429 0.431932 0.050000
v 0.390429 0.431932 0.150000
v 0.404488 0.466697 0.068750
v 0.404488 0.466697 0.168750
v 0.411517 0.484079 0.140625
v 0.411517 0.484079 0.240625
v 0.418546 0.501462 0.068750
v 0.418546 0.501462 0.168750
v 0.432604 0.536227 0.050000
v 0.432604 0.536227 0.150000
v 0.449005 0.576787 0.068750
v 0.449005 0.576787 0.168750
v 0.470092 0.628934 0.150000
v 0.470092 0.628934 0.250000
v 0.421685 0.370164 0.068750
v 0.397059 0.319591 0.150000
v 0.397059 0.319591 0.250000
v 0.421685 0.370164 0.168750
v 0.440839 0.409498 0.050000
v 0.440839 0.409498 0.150000
v 0.457257 0.443213 0.068750
v 0.457257 0.443213 0.168750
v 0.465466 0.460071 0.140625
v 0.465466 0.460071 0.240625
v 0.473675 0.476928 0.068750
v 0.473675 0.476928 0.168750
v 0.490092 0.510643 0.050000
v 0.490092 0.510643 0.150000
v 0.509246 0.549978 0.068750
v 0.509246 0.549978 0.168750
v 0.533873 0.600551 0.150000
v 0.533873 0.600551 0.250000
v 0.469104 0.345085 0.068750
v 0.441176 0.296258 0.150000
v 0.441176 0.296258 0.250000
v 0.469104 0.345085 0.168750
v 0.490825 0.383062 0.050000
v 0.490825 0.383062 0.150000
v 0.509444 0.415614 0.068750
v 0.509444 0.415614 0.168750
v 0.518753 0.431890 0.140625
v 0.518753 0.431890 0.240625
v 0.528062 0.448166 0.068750
v 0.528062 0.448166 0.168750
v 0.546680 0.480717 0.050000
v 0.546680 0.480717 0.150000
v 0.568401 0.518694 0.068750
v 0.568401 0.518694 0.168750
v 0.596329 0.567522 0.150000
v 0.596329 0.567522 0.250000
v 0.516251 0.316089 0.068750
v 0.485294 0.269124 0.150000
v 0.485294 0.269124 0.250000
v 0.516251 0.316089 0.168750
v 0.540329 0.352618 0.050000
v 0.540329 0.352618 0.150000
v 0.560967 0.383928 0.068750
v 0.560967 0.383928 0.168750
v 0.571286 0.399583 0.140625
v 0.571286 0.399583 0.240625
v 0.581605 0.415238 0.068750
v 0.581605 0.415238 0.168750
v 0.602243 0.446548 0.050000
v 0.602243 0.446548 0.150000
v 0.626320 0.483076 0.068750
v 0.626320 0.483076 0.168750
v 0.657277 0.530042 0.150000
v 0.657277 0.530042 0.250000
v 0.563113 0.283134 0.068750
v 0.529412 0.238098 0.150000
v 0.529412 0.238098 0.250000
v 0.563113 0.283134 0.168750
v 0.589325 0.318163 0.050000
v 0.589325 0.318163 0.150000
v 0.611793 0.348187 0.068750
v 0.611793 0.348187 0.168750
v 0.623027 0.363199 0.140625
v 0.623027 0.363199 0.240625
v 0.634260 0.378211 0.068750
v 0.634260 0.378211 0.168750
v 0.656728 0.408236 0.050000
v 0.656728 0.408236 0.150000
v 0.682940 0.443264 0.068750
v 0.682940 0.443264 0.168750
v 0.716641 0.488300 0.150000
v 0.716641 0.488300 0.250000
v 0.609691 0.246182 0.068750
v 0.573529 0.203096 0.150000
v 0.573529 0.203096 0.250000
v 0.609691 0.246182 0.168750
v 0.637817 0.279693 0.050000
v 0.637817 0.279693 0.150000
v 0.661925 0.308417 0.068750
v 0.661925 0.308417 0.168750
v 0.673979 0.322779 0.140625
v 0.673979 0.322779 0.240625
v 0.686033 0.337141 0.068750
v 0.686033 0.337141 0.168750
v 0.710140 0.365865 0.050000
v 0.710140 0.365865 0.150000
v 0.738266 0.399376 0.068750
v 0.738266 0.399376 0.168750
v 0.774428 0.442462 0.150000
v 0.774428 0.442462 0.250000
v 0.655997 0.205193 0.068750
v 0.617647 0.164042 0.150000
v 0.617647 0.164042 0.250000
v 0.655997 0.205193 0.168750
v 0.685825 0.237198 0.050000
v 0.685825 0.237198 0.150000
v 0.711392 0.264632 0.068750
v 0.711392 0.264632 0.168750
v 0.724175 0.278348 0.140625
v 0.724175 0.278348 0.240625
v 0.736959 0.292065 0.068750
v 0.736959 0.292065 0.168750
v 0.762525 0.319498 0.050000
v 0.762525 0.319498 0.150000
v 0.792353 0.351504 0.068750
v 0.792353 0.351504 0.168750
v 0.830703 0.392654 0.150000
v 0.830703 0.392654 0.250000
v 0.702050 0.160122 0.068750
v 0.661765 0.120865 0.150000
v 0.661765 0.120865 0.250000
v 0.702050 0.160122 0.168750
v 0.733383 0.190656 0.050000
v 0.733383 0.190656 0.150000
v 0.760240 0.216827 0.068750
v 0.760240 0.216827 0.168750
v 0.773669 0.229913 0.140625
v 0.773669 0.229913 0.240625
v 0.787097 0.242999 0.068750
v 0.787097 0.242999 0.168750
v 0.813954 0.269171 0.050000
v 0.813954 0.269171 0.150000
v 0.845287 0.299704 0.068750
v 0.845287 0.299704 0.168750
v 0.885573 0.338962 0.150000
v 0.885573 0.338962 0.250000
v 0.747873 0.110925 0.068750
v 0.705882 0.073497 0.150000
v 0.705882 0.073497 0.250000
v 0.747873 0.110925 0.168750
v 0.780532 0.140036 0.050000
v 0.780532 0.140036 0.150000
v 0.808525 0.164988 0.068750
v 0.808525 0.164988 0.168750
v 0.822522 0.177464 0.140625
v 0.822522 0.177464 0.240625
v 0.836519 0.189940 0.068750
v 0.836519 0.189940 0.168750
v 0.864512 0.214893 0.050000
v 0.864512 0.214893 0.150000
v 0.897171 0.244003 0.068750
v 0.897171 0.244003 0.168750
v 0.939162 0.281432 0.150000
v 0.939162 0.281432 0.250000
v 0.792761 0.058420 0.068750
v 0.750000 0.021875 0.150000
v 0.750000 0.021875 0.250000
v 0.792761 0.058420 0.168750
v 0.826020 0.086844 0.050000
v 0.826020 0.086844 0.150000
v 0.854527 0.111208 0.068750
v 0.854527 0.111208 0.168750
v 0.868781 0.123389 0.140625
v 0.868781 0.123389 0.240625
v 0.883035 0.135571 0.068750
v 0.883035 0.135571 0.168750
v 0.911542 0.159934 0.050000
v 0.911542 0.159934 0.150000
v 0.944801 0.188358 0.068750
v 0.944801 0.188358 0.168750
v 0.987562 0.224904 0.150000
v 0.987562 0.224904 0.250000
v 0.050000 0.373129 0.400000
v 0.050000 0.710629 0.400000
v 0.050000 0.710629 0.250000
v 0.050000 0.373129 0.250000
v 0.250000 0.373129 0.250000
v 0.250000 0.710629 0.250000
v 0.250000 0.710629 0.400000
v 0.250000 0.373129 0.400000
v 0.025000 0.000000 0.600000
v 0.025000 0.735629 0.600000
v 0.025000 0.735629 0.375000
v 0.025000 0.000000 0.375000
v 0.275000 0.000000 0.375000
v 0.275000 0.735629 0.375000
v 0.275000 0.735629 0.600000
v 0.275000 0.000000 0.600000
v 0.662500 0.000000 0.293750
v 0.662500 0.078125 0.293750
v 0.662500 0.078125 0.018750
v 0.662500 0.000000 0.018750
v 0.962500 0.000000 0.018750
v 0.962500 0.078125 0.018750
v 0.962500 0.078125 0.293750
v 0.962500 0.000000 0.293750
vt 0.890625 0.125000
vt 0.890625 0.375000
vn 0.000000 -0.822192 -0.569210
vn 0.000000 -0.632729 -0.774374
vn -0.000000 0.822192 0.569210
vn -0.000000 0.632729 0.774374
vn 0.000000 0.029374 -0.999569
vn -0.000000 -0.029374 0.999569
vn 0.000000 0.776839 -0.629699
vn -0.000000 -0.776839 0.629699
vn 0.000000 0.000000 -1.000000
vn -0.000000 -0.000000 1.000000
vn 0.000000 -0.776839 -0.629699
vn -0.000000 0.776839 0.629699
vn 0.000000 -0.029374 -0.999569
vn -0.000000 0.029374 0.999569
vn 0.000000 0.632729 -0.774374
vn -0.000000 -0.632729 0.774374
vn 0.000000 0.822192 -0.569210
vn -0.000000 -0.822192 0.569210
vn -0.000000 -1.000000 0.000000
vn 0.000000 1.000000 -0.000000
vn -0.006234 -0.632698 -0.774374
vn -0.008100 -0.822152 -0.569210
vn 0.008100 0.822152 0.569210
vn 0.006234 0.632698 0.774374
vn 0.000289 0.029372 -0.999569
vn -0.000289 -0.029372 0.999569
vn 0.007653 0.776802 -0.629699
vn -0.007653 -0.776802 0.629699
vn -0.007653 -0.776802 -0.629699
vn 0.007653 0.776802 0.629699
vn -0.000289 -0.029372 -0.999569
vn 0.000289 0.029372 0.999569
vn 0.006234 0.632698 -0.774374
vn -0.006234 -0.632698 0.774374
vn 0.008100 0.822152 -0.569210
vn -0.008100 -0.822152 0.569210
vn -0.009852 -0.999951 -0.000000
vn 0.009852 0.999951 0.000000
vn -0.029939 -0.632020 -0.774374
vn -0.038904 -0.821271 -0.569210
vn 0.038904 0.821271 0.569210
vn 0.029939 0.632020 0.774374
vn 0.001390 0.029341 -0.999569
vn -0.001390 -0.029341 0.999569
vn 0.036758 0.775969 -0.629699
vn -0.036758 -0.775969 0.629699
vn -0.036758 -0.775969 -0.629699
vn 0.036758 0.775969 0.629699
vn -0.001390 -0.029341 -0.999569
vn 0.001390 0.029341 0.999569
vn 0.029939 0.632020 -0.774374
vn -0.029939 -0.632020 0.774374
vn 0.038904 0.821271 -0.569210
vn -0.038904 -0.821271 0.569210
vn -0.047317 -0.998880 -0.000000
vn 0.047317 0.998880 0.000000
vn -0.067611 -0.629106 -0.774374
vn -0.087856 -0.817485 -0.569210
vn 0.087856 0.817485 0.569210
vn 0.067611 0.629106 0.774374
vn 0.003139 0.029206 -0.999569
vn -0.003139 -0.029206 0.999569
vn 0.083010 0.772392 -0.629699
vn -0.083010 -0.772392 0.629699
vn -0.083010 -0.772392 -0.629699
vn 0.083010 0.772392 0.629699
vn -0.003139 -0.029206 -0.999569
vn 0.003139 0.029206 0.999569
vn 0.067611 0.629106 -0.774374
vn -0.067611 -0.629106 0.774374
vn 0.087856 0.817485 -0.569210
vn -0.087856 -0.817485 0.569210
vn -0.106856 -0.994275 -0.000000
vn 0.106856 0.994275 0.000000
vn -0.109193 -0.623235 -0.774374
vn -0.141889 -0.809856 -0.569210
vn 0.141889 0.809856 0.569210
vn 0.109193 0.623235 0.774374
vn 0.005069 0.028933 -0.999569
vn -0.005069 -0.028933 0.999569
vn 0.134063 0.765184 -0.629699
vn -0.134063 -0.765184 0.629699
vn -0.134063 -0.765184 -0.629699
vn 0.134063 0.765184 0.629699
vn -0.005069 -0.028933 -0.999569
vn 0.005069 0.028933 0.999569
vn 0.109193 0.623235 -0.774374
vn -0.109193 -0.623235 0.774374
vn 0.141889 0.809856 -0.569210
vn -0.141889 -0.809856 0.569210
vn -0.172574 -0.984996 -0.000000
vn 0.172574 0.984996 0.000000
vn -0.152267 -0.614134 -0.774374
vn -0.197862 -0.798029 -0.569210
vn 0.197862 0.798029 0.569210
vn 0.152267 0.614134 0.774374
vn 0.007069 0.028510 -0.999569
vn -0.007069 -0.028510 0.999569
vn 0.186947 0.754009 -0.629699
vn -0.186947 -0.754009 0.629699
vn -0.186947 -0.754009 -0.629699
vn 0.186947 0.754009 0.629699
vn -0.007069 -0.028510 -0.999569
vn 0.007069 0.028510 0.999569
vn 0.152267 0.614134 -0.774374
vn -0.152267 -0.614134 0.774374
vn 0.197862 0.798029 -0.569210
vn -0.197862 -0.798029 0.569210
vn -0.240651 -0.970612 -0.000000
vn 0.240651 0.970612 0.000000
vn -0.195323 -0.601826 -0.774374
vn -0.253810 -0.782036 -0.569210
vn 0.253810 0.782036 0.569210
vn 0.195323 0.601826 0.774374
vn 0.009068 0.027939 -0.999569
vn -0.009068 -0.027939 0.999569
vn 0.239810 0.738898 -0.629699
vn -0.239810 -0.738898 0.629699
vn -0.239810 -0.738898 -0.629699
vn 0.239810 0.738898 0.629699
vn -0.009068 -0.027939 -0.999569
vn 0.009068 0.027939 0.999569
vn 0.195323 0.601826 -0.774374
vn -0.195323 -0.601826 0.774374
vn 0.253810 0.782036 -0.569210
vn -0.253810 -0.782036 0.569210
vn -0.308699 -0.951160 -0.000000
vn 0.308699 0.951160 0.000000
vn -0.237199 -0.586585 -0.774374
vn -0.308226 -0.762232 -0.569210
vn 0.308226 0.762232 0.569210
vn 0.237199 0.586585 0.774374
vn 0.011012 0.027232 -0.999569
vn -0.011012 -0.027232 0.999569
vn 0.291224 0.720186 -0.629699
vn -0.291224 -0.720186 0.629699
vn -0.291224 -0.720186 -0.629699
vn 0.291224 0.720186 0.629699
vn -0.011012 -0.027232 -0.999569
vn 0.011012 0.027232 0.999569
vn 0.237199 0.586585 -0.774374
vn -0.237199 -0.586585 0.774374
vn 0.308226 0.762232 -0.569210
vn -0.308226 -0.762232 0.569210
vn -0.374883 -0.927072 -0.000000
vn 0.374883 0.927072 0.000000
vn -0.277012 -0.568867 -0.774374
vn -0.359960 -0.739208 -0.569210
vn 0.359960 0.739208 0.569210
vn 0.277012 0.568867 0.774374
vn 0.012860 0.026409 -0.999569
vn -0.012860 -0.026409 0.999569
vn 0.340104 0.698433 -0.629699
vn -0.340104 -0.698433 0.629699
vn -0.340104 -0.698433 -0.629699
vn 0.340104 0.698433 0.629699
vn -0.012860 -0.026409 -0.999569
vn 0.012860 0.026409 0.999569
vn 0.277012 0.568867 -0.774374
vn -0.277012 -0.568867 0.774374
vn 0.359960 0.739208 -0.569210
vn -0.359960 -0.739208 0.569210
vn -0.437805 -0.899070 -0.000000
vn 0.437805 0.899070 0.000000
vn -0.314142 -0.549236 -0.774374
vn -0.408208 -0.713699 -0.569210
vn 0.408208 0.713699 0.569210
vn 0.314142 0.549236 0.774374
vn 0.014584 0.025498 -0.999569
vn -0.014584 -0.025498 0.999569
vn 0.385691 0.674331 -0.629699
vn -0.385691 -0.674331 0.629699
vn -0.385691 -0.674331 -0.629699
vn 0.385691 0.674331 0.629699
vn -0.014584 -0.025498 -0.999569
vn 0.014584 0.025498 0.999569
vn 0.314142 0.549236 -0.774374
vn -0.314142 -0.549236 0.774374
vn 0.408208 0.713699 -0.569210
vn -0.408208 -0.713699 0.569210
vn -0.496488 -0.868044 -0.000000
vn 0.496488 0.868044 0.000000
vn -0.348220 -0.528288 -0.774374
vn -0.452491 -0.686478 -0.569210
vn 0.452491 0.686478 0.569210
vn 0.348220 0.528288 0.774374
vn 0.016166 0.024525 -0.999569
vn -0.016166 -0.024525 0.999569
vn 0.427531 0.648611 -0.629699
vn -0.427531 -0.648611 0.629699
vn -0.427531 -0.648611 -0.629699
vn 0.427531 0.648611 0.629699
vn -0.016166 -0.024525 -0.999569
vn 0.016166 0.024525 0.999569
vn 0.348220 0.528288 -0.774374
vn -0.348220 -0.528288 0.774374
vn 0.452491 0.686478 -0.569210
vn -0.452491 -0.686478 0.569210
vn -0.550347 -0.834936 -0.000000
vn 0.550347 0.834936 0.000000
vn -0.379090 -0.506593 -0.774374
vn -0.492604 -0.658287 -0.569210
vn 0.492604 0.658287 0.569210
vn 0.379090 0.506593 0.774374
vn 0.017599 0.023518 -0.999569
vn -0.017599 -0.023518 0.999569
vn 0.465432 0.621975 -0.629699
vn -0.465432 -0.621975 0.629699
vn -0.465432 -0.621975 -0.629699
vn 0.465432 0.621975 0.629699
vn -0.017599 -0.023518 -0.999569
vn 0.017599 0.023518 0.999569
vn 0.379090 0.506593 -0.774374
vn -0.379090 -0.506593 0.774374
vn 0.492604 0.658287 -0.569210
vn -0.492604 -0.658287 0.569210
vn -0.599135 -0.800648 -0.000000
vn 0.599135 0.800648 0.000000
vn -0.406765 -0.484652 -0.774374
vn -0.528567 -0.629776 -0.569210
vn 0.528567 0.629776 0.569210
vn 0.406765 0.484652 0.774374
vn 0.018884 0.022499 -0.999569
vn -0.018884 -0.022499 0.999569
vn 0.499411 0.595037 -0.629699
vn -0.499411 -0.595037 0.629699
vn -0.499411 -0.595037 -0.629699
vn 0.499411 0.595037 0.629699
vn -0.018884 -0.022499 -0.999569
vn 0.018884 0.022499 0.999569
vn 0.406765 0.484652 -0.774374
vn -0.406765 -0.484652 0.774374
vn 0.528567 0.629776 -0.569210
vn -0.528567 -0.629776 0.569210
vn -0.642875 -0.765971 -0.000000
vn 0.642875 0.765971 0.000000
vn -0.431382 -0.462877 -0.774374
vn -0.560554 -0.601481 -0.569210
vn 0.560554 0.601481 0.569210
vn 0.431382 0.462877 0.774374
vn 0.020026 0.021489 -0.999569
vn -0.020026 -0.021489 0.999569
vn 0.529633 0.568303 -0.629699
vn -0.529633 -0.568303 0.629699
vn -0.529633 -0.568303 -0.629699
vn 0.529633 0.568303 0.629699
vn -0.020026 -0.021489 -0.999569
vn 0.020026 0.021489 0.999569
vn 0.431382 0.462877 -0.774374
vn -0.431382 -0.462877 0.774374
vn 0.560554 0.601481 -0.569210
vn -0.560554 -0.601481 0.569210
vn -0.681780 -0.731558 -0.000000
vn 0.681780 0.731558 0.000000
vn -0.453151 -0.441588 -0.774374
vn -0.588842 -0.573816 -0.569210
vn 0.588842 0.573816 0.569210
vn 0.453151 0.441588 0.774374
vn 0.021037 0.020500 -0.999569
vn -0.021037 -0.020500 0.999569
vn 0.556361 0.542164 -0.629699
vn -0.556361 -0.542164 0.629699
vn -0.556361 -0.542164 -0.629699
vn 0.556361 0.542164 0.629699
vn -0.021037 -0.020500 -0.999569
vn 0.021037 0.020500 0.999569
vn 0.453151 0.441588 -0.774374
vn -0.453151 -0.441588 0.774374
vn 0.588842 0.573816 -0.569210
vn -0.588842 -0.573816 0.569210
vn -0.716186 -0.697910 -0.000000
vn 0.716186 0.697910 0.000000
vn -0.472328 -0.421013 -0.774374
vn -0.613761 -0.547080 -0.569210
vn 0.613761 0.547080 0.569210
vn 0.472328 0.421013 0.774374
vn 0.021927 0.019545 -0.999569
vn -0.021927 -0.019545 0.999569
vn 0.579906 0.516903 -0.629699
vn -0.579906 -0.516903 0.629699
vn -0.579906 -0.516903 -0.629699
vn 0.579906 0.516903 0.629699
vn -0.021927 -0.019545 -0.999569
vn 0.021927 0.019545 0.999569
vn 0.472328 0.421013 -0.774374
vn -0.472328 -0.421013 0.774374
vn 0.613761 0.547080 -0.569210
vn -0.613761 -0.547080 0.569210
vn -0.746494 -0.665392 -0.000000
vn 0.746494 0.665392 0.000000
vn -0.480999 -0.411078 -0.774374
vn -0.625029 -0.534171 -0.569210
vn 0.625029 0.534171 0.569210
vn 0.480999 0.411078 0.774374
vn 0.022330 0.019084 -0.999569
vn -0.022330 -0.019084 0.999569
vn 0.590552 0.504706 -0.629699
vn -0.590552 -0.504706 0.629699
vn -0.590552 -0.504706 -0.629699
vn 0.590552 0.504706 0.629699
vn -0.022330 -0.019084 -0.999569
vn 0.022330 0.019084 0.999569
vn 0.480999 0.411078 -0.774374
vn -0.480999 -0.411078 0.774374
vn 0.625029 0.534171 -0.569210
vn -0.625029 -0.534171 0.569210
vn -0.760198 -0.649692 -0.000000
vn 0.760198 0.649692 0.000000
vn -1.000000 -0.000000 -0.000000
vn 0.649692 -0.760198 0.000000
vn 1.000000 0.000000 0.000000
usemtl body
f 1/1/1 2/1/2 3/1/2
f 1/1/1 3/1/2 4/1/1
f 5/1/3 6/1/3 7/1/4
f 5/1/3 7/1/4 8/1/4
f 2/1/2 9/1/5 10/1/5
f 2/1/2 10/1/5 3/1/2
f 8/1/4 7/1/4 11/1/6
f 8/1/4 11/1/6 12/1/6
f 9/1/5 13/1/7 14/1/7
f 9/1/5 14/1/7 10/1/5
f 12/1/6 11/1/6 15/1/8
f 12/1/6 15/1/8 16/1/8
f 13/1/7 17/1/9 18/1/9
f 13/1/7 18/1/9 14/1/7
f 16/1/8 15/1/8 19/1/10
f 16/1/8 19/1/10 20/1/10
f 17/1/9 21/1/11 22/1/11
f 17/1/9 22/1/11 18/1/9
f 20/1/10 19/1/10 23/1/12
f 20/1/10 23/1/12 24/1/12
f 21/1/11 25/1/13 26/1/13
f 21/1/11 26/1/13 22/1/11
f 24/1/12 23/1/12 27/1/14
f 24/1/12 27/1/14 28/1/14
f 25/1/13 29/1/15 30/1/15
f 25/1/13 30/1/15 26/1/13
f 28/1/14 27/1/14 31/1/16
f 28/1/14 31/1/16 32/1/16
f 29/1/15 33/1/17 34/1/17
f 29/1/15 34/1/17 30/1/15
f 32/1/16 31/1/16 35/1/18
f 32/1/16 35/1/18 36/1/18
f 6/1/19 5/1/19 1/1/19
f 4/1/19 6/1/19 1/1/19
f 33/1/20 36/1/20 35/1/20
f 33/1/20 35/1/20 34/1/20
f 4/1/1 3/1/2 37/1/21
f 4/1/1 37/1/21 38/1/22
f 6/1/3 39/1/23 40/1/24
f 6/1/3 40/1/24 7/1/4
f 3/1/2 10/1/5 41/1/25
f 3/1/2 41/1/25 37/1/21
f 7/1/4 40/1/24 42/1/26
f 7/1/4 42/1/26 11/1/6
f 10/1/5 14/1/7 43/1/27
f 10/1/5 43/1/27 41/1/25
f 11/1/6 42/1/26 44/1/28
f 11/1/6 44/1/28 15/1/8
f 14/1/7 18/1/9 45/1/9
f 14/1/7 45/1/9 43/1/27
f 15/1/8 44/1/28 46/1/10
f 15/1/8 46/1/10 19/1/10
f 18/1/9 22/1/11 47/1/29
f 18/1/9 47/1/29 45/1/9
f 19/1/10 46/1/10 48/1/30
f 19/1/10 48/1/30 23/1/12
f 22/1/11 26/1/13 49/1/31
f 22/1/11 49/1/31 47/1/29
f 23/1/12 48/1/30 50/1/32
f 23/1/12 50/1/32 27/1/14
f 26/1/13 30/1/15 51/1/33
f 26/1/13 51/1/33 49/1/31
f 27/1/14 50/1/32 52/1/34
f 27/1/14 52/1/34 31/1/16
f 30/1/15 34/1/17 53/1/35
f 30/1/15 53/1/35 51/1/33
f 31/1/16 52/1/34 54/1/36
f 31/1/16 54/1/36 35/1/18
f 39/1/37 6/1/19 4/1/19
f 38/1/37 39/1/37 4/1/19
f 34/1/20 35/1/20 54/1/38
f 34/1/20 54/1/38 53/1/38
f 38/1/22 37/1/21 55/1/39
f 38/1/22 55/1/39 56/1/40
f 39/1/23 57/1/41 58/1/42
f 39/1/23 58/1/42 40/1/24
f 37/1/21 41/1/25 59/1/43
f 37/1/21 59/1/43 55/1/39
f 40/1/24 58/1/42 60/1/44
f 40/1/24 60/1/44 42/1/26
f 41/1/25 43/1/27 61/1/45
f 41/1/25 61/1/45 59/1/43
f 42/1/26 60/1/44 62/1/46
f 42/1/26 62/1/46 44/1/28
f 43/1/27 45/1/9 63/1/9
f 43/1/27 63/1/9 61/1/45
f 44/1/28 62/1/46 64/1/10
f 44/1/28 64/1/10 46/1/10
f 45/1/9 47/1/29 65/1/47
f 45/1/9 65/1/47 63/1/9
f 46/1/10 64/1/10 66/1/48
f 46/1/10 66/1/48 48/1/30
f 47/1/29 49/1/31 67/1/49
f 47/1/29 67/1/49 65/1/47
f 48/1/30 66/1/48 68/1/50
f 48/1/30 68/1/50 50/1/32
f 49/1/31 51/1/33 69/1/51
f 49/1/31 69/1/51 67/1/49
f 50/1/32 68/1/50 70/1/52
f 50/1/32 70/1/52 52/1/34
f 51/1/33 53/1/35 71/1/53
f 51/1/33 71/1/53 69/1/51
f 52/1/34 70/1/52 72/1/54
f 52/1/34 72/1/54 54/1/36
f 57/1/55 39/1/37 38/1/37
f 56/1/55 57/1/55 38/1/37
f 53/1/38 54/1/38 72/1/56
f 53/1/38 72/1/56 71/1/56
f 56/1/40 55/1/39 73/1/57
f 56/1/40 73/1/57 74/1/58
f 57/1/41 75/1/59 76/1/60
f 57/1/41 76/1/60 58/1/42
f 55/1/39 59/1/43 77/1/61
f 55/1/39 77/1/61 73/1/57
f 58/1/42 76/1/60 78/1/62
f 58/1/42 78/1/62 60/1/44
f 59/1/43 61/1/45 79/1/63
f 59/1/43 79/1/63 77/1/61
f 60/1/44 78/1/62 80/1/64
f 60/1/44 80/1/64 62/1/46
f 61/1/45 63/1/9 81/1/9
f 61/1/45 81/1/9 79/1/63
f 62/1/46 80/1/64 82/1/10
f 62/1/46 82/1/10 64/1/10
f 63/1/9 65/1/47 83/1/65
f 63/1/9 83/1/65 81/1/9
f 64/1/10 82/1/10 84/1/66
f 64/1/10 84/1/66 66/1/48
f 65/1/47 67/1/49 85/1/67
f 65/1/47 85/1/67 83/1/65
f 66/1/48 84/1/66 86/1/68
f 66/1/48 86/1/68 68/1/50
f 67/1/49 69/1/51 87/1/69
f 67/1/49 87/1/69 85/1/67
f 68/1/50 86/1/68 88/1/70
f 68/1/50 88/1/70 70/1/52
f 69/1/51 71/1/53 89/1/71
f 69/1/51 89/1/71 87/1/69
f 70/1/52 88/1/70 90/1/72
f 70/1/52 90/1/72 72/1/54
f 75/1/73 57/1/55 56/1/55
f 74/1/73 75/1/73 56/1/55
f 71/1/56 72/1/56 90/1/74
f 71/1/56 90/1/74 89/1/74
f 74/1/58 73/1/57 91/1/75
f 74/1/58 91/1/75 92/1/76
f 75/1/59 93/1/77 94/1/78
f 75/1/59 94/1/78 76/1/60
f 73/1/57 77/1/61 95/1/79
f 73/1/57 95/1/79 91/1/75
f 76/1/60 94/1/78 96/1/80
f 76/1/60 96/1/80 78/1/62
f 77/1/61 79/1/63 97/1/81
f 77/1/61 97/1/81 95/1/79
f 78/1/62 96/1/80 98/1/82
f 78/1/62 98/1/82 80/1/64
f 79/1/63 81/1/9 99/1/9
f 79/1/63 99/1/9 97/1/81
f 80/1/64 98/1/82 100/1/10
f 80/1/64 100/1/10 82/1/10
f 81/1/9 83/1/65 101/1/83
f 81/1/9 101/1/83 99/1/9
f 82/1/10 100/1/10 102/1/84
f 82/1/10 102/1/84 84/1/66
f 83/1/65 85/1/67 103/1/85
f 83/1/65 103/1/85 101/1/83
f 84/1/66 102/1/84 104/1/86
f 84/1/66 104/1/86 86/1/68
f 85/1/67 87/1/69 105/1/87
f 85/1/67 105/1/87 103/1/85
f 86/1/68 104/1/86 106/1/88
f 86/1/68 106/1/88 88/1/70
f 87/1/69 89/1/71 107/1/89
f 87/1/69 107/1/89 105/1/87
f 88/1/70 106/1/88 108/1/90
f 88/1/70 108/1/90 90/1/72
f 93/1/91 75/1/73 74/1/73
f 92/1/91 93/1/91 74/1/73
f 89/1/74 90/1/74 108/1/92
f 89/1/74 108/1/92 107/1/92
f 92/1/76 91/1/75 109/1/93
f 92/1/76 109/1/93 110/1/94
f 93/1/77 111/1/95 112/1/96
f 93/1/77 112/1/96 94/1/78
f 91/1/75 95/1/79 113/1/97
f 91/1/75 113/1/97 109/1/93
f 94/1/78 112/1/96 114/1/98
f 94/1/78 114/1/98 96/1/80
f 95/1/79 97/1/81 115/1/99
f 95/1/79 115/1/99 113/1/97
f 96/1/80 114/1/98 116/1/100
f 96/1/80 116/1/100 98/1/82
f 97/1/81 99/1/9 117/1/9
f 97/1/81 117/1/9 115/1/99
f 98/1/82 116/1/100 118/1/10
f 98/1/82 118/1/10 100/1/10
f 99/1/9 101/1/83 119/1/101
f 99/1/9 119/1/101 117/1/9
f 100/1/10 118/1/10 120/1/102
f 100/1/10 120/1/102 102/1/84
f 101/1/83 103/1/85 121/1/103
f 101/1/83 121/1/103 119/1/101
f 102/1/84 120/1/102 122/1/104
f 102/1/84 122/1/104 104/1/86
f 103/1/85 105/1/87 123/1/105
f 103/1/85 123/1/105 121/1/103
f 104/1/86 122/1/104 124/1/106
f 104/1/86 124/1/106 106/1/88
f 105/1/87 107/1/89 125/1/107
f 105/1/87 125/1/107 123/1/105
f 106/1/88 124/1/106 126/1/108
f 106/1/88 126/1/108 108/1/90
f 111/1/109 93/1/91 92/1/91
f 110/1/109 111/1/109 92/1/91
f 107/1/92 108/1/92 126/1/110
f 107/1/92 126/1/110 125/1/110
f 110/1/94 109/1/93 127/1/111
f 110/1/94 127/1/111 128/1/112
f 111/1/95 129/1/113 130/1/114
f 111/1/95 130/1/114 112/1/96
f 109/1/93 113/1/97 131/1/115
f 109/1/93 131/1/115 127/1/111
f 112/1/96 130/1/114 132/1/116
f 112/1/96 132/1/116 114/1/98
f 113/1/97 115/1/99 133/1/117
f 113/1/97 133/1/117 131/1/115
f 114/1/98 132/1/116 134/1/118
f 114/1/98 134/1/118 116/1/100
f 115/1/99 117/1/9 135/1/9
f 115/1/99 135/1/9 133/1/117
f 116/1/100 134/1/118 136/1/10
f 116/1/100 136/1/10 118/1/10
f 117/1/9 119/1/101 137/1/119
f 117/1/9 137/1/119 135/1/9
f 118/1/10 136/1/10 138/1/120
f 118/1/10 138/1/120 120/1/102
f 119/1/101 121/1/103 139/1/121
f 119/1/101 139/1/121 137/1/119
f 120/1/102 138/1/120 140/1/122
f 120/1/102 140/1/122 122/1/104
f 121/1/103 123/1/105 141/1/123
f 121/1/103 141/1/123 139/1/121
f 122/1/104 140/1/122 142/1/124
f 122/1/104 142/1/124 124/1/106
f 123/1/105 125/1/107 143/1/125
f 123/1/105 143/1/125 141/1/123
f 124/1/106 142/1/124 144/1/126
f 124/1/106 144/1/126 126/1/108
f 129/1/127 111/1/109 110/1/109
f 128/1/127 129/1/127 110/1/109
f 125/1/110 126/1/110 144/1/128
f 125/1/110 144/1/128 143/1/128
f 128/1/112 127/1/111 145/1/129
f 128/1/112 145/1/129 146/1/130
f 129/1/113 147/1/131 148/1/132
f 129/1/113 148/1/132 130/1/114
f 127/1/111 131/1/115 149/1/133
f 127/1/111 149/1/133 145/1/129
f 130/1/114 148/1/132 150/1/134
f 130/1/114 150/1/134 132/1/116
f 131/1/115 133/1/117 151/1/135
f 131/1/115 151/1/135 149/1/133
f 132/1/116 150/1/134 152/1/136
f 132/1/116 152/1/136 134/1/118
f 133/1/117 135/1/9 153/1/9
f 133/1/117 153/1/9 151/1/135
f 134/1/118 152/1/136 154/1/10
f 134/1/118 154/1/10 136/1/10
f 135/1/9 137/1/119 155/1/137
f 135/1/9 155/1/137 153/1/9
f 136/1/10 154/1/10 156/1/138
f 136/1/10 156/1/138 138/1/120
f 137/1/119 139/1/121 157/1/139
f 137/1/119 157/1/139 155/1/137
f 138/1/120 156/1/138 158/1/140
f 138/1/120 158/1/140 140/1/122
f 139/1/121 141/1/123 159/1/141
f 139/1/121 159/1/141 157/1/139
f 140/1/122 158/1/140 160/1/142
f 140/1/122 160/1/142 142/1/124
f 141/1/123 143/1/125 161/1/143
f 141/1/123 161/1/143 159/1/141
f 142/1/124 160/1/142 162/1/144
f 142/1/124 162/1/144 144/1/126
f 147/1/145 129/1/127 128/1/127
f 146/1/145 147/1/145 128/1/127
f 143/1/128 144/1/128 162/1/146
f 143/1/128 162/1/146 161/1/146
f 146/1/130 145/1/129 163/1/147
f 146/1/130 163/1/147 164/1/148
f 147/1/131 165/1/149 166/1/150
f 147/1/131 166/1/150 148/1/132
f 145/1/129 149/1/133 167/1/151
f 145/1/129 167/1/151 163/1/147
f 148/1/132 166/1/150 168/1/152
f 148/1/132 168/1/152 150/1/134
f 149/1/133 151/1/135 169/1/153
f 149/1/133 169/1/153 167/1/151
f 150/1/134 168/1/152 170/1/154
f 150/1/134 170/1/154 152/1/136
f 151/1/135 153/1/9 171/1/9
f 151/1/135 171/1/9 169/1/153
f 152/1/136 170/1/154 172/1/10
f 152/1/136 172/1/10 154/1/10
f 153/1/9 155/1/137 173/1/155
f 153/1/9 173/1/155 171/1/9
f 154/1/10 172/1/10 174/1/156
f 154/1/10 174/1/156 156/1/138
f 155/1/137 157/1/139 175/1/157
f 155/1/137 175/1/157 173/1/155
f 156/1/138 174/1/156 176/1/158
f 156/1/138 176/1/158 158/1/140
f 157/1/139 159/1/141 177/1/159
f 157/1/139 177/1/159 175/1/157
f 158/1/140 176/1/158 178/1/160
f 158/1/140 178/1/160 160/1/142
f 159/1/141 161/1/143 179/1/161
f 159/1/141 179/1/161 177/1/159
f 160/1/142 178/1/160 180/1/162
f 160/1/142 180/1/162 162/1/144
f 165/1/163 147/1/145 146/1/145
f 164/1/163 165/1/163 146/1/145
f 161/1/146 162/1/146 180/1/164
f 161/1/146 180/1/164 179/1/164
f 164/1/148 163/1/147 181/1/165
f 164/1/148 181/1/165 182/1/166
f 165/1/149 183/1/167 184/1/168
f 165/1/149 184/1/168 166/1/150
f 163/1/147 167/1/151 185/1/169
f 163/1/147 185/1/169 181/1/165
f 166/1/150 184/1/168 186/1/170
f 166/1/150 186/1/170 168/1/152
f 167/1/151 169/1/153 187/1/171
f 167/1/151 187/1/171 185/1/169
f 168/1/152 186/1/170 188/1/172
f 168/1/152 188/1/172 170/1/154
f 169/1/153 171/1/9 189/1/9
f 169/1/153 189/1/9 187/1/171
f 170/1/154 188/1/172 190/1/10
f 170/1/154 190/1/10 172/1/10
f 171/1/9 173/1/155 191/1/173
f 171/1/9 191/1/173 189/1/9
f 172/1/10 190/1/10 192/1/174
f 172/1/10 192/1/174 174/1/156
f 173/1/155 175/1/157 193/1/175
f 173/1/155 193/1/175 191/1/173
f 174/1/156 192/1/174 194/1/176
f 174/1/156 194/1/176 176/1/158
f 175/1/157 177/1/159 195/1/177
f 175/1/157 195/1/177 193/1/175
f 176/1/158 194/1/176 196/1/178
f 176/1/158 196/1/178 178/1/160
f 177/1/159 179/1/161 197/1/179
f 177/1/159 197/1/179 195/1/177
f 178/1/160 196/1/178 198/1/180
f 178/1/160 198/1/180 180/1/162
f 183/1/181 165/1/163 164/1/163
f 182/1/181 183/1/181 164/1/163
f 179/1/164 180/1/164 198/1/182
f 179/1/164 198/1/182 197/1/182
f 182/1/166 181/1/165 199/1/183
f 182/1/166 199/1/183 200/1/184
f 183/1/167 201/1/185 202/1/186
f 183/1/167 202/1/186 184/1/168
f 181/1/165 185/1/169 203/1/187
f 181/1/165 203/1/187 199/1/183
f 184/1/168 202/1/186 204/1/188
f 184/1/168 204/1/188 186/1/170
f 185/1/169 187/1/171 205/1/189
f 185/1/169 205/1/189 203/1/187
f 186/1/170 204/1/188 206/1/190
f 186/1/170 206/1/190 188/1/172
f 187/1/171 189/1/9 207/1/9
f 187/1/171 207/1/9 205/1/189
f 188/1/172 206/1/190 208/1/10
f 188/1/172 208/1/10 190/1/10
f 189/1/9 191/1/173 209/1/191
f 189/1/9 209/1/191 207/1/9
f 190/1/10 208/1/10 210/1/192
f 190/1/10 210/1/192 192/1/174
f 191/1/173 193/1/175 211/1/193
f 191/1/173 211/1/193 209/1/191
f 192/1/174 210/1/192 212/1/194
f 192/1/174 212/1/194 194/1/176
f 193/1/175 195/1/177 213/1/195
f 193/1/175 213/1/195 211/1/193
f 194/1/176 212/1/194 214/1/196
f 194/1/176 214/1/196 196/1/178
f 195/1/177 197/1/179 215/1/197
f 195/1/177 215/1/197 213/1/195
f 196/1/178 214/1/196 216/1/198
f 196/1/178 216/1/198 198/1/180
f 201/1/199 183/1/181 182/1/181
f 200/1/199 201/1/199 182/1/181
f 197/1/182 198/1/182 216/1/200
f 197/1/182 216/1/200 215/1/200
f 200/1/184 199/1/183 217/1/201
f 200/1/184 217/1/201 218/1/202
f 201/1/185 219/1/203 220/1/204
f 201/1/185 220/1/204 202/1/186
f 199/1/183 203/1/187 221/1/205
f 199/1/183 221/1/205 217/1/201
f 202/1/186 220/1/204 222/1/206
f 202/1/186 222/1/206 204/1/188
f 203/1/187 205/1/189 223/1/207
f 203/1/187 223/1/207 221/1/205
f 204/1/188 222/1/206 224/1/208
f 204/1/188 224/1/208 206/1/190
f 205/1/189 207/1/9 225/1/9
f 205/1/189 225/1/9 223/1/207
f 206/1/190 224/1/208 226/1/10
f 206/1/190 226/1/10 208/1/10
f 207/1/9 209/1/191 227/1/209
f 207/1/9 227/1/209 225/1/9
f 208/1/10 226/1/10 228/1/210
f 208/1/10 228/1/210 210/1/192
f 209/1/191 211/1/193 229/1/211
f 209/1/191 229/1/211 227/1/209
f 210/1/192 228/1/210 230/1/212
f 210/1/192 230/1/212 212/1/194
f 211/1/193 213/1/195 231/1/213
f 211/1/193 231/1/213 229/1/211
f 212/1/194 230/1/212 232/1/214
f 212/1/194 232/1/214 214/1/196
f 213/1/195 215/1/197 233/1/215
f 213/1/195 233/1/215 231/1/213
f 214/1/196 232/1/214 234/1/216
f 214/1/196 234/1/216 216/1/198
f 219/1/217 201/1/199 200/1/199
f 218/1/217 219/1/217 200/1/199
f 215/1/200 216/1/200 234/1/218
f 215/1/200 234/1/218 233/1/218
f 218/1/202 217/1/201 235/1/219
f 218/1/202 235/1/219 236/1/220
f 219/1/203 237/1/221 238/1/222
f 219/1/203 238/1/222 220/1/204
f 217/1/201 221/1/205 239/1/223
f 217/1/201 239/1/223 235/1/219
f 220/1/204 238/1/222 240/1/224
f 220/1/204 240/1/224 222/1/206
f 221/1/205 223/1/207 241/1/225
f 221/1/205 241/1/225 239/1/223
f 222/1/206 240/1/224 242/1/226
f 222/1/206 242/1/226 224/1/208
f 223/1/207 225/1/9 243/1/9
f 223/1/207 243/1/9 241/1/225
f 224/1/208 242/1/226 244/1/10
f 224/1/208 244/1/10 226/1/10
f 225/1/9 227/1/209 245/1/227
f 225/1/9 245/1/227 243/1/9
f 226/1/10 244/1/10 246/1/228
f 226/1/10 246/1/228 228/1/210
f 227/1/209 229/1/211 247/1/229
f 227/1/209 247/1/229 245/1/227
f 228/1/210 246/1/228 248/1/230
f 228/1/210 248/1/230 230/1/212
f 229/1/211 231/1/213 249/1/231
f 229/1/211 249/1/231 247/1/229
f 230/1/212 248/1/230 250/1/232
f 230/1/212 250/1/232 232/1/214
f 231/1/213 233/1/215 251/1/233
f 231/1/213 251/1/233 249/1/231
f 232/1/214 250/1/232 252/1/234
f 232/1/214 252/1/234 234/1/216
f 237/1/235 219/1/217 218/1/217
f 236/1/235 237/1/235 218/1/217
f 233/1/218 234/1/218 252/1/236
f 233/1/218 252/1/236 251/1/236
f 236/1/220 235/1/219 253/1/237
f 236/1/220 253/1/237 254/1/238
f 237/1/221 255/1/239 256/1/240
f 237/1/221 256/1/240 238/1/222
f 235/1/219 239/1/223 257/1/241
f 235/1/219 257/1/241 253/1/237
f 238/1/222 256/1/240 258/1/242
f 238/1/222 258/1/242 240/1/224
f 239/1/223 241/1/225 259/1/243
f 239/1/223 259/1/243 257/1/241
f 240/1/224 258/1/242 260/1/244
f 240/1/224 260/1/244 242/1/226
f 241/1/225 243/1/9 261/1/9
f 241/1/225 261/1/9 259/1/243
f 242/1/226 260/1/244 262/1/10
f 242/1/226 262/1/10 244/1/10
f 243/1/9 245/1/227 263/1/245
f 243/1/9 263/1/245 261/1/9
f 244/1/10 262/1/10 264/1/246
f 244/1/10 264/1/246 246/1/228
f 245/1/227 247/1/229 265/1/247
f 245/1/227 265/1/247 263/1/245
f 246/1/228 264/1/246 266/1/248
f 246/1/228 266/1/248 248/1/230
f 247/1/229 249/1/231 267/1/249
f 247/1/229 267/1/249 265/1/247
f 248/1/230 266/1/248 268/1/250
f 248/1/230 268/1/250 250/1/232
f 249/1/231 251/1/233 269/1/251
f 249/1/231 269/1/251 267/1/249
f 250/1/232 268/1/250 270/1/252
f 250/1/232 270/1/252 252/1/234
f 255/1/253 237/1/235 236/1/235
f 254/1/253 255/1/253 236/1/235
f 251/1/236 252/1/236 270/1/254
f 251/1/236 270/1/254 269/1/254
f 254/1/238 253/1/237 271/1/255
f 254/1/238 271/1/255 272/1/256
f 255/1/239 273/1/257 274/1/258
f 255/1/239 274/1/258 256/1/240
f 253/1/237 257/1/241 275/1/259
f 253/1/237 275/1/259 271/1/255
f 256/1/240 274/1/258 276/1/260
f 256/1/240 276/1/260 258/1/242
f 257/1/241 259/1/243 277/1/261
f 257/1/241 277/1/261 275/1/259
f 258/1/242 276/1/260 278/1/262
f 258/1/242 278/1/262 260/1/244
f 259/1/243 261/1/9 279/1/9
f 259/1/243 279/1/9 277/1/261
f 260/1/244 278/1/262 280/1/10
f 260/1/244 280/1/10 262/1/10
f 261/1/9 263/1/245 281/1/263
f 261/1/9 281/1/263 279/1/9
f 262/1/10 280/1/10 282/1/264
f 262/1/10 282/1/264 264/1/246
f 263/1/245 265/1/247 283/1/265
f 263/1/245 283/1/265 281/1/263
f 264/1/246 282/1/264 284/1/266
f 264/1/246 284/1/266 266/1/248
f 265/1/247 267/1/249 285/1/267
f 265/1/247 285/1/267 283/1/265
f 266/1/248 284/1/266 286/1/268
f 266/1/248 286/1/268 268/1/250
f 267/1/249 269/1/251 287/1/269
f 267/1/249 287/1/269 285/1/267
f 268/1/250 286/1/268 288/1/270
f 268/1/250 288/1/270 270/1/252
f 273/1/271 255/1/253 254/1/253
f 272/1/271 273/1/271 254/1/253
f 269/1/254 270/1/254 288/1/272
f 269/1/254 288/1/272 287/1/272
f 272/1/256 271/1/255 289/1/273
f 272/1/256 289/1/273 290/1/274
f 273/1/257 291/1/275 292/1/276
f 273/1/257 292/1/276 274/1/258
f 271/1/255 275/1/259 293/1/277
f 271/1/255 293/1/277 289/1/273
f 274/1/258 292/1/276 294/1/278
f 274/1/258 294/1/278 276/1/260
f 275/1/259 277/1/261 295/1/279
f 275/1/259 295/1/279 293/1/277
f 276/1/260 294/1/278 296/1/280
f 276/1/260 296/1/280 278/1/262
f 277/1/261 279/1/9 297/1/9
f 277/1/261 297/1/9 295/1/279
f 278/1/262 296/1/280 298/1/10
f 278/1/262 298/1/10 280/1/10
f 279/1/9 281/1/263 299/1/281
f 279/1/9 299/1/281 297/1/9
f 280/1/10 298/1/10 300/1/282
f 280/1/10 300/1/282 282/1/264
f 281/1/263 283/1/265 301/1/283
f 281/1/263 301/1/283 299/1/281
f 282/1/264 300/1/282 302/1/284
f 282/1/264 302/1/284 284/1/266
f 283/1/265 285/1/267 303/1/285
f 283/1/265 303/1/285 301/1/283
f 284/1/266 302/1/284 304/1/286
f 284/1/266 304/1/286 286/1/268
f 285/1/267 287/1/269 305/1/287
f 285/1/267 305/1/287 303/1/285
f 286/1/268 304/1/286 306/1/288
f 286/1/268 306/1/288 288/1/270
f 291/1/289 273/1/271 272/1/271
f 290/1/289 291/1/289 272/1/271
f 287/1/272 288/1/272 306/1/290
f 287/1/272 306/1/290 305/1/290
f 290/1/274 289/1/273 307/1/291
f 290/1/274 307/1/291 308/1/292
f 291/1/275 309/1/293 310/1/294
f 291/1/275 310/1/294 292/1/276
f 289/1/273 293/1/277 311/1/295
f 289/1/273 311/1/295 307/1/291
f 292/1/276 310/1/294 312/1/296
f 292/1/276 312/1/296 294/1/278
f 293/1/277 295/1/279 313/1/297
f 293/1/277 313/1/297 311/1/295
f 294/1/278 312/1/296 314/1/298
f 294/1/278 314/1/298 296/1/280
f 295/1/279 297/1/9 315/1/9
f 295/1/279 315/1/9 313/1/297
f 296/1/280 314/1/298 316/1/10
f 296/1/280 316/1/10 298/1/10
f 297/1/9 299/1/281 317/1/299
f 297/1/9 317/1/299 315/1/9
f 298/1/10 316/1/10 318/1/300
f 298/1/10 318/1/300 300/1/282
f 299/1/281 301/1/283 319/1/301
f 299/1/281 319/1/301 317/1/299
f 300/1/282 318/1/300 320/1/302
f 300/1/282 320/1/302 302/1/284
f 301/1/283 303/1/285 321/1/303
f 301/1/283 321/1/303 319/1/301
f 302/1/284 320/1/302 322/1/304
f 302/1/284 322/1/304 304/1/286
f 303/1/285 305/1/287 323/1/305
f 303/1/285 323/1/305 321/1/303
f 304/1/286 322/1/304 324/1/306
f 304/1/286 324/1/306 306/1/288
f 309/1/307 291/1/289 290/1/289
f 308/1/307 309/1/307 290/1/289
f 305/1/290 306/1/290 324/1/308
f 305/1/290 324/1/308 323/1/308
f 1/1/309 5/1/309 8/1/309
f 1/1/309 8/1/309 2/1/309
f 2/1/309 8/1/309 12/1/309
f 2/1/309 12/1/309 9/1/309
f 9/1/309 12/1/309 16/1/309
f 9/1/309 16/1/309 13/1/309
f 13/1/309 16/1/309 20/1/309
f 13/1/309 20/1/309 17/1/309
f 17/1/309 20/1/309 24/1/309
f 17/1/309 24/1/309 21/1/309
f 21/1/309 24/1/309 28/1/309
f 21/1/309 28/1/309 25/1/309
f 25/1/309 28/1/309 32/1/309
f 25/1/309 32/1/309 29/1/309
f 29/1/309 32/1/309 36/1/309
f 29/1/309 36/1/309 33/1/309
f 310/1/310 309/1/310 308/1/310
f 307/1/310 310/1/310 308/1/310
f 312/1/310 310/1/310 307/1/310
f 311/1/310 312/1/310 307/1/310
f 314/1/310 312/1/310 311/1/310
f 313/1/310 314/1/310 311/1/310
f 316/1/310 314/1/310 313/1/310
f 315/1/310 316/1/310 313/1/310
f 318/1/310 316/1/310 315/1/310
f 317/1/310 318/1/310 315/1/310
f 320/1/310 318/1/310 317/1/310
f 319/1/310 320/1/310 317/1/310
f 322/1/310 320/1/310 319/1/310
f 321/1/310 322/1/310 319/1/310
f 324/1/310 322/1/310 321/1/310
f 323/1/310 324/1/310 321/1/310
f 325/1/309 326/1/309 327/1/309
f 325/1/309 327/1/309 328/1/309
f 329/1/311 330/1/311 331/1/311
f 329/1/311 331/1/311 332/1/311
f 328/1/19 329/1/19 332/1/19
f 328/1/19 332/1/19 325/1/19
f 326/1/20 331/1/20 330/1/20
f 326/1/20 330/1/20 327/1/20
f 327/1/9 330/1/9 329/1/9
f 327/1/9 329/1/9 328/1/9
f 325/1/10 332/1/10 331/1/10
f 325/1/10 331/1/10 326/1/10
f 333/1/309 334/1/309 335/1/309
f 333/1/309 335/1/309 336/1/309
f 337/1/311 338/1/311 339/1/311
f 337/1/311 339/1/311 340/1/311
f 336/1/19 337/1/19 340/1/19
f 336/1/19 340/1/19 333/1/19
f 334/1/20 339/1/20 338/1/20
f 334/1/20 338/1/20 335/1/20
f 335/1/9 338/1/9 337/1/9
f 335/1/9 337/1/9 336/1/9
f 333/1/10 340/1/10 339/1/10
f 333/1/10 339/1/10 334/1/10
f 341/2/309 342/2/309 343/2/309
f 341/2/309 343/2/309 344/2/309
f 345/2/311 346/2/311 347/2/311
f 345/2/311 347/2/311 348/2/311
f 344/2/19 345/2/19 348/2/19
f 344/2/19 348/2/19 341/2/19
f 342/2/20 347/2/20 346/2/20
f 342/2/20 346/2/20 343/2/20
f 343/2/9 346/2/9 345/2/9
f 343/2/9 345/2/9 344/2/9
f 341/2/10 348/2/10 347/2/10
f 341/2/10 347/2/10 342/2/10
