# Procedurally generated by dev-env-utils/scripts/gen_guardrails_thrie.py -- do not hand edit
mtllib guardrail_thrie_beam_wood_double.mtl
o guardrail_thrie_beam_wood_double_post_down
v 0.400000 -0.262500 0.400000
v 0.400000 0.325000 0.400000
v 0.400000 0.325000 0.250000
v 0.400000 -0.262500 0.250000
v 0.600000 -0.262500 0.250000
v 0.600000 0.325000 0.250000
v 0.600000 0.325000 0.400000
v 0.600000 -0.262500 0.400000
v 0.400000 -0.262500 0.750000
v 0.400000 0.325000 0.750000
v 0.400000 0.325000 0.600000
v 0.400000 -0.262500 0.600000
v 0.600000 -0.262500 0.600000
v 0.600000 0.325000 0.600000
v 0.600000 0.325000 0.750000
v 0.600000 -0.262500 0.750000
v 0.375000 -0.500000 0.600000
v 0.375000 0.350000 0.600000
v 0.375000 0.350000 0.400000
v 0.375000 -0.500000 0.400000
v 0.625000 -0.500000 0.400000
v 0.625000 0.350000 0.400000
v 0.625000 0.350000 0.600000
v 0.625000 -0.500000 0.600000
vt 0.890625 0.875000
vt 0.890625 0.625000
vn -1.000000 0.000000 0.000000
vn 1.000000 0.000000 0.000000
vn 0.000000 -1.000000 0.000000
vn 0.000000 1.000000 0.000000
vn 0.000000 0.000000 -1.000000
vn 0.000000 0.000000 1.000000
usemtl body
f 1/1/1 2/1/1 3/1/1
f 1/1/1 3/1/1 4/1/1
f 5/1/2 6/1/2 7/1/2
f 5/1/2 7/1/2 8/1/2
f 4/1/3 5/1/3 8/1/3
f 4/1/3 8/1/3 1/1/3
f 2/1/4 7/1/4 6/1/4
f 2/1/4 6/1/4 3/1/4
f 3/1/5 6/1/5 5/1/5
f 3/1/5 5/1/5 4/1/5
f 9/1/1 10/1/1 11/1/1
f 9/1/1 11/1/1 12/1/1
f 13/1/2 14/1/2 15/1/2
f 13/1/2 15/1/2 16/1/2
f 12/1/3 13/1/3 16/1/3
f 12/1/3 16/1/3 9/1/3
f 10/1/4 15/1/4 14/1/4
f 10/1/4 14/1/4 11/1/4
f 9/1/6 16/1/6 15/1/6
f 9/1/6 15/1/6 10/1/6
f 17/2/1 18/2/1 19/2/1
f 17/2/1 19/2/1 20/2/1
f 21/2/2 22/2/2 23/2/2
f 21/2/2 23/2/2 24/2/2
f 20/2/3 21/2/3 24/2/3
f 20/2/3 24/2/3 17/2/3
f 18/2/4 23/2/4 22/2/4
f 18/2/4 22/2/4 19/2/4
f 19/2/5 22/2/5 21/2/5
f 19/2/5 21/2/5 20/2/5
f 17/2/6 24/2/6 23/2/6
f 17/2/6 23/2/6 18/2/6
