# Procedurally generated by dev-env-utils/scripts/gen_guardrails_box_cable.py -- do not hand edit
mtllib guardrail_box_beam.mtl
o guardrail_box_beam_post_flat
v 0.400000 0.675000 0.400000
v 0.400000 0.987500 0.400000
v 0.400000 0.987500 0.250000
v 0.400000 0.675000 0.250000
v 0.600000 0.675000 0.250000
v 0.600000 0.987500 0.250000
v 0.600000 0.987500 0.400000
v 0.600000 0.675000 0.400000
v 0.287500 0.000000 0.712500
v 0.287500 0.037500 0.712500
v 0.287500 0.037500 0.287500
v 0.287500 0.000000 0.287500
v 0.712500 0.000000 0.287500
v 0.712500 0.037500 0.287500
v 0.712500 0.037500 0.712500
v 0.712500 0.000000 0.712500
v 0.375000 0.037500 0.437500
v 0.375000 1.000000 0.437500
v 0.375000 1.000000 0.400000
v 0.375000 0.037500 0.400000
v 0.625000 0.037500 0.400000
v 0.625000 1.000000 0.400000
v 0.625000 1.000000 0.437500
v 0.625000 0.037500 0.437500
v 0.375000 0.037500 0.600000
v 0.375000 1.000000 0.600000
v 0.412500 0.037500 0.437500
v 0.412500 1.000000 0.437500
v 0.412500 1.000000 0.600000
v 0.412500 0.037500 0.600000
v 0.587500 0.037500 0.600000
v 0.587500 1.000000 0.600000
v 0.587500 1.000000 0.437500
v 0.587500 0.037500 0.437500
v 0.625000 1.000000 0.600000
v 0.625000 0.037500 0.600000
vt 0.890625 0.875000
vt 0.890625 0.375000
vt 0.890625 0.625000
vn -1.000000 0.000000 0.000000
vn 1.000000 0.000000 0.000000
vn 0.000000 -1.000000 0.000000
vn 0.000000 1.000000 0.000000
vn 0.000000 0.000000 -1.000000
vn 0.000000 0.000000 1.000000
usemtl body
f 1/1/1 2/1/1 3/1/1
f 1/1/1 3/1/1 4/1/1
f 5/1/2 6/1/2 7/1/2
f 5/1/2 7/1/2 8/1/2
f 4/1/3 5/1/3 8/1/3
f 4/1/3 8/1/3 1/1/3
f 2/1/4 7/1/4 6/1/4
f 2/1/4 6/1/4 3/1/4
f 3/1/5 6/1/5 5/1/5
f 3/1/5 5/1/5 4/1/5
f 9/2/1 10/2/1 11/2/1
f 9/2/1 11/2/1 12/2/1
f 13/2/2 14/2/2 15/2/2
f 13/2/2 15/2/2 16/2/2
f 12/2/3 13/2/3 16/2/3
f 12/2/3 16/2/3 9/2/3
f 10/2/4 15/2/4 14/2/4
f 10/2/4 14/2/4 11/2/4
f 11/2/5 14/2/5 13/2/5
f 11/2/5 13/2/5 12/2/5
f 9/2/6 16/2/6 15/2/6
f 9/2/6 15/2/6 10/2/6
f 17/3/1 18/3/1 19/3/1
f 17/3/1 19/3/1 20/3/1
f 21/3/2 22/3/2 23/3/2
f 21/3/2 23/3/2 24/3/2
f 20/3/3 21/3/3 24/3/3
f 20/3/3 24/3/3 17/3/3
f 18/3/4 23/3/4 22/3/4
f 18/3/4 22/3/4 19/3/4
f 19/3/5 22/3/5 21/3/5
f 19/3/5 21/3/5 20/3/5
f 17/3/6 24/3/6 23/3/6
f 17/3/6 23/3/6 18/3/6
f 25/3/1 26/3/1 18/3/1
f 25/3/1 18/3/1 17/3/1
f 27/3/2 28/3/2 29/3/2
f 27/3/2 29/3/2 30/3/2
f 17/3/3 27/3/3 30/3/3
f 17/3/3 30/3/3 25/3/3
f 26/3/4 29/3/4 28/3/4
f 26/3/4 28/3/4 18/3/4
f 25/3/6 30/3/6 29/3/6
f 25/3/6 29/3/6 26/3/6
f 31/3/1 32/3/1 33/3/1
f 31/3/1 33/3/1 34/3/1
f 24/3/2 23/3/2 35/3/2
f 24/3/2 35/3/2 36/3/2
f 34/3/3 24/3/3 36/3/3
f 34/3/3 36/3/3 31/3/3
f 32/3/4 35/3/4 23/3/4
f 32/3/4 23/3/4 33/3/4
f 31/3/6 36/3/6 35/3/6
f 31/3/6 35/3/6 32/3/6
