# Procedurally generated by dev-env-utils/scripts/gen_guardrails.py -- do not hand edit
mtllib guardrail_w_beam.mtl
o guardrail_w_beam_post_flat
v 0.400000 0.675000 0.400000
v 0.400000 0.987500 0.400000
v 0.400000 0.987500 0.250000
v 0.400000 0.675000 0.250000
v 0.600000 0.675000 0.250000
v 0.600000 0.987500 0.250000
v 0.600000 0.987500 0.400000
v 0.600000 0.675000 0.400000
v 0.375000 0.000000 0.437500
v 0.375000 1.000000 0.437500
v 0.375000 1.000000 0.400000
v 0.375000 0.000000 0.400000
v 0.625000 0.000000 0.400000
v 0.625000 1.000000 0.400000
v 0.625000 1.000000 0.437500
v 0.625000 0.000000 0.437500
v 0.375000 0.000000 0.600000
v 0.375000 1.000000 0.600000
v 0.412500 0.000000 0.437500
v 0.412500 1.000000 0.437500
v 0.412500 1.000000 0.600000
v 0.412500 0.000000 0.600000
v 0.587500 0.000000 0.600000
v 0.587500 1.000000 0.600000
v 0.587500 1.000000 0.437500
v 0.587500 0.000000 0.437500
v 0.625000 1.000000 0.600000
v 0.625000 0.000000 0.600000
vt 0.890625 0.875000
vt 0.890625 0.625000
vn -1.000000 0.000000 0.000000
vn 1.000000 0.000000 0.000000
vn 0.000000 -1.000000 0.000000
vn 0.000000 1.000000 0.000000
vn 0.000000 0.000000 -1.000000
vn 0.000000 0.000000 1.000000
usemtl body
f 1/1/1 2/1/1 3/1/1
f 1/1/1 3/1/1 4/1/1
f 5/1/2 6/1/2 7/1/2
f 5/1/2 7/1/2 8/1/2
f 4/1/3 5/1/3 8/1/3
f 4/1/3 8/1/3 1/1/3
f 2/1/4 7/1/4 6/1/4
f 2/1/4 6/1/4 3/1/4
f 3/1/5 6/1/5 5/1/5
f 3/1/5 5/1/5 4/1/5
f 9/2/1 10/2/1 11/2/1
f 9/2/1 11/2/1 12/2/1
f 13/2/2 14/2/2 15/2/2
f 13/2/2 15/2/2 16/2/2
f 12/2/3 13/2/3 16/2/3
f 12/2/3 16/2/3 9/2/3
f 10/2/4 15/2/4 14/2/4
f 10/2/4 14/2/4 11/2/4
f 11/2/5 14/2/5 13/2/5
f 11/2/5 13/2/5 12/2/5
f 9/2/6 16/2/6 15/2/6
f 9/2/6 15/2/6 10/2/6
f 17/2/1 18/2/1 10/2/1
f 17/2/1 10/2/1 9/2/1
f 19/2/2 20/2/2 21/2/2
f 19/2/2 21/2/2 22/2/2
f 9/2/3 19/2/3 22/2/3
f 9/2/3 22/2/3 17/2/3
f 18/2/4 21/2/4 20/2/4
f 18/2/4 20/2/4 10/2/4
f 17/2/6 22/2/6 21/2/6
f 17/2/6 21/2/6 18/2/6
f 23/2/1 24/2/1 25/2/1
f 23/2/1 25/2/1 26/2/1
f 16/2/2 15/2/2 27/2/2
f 16/2/2 27/2/2 28/2/2
f 26/2/3 16/2/3 28/2/3
f 26/2/3 28/2/3 23/2/3
f 24/2/4 27/2/4 15/2/4
f 24/2/4 15/2/4 25/2/4
f 23/2/6 28/2/6 27/2/6
f 23/2/6 27/2/6 24/2/6
