# Procedurally generated by dev-env-utils/scripts/gen_guardrails_thrie.py -- do not hand edit
mtllib guardrail_thrie_beam_wood_double.mtl
o guardrail_thrie_beam_wood_double_inv
v 0.000000 0.250000 0.250000
v 1.000000 0.250000 0.250000
v 1.000000 0.812500 0.250000
v 0.000000 0.812500 0.250000
v 1.000000 0.812500 0.150000
v 0.000000 0.812500 0.150000
v 1.000000 0.762500 0.068750
v 0.000000 0.762500 0.068750
v 1.000000 0.725000 0.050000
v 0.000000 0.725000 0.050000
v 1.000000 0.687500 0.068750
v 0.000000 0.687500 0.068750
v 1.000000 0.632500 0.140625
v 0.000000 0.632500 0.140625
v 1.000000 0.576250 0.068750
v 0.000000 0.576250 0.068750
v 1.000000 0.531250 0.050000
v 0.000000 0.531250 0.050000
v 1.000000 0.486250 0.068750
v 0.000000 0.486250 0.068750
v 1.000000 0.430000 0.140625
v 0.000000 0.430000 0.140625
v 1.000000 0.375000 0.068750
v 0.000000 0.375000 0.068750
v 1.000000 0.337500 0.050000
v 0.000000 0.337500 0.050000
v 1.000000 0.300000 0.068750
v 0.000000 0.300000 0.068750
v 1.000000 0.250000 0.150000
v 0.000000 0.250000 0.150000
v 0.000000 0.250000 0.850000
v 1.000000 0.250000 0.850000
v 1.000000 0.300000 0.931250
v 0.000000 0.300000 0.931250
v 1.000000 0.337500 0.950000
v 0.000000 0.337500 0.950000
v 1.000000 0.375000 0.931250
v 0.000000 0.375000 0.931250
v 1.000000 0.430000 0.859375
v 0.000000 0.430000 0.859375
v 1.000000 0.486250 0.931250
v 0.000000 0.486250 0.931250
v 1.000000 0.531250 0.950000
v 0.000000 0.531250 0.950000
v 1.000000 0.576250 0.931250
v 0.000000 0.576250 0.931250
v 1.000000 0.632500 0.859375
v 0.000000 0.632500 0.859375
v 1.000000 0.687500 0.931250
v 0.000000 0.687500 0.931250
v 1.000000 0.725000 0.950000
v 0.000000 0.725000 0.950000
v 1.000000 0.762500 0.931250
v 0.000000 0.762500 0.931250
v 1.000000 0.812500 0.850000
v 0.000000 0.812500 0.850000
v 1.000000 0.812500 0.750000
v 0.000000 0.812500 0.750000
v 1.000000 0.250000 0.750000
v 0.000000 0.250000 0.750000
v 0.400000 0.237500 0.400000
v 0.400000 0.825000 0.400000
v 0.400000 0.825000 0.250000
v 0.400000 0.237500 0.250000
v 0.600000 0.237500 0.250000
v 0.600000 0.825000 0.250000
v 0.600000 0.825000 0.400000
v 0.600000 0.237500 0.400000
v 0.400000 0.237500 0.750000
v 0.400000 0.825000 0.750000
v 0.400000 0.825000 0.600000
v 0.400000 0.237500 0.600000
v 0.600000 0.237500 0.600000
v 0.600000 0.825000 0.600000
v 0.600000 0.825000 0.750000
v 0.600000 0.237500 0.750000
v 0.375000 0.000000 0.600000
v 0.375000 0.850000 0.600000
v 0.375000 0.850000 0.400000
v 0.375000 0.000000 0.400000
v 0.625000 0.000000 0.400000
v 0.625000 0.850000 0.400000
v 0.625000 0.850000 0.600000
v 0.625000 0.000000 0.600000
v 0.000000 0.300000 0.250000
v 0.000000 0.337500 0.250000
v 0.000000 0.375000 0.250000
v 0.000000 0.430000 0.250000
v 0.000000 0.486250 0.250000
v 0.000000 0.531250 0.250000
v 0.000000 0.576250 0.250000
v 0.000000 0.632500 0.250000
v 0.000000 0.687500 0.250000
v 0.000000 0.725000 0.250000
v 0.000000 0.762500 0.250000
v 0.000000 0.300000 0.750000
v 0.000000 0.337500 0.750000
v 0.000000 0.375000 0.750000
v 0.000000 0.430000 0.750000
v 0.000000 0.486250 0.750000
v 0.000000 0.531250 0.750000
v 0.000000 0.576250 0.750000
v 0.000000 0.632500 0.750000
v 0.000000 0.687500 0.750000
v 0.000000 0.725000 0.750000
v 0.000000 0.762500 0.750000
v 1.000000 0.300000 0.250000
v 1.000000 0.337500 0.250000
v 1.000000 0.375000 0.250000
v 1.000000 0.430000 0.250000
v 1.000000 0.486250 0.250000
v 1.000000 0.531250 0.250000
v 1.000000 0.576250 0.250000
v 1.000000 0.632500 0.250000
v 1.000000 0.687500 0.250000
v 1.000000 0.725000 0.250000
v 1.000000 0.762500 0.250000
v 1.000000 0.300000 0.750000
v 1.000000 0.337500 0.750000
v 1.000000 0.375000 0.750000
v 1.000000 0.430000 0.750000
v 1.000000 0.486250 0.750000
v 1.000000 0.531250 0.750000
v 1.000000 0.576250 0.750000
v 1.000000 0.632500 0.750000
v 1.000000 0.687500 0.750000
v 1.000000 0.725000 0.750000
v 1.000000 0.762500 0.750000
vt 0.890625 0.125000
vt 0.890625 0.875000
vt 0.890625 0.625000
vn 0.000000 0.000000 1.000000
vn -0.000000 1.000000 0.000000
vn 0.000000 0.851658 -0.524097
vn 0.000000 0.447214 -0.894427
vn 0.000000 -0.447214 -0.894427
vn 0.000000 -0.794162 -0.607706
vn 0.000000 0.787505 -0.616308
vn 0.000000 0.384615 -0.923077
vn 0.000000 -0.384615 -0.923077
vn 0.000000 -0.787505 -0.616308
vn 0.000000 0.794162 -0.607706
vn 0.000000 -0.851658 -0.524097
vn 0.000000 -1.000000 0.000000
vn 0.000000 -0.851658 0.524097
vn 0.000000 -0.447214 0.894427
vn -0.000000 0.447214 0.894427
vn -0.000000 0.794162 0.607706
vn 0.000000 -0.787505 0.616308
vn 0.000000 -0.384615 0.923077
vn -0.000000 0.384615 0.923077
vn -0.000000 0.787505 0.616308
vn 0.000000 -0.794162 0.607706
vn -0.000000 0.851658 0.524097
vn 0.000000 0.000000 -1.000000
vn -1.000000 0.000000 0.000000
vn 1.000000 0.000000 0.000000
usemtl body
f 1/1/1 2/1/1 3/1/1
f 1/1/1 3/1/1 4/1/1
f 4/1/2 3/1/2 5/1/2
f 4/1/2 5/1/2 6/1/2
f 6/1/3 5/1/3 7/1/3
f 6/1/3 7/1/3 8/1/3
f 8/1/4 7/1/4 9/1/4
f 8/1/4 9/1/4 10/1/4
f 10/1/5 9/1/5 11/1/5
f 10/1/5 11/1/5 12/1/5
f 12/1/6 11/1/6 13/1/6
f 12/1/6 13/1/6 14/1/6
f 14/1/7 13/1/7 15/1/7
f 14/1/7 15/1/7 16/1/7
f 16/1/8 15/1/8 17/1/8
f 16/1/8 17/1/8 18/1/8
f 18/1/9 17/1/9 19/1/9
f 18/1/9 19/1/9 20/1/9
f 20/1/10 19/1/10 21/1/10
f 20/1/10 21/1/10 22/1/10
f 22/1/11 21/1/11 23/1/11
f 22/1/11 23/1/11 24/1/11
f 24/1/4 23/1/4 25/1/4
f 24/1/4 25/1/4 26/1/4
f 26/1/5 25/1/5 27/1/5
f 26/1/5 27/1/5 28/1/5
f 28/1/12 27/1/12 29/1/12
f 28/1/12 29/1/12 30/1/12
f 30/1/13 29/1/13 2/1/13
f 30/1/13 2/1/13 1/1/13
f 31/1/14 32/1/14 33/1/14
f 31/1/14 33/1/14 34/1/14
f 34/1/15 33/1/15 35/1/15
f 34/1/15 35/1/15 36/1/15
f 36/1/16 35/1/16 37/1/16
f 36/1/16 37/1/16 38/1/16
f 38/1/17 37/1/17 39/1/17
f 38/1/17 39/1/17 40/1/17
f 40/1/18 39/1/18 41/1/18
f 40/1/18 41/1/18 42/1/18
f 42/1/19 41/1/19 43/1/19
f 42/1/19 43/1/19 44/1/19
f 44/1/20 43/1/20 45/1/20
f 44/1/20 45/1/20 46/1/20
f 46/1/21 45/1/21 47/1/21
f 46/1/21 47/1/21 48/1/21
f 48/1/22 47/1/22 49/1/22
f 48/1/22 49/1/22 50/1/22
f 50/1/15 49/1/15 51/1/15
f 50/1/15 51/1/15 52/1/15
f 52/1/16 51/1/16 53/1/16
f 52/1/16 53/1/16 54/1/16
f 54/1/23 53/1/23 55/1/23
f 54/1/23 55/1/23 56/1/23
f 56/1/2 55/1/2 57/1/2
f 56/1/2 57/1/2 58/1/2
f 58/1/24 57/1/24 59/1/24
f 58/1/24 59/1/24 60/1/24
f 60/1/13 59/1/13 32/1/13
f 60/1/13 32/1/13 31/1/13
f 61/2/25 62/2/25 63/2/25
f 61/2/25 63/2/25 64/2/25
f 65/2/26 66/2/26 67/2/26
f 65/2/26 67/2/26 68/2/26
f 64/2/13 65/2/13 68/2/13
f 64/2/13 68/2/13 61/2/13
f 62/2/2 67/2/2 66/2/2
f 62/2/2 66/2/2 63/2/2
f 63/2/24 66/2/24 65/2/24
f 63/2/24 65/2/24 64/2/24
f 69/2/25 70/2/25 71/2/25
f 69/2/25 71/2/25 72/2/25
f 73/2/26 74/2/26 75/2/26
f 73/2/26 75/2/26 76/2/26
f 72/2/13 73/2/13 76/2/13
f 72/2/13 76/2/13 69/2/13
f 70/2/2 75/2/2 74/2/2
f 70/2/2 74/2/2 71/2/2
f 69/2/1 76/2/1 75/2/1
f 69/2/1 75/2/1 70/2/1
f 77/3/25 78/3/25 79/3/25
f 77/3/25 79/3/25 80/3/25
f 81/3/26 82/3/26 83/3/26
f 81/3/26 83/3/26 84/3/26
f 80/3/13 81/3/13 84/3/13
f 80/3/13 84/3/13 77/3/13
f 78/3/2 83/3/2 82/3/2
f 78/3/2 82/3/2 79/3/2
f 79/3/24 82/3/24 81/3/24
f 79/3/24 81/3/24 80/3/24
f 77/3/1 84/3/1 83/3/1
f 77/3/1 83/3/1 78/3/1
f 1/1/25 85/1/25 28/1/25
f 1/1/25 28/1/25 30/1/25
f 85/1/25 86/1/25 26/1/25
f 85/1/25 26/1/25 28/1/25
f 86/1/25 87/1/25 24/1/25
f 86/1/25 24/1/25 26/1/25
f 87/1/25 88/1/25 22/1/25
f 87/1/25 22/1/25 24/1/25
f 88/1/25 89/1/25 20/1/25
f 88/1/25 20/1/25 22/1/25
f 89/1/25 90/1/25 18/1/25
f 89/1/25 18/1/25 20/1/25
f 90/1/25 91/1/25 16/1/25
f 90/1/25 16/1/25 18/1/25
f 91/1/25 92/1/25 14/1/25
f 91/1/25 14/1/25 16/1/25
f 92/1/25 93/1/25 12/1/25
f 92/1/25 12/1/25 14/1/25
f 93/1/25 94/1/25 10/1/25
f 93/1/25 10/1/25 12/1/25
f 94/1/25 95/1/25 8/1/25
f 94/1/25 8/1/25 10/1/25
f 95/1/25 4/1/25 6/1/25
f 95/1/25 6/1/25 8/1/25
f 31/1/25 34/1/25 96/1/25
f 31/1/25 96/1/25 60/1/25
f 34/1/25 36/1/25 97/1/25
f 34/1/25 97/1/25 96/1/25
f 36/1/25 38/1/25 98/1/25
f 36/1/25 98/1/25 97/1/25
f 38/1/25 40/1/25 99/1/25
f 38/1/25 99/1/25 98/1/25
f 40/1/25 42/1/25 100/1/25
f 40/1/25 100/1/25 99/1/25
f 42/1/25 44/1/25 101/1/25
f 42/1/25 101/1/25 100/1/25
f 44/1/25 46/1/25 102/1/25
f 44/1/25 102/1/25 101/1/25
f 46/1/25 48/1/25 103/1/25
f 46/1/25 103/1/25 102/1/25
f 48/1/25 50/1/25 104/1/25
f 48/1/25 104/1/25 103/1/25
f 50/1/25 52/1/25 105/1/25
f 50/1/25 105/1/25 104/1/25
f 52/1/25 54/1/25 106/1/25
f 52/1/25 106/1/25 105/1/25
f 54/1/25 56/1/25 58/1/25
f 54/1/25 58/1/25 106/1/25
f 29/1/26 27/1/26 107/1/26
f 29/1/26 107/1/26 2/1/26
f 27/1/26 25/1/26 108/1/26
f 27/1/26 108/1/26 107/1/26
f 25/1/26 23/1/26 109/1/26
f 25/1/26 109/1/26 108/1/26
f 23/1/26 21/1/26 110/1/26
f 23/1/26 110/1/26 109/1/26
f 21/1/26 19/1/26 111/1/26
f 21/1/26 111/1/26 110/1/26
f 19/1/26 17/1/26 112/1/26
f 19/1/26 112/1/26 111/1/26
f 17/1/26 15/1/26 113/1/26
f 17/1/26 113/1/26 112/1/26
f 15/1/26 13/1/26 114/1/26
f 15/1/26 114/1/26 113/1/26
f 13/1/26 11/1/26 115/1/26
f 13/1/26 115/1/26 114/1/26
f 11/1/26 9/1/26 116/1/26
f 11/1/26 116/1/26 115/1/26
f 9/1/26 7/1/26 117/1/26
f 9/1/26 117/1/26 116/1/26
f 7/1/26 5/1/26 3/1/26
f 7/1/26 3/1/26 117/1/26
f 59/1/26 118/1/26 33/1/26
f 59/1/26 33/1/26 32/1/26
f 118/1/26 119/1/26 35/1/26
f 118/1/26 35/1/26 33/1/26
f 119/1/26 120/1/26 37/1/26
f 119/1/26 37/1/26 35/1/26
f 120/1/26 121/1/26 39/1/26
f 120/1/26 39/1/26 37/1/26
f 121/1/26 122/1/26 41/1/26
f 121/1/26 41/1/26 39/1/26
f 122/1/26 123/1/26 43/1/26
f 122/1/26 43/1/26 41/1/26
f 123/1/26 124/1/26 45/1/26
f 123/1/26 45/1/26 43/1/26
f 124/1/26 125/1/26 47/1/26
f 124/1/26 47/1/26 45/1/26
f 125/1/26 126/1/26 49/1/26
f 125/1/26 49/1/26 47/1/26
f 126/1/26 127/1/26 51/1/26
f 126/1/26 51/1/26 49/1/26
f 127/1/26 128/1/26 53/1/26
f 127/1/26 53/1/26 51/1/26
f 128/1/26 57/1/26 55/1/26
f 128/1/26 55/1/26 53/1/26
