# Procedurally generated by dev-env-utils/scripts/gen_guardrails_box_cable.py -- do not hand edit
mtllib guardrail_box_beam_stacked_double.mtl
o guardrail_box_beam_stacked_double_post_flat
v 0.400000 0.675000 0.400000
v 0.400000 0.987500 0.400000
v 0.400000 0.987500 0.250000
v 0.400000 0.675000 0.250000
v 0.600000 0.675000 0.250000
v 0.600000 0.987500 0.250000
v 0.600000 0.987500 0.400000
v 0.600000 0.675000 0.400000
v 0.400000 0.675000 0.750000
v 0.400000 0.987500 0.750000
v 0.400000 0.987500 0.600000
v 0.400000 0.675000 0.600000
v 0.600000 0.675000 0.600000
v 0.600000 0.987500 0.600000
v 0.600000 0.987500 0.750000
v 0.600000 0.675000 0.750000
v 0.400000 0.175000 0.400000
v 0.400000 0.487500 0.400000
v 0.400000 0.487500 0.250000
v 0.400000 0.175000 0.250000
v 0.600000 0.175000 0.250000
v 0.600000 0.487500 0.250000
v 0.600000 0.487500 0.400000
v 0.600000 0.175000 0.400000
v 0.400000 0.175000 0.750000
v 0.400000 0.487500 0.750000
v 0.400000 0.487500 0.600000
v 0.400000 0.175000 0.600000
v 0.600000 0.175000 0.600000
v 0.600000 0.487500 0.600000
v 0.600000 0.487500 0.750000
v 0.600000 0.175000 0.750000
v 0.375000 0.000000 0.437500
v 0.375000 1.000000 0.437500
v 0.375000 1.000000 0.400000
v 0.375000 0.000000 0.400000
v 0.625000 0.000000 0.400000
v 0.625000 1.000000 0.400000
v 0.625000 1.000000 0.437500
v 0.625000 0.000000 0.437500
v 0.375000 0.000000 0.600000
v 0.375000 1.000000 0.600000
v 0.412500 0.000000 0.437500
v 0.412500 1.000000 0.437500
v 0.412500 1.000000 0.600000
v 0.412500 0.000000 0.600000
v 0.587500 0.000000 0.600000
v 0.587500 1.000000 0.600000
v 0.587500 1.000000 0.437500
v 0.587500 0.000000 0.437500
v 0.625000 1.000000 0.600000
v 0.625000 0.000000 0.600000
vt 0.890625 0.875000
vt 0.890625 0.625000
vn -1.000000 0.000000 0.000000
vn 1.000000 0.000000 0.000000
vn 0.000000 -1.000000 0.000000
vn 0.000000 1.000000 0.000000
vn 0.000000 0.000000 -1.000000
vn 0.000000 0.000000 1.000000
usemtl body
f 1/1/1 2/1/1 3/1/1
f 1/1/1 3/1/1 4/1/1
f 5/1/2 6/1/2 7/1/2
f 5/1/2 7/1/2 8/1/2
f 4/1/3 5/1/3 8/1/3
f 4/1/3 8/1/3 1/1/3
f 2/1/4 7/1/4 6/1/4
f 2/1/4 6/1/4 3/1/4
f 3/1/5 6/1/5 5/1/5
f 3/1/5 5/1/5 4/1/5
f 9/1/1 10/1/1 11/1/1
f 9/1/1 11/1/1 12/1/1
f 13/1/2 14/1/2 15/1/2
f 13/1/2 15/1/2 16/1/2
f 12/1/3 13/1/3 16/1/3
f 12/1/3 16/1/3 9/1/3
f 10/1/4 15/1/4 14/1/4
f 10/1/4 14/1/4 11/1/4
f 11/1/5 14/1/5 13/1/5
f 11/1/5 13/1/5 12/1/5
f 9/1/6 16/1/6 15/1/6
f 9/1/6 15/1/6 10/1/6
f 17/1/1 18/1/1 19/1/1
f 17/1/1 19/1/1 20/1/1
f 21/1/2 22/1/2 23/1/2
f 21/1/2 23/1/2 24/1/2
f 20/1/3 21/1/3 24/1/3
f 20/1/3 24/1/3 17/1/3
f 18/1/4 23/1/4 22/1/4
f 18/1/4 22/1/4 19/1/4
f 19/1/5 22/1/5 21/1/5
f 19/1/5 21/1/5 20/1/5
f 25/1/1 26/1/1 27/1/1
f 25/1/1 27/1/1 28/1/1
f 29/1/2 30/1/2 31/1/2
f 29/1/2 31/1/2 32/1/2
f 28/1/3 29/1/3 32/1/3
f 28/1/3 32/1/3 25/1/3
f 26/1/4 31/1/4 30/1/4
f 26/1/4 30/1/4 27/1/4
f 27/1/5 30/1/5 29/1/5
f 27/1/5 29/1/5 28/1/5
f 25/1/6 32/1/6 31/1/6
f 25/1/6 31/1/6 26/1/6
f 33/2/1 34/2/1 35/2/1
f 33/2/1 35/2/1 36/2/1
f 37/2/2 38/2/2 39/2/2
f 37/2/2 39/2/2 40/2/2
f 34/2/4 39/2/4 38/2/4
f 34/2/4 38/2/4 35/2/4
f 35/2/5 38/2/5 37/2/5
f 35/2/5 37/2/5 36/2/5
f 33/2/6 40/2/6 39/2/6
f 33/2/6 39/2/6 34/2/6
f 41/2/1 42/2/1 34/2/1
f 41/2/1 34/2/1 33/2/1
f 43/2/2 44/2/2 45/2/2
f 43/2/2 45/2/2 46/2/2
f 42/2/4 45/2/4 44/2/4
f 42/2/4 44/2/4 34/2/4
f 41/2/6 46/2/6 45/2/6
f 41/2/6 45/2/6 42/2/6
f 47/2/1 48/2/1 49/2/1
f 47/2/1 49/2/1 50/2/1
f 40/2/2 39/2/2 51/2/2
f 40/2/2 51/2/2 52/2/2
f 48/2/4 51/2/4 39/2/4
f 48/2/4 39/2/4 49/2/4
f 47/2/6 52/2/6 51/2/6
f 47/2/6 51/2/6 48/2/6
