# Procedurally generated by dev-env-utils/scripts/gen_guardrails_thrie.py -- do not hand edit
mtllib guardrail_thrie_beam_double.mtl
o guardrail_thrie_beam_double_fill_down
v 1.000000 0.337500 0.250000
v 1.414214 0.337500 0.250000
v 1.414214 0.900000 0.250000
v 1.000000 0.900000 0.250000
v 1.414214 0.900000 0.150000
v 1.000000 0.900000 0.150000
v 1.414214 0.850000 0.068750
v 1.000000 0.850000 0.068750
v 1.414214 0.812500 0.050000
v 1.000000 0.812500 0.050000
v 1.414214 0.775000 0.068750
v 1.000000 0.775000 0.068750
v 1.414214 0.720000 0.140625
v 1.000000 0.720000 0.140625
v 1.414214 0.663750 0.068750
v 1.000000 0.663750 0.068750
v 1.414214 0.618750 0.050000
v 1.000000 0.618750 0.050000
v 1.414214 0.573750 0.068750
v 1.000000 0.573750 0.068750
v 1.414214 0.517500 0.140625
v 1.000000 0.517500 0.140625
v 1.414214 0.462500 0.068750
v 1.000000 0.462500 0.068750
v 1.414214 0.425000 0.050000
v 1.000000 0.425000 0.050000
v 1.414214 0.387500 0.068750
v 1.000000 0.387500 0.068750
v 1.414214 0.337500 0.150000
v 1.000000 0.337500 0.150000
v 1.000000 0.337500 0.850000
v 1.414214 0.337500 0.850000
v 1.414214 0.387500 0.931250
v 1.000000 0.387500 0.931250
v 1.414214 0.425000 0.950000
v 1.000000 0.425000 0.950000
v 1.414214 0.462500 0.931250
v 1.000000 0.462500 0.931250
v 1.414214 0.517500 0.859375
v 1.000000 0.517500 0.859375
v 1.414214 0.573750 0.931250
v 1.000000 0.573750 0.931250
v 1.414214 0.618750 0.950000
v 1.000000 0.618750 0.950000
v 1.414214 0.663750 0.931250
v 1.000000 0.663750 0.931250
v 1.414214 0.720000 0.859375
v 1.000000 0.720000 0.859375
v 1.414214 0.775000 0.931250
v 1.000000 0.775000 0.931250
v 1.414214 0.812500 0.950000
v 1.000000 0.812500 0.950000
v 1.414214 0.850000 0.931250
v 1.000000 0.850000 0.931250
v 1.414214 0.900000 0.850000
v 1.000000 0.900000 0.850000
v 1.414214 0.900000 0.750000
v 1.000000 0.900000 0.750000
v 1.414214 0.337500 0.750000
v 1.000000 0.337500 0.750000
vt 0.890625 0.125000
vn 0.000000 0.000000 1.000000
vn -0.000000 1.000000 0.000000
vn 0.000000 0.851658 -0.524097
vn 0.000000 0.447214 -0.894427
vn 0.000000 -0.447214 -0.894427
vn 0.000000 -0.794162 -0.607706
vn 0.000000 0.787505 -0.616308
vn 0.000000 0.384615 -0.923077
vn 0.000000 -0.384615 -0.923077
vn 0.000000 -0.787505 -0.616308
vn 0.000000 0.794162 -0.607706
vn 0.000000 -0.851658 -0.524097
vn 0.000000 -1.000000 0.000000
vn 0.000000 -0.851658 0.524097
vn 0.000000 -0.447214 0.894427
vn -0.000000 0.447214 0.894427
vn -0.000000 0.794162 0.607706
vn 0.000000 -0.787505 0.616308
vn 0.000000 -0.384615 0.923077
vn -0.000000 0.384615 0.923077
vn -0.000000 0.787505 0.616308
vn 0.000000 -0.794162 0.607706
vn -0.000000 0.851658 0.524097
vn 0.000000 0.000000 -1.000000
usemtl body
f 1/1/1 2/1/1 3/1/1
f 1/1/1 3/1/1 4/1/1
f 4/1/2 3/1/2 5/1/2
f 4/1/2 5/1/2 6/1/2
f 6/1/3 5/1/3 7/1/3
f 6/1/3 7/1/3 8/1/3
f 8/1/4 7/1/4 9/1/4
f 8/1/4 9/1/4 10/1/4
f 10/1/5 9/1/5 11/1/5
f 10/1/5 11/1/5 12/1/5
f 12/1/6 11/1/6 13/1/6
f 12/1/6 13/1/6 14/1/6
f 14/1/7 13/1/7 15/1/7
f 14/1/7 15/1/7 16/1/7
f 16/1/8 15/1/8 17/1/8
f 16/1/8 17/1/8 18/1/8
f 18/1/9 17/1/9 19/1/9
f 18/1/9 19/1/9 20/1/9
f 20/1/10 19/1/10 21/1/10
f 20/1/10 21/1/10 22/1/10
f 22/1/11 21/1/11 23/1/11
f 22/1/11 23/1/11 24/1/11
f 24/1/4 23/1/4 25/1/4
f 24/1/4 25/1/4 26/1/4
f 26/1/5 25/1/5 27/1/5
f 26/1/5 27/1/5 28/1/5
f 28/1/12 27/1/12 29/1/12
f 28/1/12 29/1/12 30/1/12
f 30/1/13 29/1/13 2/1/13
f 30/1/13 2/1/13 1/1/13
f 31/1/14 32/1/14 33/1/14
f 31/1/14 33/1/14 34/1/14
f 34/1/15 33/1/15 35/1/15
f 34/1/15 35/1/15 36/1/15
f 36/1/16 35/1/16 37/1/16
f 36/1/16 37/1/16 38/1/16
f 38/1/17 37/1/17 39/1/17
f 38/1/17 39/1/17 40/1/17
f 40/1/18 39/1/18 41/1/18
f 40/1/18 41/1/18 42/1/18
f 42/1/19 41/1/19 43/1/19
f 42/1/19 43/1/19 44/1/19
f 44/1/20 43/1/20 45/1/20
f 44/1/20 45/1/20 46/1/20
f 46/1/21 45/1/21 47/1/21
f 46/1/21 47/1/21 48/1/21
f 48/1/22 47/1/22 49/1/22
f 48/1/22 49/1/22 50/1/22
f 50/1/15 49/1/15 51/1/15
f 50/1/15 51/1/15 52/1/15
f 52/1/16 51/1/16 53/1/16
f 52/1/16 53/1/16 54/1/16
f 54/1/23 53/1/23 55/1/23
f 54/1/23 55/1/23 56/1/23
f 56/1/2 55/1/2 57/1/2
f 56/1/2 57/1/2 58/1/2
f 58/1/24 57/1/24 59/1/24
f 58/1/24 59/1/24 60/1/24
f 60/1/13 59/1/13 32/1/13
f 60/1/13 32/1/13 31/1/13
