# Procedurally generated by dev-env-utils/scripts/gen_guardrail_ends.py -- do not hand edit
mtllib guardrail_end_terminal.mtl
o guardrail_end_terminal_mirrored
v 1.000000 0.475000 0.150000
v 1.000000 0.531250 0.068750
v 0.901316 0.531250 0.068750
v 0.901316 0.475000 0.150000
v 1.000000 0.475000 0.250000
v 0.901316 0.475000 0.250000
v 0.901316 0.531250 0.168750
v 1.000000 0.531250 0.168750
v 1.000000 0.575000 0.050000
v 0.901316 0.575000 0.050000
v 0.901316 0.575000 0.150000
v 1.000000 0.575000 0.150000
v 1.000000 0.612500 0.068750
v 0.901316 0.612500 0.068750
v 0.901316 0.612500 0.168750
v 1.000000 0.612500 0.168750
v 1.000000 0.631250 0.140625
v 0.901316 0.631250 0.140625
v 0.901316 0.631250 0.240625
v 1.000000 0.631250 0.240625
v 1.000000 0.650000 0.068750
v 0.901316 0.650000 0.068750
v 0.901316 0.650000 0.168750
v 1.000000 0.650000 0.168750
v 1.000000 0.687500 0.050000
v 0.901316 0.687500 0.050000
v 0.901316 0.687500 0.150000
v 1.000000 0.687500 0.150000
v 1.000000 0.731250 0.068750
v 0.901316 0.731250 0.068750
v 0.901316 0.731250 0.168750
v 1.000000 0.731250 0.168750
v 1.000000 0.787500 0.150000
v 0.901316 0.787500 0.150000
v 0.901316 0.787500 0.250000
v 1.000000 0.787500 0.250000
v 0.802578 0.531250 0.068750
v 0.802796 0.475000 0.150000
v 0.802960 0.475000 0.250000
v 0.802742 0.531250 0.168750
v 0.802481 0.575000 0.050000
v 0.802646 0.575000 0.150000
v 0.802456 0.612500 0.068750
v 0.802620 0.612500 0.168750
v 0.802546 0.631250 0.140625
v 0.802710 0.631250 0.240625
v 0.802399 0.650000 0.068750
v 0.802564 0.650000 0.168750
v 0.802312 0.687500 0.050001
v 0.802477 0.687500 0.150000
v 0.802277 0.731250 0.068751
v 0.802442 0.731250 0.168750
v 0.802326 0.787500 0.150001
v 0.802491 0.787500 0.250001
v 0.703549 0.530950 0.069079
v 0.704886 0.474703 0.150320
v 0.705824 0.474703 0.250316
v 0.704488 0.530950 0.169075
v 0.702927 0.574698 0.050334
v 0.703865 0.574698 0.150330
v 0.702720 0.612196 0.069087
v 0.703658 0.612196 0.169082
v 0.703203 0.630945 0.140960
v 0.704141 0.630945 0.240956
v 0.702337 0.649694 0.069090
v 0.703276 0.649694 0.169086
v 0.701779 0.687192 0.050345
v 0.702717 0.687192 0.150340
v 0.701508 0.730940 0.069098
v 0.702446 0.730940 0.169094
v 0.701696 0.787187 0.150350
v 0.702635 0.787187 0.250346
v 0.604184 0.529216 0.070630
v 0.607445 0.472986 0.151828
v 0.609626 0.472986 0.251804
v 0.606366 0.529216 0.170606
v 0.602618 0.572951 0.051910
v 0.604800 0.572951 0.151886
v 0.602035 0.610437 0.070677
v 0.604217 0.610437 0.170653
v 0.603107 0.629181 0.142546
v 0.605289 0.629181 0.242522
v 0.601043 0.647924 0.070698
v 0.603225 0.647924 0.170675
v 0.599642 0.685411 0.051975
v 0.601824 0.685411 0.151951
v 0.598894 0.729146 0.070745
v 0.601076 0.729146 0.170722
v 0.599179 0.785376 0.152008
v 0.601360 0.785376 0.251985
v 0.504672 0.525670 0.073458
v 0.510028 0.469479 0.154572
v 0.513476 0.469479 0.254512
v 0.508121 0.525670 0.173399
v 0.502039 0.569375 0.054788
v 0.505488 0.569375 0.154728
v 0.500983 0.606837 0.073586
v 0.504432 0.606837 0.173526
v 0.502611 0.625567 0.145447
v 0.506059 0.625567 0.245388
v 0.499281 0.644298 0.073644
v 0.502729 0.644298 0.173585
v 0.496931 0.681759 0.054964
v 0.500380 0.681759 0.154905
v 0.495592 0.725464 0.073772
v 0.499040 0.725464 0.173712
v 0.495840 0.781656 0.155061
v 0.499289 0.781656 0.255002
v 0.405078 0.520133 0.077566
v 0.412609 0.464005 0.158551
v 0.417323 0.464005 0.258440
v 0.409792 0.520133 0.177455
v 0.401315 0.563788 0.058973
v 0.406030 0.563788 0.158862
v 0.399732 0.601206 0.077819
v 0.404446 0.601206 0.177708
v 0.401887 0.619916 0.149672
v 0.406601 0.619916 0.249561
v 0.397265 0.638625 0.077935
v 0.401979 0.638625 0.177824
v 0.393914 0.676044 0.059322
v 0.398628 0.676044 0.159211
v 0.391919 0.719699 0.078187
v 0.396633 0.719699 0.178076
v 0.392049 0.775826 0.159522
v 0.396763 0.775826 0.259411
v 0.305427 0.512471 0.082956
v 0.315188 0.456436 0.163767
v 0.321165 0.456436 0.263588
v 0.311404 0.512471 0.182777
v 0.300491 0.556054 0.064468
v 0.306469 0.556054 0.164289
v 0.298343 0.593410 0.083380
v 0.304320 0.593410 0.183202
v 0.301004 0.612089 0.155225
v 0.306981 0.612089 0.255046
v 0.295073 0.630767 0.083576
v 0.301050 0.630767 0.183397
v 0.290682 0.668124 0.065055
v 0.296660 0.668124 0.164877
v 0.287989 0.711707 0.084000
v 0.293966 0.711707 0.183822
v 0.287941 0.767742 0.165399
v 0.293918 0.767742 0.265220
v 0.205734 0.502579 0.089628
v 0.217764 0.446668 0.170219
v 0.225002 0.446668 0.269957
v 0.212972 0.502579 0.189366
v 0.199595 0.546066 0.071275
v 0.206833 0.546066 0.171012
v 0.196853 0.583340 0.090273
v 0.204090 0.583340 0.190011
v 0.200005 0.601977 0.162108
v 0.207243 0.601977 0.261846
v 0.192753 0.620614 0.090570
v 0.199991 0.620614 0.190308
v 0.187297 0.657888 0.072167
v 0.194535 0.657888 0.171905
v 0.183872 0.701375 0.091215
v 0.191109 0.701375 0.190953
v 0.183603 0.757286 0.172698
v 0.190841 0.757286 0.272436
v 0.106013 0.490370 0.097584
v 0.120337 0.434616 0.177907
v 0.128831 0.434616 0.277546
v 0.114507 0.490370 0.197222
v 0.098647 0.533735 0.079394
v 0.107141 0.533735 0.179032
v 0.095291 0.570905 0.098498
v 0.103786 0.570905 0.198136
v 0.098923 0.589489 0.170324
v 0.107417 0.589489 0.269962
v 0.090343 0.608074 0.098919
v 0.098838 0.608074 0.198558
v 0.083802 0.645244 0.080659
v 0.092297 0.645244 0.180298
v 0.079622 0.688609 0.099834
v 0.088117 0.688609 0.199472
v 0.079102 0.744363 0.181423
v 0.087596 0.744363 0.281061
v 0.006271 0.475767 0.106822
v 0.022905 0.420203 0.186832
v 0.032653 0.420203 0.286355
v 0.016018 0.475767 0.206346
v -0.002335 0.518984 0.088825
v 0.007412 0.518984 0.188349
v -0.006317 0.556026 0.108055
v 0.003430 0.556026 0.207579
v -0.002216 0.574548 0.179872
v 0.007531 0.574548 0.279396
v -0.012127 0.593069 0.108624
v -0.002380 0.593069 0.208148
v -0.019765 0.630112 0.090532
v -0.010017 0.630112 0.190056
v -0.024715 0.673329 0.109857
v -0.014968 0.673329 0.209381
v -0.025510 0.728893 0.191574
v -0.015763 0.728893 0.291097
v -0.093483 0.458703 0.117344
v -0.074531 0.403363 0.196993
v -0.063535 0.403363 0.296386
v -0.082487 0.458703 0.216737
v -0.103336 0.501745 0.099569
v -0.092340 0.501745 0.198963
v -0.107953 0.538638 0.118944
v -0.096957 0.538638 0.218338
v -0.103389 0.557084 0.190753
v -0.092393 0.557084 0.290147
v -0.114632 0.575531 0.119683
v -0.103636 0.575531 0.219077
v -0.123372 0.612424 0.101786
v -0.112376 0.612424 0.201179
v -0.129102 0.655466 0.121284
v -0.118106 0.655466 0.220678
v -0.130186 0.710805 0.203150
v -0.119190 0.710805 0.302543
v -0.193240 0.439117 0.129148
v -0.171972 0.384036 0.208391
v -0.159733 0.384036 0.307639
v -0.181001 0.439117 0.228396
v -0.204342 0.481958 0.111625
v -0.192104 0.481958 0.210873
v -0.209597 0.518678 0.131165
v -0.197358 0.518678 0.230413
v -0.204575 0.537038 0.202965
v -0.192336 0.537038 0.302213
v -0.217146 0.555398 0.132096
v -0.204908 0.555398 0.231344
v -0.226991 0.592119 0.114418
v -0.214752 0.592119 0.213666
v -0.233503 0.634959 0.134113
v -0.221265 0.634959 0.233361
v -0.234884 0.690040 0.216148
v -0.222645 0.690040 0.315397
v -0.292995 0.416956 0.142234
v -0.269419 0.362169 0.221025
v -0.255943 0.362169 0.320113
v -0.279518 0.416956 0.241321
v -0.305342 0.459569 0.124990
v -0.291866 0.459569 0.224078
v -0.311233 0.496094 0.144714
v -0.297757 0.496094 0.243802
v -0.305756 0.514356 0.216506
v -0.292280 0.514356 0.315594
v -0.319651 0.532619 0.145859
v -0.306174 0.532619 0.244947
v -0.330595 0.569144 0.128425
v -0.317119 0.569144 0.227513
v -0.337889 0.611757 0.148339
v -0.324413 0.611757 0.247427
v -0.339566 0.666544 0.230565
v -0.326090 0.666544 0.329653
v -0.392740 0.392170 0.156600
v -0.366872 0.337709 0.234897
v -0.352165 0.337709 0.333810
v -0.378033 0.392170 0.255513
v -0.406324 0.434529 0.139664
v -0.391617 0.434529 0.238576
v -0.412846 0.470837 0.159590
v -0.398138 0.470837 0.258502
v -0.406915 0.488991 0.231373
v -0.392207 0.488991 0.330286
v -0.422125 0.507144 0.160969
v -0.407418 0.507144 0.259882
v -0.434162 0.543452 0.143803
v -0.419455 0.543452 0.242716
v -0.442230 0.585811 0.163959
v -0.427523 0.585811 0.262871
v -0.444200 0.640272 0.246395
v -0.429492 0.640272 0.345307
v -0.492472 0.364714 0.172246
v -0.464332 0.310611 0.250007
v -0.448400 0.310611 0.348729
v -0.476541 0.364714 0.270969
v -0.507278 0.406794 0.155643
v -0.491347 0.406794 0.254366
v -0.514421 0.442863 0.175789
v -0.498490 0.442863 0.274511
v -0.508036 0.460897 0.247563
v -0.492105 0.460897 0.346286
v -0.524552 0.478931 0.177423
v -0.508621 0.478931 0.276146
v -0.537670 0.515000 0.160548
v -0.521738 0.515000 0.259270
v -0.546502 0.557080 0.180965
v -0.530570 0.557080 0.279688
v -0.548753 0.611183 0.263630
v -0.532822 0.611183 0.362353
v -0.592184 0.334545 0.189171
v -0.561799 0.280831 0.266354
v -0.544651 0.280831 0.364872
v -0.575036 0.334545 0.287689
v -0.608195 0.376322 0.172926
v -0.591047 0.376322 0.271444
v -0.615948 0.412132 0.193307
v -0.598800 0.412132 0.291826
v -0.609107 0.430036 0.265072
v -0.591958 0.430036 0.363591
v -0.626916 0.447941 0.195216
v -0.609768 0.447941 0.293735
v -0.641099 0.483750 0.178653
v -0.623951 0.483750 0.277172
v -0.650680 0.525528 0.199353
v -0.633532 0.525528 0.297871
v -0.653199 0.579242 0.282263
v -0.636051 0.579242 0.380781
v -0.691872 0.301624 0.207372
v -0.659274 0.248328 0.283939
v -0.640917 0.248328 0.382239
v -0.673515 0.301624 0.305672
v -0.709068 0.343076 0.191509
v -0.690710 0.343076 0.289809
v -0.717414 0.378607 0.212141
v -0.699057 0.378607 0.310442
v -0.710114 0.396372 0.283896
v -0.691757 0.396372 0.382196
v -0.729203 0.414138 0.214343
v -0.710846 0.414138 0.312644
v -0.744434 0.449668 0.198113
v -0.726076 0.449668 0.296414
v -0.754745 0.491121 0.219113
v -0.736388 0.491121 0.317413
v -0.757512 0.544417 0.302284
v -0.739155 0.544417 0.400585
v -0.791533 0.265914 0.226847
v -0.756758 0.213063 0.302762
v -0.737199 0.213063 0.400830
v -0.771975 0.265914 0.324916
v -0.809888 0.307021 0.211388
v -0.790330 0.307021 0.309457
v -0.818811 0.342255 0.232287
v -0.799252 0.342255 0.330356
v -0.811048 0.359872 0.304029
v -0.791490 0.359872 0.402098
v -0.831400 0.377489 0.234798
v -0.811842 0.377489 0.332867
v -0.847657 0.412723 0.218921
v -0.828099 0.412723 0.316990
v -0.858678 0.453830 0.240238
v -0.839120 0.453830 0.338307
v -0.861671 0.506681 0.323685
v -0.842113 0.506681 0.421754
v -0.890692 0.227620 0.247372
v -0.854845 0.175000 0.322948
v -0.834689 0.175000 0.420895
v -0.870537 0.227620 0.345320
v -0.909616 0.268547 0.232123
v -0.889460 0.268547 0.330071
v -0.918817 0.303627 0.253159
v -0.898662 0.303627 0.351107
v -0.910821 0.321167 0.324895
v -0.890666 0.321167 0.422843
v -0.931798 0.338707 0.255831
v -0.911643 0.338707 0.353778
v -0.948558 0.373787 0.240137
v -0.928403 0.373787 0.338084
v -0.959923 0.414714 0.261618
v -0.939768 0.414714 0.359566
v -0.963018 0.467334 0.345207
v -0.942863 0.467334 0.443155
v 0.912500 0.462500 0.400000
v 0.912500 0.800000 0.400000
v 0.912500 0.800000 0.250000
v 0.912500 0.462500 0.250000
v 0.712500 0.462500 0.250000
v 0.712500 0.800000 0.250000
v 0.712500 0.800000 0.400000
v 0.712500 0.462500 0.400000
v 0.937500 0.000000 0.600000
v 0.937500 0.825000 0.600000
v 0.937500 0.825000 0.375000
v 0.937500 0.000000 0.375000
v 0.687500 0.000000 0.375000
v 0.687500 0.825000 0.375000
v 0.687500 0.825000 0.600000
v 0.687500 0.000000 0.600000
v 0.537500 0.453362 0.407322
v 0.537500 0.790862 0.407322
v 0.537500 0.790862 0.257322
v 0.537500 0.453362 0.257322
v 0.337500 0.453362 0.257322
v 0.337500 0.790862 0.257322
v 0.337500 0.790862 0.407322
v 0.337500 0.453362 0.407322
v 0.562500 0.000000 0.607322
v 0.562500 0.815862 0.607322
v 0.562500 0.815862 0.382322
v 0.562500 0.000000 0.382322
v 0.312500 0.000000 0.382322
v 0.312500 0.815862 0.382322
v 0.312500 0.815862 0.607322
v 0.312500 0.000000 0.607322
v 0.250000 0.275000 0.025000
v -1.000000 0.006250 0.025000
v -1.000000 0.006250 0.475000
v 0.250000 0.275000 0.475000
v 0.250000 0.325000 0.475000
v -1.000000 0.056250 0.475000
v -1.000000 0.056250 0.025000
v 0.250000 0.325000 0.025000
v -0.812500 0.018750 0.512500
v -0.812500 0.462500 0.512500
v -0.812500 0.462500 0.112500
v -0.812500 0.018750 0.112500
v -1.100000 0.018750 0.112500
v -1.100000 0.018750 0.512500
v -1.100000 0.462500 0.512500
v -1.100000 0.462500 0.112500
vt 0.890625 0.125000
vt 0.890625 0.625000
vt 0.000000 0.651376
vt 0.309806 0.651376
vt 0.309806 0.000000
vt 0.000000 0.000000
vt 0.431034 0.651376
vt 0.431034 0.000000
vn -0.000000 -0.822192 -0.569210
vn -0.000000 -0.632729 -0.774374
vn 0.000000 0.822192 0.569210
vn 0.000000 0.632729 0.774374
vn -0.000000 0.029374 -0.999569
vn 0.000000 -0.029374 0.999569
vn -0.000000 0.776839 -0.629699
vn 0.000000 -0.776839 0.629699
vn -0.000000 0.000000 -1.000000
vn 0.000000 -0.000000 1.000000
vn -0.000000 -0.776839 -0.629699
vn 0.000000 0.776839 0.629699
vn -0.000000 -0.029374 -0.999569
vn 0.000000 0.029374 0.999569
vn -0.000000 0.632729 -0.774374
vn 0.000000 -0.632729 0.774374
vn -0.000000 0.822192 -0.569210
vn 0.000000 -0.822192 0.569210
vn 0.000000 -1.000000 0.000000
vn -0.000000 1.000000 -0.000000
vn -0.000322 -0.632728 -0.774374
vn 0.000300 -0.822191 -0.569211
vn -0.000300 0.822191 0.569211
vn 0.000322 0.632728 0.774374
vn -0.001688 0.029374 -0.999567
vn 0.001688 -0.029374 0.999567
vn -0.002203 0.776838 -0.629696
vn 0.002203 -0.776838 0.629696
vn -0.001644 0.000000 -0.999999
vn 0.001644 -0.000000 0.999999
vn 0.000132 -0.776838 -0.629700
vn -0.000132 0.776838 0.629700
vn -0.001599 -0.029374 -0.999567
vn 0.001599 0.029374 0.999567
vn -0.002224 0.632728 -0.774371
vn 0.002224 -0.632728 0.774371
vn -0.002171 0.822191 -0.569207
vn 0.002171 -0.822191 0.569207
vn 0.001503 -0.999999 -0.000002
vn -0.001503 0.999999 0.000002
vn -0.000808 -0.632696 -0.774400
vn 0.003050 -0.822149 -0.569264
vn -0.003050 0.822149 0.569264
vn 0.000808 0.632696 0.774400
vn -0.009678 0.029372 -0.999522
vn 0.009678 -0.029372 0.999522
vn -0.013836 0.776799 -0.629597
vn 0.013836 -0.776799 0.629597
vn -0.009383 0.000000 -0.999956
vn 0.009383 -0.000000 0.999956
vn 0.002020 -0.776799 -0.629746
vn -0.002020 0.776799 0.629746
vn -0.009079 -0.029372 -0.999527
vn 0.009079 0.029372 0.999527
vn -0.013723 0.632696 -0.774279
vn 0.013723 -0.632696 0.774279
vn -0.013731 0.822149 -0.569106
vn 0.013731 -0.822149 0.569106
vn 0.010205 -0.999948 -0.000096
vn -0.010205 0.999948 0.000096
vn -0.000157 -0.632507 -0.774555
vn 0.009330 -0.821904 -0.569549
vn -0.009330 0.821904 0.569549
vn 0.000157 0.632507 0.774555
vn -0.022583 0.029363 -0.999314
vn 0.022583 -0.029363 0.999314
vn -0.034285 0.776567 -0.629101
vn 0.034285 -0.776567 0.629101
vn -0.021816 0.000000 -0.999762
vn 0.021816 -0.000000 0.999762
vn 0.006811 -0.776567 -0.629997
vn -0.006811 0.776567 0.629997
vn -0.021030 -0.029363 -0.999348
vn 0.021030 0.029363 0.999348
vn -0.033630 0.632507 -0.773824
vn 0.033630 -0.632507 0.773824
vn -0.034165 0.821904 -0.568600
vn 0.034165 -0.821904 0.568600
vn 0.026451 -0.999650 -0.000577
vn -0.026451 0.999650 0.000577
vn 0.002020 -0.632075 -0.774904
vn 0.017697 -0.821343 -0.570159
vn -0.017697 0.821343 0.570159
vn -0.002020 0.632075 0.774904
vn -0.035806 0.029343 -0.998928
vn 0.035806 -0.029343 0.998928
vn -0.056985 0.776037 -0.628107
vn 0.056985 -0.776037 0.628107
vn -0.034487 0.000000 -0.999405
vn 0.034487 -0.000000 0.999405
vn 0.013552 -0.776037 -0.630541
vn -0.013552 0.776037 0.630541
vn -0.033139 -0.029343 -0.999020
vn 0.033139 0.029343 0.999020
vn -0.055432 0.632075 -0.772922
vn 0.055432 -0.632075 0.772922
vn -0.056958 0.821343 -0.567583
vn 0.056958 -0.821343 0.567583
vn 0.045400 -0.998968 -0.001567
vn -0.045400 0.998968 0.001567
vn 0.005123 -0.631355 -0.775477
vn 0.027261 -0.820407 -0.571130
vn -0.027261 0.820407 0.571130
vn -0.005123 0.631355 0.775477
vn -0.049054 0.029310 -0.998366
vn 0.049054 -0.029310 0.998366
vn -0.080796 0.775152 -0.626587
vn 0.080796 -0.775152 0.626587
vn -0.047142 0.000000 -0.998888
vn 0.047142 -0.000000 0.998888
vn 0.021425 -0.775152 -0.631411
vn -0.021425 0.775152 0.631411
vn -0.045189 -0.029310 -0.998548
vn 0.045189 0.029310 0.998548
vn -0.078134 0.631355 -0.771548
vn 0.078134 -0.631355 0.771548
vn -0.080928 0.820407 -0.566024
vn 0.080928 -0.820407 0.566024
vn 0.065793 -0.997828 -0.003105
vn -0.065793 0.997828 0.003105
vn 0.008881 -0.630310 -0.776293
vn 0.037664 -0.819050 -0.572485
vn -0.037664 0.819050 0.572485
vn -0.008881 0.630310 0.776293
vn -0.062309 0.029261 -0.997628
vn 0.062309 -0.029261 0.997628
vn -0.105373 0.773870 -0.624517
vn 0.105373 -0.773870 0.624517
vn -0.059774 0.000000 -0.998212
vn 0.059774 -0.000000 0.998212
vn 0.030094 -0.773870 -0.632629
vn -0.030094 0.773870 0.632629
vn -0.057187 -0.029261 -0.997935
vn 0.057187 0.029261 0.997935
vn -0.101456 0.630310 -0.769686
vn 0.101456 -0.630310 0.769686
vn -0.105712 0.819050 -0.563899
vn 0.105712 -0.819050 0.563899
vn 0.087191 -0.996178 -0.005221
vn -0.087191 0.996178 0.005221
vn 0.013119 -0.628917 -0.777362
vn 0.048680 -0.817239 -0.574239
vn -0.048680 0.817239 0.574239
vn -0.013119 0.628917 0.777362
vn -0.075557 0.029197 -0.996714
vn 0.075557 -0.029197 0.996714
vn -0.130496 0.772159 -0.621885
vn 0.130496 -0.772159 0.621885
vn -0.072377 0.000000 -0.997377
vn 0.072377 -0.000000 0.997377
vn 0.039344 -0.772159 -0.634210
vn -0.039344 0.772159 0.634210
vn -0.069135 -0.029197 -0.997180
vn 0.069135 0.029197 0.997180
vn -0.125214 0.628917 -0.767323
vn 0.125214 -0.628917 0.767323
vn -0.131076 0.817239 -0.561195
vn 0.131076 -0.817239 0.561195
vn 0.109315 -0.993976 -0.007933
vn -0.109315 0.993976 0.007933
vn 0.017710 -0.627156 -0.778693
vn 0.060138 -0.814950 -0.576402
vn -0.060138 0.814950 0.576402
vn -0.017710 0.627156 0.778693
vn -0.088786 0.029115 -0.995625
vn 0.088786 -0.029115 0.995625
vn -0.155996 0.769997 -0.618684
vn 0.155996 -0.769997 0.618684
vn -0.084946 0.000000 -0.996386
vn 0.084946 -0.000000 0.996386
vn 0.049015 -0.769997 -0.636162
vn -0.049015 0.769997 0.636162
vn -0.081034 -0.029115 -0.996286
vn 0.081034 0.029115 0.996286
vn -0.149270 0.627156 -0.764457
vn 0.149270 -0.627156 0.764457
vn -0.156843 0.814950 -0.557903
vn 0.156843 -0.814950 0.557903
vn 0.131952 -0.991192 -0.011250
vn -0.131952 0.991192 0.011250
vn 0.022547 -0.625015 -0.780287
vn 0.071899 -0.812169 -0.578975
vn -0.071899 0.812169 0.578975
vn -0.022547 0.625015 0.780287
vn -0.101984 0.029016 -0.994363
vn 0.101984 -0.029016 0.994363
vn -0.181736 0.767369 -0.614912
vn 0.181736 -0.767369 0.614912
vn -0.097475 0.000000 -0.995238
vn 0.097475 -0.000000 0.995238
vn 0.058976 -0.767369 -0.638488
vn -0.058976 0.767369 0.638488
vn -0.092882 -0.029016 -0.995254
vn 0.092882 0.029016 0.995254
vn -0.173511 0.625015 -0.761085
vn 0.173511 -0.625015 0.761085
vn -0.182866 0.812169 -0.554023
vn 0.182866 -0.812169 0.554023
vn 0.154930 -0.987809 -0.015174
vn -0.154930 0.987809 0.015174
vn 0.027539 -0.622488 -0.782144
vn 0.083841 -0.808886 -0.581958
vn -0.083841 0.808886 0.581958
vn -0.027539 0.622488 0.782144
vn -0.115141 0.028898 -0.992929
vn 0.115141 -0.028898 0.992929
vn -0.207592 0.764267 -0.610575
vn 0.207592 -0.764267 0.610575
vn -0.109957 0.000000 -0.993936
vn 0.109957 -0.000000 0.993936
vn 0.069113 -0.764267 -0.641186
vn -0.069113 0.764267 0.641186
vn -0.104678 -0.028898 -0.994086
vn 0.104678 0.028898 0.994086
vn -0.197835 0.622488 -0.757212
vn 0.197835 -0.622488 0.757212
vn -0.209018 0.808886 -0.549559
vn 0.209018 -0.808886 0.549559
vn 0.178097 -0.983816 -0.019702
vn -0.178097 0.983816 0.019702
vn 0.032606 -0.619575 -0.784260
vn 0.095858 -0.805100 -0.585342
vn -0.095858 0.805100 0.585342
vn -0.032606 0.619575 0.784260
vn -0.128248 0.028763 -0.991325
vn 0.128248 -0.028763 0.991325
vn -0.233459 0.760690 -0.605680
vn 0.233459 -0.760690 0.605680
vn -0.122387 0.000000 -0.992482
vn 0.122387 -0.000000 0.992482
vn 0.079324 -0.760690 -0.644250
vn -0.079324 0.760690 0.644250
vn -0.116421 -0.028763 -0.992783
vn 0.116421 0.028763 0.992783
vn -0.222153 0.619575 -0.752844
vn 0.222153 -0.619575 0.752844
vn -0.235186 0.805100 -0.544520
vn 0.235186 -0.805100 0.544520
vn 0.201318 -0.979211 -0.024825
vn -0.201318 0.979211 0.024825
vn 0.037675 -0.616279 -0.786626
vn 0.107852 -0.800817 -0.589118
vn -0.107852 0.800817 0.589118
vn -0.037675 0.616279 0.786626
vn -0.141296 0.028610 -0.989554
vn 0.141296 -0.028610 0.989554
vn -0.259237 0.756643 -0.600239
vn 0.259237 -0.756643 0.600239
vn -0.134761 0.000000 -0.990878
vn 0.134761 -0.000000 0.990878
vn 0.089520 -0.756643 -0.647671
vn -0.089520 0.756643 0.647671
vn -0.128109 -0.028610 -0.991347
vn 0.128109 0.028610 0.991347
vn -0.246385 0.616279 -0.747994
vn 0.246385 -0.616279 0.747994
vn -0.261266 0.800817 -0.538918
vn 0.261266 -0.800817 0.538918
vn 0.224472 -0.974002 -0.030528
vn -0.224472 0.974002 0.030528
vn 0.042680 -0.612609 -0.789233
vn 0.119736 -0.796048 -0.593271
vn -0.119736 0.796048 0.593271
vn -0.042680 0.612609 0.789233
vn -0.154276 0.028440 -0.987618
vn 0.154276 -0.028440 0.987618
vn -0.284838 0.752137 -0.594270
vn 0.284838 -0.752137 0.594270
vn -0.147071 0.000000 -0.989126
vn 0.147071 -0.000000 0.989126
vn 0.099618 -0.752137 -0.651433
vn -0.099618 0.752137 0.651433
vn -0.139739 -0.028440 -0.989780
vn 0.139739 0.028440 0.989780
vn -0.270456 0.612609 -0.742673
vn 0.270456 -0.612609 0.742673
vn -0.287165 0.796048 -0.532770
vn 0.287165 -0.796048 0.532770
vn 0.247449 -0.968202 -0.036793
vn -0.247449 0.968202 0.036793
vn 0.047562 -0.608578 -0.792067
vn 0.131431 -0.790810 -0.597784
vn -0.131431 0.790810 0.597784
vn -0.047562 0.608578 0.792067
vn -0.167180 0.028253 -0.985522
vn 0.167180 -0.028253 0.985522
vn -0.310181 0.747188 -0.587790
vn 0.310181 -0.747188 0.587790
vn -0.159313 0.000000 -0.987228
vn 0.159313 -0.000000 0.987228
vn 0.109542 -0.747188 -0.655523
vn -0.109542 0.747188 0.655523
vn -0.151309 -0.028253 -0.988083
vn 0.151309 0.028253 0.988083
vn -0.294299 0.608578 -0.736900
vn 0.294299 -0.608578 0.736900
vn -0.312797 0.790810 -0.526097
vn 0.312797 -0.790810 0.526097
vn 0.270148 -0.961831 -0.043595
vn -0.270148 0.961831 0.043595
vn 0.052269 -0.604202 -0.795115
vn 0.142865 -0.785124 -0.602636
vn -0.142865 0.785124 0.602636
vn -0.052269 0.604202 0.795115
vn -0.180000 0.028049 -0.983267
vn 0.180000 -0.028049 0.983267
vn -0.335192 0.741816 -0.580823
vn 0.335192 -0.741816 0.580823
vn -0.171483 0.000000 -0.985187
vn 0.171483 -0.000000 0.985187
vn 0.119227 -0.741816 -0.659920
vn -0.119227 0.741816 0.659920
vn -0.162818 -0.028049 -0.986257
vn 0.162818 0.028049 0.986257
vn -0.317852 0.604202 -0.730691
vn 0.317852 -0.604202 0.730691
vn -0.338084 0.785124 -0.518921
vn 0.338084 -0.785124 0.518921
vn 0.292480 -0.954916 -0.050909
vn -0.292480 0.954916 0.050909
vn 0.056751 -0.599501 -0.798359
vn 0.153974 -0.779016 -0.607805
vn -0.153974 0.779016 0.607805
vn -0.056751 0.599501 0.798359
vn -0.192729 0.027831 -0.980857
vn 0.192729 -0.027831 0.980857
vn -0.359806 0.736044 -0.573392
vn 0.359806 -0.736044 0.573392
vn -0.183574 0.000000 -0.983006
vn 0.183574 -0.000000 0.983006
vn 0.128613 -0.736044 -0.664603
vn -0.128613 0.736044 0.664603
vn -0.174261 -0.027831 -0.984306
vn 0.174261 0.027831 0.984306
vn -0.341061 0.599501 -0.724069
vn 0.341061 -0.599501 0.724069
vn -0.362959 0.779016 -0.511269
vn 0.362959 -0.779016 0.511269
vn 0.314363 -0.947486 -0.058707
vn -0.314363 0.947486 0.058707
vn 0.060968 -0.594498 -0.801783
vn 0.164703 -0.772513 -0.613267
vn -0.164703 0.772513 0.613267
vn -0.060968 0.594498 0.801783
vn -0.205360 0.027599 -0.978297
vn 0.205360 -0.027599 0.978297
vn -0.383963 0.729901 -0.565524
vn 0.383963 -0.729901 0.565524
vn -0.195583 0.000000 -0.980687
vn 0.195583 -0.000000 0.980687
vn 0.137646 -0.729901 -0.669551
vn -0.137646 0.729901 0.669551
vn -0.185637 -0.027599 -0.982231
vn 0.185637 0.027599 0.982231
vn -0.363877 0.594498 -0.717054
vn 0.363877 -0.594498 0.717054
vn -0.387358 0.772513 -0.503167
vn 0.387358 -0.772513 0.503167
vn 0.335725 -0.939577 -0.066955
vn -0.335725 0.939577 0.066955
vn 0.062944 -0.591898 -0.803551
vn 0.169880 -0.769135 -0.616094
vn -0.169880 0.769135 0.616094
vn -0.062944 0.591898 0.803551
vn -0.211636 0.027478 -0.976962
vn 0.211636 -0.027478 0.976962
vn -0.395826 0.726709 -0.561440
vn 0.395826 -0.726709 0.561440
vn -0.201555 0.000000 -0.979477
vn 0.201555 -0.000000 0.979477
vn 0.141989 -0.726709 -0.672111
vn -0.141989 0.726709 0.672111
vn -0.191300 -0.027478 -0.981147
vn 0.191300 0.027478 0.981147
vn -0.375102 0.591898 -0.713411
vn 0.375102 -0.591898 0.713411
vn -0.399334 0.769135 -0.498962
vn 0.399334 -0.769135 0.498962
vn 0.346156 -0.935469 -0.071231
vn -0.346156 0.935469 0.071231
vn 1.000000 -0.000000 -0.000000
vn -0.916270 -0.353409 0.188548
vn -1.000000 0.000000 0.000000
vn 0.210197 -0.977659 0.000000
vn -0.210197 0.977659 -0.000000
usemtl body
f 3/1/2 2/1/2 1/1/1
f 4/1/1 3/1/2 1/1/1
f 7/1/4 6/1/3 5/1/3
f 8/1/4 7/1/4 5/1/3
f 10/1/5 9/1/5 2/1/2
f 3/1/2 10/1/5 2/1/2
f 11/1/6 7/1/4 8/1/4
f 12/1/6 11/1/6 8/1/4
f 14/1/7 13/1/7 9/1/5
f 10/1/5 14/1/7 9/1/5
f 15/1/8 11/1/6 12/1/6
f 16/1/8 15/1/8 12/1/6
f 18/1/9 17/1/9 13/1/7
f 14/1/7 18/1/9 13/1/7
f 19/1/10 15/1/8 16/1/8
f 20/1/10 19/1/10 16/1/8
f 22/1/11 21/1/11 17/1/9
f 18/1/9 22/1/11 17/1/9
f 23/1/12 19/1/10 20/1/10
f 24/1/12 23/1/12 20/1/10
f 26/1/13 25/1/13 21/1/11
f 22/1/11 26/1/13 21/1/11
f 27/1/14 23/1/12 24/1/12
f 28/1/14 27/1/14 24/1/12
f 30/1/15 29/1/15 25/1/13
f 26/1/13 30/1/15 25/1/13
f 31/1/16 27/1/14 28/1/14
f 32/1/16 31/1/16 28/1/14
f 34/1/17 33/1/17 29/1/15
f 30/1/15 34/1/17 29/1/15
f 35/1/18 31/1/16 32/1/16
f 36/1/18 35/1/18 32/1/16
f 1/1/19 5/1/19 6/1/19
f 1/1/19 6/1/19 4/1/19
f 35/1/20 36/1/20 33/1/20
f 34/1/20 35/1/20 33/1/20
f 37/1/21 3/1/2 4/1/1
f 38/1/22 37/1/21 4/1/1
f 40/1/24 39/1/23 6/1/3
f 7/1/4 40/1/24 6/1/3
f 41/1/25 10/1/5 3/1/2
f 37/1/21 41/1/25 3/1/2
f 42/1/26 40/1/24 7/1/4
f 11/1/6 42/1/26 7/1/4
f 43/1/27 14/1/7 10/1/5
f 41/1/25 43/1/27 10/1/5
f 44/1/28 42/1/26 11/1/6
f 15/1/8 44/1/28 11/1/6
f 45/1/29 18/1/9 14/1/7
f 43/1/27 45/1/29 14/1/7
f 46/1/30 44/1/28 15/1/8
f 19/1/10 46/1/30 15/1/8
f 47/1/31 22/1/11 18/1/9
f 45/1/29 47/1/31 18/1/9
f 48/1/32 46/1/30 19/1/10
f 23/1/12 48/1/32 19/1/10
f 49/1/33 26/1/13 22/1/11
f 47/1/31 49/1/33 22/1/11
f 50/1/34 48/1/32 23/1/12
f 27/1/14 50/1/34 23/1/12
f 51/1/35 30/1/15 26/1/13
f 49/1/33 51/1/35 26/1/13
f 52/1/36 50/1/34 27/1/14
f 31/1/16 52/1/36 27/1/14
f 53/1/37 34/1/17 30/1/15
f 51/1/35 53/1/37 30/1/15
f 54/1/38 52/1/36 31/1/16
f 35/1/18 54/1/38 31/1/16
f 4/1/19 6/1/19 39/1/39
f 4/1/19 39/1/39 38/1/39
f 54/1/40 35/1/20 34/1/20
f 53/1/40 54/1/40 34/1/20
f 55/1/41 37/1/21 38/1/22
f 56/1/42 55/1/41 38/1/22
f 58/1/44 57/1/43 39/1/23
f 40/1/24 58/1/44 39/1/23
f 59/1/45 41/1/25 37/1/21
f 55/1/41 59/1/45 37/1/21
f 60/1/46 58/1/44 40/1/24
f 42/1/26 60/1/46 40/1/24
f 61/1/47 43/1/27 41/1/25
f 59/1/45 61/1/47 41/1/25
f 62/1/48 60/1/46 42/1/26
f 44/1/28 62/1/48 42/1/26
f 63/1/49 45/1/29 43/1/27
f 61/1/47 63/1/49 43/1/27
f 64/1/50 62/1/48 44/1/28
f 46/1/30 64/1/50 44/1/28
f 65/1/51 47/1/31 45/1/29
f 63/1/49 65/1/51 45/1/29
f 66/1/52 64/1/50 46/1/30
f 48/1/32 66/1/52 46/1/30
f 67/1/53 49/1/33 47/1/31
f 65/1/51 67/1/53 47/1/31
f 68/1/54 66/1/52 48/1/32
f 50/1/34 68/1/54 48/1/32
f 69/1/55 51/1/35 49/1/33
f 67/1/53 69/1/55 49/1/33
f 70/1/56 68/1/54 50/1/34
f 52/1/36 70/1/56 50/1/34
f 71/1/57 53/1/37 51/1/35
f 69/1/55 71/1/57 51/1/35
f 72/1/58 70/1/56 52/1/36
f 54/1/38 72/1/58 52/1/36
f 38/1/39 39/1/39 57/1/59
f 38/1/39 57/1/59 56/1/59
f 72/1/60 54/1/40 53/1/40
f 71/1/60 72/1/60 53/1/40
f 73/1/61 55/1/41 56/1/42
f 74/1/62 73/1/61 56/1/42
f 76/1/64 75/1/63 57/1/43
f 58/1/44 76/1/64 57/1/43
f 77/1/65 59/1/45 55/1/41
f 73/1/61 77/1/65 55/1/41
f 78/1/66 76/1/64 58/1/44
f 60/1/46 78/1/66 58/1/44
f 79/1/67 61/1/47 59/1/45
f 77/1/65 79/1/67 59/1/45
f 80/1/68 78/1/66 60/1/46
f 62/1/48 80/1/68 60/1/46
f 81/1/69 63/1/49 61/1/47
f 79/1/67 81/1/69 61/1/47
f 82/1/70 80/1/68 62/1/48
f 64/1/50 82/1/70 62/1/48
f 83/1/71 65/1/51 63/1/49
f 81/1/69 83/1/71 63/1/49
f 84/1/72 82/1/70 64/1/50
f 66/1/52 84/1/72 64/1/50
f 85/1/73 67/1/53 65/1/51
f 83/1/71 85/1/73 65/1/51
f 86/1/74 84/1/72 66/1/52
f 68/1/54 86/1/74 66/1/52
f 87/1/75 69/1/55 67/1/53
f 85/1/73 87/1/75 67/1/53
f 88/1/76 86/1/74 68/1/54
f 70/1/56 88/1/76 68/1/54
f 89/1/77 71/1/57 69/1/55
f 87/1/75 89/1/77 69/1/55
f 90/1/78 88/1/76 70/1/56
f 72/1/58 90/1/78 70/1/56
f 56/1/59 57/1/59 75/1/79
f 56/1/59 75/1/79 74/1/79
f 90/1/80 72/1/60 71/1/60
f 89/1/80 90/1/80 71/1/60
f 91/1/81 73/1/61 74/1/62
f 92/1/82 91/1/81 74/1/62
f 94/1/84 93/1/83 75/1/63
f 76/1/64 94/1/84 75/1/63
f 95/1/85 77/1/65 73/1/61
f 91/1/81 95/1/85 73/1/61
f 96/1/86 94/1/84 76/1/64
f 78/1/66 96/1/86 76/1/64
f 97/1/87 79/1/67 77/1/65
f 95/1/85 97/1/87 77/1/65
f 98/1/88 96/1/86 78/1/66
f 80/1/68 98/1/88 78/1/66
f 99/1/89 81/1/69 79/1/67
f 97/1/87 99/1/89 79/1/67
f 100/1/90 98/1/88 80/1/68
f 82/1/70 100/1/90 80/1/68
f 101/1/91 83/1/71 81/1/69
f 99/1/89 101/1/91 81/1/69
f 102/1/92 100/1/90 82/1/70
f 84/1/72 102/1/92 82/1/70
f 103/1/93 85/1/73 83/1/71
f 101/1/91 103/1/93 83/1/71
f 104/1/94 102/1/92 84/1/72
f 86/1/74 104/1/94 84/1/72
f 105/1/95 87/1/75 85/1/73
f 103/1/93 105/1/95 85/1/73
f 106/1/96 104/1/94 86/1/74
f 88/1/76 106/1/96 86/1/74
f 107/1/97 89/1/77 87/1/75
f 105/1/95 107/1/97 87/1/75
f 108/1/98 106/1/96 88/1/76
f 90/1/78 108/1/98 88/1/76
f 74/1/79 75/1/79 93/1/99
f 74/1/79 93/1/99 92/1/99
f 108/1/100 90/1/80 89/1/80
f 107/1/100 108/1/100 89/1/80
f 109/1/101 91/1/81 92/1/82
f 110/1/102 109/1/101 92/1/82
f 112/1/104 111/1/103 93/1/83
f 94/1/84 112/1/104 93/1/83
f 113/1/105 95/1/85 91/1/81
f 109/1/101 113/1/105 91/1/81
f 114/1/106 112/1/104 94/1/84
f 96/1/86 114/1/106 94/1/84
f 115/1/107 97/1/87 95/1/85
f 113/1/105 115/1/107 95/1/85
f 116/1/108 114/1/106 96/1/86
f 98/1/88 116/1/108 96/1/86
f 117/1/109 99/1/89 97/1/87
f 115/1/107 117/1/109 97/1/87
f 118/1/110 116/1/108 98/1/88
f 100/1/90 118/1/110 98/1/88
f 119/1/111 101/1/91 99/1/89
f 117/1/109 119/1/111 99/1/89
f 120/1/112 118/1/110 100/1/90
f 102/1/92 120/1/112 100/1/90
f 121/1/113 103/1/93 101/1/91
f 119/1/111 121/1/113 101/1/91
f 122/1/114 120/1/112 102/1/92
f 104/1/94 122/1/114 102/1/92
f 123/1/115 105/1/95 103/1/93
f 121/1/113 123/1/115 103/1/93
f 124/1/116 122/1/114 104/1/94
f 106/1/96 124/1/116 104/1/94
f 125/1/117 107/1/97 105/1/95
f 123/1/115 125/1/117 105/1/95
f 126/1/118 124/1/116 106/1/96
f 108/1/98 126/1/118 106/1/96
f 92/1/99 93/1/99 111/1/119
f 92/1/99 111/1/119 110/1/119
f 126/1/120 108/1/100 107/1/100
f 125/1/120 126/1/120 107/1/100
f 127/1/121 109/1/101 110/1/102
f 128/1/122 127/1/121 110/1/102
f 130/1/124 129/1/123 111/1/103
f 112/1/104 130/1/124 111/1/103
f 131/1/125 113/1/105 109/1/101
f 127/1/121 131/1/125 109/1/101
f 132/1/126 130/1/124 112/1/104
f 114/1/106 132/1/126 112/1/104
f 133/1/127 115/1/107 113/1/105
f 131/1/125 133/1/127 113/1/105
f 134/1/128 132/1/126 114/1/106
f 116/1/108 134/1/128 114/1/106
f 135/1/129 117/1/109 115/1/107
f 133/1/127 135/1/129 115/1/107
f 136/1/130 134/1/128 116/1/108
f 118/1/110 136/1/130 116/1/108
f 137/1/131 119/1/111 117/1/109
f 135/1/129 137/1/131 117/1/109
f 138/1/132 136/1/130 118/1/110
f 120/1/112 138/1/132 118/1/110
f 139/1/133 121/1/113 119/1/111
f 137/1/131 139/1/133 119/1/111
f 140/1/134 138/1/132 120/1/112
f 122/1/114 140/1/134 120/1/112
f 141/1/135 123/1/115 121/1/113
f 139/1/133 141/1/135 121/1/113
f 142/1/136 140/1/134 122/1/114
f 124/1/116 142/1/136 122/1/114
f 143/1/137 125/1/117 123/1/115
f 141/1/135 143/1/137 123/1/115
f 144/1/138 142/1/136 124/1/116
f 126/1/118 144/1/138 124/1/116
f 110/1/119 111/1/119 129/1/139
f 110/1/119 129/1/139 128/1/139
f 144/1/140 126/1/120 125/1/120
f 143/1/140 144/1/140 125/1/120
f 145/1/141 127/1/121 128/1/122
f 146/1/142 145/1/141 128/1/122
f 148/1/144 147/1/143 129/1/123
f 130/1/124 148/1/144 129/1/123
f 149/1/145 131/1/125 127/1/121
f 145/1/141 149/1/145 127/1/121
f 150/1/146 148/1/144 130/1/124
f 132/1/126 150/1/146 130/1/124
f 151/1/147 133/1/127 131/1/125
f 149/1/145 151/1/147 131/1/125
f 152/1/148 150/1/146 132/1/126
f 134/1/128 152/1/148 132/1/126
f 153/1/149 135/1/129 133/1/127
f 151/1/147 153/1/149 133/1/127
f 154/1/150 152/1/148 134/1/128
f 136/1/130 154/1/150 134/1/128
f 155/1/151 137/1/131 135/1/129
f 153/1/149 155/1/151 135/1/129
f 156/1/152 154/1/150 136/1/130
f 138/1/132 156/1/152 136/1/130
f 157/1/153 139/1/133 137/1/131
f 155/1/151 157/1/153 137/1/131
f 158/1/154 156/1/152 138/1/132
f 140/1/134 158/1/154 138/1/132
f 159/1/155 141/1/135 139/1/133
f 157/1/153 159/1/155 139/1/133
f 160/1/156 158/1/154 140/1/134
f 142/1/136 160/1/156 140/1/134
f 161/1/157 143/1/137 141/1/135
f 159/1/155 161/1/157 141/1/135
f 162/1/158 160/1/156 142/1/136
f 144/1/138 162/1/158 142/1/136
f 128/1/139 129/1/139 147/1/159
f 128/1/139 147/1/159 146/1/159
f 162/1/160 144/1/140 143/1/140
f 161/1/160 162/1/160 143/1/140
f 163/1/161 145/1/141 146/1/142
f 164/1/162 163/1/161 146/1/142
f 166/1/164 165/1/163 147/1/143
f 148/1/144 166/1/164 147/1/143
f 167/1/165 149/1/145 145/1/141
f 163/1/161 167/1/165 145/1/141
f 168/1/166 166/1/164 148/1/144
f 150/1/146 168/1/166 148/1/144
f 169/1/167 151/1/147 149/1/145
f 167/1/165 169/1/167 149/1/145
f 170/1/168 168/1/166 150/1/146
f 152/1/148 170/1/168 150/1/146
f 171/1/169 153/1/149 151/1/147
f 169/1/167 171/1/169 151/1/147
f 172/1/170 170/1/168 152/1/148
f 154/1/150 172/1/170 152/1/148
f 173/1/171 155/1/151 153/1/149
f 171/1/169 173/1/171 153/1/149
f 174/1/172 172/1/170 154/1/150
f 156/1/152 174/1/172 154/1/150
f 175/1/173 157/1/153 155/1/151
f 173/1/171 175/1/173 155/1/151
f 176/1/174 174/1/172 156/1/152
f 158/1/154 176/1/174 156/1/152
f 177/1/175 159/1/155 157/1/153
f 175/1/173 177/1/175 157/1/153
f 178/1/176 176/1/174 158/1/154
f 160/1/156 178/1/176 158/1/154
f 179/1/177 161/1/157 159/1/155
f 177/1/175 179/1/177 159/1/155
f 180/1/178 178/1/176 160/1/156
f 162/1/158 180/1/178 160/1/156
f 146/1/159 147/1/159 165/1/179
f 146/1/159 165/1/179 164/1/179
f 180/1/180 162/1/160 161/1/160
f 179/1/180 180/1/180 161/1/160
f 181/1/181 163/1/161 164/1/162
f 182/1/182 181/1/181 164/1/162
f 184/1/184 183/1/183 165/1/163
f 166/1/164 184/1/184 165/1/163
f 185/1/185 167/1/165 163/1/161
f 181/1/181 185/1/185 163/1/161
f 186/1/186 184/1/184 166/1/164
f 168/1/166 186/1/186 166/1/164
f 187/1/187 169/1/167 167/1/165
f 185/1/185 187/1/187 167/1/165
f 188/1/188 186/1/186 168/1/166
f 170/1/168 188/1/188 168/1/166
f 189/1/189 171/1/169 169/1/167
f 187/1/187 189/1/189 169/1/167
f 190/1/190 188/1/188 170/1/168
f 172/1/170 190/1/190 170/1/168
f 191/1/191 173/1/171 171/1/169
f 189/1/189 191/1/191 171/1/169
f 192/1/192 190/1/190 172/1/170
f 174/1/172 192/1/192 172/1/170
f 193/1/193 175/1/173 173/1/171
f 191/1/191 193/1/193 173/1/171
f 194/1/194 192/1/192 174/1/172
f 176/1/174 194/1/194 174/1/172
f 195/1/195 177/1/175 175/1/173
f 193/1/193 195/1/195 175/1/173
f 196/1/196 194/1/194 176/1/174
f 178/1/176 196/1/196 176/1/174
f 197/1/197 179/1/177 177/1/175
f 195/1/195 197/1/197 177/1/175
f 198/1/198 196/1/196 178/1/176
f 180/1/178 198/1/198 178/1/176
f 164/1/179 165/1/179 183/1/199
f 164/1/179 183/1/199 182/1/199
f 198/1/200 180/1/180 179/1/180
f 197/1/200 198/1/200 179/1/180
f 199/1/201 181/1/181 182/1/182
f 200/1/202 199/1/201 182/1/182
f 202/1/204 201/1/203 183/1/183
f 184/1/184 202/1/204 183/1/183
f 203/1/205 185/1/185 181/1/181
f 199/1/201 203/1/205 181/1/181
f 204/1/206 202/1/204 184/1/184
f 186/1/186 204/1/206 184/1/184
f 205/1/207 187/1/187 185/1/185
f 203/1/205 205/1/207 185/1/185
f 206/1/208 204/1/206 186/1/186
f 188/1/188 206/1/208 186/1/186
f 207/1/209 189/1/189 187/1/187
f 205/1/207 207/1/209 187/1/187
f 208/1/210 206/1/208 188/1/188
f 190/1/190 208/1/210 188/1/188
f 209/1/211 191/1/191 189/1/189
f 207/1/209 209/1/211 189/1/189
f 210/1/212 208/1/210 190/1/190
f 192/1/192 210/1/212 190/1/190
f 211/1/213 193/1/193 191/1/191
f 209/1/211 211/1/213 191/1/191
f 212/1/214 210/1/212 192/1/192
f 194/1/194 212/1/214 192/1/192
f 213/1/215 195/1/195 193/1/193
f 211/1/213 213/1/215 193/1/193
f 214/1/216 212/1/214 194/1/194
f 196/1/196 214/1/216 194/1/194
f 215/1/217 197/1/197 195/1/195
f 213/1/215 215/1/217 195/1/195
f 216/1/218 214/1/216 196/1/196
f 198/1/198 216/1/218 196/1/196
f 182/1/199 183/1/199 201/1/219
f 182/1/199 201/1/219 200/1/219
f 216/1/220 198/1/200 197/1/200
f 215/1/220 216/1/220 197/1/200
f 217/1/221 199/1/201 200/1/202
f 218/1/222 217/1/221 200/1/202
f 220/1/224 219/1/223 201/1/203
f 202/1/204 220/1/224 201/1/203
f 221/1/225 203/1/205 199/1/201
f 217/1/221 221/1/225 199/1/201
f 222/1/226 220/1/224 202/1/204
f 204/1/206 222/1/226 202/1/204
f 223/1/227 205/1/207 203/1/205
f 221/1/225 223/1/227 203/1/205
f 224/1/228 222/1/226 204/1/206
f 206/1/208 224/1/228 204/1/206
f 225/1/229 207/1/209 205/1/207
f 223/1/227 225/1/229 205/1/207
f 226/1/230 224/1/228 206/1/208
f 208/1/210 226/1/230 206/1/208
f 227/1/231 209/1/211 207/1/209
f 225/1/229 227/1/231 207/1/209
f 228/1/232 226/1/230 208/1/210
f 210/1/212 228/1/232 208/1/210
f 229/1/233 211/1/213 209/1/211
f 227/1/231 229/1/233 209/1/211
f 230/1/234 228/1/232 210/1/212
f 212/1/214 230/1/234 210/1/212
f 231/1/235 213/1/215 211/1/213
f 229/1/233 231/1/235 211/1/213
f 232/1/236 230/1/234 212/1/214
f 214/1/216 232/1/236 212/1/214
f 233/1/237 215/1/217 213/1/215
f 231/1/235 233/1/237 213/1/215
f 234/1/238 232/1/236 214/1/216
f 216/1/218 234/1/238 214/1/216
f 200/1/219 201/1/219 219/1/239
f 200/1/219 219/1/239 218/1/239
f 234/1/240 216/1/220 215/1/220
f 233/1/240 234/1/240 215/1/220
f 235/1/241 217/1/221 218/1/222
f 236/1/242 235/1/241 218/1/222
f 238/1/244 237/1/243 219/1/223
f 220/1/224 238/1/244 219/1/223
f 239/1/245 221/1/225 217/1/221
f 235/1/241 239/1/245 217/1/221
f 240/1/246 238/1/244 220/1/224
f 222/1/226 240/1/246 220/1/224
f 241/1/247 223/1/227 221/1/225
f 239/1/245 241/1/247 221/1/225
f 242/1/248 240/1/246 222/1/226
f 224/1/228 242/1/248 222/1/226
f 243/1/249 225/1/229 223/1/227
f 241/1/247 243/1/249 223/1/227
f 244/1/250 242/1/248 224/1/228
f 226/1/230 244/1/250 224/1/228
f 245/1/251 227/1/231 225/1/229
f 243/1/249 245/1/251 225/1/229
f 246/1/252 244/1/250 226/1/230
f 228/1/232 246/1/252 226/1/230
f 247/1/253 229/1/233 227/1/231
f 245/1/251 247/1/253 227/1/231
f 248/1/254 246/1/252 228/1/232
f 230/1/234 248/1/254 228/1/232
f 249/1/255 231/1/235 229/1/233
f 247/1/253 249/1/255 229/1/233
f 250/1/256 248/1/254 230/1/234
f 232/1/236 250/1/256 230/1/234
f 251/1/257 233/1/237 231/1/235
f 249/1/255 251/1/257 231/1/235
f 252/1/258 250/1/256 232/1/236
f 234/1/238 252/1/258 232/1/236
f 218/1/239 219/1/239 237/1/259
f 218/1/239 237/1/259 236/1/259
f 252/1/260 234/1/240 233/1/240
f 251/1/260 252/1/260 233/1/240
f 253/1/261 235/1/241 236/1/242
f 254/1/262 253/1/261 236/1/242
f 256/1/264 255/1/263 237/1/243
f 238/1/244 256/1/264 237/1/243
f 257/1/265 239/1/245 235/1/241
f 253/1/261 257/1/265 235/1/241
f 258/1/266 256/1/264 238/1/244
f 240/1/246 258/1/266 238/1/244
f 259/1/267 241/1/247 239/1/245
f 257/1/265 259/1/267 239/1/245
f 260/1/268 258/1/266 240/1/246
f 242/1/248 260/1/268 240/1/246
f 261/1/269 243/1/249 241/1/247
f 259/1/267 261/1/269 241/1/247
f 262/1/270 260/1/268 242/1/248
f 244/1/250 262/1/270 242/1/248
f 263/1/271 245/1/251 243/1/249
f 261/1/269 263/1/271 243/1/249
f 264/1/272 262/1/270 244/1/250
f 246/1/252 264/1/272 244/1/250
f 265/1/273 247/1/253 245/1/251
f 263/1/271 265/1/273 245/1/251
f 266/1/274 264/1/272 246/1/252
f 248/1/254 266/1/274 246/1/252
f 267/1/275 249/1/255 247/1/253
f 265/1/273 267/1/275 247/1/253
f 268/1/276 266/1/274 248/1/254
f 250/1/256 268/1/276 248/1/254
f 269/1/277 251/1/257 249/1/255
f 267/1/275 269/1/277 249/1/255
f 270/1/278 268/1/276 250/1/256
f 252/1/258 270/1/278 250/1/256
f 236/1/259 237/1/259 255/1/279
f 236/1/259 255/1/279 254/1/279
f 270/1/280 252/1/260 251/1/260
f 269/1/280 270/1/280 251/1/260
f 271/1/281 253/1/261 254/1/262
f 272/1/282 271/1/281 254/1/262
f 274/1/284 273/1/283 255/1/263
f 256/1/264 274/1/284 255/1/263
f 275/1/285 257/1/265 253/1/261
f 271/1/281 275/1/285 253/1/261
f 276/1/286 274/1/284 256/1/264
f 258/1/266 276/1/286 256/1/264
f 277/1/287 259/1/267 257/1/265
f 275/1/285 277/1/287 257/1/265
f 278/1/288 276/1/286 258/1/266
f 260/1/268 278/1/288 258/1/266
f 279/1/289 261/1/269 259/1/267
f 277/1/287 279/1/289 259/1/267
f 280/1/290 278/1/288 260/1/268
f 262/1/270 280/1/290 260/1/268
f 281/1/291 263/1/271 261/1/269
f 279/1/289 281/1/291 261/1/269
f 282/1/292 280/1/290 262/1/270
f 264/1/272 282/1/292 262/1/270
f 283/1/293 265/1/273 263/1/271
f 281/1/291 283/1/293 263/1/271
f 284/1/294 282/1/292 264/1/272
f 266/1/274 284/1/294 264/1/272
f 285/1/295 267/1/275 265/1/273
f 283/1/293 285/1/295 265/1/273
f 286/1/296 284/1/294 266/1/274
f 268/1/276 286/1/296 266/1/274
f 287/1/297 269/1/277 267/1/275
f 285/1/295 287/1/297 267/1/275
f 288/1/298 286/1/296 268/1/276
f 270/1/278 288/1/298 268/1/276
f 254/1/279 255/1/279 273/1/299
f 254/1/279 273/1/299 272/1/299
f 288/1/300 270/1/280 269/1/280
f 287/1/300 288/1/300 269/1/280
f 289/1/301 271/1/281 272/1/282
f 290/1/302 289/1/301 272/1/282
f 292/1/304 291/1/303 273/1/283
f 274/1/284 292/1/304 273/1/283
f 293/1/305 275/1/285 271/1/281
f 289/1/301 293/1/305 271/1/281
f 294/1/306 292/1/304 274/1/284
f 276/1/286 294/1/306 274/1/284
f 295/1/307 277/1/287 275/1/285
f 293/1/305 295/1/307 275/1/285
f 296/1/308 294/1/306 276/1/286
f 278/1/288 296/1/308 276/1/286
f 297/1/309 279/1/289 277/1/287
f 295/1/307 297/1/309 277/1/287
f 298/1/310 296/1/308 278/1/288
f 280/1/290 298/1/310 278/1/288
f 299/1/311 281/1/291 279/1/289
f 297/1/309 299/1/311 279/1/289
f 300/1/312 298/1/310 280/1/290
f 282/1/292 300/1/312 280/1/290
f 301/1/313 283/1/293 281/1/291
f 299/1/311 301/1/313 281/1/291
f 302/1/314 300/1/312 282/1/292
f 284/1/294 302/1/314 282/1/292
f 303/1/315 285/1/295 283/1/293
f 301/1/313 303/1/315 283/1/293
f 304/1/316 302/1/314 284/1/294
f 286/1/296 304/1/316 284/1/294
f 305/1/317 287/1/297 285/1/295
f 303/1/315 305/1/317 285/1/295
f 306/1/318 304/1/316 286/1/296
f 288/1/298 306/1/318 286/1/296
f 272/1/299 273/1/299 291/1/319
f 272/1/299 291/1/319 290/1/319
f 306/1/320 288/1/300 287/1/300
f 305/1/320 306/1/320 287/1/300
f 307/1/321 289/1/301 290/1/302
f 308/1/322 307/1/321 290/1/302
f 310/1/324 309/1/323 291/1/303
f 292/1/304 310/1/324 291/1/303
f 311/1/325 293/1/305 289/1/301
f 307/1/321 311/1/325 289/1/301
f 312/1/326 310/1/324 292/1/304
f 294/1/306 312/1/326 292/1/304
f 313/1/327 295/1/307 293/1/305
f 311/1/325 313/1/327 293/1/305
f 314/1/328 312/1/326 294/1/306
f 296/1/308 314/1/328 294/1/306
f 315/1/329 297/1/309 295/1/307
f 313/1/327 315/1/329 295/1/307
f 316/1/330 314/1/328 296/1/308
f 298/1/310 316/1/330 296/1/308
f 317/1/331 299/1/311 297/1/309
f 315/1/329 317/1/331 297/1/309
f 318/1/332 316/1/330 298/1/310
f 300/1/312 318/1/332 298/1/310
f 319/1/333 301/1/313 299/1/311
f 317/1/331 319/1/333 299/1/311
f 320/1/334 318/1/332 300/1/312
f 302/1/314 320/1/334 300/1/312
f 321/1/335 303/1/315 301/1/313
f 319/1/333 321/1/335 301/1/313
f 322/1/336 320/1/334 302/1/314
f 304/1/316 322/1/336 302/1/314
f 323/1/337 305/1/317 303/1/315
f 321/1/335 323/1/337 303/1/315
f 324/1/338 322/1/336 304/1/316
f 306/1/318 324/1/338 304/1/316
f 290/1/319 291/1/319 309/1/339
f 290/1/319 309/1/339 308/1/339
f 324/1/340 306/1/320 305/1/320
f 323/1/340 324/1/340 305/1/320
f 325/1/341 307/1/321 308/1/322
f 326/1/342 325/1/341 308/1/322
f 328/1/344 327/1/343 309/1/323
f 310/1/324 328/1/344 309/1/323
f 329/1/345 311/1/325 307/1/321
f 325/1/341 329/1/345 307/1/321
f 330/1/346 328/1/344 310/1/324
f 312/1/326 330/1/346 310/1/324
f 331/1/347 313/1/327 311/1/325
f 329/1/345 331/1/347 311/1/325
f 332/1/348 330/1/346 312/1/326
f 314/1/328 332/1/348 312/1/326
f 333/1/349 315/1/329 313/1/327
f 331/1/347 333/1/349 313/1/327
f 334/1/350 332/1/348 314/1/328
f 316/1/330 334/1/350 314/1/328
f 335/1/351 317/1/331 315/1/329
f 333/1/349 335/1/351 315/1/329
f 336/1/352 334/1/350 316/1/330
f 318/1/332 336/1/352 316/1/330
f 337/1/353 319/1/333 317/1/331
f 335/1/351 337/1/353 317/1/331
f 338/1/354 336/1/352 318/1/332
f 320/1/334 338/1/354 318/1/332
f 339/1/355 321/1/335 319/1/333
f 337/1/353 339/1/355 319/1/333
f 340/1/356 338/1/354 320/1/334
f 322/1/336 340/1/356 320/1/334
f 341/1/357 323/1/337 321/1/335
f 339/1/355 341/1/357 321/1/335
f 342/1/358 340/1/356 322/1/336
f 324/1/338 342/1/358 322/1/336
f 308/1/339 309/1/339 327/1/359
f 308/1/339 327/1/359 326/1/359
f 342/1/360 324/1/340 323/1/340
f 341/1/360 342/1/360 323/1/340
f 343/1/361 325/1/341 326/1/342
f 344/1/362 343/1/361 326/1/342
f 346/1/364 345/1/363 327/1/343
f 328/1/344 346/1/364 327/1/343
f 347/1/365 329/1/345 325/1/341
f 343/1/361 347/1/365 325/1/341
f 348/1/366 346/1/364 328/1/344
f 330/1/346 348/1/366 328/1/344
f 349/1/367 331/1/347 329/1/345
f 347/1/365 349/1/367 329/1/345
f 350/1/368 348/1/366 330/1/346
f 332/1/348 350/1/368 330/1/346
f 351/1/369 333/1/349 331/1/347
f 349/1/367 351/1/369 331/1/347
f 352/1/370 350/1/368 332/1/348
f 334/1/350 352/1/370 332/1/348
f 353/1/371 335/1/351 333/1/349
f 351/1/369 353/1/371 333/1/349
f 354/1/372 352/1/370 334/1/350
f 336/1/352 354/1/372 334/1/350
f 355/1/373 337/1/353 335/1/351
f 353/1/371 355/1/373 335/1/351
f 356/1/374 354/1/372 336/1/352
f 338/1/354 356/1/374 336/1/352
f 357/1/375 339/1/355 337/1/353
f 355/1/373 357/1/375 337/1/353
f 358/1/376 356/1/374 338/1/354
f 340/1/356 358/1/376 338/1/354
f 359/1/377 341/1/357 339/1/355
f 357/1/375 359/1/377 339/1/355
f 360/1/378 358/1/376 340/1/356
f 342/1/358 360/1/378 340/1/356
f 326/1/359 327/1/359 345/1/379
f 326/1/359 345/1/379 344/1/379
f 360/1/380 342/1/360 341/1/360
f 359/1/380 360/1/380 341/1/360
f 8/1/381 5/1/381 1/1/381
f 2/1/381 8/1/381 1/1/381
f 12/1/381 8/1/381 2/1/381
f 9/1/381 12/1/381 2/1/381
f 16/1/381 12/1/381 9/1/381
f 13/1/381 16/1/381 9/1/381
f 20/1/381 16/1/381 13/1/381
f 17/1/381 20/1/381 13/1/381
f 24/1/381 20/1/381 17/1/381
f 21/1/381 24/1/381 17/1/381
f 28/1/381 24/1/381 21/1/381
f 25/1/381 28/1/381 21/1/381
f 32/1/381 28/1/381 25/1/381
f 29/1/381 32/1/381 25/1/381
f 36/1/381 32/1/381 29/1/381
f 33/1/381 36/1/381 29/1/381
f 344/1/382 345/1/382 346/1/382
f 344/1/382 346/1/382 343/1/382
f 343/1/382 346/1/382 348/1/382
f 343/1/382 348/1/382 347/1/382
f 347/1/382 348/1/382 350/1/382
f 347/1/382 350/1/382 349/1/382
f 349/1/382 350/1/382 352/1/382
f 349/1/382 352/1/382 351/1/382
f 351/1/382 352/1/382 354/1/382
f 351/1/382 354/1/382 353/1/382
f 353/1/382 354/1/382 356/1/382
f 353/1/382 356/1/382 355/1/382
f 355/1/382 356/1/382 358/1/382
f 355/1/382 358/1/382 357/1/382
f 357/1/382 358/1/382 360/1/382
f 357/1/382 360/1/382 359/1/382
f 363/1/381 362/1/381 361/1/381
f 364/1/381 363/1/381 361/1/381
f 367/1/383 366/1/383 365/1/383
f 368/1/383 367/1/383 365/1/383
f 368/1/19 365/1/19 364/1/19
f 361/1/19 368/1/19 364/1/19
f 366/1/20 367/1/20 362/1/20
f 363/1/20 366/1/20 362/1/20
f 365/1/9 366/1/9 363/1/9
f 364/1/9 365/1/9 363/1/9
f 367/1/10 368/1/10 361/1/10
f 362/1/10 367/1/10 361/1/10
f 371/1/381 370/1/381 369/1/381
f 372/1/381 371/1/381 369/1/381
f 375/1/383 374/1/383 373/1/383
f 376/1/383 375/1/383 373/1/383
f 376/1/19 373/1/19 372/1/19
f 369/1/19 376/1/19 372/1/19
f 374/1/20 375/1/20 370/1/20
f 371/1/20 374/1/20 370/1/20
f 373/1/9 374/1/9 371/1/9
f 372/1/9 373/1/9 371/1/9
f 375/1/10 376/1/10 369/1/10
f 370/1/10 375/1/10 369/1/10
f 379/1/381 378/1/381 377/1/381
f 380/1/381 379/1/381 377/1/381
f 383/1/383 382/1/383 381/1/383
f 384/1/383 383/1/383 381/1/383
f 384/1/19 381/1/19 380/1/19
f 377/1/19 384/1/19 380/1/19
f 382/1/20 383/1/20 378/1/20
f 379/1/20 382/1/20 378/1/20
f 381/1/9 382/1/9 379/1/9
f 380/1/9 381/1/9 379/1/9
f 383/1/10 384/1/10 377/1/10
f 378/1/10 383/1/10 377/1/10
f 387/1/381 386/1/381 385/1/381
f 388/1/381 387/1/381 385/1/381
f 391/1/383 390/1/383 389/1/383
f 392/1/383 391/1/383 389/1/383
f 392/1/19 389/1/19 388/1/19
f 385/1/19 392/1/19 388/1/19
f 390/1/20 391/1/20 386/1/20
f 387/1/20 390/1/20 386/1/20
f 389/1/9 390/1/9 387/1/9
f 388/1/9 389/1/9 387/1/9
f 391/1/10 392/1/10 385/1/10
f 386/1/10 391/1/10 385/1/10
f 395/2/384 394/2/384 393/2/384
f 396/2/384 395/2/384 393/2/384
f 399/2/385 398/2/385 397/2/385
f 400/2/385 399/2/385 397/2/385
f 394/2/9 399/2/9 400/2/9
f 393/2/9 394/2/9 400/2/9
f 395/2/383 398/2/383 399/2/383
f 394/2/383 395/2/383 399/2/383
f 396/2/10 397/2/10 398/2/10
f 395/2/10 396/2/10 398/2/10
f 393/2/381 400/2/381 397/2/381
f 396/2/381 393/2/381 397/2/381
f 403/1/381 402/1/381 401/1/381
f 404/1/381 403/1/381 401/1/381
f 406/1/19 405/1/19 404/1/19
f 401/1/19 406/1/19 404/1/19
f 408/1/20 407/1/20 402/1/20
f 403/1/20 408/1/20 402/1/20
f 407/1/10 406/1/10 401/1/10
f 402/1/10 407/1/10 401/1/10
f 405/5/9 408/4/9 403/3/9
f 404/6/9 405/5/9 403/3/9
f 406/8/383 407/7/383 408/3/383
f 405/6/383 406/8/383 408/3/383
