# Procedurally generated by dev-env-utils/scripts/gen_guardrails_thrie.py -- do not hand edit
mtllib guardrail_w_beam_thrie_transition.mtl
o guardrail_w_beam_thrie_transition_core_up
v 0.000000 0.687500 0.250000
v 0.083333 0.750000 0.250000
v 0.083333 1.083333 0.250000
v 0.000000 1.000000 0.250000
v 0.083333 1.083333 0.150000
v 0.000000 1.000000 0.150000
v 0.083333 1.047264 0.097147
v 0.000000 0.965197 0.099729
v 0.083333 1.030118 0.075333
v 0.000000 0.949902 0.077636
v 0.083333 1.023222 0.067816
v 0.000000 0.943750 0.068750
v 0.083333 1.007820 0.062950
v 0.000000 0.928986 0.062422
v 0.083333 0.978758 0.054819
v 0.000000 0.900000 0.050000
v 0.083333 0.954965 0.068403
v 0.000000 0.876326 0.061837
v 0.083333 0.941053 0.073157
v 0.000000 0.862500 0.068750
v 0.083333 0.927646 0.106923
v 0.000000 0.851637 0.110393
v 0.083333 0.916667 0.133073
v 0.000000 0.843750 0.140625
v 0.083333 0.905687 0.106923
v 0.000000 0.835863 0.110393
v 0.083333 0.892280 0.073157
v 0.000000 0.825000 0.068750
v 0.083333 0.878368 0.068403
v 0.000000 0.811174 0.061837
v 0.083333 0.854575 0.054819
v 0.000000 0.787500 0.050000
v 0.083333 0.825513 0.062950
v 0.000000 0.758514 0.062422
v 0.083333 0.810111 0.067816
v 0.000000 0.743750 0.068750
v 0.083333 0.803215 0.075333
v 0.000000 0.737598 0.077636
v 0.083333 0.786070 0.097147
v 0.000000 0.722303 0.099729
v 0.083333 0.750000 0.150000
v 0.000000 0.687500 0.150000
v 0.166667 0.812500 0.250000
v 0.166667 1.166667 0.250000
v 0.166667 1.166667 0.150000
v 0.166667 1.129331 0.094566
v 0.166667 1.110335 0.073030
v 0.166667 1.102695 0.066882
v 0.166667 1.086655 0.063477
v 0.166667 1.057516 0.059638
v 0.166667 1.033605 0.074968
v 0.166667 1.019606 0.077564
v 0.166667 1.003656 0.103452
v 0.166667 0.989583 0.125521
v 0.166667 0.975511 0.103452
v 0.166667 0.959561 0.077564
v 0.166667 0.945562 0.074968
v 0.166667 0.921650 0.059638
v 0.166667 0.892512 0.063477
v 0.166667 0.876472 0.066882
v 0.166667 0.868832 0.073030
v 0.166667 0.849836 0.094566
v 0.166667 0.812500 0.150000
v 0.250000 0.875000 0.250000
v 0.250000 1.250000 0.250000
v 0.250000 1.250000 0.150000
v 0.250000 1.211398 0.091984
v 0.250000 1.190551 0.070727
v 0.250000 1.182167 0.065948
v 0.250000 1.165489 0.064004
v 0.250000 1.136274 0.064457
v 0.250000 1.112244 0.081534
v 0.250000 1.098159 0.081970
v 0.250000 1.079665 0.099982
v 0.250000 1.062500 0.117969
v 0.250000 1.045335 0.099982
v 0.250000 1.026841 0.081970
v 0.250000 1.012756 0.081534
v 0.250000 0.988726 0.064457
v 0.250000 0.959511 0.064004
v 0.250000 0.942833 0.065948
v 0.250000 0.934449 0.070727
v 0.250000 0.913602 0.091984
v 0.250000 0.875000 0.150000
v 0.333333 0.937500 0.250000
v 0.333333 1.333333 0.250000
v 0.333333 1.333333 0.150000
v 0.333333 1.293464 0.089402
v 0.333333 1.270768 0.068424
v 0.333333 1.261639 0.065014
v 0.333333 1.244324 0.064532
v 0.333333 1.215033 0.069276
v 0.333333 1.190884 0.088100
v 0.333333 1.176712 0.086377
v 0.333333 1.155674 0.096512
v 0.333333 1.135417 0.110417
v 0.333333 1.115159 0.096512
v 0.333333 1.094122 0.086377
v 0.333333 1.079949 0.088100
v 0.333333 1.055801 0.069276
v 0.333333 1.026509 0.064532
v 0.333333 1.009194 0.065014
v 0.333333 1.000065 0.068424
v 0.333333 0.977369 0.089402
v 0.333333 0.937500 0.150000
v 0.416667 1.000000 0.250000
v 0.416667 1.416667 0.250000
v 0.416667 1.416667 0.150000
v 0.416667 1.375531 0.086821
v 0.416667 1.350984 0.066121
v 0.416667 1.341111 0.064080
v 0.416667 1.323158 0.065059
v 0.416667 1.293791 0.074095
v 0.416667 1.269523 0.094665
v 0.416667 1.255265 0.090784
v 0.416667 1.231684 0.093042
v 0.416667 1.208333 0.102865
v 0.416667 1.184983 0.093042
v 0.416667 1.161402 0.090784
v 0.416667 1.147143 0.094665
v 0.416667 1.122876 0.074095
v 0.416667 1.093508 0.065059
v 0.416667 1.075555 0.064080
v 0.416667 1.065682 0.066121
v 0.416667 1.041135 0.086821
v 0.416667 1.000000 0.150000
v 0.500000 1.062500 0.250000
v 0.500000 1.500000 0.250000
v 0.500000 1.500000 0.150000
v 0.500000 1.457598 0.084239
v 0.500000 1.431201 0.063818
v 0.500000 1.420584 0.063146
v 0.500000 1.401993 0.065586
v 0.500000 1.372549 0.078913
v 0.500000 1.348163 0.101231
v 0.500000 1.333818 0.095191
v 0.500000 1.307693 0.089571
v 0.500000 1.281250 0.095313
v 0.500000 1.254807 0.089571
v 0.500000 1.228682 0.095191
v 0.500000 1.214337 0.101231
v 0.500000 1.189951 0.078913
v 0.500000 1.160507 0.065586
v 0.500000 1.141916 0.063146
v 0.500000 1.131299 0.063818
v 0.500000 1.104902 0.084239
v 0.500000 1.062500 0.150000
v 0.583333 1.125000 0.250000
v 0.583333 1.583333 0.250000
v 0.583333 1.583333 0.150000
v 0.583333 1.539665 0.081658
v 0.583333 1.511417 0.061515
v 0.583333 1.500056 0.062212
v 0.583333 1.480827 0.066114
v 0.583333 1.451307 0.083732
v 0.583333 1.426802 0.107797
v 0.583333 1.412371 0.099597
v 0.583333 1.383703 0.086101
v 0.583333 1.354167 0.087760
v 0.583333 1.324631 0.086101
v 0.583333 1.295963 0.099597
v 0.583333 1.281531 0.107797
v 0.583333 1.257026 0.083732
v 0.583333 1.227506 0.066114
v 0.583333 1.208277 0.062212
v 0.583333 1.196916 0.061515
v 0.583333 1.168668 0.081658
v 0.583333 1.125000 0.150000
v 0.666667 1.187500 0.250000
v 0.666667 1.666667 0.250000
v 0.666667 1.666667 0.150000
v 0.666667 1.621732 0.079076
v 0.666667 1.591634 0.059212
v 0.666667 1.579528 0.061278
v 0.666667 1.559662 0.066641
v 0.666667 1.530065 0.088551
v 0.666667 1.505442 0.114362
v 0.666667 1.490924 0.104004
v 0.666667 1.459712 0.082631
v 0.666667 1.427083 0.080208
v 0.666667 1.394454 0.082631
v 0.666667 1.363243 0.104004
v 0.666667 1.348725 0.114362
v 0.666667 1.324102 0.088551
v 0.666667 1.294505 0.066641
v 0.666667 1.274639 0.061278
v 0.666667 1.262533 0.059212
v 0.666667 1.232434 0.079076
v 0.666667 1.187500 0.150000
v 0.750000 1.250000 0.250000
v 0.750000 1.750000 0.250000
v 0.750000 1.750000 0.150000
v 0.750000 1.703799 0.076495
v 0.750000 1.671850 0.056909
v 0.750000 1.659000 0.060344
v 0.750000 1.638496 0.067168
v 0.750000 1.608823 0.093370
v 0.750000 1.584081 0.120928
v 0.750000 1.569476 0.108411
v 0.750000 1.535722 0.079161
v 0.750000 1.500000 0.072656
v 0.750000 1.464278 0.079161
v 0.750000 1.430524 0.108411
v 0.750000 1.415919 0.120928
v 0.750000 1.391177 0.093370
v 0.750000 1.361504 0.067168
v 0.750000 1.341000 0.060344
v 0.750000 1.328150 0.056909
v 0.750000 1.296201 0.076495
v 0.750000 1.250000 0.150000
v 0.833333 1.312500 0.250000
v 0.833333 1.833333 0.250000
v 0.833333 1.833333 0.150000
v 0.833333 1.785866 0.073913
v 0.833333 1.752067 0.054606
v 0.833333 1.738473 0.059410
v 0.833333 1.717331 0.067695
v 0.833333 1.687581 0.098189
v 0.833333 1.662721 0.127494
v 0.833333 1.648029 0.112818
v 0.833333 1.611731 0.075690
v 0.833333 1.572917 0.065104
v 0.833333 1.534102 0.075690
v 0.833333 1.497804 0.112818
v 0.833333 1.483112 0.127494
v 0.833333 1.458252 0.098189
v 0.833333 1.428502 0.067695
v 0.833333 1.407361 0.059410
v 0.833333 1.393766 0.054606
v 0.833333 1.359967 0.073913
v 0.833333 1.312500 0.150000
v 0.916667 1.375000 0.250000
v 0.916667 1.916667 0.250000
v 0.916667 1.916667 0.150000
v 0.916667 1.867933 0.071332
v 0.916667 1.832283 0.052303
v 0.916667 1.817945 0.058475
v 0.916667 1.796165 0.068223
v 0.916667 1.766340 0.103008
v 0.916667 1.741360 0.134059
v 0.916667 1.726582 0.117224
v 0.916667 1.687741 0.072220
v 0.916667 1.645833 0.057552
v 0.916667 1.603926 0.072220
v 0.916667 1.565084 0.117224
v 0.916667 1.550306 0.134059
v 0.916667 1.525327 0.103008
v 0.916667 1.495501 0.068223
v 0.916667 1.473722 0.058475
v 0.916667 1.459383 0.052303
v 0.916667 1.423734 0.071332
v 0.916667 1.375000 0.150000
v 1.000000 1.437500 0.250000
v 1.000000 2.000000 0.250000
v 1.000000 2.000000 0.150000
v 1.000000 1.950000 0.068750
v 1.000000 1.912500 0.050000
v 1.000000 1.897417 0.057541
v 1.000000 1.875000 0.068750
v 1.000000 1.845098 0.107827
v 1.000000 1.820000 0.140625
v 1.000000 1.805135 0.121631
v 1.000000 1.763750 0.068750
v 1.000000 1.718750 0.050000
v 1.000000 1.673750 0.068750
v 1.000000 1.632365 0.121631
v 1.000000 1.617500 0.140625
v 1.000000 1.592402 0.107827
v 1.000000 1.562500 0.068750
v 1.000000 1.540083 0.057541
v 1.000000 1.525000 0.050000
v 1.000000 1.487500 0.068750
v 1.000000 1.437500 0.150000
vt 0.890625 0.125000
vn 0.000000 0.000000 1.000000
vn -0.707107 0.707107 0.000000
vn -0.635092 0.635092 -0.439679
vn -0.637451 0.633492 -0.438571
vn -0.628092 0.639780 -0.442925
vn -0.360080 0.367496 -0.857490
vn -0.344396 0.369821 -0.862916
vn 0.428602 -0.404055 -0.808109
vn 0.441819 -0.401197 -0.802395
vn 0.679223 -0.710165 -0.185260
vn 0.657251 -0.729266 -0.190243
vn -0.656168 0.730178 -0.190481
vn -0.634664 0.747763 -0.195069
vn -0.299375 0.426702 -0.853405
vn -0.278639 0.429502 -0.859004
vn 0.347189 -0.369416 -0.861970
vn 0.306952 -0.374903 -0.874773
vn 0.544020 -0.689879 -0.477608
vn 0.534045 -0.695127 -0.481242
vn 0.521695 -0.701439 -0.485611
vn 0.600000 -0.800000 0.000000
vn -0.636834 0.636834 -0.434609
vn -0.621544 0.615907 -0.484088
vn -0.588560 0.595738 -0.546528
vn -0.285585 0.288720 -0.913828
vn -0.241430 0.261459 -0.934532
vn 0.460518 -0.440104 -0.770865
vn 0.354970 -0.302297 -0.884654
vn 0.667159 -0.692338 -0.274895
vn 0.636325 -0.711272 -0.298634
vn -0.644025 0.705356 -0.296150
vn -0.621881 0.727839 -0.288991
vn -0.206477 0.316386 -0.925887
vn -0.314542 0.470642 -0.824354
vn 0.262960 -0.259947 -0.929128
vn 0.240934 -0.292391 -0.925450
vn 0.501219 -0.637643 -0.584971
vn 0.515750 -0.673584 -0.529420
vn 0.523598 -0.703709 -0.480248
vn -0.638404 0.638404 -0.429976
vn -0.604599 0.597354 -0.526905
vn -0.529999 0.531625 -0.660663
vn -0.204572 0.203257 -0.957516
vn -0.116505 0.129740 -0.984680
vn 0.487794 -0.471166 -0.734887
vn 0.242058 -0.176855 -0.954008
vn 0.638798 -0.655033 -0.403571
vn 0.598292 -0.675610 -0.430811
vn -0.618201 0.662745 -0.422608
vn -0.592345 0.685947 -0.422617
vn -0.094739 0.181456 -0.978825
vn -0.346081 0.506382 -0.789814
vn 0.160372 -0.128939 -0.978599
vn 0.170598 -0.204604 -0.963864
vn 0.440379 -0.562854 -0.699473
vn 0.496661 -0.650911 -0.574145
vn 0.525318 -0.705757 -0.475339
vn -0.639827 0.639827 -0.425725
vn -0.586868 0.578091 -0.566919
vn -0.447701 0.442794 -0.776851
vn -0.120633 0.114905 -0.986025
vn 0.020969 -0.015479 -0.999660
vn 0.511088 -0.497910 -0.700624
vn 0.107340 -0.030778 -0.993746
vn 0.571019 -0.572776 -0.588103
vn 0.533707 -0.611788 -0.583843
vn -0.571021 0.593894 -0.566767
vn -0.523510 0.594463 -0.610369
vn 0.027851 0.030945 -0.999133
vn -0.373683 0.537318 -0.756076
vn 0.045312 0.015466 -0.998853
vn 0.098860 -0.115183 -0.988413
vn 0.358967 -0.462189 -0.810878
vn 0.477076 -0.627483 -0.615356
vn 0.526879 -0.707615 -0.470829
vn -0.641122 0.641122 -0.421812
vn -0.568593 0.558364 -0.604095
vn -0.340997 0.328964 -0.880627
vn -0.037722 0.027815 -0.998901
vn 0.155573 -0.157929 -0.975118
vn 0.531001 -0.520956 -0.668313
vn -0.035631 0.120586 -0.992063
vn 0.415472 -0.394784 -0.819468
vn 0.434076 -0.509812 -0.742744
vn -0.495128 0.491671 -0.716315
vn -0.372329 0.402811 -0.836130
vn 0.148257 -0.119329 -0.981723
vn -0.397800 0.564053 -0.723601
vn -0.071418 0.159467 -0.984616
vn 0.028692 -0.027823 -0.999201
vn 0.259015 -0.337996 -0.904804
vn 0.457264 -0.603646 -0.653086
vn 0.528302 -0.709306 -0.466672
vn -0.642305 0.642305 -0.418198
vn -0.549995 0.538398 -0.638461
vn -0.216679 0.197651 -0.956025
vn 0.040712 -0.054416 -0.997688
vn 0.273410 -0.282863 -0.919367
vn 0.548060 -0.540858 -0.638047
vn -0.169364 0.258868 -0.950948
vn 0.141062 -0.094361 -0.985493
vn 0.300702 -0.369811 -0.879101
vn -0.389441 0.357145 -0.848990
vn -0.120433 0.094621 -0.988202
vn 0.254431 -0.254019 -0.933134
vn -0.418869 0.587161 -0.692670
vn -0.178512 0.289344 -0.940433
vn -0.037442 0.054423 -0.997816
vn 0.148582 -0.200214 -0.968420
vn 0.437460 -0.579702 -0.687441
vn 0.529604 -0.710852 -0.462828
vn -0.643390 0.643390 -0.414849
vn -0.531271 0.518390 -0.670092
vn -0.088062 0.062943 -0.994124
vn 0.112302 -0.129337 -0.985221
vn 0.368068 -0.383407 -0.847068
vn 0.562718 -0.558095 -0.609818
vn -0.281711 0.372356 -0.884302
vn -0.144973 0.208061 -0.967312
vn 0.151069 -0.209730 -0.966018
vn -0.264444 0.204612 -0.942445
vn 0.134255 -0.208379 -0.968790
vn 0.340428 -0.364894 -0.866580
vn -0.437296 0.607156 -0.663426
vn -0.268937 0.397163 -0.877459
vn -0.097901 0.129535 -0.986730
vn 0.039103 -0.063140 -0.997238
vn 0.417861 -0.555904 -0.718584
vn 0.530800 -0.712271 -0.459263
vn -0.644388 0.644388 -0.411739
vn -0.512590 0.498509 -0.699100
vn 0.031318 -0.061176 -0.997636
vn 0.175885 -0.195769 -0.964748
vn 0.440205 -0.460169 -0.771015
vn 0.575360 -0.573078 -0.583561
vn -0.369511 0.459021 -0.807937
vn -0.333421 0.401564 -0.852981
vn 0.009580 -0.056084 -0.998380
vn -0.138219 0.055548 -0.988843
vn 0.304093 -0.405765 -0.861906
vn 0.406411 -0.451346 -0.794428
vn -0.453444 0.624496 -0.635919
vn -0.341093 0.481761 -0.807193
vn -0.151903 0.196561 -0.968653
vn -0.059821 0.061097 -0.996338
vn 0.398625 -0.532462 -0.746715
vn 0.531902 -0.713577 -0.455948
vn -0.645309 0.645309 -0.408842
vn -0.494096 0.478895 -0.725623
vn 0.133464 -0.166697 -0.976934
vn 0.231293 -0.253569 -0.939258
vn 0.493865 -0.517373 -0.698872
vn 0.586305 -0.586150 -0.559173
vn -0.435610 0.522789 -0.732759
vn -0.439266 0.507580 -0.741221
vn -0.108423 0.073608 -0.991376
vn -0.025579 -0.074020 -0.996929
vn 0.402013 -0.517341 -0.755476
vn 0.455708 -0.516977 -0.724614
vn -0.467632 0.639572 -0.610137
vn -0.396915 0.546122 -0.737706
vn -0.199356 0.255405 -0.946058
vn -0.143493 0.166461 -0.975551
vn 0.379875 -0.509538 -0.772053
vn 0.532921 -0.714783 -0.452858
vn -0.646163 0.646163 -0.406137
vn -0.475906 0.459663 -0.749816
vn 0.216594 -0.252088 -0.943154
vn 0.279003 -0.303267 -0.911145
vn 0.533590 -0.559800 -0.633960
vn 0.595819 -0.597603 -0.536536
vn -0.484784 0.569166 -0.664105
vn -0.499999 0.567143 -0.654485
vn -0.200229 0.175515 -0.963900
vn 0.067437 -0.178735 -0.981584
vn 0.459425 -0.581675 -0.671255
vn 0.492272 -0.566438 -0.660921
vn -0.480136 0.652723 -0.586023
vn -0.439596 0.594519 -0.673278
vn -0.240618 0.306529 -0.920947
vn -0.211556 0.252373 -0.944220
vn 0.361701 -0.487257 -0.794829
vn 0.533866 -0.715901 -0.449970
vn -0.646955 0.646955 -0.403606
vn -0.458111 0.440900 -0.771843
vn 0.282631 -0.319578 -0.904428
vn 0.319826 -0.345733 -0.882145
vn 0.563193 -0.591472 -0.577039
vn 0.604125 -0.607677 -0.515520
vn -0.521495 0.603022 -0.603662
vn -0.537292 0.603065 -0.589602
vn -0.269791 0.253373 -0.928986
vn 0.141373 -0.260488 -0.955071
vn 0.495212 -0.621210 -0.607341
vn 0.519515 -0.603875 -0.604516
vn -0.491190 0.664231 -0.563497
vn -0.472250 0.630940 -0.615544
vn -0.276292 0.350695 -0.894805
vn -0.265941 0.321164 -0.908916
vn 0.344168 -0.465707 -0.815270
vn 0.534744 -0.716939 -0.447266
vn -0.647693 0.647693 -0.401233
vn -0.440782 0.422674 -0.791870
vn 0.334735 -0.372590 -0.865522
vn 0.354680 -0.381942 -0.853418
vn 0.585524 -0.615408 -0.527669
vn 0.611407 -0.616576 -0.496000
vn -0.549220 0.628031 -0.551303
vn -0.561776 0.626287 -0.540530
vn -0.322440 0.312718 -0.893443
vn 0.199442 -0.323726 -0.924892
vn 0.518952 -0.647116 -0.558507
vn 0.540032 -0.632515 -0.555239
vn -0.500997 0.674338 -0.542467
vn -0.497428 0.658566 -0.564674
vn -0.307064 0.388764 -0.868662
vn -0.309228 0.376021 -0.873491
vn 0.327315 -0.444947 -0.833599
vn 0.535562 -0.717906 -0.444729
usemtl body
f 1/1/1 2/1/1 3/1/1
f 1/1/1 3/1/1 4/1/1
f 4/1/2 3/1/2 5/1/2
f 4/1/2 5/1/2 6/1/2
f 6/1/3 5/1/3 7/1/3
f 6/1/3 7/1/3 8/1/3
f 8/1/4 7/1/4 9/1/4
f 8/1/4 9/1/4 10/1/4
f 10/1/5 9/1/5 11/1/5
f 10/1/5 11/1/5 12/1/5
f 12/1/6 11/1/6 13/1/6
f 12/1/6 13/1/6 14/1/6
f 14/1/7 13/1/7 15/1/7
f 14/1/7 15/1/7 16/1/7
f 16/1/8 15/1/8 17/1/8
f 16/1/8 17/1/8 18/1/8
f 18/1/9 17/1/9 19/1/9
f 18/1/9 19/1/9 20/1/9
f 20/1/10 19/1/10 21/1/10
f 20/1/10 21/1/10 22/1/10
f 22/1/11 21/1/11 23/1/11
f 22/1/11 23/1/11 24/1/11
f 24/1/12 23/1/12 25/1/12
f 24/1/12 25/1/12 26/1/12
f 26/1/13 25/1/13 27/1/13
f 26/1/13 27/1/13 28/1/13
f 28/1/14 27/1/14 29/1/14
f 28/1/14 29/1/14 30/1/14
f 30/1/15 29/1/15 31/1/15
f 30/1/15 31/1/15 32/1/15
f 32/1/16 31/1/16 33/1/16
f 32/1/16 33/1/16 34/1/16
f 34/1/17 33/1/17 35/1/17
f 34/1/17 35/1/17 36/1/17
f 36/1/18 35/1/18 37/1/18
f 36/1/18 37/1/18 38/1/18
f 38/1/19 37/1/19 39/1/19
f 38/1/19 39/1/19 40/1/19
f 40/1/20 39/1/20 41/1/20
f 40/1/20 41/1/20 42/1/20
f 42/1/21 41/1/21 2/1/21
f 42/1/21 2/1/21 1/1/21
f 2/1/1 43/1/1 44/1/1
f 2/1/1 44/1/1 3/1/1
f 3/1/2 44/1/2 45/1/2
f 3/1/2 45/1/2 5/1/2
f 5/1/22 45/1/22 46/1/22
f 5/1/22 46/1/22 7/1/22
f 7/1/23 46/1/23 47/1/23
f 7/1/23 47/1/23 9/1/23
f 9/1/24 47/1/24 48/1/24
f 9/1/24 48/1/24 11/1/24
f 11/1/25 48/1/25 49/1/25
f 11/1/25 49/1/25 13/1/25
f 13/1/26 49/1/26 50/1/26
f 13/1/26 50/1/26 15/1/26
f 15/1/27 50/1/27 51/1/27
f 15/1/27 51/1/27 17/1/27
f 17/1/28 51/1/28 52/1/28
f 17/1/28 52/1/28 19/1/28
f 19/1/29 52/1/29 53/1/29
f 19/1/29 53/1/29 21/1/29
f 21/1/30 53/1/30 54/1/30
f 21/1/30 54/1/30 23/1/30
f 23/1/31 54/1/31 55/1/31
f 23/1/31 55/1/31 25/1/31
f 25/1/32 55/1/32 56/1/32
f 25/1/32 56/1/32 27/1/32
f 27/1/33 56/1/33 57/1/33
f 27/1/33 57/1/33 29/1/33
f 29/1/34 57/1/34 58/1/34
f 29/1/34 58/1/34 31/1/34
f 31/1/35 58/1/35 59/1/35
f 31/1/35 59/1/35 33/1/35
f 33/1/36 59/1/36 60/1/36
f 33/1/36 60/1/36 35/1/36
f 35/1/37 60/1/37 61/1/37
f 35/1/37 61/1/37 37/1/37
f 37/1/38 61/1/38 62/1/38
f 37/1/38 62/1/38 39/1/38
f 39/1/39 62/1/39 63/1/39
f 39/1/39 63/1/39 41/1/39
f 41/1/21 63/1/21 43/1/21
f 41/1/21 43/1/21 2/1/21
f 43/1/1 64/1/1 65/1/1
f 43/1/1 65/1/1 44/1/1
f 44/1/2 65/1/2 66/1/2
f 44/1/2 66/1/2 45/1/2
f 45/1/40 66/1/40 67/1/40
f 45/1/40 67/1/40 46/1/40
f 46/1/41 67/1/41 68/1/41
f 46/1/41 68/1/41 47/1/41
f 47/1/42 68/1/42 69/1/42
f 47/1/42 69/1/42 48/1/42
f 48/1/43 69/1/43 70/1/43
f 48/1/43 70/1/43 49/1/43
f 49/1/44 70/1/44 71/1/44
f 49/1/44 71/1/44 50/1/44
f 50/1/45 71/1/45 72/1/45
f 50/1/45 72/1/45 51/1/45
f 51/1/46 72/1/46 73/1/46
f 51/1/46 73/1/46 52/1/46
f 52/1/47 73/1/47 74/1/47
f 52/1/47 74/1/47 53/1/47
f 53/1/48 74/1/48 75/1/48
f 53/1/48 75/1/48 54/1/48
f 54/1/49 75/1/49 76/1/49
f 54/1/49 76/1/49 55/1/49
f 55/1/50 76/1/50 77/1/50
f 55/1/50 77/1/50 56/1/50
f 56/1/51 77/1/51 78/1/51
f 56/1/51 78/1/51 57/1/51
f 57/1/52 78/1/52 79/1/52
f 57/1/52 79/1/52 58/1/52
f 58/1/53 79/1/53 80/1/53
f 58/1/53 80/1/53 59/1/53
f 59/1/54 80/1/54 81/1/54
f 59/1/54 81/1/54 60/1/54
f 60/1/55 81/1/55 82/1/55
f 60/1/55 82/1/55 61/1/55
f 61/1/56 82/1/56 83/1/56
f 61/1/56 83/1/56 62/1/56
f 62/1/57 83/1/57 84/1/57
f 62/1/57 84/1/57 63/1/57
f 63/1/21 84/1/21 64/1/21
f 63/1/21 64/1/21 43/1/21
f 64/1/1 85/1/1 86/1/1
f 64/1/1 86/1/1 65/1/1
f 65/1/2 86/1/2 87/1/2
f 65/1/2 87/1/2 66/1/2
f 66/1/58 87/1/58 88/1/58
f 66/1/58 88/1/58 67/1/58
f 67/1/59 88/1/59 89/1/59
f 67/1/59 89/1/59 68/1/59
f 68/1/60 89/1/60 90/1/60
f 68/1/60 90/1/60 69/1/60
f 69/1/61 90/1/61 91/1/61
f 69/1/61 91/1/61 70/1/61
f 70/1/62 91/1/62 92/1/62
f 70/1/62 92/1/62 71/1/62
f 71/1/63 92/1/63 93/1/63
f 71/1/63 93/1/63 72/1/63
f 72/1/64 93/1/64 94/1/64
f 72/1/64 94/1/64 73/1/64
f 73/1/65 94/1/65 95/1/65
f 73/1/65 95/1/65 74/1/65
f 74/1/66 95/1/66 96/1/66
f 74/1/66 96/1/66 75/1/66
f 75/1/67 96/1/67 97/1/67
f 75/1/67 97/1/67 76/1/67
f 76/1/68 97/1/68 98/1/68
f 76/1/68 98/1/68 77/1/68
f 77/1/69 98/1/69 99/1/69
f 77/1/69 99/1/69 78/1/69
f 78/1/70 99/1/70 100/1/70
f 78/1/70 100/1/70 79/1/70
f 79/1/71 100/1/71 101/1/71
f 79/1/71 101/1/71 80/1/71
f 80/1/72 101/1/72 102/1/72
f 80/1/72 102/1/72 81/1/72
f 81/1/73 102/1/73 103/1/73
f 81/1/73 103/1/73 82/1/73
f 82/1/74 103/1/74 104/1/74
f 82/1/74 104/1/74 83/1/74
f 83/1/75 104/1/75 105/1/75
f 83/1/75 105/1/75 84/1/75
f 84/1/21 105/1/21 85/1/21
f 84/1/21 85/1/21 64/1/21
f 85/1/1 106/1/1 107/1/1
f 85/1/1 107/1/1 86/1/1
f 86/1/2 107/1/2 108/1/2
f 86/1/2 108/1/2 87/1/2
f 87/1/76 108/1/76 109/1/76
f 87/1/76 109/1/76 88/1/76
f 88/1/77 109/1/77 110/1/77
f 88/1/77 110/1/77 89/1/77
f 89/1/78 110/1/78 111/1/78
f 89/1/78 111/1/78 90/1/78
f 90/1/79 111/1/79 112/1/79
f 90/1/79 112/1/79 91/1/79
f 91/1/80 112/1/80 113/1/80
f 91/1/80 113/1/80 92/1/80
f 92/1/81 113/1/81 114/1/81
f 92/1/81 114/1/81 93/1/81
f 93/1/82 114/1/82 115/1/82
f 93/1/82 115/1/82 94/1/82
f 94/1/83 115/1/83 116/1/83
f 94/1/83 116/1/83 95/1/83
f 95/1/84 116/1/84 117/1/84
f 95/1/84 117/1/84 96/1/84
f 96/1/85 117/1/85 118/1/85
f 96/1/85 118/1/85 97/1/85
f 97/1/86 118/1/86 119/1/86
f 97/1/86 119/1/86 98/1/86
f 98/1/87 119/1/87 120/1/87
f 98/1/87 120/1/87 99/1/87
f 99/1/88 120/1/88 121/1/88
f 99/1/88 121/1/88 100/1/88
f 100/1/89 121/1/89 122/1/89
f 100/1/89 122/1/89 101/1/89
f 101/1/90 122/1/90 123/1/90
f 101/1/90 123/1/90 102/1/90
f 102/1/91 123/1/91 124/1/91
f 102/1/91 124/1/91 103/1/91
f 103/1/92 124/1/92 125/1/92
f 103/1/92 125/1/92 104/1/92
f 104/1/93 125/1/93 126/1/93
f 104/1/93 126/1/93 105/1/93
f 105/1/21 126/1/21 106/1/21
f 105/1/21 106/1/21 85/1/21
f 106/1/1 127/1/1 128/1/1
f 106/1/1 128/1/1 107/1/1
f 107/1/2 128/1/2 129/1/2
f 107/1/2 129/1/2 108/1/2
f 108/1/94 129/1/94 130/1/94
f 108/1/94 130/1/94 109/1/94
f 109/1/95 130/1/95 131/1/95
f 109/1/95 131/1/95 110/1/95
f 110/1/96 131/1/96 132/1/96
f 110/1/96 132/1/96 111/1/96
f 111/1/97 132/1/97 133/1/97
f 111/1/97 133/1/97 112/1/97
f 112/1/98 133/1/98 134/1/98
f 112/1/98 134/1/98 113/1/98
f 113/1/99 134/1/99 135/1/99
f 113/1/99 135/1/99 114/1/99
f 114/1/100 135/1/100 136/1/100
f 114/1/100 136/1/100 115/1/100
f 115/1/101 136/1/101 137/1/101
f 115/1/101 137/1/101 116/1/101
f 116/1/102 137/1/102 138/1/102
f 116/1/102 138/1/102 117/1/102
f 117/1/103 138/1/103 139/1/103
f 117/1/103 139/1/103 118/1/103
f 118/1/104 139/1/104 140/1/104
f 118/1/104 140/1/104 119/1/104
f 119/1/105 140/1/105 141/1/105
f 119/1/105 141/1/105 120/1/105
f 120/1/106 141/1/106 142/1/106
f 120/1/106 142/1/106 121/1/106
f 121/1/107 142/1/107 143/1/107
f 121/1/107 143/1/107 122/1/107
f 122/1/108 143/1/108 144/1/108
f 122/1/108 144/1/108 123/1/108
f 123/1/109 144/1/109 145/1/109
f 123/1/109 145/1/109 124/1/109
f 124/1/110 145/1/110 146/1/110
f 124/1/110 146/1/110 125/1/110
f 125/1/111 146/1/111 147/1/111
f 125/1/111 147/1/111 126/1/111
f 126/1/21 147/1/21 127/1/21
f 126/1/21 127/1/21 106/1/21
f 127/1/1 148/1/1 149/1/1
f 127/1/1 149/1/1 128/1/1
f 128/1/2 149/1/2 150/1/2
f 128/1/2 150/1/2 129/1/2
f 129/1/112 150/1/112 151/1/112
f 129/1/112 151/1/112 130/1/112
f 130/1/113 151/1/113 152/1/113
f 130/1/113 152/1/113 131/1/113
f 131/1/114 152/1/114 153/1/114
f 131/1/114 153/1/114 132/1/114
f 132/1/115 153/1/115 154/1/115
f 132/1/115 154/1/115 133/1/115
f 133/1/116 154/1/116 155/1/116
f 133/1/116 155/1/116 134/1/116
f 134/1/117 155/1/117 156/1/117
f 134/1/117 156/1/117 135/1/117
f 135/1/118 156/1/118 157/1/118
f 135/1/118 157/1/118 136/1/118
f 136/1/119 157/1/119 158/1/119
f 136/1/119 158/1/119 137/1/119
f 137/1/120 158/1/120 159/1/120
f 137/1/120 159/1/120 138/1/120
f 138/1/121 159/1/121 160/1/121
f 138/1/121 160/1/121 139/1/121
f 139/1/122 160/1/122 161/1/122
f 139/1/122 161/1/122 140/1/122
f 140/1/123 161/1/123 162/1/123
f 140/1/123 162/1/123 141/1/123
f 141/1/124 162/1/124 163/1/124
f 141/1/124 163/1/124 142/1/124
f 142/1/125 163/1/125 164/1/125
f 142/1/125 164/1/125 143/1/125
f 143/1/126 164/1/126 165/1/126
f 143/1/126 165/1/126 144/1/126
f 144/1/127 165/1/127 166/1/127
f 144/1/127 166/1/127 145/1/127
f 145/1/128 166/1/128 167/1/128
f 145/1/128 167/1/128 146/1/128
f 146/1/129 167/1/129 168/1/129
f 146/1/129 168/1/129 147/1/129
f 147/1/21 168/1/21 148/1/21
f 147/1/21 148/1/21 127/1/21
f 148/1/1 169/1/1 170/1/1
f 148/1/1 170/1/1 149/1/1
f 149/1/2 170/1/2 171/1/2
f 149/1/2 171/1/2 150/1/2
f 150/1/130 171/1/130 172/1/130
f 150/1/130 172/1/130 151/1/130
f 151/1/131 172/1/131 173/1/131
f 151/1/131 173/1/131 152/1/131
f 152/1/132 173/1/132 174/1/132
f 152/1/132 174/1/132 153/1/132
f 153/1/133 174/1/133 175/1/133
f 153/1/133 175/1/133 154/1/133
f 154/1/134 175/1/134 176/1/134
f 154/1/134 176/1/134 155/1/134
f 155/1/135 176/1/135 177/1/135
f 155/1/135 177/1/135 156/1/135
f 156/1/136 177/1/136 178/1/136
f 156/1/136 178/1/136 157/1/136
f 157/1/137 178/1/137 179/1/137
f 157/1/137 179/1/137 158/1/137
f 158/1/138 179/1/138 180/1/138
f 158/1/138 180/1/138 159/1/138
f 159/1/139 180/1/139 181/1/139
f 159/1/139 181/1/139 160/1/139
f 160/1/140 181/1/140 182/1/140
f 160/1/140 182/1/140 161/1/140
f 161/1/141 182/1/141 183/1/141
f 161/1/141 183/1/141 162/1/141
f 162/1/142 183/1/142 184/1/142
f 162/1/142 184/1/142 163/1/142
f 163/1/143 184/1/143 185/1/143
f 163/1/143 185/1/143 164/1/143
f 164/1/144 185/1/144 186/1/144
f 164/1/144 186/1/144 165/1/144
f 165/1/145 186/1/145 187/1/145
f 165/1/145 187/1/145 166/1/145
f 166/1/146 187/1/146 188/1/146
f 166/1/146 188/1/146 167/1/146
f 167/1/147 188/1/147 189/1/147
f 167/1/147 189/1/147 168/1/147
f 168/1/21 189/1/21 169/1/21
f 168/1/21 169/1/21 148/1/21
f 169/1/1 190/1/1 191/1/1
f 169/1/1 191/1/1 170/1/1
f 170/1/2 191/1/2 192/1/2
f 170/1/2 192/1/2 171/1/2
f 171/1/148 192/1/148 193/1/148
f 171/1/148 193/1/148 172/1/148
f 172/1/149 193/1/149 194/1/149
f 172/1/149 194/1/149 173/1/149
f 173/1/150 194/1/150 195/1/150
f 173/1/150 195/1/150 174/1/150
f 174/1/151 195/1/151 196/1/151
f 174/1/151 196/1/151 175/1/151
f 175/1/152 196/1/152 197/1/152
f 175/1/152 197/1/152 176/1/152
f 176/1/153 197/1/153 198/1/153
f 176/1/153 198/1/153 177/1/153
f 177/1/154 198/1/154 199/1/154
f 177/1/154 199/1/154 178/1/154
f 178/1/155 199/1/155 200/1/155
f 178/1/155 200/1/155 179/1/155
f 179/1/156 200/1/156 201/1/156
f 179/1/156 201/1/156 180/1/156
f 180/1/157 201/1/157 202/1/157
f 180/1/157 202/1/157 181/1/157
f 181/1/158 202/1/158 203/1/158
f 181/1/158 203/1/158 182/1/158
f 182/1/159 203/1/159 204/1/159
f 182/1/159 204/1/159 183/1/159
f 183/1/160 204/1/160 205/1/160
f 183/1/160 205/1/160 184/1/160
f 184/1/161 205/1/161 206/1/161
f 184/1/161 206/1/161 185/1/161
f 185/1/162 206/1/162 207/1/162
f 185/1/162 207/1/162 186/1/162
f 186/1/163 207/1/163 208/1/163
f 186/1/163 208/1/163 187/1/163
f 187/1/164 208/1/164 209/1/164
f 187/1/164 209/1/164 188/1/164
f 188/1/165 209/1/165 210/1/165
f 188/1/165 210/1/165 189/1/165
f 189/1/21 210/1/21 190/1/21
f 189/1/21 190/1/21 169/1/21
f 190/1/1 211/1/1 212/1/1
f 190/1/1 212/1/1 191/1/1
f 191/1/2 212/1/2 213/1/2
f 191/1/2 213/1/2 192/1/2
f 192/1/166 213/1/166 214/1/166
f 192/1/166 214/1/166 193/1/166
f 193/1/167 214/1/167 215/1/167
f 193/1/167 215/1/167 194/1/167
f 194/1/168 215/1/168 216/1/168
f 194/1/168 216/1/168 195/1/168
f 195/1/169 216/1/169 217/1/169
f 195/1/169 217/1/169 196/1/169
f 196/1/170 217/1/170 218/1/170
f 196/1/170 218/1/170 197/1/170
f 197/1/171 218/1/171 219/1/171
f 197/1/171 219/1/171 198/1/171
f 198/1/172 219/1/172 220/1/172
f 198/1/172 220/1/172 199/1/172
f 199/1/173 220/1/173 221/1/173
f 199/1/173 221/1/173 200/1/173
f 200/1/174 221/1/174 222/1/174
f 200/1/174 222/1/174 201/1/174
f 201/1/175 222/1/175 223/1/175
f 201/1/175 223/1/175 202/1/175
f 202/1/176 223/1/176 224/1/176
f 202/1/176 224/1/176 203/1/176
f 203/1/177 224/1/177 225/1/177
f 203/1/177 225/1/177 204/1/177
f 204/1/178 225/1/178 226/1/178
f 204/1/178 226/1/178 205/1/178
f 205/1/179 226/1/179 227/1/179
f 205/1/179 227/1/179 206/1/179
f 206/1/180 227/1/180 228/1/180
f 206/1/180 228/1/180 207/1/180
f 207/1/181 228/1/181 229/1/181
f 207/1/181 229/1/181 208/1/181
f 208/1/182 229/1/182 230/1/182
f 208/1/182 230/1/182 209/1/182
f 209/1/183 230/1/183 231/1/183
f 209/1/183 231/1/183 210/1/183
f 210/1/21 231/1/21 211/1/21
f 210/1/21 211/1/21 190/1/21
f 211/1/1 232/1/1 233/1/1
f 211/1/1 233/1/1 212/1/1
f 212/1/2 233/1/2 234/1/2
f 212/1/2 234/1/2 213/1/2
f 213/1/184 234/1/184 235/1/184
f 213/1/184 235/1/184 214/1/184
f 214/1/185 235/1/185 236/1/185
f 214/1/185 236/1/185 215/1/185
f 215/1/186 236/1/186 237/1/186
f 215/1/186 237/1/186 216/1/186
f 216/1/187 237/1/187 238/1/187
f 216/1/187 238/1/187 217/1/187
f 217/1/188 238/1/188 239/1/188
f 217/1/188 239/1/188 218/1/188
f 218/1/189 239/1/189 240/1/189
f 218/1/189 240/1/189 219/1/189
f 219/1/190 240/1/190 241/1/190
f 219/1/190 241/1/190 220/1/190
f 220/1/191 241/1/191 242/1/191
f 220/1/191 242/1/191 221/1/191
f 221/1/192 242/1/192 243/1/192
f 221/1/192 243/1/192 222/1/192
f 222/1/193 243/1/193 244/1/193
f 222/1/193 244/1/193 223/1/193
f 223/1/194 244/1/194 245/1/194
f 223/1/194 245/1/194 224/1/194
f 224/1/195 245/1/195 246/1/195
f 224/1/195 246/1/195 225/1/195
f 225/1/196 246/1/196 247/1/196
f 225/1/196 247/1/196 226/1/196
f 226/1/197 247/1/197 248/1/197
f 226/1/197 248/1/197 227/1/197
f 227/1/198 248/1/198 249/1/198
f 227/1/198 249/1/198 228/1/198
f 228/1/199 249/1/199 250/1/199
f 228/1/199 250/1/199 229/1/199
f 229/1/200 250/1/200 251/1/200
f 229/1/200 251/1/200 230/1/200
f 230/1/201 251/1/201 252/1/201
f 230/1/201 252/1/201 231/1/201
f 231/1/21 252/1/21 232/1/21
f 231/1/21 232/1/21 211/1/21
f 232/1/1 253/1/1 254/1/1
f 232/1/1 254/1/1 233/1/1
f 233/1/2 254/1/2 255/1/2
f 233/1/2 255/1/2 234/1/2
f 234/1/202 255/1/202 256/1/202
f 234/1/202 256/1/202 235/1/202
f 235/1/203 256/1/203 257/1/203
f 235/1/203 257/1/203 236/1/203
f 236/1/204 257/1/204 258/1/204
f 236/1/204 258/1/204 237/1/204
f 237/1/205 258/1/205 259/1/205
f 237/1/205 259/1/205 238/1/205
f 238/1/206 259/1/206 260/1/206
f 238/1/206 260/1/206 239/1/206
f 239/1/207 260/1/207 261/1/207
f 239/1/207 261/1/207 240/1/207
f 240/1/208 261/1/208 262/1/208
f 240/1/208 262/1/208 241/1/208
f 241/1/209 262/1/209 263/1/209
f 241/1/209 263/1/209 242/1/209
f 242/1/210 263/1/210 264/1/210
f 242/1/210 264/1/210 243/1/210
f 243/1/211 264/1/211 265/1/211
f 243/1/211 265/1/211 244/1/211
f 244/1/212 265/1/212 266/1/212
f 244/1/212 266/1/212 245/1/212
f 245/1/213 266/1/213 267/1/213
f 245/1/213 267/1/213 246/1/213
f 246/1/214 267/1/214 268/1/214
f 246/1/214 268/1/214 247/1/214
f 247/1/215 268/1/215 269/1/215
f 247/1/215 269/1/215 248/1/215
f 248/1/216 269/1/216 270/1/216
f 248/1/216 270/1/216 249/1/216
f 249/1/217 270/1/217 271/1/217
f 249/1/217 271/1/217 250/1/217
f 250/1/218 271/1/218 272/1/218
f 250/1/218 272/1/218 251/1/218
f 251/1/219 272/1/219 273/1/219
f 251/1/219 273/1/219 252/1/219
f 252/1/21 273/1/21 253/1/21
f 252/1/21 253/1/21 232/1/21
