# Procedurally generated by dev-env-utils/scripts/gen_guardrails_box_cable.py -- do not hand edit
mtllib guardrail_cable_barrier_double.mtl
o guardrail_cable_barrier_double_end_right_down
v 1.000000 -0.461845 0.118242
v 1.000000 -0.443242 0.136845
v 1.000000 -0.475000 0.150000
v 1.000000 -0.488155 0.118242
v 1.000000 -0.506758 0.136845
v 1.000000 -0.506758 0.163155
v 1.000000 -0.488155 0.181758
v 1.000000 -0.461845 0.181758
v 1.000000 -0.443242 0.163155
v 1.000000 -0.324345 0.118242
v 1.000000 -0.305742 0.136845
v 1.000000 -0.337500 0.150000
v 1.000000 -0.350655 0.118242
v 1.000000 -0.369258 0.136845
v 1.000000 -0.369258 0.163155
v 1.000000 -0.350655 0.181758
v 1.000000 -0.324345 0.181758
v 1.000000 -0.305742 0.163155
v 1.000000 -0.199345 0.118242
v 1.000000 -0.180742 0.136845
v 1.000000 -0.212500 0.150000
v 1.000000 -0.225655 0.118242
v 1.000000 -0.244258 0.136845
v 1.000000 -0.244258 0.163155
v 1.000000 -0.225655 0.181758
v 1.000000 -0.199345 0.181758
v 1.000000 -0.180742 0.163155
v 1.000000 -0.461845 0.318242
v 1.000000 -0.443242 0.336845
v 1.000000 -0.475000 0.350000
v 1.000000 -0.488155 0.318242
v 1.000000 -0.506758 0.336845
v 1.000000 -0.506758 0.363155
v 1.000000 -0.488155 0.381758
v 1.000000 -0.461845 0.381758
v 1.000000 -0.443242 0.363155
v 1.000000 -0.324345 0.318242
v 1.000000 -0.305742 0.336845
v 1.000000 -0.337500 0.350000
v 1.000000 -0.350655 0.318242
v 1.000000 -0.369258 0.336845
v 1.000000 -0.369258 0.363155
v 1.000000 -0.350655 0.381758
v 1.000000 -0.324345 0.381758
v 1.000000 -0.305742 0.363155
v 1.000000 -0.199345 0.318242
v 1.000000 -0.180742 0.336845
v 1.000000 -0.212500 0.350000
v 1.000000 -0.225655 0.318242
v 1.000000 -0.244258 0.336845
v 1.000000 -0.244258 0.363155
v 1.000000 -0.225655 0.381758
v 1.000000 -0.199345 0.381758
v 1.000000 -0.180742 0.363155
vt 0.890625 0.625000
vn 1.000000 0.000000 0.000000
usemtl body
f 1/1/1 2/1/1 3/1/1
f 4/1/1 1/1/1 3/1/1
f 5/1/1 4/1/1 3/1/1
f 6/1/1 5/1/1 3/1/1
f 7/1/1 6/1/1 3/1/1
f 8/1/1 7/1/1 3/1/1
f 9/1/1 8/1/1 3/1/1
f 2/1/1 9/1/1 3/1/1
f 10/1/1 11/1/1 12/1/1
f 13/1/1 10/1/1 12/1/1
f 14/1/1 13/1/1 12/1/1
f 15/1/1 14/1/1 12/1/1
f 16/1/1 15/1/1 12/1/1
f 17/1/1 16/1/1 12/1/1
f 18/1/1 17/1/1 12/1/1
f 11/1/1 18/1/1 12/1/1
f 19/1/1 20/1/1 21/1/1
f 22/1/1 19/1/1 21/1/1
f 23/1/1 22/1/1 21/1/1
f 24/1/1 23/1/1 21/1/1
f 25/1/1 24/1/1 21/1/1
f 26/1/1 25/1/1 21/1/1
f 27/1/1 26/1/1 21/1/1
f 20/1/1 27/1/1 21/1/1
f 28/1/1 29/1/1 30/1/1
f 31/1/1 28/1/1 30/1/1
f 32/1/1 31/1/1 30/1/1
f 33/1/1 32/1/1 30/1/1
f 34/1/1 33/1/1 30/1/1
f 35/1/1 34/1/1 30/1/1
f 36/1/1 35/1/1 30/1/1
f 29/1/1 36/1/1 30/1/1
f 37/1/1 38/1/1 39/1/1
f 40/1/1 37/1/1 39/1/1
f 41/1/1 40/1/1 39/1/1
f 42/1/1 41/1/1 39/1/1
f 43/1/1 42/1/1 39/1/1
f 44/1/1 43/1/1 39/1/1
f 45/1/1 44/1/1 39/1/1
f 38/1/1 45/1/1 39/1/1
f 46/1/1 47/1/1 48/1/1
f 49/1/1 46/1/1 48/1/1
f 50/1/1 49/1/1 48/1/1
f 51/1/1 50/1/1 48/1/1
f 52/1/1 51/1/1 48/1/1
f 53/1/1 52/1/1 48/1/1
f 54/1/1 53/1/1 48/1/1
f 47/1/1 54/1/1 48/1/1
