# Procedurally generated by dev-env-utils/scripts/gen_guardrails_thrie.py -- do not hand edit
mtllib guardrail_thrie_beam_wood.mtl
o guardrail_thrie_beam_wood_end_right_up
v 1.000000 1.250000 0.150000
v 1.000000 1.300000 0.068750
v 1.000000 1.300000 0.250000
v 1.000000 1.250000 0.250000
v 1.000000 1.337500 0.050000
v 1.000000 1.337500 0.250000
v 1.000000 1.375000 0.068750
v 1.000000 1.375000 0.250000
v 1.000000 1.430000 0.140625
v 1.000000 1.430000 0.250000
v 1.000000 1.486250 0.068750
v 1.000000 1.486250 0.250000
v 1.000000 1.531250 0.050000
v 1.000000 1.531250 0.250000
v 1.000000 1.576250 0.068750
v 1.000000 1.576250 0.250000
v 1.000000 1.632500 0.140625
v 1.000000 1.632500 0.250000
v 1.000000 1.687500 0.068750
v 1.000000 1.687500 0.250000
v 1.000000 1.725000 0.050000
v 1.000000 1.725000 0.250000
v 1.000000 1.762500 0.068750
v 1.000000 1.762500 0.250000
v 1.000000 1.812500 0.150000
v 1.000000 1.812500 0.250000
vt 0.890625 0.125000
vn 1.000000 0.000000 0.000000
usemtl body
f 1/1/1 2/1/1 3/1/1
f 1/1/1 3/1/1 4/1/1
f 2/1/1 5/1/1 6/1/1
f 2/1/1 6/1/1 3/1/1
f 5/1/1 7/1/1 8/1/1
f 5/1/1 8/1/1 6/1/1
f 7/1/1 9/1/1 10/1/1
f 7/1/1 10/1/1 8/1/1
f 9/1/1 11/1/1 12/1/1
f 9/1/1 12/1/1 10/1/1
f 11/1/1 13/1/1 14/1/1
f 11/1/1 14/1/1 12/1/1
f 13/1/1 15/1/1 16/1/1
f 13/1/1 16/1/1 14/1/1
f 15/1/1 17/1/1 18/1/1
f 15/1/1 18/1/1 16/1/1
f 17/1/1 19/1/1 20/1/1
f 17/1/1 20/1/1 18/1/1
f 19/1/1 21/1/1 22/1/1
f 19/1/1 22/1/1 20/1/1
f 21/1/1 23/1/1 24/1/1
f 21/1/1 24/1/1 22/1/1
f 23/1/1 25/1/1 26/1/1
f 23/1/1 26/1/1 24/1/1
