# Procedurally generated by dev-env-utils/scripts/gen_guardrails_box_cable.py -- do not hand edit
mtllib guardrail_end_bullnose_box.mtl
o guardrail_end_bullnose_box_mirrored
v 1.000000 0.500000 0.050000
v 0.772722 0.500000 0.050026
v 0.777278 0.500000 0.249974
v 1.000000 0.500000 0.250000
v 0.777278 0.700000 0.249974
v 1.000000 0.700000 0.250000
v 0.772722 0.700000 0.050026
v 1.000000 0.700000 0.050000
v 0.695727 0.500000 0.058932
v 0.740231 0.500000 0.253918
v 0.740231 0.700000 0.253918
v 0.695727 0.700000 0.058932
v 0.620429 0.500000 0.085280
v 0.707206 0.500000 0.265474
v 0.707206 0.700000 0.265474
v 0.620429 0.700000 0.085280
v 0.552882 0.500000 0.127723
v 0.677580 0.500000 0.284089
v 0.677580 0.700000 0.284089
v 0.552882 0.700000 0.127723
v 0.496473 0.500000 0.184132
v 0.652839 0.500000 0.308830
v 0.652839 0.700000 0.308830
v 0.496473 0.700000 0.184132
v 0.454030 0.500000 0.251679
v 0.634224 0.500000 0.338456
v 0.634224 0.700000 0.338456
v 0.454030 0.700000 0.251679
v 0.427682 0.500000 0.326977
v 0.622668 0.500000 0.371481
v 0.622668 0.700000 0.371481
v 0.427682 0.700000 0.326977
v 0.418750 0.500000 0.406250
v 0.618750 0.500000 0.406250
v 0.618750 0.700000 0.406250
v 0.418750 0.700000 0.406250
v 0.427682 0.500000 0.485523
v 0.622668 0.500000 0.441019
v 0.622668 0.700000 0.441019
v 0.427682 0.700000 0.485523
v 0.454030 0.500000 0.560821
v 0.634224 0.500000 0.474044
v 0.634224 0.700000 0.474044
v 0.454030 0.700000 0.560821
v 0.496473 0.500000 0.628368
v 0.652839 0.500000 0.503670
v 0.652839 0.700000 0.503670
v 0.496473 0.700000 0.628368
v 0.552882 0.500000 0.684777
v 0.677580 0.500000 0.528411
v 0.677580 0.700000 0.528411
v 0.552882 0.700000 0.684777
v 0.620429 0.500000 0.727220
v 0.707206 0.500000 0.547026
v 0.707206 0.700000 0.547026
v 0.620429 0.700000 0.727220
v 0.695727 0.500000 0.753568
v 0.740231 0.500000 0.558582
v 0.740231 0.700000 0.558582
v 0.695727 0.700000 0.753568
v 0.771699 0.500000 0.762446
v 0.778301 0.500000 0.562554
v 0.778301 0.700000 0.562554
v 0.771699 0.700000 0.762446
v 0.912500 0.500000 0.762500
v 0.912500 0.500000 0.562500
v 0.912500 0.700000 0.562500
v 0.912500 0.700000 0.762500
v 1.000000 0.600000 0.150000
v 0.912500 0.600000 0.662500
v 0.987500 0.000000 0.287500
v 0.987500 0.037500 0.287500
v 0.987500 0.037500 0.012500
v 0.987500 0.000000 0.012500
v 0.712500 0.000000 0.012500
v 0.712500 0.037500 0.012500
v 0.712500 0.037500 0.287500
v 0.712500 0.000000 0.287500
v 0.975000 0.037500 0.275000
v 0.975000 0.525000 0.275000
v 0.975000 0.525000 0.025000
v 0.975000 0.037500 0.025000
v 0.725000 0.037500 0.025000
v 0.725000 0.525000 0.025000
v 0.725000 0.525000 0.275000
v 0.725000 0.037500 0.275000
v 0.987500 0.000000 0.800000
v 0.987500 0.037500 0.800000
v 0.987500 0.037500 0.525000
v 0.987500 0.000000 0.525000
v 0.712500 0.000000 0.525000
v 0.712500 0.037500 0.525000
v 0.712500 0.037500 0.800000
v 0.712500 0.000000 0.800000
v 0.975000 0.037500 0.787500
v 0.975000 0.525000 0.787500
v 0.975000 0.525000 0.537500
v 0.975000 0.037500 0.537500
v 0.725000 0.037500 0.537500
v 0.725000 0.525000 0.537500
v 0.725000 0.525000 0.787500
v 0.725000 0.037500 0.787500
v 0.656250 0.000000 0.543750
v 0.656250 0.037500 0.543750
v 0.656250 0.037500 0.268750
v 0.656250 0.000000 0.268750
v 0.381250 0.000000 0.268750
v 0.381250 0.037500 0.268750
v 0.381250 0.037500 0.543750
v 0.381250 0.000000 0.543750
v 0.643750 0.037500 0.531250
v 0.643750 0.525000 0.531250
v 0.643750 0.525000 0.281250
v 0.643750 0.037500 0.281250
v 0.393750 0.037500 0.281250
v 0.393750 0.525000 0.281250
v 0.393750 0.525000 0.531250
v 0.393750 0.037500 0.531250
v 0.537500 0.650000 0.506250
v 0.537500 0.950000 0.506250
v 0.537500 0.950000 0.306250
v 0.537500 0.650000 0.306250
v 0.500000 0.650000 0.306250
v 0.500000 0.950000 0.306250
v 0.500000 0.950000 0.506250
v 0.500000 0.650000 0.506250
vt 0.890625 0.125000
vt 0.890625 0.375000
vt 0.890625 0.625000
vt 0.890625 0.875000
vn 0.000000 -1.000000 0.000000
vn 0.000000 -0.000000 1.000000
vn 0.000000 1.000000 0.000000
vn -0.000000 -0.000000 -1.000000
vn 0.022775 -0.000000 0.999741
vn -0.022775 -0.000000 -0.999741
vn 0.222521 -0.000000 0.974928
vn -0.222521 -0.000000 -0.974928
vn 0.433884 -0.000000 0.900969
vn -0.433884 -0.000000 -0.900969
vn 0.623490 -0.000000 0.781831
vn -0.623490 -0.000000 -0.781831
vn 0.781831 -0.000000 0.623490
vn -0.781831 -0.000000 -0.623490
vn 0.900969 -0.000000 0.433884
vn -0.900969 -0.000000 -0.433884
vn 0.974928 -0.000000 0.222521
vn -0.974928 -0.000000 -0.222521
vn 1.000000 -0.000000 0.000000
vn -1.000000 -0.000000 -0.000000
vn 0.974928 -0.000000 -0.222521
vn -0.974928 -0.000000 0.222521
vn 0.900969 -0.000000 -0.433884
vn -0.900969 -0.000000 0.433884
vn 0.781831 -0.000000 -0.623490
vn -0.781831 -0.000000 0.623490
vn 0.623490 -0.000000 -0.781831
vn -0.623490 -0.000000 0.781831
vn 0.433884 -0.000000 -0.900969
vn -0.433884 -0.000000 0.900969
vn 0.222521 -0.000000 -0.974928
vn -0.222521 -0.000000 0.974928
vn 0.033010 -0.000000 -0.999455
vn -0.033010 -0.000000 0.999455
usemtl body
f 3/1/1 2/1/1 1/1/1
f 4/1/1 3/1/1 1/1/1
f 5/1/2 3/1/2 4/1/2
f 6/1/2 5/1/2 4/1/2
f 7/1/3 5/1/3 6/1/3
f 8/1/3 7/1/3 6/1/3
f 2/1/4 7/1/4 8/1/4
f 1/1/4 2/1/4 8/1/4
f 10/1/1 9/1/1 2/1/1
f 3/1/1 10/1/1 2/1/1
f 11/1/5 10/1/5 3/1/5
f 5/1/5 11/1/5 3/1/5
f 12/1/3 11/1/3 5/1/3
f 7/1/3 12/1/3 5/1/3
f 9/1/6 12/1/6 7/1/6
f 2/1/6 9/1/6 7/1/6
f 14/1/1 13/1/1 9/1/1
f 10/1/1 14/1/1 9/1/1
f 15/1/7 14/1/7 10/1/7
f 11/1/7 15/1/7 10/1/7
f 16/1/3 15/1/3 11/1/3
f 12/1/3 16/1/3 11/1/3
f 13/1/8 16/1/8 12/1/8
f 9/1/8 13/1/8 12/1/8
f 18/1/1 17/1/1 13/1/1
f 14/1/1 18/1/1 13/1/1
f 19/1/9 18/1/9 14/1/9
f 15/1/9 19/1/9 14/1/9
f 20/1/3 19/1/3 15/1/3
f 16/1/3 20/1/3 15/1/3
f 17/1/10 20/1/10 16/1/10
f 13/1/10 17/1/10 16/1/10
f 22/1/1 21/1/1 17/1/1
f 18/1/1 22/1/1 17/1/1
f 23/1/11 22/1/11 18/1/11
f 19/1/11 23/1/11 18/1/11
f 24/1/3 23/1/3 19/1/3
f 20/1/3 24/1/3 19/1/3
f 21/1/12 24/1/12 20/1/12
f 17/1/12 21/1/12 20/1/12
f 26/1/1 25/1/1 21/1/1
f 22/1/1 26/1/1 21/1/1
f 27/1/13 26/1/13 22/1/13
f 23/1/13 27/1/13 22/1/13
f 28/1/3 27/1/3 23/1/3
f 24/1/3 28/1/3 23/1/3
f 25/1/14 28/1/14 24/1/14
f 21/1/14 25/1/14 24/1/14
f 30/1/1 29/1/1 25/1/1
f 26/1/1 30/1/1 25/1/1
f 31/1/15 30/1/15 26/1/15
f 27/1/15 31/1/15 26/1/15
f 32/1/3 31/1/3 27/1/3
f 28/1/3 32/1/3 27/1/3
f 29/1/16 32/1/16 28/1/16
f 25/1/16 29/1/16 28/1/16
f 34/1/1 33/1/1 29/1/1
f 30/1/1 34/1/1 29/1/1
f 35/1/17 34/1/17 30/1/17
f 31/1/17 35/1/17 30/1/17
f 36/1/3 35/1/3 31/1/3
f 32/1/3 36/1/3 31/1/3
f 33/1/18 36/1/18 32/1/18
f 29/1/18 33/1/18 32/1/18
f 38/1/1 37/1/1 33/1/1
f 34/1/1 38/1/1 33/1/1
f 39/1/19 38/1/19 34/1/19
f 35/1/19 39/1/19 34/1/19
f 40/1/3 39/1/3 35/1/3
f 36/1/3 40/1/3 35/1/3
f 37/1/20 40/1/20 36/1/20
f 33/1/20 37/1/20 36/1/20
f 42/1/1 41/1/1 37/1/1
f 38/1/1 42/1/1 37/1/1
f 43/1/21 42/1/21 38/1/21
f 39/1/21 43/1/21 38/1/21
f 44/1/3 43/1/3 39/1/3
f 40/1/3 44/1/3 39/1/3
f 41/1/22 44/1/22 40/1/22
f 37/1/22 41/1/22 40/1/22
f 46/1/1 45/1/1 41/1/1
f 42/1/1 46/1/1 41/1/1
f 47/1/23 46/1/23 42/1/23
f 43/1/23 47/1/23 42/1/23
f 48/1/3 47/1/3 43/1/3
f 44/1/3 48/1/3 43/1/3
f 45/1/24 48/1/24 44/1/24
f 41/1/24 45/1/24 44/1/24
f 50/1/1 49/1/1 45/1/1
f 46/1/1 50/1/1 45/1/1
f 51/1/25 50/1/25 46/1/25
f 47/1/25 51/1/25 46/1/25
f 52/1/3 51/1/3 47/1/3
f 48/1/3 52/1/3 47/1/3
f 49/1/26 52/1/26 48/1/26
f 45/1/26 49/1/26 48/1/26
f 54/1/1 53/1/1 49/1/1
f 50/1/1 54/1/1 49/1/1
f 55/1/27 54/1/27 50/1/27
f 51/1/27 55/1/27 50/1/27
f 56/1/3 55/1/3 51/1/3
f 52/1/3 56/1/3 51/1/3
f 53/1/28 56/1/28 52/1/28
f 49/1/28 53/1/28 52/1/28
f 58/1/1 57/1/1 53/1/1
f 54/1/1 58/1/1 53/1/1
f 59/1/29 58/1/29 54/1/29
f 55/1/29 59/1/29 54/1/29
f 60/1/3 59/1/3 55/1/3
f 56/1/3 60/1/3 55/1/3
f 57/1/30 60/1/30 56/1/30
f 53/1/30 57/1/30 56/1/30
f 62/1/1 61/1/1 57/1/1
f 58/1/1 62/1/1 57/1/1
f 63/1/31 62/1/31 58/1/31
f 59/1/31 63/1/31 58/1/31
f 64/1/3 63/1/3 59/1/3
f 60/1/3 64/1/3 59/1/3
f 61/1/32 64/1/32 60/1/32
f 57/1/32 61/1/32 60/1/32
f 66/1/1 65/1/1 61/1/1
f 62/1/1 66/1/1 61/1/1
f 67/1/33 66/1/33 62/1/33
f 63/1/33 67/1/33 62/1/33
f 68/1/3 67/1/3 63/1/3
f 64/1/3 68/1/3 63/1/3
f 65/1/34 68/1/34 64/1/34
f 61/1/34 65/1/34 64/1/34
f 69/1/19 4/1/19 1/1/19
f 69/1/19 6/1/19 4/1/19
f 69/1/19 8/1/19 6/1/19
f 69/1/19 1/1/19 8/1/19
f 70/1/19 65/1/19 66/1/19
f 70/1/19 66/1/19 67/1/19
f 70/1/19 67/1/19 68/1/19
f 70/1/19 68/1/19 65/1/19
f 73/2/19 72/2/19 71/2/19
f 74/2/19 73/2/19 71/2/19
f 77/2/20 76/2/20 75/2/20
f 78/2/20 77/2/20 75/2/20
f 78/2/1 75/2/1 74/2/1
f 71/2/1 78/2/1 74/2/1
f 76/2/3 77/2/3 72/2/3
f 73/2/3 76/2/3 72/2/3
f 75/2/4 76/2/4 73/2/4
f 74/2/4 75/2/4 73/2/4
f 77/2/2 78/2/2 71/2/2
f 72/2/2 77/2/2 71/2/2
f 81/3/19 80/3/19 79/3/19
f 82/3/19 81/3/19 79/3/19
f 85/3/20 84/3/20 83/3/20
f 86/3/20 85/3/20 83/3/20
f 86/3/1 83/3/1 82/3/1
f 79/3/1 86/3/1 82/3/1
f 84/3/3 85/3/3 80/3/3
f 81/3/3 84/3/3 80/3/3
f 83/3/4 84/3/4 81/3/4
f 82/3/4 83/3/4 81/3/4
f 85/3/2 86/3/2 79/3/2
f 80/3/2 85/3/2 79/3/2
f 89/2/19 88/2/19 87/2/19
f 90/2/19 89/2/19 87/2/19
f 93/2/20 92/2/20 91/2/20
f 94/2/20 93/2/20 91/2/20
f 94/2/1 91/2/1 90/2/1
f 87/2/1 94/2/1 90/2/1
f 92/2/3 93/2/3 88/2/3
f 89/2/3 92/2/3 88/2/3
f 91/2/4 92/2/4 89/2/4
f 90/2/4 91/2/4 89/2/4
f 93/2/2 94/2/2 87/2/2
f 88/2/2 93/2/2 87/2/2
f 97/3/19 96/3/19 95/3/19
f 98/3/19 97/3/19 95/3/19
f 101/3/20 100/3/20 99/3/20
f 102/3/20 101/3/20 99/3/20
f 102/3/1 99/3/1 98/3/1
f 95/3/1 102/3/1 98/3/1
f 100/3/3 101/3/3 96/3/3
f 97/3/3 100/3/3 96/3/3
f 99/3/4 100/3/4 97/3/4
f 98/3/4 99/3/4 97/3/4
f 101/3/2 102/3/2 95/3/2
f 96/3/2 101/3/2 95/3/2
f 105/2/19 104/2/19 103/2/19
f 106/2/19 105/2/19 103/2/19
f 109/2/20 108/2/20 107/2/20
f 110/2/20 109/2/20 107/2/20
f 110/2/1 107/2/1 106/2/1
f 103/2/1 110/2/1 106/2/1
f 108/2/3 109/2/3 104/2/3
f 105/2/3 108/2/3 104/2/3
f 107/2/4 108/2/4 105/2/4
f 106/2/4 107/2/4 105/2/4
f 109/2/2 110/2/2 103/2/2
f 104/2/2 109/2/2 103/2/2
f 113/3/19 112/3/19 111/3/19
f 114/3/19 113/3/19 111/3/19
f 117/3/20 116/3/20 115/3/20
f 118/3/20 117/3/20 115/3/20
f 118/3/1 115/3/1 114/3/1
f 111/3/1 118/3/1 114/3/1
f 116/3/3 117/3/3 112/3/3
f 113/3/3 116/3/3 112/3/3
f 115/3/4 116/3/4 113/3/4
f 114/3/4 115/3/4 113/3/4
f 117/3/2 118/3/2 111/3/2
f 112/3/2 117/3/2 111/3/2
f 121/4/19 120/4/19 119/4/19
f 122/4/19 121/4/19 119/4/19
f 125/4/20 124/4/20 123/4/20
f 126/4/20 125/4/20 123/4/20
f 126/4/1 123/4/1 122/4/1
f 119/4/1 126/4/1 122/4/1
f 124/4/3 125/4/3 120/4/3
f 121/4/3 124/4/3 120/4/3
f 123/4/4 124/4/4 121/4/4
f 122/4/4 123/4/4 121/4/4
f 125/4/2 126/4/2 119/4/2
f 120/4/2 125/4/2 119/4/2
