# Procedurally generated by dev-env-utils/scripts/gen_guardrails_box_cable.py -- do not hand edit
mtllib guardrail_box_beam_stacked_double.mtl
o guardrail_box_beam_stacked_double_core
v 0.000000 0.800000 0.050000
v 1.000000 0.800000 0.050000
v 1.000000 0.800000 0.250000
v 0.000000 0.800000 0.250000
v 1.000000 1.000000 0.250000
v 0.000000 1.000000 0.250000
v 1.000000 1.000000 0.050000
v 0.000000 1.000000 0.050000
v 0.000000 1.000000 0.950000
v 1.000000 1.000000 0.950000
v 1.000000 1.000000 0.750000
v 0.000000 1.000000 0.750000
v 1.000000 0.800000 0.750000
v 0.000000 0.800000 0.750000
v 1.000000 0.800000 0.950000
v 0.000000 0.800000 0.950000
v 0.000000 0.300000 0.050000
v 1.000000 0.300000 0.050000
v 1.000000 0.300000 0.250000
v 0.000000 0.300000 0.250000
v 1.000000 0.500000 0.250000
v 0.000000 0.500000 0.250000
v 1.000000 0.500000 0.050000
v 0.000000 0.500000 0.050000
v 0.000000 0.400000 0.150000
v 1.000000 0.400000 0.150000
v 0.000000 0.500000 0.950000
v 1.000000 0.500000 0.950000
v 1.000000 0.500000 0.750000
v 0.000000 0.500000 0.750000
v 1.000000 0.300000 0.750000
v 0.000000 0.300000 0.750000
v 1.000000 0.300000 0.950000
v 0.000000 0.300000 0.950000
v 0.000000 0.400000 0.850000
v 1.000000 0.400000 0.850000
vt 0.890625 0.125000
vn 0.000000 -1.000000 0.000000
vn 0.000000 -0.000000 1.000000
vn -0.000000 1.000000 0.000000
vn 0.000000 -0.000000 -1.000000
vn -1.000000 0.000000 0.000000
vn 1.000000 0.000000 0.000000
usemtl body
f 1/1/1 2/1/1 3/1/1
f 1/1/1 3/1/1 4/1/1
f 4/1/2 3/1/2 5/1/2
f 4/1/2 5/1/2 6/1/2
f 6/1/3 5/1/3 7/1/3
f 6/1/3 7/1/3 8/1/3
f 8/1/4 7/1/4 2/1/4
f 8/1/4 2/1/4 1/1/4
f 9/1/3 10/1/3 11/1/3
f 9/1/3 11/1/3 12/1/3
f 12/1/4 11/1/4 13/1/4
f 12/1/4 13/1/4 14/1/4
f 14/1/1 13/1/1 15/1/1
f 14/1/1 15/1/1 16/1/1
f 16/1/2 15/1/2 10/1/2
f 16/1/2 10/1/2 9/1/2
f 17/1/1 18/1/1 19/1/1
f 17/1/1 19/1/1 20/1/1
f 20/1/2 19/1/2 21/1/2
f 20/1/2 21/1/2 22/1/2
f 22/1/3 21/1/3 23/1/3
f 22/1/3 23/1/3 24/1/3
f 24/1/4 23/1/4 18/1/4
f 24/1/4 18/1/4 17/1/4
f 25/1/5 17/1/5 20/1/5
f 25/1/5 20/1/5 22/1/5
f 25/1/5 22/1/5 24/1/5
f 25/1/5 24/1/5 17/1/5
f 19/1/6 18/1/6 26/1/6
f 21/1/6 19/1/6 26/1/6
f 23/1/6 21/1/6 26/1/6
f 18/1/6 23/1/6 26/1/6
f 27/1/3 28/1/3 29/1/3
f 27/1/3 29/1/3 30/1/3
f 30/1/4 29/1/4 31/1/4
f 30/1/4 31/1/4 32/1/4
f 32/1/1 31/1/1 33/1/1
f 32/1/1 33/1/1 34/1/1
f 34/1/2 33/1/2 28/1/2
f 34/1/2 28/1/2 27/1/2
f 35/1/5 27/1/5 30/1/5
f 35/1/5 30/1/5 32/1/5
f 35/1/5 32/1/5 34/1/5
f 35/1/5 34/1/5 27/1/5
f 29/1/6 28/1/6 36/1/6
f 31/1/6 29/1/6 36/1/6
f 33/1/6 31/1/6 36/1/6
f 28/1/6 33/1/6 36/1/6
