# Procedurally generated by dev-env-utils/scripts/gen_guardrails_box_cable.py -- do not hand edit
mtllib guardrail_box_beam_stacked.mtl
o guardrail_box_beam_stacked_post_flat
v 0.400000 0.675000 0.400000
v 0.400000 0.987500 0.400000
v 0.400000 0.987500 0.250000
v 0.400000 0.675000 0.250000
v 0.600000 0.675000 0.250000
v 0.600000 0.987500 0.250000
v 0.600000 0.987500 0.400000
v 0.600000 0.675000 0.400000
v 0.400000 0.175000 0.400000
v 0.400000 0.487500 0.400000
v 0.400000 0.487500 0.250000
v 0.400000 0.175000 0.250000
v 0.600000 0.175000 0.250000
v 0.600000 0.487500 0.250000
v 0.600000 0.487500 0.400000
v 0.600000 0.175000 0.400000
v 0.375000 0.000000 0.437500
v 0.375000 1.000000 0.437500
v 0.375000 1.000000 0.400000
v 0.375000 0.000000 0.400000
v 0.625000 0.000000 0.400000
v 0.625000 1.000000 0.400000
v 0.625000 1.000000 0.437500
v 0.625000 0.000000 0.437500
v 0.375000 0.000000 0.600000
v 0.375000 1.000000 0.600000
v 0.412500 0.000000 0.437500
v 0.412500 1.000000 0.437500
v 0.412500 1.000000 0.600000
v 0.412500 0.000000 0.600000
v 0.587500 0.000000 0.600000
v 0.587500 1.000000 0.600000
v 0.587500 1.000000 0.437500
v 0.587500 0.000000 0.437500
v 0.625000 1.000000 0.600000
v 0.625000 0.000000 0.600000
vt 0.890625 0.875000
vt 0.890625 0.625000
vn -1.000000 0.000000 0.000000
vn 1.000000 0.000000 0.000000
vn 0.000000 -1.000000 0.000000
vn 0.000000 1.000000 0.000000
vn 0.000000 0.000000 -1.000000
vn 0.000000 0.000000 1.000000
usemtl body
f 1/1/1 2/1/1 3/1/1
f 1/1/1 3/1/1 4/1/1
f 5/1/2 6/1/2 7/1/2
f 5/1/2 7/1/2 8/1/2
f 4/1/3 5/1/3 8/1/3
f 4/1/3 8/1/3 1/1/3
f 2/1/4 7/1/4 6/1/4
f 2/1/4 6/1/4 3/1/4
f 3/1/5 6/1/5 5/1/5
f 3/1/5 5/1/5 4/1/5
f 9/1/1 10/1/1 11/1/1
f 9/1/1 11/1/1 12/1/1
f 13/1/2 14/1/2 15/1/2
f 13/1/2 15/1/2 16/1/2
f 12/1/3 13/1/3 16/1/3
f 12/1/3 16/1/3 9/1/3
f 10/1/4 15/1/4 14/1/4
f 10/1/4 14/1/4 11/1/4
f 11/1/5 14/1/5 13/1/5
f 11/1/5 13/1/5 12/1/5
f 17/2/1 18/2/1 19/2/1
f 17/2/1 19/2/1 20/2/1
f 21/2/2 22/2/2 23/2/2
f 21/2/2 23/2/2 24/2/2
f 18/2/4 23/2/4 22/2/4
f 18/2/4 22/2/4 19/2/4
f 19/2/5 22/2/5 21/2/5
f 19/2/5 21/2/5 20/2/5
f 17/2/6 24/2/6 23/2/6
f 17/2/6 23/2/6 18/2/6
f 25/2/1 26/2/1 18/2/1
f 25/2/1 18/2/1 17/2/1
f 27/2/2 28/2/2 29/2/2
f 27/2/2 29/2/2 30/2/2
f 26/2/4 29/2/4 28/2/4
f 26/2/4 28/2/4 18/2/4
f 25/2/6 30/2/6 29/2/6
f 25/2/6 29/2/6 26/2/6
f 31/2/1 32/2/1 33/2/1
f 31/2/1 33/2/1 34/2/1
f 24/2/2 23/2/2 35/2/2
f 24/2/2 35/2/2 36/2/2
f 32/2/4 35/2/4 23/2/4
f 32/2/4 23/2/4 33/2/4
f 31/2/6 36/2/6 35/2/6
f 31/2/6 35/2/6 32/2/6
