# Procedurally generated by dev-env-utils/scripts/gen_guardrails_thrie.py -- do not hand edit
mtllib guardrail_end_turndown_thrie.mtl
o guardrail_end_turndown_thrie
v 0.000000 0.337500 0.150000
v 0.000000 0.387500 0.068750
v 0.039474 0.387500 0.068750
v 0.039474 0.337500 0.150000
v 0.000000 0.337500 0.250000
v 0.039474 0.337500 0.250000
v 0.039474 0.387500 0.168750
v 0.000000 0.387500 0.168750
v 0.000000 0.425000 0.050000
v 0.039474 0.425000 0.050000
v 0.039474 0.425000 0.150000
v 0.000000 0.425000 0.150000
v 0.000000 0.462500 0.068750
v 0.039474 0.462500 0.068750
v 0.039474 0.462500 0.168750
v 0.000000 0.462500 0.168750
v 0.000000 0.517500 0.140625
v 0.039474 0.517500 0.140625
v 0.039474 0.517500 0.240625
v 0.000000 0.517500 0.240625
v 0.000000 0.573750 0.068750
v 0.039474 0.573750 0.068750
v 0.039474 0.573750 0.168750
v 0.000000 0.573750 0.168750
v 0.000000 0.618750 0.050000
v 0.039474 0.618750 0.050000
v 0.039474 0.618750 0.150000
v 0.000000 0.618750 0.150000
v 0.000000 0.663750 0.068750
v 0.039474 0.663750 0.068750
v 0.039474 0.663750 0.168750
v 0.000000 0.663750 0.168750
v 0.000000 0.720000 0.140625
v 0.039474 0.720000 0.140625
v 0.039474 0.720000 0.240625
v 0.000000 0.720000 0.240625
v 0.000000 0.775000 0.068750
v 0.039474 0.775000 0.068750
v 0.039474 0.775000 0.168750
v 0.000000 0.775000 0.168750
v 0.000000 0.812500 0.050000
v 0.039474 0.812500 0.050000
v 0.039474 0.812500 0.150000
v 0.000000 0.812500 0.150000
v 0.000000 0.850000 0.068750
v 0.039474 0.850000 0.068750
v 0.039474 0.850000 0.168750
v 0.000000 0.850000 0.168750
v 0.000000 0.900000 0.150000
v 0.039474 0.900000 0.150000
v 0.039474 0.900000 0.250000
v 0.000000 0.900000 0.250000
v 0.079145 0.387500 0.068750
v 0.078947 0.337500 0.150000
v 0.078947 0.337500 0.250000
v 0.079145 0.387500 0.168750
v 0.079293 0.424999 0.050000
v 0.079293 0.424999 0.150000
v 0.079441 0.462499 0.068750
v 0.079441 0.462499 0.168750
v 0.079659 0.517499 0.140625
v 0.079659 0.517499 0.240625
v 0.079881 0.573748 0.068750
v 0.079881 0.573748 0.168750
v 0.080059 0.618748 0.050000
v 0.080059 0.618748 0.150000
v 0.080237 0.663747 0.068750
v 0.080237 0.663747 0.168750
v 0.080459 0.719997 0.140625
v 0.080459 0.719997 0.240625
v 0.080676 0.774997 0.068750
v 0.080676 0.774997 0.168750
v 0.080825 0.812496 0.050000
v 0.080825 0.812496 0.150000
v 0.080973 0.849996 0.068750
v 0.080973 0.849996 0.168750
v 0.081170 0.899996 0.150000
v 0.081170 0.899996 0.250000
v 0.119763 0.387170 0.068750
v 0.118421 0.337188 0.150000
v 0.118421 0.337188 0.250000
v 0.119763 0.387170 0.168750
v 0.120769 0.424656 0.050000
v 0.120769 0.424656 0.150000
v 0.121776 0.462143 0.068750
v 0.121776 0.462143 0.168750
v 0.123252 0.517123 0.140625
v 0.123252 0.517123 0.240625
v 0.124761 0.573353 0.068750
v 0.124761 0.573353 0.168750
v 0.125969 0.618337 0.050000
v 0.125969 0.618337 0.150000
v 0.127176 0.663320 0.068750
v 0.127176 0.663320 0.168750
v 0.128686 0.719550 0.140625
v 0.128686 0.719550 0.240625
v 0.130162 0.774530 0.068750
v 0.130162 0.774530 0.168750
v 0.131168 0.812017 0.050000
v 0.131168 0.812017 0.150000
v 0.132175 0.849503 0.068750
v 0.132175 0.849503 0.168750
v 0.133516 0.899485 0.150000
v 0.133516 0.899485 0.250000
v 0.161368 0.385260 0.068750
v 0.157895 0.335381 0.150000
v 0.157895 0.335381 0.250000
v 0.161368 0.385260 0.168750
v 0.163973 0.422669 0.050000
v 0.163973 0.422669 0.150000
v 0.166577 0.460079 0.068750
v 0.166577 0.460079 0.168750
v 0.170398 0.514946 0.140625
v 0.170398 0.514946 0.240625
v 0.174305 0.571060 0.068750
v 0.174305 0.571060 0.168750
v 0.177431 0.615951 0.050000
v 0.177431 0.615951 0.150000
v 0.180556 0.660843 0.068750
v 0.180556 0.660843 0.168750
v 0.184463 0.716957 0.140625
v 0.184463 0.716957 0.240625
v 0.188284 0.771824 0.068750
v 0.188284 0.771824 0.168750
v 0.190888 0.809233 0.050000
v 0.190888 0.809233 0.150000
v 0.193493 0.846643 0.068750
v 0.193493 0.846643 0.168750
v 0.196966 0.896522 0.150000
v 0.196966 0.896522 0.250000
v 0.203428 0.381322 0.068750
v 0.197368 0.331691 0.150000
v 0.197368 0.331691 0.250000
v 0.203428 0.381322 0.168750
v 0.207972 0.418546 0.050000
v 0.207972 0.418546 0.150000
v 0.212517 0.455770 0.068750
v 0.212517 0.455770 0.168750
v 0.219182 0.510364 0.140625
v 0.219182 0.510364 0.240625
v 0.225999 0.566200 0.068750
v 0.225999 0.566200 0.168750
v 0.231453 0.610868 0.050000
v 0.231453 0.610868 0.150000
v 0.236906 0.655536 0.068750
v 0.236906 0.655536 0.168750
v 0.243723 0.711372 0.140625
v 0.243723 0.711372 0.240625
v 0.250388 0.765966 0.068750
v 0.250388 0.765966 0.168750
v 0.254933 0.803190 0.050000
v 0.254933 0.803190 0.150000
v 0.259477 0.840414 0.068750
v 0.259477 0.840414 0.168750
v 0.265537 0.890045 0.150000
v 0.265537 0.890045 0.250000
v 0.247468 0.374760 0.068750
v 0.236882 0.325928 0.150000
v 0.236882 0.325928 0.250000
v 0.247468 0.374760 0.168750
v 0.255406 0.411384 0.050000
v 0.255406 0.411384 0.150000
v 0.263345 0.448008 0.068750
v 0.263345 0.448008 0.168750
v 0.274989 0.501724 0.140625
v 0.274989 0.501724 0.240625
v 0.286897 0.556660 0.068750
v 0.286897 0.556660 0.168750
v 0.296424 0.600609 0.050000
v 0.296424 0.600609 0.150000
v 0.305950 0.644557 0.068750
v 0.305950 0.644557 0.168750
v 0.317859 0.699494 0.140625
v 0.317859 0.699494 0.240625
v 0.329502 0.753209 0.068750
v 0.329502 0.753209 0.168750
v 0.337441 0.789833 0.050000
v 0.337441 0.789833 0.150000
v 0.345380 0.826457 0.068750
v 0.345380 0.826457 0.168750
v 0.355965 0.875289 0.150000
v 0.355965 0.875289 0.250000
v 0.294014 0.364311 0.068750
v 0.277453 0.317773 0.150000
v 0.277453 0.317773 0.250000
v 0.294014 0.364311 0.168750
v 0.306435 0.399214 0.050000
v 0.306435 0.399214 0.150000
v 0.318857 0.434118 0.068750
v 0.318857 0.434118 0.168750
v 0.337074 0.485310 0.140625
v 0.337074 0.485310 0.240625
v 0.355706 0.537665 0.068750
v 0.355706 0.537665 0.168750
v 0.370611 0.579549 0.050000
v 0.370611 0.579549 0.150000
v 0.385517 0.621434 0.068750
v 0.385517 0.621434 0.168750
v 0.404149 0.673789 0.140625
v 0.404149 0.673789 0.240625
v 0.422366 0.724981 0.068750
v 0.422366 0.724981 0.168750
v 0.434787 0.759884 0.050000
v 0.434787 0.759884 0.150000
v 0.447209 0.794788 0.068750
v 0.447209 0.794788 0.168750
v 0.463770 0.841326 0.150000
v 0.463770 0.841326 0.250000
v 0.341632 0.349861 0.068750
v 0.320246 0.306650 0.150000
v 0.320246 0.306650 0.250000
v 0.341632 0.349861 0.168750
v 0.357673 0.382270 0.050000
v 0.357673 0.382270 0.150000
v 0.373713 0.414678 0.068750
v 0.373713 0.414678 0.168750
v 0.397238 0.462210 0.140625
v 0.397238 0.462210 0.240625
v 0.421298 0.510823 0.068750
v 0.421298 0.510823 0.168750
v 0.440547 0.549713 0.050000
v 0.440547 0.549713 0.150000
v 0.459795 0.588603 0.068750
v 0.459795 0.588603 0.168750
v 0.483855 0.637215 0.140625
v 0.483855 0.637215 0.240625
v 0.507380 0.684748 0.068750
v 0.507380 0.684748 0.168750
v 0.523421 0.717156 0.050000
v 0.523421 0.717156 0.150000
v 0.539461 0.749564 0.068750
v 0.539461 0.749564 0.168750
v 0.560848 0.792776 0.150000
v 0.560848 0.792776 0.250000
v 0.390055 0.331636 0.068750
v 0.365541 0.292085 0.150000
v 0.365541 0.292085 0.250000
v 0.390055 0.331636 0.168750
v 0.408440 0.361300 0.050000
v 0.408440 0.361300 0.150000
v 0.426825 0.390963 0.068750
v 0.426825 0.390963 0.168750
v 0.453791 0.434469 0.140625
v 0.453791 0.434469 0.240625
v 0.481369 0.478964 0.068750
v 0.481369 0.478964 0.168750
v 0.503432 0.514560 0.050000
v 0.503432 0.514560 0.150000
v 0.525494 0.550156 0.068750
v 0.525494 0.550156 0.168750
v 0.553072 0.594650 0.140625
v 0.553072 0.594650 0.240625
v 0.580038 0.638156 0.068750
v 0.580038 0.638156 0.168750
v 0.598423 0.667820 0.050000
v 0.598423 0.667820 0.150000
v 0.616809 0.697483 0.068750
v 0.616809 0.697483 0.168750
v 0.641322 0.737034 0.150000
v 0.641322 0.737034 0.250000
v 0.439319 0.309769 0.068750
v 0.413097 0.273859 0.150000
v 0.413097 0.273859 0.250000
v 0.439319 0.309769 0.168750
v 0.458986 0.336702 0.050000
v 0.458986 0.336702 0.150000
v 0.478652 0.363635 0.068750
v 0.478652 0.363635 0.168750
v 0.507496 0.403136 0.140625
v 0.507496 0.403136 0.240625
v 0.536996 0.443535 0.068750
v 0.536996 0.443535 0.168750
v 0.560596 0.475854 0.050000
v 0.560596 0.475854 0.150000
v 0.584196 0.508174 0.068750
v 0.584196 0.508174 0.168750
v 0.613696 0.548573 0.140625
v 0.613696 0.548573 0.240625
v 0.642540 0.588074 0.068750
v 0.642540 0.588074 0.168750
v 0.662206 0.615007 0.050000
v 0.662206 0.615007 0.150000
v 0.681873 0.641939 0.068750
v 0.681873 0.641939 0.168750
v 0.708095 0.677850 0.150000
v 0.708095 0.677850 0.250000
v 0.489234 0.284475 0.068750
v 0.462406 0.251993 0.150000
v 0.462406 0.251993 0.250000
v 0.489234 0.284475 0.168750
v 0.509356 0.308837 0.050000
v 0.509356 0.308837 0.150000
v 0.529477 0.333198 0.068750
v 0.529477 0.333198 0.168750
v 0.558988 0.368928 0.140625
v 0.558988 0.368928 0.240625
v 0.589170 0.405470 0.068750
v 0.589170 0.405470 0.168750
v 0.613315 0.434704 0.050000
v 0.613315 0.434704 0.150000
v 0.637460 0.463938 0.068750
v 0.637460 0.463938 0.168750
v 0.667642 0.500480 0.140625
v 0.667642 0.500480 0.240625
v 0.697153 0.536210 0.068750
v 0.697153 0.536210 0.168750
v 0.717274 0.560571 0.050000
v 0.717274 0.560571 0.150000
v 0.737395 0.584933 0.068750
v 0.737395 0.584933 0.168750
v 0.764224 0.617415 0.150000
v 0.764224 0.617415 0.250000
v 0.539468 0.256050 0.068750
v 0.512841 0.226688 0.150000
v 0.512841 0.226688 0.250000
v 0.539468 0.256050 0.168750
v 0.559438 0.278071 0.050000
v 0.559438 0.278071 0.150000
v 0.579409 0.300093 0.068750
v 0.579409 0.300093 0.168750
v 0.608698 0.332391 0.140625
v 0.608698 0.332391 0.240625
v 0.638654 0.365423 0.068750
v 0.638654 0.365423 0.168750
v 0.662618 0.391849 0.050000
v 0.662618 0.391849 0.150000
v 0.686582 0.418275 0.068750
v 0.686582 0.418275 0.168750
v 0.716537 0.451307 0.140625
v 0.716537 0.451307 0.240625
v 0.745827 0.483605 0.068750
v 0.745827 0.483605 0.168750
v 0.765797 0.505627 0.050000
v 0.765797 0.505627 0.150000
v 0.785767 0.527648 0.068750
v 0.785767 0.527648 0.168750
v 0.812394 0.557010 0.150000
v 0.812394 0.557010 0.250000
v 0.589606 0.224847 0.068750
v 0.563732 0.198251 0.150000
v 0.563732 0.198251 0.250000
v 0.589606 0.224847 0.168750
v 0.609011 0.244795 0.050000
v 0.609011 0.244795 0.150000
v 0.628417 0.264743 0.068750
v 0.628417 0.264743 0.168750
v 0.656878 0.293999 0.140625
v 0.656878 0.293999 0.240625
v 0.685985 0.323921 0.068750
v 0.685985 0.323921 0.168750
v 0.709272 0.347858 0.050000
v 0.709272 0.347858 0.150000
v 0.732558 0.371795 0.068750
v 0.732558 0.371795 0.168750
v 0.761666 0.401717 0.140625
v 0.761666 0.401717 0.240625
v 0.790127 0.430974 0.068750
v 0.790127 0.430974 0.168750
v 0.809532 0.450921 0.050000
v 0.809532 0.450921 0.150000
v 0.828937 0.470869 0.068750
v 0.828937 0.470869 0.168750
v 0.854811 0.497466 0.150000
v 0.854811 0.497466 0.250000
v 0.639187 0.191260 0.068750
v 0.614401 0.167048 0.150000
v 0.614401 0.167048 0.250000
v 0.639187 0.191260 0.168750
v 0.657776 0.209419 0.050000
v 0.657776 0.209419 0.150000
v 0.676365 0.227578 0.068750
v 0.676365 0.227578 0.168750
v 0.703629 0.254211 0.140625
v 0.703629 0.254211 0.240625
v 0.731513 0.281449 0.068750
v 0.731513 0.281449 0.168750
v 0.753820 0.303240 0.050000
v 0.753820 0.303240 0.150000
v 0.776128 0.325031 0.068750
v 0.776128 0.325031 0.168750
v 0.804011 0.352269 0.140625
v 0.804011 0.352269 0.240625
v 0.831276 0.378902 0.068750
v 0.831276 0.378902 0.168750
v 0.849865 0.397061 0.050000
v 0.849865 0.397061 0.150000
v 0.868454 0.415220 0.068750
v 0.868454 0.415220 0.168750
v 0.893240 0.439432 0.150000
v 0.893240 0.439432 0.250000
v 0.687724 0.155698 0.068750
v 0.664176 0.133471 0.150000
v 0.664176 0.133471 0.250000
v 0.687724 0.155698 0.168750
v 0.705385 0.172368 0.050000
v 0.705385 0.172368 0.150000
v 0.723046 0.189038 0.068750
v 0.723046 0.189038 0.168750
v 0.748949 0.213488 0.140625
v 0.748949 0.213488 0.240625
v 0.775441 0.238493 0.068750
v 0.775441 0.238493 0.168750
v 0.796634 0.258497 0.050000
v 0.796634 0.258497 0.150000
v 0.817827 0.278502 0.068750
v 0.817827 0.278502 0.168750
v 0.844319 0.303507 0.140625
v 0.844319 0.303507 0.240625
v 0.870222 0.327957 0.068750
v 0.870222 0.327957 0.168750
v 0.887883 0.344627 0.050000
v 0.887883 0.344627 0.150000
v 0.905544 0.361297 0.068750
v 0.905544 0.361297 0.168750
v 0.929092 0.383524 0.150000
v 0.929092 0.383524 0.250000
v 0.734720 0.118573 0.068750
v 0.712401 0.097906 0.150000
v 0.712401 0.097906 0.250000
v 0.734720 0.118573 0.168750
v 0.751459 0.134073 0.050000
v 0.751459 0.134073 0.150000
v 0.768198 0.149573 0.068750
v 0.768198 0.149573 0.168750
v 0.792749 0.172306 0.140625
v 0.792749 0.172306 0.240625
v 0.817858 0.195556 0.068750
v 0.817858 0.195556 0.168750
v 0.837945 0.214156 0.050000
v 0.837945 0.214156 0.150000
v 0.858032 0.232756 0.068750
v 0.858032 0.232756 0.168750
v 0.883141 0.256006 0.140625
v 0.883141 0.256006 0.240625
v 0.907692 0.278739 0.068750
v 0.907692 0.278739 0.168750
v 0.924431 0.294239 0.050000
v 0.924431 0.294239 0.150000
v 0.941171 0.309739 0.068750
v 0.941171 0.309739 0.168750
v 0.963490 0.330406 0.150000
v 0.963490 0.330406 0.250000
v 0.779676 0.080282 0.068750
v 0.758443 0.060715 0.150000
v 0.758443 0.060715 0.250000
v 0.779676 0.080282 0.168750
v 0.795600 0.094956 0.050000
v 0.795600 0.094956 0.150000
v 0.811525 0.109631 0.068750
v 0.811525 0.109631 0.168750
v 0.834881 0.131154 0.140625
v 0.834881 0.131154 0.240625
v 0.858768 0.153166 0.068750
v 0.858768 0.153166 0.168750
v 0.877878 0.170776 0.050000
v 0.877878 0.170776 0.150000
v 0.896987 0.188385 0.068750
v 0.896987 0.188385 0.168750
v 0.920874 0.210397 0.140625
v 0.920874 0.210397 0.240625
v 0.944230 0.231920 0.068750
v 0.944230 0.231920 0.168750
v 0.960155 0.246595 0.050000
v 0.960155 0.246595 0.150000
v 0.976079 0.261270 0.068750
v 0.976079 0.261270 0.168750
v 0.997312 0.280836 0.150000
v 0.997312 0.280836 0.250000
v 0.822103 0.041185 0.068750
v 0.801703 0.022208 0.150000
v 0.801703 0.022208 0.250000
v 0.822103 0.041185 0.168750
v 0.837404 0.055418 0.050000
v 0.837404 0.055418 0.150000
v 0.852705 0.069650 0.068750
v 0.852705 0.069650 0.168750
v 0.875146 0.090525 0.140625
v 0.875146 0.090525 0.240625
v 0.898097 0.111874 0.068750
v 0.898097 0.111874 0.168750
v 0.916458 0.128953 0.050000
v 0.916458 0.128953 0.150000
v 0.934819 0.146032 0.068750
v 0.934819 0.146032 0.168750
v 0.957770 0.167381 0.140625
v 0.957770 0.167381 0.240625
v 0.980211 0.188256 0.068750
v 0.980211 0.188256 0.168750
v 0.995511 0.202488 0.050000
v 0.995511 0.202488 0.150000
v 1.010812 0.216721 0.068750
v 1.010812 0.216721 0.168750
v 1.031213 0.235698 0.150000
v 1.031213 0.235698 0.250000
v 0.862368 0.000710 0.068750
v 0.842310 -0.018103 0.150000
v 0.842310 -0.018103 0.250000
v 0.862368 0.000710 0.168750
v 0.877411 0.014820 0.050000
v 0.877411 0.014820 0.150000
v 0.892454 0.028930 0.068750
v 0.892454 0.028930 0.168750
v 0.914518 0.049625 0.140625
v 0.914518 0.049625 0.240625
v 0.937082 0.070790 0.068750
v 0.937082 0.070790 0.168750
v 0.955134 0.087722 0.050000
v 0.955134 0.087722 0.150000
v 0.973186 0.104654 0.068750
v 0.973186 0.104654 0.168750
v 0.995751 0.125819 0.140625
v 0.995751 0.125819 0.240625
v 1.017814 0.146514 0.068750
v 1.017814 0.146514 0.168750
v 1.032857 0.160624 0.050000
v 1.032857 0.160624 0.150000
v 1.047901 0.174734 0.068750
v 1.047901 0.174734 0.168750
v 1.067958 0.193548 0.150000
v 1.067958 0.193548 0.250000
v 0.050000 0.323385 0.400000
v 0.050000 0.910885 0.400000
v 0.050000 0.910885 0.250000
v 0.050000 0.323385 0.250000
v 0.250000 0.323385 0.250000
v 0.250000 0.910885 0.250000
v 0.250000 0.910885 0.400000
v 0.250000 0.323385 0.400000
v 0.025000 0.000000 0.600000
v 0.025000 0.935885 0.600000
v 0.025000 0.935885 0.375000
v 0.025000 0.000000 0.375000
v 0.275000 0.000000 0.375000
v 0.275000 0.935885 0.375000
v 0.275000 0.935885 0.600000
v 0.275000 0.000000 0.600000
v 0.662500 0.000000 0.293750
v 0.662500 0.078125 0.293750
v 0.662500 0.078125 0.018750
v 0.662500 0.000000 0.018750
v 0.962500 0.000000 0.018750
v 0.962500 0.078125 0.018750
v 0.962500 0.078125 0.293750
v 0.962500 0.000000 0.293750
vt 0.890625 0.125000
vt 0.890625 0.375000
vn 0.000000 -0.851658 -0.524097
vn 0.000000 -0.675317 -0.737528
vn -0.000000 0.851658 0.524097
vn -0.000000 0.675317 0.737528
vn 0.000000 0.000000 -1.000000
vn -0.000000 -0.000000 1.000000
vn 0.000000 0.637029 -0.770840
vn -0.000000 -0.637029 0.770840
vn 0.000000 0.005438 -0.999985
vn -0.000000 -0.005438 0.999985
vn 0.000000 -0.605800 -0.795617
vn -0.000000 0.605800 0.795617
vn 0.000000 0.605800 -0.795617
vn -0.000000 -0.605800 0.795617
vn 0.000000 -0.005438 -0.999985
vn -0.000000 0.005438 0.999985
vn 0.000000 -0.637029 -0.770840
vn -0.000000 0.637029 0.770840
vn 0.000000 0.675317 -0.737528
vn -0.000000 -0.675317 0.737528
vn 0.000000 0.851658 -0.524097
vn -0.000000 -0.851658 0.524097
vn -0.000000 -1.000000 0.000000
vn 0.000000 1.000000 -0.000000
vn -0.002669 -0.675312 -0.737528
vn -0.003366 -0.851652 -0.524097
vn 0.003366 0.851652 0.524097
vn 0.002669 0.675312 0.737528
vn 0.002518 0.637024 -0.770840
vn -0.002518 -0.637024 0.770840
vn 0.000021 0.005438 -0.999985
vn -0.000021 -0.005438 0.999985
vn -0.002394 -0.605795 -0.795617
vn 0.002394 0.605795 0.795617
vn 0.002394 0.605795 -0.795617
vn -0.002394 -0.605795 0.795617
vn -0.000021 -0.005438 -0.999985
vn 0.000021 0.005438 0.999985
vn -0.002518 -0.637024 -0.770840
vn 0.002518 0.637024 0.770840
vn 0.002669 0.675312 -0.737528
vn -0.002669 -0.675312 0.737528
vn 0.003366 0.851652 -0.524097
vn -0.003366 -0.851652 0.524097
vn -0.003952 -0.999992 -0.000000
vn 0.003952 0.999992 0.000000
vn -0.018123 -0.675074 -0.737528
vn -0.022855 -0.851352 -0.524097
vn 0.022855 0.851352 0.524097
vn 0.018123 0.675074 0.737528
vn 0.017095 0.636799 -0.770840
vn -0.017095 -0.636799 0.770840
vn 0.000146 0.005436 -0.999985
vn -0.000146 -0.005436 0.999985
vn -0.016257 -0.605582 -0.795617
vn 0.016257 0.605582 0.795617
vn 0.016257 0.605582 -0.795617
vn -0.016257 -0.605582 0.795617
vn -0.000146 -0.005436 -0.999985
vn 0.000146 0.005436 0.999985
vn -0.017095 -0.636799 -0.770840
vn 0.017095 0.636799 0.770840
vn 0.018123 0.675074 -0.737528
vn -0.018123 -0.675074 0.737528
vn 0.022855 0.851352 -0.524097
vn -0.022855 -0.851352 0.524097
vn -0.026836 -0.999640 -0.000000
vn 0.026836 0.999640 0.000000
vn -0.046908 -0.673686 -0.737528
vn -0.059157 -0.849601 -0.524097
vn 0.059157 0.849601 0.524097
vn 0.046908 0.673686 0.737528
vn 0.044248 0.635490 -0.770840
vn -0.044248 -0.635490 0.770840
vn 0.000378 0.005425 -0.999985
vn -0.000378 -0.005425 0.999985
vn -0.042079 -0.604337 -0.795617
vn 0.042079 0.604337 0.795617
vn 0.042079 0.604337 -0.795617
vn -0.042079 -0.604337 0.795617
vn -0.000378 -0.005425 -0.999985
vn 0.000378 0.005425 0.999985
vn -0.044248 -0.635490 -0.770840
vn 0.044248 0.635490 0.770840
vn 0.046908 0.673686 -0.737528
vn -0.046908 -0.673686 0.737528
vn 0.059157 0.849601 -0.524097
vn -0.059157 -0.849601 0.524097
vn -0.069461 -0.997585 -0.000000
vn 0.069461 0.997585 0.000000
vn -0.081841 -0.670340 -0.737528
vn -0.103211 -0.845381 -0.524097
vn 0.103211 0.845381 0.524097
vn 0.081841 0.670340 0.737528
vn 0.077200 0.632333 -0.770840
vn -0.077200 -0.632333 0.770840
vn 0.000659 0.005398 -0.999985
vn -0.000659 -0.005398 0.999985
vn -0.073416 -0.601335 -0.795617
vn 0.073416 0.601335 0.795617
vn 0.073416 0.601335 -0.795617
vn -0.073416 -0.601335 0.795617
vn -0.000659 -0.005398 -0.999985
vn 0.000659 0.005398 0.999985
vn -0.077200 -0.632333 -0.770840
vn 0.077200 0.632333 0.770840
vn 0.081841 0.670340 -0.737528
vn -0.081841 -0.670340 0.737528
vn 0.103211 0.845381 -0.524097
vn -0.103211 -0.845381 0.524097
vn -0.121188 -0.992630 -0.000000
vn 0.121188 0.992630 0.000000
vn -0.143108 -0.660196 -0.737334
vn -0.180454 -0.832483 -0.523840
vn 0.180454 0.832483 0.523840
vn 0.143108 0.660196 0.737334
vn 0.135001 0.622795 -0.770650
vn -0.135001 -0.622795 0.770650
vn 0.001152 0.005314 -0.999985
vn -0.001152 -0.005314 0.999985
vn -0.128384 -0.592271 -0.795445
vn 0.128384 0.592271 0.795445
vn 0.128384 0.592271 -0.795445
vn -0.128384 -0.592271 0.795445
vn -0.001152 -0.005314 -0.999985
vn 0.001152 0.005314 0.999985
vn -0.135001 -0.622795 -0.770650
vn 0.135001 0.622795 0.770650
vn 0.143108 0.660196 -0.737334
vn -0.143108 -0.660196 0.737334
vn 0.180454 0.832483 -0.523840
vn -0.180454 -0.832483 0.523840
vn -0.211846 -0.977303 -0.000000
vn 0.211846 0.977303 0.000000
vn -0.227683 -0.639790 -0.734050
vn -0.286483 -0.805020 -0.519491
vn 0.286483 0.805020 0.519491
vn 0.227683 0.639790 0.734050
vn 0.214960 0.604040 -0.767416
vn -0.214960 -0.604040 0.767416
vn 0.001818 0.005108 -0.999985
vn -0.001818 -0.005108 0.999985
vn -0.204467 -0.574553 -0.792516
vn 0.204467 0.574553 0.792516
vn 0.204467 0.574553 -0.792516
vn -0.204467 -0.574553 0.792516
vn -0.001818 -0.005108 -0.999985
vn 0.001818 0.005108 0.999985
vn -0.214960 -0.604040 -0.767416
vn 0.214960 0.604040 0.767416
vn 0.227683 0.639790 -0.734050
vn -0.227683 -0.639790 0.734050
vn 0.286483 0.805020 -0.519491
vn -0.286483 -0.805020 0.519491
vn -0.335273 -0.942121 -0.000000
vn 0.335273 0.942121 0.000000
vn -0.304561 -0.615351 -0.727039
vn -0.381473 -0.770748 -0.510319
vn 0.381473 0.770748 0.510319
vn 0.304561 0.615351 0.727039
vn 0.288037 0.581966 -0.760493
vn -0.288037 -0.581966 0.760493
vn 0.002389 0.004827 -0.999985
vn -0.002389 -0.004827 0.999985
vn -0.274098 -0.553802 -0.786240
vn 0.274098 0.553802 0.786240
vn 0.274098 0.553802 -0.786240
vn -0.274098 -0.553802 0.786240
vn -0.002389 -0.004827 -0.999985
vn 0.002389 0.004827 0.999985
vn -0.288037 -0.581966 -0.760493
vn 0.288037 0.581966 0.760493
vn 0.304561 0.615351 -0.727039
vn -0.304561 -0.615351 0.727039
vn 0.381473 0.770748 -0.510319
vn -0.381473 -0.770748 0.510319
vn -0.443581 -0.896234 -0.000000
vn 0.443581 0.896234 0.000000
vn -0.367439 -0.592829 -0.716619
vn -0.457158 -0.737582 -0.496970
vn 0.457158 0.737582 0.496970
vn 0.367439 0.592829 0.716619
vn 0.348364 0.562052 -0.750160
vn -0.348364 -0.562052 0.750160
vn 0.002807 0.004529 -0.999986
vn -0.002807 -0.004529 0.999986
vn -0.331726 -0.535209 -0.776858
vn 0.331726 0.535209 0.776858
vn 0.331726 0.535209 -0.776858
vn -0.331726 -0.535209 0.776858
vn -0.002807 -0.004529 -0.999986
vn 0.002807 0.004529 0.999986
vn -0.348364 -0.562052 -0.750160
vn 0.348364 0.562052 0.750160
vn 0.367439 0.592829 -0.716619
vn -0.367439 -0.592829 0.716619
vn 0.457158 0.737582 -0.496970
vn -0.457158 -0.737582 0.496970
vn -0.526821 -0.849976 -0.000000
vn 0.526821 0.849976 0.000000
vn -0.419377 -0.574325 -0.703047
vn -0.517320 -0.708455 -0.480074
vn 0.517320 0.708455 0.480074
vn 0.419377 0.574325 0.703047
vn 0.398830 0.546186 -0.736624
vn -0.398830 -0.546186 0.736624
vn 0.003095 0.004238 -0.999986
vn -0.003095 -0.004238 0.999986
vn -0.380120 -0.520563 -0.764541
vn 0.380120 0.520563 0.764541
vn 0.380120 0.520563 -0.764541
vn -0.380120 -0.520563 0.764541
vn -0.003095 -0.004238 -0.999986
vn 0.003095 0.004238 0.999986
vn -0.398830 -0.546186 -0.736624
vn 0.398830 0.546186 0.736624
vn 0.419377 0.574325 -0.703047
vn -0.419377 -0.574325 0.703047
vn 0.517320 0.708455 -0.480074
vn -0.517320 -0.708455 0.480074
vn -0.589721 -0.807607 -0.000000
vn 0.589721 0.807607 0.000000
vn -0.462994 -0.560564 -0.686588
vn -0.565339 -0.684476 -0.460309
vn 0.565339 0.684476 0.460309
vn 0.462994 0.560564 0.686588
vn 0.441864 0.534981 -0.720105
vn -0.441864 -0.534981 0.720105
vn 0.003274 0.003964 -0.999987
vn -0.003274 -0.003964 0.999987
vn -0.421601 -0.510447 -0.749464
vn 0.421601 0.510447 0.749464
vn 0.421601 0.510447 -0.749464
vn -0.421601 -0.510447 0.749464
vn -0.003274 -0.003964 -0.999987
vn 0.003274 0.003964 0.999987
vn -0.441864 -0.534981 -0.720105
vn 0.441864 0.534981 0.720105
vn 0.462994 0.560564 -0.686588
vn -0.462994 -0.560564 0.686588
vn 0.565339 0.684476 -0.460309
vn -0.565339 -0.684476 0.460309
vn -0.636816 -0.771016 -0.000000
vn 0.636816 0.771016 0.000000
vn -0.500140 -0.551512 -0.667604
vn -0.603751 -0.665766 -0.438452
vn 0.603751 0.665766 0.438452
vn 0.500140 0.551512 0.667604
vn 0.479129 0.528344 -0.700919
vn -0.479129 -0.528344 0.700919
vn 0.003364 0.003710 -0.999987
vn -0.003364 -0.003710 0.999987
vn -0.457758 -0.504777 -0.731886
vn 0.457758 0.504777 0.731886
vn 0.457758 0.504777 -0.731886
vn -0.457758 -0.504777 0.731886
vn -0.003364 -0.003710 -0.999987
vn 0.003364 0.003710 0.999987
vn -0.479129 -0.528344 -0.700919
vn 0.479129 0.528344 0.700919
vn 0.500140 0.551512 -0.667604
vn -0.500140 -0.551512 0.667604
vn 0.603751 0.665766 -0.438452
vn -0.603751 -0.665766 0.438452
vn -0.671764 -0.740765 -0.000000
vn 0.671764 0.740765 0.000000
vn -0.531900 -0.546769 -0.646627
vn -0.634280 -0.652011 -0.415417
vn 0.634280 0.652011 0.415417
vn 0.531900 0.546769 0.646627
vn 0.511537 0.525837 -0.679578
vn -0.511537 -0.525837 0.679578
vn 0.003384 0.003478 -0.999988
vn -0.003384 -0.003478 0.999988
vn -0.489454 -0.503137 -0.712241
vn 0.489454 0.503137 0.712241
vn 0.489454 0.503137 -0.712241
vn -0.489454 -0.503137 0.712241
vn -0.003384 -0.003478 -0.999988
vn 0.003384 0.003478 0.999988
vn -0.511537 -0.525837 -0.679578
vn 0.511537 0.525837 0.679578
vn 0.531900 0.546769 -0.646627
vn -0.531900 -0.546769 0.646627
vn 0.634280 0.652011 -0.415417
vn -0.634280 -0.652011 0.415417
vn -0.697293 -0.716786 -0.000000
vn 0.697293 0.716786 0.000000
vn -0.558723 -0.545789 -0.624455
vn -0.658004 -0.642772 -0.392268
vn 0.658004 0.642772 0.392268
vn 0.558723 0.545789 0.624455
vn 0.539361 0.526876 -0.656880
vn -0.539361 -0.526876 0.656880
vn 0.003348 0.003270 -0.999989
vn -0.003348 -0.003270 0.999989
vn -0.516928 -0.504962 -0.691230
vn 0.516928 0.504962 0.691230
vn 0.516928 0.504962 -0.691230
vn -0.516928 -0.504962 0.691230
vn -0.003348 -0.003270 -0.999989
vn 0.003348 0.003270 0.999989
vn -0.539361 -0.526876 -0.656880
vn 0.539361 0.526876 0.656880
vn 0.558723 0.545789 -0.624455
vn -0.558723 -0.545789 0.624455
vn 0.658004 0.642772 -0.392268
vn -0.658004 -0.642772 0.392268
vn -0.715338 -0.698778 -0.000000
vn 0.715338 0.698778 0.000000
vn -0.580551 -0.547979 -0.602228
vn -0.675540 -0.637638 -0.370221
vn 0.675540 0.637638 0.370221
vn 0.580551 0.547979 0.602228
vn 0.562377 0.530824 -0.634002
vn -0.562377 -0.530824 0.634002
vn 0.003273 0.003089 -0.999990
vn -0.003273 -0.003089 0.999990
vn -0.539908 -0.509617 -0.669918
vn 0.539908 0.509617 0.669918
vn 0.539908 0.509617 -0.669918
vn -0.539908 -0.509617 0.669918
vn -0.003273 -0.003089 -0.999990
vn 0.003273 0.003089 0.999990
vn -0.562377 -0.530824 -0.634002
vn 0.562377 0.530824 0.634002
vn 0.580551 0.547979 -0.602228
vn -0.580551 -0.547979 0.602228
vn 0.675540 0.637638 -0.370221
vn -0.675540 -0.637638 0.370221
vn -0.727213 -0.686412 -0.000000
vn 0.727213 0.686412 0.000000
vn -0.596951 -0.552756 -0.581472
vn -0.687169 -0.636295 -0.350609
vn 0.687169 0.636295 0.350609
vn 0.596951 0.552756 0.581472
vn 0.579982 0.537043 -0.612541
vn -0.579982 -0.537043 0.612541
vn 0.003177 0.002942 -0.999991
vn -0.003177 -0.002942 0.999991
vn -0.557729 -0.516437 -0.649793
vn 0.557729 0.516437 0.649793
vn 0.557729 0.516437 -0.649793
vn -0.557729 -0.516437 0.649793
vn -0.003177 -0.002942 -0.999991
vn 0.003177 0.002942 0.999991
vn -0.579982 -0.537043 -0.612541
vn 0.579982 0.537043 0.612541
vn 0.596951 0.552756 -0.581472
vn -0.596951 -0.552756 0.581472
vn 0.687169 0.636295 -0.350609
vn -0.687169 -0.636295 0.350609
vn -0.733746 -0.679423 -0.000000
vn 0.733746 0.679423 0.000000
vn -0.607220 -0.559559 -0.564072
vn -0.692925 -0.638538 -0.334850
vn 0.692925 0.638538 0.334850
vn 0.607220 0.559559 0.564072
vn 0.591320 0.544907 -0.594489
vn -0.591320 -0.544907 0.594489
vn 0.003078 0.002836 -0.999991
vn -0.003078 -0.002836 0.999991
vn -0.569440 -0.524745 -0.632757
vn 0.569440 0.524745 0.632757
vn 0.569440 0.524745 -0.632757
vn -0.569440 -0.524745 0.632757
vn -0.003078 -0.002836 -0.999991
vn 0.003078 0.002836 0.999991
vn -0.591320 -0.544907 -0.594489
vn 0.591320 0.544907 0.594489
vn 0.607220 0.559559 -0.564072
vn -0.607220 -0.559559 0.564072
vn 0.692925 0.638538 -0.334850
vn -0.692925 -0.638538 0.334850
vn -0.735377 -0.677658 -0.000000
vn 0.735377 0.677658 0.000000
vn -0.610475 -0.567860 -0.552137
vn -0.692608 -0.644261 -0.324380
vn 0.692608 0.644261 0.324380
vn 0.610475 0.567860 0.552137
vn 0.595376 0.553816 -0.582078
vn -0.595376 -0.553816 0.582078
vn 0.002992 0.002783 -0.999992
vn -0.002992 -0.002783 0.999992
vn -0.573915 -0.533853 -0.620985
vn 0.573915 0.533853 0.620985
vn 0.573915 0.533853 -0.620985
vn -0.573915 -0.533853 0.620985
vn -0.002992 -0.002783 -0.999992
vn 0.002992 0.002783 0.999992
vn -0.595376 -0.553816 -0.582078
vn 0.595376 0.553816 0.582078
vn 0.610475 0.567860 -0.552137
vn -0.610475 -0.567860 0.552137
vn 0.692608 0.644261 -0.324380
vn -0.692608 -0.644261 0.324380
vn -0.732200 -0.681089 -0.000000
vn 0.732200 0.681089 0.000000
vn -0.610220 -0.572367 -0.547748
vn -0.690867 -0.648013 -0.320596
vn 0.690867 0.648013 0.320596
vn 0.610220 0.572367 0.547748
vn 0.595443 0.558508 -0.577509
vn -0.595443 -0.558508 0.577509
vn 0.002953 0.002770 -0.999992
vn -0.002953 -0.002770 0.999992
vn -0.574191 -0.538574 -0.616638
vn 0.574191 0.538574 0.616638
vn 0.574191 0.538574 -0.616638
vn -0.574191 -0.538574 0.616638
vn -0.002953 -0.002770 -0.999992
vn 0.002953 0.002770 0.999992
vn -0.595443 -0.558508 -0.577509
vn 0.595443 0.558508 0.577509
vn 0.610220 0.572367 -0.547748
vn -0.610220 -0.572367 0.547748
vn 0.690867 0.648013 -0.320596
vn -0.690867 -0.648013 0.320596
vn -0.729366 -0.684123 -0.000000
vn 0.729366 0.684123 0.000000
vn -1.000000 -0.000000 -0.000000
vn 0.684123 -0.729366 0.000000
vn 1.000000 0.000000 0.000000
usemtl body
f 1/1/1 2/1/2 3/1/2
f 1/1/1 3/1/2 4/1/1
f 5/1/3 6/1/3 7/1/4
f 5/1/3 7/1/4 8/1/4
f 2/1/2 9/1/5 10/1/5
f 2/1/2 10/1/5 3/1/2
f 8/1/4 7/1/4 11/1/6
f 8/1/4 11/1/6 12/1/6
f 9/1/5 13/1/7 14/1/7
f 9/1/5 14/1/7 10/1/5
f 12/1/6 11/1/6 15/1/8
f 12/1/6 15/1/8 16/1/8
f 13/1/7 17/1/9 18/1/9
f 13/1/7 18/1/9 14/1/7
f 16/1/8 15/1/8 19/1/10
f 16/1/8 19/1/10 20/1/10
f 17/1/9 21/1/11 22/1/11
f 17/1/9 22/1/11 18/1/9
f 20/1/10 19/1/10 23/1/12
f 20/1/10 23/1/12 24/1/12
f 21/1/11 25/1/5 26/1/5
f 21/1/11 26/1/5 22/1/11
f 24/1/12 23/1/12 27/1/6
f 24/1/12 27/1/6 28/1/6
f 25/1/5 29/1/13 30/1/13
f 25/1/5 30/1/13 26/1/5
f 28/1/6 27/1/6 31/1/14
f 28/1/6 31/1/14 32/1/14
f 29/1/13 33/1/15 34/1/15
f 29/1/13 34/1/15 30/1/13
f 32/1/14 31/1/14 35/1/16
f 32/1/14 35/1/16 36/1/16
f 33/1/15 37/1/17 38/1/17
f 33/1/15 38/1/17 34/1/15
f 36/1/16 35/1/16 39/1/18
f 36/1/16 39/1/18 40/1/18
f 37/1/17 41/1/5 42/1/5
f 37/1/17 42/1/5 38/1/17
f 40/1/18 39/1/18 43/1/6
f 40/1/18 43/1/6 44/1/6
f 41/1/5 45/1/19 46/1/19
f 41/1/5 46/1/19 42/1/5
f 44/1/6 43/1/6 47/1/20
f 44/1/6 47/1/20 48/1/20
f 45/1/19 49/1/21 50/1/21
f 45/1/19 50/1/21 46/1/19
f 48/1/20 47/1/20 51/1/22
f 48/1/20 51/1/22 52/1/22
f 6/1/23 5/1/23 1/1/23
f 4/1/23 6/1/23 1/1/23
f 49/1/24 52/1/24 51/1/24
f 49/1/24 51/1/24 50/1/24
f 4/1/1 3/1/2 53/1/25
f 4/1/1 53/1/25 54/1/26
f 6/1/3 55/1/27 56/1/28
f 6/1/3 56/1/28 7/1/4
f 3/1/2 10/1/5 57/1/5
f 3/1/2 57/1/5 53/1/25
f 7/1/4 56/1/28 58/1/6
f 7/1/4 58/1/6 11/1/6
f 10/1/5 14/1/7 59/1/29
f 10/1/5 59/1/29 57/1/5
f 11/1/6 58/1/6 60/1/30
f 11/1/6 60/1/30 15/1/8
f 14/1/7 18/1/9 61/1/31
f 14/1/7 61/1/31 59/1/29
f 15/1/8 60/1/30 62/1/32
f 15/1/8 62/1/32 19/1/10
f 18/1/9 22/1/11 63/1/33
f 18/1/9 63/1/33 61/1/31
f 19/1/10 62/1/32 64/1/34
f 19/1/10 64/1/34 23/1/12
f 22/1/11 26/1/5 65/1/5
f 22/1/11 65/1/5 63/1/33
f 23/1/12 64/1/34 66/1/6
f 23/1/12 66/1/6 27/1/6
f 26/1/5 30/1/13 67/1/35
f 26/1/5 67/1/35 65/1/5
f 27/1/6 66/1/6 68/1/36
f 27/1/6 68/1/36 31/1/14
f 30/1/13 34/1/15 69/1/37
f 30/1/13 69/1/37 67/1/35
f 31/1/14 68/1/36 70/1/38
f 31/1/14 70/1/38 35/1/16
f 34/1/15 38/1/17 71/1/39
f 34/1/15 71/1/39 69/1/37
f 35/1/16 70/1/38 72/1/40
f 35/1/16 72/1/40 39/1/18
f 38/1/17 42/1/5 73/1/5
f 38/1/17 73/1/5 71/1/39
f 39/1/18 72/1/40 74/1/6
f 39/1/18 74/1/6 43/1/6
f 42/1/5 46/1/19 75/1/41
f 42/1/5 75/1/41 73/1/5
f 43/1/6 74/1/6 76/1/42
f 43/1/6 76/1/42 47/1/20
f 46/1/19 50/1/21 77/1/43
f 46/1/19 77/1/43 75/1/41
f 47/1/20 76/1/42 78/1/44
f 47/1/20 78/1/44 51/1/22
f 55/1/45 6/1/23 4/1/23
f 54/1/45 55/1/45 4/1/23
f 50/1/24 51/1/24 78/1/46
f 50/1/24 78/1/46 77/1/46
f 54/1/26 53/1/25 79/1/47
f 54/1/26 79/1/47 80/1/48
f 55/1/27 81/1/49 82/1/50
f 55/1/27 82/1/50 56/1/28
f 53/1/25 57/1/5 83/1/5
f 53/1/25 83/1/5 79/1/47
f 56/1/28 82/1/50 84/1/6
f 56/1/28 84/1/6 58/1/6
f 57/1/5 59/1/29 85/1/51
f 57/1/5 85/1/51 83/1/5
f 58/1/6 84/1/6 86/1/52
f 58/1/6 86/1/52 60/1/30
f 59/1/29 61/1/31 87/1/53
f 59/1/29 87/1/53 85/1/51
f 60/1/30 86/1/52 88/1/54
f 60/1/30 88/1/54 62/1/32
f 61/1/31 63/1/33 89/1/55
f 61/1/31 89/1/55 87/1/53
f 62/1/32 88/1/54 90/1/56
f 62/1/32 90/1/56 64/1/34
f 63/1/33 65/1/5 91/1/5
f 63/1/33 91/1/5 89/1/55
f 64/1/34 90/1/56 92/1/6
f 64/1/34 92/1/6 66/1/6
f 65/1/5 67/1/35 93/1/57
f 65/1/5 93/1/57 91/1/5
f 66/1/6 92/1/6 94/1/58
f 66/1/6 94/1/58 68/1/36
f 67/1/35 69/1/37 95/1/59
f 67/1/35 95/1/59 93/1/57
f 68/1/36 94/1/58 96/1/60
f 68/1/36 96/1/60 70/1/38
f 69/1/37 71/1/39 97/1/61
f 69/1/37 97/1/61 95/1/59
f 70/1/38 96/1/60 98/1/62
f 70/1/38 98/1/62 72/1/40
f 71/1/39 73/1/5 99/1/5
f 71/1/39 99/1/5 97/1/61
f 72/1/40 98/1/62 100/1/6
f 72/1/40 100/1/6 74/1/6
f 73/1/5 75/1/41 101/1/63
f 73/1/5 101/1/63 99/1/5
f 74/1/6 100/1/6 102/1/64
f 74/1/6 102/1/64 76/1/42
f 75/1/41 77/1/43 103/1/65
f 75/1/41 103/1/65 101/1/63
f 76/1/42 102/1/64 104/1/66
f 76/1/42 104/1/66 78/1/44
f 81/1/67 55/1/45 54/1/45
f 80/1/67 81/1/67 54/1/45
f 77/1/46 78/1/46 104/1/68
f 77/1/46 104/1/68 103/1/68
f 80/1/48 79/1/47 105/1/69
f 80/1/48 105/1/69 106/1/70
f 81/1/49 107/1/71 108/1/72
f 81/1/49 108/1/72 82/1/50
f 79/1/47 83/1/5 109/1/5
f 79/1/47 109/1/5 105/1/69
f 82/1/50 108/1/72 110/1/6
f 82/1/50 110/1/6 84/1/6
f 83/1/5 85/1/51 111/1/73
f 83/1/5 111/1/73 109/1/5
f 84/1/6 110/1/6 112/1/74
f 84/1/6 112/1/74 86/1/52
f 85/1/51 87/1/53 113/1/75
f 85/1/51 113/1/75 111/1/73
f 86/1/52 112/1/74 114/1/76
f 86/1/52 114/1/76 88/1/54
f 87/1/53 89/1/55 115/1/77
f 87/1/53 115/1/77 113/1/75
f 88/1/54 114/1/76 116/1/78
f 88/1/54 116/1/78 90/1/56
f 89/1/55 91/1/5 117/1/5
f 89/1/55 117/1/5 115/1/77
f 90/1/56 116/1/78 118/1/6
f 90/1/56 118/1/6 92/1/6
f 91/1/5 93/1/57 119/1/79
f 91/1/5 119/1/79 117/1/5
f 92/1/6 118/1/6 120/1/80
f 92/1/6 120/1/80 94/1/58
f 93/1/57 95/1/59 121/1/81
f 93/1/57 121/1/81 119/1/79
f 94/1/58 120/1/80 122/1/82
f 94/1/58 122/1/82 96/1/60
f 95/1/59 97/1/61 123/1/83
f 95/1/59 123/1/83 121/1/81
f 96/1/60 122/1/82 124/1/84
f 96/1/60 124/1/84 98/1/62
f 97/1/61 99/1/5 125/1/5
f 97/1/61 125/1/5 123/1/83
f 98/1/62 124/1/84 126/1/6
f 98/1/62 126/1/6 100/1/6
f 99/1/5 101/1/63 127/1/85
f 99/1/5 127/1/85 125/1/5
f 100/1/6 126/1/6 128/1/86
f 100/1/6 128/1/86 102/1/64
f 101/1/63 103/1/65 129/1/87
f 101/1/63 129/1/87 127/1/85
f 102/1/64 128/1/86 130/1/88
f 102/1/64 130/1/88 104/1/66
f 107/1/89 81/1/67 80/1/67
f 106/1/89 107/1/89 80/1/67
f 103/1/68 104/1/68 130/1/90
f 103/1/68 130/1/90 129/1/90
f 106/1/70 105/1/69 131/1/91
f 106/1/70 131/1/91 132/1/92
f 107/1/71 133/1/93 134/1/94
f 107/1/71 134/1/94 108/1/72
f 105/1/69 109/1/5 135/1/5
f 105/1/69 135/1/5 131/1/91
f 108/1/72 134/1/94 136/1/6
f 108/1/72 136/1/6 110/1/6
f 109/1/5 111/1/73 137/1/95
f 109/1/5 137/1/95 135/1/5
f 110/1/6 136/1/6 138/1/96
f 110/1/6 138/1/96 112/1/74
f 111/1/73 113/1/75 139/1/97
f 111/1/73 139/1/97 137/1/95
f 112/1/74 138/1/96 140/1/98
f 112/1/74 140/1/98 114/1/76
f 113/1/75 115/1/77 141/1/99
f 113/1/75 141/1/99 139/1/97
f 114/1/76 140/1/98 142/1/100
f 114/1/76 142/1/100 116/1/78
f 115/1/77 117/1/5 143/1/5
f 115/1/77 143/1/5 141/1/99
f 116/1/78 142/1/100 144/1/6
f 116/1/78 144/1/6 118/1/6
f 117/1/5 119/1/79 145/1/101
f 117/1/5 145/1/101 143/1/5
f 118/1/6 144/1/6 146/1/102
f 118/1/6 146/1/102 120/1/80
f 119/1/79 121/1/81 147/1/103
f 119/1/79 147/1/103 145/1/101
f 120/1/80 146/1/102 148/1/104
f 120/1/80 148/1/104 122/1/82
f 121/1/81 123/1/83 149/1/105
f 121/1/81 149/1/105 147/1/103
f 122/1/82 148/1/104 150/1/106
f 122/1/82 150/1/106 124/1/84
f 123/1/83 125/1/5 151/1/5
f 123/1/83 151/1/5 149/1/105
f 124/1/84 150/1/106 152/1/6
f 124/1/84 152/1/6 126/1/6
f 125/1/5 127/1/85 153/1/107
f 125/1/5 153/1/107 151/1/5
f 126/1/6 152/1/6 154/1/108
f 126/1/6 154/1/108 128/1/86
f 127/1/85 129/1/87 155/1/109
f 127/1/85 155/1/109 153/1/107
f 128/1/86 154/1/108 156/1/110
f 128/1/86 156/1/110 130/1/88
f 133/1/111 107/1/89 106/1/89
f 132/1/111 133/1/111 106/1/89
f 129/1/90 130/1/90 156/1/112
f 129/1/90 156/1/112 155/1/112
f 132/1/92 131/1/91 157/1/113
f 132/1/92 157/1/113 158/1/114
f 133/1/93 159/1/115 160/1/116
f 133/1/93 160/1/116 134/1/94
f 131/1/91 135/1/5 161/1/5
f 131/1/91 161/1/5 157/1/113
f 134/1/94 160/1/116 162/1/6
f 134/1/94 162/1/6 136/1/6
f 135/1/5 137/1/95 163/1/117
f 135/1/5 163/1/117 161/1/5
f 136/1/6 162/1/6 164/1/118
f 136/1/6 164/1/118 138/1/96
f 137/1/95 139/1/97 165/1/119
f 137/1/95 165/1/119 163/1/117
f 138/1/96 164/1/118 166/1/120
f 138/1/96 166/1/120 140/1/98
f 139/1/97 141/1/99 167/1/121
f 139/1/97 167/1/121 165/1/119
f 140/1/98 166/1/120 168/1/122
f 140/1/98 168/1/122 142/1/100
f 141/1/99 143/1/5 169/1/5
f 141/1/99 169/1/5 167/1/121
f 142/1/100 168/1/122 170/1/6
f 142/1/100 170/1/6 144/1/6
f 143/1/5 145/1/101 171/1/123
f 143/1/5 171/1/123 169/1/5
f 144/1/6 170/1/6 172/1/124
f 144/1/6 172/1/124 146/1/102
f 145/1/101 147/1/103 173/1/125
f 145/1/101 173/1/125 171/1/123
f 146/1/102 172/1/124 174/1/126
f 146/1/102 174/1/126 148/1/104
f 147/1/103 149/1/105 175/1/127
f 147/1/103 175/1/127 173/1/125
f 148/1/104 174/1/126 176/1/128
f 148/1/104 176/1/128 150/1/106
f 149/1/105 151/1/5 177/1/5
f 149/1/105 177/1/5 175/1/127
f 150/1/106 176/1/128 178/1/6
f 150/1/106 178/1/6 152/1/6
f 151/1/5 153/1/107 179/1/129
f 151/1/5 179/1/129 177/1/5
f 152/1/6 178/1/6 180/1/130
f 152/1/6 180/1/130 154/1/108
f 153/1/107 155/1/109 181/1/131
f 153/1/107 181/1/131 179/1/129
f 154/1/108 180/1/130 182/1/132
f 154/1/108 182/1/132 156/1/110
f 159/1/133 133/1/111 132/1/111
f 158/1/133 159/1/133 132/1/111
f 155/1/112 156/1/112 182/1/134
f 155/1/112 182/1/134 181/1/134
f 158/1/114 157/1/113 183/1/135
f 158/1/114 183/1/135 184/1/136
f 159/1/115 185/1/137 186/1/138
f 159/1/115 186/1/138 160/1/116
f 157/1/113 161/1/5 187/1/5
f 157/1/113 187/1/5 183/1/135
f 160/1/116 186/1/138 188/1/6
f 160/1/116 188/1/6 162/1/6
f 161/1/5 163/1/117 189/1/139
f 161/1/5 189/1/139 187/1/5
f 162/1/6 188/1/6 190/1/140
f 162/1/6 190/1/140 164/1/118
f 163/1/117 165/1/119 191/1/141
f 163/1/117 191/1/141 189/1/139
f 164/1/118 190/1/140 192/1/142
f 164/1/118 192/1/142 166/1/120
f 165/1/119 167/1/121 193/1/143
f 165/1/119 193/1/143 191/1/141
f 166/1/120 192/1/142 194/1/144
f 166/1/120 194/1/144 168/1/122
f 167/1/121 169/1/5 195/1/5
f 167/1/121 195/1/5 193/1/143
f 168/1/122 194/1/144 196/1/6
f 168/1/122 196/1/6 170/1/6
f 169/1/5 171/1/123 197/1/145
f 169/1/5 197/1/145 195/1/5
f 170/1/6 196/1/6 198/1/146
f 170/1/6 198/1/146 172/1/124
f 171/1/123 173/1/125 199/1/147
f 171/1/123 199/1/147 197/1/145
f 172/1/124 198/1/146 200/1/148
f 172/1/124 200/1/148 174/1/126
f 173/1/125 175/1/127 201/1/149
f 173/1/125 201/1/149 199/1/147
f 174/1/126 200/1/148 202/1/150
f 174/1/126 202/1/150 176/1/128
f 175/1/127 177/1/5 203/1/5
f 175/1/127 203/1/5 201/1/149
f 176/1/128 202/1/150 204/1/6
f 176/1/128 204/1/6 178/1/6
f 177/1/5 179/1/129 205/1/151
f 177/1/5 205/1/151 203/1/5
f 178/1/6 204/1/6 206/1/152
f 178/1/6 206/1/152 180/1/130
f 179/1/129 181/1/131 207/1/153
f 179/1/129 207/1/153 205/1/151
f 180/1/130 206/1/152 208/1/154
f 180/1/130 208/1/154 182/1/132
f 185/1/155 159/1/133 158/1/133
f 184/1/155 185/1/155 158/1/133
f 181/1/134 182/1/134 208/1/156
f 181/1/134 208/1/156 207/1/156
f 184/1/136 183/1/135 209/1/157
f 184/1/136 209/1/157 210/1/158
f 185/1/137 211/1/159 212/1/160
f 185/1/137 212/1/160 186/1/138
f 183/1/135 187/1/5 213/1/5
f 183/1/135 213/1/5 209/1/157
f 186/1/138 212/1/160 214/1/6
f 186/1/138 214/1/6 188/1/6
f 187/1/5 189/1/139 215/1/161
f 187/1/5 215/1/161 213/1/5
f 188/1/6 214/1/6 216/1/162
f 188/1/6 216/1/162 190/1/140
f 189/1/139 191/1/141 217/1/163
f 189/1/139 217/1/163 215/1/161
f 190/1/140 216/1/162 218/1/164
f 190/1/140 218/1/164 192/1/142
f 191/1/141 193/1/143 219/1/165
f 191/1/141 219/1/165 217/1/163
f 192/1/142 218/1/164 220/1/166
f 192/1/142 220/1/166 194/1/144
f 193/1/143 195/1/5 221/1/5
f 193/1/143 221/1/5 219/1/165
f 194/1/144 220/1/166 222/1/6
f 194/1/144 222/1/6 196/1/6
f 195/1/5 197/1/145 223/1/167
f 195/1/5 223/1/167 221/1/5
f 196/1/6 222/1/6 224/1/168
f 196/1/6 224/1/168 198/1/146
f 197/1/145 199/1/147 225/1/169
f 197/1/145 225/1/169 223/1/167
f 198/1/146 224/1/168 226/1/170
f 198/1/146 226/1/170 200/1/148
f 199/1/147 201/1/149 227/1/171
f 199/1/147 227/1/171 225/1/169
f 200/1/148 226/1/170 228/1/172
f 200/1/148 228/1/172 202/1/150
f 201/1/149 203/1/5 229/1/5
f 201/1/149 229/1/5 227/1/171
f 202/1/150 228/1/172 230/1/6
f 202/1/150 230/1/6 204/1/6
f 203/1/5 205/1/151 231/1/173
f 203/1/5 231/1/173 229/1/5
f 204/1/6 230/1/6 232/1/174
f 204/1/6 232/1/174 206/1/152
f 205/1/151 207/1/153 233/1/175
f 205/1/151 233/1/175 231/1/173
f 206/1/152 232/1/174 234/1/176
f 206/1/152 234/1/176 208/1/154
f 211/1/177 185/1/155 184/1/155
f 210/1/177 211/1/177 184/1/155
f 207/1/156 208/1/156 234/1/178
f 207/1/156 234/1/178 233/1/178
f 210/1/158 209/1/157 235/1/179
f 210/1/158 235/1/179 236/1/180
f 211/1/159 237/1/181 238/1/182
f 211/1/159 238/1/182 212/1/160
f 209/1/157 213/1/5 239/1/5
f 209/1/157 239/1/5 235/1/179
f 212/1/160 238/1/182 240/1/6
f 212/1/160 240/1/6 214/1/6
f 213/1/5 215/1/161 241/1/183
f 213/1/5 241/1/183 239/1/5
f 214/1/6 240/1/6 242/1/184
f 214/1/6 242/1/184 216/1/162
f 215/1/161 217/1/163 243/1/185
f 215/1/161 243/1/185 241/1/183
f 216/1/162 242/1/184 244/1/186
f 216/1/162 244/1/186 218/1/164
f 217/1/163 219/1/165 245/1/187
f 217/1/163 245/1/187 243/1/185
f 218/1/164 244/1/186 246/1/188
f 218/1/164 246/1/188 220/1/166
f 219/1/165 221/1/5 247/1/5
f 219/1/165 247/1/5 245/1/187
f 220/1/166 246/1/188 248/1/6
f 220/1/166 248/1/6 222/1/6
f 221/1/5 223/1/167 249/1/189
f 221/1/5 249/1/189 247/1/5
f 222/1/6 248/1/6 250/1/190
f 222/1/6 250/1/190 224/1/168
f 223/1/167 225/1/169 251/1/191
f 223/1/167 251/1/191 249/1/189
f 224/1/168 250/1/190 252/1/192
f 224/1/168 252/1/192 226/1/170
f 225/1/169 227/1/171 253/1/193
f 225/1/169 253/1/193 251/1/191
f 226/1/170 252/1/192 254/1/194
f 226/1/170 254/1/194 228/1/172
f 227/1/171 229/1/5 255/1/5
f 227/1/171 255/1/5 253/1/193
f 228/1/172 254/1/194 256/1/6
f 228/1/172 256/1/6 230/1/6
f 229/1/5 231/1/173 257/1/195
f 229/1/5 257/1/195 255/1/5
f 230/1/6 256/1/6 258/1/196
f 230/1/6 258/1/196 232/1/174
f 231/1/173 233/1/175 259/1/197
f 231/1/173 259/1/197 257/1/195
f 232/1/174 258/1/196 260/1/198
f 232/1/174 260/1/198 234/1/176
f 237/1/199 211/1/177 210/1/177
f 236/1/199 237/1/199 210/1/177
f 233/1/178 234/1/178 260/1/200
f 233/1/178 260/1/200 259/1/200
f 236/1/180 235/1/179 261/1/201
f 236/1/180 261/1/201 262/1/202
f 237/1/181 263/1/203 264/1/204
f 237/1/181 264/1/204 238/1/182
f 235/1/179 239/1/5 265/1/5
f 235/1/179 265/1/5 261/1/201
f 238/1/182 264/1/204 266/1/6
f 238/1/182 266/1/6 240/1/6
f 239/1/5 241/1/183 267/1/205
f 239/1/5 267/1/205 265/1/5
f 240/1/6 266/1/6 268/1/206
f 240/1/6 268/1/206 242/1/184
f 241/1/183 243/1/185 269/1/207
f 241/1/183 269/1/207 267/1/205
f 242/1/184 268/1/206 270/1/208
f 242/1/184 270/1/208 244/1/186
f 243/1/185 245/1/187 271/1/209
f 243/1/185 271/1/209 269/1/207
f 244/1/186 270/1/208 272/1/210
f 244/1/186 272/1/210 246/1/188
f 245/1/187 247/1/5 273/1/5
f 245/1/187 273/1/5 271/1/209
f 246/1/188 272/1/210 274/1/6
f 246/1/188 274/1/6 248/1/6
f 247/1/5 249/1/189 275/1/211
f 247/1/5 275/1/211 273/1/5
f 248/1/6 274/1/6 276/1/212
f 248/1/6 276/1/212 250/1/190
f 249/1/189 251/1/191 277/1/213
f 249/1/189 277/1/213 275/1/211
f 250/1/190 276/1/212 278/1/214
f 250/1/190 278/1/214 252/1/192
f 251/1/191 253/1/193 279/1/215
f 251/1/191 279/1/215 277/1/213
f 252/1/192 278/1/214 280/1/216
f 252/1/192 280/1/216 254/1/194
f 253/1/193 255/1/5 281/1/5
f 253/1/193 281/1/5 279/1/215
f 254/1/194 280/1/216 282/1/6
f 254/1/194 282/1/6 256/1/6
f 255/1/5 257/1/195 283/1/217
f 255/1/5 283/1/217 281/1/5
f 256/1/6 282/1/6 284/1/218
f 256/1/6 284/1/218 258/1/196
f 257/1/195 259/1/197 285/1/219
f 257/1/195 285/1/219 283/1/217
f 258/1/196 284/1/218 286/1/220
f 258/1/196 286/1/220 260/1/198
f 263/1/221 237/1/199 236/1/199
f 262/1/221 263/1/221 236/1/199
f 259/1/200 260/1/200 286/1/222
f 259/1/200 286/1/222 285/1/222
f 262/1/202 261/1/201 287/1/223
f 262/1/202 287/1/223 288/1/224
f 263/1/203 289/1/225 290/1/226
f 263/1/203 290/1/226 264/1/204
f 261/1/201 265/1/5 291/1/5
f 261/1/201 291/1/5 287/1/223
f 264/1/204 290/1/226 292/1/6
f 264/1/204 292/1/6 266/1/6
f 265/1/5 267/1/205 293/1/227
f 265/1/5 293/1/227 291/1/5
f 266/1/6 292/1/6 294/1/228
f 266/1/6 294/1/228 268/1/206
f 267/1/205 269/1/207 295/1/229
f 267/1/205 295/1/229 293/1/227
f 268/1/206 294/1/228 296/1/230
f 268/1/206 296/1/230 270/1/208
f 269/1/207 271/1/209 297/1/231
f 269/1/207 297/1/231 295/1/229
f 270/1/208 296/1/230 298/1/232
f 270/1/208 298/1/232 272/1/210
f 271/1/209 273/1/5 299/1/5
f 271/1/209 299/1/5 297/1/231
f 272/1/210 298/1/232 300/1/6
f 272/1/210 300/1/6 274/1/6
f 273/1/5 275/1/211 301/1/233
f 273/1/5 301/1/233 299/1/5
f 274/1/6 300/1/6 302/1/234
f 274/1/6 302/1/234 276/1/212
f 275/1/211 277/1/213 303/1/235
f 275/1/211 303/1/235 301/1/233
f 276/1/212 302/1/234 304/1/236
f 276/1/212 304/1/236 278/1/214
f 277/1/213 279/1/215 305/1/237
f 277/1/213 305/1/237 303/1/235
f 278/1/214 304/1/236 306/1/238
f 278/1/214 306/1/238 280/1/216
f 279/1/215 281/1/5 307/1/5
f 279/1/215 307/1/5 305/1/237
f 280/1/216 306/1/238 308/1/6
f 280/1/216 308/1/6 282/1/6
f 281/1/5 283/1/217 309/1/239
f 281/1/5 309/1/239 307/1/5
f 282/1/6 308/1/6 310/1/240
f 282/1/6 310/1/240 284/1/218
f 283/1/217 285/1/219 311/1/241
f 283/1/217 311/1/241 309/1/239
f 284/1/218 310/1/240 312/1/242
f 284/1/218 312/1/242 286/1/220
f 289/1/243 263/1/221 262/1/221
f 288/1/243 289/1/243 262/1/221
f 285/1/222 286/1/222 312/1/244
f 285/1/222 312/1/244 311/1/244
f 288/1/224 287/1/223 313/1/245
f 288/1/224 313/1/245 314/1/246
f 289/1/225 315/1/247 316/1/248
f 289/1/225 316/1/248 290/1/226
f 287/1/223 291/1/5 317/1/5
f 287/1/223 317/1/5 313/1/245
f 290/1/226 316/1/248 318/1/6
f 290/1/226 318/1/6 292/1/6
f 291/1/5 293/1/227 319/1/249
f 291/1/5 319/1/249 317/1/5
f 292/1/6 318/1/6 320/1/250
f 292/1/6 320/1/250 294/1/228
f 293/1/227 295/1/229 321/1/251
f 293/1/227 321/1/251 319/1/249
f 294/1/228 320/1/250 322/1/252
f 294/1/228 322/1/252 296/1/230
f 295/1/229 297/1/231 323/1/253
f 295/1/229 323/1/253 321/1/251
f 296/1/230 322/1/252 324/1/254
f 296/1/230 324/1/254 298/1/232
f 297/1/231 299/1/5 325/1/5
f 297/1/231 325/1/5 323/1/253
f 298/1/232 324/1/254 326/1/6
f 298/1/232 326/1/6 300/1/6
f 299/1/5 301/1/233 327/1/255
f 299/1/5 327/1/255 325/1/5
f 300/1/6 326/1/6 328/1/256
f 300/1/6 328/1/256 302/1/234
f 301/1/233 303/1/235 329/1/257
f 301/1/233 329/1/257 327/1/255
f 302/1/234 328/1/256 330/1/258
f 302/1/234 330/1/258 304/1/236
f 303/1/235 305/1/237 331/1/259
f 303/1/235 331/1/259 329/1/257
f 304/1/236 330/1/258 332/1/260
f 304/1/236 332/1/260 306/1/238
f 305/1/237 307/1/5 333/1/5
f 305/1/237 333/1/5 331/1/259
f 306/1/238 332/1/260 334/1/6
f 306/1/238 334/1/6 308/1/6
f 307/1/5 309/1/239 335/1/261
f 307/1/5 335/1/261 333/1/5
f 308/1/6 334/1/6 336/1/262
f 308/1/6 336/1/262 310/1/240
f 309/1/239 311/1/241 337/1/263
f 309/1/239 337/1/263 335/1/261
f 310/1/240 336/1/262 338/1/264
f 310/1/240 338/1/264 312/1/242
f 315/1/265 289/1/243 288/1/243
f 314/1/265 315/1/265 288/1/243
f 311/1/244 312/1/244 338/1/266
f 311/1/244 338/1/266 337/1/266
f 314/1/246 313/1/245 339/1/267
f 314/1/246 339/1/267 340/1/268
f 315/1/247 341/1/269 342/1/270
f 315/1/247 342/1/270 316/1/248
f 313/1/245 317/1/5 343/1/5
f 313/1/245 343/1/5 339/1/267
f 316/1/248 342/1/270 344/1/6
f 316/1/248 344/1/6 318/1/6
f 317/1/5 319/1/249 345/1/271
f 317/1/5 345/1/271 343/1/5
f 318/1/6 344/1/6 346/1/272
f 318/1/6 346/1/272 320/1/250
f 319/1/249 321/1/251 347/1/273
f 319/1/249 347/1/273 345/1/271
f 320/1/250 346/1/272 348/1/274
f 320/1/250 348/1/274 322/1/252
f 321/1/251 323/1/253 349/1/275
f 321/1/251 349/1/275 347/1/273
f 322/1/252 348/1/274 350/1/276
f 322/1/252 350/1/276 324/1/254
f 323/1/253 325/1/5 351/1/5
f 323/1/253 351/1/5 349/1/275
f 324/1/254 350/1/276 352/1/6
f 324/1/254 352/1/6 326/1/6
f 325/1/5 327/1/255 353/1/277
f 325/1/5 353/1/277 351/1/5
f 326/1/6 352/1/6 354/1/278
f 326/1/6 354/1/278 328/1/256
f 327/1/255 329/1/257 355/1/279
f 327/1/255 355/1/279 353/1/277
f 328/1/256 354/1/278 356/1/280
f 328/1/256 356/1/280 330/1/258
f 329/1/257 331/1/259 357/1/281
f 329/1/257 357/1/281 355/1/279
f 330/1/258 356/1/280 358/1/282
f 330/1/258 358/1/282 332/1/260
f 331/1/259 333/1/5 359/1/5
f 331/1/259 359/1/5 357/1/281
f 332/1/260 358/1/282 360/1/6
f 332/1/260 360/1/6 334/1/6
f 333/1/5 335/1/261 361/1/283
f 333/1/5 361/1/283 359/1/5
f 334/1/6 360/1/6 362/1/284
f 334/1/6 362/1/284 336/1/262
f 335/1/261 337/1/263 363/1/285
f 335/1/261 363/1/285 361/1/283
f 336/1/262 362/1/284 364/1/286
f 336/1/262 364/1/286 338/1/264
f 341/1/287 315/1/265 314/1/265
f 340/1/287 341/1/287 314/1/265
f 337/1/266 338/1/266 364/1/288
f 337/1/266 364/1/288 363/1/288
f 340/1/268 339/1/267 365/1/289
f 340/1/268 365/1/289 366/1/290
f 341/1/269 367/1/291 368/1/292
f 341/1/269 368/1/292 342/1/270
f 339/1/267 343/1/5 369/1/5
f 339/1/267 369/1/5 365/1/289
f 342/1/270 368/1/292 370/1/6
f 342/1/270 370/1/6 344/1/6
f 343/1/5 345/1/271 371/1/293
f 343/1/5 371/1/293 369/1/5
f 344/1/6 370/1/6 372/1/294
f 344/1/6 372/1/294 346/1/272
f 345/1/271 347/1/273 373/1/295
f 345/1/271 373/1/295 371/1/293
f 346/1/272 372/1/294 374/1/296
f 346/1/272 374/1/296 348/1/274
f 347/1/273 349/1/275 375/1/297
f 347/1/273 375/1/297 373/1/295
f 348/1/274 374/1/296 376/1/298
f 348/1/274 376/1/298 350/1/276
f 349/1/275 351/1/5 377/1/5
f 349/1/275 377/1/5 375/1/297
f 350/1/276 376/1/298 378/1/6
f 350/1/276 378/1/6 352/1/6
f 351/1/5 353/1/277 379/1/299
f 351/1/5 379/1/299 377/1/5
f 352/1/6 378/1/6 380/1/300
f 352/1/6 380/1/300 354/1/278
f 353/1/277 355/1/279 381/1/301
f 353/1/277 381/1/301 379/1/299
f 354/1/278 380/1/300 382/1/302
f 354/1/278 382/1/302 356/1/280
f 355/1/279 357/1/281 383/1/303
f 355/1/279 383/1/303 381/1/301
f 356/1/280 382/1/302 384/1/304
f 356/1/280 384/1/304 358/1/282
f 357/1/281 359/1/5 385/1/5
f 357/1/281 385/1/5 383/1/303
f 358/1/282 384/1/304 386/1/6
f 358/1/282 386/1/6 360/1/6
f 359/1/5 361/1/283 387/1/305
f 359/1/5 387/1/305 385/1/5
f 360/1/6 386/1/6 388/1/306
f 360/1/6 388/1/306 362/1/284
f 361/1/283 363/1/285 389/1/307
f 361/1/283 389/1/307 387/1/305
f 362/1/284 388/1/306 390/1/308
f 362/1/284 390/1/308 364/1/286
f 367/1/309 341/1/287 340/1/287
f 366/1/309 367/1/309 340/1/287
f 363/1/288 364/1/288 390/1/310
f 363/1/288 390/1/310 389/1/310
f 366/1/290 365/1/289 391/1/311
f 366/1/290 391/1/311 392/1/312
f 367/1/291 393/1/313 394/1/314
f 367/1/291 394/1/314 368/1/292
f 365/1/289 369/1/5 395/1/5
f 365/1/289 395/1/5 391/1/311
f 368/1/292 394/1/314 396/1/6
f 368/1/292 396/1/6 370/1/6
f 369/1/5 371/1/293 397/1/315
f 369/1/5 397/1/315 395/1/5
f 370/1/6 396/1/6 398/1/316
f 370/1/6 398/1/316 372/1/294
f 371/1/293 373/1/295 399/1/317
f 371/1/293 399/1/317 397/1/315
f 372/1/294 398/1/316 400/1/318
f 372/1/294 400/1/318 374/1/296
f 373/1/295 375/1/297 401/1/319
f 373/1/295 401/1/319 399/1/317
f 374/1/296 400/1/318 402/1/320
f 374/1/296 402/1/320 376/1/298
f 375/1/297 377/1/5 403/1/5
f 375/1/297 403/1/5 401/1/319
f 376/1/298 402/1/320 404/1/6
f 376/1/298 404/1/6 378/1/6
f 377/1/5 379/1/299 405/1/321
f 377/1/5 405/1/321 403/1/5
f 378/1/6 404/1/6 406/1/322
f 378/1/6 406/1/322 380/1/300
f 379/1/299 381/1/301 407/1/323
f 379/1/299 407/1/323 405/1/321
f 380/1/300 406/1/322 408/1/324
f 380/1/300 408/1/324 382/1/302
f 381/1/301 383/1/303 409/1/325
f 381/1/301 409/1/325 407/1/323
f 382/1/302 408/1/324 410/1/326
f 382/1/302 410/1/326 384/1/304
f 383/1/303 385/1/5 411/1/5
f 383/1/303 411/1/5 409/1/325
f 384/1/304 410/1/326 412/1/6
f 384/1/304 412/1/6 386/1/6
f 385/1/5 387/1/305 413/1/327
f 385/1/5 413/1/327 411/1/5
f 386/1/6 412/1/6 414/1/328
f 386/1/6 414/1/328 388/1/306
f 387/1/305 389/1/307 415/1/329
f 387/1/305 415/1/329 413/1/327
f 388/1/306 414/1/328 416/1/330
f 388/1/306 416/1/330 390/1/308
f 393/1/331 367/1/309 366/1/309
f 392/1/331 393/1/331 366/1/309
f 389/1/310 390/1/310 416/1/332
f 389/1/310 416/1/332 415/1/332
f 392/1/312 391/1/311 417/1/333
f 392/1/312 417/1/333 418/1/334
f 393/1/313 419/1/335 420/1/336
f 393/1/313 420/1/336 394/1/314
f 391/1/311 395/1/5 421/1/5
f 391/1/311 421/1/5 417/1/333
f 394/1/314 420/1/336 422/1/6
f 394/1/314 422/1/6 396/1/6
f 395/1/5 397/1/315 423/1/337
f 395/1/5 423/1/337 421/1/5
f 396/1/6 422/1/6 424/1/338
f 396/1/6 424/1/338 398/1/316
f 397/1/315 399/1/317 425/1/339
f 397/1/315 425/1/339 423/1/337
f 398/1/316 424/1/338 426/1/340
f 398/1/316 426/1/340 400/1/318
f 399/1/317 401/1/319 427/1/341
f 399/1/317 427/1/341 425/1/339
f 400/1/318 426/1/340 428/1/342
f 400/1/318 428/1/342 402/1/320
f 401/1/319 403/1/5 429/1/5
f 401/1/319 429/1/5 427/1/341
f 402/1/320 428/1/342 430/1/6
f 402/1/320 430/1/6 404/1/6
f 403/1/5 405/1/321 431/1/343
f 403/1/5 431/1/343 429/1/5
f 404/1/6 430/1/6 432/1/344
f 404/1/6 432/1/344 406/1/322
f 405/1/321 407/1/323 433/1/345
f 405/1/321 433/1/345 431/1/343
f 406/1/322 432/1/344 434/1/346
f 406/1/322 434/1/346 408/1/324
f 407/1/323 409/1/325 435/1/347
f 407/1/323 435/1/347 433/1/345
f 408/1/324 434/1/346 436/1/348
f 408/1/324 436/1/348 410/1/326
f 409/1/325 411/1/5 437/1/5
f 409/1/325 437/1/5 435/1/347
f 410/1/326 436/1/348 438/1/6
f 410/1/326 438/1/6 412/1/6
f 411/1/5 413/1/327 439/1/349
f 411/1/5 439/1/349 437/1/5
f 412/1/6 438/1/6 440/1/350
f 412/1/6 440/1/350 414/1/328
f 413/1/327 415/1/329 441/1/351
f 413/1/327 441/1/351 439/1/349
f 414/1/328 440/1/350 442/1/352
f 414/1/328 442/1/352 416/1/330
f 419/1/353 393/1/331 392/1/331
f 418/1/353 419/1/353 392/1/331
f 415/1/332 416/1/332 442/1/354
f 415/1/332 442/1/354 441/1/354
f 418/1/334 417/1/333 443/1/355
f 418/1/334 443/1/355 444/1/356
f 419/1/335 445/1/357 446/1/358
f 419/1/335 446/1/358 420/1/336
f 417/1/333 421/1/5 447/1/5
f 417/1/333 447/1/5 443/1/355
f 420/1/336 446/1/358 448/1/6
f 420/1/336 448/1/6 422/1/6
f 421/1/5 423/1/337 449/1/359
f 421/1/5 449/1/359 447/1/5
f 422/1/6 448/1/6 450/1/360
f 422/1/6 450/1/360 424/1/338
f 423/1/337 425/1/339 451/1/361
f 423/1/337 451/1/361 449/1/359
f 424/1/338 450/1/360 452/1/362
f 424/1/338 452/1/362 426/1/340
f 425/1/339 427/1/341 453/1/363
f 425/1/339 453/1/363 451/1/361
f 426/1/340 452/1/362 454/1/364
f 426/1/340 454/1/364 428/1/342
f 427/1/341 429/1/5 455/1/5
f 427/1/341 455/1/5 453/1/363
f 428/1/342 454/1/364 456/1/6
f 428/1/342 456/1/6 430/1/6
f 429/1/5 431/1/343 457/1/365
f 429/1/5 457/1/365 455/1/5
f 430/1/6 456/1/6 458/1/366
f 430/1/6 458/1/366 432/1/344
f 431/1/343 433/1/345 459/1/367
f 431/1/343 459/1/367 457/1/365
f 432/1/344 458/1/366 460/1/368
f 432/1/344 460/1/368 434/1/346
f 433/1/345 435/1/347 461/1/369
f 433/1/345 461/1/369 459/1/367
f 434/1/346 460/1/368 462/1/370
f 434/1/346 462/1/370 436/1/348
f 435/1/347 437/1/5 463/1/5
f 435/1/347 463/1/5 461/1/369
f 436/1/348 462/1/370 464/1/6
f 436/1/348 464/1/6 438/1/6
f 437/1/5 439/1/349 465/1/371
f 437/1/5 465/1/371 463/1/5
f 438/1/6 464/1/6 466/1/372
f 438/1/6 466/1/372 440/1/350
f 439/1/349 441/1/351 467/1/373
f 439/1/349 467/1/373 465/1/371
f 440/1/350 466/1/372 468/1/374
f 440/1/350 468/1/374 442/1/352
f 445/1/375 419/1/353 418/1/353
f 444/1/375 445/1/375 418/1/353
f 441/1/354 442/1/354 468/1/376
f 441/1/354 468/1/376 467/1/376
f 444/1/356 443/1/355 469/1/377
f 444/1/356 469/1/377 470/1/378
f 445/1/357 471/1/379 472/1/380
f 445/1/357 472/1/380 446/1/358
f 443/1/355 447/1/5 473/1/5
f 443/1/355 473/1/5 469/1/377
f 446/1/358 472/1/380 474/1/6
f 446/1/358 474/1/6 448/1/6
f 447/1/5 449/1/359 475/1/381
f 447/1/5 475/1/381 473/1/5
f 448/1/6 474/1/6 476/1/382
f 448/1/6 476/1/382 450/1/360
f 449/1/359 451/1/361 477/1/383
f 449/1/359 477/1/383 475/1/381
f 450/1/360 476/1/382 478/1/384
f 450/1/360 478/1/384 452/1/362
f 451/1/361 453/1/363 479/1/385
f 451/1/361 479/1/385 477/1/383
f 452/1/362 478/1/384 480/1/386
f 452/1/362 480/1/386 454/1/364
f 453/1/363 455/1/5 481/1/5
f 453/1/363 481/1/5 479/1/385
f 454/1/364 480/1/386 482/1/6
f 454/1/364 482/1/6 456/1/6
f 455/1/5 457/1/365 483/1/387
f 455/1/5 483/1/387 481/1/5
f 456/1/6 482/1/6 484/1/388
f 456/1/6 484/1/388 458/1/366
f 457/1/365 459/1/367 485/1/389
f 457/1/365 485/1/389 483/1/387
f 458/1/366 484/1/388 486/1/390
f 458/1/366 486/1/390 460/1/368
f 459/1/367 461/1/369 487/1/391
f 459/1/367 487/1/391 485/1/389
f 460/1/368 486/1/390 488/1/392
f 460/1/368 488/1/392 462/1/370
f 461/1/369 463/1/5 489/1/5
f 461/1/369 489/1/5 487/1/391
f 462/1/370 488/1/392 490/1/6
f 462/1/370 490/1/6 464/1/6
f 463/1/5 465/1/371 491/1/393
f 463/1/5 491/1/393 489/1/5
f 464/1/6 490/1/6 492/1/394
f 464/1/6 492/1/394 466/1/372
f 465/1/371 467/1/373 493/1/395
f 465/1/371 493/1/395 491/1/393
f 466/1/372 492/1/394 494/1/396
f 466/1/372 494/1/396 468/1/374
f 471/1/397 445/1/375 444/1/375
f 470/1/397 471/1/397 444/1/375
f 467/1/376 468/1/376 494/1/398
f 467/1/376 494/1/398 493/1/398
f 470/1/378 469/1/377 495/1/399
f 470/1/378 495/1/399 496/1/400
f 471/1/379 497/1/401 498/1/402
f 471/1/379 498/1/402 472/1/380
f 469/1/377 473/1/5 499/1/5
f 469/1/377 499/1/5 495/1/399
f 472/1/380 498/1/402 500/1/6
f 472/1/380 500/1/6 474/1/6
f 473/1/5 475/1/381 501/1/403
f 473/1/5 501/1/403 499/1/5
f 474/1/6 500/1/6 502/1/404
f 474/1/6 502/1/404 476/1/382
f 475/1/381 477/1/383 503/1/405
f 475/1/381 503/1/405 501/1/403
f 476/1/382 502/1/404 504/1/406
f 476/1/382 504/1/406 478/1/384
f 477/1/383 479/1/385 505/1/407
f 477/1/383 505/1/407 503/1/405
f 478/1/384 504/1/406 506/1/408
f 478/1/384 506/1/408 480/1/386
f 479/1/385 481/1/5 507/1/5
f 479/1/385 507/1/5 505/1/407
f 480/1/386 506/1/408 508/1/6
f 480/1/386 508/1/6 482/1/6
f 481/1/5 483/1/387 509/1/409
f 481/1/5 509/1/409 507/1/5
f 482/1/6 508/1/6 510/1/410
f 482/1/6 510/1/410 484/1/388
f 483/1/387 485/1/389 511/1/411
f 483/1/387 511/1/411 509/1/409
f 484/1/388 510/1/410 512/1/412
f 484/1/388 512/1/412 486/1/390
f 485/1/389 487/1/391 513/1/413
f 485/1/389 513/1/413 511/1/411
f 486/1/390 512/1/412 514/1/414
f 486/1/390 514/1/414 488/1/392
f 487/1/391 489/1/5 515/1/5
f 487/1/391 515/1/5 513/1/413
f 488/1/392 514/1/414 516/1/6
f 488/1/392 516/1/6 490/1/6
f 489/1/5 491/1/393 517/1/415
f 489/1/5 517/1/415 515/1/5
f 490/1/6 516/1/6 518/1/416
f 490/1/6 518/1/416 492/1/394
f 491/1/393 493/1/395 519/1/417
f 491/1/393 519/1/417 517/1/415
f 492/1/394 518/1/416 520/1/418
f 492/1/394 520/1/418 494/1/396
f 497/1/419 471/1/397 470/1/397
f 496/1/419 497/1/419 470/1/397
f 493/1/398 494/1/398 520/1/420
f 493/1/398 520/1/420 519/1/420
f 1/1/421 5/1/421 8/1/421
f 1/1/421 8/1/421 2/1/421
f 2/1/421 8/1/421 12/1/421
f 2/1/421 12/1/421 9/1/421
f 9/1/421 12/1/421 16/1/421
f 9/1/421 16/1/421 13/1/421
f 13/1/421 16/1/421 20/1/421
f 13/1/421 20/1/421 17/1/421
f 17/1/421 20/1/421 24/1/421
f 17/1/421 24/1/421 21/1/421
f 21/1/421 24/1/421 28/1/421
f 21/1/421 28/1/421 25/1/421
f 25/1/421 28/1/421 32/1/421
f 25/1/421 32/1/421 29/1/421
f 29/1/421 32/1/421 36/1/421
f 29/1/421 36/1/421 33/1/421
f 33/1/421 36/1/421 40/1/421
f 33/1/421 40/1/421 37/1/421
f 37/1/421 40/1/421 44/1/421
f 37/1/421 44/1/421 41/1/421
f 41/1/421 44/1/421 48/1/421
f 41/1/421 48/1/421 45/1/421
f 45/1/421 48/1/421 52/1/421
f 45/1/421 52/1/421 49/1/421
f 498/1/422 497/1/422 496/1/422
f 495/1/422 498/1/422 496/1/422
f 500/1/422 498/1/422 495/1/422
f 499/1/422 500/1/422 495/1/422
f 502/1/422 500/1/422 499/1/422
f 501/1/422 502/1/422 499/1/422
f 504/1/422 502/1/422 501/1/422
f 503/1/422 504/1/422 501/1/422
f 506/1/422 504/1/422 503/1/422
f 505/1/422 506/1/422 503/1/422
f 508/1/422 506/1/422 505/1/422
f 507/1/422 508/1/422 505/1/422
f 510/1/422 508/1/422 507/1/422
f 509/1/422 510/1/422 507/1/422
f 512/1/422 510/1/422 509/1/422
f 511/1/422 512/1/422 509/1/422
f 514/1/422 512/1/422 511/1/422
f 513/1/422 514/1/422 511/1/422
f 516/1/422 514/1/422 513/1/422
f 515/1/422 516/1/422 513/1/422
f 518/1/422 516/1/422 515/1/422
f 517/1/422 518/1/422 515/1/422
f 520/1/422 518/1/422 517/1/422
f 519/1/422 520/1/422 517/1/422
f 521/1/421 522/1/421 523/1/421
f 521/1/421 523/1/421 524/1/421
f 525/1/423 526/1/423 527/1/423
f 525/1/423 527/1/423 528/1/423
f 524/1/23 525/1/23 528/1/23
f 524/1/23 528/1/23 521/1/23
f 522/1/24 527/1/24 526/1/24
f 522/1/24 526/1/24 523/1/24
f 523/1/5 526/1/5 525/1/5
f 523/1/5 525/1/5 524/1/5
f 521/1/6 528/1/6 527/1/6
f 521/1/6 527/1/6 522/1/6
f 529/1/421 530/1/421 531/1/421
f 529/1/421 531/1/421 532/1/421
f 533/1/423 534/1/423 535/1/423
f 533/1/423 535/1/423 536/1/423
f 532/1/23 533/1/23 536/1/23
f 532/1/23 536/1/23 529/1/23
f 530/1/24 535/1/24 534/1/24
f 530/1/24 534/1/24 531/1/24
f 531/1/5 534/1/5 533/1/5
f 531/1/5 533/1/5 532/1/5
f 529/1/6 536/1/6 535/1/6
f 529/1/6 535/1/6 530/1/6
f 537/2/421 538/2/421 539/2/421
f 537/2/421 539/2/421 540/2/421
f 541/2/423 542/2/423 543/2/423
f 541/2/423 543/2/423 544/2/423
f 540/2/23 541/2/23 544/2/23
f 540/2/23 544/2/23 537/2/23
f 538/2/24 543/2/24 542/2/24
f 538/2/24 542/2/24 539/2/24
f 539/2/5 542/2/5 541/2/5
f 539/2/5 541/2/5 540/2/5
f 537/2/6 544/2/6 543/2/6
f 537/2/6 543/2/6 538/2/6
