# Procedurally generated by dev-env-utils/scripts/gen_guardrails_thrie.py -- do not hand edit
mtllib guardrail_w_beam_thrie_transition.mtl
o guardrail_w_beam_thrie_transition_fill_flat
v 1.000000 0.250000 0.250000
v 1.414214 0.250000 0.250000
v 1.414214 0.812500 0.250000
v 1.000000 0.812500 0.250000
v 1.414214 0.812500 0.150000
v 1.000000 0.812500 0.150000
v 1.414214 0.762500 0.068750
v 1.000000 0.762500 0.068750
v 1.414214 0.725000 0.050000
v 1.000000 0.725000 0.050000
v 1.414214 0.709917 0.057541
v 1.000000 0.709917 0.057541
v 1.414214 0.687500 0.068750
v 1.000000 0.687500 0.068750
v 1.414214 0.657598 0.107827
v 1.000000 0.657598 0.107827
v 1.414214 0.632500 0.140625
v 1.000000 0.632500 0.140625
v 1.414214 0.617635 0.121631
v 1.000000 0.617635 0.121631
v 1.414214 0.576250 0.068750
v 1.000000 0.576250 0.068750
v 1.414214 0.531250 0.050000
v 1.000000 0.531250 0.050000
v 1.414214 0.486250 0.068750
v 1.000000 0.486250 0.068750
v 1.414214 0.444865 0.121631
v 1.000000 0.444865 0.121631
v 1.414214 0.430000 0.140625
v 1.000000 0.430000 0.140625
v 1.414214 0.404902 0.107827
v 1.000000 0.404902 0.107827
v 1.414214 0.375000 0.068750
v 1.000000 0.375000 0.068750
v 1.414214 0.352583 0.057541
v 1.000000 0.352583 0.057541
v 1.414214 0.337500 0.050000
v 1.000000 0.337500 0.050000
v 1.414214 0.300000 0.068750
v 1.000000 0.300000 0.068750
v 1.414214 0.250000 0.150000
v 1.000000 0.250000 0.150000
vt 0.890625 0.125000
vn 0.000000 0.000000 1.000000
vn -0.000000 1.000000 0.000000
vn 0.000000 0.851658 -0.524097
vn 0.000000 0.447214 -0.894427
vn 0.000000 -0.447214 -0.894427
vn 0.000000 -0.794162 -0.607706
vn 0.000000 0.787505 -0.616308
vn 0.000000 0.384615 -0.923077
vn 0.000000 -0.384615 -0.923077
vn 0.000000 -0.787505 -0.616308
vn 0.000000 0.794162 -0.607706
vn 0.000000 -0.851658 -0.524097
vn 0.000000 -1.000000 0.000000
usemtl body
f 1/1/1 2/1/1 3/1/1
f 1/1/1 3/1/1 4/1/1
f 4/1/2 3/1/2 5/1/2
f 4/1/2 5/1/2 6/1/2
f 6/1/3 5/1/3 7/1/3
f 6/1/3 7/1/3 8/1/3
f 8/1/4 7/1/4 9/1/4
f 8/1/4 9/1/4 10/1/4
f 10/1/5 9/1/5 11/1/5
f 10/1/5 11/1/5 12/1/5
f 12/1/5 11/1/5 13/1/5
f 12/1/5 13/1/5 14/1/5
f 14/1/6 13/1/6 15/1/6
f 14/1/6 15/1/6 16/1/6
f 16/1/6 15/1/6 17/1/6
f 16/1/6 17/1/6 18/1/6
f 18/1/7 17/1/7 19/1/7
f 18/1/7 19/1/7 20/1/7
f 20/1/7 19/1/7 21/1/7
f 20/1/7 21/1/7 22/1/7
f 22/1/8 21/1/8 23/1/8
f 22/1/8 23/1/8 24/1/8
f 24/1/9 23/1/9 25/1/9
f 24/1/9 25/1/9 26/1/9
f 26/1/10 25/1/10 27/1/10
f 26/1/10 27/1/10 28/1/10
f 28/1/10 27/1/10 29/1/10
f 28/1/10 29/1/10 30/1/10
f 30/1/11 29/1/11 31/1/11
f 30/1/11 31/1/11 32/1/11
f 32/1/11 31/1/11 33/1/11
f 32/1/11 33/1/11 34/1/11
f 34/1/4 33/1/4 35/1/4
f 34/1/4 35/1/4 36/1/4
f 36/1/4 35/1/4 37/1/4
f 36/1/4 37/1/4 38/1/4
f 38/1/5 37/1/5 39/1/5
f 38/1/5 39/1/5 40/1/5
f 40/1/12 39/1/12 41/1/12
f 40/1/12 41/1/12 42/1/12
f 42/1/13 41/1/13 2/1/13
f 42/1/13 2/1/13 1/1/13
