# Procedurally generated by dev-env-utils/scripts/gen_mast_arm_curves.py
# mount hardware on cell 8, model-space west
mtllib mastarmcurve.mtl
o mastarm_10x2_c8_west
v 0.500000 -0.069757 0.517734
v 0.500000 -0.043989 0.332013
v 0.622175 -0.019917 0.335353
v 0.622175 -0.045686 0.521074
v 0.725749 0.048633 0.344864
v 0.725749 0.022864 0.530585
v 0.794956 0.151224 0.359099
v 0.794956 0.125456 0.544820
v 0.819258 0.272240 0.375890
v 0.819258 0.246471 0.561610
v 0.794956 0.393255 0.392680
v 0.794956 0.367486 0.578401
v 0.725749 0.495847 0.406915
v 0.725749 0.470078 0.592636
v 0.622175 0.564397 0.416426
v 0.622175 0.538628 0.602147
v 0.500000 0.588468 0.419766
v 0.500000 0.562699 0.605487
v 0.377825 0.564397 0.416426
v 0.377825 0.538628 0.602147
v 0.274251 0.495847 0.406915
v 0.274251 0.470078 0.592636
v 0.205044 0.393255 0.392680
v 0.205044 0.367486 0.578401
v 0.180742 0.272240 0.375890
v 0.180742 0.246471 0.561610
v 0.205044 0.151224 0.359099
v 0.205044 0.125456 0.544820
v 0.274251 0.048633 0.344864
v 0.274251 0.022864 0.530585
v 0.377825 -0.019917 0.335353
v 0.377825 -0.045686 0.521074
v 0.500000 0.246471 0.561610
v 0.500000 0.272240 0.375890
v 0.075000 0.700000 0.500000
v 0.000625 0.700000 0.500000
v 0.000625 0.641421 0.641421
v 0.075000 0.641421 0.641421
v 0.000625 0.500000 0.700000
v 0.075000 0.500000 0.700000
v 0.000625 0.358579 0.641421
v 0.075000 0.358579 0.641421
v 0.000625 0.300000 0.500000
v 0.075000 0.300000 0.500000
v 0.000625 0.358579 0.358579
v 0.075000 0.358579 0.358579
v 0.000625 0.500000 0.300000
v 0.075000 0.500000 0.300000
v 0.000625 0.641421 0.358579
v 0.075000 0.641421 0.358579
v 0.075000 0.500000 0.500000
v 0.000625 0.500000 0.500000
v 0.351255 0.441080 0.481430
v 0.129132 0.584082 0.500000
v 0.124827 0.570919 0.549877
v 0.346951 0.427917 0.531307
v 0.107172 0.538754 0.586389
v 0.329295 0.395751 0.567819
v 0.080896 0.496204 0.599754
v 0.303019 0.353202 0.581184
v 0.053040 0.454672 0.586389
v 0.275164 0.311670 0.567819
v 0.031069 0.425285 0.549877
v 0.253192 0.282283 0.531307
v 0.020868 0.415918 0.500000
v 0.242992 0.272916 0.481430
v 0.025173 0.429081 0.450123
v 0.247296 0.286079 0.431553
v 0.042828 0.461246 0.413611
v 0.264951 0.318244 0.395040
v 0.069104 0.503796 0.400246
v 0.291227 0.360794 0.381676
v 0.096960 0.545328 0.413611
v 0.319083 0.402326 0.395040
v 0.118931 0.574715 0.450123
v 0.341055 0.431713 0.431553
v 0.297123 0.356998 0.481430
vt 0.250000 0.750000
vt 0.250000 0.590371
vt 0.281250 0.590371
vt 0.281250 0.750000
vt 0.312500 0.590371
vt 0.312500 0.750000
vt 0.343750 0.590371
vt 0.343750 0.750000
vt 0.375000 0.590371
vt 0.375000 0.750000
vt 0.406250 0.590371
vt 0.406250 0.750000
vt 0.437500 0.590371
vt 0.437500 0.750000
vt 0.468750 0.590371
vt 0.468750 0.750000
vt 0.500000 0.590371
vt 0.500000 0.750000
vt 0.531250 0.590371
vt 0.531250 0.750000
vt 0.562500 0.590371
vt 0.562500 0.750000
vt 0.593750 0.590371
vt 0.593750 0.750000
vt 0.625000 0.590371
vt 0.625000 0.750000
vt 0.656250 0.590371
vt 0.656250 0.750000
vt 0.687500 0.590371
vt 0.687500 0.750000
vt 0.718750 0.590371
vt 0.718750 0.750000
vt 0.750000 0.590371
vt 0.750000 0.750000
vt 0.500000 0.500000
vt 0.400000 0.600000
vt 0.600000 0.400000
vt 0.250000 0.650000
vt 0.312500 0.650000
vt 0.375000 0.650000
vt 0.437500 0.650000
vt 0.500000 0.650000
vt 0.562500 0.650000
vt 0.625000 0.650000
vt 0.687500 0.650000
vt 0.750000 0.650000
vt 0.250000 0.700000
vt 0.291667 0.700000
vt 0.291667 0.750000
vt 0.333333 0.700000
vt 0.333333 0.750000
vt 0.375000 0.700000
vt 0.416667 0.700000
vt 0.416667 0.750000
vt 0.458333 0.700000
vt 0.458333 0.750000
vt 0.500000 0.700000
vt 0.541667 0.700000
vt 0.541667 0.750000
vt 0.583333 0.700000
vt 0.583333 0.750000
vt 0.625000 0.700000
vt 0.666667 0.700000
vt 0.666667 0.750000
vt 0.708333 0.700000
vt 0.708333 0.750000
vt 0.750000 0.700000
vn 0.000000 -0.990511 -0.137433
vn 0.382683 -0.915113 -0.126972
vn 0.707107 -0.700397 -0.097180
vn 0.923880 -0.379052 -0.052593
vn 1.000000 -0.000000 -0.000000
vn 0.923880 0.379052 0.052593
vn 0.707107 0.700397 0.097180
vn 0.382683 0.915113 0.126972
vn 0.000000 0.990511 0.137433
vn -0.382683 0.915113 0.126972
vn -0.707107 0.700397 0.097180
vn -0.923880 0.379052 0.052593
vn -1.000000 0.000000 0.000000
vn -0.923880 -0.379052 -0.052593
vn -0.707107 -0.700397 -0.097180
vn -0.382683 -0.915113 -0.126972
vn -0.000000 -0.137433 0.990511
vn 0.000000 0.137433 -0.990511
vn 0.000000 1.000000 0.000000
vn 0.000000 0.707107 0.707107
vn 0.000000 0.000000 1.000000
vn 0.000000 -0.707107 0.707107
vn 0.000000 -1.000000 0.000000
vn -0.000000 -0.707107 -0.707107
vn -0.000000 -0.000000 -1.000000
vn 0.000000 0.707107 -0.707107
vn 0.541316 0.840819 0.000000
vn 0.498274 0.709192 0.498769
vn 0.321719 0.387537 0.863894
vn 0.058960 -0.037958 0.997538
vn -0.219597 -0.453282 0.863894
vn -0.439314 -0.747150 0.498769
vn -0.541316 -0.840819 0.000000
vn -0.498274 -0.709192 -0.498769
vn -0.321719 -0.387537 -0.863894
vn -0.058960 0.037958 -0.997538
vn 0.219597 0.453282 -0.863894
vn 0.439314 0.747150 -0.498769
vn 0.838749 -0.539984 -0.070122
vn -0.838749 0.539984 0.070122
usemtl body
f 1/1/1 2/2/1 3/3/2
f 1/1/1 3/3/2 4/4/2
f 4/4/2 3/3/2 5/5/3
f 4/4/2 5/5/3 6/6/3
f 6/6/3 5/5/3 7/7/4
f 6/6/3 7/7/4 8/8/4
f 8/8/4 7/7/4 9/9/5
f 8/8/4 9/9/5 10/10/5
f 10/10/5 9/9/5 11/11/6
f 10/10/5 11/11/6 12/12/6
f 12/12/6 11/11/6 13/13/7
f 12/12/6 13/13/7 14/14/7
f 14/14/7 13/13/7 15/15/8
f 14/14/7 15/15/8 16/16/8
f 16/16/8 15/15/8 17/17/9
f 16/16/8 17/17/9 18/18/9
f 18/18/9 17/17/9 19/19/10
f 18/18/9 19/19/10 20/20/10
f 20/20/10 19/19/10 21/21/11
f 20/20/10 21/21/11 22/22/11
f 22/22/11 21/21/11 23/23/12
f 22/22/11 23/23/12 24/24/12
f 24/24/12 23/23/12 25/25/13
f 24/24/12 25/25/13 26/26/13
f 26/26/13 25/25/13 27/27/14
f 26/26/13 27/27/14 28/28/14
f 28/28/14 27/27/14 29/29/15
f 28/28/14 29/29/15 30/30/15
f 30/30/15 29/29/15 31/31/16
f 30/30/15 31/31/16 32/32/16
f 32/32/16 31/31/16 2/33/1
f 32/32/16 2/33/1 1/34/1
f 33/35/17 1/36/17 4/37/17
f 33/35/17 4/36/17 6/37/17
f 33/35/17 6/36/17 8/37/17
f 33/35/17 8/36/17 10/37/17
f 33/35/17 10/36/17 12/37/17
f 33/35/17 12/36/17 14/37/17
f 33/35/17 14/36/17 16/37/17
f 33/35/17 16/36/17 18/37/17
f 33/35/17 18/36/17 20/37/17
f 33/35/17 20/36/17 22/37/17
f 33/35/17 22/36/17 24/37/17
f 33/35/17 24/36/17 26/37/17
f 33/35/17 26/36/17 28/37/17
f 33/35/17 28/36/17 30/37/17
f 33/35/17 30/36/17 32/37/17
f 33/35/17 32/36/17 1/37/17
f 34/35/18 3/37/18 2/36/18
f 34/35/18 5/37/18 3/36/18
f 34/35/18 7/37/18 5/36/18
f 34/35/18 9/37/18 7/36/18
f 34/35/18 11/37/18 9/36/18
f 34/35/18 13/37/18 11/36/18
f 34/35/18 15/37/18 13/36/18
f 34/35/18 17/37/18 15/36/18
f 34/35/18 19/37/18 17/36/18
f 34/35/18 21/37/18 19/36/18
f 34/35/18 23/37/18 21/36/18
f 34/35/18 25/37/18 23/36/18
f 34/35/18 27/37/18 25/36/18
f 34/35/18 29/37/18 27/36/18
f 34/35/18 31/37/18 29/36/18
f 34/35/18 2/37/18 31/36/18
f 35/1/19 36/38/19 37/39/20
f 35/1/19 37/39/20 38/6/20
f 38/6/20 37/39/20 39/40/21
f 38/6/20 39/40/21 40/10/21
f 40/10/21 39/40/21 41/41/22
f 40/10/21 41/41/22 42/14/22
f 42/14/22 41/41/22 43/42/23
f 42/14/22 43/42/23 44/18/23
f 44/18/23 43/42/23 45/43/24
f 44/18/23 45/43/24 46/22/24
f 46/22/24 45/43/24 47/44/25
f 46/22/24 47/44/25 48/26/25
f 48/26/25 47/44/25 49/45/26
f 48/26/25 49/45/26 50/30/26
f 50/30/26 49/45/26 36/46/19
f 50/30/26 36/46/19 35/34/19
f 51/35/5 35/36/5 38/37/5
f 51/35/5 38/36/5 40/37/5
f 51/35/5 40/36/5 42/37/5
f 51/35/5 42/36/5 44/37/5
f 51/35/5 44/36/5 46/37/5
f 51/35/5 46/36/5 48/37/5
f 51/35/5 48/36/5 50/37/5
f 51/35/5 50/36/5 35/37/5
f 52/35/13 37/37/13 36/36/13
f 52/35/13 39/37/13 37/36/13
f 52/35/13 41/37/13 39/36/13
f 52/35/13 43/37/13 41/36/13
f 52/35/13 45/37/13 43/36/13
f 52/35/13 47/37/13 45/36/13
f 52/35/13 49/37/13 47/36/13
f 52/35/13 36/37/13 49/36/13
f 53/1/27 54/47/27 55/48/28
f 53/1/27 55/48/28 56/49/28
f 56/49/28 55/48/28 57/50/29
f 56/49/28 57/50/29 58/51/29
f 58/51/29 57/50/29 59/52/30
f 58/51/29 59/52/30 60/10/30
f 60/10/30 59/52/30 61/53/31
f 60/10/30 61/53/31 62/54/31
f 62/54/31 61/53/31 63/55/32
f 62/54/31 63/55/32 64/56/32
f 64/56/32 63/55/32 65/57/33
f 64/56/32 65/57/33 66/18/33
f 66/18/33 65/57/33 67/58/34
f 66/18/33 67/58/34 68/59/34
f 68/59/34 67/58/34 69/60/35
f 68/59/34 69/60/35 70/61/35
f 70/61/35 69/60/35 71/62/36
f 70/61/35 71/62/36 72/26/36
f 72/26/36 71/62/36 73/63/37
f 72/26/36 73/63/37 74/64/37
f 74/64/37 73/63/37 75/65/38
f 74/64/37 75/65/38 76/66/38
f 76/66/38 75/65/38 54/67/27
f 76/66/38 54/67/27 53/34/27
f 77/35/39 53/36/39 56/37/39
f 77/35/39 56/36/39 58/37/39
f 77/35/39 58/36/39 60/37/39
f 77/35/39 60/36/39 62/37/39
f 77/35/39 62/36/39 64/37/39
f 77/35/39 64/36/39 66/37/39
f 77/35/39 66/36/39 68/37/39
f 77/35/39 68/36/39 70/37/39
f 77/35/39 70/36/39 72/37/39
f 77/35/39 72/36/39 74/37/39
f 77/35/39 74/36/39 76/37/39
f 77/35/39 76/36/39 53/37/39
f 51/35/40 55/37/40 54/36/40
f 51/35/40 57/37/40 55/36/40
f 51/35/40 59/37/40 57/36/40
f 51/35/40 61/37/40 59/36/40
f 51/35/40 63/37/40 61/36/40
f 51/35/40 65/37/40 63/36/40
f 51/35/40 67/37/40 65/36/40
f 51/35/40 69/37/40 67/36/40
f 51/35/40 71/37/40 69/36/40
f 51/35/40 73/37/40 71/36/40
f 51/35/40 75/37/40 73/36/40
f 51/35/40 54/37/40 75/36/40
