# Procedurally generated by dev-env-utils/scripts/gen_mast_arm_curves.py
# mount hardware on cell 9, model-space up
mtllib mastarmcurve.mtl
o mastarm_8x2_c9_up
v 0.500000 0.181439 0.569062
v 0.500000 0.187117 0.381648
v 0.618066 0.210591 0.382359
v 0.618066 0.204913 0.569773
v 0.718158 0.277439 0.384384
v 0.718158 0.271762 0.571799
v 0.785037 0.377485 0.387415
v 0.785037 0.371808 0.574829
v 0.808522 0.495497 0.390990
v 0.808522 0.489820 0.578404
v 0.785037 0.613509 0.394565
v 0.785037 0.607832 0.581979
v 0.718158 0.713555 0.397596
v 0.718158 0.707878 0.585010
v 0.618066 0.780404 0.399621
v 0.618066 0.774726 0.587035
v 0.500000 0.803878 0.400332
v 0.500000 0.798200 0.587746
v 0.381934 0.780404 0.399621
v 0.381934 0.774726 0.587035
v 0.281842 0.713555 0.397596
v 0.281842 0.707878 0.585010
v 0.214963 0.613509 0.394565
v 0.214963 0.607832 0.581979
v 0.191478 0.495497 0.390990
v 0.191478 0.489820 0.578404
v 0.214963 0.377485 0.387415
v 0.214963 0.371808 0.574829
v 0.281842 0.277439 0.384384
v 0.281842 0.271762 0.571799
v 0.381934 0.210591 0.382359
v 0.381934 0.204913 0.569773
v 0.500000 0.489820 0.578404
v 0.500000 0.495497 0.390990
v 0.700000 0.925000 0.500000
v 0.700000 0.999375 0.500000
v 0.641421 0.999375 0.641421
v 0.641421 0.925000 0.641421
v 0.500000 0.999375 0.700000
v 0.500000 0.925000 0.700000
v 0.358579 0.999375 0.641421
v 0.358579 0.925000 0.641421
v 0.300000 0.999375 0.500000
v 0.300000 0.925000 0.500000
v 0.358579 0.999375 0.358579
v 0.358579 0.925000 0.358579
v 0.500000 0.999375 0.300000
v 0.500000 0.925000 0.300000
v 0.641421 0.999375 0.358579
v 0.641421 0.925000 0.358579
v 0.500000 0.925000 0.500000
v 0.500000 0.999375 0.500000
v 0.600000 0.707333 0.491172
v 0.600000 0.925000 0.500000
v 0.586603 0.922974 0.549959
v 0.586603 0.705307 0.541131
v 0.550000 0.921491 0.586531
v 0.550000 0.703823 0.577704
v 0.500000 0.920948 0.599918
v 0.500000 0.703281 0.591090
v 0.450000 0.921491 0.586531
v 0.450000 0.703823 0.577704
v 0.413397 0.922974 0.549959
v 0.413397 0.705307 0.541131
v 0.400000 0.925000 0.500000
v 0.400000 0.707333 0.491172
v 0.413397 0.927026 0.450041
v 0.413397 0.709359 0.441213
v 0.450000 0.928509 0.413469
v 0.450000 0.710842 0.404641
v 0.500000 0.929052 0.400082
v 0.500000 0.711385 0.391255
v 0.550000 0.928509 0.413469
v 0.550000 0.710842 0.404641
v 0.586603 0.927026 0.450041
v 0.586603 0.709359 0.441213
v 0.500000 0.707333 0.491172
vt 0.250000 0.750000
vt 0.250000 0.595739
vt 0.281250 0.595739
vt 0.281250 0.750000
vt 0.312500 0.595739
vt 0.312500 0.750000
vt 0.343750 0.595739
vt 0.343750 0.750000
vt 0.375000 0.595739
vt 0.375000 0.750000
vt 0.406250 0.595739
vt 0.406250 0.750000
vt 0.437500 0.595739
vt 0.437500 0.750000
vt 0.468750 0.595739
vt 0.468750 0.750000
vt 0.500000 0.595739
vt 0.500000 0.750000
vt 0.531250 0.595739
vt 0.531250 0.750000
vt 0.562500 0.595739
vt 0.562500 0.750000
vt 0.593750 0.595739
vt 0.593750 0.750000
vt 0.625000 0.595739
vt 0.625000 0.750000
vt 0.656250 0.595739
vt 0.656250 0.750000
vt 0.687500 0.595739
vt 0.687500 0.750000
vt 0.718750 0.595739
vt 0.718750 0.750000
vt 0.750000 0.595739
vt 0.750000 0.750000
vt 0.500000 0.500000
vt 0.400000 0.600000
vt 0.600000 0.400000
vt 0.250000 0.650000
vt 0.312500 0.650000
vt 0.375000 0.650000
vt 0.437500 0.650000
vt 0.500000 0.650000
vt 0.562500 0.650000
vt 0.625000 0.650000
vt 0.687500 0.650000
vt 0.750000 0.650000
vt 0.250000 0.700000
vt 0.291667 0.700000
vt 0.291667 0.750000
vt 0.333333 0.700000
vt 0.333333 0.750000
vt 0.375000 0.700000
vt 0.416667 0.700000
vt 0.416667 0.750000
vt 0.458333 0.700000
vt 0.458333 0.750000
vt 0.500000 0.700000
vt 0.541667 0.700000
vt 0.541667 0.750000
vt 0.583333 0.700000
vt 0.583333 0.750000
vt 0.625000 0.700000
vt 0.666667 0.700000
vt 0.666667 0.750000
vt 0.708333 0.700000
vt 0.708333 0.750000
vt 0.750000 0.700000
vn 0.000000 -0.999541 -0.030280
vn 0.382683 -0.923456 -0.027975
vn 0.707107 -0.706783 -0.021411
vn 0.923880 -0.382508 -0.011588
vn 1.000000 -0.000000 -0.000000
vn 0.923880 0.382508 0.011588
vn 0.707107 0.706783 0.021411
vn 0.382683 0.923456 0.027975
vn 0.000000 0.999541 0.030280
vn -0.382683 0.923456 0.027975
vn -0.707107 0.706783 0.021411
vn -0.923880 0.382508 0.011588
vn -1.000000 0.000000 0.000000
vn -0.923880 -0.382508 -0.011588
vn -0.707107 -0.706783 -0.021411
vn -0.382683 -0.923456 -0.027975
vn -0.000000 -0.030280 0.999541
vn 0.000000 0.030280 -0.999541
vn 0.707107 0.000000 0.707107
vn 0.000000 0.000000 1.000000
vn -0.707107 0.000000 0.707107
vn -0.707107 -0.000000 -0.707107
vn -0.000000 -0.000000 -1.000000
vn 0.707107 0.000000 -0.707107
vn -0.000000 -1.000000 -0.000000
vn 0.000000 1.000000 0.000000
vn 0.866025 -0.020261 0.499589
vn 0.500000 -0.035093 0.865314
vn 0.000000 -0.040522 0.999179
vn -0.500000 -0.035093 0.865314
vn -0.866025 -0.020261 0.499589
vn -0.866025 0.020261 -0.499589
vn -0.500000 0.035093 -0.865314
vn -0.000000 0.040522 -0.999179
vn 0.500000 0.035093 -0.865314
vn 0.866025 0.020261 -0.499589
vn -0.000000 -0.999179 -0.040522
vn 0.000000 0.999179 0.040522
usemtl body
f 1/1/1 2/2/1 3/3/2
f 1/1/1 3/3/2 4/4/2
f 4/4/2 3/3/2 5/5/3
f 4/4/2 5/5/3 6/6/3
f 6/6/3 5/5/3 7/7/4
f 6/6/3 7/7/4 8/8/4
f 8/8/4 7/7/4 9/9/5
f 8/8/4 9/9/5 10/10/5
f 10/10/5 9/9/5 11/11/6
f 10/10/5 11/11/6 12/12/6
f 12/12/6 11/11/6 13/13/7
f 12/12/6 13/13/7 14/14/7
f 14/14/7 13/13/7 15/15/8
f 14/14/7 15/15/8 16/16/8
f 16/16/8 15/15/8 17/17/9
f 16/16/8 17/17/9 18/18/9
f 18/18/9 17/17/9 19/19/10
f 18/18/9 19/19/10 20/20/10
f 20/20/10 19/19/10 21/21/11
f 20/20/10 21/21/11 22/22/11
f 22/22/11 21/21/11 23/23/12
f 22/22/11 23/23/12 24/24/12
f 24/24/12 23/23/12 25/25/13
f 24/24/12 25/25/13 26/26/13
f 26/26/13 25/25/13 27/27/14
f 26/26/13 27/27/14 28/28/14
f 28/28/14 27/27/14 29/29/15
f 28/28/14 29/29/15 30/30/15
f 30/30/15 29/29/15 31/31/16
f 30/30/15 31/31/16 32/32/16
f 32/32/16 31/31/16 2/33/1
f 32/32/16 2/33/1 1/34/1
f 33/35/17 1/36/17 4/37/17
f 33/35/17 4/36/17 6/37/17
f 33/35/17 6/36/17 8/37/17
f 33/35/17 8/36/17 10/37/17
f 33/35/17 10/36/17 12/37/17
f 33/35/17 12/36/17 14/37/17
f 33/35/17 14/36/17 16/37/17
f 33/35/17 16/36/17 18/37/17
f 33/35/17 18/36/17 20/37/17
f 33/35/17 20/36/17 22/37/17
f 33/35/17 22/36/17 24/37/17
f 33/35/17 24/36/17 26/37/17
f 33/35/17 26/36/17 28/37/17
f 33/35/17 28/36/17 30/37/17
f 33/35/17 30/36/17 32/37/17
f 33/35/17 32/36/17 1/37/17
f 34/35/18 3/37/18 2/36/18
f 34/35/18 5/37/18 3/36/18
f 34/35/18 7/37/18 5/36/18
f 34/35/18 9/37/18 7/36/18
f 34/35/18 11/37/18 9/36/18
f 34/35/18 13/37/18 11/36/18
f 34/35/18 15/37/18 13/36/18
f 34/35/18 17/37/18 15/36/18
f 34/35/18 19/37/18 17/36/18
f 34/35/18 21/37/18 19/36/18
f 34/35/18 23/37/18 21/36/18
f 34/35/18 25/37/18 23/36/18
f 34/35/18 27/37/18 25/36/18
f 34/35/18 29/37/18 27/36/18
f 34/35/18 31/37/18 29/36/18
f 34/35/18 2/37/18 31/36/18
f 35/1/5 36/38/5 37/39/19
f 35/1/5 37/39/19 38/6/19
f 38/6/19 37/39/19 39/40/20
f 38/6/19 39/40/20 40/10/20
f 40/10/20 39/40/20 41/41/21
f 40/10/20 41/41/21 42/14/21
f 42/14/21 41/41/21 43/42/13
f 42/14/21 43/42/13 44/18/13
f 44/18/13 43/42/13 45/43/22
f 44/18/13 45/43/22 46/22/22
f 46/22/22 45/43/22 47/44/23
f 46/22/22 47/44/23 48/26/23
f 48/26/23 47/44/23 49/45/24
f 48/26/23 49/45/24 50/30/24
f 50/30/24 49/45/24 36/46/5
f 50/30/24 36/46/5 35/34/5
f 51/35/25 35/36/25 38/37/25
f 51/35/25 38/36/25 40/37/25
f 51/35/25 40/36/25 42/37/25
f 51/35/25 42/36/25 44/37/25
f 51/35/25 44/36/25 46/37/25
f 51/35/25 46/36/25 48/37/25
f 51/35/25 48/36/25 50/37/25
f 51/35/25 50/36/25 35/37/25
f 52/35/26 37/37/26 36/36/26
f 52/35/26 39/37/26 37/36/26
f 52/35/26 41/37/26 39/36/26
f 52/35/26 43/37/26 41/36/26
f 52/35/26 45/37/26 43/36/26
f 52/35/26 47/37/26 45/36/26
f 52/35/26 49/37/26 47/36/26
f 52/35/26 36/37/26 49/36/26
f 53/1/5 54/47/5 55/48/27
f 53/1/5 55/48/27 56/49/27
f 56/49/27 55/48/27 57/50/28
f 56/49/27 57/50/28 58/51/28
f 58/51/28 57/50/28 59/52/29
f 58/51/28 59/52/29 60/10/29
f 60/10/29 59/52/29 61/53/30
f 60/10/29 61/53/30 62/54/30
f 62/54/30 61/53/30 63/55/31
f 62/54/30 63/55/31 64/56/31
f 64/56/31 63/55/31 65/57/13
f 64/56/31 65/57/13 66/18/13
f 66/18/13 65/57/13 67/58/32
f 66/18/13 67/58/32 68/59/32
f 68/59/32 67/58/32 69/60/33
f 68/59/32 69/60/33 70/61/33
f 70/61/33 69/60/33 71/62/34
f 70/61/33 71/62/34 72/26/34
f 72/26/34 71/62/34 73/63/35
f 72/26/34 73/63/35 74/64/35
f 74/64/35 73/63/35 75/65/36
f 74/64/35 75/65/36 76/66/36
f 76/66/36 75/65/36 54/67/5
f 76/66/36 54/67/5 53/34/5
f 77/35/37 53/36/37 56/37/37
f 77/35/37 56/36/37 58/37/37
f 77/35/37 58/36/37 60/37/37
f 77/35/37 60/36/37 62/37/37
f 77/35/37 62/36/37 64/37/37
f 77/35/37 64/36/37 66/37/37
f 77/35/37 66/36/37 68/37/37
f 77/35/37 68/36/37 70/37/37
f 77/35/37 70/36/37 72/37/37
f 77/35/37 72/36/37 74/37/37
f 77/35/37 74/36/37 76/37/37
f 77/35/37 76/36/37 53/37/37
f 51/35/38 55/37/38 54/36/38
f 51/35/38 57/37/38 55/36/38
f 51/35/38 59/37/38 57/36/38
f 51/35/38 61/37/38 59/36/38
f 51/35/38 63/37/38 61/36/38
f 51/35/38 65/37/38 63/36/38
f 51/35/38 67/37/38 65/36/38
f 51/35/38 69/37/38 67/36/38
f 51/35/38 71/37/38 69/36/38
f 51/35/38 73/37/38 71/36/38
f 51/35/38 75/37/38 73/36/38
f 51/35/38 54/37/38 75/36/38
