# Procedurally generated by dev-env-utils/scripts/gen_mast_arm_curves.py
# cell 2 of 12 at (+1 along arm, +1 up)
mtllib mastarmcurve.mtl
o mastarm_10x2_c2
v 0.782476 -0.000000 0.660254
v 0.782188 0.026528 0.583333
v 0.760707 0.128664 0.618400
v 0.760974 0.102144 0.695638
v 0.699537 0.215251 0.648128
v 0.699741 0.188737 0.725635
v 0.607988 0.273107 0.667992
v 0.608099 0.246597 0.745678
v 0.500000 0.293423 0.674967
v 0.500000 0.266915 0.752716
v 0.392012 0.273107 0.667992
v 0.391901 0.246597 0.745678
v 0.300463 0.215251 0.648128
v 0.300259 0.188737 0.725635
v 0.239293 0.128664 0.618400
v 0.239026 0.102144 0.695638
v 0.217813 0.026528 0.583333
v 0.217524 -0.000000 0.660254
v 0.239293 -0.075609 0.548267
v 0.239026 -0.102144 0.624870
v 0.300463 -0.162196 0.518538
v 0.300259 -0.188737 0.594874
v 0.392012 -0.220051 0.498675
v 0.391901 -0.246597 0.574830
v 0.500000 -0.240367 0.491699
v 0.500000 -0.266915 0.567792
v 0.607988 -0.220051 0.498675
v 0.608099 -0.246597 0.574830
v 0.699537 -0.162196 0.518538
v 0.699741 -0.188737 0.594874
v 0.760707 -0.075609 0.548267
v 0.760974 -0.102144 0.624870
v 0.781875 0.055000 0.500000
v 0.760419 0.157127 0.534723
v 0.699316 0.243707 0.564160
v 0.607869 0.301557 0.583829
v 0.500000 0.321872 0.590736
v 0.392131 0.301557 0.583829
v 0.300684 0.243707 0.564160
v 0.239581 0.157127 0.534723
v 0.218125 0.055000 0.500000
v 0.239581 -0.047127 0.465277
v 0.300684 -0.133707 0.435840
v 0.392131 -0.191557 0.416171
v 0.500000 -0.211872 0.409264
v 0.607869 -0.191557 0.416171
v 0.699316 -0.133707 0.435840
v 0.760419 -0.047127 0.465277
v 0.781562 0.083194 0.416667
v 0.760130 0.185312 0.451046
v 0.699095 0.271883 0.480192
v 0.607749 0.329728 0.499666
v 0.500000 0.350040 0.506505
v 0.392251 0.329728 0.499666
v 0.300905 0.271883 0.480192
v 0.239870 0.185312 0.451046
v 0.218438 0.083194 0.416667
v 0.239870 -0.018923 0.382287
v 0.300905 -0.105494 0.353142
v 0.392251 -0.163339 0.333667
v 0.500000 -0.183651 0.326829
v 0.607749 -0.163339 0.333667
v 0.699095 -0.105494 0.353142
v 0.760130 -0.018923 0.382287
v 0.781250 0.111111 0.333333
v 0.759841 0.213218 0.367369
v 0.698874 0.299779 0.396223
v 0.607630 0.357618 0.415502
v 0.500000 0.377928 0.422272
v 0.392370 0.357618 0.415502
v 0.301126 0.299779 0.396223
v 0.240159 0.213218 0.367369
v 0.218750 0.111111 0.333333
v 0.240159 0.009005 0.299298
v 0.301126 -0.077557 0.270444
v 0.392370 -0.135396 0.251164
v 0.500000 -0.155706 0.244394
v 0.607630 -0.135396 0.251164
v 0.698874 -0.077557 0.270444
v 0.759841 0.009005 0.299298
v 0.780938 0.138750 0.250000
v 0.759552 0.240845 0.283691
v 0.698653 0.327396 0.312253
v 0.607510 0.385228 0.331338
v 0.500000 0.405536 0.338039
v 0.392490 0.385228 0.331338
v 0.301347 0.327396 0.312253
v 0.240448 0.240845 0.283691
v 0.219062 0.138750 0.250000
v 0.240448 0.036655 0.216309
v 0.301347 -0.049896 0.187747
v 0.392490 -0.107728 0.168662
v 0.500000 -0.128036 0.161961
v 0.607510 -0.107728 0.168662
v 0.698653 -0.049896 0.187747
v 0.759552 0.036655 0.216309
v 0.780625 0.166111 0.166667
v 0.759264 0.268193 0.200013
v 0.698432 0.354734 0.228283
v 0.607391 0.412559 0.247173
v 0.500000 0.432864 0.253806
v 0.392609 0.412559 0.247173
v 0.301568 0.354734 0.228283
v 0.240736 0.268193 0.200013
v 0.219375 0.166111 0.166667
v 0.240736 0.064029 0.133320
v 0.301568 -0.022512 0.105050
v 0.392609 -0.080336 0.086160
v 0.500000 -0.100642 0.079527
v 0.607391 -0.080336 0.086160
v 0.698432 -0.022512 0.105050
v 0.759264 0.064029 0.133320
v 0.780312 0.193194 0.083333
v 0.758975 0.295263 0.116335
v 0.698211 0.381792 0.144313
v 0.607271 0.439609 0.163007
v 0.500000 0.459912 0.169572
v 0.392729 0.439609 0.163007
v 0.301789 0.381792 0.144313
v 0.241025 0.295263 0.116335
v 0.219688 0.193194 0.083333
v 0.241025 0.091126 0.050331
v 0.301789 0.004597 0.022353
v 0.392729 -0.053220 0.003659
v 0.500000 -0.073523 -0.002905
v 0.607271 -0.053220 0.003659
v 0.698211 0.004597 0.022353
v 0.758975 0.091126 0.050331
v 0.780000 0.220000 0.000000
v 0.758686 0.322054 0.032657
v 0.697990 0.408570 0.060343
v 0.607151 0.466379 0.078841
v 0.500000 0.486679 0.085337
v 0.392849 0.466379 0.078841
v 0.302010 0.408570 0.060343
v 0.241314 0.322054 0.032657
v 0.220000 0.220000 0.000000
v 0.241314 0.117946 -0.032657
v 0.302010 0.031430 -0.060343
v 0.392849 -0.026379 -0.078841
v 0.500000 -0.046679 -0.085337
v 0.607151 -0.026379 -0.078841
v 0.697990 0.031430 -0.060343
v 0.758686 0.117946 -0.032657
vt 0.250000 0.469830
vt 0.250000 0.510513
vt 0.281250 0.510513
vt 0.281250 0.469830
vt 0.312500 0.510513
vt 0.312500 0.469830
vt 0.343750 0.510513
vt 0.343750 0.469830
vt 0.375000 0.510513
vt 0.375000 0.469830
vt 0.406250 0.510513
vt 0.406250 0.469830
vt 0.437500 0.510513
vt 0.437500 0.469830
vt 0.468750 0.510513
vt 0.468750 0.469830
vt 0.500000 0.510513
vt 0.500000 0.469830
vt 0.531250 0.510513
vt 0.531250 0.469830
vt 0.562500 0.510513
vt 0.562500 0.469830
vt 0.593750 0.510513
vt 0.593750 0.469830
vt 0.625000 0.510513
vt 0.625000 0.469830
vt 0.656250 0.510513
vt 0.656250 0.469830
vt 0.687500 0.510513
vt 0.687500 0.469830
vt 0.718750 0.510513
vt 0.718750 0.469830
vt 0.750000 0.510513
vt 0.750000 0.469830
vt 0.250000 0.554544
vt 0.281250 0.554544
vt 0.312500 0.554544
vt 0.343750 0.554544
vt 0.375000 0.554544
vt 0.406250 0.554544
vt 0.437500 0.554544
vt 0.468750 0.554544
vt 0.500000 0.554544
vt 0.531250 0.554544
vt 0.562500 0.554544
vt 0.593750 0.554544
vt 0.625000 0.554544
vt 0.656250 0.554544
vt 0.687500 0.554544
vt 0.718750 0.554544
vt 0.750000 0.554544
vt 0.250000 0.598531
vt 0.281250 0.598531
vt 0.312500 0.598531
vt 0.343750 0.598531
vt 0.375000 0.598531
vt 0.406250 0.598531
vt 0.437500 0.598531
vt 0.468750 0.598531
vt 0.500000 0.598531
vt 0.531250 0.598531
vt 0.562500 0.598531
vt 0.593750 0.598531
vt 0.625000 0.598531
vt 0.656250 0.598531
vt 0.687500 0.598531
vt 0.718750 0.598531
vt 0.750000 0.598531
vt 0.250000 0.642474
vt 0.281250 0.642474
vt 0.312500 0.642474
vt 0.343750 0.642474
vt 0.375000 0.642474
vt 0.406250 0.642474
vt 0.437500 0.642474
vt 0.468750 0.642474
vt 0.500000 0.642474
vt 0.531250 0.642474
vt 0.562500 0.642474
vt 0.593750 0.642474
vt 0.625000 0.642474
vt 0.656250 0.642474
vt 0.687500 0.642474
vt 0.718750 0.642474
vt 0.750000 0.642474
vt 0.250000 0.686372
vt 0.281250 0.686372
vt 0.312500 0.686372
vt 0.343750 0.686372
vt 0.375000 0.686372
vt 0.406250 0.686372
vt 0.437500 0.686372
vt 0.468750 0.686372
vt 0.500000 0.686372
vt 0.531250 0.686372
vt 0.562500 0.686372
vt 0.593750 0.686372
vt 0.625000 0.686372
vt 0.656250 0.686372
vt 0.687500 0.686372
vt 0.718750 0.686372
vt 0.750000 0.686372
vt 0.250000 0.730228
vt 0.281250 0.730228
vt 0.312500 0.730228
vt 0.343750 0.730228
vt 0.375000 0.730228
vt 0.406250 0.730228
vt 0.437500 0.730228
vt 0.468750 0.730228
vt 0.500000 0.730228
vt 0.531250 0.730228
vt 0.562500 0.730228
vt 0.593750 0.730228
vt 0.625000 0.730228
vt 0.656250 0.730228
vt 0.687500 0.730228
vt 0.718750 0.730228
vt 0.750000 0.730228
vt 0.250000 0.725960
vt 0.281250 0.725960
vt 0.312500 0.725960
vt 0.343750 0.725960
vt 0.375000 0.725960
vt 0.406250 0.725960
vt 0.437500 0.725960
vt 0.468750 0.725960
vt 0.500000 0.725960
vt 0.531250 0.725960
vt 0.562500 0.725960
vt 0.593750 0.725960
vt 0.625000 0.725960
vt 0.656250 0.725960
vt 0.687500 0.725960
vt 0.718750 0.725960
vt 0.750000 0.725960
vt 0.250000 0.682191
vt 0.281250 0.682191
vt 0.312500 0.682191
vt 0.343750 0.682191
vt 0.375000 0.682191
vt 0.406250 0.682191
vt 0.437500 0.682191
vt 0.468750 0.682191
vt 0.500000 0.682191
vt 0.531250 0.682191
vt 0.562500 0.682191
vt 0.593750 0.682191
vt 0.625000 0.682191
vt 0.656250 0.682191
vt 0.687500 0.682191
vt 0.718750 0.682191
vt 0.750000 0.682191
vn 1.000000 0.000000 0.000000
vn 0.923880 0.361945 0.124268
vn 0.923880 0.361602 0.125263
vn 0.707107 0.668787 0.229617
vn 0.707107 0.668153 0.231455
vn 0.382683 0.873812 0.300009
vn 0.382683 0.872984 0.302411
vn 0.000000 0.945808 0.324727
vn 0.000000 0.944911 0.327327
vn -0.382683 0.873812 0.300009
vn -0.382683 0.872984 0.302411
vn -0.707107 0.668787 0.229617
vn -0.707107 0.668153 0.231455
vn -0.923880 0.361945 0.124268
vn -0.923880 0.361602 0.125263
vn -1.000000 0.000000 0.000000
vn -0.923880 -0.361945 -0.124268
vn -0.923880 -0.361602 -0.125263
vn -0.707107 -0.668787 -0.229617
vn -0.707107 -0.668153 -0.231455
vn -0.382683 -0.873812 -0.300009
vn -0.382683 -0.872984 -0.302411
vn -0.000000 -0.945808 -0.324727
vn -0.000000 -0.944911 -0.327327
vn 0.382683 -0.873812 -0.300009
vn 0.382683 -0.872984 -0.302411
vn 0.707107 -0.668787 -0.229617
vn 0.707107 -0.668153 -0.231455
vn 0.923880 -0.361945 -0.124268
vn 0.923880 -0.361602 -0.125263
vn 0.923880 0.362314 0.123187
vn 0.707107 0.669469 0.227620
vn 0.382683 0.874704 0.297399
vn 0.000000 0.946773 0.321903
vn -0.382683 0.874704 0.297399
vn -0.707107 0.669469 0.227620
vn -0.923880 0.362314 0.123187
vn -0.923880 -0.362314 -0.123187
vn -0.707107 -0.669469 -0.227620
vn -0.382683 -0.874704 -0.297399
vn -0.000000 -0.946773 -0.321903
vn 0.382683 -0.874704 -0.297399
vn 0.707107 -0.669469 -0.227620
vn 0.923880 -0.362314 -0.123187
vn 0.923880 0.362681 0.122103
vn 0.707107 0.670147 0.225616
vn 0.382683 0.875590 0.294782
vn 0.000000 0.947731 0.319070
vn -0.382683 0.875590 0.294782
vn -0.707107 0.670147 0.225616
vn -0.923880 0.362681 0.122103
vn -0.923880 -0.362681 -0.122103
vn -0.707107 -0.670147 -0.225616
vn -0.382683 -0.875590 -0.294782
vn -0.000000 -0.947731 -0.319070
vn 0.382683 -0.875590 -0.294782
vn 0.707107 -0.670147 -0.225616
vn 0.923880 -0.362681 -0.122103
vn 0.923880 0.363045 0.121015
vn 0.707107 0.670820 0.223607
vn 0.382683 0.876469 0.292156
vn 0.000000 0.948683 0.316228
vn -0.382683 0.876469 0.292156
vn -0.707107 0.670820 0.223607
vn -0.923880 0.363045 0.121015
vn -0.923880 -0.363045 -0.121015
vn -0.707107 -0.670820 -0.223607
vn -0.382683 -0.876469 -0.292156
vn -0.000000 -0.948683 -0.316228
vn 0.382683 -0.876469 -0.292156
vn 0.707107 -0.670820 -0.223607
vn 0.923880 -0.363045 -0.121015
vn 0.923880 0.363407 0.119924
vn 0.707107 0.671489 0.221591
vn 0.382683 0.877342 0.289523
vn 0.000000 0.949629 0.313377
vn -0.382683 0.877342 0.289523
vn -0.707107 0.671489 0.221591
vn -0.923880 0.363407 0.119924
vn -0.923880 -0.363407 -0.119924
vn -0.707107 -0.671489 -0.221591
vn -0.382683 -0.877342 -0.289523
vn -0.000000 -0.949629 -0.313377
vn 0.382683 -0.877342 -0.289523
vn 0.707107 -0.671489 -0.221591
vn 0.923880 -0.363407 -0.119924
vn 0.923880 0.363766 0.118830
vn 0.707107 0.672153 0.219570
vn 0.382683 0.878210 0.286882
vn 0.000000 0.950567 0.310519
vn -0.382683 0.878210 0.286882
vn -0.707107 0.672153 0.219570
vn -0.923880 0.363766 0.118830
vn -0.923880 -0.363766 -0.118830
vn -0.707107 -0.672153 -0.219570
vn -0.382683 -0.878210 -0.286882
vn -0.000000 -0.950567 -0.310519
vn 0.382683 -0.878210 -0.286882
vn 0.707107 -0.672153 -0.219570
vn 0.923880 -0.363766 -0.118830
vn 0.923880 0.364123 0.117733
vn 0.707107 0.672811 0.217542
vn 0.382683 0.879071 0.284233
vn 0.000000 0.951499 0.307651
vn -0.382683 0.879071 0.284233
vn -0.707107 0.672811 0.217542
vn -0.923880 0.364123 0.117733
vn -0.923880 -0.364123 -0.117733
vn -0.707107 -0.672811 -0.217542
vn -0.382683 -0.879071 -0.284233
vn -0.000000 -0.951499 -0.307651
vn 0.382683 -0.879071 -0.284233
vn 0.707107 -0.672811 -0.217542
vn 0.923880 -0.364123 -0.117733
vn 0.923880 0.364477 0.116633
vn 0.707107 0.673466 0.215509
vn 0.382683 0.879925 0.281576
vn 0.000000 0.952424 0.304776
vn -0.382683 0.879925 0.281576
vn -0.707107 0.673466 0.215509
vn -0.923880 0.364477 0.116633
vn -0.923880 -0.364477 -0.116633
vn -0.707107 -0.673466 -0.215509
vn -0.382683 -0.879925 -0.281576
vn -0.000000 -0.952424 -0.304776
vn 0.382683 -0.879925 -0.281576
vn 0.707107 -0.673466 -0.215509
vn 0.923880 -0.364477 -0.116633
usemtl body
f 1/1/1 2/2/1 3/3/2
f 1/1/1 3/3/2 4/4/3
f 4/4/3 3/3/2 5/5/4
f 4/4/3 5/5/4 6/6/5
f 6/6/5 5/5/4 7/7/6
f 6/6/5 7/7/6 8/8/7
f 8/8/7 7/7/6 9/9/8
f 8/8/7 9/9/8 10/10/9
f 10/10/9 9/9/8 11/11/10
f 10/10/9 11/11/10 12/12/11
f 12/12/11 11/11/10 13/13/12
f 12/12/11 13/13/12 14/14/13
f 14/14/13 13/13/12 15/15/14
f 14/14/13 15/15/14 16/16/15
f 16/16/15 15/15/14 17/17/16
f 16/16/15 17/17/16 18/18/16
f 18/18/16 17/17/16 19/19/17
f 18/18/16 19/19/17 20/20/18
f 20/20/18 19/19/17 21/21/19
f 20/20/18 21/21/19 22/22/20
f 22/22/20 21/21/19 23/23/21
f 22/22/20 23/23/21 24/24/22
f 24/24/22 23/23/21 25/25/23
f 24/24/22 25/25/23 26/26/24
f 26/26/24 25/25/23 27/27/25
f 26/26/24 27/27/25 28/28/26
f 28/28/26 27/27/25 29/29/27
f 28/28/26 29/29/27 30/30/28
f 30/30/28 29/29/27 31/31/29
f 30/30/28 31/31/29 32/32/30
f 32/32/30 31/31/29 2/33/1
f 32/32/30 2/33/1 1/34/1
f 2/2/1 33/35/1 34/36/31
f 2/2/1 34/36/31 3/3/2
f 3/3/2 34/36/31 35/37/32
f 3/3/2 35/37/32 5/5/4
f 5/5/4 35/37/32 36/38/33
f 5/5/4 36/38/33 7/7/6
f 7/7/6 36/38/33 37/39/34
f 7/7/6 37/39/34 9/9/8
f 9/9/8 37/39/34 38/40/35
f 9/9/8 38/40/35 11/11/10
f 11/11/10 38/40/35 39/41/36
f 11/11/10 39/41/36 13/13/12
f 13/13/12 39/41/36 40/42/37
f 13/13/12 40/42/37 15/15/14
f 15/15/14 40/42/37 41/43/16
f 15/15/14 41/43/16 17/17/16
f 17/17/16 41/43/16 42/44/38
f 17/17/16 42/44/38 19/19/17
f 19/19/17 42/44/38 43/45/39
f 19/19/17 43/45/39 21/21/19
f 21/21/19 43/45/39 44/46/40
f 21/21/19 44/46/40 23/23/21
f 23/23/21 44/46/40 45/47/41
f 23/23/21 45/47/41 25/25/23
f 25/25/23 45/47/41 46/48/42
f 25/25/23 46/48/42 27/27/25
f 27/27/25 46/48/42 47/49/43
f 27/27/25 47/49/43 29/29/27
f 29/29/27 47/49/43 48/50/44
f 29/29/27 48/50/44 31/31/29
f 31/31/29 48/50/44 33/51/1
f 31/31/29 33/51/1 2/33/1
f 33/35/1 49/52/1 50/53/45
f 33/35/1 50/53/45 34/36/31
f 34/36/31 50/53/45 51/54/46
f 34/36/31 51/54/46 35/37/32
f 35/37/32 51/54/46 52/55/47
f 35/37/32 52/55/47 36/38/33
f 36/38/33 52/55/47 53/56/48
f 36/38/33 53/56/48 37/39/34
f 37/39/34 53/56/48 54/57/49
f 37/39/34 54/57/49 38/40/35
f 38/40/35 54/57/49 55/58/50
f 38/40/35 55/58/50 39/41/36
f 39/41/36 55/58/50 56/59/51
f 39/41/36 56/59/51 40/42/37
f 40/42/37 56/59/51 57/60/16
f 40/42/37 57/60/16 41/43/16
f 41/43/16 57/60/16 58/61/52
f 41/43/16 58/61/52 42/44/38
f 42/44/38 58/61/52 59/62/53
f 42/44/38 59/62/53 43/45/39
f 43/45/39 59/62/53 60/63/54
f 43/45/39 60/63/54 44/46/40
f 44/46/40 60/63/54 61/64/55
f 44/46/40 61/64/55 45/47/41
f 45/47/41 61/64/55 62/65/56
f 45/47/41 62/65/56 46/48/42
f 46/48/42 62/65/56 63/66/57
f 46/48/42 63/66/57 47/49/43
f 47/49/43 63/66/57 64/67/58
f 47/49/43 64/67/58 48/50/44
f 48/50/44 64/67/58 49/68/1
f 48/50/44 49/68/1 33/51/1
f 49/52/1 65/69/1 66/70/59
f 49/52/1 66/70/59 50/53/45
f 50/53/45 66/70/59 67/71/60
f 50/53/45 67/71/60 51/54/46
f 51/54/46 67/71/60 68/72/61
f 51/54/46 68/72/61 52/55/47
f 52/55/47 68/72/61 69/73/62
f 52/55/47 69/73/62 53/56/48
f 53/56/48 69/73/62 70/74/63
f 53/56/48 70/74/63 54/57/49
f 54/57/49 70/74/63 71/75/64
f 54/57/49 71/75/64 55/58/50
f 55/58/50 71/75/64 72/76/65
f 55/58/50 72/76/65 56/59/51
f 56/59/51 72/76/65 73/77/16
f 56/59/51 73/77/16 57/60/16
f 57/60/16 73/77/16 74/78/66
f 57/60/16 74/78/66 58/61/52
f 58/61/52 74/78/66 75/79/67
f 58/61/52 75/79/67 59/62/53
f 59/62/53 75/79/67 76/80/68
f 59/62/53 76/80/68 60/63/54
f 60/63/54 76/80/68 77/81/69
f 60/63/54 77/81/69 61/64/55
f 61/64/55 77/81/69 78/82/70
f 61/64/55 78/82/70 62/65/56
f 62/65/56 78/82/70 79/83/71
f 62/65/56 79/83/71 63/66/57
f 63/66/57 79/83/71 80/84/72
f 63/66/57 80/84/72 64/67/58
f 64/67/58 80/84/72 65/85/1
f 64/67/58 65/85/1 49/68/1
f 65/69/1 81/86/1 82/87/73
f 65/69/1 82/87/73 66/70/59
f 66/70/59 82/87/73 83/88/74
f 66/70/59 83/88/74 67/71/60
f 67/71/60 83/88/74 84/89/75
f 67/71/60 84/89/75 68/72/61
f 68/72/61 84/89/75 85/90/76
f 68/72/61 85/90/76 69/73/62
f 69/73/62 85/90/76 86/91/77
f 69/73/62 86/91/77 70/74/63
f 70/74/63 86/91/77 87/92/78
f 70/74/63 87/92/78 71/75/64
f 71/75/64 87/92/78 88/93/79
f 71/75/64 88/93/79 72/76/65
f 72/76/65 88/93/79 89/94/16
f 72/76/65 89/94/16 73/77/16
f 73/77/16 89/94/16 90/95/80
f 73/77/16 90/95/80 74/78/66
f 74/78/66 90/95/80 91/96/81
f 74/78/66 91/96/81 75/79/67
f 75/79/67 91/96/81 92/97/82
f 75/79/67 92/97/82 76/80/68
f 76/80/68 92/97/82 93/98/83
f 76/80/68 93/98/83 77/81/69
f 77/81/69 93/98/83 94/99/84
f 77/81/69 94/99/84 78/82/70
f 78/82/70 94/99/84 95/100/85
f 78/82/70 95/100/85 79/83/71
f 79/83/71 95/100/85 96/101/86
f 79/83/71 96/101/86 80/84/72
f 80/84/72 96/101/86 81/102/1
f 80/84/72 81/102/1 65/85/1
f 81/86/1 97/103/1 98/104/87
f 81/86/1 98/104/87 82/87/73
f 82/87/73 98/104/87 99/105/88
f 82/87/73 99/105/88 83/88/74
f 83/88/74 99/105/88 100/106/89
f 83/88/74 100/106/89 84/89/75
f 84/89/75 100/106/89 101/107/90
f 84/89/75 101/107/90 85/90/76
f 85/90/76 101/107/90 102/108/91
f 85/90/76 102/108/91 86/91/77
f 86/91/77 102/108/91 103/109/92
f 86/91/77 103/109/92 87/92/78
f 87/92/78 103/109/92 104/110/93
f 87/92/78 104/110/93 88/93/79
f 88/93/79 104/110/93 105/111/16
f 88/93/79 105/111/16 89/94/16
f 89/94/16 105/111/16 106/112/94
f 89/94/16 106/112/94 90/95/80
f 90/95/80 106/112/94 107/113/95
f 90/95/80 107/113/95 91/96/81
f 91/96/81 107/113/95 108/114/96
f 91/96/81 108/114/96 92/97/82
f 92/97/82 108/114/96 109/115/97
f 92/97/82 109/115/97 93/98/83
f 93/98/83 109/115/97 110/116/98
f 93/98/83 110/116/98 94/99/84
f 94/99/84 110/116/98 111/117/99
f 94/99/84 111/117/99 95/100/85
f 95/100/85 111/117/99 112/118/100
f 95/100/85 112/118/100 96/101/86
f 96/101/86 112/118/100 97/119/1
f 96/101/86 97/119/1 81/102/1
f 97/103/1 113/120/1 114/121/101
f 97/103/1 114/121/101 98/104/87
f 98/104/87 114/121/101 115/122/102
f 98/104/87 115/122/102 99/105/88
f 99/105/88 115/122/102 116/123/103
f 99/105/88 116/123/103 100/106/89
f 100/106/89 116/123/103 117/124/104
f 100/106/89 117/124/104 101/107/90
f 101/107/90 117/124/104 118/125/105
f 101/107/90 118/125/105 102/108/91
f 102/108/91 118/125/105 119/126/106
f 102/108/91 119/126/106 103/109/92
f 103/109/92 119/126/106 120/127/107
f 103/109/92 120/127/107 104/110/93
f 104/110/93 120/127/107 121/128/16
f 104/110/93 121/128/16 105/111/16
f 105/111/16 121/128/16 122/129/108
f 105/111/16 122/129/108 106/112/94
f 106/112/94 122/129/108 123/130/109
f 106/112/94 123/130/109 107/113/95
f 107/113/95 123/130/109 124/131/110
f 107/113/95 124/131/110 108/114/96
f 108/114/96 124/131/110 125/132/111
f 108/114/96 125/132/111 109/115/97
f 109/115/97 125/132/111 126/133/112
f 109/115/97 126/133/112 110/116/98
f 110/116/98 126/133/112 127/134/113
f 110/116/98 127/134/113 111/117/99
f 111/117/99 127/134/113 128/135/114
f 111/117/99 128/135/114 112/118/100
f 112/118/100 128/135/114 113/136/1
f 112/118/100 113/136/1 97/119/1
f 113/120/1 129/137/1 130/138/115
f 113/120/1 130/138/115 114/121/101
f 114/121/101 130/138/115 131/139/116
f 114/121/101 131/139/116 115/122/102
f 115/122/102 131/139/116 132/140/117
f 115/122/102 132/140/117 116/123/103
f 116/123/103 132/140/117 133/141/118
f 116/123/103 133/141/118 117/124/104
f 117/124/104 133/141/118 134/142/119
f 117/124/104 134/142/119 118/125/105
f 118/125/105 134/142/119 135/143/120
f 118/125/105 135/143/120 119/126/106
f 119/126/106 135/143/120 136/144/121
f 119/126/106 136/144/121 120/127/107
f 120/127/107 136/144/121 137/145/16
f 120/127/107 137/145/16 121/128/16
f 121/128/16 137/145/16 138/146/122
f 121/128/16 138/146/122 122/129/108
f 122/129/108 138/146/122 139/147/123
f 122/129/108 139/147/123 123/130/109
f 123/130/109 139/147/123 140/148/124
f 123/130/109 140/148/124 124/131/110
f 124/131/110 140/148/124 141/149/125
f 124/131/110 141/149/125 125/132/111
f 125/132/111 141/149/125 142/150/126
f 125/132/111 142/150/126 126/133/112
f 126/133/112 142/150/126 143/151/127
f 126/133/112 143/151/127 127/134/113
f 127/134/113 143/151/127 144/152/128
f 127/134/113 144/152/128 128/135/114
f 128/135/114 144/152/128 129/153/1
f 128/135/114 129/153/1 113/136/1
