# Procedurally generated by dev-env-utils/scripts/gen_mast_arm_curves.py
# cell 4 of 8 at (+3 along arm, +1 up)
mtllib mastarmcurve.mtl
o mastarm_6x2_c4
v 0.768750 1.000000 1.000000
v 0.768229 1.027392 0.916667
v 0.747811 1.125039 0.948312
v 0.748293 1.097568 1.032523
v 0.689667 1.207820 0.975139
v 0.690035 1.180283 1.060094
v 0.602647 1.263133 0.993064
v 0.602846 1.235551 1.078517
v 0.500000 1.282556 0.999359
v 0.500000 1.254959 1.084986
v 0.397353 1.263133 0.993064
v 0.397154 1.235551 1.078517
v 0.310333 1.207820 0.975139
v 0.309965 1.180283 1.060094
v 0.252189 1.125039 0.948312
v 0.251707 1.097568 1.032523
v 0.231771 1.027392 0.916667
v 0.231250 1.000000 1.000000
v 0.252189 0.929745 0.885022
v 0.251707 0.902432 0.967477
v 0.310333 0.846963 0.858194
v 0.309965 0.819717 0.939906
v 0.397353 0.791651 0.840269
v 0.397154 0.764449 0.921483
v 0.500000 0.772228 0.833974
v 0.500000 0.745041 0.915014
v 0.602647 0.791651 0.840269
v 0.602846 0.764449 0.921483
v 0.689667 0.846963 0.858194
v 0.690035 0.819717 0.939906
v 0.747811 0.929745 0.885022
v 0.748293 0.902432 0.967477
vt 0.250000 0.405210
vt 0.250000 0.449070
vt 0.281250 0.449070
vt 0.281250 0.405210
vt 0.312500 0.449070
vt 0.312500 0.405210
vt 0.343750 0.449070
vt 0.343750 0.405210
vt 0.375000 0.449070
vt 0.375000 0.405210
vt 0.406250 0.449070
vt 0.406250 0.405210
vt 0.437500 0.449070
vt 0.437500 0.405210
vt 0.468750 0.449070
vt 0.468750 0.405210
vt 0.500000 0.449070
vt 0.500000 0.405210
vt 0.531250 0.449070
vt 0.531250 0.405210
vt 0.562500 0.449070
vt 0.562500 0.405210
vt 0.593750 0.449070
vt 0.593750 0.405210
vt 0.625000 0.449070
vt 0.625000 0.405210
vt 0.656250 0.449070
vt 0.656250 0.405210
vt 0.687500 0.449070
vt 0.687500 0.405210
vt 0.718750 0.449070
vt 0.718750 0.405210
vt 0.750000 0.449070
vt 0.750000 0.405210
vn 1.000000 0.000000 0.000000
vn 0.923880 0.364044 0.117977
vn 0.923880 0.363045 0.121015
vn 0.707107 0.672665 0.217993
vn 0.707107 0.670820 0.223607
vn 0.382683 0.878880 0.284822
vn 0.382683 0.876469 0.292156
vn 0.000000 0.951293 0.308289
vn 0.000000 0.948683 0.316228
vn -0.382683 0.878880 0.284822
vn -0.382683 0.876469 0.292156
vn -0.707107 0.672665 0.217993
vn -0.707107 0.670820 0.223607
vn -0.923880 0.364044 0.117977
vn -0.923880 0.363045 0.121015
vn -1.000000 0.000000 0.000000
vn -0.923880 -0.364044 -0.117977
vn -0.923880 -0.363045 -0.121015
vn -0.707107 -0.672665 -0.217993
vn -0.707107 -0.670820 -0.223607
vn -0.382683 -0.878880 -0.284822
vn -0.382683 -0.876469 -0.292156
vn -0.000000 -0.951293 -0.308289
vn -0.000000 -0.948683 -0.316228
vn 0.382683 -0.878880 -0.284822
vn 0.382683 -0.876469 -0.292156
vn 0.707107 -0.672665 -0.217993
vn 0.707107 -0.670820 -0.223607
vn 0.923880 -0.364044 -0.117977
vn 0.923880 -0.363045 -0.121015
usemtl body
f 1/1/1 2/2/1 3/3/2
f 1/1/1 3/3/2 4/4/3
f 4/4/3 3/3/2 5/5/4
f 4/4/3 5/5/4 6/6/5
f 6/6/5 5/5/4 7/7/6
f 6/6/5 7/7/6 8/8/7
f 8/8/7 7/7/6 9/9/8
f 8/8/7 9/9/8 10/10/9
f 10/10/9 9/9/8 11/11/10
f 10/10/9 11/11/10 12/12/11
f 12/12/11 11/11/10 13/13/12
f 12/12/11 13/13/12 14/14/13
f 14/14/13 13/13/12 15/15/14
f 14/14/13 15/15/14 16/16/15
f 16/16/15 15/15/14 17/17/16
f 16/16/15 17/17/16 18/18/16
f 18/18/16 17/17/16 19/19/17
f 18/18/16 19/19/17 20/20/18
f 20/20/18 19/19/17 21/21/19
f 20/20/18 21/21/19 22/22/20
f 22/22/20 21/21/19 23/23/21
f 22/22/20 23/23/21 24/24/22
f 24/24/22 23/23/21 25/25/23
f 24/24/22 25/25/23 26/26/24
f 26/26/24 25/25/23 27/27/25
f 26/26/24 27/27/25 28/28/26
f 28/28/26 27/27/25 29/29/27
f 28/28/26 29/29/27 30/30/28
f 30/30/28 29/29/27 31/31/29
f 30/30/28 31/31/29 32/32/30
f 32/32/30 31/31/29 2/33/1
f 32/32/30 2/33/1 1/34/1
