# Procedurally generated by dev-env-utils/scripts/gen_mast_arm_curves.py
# mount hardware on cell 1, model-space east
mtllib mastarmcurve.mtl
o mastarm_4x1_c1_east
v 0.500000 0.655015 0.805893
v 0.500000 0.717515 0.629117
v 0.627344 0.741396 0.637560
v 0.627344 0.678896 0.814337
v 0.735301 0.809406 0.661605
v 0.735301 0.746906 0.838382
v 0.807436 0.911189 0.697591
v 0.807436 0.848689 0.874367
v 0.832767 1.031250 0.740039
v 0.832767 0.968750 0.916815
v 0.807436 1.151311 0.782487
v 0.807436 1.088811 0.959264
v 0.735301 1.253094 0.818473
v 0.735301 1.190594 0.995249
v 0.627344 1.321104 0.842517
v 0.627344 1.258604 1.019294
v 0.500000 1.344985 0.850961
v 0.500000 1.282485 1.027738
v 0.372656 1.321104 0.842517
v 0.372656 1.258604 1.019294
v 0.264699 1.253094 0.818473
v 0.264699 1.190594 0.995249
v 0.192564 1.151311 0.782487
v 0.192564 1.088811 0.959264
v 0.167233 1.031250 0.740039
v 0.167233 0.968750 0.916815
v 0.192564 0.911189 0.697591
v 0.192564 0.848689 0.874367
v 0.264699 0.809406 0.661605
v 0.264699 0.746906 0.838382
v 0.372656 0.741396 0.637560
v 0.372656 0.678896 0.814337
v 0.500000 0.968750 0.916815
v 0.500000 1.031250 0.740039
v 0.925000 0.300000 0.500000
v 0.999375 0.300000 0.500000
v 0.999375 0.358579 0.641421
v 0.925000 0.358579 0.641421
v 0.999375 0.500000 0.700000
v 0.925000 0.500000 0.700000
v 0.999375 0.641421 0.641421
v 0.925000 0.641421 0.641421
v 0.999375 0.700000 0.500000
v 0.925000 0.700000 0.500000
v 0.999375 0.641421 0.358579
v 0.925000 0.641421 0.358579
v 0.999375 0.500000 0.300000
v 0.925000 0.500000 0.300000
v 0.999375 0.358579 0.358579
v 0.925000 0.358579 0.358579
v 0.925000 0.500000 0.500000
v 0.999375 0.500000 0.500000
v 0.574574 0.785033 0.727742
v 0.846291 0.438317 0.500000
v 0.871000 0.428507 0.544415
v 0.599283 0.775224 0.772158
v 0.910179 0.437853 0.576929
v 0.638462 0.784570 0.804672
v 0.953329 0.463852 0.588830
v 0.681612 0.810569 0.816573
v 0.988888 0.499537 0.576929
v 0.717171 0.846253 0.804672
v 1.007329 0.535345 0.544415
v 0.735612 0.882062 0.772158
v 1.003709 0.561683 0.500000
v 0.731993 0.908400 0.727742
v 0.979000 0.571493 0.455585
v 0.707283 0.918210 0.683327
v 0.939821 0.562147 0.423071
v 0.668105 0.908863 0.650813
v 0.896671 0.536148 0.411170
v 0.624955 0.882865 0.638912
v 0.861112 0.500463 0.423071
v 0.589395 0.847180 0.650813
v 0.842671 0.464655 0.455585
v 0.570955 0.811371 0.683327
v 0.653283 0.846717 0.727742
vt 0.250000 0.750000
vt 0.250000 0.583617
vt 0.281250 0.583617
vt 0.281250 0.750000
vt 0.312500 0.583617
vt 0.312500 0.750000
vt 0.343750 0.583617
vt 0.343750 0.750000
vt 0.375000 0.583617
vt 0.375000 0.750000
vt 0.406250 0.583617
vt 0.406250 0.750000
vt 0.437500 0.583617
vt 0.437500 0.750000
vt 0.468750 0.583617
vt 0.468750 0.750000
vt 0.500000 0.583617
vt 0.500000 0.750000
vt 0.531250 0.583617
vt 0.531250 0.750000
vt 0.562500 0.583617
vt 0.562500 0.750000
vt 0.593750 0.583617
vt 0.593750 0.750000
vt 0.625000 0.583617
vt 0.625000 0.750000
vt 0.656250 0.583617
vt 0.656250 0.750000
vt 0.687500 0.583617
vt 0.687500 0.750000
vt 0.718750 0.583617
vt 0.718750 0.750000
vt 0.750000 0.583617
vt 0.750000 0.750000
vt 0.500000 0.500000
vt 0.400000 0.600000
vt 0.600000 0.400000
vt 0.250000 0.650000
vt 0.312500 0.650000
vt 0.375000 0.650000
vt 0.437500 0.650000
vt 0.500000 0.650000
vt 0.562500 0.650000
vt 0.625000 0.650000
vt 0.687500 0.650000
vt 0.750000 0.650000
vt 0.250000 0.700000
vt 0.291667 0.700000
vt 0.291667 0.750000
vt 0.333333 0.700000
vt 0.333333 0.750000
vt 0.375000 0.700000
vt 0.416667 0.700000
vt 0.416667 0.750000
vt 0.458333 0.700000
vt 0.458333 0.750000
vt 0.500000 0.700000
vt 0.541667 0.700000
vt 0.541667 0.750000
vt 0.583333 0.700000
vt 0.583333 0.750000
vt 0.625000 0.700000
vt 0.666667 0.700000
vt 0.666667 0.750000
vt 0.708333 0.700000
vt 0.708333 0.750000
vt 0.750000 0.700000
vn 0.000000 -0.942809 -0.333333
vn 0.382683 -0.871042 -0.307960
vn 0.707107 -0.666667 -0.235702
vn 0.923880 -0.360797 -0.127561
vn 1.000000 -0.000000 -0.000000
vn 0.923880 0.360797 0.127561
vn 0.707107 0.666667 0.235702
vn 0.382683 0.871042 0.307960
vn 0.000000 0.942809 0.333333
vn -0.382683 0.871042 0.307960
vn -0.707107 0.666667 0.235702
vn -0.923880 0.360797 0.127561
vn -1.000000 0.000000 0.000000
vn -0.923880 -0.360797 -0.127561
vn -0.707107 -0.666667 -0.235702
vn -0.382683 -0.871042 -0.307960
vn -0.000000 -0.333333 0.942809
vn 0.000000 0.333333 -0.942809
vn 0.000000 -1.000000 0.000000
vn 0.000000 -0.707107 0.707107
vn 0.000000 -0.000000 1.000000
vn -0.000000 0.707107 0.707107
vn -0.000000 1.000000 0.000000
vn 0.000000 0.707107 -0.707107
vn 0.000000 0.000000 -1.000000
vn 0.000000 -0.707107 -0.707107
vn -0.787094 -0.616834 0.000000
vn -0.540000 -0.714933 0.444152
vn -0.148214 -0.621467 0.769293
vn 0.283286 -0.361479 0.888303
vn 0.638879 -0.004633 0.769293
vn 0.823286 0.353454 0.444152
vn 0.787094 0.616834 0.000000
vn 0.540000 0.714933 -0.444152
vn 0.148214 0.621467 -0.769293
vn -0.283286 0.361479 -0.888303
vn -0.638879 0.004633 -0.769293
vn -0.823286 -0.353454 -0.444152
vn -0.547935 0.699178 0.459258
vn 0.547935 -0.699178 -0.459258
usemtl body
f 1/1/1 2/2/1 3/3/2
f 1/1/1 3/3/2 4/4/2
f 4/4/2 3/3/2 5/5/3
f 4/4/2 5/5/3 6/6/3
f 6/6/3 5/5/3 7/7/4
f 6/6/3 7/7/4 8/8/4
f 8/8/4 7/7/4 9/9/5
f 8/8/4 9/9/5 10/10/5
f 10/10/5 9/9/5 11/11/6
f 10/10/5 11/11/6 12/12/6
f 12/12/6 11/11/6 13/13/7
f 12/12/6 13/13/7 14/14/7
f 14/14/7 13/13/7 15/15/8
f 14/14/7 15/15/8 16/16/8
f 16/16/8 15/15/8 17/17/9
f 16/16/8 17/17/9 18/18/9
f 18/18/9 17/17/9 19/19/10
f 18/18/9 19/19/10 20/20/10
f 20/20/10 19/19/10 21/21/11
f 20/20/10 21/21/11 22/22/11
f 22/22/11 21/21/11 23/23/12
f 22/22/11 23/23/12 24/24/12
f 24/24/12 23/23/12 25/25/13
f 24/24/12 25/25/13 26/26/13
f 26/26/13 25/25/13 27/27/14
f 26/26/13 27/27/14 28/28/14
f 28/28/14 27/27/14 29/29/15
f 28/28/14 29/29/15 30/30/15
f 30/30/15 29/29/15 31/31/16
f 30/30/15 31/31/16 32/32/16
f 32/32/16 31/31/16 2/33/1
f 32/32/16 2/33/1 1/34/1
f 33/35/17 1/36/17 4/37/17
f 33/35/17 4/36/17 6/37/17
f 33/35/17 6/36/17 8/37/17
f 33/35/17 8/36/17 10/37/17
f 33/35/17 10/36/17 12/37/17
f 33/35/17 12/36/17 14/37/17
f 33/35/17 14/36/17 16/37/17
f 33/35/17 16/36/17 18/37/17
f 33/35/17 18/36/17 20/37/17
f 33/35/17 20/36/17 22/37/17
f 33/35/17 22/36/17 24/37/17
f 33/35/17 24/36/17 26/37/17
f 33/35/17 26/36/17 28/37/17
f 33/35/17 28/36/17 30/37/17
f 33/35/17 30/36/17 32/37/17
f 33/35/17 32/36/17 1/37/17
f 34/35/18 3/37/18 2/36/18
f 34/35/18 5/37/18 3/36/18
f 34/35/18 7/37/18 5/36/18
f 34/35/18 9/37/18 7/36/18
f 34/35/18 11/37/18 9/36/18
f 34/35/18 13/37/18 11/36/18
f 34/35/18 15/37/18 13/36/18
f 34/35/18 17/37/18 15/36/18
f 34/35/18 19/37/18 17/36/18
f 34/35/18 21/37/18 19/36/18
f 34/35/18 23/37/18 21/36/18
f 34/35/18 25/37/18 23/36/18
f 34/35/18 27/37/18 25/36/18
f 34/35/18 29/37/18 27/36/18
f 34/35/18 31/37/18 29/36/18
f 34/35/18 2/37/18 31/36/18
f 35/1/19 36/38/19 37/39/20
f 35/1/19 37/39/20 38/6/20
f 38/6/20 37/39/20 39/40/21
f 38/6/20 39/40/21 40/10/21
f 40/10/21 39/40/21 41/41/22
f 40/10/21 41/41/22 42/14/22
f 42/14/22 41/41/22 43/42/23
f 42/14/22 43/42/23 44/18/23
f 44/18/23 43/42/23 45/43/24
f 44/18/23 45/43/24 46/22/24
f 46/22/24 45/43/24 47/44/25
f 46/22/24 47/44/25 48/26/25
f 48/26/25 47/44/25 49/45/26
f 48/26/25 49/45/26 50/30/26
f 50/30/26 49/45/26 36/46/19
f 50/30/26 36/46/19 35/34/19
f 51/35/13 35/36/13 38/37/13
f 51/35/13 38/36/13 40/37/13
f 51/35/13 40/36/13 42/37/13
f 51/35/13 42/36/13 44/37/13
f 51/35/13 44/36/13 46/37/13
f 51/35/13 46/36/13 48/37/13
f 51/35/13 48/36/13 50/37/13
f 51/35/13 50/36/13 35/37/13
f 52/35/5 37/37/5 36/36/5
f 52/35/5 39/37/5 37/36/5
f 52/35/5 41/37/5 39/36/5
f 52/35/5 43/37/5 41/36/5
f 52/35/5 45/37/5 43/36/5
f 52/35/5 47/37/5 45/36/5
f 52/35/5 49/37/5 47/36/5
f 52/35/5 36/37/5 49/36/5
f 53/1/27 54/47/27 55/48/28
f 53/1/27 55/48/28 56/49/28
f 56/49/28 55/48/28 57/50/29
f 56/49/28 57/50/29 58/51/29
f 58/51/29 57/50/29 59/52/30
f 58/51/29 59/52/30 60/10/30
f 60/10/30 59/52/30 61/53/31
f 60/10/30 61/53/31 62/54/31
f 62/54/31 61/53/31 63/55/32
f 62/54/31 63/55/32 64/56/32
f 64/56/32 63/55/32 65/57/33
f 64/56/32 65/57/33 66/18/33
f 66/18/33 65/57/33 67/58/34
f 66/18/33 67/58/34 68/59/34
f 68/59/34 67/58/34 69/60/35
f 68/59/34 69/60/35 70/61/35
f 70/61/35 69/60/35 71/62/36
f 70/61/35 71/62/36 72/26/36
f 72/26/36 71/62/36 73/63/37
f 72/26/36 73/63/37 74/64/37
f 74/64/37 73/63/37 75/65/38
f 74/64/37 75/65/38 76/66/38
f 76/66/38 75/65/38 54/67/27
f 76/66/38 54/67/27 53/34/27
f 77/35/39 53/36/39 56/37/39
f 77/35/39 56/36/39 58/37/39
f 77/35/39 58/36/39 60/37/39
f 77/35/39 60/36/39 62/37/39
f 77/35/39 62/36/39 64/37/39
f 77/35/39 64/36/39 66/37/39
f 77/35/39 66/36/39 68/37/39
f 77/35/39 68/36/39 70/37/39
f 77/35/39 70/36/39 72/37/39
f 77/35/39 72/36/39 74/37/39
f 77/35/39 74/36/39 76/37/39
f 77/35/39 76/36/39 53/37/39
f 51/35/40 55/37/40 54/36/40
f 51/35/40 57/37/40 55/36/40
f 51/35/40 59/37/40 57/36/40
f 51/35/40 61/37/40 59/36/40
f 51/35/40 63/37/40 61/36/40
f 51/35/40 65/37/40 63/36/40
f 51/35/40 67/37/40 65/36/40
f 51/35/40 69/37/40 67/36/40
f 51/35/40 71/37/40 69/36/40
f 51/35/40 73/37/40 71/36/40
f 51/35/40 75/37/40 73/36/40
f 51/35/40 54/37/40 75/36/40
