# Procedurally generated by dev-env-utils/scripts/gen_mast_arm_curves.py
# mount hardware on cell 10, model-space west
mtllib mastarmcurve.mtl
o mastarm_10x2_c10_west
v 0.500000 0.138070 0.574903
v 0.500000 0.149300 0.387739
v 0.619349 0.172997 0.389161
v 0.619349 0.161767 0.576325
v 0.720529 0.240482 0.393210
v 0.720529 0.229252 0.580374
v 0.788135 0.341480 0.399270
v 0.788135 0.330250 0.586434
v 0.811875 0.460615 0.406418
v 0.811875 0.449385 0.593582
v 0.788135 0.579750 0.413566
v 0.788135 0.568520 0.600730
v 0.720529 0.680748 0.419626
v 0.720529 0.669518 0.606790
v 0.619349 0.748233 0.423675
v 0.619349 0.737003 0.610839
v 0.500000 0.771930 0.425097
v 0.500000 0.760700 0.612261
v 0.380651 0.748233 0.423675
v 0.380651 0.737003 0.610839
v 0.279471 0.680748 0.419626
v 0.279471 0.669518 0.606790
v 0.211865 0.579750 0.413566
v 0.211865 0.568520 0.600730
v 0.188125 0.460615 0.406418
v 0.188125 0.449385 0.593582
v 0.211865 0.341480 0.399270
v 0.211865 0.330250 0.586434
v 0.279471 0.240482 0.393210
v 0.279471 0.229252 0.580374
v 0.380651 0.172997 0.389161
v 0.380651 0.161767 0.576325
v 0.500000 0.449385 0.593582
v 0.500000 0.460615 0.406418
v 0.075000 0.700000 0.500000
v 0.000625 0.700000 0.500000
v 0.000625 0.641421 0.641421
v 0.075000 0.641421 0.641421
v 0.000625 0.500000 0.700000
v 0.075000 0.500000 0.700000
v 0.000625 0.358579 0.641421
v 0.075000 0.358579 0.641421
v 0.000625 0.300000 0.500000
v 0.075000 0.300000 0.500000
v 0.000625 0.358579 0.358579
v 0.075000 0.358579 0.358579
v 0.000625 0.500000 0.300000
v 0.075000 0.500000 0.300000
v 0.000625 0.641421 0.358579
v 0.075000 0.641421 0.358579
v 0.075000 0.500000 0.500000
v 0.000625 0.500000 0.500000
v 0.294911 0.573810 0.500000
v 0.087158 0.599258 0.500000
v 0.085529 0.585960 0.550000
v 0.293282 0.560512 0.550000
v 0.081079 0.549629 0.586603
v 0.288832 0.524181 0.586603
v 0.075000 0.500000 0.600000
v 0.282753 0.474552 0.600000
v 0.068921 0.450371 0.586603
v 0.276674 0.424923 0.586603
v 0.064471 0.414040 0.550000
v 0.272224 0.388592 0.550000
v 0.062842 0.400742 0.500000
v 0.270595 0.375294 0.500000
v 0.064471 0.414040 0.450000
v 0.272224 0.388592 0.450000
v 0.068921 0.450371 0.413397
v 0.276674 0.424923 0.413397
v 0.075000 0.500000 0.400000
v 0.282753 0.474552 0.400000
v 0.081079 0.549629 0.413397
v 0.288832 0.524181 0.413397
v 0.085529 0.585960 0.450000
v 0.293282 0.560512 0.450000
v 0.282753 0.474552 0.500000
vt 0.250000 0.750000
vt 0.250000 0.594062
vt 0.281250 0.594062
vt 0.281250 0.750000
vt 0.312500 0.594062
vt 0.312500 0.750000
vt 0.343750 0.594062
vt 0.343750 0.750000
vt 0.375000 0.594062
vt 0.375000 0.750000
vt 0.406250 0.594062
vt 0.406250 0.750000
vt 0.437500 0.594062
vt 0.437500 0.750000
vt 0.468750 0.594062
vt 0.468750 0.750000
vt 0.500000 0.594062
vt 0.500000 0.750000
vt 0.531250 0.594062
vt 0.531250 0.750000
vt 0.562500 0.594062
vt 0.562500 0.750000
vt 0.593750 0.594062
vt 0.593750 0.750000
vt 0.625000 0.594062
vt 0.625000 0.750000
vt 0.656250 0.594062
vt 0.656250 0.750000
vt 0.687500 0.594062
vt 0.687500 0.750000
vt 0.718750 0.594062
vt 0.718750 0.750000
vt 0.750000 0.594062
vt 0.750000 0.750000
vt 0.500000 0.500000
vt 0.400000 0.600000
vt 0.600000 0.400000
vt 0.250000 0.650000
vt 0.312500 0.650000
vt 0.375000 0.650000
vt 0.437500 0.650000
vt 0.500000 0.650000
vt 0.562500 0.650000
vt 0.625000 0.650000
vt 0.687500 0.650000
vt 0.750000 0.650000
vt 0.250000 0.700000
vt 0.291667 0.700000
vt 0.291667 0.750000
vt 0.333333 0.700000
vt 0.333333 0.750000
vt 0.375000 0.700000
vt 0.416667 0.700000
vt 0.416667 0.750000
vt 0.458333 0.700000
vt 0.458333 0.750000
vt 0.500000 0.700000
vt 0.541667 0.700000
vt 0.541667 0.750000
vt 0.583333 0.700000
vt 0.583333 0.750000
vt 0.625000 0.700000
vt 0.666667 0.700000
vt 0.666667 0.750000
vt 0.708333 0.700000
vt 0.708333 0.750000
vt 0.750000 0.700000
vn 0.000000 -0.998205 -0.059892
vn 0.382683 -0.922221 -0.055333
vn 0.707107 -0.705837 -0.042350
vn 0.923880 -0.381996 -0.022920
vn 1.000000 -0.000000 -0.000000
vn 0.923880 0.381996 0.022920
vn 0.707107 0.705837 0.042350
vn 0.382683 0.922221 0.055333
vn 0.000000 0.998205 0.059892
vn -0.382683 0.922221 0.055333
vn -0.707107 0.705837 0.042350
vn -0.923880 0.381996 0.022920
vn -1.000000 0.000000 0.000000
vn -0.923880 -0.381996 -0.022920
vn -0.707107 -0.705837 -0.042350
vn -0.382683 -0.922221 -0.055333
vn -0.000000 -0.059892 0.998205
vn 0.000000 0.059892 -0.998205
vn 0.000000 1.000000 0.000000
vn 0.000000 0.707107 0.707107
vn 0.000000 0.000000 1.000000
vn 0.000000 -0.707107 0.707107
vn 0.000000 -1.000000 0.000000
vn -0.000000 -0.707107 -0.707107
vn -0.000000 -0.000000 -1.000000
vn 0.000000 0.707107 -0.707107
vn 0.121582 0.992581 0.000000
vn 0.105293 0.859601 0.500000
vn 0.060791 0.496291 0.866025
vn -0.060791 -0.496291 0.866025
vn -0.105293 -0.859601 0.500000
vn -0.121582 -0.992581 0.000000
vn -0.105293 -0.859601 -0.500000
vn -0.060791 -0.496291 -0.866025
vn 0.060791 0.496291 -0.866025
vn 0.105293 0.859601 -0.500000
vn 0.992581 -0.121582 -0.000000
vn -0.992581 0.121582 0.000000
usemtl body
f 1/1/1 2/2/1 3/3/2
f 1/1/1 3/3/2 4/4/2
f 4/4/2 3/3/2 5/5/3
f 4/4/2 5/5/3 6/6/3
f 6/6/3 5/5/3 7/7/4
f 6/6/3 7/7/4 8/8/4
f 8/8/4 7/7/4 9/9/5
f 8/8/4 9/9/5 10/10/5
f 10/10/5 9/9/5 11/11/6
f 10/10/5 11/11/6 12/12/6
f 12/12/6 11/11/6 13/13/7
f 12/12/6 13/13/7 14/14/7
f 14/14/7 13/13/7 15/15/8
f 14/14/7 15/15/8 16/16/8
f 16/16/8 15/15/8 17/17/9
f 16/16/8 17/17/9 18/18/9
f 18/18/9 17/17/9 19/19/10
f 18/18/9 19/19/10 20/20/10
f 20/20/10 19/19/10 21/21/11
f 20/20/10 21/21/11 22/22/11
f 22/22/11 21/21/11 23/23/12
f 22/22/11 23/23/12 24/24/12
f 24/24/12 23/23/12 25/25/13
f 24/24/12 25/25/13 26/26/13
f 26/26/13 25/25/13 27/27/14
f 26/26/13 27/27/14 28/28/14
f 28/28/14 27/27/14 29/29/15
f 28/28/14 29/29/15 30/30/15
f 30/30/15 29/29/15 31/31/16
f 30/30/15 31/31/16 32/32/16
f 32/32/16 31/31/16 2/33/1
f 32/32/16 2/33/1 1/34/1
f 33/35/17 1/36/17 4/37/17
f 33/35/17 4/36/17 6/37/17
f 33/35/17 6/36/17 8/37/17
f 33/35/17 8/36/17 10/37/17
f 33/35/17 10/36/17 12/37/17
f 33/35/17 12/36/17 14/37/17
f 33/35/17 14/36/17 16/37/17
f 33/35/17 16/36/17 18/37/17
f 33/35/17 18/36/17 20/37/17
f 33/35/17 20/36/17 22/37/17
f 33/35/17 22/36/17 24/37/17
f 33/35/17 24/36/17 26/37/17
f 33/35/17 26/36/17 28/37/17
f 33/35/17 28/36/17 30/37/17
f 33/35/17 30/36/17 32/37/17
f 33/35/17 32/36/17 1/37/17
f 34/35/18 3/37/18 2/36/18
f 34/35/18 5/37/18 3/36/18
f 34/35/18 7/37/18 5/36/18
f 34/35/18 9/37/18 7/36/18
f 34/35/18 11/37/18 9/36/18
f 34/35/18 13/37/18 11/36/18
f 34/35/18 15/37/18 13/36/18
f 34/35/18 17/37/18 15/36/18
f 34/35/18 19/37/18 17/36/18
f 34/35/18 21/37/18 19/36/18
f 34/35/18 23/37/18 21/36/18
f 34/35/18 25/37/18 23/36/18
f 34/35/18 27/37/18 25/36/18
f 34/35/18 29/37/18 27/36/18
f 34/35/18 31/37/18 29/36/18
f 34/35/18 2/37/18 31/36/18
f 35/1/19 36/38/19 37/39/20
f 35/1/19 37/39/20 38/6/20
f 38/6/20 37/39/20 39/40/21
f 38/6/20 39/40/21 40/10/21
f 40/10/21 39/40/21 41/41/22
f 40/10/21 41/41/22 42/14/22
f 42/14/22 41/41/22 43/42/23
f 42/14/22 43/42/23 44/18/23
f 44/18/23 43/42/23 45/43/24
f 44/18/23 45/43/24 46/22/24
f 46/22/24 45/43/24 47/44/25
f 46/22/24 47/44/25 48/26/25
f 48/26/25 47/44/25 49/45/26
f 48/26/25 49/45/26 50/30/26
f 50/30/26 49/45/26 36/46/19
f 50/30/26 36/46/19 35/34/19
f 51/35/5 35/36/5 38/37/5
f 51/35/5 38/36/5 40/37/5
f 51/35/5 40/36/5 42/37/5
f 51/35/5 42/36/5 44/37/5
f 51/35/5 44/36/5 46/37/5
f 51/35/5 46/36/5 48/37/5
f 51/35/5 48/36/5 50/37/5
f 51/35/5 50/36/5 35/37/5
f 52/35/13 37/37/13 36/36/13
f 52/35/13 39/37/13 37/36/13
f 52/35/13 41/37/13 39/36/13
f 52/35/13 43/37/13 41/36/13
f 52/35/13 45/37/13 43/36/13
f 52/35/13 47/37/13 45/36/13
f 52/35/13 49/37/13 47/36/13
f 52/35/13 36/37/13 49/36/13
f 53/1/27 54/47/27 55/48/28
f 53/1/27 55/48/28 56/49/28
f 56/49/28 55/48/28 57/50/29
f 56/49/28 57/50/29 58/51/29
f 58/51/29 57/50/29 59/52/21
f 58/51/29 59/52/21 60/10/21
f 60/10/21 59/52/21 61/53/30
f 60/10/21 61/53/30 62/54/30
f 62/54/30 61/53/30 63/55/31
f 62/54/30 63/55/31 64/56/31
f 64/56/31 63/55/31 65/57/32
f 64/56/31 65/57/32 66/18/32
f 66/18/32 65/57/32 67/58/33
f 66/18/32 67/58/33 68/59/33
f 68/59/33 67/58/33 69/60/34
f 68/59/33 69/60/34 70/61/34
f 70/61/34 69/60/34 71/62/25
f 70/61/34 71/62/25 72/26/25
f 72/26/25 71/62/25 73/63/35
f 72/26/25 73/63/35 74/64/35
f 74/64/35 73/63/35 75/65/36
f 74/64/35 75/65/36 76/66/36
f 76/66/36 75/65/36 54/67/27
f 76/66/36 54/67/27 53/34/27
f 77/35/37 53/36/37 56/37/37
f 77/35/37 56/36/37 58/37/37
f 77/35/37 58/36/37 60/37/37
f 77/35/37 60/36/37 62/37/37
f 77/35/37 62/36/37 64/37/37
f 77/35/37 64/36/37 66/37/37
f 77/35/37 66/36/37 68/37/37
f 77/35/37 68/36/37 70/37/37
f 77/35/37 70/36/37 72/37/37
f 77/35/37 72/36/37 74/37/37
f 77/35/37 74/36/37 76/37/37
f 77/35/37 76/36/37 53/37/37
f 51/35/38 55/37/38 54/36/38
f 51/35/38 57/37/38 55/36/38
f 51/35/38 59/37/38 57/36/38
f 51/35/38 61/37/38 59/36/38
f 51/35/38 63/37/38 61/36/38
f 51/35/38 65/37/38 63/36/38
f 51/35/38 67/37/38 65/36/38
f 51/35/38 69/37/38 67/36/38
f 51/35/38 71/37/38 69/36/38
f 51/35/38 73/37/38 71/36/38
f 51/35/38 75/37/38 73/36/38
f 51/35/38 54/37/38 75/36/38
