# Procedurally generated by dev-env-utils/scripts/gen_mast_arm_curves.py
# cell 0 of 8 at (+0 along arm, +0 up)
mtllib mastarmcurve.mtl
o mastarm_6x2_c0
v 0.500000 0.359525 1.203765
v 0.814347 0.298133 1.295523
v 0.789832 0.467482 1.262046
v 0.721296 0.634155 1.197257
v 0.618938 0.748849 1.144362
v 0.500000 0.786059 1.125000
v 0.381062 0.748849 1.144362
v 0.278704 0.634155 1.197257
v 0.210168 0.467482 1.262046
v 0.185653 0.298133 1.295523
v 0.209369 0.173880 1.263022
v 0.277589 0.094822 1.198076
v 0.379666 0.048996 1.144831
v 0.500000 0.033714 1.125000
v 0.620334 0.048996 1.144831
v 0.722411 0.094822 1.198076
v 0.790631 0.173880 1.263022
v 0.803385 0.555170 0.916667
v 0.780291 0.652184 0.980444
v 0.714525 0.734428 1.034512
v 0.616100 0.789382 1.070639
v 0.500000 0.808679 1.083326
v 0.383900 0.789382 1.070639
v 0.285475 0.734428 1.034512
v 0.219709 0.652184 0.980444
v 0.196615 0.555170 0.916667
v 0.219709 0.458156 0.852889
v 0.285475 0.375912 0.798821
v 0.383900 0.320958 0.762694
v 0.500000 0.301660 0.750008
v 0.616100 0.320958 0.762694
v 0.714525 0.375912 0.798821
v 0.780291 0.458156 0.852889
v 0.795704 0.609568 0.833333
v 0.773195 0.704527 0.894881
v 0.709094 0.785030 0.947059
v 0.613161 0.838820 0.981923
v 0.500000 0.857709 0.994165
v 0.386839 0.838820 0.981923
v 0.290906 0.785030 0.947059
v 0.226805 0.704527 0.894881
v 0.204296 0.609568 0.833333
v 0.226805 0.514608 0.771786
v 0.290906 0.434106 0.719608
v 0.386839 0.380315 0.684744
v 0.500000 0.361427 0.672501
v 0.613161 0.380315 0.684744
v 0.709094 0.434106 0.719608
v 0.773195 0.514608 0.771786
v 0.789688 0.663194 0.750000
v 0.767637 0.756615 0.809685
v 0.704840 0.835813 0.860284
v 0.610859 0.888731 0.894093
v 0.500000 0.907313 0.905965
v 0.389141 0.888731 0.894093
v 0.295160 0.835813 0.860284
v 0.232363 0.756615 0.809685
v 0.210312 0.663194 0.750000
v 0.232363 0.569774 0.690315
v 0.295160 0.490576 0.639716
v 0.389141 0.437658 0.605907
v 0.500000 0.419075 0.594035
v 0.610859 0.437658 0.605907
v 0.704840 0.490576 0.639716
v 0.767637 0.569774 0.690315
v 0.785805 0.716049 0.666667
v 0.764050 0.808604 0.724942
v 0.702095 0.887069 0.774345
v 0.609373 0.939497 0.807356
v 0.500000 0.957907 0.818947
v 0.390627 0.939497 0.807356
v 0.297905 0.887069 0.774345
v 0.235950 0.808604 0.724942
v 0.214195 0.716049 0.666667
v 0.235950 0.623494 0.608391
v 0.297905 0.545030 0.558988
v 0.390627 0.492602 0.525978
v 0.500000 0.474192 0.514386
v 0.609373 0.492602 0.525978
v 0.702095 0.545030 0.558988
v 0.764050 0.623494 0.608391
v 0.784896 0.768133 0.583333
v 0.763209 0.860778 0.640808
v 0.701452 0.939319 0.689532
v 0.609025 0.991798 0.722089
v 0.500000 1.010226 0.733521
v 0.390975 0.991798 0.722089
v 0.298548 0.939319 0.689532
v 0.236791 0.860778 0.640808
v 0.215104 0.768133 0.583333
v 0.236791 0.675488 0.525859
v 0.298548 0.596947 0.477135
v 0.390975 0.544467 0.444578
v 0.500000 0.526039 0.433146
v 0.609025 0.544467 0.444578
v 0.701452 0.596947 0.477135
v 0.763209 0.675488 0.525859
v 0.784375 0.819444 0.500000
v 0.762728 0.912303 0.556747
v 0.701083 0.991025 0.604855
v 0.608826 1.043626 0.637000
v 0.500000 1.062096 0.648287
v 0.391174 1.043626 0.637000
v 0.298917 0.991025 0.604855
v 0.237272 0.912303 0.556747
v 0.215625 0.819444 0.500000
v 0.237272 0.726586 0.443253
v 0.298917 0.647864 0.395145
v 0.391174 0.595263 0.363000
v 0.500000 0.576792 0.351713
v 0.608826 0.595263 0.363000
v 0.701083 0.647864 0.395145
v 0.762728 0.726586 0.443253
v 0.783854 0.869985 0.416667
v 0.762247 0.963055 0.472681
v 0.700715 1.041956 0.520168
v 0.608626 1.094676 0.551897
v 0.500000 1.113189 0.563039
v 0.391374 1.094676 0.551897
v 0.299285 1.041956 0.520168
v 0.237753 0.963055 0.472681
v 0.216146 0.869985 0.416667
v 0.237753 0.776914 0.360652
v 0.299285 0.698013 0.313165
v 0.391374 0.645293 0.281436
v 0.500000 0.626781 0.270294
v 0.608626 0.645293 0.281436
v 0.700715 0.698013 0.313165
v 0.762247 0.776914 0.360652
v 0.783333 0.919753 0.333333
v 0.761766 1.013032 0.388610
v 0.700347 1.092110 0.435471
v 0.608427 1.144948 0.466782
v 0.500000 1.163502 0.477777
v 0.391573 1.144948 0.466782
v 0.299653 1.092110 0.435471
v 0.238234 1.013032 0.388610
v 0.216667 0.919753 0.333333
v 0.238234 0.826474 0.278057
v 0.299653 0.747396 0.231196
v 0.391573 0.694558 0.199884
v 0.500000 0.676004 0.188889
v 0.608427 0.694558 0.199884
v 0.700347 0.747396 0.231196
v 0.761766 0.826474 0.278057
v 0.782812 0.968750 0.250000
v 0.761285 1.062235 0.304533
v 0.699979 1.141487 0.350763
v 0.608228 1.194442 0.381654
v 0.500000 1.213037 0.392501
v 0.391772 1.194442 0.381654
v 0.300021 1.141487 0.350763
v 0.238715 1.062235 0.304533
v 0.217188 0.968750 0.250000
v 0.238715 0.875265 0.195467
v 0.300021 0.796013 0.149237
v 0.391772 0.743058 0.118346
v 0.500000 0.724463 0.107499
v 0.608228 0.743058 0.118346
v 0.699979 0.796013 0.149237
v 0.761285 0.875265 0.195467
v 0.782476 1.000000 0.196152
v 0.760974 1.093616 0.250202
v 0.699741 1.172980 0.296023
v 0.608099 1.226010 0.326639
v 0.500000 1.244631 0.337390
v 0.391901 1.226010 0.326639
v 0.300259 1.172980 0.296023
v 0.239026 1.093616 0.250202
v 0.217524 1.000000 0.196152
v 0.239026 0.906384 0.142103
v 0.300259 0.827020 0.096282
v 0.391901 0.773990 0.065666
v 0.500000 0.755369 0.054914
v 0.608099 0.773990 0.065666
v 0.699741 0.827020 0.096282
v 0.760974 0.906384 0.142103
vt 0.500000 0.500000
vt 0.700000 0.500000
vt 0.684776 0.423463
vt 0.641421 0.358579
vt 0.576537 0.315224
vt 0.500000 0.300000
vt 0.423463 0.315224
vt 0.358579 0.358579
vt 0.315224 0.423463
vt 0.300000 0.500000
vt 0.315224 0.576537
vt 0.358579 0.641421
vt 0.423463 0.684776
vt 0.500000 0.700000
vt 0.576537 0.684776
vt 0.641421 0.641421
vt 0.684776 0.576537
vt 0.250000 0.750000
vt 0.250000 0.726836
vt 0.281250 0.726836
vt 0.281250 0.750000
vt 0.312500 0.726836
vt 0.312500 0.750000
vt 0.343750 0.726836
vt 0.343750 0.750000
vt 0.375000 0.726836
vt 0.375000 0.750000
vt 0.406250 0.726836
vt 0.406250 0.750000
vt 0.437500 0.726836
vt 0.437500 0.750000
vt 0.468750 0.726836
vt 0.468750 0.750000
vt 0.500000 0.726836
vt 0.500000 0.750000
vt 0.531250 0.726836
vt 0.531250 0.750000
vt 0.562500 0.726836
vt 0.562500 0.750000
vt 0.593750 0.726836
vt 0.593750 0.750000
vt 0.625000 0.726836
vt 0.625000 0.750000
vt 0.656250 0.726836
vt 0.656250 0.750000
vt 0.687500 0.726836
vt 0.687500 0.750000
vt 0.718750 0.726836
vt 0.718750 0.750000
vt 0.750000 0.726836
vt 0.750000 0.750000
vt 0.250000 0.677077
vt 0.281250 0.677077
vt 0.312500 0.677077
vt 0.343750 0.677077
vt 0.375000 0.677077
vt 0.406250 0.677077
vt 0.437500 0.677077
vt 0.468750 0.677077
vt 0.500000 0.677077
vt 0.531250 0.677077
vt 0.562500 0.677077
vt 0.593750 0.677077
vt 0.625000 0.677077
vt 0.656250 0.677077
vt 0.687500 0.677077
vt 0.718750 0.677077
vt 0.750000 0.677077
vt 0.250000 0.627529
vt 0.281250 0.627529
vt 0.312500 0.627529
vt 0.343750 0.627529
vt 0.375000 0.627529
vt 0.406250 0.627529
vt 0.437500 0.627529
vt 0.468750 0.627529
vt 0.500000 0.627529
vt 0.531250 0.627529
vt 0.562500 0.627529
vt 0.593750 0.627529
vt 0.625000 0.627529
vt 0.656250 0.627529
vt 0.687500 0.627529
vt 0.718750 0.627529
vt 0.750000 0.627529
vt 0.250000 0.578188
vt 0.281250 0.578188
vt 0.312500 0.578188
vt 0.343750 0.578188
vt 0.375000 0.578188
vt 0.406250 0.578188
vt 0.437500 0.578188
vt 0.468750 0.578188
vt 0.500000 0.578188
vt 0.531250 0.578188
vt 0.562500 0.578188
vt 0.593750 0.578188
vt 0.625000 0.578188
vt 0.656250 0.578188
vt 0.687500 0.578188
vt 0.718750 0.578188
vt 0.750000 0.578188
vt 0.250000 0.529052
vt 0.281250 0.529052
vt 0.312500 0.529052
vt 0.343750 0.529052
vt 0.375000 0.529052
vt 0.406250 0.529052
vt 0.437500 0.529052
vt 0.468750 0.529052
vt 0.500000 0.529052
vt 0.531250 0.529052
vt 0.562500 0.529052
vt 0.593750 0.529052
vt 0.625000 0.529052
vt 0.656250 0.529052
vt 0.687500 0.529052
vt 0.718750 0.529052
vt 0.750000 0.529052
vt 0.250000 0.480120
vt 0.281250 0.480120
vt 0.312500 0.480120
vt 0.343750 0.480120
vt 0.375000 0.480120
vt 0.406250 0.480120
vt 0.437500 0.480120
vt 0.468750 0.480120
vt 0.500000 0.480120
vt 0.531250 0.480120
vt 0.562500 0.480120
vt 0.593750 0.480120
vt 0.625000 0.480120
vt 0.656250 0.480120
vt 0.687500 0.480120
vt 0.718750 0.480120
vt 0.750000 0.480120
vt 0.250000 0.431390
vt 0.281250 0.431390
vt 0.312500 0.431390
vt 0.343750 0.431390
vt 0.375000 0.431390
vt 0.406250 0.431390
vt 0.437500 0.431390
vt 0.468750 0.431390
vt 0.500000 0.431390
vt 0.531250 0.431390
vt 0.562500 0.431390
vt 0.593750 0.431390
vt 0.625000 0.431390
vt 0.656250 0.431390
vt 0.687500 0.431390
vt 0.718750 0.431390
vt 0.750000 0.431390
vt 0.250000 0.382858
vt 0.281250 0.382858
vt 0.312500 0.382858
vt 0.343750 0.382858
vt 0.375000 0.382858
vt 0.406250 0.382858
vt 0.437500 0.382858
vt 0.468750 0.382858
vt 0.500000 0.382858
vt 0.531250 0.382858
vt 0.562500 0.382858
vt 0.593750 0.382858
vt 0.625000 0.382858
vt 0.656250 0.382858
vt 0.687500 0.382858
vt 0.718750 0.382858
vt 0.750000 0.382858
vt 0.250000 0.334523
vt 0.281250 0.334523
vt 0.312500 0.334523
vt 0.343750 0.334523
vt 0.375000 0.334523
vt 0.406250 0.334523
vt 0.437500 0.334523
vt 0.468750 0.334523
vt 0.500000 0.334523
vt 0.531250 0.334523
vt 0.562500 0.334523
vt 0.593750 0.334523
vt 0.625000 0.334523
vt 0.656250 0.334523
vt 0.687500 0.334523
vt 0.718750 0.334523
vt 0.750000 0.334523
vt 0.250000 0.303393
vt 0.281250 0.303393
vt 0.312500 0.303393
vt 0.343750 0.303393
vt 0.375000 0.303393
vt 0.406250 0.303393
vt 0.437500 0.303393
vt 0.468750 0.303393
vt 0.500000 0.303393
vt 0.531250 0.303393
vt 0.562500 0.303393
vt 0.593750 0.303393
vt 0.625000 0.303393
vt 0.656250 0.303393
vt 0.687500 0.303393
vt 0.718750 0.303393
vt 0.750000 0.303393
vn 0.000000 0.000000 1.000000
vn 1.000000 0.000000 0.000000
vn 0.923880 0.319772 0.210220
vn 0.923880 0.315241 0.216955
vn 0.707107 0.590861 0.388437
vn 0.707107 0.586131 0.395539
vn 0.382683 0.771997 0.507517
vn 0.382683 0.769292 0.511609
vn 0.000000 0.835604 0.549332
vn 0.000000 0.833955 0.551832
vn -0.382683 0.771997 0.507517
vn -0.382683 0.769292 0.511609
vn -0.707107 0.590861 0.388437
vn -0.707107 0.586131 0.395539
vn -0.923880 0.319772 0.210220
vn -0.923880 0.315241 0.216955
vn -1.000000 0.000000 0.000000
vn -0.923880 -0.319772 -0.210220
vn -0.923880 -0.312978 -0.220208
vn -0.707107 -0.590861 -0.388437
vn -0.707107 -0.578499 -0.406619
vn -0.382683 -0.771997 -0.507517
vn -0.382683 -0.756412 -0.530466
vn -0.000000 -0.835604 -0.549332
vn -0.000000 -0.819001 -0.573792
vn 0.382683 -0.771997 -0.507517
vn 0.382683 -0.756412 -0.530466
vn 0.707107 -0.590861 -0.388437
vn 0.707107 -0.578499 -0.406619
vn 0.923880 -0.319772 -0.210220
vn 0.923880 -0.312978 -0.220208
vn 0.923880 0.321130 0.208140
vn 0.707107 0.593371 0.384592
vn 0.382683 0.775276 0.502494
vn 0.000000 0.839153 0.543895
vn -0.382683 0.775276 0.502494
vn -0.707107 0.593371 0.384592
vn -0.923880 0.321130 0.208140
vn -0.923880 -0.321130 -0.208140
vn -0.707107 -0.593371 -0.384592
vn -0.382683 -0.775276 -0.502494
vn -0.000000 -0.839153 -0.543895
vn 0.382683 -0.775276 -0.502494
vn 0.707107 -0.593371 -0.384592
vn 0.923880 -0.321130 -0.208140
vn 0.923880 0.322486 0.206033
vn 0.707107 0.595876 0.380699
vn 0.382683 0.778550 0.497407
vn 0.000000 0.842696 0.538389
vn -0.382683 0.778550 0.497407
vn -0.707107 0.595876 0.380699
vn -0.923880 0.322486 0.206033
vn -0.923880 -0.322486 -0.206033
vn -0.707107 -0.595876 -0.380699
vn -0.382683 -0.778550 -0.497407
vn -0.000000 -0.842696 -0.538389
vn 0.382683 -0.778550 -0.497407
vn 0.707107 -0.595876 -0.380699
vn 0.923880 -0.322486 -0.206033
vn 0.923880 0.323839 0.203899
vn 0.707107 0.598377 0.376756
vn 0.382683 0.781817 0.492255
vn 0.000000 0.846233 0.532813
vn -0.382683 0.781817 0.492255
vn -0.707107 0.598377 0.376756
vn -0.923880 0.323839 0.203899
vn -0.923880 -0.323839 -0.203899
vn -0.707107 -0.598377 -0.376756
vn -0.382683 -0.781817 -0.492255
vn -0.000000 -0.846233 -0.532813
vn 0.382683 -0.781817 -0.492255
vn 0.707107 -0.598377 -0.376756
vn 0.923880 -0.323839 -0.203899
vn 0.923880 0.325190 0.201738
vn 0.707107 0.600872 0.372763
vn 0.382683 0.785077 0.487039
vn 0.000000 0.849762 0.527167
vn -0.382683 0.785077 0.487039
vn -0.707107 0.600872 0.372763
vn -0.923880 0.325190 0.201738
vn -0.923880 -0.325190 -0.201738
vn -0.707107 -0.600872 -0.372763
vn -0.382683 -0.785077 -0.487039
vn -0.000000 -0.849762 -0.527167
vn 0.382683 -0.785077 -0.487039
vn 0.707107 -0.600872 -0.372763
vn 0.923880 -0.325190 -0.201738
vn 0.923880 0.326537 0.199550
vn 0.707107 0.603361 0.368721
vn 0.382683 0.788330 0.481757
vn 0.000000 0.853282 0.521450
vn -0.382683 0.788330 0.481757
vn -0.707107 0.603361 0.368721
vn -0.923880 0.326537 0.199550
vn -0.923880 -0.326537 -0.199550
vn -0.707107 -0.603361 -0.368721
vn -0.382683 -0.788330 -0.481757
vn -0.000000 -0.853282 -0.521450
vn 0.382683 -0.788330 -0.481757
vn 0.707107 -0.603361 -0.368721
vn 0.923880 -0.326537 -0.199550
vn 0.923880 0.327880 0.197335
vn 0.707107 0.605844 0.364628
vn 0.382683 0.791573 0.476410
vn 0.000000 0.856792 0.515662
vn -0.382683 0.791573 0.476410
vn -0.707107 0.605844 0.364628
vn -0.923880 0.327880 0.197335
vn -0.923880 -0.327880 -0.197335
vn -0.707107 -0.605844 -0.364628
vn -0.382683 -0.791573 -0.476410
vn -0.000000 -0.856792 -0.515662
vn 0.382683 -0.791573 -0.476410
vn 0.707107 -0.605844 -0.364628
vn 0.923880 -0.327880 -0.197335
vn 0.923880 0.329219 0.195093
vn 0.707107 0.608318 0.360485
vn 0.382683 0.794806 0.470996
vn 0.000000 0.860292 0.509802
vn -0.382683 0.794806 0.470996
vn -0.707107 0.608318 0.360485
vn -0.923880 0.329219 0.195093
vn -0.923880 -0.329219 -0.195093
vn -0.707107 -0.608318 -0.360485
vn -0.382683 -0.794806 -0.470996
vn -0.000000 -0.860292 -0.509802
vn 0.382683 -0.794806 -0.470996
vn 0.707107 -0.608318 -0.360485
vn 0.923880 -0.329219 -0.195093
vn 0.923880 0.330554 0.192823
vn 0.707107 0.610784 0.356291
vn 0.382683 0.798028 0.465516
vn 0.000000 0.863779 0.503871
vn -0.382683 0.798028 0.465516
vn -0.707107 0.610784 0.356291
vn -0.923880 0.330554 0.192823
vn -0.923880 -0.330554 -0.192823
vn -0.707107 -0.610784 -0.356291
vn -0.382683 -0.798028 -0.465516
vn -0.000000 -0.863779 -0.503871
vn 0.382683 -0.798028 -0.465516
vn 0.707107 -0.610784 -0.356291
vn 0.923880 -0.330554 -0.192823
vn 0.923880 0.331414 0.191342
vn 0.707107 0.612372 0.353553
vn 0.382683 0.800103 0.461940
vn 0.000000 0.866025 0.500000
vn -0.382683 0.800103 0.461940
vn -0.707107 0.612372 0.353553
vn -0.923880 0.331414 0.191342
vn -0.923880 -0.331414 -0.191342
vn -0.707107 -0.612372 -0.353553
vn -0.382683 -0.800103 -0.461940
vn -0.000000 -0.866025 -0.500000
vn 0.382683 -0.800103 -0.461940
vn 0.707107 -0.612372 -0.353553
vn 0.923880 -0.331414 -0.191342
usemtl body
f 1/1/1 2/2/1 3/3/1
f 1/1/1 3/3/1 4/4/1
f 1/1/1 4/4/1 5/5/1
f 1/1/1 5/5/1 6/6/1
f 1/1/1 6/6/1 7/7/1
f 1/1/1 7/7/1 8/8/1
f 1/1/1 8/8/1 9/9/1
f 1/1/1 9/9/1 10/10/1
f 1/1/1 10/10/1 11/11/1
f 1/1/1 11/11/1 12/12/1
f 1/1/1 12/12/1 13/13/1
f 1/1/1 13/13/1 14/14/1
f 1/1/1 14/14/1 15/15/1
f 1/1/1 15/15/1 16/16/1
f 1/1/1 16/16/1 17/17/1
f 1/1/1 17/17/1 2/2/1
f 2/18/2 18/19/2 19/20/3
f 2/18/2 19/20/3 3/21/4
f 3/21/4 19/20/3 20/22/5
f 3/21/4 20/22/5 4/23/6
f 4/23/6 20/22/5 21/24/7
f 4/23/6 21/24/7 5/25/8
f 5/25/8 21/24/7 22/26/9
f 5/25/8 22/26/9 6/27/10
f 6/27/10 22/26/9 23/28/11
f 6/27/10 23/28/11 7/29/12
f 7/29/12 23/28/11 24/30/13
f 7/29/12 24/30/13 8/31/14
f 8/31/14 24/30/13 25/32/15
f 8/31/14 25/32/15 9/33/16
f 9/33/16 25/32/15 26/34/17
f 9/33/16 26/34/17 10/35/17
f 10/35/17 26/34/17 27/36/18
f 10/35/17 27/36/18 11/37/19
f 11/37/19 27/36/18 28/38/20
f 11/37/19 28/38/20 12/39/21
f 12/39/21 28/38/20 29/40/22
f 12/39/21 29/40/22 13/41/23
f 13/41/23 29/40/22 30/42/24
f 13/41/23 30/42/24 14/43/25
f 14/43/25 30/42/24 31/44/26
f 14/43/25 31/44/26 15/45/27
f 15/45/27 31/44/26 32/46/28
f 15/45/27 32/46/28 16/47/29
f 16/47/29 32/46/28 33/48/30
f 16/47/29 33/48/30 17/49/31
f 17/49/31 33/48/30 18/50/2
f 17/49/31 18/50/2 2/51/2
f 18/19/2 34/52/2 35/53/32
f 18/19/2 35/53/32 19/20/3
f 19/20/3 35/53/32 36/54/33
f 19/20/3 36/54/33 20/22/5
f 20/22/5 36/54/33 37/55/34
f 20/22/5 37/55/34 21/24/7
f 21/24/7 37/55/34 38/56/35
f 21/24/7 38/56/35 22/26/9
f 22/26/9 38/56/35 39/57/36
f 22/26/9 39/57/36 23/28/11
f 23/28/11 39/57/36 40/58/37
f 23/28/11 40/58/37 24/30/13
f 24/30/13 40/58/37 41/59/38
f 24/30/13 41/59/38 25/32/15
f 25/32/15 41/59/38 42/60/17
f 25/32/15 42/60/17 26/34/17
f 26/34/17 42/60/17 43/61/39
f 26/34/17 43/61/39 27/36/18
f 27/36/18 43/61/39 44/62/40
f 27/36/18 44/62/40 28/38/20
f 28/38/20 44/62/40 45/63/41
f 28/38/20 45/63/41 29/40/22
f 29/40/22 45/63/41 46/64/42
f 29/40/22 46/64/42 30/42/24
f 30/42/24 46/64/42 47/65/43
f 30/42/24 47/65/43 31/44/26
f 31/44/26 47/65/43 48/66/44
f 31/44/26 48/66/44 32/46/28
f 32/46/28 48/66/44 49/67/45
f 32/46/28 49/67/45 33/48/30
f 33/48/30 49/67/45 34/68/2
f 33/48/30 34/68/2 18/50/2
f 34/52/2 50/69/2 51/70/46
f 34/52/2 51/70/46 35/53/32
f 35/53/32 51/70/46 52/71/47
f 35/53/32 52/71/47 36/54/33
f 36/54/33 52/71/47 53/72/48
f 36/54/33 53/72/48 37/55/34
f 37/55/34 53/72/48 54/73/49
f 37/55/34 54/73/49 38/56/35
f 38/56/35 54/73/49 55/74/50
f 38/56/35 55/74/50 39/57/36
f 39/57/36 55/74/50 56/75/51
f 39/57/36 56/75/51 40/58/37
f 40/58/37 56/75/51 57/76/52
f 40/58/37 57/76/52 41/59/38
f 41/59/38 57/76/52 58/77/17
f 41/59/38 58/77/17 42/60/17
f 42/60/17 58/77/17 59/78/53
f 42/60/17 59/78/53 43/61/39
f 43/61/39 59/78/53 60/79/54
f 43/61/39 60/79/54 44/62/40
f 44/62/40 60/79/54 61/80/55
f 44/62/40 61/80/55 45/63/41
f 45/63/41 61/80/55 62/81/56
f 45/63/41 62/81/56 46/64/42
f 46/64/42 62/81/56 63/82/57
f 46/64/42 63/82/57 47/65/43
f 47/65/43 63/82/57 64/83/58
f 47/65/43 64/83/58 48/66/44
f 48/66/44 64/83/58 65/84/59
f 48/66/44 65/84/59 49/67/45
f 49/67/45 65/84/59 50/85/2
f 49/67/45 50/85/2 34/68/2
f 50/69/2 66/86/2 67/87/60
f 50/69/2 67/87/60 51/70/46
f 51/70/46 67/87/60 68/88/61
f 51/70/46 68/88/61 52/71/47
f 52/71/47 68/88/61 69/89/62
f 52/71/47 69/89/62 53/72/48
f 53/72/48 69/89/62 70/90/63
f 53/72/48 70/90/63 54/73/49
f 54/73/49 70/90/63 71/91/64
f 54/73/49 71/91/64 55/74/50
f 55/74/50 71/91/64 72/92/65
f 55/74/50 72/92/65 56/75/51
f 56/75/51 72/92/65 73/93/66
f 56/75/51 73/93/66 57/76/52
f 57/76/52 73/93/66 74/94/17
f 57/76/52 74/94/17 58/77/17
f 58/77/17 74/94/17 75/95/67
f 58/77/17 75/95/67 59/78/53
f 59/78/53 75/95/67 76/96/68
f 59/78/53 76/96/68 60/79/54
f 60/79/54 76/96/68 77/97/69
f 60/79/54 77/97/69 61/80/55
f 61/80/55 77/97/69 78/98/70
f 61/80/55 78/98/70 62/81/56
f 62/81/56 78/98/70 79/99/71
f 62/81/56 79/99/71 63/82/57
f 63/82/57 79/99/71 80/100/72
f 63/82/57 80/100/72 64/83/58
f 64/83/58 80/100/72 81/101/73
f 64/83/58 81/101/73 65/84/59
f 65/84/59 81/101/73 66/102/2
f 65/84/59 66/102/2 50/85/2
f 66/86/2 82/103/2 83/104/74
f 66/86/2 83/104/74 67/87/60
f 67/87/60 83/104/74 84/105/75
f 67/87/60 84/105/75 68/88/61
f 68/88/61 84/105/75 85/106/76
f 68/88/61 85/106/76 69/89/62
f 69/89/62 85/106/76 86/107/77
f 69/89/62 86/107/77 70/90/63
f 70/90/63 86/107/77 87/108/78
f 70/90/63 87/108/78 71/91/64
f 71/91/64 87/108/78 88/109/79
f 71/91/64 88/109/79 72/92/65
f 72/92/65 88/109/79 89/110/80
f 72/92/65 89/110/80 73/93/66
f 73/93/66 89/110/80 90/111/17
f 73/93/66 90/111/17 74/94/17
f 74/94/17 90/111/17 91/112/81
f 74/94/17 91/112/81 75/95/67
f 75/95/67 91/112/81 92/113/82
f 75/95/67 92/113/82 76/96/68
f 76/96/68 92/113/82 93/114/83
f 76/96/68 93/114/83 77/97/69
f 77/97/69 93/114/83 94/115/84
f 77/97/69 94/115/84 78/98/70
f 78/98/70 94/115/84 95/116/85
f 78/98/70 95/116/85 79/99/71
f 79/99/71 95/116/85 96/117/86
f 79/99/71 96/117/86 80/100/72
f 80/100/72 96/117/86 97/118/87
f 80/100/72 97/118/87 81/101/73
f 81/101/73 97/118/87 82/119/2
f 81/101/73 82/119/2 66/102/2
f 82/103/2 98/120/2 99/121/88
f 82/103/2 99/121/88 83/104/74
f 83/104/74 99/121/88 100/122/89
f 83/104/74 100/122/89 84/105/75
f 84/105/75 100/122/89 101/123/90
f 84/105/75 101/123/90 85/106/76
f 85/106/76 101/123/90 102/124/91
f 85/106/76 102/124/91 86/107/77
f 86/107/77 102/124/91 103/125/92
f 86/107/77 103/125/92 87/108/78
f 87/108/78 103/125/92 104/126/93
f 87/108/78 104/126/93 88/109/79
f 88/109/79 104/126/93 105/127/94
f 88/109/79 105/127/94 89/110/80
f 89/110/80 105/127/94 106/128/17
f 89/110/80 106/128/17 90/111/17
f 90/111/17 106/128/17 107/129/95
f 90/111/17 107/129/95 91/112/81
f 91/112/81 107/129/95 108/130/96
f 91/112/81 108/130/96 92/113/82
f 92/113/82 108/130/96 109/131/97
f 92/113/82 109/131/97 93/114/83
f 93/114/83 109/131/97 110/132/98
f 93/114/83 110/132/98 94/115/84
f 94/115/84 110/132/98 111/133/99
f 94/115/84 111/133/99 95/116/85
f 95/116/85 111/133/99 112/134/100
f 95/116/85 112/134/100 96/117/86
f 96/117/86 112/134/100 113/135/101
f 96/117/86 113/135/101 97/118/87
f 97/118/87 113/135/101 98/136/2
f 97/118/87 98/136/2 82/119/2
f 98/120/2 114/137/2 115/138/102
f 98/120/2 115/138/102 99/121/88
f 99/121/88 115/138/102 116/139/103
f 99/121/88 116/139/103 100/122/89
f 100/122/89 116/139/103 117/140/104
f 100/122/89 117/140/104 101/123/90
f 101/123/90 117/140/104 118/141/105
f 101/123/90 118/141/105 102/124/91
f 102/124/91 118/141/105 119/142/106
f 102/124/91 119/142/106 103/125/92
f 103/125/92 119/142/106 120/143/107
f 103/125/92 120/143/107 104/126/93
f 104/126/93 120/143/107 121/144/108
f 104/126/93 121/144/108 105/127/94
f 105/127/94 121/144/108 122/145/17
f 105/127/94 122/145/17 106/128/17
f 106/128/17 122/145/17 123/146/109
f 106/128/17 123/146/109 107/129/95
f 107/129/95 123/146/109 124/147/110
f 107/129/95 124/147/110 108/130/96
f 108/130/96 124/147/110 125/148/111
f 108/130/96 125/148/111 109/131/97
f 109/131/97 125/148/111 126/149/112
f 109/131/97 126/149/112 110/132/98
f 110/132/98 126/149/112 127/150/113
f 110/132/98 127/150/113 111/133/99
f 111/133/99 127/150/113 128/151/114
f 111/133/99 128/151/114 112/134/100
f 112/134/100 128/151/114 129/152/115
f 112/134/100 129/152/115 113/135/101
f 113/135/101 129/152/115 114/153/2
f 113/135/101 114/153/2 98/136/2
f 114/137/2 130/154/2 131/155/116
f 114/137/2 131/155/116 115/138/102
f 115/138/102 131/155/116 132/156/117
f 115/138/102 132/156/117 116/139/103
f 116/139/103 132/156/117 133/157/118
f 116/139/103 133/157/118 117/140/104
f 117/140/104 133/157/118 134/158/119
f 117/140/104 134/158/119 118/141/105
f 118/141/105 134/158/119 135/159/120
f 118/141/105 135/159/120 119/142/106
f 119/142/106 135/159/120 136/160/121
f 119/142/106 136/160/121 120/143/107
f 120/143/107 136/160/121 137/161/122
f 120/143/107 137/161/122 121/144/108
f 121/144/108 137/161/122 138/162/17
f 121/144/108 138/162/17 122/145/17
f 122/145/17 138/162/17 139/163/123
f 122/145/17 139/163/123 123/146/109
f 123/146/109 139/163/123 140/164/124
f 123/146/109 140/164/124 124/147/110
f 124/147/110 140/164/124 141/165/125
f 124/147/110 141/165/125 125/148/111
f 125/148/111 141/165/125 142/166/126
f 125/148/111 142/166/126 126/149/112
f 126/149/112 142/166/126 143/167/127
f 126/149/112 143/167/127 127/150/113
f 127/150/113 143/167/127 144/168/128
f 127/150/113 144/168/128 128/151/114
f 128/151/114 144/168/128 145/169/129
f 128/151/114 145/169/129 129/152/115
f 129/152/115 145/169/129 130/170/2
f 129/152/115 130/170/2 114/153/2
f 130/154/2 146/171/2 147/172/130
f 130/154/2 147/172/130 131/155/116
f 131/155/116 147/172/130 148/173/131
f 131/155/116 148/173/131 132/156/117
f 132/156/117 148/173/131 149/174/132
f 132/156/117 149/174/132 133/157/118
f 133/157/118 149/174/132 150/175/133
f 133/157/118 150/175/133 134/158/119
f 134/158/119 150/175/133 151/176/134
f 134/158/119 151/176/134 135/159/120
f 135/159/120 151/176/134 152/177/135
f 135/159/120 152/177/135 136/160/121
f 136/160/121 152/177/135 153/178/136
f 136/160/121 153/178/136 137/161/122
f 137/161/122 153/178/136 154/179/17
f 137/161/122 154/179/17 138/162/17
f 138/162/17 154/179/17 155/180/137
f 138/162/17 155/180/137 139/163/123
f 139/163/123 155/180/137 156/181/138
f 139/163/123 156/181/138 140/164/124
f 140/164/124 156/181/138 157/182/139
f 140/164/124 157/182/139 141/165/125
f 141/165/125 157/182/139 158/183/140
f 141/165/125 158/183/140 142/166/126
f 142/166/126 158/183/140 159/184/141
f 142/166/126 159/184/141 143/167/127
f 143/167/127 159/184/141 160/185/142
f 143/167/127 160/185/142 144/168/128
f 144/168/128 160/185/142 161/186/143
f 144/168/128 161/186/143 145/169/129
f 145/169/129 161/186/143 146/187/2
f 145/169/129 146/187/2 130/170/2
f 146/171/2 162/188/2 163/189/144
f 146/171/2 163/189/144 147/172/130
f 147/172/130 163/189/144 164/190/145
f 147/172/130 164/190/145 148/173/131
f 148/173/131 164/190/145 165/191/146
f 148/173/131 165/191/146 149/174/132
f 149/174/132 165/191/146 166/192/147
f 149/174/132 166/192/147 150/175/133
f 150/175/133 166/192/147 167/193/148
f 150/175/133 167/193/148 151/176/134
f 151/176/134 167/193/148 168/194/149
f 151/176/134 168/194/149 152/177/135
f 152/177/135 168/194/149 169/195/150
f 152/177/135 169/195/150 153/178/136
f 153/178/136 169/195/150 170/196/17
f 153/178/136 170/196/17 154/179/17
f 154/179/17 170/196/17 171/197/151
f 154/179/17 171/197/151 155/180/137
f 155/180/137 171/197/151 172/198/152
f 155/180/137 172/198/152 156/181/138
f 156/181/138 172/198/152 173/199/153
f 156/181/138 173/199/153 157/182/139
f 157/182/139 173/199/153 174/200/154
f 157/182/139 174/200/154 158/183/140
f 158/183/140 174/200/154 175/201/155
f 158/183/140 175/201/155 159/184/141
f 159/184/141 175/201/155 176/202/156
f 159/184/141 176/202/156 160/185/142
f 160/185/142 176/202/156 177/203/157
f 160/185/142 177/203/157 161/186/143
f 161/186/143 177/203/157 162/204/2
f 161/186/143 162/204/2 146/187/2
