# Procedurally generated by dev-env-utils/scripts/gen_mast_arm_curves.py
# cell 1 of 10 at (+1 along arm, +0 up)
mtllib mastarmcurve.mtl
o mastarm_8x2_c1
v 0.782812 0.968750 1.000000
v 0.782476 1.000000 0.928203
v 0.760974 1.099198 0.971157
v 0.761285 1.067904 1.043380
v 0.699741 1.183295 1.007572
v 0.699979 1.151962 1.080155
v 0.608099 1.239486 1.031904
v 0.608228 1.208128 1.104728
v 0.500000 1.259218 1.040448
v 0.500000 1.227851 1.113357
v 0.391901 1.239486 1.031904
v 0.391772 1.208128 1.104728
v 0.300259 1.183295 1.007572
v 0.300021 1.151962 1.080155
v 0.239026 1.099198 0.971157
v 0.238715 1.067904 1.043380
v 0.217524 1.000000 0.928203
v 0.217188 0.968750 1.000000
v 0.239026 0.900802 0.885249
v 0.238715 0.869596 0.956620
v 0.300259 0.816705 0.848834
v 0.300021 0.785538 0.919845
v 0.391901 0.760514 0.824503
v 0.391772 0.729372 0.895272
v 0.500000 0.740782 0.815959
v 0.500000 0.709649 0.886643
v 0.608099 0.760514 0.824503
v 0.608228 0.729372 0.895272
v 0.699741 0.816705 0.848834
v 0.699979 0.785538 0.919845
v 0.760974 0.900802 0.885249
v 0.761285 0.869596 0.956620
vt 0.250000 0.294524
vt 0.250000 0.333675
vt 0.281250 0.333675
vt 0.281250 0.294524
vt 0.312500 0.333675
vt 0.312500 0.294524
vt 0.343750 0.333675
vt 0.343750 0.294524
vt 0.375000 0.333675
vt 0.375000 0.294524
vt 0.406250 0.333675
vt 0.406250 0.294524
vt 0.437500 0.333675
vt 0.437500 0.294524
vt 0.468750 0.333675
vt 0.468750 0.294524
vt 0.500000 0.333675
vt 0.500000 0.294524
vt 0.531250 0.333675
vt 0.531250 0.294524
vt 0.562500 0.333675
vt 0.562500 0.294524
vt 0.593750 0.333675
vt 0.593750 0.294524
vt 0.625000 0.333675
vt 0.625000 0.294524
vt 0.656250 0.333675
vt 0.656250 0.294524
vt 0.687500 0.333675
vt 0.687500 0.294524
vt 0.718750 0.333675
vt 0.718750 0.294524
vt 0.750000 0.333675
vt 0.750000 0.294524
vn 1.000000 0.000000 0.000000
vn 0.923880 0.351174 0.152063
vn 0.923880 0.350598 0.153387
vn 0.707107 0.648886 0.280976
vn 0.707107 0.647821 0.283422
vn 0.382683 0.847810 0.367113
vn 0.382683 0.846419 0.370308
vn 0.000000 0.917663 0.397360
vn 0.000000 0.916157 0.400819
vn -0.382683 0.847810 0.367113
vn -0.382683 0.846419 0.370308
vn -0.707107 0.648886 0.280976
vn -0.707107 0.647821 0.283422
vn -0.923880 0.351174 0.152063
vn -0.923880 0.350598 0.153387
vn -1.000000 0.000000 0.000000
vn -0.923880 -0.351174 -0.152063
vn -0.923880 -0.350598 -0.153387
vn -0.707107 -0.648886 -0.280976
vn -0.707107 -0.647821 -0.283422
vn -0.382683 -0.847810 -0.367113
vn -0.382683 -0.846419 -0.370308
vn -0.000000 -0.917663 -0.397360
vn -0.000000 -0.916157 -0.400819
vn 0.382683 -0.847810 -0.367113
vn 0.382683 -0.846419 -0.370308
vn 0.707107 -0.648886 -0.280976
vn 0.707107 -0.647821 -0.283422
vn 0.923880 -0.351174 -0.152063
vn 0.923880 -0.350598 -0.153387
usemtl body
f 1/1/1 2/2/1 3/3/2
f 1/1/1 3/3/2 4/4/3
f 4/4/3 3/3/2 5/5/4
f 4/4/3 5/5/4 6/6/5
f 6/6/5 5/5/4 7/7/6
f 6/6/5 7/7/6 8/8/7
f 8/8/7 7/7/6 9/9/8
f 8/8/7 9/9/8 10/10/9
f 10/10/9 9/9/8 11/11/10
f 10/10/9 11/11/10 12/12/11
f 12/12/11 11/11/10 13/13/12
f 12/12/11 13/13/12 14/14/13
f 14/14/13 13/13/12 15/15/14
f 14/14/13 15/15/14 16/16/15
f 16/16/15 15/15/14 17/17/16
f 16/16/15 17/17/16 18/18/16
f 18/18/16 17/17/16 19/19/17
f 18/18/16 19/19/17 20/20/18
f 20/20/18 19/19/17 21/21/19
f 20/20/18 21/21/19 22/22/20
f 22/22/20 21/21/19 23/23/21
f 22/22/20 23/23/21 24/24/22
f 24/24/22 23/23/21 25/25/23
f 24/24/22 25/25/23 26/26/24
f 26/26/24 25/25/23 27/27/25
f 26/26/24 27/27/25 28/28/26
f 28/28/26 27/27/25 29/29/27
f 28/28/26 29/29/27 30/30/28
f 30/30/28 29/29/27 31/31/29
f 30/30/28 31/31/29 32/32/30
f 32/32/30 31/31/29 2/33/1
f 32/32/30 2/33/1 1/34/1
