# Procedurally generated by dev-env-utils/scripts/gen_mast_arm_curves.py
# cell 4 of 12 at (+3 along arm, +1 up)
mtllib mastarmcurve.mtl
o mastarm_10x2_c4
v 0.776250 0.520000 1.000000
v 0.775937 0.543194 0.916667
v 0.754933 0.644968 0.944824
v 0.755222 0.621801 1.028504
v 0.695117 0.731247 0.968695
v 0.695338 0.708104 1.052669
v 0.605597 0.788897 0.984644
v 0.605716 0.765769 1.068815
v 0.500000 0.809141 0.990245
v 0.500000 0.786019 1.074485
v 0.394403 0.788897 0.984644
v 0.394284 0.765769 1.068815
v 0.304883 0.731247 0.968695
v 0.304662 0.708104 1.052669
v 0.245067 0.644968 0.944824
v 0.244778 0.621801 1.028504
v 0.224062 0.543194 0.916667
v 0.223750 0.520000 1.000000
v 0.245067 0.441421 0.888509
v 0.244778 0.418199 0.971496
v 0.304883 0.355142 0.864639
v 0.304662 0.331896 0.947331
v 0.394403 0.297492 0.848689
v 0.394284 0.274231 0.931185
v 0.500000 0.277248 0.843088
v 0.500000 0.253981 0.925515
v 0.605597 0.297492 0.848689
v 0.605716 0.274231 0.931185
v 0.695117 0.355142 0.864639
v 0.695338 0.331896 0.947331
v 0.754933 0.441421 0.888509
v 0.755222 0.418199 0.971496
v 0.775625 0.566111 0.833333
v 0.754644 0.667856 0.861144
v 0.694896 0.754111 0.884720
v 0.605477 0.811745 0.900473
v 0.500000 0.831983 0.906005
v 0.394523 0.811745 0.900473
v 0.305104 0.754111 0.884720
v 0.245356 0.667856 0.861144
v 0.224375 0.566111 0.833333
v 0.245356 0.464366 0.805523
v 0.305104 0.378111 0.781947
v 0.394523 0.320477 0.766193
v 0.500000 0.300239 0.760662
v 0.605477 0.320477 0.766193
v 0.694896 0.378111 0.781947
v 0.754644 0.464366 0.805523
v 0.775312 0.588750 0.750000
v 0.754356 0.690465 0.777463
v 0.694675 0.776695 0.800745
v 0.605358 0.834312 0.816302
v 0.500000 0.854545 0.821765
v 0.394642 0.834312 0.816302
v 0.305325 0.776695 0.800745
v 0.245644 0.690465 0.777463
v 0.224688 0.588750 0.750000
v 0.245644 0.487035 0.722537
v 0.305325 0.400805 0.699255
v 0.394642 0.343188 0.683698
v 0.500000 0.322955 0.678235
v 0.605358 0.343188 0.683698
v 0.694675 0.400805 0.699255
v 0.754356 0.487035 0.722537
v 0.775000 0.611111 0.666667
v 0.754067 0.712796 0.693783
v 0.694454 0.799000 0.716770
v 0.605238 0.856599 0.732130
v 0.500000 0.876826 0.737524
v 0.394762 0.856599 0.732130
v 0.305546 0.799000 0.716770
v 0.245933 0.712796 0.693783
v 0.225000 0.611111 0.666667
v 0.245933 0.509427 0.639551
v 0.305546 0.423223 0.616563
v 0.394762 0.365623 0.601203
v 0.500000 0.345397 0.595809
v 0.605238 0.365623 0.601203
v 0.694454 0.423223 0.616563
v 0.754067 0.509427 0.639551
v 0.774687 0.633194 0.583333
v 0.753778 0.734847 0.610102
v 0.694233 0.821025 0.632795
v 0.605118 0.878606 0.647958
v 0.500000 0.898826 0.653283
v 0.394882 0.878606 0.647958
v 0.305767 0.821025 0.632795
v 0.246222 0.734847 0.610102
v 0.225313 0.633194 0.583333
v 0.246222 0.531542 0.556565
v 0.305767 0.445364 0.533871
v 0.394882 0.387783 0.518708
v 0.500000 0.367563 0.513384
v 0.605118 0.387783 0.518708
v 0.694233 0.445364 0.533871
v 0.753778 0.531542 0.556565
v 0.774375 0.655000 0.500000
v 0.753489 0.756620 0.526421
v 0.694012 0.842770 0.548820
v 0.604999 0.900333 0.563787
v 0.500000 0.920546 0.569042
v 0.395001 0.900333 0.563787
v 0.305988 0.842770 0.548820
v 0.246511 0.756620 0.526421
v 0.225625 0.655000 0.500000
v 0.246511 0.553380 0.473579
v 0.305988 0.467230 0.451180
v 0.395001 0.409667 0.436213
v 0.500000 0.389454 0.430958
v 0.604999 0.409667 0.436213
v 0.694012 0.467230 0.451180
v 0.753489 0.553380 0.473579
v 0.774062 0.676528 0.416667
v 0.753201 0.778114 0.442741
v 0.693791 0.864235 0.464845
v 0.604879 0.921779 0.479614
v 0.500000 0.941986 0.484801
v 0.395121 0.921779 0.479614
v 0.306209 0.864235 0.464845
v 0.246799 0.778114 0.442741
v 0.225938 0.676528 0.416667
v 0.246799 0.574941 0.390593
v 0.306209 0.488821 0.368488
v 0.395121 0.431277 0.353719
v 0.500000 0.411070 0.348532
v 0.604879 0.431277 0.353719
v 0.693791 0.488821 0.368488
v 0.753201 0.574941 0.390593
v 0.773750 0.697778 0.333333
v 0.752912 0.799329 0.359060
v 0.693570 0.885421 0.380870
v 0.604760 0.942945 0.395442
v 0.500000 0.963145 0.400560
v 0.395240 0.942945 0.395442
v 0.306430 0.885421 0.380870
v 0.247088 0.799329 0.359060
v 0.226250 0.697778 0.333333
v 0.247088 0.596226 0.307607
v 0.306430 0.510135 0.285797
v 0.395240 0.452611 0.271224
v 0.500000 0.432411 0.266107
v 0.604760 0.452611 0.271224
v 0.693570 0.510135 0.285797
v 0.752912 0.596226 0.307607
v 0.773438 0.718750 0.250000
v 0.752623 0.820266 0.275379
v 0.693350 0.906327 0.296894
v 0.604640 0.963831 0.311270
v 0.500000 0.984023 0.316318
v 0.395360 0.963831 0.311270
v 0.306650 0.906327 0.296894
v 0.247377 0.820266 0.275379
v 0.226562 0.718750 0.250000
v 0.247377 0.617234 0.224621
v 0.306650 0.531173 0.203106
v 0.395360 0.473669 0.188730
v 0.500000 0.453477 0.183682
v 0.604640 0.473669 0.188730
v 0.693350 0.531173 0.203106
v 0.752623 0.617234 0.224621
v 0.773125 0.739444 0.166667
v 0.752335 0.840923 0.191698
v 0.693129 0.926953 0.212919
v 0.604520 0.984436 0.227098
v 0.500000 1.004621 0.232077
v 0.395480 0.984436 0.227098
v 0.306871 0.926953 0.212919
v 0.247665 0.840923 0.191698
v 0.226875 0.739444 0.166667
v 0.247665 0.637966 0.141635
v 0.306871 0.551936 0.120415
v 0.395480 0.494453 0.106235
v 0.500000 0.474268 0.101256
v 0.604520 0.494453 0.106235
v 0.693129 0.551936 0.120415
v 0.752335 0.637966 0.141635
v 0.772813 0.759861 0.083333
v 0.752046 0.861302 0.108017
v 0.692908 0.947299 0.128943
v 0.604401 1.004761 0.142926
v 0.500000 1.024939 0.147836
v 0.395599 1.004761 0.142926
v 0.307092 0.947299 0.128943
v 0.247954 0.861302 0.108017
v 0.227187 0.759861 0.083333
v 0.247954 0.658420 0.058649
v 0.307092 0.572423 0.037723
v 0.395599 0.514961 0.023741
v 0.500000 0.494784 0.018831
v 0.604401 0.514961 0.023741
v 0.692908 0.572423 0.037723
v 0.752046 0.658420 0.058649
v 0.772500 0.780000 0.000000
v 0.751757 0.881402 0.024336
v 0.692687 0.967366 0.044968
v 0.604281 1.024805 0.058753
v 0.500000 1.044976 0.063594
v 0.395719 1.024805 0.058753
v 0.307313 0.967366 0.044968
v 0.248243 0.881402 0.024336
v 0.227500 0.780000 0.000000
v 0.248243 0.678598 -0.024336
v 0.307313 0.592634 -0.044968
v 0.395719 0.535195 -0.058753
v 0.500000 0.515024 -0.063594
v 0.604281 0.535195 -0.058753
v 0.692687 0.592634 -0.044968
v 0.751757 0.678598 -0.024336
vt 0.250000 0.339853
vt 0.250000 0.383104
vt 0.281250 0.383104
vt 0.281250 0.339853
vt 0.312500 0.383104
vt 0.312500 0.339853
vt 0.343750 0.383104
vt 0.343750 0.339853
vt 0.375000 0.383104
vt 0.375000 0.339853
vt 0.406250 0.383104
vt 0.406250 0.339853
vt 0.437500 0.383104
vt 0.437500 0.339853
vt 0.468750 0.383104
vt 0.468750 0.339853
vt 0.500000 0.383104
vt 0.500000 0.339853
vt 0.531250 0.383104
vt 0.531250 0.339853
vt 0.562500 0.383104
vt 0.562500 0.339853
vt 0.593750 0.383104
vt 0.593750 0.339853
vt 0.625000 0.383104
vt 0.625000 0.339853
vt 0.656250 0.383104
vt 0.656250 0.339853
vt 0.687500 0.383104
vt 0.687500 0.339853
vt 0.718750 0.383104
vt 0.718750 0.339853
vt 0.750000 0.383104
vt 0.750000 0.339853
vt 0.250000 0.426317
vt 0.281250 0.426317
vt 0.312500 0.426317
vt 0.343750 0.426317
vt 0.375000 0.426317
vt 0.406250 0.426317
vt 0.437500 0.426317
vt 0.468750 0.426317
vt 0.500000 0.426317
vt 0.531250 0.426317
vt 0.562500 0.426317
vt 0.593750 0.426317
vt 0.625000 0.426317
vt 0.656250 0.426317
vt 0.687500 0.426317
vt 0.718750 0.426317
vt 0.750000 0.426317
vt 0.250000 0.469494
vt 0.281250 0.469494
vt 0.312500 0.469494
vt 0.343750 0.469494
vt 0.375000 0.469494
vt 0.406250 0.469494
vt 0.437500 0.469494
vt 0.468750 0.469494
vt 0.500000 0.469494
vt 0.531250 0.469494
vt 0.562500 0.469494
vt 0.593750 0.469494
vt 0.625000 0.469494
vt 0.656250 0.469494
vt 0.687500 0.469494
vt 0.718750 0.469494
vt 0.750000 0.469494
vt 0.250000 0.512635
vt 0.281250 0.512635
vt 0.312500 0.512635
vt 0.343750 0.512635
vt 0.375000 0.512635
vt 0.406250 0.512635
vt 0.437500 0.512635
vt 0.468750 0.512635
vt 0.500000 0.512635
vt 0.531250 0.512635
vt 0.562500 0.512635
vt 0.593750 0.512635
vt 0.625000 0.512635
vt 0.656250 0.512635
vt 0.687500 0.512635
vt 0.718750 0.512635
vt 0.750000 0.512635
vt 0.250000 0.555740
vt 0.281250 0.555740
vt 0.312500 0.555740
vt 0.343750 0.555740
vt 0.375000 0.555740
vt 0.406250 0.555740
vt 0.437500 0.555740
vt 0.468750 0.555740
vt 0.500000 0.555740
vt 0.531250 0.555740
vt 0.562500 0.555740
vt 0.593750 0.555740
vt 0.625000 0.555740
vt 0.656250 0.555740
vt 0.687500 0.555740
vt 0.718750 0.555740
vt 0.750000 0.555740
vt 0.250000 0.598809
vt 0.281250 0.598809
vt 0.312500 0.598809
vt 0.343750 0.598809
vt 0.375000 0.598809
vt 0.406250 0.598809
vt 0.437500 0.598809
vt 0.468750 0.598809
vt 0.500000 0.598809
vt 0.531250 0.598809
vt 0.562500 0.598809
vt 0.593750 0.598809
vt 0.625000 0.598809
vt 0.656250 0.598809
vt 0.687500 0.598809
vt 0.718750 0.598809
vt 0.750000 0.598809
vt 0.250000 0.641844
vt 0.281250 0.641844
vt 0.312500 0.641844
vt 0.343750 0.641844
vt 0.375000 0.641844
vt 0.406250 0.641844
vt 0.437500 0.641844
vt 0.468750 0.641844
vt 0.500000 0.641844
vt 0.531250 0.641844
vt 0.562500 0.641844
vt 0.593750 0.641844
vt 0.625000 0.641844
vt 0.656250 0.641844
vt 0.687500 0.641844
vt 0.718750 0.641844
vt 0.750000 0.641844
vt 0.250000 0.684844
vt 0.281250 0.684844
vt 0.312500 0.684844
vt 0.343750 0.684844
vt 0.375000 0.684844
vt 0.406250 0.684844
vt 0.437500 0.684844
vt 0.468750 0.684844
vt 0.500000 0.684844
vt 0.531250 0.684844
vt 0.562500 0.684844
vt 0.593750 0.684844
vt 0.625000 0.684844
vt 0.656250 0.684844
vt 0.687500 0.684844
vt 0.718750 0.684844
vt 0.750000 0.684844
vt 0.250000 0.727809
vt 0.281250 0.727809
vt 0.312500 0.727809
vt 0.343750 0.727809
vt 0.375000 0.727809
vt 0.406250 0.727809
vt 0.437500 0.727809
vt 0.468750 0.727809
vt 0.500000 0.727809
vt 0.531250 0.727809
vt 0.562500 0.727809
vt 0.593750 0.727809
vt 0.625000 0.727809
vt 0.656250 0.727809
vt 0.687500 0.727809
vt 0.718750 0.727809
vt 0.750000 0.727809
vt 0.250000 0.729258
vt 0.281250 0.729258
vt 0.312500 0.729258
vt 0.343750 0.729258
vt 0.375000 0.729258
vt 0.406250 0.729258
vt 0.437500 0.729258
vt 0.468750 0.729258
vt 0.500000 0.729258
vt 0.531250 0.729258
vt 0.562500 0.729258
vt 0.593750 0.729258
vt 0.625000 0.729258
vt 0.656250 0.729258
vt 0.687500 0.729258
vt 0.718750 0.729258
vt 0.750000 0.729258
vt 0.250000 0.686359
vt 0.281250 0.686359
vt 0.312500 0.686359
vt 0.343750 0.686359
vt 0.375000 0.686359
vt 0.406250 0.686359
vt 0.437500 0.686359
vt 0.468750 0.686359
vt 0.500000 0.686359
vt 0.531250 0.686359
vt 0.562500 0.686359
vt 0.593750 0.686359
vt 0.625000 0.686359
vt 0.656250 0.686359
vt 0.687500 0.686359
vt 0.718750 0.686359
vt 0.750000 0.686359
vt 0.250000 0.643493
vt 0.281250 0.643493
vt 0.312500 0.643493
vt 0.343750 0.643493
vt 0.375000 0.643493
vt 0.406250 0.643493
vt 0.437500 0.643493
vt 0.468750 0.643493
vt 0.500000 0.643493
vt 0.531250 0.643493
vt 0.562500 0.643493
vt 0.593750 0.643493
vt 0.625000 0.643493
vt 0.656250 0.643493
vt 0.687500 0.643493
vt 0.718750 0.643493
vt 0.750000 0.643493
vn 1.000000 0.000000 0.000000
vn 0.923880 0.368828 0.102042
vn 0.923880 0.368510 0.103183
vn 0.707107 0.681505 0.188550
vn 0.707107 0.680918 0.190657
vn 0.382683 0.890429 0.246352
vn 0.382683 0.889663 0.249106
vn 0.000000 0.963794 0.266650
vn 0.000000 0.962964 0.269630
vn -0.382683 0.890429 0.246352
vn -0.382683 0.889663 0.249106
vn -0.707107 0.681505 0.188550
vn -0.707107 0.680918 0.190657
vn -0.923880 0.368828 0.102042
vn -0.923880 0.368510 0.103183
vn -1.000000 0.000000 0.000000
vn -0.923880 -0.368828 -0.102042
vn -0.923880 -0.368510 -0.103183
vn -0.707107 -0.681505 -0.188550
vn -0.707107 -0.680918 -0.190657
vn -0.382683 -0.890429 -0.246352
vn -0.382683 -0.889663 -0.249106
vn -0.000000 -0.963794 -0.266650
vn -0.000000 -0.962964 -0.269630
vn 0.382683 -0.890429 -0.246352
vn 0.382683 -0.889663 -0.249106
vn 0.707107 -0.681505 -0.188550
vn 0.707107 -0.680918 -0.190657
vn 0.923880 -0.368828 -0.102042
vn 0.923880 -0.368510 -0.103183
vn 0.923880 0.369142 0.100899
vn 0.707107 0.682086 0.186437
vn 0.382683 0.891188 0.243591
vn 0.000000 0.964615 0.263662
vn -0.382683 0.891188 0.243591
vn -0.707107 0.682086 0.186437
vn -0.923880 0.369142 0.100899
vn -0.923880 -0.369142 -0.100899
vn -0.707107 -0.682086 -0.186437
vn -0.382683 -0.891188 -0.243591
vn -0.000000 -0.964615 -0.263662
vn 0.382683 -0.891188 -0.243591
vn 0.707107 -0.682086 -0.186437
vn 0.923880 -0.369142 -0.100899
vn 0.923880 0.369454 0.099753
vn 0.707107 0.682661 0.184319
vn 0.382683 0.891940 0.240824
vn 0.000000 0.965429 0.260666
vn -0.382683 0.891940 0.240824
vn -0.707107 0.682661 0.184319
vn -0.923880 0.369454 0.099753
vn -0.923880 -0.369454 -0.099753
vn -0.707107 -0.682661 -0.184319
vn -0.382683 -0.891940 -0.240824
vn -0.000000 -0.965429 -0.260666
vn 0.382683 -0.891940 -0.240824
vn 0.707107 -0.682661 -0.184319
vn 0.923880 -0.369454 -0.099753
vn 0.923880 0.369762 0.098603
vn 0.707107 0.683231 0.182195
vn 0.382683 0.892685 0.238049
vn 0.000000 0.966235 0.257663
vn -0.382683 0.892685 0.238049
vn -0.707107 0.683231 0.182195
vn -0.923880 0.369762 0.098603
vn -0.923880 -0.369762 -0.098603
vn -0.707107 -0.683231 -0.182195
vn -0.382683 -0.892685 -0.238049
vn -0.000000 -0.966235 -0.257663
vn 0.382683 -0.892685 -0.238049
vn 0.707107 -0.683231 -0.182195
vn 0.923880 -0.369762 -0.098603
vn 0.923880 0.370067 0.097451
vn 0.707107 0.683795 0.180066
vn 0.382683 0.893422 0.235268
vn 0.000000 0.967033 0.254652
vn -0.382683 0.893422 0.235268
vn -0.707107 0.683795 0.180066
vn -0.923880 0.370067 0.097451
vn -0.923880 -0.370067 -0.097451
vn -0.707107 -0.683795 -0.180066
vn -0.382683 -0.893422 -0.235268
vn -0.000000 -0.967033 -0.254652
vn 0.382683 -0.893422 -0.235268
vn 0.707107 -0.683795 -0.180066
vn 0.923880 -0.370067 -0.097451
vn 0.923880 0.370370 0.096296
vn 0.707107 0.684354 0.177932
vn 0.382683 0.894151 0.232479
vn 0.000000 0.967823 0.251634
vn -0.382683 0.894151 0.232479
vn -0.707107 0.684354 0.177932
vn -0.923880 0.370370 0.096296
vn -0.923880 -0.370370 -0.096296
vn -0.707107 -0.684354 -0.177932
vn -0.382683 -0.894151 -0.232479
vn -0.000000 -0.967823 -0.251634
vn 0.382683 -0.894151 -0.232479
vn 0.707107 -0.684354 -0.177932
vn 0.923880 -0.370370 -0.096296
vn 0.923880 0.370669 0.095138
vn 0.707107 0.684907 0.175793
vn 0.382683 0.894873 0.229684
vn 0.000000 0.968604 0.248608
vn -0.382683 0.894873 0.229684
vn -0.707107 0.684907 0.175793
vn -0.923880 0.370669 0.095138
vn -0.923880 -0.370669 -0.095138
vn -0.707107 -0.684907 -0.175793
vn -0.382683 -0.894873 -0.229684
vn -0.000000 -0.968604 -0.248608
vn 0.382683 -0.894873 -0.229684
vn 0.707107 -0.684907 -0.175793
vn 0.923880 -0.370669 -0.095138
vn 0.923880 0.370965 0.093978
vn 0.707107 0.685453 0.173648
vn 0.382683 0.895588 0.226882
vn 0.000000 0.969377 0.245576
vn -0.382683 0.895588 0.226882
vn -0.707107 0.685453 0.173648
vn -0.923880 0.370965 0.093978
vn -0.923880 -0.370965 -0.093978
vn -0.707107 -0.685453 -0.173648
vn -0.382683 -0.895588 -0.226882
vn -0.000000 -0.969377 -0.245576
vn 0.382683 -0.895588 -0.226882
vn 0.707107 -0.685453 -0.173648
vn 0.923880 -0.370965 -0.093978
vn 0.923880 0.371257 0.092814
vn 0.707107 0.685994 0.171499
vn 0.382683 0.896295 0.224074
vn 0.000000 0.970143 0.242536
vn -0.382683 0.896295 0.224074
vn -0.707107 0.685994 0.171499
vn -0.923880 0.371257 0.092814
vn -0.923880 -0.371257 -0.092814
vn -0.707107 -0.685994 -0.171499
vn -0.382683 -0.896295 -0.224074
vn -0.000000 -0.970143 -0.242536
vn 0.382683 -0.896295 -0.224074
vn 0.707107 -0.685994 -0.171499
vn 0.923880 -0.371257 -0.092814
vn 0.923880 0.371547 0.091648
vn 0.707107 0.686529 0.169344
vn 0.382683 0.896994 0.221258
vn 0.000000 0.970899 0.239488
vn -0.382683 0.896994 0.221258
vn -0.707107 0.686529 0.169344
vn -0.923880 0.371547 0.091648
vn -0.923880 -0.371547 -0.091648
vn -0.707107 -0.686529 -0.169344
vn -0.382683 -0.896994 -0.221258
vn -0.000000 -0.970899 -0.239488
vn 0.382683 -0.896994 -0.221258
vn 0.707107 -0.686529 -0.169344
vn 0.923880 -0.371547 -0.091648
vn 0.923880 0.371833 0.090479
vn 0.707107 0.687059 0.167184
vn 0.382683 0.897685 0.218437
vn 0.000000 0.971647 0.236434
vn -0.382683 0.897685 0.218437
vn -0.707107 0.687059 0.167184
vn -0.923880 0.371833 0.090479
vn -0.923880 -0.371833 -0.090479
vn -0.707107 -0.687059 -0.167184
vn -0.382683 -0.897685 -0.218437
vn -0.000000 -0.971647 -0.236434
vn 0.382683 -0.897685 -0.218437
vn 0.707107 -0.687059 -0.167184
vn 0.923880 -0.371833 -0.090479
vn 0.923880 0.372117 0.089308
vn 0.707107 0.687582 0.165020
vn 0.382683 0.898369 0.215608
vn 0.000000 0.972387 0.233373
vn -0.382683 0.898369 0.215608
vn -0.707107 0.687582 0.165020
vn -0.923880 0.372117 0.089308
vn -0.923880 -0.372117 -0.089308
vn -0.707107 -0.687582 -0.165020
vn -0.382683 -0.898369 -0.215608
vn -0.000000 -0.972387 -0.233373
vn 0.382683 -0.898369 -0.215608
vn 0.707107 -0.687582 -0.165020
vn 0.923880 -0.372117 -0.089308
usemtl body
f 1/1/1 2/2/1 3/3/2
f 1/1/1 3/3/2 4/4/3
f 4/4/3 3/3/2 5/5/4
f 4/4/3 5/5/4 6/6/5
f 6/6/5 5/5/4 7/7/6
f 6/6/5 7/7/6 8/8/7
f 8/8/7 7/7/6 9/9/8
f 8/8/7 9/9/8 10/10/9
f 10/10/9 9/9/8 11/11/10
f 10/10/9 11/11/10 12/12/11
f 12/12/11 11/11/10 13/13/12
f 12/12/11 13/13/12 14/14/13
f 14/14/13 13/13/12 15/15/14
f 14/14/13 15/15/14 16/16/15
f 16/16/15 15/15/14 17/17/16
f 16/16/15 17/17/16 18/18/16
f 18/18/16 17/17/16 19/19/17
f 18/18/16 19/19/17 20/20/18
f 20/20/18 19/19/17 21/21/19
f 20/20/18 21/21/19 22/22/20
f 22/22/20 21/21/19 23/23/21
f 22/22/20 23/23/21 24/24/22
f 24/24/22 23/23/21 25/25/23
f 24/24/22 25/25/23 26/26/24
f 26/26/24 25/25/23 27/27/25
f 26/26/24 27/27/25 28/28/26
f 28/28/26 27/27/25 29/29/27
f 28/28/26 29/29/27 30/30/28
f 30/30/28 29/29/27 31/31/29
f 30/30/28 31/31/29 32/32/30
f 32/32/30 31/31/29 2/33/1
f 32/32/30 2/33/1 1/34/1
f 2/2/1 33/35/1 34/36/31
f 2/2/1 34/36/31 3/3/2
f 3/3/2 34/36/31 35/37/32
f 3/3/2 35/37/32 5/5/4
f 5/5/4 35/37/32 36/38/33
f 5/5/4 36/38/33 7/7/6
f 7/7/6 36/38/33 37/39/34
f 7/7/6 37/39/34 9/9/8
f 9/9/8 37/39/34 38/40/35
f 9/9/8 38/40/35 11/11/10
f 11/11/10 38/40/35 39/41/36
f 11/11/10 39/41/36 13/13/12
f 13/13/12 39/41/36 40/42/37
f 13/13/12 40/42/37 15/15/14
f 15/15/14 40/42/37 41/43/16
f 15/15/14 41/43/16 17/17/16
f 17/17/16 41/43/16 42/44/38
f 17/17/16 42/44/38 19/19/17
f 19/19/17 42/44/38 43/45/39
f 19/19/17 43/45/39 21/21/19
f 21/21/19 43/45/39 44/46/40
f 21/21/19 44/46/40 23/23/21
f 23/23/21 44/46/40 45/47/41
f 23/23/21 45/47/41 25/25/23
f 25/25/23 45/47/41 46/48/42
f 25/25/23 46/48/42 27/27/25
f 27/27/25 46/48/42 47/49/43
f 27/27/25 47/49/43 29/29/27
f 29/29/27 47/49/43 48/50/44
f 29/29/27 48/50/44 31/31/29
f 31/31/29 48/50/44 33/51/1
f 31/31/29 33/51/1 2/33/1
f 33/35/1 49/52/1 50/53/45
f 33/35/1 50/53/45 34/36/31
f 34/36/31 50/53/45 51/54/46
f 34/36/31 51/54/46 35/37/32
f 35/37/32 51/54/46 52/55/47
f 35/37/32 52/55/47 36/38/33
f 36/38/33 52/55/47 53/56/48
f 36/38/33 53/56/48 37/39/34
f 37/39/34 53/56/48 54/57/49
f 37/39/34 54/57/49 38/40/35
f 38/40/35 54/57/49 55/58/50
f 38/40/35 55/58/50 39/41/36
f 39/41/36 55/58/50 56/59/51
f 39/41/36 56/59/51 40/42/37
f 40/42/37 56/59/51 57/60/16
f 40/42/37 57/60/16 41/43/16
f 41/43/16 57/60/16 58/61/52
f 41/43/16 58/61/52 42/44/38
f 42/44/38 58/61/52 59/62/53
f 42/44/38 59/62/53 43/45/39
f 43/45/39 59/62/53 60/63/54
f 43/45/39 60/63/54 44/46/40
f 44/46/40 60/63/54 61/64/55
f 44/46/40 61/64/55 45/47/41
f 45/47/41 61/64/55 62/65/56
f 45/47/41 62/65/56 46/48/42
f 46/48/42 62/65/56 63/66/57
f 46/48/42 63/66/57 47/49/43
f 47/49/43 63/66/57 64/67/58
f 47/49/43 64/67/58 48/50/44
f 48/50/44 64/67/58 49/68/1
f 48/50/44 49/68/1 33/51/1
f 49/52/1 65/69/1 66/70/59
f 49/52/1 66/70/59 50/53/45
f 50/53/45 66/70/59 67/71/60
f 50/53/45 67/71/60 51/54/46
f 51/54/46 67/71/60 68/72/61
f 51/54/46 68/72/61 52/55/47
f 52/55/47 68/72/61 69/73/62
f 52/55/47 69/73/62 53/56/48
f 53/56/48 69/73/62 70/74/63
f 53/56/48 70/74/63 54/57/49
f 54/57/49 70/74/63 71/75/64
f 54/57/49 71/75/64 55/58/50
f 55/58/50 71/75/64 72/76/65
f 55/58/50 72/76/65 56/59/51
f 56/59/51 72/76/65 73/77/16
f 56/59/51 73/77/16 57/60/16
f 57/60/16 73/77/16 74/78/66
f 57/60/16 74/78/66 58/61/52
f 58/61/52 74/78/66 75/79/67
f 58/61/52 75/79/67 59/62/53
f 59/62/53 75/79/67 76/80/68
f 59/62/53 76/80/68 60/63/54
f 60/63/54 76/80/68 77/81/69
f 60/63/54 77/81/69 61/64/55
f 61/64/55 77/81/69 78/82/70
f 61/64/55 78/82/70 62/65/56
f 62/65/56 78/82/70 79/83/71
f 62/65/56 79/83/71 63/66/57
f 63/66/57 79/83/71 80/84/72
f 63/66/57 80/84/72 64/67/58
f 64/67/58 80/84/72 65/85/1
f 64/67/58 65/85/1 49/68/1
f 65/69/1 81/86/1 82/87/73
f 65/69/1 82/87/73 66/70/59
f 66/70/59 82/87/73 83/88/74
f 66/70/59 83/88/74 67/71/60
f 67/71/60 83/88/74 84/89/75
f 67/71/60 84/89/75 68/72/61
f 68/72/61 84/89/75 85/90/76
f 68/72/61 85/90/76 69/73/62
f 69/73/62 85/90/76 86/91/77
f 69/73/62 86/91/77 70/74/63
f 70/74/63 86/91/77 87/92/78
f 70/74/63 87/92/78 71/75/64
f 71/75/64 87/92/78 88/93/79
f 71/75/64 88/93/79 72/76/65
f 72/76/65 88/93/79 89/94/16
f 72/76/65 89/94/16 73/77/16
f 73/77/16 89/94/16 90/95/80
f 73/77/16 90/95/80 74/78/66
f 74/78/66 90/95/80 91/96/81
f 74/78/66 91/96/81 75/79/67
f 75/79/67 91/96/81 92/97/82
f 75/79/67 92/97/82 76/80/68
f 76/80/68 92/97/82 93/98/83
f 76/80/68 93/98/83 77/81/69
f 77/81/69 93/98/83 94/99/84
f 77/81/69 94/99/84 78/82/70
f 78/82/70 94/99/84 95/100/85
f 78/82/70 95/100/85 79/83/71
f 79/83/71 95/100/85 96/101/86
f 79/83/71 96/101/86 80/84/72
f 80/84/72 96/101/86 81/102/1
f 80/84/72 81/102/1 65/85/1
f 81/86/1 97/103/1 98/104/87
f 81/86/1 98/104/87 82/87/73
f 82/87/73 98/104/87 99/105/88
f 82/87/73 99/105/88 83/88/74
f 83/88/74 99/105/88 100/106/89
f 83/88/74 100/106/89 84/89/75
f 84/89/75 100/106/89 101/107/90
f 84/89/75 101/107/90 85/90/76
f 85/90/76 101/107/90 102/108/91
f 85/90/76 102/108/91 86/91/77
f 86/91/77 102/108/91 103/109/92
f 86/91/77 103/109/92 87/92/78
f 87/92/78 103/109/92 104/110/93
f 87/92/78 104/110/93 88/93/79
f 88/93/79 104/110/93 105/111/16
f 88/93/79 105/111/16 89/94/16
f 89/94/16 105/111/16 106/112/94
f 89/94/16 106/112/94 90/95/80
f 90/95/80 106/112/94 107/113/95
f 90/95/80 107/113/95 91/96/81
f 91/96/81 107/113/95 108/114/96
f 91/96/81 108/114/96 92/97/82
f 92/97/82 108/114/96 109/115/97
f 92/97/82 109/115/97 93/98/83
f 93/98/83 109/115/97 110/116/98
f 93/98/83 110/116/98 94/99/84
f 94/99/84 110/116/98 111/117/99
f 94/99/84 111/117/99 95/100/85
f 95/100/85 111/117/99 112/118/100
f 95/100/85 112/118/100 96/101/86
f 96/101/86 112/118/100 97/119/1
f 96/101/86 97/119/1 81/102/1
f 97/103/1 113/120/1 114/121/101
f 97/103/1 114/121/101 98/104/87
f 98/104/87 114/121/101 115/122/102
f 98/104/87 115/122/102 99/105/88
f 99/105/88 115/122/102 116/123/103
f 99/105/88 116/123/103 100/106/89
f 100/106/89 116/123/103 117/124/104
f 100/106/89 117/124/104 101/107/90
f 101/107/90 117/124/104 118/125/105
f 101/107/90 118/125/105 102/108/91
f 102/108/91 118/125/105 119/126/106
f 102/108/91 119/126/106 103/109/92
f 103/109/92 119/126/106 120/127/107
f 103/109/92 120/127/107 104/110/93
f 104/110/93 120/127/107 121/128/16
f 104/110/93 121/128/16 105/111/16
f 105/111/16 121/128/16 122/129/108
f 105/111/16 122/129/108 106/112/94
f 106/112/94 122/129/108 123/130/109
f 106/112/94 123/130/109 107/113/95
f 107/113/95 123/130/109 124/131/110
f 107/113/95 124/131/110 108/114/96
f 108/114/96 124/131/110 125/132/111
f 108/114/96 125/132/111 109/115/97
f 109/115/97 125/132/111 126/133/112
f 109/115/97 126/133/112 110/116/98
f 110/116/98 126/133/112 127/134/113
f 110/116/98 127/134/113 111/117/99
f 111/117/99 127/134/113 128/135/114
f 111/117/99 128/135/114 112/118/100
f 112/118/100 128/135/114 113/136/1
f 112/118/100 113/136/1 97/119/1
f 113/120/1 129/137/1 130/138/115
f 113/120/1 130/138/115 114/121/101
f 114/121/101 130/138/115 131/139/116
f 114/121/101 131/139/116 115/122/102
f 115/122/102 131/139/116 132/140/117
f 115/122/102 132/140/117 116/123/103
f 116/123/103 132/140/117 133/141/118
f 116/123/103 133/141/118 117/124/104
f 117/124/104 133/141/118 134/142/119
f 117/124/104 134/142/119 118/125/105
f 118/125/105 134/142/119 135/143/120
f 118/125/105 135/143/120 119/126/106
f 119/126/106 135/143/120 136/144/121
f 119/126/106 136/144/121 120/127/107
f 120/127/107 136/144/121 137/145/16
f 120/127/107 137/145/16 121/128/16
f 121/128/16 137/145/16 138/146/122
f 121/128/16 138/146/122 122/129/108
f 122/129/108 138/146/122 139/147/123
f 122/129/108 139/147/123 123/130/109
f 123/130/109 139/147/123 140/148/124
f 123/130/109 140/148/124 124/131/110
f 124/131/110 140/148/124 141/149/125
f 124/131/110 141/149/125 125/132/111
f 125/132/111 141/149/125 142/150/126
f 125/132/111 142/150/126 126/133/112
f 126/133/112 142/150/126 143/151/127
f 126/133/112 143/151/127 127/134/113
f 127/134/113 143/151/127 144/152/128
f 127/134/113 144/152/128 128/135/114
f 128/135/114 144/152/128 129/153/1
f 128/135/114 129/153/1 113/136/1
f 129/137/1 145/154/1 146/155/129
f 129/137/1 146/155/129 130/138/115
f 130/138/115 146/155/129 147/156/130
f 130/138/115 147/156/130 131/139/116
f 131/139/116 147/156/130 148/157/131
f 131/139/116 148/157/131 132/140/117
f 132/140/117 148/157/131 149/158/132
f 132/140/117 149/158/132 133/141/118
f 133/141/118 149/158/132 150/159/133
f 133/141/118 150/159/133 134/142/119
f 134/142/119 150/159/133 151/160/134
f 134/142/119 151/160/134 135/143/120
f 135/143/120 151/160/134 152/161/135
f 135/143/120 152/161/135 136/144/121
f 136/144/121 152/161/135 153/162/16
f 136/144/121 153/162/16 137/145/16
f 137/145/16 153/162/16 154/163/136
f 137/145/16 154/163/136 138/146/122
f 138/146/122 154/163/136 155/164/137
f 138/146/122 155/164/137 139/147/123
f 139/147/123 155/164/137 156/165/138
f 139/147/123 156/165/138 140/148/124
f 140/148/124 156/165/138 157/166/139
f 140/148/124 157/166/139 141/149/125
f 141/149/125 157/166/139 158/167/140
f 141/149/125 158/167/140 142/150/126
f 142/150/126 158/167/140 159/168/141
f 142/150/126 159/168/141 143/151/127
f 143/151/127 159/168/141 160/169/142
f 143/151/127 160/169/142 144/152/128
f 144/152/128 160/169/142 145/170/1
f 144/152/128 145/170/1 129/153/1
f 145/154/1 161/171/1 162/172/143
f 145/154/1 162/172/143 146/155/129
f 146/155/129 162/172/143 163/173/144
f 146/155/129 163/173/144 147/156/130
f 147/156/130 163/173/144 164/174/145
f 147/156/130 164/174/145 148/157/131
f 148/157/131 164/174/145 165/175/146
f 148/157/131 165/175/146 149/158/132
f 149/158/132 165/175/146 166/176/147
f 149/158/132 166/176/147 150/159/133
f 150/159/133 166/176/147 167/177/148
f 150/159/133 167/177/148 151/160/134
f 151/160/134 167/177/148 168/178/149
f 151/160/134 168/178/149 152/161/135
f 152/161/135 168/178/149 169/179/16
f 152/161/135 169/179/16 153/162/16
f 153/162/16 169/179/16 170/180/150
f 153/162/16 170/180/150 154/163/136
f 154/163/136 170/180/150 171/181/151
f 154/163/136 171/181/151 155/164/137
f 155/164/137 171/181/151 172/182/152
f 155/164/137 172/182/152 156/165/138
f 156/165/138 172/182/152 173/183/153
f 156/165/138 173/183/153 157/166/139
f 157/166/139 173/183/153 174/184/154
f 157/166/139 174/184/154 158/167/140
f 158/167/140 174/184/154 175/185/155
f 158/167/140 175/185/155 159/168/141
f 159/168/141 175/185/155 176/186/156
f 159/168/141 176/186/156 160/169/142
f 160/169/142 176/186/156 161/187/1
f 160/169/142 161/187/1 145/170/1
f 161/171/1 177/188/1 178/189/157
f 161/171/1 178/189/157 162/172/143
f 162/172/143 178/189/157 179/190/158
f 162/172/143 179/190/158 163/173/144
f 163/173/144 179/190/158 180/191/159
f 163/173/144 180/191/159 164/174/145
f 164/174/145 180/191/159 181/192/160
f 164/174/145 181/192/160 165/175/146
f 165/175/146 181/192/160 182/193/161
f 165/175/146 182/193/161 166/176/147
f 166/176/147 182/193/161 183/194/162
f 166/176/147 183/194/162 167/177/148
f 167/177/148 183/194/162 184/195/163
f 167/177/148 184/195/163 168/178/149
f 168/178/149 184/195/163 185/196/16
f 168/178/149 185/196/16 169/179/16
f 169/179/16 185/196/16 186/197/164
f 169/179/16 186/197/164 170/180/150
f 170/180/150 186/197/164 187/198/165
f 170/180/150 187/198/165 171/181/151
f 171/181/151 187/198/165 188/199/166
f 171/181/151 188/199/166 172/182/152
f 172/182/152 188/199/166 189/200/167
f 172/182/152 189/200/167 173/183/153
f 173/183/153 189/200/167 190/201/168
f 173/183/153 190/201/168 174/184/154
f 174/184/154 190/201/168 191/202/169
f 174/184/154 191/202/169 175/185/155
f 175/185/155 191/202/169 192/203/170
f 175/185/155 192/203/170 176/186/156
f 176/186/156 192/203/170 177/204/1
f 176/186/156 177/204/1 161/187/1
f 177/188/1 193/205/1 194/206/171
f 177/188/1 194/206/171 178/189/157
f 178/189/157 194/206/171 195/207/172
f 178/189/157 195/207/172 179/190/158
f 179/190/158 195/207/172 196/208/173
f 179/190/158 196/208/173 180/191/159
f 180/191/159 196/208/173 197/209/174
f 180/191/159 197/209/174 181/192/160
f 181/192/160 197/209/174 198/210/175
f 181/192/160 198/210/175 182/193/161
f 182/193/161 198/210/175 199/211/176
f 182/193/161 199/211/176 183/194/162
f 183/194/162 199/211/176 200/212/177
f 183/194/162 200/212/177 184/195/163
f 184/195/163 200/212/177 201/213/16
f 184/195/163 201/213/16 185/196/16
f 185/196/16 201/213/16 202/214/178
f 185/196/16 202/214/178 186/197/164
f 186/197/164 202/214/178 203/215/179
f 186/197/164 203/215/179 187/198/165
f 187/198/165 203/215/179 204/216/180
f 187/198/165 204/216/180 188/199/166
f 188/199/166 204/216/180 205/217/181
f 188/199/166 205/217/181 189/200/167
f 189/200/167 205/217/181 206/218/182
f 189/200/167 206/218/182 190/201/168
f 190/201/168 206/218/182 207/219/183
f 190/201/168 207/219/183 191/202/169
f 191/202/169 207/219/183 208/220/184
f 191/202/169 208/220/184 192/203/170
f 192/203/170 208/220/184 193/221/1
f 192/203/170 193/221/1 177/204/1
