# Procedurally generated by dev-env-utils/scripts/gen_mast_arm_curves.py
# cell 1 of 6 at (+1 along arm, +0 up)
mtllib mastarmcurve.mtl
o mastarm_5x1_c1
v 0.780000 0.860000 1.000000
v 0.779375 0.886389 0.916667
v 0.758109 0.988410 0.948633
v 0.758686 0.962054 1.032657
v 0.697548 1.074900 0.975733
v 0.697990 1.048570 1.060343
v 0.606912 1.132690 0.993841
v 0.607151 1.106379 1.078841
v 0.500000 1.152983 1.000200
v 0.500000 1.126679 1.085337
v 0.393088 1.132690 0.993841
v 0.392849 1.106379 1.078841
v 0.302452 1.074900 0.975733
v 0.302010 1.048570 1.060343
v 0.241891 0.988410 0.948633
v 0.241314 0.962054 1.032657
v 0.220625 0.886389 0.916667
v 0.220000 0.860000 1.000000
v 0.241891 0.784368 0.884700
v 0.241314 0.757946 0.967343
v 0.302452 0.697878 0.857600
v 0.302010 0.671430 0.939657
v 0.393088 0.640088 0.839492
v 0.392849 0.613621 0.921159
v 0.500000 0.619794 0.833134
v 0.500000 0.593321 0.914663
v 0.606912 0.640088 0.839492
v 0.607151 0.613621 0.921159
v 0.697548 0.697878 0.857600
v 0.697990 0.671430 0.939657
v 0.758109 0.784368 0.884700
v 0.758686 0.757946 0.967343
v 0.778750 0.912222 0.833333
v 0.757531 1.014207 0.864609
v 0.697106 1.100666 0.891123
v 0.606673 1.158436 0.908839
v 0.500000 1.178722 0.915060
v 0.393327 1.158436 0.908839
v 0.302894 1.100666 0.891123
v 0.242469 1.014207 0.864609
v 0.221250 0.912222 0.833333
v 0.242469 0.810237 0.802058
v 0.302894 0.723778 0.775544
v 0.393327 0.666008 0.757828
v 0.500000 0.645722 0.751607
v 0.606673 0.666008 0.757828
v 0.697106 0.723778 0.775544
v 0.757531 0.810237 0.802058
v 0.778125 0.937500 0.750000
v 0.756954 1.039445 0.780584
v 0.696664 1.125870 0.806511
v 0.606434 1.183617 0.823835
v 0.500000 1.203895 0.829919
v 0.393566 1.183617 0.823835
v 0.303336 1.125870 0.806511
v 0.243046 1.039445 0.780584
v 0.221875 0.937500 0.750000
v 0.243046 0.835555 0.719416
v 0.303336 0.749130 0.693489
v 0.393566 0.691383 0.676165
v 0.500000 0.671105 0.670081
v 0.606434 0.691383 0.676165
v 0.696664 0.749130 0.693489
v 0.756954 0.835555 0.719416
v 0.777500 0.962222 0.666667
v 0.756377 1.064123 0.696558
v 0.696222 1.150511 0.721898
v 0.606195 1.208233 0.738830
v 0.500000 1.228503 0.744776
v 0.393805 1.208233 0.738830
v 0.303778 1.150511 0.721898
v 0.243623 1.064123 0.696558
v 0.222500 0.962222 0.666667
v 0.243623 0.860321 0.636776
v 0.303778 0.773934 0.611435
v 0.393805 0.716211 0.594503
v 0.500000 0.695942 0.588558
v 0.606195 0.716211 0.594503
v 0.696222 0.773934 0.611435
v 0.756377 0.860321 0.636776
v 0.776875 0.986389 0.583333
v 0.755799 1.088242 0.612531
v 0.695780 1.174589 0.637284
v 0.605955 1.232284 0.653823
v 0.500000 1.252544 0.659631
v 0.394045 1.232284 0.653823
v 0.304220 1.174589 0.637284
v 0.244201 1.088242 0.612531
v 0.223125 0.986389 0.583333
v 0.244201 0.884536 0.554135
v 0.304220 0.798189 0.529383
v 0.394045 0.740494 0.512843
v 0.500000 0.720234 0.507036
v 0.605955 0.740494 0.512843
v 0.695780 0.798189 0.529383
v 0.755799 0.884536 0.554135
v 0.776517 1.000000 0.535534
v 0.755468 1.101824 0.564334
v 0.695527 1.188146 0.588750
v 0.605818 1.245824 0.605063
v 0.500000 1.266078 0.610792
v 0.394182 1.245824 0.605063
v 0.304473 1.188146 0.588750
v 0.244532 1.101824 0.564334
v 0.223483 1.000000 0.535534
v 0.244532 0.898176 0.506734
v 0.304473 0.811854 0.482318
v 0.394182 0.754176 0.466004
v 0.500000 0.733922 0.460276
v 0.605818 0.754176 0.466004
v 0.695527 0.811854 0.482318
v 0.755468 0.898176 0.506734
vt 0.250000 0.286231
vt 0.250000 0.329937
vt 0.281250 0.329937
vt 0.281250 0.286231
vt 0.312500 0.329937
vt 0.312500 0.286231
vt 0.343750 0.329937
vt 0.343750 0.286231
vt 0.375000 0.329937
vt 0.375000 0.286231
vt 0.406250 0.329937
vt 0.406250 0.286231
vt 0.437500 0.329937
vt 0.437500 0.286231
vt 0.468750 0.329937
vt 0.468750 0.286231
vt 0.500000 0.329937
vt 0.500000 0.286231
vt 0.531250 0.329937
vt 0.531250 0.286231
vt 0.562500 0.329937
vt 0.562500 0.286231
vt 0.593750 0.329937
vt 0.593750 0.286231
vt 0.625000 0.329937
vt 0.625000 0.286231
vt 0.656250 0.329937
vt 0.656250 0.286231
vt 0.687500 0.329937
vt 0.687500 0.286231
vt 0.718750 0.329937
vt 0.718750 0.286231
vt 0.750000 0.329937
vt 0.750000 0.286231
vt 0.250000 0.373560
vt 0.281250 0.373560
vt 0.312500 0.373560
vt 0.343750 0.373560
vt 0.375000 0.373560
vt 0.406250 0.373560
vt 0.437500 0.373560
vt 0.468750 0.373560
vt 0.500000 0.373560
vt 0.531250 0.373560
vt 0.562500 0.373560
vt 0.593750 0.373560
vt 0.625000 0.373560
vt 0.656250 0.373560
vt 0.687500 0.373560
vt 0.718750 0.373560
vt 0.750000 0.373560
vt 0.250000 0.417101
vt 0.281250 0.417101
vt 0.312500 0.417101
vt 0.343750 0.417101
vt 0.375000 0.417101
vt 0.406250 0.417101
vt 0.437500 0.417101
vt 0.468750 0.417101
vt 0.500000 0.417101
vt 0.531250 0.417101
vt 0.562500 0.417101
vt 0.593750 0.417101
vt 0.625000 0.417101
vt 0.656250 0.417101
vt 0.687500 0.417101
vt 0.718750 0.417101
vt 0.750000 0.417101
vt 0.250000 0.460563
vt 0.281250 0.460563
vt 0.312500 0.460563
vt 0.343750 0.460563
vt 0.375000 0.460563
vt 0.406250 0.460563
vt 0.437500 0.460563
vt 0.468750 0.460563
vt 0.500000 0.460563
vt 0.531250 0.460563
vt 0.562500 0.460563
vt 0.593750 0.460563
vt 0.625000 0.460563
vt 0.656250 0.460563
vt 0.687500 0.460563
vt 0.718750 0.460563
vt 0.750000 0.460563
vt 0.250000 0.503946
vt 0.281250 0.503946
vt 0.312500 0.503946
vt 0.343750 0.503946
vt 0.375000 0.503946
vt 0.406250 0.503946
vt 0.437500 0.503946
vt 0.468750 0.503946
vt 0.500000 0.503946
vt 0.531250 0.503946
vt 0.562500 0.503946
vt 0.593750 0.503946
vt 0.625000 0.503946
vt 0.656250 0.503946
vt 0.687500 0.503946
vt 0.718750 0.503946
vt 0.750000 0.503946
vt 0.250000 0.528796
vt 0.281250 0.528796
vt 0.312500 0.528796
vt 0.343750 0.528796
vt 0.375000 0.528796
vt 0.406250 0.528796
vt 0.437500 0.528796
vt 0.468750 0.528796
vt 0.500000 0.528796
vt 0.531250 0.528796
vt 0.562500 0.528796
vt 0.593750 0.528796
vt 0.625000 0.528796
vt 0.656250 0.528796
vt 0.687500 0.528796
vt 0.718750 0.528796
vt 0.750000 0.528796
vn 1.000000 0.000000 0.000000
vn 0.923880 0.365177 0.114422
vn 0.923880 0.364477 0.116633
vn 0.707107 0.674759 0.211424
vn 0.707107 0.673466 0.215509
vn 0.382683 0.881615 0.276239
vn 0.382683 0.879925 0.281576
vn 0.000000 0.954253 0.298999
vn 0.000000 0.952424 0.304776
vn -0.382683 0.881615 0.276239
vn -0.382683 0.879925 0.281576
vn -0.707107 0.674759 0.211424
vn -0.707107 0.673466 0.215509
vn -0.923880 0.365177 0.114422
vn -0.923880 0.364477 0.116633
vn -1.000000 0.000000 0.000000
vn -0.923880 -0.365177 -0.114422
vn -0.923880 -0.364477 -0.116633
vn -0.707107 -0.674759 -0.211424
vn -0.707107 -0.673466 -0.215509
vn -0.382683 -0.881615 -0.276239
vn -0.382683 -0.879925 -0.281576
vn -0.000000 -0.954253 -0.298999
vn -0.000000 -0.952424 -0.304776
vn 0.382683 -0.881615 -0.276239
vn 0.382683 -0.879925 -0.281576
vn 0.707107 -0.674759 -0.211424
vn 0.707107 -0.673466 -0.215509
vn 0.923880 -0.365177 -0.114422
vn 0.923880 -0.364477 -0.116633
vn 0.923880 0.365866 0.112199
vn 0.707107 0.676032 0.207317
vn 0.382683 0.883279 0.270872
vn 0.000000 0.956054 0.293190
vn -0.382683 0.883279 0.270872
vn -0.707107 0.676032 0.207317
vn -0.923880 0.365866 0.112199
vn -0.923880 -0.365866 -0.112199
vn -0.707107 -0.676032 -0.207317
vn -0.382683 -0.883279 -0.270872
vn -0.000000 -0.956054 -0.293190
vn 0.382683 -0.883279 -0.270872
vn 0.707107 -0.676032 -0.207317
vn 0.923880 -0.365866 -0.112199
vn 0.923880 0.366544 0.109963
vn 0.707107 0.677285 0.203186
vn 0.382683 0.884916 0.265475
vn 0.000000 0.957826 0.287348
vn -0.382683 0.884916 0.265475
vn -0.707107 0.677285 0.203186
vn -0.923880 0.366544 0.109963
vn -0.923880 -0.366544 -0.109963
vn -0.707107 -0.677285 -0.203186
vn -0.382683 -0.884916 -0.265475
vn -0.000000 -0.957826 -0.287348
vn 0.382683 -0.884916 -0.265475
vn 0.707107 -0.677285 -0.203186
vn 0.923880 -0.366544 -0.109963
vn 0.923880 0.367211 0.107715
vn 0.707107 0.678518 0.199032
vn 0.382683 0.886526 0.260048
vn 0.000000 0.959569 0.281474
vn -0.382683 0.886526 0.260048
vn -0.707107 0.678518 0.199032
vn -0.923880 0.367211 0.107715
vn -0.923880 -0.367211 -0.107715
vn -0.707107 -0.678518 -0.199032
vn -0.382683 -0.886526 -0.260048
vn -0.000000 -0.959569 -0.281474
vn 0.382683 -0.886526 -0.260048
vn 0.707107 -0.678518 -0.199032
vn 0.923880 -0.367211 -0.107715
vn 0.923880 0.367867 0.105455
vn 0.707107 0.679729 0.194856
vn 0.382683 0.888109 0.254591
vn 0.000000 0.961282 0.275567
vn -0.382683 0.888109 0.254591
vn -0.707107 0.679729 0.194856
vn -0.923880 0.367867 0.105455
vn -0.923880 -0.367867 -0.105455
vn -0.707107 -0.679729 -0.194856
vn -0.382683 -0.888109 -0.254591
vn -0.000000 -0.961282 -0.275567
vn 0.382683 -0.888109 -0.254591
vn 0.707107 -0.679729 -0.194856
vn 0.923880 -0.367867 -0.105455
vn 0.923880 0.368237 0.104153
vn 0.707107 0.680414 0.192450
vn 0.382683 0.889003 0.251448
vn 0.000000 0.962250 0.272166
vn -0.382683 0.889003 0.251448
vn -0.707107 0.680414 0.192450
vn -0.923880 0.368237 0.104153
vn -0.923880 -0.368237 -0.104153
vn -0.707107 -0.680414 -0.192450
vn -0.382683 -0.889003 -0.251448
vn -0.000000 -0.962250 -0.272166
vn 0.382683 -0.889003 -0.251448
vn 0.707107 -0.680414 -0.192450
vn 0.923880 -0.368237 -0.104153
usemtl body
f 1/1/1 2/2/1 3/3/2
f 1/1/1 3/3/2 4/4/3
f 4/4/3 3/3/2 5/5/4
f 4/4/3 5/5/4 6/6/5
f 6/6/5 5/5/4 7/7/6
f 6/6/5 7/7/6 8/8/7
f 8/8/7 7/7/6 9/9/8
f 8/8/7 9/9/8 10/10/9
f 10/10/9 9/9/8 11/11/10
f 10/10/9 11/11/10 12/12/11
f 12/12/11 11/11/10 13/13/12
f 12/12/11 13/13/12 14/14/13
f 14/14/13 13/13/12 15/15/14
f 14/14/13 15/15/14 16/16/15
f 16/16/15 15/15/14 17/17/16
f 16/16/15 17/17/16 18/18/16
f 18/18/16 17/17/16 19/19/17
f 18/18/16 19/19/17 20/20/18
f 20/20/18 19/19/17 21/21/19
f 20/20/18 21/21/19 22/22/20
f 22/22/20 21/21/19 23/23/21
f 22/22/20 23/23/21 24/24/22
f 24/24/22 23/23/21 25/25/23
f 24/24/22 25/25/23 26/26/24
f 26/26/24 25/25/23 27/27/25
f 26/26/24 27/27/25 28/28/26
f 28/28/26 27/27/25 29/29/27
f 28/28/26 29/29/27 30/30/28
f 30/30/28 29/29/27 31/31/29
f 30/30/28 31/31/29 32/32/30
f 32/32/30 31/31/29 2/33/1
f 32/32/30 2/33/1 1/34/1
f 2/2/1 33/35/1 34/36/31
f 2/2/1 34/36/31 3/3/2
f 3/3/2 34/36/31 35/37/32
f 3/3/2 35/37/32 5/5/4
f 5/5/4 35/37/32 36/38/33
f 5/5/4 36/38/33 7/7/6
f 7/7/6 36/38/33 37/39/34
f 7/7/6 37/39/34 9/9/8
f 9/9/8 37/39/34 38/40/35
f 9/9/8 38/40/35 11/11/10
f 11/11/10 38/40/35 39/41/36
f 11/11/10 39/41/36 13/13/12
f 13/13/12 39/41/36 40/42/37
f 13/13/12 40/42/37 15/15/14
f 15/15/14 40/42/37 41/43/16
f 15/15/14 41/43/16 17/17/16
f 17/17/16 41/43/16 42/44/38
f 17/17/16 42/44/38 19/19/17
f 19/19/17 42/44/38 43/45/39
f 19/19/17 43/45/39 21/21/19
f 21/21/19 43/45/39 44/46/40
f 21/21/19 44/46/40 23/23/21
f 23/23/21 44/46/40 45/47/41
f 23/23/21 45/47/41 25/25/23
f 25/25/23 45/47/41 46/48/42
f 25/25/23 46/48/42 27/27/25
f 27/27/25 46/48/42 47/49/43
f 27/27/25 47/49/43 29/29/27
f 29/29/27 47/49/43 48/50/44
f 29/29/27 48/50/44 31/31/29
f 31/31/29 48/50/44 33/51/1
f 31/31/29 33/51/1 2/33/1
f 33/35/1 49/52/1 50/53/45
f 33/35/1 50/53/45 34/36/31
f 34/36/31 50/53/45 51/54/46
f 34/36/31 51/54/46 35/37/32
f 35/37/32 51/54/46 52/55/47
f 35/37/32 52/55/47 36/38/33
f 36/38/33 52/55/47 53/56/48
f 36/38/33 53/56/48 37/39/34
f 37/39/34 53/56/48 54/57/49
f 37/39/34 54/57/49 38/40/35
f 38/40/35 54/57/49 55/58/50
f 38/40/35 55/58/50 39/41/36
f 39/41/36 55/58/50 56/59/51
f 39/41/36 56/59/51 40/42/37
f 40/42/37 56/59/51 57/60/16
f 40/42/37 57/60/16 41/43/16
f 41/43/16 57/60/16 58/61/52
f 41/43/16 58/61/52 42/44/38
f 42/44/38 58/61/52 59/62/53
f 42/44/38 59/62/53 43/45/39
f 43/45/39 59/62/53 60/63/54
f 43/45/39 60/63/54 44/46/40
f 44/46/40 60/63/54 61/64/55
f 44/46/40 61/64/55 45/47/41
f 45/47/41 61/64/55 62/65/56
f 45/47/41 62/65/56 46/48/42
f 46/48/42 62/65/56 63/66/57
f 46/48/42 63/66/57 47/49/43
f 47/49/43 63/66/57 64/67/58
f 47/49/43 64/67/58 48/50/44
f 48/50/44 64/67/58 49/68/1
f 48/50/44 49/68/1 33/51/1
f 49/52/1 65/69/1 66/70/59
f 49/52/1 66/70/59 50/53/45
f 50/53/45 66/70/59 67/71/60
f 50/53/45 67/71/60 51/54/46
f 51/54/46 67/71/60 68/72/61
f 51/54/46 68/72/61 52/55/47
f 52/55/47 68/72/61 69/73/62
f 52/55/47 69/73/62 53/56/48
f 53/56/48 69/73/62 70/74/63
f 53/56/48 70/74/63 54/57/49
f 54/57/49 70/74/63 71/75/64
f 54/57/49 71/75/64 55/58/50
f 55/58/50 71/75/64 72/76/65
f 55/58/50 72/76/65 56/59/51
f 56/59/51 72/76/65 73/77/16
f 56/59/51 73/77/16 57/60/16
f 57/60/16 73/77/16 74/78/66
f 57/60/16 74/78/66 58/61/52
f 58/61/52 74/78/66 75/79/67
f 58/61/52 75/79/67 59/62/53
f 59/62/53 75/79/67 76/80/68
f 59/62/53 76/80/68 60/63/54
f 60/63/54 76/80/68 77/81/69
f 60/63/54 77/81/69 61/64/55
f 61/64/55 77/81/69 78/82/70
f 61/64/55 78/82/70 62/65/56
f 62/65/56 78/82/70 79/83/71
f 62/65/56 79/83/71 63/66/57
f 63/66/57 79/83/71 80/84/72
f 63/66/57 80/84/72 64/67/58
f 64/67/58 80/84/72 65/85/1
f 64/67/58 65/85/1 49/68/1
f 65/69/1 81/86/1 82/87/73
f 65/69/1 82/87/73 66/70/59
f 66/70/59 82/87/73 83/88/74
f 66/70/59 83/88/74 67/71/60
f 67/71/60 83/88/74 84/89/75
f 67/71/60 84/89/75 68/72/61
f 68/72/61 84/89/75 85/90/76
f 68/72/61 85/90/76 69/73/62
f 69/73/62 85/90/76 86/91/77
f 69/73/62 86/91/77 70/74/63
f 70/74/63 86/91/77 87/92/78
f 70/74/63 87/92/78 71/75/64
f 71/75/64 87/92/78 88/93/79
f 71/75/64 88/93/79 72/76/65
f 72/76/65 88/93/79 89/94/16
f 72/76/65 89/94/16 73/77/16
f 73/77/16 89/94/16 90/95/80
f 73/77/16 90/95/80 74/78/66
f 74/78/66 90/95/80 91/96/81
f 74/78/66 91/96/81 75/79/67
f 75/79/67 91/96/81 92/97/82
f 75/79/67 92/97/82 76/80/68
f 76/80/68 92/97/82 93/98/83
f 76/80/68 93/98/83 77/81/69
f 77/81/69 93/98/83 94/99/84
f 77/81/69 94/99/84 78/82/70
f 78/82/70 94/99/84 95/100/85
f 78/82/70 95/100/85 79/83/71
f 79/83/71 95/100/85 96/101/86
f 79/83/71 96/101/86 80/84/72
f 80/84/72 96/101/86 81/102/1
f 80/84/72 81/102/1 65/85/1
f 81/86/1 97/103/1 98/104/87
f 81/86/1 98/104/87 82/87/73
f 82/87/73 98/104/87 99/105/88
f 82/87/73 99/105/88 83/88/74
f 83/88/74 99/105/88 100/106/89
f 83/88/74 100/106/89 84/89/75
f 84/89/75 100/106/89 101/107/90
f 84/89/75 101/107/90 85/90/76
f 85/90/76 101/107/90 102/108/91
f 85/90/76 102/108/91 86/91/77
f 86/91/77 102/108/91 103/109/92
f 86/91/77 103/109/92 87/92/78
f 87/92/78 103/109/92 104/110/93
f 87/92/78 104/110/93 88/93/79
f 88/93/79 104/110/93 105/111/16
f 88/93/79 105/111/16 89/94/16
f 89/94/16 105/111/16 106/112/94
f 89/94/16 106/112/94 90/95/80
f 90/95/80 106/112/94 107/113/95
f 90/95/80 107/113/95 91/96/81
f 91/96/81 107/113/95 108/114/96
f 91/96/81 108/114/96 92/97/82
f 92/97/82 108/114/96 109/115/97
f 92/97/82 109/115/97 93/98/83
f 93/98/83 109/115/97 110/116/98
f 93/98/83 110/116/98 94/99/84
f 94/99/84 110/116/98 111/117/99
f 94/99/84 111/117/99 95/100/85
f 95/100/85 111/117/99 112/118/100
f 95/100/85 112/118/100 96/101/86
f 96/101/86 112/118/100 97/119/1
f 96/101/86 97/119/1 81/102/1
