# Procedurally generated by dev-env-utils/scripts/gen_mast_arm_curves.py
# cell 0 of 5 at (+0 along arm, +0 up)
mtllib mastarmcurve.mtl
o mastarm_4x1_c0
v 0.500000 0.393479 1.204304
v 0.815284 0.346003 1.296971
v 0.790504 0.500398 1.262866
v 0.721610 0.648431 1.197488
v 0.619643 0.750622 1.144598
v 0.500000 0.785055 1.125000
v 0.380357 0.750622 1.144598
v 0.278390 0.648431 1.197488
v 0.209496 0.500398 1.262866
v 0.184716 0.346003 1.296971
v 0.208503 0.226571 1.264088
v 0.277013 0.145772 1.198501
v 0.379399 0.097159 1.144922
v 0.500000 0.080703 1.125000
v 0.620601 0.097159 1.144922
v 0.722987 0.145772 1.198501
v 0.791497 0.226571 1.264088
v 0.803124 0.541233 0.916667
v 0.780050 0.645417 0.967674
v 0.714341 0.733741 1.010915
v 0.616001 0.792756 1.039809
v 0.500000 0.813480 1.049954
v 0.383999 0.792756 1.039809
v 0.285659 0.733741 1.010915
v 0.219950 0.645417 0.967674
v 0.196876 0.541233 0.916667
v 0.219950 0.437048 0.865660
v 0.285659 0.348725 0.822418
v 0.383999 0.289709 0.793525
v 0.500000 0.268985 0.783379
v 0.616001 0.289709 0.793525
v 0.714341 0.348725 0.822418
v 0.780050 0.437048 0.865660
v 0.795183 0.581597 0.833333
v 0.772714 0.683468 0.882146
v 0.708726 0.769830 0.923528
v 0.612962 0.827535 0.951178
v 0.500000 0.847798 0.960888
v 0.387038 0.827535 0.951178
v 0.291274 0.769830 0.923528
v 0.227286 0.683468 0.882146
v 0.204817 0.581597 0.833333
v 0.227286 0.479726 0.784520
v 0.291274 0.393365 0.743139
v 0.387038 0.335659 0.715488
v 0.500000 0.315396 0.705779
v 0.612962 0.335659 0.715488
v 0.708726 0.393365 0.743139
v 0.772714 0.479726 0.784520
v 0.788907 0.621094 0.750000
v 0.766915 0.721201 0.796925
v 0.704288 0.806068 0.836707
v 0.610560 0.862774 0.863288
v 0.500000 0.882687 0.872622
v 0.389440 0.862774 0.863288
v 0.295712 0.806068 0.836707
v 0.233085 0.721201 0.796925
v 0.211093 0.621094 0.750000
v 0.233085 0.520986 0.703075
v 0.295712 0.436119 0.663293
v 0.389440 0.379413 0.636712
v 0.500000 0.359501 0.627378
v 0.610560 0.379413 0.636712
v 0.704288 0.436119 0.663293
v 0.766915 0.520986 0.703075
v 0.784764 0.659722 0.666667
v 0.763087 0.758787 0.712071
v 0.701358 0.842770 0.750564
v 0.608974 0.898886 0.776283
v 0.500000 0.918591 0.785315
v 0.391026 0.898886 0.776283
v 0.298642 0.842770 0.750564
v 0.236913 0.758787 0.712071
v 0.215236 0.659722 0.666667
v 0.236913 0.560658 0.621262
v 0.298642 0.476675 0.582770
v 0.391026 0.420559 0.557050
v 0.500000 0.400854 0.548019
v 0.608974 0.420559 0.557050
v 0.701358 0.476675 0.582770
v 0.763087 0.560658 0.621262
v 0.783594 0.697483 0.583333
v 0.762006 0.796527 0.627697
v 0.700531 0.880494 0.665307
v 0.608527 0.936598 0.690437
v 0.500000 0.956299 0.699262
v 0.391473 0.936598 0.690437
v 0.299469 0.880494 0.665307
v 0.237994 0.796527 0.627697
v 0.216406 0.697483 0.583333
v 0.237994 0.598438 0.538970
v 0.299469 0.514472 0.501360
v 0.391473 0.458367 0.476230
v 0.500000 0.438666 0.467405
v 0.608527 0.458367 0.476230
v 0.700531 0.514472 0.501360
v 0.762006 0.598438 0.538970
v 0.782812 0.734375 0.500000
v 0.761285 0.833529 0.543380
v 0.699979 0.917587 0.580155
v 0.608228 0.973753 0.604728
v 0.500000 0.993476 0.613357
v 0.391772 0.973753 0.604728
v 0.300021 0.917587 0.580155
v 0.238715 0.833529 0.543380
v 0.217188 0.734375 0.500000
v 0.238715 0.635221 0.456620
v 0.300021 0.551163 0.419845
v 0.391772 0.494997 0.395272
v 0.500000 0.475274 0.386643
v 0.608228 0.494997 0.395272
v 0.699979 0.551163 0.419845
v 0.761285 0.635221 0.456620
v 0.782031 0.770399 0.416667
v 0.760563 0.869655 0.459057
v 0.699426 0.953800 0.494994
v 0.607929 1.010023 0.519006
v 0.500000 1.029766 0.527438
v 0.392071 1.010023 0.519006
v 0.300574 0.953800 0.494994
v 0.239437 0.869655 0.459057
v 0.217969 0.770399 0.416667
v 0.239437 0.671144 0.374276
v 0.300574 0.586999 0.338339
v 0.392071 0.530775 0.314327
v 0.500000 0.511032 0.305895
v 0.607929 0.530775 0.314327
v 0.699426 0.586999 0.338339
v 0.760563 0.671144 0.374276
v 0.781250 0.805556 0.333333
v 0.759841 0.904906 0.374729
v 0.698874 0.989131 0.409823
v 0.607630 1.045409 0.433272
v 0.500000 1.065171 0.441506
v 0.392370 1.045409 0.433272
v 0.301126 0.989131 0.409823
v 0.240159 0.904906 0.374729
v 0.218750 0.805556 0.333333
v 0.240159 0.706205 0.291937
v 0.301126 0.621980 0.256843
v 0.392370 0.565702 0.233394
v 0.500000 0.545940 0.225160
v 0.607630 0.565702 0.233394
v 0.698874 0.621980 0.256843
v 0.759841 0.706205 0.291937
v 0.780469 0.839844 0.250000
v 0.759119 0.939282 0.290397
v 0.698321 1.023582 0.324644
v 0.607331 1.079909 0.347527
v 0.500000 1.099689 0.355562
v 0.392669 1.079909 0.347527
v 0.301679 1.023582 0.324644
v 0.240881 0.939282 0.290397
v 0.219531 0.839844 0.250000
v 0.240881 0.740405 0.209603
v 0.301679 0.656106 0.175356
v 0.392669 0.599778 0.152473
v 0.500000 0.579999 0.144438
v 0.607331 0.599778 0.152473
v 0.698321 0.656106 0.175356
v 0.759119 0.740405 0.209603
v 0.779687 0.873264 0.166667
v 0.758398 0.972783 0.206060
v 0.697769 1.057151 0.239455
v 0.607032 1.113524 0.261769
v 0.500000 1.133319 0.269605
v 0.392968 1.113524 0.261769
v 0.302231 1.057151 0.239455
v 0.241602 0.972783 0.206060
v 0.220313 0.873264 0.166667
v 0.241602 0.773745 0.127274
v 0.302231 0.689377 0.093878
v 0.392968 0.633004 0.071564
v 0.500000 0.613209 0.063728
v 0.607032 0.633004 0.071564
v 0.697769 0.689377 0.093878
v 0.758398 0.773745 0.127274
v 0.778906 0.905816 0.083333
v 0.757676 1.005408 0.121718
v 0.697217 1.089838 0.154258
v 0.606733 1.146252 0.176001
v 0.500000 1.166062 0.183636
v 0.393267 1.146252 0.176001
v 0.302783 1.089838 0.154258
v 0.242324 1.005408 0.121718
v 0.221094 0.905816 0.083333
v 0.242324 0.806224 0.044949
v 0.302783 0.721794 0.012408
v 0.393267 0.665380 -0.009335
v 0.500000 0.645570 -0.016970
v 0.606733 0.665380 -0.009335
v 0.697217 0.721794 0.012408
v 0.757676 0.806224 0.044949
v 0.778125 0.937500 0.000000
v 0.756954 1.037157 0.037371
v 0.696664 1.121642 0.069053
v 0.606434 1.178094 0.090223
v 0.500000 1.197917 0.097656
v 0.393566 1.178094 0.090223
v 0.303336 1.121642 0.069053
v 0.243046 1.037157 0.037371
v 0.221875 0.937500 0.000000
v 0.243046 0.837843 -0.037371
v 0.303336 0.753358 -0.069053
v 0.393566 0.696906 -0.090223
v 0.500000 0.677083 -0.097656
v 0.606434 0.696906 -0.090223
v 0.696664 0.753358 -0.069053
v 0.756954 0.837843 -0.037371
vt 0.500000 0.500000
vt 0.700000 0.500000
vt 0.684776 0.423463
vt 0.641421 0.358579
vt 0.576537 0.315224
vt 0.500000 0.300000
vt 0.423463 0.315224
vt 0.358579 0.358579
vt 0.315224 0.423463
vt 0.300000 0.500000
vt 0.315224 0.576537
vt 0.358579 0.641421
vt 0.423463 0.684776
vt 0.500000 0.700000
vt 0.576537 0.684776
vt 0.641421 0.641421
vt 0.684776 0.576537
vt 0.250000 0.750000
vt 0.250000 0.711138
vt 0.281250 0.711138
vt 0.281250 0.750000
vt 0.312500 0.711138
vt 0.312500 0.750000
vt 0.343750 0.711138
vt 0.343750 0.750000
vt 0.375000 0.711138
vt 0.375000 0.750000
vt 0.406250 0.711138
vt 0.406250 0.750000
vt 0.437500 0.711138
vt 0.437500 0.750000
vt 0.468750 0.711138
vt 0.468750 0.750000
vt 0.500000 0.711138
vt 0.500000 0.750000
vt 0.531250 0.711138
vt 0.531250 0.750000
vt 0.562500 0.711138
vt 0.562500 0.750000
vt 0.593750 0.711138
vt 0.593750 0.750000
vt 0.625000 0.711138
vt 0.625000 0.750000
vt 0.656250 0.711138
vt 0.656250 0.750000
vt 0.687500 0.711138
vt 0.687500 0.750000
vt 0.718750 0.711138
vt 0.718750 0.750000
vt 0.750000 0.711138
vt 0.750000 0.750000
vt 0.250000 0.664841
vt 0.281250 0.664841
vt 0.312500 0.664841
vt 0.343750 0.664841
vt 0.375000 0.664841
vt 0.406250 0.664841
vt 0.437500 0.664841
vt 0.468750 0.664841
vt 0.500000 0.664841
vt 0.531250 0.664841
vt 0.562500 0.664841
vt 0.593750 0.664841
vt 0.625000 0.664841
vt 0.656250 0.664841
vt 0.687500 0.664841
vt 0.718750 0.664841
vt 0.750000 0.664841
vt 0.250000 0.618731
vt 0.281250 0.618731
vt 0.312500 0.618731
vt 0.343750 0.618731
vt 0.375000 0.618731
vt 0.406250 0.618731
vt 0.437500 0.618731
vt 0.468750 0.618731
vt 0.500000 0.618731
vt 0.531250 0.618731
vt 0.562500 0.618731
vt 0.593750 0.618731
vt 0.625000 0.618731
vt 0.656250 0.618731
vt 0.687500 0.618731
vt 0.718750 0.618731
vt 0.750000 0.618731
vt 0.250000 0.572806
vt 0.281250 0.572806
vt 0.312500 0.572806
vt 0.343750 0.572806
vt 0.375000 0.572806
vt 0.406250 0.572806
vt 0.437500 0.572806
vt 0.468750 0.572806
vt 0.500000 0.572806
vt 0.531250 0.572806
vt 0.562500 0.572806
vt 0.593750 0.572806
vt 0.625000 0.572806
vt 0.656250 0.572806
vt 0.687500 0.572806
vt 0.718750 0.572806
vt 0.750000 0.572806
vt 0.250000 0.527061
vt 0.281250 0.527061
vt 0.312500 0.527061
vt 0.343750 0.527061
vt 0.375000 0.527061
vt 0.406250 0.527061
vt 0.437500 0.527061
vt 0.468750 0.527061
vt 0.500000 0.527061
vt 0.531250 0.527061
vt 0.562500 0.527061
vt 0.593750 0.527061
vt 0.625000 0.527061
vt 0.656250 0.527061
vt 0.687500 0.527061
vt 0.718750 0.527061
vt 0.750000 0.527061
vt 0.250000 0.481494
vt 0.281250 0.481494
vt 0.312500 0.481494
vt 0.343750 0.481494
vt 0.375000 0.481494
vt 0.406250 0.481494
vt 0.437500 0.481494
vt 0.468750 0.481494
vt 0.500000 0.481494
vt 0.531250 0.481494
vt 0.562500 0.481494
vt 0.593750 0.481494
vt 0.625000 0.481494
vt 0.656250 0.481494
vt 0.687500 0.481494
vt 0.718750 0.481494
vt 0.750000 0.481494
vt 0.250000 0.436100
vt 0.281250 0.436100
vt 0.312500 0.436100
vt 0.343750 0.436100
vt 0.375000 0.436100
vt 0.406250 0.436100
vt 0.437500 0.436100
vt 0.468750 0.436100
vt 0.500000 0.436100
vt 0.531250 0.436100
vt 0.562500 0.436100
vt 0.593750 0.436100
vt 0.625000 0.436100
vt 0.656250 0.436100
vt 0.687500 0.436100
vt 0.718750 0.436100
vt 0.750000 0.436100
vt 0.250000 0.390878
vt 0.281250 0.390878
vt 0.312500 0.390878
vt 0.343750 0.390878
vt 0.375000 0.390878
vt 0.406250 0.390878
vt 0.437500 0.390878
vt 0.468750 0.390878
vt 0.500000 0.390878
vt 0.531250 0.390878
vt 0.562500 0.390878
vt 0.593750 0.390878
vt 0.625000 0.390878
vt 0.656250 0.390878
vt 0.687500 0.390878
vt 0.718750 0.390878
vt 0.750000 0.390878
vt 0.250000 0.345822
vt 0.281250 0.345822
vt 0.312500 0.345822
vt 0.343750 0.345822
vt 0.375000 0.345822
vt 0.406250 0.345822
vt 0.437500 0.345822
vt 0.468750 0.345822
vt 0.500000 0.345822
vt 0.531250 0.345822
vt 0.562500 0.345822
vt 0.593750 0.345822
vt 0.625000 0.345822
vt 0.656250 0.345822
vt 0.687500 0.345822
vt 0.718750 0.345822
vt 0.750000 0.345822
vt 0.250000 0.300929
vt 0.281250 0.300929
vt 0.312500 0.300929
vt 0.343750 0.300929
vt 0.375000 0.300929
vt 0.406250 0.300929
vt 0.437500 0.300929
vt 0.468750 0.300929
vt 0.500000 0.300929
vt 0.531250 0.300929
vt 0.562500 0.300929
vt 0.593750 0.300929
vt 0.625000 0.300929
vt 0.656250 0.300929
vt 0.687500 0.300929
vt 0.718750 0.300929
vt 0.750000 0.300929
vt 0.250000 0.256196
vt 0.281250 0.256196
vt 0.312500 0.256196
vt 0.343750 0.256196
vt 0.375000 0.256196
vt 0.406250 0.256196
vt 0.437500 0.256196
vt 0.468750 0.256196
vt 0.500000 0.256196
vt 0.531250 0.256196
vt 0.562500 0.256196
vt 0.593750 0.256196
vt 0.625000 0.256196
vt 0.656250 0.256196
vt 0.687500 0.256196
vt 0.718750 0.256196
vt 0.750000 0.256196
vt 0.250000 0.288380
vt 0.281250 0.288380
vt 0.312500 0.288380
vt 0.343750 0.288380
vt 0.375000 0.288380
vt 0.406250 0.288380
vt 0.437500 0.288380
vt 0.468750 0.288380
vt 0.500000 0.288380
vt 0.531250 0.288380
vt 0.562500 0.288380
vt 0.593750 0.288380
vt 0.625000 0.288380
vt 0.656250 0.288380
vt 0.687500 0.288380
vt 0.718750 0.288380
vt 0.750000 0.288380
vn 0.000000 0.000000 1.000000
vn 1.000000 0.000000 0.000000
vn 0.923880 0.343703 0.168271
vn 0.923880 0.338707 0.178112
vn 0.707107 0.635080 0.310924
vn 0.707107 0.629390 0.322286
vn 0.382683 0.829771 0.406242
vn 0.382683 0.825721 0.414413
vn 0.000000 0.898138 0.439713
vn 0.000000 0.895037 0.445992
vn -0.382683 0.829771 0.406242
vn -0.382683 0.825721 0.414413
vn -0.707107 0.635080 0.310924
vn -0.707107 0.629390 0.322286
vn -0.923880 0.343703 0.168271
vn -0.923880 0.338707 0.178112
vn -1.000000 0.000000 0.000000
vn -0.923880 -0.343703 -0.168271
vn -0.923880 -0.336699 -0.181880
vn -0.707107 -0.635080 -0.310924
vn -0.707107 -0.622702 -0.335026
vn -0.382683 -0.829771 -0.406242
vn -0.382683 -0.814525 -0.436008
vn -0.000000 -0.898138 -0.439713
vn -0.000000 -0.882042 -0.471170
vn 0.382683 -0.829771 -0.406242
vn 0.382683 -0.814525 -0.436008
vn 0.707107 -0.635080 -0.310924
vn 0.707107 -0.622702 -0.335026
vn 0.923880 -0.343703 -0.168271
vn 0.923880 -0.336699 -0.181880
vn 0.923880 0.345110 0.165365
vn 0.707107 0.637680 0.305555
vn 0.382683 0.833169 0.399227
vn 0.000000 0.901816 0.432120
vn -0.382683 0.833169 0.399227
vn -0.707107 0.637680 0.305555
vn -0.923880 0.345110 0.165365
vn -0.923880 -0.345110 -0.165365
vn -0.707107 -0.637680 -0.305555
vn -0.382683 -0.833169 -0.399227
vn -0.000000 -0.901816 -0.432120
vn 0.382683 -0.833169 -0.399227
vn 0.707107 -0.637680 -0.305555
vn 0.923880 -0.345110 -0.165365
vn 0.923880 0.346504 0.162424
vn 0.707107 0.640256 0.300120
vn 0.382683 0.836535 0.392126
vn 0.000000 0.905459 0.424434
vn -0.382683 0.836535 0.392126
vn -0.707107 0.640256 0.300120
vn -0.923880 0.346504 0.162424
vn -0.923880 -0.346504 -0.162424
vn -0.707107 -0.640256 -0.300120
vn -0.382683 -0.836535 -0.392126
vn -0.000000 -0.905459 -0.424434
vn 0.382683 -0.836535 -0.392126
vn 0.707107 -0.640256 -0.300120
vn 0.923880 -0.346504 -0.162424
vn 0.923880 0.347884 0.159447
vn 0.707107 0.642806 0.294619
vn 0.382683 0.839866 0.384939
vn 0.000000 0.909065 0.416655
vn -0.382683 0.839866 0.384939
vn -0.707107 0.642806 0.294619
vn -0.923880 0.347884 0.159447
vn -0.923880 -0.347884 -0.159447
vn -0.707107 -0.642806 -0.294619
vn -0.382683 -0.839866 -0.384939
vn -0.000000 -0.909065 -0.416655
vn 0.382683 -0.839866 -0.384939
vn 0.707107 -0.642806 -0.294619
vn 0.923880 -0.347884 -0.159447
vn 0.923880 0.349249 0.156434
vn 0.707107 0.645328 0.289053
vn 0.382683 0.843162 0.377666
vn 0.000000 0.912632 0.408783
vn -0.382683 0.843162 0.377666
vn -0.707107 0.645328 0.289053
vn -0.923880 0.349249 0.156434
vn -0.923880 -0.349249 -0.156434
vn -0.707107 -0.645328 -0.289053
vn -0.382683 -0.843162 -0.377666
vn -0.000000 -0.912632 -0.408783
vn 0.382683 -0.843162 -0.377666
vn 0.707107 -0.645328 -0.289053
vn 0.923880 -0.349249 -0.156434
vn 0.923880 0.350598 0.153387
vn 0.707107 0.647821 0.283422
vn 0.382683 0.846419 0.370308
vn 0.000000 0.916157 0.400819
vn -0.382683 0.846419 0.370308
vn -0.707107 0.647821 0.283422
vn -0.923880 0.350598 0.153387
vn -0.923880 -0.350598 -0.153387
vn -0.707107 -0.647821 -0.283422
vn -0.382683 -0.846419 -0.370308
vn -0.000000 -0.916157 -0.400819
vn 0.382683 -0.846419 -0.370308
vn 0.707107 -0.647821 -0.283422
vn 0.923880 -0.350598 -0.153387
vn 0.923880 0.351931 0.150304
vn 0.707107 0.650284 0.277725
vn 0.382683 0.849636 0.362866
vn 0.000000 0.919640 0.392763
vn -0.382683 0.849636 0.362866
vn -0.707107 0.650284 0.277725
vn -0.923880 0.351931 0.150304
vn -0.923880 -0.351931 -0.150304
vn -0.707107 -0.650284 -0.277725
vn -0.382683 -0.849636 -0.362866
vn -0.000000 -0.919640 -0.392763
vn 0.382683 -0.849636 -0.362866
vn 0.707107 -0.650284 -0.277725
vn 0.923880 -0.351931 -0.150304
vn 0.923880 0.353246 0.147186
vn 0.707107 0.652714 0.271964
vn 0.382683 0.852812 0.355338
vn 0.000000 0.923077 0.384615
vn -0.382683 0.852812 0.355338
vn -0.707107 0.652714 0.271964
vn -0.923880 0.353246 0.147186
vn -0.923880 -0.353246 -0.147186
vn -0.707107 -0.652714 -0.271964
vn -0.382683 -0.852812 -0.355338
vn -0.000000 -0.923077 -0.384615
vn 0.382683 -0.852812 -0.355338
vn 0.707107 -0.652714 -0.271964
vn 0.923880 -0.353246 -0.147186
vn 0.923880 0.354543 0.144033
vn 0.707107 0.655111 0.266139
vn 0.382683 0.855944 0.347727
vn 0.000000 0.926467 0.376377
vn -0.382683 0.855944 0.347727
vn -0.707107 0.655111 0.266139
vn -0.923880 0.354543 0.144033
vn -0.923880 -0.354543 -0.144033
vn -0.707107 -0.655111 -0.266139
vn -0.382683 -0.855944 -0.347727
vn -0.000000 -0.926467 -0.376377
vn 0.382683 -0.855944 -0.347727
vn 0.707107 -0.655111 -0.266139
vn 0.923880 -0.354543 -0.144033
vn 0.923880 0.355822 0.140846
vn 0.707107 0.657473 0.260250
vn 0.382683 0.859029 0.340032
vn 0.000000 0.929807 0.368048
vn -0.382683 0.859029 0.340032
vn -0.707107 0.657473 0.260250
vn -0.923880 0.355822 0.140846
vn -0.923880 -0.355822 -0.140846
vn -0.707107 -0.657473 -0.260250
vn -0.382683 -0.859029 -0.340032
vn -0.000000 -0.929807 -0.368048
vn 0.382683 -0.859029 -0.340032
vn 0.707107 -0.657473 -0.260250
vn 0.923880 -0.355822 -0.140846
vn 0.923880 0.357080 0.137625
vn 0.707107 0.659798 0.254297
vn 0.382683 0.862067 0.332255
vn 0.000000 0.933095 0.359630
vn -0.382683 0.862067 0.332255
vn -0.707107 0.659798 0.254297
vn -0.923880 0.357080 0.137625
vn -0.923880 -0.357080 -0.137625
vn -0.707107 -0.659798 -0.254297
vn -0.382683 -0.862067 -0.332255
vn -0.000000 -0.933095 -0.359630
vn 0.382683 -0.862067 -0.332255
vn 0.707107 -0.659798 -0.254297
vn 0.923880 -0.357080 -0.137625
vn 0.923880 0.358318 0.134369
vn 0.707107 0.662085 0.248282
vn 0.382683 0.865055 0.324396
vn 0.000000 0.936329 0.351123
vn -0.382683 0.865055 0.324396
vn -0.707107 0.662085 0.248282
vn -0.923880 0.358318 0.134369
vn -0.923880 -0.358318 -0.134369
vn -0.707107 -0.662085 -0.248282
vn -0.382683 -0.865055 -0.324396
vn -0.000000 -0.936329 -0.351123
vn 0.382683 -0.865055 -0.324396
vn 0.707107 -0.662085 -0.248282
vn 0.923880 -0.358318 -0.134369
usemtl body
f 1/1/1 2/2/1 3/3/1
f 1/1/1 3/3/1 4/4/1
f 1/1/1 4/4/1 5/5/1
f 1/1/1 5/5/1 6/6/1
f 1/1/1 6/6/1 7/7/1
f 1/1/1 7/7/1 8/8/1
f 1/1/1 8/8/1 9/9/1
f 1/1/1 9/9/1 10/10/1
f 1/1/1 10/10/1 11/11/1
f 1/1/1 11/11/1 12/12/1
f 1/1/1 12/12/1 13/13/1
f 1/1/1 13/13/1 14/14/1
f 1/1/1 14/14/1 15/15/1
f 1/1/1 15/15/1 16/16/1
f 1/1/1 16/16/1 17/17/1
f 1/1/1 17/17/1 2/2/1
f 2/18/2 18/19/2 19/20/3
f 2/18/2 19/20/3 3/21/4
f 3/21/4 19/20/3 20/22/5
f 3/21/4 20/22/5 4/23/6
f 4/23/6 20/22/5 21/24/7
f 4/23/6 21/24/7 5/25/8
f 5/25/8 21/24/7 22/26/9
f 5/25/8 22/26/9 6/27/10
f 6/27/10 22/26/9 23/28/11
f 6/27/10 23/28/11 7/29/12
f 7/29/12 23/28/11 24/30/13
f 7/29/12 24/30/13 8/31/14
f 8/31/14 24/30/13 25/32/15
f 8/31/14 25/32/15 9/33/16
f 9/33/16 25/32/15 26/34/17
f 9/33/16 26/34/17 10/35/17
f 10/35/17 26/34/17 27/36/18
f 10/35/17 27/36/18 11/37/19
f 11/37/19 27/36/18 28/38/20
f 11/37/19 28/38/20 12/39/21
f 12/39/21 28/38/20 29/40/22
f 12/39/21 29/40/22 13/41/23
f 13/41/23 29/40/22 30/42/24
f 13/41/23 30/42/24 14/43/25
f 14/43/25 30/42/24 31/44/26
f 14/43/25 31/44/26 15/45/27
f 15/45/27 31/44/26 32/46/28
f 15/45/27 32/46/28 16/47/29
f 16/47/29 32/46/28 33/48/30
f 16/47/29 33/48/30 17/49/31
f 17/49/31 33/48/30 18/50/2
f 17/49/31 18/50/2 2/51/2
f 18/19/2 34/52/2 35/53/32
f 18/19/2 35/53/32 19/20/3
f 19/20/3 35/53/32 36/54/33
f 19/20/3 36/54/33 20/22/5
f 20/22/5 36/54/33 37/55/34
f 20/22/5 37/55/34 21/24/7
f 21/24/7 37/55/34 38/56/35
f 21/24/7 38/56/35 22/26/9
f 22/26/9 38/56/35 39/57/36
f 22/26/9 39/57/36 23/28/11
f 23/28/11 39/57/36 40/58/37
f 23/28/11 40/58/37 24/30/13
f 24/30/13 40/58/37 41/59/38
f 24/30/13 41/59/38 25/32/15
f 25/32/15 41/59/38 42/60/17
f 25/32/15 42/60/17 26/34/17
f 26/34/17 42/60/17 43/61/39
f 26/34/17 43/61/39 27/36/18
f 27/36/18 43/61/39 44/62/40
f 27/36/18 44/62/40 28/38/20
f 28/38/20 44/62/40 45/63/41
f 28/38/20 45/63/41 29/40/22
f 29/40/22 45/63/41 46/64/42
f 29/40/22 46/64/42 30/42/24
f 30/42/24 46/64/42 47/65/43
f 30/42/24 47/65/43 31/44/26
f 31/44/26 47/65/43 48/66/44
f 31/44/26 48/66/44 32/46/28
f 32/46/28 48/66/44 49/67/45
f 32/46/28 49/67/45 33/48/30
f 33/48/30 49/67/45 34/68/2
f 33/48/30 34/68/2 18/50/2
f 34/52/2 50/69/2 51/70/46
f 34/52/2 51/70/46 35/53/32
f 35/53/32 51/70/46 52/71/47
f 35/53/32 52/71/47 36/54/33
f 36/54/33 52/71/47 53/72/48
f 36/54/33 53/72/48 37/55/34
f 37/55/34 53/72/48 54/73/49
f 37/55/34 54/73/49 38/56/35
f 38/56/35 54/73/49 55/74/50
f 38/56/35 55/74/50 39/57/36
f 39/57/36 55/74/50 56/75/51
f 39/57/36 56/75/51 40/58/37
f 40/58/37 56/75/51 57/76/52
f 40/58/37 57/76/52 41/59/38
f 41/59/38 57/76/52 58/77/17
f 41/59/38 58/77/17 42/60/17
f 42/60/17 58/77/17 59/78/53
f 42/60/17 59/78/53 43/61/39
f 43/61/39 59/78/53 60/79/54
f 43/61/39 60/79/54 44/62/40
f 44/62/40 60/79/54 61/80/55
f 44/62/40 61/80/55 45/63/41
f 45/63/41 61/80/55 62/81/56
f 45/63/41 62/81/56 46/64/42
f 46/64/42 62/81/56 63/82/57
f 46/64/42 63/82/57 47/65/43
f 47/65/43 63/82/57 64/83/58
f 47/65/43 64/83/58 48/66/44
f 48/66/44 64/83/58 65/84/59
f 48/66/44 65/84/59 49/67/45
f 49/67/45 65/84/59 50/85/2
f 49/67/45 50/85/2 34/68/2
f 50/69/2 66/86/2 67/87/60
f 50/69/2 67/87/60 51/70/46
f 51/70/46 67/87/60 68/88/61
f 51/70/46 68/88/61 52/71/47
f 52/71/47 68/88/61 69/89/62
f 52/71/47 69/89/62 53/72/48
f 53/72/48 69/89/62 70/90/63
f 53/72/48 70/90/63 54/73/49
f 54/73/49 70/90/63 71/91/64
f 54/73/49 71/91/64 55/74/50
f 55/74/50 71/91/64 72/92/65
f 55/74/50 72/92/65 56/75/51
f 56/75/51 72/92/65 73/93/66
f 56/75/51 73/93/66 57/76/52
f 57/76/52 73/93/66 74/94/17
f 57/76/52 74/94/17 58/77/17
f 58/77/17 74/94/17 75/95/67
f 58/77/17 75/95/67 59/78/53
f 59/78/53 75/95/67 76/96/68
f 59/78/53 76/96/68 60/79/54
f 60/79/54 76/96/68 77/97/69
f 60/79/54 77/97/69 61/80/55
f 61/80/55 77/97/69 78/98/70
f 61/80/55 78/98/70 62/81/56
f 62/81/56 78/98/70 79/99/71
f 62/81/56 79/99/71 63/82/57
f 63/82/57 79/99/71 80/100/72
f 63/82/57 80/100/72 64/83/58
f 64/83/58 80/100/72 81/101/73
f 64/83/58 81/101/73 65/84/59
f 65/84/59 81/101/73 66/102/2
f 65/84/59 66/102/2 50/85/2
f 66/86/2 82/103/2 83/104/74
f 66/86/2 83/104/74 67/87/60
f 67/87/60 83/104/74 84/105/75
f 67/87/60 84/105/75 68/88/61
f 68/88/61 84/105/75 85/106/76
f 68/88/61 85/106/76 69/89/62
f 69/89/62 85/106/76 86/107/77
f 69/89/62 86/107/77 70/90/63
f 70/90/63 86/107/77 87/108/78
f 70/90/63 87/108/78 71/91/64
f 71/91/64 87/108/78 88/109/79
f 71/91/64 88/109/79 72/92/65
f 72/92/65 88/109/79 89/110/80
f 72/92/65 89/110/80 73/93/66
f 73/93/66 89/110/80 90/111/17
f 73/93/66 90/111/17 74/94/17
f 74/94/17 90/111/17 91/112/81
f 74/94/17 91/112/81 75/95/67
f 75/95/67 91/112/81 92/113/82
f 75/95/67 92/113/82 76/96/68
f 76/96/68 92/113/82 93/114/83
f 76/96/68 93/114/83 77/97/69
f 77/97/69 93/114/83 94/115/84
f 77/97/69 94/115/84 78/98/70
f 78/98/70 94/115/84 95/116/85
f 78/98/70 95/116/85 79/99/71
f 79/99/71 95/116/85 96/117/86
f 79/99/71 96/117/86 80/100/72
f 80/100/72 96/117/86 97/118/87
f 80/100/72 97/118/87 81/101/73
f 81/101/73 97/118/87 82/119/2
f 81/101/73 82/119/2 66/102/2
f 82/103/2 98/120/2 99/121/88
f 82/103/2 99/121/88 83/104/74
f 83/104/74 99/121/88 100/122/89
f 83/104/74 100/122/89 84/105/75
f 84/105/75 100/122/89 101/123/90
f 84/105/75 101/123/90 85/106/76
f 85/106/76 101/123/90 102/124/91
f 85/106/76 102/124/91 86/107/77
f 86/107/77 102/124/91 103/125/92
f 86/107/77 103/125/92 87/108/78
f 87/108/78 103/125/92 104/126/93
f 87/108/78 104/126/93 88/109/79
f 88/109/79 104/126/93 105/127/94
f 88/109/79 105/127/94 89/110/80
f 89/110/80 105/127/94 106/128/17
f 89/110/80 106/128/17 90/111/17
f 90/111/17 106/128/17 107/129/95
f 90/111/17 107/129/95 91/112/81
f 91/112/81 107/129/95 108/130/96
f 91/112/81 108/130/96 92/113/82
f 92/113/82 108/130/96 109/131/97
f 92/113/82 109/131/97 93/114/83
f 93/114/83 109/131/97 110/132/98
f 93/114/83 110/132/98 94/115/84
f 94/115/84 110/132/98 111/133/99
f 94/115/84 111/133/99 95/116/85
f 95/116/85 111/133/99 112/134/100
f 95/116/85 112/134/100 96/117/86
f 96/117/86 112/134/100 113/135/101
f 96/117/86 113/135/101 97/118/87
f 97/118/87 113/135/101 98/136/2
f 97/118/87 98/136/2 82/119/2
f 98/120/2 114/137/2 115/138/102
f 98/120/2 115/138/102 99/121/88
f 99/121/88 115/138/102 116/139/103
f 99/121/88 116/139/103 100/122/89
f 100/122/89 116/139/103 117/140/104
f 100/122/89 117/140/104 101/123/90
f 101/123/90 117/140/104 118/141/105
f 101/123/90 118/141/105 102/124/91
f 102/124/91 118/141/105 119/142/106
f 102/124/91 119/142/106 103/125/92
f 103/125/92 119/142/106 120/143/107
f 103/125/92 120/143/107 104/126/93
f 104/126/93 120/143/107 121/144/108
f 104/126/93 121/144/108 105/127/94
f 105/127/94 121/144/108 122/145/17
f 105/127/94 122/145/17 106/128/17
f 106/128/17 122/145/17 123/146/109
f 106/128/17 123/146/109 107/129/95
f 107/129/95 123/146/109 124/147/110
f 107/129/95 124/147/110 108/130/96
f 108/130/96 124/147/110 125/148/111
f 108/130/96 125/148/111 109/131/97
f 109/131/97 125/148/111 126/149/112
f 109/131/97 126/149/112 110/132/98
f 110/132/98 126/149/112 127/150/113
f 110/132/98 127/150/113 111/133/99
f 111/133/99 127/150/113 128/151/114
f 111/133/99 128/151/114 112/134/100
f 112/134/100 128/151/114 129/152/115
f 112/134/100 129/152/115 113/135/101
f 113/135/101 129/152/115 114/153/2
f 113/135/101 114/153/2 98/136/2
f 114/137/2 130/154/2 131/155/116
f 114/137/2 131/155/116 115/138/102
f 115/138/102 131/155/116 132/156/117
f 115/138/102 132/156/117 116/139/103
f 116/139/103 132/156/117 133/157/118
f 116/139/103 133/157/118 117/140/104
f 117/140/104 133/157/118 134/158/119
f 117/140/104 134/158/119 118/141/105
f 118/141/105 134/158/119 135/159/120
f 118/141/105 135/159/120 119/142/106
f 119/142/106 135/159/120 136/160/121
f 119/142/106 136/160/121 120/143/107
f 120/143/107 136/160/121 137/161/122
f 120/143/107 137/161/122 121/144/108
f 121/144/108 137/161/122 138/162/17
f 121/144/108 138/162/17 122/145/17
f 122/145/17 138/162/17 139/163/123
f 122/145/17 139/163/123 123/146/109
f 123/146/109 139/163/123 140/164/124
f 123/146/109 140/164/124 124/147/110
f 124/147/110 140/164/124 141/165/125
f 124/147/110 141/165/125 125/148/111
f 125/148/111 141/165/125 142/166/126
f 125/148/111 142/166/126 126/149/112
f 126/149/112 142/166/126 143/167/127
f 126/149/112 143/167/127 127/150/113
f 127/150/113 143/167/127 144/168/128
f 127/150/113 144/168/128 128/151/114
f 128/151/114 144/168/128 145/169/129
f 128/151/114 145/169/129 129/152/115
f 129/152/115 145/169/129 130/170/2
f 129/152/115 130/170/2 114/153/2
f 130/154/2 146/171/2 147/172/130
f 130/154/2 147/172/130 131/155/116
f 131/155/116 147/172/130 148/173/131
f 131/155/116 148/173/131 132/156/117
f 132/156/117 148/173/131 149/174/132
f 132/156/117 149/174/132 133/157/118
f 133/157/118 149/174/132 150/175/133
f 133/157/118 150/175/133 134/158/119
f 134/158/119 150/175/133 151/176/134
f 134/158/119 151/176/134 135/159/120
f 135/159/120 151/176/134 152/177/135
f 135/159/120 152/177/135 136/160/121
f 136/160/121 152/177/135 153/178/136
f 136/160/121 153/178/136 137/161/122
f 137/161/122 153/178/136 154/179/17
f 137/161/122 154/179/17 138/162/17
f 138/162/17 154/179/17 155/180/137
f 138/162/17 155/180/137 139/163/123
f 139/163/123 155/180/137 156/181/138
f 139/163/123 156/181/138 140/164/124
f 140/164/124 156/181/138 157/182/139
f 140/164/124 157/182/139 141/165/125
f 141/165/125 157/182/139 158/183/140
f 141/165/125 158/183/140 142/166/126
f 142/166/126 158/183/140 159/184/141
f 142/166/126 159/184/141 143/167/127
f 143/167/127 159/184/141 160/185/142
f 143/167/127 160/185/142 144/168/128
f 144/168/128 160/185/142 161/186/143
f 144/168/128 161/186/143 145/169/129
f 145/169/129 161/186/143 146/187/2
f 145/169/129 146/187/2 130/170/2
f 146/171/2 162/188/2 163/189/144
f 146/171/2 163/189/144 147/172/130
f 147/172/130 163/189/144 164/190/145
f 147/172/130 164/190/145 148/173/131
f 148/173/131 164/190/145 165/191/146
f 148/173/131 165/191/146 149/174/132
f 149/174/132 165/191/146 166/192/147
f 149/174/132 166/192/147 150/175/133
f 150/175/133 166/192/147 167/193/148
f 150/175/133 167/193/148 151/176/134
f 151/176/134 167/193/148 168/194/149
f 151/176/134 168/194/149 152/177/135
f 152/177/135 168/194/149 169/195/150
f 152/177/135 169/195/150 153/178/136
f 153/178/136 169/195/150 170/196/17
f 153/178/136 170/196/17 154/179/17
f 154/179/17 170/196/17 171/197/151
f 154/179/17 171/197/151 155/180/137
f 155/180/137 171/197/151 172/198/152
f 155/180/137 172/198/152 156/181/138
f 156/181/138 172/198/152 173/199/153
f 156/181/138 173/199/153 157/182/139
f 157/182/139 173/199/153 174/200/154
f 157/182/139 174/200/154 158/183/140
f 158/183/140 174/200/154 175/201/155
f 158/183/140 175/201/155 159/184/141
f 159/184/141 175/201/155 176/202/156
f 159/184/141 176/202/156 160/185/142
f 160/185/142 176/202/156 177/203/157
f 160/185/142 177/203/157 161/186/143
f 161/186/143 177/203/157 162/204/2
f 161/186/143 162/204/2 146/187/2
f 162/188/2 178/205/2 179/206/158
f 162/188/2 179/206/158 163/189/144
f 163/189/144 179/206/158 180/207/159
f 163/189/144 180/207/159 164/190/145
f 164/190/145 180/207/159 181/208/160
f 164/190/145 181/208/160 165/191/146
f 165/191/146 181/208/160 182/209/161
f 165/191/146 182/209/161 166/192/147
f 166/192/147 182/209/161 183/210/162
f 166/192/147 183/210/162 167/193/148
f 167/193/148 183/210/162 184/211/163
f 167/193/148 184/211/163 168/194/149
f 168/194/149 184/211/163 185/212/164
f 168/194/149 185/212/164 169/195/150
f 169/195/150 185/212/164 186/213/17
f 169/195/150 186/213/17 170/196/17
f 170/196/17 186/213/17 187/214/165
f 170/196/17 187/214/165 171/197/151
f 171/197/151 187/214/165 188/215/166
f 171/197/151 188/215/166 172/198/152
f 172/198/152 188/215/166 189/216/167
f 172/198/152 189/216/167 173/199/153
f 173/199/153 189/216/167 190/217/168
f 173/199/153 190/217/168 174/200/154
f 174/200/154 190/217/168 191/218/169
f 174/200/154 191/218/169 175/201/155
f 175/201/155 191/218/169 192/219/170
f 175/201/155 192/219/170 176/202/156
f 176/202/156 192/219/170 193/220/171
f 176/202/156 193/220/171 177/203/157
f 177/203/157 193/220/171 178/221/2
f 177/203/157 178/221/2 162/204/2
f 178/205/2 194/222/2 195/223/172
f 178/205/2 195/223/172 179/206/158
f 179/206/158 195/223/172 196/224/173
f 179/206/158 196/224/173 180/207/159
f 180/207/159 196/224/173 197/225/174
f 180/207/159 197/225/174 181/208/160
f 181/208/160 197/225/174 198/226/175
f 181/208/160 198/226/175 182/209/161
f 182/209/161 198/226/175 199/227/176
f 182/209/161 199/227/176 183/210/162
f 183/210/162 199/227/176 200/228/177
f 183/210/162 200/228/177 184/211/163
f 184/211/163 200/228/177 201/229/178
f 184/211/163 201/229/178 185/212/164
f 185/212/164 201/229/178 202/230/17
f 185/212/164 202/230/17 186/213/17
f 186/213/17 202/230/17 203/231/179
f 186/213/17 203/231/179 187/214/165
f 187/214/165 203/231/179 204/232/180
f 187/214/165 204/232/180 188/215/166
f 188/215/166 204/232/180 205/233/181
f 188/215/166 205/233/181 189/216/167
f 189/216/167 205/233/181 206/234/182
f 189/216/167 206/234/182 190/217/168
f 190/217/168 206/234/182 207/235/183
f 190/217/168 207/235/183 191/218/169
f 191/218/169 207/235/183 208/236/184
f 191/218/169 208/236/184 192/219/170
f 192/219/170 208/236/184 209/237/185
f 192/219/170 209/237/185 193/220/171
f 193/220/171 209/237/185 194/238/2
f 193/220/171 194/238/2 178/221/2
