# Procedurally generated by dev-env-utils/scripts/gen_mast_arm_curves.py
# cell 1 of 8 at (+0 along arm, +1 up)
mtllib mastarmcurve.mtl
o mastarm_6x2_c1
v 0.782476 0.000000 0.196152
v 0.782292 0.016975 0.166667
v 0.760803 0.110663 0.220450
v 0.760974 0.093616 0.250202
v 0.699610 0.190088 0.266046
v 0.699741 0.172980 0.296023
v 0.608028 0.243158 0.296512
v 0.608099 0.226010 0.326639
v 0.500000 0.261794 0.307211
v 0.500000 0.244631 0.337390
v 0.391972 0.243158 0.296512
v 0.391901 0.226010 0.326639
v 0.300390 0.190088 0.266046
v 0.300259 0.172980 0.296023
v 0.239197 0.110663 0.220450
v 0.239026 0.093616 0.250202
v 0.217708 0.016975 0.166667
v 0.217524 0.000000 0.196152
v 0.239197 -0.076713 0.112883
v 0.239026 -0.093616 0.142103
v 0.300390 -0.156137 0.067287
v 0.300259 -0.172980 0.096282
v 0.391972 -0.209207 0.036821
v 0.391901 -0.226010 0.065666
v 0.500000 -0.227843 0.026123
v 0.500000 -0.244631 0.054914
v 0.608028 -0.209207 0.036821
v 0.608099 -0.226010 0.065666
v 0.699610 -0.156137 0.067287
v 0.699741 -0.172980 0.096282
v 0.760803 -0.076713 0.112883
v 0.760974 -0.093616 0.142103
v 0.781771 0.064429 0.083333
v 0.760322 0.158317 0.136363
v 0.699242 0.237912 0.181319
v 0.607829 0.291095 0.211358
v 0.500000 0.309771 0.221906
v 0.392171 0.291095 0.211358
v 0.300758 0.237912 0.181319
v 0.239678 0.158317 0.136363
v 0.218229 0.064429 0.083333
v 0.239678 -0.029459 0.030304
v 0.300758 -0.109054 -0.014652
v 0.392171 -0.162237 -0.044691
v 0.500000 -0.180913 -0.055239
v 0.607829 -0.162237 -0.044691
v 0.699242 -0.109054 -0.014652
v 0.760322 -0.029459 0.030304
v 0.781250 0.111111 0.000000
v 0.759841 0.205196 0.052270
v 0.698874 0.284958 0.096582
v 0.607630 0.338253 0.126190
v 0.500000 0.356968 0.136587
v 0.392370 0.338253 0.126190
v 0.301126 0.284958 0.096582
v 0.240159 0.205196 0.052270
v 0.218750 0.111111 0.000000
v 0.240159 0.017026 -0.052270
v 0.301126 -0.062736 -0.096582
v 0.392370 -0.116031 -0.126190
v 0.500000 -0.134746 -0.136587
v 0.607630 -0.116031 -0.126190
v 0.698874 -0.062736 -0.096582
v 0.759841 0.017026 -0.052270
vt 0.250000 0.303393
vt 0.250000 0.286382
vt 0.281250 0.286382
vt 0.281250 0.303393
vt 0.312500 0.286382
vt 0.312500 0.303393
vt 0.343750 0.286382
vt 0.343750 0.303393
vt 0.375000 0.286382
vt 0.375000 0.303393
vt 0.406250 0.286382
vt 0.406250 0.303393
vt 0.437500 0.286382
vt 0.437500 0.303393
vt 0.468750 0.286382
vt 0.468750 0.303393
vt 0.500000 0.286382
vt 0.500000 0.303393
vt 0.531250 0.286382
vt 0.531250 0.303393
vt 0.562500 0.286382
vt 0.562500 0.303393
vt 0.593750 0.286382
vt 0.593750 0.303393
vt 0.625000 0.286382
vt 0.625000 0.303393
vt 0.656250 0.286382
vt 0.656250 0.303393
vt 0.687500 0.286382
vt 0.687500 0.303393
vt 0.718750 0.286382
vt 0.718750 0.303393
vt 0.750000 0.286382
vt 0.750000 0.303393
vt 0.250000 0.261567
vt 0.281250 0.261567
vt 0.312500 0.261567
vt 0.343750 0.261567
vt 0.375000 0.261567
vt 0.406250 0.261567
vt 0.437500 0.261567
vt 0.468750 0.261567
vt 0.500000 0.261567
vt 0.531250 0.261567
vt 0.562500 0.261567
vt 0.593750 0.261567
vt 0.625000 0.261567
vt 0.656250 0.261567
vt 0.687500 0.261567
vt 0.718750 0.261567
vt 0.750000 0.261567
vt 0.250000 0.309326
vt 0.281250 0.309326
vt 0.312500 0.309326
vt 0.343750 0.309326
vt 0.375000 0.309326
vt 0.406250 0.309326
vt 0.437500 0.309326
vt 0.468750 0.309326
vt 0.500000 0.309326
vt 0.531250 0.309326
vt 0.562500 0.309326
vt 0.593750 0.309326
vt 0.625000 0.309326
vt 0.656250 0.309326
vt 0.687500 0.309326
vt 0.718750 0.309326
vt 0.750000 0.309326
vn 1.000000 0.000000 0.000000
vn 0.923880 0.331883 0.190526
vn 0.923880 0.331414 0.191342
vn 0.707107 0.613241 0.352045
vn 0.707107 0.612372 0.353553
vn 0.382683 0.801237 0.459970
vn 0.382683 0.800103 0.461940
vn 0.000000 0.867253 0.497868
vn 0.000000 0.866025 0.500000
vn -0.382683 0.801237 0.459970
vn -0.382683 0.800103 0.461940
vn -0.707107 0.613241 0.352045
vn -0.707107 0.612372 0.353553
vn -0.923880 0.331883 0.190526
vn -0.923880 0.331414 0.191342
vn -1.000000 0.000000 0.000000
vn -0.923880 -0.331883 -0.190526
vn -0.923880 -0.331414 -0.191342
vn -0.707107 -0.613241 -0.352045
vn -0.707107 -0.612372 -0.353553
vn -0.382683 -0.801237 -0.459970
vn -0.382683 -0.800103 -0.461940
vn -0.000000 -0.867253 -0.497868
vn -0.000000 -0.866025 -0.500000
vn 0.382683 -0.801237 -0.459970
vn 0.382683 -0.800103 -0.461940
vn 0.707107 -0.613241 -0.352045
vn 0.707107 -0.612372 -0.353553
vn 0.923880 -0.331883 -0.190526
vn 0.923880 -0.331414 -0.191342
vn 0.923880 0.333207 0.188200
vn 0.707107 0.615687 0.347749
vn 0.382683 0.804434 0.454356
vn 0.000000 0.870713 0.491792
vn -0.382683 0.804434 0.454356
vn -0.707107 0.615687 0.347749
vn -0.923880 0.333207 0.188200
vn -0.923880 -0.333207 -0.188200
vn -0.707107 -0.615687 -0.347749
vn -0.382683 -0.804434 -0.454356
vn -0.000000 -0.870713 -0.491792
vn 0.382683 -0.804434 -0.454356
vn 0.707107 -0.615687 -0.347749
vn 0.923880 -0.333207 -0.188200
vn 0.923880 0.334526 0.185848
vn 0.707107 0.618123 0.343401
vn 0.382683 0.807616 0.448676
vn 0.000000 0.874157 0.485643
vn -0.382683 0.807616 0.448676
vn -0.707107 0.618123 0.343401
vn -0.923880 0.334526 0.185848
vn -0.923880 -0.334526 -0.185848
vn -0.707107 -0.618123 -0.343401
vn -0.382683 -0.807616 -0.448676
vn -0.000000 -0.874157 -0.485643
vn 0.382683 -0.807616 -0.448676
vn 0.707107 -0.618123 -0.343401
vn 0.923880 -0.334526 -0.185848
usemtl body
f 1/1/1 2/2/1 3/3/2
f 1/1/1 3/3/2 4/4/3
f 4/4/3 3/3/2 5/5/4
f 4/4/3 5/5/4 6/6/5
f 6/6/5 5/5/4 7/7/6
f 6/6/5 7/7/6 8/8/7
f 8/8/7 7/7/6 9/9/8
f 8/8/7 9/9/8 10/10/9
f 10/10/9 9/9/8 11/11/10
f 10/10/9 11/11/10 12/12/11
f 12/12/11 11/11/10 13/13/12
f 12/12/11 13/13/12 14/14/13
f 14/14/13 13/13/12 15/15/14
f 14/14/13 15/15/14 16/16/15
f 16/16/15 15/15/14 17/17/16
f 16/16/15 17/17/16 18/18/16
f 18/18/16 17/17/16 19/19/17
f 18/18/16 19/19/17 20/20/18
f 20/20/18 19/19/17 21/21/19
f 20/20/18 21/21/19 22/22/20
f 22/22/20 21/21/19 23/23/21
f 22/22/20 23/23/21 24/24/22
f 24/24/22 23/23/21 25/25/23
f 24/24/22 25/25/23 26/26/24
f 26/26/24 25/25/23 27/27/25
f 26/26/24 27/27/25 28/28/26
f 28/28/26 27/27/25 29/29/27
f 28/28/26 29/29/27 30/30/28
f 30/30/28 29/29/27 31/31/29
f 30/30/28 31/31/29 32/32/30
f 32/32/30 31/31/29 2/33/1
f 32/32/30 2/33/1 1/34/1
f 2/2/1 33/35/1 34/36/31
f 2/2/1 34/36/31 3/3/2
f 3/3/2 34/36/31 35/37/32
f 3/3/2 35/37/32 5/5/4
f 5/5/4 35/37/32 36/38/33
f 5/5/4 36/38/33 7/7/6
f 7/7/6 36/38/33 37/39/34
f 7/7/6 37/39/34 9/9/8
f 9/9/8 37/39/34 38/40/35
f 9/9/8 38/40/35 11/11/10
f 11/11/10 38/40/35 39/41/36
f 11/11/10 39/41/36 13/13/12
f 13/13/12 39/41/36 40/42/37
f 13/13/12 40/42/37 15/15/14
f 15/15/14 40/42/37 41/43/16
f 15/15/14 41/43/16 17/17/16
f 17/17/16 41/43/16 42/44/38
f 17/17/16 42/44/38 19/19/17
f 19/19/17 42/44/38 43/45/39
f 19/19/17 43/45/39 21/21/19
f 21/21/19 43/45/39 44/46/40
f 21/21/19 44/46/40 23/23/21
f 23/23/21 44/46/40 45/47/41
f 23/23/21 45/47/41 25/25/23
f 25/25/23 45/47/41 46/48/42
f 25/25/23 46/48/42 27/27/25
f 27/27/25 46/48/42 47/49/43
f 27/27/25 47/49/43 29/29/27
f 29/29/27 47/49/43 48/50/44
f 29/29/27 48/50/44 31/31/29
f 31/31/29 48/50/44 33/51/1
f 31/31/29 33/51/1 2/33/1
f 33/35/1 49/52/1 50/53/45
f 33/35/1 50/53/45 34/36/31
f 34/36/31 50/53/45 51/54/46
f 34/36/31 51/54/46 35/37/32
f 35/37/32 51/54/46 52/55/47
f 35/37/32 52/55/47 36/38/33
f 36/38/33 52/55/47 53/56/48
f 36/38/33 53/56/48 37/39/34
f 37/39/34 53/56/48 54/57/49
f 37/39/34 54/57/49 38/40/35
f 38/40/35 54/57/49 55/58/50
f 38/40/35 55/58/50 39/41/36
f 39/41/36 55/58/50 56/59/51
f 39/41/36 56/59/51 40/42/37
f 40/42/37 56/59/51 57/60/16
f 40/42/37 57/60/16 41/43/16
f 41/43/16 57/60/16 58/61/52
f 41/43/16 58/61/52 42/44/38
f 42/44/38 58/61/52 59/62/53
f 42/44/38 59/62/53 43/45/39
f 43/45/39 59/62/53 60/63/54
f 43/45/39 60/63/54 44/46/40
f 44/46/40 60/63/54 61/64/55
f 44/46/40 61/64/55 45/47/41
f 45/47/41 61/64/55 62/65/56
f 45/47/41 62/65/56 46/48/42
f 46/48/42 62/65/56 63/66/57
f 46/48/42 63/66/57 47/49/43
f 47/49/43 63/66/57 64/67/58
f 47/49/43 64/67/58 48/50/44
f 48/50/44 64/67/58 49/68/1
f 48/50/44 49/68/1 33/51/1
