# Procedurally generated by dev-env-utils/scripts/gen_mast_arm_curves.py
# cell 10 of 12 at (+8 along arm, +2 up)
mtllib mastarmcurve.mtl
o mastarm_10x2_c10
v 0.757500 0.420000 1.000000
v 0.757188 0.426528 0.916667
v 0.737610 0.524661 0.924190
v 0.737899 0.518227 1.007858
v 0.681859 0.607855 0.930568
v 0.682080 0.601500 1.014520
v 0.598421 0.663443 0.934830
v 0.598541 0.657141 1.018971
v 0.500000 0.682963 0.936327
v 0.500000 0.676680 1.020534
v 0.401579 0.663443 0.934830
v 0.401459 0.657141 1.018971
v 0.318141 0.607855 0.930568
v 0.317920 0.601500 1.014520
v 0.262390 0.524661 0.924190
v 0.262101 0.518227 1.007858
v 0.242812 0.426528 0.916667
v 0.242500 0.420000 1.000000
v 0.262390 0.328394 0.909143
v 0.262101 0.321773 0.992142
v 0.318141 0.245201 0.902765
v 0.317920 0.238500 0.985480
v 0.401579 0.189613 0.898503
v 0.401459 0.182859 0.981029
v 0.500000 0.170093 0.897007
v 0.500000 0.163320 0.979466
v 0.598421 0.189613 0.898503
v 0.598541 0.182859 0.981029
v 0.681859 0.245201 0.902765
v 0.682080 0.238500 0.985480
v 0.737610 0.328394 0.909143
v 0.737899 0.321773 0.992142
v 0.756875 0.432778 0.833333
v 0.737322 0.530816 0.840523
v 0.681638 0.613929 0.846618
v 0.598302 0.669464 0.850690
v 0.500000 0.688965 0.852120
v 0.401698 0.669464 0.850690
v 0.318362 0.613929 0.846618
v 0.262678 0.530816 0.840523
v 0.243125 0.432778 0.833333
v 0.262678 0.334739 0.826144
v 0.318362 0.251626 0.820049
v 0.401698 0.196092 0.815976
v 0.500000 0.176591 0.814546
v 0.598302 0.196092 0.815976
v 0.681638 0.251626 0.820049
v 0.737322 0.334739 0.826144
v 0.756563 0.438750 0.750000
v 0.737033 0.536693 0.756856
v 0.681417 0.619724 0.762668
v 0.598182 0.675204 0.766552
v 0.500000 0.694686 0.767916
v 0.401818 0.675204 0.766552
v 0.318583 0.619724 0.762668
v 0.262967 0.536693 0.756856
v 0.243437 0.438750 0.750000
v 0.262967 0.340807 0.743144
v 0.318583 0.257776 0.737332
v 0.401818 0.202296 0.733448
v 0.500000 0.182814 0.732084
v 0.598182 0.202296 0.733448
v 0.681417 0.257776 0.737332
v 0.737033 0.340807 0.743144
v 0.756250 0.444444 0.666667
v 0.736744 0.542290 0.673190
v 0.681196 0.625239 0.678720
v 0.598063 0.680664 0.682415
v 0.500000 0.700127 0.683712
v 0.401937 0.680664 0.682415
v 0.318804 0.625239 0.678720
v 0.263256 0.542290 0.673190
v 0.243750 0.444444 0.666667
v 0.263256 0.346599 0.660144
v 0.318804 0.263650 0.654614
v 0.401937 0.208225 0.650919
v 0.500000 0.188762 0.649621
v 0.598063 0.208225 0.650919
v 0.681196 0.263650 0.654614
v 0.736744 0.346599 0.660144
v 0.755937 0.449861 0.583333
v 0.736455 0.547608 0.589524
v 0.680975 0.630474 0.594772
v 0.597943 0.685844 0.598279
v 0.500000 0.705287 0.599510
v 0.402057 0.685844 0.598279
v 0.319025 0.630474 0.594772
v 0.263545 0.547608 0.589524
v 0.244063 0.449861 0.583333
v 0.263545 0.352114 0.577143
v 0.319025 0.269248 0.571894
v 0.402057 0.213878 0.568388
v 0.500000 0.194435 0.567156
v 0.597943 0.213878 0.568388
v 0.680975 0.269248 0.571894
v 0.736455 0.352114 0.577143
v 0.755625 0.455000 0.500000
v 0.736167 0.552648 0.505859
v 0.680754 0.635430 0.510826
v 0.597823 0.690743 0.514145
v 0.500000 0.710166 0.515310
v 0.402177 0.690743 0.514145
v 0.319246 0.635430 0.510826
v 0.263833 0.552648 0.505859
v 0.244375 0.455000 0.500000
v 0.263833 0.357352 0.494141
v 0.319246 0.274570 0.489174
v 0.402177 0.219257 0.485855
v 0.500000 0.199834 0.484690
v 0.597823 0.219257 0.485855
v 0.680754 0.274570 0.489174
v 0.736167 0.357352 0.494141
v 0.755313 0.459861 0.416667
v 0.735878 0.557408 0.422194
v 0.680533 0.640105 0.426880
v 0.597704 0.695361 0.430012
v 0.500000 0.714765 0.431111
v 0.402296 0.695361 0.430012
v 0.319467 0.640105 0.426880
v 0.264122 0.557408 0.422194
v 0.244688 0.459861 0.416667
v 0.264122 0.362314 0.411139
v 0.319467 0.279617 0.406453
v 0.402296 0.224361 0.403322
v 0.500000 0.204958 0.402222
v 0.597704 0.224361 0.403322
v 0.680533 0.279617 0.406453
v 0.735878 0.362314 0.411139
v 0.755000 0.464444 0.333333
v 0.735589 0.561890 0.338530
v 0.680312 0.644501 0.342936
v 0.597584 0.699699 0.345880
v 0.500000 0.719083 0.346914
v 0.402416 0.699699 0.345880
v 0.319688 0.644501 0.342936
v 0.264411 0.561890 0.338530
v 0.245000 0.464444 0.333333
v 0.264411 0.366999 0.328136
v 0.319688 0.284388 0.323730
v 0.402416 0.229190 0.320786
v 0.500000 0.209806 0.319753
v 0.597584 0.229190 0.320786
v 0.680312 0.284388 0.323730
v 0.735589 0.366999 0.328136
v 0.754687 0.468750 0.250000
v 0.735301 0.566093 0.254867
v 0.680091 0.648617 0.258993
v 0.597465 0.703757 0.261750
v 0.500000 0.723120 0.262718
v 0.402535 0.703757 0.261750
v 0.319909 0.648617 0.258993
v 0.264699 0.566093 0.254867
v 0.245312 0.468750 0.250000
v 0.264699 0.371407 0.245133
v 0.319909 0.288883 0.241007
v 0.402535 0.233743 0.238250
v 0.500000 0.214380 0.237282
v 0.597465 0.233743 0.238250
v 0.680091 0.288883 0.241007
v 0.735301 0.371407 0.245133
v 0.754375 0.472778 0.166667
v 0.735012 0.570017 0.171204
v 0.679870 0.652453 0.175051
v 0.597345 0.707534 0.177622
v 0.500000 0.726876 0.178525
v 0.402655 0.707534 0.177622
v 0.320130 0.652453 0.175051
v 0.264988 0.570017 0.171204
v 0.245625 0.472778 0.166667
v 0.264988 0.375539 0.162129
v 0.320130 0.293103 0.158282
v 0.402655 0.238021 0.155711
v 0.500000 0.218679 0.154809
v 0.597345 0.238021 0.155711
v 0.679870 0.293103 0.158282
v 0.735012 0.375539 0.162129
v 0.754062 0.476528 0.083333
v 0.734723 0.573662 0.087542
v 0.679649 0.656009 0.091111
v 0.597226 0.711031 0.093495
v 0.500000 0.730352 0.094332
v 0.402774 0.711031 0.093495
v 0.320351 0.656009 0.091111
v 0.265277 0.573662 0.087542
v 0.245938 0.476528 0.083333
v 0.265277 0.379393 0.079124
v 0.320351 0.297047 0.075556
v 0.402774 0.242025 0.073172
v 0.500000 0.222703 0.072334
v 0.597226 0.242025 0.073172
v 0.679649 0.297047 0.075556
v 0.734723 0.379393 0.079124
v 0.753750 0.480000 0.000000
v 0.734434 0.577028 0.003881
v 0.679428 0.659285 0.007171
v 0.597106 0.714247 0.009370
v 0.500000 0.733547 0.010142
v 0.402894 0.714247 0.009370
v 0.320572 0.659285 0.007171
v 0.265566 0.577028 0.003881
v 0.246250 0.480000 0.000000
v 0.265566 0.382972 -0.003881
v 0.320572 0.300715 -0.007171
v 0.402894 0.245753 -0.009370
v 0.500000 0.226453 -0.010142
v 0.597106 0.245753 -0.009370
v 0.679428 0.300715 -0.007171
v 0.734434 0.382972 -0.003881
vt 0.250000 0.616004
vt 0.250000 0.574209
vt 0.281250 0.574209
vt 0.281250 0.616004
vt 0.312500 0.574209
vt 0.312500 0.616004
vt 0.343750 0.574209
vt 0.343750 0.616004
vt 0.375000 0.574209
vt 0.375000 0.616004
vt 0.406250 0.574209
vt 0.406250 0.616004
vt 0.437500 0.574209
vt 0.437500 0.616004
vt 0.468750 0.574209
vt 0.468750 0.616004
vt 0.500000 0.574209
vt 0.500000 0.616004
vt 0.531250 0.574209
vt 0.531250 0.616004
vt 0.562500 0.574209
vt 0.562500 0.616004
vt 0.593750 0.574209
vt 0.593750 0.616004
vt 0.625000 0.574209
vt 0.625000 0.616004
vt 0.656250 0.574209
vt 0.656250 0.616004
vt 0.687500 0.574209
vt 0.687500 0.616004
vt 0.718750 0.574209
vt 0.718750 0.616004
vt 0.750000 0.574209
vt 0.750000 0.616004
vt 0.250000 0.532426
vt 0.281250 0.532426
vt 0.312500 0.532426
vt 0.343750 0.532426
vt 0.375000 0.532426
vt 0.406250 0.532426
vt 0.437500 0.532426
vt 0.468750 0.532426
vt 0.500000 0.532426
vt 0.531250 0.532426
vt 0.562500 0.532426
vt 0.593750 0.532426
vt 0.625000 0.532426
vt 0.656250 0.532426
vt 0.687500 0.532426
vt 0.718750 0.532426
vt 0.750000 0.532426
vt 0.250000 0.490652
vt 0.281250 0.490652
vt 0.312500 0.490652
vt 0.343750 0.490652
vt 0.375000 0.490652
vt 0.406250 0.490652
vt 0.437500 0.490652
vt 0.468750 0.490652
vt 0.500000 0.490652
vt 0.531250 0.490652
vt 0.562500 0.490652
vt 0.593750 0.490652
vt 0.625000 0.490652
vt 0.656250 0.490652
vt 0.687500 0.490652
vt 0.718750 0.490652
vt 0.750000 0.490652
vt 0.250000 0.448888
vt 0.281250 0.448888
vt 0.312500 0.448888
vt 0.343750 0.448888
vt 0.375000 0.448888
vt 0.406250 0.448888
vt 0.437500 0.448888
vt 0.468750 0.448888
vt 0.500000 0.448888
vt 0.531250 0.448888
vt 0.562500 0.448888
vt 0.593750 0.448888
vt 0.625000 0.448888
vt 0.656250 0.448888
vt 0.687500 0.448888
vt 0.718750 0.448888
vt 0.750000 0.448888
vt 0.250000 0.407134
vt 0.281250 0.407134
vt 0.312500 0.407134
vt 0.343750 0.407134
vt 0.375000 0.407134
vt 0.406250 0.407134
vt 0.437500 0.407134
vt 0.468750 0.407134
vt 0.500000 0.407134
vt 0.531250 0.407134
vt 0.562500 0.407134
vt 0.593750 0.407134
vt 0.625000 0.407134
vt 0.656250 0.407134
vt 0.687500 0.407134
vt 0.718750 0.407134
vt 0.750000 0.407134
vt 0.250000 0.365388
vt 0.281250 0.365388
vt 0.312500 0.365388
vt 0.343750 0.365388
vt 0.375000 0.365388
vt 0.406250 0.365388
vt 0.437500 0.365388
vt 0.468750 0.365388
vt 0.500000 0.365388
vt 0.531250 0.365388
vt 0.562500 0.365388
vt 0.593750 0.365388
vt 0.625000 0.365388
vt 0.656250 0.365388
vt 0.687500 0.365388
vt 0.718750 0.365388
vt 0.750000 0.365388
vt 0.250000 0.323650
vt 0.281250 0.323650
vt 0.312500 0.323650
vt 0.343750 0.323650
vt 0.375000 0.323650
vt 0.406250 0.323650
vt 0.437500 0.323650
vt 0.468750 0.323650
vt 0.500000 0.323650
vt 0.531250 0.323650
vt 0.562500 0.323650
vt 0.593750 0.323650
vt 0.625000 0.323650
vt 0.656250 0.323650
vt 0.687500 0.323650
vt 0.718750 0.323650
vt 0.750000 0.323650
vt 0.250000 0.281921
vt 0.281250 0.281921
vt 0.312500 0.281921
vt 0.343750 0.281921
vt 0.375000 0.281921
vt 0.406250 0.281921
vt 0.437500 0.281921
vt 0.468750 0.281921
vt 0.500000 0.281921
vt 0.531250 0.281921
vt 0.562500 0.281921
vt 0.593750 0.281921
vt 0.625000 0.281921
vt 0.656250 0.281921
vt 0.687500 0.281921
vt 0.718750 0.281921
vt 0.750000 0.281921
vt 0.250000 0.259802
vt 0.281250 0.259802
vt 0.312500 0.259802
vt 0.343750 0.259802
vt 0.375000 0.259802
vt 0.406250 0.259802
vt 0.437500 0.259802
vt 0.468750 0.259802
vt 0.500000 0.259802
vt 0.531250 0.259802
vt 0.562500 0.259802
vt 0.593750 0.259802
vt 0.625000 0.259802
vt 0.656250 0.259802
vt 0.687500 0.259802
vt 0.718750 0.259802
vt 0.750000 0.259802
vt 0.250000 0.301517
vt 0.281250 0.301517
vt 0.312500 0.301517
vt 0.343750 0.301517
vt 0.375000 0.301517
vt 0.406250 0.301517
vt 0.437500 0.301517
vt 0.468750 0.301517
vt 0.500000 0.301517
vt 0.531250 0.301517
vt 0.562500 0.301517
vt 0.593750 0.301517
vt 0.625000 0.301517
vt 0.656250 0.301517
vt 0.687500 0.301517
vt 0.718750 0.301517
vt 0.750000 0.301517
vt 0.250000 0.343226
vt 0.281250 0.343226
vt 0.312500 0.343226
vt 0.343750 0.343226
vt 0.375000 0.343226
vt 0.406250 0.343226
vt 0.437500 0.343226
vt 0.468750 0.343226
vt 0.500000 0.343226
vt 0.531250 0.343226
vt 0.562500 0.343226
vt 0.593750 0.343226
vt 0.625000 0.343226
vt 0.656250 0.343226
vt 0.687500 0.343226
vt 0.718750 0.343226
vt 0.750000 0.343226
vt 0.250000 0.384929
vt 0.281250 0.384929
vt 0.312500 0.384929
vt 0.343750 0.384929
vt 0.375000 0.384929
vt 0.406250 0.384929
vt 0.437500 0.384929
vt 0.468750 0.384929
vt 0.500000 0.384929
vt 0.531250 0.384929
vt 0.562500 0.384929
vt 0.593750 0.384929
vt 0.625000 0.384929
vt 0.656250 0.384929
vt 0.687500 0.384929
vt 0.718750 0.384929
vt 0.750000 0.384929
vn 1.000000 0.000000 0.000000
vn 0.923880 0.381564 0.029253
vn 0.923880 0.381465 0.030517
vn 0.707107 0.705038 0.054053
vn 0.707107 0.704855 0.056388
vn 0.382683 0.921176 0.070624
vn 0.382683 0.920937 0.073675
vn 0.000000 0.997074 0.076442
vn 0.000000 0.996815 0.079745
vn -0.382683 0.921176 0.070624
vn -0.382683 0.920937 0.073675
vn -0.707107 0.705038 0.054053
vn -0.707107 0.704855 0.056388
vn -0.923880 0.381564 0.029253
vn -0.923880 0.381465 0.030517
vn -1.000000 0.000000 0.000000
vn -0.923880 -0.381564 -0.029253
vn -0.923880 -0.381465 -0.030517
vn -0.707107 -0.705038 -0.054053
vn -0.707107 -0.704855 -0.056388
vn -0.382683 -0.921176 -0.070624
vn -0.382683 -0.920937 -0.073675
vn -0.000000 -0.997074 -0.076442
vn -0.000000 -0.996815 -0.079745
vn 0.382683 -0.921176 -0.070624
vn 0.382683 -0.920937 -0.073675
vn 0.707107 -0.705038 -0.054053
vn 0.707107 -0.704855 -0.056388
vn 0.923880 -0.381564 -0.029253
vn 0.923880 -0.381465 -0.030517
vn 0.923880 0.381659 0.027988
vn 0.707107 0.705213 0.051716
vn 0.382683 0.921405 0.067570
vn 0.000000 0.997322 0.073137
vn -0.382683 0.921405 0.067570
vn -0.707107 0.705213 0.051716
vn -0.923880 0.381659 0.027988
vn -0.923880 -0.381659 -0.027988
vn -0.707107 -0.705213 -0.051716
vn -0.382683 -0.921405 -0.067570
vn -0.000000 -0.997322 -0.073137
vn 0.382683 -0.921405 -0.067570
vn 0.707107 -0.705213 -0.051716
vn 0.923880 -0.381659 -0.027988
vn 0.923880 0.381749 0.026722
vn 0.707107 0.705381 0.049377
vn 0.382683 0.921624 0.064514
vn 0.000000 0.997559 0.069829
vn -0.382683 0.921624 0.064514
vn -0.707107 0.705381 0.049377
vn -0.923880 0.381749 0.026722
vn -0.923880 -0.381749 -0.026722
vn -0.707107 -0.705381 -0.049377
vn -0.382683 -0.921624 -0.064514
vn -0.000000 -0.997559 -0.069829
vn 0.382683 -0.921624 -0.064514
vn 0.707107 -0.705381 -0.049377
vn 0.923880 -0.381749 -0.026722
vn 0.923880 0.381836 0.025456
vn 0.707107 0.705541 0.047036
vn 0.382683 0.921833 0.061456
vn 0.000000 0.997785 0.066519
vn -0.382683 0.921833 0.061456
vn -0.707107 0.705541 0.047036
vn -0.923880 0.381836 0.025456
vn -0.923880 -0.381836 -0.025456
vn -0.707107 -0.705541 -0.047036
vn -0.382683 -0.921833 -0.061456
vn -0.000000 -0.997785 -0.066519
vn 0.382683 -0.921833 -0.061456
vn 0.707107 -0.705541 -0.047036
vn 0.923880 -0.381836 -0.025456
vn 0.923880 0.381918 0.024188
vn 0.707107 0.705693 0.044694
vn 0.382683 0.922032 0.058395
vn 0.000000 0.998000 0.063207
vn -0.382683 0.922032 0.058395
vn -0.707107 0.705693 0.044694
vn -0.923880 0.381918 0.024188
vn -0.923880 -0.381918 -0.024188
vn -0.707107 -0.705693 -0.044694
vn -0.382683 -0.922032 -0.058395
vn -0.000000 -0.998000 -0.063207
vn 0.382683 -0.922032 -0.058395
vn 0.707107 -0.705693 -0.044694
vn 0.923880 -0.381918 -0.024188
vn 0.923880 0.381996 0.022920
vn 0.707107 0.705837 0.042350
vn 0.382683 0.922221 0.055333
vn 0.000000 0.998205 0.059892
vn -0.382683 0.922221 0.055333
vn -0.707107 0.705837 0.042350
vn -0.923880 0.381996 0.022920
vn -0.923880 -0.381996 -0.022920
vn -0.707107 -0.705837 -0.042350
vn -0.382683 -0.922221 -0.055333
vn -0.000000 -0.998205 -0.059892
vn 0.382683 -0.922221 -0.055333
vn 0.707107 -0.705837 -0.042350
vn 0.923880 -0.381996 -0.022920
vn 0.923880 0.382070 0.021651
vn 0.707107 0.705974 0.040005
vn 0.382683 0.922400 0.052269
vn 0.000000 0.998398 0.056576
vn -0.382683 0.922400 0.052269
vn -0.707107 0.705974 0.040005
vn -0.923880 0.382070 0.021651
vn -0.923880 -0.382070 -0.021651
vn -0.707107 -0.705974 -0.040005
vn -0.382683 -0.922400 -0.052269
vn -0.000000 -0.998398 -0.056576
vn 0.382683 -0.922400 -0.052269
vn 0.707107 -0.705974 -0.040005
vn 0.923880 -0.382070 -0.021651
vn 0.923880 0.382140 0.020381
vn 0.707107 0.706103 0.037659
vn 0.382683 0.922568 0.049204
vn 0.000000 0.998581 0.053258
vn -0.382683 0.922568 0.049204
vn -0.707107 0.706103 0.037659
vn -0.923880 0.382140 0.020381
vn -0.923880 -0.382140 -0.020381
vn -0.707107 -0.706103 -0.037659
vn -0.382683 -0.922568 -0.049204
vn -0.000000 -0.998581 -0.053258
vn 0.382683 -0.922568 -0.049204
vn 0.707107 -0.706103 -0.037659
vn 0.923880 -0.382140 -0.020381
vn 0.923880 0.382206 0.019110
vn 0.707107 0.706225 0.035311
vn 0.382683 0.922727 0.046136
vn 0.000000 0.998752 0.049938
vn -0.382683 0.922727 0.046136
vn -0.707107 0.706225 0.035311
vn -0.923880 0.382206 0.019110
vn -0.923880 -0.382206 -0.019110
vn -0.707107 -0.706225 -0.035311
vn -0.382683 -0.922727 -0.046136
vn -0.000000 -0.998752 -0.049938
vn 0.382683 -0.922727 -0.046136
vn 0.707107 -0.706225 -0.035311
vn 0.923880 -0.382206 -0.019110
vn 0.923880 0.382267 0.017839
vn 0.707107 0.706338 0.032962
vn 0.382683 0.922875 0.043068
vn 0.000000 0.998913 0.046616
vn -0.382683 0.922875 0.043068
vn -0.707107 0.706338 0.032962
vn -0.923880 0.382267 0.017839
vn -0.923880 -0.382267 -0.017839
vn -0.707107 -0.706338 -0.032962
vn -0.382683 -0.922875 -0.043068
vn -0.000000 -0.998913 -0.046616
vn 0.382683 -0.922875 -0.043068
vn 0.707107 -0.706338 -0.032962
vn 0.923880 -0.382267 -0.017839
vn 0.923880 0.382325 0.016567
vn 0.707107 0.706444 0.030613
vn 0.382683 0.923013 0.039997
vn 0.000000 0.999062 0.043293
vn -0.382683 0.923013 0.039997
vn -0.707107 0.706444 0.030613
vn -0.923880 0.382325 0.016567
vn -0.923880 -0.382325 -0.016567
vn -0.707107 -0.706444 -0.030613
vn -0.382683 -0.923013 -0.039997
vn -0.000000 -0.999062 -0.043293
vn 0.382683 -0.923013 -0.039997
vn 0.707107 -0.706444 -0.030613
vn 0.923880 -0.382325 -0.016567
vn 0.923880 0.382378 0.015295
vn 0.707107 0.706542 0.028262
vn 0.382683 0.923141 0.036926
vn 0.000000 0.999201 0.039968
vn -0.382683 0.923141 0.036926
vn -0.707107 0.706542 0.028262
vn -0.923880 0.382378 0.015295
vn -0.923880 -0.382378 -0.015295
vn -0.707107 -0.706542 -0.028262
vn -0.382683 -0.923141 -0.036926
vn -0.000000 -0.999201 -0.039968
vn 0.382683 -0.923141 -0.036926
vn 0.707107 -0.706542 -0.028262
vn 0.923880 -0.382378 -0.015295
usemtl body
f 1/1/1 2/2/1 3/3/2
f 1/1/1 3/3/2 4/4/3
f 4/4/3 3/3/2 5/5/4
f 4/4/3 5/5/4 6/6/5
f 6/6/5 5/5/4 7/7/6
f 6/6/5 7/7/6 8/8/7
f 8/8/7 7/7/6 9/9/8
f 8/8/7 9/9/8 10/10/9
f 10/10/9 9/9/8 11/11/10
f 10/10/9 11/11/10 12/12/11
f 12/12/11 11/11/10 13/13/12
f 12/12/11 13/13/12 14/14/13
f 14/14/13 13/13/12 15/15/14
f 14/14/13 15/15/14 16/16/15
f 16/16/15 15/15/14 17/17/16
f 16/16/15 17/17/16 18/18/16
f 18/18/16 17/17/16 19/19/17
f 18/18/16 19/19/17 20/20/18
f 20/20/18 19/19/17 21/21/19
f 20/20/18 21/21/19 22/22/20
f 22/22/20 21/21/19 23/23/21
f 22/22/20 23/23/21 24/24/22
f 24/24/22 23/23/21 25/25/23
f 24/24/22 25/25/23 26/26/24
f 26/26/24 25/25/23 27/27/25
f 26/26/24 27/27/25 28/28/26
f 28/28/26 27/27/25 29/29/27
f 28/28/26 29/29/27 30/30/28
f 30/30/28 29/29/27 31/31/29
f 30/30/28 31/31/29 32/32/30
f 32/32/30 31/31/29 2/33/1
f 32/32/30 2/33/1 1/34/1
f 2/2/1 33/35/1 34/36/31
f 2/2/1 34/36/31 3/3/2
f 3/3/2 34/36/31 35/37/32
f 3/3/2 35/37/32 5/5/4
f 5/5/4 35/37/32 36/38/33
f 5/5/4 36/38/33 7/7/6
f 7/7/6 36/38/33 37/39/34
f 7/7/6 37/39/34 9/9/8
f 9/9/8 37/39/34 38/40/35
f 9/9/8 38/40/35 11/11/10
f 11/11/10 38/40/35 39/41/36
f 11/11/10 39/41/36 13/13/12
f 13/13/12 39/41/36 40/42/37
f 13/13/12 40/42/37 15/15/14
f 15/15/14 40/42/37 41/43/16
f 15/15/14 41/43/16 17/17/16
f 17/17/16 41/43/16 42/44/38
f 17/17/16 42/44/38 19/19/17
f 19/19/17 42/44/38 43/45/39
f 19/19/17 43/45/39 21/21/19
f 21/21/19 43/45/39 44/46/40
f 21/21/19 44/46/40 23/23/21
f 23/23/21 44/46/40 45/47/41
f 23/23/21 45/47/41 25/25/23
f 25/25/23 45/47/41 46/48/42
f 25/25/23 46/48/42 27/27/25
f 27/27/25 46/48/42 47/49/43
f 27/27/25 47/49/43 29/29/27
f 29/29/27 47/49/43 48/50/44
f 29/29/27 48/50/44 31/31/29
f 31/31/29 48/50/44 33/51/1
f 31/31/29 33/51/1 2/33/1
f 33/35/1 49/52/1 50/53/45
f 33/35/1 50/53/45 34/36/31
f 34/36/31 50/53/45 51/54/46
f 34/36/31 51/54/46 35/37/32
f 35/37/32 51/54/46 52/55/47
f 35/37/32 52/55/47 36/38/33
f 36/38/33 52/55/47 53/56/48
f 36/38/33 53/56/48 37/39/34
f 37/39/34 53/56/48 54/57/49
f 37/39/34 54/57/49 38/40/35
f 38/40/35 54/57/49 55/58/50
f 38/40/35 55/58/50 39/41/36
f 39/41/36 55/58/50 56/59/51
f 39/41/36 56/59/51 40/42/37
f 40/42/37 56/59/51 57/60/16
f 40/42/37 57/60/16 41/43/16
f 41/43/16 57/60/16 58/61/52
f 41/43/16 58/61/52 42/44/38
f 42/44/38 58/61/52 59/62/53
f 42/44/38 59/62/53 43/45/39
f 43/45/39 59/62/53 60/63/54
f 43/45/39 60/63/54 44/46/40
f 44/46/40 60/63/54 61/64/55
f 44/46/40 61/64/55 45/47/41
f 45/47/41 61/64/55 62/65/56
f 45/47/41 62/65/56 46/48/42
f 46/48/42 62/65/56 63/66/57
f 46/48/42 63/66/57 47/49/43
f 47/49/43 63/66/57 64/67/58
f 47/49/43 64/67/58 48/50/44
f 48/50/44 64/67/58 49/68/1
f 48/50/44 49/68/1 33/51/1
f 49/52/1 65/69/1 66/70/59
f 49/52/1 66/70/59 50/53/45
f 50/53/45 66/70/59 67/71/60
f 50/53/45 67/71/60 51/54/46
f 51/54/46 67/71/60 68/72/61
f 51/54/46 68/72/61 52/55/47
f 52/55/47 68/72/61 69/73/62
f 52/55/47 69/73/62 53/56/48
f 53/56/48 69/73/62 70/74/63
f 53/56/48 70/74/63 54/57/49
f 54/57/49 70/74/63 71/75/64
f 54/57/49 71/75/64 55/58/50
f 55/58/50 71/75/64 72/76/65
f 55/58/50 72/76/65 56/59/51
f 56/59/51 72/76/65 73/77/16
f 56/59/51 73/77/16 57/60/16
f 57/60/16 73/77/16 74/78/66
f 57/60/16 74/78/66 58/61/52
f 58/61/52 74/78/66 75/79/67
f 58/61/52 75/79/67 59/62/53
f 59/62/53 75/79/67 76/80/68
f 59/62/53 76/80/68 60/63/54
f 60/63/54 76/80/68 77/81/69
f 60/63/54 77/81/69 61/64/55
f 61/64/55 77/81/69 78/82/70
f 61/64/55 78/82/70 62/65/56
f 62/65/56 78/82/70 79/83/71
f 62/65/56 79/83/71 63/66/57
f 63/66/57 79/83/71 80/84/72
f 63/66/57 80/84/72 64/67/58
f 64/67/58 80/84/72 65/85/1
f 64/67/58 65/85/1 49/68/1
f 65/69/1 81/86/1 82/87/73
f 65/69/1 82/87/73 66/70/59
f 66/70/59 82/87/73 83/88/74
f 66/70/59 83/88/74 67/71/60
f 67/71/60 83/88/74 84/89/75
f 67/71/60 84/89/75 68/72/61
f 68/72/61 84/89/75 85/90/76
f 68/72/61 85/90/76 69/73/62
f 69/73/62 85/90/76 86/91/77
f 69/73/62 86/91/77 70/74/63
f 70/74/63 86/91/77 87/92/78
f 70/74/63 87/92/78 71/75/64
f 71/75/64 87/92/78 88/93/79
f 71/75/64 88/93/79 72/76/65
f 72/76/65 88/93/79 89/94/16
f 72/76/65 89/94/16 73/77/16
f 73/77/16 89/94/16 90/95/80
f 73/77/16 90/95/80 74/78/66
f 74/78/66 90/95/80 91/96/81
f 74/78/66 91/96/81 75/79/67
f 75/79/67 91/96/81 92/97/82
f 75/79/67 92/97/82 76/80/68
f 76/80/68 92/97/82 93/98/83
f 76/80/68 93/98/83 77/81/69
f 77/81/69 93/98/83 94/99/84
f 77/81/69 94/99/84 78/82/70
f 78/82/70 94/99/84 95/100/85
f 78/82/70 95/100/85 79/83/71
f 79/83/71 95/100/85 96/101/86
f 79/83/71 96/101/86 80/84/72
f 80/84/72 96/101/86 81/102/1
f 80/84/72 81/102/1 65/85/1
f 81/86/1 97/103/1 98/104/87
f 81/86/1 98/104/87 82/87/73
f 82/87/73 98/104/87 99/105/88
f 82/87/73 99/105/88 83/88/74
f 83/88/74 99/105/88 100/106/89
f 83/88/74 100/106/89 84/89/75
f 84/89/75 100/106/89 101/107/90
f 84/89/75 101/107/90 85/90/76
f 85/90/76 101/107/90 102/108/91
f 85/90/76 102/108/91 86/91/77
f 86/91/77 102/108/91 103/109/92
f 86/91/77 103/109/92 87/92/78
f 87/92/78 103/109/92 104/110/93
f 87/92/78 104/110/93 88/93/79
f 88/93/79 104/110/93 105/111/16
f 88/93/79 105/111/16 89/94/16
f 89/94/16 105/111/16 106/112/94
f 89/94/16 106/112/94 90/95/80
f 90/95/80 106/112/94 107/113/95
f 90/95/80 107/113/95 91/96/81
f 91/96/81 107/113/95 108/114/96
f 91/96/81 108/114/96 92/97/82
f 92/97/82 108/114/96 109/115/97
f 92/97/82 109/115/97 93/98/83
f 93/98/83 109/115/97 110/116/98
f 93/98/83 110/116/98 94/99/84
f 94/99/84 110/116/98 111/117/99
f 94/99/84 111/117/99 95/100/85
f 95/100/85 111/117/99 112/118/100
f 95/100/85 112/118/100 96/101/86
f 96/101/86 112/118/100 97/119/1
f 96/101/86 97/119/1 81/102/1
f 97/103/1 113/120/1 114/121/101
f 97/103/1 114/121/101 98/104/87
f 98/104/87 114/121/101 115/122/102
f 98/104/87 115/122/102 99/105/88
f 99/105/88 115/122/102 116/123/103
f 99/105/88 116/123/103 100/106/89
f 100/106/89 116/123/103 117/124/104
f 100/106/89 117/124/104 101/107/90
f 101/107/90 117/124/104 118/125/105
f 101/107/90 118/125/105 102/108/91
f 102/108/91 118/125/105 119/126/106
f 102/108/91 119/126/106 103/109/92
f 103/109/92 119/126/106 120/127/107
f 103/109/92 120/127/107 104/110/93
f 104/110/93 120/127/107 121/128/16
f 104/110/93 121/128/16 105/111/16
f 105/111/16 121/128/16 122/129/108
f 105/111/16 122/129/108 106/112/94
f 106/112/94 122/129/108 123/130/109
f 106/112/94 123/130/109 107/113/95
f 107/113/95 123/130/109 124/131/110
f 107/113/95 124/131/110 108/114/96
f 108/114/96 124/131/110 125/132/111
f 108/114/96 125/132/111 109/115/97
f 109/115/97 125/132/111 126/133/112
f 109/115/97 126/133/112 110/116/98
f 110/116/98 126/133/112 127/134/113
f 110/116/98 127/134/113 111/117/99
f 111/117/99 127/134/113 128/135/114
f 111/117/99 128/135/114 112/118/100
f 112/118/100 128/135/114 113/136/1
f 112/118/100 113/136/1 97/119/1
f 113/120/1 129/137/1 130/138/115
f 113/120/1 130/138/115 114/121/101
f 114/121/101 130/138/115 131/139/116
f 114/121/101 131/139/116 115/122/102
f 115/122/102 131/139/116 132/140/117
f 115/122/102 132/140/117 116/123/103
f 116/123/103 132/140/117 133/141/118
f 116/123/103 133/141/118 117/124/104
f 117/124/104 133/141/118 134/142/119
f 117/124/104 134/142/119 118/125/105
f 118/125/105 134/142/119 135/143/120
f 118/125/105 135/143/120 119/126/106
f 119/126/106 135/143/120 136/144/121
f 119/126/106 136/144/121 120/127/107
f 120/127/107 136/144/121 137/145/16
f 120/127/107 137/145/16 121/128/16
f 121/128/16 137/145/16 138/146/122
f 121/128/16 138/146/122 122/129/108
f 122/129/108 138/146/122 139/147/123
f 122/129/108 139/147/123 123/130/109
f 123/130/109 139/147/123 140/148/124
f 123/130/109 140/148/124 124/131/110
f 124/131/110 140/148/124 141/149/125
f 124/131/110 141/149/125 125/132/111
f 125/132/111 141/149/125 142/150/126
f 125/132/111 142/150/126 126/133/112
f 126/133/112 142/150/126 143/151/127
f 126/133/112 143/151/127 127/134/113
f 127/134/113 143/151/127 144/152/128
f 127/134/113 144/152/128 128/135/114
f 128/135/114 144/152/128 129/153/1
f 128/135/114 129/153/1 113/136/1
f 129/137/1 145/154/1 146/155/129
f 129/137/1 146/155/129 130/138/115
f 130/138/115 146/155/129 147/156/130
f 130/138/115 147/156/130 131/139/116
f 131/139/116 147/156/130 148/157/131
f 131/139/116 148/157/131 132/140/117
f 132/140/117 148/157/131 149/158/132
f 132/140/117 149/158/132 133/141/118
f 133/141/118 149/158/132 150/159/133
f 133/141/118 150/159/133 134/142/119
f 134/142/119 150/159/133 151/160/134
f 134/142/119 151/160/134 135/143/120
f 135/143/120 151/160/134 152/161/135
f 135/143/120 152/161/135 136/144/121
f 136/144/121 152/161/135 153/162/16
f 136/144/121 153/162/16 137/145/16
f 137/145/16 153/162/16 154/163/136
f 137/145/16 154/163/136 138/146/122
f 138/146/122 154/163/136 155/164/137
f 138/146/122 155/164/137 139/147/123
f 139/147/123 155/164/137 156/165/138
f 139/147/123 156/165/138 140/148/124
f 140/148/124 156/165/138 157/166/139
f 140/148/124 157/166/139 141/149/125
f 141/149/125 157/166/139 158/167/140
f 141/149/125 158/167/140 142/150/126
f 142/150/126 158/167/140 159/168/141
f 142/150/126 159/168/141 143/151/127
f 143/151/127 159/168/141 160/169/142
f 143/151/127 160/169/142 144/152/128
f 144/152/128 160/169/142 145/170/1
f 144/152/128 145/170/1 129/153/1
f 145/154/1 161/171/1 162/172/143
f 145/154/1 162/172/143 146/155/129
f 146/155/129 162/172/143 163/173/144
f 146/155/129 163/173/144 147/156/130
f 147/156/130 163/173/144 164/174/145
f 147/156/130 164/174/145 148/157/131
f 148/157/131 164/174/145 165/175/146
f 148/157/131 165/175/146 149/158/132
f 149/158/132 165/175/146 166/176/147
f 149/158/132 166/176/147 150/159/133
f 150/159/133 166/176/147 167/177/148
f 150/159/133 167/177/148 151/160/134
f 151/160/134 167/177/148 168/178/149
f 151/160/134 168/178/149 152/161/135
f 152/161/135 168/178/149 169/179/16
f 152/161/135 169/179/16 153/162/16
f 153/162/16 169/179/16 170/180/150
f 153/162/16 170/180/150 154/163/136
f 154/163/136 170/180/150 171/181/151
f 154/163/136 171/181/151 155/164/137
f 155/164/137 171/181/151 172/182/152
f 155/164/137 172/182/152 156/165/138
f 156/165/138 172/182/152 173/183/153
f 156/165/138 173/183/153 157/166/139
f 157/166/139 173/183/153 174/184/154
f 157/166/139 174/184/154 158/167/140
f 158/167/140 174/184/154 175/185/155
f 158/167/140 175/185/155 159/168/141
f 159/168/141 175/185/155 176/186/156
f 159/168/141 176/186/156 160/169/142
f 160/169/142 176/186/156 161/187/1
f 160/169/142 161/187/1 145/170/1
f 161/171/1 177/188/1 178/189/157
f 161/171/1 178/189/157 162/172/143
f 162/172/143 178/189/157 179/190/158
f 162/172/143 179/190/158 163/173/144
f 163/173/144 179/190/158 180/191/159
f 163/173/144 180/191/159 164/174/145
f 164/174/145 180/191/159 181/192/160
f 164/174/145 181/192/160 165/175/146
f 165/175/146 181/192/160 182/193/161
f 165/175/146 182/193/161 166/176/147
f 166/176/147 182/193/161 183/194/162
f 166/176/147 183/194/162 167/177/148
f 167/177/148 183/194/162 184/195/163
f 167/177/148 184/195/163 168/178/149
f 168/178/149 184/195/163 185/196/16
f 168/178/149 185/196/16 169/179/16
f 169/179/16 185/196/16 186/197/164
f 169/179/16 186/197/164 170/180/150
f 170/180/150 186/197/164 187/198/165
f 170/180/150 187/198/165 171/181/151
f 171/181/151 187/198/165 188/199/166
f 171/181/151 188/199/166 172/182/152
f 172/182/152 188/199/166 189/200/167
f 172/182/152 189/200/167 173/183/153
f 173/183/153 189/200/167 190/201/168
f 173/183/153 190/201/168 174/184/154
f 174/184/154 190/201/168 191/202/169
f 174/184/154 191/202/169 175/185/155
f 175/185/155 191/202/169 192/203/170
f 175/185/155 192/203/170 176/186/156
f 176/186/156 192/203/170 177/204/1
f 176/186/156 177/204/1 161/187/1
f 177/188/1 193/205/1 194/206/171
f 177/188/1 194/206/171 178/189/157
f 178/189/157 194/206/171 195/207/172
f 178/189/157 195/207/172 179/190/158
f 179/190/158 195/207/172 196/208/173
f 179/190/158 196/208/173 180/191/159
f 180/191/159 196/208/173 197/209/174
f 180/191/159 197/209/174 181/192/160
f 181/192/160 197/209/174 198/210/175
f 181/192/160 198/210/175 182/193/161
f 182/193/161 198/210/175 199/211/176
f 182/193/161 199/211/176 183/194/162
f 183/194/162 199/211/176 200/212/177
f 183/194/162 200/212/177 184/195/163
f 184/195/163 200/212/177 201/213/16
f 184/195/163 201/213/16 185/196/16
f 185/196/16 201/213/16 202/214/178
f 185/196/16 202/214/178 186/197/164
f 186/197/164 202/214/178 203/215/179
f 186/197/164 203/215/179 187/198/165
f 187/198/165 203/215/179 204/216/180
f 187/198/165 204/216/180 188/199/166
f 188/199/166 204/216/180 205/217/181
f 188/199/166 205/217/181 189/200/167
f 189/200/167 205/217/181 206/218/182
f 189/200/167 206/218/182 190/201/168
f 190/201/168 206/218/182 207/219/183
f 190/201/168 207/219/183 191/202/169
f 191/202/169 207/219/183 208/220/184
f 191/202/169 208/220/184 192/203/170
f 192/203/170 208/220/184 193/221/1
f 192/203/170 193/221/1 177/204/1
