# Procedurally generated by dev-env-utils/scripts/gen_mast_arm_curves.py
# mount hardware on cell 0, model-space up
mtllib mastarmcurve.mtl
o mastarm_10x2_c0_up
v 0.500000 0.379413 0.369496
v 0.500000 0.445414 0.193996
v 0.630689 0.469746 0.203147
v 0.630689 0.403744 0.378647
v 0.741482 0.539037 0.229206
v 0.741482 0.473036 0.404706
v 0.815512 0.642739 0.268206
v 0.815512 0.576738 0.443706
v 0.841507 0.765064 0.314210
v 0.841507 0.699062 0.489709
v 0.815512 0.887389 0.360214
v 0.815512 0.821387 0.535713
v 0.741482 0.991090 0.399214
v 0.741482 0.925089 0.574713
v 0.630689 1.060382 0.425273
v 0.630689 0.994380 0.600772
v 0.500000 1.084714 0.434423
v 0.500000 1.018712 0.609923
v 0.369311 1.060382 0.425273
v 0.369311 0.994380 0.600772
v 0.258518 0.991090 0.399214
v 0.258518 0.925089 0.574713
v 0.184488 0.887389 0.360214
v 0.184488 0.821387 0.535713
v 0.158493 0.765064 0.314210
v 0.158493 0.699062 0.489709
v 0.184488 0.642739 0.268206
v 0.184488 0.576738 0.443706
v 0.258518 0.539037 0.229206
v 0.258518 0.473036 0.404706
v 0.369311 0.469746 0.203147
v 0.369311 0.403744 0.378647
v 0.500000 0.699062 0.489709
v 0.500000 0.765064 0.314210
v 0.700000 0.925000 0.500000
v 0.700000 0.999375 0.500000
v 0.641421 0.999375 0.641421
v 0.641421 0.925000 0.641421
v 0.500000 0.999375 0.700000
v 0.500000 0.925000 0.700000
v 0.358579 0.999375 0.641421
v 0.358579 0.925000 0.641421
v 0.300000 0.999375 0.500000
v 0.300000 0.925000 0.500000
v 0.358579 0.999375 0.358579
v 0.358579 0.925000 0.358579
v 0.500000 0.999375 0.300000
v 0.500000 0.925000 0.300000
v 0.641421 0.999375 0.358579
v 0.641421 0.925000 0.358579
v 0.500000 0.925000 0.500000
v 0.500000 0.999375 0.500000
vt 0.250000 0.750000
vt 0.250000 0.579246
vt 0.281250 0.579246
vt 0.281250 0.750000
vt 0.312500 0.579246
vt 0.312500 0.750000
vt 0.343750 0.579246
vt 0.343750 0.750000
vt 0.375000 0.579246
vt 0.375000 0.750000
vt 0.406250 0.579246
vt 0.406250 0.750000
vt 0.437500 0.579246
vt 0.437500 0.750000
vt 0.468750 0.579246
vt 0.468750 0.750000
vt 0.500000 0.579246
vt 0.500000 0.750000
vt 0.531250 0.579246
vt 0.531250 0.750000
vt 0.562500 0.579246
vt 0.562500 0.750000
vt 0.593750 0.579246
vt 0.593750 0.750000
vt 0.625000 0.579246
vt 0.625000 0.750000
vt 0.656250 0.579246
vt 0.656250 0.750000
vt 0.687500 0.579246
vt 0.687500 0.750000
vt 0.718750 0.579246
vt 0.718750 0.750000
vt 0.750000 0.579246
vt 0.750000 0.750000
vt 0.500000 0.500000
vt 0.400000 0.600000
vt 0.600000 0.400000
vt 0.250000 0.650000
vt 0.312500 0.650000
vt 0.375000 0.650000
vt 0.437500 0.650000
vt 0.500000 0.650000
vt 0.562500 0.650000
vt 0.625000 0.650000
vt 0.687500 0.650000
vt 0.750000 0.650000
vn 0.000000 -0.935997 -0.352008
vn 0.382683 -0.864748 -0.325213
vn 0.707107 -0.661850 -0.248907
vn 0.923880 -0.358191 -0.134708
vn 1.000000 -0.000000 -0.000000
vn 0.923880 0.358191 0.134708
vn 0.707107 0.661850 0.248907
vn 0.382683 0.864748 0.325213
vn 0.000000 0.935997 0.352008
vn -0.382683 0.864748 0.325213
vn -0.707107 0.661850 0.248907
vn -0.923880 0.358191 0.134708
vn -1.000000 0.000000 0.000000
vn -0.923880 -0.358191 -0.134708
vn -0.707107 -0.661850 -0.248907
vn -0.382683 -0.864748 -0.325213
vn -0.000000 -0.352008 0.935997
vn 0.000000 0.352008 -0.935997
vn 0.707107 0.000000 0.707107
vn 0.000000 0.000000 1.000000
vn -0.707107 0.000000 0.707107
vn -0.707107 -0.000000 -0.707107
vn -0.000000 -0.000000 -1.000000
vn 0.707107 0.000000 -0.707107
vn -0.000000 -1.000000 -0.000000
vn 0.000000 1.000000 0.000000
usemtl body
f 1/1/1 2/2/1 3/3/2
f 1/1/1 3/3/2 4/4/2
f 4/4/2 3/3/2 5/5/3
f 4/4/2 5/5/3 6/6/3
f 6/6/3 5/5/3 7/7/4
f 6/6/3 7/7/4 8/8/4
f 8/8/4 7/7/4 9/9/5
f 8/8/4 9/9/5 10/10/5
f 10/10/5 9/9/5 11/11/6
f 10/10/5 11/11/6 12/12/6
f 12/12/6 11/11/6 13/13/7
f 12/12/6 13/13/7 14/14/7
f 14/14/7 13/13/7 15/15/8
f 14/14/7 15/15/8 16/16/8
f 16/16/8 15/15/8 17/17/9
f 16/16/8 17/17/9 18/18/9
f 18/18/9 17/17/9 19/19/10
f 18/18/9 19/19/10 20/20/10
f 20/20/10 19/19/10 21/21/11
f 20/20/10 21/21/11 22/22/11
f 22/22/11 21/21/11 23/23/12
f 22/22/11 23/23/12 24/24/12
f 24/24/12 23/23/12 25/25/13
f 24/24/12 25/25/13 26/26/13
f 26/26/13 25/25/13 27/27/14
f 26/26/13 27/27/14 28/28/14
f 28/28/14 27/27/14 29/29/15
f 28/28/14 29/29/15 30/30/15
f 30/30/15 29/29/15 31/31/16
f 30/30/15 31/31/16 32/32/16
f 32/32/16 31/31/16 2/33/1
f 32/32/16 2/33/1 1/34/1
f 33/35/17 1/36/17 4/37/17
f 33/35/17 4/36/17 6/37/17
f 33/35/17 6/36/17 8/37/17
f 33/35/17 8/36/17 10/37/17
f 33/35/17 10/36/17 12/37/17
f 33/35/17 12/36/17 14/37/17
f 33/35/17 14/36/17 16/37/17
f 33/35/17 16/36/17 18/37/17
f 33/35/17 18/36/17 20/37/17
f 33/35/17 20/36/17 22/37/17
f 33/35/17 22/36/17 24/37/17
f 33/35/17 24/36/17 26/37/17
f 33/35/17 26/36/17 28/37/17
f 33/35/17 28/36/17 30/37/17
f 33/35/17 30/36/17 32/37/17
f 33/35/17 32/36/17 1/37/17
f 34/35/18 3/37/18 2/36/18
f 34/35/18 5/37/18 3/36/18
f 34/35/18 7/37/18 5/36/18
f 34/35/18 9/37/18 7/36/18
f 34/35/18 11/37/18 9/36/18
f 34/35/18 13/37/18 11/36/18
f 34/35/18 15/37/18 13/36/18
f 34/35/18 17/37/18 15/36/18
f 34/35/18 19/37/18 17/36/18
f 34/35/18 21/37/18 19/36/18
f 34/35/18 23/37/18 21/36/18
f 34/35/18 25/37/18 23/36/18
f 34/35/18 27/37/18 25/36/18
f 34/35/18 29/37/18 27/36/18
f 34/35/18 31/37/18 29/36/18
f 34/35/18 2/37/18 31/36/18
f 35/1/5 36/38/5 37/39/19
f 35/1/5 37/39/19 38/6/19
f 38/6/19 37/39/19 39/40/20
f 38/6/19 39/40/20 40/10/20
f 40/10/20 39/40/20 41/41/21
f 40/10/20 41/41/21 42/14/21
f 42/14/21 41/41/21 43/42/13
f 42/14/21 43/42/13 44/18/13
f 44/18/13 43/42/13 45/43/22
f 44/18/13 45/43/22 46/22/22
f 46/22/22 45/43/22 47/44/23
f 46/22/22 47/44/23 48/26/23
f 48/26/23 47/44/23 49/45/24
f 48/26/23 49/45/24 50/30/24
f 50/30/24 49/45/24 36/46/5
f 50/30/24 36/46/5 35/34/5
f 51/35/25 35/36/25 38/37/25
f 51/35/25 38/36/25 40/37/25
f 51/35/25 40/36/25 42/37/25
f 51/35/25 42/36/25 44/37/25
f 51/35/25 44/36/25 46/37/25
f 51/35/25 46/36/25 48/37/25
f 51/35/25 48/36/25 50/37/25
f 51/35/25 50/36/25 35/37/25
f 52/35/26 37/37/26 36/36/26
f 52/35/26 39/37/26 37/36/26
f 52/35/26 41/37/26 39/36/26
f 52/35/26 43/37/26 41/36/26
f 52/35/26 45/37/26 43/36/26
f 52/35/26 47/37/26 45/36/26
f 52/35/26 49/37/26 47/36/26
f 52/35/26 36/37/26 49/36/26
