# Procedurally generated by dev-env-utils/scripts/gen_pedestal_pole.py -- do not hand edit
# domed cap at the model-south end
mtllib pedestalpole.mtl
o pedestalpole_cap_s
v 0.681884 0.378469 0.918750
v 0.656940 0.395136 0.900000
v 0.685123 0.463177 0.900000
v 0.714547 0.457324 0.918750
v 0.621531 0.318116 0.918750
v 0.604864 0.343060 0.900000
v 0.542676 0.285453 0.918750
v 0.536823 0.314877 0.900000
v 0.457324 0.285453 0.918750
v 0.463177 0.314877 0.900000
v 0.378469 0.318116 0.918750
v 0.395136 0.343060 0.900000
v 0.318116 0.378469 0.918750
v 0.343060 0.395136 0.900000
v 0.285453 0.457324 0.918750
v 0.314877 0.463177 0.900000
v 0.285453 0.542676 0.918750
v 0.314877 0.536823 0.900000
v 0.318116 0.621531 0.918750
v 0.343060 0.604864 0.900000
v 0.378469 0.681884 0.918750
v 0.395136 0.656940 0.900000
v 0.457324 0.714547 0.918750
v 0.463177 0.685123 0.900000
v 0.542676 0.714547 0.918750
v 0.536823 0.685123 0.900000
v 0.621531 0.681884 0.918750
v 0.604864 0.656940 0.900000
v 0.681884 0.621531 0.918750
v 0.656940 0.604864 0.900000
v 0.714547 0.542676 0.918750
v 0.685123 0.536823 0.900000
v 0.681884 0.378469 0.950000
v 0.714547 0.457324 0.950000
v 0.621531 0.318116 0.950000
v 0.542676 0.285453 0.950000
v 0.457324 0.285453 0.950000
v 0.378469 0.318116 0.950000
v 0.318116 0.378469 0.950000
v 0.285453 0.457324 0.950000
v 0.285453 0.542676 0.950000
v 0.318116 0.621531 0.950000
v 0.378469 0.681884 0.950000
v 0.457324 0.714547 0.950000
v 0.542676 0.714547 0.950000
v 0.621531 0.681884 0.950000
v 0.681884 0.621531 0.950000
v 0.714547 0.542676 0.950000
v 0.663696 0.390622 0.975000
v 0.693092 0.461592 0.975000
v 0.609378 0.336304 0.975000
v 0.538408 0.306908 0.975000
v 0.461592 0.306908 0.975000
v 0.390622 0.336304 0.975000
v 0.336304 0.390622 0.975000
v 0.306908 0.461592 0.975000
v 0.306908 0.538408 0.975000
v 0.336304 0.609378 0.975000
v 0.390622 0.663696 0.975000
v 0.461592 0.693092 0.975000
v 0.538408 0.693092 0.975000
v 0.609378 0.663696 0.975000
v 0.663696 0.609378 0.975000
v 0.693092 0.538408 0.975000
v 0.619524 0.420137 0.991875
v 0.640988 0.471956 0.991875
v 0.579863 0.380476 0.991875
v 0.528044 0.359012 0.991875
v 0.471956 0.359012 0.991875
v 0.420137 0.380476 0.991875
v 0.380476 0.420137 0.991875
v 0.359012 0.471956 0.991875
v 0.359012 0.528044 0.991875
v 0.380476 0.579863 0.991875
v 0.420137 0.619524 0.991875
v 0.471956 0.640988 0.991875
v 0.528044 0.640988 0.991875
v 0.579863 0.619524 0.991875
v 0.619524 0.579863 0.991875
v 0.640988 0.528044 0.991875
v 0.562360 0.458332 0.998750
v 0.573559 0.485368 0.998750
v 0.541668 0.437640 0.998750
v 0.514632 0.426441 0.998750
v 0.485368 0.426441 0.998750
v 0.458332 0.437640 0.998750
v 0.437640 0.458332 0.998750
v 0.426441 0.485368 0.998750
v 0.426441 0.514632 0.998750
v 0.437640 0.541668 0.998750
v 0.458332 0.562360 0.998750
v 0.485368 0.573559 0.998750
v 0.514632 0.573559 0.998750
v 0.541668 0.562360 0.998750
v 0.562360 0.541668 0.998750
v 0.573559 0.514632 0.998750
v 0.500000 0.500000 1.000000
vt 0.281250 0.290625
vt 0.281250 0.300000
vt 0.250000 0.300000
vt 0.250000 0.290625
vt 0.312500 0.290625
vt 0.312500 0.300000
vt 0.343750 0.290625
vt 0.343750 0.300000
vt 0.375000 0.290625
vt 0.375000 0.300000
vt 0.406250 0.290625
vt 0.406250 0.300000
vt 0.437500 0.290625
vt 0.437500 0.300000
vt 0.468750 0.290625
vt 0.468750 0.300000
vt 0.500000 0.290625
vt 0.500000 0.300000
vt 0.531250 0.290625
vt 0.531250 0.300000
vt 0.562500 0.290625
vt 0.562500 0.300000
vt 0.593750 0.290625
vt 0.593750 0.300000
vt 0.625000 0.290625
vt 0.625000 0.300000
vt 0.656250 0.290625
vt 0.656250 0.300000
vt 0.687500 0.290625
vt 0.687500 0.300000
vt 0.718750 0.290625
vt 0.718750 0.300000
vt 0.750000 0.290625
vt 0.750000 0.300000
vt 0.281250 0.275000
vt 0.250000 0.275000
vt 0.312500 0.275000
vt 0.343750 0.275000
vt 0.375000 0.275000
vt 0.406250 0.275000
vt 0.437500 0.275000
vt 0.468750 0.275000
vt 0.500000 0.275000
vt 0.531250 0.275000
vt 0.562500 0.275000
vt 0.593750 0.275000
vt 0.625000 0.275000
vt 0.656250 0.275000
vt 0.687500 0.275000
vt 0.718750 0.275000
vt 0.750000 0.275000
vt 0.281250 0.262500
vt 0.250000 0.262500
vt 0.312500 0.262500
vt 0.343750 0.262500
vt 0.375000 0.262500
vt 0.406250 0.262500
vt 0.437500 0.262500
vt 0.468750 0.262500
vt 0.500000 0.262500
vt 0.531250 0.262500
vt 0.562500 0.262500
vt 0.593750 0.262500
vt 0.625000 0.262500
vt 0.656250 0.262500
vt 0.687500 0.262500
vt 0.718750 0.262500
vt 0.750000 0.262500
vt 0.281250 0.254063
vt 0.250000 0.254063
vt 0.312500 0.254063
vt 0.343750 0.254063
vt 0.375000 0.254063
vt 0.406250 0.254063
vt 0.437500 0.254063
vt 0.468750 0.254063
vt 0.500000 0.254063
vt 0.531250 0.254063
vt 0.562500 0.254063
vt 0.593750 0.254063
vt 0.625000 0.254063
vt 0.656250 0.254063
vt 0.687500 0.254063
vt 0.718750 0.254063
vt 0.750000 0.254063
vt 0.281250 0.250625
vt 0.250000 0.250625
vt 0.312500 0.250625
vt 0.343750 0.250625
vt 0.375000 0.250625
vt 0.406250 0.250625
vt 0.437500 0.250625
vt 0.468750 0.250625
vt 0.500000 0.250625
vt 0.531250 0.250625
vt 0.562500 0.250625
vt 0.593750 0.250625
vt 0.625000 0.250625
vt 0.656250 0.250625
vt 0.687500 0.250625
vt 0.718750 0.250625
vt 0.750000 0.250625
vt 0.265625 0.250000
vt 0.296875 0.250000
vt 0.328125 0.250000
vt 0.359375 0.250000
vt 0.390625 0.250000
vt 0.421875 0.250000
vt 0.453125 0.250000
vt 0.484375 0.250000
vt 0.515625 0.250000
vt 0.546875 0.250000
vt 0.578125 0.250000
vt 0.609375 0.250000
vt 0.640625 0.250000
vt 0.671875 0.250000
vt 0.703125 0.250000
vt 0.734375 0.250000
vn 0.712979 -0.476398 -0.514496
vn 0.440678 -0.294452 -0.847998
vn 0.519815 -0.103398 -0.847998
vn 0.841016 -0.167289 -0.514496
vn 0.476398 -0.712979 -0.514496
vn 0.294452 -0.440678 -0.847998
vn 0.167289 -0.841016 -0.514496
vn 0.103398 -0.519815 -0.847998
vn -0.167289 -0.841016 -0.514496
vn -0.103398 -0.519815 -0.847998
vn -0.476398 -0.712979 -0.514496
vn -0.294452 -0.440678 -0.847998
vn -0.712979 -0.476398 -0.514496
vn -0.440678 -0.294452 -0.847998
vn -0.841016 -0.167289 -0.514496
vn -0.519815 -0.103398 -0.847998
vn -0.841016 0.167289 -0.514496
vn -0.519815 0.103398 -0.847998
vn -0.712979 0.476398 -0.514496
vn -0.440678 0.294452 -0.847998
vn -0.476398 0.712979 -0.514496
vn -0.294452 0.440678 -0.847998
vn -0.167289 0.841016 -0.514496
vn -0.103398 0.519815 -0.847998
vn 0.167289 0.841016 -0.514496
vn 0.103398 0.519815 -0.847998
vn 0.476398 0.712979 -0.514496
vn 0.294452 0.440678 -0.847998
vn 0.712979 0.476398 -0.514496
vn 0.440678 0.294452 -0.847998
vn 0.841016 0.167289 -0.514496
vn 0.519815 0.103398 -0.847998
vn 0.774934 -0.517794 0.362446
vn 0.914096 -0.181825 0.362446
vn 0.517794 -0.774934 0.362446
vn 0.181825 -0.914096 0.362446
vn -0.181825 -0.914096 0.362446
vn -0.517794 -0.774934 0.362446
vn -0.774934 -0.517794 0.362446
vn -0.914096 -0.181825 0.362446
vn -0.914096 0.181825 0.362446
vn -0.774934 0.517794 0.362446
vn -0.517794 0.774934 0.362446
vn -0.181825 0.914096 0.362446
vn 0.181825 0.914096 0.362446
vn 0.517794 0.774934 0.362446
vn 0.774934 0.517794 0.362446
vn 0.914096 0.181825 0.362446
vn 0.405337 -0.270838 0.873126
vn 0.478128 -0.095106 0.873126
vn 0.270838 -0.405337 0.873126
vn 0.095106 -0.478128 0.873126
vn -0.095106 -0.478128 0.873126
vn -0.270838 -0.405337 0.873126
vn -0.405337 -0.270838 0.873126
vn -0.478128 -0.095106 0.873126
vn -0.478128 0.095106 0.873126
vn -0.405337 0.270838 0.873126
vn -0.270838 0.405337 0.873126
vn -0.095106 0.478128 0.873126
vn 0.095106 0.478128 0.873126
vn 0.270838 0.405337 0.873126
vn 0.405337 0.270838 0.873126
vn 0.478128 0.095106 0.873126
vn 0.159038 -0.106266 0.981537
vn 0.187599 -0.037316 0.981537
vn 0.106266 -0.159038 0.981537
vn 0.037316 -0.187599 0.981537
vn -0.037316 -0.187599 0.981537
vn -0.106266 -0.159038 0.981537
vn -0.159038 -0.106266 0.981537
vn -0.187599 -0.037316 0.981537
vn -0.187599 0.037316 0.981537
vn -0.159038 0.106266 0.981537
vn -0.106266 0.159038 0.981537
vn -0.037316 0.187599 0.981537
vn 0.037316 0.187599 0.981537
vn 0.106266 0.159038 0.981537
vn 0.159038 0.106266 0.981537
vn 0.187599 0.037316 0.981537
vn 0.046921 -0.031352 0.998406
vn 0.055347 -0.011009 0.998406
vn 0.031352 -0.046921 0.998406
vn 0.011009 -0.055347 0.998406
vn -0.011009 -0.055347 0.998406
vn -0.031352 -0.046921 0.998406
vn -0.046921 -0.031352 0.998406
vn -0.055347 -0.011009 0.998406
vn -0.055347 0.011009 0.998406
vn -0.046921 0.031352 0.998406
vn -0.031352 0.046921 0.998406
vn -0.011009 0.055347 0.998406
vn 0.011009 0.055347 0.998406
vn 0.031352 0.046921 0.998406
vn 0.046921 0.031352 0.998406
vn 0.055347 0.011009 0.998406
vn 0.016344 -0.003251 0.999861
vn 0.013856 -0.009258 0.999861
vn 0.009258 -0.013856 0.999861
vn 0.003251 -0.016344 0.999861
vn -0.003251 -0.016344 0.999861
vn -0.009258 -0.013856 0.999861
vn -0.013856 -0.009258 0.999861
vn -0.016344 -0.003251 0.999861
vn -0.016344 0.003251 0.999861
vn -0.013856 0.009258 0.999861
vn -0.009258 0.013856 0.999861
vn -0.003251 0.016344 0.999861
vn 0.003251 0.016344 0.999861
vn 0.009258 0.013856 0.999861
vn 0.013856 0.009258 0.999861
vn 0.016344 0.003251 0.999861
usemtl body
f 1/1/1 2/2/2 3/3/3
f 4/4/4 1/1/1 3/3/3
f 5/5/5 6/6/6 2/2/2
f 1/1/1 5/5/5 2/2/2
f 7/7/7 8/8/8 6/6/6
f 5/5/5 7/7/7 6/6/6
f 9/9/9 10/10/10 8/8/8
f 7/7/7 9/9/9 8/8/8
f 11/11/11 12/12/12 10/10/10
f 9/9/9 11/11/11 10/10/10
f 13/13/13 14/14/14 12/12/12
f 11/11/11 13/13/13 12/12/12
f 15/15/15 16/16/16 14/14/14
f 13/13/13 15/15/15 14/14/14
f 17/17/17 18/18/18 16/16/16
f 15/15/15 17/17/17 16/16/16
f 19/19/19 20/20/20 18/18/18
f 17/17/17 19/19/19 18/18/18
f 21/21/21 22/22/22 20/20/20
f 19/19/19 21/21/21 20/20/20
f 23/23/23 24/24/24 22/22/22
f 21/21/21 23/23/23 22/22/22
f 25/25/25 26/26/26 24/24/24
f 23/23/23 25/25/25 24/24/24
f 27/27/27 28/28/28 26/26/26
f 25/25/25 27/27/27 26/26/26
f 29/29/29 30/30/30 28/28/28
f 27/27/27 29/29/29 28/28/28
f 31/31/31 32/32/32 30/30/30
f 29/29/29 31/31/31 30/30/30
f 4/33/4 3/34/3 32/32/32
f 31/31/31 4/33/4 32/32/32
f 33/35/33 1/1/1 4/4/4
f 34/36/34 33/35/33 4/4/4
f 35/37/35 5/5/5 1/1/1
f 33/35/33 35/37/35 1/1/1
f 36/38/36 7/7/7 5/5/5
f 35/37/35 36/38/36 5/5/5
f 37/39/37 9/9/9 7/7/7
f 36/38/36 37/39/37 7/7/7
f 38/40/38 11/11/11 9/9/9
f 37/39/37 38/40/38 9/9/9
f 39/41/39 13/13/13 11/11/11
f 38/40/38 39/41/39 11/11/11
f 40/42/40 15/15/15 13/13/13
f 39/41/39 40/42/40 13/13/13
f 41/43/41 17/17/17 15/15/15
f 40/42/40 41/43/41 15/15/15
f 42/44/42 19/19/19 17/17/17
f 41/43/41 42/44/42 17/17/17
f 43/45/43 21/21/21 19/19/19
f 42/44/42 43/45/43 19/19/19
f 44/46/44 23/23/23 21/21/21
f 43/45/43 44/46/44 21/21/21
f 45/47/45 25/25/25 23/23/23
f 44/46/44 45/47/45 23/23/23
f 46/48/46 27/27/27 25/25/25
f 45/47/45 46/48/46 25/25/25
f 47/49/47 29/29/29 27/27/27
f 46/48/46 47/49/47 27/27/27
f 48/50/48 31/31/31 29/29/29
f 47/49/47 48/50/48 29/29/29
f 34/51/34 4/33/4 31/31/31
f 48/50/48 34/51/34 31/31/31
f 49/52/49 33/35/33 34/36/34
f 50/53/50 49/52/49 34/36/34
f 51/54/51 35/37/35 33/35/33
f 49/52/49 51/54/51 33/35/33
f 52/55/52 36/38/36 35/37/35
f 51/54/51 52/55/52 35/37/35
f 53/56/53 37/39/37 36/38/36
f 52/55/52 53/56/53 36/38/36
f 54/57/54 38/40/38 37/39/37
f 53/56/53 54/57/54 37/39/37
f 55/58/55 39/41/39 38/40/38
f 54/57/54 55/58/55 38/40/38
f 56/59/56 40/42/40 39/41/39
f 55/58/55 56/59/56 39/41/39
f 57/60/57 41/43/41 40/42/40
f 56/59/56 57/60/57 40/42/40
f 58/61/58 42/44/42 41/43/41
f 57/60/57 58/61/58 41/43/41
f 59/62/59 43/45/43 42/44/42
f 58/61/58 59/62/59 42/44/42
f 60/63/60 44/46/44 43/45/43
f 59/62/59 60/63/60 43/45/43
f 61/64/61 45/47/45 44/46/44
f 60/63/60 61/64/61 44/46/44
f 62/65/62 46/48/46 45/47/45
f 61/64/61 62/65/62 45/47/45
f 63/66/63 47/49/47 46/48/46
f 62/65/62 63/66/63 46/48/46
f 64/67/64 48/50/48 47/49/47
f 63/66/63 64/67/64 47/49/47
f 50/68/50 34/51/34 48/50/48
f 64/67/64 50/68/50 48/50/48
f 65/69/65 49/52/49 50/53/50
f 66/70/66 65/69/65 50/53/50
f 67/71/67 51/54/51 49/52/49
f 65/69/65 67/71/67 49/52/49
f 68/72/68 52/55/52 51/54/51
f 67/71/67 68/72/68 51/54/51
f 69/73/69 53/56/53 52/55/52
f 68/72/68 69/73/69 52/55/52
f 70/74/70 54/57/54 53/56/53
f 69/73/69 70/74/70 53/56/53
f 71/75/71 55/58/55 54/57/54
f 70/74/70 71/75/71 54/57/54
f 72/76/72 56/59/56 55/58/55
f 71/75/71 72/76/72 55/58/55
f 73/77/73 57/60/57 56/59/56
f 72/76/72 73/77/73 56/59/56
f 74/78/74 58/61/58 57/60/57
f 73/77/73 74/78/74 57/60/57
f 75/79/75 59/62/59 58/61/58
f 74/78/74 75/79/75 58/61/58
f 76/80/76 60/63/60 59/62/59
f 75/79/75 76/80/76 59/62/59
f 77/81/77 61/64/61 60/63/60
f 76/80/76 77/81/77 60/63/60
f 78/82/78 62/65/62 61/64/61
f 77/81/77 78/82/78 61/64/61
f 79/83/79 63/66/63 62/65/62
f 78/82/78 79/83/79 62/65/62
f 80/84/80 64/67/64 63/66/63
f 79/83/79 80/84/80 63/66/63
f 66/85/66 50/68/50 64/67/64
f 80/84/80 66/85/66 64/67/64
f 81/86/81 65/69/65 66/70/66
f 82/87/82 81/86/81 66/70/66
f 83/88/83 67/71/67 65/69/65
f 81/86/81 83/88/83 65/69/65
f 84/89/84 68/72/68 67/71/67
f 83/88/83 84/89/84 67/71/67
f 85/90/85 69/73/69 68/72/68
f 84/89/84 85/90/85 68/72/68
f 86/91/86 70/74/70 69/73/69
f 85/90/85 86/91/86 69/73/69
f 87/92/87 71/75/71 70/74/70
f 86/91/86 87/92/87 70/74/70
f 88/93/88 72/76/72 71/75/71
f 87/92/87 88/93/88 71/75/71
f 89/94/89 73/77/73 72/76/72
f 88/93/88 89/94/89 72/76/72
f 90/95/90 74/78/74 73/77/73
f 89/94/89 90/95/90 73/77/73
f 91/96/91 75/79/75 74/78/74
f 90/95/90 91/96/91 74/78/74
f 92/97/92 76/80/76 75/79/75
f 91/96/91 92/97/92 75/79/75
f 93/98/93 77/81/77 76/80/76
f 92/97/92 93/98/93 76/80/76
f 94/99/94 78/82/78 77/81/77
f 93/98/93 94/99/94 77/81/77
f 95/100/95 79/83/79 78/82/78
f 94/99/94 95/100/95 78/82/78
f 96/101/96 80/84/80 79/83/79
f 95/100/95 96/101/96 79/83/79
f 82/102/82 66/85/66 80/84/80
f 96/101/96 82/102/82 80/84/80
f 97/103/97 81/86/81 82/87/82
f 97/104/98 83/88/83 81/86/81
f 97/105/99 84/89/84 83/88/83
f 97/106/100 85/90/85 84/89/84
f 97/107/101 86/91/86 85/90/85
f 97/108/102 87/92/87 86/91/86
f 97/109/103 88/93/88 87/92/87
f 97/110/104 89/94/89 88/93/88
f 97/111/105 90/95/90 89/94/89
f 97/112/106 91/96/91 90/95/90
f 97/113/107 92/97/92 91/96/91
f 97/114/108 93/98/93 92/97/92
f 97/115/109 94/99/94 93/98/93
f 97/116/110 95/100/95 94/99/94
f 97/117/111 96/101/96 95/100/95
f 97/118/112 82/102/82 96/101/96
