# Procedurally generated by dev-env-utils/scripts/gen_pedestal_pole.py -- do not hand edit
# tube, along Z
mtllib pedestalpole.mtl
o pedestalpole_shaft
v 0.655901 0.604169 0.000625
v 0.655901 0.604169 0.999375
v 0.683897 0.536579 0.999375
v 0.683897 0.536579 0.000625
v 0.604169 0.655901 0.000625
v 0.604169 0.655901 0.999375
v 0.536579 0.683897 0.000625
v 0.536579 0.683897 0.999375
v 0.463421 0.683897 0.000625
v 0.463421 0.683897 0.999375
v 0.395831 0.655901 0.000625
v 0.395831 0.655901 0.999375
v 0.344099 0.604169 0.000625
v 0.344099 0.604169 0.999375
v 0.316103 0.536579 0.000625
v 0.316103 0.536579 0.999375
v 0.316103 0.463421 0.000625
v 0.316103 0.463421 0.999375
v 0.344099 0.395831 0.000625
v 0.344099 0.395831 0.999375
v 0.395831 0.344099 0.000625
v 0.395831 0.344099 0.999375
v 0.463421 0.316103 0.000625
v 0.463421 0.316103 0.999375
v 0.536579 0.316103 0.000625
v 0.536579 0.316103 0.999375
v 0.604169 0.344099 0.000625
v 0.604169 0.344099 0.999375
v 0.655901 0.395831 0.000625
v 0.655901 0.395831 0.999375
v 0.683897 0.463421 0.000625
v 0.683897 0.463421 0.999375
v 0.500000 0.500000 0.999375
v 0.500000 0.500000 0.000625
vt 0.281250 0.250312
vt 0.281250 0.749688
vt 0.250000 0.749688
vt 0.250000 0.250312
vt 0.312500 0.250312
vt 0.312500 0.749688
vt 0.343750 0.250312
vt 0.343750 0.749688
vt 0.375000 0.250312
vt 0.375000 0.749688
vt 0.406250 0.250312
vt 0.406250 0.749688
vt 0.437500 0.250312
vt 0.437500 0.749688
vt 0.468750 0.250312
vt 0.468750 0.749688
vt 0.500000 0.250312
vt 0.500000 0.749688
vt 0.531250 0.250312
vt 0.531250 0.749688
vt 0.562500 0.250312
vt 0.562500 0.749688
vt 0.593750 0.250312
vt 0.593750 0.749688
vt 0.625000 0.250312
vt 0.625000 0.749688
vt 0.656250 0.250312
vt 0.656250 0.749688
vt 0.687500 0.250312
vt 0.687500 0.749688
vt 0.718750 0.250312
vt 0.718750 0.749688
vt 0.750000 0.250312
vt 0.750000 0.749688
vt 0.500000 0.500000
vt 0.745196 0.451227
vt 0.707867 0.361107
vt 0.638893 0.292133
vt 0.548773 0.254804
vt 0.451227 0.254804
vt 0.361107 0.292133
vt 0.292133 0.361107
vt 0.254804 0.451227
vt 0.254804 0.548773
vt 0.292133 0.638893
vt 0.361107 0.707867
vt 0.451227 0.745196
vt 0.548773 0.745196
vt 0.638893 0.707867
vt 0.707867 0.638893
vt 0.745196 0.548773
vn 0.831470 0.555570 0.000000
vn 0.980785 0.195090 0.000000
vn 0.555570 0.831470 0.000000
vn 0.195090 0.980785 0.000000
vn -0.195090 0.980785 0.000000
vn -0.555570 0.831470 0.000000
vn -0.831470 0.555570 0.000000
vn -0.980785 0.195090 0.000000
vn -0.980785 -0.195090 0.000000
vn -0.831470 -0.555570 0.000000
vn -0.555570 -0.831470 0.000000
vn -0.195090 -0.980785 0.000000
vn 0.195090 -0.980785 0.000000
vn 0.555570 -0.831470 0.000000
vn 0.831470 -0.555570 0.000000
vn 0.980785 -0.195090 0.000000
vn 0.000000 0.000000 1.000000
vn 0.000000 0.000000 -1.000000
usemtl body
f 1/1/1 2/2/1 3/3/2
f 4/4/2 1/1/1 3/3/2
f 5/5/3 6/6/3 2/2/1
f 1/1/1 5/5/3 2/2/1
f 7/7/4 8/8/4 6/6/3
f 5/5/3 7/7/4 6/6/3
f 9/9/5 10/10/5 8/8/4
f 7/7/4 9/9/5 8/8/4
f 11/11/6 12/12/6 10/10/5
f 9/9/5 11/11/6 10/10/5
f 13/13/7 14/14/7 12/12/6
f 11/11/6 13/13/7 12/12/6
f 15/15/8 16/16/8 14/14/7
f 13/13/7 15/15/8 14/14/7
f 17/17/9 18/18/9 16/16/8
f 15/15/8 17/17/9 16/16/8
f 19/19/10 20/20/10 18/18/9
f 17/17/9 19/19/10 18/18/9
f 21/21/11 22/22/11 20/20/10
f 19/19/10 21/21/11 20/20/10
f 23/23/12 24/24/12 22/22/11
f 21/21/11 23/23/12 22/22/11
f 25/25/13 26/26/13 24/24/12
f 23/23/12 25/25/13 24/24/12
f 27/27/14 28/28/14 26/26/13
f 25/25/13 27/27/14 26/26/13
f 29/29/15 30/30/15 28/28/14
f 27/27/14 29/29/15 28/28/14
f 31/31/16 32/32/16 30/30/15
f 29/29/15 31/31/16 30/30/15
f 4/33/2 3/34/2 32/32/16
f 31/31/16 4/33/2 32/32/16
f 33/35/17 3/36/17 2/37/17
f 33/35/17 2/37/17 6/38/17
f 33/35/17 6/38/17 8/39/17
f 33/35/17 8/39/17 10/40/17
f 33/35/17 10/40/17 12/41/17
f 33/35/17 12/41/17 14/42/17
f 33/35/17 14/42/17 16/43/17
f 33/35/17 16/43/17 18/44/17
f 33/35/17 18/44/17 20/45/17
f 33/35/17 20/45/17 22/46/17
f 33/35/17 22/46/17 24/47/17
f 33/35/17 24/47/17 26/48/17
f 33/35/17 26/48/17 28/49/17
f 33/35/17 28/49/17 30/50/17
f 33/35/17 30/50/17 32/51/17
f 33/35/17 32/51/17 3/36/17
f 34/35/18 1/37/18 4/36/18
f 34/35/18 5/38/18 1/37/18
f 34/35/18 7/39/18 5/38/18
f 34/35/18 9/40/18 7/39/18
f 34/35/18 11/41/18 9/40/18
f 34/35/18 13/42/18 11/41/18
f 34/35/18 15/43/18 13/42/18
f 34/35/18 17/44/18 15/43/18
f 34/35/18 19/45/18 17/44/18
f 34/35/18 21/46/18 19/45/18
f 34/35/18 23/47/18 21/46/18
f 34/35/18 25/48/18 23/47/18
f 34/35/18 27/49/18 25/48/18
f 34/35/18 29/50/18 27/49/18
f 34/35/18 31/51/18 29/50/18
f 34/35/18 4/36/18 31/51/18
