# Procedurally generated by dev-env-utils/scripts/gen_pedestal_pole.py -- do not hand edit
# band-clamp bracket, pointing model north
mtllib pedestalpole.mtl
o pedestalpole_mount
v 0.362500 0.362500 0.387500
v 0.362500 0.637500 0.387500
v 0.362500 0.637500 0.306250
v 0.362500 0.362500 0.306250
v 0.637500 0.362500 0.306250
v 0.637500 0.637500 0.306250
v 0.637500 0.637500 0.387500
v 0.637500 0.362500 0.387500
v 0.384375 0.384375 0.312500
v 0.384375 0.428125 0.312500
v 0.384375 0.428125 0.278125
v 0.384375 0.384375 0.278125
v 0.428125 0.384375 0.278125
v 0.428125 0.428125 0.278125
v 0.428125 0.428125 0.312500
v 0.428125 0.384375 0.312500
v 0.384375 0.571875 0.312500
v 0.384375 0.615625 0.312500
v 0.384375 0.615625 0.278125
v 0.384375 0.571875 0.278125
v 0.428125 0.571875 0.278125
v 0.428125 0.615625 0.278125
v 0.428125 0.615625 0.312500
v 0.428125 0.571875 0.312500
v 0.571875 0.384375 0.312500
v 0.571875 0.428125 0.312500
v 0.571875 0.428125 0.278125
v 0.571875 0.384375 0.278125
v 0.615625 0.384375 0.278125
v 0.615625 0.428125 0.278125
v 0.615625 0.428125 0.312500
v 0.615625 0.384375 0.312500
v 0.571875 0.571875 0.312500
v 0.571875 0.615625 0.312500
v 0.571875 0.615625 0.278125
v 0.571875 0.571875 0.278125
v 0.615625 0.571875 0.278125
v 0.615625 0.615625 0.278125
v 0.615625 0.615625 0.312500
v 0.615625 0.571875 0.312500
v 0.533485 0.419161 0.318750
v 0.533485 0.419161 0.000625
v 0.580839 0.466515 0.000625
v 0.580839 0.466515 0.318750
v 0.466515 0.419161 0.318750
v 0.466515 0.419161 0.000625
v 0.419161 0.466515 0.318750
v 0.419161 0.466515 0.000625
v 0.419161 0.533485 0.318750
v 0.419161 0.533485 0.000625
v 0.466515 0.580839 0.318750
v 0.466515 0.580839 0.000625
v 0.533485 0.580839 0.318750
v 0.533485 0.580839 0.000625
v 0.580839 0.533485 0.318750
v 0.580839 0.533485 0.000625
v 0.500000 0.500000 0.000625
vt 0.250000 0.250000
vt 0.750000 0.250000
vt 0.750000 0.750000
vt 0.250000 0.750000
vt 0.312500 0.590625
vt 0.312500 0.749688
vt 0.250000 0.749688
vt 0.250000 0.590625
vt 0.375000 0.590625
vt 0.375000 0.749688
vt 0.437500 0.590625
vt 0.437500 0.749688
vt 0.500000 0.590625
vt 0.500000 0.749688
vt 0.562500 0.590625
vt 0.562500 0.749688
vt 0.625000 0.590625
vt 0.625000 0.749688
vt 0.687500 0.590625
vt 0.687500 0.749688
vt 0.750000 0.590625
vt 0.750000 0.749688
vt 0.500000 0.500000
vt 0.730970 0.404329
vt 0.595671 0.269030
vt 0.404329 0.269030
vt 0.269030 0.404329
vt 0.269030 0.595671
vt 0.404329 0.730970
vt 0.595671 0.730970
vt 0.730970 0.595671
vn -1.000000 0.000000 0.000000
vn 1.000000 0.000000 0.000000
vn 0.000000 -1.000000 0.000000
vn 0.000000 1.000000 0.000000
vn 0.000000 0.000000 -1.000000
vn 0.000000 0.000000 1.000000
vn 0.382683 -0.923880 -0.000000
vn 0.923880 -0.382683 -0.000000
vn -0.382683 -0.923880 -0.000000
vn -0.923880 -0.382683 -0.000000
vn -0.923880 0.382683 -0.000000
vn -0.382683 0.923880 -0.000000
vn 0.382683 0.923880 -0.000000
vn 0.923880 0.382683 -0.000000
usemtl body
f 1/1/1 2/2/1 3/3/1
f 1/1/1 3/3/1 4/4/1
f 5/4/2 6/3/2 7/2/2
f 5/4/2 7/2/2 8/1/2
f 4/4/3 5/3/3 8/2/3
f 4/4/3 8/2/3 1/1/3
f 2/1/4 7/2/4 6/3/4
f 2/1/4 6/3/4 3/4/4
f 3/1/5 6/2/5 5/3/5
f 3/1/5 5/3/5 4/4/5
f 1/4/6 8/3/6 7/2/6
f 1/4/6 7/2/6 2/1/6
f 9/1/1 10/2/1 11/3/1
f 9/1/1 11/3/1 12/4/1
f 13/4/2 14/3/2 15/2/2
f 13/4/2 15/2/2 16/1/2
f 12/4/3 13/3/3 16/2/3
f 12/4/3 16/2/3 9/1/3
f 10/1/4 15/2/4 14/3/4
f 10/1/4 14/3/4 11/4/4
f 11/1/5 14/2/5 13/3/5
f 11/1/5 13/3/5 12/4/5
f 17/1/1 18/2/1 19/3/1
f 17/1/1 19/3/1 20/4/1
f 21/4/2 22/3/2 23/2/2
f 21/4/2 23/2/2 24/1/2
f 20/4/3 21/3/3 24/2/3
f 20/4/3 24/2/3 17/1/3
f 18/1/4 23/2/4 22/3/4
f 18/1/4 22/3/4 19/4/4
f 19/1/5 22/2/5 21/3/5
f 19/1/5 21/3/5 20/4/5
f 25/1/1 26/2/1 27/3/1
f 25/1/1 27/3/1 28/4/1
f 29/4/2 30/3/2 31/2/2
f 29/4/2 31/2/2 32/1/2
f 28/4/3 29/3/3 32/2/3
f 28/4/3 32/2/3 25/1/3
f 26/1/4 31/2/4 30/3/4
f 26/1/4 30/3/4 27/4/4
f 27/1/5 30/2/5 29/3/5
f 27/1/5 29/3/5 28/4/5
f 33/1/1 34/2/1 35/3/1
f 33/1/1 35/3/1 36/4/1
f 37/4/2 38/3/2 39/2/2
f 37/4/2 39/2/2 40/1/2
f 36/4/3 37/3/3 40/2/3
f 36/4/3 40/2/3 33/1/3
f 34/1/4 39/2/4 38/3/4
f 34/1/4 38/3/4 35/4/4
f 35/1/5 38/2/5 37/3/5
f 35/1/5 37/3/5 36/4/5
f 41/5/7 42/6/7 43/7/8
f 44/8/8 41/5/7 43/7/8
f 45/9/9 46/10/9 42/6/7
f 41/5/7 45/9/9 42/6/7
f 47/11/10 48/12/10 46/10/9
f 45/9/9 47/11/10 46/10/9
f 49/13/11 50/14/11 48/12/10
f 47/11/10 49/13/11 48/12/10
f 51/15/12 52/16/12 50/14/11
f 49/13/11 51/15/12 50/14/11
f 53/17/13 54/18/13 52/16/12
f 51/15/12 53/17/13 52/16/12
f 55/19/14 56/20/14 54/18/13
f 53/17/13 55/19/14 54/18/13
f 44/21/8 43/22/8 56/20/14
f 55/19/14 44/21/8 56/20/14
f 57/23/5 43/24/5 42/25/5
f 57/23/5 42/25/5 46/26/5
f 57/23/5 46/26/5 48/27/5
f 57/23/5 48/27/5 50/28/5
f 57/23/5 50/28/5 52/29/5
f 57/23/5 52/29/5 54/30/5
f 57/23/5 54/30/5 56/31/5
f 57/23/5 56/31/5 43/24/5
