# Procedurally generated by dev-env-utils/scripts/gen_pole_finials.py -- do not hand edit
# Fluted Urn finial: collar sleeved over the pole top, ornament above
mtllib polefinial.mtl
o polefinial_urn
v 0.681884 -0.071875 0.621531
v 0.658499 -0.100000 0.605906
v 0.686962 -0.100000 0.537189
v 0.714547 -0.071875 0.542676
v 0.621531 -0.071875 0.681884
v 0.605906 -0.100000 0.658499
v 0.542676 -0.071875 0.714547
v 0.537189 -0.100000 0.686962
v 0.457324 -0.071875 0.714547
v 0.462811 -0.100000 0.686962
v 0.378469 -0.071875 0.681884
v 0.394094 -0.100000 0.658499
v 0.318116 -0.071875 0.621531
v 0.341501 -0.100000 0.605906
v 0.285453 -0.071875 0.542676
v 0.313038 -0.100000 0.537189
v 0.285453 -0.071875 0.457324
v 0.313038 -0.100000 0.462811
v 0.318116 -0.071875 0.378469
v 0.341501 -0.100000 0.394094
v 0.378469 -0.071875 0.318116
v 0.394094 -0.100000 0.341501
v 0.457324 -0.071875 0.285453
v 0.462811 -0.100000 0.313038
v 0.542676 -0.071875 0.285453
v 0.537189 -0.100000 0.313038
v 0.621531 -0.071875 0.318116
v 0.605906 -0.100000 0.341501
v 0.681884 -0.071875 0.378469
v 0.658499 -0.100000 0.394094
v 0.714547 -0.071875 0.457324
v 0.686962 -0.100000 0.462811
v 0.681884 0.025000 0.621531
v 0.714547 0.025000 0.542676
v 0.621531 0.025000 0.681884
v 0.542676 0.025000 0.714547
v 0.457324 0.025000 0.714547
v 0.378469 0.025000 0.681884
v 0.318116 0.025000 0.621531
v 0.285453 0.025000 0.542676
v 0.285453 0.025000 0.457324
v 0.318116 0.025000 0.378469
v 0.378469 0.025000 0.318116
v 0.457324 0.025000 0.285453
v 0.542676 0.025000 0.285453
v 0.621531 0.025000 0.318116
v 0.681884 0.025000 0.378469
v 0.714547 0.025000 0.457324
v 0.671491 0.053125 0.614586
v 0.702287 0.053125 0.540237
v 0.614586 0.053125 0.671491
v 0.540237 0.053125 0.702287
v 0.459763 0.053125 0.702287
v 0.385414 0.053125 0.671491
v 0.328509 0.053125 0.614586
v 0.297713 0.053125 0.540237
v 0.297713 0.053125 0.459763
v 0.328509 0.053125 0.385414
v 0.385414 0.053125 0.328509
v 0.459763 0.053125 0.297713
v 0.540237 0.053125 0.297713
v 0.614586 0.053125 0.328509
v 0.671491 0.053125 0.385414
v 0.702287 0.053125 0.459763
v 0.635114 0.075000 0.590280
v 0.659378 0.075000 0.531702
v 0.590280 0.075000 0.635114
v 0.531702 0.075000 0.659378
v 0.468298 0.075000 0.659378
v 0.409720 0.075000 0.635114
v 0.364886 0.075000 0.590280
v 0.340622 0.075000 0.531702
v 0.340622 0.075000 0.468298
v 0.364886 0.075000 0.409720
v 0.409720 0.075000 0.364886
v 0.468298 0.075000 0.340622
v 0.531702 0.075000 0.340622
v 0.590280 0.075000 0.364886
v 0.635114 0.075000 0.409720
v 0.659378 0.075000 0.468298
v 0.590942 0.087500 0.560765
v 0.607273 0.087500 0.521338
v 0.560765 0.087500 0.590942
v 0.521338 0.087500 0.607273
v 0.478662 0.087500 0.607273
v 0.439235 0.087500 0.590942
v 0.409058 0.087500 0.560765
v 0.392727 0.087500 0.521338
v 0.392727 0.087500 0.478662
v 0.409058 0.087500 0.439235
v 0.439235 0.087500 0.409058
v 0.478662 0.087500 0.392727
v 0.521338 0.087500 0.392727
v 0.560765 0.087500 0.409058
v 0.590942 0.087500 0.439235
v 0.607273 0.087500 0.478662
v 0.583147 0.106250 0.555557
v 0.598079 0.106250 0.519509
v 0.555557 0.106250 0.583147
v 0.519509 0.106250 0.598079
v 0.480491 0.106250 0.598079
v 0.444443 0.106250 0.583147
v 0.416853 0.106250 0.555557
v 0.401921 0.106250 0.519509
v 0.401921 0.106250 0.480491
v 0.416853 0.106250 0.444443
v 0.444443 0.106250 0.416853
v 0.480491 0.106250 0.401921
v 0.519509 0.106250 0.401921
v 0.555557 0.106250 0.416853
v 0.583147 0.106250 0.444443
v 0.598079 0.106250 0.480491
v 0.616925 0.125000 0.578127
v 0.637923 0.125000 0.527435
v 0.578127 0.125000 0.616925
v 0.527435 0.125000 0.637923
v 0.472565 0.125000 0.637923
v 0.421873 0.125000 0.616925
v 0.383075 0.125000 0.578127
v 0.362077 0.125000 0.527435
v 0.362077 0.125000 0.472565
v 0.383075 0.125000 0.421873
v 0.421873 0.125000 0.383075
v 0.472565 0.125000 0.362077
v 0.527435 0.125000 0.362077
v 0.578127 0.125000 0.383075
v 0.616925 0.125000 0.421873
v 0.637923 0.125000 0.472565
v 0.616925 0.150000 0.578127
v 0.637923 0.150000 0.527435
v 0.578127 0.150000 0.616925
v 0.527435 0.150000 0.637923
v 0.472565 0.150000 0.637923
v 0.421873 0.150000 0.616925
v 0.383075 0.150000 0.578127
v 0.362077 0.150000 0.527435
v 0.362077 0.150000 0.472565
v 0.383075 0.150000 0.421873
v 0.421873 0.150000 0.383075
v 0.472565 0.150000 0.362077
v 0.527435 0.150000 0.362077
v 0.578127 0.150000 0.383075
v 0.616925 0.150000 0.421873
v 0.637923 0.150000 0.472565
v 0.590942 0.171875 0.560765
v 0.607273 0.171875 0.521338
v 0.560765 0.171875 0.590942
v 0.521338 0.171875 0.607273
v 0.478662 0.171875 0.607273
v 0.439235 0.171875 0.590942
v 0.409058 0.171875 0.560765
v 0.392727 0.171875 0.521338
v 0.392727 0.171875 0.478662
v 0.409058 0.171875 0.439235
v 0.439235 0.171875 0.409058
v 0.478662 0.171875 0.392727
v 0.521338 0.171875 0.392727
v 0.560765 0.171875 0.409058
v 0.590942 0.171875 0.439235
v 0.607273 0.171875 0.478662
v 0.634770 0.212500 0.590050
v 0.658972 0.212500 0.531622
v 0.590050 0.212500 0.634770
v 0.531622 0.212500 0.658972
v 0.468378 0.212500 0.658972
v 0.409950 0.212500 0.634770
v 0.365230 0.212500 0.590050
v 0.341028 0.212500 0.531622
v 0.341028 0.212500 0.468378
v 0.365230 0.212500 0.409950
v 0.409950 0.212500 0.365230
v 0.468378 0.212500 0.341028
v 0.531622 0.212500 0.341028
v 0.590050 0.212500 0.365230
v 0.634770 0.212500 0.409950
v 0.658972 0.212500 0.468378
v 0.663657 0.275000 0.609352
v 0.693046 0.275000 0.538399
v 0.609352 0.275000 0.663657
v 0.538399 0.275000 0.693046
v 0.461601 0.275000 0.693046
v 0.390648 0.275000 0.663657
v 0.336343 0.275000 0.609352
v 0.306954 0.275000 0.538399
v 0.306954 0.275000 0.461601
v 0.336343 0.275000 0.390648
v 0.390648 0.275000 0.336343
v 0.461601 0.275000 0.306954
v 0.538399 0.275000 0.306954
v 0.609352 0.275000 0.336343
v 0.663657 0.275000 0.390648
v 0.693046 0.275000 0.461601
v 0.668120 0.337500 0.612334
v 0.698311 0.337500 0.539447
v 0.612334 0.337500 0.668120
v 0.539447 0.337500 0.698311
v 0.460553 0.337500 0.698311
v 0.387666 0.337500 0.668120
v 0.331880 0.337500 0.612334
v 0.301689 0.337500 0.539447
v 0.301689 0.337500 0.460553
v 0.331880 0.337500 0.387666
v 0.387666 0.337500 0.331880
v 0.460553 0.337500 0.301689
v 0.539447 0.337500 0.301689
v 0.612334 0.337500 0.331880
v 0.668120 0.337500 0.387666
v 0.698311 0.337500 0.460553
v 0.660257 0.400000 0.607080
v 0.689036 0.400000 0.537602
v 0.607080 0.400000 0.660257
v 0.537602 0.400000 0.689036
v 0.462398 0.400000 0.689036
v 0.392920 0.400000 0.660257
v 0.339743 0.400000 0.607080
v 0.310964 0.400000 0.537602
v 0.310964 0.400000 0.462398
v 0.339743 0.400000 0.392920
v 0.392920 0.400000 0.339743
v 0.462398 0.400000 0.310964
v 0.537602 0.400000 0.310964
v 0.607080 0.400000 0.339743
v 0.660257 0.400000 0.392920
v 0.689036 0.400000 0.462398
v 0.629917 0.443750 0.586808
v 0.653248 0.443750 0.530483
v 0.586808 0.443750 0.629917
v 0.530483 0.443750 0.653248
v 0.469517 0.443750 0.653248
v 0.413192 0.443750 0.629917
v 0.370083 0.443750 0.586808
v 0.346752 0.443750 0.530483
v 0.346752 0.443750 0.469517
v 0.370083 0.443750 0.413192
v 0.413192 0.443750 0.370083
v 0.469517 0.443750 0.346752
v 0.530483 0.443750 0.346752
v 0.586808 0.443750 0.370083
v 0.629917 0.443750 0.413192
v 0.653248 0.443750 0.469517
v 0.590942 0.481250 0.560765
v 0.607273 0.481250 0.521338
v 0.560765 0.481250 0.590942
v 0.521338 0.481250 0.607273
v 0.478662 0.481250 0.607273
v 0.439235 0.481250 0.590942
v 0.409058 0.481250 0.560765
v 0.392727 0.481250 0.521338
v 0.392727 0.481250 0.478662
v 0.409058 0.481250 0.439235
v 0.439235 0.481250 0.409058
v 0.478662 0.481250 0.392727
v 0.521338 0.481250 0.392727
v 0.560765 0.481250 0.409058
v 0.590942 0.481250 0.439235
v 0.607273 0.481250 0.478662
v 0.585745 0.518750 0.557293
v 0.601143 0.518750 0.520119
v 0.557293 0.518750 0.585745
v 0.520119 0.518750 0.601143
v 0.479881 0.518750 0.601143
v 0.442707 0.518750 0.585745
v 0.414255 0.518750 0.557293
v 0.398857 0.518750 0.520119
v 0.398857 0.518750 0.479881
v 0.414255 0.518750 0.442707
v 0.442707 0.518750 0.414255
v 0.479881 0.518750 0.398857
v 0.520119 0.518750 0.398857
v 0.557293 0.518750 0.414255
v 0.585745 0.518750 0.442707
v 0.601143 0.518750 0.479881
v 0.635114 0.568750 0.590280
v 0.659378 0.568750 0.531702
v 0.590280 0.568750 0.635114
v 0.531702 0.568750 0.659378
v 0.468298 0.568750 0.659378
v 0.409720 0.568750 0.635114
v 0.364886 0.568750 0.590280
v 0.340622 0.568750 0.531702
v 0.340622 0.568750 0.468298
v 0.364886 0.568750 0.409720
v 0.409720 0.568750 0.364886
v 0.468298 0.568750 0.340622
v 0.531702 0.568750 0.340622
v 0.590280 0.568750 0.364886
v 0.635114 0.568750 0.409720
v 0.659378 0.568750 0.468298
v 0.645507 0.593750 0.597225
v 0.671637 0.593750 0.534141
v 0.597225 0.593750 0.645507
v 0.534141 0.593750 0.671637
v 0.465859 0.593750 0.671637
v 0.402775 0.593750 0.645507
v 0.354493 0.593750 0.597225
v 0.328363 0.593750 0.534141
v 0.328363 0.593750 0.465859
v 0.354493 0.593750 0.402775
v 0.402775 0.593750 0.354493
v 0.465859 0.593750 0.328363
v 0.534141 0.593750 0.328363
v 0.597225 0.593750 0.354493
v 0.645507 0.593750 0.402775
v 0.671637 0.593750 0.465859
v 0.629917 0.612500 0.586808
v 0.653248 0.612500 0.530483
v 0.586808 0.612500 0.629917
v 0.530483 0.612500 0.653248
v 0.469517 0.612500 0.653248
v 0.413192 0.612500 0.629917
v 0.370083 0.612500 0.586808
v 0.346752 0.612500 0.530483
v 0.346752 0.612500 0.469517
v 0.370083 0.612500 0.413192
v 0.413192 0.612500 0.370083
v 0.469517 0.612500 0.346752
v 0.530483 0.612500 0.346752
v 0.586808 0.612500 0.370083
v 0.629917 0.612500 0.413192
v 0.653248 0.612500 0.469517
v 0.588344 0.625000 0.559029
v 0.604208 0.625000 0.520728
v 0.559029 0.625000 0.588344
v 0.520728 0.625000 0.604208
v 0.479272 0.625000 0.604208
v 0.440971 0.625000 0.588344
v 0.411656 0.625000 0.559029
v 0.395792 0.625000 0.520728
v 0.395792 0.625000 0.479272
v 0.411656 0.625000 0.440971
v 0.440971 0.625000 0.411656
v 0.479272 0.625000 0.395792
v 0.520728 0.625000 0.395792
v 0.559029 0.625000 0.411656
v 0.588344 0.625000 0.440971
v 0.604208 0.625000 0.479272
v 0.500000 0.650000 0.500000
vt 0.281250 0.714063
vt 0.281250 0.700000
vt 0.250000 0.700000
vt 0.250000 0.714063
vt 0.312500 0.714063
vt 0.312500 0.700000
vt 0.343750 0.714063
vt 0.343750 0.700000
vt 0.375000 0.714063
vt 0.375000 0.700000
vt 0.406250 0.714063
vt 0.406250 0.700000
vt 0.437500 0.714063
vt 0.437500 0.700000
vt 0.468750 0.714063
vt 0.468750 0.700000
vt 0.500000 0.714063
vt 0.500000 0.700000
vt 0.531250 0.714063
vt 0.531250 0.700000
vt 0.562500 0.714063
vt 0.562500 0.700000
vt 0.593750 0.714063
vt 0.593750 0.700000
vt 0.625000 0.714063
vt 0.625000 0.700000
vt 0.656250 0.714063
vt 0.656250 0.700000
vt 0.687500 0.714063
vt 0.687500 0.700000
vt 0.718750 0.714063
vt 0.718750 0.700000
vt 0.750000 0.714063
vt 0.750000 0.700000
vt 0.281250 0.737500
vt 0.250000 0.737500
vt 0.312500 0.737500
vt 0.343750 0.737500
vt 0.375000 0.737500
vt 0.406250 0.737500
vt 0.437500 0.737500
vt 0.468750 0.737500
vt 0.500000 0.737500
vt 0.531250 0.737500
vt 0.562500 0.737500
vt 0.593750 0.737500
vt 0.625000 0.737500
vt 0.656250 0.737500
vt 0.687500 0.737500
vt 0.718750 0.737500
vt 0.750000 0.737500
vt 0.281250 0.723437
vt 0.250000 0.723437
vt 0.312500 0.723437
vt 0.343750 0.723437
vt 0.375000 0.723437
vt 0.406250 0.723437
vt 0.437500 0.723437
vt 0.468750 0.723437
vt 0.500000 0.723437
vt 0.531250 0.723437
vt 0.562500 0.723437
vt 0.593750 0.723437
vt 0.625000 0.723437
vt 0.656250 0.723437
vt 0.687500 0.723437
vt 0.718750 0.723437
vt 0.750000 0.723437
vt 0.281250 0.712500
vt 0.250000 0.712500
vt 0.312500 0.712500
vt 0.343750 0.712500
vt 0.375000 0.712500
vt 0.406250 0.712500
vt 0.437500 0.712500
vt 0.468750 0.712500
vt 0.500000 0.712500
vt 0.531250 0.712500
vt 0.562500 0.712500
vt 0.593750 0.712500
vt 0.625000 0.712500
vt 0.656250 0.712500
vt 0.687500 0.712500
vt 0.718750 0.712500
vt 0.750000 0.712500
vt 0.281250 0.706250
vt 0.250000 0.706250
vt 0.312500 0.706250
vt 0.343750 0.706250
vt 0.375000 0.706250
vt 0.406250 0.706250
vt 0.437500 0.706250
vt 0.468750 0.706250
vt 0.500000 0.706250
vt 0.531250 0.706250
vt 0.562500 0.706250
vt 0.593750 0.706250
vt 0.625000 0.706250
vt 0.656250 0.706250
vt 0.687500 0.706250
vt 0.718750 0.706250
vt 0.750000 0.706250
vt 0.281250 0.696875
vt 0.250000 0.696875
vt 0.312500 0.696875
vt 0.343750 0.696875
vt 0.375000 0.696875
vt 0.406250 0.696875
vt 0.437500 0.696875
vt 0.468750 0.696875
vt 0.500000 0.696875
vt 0.531250 0.696875
vt 0.562500 0.696875
vt 0.593750 0.696875
vt 0.625000 0.696875
vt 0.656250 0.696875
vt 0.687500 0.696875
vt 0.718750 0.696875
vt 0.750000 0.696875
vt 0.281250 0.687500
vt 0.250000 0.687500
vt 0.312500 0.687500
vt 0.343750 0.687500
vt 0.375000 0.687500
vt 0.406250 0.687500
vt 0.437500 0.687500
vt 0.468750 0.687500
vt 0.500000 0.687500
vt 0.531250 0.687500
vt 0.562500 0.687500
vt 0.593750 0.687500
vt 0.625000 0.687500
vt 0.656250 0.687500
vt 0.687500 0.687500
vt 0.718750 0.687500
vt 0.750000 0.687500
vt 0.281250 0.675000
vt 0.250000 0.675000
vt 0.312500 0.675000
vt 0.343750 0.675000
vt 0.375000 0.675000
vt 0.406250 0.675000
vt 0.437500 0.675000
vt 0.468750 0.675000
vt 0.500000 0.675000
vt 0.531250 0.675000
vt 0.562500 0.675000
vt 0.593750 0.675000
vt 0.625000 0.675000
vt 0.656250 0.675000
vt 0.687500 0.675000
vt 0.718750 0.675000
vt 0.750000 0.675000
vt 0.281250 0.664062
vt 0.250000 0.664062
vt 0.312500 0.664062
vt 0.343750 0.664062
vt 0.375000 0.664062
vt 0.406250 0.664062
vt 0.437500 0.664062
vt 0.468750 0.664062
vt 0.500000 0.664062
vt 0.531250 0.664062
vt 0.562500 0.664062
vt 0.593750 0.664062
vt 0.625000 0.664062
vt 0.656250 0.664062
vt 0.687500 0.664062
vt 0.718750 0.664062
vt 0.750000 0.664062
vt 0.281250 0.643750
vt 0.250000 0.643750
vt 0.312500 0.643750
vt 0.343750 0.643750
vt 0.375000 0.643750
vt 0.406250 0.643750
vt 0.437500 0.643750
vt 0.468750 0.643750
vt 0.500000 0.643750
vt 0.531250 0.643750
vt 0.562500 0.643750
vt 0.593750 0.643750
vt 0.625000 0.643750
vt 0.656250 0.643750
vt 0.687500 0.643750
vt 0.718750 0.643750
vt 0.750000 0.643750
vt 0.281250 0.612500
vt 0.250000 0.612500
vt 0.312500 0.612500
vt 0.343750 0.612500
vt 0.375000 0.612500
vt 0.406250 0.612500
vt 0.437500 0.612500
vt 0.468750 0.612500
vt 0.500000 0.612500
vt 0.531250 0.612500
vt 0.562500 0.612500
vt 0.593750 0.612500
vt 0.625000 0.612500
vt 0.656250 0.612500
vt 0.687500 0.612500
vt 0.718750 0.612500
vt 0.750000 0.612500
vt 0.281250 0.581250
vt 0.250000 0.581250
vt 0.312500 0.581250
vt 0.343750 0.581250
vt 0.375000 0.581250
vt 0.406250 0.581250
vt 0.437500 0.581250
vt 0.468750 0.581250
vt 0.500000 0.581250
vt 0.531250 0.581250
vt 0.562500 0.581250
vt 0.593750 0.581250
vt 0.625000 0.581250
vt 0.656250 0.581250
vt 0.687500 0.581250
vt 0.718750 0.581250
vt 0.750000 0.581250
vt 0.281250 0.550000
vt 0.250000 0.550000
vt 0.312500 0.550000
vt 0.343750 0.550000
vt 0.375000 0.550000
vt 0.406250 0.550000
vt 0.437500 0.550000
vt 0.468750 0.550000
vt 0.500000 0.550000
vt 0.531250 0.550000
vt 0.562500 0.550000
vt 0.593750 0.550000
vt 0.625000 0.550000
vt 0.656250 0.550000
vt 0.687500 0.550000
vt 0.718750 0.550000
vt 0.750000 0.550000
vt 0.281250 0.528125
vt 0.250000 0.528125
vt 0.312500 0.528125
vt 0.343750 0.528125
vt 0.375000 0.528125
vt 0.406250 0.528125
vt 0.437500 0.528125
vt 0.468750 0.528125
vt 0.500000 0.528125
vt 0.531250 0.528125
vt 0.562500 0.528125
vt 0.593750 0.528125
vt 0.625000 0.528125
vt 0.656250 0.528125
vt 0.687500 0.528125
vt 0.718750 0.528125
vt 0.750000 0.528125
vt 0.281250 0.509375
vt 0.250000 0.509375
vt 0.312500 0.509375
vt 0.343750 0.509375
vt 0.375000 0.509375
vt 0.406250 0.509375
vt 0.437500 0.509375
vt 0.468750 0.509375
vt 0.500000 0.509375
vt 0.531250 0.509375
vt 0.562500 0.509375
vt 0.593750 0.509375
vt 0.625000 0.509375
vt 0.656250 0.509375
vt 0.687500 0.509375
vt 0.718750 0.509375
vt 0.750000 0.509375
vt 0.281250 0.490625
vt 0.250000 0.490625
vt 0.312500 0.490625
vt 0.343750 0.490625
vt 0.375000 0.490625
vt 0.406250 0.490625
vt 0.437500 0.490625
vt 0.468750 0.490625
vt 0.500000 0.490625
vt 0.531250 0.490625
vt 0.562500 0.490625
vt 0.593750 0.490625
vt 0.625000 0.490625
vt 0.656250 0.490625
vt 0.687500 0.490625
vt 0.718750 0.490625
vt 0.750000 0.490625
vt 0.281250 0.465625
vt 0.250000 0.465625
vt 0.312500 0.465625
vt 0.343750 0.465625
vt 0.375000 0.465625
vt 0.406250 0.465625
vt 0.437500 0.465625
vt 0.468750 0.465625
vt 0.500000 0.465625
vt 0.531250 0.465625
vt 0.562500 0.465625
vt 0.593750 0.465625
vt 0.625000 0.465625
vt 0.656250 0.465625
vt 0.687500 0.465625
vt 0.718750 0.465625
vt 0.750000 0.465625
vt 0.281250 0.453125
vt 0.250000 0.453125
vt 0.312500 0.453125
vt 0.343750 0.453125
vt 0.375000 0.453125
vt 0.406250 0.453125
vt 0.437500 0.453125
vt 0.468750 0.453125
vt 0.500000 0.453125
vt 0.531250 0.453125
vt 0.562500 0.453125
vt 0.593750 0.453125
vt 0.625000 0.453125
vt 0.656250 0.453125
vt 0.687500 0.453125
vt 0.718750 0.453125
vt 0.750000 0.453125
vt 0.281250 0.443750
vt 0.250000 0.443750
vt 0.312500 0.443750
vt 0.343750 0.443750
vt 0.375000 0.443750
vt 0.406250 0.443750
vt 0.437500 0.443750
vt 0.468750 0.443750
vt 0.500000 0.443750
vt 0.531250 0.443750
vt 0.562500 0.443750
vt 0.593750 0.443750
vt 0.625000 0.443750
vt 0.656250 0.443750
vt 0.687500 0.443750
vt 0.718750 0.443750
vt 0.750000 0.443750
vt 0.281250 0.437500
vt 0.250000 0.437500
vt 0.312500 0.437500
vt 0.343750 0.437500
vt 0.375000 0.437500
vt 0.406250 0.437500
vt 0.437500 0.437500
vt 0.468750 0.437500
vt 0.500000 0.437500
vt 0.531250 0.437500
vt 0.562500 0.437500
vt 0.593750 0.437500
vt 0.625000 0.437500
vt 0.656250 0.437500
vt 0.687500 0.437500
vt 0.718750 0.437500
vt 0.750000 0.437500
vt 0.265625 0.425000
vt 0.296875 0.425000
vt 0.328125 0.425000
vt 0.359375 0.425000
vt 0.390625 0.425000
vt 0.421875 0.425000
vt 0.453125 0.425000
vt 0.484375 0.425000
vt 0.515625 0.425000
vt 0.546875 0.425000
vt 0.578125 0.425000
vt 0.609375 0.425000
vt 0.640625 0.425000
vt 0.671875 0.425000
vt 0.703125 0.425000
vt 0.734375 0.425000
vn 0.743689 -0.447214 0.496917
vn 0.877241 -0.447214 0.174494
vn 0.496917 -0.447214 0.743689
vn 0.174494 -0.447214 0.877241
vn -0.174494 -0.447214 0.877241
vn -0.496917 -0.447214 0.743689
vn -0.743689 -0.447214 0.496917
vn -0.877241 -0.447214 0.174494
vn -0.877241 -0.447214 -0.174494
vn -0.743689 -0.447214 -0.496917
vn -0.496917 -0.447214 -0.743689
vn -0.174494 -0.447214 -0.877241
vn 0.174494 -0.447214 -0.877241
vn 0.496917 -0.447214 -0.743689
vn 0.743689 -0.447214 -0.496917
vn 0.877241 -0.447214 -0.174494
vn 0.811670 0.216930 0.542340
vn 0.957430 0.216930 0.190445
vn 0.542340 0.216930 0.811670
vn 0.190445 0.216930 0.957430
vn -0.190445 0.216930 0.957430
vn -0.542340 0.216930 0.811670
vn -0.811670 0.216930 0.542340
vn -0.957430 0.216930 0.190445
vn -0.957430 0.216930 -0.190445
vn -0.811670 0.216930 -0.542340
vn -0.542340 0.216930 -0.811670
vn -0.190445 0.216930 -0.957430
vn 0.190445 0.216930 -0.957430
vn 0.542340 0.216930 -0.811670
vn 0.811670 0.216930 -0.542340
vn 0.957430 0.216930 -0.190445
vn 0.526518 0.773957 0.351808
vn 0.621070 0.773957 0.123539
vn 0.351808 0.773957 0.526518
vn 0.123539 0.773957 0.621070
vn -0.123539 0.773957 0.621070
vn -0.351808 0.773957 0.526518
vn -0.526518 0.773957 0.351808
vn -0.621070 0.773957 0.123539
vn -0.621070 0.773957 -0.123539
vn -0.526518 0.773957 -0.351808
vn -0.351808 0.773957 -0.526518
vn -0.123539 0.773957 -0.621070
vn 0.123539 0.773957 -0.621070
vn 0.351808 0.773957 -0.526518
vn 0.526518 0.773957 -0.351808
vn 0.621070 0.773957 -0.123539
vn 0.253412 0.952424 0.169324
vn 0.298920 0.952424 0.059459
vn 0.169324 0.952424 0.253412
vn 0.059459 0.952424 0.298920
vn -0.059459 0.952424 0.298920
vn -0.169324 0.952424 0.253412
vn -0.253412 0.952424 0.169324
vn -0.298920 0.952424 0.059459
vn -0.298920 0.952424 -0.059459
vn -0.253412 0.952424 -0.169324
vn -0.169324 0.952424 -0.253412
vn -0.059459 0.952424 -0.298920
vn 0.059459 0.952424 -0.298920
vn 0.169324 0.952424 -0.253412
vn 0.253412 0.952424 -0.169324
vn 0.298920 0.952424 -0.059459
vn 0.322658 0.921635 0.215593
vn 0.380601 0.921635 0.075706
vn 0.215593 0.921635 0.322658
vn 0.075706 0.921635 0.380601
vn -0.075706 0.921635 0.380601
vn -0.215593 0.921635 0.322658
vn -0.322658 0.921635 0.215593
vn -0.380601 0.921635 0.075706
vn -0.380601 0.921635 -0.075706
vn -0.322658 0.921635 -0.215593
vn -0.215593 0.921635 -0.322658
vn -0.075706 0.921635 -0.380601
vn 0.075706 0.921635 -0.380601
vn 0.215593 0.921635 -0.322658
vn 0.322658 0.921635 -0.215593
vn 0.380601 0.921635 -0.075706
vn 0.638753 -0.640184 0.426801
vn 0.753460 -0.640184 0.149873
vn 0.426801 -0.640184 0.638753
vn 0.149873 -0.640184 0.753460
vn -0.149873 -0.640184 0.753460
vn -0.426801 -0.640184 0.638753
vn -0.638753 -0.640184 0.426801
vn -0.753460 -0.640184 0.149873
vn -0.753460 -0.640184 -0.149873
vn -0.638753 -0.640184 -0.426801
vn -0.426801 -0.640184 -0.638753
vn -0.149873 -0.640184 -0.753460
vn 0.149873 -0.640184 -0.753460
vn 0.426801 -0.640184 -0.638753
vn 0.638753 -0.640184 -0.426801
vn 0.753460 -0.640184 -0.149873
vn 0.563969 -0.734803 0.376832
vn 0.665247 -0.734803 0.132326
vn 0.376832 -0.734803 0.563969
vn 0.132326 -0.734803 0.665247
vn -0.132326 -0.734803 0.665247
vn -0.376832 -0.734803 0.563969
vn -0.563969 -0.734803 0.376832
vn -0.665247 -0.734803 0.132326
vn -0.665247 -0.734803 -0.132326
vn -0.563969 -0.734803 -0.376832
vn -0.376832 -0.734803 -0.563969
vn -0.132326 -0.734803 -0.665247
vn 0.132326 -0.734803 -0.665247
vn 0.376832 -0.734803 -0.563969
vn 0.563969 -0.734803 -0.376832
vn 0.665247 -0.734803 -0.132326
vn 0.676595 0.581238 0.452086
vn 0.798098 0.581238 0.158752
vn 0.452086 0.581238 0.676595
vn 0.158752 0.581238 0.798098
vn -0.158752 0.581238 0.798098
vn -0.452086 0.581238 0.676595
vn -0.676595 0.581238 0.452086
vn -0.798098 0.581238 0.158752
vn -0.798098 0.581238 -0.158752
vn -0.676595 0.581238 -0.452086
vn -0.452086 0.581238 -0.676595
vn -0.158752 0.581238 -0.798098
vn 0.158752 0.581238 -0.798098
vn 0.452086 0.581238 -0.676595
vn 0.676595 0.581238 -0.452086
vn 0.798098 0.581238 -0.158752
vn 0.829955 0.060329 0.554558
vn 0.978999 0.060329 0.194735
vn 0.554558 0.060329 0.829955
vn 0.194735 0.060329 0.978999
vn -0.194735 0.060329 0.978999
vn -0.554558 0.060329 0.829955
vn -0.829955 0.060329 0.554558
vn -0.978999 0.060329 0.194735
vn -0.978999 0.060329 -0.194735
vn -0.829955 0.060329 -0.554558
vn -0.554558 0.060329 -0.829955
vn -0.194735 0.060329 -0.978999
vn 0.194735 0.060329 -0.978999
vn 0.554558 0.060329 -0.829955
vn 0.829955 0.060329 -0.554558
vn 0.978999 0.060329 -0.194735
vn 0.597469 -0.684882 0.417095
vn 0.717405 -0.684882 0.127544
vn 0.417095 -0.684882 0.597469
vn 0.127544 -0.684882 0.717405
vn -0.127544 -0.684882 0.717405
vn -0.417095 -0.684882 0.597469
vn -0.597469 -0.684882 0.417095
vn -0.717405 -0.684882 0.127544
vn -0.717405 -0.684882 -0.127544
vn -0.597469 -0.684882 -0.417095
vn -0.417095 -0.684882 -0.597469
vn -0.127544 -0.684882 -0.717405
vn 0.127544 -0.684882 -0.717405
vn 0.417095 -0.684882 -0.597469
vn 0.597469 -0.684882 -0.417095
vn 0.717405 -0.684882 -0.127544
vn 0.561347 -0.236927 0.792941
vn 0.957626 -0.236927 -0.163762
vn 0.792941 -0.236927 0.561347
vn -0.163762 -0.236927 0.957626
vn 0.163762 -0.236927 0.957626
vn -0.792941 -0.236927 0.561347
vn -0.561347 -0.236927 0.792941
vn -0.957626 -0.236927 -0.163762
vn -0.957626 -0.236927 0.163762
vn -0.561347 -0.236927 -0.792941
vn -0.792941 -0.236927 -0.561347
vn 0.163762 -0.236927 -0.957626
vn -0.163762 -0.236927 -0.957626
vn 0.792941 -0.236927 -0.561347
vn 0.561347 -0.236927 -0.792941
vn 0.957626 -0.236927 0.163762
vn 0.473605 -0.002100 0.880735
vn 0.957663 -0.002100 -0.287884
vn 0.880735 -0.002100 0.473605
vn -0.287884 -0.002100 0.957663
vn 0.287884 -0.002100 0.957663
vn -0.880735 -0.002100 0.473605
vn -0.473605 -0.002100 0.880735
vn -0.957663 -0.002100 -0.287884
vn -0.957663 -0.002100 0.287884
vn -0.473605 -0.002100 -0.880735
vn -0.880735 -0.002100 -0.473605
vn 0.287884 -0.002100 -0.957663
vn -0.287884 -0.002100 -0.957663
vn 0.880735 -0.002100 -0.473605
vn 0.473605 -0.002100 -0.880735
vn 0.957663 -0.002100 0.287884
vn 0.661990 0.409165 0.627976
vn 0.912143 0.409165 0.024051
vn 0.627976 0.409165 0.661990
vn 0.024051 0.409165 0.912143
vn -0.024051 0.409165 0.912143
vn -0.627976 0.409165 0.661990
vn -0.661990 0.409165 0.627976
vn -0.912143 0.409165 0.024051
vn -0.912143 0.409165 -0.024051
vn -0.661990 0.409165 -0.627976
vn -0.627976 0.409165 -0.661990
vn -0.024051 0.409165 -0.912143
vn 0.024051 0.409165 -0.912143
vn 0.627976 0.409165 -0.661990
vn 0.661990 0.409165 -0.627976
vn 0.912143 0.409165 -0.024051
vn 0.562324 0.736625 0.375733
vn 0.663306 0.736625 0.131940
vn 0.375733 0.736625 0.562324
vn 0.131940 0.736625 0.663306
vn -0.131940 0.736625 0.663306
vn -0.375733 0.736625 0.562324
vn -0.562324 0.736625 0.375733
vn -0.663306 0.736625 0.131940
vn -0.663306 0.736625 -0.131940
vn -0.562324 0.736625 -0.375733
vn -0.375733 0.736625 -0.562324
vn -0.131940 0.736625 -0.663306
vn 0.131940 0.736625 -0.663306
vn 0.375733 0.736625 -0.562324
vn 0.562324 0.736625 -0.375733
vn 0.663306 0.736625 -0.131940
vn 0.678500 0.578017 0.453359
vn 0.800345 0.578017 0.159198
vn 0.453359 0.578017 0.678500
vn 0.159198 0.578017 0.800345
vn -0.159198 0.578017 0.800345
vn -0.453359 0.578017 0.678500
vn -0.678500 0.578017 0.453359
vn -0.800345 0.578017 0.159198
vn -0.800345 0.578017 -0.159198
vn -0.678500 0.578017 -0.453359
vn -0.453359 0.578017 -0.678500
vn -0.159198 0.578017 -0.800345
vn 0.159198 0.578017 -0.800345
vn 0.453359 0.578017 -0.678500
vn 0.678500 0.578017 -0.453359
vn 0.800345 0.578017 -0.159198
vn 0.740578 -0.454621 0.494838
vn 0.873571 -0.454621 0.173764
vn 0.494838 -0.454621 0.740578
vn 0.173764 -0.454621 0.873571
vn -0.173764 -0.454621 0.873571
vn -0.494838 -0.454621 0.740578
vn -0.740578 -0.454621 0.494838
vn -0.873571 -0.454621 0.173764
vn -0.873571 -0.454621 -0.173764
vn -0.740578 -0.454621 -0.494838
vn -0.494838 -0.454621 -0.740578
vn -0.173764 -0.454621 -0.873571
vn 0.173764 -0.454621 -0.873571
vn 0.494838 -0.454621 -0.740578
vn 0.740578 -0.454621 -0.494838
vn 0.873571 -0.454621 -0.173764
vn 0.635485 -0.644871 0.424618
vn 0.749606 -0.644871 0.149106
vn 0.424618 -0.644871 0.635485
vn 0.149106 -0.644871 0.749606
vn -0.149106 -0.644871 0.749606
vn -0.424618 -0.644871 0.635485
vn -0.635485 -0.644871 0.424618
vn -0.749606 -0.644871 0.149106
vn -0.749606 -0.644871 -0.149106
vn -0.635485 -0.644871 -0.424618
vn -0.424618 -0.644871 -0.635485
vn -0.149106 -0.644871 -0.749606
vn 0.149106 -0.644871 -0.749606
vn 0.424618 -0.644871 -0.635485
vn 0.635485 -0.644871 -0.424618
vn 0.749606 -0.644871 -0.149106
vn 0.806644 0.242536 0.538982
vn 0.951501 0.242536 0.189265
vn 0.538982 0.242536 0.806644
vn 0.189265 0.242536 0.951501
vn -0.189265 0.242536 0.951501
vn -0.538982 0.242536 0.806644
vn -0.806644 0.242536 0.538982
vn -0.951501 0.242536 0.189265
vn -0.951501 0.242536 -0.189265
vn -0.806644 0.242536 -0.538982
vn -0.538982 0.242536 -0.806644
vn -0.189265 0.242536 -0.951501
vn 0.189265 0.242536 -0.951501
vn 0.538982 0.242536 -0.806644
vn 0.806644 0.242536 -0.538982
vn 0.951501 0.242536 -0.189265
vn 0.308800 0.928477 0.206334
vn 0.364255 0.928477 0.072455
vn 0.206334 0.928477 0.308800
vn 0.072455 0.928477 0.364255
vn -0.072455 0.928477 0.364255
vn -0.206334 0.928477 0.308800
vn -0.308800 0.928477 0.206334
vn -0.364255 0.928477 0.072455
vn -0.364255 0.928477 -0.072455
vn -0.308800 0.928477 -0.206334
vn -0.206334 0.928477 -0.308800
vn -0.072455 0.928477 -0.364255
vn 0.072455 0.928477 -0.364255
vn 0.206334 0.928477 -0.308800
vn 0.308800 0.928477 -0.206334
vn 0.364255 0.928477 -0.072455
vn 0.195894 0.971850 0.130892
vn 0.231073 0.971850 0.045963
vn 0.130892 0.971850 0.195894
vn 0.045963 0.971850 0.231073
vn -0.045963 0.971850 0.231073
vn -0.130892 0.971850 0.195894
vn -0.195894 0.971850 0.130892
vn -0.231073 0.971850 0.045963
vn -0.231073 0.971850 -0.045963
vn -0.195894 0.971850 -0.130892
vn -0.130892 0.971850 -0.195894
vn -0.045963 0.971850 -0.231073
vn 0.045963 0.971850 -0.231073
vn 0.130892 0.971850 -0.195894
vn 0.195894 0.971850 -0.130892
vn 0.231073 0.971850 -0.045963
usemtl body
f 1/1/1 2/2/1 3/3/2
f 4/4/2 1/1/1 3/3/2
f 5/5/3 6/6/3 2/2/1
f 1/1/1 5/5/3 2/2/1
f 7/7/4 8/8/4 6/6/3
f 5/5/3 7/7/4 6/6/3
f 9/9/5 10/10/5 8/8/4
f 7/7/4 9/9/5 8/8/4
f 11/11/6 12/12/6 10/10/5
f 9/9/5 11/11/6 10/10/5
f 13/13/7 14/14/7 12/12/6
f 11/11/6 13/13/7 12/12/6
f 15/15/8 16/16/8 14/14/7
f 13/13/7 15/15/8 14/14/7
f 17/17/9 18/18/9 16/16/8
f 15/15/8 17/17/9 16/16/8
f 19/19/10 20/20/10 18/18/9
f 17/17/9 19/19/10 18/18/9
f 21/21/11 22/22/11 20/20/10
f 19/19/10 21/21/11 20/20/10
f 23/23/12 24/24/12 22/22/11
f 21/21/11 23/23/12 22/22/11
f 25/25/13 26/26/13 24/24/12
f 23/23/12 25/25/13 24/24/12
f 27/27/14 28/28/14 26/26/13
f 25/25/13 27/27/14 26/26/13
f 29/29/15 30/30/15 28/28/14
f 27/27/14 29/29/15 28/28/14
f 31/31/16 32/32/16 30/30/15
f 29/29/15 31/31/16 30/30/15
f 4/33/2 3/34/2 32/32/16
f 31/31/16 4/33/2 32/32/16
f 33/35/17 1/1/1 4/4/2
f 34/36/18 33/35/17 4/4/2
f 35/37/19 5/5/3 1/1/1
f 33/35/17 35/37/19 1/1/1
f 36/38/20 7/7/4 5/5/3
f 35/37/19 36/38/20 5/5/3
f 37/39/21 9/9/5 7/7/4
f 36/38/20 37/39/21 7/7/4
f 38/40/22 11/11/6 9/9/5
f 37/39/21 38/40/22 9/9/5
f 39/41/23 13/13/7 11/11/6
f 38/40/22 39/41/23 11/11/6
f 40/42/24 15/15/8 13/13/7
f 39/41/23 40/42/24 13/13/7
f 41/43/25 17/17/9 15/15/8
f 40/42/24 41/43/25 15/15/8
f 42/44/26 19/19/10 17/17/9
f 41/43/25 42/44/26 17/17/9
f 43/45/27 21/21/11 19/19/10
f 42/44/26 43/45/27 19/19/10
f 44/46/28 23/23/12 21/21/11
f 43/45/27 44/46/28 21/21/11
f 45/47/29 25/25/13 23/23/12
f 44/46/28 45/47/29 23/23/12
f 46/48/30 27/27/14 25/25/13
f 45/47/29 46/48/30 25/25/13
f 47/49/31 29/29/15 27/27/14
f 46/48/30 47/49/31 27/27/14
f 48/50/32 31/31/16 29/29/15
f 47/49/31 48/50/32 29/29/15
f 34/51/18 4/33/2 31/31/16
f 48/50/32 34/51/18 31/31/16
f 49/52/33 33/35/17 34/36/18
f 50/53/34 49/52/33 34/36/18
f 51/54/35 35/37/19 33/35/17
f 49/52/33 51/54/35 33/35/17
f 52/55/36 36/38/20 35/37/19
f 51/54/35 52/55/36 35/37/19
f 53/56/37 37/39/21 36/38/20
f 52/55/36 53/56/37 36/38/20
f 54/57/38 38/40/22 37/39/21
f 53/56/37 54/57/38 37/39/21
f 55/58/39 39/41/23 38/40/22
f 54/57/38 55/58/39 38/40/22
f 56/59/40 40/42/24 39/41/23
f 55/58/39 56/59/40 39/41/23
f 57/60/41 41/43/25 40/42/24
f 56/59/40 57/60/41 40/42/24
f 58/61/42 42/44/26 41/43/25
f 57/60/41 58/61/42 41/43/25
f 59/62/43 43/45/27 42/44/26
f 58/61/42 59/62/43 42/44/26
f 60/63/44 44/46/28 43/45/27
f 59/62/43 60/63/44 43/45/27
f 61/64/45 45/47/29 44/46/28
f 60/63/44 61/64/45 44/46/28
f 62/65/46 46/48/30 45/47/29
f 61/64/45 62/65/46 45/47/29
f 63/66/47 47/49/31 46/48/30
f 62/65/46 63/66/47 46/48/30
f 64/67/48 48/50/32 47/49/31
f 63/66/47 64/67/48 47/49/31
f 50/68/34 34/51/18 48/50/32
f 64/67/48 50/68/34 48/50/32
f 65/69/49 49/52/33 50/53/34
f 66/70/50 65/69/49 50/53/34
f 67/71/51 51/54/35 49/52/33
f 65/69/49 67/71/51 49/52/33
f 68/72/52 52/55/36 51/54/35
f 67/71/51 68/72/52 51/54/35
f 69/73/53 53/56/37 52/55/36
f 68/72/52 69/73/53 52/55/36
f 70/74/54 54/57/38 53/56/37
f 69/73/53 70/74/54 53/56/37
f 71/75/55 55/58/39 54/57/38
f 70/74/54 71/75/55 54/57/38
f 72/76/56 56/59/40 55/58/39
f 71/75/55 72/76/56 55/58/39
f 73/77/57 57/60/41 56/59/40
f 72/76/56 73/77/57 56/59/40
f 74/78/58 58/61/42 57/60/41
f 73/77/57 74/78/58 57/60/41
f 75/79/59 59/62/43 58/61/42
f 74/78/58 75/79/59 58/61/42
f 76/80/60 60/63/44 59/62/43
f 75/79/59 76/80/60 59/62/43
f 77/81/61 61/64/45 60/63/44
f 76/80/60 77/81/61 60/63/44
f 78/82/62 62/65/46 61/64/45
f 77/81/61 78/82/62 61/64/45
f 79/83/63 63/66/47 62/65/46
f 78/82/62 79/83/63 62/65/46
f 80/84/64 64/67/48 63/66/47
f 79/83/63 80/84/64 63/66/47
f 66/85/50 50/68/34 64/67/48
f 80/84/64 66/85/50 64/67/48
f 81/86/65 65/69/49 66/70/50
f 82/87/66 81/86/65 66/70/50
f 83/88/67 67/71/51 65/69/49
f 81/86/65 83/88/67 65/69/49
f 84/89/68 68/72/52 67/71/51
f 83/88/67 84/89/68 67/71/51
f 85/90/69 69/73/53 68/72/52
f 84/89/68 85/90/69 68/72/52
f 86/91/70 70/74/54 69/73/53
f 85/90/69 86/91/70 69/73/53
f 87/92/71 71/75/55 70/74/54
f 86/91/70 87/92/71 70/74/54
f 88/93/72 72/76/56 71/75/55
f 87/92/71 88/93/72 71/75/55
f 89/94/73 73/77/57 72/76/56
f 88/93/72 89/94/73 72/76/56
f 90/95/74 74/78/58 73/77/57
f 89/94/73 90/95/74 73/77/57
f 91/96/75 75/79/59 74/78/58
f 90/95/74 91/96/75 74/78/58
f 92/97/76 76/80/60 75/79/59
f 91/96/75 92/97/76 75/79/59
f 93/98/77 77/81/61 76/80/60
f 92/97/76 93/98/77 76/80/60
f 94/99/78 78/82/62 77/81/61
f 93/98/77 94/99/78 77/81/61
f 95/100/79 79/83/63 78/82/62
f 94/99/78 95/100/79 78/82/62
f 96/101/80 80/84/64 79/83/63
f 95/100/79 96/101/80 79/83/63
f 82/102/66 66/85/50 80/84/64
f 96/101/80 82/102/66 80/84/64
f 97/103/81 81/86/65 82/87/66
f 98/104/82 97/103/81 82/87/66
f 99/105/83 83/88/67 81/86/65
f 97/103/81 99/105/83 81/86/65
f 100/106/84 84/89/68 83/88/67
f 99/105/83 100/106/84 83/88/67
f 101/107/85 85/90/69 84/89/68
f 100/106/84 101/107/85 84/89/68
f 102/108/86 86/91/70 85/90/69
f 101/107/85 102/108/86 85/90/69
f 103/109/87 87/92/71 86/91/70
f 102/108/86 103/109/87 86/91/70
f 104/110/88 88/93/72 87/92/71
f 103/109/87 104/110/88 87/92/71
f 105/111/89 89/94/73 88/93/72
f 104/110/88 105/111/89 88/93/72
f 106/112/90 90/95/74 89/94/73
f 105/111/89 106/112/90 89/94/73
f 107/113/91 91/96/75 90/95/74
f 106/112/90 107/113/91 90/95/74
f 108/114/92 92/97/76 91/96/75
f 107/113/91 108/114/92 91/96/75
f 109/115/93 93/98/77 92/97/76
f 108/114/92 109/115/93 92/97/76
f 110/116/94 94/99/78 93/98/77
f 109/115/93 110/116/94 93/98/77
f 111/117/95 95/100/79 94/99/78
f 110/116/94 111/117/95 94/99/78
f 112/118/96 96/101/80 95/100/79
f 111/117/95 112/118/96 95/100/79
f 98/119/82 82/102/66 96/101/80
f 112/118/96 98/119/82 96/101/80
f 113/120/97 97/103/81 98/104/82
f 114/121/98 113/120/97 98/104/82
f 115/122/99 99/105/83 97/103/81
f 113/120/97 115/122/99 97/103/81
f 116/123/100 100/106/84 99/105/83
f 115/122/99 116/123/100 99/105/83
f 117/124/101 101/107/85 100/106/84
f 116/123/100 117/124/101 100/106/84
f 118/125/102 102/108/86 101/107/85
f 117/124/101 118/125/102 101/107/85
f 119/126/103 103/109/87 102/108/86
f 118/125/102 119/126/103 102/108/86
f 120/127/104 104/110/88 103/109/87
f 119/126/103 120/127/104 103/109/87
f 121/128/105 105/111/89 104/110/88
f 120/127/104 121/128/105 104/110/88
f 122/129/106 106/112/90 105/111/89
f 121/128/105 122/129/106 105/111/89
f 123/130/107 107/113/91 106/112/90
f 122/129/106 123/130/107 106/112/90
f 124/131/108 108/114/92 107/113/91
f 123/130/107 124/131/108 107/113/91
f 125/132/109 109/115/93 108/114/92
f 124/131/108 125/132/109 108/114/92
f 126/133/110 110/116/94 109/115/93
f 125/132/109 126/133/110 109/115/93
f 127/134/111 111/117/95 110/116/94
f 126/133/110 127/134/111 110/116/94
f 128/135/112 112/118/96 111/117/95
f 127/134/111 128/135/112 111/117/95
f 114/136/98 98/119/82 112/118/96
f 128/135/112 114/136/98 112/118/96
f 129/137/113 113/120/97 114/121/98
f 130/138/114 129/137/113 114/121/98
f 131/139/115 115/122/99 113/120/97
f 129/137/113 131/139/115 113/120/97
f 132/140/116 116/123/100 115/122/99
f 131/139/115 132/140/116 115/122/99
f 133/141/117 117/124/101 116/123/100
f 132/140/116 133/141/117 116/123/100
f 134/142/118 118/125/102 117/124/101
f 133/141/117 134/142/118 117/124/101
f 135/143/119 119/126/103 118/125/102
f 134/142/118 135/143/119 118/125/102
f 136/144/120 120/127/104 119/126/103
f 135/143/119 136/144/120 119/126/103
f 137/145/121 121/128/105 120/127/104
f 136/144/120 137/145/121 120/127/104
f 138/146/122 122/129/106 121/128/105
f 137/145/121 138/146/122 121/128/105
f 139/147/123 123/130/107 122/129/106
f 138/146/122 139/147/123 122/129/106
f 140/148/124 124/131/108 123/130/107
f 139/147/123 140/148/124 123/130/107
f 141/149/125 125/132/109 124/131/108
f 140/148/124 141/149/125 124/131/108
f 142/150/126 126/133/110 125/132/109
f 141/149/125 142/150/126 125/132/109
f 143/151/127 127/134/111 126/133/110
f 142/150/126 143/151/127 126/133/110
f 144/152/128 128/135/112 127/134/111
f 143/151/127 144/152/128 127/134/111
f 130/153/114 114/136/98 128/135/112
f 144/152/128 130/153/114 128/135/112
f 145/154/129 129/137/113 130/138/114
f 146/155/130 145/154/129 130/138/114
f 147/156/131 131/139/115 129/137/113
f 145/154/129 147/156/131 129/137/113
f 148/157/132 132/140/116 131/139/115
f 147/156/131 148/157/132 131/139/115
f 149/158/133 133/141/117 132/140/116
f 148/157/132 149/158/133 132/140/116
f 150/159/134 134/142/118 133/141/117
f 149/158/133 150/159/134 133/141/117
f 151/160/135 135/143/119 134/142/118
f 150/159/134 151/160/135 134/142/118
f 152/161/136 136/144/120 135/143/119
f 151/160/135 152/161/136 135/143/119
f 153/162/137 137/145/121 136/144/120
f 152/161/136 153/162/137 136/144/120
f 154/163/138 138/146/122 137/145/121
f 153/162/137 154/163/138 137/145/121
f 155/164/139 139/147/123 138/146/122
f 154/163/138 155/164/139 138/146/122
f 156/165/140 140/148/124 139/147/123
f 155/164/139 156/165/140 139/147/123
f 157/166/141 141/149/125 140/148/124
f 156/165/140 157/166/141 140/148/124
f 158/167/142 142/150/126 141/149/125
f 157/166/141 158/167/142 141/149/125
f 159/168/143 143/151/127 142/150/126
f 158/167/142 159/168/143 142/150/126
f 160/169/144 144/152/128 143/151/127
f 159/168/143 160/169/144 143/151/127
f 146/170/130 130/153/114 144/152/128
f 160/169/144 146/170/130 144/152/128
f 161/171/145 145/154/129 146/155/130
f 162/172/146 161/171/145 146/155/130
f 163/173/147 147/156/131 145/154/129
f 161/171/145 163/173/147 145/154/129
f 164/174/148 148/157/132 147/156/131
f 163/173/147 164/174/148 147/156/131
f 165/175/149 149/158/133 148/157/132
f 164/174/148 165/175/149 148/157/132
f 166/176/150 150/159/134 149/158/133
f 165/175/149 166/176/150 149/158/133
f 167/177/151 151/160/135 150/159/134
f 166/176/150 167/177/151 150/159/134
f 168/178/152 152/161/136 151/160/135
f 167/177/151 168/178/152 151/160/135
f 169/179/153 153/162/137 152/161/136
f 168/178/152 169/179/153 152/161/136
f 170/180/154 154/163/138 153/162/137
f 169/179/153 170/180/154 153/162/137
f 171/181/155 155/164/139 154/163/138
f 170/180/154 171/181/155 154/163/138
f 172/182/156 156/165/140 155/164/139
f 171/181/155 172/182/156 155/164/139
f 173/183/157 157/166/141 156/165/140
f 172/182/156 173/183/157 156/165/140
f 174/184/158 158/167/142 157/166/141
f 173/183/157 174/184/158 157/166/141
f 175/185/159 159/168/143 158/167/142
f 174/184/158 175/185/159 158/167/142
f 176/186/160 160/169/144 159/168/143
f 175/185/159 176/186/160 159/168/143
f 162/187/146 146/170/130 160/169/144
f 176/186/160 162/187/146 160/169/144
f 177/188/161 161/171/145 162/172/146
f 178/189/162 177/188/161 162/172/146
f 179/190/163 163/173/147 161/171/145
f 177/188/161 179/190/163 161/171/145
f 180/191/164 164/174/148 163/173/147
f 179/190/163 180/191/164 163/173/147
f 181/192/165 165/175/149 164/174/148
f 180/191/164 181/192/165 164/174/148
f 182/193/166 166/176/150 165/175/149
f 181/192/165 182/193/166 165/175/149
f 183/194/167 167/177/151 166/176/150
f 182/193/166 183/194/167 166/176/150
f 184/195/168 168/178/152 167/177/151
f 183/194/167 184/195/168 167/177/151
f 185/196/169 169/179/153 168/178/152
f 184/195/168 185/196/169 168/178/152
f 186/197/170 170/180/154 169/179/153
f 185/196/169 186/197/170 169/179/153
f 187/198/171 171/181/155 170/180/154
f 186/197/170 187/198/171 170/180/154
f 188/199/172 172/182/156 171/181/155
f 187/198/171 188/199/172 171/181/155
f 189/200/173 173/183/157 172/182/156
f 188/199/172 189/200/173 172/182/156
f 190/201/174 174/184/158 173/183/157
f 189/200/173 190/201/174 173/183/157
f 191/202/175 175/185/159 174/184/158
f 190/201/174 191/202/175 174/184/158
f 192/203/176 176/186/160 175/185/159
f 191/202/175 192/203/176 175/185/159
f 178/204/162 162/187/146 176/186/160
f 192/203/176 178/204/162 176/186/160
f 193/205/177 177/188/161 178/189/162
f 194/206/178 193/205/177 178/189/162
f 195/207/179 179/190/163 177/188/161
f 193/205/177 195/207/179 177/188/161
f 196/208/180 180/191/164 179/190/163
f 195/207/179 196/208/180 179/190/163
f 197/209/181 181/192/165 180/191/164
f 196/208/180 197/209/181 180/191/164
f 198/210/182 182/193/166 181/192/165
f 197/209/181 198/210/182 181/192/165
f 199/211/183 183/194/167 182/193/166
f 198/210/182 199/211/183 182/193/166
f 200/212/184 184/195/168 183/194/167
f 199/211/183 200/212/184 183/194/167
f 201/213/185 185/196/169 184/195/168
f 200/212/184 201/213/185 184/195/168
f 202/214/186 186/197/170 185/196/169
f 201/213/185 202/214/186 185/196/169
f 203/215/187 187/198/171 186/197/170
f 202/214/186 203/215/187 186/197/170
f 204/216/188 188/199/172 187/198/171
f 203/215/187 204/216/188 187/198/171
f 205/217/189 189/200/173 188/199/172
f 204/216/188 205/217/189 188/199/172
f 206/218/190 190/201/174 189/200/173
f 205/217/189 206/218/190 189/200/173
f 207/219/191 191/202/175 190/201/174
f 206/218/190 207/219/191 190/201/174
f 208/220/192 192/203/176 191/202/175
f 207/219/191 208/220/192 191/202/175
f 194/221/178 178/204/162 192/203/176
f 208/220/192 194/221/178 192/203/176
f 209/222/193 193/205/177 194/206/178
f 210/223/194 209/222/193 194/206/178
f 211/224/195 195/207/179 193/205/177
f 209/222/193 211/224/195 193/205/177
f 212/225/196 196/208/180 195/207/179
f 211/224/195 212/225/196 195/207/179
f 213/226/197 197/209/181 196/208/180
f 212/225/196 213/226/197 196/208/180
f 214/227/198 198/210/182 197/209/181
f 213/226/197 214/227/198 197/209/181
f 215/228/199 199/211/183 198/210/182
f 214/227/198 215/228/199 198/210/182
f 216/229/200 200/212/184 199/211/183
f 215/228/199 216/229/200 199/211/183
f 217/230/201 201/213/185 200/212/184
f 216/229/200 217/230/201 200/212/184
f 218/231/202 202/214/186 201/213/185
f 217/230/201 218/231/202 201/213/185
f 219/232/203 203/215/187 202/214/186
f 218/231/202 219/232/203 202/214/186
f 220/233/204 204/216/188 203/215/187
f 219/232/203 220/233/204 203/215/187
f 221/234/205 205/217/189 204/216/188
f 220/233/204 221/234/205 204/216/188
f 222/235/206 206/218/190 205/217/189
f 221/234/205 222/235/206 205/217/189
f 223/236/207 207/219/191 206/218/190
f 222/235/206 223/236/207 206/218/190
f 224/237/208 208/220/192 207/219/191
f 223/236/207 224/237/208 207/219/191
f 210/238/194 194/221/178 208/220/192
f 224/237/208 210/238/194 208/220/192
f 225/239/209 209/222/193 210/223/194
f 226/240/210 225/239/209 210/223/194
f 227/241/211 211/224/195 209/222/193
f 225/239/209 227/241/211 209/222/193
f 228/242/212 212/225/196 211/224/195
f 227/241/211 228/242/212 211/224/195
f 229/243/213 213/226/197 212/225/196
f 228/242/212 229/243/213 212/225/196
f 230/244/214 214/227/198 213/226/197
f 229/243/213 230/244/214 213/226/197
f 231/245/215 215/228/199 214/227/198
f 230/244/214 231/245/215 214/227/198
f 232/246/216 216/229/200 215/228/199
f 231/245/215 232/246/216 215/228/199
f 233/247/217 217/230/201 216/229/200
f 232/246/216 233/247/217 216/229/200
f 234/248/218 218/231/202 217/230/201
f 233/247/217 234/248/218 217/230/201
f 235/249/219 219/232/203 218/231/202
f 234/248/218 235/249/219 218/231/202
f 236/250/220 220/233/204 219/232/203
f 235/249/219 236/250/220 219/232/203
f 237/251/221 221/234/205 220/233/204
f 236/250/220 237/251/221 220/233/204
f 238/252/222 222/235/206 221/234/205
f 237/251/221 238/252/222 221/234/205
f 239/253/223 223/236/207 222/235/206
f 238/252/222 239/253/223 222/235/206
f 240/254/224 224/237/208 223/236/207
f 239/253/223 240/254/224 223/236/207
f 226/255/210 210/238/194 224/237/208
f 240/254/224 226/255/210 224/237/208
f 241/256/225 225/239/209 226/240/210
f 242/257/226 241/256/225 226/240/210
f 243/258/227 227/241/211 225/239/209
f 241/256/225 243/258/227 225/239/209
f 244/259/228 228/242/212 227/241/211
f 243/258/227 244/259/228 227/241/211
f 245/260/229 229/243/213 228/242/212
f 244/259/228 245/260/229 228/242/212
f 246/261/230 230/244/214 229/243/213
f 245/260/229 246/261/230 229/243/213
f 247/262/231 231/245/215 230/244/214
f 246/261/230 247/262/231 230/244/214
f 248/263/232 232/246/216 231/245/215
f 247/262/231 248/263/232 231/245/215
f 249/264/233 233/247/217 232/246/216
f 248/263/232 249/264/233 232/246/216
f 250/265/234 234/248/218 233/247/217
f 249/264/233 250/265/234 233/247/217
f 251/266/235 235/249/219 234/248/218
f 250/265/234 251/266/235 234/248/218
f 252/267/236 236/250/220 235/249/219
f 251/266/235 252/267/236 235/249/219
f 253/268/237 237/251/221 236/250/220
f 252/267/236 253/268/237 236/250/220
f 254/269/238 238/252/222 237/251/221
f 253/268/237 254/269/238 237/251/221
f 255/270/239 239/253/223 238/252/222
f 254/269/238 255/270/239 238/252/222
f 256/271/240 240/254/224 239/253/223
f 255/270/239 256/271/240 239/253/223
f 242/272/226 226/255/210 240/254/224
f 256/271/240 242/272/226 240/254/224
f 257/273/241 241/256/225 242/257/226
f 258/274/242 257/273/241 242/257/226
f 259/275/243 243/258/227 241/256/225
f 257/273/241 259/275/243 241/256/225
f 260/276/244 244/259/228 243/258/227
f 259/275/243 260/276/244 243/258/227
f 261/277/245 245/260/229 244/259/228
f 260/276/244 261/277/245 244/259/228
f 262/278/246 246/261/230 245/260/229
f 261/277/245 262/278/246 245/260/229
f 263/279/247 247/262/231 246/261/230
f 262/278/246 263/279/247 246/261/230
f 264/280/248 248/263/232 247/262/231
f 263/279/247 264/280/248 247/262/231
f 265/281/249 249/264/233 248/263/232
f 264/280/248 265/281/249 248/263/232
f 266/282/250 250/265/234 249/264/233
f 265/281/249 266/282/250 249/264/233
f 267/283/251 251/266/235 250/265/234
f 266/282/250 267/283/251 250/265/234
f 268/284/252 252/267/236 251/266/235
f 267/283/251 268/284/252 251/266/235
f 269/285/253 253/268/237 252/267/236
f 268/284/252 269/285/253 252/267/236
f 270/286/254 254/269/238 253/268/237
f 269/285/253 270/286/254 253/268/237
f 271/287/255 255/270/239 254/269/238
f 270/286/254 271/287/255 254/269/238
f 272/288/256 256/271/240 255/270/239
f 271/287/255 272/288/256 255/270/239
f 258/289/242 242/272/226 256/271/240
f 272/288/256 258/289/242 256/271/240
f 273/290/257 257/273/241 258/274/242
f 274/291/258 273/290/257 258/274/242
f 275/292/259 259/275/243 257/273/241
f 273/290/257 275/292/259 257/273/241
f 276/293/260 260/276/244 259/275/243
f 275/292/259 276/293/260 259/275/243
f 277/294/261 261/277/245 260/276/244
f 276/293/260 277/294/261 260/276/244
f 278/295/262 262/278/246 261/277/245
f 277/294/261 278/295/262 261/277/245
f 279/296/263 263/279/247 262/278/246
f 278/295/262 279/296/263 262/278/246
f 280/297/264 264/280/248 263/279/247
f 279/296/263 280/297/264 263/279/247
f 281/298/265 265/281/249 264/280/248
f 280/297/264 281/298/265 264/280/248
f 282/299/266 266/282/250 265/281/249
f 281/298/265 282/299/266 265/281/249
f 283/300/267 267/283/251 266/282/250
f 282/299/266 283/300/267 266/282/250
f 284/301/268 268/284/252 267/283/251
f 283/300/267 284/301/268 267/283/251
f 285/302/269 269/285/253 268/284/252
f 284/301/268 285/302/269 268/284/252
f 286/303/270 270/286/254 269/285/253
f 285/302/269 286/303/270 269/285/253
f 287/304/271 271/287/255 270/286/254
f 286/303/270 287/304/271 270/286/254
f 288/305/272 272/288/256 271/287/255
f 287/304/271 288/305/272 271/287/255
f 274/306/258 258/289/242 272/288/256
f 288/305/272 274/306/258 272/288/256
f 289/307/273 273/290/257 274/291/258
f 290/308/274 289/307/273 274/291/258
f 291/309/275 275/292/259 273/290/257
f 289/307/273 291/309/275 273/290/257
f 292/310/276 276/293/260 275/292/259
f 291/309/275 292/310/276 275/292/259
f 293/311/277 277/294/261 276/293/260
f 292/310/276 293/311/277 276/293/260
f 294/312/278 278/295/262 277/294/261
f 293/311/277 294/312/278 277/294/261
f 295/313/279 279/296/263 278/295/262
f 294/312/278 295/313/279 278/295/262
f 296/314/280 280/297/264 279/296/263
f 295/313/279 296/314/280 279/296/263
f 297/315/281 281/298/265 280/297/264
f 296/314/280 297/315/281 280/297/264
f 298/316/282 282/299/266 281/298/265
f 297/315/281 298/316/282 281/298/265
f 299/317/283 283/300/267 282/299/266
f 298/316/282 299/317/283 282/299/266
f 300/318/284 284/301/268 283/300/267
f 299/317/283 300/318/284 283/300/267
f 301/319/285 285/302/269 284/301/268
f 300/318/284 301/319/285 284/301/268
f 302/320/286 286/303/270 285/302/269
f 301/319/285 302/320/286 285/302/269
f 303/321/287 287/304/271 286/303/270
f 302/320/286 303/321/287 286/303/270
f 304/322/288 288/305/272 287/304/271
f 303/321/287 304/322/288 287/304/271
f 290/323/274 274/306/258 288/305/272
f 304/322/288 290/323/274 288/305/272
f 305/324/289 289/307/273 290/308/274
f 306/325/290 305/324/289 290/308/274
f 307/326/291 291/309/275 289/307/273
f 305/324/289 307/326/291 289/307/273
f 308/327/292 292/310/276 291/309/275
f 307/326/291 308/327/292 291/309/275
f 309/328/293 293/311/277 292/310/276
f 308/327/292 309/328/293 292/310/276
f 310/329/294 294/312/278 293/311/277
f 309/328/293 310/329/294 293/311/277
f 311/330/295 295/313/279 294/312/278
f 310/329/294 311/330/295 294/312/278
f 312/331/296 296/314/280 295/313/279
f 311/330/295 312/331/296 295/313/279
f 313/332/297 297/315/281 296/314/280
f 312/331/296 313/332/297 296/314/280
f 314/333/298 298/316/282 297/315/281
f 313/332/297 314/333/298 297/315/281
f 315/334/299 299/317/283 298/316/282
f 314/333/298 315/334/299 298/316/282
f 316/335/300 300/318/284 299/317/283
f 315/334/299 316/335/300 299/317/283
f 317/336/301 301/319/285 300/318/284
f 316/335/300 317/336/301 300/318/284
f 318/337/302 302/320/286 301/319/285
f 317/336/301 318/337/302 301/319/285
f 319/338/303 303/321/287 302/320/286
f 318/337/302 319/338/303 302/320/286
f 320/339/304 304/322/288 303/321/287
f 319/338/303 320/339/304 303/321/287
f 306/340/290 290/323/274 304/322/288
f 320/339/304 306/340/290 304/322/288
f 321/341/305 305/324/289 306/325/290
f 322/342/306 321/341/305 306/325/290
f 323/343/307 307/326/291 305/324/289
f 321/341/305 323/343/307 305/324/289
f 324/344/308 308/327/292 307/326/291
f 323/343/307 324/344/308 307/326/291
f 325/345/309 309/328/293 308/327/292
f 324/344/308 325/345/309 308/327/292
f 326/346/310 310/329/294 309/328/293
f 325/345/309 326/346/310 309/328/293
f 327/347/311 311/330/295 310/329/294
f 326/346/310 327/347/311 310/329/294
f 328/348/312 312/331/296 311/330/295
f 327/347/311 328/348/312 311/330/295
f 329/349/313 313/332/297 312/331/296
f 328/348/312 329/349/313 312/331/296
f 330/350/314 314/333/298 313/332/297
f 329/349/313 330/350/314 313/332/297
f 331/351/315 315/334/299 314/333/298
f 330/350/314 331/351/315 314/333/298
f 332/352/316 316/335/300 315/334/299
f 331/351/315 332/352/316 315/334/299
f 333/353/317 317/336/301 316/335/300
f 332/352/316 333/353/317 316/335/300
f 334/354/318 318/337/302 317/336/301
f 333/353/317 334/354/318 317/336/301
f 335/355/319 319/338/303 318/337/302
f 334/354/318 335/355/319 318/337/302
f 336/356/320 320/339/304 319/338/303
f 335/355/319 336/356/320 319/338/303
f 322/357/306 306/340/290 320/339/304
f 336/356/320 322/357/306 320/339/304
f 337/358/306 321/341/305 322/342/306
f 337/359/305 323/343/307 321/341/305
f 337/360/307 324/344/308 323/343/307
f 337/361/308 325/345/309 324/344/308
f 337/362/309 326/346/310 325/345/309
f 337/363/310 327/347/311 326/346/310
f 337/364/311 328/348/312 327/347/311
f 337/365/312 329/349/313 328/348/312
f 337/366/313 330/350/314 329/349/313
f 337/367/314 331/351/315 330/350/314
f 337/368/315 332/352/316 331/351/315
f 337/369/316 333/353/317 332/352/316
f 337/370/317 334/354/318 333/353/317
f 337/371/318 335/355/319 334/354/318
f 337/372/319 336/356/320 335/355/319
f 337/373/320 322/357/306 336/356/320
