# Procedurally generated by dev-env-utils/scripts/gen_pole_finials.py -- do not hand edit
# Large Ball finial: collar sleeved over the pole top, ornament above
mtllib polefinial.mtl
o polefinial_ball_large
v 0.681884 -0.071875 0.621531
v 0.658499 -0.100000 0.605906
v 0.686962 -0.100000 0.537189
v 0.714547 -0.071875 0.542676
v 0.621531 -0.071875 0.681884
v 0.605906 -0.100000 0.658499
v 0.542676 -0.071875 0.714547
v 0.537189 -0.100000 0.686962
v 0.457324 -0.071875 0.714547
v 0.462811 -0.100000 0.686962
v 0.378469 -0.071875 0.681884
v 0.394094 -0.100000 0.658499
v 0.318116 -0.071875 0.621531
v 0.341501 -0.100000 0.605906
v 0.285453 -0.071875 0.542676
v 0.313038 -0.100000 0.537189
v 0.285453 -0.071875 0.457324
v 0.313038 -0.100000 0.462811
v 0.318116 -0.071875 0.378469
v 0.341501 -0.100000 0.394094
v 0.378469 -0.071875 0.318116
v 0.394094 -0.100000 0.341501
v 0.457324 -0.071875 0.285453
v 0.462811 -0.100000 0.313038
v 0.542676 -0.071875 0.285453
v 0.537189 -0.100000 0.313038
v 0.621531 -0.071875 0.318116
v 0.605906 -0.100000 0.341501
v 0.681884 -0.071875 0.378469
v 0.658499 -0.100000 0.394094
v 0.714547 -0.071875 0.457324
v 0.686962 -0.100000 0.462811
v 0.681884 0.025000 0.621531
v 0.714547 0.025000 0.542676
v 0.621531 0.025000 0.681884
v 0.542676 0.025000 0.714547
v 0.457324 0.025000 0.714547
v 0.378469 0.025000 0.681884
v 0.318116 0.025000 0.621531
v 0.285453 0.025000 0.542676
v 0.285453 0.025000 0.457324
v 0.318116 0.025000 0.378469
v 0.378469 0.025000 0.318116
v 0.457324 0.025000 0.285453
v 0.542676 0.025000 0.285453
v 0.621531 0.025000 0.318116
v 0.681884 0.025000 0.378469
v 0.714547 0.025000 0.457324
v 0.671491 0.053125 0.614586
v 0.702287 0.053125 0.540237
v 0.614586 0.053125 0.671491
v 0.540237 0.053125 0.702287
v 0.459763 0.053125 0.702287
v 0.385414 0.053125 0.671491
v 0.328509 0.053125 0.614586
v 0.297713 0.053125 0.540237
v 0.297713 0.053125 0.459763
v 0.328509 0.053125 0.385414
v 0.385414 0.053125 0.328509
v 0.459763 0.053125 0.297713
v 0.540237 0.053125 0.297713
v 0.614586 0.053125 0.328509
v 0.671491 0.053125 0.385414
v 0.702287 0.053125 0.459763
v 0.635114 0.075000 0.590280
v 0.659378 0.075000 0.531702
v 0.590280 0.075000 0.635114
v 0.531702 0.075000 0.659378
v 0.468298 0.075000 0.659378
v 0.409720 0.075000 0.635114
v 0.364886 0.075000 0.590280
v 0.340622 0.075000 0.531702
v 0.340622 0.075000 0.468298
v 0.364886 0.075000 0.409720
v 0.409720 0.075000 0.364886
v 0.468298 0.075000 0.340622
v 0.531702 0.075000 0.340622
v 0.590280 0.075000 0.364886
v 0.635114 0.075000 0.409720
v 0.659378 0.075000 0.468298
v 0.590942 0.087500 0.560765
v 0.607273 0.087500 0.521338
v 0.560765 0.087500 0.590942
v 0.521338 0.087500 0.607273
v 0.478662 0.087500 0.607273
v 0.439235 0.087500 0.590942
v 0.409058 0.087500 0.560765
v 0.392727 0.087500 0.521338
v 0.392727 0.087500 0.478662
v 0.409058 0.087500 0.439235
v 0.439235 0.087500 0.409058
v 0.478662 0.087500 0.392727
v 0.521338 0.087500 0.392727
v 0.560765 0.087500 0.409058
v 0.590942 0.087500 0.439235
v 0.607273 0.087500 0.478662
v 0.570155 0.106250 0.546876
v 0.582754 0.106250 0.516461
v 0.546876 0.106250 0.570155
v 0.516461 0.106250 0.582754
v 0.483539 0.106250 0.582754
v 0.453124 0.106250 0.570155
v 0.429845 0.106250 0.546876
v 0.417246 0.106250 0.516461
v 0.417246 0.106250 0.483539
v 0.429845 0.106250 0.453124
v 0.453124 0.106250 0.429845
v 0.483539 0.106250 0.417246
v 0.516461 0.106250 0.417246
v 0.546876 0.106250 0.429845
v 0.570155 0.106250 0.453124
v 0.582754 0.106250 0.483539
v 0.562360 0.137500 0.541668
v 0.573559 0.137500 0.514632
v 0.541668 0.137500 0.562360
v 0.514632 0.137500 0.573559
v 0.485368 0.137500 0.573559
v 0.458332 0.137500 0.562360
v 0.437640 0.137500 0.541668
v 0.426441 0.137500 0.514632
v 0.426441 0.137500 0.485368
v 0.437640 0.137500 0.458332
v 0.458332 0.137500 0.437640
v 0.485368 0.137500 0.426441
v 0.514632 0.137500 0.426441
v 0.541668 0.137500 0.437640
v 0.562360 0.137500 0.458332
v 0.573559 0.137500 0.485368
v 0.572754 0.159375 0.548612
v 0.585819 0.159375 0.517070
v 0.548612 0.159375 0.572754
v 0.517070 0.159375 0.585819
v 0.482930 0.159375 0.585819
v 0.451388 0.159375 0.572754
v 0.427246 0.159375 0.548612
v 0.414181 0.159375 0.517070
v 0.414181 0.159375 0.482930
v 0.427246 0.159375 0.451388
v 0.451388 0.159375 0.427246
v 0.482930 0.159375 0.414181
v 0.517070 0.159375 0.414181
v 0.548612 0.159375 0.427246
v 0.572754 0.159375 0.451388
v 0.585819 0.159375 0.482930
v 0.606532 0.168750 0.571182
v 0.625663 0.168750 0.524996
v 0.571182 0.168750 0.606532
v 0.524996 0.168750 0.625663
v 0.475004 0.168750 0.625663
v 0.428818 0.168750 0.606532
v 0.393468 0.168750 0.571182
v 0.374337 0.168750 0.524996
v 0.374337 0.168750 0.475004
v 0.393468 0.168750 0.428818
v 0.428818 0.168750 0.393468
v 0.475004 0.168750 0.374337
v 0.524996 0.168750 0.374337
v 0.571182 0.168750 0.393468
v 0.606532 0.168750 0.428818
v 0.625663 0.168750 0.475004
v 0.606532 0.187500 0.571182
v 0.625663 0.187500 0.524996
v 0.571182 0.187500 0.606532
v 0.524996 0.187500 0.625663
v 0.475004 0.187500 0.625663
v 0.428818 0.187500 0.606532
v 0.393468 0.187500 0.571182
v 0.374337 0.187500 0.524996
v 0.374337 0.187500 0.475004
v 0.393468 0.187500 0.428818
v 0.428818 0.187500 0.393468
v 0.475004 0.187500 0.374337
v 0.524996 0.187500 0.374337
v 0.571182 0.187500 0.393468
v 0.606532 0.187500 0.428818
v 0.625663 0.187500 0.475004
v 0.575352 0.196875 0.550349
v 0.588884 0.196875 0.517680
v 0.550349 0.196875 0.575352
v 0.517680 0.196875 0.588884
v 0.482320 0.196875 0.588884
v 0.449651 0.196875 0.575352
v 0.424648 0.196875 0.550349
v 0.411116 0.196875 0.517680
v 0.411116 0.196875 0.482320
v 0.424648 0.196875 0.449651
v 0.449651 0.196875 0.424648
v 0.482320 0.196875 0.411116
v 0.517680 0.196875 0.411116
v 0.550349 0.196875 0.424648
v 0.575352 0.196875 0.449651
v 0.588884 0.196875 0.482320
v 0.575352 0.203125 0.550349
v 0.588884 0.203125 0.517680
v 0.550349 0.203125 0.575352
v 0.517680 0.203125 0.588884
v 0.482320 0.203125 0.588884
v 0.449651 0.203125 0.575352
v 0.424648 0.203125 0.550349
v 0.411116 0.203125 0.517680
v 0.411116 0.203125 0.482320
v 0.424648 0.203125 0.449651
v 0.449651 0.203125 0.424648
v 0.482320 0.203125 0.411116
v 0.517680 0.203125 0.411116
v 0.550349 0.203125 0.424648
v 0.575352 0.203125 0.449651
v 0.588884 0.203125 0.482320
v 0.616269 0.229752 0.577688
v 0.637148 0.229752 0.527281
v 0.577688 0.229752 0.616269
v 0.527281 0.229752 0.637148
v 0.472719 0.229752 0.637148
v 0.422312 0.229752 0.616269
v 0.383731 0.229752 0.577688
v 0.362852 0.229752 0.527281
v 0.362852 0.229752 0.472719
v 0.383731 0.229752 0.422312
v 0.422312 0.229752 0.383731
v 0.472719 0.229752 0.362852
v 0.527281 0.229752 0.362852
v 0.577688 0.229752 0.383731
v 0.616269 0.229752 0.422312
v 0.637148 0.229752 0.472719
v 0.651059 0.266898 0.600935
v 0.678187 0.266898 0.535444
v 0.600935 0.266898 0.651059
v 0.535444 0.266898 0.678187
v 0.464556 0.266898 0.678187
v 0.399065 0.266898 0.651059
v 0.348941 0.266898 0.600935
v 0.321813 0.266898 0.535444
v 0.321813 0.266898 0.464556
v 0.348941 0.266898 0.399065
v 0.399065 0.266898 0.348941
v 0.464556 0.266898 0.321813
v 0.535444 0.266898 0.321813
v 0.600935 0.266898 0.348941
v 0.651059 0.266898 0.399065
v 0.678187 0.266898 0.464556
v 0.677890 0.312608 0.618862
v 0.709836 0.312608 0.541739
v 0.618862 0.312608 0.677890
v 0.541739 0.312608 0.709836
v 0.458261 0.312608 0.709836
v 0.381138 0.312608 0.677890
v 0.322110 0.312608 0.618862
v 0.290164 0.312608 0.541739
v 0.290164 0.312608 0.458261
v 0.322110 0.312608 0.381138
v 0.381138 0.312608 0.322110
v 0.458261 0.312608 0.290164
v 0.541739 0.312608 0.290164
v 0.618862 0.312608 0.322110
v 0.677890 0.312608 0.381138
v 0.709836 0.312608 0.458261
v 0.695348 0.364471 0.630527
v 0.730428 0.364471 0.545835
v 0.630527 0.364471 0.695348
v 0.545835 0.364471 0.730428
v 0.454165 0.364471 0.730428
v 0.369473 0.364471 0.695348
v 0.304652 0.364471 0.630527
v 0.269572 0.364471 0.545835
v 0.269572 0.364471 0.454165
v 0.304652 0.364471 0.369473
v 0.369473 0.364471 0.304652
v 0.454165 0.364471 0.269572
v 0.545835 0.364471 0.269572
v 0.630527 0.364471 0.304652
v 0.695348 0.364471 0.369473
v 0.730428 0.364471 0.454165
v 0.702512 0.419756 0.635314
v 0.738879 0.419756 0.547516
v 0.635314 0.419756 0.702512
v 0.547516 0.419756 0.738879
v 0.452484 0.419756 0.738879
v 0.364686 0.419756 0.702512
v 0.297488 0.419756 0.635314
v 0.261121 0.419756 0.547516
v 0.261121 0.419756 0.452484
v 0.297488 0.419756 0.364686
v 0.364686 0.419756 0.297488
v 0.452484 0.419756 0.261121
v 0.547516 0.419756 0.261121
v 0.635314 0.419756 0.297488
v 0.702512 0.419756 0.364686
v 0.738879 0.419756 0.452484
v 0.699005 0.475549 0.632971
v 0.734743 0.475549 0.546693
v 0.632971 0.475549 0.699005
v 0.546693 0.475549 0.734743
v 0.453307 0.475549 0.734743
v 0.367029 0.475549 0.699005
v 0.300995 0.475549 0.632971
v 0.265257 0.475549 0.546693
v 0.265257 0.475549 0.453307
v 0.300995 0.475549 0.367029
v 0.367029 0.475549 0.300995
v 0.453307 0.475549 0.265257
v 0.546693 0.475549 0.265257
v 0.632971 0.475549 0.300995
v 0.699005 0.475549 0.367029
v 0.734743 0.475549 0.453307
v 0.685013 0.528910 0.623622
v 0.718238 0.528910 0.543410
v 0.623622 0.528910 0.685013
v 0.543410 0.528910 0.718238
v 0.456590 0.528910 0.718238
v 0.376378 0.528910 0.685013
v 0.314987 0.528910 0.623622
v 0.281762 0.528910 0.543410
v 0.281762 0.528910 0.456590
v 0.314987 0.528910 0.376378
v 0.376378 0.528910 0.314987
v 0.456590 0.528910 0.281762
v 0.543410 0.528910 0.281762
v 0.623622 0.528910 0.314987
v 0.685013 0.528910 0.376378
v 0.718238 0.528910 0.456590
v 0.661272 0.577028 0.607758
v 0.690233 0.577028 0.537840
v 0.607758 0.577028 0.661272
v 0.537840 0.577028 0.690233
v 0.462160 0.577028 0.690233
v 0.392242 0.577028 0.661272
v 0.338728 0.577028 0.607758
v 0.309767 0.577028 0.537840
v 0.309767 0.577028 0.462160
v 0.338728 0.577028 0.392242
v 0.392242 0.577028 0.338728
v 0.462160 0.577028 0.309767
v 0.537840 0.577028 0.309767
v 0.607758 0.577028 0.338728
v 0.661272 0.577028 0.392242
v 0.690233 0.577028 0.462160
v 0.629033 0.617368 0.586217
v 0.652205 0.617368 0.530275
v 0.586217 0.617368 0.629033
v 0.530275 0.617368 0.652205
v 0.469725 0.617368 0.652205
v 0.413783 0.617368 0.629033
v 0.370967 0.617368 0.586217
v 0.347795 0.617368 0.530275
v 0.347795 0.617368 0.469725
v 0.370967 0.617368 0.413783
v 0.413783 0.617368 0.370967
v 0.469725 0.617368 0.347795
v 0.530275 0.617368 0.347795
v 0.586217 0.617368 0.370967
v 0.629033 0.617368 0.413783
v 0.652205 0.617368 0.469725
v 0.589995 0.647803 0.560133
v 0.606156 0.647803 0.521116
v 0.560133 0.647803 0.589995
v 0.521116 0.647803 0.606156
v 0.478884 0.647803 0.606156
v 0.439867 0.647803 0.589995
v 0.410005 0.647803 0.560133
v 0.393844 0.647803 0.521116
v 0.393844 0.647803 0.478884
v 0.410005 0.647803 0.439867
v 0.439867 0.647803 0.410005
v 0.478884 0.647803 0.393844
v 0.521116 0.647803 0.393844
v 0.560133 0.647803 0.410005
v 0.589995 0.647803 0.439867
v 0.606156 0.647803 0.478884
v 0.546215 0.666730 0.530880
v 0.554514 0.666730 0.510844
v 0.530880 0.666730 0.546215
v 0.510844 0.666730 0.554514
v 0.489156 0.666730 0.554514
v 0.469120 0.666730 0.546215
v 0.453785 0.666730 0.530880
v 0.445486 0.666730 0.510844
v 0.445486 0.666730 0.489156
v 0.453785 0.666730 0.469120
v 0.469120 0.666730 0.453785
v 0.489156 0.666730 0.445486
v 0.510844 0.666730 0.445486
v 0.530880 0.666730 0.453785
v 0.546215 0.666730 0.469120
v 0.554514 0.666730 0.489156
v 0.500000 0.673152 0.500000
vt 0.281250 0.714063
vt 0.281250 0.700000
vt 0.250000 0.700000
vt 0.250000 0.714063
vt 0.312500 0.714063
vt 0.312500 0.700000
vt 0.343750 0.714063
vt 0.343750 0.700000
vt 0.375000 0.714063
vt 0.375000 0.700000
vt 0.406250 0.714063
vt 0.406250 0.700000
vt 0.437500 0.714063
vt 0.437500 0.700000
vt 0.468750 0.714063
vt 0.468750 0.700000
vt 0.500000 0.714063
vt 0.500000 0.700000
vt 0.531250 0.714063
vt 0.531250 0.700000
vt 0.562500 0.714063
vt 0.562500 0.700000
vt 0.593750 0.714063
vt 0.593750 0.700000
vt 0.625000 0.714063
vt 0.625000 0.700000
vt 0.656250 0.714063
vt 0.656250 0.700000
vt 0.687500 0.714063
vt 0.687500 0.700000
vt 0.718750 0.714063
vt 0.718750 0.700000
vt 0.750000 0.714063
vt 0.750000 0.700000
vt 0.281250 0.737500
vt 0.250000 0.737500
vt 0.312500 0.737500
vt 0.343750 0.737500
vt 0.375000 0.737500
vt 0.406250 0.737500
vt 0.437500 0.737500
vt 0.468750 0.737500
vt 0.500000 0.737500
vt 0.531250 0.737500
vt 0.562500 0.737500
vt 0.593750 0.737500
vt 0.625000 0.737500
vt 0.656250 0.737500
vt 0.687500 0.737500
vt 0.718750 0.737500
vt 0.750000 0.737500
vt 0.281250 0.723437
vt 0.250000 0.723437
vt 0.312500 0.723437
vt 0.343750 0.723437
vt 0.375000 0.723437
vt 0.406250 0.723437
vt 0.437500 0.723437
vt 0.468750 0.723437
vt 0.500000 0.723437
vt 0.531250 0.723437
vt 0.562500 0.723437
vt 0.593750 0.723437
vt 0.625000 0.723437
vt 0.656250 0.723437
vt 0.687500 0.723437
vt 0.718750 0.723437
vt 0.750000 0.723437
vt 0.281250 0.712500
vt 0.250000 0.712500
vt 0.312500 0.712500
vt 0.343750 0.712500
vt 0.375000 0.712500
vt 0.406250 0.712500
vt 0.437500 0.712500
vt 0.468750 0.712500
vt 0.500000 0.712500
vt 0.531250 0.712500
vt 0.562500 0.712500
vt 0.593750 0.712500
vt 0.625000 0.712500
vt 0.656250 0.712500
vt 0.687500 0.712500
vt 0.718750 0.712500
vt 0.750000 0.712500
vt 0.281250 0.706250
vt 0.250000 0.706250
vt 0.312500 0.706250
vt 0.343750 0.706250
vt 0.375000 0.706250
vt 0.406250 0.706250
vt 0.437500 0.706250
vt 0.468750 0.706250
vt 0.500000 0.706250
vt 0.531250 0.706250
vt 0.562500 0.706250
vt 0.593750 0.706250
vt 0.625000 0.706250
vt 0.656250 0.706250
vt 0.687500 0.706250
vt 0.718750 0.706250
vt 0.750000 0.706250
vt 0.281250 0.696875
vt 0.250000 0.696875
vt 0.312500 0.696875
vt 0.343750 0.696875
vt 0.375000 0.696875
vt 0.406250 0.696875
vt 0.437500 0.696875
vt 0.468750 0.696875
vt 0.500000 0.696875
vt 0.531250 0.696875
vt 0.562500 0.696875
vt 0.593750 0.696875
vt 0.625000 0.696875
vt 0.656250 0.696875
vt 0.687500 0.696875
vt 0.718750 0.696875
vt 0.750000 0.696875
vt 0.281250 0.681250
vt 0.250000 0.681250
vt 0.312500 0.681250
vt 0.343750 0.681250
vt 0.375000 0.681250
vt 0.406250 0.681250
vt 0.437500 0.681250
vt 0.468750 0.681250
vt 0.500000 0.681250
vt 0.531250 0.681250
vt 0.562500 0.681250
vt 0.593750 0.681250
vt 0.625000 0.681250
vt 0.656250 0.681250
vt 0.687500 0.681250
vt 0.718750 0.681250
vt 0.750000 0.681250
vt 0.281250 0.670312
vt 0.250000 0.670312
vt 0.312500 0.670312
vt 0.343750 0.670312
vt 0.375000 0.670312
vt 0.406250 0.670312
vt 0.437500 0.670312
vt 0.468750 0.670312
vt 0.500000 0.670312
vt 0.531250 0.670312
vt 0.562500 0.670312
vt 0.593750 0.670312
vt 0.625000 0.670312
vt 0.656250 0.670312
vt 0.687500 0.670312
vt 0.718750 0.670312
vt 0.750000 0.670312
vt 0.281250 0.665625
vt 0.250000 0.665625
vt 0.312500 0.665625
vt 0.343750 0.665625
vt 0.375000 0.665625
vt 0.406250 0.665625
vt 0.437500 0.665625
vt 0.468750 0.665625
vt 0.500000 0.665625
vt 0.531250 0.665625
vt 0.562500 0.665625
vt 0.593750 0.665625
vt 0.625000 0.665625
vt 0.656250 0.665625
vt 0.687500 0.665625
vt 0.718750 0.665625
vt 0.750000 0.665625
vt 0.281250 0.656250
vt 0.250000 0.656250
vt 0.312500 0.656250
vt 0.343750 0.656250
vt 0.375000 0.656250
vt 0.406250 0.656250
vt 0.437500 0.656250
vt 0.468750 0.656250
vt 0.500000 0.656250
vt 0.531250 0.656250
vt 0.562500 0.656250
vt 0.593750 0.656250
vt 0.625000 0.656250
vt 0.656250 0.656250
vt 0.687500 0.656250
vt 0.718750 0.656250
vt 0.750000 0.656250
vt 0.281250 0.651563
vt 0.250000 0.651563
vt 0.312500 0.651563
vt 0.343750 0.651563
vt 0.375000 0.651563
vt 0.406250 0.651563
vt 0.437500 0.651563
vt 0.468750 0.651563
vt 0.500000 0.651563
vt 0.531250 0.651563
vt 0.562500 0.651563
vt 0.593750 0.651563
vt 0.625000 0.651563
vt 0.656250 0.651563
vt 0.687500 0.651563
vt 0.718750 0.651563
vt 0.750000 0.651563
vt 0.281250 0.648438
vt 0.250000 0.648438
vt 0.312500 0.648438
vt 0.343750 0.648438
vt 0.375000 0.648438
vt 0.406250 0.648438
vt 0.437500 0.648438
vt 0.468750 0.648438
vt 0.500000 0.648438
vt 0.531250 0.648438
vt 0.562500 0.648438
vt 0.593750 0.648438
vt 0.625000 0.648438
vt 0.656250 0.648438
vt 0.687500 0.648438
vt 0.718750 0.648438
vt 0.750000 0.648438
vt 0.281250 0.635124
vt 0.250000 0.635124
vt 0.312500 0.635124
vt 0.343750 0.635124
vt 0.375000 0.635124
vt 0.406250 0.635124
vt 0.437500 0.635124
vt 0.468750 0.635124
vt 0.500000 0.635124
vt 0.531250 0.635124
vt 0.562500 0.635124
vt 0.593750 0.635124
vt 0.625000 0.635124
vt 0.656250 0.635124
vt 0.687500 0.635124
vt 0.718750 0.635124
vt 0.750000 0.635124
vt 0.281250 0.616551
vt 0.250000 0.616551
vt 0.312500 0.616551
vt 0.343750 0.616551
vt 0.375000 0.616551
vt 0.406250 0.616551
vt 0.437500 0.616551
vt 0.468750 0.616551
vt 0.500000 0.616551
vt 0.531250 0.616551
vt 0.562500 0.616551
vt 0.593750 0.616551
vt 0.625000 0.616551
vt 0.656250 0.616551
vt 0.687500 0.616551
vt 0.718750 0.616551
vt 0.750000 0.616551
vt 0.281250 0.593696
vt 0.250000 0.593696
vt 0.312500 0.593696
vt 0.343750 0.593696
vt 0.375000 0.593696
vt 0.406250 0.593696
vt 0.437500 0.593696
vt 0.468750 0.593696
vt 0.500000 0.593696
vt 0.531250 0.593696
vt 0.562500 0.593696
vt 0.593750 0.593696
vt 0.625000 0.593696
vt 0.656250 0.593696
vt 0.687500 0.593696
vt 0.718750 0.593696
vt 0.750000 0.593696
vt 0.281250 0.567764
vt 0.250000 0.567764
vt 0.312500 0.567764
vt 0.343750 0.567764
vt 0.375000 0.567764
vt 0.406250 0.567764
vt 0.437500 0.567764
vt 0.468750 0.567764
vt 0.500000 0.567764
vt 0.531250 0.567764
vt 0.562500 0.567764
vt 0.593750 0.567764
vt 0.625000 0.567764
vt 0.656250 0.567764
vt 0.687500 0.567764
vt 0.718750 0.567764
vt 0.750000 0.567764
vt 0.281250 0.540122
vt 0.250000 0.540122
vt 0.312500 0.540122
vt 0.343750 0.540122
vt 0.375000 0.540122
vt 0.406250 0.540122
vt 0.437500 0.540122
vt 0.468750 0.540122
vt 0.500000 0.540122
vt 0.531250 0.540122
vt 0.562500 0.540122
vt 0.593750 0.540122
vt 0.625000 0.540122
vt 0.656250 0.540122
vt 0.687500 0.540122
vt 0.718750 0.540122
vt 0.750000 0.540122
vt 0.281250 0.512226
vt 0.250000 0.512226
vt 0.312500 0.512226
vt 0.343750 0.512226
vt 0.375000 0.512226
vt 0.406250 0.512226
vt 0.437500 0.512226
vt 0.468750 0.512226
vt 0.500000 0.512226
vt 0.531250 0.512226
vt 0.562500 0.512226
vt 0.593750 0.512226
vt 0.625000 0.512226
vt 0.656250 0.512226
vt 0.687500 0.512226
vt 0.718750 0.512226
vt 0.750000 0.512226
vt 0.281250 0.485545
vt 0.250000 0.485545
vt 0.312500 0.485545
vt 0.343750 0.485545
vt 0.375000 0.485545
vt 0.406250 0.485545
vt 0.437500 0.485545
vt 0.468750 0.485545
vt 0.500000 0.485545
vt 0.531250 0.485545
vt 0.562500 0.485545
vt 0.593750 0.485545
vt 0.625000 0.485545
vt 0.656250 0.485545
vt 0.687500 0.485545
vt 0.718750 0.485545
vt 0.750000 0.485545
vt 0.281250 0.461486
vt 0.250000 0.461486
vt 0.312500 0.461486
vt 0.343750 0.461486
vt 0.375000 0.461486
vt 0.406250 0.461486
vt 0.437500 0.461486
vt 0.468750 0.461486
vt 0.500000 0.461486
vt 0.531250 0.461486
vt 0.562500 0.461486
vt 0.593750 0.461486
vt 0.625000 0.461486
vt 0.656250 0.461486
vt 0.687500 0.461486
vt 0.718750 0.461486
vt 0.750000 0.461486
vt 0.281250 0.441316
vt 0.250000 0.441316
vt 0.312500 0.441316
vt 0.343750 0.441316
vt 0.375000 0.441316
vt 0.406250 0.441316
vt 0.437500 0.441316
vt 0.468750 0.441316
vt 0.500000 0.441316
vt 0.531250 0.441316
vt 0.562500 0.441316
vt 0.593750 0.441316
vt 0.625000 0.441316
vt 0.656250 0.441316
vt 0.687500 0.441316
vt 0.718750 0.441316
vt 0.750000 0.441316
vt 0.281250 0.426099
vt 0.250000 0.426099
vt 0.312500 0.426099
vt 0.343750 0.426099
vt 0.375000 0.426099
vt 0.406250 0.426099
vt 0.437500 0.426099
vt 0.468750 0.426099
vt 0.500000 0.426099
vt 0.531250 0.426099
vt 0.562500 0.426099
vt 0.593750 0.426099
vt 0.625000 0.426099
vt 0.656250 0.426099
vt 0.687500 0.426099
vt 0.718750 0.426099
vt 0.750000 0.426099
vt 0.281250 0.416635
vt 0.250000 0.416635
vt 0.312500 0.416635
vt 0.343750 0.416635
vt 0.375000 0.416635
vt 0.406250 0.416635
vt 0.437500 0.416635
vt 0.468750 0.416635
vt 0.500000 0.416635
vt 0.531250 0.416635
vt 0.562500 0.416635
vt 0.593750 0.416635
vt 0.625000 0.416635
vt 0.656250 0.416635
vt 0.687500 0.416635
vt 0.718750 0.416635
vt 0.750000 0.416635
vt 0.265625 0.413424
vt 0.296875 0.413424
vt 0.328125 0.413424
vt 0.359375 0.413424
vt 0.390625 0.413424
vt 0.421875 0.413424
vt 0.453125 0.413424
vt 0.484375 0.413424
vt 0.515625 0.413424
vt 0.546875 0.413424
vt 0.578125 0.413424
vt 0.609375 0.413424
vt 0.640625 0.413424
vt 0.671875 0.413424
vt 0.703125 0.413424
vt 0.734375 0.413424
vn 0.811190 -0.219512 0.542020
vn 0.587938 -0.707107 0.392847
vn 0.693520 -0.707107 0.137950
vn 0.956864 -0.219512 0.190332
vn 0.542020 -0.219512 0.811190
vn 0.392847 -0.707107 0.587938
vn 0.190332 -0.219512 0.956864
vn 0.137950 -0.707107 0.693520
vn -0.190332 -0.219512 0.956864
vn -0.137950 -0.707107 0.693520
vn -0.542020 -0.219512 0.811190
vn -0.392847 -0.707107 0.587938
vn -0.811190 -0.219512 0.542020
vn -0.587938 -0.707107 0.392847
vn -0.956864 -0.219512 0.190332
vn -0.693520 -0.707107 0.137950
vn -0.956864 -0.219512 -0.190332
vn -0.693520 -0.707107 -0.137950
vn -0.811190 -0.219512 -0.542020
vn -0.587938 -0.707107 -0.392847
vn -0.542020 -0.219512 -0.811190
vn -0.392847 -0.707107 -0.587938
vn -0.190332 -0.219512 -0.956864
vn -0.137950 -0.707107 -0.693520
vn 0.190332 -0.219512 -0.956864
vn 0.137950 -0.707107 -0.693520
vn 0.542020 -0.219512 -0.811190
vn 0.392847 -0.707107 -0.587938
vn 0.811190 -0.219512 -0.542020
vn 0.587938 -0.707107 -0.392847
vn 0.956864 -0.219512 -0.190332
vn 0.693520 -0.707107 -0.137950
vn 0.827343 0.099504 0.552813
vn 0.975918 0.099504 0.194122
vn 0.552813 0.099504 0.827343
vn 0.194122 0.099504 0.975918
vn -0.194122 0.099504 0.975918
vn -0.552813 0.099504 0.827343
vn -0.827343 0.099504 0.552813
vn -0.975918 0.099504 0.194122
vn -0.975918 0.099504 -0.194122
vn -0.827343 0.099504 -0.552813
vn -0.552813 0.099504 -0.827343
vn -0.194122 0.099504 -0.975918
vn 0.194122 0.099504 -0.975918
vn 0.552813 0.099504 -0.827343
vn 0.827343 0.099504 -0.552813
vn 0.975918 0.099504 -0.194122
vn 0.552398 0.747409 0.369101
vn 0.651598 0.747409 0.129611
vn 0.369101 0.747409 0.552398
vn 0.129611 0.747409 0.651598
vn -0.129611 0.747409 0.651598
vn -0.369101 0.747409 0.552398
vn -0.552398 0.747409 0.369101
vn -0.651598 0.747409 0.129611
vn -0.651598 0.747409 -0.129611
vn -0.552398 0.747409 -0.369101
vn -0.369101 0.747409 -0.552398
vn -0.129611 0.747409 -0.651598
vn 0.129611 0.747409 -0.651598
vn 0.369101 0.747409 -0.552398
vn 0.552398 0.747409 -0.369101
vn 0.651598 0.747409 -0.129611
vn 0.278052 0.942428 0.185788
vn 0.327984 0.942428 0.065240
vn 0.185788 0.942428 0.278052
vn 0.065240 0.942428 0.327984
vn -0.065240 0.942428 0.327984
vn -0.185788 0.942428 0.278052
vn -0.278052 0.942428 0.185788
vn -0.327984 0.942428 0.065240
vn -0.327984 0.942428 -0.065240
vn -0.278052 0.942428 -0.185788
vn -0.185788 0.942428 -0.278052
vn -0.065240 0.942428 -0.327984
vn 0.065240 0.942428 -0.327984
vn 0.185788 0.942428 -0.278052
vn 0.278052 0.942428 -0.185788
vn 0.327984 0.942428 -0.065240
vn 0.308800 0.928477 0.206334
vn 0.364255 0.928477 0.072455
vn 0.206334 0.928477 0.308800
vn 0.072455 0.928477 0.364255
vn -0.072455 0.928477 0.364255
vn -0.206334 0.928477 0.308800
vn -0.308800 0.928477 0.206334
vn -0.364255 0.928477 0.072455
vn -0.364255 0.928477 -0.072455
vn -0.308800 0.928477 -0.206334
vn -0.206334 0.928477 -0.308800
vn -0.072455 0.928477 -0.364255
vn 0.072455 0.928477 -0.364255
vn 0.206334 0.928477 -0.308800
vn 0.308800 0.928477 -0.206334
vn 0.364255 0.928477 -0.072455
vn 0.685166 0.566529 0.457813
vn 0.808208 0.566529 0.160763
vn 0.457813 0.566529 0.685166
vn 0.160763 0.566529 0.808208
vn -0.160763 0.566529 0.808208
vn -0.457813 0.566529 0.685166
vn -0.685166 0.566529 0.457813
vn -0.808208 0.566529 0.160763
vn -0.808208 0.566529 -0.160763
vn -0.685166 0.566529 -0.457813
vn -0.457813 0.566529 -0.685166
vn -0.160763 0.566529 -0.808208
vn 0.160763 0.566529 -0.808208
vn 0.457813 0.566529 -0.685166
vn 0.685166 0.566529 -0.457813
vn 0.808208 0.566529 -0.160763
vn 0.830035 -0.058722 0.554612
vn 0.979093 -0.058722 0.194754
vn 0.554612 -0.058722 0.830035
vn 0.194754 -0.058722 0.979093
vn -0.194754 -0.058722 0.979093
vn -0.554612 -0.058722 0.830035
vn -0.830035 -0.058722 0.554612
vn -0.979093 -0.058722 0.194754
vn -0.979093 -0.058722 -0.194754
vn -0.830035 -0.058722 -0.554612
vn -0.554612 -0.058722 -0.830035
vn -0.194754 -0.058722 -0.979093
vn 0.194754 -0.058722 -0.979093
vn 0.554612 -0.058722 -0.830035
vn 0.830035 -0.058722 -0.554612
vn 0.979093 -0.058722 -0.194754
vn 0.421572 -0.861934 0.281685
vn 0.497278 -0.861934 0.098915
vn 0.281685 -0.861934 0.421572
vn 0.098915 -0.861934 0.497278
vn -0.098915 -0.861934 0.497278
vn -0.281685 -0.861934 0.421572
vn -0.421572 -0.861934 0.281685
vn -0.497278 -0.861934 0.098915
vn -0.497278 -0.861934 -0.098915
vn -0.421572 -0.861934 -0.281685
vn -0.281685 -0.861934 -0.421572
vn -0.098915 -0.861934 -0.497278
vn 0.098915 -0.861934 -0.497278
vn 0.281685 -0.861934 -0.421572
vn 0.421572 -0.861934 -0.281685
vn 0.497278 -0.861934 -0.098915
vn 0.473281 -0.822192 0.316236
vn 0.558273 -0.822192 0.111047
vn 0.316236 -0.822192 0.473281
vn 0.111047 -0.822192 0.558273
vn -0.111047 -0.822192 0.558273
vn -0.316236 -0.822192 0.473281
vn -0.473281 -0.822192 0.316236
vn -0.558273 -0.822192 0.111047
vn -0.558273 -0.822192 -0.111047
vn -0.473281 -0.822192 -0.316236
vn -0.316236 -0.822192 -0.473281
vn -0.111047 -0.822192 -0.558273
vn 0.111047 -0.822192 -0.558273
vn 0.316236 -0.822192 -0.473281
vn 0.473281 -0.822192 -0.316236
vn 0.558273 -0.822192 -0.111047
vn 0.498882 0.800000 0.333342
vn 0.588471 0.800000 0.117054
vn 0.333342 0.800000 0.498882
vn 0.117054 0.800000 0.588471
vn -0.117054 0.800000 0.588471
vn -0.333342 0.800000 0.498882
vn -0.498882 0.800000 0.333342
vn -0.588471 0.800000 0.117054
vn -0.588471 0.800000 -0.117054
vn -0.498882 0.800000 -0.333342
vn -0.333342 0.800000 -0.498882
vn -0.117054 0.800000 -0.588471
vn 0.117054 0.800000 -0.588471
vn 0.333342 0.800000 -0.498882
vn 0.498882 0.800000 -0.333342
vn 0.588471 0.800000 -0.117054
vn 0.319796 0.923077 0.213681
vn 0.377225 0.923077 0.075035
vn 0.213681 0.923077 0.319796
vn 0.075035 0.923077 0.377225
vn -0.075035 0.923077 0.377225
vn -0.213681 0.923077 0.319796
vn -0.319796 0.923077 0.213681
vn -0.377225 0.923077 0.075035
vn -0.377225 0.923077 -0.075035
vn -0.319796 0.923077 -0.213681
vn -0.213681 0.923077 -0.319796
vn -0.075035 0.923077 -0.377225
vn 0.075035 0.923077 -0.377225
vn 0.213681 0.923077 -0.319796
vn 0.319796 0.923077 -0.213681
vn 0.377225 0.923077 -0.075035
vn 0.461895 -0.831505 0.308629
vn 0.544843 -0.831505 0.108376
vn 0.308629 -0.831505 0.461895
vn 0.108376 -0.831505 0.544843
vn -0.108376 -0.831505 0.544843
vn -0.308629 -0.831505 0.461895
vn -0.461895 -0.831505 0.308629
vn -0.544843 -0.831505 0.108376
vn -0.544843 -0.831505 -0.108376
vn -0.461895 -0.831505 -0.308629
vn -0.308629 -0.831505 -0.461895
vn -0.108376 -0.831505 -0.544843
vn 0.108376 -0.831505 -0.544843
vn 0.308629 -0.831505 -0.461895
vn 0.461895 -0.831505 -0.308629
vn 0.544843 -0.831505 -0.108376
vn 0.477000 -0.819077 0.318721
vn 0.562660 -0.819077 0.111920
vn 0.318721 -0.819077 0.477000
vn 0.111920 -0.819077 0.562660
vn -0.111920 -0.819077 0.562660
vn -0.318721 -0.819077 0.477000
vn -0.477000 -0.819077 0.318721
vn -0.562660 -0.819077 0.111920
vn -0.562660 -0.819077 -0.111920
vn -0.477000 -0.819077 -0.318721
vn -0.318721 -0.819077 -0.477000
vn -0.111920 -0.819077 -0.562660
vn 0.111920 -0.819077 -0.562660
vn 0.318721 -0.819077 -0.477000
vn 0.477000 -0.819077 -0.318721
vn 0.562660 -0.819077 -0.111920
vn 0.619731 -0.666680 0.414091
vn 0.731022 -0.666680 0.145409
vn 0.414091 -0.666680 0.619731
vn 0.145409 -0.666680 0.731022
vn -0.145409 -0.666680 0.731022
vn -0.414091 -0.666680 0.619731
vn -0.619731 -0.666680 0.414091
vn -0.731022 -0.666680 0.145409
vn -0.731022 -0.666680 -0.145409
vn -0.619731 -0.666680 -0.414091
vn -0.414091 -0.666680 -0.619731
vn -0.145409 -0.666680 -0.731022
vn 0.145409 -0.666680 -0.731022
vn 0.414091 -0.666680 -0.619731
vn 0.619731 -0.666680 -0.414091
vn 0.731022 -0.666680 -0.145409
vn 0.729806 -0.479155 0.487641
vn 0.860865 -0.479155 0.171237
vn 0.487641 -0.479155 0.729806
vn 0.171237 -0.479155 0.860865
vn -0.171237 -0.479155 0.860865
vn -0.487641 -0.479155 0.729806
vn -0.729806 -0.479155 0.487641
vn -0.860865 -0.479155 0.171237
vn -0.860865 -0.479155 -0.171237
vn -0.729806 -0.479155 -0.487641
vn -0.487641 -0.479155 -0.729806
vn -0.171237 -0.479155 -0.860865
vn 0.171237 -0.479155 -0.860865
vn 0.487641 -0.479155 -0.729806
vn 0.729806 -0.479155 -0.487641
vn 0.860865 -0.479155 -0.171237
vn 0.801427 -0.266382 0.535496
vn 0.945347 -0.266382 0.188041
vn 0.535496 -0.266382 0.801427
vn 0.188041 -0.266382 0.945347
vn -0.188041 -0.266382 0.945347
vn -0.535496 -0.266382 0.801427
vn -0.801427 -0.266382 0.535496
vn -0.945347 -0.266382 0.188041
vn -0.945347 -0.266382 -0.188041
vn -0.801427 -0.266382 -0.535496
vn -0.535496 -0.266382 -0.801427
vn -0.188041 -0.266382 -0.945347
vn 0.188041 -0.266382 -0.945347
vn 0.535496 -0.266382 -0.801427
vn 0.801427 -0.266382 -0.535496
vn 0.945347 -0.266382 -0.188041
vn 0.830818 -0.039573 0.555135
vn 0.980017 -0.039573 0.194938
vn 0.555135 -0.039573 0.830818
vn 0.194938 -0.039573 0.980017
vn -0.194938 -0.039573 0.980017
vn -0.555135 -0.039573 0.830818
vn -0.830818 -0.039573 0.555135
vn -0.980017 -0.039573 0.194938
vn -0.980017 -0.039573 -0.194938
vn -0.830818 -0.039573 -0.555135
vn -0.555135 -0.039573 -0.830818
vn -0.194938 -0.039573 -0.980017
vn 0.194938 -0.039573 -0.980017
vn 0.555135 -0.039573 -0.830818
vn 0.830818 -0.039573 -0.555135
vn 0.980017 -0.039573 -0.194938
vn 0.816433 0.189321 0.545523
vn 0.963048 0.189321 0.191562
vn 0.545523 0.189321 0.816433
vn 0.191562 0.189321 0.963048
vn -0.191562 0.189321 0.963048
vn -0.545523 0.189321 0.816433
vn -0.816433 0.189321 0.545523
vn -0.963048 0.189321 0.191562
vn -0.963048 0.189321 -0.191562
vn -0.816433 0.189321 -0.545523
vn -0.545523 0.189321 -0.816433
vn -0.191562 0.189321 -0.963048
vn 0.191562 0.189321 -0.963048
vn 0.545523 0.189321 -0.816433
vn 0.816433 0.189321 -0.545523
vn 0.963048 0.189321 -0.191562
vn 0.759028 0.408240 0.507166
vn 0.895334 0.408240 0.178093
vn 0.507166 0.408240 0.759028
vn 0.178093 0.408240 0.895334
vn -0.178093 0.408240 0.895334
vn -0.507166 0.408240 0.759028
vn -0.759028 0.408240 0.507166
vn -0.895334 0.408240 0.178093
vn -0.895334 0.408240 -0.178093
vn -0.759028 0.408240 -0.507166
vn -0.507166 0.408240 -0.759028
vn -0.178093 0.408240 -0.895334
vn 0.178093 0.408240 -0.895334
vn 0.507166 0.408240 -0.759028
vn 0.759028 0.408240 -0.507166
vn 0.895334 0.408240 -0.178093
vn 0.661628 0.605648 0.442086
vn 0.780443 0.605648 0.155240
vn 0.442086 0.605648 0.661628
vn 0.155240 0.605648 0.780443
vn -0.155240 0.605648 0.780443
vn -0.442086 0.605648 0.661628
vn -0.661628 0.605648 0.442086
vn -0.780443 0.605648 0.155240
vn -0.780443 0.605648 -0.155240
vn -0.661628 0.605648 -0.442086
vn -0.442086 0.605648 -0.661628
vn -0.155240 0.605648 -0.780443
vn 0.155240 0.605648 -0.780443
vn 0.442086 0.605648 -0.661628
vn 0.661628 0.605648 -0.442086
vn 0.780443 0.605648 -0.155240
vn 0.529366 0.771142 0.353711
vn 0.624429 0.771142 0.124207
vn 0.353711 0.771142 0.529366
vn 0.124207 0.771142 0.624429
vn -0.124207 0.771142 0.624429
vn -0.353711 0.771142 0.529366
vn -0.529366 0.771142 0.353711
vn -0.624429 0.771142 0.124207
vn -0.624429 0.771142 -0.124207
vn -0.529366 0.771142 -0.353711
vn -0.353711 0.771142 -0.529366
vn -0.124207 0.771142 -0.624429
vn 0.124207 0.771142 -0.624429
vn 0.353711 0.771142 -0.529366
vn 0.529366 0.771142 -0.353711
vn 0.624429 0.771142 -0.124207
vn 0.369210 0.896004 0.246698
vn 0.435513 0.896004 0.086629
vn 0.246698 0.896004 0.369210
vn 0.086629 0.896004 0.435513
vn -0.086629 0.896004 0.435513
vn -0.246698 0.896004 0.369210
vn -0.369210 0.896004 0.246698
vn -0.435513 0.896004 0.086629
vn -0.435513 0.896004 -0.086629
vn -0.369210 0.896004 -0.246698
vn -0.246698 0.896004 -0.369210
vn -0.086629 0.896004 -0.435513
vn 0.086629 0.896004 -0.435513
vn 0.246698 0.896004 -0.369210
vn 0.369210 0.896004 -0.246698
vn 0.435513 0.896004 -0.086629
vn 0.189600 0.973654 0.126687
vn 0.223649 0.973654 0.044487
vn 0.126687 0.973654 0.189600
vn 0.044487 0.973654 0.223649
vn -0.044487 0.973654 0.223649
vn -0.126687 0.973654 0.189600
vn -0.189600 0.973654 0.126687
vn -0.223649 0.973654 0.044487
vn -0.223649 0.973654 -0.044487
vn -0.189600 0.973654 -0.126687
vn -0.126687 0.973654 -0.189600
vn -0.044487 0.973654 -0.223649
vn 0.044487 0.973654 -0.223649
vn 0.126687 0.973654 -0.189600
vn 0.189600 0.973654 -0.126687
vn 0.223649 0.973654 -0.044487
vn 0.112568 0.993392 0.022391
vn 0.095431 0.993392 0.063765
vn 0.063765 0.993392 0.095431
vn 0.022391 0.993392 0.112568
vn -0.022391 0.993392 0.112568
vn -0.063765 0.993392 0.095431
vn -0.095431 0.993392 0.063765
vn -0.112568 0.993392 0.022391
vn -0.112568 0.993392 -0.022391
vn -0.095431 0.993392 -0.063765
vn -0.063765 0.993392 -0.095431
vn -0.022391 0.993392 -0.112568
vn 0.022391 0.993392 -0.112568
vn 0.063765 0.993392 -0.095431
vn 0.095431 0.993392 -0.063765
vn 0.112568 0.993392 -0.022391
usemtl body
f 1/1/1 2/2/2 3/3/3
f 4/4/4 1/1/1 3/3/3
f 5/5/5 6/6/6 2/2/2
f 1/1/1 5/5/5 2/2/2
f 7/7/7 8/8/8 6/6/6
f 5/5/5 7/7/7 6/6/6
f 9/9/9 10/10/10 8/8/8
f 7/7/7 9/9/9 8/8/8
f 11/11/11 12/12/12 10/10/10
f 9/9/9 11/11/11 10/10/10
f 13/13/13 14/14/14 12/12/12
f 11/11/11 13/13/13 12/12/12
f 15/15/15 16/16/16 14/14/14
f 13/13/13 15/15/15 14/14/14
f 17/17/17 18/18/18 16/16/16
f 15/15/15 17/17/17 16/16/16
f 19/19/19 20/20/20 18/18/18
f 17/17/17 19/19/19 18/18/18
f 21/21/21 22/22/22 20/20/20
f 19/19/19 21/21/21 20/20/20
f 23/23/23 24/24/24 22/22/22
f 21/21/21 23/23/23 22/22/22
f 25/25/25 26/26/26 24/24/24
f 23/23/23 25/25/25 24/24/24
f 27/27/27 28/28/28 26/26/26
f 25/25/25 27/27/27 26/26/26
f 29/29/29 30/30/30 28/28/28
f 27/27/27 29/29/29 28/28/28
f 31/31/31 32/32/32 30/30/30
f 29/29/29 31/31/31 30/30/30
f 4/33/4 3/34/3 32/32/32
f 31/31/31 4/33/4 32/32/32
f 33/35/33 1/1/1 4/4/4
f 34/36/34 33/35/33 4/4/4
f 35/37/35 5/5/5 1/1/1
f 33/35/33 35/37/35 1/1/1
f 36/38/36 7/7/7 5/5/5
f 35/37/35 36/38/36 5/5/5
f 37/39/37 9/9/9 7/7/7
f 36/38/36 37/39/37 7/7/7
f 38/40/38 11/11/11 9/9/9
f 37/39/37 38/40/38 9/9/9
f 39/41/39 13/13/13 11/11/11
f 38/40/38 39/41/39 11/11/11
f 40/42/40 15/15/15 13/13/13
f 39/41/39 40/42/40 13/13/13
f 41/43/41 17/17/17 15/15/15
f 40/42/40 41/43/41 15/15/15
f 42/44/42 19/19/19 17/17/17
f 41/43/41 42/44/42 17/17/17
f 43/45/43 21/21/21 19/19/19
f 42/44/42 43/45/43 19/19/19
f 44/46/44 23/23/23 21/21/21
f 43/45/43 44/46/44 21/21/21
f 45/47/45 25/25/25 23/23/23
f 44/46/44 45/47/45 23/23/23
f 46/48/46 27/27/27 25/25/25
f 45/47/45 46/48/46 25/25/25
f 47/49/47 29/29/29 27/27/27
f 46/48/46 47/49/47 27/27/27
f 48/50/48 31/31/31 29/29/29
f 47/49/47 48/50/48 29/29/29
f 34/51/34 4/33/4 31/31/31
f 48/50/48 34/51/34 31/31/31
f 49/52/49 33/35/33 34/36/34
f 50/53/50 49/52/49 34/36/34
f 51/54/51 35/37/35 33/35/33
f 49/52/49 51/54/51 33/35/33
f 52/55/52 36/38/36 35/37/35
f 51/54/51 52/55/52 35/37/35
f 53/56/53 37/39/37 36/38/36
f 52/55/52 53/56/53 36/38/36
f 54/57/54 38/40/38 37/39/37
f 53/56/53 54/57/54 37/39/37
f 55/58/55 39/41/39 38/40/38
f 54/57/54 55/58/55 38/40/38
f 56/59/56 40/42/40 39/41/39
f 55/58/55 56/59/56 39/41/39
f 57/60/57 41/43/41 40/42/40
f 56/59/56 57/60/57 40/42/40
f 58/61/58 42/44/42 41/43/41
f 57/60/57 58/61/58 41/43/41
f 59/62/59 43/45/43 42/44/42
f 58/61/58 59/62/59 42/44/42
f 60/63/60 44/46/44 43/45/43
f 59/62/59 60/63/60 43/45/43
f 61/64/61 45/47/45 44/46/44
f 60/63/60 61/64/61 44/46/44
f 62/65/62 46/48/46 45/47/45
f 61/64/61 62/65/62 45/47/45
f 63/66/63 47/49/47 46/48/46
f 62/65/62 63/66/63 46/48/46
f 64/67/64 48/50/48 47/49/47
f 63/66/63 64/67/64 47/49/47
f 50/68/50 34/51/34 48/50/48
f 64/67/64 50/68/50 48/50/48
f 65/69/65 49/52/49 50/53/50
f 66/70/66 65/69/65 50/53/50
f 67/71/67 51/54/51 49/52/49
f 65/69/65 67/71/67 49/52/49
f 68/72/68 52/55/52 51/54/51
f 67/71/67 68/72/68 51/54/51
f 69/73/69 53/56/53 52/55/52
f 68/72/68 69/73/69 52/55/52
f 70/74/70 54/57/54 53/56/53
f 69/73/69 70/74/70 53/56/53
f 71/75/71 55/58/55 54/57/54
f 70/74/70 71/75/71 54/57/54
f 72/76/72 56/59/56 55/58/55
f 71/75/71 72/76/72 55/58/55
f 73/77/73 57/60/57 56/59/56
f 72/76/72 73/77/73 56/59/56
f 74/78/74 58/61/58 57/60/57
f 73/77/73 74/78/74 57/60/57
f 75/79/75 59/62/59 58/61/58
f 74/78/74 75/79/75 58/61/58
f 76/80/76 60/63/60 59/62/59
f 75/79/75 76/80/76 59/62/59
f 77/81/77 61/64/61 60/63/60
f 76/80/76 77/81/77 60/63/60
f 78/82/78 62/65/62 61/64/61
f 77/81/77 78/82/78 61/64/61
f 79/83/79 63/66/63 62/65/62
f 78/82/78 79/83/79 62/65/62
f 80/84/80 64/67/64 63/66/63
f 79/83/79 80/84/80 63/66/63
f 66/85/66 50/68/50 64/67/64
f 80/84/80 66/85/66 64/67/64
f 81/86/81 65/69/65 66/70/66
f 82/87/82 81/86/81 66/70/66
f 83/88/83 67/71/67 65/69/65
f 81/86/81 83/88/83 65/69/65
f 84/89/84 68/72/68 67/71/67
f 83/88/83 84/89/84 67/71/67
f 85/90/85 69/73/69 68/72/68
f 84/89/84 85/90/85 68/72/68
f 86/91/86 70/74/70 69/73/69
f 85/90/85 86/91/86 69/73/69
f 87/92/87 71/75/71 70/74/70
f 86/91/86 87/92/87 70/74/70
f 88/93/88 72/76/72 71/75/71
f 87/92/87 88/93/88 71/75/71
f 89/94/89 73/77/73 72/76/72
f 88/93/88 89/94/89 72/76/72
f 90/95/90 74/78/74 73/77/73
f 89/94/89 90/95/90 73/77/73
f 91/96/91 75/79/75 74/78/74
f 90/95/90 91/96/91 74/78/74
f 92/97/92 76/80/76 75/79/75
f 91/96/91 92/97/92 75/79/75
f 93/98/93 77/81/77 76/80/76
f 92/97/92 93/98/93 76/80/76
f 94/99/94 78/82/78 77/81/77
f 93/98/93 94/99/94 77/81/77
f 95/100/95 79/83/79 78/82/78
f 94/99/94 95/100/95 78/82/78
f 96/101/96 80/84/80 79/83/79
f 95/100/95 96/101/96 79/83/79
f 82/102/82 66/85/66 80/84/80
f 96/101/96 82/102/82 80/84/80
f 97/103/97 81/86/81 82/87/82
f 98/104/98 97/103/97 82/87/82
f 99/105/99 83/88/83 81/86/81
f 97/103/97 99/105/99 81/86/81
f 100/106/100 84/89/84 83/88/83
f 99/105/99 100/106/100 83/88/83
f 101/107/101 85/90/85 84/89/84
f 100/106/100 101/107/101 84/89/84
f 102/108/102 86/91/86 85/90/85
f 101/107/101 102/108/102 85/90/85
f 103/109/103 87/92/87 86/91/86
f 102/108/102 103/109/103 86/91/86
f 104/110/104 88/93/88 87/92/87
f 103/109/103 104/110/104 87/92/87
f 105/111/105 89/94/89 88/93/88
f 104/110/104 105/111/105 88/93/88
f 106/112/106 90/95/90 89/94/89
f 105/111/105 106/112/106 89/94/89
f 107/113/107 91/96/91 90/95/90
f 106/112/106 107/113/107 90/95/90
f 108/114/108 92/97/92 91/96/91
f 107/113/107 108/114/108 91/96/91
f 109/115/109 93/98/93 92/97/92
f 108/114/108 109/115/109 92/97/92
f 110/116/110 94/99/94 93/98/93
f 109/115/109 110/116/110 93/98/93
f 111/117/111 95/100/95 94/99/94
f 110/116/110 111/117/111 94/99/94
f 112/118/112 96/101/96 95/100/95
f 111/117/111 112/118/112 95/100/95
f 98/119/98 82/102/82 96/101/96
f 112/118/112 98/119/98 96/101/96
f 113/120/113 97/103/97 98/104/98
f 114/121/114 113/120/113 98/104/98
f 115/122/115 99/105/99 97/103/97
f 113/120/113 115/122/115 97/103/97
f 116/123/116 100/106/100 99/105/99
f 115/122/115 116/123/116 99/105/99
f 117/124/117 101/107/101 100/106/100
f 116/123/116 117/124/117 100/106/100
f 118/125/118 102/108/102 101/107/101
f 117/124/117 118/125/118 101/107/101
f 119/126/119 103/109/103 102/108/102
f 118/125/118 119/126/119 102/108/102
f 120/127/120 104/110/104 103/109/103
f 119/126/119 120/127/120 103/109/103
f 121/128/121 105/111/105 104/110/104
f 120/127/120 121/128/121 104/110/104
f 122/129/122 106/112/106 105/111/105
f 121/128/121 122/129/122 105/111/105
f 123/130/123 107/113/107 106/112/106
f 122/129/122 123/130/123 106/112/106
f 124/131/124 108/114/108 107/113/107
f 123/130/123 124/131/124 107/113/107
f 125/132/125 109/115/109 108/114/108
f 124/131/124 125/132/125 108/114/108
f 126/133/126 110/116/110 109/115/109
f 125/132/125 126/133/126 109/115/109
f 127/134/127 111/117/111 110/116/110
f 126/133/126 127/134/127 110/116/110
f 128/135/128 112/118/112 111/117/111
f 127/134/127 128/135/128 111/117/111
f 114/136/114 98/119/98 112/118/112
f 128/135/128 114/136/114 112/118/112
f 129/137/129 113/120/113 114/121/114
f 130/138/130 129/137/129 114/121/114
f 131/139/131 115/122/115 113/120/113
f 129/137/129 131/139/131 113/120/113
f 132/140/132 116/123/116 115/122/115
f 131/139/131 132/140/132 115/122/115
f 133/141/133 117/124/117 116/123/116
f 132/140/132 133/141/133 116/123/116
f 134/142/134 118/125/118 117/124/117
f 133/141/133 134/142/134 117/124/117
f 135/143/135 119/126/119 118/125/118
f 134/142/134 135/143/135 118/125/118
f 136/144/136 120/127/120 119/126/119
f 135/143/135 136/144/136 119/126/119
f 137/145/137 121/128/121 120/127/120
f 136/144/136 137/145/137 120/127/120
f 138/146/138 122/129/122 121/128/121
f 137/145/137 138/146/138 121/128/121
f 139/147/139 123/130/123 122/129/122
f 138/146/138 139/147/139 122/129/122
f 140/148/140 124/131/124 123/130/123
f 139/147/139 140/148/140 123/130/123
f 141/149/141 125/132/125 124/131/124
f 140/148/140 141/149/141 124/131/124
f 142/150/142 126/133/126 125/132/125
f 141/149/141 142/150/142 125/132/125
f 143/151/143 127/134/127 126/133/126
f 142/150/142 143/151/143 126/133/126
f 144/152/144 128/135/128 127/134/127
f 143/151/143 144/152/144 127/134/127
f 130/153/130 114/136/114 128/135/128
f 144/152/144 130/153/130 128/135/128
f 145/154/145 129/137/129 130/138/130
f 146/155/146 145/154/145 130/138/130
f 147/156/147 131/139/131 129/137/129
f 145/154/145 147/156/147 129/137/129
f 148/157/148 132/140/132 131/139/131
f 147/156/147 148/157/148 131/139/131
f 149/158/149 133/141/133 132/140/132
f 148/157/148 149/158/149 132/140/132
f 150/159/150 134/142/134 133/141/133
f 149/158/149 150/159/150 133/141/133
f 151/160/151 135/143/135 134/142/134
f 150/159/150 151/160/151 134/142/134
f 152/161/152 136/144/136 135/143/135
f 151/160/151 152/161/152 135/143/135
f 153/162/153 137/145/137 136/144/136
f 152/161/152 153/162/153 136/144/136
f 154/163/154 138/146/138 137/145/137
f 153/162/153 154/163/154 137/145/137
f 155/164/155 139/147/139 138/146/138
f 154/163/154 155/164/155 138/146/138
f 156/165/156 140/148/140 139/147/139
f 155/164/155 156/165/156 139/147/139
f 157/166/157 141/149/141 140/148/140
f 156/165/156 157/166/157 140/148/140
f 158/167/158 142/150/142 141/149/141
f 157/166/157 158/167/158 141/149/141
f 159/168/159 143/151/143 142/150/142
f 158/167/158 159/168/159 142/150/142
f 160/169/160 144/152/144 143/151/143
f 159/168/159 160/169/160 143/151/143
f 146/170/146 130/153/130 144/152/144
f 160/169/160 146/170/146 144/152/144
f 161/171/161 145/154/145 146/155/146
f 162/172/162 161/171/161 146/155/146
f 163/173/163 147/156/147 145/154/145
f 161/171/161 163/173/163 145/154/145
f 164/174/164 148/157/148 147/156/147
f 163/173/163 164/174/164 147/156/147
f 165/175/165 149/158/149 148/157/148
f 164/174/164 165/175/165 148/157/148
f 166/176/166 150/159/150 149/158/149
f 165/175/165 166/176/166 149/158/149
f 167/177/167 151/160/151 150/159/150
f 166/176/166 167/177/167 150/159/150
f 168/178/168 152/161/152 151/160/151
f 167/177/167 168/178/168 151/160/151
f 169/179/169 153/162/153 152/161/152
f 168/178/168 169/179/169 152/161/152
f 170/180/170 154/163/154 153/162/153
f 169/179/169 170/180/170 153/162/153
f 171/181/171 155/164/155 154/163/154
f 170/180/170 171/181/171 154/163/154
f 172/182/172 156/165/156 155/164/155
f 171/181/171 172/182/172 155/164/155
f 173/183/173 157/166/157 156/165/156
f 172/182/172 173/183/173 156/165/156
f 174/184/174 158/167/158 157/166/157
f 173/183/173 174/184/174 157/166/157
f 175/185/175 159/168/159 158/167/158
f 174/184/174 175/185/175 158/167/158
f 176/186/176 160/169/160 159/168/159
f 175/185/175 176/186/176 159/168/159
f 162/187/162 146/170/146 160/169/160
f 176/186/176 162/187/162 160/169/160
f 177/188/177 161/171/161 162/172/162
f 178/189/178 177/188/177 162/172/162
f 179/190/179 163/173/163 161/171/161
f 177/188/177 179/190/179 161/171/161
f 180/191/180 164/174/164 163/173/163
f 179/190/179 180/191/180 163/173/163
f 181/192/181 165/175/165 164/174/164
f 180/191/180 181/192/181 164/174/164
f 182/193/182 166/176/166 165/175/165
f 181/192/181 182/193/182 165/175/165
f 183/194/183 167/177/167 166/176/166
f 182/193/182 183/194/183 166/176/166
f 184/195/184 168/178/168 167/177/167
f 183/194/183 184/195/184 167/177/167
f 185/196/185 169/179/169 168/178/168
f 184/195/184 185/196/185 168/178/168
f 186/197/186 170/180/170 169/179/169
f 185/196/185 186/197/186 169/179/169
f 187/198/187 171/181/171 170/180/170
f 186/197/186 187/198/187 170/180/170
f 188/199/188 172/182/172 171/181/171
f 187/198/187 188/199/188 171/181/171
f 189/200/189 173/183/173 172/182/172
f 188/199/188 189/200/189 172/182/172
f 190/201/190 174/184/174 173/183/173
f 189/200/189 190/201/190 173/183/173
f 191/202/191 175/185/175 174/184/174
f 190/201/190 191/202/191 174/184/174
f 192/203/192 176/186/176 175/185/175
f 191/202/191 192/203/192 175/185/175
f 178/204/178 162/187/162 176/186/176
f 192/203/192 178/204/178 176/186/176
f 193/205/193 177/188/177 178/189/178
f 194/206/194 193/205/193 178/189/178
f 195/207/195 179/190/179 177/188/177
f 193/205/193 195/207/195 177/188/177
f 196/208/196 180/191/180 179/190/179
f 195/207/195 196/208/196 179/190/179
f 197/209/197 181/192/181 180/191/180
f 196/208/196 197/209/197 180/191/180
f 198/210/198 182/193/182 181/192/181
f 197/209/197 198/210/198 181/192/181
f 199/211/199 183/194/183 182/193/182
f 198/210/198 199/211/199 182/193/182
f 200/212/200 184/195/184 183/194/183
f 199/211/199 200/212/200 183/194/183
f 201/213/201 185/196/185 184/195/184
f 200/212/200 201/213/201 184/195/184
f 202/214/202 186/197/186 185/196/185
f 201/213/201 202/214/202 185/196/185
f 203/215/203 187/198/187 186/197/186
f 202/214/202 203/215/203 186/197/186
f 204/216/204 188/199/188 187/198/187
f 203/215/203 204/216/204 187/198/187
f 205/217/205 189/200/189 188/199/188
f 204/216/204 205/217/205 188/199/188
f 206/218/206 190/201/190 189/200/189
f 205/217/205 206/218/206 189/200/189
f 207/219/207 191/202/191 190/201/190
f 206/218/206 207/219/207 190/201/190
f 208/220/208 192/203/192 191/202/191
f 207/219/207 208/220/208 191/202/191
f 194/221/194 178/204/178 192/203/192
f 208/220/208 194/221/194 192/203/192
f 209/222/209 193/205/193 194/206/194
f 210/223/210 209/222/209 194/206/194
f 211/224/211 195/207/195 193/205/193
f 209/222/209 211/224/211 193/205/193
f 212/225/212 196/208/196 195/207/195
f 211/224/211 212/225/212 195/207/195
f 213/226/213 197/209/197 196/208/196
f 212/225/212 213/226/213 196/208/196
f 214/227/214 198/210/198 197/209/197
f 213/226/213 214/227/214 197/209/197
f 215/228/215 199/211/199 198/210/198
f 214/227/214 215/228/215 198/210/198
f 216/229/216 200/212/200 199/211/199
f 215/228/215 216/229/216 199/211/199
f 217/230/217 201/213/201 200/212/200
f 216/229/216 217/230/217 200/212/200
f 218/231/218 202/214/202 201/213/201
f 217/230/217 218/231/218 201/213/201
f 219/232/219 203/215/203 202/214/202
f 218/231/218 219/232/219 202/214/202
f 220/233/220 204/216/204 203/215/203
f 219/232/219 220/233/220 203/215/203
f 221/234/221 205/217/205 204/216/204
f 220/233/220 221/234/221 204/216/204
f 222/235/222 206/218/206 205/217/205
f 221/234/221 222/235/222 205/217/205
f 223/236/223 207/219/207 206/218/206
f 222/235/222 223/236/223 206/218/206
f 224/237/224 208/220/208 207/219/207
f 223/236/223 224/237/224 207/219/207
f 210/238/210 194/221/194 208/220/208
f 224/237/224 210/238/210 208/220/208
f 225/239/225 209/222/209 210/223/210
f 226/240/226 225/239/225 210/223/210
f 227/241/227 211/224/211 209/222/209
f 225/239/225 227/241/227 209/222/209
f 228/242/228 212/225/212 211/224/211
f 227/241/227 228/242/228 211/224/211
f 229/243/229 213/226/213 212/225/212
f 228/242/228 229/243/229 212/225/212
f 230/244/230 214/227/214 213/226/213
f 229/243/229 230/244/230 213/226/213
f 231/245/231 215/228/215 214/227/214
f 230/244/230 231/245/231 214/227/214
f 232/246/232 216/229/216 215/228/215
f 231/245/231 232/246/232 215/228/215
f 233/247/233 217/230/217 216/229/216
f 232/246/232 233/247/233 216/229/216
f 234/248/234 218/231/218 217/230/217
f 233/247/233 234/248/234 217/230/217
f 235/249/235 219/232/219 218/231/218
f 234/248/234 235/249/235 218/231/218
f 236/250/236 220/233/220 219/232/219
f 235/249/235 236/250/236 219/232/219
f 237/251/237 221/234/221 220/233/220
f 236/250/236 237/251/237 220/233/220
f 238/252/238 222/235/222 221/234/221
f 237/251/237 238/252/238 221/234/221
f 239/253/239 223/236/223 222/235/222
f 238/252/238 239/253/239 222/235/222
f 240/254/240 224/237/224 223/236/223
f 239/253/239 240/254/240 223/236/223
f 226/255/226 210/238/210 224/237/224
f 240/254/240 226/255/226 224/237/224
f 241/256/241 225/239/225 226/240/226
f 242/257/242 241/256/241 226/240/226
f 243/258/243 227/241/227 225/239/225
f 241/256/241 243/258/243 225/239/225
f 244/259/244 228/242/228 227/241/227
f 243/258/243 244/259/244 227/241/227
f 245/260/245 229/243/229 228/242/228
f 244/259/244 245/260/245 228/242/228
f 246/261/246 230/244/230 229/243/229
f 245/260/245 246/261/246 229/243/229
f 247/262/247 231/245/231 230/244/230
f 246/261/246 247/262/247 230/244/230
f 248/263/248 232/246/232 231/245/231
f 247/262/247 248/263/248 231/245/231
f 249/264/249 233/247/233 232/246/232
f 248/263/248 249/264/249 232/246/232
f 250/265/250 234/248/234 233/247/233
f 249/264/249 250/265/250 233/247/233
f 251/266/251 235/249/235 234/248/234
f 250/265/250 251/266/251 234/248/234
f 252/267/252 236/250/236 235/249/235
f 251/266/251 252/267/252 235/249/235
f 253/268/253 237/251/237 236/250/236
f 252/267/252 253/268/253 236/250/236
f 254/269/254 238/252/238 237/251/237
f 253/268/253 254/269/254 237/251/237
f 255/270/255 239/253/239 238/252/238
f 254/269/254 255/270/255 238/252/238
f 256/271/256 240/254/240 239/253/239
f 255/270/255 256/271/256 239/253/239
f 242/272/242 226/255/226 240/254/240
f 256/271/256 242/272/242 240/254/240
f 257/273/257 241/256/241 242/257/242
f 258/274/258 257/273/257 242/257/242
f 259/275/259 243/258/243 241/256/241
f 257/273/257 259/275/259 241/256/241
f 260/276/260 244/259/244 243/258/243
f 259/275/259 260/276/260 243/258/243
f 261/277/261 245/260/245 244/259/244
f 260/276/260 261/277/261 244/259/244
f 262/278/262 246/261/246 245/260/245
f 261/277/261 262/278/262 245/260/245
f 263/279/263 247/262/247 246/261/246
f 262/278/262 263/279/263 246/261/246
f 264/280/264 248/263/248 247/262/247
f 263/279/263 264/280/264 247/262/247
f 265/281/265 249/264/249 248/263/248
f 264/280/264 265/281/265 248/263/248
f 266/282/266 250/265/250 249/264/249
f 265/281/265 266/282/266 249/264/249
f 267/283/267 251/266/251 250/265/250
f 266/282/266 267/283/267 250/265/250
f 268/284/268 252/267/252 251/266/251
f 267/283/267 268/284/268 251/266/251
f 269/285/269 253/268/253 252/267/252
f 268/284/268 269/285/269 252/267/252
f 270/286/270 254/269/254 253/268/253
f 269/285/269 270/286/270 253/268/253
f 271/287/271 255/270/255 254/269/254
f 270/286/270 271/287/271 254/269/254
f 272/288/272 256/271/256 255/270/255
f 271/287/271 272/288/272 255/270/255
f 258/289/258 242/272/242 256/271/256
f 272/288/272 258/289/258 256/271/256
f 273/290/273 257/273/257 258/274/258
f 274/291/274 273/290/273 258/274/258
f 275/292/275 259/275/259 257/273/257
f 273/290/273 275/292/275 257/273/257
f 276/293/276 260/276/260 259/275/259
f 275/292/275 276/293/276 259/275/259
f 277/294/277 261/277/261 260/276/260
f 276/293/276 277/294/277 260/276/260
f 278/295/278 262/278/262 261/277/261
f 277/294/277 278/295/278 261/277/261
f 279/296/279 263/279/263 262/278/262
f 278/295/278 279/296/279 262/278/262
f 280/297/280 264/280/264 263/279/263
f 279/296/279 280/297/280 263/279/263
f 281/298/281 265/281/265 264/280/264
f 280/297/280 281/298/281 264/280/264
f 282/299/282 266/282/266 265/281/265
f 281/298/281 282/299/282 265/281/265
f 283/300/283 267/283/267 266/282/266
f 282/299/282 283/300/283 266/282/266
f 284/301/284 268/284/268 267/283/267
f 283/300/283 284/301/284 267/283/267
f 285/302/285 269/285/269 268/284/268
f 284/301/284 285/302/285 268/284/268
f 286/303/286 270/286/270 269/285/269
f 285/302/285 286/303/286 269/285/269
f 287/304/287 271/287/271 270/286/270
f 286/303/286 287/304/287 270/286/270
f 288/305/288 272/288/272 271/287/271
f 287/304/287 288/305/288 271/287/271
f 274/306/274 258/289/258 272/288/272
f 288/305/288 274/306/274 272/288/272
f 289/307/289 273/290/273 274/291/274
f 290/308/290 289/307/289 274/291/274
f 291/309/291 275/292/275 273/290/273
f 289/307/289 291/309/291 273/290/273
f 292/310/292 276/293/276 275/292/275
f 291/309/291 292/310/292 275/292/275
f 293/311/293 277/294/277 276/293/276
f 292/310/292 293/311/293 276/293/276
f 294/312/294 278/295/278 277/294/277
f 293/311/293 294/312/294 277/294/277
f 295/313/295 279/296/279 278/295/278
f 294/312/294 295/313/295 278/295/278
f 296/314/296 280/297/280 279/296/279
f 295/313/295 296/314/296 279/296/279
f 297/315/297 281/298/281 280/297/280
f 296/314/296 297/315/297 280/297/280
f 298/316/298 282/299/282 281/298/281
f 297/315/297 298/316/298 281/298/281
f 299/317/299 283/300/283 282/299/282
f 298/316/298 299/317/299 282/299/282
f 300/318/300 284/301/284 283/300/283
f 299/317/299 300/318/300 283/300/283
f 301/319/301 285/302/285 284/301/284
f 300/318/300 301/319/301 284/301/284
f 302/320/302 286/303/286 285/302/285
f 301/319/301 302/320/302 285/302/285
f 303/321/303 287/304/287 286/303/286
f 302/320/302 303/321/303 286/303/286
f 304/322/304 288/305/288 287/304/287
f 303/321/303 304/322/304 287/304/287
f 290/323/290 274/306/274 288/305/288
f 304/322/304 290/323/290 288/305/288
f 305/324/305 289/307/289 290/308/290
f 306/325/306 305/324/305 290/308/290
f 307/326/307 291/309/291 289/307/289
f 305/324/305 307/326/307 289/307/289
f 308/327/308 292/310/292 291/309/291
f 307/326/307 308/327/308 291/309/291
f 309/328/309 293/311/293 292/310/292
f 308/327/308 309/328/309 292/310/292
f 310/329/310 294/312/294 293/311/293
f 309/328/309 310/329/310 293/311/293
f 311/330/311 295/313/295 294/312/294
f 310/329/310 311/330/311 294/312/294
f 312/331/312 296/314/296 295/313/295
f 311/330/311 312/331/312 295/313/295
f 313/332/313 297/315/297 296/314/296
f 312/331/312 313/332/313 296/314/296
f 314/333/314 298/316/298 297/315/297
f 313/332/313 314/333/314 297/315/297
f 315/334/315 299/317/299 298/316/298
f 314/333/314 315/334/315 298/316/298
f 316/335/316 300/318/300 299/317/299
f 315/334/315 316/335/316 299/317/299
f 317/336/317 301/319/301 300/318/300
f 316/335/316 317/336/317 300/318/300
f 318/337/318 302/320/302 301/319/301
f 317/336/317 318/337/318 301/319/301
f 319/338/319 303/321/303 302/320/302
f 318/337/318 319/338/319 302/320/302
f 320/339/320 304/322/304 303/321/303
f 319/338/319 320/339/320 303/321/303
f 306/340/306 290/323/290 304/322/304
f 320/339/320 306/340/306 304/322/304
f 321/341/321 305/324/305 306/325/306
f 322/342/322 321/341/321 306/325/306
f 323/343/323 307/326/307 305/324/305
f 321/341/321 323/343/323 305/324/305
f 324/344/324 308/327/308 307/326/307
f 323/343/323 324/344/324 307/326/307
f 325/345/325 309/328/309 308/327/308
f 324/344/324 325/345/325 308/327/308
f 326/346/326 310/329/310 309/328/309
f 325/345/325 326/346/326 309/328/309
f 327/347/327 311/330/311 310/329/310
f 326/346/326 327/347/327 310/329/310
f 328/348/328 312/331/312 311/330/311
f 327/347/327 328/348/328 311/330/311
f 329/349/329 313/332/313 312/331/312
f 328/348/328 329/349/329 312/331/312
f 330/350/330 314/333/314 313/332/313
f 329/349/329 330/350/330 313/332/313
f 331/351/331 315/334/315 314/333/314
f 330/350/330 331/351/331 314/333/314
f 332/352/332 316/335/316 315/334/315
f 331/351/331 332/352/332 315/334/315
f 333/353/333 317/336/317 316/335/316
f 332/352/332 333/353/333 316/335/316
f 334/354/334 318/337/318 317/336/317
f 333/353/333 334/354/334 317/336/317
f 335/355/335 319/338/319 318/337/318
f 334/354/334 335/355/335 318/337/318
f 336/356/336 320/339/320 319/338/319
f 335/355/335 336/356/336 319/338/319
f 322/357/322 306/340/306 320/339/320
f 336/356/336 322/357/322 320/339/320
f 337/358/337 321/341/321 322/342/322
f 338/359/338 337/358/337 322/342/322
f 339/360/339 323/343/323 321/341/321
f 337/358/337 339/360/339 321/341/321
f 340/361/340 324/344/324 323/343/323
f 339/360/339 340/361/340 323/343/323
f 341/362/341 325/345/325 324/344/324
f 340/361/340 341/362/341 324/344/324
f 342/363/342 326/346/326 325/345/325
f 341/362/341 342/363/342 325/345/325
f 343/364/343 327/347/327 326/346/326
f 342/363/342 343/364/343 326/346/326
f 344/365/344 328/348/328 327/347/327
f 343/364/343 344/365/344 327/347/327
f 345/366/345 329/349/329 328/348/328
f 344/365/344 345/366/345 328/348/328
f 346/367/346 330/350/330 329/349/329
f 345/366/345 346/367/346 329/349/329
f 347/368/347 331/351/331 330/350/330
f 346/367/346 347/368/347 330/350/330
f 348/369/348 332/352/332 331/351/331
f 347/368/347 348/369/348 331/351/331
f 349/370/349 333/353/333 332/352/332
f 348/369/348 349/370/349 332/352/332
f 350/371/350 334/354/334 333/353/333
f 349/370/349 350/371/350 333/353/333
f 351/372/351 335/355/335 334/354/334
f 350/371/350 351/372/351 334/354/334
f 352/373/352 336/356/336 335/355/335
f 351/372/351 352/373/352 335/355/335
f 338/374/338 322/357/322 336/356/336
f 352/373/352 338/374/338 336/356/336
f 353/375/353 337/358/337 338/359/338
f 354/376/354 353/375/353 338/359/338
f 355/377/355 339/360/339 337/358/337
f 353/375/353 355/377/355 337/358/337
f 356/378/356 340/361/340 339/360/339
f 355/377/355 356/378/356 339/360/339
f 357/379/357 341/362/341 340/361/340
f 356/378/356 357/379/357 340/361/340
f 358/380/358 342/363/342 341/362/341
f 357/379/357 358/380/358 341/362/341
f 359/381/359 343/364/343 342/363/342
f 358/380/358 359/381/359 342/363/342
f 360/382/360 344/365/344 343/364/343
f 359/381/359 360/382/360 343/364/343
f 361/383/361 345/366/345 344/365/344
f 360/382/360 361/383/361 344/365/344
f 362/384/362 346/367/346 345/366/345
f 361/383/361 362/384/362 345/366/345
f 363/385/363 347/368/347 346/367/346
f 362/384/362 363/385/363 346/367/346
f 364/386/364 348/369/348 347/368/347
f 363/385/363 364/386/364 347/368/347
f 365/387/365 349/370/349 348/369/348
f 364/386/364 365/387/365 348/369/348
f 366/388/366 350/371/350 349/370/349
f 365/387/365 366/388/366 349/370/349
f 367/389/367 351/372/351 350/371/350
f 366/388/366 367/389/367 350/371/350
f 368/390/368 352/373/352 351/372/351
f 367/389/367 368/390/368 351/372/351
f 354/391/354 338/374/338 352/373/352
f 368/390/368 354/391/354 352/373/352
f 369/392/369 353/375/353 354/376/354
f 370/393/370 369/392/369 354/376/354
f 371/394/371 355/377/355 353/375/353
f 369/392/369 371/394/371 353/375/353
f 372/395/372 356/378/356 355/377/355
f 371/394/371 372/395/372 355/377/355
f 373/396/373 357/379/357 356/378/356
f 372/395/372 373/396/373 356/378/356
f 374/397/374 358/380/358 357/379/357
f 373/396/373 374/397/374 357/379/357
f 375/398/375 359/381/359 358/380/358
f 374/397/374 375/398/375 358/380/358
f 376/399/376 360/382/360 359/381/359
f 375/398/375 376/399/376 359/381/359
f 377/400/377 361/383/361 360/382/360
f 376/399/376 377/400/377 360/382/360
f 378/401/378 362/384/362 361/383/361
f 377/400/377 378/401/378 361/383/361
f 379/402/379 363/385/363 362/384/362
f 378/401/378 379/402/379 362/384/362
f 380/403/380 364/386/364 363/385/363
f 379/402/379 380/403/380 363/385/363
f 381/404/381 365/387/365 364/386/364
f 380/403/380 381/404/381 364/386/364
f 382/405/382 366/388/366 365/387/365
f 381/404/381 382/405/382 365/387/365
f 383/406/383 367/389/367 366/388/366
f 382/405/382 383/406/383 366/388/366
f 384/407/384 368/390/368 367/389/367
f 383/406/383 384/407/384 367/389/367
f 370/408/370 354/391/354 368/390/368
f 384/407/384 370/408/370 368/390/368
f 385/409/385 369/392/369 370/393/370
f 385/410/386 371/394/371 369/392/369
f 385/411/387 372/395/372 371/394/371
f 385/412/388 373/396/373 372/395/372
f 385/413/389 374/397/374 373/396/373
f 385/414/390 375/398/375 374/397/374
f 385/415/391 376/399/376 375/398/375
f 385/416/392 377/400/377 376/399/376
f 385/417/393 378/401/378 377/400/377
f 385/418/394 379/402/379 378/401/378
f 385/419/395 380/403/380 379/402/379
f 385/420/396 381/404/381 380/403/380
f 385/421/397 382/405/382 381/404/381
f 385/422/398 383/406/383 382/405/382
f 385/423/399 384/407/384 383/406/383
f 385/424/400 370/408/370 384/407/384
