# Procedurally generated by dev-env-utils/scripts/gen_work_zone_devices.py -- do not hand edit
mtllib workzone_concrete_barrier.mtl
o workzone_concrete_barrier_end_left
v 0.000000 0.000000 0.275000
v 0.000000 0.000000 0.725000
v 0.000000 0.087500 0.725000
v 0.000000 0.087500 0.275000
v 0.000000 0.262500 0.618750
v 0.000000 0.262500 0.381250
v 0.000000 0.762500 0.584375
v 0.000000 0.762500 0.415625
v 0.000000 0.812500 0.575000
v 0.000000 0.812500 0.425000
vt 0.890625 0.125000
vn -1.000000 0.000000 0.000000
usemtl body
f 1/1/1 2/1/1 3/1/1
f 1/1/1 3/1/1 4/1/1
f 4/1/1 3/1/1 5/1/1
f 4/1/1 5/1/1 6/1/1
f 6/1/1 5/1/1 7/1/1
f 6/1/1 7/1/1 8/1/1
f 8/1/1 7/1/1 9/1/1
f 8/1/1 9/1/1 10/1/1
