# Procedurally generated by dev-env-utils/scripts/gen_work_zone_devices.py -- do not hand edit
mtllib workzone_barricade_type1.mtl
o workzone_barricade_type1_inv
v -0.084437 0.000000 0.795750
v -0.084437 0.062563 0.795750
v -0.084437 0.062563 0.204250
v -0.084437 0.000000 0.204250
v 0.084437 0.000000 0.204250
v 0.084437 0.062563 0.204250
v 0.084437 0.062563 0.795750
v 0.084437 0.000000 0.795750
v -0.062563 0.062563 0.547775
v -0.062563 1.092000 0.547775
v -0.062563 1.092000 0.452225
v -0.062563 0.062563 0.452225
v 0.062563 0.062563 0.452225
v 0.062563 1.092000 0.452225
v 0.062563 1.092000 0.547775
v 0.062563 0.062563 0.547775
v 0.000000 0.750750 0.470425
v 1.000000 0.750750 0.470425
v 1.000000 0.750750 0.529575
v 0.000000 0.750750 0.529575
v 0.000000 1.023750 0.529575
v 1.000000 1.023750 0.529575
v 1.000000 1.023750 0.470425
v 0.000000 1.023750 0.470425
v -0.257075 0.750750 0.470425
v -0.257075 0.750750 0.529575
v -0.257075 1.023750 0.529575
v -0.257075 1.023750 0.470425
v 0.915563 0.000000 0.795750
v 0.915563 0.062563 0.795750
v 0.915563 0.062563 0.204250
v 0.915563 0.000000 0.204250
v 1.084438 0.000000 0.204250
v 1.084438 0.062563 0.204250
v 1.084438 0.062563 0.795750
v 1.084438 0.000000 0.795750
v 0.937438 0.062563 0.547775
v 0.937438 1.092000 0.547775
v 0.937438 1.092000 0.452225
v 0.937438 0.062563 0.452225
v 1.062563 0.062563 0.452225
v 1.062563 1.092000 0.452225
v 1.062563 1.092000 0.547775
v 1.062563 0.062563 0.547775
v 1.257075 0.750750 0.470425
v 1.257075 0.750750 0.529575
v 1.257075 1.023750 0.529575
v 1.257075 1.023750 0.470425
vt 0.890625 0.625000
vt 0.000000 0.000000
vt 0.781250 0.000000
vt 0.781250 1.000000
vt 0.000000 1.000000
vt 0.580410 0.000000
vt 0.580410 1.000000
vt 0.200840 1.000000
vt 0.200840 0.000000
vn -1.000000 0.000000 0.000000
vn 1.000000 0.000000 0.000000
vn 0.000000 -1.000000 0.000000
vn 0.000000 1.000000 0.000000
vn 0.000000 0.000000 -1.000000
vn 0.000000 0.000000 1.000000
usemtl body
f 1/1/1 2/1/1 3/1/1
f 1/1/1 3/1/1 4/1/1
f 5/1/2 6/1/2 7/1/2
f 5/1/2 7/1/2 8/1/2
f 4/1/3 5/1/3 8/1/3
f 4/1/3 8/1/3 1/1/3
f 2/1/4 7/1/4 6/1/4
f 2/1/4 6/1/4 3/1/4
f 3/1/5 6/1/5 5/1/5
f 3/1/5 5/1/5 4/1/5
f 1/1/6 8/1/6 7/1/6
f 1/1/6 7/1/6 2/1/6
f 9/1/1 10/1/1 11/1/1
f 9/1/1 11/1/1 12/1/1
f 13/1/2 14/1/2 15/1/2
f 13/1/2 15/1/2 16/1/2
f 12/1/3 13/1/3 16/1/3
f 12/1/3 16/1/3 9/1/3
f 10/1/4 15/1/4 14/1/4
f 10/1/4 14/1/4 11/1/4
f 11/1/5 14/1/5 13/1/5
f 11/1/5 13/1/5 12/1/5
f 9/1/6 16/1/6 15/1/6
f 9/1/6 15/1/6 10/1/6
f 17/1/3 18/1/3 19/1/3
f 17/1/3 19/1/3 20/1/3
f 21/1/4 22/1/4 23/1/4
f 21/1/4 23/1/4 24/1/4
f 20/2/6 19/3/6 22/4/6
f 20/2/6 22/4/6 21/5/6
f 24/5/5 23/4/5 18/3/5
f 24/5/5 18/3/5 17/2/5
f 25/1/3 17/1/3 20/1/3
f 25/1/3 20/1/3 26/1/3
f 27/1/4 21/1/4 24/1/4
f 27/1/4 24/1/4 28/1/4
f 26/6/6 20/3/6 21/4/6
f 26/6/6 21/4/6 27/7/6
f 28/7/5 24/4/5 17/3/5
f 28/7/5 17/3/5 25/6/5
f 25/1/1 26/1/1 27/1/1
f 25/1/1 27/1/1 28/1/1
f 29/1/1 30/1/1 31/1/1
f 29/1/1 31/1/1 32/1/1
f 33/1/2 34/1/2 35/1/2
f 33/1/2 35/1/2 36/1/2
f 32/1/3 33/1/3 36/1/3
f 32/1/3 36/1/3 29/1/3
f 30/1/4 35/1/4 34/1/4
f 30/1/4 34/1/4 31/1/4
f 31/1/5 34/1/5 33/1/5
f 31/1/5 33/1/5 32/1/5
f 29/1/6 36/1/6 35/1/6
f 29/1/6 35/1/6 30/1/6
f 37/1/1 38/1/1 39/1/1
f 37/1/1 39/1/1 40/1/1
f 41/1/2 42/1/2 43/1/2
f 41/1/2 43/1/2 44/1/2
f 40/1/3 41/1/3 44/1/3
f 40/1/3 44/1/3 37/1/3
f 38/1/4 43/1/4 42/1/4
f 38/1/4 42/1/4 39/1/4
f 39/1/5 42/1/5 41/1/5
f 39/1/5 41/1/5 40/1/5
f 37/1/6 44/1/6 43/1/6
f 37/1/6 43/1/6 38/1/6
f 18/1/3 45/1/3 46/1/3
f 18/1/3 46/1/3 19/1/3
f 22/1/4 47/1/4 48/1/4
f 22/1/4 48/1/4 23/1/4
f 47/8/6 22/5/6 19/2/6
f 47/8/6 19/2/6 46/9/6
f 45/9/5 18/2/5 23/5/5
f 45/9/5 23/5/5 48/8/5
f 48/1/2 47/1/2 46/1/2
f 48/1/2 46/1/2 45/1/2
