# Procedurally generated by dev-env-utils/scripts/gen_work_zone_devices.py -- do not hand edit
mtllib workzone_barricade_type3.mtl
o workzone_barricade_type3_fill_right
v 1.000000 0.253125 0.478063
v 1.414214 0.253125 0.478063
v 1.414214 0.253125 0.521938
v 1.000000 0.253125 0.521938
v 1.000000 0.455625 0.521938
v 1.414214 0.455625 0.521938
v 1.414214 0.455625 0.478063
v 1.000000 0.455625 0.478063
v 1.000000 0.556875 0.478063
v 1.414214 0.556875 0.478063
v 1.414214 0.556875 0.521938
v 1.000000 0.556875 0.521938
v 1.000000 0.759375 0.521938
v 1.414214 0.759375 0.521938
v 1.414214 0.759375 0.478063
v 1.000000 0.759375 0.478063
v 1.000000 0.860625 0.478063
v 1.414214 0.860625 0.478063
v 1.414214 0.860625 0.521938
v 1.000000 0.860625 0.521938
v 1.000000 1.063125 0.521938
v 1.414214 1.063125 0.521938
v 1.414214 1.063125 0.478063
v 1.000000 1.063125 0.478063
vt 0.890625 0.625000
vt 0.000000 0.000000
vt 0.323604 0.000000
vt 0.323604 1.000000
vt 0.000000 1.000000
vn 0.000000 -1.000000 0.000000
vn 0.000000 1.000000 0.000000
vn 0.000000 0.000000 1.000000
vn 0.000000 0.000000 -1.000000
usemtl body
f 1/1/1 2/1/1 3/1/1
f 1/1/1 3/1/1 4/1/1
f 5/1/2 6/1/2 7/1/2
f 5/1/2 7/1/2 8/1/2
f 4/2/3 3/3/3 6/4/3
f 4/2/3 6/4/3 5/5/3
f 8/5/4 7/4/4 2/3/4
f 8/5/4 2/3/4 1/2/4
f 9/1/1 10/1/1 11/1/1
f 9/1/1 11/1/1 12/1/1
f 13/1/2 14/1/2 15/1/2
f 13/1/2 15/1/2 16/1/2
f 12/2/3 11/3/3 14/4/3
f 12/2/3 14/4/3 13/5/3
f 16/5/4 15/4/4 10/3/4
f 16/5/4 10/3/4 9/2/4
f 17/1/1 18/1/1 19/1/1
f 17/1/1 19/1/1 20/1/1
f 21/1/2 22/1/2 23/1/2
f 21/1/2 23/1/2 24/1/2
f 20/2/3 19/3/3 22/4/3
f 20/2/3 22/4/3 21/5/3
f 24/5/4 23/4/4 18/3/4
f 24/5/4 18/3/4 17/2/4
