# Procedurally generated by dev-env-utils/scripts/gen_work_zone_devices.py -- do not hand edit
mtllib workzone_barricade_type3.mtl
o workzone_barricade_type3_end_right
v 0.915563 0.000000 0.795750
v 0.915563 0.062563 0.795750
v 0.915563 0.062563 0.204250
v 0.915563 0.000000 0.204250
v 1.084438 0.000000 0.204250
v 1.084438 0.062563 0.204250
v 1.084438 0.062563 0.795750
v 1.084438 0.000000 0.795750
v 0.937438 0.062563 0.547775
v 0.937438 1.501500 0.547775
v 0.937438 1.501500 0.452225
v 0.937438 0.062563 0.452225
v 1.062563 0.062563 0.452225
v 1.062563 1.501500 0.452225
v 1.062563 1.501500 0.547775
v 1.062563 0.062563 0.547775
v 1.000000 0.341250 0.470425
v 1.257075 0.341250 0.470425
v 1.257075 0.341250 0.529575
v 1.000000 0.341250 0.529575
v 1.000000 0.614250 0.529575
v 1.257075 0.614250 0.529575
v 1.257075 0.614250 0.470425
v 1.000000 0.614250 0.470425
v 1.000000 0.750750 0.470425
v 1.257075 0.750750 0.470425
v 1.257075 0.750750 0.529575
v 1.000000 0.750750 0.529575
v 1.000000 1.023750 0.529575
v 1.257075 1.023750 0.529575
v 1.257075 1.023750 0.470425
v 1.000000 1.023750 0.470425
v 1.000000 1.160250 0.470425
v 1.257075 1.160250 0.470425
v 1.257075 1.160250 0.529575
v 1.000000 1.160250 0.529575
v 1.000000 1.433250 0.529575
v 1.257075 1.433250 0.529575
v 1.257075 1.433250 0.470425
v 1.000000 1.433250 0.470425
vt 0.890625 0.625000
vt 0.200840 1.000000
vt 0.000000 1.000000
vt 0.000000 0.000000
vt 0.200840 0.000000
vn -1.000000 0.000000 0.000000
vn 1.000000 0.000000 0.000000
vn 0.000000 -1.000000 0.000000
vn 0.000000 1.000000 0.000000
vn 0.000000 0.000000 -1.000000
vn 0.000000 0.000000 1.000000
usemtl body
f 1/1/1 2/1/1 3/1/1
f 1/1/1 3/1/1 4/1/1
f 5/1/2 6/1/2 7/1/2
f 5/1/2 7/1/2 8/1/2
f 4/1/3 5/1/3 8/1/3
f 4/1/3 8/1/3 1/1/3
f 2/1/4 7/1/4 6/1/4
f 2/1/4 6/1/4 3/1/4
f 3/1/5 6/1/5 5/1/5
f 3/1/5 5/1/5 4/1/5
f 1/1/6 8/1/6 7/1/6
f 1/1/6 7/1/6 2/1/6
f 9/1/1 10/1/1 11/1/1
f 9/1/1 11/1/1 12/1/1
f 13/1/2 14/1/2 15/1/2
f 13/1/2 15/1/2 16/1/2
f 12/1/3 13/1/3 16/1/3
f 12/1/3 16/1/3 9/1/3
f 10/1/4 15/1/4 14/1/4
f 10/1/4 14/1/4 11/1/4
f 11/1/5 14/1/5 13/1/5
f 11/1/5 13/1/5 12/1/5
f 9/1/6 16/1/6 15/1/6
f 9/1/6 15/1/6 10/1/6
f 17/1/3 18/1/3 19/1/3
f 17/1/3 19/1/3 20/1/3
f 21/1/4 22/1/4 23/1/4
f 21/1/4 23/1/4 24/1/4
f 22/2/6 21/3/6 20/4/6
f 22/2/6 20/4/6 19/5/6
f 18/5/5 17/4/5 24/3/5
f 18/5/5 24/3/5 23/2/5
f 23/1/2 22/1/2 19/1/2
f 23/1/2 19/1/2 18/1/2
f 25/1/3 26/1/3 27/1/3
f 25/1/3 27/1/3 28/1/3
f 29/1/4 30/1/4 31/1/4
f 29/1/4 31/1/4 32/1/4
f 30/2/6 29/3/6 28/4/6
f 30/2/6 28/4/6 27/5/6
f 26/5/5 25/4/5 32/3/5
f 26/5/5 32/3/5 31/2/5
f 31/1/2 30/1/2 27/1/2
f 31/1/2 27/1/2 26/1/2
f 33/1/3 34/1/3 35/1/3
f 33/1/3 35/1/3 36/1/3
f 37/1/4 38/1/4 39/1/4
f 37/1/4 39/1/4 40/1/4
f 38/2/6 37/3/6 36/4/6
f 38/2/6 36/4/6 35/5/6
f 34/5/5 33/4/5 40/3/5
f 34/5/5 40/3/5 39/2/5
f 39/1/2 38/1/2 35/1/2
f 39/1/2 35/1/2 34/1/2
