# Procedurally generated by dev-env-utils/scripts/gen_work_zone_devices.py -- do not hand edit
mtllib workzone_arrow_board.mtl
o workzone_arrow_board
v -0.917500 0.223125 1.130000
v -0.917500 0.472500 1.130000
v -0.917500 0.472500 -0.130000
v -0.917500 0.223125 -0.130000
v 1.917500 0.223125 -0.130000
v 1.917500 0.472500 -0.130000
v 1.917500 0.472500 1.130000
v 1.917500 0.223125 1.130000
v 1.917500 0.275625 0.605000
v 1.917500 0.420000 0.605000
v 1.917500 0.420000 0.395000
v 1.917500 0.275625 0.395000
v 2.573750 0.275625 0.395000
v 2.573750 0.420000 0.395000
v 2.573750 0.420000 0.605000
v 2.573750 0.275625 0.605000
v -0.814150 0.395160 -0.379375
v -0.923812 0.546097 -0.379375
v -0.923812 0.546097 -0.143125
v -0.814150 0.395160 -0.143125
v -1.101250 0.603750 -0.379375
v -1.101250 0.603750 -0.143125
v -1.278688 0.546097 -0.379375
v -1.278688 0.546097 -0.143125
v -1.388350 0.395160 -0.379375
v -1.388350 0.395160 -0.143125
v -1.388350 0.208590 -0.379375
v -1.388350 0.208590 -0.143125
v -1.278688 0.057653 -0.379375
v -1.278688 0.057653 -0.143125
v -1.101250 0.000000 -0.379375
v -1.101250 0.000000 -0.143125
v -0.923812 0.057653 -0.379375
v -0.923812 0.057653 -0.143125
v -0.814150 0.208590 -0.379375
v -0.814150 0.208590 -0.143125
v -1.101250 0.301875 -0.143125
v -1.101250 0.301875 -0.379375
v -0.814150 0.395160 1.143125
v -0.923812 0.546097 1.143125
v -0.923812 0.546097 1.379375
v -0.814150 0.395160 1.379375
v -1.101250 0.603750 1.143125
v -1.101250 0.603750 1.379375
v -1.278688 0.546097 1.143125
v -1.278688 0.546097 1.379375
v -1.388350 0.395160 1.143125
v -1.388350 0.395160 1.379375
v -1.388350 0.208590 1.143125
v -1.388350 0.208590 1.379375
v -1.278688 0.057653 1.143125
v -1.278688 0.057653 1.379375
v -1.101250 0.000000 1.143125
v -1.101250 0.000000 1.379375
v -0.923812 0.057653 1.143125
v -0.923812 0.057653 1.379375
v -0.814150 0.208590 1.143125
v -0.814150 0.208590 1.379375
v -1.101250 0.301875 1.379375
v -1.101250 0.301875 1.143125
v 2.388350 0.395160 -0.379375
v 2.278688 0.546097 -0.379375
v 2.278688 0.546097 -0.143125
v 2.388350 0.395160 -0.143125
v 2.101250 0.603750 -0.379375
v 2.101250 0.603750 -0.143125
v 1.923812 0.546097 -0.379375
v 1.923812 0.546097 -0.143125
v 1.814150 0.395160 -0.379375
v 1.814150 0.395160 -0.143125
v 1.814150 0.208590 -0.379375
v 1.814150 0.208590 -0.143125
v 1.923812 0.057653 -0.379375
v 1.923812 0.057653 -0.143125
v 2.101250 0.000000 -0.379375
v 2.101250 0.000000 -0.143125
v 2.278688 0.057653 -0.379375
v 2.278688 0.057653 -0.143125
v 2.388350 0.208590 -0.379375
v 2.388350 0.208590 -0.143125
v 2.101250 0.301875 -0.143125
v 2.101250 0.301875 -0.379375
v 2.388350 0.395160 1.143125
v 2.278688 0.546097 1.143125
v 2.278688 0.546097 1.379375
v 2.388350 0.395160 1.379375
v 2.101250 0.603750 1.143125
v 2.101250 0.603750 1.379375
v 1.923812 0.546097 1.143125
v 1.923812 0.546097 1.379375
v 1.814150 0.395160 1.143125
v 1.814150 0.395160 1.379375
v 1.814150 0.208590 1.143125
v 1.814150 0.208590 1.379375
v 1.923812 0.057653 1.143125
v 1.923812 0.057653 1.379375
v 2.101250 0.000000 1.143125
v 2.101250 0.000000 1.379375
v 2.278688 0.057653 1.143125
v 2.278688 0.057653 1.379375
v 2.388350 0.208590 1.143125
v 2.388350 0.208590 1.379375
v 2.101250 0.301875 1.379375
v 2.101250 0.301875 1.143125
v -0.781000 0.047250 0.573500
v -0.781000 0.433125 0.573500
v -0.781000 0.433125 0.426500
v -0.781000 0.047250 0.426500
v -0.634000 0.047250 0.426500
v -0.634000 0.433125 0.426500
v -0.634000 0.433125 0.573500
v -0.634000 0.047250 0.573500
v -0.869200 0.000000 0.661700
v -0.869200 0.073500 0.661700
v -0.869200 0.073500 0.338300
v -0.869200 0.000000 0.338300
v -0.545800 0.000000 0.338300
v -0.545800 0.073500 0.338300
v -0.545800 0.073500 0.661700
v -0.545800 0.000000 0.661700
v 1.634000 0.047250 0.573500
v 1.634000 0.433125 0.573500
v 1.634000 0.433125 0.426500
v 1.634000 0.047250 0.426500
v 1.781000 0.047250 0.426500
v 1.781000 0.433125 0.426500
v 1.781000 0.433125 0.573500
v 1.781000 0.047250 0.573500
v 1.545800 0.000000 0.661700
v 1.545800 0.073500 0.661700
v 1.545800 0.073500 0.338300
v 1.545800 0.000000 0.338300
v 1.869200 0.000000 0.338300
v 1.869200 0.073500 0.338300
v 1.869200 0.073500 0.661700
v 1.869200 0.000000 0.661700
vt 0.890625 0.625000
vt 0.890625 0.375000
vn -1.000000 0.000000 0.000000
vn 1.000000 0.000000 0.000000
vn 0.000000 -1.000000 0.000000
vn 0.000000 1.000000 0.000000
vn 0.000000 0.000000 -1.000000
vn 0.000000 0.000000 1.000000
vn 0.951057 0.309017 0.000000
vn 0.587785 0.809017 0.000000
vn -0.587785 0.809017 0.000000
vn -0.951057 0.309017 0.000000
vn -0.951057 -0.309017 0.000000
vn -0.587785 -0.809017 0.000000
vn 0.587785 -0.809017 0.000000
vn 0.951057 -0.309017 0.000000
usemtl body
f 1/1/1 2/1/1 3/1/1
f 1/1/1 3/1/1 4/1/1
f 5/1/2 6/1/2 7/1/2
f 5/1/2 7/1/2 8/1/2
f 4/1/3 5/1/3 8/1/3
f 4/1/3 8/1/3 1/1/3
f 2/1/4 7/1/4 6/1/4
f 2/1/4 6/1/4 3/1/4
f 3/1/5 6/1/5 5/1/5
f 3/1/5 5/1/5 4/1/5
f 1/1/6 8/1/6 7/1/6
f 1/1/6 7/1/6 2/1/6
f 9/1/1 10/1/1 11/1/1
f 9/1/1 11/1/1 12/1/1
f 13/1/2 14/1/2 15/1/2
f 13/1/2 15/1/2 16/1/2
f 12/1/3 13/1/3 16/1/3
f 12/1/3 16/1/3 9/1/3
f 10/1/4 15/1/4 14/1/4
f 10/1/4 14/1/4 11/1/4
f 11/1/5 14/1/5 13/1/5
f 11/1/5 13/1/5 12/1/5
f 9/1/6 16/1/6 15/1/6
f 9/1/6 15/1/6 10/1/6
f 17/2/7 18/2/8 19/2/8
f 17/2/7 19/2/8 20/2/7
f 18/2/8 21/2/4 22/2/4
f 18/2/8 22/2/4 19/2/8
f 21/2/4 23/2/9 24/2/9
f 21/2/4 24/2/9 22/2/4
f 23/2/9 25/2/10 26/2/10
f 23/2/9 26/2/10 24/2/9
f 25/2/10 27/2/11 28/2/11
f 25/2/10 28/2/11 26/2/10
f 27/2/11 29/2/12 30/2/12
f 27/2/11 30/2/12 28/2/11
f 29/2/12 31/2/3 32/2/3
f 29/2/12 32/2/3 30/2/12
f 31/2/3 33/2/13 34/2/13
f 31/2/3 34/2/13 32/2/3
f 33/2/13 35/2/14 36/2/14
f 33/2/13 36/2/14 34/2/13
f 35/2/14 17/2/7 20/2/7
f 35/2/14 20/2/7 36/2/14
f 37/2/6 20/2/6 19/2/6
f 37/2/6 19/2/6 22/2/6
f 37/2/6 22/2/6 24/2/6
f 37/2/6 24/2/6 26/2/6
f 37/2/6 26/2/6 28/2/6
f 37/2/6 28/2/6 30/2/6
f 37/2/6 30/2/6 32/2/6
f 37/2/6 32/2/6 34/2/6
f 37/2/6 34/2/6 36/2/6
f 37/2/6 36/2/6 20/2/6
f 38/2/5 18/2/5 17/2/5
f 38/2/5 21/2/5 18/2/5
f 38/2/5 23/2/5 21/2/5
f 38/2/5 25/2/5 23/2/5
f 38/2/5 27/2/5 25/2/5
f 38/2/5 29/2/5 27/2/5
f 38/2/5 31/2/5 29/2/5
f 38/2/5 33/2/5 31/2/5
f 38/2/5 35/2/5 33/2/5
f 38/2/5 17/2/5 35/2/5
f 39/2/7 40/2/8 41/2/8
f 39/2/7 41/2/8 42/2/7
f 40/2/8 43/2/4 44/2/4
f 40/2/8 44/2/4 41/2/8
f 43/2/4 45/2/9 46/2/9
f 43/2/4 46/2/9 44/2/4
f 45/2/9 47/2/10 48/2/10
f 45/2/9 48/2/10 46/2/9
f 47/2/10 49/2/11 50/2/11
f 47/2/10 50/2/11 48/2/10
f 49/2/11 51/2/12 52/2/12
f 49/2/11 52/2/12 50/2/11
f 51/2/12 53/2/3 54/2/3
f 51/2/12 54/2/3 52/2/12
f 53/2/3 55/2/13 56/2/13
f 53/2/3 56/2/13 54/2/3
f 55/2/13 57/2/14 58/2/14
f 55/2/13 58/2/14 56/2/13
f 57/2/14 39/2/7 42/2/7
f 57/2/14 42/2/7 58/2/14
f 59/2/6 42/2/6 41/2/6
f 59/2/6 41/2/6 44/2/6
f 59/2/6 44/2/6 46/2/6
f 59/2/6 46/2/6 48/2/6
f 59/2/6 48/2/6 50/2/6
f 59/2/6 50/2/6 52/2/6
f 59/2/6 52/2/6 54/2/6
f 59/2/6 54/2/6 56/2/6
f 59/2/6 56/2/6 58/2/6
f 59/2/6 58/2/6 42/2/6
f 60/2/5 40/2/5 39/2/5
f 60/2/5 43/2/5 40/2/5
f 60/2/5 45/2/5 43/2/5
f 60/2/5 47/2/5 45/2/5
f 60/2/5 49/2/5 47/2/5
f 60/2/5 51/2/5 49/2/5
f 60/2/5 53/2/5 51/2/5
f 60/2/5 55/2/5 53/2/5
f 60/2/5 57/2/5 55/2/5
f 60/2/5 39/2/5 57/2/5
f 61/2/7 62/2/8 63/2/8
f 61/2/7 63/2/8 64/2/7
f 62/2/8 65/2/4 66/2/4
f 62/2/8 66/2/4 63/2/8
f 65/2/4 67/2/9 68/2/9
f 65/2/4 68/2/9 66/2/4
f 67/2/9 69/2/10 70/2/10
f 67/2/9 70/2/10 68/2/9
f 69/2/10 71/2/11 72/2/11
f 69/2/10 72/2/11 70/2/10
f 71/2/11 73/2/12 74/2/12
f 71/2/11 74/2/12 72/2/11
f 73/2/12 75/2/3 76/2/3
f 73/2/12 76/2/3 74/2/12
f 75/2/3 77/2/13 78/2/13
f 75/2/3 78/2/13 76/2/3
f 77/2/13 79/2/14 80/2/14
f 77/2/13 80/2/14 78/2/13
f 79/2/14 61/2/7 64/2/7
f 79/2/14 64/2/7 80/2/14
f 81/2/6 64/2/6 63/2/6
f 81/2/6 63/2/6 66/2/6
f 81/2/6 66/2/6 68/2/6
f 81/2/6 68/2/6 70/2/6
f 81/2/6 70/2/6 72/2/6
f 81/2/6 72/2/6 74/2/6
f 81/2/6 74/2/6 76/2/6
f 81/2/6 76/2/6 78/2/6
f 81/2/6 78/2/6 80/2/6
f 81/2/6 80/2/6 64/2/6
f 82/2/5 62/2/5 61/2/5
f 82/2/5 65/2/5 62/2/5
f 82/2/5 67/2/5 65/2/5
f 82/2/5 69/2/5 67/2/5
f 82/2/5 71/2/5 69/2/5
f 82/2/5 73/2/5 71/2/5
f 82/2/5 75/2/5 73/2/5
f 82/2/5 77/2/5 75/2/5
f 82/2/5 79/2/5 77/2/5
f 82/2/5 61/2/5 79/2/5
f 83/2/7 84/2/8 85/2/8
f 83/2/7 85/2/8 86/2/7
f 84/2/8 87/2/4 88/2/4
f 84/2/8 88/2/4 85/2/8
f 87/2/4 89/2/9 90/2/9
f 87/2/4 90/2/9 88/2/4
f 89/2/9 91/2/10 92/2/10
f 89/2/9 92/2/10 90/2/9
f 91/2/10 93/2/11 94/2/11
f 91/2/10 94/2/11 92/2/10
f 93/2/11 95/2/12 96/2/12
f 93/2/11 96/2/12 94/2/11
f 95/2/12 97/2/3 98/2/3
f 95/2/12 98/2/3 96/2/12
f 97/2/3 99/2/13 100/2/13
f 97/2/3 100/2/13 98/2/3
f 99/2/13 101/2/14 102/2/14
f 99/2/13 102/2/14 100/2/13
f 101/2/14 83/2/7 86/2/7
f 101/2/14 86/2/7 102/2/14
f 103/2/6 86/2/6 85/2/6
f 103/2/6 85/2/6 88/2/6
f 103/2/6 88/2/6 90/2/6
f 103/2/6 90/2/6 92/2/6
f 103/2/6 92/2/6 94/2/6
f 103/2/6 94/2/6 96/2/6
f 103/2/6 96/2/6 98/2/6
f 103/2/6 98/2/6 100/2/6
f 103/2/6 100/2/6 102/2/6
f 103/2/6 102/2/6 86/2/6
f 104/2/5 84/2/5 83/2/5
f 104/2/5 87/2/5 84/2/5
f 104/2/5 89/2/5 87/2/5
f 104/2/5 91/2/5 89/2/5
f 104/2/5 93/2/5 91/2/5
f 104/2/5 95/2/5 93/2/5
f 104/2/5 97/2/5 95/2/5
f 104/2/5 99/2/5 97/2/5
f 104/2/5 101/2/5 99/2/5
f 104/2/5 83/2/5 101/2/5
f 105/1/1 106/1/1 107/1/1
f 105/1/1 107/1/1 108/1/1
f 109/1/2 110/1/2 111/1/2
f 109/1/2 111/1/2 112/1/2
f 106/1/4 111/1/4 110/1/4
f 106/1/4 110/1/4 107/1/4
f 107/1/5 110/1/5 109/1/5
f 107/1/5 109/1/5 108/1/5
f 105/1/6 112/1/6 111/1/6
f 105/1/6 111/1/6 106/1/6
f 113/2/1 114/2/1 115/2/1
f 113/2/1 115/2/1 116/2/1
f 117/2/2 118/2/2 119/2/2
f 117/2/2 119/2/2 120/2/2
f 116/2/3 117/2/3 120/2/3
f 116/2/3 120/2/3 113/2/3
f 114/2/4 119/2/4 118/2/4
f 114/2/4 118/2/4 115/2/4
f 115/2/5 118/2/5 117/2/5
f 115/2/5 117/2/5 116/2/5
f 113/2/6 120/2/6 119/2/6
f 113/2/6 119/2/6 114/2/6
f 121/1/1 122/1/1 123/1/1
f 121/1/1 123/1/1 124/1/1
f 125/1/2 126/1/2 127/1/2
f 125/1/2 127/1/2 128/1/2
f 122/1/4 127/1/4 126/1/4
f 122/1/4 126/1/4 123/1/4
f 123/1/5 126/1/5 125/1/5
f 123/1/5 125/1/5 124/1/5
f 121/1/6 128/1/6 127/1/6
f 121/1/6 127/1/6 122/1/6
f 129/2/1 130/2/1 131/2/1
f 129/2/1 131/2/1 132/2/1
f 133/2/2 134/2/2 135/2/2
f 133/2/2 135/2/2 136/2/2
f 132/2/3 133/2/3 136/2/3
f 132/2/3 136/2/3 129/2/3
f 130/2/4 135/2/4 134/2/4
f 130/2/4 134/2/4 131/2/4
f 131/2/5 134/2/5 133/2/5
f 131/2/5 133/2/5 132/2/5
f 129/2/6 136/2/6 135/2/6
f 129/2/6 135/2/6 130/2/6
