# Procedurally generated by dev-env-utils/scripts/gen_work_zone_devices.py -- do not hand edit
mtllib workzone_road_plate.mtl
o workzone_road_plate
v 0.021875 0.000000 0.978125
v 0.021875 0.053125 0.978125
v 0.021875 0.053125 0.021875
v 0.021875 0.000000 0.021875
v 0.978125 0.000000 0.021875
v 0.978125 0.053125 0.021875
v 0.978125 0.053125 0.978125
v 0.978125 0.000000 0.978125
vt 0.890625 0.125000
vt 0.000000 1.000000
vt 0.781250 1.000000
vt 0.781250 0.000000
vt 0.000000 0.000000
vn -1.000000 0.000000 0.000000
vn 1.000000 0.000000 0.000000
vn 0.000000 -1.000000 0.000000
vn 0.000000 0.000000 -1.000000
vn 0.000000 0.000000 1.000000
vn 0.000000 1.000000 0.000000
usemtl body
f 1/1/1 2/1/1 3/1/1
f 1/1/1 3/1/1 4/1/1
f 5/1/2 6/1/2 7/1/2
f 5/1/2 7/1/2 8/1/2
f 4/1/3 5/1/3 8/1/3
f 4/1/3 8/1/3 1/1/3
f 3/1/4 6/1/4 5/1/4
f 3/1/4 5/1/4 4/1/4
f 1/1/5 8/1/5 7/1/5
f 1/1/5 7/1/5 2/1/5
f 2/2/6 7/3/6 6/4/6
f 2/2/6 6/4/6 3/5/6
