# Procedurally generated by dev-env-utils/scripts/gen_work_zone_devices.py -- do not hand edit
mtllib workzone_cone.mtl
o workzone_cone
v 0.297187 0.000000 0.702813
v 0.702813 0.000000 0.702813
v 0.702813 0.028875 0.702813
v 0.297187 0.028875 0.702813
v 0.702813 0.000000 0.297187
v 0.702813 0.028875 0.297187
v 0.297187 0.000000 0.297187
v 0.297187 0.028875 0.297187
v 0.682188 0.042625 0.682188
v 0.317812 0.042625 0.682188
v 0.682188 0.042625 0.317812
v 0.317812 0.042625 0.317812
v 0.631476 0.075625 0.587850
v 0.640051 0.042625 0.593579
v 0.665201 0.042625 0.532861
v 0.655087 0.075625 0.530849
v 0.587850 0.075625 0.631476
v 0.593579 0.042625 0.640051
v 0.530849 0.075625 0.655087
v 0.532861 0.042625 0.665201
v 0.469151 0.075625 0.655087
v 0.467139 0.042625 0.665201
v 0.412150 0.075625 0.631476
v 0.406421 0.042625 0.640051
v 0.368524 0.075625 0.587850
v 0.359949 0.042625 0.593579
v 0.344913 0.075625 0.530849
v 0.334799 0.042625 0.532861
v 0.344913 0.075625 0.469151
v 0.334799 0.042625 0.467139
v 0.368524 0.075625 0.412150
v 0.359949 0.042625 0.406421
v 0.412150 0.075625 0.368524
v 0.406421 0.042625 0.359949
v 0.469151 0.075625 0.344913
v 0.467139 0.042625 0.334799
v 0.530849 0.075625 0.344913
v 0.532861 0.042625 0.334799
v 0.587850 0.075625 0.368524
v 0.593579 0.042625 0.359949
v 0.631476 0.075625 0.412150
v 0.640051 0.042625 0.406421
v 0.655087 0.075625 0.469151
v 0.665201 0.042625 0.467139
v 0.614327 0.178750 0.576391
v 0.634858 0.178750 0.526825
v 0.576391 0.178750 0.614327
v 0.526825 0.178750 0.634858
v 0.473175 0.178750 0.634858
v 0.423609 0.178750 0.614327
v 0.385673 0.178750 0.576391
v 0.365142 0.178750 0.526825
v 0.365142 0.178750 0.473175
v 0.385673 0.178750 0.423609
v 0.423609 0.178750 0.385673
v 0.473175 0.178750 0.365142
v 0.526825 0.178750 0.365142
v 0.576391 0.178750 0.385673
v 0.614327 0.178750 0.423609
v 0.634858 0.178750 0.473175
v 0.592605 0.330000 0.561877
v 0.609235 0.330000 0.521728
v 0.561877 0.330000 0.592605
v 0.521728 0.330000 0.609235
v 0.478272 0.330000 0.609235
v 0.438123 0.330000 0.592605
v 0.407395 0.330000 0.561877
v 0.390765 0.330000 0.521728
v 0.390765 0.330000 0.478272
v 0.407395 0.330000 0.438123
v 0.438123 0.330000 0.407395
v 0.478272 0.330000 0.390765
v 0.521728 0.330000 0.390765
v 0.561877 0.330000 0.407395
v 0.592605 0.330000 0.438123
v 0.609235 0.330000 0.478272
v 0.570883 0.495000 0.547362
v 0.583612 0.495000 0.516631
v 0.547362 0.495000 0.570883
v 0.516631 0.495000 0.583612
v 0.483369 0.495000 0.583612
v 0.452638 0.495000 0.570883
v 0.429117 0.495000 0.547362
v 0.416388 0.495000 0.516631
v 0.416388 0.495000 0.483369
v 0.429117 0.495000 0.452638
v 0.452638 0.495000 0.429117
v 0.483369 0.495000 0.416388
v 0.516631 0.495000 0.416388
v 0.547362 0.495000 0.429117
v 0.570883 0.495000 0.452638
v 0.583612 0.495000 0.483369
v 0.554305 0.632500 0.536286
v 0.564058 0.632500 0.512742
v 0.536286 0.632500 0.554305
v 0.512742 0.632500 0.564058
v 0.487258 0.632500 0.564058
v 0.463714 0.632500 0.554305
v 0.445695 0.632500 0.536286
v 0.435942 0.632500 0.512742
v 0.435942 0.632500 0.487258
v 0.445695 0.632500 0.463714
v 0.463714 0.632500 0.445695
v 0.487258 0.632500 0.435942
v 0.512742 0.632500 0.435942
v 0.536286 0.632500 0.445695
v 0.554305 0.632500 0.463714
v 0.564058 0.632500 0.487258
v 0.544588 0.701250 0.529792
v 0.552595 0.701250 0.510462
v 0.529792 0.701250 0.544588
v 0.510462 0.701250 0.552595
v 0.489538 0.701250 0.552595
v 0.470208 0.701250 0.544588
v 0.455412 0.701250 0.529792
v 0.447405 0.701250 0.510462
v 0.447405 0.701250 0.489538
v 0.455412 0.701250 0.470208
v 0.470208 0.701250 0.455412
v 0.489538 0.701250 0.447405
v 0.510462 0.701250 0.447405
v 0.529792 0.701250 0.455412
v 0.544588 0.701250 0.470208
v 0.552595 0.701250 0.489538
v 0.536585 0.723250 0.524445
v 0.543155 0.723250 0.508584
v 0.524445 0.723250 0.536585
v 0.508584 0.723250 0.543155
v 0.491416 0.723250 0.543155
v 0.475555 0.723250 0.536585
v 0.463415 0.723250 0.524445
v 0.456845 0.723250 0.508584
v 0.456845 0.723250 0.491416
v 0.463415 0.723250 0.475555
v 0.475555 0.723250 0.463415
v 0.491416 0.723250 0.456845
v 0.508584 0.723250 0.456845
v 0.524445 0.723250 0.463415
v 0.536585 0.723250 0.475555
v 0.543155 0.723250 0.491416
v 0.536585 0.732875 0.524445
v 0.543155 0.732875 0.508584
v 0.524445 0.732875 0.536585
v 0.508584 0.732875 0.543155
v 0.491416 0.732875 0.543155
v 0.475555 0.732875 0.536585
v 0.463415 0.732875 0.524445
v 0.456845 0.732875 0.508584
v 0.456845 0.732875 0.491416
v 0.463415 0.732875 0.475555
v 0.475555 0.732875 0.463415
v 0.491416 0.732875 0.456845
v 0.508584 0.732875 0.456845
v 0.524445 0.732875 0.463415
v 0.536585 0.732875 0.475555
v 0.543155 0.732875 0.491416
v 0.546874 0.739750 0.531320
v 0.555292 0.739750 0.510998
v 0.531320 0.739750 0.546874
v 0.510998 0.739750 0.555292
v 0.489002 0.739750 0.555292
v 0.468680 0.739750 0.546874
v 0.453126 0.739750 0.531320
v 0.444708 0.739750 0.510998
v 0.444708 0.739750 0.489002
v 0.453126 0.739750 0.468680
v 0.468680 0.739750 0.453126
v 0.489002 0.739750 0.444708
v 0.510998 0.739750 0.444708
v 0.531320 0.739750 0.453126
v 0.546874 0.739750 0.468680
v 0.555292 0.739750 0.489002
v 0.546874 0.757625 0.531320
v 0.555292 0.757625 0.510998
v 0.531320 0.757625 0.546874
v 0.510998 0.757625 0.555292
v 0.489002 0.757625 0.555292
v 0.468680 0.757625 0.546874
v 0.453126 0.757625 0.531320
v 0.444708 0.757625 0.510998
v 0.444708 0.757625 0.489002
v 0.453126 0.757625 0.468680
v 0.468680 0.757625 0.453126
v 0.489002 0.757625 0.444708
v 0.510998 0.757625 0.444708
v 0.531320 0.757625 0.453126
v 0.546874 0.757625 0.468680
v 0.555292 0.757625 0.489002
v 0.540014 0.764500 0.526737
v 0.547200 0.764500 0.509389
v 0.526737 0.764500 0.540014
v 0.509389 0.764500 0.547200
v 0.490611 0.764500 0.547200
v 0.473263 0.764500 0.540014
v 0.459986 0.764500 0.526737
v 0.452800 0.764500 0.509389
v 0.452800 0.764500 0.490611
v 0.459986 0.764500 0.473263
v 0.473263 0.764500 0.459986
v 0.490611 0.764500 0.452800
v 0.509389 0.764500 0.452800
v 0.526737 0.764500 0.459986
v 0.540014 0.764500 0.473263
v 0.547200 0.764500 0.490611
v 0.521722 0.770000 0.514514
v 0.525623 0.770000 0.505097
v 0.514514 0.770000 0.521722
v 0.505097 0.770000 0.525623
v 0.494903 0.770000 0.525623
v 0.485486 0.770000 0.521722
v 0.478278 0.770000 0.514514
v 0.474377 0.770000 0.505097
v 0.474377 0.770000 0.494903
v 0.478278 0.770000 0.485486
v 0.485486 0.770000 0.478278
v 0.494903 0.770000 0.474377
v 0.505097 0.770000 0.474377
v 0.514514 0.770000 0.478278
v 0.521722 0.770000 0.485486
v 0.525623 0.770000 0.494903
v 0.500000 0.770000 0.500000
vt 0.000000 0.000000
vt 0.781250 0.000000
vt 0.781250 0.028875
vt 0.000000 0.028875
vt 0.781250 0.042625
vt 0.000000 0.042625
vt 0.890625 0.375000
vt 0.048828 0.075625
vt 0.048828 0.042625
vt 0.000000 0.075625
vt 0.097656 0.075625
vt 0.097656 0.042625
vt 0.146484 0.075625
vt 0.146484 0.042625
vt 0.195312 0.075625
vt 0.195312 0.042625
vt 0.244141 0.075625
vt 0.244141 0.042625
vt 0.292969 0.075625
vt 0.292969 0.042625
vt 0.341797 0.075625
vt 0.341797 0.042625
vt 0.390625 0.075625
vt 0.390625 0.042625
vt 0.439453 0.075625
vt 0.439453 0.042625
vt 0.488281 0.075625
vt 0.488281 0.042625
vt 0.537109 0.075625
vt 0.537109 0.042625
vt 0.585938 0.075625
vt 0.585938 0.042625
vt 0.634766 0.075625
vt 0.634766 0.042625
vt 0.683594 0.075625
vt 0.683594 0.042625
vt 0.732422 0.075625
vt 0.732422 0.042625
vt 0.781250 0.075625
vt 0.048828 0.178750
vt 0.000000 0.178750
vt 0.097656 0.178750
vt 0.146484 0.178750
vt 0.195312 0.178750
vt 0.244141 0.178750
vt 0.292969 0.178750
vt 0.341797 0.178750
vt 0.390625 0.178750
vt 0.439453 0.178750
vt 0.488281 0.178750
vt 0.537109 0.178750
vt 0.585938 0.178750
vt 0.634766 0.178750
vt 0.683594 0.178750
vt 0.732422 0.178750
vt 0.781250 0.178750
vt 0.048828 0.330000
vt 0.000000 0.330000
vt 0.097656 0.330000
vt 0.146484 0.330000
vt 0.195312 0.330000
vt 0.244141 0.330000
vt 0.292969 0.330000
vt 0.341797 0.330000
vt 0.390625 0.330000
vt 0.439453 0.330000
vt 0.488281 0.330000
vt 0.537109 0.330000
vt 0.585938 0.330000
vt 0.634766 0.330000
vt 0.683594 0.330000
vt 0.732422 0.330000
vt 0.781250 0.330000
vt 0.048828 0.495000
vt 0.000000 0.495000
vt 0.097656 0.495000
vt 0.146484 0.495000
vt 0.195312 0.495000
vt 0.244141 0.495000
vt 0.292969 0.495000
vt 0.341797 0.495000
vt 0.390625 0.495000
vt 0.439453 0.495000
vt 0.488281 0.495000
vt 0.537109 0.495000
vt 0.585938 0.495000
vt 0.634766 0.495000
vt 0.683594 0.495000
vt 0.732422 0.495000
vt 0.781250 0.495000
vt 0.048828 0.632500
vt 0.000000 0.632500
vt 0.097656 0.632500
vt 0.146484 0.632500
vt 0.195312 0.632500
vt 0.244141 0.632500
vt 0.292969 0.632500
vt 0.341797 0.632500
vt 0.390625 0.632500
vt 0.439453 0.632500
vt 0.488281 0.632500
vt 0.537109 0.632500
vt 0.585938 0.632500
vt 0.634766 0.632500
vt 0.683594 0.632500
vt 0.732422 0.632500
vt 0.781250 0.632500
vt 0.048828 0.701250
vt 0.000000 0.701250
vt 0.097656 0.701250
vt 0.146484 0.701250
vt 0.195312 0.701250
vt 0.244141 0.701250
vt 0.292969 0.701250
vt 0.341797 0.701250
vt 0.390625 0.701250
vt 0.439453 0.701250
vt 0.488281 0.701250
vt 0.537109 0.701250
vt 0.585938 0.701250
vt 0.634766 0.701250
vt 0.683594 0.701250
vt 0.732422 0.701250
vt 0.781250 0.701250
vt 0.048828 0.723250
vt 0.000000 0.723250
vt 0.097656 0.723250
vt 0.146484 0.723250
vt 0.195312 0.723250
vt 0.244141 0.723250
vt 0.292969 0.723250
vt 0.341797 0.723250
vt 0.390625 0.723250
vt 0.439453 0.723250
vt 0.488281 0.723250
vt 0.537109 0.723250
vt 0.585938 0.723250
vt 0.634766 0.723250
vt 0.683594 0.723250
vt 0.732422 0.723250
vt 0.781250 0.723250
vt 0.048828 0.732875
vt 0.000000 0.732875
vt 0.097656 0.732875
vt 0.146484 0.732875
vt 0.195312 0.732875
vt 0.244141 0.732875
vt 0.292969 0.732875
vt 0.341797 0.732875
vt 0.390625 0.732875
vt 0.439453 0.732875
vt 0.488281 0.732875
vt 0.537109 0.732875
vt 0.585938 0.732875
vt 0.634766 0.732875
vt 0.683594 0.732875
vt 0.732422 0.732875
vt 0.781250 0.732875
vt 0.048828 0.739750
vt 0.000000 0.739750
vt 0.097656 0.739750
vt 0.146484 0.739750
vt 0.195312 0.739750
vt 0.244141 0.739750
vt 0.292969 0.739750
vt 0.341797 0.739750
vt 0.390625 0.739750
vt 0.439453 0.739750
vt 0.488281 0.739750
vt 0.537109 0.739750
vt 0.585938 0.739750
vt 0.634766 0.739750
vt 0.683594 0.739750
vt 0.732422 0.739750
vt 0.781250 0.739750
vt 0.048828 0.757625
vt 0.000000 0.757625
vt 0.097656 0.757625
vt 0.146484 0.757625
vt 0.195312 0.757625
vt 0.244141 0.757625
vt 0.292969 0.757625
vt 0.341797 0.757625
vt 0.390625 0.757625
vt 0.439453 0.757625
vt 0.488281 0.757625
vt 0.537109 0.757625
vt 0.585938 0.757625
vt 0.634766 0.757625
vt 0.683594 0.757625
vt 0.732422 0.757625
vt 0.781250 0.757625
vt 0.048828 0.764500
vt 0.000000 0.764500
vt 0.097656 0.764500
vt 0.146484 0.764500
vt 0.195312 0.764500
vt 0.244141 0.764500
vt 0.292969 0.764500
vt 0.341797 0.764500
vt 0.390625 0.764500
vt 0.439453 0.764500
vt 0.488281 0.764500
vt 0.537109 0.764500
vt 0.585938 0.764500
vt 0.634766 0.764500
vt 0.683594 0.764500
vt 0.732422 0.764500
vt 0.781250 0.764500
vt 0.048828 0.770000
vt 0.000000 0.770000
vt 0.097656 0.770000
vt 0.146484 0.770000
vt 0.195312 0.770000
vt 0.244141 0.770000
vt 0.292969 0.770000
vt 0.341797 0.770000
vt 0.390625 0.770000
vt 0.439453 0.770000
vt 0.488281 0.770000
vt 0.537109 0.770000
vt 0.585938 0.770000
vt 0.634766 0.770000
vt 0.683594 0.770000
vt 0.732422 0.770000
vt 0.781250 0.770000
vt 0.890625 0.125000
vn 0.000000 -0.000000 1.000000
vn 1.000000 -0.000000 0.000000
vn 0.000000 -0.000000 -1.000000
vn -1.000000 -0.000000 0.000000
vn 0.000000 0.832050 0.554700
vn 0.554700 0.832050 0.000000
vn 0.000000 0.832050 -0.554700
vn -0.554700 0.832050 0.000000
vn 0.000000 -1.000000 0.000000
vn 0.000000 1.000000 0.000000
vn 0.810793 0.221621 0.541755
vn 0.793621 0.298275 0.530281
vn 0.936140 0.298275 0.186210
vn 0.956396 0.221621 0.190239
vn 0.541755 0.221621 0.810793
vn 0.530281 0.298275 0.793621
vn 0.190239 0.221621 0.956396
vn 0.186210 0.298275 0.936140
vn -0.190239 0.221621 0.956396
vn -0.186210 0.298275 0.936140
vn -0.541755 0.221621 0.810793
vn -0.530281 0.298275 0.793621
vn -0.810793 0.221621 0.541755
vn -0.793621 0.298275 0.530281
vn -0.956396 0.221621 0.190239
vn -0.936140 0.298275 0.186210
vn -0.956396 0.221621 -0.190239
vn -0.936140 0.298275 -0.186210
vn -0.810793 0.221621 -0.541755
vn -0.793621 0.298275 -0.530281
vn -0.541755 0.221621 -0.810793
vn -0.530281 0.298275 -0.793621
vn -0.190239 0.221621 -0.956396
vn -0.186210 0.298275 -0.936140
vn 0.190239 0.221621 -0.956396
vn 0.186210 0.298275 -0.936140
vn 0.541755 0.221621 -0.810793
vn 0.530281 0.298275 -0.793621
vn 0.810793 0.221621 -0.541755
vn 0.793621 0.298275 -0.530281
vn 0.956396 0.221621 -0.190239
vn 0.936140 0.298275 -0.186210
vn 0.817774 0.180756 0.546419
vn 0.964630 0.180756 0.191877
vn 0.546419 0.180756 0.817774
vn 0.191877 0.180756 0.964630
vn -0.191877 0.180756 0.964630
vn -0.546419 0.180756 0.817774
vn -0.817774 0.180756 0.546419
vn -0.964630 0.180756 0.191877
vn -0.964630 0.180756 -0.191877
vn -0.817774 0.180756 -0.546419
vn -0.546419 0.180756 -0.817774
vn -0.191877 0.180756 -0.964630
vn 0.191877 0.180756 -0.964630
vn 0.546419 0.180756 -0.817774
vn 0.817774 0.180756 -0.546419
vn 0.964630 0.180756 -0.191877
vn 0.820349 0.163008 0.548139
vn 0.967667 0.163008 0.192481
vn 0.548139 0.163008 0.820349
vn 0.192481 0.163008 0.967667
vn -0.192481 0.163008 0.967667
vn -0.548139 0.163008 0.820349
vn -0.820349 0.163008 0.548139
vn -0.967667 0.163008 0.192481
vn -0.967667 0.163008 -0.192481
vn -0.820349 0.163008 -0.548139
vn -0.548139 0.163008 -0.820349
vn -0.192481 0.163008 -0.967667
vn 0.192481 0.163008 -0.967667
vn 0.548139 0.163008 -0.820349
vn 0.820349 0.163008 -0.548139
vn 0.967667 0.163008 -0.192481
vn 0.821994 0.150537 0.549239
vn 0.969609 0.150537 0.192867
vn 0.549239 0.150537 0.821994
vn 0.192867 0.150537 0.969609
vn -0.192867 0.150537 0.969609
vn -0.549239 0.150537 0.821994
vn -0.821994 0.150537 0.549239
vn -0.969609 0.150537 0.192867
vn -0.969609 0.150537 -0.192867
vn -0.821994 0.150537 -0.549239
vn -0.549239 0.150537 -0.821994
vn -0.192867 0.150537 -0.969609
vn 0.192867 0.150537 -0.969609
vn 0.549239 0.150537 -0.821994
vn 0.821994 0.150537 -0.549239
vn 0.969609 0.150537 -0.192867
vn 0.821864 0.151562 0.549152
vn 0.969455 0.151562 0.192837
vn 0.549152 0.151562 0.821864
vn 0.192837 0.151562 0.969455
vn -0.192837 0.151562 0.969455
vn -0.549152 0.151562 0.821864
vn -0.821864 0.151562 0.549152
vn -0.969455 0.151562 0.192837
vn -0.969455 0.151562 -0.192837
vn -0.821864 0.151562 -0.549152
vn -0.549152 0.151562 -0.821864
vn -0.192837 0.151562 -0.969455
vn 0.192837 0.151562 -0.969455
vn 0.549152 0.151562 -0.821864
vn 0.821864 0.151562 -0.549152
vn 0.969455 0.151562 -0.192837
vn 0.809447 0.228628 0.540855
vn 0.954808 0.228628 0.189923
vn 0.540855 0.228628 0.809447
vn 0.189923 0.228628 0.954808
vn -0.189923 0.228628 0.954808
vn -0.540855 0.228628 0.809447
vn -0.809447 0.228628 0.540855
vn -0.954808 0.228628 0.189923
vn -0.954808 0.228628 -0.189923
vn -0.809447 0.228628 -0.540855
vn -0.540855 0.228628 -0.809447
vn -0.189923 0.228628 -0.954808
vn 0.189923 0.228628 -0.954808
vn 0.540855 0.228628 -0.809447
vn 0.809447 0.228628 -0.540855
vn 0.954808 0.228628 -0.189923
vn 0.795445 0.291162 0.531500
vn 0.938292 0.291162 0.186638
vn 0.531500 0.291162 0.795445
vn 0.186638 0.291162 0.938292
vn -0.186638 0.291162 0.938292
vn -0.531500 0.291162 0.795445
vn -0.795445 0.291162 0.531500
vn -0.938292 0.291162 0.186638
vn -0.938292 0.291162 -0.186638
vn -0.795445 0.291162 -0.531500
vn -0.531500 0.291162 -0.795445
vn -0.186638 0.291162 -0.938292
vn 0.186638 0.291162 -0.938292
vn 0.531500 0.291162 -0.795445
vn 0.795445 0.291162 -0.531500
vn 0.938292 0.291162 -0.186638
vn 0.665176 -0.600000 0.444456
vn 0.784628 -0.600000 0.156072
vn 0.444456 -0.600000 0.665176
vn 0.156072 -0.600000 0.784628
vn -0.156072 -0.600000 0.784628
vn -0.444456 -0.600000 0.665176
vn -0.665176 -0.600000 0.444456
vn -0.784628 -0.600000 0.156072
vn -0.784628 -0.600000 -0.156072
vn -0.665176 -0.600000 -0.444456
vn -0.444456 -0.600000 -0.665176
vn -0.156072 -0.600000 -0.784628
vn 0.156072 -0.600000 -0.784628
vn 0.444456 -0.600000 -0.665176
vn 0.665176 -0.600000 -0.444456
vn 0.784628 -0.600000 -0.156072
vn 0.743689 -0.447214 0.496917
vn 0.877241 -0.447214 0.174494
vn 0.496917 -0.447214 0.743689
vn 0.174494 -0.447214 0.877241
vn -0.174494 -0.447214 0.877241
vn -0.496917 -0.447214 0.743689
vn -0.743689 -0.447214 0.496917
vn -0.877241 -0.447214 0.174494
vn -0.877241 -0.447214 -0.174494
vn -0.743689 -0.447214 -0.496917
vn -0.496917 -0.447214 -0.743689
vn -0.174494 -0.447214 -0.877241
vn 0.174494 -0.447214 -0.877241
vn 0.496917 -0.447214 -0.743689
vn 0.743689 -0.447214 -0.496917
vn 0.877241 -0.447214 -0.174494
vn 0.788801 0.316228 0.527060
vn 0.930455 0.316228 0.185079
vn 0.527060 0.316228 0.788801
vn 0.185079 0.316228 0.930455
vn -0.185079 0.316228 0.930455
vn -0.527060 0.316228 0.788801
vn -0.788801 0.316228 0.527060
vn -0.930455 0.316228 0.185079
vn -0.930455 0.316228 -0.185079
vn -0.788801 0.316228 -0.527060
vn -0.527060 0.316228 -0.788801
vn -0.185079 0.316228 -0.930455
vn 0.185079 0.316228 -0.930455
vn 0.527060 0.316228 -0.788801
vn 0.788801 0.316228 -0.527060
vn 0.930455 0.316228 -0.185079
vn 0.314822 0.925547 0.210357
vn 0.371358 0.925547 0.073868
vn 0.210357 0.925547 0.314822
vn 0.073868 0.925547 0.371358
vn -0.073868 0.925547 0.371358
vn -0.210357 0.925547 0.314822
vn -0.314822 0.925547 0.210357
vn -0.371358 0.925547 0.073868
vn -0.371358 0.925547 -0.073868
vn -0.314822 0.925547 -0.210357
vn -0.210357 0.925547 -0.314822
vn -0.073868 0.925547 -0.371358
vn 0.073868 0.925547 -0.371358
vn 0.210357 0.925547 -0.314822
vn 0.314822 0.925547 -0.210357
vn 0.371358 0.925547 -0.073868
vn 0.201661 0.970143 0.134746
vn 0.237875 0.970143 0.047316
vn 0.134746 0.970143 0.201661
vn 0.047316 0.970143 0.237875
vn -0.047316 0.970143 0.237875
vn -0.134746 0.970143 0.201661
vn -0.201661 0.970143 0.134746
vn -0.237875 0.970143 0.047316
vn -0.237875 0.970143 -0.047316
vn -0.201661 0.970143 -0.134746
vn -0.134746 0.970143 -0.201661
vn -0.047316 0.970143 -0.237875
vn 0.047316 0.970143 -0.237875
vn 0.134746 0.970143 -0.201661
vn 0.201661 0.970143 -0.134746
vn 0.237875 0.970143 -0.047316
usemtl body
f 1/1/1 2/2/1 3/3/1
f 1/1/1 3/3/1 4/4/1
f 2/1/2 5/2/2 6/3/2
f 2/1/2 6/3/2 3/4/2
f 5/1/3 7/2/3 8/3/3
f 5/1/3 8/3/3 6/4/3
f 7/1/4 1/2/4 4/3/4
f 7/1/4 4/3/4 8/4/4
f 4/4/5 3/3/5 9/5/5
f 4/4/5 9/5/5 10/6/5
f 3/4/6 6/3/6 11/5/6
f 3/4/6 11/5/6 9/6/6
f 6/4/7 8/3/7 12/5/7
f 6/4/7 12/5/7 11/6/7
f 8/4/8 4/3/8 10/5/8
f 8/4/8 10/5/8 12/6/8
f 7/7/9 5/7/9 2/7/9
f 7/7/9 2/7/9 1/7/9
f 10/7/10 9/7/10 11/7/10
f 10/7/10 11/7/10 12/7/10
f 13/8/11 14/9/12 15/6/13
f 16/10/14 13/8/11 15/6/13
f 17/11/15 18/12/16 14/9/12
f 13/8/11 17/11/15 14/9/12
f 19/13/17 20/14/18 18/12/16
f 17/11/15 19/13/17 18/12/16
f 21/15/19 22/16/20 20/14/18
f 19/13/17 21/15/19 20/14/18
f 23/17/21 24/18/22 22/16/20
f 21/15/19 23/17/21 22/16/20
f 25/19/23 26/20/24 24/18/22
f 23/17/21 25/19/23 24/18/22
f 27/21/25 28/22/26 26/20/24
f 25/19/23 27/21/25 26/20/24
f 29/23/27 30/24/28 28/22/26
f 27/21/25 29/23/27 28/22/26
f 31/25/29 32/26/30 30/24/28
f 29/23/27 31/25/29 30/24/28
f 33/27/31 34/28/32 32/26/30
f 31/25/29 33/27/31 32/26/30
f 35/29/33 36/30/34 34/28/32
f 33/27/31 35/29/33 34/28/32
f 37/31/35 38/32/36 36/30/34
f 35/29/33 37/31/35 36/30/34
f 39/33/37 40/34/38 38/32/36
f 37/31/35 39/33/37 38/32/36
f 41/35/39 42/36/40 40/34/38
f 39/33/37 41/35/39 40/34/38
f 43/37/41 44/38/42 42/36/40
f 41/35/39 43/37/41 42/36/40
f 16/39/14 15/5/13 44/38/42
f 43/37/41 16/39/14 44/38/42
f 45/40/43 13/8/11 16/10/14
f 46/41/44 45/40/43 16/10/14
f 47/42/45 17/11/15 13/8/11
f 45/40/43 47/42/45 13/8/11
f 48/43/46 19/13/17 17/11/15
f 47/42/45 48/43/46 17/11/15
f 49/44/47 21/15/19 19/13/17
f 48/43/46 49/44/47 19/13/17
f 50/45/48 23/17/21 21/15/19
f 49/44/47 50/45/48 21/15/19
f 51/46/49 25/19/23 23/17/21
f 50/45/48 51/46/49 23/17/21
f 52/47/50 27/21/25 25/19/23
f 51/46/49 52/47/50 25/19/23
f 53/48/51 29/23/27 27/21/25
f 52/47/50 53/48/51 27/21/25
f 54/49/52 31/25/29 29/23/27
f 53/48/51 54/49/52 29/23/27
f 55/50/53 33/27/31 31/25/29
f 54/49/52 55/50/53 31/25/29
f 56/51/54 35/29/33 33/27/31
f 55/50/53 56/51/54 33/27/31
f 57/52/55 37/31/35 35/29/33
f 56/51/54 57/52/55 35/29/33
f 58/53/56 39/33/37 37/31/35
f 57/52/55 58/53/56 37/31/35
f 59/54/57 41/35/39 39/33/37
f 58/53/56 59/54/57 39/33/37
f 60/55/58 43/37/41 41/35/39
f 59/54/57 60/55/58 41/35/39
f 46/56/44 16/39/14 43/37/41
f 60/55/58 46/56/44 43/37/41
f 61/57/59 45/40/43 46/41/44
f 62/58/60 61/57/59 46/41/44
f 63/59/61 47/42/45 45/40/43
f 61/57/59 63/59/61 45/40/43
f 64/60/62 48/43/46 47/42/45
f 63/59/61 64/60/62 47/42/45
f 65/61/63 49/44/47 48/43/46
f 64/60/62 65/61/63 48/43/46
f 66/62/64 50/45/48 49/44/47
f 65/61/63 66/62/64 49/44/47
f 67/63/65 51/46/49 50/45/48
f 66/62/64 67/63/65 50/45/48
f 68/64/66 52/47/50 51/46/49
f 67/63/65 68/64/66 51/46/49
f 69/65/67 53/48/51 52/47/50
f 68/64/66 69/65/67 52/47/50
f 70/66/68 54/49/52 53/48/51
f 69/65/67 70/66/68 53/48/51
f 71/67/69 55/50/53 54/49/52
f 70/66/68 71/67/69 54/49/52
f 72/68/70 56/51/54 55/50/53
f 71/67/69 72/68/70 55/50/53
f 73/69/71 57/52/55 56/51/54
f 72/68/70 73/69/71 56/51/54
f 74/70/72 58/53/56 57/52/55
f 73/69/71 74/70/72 57/52/55
f 75/71/73 59/54/57 58/53/56
f 74/70/72 75/71/73 58/53/56
f 76/72/74 60/55/58 59/54/57
f 75/71/73 76/72/74 59/54/57
f 62/73/60 46/56/44 60/55/58
f 76/72/74 62/73/60 60/55/58
f 77/74/75 61/57/59 62/58/60
f 78/75/76 77/74/75 62/58/60
f 79/76/77 63/59/61 61/57/59
f 77/74/75 79/76/77 61/57/59
f 80/77/78 64/60/62 63/59/61
f 79/76/77 80/77/78 63/59/61
f 81/78/79 65/61/63 64/60/62
f 80/77/78 81/78/79 64/60/62
f 82/79/80 66/62/64 65/61/63
f 81/78/79 82/79/80 65/61/63
f 83/80/81 67/63/65 66/62/64
f 82/79/80 83/80/81 66/62/64
f 84/81/82 68/64/66 67/63/65
f 83/80/81 84/81/82 67/63/65
f 85/82/83 69/65/67 68/64/66
f 84/81/82 85/82/83 68/64/66
f 86/83/84 70/66/68 69/65/67
f 85/82/83 86/83/84 69/65/67
f 87/84/85 71/67/69 70/66/68
f 86/83/84 87/84/85 70/66/68
f 88/85/86 72/68/70 71/67/69
f 87/84/85 88/85/86 71/67/69
f 89/86/87 73/69/71 72/68/70
f 88/85/86 89/86/87 72/68/70
f 90/87/88 74/70/72 73/69/71
f 89/86/87 90/87/88 73/69/71
f 91/88/89 75/71/73 74/70/72
f 90/87/88 91/88/89 74/70/72
f 92/89/90 76/72/74 75/71/73
f 91/88/89 92/89/90 75/71/73
f 78/90/76 62/73/60 76/72/74
f 92/89/90 78/90/76 76/72/74
f 93/91/91 77/74/75 78/75/76
f 94/92/92 93/91/91 78/75/76
f 95/93/93 79/76/77 77/74/75
f 93/91/91 95/93/93 77/74/75
f 96/94/94 80/77/78 79/76/77
f 95/93/93 96/94/94 79/76/77
f 97/95/95 81/78/79 80/77/78
f 96/94/94 97/95/95 80/77/78
f 98/96/96 82/79/80 81/78/79
f 97/95/95 98/96/96 81/78/79
f 99/97/97 83/80/81 82/79/80
f 98/96/96 99/97/97 82/79/80
f 100/98/98 84/81/82 83/80/81
f 99/97/97 100/98/98 83/80/81
f 101/99/99 85/82/83 84/81/82
f 100/98/98 101/99/99 84/81/82
f 102/100/100 86/83/84 85/82/83
f 101/99/99 102/100/100 85/82/83
f 103/101/101 87/84/85 86/83/84
f 102/100/100 103/101/101 86/83/84
f 104/102/102 88/85/86 87/84/85
f 103/101/101 104/102/102 87/84/85
f 105/103/103 89/86/87 88/85/86
f 104/102/102 105/103/103 88/85/86
f 106/104/104 90/87/88 89/86/87
f 105/103/103 106/104/104 89/86/87
f 107/105/105 91/88/89 90/87/88
f 106/104/104 107/105/105 90/87/88
f 108/106/106 92/89/90 91/88/89
f 107/105/105 108/106/106 91/88/89
f 94/107/92 78/90/76 92/89/90
f 108/106/106 94/107/92 92/89/90
f 109/108/107 93/91/91 94/92/92
f 110/109/108 109/108/107 94/92/92
f 111/110/109 95/93/93 93/91/91
f 109/108/107 111/110/109 93/91/91
f 112/111/110 96/94/94 95/93/93
f 111/110/109 112/111/110 95/93/93
f 113/112/111 97/95/95 96/94/94
f 112/111/110 113/112/111 96/94/94
f 114/113/112 98/96/96 97/95/95
f 113/112/111 114/113/112 97/95/95
f 115/114/113 99/97/97 98/96/96
f 114/113/112 115/114/113 98/96/96
f 116/115/114 100/98/98 99/97/97
f 115/114/113 116/115/114 99/97/97
f 117/116/115 101/99/99 100/98/98
f 116/115/114 117/116/115 100/98/98
f 118/117/116 102/100/100 101/99/99
f 117/116/115 118/117/116 101/99/99
f 119/118/117 103/101/101 102/100/100
f 118/117/116 119/118/117 102/100/100
f 120/119/118 104/102/102 103/101/101
f 119/118/117 120/119/118 103/101/101
f 121/120/119 105/103/103 104/102/102
f 120/119/118 121/120/119 104/102/102
f 122/121/120 106/104/104 105/103/103
f 121/120/119 122/121/120 105/103/103
f 123/122/121 107/105/105 106/104/104
f 122/121/120 123/122/121 106/104/104
f 124/123/122 108/106/106 107/105/105
f 123/122/121 124/123/122 107/105/105
f 110/124/108 94/107/92 108/106/106
f 124/123/122 110/124/108 108/106/106
f 125/125/123 109/108/107 110/109/108
f 126/126/124 125/125/123 110/109/108
f 127/127/125 111/110/109 109/108/107
f 125/125/123 127/127/125 109/108/107
f 128/128/126 112/111/110 111/110/109
f 127/127/125 128/128/126 111/110/109
f 129/129/127 113/112/111 112/111/110
f 128/128/126 129/129/127 112/111/110
f 130/130/128 114/113/112 113/112/111
f 129/129/127 130/130/128 113/112/111
f 131/131/129 115/114/113 114/113/112
f 130/130/128 131/131/129 114/113/112
f 132/132/130 116/115/114 115/114/113
f 131/131/129 132/132/130 115/114/113
f 133/133/131 117/116/115 116/115/114
f 132/132/130 133/133/131 116/115/114
f 134/134/132 118/117/116 117/116/115
f 133/133/131 134/134/132 117/116/115
f 135/135/133 119/118/117 118/117/116
f 134/134/132 135/135/133 118/117/116
f 136/136/134 120/119/118 119/118/117
f 135/135/133 136/136/134 119/118/117
f 137/137/135 121/120/119 120/119/118
f 136/136/134 137/137/135 120/119/118
f 138/138/136 122/121/120 121/120/119
f 137/137/135 138/138/136 121/120/119
f 139/139/137 123/122/121 122/121/120
f 138/138/136 139/139/137 122/121/120
f 140/140/138 124/123/122 123/122/121
f 139/139/137 140/140/138 123/122/121
f 126/141/124 110/124/108 124/123/122
f 140/140/138 126/141/124 124/123/122
f 141/142/139 125/125/123 126/126/124
f 142/143/140 141/142/139 126/126/124
f 143/144/141 127/127/125 125/125/123
f 141/142/139 143/144/141 125/125/123
f 144/145/142 128/128/126 127/127/125
f 143/144/141 144/145/142 127/127/125
f 145/146/143 129/129/127 128/128/126
f 144/145/142 145/146/143 128/128/126
f 146/147/144 130/130/128 129/129/127
f 145/146/143 146/147/144 129/129/127
f 147/148/145 131/131/129 130/130/128
f 146/147/144 147/148/145 130/130/128
f 148/149/146 132/132/130 131/131/129
f 147/148/145 148/149/146 131/131/129
f 149/150/147 133/133/131 132/132/130
f 148/149/146 149/150/147 132/132/130
f 150/151/148 134/134/132 133/133/131
f 149/150/147 150/151/148 133/133/131
f 151/152/149 135/135/133 134/134/132
f 150/151/148 151/152/149 134/134/132
f 152/153/150 136/136/134 135/135/133
f 151/152/149 152/153/150 135/135/133
f 153/154/151 137/137/135 136/136/134
f 152/153/150 153/154/151 136/136/134
f 154/155/152 138/138/136 137/137/135
f 153/154/151 154/155/152 137/137/135
f 155/156/153 139/139/137 138/138/136
f 154/155/152 155/156/153 138/138/136
f 156/157/154 140/140/138 139/139/137
f 155/156/153 156/157/154 139/139/137
f 142/158/140 126/141/124 140/140/138
f 156/157/154 142/158/140 140/140/138
f 157/159/155 141/142/139 142/143/140
f 158/160/156 157/159/155 142/143/140
f 159/161/157 143/144/141 141/142/139
f 157/159/155 159/161/157 141/142/139
f 160/162/158 144/145/142 143/144/141
f 159/161/157 160/162/158 143/144/141
f 161/163/159 145/146/143 144/145/142
f 160/162/158 161/163/159 144/145/142
f 162/164/160 146/147/144 145/146/143
f 161/163/159 162/164/160 145/146/143
f 163/165/161 147/148/145 146/147/144
f 162/164/160 163/165/161 146/147/144
f 164/166/162 148/149/146 147/148/145
f 163/165/161 164/166/162 147/148/145
f 165/167/163 149/150/147 148/149/146
f 164/166/162 165/167/163 148/149/146
f 166/168/164 150/151/148 149/150/147
f 165/167/163 166/168/164 149/150/147
f 167/169/165 151/152/149 150/151/148
f 166/168/164 167/169/165 150/151/148
f 168/170/166 152/153/150 151/152/149
f 167/169/165 168/170/166 151/152/149
f 169/171/167 153/154/151 152/153/150
f 168/170/166 169/171/167 152/153/150
f 170/172/168 154/155/152 153/154/151
f 169/171/167 170/172/168 153/154/151
f 171/173/169 155/156/153 154/155/152
f 170/172/168 171/173/169 154/155/152
f 172/174/170 156/157/154 155/156/153
f 171/173/169 172/174/170 155/156/153
f 158/175/156 142/158/140 156/157/154
f 172/174/170 158/175/156 156/157/154
f 173/176/171 157/159/155 158/160/156
f 174/177/172 173/176/171 158/160/156
f 175/178/173 159/161/157 157/159/155
f 173/176/171 175/178/173 157/159/155
f 176/179/174 160/162/158 159/161/157
f 175/178/173 176/179/174 159/161/157
f 177/180/175 161/163/159 160/162/158
f 176/179/174 177/180/175 160/162/158
f 178/181/176 162/164/160 161/163/159
f 177/180/175 178/181/176 161/163/159
f 179/182/177 163/165/161 162/164/160
f 178/181/176 179/182/177 162/164/160
f 180/183/178 164/166/162 163/165/161
f 179/182/177 180/183/178 163/165/161
f 181/184/179 165/167/163 164/166/162
f 180/183/178 181/184/179 164/166/162
f 182/185/180 166/168/164 165/167/163
f 181/184/179 182/185/180 165/167/163
f 183/186/181 167/169/165 166/168/164
f 182/185/180 183/186/181 166/168/164
f 184/187/182 168/170/166 167/169/165
f 183/186/181 184/187/182 167/169/165
f 185/188/183 169/171/167 168/170/166
f 184/187/182 185/188/183 168/170/166
f 186/189/184 170/172/168 169/171/167
f 185/188/183 186/189/184 169/171/167
f 187/190/185 171/173/169 170/172/168
f 186/189/184 187/190/185 170/172/168
f 188/191/186 172/174/170 171/173/169
f 187/190/185 188/191/186 171/173/169
f 174/192/172 158/175/156 172/174/170
f 188/191/186 174/192/172 172/174/170
f 189/193/187 173/176/171 174/177/172
f 190/194/188 189/193/187 174/177/172
f 191/195/189 175/178/173 173/176/171
f 189/193/187 191/195/189 173/176/171
f 192/196/190 176/179/174 175/178/173
f 191/195/189 192/196/190 175/178/173
f 193/197/191 177/180/175 176/179/174
f 192/196/190 193/197/191 176/179/174
f 194/198/192 178/181/176 177/180/175
f 193/197/191 194/198/192 177/180/175
f 195/199/193 179/182/177 178/181/176
f 194/198/192 195/199/193 178/181/176
f 196/200/194 180/183/178 179/182/177
f 195/199/193 196/200/194 179/182/177
f 197/201/195 181/184/179 180/183/178
f 196/200/194 197/201/195 180/183/178
f 198/202/196 182/185/180 181/184/179
f 197/201/195 198/202/196 181/184/179
f 199/203/197 183/186/181 182/185/180
f 198/202/196 199/203/197 182/185/180
f 200/204/198 184/187/182 183/186/181
f 199/203/197 200/204/198 183/186/181
f 201/205/199 185/188/183 184/187/182
f 200/204/198 201/205/199 184/187/182
f 202/206/200 186/189/184 185/188/183
f 201/205/199 202/206/200 185/188/183
f 203/207/201 187/190/185 186/189/184
f 202/206/200 203/207/201 186/189/184
f 204/208/202 188/191/186 187/190/185
f 203/207/201 204/208/202 187/190/185
f 190/209/188 174/192/172 188/191/186
f 204/208/202 190/209/188 188/191/186
f 205/210/203 189/193/187 190/194/188
f 206/211/204 205/210/203 190/194/188
f 207/212/205 191/195/189 189/193/187
f 205/210/203 207/212/205 189/193/187
f 208/213/206 192/196/190 191/195/189
f 207/212/205 208/213/206 191/195/189
f 209/214/207 193/197/191 192/196/190
f 208/213/206 209/214/207 192/196/190
f 210/215/208 194/198/192 193/197/191
f 209/214/207 210/215/208 193/197/191
f 211/216/209 195/199/193 194/198/192
f 210/215/208 211/216/209 194/198/192
f 212/217/210 196/200/194 195/199/193
f 211/216/209 212/217/210 195/199/193
f 213/218/211 197/201/195 196/200/194
f 212/217/210 213/218/211 196/200/194
f 214/219/212 198/202/196 197/201/195
f 213/218/211 214/219/212 197/201/195
f 215/220/213 199/203/197 198/202/196
f 214/219/212 215/220/213 198/202/196
f 216/221/214 200/204/198 199/203/197
f 215/220/213 216/221/214 199/203/197
f 217/222/215 201/205/199 200/204/198
f 216/221/214 217/222/215 200/204/198
f 218/223/216 202/206/200 201/205/199
f 217/222/215 218/223/216 201/205/199
f 219/224/217 203/207/201 202/206/200
f 218/223/216 219/224/217 202/206/200
f 220/225/218 204/208/202 203/207/201
f 219/224/217 220/225/218 203/207/201
f 206/226/204 190/209/188 204/208/202
f 220/225/218 206/226/204 204/208/202
f 221/227/10 205/227/10 206/227/10
f 221/227/10 207/227/10 205/227/10
f 221/227/10 208/227/10 207/227/10
f 221/227/10 209/227/10 208/227/10
f 221/227/10 210/227/10 209/227/10
f 221/227/10 211/227/10 210/227/10
f 221/227/10 212/227/10 211/227/10
f 221/227/10 213/227/10 212/227/10
f 221/227/10 214/227/10 213/227/10
f 221/227/10 215/227/10 214/227/10
f 221/227/10 216/227/10 215/227/10
f 221/227/10 217/227/10 216/227/10
f 221/227/10 218/227/10 217/227/10
f 221/227/10 219/227/10 218/227/10
f 221/227/10 220/227/10 219/227/10
f 221/227/10 206/227/10 220/227/10
