# Procedurally generated by dev-env-utils/scripts/gen_work_zone_devices.py -- do not hand edit
mtllib workzone_safety_fence.mtl
o workzone_safety_fence_core
v 0.030000 0.000000 0.526250
v 0.030000 0.887500 0.526250
v 0.030000 0.887500 0.473750
v 0.030000 0.000000 0.473750
v 0.082500 0.000000 0.473750
v 0.082500 0.887500 0.473750
v 0.082500 0.887500 0.526250
v 0.082500 0.000000 0.526250
v 0.917500 0.000000 0.526250
v 0.917500 0.887500 0.526250
v 0.917500 0.887500 0.473750
v 0.917500 0.000000 0.473750
v 0.970000 0.000000 0.473750
v 0.970000 0.887500 0.473750
v 0.970000 0.887500 0.526250
v 0.970000 0.000000 0.526250
v 0.000000 0.075000 0.503750
v 1.000000 0.075000 0.503750
v 1.000000 0.843750 0.503750
v 0.000000 0.843750 0.503750
v 0.000000 0.843750 0.496250
v 1.000000 0.843750 0.496250
v 1.000000 0.075000 0.496250
v 0.000000 0.075000 0.496250
vt 0.890625 0.625000
vt 0.000000 0.075000
vt 0.781250 0.075000
vt 0.781250 0.843750
vt 0.000000 0.843750
vn -1.000000 0.000000 0.000000
vn 1.000000 0.000000 0.000000
vn 0.000000 -1.000000 0.000000
vn 0.000000 1.000000 0.000000
vn 0.000000 0.000000 -1.000000
vn 0.000000 0.000000 1.000000
usemtl body
f 1/1/1 2/1/1 3/1/1
f 1/1/1 3/1/1 4/1/1
f 5/1/2 6/1/2 7/1/2
f 5/1/2 7/1/2 8/1/2
f 4/1/3 5/1/3 8/1/3
f 4/1/3 8/1/3 1/1/3
f 2/1/4 7/1/4 6/1/4
f 2/1/4 6/1/4 3/1/4
f 3/1/5 6/1/5 5/1/5
f 3/1/5 5/1/5 4/1/5
f 1/1/6 8/1/6 7/1/6
f 1/1/6 7/1/6 2/1/6
f 9/1/1 10/1/1 11/1/1
f 9/1/1 11/1/1 12/1/1
f 13/1/2 14/1/2 15/1/2
f 13/1/2 15/1/2 16/1/2
f 12/1/3 13/1/3 16/1/3
f 12/1/3 16/1/3 9/1/3
f 10/1/4 15/1/4 14/1/4
f 10/1/4 14/1/4 11/1/4
f 11/1/5 14/1/5 13/1/5
f 11/1/5 13/1/5 12/1/5
f 9/1/6 16/1/6 15/1/6
f 9/1/6 15/1/6 10/1/6
f 17/2/6 18/3/6 19/4/6
f 17/2/6 19/4/6 20/5/6
f 21/5/5 22/4/5 23/3/5
f 21/5/5 23/3/5 24/2/5
