# Procedurally generated by dev-env-utils/scripts/gen_work_zone_devices.py -- do not hand edit
mtllib workzone_signal_trailer_arm.mtl
o workzone_signal_trailer_arm
v -1.875000 0.700000 1.312500
v -1.875000 1.400000 1.312500
v -1.875000 1.400000 -0.312500
v -1.875000 0.700000 -0.312500
v 2.125000 0.700000 -0.312500
v 2.125000 1.400000 -0.312500
v 2.125000 1.400000 1.312500
v 2.125000 0.700000 1.312500
v 2.125000 0.850000 0.675000
v 2.125000 1.187500 0.675000
v 2.125000 1.187500 0.325000
v 2.125000 0.850000 0.325000
v 3.500000 0.850000 0.325000
v 3.500000 1.187500 0.325000
v 3.500000 1.187500 0.675000
v 3.500000 0.850000 0.675000
v 0.731299 0.834498 -0.725000
v 0.499713 1.153248 -0.725000
v 0.499713 1.153248 -0.325000
v 0.731299 0.834498 -0.325000
v 0.125000 1.275000 -0.725000
v 0.125000 1.275000 -0.325000
v -0.249713 1.153248 -0.725000
v -0.249713 1.153248 -0.325000
v -0.481299 0.834498 -0.725000
v -0.481299 0.834498 -0.325000
v -0.481299 0.440502 -0.725000
v -0.481299 0.440502 -0.325000
v -0.249713 0.121752 -0.725000
v -0.249713 0.121752 -0.325000
v 0.125000 0.000000 -0.725000
v 0.125000 0.000000 -0.325000
v 0.499713 0.121752 -0.725000
v 0.499713 0.121752 -0.325000
v 0.731299 0.440502 -0.725000
v 0.731299 0.440502 -0.325000
v 0.125000 0.637500 -0.325000
v 0.125000 0.637500 -0.725000
v 0.731299 0.834498 -0.300000
v 0.499713 1.153248 -0.300000
v 0.499713 1.153248 0.100000
v 0.731299 0.834498 0.100000
v 0.125000 1.275000 -0.300000
v 0.125000 1.275000 0.100000
v -0.249713 1.153248 -0.300000
v -0.249713 1.153248 0.100000
v -0.481299 0.834498 -0.300000
v -0.481299 0.834498 0.100000
v -0.481299 0.440502 -0.300000
v -0.481299 0.440502 0.100000
v -0.249713 0.121752 -0.300000
v -0.249713 0.121752 0.100000
v 0.125000 0.000000 -0.300000
v 0.125000 0.000000 0.100000
v 0.499713 0.121752 -0.300000
v 0.499713 0.121752 0.100000
v 0.731299 0.440502 -0.300000
v 0.731299 0.440502 0.100000
v 0.125000 0.637500 0.100000
v 0.125000 0.637500 -0.300000
v 0.731299 0.834498 0.900000
v 0.499713 1.153248 0.900000
v 0.499713 1.153248 1.300000
v 0.731299 0.834498 1.300000
v 0.125000 1.275000 0.900000
v 0.125000 1.275000 1.300000
v -0.249713 1.153248 0.900000
v -0.249713 1.153248 1.300000
v -0.481299 0.834498 0.900000
v -0.481299 0.834498 1.300000
v -0.481299 0.440502 0.900000
v -0.481299 0.440502 1.300000
v -0.249713 0.121752 0.900000
v -0.249713 0.121752 1.300000
v 0.125000 0.000000 0.900000
v 0.125000 0.000000 1.300000
v 0.499713 0.121752 0.900000
v 0.499713 0.121752 1.300000
v 0.731299 0.440502 0.900000
v 0.731299 0.440502 1.300000
v 0.125000 0.637500 1.300000
v 0.125000 0.637500 0.900000
v 0.731299 0.834498 1.325000
v 0.499713 1.153248 1.325000
v 0.499713 1.153248 1.725000
v 0.731299 0.834498 1.725000
v 0.125000 1.275000 1.325000
v 0.125000 1.275000 1.725000
v -0.249713 1.153248 1.325000
v -0.249713 1.153248 1.725000
v -0.481299 0.834498 1.325000
v -0.481299 0.834498 1.725000
v -0.481299 0.440502 1.325000
v -0.481299 0.440502 1.725000
v -0.249713 0.121752 1.325000
v -0.249713 0.121752 1.725000
v 0.125000 0.000000 1.325000
v 0.125000 0.000000 1.725000
v 0.499713 0.121752 1.325000
v 0.499713 0.121752 1.725000
v 0.731299 0.440502 1.325000
v 0.731299 0.440502 1.725000
v 0.125000 0.637500 1.725000
v 0.125000 0.637500 1.325000
v -1.706562 0.812500 -0.250000
v -1.706562 1.012500 -0.250000
v -1.706562 1.012500 -0.687500
v -1.706562 0.812500 -0.687500
v -1.543438 0.812500 -0.687500
v -1.543438 1.012500 -0.687500
v -1.543438 1.012500 -0.250000
v -1.543438 0.812500 -0.250000
v -1.715625 0.037500 -0.596875
v -1.715625 0.762500 -0.596875
v -1.715625 0.762500 -0.778125
v -1.715625 0.037500 -0.778125
v -1.534375 0.037500 -0.778125
v -1.534375 0.762500 -0.778125
v -1.534375 0.762500 -0.596875
v -1.534375 0.037500 -0.596875
v -1.824375 0.000000 -0.488125
v -1.824375 0.050000 -0.488125
v -1.824375 0.050000 -0.886875
v -1.824375 0.000000 -0.886875
v -1.425625 0.000000 -0.886875
v -1.425625 0.050000 -0.886875
v -1.425625 0.050000 -0.488125
v -1.425625 0.000000 -0.488125
v -1.706562 0.812500 1.687500
v -1.706562 1.012500 1.687500
v -1.706562 1.012500 1.250000
v -1.706562 0.812500 1.250000
v -1.543438 0.812500 1.250000
v -1.543438 1.012500 1.250000
v -1.543438 1.012500 1.687500
v -1.543438 0.812500 1.687500
v -1.715625 0.037500 1.778125
v -1.715625 0.762500 1.778125
v -1.715625 0.762500 1.596875
v -1.715625 0.037500 1.596875
v -1.534375 0.037500 1.596875
v -1.534375 0.762500 1.596875
v -1.534375 0.762500 1.778125
v -1.534375 0.037500 1.778125
v -1.824375 0.000000 1.886875
v -1.824375 0.050000 1.886875
v -1.824375 0.050000 1.488125
v -1.824375 0.000000 1.488125
v -1.425625 0.000000 1.488125
v -1.425625 0.050000 1.488125
v -1.425625 0.050000 1.886875
v -1.425625 0.000000 1.886875
v 1.793438 0.812500 -0.250000
v 1.793438 1.012500 -0.250000
v 1.793438 1.012500 -0.687500
v 1.793438 0.812500 -0.687500
v 1.956562 0.812500 -0.687500
v 1.956562 1.012500 -0.687500
v 1.956562 1.012500 -0.250000
v 1.956562 0.812500 -0.250000
v 1.784375 0.037500 -0.596875
v 1.784375 0.762500 -0.596875
v 1.784375 0.762500 -0.778125
v 1.784375 0.037500 -0.778125
v 1.965625 0.037500 -0.778125
v 1.965625 0.762500 -0.778125
v 1.965625 0.762500 -0.596875
v 1.965625 0.037500 -0.596875
v 1.675625 0.000000 -0.488125
v 1.675625 0.050000 -0.488125
v 1.675625 0.050000 -0.886875
v 1.675625 0.000000 -0.886875
v 2.074375 0.000000 -0.886875
v 2.074375 0.050000 -0.886875
v 2.074375 0.050000 -0.488125
v 2.074375 0.000000 -0.488125
v 1.793438 0.812500 1.687500
v 1.793438 1.012500 1.687500
v 1.793438 1.012500 1.250000
v 1.793438 0.812500 1.250000
v 1.956562 0.812500 1.250000
v 1.956562 1.012500 1.250000
v 1.956562 1.012500 1.687500
v 1.956562 0.812500 1.687500
v 1.784375 0.037500 1.778125
v 1.784375 0.762500 1.778125
v 1.784375 0.762500 1.596875
v 1.784375 0.037500 1.596875
v 1.965625 0.037500 1.596875
v 1.965625 0.762500 1.596875
v 1.965625 0.762500 1.778125
v 1.965625 0.037500 1.778125
v 1.675625 0.000000 1.886875
v 1.675625 0.050000 1.886875
v 1.675625 0.050000 1.488125
v 1.675625 0.000000 1.488125
v 2.074375 0.000000 1.488125
v 2.074375 0.050000 1.488125
v 2.074375 0.050000 1.886875
v 2.074375 0.000000 1.886875
v -1.750000 1.706250 1.218750
v 0.125000 1.706250 1.218750
v 0.125000 1.493750 -0.218750
v -1.750000 1.493750 -0.218750
v -1.750000 1.437500 -0.218750
v 0.125000 1.437500 -0.218750
v 0.125000 1.650000 1.218750
v -1.750000 1.650000 1.218750
v -1.609375 1.375000 1.193750
v -1.609375 1.678125 1.193750
v -1.609375 1.678125 1.087500
v -1.609375 1.375000 1.087500
v -1.515625 1.375000 1.087500
v -1.515625 1.678125 1.087500
v -1.515625 1.678125 1.193750
v -1.515625 1.375000 1.193750
v -0.109375 1.375000 1.193750
v -0.109375 1.678125 1.193750
v -0.109375 1.678125 1.087500
v -0.109375 1.375000 1.087500
v -0.015625 1.375000 1.087500
v -0.015625 1.678125 1.087500
v -0.015625 1.678125 1.193750
v -0.015625 1.375000 1.193750
v 0.875000 1.381250 0.975000
v 0.875000 2.750000 0.975000
v 0.875000 2.750000 0.025000
v 0.875000 1.381250 0.025000
v 2.000000 1.381250 0.025000
v 2.000000 2.750000 0.025000
v 2.000000 2.750000 0.975000
v 2.000000 1.381250 0.975000
v 0.312500 1.325000 0.687500
v 0.312500 7.125000 0.687500
v 0.312500 7.125000 0.312500
v 0.312500 1.325000 0.312500
v 0.687500 1.325000 0.312500
v 0.687500 7.125000 0.312500
v 0.687500 7.125000 0.687500
v 0.687500 1.325000 0.687500
v 0.362500 6.087500 0.500000
v 0.637500 6.087500 0.500000
v 0.637500 6.412500 0.500000
v 0.362500 6.412500 0.500000
v 0.375000 8.000000 -2.000000
v 0.625000 8.000000 -2.000000
v 0.625000 8.262500 -2.000000
v 0.375000 8.262500 -2.000000
v 0.428125 8.162500 -8.000000
v 0.571875 8.162500 -8.000000
v 0.571875 8.000000 -8.000000
v 0.428125 8.000000 -8.000000
v 0.250000 5.912500 0.719375
v 0.250000 6.587500 0.719375
v 0.250000 6.587500 0.162500
v 0.250000 5.912500 0.162500
v 0.337500 5.912500 0.162500
v 0.337500 6.587500 0.162500
v 0.337500 6.587500 0.719375
v 0.337500 5.912500 0.719375
v 0.662500 5.912500 0.719375
v 0.662500 6.587500 0.719375
v 0.662500 6.587500 0.162500
v 0.662500 5.912500 0.162500
v 0.750000 5.912500 0.162500
v 0.750000 6.587500 0.162500
v 0.750000 6.587500 0.719375
v 0.750000 5.912500 0.719375
v 0.421875 8.200000 -2.296875
v 0.421875 9.200000 -2.296875
v 0.421875 9.200000 -2.453125
v 0.421875 8.200000 -2.453125
v 0.578125 8.200000 -2.453125
v 0.578125 9.200000 -2.453125
v 0.578125 9.200000 -2.296875
v 0.578125 8.200000 -2.296875
v 0.431250 9.050000 -2.306250
v 0.568750 9.050000 -2.306250
v 0.568750 9.050000 -2.443750
v 0.431250 9.050000 -2.443750
v 0.431250 8.212500 -5.348750
v 0.568750 8.212500 -5.348750
v 0.568750 8.212500 -5.211250
v 0.431250 8.212500 -5.211250
v 0.409375 4.125000 0.409375
v 0.590625 4.125000 0.409375
v 0.590625 4.125000 0.590625
v 0.409375 4.125000 0.590625
v 0.409375 6.953250 -0.459375
v 0.590625 6.953250 -0.459375
v 0.590625 6.953250 -0.640625
v 0.409375 6.953250 -0.640625
vt 0.890625 0.125000
vt 0.890625 0.375000
vt 0.890625 0.625000
vt 0.030000 0.920000
vt 0.720000 0.920000
vt 0.720000 0.550000
vt 0.030000 0.550000
vn -1.000000 0.000000 0.000000
vn 1.000000 0.000000 0.000000
vn 0.000000 -1.000000 0.000000
vn 0.000000 1.000000 0.000000
vn 0.000000 0.000000 -1.000000
vn 0.000000 0.000000 1.000000
vn 0.951057 0.309017 0.000000
vn 0.587785 0.809017 0.000000
vn -0.587785 0.809017 0.000000
vn -0.951057 0.309017 0.000000
vn -0.951057 -0.309017 0.000000
vn -0.587785 -0.809017 0.000000
vn 0.587785 -0.809017 0.000000
vn 0.951057 -0.309017 0.000000
vn 0.000000 0.989250 -0.146237
vn 0.000000 -0.989250 0.146237
vn 0.000000 -0.146237 -0.989250
vn 0.000000 0.146237 0.989250
vn 0.000000 -0.794245 -0.607598
vn 0.999988 -0.000000 -0.005000
vn 0.000000 0.803842 0.594843
vn -0.999988 -0.000000 -0.005000
vn 0.999961 -0.000000 -0.008854
vn -0.000000 0.999861 -0.016664
vn -0.999961 -0.000000 -0.008854
vn 0.000000 0.960866 -0.277014
vn 0.000000 -0.960866 0.277014
vn 0.000000 -0.348043 -0.937479
vn 0.000000 0.348043 0.937479
usemtl body
f 1/1/1 2/1/1 3/1/1
f 1/1/1 3/1/1 4/1/1
f 5/1/2 6/1/2 7/1/2
f 5/1/2 7/1/2 8/1/2
f 4/1/3 5/1/3 8/1/3
f 4/1/3 8/1/3 1/1/3
f 2/1/4 7/1/4 6/1/4
f 2/1/4 6/1/4 3/1/4
f 3/1/5 6/1/5 5/1/5
f 3/1/5 5/1/5 4/1/5
f 1/1/6 8/1/6 7/1/6
f 1/1/6 7/1/6 2/1/6
f 9/1/1 10/1/1 11/1/1
f 9/1/1 11/1/1 12/1/1
f 13/1/2 14/1/2 15/1/2
f 13/1/2 15/1/2 16/1/2
f 12/1/3 13/1/3 16/1/3
f 12/1/3 16/1/3 9/1/3
f 10/1/4 15/1/4 14/1/4
f 10/1/4 14/1/4 11/1/4
f 11/1/5 14/1/5 13/1/5
f 11/1/5 13/1/5 12/1/5
f 9/1/6 16/1/6 15/1/6
f 9/1/6 15/1/6 10/1/6
f 17/2/7 18/2/8 19/2/8
f 17/2/7 19/2/8 20/2/7
f 18/2/8 21/2/4 22/2/4
f 18/2/8 22/2/4 19/2/8
f 21/2/4 23/2/9 24/2/9
f 21/2/4 24/2/9 22/2/4
f 23/2/9 25/2/10 26/2/10
f 23/2/9 26/2/10 24/2/9
f 25/2/10 27/2/11 28/2/11
f 25/2/10 28/2/11 26/2/10
f 27/2/11 29/2/12 30/2/12
f 27/2/11 30/2/12 28/2/11
f 29/2/12 31/2/3 32/2/3
f 29/2/12 32/2/3 30/2/12
f 31/2/3 33/2/13 34/2/13
f 31/2/3 34/2/13 32/2/3
f 33/2/13 35/2/14 36/2/14
f 33/2/13 36/2/14 34/2/13
f 35/2/14 17/2/7 20/2/7
f 35/2/14 20/2/7 36/2/14
f 37/2/6 20/2/6 19/2/6
f 37/2/6 19/2/6 22/2/6
f 37/2/6 22/2/6 24/2/6
f 37/2/6 24/2/6 26/2/6
f 37/2/6 26/2/6 28/2/6
f 37/2/6 28/2/6 30/2/6
f 37/2/6 30/2/6 32/2/6
f 37/2/6 32/2/6 34/2/6
f 37/2/6 34/2/6 36/2/6
f 37/2/6 36/2/6 20/2/6
f 38/2/5 18/2/5 17/2/5
f 38/2/5 21/2/5 18/2/5
f 38/2/5 23/2/5 21/2/5
f 38/2/5 25/2/5 23/2/5
f 38/2/5 27/2/5 25/2/5
f 38/2/5 29/2/5 27/2/5
f 38/2/5 31/2/5 29/2/5
f 38/2/5 33/2/5 31/2/5
f 38/2/5 35/2/5 33/2/5
f 38/2/5 17/2/5 35/2/5
f 39/2/7 40/2/8 41/2/8
f 39/2/7 41/2/8 42/2/7
f 40/2/8 43/2/4 44/2/4
f 40/2/8 44/2/4 41/2/8
f 43/2/4 45/2/9 46/2/9
f 43/2/4 46/2/9 44/2/4
f 45/2/9 47/2/10 48/2/10
f 45/2/9 48/2/10 46/2/9
f 47/2/10 49/2/11 50/2/11
f 47/2/10 50/2/11 48/2/10
f 49/2/11 51/2/12 52/2/12
f 49/2/11 52/2/12 50/2/11
f 51/2/12 53/2/3 54/2/3
f 51/2/12 54/2/3 52/2/12
f 53/2/3 55/2/13 56/2/13
f 53/2/3 56/2/13 54/2/3
f 55/2/13 57/2/14 58/2/14
f 55/2/13 58/2/14 56/2/13
f 57/2/14 39/2/7 42/2/7
f 57/2/14 42/2/7 58/2/14
f 59/2/6 42/2/6 41/2/6
f 59/2/6 41/2/6 44/2/6
f 59/2/6 44/2/6 46/2/6
f 59/2/6 46/2/6 48/2/6
f 59/2/6 48/2/6 50/2/6
f 59/2/6 50/2/6 52/2/6
f 59/2/6 52/2/6 54/2/6
f 59/2/6 54/2/6 56/2/6
f 59/2/6 56/2/6 58/2/6
f 59/2/6 58/2/6 42/2/6
f 60/2/5 40/2/5 39/2/5
f 60/2/5 43/2/5 40/2/5
f 60/2/5 45/2/5 43/2/5
f 60/2/5 47/2/5 45/2/5
f 60/2/5 49/2/5 47/2/5
f 60/2/5 51/2/5 49/2/5
f 60/2/5 53/2/5 51/2/5
f 60/2/5 55/2/5 53/2/5
f 60/2/5 57/2/5 55/2/5
f 60/2/5 39/2/5 57/2/5
f 61/2/7 62/2/8 63/2/8
f 61/2/7 63/2/8 64/2/7
f 62/2/8 65/2/4 66/2/4
f 62/2/8 66/2/4 63/2/8
f 65/2/4 67/2/9 68/2/9
f 65/2/4 68/2/9 66/2/4
f 67/2/9 69/2/10 70/2/10
f 67/2/9 70/2/10 68/2/9
f 69/2/10 71/2/11 72/2/11
f 69/2/10 72/2/11 70/2/10
f 71/2/11 73/2/12 74/2/12
f 71/2/11 74/2/12 72/2/11
f 73/2/12 75/2/3 76/2/3
f 73/2/12 76/2/3 74/2/12
f 75/2/3 77/2/13 78/2/13
f 75/2/3 78/2/13 76/2/3
f 77/2/13 79/2/14 80/2/14
f 77/2/13 80/2/14 78/2/13
f 79/2/14 61/2/7 64/2/7
f 79/2/14 64/2/7 80/2/14
f 81/2/6 64/2/6 63/2/6
f 81/2/6 63/2/6 66/2/6
f 81/2/6 66/2/6 68/2/6
f 81/2/6 68/2/6 70/2/6
f 81/2/6 70/2/6 72/2/6
f 81/2/6 72/2/6 74/2/6
f 81/2/6 74/2/6 76/2/6
f 81/2/6 76/2/6 78/2/6
f 81/2/6 78/2/6 80/2/6
f 81/2/6 80/2/6 64/2/6
f 82/2/5 62/2/5 61/2/5
f 82/2/5 65/2/5 62/2/5
f 82/2/5 67/2/5 65/2/5
f 82/2/5 69/2/5 67/2/5
f 82/2/5 71/2/5 69/2/5
f 82/2/5 73/2/5 71/2/5
f 82/2/5 75/2/5 73/2/5
f 82/2/5 77/2/5 75/2/5
f 82/2/5 79/2/5 77/2/5
f 82/2/5 61/2/5 79/2/5
f 83/2/7 84/2/8 85/2/8
f 83/2/7 85/2/8 86/2/7
f 84/2/8 87/2/4 88/2/4
f 84/2/8 88/2/4 85/2/8
f 87/2/4 89/2/9 90/2/9
f 87/2/4 90/2/9 88/2/4
f 89/2/9 91/2/10 92/2/10
f 89/2/9 92/2/10 90/2/9
f 91/2/10 93/2/11 94/2/11
f 91/2/10 94/2/11 92/2/10
f 93/2/11 95/2/12 96/2/12
f 93/2/11 96/2/12 94/2/11
f 95/2/12 97/2/3 98/2/3
f 95/2/12 98/2/3 96/2/12
f 97/2/3 99/2/13 100/2/13
f 97/2/3 100/2/13 98/2/3
f 99/2/13 101/2/14 102/2/14
f 99/2/13 102/2/14 100/2/13
f 101/2/14 83/2/7 86/2/7
f 101/2/14 86/2/7 102/2/14
f 103/2/6 86/2/6 85/2/6
f 103/2/6 85/2/6 88/2/6
f 103/2/6 88/2/6 90/2/6
f 103/2/6 90/2/6 92/2/6
f 103/2/6 92/2/6 94/2/6
f 103/2/6 94/2/6 96/2/6
f 103/2/6 96/2/6 98/2/6
f 103/2/6 98/2/6 100/2/6
f 103/2/6 100/2/6 102/2/6
f 103/2/6 102/2/6 86/2/6
f 104/2/5 84/2/5 83/2/5
f 104/2/5 87/2/5 84/2/5
f 104/2/5 89/2/5 87/2/5
f 104/2/5 91/2/5 89/2/5
f 104/2/5 93/2/5 91/2/5
f 104/2/5 95/2/5 93/2/5
f 104/2/5 97/2/5 95/2/5
f 104/2/5 99/2/5 97/2/5
f 104/2/5 101/2/5 99/2/5
f 104/2/5 83/2/5 101/2/5
f 105/1/1 106/1/1 107/1/1
f 105/1/1 107/1/1 108/1/1
f 109/1/2 110/1/2 111/1/2
f 109/1/2 111/1/2 112/1/2
f 108/1/3 109/1/3 112/1/3
f 108/1/3 112/1/3 105/1/3
f 106/1/4 111/1/4 110/1/4
f 106/1/4 110/1/4 107/1/4
f 107/1/5 110/1/5 109/1/5
f 107/1/5 109/1/5 108/1/5
f 105/1/6 112/1/6 111/1/6
f 105/1/6 111/1/6 106/1/6
f 113/3/1 114/3/1 115/3/1
f 113/3/1 115/3/1 116/3/1
f 117/3/2 118/3/2 119/3/2
f 117/3/2 119/3/2 120/3/2
f 114/3/4 119/3/4 118/3/4
f 114/3/4 118/3/4 115/3/4
f 115/3/5 118/3/5 117/3/5
f 115/3/5 117/3/5 116/3/5
f 113/3/6 120/3/6 119/3/6
f 113/3/6 119/3/6 114/3/6
f 121/3/1 122/3/1 123/3/1
f 121/3/1 123/3/1 124/3/1
f 125/3/2 126/3/2 127/3/2
f 125/3/2 127/3/2 128/3/2
f 124/3/3 125/3/3 128/3/3
f 124/3/3 128/3/3 121/3/3
f 122/3/4 127/3/4 126/3/4
f 122/3/4 126/3/4 123/3/4
f 123/3/5 126/3/5 125/3/5
f 123/3/5 125/3/5 124/3/5
f 121/3/6 128/3/6 127/3/6
f 121/3/6 127/3/6 122/3/6
f 129/1/1 130/1/1 131/1/1
f 129/1/1 131/1/1 132/1/1
f 133/1/2 134/1/2 135/1/2
f 133/1/2 135/1/2 136/1/2
f 132/1/3 133/1/3 136/1/3
f 132/1/3 136/1/3 129/1/3
f 130/1/4 135/1/4 134/1/4
f 130/1/4 134/1/4 131/1/4
f 131/1/5 134/1/5 133/1/5
f 131/1/5 133/1/5 132/1/5
f 129/1/6 136/1/6 135/1/6
f 129/1/6 135/1/6 130/1/6
f 137/3/1 138/3/1 139/3/1
f 137/3/1 139/3/1 140/3/1
f 141/3/2 142/3/2 143/3/2
f 141/3/2 143/3/2 144/3/2
f 138/3/4 143/3/4 142/3/4
f 138/3/4 142/3/4 139/3/4
f 139/3/5 142/3/5 141/3/5
f 139/3/5 141/3/5 140/3/5
f 137/3/6 144/3/6 143/3/6
f 137/3/6 143/3/6 138/3/6
f 145/3/1 146/3/1 147/3/1
f 145/3/1 147/3/1 148/3/1
f 149/3/2 150/3/2 151/3/2
f 149/3/2 151/3/2 152/3/2
f 148/3/3 149/3/3 152/3/3
f 148/3/3 152/3/3 145/3/3
f 146/3/4 151/3/4 150/3/4
f 146/3/4 150/3/4 147/3/4
f 147/3/5 150/3/5 149/3/5
f 147/3/5 149/3/5 148/3/5
f 145/3/6 152/3/6 151/3/6
f 145/3/6 151/3/6 146/3/6
f 153/1/1 154/1/1 155/1/1
f 153/1/1 155/1/1 156/1/1
f 157/1/2 158/1/2 159/1/2
f 157/1/2 159/1/2 160/1/2
f 156/1/3 157/1/3 160/1/3
f 156/1/3 160/1/3 153/1/3
f 154/1/4 159/1/4 158/1/4
f 154/1/4 158/1/4 155/1/4
f 155/1/5 158/1/5 157/1/5
f 155/1/5 157/1/5 156/1/5
f 153/1/6 160/1/6 159/1/6
f 153/1/6 159/1/6 154/1/6
f 161/3/1 162/3/1 163/3/1
f 161/3/1 163/3/1 164/3/1
f 165/3/2 166/3/2 167/3/2
f 165/3/2 167/3/2 168/3/2
f 162/3/4 167/3/4 166/3/4
f 162/3/4 166/3/4 163/3/4
f 163/3/5 166/3/5 165/3/5
f 163/3/5 165/3/5 164/3/5
f 161/3/6 168/3/6 167/3/6
f 161/3/6 167/3/6 162/3/6
f 169/3/1 170/3/1 171/3/1
f 169/3/1 171/3/1 172/3/1
f 173/3/2 174/3/2 175/3/2
f 173/3/2 175/3/2 176/3/2
f 172/3/3 173/3/3 176/3/3
f 172/3/3 176/3/3 169/3/3
f 170/3/4 175/3/4 174/3/4
f 170/3/4 174/3/4 171/3/4
f 171/3/5 174/3/5 173/3/5
f 171/3/5 173/3/5 172/3/5
f 169/3/6 176/3/6 175/3/6
f 169/3/6 175/3/6 170/3/6
f 177/1/1 178/1/1 179/1/1
f 177/1/1 179/1/1 180/1/1
f 181/1/2 182/1/2 183/1/2
f 181/1/2 183/1/2 184/1/2
f 180/1/3 181/1/3 184/1/3
f 180/1/3 184/1/3 177/1/3
f 178/1/4 183/1/4 182/1/4
f 178/1/4 182/1/4 179/1/4
f 179/1/5 182/1/5 181/1/5
f 179/1/5 181/1/5 180/1/5
f 177/1/6 184/1/6 183/1/6
f 177/1/6 183/1/6 178/1/6
f 185/3/1 186/3/1 187/3/1
f 185/3/1 187/3/1 188/3/1
f 189/3/2 190/3/2 191/3/2
f 189/3/2 191/3/2 192/3/2
f 186/3/4 191/3/4 190/3/4
f 186/3/4 190/3/4 187/3/4
f 187/3/5 190/3/5 189/3/5
f 187/3/5 189/3/5 188/3/5
f 185/3/6 192/3/6 191/3/6
f 185/3/6 191/3/6 186/3/6
f 193/3/1 194/3/1 195/3/1
f 193/3/1 195/3/1 196/3/1
f 197/3/2 198/3/2 199/3/2
f 197/3/2 199/3/2 200/3/2
f 196/3/3 197/3/3 200/3/3
f 196/3/3 200/3/3 193/3/3
f 194/3/4 199/3/4 198/3/4
f 194/3/4 198/3/4 195/3/4
f 195/3/5 198/3/5 197/3/5
f 195/3/5 197/3/5 196/3/5
f 193/3/6 200/3/6 199/3/6
f 193/3/6 199/3/6 194/3/6
f 201/4/15 202/5/15 203/6/15
f 201/4/15 203/6/15 204/7/15
f 205/2/16 206/2/16 207/2/16
f 205/2/16 207/2/16 208/2/16
f 204/2/17 203/2/17 206/2/17
f 204/2/17 206/2/17 205/2/17
f 203/2/2 202/2/2 207/2/2
f 203/2/2 207/2/2 206/2/2
f 202/2/18 201/2/18 208/2/18
f 202/2/18 208/2/18 207/2/18
f 201/2/1 204/2/1 205/2/1
f 201/2/1 205/2/1 208/2/1
f 209/3/1 210/3/1 211/3/1
f 209/3/1 211/3/1 212/3/1
f 213/3/2 214/3/2 215/3/2
f 213/3/2 215/3/2 216/3/2
f 212/3/3 213/3/3 216/3/3
f 212/3/3 216/3/3 209/3/3
f 210/3/4 215/3/4 214/3/4
f 210/3/4 214/3/4 211/3/4
f 211/3/5 214/3/5 213/3/5
f 211/3/5 213/3/5 212/3/5
f 209/3/6 216/3/6 215/3/6
f 209/3/6 215/3/6 210/3/6
f 217/3/1 218/3/1 219/3/1
f 217/3/1 219/3/1 220/3/1
f 221/3/2 222/3/2 223/3/2
f 221/3/2 223/3/2 224/3/2
f 220/3/3 221/3/3 224/3/3
f 220/3/3 224/3/3 217/3/3
f 218/3/4 223/3/4 222/3/4
f 218/3/4 222/3/4 219/3/4
f 219/3/5 222/3/5 221/3/5
f 219/3/5 221/3/5 220/3/5
f 217/3/6 224/3/6 223/3/6
f 217/3/6 223/3/6 218/3/6
f 225/1/1 226/1/1 227/1/1
f 225/1/1 227/1/1 228/1/1
f 229/1/2 230/1/2 231/1/2
f 229/1/2 231/1/2 232/1/2
f 226/1/4 231/1/4 230/1/4
f 226/1/4 230/1/4 227/1/4
f 227/1/5 230/1/5 229/1/5
f 227/1/5 229/1/5 228/1/5
f 225/1/6 232/1/6 231/1/6
f 225/1/6 231/1/6 226/1/6
f 233/1/1 234/1/1 235/1/1
f 233/1/1 235/1/1 236/1/1
f 237/1/2 238/1/2 239/1/2
f 237/1/2 239/1/2 240/1/2
f 234/1/4 239/1/4 238/1/4
f 234/1/4 238/1/4 235/1/4
f 235/1/5 238/1/5 237/1/5
f 235/1/5 237/1/5 236/1/5
f 233/1/6 240/1/6 239/1/6
f 233/1/6 239/1/6 234/1/6
f 241/1/6 242/1/6 243/1/6
f 241/1/6 243/1/6 244/1/6
f 245/1/19 246/1/19 242/1/19
f 245/1/19 242/1/19 241/1/19
f 246/1/20 247/1/20 243/1/20
f 246/1/20 243/1/20 242/1/20
f 247/1/21 248/1/21 244/1/21
f 247/1/21 244/1/21 243/1/21
f 248/1/22 245/1/22 241/1/22
f 248/1/22 241/1/22 244/1/22
f 249/1/5 250/1/5 251/1/5
f 249/1/5 251/1/5 252/1/5
f 252/1/3 251/1/3 246/1/3
f 252/1/3 246/1/3 245/1/3
f 251/1/23 250/1/23 247/1/23
f 251/1/23 247/1/23 246/1/23
f 250/1/24 249/1/24 248/1/24
f 250/1/24 248/1/24 247/1/24
f 249/1/25 252/1/25 245/1/25
f 249/1/25 245/1/25 248/1/25
f 253/1/1 254/1/1 255/1/1
f 253/1/1 255/1/1 256/1/1
f 257/1/2 258/1/2 259/1/2
f 257/1/2 259/1/2 260/1/2
f 256/1/3 257/1/3 260/1/3
f 256/1/3 260/1/3 253/1/3
f 254/1/4 259/1/4 258/1/4
f 254/1/4 258/1/4 255/1/4
f 255/1/5 258/1/5 257/1/5
f 255/1/5 257/1/5 256/1/5
f 253/1/6 260/1/6 259/1/6
f 253/1/6 259/1/6 254/1/6
f 261/1/1 262/1/1 263/1/1
f 261/1/1 263/1/1 264/1/1
f 265/1/2 266/1/2 267/1/2
f 265/1/2 267/1/2 268/1/2
f 264/1/3 265/1/3 268/1/3
f 264/1/3 268/1/3 261/1/3
f 262/1/4 267/1/4 266/1/4
f 262/1/4 266/1/4 263/1/4
f 263/1/5 266/1/5 265/1/5
f 263/1/5 265/1/5 264/1/5
f 261/1/6 268/1/6 267/1/6
f 261/1/6 267/1/6 262/1/6
f 269/1/1 270/1/1 271/1/1
f 269/1/1 271/1/1 272/1/1
f 273/1/2 274/1/2 275/1/2
f 273/1/2 275/1/2 276/1/2
f 270/1/4 275/1/4 274/1/4
f 270/1/4 274/1/4 271/1/4
f 271/1/5 274/1/5 273/1/5
f 271/1/5 273/1/5 272/1/5
f 269/1/6 276/1/6 275/1/6
f 269/1/6 275/1/6 270/1/6
f 277/3/4 278/3/4 279/3/4
f 277/3/4 279/3/4 280/3/4
f 281/3/3 282/3/3 283/3/3
f 281/3/3 283/3/3 284/3/3
f 280/3/26 279/3/26 282/3/26
f 280/3/26 282/3/26 281/3/26
f 279/3/2 278/3/2 283/3/2
f 279/3/2 283/3/2 282/3/2
f 278/3/27 277/3/27 284/3/27
f 278/3/27 284/3/27 283/3/27
f 277/3/1 280/3/1 281/3/1
f 277/3/1 281/3/1 284/3/1
f 285/3/3 286/3/3 287/3/3
f 285/3/3 287/3/3 288/3/3
f 289/3/4 290/3/4 291/3/4
f 289/3/4 291/3/4 292/3/4
f 292/3/28 291/3/28 286/3/28
f 292/3/28 286/3/28 285/3/28
f 291/3/2 290/3/2 287/3/2
f 291/3/2 287/3/2 286/3/2
f 290/3/29 289/3/29 288/3/29
f 290/3/29 288/3/29 287/3/29
f 289/3/1 292/3/1 285/3/1
f 289/3/1 285/3/1 288/3/1
