# Procedurally generated by dev-env-utils/scripts/gen_work_zone_devices.py -- do not hand edit
mtllib workzone_safety_fence.mtl
o workzone_safety_fence_fill_right
v 1.000000 0.075000 0.503750
v 1.414214 0.075000 0.503750
v 1.414214 0.843750 0.503750
v 1.000000 0.843750 0.503750
v 1.000000 0.843750 0.496250
v 1.414214 0.843750 0.496250
v 1.414214 0.075000 0.496250
v 1.000000 0.075000 0.496250
vt 0.000000 0.075000
vt 0.323604 0.075000
vt 0.323604 0.843750
vt 0.000000 0.843750
vn 0.000000 0.000000 1.000000
vn 0.000000 0.000000 -1.000000
usemtl body
f 1/1/1 2/2/1 3/3/1
f 1/1/1 3/3/1 4/4/1
f 5/4/2 6/3/2 7/2/2
f 5/4/2 7/2/2 8/1/2
