# Procedurally generated by dev-env-utils/scripts/gen_work_zone_devices.py -- do not hand edit
mtllib workzone_vertical_panel.mtl
o workzone_vertical_panel
v 0.396875 0.000000 0.685000
v 0.396875 0.038750 0.685000
v 0.396875 0.038750 0.397500
v 0.396875 0.000000 0.397500
v 0.603125 0.000000 0.397500
v 0.603125 0.038750 0.397500
v 0.603125 0.038750 0.685000
v 0.603125 0.000000 0.685000
v 0.467500 0.030000 0.573750
v 0.467500 0.887500 0.573750
v 0.467500 0.887500 0.508750
v 0.467500 0.030000 0.508750
v 0.532500 0.030000 0.508750
v 0.532500 0.887500 0.508750
v 0.532500 0.887500 0.573750
v 0.532500 0.030000 0.573750
v 0.368750 0.268750 0.515000
v 0.368750 0.850000 0.515000
v 0.368750 0.850000 0.485000
v 0.368750 0.268750 0.485000
v 0.631250 0.268750 0.485000
v 0.631250 0.850000 0.485000
v 0.631250 0.850000 0.515000
v 0.631250 0.268750 0.515000
vt 0.890625 0.625000
vt 0.000000 0.000000
vt 0.781250 0.000000
vt 0.781250 1.000000
vt 0.000000 1.000000
vn -1.000000 0.000000 0.000000
vn 1.000000 0.000000 0.000000
vn 0.000000 -1.000000 0.000000
vn 0.000000 1.000000 0.000000
vn 0.000000 0.000000 -1.000000
vn 0.000000 0.000000 1.000000
usemtl body
f 1/1/1 2/1/1 3/1/1
f 1/1/1 3/1/1 4/1/1
f 5/1/2 6/1/2 7/1/2
f 5/1/2 7/1/2 8/1/2
f 4/1/3 5/1/3 8/1/3
f 4/1/3 8/1/3 1/1/3
f 2/1/4 7/1/4 6/1/4
f 2/1/4 6/1/4 3/1/4
f 3/1/5 6/1/5 5/1/5
f 3/1/5 5/1/5 4/1/5
f 1/1/6 8/1/6 7/1/6
f 1/1/6 7/1/6 2/1/6
f 9/1/1 10/1/1 11/1/1
f 9/1/1 11/1/1 12/1/1
f 13/1/2 14/1/2 15/1/2
f 13/1/2 15/1/2 16/1/2
f 10/1/4 15/1/4 14/1/4
f 10/1/4 14/1/4 11/1/4
f 11/1/5 14/1/5 13/1/5
f 11/1/5 13/1/5 12/1/5
f 9/1/6 16/1/6 15/1/6
f 9/1/6 15/1/6 10/1/6
f 17/1/1 18/1/1 19/1/1
f 17/1/1 19/1/1 20/1/1
f 21/1/2 22/1/2 23/1/2
f 21/1/2 23/1/2 24/1/2
f 20/1/3 21/1/3 24/1/3
f 20/1/3 24/1/3 17/1/3
f 18/1/4 23/1/4 22/1/4
f 18/1/4 22/1/4 19/1/4
f 17/2/6 24/3/6 23/4/6
f 17/2/6 23/4/6 18/5/6
f 19/5/5 22/4/5 21/3/5
f 19/5/5 21/3/5 20/2/5
