# Procedurally generated by dev-env-utils/scripts/gen_work_zone_devices.py -- do not hand edit
mtllib workzone_barricade_type1.mtl
o workzone_barricade_type1_end_left
v -0.257075 0.750750 0.470425
v 0.000000 0.750750 0.470425
v 0.000000 0.750750 0.529575
v -0.257075 0.750750 0.529575
v -0.257075 1.023750 0.529575
v 0.000000 1.023750 0.529575
v 0.000000 1.023750 0.470425
v -0.257075 1.023750 0.470425
vt 0.890625 0.625000
vt 0.580410 0.000000
vt 0.781250 0.000000
vt 0.781250 1.000000
vt 0.580410 1.000000
vn 0.000000 -1.000000 0.000000
vn 0.000000 1.000000 0.000000
vn 0.000000 0.000000 1.000000
vn 0.000000 0.000000 -1.000000
vn -1.000000 0.000000 0.000000
usemtl body
f 1/1/1 2/1/1 3/1/1
f 1/1/1 3/1/1 4/1/1
f 5/1/2 6/1/2 7/1/2
f 5/1/2 7/1/2 8/1/2
f 4/2/3 3/3/3 6/4/3
f 4/2/3 6/4/3 5/5/3
f 8/5/4 7/4/4 2/3/4
f 8/5/4 2/3/4 1/2/4
f 1/1/5 4/1/5 5/1/5
f 1/1/5 5/1/5 8/1/5
