# Procedurally generated by dev-env-utils/scripts/gen_work_zone_devices.py -- do not hand edit
mtllib workzone_barricade_type2.mtl
o workzone_barricade_type2
v 0.109375 0.000000 0.428125
v 0.109375 0.050000 0.428125
v 0.109375 0.050000 0.290625
v 0.109375 0.000000 0.290625
v 0.240625 0.000000 0.290625
v 0.240625 0.050000 0.290625
v 0.240625 0.050000 0.428125
v 0.240625 0.000000 0.428125
v 0.131250 0.037500 0.380625
v 0.131250 0.928125 0.380625
v 0.131250 0.928125 0.338125
v 0.131250 0.037500 0.338125
v 0.218750 0.037500 0.338125
v 0.218750 0.928125 0.338125
v 0.218750 0.928125 0.380625
v 0.218750 0.037500 0.380625
v 0.759375 0.000000 0.428125
v 0.759375 0.050000 0.428125
v 0.759375 0.050000 0.290625
v 0.759375 0.000000 0.290625
v 0.890625 0.000000 0.290625
v 0.890625 0.050000 0.290625
v 0.890625 0.050000 0.428125
v 0.890625 0.000000 0.428125
v 0.781250 0.037500 0.380625
v 0.781250 0.928125 0.380625
v 0.781250 0.928125 0.338125
v 0.781250 0.037500 0.338125
v 0.868750 0.037500 0.338125
v 0.868750 0.928125 0.338125
v 0.868750 0.928125 0.380625
v 0.868750 0.037500 0.380625
v 0.109375 0.325000 0.344375
v 0.109375 0.518750 0.344375
v 0.109375 0.518750 0.306875
v 0.109375 0.325000 0.306875
v 0.890625 0.325000 0.306875
v 0.890625 0.518750 0.306875
v 0.890625 0.518750 0.344375
v 0.890625 0.325000 0.344375
v 0.109375 0.640625 0.344375
v 0.109375 0.834375 0.344375
v 0.109375 0.834375 0.306875
v 0.109375 0.640625 0.306875
v 0.890625 0.640625 0.306875
v 0.890625 0.834375 0.306875
v 0.890625 0.834375 0.344375
v 0.890625 0.640625 0.344375
v 0.142500 0.018750 0.614329
v 0.207500 0.018750 0.614329
v 0.207500 0.018750 0.666829
v 0.142500 0.018750 0.666829
v 0.142500 0.856250 0.385625
v 0.207500 0.856250 0.385625
v 0.207500 0.856250 0.333125
v 0.142500 0.856250 0.333125
v 0.115625 0.000000 0.709375
v 0.115625 0.046875 0.709375
v 0.115625 0.046875 0.584375
v 0.115625 0.000000 0.584375
v 0.234375 0.000000 0.584375
v 0.234375 0.046875 0.584375
v 0.234375 0.046875 0.709375
v 0.234375 0.000000 0.709375
v 0.792500 0.018750 0.614329
v 0.857500 0.018750 0.614329
v 0.857500 0.018750 0.666829
v 0.792500 0.018750 0.666829
v 0.792500 0.856250 0.385625
v 0.857500 0.856250 0.385625
v 0.857500 0.856250 0.333125
v 0.792500 0.856250 0.333125
v 0.765625 0.000000 0.709375
v 0.765625 0.046875 0.709375
v 0.765625 0.046875 0.584375
v 0.765625 0.000000 0.584375
v 0.884375 0.000000 0.584375
v 0.884375 0.046875 0.584375
v 0.884375 0.046875 0.709375
v 0.884375 0.000000 0.709375
v 0.175000 0.200000 0.598472
v 0.175000 0.234375 0.598472
v 0.175000 0.234375 0.560972
v 0.175000 0.200000 0.560972
v 0.825000 0.200000 0.560972
v 0.825000 0.234375 0.560972
v 0.825000 0.234375 0.598472
v 0.825000 0.200000 0.598472
vt 0.890625 0.625000
vt 0.000000 0.000000
vt 0.781250 0.000000
vt 0.781250 1.000000
vt 0.000000 1.000000
vn -1.000000 0.000000 0.000000
vn 1.000000 0.000000 0.000000
vn 0.000000 -1.000000 0.000000
vn 0.000000 1.000000 0.000000
vn 0.000000 0.000000 -1.000000
vn 0.000000 0.000000 1.000000
vn 0.000000 -0.318303 -0.947989
vn 0.000000 0.318303 0.947989
usemtl body
f 1/1/1 2/1/1 3/1/1
f 1/1/1 3/1/1 4/1/1
f 5/1/2 6/1/2 7/1/2
f 5/1/2 7/1/2 8/1/2
f 4/1/3 5/1/3 8/1/3
f 4/1/3 8/1/3 1/1/3
f 2/1/4 7/1/4 6/1/4
f 2/1/4 6/1/4 3/1/4
f 3/1/5 6/1/5 5/1/5
f 3/1/5 5/1/5 4/1/5
f 1/1/6 8/1/6 7/1/6
f 1/1/6 7/1/6 2/1/6
f 9/1/1 10/1/1 11/1/1
f 9/1/1 11/1/1 12/1/1
f 13/1/2 14/1/2 15/1/2
f 13/1/2 15/1/2 16/1/2
f 10/1/4 15/1/4 14/1/4
f 10/1/4 14/1/4 11/1/4
f 11/1/5 14/1/5 13/1/5
f 11/1/5 13/1/5 12/1/5
f 9/1/6 16/1/6 15/1/6
f 9/1/6 15/1/6 10/1/6
f 17/1/1 18/1/1 19/1/1
f 17/1/1 19/1/1 20/1/1
f 21/1/2 22/1/2 23/1/2
f 21/1/2 23/1/2 24/1/2
f 20/1/3 21/1/3 24/1/3
f 20/1/3 24/1/3 17/1/3
f 18/1/4 23/1/4 22/1/4
f 18/1/4 22/1/4 19/1/4
f 19/1/5 22/1/5 21/1/5
f 19/1/5 21/1/5 20/1/5
f 17/1/6 24/1/6 23/1/6
f 17/1/6 23/1/6 18/1/6
f 25/1/1 26/1/1 27/1/1
f 25/1/1 27/1/1 28/1/1
f 29/1/2 30/1/2 31/1/2
f 29/1/2 31/1/2 32/1/2
f 26/1/4 31/1/4 30/1/4
f 26/1/4 30/1/4 27/1/4
f 27/1/5 30/1/5 29/1/5
f 27/1/5 29/1/5 28/1/5
f 25/1/6 32/1/6 31/1/6
f 25/1/6 31/1/6 26/1/6
f 33/1/1 34/1/1 35/1/1
f 33/1/1 35/1/1 36/1/1
f 37/1/2 38/1/2 39/1/2
f 37/1/2 39/1/2 40/1/2
f 36/1/3 37/1/3 40/1/3
f 36/1/3 40/1/3 33/1/3
f 34/1/4 39/1/4 38/1/4
f 34/1/4 38/1/4 35/1/4
f 33/2/6 40/3/6 39/4/6
f 33/2/6 39/4/6 34/5/6
f 35/5/5 38/4/5 37/3/5
f 35/5/5 37/3/5 36/2/5
f 41/1/1 42/1/1 43/1/1
f 41/1/1 43/1/1 44/1/1
f 45/1/2 46/1/2 47/1/2
f 45/1/2 47/1/2 48/1/2
f 44/1/3 45/1/3 48/1/3
f 44/1/3 48/1/3 41/1/3
f 42/1/4 47/1/4 46/1/4
f 42/1/4 46/1/4 43/1/4
f 41/2/6 48/3/6 47/4/6
f 41/2/6 47/4/6 42/5/6
f 43/5/5 46/4/5 45/3/5
f 43/5/5 45/3/5 44/2/5
f 49/1/3 50/1/3 51/1/3
f 49/1/3 51/1/3 52/1/3
f 53/1/4 54/1/4 55/1/4
f 53/1/4 55/1/4 56/1/4
f 56/1/7 55/1/7 50/1/7
f 56/1/7 50/1/7 49/1/7
f 55/1/2 54/1/2 51/1/2
f 55/1/2 51/1/2 50/1/2
f 54/1/8 53/1/8 52/1/8
f 54/1/8 52/1/8 51/1/8
f 53/1/1 56/1/1 49/1/1
f 53/1/1 49/1/1 52/1/1
f 57/1/1 58/1/1 59/1/1
f 57/1/1 59/1/1 60/1/1
f 61/1/2 62/1/2 63/1/2
f 61/1/2 63/1/2 64/1/2
f 60/1/3 61/1/3 64/1/3
f 60/1/3 64/1/3 57/1/3
f 58/1/4 63/1/4 62/1/4
f 58/1/4 62/1/4 59/1/4
f 59/1/5 62/1/5 61/1/5
f 59/1/5 61/1/5 60/1/5
f 57/1/6 64/1/6 63/1/6
f 57/1/6 63/1/6 58/1/6
f 65/1/3 66/1/3 67/1/3
f 65/1/3 67/1/3 68/1/3
f 69/1/4 70/1/4 71/1/4
f 69/1/4 71/1/4 72/1/4
f 72/1/7 71/1/7 66/1/7
f 72/1/7 66/1/7 65/1/7
f 71/1/2 70/1/2 67/1/2
f 71/1/2 67/1/2 66/1/2
f 70/1/8 69/1/8 68/1/8
f 70/1/8 68/1/8 67/1/8
f 69/1/1 72/1/1 65/1/1
f 69/1/1 65/1/1 68/1/1
f 73/1/1 74/1/1 75/1/1
f 73/1/1 75/1/1 76/1/1
f 77/1/2 78/1/2 79/1/2
f 77/1/2 79/1/2 80/1/2
f 76/1/3 77/1/3 80/1/3
f 76/1/3 80/1/3 73/1/3
f 74/1/4 79/1/4 78/1/4
f 74/1/4 78/1/4 75/1/4
f 75/1/5 78/1/5 77/1/5
f 75/1/5 77/1/5 76/1/5
f 73/1/6 80/1/6 79/1/6
f 73/1/6 79/1/6 74/1/6
f 81/1/1 82/1/1 83/1/1
f 81/1/1 83/1/1 84/1/1
f 85/1/2 86/1/2 87/1/2
f 85/1/2 87/1/2 88/1/2
f 84/1/3 85/1/3 88/1/3
f 84/1/3 88/1/3 81/1/3
f 82/1/4 87/1/4 86/1/4
f 82/1/4 86/1/4 83/1/4
f 83/1/5 86/1/5 85/1/5
f 83/1/5 85/1/5 84/1/5
f 81/1/6 88/1/6 87/1/6
f 81/1/6 87/1/6 82/1/6
