# Procedurally generated by dev-env-utils/scripts/gen_work_zone_devices.py -- do not hand edit
mtllib workzone_channelizer.mtl
o workzone_channelizer
v 0.500000 0.018906 0.831250
v 0.500000 0.000000 0.831250
v 0.786871 0.000000 0.665625
v 0.786871 0.018906 0.665625
v 0.213129 0.018906 0.665625
v 0.213129 0.000000 0.665625
v 0.213129 0.018906 0.334375
v 0.213129 0.000000 0.334375
v 0.500000 0.018906 0.168750
v 0.500000 0.000000 0.168750
v 0.786871 0.018906 0.334375
v 0.786871 0.000000 0.334375
v 0.500000 0.034375 0.796875
v 0.757101 0.034375 0.648438
v 0.242899 0.034375 0.648438
v 0.242899 0.034375 0.351563
v 0.500000 0.034375 0.203125
v 0.757101 0.034375 0.351562
v 0.500000 0.000000 0.500000
v 0.500000 0.034375 0.500000
v 0.599309 0.062500 0.566356
v 0.610741 0.034375 0.573995
v 0.630628 0.034375 0.525984
v 0.617143 0.062500 0.523301
v 0.566356 0.062500 0.599309
v 0.573995 0.034375 0.610741
v 0.523301 0.062500 0.617143
v 0.525984 0.034375 0.630628
v 0.476699 0.062500 0.617143
v 0.474016 0.034375 0.630628
v 0.433644 0.062500 0.599309
v 0.426005 0.034375 0.610741
v 0.400691 0.062500 0.566356
v 0.389259 0.034375 0.573995
v 0.382857 0.062500 0.523301
v 0.369372 0.034375 0.525984
v 0.382857 0.062500 0.476699
v 0.369372 0.034375 0.474016
v 0.400691 0.062500 0.433644
v 0.389259 0.034375 0.426005
v 0.433644 0.062500 0.400691
v 0.426005 0.034375 0.389259
v 0.476699 0.062500 0.382857
v 0.474016 0.034375 0.369372
v 0.523301 0.062500 0.382857
v 0.525984 0.034375 0.369372
v 0.566356 0.062500 0.400691
v 0.573995 0.034375 0.389259
v 0.599309 0.062500 0.433644
v 0.610741 0.034375 0.426005
v 0.617143 0.062500 0.476699
v 0.630628 0.034375 0.474016
v 0.599309 0.298406 0.566356
v 0.617143 0.298406 0.523301
v 0.566356 0.298406 0.599309
v 0.523301 0.298406 0.617143
v 0.476699 0.298406 0.617143
v 0.433644 0.298406 0.599309
v 0.400691 0.298406 0.566356
v 0.382857 0.298406 0.523301
v 0.382857 0.298406 0.476699
v 0.400691 0.298406 0.433644
v 0.433644 0.298406 0.400691
v 0.476699 0.298406 0.382857
v 0.523301 0.298406 0.382857
v 0.566356 0.298406 0.400691
v 0.599309 0.298406 0.433644
v 0.617143 0.298406 0.476699
v 0.594445 0.305688 0.563106
v 0.611405 0.305688 0.522160
v 0.563106 0.305688 0.594445
v 0.522160 0.305688 0.611405
v 0.477840 0.305688 0.611405
v 0.436894 0.305688 0.594445
v 0.405555 0.305688 0.563106
v 0.388595 0.305688 0.522160
v 0.388595 0.305688 0.477840
v 0.405555 0.305688 0.436894
v 0.436894 0.305688 0.405555
v 0.477840 0.305688 0.388595
v 0.522160 0.305688 0.388595
v 0.563106 0.305688 0.405555
v 0.594445 0.305688 0.436894
v 0.611405 0.305688 0.477840
v 0.594445 0.312156 0.563106
v 0.611405 0.312156 0.522160
v 0.563106 0.312156 0.594445
v 0.522160 0.312156 0.611405
v 0.477840 0.312156 0.611405
v 0.436894 0.312156 0.594445
v 0.405555 0.312156 0.563106
v 0.388595 0.312156 0.522160
v 0.388595 0.312156 0.477840
v 0.405555 0.312156 0.436894
v 0.436894 0.312156 0.405555
v 0.477840 0.312156 0.388595
v 0.522160 0.312156 0.388595
v 0.563106 0.312156 0.405555
v 0.594445 0.312156 0.436894
v 0.611405 0.312156 0.477840
v 0.594445 0.321313 0.563106
v 0.611405 0.321313 0.522160
v 0.563106 0.321313 0.594445
v 0.522160 0.321313 0.611405
v 0.477840 0.321313 0.611405
v 0.436894 0.321313 0.594445
v 0.405555 0.321313 0.563106
v 0.388595 0.321313 0.522160
v 0.388595 0.321313 0.477840
v 0.405555 0.321313 0.436894
v 0.436894 0.321313 0.405555
v 0.477840 0.321313 0.388595
v 0.522160 0.321313 0.388595
v 0.563106 0.321313 0.405555
v 0.594445 0.321313 0.436894
v 0.611405 0.321313 0.477840
v 0.587148 0.336938 0.558231
v 0.602799 0.336938 0.520448
v 0.558231 0.336938 0.587148
v 0.520448 0.336938 0.602799
v 0.479552 0.336938 0.602799
v 0.441769 0.336938 0.587148
v 0.412852 0.336938 0.558231
v 0.397201 0.336938 0.520448
v 0.397201 0.336938 0.479552
v 0.412852 0.336938 0.441769
v 0.441769 0.336938 0.412852
v 0.479552 0.336938 0.397201
v 0.520448 0.336938 0.397201
v 0.558231 0.336938 0.412852
v 0.587148 0.336938 0.441769
v 0.602799 0.336938 0.479552
v 0.587148 0.558719 0.558231
v 0.602799 0.558719 0.520448
v 0.558231 0.558719 0.587148
v 0.520448 0.558719 0.602799
v 0.479552 0.558719 0.602799
v 0.441769 0.558719 0.587148
v 0.412852 0.558719 0.558231
v 0.397201 0.558719 0.520448
v 0.397201 0.558719 0.479552
v 0.412852 0.558719 0.441769
v 0.441769 0.558719 0.412852
v 0.479552 0.558719 0.397201
v 0.520448 0.558719 0.397201
v 0.558231 0.558719 0.412852
v 0.587148 0.558719 0.441769
v 0.602799 0.558719 0.479552
v 0.583500 0.566000 0.555793
v 0.598495 0.566000 0.519592
v 0.555793 0.566000 0.583500
v 0.519592 0.566000 0.598495
v 0.480408 0.566000 0.598495
v 0.444207 0.566000 0.583500
v 0.416500 0.566000 0.555793
v 0.401505 0.566000 0.519592
v 0.401505 0.566000 0.480408
v 0.416500 0.566000 0.444207
v 0.444207 0.566000 0.416500
v 0.480408 0.566000 0.401505
v 0.519592 0.566000 0.401505
v 0.555793 0.566000 0.416500
v 0.583500 0.566000 0.444207
v 0.598495 0.566000 0.480408
v 0.583500 0.572469 0.555793
v 0.598495 0.572469 0.519592
v 0.555793 0.572469 0.583500
v 0.519592 0.572469 0.598495
v 0.480408 0.572469 0.598495
v 0.444207 0.572469 0.583500
v 0.416500 0.572469 0.555793
v 0.401505 0.572469 0.519592
v 0.401505 0.572469 0.480408
v 0.416500 0.572469 0.444207
v 0.444207 0.572469 0.416500
v 0.480408 0.572469 0.401505
v 0.519592 0.572469 0.401505
v 0.555793 0.572469 0.416500
v 0.583500 0.572469 0.444207
v 0.598495 0.572469 0.480408
v 0.583500 0.581625 0.555793
v 0.598495 0.581625 0.519592
v 0.555793 0.581625 0.583500
v 0.519592 0.581625 0.598495
v 0.480408 0.581625 0.598495
v 0.444207 0.581625 0.583500
v 0.416500 0.581625 0.555793
v 0.401505 0.581625 0.519592
v 0.401505 0.581625 0.480408
v 0.416500 0.581625 0.444207
v 0.444207 0.581625 0.416500
v 0.480408 0.581625 0.401505
v 0.519592 0.581625 0.401505
v 0.555793 0.581625 0.416500
v 0.583500 0.581625 0.444207
v 0.598495 0.581625 0.480408
v 0.576204 0.597250 0.550918
v 0.589889 0.597250 0.517880
v 0.550918 0.597250 0.576204
v 0.517880 0.597250 0.589889
v 0.482120 0.597250 0.589889
v 0.449082 0.597250 0.576204
v 0.423796 0.597250 0.550918
v 0.410111 0.597250 0.517880
v 0.410111 0.597250 0.482120
v 0.423796 0.597250 0.449082
v 0.449082 0.597250 0.423796
v 0.482120 0.597250 0.410111
v 0.517880 0.597250 0.410111
v 0.550918 0.597250 0.423796
v 0.576204 0.597250 0.449082
v 0.589889 0.597250 0.482120
v 0.576204 0.811594 0.550918
v 0.589889 0.811594 0.517880
v 0.550918 0.811594 0.576204
v 0.517880 0.811594 0.589889
v 0.482120 0.811594 0.589889
v 0.449082 0.811594 0.576204
v 0.423796 0.811594 0.550918
v 0.410111 0.811594 0.517880
v 0.410111 0.811594 0.482120
v 0.423796 0.811594 0.449082
v 0.449082 0.811594 0.423796
v 0.482120 0.811594 0.410111
v 0.517880 0.811594 0.410111
v 0.550918 0.811594 0.423796
v 0.576204 0.811594 0.449082
v 0.589889 0.811594 0.482120
v 0.572961 0.818875 0.548751
v 0.586064 0.818875 0.517119
v 0.548751 0.818875 0.572961
v 0.517119 0.818875 0.586064
v 0.482881 0.818875 0.586064
v 0.451249 0.818875 0.572961
v 0.427039 0.818875 0.548751
v 0.413936 0.818875 0.517119
v 0.413936 0.818875 0.482881
v 0.427039 0.818875 0.451249
v 0.451249 0.818875 0.427039
v 0.482881 0.818875 0.413936
v 0.517119 0.818875 0.413936
v 0.548751 0.818875 0.427039
v 0.572961 0.818875 0.451249
v 0.586064 0.818875 0.482881
v 0.572961 0.825344 0.548751
v 0.586064 0.825344 0.517119
v 0.548751 0.825344 0.572961
v 0.517119 0.825344 0.586064
v 0.482881 0.825344 0.586064
v 0.451249 0.825344 0.572961
v 0.427039 0.825344 0.548751
v 0.413936 0.825344 0.517119
v 0.413936 0.825344 0.482881
v 0.427039 0.825344 0.451249
v 0.451249 0.825344 0.427039
v 0.482881 0.825344 0.413936
v 0.517119 0.825344 0.413936
v 0.548751 0.825344 0.427039
v 0.572961 0.825344 0.451249
v 0.586064 0.825344 0.482881
v 0.572961 0.834500 0.548751
v 0.586064 0.834500 0.517119
v 0.548751 0.834500 0.572961
v 0.517119 0.834500 0.586064
v 0.482881 0.834500 0.586064
v 0.451249 0.834500 0.572961
v 0.427039 0.834500 0.548751
v 0.413936 0.834500 0.517119
v 0.413936 0.834500 0.482881
v 0.427039 0.834500 0.451249
v 0.451249 0.834500 0.427039
v 0.482881 0.834500 0.413936
v 0.517119 0.834500 0.413936
v 0.548751 0.834500 0.427039
v 0.572961 0.834500 0.451249
v 0.586064 0.834500 0.482881
v 0.565665 0.850125 0.543876
v 0.577458 0.850125 0.515407
v 0.543876 0.850125 0.565665
v 0.515407 0.850125 0.577458
v 0.484593 0.850125 0.577458
v 0.456124 0.850125 0.565665
v 0.434335 0.850125 0.543876
v 0.422542 0.850125 0.515407
v 0.422542 0.850125 0.484593
v 0.434335 0.850125 0.456124
v 0.456124 0.850125 0.434335
v 0.484593 0.850125 0.422542
v 0.515407 0.850125 0.422542
v 0.543876 0.850125 0.434335
v 0.565665 0.850125 0.456124
v 0.577458 0.850125 0.484593
v 0.565665 1.004969 0.543876
v 0.577458 1.004969 0.515407
v 0.543876 1.004969 0.565665
v 0.515407 1.004969 0.577458
v 0.484593 1.004969 0.577458
v 0.456124 1.004969 0.565665
v 0.434335 1.004969 0.543876
v 0.422542 1.004969 0.515407
v 0.422542 1.004969 0.484593
v 0.434335 1.004969 0.456124
v 0.456124 1.004969 0.434335
v 0.484593 1.004969 0.422542
v 0.515407 1.004969 0.422542
v 0.543876 1.004969 0.434335
v 0.565665 1.004969 0.456124
v 0.577458 1.004969 0.484593
v 0.551260 1.026844 0.534251
v 0.560465 1.026844 0.512027
v 0.534251 1.026844 0.551260
v 0.512027 1.026844 0.560465
v 0.487973 1.026844 0.560465
v 0.465749 1.026844 0.551260
v 0.448740 1.026844 0.534251
v 0.439535 1.026844 0.512027
v 0.439535 1.026844 0.487973
v 0.448740 1.026844 0.465749
v 0.465749 1.026844 0.448740
v 0.487973 1.026844 0.439535
v 0.512027 1.026844 0.439535
v 0.534251 1.026844 0.448740
v 0.551260 1.026844 0.465749
v 0.560465 1.026844 0.487973
v 0.535670 1.042469 0.523834
v 0.542076 1.042469 0.508369
v 0.523834 1.042469 0.535670
v 0.508369 1.042469 0.542076
v 0.491631 1.042469 0.542076
v 0.476166 1.042469 0.535670
v 0.464330 1.042469 0.523834
v 0.457924 1.042469 0.508369
v 0.457924 1.042469 0.491631
v 0.464330 1.042469 0.476166
v 0.476166 1.042469 0.464330
v 0.491631 1.042469 0.457924
v 0.508369 1.042469 0.457924
v 0.523834 1.042469 0.464330
v 0.535670 1.042469 0.476166
v 0.542076 1.042469 0.491631
v 0.535670 1.086781 0.523834
v 0.542076 1.086781 0.508369
v 0.523834 1.086781 0.535670
v 0.508369 1.086781 0.542076
v 0.491631 1.086781 0.542076
v 0.476166 1.086781 0.535670
v 0.464330 1.086781 0.523834
v 0.457924 1.086781 0.508369
v 0.457924 1.086781 0.491631
v 0.464330 1.086781 0.476166
v 0.476166 1.086781 0.464330
v 0.491631 1.086781 0.457924
v 0.508369 1.086781 0.457924
v 0.523834 1.086781 0.464330
v 0.535670 1.086781 0.476166
v 0.542076 1.086781 0.491631
v 0.500000 1.086781 0.500000
v 0.443937 1.077406 0.516250
v 0.443937 1.183469 0.516250
v 0.443937 1.183469 0.483750
v 0.443937 1.077406 0.483750
v 0.470750 1.077406 0.483750
v 0.470750 1.183469 0.483750
v 0.470750 1.183469 0.516250
v 0.470750 1.077406 0.516250
v 0.529250 1.077406 0.516250
v 0.529250 1.183469 0.516250
v 0.529250 1.183469 0.483750
v 0.529250 1.077406 0.483750
v 0.556063 1.077406 0.483750
v 0.556063 1.183469 0.483750
v 0.556063 1.183469 0.516250
v 0.556063 1.077406 0.516250
v 0.470750 1.112812 0.516250
v 0.470750 1.112812 0.483750
v 0.529250 1.112812 0.483750
v 0.529250 1.112812 0.516250
v 0.470750 1.157437 0.516250
v 0.470750 1.157437 0.483750
v 0.529250 1.157437 0.483750
v 0.529250 1.157437 0.516250
vt 0.890625 0.375000
vt 0.048828 0.055556
vt 0.048828 0.030556
vt 0.000000 0.030556
vt 0.000000 0.055556
vt 0.097656 0.055556
vt 0.097656 0.030556
vt 0.146484 0.055556
vt 0.146484 0.030556
vt 0.195312 0.055556
vt 0.195312 0.030556
vt 0.244141 0.055556
vt 0.244141 0.030556
vt 0.292969 0.055556
vt 0.292969 0.030556
vt 0.341797 0.055556
vt 0.341797 0.030556
vt 0.390625 0.055556
vt 0.390625 0.030556
vt 0.439453 0.055556
vt 0.439453 0.030556
vt 0.488281 0.055556
vt 0.488281 0.030556
vt 0.537109 0.055556
vt 0.537109 0.030556
vt 0.585938 0.055556
vt 0.585938 0.030556
vt 0.634766 0.055556
vt 0.634766 0.030556
vt 0.683594 0.055556
vt 0.683594 0.030556
vt 0.732422 0.055556
vt 0.732422 0.030556
vt 0.781250 0.055556
vt 0.781250 0.030556
vt 0.048828 0.265250
vt 0.000000 0.265250
vt 0.097656 0.265250
vt 0.146484 0.265250
vt 0.195312 0.265250
vt 0.244141 0.265250
vt 0.292969 0.265250
vt 0.341797 0.265250
vt 0.390625 0.265250
vt 0.439453 0.265250
vt 0.488281 0.265250
vt 0.537109 0.265250
vt 0.585938 0.265250
vt 0.634766 0.265250
vt 0.683594 0.265250
vt 0.732422 0.265250
vt 0.781250 0.265250
vt 0.048828 0.271722
vt 0.000000 0.271722
vt 0.097656 0.271722
vt 0.146484 0.271722
vt 0.195312 0.271722
vt 0.244141 0.271722
vt 0.292969 0.271722
vt 0.341797 0.271722
vt 0.390625 0.271722
vt 0.439453 0.271722
vt 0.488281 0.271722
vt 0.537109 0.271722
vt 0.585938 0.271722
vt 0.634766 0.271722
vt 0.683594 0.271722
vt 0.732422 0.271722
vt 0.781250 0.271722
vt 0.048828 0.277472
vt 0.000000 0.277472
vt 0.097656 0.277472
vt 0.146484 0.277472
vt 0.195312 0.277472
vt 0.244141 0.277472
vt 0.292969 0.277472
vt 0.341797 0.277472
vt 0.390625 0.277472
vt 0.439453 0.277472
vt 0.488281 0.277472
vt 0.537109 0.277472
vt 0.585938 0.277472
vt 0.634766 0.277472
vt 0.683594 0.277472
vt 0.732422 0.277472
vt 0.781250 0.277472
vt 0.048828 0.285611
vt 0.000000 0.285611
vt 0.097656 0.285611
vt 0.146484 0.285611
vt 0.195312 0.285611
vt 0.244141 0.285611
vt 0.292969 0.285611
vt 0.341797 0.285611
vt 0.390625 0.285611
vt 0.439453 0.285611
vt 0.488281 0.285611
vt 0.537109 0.285611
vt 0.585938 0.285611
vt 0.634766 0.285611
vt 0.683594 0.285611
vt 0.732422 0.285611
vt 0.781250 0.285611
vt 0.048828 0.299500
vt 0.000000 0.299500
vt 0.097656 0.299500
vt 0.146484 0.299500
vt 0.195312 0.299500
vt 0.244141 0.299500
vt 0.292969 0.299500
vt 0.341797 0.299500
vt 0.390625 0.299500
vt 0.439453 0.299500
vt 0.488281 0.299500
vt 0.537109 0.299500
vt 0.585938 0.299500
vt 0.634766 0.299500
vt 0.683594 0.299500
vt 0.732422 0.299500
vt 0.781250 0.299500
vt 0.048828 0.496639
vt 0.000000 0.496639
vt 0.097656 0.496639
vt 0.146484 0.496639
vt 0.195312 0.496639
vt 0.244141 0.496639
vt 0.292969 0.496639
vt 0.341797 0.496639
vt 0.390625 0.496639
vt 0.439453 0.496639
vt 0.488281 0.496639
vt 0.537109 0.496639
vt 0.585938 0.496639
vt 0.634766 0.496639
vt 0.683594 0.496639
vt 0.732422 0.496639
vt 0.781250 0.496639
vt 0.048828 0.503111
vt 0.000000 0.503111
vt 0.097656 0.503111
vt 0.146484 0.503111
vt 0.195312 0.503111
vt 0.244141 0.503111
vt 0.292969 0.503111
vt 0.341797 0.503111
vt 0.390625 0.503111
vt 0.439453 0.503111
vt 0.488281 0.503111
vt 0.537109 0.503111
vt 0.585938 0.503111
vt 0.634766 0.503111
vt 0.683594 0.503111
vt 0.732422 0.503111
vt 0.781250 0.503111
vt 0.048828 0.508861
vt 0.000000 0.508861
vt 0.097656 0.508861
vt 0.146484 0.508861
vt 0.195312 0.508861
vt 0.244141 0.508861
vt 0.292969 0.508861
vt 0.341797 0.508861
vt 0.390625 0.508861
vt 0.439453 0.508861
vt 0.488281 0.508861
vt 0.537109 0.508861
vt 0.585938 0.508861
vt 0.634766 0.508861
vt 0.683594 0.508861
vt 0.732422 0.508861
vt 0.781250 0.508861
vt 0.048828 0.517000
vt 0.000000 0.517000
vt 0.097656 0.517000
vt 0.146484 0.517000
vt 0.195312 0.517000
vt 0.244141 0.517000
vt 0.292969 0.517000
vt 0.341797 0.517000
vt 0.390625 0.517000
vt 0.439453 0.517000
vt 0.488281 0.517000
vt 0.537109 0.517000
vt 0.585938 0.517000
vt 0.634766 0.517000
vt 0.683594 0.517000
vt 0.732422 0.517000
vt 0.781250 0.517000
vt 0.048828 0.530889
vt 0.000000 0.530889
vt 0.097656 0.530889
vt 0.146484 0.530889
vt 0.195312 0.530889
vt 0.244141 0.530889
vt 0.292969 0.530889
vt 0.341797 0.530889
vt 0.390625 0.530889
vt 0.439453 0.530889
vt 0.488281 0.530889
vt 0.537109 0.530889
vt 0.585938 0.530889
vt 0.634766 0.530889
vt 0.683594 0.530889
vt 0.732422 0.530889
vt 0.781250 0.530889
vt 0.048828 0.721417
vt 0.000000 0.721417
vt 0.097656 0.721417
vt 0.146484 0.721417
vt 0.195312 0.721417
vt 0.244141 0.721417
vt 0.292969 0.721417
vt 0.341797 0.721417
vt 0.390625 0.721417
vt 0.439453 0.721417
vt 0.488281 0.721417
vt 0.537109 0.721417
vt 0.585938 0.721417
vt 0.634766 0.721417
vt 0.683594 0.721417
vt 0.732422 0.721417
vt 0.781250 0.721417
vt 0.048828 0.727889
vt 0.000000 0.727889
vt 0.097656 0.727889
vt 0.146484 0.727889
vt 0.195312 0.727889
vt 0.244141 0.727889
vt 0.292969 0.727889
vt 0.341797 0.727889
vt 0.390625 0.727889
vt 0.439453 0.727889
vt 0.488281 0.727889
vt 0.537109 0.727889
vt 0.585938 0.727889
vt 0.634766 0.727889
vt 0.683594 0.727889
vt 0.732422 0.727889
vt 0.781250 0.727889
vt 0.048828 0.733639
vt 0.000000 0.733639
vt 0.097656 0.733639
vt 0.146484 0.733639
vt 0.195312 0.733639
vt 0.244141 0.733639
vt 0.292969 0.733639
vt 0.341797 0.733639
vt 0.390625 0.733639
vt 0.439453 0.733639
vt 0.488281 0.733639
vt 0.537109 0.733639
vt 0.585938 0.733639
vt 0.634766 0.733639
vt 0.683594 0.733639
vt 0.732422 0.733639
vt 0.781250 0.733639
vt 0.048828 0.741778
vt 0.000000 0.741778
vt 0.097656 0.741778
vt 0.146484 0.741778
vt 0.195312 0.741778
vt 0.244141 0.741778
vt 0.292969 0.741778
vt 0.341797 0.741778
vt 0.390625 0.741778
vt 0.439453 0.741778
vt 0.488281 0.741778
vt 0.537109 0.741778
vt 0.585938 0.741778
vt 0.634766 0.741778
vt 0.683594 0.741778
vt 0.732422 0.741778
vt 0.781250 0.741778
vt 0.048828 0.755667
vt 0.000000 0.755667
vt 0.097656 0.755667
vt 0.146484 0.755667
vt 0.195312 0.755667
vt 0.244141 0.755667
vt 0.292969 0.755667
vt 0.341797 0.755667
vt 0.390625 0.755667
vt 0.439453 0.755667
vt 0.488281 0.755667
vt 0.537109 0.755667
vt 0.585938 0.755667
vt 0.634766 0.755667
vt 0.683594 0.755667
vt 0.732422 0.755667
vt 0.781250 0.755667
vt 0.048828 0.893306
vt 0.000000 0.893306
vt 0.097656 0.893306
vt 0.146484 0.893306
vt 0.195312 0.893306
vt 0.244141 0.893306
vt 0.292969 0.893306
vt 0.341797 0.893306
vt 0.390625 0.893306
vt 0.439453 0.893306
vt 0.488281 0.893306
vt 0.537109 0.893306
vt 0.585938 0.893306
vt 0.634766 0.893306
vt 0.683594 0.893306
vt 0.732422 0.893306
vt 0.781250 0.893306
vt 0.048828 0.912750
vt 0.000000 0.912750
vt 0.097656 0.912750
vt 0.146484 0.912750
vt 0.195312 0.912750
vt 0.244141 0.912750
vt 0.292969 0.912750
vt 0.341797 0.912750
vt 0.390625 0.912750
vt 0.439453 0.912750
vt 0.488281 0.912750
vt 0.537109 0.912750
vt 0.585938 0.912750
vt 0.634766 0.912750
vt 0.683594 0.912750
vt 0.732422 0.912750
vt 0.781250 0.912750
vt 0.048828 0.926639
vt 0.000000 0.926639
vt 0.097656 0.926639
vt 0.146484 0.926639
vt 0.195312 0.926639
vt 0.244141 0.926639
vt 0.292969 0.926639
vt 0.341797 0.926639
vt 0.390625 0.926639
vt 0.439453 0.926639
vt 0.488281 0.926639
vt 0.537109 0.926639
vt 0.585938 0.926639
vt 0.634766 0.926639
vt 0.683594 0.926639
vt 0.732422 0.926639
vt 0.781250 0.926639
vt 0.048828 0.966028
vt 0.000000 0.966028
vt 0.097656 0.966028
vt 0.146484 0.966028
vt 0.195312 0.966028
vt 0.244141 0.966028
vt 0.292969 0.966028
vt 0.341797 0.966028
vt 0.390625 0.966028
vt 0.439453 0.966028
vt 0.488281 0.966028
vt 0.537109 0.966028
vt 0.585938 0.966028
vt 0.634766 0.966028
vt 0.683594 0.966028
vt 0.732422 0.966028
vt 0.781250 0.966028
vt 0.890625 0.125000
vn 0.000000 0.707107 0.707107
vn 0.000000 -0.000000 1.000000
vn 0.866025 -0.000000 0.500000
vn 0.612372 0.707107 0.353553
vn -0.612372 0.707107 0.353553
vn -0.866025 -0.000000 0.500000
vn -0.612372 0.707107 -0.353553
vn -0.866025 -0.000000 -0.500000
vn -0.000000 0.707107 -0.707107
vn -0.000000 -0.000000 -1.000000
vn 0.612372 0.707107 -0.353553
vn 0.866025 -0.000000 -0.500000
vn 0.000000 0.911922 0.410365
vn 0.355386 0.911922 0.205182
vn -0.355386 0.911922 0.205182
vn -0.355386 0.911922 -0.205182
vn -0.000000 0.911922 -0.410365
vn 0.355386 0.911922 -0.205182
vn 0.000000 -1.000000 0.000000
vn 0.000000 1.000000 0.000000
vn 0.830344 0.052007 0.554818
vn 0.746979 0.439210 0.499116
vn 0.881122 0.439210 0.175266
vn 0.979458 0.052007 0.194826
vn 0.554818 0.052007 0.830344
vn 0.499116 0.439210 0.746979
vn 0.194826 0.052007 0.979458
vn 0.175266 0.439210 0.881122
vn -0.194826 0.052007 0.979458
vn -0.175266 0.439210 0.881122
vn -0.554818 0.052007 0.830344
vn -0.499116 0.439210 0.746979
vn -0.830344 0.052007 0.554818
vn -0.746979 0.439210 0.499116
vn -0.979458 0.052007 0.194826
vn -0.881122 0.439210 0.175266
vn -0.979458 0.052007 -0.194826
vn -0.881122 0.439210 -0.175266
vn -0.830344 0.052007 -0.554818
vn -0.746979 0.439210 -0.499116
vn -0.554818 0.052007 -0.830344
vn -0.499116 0.439210 -0.746979
vn -0.194826 0.052007 -0.979458
vn -0.175266 0.439210 -0.881122
vn 0.194826 0.052007 -0.979458
vn 0.175266 0.439210 -0.881122
vn 0.554818 0.052007 -0.830344
vn 0.499116 0.439210 -0.746979
vn 0.830344 0.052007 -0.554818
vn 0.746979 0.439210 -0.499116
vn 0.979458 0.052007 -0.194826
vn 0.881122 0.439210 -0.175266
vn 0.831229 0.024049 0.555410
vn 0.980502 0.024049 0.195034
vn 0.555410 0.024049 0.831229
vn 0.195034 0.024049 0.980502
vn -0.195034 0.024049 0.980502
vn -0.555410 0.024049 0.831229
vn -0.831229 0.024049 0.555410
vn -0.980502 0.024049 0.195034
vn -0.980502 0.024049 -0.195034
vn -0.831229 0.024049 -0.555410
vn -0.555410 0.024049 -0.831229
vn -0.195034 0.024049 -0.980502
vn 0.195034 0.024049 -0.980502
vn 0.555410 0.024049 -0.831229
vn 0.831229 0.024049 -0.555410
vn 0.980502 0.024049 -0.195034
vn 0.765102 0.391495 0.511225
vn 0.902499 0.391495 0.179518
vn 0.511225 0.391495 0.765102
vn 0.179518 0.391495 0.902499
vn -0.179518 0.391495 0.902499
vn -0.511225 0.391495 0.765102
vn -0.765102 0.391495 0.511225
vn -0.902499 0.391495 0.179518
vn -0.902499 0.391495 -0.179518
vn -0.765102 0.391495 -0.511225
vn -0.511225 0.391495 -0.765102
vn -0.179518 0.391495 -0.902499
vn 0.179518 0.391495 -0.902499
vn 0.511225 0.391495 -0.765102
vn 0.765102 0.391495 -0.511225
vn 0.902499 0.391495 -0.179518
vn 0.831470 -0.000000 0.555570
vn 0.980785 -0.000000 0.195090
vn 0.555570 -0.000000 0.831470
vn 0.195090 -0.000000 0.980785
vn -0.195090 -0.000000 0.980785
vn -0.555570 -0.000000 0.831470
vn -0.831470 -0.000000 0.555570
vn -0.980785 -0.000000 0.195090
vn -0.980785 -0.000000 -0.195090
vn -0.831470 -0.000000 -0.555570
vn -0.555570 -0.000000 -0.831470
vn -0.195090 -0.000000 -0.980785
vn 0.195090 -0.000000 -0.980785
vn 0.555570 -0.000000 -0.831470
vn 0.831470 -0.000000 -0.555570
vn 0.980785 -0.000000 -0.195090
vn 0.783783 0.333790 0.523707
vn 0.924535 0.333790 0.183901
vn 0.523707 0.333790 0.783783
vn 0.183901 0.333790 0.924535
vn -0.183901 0.333790 0.924535
vn -0.523707 0.333790 0.783783
vn -0.783783 0.333790 0.523707
vn -0.924535 0.333790 0.183901
vn -0.924535 0.333790 -0.183901
vn -0.783783 0.333790 -0.523707
vn -0.523707 0.333790 -0.783783
vn -0.183901 0.333790 -0.924535
vn 0.183901 0.333790 -0.924535
vn 0.523707 0.333790 -0.783783
vn 0.783783 0.333790 -0.523707
vn 0.924535 0.333790 -0.183901
vn 0.830902 0.036937 0.555191
vn 0.980116 0.036937 0.194957
vn 0.555191 0.036937 0.830902
vn 0.194957 0.036937 0.980116
vn -0.194957 0.036937 0.980116
vn -0.555191 0.036937 0.830902
vn -0.830902 0.036937 0.555191
vn -0.980116 0.036937 0.194957
vn -0.980116 0.036937 -0.194957
vn -0.830902 0.036937 -0.555191
vn -0.555191 0.036937 -0.830902
vn -0.194957 0.036937 -0.980116
vn 0.194957 0.036937 -0.980116
vn 0.555191 0.036937 -0.830902
vn 0.830902 0.036937 -0.555191
vn 0.980116 0.036937 -0.194957
vn 0.831317 0.019151 0.555468
vn 0.980605 0.019151 0.195055
vn 0.555468 0.019151 0.831317
vn 0.195055 0.019151 0.980605
vn -0.195055 0.019151 0.980605
vn -0.555468 0.019151 0.831317
vn -0.831317 0.019151 0.555468
vn -0.980605 0.019151 0.195055
vn -0.980605 0.019151 -0.195055
vn -0.831317 0.019151 -0.555468
vn -0.555468 0.019151 -0.831317
vn -0.195055 0.019151 -0.980605
vn 0.195055 0.019151 -0.980605
vn 0.555468 0.019151 -0.831317
vn 0.831317 0.019151 -0.555468
vn 0.980605 0.019151 -0.195055
vn 0.792120 0.303990 0.529278
vn 0.934370 0.303990 0.185858
vn 0.529278 0.303990 0.792120
vn 0.185858 0.303990 0.934370
vn -0.185858 0.303990 0.934370
vn -0.529278 0.303990 0.792120
vn -0.792120 0.303990 0.529278
vn -0.934370 0.303990 0.185858
vn -0.934370 0.303990 -0.185858
vn -0.792120 0.303990 -0.529278
vn -0.529278 0.303990 -0.792120
vn -0.185858 0.303990 -0.934370
vn 0.185858 0.303990 -0.934370
vn 0.529278 0.303990 -0.792120
vn 0.792120 0.303990 -0.529278
vn 0.934370 0.303990 -0.185858
vn 0.830865 0.038130 0.555166
vn 0.980072 0.038130 0.194948
vn 0.555166 0.038130 0.830865
vn 0.194948 0.038130 0.980072
vn -0.194948 0.038130 0.980072
vn -0.555166 0.038130 0.830865
vn -0.830865 0.038130 0.555166
vn -0.980072 0.038130 0.194948
vn -0.980072 0.038130 -0.194948
vn -0.830865 0.038130 -0.555166
vn -0.555166 0.038130 -0.830865
vn -0.194948 0.038130 -0.980072
vn 0.194948 0.038130 -0.980072
vn 0.555166 0.038130 -0.830865
vn 0.830865 0.038130 -0.555166
vn 0.980072 0.038130 -0.194948
vn 0.831341 0.017595 0.555484
vn 0.980633 0.017595 0.195060
vn 0.555484 0.017595 0.831341
vn 0.195060 0.017595 0.980633
vn -0.195060 0.017595 0.980633
vn -0.555484 0.017595 0.831341
vn -0.831341 0.017595 0.555484
vn -0.980633 0.017595 0.195060
vn -0.980633 0.017595 -0.195060
vn -0.831341 0.017595 -0.555484
vn -0.555484 0.017595 -0.831341
vn -0.195060 0.017595 -0.980633
vn 0.195060 0.017595 -0.980633
vn 0.555484 0.017595 -0.831341
vn 0.831341 0.017595 -0.555484
vn 0.980633 0.017595 -0.195060
vn 0.799916 0.272872 0.534486
vn 0.943565 0.272872 0.187687
vn 0.534486 0.272872 0.799916
vn 0.187687 0.272872 0.943565
vn -0.187687 0.272872 0.943565
vn -0.534486 0.272872 0.799916
vn -0.799916 0.272872 0.534486
vn -0.943565 0.272872 0.187687
vn -0.943565 0.272872 -0.187687
vn -0.799916 0.272872 -0.534486
vn -0.534486 0.272872 -0.799916
vn -0.187687 0.272872 -0.943565
vn 0.187687 0.272872 -0.943565
vn 0.534486 0.272872 -0.799916
vn 0.799916 0.272872 -0.534486
vn 0.943565 0.272872 -0.187687
vn 0.830370 0.051408 0.554836
vn 0.979488 0.051408 0.194832
vn 0.554836 0.051408 0.830370
vn 0.194832 0.051408 0.979488
vn -0.194832 0.051408 0.979488
vn -0.554836 0.051408 0.830370
vn -0.830370 0.051408 0.554836
vn -0.979488 0.051408 0.194832
vn -0.979488 0.051408 -0.194832
vn -0.830370 0.051408 -0.554836
vn -0.554836 0.051408 -0.830370
vn -0.194832 0.051408 -0.979488
vn 0.194832 0.051408 -0.979488
vn 0.554836 0.051408 -0.830370
vn 0.830370 0.051408 -0.554836
vn 0.979488 0.051408 -0.194832
vn 0.827502 0.097569 0.552919
vn 0.976106 0.097569 0.194159
vn 0.552919 0.097569 0.827502
vn 0.194159 0.097569 0.976106
vn -0.194159 0.097569 0.976106
vn -0.552919 0.097569 0.827502
vn -0.827502 0.097569 0.552919
vn -0.976106 0.097569 0.194159
vn -0.976106 0.097569 -0.194159
vn -0.827502 0.097569 -0.552919
vn -0.552919 0.097569 -0.827502
vn -0.194159 0.097569 -0.976106
vn 0.194159 0.097569 -0.976106
vn 0.552919 0.097569 -0.827502
vn 0.827502 0.097569 -0.552919
vn 0.976106 0.097569 -0.194159
vn 0.599213 0.693282 0.400381
vn 0.706819 0.693282 0.140595
vn 0.400381 0.693282 0.599213
vn 0.140595 0.693282 0.706819
vn -0.140595 0.693282 0.706819
vn -0.400381 0.693282 0.599213
vn -0.599213 0.693282 0.400381
vn -0.706819 0.693282 0.140595
vn -0.706819 0.693282 -0.140595
vn -0.599213 0.693282 -0.400381
vn -0.400381 0.693282 -0.599213
vn -0.140595 0.693282 -0.706819
vn 0.140595 0.693282 -0.706819
vn 0.400381 0.693282 -0.599213
vn 0.599213 0.693282 -0.400381
vn 0.706819 0.693282 -0.140595
vn 0.793547 0.298558 0.530231
vn 0.936053 0.298558 0.186193
vn 0.530231 0.298558 0.793547
vn 0.186193 0.298558 0.936053
vn -0.186193 0.298558 0.936053
vn -0.530231 0.298558 0.793547
vn -0.793547 0.298558 0.530231
vn -0.936053 0.298558 0.186193
vn -0.936053 0.298558 -0.186193
vn -0.793547 0.298558 -0.530231
vn -0.530231 0.298558 -0.793547
vn -0.186193 0.298558 -0.936053
vn 0.186193 0.298558 -0.936053
vn 0.530231 0.298558 -0.793547
vn 0.793547 0.298558 -0.530231
vn 0.936053 0.298558 -0.186193
vn -1.000000 0.000000 0.000000
vn 1.000000 0.000000 0.000000
usemtl body
f 1/1/1 2/1/2 3/1/3
f 4/1/4 1/1/1 3/1/3
f 5/1/5 6/1/6 2/1/2
f 1/1/1 5/1/5 2/1/2
f 7/1/7 8/1/8 6/1/6
f 5/1/5 7/1/7 6/1/6
f 9/1/9 10/1/10 8/1/8
f 7/1/7 9/1/9 8/1/8
f 11/1/11 12/1/12 10/1/10
f 9/1/9 11/1/11 10/1/10
f 4/1/4 3/1/3 12/1/12
f 11/1/11 4/1/4 12/1/12
f 13/1/13 1/1/1 4/1/4
f 14/1/14 13/1/13 4/1/4
f 15/1/15 5/1/5 1/1/1
f 13/1/13 15/1/15 1/1/1
f 16/1/16 7/1/7 5/1/5
f 15/1/15 16/1/16 5/1/5
f 17/1/17 9/1/9 7/1/7
f 16/1/16 17/1/17 7/1/7
f 18/1/18 11/1/11 9/1/9
f 17/1/17 18/1/18 9/1/9
f 14/1/14 4/1/4 11/1/11
f 18/1/18 14/1/14 11/1/11
f 19/1/19 3/1/19 2/1/19
f 19/1/19 2/1/19 6/1/19
f 19/1/19 6/1/19 8/1/19
f 19/1/19 8/1/19 10/1/19
f 19/1/19 10/1/19 12/1/19
f 19/1/19 12/1/19 3/1/19
f 20/1/20 13/1/20 14/1/20
f 20/1/20 15/1/20 13/1/20
f 20/1/20 16/1/20 15/1/20
f 20/1/20 17/1/20 16/1/20
f 20/1/20 18/1/20 17/1/20
f 20/1/20 14/1/20 18/1/20
f 21/2/21 22/3/22 23/4/23
f 24/5/24 21/2/21 23/4/23
f 25/6/25 26/7/26 22/3/22
f 21/2/21 25/6/25 22/3/22
f 27/8/27 28/9/28 26/7/26
f 25/6/25 27/8/27 26/7/26
f 29/10/29 30/11/30 28/9/28
f 27/8/27 29/10/29 28/9/28
f 31/12/31 32/13/32 30/11/30
f 29/10/29 31/12/31 30/11/30
f 33/14/33 34/15/34 32/13/32
f 31/12/31 33/14/33 32/13/32
f 35/16/35 36/17/36 34/15/34
f 33/14/33 35/16/35 34/15/34
f 37/18/37 38/19/38 36/17/36
f 35/16/35 37/18/37 36/17/36
f 39/20/39 40/21/40 38/19/38
f 37/18/37 39/20/39 38/19/38
f 41/22/41 42/23/42 40/21/40
f 39/20/39 41/22/41 40/21/40
f 43/24/43 44/25/44 42/23/42
f 41/22/41 43/24/43 42/23/42
f 45/26/45 46/27/46 44/25/44
f 43/24/43 45/26/45 44/25/44
f 47/28/47 48/29/48 46/27/46
f 45/26/45 47/28/47 46/27/46
f 49/30/49 50/31/50 48/29/48
f 47/28/47 49/30/49 48/29/48
f 51/32/51 52/33/52 50/31/50
f 49/30/49 51/32/51 50/31/50
f 24/34/24 23/35/23 52/33/52
f 51/32/51 24/34/24 52/33/52
f 53/36/53 21/2/21 24/5/24
f 54/37/54 53/36/53 24/5/24
f 55/38/55 25/6/25 21/2/21
f 53/36/53 55/38/55 21/2/21
f 56/39/56 27/8/27 25/6/25
f 55/38/55 56/39/56 25/6/25
f 57/40/57 29/10/29 27/8/27
f 56/39/56 57/40/57 27/8/27
f 58/41/58 31/12/31 29/10/29
f 57/40/57 58/41/58 29/10/29
f 59/42/59 33/14/33 31/12/31
f 58/41/58 59/42/59 31/12/31
f 60/43/60 35/16/35 33/14/33
f 59/42/59 60/43/60 33/14/33
f 61/44/61 37/18/37 35/16/35
f 60/43/60 61/44/61 35/16/35
f 62/45/62 39/20/39 37/18/37
f 61/44/61 62/45/62 37/18/37
f 63/46/63 41/22/41 39/20/39
f 62/45/62 63/46/63 39/20/39
f 64/47/64 43/24/43 41/22/41
f 63/46/63 64/47/64 41/22/41
f 65/48/65 45/26/45 43/24/43
f 64/47/64 65/48/65 43/24/43
f 66/49/66 47/28/47 45/26/45
f 65/48/65 66/49/66 45/26/45
f 67/50/67 49/30/49 47/28/47
f 66/49/66 67/50/67 47/28/47
f 68/51/68 51/32/51 49/30/49
f 67/50/67 68/51/68 49/30/49
f 54/52/54 24/34/24 51/32/51
f 68/51/68 54/52/54 51/32/51
f 69/53/69 53/36/53 54/37/54
f 70/54/70 69/53/69 54/37/54
f 71/55/71 55/38/55 53/36/53
f 69/53/69 71/55/71 53/36/53
f 72/56/72 56/39/56 55/38/55
f 71/55/71 72/56/72 55/38/55
f 73/57/73 57/40/57 56/39/56
f 72/56/72 73/57/73 56/39/56
f 74/58/74 58/41/58 57/40/57
f 73/57/73 74/58/74 57/40/57
f 75/59/75 59/42/59 58/41/58
f 74/58/74 75/59/75 58/41/58
f 76/60/76 60/43/60 59/42/59
f 75/59/75 76/60/76 59/42/59
f 77/61/77 61/44/61 60/43/60
f 76/60/76 77/61/77 60/43/60
f 78/62/78 62/45/62 61/44/61
f 77/61/77 78/62/78 61/44/61
f 79/63/79 63/46/63 62/45/62
f 78/62/78 79/63/79 62/45/62
f 80/64/80 64/47/64 63/46/63
f 79/63/79 80/64/80 63/46/63
f 81/65/81 65/48/65 64/47/64
f 80/64/80 81/65/81 64/47/64
f 82/66/82 66/49/66 65/48/65
f 81/65/81 82/66/82 65/48/65
f 83/67/83 67/50/67 66/49/66
f 82/66/82 83/67/83 66/49/66
f 84/68/84 68/51/68 67/50/67
f 83/67/83 84/68/84 67/50/67
f 70/69/70 54/52/54 68/51/68
f 84/68/84 70/69/70 68/51/68
f 85/70/85 69/53/69 70/54/70
f 86/71/86 85/70/85 70/54/70
f 87/72/87 71/55/71 69/53/69
f 85/70/85 87/72/87 69/53/69
f 88/73/88 72/56/72 71/55/71
f 87/72/87 88/73/88 71/55/71
f 89/74/89 73/57/73 72/56/72
f 88/73/88 89/74/89 72/56/72
f 90/75/90 74/58/74 73/57/73
f 89/74/89 90/75/90 73/57/73
f 91/76/91 75/59/75 74/58/74
f 90/75/90 91/76/91 74/58/74
f 92/77/92 76/60/76 75/59/75
f 91/76/91 92/77/92 75/59/75
f 93/78/93 77/61/77 76/60/76
f 92/77/92 93/78/93 76/60/76
f 94/79/94 78/62/78 77/61/77
f 93/78/93 94/79/94 77/61/77
f 95/80/95 79/63/79 78/62/78
f 94/79/94 95/80/95 78/62/78
f 96/81/96 80/64/80 79/63/79
f 95/80/95 96/81/96 79/63/79
f 97/82/97 81/65/81 80/64/80
f 96/81/96 97/82/97 80/64/80
f 98/83/98 82/66/82 81/65/81
f 97/82/97 98/83/98 81/65/81
f 99/84/99 83/67/83 82/66/82
f 98/83/98 99/84/99 82/66/82
f 100/85/100 84/68/84 83/67/83
f 99/84/99 100/85/100 83/67/83
f 86/86/86 70/69/70 84/68/84
f 100/85/100 86/86/86 84/68/84
f 101/87/101 85/70/85 86/71/86
f 102/88/102 101/87/101 86/71/86
f 103/89/103 87/72/87 85/70/85
f 101/87/101 103/89/103 85/70/85
f 104/90/104 88/73/88 87/72/87
f 103/89/103 104/90/104 87/72/87
f 105/91/105 89/74/89 88/73/88
f 104/90/104 105/91/105 88/73/88
f 106/92/106 90/75/90 89/74/89
f 105/91/105 106/92/106 89/74/89
f 107/93/107 91/76/91 90/75/90
f 106/92/106 107/93/107 90/75/90
f 108/94/108 92/77/92 91/76/91
f 107/93/107 108/94/108 91/76/91
f 109/95/109 93/78/93 92/77/92
f 108/94/108 109/95/109 92/77/92
f 110/96/110 94/79/94 93/78/93
f 109/95/109 110/96/110 93/78/93
f 111/97/111 95/80/95 94/79/94
f 110/96/110 111/97/111 94/79/94
f 112/98/112 96/81/96 95/80/95
f 111/97/111 112/98/112 95/80/95
f 113/99/113 97/82/97 96/81/96
f 112/98/112 113/99/113 96/81/96
f 114/100/114 98/83/98 97/82/97
f 113/99/113 114/100/114 97/82/97
f 115/101/115 99/84/99 98/83/98
f 114/100/114 115/101/115 98/83/98
f 116/102/116 100/85/100 99/84/99
f 115/101/115 116/102/116 99/84/99
f 102/103/102 86/86/86 100/85/100
f 116/102/116 102/103/102 100/85/100
f 117/104/117 101/87/101 102/88/102
f 118/105/118 117/104/117 102/88/102
f 119/106/119 103/89/103 101/87/101
f 117/104/117 119/106/119 101/87/101
f 120/107/120 104/90/104 103/89/103
f 119/106/119 120/107/120 103/89/103
f 121/108/121 105/91/105 104/90/104
f 120/107/120 121/108/121 104/90/104
f 122/109/122 106/92/106 105/91/105
f 121/108/121 122/109/122 105/91/105
f 123/110/123 107/93/107 106/92/106
f 122/109/122 123/110/123 106/92/106
f 124/111/124 108/94/108 107/93/107
f 123/110/123 124/111/124 107/93/107
f 125/112/125 109/95/109 108/94/108
f 124/111/124 125/112/125 108/94/108
f 126/113/126 110/96/110 109/95/109
f 125/112/125 126/113/126 109/95/109
f 127/114/127 111/97/111 110/96/110
f 126/113/126 127/114/127 110/96/110
f 128/115/128 112/98/112 111/97/111
f 127/114/127 128/115/128 111/97/111
f 129/116/129 113/99/113 112/98/112
f 128/115/128 129/116/129 112/98/112
f 130/117/130 114/100/114 113/99/113
f 129/116/129 130/117/130 113/99/113
f 131/118/131 115/101/115 114/100/114
f 130/117/130 131/118/131 114/100/114
f 132/119/132 116/102/116 115/101/115
f 131/118/131 132/119/132 115/101/115
f 118/120/118 102/103/102 116/102/116
f 132/119/132 118/120/118 116/102/116
f 133/121/133 117/104/117 118/105/118
f 134/122/134 133/121/133 118/105/118
f 135/123/135 119/106/119 117/104/117
f 133/121/133 135/123/135 117/104/117
f 136/124/136 120/107/120 119/106/119
f 135/123/135 136/124/136 119/106/119
f 137/125/137 121/108/121 120/107/120
f 136/124/136 137/125/137 120/107/120
f 138/126/138 122/109/122 121/108/121
f 137/125/137 138/126/138 121/108/121
f 139/127/139 123/110/123 122/109/122
f 138/126/138 139/127/139 122/109/122
f 140/128/140 124/111/124 123/110/123
f 139/127/139 140/128/140 123/110/123
f 141/129/141 125/112/125 124/111/124
f 140/128/140 141/129/141 124/111/124
f 142/130/142 126/113/126 125/112/125
f 141/129/141 142/130/142 125/112/125
f 143/131/143 127/114/127 126/113/126
f 142/130/142 143/131/143 126/113/126
f 144/132/144 128/115/128 127/114/127
f 143/131/143 144/132/144 127/114/127
f 145/133/145 129/116/129 128/115/128
f 144/132/144 145/133/145 128/115/128
f 146/134/146 130/117/130 129/116/129
f 145/133/145 146/134/146 129/116/129
f 147/135/147 131/118/131 130/117/130
f 146/134/146 147/135/147 130/117/130
f 148/136/148 132/119/132 131/118/131
f 147/135/147 148/136/148 131/118/131
f 134/137/134 118/120/118 132/119/132
f 148/136/148 134/137/134 132/119/132
f 149/138/149 133/121/133 134/122/134
f 150/139/150 149/138/149 134/122/134
f 151/140/151 135/123/135 133/121/133
f 149/138/149 151/140/151 133/121/133
f 152/141/152 136/124/136 135/123/135
f 151/140/151 152/141/152 135/123/135
f 153/142/153 137/125/137 136/124/136
f 152/141/152 153/142/153 136/124/136
f 154/143/154 138/126/138 137/125/137
f 153/142/153 154/143/154 137/125/137
f 155/144/155 139/127/139 138/126/138
f 154/143/154 155/144/155 138/126/138
f 156/145/156 140/128/140 139/127/139
f 155/144/155 156/145/156 139/127/139
f 157/146/157 141/129/141 140/128/140
f 156/145/156 157/146/157 140/128/140
f 158/147/158 142/130/142 141/129/141
f 157/146/157 158/147/158 141/129/141
f 159/148/159 143/131/143 142/130/142
f 158/147/158 159/148/159 142/130/142
f 160/149/160 144/132/144 143/131/143
f 159/148/159 160/149/160 143/131/143
f 161/150/161 145/133/145 144/132/144
f 160/149/160 161/150/161 144/132/144
f 162/151/162 146/134/146 145/133/145
f 161/150/161 162/151/162 145/133/145
f 163/152/163 147/135/147 146/134/146
f 162/151/162 163/152/163 146/134/146
f 164/153/164 148/136/148 147/135/147
f 163/152/163 164/153/164 147/135/147
f 150/154/150 134/137/134 148/136/148
f 164/153/164 150/154/150 148/136/148
f 165/155/85 149/138/149 150/139/150
f 166/156/86 165/155/85 150/139/150
f 167/157/87 151/140/151 149/138/149
f 165/155/85 167/157/87 149/138/149
f 168/158/88 152/141/152 151/140/151
f 167/157/87 168/158/88 151/140/151
f 169/159/89 153/142/153 152/141/152
f 168/158/88 169/159/89 152/141/152
f 170/160/90 154/143/154 153/142/153
f 169/159/89 170/160/90 153/142/153
f 171/161/91 155/144/155 154/143/154
f 170/160/90 171/161/91 154/143/154
f 172/162/92 156/145/156 155/144/155
f 171/161/91 172/162/92 155/144/155
f 173/163/93 157/146/157 156/145/156
f 172/162/92 173/163/93 156/145/156
f 174/164/94 158/147/158 157/146/157
f 173/163/93 174/164/94 157/146/157
f 175/165/95 159/148/159 158/147/158
f 174/164/94 175/165/95 158/147/158
f 176/166/96 160/149/160 159/148/159
f 175/165/95 176/166/96 159/148/159
f 177/167/97 161/150/161 160/149/160
f 176/166/96 177/167/97 160/149/160
f 178/168/98 162/151/162 161/150/161
f 177/167/97 178/168/98 161/150/161
f 179/169/99 163/152/163 162/151/162
f 178/168/98 179/169/99 162/151/162
f 180/170/100 164/153/164 163/152/163
f 179/169/99 180/170/100 163/152/163
f 166/171/86 150/154/150 164/153/164
f 180/170/100 166/171/86 164/153/164
f 181/172/101 165/155/85 166/156/86
f 182/173/102 181/172/101 166/156/86
f 183/174/103 167/157/87 165/155/85
f 181/172/101 183/174/103 165/155/85
f 184/175/104 168/158/88 167/157/87
f 183/174/103 184/175/104 167/157/87
f 185/176/105 169/159/89 168/158/88
f 184/175/104 185/176/105 168/158/88
f 186/177/106 170/160/90 169/159/89
f 185/176/105 186/177/106 169/159/89
f 187/178/107 171/161/91 170/160/90
f 186/177/106 187/178/107 170/160/90
f 188/179/108 172/162/92 171/161/91
f 187/178/107 188/179/108 171/161/91
f 189/180/109 173/163/93 172/162/92
f 188/179/108 189/180/109 172/162/92
f 190/181/110 174/164/94 173/163/93
f 189/180/109 190/181/110 173/163/93
f 191/182/111 175/165/95 174/164/94
f 190/181/110 191/182/111 174/164/94
f 192/183/112 176/166/96 175/165/95
f 191/182/111 192/183/112 175/165/95
f 193/184/113 177/167/97 176/166/96
f 192/183/112 193/184/113 176/166/96
f 194/185/114 178/168/98 177/167/97
f 193/184/113 194/185/114 177/167/97
f 195/186/115 179/169/99 178/168/98
f 194/185/114 195/186/115 178/168/98
f 196/187/116 180/170/100 179/169/99
f 195/186/115 196/187/116 179/169/99
f 182/188/102 166/171/86 180/170/100
f 196/187/116 182/188/102 180/170/100
f 197/189/165 181/172/101 182/173/102
f 198/190/166 197/189/165 182/173/102
f 199/191/167 183/174/103 181/172/101
f 197/189/165 199/191/167 181/172/101
f 200/192/168 184/175/104 183/174/103
f 199/191/167 200/192/168 183/174/103
f 201/193/169 185/176/105 184/175/104
f 200/192/168 201/193/169 184/175/104
f 202/194/170 186/177/106 185/176/105
f 201/193/169 202/194/170 185/176/105
f 203/195/171 187/178/107 186/177/106
f 202/194/170 203/195/171 186/177/106
f 204/196/172 188/179/108 187/178/107
f 203/195/171 204/196/172 187/178/107
f 205/197/173 189/180/109 188/179/108
f 204/196/172 205/197/173 188/179/108
f 206/198/174 190/181/110 189/180/109
f 205/197/173 206/198/174 189/180/109
f 207/199/175 191/182/111 190/181/110
f 206/198/174 207/199/175 190/181/110
f 208/200/176 192/183/112 191/182/111
f 207/199/175 208/200/176 191/182/111
f 209/201/177 193/184/113 192/183/112
f 208/200/176 209/201/177 192/183/112
f 210/202/178 194/185/114 193/184/113
f 209/201/177 210/202/178 193/184/113
f 211/203/179 195/186/115 194/185/114
f 210/202/178 211/203/179 194/185/114
f 212/204/180 196/187/116 195/186/115
f 211/203/179 212/204/180 195/186/115
f 198/205/166 182/188/102 196/187/116
f 212/204/180 198/205/166 196/187/116
f 213/206/181 197/189/165 198/190/166
f 214/207/182 213/206/181 198/190/166
f 215/208/183 199/191/167 197/189/165
f 213/206/181 215/208/183 197/189/165
f 216/209/184 200/192/168 199/191/167
f 215/208/183 216/209/184 199/191/167
f 217/210/185 201/193/169 200/192/168
f 216/209/184 217/210/185 200/192/168
f 218/211/186 202/194/170 201/193/169
f 217/210/185 218/211/186 201/193/169
f 219/212/187 203/195/171 202/194/170
f 218/211/186 219/212/187 202/194/170
f 220/213/188 204/196/172 203/195/171
f 219/212/187 220/213/188 203/195/171
f 221/214/189 205/197/173 204/196/172
f 220/213/188 221/214/189 204/196/172
f 222/215/190 206/198/174 205/197/173
f 221/214/189 222/215/190 205/197/173
f 223/216/191 207/199/175 206/198/174
f 222/215/190 223/216/191 206/198/174
f 224/217/192 208/200/176 207/199/175
f 223/216/191 224/217/192 207/199/175
f 225/218/193 209/201/177 208/200/176
f 224/217/192 225/218/193 208/200/176
f 226/219/194 210/202/178 209/201/177
f 225/218/193 226/219/194 209/201/177
f 227/220/195 211/203/179 210/202/178
f 226/219/194 227/220/195 210/202/178
f 228/221/196 212/204/180 211/203/179
f 227/220/195 228/221/196 211/203/179
f 214/222/182 198/205/166 212/204/180
f 228/221/196 214/222/182 212/204/180
f 229/223/197 213/206/181 214/207/182
f 230/224/198 229/223/197 214/207/182
f 231/225/199 215/208/183 213/206/181
f 229/223/197 231/225/199 213/206/181
f 232/226/200 216/209/184 215/208/183
f 231/225/199 232/226/200 215/208/183
f 233/227/201 217/210/185 216/209/184
f 232/226/200 233/227/201 216/209/184
f 234/228/202 218/211/186 217/210/185
f 233/227/201 234/228/202 217/210/185
f 235/229/203 219/212/187 218/211/186
f 234/228/202 235/229/203 218/211/186
f 236/230/204 220/213/188 219/212/187
f 235/229/203 236/230/204 219/212/187
f 237/231/205 221/214/189 220/213/188
f 236/230/204 237/231/205 220/213/188
f 238/232/206 222/215/190 221/214/189
f 237/231/205 238/232/206 221/214/189
f 239/233/207 223/216/191 222/215/190
f 238/232/206 239/233/207 222/215/190
f 240/234/208 224/217/192 223/216/191
f 239/233/207 240/234/208 223/216/191
f 241/235/209 225/218/193 224/217/192
f 240/234/208 241/235/209 224/217/192
f 242/236/210 226/219/194 225/218/193
f 241/235/209 242/236/210 225/218/193
f 243/237/211 227/220/195 226/219/194
f 242/236/210 243/237/211 226/219/194
f 244/238/212 228/221/196 227/220/195
f 243/237/211 244/238/212 227/220/195
f 230/239/198 214/222/182 228/221/196
f 244/238/212 230/239/198 228/221/196
f 245/240/85 229/223/197 230/224/198
f 246/241/86 245/240/85 230/224/198
f 247/242/87 231/225/199 229/223/197
f 245/240/85 247/242/87 229/223/197
f 248/243/88 232/226/200 231/225/199
f 247/242/87 248/243/88 231/225/199
f 249/244/89 233/227/201 232/226/200
f 248/243/88 249/244/89 232/226/200
f 250/245/90 234/228/202 233/227/201
f 249/244/89 250/245/90 233/227/201
f 251/246/91 235/229/203 234/228/202
f 250/245/90 251/246/91 234/228/202
f 252/247/92 236/230/204 235/229/203
f 251/246/91 252/247/92 235/229/203
f 253/248/93 237/231/205 236/230/204
f 252/247/92 253/248/93 236/230/204
f 254/249/94 238/232/206 237/231/205
f 253/248/93 254/249/94 237/231/205
f 255/250/95 239/233/207 238/232/206
f 254/249/94 255/250/95 238/232/206
f 256/251/96 240/234/208 239/233/207
f 255/250/95 256/251/96 239/233/207
f 257/252/97 241/235/209 240/234/208
f 256/251/96 257/252/97 240/234/208
f 258/253/98 242/236/210 241/235/209
f 257/252/97 258/253/98 241/235/209
f 259/254/99 243/237/211 242/236/210
f 258/253/98 259/254/99 242/236/210
f 260/255/100 244/238/212 243/237/211
f 259/254/99 260/255/100 243/237/211
f 246/256/86 230/239/198 244/238/212
f 260/255/100 246/256/86 244/238/212
f 261/257/101 245/240/85 246/241/86
f 262/258/102 261/257/101 246/241/86
f 263/259/103 247/242/87 245/240/85
f 261/257/101 263/259/103 245/240/85
f 264/260/104 248/243/88 247/242/87
f 263/259/103 264/260/104 247/242/87
f 265/261/105 249/244/89 248/243/88
f 264/260/104 265/261/105 248/243/88
f 266/262/106 250/245/90 249/244/89
f 265/261/105 266/262/106 249/244/89
f 267/263/107 251/246/91 250/245/90
f 266/262/106 267/263/107 250/245/90
f 268/264/108 252/247/92 251/246/91
f 267/263/107 268/264/108 251/246/91
f 269/265/109 253/248/93 252/247/92
f 268/264/108 269/265/109 252/247/92
f 270/266/110 254/249/94 253/248/93
f 269/265/109 270/266/110 253/248/93
f 271/267/111 255/250/95 254/249/94
f 270/266/110 271/267/111 254/249/94
f 272/268/112 256/251/96 255/250/95
f 271/267/111 272/268/112 255/250/95
f 273/269/113 257/252/97 256/251/96
f 272/268/112 273/269/113 256/251/96
f 274/270/114 258/253/98 257/252/97
f 273/269/113 274/270/114 257/252/97
f 275/271/115 259/254/99 258/253/98
f 274/270/114 275/271/115 258/253/98
f 276/272/116 260/255/100 259/254/99
f 275/271/115 276/272/116 259/254/99
f 262/273/102 246/256/86 260/255/100
f 276/272/116 262/273/102 260/255/100
f 277/274/213 261/257/101 262/258/102
f 278/275/214 277/274/213 262/258/102
f 279/276/215 263/259/103 261/257/101
f 277/274/213 279/276/215 261/257/101
f 280/277/216 264/260/104 263/259/103
f 279/276/215 280/277/216 263/259/103
f 281/278/217 265/261/105 264/260/104
f 280/277/216 281/278/217 264/260/104
f 282/279/218 266/262/106 265/261/105
f 281/278/217 282/279/218 265/261/105
f 283/280/219 267/263/107 266/262/106
f 282/279/218 283/280/219 266/262/106
f 284/281/220 268/264/108 267/263/107
f 283/280/219 284/281/220 267/263/107
f 285/282/221 269/265/109 268/264/108
f 284/281/220 285/282/221 268/264/108
f 286/283/222 270/266/110 269/265/109
f 285/282/221 286/283/222 269/265/109
f 287/284/223 271/267/111 270/266/110
f 286/283/222 287/284/223 270/266/110
f 288/285/224 272/268/112 271/267/111
f 287/284/223 288/285/224 271/267/111
f 289/286/225 273/269/113 272/268/112
f 288/285/224 289/286/225 272/268/112
f 290/287/226 274/270/114 273/269/113
f 289/286/225 290/287/226 273/269/113
f 291/288/227 275/271/115 274/270/114
f 290/287/226 291/288/227 274/270/114
f 292/289/228 276/272/116 275/271/115
f 291/288/227 292/289/228 275/271/115
f 278/290/214 262/273/102 276/272/116
f 292/289/228 278/290/214 276/272/116
f 293/291/229 277/274/213 278/275/214
f 294/292/230 293/291/229 278/275/214
f 295/293/231 279/276/215 277/274/213
f 293/291/229 295/293/231 277/274/213
f 296/294/232 280/277/216 279/276/215
f 295/293/231 296/294/232 279/276/215
f 297/295/233 281/278/217 280/277/216
f 296/294/232 297/295/233 280/277/216
f 298/296/234 282/279/218 281/278/217
f 297/295/233 298/296/234 281/278/217
f 299/297/235 283/280/219 282/279/218
f 298/296/234 299/297/235 282/279/218
f 300/298/236 284/281/220 283/280/219
f 299/297/235 300/298/236 283/280/219
f 301/299/237 285/282/221 284/281/220
f 300/298/236 301/299/237 284/281/220
f 302/300/238 286/283/222 285/282/221
f 301/299/237 302/300/238 285/282/221
f 303/301/239 287/284/223 286/283/222
f 302/300/238 303/301/239 286/283/222
f 304/302/240 288/285/224 287/284/223
f 303/301/239 304/302/240 287/284/223
f 305/303/241 289/286/225 288/285/224
f 304/302/240 305/303/241 288/285/224
f 306/304/242 290/287/226 289/286/225
f 305/303/241 306/304/242 289/286/225
f 307/305/243 291/288/227 290/287/226
f 306/304/242 307/305/243 290/287/226
f 308/306/244 292/289/228 291/288/227
f 307/305/243 308/306/244 291/288/227
f 294/307/230 278/290/214 292/289/228
f 308/306/244 294/307/230 292/289/228
f 309/308/245 293/291/229 294/292/230
f 310/309/246 309/308/245 294/292/230
f 311/310/247 295/293/231 293/291/229
f 309/308/245 311/310/247 293/291/229
f 312/311/248 296/294/232 295/293/231
f 311/310/247 312/311/248 295/293/231
f 313/312/249 297/295/233 296/294/232
f 312/311/248 313/312/249 296/294/232
f 314/313/250 298/296/234 297/295/233
f 313/312/249 314/313/250 297/295/233
f 315/314/251 299/297/235 298/296/234
f 314/313/250 315/314/251 298/296/234
f 316/315/252 300/298/236 299/297/235
f 315/314/251 316/315/252 299/297/235
f 317/316/253 301/299/237 300/298/236
f 316/315/252 317/316/253 300/298/236
f 318/317/254 302/300/238 301/299/237
f 317/316/253 318/317/254 301/299/237
f 319/318/255 303/301/239 302/300/238
f 318/317/254 319/318/255 302/300/238
f 320/319/256 304/302/240 303/301/239
f 319/318/255 320/319/256 303/301/239
f 321/320/257 305/303/241 304/302/240
f 320/319/256 321/320/257 304/302/240
f 322/321/258 306/304/242 305/303/241
f 321/320/257 322/321/258 305/303/241
f 323/322/259 307/305/243 306/304/242
f 322/321/258 323/322/259 306/304/242
f 324/323/260 308/306/244 307/305/243
f 323/322/259 324/323/260 307/305/243
f 310/324/246 294/307/230 308/306/244
f 324/323/260 310/324/246 308/306/244
f 325/325/261 309/308/245 310/309/246
f 326/326/262 325/325/261 310/309/246
f 327/327/263 311/310/247 309/308/245
f 325/325/261 327/327/263 309/308/245
f 328/328/264 312/311/248 311/310/247
f 327/327/263 328/328/264 311/310/247
f 329/329/265 313/312/249 312/311/248
f 328/328/264 329/329/265 312/311/248
f 330/330/266 314/313/250 313/312/249
f 329/329/265 330/330/266 313/312/249
f 331/331/267 315/314/251 314/313/250
f 330/330/266 331/331/267 314/313/250
f 332/332/268 316/315/252 315/314/251
f 331/331/267 332/332/268 315/314/251
f 333/333/269 317/316/253 316/315/252
f 332/332/268 333/333/269 316/315/252
f 334/334/270 318/317/254 317/316/253
f 333/333/269 334/334/270 317/316/253
f 335/335/271 319/318/255 318/317/254
f 334/334/270 335/335/271 318/317/254
f 336/336/272 320/319/256 319/318/255
f 335/335/271 336/336/272 319/318/255
f 337/337/273 321/320/257 320/319/256
f 336/336/272 337/337/273 320/319/256
f 338/338/274 322/321/258 321/320/257
f 337/337/273 338/338/274 321/320/257
f 339/339/275 323/322/259 322/321/258
f 338/338/274 339/339/275 322/321/258
f 340/340/276 324/323/260 323/322/259
f 339/339/275 340/340/276 323/322/259
f 326/341/262 310/324/246 324/323/260
f 340/340/276 326/341/262 324/323/260
f 341/342/85 325/325/261 326/326/262
f 342/343/86 341/342/85 326/326/262
f 343/344/87 327/327/263 325/325/261
f 341/342/85 343/344/87 325/325/261
f 344/345/88 328/328/264 327/327/263
f 343/344/87 344/345/88 327/327/263
f 345/346/89 329/329/265 328/328/264
f 344/345/88 345/346/89 328/328/264
f 346/347/90 330/330/266 329/329/265
f 345/346/89 346/347/90 329/329/265
f 347/348/91 331/331/267 330/330/266
f 346/347/90 347/348/91 330/330/266
f 348/349/92 332/332/268 331/331/267
f 347/348/91 348/349/92 331/331/267
f 349/350/93 333/333/269 332/332/268
f 348/349/92 349/350/93 332/332/268
f 350/351/94 334/334/270 333/333/269
f 349/350/93 350/351/94 333/333/269
f 351/352/95 335/335/271 334/334/270
f 350/351/94 351/352/95 334/334/270
f 352/353/96 336/336/272 335/335/271
f 351/352/95 352/353/96 335/335/271
f 353/354/97 337/337/273 336/336/272
f 352/353/96 353/354/97 336/336/272
f 354/355/98 338/338/274 337/337/273
f 353/354/97 354/355/98 337/337/273
f 355/356/99 339/339/275 338/338/274
f 354/355/98 355/356/99 338/338/274
f 356/357/100 340/340/276 339/339/275
f 355/356/99 356/357/100 339/339/275
f 342/358/86 326/341/262 340/340/276
f 356/357/100 342/358/86 340/340/276
f 357/359/20 341/359/20 342/359/20
f 357/359/20 343/359/20 341/359/20
f 357/359/20 344/359/20 343/359/20
f 357/359/20 345/359/20 344/359/20
f 357/359/20 346/359/20 345/359/20
f 357/359/20 347/359/20 346/359/20
f 357/359/20 348/359/20 347/359/20
f 357/359/20 349/359/20 348/359/20
f 357/359/20 350/359/20 349/359/20
f 357/359/20 351/359/20 350/359/20
f 357/359/20 352/359/20 351/359/20
f 357/359/20 353/359/20 352/359/20
f 357/359/20 354/359/20 353/359/20
f 357/359/20 355/359/20 354/359/20
f 357/359/20 356/359/20 355/359/20
f 357/359/20 342/359/20 356/359/20
f 358/359/277 359/359/277 360/359/277
f 358/359/277 360/359/277 361/359/277
f 362/359/278 363/359/278 364/359/278
f 362/359/278 364/359/278 365/359/278
f 361/359/19 362/359/19 365/359/19
f 361/359/19 365/359/19 358/359/19
f 359/359/20 364/359/20 363/359/20
f 359/359/20 363/359/20 360/359/20
f 360/359/10 363/359/10 362/359/10
f 360/359/10 362/359/10 361/359/10
f 358/359/2 365/359/2 364/359/2
f 358/359/2 364/359/2 359/359/2
f 366/359/277 367/359/277 368/359/277
f 366/359/277 368/359/277 369/359/277
f 370/359/278 371/359/278 372/359/278
f 370/359/278 372/359/278 373/359/278
f 369/359/19 370/359/19 373/359/19
f 369/359/19 373/359/19 366/359/19
f 367/359/20 372/359/20 371/359/20
f 367/359/20 371/359/20 368/359/20
f 368/359/10 371/359/10 370/359/10
f 368/359/10 370/359/10 369/359/10
f 366/359/2 373/359/2 372/359/2
f 366/359/2 372/359/2 367/359/2
f 365/359/277 374/359/277 375/359/277
f 365/359/277 375/359/277 362/359/277
f 369/359/278 376/359/278 377/359/278
f 369/359/278 377/359/278 366/359/278
f 362/359/19 369/359/19 366/359/19
f 362/359/19 366/359/19 365/359/19
f 374/359/20 377/359/20 376/359/20
f 374/359/20 376/359/20 375/359/20
f 375/359/10 376/359/10 369/359/10
f 375/359/10 369/359/10 362/359/10
f 365/359/2 366/359/2 377/359/2
f 365/359/2 377/359/2 374/359/2
f 378/359/277 364/359/277 363/359/277
f 378/359/277 363/359/277 379/359/277
f 380/359/278 368/359/278 367/359/278
f 380/359/278 367/359/278 381/359/278
f 379/359/19 380/359/19 381/359/19
f 379/359/19 381/359/19 378/359/19
f 364/359/20 367/359/20 368/359/20
f 364/359/20 368/359/20 363/359/20
f 363/359/10 368/359/10 380/359/10
f 363/359/10 380/359/10 379/359/10
f 378/359/2 381/359/2 367/359/2
f 378/359/2 367/359/2 364/359/2
