# Procedurally generated by dev-env-utils/scripts/gen_work_zone_devices.py -- do not hand edit
mtllib workzone_channelizing_wall.mtl
o workzone_channelizing_wall_core
v 0.000000 0.000000 0.687500
v 1.000000 0.000000 0.687500
v 1.000000 0.081250 0.687500
v 0.000000 0.081250 0.687500
v 1.000000 0.287500 0.606250
v 0.000000 0.287500 0.606250
v 1.000000 0.600000 0.590625
v 0.000000 0.600000 0.590625
v 1.000000 0.687500 0.568750
v 0.000000 0.687500 0.568750
v 0.000000 0.081250 0.312500
v 1.000000 0.081250 0.312500
v 1.000000 0.000000 0.312500
v 0.000000 0.000000 0.312500
v 0.000000 0.287500 0.393750
v 1.000000 0.287500 0.393750
v 0.000000 0.600000 0.409375
v 1.000000 0.600000 0.409375
v 0.000000 0.687500 0.431250
v 1.000000 0.687500 0.431250
vt 0.000000 0.000000
vt 0.781250 0.000000
vt 0.781250 0.081250
vt 0.000000 0.081250
vt 0.781250 0.287500
vt 0.000000 0.287500
vt 0.781250 0.600000
vt 0.000000 0.600000
vt 0.781250 0.687500
vt 0.000000 0.687500
vt 0.890625 0.625000
vn 0.000000 -0.000000 1.000000
vn 0.000000 0.366525 0.930408
vn 0.000000 0.049938 0.998752
vn 0.000000 0.242536 0.970143
vn 0.000000 -0.000000 -1.000000
vn 0.000000 0.366525 -0.930408
vn 0.000000 0.049938 -0.998752
vn 0.000000 0.242536 -0.970143
vn 0.000000 1.000000 0.000000
vn 0.000000 -1.000000 0.000000
usemtl body
f 1/1/1 2/2/1 3/3/1
f 1/1/1 3/3/1 4/4/1
f 4/4/2 3/3/2 5/5/2
f 4/4/2 5/5/2 6/6/2
f 6/6/3 5/5/3 7/7/3
f 6/6/3 7/7/3 8/8/3
f 8/8/4 7/7/4 9/9/4
f 8/8/4 9/9/4 10/10/4
f 11/4/5 12/3/5 13/2/5
f 11/4/5 13/2/5 14/1/5
f 15/6/6 16/5/6 12/3/6
f 15/6/6 12/3/6 11/4/6
f 17/8/7 18/7/7 16/5/7
f 17/8/7 16/5/7 15/6/7
f 19/10/8 20/9/8 18/7/8
f 19/10/8 18/7/8 17/8/8
f 10/11/9 9/11/9 20/11/9
f 10/11/9 20/11/9 19/11/9
f 14/11/10 13/11/10 2/11/10
f 14/11/10 2/11/10 1/11/10
