# Procedurally generated by dev-env-utils/scripts/gen_work_zone_devices.py -- do not hand edit
mtllib workzone_channelizer_cade.mtl
o workzone_channelizer_cade
v 0.617197 0.024750 0.782938
v 0.617197 0.000000 0.782938
v 0.782938 0.000000 0.617197
v 0.782938 0.024750 0.617197
v 0.382803 0.024750 0.782938
v 0.382803 0.000000 0.782938
v 0.217062 0.024750 0.617197
v 0.217062 0.000000 0.617197
v 0.217062 0.024750 0.382803
v 0.217062 0.000000 0.382803
v 0.382803 0.024750 0.217062
v 0.382803 0.000000 0.217062
v 0.617197 0.024750 0.217062
v 0.617197 0.000000 0.217062
v 0.782938 0.024750 0.382803
v 0.782938 0.000000 0.382803
v 0.604042 0.045000 0.751180
v 0.751180 0.045000 0.604042
v 0.395958 0.045000 0.751180
v 0.248820 0.045000 0.604042
v 0.248820 0.045000 0.395958
v 0.395958 0.045000 0.248820
v 0.604042 0.045000 0.248820
v 0.751180 0.045000 0.395958
v 0.500000 0.000000 0.500000
v 0.500000 0.045000 0.500000
v 0.265625 0.045000 0.551250
v 0.265625 0.128125 0.551250
v 0.265625 0.128125 0.448750
v 0.265625 0.045000 0.448750
v 0.734375 0.045000 0.448750
v 0.734375 0.128125 0.448750
v 0.734375 0.128125 0.551250
v 0.734375 0.045000 0.551250
v 0.293750 0.128125 0.526250
v 0.293750 0.975000 0.526250
v 0.293750 0.975000 0.473750
v 0.293750 0.128125 0.473750
v 0.336250 0.128125 0.473750
v 0.336250 0.975000 0.473750
v 0.336250 0.975000 0.526250
v 0.336250 0.128125 0.526250
v 0.663750 0.128125 0.526250
v 0.663750 0.975000 0.526250
v 0.663750 0.975000 0.473750
v 0.663750 0.128125 0.473750
v 0.706250 0.128125 0.473750
v 0.706250 0.975000 0.473750
v 0.706250 0.975000 0.526250
v 0.706250 0.128125 0.526250
v 0.336250 0.146875 0.526250
v 0.336250 0.146875 0.473750
v 0.663750 0.146875 0.473750
v 0.663750 0.146875 0.526250
v 0.336250 0.887500 0.526250
v 0.336250 0.913750 0.526250
v 0.336250 0.913750 0.473750
v 0.336250 0.887500 0.473750
v 0.663750 0.887500 0.473750
v 0.663750 0.913750 0.473750
v 0.663750 0.913750 0.526250
v 0.663750 0.887500 0.526250
v 0.336250 0.948750 0.526250
v 0.336250 0.948750 0.473750
v 0.663750 0.948750 0.473750
v 0.663750 0.948750 0.526250
v 0.416250 0.913750 0.473750
v 0.416250 0.948750 0.473750
v 0.416250 0.948750 0.526250
v 0.416250 0.913750 0.526250
v 0.473750 0.913750 0.526250
v 0.473750 0.948750 0.526250
v 0.473750 0.948750 0.473750
v 0.473750 0.913750 0.473750
v 0.526250 0.913750 0.473750
v 0.526250 0.948750 0.473750
v 0.526250 0.948750 0.526250
v 0.526250 0.913750 0.526250
v 0.583750 0.913750 0.526250
v 0.583750 0.948750 0.526250
v 0.583750 0.948750 0.473750
v 0.583750 0.913750 0.473750
v 0.336250 0.146875 0.513750
v 0.663750 0.146875 0.513750
v 0.663750 0.887500 0.513750
v 0.336250 0.887500 0.513750
v 0.336250 0.887500 0.486250
v 0.663750 0.887500 0.486250
v 0.663750 0.146875 0.486250
v 0.336250 0.146875 0.486250
vt 0.890625 0.375000
vt 0.890625 0.625000
vt 0.000000 0.000000
vt 0.781250 0.000000
vt 0.781250 1.000000
vt 0.000000 1.000000
vn 0.304107 0.607040 0.734180
vn 0.382683 -0.000000 0.923880
vn 0.923880 -0.000000 0.382683
vn 0.734180 0.607040 0.304107
vn -0.304107 0.607040 0.734180
vn -0.382683 -0.000000 0.923880
vn -0.734180 0.607040 0.304107
vn -0.923880 -0.000000 0.382683
vn -0.734180 0.607040 -0.304107
vn -0.923880 -0.000000 -0.382683
vn -0.304107 0.607040 -0.734180
vn -0.382683 -0.000000 -0.923880
vn 0.304107 0.607040 -0.734180
vn 0.382683 -0.000000 -0.923880
vn 0.734180 0.607040 -0.304107
vn 0.923880 -0.000000 -0.382683
vn 0.194238 0.861612 0.468931
vn 0.468931 0.861612 0.194238
vn -0.194238 0.861612 0.468931
vn -0.468931 0.861612 0.194238
vn -0.468931 0.861612 -0.194238
vn -0.194238 0.861612 -0.468931
vn 0.194238 0.861612 -0.468931
vn 0.468931 0.861612 -0.194238
vn 0.000000 -1.000000 0.000000
vn 0.000000 1.000000 0.000000
vn -1.000000 0.000000 0.000000
vn 1.000000 0.000000 0.000000
vn 0.000000 0.000000 -1.000000
vn 0.000000 0.000000 1.000000
usemtl body
f 1/1/1 2/1/2 3/1/3
f 4/1/4 1/1/1 3/1/3
f 5/1/5 6/1/6 2/1/2
f 1/1/1 5/1/5 2/1/2
f 7/1/7 8/1/8 6/1/6
f 5/1/5 7/1/7 6/1/6
f 9/1/9 10/1/10 8/1/8
f 7/1/7 9/1/9 8/1/8
f 11/1/11 12/1/12 10/1/10
f 9/1/9 11/1/11 10/1/10
f 13/1/13 14/1/14 12/1/12
f 11/1/11 13/1/13 12/1/12
f 15/1/15 16/1/16 14/1/14
f 13/1/13 15/1/15 14/1/14
f 4/1/4 3/1/3 16/1/16
f 15/1/15 4/1/4 16/1/16
f 17/1/17 1/1/1 4/1/4
f 18/1/18 17/1/17 4/1/4
f 19/1/19 5/1/5 1/1/1
f 17/1/17 19/1/19 1/1/1
f 20/1/20 7/1/7 5/1/5
f 19/1/19 20/1/20 5/1/5
f 21/1/21 9/1/9 7/1/7
f 20/1/20 21/1/21 7/1/7
f 22/1/22 11/1/11 9/1/9
f 21/1/21 22/1/22 9/1/9
f 23/1/23 13/1/13 11/1/11
f 22/1/22 23/1/23 11/1/11
f 24/1/24 15/1/15 13/1/13
f 23/1/23 24/1/24 13/1/13
f 18/1/18 4/1/4 15/1/15
f 24/1/24 18/1/18 15/1/15
f 25/1/25 3/1/25 2/1/25
f 25/1/25 2/1/25 6/1/25
f 25/1/25 6/1/25 8/1/25
f 25/1/25 8/1/25 10/1/25
f 25/1/25 10/1/25 12/1/25
f 25/1/25 12/1/25 14/1/25
f 25/1/25 14/1/25 16/1/25
f 25/1/25 16/1/25 3/1/25
f 26/1/26 17/1/26 18/1/26
f 26/1/26 19/1/26 17/1/26
f 26/1/26 20/1/26 19/1/26
f 26/1/26 21/1/26 20/1/26
f 26/1/26 22/1/26 21/1/26
f 26/1/26 23/1/26 22/1/26
f 26/1/26 24/1/26 23/1/26
f 26/1/26 18/1/26 24/1/26
f 27/2/27 28/2/27 29/2/27
f 27/2/27 29/2/27 30/2/27
f 31/2/28 32/2/28 33/2/28
f 31/2/28 33/2/28 34/2/28
f 30/2/25 31/2/25 34/2/25
f 30/2/25 34/2/25 27/2/25
f 28/2/26 33/2/26 32/2/26
f 28/2/26 32/2/26 29/2/26
f 29/2/29 32/2/29 31/2/29
f 29/2/29 31/2/29 30/2/29
f 27/2/30 34/2/30 33/2/30
f 27/2/30 33/2/30 28/2/30
f 35/2/27 36/2/27 37/2/27
f 35/2/27 37/2/27 38/2/27
f 39/2/28 40/2/28 41/2/28
f 39/2/28 41/2/28 42/2/28
f 38/2/25 39/2/25 42/2/25
f 38/2/25 42/2/25 35/2/25
f 36/2/26 41/2/26 40/2/26
f 36/2/26 40/2/26 37/2/26
f 37/2/29 40/2/29 39/2/29
f 37/2/29 39/2/29 38/2/29
f 35/2/30 42/2/30 41/2/30
f 35/2/30 41/2/30 36/2/30
f 43/2/27 44/2/27 45/2/27
f 43/2/27 45/2/27 46/2/27
f 47/2/28 48/2/28 49/2/28
f 47/2/28 49/2/28 50/2/28
f 46/2/25 47/2/25 50/2/25
f 46/2/25 50/2/25 43/2/25
f 44/2/26 49/2/26 48/2/26
f 44/2/26 48/2/26 45/2/26
f 45/2/29 48/2/29 47/2/29
f 45/2/29 47/2/29 46/2/29
f 43/2/30 50/2/30 49/2/30
f 43/2/30 49/2/30 44/2/30
f 42/2/27 51/2/27 52/2/27
f 42/2/27 52/2/27 39/2/27
f 46/2/28 53/2/28 54/2/28
f 46/2/28 54/2/28 43/2/28
f 39/2/25 46/2/25 43/2/25
f 39/2/25 43/2/25 42/2/25
f 51/2/26 54/2/26 53/2/26
f 51/2/26 53/2/26 52/2/26
f 52/2/29 53/2/29 46/2/29
f 52/2/29 46/2/29 39/2/29
f 42/2/30 43/2/30 54/2/30
f 42/2/30 54/2/30 51/2/30
f 55/2/27 56/2/27 57/2/27
f 55/2/27 57/2/27 58/2/27
f 59/2/28 60/2/28 61/2/28
f 59/2/28 61/2/28 62/2/28
f 58/2/25 59/2/25 62/2/25
f 58/2/25 62/2/25 55/2/25
f 56/2/26 61/2/26 60/2/26
f 56/2/26 60/2/26 57/2/26
f 57/2/29 60/2/29 59/2/29
f 57/2/29 59/2/29 58/2/29
f 55/2/30 62/2/30 61/2/30
f 55/2/30 61/2/30 56/2/30
f 63/2/27 41/2/27 40/2/27
f 63/2/27 40/2/27 64/2/27
f 65/2/28 45/2/28 44/2/28
f 65/2/28 44/2/28 66/2/28
f 64/2/25 65/2/25 66/2/25
f 64/2/25 66/2/25 63/2/25
f 41/2/26 44/2/26 45/2/26
f 41/2/26 45/2/26 40/2/26
f 40/2/29 45/2/29 65/2/29
f 40/2/29 65/2/29 64/2/29
f 63/2/30 66/2/30 44/2/30
f 63/2/30 44/2/30 41/2/30
f 56/2/27 63/2/27 64/2/27
f 56/2/27 64/2/27 57/2/27
f 67/2/28 68/2/28 69/2/28
f 67/2/28 69/2/28 70/2/28
f 57/2/25 67/2/25 70/2/25
f 57/2/25 70/2/25 56/2/25
f 63/2/26 69/2/26 68/2/26
f 63/2/26 68/2/26 64/2/26
f 64/2/29 68/2/29 67/2/29
f 64/2/29 67/2/29 57/2/29
f 56/2/30 70/2/30 69/2/30
f 56/2/30 69/2/30 63/2/30
f 71/2/27 72/2/27 73/2/27
f 71/2/27 73/2/27 74/2/27
f 75/2/28 76/2/28 77/2/28
f 75/2/28 77/2/28 78/2/28
f 74/2/25 75/2/25 78/2/25
f 74/2/25 78/2/25 71/2/25
f 72/2/26 77/2/26 76/2/26
f 72/2/26 76/2/26 73/2/26
f 73/2/29 76/2/29 75/2/29
f 73/2/29 75/2/29 74/2/29
f 71/2/30 78/2/30 77/2/30
f 71/2/30 77/2/30 72/2/30
f 79/2/27 80/2/27 81/2/27
f 79/2/27 81/2/27 82/2/27
f 60/2/28 65/2/28 66/2/28
f 60/2/28 66/2/28 61/2/28
f 82/2/25 60/2/25 61/2/25
f 82/2/25 61/2/25 79/2/25
f 80/2/26 66/2/26 65/2/26
f 80/2/26 65/2/26 81/2/26
f 81/2/29 65/2/29 60/2/29
f 81/2/29 60/2/29 82/2/29
f 79/2/30 61/2/30 66/2/30
f 79/2/30 66/2/30 80/2/30
f 83/3/30 84/4/30 85/5/30
f 83/3/30 85/5/30 86/6/30
f 87/6/29 88/5/29 89/4/29
f 87/6/29 89/4/29 90/3/29
