# Procedurally generated by dev-env-utils/scripts/gen_work_zone_devices.py -- do not hand edit
mtllib workzone_concrete_barrier.mtl
o workzone_concrete_barrier_inv
v 0.000000 0.000000 0.725000
v 1.000000 0.000000 0.725000
v 1.000000 0.087500 0.725000
v 0.000000 0.087500 0.725000
v 1.000000 0.262500 0.618750
v 0.000000 0.262500 0.618750
v 1.000000 0.762500 0.584375
v 0.000000 0.762500 0.584375
v 1.000000 0.812500 0.575000
v 0.000000 0.812500 0.575000
v 0.000000 0.087500 0.275000
v 1.000000 0.087500 0.275000
v 1.000000 0.000000 0.275000
v 0.000000 0.000000 0.275000
v 0.000000 0.262500 0.381250
v 1.000000 0.262500 0.381250
v 0.000000 0.762500 0.415625
v 1.000000 0.762500 0.415625
v 0.000000 0.812500 0.425000
v 1.000000 0.812500 0.425000
vt 0.000000 0.000000
vt 0.781250 0.000000
vt 0.781250 0.087500
vt 0.000000 0.087500
vt 0.781250 0.262500
vt 0.000000 0.262500
vt 0.781250 0.762500
vt 0.000000 0.762500
vt 0.781250 0.812500
vt 0.000000 0.812500
vt 0.890625 0.125000
vn 0.000000 -0.000000 1.000000
vn 0.000000 0.518978 0.854788
vn 0.000000 0.068588 0.997645
vn 0.000000 0.184289 0.982872
vn 0.000000 -0.000000 -1.000000
vn 0.000000 0.518978 -0.854788
vn 0.000000 0.068588 -0.997645
vn 0.000000 0.184289 -0.982872
vn 0.000000 1.000000 0.000000
vn 0.000000 -1.000000 0.000000
vn -1.000000 0.000000 0.000000
vn 1.000000 0.000000 0.000000
usemtl body
f 1/1/1 2/2/1 3/3/1
f 1/1/1 3/3/1 4/4/1
f 4/4/2 3/3/2 5/5/2
f 4/4/2 5/5/2 6/6/2
f 6/6/3 5/5/3 7/7/3
f 6/6/3 7/7/3 8/8/3
f 8/8/4 7/7/4 9/9/4
f 8/8/4 9/9/4 10/10/4
f 11/4/5 12/3/5 13/2/5
f 11/4/5 13/2/5 14/1/5
f 15/6/6 16/5/6 12/3/6
f 15/6/6 12/3/6 11/4/6
f 17/8/7 18/7/7 16/5/7
f 17/8/7 16/5/7 15/6/7
f 19/10/8 20/9/8 18/7/8
f 19/10/8 18/7/8 17/8/8
f 10/11/9 9/11/9 20/11/9
f 10/11/9 20/11/9 19/11/9
f 14/11/10 13/11/10 2/11/10
f 14/11/10 2/11/10 1/11/10
f 14/11/11 1/11/11 4/11/11
f 14/11/11 4/11/11 11/11/11
f 11/11/11 4/11/11 6/11/11
f 11/11/11 6/11/11 15/11/11
f 15/11/11 6/11/11 8/11/11
f 15/11/11 8/11/11 17/11/11
f 17/11/11 8/11/11 10/11/11
f 17/11/11 10/11/11 19/11/11
f 12/11/12 3/11/12 2/11/12
f 12/11/12 2/11/12 13/11/12
f 16/11/12 5/11/12 3/11/12
f 16/11/12 3/11/12 12/11/12
f 18/11/12 7/11/12 5/11/12
f 18/11/12 5/11/12 16/11/12
f 20/11/12 9/11/12 7/11/12
f 20/11/12 7/11/12 18/11/12
