# Procedurally generated by dev-env-utils/scripts/gen_work_zone_devices.py -- do not hand edit
mtllib workzone_barricade_type3.mtl
o workzone_barricade_type3_core
v -0.068281 0.000000 0.719375
v -0.068281 0.046406 0.719375
v -0.068281 0.046406 0.280625
v -0.068281 0.000000 0.280625
v 0.068281 0.000000 0.280625
v 0.068281 0.046406 0.280625
v 0.068281 0.046406 0.719375
v 0.068281 0.000000 0.719375
v -0.046406 0.046406 0.535438
v -0.046406 1.113750 0.535438
v -0.046406 1.113750 0.464562
v -0.046406 0.046406 0.464562
v 0.046406 0.046406 0.464562
v 0.046406 1.113750 0.464562
v 0.046406 1.113750 0.535438
v 0.046406 0.046406 0.535438
v 0.000000 0.253125 0.478063
v 1.000000 0.253125 0.478063
v 1.000000 0.253125 0.521938
v 0.000000 0.253125 0.521938
v 0.000000 0.455625 0.521938
v 1.000000 0.455625 0.521938
v 1.000000 0.455625 0.478063
v 0.000000 0.455625 0.478063
v 0.000000 0.556875 0.478063
v 1.000000 0.556875 0.478063
v 1.000000 0.556875 0.521938
v 0.000000 0.556875 0.521938
v 0.000000 0.759375 0.521938
v 1.000000 0.759375 0.521938
v 1.000000 0.759375 0.478063
v 0.000000 0.759375 0.478063
v 0.000000 0.860625 0.478063
v 1.000000 0.860625 0.478063
v 1.000000 0.860625 0.521938
v 0.000000 0.860625 0.521938
v 0.000000 1.063125 0.521938
v 1.000000 1.063125 0.521938
v 1.000000 1.063125 0.478063
v 0.000000 1.063125 0.478063
vt 0.890625 0.625000
vt 0.000000 0.000000
vt 0.781250 0.000000
vt 0.781250 1.000000
vt 0.000000 1.000000
vn -1.000000 0.000000 0.000000
vn 1.000000 0.000000 0.000000
vn 0.000000 -1.000000 0.000000
vn 0.000000 1.000000 0.000000
vn 0.000000 0.000000 -1.000000
vn 0.000000 0.000000 1.000000
usemtl body
f 1/1/1 2/1/1 3/1/1
f 1/1/1 3/1/1 4/1/1
f 5/1/2 6/1/2 7/1/2
f 5/1/2 7/1/2 8/1/2
f 4/1/3 5/1/3 8/1/3
f 4/1/3 8/1/3 1/1/3
f 2/1/4 7/1/4 6/1/4
f 2/1/4 6/1/4 3/1/4
f 3/1/5 6/1/5 5/1/5
f 3/1/5 5/1/5 4/1/5
f 1/1/6 8/1/6 7/1/6
f 1/1/6 7/1/6 2/1/6
f 9/1/1 10/1/1 11/1/1
f 9/1/1 11/1/1 12/1/1
f 13/1/2 14/1/2 15/1/2
f 13/1/2 15/1/2 16/1/2
f 12/1/3 13/1/3 16/1/3
f 12/1/3 16/1/3 9/1/3
f 10/1/4 15/1/4 14/1/4
f 10/1/4 14/1/4 11/1/4
f 11/1/5 14/1/5 13/1/5
f 11/1/5 13/1/5 12/1/5
f 9/1/6 16/1/6 15/1/6
f 9/1/6 15/1/6 10/1/6
f 17/1/3 18/1/3 19/1/3
f 17/1/3 19/1/3 20/1/3
f 21/1/4 22/1/4 23/1/4
f 21/1/4 23/1/4 24/1/4
f 20/2/6 19/3/6 22/4/6
f 20/2/6 22/4/6 21/5/6
f 24/5/5 23/4/5 18/3/5
f 24/5/5 18/3/5 17/2/5
f 25/1/3 26/1/3 27/1/3
f 25/1/3 27/1/3 28/1/3
f 29/1/4 30/1/4 31/1/4
f 29/1/4 31/1/4 32/1/4
f 28/2/6 27/3/6 30/4/6
f 28/2/6 30/4/6 29/5/6
f 32/5/5 31/4/5 26/3/5
f 32/5/5 26/3/5 25/2/5
f 33/1/3 34/1/3 35/1/3
f 33/1/3 35/1/3 36/1/3
f 37/1/4 38/1/4 39/1/4
f 37/1/4 39/1/4 40/1/4
f 36/2/6 35/3/6 38/4/6
f 36/2/6 38/4/6 37/5/6
f 40/5/5 39/4/5 34/3/5
f 40/5/5 34/3/5 33/2/5
