# Procedurally generated by dev-env-utils/scripts/gen_work_zone_devices.py -- do not hand edit
mtllib workzone_delineator.mtl
o workzone_delineator
v 0.356250 0.000000 0.643750
v 0.643750 0.000000 0.643750
v 0.643750 0.021875 0.643750
v 0.356250 0.021875 0.643750
v 0.643750 0.000000 0.356250
v 0.643750 0.021875 0.356250
v 0.356250 0.000000 0.356250
v 0.356250 0.021875 0.356250
v 0.612500 0.034375 0.612500
v 0.387500 0.034375 0.612500
v 0.612500 0.034375 0.387500
v 0.387500 0.034375 0.387500
v 0.403125 0.034375 0.534375
v 0.596875 0.034375 0.534375
v 0.596875 0.937500 0.534375
v 0.403125 0.937500 0.534375
v 0.596875 0.034375 0.465625
v 0.596875 0.937500 0.465625
v 0.403125 0.034375 0.465625
v 0.403125 0.937500 0.465625
vt 0.000000 0.000000
vt 0.781250 0.000000
vt 0.781250 0.021875
vt 0.000000 0.021875
vt 0.781250 0.034375
vt 0.000000 0.034375
vt 0.890625 0.375000
vt 0.781250 0.937500
vt 0.000000 0.937500
vt 0.890625 0.625000
vn 0.000000 -0.000000 1.000000
vn 1.000000 -0.000000 0.000000
vn 0.000000 -0.000000 -1.000000
vn -1.000000 -0.000000 0.000000
vn 0.000000 0.928477 0.371391
vn 0.371391 0.928477 0.000000
vn 0.000000 0.928477 -0.371391
vn -0.371391 0.928477 0.000000
vn 0.000000 -1.000000 0.000000
vn 0.000000 1.000000 0.000000
usemtl body
f 1/1/1 2/2/1 3/3/1
f 1/1/1 3/3/1 4/4/1
f 2/1/2 5/2/2 6/3/2
f 2/1/2 6/3/2 3/4/2
f 5/1/3 7/2/3 8/3/3
f 5/1/3 8/3/3 6/4/3
f 7/1/4 1/2/4 4/3/4
f 7/1/4 4/3/4 8/4/4
f 4/4/5 3/3/5 9/5/5
f 4/4/5 9/5/5 10/6/5
f 3/4/6 6/3/6 11/5/6
f 3/4/6 11/5/6 9/6/6
f 6/4/7 8/3/7 12/5/7
f 6/4/7 12/5/7 11/6/7
f 8/4/8 4/3/8 10/5/8
f 8/4/8 10/5/8 12/6/8
f 7/7/9 5/7/9 2/7/9
f 7/7/9 2/7/9 1/7/9
f 10/7/10 9/7/10 11/7/10
f 10/7/10 11/7/10 12/7/10
f 13/6/1 14/5/1 15/8/1
f 13/6/1 15/8/1 16/9/1
f 14/6/2 17/5/2 18/8/2
f 14/6/2 18/8/2 15/9/2
f 17/6/3 19/5/3 20/8/3
f 17/6/3 20/8/3 18/9/3
f 19/6/4 13/5/4 16/8/4
f 19/6/4 16/8/4 20/9/4
f 16/10/10 15/10/10 18/10/10
f 16/10/10 18/10/10 20/10/10
