# Procedurally generated by dev-env-utils/scripts/gen_work_zone_devices.py -- do not hand edit
mtllib workzone_flagger_paddle.mtl
o workzone_flagger_paddle
v 0.428125 0.000000 0.571875
v 0.428125 0.031250 0.571875
v 0.428125 0.031250 0.428125
v 0.428125 0.000000 0.428125
v 0.571875 0.000000 0.428125
v 0.571875 0.031250 0.428125
v 0.571875 0.031250 0.571875
v 0.571875 0.000000 0.571875
v 0.482500 0.025000 0.517500
v 0.482500 0.518750 0.517500
v 0.482500 0.518750 0.482500
v 0.482500 0.025000 0.482500
v 0.517500 0.025000 0.482500
v 0.517500 0.518750 0.482500
v 0.517500 0.518750 0.517500
v 0.517500 0.025000 0.517500
v 0.437868 0.500000 0.510000
v 0.437868 0.800000 0.510000
v 0.350000 0.712132 0.510000
v 0.350000 0.587868 0.510000
v 0.562132 0.500000 0.510000
v 0.562132 0.800000 0.510000
v 0.650000 0.587868 0.510000
v 0.650000 0.712132 0.510000
v 0.350000 0.587868 0.490000
v 0.350000 0.712132 0.490000
v 0.437868 0.800000 0.490000
v 0.437868 0.500000 0.490000
v 0.562132 0.800000 0.490000
v 0.562132 0.500000 0.490000
v 0.650000 0.712132 0.490000
v 0.650000 0.587868 0.490000
vt 0.890625 0.375000
vt 0.890625 0.625000
vt 0.228823 0.500000
vt 0.228823 1.000000
vt 0.000000 0.853553
vt 0.000000 0.646447
vt 0.552427 0.500000
vt 0.552427 1.000000
vt 0.781250 0.646447
vt 0.781250 0.853553
vt 0.781250 0.146447
vt 0.781250 0.353553
vt 0.552427 0.000000
vt 0.228823 0.000000
vt 0.000000 0.353553
vt 0.000000 0.146447
vn -1.000000 0.000000 0.000000
vn 1.000000 0.000000 0.000000
vn 0.000000 -1.000000 0.000000
vn 0.000000 1.000000 0.000000
vn 0.000000 0.000000 -1.000000
vn 0.000000 0.000000 1.000000
vn -0.707107 0.707107 0.000000
vn 0.707107 0.707107 0.000000
vn 0.707107 -0.707107 0.000000
vn -0.707107 -0.707107 0.000000
usemtl body
f 1/1/1 2/1/1 3/1/1
f 1/1/1 3/1/1 4/1/1
f 5/1/2 6/1/2 7/1/2
f 5/1/2 7/1/2 8/1/2
f 4/1/3 5/1/3 8/1/3
f 4/1/3 8/1/3 1/1/3
f 2/1/4 7/1/4 6/1/4
f 2/1/4 6/1/4 3/1/4
f 3/1/5 6/1/5 5/1/5
f 3/1/5 5/1/5 4/1/5
f 1/1/6 8/1/6 7/1/6
f 1/1/6 7/1/6 2/1/6
f 9/2/1 10/2/1 11/2/1
f 9/2/1 11/2/1 12/2/1
f 13/2/2 14/2/2 15/2/2
f 13/2/2 15/2/2 16/2/2
f 11/2/5 14/2/5 13/2/5
f 11/2/5 13/2/5 12/2/5
f 9/2/6 16/2/6 15/2/6
f 9/2/6 15/2/6 10/2/6
f 17/3/6 18/4/6 19/5/6
f 17/3/6 19/5/6 20/6/6
f 17/3/6 21/7/6 22/8/6
f 17/3/6 22/8/6 18/4/6
f 21/7/6 23/9/6 24/10/6
f 21/7/6 24/10/6 22/8/6
f 25/11/5 26/12/5 27/7/5
f 25/11/5 27/7/5 28/13/5
f 27/7/5 29/3/5 30/14/5
f 27/7/5 30/14/5 28/13/5
f 29/3/5 31/15/5 32/16/5
f 29/3/5 32/16/5 30/14/5
f 20/2/1 19/2/1 26/2/1
f 20/2/1 26/2/1 25/2/1
f 19/2/7 18/2/7 27/2/7
f 19/2/7 27/2/7 26/2/7
f 18/2/4 22/2/4 29/2/4
f 18/2/4 29/2/4 27/2/4
f 22/2/8 24/2/8 31/2/8
f 22/2/8 31/2/8 29/2/8
f 24/2/2 23/2/2 32/2/2
f 24/2/2 32/2/2 31/2/2
f 23/2/9 21/2/9 30/2/9
f 23/2/9 30/2/9 32/2/9
f 21/2/3 17/2/3 28/2/3
f 21/2/3 28/2/3 30/2/3
f 17/2/10 20/2/10 25/2/10
f 17/2/10 25/2/10 28/2/10
