# Procedurally generated by dev-env-utils/scripts/gen_work_zone_devices.py -- do not hand edit
mtllib workzone_signal_trailer_arm.mtl
o workzone_signal_trailer_arm_inv
v 0.195064 0.079425 0.797170
v 0.195064 0.158850 0.797170
v 0.195064 0.158850 0.612791
v 0.195064 0.079425 0.612791
v 0.648922 0.079425 0.612791
v 0.648922 0.158850 0.612791
v 0.648922 0.158850 0.797170
v 0.648922 0.079425 0.797170
v 0.648922 0.096445 0.724837
v 0.648922 0.134739 0.724837
v 0.648922 0.134739 0.685124
v 0.648922 0.096445 0.685124
v 0.804936 0.096445 0.685124
v 0.804936 0.134739 0.685124
v 0.804936 0.134739 0.724837
v 0.804936 0.096445 0.724837
v 0.490787 0.094686 0.565987
v 0.464510 0.130853 0.565987
v 0.464510 0.130853 0.611372
v 0.490787 0.094686 0.611372
v 0.421993 0.144667 0.565987
v 0.421993 0.144667 0.611372
v 0.379477 0.130853 0.565987
v 0.379477 0.130853 0.611372
v 0.353200 0.094686 0.565987
v 0.353200 0.094686 0.611372
v 0.353200 0.049981 0.565987
v 0.353200 0.049981 0.611372
v 0.379477 0.013814 0.565987
v 0.379477 0.013814 0.611372
v 0.421993 0.000000 0.565987
v 0.421993 0.000000 0.611372
v 0.464510 0.013814 0.565987
v 0.464510 0.013814 0.611372
v 0.490787 0.049981 0.565987
v 0.490787 0.049981 0.611372
v 0.421993 0.072334 0.611372
v 0.421993 0.072334 0.565987
v 0.490787 0.094686 0.614209
v 0.464510 0.130853 0.614209
v 0.464510 0.130853 0.659595
v 0.490787 0.094686 0.659595
v 0.421993 0.144667 0.614209
v 0.421993 0.144667 0.659595
v 0.379477 0.130853 0.614209
v 0.379477 0.130853 0.659595
v 0.353200 0.094686 0.614209
v 0.353200 0.094686 0.659595
v 0.353200 0.049981 0.614209
v 0.353200 0.049981 0.659595
v 0.379477 0.013814 0.614209
v 0.379477 0.013814 0.659595
v 0.421993 0.000000 0.614209
v 0.421993 0.000000 0.659595
v 0.464510 0.013814 0.614209
v 0.464510 0.013814 0.659595
v 0.490787 0.049981 0.614209
v 0.490787 0.049981 0.659595
v 0.421993 0.072334 0.659595
v 0.421993 0.072334 0.614209
v 0.490787 0.094686 0.750366
v 0.464510 0.130853 0.750366
v 0.464510 0.130853 0.795752
v 0.490787 0.094686 0.795752
v 0.421993 0.144667 0.750366
v 0.421993 0.144667 0.795752
v 0.379477 0.130853 0.750366
v 0.379477 0.130853 0.795752
v 0.353200 0.094686 0.750366
v 0.353200 0.094686 0.795752
v 0.353200 0.049981 0.750366
v 0.353200 0.049981 0.795752
v 0.379477 0.013814 0.750366
v 0.379477 0.013814 0.795752
v 0.421993 0.000000 0.750366
v 0.421993 0.000000 0.795752
v 0.464510 0.013814 0.750366
v 0.464510 0.013814 0.795752
v 0.490787 0.049981 0.750366
v 0.490787 0.049981 0.795752
v 0.421993 0.072334 0.795752
v 0.421993 0.072334 0.750366
v 0.490787 0.094686 0.798589
v 0.464510 0.130853 0.798589
v 0.464510 0.130853 0.843975
v 0.490787 0.094686 0.843975
v 0.421993 0.144667 0.798589
v 0.421993 0.144667 0.843975
v 0.379477 0.130853 0.798589
v 0.379477 0.130853 0.843975
v 0.353200 0.094686 0.798589
v 0.353200 0.094686 0.843975
v 0.353200 0.049981 0.798589
v 0.353200 0.049981 0.843975
v 0.379477 0.013814 0.798589
v 0.379477 0.013814 0.843975
v 0.421993 0.000000 0.798589
v 0.421993 0.000000 0.843975
v 0.464510 0.013814 0.798589
v 0.464510 0.013814 0.843975
v 0.490787 0.049981 0.798589
v 0.490787 0.049981 0.843975
v 0.421993 0.072334 0.843975
v 0.421993 0.072334 0.798589
v 0.214176 0.092190 0.619882
v 0.214176 0.114883 0.619882
v 0.214176 0.114883 0.570242
v 0.214176 0.092190 0.570242
v 0.232685 0.092190 0.570242
v 0.232685 0.114883 0.570242
v 0.232685 0.114883 0.619882
v 0.232685 0.092190 0.619882
v 0.213148 0.004255 0.580524
v 0.213148 0.086517 0.580524
v 0.213148 0.086517 0.559959
v 0.213148 0.004255 0.559959
v 0.233713 0.004255 0.559959
v 0.233713 0.086517 0.559959
v 0.233713 0.086517 0.580524
v 0.233713 0.004255 0.580524
v 0.200808 0.000000 0.592864
v 0.200808 0.005673 0.592864
v 0.200808 0.005673 0.547620
v 0.200808 0.000000 0.547620
v 0.246052 0.000000 0.547620
v 0.246052 0.005673 0.547620
v 0.246052 0.005673 0.592864
v 0.246052 0.000000 0.592864
v 0.214176 0.092190 0.839720
v 0.214176 0.114883 0.839720
v 0.214176 0.114883 0.790079
v 0.214176 0.092190 0.790079
v 0.232685 0.092190 0.790079
v 0.232685 0.114883 0.790079
v 0.232685 0.114883 0.839720
v 0.232685 0.092190 0.839720
v 0.213148 0.004255 0.850002
v 0.213148 0.086517 0.850002
v 0.213148 0.086517 0.829437
v 0.213148 0.004255 0.829437
v 0.233713 0.004255 0.829437
v 0.233713 0.086517 0.829437
v 0.233713 0.086517 0.850002
v 0.233713 0.004255 0.850002
v 0.200808 0.000000 0.862342
v 0.200808 0.005673 0.862342
v 0.200808 0.005673 0.817098
v 0.200808 0.000000 0.817098
v 0.246052 0.000000 0.817098
v 0.246052 0.005673 0.817098
v 0.246052 0.005673 0.862342
v 0.246052 0.000000 0.862342
v 0.611302 0.092190 0.619882
v 0.611302 0.114883 0.619882
v 0.611302 0.114883 0.570242
v 0.611302 0.092190 0.570242
v 0.629810 0.092190 0.570242
v 0.629810 0.114883 0.570242
v 0.629810 0.114883 0.619882
v 0.629810 0.092190 0.619882
v 0.610273 0.004255 0.580524
v 0.610273 0.086517 0.580524
v 0.610273 0.086517 0.559959
v 0.610273 0.004255 0.559959
v 0.630839 0.004255 0.559959
v 0.630839 0.086517 0.559959
v 0.630839 0.086517 0.580524
v 0.630839 0.004255 0.580524
v 0.597934 0.000000 0.592864
v 0.597934 0.005673 0.592864
v 0.597934 0.005673 0.547620
v 0.597934 0.000000 0.547620
v 0.643178 0.000000 0.547620
v 0.643178 0.005673 0.547620
v 0.643178 0.005673 0.592864
v 0.643178 0.000000 0.592864
v 0.611302 0.092190 0.839720
v 0.611302 0.114883 0.839720
v 0.611302 0.114883 0.790079
v 0.611302 0.092190 0.790079
v 0.629810 0.092190 0.790079
v 0.629810 0.114883 0.790079
v 0.629810 0.114883 0.839720
v 0.629810 0.092190 0.839720
v 0.610273 0.004255 0.850002
v 0.610273 0.086517 0.850002
v 0.610273 0.086517 0.829437
v 0.610273 0.004255 0.829437
v 0.630839 0.004255 0.829437
v 0.630839 0.086517 0.829437
v 0.630839 0.086517 0.850002
v 0.630839 0.004255 0.850002
v 0.597934 0.000000 0.862342
v 0.597934 0.005673 0.862342
v 0.597934 0.005673 0.817098
v 0.597934 0.000000 0.817098
v 0.643178 0.000000 0.817098
v 0.643178 0.005673 0.817098
v 0.643178 0.005673 0.862342
v 0.643178 0.000000 0.862342
v 0.209247 0.193599 0.786533
v 0.421993 0.193599 0.786533
v 0.421993 0.169488 0.623428
v 0.209247 0.169488 0.623428
v 0.209247 0.163105 0.623428
v 0.421993 0.163105 0.623428
v 0.421993 0.187216 0.786533
v 0.209247 0.187216 0.786533
v 0.225203 0.156014 0.783697
v 0.225203 0.190408 0.783697
v 0.225203 0.190408 0.771641
v 0.225203 0.156014 0.771641
v 0.235841 0.156014 0.771641
v 0.235841 0.190408 0.771641
v 0.235841 0.190408 0.783697
v 0.235841 0.156014 0.783697
v 0.395400 0.156014 0.783697
v 0.395400 0.190408 0.783697
v 0.395400 0.190408 0.771641
v 0.395400 0.156014 0.771641
v 0.406037 0.156014 0.771641
v 0.406037 0.190408 0.771641
v 0.406037 0.190408 0.783697
v 0.406037 0.156014 0.783697
v 0.507092 0.156723 0.758876
v 0.507092 0.312027 0.758876
v 0.507092 0.312027 0.651085
v 0.507092 0.156723 0.651085
v 0.634739 0.156723 0.651085
v 0.634739 0.312027 0.651085
v 0.634739 0.312027 0.758876
v 0.634739 0.156723 0.758876
v 0.443268 0.150340 0.726255
v 0.443268 0.808434 0.726255
v 0.443268 0.808434 0.683706
v 0.443268 0.150340 0.683706
v 0.485817 0.150340 0.683706
v 0.485817 0.808434 0.683706
v 0.485817 0.808434 0.726255
v 0.485817 0.150340 0.726255
v 0.448941 0.690715 0.704981
v 0.480144 0.690715 0.704981
v 0.480144 0.727591 0.704981
v 0.448941 0.727591 0.704981
v 0.450359 0.907716 0.421319
v 0.478725 0.907716 0.421319
v 0.478725 0.937500 0.421319
v 0.450359 0.937500 0.421319
v 0.456387 0.926154 0.137658
v 0.472698 0.926154 0.137658
v 0.472698 0.907716 0.137658
v 0.456387 0.907716 0.137658
v 0.436176 0.670859 0.729872
v 0.436176 0.747447 0.729872
v 0.436176 0.747447 0.666686
v 0.436176 0.670859 0.666686
v 0.446104 0.670859 0.666686
v 0.446104 0.747447 0.666686
v 0.446104 0.747447 0.729872
v 0.446104 0.670859 0.729872
v 0.482980 0.670859 0.729872
v 0.482980 0.747447 0.729872
v 0.482980 0.747447 0.666686
v 0.482980 0.670859 0.666686
v 0.492908 0.670859 0.666686
v 0.492908 0.747447 0.666686
v 0.492908 0.747447 0.729872
v 0.492908 0.670859 0.729872
vt 0.890625 0.125000
vt 0.890625 0.375000
vt 0.890625 0.625000
vt 0.030000 0.920000
vt 0.720000 0.920000
vt 0.720000 0.550000
vt 0.030000 0.550000
vn -1.000000 0.000000 0.000000
vn 1.000000 0.000000 0.000000
vn 0.000000 -1.000000 0.000000
vn 0.000000 1.000000 0.000000
vn 0.000000 0.000000 -1.000000
vn 0.000000 0.000000 1.000000
vn 0.951057 0.309017 0.000000
vn 0.587785 0.809017 0.000000
vn -0.587785 0.809017 0.000000
vn -0.951057 0.309017 0.000000
vn -0.951057 -0.309017 0.000000
vn -0.587785 -0.809017 0.000000
vn 0.587785 -0.809017 0.000000
vn 0.951057 -0.309017 0.000000
vn 0.000000 0.989250 -0.146237
vn 0.000000 -0.989250 0.146237
vn 0.000000 -0.146237 -0.989250
vn 0.000000 0.146237 0.989250
vn 0.000000 -0.794245 -0.607598
vn 0.999988 -0.000000 -0.005000
vn 0.000000 0.803842 0.594843
vn -0.999988 -0.000000 -0.005000
vn 0.999774 -0.000000 -0.021245
vn -0.000000 0.999201 -0.039968
vn -0.999774 -0.000000 -0.021245
usemtl body
f 1/1/1 2/1/1 3/1/1
f 1/1/1 3/1/1 4/1/1
f 5/1/2 6/1/2 7/1/2
f 5/1/2 7/1/2 8/1/2
f 4/1/3 5/1/3 8/1/3
f 4/1/3 8/1/3 1/1/3
f 2/1/4 7/1/4 6/1/4
f 2/1/4 6/1/4 3/1/4
f 3/1/5 6/1/5 5/1/5
f 3/1/5 5/1/5 4/1/5
f 1/1/6 8/1/6 7/1/6
f 1/1/6 7/1/6 2/1/6
f 9/1/1 10/1/1 11/1/1
f 9/1/1 11/1/1 12/1/1
f 13/1/2 14/1/2 15/1/2
f 13/1/2 15/1/2 16/1/2
f 12/1/3 13/1/3 16/1/3
f 12/1/3 16/1/3 9/1/3
f 10/1/4 15/1/4 14/1/4
f 10/1/4 14/1/4 11/1/4
f 11/1/5 14/1/5 13/1/5
f 11/1/5 13/1/5 12/1/5
f 9/1/6 16/1/6 15/1/6
f 9/1/6 15/1/6 10/1/6
f 17/2/7 18/2/8 19/2/8
f 17/2/7 19/2/8 20/2/7
f 18/2/8 21/2/4 22/2/4
f 18/2/8 22/2/4 19/2/8
f 21/2/4 23/2/9 24/2/9
f 21/2/4 24/2/9 22/2/4
f 23/2/9 25/2/10 26/2/10
f 23/2/9 26/2/10 24/2/9
f 25/2/10 27/2/11 28/2/11
f 25/2/10 28/2/11 26/2/10
f 27/2/11 29/2/12 30/2/12
f 27/2/11 30/2/12 28/2/11
f 29/2/12 31/2/3 32/2/3
f 29/2/12 32/2/3 30/2/12
f 31/2/3 33/2/13 34/2/13
f 31/2/3 34/2/13 32/2/3
f 33/2/13 35/2/14 36/2/14
f 33/2/13 36/2/14 34/2/13
f 35/2/14 17/2/7 20/2/7
f 35/2/14 20/2/7 36/2/14
f 37/2/6 20/2/6 19/2/6
f 37/2/6 19/2/6 22/2/6
f 37/2/6 22/2/6 24/2/6
f 37/2/6 24/2/6 26/2/6
f 37/2/6 26/2/6 28/2/6
f 37/2/6 28/2/6 30/2/6
f 37/2/6 30/2/6 32/2/6
f 37/2/6 32/2/6 34/2/6
f 37/2/6 34/2/6 36/2/6
f 37/2/6 36/2/6 20/2/6
f 38/2/5 18/2/5 17/2/5
f 38/2/5 21/2/5 18/2/5
f 38/2/5 23/2/5 21/2/5
f 38/2/5 25/2/5 23/2/5
f 38/2/5 27/2/5 25/2/5
f 38/2/5 29/2/5 27/2/5
f 38/2/5 31/2/5 29/2/5
f 38/2/5 33/2/5 31/2/5
f 38/2/5 35/2/5 33/2/5
f 38/2/5 17/2/5 35/2/5
f 39/2/7 40/2/8 41/2/8
f 39/2/7 41/2/8 42/2/7
f 40/2/8 43/2/4 44/2/4
f 40/2/8 44/2/4 41/2/8
f 43/2/4 45/2/9 46/2/9
f 43/2/4 46/2/9 44/2/4
f 45/2/9 47/2/10 48/2/10
f 45/2/9 48/2/10 46/2/9
f 47/2/10 49/2/11 50/2/11
f 47/2/10 50/2/11 48/2/10
f 49/2/11 51/2/12 52/2/12
f 49/2/11 52/2/12 50/2/11
f 51/2/12 53/2/3 54/2/3
f 51/2/12 54/2/3 52/2/12
f 53/2/3 55/2/13 56/2/13
f 53/2/3 56/2/13 54/2/3
f 55/2/13 57/2/14 58/2/14
f 55/2/13 58/2/14 56/2/13
f 57/2/14 39/2/7 42/2/7
f 57/2/14 42/2/7 58/2/14
f 59/2/6 42/2/6 41/2/6
f 59/2/6 41/2/6 44/2/6
f 59/2/6 44/2/6 46/2/6
f 59/2/6 46/2/6 48/2/6
f 59/2/6 48/2/6 50/2/6
f 59/2/6 50/2/6 52/2/6
f 59/2/6 52/2/6 54/2/6
f 59/2/6 54/2/6 56/2/6
f 59/2/6 56/2/6 58/2/6
f 59/2/6 58/2/6 42/2/6
f 60/2/5 40/2/5 39/2/5
f 60/2/5 43/2/5 40/2/5
f 60/2/5 45/2/5 43/2/5
f 60/2/5 47/2/5 45/2/5
f 60/2/5 49/2/5 47/2/5
f 60/2/5 51/2/5 49/2/5
f 60/2/5 53/2/5 51/2/5
f 60/2/5 55/2/5 53/2/5
f 60/2/5 57/2/5 55/2/5
f 60/2/5 39/2/5 57/2/5
f 61/2/7 62/2/8 63/2/8
f 61/2/7 63/2/8 64/2/7
f 62/2/8 65/2/4 66/2/4
f 62/2/8 66/2/4 63/2/8
f 65/2/4 67/2/9 68/2/9
f 65/2/4 68/2/9 66/2/4
f 67/2/9 69/2/10 70/2/10
f 67/2/9 70/2/10 68/2/9
f 69/2/10 71/2/11 72/2/11
f 69/2/10 72/2/11 70/2/10
f 71/2/11 73/2/12 74/2/12
f 71/2/11 74/2/12 72/2/11
f 73/2/12 75/2/3 76/2/3
f 73/2/12 76/2/3 74/2/12
f 75/2/3 77/2/13 78/2/13
f 75/2/3 78/2/13 76/2/3
f 77/2/13 79/2/14 80/2/14
f 77/2/13 80/2/14 78/2/13
f 79/2/14 61/2/7 64/2/7
f 79/2/14 64/2/7 80/2/14
f 81/2/6 64/2/6 63/2/6
f 81/2/6 63/2/6 66/2/6
f 81/2/6 66/2/6 68/2/6
f 81/2/6 68/2/6 70/2/6
f 81/2/6 70/2/6 72/2/6
f 81/2/6 72/2/6 74/2/6
f 81/2/6 74/2/6 76/2/6
f 81/2/6 76/2/6 78/2/6
f 81/2/6 78/2/6 80/2/6
f 81/2/6 80/2/6 64/2/6
f 82/2/5 62/2/5 61/2/5
f 82/2/5 65/2/5 62/2/5
f 82/2/5 67/2/5 65/2/5
f 82/2/5 69/2/5 67/2/5
f 82/2/5 71/2/5 69/2/5
f 82/2/5 73/2/5 71/2/5
f 82/2/5 75/2/5 73/2/5
f 82/2/5 77/2/5 75/2/5
f 82/2/5 79/2/5 77/2/5
f 82/2/5 61/2/5 79/2/5
f 83/2/7 84/2/8 85/2/8
f 83/2/7 85/2/8 86/2/7
f 84/2/8 87/2/4 88/2/4
f 84/2/8 88/2/4 85/2/8
f 87/2/4 89/2/9 90/2/9
f 87/2/4 90/2/9 88/2/4
f 89/2/9 91/2/10 92/2/10
f 89/2/9 92/2/10 90/2/9
f 91/2/10 93/2/11 94/2/11
f 91/2/10 94/2/11 92/2/10
f 93/2/11 95/2/12 96/2/12
f 93/2/11 96/2/12 94/2/11
f 95/2/12 97/2/3 98/2/3
f 95/2/12 98/2/3 96/2/12
f 97/2/3 99/2/13 100/2/13
f 97/2/3 100/2/13 98/2/3
f 99/2/13 101/2/14 102/2/14
f 99/2/13 102/2/14 100/2/13
f 101/2/14 83/2/7 86/2/7
f 101/2/14 86/2/7 102/2/14
f 103/2/6 86/2/6 85/2/6
f 103/2/6 85/2/6 88/2/6
f 103/2/6 88/2/6 90/2/6
f 103/2/6 90/2/6 92/2/6
f 103/2/6 92/2/6 94/2/6
f 103/2/6 94/2/6 96/2/6
f 103/2/6 96/2/6 98/2/6
f 103/2/6 98/2/6 100/2/6
f 103/2/6 100/2/6 102/2/6
f 103/2/6 102/2/6 86/2/6
f 104/2/5 84/2/5 83/2/5
f 104/2/5 87/2/5 84/2/5
f 104/2/5 89/2/5 87/2/5
f 104/2/5 91/2/5 89/2/5
f 104/2/5 93/2/5 91/2/5
f 104/2/5 95/2/5 93/2/5
f 104/2/5 97/2/5 95/2/5
f 104/2/5 99/2/5 97/2/5
f 104/2/5 101/2/5 99/2/5
f 104/2/5 83/2/5 101/2/5
f 105/1/1 106/1/1 107/1/1
f 105/1/1 107/1/1 108/1/1
f 109/1/2 110/1/2 111/1/2
f 109/1/2 111/1/2 112/1/2
f 108/1/3 109/1/3 112/1/3
f 108/1/3 112/1/3 105/1/3
f 106/1/4 111/1/4 110/1/4
f 106/1/4 110/1/4 107/1/4
f 107/1/5 110/1/5 109/1/5
f 107/1/5 109/1/5 108/1/5
f 105/1/6 112/1/6 111/1/6
f 105/1/6 111/1/6 106/1/6
f 113/3/1 114/3/1 115/3/1
f 113/3/1 115/3/1 116/3/1
f 117/3/2 118/3/2 119/3/2
f 117/3/2 119/3/2 120/3/2
f 114/3/4 119/3/4 118/3/4
f 114/3/4 118/3/4 115/3/4
f 115/3/5 118/3/5 117/3/5
f 115/3/5 117/3/5 116/3/5
f 113/3/6 120/3/6 119/3/6
f 113/3/6 119/3/6 114/3/6
f 121/3/1 122/3/1 123/3/1
f 121/3/1 123/3/1 124/3/1
f 125/3/2 126/3/2 127/3/2
f 125/3/2 127/3/2 128/3/2
f 124/3/3 125/3/3 128/3/3
f 124/3/3 128/3/3 121/3/3
f 122/3/4 127/3/4 126/3/4
f 122/3/4 126/3/4 123/3/4
f 123/3/5 126/3/5 125/3/5
f 123/3/5 125/3/5 124/3/5
f 121/3/6 128/3/6 127/3/6
f 121/3/6 127/3/6 122/3/6
f 129/1/1 130/1/1 131/1/1
f 129/1/1 131/1/1 132/1/1
f 133/1/2 134/1/2 135/1/2
f 133/1/2 135/1/2 136/1/2
f 132/1/3 133/1/3 136/1/3
f 132/1/3 136/1/3 129/1/3
f 130/1/4 135/1/4 134/1/4
f 130/1/4 134/1/4 131/1/4
f 131/1/5 134/1/5 133/1/5
f 131/1/5 133/1/5 132/1/5
f 129/1/6 136/1/6 135/1/6
f 129/1/6 135/1/6 130/1/6
f 137/3/1 138/3/1 139/3/1
f 137/3/1 139/3/1 140/3/1
f 141/3/2 142/3/2 143/3/2
f 141/3/2 143/3/2 144/3/2
f 138/3/4 143/3/4 142/3/4
f 138/3/4 142/3/4 139/3/4
f 139/3/5 142/3/5 141/3/5
f 139/3/5 141/3/5 140/3/5
f 137/3/6 144/3/6 143/3/6
f 137/3/6 143/3/6 138/3/6
f 145/3/1 146/3/1 147/3/1
f 145/3/1 147/3/1 148/3/1
f 149/3/2 150/3/2 151/3/2
f 149/3/2 151/3/2 152/3/2
f 148/3/3 149/3/3 152/3/3
f 148/3/3 152/3/3 145/3/3
f 146/3/4 151/3/4 150/3/4
f 146/3/4 150/3/4 147/3/4
f 147/3/5 150/3/5 149/3/5
f 147/3/5 149/3/5 148/3/5
f 145/3/6 152/3/6 151/3/6
f 145/3/6 151/3/6 146/3/6
f 153/1/1 154/1/1 155/1/1
f 153/1/1 155/1/1 156/1/1
f 157/1/2 158/1/2 159/1/2
f 157/1/2 159/1/2 160/1/2
f 156/1/3 157/1/3 160/1/3
f 156/1/3 160/1/3 153/1/3
f 154/1/4 159/1/4 158/1/4
f 154/1/4 158/1/4 155/1/4
f 155/1/5 158/1/5 157/1/5
f 155/1/5 157/1/5 156/1/5
f 153/1/6 160/1/6 159/1/6
f 153/1/6 159/1/6 154/1/6
f 161/3/1 162/3/1 163/3/1
f 161/3/1 163/3/1 164/3/1
f 165/3/2 166/3/2 167/3/2
f 165/3/2 167/3/2 168/3/2
f 162/3/4 167/3/4 166/3/4
f 162/3/4 166/3/4 163/3/4
f 163/3/5 166/3/5 165/3/5
f 163/3/5 165/3/5 164/3/5
f 161/3/6 168/3/6 167/3/6
f 161/3/6 167/3/6 162/3/6
f 169/3/1 170/3/1 171/3/1
f 169/3/1 171/3/1 172/3/1
f 173/3/2 174/3/2 175/3/2
f 173/3/2 175/3/2 176/3/2
f 172/3/3 173/3/3 176/3/3
f 172/3/3 176/3/3 169/3/3
f 170/3/4 175/3/4 174/3/4
f 170/3/4 174/3/4 171/3/4
f 171/3/5 174/3/5 173/3/5
f 171/3/5 173/3/5 172/3/5
f 169/3/6 176/3/6 175/3/6
f 169/3/6 175/3/6 170/3/6
f 177/1/1 178/1/1 179/1/1
f 177/1/1 179/1/1 180/1/1
f 181/1/2 182/1/2 183/1/2
f 181/1/2 183/1/2 184/1/2
f 180/1/3 181/1/3 184/1/3
f 180/1/3 184/1/3 177/1/3
f 178/1/4 183/1/4 182/1/4
f 178/1/4 182/1/4 179/1/4
f 179/1/5 182/1/5 181/1/5
f 179/1/5 181/1/5 180/1/5
f 177/1/6 184/1/6 183/1/6
f 177/1/6 183/1/6 178/1/6
f 185/3/1 186/3/1 187/3/1
f 185/3/1 187/3/1 188/3/1
f 189/3/2 190/3/2 191/3/2
f 189/3/2 191/3/2 192/3/2
f 186/3/4 191/3/4 190/3/4
f 186/3/4 190/3/4 187/3/4
f 187/3/5 190/3/5 189/3/5
f 187/3/5 189/3/5 188/3/5
f 185/3/6 192/3/6 191/3/6
f 185/3/6 191/3/6 186/3/6
f 193/3/1 194/3/1 195/3/1
f 193/3/1 195/3/1 196/3/1
f 197/3/2 198/3/2 199/3/2
f 197/3/2 199/3/2 200/3/2
f 196/3/3 197/3/3 200/3/3
f 196/3/3 200/3/3 193/3/3
f 194/3/4 199/3/4 198/3/4
f 194/3/4 198/3/4 195/3/4
f 195/3/5 198/3/5 197/3/5
f 195/3/5 197/3/5 196/3/5
f 193/3/6 200/3/6 199/3/6
f 193/3/6 199/3/6 194/3/6
f 201/4/15 202/5/15 203/6/15
f 201/4/15 203/6/15 204/7/15
f 205/2/16 206/2/16 207/2/16
f 205/2/16 207/2/16 208/2/16
f 204/2/17 203/2/17 206/2/17
f 204/2/17 206/2/17 205/2/17
f 203/2/2 202/2/2 207/2/2
f 203/2/2 207/2/2 206/2/2
f 202/2/18 201/2/18 208/2/18
f 202/2/18 208/2/18 207/2/18
f 201/2/1 204/2/1 205/2/1
f 201/2/1 205/2/1 208/2/1
f 209/3/1 210/3/1 211/3/1
f 209/3/1 211/3/1 212/3/1
f 213/3/2 214/3/2 215/3/2
f 213/3/2 215/3/2 216/3/2
f 212/3/3 213/3/3 216/3/3
f 212/3/3 216/3/3 209/3/3
f 210/3/4 215/3/4 214/3/4
f 210/3/4 214/3/4 211/3/4
f 211/3/5 214/3/5 213/3/5
f 211/3/5 213/3/5 212/3/5
f 209/3/6 216/3/6 215/3/6
f 209/3/6 215/3/6 210/3/6
f 217/3/1 218/3/1 219/3/1
f 217/3/1 219/3/1 220/3/1
f 221/3/2 222/3/2 223/3/2
f 221/3/2 223/3/2 224/3/2
f 220/3/3 221/3/3 224/3/3
f 220/3/3 224/3/3 217/3/3
f 218/3/4 223/3/4 222/3/4
f 218/3/4 222/3/4 219/3/4
f 219/3/5 222/3/5 221/3/5
f 219/3/5 221/3/5 220/3/5
f 217/3/6 224/3/6 223/3/6
f 217/3/6 223/3/6 218/3/6
f 225/1/1 226/1/1 227/1/1
f 225/1/1 227/1/1 228/1/1
f 229/1/2 230/1/2 231/1/2
f 229/1/2 231/1/2 232/1/2
f 226/1/4 231/1/4 230/1/4
f 226/1/4 230/1/4 227/1/4
f 227/1/5 230/1/5 229/1/5
f 227/1/5 229/1/5 228/1/5
f 225/1/6 232/1/6 231/1/6
f 225/1/6 231/1/6 226/1/6
f 233/1/1 234/1/1 235/1/1
f 233/1/1 235/1/1 236/1/1
f 237/1/2 238/1/2 239/1/2
f 237/1/2 239/1/2 240/1/2
f 234/1/4 239/1/4 238/1/4
f 234/1/4 238/1/4 235/1/4
f 235/1/5 238/1/5 237/1/5
f 235/1/5 237/1/5 236/1/5
f 233/1/6 240/1/6 239/1/6
f 233/1/6 239/1/6 234/1/6
f 241/1/6 242/1/6 243/1/6
f 241/1/6 243/1/6 244/1/6
f 245/1/19 246/1/19 242/1/19
f 245/1/19 242/1/19 241/1/19
f 246/1/20 247/1/20 243/1/20
f 246/1/20 243/1/20 242/1/20
f 247/1/21 248/1/21 244/1/21
f 247/1/21 244/1/21 243/1/21
f 248/1/22 245/1/22 241/1/22
f 248/1/22 241/1/22 244/1/22
f 249/1/5 250/1/5 251/1/5
f 249/1/5 251/1/5 252/1/5
f 252/1/3 251/1/3 246/1/3
f 252/1/3 246/1/3 245/1/3
f 251/1/23 250/1/23 247/1/23
f 251/1/23 247/1/23 246/1/23
f 250/1/24 249/1/24 248/1/24
f 250/1/24 248/1/24 247/1/24
f 249/1/25 252/1/25 245/1/25
f 249/1/25 245/1/25 248/1/25
f 253/1/1 254/1/1 255/1/1
f 253/1/1 255/1/1 256/1/1
f 257/1/2 258/1/2 259/1/2
f 257/1/2 259/1/2 260/1/2
f 256/1/3 257/1/3 260/1/3
f 256/1/3 260/1/3 253/1/3
f 254/1/4 259/1/4 258/1/4
f 254/1/4 258/1/4 255/1/4
f 255/1/5 258/1/5 257/1/5
f 255/1/5 257/1/5 256/1/5
f 253/1/6 260/1/6 259/1/6
f 253/1/6 259/1/6 254/1/6
f 261/1/1 262/1/1 263/1/1
f 261/1/1 263/1/1 264/1/1
f 265/1/2 266/1/2 267/1/2
f 265/1/2 267/1/2 268/1/2
f 264/1/3 265/1/3 268/1/3
f 264/1/3 268/1/3 261/1/3
f 262/1/4 267/1/4 266/1/4
f 262/1/4 266/1/4 263/1/4
f 263/1/5 266/1/5 265/1/5
f 263/1/5 265/1/5 264/1/5
f 261/1/6 268/1/6 267/1/6
f 261/1/6 267/1/6 262/1/6
