# Procedurally generated by dev-env-utils/scripts/gen_work_zone_devices.py -- do not hand edit
mtllib workzone_sand_barrel.mtl
o workzone_sand_barrel
v 0.868965 0.037500 0.746534
v 0.868965 0.000000 0.746534
v 0.935223 0.000000 0.586571
v 0.935223 0.037500 0.586571
v 0.746534 0.037500 0.868965
v 0.746534 0.000000 0.868965
v 0.586571 0.037500 0.935223
v 0.586571 0.000000 0.935223
v 0.413429 0.037500 0.935223
v 0.413429 0.000000 0.935223
v 0.253466 0.037500 0.868965
v 0.253466 0.000000 0.868965
v 0.131035 0.037500 0.746534
v 0.131035 0.000000 0.746534
v 0.064777 0.037500 0.586571
v 0.064777 0.000000 0.586571
v 0.064777 0.037500 0.413429
v 0.064777 0.000000 0.413429
v 0.131035 0.037500 0.253466
v 0.131035 0.000000 0.253466
v 0.253466 0.037500 0.131035
v 0.253466 0.000000 0.131035
v 0.413429 0.037500 0.064777
v 0.413429 0.000000 0.064777
v 0.586571 0.037500 0.064777
v 0.586571 0.000000 0.064777
v 0.746534 0.037500 0.131035
v 0.746534 0.000000 0.131035
v 0.868965 0.037500 0.253466
v 0.868965 0.000000 0.253466
v 0.935223 0.037500 0.413429
v 0.935223 0.000000 0.413429
v 0.858571 0.062500 0.739590
v 0.922964 0.062500 0.584133
v 0.739590 0.062500 0.858571
v 0.584133 0.062500 0.922964
v 0.415867 0.062500 0.922964
v 0.260410 0.062500 0.858571
v 0.141429 0.062500 0.739590
v 0.077036 0.062500 0.584133
v 0.077036 0.062500 0.415867
v 0.141429 0.062500 0.260410
v 0.260410 0.062500 0.141429
v 0.415867 0.062500 0.077036
v 0.584133 0.062500 0.077036
v 0.739590 0.062500 0.141429
v 0.858571 0.062500 0.260410
v 0.922964 0.062500 0.415867
v 0.832588 0.343750 0.722228
v 0.892314 0.343750 0.578036
v 0.722228 0.343750 0.832588
v 0.578036 0.343750 0.892314
v 0.421964 0.343750 0.892314
v 0.277772 0.343750 0.832588
v 0.167412 0.343750 0.722228
v 0.107686 0.343750 0.578036
v 0.107686 0.343750 0.421964
v 0.167412 0.343750 0.277772
v 0.277772 0.343750 0.167412
v 0.421964 0.343750 0.107686
v 0.578036 0.343750 0.107686
v 0.722228 0.343750 0.167412
v 0.832588 0.343750 0.277772
v 0.892314 0.343750 0.421964
v 0.796211 0.662500 0.697922
v 0.849405 0.662500 0.569501
v 0.697922 0.662500 0.796211
v 0.569501 0.662500 0.849405
v 0.430499 0.662500 0.849405
v 0.302078 0.662500 0.796211
v 0.203789 0.662500 0.697922
v 0.150595 0.662500 0.569501
v 0.150595 0.662500 0.430499
v 0.203789 0.662500 0.302078
v 0.302078 0.662500 0.203789
v 0.430499 0.662500 0.150595
v 0.569501 0.662500 0.150595
v 0.697922 0.662500 0.203789
v 0.796211 0.662500 0.302078
v 0.849405 0.662500 0.430499
v 0.788416 0.762500 0.692713
v 0.840210 0.762500 0.567672
v 0.692713 0.762500 0.788416
v 0.567672 0.762500 0.840210
v 0.432328 0.762500 0.840210
v 0.307287 0.762500 0.788416
v 0.211584 0.762500 0.692713
v 0.159790 0.762500 0.567672
v 0.159790 0.762500 0.432328
v 0.211584 0.762500 0.307287
v 0.307287 0.762500 0.211584
v 0.432328 0.762500 0.159790
v 0.567672 0.762500 0.159790
v 0.692713 0.762500 0.211584
v 0.788416 0.762500 0.307287
v 0.840210 0.762500 0.432328
v 0.798809 0.787500 0.699658
v 0.852470 0.787500 0.570111
v 0.699658 0.787500 0.798809
v 0.570111 0.787500 0.852470
v 0.429889 0.787500 0.852470
v 0.300342 0.787500 0.798809
v 0.201191 0.787500 0.699658
v 0.147530 0.787500 0.570111
v 0.147530 0.787500 0.429889
v 0.201191 0.787500 0.300342
v 0.300342 0.787500 0.201191
v 0.429889 0.787500 0.147530
v 0.570111 0.787500 0.147530
v 0.699658 0.787500 0.201191
v 0.798809 0.787500 0.300342
v 0.852470 0.787500 0.429889
v 0.798809 0.821875 0.699658
v 0.852470 0.821875 0.570111
v 0.699658 0.821875 0.798809
v 0.570111 0.821875 0.852470
v 0.429889 0.821875 0.852470
v 0.300342 0.821875 0.798809
v 0.201191 0.821875 0.699658
v 0.147530 0.821875 0.570111
v 0.147530 0.821875 0.429889
v 0.201191 0.821875 0.300342
v 0.300342 0.821875 0.201191
v 0.429889 0.821875 0.147530
v 0.570111 0.821875 0.147530
v 0.699658 0.821875 0.201191
v 0.798809 0.821875 0.300342
v 0.852470 0.821875 0.429889
v 0.775424 0.840625 0.684033
v 0.824885 0.840625 0.564624
v 0.684033 0.840625 0.775424
v 0.564624 0.840625 0.824885
v 0.435376 0.840625 0.824885
v 0.315967 0.840625 0.775424
v 0.224576 0.840625 0.684033
v 0.175115 0.840625 0.564624
v 0.175115 0.840625 0.435376
v 0.224576 0.840625 0.315967
v 0.315967 0.840625 0.224576
v 0.435376 0.840625 0.175115
v 0.564624 0.840625 0.175115
v 0.684033 0.840625 0.224576
v 0.775424 0.840625 0.315967
v 0.824885 0.840625 0.435376
v 0.775424 0.862500 0.684033
v 0.824885 0.862500 0.564624
v 0.684033 0.862500 0.775424
v 0.564624 0.862500 0.824885
v 0.435376 0.862500 0.824885
v 0.315967 0.862500 0.775424
v 0.224576 0.862500 0.684033
v 0.175115 0.862500 0.564624
v 0.175115 0.862500 0.435376
v 0.224576 0.862500 0.315967
v 0.315967 0.862500 0.224576
v 0.435376 0.862500 0.175115
v 0.564624 0.862500 0.175115
v 0.684033 0.862500 0.224576
v 0.775424 0.862500 0.315967
v 0.824885 0.862500 0.435376
v 0.500000 0.862500 0.500000
v 0.500000 0.000000 0.500000
vt 0.048828 0.037500
vt 0.048828 0.000000
vt 0.000000 0.000000
vt 0.000000 0.037500
vt 0.097656 0.037500
vt 0.097656 0.000000
vt 0.146484 0.037500
vt 0.146484 0.000000
vt 0.195312 0.037500
vt 0.195312 0.000000
vt 0.244141 0.037500
vt 0.244141 0.000000
vt 0.292969 0.037500
vt 0.292969 0.000000
vt 0.341797 0.037500
vt 0.341797 0.000000
vt 0.390625 0.037500
vt 0.390625 0.000000
vt 0.439453 0.037500
vt 0.439453 0.000000
vt 0.488281 0.037500
vt 0.488281 0.000000
vt 0.537109 0.037500
vt 0.537109 0.000000
vt 0.585938 0.037500
vt 0.585938 0.000000
vt 0.634766 0.037500
vt 0.634766 0.000000
vt 0.683594 0.037500
vt 0.683594 0.000000
vt 0.732422 0.037500
vt 0.732422 0.000000
vt 0.781250 0.037500
vt 0.781250 0.000000
vt 0.048828 0.062500
vt 0.000000 0.062500
vt 0.097656 0.062500
vt 0.146484 0.062500
vt 0.195312 0.062500
vt 0.244141 0.062500
vt 0.292969 0.062500
vt 0.341797 0.062500
vt 0.390625 0.062500
vt 0.439453 0.062500
vt 0.488281 0.062500
vt 0.537109 0.062500
vt 0.585938 0.062500
vt 0.634766 0.062500
vt 0.683594 0.062500
vt 0.732422 0.062500
vt 0.781250 0.062500
vt 0.048828 0.343750
vt 0.000000 0.343750
vt 0.097656 0.343750
vt 0.146484 0.343750
vt 0.195312 0.343750
vt 0.244141 0.343750
vt 0.292969 0.343750
vt 0.341797 0.343750
vt 0.390625 0.343750
vt 0.439453 0.343750
vt 0.488281 0.343750
vt 0.537109 0.343750
vt 0.585938 0.343750
vt 0.634766 0.343750
vt 0.683594 0.343750
vt 0.732422 0.343750
vt 0.781250 0.343750
vt 0.048828 0.662500
vt 0.000000 0.662500
vt 0.097656 0.662500
vt 0.146484 0.662500
vt 0.195312 0.662500
vt 0.244141 0.662500
vt 0.292969 0.662500
vt 0.341797 0.662500
vt 0.390625 0.662500
vt 0.439453 0.662500
vt 0.488281 0.662500
vt 0.537109 0.662500
vt 0.585938 0.662500
vt 0.634766 0.662500
vt 0.683594 0.662500
vt 0.732422 0.662500
vt 0.781250 0.662500
vt 0.048828 0.762500
vt 0.000000 0.762500
vt 0.097656 0.762500
vt 0.146484 0.762500
vt 0.195312 0.762500
vt 0.244141 0.762500
vt 0.292969 0.762500
vt 0.341797 0.762500
vt 0.390625 0.762500
vt 0.439453 0.762500
vt 0.488281 0.762500
vt 0.537109 0.762500
vt 0.585938 0.762500
vt 0.634766 0.762500
vt 0.683594 0.762500
vt 0.732422 0.762500
vt 0.781250 0.762500
vt 0.048828 0.787500
vt 0.000000 0.787500
vt 0.097656 0.787500
vt 0.146484 0.787500
vt 0.195312 0.787500
vt 0.244141 0.787500
vt 0.292969 0.787500
vt 0.341797 0.787500
vt 0.390625 0.787500
vt 0.439453 0.787500
vt 0.488281 0.787500
vt 0.537109 0.787500
vt 0.585938 0.787500
vt 0.634766 0.787500
vt 0.683594 0.787500
vt 0.732422 0.787500
vt 0.781250 0.787500
vt 0.048828 0.821875
vt 0.000000 0.821875
vt 0.097656 0.821875
vt 0.146484 0.821875
vt 0.195312 0.821875
vt 0.244141 0.821875
vt 0.292969 0.821875
vt 0.341797 0.821875
vt 0.390625 0.821875
vt 0.439453 0.821875
vt 0.488281 0.821875
vt 0.537109 0.821875
vt 0.585938 0.821875
vt 0.634766 0.821875
vt 0.683594 0.821875
vt 0.732422 0.821875
vt 0.781250 0.821875
vt 0.048828 0.840625
vt 0.000000 0.840625
vt 0.097656 0.840625
vt 0.146484 0.840625
vt 0.195312 0.840625
vt 0.244141 0.840625
vt 0.292969 0.840625
vt 0.341797 0.840625
vt 0.390625 0.840625
vt 0.439453 0.840625
vt 0.488281 0.840625
vt 0.537109 0.840625
vt 0.585938 0.840625
vt 0.634766 0.840625
vt 0.683594 0.840625
vt 0.732422 0.840625
vt 0.781250 0.840625
vt 0.048828 0.862500
vt 0.000000 0.862500
vt 0.097656 0.862500
vt 0.146484 0.862500
vt 0.195312 0.862500
vt 0.244141 0.862500
vt 0.292969 0.862500
vt 0.341797 0.862500
vt 0.390625 0.862500
vt 0.439453 0.862500
vt 0.488281 0.862500
vt 0.537109 0.862500
vt 0.585938 0.862500
vt 0.634766 0.862500
vt 0.683594 0.862500
vt 0.732422 0.862500
vt 0.781250 0.862500
vt 0.890625 0.625000
vt 0.890625 0.375000
vn 0.815323 0.196116 0.544781
vn 0.831470 -0.000000 0.555570
vn 0.980785 -0.000000 0.195090
vn 0.961739 0.196116 0.191302
vn 0.544781 0.196116 0.815323
vn 0.555570 -0.000000 0.831470
vn 0.191302 0.196116 0.961739
vn 0.195090 -0.000000 0.980785
vn -0.191302 0.196116 0.961739
vn -0.195090 -0.000000 0.980785
vn -0.544781 0.196116 0.815323
vn -0.555570 -0.000000 0.831470
vn -0.815323 0.196116 0.544781
vn -0.831470 -0.000000 0.555570
vn -0.961739 0.196116 0.191302
vn -0.980785 -0.000000 0.195090
vn -0.961739 0.196116 -0.191302
vn -0.980785 -0.000000 -0.195090
vn -0.815323 0.196116 -0.544781
vn -0.831470 -0.000000 -0.555570
vn -0.544781 0.196116 -0.815323
vn -0.555570 -0.000000 -0.831470
vn -0.191302 0.196116 -0.961739
vn -0.195090 -0.000000 -0.980785
vn 0.191302 0.196116 -0.961739
vn 0.195090 -0.000000 -0.980785
vn 0.544781 0.196116 -0.815323
vn 0.555570 -0.000000 -0.831470
vn 0.815323 0.196116 -0.544781
vn 0.831470 -0.000000 -0.555570
vn 0.961739 0.196116 -0.191302
vn 0.980785 -0.000000 -0.195090
vn 0.823113 0.141421 0.549986
vn 0.970928 0.141421 0.193130
vn 0.549986 0.141421 0.823113
vn 0.193130 0.141421 0.970928
vn -0.193130 0.141421 0.970928
vn -0.549986 0.141421 0.823113
vn -0.823113 0.141421 0.549986
vn -0.970928 0.141421 0.193130
vn -0.970928 0.141421 -0.193130
vn -0.823113 0.141421 -0.549986
vn -0.549986 0.141421 -0.823113
vn -0.193130 0.141421 -0.970928
vn 0.193130 0.141421 -0.970928
vn 0.549986 0.141421 -0.823113
vn 0.823113 0.141421 -0.549986
vn 0.970928 0.141421 -0.193130
vn 0.825049 0.124035 0.551280
vn 0.973212 0.124035 0.193584
vn 0.551280 0.124035 0.825049
vn 0.193584 0.124035 0.973212
vn -0.193584 0.124035 0.973212
vn -0.551280 0.124035 0.825049
vn -0.825049 0.124035 0.551280
vn -0.973212 0.124035 0.193584
vn -0.973212 0.124035 -0.193584
vn -0.825049 0.124035 -0.551280
vn -0.551280 0.124035 -0.825049
vn -0.193584 0.124035 -0.973212
vn 0.193584 0.124035 -0.973212
vn 0.551280 0.124035 -0.825049
vn 0.825049 0.124035 -0.551280
vn 0.973212 0.124035 -0.193584
vn 0.824858 0.125857 0.551153
vn 0.972986 0.125857 0.193539
vn 0.551153 0.125857 0.824858
vn 0.193539 0.125857 0.972986
vn -0.193539 0.125857 0.972986
vn -0.551153 0.125857 0.824858
vn -0.824858 0.125857 0.551153
vn -0.972986 0.125857 0.193539
vn -0.972986 0.125857 -0.193539
vn -0.824858 0.125857 -0.551153
vn -0.551153 0.125857 -0.824858
vn -0.193539 0.125857 -0.972986
vn 0.193539 0.125857 -0.972986
vn 0.551153 0.125857 -0.824858
vn 0.824858 0.125857 -0.551153
vn 0.972986 0.125857 -0.193539
vn 0.831210 -0.024992 0.555397
vn 0.980479 -0.024992 0.195029
vn 0.555397 -0.024992 0.831210
vn 0.195029 -0.024992 0.980479
vn -0.195029 -0.024992 0.980479
vn -0.555397 -0.024992 0.831210
vn -0.831210 -0.024992 0.555397
vn -0.980479 -0.024992 0.195029
vn -0.980479 -0.024992 -0.195029
vn -0.831210 -0.024992 -0.555397
vn -0.555397 -0.024992 -0.831210
vn -0.195029 -0.024992 -0.980479
vn 0.195029 -0.024992 -0.980479
vn 0.555397 -0.024992 -0.831210
vn 0.831210 -0.024992 -0.555397
vn 0.980479 -0.024992 -0.195029
vn 0.813634 -0.206010 0.543653
vn 0.959747 -0.206010 0.190906
vn 0.543653 -0.206010 0.813634
vn 0.190906 -0.206010 0.959747
vn -0.190906 -0.206010 0.959747
vn -0.543653 -0.206010 0.813634
vn -0.813634 -0.206010 0.543653
vn -0.959747 -0.206010 0.190906
vn -0.959747 -0.206010 -0.190906
vn -0.813634 -0.206010 -0.543653
vn -0.543653 -0.206010 -0.813634
vn -0.190906 -0.206010 -0.959747
vn 0.190906 -0.206010 -0.959747
vn 0.543653 -0.206010 -0.813634
vn 0.813634 -0.206010 -0.543653
vn 0.959747 -0.206010 -0.190906
vn 0.734843 0.467888 0.491006
vn 0.866806 0.467888 0.172418
vn 0.491006 0.467888 0.734843
vn 0.172418 0.467888 0.866806
vn -0.172418 0.467888 0.866806
vn -0.491006 0.467888 0.734843
vn -0.734843 0.467888 0.491006
vn -0.866806 0.467888 0.172418
vn -0.866806 0.467888 -0.172418
vn -0.734843 0.467888 -0.491006
vn -0.491006 0.467888 -0.734843
vn -0.172418 0.467888 -0.866806
vn 0.172418 0.467888 -0.866806
vn 0.491006 0.467888 -0.734843
vn 0.734843 0.467888 -0.491006
vn 0.866806 0.467888 -0.172418
vn 0.683628 0.569210 0.456786
vn 0.806394 0.569210 0.160402
vn 0.456786 0.569210 0.683628
vn 0.160402 0.569210 0.806394
vn -0.160402 0.569210 0.806394
vn -0.456786 0.569210 0.683628
vn -0.683628 0.569210 0.456786
vn -0.806394 0.569210 0.160402
vn -0.806394 0.569210 -0.160402
vn -0.683628 0.569210 -0.456786
vn -0.456786 0.569210 -0.683628
vn -0.160402 0.569210 -0.806394
vn 0.160402 0.569210 -0.806394
vn 0.456786 0.569210 -0.683628
vn 0.683628 0.569210 -0.456786
vn 0.806394 0.569210 -0.160402
vn 0.000000 1.000000 0.000000
vn 0.000000 -1.000000 0.000000
usemtl body
f 1/1/1 2/2/2 3/3/3
f 4/4/4 1/1/1 3/3/3
f 5/5/5 6/6/6 2/2/2
f 1/1/1 5/5/5 2/2/2
f 7/7/7 8/8/8 6/6/6
f 5/5/5 7/7/7 6/6/6
f 9/9/9 10/10/10 8/8/8
f 7/7/7 9/9/9 8/8/8
f 11/11/11 12/12/12 10/10/10
f 9/9/9 11/11/11 10/10/10
f 13/13/13 14/14/14 12/12/12
f 11/11/11 13/13/13 12/12/12
f 15/15/15 16/16/16 14/14/14
f 13/13/13 15/15/15 14/14/14
f 17/17/17 18/18/18 16/16/16
f 15/15/15 17/17/17 16/16/16
f 19/19/19 20/20/20 18/18/18
f 17/17/17 19/19/19 18/18/18
f 21/21/21 22/22/22 20/20/20
f 19/19/19 21/21/21 20/20/20
f 23/23/23 24/24/24 22/22/22
f 21/21/21 23/23/23 22/22/22
f 25/25/25 26/26/26 24/24/24
f 23/23/23 25/25/25 24/24/24
f 27/27/27 28/28/28 26/26/26
f 25/25/25 27/27/27 26/26/26
f 29/29/29 30/30/30 28/28/28
f 27/27/27 29/29/29 28/28/28
f 31/31/31 32/32/32 30/30/30
f 29/29/29 31/31/31 30/30/30
f 4/33/4 3/34/3 32/32/32
f 31/31/31 4/33/4 32/32/32
f 33/35/33 1/1/1 4/4/4
f 34/36/34 33/35/33 4/4/4
f 35/37/35 5/5/5 1/1/1
f 33/35/33 35/37/35 1/1/1
f 36/38/36 7/7/7 5/5/5
f 35/37/35 36/38/36 5/5/5
f 37/39/37 9/9/9 7/7/7
f 36/38/36 37/39/37 7/7/7
f 38/40/38 11/11/11 9/9/9
f 37/39/37 38/40/38 9/9/9
f 39/41/39 13/13/13 11/11/11
f 38/40/38 39/41/39 11/11/11
f 40/42/40 15/15/15 13/13/13
f 39/41/39 40/42/40 13/13/13
f 41/43/41 17/17/17 15/15/15
f 40/42/40 41/43/41 15/15/15
f 42/44/42 19/19/19 17/17/17
f 41/43/41 42/44/42 17/17/17
f 43/45/43 21/21/21 19/19/19
f 42/44/42 43/45/43 19/19/19
f 44/46/44 23/23/23 21/21/21
f 43/45/43 44/46/44 21/21/21
f 45/47/45 25/25/25 23/23/23
f 44/46/44 45/47/45 23/23/23
f 46/48/46 27/27/27 25/25/25
f 45/47/45 46/48/46 25/25/25
f 47/49/47 29/29/29 27/27/27
f 46/48/46 47/49/47 27/27/27
f 48/50/48 31/31/31 29/29/29
f 47/49/47 48/50/48 29/29/29
f 34/51/34 4/33/4 31/31/31
f 48/50/48 34/51/34 31/31/31
f 49/52/49 33/35/33 34/36/34
f 50/53/50 49/52/49 34/36/34
f 51/54/51 35/37/35 33/35/33
f 49/52/49 51/54/51 33/35/33
f 52/55/52 36/38/36 35/37/35
f 51/54/51 52/55/52 35/37/35
f 53/56/53 37/39/37 36/38/36
f 52/55/52 53/56/53 36/38/36
f 54/57/54 38/40/38 37/39/37
f 53/56/53 54/57/54 37/39/37
f 55/58/55 39/41/39 38/40/38
f 54/57/54 55/58/55 38/40/38
f 56/59/56 40/42/40 39/41/39
f 55/58/55 56/59/56 39/41/39
f 57/60/57 41/43/41 40/42/40
f 56/59/56 57/60/57 40/42/40
f 58/61/58 42/44/42 41/43/41
f 57/60/57 58/61/58 41/43/41
f 59/62/59 43/45/43 42/44/42
f 58/61/58 59/62/59 42/44/42
f 60/63/60 44/46/44 43/45/43
f 59/62/59 60/63/60 43/45/43
f 61/64/61 45/47/45 44/46/44
f 60/63/60 61/64/61 44/46/44
f 62/65/62 46/48/46 45/47/45
f 61/64/61 62/65/62 45/47/45
f 63/66/63 47/49/47 46/48/46
f 62/65/62 63/66/63 46/48/46
f 64/67/64 48/50/48 47/49/47
f 63/66/63 64/67/64 47/49/47
f 50/68/50 34/51/34 48/50/48
f 64/67/64 50/68/50 48/50/48
f 65/69/65 49/52/49 50/53/50
f 66/70/66 65/69/65 50/53/50
f 67/71/67 51/54/51 49/52/49
f 65/69/65 67/71/67 49/52/49
f 68/72/68 52/55/52 51/54/51
f 67/71/67 68/72/68 51/54/51
f 69/73/69 53/56/53 52/55/52
f 68/72/68 69/73/69 52/55/52
f 70/74/70 54/57/54 53/56/53
f 69/73/69 70/74/70 53/56/53
f 71/75/71 55/58/55 54/57/54
f 70/74/70 71/75/71 54/57/54
f 72/76/72 56/59/56 55/58/55
f 71/75/71 72/76/72 55/58/55
f 73/77/73 57/60/57 56/59/56
f 72/76/72 73/77/73 56/59/56
f 74/78/74 58/61/58 57/60/57
f 73/77/73 74/78/74 57/60/57
f 75/79/75 59/62/59 58/61/58
f 74/78/74 75/79/75 58/61/58
f 76/80/76 60/63/60 59/62/59
f 75/79/75 76/80/76 59/62/59
f 77/81/77 61/64/61 60/63/60
f 76/80/76 77/81/77 60/63/60
f 78/82/78 62/65/62 61/64/61
f 77/81/77 78/82/78 61/64/61
f 79/83/79 63/66/63 62/65/62
f 78/82/78 79/83/79 62/65/62
f 80/84/80 64/67/64 63/66/63
f 79/83/79 80/84/80 63/66/63
f 66/85/66 50/68/50 64/67/64
f 80/84/80 66/85/66 64/67/64
f 81/86/81 65/69/65 66/70/66
f 82/87/82 81/86/81 66/70/66
f 83/88/83 67/71/67 65/69/65
f 81/86/81 83/88/83 65/69/65
f 84/89/84 68/72/68 67/71/67
f 83/88/83 84/89/84 67/71/67
f 85/90/85 69/73/69 68/72/68
f 84/89/84 85/90/85 68/72/68
f 86/91/86 70/74/70 69/73/69
f 85/90/85 86/91/86 69/73/69
f 87/92/87 71/75/71 70/74/70
f 86/91/86 87/92/87 70/74/70
f 88/93/88 72/76/72 71/75/71
f 87/92/87 88/93/88 71/75/71
f 89/94/89 73/77/73 72/76/72
f 88/93/88 89/94/89 72/76/72
f 90/95/90 74/78/74 73/77/73
f 89/94/89 90/95/90 73/77/73
f 91/96/91 75/79/75 74/78/74
f 90/95/90 91/96/91 74/78/74
f 92/97/92 76/80/76 75/79/75
f 91/96/91 92/97/92 75/79/75
f 93/98/93 77/81/77 76/80/76
f 92/97/92 93/98/93 76/80/76
f 94/99/94 78/82/78 77/81/77
f 93/98/93 94/99/94 77/81/77
f 95/100/95 79/83/79 78/82/78
f 94/99/94 95/100/95 78/82/78
f 96/101/96 80/84/80 79/83/79
f 95/100/95 96/101/96 79/83/79
f 82/102/82 66/85/66 80/84/80
f 96/101/96 82/102/82 80/84/80
f 97/103/97 81/86/81 82/87/82
f 98/104/98 97/103/97 82/87/82
f 99/105/99 83/88/83 81/86/81
f 97/103/97 99/105/99 81/86/81
f 100/106/100 84/89/84 83/88/83
f 99/105/99 100/106/100 83/88/83
f 101/107/101 85/90/85 84/89/84
f 100/106/100 101/107/101 84/89/84
f 102/108/102 86/91/86 85/90/85
f 101/107/101 102/108/102 85/90/85
f 103/109/103 87/92/87 86/91/86
f 102/108/102 103/109/103 86/91/86
f 104/110/104 88/93/88 87/92/87
f 103/109/103 104/110/104 87/92/87
f 105/111/105 89/94/89 88/93/88
f 104/110/104 105/111/105 88/93/88
f 106/112/106 90/95/90 89/94/89
f 105/111/105 106/112/106 89/94/89
f 107/113/107 91/96/91 90/95/90
f 106/112/106 107/113/107 90/95/90
f 108/114/108 92/97/92 91/96/91
f 107/113/107 108/114/108 91/96/91
f 109/115/109 93/98/93 92/97/92
f 108/114/108 109/115/109 92/97/92
f 110/116/110 94/99/94 93/98/93
f 109/115/109 110/116/110 93/98/93
f 111/117/111 95/100/95 94/99/94
f 110/116/110 111/117/111 94/99/94
f 112/118/112 96/101/96 95/100/95
f 111/117/111 112/118/112 95/100/95
f 98/119/98 82/102/82 96/101/96
f 112/118/112 98/119/98 96/101/96
f 113/120/113 97/103/97 98/104/98
f 114/121/114 113/120/113 98/104/98
f 115/122/115 99/105/99 97/103/97
f 113/120/113 115/122/115 97/103/97
f 116/123/116 100/106/100 99/105/99
f 115/122/115 116/123/116 99/105/99
f 117/124/117 101/107/101 100/106/100
f 116/123/116 117/124/117 100/106/100
f 118/125/118 102/108/102 101/107/101
f 117/124/117 118/125/118 101/107/101
f 119/126/119 103/109/103 102/108/102
f 118/125/118 119/126/119 102/108/102
f 120/127/120 104/110/104 103/109/103
f 119/126/119 120/127/120 103/109/103
f 121/128/121 105/111/105 104/110/104
f 120/127/120 121/128/121 104/110/104
f 122/129/122 106/112/106 105/111/105
f 121/128/121 122/129/122 105/111/105
f 123/130/123 107/113/107 106/112/106
f 122/129/122 123/130/123 106/112/106
f 124/131/124 108/114/108 107/113/107
f 123/130/123 124/131/124 107/113/107
f 125/132/125 109/115/109 108/114/108
f 124/131/124 125/132/125 108/114/108
f 126/133/126 110/116/110 109/115/109
f 125/132/125 126/133/126 109/115/109
f 127/134/127 111/117/111 110/116/110
f 126/133/126 127/134/127 110/116/110
f 128/135/128 112/118/112 111/117/111
f 127/134/127 128/135/128 111/117/111
f 114/136/114 98/119/98 112/118/112
f 128/135/128 114/136/114 112/118/112
f 129/137/129 113/120/113 114/121/114
f 130/138/130 129/137/129 114/121/114
f 131/139/131 115/122/115 113/120/113
f 129/137/129 131/139/131 113/120/113
f 132/140/132 116/123/116 115/122/115
f 131/139/131 132/140/132 115/122/115
f 133/141/133 117/124/117 116/123/116
f 132/140/132 133/141/133 116/123/116
f 134/142/134 118/125/118 117/124/117
f 133/141/133 134/142/134 117/124/117
f 135/143/135 119/126/119 118/125/118
f 134/142/134 135/143/135 118/125/118
f 136/144/136 120/127/120 119/126/119
f 135/143/135 136/144/136 119/126/119
f 137/145/137 121/128/121 120/127/120
f 136/144/136 137/145/137 120/127/120
f 138/146/138 122/129/122 121/128/121
f 137/145/137 138/146/138 121/128/121
f 139/147/139 123/130/123 122/129/122
f 138/146/138 139/147/139 122/129/122
f 140/148/140 124/131/124 123/130/123
f 139/147/139 140/148/140 123/130/123
f 141/149/141 125/132/125 124/131/124
f 140/148/140 141/149/141 124/131/124
f 142/150/142 126/133/126 125/132/125
f 141/149/141 142/150/142 125/132/125
f 143/151/143 127/134/127 126/133/126
f 142/150/142 143/151/143 126/133/126
f 144/152/144 128/135/128 127/134/127
f 143/151/143 144/152/144 127/134/127
f 130/153/130 114/136/114 128/135/128
f 144/152/144 130/153/130 128/135/128
f 145/154/2 129/137/129 130/138/130
f 146/155/3 145/154/2 130/138/130
f 147/156/6 131/139/131 129/137/129
f 145/154/2 147/156/6 129/137/129
f 148/157/8 132/140/132 131/139/131
f 147/156/6 148/157/8 131/139/131
f 149/158/10 133/141/133 132/140/132
f 148/157/8 149/158/10 132/140/132
f 150/159/12 134/142/134 133/141/133
f 149/158/10 150/159/12 133/141/133
f 151/160/14 135/143/135 134/142/134
f 150/159/12 151/160/14 134/142/134
f 152/161/16 136/144/136 135/143/135
f 151/160/14 152/161/16 135/143/135
f 153/162/18 137/145/137 136/144/136
f 152/161/16 153/162/18 136/144/136
f 154/163/20 138/146/138 137/145/137
f 153/162/18 154/163/20 137/145/137
f 155/164/22 139/147/139 138/146/138
f 154/163/20 155/164/22 138/146/138
f 156/165/24 140/148/140 139/147/139
f 155/164/22 156/165/24 139/147/139
f 157/166/26 141/149/141 140/148/140
f 156/165/24 157/166/26 140/148/140
f 158/167/28 142/150/142 141/149/141
f 157/166/26 158/167/28 141/149/141
f 159/168/30 143/151/143 142/150/142
f 158/167/28 159/168/30 142/150/142
f 160/169/32 144/152/144 143/151/143
f 159/168/30 160/169/32 143/151/143
f 146/170/3 130/153/130 144/152/144
f 160/169/32 146/170/3 144/152/144
f 161/171/145 145/171/145 146/171/145
f 161/171/145 147/171/145 145/171/145
f 161/171/145 148/171/145 147/171/145
f 161/171/145 149/171/145 148/171/145
f 161/171/145 150/171/145 149/171/145
f 161/171/145 151/171/145 150/171/145
f 161/171/145 152/171/145 151/171/145
f 161/171/145 153/171/145 152/171/145
f 161/171/145 154/171/145 153/171/145
f 161/171/145 155/171/145 154/171/145
f 161/171/145 156/171/145 155/171/145
f 161/171/145 157/171/145 156/171/145
f 161/171/145 158/171/145 157/171/145
f 161/171/145 159/171/145 158/171/145
f 161/171/145 160/171/145 159/171/145
f 161/171/145 146/171/145 160/171/145
f 162/172/146 3/172/146 2/172/146
f 162/172/146 2/172/146 6/172/146
f 162/172/146 6/172/146 8/172/146
f 162/172/146 8/172/146 10/172/146
f 162/172/146 10/172/146 12/172/146
f 162/172/146 12/172/146 14/172/146
f 162/172/146 14/172/146 16/172/146
f 162/172/146 16/172/146 18/172/146
f 162/172/146 18/172/146 20/172/146
f 162/172/146 20/172/146 22/172/146
f 162/172/146 22/172/146 24/172/146
f 162/172/146 24/172/146 26/172/146
f 162/172/146 26/172/146 28/172/146
f 162/172/146 28/172/146 30/172/146
f 162/172/146 30/172/146 32/172/146
f 162/172/146 32/172/146 3/172/146
