# Procedurally generated by dev-env-utils/scripts/gen_work_zone_devices.py -- do not hand edit
mtllib workzone_barricade_type3.mtl
o workzone_barricade_type3_inv
v -0.084437 0.000000 0.795750
v -0.084437 0.062563 0.795750
v -0.084437 0.062563 0.204250
v -0.084437 0.000000 0.204250
v 0.084437 0.000000 0.204250
v 0.084437 0.062563 0.204250
v 0.084437 0.062563 0.795750
v 0.084437 0.000000 0.795750
v -0.062563 0.062563 0.547775
v -0.062563 1.501500 0.547775
v -0.062563 1.501500 0.452225
v -0.062563 0.062563 0.452225
v 0.062563 0.062563 0.452225
v 0.062563 1.501500 0.452225
v 0.062563 1.501500 0.547775
v 0.062563 0.062563 0.547775
v 0.000000 0.341250 0.470425
v 1.000000 0.341250 0.470425
v 1.000000 0.341250 0.529575
v 0.000000 0.341250 0.529575
v 0.000000 0.614250 0.529575
v 1.000000 0.614250 0.529575
v 1.000000 0.614250 0.470425
v 0.000000 0.614250 0.470425
v 0.000000 0.750750 0.470425
v 1.000000 0.750750 0.470425
v 1.000000 0.750750 0.529575
v 0.000000 0.750750 0.529575
v 0.000000 1.023750 0.529575
v 1.000000 1.023750 0.529575
v 1.000000 1.023750 0.470425
v 0.000000 1.023750 0.470425
v 0.000000 1.160250 0.470425
v 1.000000 1.160250 0.470425
v 1.000000 1.160250 0.529575
v 0.000000 1.160250 0.529575
v 0.000000 1.433250 0.529575
v 1.000000 1.433250 0.529575
v 1.000000 1.433250 0.470425
v 0.000000 1.433250 0.470425
v -0.257075 0.341250 0.470425
v -0.257075 0.341250 0.529575
v -0.257075 0.614250 0.529575
v -0.257075 0.614250 0.470425
v -0.257075 0.750750 0.470425
v -0.257075 0.750750 0.529575
v -0.257075 1.023750 0.529575
v -0.257075 1.023750 0.470425
v -0.257075 1.160250 0.470425
v -0.257075 1.160250 0.529575
v -0.257075 1.433250 0.529575
v -0.257075 1.433250 0.470425
v 0.915563 0.000000 0.795750
v 0.915563 0.062563 0.795750
v 0.915563 0.062563 0.204250
v 0.915563 0.000000 0.204250
v 1.084438 0.000000 0.204250
v 1.084438 0.062563 0.204250
v 1.084438 0.062563 0.795750
v 1.084438 0.000000 0.795750
v 0.937438 0.062563 0.547775
v 0.937438 1.501500 0.547775
v 0.937438 1.501500 0.452225
v 0.937438 0.062563 0.452225
v 1.062563 0.062563 0.452225
v 1.062563 1.501500 0.452225
v 1.062563 1.501500 0.547775
v 1.062563 0.062563 0.547775
v 1.257075 0.341250 0.470425
v 1.257075 0.341250 0.529575
v 1.257075 0.614250 0.529575
v 1.257075 0.614250 0.470425
v 1.257075 0.750750 0.470425
v 1.257075 0.750750 0.529575
v 1.257075 1.023750 0.529575
v 1.257075 1.023750 0.470425
v 1.257075 1.160250 0.470425
v 1.257075 1.160250 0.529575
v 1.257075 1.433250 0.529575
v 1.257075 1.433250 0.470425
vt 0.890625 0.625000
vt 0.000000 0.000000
vt 0.781250 0.000000
vt 0.781250 1.000000
vt 0.000000 1.000000
vt 0.580410 0.000000
vt 0.580410 1.000000
vt 0.200840 1.000000
vt 0.200840 0.000000
vn -1.000000 0.000000 0.000000
vn 1.000000 0.000000 0.000000
vn 0.000000 -1.000000 0.000000
vn 0.000000 1.000000 0.000000
vn 0.000000 0.000000 -1.000000
vn 0.000000 0.000000 1.000000
usemtl body
f 1/1/1 2/1/1 3/1/1
f 1/1/1 3/1/1 4/1/1
f 5/1/2 6/1/2 7/1/2
f 5/1/2 7/1/2 8/1/2
f 4/1/3 5/1/3 8/1/3
f 4/1/3 8/1/3 1/1/3
f 2/1/4 7/1/4 6/1/4
f 2/1/4 6/1/4 3/1/4
f 3/1/5 6/1/5 5/1/5
f 3/1/5 5/1/5 4/1/5
f 1/1/6 8/1/6 7/1/6
f 1/1/6 7/1/6 2/1/6
f 9/1/1 10/1/1 11/1/1
f 9/1/1 11/1/1 12/1/1
f 13/1/2 14/1/2 15/1/2
f 13/1/2 15/1/2 16/1/2
f 12/1/3 13/1/3 16/1/3
f 12/1/3 16/1/3 9/1/3
f 10/1/4 15/1/4 14/1/4
f 10/1/4 14/1/4 11/1/4
f 11/1/5 14/1/5 13/1/5
f 11/1/5 13/1/5 12/1/5
f 9/1/6 16/1/6 15/1/6
f 9/1/6 15/1/6 10/1/6
f 17/1/3 18/1/3 19/1/3
f 17/1/3 19/1/3 20/1/3
f 21/1/4 22/1/4 23/1/4
f 21/1/4 23/1/4 24/1/4
f 20/2/6 19/3/6 22/4/6
f 20/2/6 22/4/6 21/5/6
f 24/5/5 23/4/5 18/3/5
f 24/5/5 18/3/5 17/2/5
f 25/1/3 26/1/3 27/1/3
f 25/1/3 27/1/3 28/1/3
f 29/1/4 30/1/4 31/1/4
f 29/1/4 31/1/4 32/1/4
f 28/2/6 27/3/6 30/4/6
f 28/2/6 30/4/6 29/5/6
f 32/5/5 31/4/5 26/3/5
f 32/5/5 26/3/5 25/2/5
f 33/1/3 34/1/3 35/1/3
f 33/1/3 35/1/3 36/1/3
f 37/1/4 38/1/4 39/1/4
f 37/1/4 39/1/4 40/1/4
f 36/2/6 35/3/6 38/4/6
f 36/2/6 38/4/6 37/5/6
f 40/5/5 39/4/5 34/3/5
f 40/5/5 34/3/5 33/2/5
f 41/1/3 17/1/3 20/1/3
f 41/1/3 20/1/3 42/1/3
f 43/1/4 21/1/4 24/1/4
f 43/1/4 24/1/4 44/1/4
f 42/6/6 20/3/6 21/4/6
f 42/6/6 21/4/6 43/7/6
f 44/7/5 24/4/5 17/3/5
f 44/7/5 17/3/5 41/6/5
f 41/1/1 42/1/1 43/1/1
f 41/1/1 43/1/1 44/1/1
f 45/1/3 25/1/3 28/1/3
f 45/1/3 28/1/3 46/1/3
f 47/1/4 29/1/4 32/1/4
f 47/1/4 32/1/4 48/1/4
f 46/6/6 28/3/6 29/4/6
f 46/6/6 29/4/6 47/7/6
f 48/7/5 32/4/5 25/3/5
f 48/7/5 25/3/5 45/6/5
f 45/1/1 46/1/1 47/1/1
f 45/1/1 47/1/1 48/1/1
f 49/1/3 33/1/3 36/1/3
f 49/1/3 36/1/3 50/1/3
f 51/1/4 37/1/4 40/1/4
f 51/1/4 40/1/4 52/1/4
f 50/6/6 36/3/6 37/4/6
f 50/6/6 37/4/6 51/7/6
f 52/7/5 40/4/5 33/3/5
f 52/7/5 33/3/5 49/6/5
f 49/1/1 50/1/1 51/1/1
f 49/1/1 51/1/1 52/1/1
f 53/1/1 54/1/1 55/1/1
f 53/1/1 55/1/1 56/1/1
f 57/1/2 58/1/2 59/1/2
f 57/1/2 59/1/2 60/1/2
f 56/1/3 57/1/3 60/1/3
f 56/1/3 60/1/3 53/1/3
f 54/1/4 59/1/4 58/1/4
f 54/1/4 58/1/4 55/1/4
f 55/1/5 58/1/5 57/1/5
f 55/1/5 57/1/5 56/1/5
f 53/1/6 60/1/6 59/1/6
f 53/1/6 59/1/6 54/1/6
f 61/1/1 62/1/1 63/1/1
f 61/1/1 63/1/1 64/1/1
f 65/1/2 66/1/2 67/1/2
f 65/1/2 67/1/2 68/1/2
f 64/1/3 65/1/3 68/1/3
f 64/1/3 68/1/3 61/1/3
f 62/1/4 67/1/4 66/1/4
f 62/1/4 66/1/4 63/1/4
f 63/1/5 66/1/5 65/1/5
f 63/1/5 65/1/5 64/1/5
f 61/1/6 68/1/6 67/1/6
f 61/1/6 67/1/6 62/1/6
f 18/1/3 69/1/3 70/1/3
f 18/1/3 70/1/3 19/1/3
f 22/1/4 71/1/4 72/1/4
f 22/1/4 72/1/4 23/1/4
f 71/8/6 22/5/6 19/2/6
f 71/8/6 19/2/6 70/9/6
f 69/9/5 18/2/5 23/5/5
f 69/9/5 23/5/5 72/8/5
f 72/1/2 71/1/2 70/1/2
f 72/1/2 70/1/2 69/1/2
f 26/1/3 73/1/3 74/1/3
f 26/1/3 74/1/3 27/1/3
f 30/1/4 75/1/4 76/1/4
f 30/1/4 76/1/4 31/1/4
f 75/8/6 30/5/6 27/2/6
f 75/8/6 27/2/6 74/9/6
f 73/9/5 26/2/5 31/5/5
f 73/9/5 31/5/5 76/8/5
f 76/1/2 75/1/2 74/1/2
f 76/1/2 74/1/2 73/1/2
f 34/1/3 77/1/3 78/1/3
f 34/1/3 78/1/3 35/1/3
f 38/1/4 79/1/4 80/1/4
f 38/1/4 80/1/4 39/1/4
f 79/8/6 38/5/6 35/2/6
f 79/8/6 35/2/6 78/9/6
f 77/9/5 34/2/5 39/5/5
f 77/9/5 39/5/5 80/8/5
f 80/1/2 79/1/2 78/1/2
f 80/1/2 78/1/2 77/1/2
