<?xml version="1.0" encoding="UTF-8"?>
<svg xmlns="http://www.w3.org/2000/svg" version="1.1" width="385" height="385" viewBox="0 0 385 385">
 <defs />
 <g>
  <g>
   <g>
    <path fill="#FFFFFF" d="M0.5,24.5c0-13.2548828,10.7451172-24,24-24h336c13.2548828,0,24,10.7451172,24,24v336     c0,13.2548828-10.7451172,24-24,24h-336c-13.2548828,0-24-10.7451172-24-24V24.5L0.5,24.5z" />
    <path fill="#FFFFFF" d="M192.5,192.5" />
   </g>
   <g>
    <path fill="none" stroke="#000000" stroke-linecap="round" stroke-linejoin="round" stroke-miterlimit="3.863693" d="M0.5,24.5     c0-13.2548828,10.7451172-24,24-24h336c13.2548828,0,24,10.7451172,24,24v336c0,13.2548828-10.7451172,24-24,24h-336     c-13.2548828,0-24-10.7451172-24-24V24.5L0.5,24.5z" />
    <path fill="none" stroke="#000000" stroke-linecap="round" stroke-linejoin="round" stroke-miterlimit="3.863693" d="     M192.5,192.5" />
   </g>
  </g>
  <g>
   <g>
    <path d="M6.8999023,24.5c0-9.7202148,7.8798828-17.6000977,17.6000977-17.6000977h336     c9.7207031,0,17.5996094,7.8798828,17.5996094,17.6000977v336c0,9.7207031-7.8789063,17.5996094-17.5996094,17.5996094h-336     c-9.7202148,0-17.6000977-7.8789063-17.6000977-17.5996094V24.5L6.8999023,24.5z" />
    <path d="M192.5,192.5" />
   </g>
  </g>
  <g>
   <g>
    <path fill="#FFFFFF" d="M16.5,24.5c0-4.418457,3.581543-8,8-8h336c4.4179688,0,8,3.581543,8,8v336c0,4.4179688-3.5820313,8-8,8     h-336c-4.418457,0-8-3.5820313-8-8V24.5L16.5,24.5z" />
    <path fill="#FFFFFF" d="M192.5,192.5" />
   </g>
  </g>
  <g>
   <g>
    <rect x="72.581543" y="65.3300781" fill-rule="evenodd" clip-rule="evenodd" width="7.4697266" height="46.3398438" />
   </g>
   <g>
    <polygon fill-rule="evenodd" clip-rule="evenodd" points="91.1074219,111.6699219 91.1074219,65.3300781 98.4389648,65.3300781      98.4389648,104.8227539 119.8798828,104.8227539 119.8798828,111.6699219    " />
   </g>
   <g>
    <polygon fill-rule="evenodd" clip-rule="evenodd" points="126.7480469,111.6699219 126.7480469,65.3300781      134.0791016,65.3300781 134.0791016,104.8227539 155.5205078,104.8227539 155.5205078,111.6699219    " />
   </g>
   <g>
    <rect x="162.3886719" y="65.3300781" fill-rule="evenodd" clip-rule="evenodd" width="7.4697266" height="46.3398438" />
   </g>
   <g>
    <polygon fill-rule="evenodd" clip-rule="evenodd" points="205.9521484,111.6699219 188.2460938,80.2695313      188.2460938,111.6699219 180.9145508,111.6699219 180.9145508,65.3300781 188.2460938,65.3300781 205.1220703,94.9321289      205.1220703,65.3300781 212.453125,65.3300781 212.453125,111.6699219    " />
   </g>
   <g>
    <path fill-rule="evenodd" clip-rule="evenodd" d="M255.3212891,88.5693359c0,3.6884766-0.4384766,7.2158203-1.3144531,10.5820313     s-2.1210938,6.0864258-3.734375,8.1611328c-2.5830078,3.4584961-6.3173828,5.1875-11.2050781,5.1875     c-3.2744141,0-5.9716797-0.668457-8.0927734-2.0058594c-2.1210938-1.3369141-3.8730469-3.4350586-5.2558594-6.2939453     c-0.96875-1.9824219-1.7519531-4.3916016-2.3515625-7.2275391s-0.8994141-5.6367188-0.8994141-8.4033203     c0-3.8271484,0.4501953-7.3774414,1.3486328-10.6513672c0.8994141-3.2739258,2.1328125-6.0175781,3.7001953-8.2304688     c1.3837891-1.7524414,3.0322266-3.0546875,4.9453125-3.9077148C234.3759766,64.9267578,236.6699219,64.5,239.34375,64.5     c2.9511719,0,5.4648438,0.668457,7.5390625,2.0058594c2.0751953,1.3369141,3.8505859,3.4350586,5.3261719,6.2939453     c0.9677734,2.074707,1.7285156,4.4956055,2.2822266,7.262207     C255.0439453,82.8286133,255.3212891,85.6640625,255.3212891,88.5693359z M247.9892578,88.5693359     c0-2.628418-0.2304688-5.0605469-0.6914063-7.296875s-1.1523438-4.1386719-2.0751953-5.7060547     c-0.7373047-1.1987305-1.5791016-2.0751953-2.5244141-2.628418s-2.109375-0.8759766-3.4931641-0.9682617     c-1.7978516-0.0922852-3.2958984,0.3227539-4.4951172,1.2451172c-1.1982422,0.921875-2.1904297,2.4208984-2.9736328,4.4956055     c-0.5996094,1.3833008-1.0488281,3.0546875-1.3496094,5.0141602c-0.2988281,1.9599609-0.4492188,3.9082031-0.4492188,5.8447266     c0,2.4897461,0.2304688,4.8876953,0.6914063,7.1928711c0.4609375,2.3056641,1.1533203,4.1958008,2.0751953,5.6713867     c0.7382813,1.1992188,1.6142578,2.0981445,2.6279297,2.6972656c1.0146484,0.5996094,2.2597656,0.8994141,3.7353516,0.8994141     c1.7060547,0,3.1240234-0.4609375,4.2539063-1.3833008s2.0859375-2.4208984,2.8701172-4.4956055     c0.2304688-0.5996094,0.4609375-1.3256836,0.6914063-2.1787109s0.4267578-1.7519531,0.5878906-2.6972656     s0.2880859-1.9023438,0.3808594-2.8706055C247.9433594,90.4365234,247.9892578,89.4912109,247.9892578,88.5693359z" />
   </g>
   <g>
    <rect x="265.6044922" y="65.3300781" fill-rule="evenodd" clip-rule="evenodd" width="7.4697266" height="46.3398438" />
   </g>
   <g>
    <path fill-rule="evenodd" clip-rule="evenodd" d="M312.4179688,98.3212891c0,2.1210938-0.3916016,4.0805664-1.1757813,5.8789063     c-0.7832031,1.7983398-1.9130859,3.3662109-3.3886719,4.703125c-1.2910156,1.152832-2.8007813,2.0405273-4.5302734,2.6630859     S299.7382813,112.5,297.7558594,112.5c-4.0117188,0-7.4355469-1.0722656-10.2714844-3.2158203     c-2.8359375-2.1445313-5.0371094-4.9916992-6.6054688-8.5419922l6.9863281-2.559082     c0.9677734,2.2133789,2.3046875,3.9077148,4.0117188,5.0834961c1.7050781,1.1757813,3.6650391,1.7636719,5.8789063,1.7636719     c2.1669922,0,3.9072266-0.6572266,5.2216797-1.9711914c1.3134766-1.3139648,1.9707031-2.9394531,1.9707031-4.8759766     c0-1.5214844-0.4033203-2.7666016-1.2099609-3.7348633s-1.8554688-1.7866211-3.1474609-2.4555664     c-1.2910156-0.668457-2.7080078-1.2563477-4.2529297-1.7636719s-3.078125-1.0605469-4.5996094-1.659668     c-0.6914063-0.2768555-1.5449219-0.6689453-2.5595703-1.1757813c-1.0146484-0.5073242-1.9941406-1.2104492-2.9384766-2.109375     c-0.9453125-0.8994141-1.7529297-2.0175781-2.421875-3.3544922c-0.6679688-1.3374023-1.0019531-2.9741211-1.0019531-4.9111328     c0-2.2592773,0.3681641-4.184082,1.1064453-5.7749023c0.7373047-1.5908203,1.7402344-2.8818359,3.0087891-3.8735352     c1.2675781-0.9912109,2.7890625-1.7172852,4.5644531-2.1782227C293.2714844,64.7304688,295.1962891,64.5,297.2714844,64.5     c3.2734375,0,6.0058594,0.8530273,8.1953125,2.559082c2.1904297,1.7060547,3.8623047,4.0117188,5.0146484,6.9165039     l-6.5009766,1.9365234c-0.3691406-0.737793-0.8535156-1.40625-1.453125-2.0058594     c-0.5068359-0.5068359-1.2099609-0.9682617-2.109375-1.3833008c-0.8984375-0.4150391-1.9941406-0.6455078-3.2851563-0.6914063     c-0.8300781-0.0463867-1.6943359,0.0112305-2.59375,0.1728516c-0.8984375,0.1611328-1.6943359,0.449707-2.3857422,0.8647461     c-0.6923828,0.4150391-1.2451172,0.9794922-1.6601563,1.6943359s-0.5761719,1.6020508-0.484375,2.6625977     c0.0927734,1.4296875,0.7148438,2.5249023,1.8681641,3.2856445c1.1523438,0.7607422,2.5585938,1.4179688,4.21875,1.9711914     s3.4462891,1.1181641,5.3603516,1.6943359c1.9130859,0.5761719,3.6767578,1.40625,5.2910156,2.4897461     c1.6132813,1.0839844,2.9619141,2.5361328,4.0458984,4.3574219S312.4179688,95.2783203,312.4179688,98.3212891z" />
   </g>
  </g>
 </g>
</svg>
