<?xml version="1.0" encoding="UTF-8"?>
<svg xmlns="http://www.w3.org/2000/svg" version="1.1" width="600" height="600" viewBox="0 0 600 600">
 <defs />
 <g transform="translate(-247.48986,87.6157)">
  <path d="m 247.48986,-50.115696 c 0,-20.710004 16.79,-37.500004 37.5,-37.500004 l 525,0 c 20.71,0 37.5,16.79 37.5,37.500004 l 0,524.999996 c 0,20.71 -16.79,37.5 -37.5,37.5 l -525,0 c -20.71,0 -37.5,-16.79 -37.5,-37.5 l 0,-524.999996" style="fill:#000000;fill-opacity:1;fill-rule:nonzero;stroke:none" />
  <path d="m 324.39511,215.64184 c -4.18553,0 -23.44512,0 -23.44512,0 0,0 -4.18553,-4.23513 -3.34978,-11.00852 0,-5.92499 32.65531,-60.10517 35.16939,-78.72853 0,-8.46674 0,-21.1651 0,-32.170134 0,-11.849959 22.60937,-33.01506 25.12,-50.793489 4.18552,-12.69836 15.23917,-37.2467037 36.00512,-44.8684971 9.21022,-3.383219 11.72086,-11.8499599 13.39573,-25.3932659 5.02469,-11.853461 53.72739,-24.732638 90.43414,-31.325213 45.66242,-8.199017 94.61619,-1.693349 118.90047,1.693347 15.23915,2.030618 115.5507,60.9535774 126.4358,167.620602 2.51407,24.54833 36.00513,58.41183 46.05452,66.03014 l -0.83919,12.69838 7.53533,6.77339 c -2.51064,45.71344 -41.02639,90.58198 -65.31066,94.81359 -13.89788,2.37139 -21.97658,12.93829 -25.95574,27.09009 -4.97999,17.6915 1.39974,34.14167 16.74552,44.0201 l 10.88512,-4.23162 c 5.02469,-6.77339 33.13336,-23.24791 31.8196,-10.16009 -0.86326,8.59888 -10.04938,9.31167 -15.07407,16.08506 8.37448,11.00504 1.67834,33.01509 1.67834,33.01509 -17.58471,8.46673 -7.53877,15.24013 -7.53877,15.24013 8.37448,20.3167 29.30899,18.62334 44.37961,36.40177 8.20596,9.81932 10.02531,38.99155 10.04938,38.94006 l -462.20964,0 c 0,0 0,-7.28105 0,-7.61834 0.83918,-21.16511 97.6324,-78.39124 102.15497,-116.48637 3.5183,-30.47679 -58.61453,-39.78844 -97.96944,-42.66749 0,0 -14.5685,-2.201 -15.07063,-11.00504 -1.17278,-11.51266 3.85191,-18.62335 4.18895,-24.54832 0.50213,-7.61834 -0.83915,-27.0901 -0.83915,-27.0901 l 3.34979,-11.85343 -4.18897,-5.08004 4.18897,-14.39173 c 0,0 -0.83918,-11.00153 -6.69959,-11.00153" style="fill:#ffffff;fill-opacity:1;fill-rule:nonzero;stroke:none" />
 </g>
</svg>
