# generated by dev-env-utils/scripts/gen_vehicle_fleet.py
o p1_black
v 0.50000 -0.15000 -2.70000
v -0.50000 -0.15000 -2.70000
v -0.50000 0.25000 -2.70000
v 0.50000 0.25000 -2.70000
vt 0.501953 0.876953
vt 0.623047 0.876953
vt 0.623047 0.998047
vt 0.501953 0.998047
vn 0 0 -1
f 1/1/1 2/2/1 3/3/1 4/4/1
v -0.50000 -0.15000 6.50000
v 0.50000 -0.15000 6.50000
v 0.50000 0.25000 6.50000
v -0.50000 0.25000 6.50000
vt 0.501953 0.876953
vt 0.623047 0.876953
vt 0.623047 0.998047
vt 0.501953 0.998047
vn 0 0 1
f 5/5/2 6/6/2 7/7/2 8/8/2
v 0.50000 -0.15000 6.50000
v 0.50000 -0.15000 -2.70000
v 0.50000 0.25000 -2.70000
v 0.50000 0.25000 6.50000
vt 0.501953 0.876953
vt 0.623047 0.876953
vt 0.623047 0.998047
vt 0.501953 0.998047
vn 1 0 0
f 9/9/3 10/10/3 11/11/3 12/12/3
v -0.50000 -0.15000 -2.70000
v -0.50000 -0.15000 6.50000
v -0.50000 0.25000 6.50000
v -0.50000 0.25000 -2.70000
vt 0.501953 0.876953
vt 0.623047 0.876953
vt 0.623047 0.998047
vt 0.501953 0.998047
vn -1 0 0
f 13/13/4 14/14/4 15/15/4 16/16/4
v -0.50000 0.25000 6.50000
v 0.50000 0.25000 6.50000
v 0.50000 0.25000 -2.70000
v -0.50000 0.25000 -2.70000
vt 0.501953 0.876953
vt 0.623047 0.876953
vt 0.623047 0.998047
vt 0.501953 0.998047
vn 0 1 0
f 17/17/5 18/18/5 19/19/5 20/20/5
v -0.50000 -0.15000 -2.70000
v 0.50000 -0.15000 -2.70000
v 0.50000 -0.15000 6.50000
v -0.50000 -0.15000 6.50000
vt 0.501953 0.876953
vt 0.623047 0.876953
vt 0.623047 0.998047
vt 0.501953 0.998047
vn 0 -1 0
f 21/21/6 22/22/6 23/23/6 24/24/6
o p2_paint
v 1.15000 0.25000 4.50000
v -1.15000 0.25000 4.50000
v -1.15000 1.45000 4.50000
v 1.15000 1.45000 4.50000
vt 0.001953 0.876953
vt 0.123047 0.876953
vt 0.123047 0.998047
vt 0.001953 0.998047
vn 0 0 -1
f 25/25/7 26/26/7 27/27/7 28/28/7
v -1.15000 0.25000 6.30000
v 1.15000 0.25000 6.30000
v 1.15000 1.45000 6.30000
v -1.15000 1.45000 6.30000
vt 0.001953 0.876953
vt 0.123047 0.876953
vt 0.123047 0.998047
vt 0.001953 0.998047
vn 0 0 1
f 29/29/8 30/30/8 31/31/8 32/32/8
v 1.15000 0.25000 6.30000
v 1.15000 0.25000 4.50000
v 1.15000 1.45000 4.50000
v 1.15000 1.45000 6.30000
vt 0.001953 0.876953
vt 0.123047 0.876953
vt 0.123047 0.998047
vt 0.001953 0.998047
vn 1 0 0
f 33/33/9 34/34/9 35/35/9 36/36/9
v -1.15000 0.25000 4.50000
v -1.15000 0.25000 6.30000
v -1.15000 1.45000 6.30000
v -1.15000 1.45000 4.50000
vt 0.001953 0.876953
vt 0.123047 0.876953
vt 0.123047 0.998047
vt 0.001953 0.998047
vn -1 0 0
f 37/37/10 38/38/10 39/39/10 40/40/10
v -1.15000 1.45000 6.30000
v 1.15000 1.45000 6.30000
v 1.15000 1.45000 4.50000
v -1.15000 1.45000 4.50000
vt 0.001953 0.876953
vt 0.123047 0.876953
vt 0.123047 0.998047
vt 0.001953 0.998047
vn 0 1 0
f 41/41/11 42/42/11 43/43/11 44/44/11
v -1.15000 0.25000 4.50000
v 1.15000 0.25000 4.50000
v 1.15000 0.25000 6.30000
v -1.15000 0.25000 6.30000
vt 0.001953 0.876953
vt 0.123047 0.876953
vt 0.123047 0.998047
vt 0.001953 0.998047
vn 0 -1 0
f 45/45/12 46/46/12 47/47/12 48/48/12
o p3_paint
v 1.15000 0.25000 3.00000
v -1.15000 0.25000 3.00000
v -1.15000 2.45000 3.00000
v 1.15000 2.45000 3.00000
vt 0.001953 0.876953
vt 0.123047 0.876953
vt 0.123047 0.998047
vt 0.001953 0.998047
vn 0 0 -1
f 49/49/13 50/50/13 51/51/13 52/52/13
v -1.15000 0.25000 4.50000
v 1.15000 0.25000 4.50000
v 1.15000 2.45000 4.50000
v -1.15000 2.45000 4.50000
vt 0.001953 0.876953
vt 0.123047 0.876953
vt 0.123047 0.998047
vt 0.001953 0.998047
vn 0 0 1
f 53/53/14 54/54/14 55/55/14 56/56/14
v 1.15000 0.25000 4.50000
v 1.15000 0.25000 3.00000
v 1.15000 2.45000 3.00000
v 1.15000 2.45000 4.50000
vt 0.001953 0.876953
vt 0.123047 0.876953
vt 0.123047 0.998047
vt 0.001953 0.998047
vn 1 0 0
f 57/57/15 58/58/15 59/59/15 60/60/15
v -1.15000 0.25000 3.00000
v -1.15000 0.25000 4.50000
v -1.15000 2.45000 4.50000
v -1.15000 2.45000 3.00000
vt 0.001953 0.876953
vt 0.123047 0.876953
vt 0.123047 0.998047
vt 0.001953 0.998047
vn -1 0 0
f 61/61/16 62/62/16 63/63/16 64/64/16
v -1.15000 2.45000 4.50000
v 1.15000 2.45000 4.50000
v 1.15000 2.45000 3.00000
v -1.15000 2.45000 3.00000
vt 0.001953 0.876953
vt 0.123047 0.876953
vt 0.123047 0.998047
vt 0.001953 0.998047
vn 0 1 0
f 65/65/17 66/66/17 67/67/17 68/68/17
v -1.15000 0.25000 3.00000
v 1.15000 0.25000 3.00000
v 1.15000 0.25000 4.50000
v -1.15000 0.25000 4.50000
vt 0.001953 0.876953
vt 0.123047 0.876953
vt 0.123047 0.998047
vt 0.001953 0.998047
vn 0 -1 0
f 69/69/18 70/70/18 71/71/18 72/72/18
o p4_paint2
v 1.10000 2.45000 3.05000
v -1.10000 2.45000 3.05000
v -1.10000 2.50000 3.05000
v 1.10000 2.50000 3.05000
vt 0.126953 0.876953
vt 0.248047 0.876953
vt 0.248047 0.998047
vt 0.126953 0.998047
vn 0 0 -1
f 73/73/19 74/74/19 75/75/19 76/76/19
v -1.10000 2.45000 4.45000
v 1.10000 2.45000 4.45000
v 1.10000 2.50000 4.45000
v -1.10000 2.50000 4.45000
vt 0.126953 0.876953
vt 0.248047 0.876953
vt 0.248047 0.998047
vt 0.126953 0.998047
vn 0 0 1
f 77/77/20 78/78/20 79/79/20 80/80/20
v 1.10000 2.45000 4.45000
v 1.10000 2.45000 3.05000
v 1.10000 2.50000 3.05000
v 1.10000 2.50000 4.45000
vt 0.126953 0.876953
vt 0.248047 0.876953
vt 0.248047 0.998047
vt 0.126953 0.998047
vn 1 0 0
f 81/81/21 82/82/21 83/83/21 84/84/21
v -1.10000 2.45000 3.05000
v -1.10000 2.45000 4.45000
v -1.10000 2.50000 4.45000
v -1.10000 2.50000 3.05000
vt 0.126953 0.876953
vt 0.248047 0.876953
vt 0.248047 0.998047
vt 0.126953 0.998047
vn -1 0 0
f 85/85/22 86/86/22 87/87/22 88/88/22
v -1.10000 2.50000 4.45000
v 1.10000 2.50000 4.45000
v 1.10000 2.50000 3.05000
v -1.10000 2.50000 3.05000
vt 0.126953 0.876953
vt 0.248047 0.876953
vt 0.248047 0.998047
vt 0.126953 0.998047
vn 0 1 0
f 89/89/23 90/90/23 91/91/23 92/92/23
v -1.10000 2.45000 3.05000
v 1.10000 2.45000 3.05000
v 1.10000 2.45000 4.45000
v -1.10000 2.45000 4.45000
vt 0.126953 0.876953
vt 0.248047 0.876953
vt 0.248047 0.998047
vt 0.126953 0.998047
vn 0 -1 0
f 93/93/24 94/94/24 95/95/24 96/96/24
o p5_glass
v -1.05000 1.50000 4.52000
v 1.05000 1.50000 4.52000
v 1.05000 2.35000 4.52000
v -1.05000 2.35000 4.52000
vt 0.626953 0.876953
vt 0.748047 0.876953
vt 0.748047 0.998047
vt 0.626953 0.998047
vn 0 0 1
f 97/97/25 98/98/25 99/99/25 100/100/25
o p6_glass
v 1.17000 1.50000 3.20000
v 1.15000 1.50000 3.20000
v 1.15000 2.30000 3.20000
v 1.17000 2.30000 3.20000
vt 0.626953 0.876953
vt 0.748047 0.876953
vt 0.748047 0.998047
vt 0.626953 0.998047
vn 0 0 -1
f 101/101/26 102/102/26 103/103/26 104/104/26
v 1.15000 1.50000 4.35000
v 1.17000 1.50000 4.35000
v 1.17000 2.30000 4.35000
v 1.15000 2.30000 4.35000
vt 0.626953 0.876953
vt 0.748047 0.876953
vt 0.748047 0.998047
vt 0.626953 0.998047
vn 0 0 1
f 105/105/27 106/106/27 107/107/27 108/108/27
v 1.17000 1.50000 4.35000
v 1.17000 1.50000 3.20000
v 1.17000 2.30000 3.20000
v 1.17000 2.30000 4.35000
vt 0.626953 0.876953
vt 0.748047 0.876953
vt 0.748047 0.998047
vt 0.626953 0.998047
vn 1 0 0
f 109/109/28 110/110/28 111/111/28 112/112/28
v 1.15000 1.50000 3.20000
v 1.15000 1.50000 4.35000
v 1.15000 2.30000 4.35000
v 1.15000 2.30000 3.20000
vt 0.626953 0.876953
vt 0.748047 0.876953
vt 0.748047 0.998047
vt 0.626953 0.998047
vn -1 0 0
f 113/113/29 114/114/29 115/115/29 116/116/29
v 1.15000 2.30000 4.35000
v 1.17000 2.30000 4.35000
v 1.17000 2.30000 3.20000
v 1.15000 2.30000 3.20000
vt 0.626953 0.876953
vt 0.748047 0.876953
vt 0.748047 0.998047
vt 0.626953 0.998047
vn 0 1 0
f 117/117/30 118/118/30 119/119/30 120/120/30
v 1.15000 1.50000 3.20000
v 1.17000 1.50000 3.20000
v 1.17000 1.50000 4.35000
v 1.15000 1.50000 4.35000
vt 0.626953 0.876953
vt 0.748047 0.876953
vt 0.748047 0.998047
vt 0.626953 0.998047
vn 0 -1 0
f 121/121/31 122/122/31 123/123/31 124/124/31
o p7_glass
v -1.15000 1.50000 3.20000
v -1.17000 1.50000 3.20000
v -1.17000 2.30000 3.20000
v -1.15000 2.30000 3.20000
vt 0.626953 0.876953
vt 0.748047 0.876953
vt 0.748047 0.998047
vt 0.626953 0.998047
vn 0 0 -1
f 125/125/32 126/126/32 127/127/32 128/128/32
v -1.17000 1.50000 4.35000
v -1.15000 1.50000 4.35000
v -1.15000 2.30000 4.35000
v -1.17000 2.30000 4.35000
vt 0.626953 0.876953
vt 0.748047 0.876953
vt 0.748047 0.998047
vt 0.626953 0.998047
vn 0 0 1
f 129/129/33 130/130/33 131/131/33 132/132/33
v -1.15000 1.50000 4.35000
v -1.15000 1.50000 3.20000
v -1.15000 2.30000 3.20000
v -1.15000 2.30000 4.35000
vt 0.626953 0.876953
vt 0.748047 0.876953
vt 0.748047 0.998047
vt 0.626953 0.998047
vn 1 0 0
f 133/133/34 134/134/34 135/135/34 136/136/34
v -1.17000 1.50000 3.20000
v -1.17000 1.50000 4.35000
v -1.17000 2.30000 4.35000
v -1.17000 2.30000 3.20000
vt 0.626953 0.876953
vt 0.748047 0.876953
vt 0.748047 0.998047
vt 0.626953 0.998047
vn -1 0 0
f 137/137/35 138/138/35 139/139/35 140/140/35
v -1.17000 2.30000 4.35000
v -1.15000 2.30000 4.35000
v -1.15000 2.30000 3.20000
v -1.17000 2.30000 3.20000
vt 0.626953 0.876953
vt 0.748047 0.876953
vt 0.748047 0.998047
vt 0.626953 0.998047
vn 0 1 0
f 141/141/36 142/142/36 143/143/36 144/144/36
v -1.17000 1.50000 3.20000
v -1.15000 1.50000 3.20000
v -1.15000 1.50000 4.35000
v -1.17000 1.50000 4.35000
vt 0.626953 0.876953
vt 0.748047 0.876953
vt 0.748047 0.998047
vt 0.626953 0.998047
vn 0 -1 0
f 145/145/37 146/146/37 147/147/37 148/148/37
o p8_decal
v 1.17500 0.55000 4.30000
v 1.17500 0.55000 3.25000
v 1.17500 0.95000 3.25000
v 1.17500 0.95000 4.30000
vt 0.001953 0.626953
vt 0.498047 0.626953
vt 0.498047 0.748047
vt 0.001953 0.748047
vn 1 0 0
f 149/149/38 150/150/38 151/151/38 152/152/38
v 1.15000 0.55000 3.25000
v 1.15000 0.55000 4.30000
v 1.15000 0.95000 4.30000
v 1.15000 0.95000 3.25000
vt 0.001953 0.626953
vt 0.498047 0.626953
vt 0.498047 0.748047
vt 0.001953 0.748047
vn -1 0 0
f 153/153/39 154/154/39 155/155/39 156/156/39
o p9_decal
v -1.15000 0.55000 4.30000
v -1.15000 0.55000 3.25000
v -1.15000 0.95000 3.25000
v -1.15000 0.95000 4.30000
vt 0.001953 0.626953
vt 0.498047 0.626953
vt 0.498047 0.748047
vt 0.001953 0.748047
vn 1 0 0
f 157/157/40 158/158/40 159/159/40 160/160/40
v -1.17500 0.55000 3.25000
v -1.17500 0.55000 4.30000
v -1.17500 0.95000 4.30000
v -1.17500 0.95000 3.25000
vt 0.001953 0.626953
vt 0.498047 0.626953
vt 0.498047 0.748047
vt 0.001953 0.748047
vn -1 0 0
f 161/161/41 162/162/41 163/163/41 164/164/41
o p10_grille
v -0.70000 0.40000 6.33000
v 0.70000 0.40000 6.33000
v 0.70000 1.35000 6.33000
v -0.70000 1.35000 6.33000
vt 0.001953 0.751953
vt 0.123047 0.751953
vt 0.123047 0.873047
vt 0.001953 0.873047
vn 0 0 1
f 165/165/42 166/166/42 167/167/42 168/168/42
o p11_chrome
v 1.20000 -0.05000 6.30000
v -1.20000 -0.05000 6.30000
v -1.20000 0.30000 6.30000
v 1.20000 0.30000 6.30000
vt 0.376953 0.876953
vt 0.498047 0.876953
vt 0.498047 0.998047
vt 0.376953 0.998047
vn 0 0 -1
f 169/169/43 170/170/43 171/171/43 172/172/43
v -1.20000 -0.05000 6.55000
v 1.20000 -0.05000 6.55000
v 1.20000 0.30000 6.55000
v -1.20000 0.30000 6.55000
vt 0.376953 0.876953
vt 0.498047 0.876953
vt 0.498047 0.998047
vt 0.376953 0.998047
vn 0 0 1
f 173/173/44 174/174/44 175/175/44 176/176/44
v 1.20000 -0.05000 6.55000
v 1.20000 -0.05000 6.30000
v 1.20000 0.30000 6.30000
v 1.20000 0.30000 6.55000
vt 0.376953 0.876953
vt 0.498047 0.876953
vt 0.498047 0.998047
vt 0.376953 0.998047
vn 1 0 0
f 177/177/45 178/178/45 179/179/45 180/180/45
v -1.20000 -0.05000 6.30000
v -1.20000 -0.05000 6.55000
v -1.20000 0.30000 6.55000
v -1.20000 0.30000 6.30000
vt 0.376953 0.876953
vt 0.498047 0.876953
vt 0.498047 0.998047
vt 0.376953 0.998047
vn -1 0 0
f 181/181/46 182/182/46 183/183/46 184/184/46
v -1.20000 0.30000 6.55000
v 1.20000 0.30000 6.55000
v 1.20000 0.30000 6.30000
v -1.20000 0.30000 6.30000
vt 0.376953 0.876953
vt 0.498047 0.876953
vt 0.498047 0.998047
vt 0.376953 0.998047
vn 0 1 0
f 185/185/47 186/186/47 187/187/47 188/188/47
v -1.20000 -0.05000 6.30000
v 1.20000 -0.05000 6.30000
v 1.20000 -0.05000 6.55000
v -1.20000 -0.05000 6.55000
vt 0.376953 0.876953
vt 0.498047 0.876953
vt 0.498047 0.998047
vt 0.376953 0.998047
vn 0 -1 0
f 189/189/48 190/190/48 191/191/48 192/192/48
o p12_black
v 1.27000 0.30000 4.70000
v 1.15000 0.30000 4.70000
v 1.15000 0.90000 4.70000
v 1.27000 0.90000 4.70000
vt 0.501953 0.876953
vt 0.623047 0.876953
vt 0.623047 0.998047
vt 0.501953 0.998047
vn 0 0 -1
f 193/193/49 194/194/49 195/195/49 196/196/49
v 1.15000 0.30000 6.00000
v 1.27000 0.30000 6.00000
v 1.27000 0.90000 6.00000
v 1.15000 0.90000 6.00000
vt 0.501953 0.876953
vt 0.623047 0.876953
vt 0.623047 0.998047
vt 0.501953 0.998047
vn 0 0 1
f 197/197/50 198/198/50 199/199/50 200/200/50
v 1.27000 0.30000 6.00000
v 1.27000 0.30000 4.70000
v 1.27000 0.90000 4.70000
v 1.27000 0.90000 6.00000
vt 0.501953 0.876953
vt 0.623047 0.876953
vt 0.623047 0.998047
vt 0.501953 0.998047
vn 1 0 0
f 201/201/51 202/202/51 203/203/51 204/204/51
v 1.15000 0.30000 4.70000
v 1.15000 0.30000 6.00000
v 1.15000 0.90000 6.00000
v 1.15000 0.90000 4.70000
vt 0.501953 0.876953
vt 0.623047 0.876953
vt 0.623047 0.998047
vt 0.501953 0.998047
vn -1 0 0
f 205/205/52 206/206/52 207/207/52 208/208/52
v 1.15000 0.90000 6.00000
v 1.27000 0.90000 6.00000
v 1.27000 0.90000 4.70000
v 1.15000 0.90000 4.70000
vt 0.501953 0.876953
vt 0.623047 0.876953
vt 0.623047 0.998047
vt 0.501953 0.998047
vn 0 1 0
f 209/209/53 210/210/53 211/211/53 212/212/53
v 1.15000 0.30000 4.70000
v 1.27000 0.30000 4.70000
v 1.27000 0.30000 6.00000
v 1.15000 0.30000 6.00000
vt 0.501953 0.876953
vt 0.623047 0.876953
vt 0.623047 0.998047
vt 0.501953 0.998047
vn 0 -1 0
f 213/213/54 214/214/54 215/215/54 216/216/54
o p13_black
v -1.15000 0.30000 4.70000
v -1.27000 0.30000 4.70000
v -1.27000 0.90000 4.70000
v -1.15000 0.90000 4.70000
vt 0.501953 0.876953
vt 0.623047 0.876953
vt 0.623047 0.998047
vt 0.501953 0.998047
vn 0 0 -1
f 217/217/55 218/218/55 219/219/55 220/220/55
v -1.27000 0.30000 6.00000
v -1.15000 0.30000 6.00000
v -1.15000 0.90000 6.00000
v -1.27000 0.90000 6.00000
vt 0.501953 0.876953
vt 0.623047 0.876953
vt 0.623047 0.998047
vt 0.501953 0.998047
vn 0 0 1
f 221/221/56 222/222/56 223/223/56 224/224/56
v -1.15000 0.30000 6.00000
v -1.15000 0.30000 4.70000
v -1.15000 0.90000 4.70000
v -1.15000 0.90000 6.00000
vt 0.501953 0.876953
vt 0.623047 0.876953
vt 0.623047 0.998047
vt 0.501953 0.998047
vn 1 0 0
f 225/225/57 226/226/57 227/227/57 228/228/57
v -1.27000 0.30000 4.70000
v -1.27000 0.30000 6.00000
v -1.27000 0.90000 6.00000
v -1.27000 0.90000 4.70000
vt 0.501953 0.876953
vt 0.623047 0.876953
vt 0.623047 0.998047
vt 0.501953 0.998047
vn -1 0 0
f 229/229/58 230/230/58 231/231/58 232/232/58
v -1.27000 0.90000 6.00000
v -1.15000 0.90000 6.00000
v -1.15000 0.90000 4.70000
v -1.27000 0.90000 4.70000
vt 0.501953 0.876953
vt 0.623047 0.876953
vt 0.623047 0.998047
vt 0.501953 0.998047
vn 0 1 0
f 233/233/59 234/234/59 235/235/59 236/236/59
v -1.27000 0.30000 4.70000
v -1.15000 0.30000 4.70000
v -1.15000 0.30000 6.00000
v -1.27000 0.30000 6.00000
vt 0.501953 0.876953
vt 0.623047 0.876953
vt 0.623047 0.998047
vt 0.501953 0.998047
vn 0 -1 0
f 237/237/60 238/238/60 239/239/60 240/240/60
o p14_chrome
v 1.40000 1.85000 4.40000
v 1.15000 1.85000 4.40000
v 1.15000 2.25000 4.40000
v 1.40000 2.25000 4.40000
vt 0.376953 0.876953
vt 0.498047 0.876953
vt 0.498047 0.998047
vt 0.376953 0.998047
vn 0 0 -1
f 241/241/61 242/242/61 243/243/61 244/244/61
v 1.15000 1.85000 4.50000
v 1.40000 1.85000 4.50000
v 1.40000 2.25000 4.50000
v 1.15000 2.25000 4.50000
vt 0.376953 0.876953
vt 0.498047 0.876953
vt 0.498047 0.998047
vt 0.376953 0.998047
vn 0 0 1
f 245/245/62 246/246/62 247/247/62 248/248/62
v 1.40000 1.85000 4.50000
v 1.40000 1.85000 4.40000
v 1.40000 2.25000 4.40000
v 1.40000 2.25000 4.50000
vt 0.376953 0.876953
vt 0.498047 0.876953
vt 0.498047 0.998047
vt 0.376953 0.998047
vn 1 0 0
f 249/249/63 250/250/63 251/251/63 252/252/63
v 1.15000 1.85000 4.40000
v 1.15000 1.85000 4.50000
v 1.15000 2.25000 4.50000
v 1.15000 2.25000 4.40000
vt 0.376953 0.876953
vt 0.498047 0.876953
vt 0.498047 0.998047
vt 0.376953 0.998047
vn -1 0 0
f 253/253/64 254/254/64 255/255/64 256/256/64
v 1.15000 2.25000 4.50000
v 1.40000 2.25000 4.50000
v 1.40000 2.25000 4.40000
v 1.15000 2.25000 4.40000
vt 0.376953 0.876953
vt 0.498047 0.876953
vt 0.498047 0.998047
vt 0.376953 0.998047
vn 0 1 0
f 257/257/65 258/258/65 259/259/65 260/260/65
v 1.15000 1.85000 4.40000
v 1.40000 1.85000 4.40000
v 1.40000 1.85000 4.50000
v 1.15000 1.85000 4.50000
vt 0.376953 0.876953
vt 0.498047 0.876953
vt 0.498047 0.998047
vt 0.376953 0.998047
vn 0 -1 0
f 261/261/66 262/262/66 263/263/66 264/264/66
o p15_chrome
v -1.15000 1.85000 4.40000
v -1.40000 1.85000 4.40000
v -1.40000 2.25000 4.40000
v -1.15000 2.25000 4.40000
vt 0.376953 0.876953
vt 0.498047 0.876953
vt 0.498047 0.998047
vt 0.376953 0.998047
vn 0 0 -1
f 265/265/67 266/266/67 267/267/67 268/268/67
v -1.40000 1.85000 4.50000
v -1.15000 1.85000 4.50000
v -1.15000 2.25000 4.50000
v -1.40000 2.25000 4.50000
vt 0.376953 0.876953
vt 0.498047 0.876953
vt 0.498047 0.998047
vt 0.376953 0.998047
vn 0 0 1
f 269/269/68 270/270/68 271/271/68 272/272/68
v -1.15000 1.85000 4.50000
v -1.15000 1.85000 4.40000
v -1.15000 2.25000 4.40000
v -1.15000 2.25000 4.50000
vt 0.376953 0.876953
vt 0.498047 0.876953
vt 0.498047 0.998047
vt 0.376953 0.998047
vn 1 0 0
f 273/273/69 274/274/69 275/275/69 276/276/69
v -1.40000 1.85000 4.40000
v -1.40000 1.85000 4.50000
v -1.40000 2.25000 4.50000
v -1.40000 2.25000 4.40000
vt 0.376953 0.876953
vt 0.498047 0.876953
vt 0.498047 0.998047
vt 0.376953 0.998047
vn -1 0 0
f 277/277/70 278/278/70 279/279/70 280/280/70
v -1.40000 2.25000 4.50000
v -1.15000 2.25000 4.50000
v -1.15000 2.25000 4.40000
v -1.40000 2.25000 4.40000
vt 0.376953 0.876953
vt 0.498047 0.876953
vt 0.498047 0.998047
vt 0.376953 0.998047
vn 0 1 0
f 281/281/71 282/282/71 283/283/71 284/284/71
v -1.40000 1.85000 4.40000
v -1.15000 1.85000 4.40000
v -1.15000 1.85000 4.50000
v -1.40000 1.85000 4.50000
vt 0.376953 0.876953
vt 0.498047 0.876953
vt 0.498047 0.998047
vt 0.376953 0.998047
vn 0 -1 0
f 285/285/72 286/286/72 287/287/72 288/288/72
o p16_black
v 0.50000 0.25000 2.40000
v -0.50000 0.25000 2.40000
v -0.50000 0.95000 2.40000
v 0.50000 0.95000 2.40000
vt 0.501953 0.876953
vt 0.623047 0.876953
vt 0.623047 0.998047
vt 0.501953 0.998047
vn 0 0 -1
f 289/289/73 290/290/73 291/291/73 292/292/73
v -0.50000 0.25000 3.00000
v 0.50000 0.25000 3.00000
v 0.50000 0.95000 3.00000
v -0.50000 0.95000 3.00000
vt 0.501953 0.876953
vt 0.623047 0.876953
vt 0.623047 0.998047
vt 0.501953 0.998047
vn 0 0 1
f 293/293/74 294/294/74 295/295/74 296/296/74
v 0.50000 0.25000 3.00000
v 0.50000 0.25000 2.40000
v 0.50000 0.95000 2.40000
v 0.50000 0.95000 3.00000
vt 0.501953 0.876953
vt 0.623047 0.876953
vt 0.623047 0.998047
vt 0.501953 0.998047
vn 1 0 0
f 297/297/75 298/298/75 299/299/75 300/300/75
v -0.50000 0.25000 2.40000
v -0.50000 0.25000 3.00000
v -0.50000 0.95000 3.00000
v -0.50000 0.95000 2.40000
vt 0.501953 0.876953
vt 0.623047 0.876953
vt 0.623047 0.998047
vt 0.501953 0.998047
vn -1 0 0
f 301/301/76 302/302/76 303/303/76 304/304/76
v -0.50000 0.95000 3.00000
v 0.50000 0.95000 3.00000
v 0.50000 0.95000 2.40000
v -0.50000 0.95000 2.40000
vt 0.501953 0.876953
vt 0.623047 0.876953
vt 0.623047 0.998047
vt 0.501953 0.998047
vn 0 1 0
f 305/305/77 306/306/77 307/307/77 308/308/77
v -0.50000 0.25000 2.40000
v 0.50000 0.25000 2.40000
v 0.50000 0.25000 3.00000
v -0.50000 0.25000 3.00000
vt 0.501953 0.876953
vt 0.623047 0.876953
vt 0.623047 0.998047
vt 0.501953 0.998047
vn 0 -1 0
f 309/309/78 310/310/78 311/311/78 312/312/78
o p17_black
v 0.30000 0.00000 6.55000
v -0.30000 0.00000 6.55000
v -0.30000 0.40000 6.55000
v 0.30000 0.40000 6.55000
vt 0.501953 0.876953
vt 0.623047 0.876953
vt 0.623047 0.998047
vt 0.501953 0.998047
vn 0 0 -1
f 313/313/79 314/314/79 315/315/79 316/316/79
v -0.30000 0.00000 6.75000
v 0.30000 0.00000 6.75000
v 0.30000 0.40000 6.75000
v -0.30000 0.40000 6.75000
vt 0.501953 0.876953
vt 0.623047 0.876953
vt 0.623047 0.998047
vt 0.501953 0.998047
vn 0 0 1
f 317/317/80 318/318/80 319/319/80 320/320/80
v 0.30000 0.00000 6.75000
v 0.30000 0.00000 6.55000
v 0.30000 0.40000 6.55000
v 0.30000 0.40000 6.75000
vt 0.501953 0.876953
vt 0.623047 0.876953
vt 0.623047 0.998047
vt 0.501953 0.998047
vn 1 0 0
f 321/321/81 322/322/81 323/323/81 324/324/81
v -0.30000 0.00000 6.55000
v -0.30000 0.00000 6.75000
v -0.30000 0.40000 6.75000
v -0.30000 0.40000 6.55000
vt 0.501953 0.876953
vt 0.623047 0.876953
vt 0.623047 0.998047
vt 0.501953 0.998047
vn -1 0 0
f 325/325/82 326/326/82 327/327/82 328/328/82
v -0.30000 0.40000 6.75000
v 0.30000 0.40000 6.75000
v 0.30000 0.40000 6.55000
v -0.30000 0.40000 6.55000
vt 0.501953 0.876953
vt 0.623047 0.876953
vt 0.623047 0.998047
vt 0.501953 0.998047
vn 0 1 0
f 329/329/83 330/330/83 331/331/83 332/332/83
v -0.30000 0.00000 6.55000
v 0.30000 0.00000 6.55000
v 0.30000 0.00000 6.75000
v -0.30000 0.00000 6.75000
vt 0.501953 0.876953
vt 0.623047 0.876953
vt 0.623047 0.998047
vt 0.501953 0.998047
vn 0 -1 0
f 333/333/84 334/334/84 335/335/84 336/336/84
o p18_blade
v 1.55000 -0.45000 6.75000
v -1.55000 -0.45000 6.75000
v -1.55000 0.55000 6.75000
v 1.55000 0.55000 6.75000
vt 0.376953 0.501953
vt 0.498047 0.501953
vt 0.498047 0.623047
vt 0.376953 0.623047
vn 0 0 -1
f 337/337/85 338/338/85 339/339/85 340/340/85
v -1.55000 -0.45000 6.95000
v 1.55000 -0.45000 6.95000
v 1.55000 0.55000 6.95000
v -1.55000 0.55000 6.95000
vt 0.376953 0.501953
vt 0.498047 0.501953
vt 0.498047 0.623047
vt 0.376953 0.623047
vn 0 0 1
f 341/341/86 342/342/86 343/343/86 344/344/86
v 1.55000 -0.45000 6.95000
v 1.55000 -0.45000 6.75000
v 1.55000 0.55000 6.75000
v 1.55000 0.55000 6.95000
vt 0.376953 0.501953
vt 0.498047 0.501953
vt 0.498047 0.623047
vt 0.376953 0.623047
vn 1 0 0
f 345/345/87 346/346/87 347/347/87 348/348/87
v -1.55000 -0.45000 6.75000
v -1.55000 -0.45000 6.95000
v -1.55000 0.55000 6.95000
v -1.55000 0.55000 6.75000
vt 0.376953 0.501953
vt 0.498047 0.501953
vt 0.498047 0.623047
vt 0.376953 0.623047
vn -1 0 0
f 349/349/88 350/350/88 351/351/88 352/352/88
v -1.55000 0.55000 6.95000
v 1.55000 0.55000 6.95000
v 1.55000 0.55000 6.75000
v -1.55000 0.55000 6.75000
vt 0.376953 0.501953
vt 0.498047 0.501953
vt 0.498047 0.623047
vt 0.376953 0.623047
vn 0 1 0
f 353/353/89 354/354/89 355/355/89 356/356/89
v -1.55000 -0.45000 6.75000
v 1.55000 -0.45000 6.75000
v 1.55000 -0.45000 6.95000
v -1.55000 -0.45000 6.95000
vt 0.376953 0.501953
vt 0.498047 0.501953
vt 0.498047 0.623047
vt 0.376953 0.623047
vn 0 -1 0
f 357/357/90 358/358/90 359/359/90 360/360/90
o dump_body
v 1.25000 0.95000 -2.50000
v -1.25000 0.95000 -2.50000
v -1.25000 1.05000 -2.50000
v 1.25000 1.05000 -2.50000
vt 0.126953 0.501953
vt 0.248047 0.501953
vt 0.248047 0.623047
vt 0.126953 0.623047
vn 0 0 -1
f 361/361/91 362/362/91 363/363/91 364/364/91
v -1.25000 0.95000 2.55000
v 1.25000 0.95000 2.55000
v 1.25000 1.05000 2.55000
v -1.25000 1.05000 2.55000
vt 0.126953 0.501953
vt 0.248047 0.501953
vt 0.248047 0.623047
vt 0.126953 0.623047
vn 0 0 1
f 365/365/92 366/366/92 367/367/92 368/368/92
v 1.25000 0.95000 2.55000
v 1.25000 0.95000 -2.50000
v 1.25000 1.05000 -2.50000
v 1.25000 1.05000 2.55000
vt 0.126953 0.501953
vt 0.248047 0.501953
vt 0.248047 0.623047
vt 0.126953 0.623047
vn 1 0 0
f 369/369/93 370/370/93 371/371/93 372/372/93
v -1.25000 0.95000 -2.50000
v -1.25000 0.95000 2.55000
v -1.25000 1.05000 2.55000
v -1.25000 1.05000 -2.50000
vt 0.126953 0.501953
vt 0.248047 0.501953
vt 0.248047 0.623047
vt 0.126953 0.623047
vn -1 0 0
f 373/373/94 374/374/94 375/375/94 376/376/94
v -1.25000 1.05000 2.55000
v 1.25000 1.05000 2.55000
v 1.25000 1.05000 -2.50000
v -1.25000 1.05000 -2.50000
vt 0.126953 0.501953
vt 0.248047 0.501953
vt 0.248047 0.623047
vt 0.126953 0.623047
vn 0 1 0
f 377/377/95 378/378/95 379/379/95 380/380/95
v -1.25000 0.95000 -2.50000
v 1.25000 0.95000 -2.50000
v 1.25000 0.95000 2.55000
v -1.25000 0.95000 2.55000
vt 0.126953 0.501953
vt 0.248047 0.501953
vt 0.248047 0.623047
vt 0.126953 0.623047
vn 0 -1 0
f 381/381/96 382/382/96 383/383/96 384/384/96
v 1.25000 1.05000 -2.50000
v 1.17000 1.05000 -2.50000
v 1.17000 2.10000 -2.50000
v 1.25000 2.10000 -2.50000
vt 0.001953 0.876953
vt 0.123047 0.876953
vt 0.123047 0.998047
vt 0.001953 0.998047
vn 0 0 -1
f 385/385/97 386/386/97 387/387/97 388/388/97
v 1.17000 1.05000 2.55000
v 1.25000 1.05000 2.55000
v 1.25000 2.10000 2.55000
v 1.17000 2.10000 2.55000
vt 0.001953 0.876953
vt 0.123047 0.876953
vt 0.123047 0.998047
vt 0.001953 0.998047
vn 0 0 1
f 389/389/98 390/390/98 391/391/98 392/392/98
v 1.25000 1.05000 2.55000
v 1.25000 1.05000 -2.50000
v 1.25000 2.10000 -2.50000
v 1.25000 2.10000 2.55000
vt 0.001953 0.876953
vt 0.123047 0.876953
vt 0.123047 0.998047
vt 0.001953 0.998047
vn 1 0 0
f 393/393/99 394/394/99 395/395/99 396/396/99
v 1.17000 1.05000 -2.50000
v 1.17000 1.05000 2.55000
v 1.17000 2.10000 2.55000
v 1.17000 2.10000 -2.50000
vt 0.001953 0.876953
vt 0.123047 0.876953
vt 0.123047 0.998047
vt 0.001953 0.998047
vn -1 0 0
f 397/397/100 398/398/100 399/399/100 400/400/100
v 1.17000 2.10000 2.55000
v 1.25000 2.10000 2.55000
v 1.25000 2.10000 -2.50000
v 1.17000 2.10000 -2.50000
vt 0.001953 0.876953
vt 0.123047 0.876953
vt 0.123047 0.998047
vt 0.001953 0.998047
vn 0 1 0
f 401/401/101 402/402/101 403/403/101 404/404/101
v 1.17000 1.05000 -2.50000
v 1.25000 1.05000 -2.50000
v 1.25000 1.05000 2.55000
v 1.17000 1.05000 2.55000
vt 0.001953 0.876953
vt 0.123047 0.876953
vt 0.123047 0.998047
vt 0.001953 0.998047
vn 0 -1 0
f 405/405/102 406/406/102 407/407/102 408/408/102
v -1.17000 1.05000 -2.50000
v -1.25000 1.05000 -2.50000
v -1.25000 2.10000 -2.50000
v -1.17000 2.10000 -2.50000
vt 0.001953 0.876953
vt 0.123047 0.876953
vt 0.123047 0.998047
vt 0.001953 0.998047
vn 0 0 -1
f 409/409/103 410/410/103 411/411/103 412/412/103
v -1.25000 1.05000 2.55000
v -1.17000 1.05000 2.55000
v -1.17000 2.10000 2.55000
v -1.25000 2.10000 2.55000
vt 0.001953 0.876953
vt 0.123047 0.876953
vt 0.123047 0.998047
vt 0.001953 0.998047
vn 0 0 1
f 413/413/104 414/414/104 415/415/104 416/416/104
v -1.17000 1.05000 2.55000
v -1.17000 1.05000 -2.50000
v -1.17000 2.10000 -2.50000
v -1.17000 2.10000 2.55000
vt 0.001953 0.876953
vt 0.123047 0.876953
vt 0.123047 0.998047
vt 0.001953 0.998047
vn 1 0 0
f 417/417/105 418/418/105 419/419/105 420/420/105
v -1.25000 1.05000 -2.50000
v -1.25000 1.05000 2.55000
v -1.25000 2.10000 2.55000
v -1.25000 2.10000 -2.50000
vt 0.001953 0.876953
vt 0.123047 0.876953
vt 0.123047 0.998047
vt 0.001953 0.998047
vn -1 0 0
f 421/421/106 422/422/106 423/423/106 424/424/106
v -1.25000 2.10000 2.55000
v -1.17000 2.10000 2.55000
v -1.17000 2.10000 -2.50000
v -1.25000 2.10000 -2.50000
vt 0.001953 0.876953
vt 0.123047 0.876953
vt 0.123047 0.998047
vt 0.001953 0.998047
vn 0 1 0
f 425/425/107 426/426/107 427/427/107 428/428/107
v -1.25000 1.05000 -2.50000
v -1.17000 1.05000 -2.50000
v -1.17000 1.05000 2.55000
v -1.25000 1.05000 2.55000
vt 0.001953 0.876953
vt 0.123047 0.876953
vt 0.123047 0.998047
vt 0.001953 0.998047
vn 0 -1 0
f 429/429/108 430/430/108 431/431/108 432/432/108
v 1.25000 1.05000 2.50000
v -1.25000 1.05000 2.50000
v -1.25000 2.45000 2.50000
v 1.25000 2.45000 2.50000
vt 0.001953 0.876953
vt 0.123047 0.876953
vt 0.123047 0.998047
vt 0.001953 0.998047
vn 0 0 -1
f 433/433/109 434/434/109 435/435/109 436/436/109
v -1.25000 1.05000 2.60000
v 1.25000 1.05000 2.60000
v 1.25000 2.45000 2.60000
v -1.25000 2.45000 2.60000
vt 0.001953 0.876953
vt 0.123047 0.876953
vt 0.123047 0.998047
vt 0.001953 0.998047
vn 0 0 1
f 437/437/110 438/438/110 439/439/110 440/440/110
v 1.25000 1.05000 2.60000
v 1.25000 1.05000 2.50000
v 1.25000 2.45000 2.50000
v 1.25000 2.45000 2.60000
vt 0.001953 0.876953
vt 0.123047 0.876953
vt 0.123047 0.998047
vt 0.001953 0.998047
vn 1 0 0
f 441/441/111 442/442/111 443/443/111 444/444/111
v -1.25000 1.05000 2.50000
v -1.25000 1.05000 2.60000
v -1.25000 2.45000 2.60000
v -1.25000 2.45000 2.50000
vt 0.001953 0.876953
vt 0.123047 0.876953
vt 0.123047 0.998047
vt 0.001953 0.998047
vn -1 0 0
f 445/445/112 446/446/112 447/447/112 448/448/112
v -1.25000 2.45000 2.60000
v 1.25000 2.45000 2.60000
v 1.25000 2.45000 2.50000
v -1.25000 2.45000 2.50000
vt 0.001953 0.876953
vt 0.123047 0.876953
vt 0.123047 0.998047
vt 0.001953 0.998047
vn 0 1 0
f 449/449/113 450/450/113 451/451/113 452/452/113
v -1.25000 1.05000 2.50000
v 1.25000 1.05000 2.50000
v 1.25000 1.05000 2.60000
v -1.25000 1.05000 2.60000
vt 0.001953 0.876953
vt 0.123047 0.876953
vt 0.123047 0.998047
vt 0.001953 0.998047
vn 0 -1 0
f 453/453/114 454/454/114 455/455/114 456/456/114
v 1.25000 2.35000 2.60000
v -1.25000 2.35000 2.60000
v -1.25000 2.45000 2.60000
v 1.25000 2.45000 2.60000
vt 0.001953 0.876953
vt 0.123047 0.876953
vt 0.123047 0.998047
vt 0.001953 0.998047
vn 0 0 -1
f 457/457/115 458/458/115 459/459/115 460/460/115
v -1.25000 2.35000 2.95000
v 1.25000 2.35000 2.95000
v 1.25000 2.45000 2.95000
v -1.25000 2.45000 2.95000
vt 0.001953 0.876953
vt 0.123047 0.876953
vt 0.123047 0.998047
vt 0.001953 0.998047
vn 0 0 1
f 461/461/116 462/462/116 463/463/116 464/464/116
v 1.25000 2.35000 2.95000
v 1.25000 2.35000 2.60000
v 1.25000 2.45000 2.60000
v 1.25000 2.45000 2.95000
vt 0.001953 0.876953
vt 0.123047 0.876953
vt 0.123047 0.998047
vt 0.001953 0.998047
vn 1 0 0
f 465/465/117 466/466/117 467/467/117 468/468/117
v -1.25000 2.35000 2.60000
v -1.25000 2.35000 2.95000
v -1.25000 2.45000 2.95000
v -1.25000 2.45000 2.60000
vt 0.001953 0.876953
vt 0.123047 0.876953
vt 0.123047 0.998047
vt 0.001953 0.998047
vn -1 0 0
f 469/469/118 470/470/118 471/471/118 472/472/118
v -1.25000 2.45000 2.95000
v 1.25000 2.45000 2.95000
v 1.25000 2.45000 2.60000
v -1.25000 2.45000 2.60000
vt 0.001953 0.876953
vt 0.123047 0.876953
vt 0.123047 0.998047
vt 0.001953 0.998047
vn 0 1 0
f 473/473/119 474/474/119 475/475/119 476/476/119
v -1.25000 2.35000 2.60000
v 1.25000 2.35000 2.60000
v 1.25000 2.35000 2.95000
v -1.25000 2.35000 2.95000
vt 0.001953 0.876953
vt 0.123047 0.876953
vt 0.123047 0.998047
vt 0.001953 0.998047
vn 0 -1 0
f 477/477/120 478/478/120 479/479/120 480/480/120
v 1.20000 1.05000 -2.58000
v -1.20000 1.05000 -2.58000
v -1.20000 2.05000 -2.58000
v 1.20000 2.05000 -2.58000
vt 0.001953 0.876953
vt 0.123047 0.876953
vt 0.123047 0.998047
vt 0.001953 0.998047
vn 0 0 -1
f 481/481/121 482/482/121 483/483/121 484/484/121
v -1.20000 1.05000 -2.50000
v 1.20000 1.05000 -2.50000
v 1.20000 2.05000 -2.50000
v -1.20000 2.05000 -2.50000
vt 0.001953 0.876953
vt 0.123047 0.876953
vt 0.123047 0.998047
vt 0.001953 0.998047
vn 0 0 1
f 485/485/122 486/486/122 487/487/122 488/488/122
v 1.20000 1.05000 -2.50000
v 1.20000 1.05000 -2.58000
v 1.20000 2.05000 -2.58000
v 1.20000 2.05000 -2.50000
vt 0.001953 0.876953
vt 0.123047 0.876953
vt 0.123047 0.998047
vt 0.001953 0.998047
vn 1 0 0
f 489/489/123 490/490/123 491/491/123 492/492/123
v -1.20000 1.05000 -2.58000
v -1.20000 1.05000 -2.50000
v -1.20000 2.05000 -2.50000
v -1.20000 2.05000 -2.58000
vt 0.001953 0.876953
vt 0.123047 0.876953
vt 0.123047 0.998047
vt 0.001953 0.998047
vn -1 0 0
f 493/493/124 494/494/124 495/495/124 496/496/124
v -1.20000 2.05000 -2.50000
v 1.20000 2.05000 -2.50000
v 1.20000 2.05000 -2.58000
v -1.20000 2.05000 -2.58000
vt 0.001953 0.876953
vt 0.123047 0.876953
vt 0.123047 0.998047
vt 0.001953 0.998047
vn 0 1 0
f 497/497/125 498/498/125 499/499/125 500/500/125
v -1.20000 1.05000 -2.58000
v 1.20000 1.05000 -2.58000
v 1.20000 1.05000 -2.50000
v -1.20000 1.05000 -2.50000
vt 0.001953 0.876953
vt 0.123047 0.876953
vt 0.123047 0.998047
vt 0.001953 0.998047
vn 0 -1 0
f 501/501/126 502/502/126 503/503/126 504/504/126
v 1.27000 1.45000 -2.30000
v 1.25000 1.45000 -2.30000
v 1.25000 1.65000 -2.30000
v 1.27000 1.65000 -2.30000
vt 0.251953 0.876953
vt 0.373047 0.876953
vt 0.373047 0.998047
vt 0.251953 0.998047
vn 0 0 -1
f 505/505/127 506/506/127 507/507/127 508/508/127
v 1.25000 1.45000 2.40000
v 1.27000 1.45000 2.40000
v 1.27000 1.65000 2.40000
v 1.25000 1.65000 2.40000
vt 0.251953 0.876953
vt 0.373047 0.876953
vt 0.373047 0.998047
vt 0.251953 0.998047
vn 0 0 1
f 509/509/128 510/510/128 511/511/128 512/512/128
v 1.27000 1.45000 2.40000
v 1.27000 1.45000 -2.30000
v 1.27000 1.65000 -2.30000
v 1.27000 1.65000 2.40000
vt 0.251953 0.876953
vt 0.373047 0.876953
vt 0.373047 0.998047
vt 0.251953 0.998047
vn 1 0 0
f 513/513/129 514/514/129 515/515/129 516/516/129
v 1.25000 1.45000 -2.30000
v 1.25000 1.45000 2.40000
v 1.25000 1.65000 2.40000
v 1.25000 1.65000 -2.30000
vt 0.251953 0.876953
vt 0.373047 0.876953
vt 0.373047 0.998047
vt 0.251953 0.998047
vn -1 0 0
f 517/517/130 518/518/130 519/519/130 520/520/130
v 1.25000 1.65000 2.40000
v 1.27000 1.65000 2.40000
v 1.27000 1.65000 -2.30000
v 1.25000 1.65000 -2.30000
vt 0.251953 0.876953
vt 0.373047 0.876953
vt 0.373047 0.998047
vt 0.251953 0.998047
vn 0 1 0
f 521/521/131 522/522/131 523/523/131 524/524/131
v 1.25000 1.45000 -2.30000
v 1.27000 1.45000 -2.30000
v 1.27000 1.45000 2.40000
v 1.25000 1.45000 2.40000
vt 0.251953 0.876953
vt 0.373047 0.876953
vt 0.373047 0.998047
vt 0.251953 0.998047
vn 0 -1 0
f 525/525/132 526/526/132 527/527/132 528/528/132
v -1.25000 1.45000 -2.30000
v -1.27000 1.45000 -2.30000
v -1.27000 1.65000 -2.30000
v -1.25000 1.65000 -2.30000
vt 0.251953 0.876953
vt 0.373047 0.876953
vt 0.373047 0.998047
vt 0.251953 0.998047
vn 0 0 -1
f 529/529/133 530/530/133 531/531/133 532/532/133
v -1.27000 1.45000 2.40000
v -1.25000 1.45000 2.40000
v -1.25000 1.65000 2.40000
v -1.27000 1.65000 2.40000
vt 0.251953 0.876953
vt 0.373047 0.876953
vt 0.373047 0.998047
vt 0.251953 0.998047
vn 0 0 1
f 533/533/134 534/534/134 535/535/134 536/536/134
v -1.25000 1.45000 2.40000
v -1.25000 1.45000 -2.30000
v -1.25000 1.65000 -2.30000
v -1.25000 1.65000 2.40000
vt 0.251953 0.876953
vt 0.373047 0.876953
vt 0.373047 0.998047
vt 0.251953 0.998047
vn 1 0 0
f 537/537/135 538/538/135 539/539/135 540/540/135
v -1.27000 1.45000 -2.30000
v -1.27000 1.45000 2.40000
v -1.27000 1.65000 2.40000
v -1.27000 1.65000 -2.30000
vt 0.251953 0.876953
vt 0.373047 0.876953
vt 0.373047 0.998047
vt 0.251953 0.998047
vn -1 0 0
f 541/541/136 542/542/136 543/543/136 544/544/136
v -1.27000 1.65000 2.40000
v -1.25000 1.65000 2.40000
v -1.25000 1.65000 -2.30000
v -1.27000 1.65000 -2.30000
vt 0.251953 0.876953
vt 0.373047 0.876953
vt 0.373047 0.998047
vt 0.251953 0.998047
vn 0 1 0
f 545/545/137 546/546/137 547/547/137 548/548/137
v -1.27000 1.45000 -2.30000
v -1.25000 1.45000 -2.30000
v -1.25000 1.45000 2.40000
v -1.27000 1.45000 2.40000
vt 0.251953 0.876953
vt 0.373047 0.876953
vt 0.373047 0.998047
vt 0.251953 0.998047
vn 0 -1 0
f 549/549/138 550/550/138 551/551/138 552/552/138
o p19_black
v 0.85000 2.50000 3.44000
v -0.85000 2.50000 3.44000
v -0.85000 2.55000 3.44000
v 0.85000 2.55000 3.44000
vt 0.501953 0.876953
vt 0.623047 0.876953
vt 0.623047 0.998047
vt 0.501953 0.998047
vn 0 0 -1
f 553/553/139 554/554/139 555/555/139 556/556/139
v -0.85000 2.50000 3.76000
v 0.85000 2.50000 3.76000
v 0.85000 2.55000 3.76000
v -0.85000 2.55000 3.76000
vt 0.501953 0.876953
vt 0.623047 0.876953
vt 0.623047 0.998047
vt 0.501953 0.998047
vn 0 0 1
f 557/557/140 558/558/140 559/559/140 560/560/140
v 0.85000 2.50000 3.76000
v 0.85000 2.50000 3.44000
v 0.85000 2.55000 3.44000
v 0.85000 2.55000 3.76000
vt 0.501953 0.876953
vt 0.623047 0.876953
vt 0.623047 0.998047
vt 0.501953 0.998047
vn 1 0 0
f 561/561/141 562/562/141 563/563/141 564/564/141
v -0.85000 2.50000 3.44000
v -0.85000 2.50000 3.76000
v -0.85000 2.55000 3.76000
v -0.85000 2.55000 3.44000
vt 0.501953 0.876953
vt 0.623047 0.876953
vt 0.623047 0.998047
vt 0.501953 0.998047
vn -1 0 0
f 565/565/142 566/566/142 567/567/142 568/568/142
v -0.85000 2.55000 3.76000
v 0.85000 2.55000 3.76000
v 0.85000 2.55000 3.44000
v -0.85000 2.55000 3.44000
vt 0.501953 0.876953
vt 0.623047 0.876953
vt 0.623047 0.998047
vt 0.501953 0.998047
vn 0 1 0
f 569/569/143 570/570/143 571/571/143 572/572/143
v -0.85000 2.50000 3.44000
v 0.85000 2.50000 3.44000
v 0.85000 2.50000 3.76000
v -0.85000 2.50000 3.76000
vt 0.501953 0.876953
vt 0.623047 0.876953
vt 0.623047 0.998047
vt 0.501953 0.998047
vn 0 -1 0
f 573/573/144 574/574/144 575/575/144 576/576/144
o &Lamp_1
v 0.82000 2.55000 3.45000
v 0.64500 2.55000 3.45000
v 0.64500 2.65000 3.45000
v 0.82000 2.65000 3.45000
vt 0.001953 0.501953
vt 0.123047 0.501953
vt 0.123047 0.623047
vt 0.001953 0.623047
vn 0 0 -1
f 577/577/145 578/578/145 579/579/145 580/580/145
v 0.64500 2.55000 3.75000
v 0.82000 2.55000 3.75000
v 0.82000 2.65000 3.75000
v 0.64500 2.65000 3.75000
vt 0.001953 0.501953
vt 0.123047 0.501953
vt 0.123047 0.623047
vt 0.001953 0.623047
vn 0 0 1
f 581/581/146 582/582/146 583/583/146 584/584/146
v 0.82000 2.55000 3.75000
v 0.82000 2.55000 3.45000
v 0.82000 2.65000 3.45000
v 0.82000 2.65000 3.75000
vt 0.001953 0.501953
vt 0.123047 0.501953
vt 0.123047 0.623047
vt 0.001953 0.623047
vn 1 0 0
f 585/585/147 586/586/147 587/587/147 588/588/147
v 0.64500 2.55000 3.45000
v 0.64500 2.55000 3.75000
v 0.64500 2.65000 3.75000
v 0.64500 2.65000 3.45000
vt 0.001953 0.501953
vt 0.123047 0.501953
vt 0.123047 0.623047
vt 0.001953 0.623047
vn -1 0 0
f 589/589/148 590/590/148 591/591/148 592/592/148
v 0.64500 2.65000 3.75000
v 0.82000 2.65000 3.75000
v 0.82000 2.65000 3.45000
v 0.64500 2.65000 3.45000
vt 0.001953 0.501953
vt 0.123047 0.501953
vt 0.123047 0.623047
vt 0.001953 0.623047
vn 0 1 0
f 593/593/149 594/594/149 595/595/149 596/596/149
v 0.64500 2.55000 3.45000
v 0.82000 2.55000 3.45000
v 0.82000 2.55000 3.75000
v 0.64500 2.55000 3.75000
vt 0.001953 0.501953
vt 0.123047 0.501953
vt 0.123047 0.623047
vt 0.001953 0.623047
vn 0 -1 0
f 597/597/150 598/598/150 599/599/150 600/600/150
o &Lamp_2
v 0.62500 2.55000 3.45000
v 0.45000 2.55000 3.45000
v 0.45000 2.65000 3.45000
v 0.62500 2.65000 3.45000
vt 0.001953 0.501953
vt 0.123047 0.501953
vt 0.123047 0.623047
vt 0.001953 0.623047
vn 0 0 -1
f 601/601/151 602/602/151 603/603/151 604/604/151
v 0.45000 2.55000 3.75000
v 0.62500 2.55000 3.75000
v 0.62500 2.65000 3.75000
v 0.45000 2.65000 3.75000
vt 0.001953 0.501953
vt 0.123047 0.501953
vt 0.123047 0.623047
vt 0.001953 0.623047
vn 0 0 1
f 605/605/152 606/606/152 607/607/152 608/608/152
v 0.62500 2.55000 3.75000
v 0.62500 2.55000 3.45000
v 0.62500 2.65000 3.45000
v 0.62500 2.65000 3.75000
vt 0.001953 0.501953
vt 0.123047 0.501953
vt 0.123047 0.623047
vt 0.001953 0.623047
vn 1 0 0
f 609/609/153 610/610/153 611/611/153 612/612/153
v 0.45000 2.55000 3.45000
v 0.45000 2.55000 3.75000
v 0.45000 2.65000 3.75000
v 0.45000 2.65000 3.45000
vt 0.001953 0.501953
vt 0.123047 0.501953
vt 0.123047 0.623047
vt 0.001953 0.623047
vn -1 0 0
f 613/613/154 614/614/154 615/615/154 616/616/154
v 0.45000 2.65000 3.75000
v 0.62500 2.65000 3.75000
v 0.62500 2.65000 3.45000
v 0.45000 2.65000 3.45000
vt 0.001953 0.501953
vt 0.123047 0.501953
vt 0.123047 0.623047
vt 0.001953 0.623047
vn 0 1 0
f 617/617/155 618/618/155 619/619/155 620/620/155
v 0.45000 2.55000 3.45000
v 0.62500 2.55000 3.45000
v 0.62500 2.55000 3.75000
v 0.45000 2.55000 3.75000
vt 0.001953 0.501953
vt 0.123047 0.501953
vt 0.123047 0.623047
vt 0.001953 0.623047
vn 0 -1 0
f 621/621/156 622/622/156 623/623/156 624/624/156
o &Lamp_3
v 0.43000 2.55000 3.45000
v 0.25500 2.55000 3.45000
v 0.25500 2.65000 3.45000
v 0.43000 2.65000 3.45000
vt 0.001953 0.501953
vt 0.123047 0.501953
vt 0.123047 0.623047
vt 0.001953 0.623047
vn 0 0 -1
f 625/625/157 626/626/157 627/627/157 628/628/157
v 0.25500 2.55000 3.75000
v 0.43000 2.55000 3.75000
v 0.43000 2.65000 3.75000
v 0.25500 2.65000 3.75000
vt 0.001953 0.501953
vt 0.123047 0.501953
vt 0.123047 0.623047
vt 0.001953 0.623047
vn 0 0 1
f 629/629/158 630/630/158 631/631/158 632/632/158
v 0.43000 2.55000 3.75000
v 0.43000 2.55000 3.45000
v 0.43000 2.65000 3.45000
v 0.43000 2.65000 3.75000
vt 0.001953 0.501953
vt 0.123047 0.501953
vt 0.123047 0.623047
vt 0.001953 0.623047
vn 1 0 0
f 633/633/159 634/634/159 635/635/159 636/636/159
v 0.25500 2.55000 3.45000
v 0.25500 2.55000 3.75000
v 0.25500 2.65000 3.75000
v 0.25500 2.65000 3.45000
vt 0.001953 0.501953
vt 0.123047 0.501953
vt 0.123047 0.623047
vt 0.001953 0.623047
vn -1 0 0
f 637/637/160 638/638/160 639/639/160 640/640/160
v 0.25500 2.65000 3.75000
v 0.43000 2.65000 3.75000
v 0.43000 2.65000 3.45000
v 0.25500 2.65000 3.45000
vt 0.001953 0.501953
vt 0.123047 0.501953
vt 0.123047 0.623047
vt 0.001953 0.623047
vn 0 1 0
f 641/641/161 642/642/161 643/643/161 644/644/161
v 0.25500 2.55000 3.45000
v 0.43000 2.55000 3.45000
v 0.43000 2.55000 3.75000
v 0.25500 2.55000 3.75000
vt 0.001953 0.501953
vt 0.123047 0.501953
vt 0.123047 0.623047
vt 0.001953 0.623047
vn 0 -1 0
f 645/645/162 646/646/162 647/647/162 648/648/162
o &Lamp_4
v 0.23500 2.55000 3.45000
v 0.06000 2.55000 3.45000
v 0.06000 2.65000 3.45000
v 0.23500 2.65000 3.45000
vt 0.001953 0.501953
vt 0.123047 0.501953
vt 0.123047 0.623047
vt 0.001953 0.623047
vn 0 0 -1
f 649/649/163 650/650/163 651/651/163 652/652/163
v 0.06000 2.55000 3.75000
v 0.23500 2.55000 3.75000
v 0.23500 2.65000 3.75000
v 0.06000 2.65000 3.75000
vt 0.001953 0.501953
vt 0.123047 0.501953
vt 0.123047 0.623047
vt 0.001953 0.623047
vn 0 0 1
f 653/653/164 654/654/164 655/655/164 656/656/164
v 0.23500 2.55000 3.75000
v 0.23500 2.55000 3.45000
v 0.23500 2.65000 3.45000
v 0.23500 2.65000 3.75000
vt 0.001953 0.501953
vt 0.123047 0.501953
vt 0.123047 0.623047
vt 0.001953 0.623047
vn 1 0 0
f 657/657/165 658/658/165 659/659/165 660/660/165
v 0.06000 2.55000 3.45000
v 0.06000 2.55000 3.75000
v 0.06000 2.65000 3.75000
v 0.06000 2.65000 3.45000
vt 0.001953 0.501953
vt 0.123047 0.501953
vt 0.123047 0.623047
vt 0.001953 0.623047
vn -1 0 0
f 661/661/166 662/662/166 663/663/166 664/664/166
v 0.06000 2.65000 3.75000
v 0.23500 2.65000 3.75000
v 0.23500 2.65000 3.45000
v 0.06000 2.65000 3.45000
vt 0.001953 0.501953
vt 0.123047 0.501953
vt 0.123047 0.623047
vt 0.001953 0.623047
vn 0 1 0
f 665/665/167 666/666/167 667/667/167 668/668/167
v 0.06000 2.55000 3.45000
v 0.23500 2.55000 3.45000
v 0.23500 2.55000 3.75000
v 0.06000 2.55000 3.75000
vt 0.001953 0.501953
vt 0.123047 0.501953
vt 0.123047 0.623047
vt 0.001953 0.623047
vn 0 -1 0
f 669/669/168 670/670/168 671/671/168 672/672/168
o &Lamp_5
v -0.06000 2.55000 3.45000
v -0.23500 2.55000 3.45000
v -0.23500 2.65000 3.45000
v -0.06000 2.65000 3.45000
vt 0.001953 0.501953
vt 0.123047 0.501953
vt 0.123047 0.623047
vt 0.001953 0.623047
vn 0 0 -1
f 673/673/169 674/674/169 675/675/169 676/676/169
v -0.23500 2.55000 3.75000
v -0.06000 2.55000 3.75000
v -0.06000 2.65000 3.75000
v -0.23500 2.65000 3.75000
vt 0.001953 0.501953
vt 0.123047 0.501953
vt 0.123047 0.623047
vt 0.001953 0.623047
vn 0 0 1
f 677/677/170 678/678/170 679/679/170 680/680/170
v -0.06000 2.55000 3.75000
v -0.06000 2.55000 3.45000
v -0.06000 2.65000 3.45000
v -0.06000 2.65000 3.75000
vt 0.001953 0.501953
vt 0.123047 0.501953
vt 0.123047 0.623047
vt 0.001953 0.623047
vn 1 0 0
f 681/681/171 682/682/171 683/683/171 684/684/171
v -0.23500 2.55000 3.45000
v -0.23500 2.55000 3.75000
v -0.23500 2.65000 3.75000
v -0.23500 2.65000 3.45000
vt 0.001953 0.501953
vt 0.123047 0.501953
vt 0.123047 0.623047
vt 0.001953 0.623047
vn -1 0 0
f 685/685/172 686/686/172 687/687/172 688/688/172
v -0.23500 2.65000 3.75000
v -0.06000 2.65000 3.75000
v -0.06000 2.65000 3.45000
v -0.23500 2.65000 3.45000
vt 0.001953 0.501953
vt 0.123047 0.501953
vt 0.123047 0.623047
vt 0.001953 0.623047
vn 0 1 0
f 689/689/173 690/690/173 691/691/173 692/692/173
v -0.23500 2.55000 3.45000
v -0.06000 2.55000 3.45000
v -0.06000 2.55000 3.75000
v -0.23500 2.55000 3.75000
vt 0.001953 0.501953
vt 0.123047 0.501953
vt 0.123047 0.623047
vt 0.001953 0.623047
vn 0 -1 0
f 693/693/174 694/694/174 695/695/174 696/696/174
o &Lamp_6
v -0.25500 2.55000 3.45000
v -0.43000 2.55000 3.45000
v -0.43000 2.65000 3.45000
v -0.25500 2.65000 3.45000
vt 0.001953 0.501953
vt 0.123047 0.501953
vt 0.123047 0.623047
vt 0.001953 0.623047
vn 0 0 -1
f 697/697/175 698/698/175 699/699/175 700/700/175
v -0.43000 2.55000 3.75000
v -0.25500 2.55000 3.75000
v -0.25500 2.65000 3.75000
v -0.43000 2.65000 3.75000
vt 0.001953 0.501953
vt 0.123047 0.501953
vt 0.123047 0.623047
vt 0.001953 0.623047
vn 0 0 1
f 701/701/176 702/702/176 703/703/176 704/704/176
v -0.25500 2.55000 3.75000
v -0.25500 2.55000 3.45000
v -0.25500 2.65000 3.45000
v -0.25500 2.65000 3.75000
vt 0.001953 0.501953
vt 0.123047 0.501953
vt 0.123047 0.623047
vt 0.001953 0.623047
vn 1 0 0
f 705/705/177 706/706/177 707/707/177 708/708/177
v -0.43000 2.55000 3.45000
v -0.43000 2.55000 3.75000
v -0.43000 2.65000 3.75000
v -0.43000 2.65000 3.45000
vt 0.001953 0.501953
vt 0.123047 0.501953
vt 0.123047 0.623047
vt 0.001953 0.623047
vn -1 0 0
f 709/709/178 710/710/178 711/711/178 712/712/178
v -0.43000 2.65000 3.75000
v -0.25500 2.65000 3.75000
v -0.25500 2.65000 3.45000
v -0.43000 2.65000 3.45000
vt 0.001953 0.501953
vt 0.123047 0.501953
vt 0.123047 0.623047
vt 0.001953 0.623047
vn 0 1 0
f 713/713/179 714/714/179 715/715/179 716/716/179
v -0.43000 2.55000 3.45000
v -0.25500 2.55000 3.45000
v -0.25500 2.55000 3.75000
v -0.43000 2.55000 3.75000
vt 0.001953 0.501953
vt 0.123047 0.501953
vt 0.123047 0.623047
vt 0.001953 0.623047
vn 0 -1 0
f 717/717/180 718/718/180 719/719/180 720/720/180
o &Lamp_7
v -0.45000 2.55000 3.45000
v -0.62500 2.55000 3.45000
v -0.62500 2.65000 3.45000
v -0.45000 2.65000 3.45000
vt 0.001953 0.501953
vt 0.123047 0.501953
vt 0.123047 0.623047
vt 0.001953 0.623047
vn 0 0 -1
f 721/721/181 722/722/181 723/723/181 724/724/181
v -0.62500 2.55000 3.75000
v -0.45000 2.55000 3.75000
v -0.45000 2.65000 3.75000
v -0.62500 2.65000 3.75000
vt 0.001953 0.501953
vt 0.123047 0.501953
vt 0.123047 0.623047
vt 0.001953 0.623047
vn 0 0 1
f 725/725/182 726/726/182 727/727/182 728/728/182
v -0.45000 2.55000 3.75000
v -0.45000 2.55000 3.45000
v -0.45000 2.65000 3.45000
v -0.45000 2.65000 3.75000
vt 0.001953 0.501953
vt 0.123047 0.501953
vt 0.123047 0.623047
vt 0.001953 0.623047
vn 1 0 0
f 729/729/183 730/730/183 731/731/183 732/732/183
v -0.62500 2.55000 3.45000
v -0.62500 2.55000 3.75000
v -0.62500 2.65000 3.75000
v -0.62500 2.65000 3.45000
vt 0.001953 0.501953
vt 0.123047 0.501953
vt 0.123047 0.623047
vt 0.001953 0.623047
vn -1 0 0
f 733/733/184 734/734/184 735/735/184 736/736/184
v -0.62500 2.65000 3.75000
v -0.45000 2.65000 3.75000
v -0.45000 2.65000 3.45000
v -0.62500 2.65000 3.45000
vt 0.001953 0.501953
vt 0.123047 0.501953
vt 0.123047 0.623047
vt 0.001953 0.623047
vn 0 1 0
f 737/737/185 738/738/185 739/739/185 740/740/185
v -0.62500 2.55000 3.45000
v -0.45000 2.55000 3.45000
v -0.45000 2.55000 3.75000
v -0.62500 2.55000 3.75000
vt 0.001953 0.501953
vt 0.123047 0.501953
vt 0.123047 0.623047
vt 0.001953 0.623047
vn 0 -1 0
f 741/741/186 742/742/186 743/743/186 744/744/186
o &Lamp_8
v -0.64500 2.55000 3.45000
v -0.82000 2.55000 3.45000
v -0.82000 2.65000 3.45000
v -0.64500 2.65000 3.45000
vt 0.001953 0.501953
vt 0.123047 0.501953
vt 0.123047 0.623047
vt 0.001953 0.623047
vn 0 0 -1
f 745/745/187 746/746/187 747/747/187 748/748/187
v -0.82000 2.55000 3.75000
v -0.64500 2.55000 3.75000
v -0.64500 2.65000 3.75000
v -0.82000 2.65000 3.75000
vt 0.001953 0.501953
vt 0.123047 0.501953
vt 0.123047 0.623047
vt 0.001953 0.623047
vn 0 0 1
f 749/749/188 750/750/188 751/751/188 752/752/188
v -0.64500 2.55000 3.75000
v -0.64500 2.55000 3.45000
v -0.64500 2.65000 3.45000
v -0.64500 2.65000 3.75000
vt 0.001953 0.501953
vt 0.123047 0.501953
vt 0.123047 0.623047
vt 0.001953 0.623047
vn 1 0 0
f 753/753/189 754/754/189 755/755/189 756/756/189
v -0.82000 2.55000 3.45000
v -0.82000 2.55000 3.75000
v -0.82000 2.65000 3.75000
v -0.82000 2.65000 3.45000
vt 0.001953 0.501953
vt 0.123047 0.501953
vt 0.123047 0.623047
vt 0.001953 0.623047
vn -1 0 0
f 757/757/190 758/758/190 759/759/190 760/760/190
v -0.82000 2.65000 3.75000
v -0.64500 2.65000 3.75000
v -0.64500 2.65000 3.45000
v -0.82000 2.65000 3.45000
vt 0.001953 0.501953
vt 0.123047 0.501953
vt 0.123047 0.623047
vt 0.001953 0.623047
vn 0 1 0
f 761/761/191 762/762/191 763/763/191 764/764/191
v -0.82000 2.55000 3.45000
v -0.64500 2.55000 3.45000
v -0.64500 2.55000 3.75000
v -0.82000 2.55000 3.75000
vt 0.001953 0.501953
vt 0.123047 0.501953
vt 0.123047 0.623047
vt 0.001953 0.623047
vn 0 -1 0
f 765/765/192 766/766/192 767/767/192 768/768/192
o &RearBeaconL
v 1.00000 0.55000 -2.75000
v 0.75000 0.55000 -2.75000
v 0.75000 0.75000 -2.75000
v 1.00000 0.75000 -2.75000
vt 0.001953 0.501953
vt 0.123047 0.501953
vt 0.123047 0.623047
vt 0.001953 0.623047
vn 0 0 -1
f 769/769/193 770/770/193 771/771/193 772/772/193
v 0.75000 0.55000 -2.70000
v 1.00000 0.55000 -2.70000
v 1.00000 0.75000 -2.70000
v 0.75000 0.75000 -2.70000
vt 0.001953 0.501953
vt 0.123047 0.501953
vt 0.123047 0.623047
vt 0.001953 0.623047
vn 0 0 1
f 773/773/194 774/774/194 775/775/194 776/776/194
v 1.00000 0.55000 -2.70000
v 1.00000 0.55000 -2.75000
v 1.00000 0.75000 -2.75000
v 1.00000 0.75000 -2.70000
vt 0.001953 0.501953
vt 0.123047 0.501953
vt 0.123047 0.623047
vt 0.001953 0.623047
vn 1 0 0
f 777/777/195 778/778/195 779/779/195 780/780/195
v 0.75000 0.55000 -2.75000
v 0.75000 0.55000 -2.70000
v 0.75000 0.75000 -2.70000
v 0.75000 0.75000 -2.75000
vt 0.001953 0.501953
vt 0.123047 0.501953
vt 0.123047 0.623047
vt 0.001953 0.623047
vn -1 0 0
f 781/781/196 782/782/196 783/783/196 784/784/196
v 0.75000 0.75000 -2.70000
v 1.00000 0.75000 -2.70000
v 1.00000 0.75000 -2.75000
v 0.75000 0.75000 -2.75000
vt 0.001953 0.501953
vt 0.123047 0.501953
vt 0.123047 0.623047
vt 0.001953 0.623047
vn 0 1 0
f 785/785/197 786/786/197 787/787/197 788/788/197
v 0.75000 0.55000 -2.75000
v 1.00000 0.55000 -2.75000
v 1.00000 0.55000 -2.70000
v 0.75000 0.55000 -2.70000
vt 0.001953 0.501953
vt 0.123047 0.501953
vt 0.123047 0.623047
vt 0.001953 0.623047
vn 0 -1 0
f 789/789/198 790/790/198 791/791/198 792/792/198
o &RearBeaconR
v -0.75000 0.55000 -2.75000
v -1.00000 0.55000 -2.75000
v -1.00000 0.75000 -2.75000
v -0.75000 0.75000 -2.75000
vt 0.001953 0.501953
vt 0.123047 0.501953
vt 0.123047 0.623047
vt 0.001953 0.623047
vn 0 0 -1
f 793/793/199 794/794/199 795/795/199 796/796/199
v -1.00000 0.55000 -2.70000
v -0.75000 0.55000 -2.70000
v -0.75000 0.75000 -2.70000
v -1.00000 0.75000 -2.70000
vt 0.001953 0.501953
vt 0.123047 0.501953
vt 0.123047 0.623047
vt 0.001953 0.623047
vn 0 0 1
f 797/797/200 798/798/200 799/799/200 800/800/200
v -0.75000 0.55000 -2.70000
v -0.75000 0.55000 -2.75000
v -0.75000 0.75000 -2.75000
v -0.75000 0.75000 -2.70000
vt 0.001953 0.501953
vt 0.123047 0.501953
vt 0.123047 0.623047
vt 0.001953 0.623047
vn 1 0 0
f 801/801/201 802/802/201 803/803/201 804/804/201
v -1.00000 0.55000 -2.75000
v -1.00000 0.55000 -2.70000
v -1.00000 0.75000 -2.70000
v -1.00000 0.75000 -2.75000
vt 0.001953 0.501953
vt 0.123047 0.501953
vt 0.123047 0.623047
vt 0.001953 0.623047
vn -1 0 0
f 805/805/202 806/806/202 807/807/202 808/808/202
v -1.00000 0.75000 -2.70000
v -0.75000 0.75000 -2.70000
v -0.75000 0.75000 -2.75000
v -1.00000 0.75000 -2.75000
vt 0.001953 0.501953
vt 0.123047 0.501953
vt 0.123047 0.623047
vt 0.001953 0.623047
vn 0 1 0
f 809/809/203 810/810/203 811/811/203 812/812/203
v -1.00000 0.55000 -2.75000
v -0.75000 0.55000 -2.75000
v -0.75000 0.55000 -2.70000
v -1.00000 0.55000 -2.70000
vt 0.001953 0.501953
vt 0.123047 0.501953
vt 0.123047 0.623047
vt 0.001953 0.623047
vn 0 -1 0
f 813/813/204 814/814/204 815/815/204 816/816/204
o &HeadlightL
v 0.60000 0.75000 6.36000
v 0.90000 0.75000 6.36000
v 0.90000 0.95000 6.36000
v 0.60000 0.95000 6.36000
vt 0.126953 0.751953
vt 0.248047 0.751953
vt 0.248047 0.873047
vt 0.126953 0.873047
vn 0 0 1
f 817/817/205 818/818/205 819/819/205 820/820/205
v 0.90000 0.75000 6.36000
v 0.90000 0.75000 6.33000
v 0.90000 0.95000 6.33000
v 0.90000 0.95000 6.36000
vt 0.126953 0.751953
vt 0.248047 0.751953
vt 0.248047 0.873047
vt 0.126953 0.873047
vn 1 0 0
f 821/821/206 822/822/206 823/823/206 824/824/206
v 0.60000 0.75000 6.33000
v 0.60000 0.75000 6.36000
v 0.60000 0.95000 6.36000
v 0.60000 0.95000 6.33000
vt 0.126953 0.751953
vt 0.248047 0.751953
vt 0.248047 0.873047
vt 0.126953 0.873047
vn -1 0 0
f 825/825/207 826/826/207 827/827/207 828/828/207
v 0.60000 0.95000 6.36000
v 0.90000 0.95000 6.36000
v 0.90000 0.95000 6.33000
v 0.60000 0.95000 6.33000
vt 0.126953 0.751953
vt 0.248047 0.751953
vt 0.248047 0.873047
vt 0.126953 0.873047
vn 0 1 0
f 829/829/208 830/830/208 831/831/208 832/832/208
v 0.60000 0.75000 6.33000
v 0.90000 0.75000 6.33000
v 0.90000 0.75000 6.36000
v 0.60000 0.75000 6.36000
vt 0.126953 0.751953
vt 0.248047 0.751953
vt 0.248047 0.873047
vt 0.126953 0.873047
vn 0 -1 0
f 833/833/209 834/834/209 835/835/209 836/836/209
o &HeadlightR
v -0.90000 0.75000 6.36000
v -0.60000 0.75000 6.36000
v -0.60000 0.95000 6.36000
v -0.90000 0.95000 6.36000
vt 0.126953 0.751953
vt 0.248047 0.751953
vt 0.248047 0.873047
vt 0.126953 0.873047
vn 0 0 1
f 837/837/210 838/838/210 839/839/210 840/840/210
v -0.60000 0.75000 6.36000
v -0.60000 0.75000 6.33000
v -0.60000 0.95000 6.33000
v -0.60000 0.95000 6.36000
vt 0.126953 0.751953
vt 0.248047 0.751953
vt 0.248047 0.873047
vt 0.126953 0.873047
vn 1 0 0
f 841/841/211 842/842/211 843/843/211 844/844/211
v -0.90000 0.75000 6.33000
v -0.90000 0.75000 6.36000
v -0.90000 0.95000 6.36000
v -0.90000 0.95000 6.33000
vt 0.126953 0.751953
vt 0.248047 0.751953
vt 0.248047 0.873047
vt 0.126953 0.873047
vn -1 0 0
f 845/845/212 846/846/212 847/847/212 848/848/212
v -0.90000 0.95000 6.36000
v -0.60000 0.95000 6.36000
v -0.60000 0.95000 6.33000
v -0.90000 0.95000 6.33000
vt 0.126953 0.751953
vt 0.248047 0.751953
vt 0.248047 0.873047
vt 0.126953 0.873047
vn 0 1 0
f 849/849/213 850/850/213 851/851/213 852/852/213
v -0.90000 0.75000 6.33000
v -0.60000 0.75000 6.33000
v -0.60000 0.75000 6.36000
v -0.90000 0.75000 6.36000
vt 0.126953 0.751953
vt 0.248047 0.751953
vt 0.248047 0.873047
vt 0.126953 0.873047
vn 0 -1 0
f 853/853/214 854/854/214 855/855/214 856/856/214
o &BrakeL
v 0.90000 0.30000 -2.73000
v 0.65000 0.30000 -2.73000
v 0.65000 0.50000 -2.73000
v 0.90000 0.50000 -2.73000
vt 0.251953 0.751953
vt 0.373047 0.751953
vt 0.373047 0.873047
vt 0.251953 0.873047
vn 0 0 -1
f 857/857/215 858/858/215 859/859/215 860/860/215
v 0.90000 0.30000 -2.70000
v 0.90000 0.30000 -2.73000
v 0.90000 0.50000 -2.73000
v 0.90000 0.50000 -2.70000
vt 0.251953 0.751953
vt 0.373047 0.751953
vt 0.373047 0.873047
vt 0.251953 0.873047
vn 1 0 0
f 861/861/216 862/862/216 863/863/216 864/864/216
v 0.65000 0.30000 -2.73000
v 0.65000 0.30000 -2.70000
v 0.65000 0.50000 -2.70000
v 0.65000 0.50000 -2.73000
vt 0.251953 0.751953
vt 0.373047 0.751953
vt 0.373047 0.873047
vt 0.251953 0.873047
vn -1 0 0
f 865/865/217 866/866/217 867/867/217 868/868/217
v 0.65000 0.50000 -2.70000
v 0.90000 0.50000 -2.70000
v 0.90000 0.50000 -2.73000
v 0.65000 0.50000 -2.73000
vt 0.251953 0.751953
vt 0.373047 0.751953
vt 0.373047 0.873047
vt 0.251953 0.873047
vn 0 1 0
f 869/869/218 870/870/218 871/871/218 872/872/218
v 0.65000 0.30000 -2.73000
v 0.90000 0.30000 -2.73000
v 0.90000 0.30000 -2.70000
v 0.65000 0.30000 -2.70000
vt 0.251953 0.751953
vt 0.373047 0.751953
vt 0.373047 0.873047
vt 0.251953 0.873047
vn 0 -1 0
f 873/873/219 874/874/219 875/875/219 876/876/219
o &TurnL
v 0.90000 0.52000 -2.73000
v 0.65000 0.52000 -2.73000
v 0.65000 0.64000 -2.73000
v 0.90000 0.64000 -2.73000
vt 0.376953 0.751953
vt 0.498047 0.751953
vt 0.498047 0.873047
vt 0.376953 0.873047
vn 0 0 -1
f 877/877/220 878/878/220 879/879/220 880/880/220
v 0.90000 0.52000 -2.70000
v 0.90000 0.52000 -2.73000
v 0.90000 0.64000 -2.73000
v 0.90000 0.64000 -2.70000
vt 0.376953 0.751953
vt 0.498047 0.751953
vt 0.498047 0.873047
vt 0.376953 0.873047
vn 1 0 0
f 881/881/221 882/882/221 883/883/221 884/884/221
v 0.65000 0.52000 -2.73000
v 0.65000 0.52000 -2.70000
v 0.65000 0.64000 -2.70000
v 0.65000 0.64000 -2.73000
vt 0.376953 0.751953
vt 0.498047 0.751953
vt 0.498047 0.873047
vt 0.376953 0.873047
vn -1 0 0
f 885/885/222 886/886/222 887/887/222 888/888/222
v 0.65000 0.64000 -2.70000
v 0.90000 0.64000 -2.70000
v 0.90000 0.64000 -2.73000
v 0.65000 0.64000 -2.73000
vt 0.376953 0.751953
vt 0.498047 0.751953
vt 0.498047 0.873047
vt 0.376953 0.873047
vn 0 1 0
f 889/889/223 890/890/223 891/891/223 892/892/223
v 0.65000 0.52000 -2.73000
v 0.90000 0.52000 -2.73000
v 0.90000 0.52000 -2.70000
v 0.65000 0.52000 -2.70000
vt 0.376953 0.751953
vt 0.498047 0.751953
vt 0.498047 0.873047
vt 0.376953 0.873047
vn 0 -1 0
f 893/893/224 894/894/224 895/895/224 896/896/224
o &TurnFrontL
v 0.70000 0.59000 6.36000
v 0.90000 0.59000 6.36000
v 0.90000 0.71000 6.36000
v 0.70000 0.71000 6.36000
vt 0.376953 0.751953
vt 0.498047 0.751953
vt 0.498047 0.873047
vt 0.376953 0.873047
vn 0 0 1
f 897/897/225 898/898/225 899/899/225 900/900/225
v 0.90000 0.59000 6.36000
v 0.90000 0.59000 6.33000
v 0.90000 0.71000 6.33000
v 0.90000 0.71000 6.36000
vt 0.376953 0.751953
vt 0.498047 0.751953
vt 0.498047 0.873047
vt 0.376953 0.873047
vn 1 0 0
f 901/901/226 902/902/226 903/903/226 904/904/226
v 0.70000 0.59000 6.33000
v 0.70000 0.59000 6.36000
v 0.70000 0.71000 6.36000
v 0.70000 0.71000 6.33000
vt 0.376953 0.751953
vt 0.498047 0.751953
vt 0.498047 0.873047
vt 0.376953 0.873047
vn -1 0 0
f 905/905/227 906/906/227 907/907/227 908/908/227
v 0.70000 0.71000 6.36000
v 0.90000 0.71000 6.36000
v 0.90000 0.71000 6.33000
v 0.70000 0.71000 6.33000
vt 0.376953 0.751953
vt 0.498047 0.751953
vt 0.498047 0.873047
vt 0.376953 0.873047
vn 0 1 0
f 909/909/228 910/910/228 911/911/228 912/912/228
v 0.70000 0.59000 6.33000
v 0.90000 0.59000 6.33000
v 0.90000 0.59000 6.36000
v 0.70000 0.59000 6.36000
vt 0.376953 0.751953
vt 0.498047 0.751953
vt 0.498047 0.873047
vt 0.376953 0.873047
vn 0 -1 0
f 913/913/229 914/914/229 915/915/229 916/916/229
o &BrakeR
v -0.65000 0.30000 -2.73000
v -0.90000 0.30000 -2.73000
v -0.90000 0.50000 -2.73000
v -0.65000 0.50000 -2.73000
vt 0.251953 0.751953
vt 0.373047 0.751953
vt 0.373047 0.873047
vt 0.251953 0.873047
vn 0 0 -1
f 917/917/230 918/918/230 919/919/230 920/920/230
v -0.65000 0.30000 -2.70000
v -0.65000 0.30000 -2.73000
v -0.65000 0.50000 -2.73000
v -0.65000 0.50000 -2.70000
vt 0.251953 0.751953
vt 0.373047 0.751953
vt 0.373047 0.873047
vt 0.251953 0.873047
vn 1 0 0
f 921/921/231 922/922/231 923/923/231 924/924/231
v -0.90000 0.30000 -2.73000
v -0.90000 0.30000 -2.70000
v -0.90000 0.50000 -2.70000
v -0.90000 0.50000 -2.73000
vt 0.251953 0.751953
vt 0.373047 0.751953
vt 0.373047 0.873047
vt 0.251953 0.873047
vn -1 0 0
f 925/925/232 926/926/232 927/927/232 928/928/232
v -0.90000 0.50000 -2.70000
v -0.65000 0.50000 -2.70000
v -0.65000 0.50000 -2.73000
v -0.90000 0.50000 -2.73000
vt 0.251953 0.751953
vt 0.373047 0.751953
vt 0.373047 0.873047
vt 0.251953 0.873047
vn 0 1 0
f 929/929/233 930/930/233 931/931/233 932/932/233
v -0.90000 0.30000 -2.73000
v -0.65000 0.30000 -2.73000
v -0.65000 0.30000 -2.70000
v -0.90000 0.30000 -2.70000
vt 0.251953 0.751953
vt 0.373047 0.751953
vt 0.373047 0.873047
vt 0.251953 0.873047
vn 0 -1 0
f 933/933/234 934/934/234 935/935/234 936/936/234
o &TurnR
v -0.65000 0.52000 -2.73000
v -0.90000 0.52000 -2.73000
v -0.90000 0.64000 -2.73000
v -0.65000 0.64000 -2.73000
vt 0.376953 0.751953
vt 0.498047 0.751953
vt 0.498047 0.873047
vt 0.376953 0.873047
vn 0 0 -1
f 937/937/235 938/938/235 939/939/235 940/940/235
v -0.65000 0.52000 -2.70000
v -0.65000 0.52000 -2.73000
v -0.65000 0.64000 -2.73000
v -0.65000 0.64000 -2.70000
vt 0.376953 0.751953
vt 0.498047 0.751953
vt 0.498047 0.873047
vt 0.376953 0.873047
vn 1 0 0
f 941/941/236 942/942/236 943/943/236 944/944/236
v -0.90000 0.52000 -2.73000
v -0.90000 0.52000 -2.70000
v -0.90000 0.64000 -2.70000
v -0.90000 0.64000 -2.73000
vt 0.376953 0.751953
vt 0.498047 0.751953
vt 0.498047 0.873047
vt 0.376953 0.873047
vn -1 0 0
f 945/945/237 946/946/237 947/947/237 948/948/237
v -0.90000 0.64000 -2.70000
v -0.65000 0.64000 -2.70000
v -0.65000 0.64000 -2.73000
v -0.90000 0.64000 -2.73000
vt 0.376953 0.751953
vt 0.498047 0.751953
vt 0.498047 0.873047
vt 0.376953 0.873047
vn 0 1 0
f 949/949/238 950/950/238 951/951/238 952/952/238
v -0.90000 0.52000 -2.73000
v -0.65000 0.52000 -2.73000
v -0.65000 0.52000 -2.70000
v -0.90000 0.52000 -2.70000
vt 0.376953 0.751953
vt 0.498047 0.751953
vt 0.498047 0.873047
vt 0.376953 0.873047
vn 0 -1 0
f 953/953/239 954/954/239 955/955/239 956/956/239
o &TurnFrontR
v -0.90000 0.59000 6.36000
v -0.70000 0.59000 6.36000
v -0.70000 0.71000 6.36000
v -0.90000 0.71000 6.36000
vt 0.376953 0.751953
vt 0.498047 0.751953
vt 0.498047 0.873047
vt 0.376953 0.873047
vn 0 0 1
f 957/957/240 958/958/240 959/959/240 960/960/240
v -0.70000 0.59000 6.36000
v -0.70000 0.59000 6.33000
v -0.70000 0.71000 6.33000
v -0.70000 0.71000 6.36000
vt 0.376953 0.751953
vt 0.498047 0.751953
vt 0.498047 0.873047
vt 0.376953 0.873047
vn 1 0 0
f 961/961/241 962/962/241 963/963/241 964/964/241
v -0.90000 0.59000 6.33000
v -0.90000 0.59000 6.36000
v -0.90000 0.71000 6.36000
v -0.90000 0.71000 6.33000
vt 0.376953 0.751953
vt 0.498047 0.751953
vt 0.498047 0.873047
vt 0.376953 0.873047
vn -1 0 0
f 965/965/242 966/966/242 967/967/242 968/968/242
v -0.90000 0.71000 6.36000
v -0.70000 0.71000 6.36000
v -0.70000 0.71000 6.33000
v -0.90000 0.71000 6.33000
vt 0.376953 0.751953
vt 0.498047 0.751953
vt 0.498047 0.873047
vt 0.376953 0.873047
vn 0 1 0
f 969/969/243 970/970/243 971/971/243 972/972/243
v -0.90000 0.59000 6.33000
v -0.70000 0.59000 6.33000
v -0.70000 0.59000 6.36000
v -0.90000 0.59000 6.36000
vt 0.376953 0.751953
vt 0.498047 0.751953
vt 0.498047 0.873047
vt 0.376953 0.873047
vn 0 -1 0
f 973/973/244 974/974/244 975/975/244 976/976/244
o &Reverse
v 0.15000 0.30000 -2.73000
v -0.15000 0.30000 -2.73000
v -0.15000 0.40000 -2.73000
v 0.15000 0.40000 -2.73000
vt 0.501953 0.751953
vt 0.623047 0.751953
vt 0.623047 0.873047
vt 0.501953 0.873047
vn 0 0 -1
f 977/977/245 978/978/245 979/979/245 980/980/245
v 0.15000 0.30000 -2.70000
v 0.15000 0.30000 -2.73000
v 0.15000 0.40000 -2.73000
v 0.15000 0.40000 -2.70000
vt 0.501953 0.751953
vt 0.623047 0.751953
vt 0.623047 0.873047
vt 0.501953 0.873047
vn 1 0 0
f 981/981/246 982/982/246 983/983/246 984/984/246
v -0.15000 0.30000 -2.73000
v -0.15000 0.30000 -2.70000
v -0.15000 0.40000 -2.70000
v -0.15000 0.40000 -2.73000
vt 0.501953 0.751953
vt 0.623047 0.751953
vt 0.623047 0.873047
vt 0.501953 0.873047
vn -1 0 0
f 985/985/247 986/986/247 987/987/247 988/988/247
v -0.15000 0.40000 -2.70000
v 0.15000 0.40000 -2.70000
v 0.15000 0.40000 -2.73000
v -0.15000 0.40000 -2.73000
vt 0.501953 0.751953
vt 0.623047 0.751953
vt 0.623047 0.873047
vt 0.501953 0.873047
vn 0 1 0
f 989/989/248 990/990/248 991/991/248 992/992/248
v -0.15000 0.30000 -2.73000
v 0.15000 0.30000 -2.73000
v 0.15000 0.30000 -2.70000
v -0.15000 0.30000 -2.70000
vt 0.501953 0.751953
vt 0.623047 0.751953
vt 0.623047 0.873047
vt 0.501953 0.873047
vn 0 -1 0
f 993/993/249 994/994/249 995/995/249 996/996/249
