# Generated by dev-env-utils/scripts/gen_utilities_sewer.py -- do not edit
mtllib sewer.mtl
o mh_cone_cut
v 0.89375 0.68750 0.50000
v 0.89375 0.68750 0.57832
v 0.99039 0.00000 0.59755
v 0.99039 0.00000 0.50000
v 0.89375 0.68750 0.57832
v 0.83381 0.68750 0.72304
v 0.91573 0.00000 0.77779
v 0.99039 0.00000 0.59755
v 0.83381 0.68750 0.72304
v 0.72304 0.68750 0.83381
v 0.77779 0.00000 0.91573
v 0.91573 0.00000 0.77779
v 0.72304 0.68750 0.83381
v 0.57832 0.68750 0.89375
v 0.59755 0.00000 0.99039
v 0.77779 0.00000 0.91573
v 0.57832 0.68750 0.89375
v 0.42168 0.68750 0.89375
v 0.40245 0.00000 0.99039
v 0.59755 0.00000 0.99039
v 0.42168 0.68750 0.89375
v 0.27696 0.68750 0.83381
v 0.22221 0.00000 0.91573
v 0.40245 0.00000 0.99039
v 0.27696 0.68750 0.83381
v 0.16619 0.68750 0.72304
v 0.08427 0.00000 0.77779
v 0.22221 0.00000 0.91573
v 0.16619 0.68750 0.72304
v 0.10625 0.68750 0.57832
v 0.00961 0.00000 0.59755
v 0.08427 0.00000 0.77779
v 0.10625 0.68750 0.57832
v 0.10625 0.68750 0.50000
v 0.00961 0.00000 0.50000
v 0.00961 0.00000 0.59755
v 0.89375 0.84375 0.50000
v 0.89375 0.84375 0.57832
v 0.89375 0.68750 0.57832
v 0.89375 0.68750 0.50000
v 0.89375 0.84375 0.57832
v 0.83381 0.84375 0.72304
v 0.83381 0.68750 0.72304
v 0.89375 0.68750 0.57832
v 0.83381 0.84375 0.72304
v 0.72304 0.84375 0.83381
v 0.72304 0.68750 0.83381
v 0.83381 0.68750 0.72304
v 0.72304 0.84375 0.83381
v 0.57832 0.84375 0.89375
v 0.57832 0.68750 0.89375
v 0.72304 0.68750 0.83381
v 0.57832 0.84375 0.89375
v 0.42168 0.84375 0.89375
v 0.42168 0.68750 0.89375
v 0.57832 0.68750 0.89375
v 0.42168 0.84375 0.89375
v 0.27696 0.84375 0.83381
v 0.27696 0.68750 0.83381
v 0.42168 0.68750 0.89375
v 0.27696 0.84375 0.83381
v 0.16619 0.84375 0.72304
v 0.16619 0.68750 0.72304
v 0.27696 0.68750 0.83381
v 0.16619 0.84375 0.72304
v 0.10625 0.84375 0.57832
v 0.10625 0.68750 0.57832
v 0.16619 0.68750 0.72304
v 0.10625 0.84375 0.57832
v 0.10625 0.84375 0.50000
v 0.10625 0.68750 0.50000
v 0.10625 0.68750 0.57832
v 0.90625 1.00000 0.50000
v 0.90625 1.00000 0.58081
v 0.90625 0.84375 0.58081
v 0.90625 0.84375 0.50000
v 0.90625 1.00000 0.58081
v 0.84440 1.00000 0.73012
v 0.84440 0.84375 0.73012
v 0.90625 0.84375 0.58081
v 0.84440 1.00000 0.73012
v 0.73012 1.00000 0.84440
v 0.73012 0.84375 0.84440
v 0.84440 0.84375 0.73012
v 0.73012 1.00000 0.84440
v 0.58081 1.00000 0.90625
v 0.58081 0.84375 0.90625
v 0.73012 0.84375 0.84440
v 0.58081 1.00000 0.90625
v 0.41919 1.00000 0.90625
v 0.41919 0.84375 0.90625
v 0.58081 0.84375 0.90625
v 0.41919 1.00000 0.90625
v 0.26988 1.00000 0.84440
v 0.26988 0.84375 0.84440
v 0.41919 0.84375 0.90625
v 0.26988 1.00000 0.84440
v 0.15560 1.00000 0.73012
v 0.15560 0.84375 0.73012
v 0.26988 0.84375 0.84440
v 0.15560 1.00000 0.73012
v 0.09375 1.00000 0.58081
v 0.09375 0.84375 0.58081
v 0.15560 0.84375 0.73012
v 0.09375 1.00000 0.58081
v 0.09375 1.00000 0.50000
v 0.09375 0.84375 0.50000
v 0.09375 0.84375 0.58081
v 0.90625 0.84375 0.50000
v 0.90625 0.84375 0.58081
v 0.89375 0.84375 0.57832
v 0.89375 0.84375 0.50000
v 0.90625 0.84375 0.58081
v 0.84440 0.84375 0.73012
v 0.83381 0.84375 0.72304
v 0.89375 0.84375 0.57832
v 0.84440 0.84375 0.73012
v 0.73012 0.84375 0.84440
v 0.72304 0.84375 0.83381
v 0.83381 0.84375 0.72304
v 0.73012 0.84375 0.84440
v 0.58081 0.84375 0.90625
v 0.57832 0.84375 0.89375
v 0.72304 0.84375 0.83381
v 0.58081 0.84375 0.90625
v 0.41919 0.84375 0.90625
v 0.42168 0.84375 0.89375
v 0.57832 0.84375 0.89375
v 0.41919 0.84375 0.90625
v 0.26988 0.84375 0.84440
v 0.27696 0.84375 0.83381
v 0.42168 0.84375 0.89375
v 0.26988 0.84375 0.84440
v 0.15560 0.84375 0.73012
v 0.16619 0.84375 0.72304
v 0.27696 0.84375 0.83381
v 0.15560 0.84375 0.73012
v 0.09375 0.84375 0.58081
v 0.10625 0.84375 0.57832
v 0.16619 0.84375 0.72304
v 0.09375 0.84375 0.58081
v 0.09375 0.84375 0.50000
v 0.10625 0.84375 0.50000
v 0.10625 0.84375 0.57832
v 0.87500 0.00000 0.50000
v 0.87500 0.00000 0.57459
v 0.83125 0.68750 0.56589
v 0.83125 0.68750 0.50000
v 0.87500 0.00000 0.57459
v 0.81791 0.00000 0.71242
v 0.78082 0.68750 0.68764
v 0.83125 0.68750 0.56589
v 0.81791 0.00000 0.71242
v 0.71242 0.00000 0.81791
v 0.68764 0.68750 0.78082
v 0.78082 0.68750 0.68764
v 0.71242 0.00000 0.81791
v 0.57459 0.00000 0.87500
v 0.56589 0.68750 0.83125
v 0.68764 0.68750 0.78082
v 0.57459 0.00000 0.87500
v 0.42541 0.00000 0.87500
v 0.43411 0.68750 0.83125
v 0.56589 0.68750 0.83125
v 0.42541 0.00000 0.87500
v 0.28758 0.00000 0.81791
v 0.31236 0.68750 0.78082
v 0.43411 0.68750 0.83125
v 0.28758 0.00000 0.81791
v 0.18209 0.00000 0.71242
v 0.21918 0.68750 0.68764
v 0.31236 0.68750 0.78082
v 0.18209 0.00000 0.71242
v 0.12500 0.00000 0.57459
v 0.16875 0.68750 0.56589
v 0.21918 0.68750 0.68764
v 0.12500 0.00000 0.57459
v 0.12500 0.00000 0.50000
v 0.16875 0.68750 0.50000
v 0.16875 0.68750 0.56589
v 0.83125 0.68750 0.50000
v 0.83125 0.68750 0.56589
v 0.83125 1.00000 0.56589
v 0.83125 1.00000 0.50000
v 0.83125 0.68750 0.56589
v 0.78082 0.68750 0.68764
v 0.78082 1.00000 0.68764
v 0.83125 1.00000 0.56589
v 0.78082 0.68750 0.68764
v 0.68764 0.68750 0.78082
v 0.68764 1.00000 0.78082
v 0.78082 1.00000 0.68764
v 0.68764 0.68750 0.78082
v 0.56589 0.68750 0.83125
v 0.56589 1.00000 0.83125
v 0.68764 1.00000 0.78082
v 0.56589 0.68750 0.83125
v 0.43411 0.68750 0.83125
v 0.43411 1.00000 0.83125
v 0.56589 1.00000 0.83125
v 0.43411 0.68750 0.83125
v 0.31236 0.68750 0.78082
v 0.31236 1.00000 0.78082
v 0.43411 1.00000 0.83125
v 0.31236 0.68750 0.78082
v 0.21918 0.68750 0.68764
v 0.21918 1.00000 0.68764
v 0.31236 1.00000 0.78082
v 0.21918 0.68750 0.68764
v 0.16875 0.68750 0.56589
v 0.16875 1.00000 0.56589
v 0.21918 1.00000 0.68764
v 0.16875 0.68750 0.56589
v 0.16875 0.68750 0.50000
v 0.16875 1.00000 0.50000
v 0.16875 1.00000 0.56589
v 0.83125 1.00000 0.50000
v 0.83125 1.00000 0.56589
v 0.90625 1.00000 0.58081
v 0.90625 1.00000 0.50000
v 0.83125 1.00000 0.56589
v 0.78082 1.00000 0.68764
v 0.84440 1.00000 0.73012
v 0.90625 1.00000 0.58081
v 0.78082 1.00000 0.68764
v 0.68764 1.00000 0.78082
v 0.73012 1.00000 0.84440
v 0.84440 1.00000 0.73012
v 0.68764 1.00000 0.78082
v 0.56589 1.00000 0.83125
v 0.58081 1.00000 0.90625
v 0.73012 1.00000 0.84440
v 0.56589 1.00000 0.83125
v 0.43411 1.00000 0.83125
v 0.41919 1.00000 0.90625
v 0.58081 1.00000 0.90625
v 0.43411 1.00000 0.83125
v 0.31236 1.00000 0.78082
v 0.26988 1.00000 0.84440
v 0.41919 1.00000 0.90625
v 0.31236 1.00000 0.78082
v 0.21918 1.00000 0.68764
v 0.15560 1.00000 0.73012
v 0.26988 1.00000 0.84440
v 0.21918 1.00000 0.68764
v 0.16875 1.00000 0.56589
v 0.09375 1.00000 0.58081
v 0.15560 1.00000 0.73012
v 0.16875 1.00000 0.56589
v 0.16875 1.00000 0.50000
v 0.09375 1.00000 0.50000
v 0.09375 1.00000 0.58081
v 0.12500 0.00000 0.50000
v 0.00961 0.00000 0.50000
v 0.10625 0.68750 0.50000
v 0.16875 0.68750 0.50000
v 0.83125 0.68750 0.50000
v 0.89375 0.68750 0.50000
v 0.99039 0.00000 0.50000
v 0.87500 0.00000 0.50000
v 0.16875 0.68750 0.50000
v 0.10625 0.68750 0.50000
v 0.10625 0.84375 0.50000
v 0.16875 0.84375 0.50000
v 0.83125 0.84375 0.50000
v 0.89375 0.84375 0.50000
v 0.89375 0.68750 0.50000
v 0.83125 0.68750 0.50000
v 0.16875 0.84375 0.50000
v 0.09375 0.84375 0.50000
v 0.09375 1.00000 0.50000
v 0.16875 1.00000 0.50000
v 0.83125 1.00000 0.50000
v 0.90625 1.00000 0.50000
v 0.90625 0.84375 0.50000
v 0.83125 0.84375 0.50000
vt 0.50000 0.00000
vt 1.00000 0.00000
vt 1.00000 1.00000
vt 0.50000 1.00000
vt 0.00000 0.00000
vt 1.00000 0.00000
vt 1.00000 1.00000
vt 0.00000 1.00000
vt 0.00000 0.00000
vt 1.00000 0.00000
vt 1.00000 1.00000
vt 0.00000 1.00000
vt 0.00000 0.00000
vt 1.00000 0.00000
vt 1.00000 1.00000
vt 0.00000 1.00000
vt 0.00000 0.00000
vt 1.00000 0.00000
vt 1.00000 1.00000
vt 0.00000 1.00000
vt 0.00000 0.00000
vt 1.00000 0.00000
vt 1.00000 1.00000
vt 0.00000 1.00000
vt 0.00000 0.00000
vt 1.00000 0.00000
vt 1.00000 1.00000
vt 0.00000 1.00000
vt 0.00000 0.00000
vt 1.00000 0.00000
vt 1.00000 1.00000
vt 0.00000 1.00000
vt 0.00000 0.00000
vt 0.50000 0.00000
vt 0.50000 1.00000
vt 0.00000 1.00000
vt 0.50000 0.00000
vt 1.00000 0.00000
vt 1.00000 1.00000
vt 0.50000 1.00000
vt 0.00000 0.00000
vt 1.00000 0.00000
vt 1.00000 1.00000
vt 0.00000 1.00000
vt 0.00000 0.00000
vt 1.00000 0.00000
vt 1.00000 1.00000
vt 0.00000 1.00000
vt 0.00000 0.00000
vt 1.00000 0.00000
vt 1.00000 1.00000
vt 0.00000 1.00000
vt 0.00000 0.00000
vt 1.00000 0.00000
vt 1.00000 1.00000
vt 0.00000 1.00000
vt 0.00000 0.00000
vt 1.00000 0.00000
vt 1.00000 1.00000
vt 0.00000 1.00000
vt 0.00000 0.00000
vt 1.00000 0.00000
vt 1.00000 1.00000
vt 0.00000 1.00000
vt 0.00000 0.00000
vt 1.00000 0.00000
vt 1.00000 1.00000
vt 0.00000 1.00000
vt 0.00000 0.00000
vt 0.50000 0.00000
vt 0.50000 1.00000
vt 0.00000 1.00000
vt 0.50000 0.00000
vt 1.00000 0.00000
vt 1.00000 1.00000
vt 0.50000 1.00000
vt 0.00000 0.00000
vt 1.00000 0.00000
vt 1.00000 1.00000
vt 0.00000 1.00000
vt 0.00000 0.00000
vt 1.00000 0.00000
vt 1.00000 1.00000
vt 0.00000 1.00000
vt 0.00000 0.00000
vt 1.00000 0.00000
vt 1.00000 1.00000
vt 0.00000 1.00000
vt 0.00000 0.00000
vt 1.00000 0.00000
vt 1.00000 1.00000
vt 0.00000 1.00000
vt 0.00000 0.00000
vt 1.00000 0.00000
vt 1.00000 1.00000
vt 0.00000 1.00000
vt 0.00000 0.00000
vt 1.00000 0.00000
vt 1.00000 1.00000
vt 0.00000 1.00000
vt 0.00000 0.00000
vt 1.00000 0.00000
vt 1.00000 1.00000
vt 0.00000 1.00000
vt 0.00000 0.00000
vt 0.50000 0.00000
vt 0.50000 1.00000
vt 0.00000 1.00000
vt 0.50000 1.00000
vt 1.00000 1.00000
vt 1.00000 0.00000
vt 0.50000 0.00000
vt 0.00000 1.00000
vt 1.00000 1.00000
vt 1.00000 0.00000
vt 0.00000 0.00000
vt 0.00000 1.00000
vt 1.00000 1.00000
vt 1.00000 0.00000
vt 0.00000 0.00000
vt 0.00000 1.00000
vt 1.00000 1.00000
vt 1.00000 0.00000
vt 0.00000 0.00000
vt 0.00000 1.00000
vt 1.00000 1.00000
vt 1.00000 0.00000
vt 0.00000 0.00000
vt 0.00000 1.00000
vt 1.00000 1.00000
vt 1.00000 0.00000
vt 0.00000 0.00000
vt 0.00000 1.00000
vt 1.00000 1.00000
vt 1.00000 0.00000
vt 0.00000 0.00000
vt 0.00000 1.00000
vt 1.00000 1.00000
vt 1.00000 0.00000
vt 0.00000 0.00000
vt 0.00000 1.00000
vt 0.50000 1.00000
vt 0.50000 0.00000
vt 0.00000 0.00000
vt 0.50000 1.00000
vt 1.00000 1.00000
vt 1.00000 0.00000
vt 0.50000 0.00000
vt 0.00000 1.00000
vt 1.00000 1.00000
vt 1.00000 0.00000
vt 0.00000 0.00000
vt 0.00000 1.00000
vt 1.00000 1.00000
vt 1.00000 0.00000
vt 0.00000 0.00000
vt 0.00000 1.00000
vt 1.00000 1.00000
vt 1.00000 0.00000
vt 0.00000 0.00000
vt 0.00000 1.00000
vt 1.00000 1.00000
vt 1.00000 0.00000
vt 0.00000 0.00000
vt 0.00000 1.00000
vt 1.00000 1.00000
vt 1.00000 0.00000
vt 0.00000 0.00000
vt 0.00000 1.00000
vt 1.00000 1.00000
vt 1.00000 0.00000
vt 0.00000 0.00000
vt 0.00000 1.00000
vt 1.00000 1.00000
vt 1.00000 0.00000
vt 0.00000 0.00000
vt 0.00000 1.00000
vt 0.50000 1.00000
vt 0.50000 0.00000
vt 0.00000 0.00000
vt 0.50000 1.00000
vt 1.00000 1.00000
vt 1.00000 0.00000
vt 0.50000 0.00000
vt 0.00000 1.00000
vt 1.00000 1.00000
vt 1.00000 0.00000
vt 0.00000 0.00000
vt 0.00000 1.00000
vt 1.00000 1.00000
vt 1.00000 0.00000
vt 0.00000 0.00000
vt 0.00000 1.00000
vt 1.00000 1.00000
vt 1.00000 0.00000
vt 0.00000 0.00000
vt 0.00000 1.00000
vt 1.00000 1.00000
vt 1.00000 0.00000
vt 0.00000 0.00000
vt 0.00000 1.00000
vt 1.00000 1.00000
vt 1.00000 0.00000
vt 0.00000 0.00000
vt 0.00000 1.00000
vt 1.00000 1.00000
vt 1.00000 0.00000
vt 0.00000 0.00000
vt 0.00000 1.00000
vt 1.00000 1.00000
vt 1.00000 0.00000
vt 0.00000 0.00000
vt 0.00000 1.00000
vt 0.50000 1.00000
vt 0.50000 0.00000
vt 0.00000 0.00000
vt 0.50000 0.00000
vt 1.00000 0.00000
vt 1.00000 1.00000
vt 0.50000 1.00000
vt 0.00000 0.00000
vt 1.00000 0.00000
vt 1.00000 1.00000
vt 0.00000 1.00000
vt 0.00000 0.00000
vt 1.00000 0.00000
vt 1.00000 1.00000
vt 0.00000 1.00000
vt 0.00000 0.00000
vt 1.00000 0.00000
vt 1.00000 1.00000
vt 0.00000 1.00000
vt 0.00000 0.00000
vt 1.00000 0.00000
vt 1.00000 1.00000
vt 0.00000 1.00000
vt 0.00000 0.00000
vt 1.00000 0.00000
vt 1.00000 1.00000
vt 0.00000 1.00000
vt 0.00000 0.00000
vt 1.00000 0.00000
vt 1.00000 1.00000
vt 0.00000 1.00000
vt 0.00000 0.00000
vt 1.00000 0.00000
vt 1.00000 1.00000
vt 0.00000 1.00000
vt 0.00000 0.00000
vt 0.50000 0.00000
vt 0.50000 1.00000
vt 0.00000 1.00000
vt 0.87500 1.00000
vt 0.99039 1.00000
vt 0.89375 0.31250
vt 0.83125 0.31250
vt 0.16875 0.31250
vt 0.10625 0.31250
vt 0.00961 1.00000
vt 0.12500 1.00000
vt 0.83125 0.31250
vt 0.89375 0.31250
vt 0.89375 0.15625
vt 0.83125 0.15625
vt 0.16875 0.15625
vt 0.10625 0.15625
vt 0.10625 0.31250
vt 0.16875 0.31250
vt 0.83125 0.15625
vt 0.90625 0.15625
vt 0.90625 0.00000
vt 0.83125 0.00000
vt 0.16875 0.00000
vt 0.09375 0.00000
vt 0.09375 0.15625
vt 0.16875 0.15625
vn 0.98988 0.14188 0.00000
vn 0.97124 0.13920 0.19319
vn 0.97124 0.13920 0.19319
vn 0.98988 0.14188 -0.00000
vn 0.97124 0.13920 0.19319
vn 0.82337 0.13920 0.55016
vn 0.82337 0.13920 0.55016
vn 0.97124 0.13920 0.19319
vn 0.82337 0.13920 0.55016
vn 0.55016 0.13920 0.82337
vn 0.55016 0.13920 0.82337
vn 0.82337 0.13920 0.55016
vn 0.55016 0.13920 0.82337
vn 0.19319 0.13920 0.97124
vn 0.19319 0.13920 0.97124
vn 0.55016 0.13920 0.82337
vn 0.19319 0.13920 0.97124
vn -0.19319 0.13920 0.97124
vn -0.19319 0.13920 0.97124
vn 0.19319 0.13920 0.97124
vn -0.19319 0.13920 0.97124
vn -0.55016 0.13920 0.82337
vn -0.55016 0.13920 0.82337
vn -0.19319 0.13920 0.97124
vn -0.55016 0.13920 0.82337
vn -0.82337 0.13920 0.55016
vn -0.82337 0.13920 0.55016
vn -0.55016 0.13920 0.82337
vn -0.82337 0.13920 0.55016
vn -0.97124 0.13920 0.19319
vn -0.97124 0.13920 0.19319
vn -0.82337 0.13920 0.55016
vn -0.97124 0.13920 0.19319
vn -0.98988 0.14188 0.00000
vn -0.98988 0.14188 0.00000
vn -0.97124 0.13920 0.19319
vn 1.00000 0.00000 0.00000
vn 0.98079 -0.00000 0.19509
vn 0.98079 -0.00000 0.19509
vn 1.00000 0.00000 0.00000
vn 0.98079 -0.00000 0.19509
vn 0.83147 -0.00000 0.55557
vn 0.83147 -0.00000 0.55557
vn 0.98079 -0.00000 0.19509
vn 0.83147 -0.00000 0.55557
vn 0.55557 -0.00000 0.83147
vn 0.55557 -0.00000 0.83147
vn 0.83147 -0.00000 0.55557
vn 0.55557 -0.00000 0.83147
vn 0.19509 -0.00000 0.98079
vn 0.19509 -0.00000 0.98079
vn 0.55557 -0.00000 0.83147
vn 0.19509 -0.00000 0.98079
vn -0.19509 -0.00000 0.98079
vn -0.19509 -0.00000 0.98079
vn 0.19509 -0.00000 0.98079
vn -0.19509 -0.00000 0.98079
vn -0.55557 -0.00000 0.83147
vn -0.55557 -0.00000 0.83147
vn -0.19509 -0.00000 0.98079
vn -0.55557 -0.00000 0.83147
vn -0.83147 -0.00000 0.55557
vn -0.83147 -0.00000 0.55557
vn -0.55557 -0.00000 0.83147
vn -0.83147 -0.00000 0.55557
vn -0.98079 -0.00000 0.19509
vn -0.98079 -0.00000 0.19509
vn -0.83147 -0.00000 0.55557
vn -0.98079 -0.00000 0.19509
vn -1.00000 0.00000 0.00000
vn -1.00000 0.00000 0.00000
vn -0.98079 -0.00000 0.19509
vn 1.00000 0.00000 -0.00000
vn 0.98079 -0.00000 0.19509
vn 0.98079 -0.00000 0.19509
vn 1.00000 0.00000 -0.00000
vn 0.98079 -0.00000 0.19509
vn 0.83147 -0.00000 0.55557
vn 0.83147 -0.00000 0.55557
vn 0.98079 -0.00000 0.19509
vn 0.83147 -0.00000 0.55557
vn 0.55557 -0.00000 0.83147
vn 0.55557 -0.00000 0.83147
vn 0.83147 -0.00000 0.55557
vn 0.55557 -0.00000 0.83147
vn 0.19509 -0.00000 0.98079
vn 0.19509 -0.00000 0.98079
vn 0.55557 -0.00000 0.83147
vn 0.19509 -0.00000 0.98079
vn -0.19509 -0.00000 0.98079
vn -0.19509 -0.00000 0.98079
vn 0.19509 -0.00000 0.98079
vn -0.19509 -0.00000 0.98079
vn -0.55557 -0.00000 0.83147
vn -0.55557 -0.00000 0.83147
vn -0.19509 -0.00000 0.98079
vn -0.55557 -0.00000 0.83147
vn -0.83147 -0.00000 0.55557
vn -0.83147 -0.00000 0.55557
vn -0.55557 -0.00000 0.83147
vn -0.83147 -0.00000 0.55557
vn -0.98079 -0.00000 0.19509
vn -0.98079 -0.00000 0.19509
vn -0.83147 -0.00000 0.55557
vn -0.98079 -0.00000 0.19509
vn -1.00000 0.00000 0.00000
vn -1.00000 0.00000 0.00000
vn -0.98079 -0.00000 0.19509
vn 0.00000 -1.00000 0.00000
vn 0.00000 -1.00000 0.00000
vn 0.00000 -1.00000 0.00000
vn 0.00000 -1.00000 0.00000
vn 0.00000 -1.00000 0.00000
vn 0.00000 -1.00000 0.00000
vn 0.00000 -1.00000 0.00000
vn 0.00000 -1.00000 0.00000
vn 0.00000 -1.00000 0.00000
vn 0.00000 -1.00000 0.00000
vn 0.00000 -1.00000 0.00000
vn 0.00000 -1.00000 0.00000
vn 0.00000 -1.00000 0.00000
vn 0.00000 -1.00000 0.00000
vn 0.00000 -1.00000 0.00000
vn 0.00000 -1.00000 0.00000
vn 0.00000 -1.00000 0.00000
vn 0.00000 -1.00000 0.00000
vn 0.00000 -1.00000 0.00000
vn 0.00000 -1.00000 0.00000
vn 0.00000 -1.00000 0.00000
vn 0.00000 -1.00000 0.00000
vn 0.00000 -1.00000 0.00000
vn 0.00000 -1.00000 0.00000
vn 0.00000 -1.00000 0.00000
vn 0.00000 -1.00000 0.00000
vn 0.00000 -1.00000 0.00000
vn 0.00000 -1.00000 0.00000
vn 0.00000 -1.00000 0.00000
vn 0.00000 -1.00000 0.00000
vn 0.00000 -1.00000 0.00000
vn 0.00000 -1.00000 0.00000
vn 0.00000 -1.00000 0.00000
vn 0.00000 -1.00000 0.00000
vn 0.00000 -1.00000 0.00000
vn 0.00000 -1.00000 0.00000
vn -0.99790 -0.06475 -0.00000
vn -0.97881 -0.06351 -0.19470
vn -0.97881 -0.06351 -0.19470
vn -0.99790 -0.06475 0.00000
vn -0.97881 -0.06351 -0.19470
vn -0.82979 -0.06351 -0.55445
vn -0.82979 -0.06351 -0.55445
vn -0.97881 -0.06351 -0.19470
vn -0.82979 -0.06351 -0.55445
vn -0.55445 -0.06351 -0.82979
vn -0.55445 -0.06351 -0.82979
vn -0.82979 -0.06351 -0.55445
vn -0.55445 -0.06351 -0.82979
vn -0.19470 -0.06351 -0.97881
vn -0.19470 -0.06351 -0.97881
vn -0.55445 -0.06351 -0.82979
vn -0.19470 -0.06351 -0.97881
vn 0.19470 -0.06351 -0.97881
vn 0.19470 -0.06351 -0.97881
vn -0.19470 -0.06351 -0.97881
vn 0.19470 -0.06351 -0.97881
vn 0.55445 -0.06351 -0.82979
vn 0.55445 -0.06351 -0.82979
vn 0.19470 -0.06351 -0.97881
vn 0.55445 -0.06351 -0.82979
vn 0.82979 -0.06351 -0.55445
vn 0.82979 -0.06351 -0.55445
vn 0.55445 -0.06351 -0.82979
vn 0.82979 -0.06351 -0.55445
vn 0.97881 -0.06351 -0.19470
vn 0.97881 -0.06351 -0.19470
vn 0.82979 -0.06351 -0.55445
vn 0.97881 -0.06351 -0.19470
vn 0.99790 -0.06475 0.00000
vn 0.99790 -0.06475 -0.00000
vn 0.97881 -0.06351 -0.19470
vn -1.00000 0.00000 0.00000
vn -0.98079 0.00000 -0.19509
vn -0.98079 0.00000 -0.19509
vn -1.00000 0.00000 -0.00000
vn -0.98079 0.00000 -0.19509
vn -0.83147 0.00000 -0.55557
vn -0.83147 0.00000 -0.55557
vn -0.98079 0.00000 -0.19509
vn -0.83147 0.00000 -0.55557
vn -0.55557 0.00000 -0.83147
vn -0.55557 0.00000 -0.83147
vn -0.83147 0.00000 -0.55557
vn -0.55557 0.00000 -0.83147
vn -0.19509 0.00000 -0.98079
vn -0.19509 0.00000 -0.98079
vn -0.55557 0.00000 -0.83147
vn -0.19509 0.00000 -0.98079
vn 0.19509 0.00000 -0.98079
vn 0.19509 0.00000 -0.98079
vn -0.19509 0.00000 -0.98079
vn 0.19509 0.00000 -0.98079
vn 0.55557 0.00000 -0.83147
vn 0.55557 0.00000 -0.83147
vn 0.19509 0.00000 -0.98079
vn 0.55557 0.00000 -0.83147
vn 0.83147 0.00000 -0.55557
vn 0.83147 0.00000 -0.55557
vn 0.55557 0.00000 -0.83147
vn 0.83147 0.00000 -0.55557
vn 0.98079 0.00000 -0.19509
vn 0.98079 0.00000 -0.19509
vn 0.83147 0.00000 -0.55557
vn 0.98079 0.00000 -0.19509
vn 1.00000 0.00000 -0.00000
vn 1.00000 0.00000 -0.00000
vn 0.98079 0.00000 -0.19509
vn 0.00000 1.00000 0.00000
vn 0.00000 1.00000 0.00000
vn 0.00000 1.00000 0.00000
vn 0.00000 1.00000 0.00000
vn 0.00000 1.00000 0.00000
vn 0.00000 1.00000 0.00000
vn 0.00000 1.00000 0.00000
vn 0.00000 1.00000 0.00000
vn 0.00000 1.00000 0.00000
vn 0.00000 1.00000 0.00000
vn 0.00000 1.00000 0.00000
vn 0.00000 1.00000 0.00000
vn 0.00000 1.00000 0.00000
vn 0.00000 1.00000 0.00000
vn 0.00000 1.00000 0.00000
vn 0.00000 1.00000 0.00000
vn 0.00000 1.00000 0.00000
vn 0.00000 1.00000 0.00000
vn 0.00000 1.00000 0.00000
vn 0.00000 1.00000 0.00000
vn 0.00000 1.00000 0.00000
vn 0.00000 1.00000 0.00000
vn 0.00000 1.00000 0.00000
vn 0.00000 1.00000 0.00000
vn 0.00000 1.00000 0.00000
vn 0.00000 1.00000 0.00000
vn 0.00000 1.00000 0.00000
vn 0.00000 1.00000 0.00000
vn 0.00000 1.00000 0.00000
vn 0.00000 1.00000 0.00000
vn 0.00000 1.00000 0.00000
vn 0.00000 1.00000 0.00000
vn 0.00000 1.00000 0.00000
vn 0.00000 1.00000 0.00000
vn 0.00000 1.00000 0.00000
vn 0.00000 1.00000 0.00000
vn 0.00000 0.00000 -1.00000
vn 0.00000 0.00000 -1.00000
vn 0.00000 0.00000 -1.00000
vn 0.00000 0.00000 -1.00000
vn 0.00000 0.00000 -1.00000
vn 0.00000 0.00000 -1.00000
vn 0.00000 0.00000 -1.00000
vn 0.00000 0.00000 -1.00000
vn 0.00000 0.00000 -1.00000
vn 0.00000 0.00000 -1.00000
vn 0.00000 0.00000 -1.00000
vn 0.00000 0.00000 -1.00000
vn 0.00000 0.00000 -1.00000
vn 0.00000 0.00000 -1.00000
vn 0.00000 0.00000 -1.00000
vn 0.00000 0.00000 -1.00000
vn 0.00000 0.00000 -1.00000
vn 0.00000 0.00000 -1.00000
vn 0.00000 0.00000 -1.00000
vn 0.00000 0.00000 -1.00000
vn 0.00000 0.00000 -1.00000
vn 0.00000 0.00000 -1.00000
vn 0.00000 0.00000 -1.00000
vn 0.00000 0.00000 -1.00000
usemtl inside
f 145/145/145 146/146/146 147/147/147 148/148/148
f 149/149/149 150/150/150 151/151/151 152/152/152
f 153/153/153 154/154/154 155/155/155 156/156/156
f 157/157/157 158/158/158 159/159/159 160/160/160
f 161/161/161 162/162/162 163/163/163 164/164/164
f 165/165/165 166/166/166 167/167/167 168/168/168
f 169/169/169 170/170/170 171/171/171 172/172/172
f 173/173/173 174/174/174 175/175/175 176/176/176
f 177/177/177 178/178/178 179/179/179 180/180/180
f 181/181/181 182/182/182 183/183/183 184/184/184
f 185/185/185 186/186/186 187/187/187 188/188/188
f 189/189/189 190/190/190 191/191/191 192/192/192
f 193/193/193 194/194/194 195/195/195 196/196/196
f 197/197/197 198/198/198 199/199/199 200/200/200
f 201/201/201 202/202/202 203/203/203 204/204/204
f 205/205/205 206/206/206 207/207/207 208/208/208
f 209/209/209 210/210/210 211/211/211 212/212/212
f 213/213/213 214/214/214 215/215/215 216/216/216
usemtl iron
f 73/73/73 74/74/74 75/75/75 76/76/76
f 77/77/77 78/78/78 79/79/79 80/80/80
f 81/81/81 82/82/82 83/83/83 84/84/84
f 85/85/85 86/86/86 87/87/87 88/88/88
f 89/89/89 90/90/90 91/91/91 92/92/92
f 93/93/93 94/94/94 95/95/95 96/96/96
f 97/97/97 98/98/98 99/99/99 100/100/100
f 101/101/101 102/102/102 103/103/103 104/104/104
f 105/105/105 106/106/106 107/107/107 108/108/108
f 109/109/109 110/110/110 111/111/111 112/112/112
f 113/113/113 114/114/114 115/115/115 116/116/116
f 117/117/117 118/118/118 119/119/119 120/120/120
f 121/121/121 122/122/122 123/123/123 124/124/124
f 125/125/125 126/126/126 127/127/127 128/128/128
f 129/129/129 130/130/130 131/131/131 132/132/132
f 133/133/133 134/134/134 135/135/135 136/136/136
f 137/137/137 138/138/138 139/139/139 140/140/140
f 141/141/141 142/142/142 143/143/143 144/144/144
f 217/217/217 218/218/218 219/219/219 220/220/220
f 221/221/221 222/222/222 223/223/223 224/224/224
f 225/225/225 226/226/226 227/227/227 228/228/228
f 229/229/229 230/230/230 231/231/231 232/232/232
f 233/233/233 234/234/234 235/235/235 236/236/236
f 237/237/237 238/238/238 239/239/239 240/240/240
f 241/241/241 242/242/242 243/243/243 244/244/244
f 245/245/245 246/246/246 247/247/247 248/248/248
f 249/249/249 250/250/250 251/251/251 252/252/252
f 269/269/269 270/270/270 271/271/271 272/272/272
f 273/273/273 274/274/274 275/275/275 276/276/276
usemtl precast
f 1/1/1 2/2/2 3/3/3 4/4/4
f 5/5/5 6/6/6 7/7/7 8/8/8
f 9/9/9 10/10/10 11/11/11 12/12/12
f 13/13/13 14/14/14 15/15/15 16/16/16
f 17/17/17 18/18/18 19/19/19 20/20/20
f 21/21/21 22/22/22 23/23/23 24/24/24
f 25/25/25 26/26/26 27/27/27 28/28/28
f 29/29/29 30/30/30 31/31/31 32/32/32
f 33/33/33 34/34/34 35/35/35 36/36/36
f 37/37/37 38/38/38 39/39/39 40/40/40
f 41/41/41 42/42/42 43/43/43 44/44/44
f 45/45/45 46/46/46 47/47/47 48/48/48
f 49/49/49 50/50/50 51/51/51 52/52/52
f 53/53/53 54/54/54 55/55/55 56/56/56
f 57/57/57 58/58/58 59/59/59 60/60/60
f 61/61/61 62/62/62 63/63/63 64/64/64
f 65/65/65 66/66/66 67/67/67 68/68/68
f 69/69/69 70/70/70 71/71/71 72/72/72
f 253/253/253 254/254/254 255/255/255 256/256/256
f 257/257/257 258/258/258 259/259/259 260/260/260
f 261/261/261 262/262/262 263/263/263 264/264/264
f 265/265/265 266/266/266 267/267/267 268/268/268
