# Generated by dev-env-utils/scripts/gen_utilities_sewer.py -- do not edit
mtllib sewer.mtl
o mh_ring_top
v 0.42541 1.00000 0.12500
v 0.57459 1.00000 0.12500
v 0.59755 1.00000 0.00961
v 0.40245 1.00000 0.00961
v 0.57459 1.00000 0.12500
v 0.71242 1.00000 0.18209
v 0.77779 1.00000 0.08427
v 0.59755 1.00000 0.00961
v 0.71242 1.00000 0.18209
v 0.81791 1.00000 0.28758
v 0.91573 1.00000 0.22221
v 0.77779 1.00000 0.08427
v 0.81791 1.00000 0.28758
v 0.87500 1.00000 0.42541
v 0.99039 1.00000 0.40245
v 0.91573 1.00000 0.22221
v 0.87500 1.00000 0.42541
v 0.87500 1.00000 0.57459
v 0.99039 1.00000 0.59755
v 0.99039 1.00000 0.40245
v 0.87500 1.00000 0.57459
v 0.81791 1.00000 0.71242
v 0.91573 1.00000 0.77779
v 0.99039 1.00000 0.59755
v 0.81791 1.00000 0.71242
v 0.71242 1.00000 0.81791
v 0.77779 1.00000 0.91573
v 0.91573 1.00000 0.77779
v 0.71242 1.00000 0.81791
v 0.57459 1.00000 0.87500
v 0.59755 1.00000 0.99039
v 0.77779 1.00000 0.91573
v 0.57459 1.00000 0.87500
v 0.42541 1.00000 0.87500
v 0.40245 1.00000 0.99039
v 0.59755 1.00000 0.99039
v 0.42541 1.00000 0.87500
v 0.28758 1.00000 0.81791
v 0.22221 1.00000 0.91573
v 0.40245 1.00000 0.99039
v 0.28758 1.00000 0.81791
v 0.18209 1.00000 0.71242
v 0.08427 1.00000 0.77779
v 0.22221 1.00000 0.91573
v 0.18209 1.00000 0.71242
v 0.12500 1.00000 0.57459
v 0.00961 1.00000 0.59755
v 0.08427 1.00000 0.77779
v 0.12500 1.00000 0.57459
v 0.12500 1.00000 0.42541
v 0.00961 1.00000 0.40245
v 0.00961 1.00000 0.59755
v 0.12500 1.00000 0.42541
v 0.18209 1.00000 0.28758
v 0.08427 1.00000 0.22221
v 0.00961 1.00000 0.40245
v 0.18209 1.00000 0.28758
v 0.28758 1.00000 0.18209
v 0.22221 1.00000 0.08427
v 0.08427 1.00000 0.22221
v 0.28758 1.00000 0.18209
v 0.42541 1.00000 0.12500
v 0.40245 1.00000 0.00961
v 0.22221 1.00000 0.08427
vt 0.00000 0.00000
vt 1.00000 0.00000
vt 1.00000 1.00000
vt 0.00000 1.00000
vt 0.00000 0.00000
vt 1.00000 0.00000
vt 1.00000 1.00000
vt 0.00000 1.00000
vt 0.00000 0.00000
vt 1.00000 0.00000
vt 1.00000 1.00000
vt 0.00000 1.00000
vt 0.00000 0.00000
vt 1.00000 0.00000
vt 1.00000 1.00000
vt 0.00000 1.00000
vt 0.00000 0.00000
vt 1.00000 0.00000
vt 1.00000 1.00000
vt 0.00000 1.00000
vt 0.00000 0.00000
vt 1.00000 0.00000
vt 1.00000 1.00000
vt 0.00000 1.00000
vt 0.00000 0.00000
vt 1.00000 0.00000
vt 1.00000 1.00000
vt 0.00000 1.00000
vt 0.00000 0.00000
vt 1.00000 0.00000
vt 1.00000 1.00000
vt 0.00000 1.00000
vt 0.00000 0.00000
vt 1.00000 0.00000
vt 1.00000 1.00000
vt 0.00000 1.00000
vt 0.00000 0.00000
vt 1.00000 0.00000
vt 1.00000 1.00000
vt 0.00000 1.00000
vt 0.00000 0.00000
vt 1.00000 0.00000
vt 1.00000 1.00000
vt 0.00000 1.00000
vt 0.00000 0.00000
vt 1.00000 0.00000
vt 1.00000 1.00000
vt 0.00000 1.00000
vt 0.00000 0.00000
vt 1.00000 0.00000
vt 1.00000 1.00000
vt 0.00000 1.00000
vt 0.00000 0.00000
vt 1.00000 0.00000
vt 1.00000 1.00000
vt 0.00000 1.00000
vt 0.00000 0.00000
vt 1.00000 0.00000
vt 1.00000 1.00000
vt 0.00000 1.00000
vt 0.00000 0.00000
vt 1.00000 0.00000
vt 1.00000 1.00000
vt 0.00000 1.00000
vn 0.00000 1.00000 0.00000
vn 0.00000 1.00000 0.00000
vn 0.00000 1.00000 0.00000
vn 0.00000 1.00000 0.00000
vn 0.00000 1.00000 0.00000
vn 0.00000 1.00000 0.00000
vn 0.00000 1.00000 0.00000
vn 0.00000 1.00000 0.00000
vn 0.00000 1.00000 0.00000
vn 0.00000 1.00000 0.00000
vn 0.00000 1.00000 0.00000
vn 0.00000 1.00000 0.00000
vn 0.00000 1.00000 0.00000
vn 0.00000 1.00000 0.00000
vn 0.00000 1.00000 0.00000
vn 0.00000 1.00000 0.00000
vn 0.00000 1.00000 0.00000
vn 0.00000 1.00000 0.00000
vn 0.00000 1.00000 0.00000
vn 0.00000 1.00000 0.00000
vn 0.00000 1.00000 0.00000
vn 0.00000 1.00000 0.00000
vn 0.00000 1.00000 0.00000
vn 0.00000 1.00000 0.00000
vn 0.00000 1.00000 0.00000
vn 0.00000 1.00000 0.00000
vn 0.00000 1.00000 0.00000
vn 0.00000 1.00000 0.00000
vn 0.00000 1.00000 0.00000
vn 0.00000 1.00000 0.00000
vn 0.00000 1.00000 0.00000
vn 0.00000 1.00000 0.00000
vn 0.00000 1.00000 0.00000
vn 0.00000 1.00000 0.00000
vn 0.00000 1.00000 0.00000
vn 0.00000 1.00000 0.00000
vn 0.00000 1.00000 0.00000
vn 0.00000 1.00000 0.00000
vn 0.00000 1.00000 0.00000
vn 0.00000 1.00000 0.00000
vn 0.00000 1.00000 0.00000
vn 0.00000 1.00000 0.00000
vn 0.00000 1.00000 0.00000
vn 0.00000 1.00000 0.00000
vn 0.00000 1.00000 0.00000
vn 0.00000 1.00000 0.00000
vn 0.00000 1.00000 0.00000
vn 0.00000 1.00000 0.00000
vn 0.00000 1.00000 0.00000
vn 0.00000 1.00000 0.00000
vn 0.00000 1.00000 0.00000
vn 0.00000 1.00000 0.00000
vn 0.00000 1.00000 0.00000
vn 0.00000 1.00000 0.00000
vn 0.00000 1.00000 0.00000
vn 0.00000 1.00000 0.00000
vn 0.00000 1.00000 0.00000
vn 0.00000 1.00000 0.00000
vn 0.00000 1.00000 0.00000
vn 0.00000 1.00000 0.00000
vn 0.00000 1.00000 0.00000
vn 0.00000 1.00000 0.00000
vn 0.00000 1.00000 0.00000
vn 0.00000 1.00000 0.00000
usemtl precast
f 1/1/1 2/2/2 3/3/3 4/4/4
f 5/5/5 6/6/6 7/7/7 8/8/8
f 9/9/9 10/10/10 11/11/11 12/12/12
f 13/13/13 14/14/14 15/15/15 16/16/16
f 17/17/17 18/18/18 19/19/19 20/20/20
f 21/21/21 22/22/22 23/23/23 24/24/24
f 25/25/25 26/26/26 27/27/27 28/28/28
f 29/29/29 30/30/30 31/31/31 32/32/32
f 33/33/33 34/34/34 35/35/35 36/36/36
f 37/37/37 38/38/38 39/39/39 40/40/40
f 41/41/41 42/42/42 43/43/43 44/44/44
f 45/45/45 46/46/46 47/47/47 48/48/48
f 49/49/49 50/50/50 51/51/51 52/52/52
f 53/53/53 54/54/54 55/55/55 56/56/56
f 57/57/57 58/58/58 59/59/59 60/60/60
f 61/61/61 62/62/62 63/63/63 64/64/64
