# Generated by dev-env-utils/scripts/gen_utilities_sewer.py -- do not edit
mtllib sewer.mtl
o wing_lower
v 0.31250 0.00000 0.00000
v 0.31250 0.00000 1.00000
v 0.31250 0.41964 1.00000
v 0.31250 0.06250 0.00000
v 0.68750 0.06250 0.00000
v 0.68750 0.41964 1.00000
v 0.68750 0.00000 1.00000
v 0.68750 0.00000 0.00000
v 0.31250 0.41964 1.00000
v 0.68750 0.41964 1.00000
v 0.68750 0.06250 0.00000
v 0.31250 0.06250 0.00000
v 0.31250 0.06250 0.00000
v 0.68750 0.06250 0.00000
v 0.68750 0.00000 0.00000
v 0.31250 0.00000 0.00000
vt 0.00000 1.00000
vt 1.00000 1.00000
vt 1.00000 0.58036
vt 0.00000 0.93750
vt 0.00000 0.93750
vt 1.00000 0.58036
vt 1.00000 1.00000
vt 0.00000 1.00000
vt 0.31250 1.00000
vt 0.68750 1.00000
vt 0.68750 0.00000
vt 0.31250 0.00000
vt 0.68750 0.93750
vt 0.31250 0.93750
vt 0.31250 1.00000
vt 0.68750 1.00000
vn -1.00000 0.00000 0.00000
vn -1.00000 0.00000 0.00000
vn -1.00000 0.00000 0.00000
vn -1.00000 0.00000 0.00000
vn 1.00000 0.00000 0.00000
vn 1.00000 0.00000 0.00000
vn 1.00000 0.00000 0.00000
vn 1.00000 0.00000 0.00000
vn 0.00000 0.94174 -0.33634
vn 0.00000 0.94174 -0.33634
vn 0.00000 0.94174 -0.33634
vn 0.00000 0.94174 -0.33634
vn 0.00000 0.00000 -1.00000
vn 0.00000 0.00000 -1.00000
vn 0.00000 0.00000 -1.00000
vn 0.00000 0.00000 -1.00000
usemtl precast
f 1/1/1 2/2/2 3/3/3 4/4/4
f 5/5/5 6/6/6 7/7/7 8/8/8
f 9/9/9 10/10/10 11/11/11 12/12/12
f 13/13/13 14/14/14 15/15/15 16/16/16
