# Generated by dev-env-utils/scripts/gen_utilities_water.py -- do not edit
mtllib water_tower.mtl
o bowl_medium_1_1_1
v -1.00000 -0.93750 -0.76812
v -0.76812 -0.93750 -1.00000
v -0.74325 -1.00000 -1.00000
v -1.00000 -1.00000 -0.74325
v -1.00000 0.20000 -0.76812
v -0.76812 0.20000 -1.00000
v -0.76812 -0.93750 -1.00000
v -1.00000 -0.93750 -0.76812
v -1.00000 1.40000 -0.76812
v -0.76812 1.40000 -1.00000
v -0.76812 0.20000 -1.00000
v -1.00000 0.20000 -0.76812
v -0.76812 1.40000 -1.00000
v -1.00000 1.40000 -0.76812
v -1.00000 2.00000 -0.76812
v -0.76812 2.00000 -1.00000
v -1.00000 -0.93750 -0.76812
v -0.76812 -0.93750 -1.00000
v -1.00000 -0.93750 -1.00000
vt 0.43353 0.00000
vt 0.56647 0.00000
vt 0.57364 0.08327
vt 0.42595 0.08327
vt 0.43353 0.00000
vt 0.56647 0.00000
vt 0.56647 1.00000
vt 0.43353 1.00000
vt 0.43353 0.00000
vt 0.56647 0.00000
vt 0.56647 1.00000
vt 0.43353 1.00000
vt 0.56647 1.00000
vt 0.43353 1.00000
vt 0.43353 0.33333
vt 0.56647 0.33333
vt 0.43353 0.00000
vt 0.56647 0.00000
vt 0.49108 0.14257
vn -0.69742 -0.27576 -0.66148
vn -0.66198 -0.27576 -0.69695
vn -0.65620 -0.29383 -0.69503
vn -0.69534 -0.29381 -0.65588
vn -0.72555 0.00000 -0.68817
vn -0.68872 0.00000 -0.72502
vn -0.68872 0.00000 -0.72502
vn -0.72555 0.00000 -0.68817
vn -0.72555 0.00000 -0.68817
vn -0.68872 0.00000 -0.72502
vn -0.68872 0.00000 -0.72502
vn -0.72555 0.00000 -0.68817
vn -0.68872 0.00000 -0.72502
vn -0.72555 0.00000 -0.68817
vn -0.72555 0.00000 -0.68817
vn -0.68872 0.00000 -0.72502
vn 0.00000 1.00000 0.00000
vn 0.00000 1.00000 0.00000
vn 0.00000 1.00000 0.00000
usemtl grating
f 17/17/17 18/18/18 19/19/19
usemtl paint
f 1/1/1 2/2/2 3/3/3 4/4/4
f 5/5/5 6/6/6 7/7/7 8/8/8
f 9/9/9 10/10/10 11/11/11 12/12/12
f 13/13/13 14/14/14 15/15/15 16/16/16
