# Generated by dev-env-utils/scripts/gen_utilities_water.py -- do not edit
mtllib water_tower.mtl
o bowl_small_band_0_1
v -1.00000 -0.12000 0.44119
v -0.17630 -0.12000 0.10000
v -0.17630 -0.92000 0.10000
v -1.00000 -0.92000 0.44119
v -0.17630 -0.12000 0.10000
v 1.17630 -0.12000 0.10000
v 1.17630 -0.92000 0.10000
v -0.17630 -0.92000 0.10000
v 1.17630 -0.12000 0.10000
v 2.00000 -0.12000 0.44119
v 2.00000 -0.92000 0.44119
v 1.17630 -0.92000 0.10000
vt 1.00000 0.12969
vt 0.71568 0.12969
vt 0.71568 0.24531
vt 1.00000 0.24531
vt 0.71568 0.12969
vt 0.28432 0.12969
vt 0.28432 0.24531
vt 0.71568 0.24531
vt 0.28432 0.12969
vt 0.00000 0.12969
vt 0.00000 0.24531
vt 0.28432 0.24531
vn -0.38268 0.00000 -0.92388
vn -0.38268 0.00000 -0.92388
vn -0.38268 0.00000 -0.92388
vn -0.38268 0.00000 -0.92388
vn 0.00000 0.00000 -1.00000
vn 0.00000 0.00000 -1.00000
vn 0.00000 0.00000 -1.00000
vn 0.00000 0.00000 -1.00000
vn 0.38268 0.00000 -0.92388
vn 0.38268 0.00000 -0.92388
vn 0.38268 0.00000 -0.92388
vn 0.38268 0.00000 -0.92388
usemtl band
f 1/1/1 2/2/2 3/3/3 4/4/4
f 5/5/5 6/6/6 7/7/7 8/8/8
f 9/9/9 10/10/10 11/11/11 12/12/12
