# Generated by dev-env-utils/scripts/gen_utilities_water.py -- do not edit
mtllib water_tower.mtl
o bowl_medium_0_1_0
v 0.40658 0.61250 2.00000
v 0.45850 0.61250 1.94808
v 0.49320 0.57517 2.00000
v 0.45850 0.61250 1.94808
v 2.00000 0.61250 1.30957
v 2.00000 0.22367 2.00000
v 0.49320 0.57517 2.00000
v -0.46936 1.31192 2.00000
v 0.10765 1.31192 1.42299
v 0.45850 0.61250 1.94808
v 0.40658 0.61250 2.00000
v 0.10765 1.31192 1.42299
v 2.00000 1.31192 0.63915
v 2.00000 0.61250 1.30957
v 0.45850 0.61250 1.94808
v -0.00205 2.00000 1.25881
v 0.10765 1.31192 1.42299
v -0.46936 1.31192 2.00000
v -0.74325 2.00000 2.00000
v 2.00000 2.00000 0.42953
v 2.00000 1.31192 0.63915
v 0.10765 1.31192 1.42299
v -0.00205 2.00000 1.25881
v -1.00000 1.96250 0.60553
v -0.66344 1.96250 0.26897
v -0.01202 1.96250 1.24389
v -0.76812 1.96250 2.00000
v -1.00000 1.96250 0.60553
v -0.76812 1.96250 2.00000
v -1.00000 1.96250 2.00000
v -0.66344 1.96250 0.26897
v 2.00000 1.96250 -0.83426
v 2.00000 1.96250 0.41049
v -0.01202 1.96250 1.24389
v -0.66344 2.00000 0.26897
v -0.66344 1.96250 0.26897
v -1.00000 1.96250 0.60553
v -1.00000 2.00000 0.60553
v 2.00000 2.00000 -0.83426
v 2.00000 1.96250 -0.83426
v -0.66344 1.96250 0.26897
v -0.66344 2.00000 0.26897
vt 0.96562 0.00000
vt 1.00000 0.00000
vt 1.00000 0.06216
vt 0.00000 0.00000
vt 0.78111 0.00000
vt 0.67052 0.64739
vt 0.00000 0.06216
vt 0.65749 0.00000
vt 1.00000 0.00000
vt 1.00000 1.00000
vt 0.96562 1.00000
vt 0.00000 0.00000
vt 0.85972 0.00000
vt 0.78111 1.00000
vt 0.00000 1.00000
vt 1.00000 0.08327
vt 1.00000 1.00000
vt 0.65749 1.00000
vt 0.57364 0.08327
vt 0.88101 0.08327
vt 0.85972 1.00000
vt 0.00000 1.00000
vt 0.00000 0.08327
vt 0.83722 1.00000
vt 1.00000 1.00000
vt 1.00000 0.00000
vt 0.56647 0.00000
vt 0.83722 1.00000
vt 0.56647 0.00000
vt 0.49108 0.14257
vt 0.00000 1.00000
vt 0.98594 1.00000
vt 0.88294 0.00000
vt 0.00000 0.00000
vt 1.00000 0.82955
vt 1.00000 1.00000
vt 0.83722 1.00000
vt 0.83722 0.82955
vt 0.98594 0.82955
vt 0.98594 1.00000
vt 0.00000 1.00000
vt 0.00000 0.82955
vn -0.36298 -0.76775 -0.52802
vn -0.35651 -0.76695 -0.53356
vn -0.34989 -0.77677 -0.52364
vn -0.35651 -0.76695 -0.53356
vn -0.17677 -0.77109 -0.61169
vn -0.15752 -0.86428 -0.47771
vn -0.34989 -0.77677 -0.52364
vn -0.57887 -0.48553 -0.65511
vn -0.48767 -0.47905 -0.72985
vn -0.35651 -0.76695 -0.53356
vn -0.36298 -0.76775 -0.52802
vn -0.48767 -0.47905 -0.72985
vn -0.21718 -0.48248 -0.84856
vn -0.17677 -0.77109 -0.61169
vn -0.35651 -0.76695 -0.53356
vn -0.53189 -0.28882 -0.79603
vn -0.48767 -0.47905 -0.72985
vn -0.57887 -0.48553 -0.65511
vn -0.65620 -0.29383 -0.69503
vn -0.22947 -0.29095 -0.92881
vn -0.21718 -0.48248 -0.84856
vn -0.48767 -0.47905 -0.72985
vn -0.53189 -0.28882 -0.79603
vn 0.00000 -1.00000 0.00000
vn 0.00000 -1.00000 0.00000
vn 0.00000 -1.00000 0.00000
vn 0.00000 -1.00000 0.00000
vn 0.00000 -1.00000 0.00000
vn 0.00000 -1.00000 0.00000
vn 0.00000 -1.00000 0.00000
vn 0.00000 -1.00000 0.00000
vn 0.00000 -1.00000 0.00000
vn 0.00000 -1.00000 0.00000
vn 0.00000 -1.00000 0.00000
vn -0.55557 0.00000 -0.83147
vn -0.55557 0.00000 -0.83147
vn -0.60681 0.00000 -0.79485
vn -0.60681 0.00000 -0.79485
vn -0.20037 0.00000 -0.97972
vn -0.20037 0.00000 -0.97972
vn -0.55557 0.00000 -0.83147
vn -0.55557 0.00000 -0.83147
usemtl paint
f 1/1/1 2/2/2 3/3/3
f 4/4/4 5/5/5 6/6/6 7/7/7
f 8/8/8 9/9/9 10/10/10 11/11/11
f 12/12/12 13/13/13 14/14/14 15/15/15
f 16/16/16 17/17/17 18/18/18 19/19/19
f 20/20/20 21/21/21 22/22/22 23/23/23
f 24/24/24 25/25/25 26/26/26 27/27/27
f 28/28/28 29/29/29 30/30/30
f 31/31/31 32/32/32 33/33/33 34/34/34
f 35/35/35 36/36/36 37/37/37 38/38/38
f 39/39/39 40/40/40 41/41/41 42/42/42
