# Generated by dev-env-utils/scripts/gen_utilities_water.py -- do not edit
mtllib water_tower.mtl
o bowl_medium_0_2_1
v 0.18081 -0.73868 1.89532
v 0.81919 -0.73868 1.89532
v 0.79837 -0.74513 2.00000
v 0.20163 -0.74513 2.00000
v 0.81919 -0.73868 1.89532
v 1.07191 -0.73868 2.00000
v 0.79837 -0.74513 2.00000
v -0.07191 -0.73868 2.00000
v 0.18081 -0.73868 1.89532
v 0.20163 -0.74513 2.00000
v -0.11663 -0.44897 0.40000
v 1.11663 -0.44897 0.40000
v 0.81919 -0.73868 1.89532
v 0.18081 -0.73868 1.89532
v 1.11663 -0.44897 0.40000
v 2.00000 -0.44897 0.76590
v 2.00000 -0.53654 1.25509
v 1.50227 -0.70678 2.00000
v 1.11663 -0.44897 0.40000
v 1.50227 -0.70678 2.00000
v 1.07191 -0.73868 2.00000
v 0.81919 -0.73868 1.89532
v 1.50227 -0.70678 2.00000
v 2.00000 -0.53654 1.25509
v 2.00000 -0.63859 2.00000
v -1.00000 -0.53654 1.25509
v -0.50227 -0.70678 2.00000
v -1.00000 -0.63859 2.00000
v -1.00000 -0.44897 0.76590
v -0.11663 -0.44897 0.40000
v 0.18081 -0.73868 1.89532
v -0.07191 -0.73868 2.00000
v -1.00000 -0.44897 0.76590
v -0.07191 -0.73868 2.00000
v -0.50227 -0.70678 2.00000
v -1.00000 -0.53654 1.25509
v -0.37204 0.01189 -0.88406
v 1.37204 0.01189 -0.88406
v 1.11663 -0.44897 0.40000
v -0.11663 -0.44897 0.40000
v 1.37204 0.01189 -0.88406
v 2.00000 0.01189 -0.62395
v 2.00000 -0.44897 0.76590
v 1.11663 -0.44897 0.40000
v -1.00000 0.01189 -0.62395
v -0.37204 0.01189 -0.88406
v -0.11663 -0.44897 0.40000
v -1.00000 -0.44897 0.76590
v 1.39511 0.08256 -1.00000
v 1.37204 0.01189 -0.88406
v -0.37204 0.01189 -0.88406
v -0.39511 0.08256 -1.00000
v 2.00000 0.22367 -1.00000
v 2.00000 0.01189 -0.62395
v 1.37204 0.01189 -0.88406
v 1.39511 0.08256 -1.00000
v -0.39511 0.08256 -1.00000
v -0.37204 0.01189 -0.88406
v -1.00000 0.01189 -0.62395
v -1.00000 0.22367 -1.00000
vt 0.00000 0.00000
vt 1.00000 0.00000
vt 0.93477 0.06523
vt 0.00000 0.06523
vt 0.00000 0.00000
vt 0.42849 0.00000
vt 0.00000 0.06523
vt 0.57151 0.00000
vt 1.00000 0.00000
vt 0.93477 0.06523
vt 0.00000 0.00000
vt 1.00000 0.00000
vt 1.00000 1.00000
vt 0.00000 1.00000
vt 0.00000 0.00000
vt 0.77531 0.00000
vt 1.00000 0.30224
vt 1.00000 0.88986
vt 0.00000 0.00000
vt 1.00000 0.88986
vt 0.42849 1.00000
vt 0.00000 1.00000
vt 0.00000 0.88986
vt 0.00000 0.30224
vt 0.59946 0.65449
vt 1.00000 0.30224
vt 1.00000 0.88986
vt 0.40054 0.65449
vt 0.22469 0.00000
vt 1.00000 0.00000
vt 1.00000 1.00000
vt 0.57151 1.00000
vt 0.22469 0.00000
vt 0.57151 1.00000
vt 0.00000 0.88986
vt 0.00000 0.30224
vt 0.00000 0.00000
vt 1.00000 0.00000
vt 1.00000 1.00000
vt 0.00000 1.00000
vt 0.00000 0.00000
vt 0.38971 0.00000
vt 0.77531 1.00000
vt 0.00000 1.00000
vt 0.61029 0.00000
vt 1.00000 0.00000
vt 1.00000 1.00000
vt 0.22469 1.00000
vt 1.00000 0.88233
vt 1.00000 1.00000
vt 0.00000 1.00000
vt 0.00000 0.88233
vt 0.32948 0.64739
vt 0.38971 1.00000
vt 0.00000 1.00000
vt 0.00000 0.88233
vt 1.00000 0.88233
vt 1.00000 1.00000
vt 0.61029 1.00000
vt 0.67052 0.64739
vn -0.02460 -0.99202 -0.12368
vn 0.02460 -0.99202 -0.12368
vn 0.02222 -0.99258 -0.11956
vn -0.02378 -0.99254 -0.11956
vn 0.02460 -0.99202 -0.12368
vn 0.04409 -0.99231 -0.11564
vn 0.02378 -0.99254 -0.11956
vn -0.04409 -0.99231 -0.11564
vn -0.02460 -0.99202 -0.12368
vn -0.02523 -0.99258 -0.11896
vn -0.05166 -0.96431 -0.25970
vn 0.05166 -0.96431 -0.25970
vn 0.02460 -0.99202 -0.12368
vn -0.02460 -0.99202 -0.12368
vn 0.05166 -0.96431 -0.25970
vn 0.12578 -0.96520 -0.22926
vn 0.12408 -0.97474 -0.18570
vn 0.07864 -0.98993 -0.11769
vn 0.05166 -0.96431 -0.25970
vn 0.07864 -0.98993 -0.11769
vn 0.04409 -0.99231 -0.11564
vn 0.02460 -0.99202 -0.12368
vn 0.07864 -0.98993 -0.11769
vn 0.12408 -0.97474 -0.18570
vn 0.12041 -0.98524 -0.12168
vn -0.12408 -0.97474 -0.18570
vn -0.07864 -0.98993 -0.11769
vn -0.12041 -0.98524 -0.12168
vn -0.12578 -0.96520 -0.22926
vn -0.05166 -0.96431 -0.25970
vn -0.02460 -0.99202 -0.12368
vn -0.04409 -0.99231 -0.11564
vn -0.12578 -0.96520 -0.22926
vn -0.04409 -0.99231 -0.11564
vn -0.07864 -0.98993 -0.11769
vn -0.12408 -0.97474 -0.18570
vn -0.08416 -0.90218 -0.42308
vn 0.08416 -0.90218 -0.42308
vn 0.05166 -0.96431 -0.25970
vn -0.05166 -0.96431 -0.25970
vn 0.08416 -0.90218 -0.42308
vn 0.14525 -0.90523 -0.39933
vn 0.12578 -0.96520 -0.22926
vn 0.05166 -0.96431 -0.25970
vn -0.14525 -0.90523 -0.39933
vn -0.08416 -0.90218 -0.42308
vn -0.05166 -0.96431 -0.25970
vn -0.12578 -0.96520 -0.22926
vn 0.08927 -0.88915 -0.44881
vn 0.08416 -0.90218 -0.42308
vn -0.08416 -0.90218 -0.42308
vn -0.08927 -0.88915 -0.44881
vn 0.15752 -0.86428 -0.47771
vn 0.14525 -0.90523 -0.39933
vn 0.08416 -0.90218 -0.42308
vn 0.08927 -0.88915 -0.44881
vn -0.08927 -0.88915 -0.44881
vn -0.08416 -0.90218 -0.42308
vn -0.14525 -0.90523 -0.39933
vn -0.15752 -0.86428 -0.47771
usemtl paint
f 1/1/1 2/2/2 3/3/3 4/4/4
f 5/5/5 6/6/6 7/7/7
f 8/8/8 9/9/9 10/10/10
f 11/11/11 12/12/12 13/13/13 14/14/14
f 15/15/15 16/16/16 17/17/17 18/18/18
f 19/19/19 20/20/20 21/21/21 22/22/22
f 23/23/23 24/24/24 25/25/25
f 26/26/26 27/27/27 28/28/28
f 29/29/29 30/30/30 31/31/31 32/32/32
f 33/33/33 34/34/34 35/35/35 36/36/36
f 37/37/37 38/38/38 39/39/39 40/40/40
f 41/41/41 42/42/42 43/43/43 44/44/44
f 45/45/45 46/46/46 47/47/47 48/48/48
f 49/49/49 50/50/50 51/51/51 52/52/52
f 53/53/53 54/54/54 55/55/55 56/56/56
f 57/57/57 58/58/58 59/59/59 60/60/60
