# Generated by dev-env-utils/scripts/gen_utilities_water.py -- do not edit
mtllib water_tower.mtl
o bowl_small_1_1_0
v -0.17630 -0.92000 0.10000
v 1.17630 -0.92000 0.10000
v 1.17630 -1.00000 0.10000
v -0.17630 -1.00000 0.10000
v 1.17630 -0.92000 0.10000
v 2.00000 -0.92000 0.44119
v 2.00000 -1.00000 0.44119
v 1.17630 -1.00000 0.10000
v -1.00000 -0.92000 0.44119
v -0.17630 -0.92000 0.10000
v -0.17630 -1.00000 0.10000
v -1.00000 -1.00000 0.44119
v -0.17630 -0.12000 0.10000
v 1.17630 -0.12000 0.10000
v 1.17630 -0.92000 0.10000
v -0.17630 -0.92000 0.10000
v 1.17630 -0.12000 0.10000
v 2.00000 -0.12000 0.44119
v 2.00000 -0.92000 0.44119
v 1.17630 -0.92000 0.10000
v -1.00000 -0.12000 0.44119
v -0.17630 -0.12000 0.10000
v -0.17630 -0.92000 0.10000
v -1.00000 -0.92000 0.44119
v -0.17630 0.00000 0.10000
v 1.17630 0.00000 0.10000
v 1.17630 -0.12000 0.10000
v -0.17630 -0.12000 0.10000
v 1.17630 0.00000 0.10000
v 2.00000 0.00000 0.44119
v 2.00000 -0.12000 0.44119
v 1.17630 -0.12000 0.10000
v -1.00000 0.00000 0.44119
v -0.17630 0.00000 0.10000
v -0.17630 -0.12000 0.10000
v -1.00000 -0.12000 0.44119
v 0.79837 0.57000 2.00000
v 1.17630 0.00000 0.10000
v -0.17630 0.00000 0.10000
v 0.20163 0.57000 2.00000
v 1.50227 0.48919 2.00000
v 2.00000 0.22558 1.25509
v 2.00000 0.00000 0.44119
v 1.17630 0.00000 0.10000
v 1.50227 0.48919 2.00000
v 1.17630 0.00000 0.10000
v 0.79837 0.57000 2.00000
v 2.00000 0.38360 2.00000
v 2.00000 0.22558 1.25509
v 1.50227 0.48919 2.00000
v -0.50227 0.48919 2.00000
v -1.00000 0.22558 1.25509
v -1.00000 0.38360 2.00000
v 0.20163 0.57000 2.00000
v -0.17630 0.00000 0.10000
v -1.00000 0.00000 0.44119
v -1.00000 0.22558 1.25509
v 0.20163 0.57000 2.00000
v -1.00000 0.22558 1.25509
v -0.50227 0.48919 2.00000
v -0.37720 -0.83750 -0.91000
v 1.37720 -0.83750 -0.91000
v 1.37720 -1.00000 -0.91000
v -0.37720 -1.00000 -0.91000
v 1.37720 -0.83750 -0.91000
v 2.00000 -0.83750 -0.65203
v 2.00000 -1.00000 -0.65203
v 1.37720 -1.00000 -0.91000
v -1.00000 -0.83750 -0.65203
v -0.37720 -0.83750 -0.91000
v -0.37720 -1.00000 -0.91000
v -1.00000 -1.00000 -0.65203
v 1.37720 -1.00000 -0.91000
v 1.37720 -0.83750 -0.91000
v -0.37720 -0.83750 -0.91000
v -0.37720 -1.00000 -0.91000
v 2.00000 -1.00000 -0.65203
v 2.00000 -0.83750 -0.65203
v 1.37720 -0.83750 -0.91000
v 1.37720 -1.00000 -0.91000
v -0.37720 -1.00000 -0.91000
v -0.37720 -0.83750 -0.91000
v -1.00000 -0.83750 -0.65203
v -1.00000 -1.00000 -0.65203
vt 0.00000 0.00000
vt 1.00000 0.00000
vt 1.00000 0.07862
vt 0.00000 0.07862
vt 0.00000 0.00000
vt 0.65915 0.00000
vt 0.65915 0.07862
vt 0.00000 0.07862
vt 0.34085 0.00000
vt 1.00000 0.00000
vt 1.00000 0.07862
vt 0.34085 0.07862
vt 0.00000 0.00000
vt 1.00000 0.00000
vt 1.00000 1.00000
vt 0.00000 1.00000
vt 0.00000 0.00000
vt 0.65915 0.00000
vt 0.65915 1.00000
vt 0.00000 1.00000
vt 0.34085 0.00000
vt 1.00000 0.00000
vt 1.00000 1.00000
vt 0.34085 1.00000
vt 0.00000 0.00000
vt 1.00000 0.00000
vt 1.00000 1.00000
vt 0.00000 1.00000
vt 0.00000 0.00000
vt 0.65915 0.00000
vt 0.65915 1.00000
vt 0.00000 1.00000
vt 0.34085 0.00000
vt 1.00000 0.00000
vt 1.00000 1.00000
vt 0.34085 1.00000
vt 1.00000 0.38710
vt 1.00000 1.00000
vt 0.00000 1.00000
vt 0.00000 0.38710
vt 1.00000 0.47399
vt 1.00000 0.75744
vt 0.65915 1.00000
vt 0.00000 1.00000
vt 1.00000 0.47399
vt 0.00000 1.00000
vt 0.00000 0.38710
vt 0.59946 0.58752
vt 0.00000 0.75744
vt 0.00000 0.47399
vt 1.00000 0.47399
vt 1.00000 0.75744
vt 0.40054 0.58752
vt 1.00000 0.38710
vt 1.00000 1.00000
vt 0.34085 1.00000
vt 0.00000 0.75744
vt 1.00000 0.38710
vt 0.00000 0.75744
vt 0.00000 0.47399
vt 0.00000 0.00000
vt 1.00000 0.00000
vt 1.00000 0.14773
vt 0.00000 0.14773
vt 0.00000 0.00000
vt 0.38424 0.00000
vt 0.38424 0.14773
vt 0.00000 0.14773
vt 0.61576 0.00000
vt 1.00000 0.00000
vt 1.00000 0.14773
vt 0.61576 0.14773
vt 1.00000 0.14773
vt 1.00000 0.00000
vt 0.00000 0.00000
vt 0.00000 0.14773
vt 0.38424 0.14773
vt 0.38424 0.00000
vt 0.00000 0.00000
vt 0.00000 0.14773
vt 1.00000 0.14773
vt 1.00000 0.00000
vt 0.61576 0.00000
vt 0.61576 0.14773
vn -0.19509 0.00000 -0.98079
vn 0.19509 0.00000 -0.98079
vn 0.19509 0.00000 -0.98079
vn -0.19509 0.00000 -0.98079
vn 0.19509 0.00000 -0.98079
vn 0.44029 0.00000 -0.89785
vn 0.44029 0.00000 -0.89785
vn 0.19509 0.00000 -0.98079
vn -0.44029 0.00000 -0.89785
vn -0.19509 0.00000 -0.98079
vn -0.19509 0.00000 -0.98079
vn -0.44029 0.00000 -0.89785
vn -0.19509 0.00000 -0.98079
vn 0.19509 0.00000 -0.98079
vn 0.19509 0.00000 -0.98079
vn -0.19509 0.00000 -0.98079
vn 0.19509 0.00000 -0.98079
vn 0.44029 0.00000 -0.89785
vn 0.44029 0.00000 -0.89785
vn 0.19509 0.00000 -0.98079
vn -0.44029 0.00000 -0.89785
vn -0.19509 0.00000 -0.98079
vn -0.19509 0.00000 -0.98079
vn -0.44029 0.00000 -0.89785
vn -0.19509 0.00000 -0.98079
vn 0.19509 0.00000 -0.98079
vn 0.19509 0.00000 -0.98079
vn -0.19509 0.00000 -0.98079
vn 0.19509 0.00000 -0.98079
vn 0.44029 0.00000 -0.89785
vn 0.44029 0.00000 -0.89785
vn 0.19509 0.00000 -0.98079
vn -0.44029 0.00000 -0.89785
vn -0.19509 0.00000 -0.98079
vn -0.19509 0.00000 -0.98079
vn -0.44029 0.00000 -0.89785
vn 0.05606 0.95783 -0.28183
vn 0.05606 0.95783 -0.28183
vn -0.05606 0.95783 -0.28183
vn -0.05606 0.95783 -0.28183
vn 0.15964 0.95783 -0.23892
vn 0.15964 0.95783 -0.23892
vn 0.12451 0.95918 -0.25390
vn 0.05606 0.95783 -0.28183
vn 0.15964 0.95783 -0.23892
vn 0.05606 0.95783 -0.28183
vn 0.05606 0.95783 -0.28183
vn 0.20748 0.95928 -0.19169
vn 0.15964 0.95783 -0.23892
vn 0.15964 0.95783 -0.23892
vn -0.15964 0.95783 -0.23892
vn -0.15964 0.95783 -0.23892
vn -0.20748 0.95928 -0.19169
vn -0.05606 0.95783 -0.28183
vn -0.05606 0.95783 -0.28183
vn -0.12451 0.95918 -0.25390
vn -0.15964 0.95783 -0.23892
vn -0.05606 0.95783 -0.28183
vn -0.15964 0.95783 -0.23892
vn -0.15964 0.95783 -0.23892
vn -0.19509 0.00000 -0.98079
vn 0.19509 0.00000 -0.98079
vn 0.19509 0.00000 -0.98079
vn -0.19509 0.00000 -0.98079
vn 0.19509 0.00000 -0.98079
vn 0.33978 0.00000 -0.94051
vn 0.33978 0.00000 -0.94051
vn 0.19509 0.00000 -0.98079
vn -0.33978 0.00000 -0.94051
vn -0.19509 0.00000 -0.98079
vn -0.19509 0.00000 -0.98079
vn -0.33978 0.00000 -0.94051
vn -0.19509 0.00000 0.98079
vn -0.19509 -0.00000 0.98079
vn 0.19509 -0.00000 0.98079
vn 0.19509 0.00000 0.98079
vn -0.33978 0.00000 0.94051
vn -0.33978 0.00000 0.94051
vn -0.19509 -0.00000 0.98079
vn -0.19509 0.00000 0.98079
vn 0.19509 0.00000 0.98079
vn 0.19509 -0.00000 0.98079
vn 0.33978 0.00000 0.94051
vn 0.33978 0.00000 0.94051
usemtl paint
f 1/1/1 2/2/2 3/3/3 4/4/4
f 5/5/5 6/6/6 7/7/7 8/8/8
f 9/9/9 10/10/10 11/11/11 12/12/12
f 13/13/13 14/14/14 15/15/15 16/16/16
f 17/17/17 18/18/18 19/19/19 20/20/20
f 21/21/21 22/22/22 23/23/23 24/24/24
f 25/25/25 26/26/26 27/27/27 28/28/28
f 29/29/29 30/30/30 31/31/31 32/32/32
f 33/33/33 34/34/34 35/35/35 36/36/36
f 37/37/37 38/38/38 39/39/39 40/40/40
f 41/41/41 42/42/42 43/43/43 44/44/44
f 45/45/45 46/46/46 47/47/47
f 48/48/48 49/49/49 50/50/50
f 51/51/51 52/52/52 53/53/53
f 54/54/54 55/55/55 56/56/56 57/57/57
f 58/58/58 59/59/59 60/60/60
usemtl railing
f 61/61/61 62/62/62 63/63/63 64/64/64
f 65/65/65 66/66/66 67/67/67 68/68/68
f 69/69/69 70/70/70 71/71/71 72/72/72
f 73/73/73 74/74/74 75/75/75 76/76/76
f 77/77/77 78/78/78 79/79/79 80/80/80
f 81/81/81 82/82/82 83/83/83 84/84/84
