# Generated by dev-env-utils/scripts/gen_utilities_water.py -- do not edit
mtllib water_tower.mtl
o bowl_small_1_0_0
v 0.44119 -0.92000 2.00000
v 0.61762 -0.92000 1.57405
v 0.61762 -1.00000 1.57405
v 0.44119 -1.00000 2.00000
v 0.61762 -0.92000 1.57405
v 1.57405 -0.92000 0.61762
v 1.57405 -1.00000 0.61762
v 0.61762 -1.00000 1.57405
v 1.57405 -0.92000 0.61762
v 2.00000 -0.92000 0.44119
v 2.00000 -1.00000 0.44119
v 1.57405 -1.00000 0.61762
v 0.44119 -0.12000 2.00000
v 0.61762 -0.12000 1.57405
v 0.61762 -0.92000 1.57405
v 0.44119 -0.92000 2.00000
v 0.61762 -0.12000 1.57405
v 1.57405 -0.12000 0.61762
v 1.57405 -0.92000 0.61762
v 0.61762 -0.92000 1.57405
v 1.57405 -0.12000 0.61762
v 2.00000 -0.12000 0.44119
v 2.00000 -0.92000 0.44119
v 1.57405 -0.92000 0.61762
v 0.44119 0.00000 2.00000
v 0.61762 0.00000 1.57405
v 0.61762 -0.12000 1.57405
v 0.44119 -0.12000 2.00000
v 0.61762 0.00000 1.57405
v 1.57405 0.00000 0.61762
v 1.57405 -0.12000 0.61762
v 0.61762 -0.12000 1.57405
v 1.57405 0.00000 0.61762
v 2.00000 0.00000 0.44119
v 2.00000 -0.12000 0.44119
v 1.57405 -0.12000 0.61762
v 1.25509 0.22558 2.00000
v 0.61762 0.00000 1.57405
v 0.44119 0.00000 2.00000
v 2.00000 0.22558 1.25509
v 1.57405 0.00000 0.61762
v 0.61762 0.00000 1.57405
v 1.25509 0.22558 2.00000
v 2.00000 0.22558 1.25509
v 1.25509 0.22558 2.00000
v 2.00000 0.38360 2.00000
v 2.00000 0.00000 0.44119
v 1.57405 0.00000 0.61762
v 2.00000 0.22558 1.25509
v -0.65203 -0.83750 2.00000
v -0.23862 -0.83750 1.00194
v -0.23862 -1.00000 1.00194
v -0.65203 -1.00000 2.00000
v -0.23862 -0.83750 1.00194
v 1.00194 -0.83750 -0.23862
v 1.00194 -1.00000 -0.23862
v -0.23862 -1.00000 1.00194
v 1.00194 -0.83750 -0.23862
v 2.00000 -0.83750 -0.65203
v 2.00000 -1.00000 -0.65203
v 1.00194 -1.00000 -0.23862
v -0.23862 -1.00000 1.00194
v -0.23862 -0.83750 1.00194
v -0.65203 -0.83750 2.00000
v -0.65203 -1.00000 2.00000
v 1.00194 -1.00000 -0.23862
v 1.00194 -0.83750 -0.23862
v -0.23862 -0.83750 1.00194
v -0.23862 -1.00000 1.00194
v 2.00000 -1.00000 -0.65203
v 2.00000 -0.83750 -0.65203
v 1.00194 -0.83750 -0.23862
v 1.00194 -1.00000 -0.23862
vt 0.65915 0.00000
vt 1.00000 0.00000
vt 1.00000 0.07862
vt 0.65915 0.07862
vt 0.00000 0.00000
vt 1.00000 0.00000
vt 1.00000 0.07862
vt 0.00000 0.07862
vt 0.00000 0.00000
vt 0.34085 0.00000
vt 0.34085 0.07862
vt 0.00000 0.07862
vt 0.65915 0.00000
vt 1.00000 0.00000
vt 1.00000 1.00000
vt 0.65915 1.00000
vt 0.00000 0.00000
vt 1.00000 0.00000
vt 1.00000 1.00000
vt 0.00000 1.00000
vt 0.00000 0.00000
vt 0.34085 0.00000
vt 0.34085 1.00000
vt 0.00000 1.00000
vt 0.65915 0.00000
vt 1.00000 0.00000
vt 1.00000 1.00000
vt 0.65915 1.00000
vt 0.00000 0.00000
vt 1.00000 0.00000
vt 1.00000 1.00000
vt 0.00000 1.00000
vt 0.00000 0.00000
vt 0.34085 0.00000
vt 0.34085 1.00000
vt 0.00000 1.00000
vt 1.00000 0.75744
vt 1.00000 1.00000
vt 0.65915 1.00000
vt 1.00000 0.75744
vt 1.00000 1.00000
vt 0.00000 1.00000
vt 0.00000 0.75744
vt 1.00000 0.75744
vt 0.00000 0.75744
vt 0.40054 0.58752
vt 0.34085 1.00000
vt 0.00000 1.00000
vt 0.00000 0.75744
vt 0.38424 0.00000
vt 1.00000 0.00000
vt 1.00000 0.14773
vt 0.38424 0.14773
vt 0.00000 0.00000
vt 1.00000 0.00000
vt 1.00000 0.14773
vt 0.00000 0.14773
vt 0.00000 0.00000
vt 0.61576 0.00000
vt 0.61576 0.14773
vt 0.00000 0.14773
vt 1.00000 0.14773
vt 1.00000 0.00000
vt 0.38424 0.00000
vt 0.38424 0.14773
vt 1.00000 0.14773
vt 1.00000 0.00000
vt 0.00000 0.00000
vt 0.00000 0.14773
vt 0.61576 0.14773
vt 0.61576 0.00000
vt 0.00000 0.00000
vt 0.00000 0.14773
vn -0.89785 0.00000 -0.44029
vn -0.83147 0.00000 -0.55557
vn -0.83147 0.00000 -0.55557
vn -0.89785 0.00000 -0.44029
vn -0.83147 0.00000 -0.55557
vn -0.55557 0.00000 -0.83147
vn -0.55557 0.00000 -0.83147
vn -0.83147 0.00000 -0.55557
vn -0.55557 0.00000 -0.83147
vn -0.44029 0.00000 -0.89785
vn -0.44029 0.00000 -0.89785
vn -0.55557 0.00000 -0.83147
vn -0.89785 0.00000 -0.44029
vn -0.83147 0.00000 -0.55557
vn -0.83147 0.00000 -0.55557
vn -0.89785 0.00000 -0.44029
vn -0.83147 0.00000 -0.55557
vn -0.55557 0.00000 -0.83147
vn -0.55557 0.00000 -0.83147
vn -0.83147 0.00000 -0.55557
vn -0.55557 0.00000 -0.83147
vn -0.44029 0.00000 -0.89785
vn -0.44029 0.00000 -0.89785
vn -0.55557 0.00000 -0.83147
vn -0.89785 0.00000 -0.44029
vn -0.83147 0.00000 -0.55557
vn -0.83147 0.00000 -0.55557
vn -0.89785 0.00000 -0.44029
vn -0.83147 0.00000 -0.55557
vn -0.55557 0.00000 -0.83147
vn -0.55557 0.00000 -0.83147
vn -0.83147 0.00000 -0.55557
vn -0.55557 0.00000 -0.83147
vn -0.44029 0.00000 -0.89785
vn -0.44029 0.00000 -0.89785
vn -0.55557 0.00000 -0.83147
vn -0.23892 0.95783 -0.15964
vn -0.23892 0.95783 -0.15964
vn -0.25390 0.95918 -0.12451
vn -0.15964 0.95783 -0.23892
vn -0.15964 0.95783 -0.23892
vn -0.23892 0.95783 -0.15964
vn -0.23892 0.95783 -0.15964
vn -0.15964 0.95783 -0.23892
vn -0.23892 0.95783 -0.15964
vn -0.20748 0.95928 -0.19169
vn -0.12451 0.95918 -0.25390
vn -0.15964 0.95783 -0.23892
vn -0.15964 0.95783 -0.23892
vn -0.94051 0.00000 -0.33978
vn -0.83147 0.00000 -0.55557
vn -0.83147 0.00000 -0.55557
vn -0.94051 0.00000 -0.33978
vn -0.83147 0.00000 -0.55557
vn -0.55557 0.00000 -0.83147
vn -0.55557 0.00000 -0.83147
vn -0.83147 0.00000 -0.55557
vn -0.55557 0.00000 -0.83147
vn -0.33978 0.00000 -0.94051
vn -0.33978 0.00000 -0.94051
vn -0.55557 0.00000 -0.83147
vn 0.83147 0.00000 0.55557
vn 0.83147 -0.00000 0.55557
vn 0.94051 0.00000 0.33978
vn 0.94051 0.00000 0.33978
vn 0.55557 0.00000 0.83147
vn 0.55557 -0.00000 0.83147
vn 0.83147 -0.00000 0.55557
vn 0.83147 0.00000 0.55557
vn 0.33978 0.00000 0.94051
vn 0.33978 0.00000 0.94051
vn 0.55557 -0.00000 0.83147
vn 0.55557 0.00000 0.83147
usemtl paint
f 1/1/1 2/2/2 3/3/3 4/4/4
f 5/5/5 6/6/6 7/7/7 8/8/8
f 9/9/9 10/10/10 11/11/11 12/12/12
f 13/13/13 14/14/14 15/15/15 16/16/16
f 17/17/17 18/18/18 19/19/19 20/20/20
f 21/21/21 22/22/22 23/23/23 24/24/24
f 25/25/25 26/26/26 27/27/27 28/28/28
f 29/29/29 30/30/30 31/31/31 32/32/32
f 33/33/33 34/34/34 35/35/35 36/36/36
f 37/37/37 38/38/38 39/39/39
f 40/40/40 41/41/41 42/42/42 43/43/43
f 44/44/44 45/45/45 46/46/46
f 47/47/47 48/48/48 49/49/49
usemtl railing
f 50/50/50 51/51/51 52/52/52 53/53/53
f 54/54/54 55/55/55 56/56/56 57/57/57
f 58/58/58 59/59/59 60/60/60 61/61/61
f 62/62/62 63/63/63 64/64/64 65/65/65
f 66/66/66 67/67/67 68/68/68 69/69/69
f 70/70/70 71/71/71 72/72/72 73/73/73
