# Generated by dev-env-utils/scripts/gen_utilities_water.py -- do not edit
mtllib water_tower.mtl
o bowl_medium_band_shell_0
v -0.76812 -0.93750 2.00000
v -0.01202 -0.93750 1.24389
v -0.00205 -1.00000 1.25881
v -0.74325 -1.00000 2.00000
v -0.01202 -0.93750 1.24389
v 2.00000 -0.93750 0.41049
v 2.00000 -1.00000 0.42953
v -0.00205 -1.00000 1.25881
v -0.76812 0.20000 2.00000
v -0.01202 0.20000 1.24389
v -0.01202 -0.93750 1.24389
v -0.76812 -0.93750 2.00000
v -0.01202 0.20000 1.24389
v 2.00000 0.20000 0.41049
v 2.00000 -0.93750 0.41049
v -0.01202 -0.93750 1.24389
v -0.76812 1.40000 2.00000
v -0.01202 1.40000 1.24389
v -0.01202 0.20000 1.24389
v -0.76812 0.20000 2.00000
v -0.01202 2.00000 1.24389
v -0.01202 1.40000 1.24389
v -0.76812 1.40000 2.00000
v -0.76812 2.00000 2.00000
v 2.00000 2.00000 0.41049
v 2.00000 1.40000 0.41049
v -0.01202 1.40000 1.24389
v -0.01202 2.00000 1.24389
v -0.76812 -0.93750 2.00000
v -0.01202 -0.93750 1.24389
v -0.66344 -0.93750 0.26897
v -1.00000 -0.93750 0.60553
v -0.76812 -0.93750 2.00000
v -1.00000 -0.93750 0.60553
v -1.00000 -0.93750 2.00000
v -0.01202 -0.93750 1.24389
v 2.00000 -0.93750 0.41049
v 2.00000 -0.93750 -0.83426
v -0.66344 -0.93750 0.26897
v -1.00000 -0.81750 0.60553
v -0.66344 -0.81750 0.26897
v -0.66344 -1.00000 0.26897
v -1.00000 -1.00000 0.60553
v -0.66344 -0.81750 0.26897
v 2.00000 -0.81750 -0.83426
v 2.00000 -1.00000 -0.83426
v -0.66344 -1.00000 0.26897
v -1.00000 0.16250 0.66210
v -0.64078 0.16250 0.30288
v -0.64078 -0.93750 0.30288
v -1.00000 -0.93750 0.66210
v -0.64078 0.16250 0.30288
v 2.00000 0.16250 -0.79097
v 2.00000 -0.93750 -0.79097
v -0.64078 -0.93750 0.30288
v -1.00000 -0.93750 0.66210
v -0.64078 -0.93750 0.30288
v -0.64078 0.16250 0.30288
v -1.00000 0.16250 0.66210
v -0.64078 -0.93750 0.30288
v 2.00000 -0.93750 -0.79097
v 2.00000 0.16250 -0.79097
v -0.64078 0.16250 0.30288
vt 0.56647 0.00000
vt 1.00000 0.00000
vt 1.00000 0.08327
vt 0.57364 0.08327
vt 0.00000 0.00000
vt 0.88294 0.00000
vt 0.88101 0.08327
vt 0.00000 0.08327
vt 0.56647 0.00000
vt 1.00000 0.00000
vt 1.00000 1.00000
vt 0.56647 1.00000
vt 0.00000 0.00000
vt 0.88294 0.00000
vt 0.88294 1.00000
vt 0.00000 1.00000
vt 0.56647 0.00000
vt 1.00000 0.00000
vt 1.00000 1.00000
vt 0.56647 1.00000
vt 1.00000 0.33333
vt 1.00000 1.00000
vt 0.56647 1.00000
vt 0.56647 0.33333
vt 0.88294 0.33333
vt 0.88294 1.00000
vt 0.00000 1.00000
vt 0.00000 0.33333
vt 0.56647 0.00000
vt 1.00000 0.00000
vt 1.00000 1.00000
vt 0.83722 1.00000
vt 0.56647 0.00000
vt 0.83722 1.00000
vt 0.49108 0.14257
vt 0.00000 0.00000
vt 0.88294 0.00000
vt 0.98594 1.00000
vt 0.00000 1.00000
vt 0.83722 0.00000
vt 1.00000 0.00000
vt 1.00000 0.82955
vt 0.83722 0.82955
vt 0.00000 0.00000
vt 0.98594 0.00000
vt 0.98594 0.82955
vt 0.00000 0.82955
vt 0.82531 0.00000
vt 1.00000 0.00000
vt 1.00000 1.00000
vt 0.82531 1.00000
vt 0.00000 0.00000
vt 0.98290 0.00000
vt 0.98290 1.00000
vt 0.00000 1.00000
vt 0.82531 1.00000
vt 1.00000 1.00000
vt 1.00000 0.00000
vt 0.82531 0.00000
vt 0.00000 1.00000
vt 0.98290 1.00000
vt 0.98290 0.00000
vt 0.00000 0.00000
vn -0.66198 -0.27576 -0.69695
vn -0.53479 -0.27094 -0.80037
vn -0.53189 -0.28882 -0.79603
vn -0.65620 -0.29383 -0.69503
vn -0.53479 -0.27094 -0.80037
vn -0.23010 -0.27293 -0.93411
vn -0.22947 -0.29095 -0.92881
vn -0.53189 -0.28882 -0.79603
vn -0.68872 0.00000 -0.72502
vn -0.55557 0.00000 -0.83147
vn -0.55557 0.00000 -0.83147
vn -0.68872 0.00000 -0.72502
vn -0.55557 0.00000 -0.83147
vn -0.23918 0.00000 -0.97098
vn -0.23918 0.00000 -0.97098
vn -0.55557 0.00000 -0.83147
vn -0.68872 0.00000 -0.72502
vn -0.55557 0.00000 -0.83147
vn -0.55557 0.00000 -0.83147
vn -0.68872 0.00000 -0.72502
vn -0.55557 0.00000 -0.83147
vn -0.55557 0.00000 -0.83147
vn -0.68872 0.00000 -0.72502
vn -0.68872 0.00000 -0.72502
vn -0.23918 0.00000 -0.97098
vn -0.23918 0.00000 -0.97098
vn -0.55557 0.00000 -0.83147
vn -0.55557 0.00000 -0.83147
vn 0.00000 1.00000 0.00000
vn 0.00000 1.00000 0.00000
vn 0.00000 1.00000 0.00000
vn 0.00000 1.00000 0.00000
vn 0.00000 1.00000 0.00000
vn 0.00000 1.00000 0.00000
vn 0.00000 1.00000 0.00000
vn 0.00000 1.00000 0.00000
vn 0.00000 1.00000 0.00000
vn 0.00000 1.00000 0.00000
vn 0.00000 1.00000 0.00000
vn -0.60681 0.00000 -0.79485
vn -0.55557 0.00000 -0.83147
vn -0.55557 0.00000 -0.83147
vn -0.60681 0.00000 -0.79485
vn -0.55557 0.00000 -0.83147
vn -0.20037 0.00000 -0.97972
vn -0.20037 0.00000 -0.97972
vn -0.55557 0.00000 -0.83147
vn -0.61050 0.00000 -0.79201
vn -0.55557 0.00000 -0.83147
vn -0.55557 0.00000 -0.83147
vn -0.61050 0.00000 -0.79201
vn -0.55557 0.00000 -0.83147
vn -0.20151 0.00000 -0.97949
vn -0.20151 0.00000 -0.97949
vn -0.55557 0.00000 -0.83147
vn 0.61050 0.00000 0.79201
vn 0.55557 -0.00000 0.83147
vn 0.55557 -0.00000 0.83147
vn 0.61050 0.00000 0.79201
vn 0.55557 -0.00000 0.83147
vn 0.20151 0.00000 0.97949
vn 0.20151 0.00000 0.97949
vn 0.55557 -0.00000 0.83147
usemtl grating
f 29/29/29 30/30/30 31/31/31 32/32/32
f 33/33/33 34/34/34 35/35/35
f 36/36/36 37/37/37 38/38/38 39/39/39
usemtl paint
f 1/1/1 2/2/2 3/3/3 4/4/4
f 5/5/5 6/6/6 7/7/7 8/8/8
f 9/9/9 10/10/10 11/11/11 12/12/12
f 13/13/13 14/14/14 15/15/15 16/16/16
f 17/17/17 18/18/18 19/19/19 20/20/20
f 21/21/21 22/22/22 23/23/23 24/24/24
f 25/25/25 26/26/26 27/27/27 28/28/28
f 40/40/40 41/41/41 42/42/42 43/43/43
f 44/44/44 45/45/45 46/46/46 47/47/47
usemtl railing
f 48/48/48 49/49/49 50/50/50 51/51/51
f 52/52/52 53/53/53 54/54/54 55/55/55
f 56/56/56 57/57/57 58/58/58 59/59/59
f 60/60/60 61/61/61 62/62/62 63/63/63
