# Generated by dev-env-utils/scripts/gen_utilities_water.py -- do not edit
mtllib water_tower.mtl
o bowl_medium_0_0_0
v 0.60553 1.96250 2.00000
v 2.00000 1.96250 0.60553
v 2.00000 1.96250 2.00000
v 2.00000 2.00000 0.60553
v 2.00000 1.96250 0.60553
v 0.60553 1.96250 2.00000
v 0.60553 2.00000 2.00000
v 1.35761 1.96250 1.15625
v 1.64239 1.96250 1.15625
v 1.64239 -1.00000 1.15625
v 1.35761 -1.00000 1.15625
v 1.64239 1.96250 1.15625
v 1.84375 1.96250 1.35761
v 1.84375 -1.00000 1.35761
v 1.64239 -1.00000 1.15625
v 1.84375 1.96250 1.35761
v 1.84375 1.96250 1.64239
v 1.84375 -1.00000 1.64239
v 1.84375 -1.00000 1.35761
v 1.84375 1.96250 1.64239
v 1.64239 1.96250 1.84375
v 1.64239 -1.00000 1.84375
v 1.84375 -1.00000 1.64239
v 1.64239 1.96250 1.84375
v 1.35761 1.96250 1.84375
v 1.35761 -1.00000 1.84375
v 1.64239 -1.00000 1.84375
v 1.35761 1.96250 1.84375
v 1.15625 1.96250 1.64239
v 1.15625 -1.00000 1.64239
v 1.35761 -1.00000 1.84375
v 1.15625 1.96250 1.64239
v 1.15625 1.96250 1.35761
v 1.15625 -1.00000 1.35761
v 1.15625 -1.00000 1.64239
v 1.15625 1.96250 1.35761
v 1.35761 1.96250 1.15625
v 1.35761 -1.00000 1.15625
v 1.15625 -1.00000 1.35761
vt 0.16278 1.00000
vt 0.83722 1.00000
vt 0.49108 0.14257
vt 0.83722 0.82955
vt 0.83722 1.00000
vt 0.16278 1.00000
vt 0.16278 0.82955
vt 0.00000 0.00000
vt 1.00000 0.00000
vt 1.00000 1.00000
vt 0.00000 1.00000
vt 0.00000 0.00000
vt 1.00000 0.00000
vt 1.00000 1.00000
vt 0.00000 1.00000
vt 0.00000 0.00000
vt 1.00000 0.00000
vt 1.00000 1.00000
vt 0.00000 1.00000
vt 0.00000 0.00000
vt 1.00000 0.00000
vt 1.00000 1.00000
vt 0.00000 1.00000
vt 0.00000 0.00000
vt 1.00000 0.00000
vt 1.00000 1.00000
vt 0.00000 1.00000
vt 0.00000 0.00000
vt 1.00000 0.00000
vt 1.00000 1.00000
vt 0.00000 1.00000
vt 0.00000 0.00000
vt 1.00000 0.00000
vt 1.00000 1.00000
vt 0.00000 1.00000
vt 0.00000 0.00000
vt 1.00000 0.00000
vt 1.00000 1.00000
vt 0.00000 1.00000
vn 0.00000 -1.00000 0.00000
vn 0.00000 -1.00000 0.00000
vn 0.00000 -1.00000 0.00000
vn -0.60681 0.00000 -0.79485
vn -0.60681 0.00000 -0.79485
vn -0.79452 0.00000 -0.60724
vn -0.79452 0.00000 -0.60724
vn -0.38268 0.00000 -0.92388
vn 0.38268 0.00000 -0.92388
vn 0.38268 0.00000 -0.92388
vn -0.38268 0.00000 -0.92388
vn 0.38268 0.00000 -0.92388
vn 0.92388 0.00000 -0.38268
vn 0.92388 0.00000 -0.38268
vn 0.38268 0.00000 -0.92388
vn 0.92388 0.00000 -0.38268
vn 0.92388 0.00000 0.38268
vn 0.92388 0.00000 0.38268
vn 0.92388 0.00000 -0.38268
vn 0.92388 0.00000 0.38268
vn 0.38268 0.00000 0.92388
vn 0.38268 0.00000 0.92388
vn 0.92388 0.00000 0.38268
vn 0.38268 0.00000 0.92388
vn -0.38268 0.00000 0.92388
vn -0.38268 0.00000 0.92388
vn 0.38268 0.00000 0.92388
vn -0.38268 0.00000 0.92388
vn -0.92388 0.00000 0.38268
vn -0.92388 0.00000 0.38268
vn -0.38268 0.00000 0.92388
vn -0.92388 0.00000 0.38268
vn -0.92388 0.00000 -0.38268
vn -0.92388 0.00000 -0.38268
vn -0.92388 0.00000 0.38268
vn -0.92388 0.00000 -0.38268
vn -0.38268 0.00000 -0.92388
vn -0.38268 0.00000 -0.92388
vn -0.92388 0.00000 -0.38268
usemtl paint
f 1/1/1 2/2/2 3/3/3
f 4/4/4 5/5/5 6/6/6 7/7/7
f 8/8/8 9/9/9 10/10/10 11/11/11
f 12/12/12 13/13/13 14/14/14 15/15/15
f 16/16/16 17/17/17 18/18/18 19/19/19
f 20/20/20 21/21/21 22/22/22 23/23/23
f 24/24/24 25/25/25 26/26/26 27/27/27
f 28/28/28 29/29/29 30/30/30 31/31/31
f 32/32/32 33/33/33 34/34/34 35/35/35
f 36/36/36 37/37/37 38/38/38 39/39/39
