# Generated by dev-env-utils/scripts/gen_utilities_water.py -- do not edit
mtllib water_tower.mtl
o bowl_medium_0_2_0
v -0.56803 0.61250 1.13064
v 1.56803 0.61250 1.13064
v 1.39511 0.08256 2.00000
v -0.39511 0.08256 2.00000
v 1.56803 0.61250 1.13064
v 2.00000 0.61250 1.30957
v 2.00000 0.22367 2.00000
v 1.39511 0.08256 2.00000
v -1.00000 0.61250 1.30957
v -0.56803 0.61250 1.13064
v -0.39511 0.08256 2.00000
v -1.00000 0.22367 2.00000
v -0.69123 1.31192 0.51126
v 1.69123 1.31192 0.51126
v 1.56803 0.61250 1.13064
v -0.56803 0.61250 1.13064
v 1.69123 1.31192 0.51126
v 2.00000 1.31192 0.63915
v 2.00000 0.61250 1.30957
v 1.56803 0.61250 1.13064
v -1.00000 1.31192 0.63915
v -0.69123 1.31192 0.51126
v -0.56803 0.61250 1.13064
v -1.00000 0.61250 1.30957
v 1.72976 2.00000 0.31759
v 1.69123 1.31192 0.51126
v -0.69123 1.31192 0.51126
v -0.72976 2.00000 0.31759
v 2.00000 2.00000 0.42953
v 2.00000 1.31192 0.63915
v 1.69123 1.31192 0.51126
v 1.72976 2.00000 0.31759
v -0.72976 2.00000 0.31759
v -0.69123 1.31192 0.51126
v -1.00000 1.31192 0.63915
v -1.00000 2.00000 0.42953
v -0.96201 1.96250 -0.85000
v 1.96201 1.96250 -0.85000
v 1.73326 1.96250 0.30000
v -0.73326 1.96250 0.30000
v 1.96201 1.96250 -0.85000
v 2.00000 1.96250 -0.83426
v 2.00000 1.96250 0.41049
v 1.73326 1.96250 0.30000
v -1.00000 1.96250 -0.83426
v -0.96201 1.96250 -0.85000
v -0.73326 1.96250 0.30000
v -1.00000 1.96250 0.41049
v 1.96201 2.00000 -0.85000
v 1.96201 1.96250 -0.85000
v -0.96201 1.96250 -0.85000
v -0.96201 2.00000 -0.85000
v 2.00000 2.00000 -0.83426
v 2.00000 1.96250 -0.83426
v 1.96201 1.96250 -0.85000
v 1.96201 2.00000 -0.85000
v -0.96201 2.00000 -0.85000
v -0.96201 1.96250 -0.85000
v -1.00000 1.96250 -0.83426
v -1.00000 2.00000 -0.83426
vt 0.00000 0.00000
vt 1.00000 0.00000
vt 1.00000 0.88233
vt 0.00000 0.88233
vt 0.00000 0.00000
vt 0.21889 0.00000
vt 0.32948 0.64739
vt 0.00000 0.88233
vt 0.78111 0.00000
vt 1.00000 0.00000
vt 1.00000 0.88233
vt 0.67052 0.64739
vt 0.00000 0.00000
vt 1.00000 0.00000
vt 1.00000 1.00000
vt 0.00000 1.00000
vt 0.00000 0.00000
vt 0.14028 0.00000
vt 0.21889 1.00000
vt 0.00000 1.00000
vt 0.85972 0.00000
vt 1.00000 0.00000
vt 1.00000 1.00000
vt 0.78111 1.00000
vt 1.00000 0.08327
vt 1.00000 1.00000
vt 0.00000 1.00000
vt 0.00000 0.08327
vt 0.11899 0.08327
vt 0.14028 1.00000
vt 0.00000 1.00000
vt 0.00000 0.08327
vt 1.00000 0.08327
vt 1.00000 1.00000
vt 0.85972 1.00000
vt 0.88101 0.08327
vt 0.00000 1.00000
vt 1.00000 1.00000
vt 1.00000 0.00000
vt 0.00000 0.00000
vt 0.00000 1.00000
vt 0.01406 1.00000
vt 0.11706 0.00000
vt 0.00000 0.00000
vt 0.98594 1.00000
vt 1.00000 1.00000
vt 1.00000 0.00000
vt 0.88294 0.00000
vt 1.00000 0.82955
vt 1.00000 1.00000
vt 0.00000 1.00000
vt 0.00000 0.82955
vt 0.01406 0.82955
vt 0.01406 1.00000
vt 0.00000 1.00000
vt 0.00000 0.82955
vt 1.00000 0.82955
vt 1.00000 1.00000
vt 0.98594 1.00000
vt 0.98594 0.82955
vn -0.12519 -0.76695 -0.62938
vn 0.12519 -0.76695 -0.62938
vn 0.08927 -0.88915 -0.44881
vn -0.08927 -0.88915 -0.44881
vn 0.12519 -0.76695 -0.62938
vn 0.17677 -0.77109 -0.61169
vn 0.15752 -0.86428 -0.47771
vn 0.08927 -0.88915 -0.44881
vn -0.17677 -0.77109 -0.61169
vn -0.12519 -0.76695 -0.62938
vn -0.08927 -0.88915 -0.44881
vn -0.15752 -0.86428 -0.47771
vn -0.17125 -0.47905 -0.86092
vn 0.17125 -0.47905 -0.86092
vn 0.12519 -0.76695 -0.62938
vn -0.12519 -0.76695 -0.62938
vn 0.17125 -0.47905 -0.86092
vn 0.21718 -0.48248 -0.84856
vn 0.17677 -0.77109 -0.61169
vn 0.12519 -0.76695 -0.62938
vn -0.21718 -0.48248 -0.84856
vn -0.17125 -0.47905 -0.86092
vn -0.12519 -0.76695 -0.62938
vn -0.17677 -0.77109 -0.61169
vn 0.18678 -0.28882 -0.93899
vn 0.17125 -0.47905 -0.86092
vn -0.17125 -0.47905 -0.86092
vn -0.18678 -0.28882 -0.93899
vn 0.22947 -0.29095 -0.92881
vn 0.21718 -0.48248 -0.84856
vn 0.17125 -0.47905 -0.86092
vn 0.18678 -0.28882 -0.93899
vn -0.18678 -0.28882 -0.93899
vn -0.17125 -0.47905 -0.86092
vn -0.21718 -0.48248 -0.84856
vn -0.22947 -0.29095 -0.92881
vn 0.00000 -1.00000 0.00000
vn 0.00000 -1.00000 0.00000
vn 0.00000 -1.00000 0.00000
vn 0.00000 -1.00000 0.00000
vn 0.00000 -1.00000 0.00000
vn 0.00000 -1.00000 0.00000
vn 0.00000 -1.00000 0.00000
vn 0.00000 -1.00000 0.00000
vn 0.00000 -1.00000 0.00000
vn 0.00000 -1.00000 0.00000
vn 0.00000 -1.00000 0.00000
vn 0.00000 -1.00000 0.00000
vn 0.19509 0.00000 -0.98079
vn 0.19509 0.00000 -0.98079
vn -0.19509 0.00000 -0.98079
vn -0.19509 0.00000 -0.98079
vn 0.20037 0.00000 -0.97972
vn 0.20037 0.00000 -0.97972
vn 0.19509 0.00000 -0.98079
vn 0.19509 0.00000 -0.98079
vn -0.19509 0.00000 -0.98079
vn -0.19509 0.00000 -0.98079
vn -0.20037 0.00000 -0.97972
vn -0.20037 0.00000 -0.97972
usemtl paint
f 1/1/1 2/2/2 3/3/3 4/4/4
f 5/5/5 6/6/6 7/7/7 8/8/8
f 9/9/9 10/10/10 11/11/11 12/12/12
f 13/13/13 14/14/14 15/15/15 16/16/16
f 17/17/17 18/18/18 19/19/19 20/20/20
f 21/21/21 22/22/22 23/23/23 24/24/24
f 25/25/25 26/26/26 27/27/27 28/28/28
f 29/29/29 30/30/30 31/31/31 32/32/32
f 33/33/33 34/34/34 35/35/35 36/36/36
f 37/37/37 38/38/38 39/39/39 40/40/40
f 41/41/41 42/42/42 43/43/43 44/44/44
f 45/45/45 46/46/46 47/47/47 48/48/48
f 49/49/49 50/50/50 51/51/51 52/52/52
f 53/53/53 54/54/54 55/55/55 56/56/56
f 57/57/57 58/58/58 59/59/59 60/60/60
