# Generated by dev-env-utils/scripts/gen_utilities_water.py -- do not edit
mtllib water_tower.mtl
o bowl_medium_band_shell_1
v -0.73326 -0.93750 0.30000
v 1.73326 -0.93750 0.30000
v 1.72976 -1.00000 0.31759
v -0.72976 -1.00000 0.31759
v 1.73326 -0.93750 0.30000
v 2.00000 -0.93750 0.41049
v 2.00000 -1.00000 0.42953
v 1.72976 -1.00000 0.31759
v -1.00000 -0.93750 0.41049
v -0.73326 -0.93750 0.30000
v -0.72976 -1.00000 0.31759
v -1.00000 -1.00000 0.42953
v -0.73326 0.20000 0.30000
v 1.73326 0.20000 0.30000
v 1.73326 -0.93750 0.30000
v -0.73326 -0.93750 0.30000
v 1.73326 0.20000 0.30000
v 2.00000 0.20000 0.41049
v 2.00000 -0.93750 0.41049
v 1.73326 -0.93750 0.30000
v -1.00000 0.20000 0.41049
v -0.73326 0.20000 0.30000
v -0.73326 -0.93750 0.30000
v -1.00000 -0.93750 0.41049
v 1.73326 2.00000 0.30000
v 1.73326 1.40000 0.30000
v -0.73326 1.40000 0.30000
v -0.73326 2.00000 0.30000
v 2.00000 2.00000 0.41049
v 2.00000 1.40000 0.41049
v 1.73326 1.40000 0.30000
v 1.73326 2.00000 0.30000
v -0.73326 2.00000 0.30000
v -0.73326 1.40000 0.30000
v -1.00000 1.40000 0.41049
v -1.00000 2.00000 0.41049
v -0.73326 -0.93750 0.30000
v 1.73326 -0.93750 0.30000
v 1.96201 -0.93750 -0.85000
v -0.96201 -0.93750 -0.85000
v 1.73326 -0.93750 0.30000
v 2.00000 -0.93750 0.41049
v 2.00000 -0.93750 -0.83426
v 1.96201 -0.93750 -0.85000
v -1.00000 -0.93750 0.41049
v -0.73326 -0.93750 0.30000
v -0.96201 -0.93750 -0.85000
v -1.00000 -0.93750 -0.83426
v -0.96201 -0.81750 -0.85000
v 1.96201 -0.81750 -0.85000
v 1.96201 -1.00000 -0.85000
v -0.96201 -1.00000 -0.85000
v 1.96201 -0.81750 -0.85000
v 2.00000 -0.81750 -0.83426
v 2.00000 -1.00000 -0.83426
v 1.96201 -1.00000 -0.85000
v -1.00000 -0.81750 -0.83426
v -0.96201 -0.81750 -0.85000
v -0.96201 -1.00000 -0.85000
v -1.00000 -1.00000 -0.83426
v -0.95405 0.16250 -0.81000
v 1.95405 0.16250 -0.81000
v 1.95405 -0.93750 -0.81000
v -0.95405 -0.93750 -0.81000
v 1.95405 0.16250 -0.81000
v 2.00000 0.16250 -0.79097
v 2.00000 -0.93750 -0.79097
v 1.95405 -0.93750 -0.81000
v -1.00000 0.16250 -0.79097
v -0.95405 0.16250 -0.81000
v -0.95405 -0.93750 -0.81000
v -1.00000 -0.93750 -0.79097
v -0.95405 -0.93750 -0.81000
v 1.95405 -0.93750 -0.81000
v 1.95405 0.16250 -0.81000
v -0.95405 0.16250 -0.81000
v 1.95405 -0.93750 -0.81000
v 2.00000 -0.93750 -0.79097
v 2.00000 0.16250 -0.79097
v 1.95405 0.16250 -0.81000
v -1.00000 -0.93750 -0.79097
v -0.95405 -0.93750 -0.81000
v -0.95405 0.16250 -0.81000
v -1.00000 0.16250 -0.79097
vt 0.00000 0.00000
vt 1.00000 0.00000
vt 1.00000 0.08327
vt 0.00000 0.08327
vt 0.00000 0.00000
vt 0.11706 0.00000
vt 0.11899 0.08327
vt 0.00000 0.08327
vt 0.88294 0.00000
vt 1.00000 0.00000
vt 1.00000 0.08327
vt 0.88101 0.08327
vt 0.00000 0.00000
vt 1.00000 0.00000
vt 1.00000 1.00000
vt 0.00000 1.00000
vt 0.00000 0.00000
vt 0.11706 0.00000
vt 0.11706 1.00000
vt 0.00000 1.00000
vt 0.88294 0.00000
vt 1.00000 0.00000
vt 1.00000 1.00000
vt 0.88294 1.00000
vt 1.00000 0.33333
vt 1.00000 1.00000
vt 0.00000 1.00000
vt 0.00000 0.33333
vt 0.11706 0.33333
vt 0.11706 1.00000
vt 0.00000 1.00000
vt 0.00000 0.33333
vt 1.00000 0.33333
vt 1.00000 1.00000
vt 0.88294 1.00000
vt 0.88294 0.33333
vt 0.00000 0.00000
vt 1.00000 0.00000
vt 1.00000 1.00000
vt 0.00000 1.00000
vt 0.00000 0.00000
vt 0.11706 0.00000
vt 0.01406 1.00000
vt 0.00000 1.00000
vt 0.88294 0.00000
vt 1.00000 0.00000
vt 1.00000 1.00000
vt 0.98594 1.00000
vt 0.00000 0.00000
vt 1.00000 0.00000
vt 1.00000 0.82955
vt 0.00000 0.82955
vt 0.00000 0.00000
vt 0.01406 0.00000
vt 0.01406 0.82955
vt 0.00000 0.82955
vt 0.98594 0.00000
vt 1.00000 0.00000
vt 1.00000 0.82955
vt 0.98594 0.82955
vt 0.00000 0.00000
vt 1.00000 0.00000
vt 1.00000 1.00000
vt 0.00000 1.00000
vt 0.00000 0.00000
vt 0.01710 0.00000
vt 0.01710 1.00000
vt 0.00000 1.00000
vt 0.98290 0.00000
vt 1.00000 0.00000
vt 1.00000 1.00000
vt 0.98290 1.00000
vt 0.00000 1.00000
vt 1.00000 1.00000
vt 1.00000 0.00000
vt 0.00000 0.00000
vt 0.00000 1.00000
vt 0.01710 1.00000
vt 0.01710 0.00000
vt 0.00000 0.00000
vt 0.98290 1.00000
vt 1.00000 1.00000
vt 1.00000 0.00000
vt 0.98290 0.00000
vn -0.18779 -0.27094 -0.94410
vn 0.18779 -0.27094 -0.94410
vn 0.18678 -0.28882 -0.93899
vn -0.18678 -0.28882 -0.93899
vn 0.18779 -0.27094 -0.94410
vn 0.23010 -0.27293 -0.93411
vn 0.22947 -0.29095 -0.92881
vn 0.18678 -0.28882 -0.93899
vn -0.23010 -0.27293 -0.93411
vn -0.18779 -0.27094 -0.94410
vn -0.18678 -0.28882 -0.93899
vn -0.22947 -0.29095 -0.92881
vn -0.19509 0.00000 -0.98079
vn 0.19509 0.00000 -0.98079
vn 0.19509 0.00000 -0.98079
vn -0.19509 0.00000 -0.98079
vn 0.19509 0.00000 -0.98079
vn 0.23918 0.00000 -0.97098
vn 0.23918 0.00000 -0.97098
vn 0.19509 0.00000 -0.98079
vn -0.23918 0.00000 -0.97098
vn -0.19509 0.00000 -0.98079
vn -0.19509 0.00000 -0.98079
vn -0.23918 0.00000 -0.97098
vn 0.19509 0.00000 -0.98079
vn 0.19509 0.00000 -0.98079
vn -0.19509 0.00000 -0.98079
vn -0.19509 0.00000 -0.98079
vn 0.23918 0.00000 -0.97098
vn 0.23918 0.00000 -0.97098
vn 0.19509 0.00000 -0.98079
vn 0.19509 0.00000 -0.98079
vn -0.19509 0.00000 -0.98079
vn -0.19509 0.00000 -0.98079
vn -0.23918 0.00000 -0.97098
vn -0.23918 0.00000 -0.97098
vn 0.00000 1.00000 0.00000
vn 0.00000 1.00000 0.00000
vn 0.00000 1.00000 0.00000
vn 0.00000 1.00000 0.00000
vn 0.00000 1.00000 0.00000
vn 0.00000 1.00000 0.00000
vn 0.00000 1.00000 0.00000
vn 0.00000 1.00000 0.00000
vn 0.00000 1.00000 0.00000
vn 0.00000 1.00000 0.00000
vn 0.00000 1.00000 0.00000
vn 0.00000 1.00000 0.00000
vn -0.19509 0.00000 -0.98079
vn 0.19509 0.00000 -0.98079
vn 0.19509 0.00000 -0.98079
vn -0.19509 0.00000 -0.98079
vn 0.19509 0.00000 -0.98079
vn 0.20037 0.00000 -0.97972
vn 0.20037 0.00000 -0.97972
vn 0.19509 0.00000 -0.98079
vn -0.20037 0.00000 -0.97972
vn -0.19509 0.00000 -0.98079
vn -0.19509 0.00000 -0.98079
vn -0.20037 0.00000 -0.97972
vn -0.19509 0.00000 -0.98079
vn 0.19509 0.00000 -0.98079
vn 0.19509 0.00000 -0.98079
vn -0.19509 0.00000 -0.98079
vn 0.19509 0.00000 -0.98079
vn 0.20151 0.00000 -0.97949
vn 0.20151 0.00000 -0.97949
vn 0.19509 0.00000 -0.98079
vn -0.20151 0.00000 -0.97949
vn -0.19509 0.00000 -0.98079
vn -0.19509 0.00000 -0.98079
vn -0.20151 0.00000 -0.97949
vn 0.19509 -0.00000 0.98079
vn -0.19509 -0.00000 0.98079
vn -0.19509 -0.00000 0.98079
vn 0.19509 -0.00000 0.98079
vn -0.19509 -0.00000 0.98079
vn -0.20151 0.00000 0.97949
vn -0.20151 0.00000 0.97949
vn -0.19509 -0.00000 0.98079
vn 0.20151 0.00000 0.97949
vn 0.19509 -0.00000 0.98079
vn 0.19509 -0.00000 0.98079
vn 0.20151 0.00000 0.97949
usemtl grating
f 37/37/37 38/38/38 39/39/39 40/40/40
f 41/41/41 42/42/42 43/43/43 44/44/44
f 45/45/45 46/46/46 47/47/47 48/48/48
usemtl paint
f 1/1/1 2/2/2 3/3/3 4/4/4
f 5/5/5 6/6/6 7/7/7 8/8/8
f 9/9/9 10/10/10 11/11/11 12/12/12
f 13/13/13 14/14/14 15/15/15 16/16/16
f 17/17/17 18/18/18 19/19/19 20/20/20
f 21/21/21 22/22/22 23/23/23 24/24/24
f 25/25/25 26/26/26 27/27/27 28/28/28
f 29/29/29 30/30/30 31/31/31 32/32/32
f 33/33/33 34/34/34 35/35/35 36/36/36
f 49/49/49 50/50/50 51/51/51 52/52/52
f 53/53/53 54/54/54 55/55/55 56/56/56
f 57/57/57 58/58/58 59/59/59 60/60/60
usemtl railing
f 61/61/61 62/62/62 63/63/63 64/64/64
f 65/65/65 66/66/66 67/67/67 68/68/68
f 69/69/69 70/70/70 71/71/71 72/72/72
f 73/73/73 74/74/74 75/75/75 76/76/76
f 77/77/77 78/78/78 79/79/79 80/80/80
f 81/81/81 82/82/82 83/83/83 84/84/84
