# Generated by dev-env-utils/scripts/gen_utilities_water.py -- do not edit
mtllib water_tower.mtl
o bowl_medium_2_1_1
v -1.00000 -0.70000 -0.76812
v -0.76812 -0.70000 -1.00000
v -0.76812 -1.00000 -1.00000
v -1.00000 -1.00000 -0.76812
v 1.25509 0.29455 2.00000
v -1.00000 -0.45027 0.49320
v -1.00000 -0.28882 2.00000
v 2.00000 0.29455 1.25509
v 0.49320 -0.45027 -1.00000
v -0.76812 -0.70000 -1.00000
v -1.00000 -0.70000 -0.76812
v 2.00000 0.29455 1.25509
v -1.00000 -0.70000 -0.76812
v -1.00000 -0.45027 0.49320
v 1.25509 0.29455 2.00000
v 2.00000 0.29455 1.25509
v 1.25509 0.29455 2.00000
v 2.00000 0.44203 2.00000
v 0.49320 -0.45027 -1.00000
v 2.00000 0.29455 1.25509
v 2.00000 -0.28882 -1.00000
vt 0.43353 0.00000
vt 0.56647 0.00000
vt 0.56647 0.33333
vt 0.43353 0.33333
vt 1.00000 0.38227
vt 1.00000 0.84489
vt 0.28645 0.74461
vt 1.00000 0.38227
vt 1.00000 0.84489
vt 0.56647 1.00000
vt 0.43353 1.00000
vt 1.00000 0.38227
vt 0.43353 1.00000
vt 0.00000 0.84489
vt 0.00000 0.38227
vt 1.00000 0.38227
vt 0.00000 0.38227
vt 0.40054 0.29066
vt 0.00000 0.84489
vt 0.00000 0.38227
vt 0.51790 0.74461
vn -0.72555 0.00000 -0.68817
vn -0.68872 0.00000 -0.72502
vn -0.68872 0.00000 -0.72502
vn -0.72555 0.00000 -0.68817
vn -0.22419 0.96296 -0.14980
vn -0.22419 0.96296 -0.14980
vn -0.25320 0.96406 -0.08054
vn -0.14980 0.96296 -0.22419
vn -0.14980 0.96296 -0.22419
vn -0.18231 0.96428 -0.19219
vn -0.19220 0.96428 -0.18230
vn -0.14980 0.96296 -0.22419
vn -0.19220 0.96428 -0.18230
vn -0.22419 0.96296 -0.14980
vn -0.22419 0.96296 -0.14980
vn -0.14980 0.96296 -0.22419
vn -0.22419 0.96296 -0.14980
vn -0.19465 0.96425 -0.17983
vn -0.14980 0.96296 -0.22419
vn -0.14980 0.96296 -0.22419
vn -0.09959 0.96430 -0.24538
usemtl paint
f 1/1/1 2/2/2 3/3/3 4/4/4
f 5/5/5 6/6/6 7/7/7
f 8/8/8 9/9/9 10/10/10 11/11/11
f 12/12/12 13/13/13 14/14/14 15/15/15
f 16/16/16 17/17/17 18/18/18
f 19/19/19 20/20/20 21/21/21
