# Generated by dev-env-utils/scripts/gen_utilities_water.py -- do not edit
mtllib water_tower.mtl
o bowl_medium_2_2_0
v -0.73326 -0.70000 0.30000
v 1.73326 -0.70000 0.30000
v 1.73326 -1.00000 0.30000
v -0.73326 -1.00000 0.30000
v 1.73326 -0.70000 0.30000
v 2.00000 -0.70000 0.41049
v 2.00000 -1.00000 0.41049
v 1.73326 -1.00000 0.30000
v -1.00000 -0.70000 0.41049
v -0.73326 -0.70000 0.30000
v -0.73326 -1.00000 0.30000
v -1.00000 -1.00000 0.41049
v 1.39511 -0.22400 2.00000
v 1.73326 -0.70000 0.30000
v -0.73326 -0.70000 0.30000
v -0.39511 -0.22400 2.00000
v 2.00000 -0.28882 2.00000
v 2.00000 -0.70000 0.41049
v 1.73326 -0.70000 0.30000
v 1.39511 -0.22400 2.00000
v -0.39511 -0.22400 2.00000
v -0.73326 -0.70000 0.30000
v -1.00000 -0.70000 0.41049
v -1.00000 -0.28882 2.00000
vt 0.00000 0.00000
vt 1.00000 0.00000
vt 1.00000 0.33333
vt 0.00000 0.33333
vt 0.00000 0.00000
vt 0.11706 0.00000
vt 0.11706 0.33333
vt 0.00000 0.33333
vt 0.88294 0.00000
vt 1.00000 0.00000
vt 1.00000 0.33333
vt 0.88294 0.33333
vt 1.00000 0.70435
vt 1.00000 1.00000
vt 0.00000 1.00000
vt 0.00000 0.70435
vt 0.48210 0.74461
vt 0.11706 1.00000
vt 0.00000 1.00000
vt 0.00000 0.70435
vt 1.00000 0.70435
vt 1.00000 1.00000
vt 0.88294 1.00000
vt 0.51790 0.74461
vn -0.19509 0.00000 -0.98079
vn 0.19509 0.00000 -0.98079
vn 0.19509 0.00000 -0.98079
vn -0.19509 0.00000 -0.98079
vn 0.19509 0.00000 -0.98079
vn 0.23918 0.00000 -0.97098
vn 0.23918 0.00000 -0.97098
vn 0.19509 0.00000 -0.98079
vn -0.23918 0.00000 -0.97098
vn -0.19509 0.00000 -0.98079
vn -0.19509 0.00000 -0.98079
vn -0.23918 0.00000 -0.97098
vn 0.05260 0.96296 -0.26445
vn 0.05260 0.96296 -0.26445
vn -0.05260 0.96296 -0.26445
vn -0.05260 0.96296 -0.26445
vn 0.09959 0.96430 -0.24538
vn 0.06402 0.96352 -0.25989
vn 0.05260 0.96296 -0.26445
vn 0.05260 0.96296 -0.26445
vn -0.05260 0.96296 -0.26445
vn -0.05260 0.96296 -0.26445
vn -0.06402 0.96352 -0.25989
vn -0.09959 0.96430 -0.24538
usemtl paint
f 1/1/1 2/2/2 3/3/3 4/4/4
f 5/5/5 6/6/6 7/7/7 8/8/8
f 9/9/9 10/10/10 11/11/11 12/12/12
f 13/13/13 14/14/14 15/15/15 16/16/16
f 17/17/17 18/18/18 19/19/19 20/20/20
f 21/21/21 22/22/22 23/23/23 24/24/24
