# Generated by dev-env-utils/scripts/gen_utilities_water.py -- do not edit
mtllib water_tower.mtl
o spheroid_medium_2_0_0
v 1.29884 -0.55944 2.00000
v 2.00000 -0.55944 1.29884
v 2.00000 -1.00000 0.85568
v 0.85568 -1.00000 2.00000
v 2.00000 -0.15891 2.00000
v 2.00000 -0.55944 1.29884
v 1.29884 -0.55944 2.00000
vt 0.31832 0.00000
vt 0.68168 0.00000
vt 0.78333 0.95148
vt 0.21639 0.95148
vt 0.49879 0.07805
vt 0.68168 1.00000
vt 0.31832 1.00000
vn -0.54621 0.69122 -0.47315
vn -0.47283 0.69121 -0.54650
vn -0.56271 0.42962 -0.70625
vn -0.70563 0.42968 -0.56343
vn -0.39603 0.82795 -0.39706
vn -0.47283 0.69121 -0.54650
vn -0.54621 0.69122 -0.47315
usemtl paint
f 1/1/1 2/2/2 3/3/3 4/4/4
f 5/5/5 6/6/6 7/7/7
