# Generated by dev-env-utils/scripts/gen_utilities_water.py -- do not edit
mtllib water_tower.mtl
o spheroid_small_0_0_0
v 1.03650 0.50000 2.00000
v 1.08389 0.50000 1.88560
v 1.25509 0.29805 2.00000
v 1.08389 0.50000 1.88560
v 1.88560 0.50000 1.08389
v 2.00000 0.29805 1.25509
v 2.00000 -0.22868 2.00000
v 1.08389 0.50000 1.88560
v 2.00000 -0.22868 2.00000
v 1.25509 0.29805 2.00000
v 1.88560 0.50000 1.08389
v 2.00000 0.50000 1.03650
v 2.00000 0.29805 1.25509
v 0.27883 1.20000 2.00000
v 0.49046 1.20000 1.48909
v 1.08389 0.50000 1.88560
v 1.03650 0.50000 2.00000
v 0.49046 1.20000 1.48909
v 1.48909 1.20000 0.49046
v 1.88560 0.50000 1.08389
v 1.08389 0.50000 1.88560
v 1.48909 1.20000 0.49046
v 2.00000 1.20000 0.27883
v 2.00000 0.50000 1.03650
v 1.88560 0.50000 1.08389
v -0.20825 1.65000 2.00000
v 0.10896 1.65000 1.23418
v 0.49046 1.20000 1.48909
v 0.27883 1.20000 2.00000
v 0.10896 1.65000 1.23418
v 1.23418 1.65000 0.10896
v 1.48909 1.20000 0.49046
v 0.49046 1.20000 1.48909
v 1.23418 1.65000 0.10896
v 2.00000 1.65000 -0.20825
v 2.00000 1.20000 0.27883
v 1.48909 1.20000 0.49046
v -0.53297 2.00000 2.00000
v -0.14536 2.00000 1.06425
v 0.10896 1.65000 1.23418
v -0.20825 1.65000 2.00000
v -0.14536 2.00000 1.06425
v 1.06425 2.00000 -0.14536
v 1.23418 1.65000 0.10896
v 0.10896 1.65000 1.23418
v 1.06425 2.00000 -0.14536
v 2.00000 2.00000 -0.53297
v 2.00000 1.65000 -0.20825
v 1.23418 1.65000 0.10896
vt 0.89079 0.00000
vt 1.00000 0.00000
vt 1.00000 0.26927
vt 0.00000 0.00000
vt 1.00000 0.00000
vt 1.00000 0.26927
vt 0.49492 0.97157
vt 0.00000 0.00000
vt 0.49492 0.97157
vt 0.00000 0.26927
vt 0.00000 0.00000
vt 0.10921 0.00000
vt 0.00000 0.26927
vt 0.60843 0.00000
vt 1.00000 0.00000
vt 1.00000 1.00000
vt 0.89079 1.00000
vt 0.00000 0.00000
vt 1.00000 0.00000
vt 1.00000 1.00000
vt 0.00000 1.00000
vt 0.00000 0.00000
vt 0.39157 0.00000
vt 0.10921 1.00000
vt 0.00000 1.00000
vt 0.47910 0.00000
vt 1.00000 0.00000
vt 1.00000 1.00000
vt 0.60843 1.00000
vt 0.00000 0.00000
vt 1.00000 0.00000
vt 1.00000 1.00000
vt 0.00000 1.00000
vt 0.00000 0.00000
vt 0.52090 0.00000
vt 0.39157 1.00000
vt 0.00000 1.00000
vt 0.40791 0.00000
vt 1.00000 0.00000
vt 1.00000 1.00000
vt 0.47910 1.00000
vt 0.00000 0.00000
vt 1.00000 0.00000
vt 1.00000 1.00000
vt 0.00000 1.00000
vt 0.00000 0.00000
vt 0.59209 0.00000
vt 0.52090 1.00000
vt 0.00000 1.00000
vn -0.60170 -0.70974 -0.36637
vn -0.58794 -0.70711 -0.39285
vn -0.59355 -0.70029 -0.39660
vn -0.58794 -0.70711 -0.39285
vn -0.39285 -0.70711 -0.58794
vn -0.39660 -0.70029 -0.59355
vn -0.51350 -0.68923 -0.51115
vn -0.58794 -0.70711 -0.39285
vn -0.51350 -0.68923 -0.51115
vn -0.59355 -0.70029 -0.39660
vn -0.39285 -0.70711 -0.58794
vn -0.36637 -0.70974 -0.60170
vn -0.39660 -0.70029 -0.59355
vn -0.63507 -0.71361 -0.29573
vn -0.58794 -0.70711 -0.39285
vn -0.58794 -0.70711 -0.39285
vn -0.60170 -0.70974 -0.36637
vn -0.58794 -0.70711 -0.39285
vn -0.39285 -0.70711 -0.58794
vn -0.39285 -0.70711 -0.58794
vn -0.58794 -0.70711 -0.39285
vn -0.39285 -0.70711 -0.58794
vn -0.29573 -0.71361 -0.63507
vn -0.36637 -0.70974 -0.60170
vn -0.39285 -0.70711 -0.58794
vn -0.67407 -0.68651 -0.27266
vn -0.61007 -0.67945 -0.40763
vn -0.58794 -0.70711 -0.39285
vn -0.63507 -0.71361 -0.29573
vn -0.61007 -0.67945 -0.40763
vn -0.40763 -0.67945 -0.61007
vn -0.39285 -0.70711 -0.58794
vn -0.58794 -0.70711 -0.39285
vn -0.40763 -0.67945 -0.61007
vn -0.27266 -0.68651 -0.67407
vn -0.29573 -0.71361 -0.63507
vn -0.39285 -0.70711 -0.58794
vn -0.87704 -0.35270 -0.32620
vn -0.77982 -0.34695 -0.52106
vn -0.61007 -0.67945 -0.40763
vn -0.67407 -0.68651 -0.27266
vn -0.77982 -0.34695 -0.52106
vn -0.52106 -0.34695 -0.77982
vn -0.40763 -0.67945 -0.61007
vn -0.61007 -0.67945 -0.40763
vn -0.52106 -0.34695 -0.77982
vn -0.32620 -0.35270 -0.87704
vn -0.27266 -0.68651 -0.67407
vn -0.40763 -0.67945 -0.61007
usemtl paint
f 1/1/1 2/2/2 3/3/3
f 4/4/4 5/5/5 6/6/6 7/7/7
f 8/8/8 9/9/9 10/10/10
f 11/11/11 12/12/12 13/13/13
f 14/14/14 15/15/15 16/16/16 17/17/17
f 18/18/18 19/19/19 20/20/20 21/21/21
f 22/22/22 23/23/23 24/24/24 25/25/25
f 26/26/26 27/27/27 28/28/28 29/29/29
f 30/30/30 31/31/31 32/32/32 33/33/33
f 34/34/34 35/35/35 36/36/36 37/37/37
f 38/38/38 39/39/39 40/40/40 41/41/41
f 42/42/42 43/43/43 44/44/44 45/45/45
f 46/46/46 47/47/47 48/48/48 49/49/49
