# Generated by dev-env-utils/scripts/gen_utilities_water.py -- do not edit
mtllib water_tower.mtl
o spheroid_medium_1_1_1
v -1.00000 -0.55000 0.77571
v -0.90835 -0.55000 0.55444
v -0.35730 -1.00000 0.92263
v -0.80356 -1.00000 2.00000
v -1.00000 -0.55000 0.77571
v -0.80356 -1.00000 2.00000
v -1.00000 -0.87436 2.00000
v -0.90835 -0.55000 0.55444
v 0.55444 -0.55000 -0.90835
v 0.92263 -1.00000 -0.35730
v -0.35730 -1.00000 0.92263
v 0.55444 -0.55000 -0.90835
v 0.77571 -0.55000 -1.00000
v 2.00000 -0.87436 -1.00000
v 2.00000 -1.00000 -0.80356
v 0.55444 -0.55000 -0.90835
v 2.00000 -1.00000 -0.80356
v 0.92263 -1.00000 -0.35730
v -1.00000 -0.50086 0.49320
v -0.90835 -0.55000 0.55444
v -1.00000 -0.55000 0.77571
v -1.00000 -0.05000 -0.90955
v -0.90955 -0.05000 -1.00000
v 0.49320 -0.50086 -1.00000
v 0.55444 -0.55000 -0.90835
v -1.00000 -0.05000 -0.90955
v 0.55444 -0.55000 -0.90835
v -0.90835 -0.55000 0.55444
v -1.00000 -0.50086 0.49320
v 0.77571 -0.55000 -1.00000
v 0.55444 -0.55000 -0.90835
v 0.49320 -0.50086 -1.00000
v -0.90955 -0.05000 -1.00000
v -1.00000 -0.05000 -0.90955
v -1.00000 -0.03173 -1.00000
vt 0.88423 0.00000
vt 1.00000 0.00000
vt 1.00000 0.50000
vt 0.34950 0.50000
vt 0.88423 0.00000
vt 0.34950 0.50000
vt 0.29240 0.36040
vt 0.00000 0.00000
vt 1.00000 0.00000
vt 1.00000 0.50000
vt 0.00000 0.50000
vt 0.00000 0.00000
vt 0.11577 0.00000
vt 0.66207 0.36040
vt 0.62555 0.50000
vt 0.00000 0.00000
vt 0.62555 0.50000
vt 0.00000 0.50000
vt 1.00000 0.90172
vt 1.00000 1.00000
vt 0.88423 1.00000
vt 0.47448 0.00000
vt 0.52552 0.00000
vt 1.00000 0.90172
vt 1.00000 1.00000
vt 0.47448 0.00000
vt 1.00000 1.00000
vt 0.00000 1.00000
vt 0.00000 0.90172
vt 0.11577 1.00000
vt 0.00000 1.00000
vt 0.00000 0.90172
vt 0.52552 1.00000
vt 0.47448 1.00000
vt 0.49768 0.90863
vn -0.41964 -0.87141 -0.25405
vn -0.41031 -0.86976 -0.27416
vn -0.46659 -0.82771 -0.31176
vn -0.52440 -0.83222 -0.18005
vn -0.41964 -0.87141 -0.25405
vn -0.52440 -0.83222 -0.18005
vn -0.51285 -0.84369 -0.15864
vn -0.41031 -0.86976 -0.27416
vn -0.27416 -0.86976 -0.41031
vn -0.31176 -0.82771 -0.46659
vn -0.46659 -0.82771 -0.31176
vn -0.27416 -0.86976 -0.41031
vn -0.25399 -0.87142 -0.41967
vn -0.17584 -0.84424 -0.50630
vn -0.18952 -0.83238 -0.52079
vn -0.27416 -0.86976 -0.41031
vn -0.18952 -0.83238 -0.52079
vn -0.31176 -0.82771 -0.46659
vn -0.39867 -0.87756 -0.26638
vn -0.41031 -0.86976 -0.27416
vn -0.41964 -0.87141 -0.25405
vn -0.24239 -0.94066 -0.23752
vn -0.23753 -0.94066 -0.24238
vn -0.26638 -0.87756 -0.39867
vn -0.27416 -0.86976 -0.41031
vn -0.24239 -0.94066 -0.23752
vn -0.27416 -0.86976 -0.41031
vn -0.41031 -0.86976 -0.27416
vn -0.39867 -0.87756 -0.26638
vn -0.25399 -0.87142 -0.41967
vn -0.27416 -0.86976 -0.41031
vn -0.26638 -0.87756 -0.39867
vn -0.23753 -0.94066 -0.24238
vn -0.24239 -0.94066 -0.23752
vn -0.24457 -0.93817 -0.24499
usemtl paint
f 1/1/1 2/2/2 3/3/3 4/4/4
f 5/5/5 6/6/6 7/7/7
f 8/8/8 9/9/9 10/10/10 11/11/11
f 12/12/12 13/13/13 14/14/14 15/15/15
f 16/16/16 17/17/17 18/18/18
f 19/19/19 20/20/20 21/21/21
f 22/22/22 23/23/23 24/24/24 25/25/25
f 26/26/26 27/27/27 28/28/28 29/29/29
f 30/30/30 31/31/31 32/32/32
f 33/33/33 34/34/34 35/35/35
