# Generated by dev-env-utils/scripts/gen_utilities_water.py -- do not edit
mtllib water_tower.mtl
o spheroid_medium_1_2_0
v -0.53434 -0.55000 1.30000
v 1.53434 -0.55000 1.30000
v 1.40505 -1.00000 1.95000
v -0.40505 -1.00000 1.95000
v 1.53434 -0.55000 1.30000
v 2.00000 -0.55000 1.49288
v 2.00000 -0.87436 2.00000
v 1.52576 -1.00000 2.00000
v 1.53434 -0.55000 1.30000
v 1.52576 -1.00000 2.00000
v 1.40505 -1.00000 1.95000
v -1.00000 -0.55000 1.49288
v -0.53434 -0.55000 1.30000
v -0.40505 -1.00000 1.95000
v -0.52576 -1.00000 2.00000
v -1.00000 -0.55000 1.49288
v -0.52576 -1.00000 2.00000
v -1.00000 -0.87436 2.00000
v -0.75315 -0.05000 0.20000
v 1.75315 -0.05000 0.20000
v 1.53434 -0.55000 1.30000
v -0.53434 -0.55000 1.30000
v 1.75315 -0.05000 0.20000
v 2.00000 -0.05000 0.30225
v 2.00000 -0.55000 1.49288
v 1.53434 -0.55000 1.30000
v -1.00000 -0.05000 0.30225
v -0.75315 -0.05000 0.20000
v -0.53434 -0.55000 1.30000
v -1.00000 -0.55000 1.49288
v -0.89239 0.15000 -0.50000
v 1.89239 0.15000 -0.50000
v 1.75315 -0.05000 0.20000
v -0.75315 -0.05000 0.20000
v 1.89239 0.15000 -0.50000
v 2.00000 0.15000 -0.45543
v 2.00000 -0.05000 0.30225
v 1.75315 -0.05000 0.20000
v -1.00000 0.15000 -0.45543
v -0.89239 0.15000 -0.50000
v -0.75315 -0.05000 0.20000
v -1.00000 -0.05000 0.30225
v -0.95206 0.35000 -0.80000
v 1.95206 0.35000 -0.80000
v 1.89239 0.15000 -0.50000
v -0.89239 0.15000 -0.50000
v 1.95206 0.35000 -0.80000
v 2.00000 0.35000 -0.78014
v 2.00000 0.15000 -0.45543
v 1.89239 0.15000 -0.50000
v -1.00000 0.35000 -0.78014
v -0.95206 0.35000 -0.80000
v -0.89239 0.15000 -0.50000
v -1.00000 0.15000 -0.45543
v -0.95206 0.40000 -0.80000
v 1.95206 0.40000 -0.80000
v 1.95206 0.35000 -0.80000
v -0.95206 0.35000 -0.80000
v 1.95206 0.40000 -0.80000
v 2.00000 0.40000 -0.78014
v 2.00000 0.35000 -0.78014
v 1.95206 0.35000 -0.80000
v -1.00000 0.40000 -0.78014
v -0.95206 0.40000 -0.80000
v -0.95206 0.35000 -0.80000
v -1.00000 0.35000 -0.78014
v -0.95206 1.45000 -0.80000
v 1.95206 1.45000 -0.80000
v 1.95206 0.40000 -0.80000
v -0.95206 0.40000 -0.80000
v 1.95206 1.45000 -0.80000
v 2.00000 1.45000 -0.78014
v 2.00000 0.40000 -0.78014
v 1.95206 0.40000 -0.80000
v -1.00000 1.45000 -0.78014
v -0.95206 1.45000 -0.80000
v -0.95206 0.40000 -0.80000
v -1.00000 0.40000 -0.78014
v -0.95206 1.50000 -0.80000
v 1.95206 1.50000 -0.80000
v 1.95206 1.45000 -0.80000
v -0.95206 1.45000 -0.80000
v 1.95206 1.50000 -0.80000
v 2.00000 1.50000 -0.78014
v 2.00000 1.45000 -0.78014
v 1.95206 1.45000 -0.80000
v -1.00000 1.50000 -0.78014
v -0.95206 1.50000 -0.80000
v -0.95206 1.45000 -0.80000
v -1.00000 1.45000 -0.78014
v -0.93000 1.97753 -0.68910
v 1.93000 1.97753 -0.68910
v 1.95206 1.50000 -0.80000
v -0.95206 1.50000 -0.80000
v 1.93000 1.97753 -0.68910
v 2.00000 1.97753 -0.66010
v 2.00000 1.50000 -0.78014
v 1.95206 1.50000 -0.80000
v -1.00000 1.97753 -0.66010
v -0.93000 1.97753 -0.68910
v -0.95206 1.50000 -0.80000
v -1.00000 1.50000 -0.78014
v 1.92682 2.00000 -0.67312
v 1.93000 1.97753 -0.68910
v -0.93000 1.97753 -0.68910
v -0.92682 2.00000 -0.67312
v 2.00000 2.00000 -0.64280
v 2.00000 1.97753 -0.66010
v 1.93000 1.97753 -0.68910
v 1.92682 2.00000 -0.67312
v -0.92682 2.00000 -0.67312
v -0.93000 1.97753 -0.68910
v -1.00000 1.97753 -0.66010
v -1.00000 2.00000 -0.64280
vt 0.00000 0.00000
vt 1.00000 0.00000
vt 1.00000 0.50000
vt 0.00000 0.50000
vt 0.00000 0.00000
vt 0.24364 0.00000
vt 0.33793 0.36040
vt 0.07597 0.50000
vt 0.00000 0.00000
vt 0.07597 0.50000
vt 0.00000 0.50000
vt 0.75636 0.00000
vt 1.00000 0.00000
vt 1.00000 0.50000
vt 0.92403 0.50000
vt 0.75636 0.00000
vt 0.92403 0.50000
vt 0.66207 0.36040
vt 0.00000 0.00000
vt 1.00000 0.00000
vt 1.00000 1.00000
vt 0.00000 1.00000
vt 0.00000 0.00000
vt 0.10661 0.00000
vt 0.24364 1.00000
vt 0.00000 1.00000
vt 0.89339 0.00000
vt 1.00000 0.00000
vt 1.00000 1.00000
vt 0.75636 1.00000
vt 0.00000 0.00000
vt 1.00000 0.00000
vt 1.00000 1.00000
vt 0.00000 1.00000
vt 0.00000 0.00000
vt 0.04183 0.00000
vt 0.10661 1.00000
vt 0.00000 1.00000
vt 0.95817 0.00000
vt 1.00000 0.00000
vt 1.00000 1.00000
vt 0.89339 1.00000
vt 0.00000 0.00000
vt 1.00000 0.00000
vt 1.00000 1.00000
vt 0.00000 1.00000
vt 0.00000 0.00000
vt 0.01787 0.00000
vt 0.04183 1.00000
vt 0.00000 1.00000
vt 0.98213 0.00000
vt 1.00000 0.00000
vt 1.00000 1.00000
vt 0.95817 1.00000
vt 0.00000 0.00000
vt 1.00000 0.00000
vt 1.00000 1.00000
vt 0.00000 1.00000
vt 0.00000 0.00000
vt 0.01787 0.00000
vt 0.01787 1.00000
vt 0.00000 1.00000
vt 0.98213 0.00000
vt 1.00000 0.00000
vt 1.00000 1.00000
vt 0.98213 1.00000
vt 0.00000 0.00000
vt 1.00000 0.00000
vt 1.00000 1.00000
vt 0.00000 1.00000
vt 0.00000 0.00000
vt 0.01787 0.00000
vt 0.01787 1.00000
vt 0.00000 1.00000
vt 0.98213 0.00000
vt 1.00000 0.00000
vt 1.00000 1.00000
vt 0.98213 1.00000
vt 0.00000 0.00000
vt 1.00000 0.00000
vt 1.00000 1.00000
vt 0.00000 1.00000
vt 0.00000 0.00000
vt 0.01787 0.00000
vt 0.01787 1.00000
vt 0.00000 1.00000
vt 0.98213 0.00000
vt 1.00000 0.00000
vt 1.00000 1.00000
vt 0.98213 1.00000
vt 0.00000 0.00000
vt 1.00000 0.00000
vt 1.00000 1.00000
vt 0.00000 1.00000
vt 0.00000 0.00000
vt 0.02649 0.00000
vt 0.01787 1.00000
vt 0.00000 1.00000
vt 0.97351 0.00000
vt 1.00000 0.00000
vt 1.00000 1.00000
vt 0.98213 1.00000
vt 1.00000 0.95148
vt 1.00000 1.00000
vt 0.00000 1.00000
vt 0.00000 0.95148
vt 0.02781 0.95148
vt 0.02649 1.00000
vt 0.00000 1.00000
vt 0.00000 0.95148
vt 1.00000 0.95148
vt 1.00000 1.00000
vt 0.97351 1.00000
vt 0.97219 0.95148
vn -0.09627 -0.86976 -0.48400
vn 0.09627 -0.86976 -0.48400
vn 0.10948 -0.82771 -0.55038
vn -0.10948 -0.82771 -0.55038
vn 0.09627 -0.86976 -0.48400
vn 0.14009 -0.87274 -0.46765
vn 0.17584 -0.84424 -0.50630
vn 0.12579 -0.82915 -0.54469
vn 0.09627 -0.86976 -0.48400
vn 0.12579 -0.82915 -0.54469
vn 0.10948 -0.82771 -0.55038
vn -0.14009 -0.87274 -0.46765
vn -0.09627 -0.86976 -0.48400
vn -0.10948 -0.82771 -0.55038
vn -0.12579 -0.82915 -0.54469
vn -0.14009 -0.87274 -0.46765
vn -0.12579 -0.82915 -0.54469
vn -0.17584 -0.84424 -0.50630
vn -0.06735 -0.93853 -0.33858
vn 0.06735 -0.93853 -0.33858
vn 0.09627 -0.86976 -0.48400
vn -0.09627 -0.86976 -0.48400
vn 0.06735 -0.93853 -0.33858
vn 0.08068 -0.93934 -0.33337
vn 0.14009 -0.87274 -0.46765
vn 0.09627 -0.86976 -0.48400
vn -0.08068 -0.93934 -0.33337
vn -0.06735 -0.93853 -0.33858
vn -0.09627 -0.86976 -0.48400
vn -0.14009 -0.87274 -0.46765
vn -0.08189 -0.90765 -0.41167
vn 0.08189 -0.90765 -0.41167
vn 0.06735 -0.93853 -0.33858
vn -0.06735 -0.93853 -0.33858
vn 0.08189 -0.90765 -0.41167
vn 0.08826 -0.90814 -0.40927
vn 0.08068 -0.93934 -0.33337
vn 0.06735 -0.93853 -0.33858
vn -0.08826 -0.90814 -0.40927
vn -0.08189 -0.90765 -0.41167
vn -0.06735 -0.93853 -0.33858
vn -0.08068 -0.93934 -0.33337
vn -0.17201 -0.47186 -0.86473
vn 0.17201 -0.47186 -0.86473
vn 0.08189 -0.90765 -0.41167
vn -0.08189 -0.90765 -0.41167
vn 0.17201 -0.47186 -0.86473
vn 0.17787 -0.47235 -0.86328
vn 0.08826 -0.90814 -0.40927
vn 0.08189 -0.90765 -0.41167
vn -0.17787 -0.47235 -0.86328
vn -0.17201 -0.47186 -0.86473
vn -0.08189 -0.90765 -0.41167
vn -0.08826 -0.90814 -0.40927
vn -0.19509 -0.00000 -0.98079
vn 0.19509 -0.00000 -0.98079
vn 0.17201 -0.47186 -0.86473
vn -0.17201 -0.47186 -0.86473
vn 0.19509 -0.00000 -0.98079
vn 0.20180 0.00000 -0.97943
vn 0.17787 -0.47235 -0.86328
vn 0.17201 -0.47186 -0.86473
vn -0.20180 0.00000 -0.97943
vn -0.19509 -0.00000 -0.98079
vn -0.17201 -0.47186 -0.86473
vn -0.17787 -0.47235 -0.86328
vn -0.19509 0.00000 -0.98079
vn 0.19509 0.00000 -0.98079
vn 0.19509 0.00000 -0.98079
vn -0.19509 0.00000 -0.98079
vn 0.19509 0.00000 -0.98079
vn 0.20180 0.00000 -0.97943
vn 0.20180 0.00000 -0.97943
vn 0.19509 0.00000 -0.98079
vn -0.20180 0.00000 -0.97943
vn -0.19509 0.00000 -0.98079
vn -0.19509 0.00000 -0.98079
vn -0.20180 0.00000 -0.97943
vn -0.19509 0.00000 -0.98079
vn 0.19509 0.00000 -0.98079
vn 0.19509 0.00000 -0.98079
vn -0.19509 0.00000 -0.98079
vn 0.19509 0.00000 -0.98079
vn 0.20180 0.00000 -0.97943
vn 0.20180 0.00000 -0.97943
vn 0.19509 0.00000 -0.98079
vn -0.20180 0.00000 -0.97943
vn -0.19509 0.00000 -0.98079
vn -0.19509 0.00000 -0.98079
vn -0.20180 0.00000 -0.97943
vn -0.17788 0.41071 -0.89425
vn 0.17788 0.41071 -0.89425
vn 0.19003 0.22622 -0.95536
vn -0.19003 0.22622 -0.95536
vn 0.17788 0.41071 -0.89425
vn 0.18689 0.41138 -0.89210
vn 0.19656 0.22651 -0.95397
vn 0.19003 0.22622 -0.95536
vn -0.18689 0.41138 -0.89210
vn -0.17788 0.41071 -0.89425
vn -0.19003 0.22622 -0.95536
vn -0.19656 0.22651 -0.95397
vn 0.17659 0.42509 -0.88776
vn 0.17788 0.41071 -0.89425
vn -0.17788 0.41071 -0.89425
vn -0.17659 0.42509 -0.88776
vn 0.18589 0.42581 -0.88551
vn 0.18689 0.41138 -0.89210
vn 0.17788 0.41071 -0.89425
vn 0.17659 0.42509 -0.88776
vn -0.17659 0.42509 -0.88776
vn -0.17788 0.41071 -0.89425
vn -0.18689 0.41138 -0.89210
vn -0.18589 0.42581 -0.88551
usemtl paint
f 1/1/1 2/2/2 3/3/3 4/4/4
f 5/5/5 6/6/6 7/7/7 8/8/8
f 9/9/9 10/10/10 11/11/11
f 12/12/12 13/13/13 14/14/14 15/15/15
f 16/16/16 17/17/17 18/18/18
f 19/19/19 20/20/20 21/21/21 22/22/22
f 23/23/23 24/24/24 25/25/25 26/26/26
f 27/27/27 28/28/28 29/29/29 30/30/30
f 31/31/31 32/32/32 33/33/33 34/34/34
f 35/35/35 36/36/36 37/37/37 38/38/38
f 39/39/39 40/40/40 41/41/41 42/42/42
f 43/43/43 44/44/44 45/45/45 46/46/46
f 47/47/47 48/48/48 49/49/49 50/50/50
f 51/51/51 52/52/52 53/53/53 54/54/54
f 55/55/55 56/56/56 57/57/57 58/58/58
f 59/59/59 60/60/60 61/61/61 62/62/62
f 63/63/63 64/64/64 65/65/65 66/66/66
f 67/67/67 68/68/68 69/69/69 70/70/70
f 71/71/71 72/72/72 73/73/73 74/74/74
f 75/75/75 76/76/76 77/77/77 78/78/78
f 79/79/79 80/80/80 81/81/81 82/82/82
f 83/83/83 84/84/84 85/85/85 86/86/86
f 87/87/87 88/88/88 89/89/89 90/90/90
f 91/91/91 92/92/92 93/93/93 94/94/94
f 95/95/95 96/96/96 97/97/97 98/98/98
f 99/99/99 100/100/100 101/101/101 102/102/102
f 103/103/103 104/104/104 105/105/105 106/106/106
f 107/107/107 108/108/108 109/109/109 110/110/110
f 111/111/111 112/112/112 113/113/113 114/114/114
