# Generated by dev-env-utils/scripts/gen_utilities_water.py -- do not edit
mtllib water_tower.mtl
o spheroid_small_0_1_1
v 0.79837 -0.94231 -1.00000
v 0.78842 -1.00000 -0.95000
v 0.21158 -1.00000 -0.95000
v 0.20163 -0.94231 -1.00000
v 1.50227 -0.63150 -1.00000
v 1.32136 -1.00000 -0.72925
v 0.78842 -1.00000 -0.95000
v 0.79837 -0.94231 -1.00000
v 1.96985 -0.25000 -1.00000
v 2.00000 -0.25000 -0.96985
v 2.00000 -0.63150 -0.50227
v 1.72925 -1.00000 -0.32136
v 1.96985 -0.25000 -1.00000
v 1.72925 -1.00000 -0.32136
v 1.32136 -1.00000 -0.72925
v 1.50227 -0.63150 -1.00000
v 2.00000 -0.94231 0.20163
v 1.95000 -1.00000 0.21158
v 1.72925 -1.00000 -0.32136
v 2.00000 -0.63150 -0.50227
v 2.00000 -0.94231 0.79837
v 1.95000 -1.00000 0.78842
v 1.95000 -1.00000 0.21158
v 2.00000 -0.94231 0.20163
v 2.00000 -0.63150 1.50227
v 1.72925 -1.00000 1.32136
v 1.95000 -1.00000 0.78842
v 2.00000 -0.94231 0.79837
v 2.00000 -0.25000 1.96985
v 1.96985 -0.25000 2.00000
v 1.50227 -0.63150 2.00000
v 1.32136 -1.00000 1.72925
v 2.00000 -0.25000 1.96985
v 1.32136 -1.00000 1.72925
v 1.72925 -1.00000 1.32136
v 2.00000 -0.63150 1.50227
v 0.79837 -0.94231 2.00000
v 0.78842 -1.00000 1.95000
v 1.32136 -1.00000 1.72925
v 1.50227 -0.63150 2.00000
v 0.20163 -0.94231 2.00000
v 0.21158 -1.00000 1.95000
v 0.78842 -1.00000 1.95000
v 0.79837 -0.94231 2.00000
v -0.50227 -0.63150 2.00000
v -0.32136 -1.00000 1.72925
v 0.21158 -1.00000 1.95000
v 0.20163 -0.94231 2.00000
v -0.96985 -0.25000 2.00000
v -1.00000 -0.25000 1.96985
v -1.00000 -0.63150 1.50227
v -0.72925 -1.00000 1.32136
v -0.96985 -0.25000 2.00000
v -0.72925 -1.00000 1.32136
v -0.32136 -1.00000 1.72925
v -0.50227 -0.63150 2.00000
v -1.00000 -0.94231 0.79837
v -0.95000 -1.00000 0.78842
v -0.72925 -1.00000 1.32136
v -1.00000 -0.63150 1.50227
v -1.00000 -0.94231 0.20163
v -0.95000 -1.00000 0.21158
v -0.95000 -1.00000 0.78842
v -1.00000 -0.94231 0.79837
v -1.00000 -0.63150 -0.50227
v -0.72925 -1.00000 -0.32136
v -0.95000 -1.00000 0.21158
v -1.00000 -0.94231 0.20163
v -1.00000 -0.25000 -0.96985
v -0.96985 -0.25000 -1.00000
v -0.50227 -0.63150 -1.00000
v -0.32136 -1.00000 -0.72925
v -1.00000 -0.25000 -0.96985
v -0.32136 -1.00000 -0.72925
v -0.72925 -1.00000 -0.32136
v -1.00000 -0.63150 -0.50227
v 0.20163 -0.94231 -1.00000
v 0.21158 -1.00000 -0.95000
v -0.32136 -1.00000 -0.72925
v -0.50227 -0.63150 -1.00000
v 2.00000 -0.25000 -0.96985
v 1.96985 -0.25000 -1.00000
v 2.00000 -0.22868 -1.00000
v 1.96985 -0.25000 2.00000
v 2.00000 -0.25000 1.96985
v 2.00000 -0.22868 2.00000
v -1.00000 -0.25000 1.96985
v -0.96985 -0.25000 2.00000
v -1.00000 -0.22868 2.00000
v -0.96985 -0.25000 -1.00000
v -1.00000 -0.25000 -0.96985
v -1.00000 -0.22868 -1.00000
vt 1.00000 0.92308
vt 1.00000 1.00000
vt 0.00000 1.00000
vt 0.00000 0.92308
vt 1.00000 0.50866
vt 1.00000 1.00000
vt 0.00000 1.00000
vt 0.00000 0.92308
vt 0.47448 0.00000
vt 0.52552 0.00000
vt 1.00000 0.50866
vt 1.00000 1.00000
vt 0.47448 0.00000
vt 1.00000 1.00000
vt 0.00000 1.00000
vt 0.00000 0.50866
vt 1.00000 0.92308
vt 1.00000 1.00000
vt 0.00000 1.00000
vt 0.00000 0.50866
vt 1.00000 0.92308
vt 1.00000 1.00000
vt 0.00000 1.00000
vt 0.00000 0.92308
vt 1.00000 0.50866
vt 1.00000 1.00000
vt 0.00000 1.00000
vt 0.00000 0.92308
vt 0.47448 0.00000
vt 0.52552 0.00000
vt 1.00000 0.50866
vt 1.00000 1.00000
vt 0.47448 0.00000
vt 1.00000 1.00000
vt 0.00000 1.00000
vt 0.00000 0.50866
vt 1.00000 0.92308
vt 1.00000 1.00000
vt 0.00000 1.00000
vt 0.00000 0.50866
vt 1.00000 0.92308
vt 1.00000 1.00000
vt 0.00000 1.00000
vt 0.00000 0.92308
vt 1.00000 0.50866
vt 1.00000 1.00000
vt 0.00000 1.00000
vt 0.00000 0.92308
vt 0.47448 0.00000
vt 0.52552 0.00000
vt 1.00000 0.50866
vt 1.00000 1.00000
vt 0.47448 0.00000
vt 1.00000 1.00000
vt 0.00000 1.00000
vt 0.00000 0.50866
vt 1.00000 0.92308
vt 1.00000 1.00000
vt 0.00000 1.00000
vt 0.00000 0.50866
vt 1.00000 0.92308
vt 1.00000 1.00000
vt 0.00000 1.00000
vt 0.00000 0.92308
vt 1.00000 0.50866
vt 1.00000 1.00000
vt 0.00000 1.00000
vt 0.00000 0.92308
vt 0.47448 0.00000
vt 0.52552 0.00000
vt 1.00000 0.50866
vt 1.00000 1.00000
vt 0.47448 0.00000
vt 1.00000 1.00000
vt 0.00000 1.00000
vt 0.00000 0.50866
vt 1.00000 0.92308
vt 1.00000 1.00000
vt 0.00000 1.00000
vt 0.00000 0.50866
vt 0.52552 1.00000
vt 0.47448 1.00000
vt 0.50508 0.97157
vt 0.52552 1.00000
vt 0.47448 1.00000
vt 0.49492 0.97157
vt 0.52552 1.00000
vt 0.47448 1.00000
vt 0.50508 0.97157
vt 0.52552 1.00000
vt 0.47448 1.00000
vt 0.49492 0.97157
vn 0.14708 -0.65700 -0.73940
vn 0.14743 -0.65493 -0.74117
vn -0.14743 -0.65493 -0.74117
vn -0.14708 -0.65700 -0.73940
vn 0.41340 -0.66807 -0.61870
vn 0.41984 -0.65493 -0.62833
vn 0.14743 -0.65493 -0.74117
vn 0.14708 -0.65700 -0.73940
vn 0.50769 -0.68849 -0.51791
vn 0.51801 -0.68849 -0.50760
vn 0.61870 -0.66807 -0.41340
vn 0.62833 -0.65493 -0.41984
vn 0.50769 -0.68849 -0.51791
vn 0.62833 -0.65493 -0.41984
vn 0.41984 -0.65493 -0.62833
vn 0.41340 -0.66807 -0.61870
vn 0.73940 -0.65700 -0.14708
vn 0.74117 -0.65493 -0.14743
vn 0.62833 -0.65493 -0.41984
vn 0.61870 -0.66807 -0.41340
vn 0.73940 -0.65700 0.14708
vn 0.74117 -0.65493 0.14743
vn 0.74117 -0.65493 -0.14743
vn 0.73940 -0.65700 -0.14708
vn 0.61870 -0.66807 0.41340
vn 0.62833 -0.65493 0.41984
vn 0.74117 -0.65493 0.14743
vn 0.73940 -0.65700 0.14708
vn 0.51801 -0.68849 0.50760
vn 0.50769 -0.68849 0.51791
vn 0.41340 -0.66807 0.61870
vn 0.41984 -0.65493 0.62833
vn 0.51801 -0.68849 0.50760
vn 0.41984 -0.65493 0.62833
vn 0.62833 -0.65493 0.41984
vn 0.61870 -0.66807 0.41340
vn 0.14708 -0.65700 0.73940
vn 0.14743 -0.65493 0.74117
vn 0.41984 -0.65493 0.62833
vn 0.41340 -0.66807 0.61870
vn -0.14708 -0.65700 0.73940
vn -0.14743 -0.65493 0.74117
vn 0.14743 -0.65493 0.74117
vn 0.14708 -0.65700 0.73940
vn -0.41340 -0.66807 0.61870
vn -0.41984 -0.65493 0.62833
vn -0.14743 -0.65493 0.74117
vn -0.14708 -0.65700 0.73940
vn -0.50769 -0.68849 0.51791
vn -0.51801 -0.68849 0.50760
vn -0.61870 -0.66807 0.41340
vn -0.62833 -0.65493 0.41984
vn -0.50769 -0.68849 0.51791
vn -0.62833 -0.65493 0.41984
vn -0.41984 -0.65493 0.62833
vn -0.41340 -0.66807 0.61870
vn -0.73940 -0.65700 0.14708
vn -0.74117 -0.65493 0.14743
vn -0.62833 -0.65493 0.41984
vn -0.61870 -0.66807 0.41340
vn -0.73940 -0.65700 -0.14708
vn -0.74117 -0.65493 -0.14743
vn -0.74117 -0.65493 0.14743
vn -0.73940 -0.65700 0.14708
vn -0.61870 -0.66807 -0.41340
vn -0.62833 -0.65493 -0.41984
vn -0.74117 -0.65493 -0.14743
vn -0.73940 -0.65700 -0.14708
vn -0.51801 -0.68849 -0.50760
vn -0.50769 -0.68849 -0.51791
vn -0.41340 -0.66807 -0.61870
vn -0.41984 -0.65493 -0.62833
vn -0.51801 -0.68849 -0.50760
vn -0.41984 -0.65493 -0.62833
vn -0.62833 -0.65493 -0.41984
vn -0.61870 -0.66807 -0.41340
vn -0.14708 -0.65700 -0.73940
vn -0.14743 -0.65493 -0.74117
vn -0.41984 -0.65493 -0.62833
vn -0.41340 -0.66807 -0.61870
vn 0.51801 -0.68849 -0.50760
vn 0.50769 -0.68849 -0.51791
vn 0.51350 -0.68923 -0.51115
vn 0.50769 -0.68849 0.51791
vn 0.51801 -0.68849 0.50760
vn 0.51350 -0.68923 0.51115
vn -0.51801 -0.68849 0.50760
vn -0.50769 -0.68849 0.51791
vn -0.51350 -0.68923 0.51115
vn -0.50769 -0.68849 -0.51791
vn -0.51801 -0.68849 -0.50760
vn -0.51350 -0.68923 -0.51115
usemtl paint
f 1/1/1 2/2/2 3/3/3 4/4/4
f 5/5/5 6/6/6 7/7/7 8/8/8
f 9/9/9 10/10/10 11/11/11 12/12/12
f 13/13/13 14/14/14 15/15/15 16/16/16
f 17/17/17 18/18/18 19/19/19 20/20/20
f 21/21/21 22/22/22 23/23/23 24/24/24
f 25/25/25 26/26/26 27/27/27 28/28/28
f 29/29/29 30/30/30 31/31/31 32/32/32
f 33/33/33 34/34/34 35/35/35 36/36/36
f 37/37/37 38/38/38 39/39/39 40/40/40
f 41/41/41 42/42/42 43/43/43 44/44/44
f 45/45/45 46/46/46 47/47/47 48/48/48
f 49/49/49 50/50/50 51/51/51 52/52/52
f 53/53/53 54/54/54 55/55/55 56/56/56
f 57/57/57 58/58/58 59/59/59 60/60/60
f 61/61/61 62/62/62 63/63/63 64/64/64
f 65/65/65 66/66/66 67/67/67 68/68/68
f 69/69/69 70/70/70 71/71/71 72/72/72
f 73/73/73 74/74/74 75/75/75 76/76/76
f 77/77/77 78/78/78 79/79/79 80/80/80
f 81/81/81 82/82/82 83/83/83
f 84/84/84 85/85/85 86/86/86
f 87/87/87 88/88/88 89/89/89
f 90/90/90 91/91/91 92/92/92
