# Generated by dev-env-utils/scripts/gen_utilities_water.py -- do not edit
mtllib water_tower.mtl
o spheroid_medium_2_2_0
v -0.86449 -0.55944 -0.35976
v 1.86449 -0.55944 -0.35976
v 1.92682 -1.00000 -0.67312
v -0.92682 -1.00000 -0.67312
v 1.86449 -0.55944 -0.35976
v 2.00000 -0.55944 -0.30363
v 2.00000 -1.00000 -0.64280
v 1.92682 -1.00000 -0.67312
v -1.00000 -0.55944 -0.30363
v -0.86449 -0.55944 -0.35976
v -0.92682 -1.00000 -0.67312
v -1.00000 -1.00000 -0.64280
v -0.75752 -0.12500 0.17801
v 1.75752 -0.12500 0.17801
v 1.86449 -0.55944 -0.35976
v -0.86449 -0.55944 -0.35976
v 1.75752 -0.12500 0.17801
v 2.00000 -0.12500 0.27845
v 2.00000 -0.55944 -0.30363
v 1.86449 -0.55944 -0.35976
v -1.00000 -0.12500 0.27845
v -0.75752 -0.12500 0.17801
v -0.86449 -0.55944 -0.35976
v -1.00000 -0.55944 -0.30363
v -0.61234 0.26767 0.90788
v 1.61234 0.26767 0.90788
v 1.75752 -0.12500 0.17801
v -0.75752 -0.12500 0.17801
v 1.61234 0.26767 0.90788
v 2.00000 0.26767 1.06845
v 2.00000 -0.12500 0.27845
v 1.75752 -0.12500 0.17801
v -1.00000 0.26767 1.06845
v -0.61234 0.26767 0.90788
v -0.75752 -0.12500 0.17801
v -1.00000 -0.12500 0.27845
v -0.43337 0.60662 1.80765
v 1.43337 0.60662 1.80765
v 1.61234 0.26767 0.90788
v -0.61234 0.26767 0.90788
v 1.43337 0.60662 1.80765
v 1.89774 0.60662 2.00000
v 2.00000 0.59188 2.00000
v 2.00000 0.26767 1.06845
v 1.43337 0.60662 1.80765
v 2.00000 0.26767 1.06845
v 1.61234 0.26767 0.90788
v -0.89774 0.60662 2.00000
v -0.43337 0.60662 1.80765
v -0.61234 0.26767 0.90788
v -1.00000 0.26767 1.06845
v -0.89774 0.60662 2.00000
v -1.00000 0.26767 1.06845
v -1.00000 0.59188 2.00000
v 1.39511 0.65736 2.00000
v 1.43337 0.60662 1.80765
v -0.43337 0.60662 1.80765
v -0.39511 0.65736 2.00000
v 1.89774 0.60662 2.00000
v 1.43337 0.60662 1.80765
v 1.39511 0.65736 2.00000
v -0.39511 0.65736 2.00000
v -0.43337 0.60662 1.80765
v -0.89774 0.60662 2.00000
vt 0.00000 0.00000
vt 1.00000 0.00000
vt 1.00000 0.95148
vt 0.00000 0.95148
vt 0.00000 0.00000
vt 0.05375 0.00000
vt 0.02781 0.95148
vt 0.00000 0.95148
vt 0.94625 0.00000
vt 1.00000 0.00000
vt 1.00000 0.95148
vt 0.97219 0.95148
vt 0.00000 0.00000
vt 1.00000 0.00000
vt 1.00000 1.00000
vt 0.00000 1.00000
vt 0.00000 0.00000
vt 0.10436 0.00000
vt 0.05375 1.00000
vt 0.00000 1.00000
vt 0.89564 0.00000
vt 1.00000 0.00000
vt 1.00000 1.00000
vt 0.94625 1.00000
vt 0.00000 0.00000
vt 1.00000 0.00000
vt 1.00000 1.00000
vt 0.00000 1.00000
vt 0.00000 0.00000
vt 0.18861 0.00000
vt 0.10436 1.00000
vt 0.00000 1.00000
vt 0.81139 0.00000
vt 1.00000 0.00000
vt 1.00000 1.00000
vt 0.89564 1.00000
vt 0.00000 0.00000
vt 1.00000 0.00000
vt 1.00000 1.00000
vt 0.00000 1.00000
vt 0.00000 0.00000
vt 0.26926 0.00000
vt 0.32247 0.04349
vt 0.18861 1.00000
vt 0.00000 0.00000
vt 0.18861 1.00000
vt 0.00000 1.00000
vt 0.73074 0.00000
vt 1.00000 0.00000
vt 1.00000 1.00000
vt 0.81139 1.00000
vt 0.73074 0.00000
vt 0.81139 1.00000
vt 0.67753 0.04349
vt 1.00000 0.81547
vt 1.00000 1.00000
vt 0.00000 1.00000
vt 0.00000 0.81547
vt 0.26926 1.00000
vt 0.00000 1.00000
vt 0.00000 0.81547
vt 1.00000 0.81547
vt 1.00000 1.00000
vt 0.73074 1.00000
vn -0.14211 0.68512 -0.71443
vn 0.14211 0.68512 -0.71443
vn 0.17659 0.42509 -0.88776
vn -0.17659 0.42509 -0.88776
vn 0.14211 0.68512 -0.71443
vn 0.15654 0.68653 -0.71005
vn 0.18589 0.42581 -0.88551
vn 0.17659 0.42509 -0.88776
vn -0.15654 0.68653 -0.71005
vn -0.14211 0.68512 -0.71443
vn -0.17659 0.42509 -0.88776
vn -0.18589 0.42581 -0.88551
vn -0.10798 0.83285 -0.54286
vn 0.10798 0.83285 -0.54286
vn 0.14211 0.68512 -0.71443
vn -0.14211 0.68512 -0.71443
vn 0.10798 0.83285 -0.54286
vn 0.12908 0.83468 -0.53540
vn 0.15654 0.68653 -0.71005
vn 0.14211 0.68512 -0.71443
vn -0.12908 0.83468 -0.53540
vn -0.10798 0.83285 -0.54286
vn -0.14211 0.68512 -0.71443
vn -0.15654 0.68653 -0.71005
vn -0.08078 0.91024 -0.40612
vn 0.08078 0.91024 -0.40612
vn 0.10798 0.83285 -0.54286
vn -0.10798 0.83285 -0.54286
vn 0.08078 0.91024 -0.40612
vn 0.10915 0.91207 -0.39525
vn 0.12908 0.83468 -0.53540
vn 0.10798 0.83285 -0.54286
vn -0.10915 0.91207 -0.39525
vn -0.08078 0.91024 -0.40612
vn -0.10798 0.83285 -0.54286
vn -0.12908 0.83468 -0.53540
vn -0.05934 0.95261 -0.29834
vn 0.05934 0.95261 -0.29834
vn 0.08078 0.91024 -0.40612
vn -0.08078 0.91024 -0.40612
vn 0.05934 0.95261 -0.29834
vn 0.08900 0.95393 -0.28651
vn 0.09614 0.95255 -0.28879
vn 0.10915 0.91207 -0.39525
vn 0.05934 0.95261 -0.29834
vn 0.10915 0.91207 -0.39525
vn 0.08078 0.91024 -0.40612
vn -0.08900 0.95393 -0.28651
vn -0.05934 0.95261 -0.29834
vn -0.08078 0.91024 -0.40612
vn -0.10915 0.91207 -0.39525
vn -0.08900 0.95393 -0.28651
vn -0.10915 0.91207 -0.39525
vn -0.09614 0.95255 -0.28879
vn 0.05614 0.95770 -0.28225
vn 0.05934 0.95261 -0.29834
vn -0.05934 0.95261 -0.29834
vn -0.05614 0.95770 -0.28225
vn 0.08900 0.95393 -0.28651
vn 0.05934 0.95261 -0.29834
vn 0.05614 0.95770 -0.28225
vn -0.05614 0.95770 -0.28225
vn -0.05934 0.95261 -0.29834
vn -0.08900 0.95393 -0.28651
usemtl paint
f 1/1/1 2/2/2 3/3/3 4/4/4
f 5/5/5 6/6/6 7/7/7 8/8/8
f 9/9/9 10/10/10 11/11/11 12/12/12
f 13/13/13 14/14/14 15/15/15 16/16/16
f 17/17/17 18/18/18 19/19/19 20/20/20
f 21/21/21 22/22/22 23/23/23 24/24/24
f 25/25/25 26/26/26 27/27/27 28/28/28
f 29/29/29 30/30/30 31/31/31 32/32/32
f 33/33/33 34/34/34 35/35/35 36/36/36
f 37/37/37 38/38/38 39/39/39 40/40/40
f 41/41/41 42/42/42 43/43/43 44/44/44
f 45/45/45 46/46/46 47/47/47
f 48/48/48 49/49/49 50/50/50 51/51/51
f 52/52/52 53/53/53 54/54/54
f 55/55/55 56/56/56 57/57/57 58/58/58
f 59/59/59 60/60/60 61/61/61
f 62/62/62 63/63/63 64/64/64
