# Generated by dev-env-utils/scripts/gen_utilities_water.py -- do not edit
mtllib water_tower.mtl
o spheroid_medium_2_2_2
v 0.24785 1.20822 -0.76763
v 0.75215 1.20822 -0.76763
v 0.79837 1.18477 -1.00000
v 0.20163 1.18477 -1.00000
v 0.75215 1.20822 -0.76763
v 1.21806 1.20822 -0.57465
v 1.50227 1.15758 -1.00000
v 0.79837 1.18477 -1.00000
v 1.21806 1.20822 -0.57465
v 1.57465 1.20822 -0.21806
v 2.00000 1.15758 -0.50227
v 2.00000 1.12205 -1.00000
v 1.21806 1.20822 -0.57465
v 2.00000 1.12205 -1.00000
v 1.50227 1.15758 -1.00000
v 1.57465 1.20822 -0.21806
v 1.76763 1.20822 0.24785
v 2.00000 1.18477 0.20163
v 2.00000 1.15758 -0.50227
v 1.76763 1.20822 0.24785
v 1.76763 1.20822 0.75215
v 2.00000 1.18477 0.79837
v 2.00000 1.18477 0.20163
v 1.76763 1.20822 0.75215
v 1.57465 1.20822 1.21806
v 2.00000 1.15758 1.50227
v 2.00000 1.18477 0.79837
v 1.57465 1.20822 1.21806
v 1.21806 1.20822 1.57465
v 1.50227 1.15758 2.00000
v 2.00000 1.12205 2.00000
v 1.57465 1.20822 1.21806
v 2.00000 1.12205 2.00000
v 2.00000 1.15758 1.50227
v 1.21806 1.20822 1.57465
v 0.75215 1.20822 1.76763
v 0.79837 1.18477 2.00000
v 1.50227 1.15758 2.00000
v 0.75215 1.20822 1.76763
v 0.24785 1.20822 1.76763
v 0.20163 1.18477 2.00000
v 0.79837 1.18477 2.00000
v 0.24785 1.20822 1.76763
v -0.21806 1.20822 1.57465
v -0.50227 1.15758 2.00000
v 0.20163 1.18477 2.00000
v -0.21806 1.20822 1.57465
v -0.57465 1.20822 1.21806
v -1.00000 1.15758 1.50227
v -1.00000 1.12205 2.00000
v -0.21806 1.20822 1.57465
v -1.00000 1.12205 2.00000
v -0.50227 1.15758 2.00000
v -0.57465 1.20822 1.21806
v -0.76763 1.20822 0.75215
v -1.00000 1.18477 0.79837
v -1.00000 1.15758 1.50227
v -0.76763 1.20822 0.75215
v -0.76763 1.20822 0.24785
v -1.00000 1.18477 0.20163
v -1.00000 1.18477 0.79837
v -0.76763 1.20822 0.24785
v -0.57465 1.20822 -0.21806
v -1.00000 1.15758 -0.50227
v -1.00000 1.18477 0.20163
v -0.57465 1.20822 -0.21806
v -0.21806 1.20822 -0.57465
v -0.50227 1.15758 -1.00000
v -1.00000 1.12205 -1.00000
v -0.57465 1.20822 -0.21806
v -1.00000 1.12205 -1.00000
v -1.00000 1.15758 -0.50227
v -0.21806 1.20822 -0.57465
v 0.24785 1.20822 -0.76763
v 0.20163 1.18477 -1.00000
v -0.50227 1.15758 -1.00000
v 0.41049 1.24477 0.05000
v 0.58951 1.24477 0.05000
v 0.75215 1.20822 -0.76763
v 0.24785 1.20822 -0.76763
v 0.58951 1.24477 0.05000
v 0.75490 1.24477 0.11851
v 1.21806 1.20822 -0.57465
v 0.75215 1.20822 -0.76763
v 0.75490 1.24477 0.11851
v 0.88149 1.24477 0.24510
v 1.57465 1.20822 -0.21806
v 1.21806 1.20822 -0.57465
v 0.88149 1.24477 0.24510
v 0.95000 1.24477 0.41049
v 1.76763 1.20822 0.24785
v 1.57465 1.20822 -0.21806
v 0.95000 1.24477 0.41049
v 0.95000 1.24477 0.58951
v 1.76763 1.20822 0.75215
v 1.76763 1.20822 0.24785
v 0.95000 1.24477 0.58951
v 0.88149 1.24477 0.75490
v 1.57465 1.20822 1.21806
v 1.76763 1.20822 0.75215
v 0.88149 1.24477 0.75490
v 0.75490 1.24477 0.88149
v 1.21806 1.20822 1.57465
v 1.57465 1.20822 1.21806
v 0.75490 1.24477 0.88149
v 0.58951 1.24477 0.95000
v 0.75215 1.20822 1.76763
v 1.21806 1.20822 1.57465
v 0.58951 1.24477 0.95000
v 0.41049 1.24477 0.95000
v 0.24785 1.20822 1.76763
v 0.75215 1.20822 1.76763
v 0.41049 1.24477 0.95000
v 0.24510 1.24477 0.88149
v -0.21806 1.20822 1.57465
v 0.24785 1.20822 1.76763
v 0.24510 1.24477 0.88149
v 0.11851 1.24477 0.75490
v -0.57465 1.20822 1.21806
v -0.21806 1.20822 1.57465
v 0.11851 1.24477 0.75490
v 0.05000 1.24477 0.58951
v -0.76763 1.20822 0.75215
v -0.57465 1.20822 1.21806
v 0.05000 1.24477 0.58951
v 0.05000 1.24477 0.41049
v -0.76763 1.20822 0.24785
v -0.76763 1.20822 0.75215
v 0.05000 1.24477 0.41049
v 0.11851 1.24477 0.24510
v -0.57465 1.20822 -0.21806
v -0.76763 1.20822 0.24785
v 0.11851 1.24477 0.24510
v 0.24510 1.24477 0.11851
v -0.21806 1.20822 -0.57465
v -0.57465 1.20822 -0.21806
v 0.24510 1.24477 0.11851
v 0.41049 1.24477 0.05000
v 0.24785 1.20822 -0.76763
v -0.21806 1.20822 -0.57465
v 0.31360 1.59477 0.05000
v 0.68640 1.59477 0.05000
v 0.68640 1.19477 0.05000
v 0.31360 1.19477 0.05000
v 0.68640 1.59477 0.05000
v 0.95000 1.59477 0.31360
v 0.95000 1.19477 0.31360
v 0.68640 1.19477 0.05000
v 0.95000 1.59477 0.31360
v 0.95000 1.59477 0.68640
v 0.95000 1.19477 0.68640
v 0.95000 1.19477 0.31360
v 0.95000 1.59477 0.68640
v 0.68640 1.59477 0.95000
v 0.68640 1.19477 0.95000
v 0.95000 1.19477 0.68640
v 0.68640 1.59477 0.95000
v 0.31360 1.59477 0.95000
v 0.31360 1.19477 0.95000
v 0.68640 1.19477 0.95000
v 0.31360 1.59477 0.95000
v 0.05000 1.59477 0.68640
v 0.05000 1.19477 0.68640
v 0.31360 1.19477 0.95000
v 0.05000 1.59477 0.68640
v 0.05000 1.59477 0.31360
v 0.05000 1.19477 0.31360
v 0.05000 1.19477 0.68640
v 0.05000 1.59477 0.31360
v 0.31360 1.59477 0.05000
v 0.31360 1.19477 0.05000
v 0.05000 1.19477 0.31360
v 0.23905 1.71477 -0.13000
v 0.76095 1.71477 -0.13000
v 0.76095 1.59477 -0.13000
v 0.23905 1.59477 -0.13000
v 0.76095 1.71477 -0.13000
v 1.13000 1.71477 0.23905
v 1.13000 1.59477 0.23905
v 0.76095 1.59477 -0.13000
v 1.13000 1.71477 0.23905
v 1.13000 1.71477 0.76095
v 1.13000 1.59477 0.76095
v 1.13000 1.59477 0.23905
v 1.13000 1.71477 0.76095
v 0.76095 1.71477 1.13000
v 0.76095 1.59477 1.13000
v 1.13000 1.59477 0.76095
v 0.76095 1.71477 1.13000
v 0.23905 1.71477 1.13000
v 0.23905 1.59477 1.13000
v 0.76095 1.59477 1.13000
v 0.23905 1.71477 1.13000
v -0.13000 1.71477 0.76095
v -0.13000 1.59477 0.76095
v 0.23905 1.59477 1.13000
v -0.13000 1.71477 0.76095
v -0.13000 1.71477 0.23905
v -0.13000 1.59477 0.23905
v -0.13000 1.59477 0.76095
v -0.13000 1.71477 0.23905
v 0.23905 1.71477 -0.13000
v 0.23905 1.59477 -0.13000
v -0.13000 1.59477 0.23905
v 0.50000 1.71477 0.50000
v 0.76095 1.71477 -0.13000
v 0.23905 1.71477 -0.13000
v 0.50000 1.71477 0.50000
v 1.13000 1.71477 0.23905
v 0.76095 1.71477 -0.13000
v 0.50000 1.71477 0.50000
v 1.13000 1.71477 0.76095
v 1.13000 1.71477 0.23905
v 0.50000 1.71477 0.50000
v 0.76095 1.71477 1.13000
v 1.13000 1.71477 0.76095
v 0.50000 1.71477 0.50000
v 0.23905 1.71477 1.13000
v 0.76095 1.71477 1.13000
v 0.50000 1.71477 0.50000
v -0.13000 1.71477 0.76095
v 0.23905 1.71477 1.13000
v 0.50000 1.71477 0.50000
v -0.13000 1.71477 0.23905
v -0.13000 1.71477 0.76095
v 0.50000 1.71477 0.50000
v 0.23905 1.71477 -0.13000
v -0.13000 1.71477 0.23905
v 0.23905 1.59477 -0.13000
v 0.76095 1.59477 -0.13000
v 0.50000 1.59477 0.50000
v 0.76095 1.59477 -0.13000
v 1.13000 1.59477 0.23905
v 0.50000 1.59477 0.50000
v 1.13000 1.59477 0.23905
v 1.13000 1.59477 0.76095
v 0.50000 1.59477 0.50000
v 1.13000 1.59477 0.76095
v 0.76095 1.59477 1.13000
v 0.50000 1.59477 0.50000
v 0.76095 1.59477 1.13000
v 0.23905 1.59477 1.13000
v 0.50000 1.59477 0.50000
v 0.23905 1.59477 1.13000
v -0.13000 1.59477 0.76095
v 0.50000 1.59477 0.50000
v -0.13000 1.59477 0.76095
v -0.13000 1.59477 0.23905
v 0.50000 1.59477 0.50000
v -0.13000 1.59477 0.23905
v 0.23905 1.59477 -0.13000
v 0.50000 1.59477 0.50000
v 0.45029 1.89477 0.38000
v 0.54971 1.89477 0.38000
v 0.54971 1.71477 0.38000
v 0.45029 1.71477 0.38000
v 0.54971 1.89477 0.38000
v 0.62000 1.89477 0.45029
v 0.62000 1.71477 0.45029
v 0.54971 1.71477 0.38000
v 0.62000 1.89477 0.45029
v 0.62000 1.89477 0.54971
v 0.62000 1.71477 0.54971
v 0.62000 1.71477 0.45029
v 0.62000 1.89477 0.54971
v 0.54971 1.89477 0.62000
v 0.54971 1.71477 0.62000
v 0.62000 1.71477 0.54971
v 0.54971 1.89477 0.62000
v 0.45029 1.89477 0.62000
v 0.45029 1.71477 0.62000
v 0.54971 1.71477 0.62000
v 0.45029 1.89477 0.62000
v 0.38000 1.89477 0.54971
v 0.38000 1.71477 0.54971
v 0.45029 1.71477 0.62000
v 0.38000 1.89477 0.54971
v 0.38000 1.89477 0.45029
v 0.38000 1.71477 0.45029
v 0.38000 1.71477 0.54971
v 0.38000 1.89477 0.45029
v 0.45029 1.89477 0.38000
v 0.45029 1.71477 0.38000
v 0.38000 1.71477 0.45029
v 0.50000 1.89477 0.50000
v 0.54971 1.89477 0.38000
v 0.45029 1.89477 0.38000
v 0.50000 1.89477 0.50000
v 0.62000 1.89477 0.45029
v 0.54971 1.89477 0.38000
v 0.50000 1.89477 0.50000
v 0.62000 1.89477 0.54971
v 0.62000 1.89477 0.45029
v 0.50000 1.89477 0.50000
v 0.54971 1.89477 0.62000
v 0.62000 1.89477 0.54971
v 0.50000 1.89477 0.50000
v 0.45029 1.89477 0.62000
v 0.54971 1.89477 0.62000
v 0.50000 1.89477 0.50000
v 0.38000 1.89477 0.54971
v 0.45029 1.89477 0.62000
v 0.50000 1.89477 0.50000
v 0.38000 1.89477 0.45029
v 0.38000 1.89477 0.54971
v 0.50000 1.89477 0.50000
v 0.45029 1.89477 0.38000
v 0.38000 1.89477 0.45029
v -0.03848 1.75495 -0.80000
v 1.03848 1.75495 -0.80000
v 1.03848 1.20495 -0.80000
v -0.03848 1.20495 -0.80000
v 1.03848 1.75495 -0.80000
v 1.80000 1.75495 -0.03848
v 1.80000 1.20495 -0.03848
v 1.03848 1.20495 -0.80000
v 1.80000 1.75495 -0.03848
v 1.80000 1.75495 1.03848
v 1.80000 1.20495 1.03848
v 1.80000 1.20495 -0.03848
v 1.80000 1.75495 1.03848
v 1.03848 1.75495 1.80000
v 1.03848 1.20495 1.80000
v 1.80000 1.20495 1.03848
v 1.03848 1.75495 1.80000
v -0.03848 1.75495 1.80000
v -0.03848 1.20495 1.80000
v 1.03848 1.20495 1.80000
v -0.03848 1.75495 1.80000
v -0.80000 1.75495 1.03848
v -0.80000 1.20495 1.03848
v -0.03848 1.20495 1.80000
v -0.80000 1.75495 1.03848
v -0.80000 1.75495 -0.03848
v -0.80000 1.20495 -0.03848
v -0.80000 1.20495 1.03848
v -0.80000 1.75495 -0.03848
v -0.03848 1.75495 -0.80000
v -0.03848 1.20495 -0.80000
v -0.80000 1.20495 -0.03848
v -0.03848 1.20495 -0.80000
v 1.03848 1.20495 -0.80000
v 1.03848 1.75495 -0.80000
v -0.03848 1.75495 -0.80000
v 1.03848 1.20495 -0.80000
v 1.80000 1.20495 -0.03848
v 1.80000 1.75495 -0.03848
v 1.03848 1.75495 -0.80000
v 1.80000 1.20495 -0.03848
v 1.80000 1.20495 1.03848
v 1.80000 1.75495 1.03848
v 1.80000 1.75495 -0.03848
v 1.80000 1.20495 1.03848
v 1.03848 1.20495 1.80000
v 1.03848 1.75495 1.80000
v 1.80000 1.75495 1.03848
v 1.03848 1.20495 1.80000
v -0.03848 1.20495 1.80000
v -0.03848 1.75495 1.80000
v 1.03848 1.75495 1.80000
v -0.03848 1.20495 1.80000
v -0.80000 1.20495 1.03848
v -0.80000 1.75495 1.03848
v -0.03848 1.75495 1.80000
v -0.80000 1.20495 1.03848
v -0.80000 1.20495 -0.03848
v -0.80000 1.75495 -0.03848
v -0.80000 1.75495 1.03848
v -0.80000 1.20495 -0.03848
v -0.03848 1.20495 -0.80000
v -0.03848 1.75495 -0.80000
v -0.80000 1.75495 -0.03848
vt 0.00000 0.00000
vt 1.00000 0.00000
vt 1.00000 0.18905
vt 0.00000 0.18905
vt 0.00000 0.00000
vt 1.00000 0.00000
vt 1.00000 0.40821
vt 0.00000 0.18905
vt 0.00000 0.00000
vt 1.00000 0.00000
vt 1.00000 0.40821
vt 0.57518 0.69456
vt 0.00000 0.00000
vt 0.57518 0.69456
vt 0.00000 0.40821
vt 0.00000 0.00000
vt 1.00000 0.00000
vt 1.00000 0.18905
vt 0.00000 0.40821
vt 0.00000 0.00000
vt 1.00000 0.00000
vt 1.00000 0.18905
vt 0.00000 0.18905
vt 0.00000 0.00000
vt 1.00000 0.00000
vt 1.00000 0.40821
vt 0.00000 0.18905
vt 0.00000 0.00000
vt 1.00000 0.00000
vt 1.00000 0.40821
vt 0.42482 0.69456
vt 0.00000 0.00000
vt 0.42482 0.69456
vt 0.00000 0.40821
vt 0.00000 0.00000
vt 1.00000 0.00000
vt 1.00000 0.18905
vt 0.00000 0.40821
vt 0.00000 0.00000
vt 1.00000 0.00000
vt 1.00000 0.18905
vt 0.00000 0.18905
vt 0.00000 0.00000
vt 1.00000 0.00000
vt 1.00000 0.40821
vt 0.00000 0.18905
vt 0.00000 0.00000
vt 1.00000 0.00000
vt 1.00000 0.40821
vt 0.57518 0.69456
vt 0.00000 0.00000
vt 0.57518 0.69456
vt 0.00000 0.40821
vt 0.00000 0.00000
vt 1.00000 0.00000
vt 1.00000 0.18905
vt 0.00000 0.40821
vt 0.00000 0.00000
vt 1.00000 0.00000
vt 1.00000 0.18905
vt 0.00000 0.18905
vt 0.00000 0.00000
vt 1.00000 0.00000
vt 1.00000 0.40821
vt 0.00000 0.18905
vt 0.00000 0.00000
vt 1.00000 0.00000
vt 1.00000 0.40821
vt 0.42482 0.69456
vt 0.00000 0.00000
vt 0.42482 0.69456
vt 0.00000 0.40821
vt 0.00000 0.00000
vt 1.00000 0.00000
vt 1.00000 0.18905
vt 0.00000 0.40821
vt 0.00000 0.00000
vt 1.00000 0.00000
vt 1.00000 1.00000
vt 0.00000 1.00000
vt 0.00000 0.00000
vt 1.00000 0.00000
vt 1.00000 1.00000
vt 0.00000 1.00000
vt 0.00000 0.00000
vt 1.00000 0.00000
vt 1.00000 1.00000
vt 0.00000 1.00000
vt 0.00000 0.00000
vt 1.00000 0.00000
vt 1.00000 1.00000
vt 0.00000 1.00000
vt 0.00000 0.00000
vt 1.00000 0.00000
vt 1.00000 1.00000
vt 0.00000 1.00000
vt 0.00000 0.00000
vt 1.00000 0.00000
vt 1.00000 1.00000
vt 0.00000 1.00000
vt 0.00000 0.00000
vt 1.00000 0.00000
vt 1.00000 1.00000
vt 0.00000 1.00000
vt 0.00000 0.00000
vt 1.00000 0.00000
vt 1.00000 1.00000
vt 0.00000 1.00000
vt 0.00000 0.00000
vt 1.00000 0.00000
vt 1.00000 1.00000
vt 0.00000 1.00000
vt 0.00000 0.00000
vt 1.00000 0.00000
vt 1.00000 1.00000
vt 0.00000 1.00000
vt 0.00000 0.00000
vt 1.00000 0.00000
vt 1.00000 1.00000
vt 0.00000 1.00000
vt 0.00000 0.00000
vt 1.00000 0.00000
vt 1.00000 1.00000
vt 0.00000 1.00000
vt 0.00000 0.00000
vt 1.00000 0.00000
vt 1.00000 1.00000
vt 0.00000 1.00000
vt 0.00000 0.00000
vt 1.00000 0.00000
vt 1.00000 1.00000
vt 0.00000 1.00000
vt 0.00000 0.00000
vt 1.00000 0.00000
vt 1.00000 1.00000
vt 0.00000 1.00000
vt 0.00000 0.00000
vt 1.00000 0.00000
vt 1.00000 1.00000
vt 0.00000 1.00000
vt 0.00000 0.00000
vt 1.00000 0.00000
vt 1.00000 1.00000
vt 0.00000 1.00000
vt 0.00000 0.00000
vt 1.00000 0.00000
vt 1.00000 1.00000
vt 0.00000 1.00000
vt 0.00000 0.00000
vt 1.00000 0.00000
vt 1.00000 1.00000
vt 0.00000 1.00000
vt 0.00000 0.00000
vt 1.00000 0.00000
vt 1.00000 1.00000
vt 0.00000 1.00000
vt 0.00000 0.00000
vt 1.00000 0.00000
vt 1.00000 1.00000
vt 0.00000 1.00000
vt 0.00000 0.00000
vt 1.00000 0.00000
vt 1.00000 1.00000
vt 0.00000 1.00000
vt 0.00000 0.00000
vt 1.00000 0.00000
vt 1.00000 1.00000
vt 0.00000 1.00000
vt 0.00000 0.00000
vt 1.00000 0.00000
vt 1.00000 1.00000
vt 0.00000 1.00000
vt 0.00000 0.00000
vt 1.00000 0.00000
vt 1.00000 1.00000
vt 0.00000 1.00000
vt 0.00000 0.00000
vt 1.00000 0.00000
vt 1.00000 1.00000
vt 0.00000 1.00000
vt 0.00000 0.00000
vt 1.00000 0.00000
vt 1.00000 1.00000
vt 0.00000 1.00000
vt 0.00000 0.00000
vt 1.00000 0.00000
vt 1.00000 1.00000
vt 0.00000 1.00000
vt 0.00000 0.00000
vt 1.00000 0.00000
vt 1.00000 1.00000
vt 0.00000 1.00000
vt 0.00000 0.00000
vt 1.00000 0.00000
vt 1.00000 1.00000
vt 0.00000 1.00000
vt 0.00000 0.00000
vt 1.00000 0.00000
vt 1.00000 1.00000
vt 0.00000 1.00000
vt 0.00000 0.00000
vt 1.00000 0.00000
vt 1.00000 1.00000
vt 0.00000 1.00000
vt 0.50000 0.00000
vt 1.00000 1.00000
vt 0.00000 1.00000
vt 0.50000 0.00000
vt 1.00000 1.00000
vt 0.00000 1.00000
vt 0.50000 0.00000
vt 1.00000 1.00000
vt 0.00000 1.00000
vt 0.50000 0.00000
vt 1.00000 1.00000
vt 0.00000 1.00000
vt 0.50000 0.00000
vt 1.00000 1.00000
vt 0.00000 1.00000
vt 0.50000 0.00000
vt 1.00000 1.00000
vt 0.00000 1.00000
vt 0.50000 0.00000
vt 1.00000 1.00000
vt 0.00000 1.00000
vt 0.50000 0.00000
vt 1.00000 1.00000
vt 0.00000 1.00000
vt 0.00000 1.00000
vt 1.00000 1.00000
vt 0.50000 0.00000
vt 0.00000 1.00000
vt 1.00000 1.00000
vt 0.50000 0.00000
vt 0.00000 1.00000
vt 1.00000 1.00000
vt 0.50000 0.00000
vt 0.00000 1.00000
vt 1.00000 1.00000
vt 0.50000 0.00000
vt 0.00000 1.00000
vt 1.00000 1.00000
vt 0.50000 0.00000
vt 0.00000 1.00000
vt 1.00000 1.00000
vt 0.50000 0.00000
vt 0.00000 1.00000
vt 1.00000 1.00000
vt 0.50000 0.00000
vt 0.00000 1.00000
vt 1.00000 1.00000
vt 0.50000 0.00000
vt 0.00000 0.00000
vt 1.00000 0.00000
vt 1.00000 1.00000
vt 0.00000 1.00000
vt 0.00000 0.00000
vt 1.00000 0.00000
vt 1.00000 1.00000
vt 0.00000 1.00000
vt 0.00000 0.00000
vt 1.00000 0.00000
vt 1.00000 1.00000
vt 0.00000 1.00000
vt 0.00000 0.00000
vt 1.00000 0.00000
vt 1.00000 1.00000
vt 0.00000 1.00000
vt 0.00000 0.00000
vt 1.00000 0.00000
vt 1.00000 1.00000
vt 0.00000 1.00000
vt 0.00000 0.00000
vt 1.00000 0.00000
vt 1.00000 1.00000
vt 0.00000 1.00000
vt 0.00000 0.00000
vt 1.00000 0.00000
vt 1.00000 1.00000
vt 0.00000 1.00000
vt 0.00000 0.00000
vt 1.00000 0.00000
vt 1.00000 1.00000
vt 0.00000 1.00000
vt 0.50000 0.00000
vt 1.00000 1.00000
vt 0.00000 1.00000
vt 0.50000 0.00000
vt 1.00000 1.00000
vt 0.00000 1.00000
vt 0.50000 0.00000
vt 1.00000 1.00000
vt 0.00000 1.00000
vt 0.50000 0.00000
vt 1.00000 1.00000
vt 0.00000 1.00000
vt 0.50000 0.00000
vt 1.00000 1.00000
vt 0.00000 1.00000
vt 0.50000 0.00000
vt 1.00000 1.00000
vt 0.00000 1.00000
vt 0.50000 0.00000
vt 1.00000 1.00000
vt 0.00000 1.00000
vt 0.50000 0.00000
vt 1.00000 1.00000
vt 0.00000 1.00000
vt 0.00000 0.00000
vt 1.00000 0.00000
vt 1.00000 1.00000
vt 0.00000 1.00000
vt 0.00000 0.00000
vt 1.00000 0.00000
vt 1.00000 1.00000
vt 0.00000 1.00000
vt 0.00000 0.00000
vt 1.00000 0.00000
vt 1.00000 1.00000
vt 0.00000 1.00000
vt 0.00000 0.00000
vt 1.00000 0.00000
vt 1.00000 1.00000
vt 0.00000 1.00000
vt 0.00000 0.00000
vt 1.00000 0.00000
vt 1.00000 1.00000
vt 0.00000 1.00000
vt 0.00000 0.00000
vt 1.00000 0.00000
vt 1.00000 1.00000
vt 0.00000 1.00000
vt 0.00000 0.00000
vt 1.00000 0.00000
vt 1.00000 1.00000
vt 0.00000 1.00000
vt 0.00000 0.00000
vt 1.00000 0.00000
vt 1.00000 1.00000
vt 0.00000 1.00000
vt 0.00000 1.00000
vt 1.00000 1.00000
vt 1.00000 0.00000
vt 0.00000 0.00000
vt 0.00000 1.00000
vt 1.00000 1.00000
vt 1.00000 0.00000
vt 0.00000 0.00000
vt 0.00000 1.00000
vt 1.00000 1.00000
vt 1.00000 0.00000
vt 0.00000 0.00000
vt 0.00000 1.00000
vt 1.00000 1.00000
vt 1.00000 0.00000
vt 0.00000 0.00000
vt 0.00000 1.00000
vt 1.00000 1.00000
vt 1.00000 0.00000
vt 0.00000 0.00000
vt 0.00000 1.00000
vt 1.00000 1.00000
vt 1.00000 0.00000
vt 0.00000 0.00000
vt 0.00000 1.00000
vt 1.00000 1.00000
vt 1.00000 0.00000
vt 0.00000 0.00000
vt 0.00000 1.00000
vt 1.00000 1.00000
vt 1.00000 0.00000
vt 0.00000 0.00000
vn -0.01416 0.99736 -0.07118
vn 0.01416 0.99736 -0.07118
vn 0.01653 0.99640 -0.08312
vn -0.01653 0.99640 -0.08312
vn 0.01416 0.99736 -0.07118
vn 0.04032 0.99736 -0.06034
vn 0.05492 0.99510 -0.08219
vn 0.01653 0.99640 -0.08312
vn 0.04032 0.99736 -0.06034
vn 0.06034 0.99736 -0.04032
vn 0.08219 0.99510 -0.05492
vn 0.08146 0.99336 -0.08120
vn 0.04032 0.99736 -0.06034
vn 0.08146 0.99336 -0.08120
vn 0.05492 0.99510 -0.08219
vn 0.06034 0.99736 -0.04032
vn 0.07118 0.99736 -0.01416
vn 0.08312 0.99640 -0.01653
vn 0.08219 0.99510 -0.05492
vn 0.07118 0.99736 -0.01416
vn 0.07118 0.99736 0.01416
vn 0.08312 0.99640 0.01653
vn 0.08312 0.99640 -0.01653
vn 0.07118 0.99736 0.01416
vn 0.06034 0.99736 0.04032
vn 0.08219 0.99510 0.05492
vn 0.08312 0.99640 0.01653
vn 0.06034 0.99736 0.04032
vn 0.04032 0.99736 0.06034
vn 0.05492 0.99510 0.08219
vn 0.08146 0.99336 0.08120
vn 0.06034 0.99736 0.04032
vn 0.08146 0.99336 0.08120
vn 0.08219 0.99510 0.05492
vn 0.04032 0.99736 0.06034
vn 0.01416 0.99736 0.07118
vn 0.01653 0.99640 0.08312
vn 0.05492 0.99510 0.08219
vn 0.01416 0.99736 0.07118
vn -0.01416 0.99736 0.07118
vn -0.01653 0.99640 0.08312
vn 0.01653 0.99640 0.08312
vn -0.01416 0.99736 0.07118
vn -0.04032 0.99736 0.06034
vn -0.05492 0.99510 0.08219
vn -0.01653 0.99640 0.08312
vn -0.04032 0.99736 0.06034
vn -0.06034 0.99736 0.04032
vn -0.08219 0.99510 0.05492
vn -0.08146 0.99336 0.08120
vn -0.04032 0.99736 0.06034
vn -0.08146 0.99336 0.08120
vn -0.05492 0.99510 0.08219
vn -0.06034 0.99736 0.04032
vn -0.07118 0.99736 0.01416
vn -0.08312 0.99640 0.01653
vn -0.08219 0.99510 0.05492
vn -0.07118 0.99736 0.01416
vn -0.07118 0.99736 -0.01416
vn -0.08312 0.99640 -0.01653
vn -0.08312 0.99640 0.01653
vn -0.07118 0.99736 -0.01416
vn -0.06034 0.99736 -0.04032
vn -0.08219 0.99510 -0.05492
vn -0.08312 0.99640 -0.01653
vn -0.06034 0.99736 -0.04032
vn -0.04032 0.99736 -0.06034
vn -0.05492 0.99510 -0.08219
vn -0.08146 0.99336 -0.08120
vn -0.06034 0.99736 -0.04032
vn -0.08146 0.99336 -0.08120
vn -0.08219 0.99510 -0.05492
vn -0.04032 0.99736 -0.06034
vn -0.01416 0.99736 -0.07118
vn -0.01653 0.99640 -0.08312
vn -0.05492 0.99510 -0.08219
vn -0.00871 0.99900 -0.04380
vn 0.00871 0.99900 -0.04380
vn 0.01416 0.99736 -0.07118
vn -0.01416 0.99736 -0.07118
vn 0.00871 0.99900 -0.04380
vn 0.02481 0.99900 -0.03713
vn 0.04032 0.99736 -0.06034
vn 0.01416 0.99736 -0.07118
vn 0.02481 0.99900 -0.03713
vn 0.03713 0.99900 -0.02481
vn 0.06034 0.99736 -0.04032
vn 0.04032 0.99736 -0.06034
vn 0.03713 0.99900 -0.02481
vn 0.04380 0.99900 -0.00871
vn 0.07118 0.99736 -0.01416
vn 0.06034 0.99736 -0.04032
vn 0.04380 0.99900 -0.00871
vn 0.04380 0.99900 0.00871
vn 0.07118 0.99736 0.01416
vn 0.07118 0.99736 -0.01416
vn 0.04380 0.99900 0.00871
vn 0.03713 0.99900 0.02481
vn 0.06034 0.99736 0.04032
vn 0.07118 0.99736 0.01416
vn 0.03713 0.99900 0.02481
vn 0.02481 0.99900 0.03713
vn 0.04032 0.99736 0.06034
vn 0.06034 0.99736 0.04032
vn 0.02481 0.99900 0.03713
vn 0.00871 0.99900 0.04380
vn 0.01416 0.99736 0.07118
vn 0.04032 0.99736 0.06034
vn 0.00871 0.99900 0.04380
vn -0.00871 0.99900 0.04380
vn -0.01416 0.99736 0.07118
vn 0.01416 0.99736 0.07118
vn -0.00871 0.99900 0.04380
vn -0.02481 0.99900 0.03713
vn -0.04032 0.99736 0.06034
vn -0.01416 0.99736 0.07118
vn -0.02481 0.99900 0.03713
vn -0.03713 0.99900 0.02481
vn -0.06034 0.99736 0.04032
vn -0.04032 0.99736 0.06034
vn -0.03713 0.99900 0.02481
vn -0.04380 0.99900 0.00871
vn -0.07118 0.99736 0.01416
vn -0.06034 0.99736 0.04032
vn -0.04380 0.99900 0.00871
vn -0.04380 0.99900 -0.00871
vn -0.07118 0.99736 -0.01416
vn -0.07118 0.99736 0.01416
vn -0.04380 0.99900 -0.00871
vn -0.03713 0.99900 -0.02481
vn -0.06034 0.99736 -0.04032
vn -0.07118 0.99736 -0.01416
vn -0.03713 0.99900 -0.02481
vn -0.02481 0.99900 -0.03713
vn -0.04032 0.99736 -0.06034
vn -0.06034 0.99736 -0.04032
vn -0.02481 0.99900 -0.03713
vn -0.00871 0.99900 -0.04380
vn -0.01416 0.99736 -0.07118
vn -0.04032 0.99736 -0.06034
vn -0.38268 0.00000 -0.92388
vn 0.38268 0.00000 -0.92388
vn 0.38268 0.00000 -0.92388
vn -0.38268 0.00000 -0.92388
vn 0.38268 0.00000 -0.92388
vn 0.92388 0.00000 -0.38268
vn 0.92388 0.00000 -0.38268
vn 0.38268 0.00000 -0.92388
vn 0.92388 0.00000 -0.38268
vn 0.92388 0.00000 0.38268
vn 0.92388 0.00000 0.38268
vn 0.92388 0.00000 -0.38268
vn 0.92388 0.00000 0.38268
vn 0.38268 0.00000 0.92388
vn 0.38268 0.00000 0.92388
vn 0.92388 0.00000 0.38268
vn 0.38268 0.00000 0.92388
vn -0.38268 0.00000 0.92388
vn -0.38268 0.00000 0.92388
vn 0.38268 0.00000 0.92388
vn -0.38268 0.00000 0.92388
vn -0.92388 0.00000 0.38268
vn -0.92388 0.00000 0.38268
vn -0.38268 0.00000 0.92388
vn -0.92388 0.00000 0.38268
vn -0.92388 0.00000 -0.38268
vn -0.92388 0.00000 -0.38268
vn -0.92388 0.00000 0.38268
vn -0.92388 0.00000 -0.38268
vn -0.38268 0.00000 -0.92388
vn -0.38268 0.00000 -0.92388
vn -0.92388 0.00000 -0.38268
vn -0.38268 0.00000 -0.92388
vn 0.38268 0.00000 -0.92388
vn 0.38268 0.00000 -0.92388
vn -0.38268 0.00000 -0.92388
vn 0.38268 0.00000 -0.92388
vn 0.92388 0.00000 -0.38268
vn 0.92388 0.00000 -0.38268
vn 0.38268 0.00000 -0.92388
vn 0.92388 0.00000 -0.38268
vn 0.92388 0.00000 0.38268
vn 0.92388 0.00000 0.38268
vn 0.92388 0.00000 -0.38268
vn 0.92388 0.00000 0.38268
vn 0.38268 0.00000 0.92388
vn 0.38268 0.00000 0.92388
vn 0.92388 0.00000 0.38268
vn 0.38268 0.00000 0.92388
vn -0.38268 0.00000 0.92388
vn -0.38268 0.00000 0.92388
vn 0.38268 0.00000 0.92388
vn -0.38268 0.00000 0.92388
vn -0.92388 0.00000 0.38268
vn -0.92388 0.00000 0.38268
vn -0.38268 0.00000 0.92388
vn -0.92388 0.00000 0.38268
vn -0.92388 0.00000 -0.38268
vn -0.92388 0.00000 -0.38268
vn -0.92388 0.00000 0.38268
vn -0.92388 0.00000 -0.38268
vn -0.38268 0.00000 -0.92388
vn -0.38268 0.00000 -0.92388
vn -0.92388 0.00000 -0.38268
vn 0.00000 1.00000 0.00000
vn 0.00000 1.00000 0.00000
vn 0.00000 1.00000 0.00000
vn 0.00000 1.00000 0.00000
vn 0.00000 1.00000 0.00000
vn 0.00000 1.00000 0.00000
vn 0.00000 1.00000 0.00000
vn 0.00000 1.00000 0.00000
vn 0.00000 1.00000 0.00000
vn 0.00000 1.00000 0.00000
vn 0.00000 1.00000 0.00000
vn 0.00000 1.00000 0.00000
vn 0.00000 1.00000 0.00000
vn 0.00000 1.00000 0.00000
vn 0.00000 1.00000 0.00000
vn 0.00000 1.00000 0.00000
vn 0.00000 1.00000 0.00000
vn 0.00000 1.00000 0.00000
vn 0.00000 1.00000 0.00000
vn 0.00000 1.00000 0.00000
vn 0.00000 1.00000 0.00000
vn 0.00000 1.00000 0.00000
vn 0.00000 1.00000 0.00000
vn 0.00000 1.00000 0.00000
vn 0.00000 -1.00000 0.00000
vn 0.00000 -1.00000 0.00000
vn 0.00000 -1.00000 0.00000
vn 0.00000 -1.00000 0.00000
vn 0.00000 -1.00000 0.00000
vn 0.00000 -1.00000 0.00000
vn 0.00000 -1.00000 0.00000
vn 0.00000 -1.00000 0.00000
vn 0.00000 -1.00000 0.00000
vn 0.00000 -1.00000 0.00000
vn 0.00000 -1.00000 0.00000
vn 0.00000 -1.00000 0.00000
vn 0.00000 -1.00000 0.00000
vn 0.00000 -1.00000 0.00000
vn 0.00000 -1.00000 0.00000
vn 0.00000 -1.00000 0.00000
vn 0.00000 -1.00000 0.00000
vn 0.00000 -1.00000 0.00000
vn 0.00000 -1.00000 0.00000
vn 0.00000 -1.00000 0.00000
vn 0.00000 -1.00000 0.00000
vn 0.00000 -1.00000 0.00000
vn 0.00000 -1.00000 0.00000
vn 0.00000 -1.00000 0.00000
vn -0.38268 0.00000 -0.92388
vn 0.38268 0.00000 -0.92388
vn 0.38268 0.00000 -0.92388
vn -0.38268 0.00000 -0.92388
vn 0.38268 0.00000 -0.92388
vn 0.92388 0.00000 -0.38268
vn 0.92388 0.00000 -0.38268
vn 0.38268 0.00000 -0.92388
vn 0.92388 0.00000 -0.38268
vn 0.92388 0.00000 0.38268
vn 0.92388 0.00000 0.38268
vn 0.92388 0.00000 -0.38268
vn 0.92388 0.00000 0.38268
vn 0.38268 0.00000 0.92388
vn 0.38268 0.00000 0.92388
vn 0.92388 0.00000 0.38268
vn 0.38268 0.00000 0.92388
vn -0.38268 0.00000 0.92388
vn -0.38268 0.00000 0.92388
vn 0.38268 0.00000 0.92388
vn -0.38268 0.00000 0.92388
vn -0.92388 0.00000 0.38268
vn -0.92388 0.00000 0.38268
vn -0.38268 0.00000 0.92388
vn -0.92388 0.00000 0.38268
vn -0.92388 0.00000 -0.38268
vn -0.92388 0.00000 -0.38268
vn -0.92388 0.00000 0.38268
vn -0.92388 0.00000 -0.38268
vn -0.38268 0.00000 -0.92388
vn -0.38268 0.00000 -0.92388
vn -0.92388 0.00000 -0.38268
vn 0.00000 1.00000 0.00000
vn 0.00000 1.00000 0.00000
vn 0.00000 1.00000 0.00000
vn 0.00000 1.00000 0.00000
vn 0.00000 1.00000 0.00000
vn 0.00000 1.00000 0.00000
vn 0.00000 1.00000 0.00000
vn 0.00000 1.00000 0.00000
vn 0.00000 1.00000 0.00000
vn 0.00000 1.00000 0.00000
vn 0.00000 1.00000 0.00000
vn 0.00000 1.00000 0.00000
vn 0.00000 1.00000 0.00000
vn 0.00000 1.00000 0.00000
vn 0.00000 1.00000 0.00000
vn 0.00000 1.00000 0.00000
vn 0.00000 1.00000 0.00000
vn 0.00000 1.00000 0.00000
vn 0.00000 1.00000 0.00000
vn 0.00000 1.00000 0.00000
vn 0.00000 1.00000 0.00000
vn 0.00000 1.00000 0.00000
vn 0.00000 1.00000 0.00000
vn 0.00000 1.00000 0.00000
vn -0.38268 0.00000 -0.92388
vn 0.38268 0.00000 -0.92388
vn 0.38268 0.00000 -0.92388
vn -0.38268 0.00000 -0.92388
vn 0.38268 0.00000 -0.92388
vn 0.92388 0.00000 -0.38268
vn 0.92388 0.00000 -0.38268
vn 0.38268 0.00000 -0.92388
vn 0.92388 0.00000 -0.38268
vn 0.92388 0.00000 0.38268
vn 0.92388 0.00000 0.38268
vn 0.92388 0.00000 -0.38268
vn 0.92388 0.00000 0.38268
vn 0.38268 0.00000 0.92388
vn 0.38268 0.00000 0.92388
vn 0.92388 0.00000 0.38268
vn 0.38268 0.00000 0.92388
vn -0.38268 0.00000 0.92388
vn -0.38268 0.00000 0.92388
vn 0.38268 0.00000 0.92388
vn -0.38268 0.00000 0.92388
vn -0.92388 0.00000 0.38268
vn -0.92388 0.00000 0.38268
vn -0.38268 0.00000 0.92388
vn -0.92388 0.00000 0.38268
vn -0.92388 0.00000 -0.38268
vn -0.92388 0.00000 -0.38268
vn -0.92388 0.00000 0.38268
vn -0.92388 0.00000 -0.38268
vn -0.38268 0.00000 -0.92388
vn -0.38268 0.00000 -0.92388
vn -0.92388 0.00000 -0.38268
vn 0.38268 -0.00000 0.92388
vn -0.38268 -0.00000 0.92388
vn -0.38268 -0.00000 0.92388
vn 0.38268 -0.00000 0.92388
vn -0.38268 -0.00000 0.92388
vn -0.92388 -0.00000 0.38268
vn -0.92388 -0.00000 0.38268
vn -0.38268 -0.00000 0.92388
vn -0.92388 -0.00000 0.38268
vn -0.92388 -0.00000 -0.38268
vn -0.92388 -0.00000 -0.38268
vn -0.92388 -0.00000 0.38268
vn -0.92388 -0.00000 -0.38268
vn -0.38268 -0.00000 -0.92388
vn -0.38268 -0.00000 -0.92388
vn -0.92388 -0.00000 -0.38268
vn -0.38268 -0.00000 -0.92388
vn 0.38268 -0.00000 -0.92388
vn 0.38268 -0.00000 -0.92388
vn -0.38268 -0.00000 -0.92388
vn 0.38268 -0.00000 -0.92388
vn 0.92388 -0.00000 -0.38268
vn 0.92388 -0.00000 -0.38268
vn 0.38268 -0.00000 -0.92388
vn 0.92388 -0.00000 -0.38268
vn 0.92388 -0.00000 0.38268
vn 0.92388 -0.00000 0.38268
vn 0.92388 -0.00000 -0.38268
vn 0.92388 -0.00000 0.38268
vn 0.38268 -0.00000 0.92388
vn 0.38268 -0.00000 0.92388
vn 0.92388 -0.00000 0.38268
usemtl dark
f 173/173/173 174/174/174 175/175/175 176/176/176
f 177/177/177 178/178/178 179/179/179 180/180/180
f 181/181/181 182/182/182 183/183/183 184/184/184
f 185/185/185 186/186/186 187/187/187 188/188/188
f 189/189/189 190/190/190 191/191/191 192/192/192
f 193/193/193 194/194/194 195/195/195 196/196/196
f 197/197/197 198/198/198 199/199/199 200/200/200
f 201/201/201 202/202/202 203/203/203 204/204/204
f 205/205/205 206/206/206 207/207/207
f 208/208/208 209/209/209 210/210/210
f 211/211/211 212/212/212 213/213/213
f 214/214/214 215/215/215 216/216/216
f 217/217/217 218/218/218 219/219/219
f 220/220/220 221/221/221 222/222/222
f 223/223/223 224/224/224 225/225/225
f 226/226/226 227/227/227 228/228/228
f 229/229/229 230/230/230 231/231/231
f 232/232/232 233/233/233 234/234/234
f 235/235/235 236/236/236 237/237/237
f 238/238/238 239/239/239 240/240/240
f 241/241/241 242/242/242 243/243/243
f 244/244/244 245/245/245 246/246/246
f 247/247/247 248/248/248 249/249/249
f 250/250/250 251/251/251 252/252/252
usemtl light
f 253/253/253 254/254/254 255/255/255 256/256/256
f 257/257/257 258/258/258 259/259/259 260/260/260
f 261/261/261 262/262/262 263/263/263 264/264/264
f 265/265/265 266/266/266 267/267/267 268/268/268
f 269/269/269 270/270/270 271/271/271 272/272/272
f 273/273/273 274/274/274 275/275/275 276/276/276
f 277/277/277 278/278/278 279/279/279 280/280/280
f 281/281/281 282/282/282 283/283/283 284/284/284
f 285/285/285 286/286/286 287/287/287
f 288/288/288 289/289/289 290/290/290
f 291/291/291 292/292/292 293/293/293
f 294/294/294 295/295/295 296/296/296
f 297/297/297 298/298/298 299/299/299
f 300/300/300 301/301/301 302/302/302
f 303/303/303 304/304/304 305/305/305
f 306/306/306 307/307/307 308/308/308
usemtl paint
f 1/1/1 2/2/2 3/3/3 4/4/4
f 5/5/5 6/6/6 7/7/7 8/8/8
f 9/9/9 10/10/10 11/11/11 12/12/12
f 13/13/13 14/14/14 15/15/15
f 16/16/16 17/17/17 18/18/18 19/19/19
f 20/20/20 21/21/21 22/22/22 23/23/23
f 24/24/24 25/25/25 26/26/26 27/27/27
f 28/28/28 29/29/29 30/30/30 31/31/31
f 32/32/32 33/33/33 34/34/34
f 35/35/35 36/36/36 37/37/37 38/38/38
f 39/39/39 40/40/40 41/41/41 42/42/42
f 43/43/43 44/44/44 45/45/45 46/46/46
f 47/47/47 48/48/48 49/49/49 50/50/50
f 51/51/51 52/52/52 53/53/53
f 54/54/54 55/55/55 56/56/56 57/57/57
f 58/58/58 59/59/59 60/60/60 61/61/61
f 62/62/62 63/63/63 64/64/64 65/65/65
f 66/66/66 67/67/67 68/68/68 69/69/69
f 70/70/70 71/71/71 72/72/72
f 73/73/73 74/74/74 75/75/75 76/76/76
f 77/77/77 78/78/78 79/79/79 80/80/80
f 81/81/81 82/82/82 83/83/83 84/84/84
f 85/85/85 86/86/86 87/87/87 88/88/88
f 89/89/89 90/90/90 91/91/91 92/92/92
f 93/93/93 94/94/94 95/95/95 96/96/96
f 97/97/97 98/98/98 99/99/99 100/100/100
f 101/101/101 102/102/102 103/103/103 104/104/104
f 105/105/105 106/106/106 107/107/107 108/108/108
f 109/109/109 110/110/110 111/111/111 112/112/112
f 113/113/113 114/114/114 115/115/115 116/116/116
f 117/117/117 118/118/118 119/119/119 120/120/120
f 121/121/121 122/122/122 123/123/123 124/124/124
f 125/125/125 126/126/126 127/127/127 128/128/128
f 129/129/129 130/130/130 131/131/131 132/132/132
f 133/133/133 134/134/134 135/135/135 136/136/136
f 137/137/137 138/138/138 139/139/139 140/140/140
f 141/141/141 142/142/142 143/143/143 144/144/144
f 145/145/145 146/146/146 147/147/147 148/148/148
f 149/149/149 150/150/150 151/151/151 152/152/152
f 153/153/153 154/154/154 155/155/155 156/156/156
f 157/157/157 158/158/158 159/159/159 160/160/160
f 161/161/161 162/162/162 163/163/163 164/164/164
f 165/165/165 166/166/166 167/167/167 168/168/168
f 169/169/169 170/170/170 171/171/171 172/172/172
usemtl railing
f 309/309/309 310/310/310 311/311/311 312/312/312
f 313/313/313 314/314/314 315/315/315 316/316/316
f 317/317/317 318/318/318 319/319/319 320/320/320
f 321/321/321 322/322/322 323/323/323 324/324/324
f 325/325/325 326/326/326 327/327/327 328/328/328
f 329/329/329 330/330/330 331/331/331 332/332/332
f 333/333/333 334/334/334 335/335/335 336/336/336
f 337/337/337 338/338/338 339/339/339 340/340/340
f 341/341/341 342/342/342 343/343/343 344/344/344
f 345/345/345 346/346/346 347/347/347 348/348/348
f 349/349/349 350/350/350 351/351/351 352/352/352
f 353/353/353 354/354/354 355/355/355 356/356/356
f 357/357/357 358/358/358 359/359/359 360/360/360
f 361/361/361 362/362/362 363/363/363 364/364/364
f 365/365/365 366/366/366 367/367/367 368/368/368
f 369/369/369 370/370/370 371/371/371 372/372/372
