# Generated by dev-env-utils/scripts/gen_utilities_water.py -- do not edit
mtllib water_tower.mtl
o spheroid_medium_0_2_1
v -0.01717 0.35000 0.90000
v 1.01717 0.35000 0.90000
v 0.79837 -0.94130 2.00000
v 0.20163 -0.94130 2.00000
v 1.01717 0.35000 0.90000
v 1.97278 0.35000 1.29583
v 1.50227 -0.62509 2.00000
v 0.79837 -0.94130 2.00000
v 1.97278 0.35000 1.29583
v 2.00000 0.35000 1.32304
v 2.00000 -0.21193 2.00000
v 1.50227 -0.62509 2.00000
v -1.00000 0.35000 1.32304
v -0.97278 0.35000 1.29583
v -0.50227 -0.62509 2.00000
v -1.00000 -0.21193 2.00000
v -0.97278 0.35000 1.29583
v -0.01717 0.35000 0.90000
v 0.20163 -0.94130 2.00000
v -0.50227 -0.62509 2.00000
v -0.27576 1.55000 -0.40000
v 1.27576 1.55000 -0.40000
v 1.01717 0.35000 0.90000
v -0.01717 0.35000 0.90000
v 1.27576 1.55000 -0.40000
v 2.00000 1.55000 -0.10001
v 2.00000 0.39435 1.25509
v 1.97278 0.35000 1.29583
v 1.27576 1.55000 -0.40000
v 1.97278 0.35000 1.29583
v 1.01717 0.35000 0.90000
v 2.00000 0.35000 1.32304
v 1.97278 0.35000 1.29583
v 2.00000 0.39435 1.25509
v -1.00000 0.39435 1.25509
v -0.97278 0.35000 1.29583
v -1.00000 0.35000 1.32304
v -1.00000 1.55000 -0.10001
v -0.27576 1.55000 -0.40000
v -0.01717 0.35000 0.90000
v -0.97278 0.35000 1.29583
v -1.00000 1.55000 -0.10001
v -0.97278 0.35000 1.29583
v -1.00000 0.39435 1.25509
v 1.39511 1.96538 -1.00000
v 1.27576 1.55000 -0.40000
v -0.27576 1.55000 -0.40000
v -0.39511 1.96538 -1.00000
v 2.00000 2.00000 -0.80356
v 2.00000 1.55000 -0.10001
v 1.27576 1.55000 -0.40000
v 1.39511 1.96538 -1.00000
v 2.00000 2.00000 -0.80356
v 1.39511 1.96538 -1.00000
v 1.52576 2.00000 -1.00000
v -0.39511 1.96538 -1.00000
v -0.27576 1.55000 -0.40000
v -1.00000 1.55000 -0.10001
v -1.00000 2.00000 -0.80356
v -0.39511 1.96538 -1.00000
v -1.00000 2.00000 -0.80356
v -0.52576 2.00000 -1.00000
vt 0.00000 0.00000
vt 1.00000 0.00000
vt 1.00000 0.95652
vt 0.00000 0.95652
vt 0.00000 0.00000
vt 1.00000 0.00000
vt 1.00000 0.72229
vt 0.00000 0.95652
vt 0.00000 0.00000
vt 0.03721 0.00000
vt 0.59205 0.41624
vt 0.00000 0.72229
vt 0.96279 0.00000
vt 1.00000 0.00000
vt 1.00000 0.72229
vt 0.40795 0.41624
vt 0.00000 0.00000
vt 1.00000 0.00000
vt 1.00000 0.95652
vt 0.00000 0.72229
vt 0.00000 0.00000
vt 1.00000 0.00000
vt 1.00000 1.00000
vt 0.00000 1.00000
vt 0.00000 0.00000
vt 0.50526 0.00000
vt 1.00000 0.96304
vt 1.00000 1.00000
vt 0.00000 0.00000
vt 1.00000 1.00000
vt 0.00000 1.00000
vt 0.03721 1.00000
vt 0.00000 1.00000
vt 0.00000 0.96304
vt 1.00000 0.96304
vt 1.00000 1.00000
vt 0.96279 1.00000
vt 0.49474 0.00000
vt 1.00000 0.00000
vt 1.00000 1.00000
vt 0.00000 1.00000
vt 0.49474 0.00000
vt 0.00000 1.00000
vt 0.00000 0.96304
vt 1.00000 0.53846
vt 1.00000 1.00000
vt 0.00000 1.00000
vt 0.00000 0.53846
vt 0.37445 0.50000
vt 0.50526 1.00000
vt 0.00000 1.00000
vt 0.00000 0.53846
vt 0.37445 0.50000
vt 0.00000 0.53846
vt 0.07597 0.50000
vt 1.00000 0.53846
vt 1.00000 1.00000
vt 0.49474 1.00000
vt 0.62555 0.50000
vt 1.00000 0.53846
vt 0.62555 0.50000
vt 0.92403 0.50000
vn -0.14067 -0.69288 -0.70720
vn 0.14067 -0.69288 -0.70720
vn 0.14818 -0.65045 -0.74496
vn -0.14818 -0.65045 -0.74496
vn 0.14067 -0.69288 -0.70720
vn 0.40060 -0.69288 -0.59954
vn 0.41687 -0.66104 -0.62390
vn 0.14818 -0.65045 -0.74496
vn 0.40060 -0.69288 -0.59954
vn 0.40858 -0.69386 -0.59297
vn 0.53784 -0.68151 -0.49627
vn 0.41687 -0.66104 -0.62390
vn -0.40858 -0.69386 -0.59297
vn -0.40060 -0.69288 -0.59954
vn -0.41687 -0.66104 -0.62390
vn -0.53784 -0.68151 -0.49627
vn -0.40060 -0.69288 -0.59954
vn -0.14067 -0.69288 -0.70720
vn -0.14818 -0.65045 -0.74496
vn -0.41687 -0.66104 -0.62390
vn -0.12198 -0.78041 -0.61326
vn 0.12198 -0.78041 -0.61326
vn 0.14067 -0.69288 -0.70720
vn -0.14067 -0.69288 -0.70720
vn 0.12198 -0.78041 -0.61326
vn 0.23764 -0.78628 -0.57035
vn 0.39875 -0.69632 -0.59677
vn 0.40060 -0.69288 -0.59954
vn 0.12198 -0.78041 -0.61326
vn 0.40060 -0.69288 -0.59954
vn 0.14067 -0.69288 -0.70720
vn 0.40858 -0.69386 -0.59297
vn 0.40060 -0.69288 -0.59954
vn 0.39875 -0.69632 -0.59677
vn -0.39875 -0.69632 -0.59677
vn -0.40060 -0.69288 -0.59954
vn -0.40858 -0.69386 -0.59297
vn -0.23764 -0.78628 -0.57035
vn -0.12198 -0.78041 -0.61326
vn -0.14067 -0.69288 -0.70720
vn -0.40060 -0.69288 -0.59954
vn -0.23764 -0.78628 -0.57035
vn -0.40060 -0.69288 -0.59954
vn -0.39875 -0.69632 -0.59677
vn 0.11046 -0.82426 -0.55534
vn 0.12198 -0.78041 -0.61326
vn -0.12198 -0.78041 -0.61326
vn -0.11046 -0.82426 -0.55534
vn 0.18952 -0.83238 -0.52079
vn 0.23764 -0.78628 -0.57035
vn 0.12198 -0.78041 -0.61326
vn 0.11046 -0.82426 -0.55534
vn 0.18952 -0.83238 -0.52079
vn 0.11046 -0.82426 -0.55534
vn 0.12579 -0.82915 -0.54469
vn -0.11046 -0.82426 -0.55534
vn -0.12198 -0.78041 -0.61326
vn -0.23764 -0.78628 -0.57035
vn -0.18952 -0.83238 -0.52079
vn -0.11046 -0.82426 -0.55534
vn -0.18952 -0.83238 -0.52079
vn -0.12579 -0.82915 -0.54469
usemtl paint
f 1/1/1 2/2/2 3/3/3 4/4/4
f 5/5/5 6/6/6 7/7/7 8/8/8
f 9/9/9 10/10/10 11/11/11 12/12/12
f 13/13/13 14/14/14 15/15/15 16/16/16
f 17/17/17 18/18/18 19/19/19 20/20/20
f 21/21/21 22/22/22 23/23/23 24/24/24
f 25/25/25 26/26/26 27/27/27 28/28/28
f 29/29/29 30/30/30 31/31/31
f 32/32/32 33/33/33 34/34/34
f 35/35/35 36/36/36 37/37/37
f 38/38/38 39/39/39 40/40/40 41/41/41
f 42/42/42 43/43/43 44/44/44
f 45/45/45 46/46/46 47/47/47 48/48/48
f 49/49/49 50/50/50 51/51/51 52/52/52
f 53/53/53 54/54/54 55/55/55
f 56/56/56 57/57/57 58/58/58 59/59/59
f 60/60/60 61/61/61 62/62/62
