# Generated by dev-env-utils/scripts/gen_utilities_water.py -- do not edit
mtllib water_tower.mtl
o spheroid_medium_0_2_2
v 0.79837 -0.94130 -1.00000
v 0.78842 -1.00000 -0.95000
v 0.21158 -1.00000 -0.95000
v 0.20163 -0.94130 -1.00000
v 1.50227 -0.62509 -1.00000
v 1.32136 -1.00000 -0.72925
v 0.78842 -1.00000 -0.95000
v 0.79837 -0.94130 -1.00000
v 2.00000 -0.21193 -1.00000
v 2.00000 -0.62509 -0.50227
v 1.72925 -1.00000 -0.32136
v 1.32136 -1.00000 -0.72925
v 2.00000 -0.21193 -1.00000
v 1.32136 -1.00000 -0.72925
v 1.50227 -0.62509 -1.00000
v 2.00000 -0.94130 0.20163
v 1.95000 -1.00000 0.21158
v 1.72925 -1.00000 -0.32136
v 2.00000 -0.62509 -0.50227
v 2.00000 -0.94130 0.79837
v 1.95000 -1.00000 0.78842
v 1.95000 -1.00000 0.21158
v 2.00000 -0.94130 0.20163
v 2.00000 -0.62509 1.50227
v 1.72925 -1.00000 1.32136
v 1.95000 -1.00000 0.78842
v 2.00000 -0.94130 0.79837
v 1.50227 -0.62509 2.00000
v 1.32136 -1.00000 1.72925
v 1.72925 -1.00000 1.32136
v 2.00000 -0.62509 1.50227
v 1.50227 -0.62509 2.00000
v 2.00000 -0.62509 1.50227
v 2.00000 -0.21193 2.00000
v 0.79837 -0.94130 2.00000
v 0.78842 -1.00000 1.95000
v 1.32136 -1.00000 1.72925
v 1.50227 -0.62509 2.00000
v 0.20163 -0.94130 2.00000
v 0.21158 -1.00000 1.95000
v 0.78842 -1.00000 1.95000
v 0.79837 -0.94130 2.00000
v -0.50227 -0.62509 2.00000
v -0.32136 -1.00000 1.72925
v 0.21158 -1.00000 1.95000
v 0.20163 -0.94130 2.00000
v -1.00000 -0.21193 2.00000
v -1.00000 -0.62509 1.50227
v -0.72925 -1.00000 1.32136
v -0.32136 -1.00000 1.72925
v -1.00000 -0.21193 2.00000
v -0.32136 -1.00000 1.72925
v -0.50227 -0.62509 2.00000
v -1.00000 -0.94130 0.79837
v -0.95000 -1.00000 0.78842
v -0.72925 -1.00000 1.32136
v -1.00000 -0.62509 1.50227
v -1.00000 -0.94130 0.20163
v -0.95000 -1.00000 0.21158
v -0.95000 -1.00000 0.78842
v -1.00000 -0.94130 0.79837
v -1.00000 -0.62509 -0.50227
v -0.72925 -1.00000 -0.32136
v -0.95000 -1.00000 0.21158
v -1.00000 -0.94130 0.20163
v -0.50227 -0.62509 -1.00000
v -0.32136 -1.00000 -0.72925
v -0.72925 -1.00000 -0.32136
v -1.00000 -0.62509 -0.50227
v -0.50227 -0.62509 -1.00000
v -1.00000 -0.62509 -0.50227
v -1.00000 -0.21193 -1.00000
v 0.20163 -0.94130 -1.00000
v 0.21158 -1.00000 -0.95000
v -0.32136 -1.00000 -0.72925
v -0.50227 -0.62509 -1.00000
vt 1.00000 0.95652
vt 1.00000 1.00000
vt 0.00000 1.00000
vt 0.00000 0.95652
vt 1.00000 0.72229
vt 1.00000 1.00000
vt 0.00000 1.00000
vt 0.00000 0.95652
vt 0.59205 0.41624
vt 1.00000 0.72229
vt 1.00000 1.00000
vt 0.00000 1.00000
vt 0.59205 0.41624
vt 0.00000 1.00000
vt 0.00000 0.72229
vt 1.00000 0.95652
vt 1.00000 1.00000
vt 0.00000 1.00000
vt 0.00000 0.72229
vt 1.00000 0.95652
vt 1.00000 1.00000
vt 0.00000 1.00000
vt 0.00000 0.95652
vt 1.00000 0.72229
vt 1.00000 1.00000
vt 0.00000 1.00000
vt 0.00000 0.95652
vt 1.00000 0.72229
vt 1.00000 1.00000
vt 0.00000 1.00000
vt 0.00000 0.72229
vt 1.00000 0.72229
vt 0.00000 0.72229
vt 0.40795 0.41624
vt 1.00000 0.95652
vt 1.00000 1.00000
vt 0.00000 1.00000
vt 0.00000 0.72229
vt 1.00000 0.95652
vt 1.00000 1.00000
vt 0.00000 1.00000
vt 0.00000 0.95652
vt 1.00000 0.72229
vt 1.00000 1.00000
vt 0.00000 1.00000
vt 0.00000 0.95652
vt 0.59205 0.41624
vt 1.00000 0.72229
vt 1.00000 1.00000
vt 0.00000 1.00000
vt 0.59205 0.41624
vt 0.00000 1.00000
vt 0.00000 0.72229
vt 1.00000 0.95652
vt 1.00000 1.00000
vt 0.00000 1.00000
vt 0.00000 0.72229
vt 1.00000 0.95652
vt 1.00000 1.00000
vt 0.00000 1.00000
vt 0.00000 0.95652
vt 1.00000 0.72229
vt 1.00000 1.00000
vt 0.00000 1.00000
vt 0.00000 0.95652
vt 1.00000 0.72229
vt 1.00000 1.00000
vt 0.00000 1.00000
vt 0.00000 0.72229
vt 1.00000 0.72229
vt 0.00000 0.72229
vt 0.40795 0.41624
vt 1.00000 0.95652
vt 1.00000 1.00000
vt 0.00000 1.00000
vt 0.00000 0.72229
vn 0.14818 -0.65045 -0.74496
vn 0.14851 -0.64847 -0.74662
vn -0.14851 -0.64847 -0.74662
vn -0.14818 -0.65045 -0.74496
vn 0.41687 -0.66104 -0.62390
vn 0.42292 -0.64847 -0.63295
vn 0.14851 -0.64847 -0.74662
vn 0.14818 -0.65045 -0.74496
vn 0.53784 -0.68151 -0.49627
vn 0.62390 -0.66104 -0.41687
vn 0.63295 -0.64847 -0.42292
vn 0.42292 -0.64847 -0.63295
vn 0.53784 -0.68151 -0.49627
vn 0.42292 -0.64847 -0.63295
vn 0.41687 -0.66104 -0.62390
vn 0.74496 -0.65045 -0.14818
vn 0.74662 -0.64847 -0.14851
vn 0.63295 -0.64847 -0.42292
vn 0.62390 -0.66104 -0.41687
vn 0.74496 -0.65045 0.14818
vn 0.74662 -0.64847 0.14851
vn 0.74662 -0.64847 -0.14851
vn 0.74496 -0.65045 -0.14818
vn 0.62390 -0.66104 0.41687
vn 0.63295 -0.64847 0.42292
vn 0.74662 -0.64847 0.14851
vn 0.74496 -0.65045 0.14818
vn 0.41687 -0.66104 0.62390
vn 0.42292 -0.64847 0.63295
vn 0.63295 -0.64847 0.42292
vn 0.62390 -0.66104 0.41687
vn 0.41687 -0.66104 0.62390
vn 0.62390 -0.66104 0.41687
vn 0.53784 -0.68151 0.49627
vn 0.14818 -0.65045 0.74496
vn 0.14851 -0.64847 0.74662
vn 0.42292 -0.64847 0.63295
vn 0.41687 -0.66104 0.62390
vn -0.14818 -0.65045 0.74496
vn -0.14851 -0.64847 0.74662
vn 0.14851 -0.64847 0.74662
vn 0.14818 -0.65045 0.74496
vn -0.41687 -0.66104 0.62390
vn -0.42292 -0.64847 0.63295
vn -0.14851 -0.64847 0.74662
vn -0.14818 -0.65045 0.74496
vn -0.53784 -0.68151 0.49627
vn -0.62390 -0.66104 0.41687
vn -0.63295 -0.64847 0.42292
vn -0.42292 -0.64847 0.63295
vn -0.53784 -0.68151 0.49627
vn -0.42292 -0.64847 0.63295
vn -0.41687 -0.66104 0.62390
vn -0.74496 -0.65045 0.14818
vn -0.74662 -0.64847 0.14851
vn -0.63295 -0.64847 0.42292
vn -0.62390 -0.66104 0.41687
vn -0.74496 -0.65045 -0.14818
vn -0.74662 -0.64847 -0.14851
vn -0.74662 -0.64847 0.14851
vn -0.74496 -0.65045 0.14818
vn -0.62390 -0.66104 -0.41687
vn -0.63295 -0.64847 -0.42292
vn -0.74662 -0.64847 -0.14851
vn -0.74496 -0.65045 -0.14818
vn -0.41687 -0.66104 -0.62390
vn -0.42292 -0.64847 -0.63295
vn -0.63295 -0.64847 -0.42292
vn -0.62390 -0.66104 -0.41687
vn -0.41687 -0.66104 -0.62390
vn -0.62390 -0.66104 -0.41687
vn -0.53784 -0.68151 -0.49627
vn -0.14818 -0.65045 -0.74496
vn -0.14851 -0.64847 -0.74662
vn -0.42292 -0.64847 -0.63295
vn -0.41687 -0.66104 -0.62390
usemtl paint
f 1/1/1 2/2/2 3/3/3 4/4/4
f 5/5/5 6/6/6 7/7/7 8/8/8
f 9/9/9 10/10/10 11/11/11 12/12/12
f 13/13/13 14/14/14 15/15/15
f 16/16/16 17/17/17 18/18/18 19/19/19
f 20/20/20 21/21/21 22/22/22 23/23/23
f 24/24/24 25/25/25 26/26/26 27/27/27
f 28/28/28 29/29/29 30/30/30 31/31/31
f 32/32/32 33/33/33 34/34/34
f 35/35/35 36/36/36 37/37/37 38/38/38
f 39/39/39 40/40/40 41/41/41 42/42/42
f 43/43/43 44/44/44 45/45/45 46/46/46
f 47/47/47 48/48/48 49/49/49 50/50/50
f 51/51/51 52/52/52 53/53/53
f 54/54/54 55/55/55 56/56/56 57/57/57
f 58/58/58 59/59/59 60/60/60 61/61/61
f 62/62/62 63/63/63 64/64/64 65/65/65
f 66/66/66 67/67/67 68/68/68 69/69/69
f 70/70/70 71/71/71 72/72/72
f 73/73/73 74/74/74 75/75/75 76/76/76
