# Generated by dev-env-utils/scripts/gen_utilities_water.py -- do not edit
mtllib water_tower.mtl
o spheroid_small_band_shell_0
v -0.35532 -0.95000 -0.80000
v 1.35532 -0.95000 -0.80000
v 1.35532 -1.00000 -0.80000
v -0.35532 -1.00000 -0.80000
v 1.35532 -0.95000 -0.80000
v 2.00000 -0.95000 -0.53297
v 2.00000 -1.00000 -0.53297
v 1.35532 -1.00000 -0.80000
v -1.00000 -0.95000 -0.53297
v -0.35532 -0.95000 -0.80000
v -0.35532 -1.00000 -0.80000
v -1.00000 -1.00000 -0.53297
v -0.35532 -0.05000 -0.80000
v 1.35532 -0.05000 -0.80000
v 1.35532 -0.10000 -0.80000
v -0.35532 -0.10000 -0.80000
v 1.35532 -0.05000 -0.80000
v 2.00000 -0.05000 -0.53297
v 2.00000 -0.10000 -0.53297
v 1.35532 -0.10000 -0.80000
v -1.00000 -0.05000 -0.53297
v -0.35532 -0.05000 -0.80000
v -0.35532 -0.10000 -0.80000
v -1.00000 -0.10000 -0.53297
v -0.34233 0.19311 -0.73467
v 1.34233 0.19311 -0.73467
v 1.35532 -0.05000 -0.80000
v -0.35532 -0.05000 -0.80000
v 1.34233 0.19311 -0.73467
v 2.00000 0.19311 -0.46226
v 2.00000 -0.05000 -0.53297
v 1.35532 -0.05000 -0.80000
v -1.00000 0.19311 -0.46226
v -0.34233 0.19311 -0.73467
v -0.35532 -0.05000 -0.80000
v -1.00000 -0.05000 -0.53297
v -0.30374 0.42883 -0.54068
v 1.30374 0.42883 -0.54068
v 1.34233 0.19311 -0.73467
v -0.34233 0.19311 -0.73467
v 1.30374 0.42883 -0.54068
v 2.00000 0.42883 -0.25228
v 2.00000 0.19311 -0.46226
v 1.34233 0.19311 -0.73467
v -1.00000 0.42883 -0.25228
v -0.30374 0.42883 -0.54068
v -0.34233 0.19311 -0.73467
v -1.00000 0.19311 -0.46226
v -0.24073 0.65000 -0.22391
v 1.24073 0.65000 -0.22391
v 1.30374 0.42883 -0.54068
v -0.30374 0.42883 -0.54068
v 1.24073 0.65000 -0.22391
v 2.00000 0.65000 0.09059
v 2.00000 0.42883 -0.25228
v 1.30374 0.42883 -0.54068
v -1.00000 0.65000 0.09059
v -0.24073 0.65000 -0.22391
v -0.30374 0.42883 -0.54068
v -1.00000 0.42883 -0.25228
v -0.15522 0.84990 0.20601
v 1.15522 0.84990 0.20601
v 1.24073 0.65000 -0.22391
v -0.24073 0.65000 -0.22391
v 1.15522 0.84990 0.20601
v 2.00000 0.84990 0.55593
v 2.00000 0.65000 0.09059
v 1.24073 0.65000 -0.22391
v -1.00000 0.84990 0.55593
v -0.15522 0.84990 0.20601
v -0.24073 0.65000 -0.22391
v -1.00000 0.65000 0.09059
v -0.04979 1.02246 0.73601
v 1.04979 1.02246 0.73601
v 1.15522 0.84990 0.20601
v -0.15522 0.84990 0.20601
v 1.04979 1.02246 0.73601
v 2.00000 1.02246 1.12960
v 2.00000 0.84990 0.55593
v 1.15522 0.84990 0.20601
v -1.00000 1.02246 1.12960
v -0.04979 1.02246 0.73601
v -0.15522 0.84990 0.20601
v -1.00000 0.84990 0.55593
v 0.07234 1.16244 1.35000
v 0.92766 1.16244 1.35000
v 1.04979 1.02246 0.73601
v -0.04979 1.02246 0.73601
v 0.92766 1.16244 1.35000
v 1.71788 1.16244 1.67732
v 2.00000 1.04889 1.25509
v 2.00000 1.02246 1.12960
v 0.92766 1.16244 1.35000
v 2.00000 1.02246 1.12960
v 1.04979 1.02246 0.73601
v 1.71788 1.16244 1.67732
v 2.00000 1.16244 1.95944
v 2.00000 1.04889 1.25509
v -1.00000 1.16244 1.95944
v -0.71788 1.16244 1.67732
v -1.00000 1.04889 1.25509
v -0.71788 1.16244 1.67732
v 0.07234 1.16244 1.35000
v -0.04979 1.02246 0.73601
v -1.00000 1.02246 1.12960
v -0.71788 1.16244 1.67732
v -1.00000 1.02246 1.12960
v -1.00000 1.04889 1.25509
v 0.79837 1.26112 2.00000
v 0.92766 1.16244 1.35000
v 0.07234 1.16244 1.35000
v 0.20163 1.26112 2.00000
v 1.50227 1.22022 2.00000
v 1.71788 1.16244 1.67732
v 0.92766 1.16244 1.35000
v 0.79837 1.26112 2.00000
v 2.00000 1.16679 2.00000
v 2.00000 1.16244 1.95944
v 1.71788 1.16244 1.67732
v 1.50227 1.22022 2.00000
v -0.50227 1.22022 2.00000
v -0.71788 1.16244 1.67732
v -1.00000 1.16244 1.95944
v -1.00000 1.16679 2.00000
v 0.20163 1.26112 2.00000
v 0.07234 1.16244 1.35000
v -0.71788 1.16244 1.67732
v -0.50227 1.22022 2.00000
vt 0.00000 0.00000
vt 1.00000 0.00000
vt 1.00000 1.00000
vt 0.00000 1.00000
vt 0.00000 0.00000
vt 0.40791 0.00000
vt 0.40791 1.00000
vt 0.00000 1.00000
vt 0.59209 0.00000
vt 1.00000 0.00000
vt 1.00000 1.00000
vt 0.59209 1.00000
vt 0.00000 0.00000
vt 1.00000 0.00000
vt 1.00000 1.00000
vt 0.00000 1.00000
vt 0.00000 0.00000
vt 0.40791 0.00000
vt 0.40791 1.00000
vt 0.00000 1.00000
vt 0.59209 0.00000
vt 1.00000 0.00000
vt 1.00000 1.00000
vt 0.59209 1.00000
vt 0.00000 0.00000
vt 1.00000 0.00000
vt 1.00000 1.00000
vt 0.00000 1.00000
vt 0.00000 0.00000
vt 0.42255 0.00000
vt 0.40791 1.00000
vt 0.00000 1.00000
vt 0.57745 0.00000
vt 1.00000 0.00000
vt 1.00000 1.00000
vt 0.59209 1.00000
vt 0.00000 0.00000
vt 1.00000 0.00000
vt 1.00000 1.00000
vt 0.00000 1.00000
vt 0.00000 0.00000
vt 0.46882 0.00000
vt 0.42255 1.00000
vt 0.00000 1.00000
vt 0.53118 0.00000
vt 1.00000 0.00000
vt 1.00000 1.00000
vt 0.57745 1.00000
vt 0.00000 0.00000
vt 1.00000 0.00000
vt 1.00000 1.00000
vt 0.00000 1.00000
vt 0.00000 0.00000
vt 0.55474 0.00000
vt 0.46882 1.00000
vt 0.00000 1.00000
vt 0.44526 0.00000
vt 1.00000 0.00000
vt 1.00000 1.00000
vt 0.53118 1.00000
vt 0.00000 0.00000
vt 1.00000 0.00000
vt 1.00000 1.00000
vt 0.00000 1.00000
vt 0.00000 0.00000
vt 0.69778 0.00000
vt 0.55474 1.00000
vt 0.00000 1.00000
vt 0.30222 0.00000
vt 1.00000 0.00000
vt 1.00000 1.00000
vt 0.44526 1.00000
vt 0.00000 0.00000
vt 1.00000 0.00000
vt 1.00000 1.00000
vt 0.00000 1.00000
vt 0.00000 0.00000
vt 0.93535 0.00000
vt 0.69778 1.00000
vt 0.00000 1.00000
vt 0.06465 0.00000
vt 1.00000 0.00000
vt 1.00000 1.00000
vt 0.30222 1.00000
vt 0.00000 0.00000
vt 1.00000 0.00000
vt 1.00000 1.00000
vt 0.00000 1.00000
vt 0.00000 0.00000
vt 1.00000 0.00000
vt 1.00000 0.81117
vt 0.93535 1.00000
vt 0.00000 0.00000
vt 0.93535 1.00000
vt 0.00000 1.00000
vt 0.00000 0.00000
vt 0.46647 0.00000
vt 0.00000 0.81117
vt 0.53353 0.00000
vt 1.00000 0.00000
vt 1.00000 0.81117
vt 0.00000 0.00000
vt 1.00000 0.00000
vt 1.00000 1.00000
vt 0.06465 1.00000
vt 0.00000 0.00000
vt 0.06465 1.00000
vt 0.00000 0.81117
vt 1.00000 0.04315
vt 1.00000 1.00000
vt 0.00000 1.00000
vt 0.00000 0.04315
vt 1.00000 0.43969
vt 1.00000 1.00000
vt 0.00000 1.00000
vt 0.00000 0.04315
vt 0.50667 0.95778
vt 0.46647 1.00000
vt 0.00000 1.00000
vt 0.00000 0.43969
vt 1.00000 0.43969
vt 1.00000 1.00000
vt 0.53353 1.00000
vt 0.49333 0.95778
vt 1.00000 0.04315
vt 1.00000 1.00000
vt 0.00000 1.00000
vt 0.00000 0.43969
vn -0.19509 -0.00000 -0.98079
vn 0.19509 -0.00000 -0.98079
vn 0.18297 -0.34695 -0.91986
vn -0.18297 -0.34695 -0.91986
vn 0.19509 -0.00000 -0.98079
vn 0.34860 0.00000 -0.93727
vn 0.32620 -0.35270 -0.87704
vn 0.18297 -0.34695 -0.91986
vn -0.34860 0.00000 -0.93727
vn -0.19509 -0.00000 -0.98079
vn -0.18297 -0.34695 -0.91986
vn -0.32620 -0.35270 -0.87704
vn -0.19509 0.00000 -0.98079
vn 0.19509 0.00000 -0.98079
vn 0.19509 0.00000 -0.98079
vn -0.19509 0.00000 -0.98079
vn 0.19509 0.00000 -0.98079
vn 0.34860 0.00000 -0.93727
vn 0.34860 0.00000 -0.93727
vn 0.19509 0.00000 -0.98079
vn -0.34860 0.00000 -0.93727
vn -0.19509 0.00000 -0.98079
vn -0.19509 0.00000 -0.98079
vn -0.34860 0.00000 -0.93727
vn -0.17344 0.45783 -0.87196
vn 0.17344 0.45783 -0.87196
vn 0.18841 0.25951 -0.94718
vn -0.18841 0.25951 -0.94718
vn 0.17344 0.45783 -0.87196
vn 0.31350 0.46471 -0.82811
vn 0.33623 0.26408 -0.90400
vn 0.18841 0.25951 -0.94718
vn -0.31350 0.46471 -0.82811
vn -0.17344 0.45783 -0.87196
vn -0.18841 0.25951 -0.94718
vn -0.33623 0.26408 -0.90400
vn -0.13239 0.73450 -0.66556
vn 0.13239 0.73450 -0.66556
vn 0.17344 0.45783 -0.87196
vn -0.17344 0.45783 -0.87196
vn 0.13239 0.73450 -0.66556
vn 0.24926 0.74100 -0.62353
vn 0.31350 0.46471 -0.82811
vn 0.17344 0.45783 -0.87196
vn -0.24926 0.74100 -0.62353
vn -0.13239 0.73450 -0.66556
vn -0.17344 0.45783 -0.87196
vn -0.31350 0.46471 -0.82811
vn -0.09734 0.86663 -0.48936
vn 0.09734 0.86663 -0.48936
vn 0.13239 0.73450 -0.66556
vn -0.13239 0.73450 -0.66556
vn 0.09734 0.86663 -0.48936
vn 0.19804 0.87072 -0.45014
vn 0.24926 0.74100 -0.62353
vn 0.13239 0.73450 -0.66556
vn -0.19804 0.87072 -0.45014
vn -0.09734 0.86663 -0.48936
vn -0.13239 0.73450 -0.66556
vn -0.24926 0.74100 -0.62353
vn -0.07146 0.93051 -0.35923
vn 0.07146 0.93051 -0.35923
vn 0.09734 0.86663 -0.48936
vn -0.09734 0.86663 -0.48936
vn 0.07146 0.93051 -0.35923
vn 0.16394 0.93252 -0.32177
vn 0.19804 0.87072 -0.45014
vn 0.09734 0.86663 -0.48936
vn -0.16394 0.93252 -0.32177
vn -0.07146 0.93051 -0.35923
vn -0.09734 0.86663 -0.48936
vn -0.19804 0.87072 -0.45014
vn -0.05193 0.96392 -0.26109
vn 0.05193 0.96392 -0.26109
vn 0.07146 0.93051 -0.35923
vn -0.07146 0.93051 -0.35923
vn 0.05193 0.96392 -0.26109
vn 0.14174 0.96423 -0.22398
vn 0.16394 0.93252 -0.32177
vn 0.07146 0.93051 -0.35923
vn -0.14174 0.96423 -0.22398
vn -0.05193 0.96392 -0.26109
vn -0.07146 0.93051 -0.35923
vn -0.16394 0.93252 -0.32177
vn -0.03635 0.98249 -0.18273
vn 0.03635 0.98249 -0.18273
vn 0.05193 0.96392 -0.26109
vn -0.05193 0.96392 -0.26109
vn 0.03635 0.98249 -0.18273
vn 0.10351 0.98249 -0.15491
vn 0.13958 0.96792 -0.20890
vn 0.14174 0.96423 -0.22398
vn 0.03635 0.98249 -0.18273
vn 0.14174 0.96423 -0.22398
vn 0.05193 0.96392 -0.26109
vn 0.10351 0.98249 -0.15491
vn 0.12757 0.98314 -0.13102
vn 0.13958 0.96792 -0.20890
vn -0.12757 0.98314 -0.13102
vn -0.10351 0.98249 -0.15491
vn -0.13958 0.96792 -0.20890
vn -0.10351 0.98249 -0.15491
vn -0.03635 0.98249 -0.18273
vn -0.05193 0.96392 -0.26109
vn -0.14174 0.96423 -0.22398
vn -0.10351 0.98249 -0.15491
vn -0.14174 0.96423 -0.22398
vn -0.13958 0.96792 -0.20890
vn 0.02370 0.99259 -0.11917
vn 0.03635 0.98249 -0.18273
vn -0.03635 0.98249 -0.18273
vn -0.02370 0.99259 -0.11917
vn 0.08247 0.98892 -0.12342
vn 0.10351 0.98249 -0.15491
vn 0.03635 0.98249 -0.18273
vn 0.02370 0.99259 -0.11917
vn 0.12727 0.98366 -0.12737
vn 0.12757 0.98314 -0.13102
vn 0.10351 0.98249 -0.15491
vn 0.08247 0.98892 -0.12342
vn -0.08247 0.98892 -0.12342
vn -0.10351 0.98249 -0.15491
vn -0.12757 0.98314 -0.13102
vn -0.12727 0.98366 -0.12737
vn -0.02370 0.99259 -0.11917
vn -0.03635 0.98249 -0.18273
vn -0.10351 0.98249 -0.15491
vn -0.08247 0.98892 -0.12342
usemtl paint
f 1/1/1 2/2/2 3/3/3 4/4/4
f 5/5/5 6/6/6 7/7/7 8/8/8
f 9/9/9 10/10/10 11/11/11 12/12/12
f 13/13/13 14/14/14 15/15/15 16/16/16
f 17/17/17 18/18/18 19/19/19 20/20/20
f 21/21/21 22/22/22 23/23/23 24/24/24
f 25/25/25 26/26/26 27/27/27 28/28/28
f 29/29/29 30/30/30 31/31/31 32/32/32
f 33/33/33 34/34/34 35/35/35 36/36/36
f 37/37/37 38/38/38 39/39/39 40/40/40
f 41/41/41 42/42/42 43/43/43 44/44/44
f 45/45/45 46/46/46 47/47/47 48/48/48
f 49/49/49 50/50/50 51/51/51 52/52/52
f 53/53/53 54/54/54 55/55/55 56/56/56
f 57/57/57 58/58/58 59/59/59 60/60/60
f 61/61/61 62/62/62 63/63/63 64/64/64
f 65/65/65 66/66/66 67/67/67 68/68/68
f 69/69/69 70/70/70 71/71/71 72/72/72
f 73/73/73 74/74/74 75/75/75 76/76/76
f 77/77/77 78/78/78 79/79/79 80/80/80
f 81/81/81 82/82/82 83/83/83 84/84/84
f 85/85/85 86/86/86 87/87/87 88/88/88
f 89/89/89 90/90/90 91/91/91 92/92/92
f 93/93/93 94/94/94 95/95/95
f 96/96/96 97/97/97 98/98/98
f 99/99/99 100/100/100 101/101/101
f 102/102/102 103/103/103 104/104/104 105/105/105
f 106/106/106 107/107/107 108/108/108
f 109/109/109 110/110/110 111/111/111 112/112/112
f 113/113/113 114/114/114 115/115/115 116/116/116
f 117/117/117 118/118/118 119/119/119 120/120/120
f 121/121/121 122/122/122 123/123/123 124/124/124
f 125/125/125 126/126/126 127/127/127 128/128/128
