# Generated by dev-env-utils/scripts/gen_utilities_water.py -- do not edit
mtllib water_tower.mtl
o spheroid_medium_band_1_2
v -1.00000 1.45000 -0.78014
v -0.95206 1.45000 -0.80000
v -0.95206 0.40000 -0.80000
v -1.00000 0.40000 -0.78014
v -0.95206 1.45000 -0.80000
v 1.95206 1.45000 -0.80000
v 1.95206 0.40000 -0.80000
v -0.95206 0.40000 -0.80000
v 1.95206 1.45000 -0.80000
v 2.00000 1.45000 -0.78014
v 2.00000 0.40000 -0.78014
v 1.95206 0.40000 -0.80000
vt 0.67262 0.25469
vt 0.66667 0.25469
vt 0.66667 0.37031
vt 0.67262 0.37031
vt 0.66667 0.25469
vt 0.33333 0.25469
vt 0.33333 0.37031
vt 0.66667 0.37031
vt 0.33333 0.25469
vt 0.32738 0.25469
vt 0.32738 0.37031
vt 0.33333 0.37031
vn -0.38268 0.00000 -0.92388
vn -0.38268 0.00000 -0.92388
vn -0.38268 0.00000 -0.92388
vn -0.38268 0.00000 -0.92388
vn 0.00000 0.00000 -1.00000
vn 0.00000 0.00000 -1.00000
vn 0.00000 0.00000 -1.00000
vn 0.00000 0.00000 -1.00000
vn 0.38268 0.00000 -0.92388
vn 0.38268 0.00000 -0.92388
vn 0.38268 0.00000 -0.92388
vn 0.38268 0.00000 -0.92388
usemtl band
f 1/1/1 2/2/2 3/3/3 4/4/4
f 5/5/5 6/6/6 7/7/7 8/8/8
f 9/9/9 10/10/10 11/11/11 12/12/12
