# Generated by dev-env-utils/scripts/gen_utilities_water.py -- do not edit
mtllib water_tower.mtl
o spheroid_small_0_1_0
v 0.08228 -0.25000 1.40000
v 0.91772 -0.25000 1.40000
v 0.79837 -0.94231 2.00000
v 0.20163 -0.94231 2.00000
v 0.91772 -0.25000 1.40000
v 1.68955 -0.25000 1.71971
v 1.50227 -0.63150 2.00000
v 0.79837 -0.94231 2.00000
v 1.68955 -0.25000 1.71971
v 1.96985 -0.25000 2.00000
v 1.50227 -0.63150 2.00000
v -0.96985 -0.25000 2.00000
v -0.68955 -0.25000 1.71971
v -0.50227 -0.63150 2.00000
v -0.68955 -0.25000 1.71971
v 0.08228 -0.25000 1.40000
v 0.20163 -0.94231 2.00000
v -0.50227 -0.63150 2.00000
v -0.06690 0.50000 0.65000
v 1.06690 0.50000 0.65000
v 0.91772 -0.25000 1.40000
v 0.08228 -0.25000 1.40000
v 1.06690 0.50000 0.65000
v 2.00000 0.50000 1.03650
v 2.00000 0.29805 1.25509
v 1.68955 -0.25000 1.71971
v 1.06690 0.50000 0.65000
v 1.68955 -0.25000 1.71971
v 0.91772 -0.25000 1.40000
v 1.96985 -0.25000 2.00000
v 1.68955 -0.25000 1.71971
v 2.00000 0.29805 1.25509
v 2.00000 -0.22868 2.00000
v -1.00000 0.29805 1.25509
v -0.68955 -0.25000 1.71971
v -0.96985 -0.25000 2.00000
v -1.00000 -0.22868 2.00000
v -1.00000 0.50000 1.03650
v -0.06690 0.50000 0.65000
v 0.08228 -0.25000 1.40000
v -0.68955 -0.25000 1.71971
v -1.00000 0.50000 1.03650
v -0.68955 -0.25000 1.71971
v -1.00000 0.29805 1.25509
v -0.20614 1.20000 -0.05000
v 1.20614 1.20000 -0.05000
v 1.06690 0.50000 0.65000
v -0.06690 0.50000 0.65000
v 1.20614 1.20000 -0.05000
v 2.00000 1.20000 0.27883
v 2.00000 0.50000 1.03650
v 1.06690 0.50000 0.65000
v -1.00000 1.20000 0.27883
v -0.20614 1.20000 -0.05000
v -0.06690 0.50000 0.65000
v -1.00000 0.50000 1.03650
v -0.29565 1.65000 -0.50000
v 1.29565 1.65000 -0.50000
v 1.20614 1.20000 -0.05000
v -0.20614 1.20000 -0.05000
v 1.29565 1.65000 -0.50000
v 2.00000 1.65000 -0.20825
v 2.00000 1.20000 0.27883
v 1.20614 1.20000 -0.05000
v -1.00000 1.65000 -0.20825
v -0.29565 1.65000 -0.50000
v -0.20614 1.20000 -0.05000
v -1.00000 1.20000 0.27883
v -0.35532 2.00000 -0.80000
v 1.35532 2.00000 -0.80000
v 1.29565 1.65000 -0.50000
v -0.29565 1.65000 -0.50000
v 1.35532 2.00000 -0.80000
v 2.00000 2.00000 -0.53297
v 2.00000 1.65000 -0.20825
v 1.29565 1.65000 -0.50000
v -1.00000 2.00000 -0.53297
v -0.35532 2.00000 -0.80000
v -0.29565 1.65000 -0.50000
v -1.00000 1.65000 -0.20825
vt 0.00000 0.00000
vt 1.00000 0.00000
vt 1.00000 0.92308
vt 0.00000 0.92308
vt 0.00000 0.00000
vt 1.00000 0.00000
vt 1.00000 0.50866
vt 0.00000 0.92308
vt 0.00000 0.00000
vt 0.47448 0.00000
vt 0.00000 0.50866
vt 0.52552 0.00000
vt 1.00000 0.00000
vt 1.00000 0.50866
vt 0.00000 0.00000
vt 1.00000 0.00000
vt 1.00000 0.92308
vt 0.00000 0.50866
vt 0.00000 0.00000
vt 1.00000 0.00000
vt 1.00000 1.00000
vt 0.00000 1.00000
vt 0.00000 0.00000
vt 0.89079 0.00000
vt 1.00000 0.26927
vt 1.00000 1.00000
vt 0.00000 0.00000
vt 1.00000 1.00000
vt 0.00000 1.00000
vt 0.47448 1.00000
vt 0.00000 1.00000
vt 0.00000 0.26927
vt 0.50508 0.97157
vt 1.00000 0.26927
vt 1.00000 1.00000
vt 0.52552 1.00000
vt 0.49492 0.97157
vt 0.10921 0.00000
vt 1.00000 0.00000
vt 1.00000 1.00000
vt 0.00000 1.00000
vt 0.10921 0.00000
vt 0.00000 1.00000
vt 0.00000 0.26927
vt 0.00000 0.00000
vt 1.00000 0.00000
vt 1.00000 1.00000
vt 0.00000 1.00000
vt 0.00000 0.00000
vt 0.60843 0.00000
vt 0.89079 1.00000
vt 0.00000 1.00000
vt 0.39157 0.00000
vt 1.00000 0.00000
vt 1.00000 1.00000
vt 0.10921 1.00000
vt 0.00000 0.00000
vt 1.00000 0.00000
vt 1.00000 1.00000
vt 0.00000 1.00000
vt 0.00000 0.00000
vt 0.47910 0.00000
vt 0.60843 1.00000
vt 0.00000 1.00000
vt 0.52090 0.00000
vt 1.00000 0.00000
vt 1.00000 1.00000
vt 0.39157 1.00000
vt 0.00000 0.00000
vt 1.00000 0.00000
vt 1.00000 1.00000
vt 0.00000 1.00000
vt 0.00000 0.00000
vt 0.40791 0.00000
vt 0.47910 1.00000
vt 0.00000 1.00000
vt 0.59209 0.00000
vt 1.00000 0.00000
vt 1.00000 1.00000
vt 0.52090 1.00000
vn -0.14278 -0.68145 -0.71780
vn 0.14278 -0.68145 -0.71780
vn 0.14708 -0.65700 -0.73940
vn -0.14708 -0.65700 -0.73940
vn 0.14278 -0.68145 -0.71780
vn 0.40660 -0.68145 -0.60852
vn 0.41340 -0.66807 -0.61870
vn 0.14708 -0.65700 -0.73940
vn 0.40660 -0.68145 -0.60852
vn 0.50769 -0.68849 -0.51791
vn 0.41340 -0.66807 -0.61870
vn -0.50769 -0.68849 -0.51791
vn -0.40660 -0.68145 -0.60852
vn -0.41340 -0.66807 -0.61870
vn -0.40660 -0.68145 -0.60852
vn -0.14278 -0.68145 -0.71780
vn -0.14708 -0.65700 -0.73940
vn -0.41340 -0.66807 -0.61870
vn -0.13795 -0.70711 -0.69352
vn 0.13795 -0.70711 -0.69352
vn 0.14278 -0.68145 -0.71780
vn -0.14278 -0.68145 -0.71780
vn 0.13795 -0.70711 -0.69352
vn 0.36637 -0.70974 -0.60170
vn 0.39660 -0.70029 -0.59355
vn 0.40660 -0.68145 -0.60852
vn 0.13795 -0.70711 -0.69352
vn 0.40660 -0.68145 -0.60852
vn 0.14278 -0.68145 -0.71780
vn 0.50769 -0.68849 -0.51791
vn 0.40660 -0.68145 -0.60852
vn 0.39660 -0.70029 -0.59355
vn 0.51350 -0.68923 -0.51115
vn -0.39660 -0.70029 -0.59355
vn -0.40660 -0.68145 -0.60852
vn -0.50769 -0.68849 -0.51791
vn -0.51350 -0.68923 -0.51115
vn -0.36637 -0.70974 -0.60170
vn -0.13795 -0.70711 -0.69352
vn -0.14278 -0.68145 -0.71780
vn -0.40660 -0.68145 -0.60852
vn -0.36637 -0.70974 -0.60170
vn -0.40660 -0.68145 -0.60852
vn -0.39660 -0.70029 -0.59355
vn -0.13795 -0.70711 -0.69352
vn 0.13795 -0.70711 -0.69352
vn 0.13795 -0.70711 -0.69352
vn -0.13795 -0.70711 -0.69352
vn 0.13795 -0.70711 -0.69352
vn 0.29573 -0.71361 -0.63507
vn 0.36637 -0.70974 -0.60170
vn 0.13795 -0.70711 -0.69352
vn -0.29573 -0.71361 -0.63507
vn -0.13795 -0.70711 -0.69352
vn -0.13795 -0.70711 -0.69352
vn -0.36637 -0.70974 -0.60170
vn -0.14314 -0.67945 -0.71962
vn 0.14314 -0.67945 -0.71962
vn 0.13795 -0.70711 -0.69352
vn -0.13795 -0.70711 -0.69352
vn 0.14314 -0.67945 -0.71962
vn 0.27266 -0.68651 -0.67407
vn 0.29573 -0.71361 -0.63507
vn 0.13795 -0.70711 -0.69352
vn -0.27266 -0.68651 -0.67407
vn -0.14314 -0.67945 -0.71962
vn -0.13795 -0.70711 -0.69352
vn -0.29573 -0.71361 -0.63507
vn -0.18297 -0.34695 -0.91986
vn 0.18297 -0.34695 -0.91986
vn 0.14314 -0.67945 -0.71962
vn -0.14314 -0.67945 -0.71962
vn 0.18297 -0.34695 -0.91986
vn 0.32620 -0.35270 -0.87704
vn 0.27266 -0.68651 -0.67407
vn 0.14314 -0.67945 -0.71962
vn -0.32620 -0.35270 -0.87704
vn -0.18297 -0.34695 -0.91986
vn -0.14314 -0.67945 -0.71962
vn -0.27266 -0.68651 -0.67407
usemtl paint
f 1/1/1 2/2/2 3/3/3 4/4/4
f 5/5/5 6/6/6 7/7/7 8/8/8
f 9/9/9 10/10/10 11/11/11
f 12/12/12 13/13/13 14/14/14
f 15/15/15 16/16/16 17/17/17 18/18/18
f 19/19/19 20/20/20 21/21/21 22/22/22
f 23/23/23 24/24/24 25/25/25 26/26/26
f 27/27/27 28/28/28 29/29/29
f 30/30/30 31/31/31 32/32/32 33/33/33
f 34/34/34 35/35/35 36/36/36 37/37/37
f 38/38/38 39/39/39 40/40/40 41/41/41
f 42/42/42 43/43/43 44/44/44
f 45/45/45 46/46/46 47/47/47 48/48/48
f 49/49/49 50/50/50 51/51/51 52/52/52
f 53/53/53 54/54/54 55/55/55 56/56/56
f 57/57/57 58/58/58 59/59/59 60/60/60
f 61/61/61 62/62/62 63/63/63 64/64/64
f 65/65/65 66/66/66 67/67/67 68/68/68
f 69/69/69 70/70/70 71/71/71 72/72/72
f 73/73/73 74/74/74 75/75/75 76/76/76
f 77/77/77 78/78/78 79/79/79 80/80/80
