# Generated by dev-env-utils/scripts/gen_utilities_water.py -- do not edit
mtllib water_tower.mtl
o spheroid_medium_2_2_1
v 1.89774 0.60662 -1.00000
v 2.00000 0.60662 -0.95764
v 2.00000 0.59188 -1.00000
v -1.00000 0.60662 -0.95764
v -0.89774 0.60662 -1.00000
v -1.00000 0.59188 -1.00000
v -0.22603 0.88157 -0.15000
v 1.22603 0.88157 -0.15000
v 1.39511 0.65736 -1.00000
v -0.39511 0.65736 -1.00000
v 1.22603 0.88157 -0.15000
v 2.00000 0.88157 0.17059
v 2.00000 0.60662 -0.95764
v 1.89774 0.60662 -1.00000
v 1.22603 0.88157 -0.15000
v 1.89774 0.60662 -1.00000
v 1.39511 0.65736 -1.00000
v -1.00000 0.88157 0.17059
v -0.22603 0.88157 -0.15000
v -0.39511 0.65736 -1.00000
v -0.89774 0.60662 -1.00000
v -1.00000 0.88157 0.17059
v -0.89774 0.60662 -1.00000
v -1.00000 0.60662 -0.95764
v 0.00337 1.08415 1.00325
v 0.99663 1.08415 1.00325
v 1.22603 0.88157 -0.15000
v -0.22603 0.88157 -0.15000
v 0.99663 1.08415 1.00325
v 1.91429 1.08415 1.38336
v 2.00000 1.05758 1.25509
v 2.00000 0.88157 0.17059
v 0.99663 1.08415 1.00325
v 2.00000 0.88157 0.17059
v 1.22603 0.88157 -0.15000
v 1.91429 1.08415 1.38336
v 2.00000 1.08415 1.46907
v 2.00000 1.05758 1.25509
v -1.00000 1.08415 1.46907
v -0.91429 1.08415 1.38336
v -1.00000 1.05758 1.25509
v -0.91429 1.08415 1.38336
v 0.00337 1.08415 1.00325
v -0.22603 0.88157 -0.15000
v -1.00000 0.88157 0.17059
v -0.91429 1.08415 1.38336
v -1.00000 0.88157 0.17059
v -1.00000 1.05758 1.25509
v 0.79837 1.18477 2.00000
v 0.99663 1.08415 1.00325
v 0.00337 1.08415 1.00325
v 0.20163 1.18477 2.00000
v 1.50227 1.15758 2.00000
v 1.91429 1.08415 1.38336
v 0.99663 1.08415 1.00325
v 0.79837 1.18477 2.00000
v 2.00000 1.12205 2.00000
v 2.00000 1.08415 1.46907
v 1.91429 1.08415 1.38336
v 1.50227 1.15758 2.00000
v -0.50227 1.15758 2.00000
v -0.91429 1.08415 1.38336
v -1.00000 1.08415 1.46907
v -1.00000 1.12205 2.00000
v 0.20163 1.18477 2.00000
v 0.00337 1.08415 1.00325
v -0.91429 1.08415 1.38336
v -0.50227 1.15758 2.00000
vt 0.26926 0.00000
vt 0.32855 0.00000
vt 0.32247 0.04349
vt 0.67145 0.00000
vt 0.73074 0.00000
vt 0.67753 0.04349
vt 0.00000 0.00000
vt 1.00000 0.00000
vt 1.00000 0.81547
vt 0.00000 0.81547
vt 0.00000 0.00000
vt 0.57693 0.00000
vt 0.32855 1.00000
vt 0.26926 1.00000
vt 0.00000 0.00000
vt 0.26926 1.00000
vt 0.00000 0.81547
vt 0.42307 0.00000
vt 1.00000 0.00000
vt 1.00000 0.81547
vt 0.73074 1.00000
vt 0.42307 0.00000
vt 0.73074 1.00000
vt 0.67145 1.00000
vt 0.00000 0.00000
vt 1.00000 0.00000
vt 1.00000 1.00000
vt 0.00000 1.00000
vt 0.00000 0.00000
vt 1.00000 0.00000
vt 1.00000 0.13120
vt 0.57693 1.00000
vt 0.00000 0.00000
vt 0.57693 1.00000
vt 0.00000 1.00000
vt 0.00000 0.00000
vt 0.12203 0.00000
vt 0.00000 0.13120
vt 0.87797 0.00000
vt 1.00000 0.00000
vt 1.00000 0.13120
vt 0.00000 0.00000
vt 1.00000 0.00000
vt 1.00000 1.00000
vt 0.42307 1.00000
vt 0.00000 0.00000
vt 0.42307 1.00000
vt 0.00000 0.13120
vt 1.00000 0.18905
vt 1.00000 1.00000
vt 0.00000 1.00000
vt 0.00000 0.18905
vt 1.00000 0.40821
vt 1.00000 1.00000
vt 0.00000 1.00000
vt 0.00000 0.18905
vt 0.57518 0.69456
vt 0.12203 1.00000
vt 0.00000 1.00000
vt 0.00000 0.40821
vt 1.00000 0.40821
vt 1.00000 1.00000
vt 0.87797 1.00000
vt 0.42482 0.69456
vt 1.00000 0.18905
vt 1.00000 1.00000
vt 0.00000 1.00000
vt 0.00000 0.40821
vn 0.08900 0.95393 -0.28651
vn 0.09552 0.95410 -0.28386
vn 0.09614 0.95255 -0.28879
vn -0.09552 0.95410 -0.28386
vn -0.08900 0.95393 -0.28651
vn -0.09614 0.95255 -0.28879
vn -0.04179 0.97678 -0.21011
vn 0.04179 0.97678 -0.21011
vn 0.05614 0.95770 -0.28225
vn -0.05614 0.95770 -0.28225
vn 0.04179 0.97678 -0.21011
vn 0.08642 0.97762 -0.19182
vn 0.09552 0.95410 -0.28386
vn 0.08900 0.95393 -0.28651
vn 0.04179 0.97678 -0.21011
vn 0.08900 0.95393 -0.28651
vn 0.05614 0.95770 -0.28225
vn -0.08642 0.97762 -0.19182
vn -0.04179 0.97678 -0.21011
vn -0.05614 0.95770 -0.28225
vn -0.08900 0.95393 -0.28651
vn -0.08642 0.97762 -0.19182
vn -0.08900 0.95393 -0.28651
vn -0.09552 0.95410 -0.28386
vn -0.02669 0.99060 -0.13419
vn 0.02669 0.99060 -0.13419
vn 0.04179 0.97678 -0.21011
vn -0.04179 0.97678 -0.21011
vn 0.02669 0.99060 -0.13419
vn 0.07601 0.99060 -0.11376
vn 0.08168 0.98913 -0.12224
vn 0.08642 0.97762 -0.19182
vn 0.02669 0.99060 -0.13419
vn 0.08642 0.97762 -0.19182
vn 0.04179 0.97678 -0.21011
vn 0.07601 0.99060 -0.11376
vn 0.08063 0.99075 -0.10917
vn 0.08168 0.98913 -0.12224
vn -0.08063 0.99075 -0.10917
vn -0.07601 0.99060 -0.11376
vn -0.08168 0.98913 -0.12224
vn -0.07601 0.99060 -0.11376
vn -0.02669 0.99060 -0.13419
vn -0.04179 0.97678 -0.21011
vn -0.08642 0.97762 -0.19182
vn -0.07601 0.99060 -0.11376
vn -0.08642 0.97762 -0.19182
vn -0.08168 0.98913 -0.12224
vn 0.01653 0.99640 -0.08312
vn 0.02669 0.99060 -0.13419
vn -0.02669 0.99060 -0.13419
vn -0.01653 0.99640 -0.08312
vn 0.05492 0.99510 -0.08219
vn 0.07601 0.99060 -0.11376
vn 0.02669 0.99060 -0.13419
vn 0.01653 0.99640 -0.08312
vn 0.08146 0.99336 -0.08120
vn 0.08063 0.99075 -0.10917
vn 0.07601 0.99060 -0.11376
vn 0.05492 0.99510 -0.08219
vn -0.05492 0.99510 -0.08219
vn -0.07601 0.99060 -0.11376
vn -0.08063 0.99075 -0.10917
vn -0.08146 0.99336 -0.08120
vn -0.01653 0.99640 -0.08312
vn -0.02669 0.99060 -0.13419
vn -0.07601 0.99060 -0.11376
vn -0.05492 0.99510 -0.08219
usemtl paint
f 1/1/1 2/2/2 3/3/3
f 4/4/4 5/5/5 6/6/6
f 7/7/7 8/8/8 9/9/9 10/10/10
f 11/11/11 12/12/12 13/13/13 14/14/14
f 15/15/15 16/16/16 17/17/17
f 18/18/18 19/19/19 20/20/20 21/21/21
f 22/22/22 23/23/23 24/24/24
f 25/25/25 26/26/26 27/27/27 28/28/28
f 29/29/29 30/30/30 31/31/31 32/32/32
f 33/33/33 34/34/34 35/35/35
f 36/36/36 37/37/37 38/38/38
f 39/39/39 40/40/40 41/41/41
f 42/42/42 43/43/43 44/44/44 45/45/45
f 46/46/46 47/47/47 48/48/48
f 49/49/49 50/50/50 51/51/51 52/52/52
f 53/53/53 54/54/54 55/55/55 56/56/56
f 57/57/57 58/58/58 59/59/59 60/60/60
f 61/61/61 62/62/62 63/63/63 64/64/64
f 65/65/65 66/66/66 67/67/67 68/68/68
