# Generated by dev-env-utils/scripts/gen_utilities_water.py -- do not edit
mtllib water_tower.mtl
o spheroid_small_1_0_0
v -0.53297 -0.95000 2.00000
v -0.14536 -0.95000 1.06425
v -0.14536 -1.00000 1.06425
v -0.53297 -1.00000 2.00000
v -0.14536 -0.95000 1.06425
v 1.06425 -0.95000 -0.14536
v 1.06425 -1.00000 -0.14536
v -0.14536 -1.00000 1.06425
v 1.06425 -0.95000 -0.14536
v 2.00000 -0.95000 -0.53297
v 2.00000 -1.00000 -0.53297
v 1.06425 -1.00000 -0.14536
v -0.53297 -0.10000 2.00000
v -0.14536 -0.10000 1.06425
v -0.14536 -0.95000 1.06425
v -0.53297 -0.95000 2.00000
v -0.14536 -0.10000 1.06425
v 1.06425 -0.10000 -0.14536
v 1.06425 -0.95000 -0.14536
v -0.14536 -0.95000 1.06425
v 1.06425 -0.10000 -0.14536
v 2.00000 -0.10000 -0.53297
v 2.00000 -0.95000 -0.53297
v 1.06425 -0.95000 -0.14536
v -0.53297 -0.05000 2.00000
v -0.14536 -0.05000 1.06425
v -0.14536 -0.10000 1.06425
v -0.53297 -0.10000 2.00000
v -0.14536 -0.05000 1.06425
v 1.06425 -0.05000 -0.14536
v 1.06425 -0.10000 -0.14536
v -0.14536 -0.10000 1.06425
v 1.06425 -0.05000 -0.14536
v 2.00000 -0.05000 -0.53297
v 2.00000 -0.10000 -0.53297
v 1.06425 -0.10000 -0.14536
v -0.46226 0.19311 2.00000
v -0.08998 0.19311 1.10125
v -0.14536 -0.05000 1.06425
v -0.53297 -0.05000 2.00000
v -0.08998 0.19311 1.10125
v 1.10125 0.19311 -0.08998
v 1.06425 -0.05000 -0.14536
v -0.14536 -0.05000 1.06425
v 1.10125 0.19311 -0.08998
v 2.00000 0.19311 -0.46226
v 2.00000 -0.05000 -0.53297
v 1.06425 -0.05000 -0.14536
v -0.25228 0.42883 2.00000
v 0.07448 0.42883 1.21114
v -0.08998 0.19311 1.10125
v -0.46226 0.19311 2.00000
v 0.07448 0.42883 1.21114
v 1.21114 0.42883 0.07448
v 1.10125 0.19311 -0.08998
v -0.08998 0.19311 1.10125
v 1.21114 0.42883 0.07448
v 2.00000 0.42883 -0.25228
v 2.00000 0.19311 -0.46226
v 1.10125 0.19311 -0.08998
v 0.09059 0.65000 2.00000
v 0.34302 0.65000 1.39057
v 0.07448 0.42883 1.21114
v -0.25228 0.42883 2.00000
v 0.34302 0.65000 1.39057
v 1.39057 0.65000 0.34302
v 1.21114 0.42883 0.07448
v 0.07448 0.42883 1.21114
v 1.39057 0.65000 0.34302
v 2.00000 0.65000 0.09059
v 2.00000 0.42883 -0.25228
v 1.21114 0.42883 0.07448
v 0.55593 0.84990 2.00000
v 0.70749 0.84990 1.63410
v 0.34302 0.65000 1.39057
v 0.09059 0.65000 2.00000
v 0.70749 0.84990 1.63410
v 1.63410 0.84990 0.70749
v 1.39057 0.65000 0.34302
v 0.34302 0.65000 1.39057
v 1.63410 0.84990 0.70749
v 2.00000 0.84990 0.55593
v 2.00000 0.65000 0.09059
v 1.39057 0.65000 0.34302
v 1.12960 1.02246 2.00000
v 1.15681 1.02246 1.93433
v 0.70749 0.84990 1.63410
v 0.55593 0.84990 2.00000
v 1.15681 1.02246 1.93433
v 1.93433 1.02246 1.15681
v 1.63410 0.84990 0.70749
v 0.70749 0.84990 1.63410
v 1.93433 1.02246 1.15681
v 2.00000 1.02246 1.12960
v 2.00000 0.84990 0.55593
v 1.63410 0.84990 0.70749
v 1.25509 1.04889 2.00000
v 1.15681 1.02246 1.93433
v 1.12960 1.02246 2.00000
v 1.95944 1.16244 2.00000
v 2.00000 1.16244 1.95944
v 2.00000 1.04889 1.25509
v 1.93433 1.02246 1.15681
v 1.95944 1.16244 2.00000
v 1.93433 1.02246 1.15681
v 1.15681 1.02246 1.93433
v 1.25509 1.04889 2.00000
v 2.00000 1.02246 1.12960
v 1.93433 1.02246 1.15681
v 2.00000 1.04889 1.25509
v 2.00000 1.16244 1.95944
v 1.95944 1.16244 2.00000
v 2.00000 1.16679 2.00000
vt 0.40791 0.00000
vt 1.00000 0.00000
vt 1.00000 1.00000
vt 0.40791 1.00000
vt 0.00000 0.00000
vt 1.00000 0.00000
vt 1.00000 1.00000
vt 0.00000 1.00000
vt 0.00000 0.00000
vt 0.59209 0.00000
vt 0.59209 1.00000
vt 0.00000 1.00000
vt 0.40791 0.00000
vt 1.00000 0.00000
vt 1.00000 1.00000
vt 0.40791 1.00000
vt 0.00000 0.00000
vt 1.00000 0.00000
vt 1.00000 1.00000
vt 0.00000 1.00000
vt 0.00000 0.00000
vt 0.59209 0.00000
vt 0.59209 1.00000
vt 0.00000 1.00000
vt 0.40791 0.00000
vt 1.00000 0.00000
vt 1.00000 1.00000
vt 0.40791 1.00000
vt 0.00000 0.00000
vt 1.00000 0.00000
vt 1.00000 1.00000
vt 0.00000 1.00000
vt 0.00000 0.00000
vt 0.59209 0.00000
vt 0.59209 1.00000
vt 0.00000 1.00000
vt 0.42255 0.00000
vt 1.00000 0.00000
vt 1.00000 1.00000
vt 0.40791 1.00000
vt 0.00000 0.00000
vt 1.00000 0.00000
vt 1.00000 1.00000
vt 0.00000 1.00000
vt 0.00000 0.00000
vt 0.57745 0.00000
vt 0.59209 1.00000
vt 0.00000 1.00000
vt 0.46882 0.00000
vt 1.00000 0.00000
vt 1.00000 1.00000
vt 0.42255 1.00000
vt 0.00000 0.00000
vt 1.00000 0.00000
vt 1.00000 1.00000
vt 0.00000 1.00000
vt 0.00000 0.00000
vt 0.53118 0.00000
vt 0.57745 1.00000
vt 0.00000 1.00000
vt 0.55474 0.00000
vt 1.00000 0.00000
vt 1.00000 1.00000
vt 0.46882 1.00000
vt 0.00000 0.00000
vt 1.00000 0.00000
vt 1.00000 1.00000
vt 0.00000 1.00000
vt 0.00000 0.00000
vt 0.44526 0.00000
vt 0.53118 1.00000
vt 0.00000 1.00000
vt 0.69778 0.00000
vt 1.00000 0.00000
vt 1.00000 1.00000
vt 0.55474 1.00000
vt 0.00000 0.00000
vt 1.00000 0.00000
vt 1.00000 1.00000
vt 0.00000 1.00000
vt 0.00000 0.00000
vt 0.30222 0.00000
vt 0.44526 1.00000
vt 0.00000 1.00000
vt 0.93535 0.00000
vt 1.00000 0.00000
vt 1.00000 1.00000
vt 0.69778 1.00000
vt 0.00000 0.00000
vt 1.00000 0.00000
vt 1.00000 1.00000
vt 0.00000 1.00000
vt 0.00000 0.00000
vt 0.06465 0.00000
vt 0.30222 1.00000
vt 0.00000 1.00000
vt 1.00000 0.81117
vt 1.00000 1.00000
vt 0.93535 1.00000
vt 0.46647 0.00000
vt 0.53353 0.00000
vt 1.00000 0.81117
vt 1.00000 1.00000
vt 0.46647 0.00000
vt 1.00000 1.00000
vt 0.00000 1.00000
vt 0.00000 0.81117
vt 0.06465 1.00000
vt 0.00000 1.00000
vt 0.00000 0.81117
vt 0.53353 1.00000
vt 0.46647 1.00000
vt 0.49333 0.95778
vn -0.93727 0.00000 -0.34860
vn -0.83147 -0.00000 -0.55557
vn -0.77982 -0.34695 -0.52106
vn -0.87704 -0.35270 -0.32620
vn -0.83147 -0.00000 -0.55557
vn -0.55557 -0.00000 -0.83147
vn -0.52106 -0.34695 -0.77982
vn -0.77982 -0.34695 -0.52106
vn -0.55557 -0.00000 -0.83147
vn -0.34860 0.00000 -0.93727
vn -0.32620 -0.35270 -0.87704
vn -0.52106 -0.34695 -0.77982
vn -0.93727 0.00000 -0.34860
vn -0.83147 0.00000 -0.55557
vn -0.83147 0.00000 -0.55557
vn -0.93727 0.00000 -0.34860
vn -0.83147 0.00000 -0.55557
vn -0.55557 0.00000 -0.83147
vn -0.55557 0.00000 -0.83147
vn -0.83147 0.00000 -0.55557
vn -0.55557 0.00000 -0.83147
vn -0.34860 0.00000 -0.93727
vn -0.34860 0.00000 -0.93727
vn -0.55557 0.00000 -0.83147
vn -0.93727 0.00000 -0.34860
vn -0.83147 0.00000 -0.55557
vn -0.83147 0.00000 -0.55557
vn -0.93727 0.00000 -0.34860
vn -0.83147 0.00000 -0.55557
vn -0.55557 0.00000 -0.83147
vn -0.55557 0.00000 -0.83147
vn -0.83147 0.00000 -0.55557
vn -0.55557 0.00000 -0.83147
vn -0.34860 0.00000 -0.93727
vn -0.34860 0.00000 -0.93727
vn -0.55557 0.00000 -0.83147
vn -0.82811 0.46471 -0.31350
vn -0.73921 0.45783 -0.49392
vn -0.80298 0.25951 -0.53654
vn -0.90400 0.26408 -0.33623
vn -0.73921 0.45783 -0.49392
vn -0.49392 0.45783 -0.73921
vn -0.53654 0.25951 -0.80298
vn -0.80298 0.25951 -0.53654
vn -0.49392 0.45783 -0.73921
vn -0.31350 0.46471 -0.82811
vn -0.33623 0.26408 -0.90400
vn -0.53654 0.25951 -0.80298
vn -0.62353 0.74100 -0.24926
vn -0.56424 0.73450 -0.37701
vn -0.73921 0.45783 -0.49392
vn -0.82811 0.46471 -0.31350
vn -0.56424 0.73450 -0.37701
vn -0.37701 0.73450 -0.56424
vn -0.49392 0.45783 -0.73921
vn -0.73921 0.45783 -0.49392
vn -0.37701 0.73450 -0.56424
vn -0.24926 0.74100 -0.62353
vn -0.31350 0.46471 -0.82811
vn -0.49392 0.45783 -0.73921
vn -0.45014 0.87072 -0.19804
vn -0.41486 0.86663 -0.27720
vn -0.56424 0.73450 -0.37701
vn -0.62353 0.74100 -0.24926
vn -0.41486 0.86663 -0.27720
vn -0.27720 0.86663 -0.41486
vn -0.37701 0.73450 -0.56424
vn -0.56424 0.73450 -0.37701
vn -0.27720 0.86663 -0.41486
vn -0.19804 0.87072 -0.45014
vn -0.24926 0.74100 -0.62353
vn -0.37701 0.73450 -0.56424
vn -0.32177 0.93252 -0.16394
vn -0.30454 0.93051 -0.20349
vn -0.41486 0.86663 -0.27720
vn -0.45014 0.87072 -0.19804
vn -0.30454 0.93051 -0.20349
vn -0.20349 0.93051 -0.30454
vn -0.27720 0.86663 -0.41486
vn -0.41486 0.86663 -0.27720
vn -0.20349 0.93051 -0.30454
vn -0.16394 0.93252 -0.32177
vn -0.19804 0.87072 -0.45014
vn -0.27720 0.86663 -0.41486
vn -0.22398 0.96423 -0.14174
vn -0.22134 0.96392 -0.14789
vn -0.30454 0.93051 -0.20349
vn -0.32177 0.93252 -0.16394
vn -0.22134 0.96392 -0.14789
vn -0.14789 0.96392 -0.22134
vn -0.20349 0.93051 -0.30454
vn -0.30454 0.93051 -0.20349
vn -0.14789 0.96392 -0.22134
vn -0.14174 0.96423 -0.22398
vn -0.16394 0.93252 -0.32177
vn -0.20349 0.93051 -0.30454
vn -0.20890 0.96792 -0.13958
vn -0.22134 0.96392 -0.14789
vn -0.22398 0.96423 -0.14174
vn -0.13102 0.98314 -0.12757
vn -0.12757 0.98314 -0.13102
vn -0.13958 0.96792 -0.20890
vn -0.14789 0.96392 -0.22134
vn -0.13102 0.98314 -0.12757
vn -0.14789 0.96392 -0.22134
vn -0.22134 0.96392 -0.14789
vn -0.20890 0.96792 -0.13958
vn -0.14174 0.96423 -0.22398
vn -0.14789 0.96392 -0.22134
vn -0.13958 0.96792 -0.20890
vn -0.12757 0.98314 -0.13102
vn -0.13102 0.98314 -0.12757
vn -0.12727 0.98366 -0.12737
usemtl paint
f 1/1/1 2/2/2 3/3/3 4/4/4
f 5/5/5 6/6/6 7/7/7 8/8/8
f 9/9/9 10/10/10 11/11/11 12/12/12
f 13/13/13 14/14/14 15/15/15 16/16/16
f 17/17/17 18/18/18 19/19/19 20/20/20
f 21/21/21 22/22/22 23/23/23 24/24/24
f 25/25/25 26/26/26 27/27/27 28/28/28
f 29/29/29 30/30/30 31/31/31 32/32/32
f 33/33/33 34/34/34 35/35/35 36/36/36
f 37/37/37 38/38/38 39/39/39 40/40/40
f 41/41/41 42/42/42 43/43/43 44/44/44
f 45/45/45 46/46/46 47/47/47 48/48/48
f 49/49/49 50/50/50 51/51/51 52/52/52
f 53/53/53 54/54/54 55/55/55 56/56/56
f 57/57/57 58/58/58 59/59/59 60/60/60
f 61/61/61 62/62/62 63/63/63 64/64/64
f 65/65/65 66/66/66 67/67/67 68/68/68
f 69/69/69 70/70/70 71/71/71 72/72/72
f 73/73/73 74/74/74 75/75/75 76/76/76
f 77/77/77 78/78/78 79/79/79 80/80/80
f 81/81/81 82/82/82 83/83/83 84/84/84
f 85/85/85 86/86/86 87/87/87 88/88/88
f 89/89/89 90/90/90 91/91/91 92/92/92
f 93/93/93 94/94/94 95/95/95 96/96/96
f 97/97/97 98/98/98 99/99/99
f 100/100/100 101/101/101 102/102/102 103/103/103
f 104/104/104 105/105/105 106/106/106 107/107/107
f 108/108/108 109/109/109 110/110/110
f 111/111/111 112/112/112 113/113/113
