# Generated by dev-env-utils/scripts/gen_utilities_water.py -- do not edit
mtllib water_tower.mtl
o spheroid_medium_0_1_1
v 1.32304 0.35000 2.00000
v 2.00000 0.35000 1.32304
v 2.00000 -0.21193 2.00000
v -0.10001 1.55000 2.00000
v 0.19374 1.55000 1.29083
v 1.25509 0.39435 2.00000
v 0.19374 1.55000 1.29083
v 1.29083 1.55000 0.19374
v 2.00000 0.39435 1.25509
v 2.00000 0.35000 1.32304
v 0.19374 1.55000 1.29083
v 2.00000 0.35000 1.32304
v 1.32304 0.35000 2.00000
v 1.25509 0.39435 2.00000
v 1.29083 1.55000 0.19374
v 2.00000 1.55000 -0.10001
v 2.00000 0.39435 1.25509
v -0.35730 2.00000 0.92263
v 0.19374 1.55000 1.29083
v -0.10001 1.55000 2.00000
v -0.80356 2.00000 2.00000
v 0.92263 2.00000 -0.35730
v 1.29083 1.55000 0.19374
v 0.19374 1.55000 1.29083
v -0.35730 2.00000 0.92263
v 2.00000 2.00000 -0.80356
v 2.00000 1.55000 -0.10001
v 1.29083 1.55000 0.19374
v 0.92263 2.00000 -0.35730
vt 0.03721 0.00000
vt 0.96279 0.00000
vt 0.40795 0.41624
vt 0.50526 0.00000
vt 1.00000 0.00000
vt 1.00000 0.96304
vt 0.00000 0.00000
vt 1.00000 0.00000
vt 1.00000 0.96304
vt 0.96279 1.00000
vt 0.00000 0.00000
vt 0.96279 1.00000
vt 0.03721 1.00000
vt 0.00000 0.96304
vt 0.00000 0.00000
vt 0.49474 0.00000
vt 0.00000 0.96304
vt 1.00000 0.50000
vt 1.00000 1.00000
vt 0.50526 1.00000
vt 0.34950 0.50000
vt 1.00000 0.50000
vt 1.00000 1.00000
vt 0.00000 1.00000
vt 0.00000 0.50000
vt 0.62555 0.50000
vt 0.49474 1.00000
vt 0.00000 1.00000
vt 0.00000 0.50000
vn -0.59296 -0.69386 -0.40859
vn -0.40858 -0.69386 -0.59297
vn -0.53784 -0.68151 -0.49627
vn -0.57035 -0.78628 -0.23764
vn -0.51990 -0.78041 -0.34738
vn -0.59677 -0.69632 -0.39875
vn -0.51990 -0.78041 -0.34738
vn -0.34738 -0.78041 -0.51990
vn -0.39875 -0.69632 -0.59677
vn -0.40858 -0.69386 -0.59297
vn -0.51990 -0.78041 -0.34738
vn -0.40858 -0.69386 -0.59297
vn -0.59296 -0.69386 -0.40859
vn -0.59677 -0.69632 -0.39875
vn -0.34738 -0.78041 -0.51990
vn -0.23764 -0.78628 -0.57035
vn -0.39875 -0.69632 -0.59677
vn -0.46659 -0.82771 -0.31176
vn -0.51990 -0.78041 -0.34738
vn -0.57035 -0.78628 -0.23764
vn -0.52440 -0.83222 -0.18005
vn -0.31176 -0.82771 -0.46659
vn -0.34738 -0.78041 -0.51990
vn -0.51990 -0.78041 -0.34738
vn -0.46659 -0.82771 -0.31176
vn -0.18952 -0.83238 -0.52079
vn -0.23764 -0.78628 -0.57035
vn -0.34738 -0.78041 -0.51990
vn -0.31176 -0.82771 -0.46659
usemtl paint
f 1/1/1 2/2/2 3/3/3
f 4/4/4 5/5/5 6/6/6
f 7/7/7 8/8/8 9/9/9 10/10/10
f 11/11/11 12/12/12 13/13/13 14/14/14
f 15/15/15 16/16/16 17/17/17
f 18/18/18 19/19/19 20/20/20 21/21/21
f 22/22/22 23/23/23 24/24/24 25/25/25
f 26/26/26 27/27/27 28/28/28 29/29/29
