# Generated by dev-env-utils/scripts/gen_utilities_water.py -- do not edit
mtllib water_tower.mtl
o spheroid_medium_0_2_0
v 1.40505 2.00000 1.95000
v 1.39511 1.96538 2.00000
v -0.39511 1.96538 2.00000
v -0.40505 2.00000 1.95000
v 1.39511 1.96538 2.00000
v 1.40505 2.00000 1.95000
v 1.52576 2.00000 2.00000
v -0.40505 2.00000 1.95000
v -0.39511 1.96538 2.00000
v -0.52576 2.00000 2.00000
vt 1.00000 0.50000
vt 1.00000 0.53846
vt 0.00000 0.53846
vt 0.00000 0.50000
vt 0.00000 0.53846
vt 0.00000 0.50000
vt 0.07597 0.50000
vt 1.00000 0.50000
vt 1.00000 0.53846
vt 0.92403 0.50000
vn 0.10948 -0.82771 -0.55038
vn 0.11046 -0.82426 -0.55534
vn -0.11046 -0.82426 -0.55534
vn -0.10948 -0.82771 -0.55038
vn 0.11046 -0.82426 -0.55534
vn 0.10948 -0.82771 -0.55038
vn 0.12579 -0.82915 -0.54469
vn -0.10948 -0.82771 -0.55038
vn -0.11046 -0.82426 -0.55534
vn -0.12579 -0.82915 -0.54469
usemtl paint
f 1/1/1 2/2/2 3/3/3 4/4/4
f 5/5/5 6/6/6 7/7/7
f 8/8/8 9/9/9 10/10/10
