# Generated by dev-env-utils/scripts/gen_utilities_water.py -- do not edit
mtllib ground_tank.mtl
o tank_large_footing_3_0
v -1.00000 -0.65000 -0.99662
v 1.74841 -0.65000 0.14181
v 1.74841 -1.00000 0.14181
v -1.00000 -1.00000 -0.99662
v 1.74841 -0.65000 0.14181
v 2.00000 -0.65000 0.39340
v 2.00000 -1.00000 0.39340
v 1.74841 -1.00000 0.14181
v -1.00000 -0.65000 -0.78014
v 1.63512 -0.65000 0.31136
v 1.74841 -0.65000 0.14181
v -1.00000 -0.65000 -0.99662
v 1.63512 -0.65000 0.31136
v 2.00000 -0.65000 0.67624
v 2.00000 -0.65000 0.39340
v 1.74841 -0.65000 0.14181
vt 0.00296 0.00000
vt 1.00000 0.00000
vt 1.00000 1.00000
vt 0.00296 1.00000
vt 0.00000 0.00000
vt 0.11925 0.00000
vt 0.11925 1.00000
vt 0.00000 1.00000
vt 0.01787 0.00000
vt 1.00000 0.00000
vt 1.00000 1.00000
vt 0.00296 1.00000
vt 0.00000 0.00000
vt 0.17769 0.00000
vt 0.11925 1.00000
vt 0.00000 1.00000
vn 0.19620 0.00000 -0.98056
vn 0.55557 0.00000 -0.83147
vn 0.55557 0.00000 -0.83147
vn 0.19620 0.00000 -0.98056
vn 0.55557 0.00000 -0.83147
vn 0.59323 0.00000 -0.80503
vn 0.59323 0.00000 -0.80503
vn 0.55557 0.00000 -0.83147
vn 0.00000 1.00000 0.00000
vn 0.00000 1.00000 0.00000
vn 0.00000 1.00000 0.00000
vn 0.00000 1.00000 0.00000
vn 0.00000 1.00000 0.00000
vn 0.00000 1.00000 0.00000
vn 0.00000 1.00000 0.00000
vn 0.00000 1.00000 0.00000
usemtl concrete
f 1/1/1 2/2/2 3/3/3 4/4/4
f 5/5/5 6/6/6 7/7/7 8/8/8
f 9/9/9 10/10/10 11/11/11 12/12/12
f 13/13/13 14/14/14 15/15/15 16/16/16
