# Generated by dev-env-utils/scripts/gen_utilities_water.py -- do not edit
mtllib ground_tank.mtl
o tank_large_roof_1_0
v -1.00000 1.85000 0.69038
v -0.62945 1.85000 0.31984
v -0.62945 2.00000 0.31984
v -1.00000 2.00000 0.69038
v -0.62945 1.85000 0.31984
v 2.00000 1.85000 -0.76932
v 2.00000 2.00000 -0.76932
v -0.62945 2.00000 0.31984
v -1.00000 2.00000 0.69038
v -0.62945 2.00000 0.31984
v -0.63512 2.00000 0.31136
v -1.00000 2.00000 0.67624
v -0.62945 2.00000 0.31984
v 2.00000 2.00000 -0.76932
v 2.00000 2.00000 -0.78014
v -0.63512 2.00000 0.31136
v 0.49320 1.90925 2.00000
v -0.62945 1.85000 0.31984
v -1.00000 1.85000 0.69038
v -1.00000 1.87768 2.00000
v 2.00000 1.85000 -0.76932
v -0.62945 1.85000 0.31984
v 0.49320 1.90925 2.00000
v 2.00000 1.92649 2.00000
v -1.00000 2.87000 1.17122
v -0.43686 2.87000 0.60807
v -0.43686 1.87000 0.60807
v -1.00000 1.87000 1.17122
v -0.43686 2.87000 0.60807
v 2.00000 2.87000 -0.40131
v 2.00000 1.87000 -0.40131
v -0.43686 1.87000 0.60807
v -1.00000 1.87000 1.17122
v -0.43686 1.87000 0.60807
v -0.43686 2.87000 0.60807
v -1.00000 2.87000 1.17122
v -0.43686 1.87000 0.60807
v 2.00000 1.87000 -0.40131
v 2.00000 2.87000 -0.40131
v -0.43686 2.87000 0.60807
vt 0.81931 1.00000
vt 1.00000 1.00000
vt 1.00000 0.95000
vt 0.81931 0.95000
vt 0.00000 1.00000
vt 0.98137 1.00000
vt 0.98137 0.95000
vt 0.00000 0.95000
vt 0.81931 0.00000
vt 1.00000 0.00000
vt 1.00000 1.00000
vt 0.82231 1.00000
vt 0.00000 0.00000
vt 0.98137 0.00000
vt 0.98213 1.00000
vt 0.00000 1.00000
vt 1.00000 0.70375
vt 1.00000 1.00000
vt 0.81931 1.00000
vt 0.43649 0.86158
vt 0.98137 1.00000
vt 0.00000 1.00000
vt 0.00000 0.70375
vt 0.44046 0.61756
vt 0.71196 0.00000
vt 1.00000 0.00000
vt 1.00000 1.00000
vt 0.71196 1.00000
vt 0.00000 0.00000
vt 0.95398 0.00000
vt 0.95398 1.00000
vt 0.00000 1.00000
vt 0.71196 1.00000
vt 1.00000 1.00000
vt 1.00000 0.00000
vt 0.71196 0.00000
vt 0.00000 1.00000
vt 0.95398 1.00000
vt 0.95398 0.00000
vt 0.00000 0.00000
vn 0.61236 0.00000 0.79058
vn 0.55557 -0.00000 0.83147
vn 0.55557 -0.00000 0.83147
vn 0.61236 0.00000 0.79058
vn 0.55557 -0.00000 0.83147
vn 0.20209 0.00000 0.97937
vn 0.20209 0.00000 0.97937
vn 0.55557 -0.00000 0.83147
vn 0.00000 1.00000 0.00000
vn 0.00000 1.00000 0.00000
vn 0.00000 1.00000 0.00000
vn 0.00000 1.00000 0.00000
vn 0.00000 1.00000 0.00000
vn 0.00000 1.00000 0.00000
vn 0.00000 1.00000 0.00000
vn 0.00000 1.00000 0.00000
vn -0.01660 0.99955 -0.02485
vn -0.01660 0.99955 -0.02485
vn -0.01809 0.99956 -0.02336
vn -0.02125 0.99957 -0.02020
vn -0.00603 0.99955 -0.02922
vn -0.01660 0.99955 -0.02485
vn -0.01660 0.99955 -0.02485
vn -0.01186 0.99957 -0.02681
vn -0.64519 0.00000 -0.76402
vn -0.55557 0.00000 -0.83147
vn -0.55557 0.00000 -0.83147
vn -0.64519 0.00000 -0.76402
vn -0.55557 0.00000 -0.83147
vn -0.21239 0.00000 -0.97718
vn -0.21239 0.00000 -0.97718
vn -0.55557 0.00000 -0.83147
vn 0.64519 0.00000 0.76402
vn 0.55557 -0.00000 0.83147
vn 0.55557 -0.00000 0.83147
vn 0.64519 0.00000 0.76402
vn 0.55557 -0.00000 0.83147
vn 0.21239 0.00000 0.97718
vn 0.21239 0.00000 0.97718
vn 0.55557 -0.00000 0.83147
usemtl railing
f 25/25/25 26/26/26 27/27/27 28/28/28
f 29/29/29 30/30/30 31/31/31 32/32/32
f 33/33/33 34/34/34 35/35/35 36/36/36
f 37/37/37 38/38/38 39/39/39 40/40/40
usemtl roof
f 17/17/17 18/18/18 19/19/19 20/20/20
f 21/21/21 22/22/22 23/23/23 24/24/24
usemtl wall
f 1/1/1 2/2/2 3/3/3 4/4/4
f 5/5/5 6/6/6 7/7/7 8/8/8
f 9/9/9 10/10/10 11/11/11 12/12/12
f 13/13/13 14/14/14 15/15/15 16/16/16
