# Generated by dev-env-utils/scripts/gen_utilities_water.py -- do not edit
mtllib ground_tank.mtl
o tank_small_roof_1_1
v 0.38065 2.05000 -0.10000
v 0.61935 2.05000 -0.10000
v 0.79837 2.00122 -1.00000
v 0.20163 2.00122 -1.00000
v 0.61935 2.05000 -0.10000
v 0.83987 2.05000 -0.00866
v 1.50227 1.98662 -1.00000
v 0.79837 2.00122 -1.00000
v 0.83987 2.05000 -0.00866
v 1.00866 2.05000 0.16013
v 2.00000 1.98662 -0.50227
v 2.00000 1.96754 -1.00000
v 0.83987 2.05000 -0.00866
v 2.00000 1.96754 -1.00000
v 1.50227 1.98662 -1.00000
v 1.00866 2.05000 0.16013
v 1.10000 2.05000 0.38065
v 2.00000 2.00122 0.20163
v 2.00000 1.98662 -0.50227
v 1.10000 2.05000 0.38065
v 1.10000 2.05000 0.61935
v 2.00000 2.00122 0.79837
v 2.00000 2.00122 0.20163
v 1.10000 2.05000 0.61935
v 1.00866 2.05000 0.83987
v 2.00000 1.98662 1.50227
v 2.00000 2.00122 0.79837
v 1.00866 2.05000 0.83987
v 0.83987 2.05000 1.00866
v 1.50227 1.98662 2.00000
v 2.00000 1.96754 2.00000
v 1.00866 2.05000 0.83987
v 2.00000 1.96754 2.00000
v 2.00000 1.98662 1.50227
v 0.83987 2.05000 1.00866
v 0.61935 2.05000 1.10000
v 0.79837 2.00122 2.00000
v 1.50227 1.98662 2.00000
v 0.61935 2.05000 1.10000
v 0.38065 2.05000 1.10000
v 0.20163 2.00122 2.00000
v 0.79837 2.00122 2.00000
v 0.38065 2.05000 1.10000
v 0.16013 2.05000 1.00866
v -0.50227 1.98662 2.00000
v 0.20163 2.00122 2.00000
v 0.16013 2.05000 1.00866
v -0.00866 2.05000 0.83987
v -1.00000 1.98662 1.50227
v -1.00000 1.96754 2.00000
v 0.16013 2.05000 1.00866
v -1.00000 1.96754 2.00000
v -0.50227 1.98662 2.00000
v -0.00866 2.05000 0.83987
v -0.10000 2.05000 0.61935
v -1.00000 2.00122 0.79837
v -1.00000 1.98662 1.50227
v -0.10000 2.05000 0.61935
v -0.10000 2.05000 0.38065
v -1.00000 2.00122 0.20163
v -1.00000 2.00122 0.79837
v -0.10000 2.05000 0.38065
v -0.00866 2.05000 0.16013
v -1.00000 1.98662 -0.50227
v -1.00000 2.00122 0.20163
v -0.00866 2.05000 0.16013
v 0.16013 2.05000 -0.00866
v -0.50227 1.98662 -1.00000
v -1.00000 1.96754 -1.00000
v -0.00866 2.05000 0.16013
v -1.00000 1.96754 -1.00000
v -1.00000 1.98662 -0.50227
v 0.16013 2.05000 -0.00866
v 0.38065 2.05000 -0.10000
v 0.20163 2.00122 -1.00000
v -0.50227 1.98662 -1.00000
v 0.38065 2.10000 -0.10000
v 0.61935 2.10000 -0.10000
v 0.61935 2.00000 -0.10000
v 0.38065 2.00000 -0.10000
v 0.61935 2.10000 -0.10000
v 0.83987 2.10000 -0.00866
v 0.83987 2.00000 -0.00866
v 0.61935 2.00000 -0.10000
v 0.83987 2.10000 -0.00866
v 1.00866 2.10000 0.16013
v 1.00866 2.00000 0.16013
v 0.83987 2.00000 -0.00866
v 1.00866 2.10000 0.16013
v 1.10000 2.10000 0.38065
v 1.10000 2.00000 0.38065
v 1.00866 2.00000 0.16013
v 1.10000 2.10000 0.38065
v 1.10000 2.10000 0.61935
v 1.10000 2.00000 0.61935
v 1.10000 2.00000 0.38065
v 1.10000 2.10000 0.61935
v 1.00866 2.10000 0.83987
v 1.00866 2.00000 0.83987
v 1.10000 2.00000 0.61935
v 1.00866 2.10000 0.83987
v 0.83987 2.10000 1.00866
v 0.83987 2.00000 1.00866
v 1.00866 2.00000 0.83987
v 0.83987 2.10000 1.00866
v 0.61935 2.10000 1.10000
v 0.61935 2.00000 1.10000
v 0.83987 2.00000 1.00866
v 0.61935 2.10000 1.10000
v 0.38065 2.10000 1.10000
v 0.38065 2.00000 1.10000
v 0.61935 2.00000 1.10000
v 0.38065 2.10000 1.10000
v 0.16013 2.10000 1.00866
v 0.16013 2.00000 1.00866
v 0.38065 2.00000 1.10000
v 0.16013 2.10000 1.00866
v -0.00866 2.10000 0.83987
v -0.00866 2.00000 0.83987
v 0.16013 2.00000 1.00866
v -0.00866 2.10000 0.83987
v -0.10000 2.10000 0.61935
v -0.10000 2.00000 0.61935
v -0.00866 2.00000 0.83987
v -0.10000 2.10000 0.61935
v -0.10000 2.10000 0.38065
v -0.10000 2.00000 0.38065
v -0.10000 2.00000 0.61935
v -0.10000 2.10000 0.38065
v -0.00866 2.10000 0.16013
v -0.00866 2.00000 0.16013
v -0.10000 2.00000 0.38065
v -0.00866 2.10000 0.16013
v 0.16013 2.10000 -0.00866
v 0.16013 2.00000 -0.00866
v -0.00866 2.00000 0.16013
v 0.16013 2.10000 -0.00866
v 0.38065 2.10000 -0.10000
v 0.38065 2.00000 -0.10000
v 0.16013 2.00000 -0.00866
v 0.50000 2.10000 0.50000
v 0.61935 2.10000 -0.10000
v 0.38065 2.10000 -0.10000
v 0.50000 2.10000 0.50000
v 0.83987 2.10000 -0.00866
v 0.61935 2.10000 -0.10000
v 0.50000 2.10000 0.50000
v 1.00866 2.10000 0.16013
v 0.83987 2.10000 -0.00866
v 0.50000 2.10000 0.50000
v 1.10000 2.10000 0.38065
v 1.00866 2.10000 0.16013
v 0.50000 2.10000 0.50000
v 1.10000 2.10000 0.61935
v 1.10000 2.10000 0.38065
v 0.50000 2.10000 0.50000
v 1.00866 2.10000 0.83987
v 1.10000 2.10000 0.61935
v 0.50000 2.10000 0.50000
v 0.83987 2.10000 1.00866
v 1.00866 2.10000 0.83987
v 0.50000 2.10000 0.50000
v 0.61935 2.10000 1.10000
v 0.83987 2.10000 1.00866
v 0.50000 2.10000 0.50000
v 0.38065 2.10000 1.10000
v 0.61935 2.10000 1.10000
v 0.50000 2.10000 0.50000
v 0.16013 2.10000 1.00866
v 0.38065 2.10000 1.10000
v 0.50000 2.10000 0.50000
v -0.00866 2.10000 0.83987
v 0.16013 2.10000 1.00866
v 0.50000 2.10000 0.50000
v -0.10000 2.10000 0.61935
v -0.00866 2.10000 0.83987
v 0.50000 2.10000 0.50000
v -0.10000 2.10000 0.38065
v -0.10000 2.10000 0.61935
v 0.50000 2.10000 0.50000
v -0.00866 2.10000 0.16013
v -0.10000 2.10000 0.38065
v 0.50000 2.10000 0.50000
v 0.16013 2.10000 -0.00866
v -0.00866 2.10000 0.16013
v 0.50000 2.10000 0.50000
v 0.38065 2.10000 -0.10000
v 0.16013 2.10000 -0.00866
v 0.37574 2.45000 0.20000
v 0.62426 2.45000 0.20000
v 0.62426 2.10000 0.20000
v 0.37574 2.10000 0.20000
v 0.62426 2.45000 0.20000
v 0.80000 2.45000 0.37574
v 0.80000 2.10000 0.37574
v 0.62426 2.10000 0.20000
v 0.80000 2.45000 0.37574
v 0.80000 2.45000 0.62426
v 0.80000 2.10000 0.62426
v 0.80000 2.10000 0.37574
v 0.80000 2.45000 0.62426
v 0.62426 2.45000 0.80000
v 0.62426 2.10000 0.80000
v 0.80000 2.10000 0.62426
v 0.62426 2.45000 0.80000
v 0.37574 2.45000 0.80000
v 0.37574 2.10000 0.80000
v 0.62426 2.10000 0.80000
v 0.37574 2.45000 0.80000
v 0.20000 2.45000 0.62426
v 0.20000 2.10000 0.62426
v 0.37574 2.10000 0.80000
v 0.20000 2.45000 0.62426
v 0.20000 2.45000 0.37574
v 0.20000 2.10000 0.37574
v 0.20000 2.10000 0.62426
v 0.20000 2.45000 0.37574
v 0.37574 2.45000 0.20000
v 0.37574 2.10000 0.20000
v 0.20000 2.10000 0.37574
v 0.31360 2.57000 0.05000
v 0.68640 2.57000 0.05000
v 0.68640 2.45000 0.05000
v 0.31360 2.45000 0.05000
v 0.68640 2.57000 0.05000
v 0.95000 2.57000 0.31360
v 0.95000 2.45000 0.31360
v 0.68640 2.45000 0.05000
v 0.95000 2.57000 0.31360
v 0.95000 2.57000 0.68640
v 0.95000 2.45000 0.68640
v 0.95000 2.45000 0.31360
v 0.95000 2.57000 0.68640
v 0.68640 2.57000 0.95000
v 0.68640 2.45000 0.95000
v 0.95000 2.45000 0.68640
v 0.68640 2.57000 0.95000
v 0.31360 2.57000 0.95000
v 0.31360 2.45000 0.95000
v 0.68640 2.45000 0.95000
v 0.31360 2.57000 0.95000
v 0.05000 2.57000 0.68640
v 0.05000 2.45000 0.68640
v 0.31360 2.45000 0.95000
v 0.05000 2.57000 0.68640
v 0.05000 2.57000 0.31360
v 0.05000 2.45000 0.31360
v 0.05000 2.45000 0.68640
v 0.05000 2.57000 0.31360
v 0.31360 2.57000 0.05000
v 0.31360 2.45000 0.05000
v 0.05000 2.45000 0.31360
v 0.50000 2.57000 0.50000
v 0.68640 2.57000 0.05000
v 0.31360 2.57000 0.05000
v 0.50000 2.57000 0.50000
v 0.95000 2.57000 0.31360
v 0.68640 2.57000 0.05000
v 0.50000 2.57000 0.50000
v 0.95000 2.57000 0.68640
v 0.95000 2.57000 0.31360
v 0.50000 2.57000 0.50000
v 0.68640 2.57000 0.95000
v 0.95000 2.57000 0.68640
v 0.50000 2.57000 0.50000
v 0.31360 2.57000 0.95000
v 0.68640 2.57000 0.95000
v 0.50000 2.57000 0.50000
v 0.05000 2.57000 0.68640
v 0.31360 2.57000 0.95000
v 0.50000 2.57000 0.50000
v 0.05000 2.57000 0.31360
v 0.05000 2.57000 0.68640
v 0.50000 2.57000 0.50000
v 0.31360 2.57000 0.05000
v 0.05000 2.57000 0.31360
v 0.31360 2.45000 0.05000
v 0.68640 2.45000 0.05000
v 0.50000 2.45000 0.50000
v 0.68640 2.45000 0.05000
v 0.95000 2.45000 0.31360
v 0.50000 2.45000 0.50000
v 0.95000 2.45000 0.31360
v 0.95000 2.45000 0.68640
v 0.50000 2.45000 0.50000
v 0.95000 2.45000 0.68640
v 0.68640 2.45000 0.95000
v 0.50000 2.45000 0.50000
v 0.68640 2.45000 0.95000
v 0.31360 2.45000 0.95000
v 0.50000 2.45000 0.50000
v 0.31360 2.45000 0.95000
v 0.05000 2.45000 0.68640
v 0.50000 2.45000 0.50000
v 0.05000 2.45000 0.68640
v 0.05000 2.45000 0.31360
v 0.50000 2.45000 0.50000
v 0.05000 2.45000 0.31360
v 0.31360 2.45000 0.05000
v 0.50000 2.45000 0.50000
vt 0.00000 0.00000
vt 1.00000 0.00000
vt 1.00000 0.24390
vt 0.00000 0.24390
vt 0.00000 0.00000
vt 1.00000 0.00000
vt 1.00000 0.31690
vt 0.00000 0.24390
vt 0.00000 0.00000
vt 1.00000 0.00000
vt 1.00000 0.31690
vt 0.59946 0.41228
vt 0.00000 0.00000
vt 0.59946 0.41228
vt 0.00000 0.31690
vt 0.00000 0.00000
vt 1.00000 0.00000
vt 1.00000 0.24390
vt 0.00000 0.31690
vt 0.00000 0.00000
vt 1.00000 0.00000
vt 1.00000 0.24390
vt 0.00000 0.24390
vt 0.00000 0.00000
vt 1.00000 0.00000
vt 1.00000 0.31690
vt 0.00000 0.24390
vt 0.00000 0.00000
vt 1.00000 0.00000
vt 1.00000 0.31690
vt 0.40054 0.41228
vt 0.00000 0.00000
vt 0.40054 0.41228
vt 0.00000 0.31690
vt 0.00000 0.00000
vt 1.00000 0.00000
vt 1.00000 0.24390
vt 0.00000 0.31690
vt 0.00000 0.00000
vt 1.00000 0.00000
vt 1.00000 0.24390
vt 0.00000 0.24390
vt 0.00000 0.00000
vt 1.00000 0.00000
vt 1.00000 0.31690
vt 0.00000 0.24390
vt 0.00000 0.00000
vt 1.00000 0.00000
vt 1.00000 0.31690
vt 0.59946 0.41228
vt 0.00000 0.00000
vt 0.59946 0.41228
vt 0.00000 0.31690
vt 0.00000 0.00000
vt 1.00000 0.00000
vt 1.00000 0.24390
vt 0.00000 0.31690
vt 0.00000 0.00000
vt 1.00000 0.00000
vt 1.00000 0.24390
vt 0.00000 0.24390
vt 0.00000 0.00000
vt 1.00000 0.00000
vt 1.00000 0.31690
vt 0.00000 0.24390
vt 0.00000 0.00000
vt 1.00000 0.00000
vt 1.00000 0.31690
vt 0.40054 0.41228
vt 0.00000 0.00000
vt 0.40054 0.41228
vt 0.00000 0.31690
vt 0.00000 0.00000
vt 1.00000 0.00000
vt 1.00000 0.24390
vt 0.00000 0.31690
vt 0.00000 0.00000
vt 1.00000 0.00000
vt 1.00000 1.00000
vt 0.00000 1.00000
vt 0.00000 0.00000
vt 1.00000 0.00000
vt 1.00000 1.00000
vt 0.00000 1.00000
vt 0.00000 0.00000
vt 1.00000 0.00000
vt 1.00000 1.00000
vt 0.00000 1.00000
vt 0.00000 0.00000
vt 1.00000 0.00000
vt 1.00000 1.00000
vt 0.00000 1.00000
vt 0.00000 0.00000
vt 1.00000 0.00000
vt 1.00000 1.00000
vt 0.00000 1.00000
vt 0.00000 0.00000
vt 1.00000 0.00000
vt 1.00000 1.00000
vt 0.00000 1.00000
vt 0.00000 0.00000
vt 1.00000 0.00000
vt 1.00000 1.00000
vt 0.00000 1.00000
vt 0.00000 0.00000
vt 1.00000 0.00000
vt 1.00000 1.00000
vt 0.00000 1.00000
vt 0.00000 0.00000
vt 1.00000 0.00000
vt 1.00000 1.00000
vt 0.00000 1.00000
vt 0.00000 0.00000
vt 1.00000 0.00000
vt 1.00000 1.00000
vt 0.00000 1.00000
vt 0.00000 0.00000
vt 1.00000 0.00000
vt 1.00000 1.00000
vt 0.00000 1.00000
vt 0.00000 0.00000
vt 1.00000 0.00000
vt 1.00000 1.00000
vt 0.00000 1.00000
vt 0.00000 0.00000
vt 1.00000 0.00000
vt 1.00000 1.00000
vt 0.00000 1.00000
vt 0.00000 0.00000
vt 1.00000 0.00000
vt 1.00000 1.00000
vt 0.00000 1.00000
vt 0.00000 0.00000
vt 1.00000 0.00000
vt 1.00000 1.00000
vt 0.00000 1.00000
vt 0.00000 0.00000
vt 1.00000 0.00000
vt 1.00000 1.00000
vt 0.00000 1.00000
vt 0.50000 0.00000
vt 1.00000 1.00000
vt 0.00000 1.00000
vt 0.50000 0.00000
vt 1.00000 1.00000
vt 0.00000 1.00000
vt 0.50000 0.00000
vt 1.00000 1.00000
vt 0.00000 1.00000
vt 0.50000 0.00000
vt 1.00000 1.00000
vt 0.00000 1.00000
vt 0.50000 0.00000
vt 1.00000 1.00000
vt 0.00000 1.00000
vt 0.50000 0.00000
vt 1.00000 1.00000
vt 0.00000 1.00000
vt 0.50000 0.00000
vt 1.00000 1.00000
vt 0.00000 1.00000
vt 0.50000 0.00000
vt 1.00000 1.00000
vt 0.00000 1.00000
vt 0.50000 0.00000
vt 1.00000 1.00000
vt 0.00000 1.00000
vt 0.50000 0.00000
vt 1.00000 1.00000
vt 0.00000 1.00000
vt 0.50000 0.00000
vt 1.00000 1.00000
vt 0.00000 1.00000
vt 0.50000 0.00000
vt 1.00000 1.00000
vt 0.00000 1.00000
vt 0.50000 0.00000
vt 1.00000 1.00000
vt 0.00000 1.00000
vt 0.50000 0.00000
vt 1.00000 1.00000
vt 0.00000 1.00000
vt 0.50000 0.00000
vt 1.00000 1.00000
vt 0.00000 1.00000
vt 0.50000 0.00000
vt 1.00000 1.00000
vt 0.00000 1.00000
vt 0.00000 0.00000
vt 1.00000 0.00000
vt 1.00000 1.00000
vt 0.00000 1.00000
vt 0.00000 0.00000
vt 1.00000 0.00000
vt 1.00000 1.00000
vt 0.00000 1.00000
vt 0.00000 0.00000
vt 1.00000 0.00000
vt 1.00000 1.00000
vt 0.00000 1.00000
vt 0.00000 0.00000
vt 1.00000 0.00000
vt 1.00000 1.00000
vt 0.00000 1.00000
vt 0.00000 0.00000
vt 1.00000 0.00000
vt 1.00000 1.00000
vt 0.00000 1.00000
vt 0.00000 0.00000
vt 1.00000 0.00000
vt 1.00000 1.00000
vt 0.00000 1.00000
vt 0.00000 0.00000
vt 1.00000 0.00000
vt 1.00000 1.00000
vt 0.00000 1.00000
vt 0.00000 0.00000
vt 1.00000 0.00000
vt 1.00000 1.00000
vt 0.00000 1.00000
vt 0.00000 0.00000
vt 1.00000 0.00000
vt 1.00000 1.00000
vt 0.00000 1.00000
vt 0.00000 0.00000
vt 1.00000 0.00000
vt 1.00000 1.00000
vt 0.00000 1.00000
vt 0.00000 0.00000
vt 1.00000 0.00000
vt 1.00000 1.00000
vt 0.00000 1.00000
vt 0.00000 0.00000
vt 1.00000 0.00000
vt 1.00000 1.00000
vt 0.00000 1.00000
vt 0.00000 0.00000
vt 1.00000 0.00000
vt 1.00000 1.00000
vt 0.00000 1.00000
vt 0.00000 0.00000
vt 1.00000 0.00000
vt 1.00000 1.00000
vt 0.00000 1.00000
vt 0.00000 0.00000
vt 1.00000 0.00000
vt 1.00000 1.00000
vt 0.00000 1.00000
vt 0.00000 0.00000
vt 1.00000 0.00000
vt 1.00000 1.00000
vt 0.00000 1.00000
vt 0.50000 0.00000
vt 1.00000 1.00000
vt 0.00000 1.00000
vt 0.50000 0.00000
vt 1.00000 1.00000
vt 0.00000 1.00000
vt 0.50000 0.00000
vt 1.00000 1.00000
vt 0.00000 1.00000
vt 0.50000 0.00000
vt 1.00000 1.00000
vt 0.00000 1.00000
vt 0.50000 0.00000
vt 1.00000 1.00000
vt 0.00000 1.00000
vt 0.50000 0.00000
vt 1.00000 1.00000
vt 0.00000 1.00000
vt 0.50000 0.00000
vt 1.00000 1.00000
vt 0.00000 1.00000
vt 0.50000 0.00000
vt 1.00000 1.00000
vt 0.00000 1.00000
vt 0.00000 1.00000
vt 1.00000 1.00000
vt 0.50000 0.00000
vt 0.00000 1.00000
vt 1.00000 1.00000
vt 0.50000 0.00000
vt 0.00000 1.00000
vt 1.00000 1.00000
vt 0.50000 0.00000
vt 0.00000 1.00000
vt 1.00000 1.00000
vt 0.50000 0.00000
vt 0.00000 1.00000
vt 1.00000 1.00000
vt 0.50000 0.00000
vt 0.00000 1.00000
vt 1.00000 1.00000
vt 0.50000 0.00000
vt 0.00000 1.00000
vt 1.00000 1.00000
vt 0.50000 0.00000
vt 0.00000 1.00000
vt 1.00000 1.00000
vt 0.50000 0.00000
vn -0.01056 0.99853 -0.05308
vn 0.01056 0.99853 -0.05308
vn 0.01056 0.99853 -0.05308
vn -0.01056 0.99853 -0.05308
vn 0.01056 0.99853 -0.05308
vn 0.03007 0.99853 -0.04500
vn 0.03007 0.99853 -0.04500
vn 0.01056 0.99853 -0.05308
vn 0.03007 0.99853 -0.04500
vn 0.04500 0.99853 -0.03007
vn 0.04500 0.99853 -0.03007
vn 0.03902 0.99859 -0.03605
vn 0.03007 0.99853 -0.04500
vn 0.03902 0.99859 -0.03605
vn 0.03007 0.99853 -0.04500
vn 0.04500 0.99853 -0.03007
vn 0.05308 0.99853 -0.01056
vn 0.05308 0.99853 -0.01056
vn 0.04500 0.99853 -0.03007
vn 0.05308 0.99853 -0.01056
vn 0.05308 0.99853 0.01056
vn 0.05308 0.99853 0.01056
vn 0.05308 0.99853 -0.01056
vn 0.05308 0.99853 0.01056
vn 0.04500 0.99853 0.03007
vn 0.04500 0.99853 0.03007
vn 0.05308 0.99853 0.01056
vn 0.04500 0.99853 0.03007
vn 0.03007 0.99853 0.04500
vn 0.03007 0.99853 0.04500
vn 0.03902 0.99859 0.03605
vn 0.04500 0.99853 0.03007
vn 0.03902 0.99859 0.03605
vn 0.04500 0.99853 0.03007
vn 0.03007 0.99853 0.04500
vn 0.01056 0.99853 0.05308
vn 0.01056 0.99853 0.05308
vn 0.03007 0.99853 0.04500
vn 0.01056 0.99853 0.05308
vn -0.01056 0.99853 0.05308
vn -0.01056 0.99853 0.05308
vn 0.01056 0.99853 0.05308
vn -0.01056 0.99853 0.05308
vn -0.03007 0.99853 0.04500
vn -0.03007 0.99853 0.04500
vn -0.01056 0.99853 0.05308
vn -0.03007 0.99853 0.04500
vn -0.04500 0.99853 0.03007
vn -0.04500 0.99853 0.03007
vn -0.03902 0.99859 0.03605
vn -0.03007 0.99853 0.04500
vn -0.03902 0.99859 0.03605
vn -0.03007 0.99853 0.04500
vn -0.04500 0.99853 0.03007
vn -0.05308 0.99853 0.01056
vn -0.05308 0.99853 0.01056
vn -0.04500 0.99853 0.03007
vn -0.05308 0.99853 0.01056
vn -0.05308 0.99853 -0.01056
vn -0.05308 0.99853 -0.01056
vn -0.05308 0.99853 0.01056
vn -0.05308 0.99853 -0.01056
vn -0.04500 0.99853 -0.03007
vn -0.04500 0.99853 -0.03007
vn -0.05308 0.99853 -0.01056
vn -0.04500 0.99853 -0.03007
vn -0.03007 0.99853 -0.04500
vn -0.03007 0.99853 -0.04500
vn -0.03902 0.99859 -0.03605
vn -0.04500 0.99853 -0.03007
vn -0.03902 0.99859 -0.03605
vn -0.04500 0.99853 -0.03007
vn -0.03007 0.99853 -0.04500
vn -0.01056 0.99853 -0.05308
vn -0.01056 0.99853 -0.05308
vn -0.03007 0.99853 -0.04500
vn -0.19509 0.00000 -0.98079
vn 0.19509 0.00000 -0.98079
vn 0.19509 0.00000 -0.98079
vn -0.19509 0.00000 -0.98079
vn 0.19509 0.00000 -0.98079
vn 0.55557 0.00000 -0.83147
vn 0.55557 0.00000 -0.83147
vn 0.19509 0.00000 -0.98079
vn 0.55557 0.00000 -0.83147
vn 0.83147 0.00000 -0.55557
vn 0.83147 0.00000 -0.55557
vn 0.55557 0.00000 -0.83147
vn 0.83147 0.00000 -0.55557
vn 0.98079 0.00000 -0.19509
vn 0.98079 0.00000 -0.19509
vn 0.83147 0.00000 -0.55557
vn 0.98079 0.00000 -0.19509
vn 0.98079 0.00000 0.19509
vn 0.98079 0.00000 0.19509
vn 0.98079 0.00000 -0.19509
vn 0.98079 0.00000 0.19509
vn 0.83147 0.00000 0.55557
vn 0.83147 0.00000 0.55557
vn 0.98079 0.00000 0.19509
vn 0.83147 0.00000 0.55557
vn 0.55557 0.00000 0.83147
vn 0.55557 0.00000 0.83147
vn 0.83147 0.00000 0.55557
vn 0.55557 0.00000 0.83147
vn 0.19509 0.00000 0.98079
vn 0.19509 0.00000 0.98079
vn 0.55557 0.00000 0.83147
vn 0.19509 0.00000 0.98079
vn -0.19509 0.00000 0.98079
vn -0.19509 0.00000 0.98079
vn 0.19509 0.00000 0.98079
vn -0.19509 0.00000 0.98079
vn -0.55557 0.00000 0.83147
vn -0.55557 0.00000 0.83147
vn -0.19509 0.00000 0.98079
vn -0.55557 0.00000 0.83147
vn -0.83147 0.00000 0.55557
vn -0.83147 0.00000 0.55557
vn -0.55557 0.00000 0.83147
vn -0.83147 0.00000 0.55557
vn -0.98079 0.00000 0.19509
vn -0.98079 0.00000 0.19509
vn -0.83147 0.00000 0.55557
vn -0.98079 0.00000 0.19509
vn -0.98079 0.00000 -0.19509
vn -0.98079 0.00000 -0.19509
vn -0.98079 0.00000 0.19509
vn -0.98079 0.00000 -0.19509
vn -0.83147 0.00000 -0.55557
vn -0.83147 0.00000 -0.55557
vn -0.98079 0.00000 -0.19509
vn -0.83147 0.00000 -0.55557
vn -0.55557 0.00000 -0.83147
vn -0.55557 0.00000 -0.83147
vn -0.83147 0.00000 -0.55557
vn -0.55557 0.00000 -0.83147
vn -0.19509 0.00000 -0.98079
vn -0.19509 0.00000 -0.98079
vn -0.55557 0.00000 -0.83147
vn 0.00000 1.00000 0.00000
vn 0.00000 1.00000 0.00000
vn 0.00000 1.00000 0.00000
vn 0.00000 1.00000 0.00000
vn 0.00000 1.00000 0.00000
vn 0.00000 1.00000 0.00000
vn 0.00000 1.00000 0.00000
vn 0.00000 1.00000 0.00000
vn 0.00000 1.00000 0.00000
vn 0.00000 1.00000 0.00000
vn 0.00000 1.00000 0.00000
vn 0.00000 1.00000 0.00000
vn 0.00000 1.00000 0.00000
vn 0.00000 1.00000 0.00000
vn 0.00000 1.00000 0.00000
vn 0.00000 1.00000 0.00000
vn 0.00000 1.00000 0.00000
vn 0.00000 1.00000 0.00000
vn 0.00000 1.00000 0.00000
vn 0.00000 1.00000 0.00000
vn 0.00000 1.00000 0.00000
vn 0.00000 1.00000 0.00000
vn 0.00000 1.00000 0.00000
vn 0.00000 1.00000 0.00000
vn 0.00000 1.00000 0.00000
vn 0.00000 1.00000 0.00000
vn 0.00000 1.00000 0.00000
vn 0.00000 1.00000 0.00000
vn 0.00000 1.00000 0.00000
vn 0.00000 1.00000 0.00000
vn 0.00000 1.00000 0.00000
vn 0.00000 1.00000 0.00000
vn 0.00000 1.00000 0.00000
vn 0.00000 1.00000 0.00000
vn 0.00000 1.00000 0.00000
vn 0.00000 1.00000 0.00000
vn 0.00000 1.00000 0.00000
vn 0.00000 1.00000 0.00000
vn 0.00000 1.00000 0.00000
vn 0.00000 1.00000 0.00000
vn 0.00000 1.00000 0.00000
vn 0.00000 1.00000 0.00000
vn 0.00000 1.00000 0.00000
vn 0.00000 1.00000 0.00000
vn 0.00000 1.00000 0.00000
vn 0.00000 1.00000 0.00000
vn 0.00000 1.00000 0.00000
vn 0.00000 1.00000 0.00000
vn -0.38268 0.00000 -0.92388
vn 0.38268 0.00000 -0.92388
vn 0.38268 0.00000 -0.92388
vn -0.38268 0.00000 -0.92388
vn 0.38268 0.00000 -0.92388
vn 0.92388 0.00000 -0.38268
vn 0.92388 0.00000 -0.38268
vn 0.38268 0.00000 -0.92388
vn 0.92388 0.00000 -0.38268
vn 0.92388 0.00000 0.38268
vn 0.92388 0.00000 0.38268
vn 0.92388 0.00000 -0.38268
vn 0.92388 0.00000 0.38268
vn 0.38268 0.00000 0.92388
vn 0.38268 0.00000 0.92388
vn 0.92388 0.00000 0.38268
vn 0.38268 0.00000 0.92388
vn -0.38268 0.00000 0.92388
vn -0.38268 0.00000 0.92388
vn 0.38268 0.00000 0.92388
vn -0.38268 0.00000 0.92388
vn -0.92388 0.00000 0.38268
vn -0.92388 0.00000 0.38268
vn -0.38268 0.00000 0.92388
vn -0.92388 0.00000 0.38268
vn -0.92388 0.00000 -0.38268
vn -0.92388 0.00000 -0.38268
vn -0.92388 0.00000 0.38268
vn -0.92388 0.00000 -0.38268
vn -0.38268 0.00000 -0.92388
vn -0.38268 0.00000 -0.92388
vn -0.92388 0.00000 -0.38268
vn -0.38268 0.00000 -0.92388
vn 0.38268 0.00000 -0.92388
vn 0.38268 0.00000 -0.92388
vn -0.38268 0.00000 -0.92388
vn 0.38268 0.00000 -0.92388
vn 0.92388 0.00000 -0.38268
vn 0.92388 0.00000 -0.38268
vn 0.38268 0.00000 -0.92388
vn 0.92388 0.00000 -0.38268
vn 0.92388 0.00000 0.38268
vn 0.92388 0.00000 0.38268
vn 0.92388 0.00000 -0.38268
vn 0.92388 0.00000 0.38268
vn 0.38268 0.00000 0.92388
vn 0.38268 0.00000 0.92388
vn 0.92388 0.00000 0.38268
vn 0.38268 0.00000 0.92388
vn -0.38268 0.00000 0.92388
vn -0.38268 0.00000 0.92388
vn 0.38268 0.00000 0.92388
vn -0.38268 0.00000 0.92388
vn -0.92388 0.00000 0.38268
vn -0.92388 0.00000 0.38268
vn -0.38268 0.00000 0.92388
vn -0.92388 0.00000 0.38268
vn -0.92388 0.00000 -0.38268
vn -0.92388 0.00000 -0.38268
vn -0.92388 0.00000 0.38268
vn -0.92388 0.00000 -0.38268
vn -0.38268 0.00000 -0.92388
vn -0.38268 0.00000 -0.92388
vn -0.92388 0.00000 -0.38268
vn 0.00000 1.00000 0.00000
vn 0.00000 1.00000 0.00000
vn 0.00000 1.00000 0.00000
vn 0.00000 1.00000 0.00000
vn 0.00000 1.00000 0.00000
vn 0.00000 1.00000 0.00000
vn 0.00000 1.00000 0.00000
vn 0.00000 1.00000 0.00000
vn 0.00000 1.00000 0.00000
vn 0.00000 1.00000 0.00000
vn 0.00000 1.00000 0.00000
vn 0.00000 1.00000 0.00000
vn 0.00000 1.00000 0.00000
vn 0.00000 1.00000 0.00000
vn 0.00000 1.00000 0.00000
vn 0.00000 1.00000 0.00000
vn 0.00000 1.00000 0.00000
vn 0.00000 1.00000 0.00000
vn 0.00000 1.00000 0.00000
vn 0.00000 1.00000 0.00000
vn 0.00000 1.00000 0.00000
vn 0.00000 1.00000 0.00000
vn 0.00000 1.00000 0.00000
vn 0.00000 1.00000 0.00000
vn 0.00000 -1.00000 0.00000
vn 0.00000 -1.00000 0.00000
vn 0.00000 -1.00000 0.00000
vn 0.00000 -1.00000 0.00000
vn 0.00000 -1.00000 0.00000
vn 0.00000 -1.00000 0.00000
vn 0.00000 -1.00000 0.00000
vn 0.00000 -1.00000 0.00000
vn 0.00000 -1.00000 0.00000
vn 0.00000 -1.00000 0.00000
vn 0.00000 -1.00000 0.00000
vn 0.00000 -1.00000 0.00000
vn 0.00000 -1.00000 0.00000
vn 0.00000 -1.00000 0.00000
vn 0.00000 -1.00000 0.00000
vn 0.00000 -1.00000 0.00000
vn 0.00000 -1.00000 0.00000
vn 0.00000 -1.00000 0.00000
vn 0.00000 -1.00000 0.00000
vn 0.00000 -1.00000 0.00000
vn 0.00000 -1.00000 0.00000
vn 0.00000 -1.00000 0.00000
vn 0.00000 -1.00000 0.00000
vn 0.00000 -1.00000 0.00000
usemtl dark
f 221/221/221 222/222/222 223/223/223 224/224/224
f 225/225/225 226/226/226 227/227/227 228/228/228
f 229/229/229 230/230/230 231/231/231 232/232/232
f 233/233/233 234/234/234 235/235/235 236/236/236
f 237/237/237 238/238/238 239/239/239 240/240/240
f 241/241/241 242/242/242 243/243/243 244/244/244
f 245/245/245 246/246/246 247/247/247 248/248/248
f 249/249/249 250/250/250 251/251/251 252/252/252
f 253/253/253 254/254/254 255/255/255
f 256/256/256 257/257/257 258/258/258
f 259/259/259 260/260/260 261/261/261
f 262/262/262 263/263/263 264/264/264
f 265/265/265 266/266/266 267/267/267
f 268/268/268 269/269/269 270/270/270
f 271/271/271 272/272/272 273/273/273
f 274/274/274 275/275/275 276/276/276
f 277/277/277 278/278/278 279/279/279
f 280/280/280 281/281/281 282/282/282
f 283/283/283 284/284/284 285/285/285
f 286/286/286 287/287/287 288/288/288
f 289/289/289 290/290/290 291/291/291
f 292/292/292 293/293/293 294/294/294
f 295/295/295 296/296/296 297/297/297
f 298/298/298 299/299/299 300/300/300
usemtl roof
f 1/1/1 2/2/2 3/3/3 4/4/4
f 5/5/5 6/6/6 7/7/7 8/8/8
f 9/9/9 10/10/10 11/11/11 12/12/12
f 13/13/13 14/14/14 15/15/15
f 16/16/16 17/17/17 18/18/18 19/19/19
f 20/20/20 21/21/21 22/22/22 23/23/23
f 24/24/24 25/25/25 26/26/26 27/27/27
f 28/28/28 29/29/29 30/30/30 31/31/31
f 32/32/32 33/33/33 34/34/34
f 35/35/35 36/36/36 37/37/37 38/38/38
f 39/39/39 40/40/40 41/41/41 42/42/42
f 43/43/43 44/44/44 45/45/45 46/46/46
f 47/47/47 48/48/48 49/49/49 50/50/50
f 51/51/51 52/52/52 53/53/53
f 54/54/54 55/55/55 56/56/56 57/57/57
f 58/58/58 59/59/59 60/60/60 61/61/61
f 62/62/62 63/63/63 64/64/64 65/65/65
f 66/66/66 67/67/67 68/68/68 69/69/69
f 70/70/70 71/71/71 72/72/72
f 73/73/73 74/74/74 75/75/75 76/76/76
f 77/77/77 78/78/78 79/79/79 80/80/80
f 81/81/81 82/82/82 83/83/83 84/84/84
f 85/85/85 86/86/86 87/87/87 88/88/88
f 89/89/89 90/90/90 91/91/91 92/92/92
f 93/93/93 94/94/94 95/95/95 96/96/96
f 97/97/97 98/98/98 99/99/99 100/100/100
f 101/101/101 102/102/102 103/103/103 104/104/104
f 105/105/105 106/106/106 107/107/107 108/108/108
f 109/109/109 110/110/110 111/111/111 112/112/112
f 113/113/113 114/114/114 115/115/115 116/116/116
f 117/117/117 118/118/118 119/119/119 120/120/120
f 121/121/121 122/122/122 123/123/123 124/124/124
f 125/125/125 126/126/126 127/127/127 128/128/128
f 129/129/129 130/130/130 131/131/131 132/132/132
f 133/133/133 134/134/134 135/135/135 136/136/136
f 137/137/137 138/138/138 139/139/139 140/140/140
f 141/141/141 142/142/142 143/143/143
f 144/144/144 145/145/145 146/146/146
f 147/147/147 148/148/148 149/149/149
f 150/150/150 151/151/151 152/152/152
f 153/153/153 154/154/154 155/155/155
f 156/156/156 157/157/157 158/158/158
f 159/159/159 160/160/160 161/161/161
f 162/162/162 163/163/163 164/164/164
f 165/165/165 166/166/166 167/167/167
f 168/168/168 169/169/169 170/170/170
f 171/171/171 172/172/172 173/173/173
f 174/174/174 175/175/175 176/176/176
f 177/177/177 178/178/178 179/179/179
f 180/180/180 181/181/181 182/182/182
f 183/183/183 184/184/184 185/185/185
f 186/186/186 187/187/187 188/188/188
f 189/189/189 190/190/190 191/191/191 192/192/192
f 193/193/193 194/194/194 195/195/195 196/196/196
f 197/197/197 198/198/198 199/199/199 200/200/200
f 201/201/201 202/202/202 203/203/203 204/204/204
f 205/205/205 206/206/206 207/207/207 208/208/208
f 209/209/209 210/210/210 211/211/211 212/212/212
f 213/213/213 214/214/214 215/215/215 216/216/216
f 217/217/217 218/218/218 219/219/219 220/220/220
