# Generated by dev-env-utils/scripts/gen_utilities_water.py -- do not edit
mtllib ground_tank.mtl
o tank_large_roof_2_0
v -0.95007 1.85000 -0.79000
v 1.95007 1.85000 -0.79000
v 1.95007 2.00000 -0.79000
v -0.95007 2.00000 -0.79000
v 1.95007 1.85000 -0.79000
v 2.00000 1.85000 -0.76932
v 2.00000 2.00000 -0.76932
v 1.95007 2.00000 -0.79000
v -1.00000 1.85000 -0.76932
v -0.95007 1.85000 -0.79000
v -0.95007 2.00000 -0.79000
v -1.00000 2.00000 -0.76932
v -0.95007 2.00000 -0.79000
v 1.95007 2.00000 -0.79000
v 1.95206 2.00000 -0.80000
v -0.95206 2.00000 -0.80000
v 1.95007 2.00000 -0.79000
v 2.00000 2.00000 -0.76932
v 2.00000 2.00000 -0.78014
v 1.95206 2.00000 -0.80000
v -1.00000 2.00000 -0.76932
v -0.95007 2.00000 -0.79000
v -0.95206 2.00000 -0.80000
v -1.00000 2.00000 -0.78014
v 1.39511 1.93341 2.00000
v 1.95007 1.85000 -0.79000
v -0.95007 1.85000 -0.79000
v -0.39511 1.93341 2.00000
v 2.00000 1.92649 2.00000
v 2.00000 1.85000 -0.76932
v 1.95007 1.85000 -0.79000
v 1.39511 1.93341 2.00000
v -0.39511 1.93341 2.00000
v -0.95007 1.85000 -0.79000
v -1.00000 1.85000 -0.76932
v -1.00000 1.92649 2.00000
v -0.88244 2.87000 -0.45000
v 1.88244 2.87000 -0.45000
v 1.88244 1.87000 -0.45000
v -0.88244 1.87000 -0.45000
v 1.88244 2.87000 -0.45000
v 2.00000 2.87000 -0.40131
v 2.00000 1.87000 -0.40131
v 1.88244 1.87000 -0.45000
v -1.00000 2.87000 -0.40131
v -0.88244 2.87000 -0.45000
v -0.88244 1.87000 -0.45000
v -1.00000 1.87000 -0.40131
v -0.88244 1.87000 -0.45000
v 1.88244 1.87000 -0.45000
v 1.88244 2.87000 -0.45000
v -0.88244 2.87000 -0.45000
v 1.88244 1.87000 -0.45000
v 2.00000 1.87000 -0.40131
v 2.00000 2.87000 -0.40131
v 1.88244 2.87000 -0.45000
v -1.00000 1.87000 -0.40131
v -0.88244 1.87000 -0.45000
v -0.88244 2.87000 -0.45000
v -1.00000 2.87000 -0.40131
vt 0.00000 1.00000
vt 1.00000 1.00000
vt 1.00000 0.95000
vt 0.00000 0.95000
vt 0.00000 1.00000
vt 0.01863 1.00000
vt 0.01863 0.95000
vt 0.00000 0.95000
vt 0.98137 1.00000
vt 1.00000 1.00000
vt 1.00000 0.95000
vt 0.98137 0.95000
vt 0.00000 0.00000
vt 1.00000 0.00000
vt 1.00000 1.00000
vt 0.00000 1.00000
vt 0.00000 0.00000
vt 0.01863 0.00000
vt 0.01787 1.00000
vt 0.00000 1.00000
vt 0.98137 0.00000
vt 1.00000 0.00000
vt 1.00000 1.00000
vt 0.98213 1.00000
vt 1.00000 0.58296
vt 1.00000 1.00000
vt 0.00000 1.00000
vt 0.00000 0.58296
vt 0.55954 0.61756
vt 0.01863 1.00000
vt 0.00000 1.00000
vt 0.00000 0.58296
vt 1.00000 0.58296
vt 1.00000 1.00000
vt 0.98137 1.00000
vt 0.44046 0.61756
vt 0.00000 0.00000
vt 1.00000 0.00000
vt 1.00000 1.00000
vt 0.00000 1.00000
vt 0.00000 0.00000
vt 0.04602 0.00000
vt 0.04602 1.00000
vt 0.00000 1.00000
vt 0.95398 0.00000
vt 1.00000 0.00000
vt 1.00000 1.00000
vt 0.95398 1.00000
vt 0.00000 1.00000
vt 1.00000 1.00000
vt 1.00000 0.00000
vt 0.00000 0.00000
vt 0.00000 1.00000
vt 0.04602 1.00000
vt 0.04602 0.00000
vt 0.00000 0.00000
vt 0.95398 1.00000
vt 1.00000 1.00000
vt 1.00000 0.00000
vt 0.95398 0.00000
vn 0.19509 -0.00000 0.98079
vn -0.19509 -0.00000 0.98079
vn -0.19509 -0.00000 0.98079
vn 0.19509 -0.00000 0.98079
vn -0.19509 -0.00000 0.98079
vn -0.20209 0.00000 0.97937
vn -0.20209 0.00000 0.97937
vn -0.19509 -0.00000 0.98079
vn 0.20209 0.00000 0.97937
vn 0.19509 -0.00000 0.98079
vn 0.19509 -0.00000 0.98079
vn 0.20209 0.00000 0.97937
vn 0.00000 1.00000 0.00000
vn 0.00000 1.00000 0.00000
vn 0.00000 1.00000 0.00000
vn 0.00000 1.00000 0.00000
vn 0.00000 1.00000 0.00000
vn 0.00000 1.00000 0.00000
vn 0.00000 1.00000 0.00000
vn 0.00000 1.00000 0.00000
vn 0.00000 1.00000 0.00000
vn 0.00000 1.00000 0.00000
vn 0.00000 1.00000 0.00000
vn 0.00000 1.00000 0.00000
vn 0.00583 0.99955 -0.02931
vn 0.00583 0.99955 -0.02931
vn -0.00583 0.99955 -0.02931
vn -0.00583 0.99955 -0.02931
vn 0.01186 0.99957 -0.02681
vn 0.00603 0.99955 -0.02922
vn 0.00583 0.99955 -0.02931
vn 0.00583 0.99955 -0.02931
vn -0.00583 0.99955 -0.02931
vn -0.00583 0.99955 -0.02931
vn -0.00603 0.99955 -0.02922
vn -0.01186 0.99957 -0.02681
vn -0.19509 0.00000 -0.98079
vn 0.19509 0.00000 -0.98079
vn 0.19509 0.00000 -0.98079
vn -0.19509 0.00000 -0.98079
vn 0.19509 0.00000 -0.98079
vn 0.21239 0.00000 -0.97718
vn 0.21239 0.00000 -0.97718
vn 0.19509 0.00000 -0.98079
vn -0.21239 0.00000 -0.97718
vn -0.19509 0.00000 -0.98079
vn -0.19509 0.00000 -0.98079
vn -0.21239 0.00000 -0.97718
vn 0.19509 -0.00000 0.98079
vn -0.19509 -0.00000 0.98079
vn -0.19509 -0.00000 0.98079
vn 0.19509 -0.00000 0.98079
vn -0.19509 -0.00000 0.98079
vn -0.21239 0.00000 0.97718
vn -0.21239 0.00000 0.97718
vn -0.19509 -0.00000 0.98079
vn 0.21239 0.00000 0.97718
vn 0.19509 -0.00000 0.98079
vn 0.19509 -0.00000 0.98079
vn 0.21239 0.00000 0.97718
usemtl railing
f 37/37/37 38/38/38 39/39/39 40/40/40
f 41/41/41 42/42/42 43/43/43 44/44/44
f 45/45/45 46/46/46 47/47/47 48/48/48
f 49/49/49 50/50/50 51/51/51 52/52/52
f 53/53/53 54/54/54 55/55/55 56/56/56
f 57/57/57 58/58/58 59/59/59 60/60/60
usemtl roof
f 25/25/25 26/26/26 27/27/27 28/28/28
f 29/29/29 30/30/30 31/31/31 32/32/32
f 33/33/33 34/34/34 35/35/35 36/36/36
usemtl wall
f 1/1/1 2/2/2 3/3/3 4/4/4
f 5/5/5 6/6/6 7/7/7 8/8/8
f 9/9/9 10/10/10 11/11/11 12/12/12
f 13/13/13 14/14/14 15/15/15 16/16/16
f 17/17/17 18/18/18 19/19/19 20/20/20
f 21/21/21 22/22/22 23/23/23 24/24/24
