# Generated by dev-env-utils/scripts/gen_utilities_water.py -- do not edit
mtllib ground_tank.mtl
o tank_large_footing_0_0
v 0.39340 -0.65000 2.00000
v 2.00000 -0.65000 0.39340
v 2.00000 -1.00000 0.39340
v 0.39340 -1.00000 2.00000
v 0.67624 -0.65000 2.00000
v 2.00000 -0.65000 0.67624
v 2.00000 -0.65000 0.39340
v 0.39340 -0.65000 2.00000
vt 0.11925 0.00000
vt 0.88075 0.00000
vt 0.88075 1.00000
vt 0.11925 1.00000
vt 0.17769 0.00000
vt 0.82231 0.00000
vt 0.88075 1.00000
vt 0.11925 1.00000
vn -0.80484 0.00000 -0.59349
vn -0.59323 0.00000 -0.80503
vn -0.59323 0.00000 -0.80503
vn -0.80484 0.00000 -0.59349
vn 0.00000 1.00000 0.00000
vn 0.00000 1.00000 0.00000
vn 0.00000 1.00000 0.00000
vn 0.00000 1.00000 0.00000
usemtl concrete
f 1/1/1 2/2/2 3/3/3 4/4/4
f 5/5/5 6/6/6 7/7/7 8/8/8
