# Generated by dev-env-utils/scripts/gen_utilities_water.py -- do not edit
mtllib ground_tank.mtl
o tank_large_footing_2_0
v -0.99184 -0.65000 -1.00000
v 1.99184 -0.65000 -1.00000
v 1.99184 -1.00000 -1.00000
v -0.99184 -1.00000 -1.00000
v 1.99184 -0.65000 -1.00000
v 2.00000 -0.65000 -0.99662
v 2.00000 -1.00000 -0.99662
v 1.99184 -1.00000 -1.00000
v -1.00000 -0.65000 -0.99662
v -0.99184 -0.65000 -1.00000
v -0.99184 -1.00000 -1.00000
v -1.00000 -1.00000 -0.99662
v -0.95206 -0.65000 -0.80000
v 1.95206 -0.65000 -0.80000
v 1.99184 -0.65000 -1.00000
v -0.99184 -0.65000 -1.00000
v 1.95206 -0.65000 -0.80000
v 2.00000 -0.65000 -0.78014
v 2.00000 -0.65000 -0.99662
v 1.99184 -0.65000 -1.00000
v -1.00000 -0.65000 -0.78014
v -0.95206 -0.65000 -0.80000
v -0.99184 -0.65000 -1.00000
v -1.00000 -0.65000 -0.99662
vt 0.00000 0.00000
vt 1.00000 0.00000
vt 1.00000 1.00000
vt 0.00000 1.00000
vt 0.00000 0.00000
vt 0.00296 0.00000
vt 0.00296 1.00000
vt 0.00000 1.00000
vt 0.99704 0.00000
vt 1.00000 0.00000
vt 1.00000 1.00000
vt 0.99704 1.00000
vt 0.00000 0.00000
vt 1.00000 0.00000
vt 1.00000 1.00000
vt 0.00000 1.00000
vt 0.00000 0.00000
vt 0.01787 0.00000
vt 0.00296 1.00000
vt 0.00000 1.00000
vt 0.98213 0.00000
vt 1.00000 0.00000
vt 1.00000 1.00000
vt 0.99704 1.00000
vn -0.19509 0.00000 -0.98079
vn 0.19509 0.00000 -0.98079
vn 0.19509 0.00000 -0.98079
vn -0.19509 0.00000 -0.98079
vn 0.19509 0.00000 -0.98079
vn 0.19620 0.00000 -0.98056
vn 0.19620 0.00000 -0.98056
vn 0.19509 0.00000 -0.98079
vn -0.19620 0.00000 -0.98056
vn -0.19509 0.00000 -0.98079
vn -0.19509 0.00000 -0.98079
vn -0.19620 0.00000 -0.98056
vn 0.00000 1.00000 0.00000
vn 0.00000 1.00000 0.00000
vn 0.00000 1.00000 0.00000
vn 0.00000 1.00000 0.00000
vn 0.00000 1.00000 0.00000
vn 0.00000 1.00000 0.00000
vn 0.00000 1.00000 0.00000
vn 0.00000 1.00000 0.00000
vn 0.00000 1.00000 0.00000
vn 0.00000 1.00000 0.00000
vn 0.00000 1.00000 0.00000
vn 0.00000 1.00000 0.00000
usemtl concrete
f 1/1/1 2/2/2 3/3/3 4/4/4
f 5/5/5 6/6/6 7/7/7 8/8/8
f 9/9/9 10/10/10 11/11/11 12/12/12
f 13/13/13 14/14/14 15/15/15 16/16/16
f 17/17/17 18/18/18 19/19/19 20/20/20
f 21/21/21 22/22/22 23/23/23 24/24/24
