# Generated by dev-env-utils/scripts/gen_utilities_water.py -- do not edit
mtllib ground_tank.mtl
o tank_small_wall_0_0
v -0.53297 2.00000 2.00000
v -0.14536 2.00000 1.06425
v -0.14536 -1.00000 1.06425
v -0.53297 -1.00000 2.00000
v -0.14536 2.00000 1.06425
v 1.06425 2.00000 -0.14536
v 1.06425 -1.00000 -0.14536
v -0.14536 -1.00000 1.06425
v 1.06425 2.00000 -0.14536
v 2.00000 2.00000 -0.53297
v 2.00000 -1.00000 -0.53297
v 1.06425 -1.00000 -0.14536
vt 0.40791 0.00000
vt 1.00000 0.00000
vt 1.00000 1.00000
vt 0.40791 1.00000
vt 0.00000 0.00000
vt 1.00000 0.00000
vt 1.00000 1.00000
vt 0.00000 1.00000
vt 0.00000 0.00000
vt 0.59209 0.00000
vt 0.59209 1.00000
vt 0.00000 1.00000
vn -0.93727 0.00000 -0.34860
vn -0.83147 0.00000 -0.55557
vn -0.83147 0.00000 -0.55557
vn -0.93727 0.00000 -0.34860
vn -0.83147 0.00000 -0.55557
vn -0.55557 0.00000 -0.83147
vn -0.55557 0.00000 -0.83147
vn -0.83147 0.00000 -0.55557
vn -0.55557 0.00000 -0.83147
vn -0.34860 0.00000 -0.93727
vn -0.34860 0.00000 -0.93727
vn -0.55557 0.00000 -0.83147
usemtl wall
f 1/1/1 2/2/2 3/3/3 4/4/4
f 5/5/5 6/6/6 7/7/7 8/8/8
f 9/9/9 10/10/10 11/11/11 12/12/12
