# Generated by dev-env-utils/scripts/gen_utilities_water.py -- do not edit
mtllib ground_tank.mtl
o tank_large_wall_2_0
v -0.95206 2.00000 -0.80000
v 1.95206 2.00000 -0.80000
v 1.95206 -1.00000 -0.80000
v -0.95206 -1.00000 -0.80000
v 1.95206 2.00000 -0.80000
v 2.00000 2.00000 -0.78014
v 2.00000 -1.00000 -0.78014
v 1.95206 -1.00000 -0.80000
v -1.00000 2.00000 -0.78014
v -0.95206 2.00000 -0.80000
v -0.95206 -1.00000 -0.80000
v -1.00000 -1.00000 -0.78014
vt 0.00000 0.00000
vt 1.00000 0.00000
vt 1.00000 1.00000
vt 0.00000 1.00000
vt 0.00000 0.00000
vt 0.01787 0.00000
vt 0.01787 1.00000
vt 0.00000 1.00000
vt 0.98213 0.00000
vt 1.00000 0.00000
vt 1.00000 1.00000
vt 0.98213 1.00000
vn -0.19509 0.00000 -0.98079
vn 0.19509 0.00000 -0.98079
vn 0.19509 0.00000 -0.98079
vn -0.19509 0.00000 -0.98079
vn 0.19509 0.00000 -0.98079
vn 0.20180 0.00000 -0.97943
vn 0.20180 0.00000 -0.97943
vn 0.19509 0.00000 -0.98079
vn -0.20180 0.00000 -0.97943
vn -0.19509 0.00000 -0.98079
vn -0.19509 0.00000 -0.98079
vn -0.20180 0.00000 -0.97943
usemtl wall
f 1/1/1 2/2/2 3/3/3 4/4/4
f 5/5/5 6/6/6 7/7/7 8/8/8
f 9/9/9 10/10/10 11/11/11 12/12/12
