# Generated by dev-env-utils/scripts/gen_utilities_water.py -- do not edit
mtllib ground_tank.mtl
o tank_small_footing_1_0
v -0.39511 -0.65000 -1.00000
v 1.39511 -0.65000 -1.00000
v 1.39511 -1.00000 -1.00000
v -0.39511 -1.00000 -1.00000
v 1.39511 -0.65000 -1.00000
v 2.00000 -0.65000 -0.74944
v 2.00000 -1.00000 -0.74944
v 1.39511 -1.00000 -1.00000
v -1.00000 -0.65000 -0.74944
v -0.39511 -0.65000 -1.00000
v -0.39511 -1.00000 -1.00000
v -1.00000 -1.00000 -0.74944
v -0.35532 -0.65000 -0.80000
v 1.35532 -0.65000 -0.80000
v 1.39511 -0.65000 -1.00000
v -0.39511 -0.65000 -1.00000
v 1.35532 -0.65000 -0.80000
v 2.00000 -0.65000 -0.53297
v 2.00000 -0.65000 -0.74944
v 1.39511 -0.65000 -1.00000
v -1.00000 -0.65000 -0.53297
v -0.35532 -0.65000 -0.80000
v -0.39511 -0.65000 -1.00000
v -1.00000 -0.65000 -0.74944
vt 0.00000 0.00000
vt 1.00000 0.00000
vt 1.00000 1.00000
vt 0.00000 1.00000
vt 0.00000 0.00000
vt 0.36573 0.00000
vt 0.36573 1.00000
vt 0.00000 1.00000
vt 0.63427 0.00000
vt 1.00000 0.00000
vt 1.00000 1.00000
vt 0.63427 1.00000
vt 0.00000 0.00000
vt 1.00000 0.00000
vt 1.00000 1.00000
vt 0.00000 1.00000
vt 0.00000 0.00000
vt 0.40791 0.00000
vt 0.36573 1.00000
vt 0.00000 1.00000
vt 0.59209 0.00000
vt 1.00000 0.00000
vt 1.00000 1.00000
vt 0.63427 1.00000
vn -0.19509 0.00000 -0.98079
vn 0.19509 0.00000 -0.98079
vn 0.19509 0.00000 -0.98079
vn -0.19509 0.00000 -0.98079
vn 0.19509 0.00000 -0.98079
vn 0.33286 0.00000 -0.94298
vn 0.33286 0.00000 -0.94298
vn 0.19509 0.00000 -0.98079
vn -0.33286 0.00000 -0.94298
vn -0.19509 0.00000 -0.98079
vn -0.19509 0.00000 -0.98079
vn -0.33286 0.00000 -0.94298
vn 0.00000 1.00000 0.00000
vn 0.00000 1.00000 0.00000
vn 0.00000 1.00000 0.00000
vn 0.00000 1.00000 0.00000
vn 0.00000 1.00000 0.00000
vn 0.00000 1.00000 0.00000
vn 0.00000 1.00000 0.00000
vn 0.00000 1.00000 0.00000
vn 0.00000 1.00000 0.00000
vn 0.00000 1.00000 0.00000
vn 0.00000 1.00000 0.00000
vn 0.00000 1.00000 0.00000
usemtl concrete
f 1/1/1 2/2/2 3/3/3 4/4/4
f 5/5/5 6/6/6 7/7/7 8/8/8
f 9/9/9 10/10/10 11/11/11 12/12/12
f 13/13/13 14/14/14 15/15/15 16/16/16
f 17/17/17 18/18/18 19/19/19 20/20/20
f 21/21/21 22/22/22 23/23/23 24/24/24
