# Generated by dev-env-utils/scripts/gen_utilities_water.py -- do not edit
mtllib ground_tank.mtl
o tank_small_footing_0_0
v -0.74944 -0.65000 2.00000
v -0.31492 -0.65000 0.95095
v -0.31492 -1.00000 0.95095
v -0.74944 -1.00000 2.00000
v -0.31492 -0.65000 0.95095
v 0.95095 -0.65000 -0.31492
v 0.95095 -1.00000 -0.31492
v -0.31492 -1.00000 0.95095
v 0.95095 -0.65000 -0.31492
v 2.00000 -0.65000 -0.74944
v 2.00000 -1.00000 -0.74944
v 0.95095 -1.00000 -0.31492
v -0.53297 -0.65000 2.00000
v -0.14536 -0.65000 1.06425
v -0.31492 -0.65000 0.95095
v -0.74944 -0.65000 2.00000
v -0.14536 -0.65000 1.06425
v 1.06425 -0.65000 -0.14536
v 0.95095 -0.65000 -0.31492
v -0.31492 -0.65000 0.95095
v 1.06425 -0.65000 -0.14536
v 2.00000 -0.65000 -0.53297
v 2.00000 -0.65000 -0.74944
v 0.95095 -0.65000 -0.31492
vt 0.36573 0.00000
vt 1.00000 0.00000
vt 1.00000 1.00000
vt 0.36573 1.00000
vt 0.00000 0.00000
vt 1.00000 0.00000
vt 1.00000 1.00000
vt 0.00000 1.00000
vt 0.00000 0.00000
vt 0.63427 0.00000
vt 0.63427 1.00000
vt 0.00000 1.00000
vt 0.40791 0.00000
vt 1.00000 0.00000
vt 1.00000 1.00000
vt 0.36573 1.00000
vt 0.00000 0.00000
vt 1.00000 0.00000
vt 1.00000 1.00000
vt 0.00000 1.00000
vt 0.00000 0.00000
vt 0.59209 0.00000
vt 0.63427 1.00000
vt 0.00000 1.00000
vn -0.94298 0.00000 -0.33286
vn -0.83147 0.00000 -0.55557
vn -0.83147 0.00000 -0.55557
vn -0.94298 0.00000 -0.33286
vn -0.83147 0.00000 -0.55557
vn -0.55557 0.00000 -0.83147
vn -0.55557 0.00000 -0.83147
vn -0.83147 0.00000 -0.55557
vn -0.55557 0.00000 -0.83147
vn -0.33286 0.00000 -0.94298
vn -0.33286 0.00000 -0.94298
vn -0.55557 0.00000 -0.83147
vn 0.00000 1.00000 0.00000
vn 0.00000 1.00000 0.00000
vn 0.00000 1.00000 0.00000
vn 0.00000 1.00000 0.00000
vn 0.00000 1.00000 0.00000
vn 0.00000 1.00000 0.00000
vn 0.00000 1.00000 0.00000
vn 0.00000 1.00000 0.00000
vn 0.00000 1.00000 0.00000
vn 0.00000 1.00000 0.00000
vn 0.00000 1.00000 0.00000
vn 0.00000 1.00000 0.00000
usemtl concrete
f 1/1/1 2/2/2 3/3/3 4/4/4
f 5/5/5 6/6/6 7/7/7 8/8/8
f 9/9/9 10/10/10 11/11/11 12/12/12
f 13/13/13 14/14/14 15/15/15 16/16/16
f 17/17/17 18/18/18 19/19/19 20/20/20
f 21/21/21 22/22/22 23/23/23 24/24/24
