# Generated by dev-env-utils/scripts/gen_utilities_water.py -- do not edit
mtllib ground_tank.mtl
o tank_small_wall_1_0
v -0.35532 2.00000 -0.80000
v 1.35532 2.00000 -0.80000
v 1.35532 -1.00000 -0.80000
v -0.35532 -1.00000 -0.80000
v 1.35532 2.00000 -0.80000
v 2.00000 2.00000 -0.53297
v 2.00000 -1.00000 -0.53297
v 1.35532 -1.00000 -0.80000
v -1.00000 2.00000 -0.53297
v -0.35532 2.00000 -0.80000
v -0.35532 -1.00000 -0.80000
v -1.00000 -1.00000 -0.53297
vt 0.00000 0.00000
vt 1.00000 0.00000
vt 1.00000 1.00000
vt 0.00000 1.00000
vt 0.00000 0.00000
vt 0.40791 0.00000
vt 0.40791 1.00000
vt 0.00000 1.00000
vt 0.59209 0.00000
vt 1.00000 0.00000
vt 1.00000 1.00000
vt 0.59209 1.00000
vn -0.19509 0.00000 -0.98079
vn 0.19509 0.00000 -0.98079
vn 0.19509 0.00000 -0.98079
vn -0.19509 0.00000 -0.98079
vn 0.19509 0.00000 -0.98079
vn 0.34860 0.00000 -0.93727
vn 0.34860 0.00000 -0.93727
vn 0.19509 0.00000 -0.98079
vn -0.34860 0.00000 -0.93727
vn -0.19509 0.00000 -0.98079
vn -0.19509 0.00000 -0.98079
vn -0.34860 0.00000 -0.93727
usemtl wall
f 1/1/1 2/2/2 3/3/3 4/4/4
f 5/5/5 6/6/6 7/7/7 8/8/8
f 9/9/9 10/10/10 11/11/11 12/12/12
