# Generated by dev-env-utils/scripts/gen_utilities_water.py -- do not edit
mtllib ground_tank.mtl
o tank_small_roof_0_0
v -0.52214 1.85000 2.00000
v -0.13689 1.85000 1.06991
v -0.13689 2.00000 1.06991
v -0.52214 2.00000 2.00000
v -0.13689 1.85000 1.06991
v 1.06991 1.85000 -0.13689
v 1.06991 2.00000 -0.13689
v -0.13689 2.00000 1.06991
v 1.06991 1.85000 -0.13689
v 2.00000 1.85000 -0.52214
v 2.00000 2.00000 -0.52214
v 1.06991 2.00000 -0.13689
v -0.52214 2.00000 2.00000
v -0.13689 2.00000 1.06991
v -0.14536 2.00000 1.06425
v -0.53297 2.00000 2.00000
v -0.13689 2.00000 1.06991
v 1.06991 2.00000 -0.13689
v 1.06425 2.00000 -0.14536
v -0.14536 2.00000 1.06425
v 1.06991 2.00000 -0.13689
v 2.00000 2.00000 -0.52214
v 2.00000 2.00000 -0.53297
v 1.06425 2.00000 -0.14536
v 1.25509 1.93899 2.00000
v -0.13689 1.85000 1.06991
v -0.52214 1.85000 2.00000
v 2.00000 1.93899 1.25509
v 1.06991 1.85000 -0.13689
v -0.13689 1.85000 1.06991
v 1.25509 1.93899 2.00000
v 2.00000 1.93899 1.25509
v 1.25509 1.93899 2.00000
v 2.00000 1.96754 2.00000
v 2.00000 1.85000 -0.52214
v 1.06991 1.85000 -0.13689
v 2.00000 1.93899 1.25509
v -0.15413 2.87000 2.00000
v 0.15135 2.87000 1.26250
v 0.15135 1.87000 1.26250
v -0.15413 1.87000 2.00000
v 0.15135 2.87000 1.26250
v 1.26250 2.87000 0.15135
v 1.26250 1.87000 0.15135
v 0.15135 1.87000 1.26250
v 1.26250 2.87000 0.15135
v 2.00000 2.87000 -0.15413
v 2.00000 1.87000 -0.15413
v 1.26250 1.87000 0.15135
v -0.15413 1.87000 2.00000
v 0.15135 1.87000 1.26250
v 0.15135 2.87000 1.26250
v -0.15413 2.87000 2.00000
v 0.15135 1.87000 1.26250
v 1.26250 1.87000 0.15135
v 1.26250 2.87000 0.15135
v 0.15135 2.87000 1.26250
v 1.26250 1.87000 0.15135
v 2.00000 1.87000 -0.15413
v 2.00000 2.87000 -0.15413
v 1.26250 2.87000 0.15135
vt 0.41012 1.00000
vt 1.00000 1.00000
vt 1.00000 0.95000
vt 0.41012 0.95000
vt 0.00000 1.00000
vt 1.00000 1.00000
vt 1.00000 0.95000
vt 0.00000 0.95000
vt 0.00000 1.00000
vt 0.58988 1.00000
vt 0.58988 0.95000
vt 0.00000 0.95000
vt 0.41012 0.00000
vt 1.00000 0.00000
vt 1.00000 1.00000
vt 0.40791 1.00000
vt 0.00000 0.00000
vt 1.00000 0.00000
vt 1.00000 1.00000
vt 0.00000 1.00000
vt 0.00000 0.00000
vt 0.58988 0.00000
vt 0.59209 1.00000
vt 0.00000 1.00000
vt 1.00000 0.55503
vt 1.00000 1.00000
vt 0.41012 1.00000
vt 1.00000 0.55503
vt 1.00000 1.00000
vt 0.00000 1.00000
vt 0.00000 0.55503
vt 1.00000 0.55503
vt 0.00000 0.55503
vt 0.40054 0.41228
vt 0.58988 1.00000
vt 0.00000 1.00000
vt 0.00000 0.55503
vt 0.49201 0.00000
vt 1.00000 0.00000
vt 1.00000 1.00000
vt 0.49201 1.00000
vt 0.00000 0.00000
vt 1.00000 0.00000
vt 1.00000 1.00000
vt 0.00000 1.00000
vt 0.00000 0.00000
vt 0.50799 0.00000
vt 0.50799 1.00000
vt 0.00000 1.00000
vt 0.49201 1.00000
vt 1.00000 1.00000
vt 1.00000 0.00000
vt 0.49201 0.00000
vt 0.00000 1.00000
vt 1.00000 1.00000
vt 1.00000 0.00000
vt 0.00000 0.00000
vt 0.00000 1.00000
vt 0.50799 1.00000
vt 0.50799 0.00000
vt 0.00000 0.00000
vn 0.93696 0.00000 0.34943
vn 0.83147 -0.00000 0.55557
vn 0.83147 -0.00000 0.55557
vn 0.93696 0.00000 0.34943
vn 0.83147 -0.00000 0.55557
vn 0.55557 -0.00000 0.83147
vn 0.55557 -0.00000 0.83147
vn 0.83147 -0.00000 0.55557
vn 0.55557 -0.00000 0.83147
vn 0.34943 0.00000 0.93696
vn 0.34943 0.00000 0.93696
vn 0.55557 -0.00000 0.83147
vn 0.00000 1.00000 0.00000
vn 0.00000 1.00000 0.00000
vn 0.00000 1.00000 0.00000
vn 0.00000 1.00000 0.00000
vn 0.00000 1.00000 0.00000
vn 0.00000 1.00000 0.00000
vn 0.00000 1.00000 0.00000
vn 0.00000 1.00000 0.00000
vn 0.00000 1.00000 0.00000
vn 0.00000 1.00000 0.00000
vn 0.00000 1.00000 0.00000
vn 0.00000 1.00000 0.00000
vn -0.04500 0.99853 -0.03007
vn -0.04500 0.99853 -0.03007
vn -0.04977 0.99859 -0.01856
vn -0.03007 0.99853 -0.04500
vn -0.03007 0.99853 -0.04500
vn -0.04500 0.99853 -0.03007
vn -0.04500 0.99853 -0.03007
vn -0.03007 0.99853 -0.04500
vn -0.04500 0.99853 -0.03007
vn -0.03902 0.99859 -0.03605
vn -0.01856 0.99859 -0.04977
vn -0.03007 0.99853 -0.04500
vn -0.03007 0.99853 -0.04500
vn -0.92509 0.00000 -0.37974
vn -0.83147 0.00000 -0.55557
vn -0.83147 0.00000 -0.55557
vn -0.92509 0.00000 -0.37974
vn -0.83147 0.00000 -0.55557
vn -0.55557 0.00000 -0.83147
vn -0.55557 0.00000 -0.83147
vn -0.83147 0.00000 -0.55557
vn -0.55557 0.00000 -0.83147
vn -0.37974 0.00000 -0.92509
vn -0.37974 0.00000 -0.92509
vn -0.55557 0.00000 -0.83147
vn 0.92509 0.00000 0.37974
vn 0.83147 -0.00000 0.55557
vn 0.83147 -0.00000 0.55557
vn 0.92509 0.00000 0.37974
vn 0.83147 -0.00000 0.55557
vn 0.55557 -0.00000 0.83147
vn 0.55557 -0.00000 0.83147
vn 0.83147 -0.00000 0.55557
vn 0.55557 -0.00000 0.83147
vn 0.37974 0.00000 0.92509
vn 0.37974 0.00000 0.92509
vn 0.55557 -0.00000 0.83147
usemtl railing
f 38/38/38 39/39/39 40/40/40 41/41/41
f 42/42/42 43/43/43 44/44/44 45/45/45
f 46/46/46 47/47/47 48/48/48 49/49/49
f 50/50/50 51/51/51 52/52/52 53/53/53
f 54/54/54 55/55/55 56/56/56 57/57/57
f 58/58/58 59/59/59 60/60/60 61/61/61
usemtl roof
f 25/25/25 26/26/26 27/27/27
f 28/28/28 29/29/29 30/30/30 31/31/31
f 32/32/32 33/33/33 34/34/34
f 35/35/35 36/36/36 37/37/37
usemtl wall
f 1/1/1 2/2/2 3/3/3 4/4/4
f 5/5/5 6/6/6 7/7/7 8/8/8
f 9/9/9 10/10/10 11/11/11 12/12/12
f 13/13/13 14/14/14 15/15/15 16/16/16
f 17/17/17 18/18/18 19/19/19 20/20/20
f 21/21/21 22/22/22 23/23/23 24/24/24
