# Generated by dev-env-utils/scripts/gen_utilities_water.py -- do not edit
mtllib ground_tank.mtl
o tank_large_roof_0_0
v 0.69038 1.85000 2.00000
v 2.00000 1.85000 0.69038
v 2.00000 2.00000 0.69038
v 0.69038 2.00000 2.00000
v 0.69038 2.00000 2.00000
v 2.00000 2.00000 0.69038
v 2.00000 2.00000 0.67624
v 0.67624 2.00000 2.00000
v 2.00000 1.85000 0.69038
v 0.69038 1.85000 2.00000
v 2.00000 1.87768 2.00000
v 1.17122 2.87000 2.00000
v 2.00000 2.87000 1.17122
v 2.00000 1.87000 1.17122
v 1.17122 1.87000 2.00000
v 1.17122 1.87000 2.00000
v 2.00000 1.87000 1.17122
v 2.00000 2.87000 1.17122
v 1.17122 2.87000 2.00000
vt 0.18069 1.00000
vt 0.81931 1.00000
vt 0.81931 0.95000
vt 0.18069 0.95000
vt 0.18069 0.00000
vt 0.81931 0.00000
vt 0.82231 1.00000
vt 0.17769 1.00000
vt 0.81931 1.00000
vt 0.18069 1.00000
vt 0.43649 0.86158
vt 0.28804 0.00000
vt 0.71196 0.00000
vt 0.71196 1.00000
vt 0.28804 1.00000
vt 0.28804 1.00000
vt 0.71196 1.00000
vt 0.71196 0.00000
vt 0.28804 0.00000
vn 0.79019 0.00000 0.61286
vn 0.61236 0.00000 0.79058
vn 0.61236 0.00000 0.79058
vn 0.79019 0.00000 0.61286
vn 0.00000 1.00000 0.00000
vn 0.00000 1.00000 0.00000
vn 0.00000 1.00000 0.00000
vn 0.00000 1.00000 0.00000
vn -0.01809 0.99956 -0.02336
vn -0.02336 0.99956 -0.01809
vn -0.02125 0.99957 -0.02020
vn -0.76333 0.00000 -0.64601
vn -0.64519 0.00000 -0.76402
vn -0.64519 0.00000 -0.76402
vn -0.76333 0.00000 -0.64601
vn 0.76333 0.00000 0.64601
vn 0.64519 0.00000 0.76402
vn 0.64519 0.00000 0.76402
vn 0.76333 0.00000 0.64601
usemtl railing
f 12/12/12 13/13/13 14/14/14 15/15/15
f 16/16/16 17/17/17 18/18/18 19/19/19
usemtl roof
f 9/9/9 10/10/10 11/11/11
usemtl wall
f 1/1/1 2/2/2 3/3/3 4/4/4
f 5/5/5 6/6/6 7/7/7 8/8/8
