# Generated by dev-env-utils/scripts/gen_utilities_water.py -- do not edit
mtllib ground_tank.mtl
o tank_large_roof_2_1
v 0.79837 2.02309 2.00000
v 1.39511 1.93341 -1.00000
v -0.39511 1.93341 -1.00000
v 0.20163 2.02309 2.00000
v 1.50227 2.01504 2.00000
v 2.00000 1.98877 1.25509
v 2.00000 1.92649 -1.00000
v 1.39511 1.93341 -1.00000
v 1.50227 2.01504 2.00000
v 1.39511 1.93341 -1.00000
v 0.79837 2.02309 2.00000
v 2.00000 2.00452 2.00000
v 2.00000 1.98877 1.25509
v 1.50227 2.01504 2.00000
v -0.50227 2.01504 2.00000
v -1.00000 1.98877 1.25509
v -1.00000 2.00452 2.00000
v 0.20163 2.02309 2.00000
v -0.39511 1.93341 -1.00000
v -1.00000 1.92649 -1.00000
v -1.00000 1.98877 1.25509
v 0.20163 2.02309 2.00000
v -1.00000 1.98877 1.25509
v -0.50227 2.01504 2.00000
vt 1.00000 0.13453
vt 1.00000 0.58296
vt 0.00000 0.58296
vt 0.00000 0.13453
vt 1.00000 0.17479
vt 1.00000 0.30614
vt 0.55954 0.61756
vt 0.00000 0.58296
vt 1.00000 0.17479
vt 0.00000 0.58296
vt 0.00000 0.13453
vt 0.59946 0.22740
vt 0.00000 0.30614
vt 0.00000 0.17479
vt 1.00000 0.17479
vt 1.00000 0.30614
vt 0.40054 0.22740
vt 1.00000 0.13453
vt 1.00000 0.58296
vt 0.44046 0.61756
vt 0.00000 0.30614
vt 1.00000 0.13453
vt 0.00000 0.30614
vt 0.00000 0.17479
vn 0.00583 0.99955 -0.02931
vn 0.00583 0.99955 -0.02931
vn -0.00583 0.99955 -0.02931
vn -0.00583 0.99955 -0.02931
vn 0.01660 0.99955 -0.02485
vn 0.01660 0.99955 -0.02485
vn 0.01186 0.99957 -0.02681
vn 0.00583 0.99955 -0.02931
vn 0.01660 0.99955 -0.02485
vn 0.00583 0.99955 -0.02931
vn 0.00583 0.99955 -0.02931
vn 0.02154 0.99957 -0.01990
vn 0.01660 0.99955 -0.02485
vn 0.01660 0.99955 -0.02485
vn -0.01660 0.99955 -0.02485
vn -0.01660 0.99955 -0.02485
vn -0.02154 0.99957 -0.01990
vn -0.00583 0.99955 -0.02931
vn -0.00583 0.99955 -0.02931
vn -0.01186 0.99957 -0.02681
vn -0.01660 0.99955 -0.02485
vn -0.00583 0.99955 -0.02931
vn -0.01660 0.99955 -0.02485
vn -0.01660 0.99955 -0.02485
usemtl roof
f 1/1/1 2/2/2 3/3/3 4/4/4
f 5/5/5 6/6/6 7/7/7 8/8/8
f 9/9/9 10/10/10 11/11/11
f 12/12/12 13/13/13 14/14/14
f 15/15/15 16/16/16 17/17/17
f 18/18/18 19/19/19 20/20/20 21/21/21
f 22/22/22 23/23/23 24/24/24
