# Generated by dev-env-utils/scripts/gen_utilities_water.py -- do not edit
mtllib ground_tank.mtl
o tank_large_wall_3_0
v -1.00000 2.00000 -0.78014
v 1.63512 2.00000 0.31136
v 1.63512 -1.00000 0.31136
v -1.00000 -1.00000 -0.78014
v 1.63512 2.00000 0.31136
v 2.00000 2.00000 0.67624
v 2.00000 -1.00000 0.67624
v 1.63512 -1.00000 0.31136
vt 0.01787 0.00000
vt 1.00000 0.00000
vt 1.00000 1.00000
vt 0.01787 1.00000
vt 0.00000 0.00000
vt 0.17769 0.00000
vt 0.17769 1.00000
vt 0.00000 1.00000
vn 0.20180 0.00000 -0.97943
vn 0.55557 0.00000 -0.83147
vn 0.55557 0.00000 -0.83147
vn 0.20180 0.00000 -0.97943
vn 0.55557 0.00000 -0.83147
vn 0.61143 0.00000 -0.79130
vn 0.61143 0.00000 -0.79130
vn 0.55557 0.00000 -0.83147
usemtl wall
f 1/1/1 2/2/2 3/3/3 4/4/4
f 5/5/5 6/6/6 7/7/7 8/8/8
