# Procedurally generated by dev-env-utils/scripts/gen_firealarm_obj.py
# Edwards EST 202-8A wall strobe
mtllib edwards_est_202_8a_strobe.mtl
o edwards_est_202_8a_strobe
v 0.500000 0.543750 0.962500
v 0.222026 0.986477 0.962500
v 0.232143 0.988082 0.962500
v 0.500000 0.543750 0.962500
v 0.212900 0.981822 0.962500
v 0.222026 0.986477 0.962500
v 0.500000 0.543750 0.962500
v 0.205657 0.974571 0.962500
v 0.212900 0.981822 0.962500
v 0.500000 0.543750 0.962500
v 0.201007 0.965434 0.962500
v 0.205657 0.974571 0.962500
v 0.500000 0.543750 0.962500
v 0.199405 0.955306 0.962500
v 0.201007 0.965434 0.962500
v 0.500000 0.543750 0.962500
v 0.199405 0.132194 0.962500
v 0.199405 0.955306 0.962500
v 0.500000 0.543750 0.962500
v 0.201007 0.122066 0.962500
v 0.199405 0.132194 0.962500
v 0.500000 0.543750 0.962500
v 0.205657 0.112929 0.962500
v 0.201007 0.122066 0.962500
v 0.500000 0.543750 0.962500
v 0.212900 0.105678 0.962500
v 0.205657 0.112929 0.962500
v 0.500000 0.543750 0.962500
v 0.222026 0.101023 0.962500
v 0.212900 0.105678 0.962500
v 0.500000 0.543750 0.962500
v 0.232143 0.099418 0.962500
v 0.222026 0.101023 0.962500
v 0.500000 0.543750 0.962500
v 0.767857 0.099418 0.962500
v 0.232143 0.099418 0.962500
v 0.500000 0.543750 0.962500
v 0.777974 0.101023 0.962500
v 0.767857 0.099418 0.962500
v 0.500000 0.543750 0.962500
v 0.787100 0.105678 0.962500
v 0.777974 0.101023 0.962500
v 0.500000 0.543750 0.962500
v 0.794343 0.112929 0.962500
v 0.787100 0.105678 0.962500
v 0.500000 0.543750 0.962500
v 0.798993 0.122066 0.962500
v 0.794343 0.112929 0.962500
v 0.500000 0.543750 0.962500
v 0.800595 0.132194 0.962500
v 0.798993 0.122066 0.962500
v 0.500000 0.543750 0.962500
v 0.800595 0.955306 0.962500
v 0.800595 0.132194 0.962500
v 0.500000 0.543750 0.962500
v 0.798993 0.965434 0.962500
v 0.800595 0.955306 0.962500
v 0.500000 0.543750 0.962500
v 0.794343 0.974571 0.962500
v 0.798993 0.965434 0.962500
v 0.500000 0.543750 0.962500
v 0.787100 0.981822 0.962500
v 0.794343 0.974571 0.962500
v 0.500000 0.543750 0.962500
v 0.777974 0.986477 0.962500
v 0.787100 0.981822 0.962500
v 0.500000 0.543750 0.962500
v 0.767857 0.988082 0.962500
v 0.777974 0.986477 0.962500
v 0.500000 0.543750 0.962500
v 0.232143 0.988082 0.962500
v 0.767857 0.988082 0.962500
v 0.232143 0.988082 0.962500
v 0.222026 0.986477 0.962500
v 0.222026 0.986477 1.000000
v 0.232143 0.988082 0.962500
v 0.222026 0.986477 1.000000
v 0.232143 0.988082 1.000000
v 0.222026 0.986477 0.962500
v 0.212900 0.981822 0.962500
v 0.212900 0.981822 1.000000
v 0.222026 0.986477 0.962500
v 0.212900 0.981822 1.000000
v 0.222026 0.986477 1.000000
v 0.212900 0.981822 0.962500
v 0.205657 0.974571 0.962500
v 0.205657 0.974571 1.000000
v 0.212900 0.981822 0.962500
v 0.205657 0.974571 1.000000
v 0.212900 0.981822 1.000000
v 0.205657 0.974571 0.962500
v 0.201007 0.965434 0.962500
v 0.201007 0.965434 1.000000
v 0.205657 0.974571 0.962500
v 0.201007 0.965434 1.000000
v 0.205657 0.974571 1.000000
v 0.201007 0.965434 0.962500
v 0.199405 0.955306 0.962500
v 0.199405 0.955306 1.000000
v 0.201007 0.965434 0.962500
v 0.199405 0.955306 1.000000
v 0.201007 0.965434 1.000000
v 0.199405 0.955306 0.962500
v 0.199405 0.132194 0.962500
v 0.199405 0.132194 1.000000
v 0.199405 0.955306 0.962500
v 0.199405 0.132194 1.000000
v 0.199405 0.955306 1.000000
v 0.199405 0.132194 0.962500
v 0.201007 0.122066 0.962500
v 0.201007 0.122066 1.000000
v 0.199405 0.132194 0.962500
v 0.201007 0.122066 1.000000
v 0.199405 0.132194 1.000000
v 0.201007 0.122066 0.962500
v 0.205657 0.112929 0.962500
v 0.205657 0.112929 1.000000
v 0.201007 0.122066 0.962500
v 0.205657 0.112929 1.000000
v 0.201007 0.122066 1.000000
v 0.205657 0.112929 0.962500
v 0.212900 0.105678 0.962500
v 0.212900 0.105678 1.000000
v 0.205657 0.112929 0.962500
v 0.212900 0.105678 1.000000
v 0.205657 0.112929 1.000000
v 0.212900 0.105678 0.962500
v 0.222026 0.101023 0.962500
v 0.222026 0.101023 1.000000
v 0.212900 0.105678 0.962500
v 0.222026 0.101023 1.000000
v 0.212900 0.105678 1.000000
v 0.222026 0.101023 0.962500
v 0.232143 0.099418 0.962500
v 0.232143 0.099418 1.000000
v 0.222026 0.101023 0.962500
v 0.232143 0.099418 1.000000
v 0.222026 0.101023 1.000000
v 0.232143 0.099418 0.962500
v 0.767857 0.099418 0.962500
v 0.767857 0.099418 1.000000
v 0.232143 0.099418 0.962500
v 0.767857 0.099418 1.000000
v 0.232143 0.099418 1.000000
v 0.767857 0.099418 0.962500
v 0.777974 0.101023 0.962500
v 0.777974 0.101023 1.000000
v 0.767857 0.099418 0.962500
v 0.777974 0.101023 1.000000
v 0.767857 0.099418 1.000000
v 0.777974 0.101023 0.962500
v 0.787100 0.105678 0.962500
v 0.787100 0.105678 1.000000
v 0.777974 0.101023 0.962500
v 0.787100 0.105678 1.000000
v 0.777974 0.101023 1.000000
v 0.787100 0.105678 0.962500
v 0.794343 0.112929 0.962500
v 0.794343 0.112929 1.000000
v 0.787100 0.105678 0.962500
v 0.794343 0.112929 1.000000
v 0.787100 0.105678 1.000000
v 0.794343 0.112929 0.962500
v 0.798993 0.122066 0.962500
v 0.798993 0.122066 1.000000
v 0.794343 0.112929 0.962500
v 0.798993 0.122066 1.000000
v 0.794343 0.112929 1.000000
v 0.798993 0.122066 0.962500
v 0.800595 0.132194 0.962500
v 0.800595 0.132194 1.000000
v 0.798993 0.122066 0.962500
v 0.800595 0.132194 1.000000
v 0.798993 0.122066 1.000000
v 0.800595 0.132194 0.962500
v 0.800595 0.955306 0.962500
v 0.800595 0.955306 1.000000
v 0.800595 0.132194 0.962500
v 0.800595 0.955306 1.000000
v 0.800595 0.132194 1.000000
v 0.800595 0.955306 0.962500
v 0.798993 0.965434 0.962500
v 0.798993 0.965434 1.000000
v 0.800595 0.955306 0.962500
v 0.798993 0.965434 1.000000
v 0.800595 0.955306 1.000000
v 0.798993 0.965434 0.962500
v 0.794343 0.974571 0.962500
v 0.794343 0.974571 1.000000
v 0.798993 0.965434 0.962500
v 0.794343 0.974571 1.000000
v 0.798993 0.965434 1.000000
v 0.794343 0.974571 0.962500
v 0.787100 0.981822 0.962500
v 0.787100 0.981822 1.000000
v 0.794343 0.974571 0.962500
v 0.787100 0.981822 1.000000
v 0.794343 0.974571 1.000000
v 0.787100 0.981822 0.962500
v 0.777974 0.986477 0.962500
v 0.777974 0.986477 1.000000
v 0.787100 0.981822 0.962500
v 0.777974 0.986477 1.000000
v 0.787100 0.981822 1.000000
v 0.777974 0.986477 0.962500
v 0.767857 0.988082 0.962500
v 0.767857 0.988082 1.000000
v 0.777974 0.986477 0.962500
v 0.767857 0.988082 1.000000
v 0.777974 0.986477 1.000000
v 0.767857 0.988082 0.962500
v 0.232143 0.988082 0.962500
v 0.232143 0.988082 1.000000
v 0.767857 0.988082 0.962500
v 0.232143 0.988082 1.000000
v 0.767857 0.988082 1.000000
v 0.500000 0.543750 1.000000
v 0.232143 0.988082 1.000000
v 0.222026 0.986477 1.000000
v 0.500000 0.543750 1.000000
v 0.222026 0.986477 1.000000
v 0.212900 0.981822 1.000000
v 0.500000 0.543750 1.000000
v 0.212900 0.981822 1.000000
v 0.205657 0.974571 1.000000
v 0.500000 0.543750 1.000000
v 0.205657 0.974571 1.000000
v 0.201007 0.965434 1.000000
v 0.500000 0.543750 1.000000
v 0.201007 0.965434 1.000000
v 0.199405 0.955306 1.000000
v 0.500000 0.543750 1.000000
v 0.199405 0.955306 1.000000
v 0.199405 0.132194 1.000000
v 0.500000 0.543750 1.000000
v 0.199405 0.132194 1.000000
v 0.201007 0.122066 1.000000
v 0.500000 0.543750 1.000000
v 0.201007 0.122066 1.000000
v 0.205657 0.112929 1.000000
v 0.500000 0.543750 1.000000
v 0.205657 0.112929 1.000000
v 0.212900 0.105678 1.000000
v 0.500000 0.543750 1.000000
v 0.212900 0.105678 1.000000
v 0.222026 0.101023 1.000000
v 0.500000 0.543750 1.000000
v 0.222026 0.101023 1.000000
v 0.232143 0.099418 1.000000
v 0.500000 0.543750 1.000000
v 0.232143 0.099418 1.000000
v 0.767857 0.099418 1.000000
v 0.500000 0.543750 1.000000
v 0.767857 0.099418 1.000000
v 0.777974 0.101023 1.000000
v 0.500000 0.543750 1.000000
v 0.777974 0.101023 1.000000
v 0.787100 0.105678 1.000000
v 0.500000 0.543750 1.000000
v 0.787100 0.105678 1.000000
v 0.794343 0.112929 1.000000
v 0.500000 0.543750 1.000000
v 0.794343 0.112929 1.000000
v 0.798993 0.122066 1.000000
v 0.500000 0.543750 1.000000
v 0.798993 0.122066 1.000000
v 0.800595 0.132194 1.000000
v 0.500000 0.543750 1.000000
v 0.800595 0.132194 1.000000
v 0.800595 0.955306 1.000000
v 0.500000 0.543750 1.000000
v 0.800595 0.955306 1.000000
v 0.798993 0.965434 1.000000
v 0.500000 0.543750 1.000000
v 0.798993 0.965434 1.000000
v 0.794343 0.974571 1.000000
v 0.500000 0.543750 1.000000
v 0.794343 0.974571 1.000000
v 0.787100 0.981822 1.000000
v 0.500000 0.543750 1.000000
v 0.787100 0.981822 1.000000
v 0.777974 0.986477 1.000000
v 0.500000 0.543750 1.000000
v 0.777974 0.986477 1.000000
v 0.767857 0.988082 1.000000
v 0.500000 0.543750 1.000000
v 0.767857 0.988082 1.000000
v 0.232143 0.988082 1.000000
v 0.505580 0.536301 0.787500
v 0.350354 0.917494 0.787500
v 0.358631 0.918806 0.787500
v 0.505580 0.536301 0.787500
v 0.342887 0.913685 0.787500
v 0.350354 0.917494 0.787500
v 0.505580 0.536301 0.787500
v 0.336961 0.907752 0.787500
v 0.342887 0.913685 0.787500
v 0.505580 0.536301 0.787500
v 0.333156 0.900276 0.787500
v 0.336961 0.907752 0.787500
v 0.505580 0.536301 0.787500
v 0.331845 0.891990 0.787500
v 0.333156 0.900276 0.787500
v 0.505580 0.536301 0.787500
v 0.331845 0.180612 0.787500
v 0.331845 0.891990 0.787500
v 0.505580 0.536301 0.787500
v 0.333156 0.172326 0.787500
v 0.331845 0.180612 0.787500
v 0.505580 0.536301 0.787500
v 0.336961 0.164850 0.787500
v 0.333156 0.172326 0.787500
v 0.505580 0.536301 0.787500
v 0.342887 0.158917 0.787500
v 0.336961 0.164850 0.787500
v 0.505580 0.536301 0.787500
v 0.350354 0.155108 0.787500
v 0.342887 0.158917 0.787500
v 0.505580 0.536301 0.787500
v 0.358631 0.153796 0.787500
v 0.350354 0.155108 0.787500
v 0.505580 0.536301 0.787500
v 0.652530 0.153796 0.787500
v 0.358631 0.153796 0.787500
v 0.505580 0.536301 0.787500
v 0.660807 0.155108 0.787500
v 0.652530 0.153796 0.787500
v 0.505580 0.536301 0.787500
v 0.668274 0.158917 0.787500
v 0.660807 0.155108 0.787500
v 0.505580 0.536301 0.787500
v 0.674200 0.164850 0.787500
v 0.668274 0.158917 0.787500
v 0.505580 0.536301 0.787500
v 0.678004 0.172326 0.787500
v 0.674200 0.164850 0.787500
v 0.505580 0.536301 0.787500
v 0.679315 0.180612 0.787500
v 0.678004 0.172326 0.787500
v 0.505580 0.536301 0.787500
v 0.679315 0.891990 0.787500
v 0.679315 0.180612 0.787500
v 0.505580 0.536301 0.787500
v 0.678004 0.900276 0.787500
v 0.679315 0.891990 0.787500
v 0.505580 0.536301 0.787500
v 0.674200 0.907752 0.787500
v 0.678004 0.900276 0.787500
v 0.505580 0.536301 0.787500
v 0.668274 0.913685 0.787500
v 0.674200 0.907752 0.787500
v 0.505580 0.536301 0.787500
v 0.660807 0.917494 0.787500
v 0.668274 0.913685 0.787500
v 0.505580 0.536301 0.787500
v 0.652530 0.918806 0.787500
v 0.660807 0.917494 0.787500
v 0.505580 0.536301 0.787500
v 0.358631 0.918806 0.787500
v 0.652530 0.918806 0.787500
v 0.358631 0.918806 0.787500
v 0.350354 0.917494 0.787500
v 0.350354 0.917494 0.962500
v 0.358631 0.918806 0.787500
v 0.350354 0.917494 0.962500
v 0.358631 0.918806 0.962500
v 0.350354 0.917494 0.787500
v 0.342887 0.913685 0.787500
v 0.342887 0.913685 0.962500
v 0.350354 0.917494 0.787500
v 0.342887 0.913685 0.962500
v 0.350354 0.917494 0.962500
v 0.342887 0.913685 0.787500
v 0.336961 0.907752 0.787500
v 0.336961 0.907752 0.962500
v 0.342887 0.913685 0.787500
v 0.336961 0.907752 0.962500
v 0.342887 0.913685 0.962500
v 0.336961 0.907752 0.787500
v 0.333156 0.900276 0.787500
v 0.333156 0.900276 0.962500
v 0.336961 0.907752 0.787500
v 0.333156 0.900276 0.962500
v 0.336961 0.907752 0.962500
v 0.333156 0.900276 0.787500
v 0.331845 0.891990 0.787500
v 0.331845 0.891990 0.962500
v 0.333156 0.900276 0.787500
v 0.331845 0.891990 0.962500
v 0.333156 0.900276 0.962500
v 0.331845 0.891990 0.787500
v 0.331845 0.180612 0.787500
v 0.331845 0.180612 0.962500
v 0.331845 0.891990 0.787500
v 0.331845 0.180612 0.962500
v 0.331845 0.891990 0.962500
v 0.331845 0.180612 0.787500
v 0.333156 0.172326 0.787500
v 0.333156 0.172326 0.962500
v 0.331845 0.180612 0.787500
v 0.333156 0.172326 0.962500
v 0.331845 0.180612 0.962500
v 0.333156 0.172326 0.787500
v 0.336961 0.164850 0.787500
v 0.336961 0.164850 0.962500
v 0.333156 0.172326 0.787500
v 0.336961 0.164850 0.962500
v 0.333156 0.172326 0.962500
v 0.336961 0.164850 0.787500
v 0.342887 0.158917 0.787500
v 0.342887 0.158917 0.962500
v 0.336961 0.164850 0.787500
v 0.342887 0.158917 0.962500
v 0.336961 0.164850 0.962500
v 0.342887 0.158917 0.787500
v 0.350354 0.155108 0.787500
v 0.350354 0.155108 0.962500
v 0.342887 0.158917 0.787500
v 0.350354 0.155108 0.962500
v 0.342887 0.158917 0.962500
v 0.350354 0.155108 0.787500
v 0.358631 0.153796 0.787500
v 0.358631 0.153796 0.962500
v 0.350354 0.155108 0.787500
v 0.358631 0.153796 0.962500
v 0.350354 0.155108 0.962500
v 0.358631 0.153796 0.787500
v 0.652530 0.153796 0.787500
v 0.652530 0.153796 0.962500
v 0.358631 0.153796 0.787500
v 0.652530 0.153796 0.962500
v 0.358631 0.153796 0.962500
v 0.652530 0.153796 0.787500
v 0.660807 0.155108 0.787500
v 0.660807 0.155108 0.962500
v 0.652530 0.153796 0.787500
v 0.660807 0.155108 0.962500
v 0.652530 0.153796 0.962500
v 0.660807 0.155108 0.787500
v 0.668274 0.158917 0.787500
v 0.668274 0.158917 0.962500
v 0.660807 0.155108 0.787500
v 0.668274 0.158917 0.962500
v 0.660807 0.155108 0.962500
v 0.668274 0.158917 0.787500
v 0.674200 0.164850 0.787500
v 0.674200 0.164850 0.962500
v 0.668274 0.158917 0.787500
v 0.674200 0.164850 0.962500
v 0.668274 0.158917 0.962500
v 0.674200 0.164850 0.787500
v 0.678004 0.172326 0.787500
v 0.678004 0.172326 0.962500
v 0.674200 0.164850 0.787500
v 0.678004 0.172326 0.962500
v 0.674200 0.164850 0.962500
v 0.678004 0.172326 0.787500
v 0.679315 0.180612 0.787500
v 0.679315 0.180612 0.962500
v 0.678004 0.172326 0.787500
v 0.679315 0.180612 0.962500
v 0.678004 0.172326 0.962500
v 0.679315 0.180612 0.787500
v 0.679315 0.891990 0.787500
v 0.679315 0.891990 0.962500
v 0.679315 0.180612 0.787500
v 0.679315 0.891990 0.962500
v 0.679315 0.180612 0.962500
v 0.679315 0.891990 0.787500
v 0.678004 0.900276 0.787500
v 0.678004 0.900276 0.962500
v 0.679315 0.891990 0.787500
v 0.678004 0.900276 0.962500
v 0.679315 0.891990 0.962500
v 0.678004 0.900276 0.787500
v 0.674200 0.907752 0.787500
v 0.674200 0.907752 0.962500
v 0.678004 0.900276 0.787500
v 0.674200 0.907752 0.962500
v 0.678004 0.900276 0.962500
v 0.674200 0.907752 0.787500
v 0.668274 0.913685 0.787500
v 0.668274 0.913685 0.962500
v 0.674200 0.907752 0.787500
v 0.668274 0.913685 0.962500
v 0.674200 0.907752 0.962500
v 0.668274 0.913685 0.787500
v 0.660807 0.917494 0.787500
v 0.660807 0.917494 0.962500
v 0.668274 0.913685 0.787500
v 0.660807 0.917494 0.962500
v 0.668274 0.913685 0.962500
v 0.660807 0.917494 0.787500
v 0.652530 0.918806 0.787500
v 0.652530 0.918806 0.962500
v 0.660807 0.917494 0.787500
v 0.652530 0.918806 0.962500
v 0.660807 0.917494 0.962500
v 0.652530 0.918806 0.787500
v 0.358631 0.918806 0.787500
v 0.358631 0.918806 0.962500
v 0.652530 0.918806 0.787500
v 0.358631 0.918806 0.962500
v 0.652530 0.918806 0.962500
v 0.634077 0.174057 0.787500
v 0.640548 0.174909 0.714375
v 0.640548 0.174909 0.787500
v 0.634077 0.174057 0.787500
v 0.634077 0.174057 0.714375
v 0.640548 0.174909 0.714375
v 0.640548 0.174909 0.787500
v 0.646577 0.177407 0.714375
v 0.646577 0.177407 0.787500
v 0.640548 0.174909 0.787500
v 0.640548 0.174909 0.714375
v 0.646577 0.177407 0.714375
v 0.646577 0.177407 0.787500
v 0.651755 0.181379 0.714375
v 0.651755 0.181379 0.787500
v 0.646577 0.177407 0.787500
v 0.646577 0.177407 0.714375
v 0.651755 0.181379 0.714375
v 0.651755 0.181379 0.787500
v 0.655728 0.186557 0.714375
v 0.655728 0.186557 0.787500
v 0.651755 0.181379 0.787500
v 0.651755 0.181379 0.714375
v 0.655728 0.186557 0.714375
v 0.655728 0.186557 0.787500
v 0.658226 0.192587 0.714375
v 0.658226 0.192587 0.787500
v 0.655728 0.186557 0.787500
v 0.655728 0.186557 0.714375
v 0.658226 0.192587 0.714375
v 0.658226 0.192587 0.787500
v 0.659077 0.199057 0.714375
v 0.659077 0.199057 0.787500
v 0.658226 0.192587 0.787500
v 0.658226 0.192587 0.714375
v 0.659077 0.199057 0.714375
v 0.659077 0.199057 0.787500
v 0.659077 0.873545 0.714375
v 0.659077 0.873545 0.787500
v 0.659077 0.199057 0.787500
v 0.659077 0.199057 0.714375
v 0.659077 0.873545 0.714375
v 0.659077 0.873545 0.787500
v 0.658226 0.880015 0.714375
v 0.658226 0.880015 0.787500
v 0.659077 0.873545 0.787500
v 0.659077 0.873545 0.714375
v 0.658226 0.880015 0.714375
v 0.658226 0.880015 0.787500
v 0.655728 0.886045 0.714375
v 0.655728 0.886045 0.787500
v 0.658226 0.880015 0.787500
v 0.658226 0.880015 0.714375
v 0.655728 0.886045 0.714375
v 0.655728 0.886045 0.787500
v 0.651755 0.891223 0.714375
v 0.651755 0.891223 0.787500
v 0.655728 0.886045 0.787500
v 0.655728 0.886045 0.714375
v 0.651755 0.891223 0.714375
v 0.651755 0.891223 0.787500
v 0.646577 0.895196 0.714375
v 0.646577 0.895196 0.787500
v 0.651755 0.891223 0.787500
v 0.651755 0.891223 0.714375
v 0.646577 0.895196 0.714375
v 0.646577 0.895196 0.787500
v 0.640548 0.897693 0.714375
v 0.640548 0.897693 0.787500
v 0.646577 0.895196 0.787500
v 0.646577 0.895196 0.714375
v 0.640548 0.897693 0.714375
v 0.640548 0.897693 0.787500
v 0.634077 0.898545 0.714375
v 0.634077 0.898545 0.787500
v 0.640548 0.897693 0.787500
v 0.640548 0.897693 0.714375
v 0.634077 0.898545 0.714375
v 0.634077 0.898545 0.787500
v 0.377083 0.898545 0.714375
v 0.377083 0.898545 0.787500
v 0.634077 0.898545 0.787500
v 0.634077 0.898545 0.714375
v 0.377083 0.898545 0.714375
v 0.377083 0.898545 0.787500
v 0.370613 0.897693 0.714375
v 0.370613 0.897693 0.787500
v 0.377083 0.898545 0.787500
v 0.377083 0.898545 0.714375
v 0.370613 0.897693 0.714375
v 0.370613 0.897693 0.787500
v 0.364583 0.895196 0.714375
v 0.364583 0.895196 0.787500
v 0.370613 0.897693 0.787500
v 0.370613 0.897693 0.714375
v 0.364583 0.895196 0.714375
v 0.364583 0.895196 0.787500
v 0.359406 0.891223 0.714375
v 0.359406 0.891223 0.787500
v 0.364583 0.895196 0.787500
v 0.364583 0.895196 0.714375
v 0.359406 0.891223 0.714375
v 0.359406 0.891223 0.787500
v 0.355433 0.886045 0.714375
v 0.355433 0.886045 0.787500
v 0.359406 0.891223 0.787500
v 0.359406 0.891223 0.714375
v 0.355433 0.886045 0.714375
v 0.355433 0.886045 0.787500
v 0.352935 0.880015 0.714375
v 0.352935 0.880015 0.787500
v 0.355433 0.886045 0.787500
v 0.355433 0.886045 0.714375
v 0.352935 0.880015 0.714375
v 0.352935 0.880015 0.787500
v 0.352083 0.873545 0.714375
v 0.352083 0.873545 0.787500
v 0.352935 0.880015 0.787500
v 0.352935 0.880015 0.714375
v 0.352083 0.873545 0.714375
v 0.352083 0.873545 0.787500
v 0.352083 0.199057 0.714375
v 0.352083 0.199057 0.787500
v 0.352083 0.873545 0.787500
v 0.352083 0.873545 0.714375
v 0.352083 0.199057 0.714375
v 0.352083 0.199057 0.787500
v 0.352935 0.192587 0.714375
v 0.352935 0.192587 0.787500
v 0.352083 0.199057 0.787500
v 0.352083 0.199057 0.714375
v 0.352935 0.192587 0.714375
v 0.352935 0.192587 0.787500
v 0.355433 0.186557 0.714375
v 0.355433 0.186557 0.787500
v 0.352935 0.192587 0.787500
v 0.352935 0.192587 0.714375
v 0.355433 0.186557 0.714375
v 0.355433 0.186557 0.787500
v 0.359406 0.181379 0.714375
v 0.359406 0.181379 0.787500
v 0.355433 0.186557 0.787500
v 0.355433 0.186557 0.714375
v 0.359406 0.181379 0.714375
v 0.359406 0.181379 0.787500
v 0.364583 0.177407 0.714375
v 0.364583 0.177407 0.787500
v 0.359406 0.181379 0.787500
v 0.359406 0.181379 0.714375
v 0.364583 0.177407 0.714375
v 0.364583 0.177407 0.787500
v 0.370613 0.174909 0.714375
v 0.370613 0.174909 0.787500
v 0.364583 0.177407 0.787500
v 0.364583 0.177407 0.714375
v 0.370613 0.174909 0.714375
v 0.370613 0.174909 0.787500
v 0.377083 0.174057 0.714375
v 0.377083 0.174057 0.787500
v 0.370613 0.174909 0.787500
v 0.370613 0.174909 0.714375
v 0.377083 0.174057 0.714375
v 0.377083 0.174057 0.787500
v 0.634077 0.174057 0.714375
v 0.634077 0.174057 0.787500
v 0.377083 0.174057 0.787500
v 0.377083 0.174057 0.714375
v 0.634077 0.174057 0.714375
v 0.634077 0.174057 0.714375
v 0.633988 0.192474 0.675000
v 0.640548 0.174909 0.714375
v 0.634077 0.174057 0.714375
v 0.627809 0.191728 0.675000
v 0.633988 0.192474 0.675000
v 0.640548 0.174909 0.714375
v 0.639721 0.194858 0.675000
v 0.646577 0.177407 0.714375
v 0.640548 0.174909 0.714375
v 0.633988 0.192474 0.675000
v 0.639721 0.194858 0.675000
v 0.646577 0.177407 0.714375
v 0.644615 0.198717 0.675000
v 0.651755 0.181379 0.714375
v 0.646577 0.177407 0.714375
v 0.639721 0.194858 0.675000
v 0.644615 0.198717 0.675000
v 0.651755 0.181379 0.714375
v 0.648331 0.203787 0.675000
v 0.655728 0.186557 0.714375
v 0.651755 0.181379 0.714375
v 0.644615 0.198717 0.675000
v 0.648331 0.203787 0.675000
v 0.655728 0.186557 0.714375
v 0.650615 0.209723 0.675000
v 0.658226 0.192587 0.714375
v 0.655728 0.186557 0.714375
v 0.648331 0.203787 0.675000
v 0.650615 0.209723 0.675000
v 0.658226 0.192587 0.714375
v 0.651310 0.216123 0.675000
v 0.659077 0.199057 0.714375
v 0.658226 0.192587 0.714375
v 0.650615 0.209723 0.675000
v 0.651310 0.216123 0.675000
v 0.659077 0.199057 0.714375
v 0.651310 0.856479 0.675000
v 0.659077 0.873545 0.714375
v 0.659077 0.199057 0.714375
v 0.651310 0.216123 0.675000
v 0.651310 0.856479 0.675000
v 0.659077 0.873545 0.714375
v 0.650615 0.862879 0.675000
v 0.658226 0.880015 0.714375
v 0.659077 0.873545 0.714375
v 0.651310 0.856479 0.675000
v 0.650615 0.862879 0.675000
v 0.658226 0.880015 0.714375
v 0.648331 0.868816 0.675000
v 0.655728 0.886045 0.714375
v 0.658226 0.880015 0.714375
v 0.650615 0.862879 0.675000
v 0.648331 0.868816 0.675000
v 0.655728 0.886045 0.714375
v 0.644615 0.873885 0.675000
v 0.651755 0.891223 0.714375
v 0.655728 0.886045 0.714375
v 0.648331 0.868816 0.675000
v 0.644615 0.873885 0.675000
v 0.651755 0.891223 0.714375
v 0.639721 0.877744 0.675000
v 0.646577 0.895196 0.714375
v 0.651755 0.891223 0.714375
v 0.644615 0.873885 0.675000
v 0.639721 0.877744 0.675000
v 0.646577 0.895196 0.714375
v 0.633988 0.880128 0.675000
v 0.640548 0.897693 0.714375
v 0.646577 0.895196 0.714375
v 0.639721 0.877744 0.675000
v 0.633988 0.880128 0.675000
v 0.640548 0.897693 0.714375
v 0.627809 0.880874 0.675000
v 0.634077 0.898545 0.714375
v 0.640548 0.897693 0.714375
v 0.633988 0.880128 0.675000
v 0.627809 0.880874 0.675000
v 0.634077 0.898545 0.714375
v 0.383352 0.880874 0.675000
v 0.377083 0.898545 0.714375
v 0.634077 0.898545 0.714375
v 0.627809 0.880874 0.675000
v 0.383352 0.880874 0.675000
v 0.377083 0.898545 0.714375
v 0.377173 0.880128 0.675000
v 0.370613 0.897693 0.714375
v 0.377083 0.898545 0.714375
v 0.383352 0.880874 0.675000
v 0.377173 0.880128 0.675000
v 0.370613 0.897693 0.714375
v 0.371439 0.877744 0.675000
v 0.364583 0.895196 0.714375
v 0.370613 0.897693 0.714375
v 0.377173 0.880128 0.675000
v 0.371439 0.877744 0.675000
v 0.364583 0.895196 0.714375
v 0.366546 0.873885 0.675000
v 0.359406 0.891223 0.714375
v 0.364583 0.895196 0.714375
v 0.371439 0.877744 0.675000
v 0.366546 0.873885 0.675000
v 0.359406 0.891223 0.714375
v 0.362829 0.868816 0.675000
v 0.355433 0.886045 0.714375
v 0.359406 0.891223 0.714375
v 0.366546 0.873885 0.675000
v 0.362829 0.868816 0.675000
v 0.355433 0.886045 0.714375
v 0.360545 0.862879 0.675000
v 0.352935 0.880015 0.714375
v 0.355433 0.886045 0.714375
v 0.362829 0.868816 0.675000
v 0.360545 0.862879 0.675000
v 0.352935 0.880015 0.714375
v 0.359851 0.856479 0.675000
v 0.352083 0.873545 0.714375
v 0.352935 0.880015 0.714375
v 0.360545 0.862879 0.675000
v 0.359851 0.856479 0.675000
v 0.352083 0.873545 0.714375
v 0.359851 0.216123 0.675000
v 0.352083 0.199057 0.714375
v 0.352083 0.873545 0.714375
v 0.359851 0.856479 0.675000
v 0.359851 0.216123 0.675000
v 0.352083 0.199057 0.714375
v 0.360545 0.209723 0.675000
v 0.352935 0.192587 0.714375
v 0.352083 0.199057 0.714375
v 0.359851 0.216123 0.675000
v 0.360545 0.209723 0.675000
v 0.352935 0.192587 0.714375
v 0.362829 0.203787 0.675000
v 0.355433 0.186557 0.714375
v 0.352935 0.192587 0.714375
v 0.360545 0.209723 0.675000
v 0.362829 0.203787 0.675000
v 0.355433 0.186557 0.714375
v 0.366546 0.198717 0.675000
v 0.359406 0.181379 0.714375
v 0.355433 0.186557 0.714375
v 0.362829 0.203787 0.675000
v 0.366546 0.198717 0.675000
v 0.359406 0.181379 0.714375
v 0.371439 0.194858 0.675000
v 0.364583 0.177407 0.714375
v 0.359406 0.181379 0.714375
v 0.366546 0.198717 0.675000
v 0.371439 0.194858 0.675000
v 0.364583 0.177407 0.714375
v 0.377173 0.192474 0.675000
v 0.370613 0.174909 0.714375
v 0.364583 0.177407 0.714375
v 0.371439 0.194858 0.675000
v 0.377173 0.192474 0.675000
v 0.370613 0.174909 0.714375
v 0.383352 0.191728 0.675000
v 0.377083 0.174057 0.714375
v 0.370613 0.174909 0.714375
v 0.377173 0.192474 0.675000
v 0.383352 0.191728 0.675000
v 0.377083 0.174057 0.714375
v 0.627809 0.191728 0.675000
v 0.634077 0.174057 0.714375
v 0.377083 0.174057 0.714375
v 0.383352 0.191728 0.675000
v 0.627809 0.191728 0.675000
v 0.505580 0.536301 0.675000
v 0.633988 0.192474 0.675000
v 0.627809 0.191728 0.675000
v 0.505580 0.536301 0.675000
v 0.639721 0.194858 0.675000
v 0.633988 0.192474 0.675000
v 0.505580 0.536301 0.675000
v 0.644615 0.198717 0.675000
v 0.639721 0.194858 0.675000
v 0.505580 0.536301 0.675000
v 0.648331 0.203787 0.675000
v 0.644615 0.198717 0.675000
v 0.505580 0.536301 0.675000
v 0.650615 0.209723 0.675000
v 0.648331 0.203787 0.675000
v 0.505580 0.536301 0.675000
v 0.651310 0.216123 0.675000
v 0.650615 0.209723 0.675000
v 0.505580 0.536301 0.675000
v 0.651310 0.856479 0.675000
v 0.651310 0.216123 0.675000
v 0.505580 0.536301 0.675000
v 0.650615 0.862879 0.675000
v 0.651310 0.856479 0.675000
v 0.505580 0.536301 0.675000
v 0.648331 0.868816 0.675000
v 0.650615 0.862879 0.675000
v 0.505580 0.536301 0.675000
v 0.644615 0.873885 0.675000
v 0.648331 0.868816 0.675000
v 0.505580 0.536301 0.675000
v 0.639721 0.877744 0.675000
v 0.644615 0.873885 0.675000
v 0.505580 0.536301 0.675000
v 0.633988 0.880128 0.675000
v 0.639721 0.877744 0.675000
v 0.505580 0.536301 0.675000
v 0.627809 0.880874 0.675000
v 0.633988 0.880128 0.675000
v 0.505580 0.536301 0.675000
v 0.383352 0.880874 0.675000
v 0.627809 0.880874 0.675000
v 0.505580 0.536301 0.675000
v 0.377173 0.880128 0.675000
v 0.383352 0.880874 0.675000
v 0.505580 0.536301 0.675000
v 0.371439 0.877744 0.675000
v 0.377173 0.880128 0.675000
v 0.505580 0.536301 0.675000
v 0.366546 0.873885 0.675000
v 0.371439 0.877744 0.675000
v 0.505580 0.536301 0.675000
v 0.362829 0.868816 0.675000
v 0.366546 0.873885 0.675000
v 0.505580 0.536301 0.675000
v 0.360545 0.862879 0.675000
v 0.362829 0.868816 0.675000
v 0.505580 0.536301 0.675000
v 0.359851 0.856479 0.675000
v 0.360545 0.862879 0.675000
v 0.505580 0.536301 0.675000
v 0.359851 0.216123 0.675000
v 0.359851 0.856479 0.675000
v 0.505580 0.536301 0.675000
v 0.360545 0.209723 0.675000
v 0.359851 0.216123 0.675000
v 0.505580 0.536301 0.675000
v 0.362829 0.203787 0.675000
v 0.360545 0.209723 0.675000
v 0.505580 0.536301 0.675000
v 0.366546 0.198717 0.675000
v 0.362829 0.203787 0.675000
v 0.505580 0.536301 0.675000
v 0.371439 0.194858 0.675000
v 0.366546 0.198717 0.675000
v 0.505580 0.536301 0.675000
v 0.377173 0.192474 0.675000
v 0.371439 0.194858 0.675000
v 0.505580 0.536301 0.675000
v 0.383352 0.191728 0.675000
v 0.377173 0.192474 0.675000
v 0.505580 0.536301 0.675000
v 0.627809 0.191728 0.675000
v 0.383352 0.191728 0.675000
vt 0.500000 0.501953
vt 0.791872 0.966286
vt 0.781250 0.967969
vt 0.500000 0.501953
vt 0.801455 0.961404
vt 0.791872 0.966286
vt 0.500000 0.501953
vt 0.809060 0.953799
vt 0.801455 0.961404
vt 0.500000 0.501953
vt 0.813943 0.944216
vt 0.809060 0.953799
vt 0.500000 0.501953
vt 0.815625 0.933594
vt 0.813943 0.944216
vt 0.500000 0.501953
vt 0.815625 0.070312
vt 0.815625 0.933594
vt 0.500000 0.501953
vt 0.813943 0.059690
vt 0.815625 0.070312
vt 0.500000 0.501953
vt 0.809060 0.050107
vt 0.813943 0.059690
vt 0.500000 0.501953
vt 0.801455 0.042503
vt 0.809060 0.050107
vt 0.500000 0.501953
vt 0.791872 0.037620
vt 0.801455 0.042503
vt 0.500000 0.501953
vt 0.781250 0.035937
vt 0.791872 0.037620
vt 0.500000 0.501953
vt 0.218750 0.035937
vt 0.781250 0.035937
vt 0.500000 0.501953
vt 0.208128 0.037620
vt 0.218750 0.035937
vt 0.500000 0.501953
vt 0.198545 0.042503
vt 0.208128 0.037620
vt 0.500000 0.501953
vt 0.190940 0.050107
vt 0.198545 0.042503
vt 0.500000 0.501953
vt 0.186057 0.059690
vt 0.190940 0.050107
vt 0.500000 0.501953
vt 0.184375 0.070312
vt 0.186057 0.059690
vt 0.500000 0.501953
vt 0.184375 0.933594
vt 0.184375 0.070312
vt 0.500000 0.501953
vt 0.186057 0.944216
vt 0.184375 0.933594
vt 0.500000 0.501953
vt 0.190940 0.953799
vt 0.186057 0.944216
vt 0.500000 0.501953
vt 0.198545 0.961404
vt 0.190940 0.953799
vt 0.500000 0.501953
vt 0.208128 0.966286
vt 0.198545 0.961404
vt 0.500000 0.501953
vt 0.218750 0.967969
vt 0.208128 0.966286
vt 0.500000 0.501953
vt 0.781250 0.967969
vt 0.218750 0.967969
vt 0.725000 0.415625
vt 0.762500 0.415625
vt 0.725000 0.378125
vt 0.725000 0.415625
vt 0.725000 0.378125
vt 0.762500 0.378125
vt 0.725000 0.415625
vt 0.762500 0.415625
vt 0.725000 0.378125
vt 0.725000 0.415625
vt 0.725000 0.378125
vt 0.762500 0.378125
vt 0.725000 0.415625
vt 0.762500 0.415625
vt 0.725000 0.378125
vt 0.725000 0.415625
vt 0.725000 0.378125
vt 0.762500 0.378125
vt 0.725000 0.415625
vt 0.762500 0.415625
vt 0.725000 0.378125
vt 0.725000 0.415625
vt 0.725000 0.378125
vt 0.762500 0.378125
vt 0.725000 0.415625
vt 0.762500 0.415625
vt 0.725000 0.378125
vt 0.725000 0.415625
vt 0.725000 0.378125
vt 0.762500 0.378125
vt 0.725000 0.415625
vt 0.762500 0.415625
vt 0.725000 0.378125
vt 0.725000 0.415625
vt 0.725000 0.378125
vt 0.762500 0.378125
vt 0.725000 0.415625
vt 0.762500 0.415625
vt 0.725000 0.378125
vt 0.725000 0.415625
vt 0.725000 0.378125
vt 0.762500 0.378125
vt 0.725000 0.415625
vt 0.762500 0.415625
vt 0.725000 0.378125
vt 0.725000 0.415625
vt 0.725000 0.378125
vt 0.762500 0.378125
vt 0.725000 0.415625
vt 0.762500 0.415625
vt 0.725000 0.378125
vt 0.725000 0.415625
vt 0.725000 0.378125
vt 0.762500 0.378125
vt 0.725000 0.415625
vt 0.762500 0.415625
vt 0.725000 0.378125
vt 0.725000 0.415625
vt 0.725000 0.378125
vt 0.762500 0.378125
vt 0.725000 0.415625
vt 0.762500 0.415625
vt 0.725000 0.378125
vt 0.725000 0.415625
vt 0.725000 0.378125
vt 0.762500 0.378125
vt 0.725000 0.415625
vt 0.762500 0.415625
vt 0.725000 0.378125
vt 0.725000 0.415625
vt 0.725000 0.378125
vt 0.762500 0.378125
vt 0.725000 0.415625
vt 0.762500 0.415625
vt 0.725000 0.378125
vt 0.725000 0.415625
vt 0.725000 0.378125
vt 0.762500 0.378125
vt 0.725000 0.415625
vt 0.762500 0.415625
vt 0.725000 0.378125
vt 0.725000 0.415625
vt 0.725000 0.378125
vt 0.762500 0.378125
vt 0.725000 0.415625
vt 0.762500 0.415625
vt 0.725000 0.378125
vt 0.725000 0.415625
vt 0.725000 0.378125
vt 0.762500 0.378125
vt 0.725000 0.415625
vt 0.762500 0.415625
vt 0.725000 0.378125
vt 0.725000 0.415625
vt 0.725000 0.378125
vt 0.762500 0.378125
vt 0.725000 0.415625
vt 0.762500 0.415625
vt 0.725000 0.378125
vt 0.725000 0.415625
vt 0.725000 0.378125
vt 0.762500 0.378125
vt 0.725000 0.415625
vt 0.762500 0.415625
vt 0.725000 0.378125
vt 0.725000 0.415625
vt 0.725000 0.378125
vt 0.762500 0.378125
vt 0.725000 0.415625
vt 0.762500 0.415625
vt 0.725000 0.378125
vt 0.725000 0.415625
vt 0.725000 0.378125
vt 0.762500 0.378125
vt 0.725000 0.415625
vt 0.762500 0.415625
vt 0.725000 0.378125
vt 0.725000 0.415625
vt 0.725000 0.378125
vt 0.762500 0.378125
vt 0.725000 0.415625
vt 0.762500 0.415625
vt 0.725000 0.378125
vt 0.725000 0.415625
vt 0.725000 0.378125
vt 0.762500 0.378125
vt 0.725000 0.415625
vt 0.762500 0.415625
vt 0.725000 0.378125
vt 0.725000 0.415625
vt 0.725000 0.378125
vt 0.762500 0.378125
vt 0.725000 0.415625
vt 0.762500 0.415625
vt 0.725000 0.378125
vt 0.725000 0.415625
vt 0.725000 0.378125
vt 0.762500 0.378125
vt 0.725000 0.415625
vt 0.762500 0.415625
vt 0.725000 0.378125
vt 0.725000 0.415625
vt 0.725000 0.378125
vt 0.762500 0.378125
vt 0.725000 0.415625
vt 0.762500 0.415625
vt 0.762500 0.378125
vt 0.725000 0.415625
vt 0.762500 0.415625
vt 0.762500 0.378125
vt 0.725000 0.415625
vt 0.762500 0.415625
vt 0.762500 0.378125
vt 0.725000 0.415625
vt 0.762500 0.415625
vt 0.762500 0.378125
vt 0.725000 0.415625
vt 0.762500 0.415625
vt 0.762500 0.378125
vt 0.725000 0.415625
vt 0.762500 0.415625
vt 0.762500 0.378125
vt 0.725000 0.415625
vt 0.762500 0.415625
vt 0.762500 0.378125
vt 0.725000 0.415625
vt 0.762500 0.415625
vt 0.762500 0.378125
vt 0.725000 0.415625
vt 0.762500 0.415625
vt 0.762500 0.378125
vt 0.725000 0.415625
vt 0.762500 0.415625
vt 0.762500 0.378125
vt 0.725000 0.415625
vt 0.762500 0.415625
vt 0.762500 0.378125
vt 0.725000 0.415625
vt 0.762500 0.415625
vt 0.762500 0.378125
vt 0.725000 0.415625
vt 0.762500 0.415625
vt 0.762500 0.378125
vt 0.725000 0.415625
vt 0.762500 0.415625
vt 0.762500 0.378125
vt 0.725000 0.415625
vt 0.762500 0.415625
vt 0.762500 0.378125
vt 0.725000 0.415625
vt 0.762500 0.415625
vt 0.762500 0.378125
vt 0.725000 0.415625
vt 0.762500 0.415625
vt 0.762500 0.378125
vt 0.725000 0.415625
vt 0.762500 0.415625
vt 0.762500 0.378125
vt 0.725000 0.415625
vt 0.762500 0.415625
vt 0.762500 0.378125
vt 0.725000 0.415625
vt 0.762500 0.415625
vt 0.762500 0.378125
vt 0.725000 0.415625
vt 0.762500 0.415625
vt 0.762500 0.378125
vt 0.725000 0.415625
vt 0.762500 0.415625
vt 0.762500 0.378125
vt 0.725000 0.415625
vt 0.762500 0.415625
vt 0.762500 0.378125
vt 0.725000 0.415625
vt 0.762500 0.415625
vt 0.762500 0.378125
vt 0.494141 0.494141
vt 0.657129 0.893936
vt 0.648438 0.895312
vt 0.494141 0.494141
vt 0.664969 0.889941
vt 0.657129 0.893936
vt 0.494141 0.494141
vt 0.671191 0.883719
vt 0.664969 0.889941
vt 0.494141 0.494141
vt 0.675186 0.875879
vt 0.671191 0.883719
vt 0.494141 0.494141
vt 0.676562 0.867188
vt 0.675186 0.875879
vt 0.494141 0.494141
vt 0.676562 0.121094
vt 0.676562 0.867188
vt 0.494141 0.494141
vt 0.675186 0.112403
vt 0.676562 0.121094
vt 0.494141 0.494141
vt 0.671191 0.104562
vt 0.675186 0.112403
vt 0.494141 0.494141
vt 0.664969 0.098340
vt 0.671191 0.104562
vt 0.494141 0.494141
vt 0.657129 0.094345
vt 0.664969 0.098340
vt 0.494141 0.494141
vt 0.648438 0.092969
vt 0.657129 0.094345
vt 0.494141 0.494141
vt 0.339844 0.092969
vt 0.648438 0.092969
vt 0.494141 0.494141
vt 0.331153 0.094345
vt 0.339844 0.092969
vt 0.494141 0.494141
vt 0.323312 0.098340
vt 0.331153 0.094345
vt 0.494141 0.494141
vt 0.317090 0.104562
vt 0.323312 0.098340
vt 0.494141 0.494141
vt 0.313095 0.112403
vt 0.317090 0.104562
vt 0.494141 0.494141
vt 0.311719 0.121094
vt 0.313095 0.112403
vt 0.494141 0.494141
vt 0.311719 0.867188
vt 0.311719 0.121094
vt 0.494141 0.494141
vt 0.313095 0.875879
vt 0.311719 0.867188
vt 0.494141 0.494141
vt 0.317090 0.883719
vt 0.313095 0.875879
vt 0.494141 0.494141
vt 0.323312 0.889941
vt 0.317090 0.883719
vt 0.494141 0.494141
vt 0.331153 0.893936
vt 0.323312 0.889941
vt 0.494141 0.494141
vt 0.339844 0.895312
vt 0.331153 0.893936
vt 0.494141 0.494141
vt 0.648438 0.895312
vt 0.339844 0.895312
vt 0.225000 0.993750
vt 0.462500 0.993750
vt 0.225000 0.756250
vt 0.225000 0.993750
vt 0.225000 0.756250
vt 0.462500 0.756250
vt 0.225000 0.993750
vt 0.462500 0.993750
vt 0.225000 0.756250
vt 0.225000 0.993750
vt 0.225000 0.756250
vt 0.462500 0.756250
vt 0.225000 0.993750
vt 0.462500 0.993750
vt 0.225000 0.756250
vt 0.225000 0.993750
vt 0.225000 0.756250
vt 0.462500 0.756250
vt 0.225000 0.993750
vt 0.462500 0.993750
vt 0.225000 0.756250
vt 0.225000 0.993750
vt 0.225000 0.756250
vt 0.462500 0.756250
vt 0.225000 0.993750
vt 0.462500 0.993750
vt 0.225000 0.756250
vt 0.225000 0.993750
vt 0.225000 0.756250
vt 0.462500 0.756250
vt 0.000625 0.867188
vt 0.000625 0.121094
vt 0.181250 0.121094
vt 0.000625 0.867188
vt 0.181250 0.121094
vt 0.181250 0.867188
vt 0.225000 0.993750
vt 0.462500 0.993750
vt 0.225000 0.756250
vt 0.225000 0.993750
vt 0.225000 0.756250
vt 0.462500 0.756250
vt 0.225000 0.993750
vt 0.462500 0.993750
vt 0.225000 0.756250
vt 0.225000 0.993750
vt 0.225000 0.756250
vt 0.462500 0.756250
vt 0.225000 0.993750
vt 0.462500 0.993750
vt 0.225000 0.756250
vt 0.225000 0.993750
vt 0.225000 0.756250
vt 0.462500 0.756250
vt 0.225000 0.993750
vt 0.462500 0.993750
vt 0.225000 0.756250
vt 0.225000 0.993750
vt 0.225000 0.756250
vt 0.462500 0.756250
vt 0.225000 0.993750
vt 0.462500 0.993750
vt 0.225000 0.756250
vt 0.225000 0.993750
vt 0.225000 0.756250
vt 0.462500 0.756250
vt 0.225000 0.993750
vt 0.462500 0.993750
vt 0.225000 0.756250
vt 0.225000 0.993750
vt 0.225000 0.756250
vt 0.462500 0.756250
vt 0.225000 0.993750
vt 0.462500 0.993750
vt 0.225000 0.756250
vt 0.225000 0.993750
vt 0.225000 0.756250
vt 0.462500 0.756250
vt 0.225000 0.993750
vt 0.462500 0.993750
vt 0.225000 0.756250
vt 0.225000 0.993750
vt 0.225000 0.756250
vt 0.462500 0.756250
vt 0.225000 0.993750
vt 0.462500 0.993750
vt 0.225000 0.756250
vt 0.225000 0.993750
vt 0.225000 0.756250
vt 0.462500 0.756250
vt 0.225000 0.993750
vt 0.462500 0.993750
vt 0.225000 0.756250
vt 0.225000 0.993750
vt 0.225000 0.756250
vt 0.462500 0.756250
vt 0.225000 0.993750
vt 0.462500 0.993750
vt 0.225000 0.756250
vt 0.225000 0.993750
vt 0.225000 0.756250
vt 0.462500 0.756250
vt 0.181250 0.121094
vt 0.181250 0.867188
vt 0.000625 0.867188
vt 0.181250 0.121094
vt 0.000625 0.867188
vt 0.000625 0.121094
vt 0.225000 0.993750
vt 0.462500 0.993750
vt 0.225000 0.756250
vt 0.225000 0.993750
vt 0.225000 0.756250
vt 0.462500 0.756250
vt 0.225000 0.993750
vt 0.462500 0.993750
vt 0.225000 0.756250
vt 0.225000 0.993750
vt 0.225000 0.756250
vt 0.462500 0.756250
vt 0.225000 0.993750
vt 0.462500 0.993750
vt 0.225000 0.756250
vt 0.225000 0.993750
vt 0.225000 0.756250
vt 0.462500 0.756250
vt 0.225000 0.993750
vt 0.462500 0.993750
vt 0.225000 0.756250
vt 0.225000 0.993750
vt 0.225000 0.756250
vt 0.462500 0.756250
vt 0.225000 0.993750
vt 0.462500 0.993750
vt 0.225000 0.756250
vt 0.225000 0.993750
vt 0.225000 0.756250
vt 0.462500 0.756250
vt 0.225000 0.993750
vt 0.462500 0.993750
vt 0.225000 0.756250
vt 0.225000 0.993750
vt 0.225000 0.756250
vt 0.462500 0.756250
vt 0.567344 0.227187
vt 0.592344 0.202187
vt 0.592344 0.227187
vt 0.567344 0.227187
vt 0.567344 0.202187
vt 0.592344 0.202187
vt 0.567344 0.227187
vt 0.592344 0.202187
vt 0.592344 0.227187
vt 0.567344 0.227187
vt 0.567344 0.202187
vt 0.592344 0.202187
vt 0.567344 0.227187
vt 0.592344 0.202187
vt 0.592344 0.227187
vt 0.567344 0.227187
vt 0.567344 0.202187
vt 0.592344 0.202187
vt 0.567344 0.227187
vt 0.592344 0.202187
vt 0.592344 0.227187
vt 0.567344 0.227187
vt 0.567344 0.202187
vt 0.592344 0.202187
vt 0.567344 0.227187
vt 0.592344 0.202187
vt 0.592344 0.227187
vt 0.567344 0.227187
vt 0.567344 0.202187
vt 0.592344 0.202187
vt 0.567344 0.227187
vt 0.592344 0.202187
vt 0.592344 0.227187
vt 0.567344 0.227187
vt 0.567344 0.202187
vt 0.592344 0.202187
vt 0.567344 0.227187
vt 0.592344 0.202187
vt 0.592344 0.227187
vt 0.567344 0.227187
vt 0.567344 0.202187
vt 0.592344 0.202187
vt 0.567344 0.227187
vt 0.592344 0.202187
vt 0.592344 0.227187
vt 0.567344 0.227187
vt 0.567344 0.202187
vt 0.592344 0.202187
vt 0.567344 0.227187
vt 0.592344 0.202187
vt 0.592344 0.227187
vt 0.567344 0.227187
vt 0.567344 0.202187
vt 0.592344 0.202187
vt 0.567344 0.227187
vt 0.592344 0.202187
vt 0.592344 0.227187
vt 0.567344 0.227187
vt 0.567344 0.202187
vt 0.592344 0.202187
vt 0.567344 0.227187
vt 0.592344 0.202187
vt 0.592344 0.227187
vt 0.567344 0.227187
vt 0.567344 0.202187
vt 0.592344 0.202187
vt 0.567344 0.227187
vt 0.592344 0.202187
vt 0.592344 0.227187
vt 0.567344 0.227187
vt 0.567344 0.202187
vt 0.592344 0.202187
vt 0.567344 0.227187
vt 0.592344 0.202187
vt 0.592344 0.227187
vt 0.567344 0.227187
vt 0.567344 0.202187
vt 0.592344 0.202187
vt 0.567344 0.227187
vt 0.592344 0.202187
vt 0.592344 0.227187
vt 0.567344 0.227187
vt 0.567344 0.202187
vt 0.592344 0.202187
vt 0.567344 0.227187
vt 0.592344 0.202187
vt 0.592344 0.227187
vt 0.567344 0.227187
vt 0.567344 0.202187
vt 0.592344 0.202187
vt 0.567344 0.227187
vt 0.592344 0.202187
vt 0.592344 0.227187
vt 0.567344 0.227187
vt 0.567344 0.202187
vt 0.592344 0.202187
vt 0.567344 0.227187
vt 0.592344 0.202187
vt 0.592344 0.227187
vt 0.567344 0.227187
vt 0.567344 0.202187
vt 0.592344 0.202187
vt 0.567344 0.227187
vt 0.592344 0.202187
vt 0.592344 0.227187
vt 0.567344 0.227187
vt 0.567344 0.202187
vt 0.592344 0.202187
vt 0.567344 0.227187
vt 0.592344 0.202187
vt 0.592344 0.227187
vt 0.567344 0.227187
vt 0.567344 0.202187
vt 0.592344 0.202187
vt 0.567344 0.227187
vt 0.592344 0.202187
vt 0.592344 0.227187
vt 0.567344 0.227187
vt 0.567344 0.202187
vt 0.592344 0.202187
vt 0.567344 0.227187
vt 0.592344 0.202187
vt 0.592344 0.227187
vt 0.567344 0.227187
vt 0.567344 0.202187
vt 0.592344 0.202187
vt 0.567344 0.227187
vt 0.592344 0.202187
vt 0.592344 0.227187
vt 0.567344 0.227187
vt 0.567344 0.202187
vt 0.592344 0.202187
vt 0.567344 0.227187
vt 0.592344 0.202187
vt 0.592344 0.227187
vt 0.567344 0.227187
vt 0.567344 0.202187
vt 0.592344 0.202187
vt 0.567344 0.227187
vt 0.592344 0.202187
vt 0.592344 0.227187
vt 0.567344 0.227187
vt 0.567344 0.202187
vt 0.592344 0.202187
vt 0.567344 0.227187
vt 0.592344 0.202187
vt 0.592344 0.227187
vt 0.567344 0.227187
vt 0.567344 0.202187
vt 0.592344 0.202187
vt 0.567344 0.227187
vt 0.592344 0.202187
vt 0.592344 0.227187
vt 0.567344 0.227187
vt 0.567344 0.202187
vt 0.592344 0.202187
vt 0.567344 0.227187
vt 0.592344 0.202187
vt 0.592344 0.227187
vt 0.567344 0.227187
vt 0.567344 0.202187
vt 0.592344 0.202187
vt 0.567344 0.227187
vt 0.592344 0.202187
vt 0.592344 0.227187
vt 0.567344 0.227187
vt 0.567344 0.202187
vt 0.592344 0.202187
vt 0.567344 0.227187
vt 0.592344 0.202187
vt 0.592344 0.227187
vt 0.567344 0.227187
vt 0.567344 0.202187
vt 0.592344 0.202187
vt 0.567344 0.227187
vt 0.592344 0.202187
vt 0.592344 0.227187
vt 0.567344 0.227187
vt 0.567344 0.202187
vt 0.592344 0.202187
vt 0.567344 0.227187
vt 0.592344 0.202187
vt 0.592344 0.227187
vt 0.567344 0.227187
vt 0.567344 0.202187
vt 0.592344 0.202187
vt 0.567344 0.227187
vt 0.592344 0.202187
vt 0.592344 0.227187
vt 0.567344 0.227187
vt 0.567344 0.202187
vt 0.592344 0.202187
vt 0.567344 0.227187
vt 0.592344 0.202187
vt 0.592344 0.227187
vt 0.567344 0.227187
vt 0.567344 0.202187
vt 0.592344 0.202187
vt 0.567344 0.227187
vt 0.592344 0.202187
vt 0.592344 0.227187
vt 0.567344 0.227187
vt 0.567344 0.202187
vt 0.592344 0.202187
vt 0.567344 0.227187
vt 0.592344 0.202187
vt 0.592344 0.227187
vt 0.567344 0.227187
vt 0.567344 0.202187
vt 0.592344 0.202187
vt 0.567344 0.227187
vt 0.592344 0.202187
vt 0.592344 0.227187
vt 0.567344 0.227187
vt 0.567344 0.202187
vt 0.592344 0.202187
vt 0.567344 0.227187
vt 0.592344 0.202187
vt 0.592344 0.227187
vt 0.567344 0.227187
vt 0.567344 0.202187
vt 0.592344 0.202187
vt 0.567344 0.227187
vt 0.592344 0.202187
vt 0.592344 0.227187
vt 0.567344 0.227187
vt 0.567344 0.202187
vt 0.592344 0.202187
vt 0.567344 0.227187
vt 0.592344 0.202187
vt 0.592344 0.227187
vt 0.567344 0.227187
vt 0.567344 0.202187
vt 0.592344 0.202187
vt 0.567344 0.227187
vt 0.592344 0.202187
vt 0.592344 0.227187
vt 0.567344 0.227187
vt 0.567344 0.202187
vt 0.592344 0.202187
vt 0.567344 0.227187
vt 0.592344 0.202187
vt 0.592344 0.227187
vt 0.567344 0.227187
vt 0.567344 0.202187
vt 0.592344 0.202187
vt 0.567344 0.227187
vt 0.592344 0.202187
vt 0.592344 0.227187
vt 0.567344 0.227187
vt 0.567344 0.202187
vt 0.592344 0.202187
vt 0.567344 0.227187
vt 0.592344 0.202187
vt 0.592344 0.227187
vt 0.567344 0.227187
vt 0.567344 0.202187
vt 0.592344 0.202187
vt 0.567344 0.227187
vt 0.592344 0.202187
vt 0.592344 0.227187
vt 0.567344 0.227187
vt 0.567344 0.202187
vt 0.592344 0.202187
vt 0.567344 0.227187
vt 0.592344 0.202187
vt 0.592344 0.227187
vt 0.567344 0.227187
vt 0.567344 0.202187
vt 0.592344 0.202187
vt 0.567344 0.227187
vt 0.592344 0.202187
vt 0.592344 0.227187
vt 0.567344 0.227187
vt 0.567344 0.202187
vt 0.592344 0.202187
vt 0.567344 0.227187
vt 0.592344 0.202187
vt 0.592344 0.227187
vt 0.567344 0.227187
vt 0.567344 0.202187
vt 0.592344 0.202187
vt 0.567344 0.227187
vt 0.592344 0.202187
vt 0.592344 0.227187
vt 0.567344 0.227187
vt 0.567344 0.202187
vt 0.592344 0.202187
vt 0.567344 0.227187
vt 0.592344 0.202187
vt 0.592344 0.227187
vt 0.567344 0.227187
vt 0.567344 0.202187
vt 0.592344 0.202187
vt 0.567344 0.227187
vt 0.592344 0.202187
vt 0.592344 0.227187
vt 0.567344 0.227187
vt 0.567344 0.202187
vt 0.592344 0.202187
vt 0.567344 0.227187
vt 0.592344 0.202187
vt 0.592344 0.227187
vt 0.567344 0.227187
vt 0.567344 0.202187
vt 0.592344 0.202187
vt 0.567344 0.227187
vt 0.592344 0.202187
vt 0.592344 0.227187
vt 0.567344 0.227187
vt 0.567344 0.202187
vt 0.592344 0.202187
vt 0.567344 0.227187
vt 0.592344 0.202187
vt 0.592344 0.227187
vt 0.567344 0.227187
vt 0.567344 0.202187
vt 0.592344 0.202187
vt 0.567344 0.227187
vt 0.592344 0.202187
vt 0.592344 0.227187
vt 0.567344 0.227187
vt 0.567344 0.202187
vt 0.592344 0.202187
vt 0.567344 0.227187
vt 0.592344 0.202187
vt 0.592344 0.227187
vt 0.567344 0.227187
vt 0.567344 0.202187
vt 0.592344 0.202187
vt 0.567344 0.227187
vt 0.592344 0.202187
vt 0.592344 0.227187
vt 0.567344 0.227187
vt 0.567344 0.202187
vt 0.592344 0.202187
vt 0.494141 0.494141
vt 0.352425 0.115112
vt 0.359219 0.114219
vt 0.494141 0.494141
vt 0.346094 0.117732
vt 0.352425 0.115112
vt 0.494141 0.494141
vt 0.340657 0.121898
vt 0.346094 0.117732
vt 0.494141 0.494141
vt 0.336486 0.127329
vt 0.340657 0.121898
vt 0.494141 0.494141
vt 0.333863 0.133653
vt 0.336486 0.127329
vt 0.494141 0.494141
vt 0.332969 0.140439
vt 0.333863 0.133653
vt 0.494141 0.494141
vt 0.332969 0.847842
vt 0.332969 0.140439
vt 0.494141 0.494141
vt 0.333863 0.854629
vt 0.332969 0.847842
vt 0.494141 0.494141
vt 0.336486 0.860952
vt 0.333863 0.854629
vt 0.494141 0.494141
vt 0.340657 0.866383
vt 0.336486 0.860952
vt 0.494141 0.494141
vt 0.346094 0.870550
vt 0.340657 0.866383
vt 0.494141 0.494141
vt 0.352425 0.873169
vt 0.346094 0.870550
vt 0.494141 0.494141
vt 0.359219 0.874062
vt 0.352425 0.873169
vt 0.494141 0.494141
vt 0.629062 0.874062
vt 0.359219 0.874062
vt 0.494141 0.494141
vt 0.635856 0.873169
vt 0.629062 0.874062
vt 0.494141 0.494141
vt 0.642188 0.870550
vt 0.635856 0.873169
vt 0.494141 0.494141
vt 0.647624 0.866383
vt 0.642188 0.870550
vt 0.494141 0.494141
vt 0.651796 0.860952
vt 0.647624 0.866383
vt 0.494141 0.494141
vt 0.654418 0.854629
vt 0.651796 0.860952
vt 0.494141 0.494141
vt 0.655312 0.847842
vt 0.654418 0.854629
vt 0.494141 0.494141
vt 0.655312 0.140439
vt 0.655312 0.847842
vt 0.494141 0.494141
vt 0.654418 0.133653
vt 0.655312 0.140439
vt 0.494141 0.494141
vt 0.651796 0.127329
vt 0.654418 0.133653
vt 0.494141 0.494141
vt 0.647624 0.121898
vt 0.651796 0.127329
vt 0.494141 0.494141
vt 0.642188 0.117732
vt 0.647624 0.121898
vt 0.494141 0.494141
vt 0.635856 0.115112
vt 0.642188 0.117732
vt 0.494141 0.494141
vt 0.629062 0.114219
vt 0.635856 0.115112
vt 0.494141 0.494141
vt 0.359219 0.114219
vt 0.629062 0.114219
vn 0.000000 0.000000 -1.000000
vn 0.000000 0.000000 -1.000000
vn 0.000000 0.000000 -1.000000
vn 0.000000 0.000000 -1.000000
vn 0.000000 0.000000 -1.000000
vn -0.000000 0.000000 -1.000000
vn 0.000000 0.000000 -1.000000
vn 0.000000 0.000000 -1.000000
vn 0.000000 0.000000 -1.000000
vn 0.000000 0.000000 -1.000000
vn 0.000000 0.000000 -1.000000
vn 0.000000 -0.000000 -1.000000
vn 0.000000 0.000000 -1.000000
vn 0.000000 0.000000 -1.000000
vn 0.000000 0.000000 -1.000000
vn 0.000000 0.000000 -1.000000
vn 0.000000 0.000000 -1.000000
vn 0.000000 0.000000 -1.000000
vn 0.000000 0.000000 -1.000000
vn 0.000000 0.000000 -1.000000
vn 0.000000 0.000000 -1.000000
vn 0.000000 0.000000 -1.000000
vn 0.000000 0.000000 -1.000000
vn 0.000000 0.000000 -1.000000
vn -0.156609 0.987661 0.000000
vn -0.156609 0.987661 0.000000
vn -0.454402 0.890797 0.000000
vn -0.454402 0.890797 0.000000
vn -0.707510 0.706703 0.000000
vn -0.707510 0.706703 0.000000
vn -0.891216 0.453579 0.000000
vn -0.891216 0.453579 0.000000
vn -0.987716 0.156260 0.000000
vn -0.987716 0.156260 0.000000
vn -1.000000 0.000000 0.000000
vn -1.000000 0.000000 0.000000
vn -0.987716 -0.156260 0.000000
vn -0.987716 -0.156260 0.000000
vn -0.891216 -0.453579 0.000000
vn -0.891216 -0.453579 0.000000
vn -0.707510 -0.706703 0.000000
vn -0.707510 -0.706703 0.000000
vn -0.454402 -0.890797 0.000000
vn -0.454402 -0.890797 0.000000
vn -0.156609 -0.987661 0.000000
vn -0.156609 -0.987661 0.000000
vn 0.000000 -1.000000 0.000000
vn 0.000000 -1.000000 0.000000
vn 0.156609 -0.987661 0.000000
vn 0.156609 -0.987661 0.000000
vn 0.454402 -0.890797 0.000000
vn 0.454402 -0.890797 0.000000
vn 0.707510 -0.706703 0.000000
vn 0.707510 -0.706703 0.000000
vn 0.891216 -0.453579 0.000000
vn 0.891216 -0.453579 0.000000
vn 0.987716 -0.156260 0.000000
vn 0.987716 -0.156260 0.000000
vn 1.000000 0.000000 0.000000
vn 1.000000 0.000000 0.000000
vn 0.987716 0.156260 0.000000
vn 0.987716 0.156260 -0.000000
vn 0.891216 0.453579 0.000000
vn 0.891216 0.453579 -0.000000
vn 0.707510 0.706703 0.000000
vn 0.707510 0.706703 -0.000000
vn 0.454402 0.890797 0.000000
vn 0.454402 0.890797 -0.000000
vn 0.156609 0.987661 0.000000
vn 0.156609 0.987661 -0.000000
vn 0.000000 1.000000 0.000000
vn 0.000000 1.000000 -0.000000
vn 0.000000 0.000000 1.000000
vn 0.000000 0.000000 1.000000
vn 0.000000 0.000000 1.000000
vn 0.000000 0.000000 1.000000
vn 0.000000 0.000000 1.000000
vn 0.000000 0.000000 1.000000
vn 0.000000 0.000000 1.000000
vn 0.000000 0.000000 1.000000
vn 0.000000 0.000000 1.000000
vn 0.000000 0.000000 1.000000
vn 0.000000 0.000000 1.000000
vn 0.000000 0.000000 1.000000
vn 0.000000 0.000000 1.000000
vn 0.000000 0.000000 1.000000
vn 0.000000 0.000000 1.000000
vn 0.000000 0.000000 1.000000
vn 0.000000 0.000000 1.000000
vn -0.000000 0.000000 1.000000
vn 0.000000 0.000000 1.000000
vn 0.000000 0.000000 1.000000
vn 0.000000 0.000000 1.000000
vn 0.000000 0.000000 1.000000
vn 0.000000 0.000000 1.000000
vn 0.000000 -0.000000 1.000000
vn 0.000000 0.000000 -1.000000
vn 0.000000 0.000000 -1.000000
vn 0.000000 0.000000 -1.000000
vn 0.000000 0.000000 -1.000000
vn 0.000000 0.000000 -1.000000
vn -0.000000 0.000000 -1.000000
vn 0.000000 0.000000 -1.000000
vn 0.000000 0.000000 -1.000000
vn 0.000000 0.000000 -1.000000
vn 0.000000 0.000000 -1.000000
vn 0.000000 0.000000 -1.000000
vn 0.000000 -0.000000 -1.000000
vn 0.000000 0.000000 -1.000000
vn 0.000000 0.000000 -1.000000
vn 0.000000 0.000000 -1.000000
vn 0.000000 0.000000 -1.000000
vn 0.000000 0.000000 -1.000000
vn 0.000000 0.000000 -1.000000
vn 0.000000 0.000000 -1.000000
vn 0.000000 0.000000 -1.000000
vn 0.000000 0.000000 -1.000000
vn 0.000000 0.000000 -1.000000
vn 0.000000 0.000000 -1.000000
vn 0.000000 0.000000 -1.000000
vn -0.156609 0.987661 0.000000
vn -0.156609 0.987661 0.000000
vn -0.454402 0.890797 0.000000
vn -0.454402 0.890797 0.000000
vn -0.707510 0.706703 0.000000
vn -0.707510 0.706703 0.000000
vn -0.891216 0.453579 0.000000
vn -0.891216 0.453579 0.000000
vn -0.987716 0.156260 0.000000
vn -0.987716 0.156260 0.000000
vn -1.000000 0.000000 0.000000
vn -1.000000 0.000000 0.000000
vn -0.987716 -0.156260 0.000000
vn -0.987716 -0.156260 0.000000
vn -0.891216 -0.453579 0.000000
vn -0.891216 -0.453579 0.000000
vn -0.707510 -0.706703 0.000000
vn -0.707510 -0.706703 0.000000
vn -0.454402 -0.890797 0.000000
vn -0.454402 -0.890797 0.000000
vn -0.156609 -0.987661 0.000000
vn -0.156609 -0.987661 0.000000
vn 0.000000 -1.000000 0.000000
vn 0.000000 -1.000000 0.000000
vn 0.156609 -0.987661 0.000000
vn 0.156609 -0.987661 0.000000
vn 0.454402 -0.890797 0.000000
vn 0.454402 -0.890797 0.000000
vn 0.707510 -0.706703 0.000000
vn 0.707510 -0.706703 0.000000
vn 0.891216 -0.453579 0.000000
vn 0.891216 -0.453579 0.000000
vn 0.987716 -0.156260 0.000000
vn 0.987716 -0.156260 0.000000
vn 1.000000 0.000000 0.000000
vn 1.000000 0.000000 0.000000
vn 0.987716 0.156260 0.000000
vn 0.987716 0.156260 -0.000000
vn 0.891216 0.453579 0.000000
vn 0.891216 0.453579 -0.000000
vn 0.707510 0.706703 0.000000
vn 0.707510 0.706703 -0.000000
vn 0.454402 0.890797 0.000000
vn 0.454402 0.890797 -0.000000
vn 0.156609 0.987661 0.000000
vn 0.156609 0.987661 -0.000000
vn 0.000000 1.000000 0.000000
vn 0.000000 1.000000 -0.000000
vn 0.130526 -0.991445 0.000000
vn 0.130526 -0.991445 0.000000
vn 0.382683 -0.923880 0.000000
vn 0.382683 -0.923880 0.000000
vn 0.608761 -0.793353 0.000000
vn 0.608761 -0.793353 0.000000
vn 0.793353 -0.608761 0.000000
vn 0.793353 -0.608761 0.000000
vn 0.923880 -0.382683 0.000000
vn 0.923880 -0.382683 0.000000
vn 0.991445 -0.130526 0.000000
vn 0.991445 -0.130526 0.000000
vn 1.000000 -0.000000 0.000000
vn 1.000000 0.000000 0.000000
vn 0.991445 0.130526 0.000000
vn 0.991445 0.130526 0.000000
vn 0.923880 0.382683 0.000000
vn 0.923880 0.382683 0.000000
vn 0.793353 0.608761 0.000000
vn 0.793353 0.608761 0.000000
vn 0.608761 0.793353 0.000000
vn 0.608761 0.793353 0.000000
vn 0.382683 0.923880 0.000000
vn 0.382683 0.923880 0.000000
vn 0.130526 0.991445 0.000000
vn 0.130526 0.991445 0.000000
vn 0.000000 1.000000 0.000000
vn 0.000000 1.000000 0.000000
vn -0.130526 0.991445 0.000000
vn -0.130526 0.991445 0.000000
vn -0.382683 0.923880 0.000000
vn -0.382683 0.923880 0.000000
vn -0.608761 0.793353 0.000000
vn -0.608761 0.793353 0.000000
vn -0.793353 0.608761 0.000000
vn -0.793353 0.608761 0.000000
vn -0.923880 0.382683 0.000000
vn -0.923880 0.382683 0.000000
vn -0.991445 0.130526 0.000000
vn -0.991445 0.130526 0.000000
vn -1.000000 -0.000000 0.000000
vn -1.000000 0.000000 -0.000000
vn -0.991445 -0.130526 0.000000
vn -0.991445 -0.130526 -0.000000
vn -0.923880 -0.382683 0.000000
vn -0.923880 -0.382683 -0.000000
vn -0.793353 -0.608761 0.000000
vn -0.793353 -0.608761 -0.000000
vn -0.608761 -0.793353 0.000000
vn -0.608761 -0.793353 -0.000000
vn -0.382683 -0.923880 0.000000
vn -0.382683 -0.923880 -0.000000
vn -0.130526 -0.991445 0.000000
vn -0.130526 -0.991445 -0.000000
vn 0.000000 -1.000000 0.000000
vn 0.000000 -1.000000 0.000000
vn 0.118400 -0.899339 -0.420917
vn 0.108661 -0.900355 -0.421370
vn 0.345521 -0.834160 -0.429875
vn 0.346695 -0.833764 -0.429698
vn 0.553114 -0.720832 -0.417692
vn 0.563411 -0.714509 -0.414783
vn 0.732653 -0.562184 -0.383626
vn 0.747113 -0.547692 -0.376637
vn 0.873335 -0.361747 -0.326228
vn 0.885644 -0.340751 -0.315473
vn 0.961354 -0.126565 -0.244497
vn 0.966903 -0.104959 -0.232558
vn 0.981093 0.000000 -0.193537
vn 0.981093 0.000000 -0.193537
vn 0.962198 0.126676 -0.241099
vn 0.966072 0.104869 -0.236025
vn 0.874436 0.362203 -0.322755
vn 0.884523 0.340319 -0.319065
vn 0.733559 0.562879 -0.380866
vn 0.746164 0.546996 -0.379519
vn 0.553552 0.721403 -0.416122
vn 0.562945 0.713918 -0.416430
vn 0.345549 0.834230 -0.429716
vn 0.346664 0.833690 -0.429865
vn 0.118323 0.898753 -0.422189
vn 0.108735 0.900970 -0.420034
vn 0.000000 0.912334 -0.409447
vn 0.000000 0.912334 -0.409447
vn -0.118400 0.899339 -0.420917
vn -0.108661 0.900355 -0.421370
vn -0.345521 0.834160 -0.429875
vn -0.346695 0.833764 -0.429698
vn -0.553114 0.720832 -0.417692
vn -0.563411 0.714509 -0.414783
vn -0.732653 0.562184 -0.383626
vn -0.747113 0.547692 -0.376637
vn -0.873335 0.361747 -0.326228
vn -0.885644 0.340751 -0.315473
vn -0.961354 0.126565 -0.244497
vn -0.966903 0.104959 -0.232558
vn -0.981093 -0.000000 -0.193537
vn -0.981093 0.000000 -0.193537
vn -0.962198 -0.126676 -0.241099
vn -0.966072 -0.104869 -0.236025
vn -0.874436 -0.362203 -0.322755
vn -0.884523 -0.340319 -0.319065
vn -0.733559 -0.562879 -0.380866
vn -0.746164 -0.546996 -0.379519
vn -0.553552 -0.721403 -0.416122
vn -0.562945 -0.713918 -0.416430
vn -0.345549 -0.834230 -0.429716
vn -0.346664 -0.833690 -0.429865
vn -0.118323 -0.898753 -0.422189
vn -0.108735 -0.900970 -0.420034
vn 0.000000 -0.912334 -0.409447
vn 0.000000 -0.912334 -0.409447
vn 0.000000 0.000000 -1.000000
vn 0.000000 0.000000 -1.000000
vn 0.000000 0.000000 -1.000000
vn 0.000000 0.000000 -1.000000
vn 0.000000 0.000000 -1.000000
vn 0.000000 0.000000 -1.000000
vn 0.000000 0.000000 -1.000000
vn 0.000000 0.000000 -1.000000
vn 0.000000 0.000000 -1.000000
vn 0.000000 0.000000 -1.000000
vn 0.000000 0.000000 -1.000000
vn 0.000000 0.000000 -1.000000
vn 0.000000 0.000000 -1.000000
vn 0.000000 0.000000 -1.000000
vn 0.000000 0.000000 -1.000000
vn 0.000000 0.000000 -1.000000
vn 0.000000 0.000000 -1.000000
vn 0.000000 0.000000 -1.000000
vn 0.000000 0.000000 -1.000000
vn 0.000000 0.000000 -1.000000
vn -0.000000 0.000000 -1.000000
vn 0.000000 0.000000 -1.000000
vn 0.000000 0.000000 -1.000000
vn 0.000000 0.000000 -1.000000
vn 0.000000 0.000000 -1.000000
vn 0.000000 0.000000 -1.000000
vn 0.000000 0.000000 -1.000000
vn 0.000000 -0.000000 -1.000000
usemtl body
f 1/1/1 2/2/1 3/3/1
f 4/4/2 5/5/2 6/6/2
f 7/7/3 8/8/3 9/9/3
f 10/10/4 11/11/4 12/12/4
f 13/13/5 14/14/5 15/15/5
f 16/16/6 17/17/6 18/18/6
f 19/19/7 20/20/7 21/21/7
f 22/22/8 23/23/8 24/24/8
f 25/25/9 26/26/9 27/27/9
f 28/28/10 29/29/10 30/30/10
f 31/31/11 32/32/11 33/33/11
f 34/34/12 35/35/12 36/36/12
f 37/37/13 38/38/13 39/39/13
f 40/40/14 41/41/14 42/42/14
f 43/43/15 44/44/15 45/45/15
f 46/46/16 47/47/16 48/48/16
f 49/49/17 50/50/17 51/51/17
f 52/52/18 53/53/18 54/54/18
f 55/55/19 56/56/19 57/57/19
f 58/58/20 59/59/20 60/60/20
f 61/61/21 62/62/21 63/63/21
f 64/64/22 65/65/22 66/66/22
f 67/67/23 68/68/23 69/69/23
f 70/70/24 71/71/24 72/72/24
f 73/73/25 74/74/25 75/75/25
f 76/76/26 77/77/26 78/78/26
f 79/79/27 80/80/27 81/81/27
f 82/82/28 83/83/28 84/84/28
f 85/85/29 86/86/29 87/87/29
f 88/88/30 89/89/30 90/90/30
f 91/91/31 92/92/31 93/93/31
f 94/94/32 95/95/32 96/96/32
f 97/97/33 98/98/33 99/99/33
f 100/100/34 101/101/34 102/102/34
f 103/103/35 104/104/35 105/105/35
f 106/106/36 107/107/36 108/108/36
f 109/109/37 110/110/37 111/111/37
f 112/112/38 113/113/38 114/114/38
f 115/115/39 116/116/39 117/117/39
f 118/118/40 119/119/40 120/120/40
f 121/121/41 122/122/41 123/123/41
f 124/124/42 125/125/42 126/126/42
f 127/127/43 128/128/43 129/129/43
f 130/130/44 131/131/44 132/132/44
f 133/133/45 134/134/45 135/135/45
f 136/136/46 137/137/46 138/138/46
f 139/139/47 140/140/47 141/141/47
f 142/142/48 143/143/48 144/144/48
f 145/145/49 146/146/49 147/147/49
f 148/148/50 149/149/50 150/150/50
f 151/151/51 152/152/51 153/153/51
f 154/154/52 155/155/52 156/156/52
f 157/157/53 158/158/53 159/159/53
f 160/160/54 161/161/54 162/162/54
f 163/163/55 164/164/55 165/165/55
f 166/166/56 167/167/56 168/168/56
f 169/169/57 170/170/57 171/171/57
f 172/172/58 173/173/58 174/174/58
f 175/175/59 176/176/59 177/177/59
f 178/178/60 179/179/60 180/180/60
f 181/181/61 182/182/61 183/183/61
f 184/184/62 185/185/62 186/186/62
f 187/187/63 188/188/63 189/189/63
f 190/190/64 191/191/64 192/192/64
f 193/193/65 194/194/65 195/195/65
f 196/196/66 197/197/66 198/198/66
f 199/199/67 200/200/67 201/201/67
f 202/202/68 203/203/68 204/204/68
f 205/205/69 206/206/69 207/207/69
f 208/208/70 209/209/70 210/210/70
f 211/211/71 212/212/71 213/213/71
f 214/214/72 215/215/72 216/216/72
f 217/217/73 218/218/73 219/219/73
f 220/220/74 221/221/74 222/222/74
f 223/223/75 224/224/75 225/225/75
f 226/226/76 227/227/76 228/228/76
f 229/229/77 230/230/77 231/231/77
f 232/232/78 233/233/78 234/234/78
f 235/235/79 236/236/79 237/237/79
f 238/238/80 239/239/80 240/240/80
f 241/241/81 242/242/81 243/243/81
f 244/244/82 245/245/82 246/246/82
f 247/247/83 248/248/83 249/249/83
f 250/250/84 251/251/84 252/252/84
f 253/253/85 254/254/85 255/255/85
f 256/256/86 257/257/86 258/258/86
f 259/259/87 260/260/87 261/261/87
f 262/262/88 263/263/88 264/264/88
f 265/265/89 266/266/89 267/267/89
f 268/268/90 269/269/90 270/270/90
f 271/271/91 272/272/91 273/273/91
f 274/274/92 275/275/92 276/276/92
f 277/277/93 278/278/93 279/279/93
f 280/280/94 281/281/94 282/282/94
f 283/283/95 284/284/95 285/285/95
f 286/286/96 287/287/96 288/288/96
f 289/289/97 290/290/97 291/291/97
f 292/292/98 293/293/98 294/294/98
f 295/295/99 296/296/99 297/297/99
f 298/298/100 299/299/100 300/300/100
f 301/301/101 302/302/101 303/303/101
f 304/304/102 305/305/102 306/306/102
f 307/307/103 308/308/103 309/309/103
f 310/310/104 311/311/104 312/312/104
f 313/313/105 314/314/105 315/315/105
f 316/316/106 317/317/106 318/318/106
f 319/319/107 320/320/107 321/321/107
f 322/322/108 323/323/108 324/324/108
f 325/325/109 326/326/109 327/327/109
f 328/328/110 329/329/110 330/330/110
f 331/331/111 332/332/111 333/333/111
f 334/334/112 335/335/112 336/336/112
f 337/337/113 338/338/113 339/339/113
f 340/340/114 341/341/114 342/342/114
f 343/343/115 344/344/115 345/345/115
f 346/346/116 347/347/116 348/348/116
f 349/349/117 350/350/117 351/351/117
f 352/352/118 353/353/118 354/354/118
f 355/355/119 356/356/119 357/357/119
f 358/358/120 359/359/120 360/360/120
f 505/505/169 506/506/169 507/507/169
f 508/508/170 509/509/170 510/510/170
f 511/511/171 512/512/171 513/513/171
f 514/514/172 515/515/172 516/516/172
f 517/517/173 518/518/173 519/519/173
f 520/520/174 521/521/174 522/522/174
f 523/523/175 524/524/175 525/525/175
f 526/526/176 527/527/176 528/528/176
f 529/529/177 530/530/177 531/531/177
f 532/532/178 533/533/178 534/534/178
f 535/535/179 536/536/179 537/537/179
f 538/538/180 539/539/180 540/540/180
f 541/541/181 542/542/181 543/543/181
f 544/544/182 545/545/182 546/546/182
f 547/547/183 548/548/183 549/549/183
f 550/550/184 551/551/184 552/552/184
f 553/553/185 554/554/185 555/555/185
f 556/556/186 557/557/186 558/558/186
f 559/559/187 560/560/187 561/561/187
f 562/562/188 563/563/188 564/564/188
f 565/565/189 566/566/189 567/567/189
f 568/568/190 569/569/190 570/570/190
f 571/571/191 572/572/191 573/573/191
f 574/574/192 575/575/192 576/576/192
f 577/577/193 578/578/193 579/579/193
f 580/580/194 581/581/194 582/582/194
f 583/583/195 584/584/195 585/585/195
f 586/586/196 587/587/196 588/588/196
f 589/589/197 590/590/197 591/591/197
f 592/592/198 593/593/198 594/594/198
f 595/595/199 596/596/199 597/597/199
f 598/598/200 599/599/200 600/600/200
f 601/601/201 602/602/201 603/603/201
f 604/604/202 605/605/202 606/606/202
f 607/607/203 608/608/203 609/609/203
f 610/610/204 611/611/204 612/612/204
f 613/613/205 614/614/205 615/615/205
f 616/616/206 617/617/206 618/618/206
f 619/619/207 620/620/207 621/621/207
f 622/622/208 623/623/208 624/624/208
f 625/625/209 626/626/209 627/627/209
f 628/628/210 629/629/210 630/630/210
f 631/631/211 632/632/211 633/633/211
f 634/634/212 635/635/212 636/636/212
f 637/637/213 638/638/213 639/639/213
f 640/640/214 641/641/214 642/642/214
f 643/643/215 644/644/215 645/645/215
f 646/646/216 647/647/216 648/648/216
f 649/649/217 650/650/217 651/651/217
f 652/652/218 653/653/218 654/654/218
f 655/655/219 656/656/219 657/657/219
f 658/658/220 659/659/220 660/660/220
f 661/661/221 662/662/221 663/663/221
f 664/664/222 665/665/222 666/666/222
f 667/667/223 668/668/223 669/669/223
f 670/670/224 671/671/224 672/672/224
f 673/673/225 674/674/225 675/675/225
f 676/676/226 677/677/226 678/678/226
f 679/679/227 680/680/227 681/681/227
f 682/682/228 683/683/228 684/684/228
f 685/685/229 686/686/229 687/687/229
f 688/688/230 689/689/230 690/690/230
f 691/691/231 692/692/231 693/693/231
f 694/694/232 695/695/232 696/696/232
f 697/697/233 698/698/233 699/699/233
f 700/700/234 701/701/234 702/702/234
f 703/703/235 704/704/235 705/705/235
f 706/706/236 707/707/236 708/708/236
f 709/709/237 710/710/237 711/711/237
f 712/712/238 713/713/238 714/714/238
f 715/715/239 716/716/239 717/717/239
f 718/718/240 719/719/240 720/720/240
f 721/721/241 722/722/241 723/723/241
f 724/724/242 725/725/242 726/726/242
f 727/727/243 728/728/243 729/729/243
f 730/730/244 731/731/244 732/732/244
f 733/733/245 734/734/245 735/735/245
f 736/736/246 737/737/246 738/738/246
f 739/739/247 740/740/247 741/741/247
f 742/742/248 743/743/248 744/744/248
f 745/745/249 746/746/249 747/747/249
f 748/748/250 749/749/250 750/750/250
f 751/751/251 752/752/251 753/753/251
f 754/754/252 755/755/252 756/756/252
f 757/757/253 758/758/253 759/759/253
f 760/760/254 761/761/254 762/762/254
f 763/763/255 764/764/255 765/765/255
f 766/766/256 767/767/256 768/768/256
f 769/769/257 770/770/257 771/771/257
f 772/772/258 773/773/258 774/774/258
f 775/775/259 776/776/259 777/777/259
f 778/778/260 779/779/260 780/780/260
f 781/781/261 782/782/261 783/783/261
f 784/784/262 785/785/262 786/786/262
f 787/787/263 788/788/263 789/789/263
f 790/790/264 791/791/264 792/792/264
f 793/793/265 794/794/265 795/795/265
f 796/796/266 797/797/266 798/798/266
f 799/799/267 800/800/267 801/801/267
f 802/802/268 803/803/268 804/804/268
f 805/805/269 806/806/269 807/807/269
f 808/808/270 809/809/270 810/810/270
f 811/811/271 812/812/271 813/813/271
f 814/814/272 815/815/272 816/816/272
f 817/817/273 818/818/273 819/819/273
f 820/820/274 821/821/274 822/822/274
f 823/823/275 824/824/275 825/825/275
f 826/826/276 827/827/276 828/828/276
f 829/829/277 830/830/277 831/831/277
f 832/832/278 833/833/278 834/834/278
f 835/835/279 836/836/279 837/837/279
f 838/838/280 839/839/280 840/840/280
f 841/841/281 842/842/281 843/843/281
f 844/844/282 845/845/282 846/846/282
f 847/847/283 848/848/283 849/849/283
f 850/850/284 851/851/284 852/852/284
f 853/853/285 854/854/285 855/855/285
f 856/856/286 857/857/286 858/858/286
f 859/859/287 860/860/287 861/861/287
f 862/862/288 863/863/288 864/864/288
f 865/865/289 866/866/289 867/867/289
f 868/868/290 869/869/290 870/870/290
f 871/871/291 872/872/291 873/873/291
f 874/874/292 875/875/292 876/876/292
f 877/877/293 878/878/293 879/879/293
f 880/880/294 881/881/294 882/882/294
f 883/883/295 884/884/295 885/885/295
f 886/886/296 887/887/296 888/888/296
f 889/889/297 890/890/297 891/891/297
f 892/892/298 893/893/298 894/894/298
f 895/895/299 896/896/299 897/897/299
f 898/898/300 899/899/300 900/900/300
f 901/901/301 902/902/301 903/903/301
f 904/904/302 905/905/302 906/906/302
f 907/907/303 908/908/303 909/909/303
f 910/910/304 911/911/304 912/912/304
f 913/913/305 914/914/305 915/915/305
f 916/916/306 917/917/306 918/918/306
f 919/919/307 920/920/307 921/921/307
f 922/922/308 923/923/308 924/924/308
usemtl flank
f 361/361/121 362/362/121 363/363/121
f 364/364/122 365/365/122 366/366/122
f 367/367/123 368/368/123 369/369/123
f 370/370/124 371/371/124 372/372/124
f 373/373/125 374/374/125 375/375/125
f 376/376/126 377/377/126 378/378/126
f 379/379/127 380/380/127 381/381/127
f 382/382/128 383/383/128 384/384/128
f 385/385/129 386/386/129 387/387/129
f 388/388/130 389/389/130 390/390/130
f 391/391/131 392/392/131 393/393/131
f 394/394/132 395/395/132 396/396/132
f 397/397/133 398/398/133 399/399/133
f 400/400/134 401/401/134 402/402/134
f 403/403/135 404/404/135 405/405/135
f 406/406/136 407/407/136 408/408/136
f 409/409/137 410/410/137 411/411/137
f 412/412/138 413/413/138 414/414/138
f 415/415/139 416/416/139 417/417/139
f 418/418/140 419/419/140 420/420/140
f 421/421/141 422/422/141 423/423/141
f 424/424/142 425/425/142 426/426/142
f 427/427/143 428/428/143 429/429/143
f 430/430/144 431/431/144 432/432/144
f 433/433/145 434/434/145 435/435/145
f 436/436/146 437/437/146 438/438/146
f 439/439/147 440/440/147 441/441/147
f 442/442/148 443/443/148 444/444/148
f 445/445/149 446/446/149 447/447/149
f 448/448/150 449/449/150 450/450/150
f 451/451/151 452/452/151 453/453/151
f 454/454/152 455/455/152 456/456/152
f 457/457/153 458/458/153 459/459/153
f 460/460/154 461/461/154 462/462/154
f 463/463/155 464/464/155 465/465/155
f 466/466/156 467/467/156 468/468/156
f 469/469/157 470/470/157 471/471/157
f 472/472/158 473/473/158 474/474/158
f 475/475/159 476/476/159 477/477/159
f 478/478/160 479/479/160 480/480/160
f 481/481/161 482/482/161 483/483/161
f 484/484/162 485/485/162 486/486/162
f 487/487/163 488/488/163 489/489/163
f 490/490/164 491/491/164 492/492/164
f 493/493/165 494/494/165 495/495/165
f 496/496/166 497/497/166 498/498/166
f 499/499/167 500/500/167 501/501/167
f 502/502/168 503/503/168 504/504/168
