# Procedurally generated by dev-env-utils/scripts/gen_firealarm_obj.py
# Gentex Commander 3 horn strobe
mtllib gentex_commander3_hornstrobe.mtl
o gentex_commander3_hornstrobe
v 0.500000 0.623729 0.937500
v 0.277861 0.970888 0.937500
v 0.307292 0.975533 0.937500
v 0.500000 0.623729 0.937500
v 0.251312 0.957408 0.937500
v 0.277861 0.970888 0.937500
v 0.500000 0.623729 0.937500
v 0.230242 0.936413 0.937500
v 0.251312 0.957408 0.937500
v 0.500000 0.623729 0.937500
v 0.216715 0.909957 0.937500
v 0.230242 0.936413 0.937500
v 0.500000 0.623729 0.937500
v 0.212054 0.880631 0.937500
v 0.216715 0.909957 0.937500
v 0.500000 0.623729 0.937500
v 0.212054 0.366826 0.937500
v 0.212054 0.880631 0.937500
v 0.500000 0.623729 0.937500
v 0.216715 0.337500 0.937500
v 0.212054 0.366826 0.937500
v 0.500000 0.623729 0.937500
v 0.230242 0.311044 0.937500
v 0.216715 0.337500 0.937500
v 0.500000 0.623729 0.937500
v 0.251312 0.290049 0.937500
v 0.230242 0.311044 0.937500
v 0.500000 0.623729 0.937500
v 0.277861 0.276569 0.937500
v 0.251312 0.290049 0.937500
v 0.500000 0.623729 0.937500
v 0.307292 0.271924 0.937500
v 0.277861 0.276569 0.937500
v 0.500000 0.623729 0.937500
v 0.692708 0.271924 0.937500
v 0.307292 0.271924 0.937500
v 0.500000 0.623729 0.937500
v 0.722139 0.276569 0.937500
v 0.692708 0.271924 0.937500
v 0.500000 0.623729 0.937500
v 0.748688 0.290049 0.937500
v 0.722139 0.276569 0.937500
v 0.500000 0.623729 0.937500
v 0.769758 0.311044 0.937500
v 0.748688 0.290049 0.937500
v 0.500000 0.623729 0.937500
v 0.783285 0.337500 0.937500
v 0.769758 0.311044 0.937500
v 0.500000 0.623729 0.937500
v 0.787946 0.366826 0.937500
v 0.783285 0.337500 0.937500
v 0.500000 0.623729 0.937500
v 0.787946 0.880631 0.937500
v 0.787946 0.366826 0.937500
v 0.500000 0.623729 0.937500
v 0.783285 0.909957 0.937500
v 0.787946 0.880631 0.937500
v 0.500000 0.623729 0.937500
v 0.769758 0.936413 0.937500
v 0.783285 0.909957 0.937500
v 0.500000 0.623729 0.937500
v 0.748688 0.957408 0.937500
v 0.769758 0.936413 0.937500
v 0.500000 0.623729 0.937500
v 0.722139 0.970888 0.937500
v 0.748688 0.957408 0.937500
v 0.500000 0.623729 0.937500
v 0.692708 0.975533 0.937500
v 0.722139 0.970888 0.937500
v 0.500000 0.623729 0.937500
v 0.307292 0.975533 0.937500
v 0.692708 0.975533 0.937500
v 0.307292 0.975533 0.937500
v 0.277861 0.970888 0.937500
v 0.277861 0.970888 1.000000
v 0.307292 0.975533 0.937500
v 0.277861 0.970888 1.000000
v 0.307292 0.975533 1.000000
v 0.277861 0.970888 0.937500
v 0.251312 0.957408 0.937500
v 0.251312 0.957408 1.000000
v 0.277861 0.970888 0.937500
v 0.251312 0.957408 1.000000
v 0.277861 0.970888 1.000000
v 0.251312 0.957408 0.937500
v 0.230242 0.936413 0.937500
v 0.230242 0.936413 1.000000
v 0.251312 0.957408 0.937500
v 0.230242 0.936413 1.000000
v 0.251312 0.957408 1.000000
v 0.230242 0.936413 0.937500
v 0.216715 0.909957 0.937500
v 0.216715 0.909957 1.000000
v 0.230242 0.936413 0.937500
v 0.216715 0.909957 1.000000
v 0.230242 0.936413 1.000000
v 0.216715 0.909957 0.937500
v 0.212054 0.880631 0.937500
v 0.212054 0.880631 1.000000
v 0.216715 0.909957 0.937500
v 0.212054 0.880631 1.000000
v 0.216715 0.909957 1.000000
v 0.212054 0.880631 0.937500
v 0.212054 0.366826 0.937500
v 0.212054 0.366826 1.000000
v 0.212054 0.880631 0.937500
v 0.212054 0.366826 1.000000
v 0.212054 0.880631 1.000000
v 0.212054 0.366826 0.937500
v 0.216715 0.337500 0.937500
v 0.216715 0.337500 1.000000
v 0.212054 0.366826 0.937500
v 0.216715 0.337500 1.000000
v 0.212054 0.366826 1.000000
v 0.216715 0.337500 0.937500
v 0.230242 0.311044 0.937500
v 0.230242 0.311044 1.000000
v 0.216715 0.337500 0.937500
v 0.230242 0.311044 1.000000
v 0.216715 0.337500 1.000000
v 0.230242 0.311044 0.937500
v 0.251312 0.290049 0.937500
v 0.251312 0.290049 1.000000
v 0.230242 0.311044 0.937500
v 0.251312 0.290049 1.000000
v 0.230242 0.311044 1.000000
v 0.251312 0.290049 0.937500
v 0.277861 0.276569 0.937500
v 0.277861 0.276569 1.000000
v 0.251312 0.290049 0.937500
v 0.277861 0.276569 1.000000
v 0.251312 0.290049 1.000000
v 0.277861 0.276569 0.937500
v 0.307292 0.271924 0.937500
v 0.307292 0.271924 1.000000
v 0.277861 0.276569 0.937500
v 0.307292 0.271924 1.000000
v 0.277861 0.276569 1.000000
v 0.307292 0.271924 0.937500
v 0.692708 0.271924 0.937500
v 0.692708 0.271924 1.000000
v 0.307292 0.271924 0.937500
v 0.692708 0.271924 1.000000
v 0.307292 0.271924 1.000000
v 0.692708 0.271924 0.937500
v 0.722139 0.276569 0.937500
v 0.722139 0.276569 1.000000
v 0.692708 0.271924 0.937500
v 0.722139 0.276569 1.000000
v 0.692708 0.271924 1.000000
v 0.722139 0.276569 0.937500
v 0.748688 0.290049 0.937500
v 0.748688 0.290049 1.000000
v 0.722139 0.276569 0.937500
v 0.748688 0.290049 1.000000
v 0.722139 0.276569 1.000000
v 0.748688 0.290049 0.937500
v 0.769758 0.311044 0.937500
v 0.769758 0.311044 1.000000
v 0.748688 0.290049 0.937500
v 0.769758 0.311044 1.000000
v 0.748688 0.290049 1.000000
v 0.769758 0.311044 0.937500
v 0.783285 0.337500 0.937500
v 0.783285 0.337500 1.000000
v 0.769758 0.311044 0.937500
v 0.783285 0.337500 1.000000
v 0.769758 0.311044 1.000000
v 0.783285 0.337500 0.937500
v 0.787946 0.366826 0.937500
v 0.787946 0.366826 1.000000
v 0.783285 0.337500 0.937500
v 0.787946 0.366826 1.000000
v 0.783285 0.337500 1.000000
v 0.787946 0.366826 0.937500
v 0.787946 0.880631 0.937500
v 0.787946 0.880631 1.000000
v 0.787946 0.366826 0.937500
v 0.787946 0.880631 1.000000
v 0.787946 0.366826 1.000000
v 0.787946 0.880631 0.937500
v 0.783285 0.909957 0.937500
v 0.783285 0.909957 1.000000
v 0.787946 0.880631 0.937500
v 0.783285 0.909957 1.000000
v 0.787946 0.880631 1.000000
v 0.783285 0.909957 0.937500
v 0.769758 0.936413 0.937500
v 0.769758 0.936413 1.000000
v 0.783285 0.909957 0.937500
v 0.769758 0.936413 1.000000
v 0.783285 0.909957 1.000000
v 0.769758 0.936413 0.937500
v 0.748688 0.957408 0.937500
v 0.748688 0.957408 1.000000
v 0.769758 0.936413 0.937500
v 0.748688 0.957408 1.000000
v 0.769758 0.936413 1.000000
v 0.748688 0.957408 0.937500
v 0.722139 0.970888 0.937500
v 0.722139 0.970888 1.000000
v 0.748688 0.957408 0.937500
v 0.722139 0.970888 1.000000
v 0.748688 0.957408 1.000000
v 0.722139 0.970888 0.937500
v 0.692708 0.975533 0.937500
v 0.692708 0.975533 1.000000
v 0.722139 0.970888 0.937500
v 0.692708 0.975533 1.000000
v 0.722139 0.970888 1.000000
v 0.692708 0.975533 0.937500
v 0.307292 0.975533 0.937500
v 0.307292 0.975533 1.000000
v 0.692708 0.975533 0.937500
v 0.307292 0.975533 1.000000
v 0.692708 0.975533 1.000000
v 0.500000 0.623729 1.000000
v 0.307292 0.975533 1.000000
v 0.277861 0.970888 1.000000
v 0.500000 0.623729 1.000000
v 0.277861 0.970888 1.000000
v 0.251312 0.957408 1.000000
v 0.500000 0.623729 1.000000
v 0.251312 0.957408 1.000000
v 0.230242 0.936413 1.000000
v 0.500000 0.623729 1.000000
v 0.230242 0.936413 1.000000
v 0.216715 0.909957 1.000000
v 0.500000 0.623729 1.000000
v 0.216715 0.909957 1.000000
v 0.212054 0.880631 1.000000
v 0.500000 0.623729 1.000000
v 0.212054 0.880631 1.000000
v 0.212054 0.366826 1.000000
v 0.500000 0.623729 1.000000
v 0.212054 0.366826 1.000000
v 0.216715 0.337500 1.000000
v 0.500000 0.623729 1.000000
v 0.216715 0.337500 1.000000
v 0.230242 0.311044 1.000000
v 0.500000 0.623729 1.000000
v 0.230242 0.311044 1.000000
v 0.251312 0.290049 1.000000
v 0.500000 0.623729 1.000000
v 0.251312 0.290049 1.000000
v 0.277861 0.276569 1.000000
v 0.500000 0.623729 1.000000
v 0.277861 0.276569 1.000000
v 0.307292 0.271924 1.000000
v 0.500000 0.623729 1.000000
v 0.307292 0.271924 1.000000
v 0.692708 0.271924 1.000000
v 0.500000 0.623729 1.000000
v 0.692708 0.271924 1.000000
v 0.722139 0.276569 1.000000
v 0.500000 0.623729 1.000000
v 0.722139 0.276569 1.000000
v 0.748688 0.290049 1.000000
v 0.500000 0.623729 1.000000
v 0.748688 0.290049 1.000000
v 0.769758 0.311044 1.000000
v 0.500000 0.623729 1.000000
v 0.769758 0.311044 1.000000
v 0.783285 0.337500 1.000000
v 0.500000 0.623729 1.000000
v 0.783285 0.337500 1.000000
v 0.787946 0.366826 1.000000
v 0.500000 0.623729 1.000000
v 0.787946 0.366826 1.000000
v 0.787946 0.880631 1.000000
v 0.500000 0.623729 1.000000
v 0.787946 0.880631 1.000000
v 0.783285 0.909957 1.000000
v 0.500000 0.623729 1.000000
v 0.783285 0.909957 1.000000
v 0.769758 0.936413 1.000000
v 0.500000 0.623729 1.000000
v 0.769758 0.936413 1.000000
v 0.748688 0.957408 1.000000
v 0.500000 0.623729 1.000000
v 0.748688 0.957408 1.000000
v 0.722139 0.970888 1.000000
v 0.500000 0.623729 1.000000
v 0.722139 0.970888 1.000000
v 0.692708 0.975533 1.000000
v 0.500000 0.623729 1.000000
v 0.692708 0.975533 1.000000
v 0.307292 0.975533 1.000000
v 0.625446 0.293277 0.937500
v 0.639196 0.295087 0.853125
v 0.639196 0.295087 0.937500
v 0.625446 0.293277 0.937500
v 0.625446 0.293277 0.853125
v 0.639196 0.295087 0.853125
v 0.639196 0.295087 0.937500
v 0.652009 0.300394 0.853125
v 0.652009 0.300394 0.937500
v 0.639196 0.295087 0.937500
v 0.639196 0.295087 0.853125
v 0.652009 0.300394 0.853125
v 0.652009 0.300394 0.937500
v 0.663011 0.308837 0.853125
v 0.663011 0.308837 0.937500
v 0.652009 0.300394 0.937500
v 0.652009 0.300394 0.853125
v 0.663011 0.308837 0.853125
v 0.663011 0.308837 0.937500
v 0.671454 0.319839 0.853125
v 0.671454 0.319839 0.937500
v 0.663011 0.308837 0.937500
v 0.663011 0.308837 0.853125
v 0.671454 0.319839 0.853125
v 0.671454 0.319839 0.937500
v 0.676761 0.332652 0.853125
v 0.676761 0.332652 0.937500
v 0.671454 0.319839 0.937500
v 0.671454 0.319839 0.853125
v 0.676761 0.332652 0.853125
v 0.676761 0.332652 0.937500
v 0.678571 0.346402 0.853125
v 0.678571 0.346402 0.937500
v 0.676761 0.332652 0.937500
v 0.676761 0.332652 0.853125
v 0.678571 0.346402 0.853125
v 0.678571 0.346402 0.937500
v 0.678571 0.890230 0.853125
v 0.678571 0.890230 0.937500
v 0.678571 0.346402 0.937500
v 0.678571 0.346402 0.853125
v 0.678571 0.890230 0.853125
v 0.678571 0.890230 0.937500
v 0.676761 0.903980 0.853125
v 0.676761 0.903980 0.937500
v 0.678571 0.890230 0.937500
v 0.678571 0.890230 0.853125
v 0.676761 0.903980 0.853125
v 0.676761 0.903980 0.937500
v 0.671454 0.916793 0.853125
v 0.671454 0.916793 0.937500
v 0.676761 0.903980 0.937500
v 0.676761 0.903980 0.853125
v 0.671454 0.916793 0.853125
v 0.671454 0.916793 0.937500
v 0.663011 0.927795 0.853125
v 0.663011 0.927795 0.937500
v 0.671454 0.916793 0.937500
v 0.671454 0.916793 0.853125
v 0.663011 0.927795 0.853125
v 0.663011 0.927795 0.937500
v 0.652009 0.936238 0.853125
v 0.652009 0.936238 0.937500
v 0.663011 0.927795 0.937500
v 0.663011 0.927795 0.853125
v 0.652009 0.936238 0.853125
v 0.652009 0.936238 0.937500
v 0.639196 0.941545 0.853125
v 0.639196 0.941545 0.937500
v 0.652009 0.936238 0.937500
v 0.652009 0.936238 0.853125
v 0.639196 0.941545 0.853125
v 0.639196 0.941545 0.937500
v 0.625446 0.943355 0.853125
v 0.625446 0.943355 0.937500
v 0.639196 0.941545 0.937500
v 0.639196 0.941545 0.853125
v 0.625446 0.943355 0.853125
v 0.625446 0.943355 0.937500
v 0.374554 0.943355 0.853125
v 0.374554 0.943355 0.937500
v 0.625446 0.943355 0.937500
v 0.625446 0.943355 0.853125
v 0.374554 0.943355 0.853125
v 0.374554 0.943355 0.937500
v 0.360804 0.941545 0.853125
v 0.360804 0.941545 0.937500
v 0.374554 0.943355 0.937500
v 0.374554 0.943355 0.853125
v 0.360804 0.941545 0.853125
v 0.360804 0.941545 0.937500
v 0.347991 0.936238 0.853125
v 0.347991 0.936238 0.937500
v 0.360804 0.941545 0.937500
v 0.360804 0.941545 0.853125
v 0.347991 0.936238 0.853125
v 0.347991 0.936238 0.937500
v 0.336989 0.927795 0.853125
v 0.336989 0.927795 0.937500
v 0.347991 0.936238 0.937500
v 0.347991 0.936238 0.853125
v 0.336989 0.927795 0.853125
v 0.336989 0.927795 0.937500
v 0.328546 0.916793 0.853125
v 0.328546 0.916793 0.937500
v 0.336989 0.927795 0.937500
v 0.336989 0.927795 0.853125
v 0.328546 0.916793 0.853125
v 0.328546 0.916793 0.937500
v 0.323239 0.903980 0.853125
v 0.323239 0.903980 0.937500
v 0.328546 0.916793 0.937500
v 0.328546 0.916793 0.853125
v 0.323239 0.903980 0.853125
v 0.323239 0.903980 0.937500
v 0.321429 0.890230 0.853125
v 0.321429 0.890230 0.937500
v 0.323239 0.903980 0.937500
v 0.323239 0.903980 0.853125
v 0.321429 0.890230 0.853125
v 0.321429 0.890230 0.937500
v 0.321429 0.346402 0.853125
v 0.321429 0.346402 0.937500
v 0.321429 0.890230 0.937500
v 0.321429 0.890230 0.853125
v 0.321429 0.346402 0.853125
v 0.321429 0.346402 0.937500
v 0.323239 0.332652 0.853125
v 0.323239 0.332652 0.937500
v 0.321429 0.346402 0.937500
v 0.321429 0.346402 0.853125
v 0.323239 0.332652 0.853125
v 0.323239 0.332652 0.937500
v 0.328546 0.319839 0.853125
v 0.328546 0.319839 0.937500
v 0.323239 0.332652 0.937500
v 0.323239 0.332652 0.853125
v 0.328546 0.319839 0.853125
v 0.328546 0.319839 0.937500
v 0.336989 0.308837 0.853125
v 0.336989 0.308837 0.937500
v 0.328546 0.319839 0.937500
v 0.328546 0.319839 0.853125
v 0.336989 0.308837 0.853125
v 0.336989 0.308837 0.937500
v 0.347991 0.300394 0.853125
v 0.347991 0.300394 0.937500
v 0.336989 0.308837 0.937500
v 0.336989 0.308837 0.853125
v 0.347991 0.300394 0.853125
v 0.347991 0.300394 0.937500
v 0.360804 0.295087 0.853125
v 0.360804 0.295087 0.937500
v 0.347991 0.300394 0.937500
v 0.347991 0.300394 0.853125
v 0.360804 0.295087 0.853125
v 0.360804 0.295087 0.937500
v 0.374554 0.293277 0.853125
v 0.374554 0.293277 0.937500
v 0.360804 0.295087 0.937500
v 0.360804 0.295087 0.853125
v 0.374554 0.293277 0.853125
v 0.374554 0.293277 0.937500
v 0.625446 0.293277 0.853125
v 0.625446 0.293277 0.937500
v 0.374554 0.293277 0.937500
v 0.374554 0.293277 0.853125
v 0.625446 0.293277 0.853125
v 0.625446 0.293277 0.853125
v 0.633758 0.307716 0.831250
v 0.639196 0.295087 0.853125
v 0.625446 0.293277 0.853125
v 0.620496 0.306105 0.831250
v 0.633758 0.307716 0.831250
v 0.639196 0.295087 0.853125
v 0.646078 0.312799 0.831250
v 0.652009 0.300394 0.853125
v 0.639196 0.295087 0.853125
v 0.633758 0.307716 0.831250
v 0.646078 0.312799 0.831250
v 0.652009 0.300394 0.853125
v 0.656604 0.321002 0.831250
v 0.663011 0.308837 0.853125
v 0.652009 0.300394 0.853125
v 0.646078 0.312799 0.831250
v 0.656604 0.321002 0.831250
v 0.663011 0.308837 0.853125
v 0.664605 0.331762 0.831250
v 0.671454 0.319839 0.853125
v 0.663011 0.308837 0.853125
v 0.656604 0.321002 0.831250
v 0.664605 0.331762 0.831250
v 0.671454 0.319839 0.853125
v 0.669526 0.344345 0.831250
v 0.676761 0.332652 0.853125
v 0.671454 0.319839 0.853125
v 0.664605 0.331762 0.831250
v 0.669526 0.344345 0.831250
v 0.676761 0.332652 0.853125
v 0.671024 0.357895 0.831250
v 0.678571 0.346402 0.853125
v 0.676761 0.332652 0.853125
v 0.669526 0.344345 0.831250
v 0.671024 0.357895 0.831250
v 0.678571 0.346402 0.853125
v 0.671024 0.878737 0.831250
v 0.678571 0.890230 0.853125
v 0.678571 0.346402 0.853125
v 0.671024 0.357895 0.831250
v 0.671024 0.878737 0.831250
v 0.678571 0.890230 0.853125
v 0.669526 0.892288 0.831250
v 0.676761 0.903980 0.853125
v 0.678571 0.890230 0.853125
v 0.671024 0.878737 0.831250
v 0.669526 0.892288 0.831250
v 0.676761 0.903980 0.853125
v 0.664605 0.904870 0.831250
v 0.671454 0.916793 0.853125
v 0.676761 0.903980 0.853125
v 0.669526 0.892288 0.831250
v 0.664605 0.904870 0.831250
v 0.671454 0.916793 0.853125
v 0.656604 0.915630 0.831250
v 0.663011 0.927795 0.853125
v 0.671454 0.916793 0.853125
v 0.664605 0.904870 0.831250
v 0.656604 0.915630 0.831250
v 0.663011 0.927795 0.853125
v 0.646078 0.923833 0.831250
v 0.652009 0.936238 0.853125
v 0.663011 0.927795 0.853125
v 0.656604 0.915630 0.831250
v 0.646078 0.923833 0.831250
v 0.652009 0.936238 0.853125
v 0.633758 0.928916 0.831250
v 0.639196 0.941545 0.853125
v 0.652009 0.936238 0.853125
v 0.646078 0.923833 0.831250
v 0.633758 0.928916 0.831250
v 0.639196 0.941545 0.853125
v 0.620496 0.930528 0.831250
v 0.625446 0.943355 0.853125
v 0.639196 0.941545 0.853125
v 0.633758 0.928916 0.831250
v 0.620496 0.930528 0.831250
v 0.625446 0.943355 0.853125
v 0.379504 0.930528 0.831250
v 0.374554 0.943355 0.853125
v 0.625446 0.943355 0.853125
v 0.620496 0.930528 0.831250
v 0.379504 0.930528 0.831250
v 0.374554 0.943355 0.853125
v 0.366242 0.928916 0.831250
v 0.360804 0.941545 0.853125
v 0.374554 0.943355 0.853125
v 0.379504 0.930528 0.831250
v 0.366242 0.928916 0.831250
v 0.360804 0.941545 0.853125
v 0.353922 0.923833 0.831250
v 0.347991 0.936238 0.853125
v 0.360804 0.941545 0.853125
v 0.366242 0.928916 0.831250
v 0.353922 0.923833 0.831250
v 0.347991 0.936238 0.853125
v 0.343396 0.915630 0.831250
v 0.336989 0.927795 0.853125
v 0.347991 0.936238 0.853125
v 0.353922 0.923833 0.831250
v 0.343396 0.915630 0.831250
v 0.336989 0.927795 0.853125
v 0.335395 0.904870 0.831250
v 0.328546 0.916793 0.853125
v 0.336989 0.927795 0.853125
v 0.343396 0.915630 0.831250
v 0.335395 0.904870 0.831250
v 0.328546 0.916793 0.853125
v 0.330474 0.892288 0.831250
v 0.323239 0.903980 0.853125
v 0.328546 0.916793 0.853125
v 0.335395 0.904870 0.831250
v 0.330474 0.892288 0.831250
v 0.323239 0.903980 0.853125
v 0.328976 0.878737 0.831250
v 0.321429 0.890230 0.853125
v 0.323239 0.903980 0.853125
v 0.330474 0.892288 0.831250
v 0.328976 0.878737 0.831250
v 0.321429 0.890230 0.853125
v 0.328976 0.357895 0.831250
v 0.321429 0.346402 0.853125
v 0.321429 0.890230 0.853125
v 0.328976 0.878737 0.831250
v 0.328976 0.357895 0.831250
v 0.321429 0.346402 0.853125
v 0.330474 0.344345 0.831250
v 0.323239 0.332652 0.853125
v 0.321429 0.346402 0.853125
v 0.328976 0.357895 0.831250
v 0.330474 0.344345 0.831250
v 0.323239 0.332652 0.853125
v 0.335395 0.331762 0.831250
v 0.328546 0.319839 0.853125
v 0.323239 0.332652 0.853125
v 0.330474 0.344345 0.831250
v 0.335395 0.331762 0.831250
v 0.328546 0.319839 0.853125
v 0.343396 0.321002 0.831250
v 0.336989 0.308837 0.853125
v 0.328546 0.319839 0.853125
v 0.335395 0.331762 0.831250
v 0.343396 0.321002 0.831250
v 0.336989 0.308837 0.853125
v 0.353922 0.312799 0.831250
v 0.347991 0.300394 0.853125
v 0.336989 0.308837 0.853125
v 0.343396 0.321002 0.831250
v 0.353922 0.312799 0.831250
v 0.347991 0.300394 0.853125
v 0.366242 0.307716 0.831250
v 0.360804 0.295087 0.853125
v 0.347991 0.300394 0.853125
v 0.353922 0.312799 0.831250
v 0.366242 0.307716 0.831250
v 0.360804 0.295087 0.853125
v 0.379504 0.306105 0.831250
v 0.374554 0.293277 0.853125
v 0.360804 0.295087 0.853125
v 0.366242 0.307716 0.831250
v 0.379504 0.306105 0.831250
v 0.374554 0.293277 0.853125
v 0.620496 0.306105 0.831250
v 0.625446 0.293277 0.853125
v 0.374554 0.293277 0.853125
v 0.379504 0.306105 0.831250
v 0.620496 0.306105 0.831250
v 0.500000 0.618316 0.831250
v 0.633758 0.307716 0.831250
v 0.620496 0.306105 0.831250
v 0.500000 0.618316 0.831250
v 0.646078 0.312799 0.831250
v 0.633758 0.307716 0.831250
v 0.500000 0.618316 0.831250
v 0.656604 0.321002 0.831250
v 0.646078 0.312799 0.831250
v 0.500000 0.618316 0.831250
v 0.664605 0.331762 0.831250
v 0.656604 0.321002 0.831250
v 0.500000 0.618316 0.831250
v 0.669526 0.344345 0.831250
v 0.664605 0.331762 0.831250
v 0.500000 0.618316 0.831250
v 0.671024 0.357895 0.831250
v 0.669526 0.344345 0.831250
v 0.500000 0.618316 0.831250
v 0.671024 0.878737 0.831250
v 0.671024 0.357895 0.831250
v 0.500000 0.618316 0.831250
v 0.669526 0.892288 0.831250
v 0.671024 0.878737 0.831250
v 0.500000 0.618316 0.831250
v 0.664605 0.904870 0.831250
v 0.669526 0.892288 0.831250
v 0.500000 0.618316 0.831250
v 0.656604 0.915630 0.831250
v 0.664605 0.904870 0.831250
v 0.500000 0.618316 0.831250
v 0.646078 0.923833 0.831250
v 0.656604 0.915630 0.831250
v 0.500000 0.618316 0.831250
v 0.633758 0.928916 0.831250
v 0.646078 0.923833 0.831250
v 0.500000 0.618316 0.831250
v 0.620496 0.930528 0.831250
v 0.633758 0.928916 0.831250
v 0.500000 0.618316 0.831250
v 0.379504 0.930528 0.831250
v 0.620496 0.930528 0.831250
v 0.500000 0.618316 0.831250
v 0.366242 0.928916 0.831250
v 0.379504 0.930528 0.831250
v 0.500000 0.618316 0.831250
v 0.353922 0.923833 0.831250
v 0.366242 0.928916 0.831250
v 0.500000 0.618316 0.831250
v 0.343396 0.915630 0.831250
v 0.353922 0.923833 0.831250
v 0.500000 0.618316 0.831250
v 0.335395 0.904870 0.831250
v 0.343396 0.915630 0.831250
v 0.500000 0.618316 0.831250
v 0.330474 0.892288 0.831250
v 0.335395 0.904870 0.831250
v 0.500000 0.618316 0.831250
v 0.328976 0.878737 0.831250
v 0.330474 0.892288 0.831250
v 0.500000 0.618316 0.831250
v 0.328976 0.357895 0.831250
v 0.328976 0.878737 0.831250
v 0.500000 0.618316 0.831250
v 0.330474 0.344345 0.831250
v 0.328976 0.357895 0.831250
v 0.500000 0.618316 0.831250
v 0.335395 0.331762 0.831250
v 0.330474 0.344345 0.831250
v 0.500000 0.618316 0.831250
v 0.343396 0.321002 0.831250
v 0.335395 0.331762 0.831250
v 0.500000 0.618316 0.831250
v 0.353922 0.312799 0.831250
v 0.343396 0.321002 0.831250
v 0.500000 0.618316 0.831250
v 0.366242 0.307716 0.831250
v 0.353922 0.312799 0.831250
v 0.500000 0.618316 0.831250
v 0.379504 0.306105 0.831250
v 0.366242 0.307716 0.831250
v 0.500000 0.618316 0.831250
v 0.620496 0.306105 0.831250
v 0.379504 0.306105 0.831250
v 0.629315 0.674071 0.831250
v 0.638212 0.675242 0.746875
v 0.638212 0.675242 0.831250
v 0.629315 0.674071 0.831250
v 0.629315 0.674071 0.746875
v 0.638212 0.675242 0.746875
v 0.638212 0.675242 0.831250
v 0.646503 0.678676 0.746875
v 0.646503 0.678676 0.831250
v 0.638212 0.675242 0.831250
v 0.638212 0.675242 0.746875
v 0.646503 0.678676 0.746875
v 0.646503 0.678676 0.831250
v 0.653622 0.684139 0.746875
v 0.653622 0.684139 0.831250
v 0.646503 0.678676 0.831250
v 0.646503 0.678676 0.746875
v 0.653622 0.684139 0.746875
v 0.653622 0.684139 0.831250
v 0.659085 0.691259 0.746875
v 0.659085 0.691259 0.831250
v 0.653622 0.684139 0.831250
v 0.653622 0.684139 0.746875
v 0.659085 0.691259 0.746875
v 0.659085 0.691259 0.831250
v 0.662519 0.699549 0.746875
v 0.662519 0.699549 0.831250
v 0.659085 0.691259 0.831250
v 0.659085 0.691259 0.746875
v 0.662519 0.699549 0.746875
v 0.662519 0.699549 0.831250
v 0.663690 0.708446 0.746875
v 0.663690 0.708446 0.831250
v 0.662519 0.699549 0.831250
v 0.662519 0.699549 0.746875
v 0.663690 0.708446 0.746875
v 0.663690 0.708446 0.831250
v 0.663690 0.899490 0.746875
v 0.663690 0.899490 0.831250
v 0.663690 0.708446 0.831250
v 0.663690 0.708446 0.746875
v 0.663690 0.899490 0.746875
v 0.663690 0.899490 0.831250
v 0.662519 0.908387 0.746875
v 0.662519 0.908387 0.831250
v 0.663690 0.899490 0.831250
v 0.663690 0.899490 0.746875
v 0.662519 0.908387 0.746875
v 0.662519 0.908387 0.831250
v 0.659085 0.916678 0.746875
v 0.659085 0.916678 0.831250
v 0.662519 0.908387 0.831250
v 0.662519 0.908387 0.746875
v 0.659085 0.916678 0.746875
v 0.659085 0.916678 0.831250
v 0.653622 0.923797 0.746875
v 0.653622 0.923797 0.831250
v 0.659085 0.916678 0.831250
v 0.659085 0.916678 0.746875
v 0.653622 0.923797 0.746875
v 0.653622 0.923797 0.831250
v 0.646503 0.929260 0.746875
v 0.646503 0.929260 0.831250
v 0.653622 0.923797 0.831250
v 0.653622 0.923797 0.746875
v 0.646503 0.929260 0.746875
v 0.646503 0.929260 0.831250
v 0.638212 0.932694 0.746875
v 0.638212 0.932694 0.831250
v 0.646503 0.929260 0.831250
v 0.646503 0.929260 0.746875
v 0.638212 0.932694 0.746875
v 0.638212 0.932694 0.831250
v 0.629315 0.933865 0.746875
v 0.629315 0.933865 0.831250
v 0.638212 0.932694 0.831250
v 0.638212 0.932694 0.746875
v 0.629315 0.933865 0.746875
v 0.629315 0.933865 0.831250
v 0.362946 0.933865 0.746875
v 0.362946 0.933865 0.831250
v 0.629315 0.933865 0.831250
v 0.629315 0.933865 0.746875
v 0.362946 0.933865 0.746875
v 0.362946 0.933865 0.831250
v 0.354050 0.932694 0.746875
v 0.354050 0.932694 0.831250
v 0.362946 0.933865 0.831250
v 0.362946 0.933865 0.746875
v 0.354050 0.932694 0.746875
v 0.354050 0.932694 0.831250
v 0.345759 0.929260 0.746875
v 0.345759 0.929260 0.831250
v 0.354050 0.932694 0.831250
v 0.354050 0.932694 0.746875
v 0.345759 0.929260 0.746875
v 0.345759 0.929260 0.831250
v 0.338640 0.923797 0.746875
v 0.338640 0.923797 0.831250
v 0.345759 0.929260 0.831250
v 0.345759 0.929260 0.746875
v 0.338640 0.923797 0.746875
v 0.338640 0.923797 0.831250
v 0.333177 0.916678 0.746875
v 0.333177 0.916678 0.831250
v 0.338640 0.923797 0.831250
v 0.338640 0.923797 0.746875
v 0.333177 0.916678 0.746875
v 0.333177 0.916678 0.831250
v 0.329743 0.908387 0.746875
v 0.329743 0.908387 0.831250
v 0.333177 0.916678 0.831250
v 0.333177 0.916678 0.746875
v 0.329743 0.908387 0.746875
v 0.329743 0.908387 0.831250
v 0.328571 0.899490 0.746875
v 0.328571 0.899490 0.831250
v 0.329743 0.908387 0.831250
v 0.329743 0.908387 0.746875
v 0.328571 0.899490 0.746875
v 0.328571 0.899490 0.831250
v 0.328571 0.708446 0.746875
v 0.328571 0.708446 0.831250
v 0.328571 0.899490 0.831250
v 0.328571 0.899490 0.746875
v 0.328571 0.708446 0.746875
v 0.328571 0.708446 0.831250
v 0.329743 0.699549 0.746875
v 0.329743 0.699549 0.831250
v 0.328571 0.708446 0.831250
v 0.328571 0.708446 0.746875
v 0.329743 0.699549 0.746875
v 0.329743 0.699549 0.831250
v 0.333177 0.691259 0.746875
v 0.333177 0.691259 0.831250
v 0.329743 0.699549 0.831250
v 0.329743 0.699549 0.746875
v 0.333177 0.691259 0.746875
v 0.333177 0.691259 0.831250
v 0.338640 0.684139 0.746875
v 0.338640 0.684139 0.831250
v 0.333177 0.691259 0.831250
v 0.333177 0.691259 0.746875
v 0.338640 0.684139 0.746875
v 0.338640 0.684139 0.831250
v 0.345759 0.678676 0.746875
v 0.345759 0.678676 0.831250
v 0.338640 0.684139 0.831250
v 0.338640 0.684139 0.746875
v 0.345759 0.678676 0.746875
v 0.345759 0.678676 0.831250
v 0.354050 0.675242 0.746875
v 0.354050 0.675242 0.831250
v 0.345759 0.678676 0.831250
v 0.345759 0.678676 0.746875
v 0.354050 0.675242 0.746875
v 0.354050 0.675242 0.831250
v 0.362946 0.674071 0.746875
v 0.362946 0.674071 0.831250
v 0.354050 0.675242 0.831250
v 0.354050 0.675242 0.746875
v 0.362946 0.674071 0.746875
v 0.362946 0.674071 0.831250
v 0.629315 0.674071 0.746875
v 0.629315 0.674071 0.831250
v 0.362946 0.674071 0.831250
v 0.362946 0.674071 0.746875
v 0.629315 0.674071 0.746875
v 0.629315 0.674071 0.746875
v 0.625243 0.686992 0.718750
v 0.638212 0.675242 0.746875
v 0.629315 0.674071 0.746875
v 0.616787 0.686290 0.718750
v 0.625243 0.686992 0.718750
v 0.638212 0.675242 0.746875
v 0.633058 0.689879 0.718750
v 0.646503 0.678676 0.746875
v 0.638212 0.675242 0.746875
v 0.625243 0.686992 0.718750
v 0.633058 0.689879 0.718750
v 0.646503 0.678676 0.746875
v 0.639695 0.694736 0.718750
v 0.653622 0.684139 0.746875
v 0.646503 0.678676 0.746875
v 0.633058 0.689879 0.718750
v 0.639695 0.694736 0.718750
v 0.653622 0.684139 0.746875
v 0.644692 0.701213 0.718750
v 0.659085 0.691259 0.746875
v 0.653622 0.684139 0.746875
v 0.639695 0.694736 0.718750
v 0.644692 0.701213 0.718750
v 0.659085 0.691259 0.746875
v 0.647696 0.708851 0.718750
v 0.662519 0.699549 0.746875
v 0.659085 0.691259 0.746875
v 0.644692 0.701213 0.718750
v 0.647696 0.708851 0.718750
v 0.662519 0.699549 0.746875
v 0.648487 0.717113 0.718750
v 0.663690 0.708446 0.746875
v 0.662519 0.699549 0.746875
v 0.647696 0.708851 0.718750
v 0.648487 0.717113 0.718750
v 0.663690 0.708446 0.746875
v 0.648487 0.890823 0.718750
v 0.663690 0.899490 0.746875
v 0.663690 0.708446 0.746875
v 0.648487 0.717113 0.718750
v 0.648487 0.890823 0.718750
v 0.663690 0.899490 0.746875
v 0.647696 0.899085 0.718750
v 0.662519 0.908387 0.746875
v 0.663690 0.899490 0.746875
v 0.648487 0.890823 0.718750
v 0.647696 0.899085 0.718750
v 0.662519 0.908387 0.746875
v 0.644692 0.906723 0.718750
v 0.659085 0.916678 0.746875
v 0.662519 0.908387 0.746875
v 0.647696 0.899085 0.718750
v 0.644692 0.906723 0.718750
v 0.659085 0.916678 0.746875
v 0.639695 0.913200 0.718750
v 0.653622 0.923797 0.746875
v 0.659085 0.916678 0.746875
v 0.644692 0.906723 0.718750
v 0.639695 0.913200 0.718750
v 0.653622 0.923797 0.746875
v 0.633058 0.918058 0.718750
v 0.646503 0.929260 0.746875
v 0.653622 0.923797 0.746875
v 0.639695 0.913200 0.718750
v 0.633058 0.918058 0.718750
v 0.646503 0.929260 0.746875
v 0.625243 0.920944 0.718750
v 0.638212 0.932694 0.746875
v 0.646503 0.929260 0.746875
v 0.633058 0.918058 0.718750
v 0.625243 0.920944 0.718750
v 0.638212 0.932694 0.746875
v 0.616787 0.921646 0.718750
v 0.629315 0.933865 0.746875
v 0.638212 0.932694 0.746875
v 0.625243 0.920944 0.718750
v 0.616787 0.921646 0.718750
v 0.629315 0.933865 0.746875
v 0.375474 0.921646 0.718750
v 0.362946 0.933865 0.746875
v 0.629315 0.933865 0.746875
v 0.616787 0.921646 0.718750
v 0.375474 0.921646 0.718750
v 0.362946 0.933865 0.746875
v 0.367018 0.920944 0.718750
v 0.354050 0.932694 0.746875
v 0.362946 0.933865 0.746875
v 0.375474 0.921646 0.718750
v 0.367018 0.920944 0.718750
v 0.354050 0.932694 0.746875
v 0.359204 0.918058 0.718750
v 0.345759 0.929260 0.746875
v 0.354050 0.932694 0.746875
v 0.367018 0.920944 0.718750
v 0.359204 0.918058 0.718750
v 0.345759 0.929260 0.746875
v 0.352567 0.913200 0.718750
v 0.338640 0.923797 0.746875
v 0.345759 0.929260 0.746875
v 0.359204 0.918058 0.718750
v 0.352567 0.913200 0.718750
v 0.338640 0.923797 0.746875
v 0.347570 0.906723 0.718750
v 0.333177 0.916678 0.746875
v 0.338640 0.923797 0.746875
v 0.352567 0.913200 0.718750
v 0.347570 0.906723 0.718750
v 0.333177 0.916678 0.746875
v 0.344566 0.899085 0.718750
v 0.329743 0.908387 0.746875
v 0.333177 0.916678 0.746875
v 0.347570 0.906723 0.718750
v 0.344566 0.899085 0.718750
v 0.329743 0.908387 0.746875
v 0.343775 0.890823 0.718750
v 0.328571 0.899490 0.746875
v 0.329743 0.908387 0.746875
v 0.344566 0.899085 0.718750
v 0.343775 0.890823 0.718750
v 0.328571 0.899490 0.746875
v 0.343775 0.717113 0.718750
v 0.328571 0.708446 0.746875
v 0.328571 0.899490 0.746875
v 0.343775 0.890823 0.718750
v 0.343775 0.717113 0.718750
v 0.328571 0.708446 0.746875
v 0.344566 0.708851 0.718750
v 0.329743 0.699549 0.746875
v 0.328571 0.708446 0.746875
v 0.343775 0.717113 0.718750
v 0.344566 0.708851 0.718750
v 0.329743 0.699549 0.746875
v 0.347570 0.701213 0.718750
v 0.333177 0.691259 0.746875
v 0.329743 0.699549 0.746875
v 0.344566 0.708851 0.718750
v 0.347570 0.701213 0.718750
v 0.333177 0.691259 0.746875
v 0.352567 0.694736 0.718750
v 0.338640 0.684139 0.746875
v 0.333177 0.691259 0.746875
v 0.347570 0.701213 0.718750
v 0.352567 0.694736 0.718750
v 0.338640 0.684139 0.746875
v 0.359204 0.689879 0.718750
v 0.345759 0.678676 0.746875
v 0.338640 0.684139 0.746875
v 0.352567 0.694736 0.718750
v 0.359204 0.689879 0.718750
v 0.345759 0.678676 0.746875
v 0.367018 0.686992 0.718750
v 0.354050 0.675242 0.746875
v 0.345759 0.678676 0.746875
v 0.359204 0.689879 0.718750
v 0.367018 0.686992 0.718750
v 0.354050 0.675242 0.746875
v 0.375474 0.686290 0.718750
v 0.362946 0.674071 0.746875
v 0.354050 0.675242 0.746875
v 0.367018 0.686992 0.718750
v 0.375474 0.686290 0.718750
v 0.362946 0.674071 0.746875
v 0.616787 0.686290 0.718750
v 0.629315 0.674071 0.746875
v 0.362946 0.674071 0.746875
v 0.375474 0.686290 0.718750
v 0.616787 0.686290 0.718750
v 0.496131 0.803968 0.718750
v 0.625243 0.686992 0.718750
v 0.616787 0.686290 0.718750
v 0.496131 0.803968 0.718750
v 0.633058 0.689879 0.718750
v 0.625243 0.686992 0.718750
v 0.496131 0.803968 0.718750
v 0.639695 0.694736 0.718750
v 0.633058 0.689879 0.718750
v 0.496131 0.803968 0.718750
v 0.644692 0.701213 0.718750
v 0.639695 0.694736 0.718750
v 0.496131 0.803968 0.718750
v 0.647696 0.708851 0.718750
v 0.644692 0.701213 0.718750
v 0.496131 0.803968 0.718750
v 0.648487 0.717113 0.718750
v 0.647696 0.708851 0.718750
v 0.496131 0.803968 0.718750
v 0.648487 0.890823 0.718750
v 0.648487 0.717113 0.718750
v 0.496131 0.803968 0.718750
v 0.647696 0.899085 0.718750
v 0.648487 0.890823 0.718750
v 0.496131 0.803968 0.718750
v 0.644692 0.906723 0.718750
v 0.647696 0.899085 0.718750
v 0.496131 0.803968 0.718750
v 0.639695 0.913200 0.718750
v 0.644692 0.906723 0.718750
v 0.496131 0.803968 0.718750
v 0.633058 0.918058 0.718750
v 0.639695 0.913200 0.718750
v 0.496131 0.803968 0.718750
v 0.625243 0.920944 0.718750
v 0.633058 0.918058 0.718750
v 0.496131 0.803968 0.718750
v 0.616787 0.921646 0.718750
v 0.625243 0.920944 0.718750
v 0.496131 0.803968 0.718750
v 0.375474 0.921646 0.718750
v 0.616787 0.921646 0.718750
v 0.496131 0.803968 0.718750
v 0.367018 0.920944 0.718750
v 0.375474 0.921646 0.718750
v 0.496131 0.803968 0.718750
v 0.359204 0.918058 0.718750
v 0.367018 0.920944 0.718750
v 0.496131 0.803968 0.718750
v 0.352567 0.913200 0.718750
v 0.359204 0.918058 0.718750
v 0.496131 0.803968 0.718750
v 0.347570 0.906723 0.718750
v 0.352567 0.913200 0.718750
v 0.496131 0.803968 0.718750
v 0.344566 0.899085 0.718750
v 0.347570 0.906723 0.718750
v 0.496131 0.803968 0.718750
v 0.343775 0.890823 0.718750
v 0.344566 0.899085 0.718750
v 0.496131 0.803968 0.718750
v 0.343775 0.717113 0.718750
v 0.343775 0.890823 0.718750
v 0.496131 0.803968 0.718750
v 0.344566 0.708851 0.718750
v 0.343775 0.717113 0.718750
v 0.496131 0.803968 0.718750
v 0.347570 0.701213 0.718750
v 0.344566 0.708851 0.718750
v 0.496131 0.803968 0.718750
v 0.352567 0.694736 0.718750
v 0.347570 0.701213 0.718750
v 0.496131 0.803968 0.718750
v 0.359204 0.689879 0.718750
v 0.352567 0.694736 0.718750
v 0.496131 0.803968 0.718750
v 0.367018 0.686992 0.718750
v 0.359204 0.689879 0.718750
v 0.496131 0.803968 0.718750
v 0.375474 0.686290 0.718750
v 0.367018 0.686992 0.718750
v 0.496131 0.803968 0.718750
v 0.616787 0.686290 0.718750
v 0.375474 0.686290 0.718750
vt 0.500000 0.501953
vt 0.733245 0.867762
vt 0.702344 0.872656
vt 0.500000 0.501953
vt 0.761122 0.853558
vt 0.733245 0.867762
vt 0.500000 0.501953
vt 0.783245 0.831435
vt 0.761122 0.853558
vt 0.500000 0.501953
vt 0.797449 0.803558
vt 0.783245 0.831435
vt 0.500000 0.501953
vt 0.802344 0.772656
vt 0.797449 0.803558
vt 0.500000 0.501953
vt 0.802344 0.231250
vt 0.802344 0.772656
vt 0.500000 0.501953
vt 0.797449 0.200348
vt 0.802344 0.231250
vt 0.500000 0.501953
vt 0.783245 0.172471
vt 0.797449 0.200348
vt 0.500000 0.501953
vt 0.761122 0.150348
vt 0.783245 0.172471
vt 0.500000 0.501953
vt 0.733245 0.136144
vt 0.761122 0.150348
vt 0.500000 0.501953
vt 0.702344 0.131250
vt 0.733245 0.136144
vt 0.500000 0.501953
vt 0.297656 0.131250
vt 0.702344 0.131250
vt 0.500000 0.501953
vt 0.266755 0.136144
vt 0.297656 0.131250
vt 0.500000 0.501953
vt 0.238878 0.150348
vt 0.266755 0.136144
vt 0.500000 0.501953
vt 0.216755 0.172471
vt 0.238878 0.150348
vt 0.500000 0.501953
vt 0.202551 0.200348
vt 0.216755 0.172471
vt 0.500000 0.501953
vt 0.197656 0.231250
vt 0.202551 0.200348
vt 0.500000 0.501953
vt 0.197656 0.772656
vt 0.197656 0.231250
vt 0.500000 0.501953
vt 0.202551 0.803558
vt 0.197656 0.772656
vt 0.500000 0.501953
vt 0.216755 0.831435
vt 0.202551 0.803558
vt 0.500000 0.501953
vt 0.238878 0.853558
vt 0.216755 0.831435
vt 0.500000 0.501953
vt 0.266755 0.867762
vt 0.238878 0.853558
vt 0.500000 0.501953
vt 0.297656 0.872656
vt 0.266755 0.867762
vt 0.500000 0.501953
vt 0.702344 0.872656
vt 0.297656 0.872656
vt 0.756250 0.196875
vt 0.793750 0.196875
vt 0.756250 0.159375
vt 0.756250 0.196875
vt 0.756250 0.159375
vt 0.793750 0.159375
vt 0.756250 0.196875
vt 0.793750 0.196875
vt 0.756250 0.159375
vt 0.756250 0.196875
vt 0.756250 0.159375
vt 0.793750 0.159375
vt 0.756250 0.196875
vt 0.793750 0.196875
vt 0.756250 0.159375
vt 0.756250 0.196875
vt 0.756250 0.159375
vt 0.793750 0.159375
vt 0.756250 0.196875
vt 0.793750 0.196875
vt 0.756250 0.159375
vt 0.756250 0.196875
vt 0.756250 0.159375
vt 0.793750 0.159375
vt 0.756250 0.196875
vt 0.793750 0.196875
vt 0.756250 0.159375
vt 0.756250 0.196875
vt 0.756250 0.159375
vt 0.793750 0.159375
vt 0.756250 0.196875
vt 0.793750 0.196875
vt 0.756250 0.159375
vt 0.756250 0.196875
vt 0.756250 0.159375
vt 0.793750 0.159375
vt 0.756250 0.196875
vt 0.793750 0.196875
vt 0.756250 0.159375
vt 0.756250 0.196875
vt 0.756250 0.159375
vt 0.793750 0.159375
vt 0.756250 0.196875
vt 0.793750 0.196875
vt 0.756250 0.159375
vt 0.756250 0.196875
vt 0.756250 0.159375
vt 0.793750 0.159375
vt 0.756250 0.196875
vt 0.793750 0.196875
vt 0.756250 0.159375
vt 0.756250 0.196875
vt 0.756250 0.159375
vt 0.793750 0.159375
vt 0.756250 0.196875
vt 0.793750 0.196875
vt 0.756250 0.159375
vt 0.756250 0.196875
vt 0.756250 0.159375
vt 0.793750 0.159375
vt 0.756250 0.196875
vt 0.793750 0.196875
vt 0.756250 0.159375
vt 0.756250 0.196875
vt 0.756250 0.159375
vt 0.793750 0.159375
vt 0.756250 0.196875
vt 0.793750 0.196875
vt 0.756250 0.159375
vt 0.756250 0.196875
vt 0.756250 0.159375
vt 0.793750 0.159375
vt 0.756250 0.196875
vt 0.793750 0.196875
vt 0.756250 0.159375
vt 0.756250 0.196875
vt 0.756250 0.159375
vt 0.793750 0.159375
vt 0.756250 0.196875
vt 0.793750 0.196875
vt 0.756250 0.159375
vt 0.756250 0.196875
vt 0.756250 0.159375
vt 0.793750 0.159375
vt 0.756250 0.196875
vt 0.793750 0.196875
vt 0.756250 0.159375
vt 0.756250 0.196875
vt 0.756250 0.159375
vt 0.793750 0.159375
vt 0.756250 0.196875
vt 0.793750 0.196875
vt 0.756250 0.159375
vt 0.756250 0.196875
vt 0.756250 0.159375
vt 0.793750 0.159375
vt 0.756250 0.196875
vt 0.793750 0.196875
vt 0.756250 0.159375
vt 0.756250 0.196875
vt 0.756250 0.159375
vt 0.793750 0.159375
vt 0.756250 0.196875
vt 0.793750 0.196875
vt 0.756250 0.159375
vt 0.756250 0.196875
vt 0.756250 0.159375
vt 0.793750 0.159375
vt 0.756250 0.196875
vt 0.793750 0.196875
vt 0.756250 0.159375
vt 0.756250 0.196875
vt 0.756250 0.159375
vt 0.793750 0.159375
vt 0.756250 0.196875
vt 0.793750 0.196875
vt 0.756250 0.159375
vt 0.756250 0.196875
vt 0.756250 0.159375
vt 0.793750 0.159375
vt 0.756250 0.196875
vt 0.793750 0.196875
vt 0.756250 0.159375
vt 0.756250 0.196875
vt 0.756250 0.159375
vt 0.793750 0.159375
vt 0.756250 0.196875
vt 0.793750 0.196875
vt 0.756250 0.159375
vt 0.756250 0.196875
vt 0.756250 0.159375
vt 0.793750 0.159375
vt 0.756250 0.196875
vt 0.793750 0.196875
vt 0.756250 0.159375
vt 0.756250 0.196875
vt 0.756250 0.159375
vt 0.793750 0.159375
vt 0.756250 0.196875
vt 0.793750 0.196875
vt 0.756250 0.159375
vt 0.756250 0.196875
vt 0.756250 0.159375
vt 0.793750 0.159375
vt 0.756250 0.196875
vt 0.793750 0.196875
vt 0.793750 0.159375
vt 0.756250 0.196875
vt 0.793750 0.196875
vt 0.793750 0.159375
vt 0.756250 0.196875
vt 0.793750 0.196875
vt 0.793750 0.159375
vt 0.756250 0.196875
vt 0.793750 0.196875
vt 0.793750 0.159375
vt 0.756250 0.196875
vt 0.793750 0.196875
vt 0.793750 0.159375
vt 0.756250 0.196875
vt 0.793750 0.196875
vt 0.793750 0.159375
vt 0.756250 0.196875
vt 0.793750 0.196875
vt 0.793750 0.159375
vt 0.756250 0.196875
vt 0.793750 0.196875
vt 0.793750 0.159375
vt 0.756250 0.196875
vt 0.793750 0.196875
vt 0.793750 0.159375
vt 0.756250 0.196875
vt 0.793750 0.196875
vt 0.793750 0.159375
vt 0.756250 0.196875
vt 0.793750 0.196875
vt 0.793750 0.159375
vt 0.756250 0.196875
vt 0.793750 0.196875
vt 0.793750 0.159375
vt 0.756250 0.196875
vt 0.793750 0.196875
vt 0.793750 0.159375
vt 0.756250 0.196875
vt 0.793750 0.196875
vt 0.793750 0.159375
vt 0.756250 0.196875
vt 0.793750 0.196875
vt 0.793750 0.159375
vt 0.756250 0.196875
vt 0.793750 0.196875
vt 0.793750 0.159375
vt 0.756250 0.196875
vt 0.793750 0.196875
vt 0.793750 0.159375
vt 0.756250 0.196875
vt 0.793750 0.196875
vt 0.793750 0.159375
vt 0.756250 0.196875
vt 0.793750 0.196875
vt 0.793750 0.159375
vt 0.756250 0.196875
vt 0.793750 0.196875
vt 0.793750 0.159375
vt 0.756250 0.196875
vt 0.793750 0.196875
vt 0.793750 0.159375
vt 0.756250 0.196875
vt 0.793750 0.196875
vt 0.793750 0.159375
vt 0.756250 0.196875
vt 0.793750 0.196875
vt 0.793750 0.159375
vt 0.756250 0.196875
vt 0.793750 0.196875
vt 0.793750 0.159375
vt 0.375370 0.172182
vt 0.357997 0.165335
vt 0.361631 0.173804
vt 0.375370 0.172182
vt 0.372062 0.163580
vt 0.357997 0.165335
vt 0.361631 0.173804
vt 0.344920 0.170756
vt 0.348883 0.179074
vt 0.361631 0.173804
vt 0.357997 0.165335
vt 0.344920 0.170756
vt 0.348883 0.179074
vt 0.333731 0.179469
vt 0.338013 0.187626
vt 0.348883 0.179074
vt 0.344920 0.170756
vt 0.333731 0.179469
vt 0.338013 0.187626
vt 0.325203 0.190876
vt 0.329780 0.198871
vt 0.338013 0.187626
vt 0.333731 0.179469
vt 0.325203 0.190876
vt 0.329780 0.198871
vt 0.319926 0.204201
vt 0.324760 0.212041
vt 0.329780 0.198871
vt 0.325203 0.190876
vt 0.319926 0.204201
vt 0.324760 0.212041
vt 0.318264 0.218537
vt 0.323307 0.226243
vt 0.324760 0.212041
vt 0.319926 0.204201
vt 0.318264 0.218537
vt 0.323307 0.226243
vt 0.318264 0.773963
vt 0.323307 0.766257
vt 0.323307 0.226243
vt 0.318264 0.218537
vt 0.318264 0.773963
vt 0.323307 0.766257
vt 0.319926 0.788299
vt 0.324760 0.780459
vt 0.323307 0.766257
vt 0.318264 0.773963
vt 0.319926 0.788299
vt 0.324760 0.780459
vt 0.325203 0.801624
vt 0.329780 0.793629
vt 0.324760 0.780459
vt 0.319926 0.788299
vt 0.325203 0.801624
vt 0.329780 0.793629
vt 0.333731 0.813031
vt 0.338013 0.804874
vt 0.329780 0.793629
vt 0.325203 0.801624
vt 0.333731 0.813031
vt 0.338013 0.804874
vt 0.344920 0.821744
vt 0.348883 0.813426
vt 0.338013 0.804874
vt 0.333731 0.813031
vt 0.344920 0.821744
vt 0.348883 0.813426
vt 0.357997 0.827165
vt 0.361631 0.818696
vt 0.348883 0.813426
vt 0.344920 0.821744
vt 0.357997 0.827165
vt 0.361631 0.818696
vt 0.372062 0.828920
vt 0.375370 0.820318
vt 0.361631 0.818696
vt 0.357997 0.827165
vt 0.372062 0.828920
vt 0.375370 0.820318
vt 0.627938 0.828920
vt 0.624630 0.820318
vt 0.375370 0.820318
vt 0.372062 0.828920
vt 0.627938 0.828920
vt 0.624630 0.820318
vt 0.642003 0.827165
vt 0.638369 0.818696
vt 0.624630 0.820318
vt 0.627938 0.828920
vt 0.642003 0.827165
vt 0.638369 0.818696
vt 0.655080 0.821744
vt 0.651117 0.813426
vt 0.638369 0.818696
vt 0.642003 0.827165
vt 0.655080 0.821744
vt 0.651117 0.813426
vt 0.666269 0.813031
vt 0.661987 0.804874
vt 0.651117 0.813426
vt 0.655080 0.821744
vt 0.666269 0.813031
vt 0.661987 0.804874
vt 0.674797 0.801624
vt 0.670220 0.793629
vt 0.661987 0.804874
vt 0.666269 0.813031
vt 0.674797 0.801624
vt 0.670220 0.793629
vt 0.680074 0.788299
vt 0.675240 0.780459
vt 0.670220 0.793629
vt 0.674797 0.801624
vt 0.680074 0.788299
vt 0.675240 0.780459
vt 0.681736 0.773963
vt 0.676693 0.766257
vt 0.675240 0.780459
vt 0.680074 0.788299
vt 0.681736 0.773963
vt 0.676693 0.766257
vt 0.681736 0.218537
vt 0.676693 0.226243
vt 0.676693 0.766257
vt 0.681736 0.773963
vt 0.681736 0.218537
vt 0.676693 0.226243
vt 0.680074 0.204201
vt 0.675240 0.212041
vt 0.676693 0.226243
vt 0.681736 0.218537
vt 0.680074 0.204201
vt 0.675240 0.212041
vt 0.674797 0.190876
vt 0.670220 0.198871
vt 0.675240 0.212041
vt 0.680074 0.204201
vt 0.674797 0.190876
vt 0.670220 0.198871
vt 0.666269 0.179469
vt 0.661987 0.187626
vt 0.670220 0.198871
vt 0.674797 0.190876
vt 0.666269 0.179469
vt 0.661987 0.187626
vt 0.655080 0.170756
vt 0.651117 0.179074
vt 0.661987 0.187626
vt 0.666269 0.179469
vt 0.655080 0.170756
vt 0.651117 0.179074
vt 0.642003 0.165335
vt 0.638369 0.173804
vt 0.651117 0.179074
vt 0.655080 0.170756
vt 0.642003 0.165335
vt 0.638369 0.173804
vt 0.627938 0.163580
vt 0.624630 0.172182
vt 0.638369 0.173804
vt 0.642003 0.165335
vt 0.627938 0.163580
vt 0.624630 0.172182
vt 0.372062 0.163580
vt 0.375370 0.172182
vt 0.624630 0.172182
vt 0.627938 0.163580
vt 0.372062 0.163580
vt 0.372062 0.163580
vt 0.355142 0.158682
vt 0.357997 0.165335
vt 0.372062 0.163580
vt 0.369463 0.156822
vt 0.355142 0.158682
vt 0.357997 0.165335
vt 0.341806 0.164221
vt 0.344920 0.170756
vt 0.357997 0.165335
vt 0.355142 0.158682
vt 0.341806 0.164221
vt 0.344920 0.170756
vt 0.330367 0.173059
vt 0.333731 0.179469
vt 0.344920 0.170756
vt 0.341806 0.164221
vt 0.330367 0.173059
vt 0.333731 0.179469
vt 0.321608 0.184595
vt 0.325203 0.190876
vt 0.333731 0.179469
vt 0.330367 0.173059
vt 0.321608 0.184595
vt 0.325203 0.190876
vt 0.316127 0.198041
vt 0.319926 0.204201
vt 0.325203 0.190876
vt 0.321608 0.184595
vt 0.316127 0.198041
vt 0.319926 0.204201
vt 0.314301 0.212481
vt 0.318264 0.218537
vt 0.319926 0.204201
vt 0.316127 0.198041
vt 0.314301 0.212481
vt 0.318264 0.218537
vt 0.314301 0.780019
vt 0.318264 0.773963
vt 0.318264 0.218537
vt 0.314301 0.212481
vt 0.314301 0.780019
vt 0.318264 0.773963
vt 0.316127 0.794459
vt 0.319926 0.788299
vt 0.318264 0.773963
vt 0.314301 0.780019
vt 0.316127 0.794459
vt 0.319926 0.788299
vt 0.321608 0.807905
vt 0.325203 0.801624
vt 0.319926 0.788299
vt 0.316127 0.794459
vt 0.321608 0.807905
vt 0.325203 0.801624
vt 0.330367 0.819441
vt 0.333731 0.813031
vt 0.325203 0.801624
vt 0.321608 0.807905
vt 0.330367 0.819441
vt 0.333731 0.813031
vt 0.341806 0.828279
vt 0.344920 0.821744
vt 0.333731 0.813031
vt 0.330367 0.819441
vt 0.341806 0.828279
vt 0.344920 0.821744
vt 0.355142 0.833818
vt 0.357997 0.827165
vt 0.344920 0.821744
vt 0.341806 0.828279
vt 0.355142 0.833818
vt 0.357997 0.827165
vt 0.369463 0.835678
vt 0.372062 0.828920
vt 0.357997 0.827165
vt 0.355142 0.833818
vt 0.369463 0.835678
vt 0.372062 0.828920
vt 0.630537 0.835678
vt 0.627938 0.828920
vt 0.372062 0.828920
vt 0.369463 0.835678
vt 0.630537 0.835678
vt 0.627938 0.828920
vt 0.644858 0.833818
vt 0.642003 0.827165
vt 0.627938 0.828920
vt 0.630537 0.835678
vt 0.644858 0.833818
vt 0.642003 0.827165
vt 0.658194 0.828279
vt 0.655080 0.821744
vt 0.642003 0.827165
vt 0.644858 0.833818
vt 0.658194 0.828279
vt 0.655080 0.821744
vt 0.669633 0.819441
vt 0.666269 0.813031
vt 0.655080 0.821744
vt 0.658194 0.828279
vt 0.669633 0.819441
vt 0.666269 0.813031
vt 0.678392 0.807905
vt 0.674797 0.801624
vt 0.666269 0.813031
vt 0.669633 0.819441
vt 0.678392 0.807905
vt 0.674797 0.801624
vt 0.683873 0.794459
vt 0.680074 0.788299
vt 0.674797 0.801624
vt 0.678392 0.807905
vt 0.683873 0.794459
vt 0.680074 0.788299
vt 0.685699 0.780019
vt 0.681736 0.773963
vt 0.680074 0.788299
vt 0.683873 0.794459
vt 0.685699 0.780019
vt 0.681736 0.773963
vt 0.685699 0.212481
vt 0.681736 0.218537
vt 0.681736 0.773963
vt 0.685699 0.780019
vt 0.685699 0.212481
vt 0.681736 0.218537
vt 0.683873 0.198041
vt 0.680074 0.204201
vt 0.681736 0.218537
vt 0.685699 0.212481
vt 0.683873 0.198041
vt 0.680074 0.204201
vt 0.678392 0.184595
vt 0.674797 0.190876
vt 0.680074 0.204201
vt 0.683873 0.198041
vt 0.678392 0.184595
vt 0.674797 0.190876
vt 0.669633 0.173059
vt 0.666269 0.179469
vt 0.674797 0.190876
vt 0.678392 0.184595
vt 0.669633 0.173059
vt 0.666269 0.179469
vt 0.658194 0.164221
vt 0.655080 0.170756
vt 0.666269 0.179469
vt 0.669633 0.173059
vt 0.658194 0.164221
vt 0.655080 0.170756
vt 0.644858 0.158682
vt 0.642003 0.165335
vt 0.655080 0.170756
vt 0.658194 0.164221
vt 0.644858 0.158682
vt 0.642003 0.165335
vt 0.630537 0.156822
vt 0.627938 0.163580
vt 0.642003 0.165335
vt 0.644858 0.158682
vt 0.630537 0.156822
vt 0.627938 0.163580
vt 0.369463 0.156822
vt 0.372062 0.163580
vt 0.627938 0.163580
vt 0.630537 0.156822
vt 0.369463 0.156822
vt 0.500000 0.496250
vt 0.353844 0.155657
vt 0.368281 0.153750
vt 0.500000 0.496250
vt 0.340391 0.161250
vt 0.353844 0.155657
vt 0.500000 0.496250
vt 0.328838 0.170146
vt 0.340391 0.161250
vt 0.500000 0.496250
vt 0.319973 0.181739
vt 0.328838 0.170146
vt 0.500000 0.496250
vt 0.314401 0.195240
vt 0.319973 0.181739
vt 0.500000 0.496250
vt 0.312500 0.209729
vt 0.314401 0.195240
vt 0.500000 0.496250
vt 0.312500 0.782771
vt 0.312500 0.209729
vt 0.500000 0.496250
vt 0.314401 0.797260
vt 0.312500 0.782771
vt 0.500000 0.496250
vt 0.319973 0.810761
vt 0.314401 0.797260
vt 0.500000 0.496250
vt 0.328838 0.822354
vt 0.319973 0.810761
vt 0.500000 0.496250
vt 0.340391 0.831250
vt 0.328838 0.822354
vt 0.500000 0.496250
vt 0.353844 0.836843
vt 0.340391 0.831250
vt 0.500000 0.496250
vt 0.368281 0.838750
vt 0.353844 0.836843
vt 0.500000 0.496250
vt 0.631719 0.838750
vt 0.368281 0.838750
vt 0.500000 0.496250
vt 0.646156 0.836843
vt 0.631719 0.838750
vt 0.500000 0.496250
vt 0.659609 0.831250
vt 0.646156 0.836843
vt 0.500000 0.496250
vt 0.671162 0.822354
vt 0.659609 0.831250
vt 0.500000 0.496250
vt 0.680027 0.810761
vt 0.671162 0.822354
vt 0.500000 0.496250
vt 0.685599 0.797260
vt 0.680027 0.810761
vt 0.500000 0.496250
vt 0.687500 0.782771
vt 0.685599 0.797260
vt 0.500000 0.496250
vt 0.687500 0.209729
vt 0.687500 0.782771
vt 0.500000 0.496250
vt 0.685599 0.195240
vt 0.687500 0.209729
vt 0.500000 0.496250
vt 0.680027 0.181739
vt 0.685599 0.195240
vt 0.500000 0.496250
vt 0.671162 0.170146
vt 0.680027 0.181739
vt 0.500000 0.496250
vt 0.659609 0.161250
vt 0.671162 0.170146
vt 0.500000 0.496250
vt 0.646156 0.155657
vt 0.659609 0.161250
vt 0.500000 0.496250
vt 0.631719 0.153750
vt 0.646156 0.155657
vt 0.500000 0.496250
vt 0.368281 0.153750
vt 0.631719 0.153750
vt 0.376434 0.566956
vt 0.360713 0.561540
vt 0.367522 0.567731
vt 0.376434 0.566956
vt 0.369856 0.560518
vt 0.360713 0.561540
vt 0.367522 0.567731
vt 0.352222 0.564912
vt 0.359280 0.570814
vt 0.367522 0.567731
vt 0.360713 0.561540
vt 0.352222 0.564912
vt 0.359280 0.570814
vt 0.344964 0.570394
vt 0.352276 0.575977
vt 0.359280 0.570814
vt 0.352222 0.564912
vt 0.344964 0.570394
vt 0.352276 0.575977
vt 0.339437 0.577606
vt 0.346994 0.582851
vt 0.352276 0.575977
vt 0.344964 0.570394
vt 0.339437 0.577606
vt 0.346994 0.582851
vt 0.336025 0.586048
vt 0.343807 0.590949
vt 0.346994 0.582851
vt 0.339437 0.577606
vt 0.336025 0.586048
vt 0.343807 0.590949
vt 0.334966 0.595136
vt 0.342948 0.599702
vt 0.343807 0.590949
vt 0.336025 0.586048
vt 0.334966 0.595136
vt 0.342948 0.599702
vt 0.334966 0.788614
vt 0.342948 0.784048
vt 0.342948 0.599702
vt 0.334966 0.595136
vt 0.334966 0.788614
vt 0.342948 0.784048
vt 0.336025 0.797702
vt 0.343807 0.792801
vt 0.342948 0.784048
vt 0.334966 0.788614
vt 0.336025 0.797702
vt 0.343807 0.792801
vt 0.339437 0.806144
vt 0.346994 0.800899
vt 0.343807 0.792801
vt 0.336025 0.797702
vt 0.339437 0.806144
vt 0.346994 0.800899
vt 0.344964 0.813356
vt 0.352276 0.807773
vt 0.346994 0.800899
vt 0.339437 0.806144
vt 0.344964 0.813356
vt 0.352276 0.807773
vt 0.352222 0.818838
vt 0.359280 0.812936
vt 0.352276 0.807773
vt 0.344964 0.813356
vt 0.352222 0.818838
vt 0.359280 0.812936
vt 0.360713 0.822210
vt 0.367522 0.816019
vt 0.359280 0.812936
vt 0.352222 0.818838
vt 0.360713 0.822210
vt 0.367522 0.816019
vt 0.369856 0.823232
vt 0.376434 0.816794
vt 0.367522 0.816019
vt 0.360713 0.822210
vt 0.369856 0.823232
vt 0.376434 0.816794
vt 0.638269 0.823232
vt 0.631691 0.816794
vt 0.376434 0.816794
vt 0.369856 0.823232
vt 0.638269 0.823232
vt 0.631691 0.816794
vt 0.647412 0.822210
vt 0.640603 0.816019
vt 0.631691 0.816794
vt 0.638269 0.823232
vt 0.647412 0.822210
vt 0.640603 0.816019
vt 0.655903 0.818838
vt 0.648845 0.812936
vt 0.640603 0.816019
vt 0.647412 0.822210
vt 0.655903 0.818838
vt 0.648845 0.812936
vt 0.663161 0.813356
vt 0.655849 0.807773
vt 0.648845 0.812936
vt 0.655903 0.818838
vt 0.663161 0.813356
vt 0.655849 0.807773
vt 0.668688 0.806144
vt 0.661131 0.800899
vt 0.655849 0.807773
vt 0.663161 0.813356
vt 0.668688 0.806144
vt 0.661131 0.800899
vt 0.672100 0.797702
vt 0.664318 0.792801
vt 0.661131 0.800899
vt 0.668688 0.806144
vt 0.672100 0.797702
vt 0.664318 0.792801
vt 0.673159 0.788614
vt 0.665177 0.784048
vt 0.664318 0.792801
vt 0.672100 0.797702
vt 0.673159 0.788614
vt 0.665177 0.784048
vt 0.673159 0.595136
vt 0.665177 0.599702
vt 0.665177 0.784048
vt 0.673159 0.788614
vt 0.673159 0.595136
vt 0.665177 0.599702
vt 0.672100 0.586048
vt 0.664318 0.590949
vt 0.665177 0.599702
vt 0.673159 0.595136
vt 0.672100 0.586048
vt 0.664318 0.590949
vt 0.668688 0.577606
vt 0.661131 0.582851
vt 0.664318 0.590949
vt 0.672100 0.586048
vt 0.668688 0.577606
vt 0.661131 0.582851
vt 0.663161 0.570394
vt 0.655849 0.575977
vt 0.661131 0.582851
vt 0.668688 0.577606
vt 0.663161 0.570394
vt 0.655849 0.575977
vt 0.655903 0.564912
vt 0.648845 0.570814
vt 0.655849 0.575977
vt 0.663161 0.570394
vt 0.655903 0.564912
vt 0.648845 0.570814
vt 0.647412 0.561540
vt 0.640603 0.567731
vt 0.648845 0.570814
vt 0.655903 0.564912
vt 0.647412 0.561540
vt 0.640603 0.567731
vt 0.638269 0.560518
vt 0.631691 0.566956
vt 0.640603 0.567731
vt 0.647412 0.561540
vt 0.638269 0.560518
vt 0.631691 0.566956
vt 0.369856 0.560518
vt 0.376434 0.566956
vt 0.631691 0.566956
vt 0.638269 0.560518
vt 0.369856 0.560518
vt 0.369856 0.560518
vt 0.356822 0.558003
vt 0.360713 0.561540
vt 0.369856 0.560518
vt 0.366098 0.556839
vt 0.356822 0.558003
vt 0.360713 0.561540
vt 0.348189 0.561539
vt 0.352222 0.564912
vt 0.360713 0.561540
vt 0.356822 0.558003
vt 0.348189 0.561539
vt 0.352222 0.564912
vt 0.340786 0.567204
vt 0.344964 0.570394
vt 0.352222 0.564912
vt 0.348189 0.561539
vt 0.340786 0.567204
vt 0.344964 0.570394
vt 0.335120 0.574609
vt 0.339437 0.577606
vt 0.344964 0.570394
vt 0.340786 0.567204
vt 0.335120 0.574609
vt 0.339437 0.577606
vt 0.331578 0.583247
vt 0.336025 0.586048
vt 0.339437 0.577606
vt 0.335120 0.574609
vt 0.331578 0.583247
vt 0.336025 0.586048
vt 0.330405 0.592526
vt 0.334966 0.595136
vt 0.336025 0.586048
vt 0.331578 0.583247
vt 0.330405 0.592526
vt 0.334966 0.595136
vt 0.330405 0.791224
vt 0.334966 0.788614
vt 0.334966 0.595136
vt 0.330405 0.592526
vt 0.330405 0.791224
vt 0.334966 0.788614
vt 0.331578 0.800503
vt 0.336025 0.797702
vt 0.334966 0.788614
vt 0.330405 0.791224
vt 0.331578 0.800503
vt 0.336025 0.797702
vt 0.335120 0.809141
vt 0.339437 0.806144
vt 0.336025 0.797702
vt 0.331578 0.800503
vt 0.335120 0.809141
vt 0.339437 0.806144
vt 0.340786 0.816546
vt 0.344964 0.813356
vt 0.339437 0.806144
vt 0.335120 0.809141
vt 0.340786 0.816546
vt 0.344964 0.813356
vt 0.348189 0.822211
vt 0.352222 0.818838
vt 0.344964 0.813356
vt 0.340786 0.816546
vt 0.348189 0.822211
vt 0.352222 0.818838
vt 0.356822 0.825747
vt 0.360713 0.822210
vt 0.352222 0.818838
vt 0.348189 0.822211
vt 0.356822 0.825747
vt 0.360713 0.822210
vt 0.366098 0.826911
vt 0.369856 0.823232
vt 0.360713 0.822210
vt 0.356822 0.825747
vt 0.366098 0.826911
vt 0.369856 0.823232
vt 0.642027 0.826911
vt 0.638269 0.823232
vt 0.369856 0.823232
vt 0.366098 0.826911
vt 0.642027 0.826911
vt 0.638269 0.823232
vt 0.651303 0.825747
vt 0.647412 0.822210
vt 0.638269 0.823232
vt 0.642027 0.826911
vt 0.651303 0.825747
vt 0.647412 0.822210
vt 0.659936 0.822211
vt 0.655903 0.818838
vt 0.647412 0.822210
vt 0.651303 0.825747
vt 0.659936 0.822211
vt 0.655903 0.818838
vt 0.667339 0.816546
vt 0.663161 0.813356
vt 0.655903 0.818838
vt 0.659936 0.822211
vt 0.667339 0.816546
vt 0.663161 0.813356
vt 0.673005 0.809141
vt 0.668688 0.806144
vt 0.663161 0.813356
vt 0.667339 0.816546
vt 0.673005 0.809141
vt 0.668688 0.806144
vt 0.676547 0.800503
vt 0.672100 0.797702
vt 0.668688 0.806144
vt 0.673005 0.809141
vt 0.676547 0.800503
vt 0.672100 0.797702
vt 0.677720 0.791224
vt 0.673159 0.788614
vt 0.672100 0.797702
vt 0.676547 0.800503
vt 0.677720 0.791224
vt 0.673159 0.788614
vt 0.677720 0.592526
vt 0.673159 0.595136
vt 0.673159 0.788614
vt 0.677720 0.791224
vt 0.677720 0.592526
vt 0.673159 0.595136
vt 0.676547 0.583247
vt 0.672100 0.586048
vt 0.673159 0.595136
vt 0.677720 0.592526
vt 0.676547 0.583247
vt 0.672100 0.586048
vt 0.673005 0.574609
vt 0.668688 0.577606
vt 0.672100 0.586048
vt 0.676547 0.583247
vt 0.673005 0.574609
vt 0.668688 0.577606
vt 0.667339 0.567204
vt 0.663161 0.570394
vt 0.668688 0.577606
vt 0.673005 0.574609
vt 0.667339 0.567204
vt 0.663161 0.570394
vt 0.659936 0.561539
vt 0.655903 0.564912
vt 0.663161 0.570394
vt 0.667339 0.567204
vt 0.659936 0.561539
vt 0.655903 0.564912
vt 0.651303 0.558003
vt 0.647412 0.561540
vt 0.655903 0.564912
vt 0.659936 0.561539
vt 0.651303 0.558003
vt 0.647412 0.561540
vt 0.642027 0.556839
vt 0.638269 0.560518
vt 0.647412 0.561540
vt 0.651303 0.558003
vt 0.642027 0.556839
vt 0.638269 0.560518
vt 0.366098 0.556839
vt 0.369856 0.560518
vt 0.638269 0.560518
vt 0.642027 0.556839
vt 0.366098 0.556839
vt 0.504063 0.691875
vt 0.354877 0.556234
vt 0.364219 0.555000
vt 0.504063 0.691875
vt 0.346172 0.559853
vt 0.354877 0.556234
vt 0.504063 0.691875
vt 0.338697 0.565609
vt 0.346172 0.559853
vt 0.504063 0.691875
vt 0.332961 0.573111
vt 0.338697 0.565609
vt 0.504063 0.691875
vt 0.329355 0.581847
vt 0.332961 0.573111
vt 0.504063 0.691875
vt 0.328125 0.591222
vt 0.329355 0.581847
vt 0.504063 0.691875
vt 0.328125 0.792528
vt 0.328125 0.591222
vt 0.504063 0.691875
vt 0.329355 0.801903
vt 0.328125 0.792528
vt 0.504063 0.691875
vt 0.332961 0.810639
vt 0.329355 0.801903
vt 0.504063 0.691875
vt 0.338697 0.818141
vt 0.332961 0.810639
vt 0.504063 0.691875
vt 0.346172 0.823897
vt 0.338697 0.818141
vt 0.504063 0.691875
vt 0.354877 0.827516
vt 0.346172 0.823897
vt 0.504063 0.691875
vt 0.364219 0.828750
vt 0.354877 0.827516
vt 0.504063 0.691875
vt 0.643906 0.828750
vt 0.364219 0.828750
vt 0.504063 0.691875
vt 0.653248 0.827516
vt 0.643906 0.828750
vt 0.504063 0.691875
vt 0.661953 0.823897
vt 0.653248 0.827516
vt 0.504063 0.691875
vt 0.669428 0.818141
vt 0.661953 0.823897
vt 0.504063 0.691875
vt 0.675164 0.810639
vt 0.669428 0.818141
vt 0.504063 0.691875
vt 0.678770 0.801903
vt 0.675164 0.810639
vt 0.504063 0.691875
vt 0.680000 0.792528
vt 0.678770 0.801903
vt 0.504063 0.691875
vt 0.680000 0.591222
vt 0.680000 0.792528
vt 0.504063 0.691875
vt 0.678770 0.581847
vt 0.680000 0.591222
vt 0.504063 0.691875
vt 0.675164 0.573111
vt 0.678770 0.581847
vt 0.504063 0.691875
vt 0.669428 0.565609
vt 0.675164 0.573111
vt 0.504063 0.691875
vt 0.661953 0.559853
vt 0.669428 0.565609
vt 0.504063 0.691875
vt 0.653248 0.556234
vt 0.661953 0.559853
vt 0.504063 0.691875
vt 0.643906 0.555000
vt 0.653248 0.556234
vt 0.504063 0.691875
vt 0.364219 0.555000
vt 0.643906 0.555000
vn 0.000000 0.000000 -1.000000
vn 0.000000 0.000000 -1.000000
vn 0.000000 0.000000 -1.000000
vn 0.000000 0.000000 -1.000000
vn 0.000000 0.000000 -1.000000
vn -0.000000 0.000000 -1.000000
vn 0.000000 0.000000 -1.000000
vn 0.000000 0.000000 -1.000000
vn 0.000000 0.000000 -1.000000
vn 0.000000 0.000000 -1.000000
vn 0.000000 0.000000 -1.000000
vn 0.000000 -0.000000 -1.000000
vn 0.000000 0.000000 -1.000000
vn 0.000000 0.000000 -1.000000
vn 0.000000 0.000000 -1.000000
vn 0.000000 0.000000 -1.000000
vn 0.000000 0.000000 -1.000000
vn 0.000000 0.000000 -1.000000
vn 0.000000 0.000000 -1.000000
vn 0.000000 0.000000 -1.000000
vn 0.000000 0.000000 -1.000000
vn 0.000000 0.000000 -1.000000
vn 0.000000 0.000000 -1.000000
vn 0.000000 0.000000 -1.000000
vn -0.155896 0.987774 0.000000
vn -0.155896 0.987774 0.000000
vn -0.452717 0.891654 0.000000
vn -0.452717 0.891654 0.000000
vn -0.705856 0.708356 0.000000
vn -0.705856 0.708356 0.000000
vn -0.890356 0.455266 0.000000
vn -0.890356 0.455266 0.000000
vn -0.987603 0.156975 0.000000
vn -0.987603 0.156975 0.000000
vn -1.000000 0.000000 0.000000
vn -1.000000 0.000000 0.000000
vn -0.987603 -0.156975 0.000000
vn -0.987603 -0.156975 0.000000
vn -0.890356 -0.455266 0.000000
vn -0.890356 -0.455266 0.000000
vn -0.705856 -0.708356 0.000000
vn -0.705856 -0.708356 0.000000
vn -0.452717 -0.891654 0.000000
vn -0.452717 -0.891654 0.000000
vn -0.155896 -0.987774 0.000000
vn -0.155896 -0.987774 0.000000
vn 0.000000 -1.000000 0.000000
vn 0.000000 -1.000000 0.000000
vn 0.155896 -0.987774 0.000000
vn 0.155896 -0.987774 0.000000
vn 0.452717 -0.891654 0.000000
vn 0.452717 -0.891654 0.000000
vn 0.705856 -0.708356 0.000000
vn 0.705856 -0.708356 0.000000
vn 0.890356 -0.455266 0.000000
vn 0.890356 -0.455266 0.000000
vn 0.987603 -0.156975 0.000000
vn 0.987603 -0.156975 0.000000
vn 1.000000 0.000000 0.000000
vn 1.000000 0.000000 0.000000
vn 0.987603 0.156975 0.000000
vn 0.987603 0.156975 -0.000000
vn 0.890356 0.455266 0.000000
vn 0.890356 0.455266 -0.000000
vn 0.705856 0.708356 0.000000
vn 0.705856 0.708356 -0.000000
vn 0.452717 0.891654 0.000000
vn 0.452717 0.891654 -0.000000
vn 0.155896 0.987774 0.000000
vn 0.155896 0.987774 -0.000000
vn 0.000000 1.000000 0.000000
vn 0.000000 1.000000 -0.000000
vn 0.000000 0.000000 1.000000
vn 0.000000 0.000000 1.000000
vn 0.000000 0.000000 1.000000
vn 0.000000 0.000000 1.000000
vn 0.000000 0.000000 1.000000
vn 0.000000 0.000000 1.000000
vn 0.000000 0.000000 1.000000
vn 0.000000 0.000000 1.000000
vn 0.000000 0.000000 1.000000
vn 0.000000 0.000000 1.000000
vn 0.000000 0.000000 1.000000
vn 0.000000 0.000000 1.000000
vn 0.000000 0.000000 1.000000
vn 0.000000 0.000000 1.000000
vn 0.000000 0.000000 1.000000
vn 0.000000 0.000000 1.000000
vn 0.000000 0.000000 1.000000
vn -0.000000 0.000000 1.000000
vn 0.000000 0.000000 1.000000
vn 0.000000 0.000000 1.000000
vn 0.000000 0.000000 1.000000
vn 0.000000 0.000000 1.000000
vn 0.000000 0.000000 1.000000
vn 0.000000 -0.000000 1.000000
vn 0.130526 -0.991445 0.000000
vn 0.130526 -0.991445 0.000000
vn 0.382683 -0.923880 0.000000
vn 0.382683 -0.923880 0.000000
vn 0.608761 -0.793353 0.000000
vn 0.608761 -0.793353 0.000000
vn 0.793353 -0.608761 0.000000
vn 0.793353 -0.608761 0.000000
vn 0.923880 -0.382683 0.000000
vn 0.923880 -0.382683 0.000000
vn 0.991445 -0.130526 0.000000
vn 0.991445 -0.130526 0.000000
vn 1.000000 -0.000000 0.000000
vn 1.000000 0.000000 0.000000
vn 0.991445 0.130526 0.000000
vn 0.991445 0.130526 0.000000
vn 0.923880 0.382683 0.000000
vn 0.923880 0.382683 0.000000
vn 0.793353 0.608761 0.000000
vn 0.793353 0.608761 0.000000
vn 0.608761 0.793353 0.000000
vn 0.608761 0.793353 0.000000
vn 0.382683 0.923880 0.000000
vn 0.382683 0.923880 0.000000
vn 0.130526 0.991445 0.000000
vn 0.130526 0.991445 0.000000
vn 0.000000 1.000000 0.000000
vn 0.000000 1.000000 0.000000
vn -0.130526 0.991445 0.000000
vn -0.130526 0.991445 0.000000
vn -0.382683 0.923880 0.000000
vn -0.382683 0.923880 0.000000
vn -0.608761 0.793353 0.000000
vn -0.608761 0.793353 0.000000
vn -0.793353 0.608761 0.000000
vn -0.793353 0.608761 0.000000
vn -0.923880 0.382683 0.000000
vn -0.923880 0.382683 0.000000
vn -0.991445 0.130526 0.000000
vn -0.991445 0.130526 0.000000
vn -1.000000 -0.000000 0.000000
vn -1.000000 0.000000 -0.000000
vn -0.991445 -0.130526 0.000000
vn -0.991445 -0.130526 -0.000000
vn -0.923880 -0.382683 0.000000
vn -0.923880 -0.382683 -0.000000
vn -0.793353 -0.608761 0.000000
vn -0.793353 -0.608761 -0.000000
vn -0.608761 -0.793353 0.000000
vn -0.608761 -0.793353 -0.000000
vn -0.382683 -0.923880 0.000000
vn -0.382683 -0.923880 -0.000000
vn -0.130526 -0.991445 0.000000
vn -0.130526 -0.991445 -0.000000
vn 0.000000 -1.000000 0.000000
vn 0.000000 -1.000000 0.000000
vn 0.111687 -0.848345 -0.517529
vn 0.102982 -0.847688 -0.520403
vn 0.324124 -0.782505 -0.531629
vn 0.322937 -0.782658 -0.532127
vn 0.517494 -0.674411 -0.526659
vn 0.523851 -0.672177 -0.523219
vn 0.686217 -0.526553 -0.501845
vn 0.698060 -0.519114 -0.493186
vn 0.822985 -0.340891 -0.454411
vn 0.836268 -0.327067 -0.440095
vn 0.917121 -0.120741 -0.379883
vn 0.926813 -0.102422 -0.361286
vn 0.945310 0.000000 -0.326172
vn 0.945310 0.000000 -0.326172
vn 0.921267 0.121287 -0.369535
vn 0.922647 0.101962 -0.371923
vn 0.827057 0.342578 -0.445665
vn 0.832080 0.325429 -0.449154
vn 0.688964 0.528660 -0.495830
vn 0.695192 0.516982 -0.499438
vn 0.518555 0.675794 -0.523834
vn 0.522738 0.670748 -0.526158
vn 0.324003 0.782212 -0.532134
vn 0.323062 0.782963 -0.531601
vn 0.111384 0.846047 -0.521342
vn 0.103272 0.850076 -0.516436
vn 0.000000 0.862620 -0.505852
vn 0.000000 0.862620 -0.505852
vn -0.111687 0.848345 -0.517529
vn -0.102982 0.847688 -0.520403
vn -0.324124 0.782505 -0.531629
vn -0.322937 0.782658 -0.532127
vn -0.517494 0.674411 -0.526659
vn -0.523851 0.672177 -0.523219
vn -0.686217 0.526553 -0.501845
vn -0.698060 0.519114 -0.493186
vn -0.822985 0.340891 -0.454411
vn -0.836268 0.327067 -0.440095
vn -0.917121 0.120741 -0.379883
vn -0.926813 0.102422 -0.361286
vn -0.945310 -0.000000 -0.326172
vn -0.945310 0.000000 -0.326172
vn -0.921267 -0.121287 -0.369535
vn -0.922647 -0.101962 -0.371923
vn -0.827057 -0.342578 -0.445665
vn -0.832080 -0.325429 -0.449154
vn -0.688964 -0.528660 -0.495830
vn -0.695192 -0.516982 -0.499438
vn -0.518555 -0.675794 -0.523834
vn -0.522738 -0.670748 -0.526158
vn -0.324003 -0.782212 -0.532134
vn -0.323062 -0.782963 -0.531601
vn -0.111384 -0.846047 -0.521342
vn -0.103272 -0.850076 -0.516436
vn 0.000000 -0.862620 -0.505852
vn 0.000000 -0.862620 -0.505852
vn 0.000000 0.000000 -1.000000
vn 0.000000 0.000000 -1.000000
vn 0.000000 0.000000 -1.000000
vn 0.000000 0.000000 -1.000000
vn 0.000000 0.000000 -1.000000
vn 0.000000 0.000000 -1.000000
vn 0.000000 0.000000 -1.000000
vn 0.000000 0.000000 -1.000000
vn 0.000000 0.000000 -1.000000
vn 0.000000 0.000000 -1.000000
vn 0.000000 0.000000 -1.000000
vn 0.000000 0.000000 -1.000000
vn 0.000000 0.000000 -1.000000
vn 0.000000 0.000000 -1.000000
vn 0.000000 0.000000 -1.000000
vn 0.000000 0.000000 -1.000000
vn 0.000000 0.000000 -1.000000
vn 0.000000 0.000000 -1.000000
vn 0.000000 0.000000 -1.000000
vn 0.000000 0.000000 -1.000000
vn -0.000000 0.000000 -1.000000
vn 0.000000 0.000000 -1.000000
vn 0.000000 0.000000 -1.000000
vn 0.000000 0.000000 -1.000000
vn 0.000000 0.000000 -1.000000
vn 0.000000 0.000000 -1.000000
vn 0.000000 0.000000 -1.000000
vn 0.000000 -0.000000 -1.000000
vn 0.130526 -0.991445 0.000000
vn 0.130526 -0.991445 0.000000
vn 0.382683 -0.923880 0.000000
vn 0.382683 -0.923880 0.000000
vn 0.608761 -0.793353 0.000000
vn 0.608761 -0.793353 0.000000
vn 0.793353 -0.608761 0.000000
vn 0.793353 -0.608761 0.000000
vn 0.923880 -0.382683 0.000000
vn 0.923880 -0.382683 0.000000
vn 0.991445 -0.130526 0.000000
vn 0.991445 -0.130526 0.000000
vn 1.000000 -0.000000 0.000000
vn 1.000000 0.000000 0.000000
vn 0.991445 0.130526 0.000000
vn 0.991445 0.130526 0.000000
vn 0.923880 0.382683 0.000000
vn 0.923880 0.382683 0.000000
vn 0.793353 0.608761 0.000000
vn 0.793353 0.608761 0.000000
vn 0.608761 0.793353 0.000000
vn 0.608761 0.793353 0.000000
vn 0.382683 0.923880 0.000000
vn 0.382683 0.923880 0.000000
vn 0.130526 0.991445 0.000000
vn 0.130526 0.991445 0.000000
vn 0.000000 1.000000 0.000000
vn 0.000000 1.000000 0.000000
vn -0.130526 0.991445 0.000000
vn -0.130526 0.991445 0.000000
vn -0.382683 0.923880 0.000000
vn -0.382683 0.923880 0.000000
vn -0.608761 0.793353 0.000000
vn -0.608761 0.793353 0.000000
vn -0.793353 0.608761 0.000000
vn -0.793353 0.608761 0.000000
vn -0.923880 0.382683 0.000000
vn -0.923880 0.382683 0.000000
vn -0.991445 0.130526 0.000000
vn -0.991445 0.130526 0.000000
vn -1.000000 -0.000000 0.000000
vn -1.000000 0.000000 -0.000000
vn -0.991445 -0.130526 0.000000
vn -0.991445 -0.130526 -0.000000
vn -0.923880 -0.382683 0.000000
vn -0.923880 -0.382683 -0.000000
vn -0.793353 -0.608761 0.000000
vn -0.793353 -0.608761 -0.000000
vn -0.608761 -0.793353 0.000000
vn -0.608761 -0.793353 -0.000000
vn -0.382683 -0.923880 0.000000
vn -0.382683 -0.923880 -0.000000
vn -0.130526 -0.991445 0.000000
vn -0.130526 -0.991445 -0.000000
vn 0.000000 -1.000000 0.000000
vn 0.000000 -1.000000 0.000000
vn 0.117929 -0.895763 -0.428603
vn 0.074915 -0.901979 -0.425231
vn 0.335183 -0.809204 -0.482537
vn 0.303384 -0.821361 -0.483036
vn 0.521926 -0.680187 -0.514721
vn 0.505580 -0.690839 -0.516847
vn 0.673831 -0.517049 -0.527837
vn 0.672265 -0.518619 -0.528293
vn 0.787495 -0.326191 -0.522925
vn 0.795960 -0.313039 -0.518126
vn 0.859062 -0.113098 -0.499221
vn 0.869953 -0.083302 -0.486048
vn 0.879701 0.000000 -0.475526
vn 0.879701 0.000000 -0.475526
vn 0.862937 0.113608 -0.492374
vn 0.865764 0.082901 -0.493539
vn 0.789337 0.326954 -0.519662
vn 0.793933 0.312242 -0.521704
vn 0.673603 0.516874 -0.528299
vn 0.672514 0.518812 -0.527787
vn 0.520394 0.678191 -0.518891
vn 0.507200 0.693053 -0.512276
vn 0.333547 0.805254 -0.490216
vn 0.304969 0.825654 -0.474646
vn 0.117264 0.890705 -0.439197
vn 0.075353 0.907257 -0.413772
vn 0.000000 0.917183 -0.398466
vn -0.000000 0.917183 -0.398466
vn -0.117929 0.895763 -0.428603
vn -0.074915 0.901979 -0.425231
vn -0.335183 0.809204 -0.482537
vn -0.303384 0.821361 -0.483036
vn -0.521926 0.680187 -0.514721
vn -0.505580 0.690839 -0.516847
vn -0.673831 0.517049 -0.527837
vn -0.672265 0.518619 -0.528293
vn -0.787495 0.326191 -0.522925
vn -0.795960 0.313039 -0.518126
vn -0.859062 0.113098 -0.499221
vn -0.869953 0.083302 -0.486048
vn -0.879701 -0.000000 -0.475526
vn -0.879701 0.000000 -0.475526
vn -0.862937 -0.113608 -0.492374
vn -0.865764 -0.082901 -0.493539
vn -0.789337 -0.326954 -0.519662
vn -0.793933 -0.312242 -0.521704
vn -0.673603 -0.516874 -0.528299
vn -0.672514 -0.518812 -0.527787
vn -0.520394 -0.678191 -0.518891
vn -0.507200 -0.693053 -0.512276
vn -0.333547 -0.805254 -0.490216
vn -0.304969 -0.825654 -0.474646
vn -0.117264 -0.890705 -0.439197
vn -0.075353 -0.907257 -0.413772
vn 0.000000 -0.917183 -0.398466
vn 0.000000 -0.917183 -0.398466
vn 0.000000 0.000000 -1.000000
vn 0.000000 0.000000 -1.000000
vn 0.000000 0.000000 -1.000000
vn 0.000000 0.000000 -1.000000
vn 0.000000 0.000000 -1.000000
vn 0.000000 0.000000 -1.000000
vn 0.000000 0.000000 -1.000000
vn 0.000000 0.000000 -1.000000
vn 0.000000 0.000000 -1.000000
vn 0.000000 0.000000 -1.000000
vn 0.000000 0.000000 -1.000000
vn 0.000000 0.000000 -1.000000
vn 0.000000 0.000000 -1.000000
vn 0.000000 0.000000 -1.000000
vn 0.000000 0.000000 -1.000000
vn 0.000000 0.000000 -1.000000
vn 0.000000 0.000000 -1.000000
vn 0.000000 0.000000 -1.000000
vn 0.000000 0.000000 -1.000000
vn 0.000000 0.000000 -1.000000
vn -0.000000 0.000000 -1.000000
vn 0.000000 0.000000 -1.000000
vn 0.000000 0.000000 -1.000000
vn 0.000000 0.000000 -1.000000
vn 0.000000 0.000000 -1.000000
vn 0.000000 0.000000 -1.000000
vn 0.000000 0.000000 -1.000000
vn 0.000000 -0.000000 -1.000000
usemtl body
f 1/1/1 2/2/1 3/3/1
f 4/4/2 5/5/2 6/6/2
f 7/7/3 8/8/3 9/9/3
f 10/10/4 11/11/4 12/12/4
f 13/13/5 14/14/5 15/15/5
f 16/16/6 17/17/6 18/18/6
f 19/19/7 20/20/7 21/21/7
f 22/22/8 23/23/8 24/24/8
f 25/25/9 26/26/9 27/27/9
f 28/28/10 29/29/10 30/30/10
f 31/31/11 32/32/11 33/33/11
f 34/34/12 35/35/12 36/36/12
f 37/37/13 38/38/13 39/39/13
f 40/40/14 41/41/14 42/42/14
f 43/43/15 44/44/15 45/45/15
f 46/46/16 47/47/16 48/48/16
f 49/49/17 50/50/17 51/51/17
f 52/52/18 53/53/18 54/54/18
f 55/55/19 56/56/19 57/57/19
f 58/58/20 59/59/20 60/60/20
f 61/61/21 62/62/21 63/63/21
f 64/64/22 65/65/22 66/66/22
f 67/67/23 68/68/23 69/69/23
f 70/70/24 71/71/24 72/72/24
f 73/73/25 74/74/25 75/75/25
f 76/76/26 77/77/26 78/78/26
f 79/79/27 80/80/27 81/81/27
f 82/82/28 83/83/28 84/84/28
f 85/85/29 86/86/29 87/87/29
f 88/88/30 89/89/30 90/90/30
f 91/91/31 92/92/31 93/93/31
f 94/94/32 95/95/32 96/96/32
f 97/97/33 98/98/33 99/99/33
f 100/100/34 101/101/34 102/102/34
f 103/103/35 104/104/35 105/105/35
f 106/106/36 107/107/36 108/108/36
f 109/109/37 110/110/37 111/111/37
f 112/112/38 113/113/38 114/114/38
f 115/115/39 116/116/39 117/117/39
f 118/118/40 119/119/40 120/120/40
f 121/121/41 122/122/41 123/123/41
f 124/124/42 125/125/42 126/126/42
f 127/127/43 128/128/43 129/129/43
f 130/130/44 131/131/44 132/132/44
f 133/133/45 134/134/45 135/135/45
f 136/136/46 137/137/46 138/138/46
f 139/139/47 140/140/47 141/141/47
f 142/142/48 143/143/48 144/144/48
f 145/145/49 146/146/49 147/147/49
f 148/148/50 149/149/50 150/150/50
f 151/151/51 152/152/51 153/153/51
f 154/154/52 155/155/52 156/156/52
f 157/157/53 158/158/53 159/159/53
f 160/160/54 161/161/54 162/162/54
f 163/163/55 164/164/55 165/165/55
f 166/166/56 167/167/56 168/168/56
f 169/169/57 170/170/57 171/171/57
f 172/172/58 173/173/58 174/174/58
f 175/175/59 176/176/59 177/177/59
f 178/178/60 179/179/60 180/180/60
f 181/181/61 182/182/61 183/183/61
f 184/184/62 185/185/62 186/186/62
f 187/187/63 188/188/63 189/189/63
f 190/190/64 191/191/64 192/192/64
f 193/193/65 194/194/65 195/195/65
f 196/196/66 197/197/66 198/198/66
f 199/199/67 200/200/67 201/201/67
f 202/202/68 203/203/68 204/204/68
f 205/205/69 206/206/69 207/207/69
f 208/208/70 209/209/70 210/210/70
f 211/211/71 212/212/71 213/213/71
f 214/214/72 215/215/72 216/216/72
f 217/217/73 218/218/73 219/219/73
f 220/220/74 221/221/74 222/222/74
f 223/223/75 224/224/75 225/225/75
f 226/226/76 227/227/76 228/228/76
f 229/229/77 230/230/77 231/231/77
f 232/232/78 233/233/78 234/234/78
f 235/235/79 236/236/79 237/237/79
f 238/238/80 239/239/80 240/240/80
f 241/241/81 242/242/81 243/243/81
f 244/244/82 245/245/82 246/246/82
f 247/247/83 248/248/83 249/249/83
f 250/250/84 251/251/84 252/252/84
f 253/253/85 254/254/85 255/255/85
f 256/256/86 257/257/86 258/258/86
f 259/259/87 260/260/87 261/261/87
f 262/262/88 263/263/88 264/264/88
f 265/265/89 266/266/89 267/267/89
f 268/268/90 269/269/90 270/270/90
f 271/271/91 272/272/91 273/273/91
f 274/274/92 275/275/92 276/276/92
f 277/277/93 278/278/93 279/279/93
f 280/280/94 281/281/94 282/282/94
f 283/283/95 284/284/95 285/285/95
f 286/286/96 287/287/96 288/288/96
f 289/289/97 290/290/97 291/291/97
f 292/292/98 293/293/98 294/294/98
f 295/295/99 296/296/99 297/297/99
f 298/298/100 299/299/100 300/300/100
f 301/301/101 302/302/101 303/303/101
f 304/304/102 305/305/102 306/306/102
f 307/307/103 308/308/103 309/309/103
f 310/310/104 311/311/104 312/312/104
f 313/313/105 314/314/105 315/315/105
f 316/316/106 317/317/106 318/318/106
f 319/319/107 320/320/107 321/321/107
f 322/322/108 323/323/108 324/324/108
f 325/325/109 326/326/109 327/327/109
f 328/328/110 329/329/110 330/330/110
f 331/331/111 332/332/111 333/333/111
f 334/334/112 335/335/112 336/336/112
f 337/337/113 338/338/113 339/339/113
f 340/340/114 341/341/114 342/342/114
f 343/343/115 344/344/115 345/345/115
f 346/346/116 347/347/116 348/348/116
f 349/349/117 350/350/117 351/351/117
f 352/352/118 353/353/118 354/354/118
f 355/355/119 356/356/119 357/357/119
f 358/358/120 359/359/120 360/360/120
f 361/361/121 362/362/121 363/363/121
f 364/364/122 365/365/122 366/366/122
f 367/367/123 368/368/123 369/369/123
f 370/370/124 371/371/124 372/372/124
f 373/373/125 374/374/125 375/375/125
f 376/376/126 377/377/126 378/378/126
f 379/379/127 380/380/127 381/381/127
f 382/382/128 383/383/128 384/384/128
f 385/385/129 386/386/129 387/387/129
f 388/388/130 389/389/130 390/390/130
f 391/391/131 392/392/131 393/393/131
f 394/394/132 395/395/132 396/396/132
f 397/397/133 398/398/133 399/399/133
f 400/400/134 401/401/134 402/402/134
f 403/403/135 404/404/135 405/405/135
f 406/406/136 407/407/136 408/408/136
f 409/409/137 410/410/137 411/411/137
f 412/412/138 413/413/138 414/414/138
f 415/415/139 416/416/139 417/417/139
f 418/418/140 419/419/140 420/420/140
f 421/421/141 422/422/141 423/423/141
f 424/424/142 425/425/142 426/426/142
f 427/427/143 428/428/143 429/429/143
f 430/430/144 431/431/144 432/432/144
f 433/433/145 434/434/145 435/435/145
f 436/436/146 437/437/146 438/438/146
f 439/439/147 440/440/147 441/441/147
f 442/442/148 443/443/148 444/444/148
f 445/445/149 446/446/149 447/447/149
f 448/448/150 449/449/150 450/450/150
f 451/451/151 452/452/151 453/453/151
f 454/454/152 455/455/152 456/456/152
f 457/457/153 458/458/153 459/459/153
f 460/460/154 461/461/154 462/462/154
f 463/463/155 464/464/155 465/465/155
f 466/466/156 467/467/156 468/468/156
f 469/469/157 470/470/157 471/471/157
f 472/472/158 473/473/158 474/474/158
f 475/475/159 476/476/159 477/477/159
f 478/478/160 479/479/160 480/480/160
f 481/481/161 482/482/161 483/483/161
f 484/484/162 485/485/162 486/486/162
f 487/487/163 488/488/163 489/489/163
f 490/490/164 491/491/164 492/492/164
f 493/493/165 494/494/165 495/495/165
f 496/496/166 497/497/166 498/498/166
f 499/499/167 500/500/167 501/501/167
f 502/502/168 503/503/168 504/504/168
f 505/505/169 506/506/169 507/507/169
f 508/508/170 509/509/170 510/510/170
f 511/511/171 512/512/171 513/513/171
f 514/514/172 515/515/172 516/516/172
f 517/517/173 518/518/173 519/519/173
f 520/520/174 521/521/174 522/522/174
f 523/523/175 524/524/175 525/525/175
f 526/526/176 527/527/176 528/528/176
f 529/529/177 530/530/177 531/531/177
f 532/532/178 533/533/178 534/534/178
f 535/535/179 536/536/179 537/537/179
f 538/538/180 539/539/180 540/540/180
f 541/541/181 542/542/181 543/543/181
f 544/544/182 545/545/182 546/546/182
f 547/547/183 548/548/183 549/549/183
f 550/550/184 551/551/184 552/552/184
f 553/553/185 554/554/185 555/555/185
f 556/556/186 557/557/186 558/558/186
f 559/559/187 560/560/187 561/561/187
f 562/562/188 563/563/188 564/564/188
f 565/565/189 566/566/189 567/567/189
f 568/568/190 569/569/190 570/570/190
f 571/571/191 572/572/191 573/573/191
f 574/574/192 575/575/192 576/576/192
f 577/577/193 578/578/193 579/579/193
f 580/580/194 581/581/194 582/582/194
f 583/583/195 584/584/195 585/585/195
f 586/586/196 587/587/196 588/588/196
f 589/589/197 590/590/197 591/591/197
f 592/592/198 593/593/198 594/594/198
f 595/595/199 596/596/199 597/597/199
f 598/598/200 599/599/200 600/600/200
f 601/601/201 602/602/201 603/603/201
f 604/604/202 605/605/202 606/606/202
f 607/607/203 608/608/203 609/609/203
f 610/610/204 611/611/204 612/612/204
f 613/613/205 614/614/205 615/615/205
f 616/616/206 617/617/206 618/618/206
f 619/619/207 620/620/207 621/621/207
f 622/622/208 623/623/208 624/624/208
f 625/625/209 626/626/209 627/627/209
f 628/628/210 629/629/210 630/630/210
f 631/631/211 632/632/211 633/633/211
f 634/634/212 635/635/212 636/636/212
f 637/637/213 638/638/213 639/639/213
f 640/640/214 641/641/214 642/642/214
f 643/643/215 644/644/215 645/645/215
f 646/646/216 647/647/216 648/648/216
f 649/649/217 650/650/217 651/651/217
f 652/652/218 653/653/218 654/654/218
f 655/655/219 656/656/219 657/657/219
f 658/658/220 659/659/220 660/660/220
f 661/661/221 662/662/221 663/663/221
f 664/664/222 665/665/222 666/666/222
f 667/667/223 668/668/223 669/669/223
f 670/670/224 671/671/224 672/672/224
f 673/673/225 674/674/225 675/675/225
f 676/676/226 677/677/226 678/678/226
f 679/679/227 680/680/227 681/681/227
f 682/682/228 683/683/228 684/684/228
f 685/685/229 686/686/229 687/687/229
f 688/688/230 689/689/230 690/690/230
f 691/691/231 692/692/231 693/693/231
f 694/694/232 695/695/232 696/696/232
f 697/697/233 698/698/233 699/699/233
f 700/700/234 701/701/234 702/702/234
f 703/703/235 704/704/235 705/705/235
f 706/706/236 707/707/236 708/708/236
f 709/709/237 710/710/237 711/711/237
f 712/712/238 713/713/238 714/714/238
f 715/715/239 716/716/239 717/717/239
f 718/718/240 719/719/240 720/720/240
f 721/721/241 722/722/241 723/723/241
f 724/724/242 725/725/242 726/726/242
f 727/727/243 728/728/243 729/729/243
f 730/730/244 731/731/244 732/732/244
f 733/733/245 734/734/245 735/735/245
f 736/736/246 737/737/246 738/738/246
f 739/739/247 740/740/247 741/741/247
f 742/742/248 743/743/248 744/744/248
f 745/745/249 746/746/249 747/747/249
f 748/748/250 749/749/250 750/750/250
f 751/751/251 752/752/251 753/753/251
f 754/754/252 755/755/252 756/756/252
f 757/757/253 758/758/253 759/759/253
f 760/760/254 761/761/254 762/762/254
f 763/763/255 764/764/255 765/765/255
f 766/766/256 767/767/256 768/768/256
f 769/769/257 770/770/257 771/771/257
f 772/772/258 773/773/258 774/774/258
f 775/775/259 776/776/259 777/777/259
f 778/778/260 779/779/260 780/780/260
f 781/781/261 782/782/261 783/783/261
f 784/784/262 785/785/262 786/786/262
f 787/787/263 788/788/263 789/789/263
f 790/790/264 791/791/264 792/792/264
f 793/793/265 794/794/265 795/795/265
f 796/796/266 797/797/266 798/798/266
f 799/799/267 800/800/267 801/801/267
f 802/802/268 803/803/268 804/804/268
f 805/805/269 806/806/269 807/807/269
f 808/808/270 809/809/270 810/810/270
f 811/811/271 812/812/271 813/813/271
f 814/814/272 815/815/272 816/816/272
f 817/817/273 818/818/273 819/819/273
f 820/820/274 821/821/274 822/822/274
f 823/823/275 824/824/275 825/825/275
f 826/826/276 827/827/276 828/828/276
f 829/829/277 830/830/277 831/831/277
f 832/832/278 833/833/278 834/834/278
f 835/835/279 836/836/279 837/837/279
f 838/838/280 839/839/280 840/840/280
f 841/841/281 842/842/281 843/843/281
f 844/844/282 845/845/282 846/846/282
f 847/847/283 848/848/283 849/849/283
f 850/850/284 851/851/284 852/852/284
f 853/853/285 854/854/285 855/855/285
f 856/856/286 857/857/286 858/858/286
f 859/859/287 860/860/287 861/861/287
f 862/862/288 863/863/288 864/864/288
f 865/865/289 866/866/289 867/867/289
f 868/868/290 869/869/290 870/870/290
f 871/871/291 872/872/291 873/873/291
f 874/874/292 875/875/292 876/876/292
f 877/877/293 878/878/293 879/879/293
f 880/880/294 881/881/294 882/882/294
f 883/883/295 884/884/295 885/885/295
f 886/886/296 887/887/296 888/888/296
f 889/889/297 890/890/297 891/891/297
f 892/892/298 893/893/298 894/894/298
f 895/895/299 896/896/299 897/897/299
f 898/898/300 899/899/300 900/900/300
f 901/901/301 902/902/301 903/903/301
f 904/904/302 905/905/302 906/906/302
f 907/907/303 908/908/303 909/909/303
f 910/910/304 911/911/304 912/912/304
f 913/913/305 914/914/305 915/915/305
f 916/916/306 917/917/306 918/918/306
f 919/919/307 920/920/307 921/921/307
f 922/922/308 923/923/308 924/924/308
f 925/925/309 926/926/309 927/927/309
f 928/928/310 929/929/310 930/930/310
f 931/931/311 932/932/311 933/933/311
f 934/934/312 935/935/312 936/936/312
f 937/937/313 938/938/313 939/939/313
f 940/940/314 941/941/314 942/942/314
f 943/943/315 944/944/315 945/945/315
f 946/946/316 947/947/316 948/948/316
f 949/949/317 950/950/317 951/951/317
f 952/952/318 953/953/318 954/954/318
f 955/955/319 956/956/319 957/957/319
f 958/958/320 959/959/320 960/960/320
f 961/961/321 962/962/321 963/963/321
f 964/964/322 965/965/322 966/966/322
f 967/967/323 968/968/323 969/969/323
f 970/970/324 971/971/324 972/972/324
f 973/973/325 974/974/325 975/975/325
f 976/976/326 977/977/326 978/978/326
f 979/979/327 980/980/327 981/981/327
f 982/982/328 983/983/328 984/984/328
f 985/985/329 986/986/329 987/987/329
f 988/988/330 989/989/330 990/990/330
f 991/991/331 992/992/331 993/993/331
f 994/994/332 995/995/332 996/996/332
f 997/997/333 998/998/333 999/999/333
f 1000/1000/334 1001/1001/334 1002/1002/334
f 1003/1003/335 1004/1004/335 1005/1005/335
f 1006/1006/336 1007/1007/336 1008/1008/336
f 1009/1009/337 1010/1010/337 1011/1011/337
f 1012/1012/338 1013/1013/338 1014/1014/338
f 1015/1015/339 1016/1016/339 1017/1017/339
f 1018/1018/340 1019/1019/340 1020/1020/340
f 1021/1021/341 1022/1022/341 1023/1023/341
f 1024/1024/342 1025/1025/342 1026/1026/342
f 1027/1027/343 1028/1028/343 1029/1029/343
f 1030/1030/344 1031/1031/344 1032/1032/344
f 1033/1033/345 1034/1034/345 1035/1035/345
f 1036/1036/346 1037/1037/346 1038/1038/346
f 1039/1039/347 1040/1040/347 1041/1041/347
f 1042/1042/348 1043/1043/348 1044/1044/348
f 1045/1045/349 1046/1046/349 1047/1047/349
f 1048/1048/350 1049/1049/350 1050/1050/350
f 1051/1051/351 1052/1052/351 1053/1053/351
f 1054/1054/352 1055/1055/352 1056/1056/352
f 1057/1057/353 1058/1058/353 1059/1059/353
f 1060/1060/354 1061/1061/354 1062/1062/354
f 1063/1063/355 1064/1064/355 1065/1065/355
f 1066/1066/356 1067/1067/356 1068/1068/356
f 1069/1069/357 1070/1070/357 1071/1071/357
f 1072/1072/358 1073/1073/358 1074/1074/358
f 1075/1075/359 1076/1076/359 1077/1077/359
f 1078/1078/360 1079/1079/360 1080/1080/360
f 1081/1081/361 1082/1082/361 1083/1083/361
f 1084/1084/362 1085/1085/362 1086/1086/362
f 1087/1087/363 1088/1088/363 1089/1089/363
f 1090/1090/364 1091/1091/364 1092/1092/364
f 1093/1093/365 1094/1094/365 1095/1095/365
f 1096/1096/366 1097/1097/366 1098/1098/366
f 1099/1099/367 1100/1100/367 1101/1101/367
f 1102/1102/368 1103/1103/368 1104/1104/368
f 1105/1105/369 1106/1106/369 1107/1107/369
f 1108/1108/370 1109/1109/370 1110/1110/370
f 1111/1111/371 1112/1112/371 1113/1113/371
f 1114/1114/372 1115/1115/372 1116/1116/372
f 1117/1117/373 1118/1118/373 1119/1119/373
f 1120/1120/374 1121/1121/374 1122/1122/374
f 1123/1123/375 1124/1124/375 1125/1125/375
f 1126/1126/376 1127/1127/376 1128/1128/376
