# Procedurally generated by dev-env-utils/scripts/gen_furnishings_showpieces.py -- do not hand edit
mtllib grandpiano.mtl
o grandpiano
v 1.250000 0.625000 -0.312500
v -0.250000 0.625000 -0.312500
v -0.250000 1.000000 -0.312500
v 1.250000 1.000000 -0.312500
v -0.250000 0.625000 0.125000
v -0.250000 1.000000 0.125000
v -0.244741 0.625000 0.170454
v -0.244741 1.000000 0.170454
v -0.229621 0.625000 0.215909
v -0.229621 1.000000 0.215909
v -0.205626 0.625000 0.261364
v -0.205626 1.000000 0.261364
v -0.173741 0.625000 0.306818
v -0.173741 1.000000 0.306818
v -0.134955 0.625000 0.352272
v -0.134955 1.000000 0.352272
v -0.090252 0.625000 0.397728
v -0.090252 1.000000 0.397728
v -0.040618 0.625000 0.443182
v -0.040618 1.000000 0.443182
v 0.012960 0.625000 0.488636
v 0.012960 1.000000 0.488636
v 0.069497 0.625000 0.534091
v 0.069497 1.000000 0.534091
v 0.128005 0.625000 0.579546
v 0.128005 1.000000 0.579546
v 0.187500 0.625000 0.625000
v 0.187500 1.000000 0.625000
v 0.246995 0.625000 0.670454
v 0.246995 1.000000 0.670454
v 0.305503 0.625000 0.715909
v 0.305503 1.000000 0.715909
v 0.362040 0.625000 0.761364
v 0.362040 1.000000 0.761364
v 0.415618 0.625000 0.806818
v 0.415618 1.000000 0.806818
v 0.465252 0.625000 0.852272
v 0.465252 1.000000 0.852272
v 0.509955 0.625000 0.897728
v 0.509955 1.000000 0.897728
v 0.548741 0.625000 0.943182
v 0.548741 1.000000 0.943182
v 0.580626 0.625000 0.988636
v 0.580626 1.000000 0.988636
v 0.604621 0.625000 1.034091
v 0.604621 1.000000 1.034091
v 0.619741 0.625000 1.079546
v 0.619741 1.000000 1.079546
v 0.625000 0.625000 1.125000
v 0.625000 1.000000 1.125000
v 0.626592 0.625000 1.156211
v 0.626592 1.000000 1.156211
v 0.631362 0.625000 1.187263
v 0.631362 1.000000 1.187263
v 0.639283 0.625000 1.217998
v 0.639283 1.000000 1.217998
v 0.650317 0.625000 1.248258
v 0.650317 1.000000 1.248258
v 0.664406 0.625000 1.277891
v 0.664406 1.000000 1.277891
v 0.681480 0.625000 1.306744
v 0.681480 1.000000 1.306744
v 0.701451 0.625000 1.334671
v 0.701451 1.000000 1.334671
v 0.724216 0.625000 1.361531
v 0.724216 1.000000 1.361531
v 0.749662 0.625000 1.387184
v 0.749662 1.000000 1.387184
v 0.777656 0.625000 1.411502
v 0.777656 1.000000 1.411502
v 0.808058 0.625000 1.434359
v 0.808058 1.000000 1.434359
v 0.840712 0.625000 1.455641
v 0.840712 1.000000 1.455641
v 0.875451 0.625000 1.475237
v 0.875451 1.000000 1.475237
v 0.912099 0.625000 1.493048
v 0.912099 1.000000 1.493048
v 0.950469 0.625000 1.508984
v 0.950469 1.000000 1.508984
v 0.990366 0.625000 1.522964
v 0.990366 1.000000 1.522964
v 1.031585 0.625000 1.534916
v 1.031585 1.000000 1.534916
v 1.073917 0.625000 1.544778
v 1.073917 1.000000 1.544778
v 1.117147 0.625000 1.552502
v 1.117147 1.000000 1.552502
v 1.161053 0.625000 1.558047
v 1.161053 1.000000 1.558047
v 1.250000 0.625000 1.562500
v 1.250000 1.000000 1.562500
v -0.206250 0.999375 -0.268750
v -0.206250 0.712500 -0.268750
v 1.206250 0.712500 -0.268750
v 1.206250 0.999375 -0.268750
v -0.206250 0.999375 0.122478
v -0.206250 0.712500 0.122478
v -0.201801 0.999375 0.160935
v -0.201801 0.712500 0.160935
v -0.189246 0.999375 0.198676
v -0.189246 0.712500 0.198676
v -0.168224 0.999375 0.238499
v -0.168224 0.712500 0.238499
v -0.139115 0.999375 0.279997
v -0.139115 0.712500 0.279997
v -0.102678 0.999375 0.322698
v -0.102678 0.712500 0.322698
v -0.059861 0.999375 0.366235
v -0.059861 0.712500 0.366235
v -0.011682 0.999375 0.410357
v -0.011682 0.712500 0.410357
v 0.040823 0.999375 0.454901
v 0.040823 0.712500 0.454901
v 0.096626 0.999375 0.499766
v 0.096626 0.712500 0.499766
v 0.154706 0.999375 0.544888
v 0.154706 0.712500 0.544888
v 0.214061 0.999375 0.590235
v 0.214061 0.712500 0.590235
v 0.273696 0.999375 0.635797
v 0.273696 0.712500 0.635797
v 0.332632 0.999375 0.681584
v 0.332632 0.712500 0.681584
v 0.389903 0.999375 0.727629
v 0.389903 0.712500 0.727629
v 0.444554 0.999375 0.773993
v 0.444554 0.712500 0.773993
v 0.495642 0.999375 0.820781
v 0.495642 0.712500 0.820781
v 0.542232 0.999375 0.868152
v 0.542232 0.712500 0.868152
v 0.583368 0.999375 0.916361
v 0.583368 0.712500 0.916361
v 0.618027 0.999375 0.965772
v 0.618027 0.712500 0.965772
v 0.644995 0.999375 1.016857
v 0.644995 0.712500 1.016857
v 0.662681 0.999375 1.070026
v 0.662681 0.712500 1.070026
v 0.668622 0.999375 1.121368
v 0.668622 0.712500 1.121368
v 0.670172 0.999375 1.151764
v 0.670172 0.712500 1.151764
v 0.674273 0.999375 1.178461
v 0.674273 0.712500 1.178461
v 0.681116 0.999375 1.205013
v 0.681116 0.712500 1.205013
v 0.690714 0.999375 1.231334
v 0.690714 0.712500 1.231334
v 0.703067 0.999375 1.257315
v 0.703067 0.712500 1.257315
v 0.718168 0.999375 1.282836
v 0.718168 0.712500 1.282836
v 0.735990 0.999375 1.307757
v 0.735990 0.712500 1.307757
v 0.756484 0.999375 1.331936
v 0.756484 0.712500 1.331936
v 0.779579 0.999375 1.355221
v 0.779579 0.712500 1.355221
v 0.805182 0.999375 1.377460
v 0.805182 0.712500 1.377460
v 0.833176 0.999375 1.398508
v 0.833176 0.712500 1.398508
v 0.863427 0.999375 1.418223
v 0.863427 0.712500 1.418223
v 0.895780 0.999375 1.436473
v 0.895780 0.712500 1.436473
v 0.930068 0.999375 1.453137
v 0.930068 0.712500 1.453137
v 0.966106 0.999375 1.468106
v 0.966106 0.712500 1.468106
v 1.003701 0.999375 1.481279
v 1.003701 0.712500 1.481279
v 1.042648 0.999375 1.492571
v 1.042648 0.712500 1.492571
v 1.082734 0.999375 1.501911
v 1.082734 0.712500 1.501911
v 1.123739 0.999375 1.509237
v 1.123739 0.712500 1.509237
v 1.164893 0.999375 1.514434
v 1.164893 0.712500 1.514434
v 1.206250 0.999375 1.516505
v 1.206250 0.712500 1.516505
v -0.206250 1.000000 -0.268750
v 1.206250 1.000000 -0.268750
v -0.206250 1.000000 0.122478
v -0.201801 1.000000 0.160935
v -0.189246 1.000000 0.198676
v -0.168224 1.000000 0.238499
v -0.139115 1.000000 0.279997
v -0.102678 1.000000 0.322698
v -0.059861 1.000000 0.366235
v -0.011682 1.000000 0.410357
v 0.040823 1.000000 0.454901
v 0.096626 1.000000 0.499766
v 0.154706 1.000000 0.544888
v 0.214061 1.000000 0.590235
v 0.273696 1.000000 0.635797
v 0.332632 1.000000 0.681584
v 0.389903 1.000000 0.727629
v 0.444554 1.000000 0.773993
v 0.495642 1.000000 0.820781
v 0.542232 1.000000 0.868152
v 0.583368 1.000000 0.916361
v 0.618027 1.000000 0.965772
v 0.644995 1.000000 1.016857
v 0.662681 1.000000 1.070026
v 0.668622 1.000000 1.121368
v 0.670172 1.000000 1.151764
v 0.674273 1.000000 1.178461
v 0.681116 1.000000 1.205013
v 0.690714 1.000000 1.231334
v 0.703067 1.000000 1.257315
v 0.718168 1.000000 1.282836
v 0.735990 1.000000 1.307757
v 0.756484 1.000000 1.331936
v 0.779579 1.000000 1.355221
v 0.805182 1.000000 1.377460
v 0.833176 1.000000 1.398508
v 0.863427 1.000000 1.418223
v 0.895780 1.000000 1.436473
v 0.930068 1.000000 1.453137
v 0.966106 1.000000 1.468106
v 1.003701 1.000000 1.481279
v 1.042648 1.000000 1.492571
v 1.082734 1.000000 1.501911
v 1.123739 1.000000 1.509237
v 1.164893 1.000000 1.514434
v 1.206250 1.000000 1.516505
v -0.243750 0.575000 -0.500000
v -0.243750 0.575000 -0.313750
v -0.243750 0.675000 -0.313750
v -0.243750 0.675000 -0.500000
v 1.243750 0.575000 -0.313750
v 1.243750 0.575000 -0.500000
v 1.243750 0.675000 -0.500000
v 1.243750 0.675000 -0.313750
v -0.112500 0.675000 -0.475000
v -0.112500 0.675000 -0.313750
v -0.112500 0.725000 -0.313750
v -0.112500 0.725000 -0.475000
v 1.112500 0.675000 -0.313750
v 1.112500 0.675000 -0.475000
v 1.112500 0.725000 -0.475000
v 1.112500 0.725000 -0.313750
v -0.243750 0.787500 -0.313750
v -0.243750 0.787500 -0.500000
v -0.112500 0.675000 -0.500000
v -0.112500 0.787500 -0.500000
v -0.112500 0.787500 -0.313750
v 1.112500 0.675000 -0.500000
v 1.112500 0.787500 -0.313750
v 1.112500 0.787500 -0.500000
v 1.243750 0.787500 -0.500000
v 1.243750 0.787500 -0.313750
v -0.112500 0.725000 -0.337500
v -0.112500 0.837500 -0.313750
v -0.112500 0.837500 -0.337500
v 1.112500 0.725000 -0.337500
v 1.112500 0.837500 -0.337500
v 1.112500 0.837500 -0.313750
v -0.206250 0.937500 -0.268750
v -0.206250 0.937500 -0.062500
v -0.206250 0.968750 -0.062500
v -0.206250 0.968750 -0.268750
v 1.206250 0.937500 -0.062500
v 1.206250 0.937500 -0.268750
v 1.206250 0.968750 -0.268750
v 1.206250 0.968750 -0.062500
v 0.112500 0.971774 -0.124629
v 0.112500 0.965726 -0.100371
v 0.112500 1.256815 -0.027795
v 0.112500 1.262862 -0.052052
v 0.887500 0.965726 -0.100371
v 0.887500 0.971774 -0.124629
v 0.887500 1.262862 -0.052052
v 0.887500 1.256815 -0.027795
v 0.100000 0.970229 -0.170103
v 0.100000 0.955109 -0.109459
v 0.100000 0.979367 -0.103412
v 0.100000 0.994487 -0.164055
v 0.900000 0.955109 -0.109459
v 0.900000 0.970229 -0.170103
v 0.900000 0.994487 -0.164055
v 0.900000 0.979367 -0.103412
v 1.250000 1.003125 -0.093750
v 0.036474 1.884803 -0.093750
v 0.053006 1.907556 -0.093750
v 1.266531 1.025879 -0.093750
v 0.036474 1.884803 0.125000
v 0.053006 1.907556 0.125000
v 0.040729 1.881712 0.170454
v 0.057261 1.904465 0.170454
v 0.052962 1.872824 0.215909
v 0.069493 1.895577 0.215909
v 0.072374 1.858720 0.261364
v 0.088906 1.881474 0.261364
v 0.098169 1.839979 0.306818
v 0.114701 1.862733 0.306818
v 0.129548 1.817181 0.352272
v 0.146079 1.839934 0.352272
v 0.165714 1.790905 0.397728
v 0.182245 1.813659 0.397728
v 0.205868 1.761731 0.443182
v 0.222399 1.784485 0.443182
v 0.249214 1.730239 0.488636
v 0.265745 1.752992 0.488636
v 0.294953 1.697008 0.534091
v 0.311484 1.719761 0.534091
v 0.342287 1.662617 0.579546
v 0.358819 1.685371 0.579546
v 0.390419 1.627647 0.625000
v 0.406951 1.650401 0.625000
v 0.438552 1.592677 0.670454
v 0.455083 1.615430 0.670454
v 0.485886 1.558286 0.715909
v 0.502417 1.581040 0.715909
v 0.531625 1.525055 0.761364
v 0.548157 1.547809 0.761364
v 0.574971 1.493562 0.806818
v 0.591503 1.516316 0.806818
v 0.615125 1.464389 0.852272
v 0.631657 1.487142 0.852272
v 0.651291 1.438112 0.897728
v 0.667822 1.460866 0.897728
v 0.682670 1.415314 0.943182
v 0.699201 1.438068 0.943182
v 0.708464 1.396574 0.988636
v 0.724996 1.419327 0.988636
v 0.727877 1.382469 1.034091
v 0.744409 1.405223 1.034091
v 0.740109 1.373582 1.079546
v 0.756641 1.396336 1.079546
v 0.744364 1.370491 1.125000
v 0.760896 1.393244 1.125000
v 0.745653 1.369555 1.156211
v 0.762184 1.392308 1.156211
v 0.749511 1.366751 1.187263
v 0.766042 1.389505 1.187263
v 0.755920 1.362096 1.217998
v 0.772451 1.384849 1.217998
v 0.764846 1.355610 1.248258
v 0.781377 1.378364 1.248258
v 0.776245 1.347328 1.277891
v 0.792776 1.370082 1.277891
v 0.790057 1.337292 1.306744
v 0.806589 1.360046 1.306744
v 0.806214 1.325554 1.334671
v 0.822746 1.348308 1.334671
v 0.824632 1.312172 1.361531
v 0.841164 1.334926 1.361531
v 0.845218 1.297216 1.387184
v 0.861749 1.319970 1.387184
v 0.867866 1.280761 1.411502
v 0.884397 1.303515 1.411502
v 0.892462 1.262892 1.434359
v 0.908993 1.285646 1.434359
v 0.918879 1.243698 1.455641
v 0.935411 1.266452 1.455641
v 0.946984 1.223279 1.475237
v 0.963516 1.246033 1.475237
v 0.976633 1.201738 1.493048
v 0.993164 1.224491 1.493048
v 1.007674 1.179184 1.508984
v 1.024206 1.201938 1.508984
v 1.039951 1.155734 1.522964
v 1.056483 1.178488 1.522964
v 1.073299 1.131506 1.534916
v 1.089830 1.154260 1.534916
v 1.107546 1.106624 1.544778
v 1.124078 1.129377 1.544778
v 1.142519 1.081214 1.552502
v 1.159051 1.103968 1.552502
v 1.178041 1.055407 1.558047
v 1.194572 1.078160 1.558047
v 1.250000 1.003125 1.562500
v 1.266531 1.025879 1.562500
v 0.014098 1.000000 0.487500
v 0.028146 0.991857 0.478125
v 0.395648 1.625913 0.478125
v 0.381599 1.634055 0.487500
v 0.028146 0.991857 0.459375
v 0.395648 1.625913 0.459375
v 0.014098 1.000000 0.450000
v 0.381599 1.634055 0.450000
v 0.000049 1.008142 0.459375
v 0.367551 1.642198 0.459375
v 0.000049 1.008142 0.478125
v 0.367551 1.642198 0.478125
v -0.017153 1.000000 0.437500
v -0.017153 1.000000 0.500000
v -0.017153 1.018750 0.500000
v -0.017153 1.018750 0.437500
v 0.045347 1.000000 0.500000
v 0.045347 1.000000 0.437500
v 0.045347 1.018750 0.437500
v 0.045347 1.018750 0.500000
v 1.137500 0.056250 -0.109375
v 1.176073 0.056250 -0.121908
v 1.176073 0.087500 -0.121908
v 1.137500 0.087500 -0.109375
v 1.199913 0.056250 -0.154721
v 1.199913 0.087500 -0.154721
v 1.199913 0.056250 -0.195279
v 1.199913 0.087500 -0.195279
v 1.176073 0.056250 -0.228092
v 1.176073 0.087500 -0.228092
v 1.137500 0.056250 -0.240625
v 1.137500 0.087500 -0.240625
v 1.098927 0.056250 -0.228092
v 1.098927 0.087500 -0.228092
v 1.075087 0.056250 -0.195279
v 1.075087 0.087500 -0.195279
v 1.075087 0.056250 -0.154721
v 1.075087 0.087500 -0.154721
v 1.098927 0.056250 -0.121908
v 1.098927 0.087500 -0.121908
v 1.187094 0.112500 -0.106739
v 1.137500 0.112500 -0.090625
v 1.217746 0.112500 -0.148927
v 1.217746 0.112500 -0.201073
v 1.187094 0.112500 -0.243261
v 1.137500 0.112500 -0.259375
v 1.087906 0.112500 -0.243261
v 1.057254 0.112500 -0.201073
v 1.057254 0.112500 -0.148927
v 1.087906 0.112500 -0.106739
v 1.187094 0.150000 -0.106739
v 1.137500 0.150000 -0.090625
v 1.217746 0.150000 -0.148927
v 1.217746 0.150000 -0.201073
v 1.187094 0.150000 -0.243261
v 1.137500 0.150000 -0.259375
v 1.087906 0.150000 -0.243261
v 1.057254 0.150000 -0.201073
v 1.057254 0.150000 -0.148927
v 1.087906 0.150000 -0.106739
v 1.174237 0.181250 -0.124436
v 1.137500 0.181250 -0.112500
v 1.196941 0.181250 -0.155686
v 1.196941 0.181250 -0.194314
v 1.174237 0.181250 -0.225564
v 1.137500 0.181250 -0.237500
v 1.100763 0.181250 -0.225564
v 1.078059 0.181250 -0.194314
v 1.078059 0.181250 -0.155686
v 1.100763 0.181250 -0.124436
v 1.172400 0.406250 -0.126964
v 1.137500 0.406250 -0.115625
v 1.193969 0.406250 -0.156652
v 1.193969 0.406250 -0.193348
v 1.172400 0.406250 -0.223036
v 1.137500 0.406250 -0.234375
v 1.102600 0.406250 -0.223036
v 1.081031 0.406250 -0.193348
v 1.081031 0.406250 -0.156652
v 1.102600 0.406250 -0.126964
v 1.179747 0.537500 -0.116852
v 1.137500 0.537500 -0.103125
v 1.205857 0.537500 -0.152789
v 1.205857 0.537500 -0.197211
v 1.179747 0.537500 -0.233148
v 1.137500 0.537500 -0.246875
v 1.095253 0.537500 -0.233148
v 1.069143 0.537500 -0.197211
v 1.069143 0.537500 -0.152789
v 1.095253 0.537500 -0.116852
v 1.194442 0.581250 -0.096626
v 1.137500 0.581250 -0.078125
v 1.229634 0.581250 -0.145064
v 1.229634 0.581250 -0.204936
v 1.194442 0.581250 -0.253374
v 1.137500 0.581250 -0.271875
v 1.080558 0.581250 -0.253374
v 1.045366 0.581250 -0.204936
v 1.045366 0.581250 -0.145064
v 1.080558 0.581250 -0.096626
v 1.196279 0.623750 -0.094098
v 1.137500 0.623750 -0.075000
v 1.232606 0.623750 -0.144098
v 1.232606 0.623750 -0.205902
v 1.196279 0.623750 -0.255902
v 1.137500 0.623750 -0.275000
v 1.078721 0.623750 -0.255902
v 1.042394 0.623750 -0.205902
v 1.042394 0.623750 -0.144098
v 1.078721 0.623750 -0.094098
v 1.137500 0.056250 -0.175000
v 1.137500 0.623750 -0.175000
v 1.115625 0.001250 -0.218750
v 1.115625 0.001250 -0.131250
v 1.115625 0.056250 -0.131250
v 1.115625 0.056250 -0.218750
v 1.159375 0.001250 -0.131250
v 1.159375 0.001250 -0.218750
v 1.159375 0.056250 -0.218750
v 1.159375 0.056250 -0.131250
v -0.137500 0.056250 -0.109375
v -0.098927 0.056250 -0.121908
v -0.098927 0.087500 -0.121908
v -0.137500 0.087500 -0.109375
v -0.075087 0.056250 -0.154721
v -0.075087 0.087500 -0.154721
v -0.075087 0.056250 -0.195279
v -0.075087 0.087500 -0.195279
v -0.098927 0.056250 -0.228092
v -0.098927 0.087500 -0.228092
v -0.137500 0.056250 -0.240625
v -0.137500 0.087500 -0.240625
v -0.176073 0.056250 -0.228092
v -0.176073 0.087500 -0.228092
v -0.199913 0.056250 -0.195279
v -0.199913 0.087500 -0.195279
v -0.199913 0.056250 -0.154721
v -0.199913 0.087500 -0.154721
v -0.176073 0.056250 -0.121908
v -0.176073 0.087500 -0.121908
v -0.087906 0.112500 -0.106739
v -0.137500 0.112500 -0.090625
v -0.057254 0.112500 -0.148927
v -0.057254 0.112500 -0.201073
v -0.087906 0.112500 -0.243261
v -0.137500 0.112500 -0.259375
v -0.187094 0.112500 -0.243261
v -0.217746 0.112500 -0.201073
v -0.217746 0.112500 -0.148927
v -0.187094 0.112500 -0.106739
v -0.087906 0.150000 -0.106739
v -0.137500 0.150000 -0.090625
v -0.057254 0.150000 -0.148927
v -0.057254 0.150000 -0.201073
v -0.087906 0.150000 -0.243261
v -0.137500 0.150000 -0.259375
v -0.187094 0.150000 -0.243261
v -0.217746 0.150000 -0.201073
v -0.217746 0.150000 -0.148927
v -0.187094 0.150000 -0.106739
v -0.100763 0.181250 -0.124436
v -0.137500 0.181250 -0.112500
v -0.078059 0.181250 -0.155686
v -0.078059 0.181250 -0.194314
v -0.100763 0.181250 -0.225564
v -0.137500 0.181250 -0.237500
v -0.174237 0.181250 -0.225564
v -0.196941 0.181250 -0.194314
v -0.196941 0.181250 -0.155686
v -0.174237 0.181250 -0.124436
v -0.102600 0.406250 -0.126964
v -0.137500 0.406250 -0.115625
v -0.081031 0.406250 -0.156652
v -0.081031 0.406250 -0.193348
v -0.102600 0.406250 -0.223036
v -0.137500 0.406250 -0.234375
v -0.172400 0.406250 -0.223036
v -0.193969 0.406250 -0.193348
v -0.193969 0.406250 -0.156652
v -0.172400 0.406250 -0.126964
v -0.095253 0.537500 -0.116852
v -0.137500 0.537500 -0.103125
v -0.069143 0.537500 -0.152789
v -0.069143 0.537500 -0.197211
v -0.095253 0.537500 -0.233148
v -0.137500 0.537500 -0.246875
v -0.179747 0.537500 -0.233148
v -0.205857 0.537500 -0.197211
v -0.205857 0.537500 -0.152789
v -0.179747 0.537500 -0.116852
v -0.080558 0.581250 -0.096626
v -0.137500 0.581250 -0.078125
v -0.045366 0.581250 -0.145064
v -0.045366 0.581250 -0.204936
v -0.080558 0.581250 -0.253374
v -0.137500 0.581250 -0.271875
v -0.194442 0.581250 -0.253374
v -0.229634 0.581250 -0.204936
v -0.229634 0.581250 -0.145064
v -0.194442 0.581250 -0.096626
v -0.078721 0.623750 -0.094098
v -0.137500 0.623750 -0.075000
v -0.042394 0.623750 -0.144098
v -0.042394 0.623750 -0.205902
v -0.078721 0.623750 -0.255902
v -0.137500 0.623750 -0.275000
v -0.196279 0.623750 -0.255902
v -0.232606 0.623750 -0.205902
v -0.232606 0.623750 -0.144098
v -0.196279 0.623750 -0.094098
v -0.137500 0.056250 -0.175000
v -0.137500 0.623750 -0.175000
v -0.159375 0.001250 -0.218750
v -0.159375 0.001250 -0.131250
v -0.159375 0.056250 -0.131250
v -0.159375 0.056250 -0.218750
v -0.115625 0.001250 -0.131250
v -0.115625 0.001250 -0.218750
v -0.115625 0.056250 -0.218750
v -0.115625 0.056250 -0.131250
v 0.937500 0.056250 1.378125
v 0.976073 0.056250 1.365592
v 0.976073 0.087500 1.365592
v 0.937500 0.087500 1.378125
v 0.999913 0.056250 1.332779
v 0.999913 0.087500 1.332779
v 0.999913 0.056250 1.292221
v 0.999913 0.087500 1.292221
v 0.976073 0.056250 1.259408
v 0.976073 0.087500 1.259408
v 0.937500 0.056250 1.246875
v 0.937500 0.087500 1.246875
v 0.898927 0.056250 1.259408
v 0.898927 0.087500 1.259408
v 0.875087 0.056250 1.292221
v 0.875087 0.087500 1.292221
v 0.875087 0.056250 1.332779
v 0.875087 0.087500 1.332779
v 0.898927 0.056250 1.365592
v 0.898927 0.087500 1.365592
v 0.987094 0.112500 1.380761
v 0.937500 0.112500 1.396875
v 1.017746 0.112500 1.338573
v 1.017746 0.112500 1.286427
v 0.987094 0.112500 1.244239
v 0.937500 0.112500 1.228125
v 0.887906 0.112500 1.244239
v 0.857254 0.112500 1.286427
v 0.857254 0.112500 1.338573
v 0.887906 0.112500 1.380761
v 0.987094 0.150000 1.380761
v 0.937500 0.150000 1.396875
v 1.017746 0.150000 1.338573
v 1.017746 0.150000 1.286427
v 0.987094 0.150000 1.244239
v 0.937500 0.150000 1.228125
v 0.887906 0.150000 1.244239
v 0.857254 0.150000 1.286427
v 0.857254 0.150000 1.338573
v 0.887906 0.150000 1.380761
v 0.974237 0.181250 1.363064
v 0.937500 0.181250 1.375000
v 0.996941 0.181250 1.331814
v 0.996941 0.181250 1.293186
v 0.974237 0.181250 1.261936
v 0.937500 0.181250 1.250000
v 0.900763 0.181250 1.261936
v 0.878059 0.181250 1.293186
v 0.878059 0.181250 1.331814
v 0.900763 0.181250 1.363064
v 0.972400 0.406250 1.360536
v 0.937500 0.406250 1.371875
v 0.993969 0.406250 1.330848
v 0.993969 0.406250 1.294152
v 0.972400 0.406250 1.264464
v 0.937500 0.406250 1.253125
v 0.902600 0.406250 1.264464
v 0.881031 0.406250 1.294152
v 0.881031 0.406250 1.330848
v 0.902600 0.406250 1.360536
v 0.979747 0.537500 1.370648
v 0.937500 0.537500 1.384375
v 1.005857 0.537500 1.334711
v 1.005857 0.537500 1.290289
v 0.979747 0.537500 1.254352
v 0.937500 0.537500 1.240625
v 0.895253 0.537500 1.254352
v 0.869143 0.537500 1.290289
v 0.869143 0.537500 1.334711
v 0.895253 0.537500 1.370648
v 0.994442 0.581250 1.390874
v 0.937500 0.581250 1.409375
v 1.029634 0.581250 1.342436
v 1.029634 0.581250 1.282564
v 0.994442 0.581250 1.234126
v 0.937500 0.581250 1.215625
v 0.880558 0.581250 1.234126
v 0.845366 0.581250 1.282564
v 0.845366 0.581250 1.342436
v 0.880558 0.581250 1.390874
v 0.996279 0.623750 1.393402
v 0.937500 0.623750 1.412500
v 1.032606 0.623750 1.343402
v 1.032606 0.623750 1.281598
v 0.996279 0.623750 1.231598
v 0.937500 0.623750 1.212500
v 0.878721 0.623750 1.231598
v 0.842394 0.623750 1.281598
v 0.842394 0.623750 1.343402
v 0.878721 0.623750 1.393402
v 0.937500 0.056250 1.312500
v 0.937500 0.623750 1.312500
v 0.915625 0.001250 1.268750
v 0.915625 0.001250 1.356250
v 0.915625 0.056250 1.356250
v 0.915625 0.056250 1.268750
v 0.959375 0.001250 1.356250
v 0.959375 0.001250 1.268750
v 0.959375 0.056250 1.268750
v 0.959375 0.056250 1.356250
v 0.412500 0.100000 -0.207500
v 0.427656 0.100000 -0.216250
v 0.427656 0.625000 -0.216250
v 0.412500 0.625000 -0.207500
v 0.427656 0.100000 -0.233750
v 0.427656 0.625000 -0.233750
v 0.412500 0.100000 -0.242500
v 0.412500 0.625000 -0.242500
v 0.397344 0.100000 -0.233750
v 0.397344 0.625000 -0.233750
v 0.397344 0.100000 -0.216250
v 0.397344 0.625000 -0.216250
v 0.587500 0.100000 -0.207500
v 0.602656 0.100000 -0.216250
v 0.602656 0.625000 -0.216250
v 0.587500 0.625000 -0.207500
v 0.602656 0.100000 -0.233750
v 0.602656 0.625000 -0.233750
v 0.587500 0.100000 -0.242500
v 0.587500 0.625000 -0.242500
v 0.572344 0.100000 -0.233750
v 0.572344 0.625000 -0.233750
v 0.572344 0.100000 -0.216250
v 0.572344 0.625000 -0.216250
v 0.337500 0.018750 -0.275000
v 0.337500 0.018750 -0.175000
v 0.337500 0.100000 -0.175000
v 0.337500 0.100000 -0.275000
v 0.662500 0.018750 -0.175000
v 0.662500 0.018750 -0.275000
v 0.662500 0.100000 -0.275000
v 0.662500 0.100000 -0.175000
v 0.375000 0.046875 -0.368750
v 0.375000 0.046875 -0.275000
v 0.375000 0.065625 -0.275000
v 0.375000 0.065625 -0.368750
v 0.412500 0.046875 -0.275000
v 0.412500 0.046875 -0.368750
v 0.412500 0.065625 -0.368750
v 0.412500 0.065625 -0.275000
v 0.481250 0.046875 -0.368750
v 0.481250 0.046875 -0.275000
v 0.481250 0.065625 -0.275000
v 0.481250 0.065625 -0.368750
v 0.518750 0.046875 -0.275000
v 0.518750 0.046875 -0.368750
v 0.518750 0.065625 -0.368750
v 0.518750 0.065625 -0.275000
v 0.587500 0.046875 -0.368750
v 0.587500 0.046875 -0.275000
v 0.587500 0.065625 -0.275000
v 0.587500 0.065625 -0.368750
v 0.625000 0.046875 -0.275000
v 0.625000 0.046875 -0.368750
v 0.625000 0.065625 -0.368750
v 0.625000 0.065625 -0.275000
vt 0.837890 0.744140
vt 0.868060 0.744140
vt 0.868060 0.865230
vt 0.837890 0.865230
vt 0.876870 0.744140
vt 0.876870 0.865230
vt 0.877790 0.744140
vt 0.877790 0.865230
vt 0.878750 0.744140
vt 0.878750 0.865230
vt 0.879790 0.744140
vt 0.879790 0.865230
vt 0.880900 0.744140
vt 0.880900 0.865230
vt 0.882100 0.744140
vt 0.882100 0.865230
vt 0.883390 0.744140
vt 0.883390 0.865230
vt 0.884740 0.744140
vt 0.884740 0.865230
vt 0.886150 0.744140
vt 0.886150 0.865230
vt 0.887610 0.744140
vt 0.887610 0.865230
vt 0.889100 0.744140
vt 0.889100 0.865230
vt 0.890610 0.744140
vt 0.890610 0.865230
vt 0.892110 0.744140
vt 0.892110 0.865230
vt 0.893610 0.744140
vt 0.893610 0.865230
vt 0.895060 0.744140
vt 0.895060 0.865230
vt 0.896480 0.744140
vt 0.896480 0.865230
vt 0.897830 0.744140
vt 0.897830 0.865230
vt 0.899110 0.744140
vt 0.899110 0.865230
vt 0.900320 0.744140
vt 0.900320 0.865230
vt 0.901430 0.744140
vt 0.901430 0.865230
vt 0.902470 0.744140
vt 0.902470 0.865230
vt 0.903430 0.744140
vt 0.903430 0.865230
vt 0.904350 0.744140
vt 0.904350 0.865230
vt 0.904980 0.744140
vt 0.904980 0.865230
vt 0.905610 0.744140
vt 0.905610 0.865230
vt 0.906250 0.744140
vt 0.906250 0.865230
vt 0.906900 0.744140
vt 0.906900 0.865230
vt 0.907560 0.744140
vt 0.907560 0.865230
vt 0.908230 0.744140
vt 0.908230 0.865230
vt 0.908920 0.744140
vt 0.908920 0.865230
vt 0.909630 0.744140
vt 0.909630 0.865230
vt 0.910360 0.744140
vt 0.910360 0.865230
vt 0.911110 0.744140
vt 0.911110 0.865230
vt 0.911870 0.744140
vt 0.911870 0.865230
vt 0.912650 0.744140
vt 0.912650 0.865230
vt 0.913460 0.744140
vt 0.913460 0.865230
vt 0.914280 0.744140
vt 0.914280 0.865230
vt 0.915110 0.744140
vt 0.915110 0.865230
vt 0.915960 0.744140
vt 0.915960 0.865230
vt 0.916830 0.744140
vt 0.916830 0.865230
vt 0.917700 0.744140
vt 0.917700 0.865230
vt 0.918580 0.744140
vt 0.918580 0.865230
vt 0.919470 0.744140
vt 0.919470 0.865230
vt 0.921270 0.744140
vt 0.921270 0.865230
vt 0.958980 0.744140
vt 0.958980 0.865230
vt 0.068360 0.666020
vt 0.068360 0.724610
vt 0.064880 0.724470
vt 0.063170 0.724300
vt 0.061480 0.724060
vt 0.059830 0.723750
vt 0.058220 0.723370
vt 0.056660 0.722940
vt 0.055160 0.722440
vt 0.053730 0.721880
vt 0.052370 0.721270
vt 0.051100 0.720610
vt 0.049910 0.719890
vt 0.048810 0.719130
vt 0.047820 0.718330
vt 0.046930 0.717490
vt 0.046150 0.716620
vt 0.045480 0.715710
vt 0.044930 0.714790
vt 0.044500 0.713840
vt 0.044190 0.712880
vt 0.044010 0.711910
vt 0.043940 0.710940
vt 0.043740 0.709520
vt 0.043150 0.708100
vt 0.042210 0.706680
vt 0.040970 0.705260
vt 0.039450 0.703830
vt 0.037710 0.702420
vt 0.035770 0.700990
vt 0.033670 0.699570
vt 0.031460 0.698150
vt 0.029180 0.696730
vt 0.026860 0.695310
vt 0.024530 0.693890
vt 0.022250 0.692470
vt 0.020040 0.691050
vt 0.017940 0.689630
vt 0.016010 0.688210
vt 0.014260 0.686790
vt 0.012740 0.685370
vt 0.011500 0.683950
vt 0.010560 0.682530
vt 0.009970 0.681110
vt 0.009770 0.679690
vt 0.009770 0.666020
vt 0.867970 0.865230
vt 0.867970 0.744140
vt 0.876300 0.865230
vt 0.876300 0.744140
vt 0.877130 0.865230
vt 0.877130 0.744140
vt 0.877980 0.865230
vt 0.877980 0.744140
vt 0.878940 0.865230
vt 0.878940 0.744140
vt 0.880010 0.865230
vt 0.880010 0.744140
vt 0.881210 0.865230
vt 0.881210 0.744140
vt 0.882510 0.865230
vt 0.882510 0.744140
vt 0.883900 0.865230
vt 0.883900 0.744140
vt 0.885370 0.865230
vt 0.885370 0.744140
vt 0.886890 0.865230
vt 0.886890 0.744140
vt 0.888460 0.865230
vt 0.888460 0.744140
vt 0.890050 0.865230
vt 0.890050 0.744140
vt 0.891650 0.865230
vt 0.891650 0.744140
vt 0.893240 0.865230
vt 0.893240 0.744140
vt 0.894800 0.865230
vt 0.894800 0.744140
vt 0.896330 0.865230
vt 0.896330 0.744140
vt 0.897800 0.865230
vt 0.897800 0.744140
vt 0.899220 0.865230
vt 0.899220 0.744140
vt 0.900570 0.865230
vt 0.900570 0.744140
vt 0.901850 0.865230
vt 0.901850 0.744140
vt 0.903080 0.865230
vt 0.903080 0.744140
vt 0.904280 0.865230
vt 0.904280 0.744140
vt 0.905380 0.865230
vt 0.905380 0.744140
vt 0.906030 0.865230
vt 0.906030 0.744140
vt 0.906600 0.865230
vt 0.906600 0.744140
vt 0.907190 0.865230
vt 0.907190 0.744140
vt 0.907780 0.865230
vt 0.907780 0.744140
vt 0.908390 0.865230
vt 0.908390 0.744140
vt 0.909030 0.865230
vt 0.909030 0.744140
vt 0.909680 0.865230
vt 0.909680 0.744140
vt 0.910350 0.865230
vt 0.910350 0.744140
vt 0.911050 0.865230
vt 0.911050 0.744140
vt 0.911780 0.865230
vt 0.911780 0.744140
vt 0.912520 0.865230
vt 0.912520 0.744140
vt 0.913290 0.865230
vt 0.913290 0.744140
vt 0.914080 0.865230
vt 0.914080 0.744140
vt 0.914890 0.865230
vt 0.914890 0.744140
vt 0.915720 0.865230
vt 0.915720 0.744140
vt 0.916570 0.865230
vt 0.916570 0.744140
vt 0.917440 0.865230
vt 0.917440 0.744140
vt 0.918310 0.865230
vt 0.918310 0.744140
vt 0.919200 0.865230
vt 0.919200 0.744140
vt 0.920080 0.865230
vt 0.920080 0.744140
vt 0.920960 0.865230
vt 0.920960 0.744140
vt 0.896480 0.025390
vt 0.896480 0.646480
vt 0.400390 0.646480
vt 0.400390 0.510380
vt 0.401950 0.497000
vt 0.406360 0.483870
vt 0.413750 0.470010
vt 0.423970 0.455570
vt 0.436770 0.440720
vt 0.451810 0.425570
vt 0.468730 0.410220
vt 0.487170 0.394720
vt 0.506770 0.379120
vt 0.527160 0.363420
vt 0.548010 0.347640
vt 0.568960 0.331790
vt 0.589660 0.315860
vt 0.609770 0.299840
vt 0.628960 0.283710
vt 0.646910 0.267430
vt 0.663270 0.250950
vt 0.677720 0.234180
vt 0.689890 0.216990
vt 0.699360 0.199220
vt 0.705570 0.180720
vt 0.707660 0.162860
vt 0.708200 0.152290
vt 0.709640 0.143000
vt 0.712050 0.133760
vt 0.715420 0.124600
vt 0.719760 0.115560
vt 0.725060 0.106690
vt 0.731320 0.098010
vt 0.738520 0.089600
vt 0.746630 0.081500
vt 0.755620 0.073760
vt 0.765450 0.066440
vt 0.776080 0.059580
vt 0.787440 0.053230
vt 0.799480 0.047440
vt 0.812140 0.042230
vt 0.825350 0.037650
vt 0.839030 0.033720
vt 0.853100 0.030470
vt 0.867500 0.027920
vt 0.881960 0.026110
vt 0.015620 0.718750
vt 0.062500 0.718750
vt 0.062500 0.671880
vt 0.015620 0.671880
vt 0.009770 0.845700
vt 0.818360 0.845700
vt 0.818360 0.865230
vt 0.009770 0.865230
vt 0.009770 0.990230
vt 0.009770 0.884770
vt 0.818360 0.884770
vt 0.818360 0.990230
vt 0.166020 0.681640
vt 0.662110 0.681640
vt 0.662110 0.724610
vt 0.166020 0.724610
vt 0.009770 0.724610
vt 0.837890 0.746600
vt 0.868230 0.744140
vt 0.958980 0.862770
vt 0.928650 0.865230
vt 0.928650 0.744140
vt 0.958980 0.746600
vt 0.868230 0.865230
vt 0.837890 0.862770
vt 0.380860 0.509770
vt 0.380860 0.646480
vt 0.009770 0.646480
vt 0.009770 0.509770
vt 0.837890 0.790640
vt 0.948000 0.744140
vt 0.958980 0.818740
vt 0.848870 0.865230
vt 0.848870 0.744140
vt 0.958980 0.790640
vt 0.948000 0.865230
vt 0.837890 0.818740
vt 0.870430 0.744140
vt 0.870430 0.865230
vt 0.875180 0.744140
vt 0.875180 0.865230
vt 0.876170 0.744140
vt 0.876170 0.865230
vt 0.877210 0.744140
vt 0.877210 0.865230
vt 0.878320 0.744140
vt 0.878320 0.865230
vt 0.879530 0.744140
vt 0.879530 0.865230
vt 0.880820 0.744140
vt 0.880820 0.865230
vt 0.882210 0.744140
vt 0.882210 0.865230
vt 0.883670 0.744140
vt 0.883670 0.865230
vt 0.885190 0.744140
vt 0.885190 0.865230
vt 0.886760 0.744140
vt 0.886760 0.865230
vt 0.888370 0.744140
vt 0.888370 0.865230
vt 0.890000 0.744140
vt 0.890000 0.865230
vt 0.891620 0.744140
vt 0.891620 0.865230
vt 0.893230 0.744140
vt 0.893230 0.865230
vt 0.897790 0.744140
vt 0.897790 0.865230
vt 0.899170 0.744140
vt 0.899170 0.865230
vt 0.900460 0.744140
vt 0.900460 0.865230
vt 0.901670 0.744140
vt 0.901670 0.865230
vt 0.902780 0.744140
vt 0.902780 0.865230
vt 0.903820 0.744140
vt 0.903820 0.865230
vt 0.904820 0.744140
vt 0.904820 0.865230
vt 0.905490 0.744140
vt 0.905490 0.865230
vt 0.906170 0.744140
vt 0.906170 0.865230
vt 0.906860 0.744140
vt 0.906860 0.865230
vt 0.908270 0.744140
vt 0.908270 0.865230
vt 0.909000 0.744140
vt 0.909000 0.865230
vt 0.909750 0.744140
vt 0.909750 0.865230
vt 0.910510 0.744140
vt 0.910510 0.865230
vt 0.911290 0.744140
vt 0.911290 0.865230
vt 0.912100 0.744140
vt 0.912100 0.865230
vt 0.912920 0.744140
vt 0.912920 0.865230
vt 0.913770 0.744140
vt 0.913770 0.865230
vt 0.914630 0.744140
vt 0.914630 0.865230
vt 0.915520 0.744140
vt 0.915520 0.865230
vt 0.916420 0.744140
vt 0.916420 0.865230
vt 0.917340 0.744140
vt 0.917340 0.865230
vt 0.918270 0.744140
vt 0.918270 0.865230
vt 0.919210 0.744140
vt 0.919210 0.865230
vt 0.920160 0.744140
vt 0.920160 0.865230
vt 0.921120 0.744140
vt 0.921120 0.865230
vt 0.923050 0.744140
vt 0.923050 0.865230
vt 0.942990 0.865230
vt 0.939670 0.864810
vt 0.936340 0.863590
vt 0.933020 0.861650
vt 0.929700 0.859080
vt 0.926370 0.855950
vt 0.923050 0.852340
vt 0.919730 0.848330
vt 0.916400 0.844010
vt 0.913080 0.839440
vt 0.909760 0.834720
vt 0.906430 0.829910
vt 0.903110 0.825110
vt 0.899790 0.820390
vt 0.896460 0.815830
vt 0.893140 0.811500
vt 0.889820 0.807490
vt 0.886490 0.803880
vt 0.883170 0.800750
vt 0.879850 0.798180
vt 0.876520 0.796240
vt 0.873200 0.795020
vt 0.869880 0.794600
vt 0.867600 0.794470
vt 0.865330 0.794080
vt 0.863080 0.793440
vt 0.860870 0.792550
vt 0.858700 0.791410
vt 0.856590 0.790040
vt 0.854550 0.788430
vt 0.852580 0.786590
vt 0.850710 0.784530
vt 0.848930 0.782270
vt 0.847260 0.779820
vt 0.845700 0.777180
vt 0.844270 0.774380
vt 0.842970 0.771420
vt 0.841800 0.768320
vt 0.840780 0.765100
vt 0.839910 0.761770
vt 0.839190 0.758360
vt 0.838620 0.754870
vt 0.838220 0.751320
vt 0.958660 0.751320
vt 0.958250 0.754870
vt 0.957690 0.758360
vt 0.956970 0.761770
vt 0.956090 0.765100
vt 0.955070 0.768320
vt 0.953910 0.771420
vt 0.952600 0.774380
vt 0.951170 0.777180
vt 0.949620 0.779820
vt 0.947940 0.782270
vt 0.946170 0.784530
vt 0.944290 0.786590
vt 0.942330 0.788430
vt 0.940290 0.790040
vt 0.938180 0.791410
vt 0.936010 0.792550
vt 0.933800 0.793440
vt 0.931550 0.794080
vt 0.929280 0.794470
vt 0.927000 0.794600
vt 0.923670 0.795020
vt 0.920350 0.796240
vt 0.917030 0.798180
vt 0.913700 0.800750
vt 0.910380 0.803880
vt 0.907060 0.807490
vt 0.903730 0.811500
vt 0.900410 0.815830
vt 0.897090 0.820390
vt 0.893760 0.825110
vt 0.890440 0.829910
vt 0.887120 0.834720
vt 0.883790 0.839440
vt 0.880470 0.844010
vt 0.877150 0.848330
vt 0.873820 0.852340
vt 0.870500 0.855950
vt 0.867180 0.859080
vt 0.863850 0.861650
vt 0.860530 0.863590
vt 0.857210 0.864810
vt 0.853880 0.865230
vt 0.858070 0.865230
vt 0.858070 0.744140
vt 0.878260 0.865230
vt 0.878260 0.744140
vt 0.898440 0.865230
vt 0.898440 0.744140
vt 0.918620 0.865230
vt 0.918620 0.744140
vt 0.938800 0.865230
vt 0.938800 0.744140
vt 0.087890 0.666020
vt 0.146480 0.666020
vt 0.146480 0.724610
vt 0.087890 0.724610
vt 0.850000 0.744140
vt 0.850000 0.750580
vt 0.837890 0.750580
vt 0.862110 0.744140
vt 0.862110 0.750580
vt 0.874220 0.744140
vt 0.874220 0.750580
vt 0.886330 0.744140
vt 0.886330 0.750580
vt 0.898440 0.750580
vt 0.910550 0.744140
vt 0.910550 0.750580
vt 0.922660 0.744140
vt 0.922660 0.750580
vt 0.934770 0.744140
vt 0.934770 0.750580
vt 0.946880 0.744140
vt 0.946880 0.750580
vt 0.958980 0.750580
vt 0.850000 0.757010
vt 0.837890 0.757010
vt 0.862110 0.757010
vt 0.874220 0.757010
vt 0.886330 0.757010
vt 0.898440 0.757010
vt 0.910550 0.757010
vt 0.922660 0.757010
vt 0.934770 0.757010
vt 0.946880 0.757010
vt 0.958980 0.757010
vt 0.850000 0.764730
vt 0.837890 0.764730
vt 0.862110 0.764730
vt 0.874220 0.764730
vt 0.886330 0.764730
vt 0.898440 0.764730
vt 0.910550 0.764730
vt 0.922660 0.764730
vt 0.934770 0.764730
vt 0.946880 0.764730
vt 0.958980 0.764730
vt 0.850000 0.772590
vt 0.837890 0.772590
vt 0.862110 0.772590
vt 0.874220 0.772590
vt 0.886330 0.772590
vt 0.898440 0.772590
vt 0.910550 0.772590
vt 0.922660 0.772590
vt 0.934770 0.772590
vt 0.946880 0.772590
vt 0.958980 0.772590
vt 0.850000 0.818930
vt 0.837890 0.818930
vt 0.862110 0.818930
vt 0.874220 0.818930
vt 0.886330 0.818930
vt 0.898440 0.818930
vt 0.910550 0.818930
vt 0.922660 0.818930
vt 0.934770 0.818930
vt 0.946880 0.818930
vt 0.958980 0.818930
vt 0.850000 0.846080
vt 0.837890 0.846080
vt 0.862110 0.846080
vt 0.874220 0.846080
vt 0.886330 0.846080
vt 0.898440 0.846080
vt 0.910550 0.846080
vt 0.922660 0.846080
vt 0.934770 0.846080
vt 0.946880 0.846080
vt 0.958980 0.846080
vt 0.850000 0.856460
vt 0.837890 0.856460
vt 0.862110 0.856460
vt 0.874220 0.856460
vt 0.886330 0.856460
vt 0.898440 0.856460
vt 0.910550 0.856460
vt 0.922660 0.856460
vt 0.934770 0.856460
vt 0.946880 0.856460
vt 0.958980 0.856460
vt 0.850000 0.865230
vt 0.862110 0.865230
vt 0.874220 0.865230
vt 0.886330 0.865230
vt 0.910550 0.865230
vt 0.922660 0.865230
vt 0.934770 0.865230
vt 0.946880 0.865230
vt 0.947420 0.769100
vt 0.958980 0.804690
vt 0.898440 0.804690
vt 0.917150 0.747100
vt 0.879730 0.747100
vt 0.849450 0.769100
vt 0.837890 0.804690
vt 0.849450 0.840280
vt 0.879730 0.862270
vt 0.917150 0.862270
vt 0.947420 0.840280
vn 0.00000 0.00000 -1.00000
vn -1.00000 -0.00000 0.00000
vn -0.99337 -0.00000 0.11494
vn -0.94888 -0.00000 0.31564
vn -0.88434 -0.00000 0.46684
vn -0.81868 -0.00000 0.57426
vn -0.76070 -0.00000 0.64911
vn -0.71297 -0.00000 0.70119
vn -0.67538 -0.00000 0.73747
vn -0.64693 -0.00000 0.76255
vn -0.62659 -0.00000 0.77935
vn -0.61350 -0.00000 0.78969
vn -0.60710 -0.00000 0.79462
vn -0.99870 -0.00000 0.05096
vn -0.98841 -0.00000 0.15181
vn -0.96835 -0.00000 0.24959
vn -0.93950 -0.00000 0.34256
vn -0.90311 -0.00000 0.42941
vn -0.86062 -0.00000 0.50926
vn -0.81342 -0.00000 0.58167
vn -0.76284 -0.00000 0.64659
vn -0.70999 -0.00000 0.70422
vn -0.65578 -0.00000 0.75495
vn -0.60095 -0.00000 0.79929
vn -0.54600 -0.00000 0.83778
vn -0.49132 -0.00000 0.87098
vn -0.43713 -0.00000 0.89940
vn -0.38356 -0.00000 0.92351
vn -0.33068 -0.00000 0.94374
vn -0.27848 -0.00000 0.96044
vn -0.22691 -0.00000 0.97392
vn -0.17588 -0.00000 0.98441
vn -0.12530 -0.00000 0.99212
vn -0.05000 -0.00000 0.99875
vn 1.00000 0.00000 0.00000
vn 0.00000 -1.00000 -0.00000
vn -0.00000 -0.00000 1.00000
vn 0.99337 0.00000 -0.11494
vn 0.94888 0.00000 -0.31564
vn 0.88434 0.00000 -0.46684
vn 0.81868 0.00000 -0.57426
vn 0.76070 0.00000 -0.64911
vn 0.71297 0.00000 -0.70119
vn 0.67538 0.00000 -0.73747
vn 0.64693 0.00000 -0.76255
vn 0.62659 0.00000 -0.77935
vn 0.61350 0.00000 -0.78969
vn 0.60710 0.00000 -0.79462
vn 0.99870 0.00000 -0.05096
vn 0.98841 0.00000 -0.15181
vn 0.96835 0.00000 -0.24959
vn 0.93950 0.00000 -0.34256
vn 0.90311 0.00000 -0.42941
vn 0.86062 0.00000 -0.50926
vn 0.81342 0.00000 -0.58167
vn 0.76284 0.00000 -0.64659
vn 0.70999 0.00000 -0.70422
vn 0.65578 0.00000 -0.75495
vn 0.60095 0.00000 -0.79929
vn 0.54600 0.00000 -0.83778
vn 0.49132 0.00000 -0.87098
vn 0.43713 0.00000 -0.89940
vn 0.38356 0.00000 -0.92351
vn 0.33068 0.00000 -0.94374
vn 0.27848 0.00000 -0.96044
vn 0.22691 0.00000 -0.97392
vn 0.17588 0.00000 -0.98441
vn 0.12530 0.00000 -0.99212
vn 0.05000 0.00000 -0.99875
vn 0.00000 1.00000 0.00000
vn -0.00000 -0.97030 -0.24192
vn 0.00000 0.97030 0.24192
vn -0.00000 0.24192 -0.97030
vn 0.00000 -0.24192 0.97030
vn -0.80902 0.58779 0.00000
vn -0.80366 0.58389 0.11494
vn -0.76766 0.55774 0.31564
vn -0.71545 0.51980 0.46684
vn -0.66232 0.48121 0.57426
vn -0.61542 0.44713 0.64911
vn -0.57681 0.41908 0.70119
vn -0.54639 0.39698 0.73747
vn -0.52338 0.38026 0.76255
vn -0.50692 0.36830 0.77935
vn -0.49633 0.36061 0.78969
vn -0.49115 0.35684 0.79462
vn -0.80797 0.58702 0.05096
vn -0.79964 0.58097 0.15181
vn -0.78341 0.56918 0.24959
vn -0.76007 0.55222 0.34256
vn -0.73063 0.53084 0.42941
vn -0.69625 0.50586 0.50926
vn -0.65807 0.47812 0.58167
vn -0.61715 0.44838 0.64659
vn -0.57439 0.41732 0.70422
vn -0.53054 0.38546 0.75495
vn -0.48618 0.35323 0.79929
vn -0.44173 0.32093 0.83778
vn -0.39748 0.28879 0.87098
vn -0.35364 0.25694 0.89940
vn -0.31031 0.22545 0.92351
vn -0.26753 0.19437 0.94374
vn -0.22529 0.16369 0.96044
vn -0.18357 0.13337 0.97392
vn -0.14229 0.10338 0.98441
vn -0.10137 0.07365 0.99212
vn -0.04045 0.02939 0.99875
vn 0.80902 -0.58779 -0.00000
vn 0.58779 0.80902 -0.00000
vn -0.58779 -0.80902 0.00000
vn 0.74927 -0.43428 0.50000
vn 0.74927 -0.43428 -0.50000
vn -0.74927 0.43428 -0.50000
vn -0.74927 0.43428 0.50000
vn -0.50146 -0.86518 -0.00000
vn 0.50146 0.86518 0.00000
vn 0.58779 0.00000 0.80902
vn 0.55762 -0.31623 0.76750
vn 0.00000 -0.31623 0.94868
vn 0.95106 0.00000 0.30902
vn 0.90225 -0.31623 0.29316
vn 0.95106 0.00000 -0.30902
vn 0.90225 -0.31623 -0.29316
vn 0.58779 0.00000 -0.80902
vn 0.55762 -0.31623 -0.76750
vn 0.00000 -0.31623 -0.94868
vn -0.58779 -0.00000 -0.80902
vn -0.55762 -0.31623 -0.76750
vn -0.95106 -0.00000 -0.30902
vn -0.90225 -0.31623 -0.29316
vn -0.95106 0.00000 0.30902
vn -0.90225 -0.31623 0.29316
vn -0.58779 0.00000 0.80902
vn -0.55762 -0.31623 0.76750
vn 0.56300 -0.28735 0.77490
vn 0.00000 -0.28735 0.95783
vn 0.91095 -0.28735 0.29598
vn 0.91095 -0.28735 -0.29598
vn 0.56300 -0.28735 -0.77490
vn 0.00000 -0.28735 -0.95783
vn -0.56300 -0.28735 -0.77490
vn -0.91095 -0.28735 -0.29598
vn -0.91095 -0.28735 0.29598
vn -0.56300 -0.28735 0.77490
vn 0.56012 0.30320 0.77093
vn 0.00000 0.30320 0.95293
vn 0.90629 0.30320 0.29447
vn 0.90629 0.30320 -0.29447
vn 0.56012 0.30320 -0.77093
vn 0.00000 0.30320 -0.95293
vn -0.56012 0.30320 -0.77093
vn -0.90629 0.30320 -0.29447
vn -0.90629 0.30320 0.29447
vn -0.56012 0.30320 0.77093
vn 0.58501 0.09710 0.80519
vn 0.00000 0.09710 0.99527
vn 0.94656 0.09710 0.30756
vn 0.94656 0.09710 -0.30756
vn 0.58501 0.09710 -0.80519
vn 0.00000 0.09710 -0.99527
vn -0.58501 0.09710 -0.80519
vn -0.94656 0.09710 -0.30756
vn -0.94656 0.09710 0.30756
vn -0.58501 0.09710 0.80519
vn 0.58758 -0.02631 0.80874
vn 0.00000 -0.02631 0.99965
vn 0.95073 -0.02631 0.30891
vn 0.95073 -0.02631 -0.30891
vn 0.58758 -0.02631 -0.80874
vn 0.00000 -0.02631 -0.99965
vn -0.58758 -0.02631 -0.80874
vn -0.95073 -0.02631 -0.30891
vn -0.95073 -0.02631 0.30891
vn -0.58758 -0.02631 0.80874
vn 0.57474 -0.20953 0.79106
vn 0.00000 -0.20953 0.97780
vn 0.92995 -0.20953 0.30216
vn 0.92995 -0.20953 -0.30216
vn 0.57474 -0.20953 -0.79106
vn 0.00000 -0.20953 -0.97780
vn -0.57474 -0.20953 -0.79106
vn -0.92995 -0.20953 -0.30216
vn -0.92995 -0.20953 0.30216
vn -0.57474 -0.20953 0.79106
vn 0.55882 -0.31002 0.76916
vn 0.00000 -0.31002 0.95073
vn 0.90420 -0.31002 0.29379
vn 0.90420 -0.31002 -0.29379
vn 0.55882 -0.31002 -0.76916
vn 0.00000 -0.31002 -0.95073
vn -0.55882 -0.31002 -0.76916
vn -0.90420 -0.31002 -0.29379
vn -0.90420 -0.31002 0.29379
vn -0.55882 -0.31002 0.76916
vn 0.58620 -0.07333 0.80684
vn 0.00000 -0.07333 0.99731
vn 0.94850 -0.07333 0.30819
vn 0.94850 -0.07333 -0.30819
vn 0.58620 -0.07333 -0.80684
vn 0.00000 -0.07333 -0.99731
vn -0.58620 -0.07333 -0.80684
vn -0.94850 -0.07333 -0.30819
vn -0.94850 -0.07333 0.30819
vn -0.58620 -0.07333 0.80684
vn 0.86603 0.00000 0.50000
vn 0.86603 0.00000 -0.50000
vn -0.86603 -0.00000 -0.50000
vn -0.86603 0.00000 0.50000
usemtl body
f 1/1/1 2/2/1 3/3/1
f 1/1/1 3/3/1 4/4/1
f 2/2/2 5/5/2 6/6/2
f 2/2/2 6/6/2 3/3/2
f 5/5/3 7/7/3 8/8/3
f 5/5/3 8/8/3 6/6/3
f 7/7/4 9/9/4 10/10/4
f 7/7/4 10/10/4 8/8/4
f 9/9/5 11/11/5 12/12/5
f 9/9/5 12/12/5 10/10/5
f 11/11/6 13/13/6 14/14/6
f 11/11/6 14/14/6 12/12/6
f 13/13/7 15/15/7 16/16/7
f 13/13/7 16/16/7 14/14/7
f 15/15/8 17/17/8 18/18/8
f 15/15/8 18/18/8 16/16/8
f 17/17/9 19/19/9 20/20/9
f 17/17/9 20/20/9 18/18/9
f 19/19/10 21/21/10 22/22/10
f 19/19/10 22/22/10 20/20/10
f 21/21/11 23/23/11 24/24/11
f 21/21/11 24/24/11 22/22/11
f 23/23/12 25/25/12 26/26/12
f 23/23/12 26/26/12 24/24/12
f 25/25/13 27/27/13 28/28/13
f 25/25/13 28/28/13 26/26/13
f 27/27/13 29/29/13 30/30/13
f 27/27/13 30/30/13 28/28/13
f 29/29/12 31/31/12 32/32/12
f 29/29/12 32/32/12 30/30/12
f 31/31/11 33/33/11 34/34/11
f 31/31/11 34/34/11 32/32/11
f 33/33/10 35/35/10 36/36/10
f 33/33/10 36/36/10 34/34/10
f 35/35/9 37/37/9 38/38/9
f 35/35/9 38/38/9 36/36/9
f 37/37/8 39/39/8 40/40/8
f 37/37/8 40/40/8 38/38/8
f 39/39/7 41/41/7 42/42/7
f 39/39/7 42/42/7 40/40/7
f 41/41/6 43/43/6 44/44/6
f 41/41/6 44/44/6 42/42/6
f 43/43/5 45/45/5 46/46/5
f 43/43/5 46/46/5 44/44/5
f 45/45/4 47/47/4 48/48/4
f 45/45/4 48/48/4 46/46/4
f 47/47/3 49/49/3 50/50/3
f 47/47/3 50/50/3 48/48/3
f 49/49/14 51/51/14 52/52/14
f 49/49/14 52/52/14 50/50/14
f 51/51/15 53/53/15 54/54/15
f 51/51/15 54/54/15 52/52/15
f 53/53/16 55/55/16 56/56/16
f 53/53/16 56/56/16 54/54/16
f 55/55/17 57/57/17 58/58/17
f 55/55/17 58/58/17 56/56/17
f 57/57/18 59/59/18 60/60/18
f 57/57/18 60/60/18 58/58/18
f 59/59/19 61/61/19 62/62/19
f 59/59/19 62/62/19 60/60/19
f 61/61/20 63/63/20 64/64/20
f 61/61/20 64/64/20 62/62/20
f 63/63/21 65/65/21 66/66/21
f 63/63/21 66/66/21 64/64/21
f 65/65/22 67/67/22 68/68/22
f 65/65/22 68/68/22 66/66/22
f 67/67/23 69/69/23 70/70/23
f 67/67/23 70/70/23 68/68/23
f 69/69/24 71/71/24 72/72/24
f 69/69/24 72/72/24 70/70/24
f 71/71/25 73/73/25 74/74/25
f 71/71/25 74/74/25 72/72/25
f 73/73/26 75/75/26 76/76/26
f 73/73/26 76/76/26 74/74/26
f 75/75/27 77/77/27 78/78/27
f 75/75/27 78/78/27 76/76/27
f 77/77/28 79/79/28 80/80/28
f 77/77/28 80/80/28 78/78/28
f 79/79/29 81/81/29 82/82/29
f 79/79/29 82/82/29 80/80/29
f 81/81/30 83/83/30 84/84/30
f 81/81/30 84/84/30 82/82/30
f 83/83/31 85/85/31 86/86/31
f 83/83/31 86/86/31 84/84/31
f 85/85/32 87/87/32 88/88/32
f 85/85/32 88/88/32 86/86/32
f 87/87/33 89/89/33 90/90/33
f 87/87/33 90/90/33 88/88/33
f 89/89/34 91/91/34 92/92/34
f 89/89/34 92/92/34 90/90/34
f 91/91/35 1/93/35 4/94/35
f 91/91/35 4/94/35 92/92/35
f 1/95/36 91/96/36 89/97/36
f 1/95/36 89/97/36 87/98/36
f 1/95/36 87/98/36 85/99/36
f 1/95/36 85/99/36 83/100/36
f 1/95/36 83/100/36 81/101/36
f 1/95/36 81/101/36 79/102/36
f 1/95/36 79/102/36 77/103/36
f 1/95/36 77/103/36 75/104/36
f 1/95/36 75/104/36 73/105/36
f 1/95/36 73/105/36 71/106/36
f 1/95/36 71/106/36 69/107/36
f 1/95/36 69/107/36 67/108/36
f 1/95/36 67/108/36 65/109/36
f 1/95/36 65/109/36 63/110/36
f 1/95/36 63/110/36 61/111/36
f 1/95/36 61/111/36 59/112/36
f 1/95/36 59/112/36 57/113/36
f 1/95/36 57/113/36 55/114/36
f 1/95/36 55/114/36 53/115/36
f 1/95/36 53/115/36 51/116/36
f 1/95/36 51/116/36 49/117/36
f 1/95/36 49/117/36 47/118/36
f 1/95/36 47/118/36 45/119/36
f 1/95/36 45/119/36 43/120/36
f 1/95/36 43/120/36 41/121/36
f 1/95/36 41/121/36 39/122/36
f 1/95/36 39/122/36 37/123/36
f 1/95/36 37/123/36 35/124/36
f 1/95/36 35/124/36 33/125/36
f 1/95/36 33/125/36 31/126/36
f 1/95/36 31/126/36 29/127/36
f 1/95/36 29/127/36 27/128/36
f 1/95/36 27/128/36 25/129/36
f 1/95/36 25/129/36 23/130/36
f 1/95/36 23/130/36 21/131/36
f 1/95/36 21/131/36 19/132/36
f 1/95/36 19/132/36 17/133/36
f 1/95/36 17/133/36 15/134/36
f 1/95/36 15/134/36 13/135/36
f 1/95/36 13/135/36 11/136/36
f 1/95/36 11/136/36 9/137/36
f 1/95/36 9/137/36 7/138/36
f 1/95/36 7/138/36 5/139/36
f 5/139/36 2/140/36 1/95/36
f 93/141/37 94/142/37 95/1/37
f 96/4/37 93/141/37 95/1/37
f 97/143/35 98/144/35 94/142/35
f 93/141/35 97/143/35 94/142/35
f 99/145/38 100/146/38 98/144/38
f 97/143/38 99/145/38 98/144/38
f 101/147/39 102/148/39 100/146/39
f 99/145/39 101/147/39 100/146/39
f 103/149/40 104/150/40 102/148/40
f 101/147/40 103/149/40 102/148/40
f 105/151/41 106/152/41 104/150/41
f 103/149/41 105/151/41 104/150/41
f 107/153/42 108/154/42 106/152/42
f 105/151/42 107/153/42 106/152/42
f 109/155/43 110/156/43 108/154/43
f 107/153/43 109/155/43 108/154/43
f 111/157/44 112/158/44 110/156/44
f 109/155/44 111/157/44 110/156/44
f 113/159/45 114/160/45 112/158/45
f 111/157/45 113/159/45 112/158/45
f 115/161/46 116/162/46 114/160/46
f 113/159/46 115/161/46 114/160/46
f 117/163/47 118/164/47 116/162/47
f 115/161/47 117/163/47 116/162/47
f 119/165/48 120/166/48 118/164/48
f 117/163/48 119/165/48 118/164/48
f 121/167/48 122/168/48 120/166/48
f 119/165/48 121/167/48 120/166/48
f 123/169/47 124/170/47 122/168/47
f 121/167/47 123/169/47 122/168/47
f 125/171/46 126/172/46 124/170/46
f 123/169/46 125/171/46 124/170/46
f 127/173/45 128/174/45 126/172/45
f 125/171/45 127/173/45 126/172/45
f 129/175/44 130/176/44 128/174/44
f 127/173/44 129/175/44 128/174/44
f 131/177/43 132/178/43 130/176/43
f 129/175/43 131/177/43 130/176/43
f 133/179/42 134/180/42 132/178/42
f 131/177/42 133/179/42 132/178/42
f 135/181/41 136/182/41 134/180/41
f 133/179/41 135/181/41 134/180/41
f 137/183/40 138/184/40 136/182/40
f 135/181/40 137/183/40 136/182/40
f 139/185/39 140/186/39 138/184/39
f 137/183/39 139/185/39 138/184/39
f 141/187/38 142/188/38 140/186/38
f 139/185/38 141/187/38 140/186/38
f 143/189/49 144/190/49 142/188/49
f 141/187/49 143/189/49 142/188/49
f 145/191/50 146/192/50 144/190/50
f 143/189/50 145/191/50 144/190/50
f 147/193/51 148/194/51 146/192/51
f 145/191/51 147/193/51 146/192/51
f 149/195/52 150/196/52 148/194/52
f 147/193/52 149/195/52 148/194/52
f 151/197/53 152/198/53 150/196/53
f 149/195/53 151/197/53 150/196/53
f 153/199/54 154/200/54 152/198/54
f 151/197/54 153/199/54 152/198/54
f 155/201/55 156/202/55 154/200/55
f 153/199/55 155/201/55 154/200/55
f 157/203/56 158/204/56 156/202/56
f 155/201/56 157/203/56 156/202/56
f 159/205/57 160/206/57 158/204/57
f 157/203/57 159/205/57 158/204/57
f 161/207/58 162/208/58 160/206/58
f 159/205/58 161/207/58 160/206/58
f 163/209/59 164/210/59 162/208/59
f 161/207/59 163/209/59 162/208/59
f 165/211/60 166/212/60 164/210/60
f 163/209/60 165/211/60 164/210/60
f 167/213/61 168/214/61 166/212/61
f 165/211/61 167/213/61 166/212/61
f 169/215/62 170/216/62 168/214/62
f 167/213/62 169/215/62 168/214/62
f 171/217/63 172/218/63 170/216/63
f 169/215/63 171/217/63 170/216/63
f 173/219/64 174/220/64 172/218/64
f 171/217/64 173/219/64 172/218/64
f 175/221/65 176/222/65 174/220/65
f 173/219/65 175/221/65 174/220/65
f 177/223/66 178/224/66 176/222/66
f 175/221/66 177/223/66 176/222/66
f 179/225/67 180/226/67 178/224/67
f 177/223/67 179/225/67 178/224/67
f 181/227/68 182/228/68 180/226/68
f 179/225/68 181/227/68 180/226/68
f 183/229/69 184/230/69 182/228/69
f 181/227/69 183/229/69 182/228/69
f 96/94/2 95/93/2 184/230/2
f 183/229/2 96/94/2 184/230/2
f 184/231/70 95/232/70 94/233/70
f 184/231/70 94/233/70 98/234/70
f 98/234/70 100/235/70 102/236/70
f 98/234/70 102/236/70 104/237/70
f 98/234/70 104/237/70 106/238/70
f 98/234/70 106/238/70 108/239/70
f 98/234/70 108/239/70 110/240/70
f 98/234/70 110/240/70 112/241/70
f 98/234/70 112/241/70 114/242/70
f 98/234/70 114/242/70 116/243/70
f 98/234/70 116/243/70 118/244/70
f 98/234/70 118/244/70 120/245/70
f 98/234/70 120/245/70 122/246/70
f 98/234/70 122/246/70 124/247/70
f 98/234/70 124/247/70 126/248/70
f 98/234/70 126/248/70 128/249/70
f 98/234/70 128/249/70 130/250/70
f 184/231/70 98/234/70 130/250/70
f 184/231/70 130/250/70 132/251/70
f 184/231/70 132/251/70 134/252/70
f 184/231/70 134/252/70 136/253/70
f 184/231/70 136/253/70 138/254/70
f 184/231/70 138/254/70 140/255/70
f 184/231/70 140/255/70 142/256/70
f 184/231/70 142/256/70 144/257/70
f 184/231/70 144/257/70 146/258/70
f 184/231/70 146/258/70 148/259/70
f 184/231/70 148/259/70 150/260/70
f 184/231/70 150/260/70 152/261/70
f 184/231/70 152/261/70 154/262/70
f 184/231/70 154/262/70 156/263/70
f 184/231/70 156/263/70 158/264/70
f 184/231/70 158/264/70 160/265/70
f 184/231/70 160/265/70 162/266/70
f 184/231/70 162/266/70 164/267/70
f 184/231/70 164/267/70 166/268/70
f 184/231/70 166/268/70 168/269/70
f 184/231/70 168/269/70 170/270/70
f 184/231/70 170/270/70 172/271/70
f 184/231/70 172/271/70 174/272/70
f 184/231/70 174/272/70 176/273/70
f 184/231/70 176/273/70 178/274/70
f 184/231/70 178/274/70 180/275/70
f 180/275/70 182/276/70 184/231/70
f 4/277/70 3/278/70 185/279/70
f 4/277/70 185/279/70 186/280/70
f 3/277/70 6/278/70 187/279/70
f 3/277/70 187/279/70 185/280/70
f 6/277/70 8/278/70 188/279/70
f 6/277/70 188/279/70 187/280/70
f 8/277/70 10/278/70 189/279/70
f 8/277/70 189/279/70 188/280/70
f 10/277/70 12/278/70 190/279/70
f 10/277/70 190/279/70 189/280/70
f 12/277/70 14/278/70 191/279/70
f 12/277/70 191/279/70 190/280/70
f 14/277/70 16/278/70 192/279/70
f 14/277/70 192/279/70 191/280/70
f 16/277/70 18/278/70 193/279/70
f 16/277/70 193/279/70 192/280/70
f 18/277/70 20/278/70 194/279/70
f 18/277/70 194/279/70 193/280/70
f 20/277/70 22/278/70 195/279/70
f 20/277/70 195/279/70 194/280/70
f 22/277/70 24/278/70 196/279/70
f 22/277/70 196/279/70 195/280/70
f 24/277/70 26/278/70 197/279/70
f 24/277/70 197/279/70 196/280/70
f 26/277/70 28/278/70 198/279/70
f 26/277/70 198/279/70 197/280/70
f 28/277/70 30/278/70 199/279/70
f 28/277/70 199/279/70 198/280/70
f 30/277/70 32/278/70 200/279/70
f 30/277/70 200/279/70 199/280/70
f 32/277/70 34/278/70 201/279/70
f 32/277/70 201/279/70 200/280/70
f 34/277/70 36/278/70 202/279/70
f 34/277/70 202/279/70 201/280/70
f 36/277/70 38/278/70 203/279/70
f 36/277/70 203/279/70 202/280/70
f 38/277/70 40/278/70 204/279/70
f 38/277/70 204/279/70 203/280/70
f 40/277/70 42/278/70 205/279/70
f 40/277/70 205/279/70 204/280/70
f 42/277/70 44/278/70 206/279/70
f 42/277/70 206/279/70 205/280/70
f 44/277/70 46/278/70 207/279/70
f 44/277/70 207/279/70 206/280/70
f 46/277/70 48/278/70 208/279/70
f 46/277/70 208/279/70 207/280/70
f 48/277/70 50/278/70 209/279/70
f 48/277/70 209/279/70 208/280/70
f 50/277/70 52/278/70 210/279/70
f 50/277/70 210/279/70 209/280/70
f 52/277/70 54/278/70 211/279/70
f 52/277/70 211/279/70 210/280/70
f 54/277/70 56/278/70 212/279/70
f 54/277/70 212/279/70 211/280/70
f 56/277/70 58/278/70 213/279/70
f 56/277/70 213/279/70 212/280/70
f 58/277/70 60/278/70 214/279/70
f 58/277/70 214/279/70 213/280/70
f 60/277/70 62/278/70 215/279/70
f 60/277/70 215/279/70 214/280/70
f 62/277/70 64/278/70 216/279/70
f 62/277/70 216/279/70 215/280/70
f 64/277/70 66/278/70 217/279/70
f 64/277/70 217/279/70 216/280/70
f 66/277/70 68/278/70 218/279/70
f 66/277/70 218/279/70 217/280/70
f 68/277/70 70/278/70 219/279/70
f 68/277/70 219/279/70 218/280/70
f 70/277/70 72/278/70 220/279/70
f 70/277/70 220/279/70 219/280/70
f 72/277/70 74/278/70 221/279/70
f 72/277/70 221/279/70 220/280/70
f 74/277/70 76/278/70 222/279/70
f 74/277/70 222/279/70 221/280/70
f 76/277/70 78/278/70 223/279/70
f 76/277/70 223/279/70 222/280/70
f 78/277/70 80/278/70 224/279/70
f 78/277/70 224/279/70 223/280/70
f 80/277/70 82/278/70 225/279/70
f 80/277/70 225/279/70 224/280/70
f 82/277/70 84/278/70 226/279/70
f 82/277/70 226/279/70 225/280/70
f 84/277/70 86/278/70 227/279/70
f 84/277/70 227/279/70 226/280/70
f 86/277/70 88/278/70 228/279/70
f 86/277/70 228/279/70 227/280/70
f 88/277/70 90/278/70 229/279/70
f 88/277/70 229/279/70 228/280/70
f 90/277/70 92/278/70 230/279/70
f 90/277/70 230/279/70 229/280/70
f 92/277/70 4/278/70 186/279/70
f 92/277/70 186/279/70 230/280/70
f 231/1/2 232/93/2 233/94/2
f 233/94/2 234/4/2 231/1/2
f 235/1/35 236/93/35 237/94/35
f 237/94/35 238/4/35 235/1/35
f 232/4/36 231/1/36 236/93/36
f 236/93/36 235/94/36 232/4/36
f 234/4/70 233/1/70 238/93/70
f 238/93/70 237/94/70 234/4/70
f 231/93/1 234/94/1 237/4/1
f 237/4/1 236/1/1 231/93/1
f 233/4/37 232/1/37 235/93/37
f 235/93/37 238/94/37 233/4/37
f 239/281/2 240/282/2 241/283/2
f 241/283/2 242/284/2 239/281/2
f 243/281/35 244/282/35 245/283/35
f 245/283/35 246/284/35 243/281/35
f 242/285/70 241/286/70 246/287/70
f 246/287/70 245/288/70 242/285/70
f 239/282/1 242/283/1 245/284/1
f 245/284/1 244/281/1 239/282/1
f 234/1/2 233/93/2 247/94/2
f 247/94/2 248/4/2 234/1/2
f 240/1/35 249/93/35 250/94/35
f 250/94/35 251/4/35 240/1/35
f 248/4/70 247/1/70 251/93/70
f 251/93/70 250/94/70 248/4/70
f 234/93/1 248/94/1 250/4/1
f 250/4/1 249/1/1 234/93/1
f 252/1/2 243/93/2 253/94/2
f 253/94/2 254/4/2 252/1/2
f 238/1/35 237/93/35 255/94/35
f 255/94/35 256/4/35 238/1/35
f 254/4/70 253/1/70 256/93/70
f 256/93/70 255/94/70 254/4/70
f 252/93/1 254/94/1 255/4/1
f 255/4/1 237/1/1 252/93/1
f 257/289/2 241/290/2 258/291/2
f 258/291/2 259/292/2 257/289/2
f 246/289/35 260/290/35 261/291/35
f 261/291/35 262/292/35 246/289/35
f 259/293/70 258/140/70 262/95/70
f 262/95/70 261/96/70 259/293/70
f 257/290/1 259/291/1 261/292/1
f 261/292/1 260/289/1 257/290/1
f 263/1/2 264/93/2 265/94/2
f 265/94/2 266/4/2 263/1/2
f 267/1/35 268/93/35 269/94/35
f 269/94/35 270/4/35 267/1/35
f 266/4/70 265/1/70 270/93/70
f 270/93/70 269/94/70 266/4/70
f 263/93/1 266/94/1 269/4/1
f 269/4/1 268/1/1 263/93/1
f 265/4/37 264/1/37 267/93/37
f 267/93/37 270/94/37 265/4/37
f 271/294/2 272/295/2 273/296/2
f 273/296/2 274/297/2 271/294/2
f 275/298/35 276/299/35 277/300/35
f 277/300/35 278/301/35 275/298/35
f 272/4/71 271/1/71 276/93/71
f 276/93/71 275/94/71 272/4/71
f 274/4/72 273/1/72 278/93/72
f 278/93/72 277/94/72 274/4/72
f 271/302/73 274/303/73 277/304/73
f 277/304/73 276/305/73 271/302/73
f 273/4/74 272/1/74 275/93/74
f 275/93/74 278/94/74 273/4/74
f 279/306/2 280/307/2 281/308/2
f 281/308/2 282/309/2 279/306/2
f 283/310/35 284/311/35 285/312/35
f 285/312/35 286/313/35 283/310/35
f 280/4/71 279/1/71 284/93/71
f 284/93/71 283/94/71 280/4/71
f 282/4/72 281/1/72 286/93/72
f 286/93/72 285/94/72 282/4/72
f 279/93/73 282/94/73 285/4/73
f 285/4/73 284/1/73 279/93/73
f 281/4/74 280/1/74 283/93/74
f 283/93/74 286/94/74 281/4/74
f 287/1/1 288/314/1 289/315/1
f 287/1/1 289/315/1 290/4/1
f 288/314/75 291/316/75 292/317/75
f 288/314/75 292/317/75 289/315/75
f 291/316/76 293/318/76 294/319/76
f 291/316/76 294/319/76 292/317/76
f 293/318/77 295/320/77 296/321/77
f 293/318/77 296/321/77 294/319/77
f 295/320/78 297/322/78 298/323/78
f 295/320/78 298/323/78 296/321/78
f 297/322/79 299/324/79 300/325/79
f 297/322/79 300/325/79 298/323/79
f 299/324/80 301/326/80 302/327/80
f 299/324/80 302/327/80 300/325/80
f 301/326/81 303/328/81 304/329/81
f 301/326/81 304/329/81 302/327/81
f 303/328/82 305/330/82 306/331/82
f 303/328/82 306/331/82 304/329/82
f 305/330/83 307/332/83 308/333/83
f 305/330/83 308/333/83 306/331/83
f 307/332/84 309/334/84 310/335/84
f 307/332/84 310/335/84 308/333/84
f 309/334/85 311/336/85 312/337/85
f 309/334/85 312/337/85 310/335/85
f 311/336/86 313/338/86 314/339/86
f 311/336/86 314/339/86 312/337/86
f 313/338/86 315/340/86 316/341/86
f 313/338/86 316/341/86 314/339/86
f 315/340/85 317/342/85 318/343/85
f 315/340/85 318/343/85 316/341/85
f 317/342/84 319/172/84 320/171/84
f 317/342/84 320/171/84 318/343/84
f 319/172/83 321/174/83 322/173/83
f 319/172/83 322/173/83 320/171/83
f 321/174/82 323/344/82 324/345/82
f 321/174/82 324/345/82 322/173/82
f 323/344/81 325/346/81 326/347/81
f 323/344/81 326/347/81 324/345/81
f 325/346/80 327/348/80 328/349/80
f 325/346/80 328/349/80 326/347/80
f 327/348/79 329/350/79 330/351/79
f 327/348/79 330/351/79 328/349/79
f 329/350/78 331/352/78 332/353/78
f 329/350/78 332/353/78 330/351/78
f 331/352/77 333/354/77 334/355/77
f 331/352/77 334/355/77 332/353/77
f 333/354/76 335/356/76 336/357/76
f 333/354/76 336/357/76 334/355/76
f 335/356/87 337/358/87 338/359/87
f 335/356/87 338/359/87 336/357/87
f 337/358/88 339/360/88 340/361/88
f 337/358/88 340/361/88 338/359/88
f 339/360/89 341/362/89 342/363/89
f 339/360/89 342/363/89 340/361/89
f 341/362/90 343/59/90 344/60/90
f 341/362/90 344/60/90 342/363/90
f 343/59/91 345/364/91 346/365/91
f 343/59/91 346/365/91 344/60/91
f 345/364/92 347/366/92 348/367/92
f 345/364/92 348/367/92 346/365/92
f 347/366/93 349/368/93 350/369/93
f 347/366/93 350/369/93 348/367/93
f 349/368/94 351/370/94 352/371/94
f 349/368/94 352/371/94 350/369/94
f 351/370/95 353/372/95 354/373/95
f 351/370/95 354/373/95 352/371/95
f 353/372/96 355/374/96 356/375/96
f 353/372/96 356/375/96 354/373/96
f 355/374/97 357/376/97 358/377/97
f 355/374/97 358/377/97 356/375/97
f 357/376/98 359/378/98 360/379/98
f 357/376/98 360/379/98 358/377/98
f 359/378/99 361/380/99 362/381/99
f 359/378/99 362/381/99 360/379/99
f 361/380/100 363/382/100 364/383/100
f 361/380/100 364/383/100 362/381/100
f 363/382/101 365/384/101 366/385/101
f 363/382/101 366/385/101 364/383/101
f 365/384/102 367/386/102 368/387/102
f 365/384/102 368/387/102 366/385/102
f 367/386/103 369/388/103 370/389/103
f 367/386/103 370/389/103 368/387/103
f 369/388/104 371/390/104 372/391/104
f 369/388/104 372/391/104 370/389/104
f 371/390/105 373/392/105 374/393/105
f 371/390/105 374/393/105 372/391/105
f 373/392/106 375/394/106 376/395/106
f 373/392/106 376/395/106 374/393/106
f 375/394/107 377/396/107 378/397/107
f 375/394/107 378/397/107 376/395/107
f 377/396/108 287/93/108 290/94/108
f 377/396/108 290/94/108 378/397/108
f 378/1/109 290/93/109 289/94/109
f 378/1/109 289/94/109 292/398/109
f 378/1/109 292/398/109 294/399/109
f 378/1/109 294/399/109 296/400/109
f 296/400/109 298/401/109 300/402/109
f 296/400/109 300/402/109 302/403/109
f 296/400/109 302/403/109 304/404/109
f 296/400/109 304/404/109 306/405/109
f 296/400/109 306/405/109 308/406/109
f 296/400/109 308/406/109 310/407/109
f 296/400/109 310/407/109 312/408/109
f 296/400/109 312/408/109 314/409/109
f 296/400/109 314/409/109 316/410/109
f 296/400/109 316/410/109 318/411/109
f 296/400/109 318/411/109 320/412/109
f 296/400/109 320/412/109 322/413/109
f 378/1/109 296/400/109 322/413/109
f 378/1/109 322/413/109 324/414/109
f 378/1/109 324/414/109 326/415/109
f 378/1/109 326/415/109 328/416/109
f 378/1/109 328/416/109 330/417/109
f 378/1/109 330/417/109 332/418/109
f 378/1/109 332/418/109 334/419/109
f 378/1/109 334/419/109 336/420/109
f 378/1/109 336/420/109 338/421/109
f 378/1/109 338/421/109 340/422/109
f 378/1/109 340/422/109 342/423/109
f 378/1/109 342/423/109 344/424/109
f 378/1/109 344/424/109 346/425/109
f 378/1/109 346/425/109 348/426/109
f 378/1/109 348/426/109 350/427/109
f 378/1/109 350/427/109 352/428/109
f 378/1/109 352/428/109 354/429/109
f 378/1/109 354/429/109 356/430/109
f 378/1/109 356/430/109 358/431/109
f 378/1/109 358/431/109 360/432/109
f 378/1/109 360/432/109 362/433/109
f 378/1/109 362/433/109 364/434/109
f 378/1/109 364/434/109 366/435/109
f 378/1/109 366/435/109 368/436/109
f 378/1/109 368/436/109 370/437/109
f 378/1/109 370/437/109 372/438/109
f 378/1/109 372/438/109 374/439/109
f 374/439/109 376/440/109 378/1/109
f 287/1/110 377/93/110 375/441/110
f 287/1/110 375/441/110 373/442/110
f 287/1/110 373/442/110 371/443/110
f 287/1/110 371/443/110 369/444/110
f 287/1/110 369/444/110 367/445/110
f 287/1/110 367/445/110 365/446/110
f 287/1/110 365/446/110 363/447/110
f 287/1/110 363/447/110 361/448/110
f 287/1/110 361/448/110 359/449/110
f 287/1/110 359/449/110 357/450/110
f 287/1/110 357/450/110 355/451/110
f 287/1/110 355/451/110 353/452/110
f 287/1/110 353/452/110 351/453/110
f 287/1/110 351/453/110 349/454/110
f 287/1/110 349/454/110 347/455/110
f 287/1/110 347/455/110 345/456/110
f 287/1/110 345/456/110 343/457/110
f 287/1/110 343/457/110 341/458/110
f 287/1/110 341/458/110 339/459/110
f 287/1/110 339/459/110 337/460/110
f 287/1/110 337/460/110 335/461/110
f 287/1/110 335/461/110 333/462/110
f 287/1/110 333/462/110 331/463/110
f 287/1/110 331/463/110 329/464/110
f 287/1/110 329/464/110 327/465/110
f 287/1/110 327/465/110 325/466/110
f 287/1/110 325/466/110 323/467/110
f 287/1/110 323/467/110 321/468/110
f 287/1/110 321/468/110 319/469/110
f 287/1/110 319/469/110 317/470/110
f 287/1/110 317/470/110 315/471/110
f 287/1/110 315/471/110 313/472/110
f 287/1/110 313/472/110 311/473/110
f 287/1/110 311/473/110 309/474/110
f 287/1/110 309/474/110 307/475/110
f 287/1/110 307/475/110 305/476/110
f 287/1/110 305/476/110 303/477/110
f 287/1/110 303/477/110 301/478/110
f 287/1/110 301/478/110 299/479/110
f 287/1/110 299/479/110 297/480/110
f 287/1/110 297/480/110 295/481/110
f 287/1/110 295/481/110 293/482/110
f 287/1/110 293/482/110 291/483/110
f 291/483/110 288/4/110 287/1/110
f 379/4/37 380/484/111 381/485/111
f 379/4/37 381/485/111 382/1/37
f 380/484/111 383/486/112 384/487/112
f 380/484/111 384/487/112 381/485/111
f 383/486/112 385/488/1 386/489/1
f 383/486/112 386/489/1 384/487/112
f 385/488/1 387/490/113 388/491/113
f 385/488/1 388/491/113 386/489/1
f 387/490/113 389/492/114 390/493/114
f 387/490/113 390/493/114 388/491/113
f 389/492/114 379/94/37 382/93/37
f 389/492/114 382/93/37 390/493/114
f 383/488/115 380/488/115 379/488/115
f 385/488/115 383/488/115 379/488/115
f 387/488/115 385/488/115 379/488/115
f 389/488/115 387/488/115 379/488/115
f 382/488/116 381/488/116 384/488/116
f 382/488/116 384/488/116 386/488/116
f 382/488/116 386/488/116 388/488/116
f 382/488/116 388/488/116 390/488/116
f 391/494/2 392/495/2 393/496/2
f 393/496/2 394/497/2 391/494/2
f 395/494/35 396/495/35 397/496/35
f 397/496/35 398/497/35 395/494/35
f 394/497/70 393/494/70 398/495/70
f 398/495/70 397/496/70 394/497/70
f 391/495/1 394/496/1 397/497/1
f 397/497/1 396/494/1 391/495/1
f 393/497/37 392/494/37 395/495/37
f 395/495/37 398/496/37 393/497/37
f 399/1/37 400/498/117 401/499/118
f 399/1/37 401/499/118 402/500/119
f 400/498/117 403/501/120 404/502/121
f 400/498/117 404/502/121 401/499/118
f 403/501/120 405/503/122 406/504/123
f 403/501/120 406/504/123 404/502/121
f 405/503/122 407/505/124 408/506/125
f 405/503/122 408/506/125 406/504/123
f 407/505/124 409/489/1 410/507/126
f 407/505/124 410/507/126 408/506/125
f 409/489/1 411/508/127 412/509/128
f 409/489/1 412/509/128 410/507/126
f 411/508/127 413/510/129 414/511/130
f 411/508/127 414/511/130 412/509/128
f 413/510/129 415/512/131 416/513/132
f 413/510/129 416/513/132 414/511/130
f 415/512/131 417/514/133 418/515/134
f 415/512/131 418/515/134 416/513/132
f 417/514/133 399/93/37 402/516/119
f 417/514/133 402/516/119 418/515/134
f 402/500/119 401/499/118 419/517/135
f 402/500/119 419/517/135 420/518/136
f 401/499/118 404/502/121 421/519/137
f 401/499/118 421/519/137 419/517/135
f 404/502/121 406/504/123 422/520/138
f 404/502/121 422/520/138 421/519/137
f 406/504/123 408/506/125 423/521/139
f 406/504/123 423/521/139 422/520/138
f 408/506/125 410/507/126 424/522/140
f 408/506/125 424/522/140 423/521/139
f 410/507/126 412/509/128 425/523/141
f 410/507/126 425/523/141 424/522/140
f 412/509/128 414/511/130 426/524/142
f 412/509/128 426/524/142 425/523/141
f 414/511/130 416/513/132 427/525/143
f 414/511/130 427/525/143 426/524/142
f 416/513/132 418/515/134 428/526/144
f 416/513/132 428/526/144 427/525/143
f 418/515/134 402/516/119 420/527/136
f 418/515/134 420/527/136 428/526/144
f 420/518/136 419/517/135 429/528/145
f 420/518/136 429/528/145 430/529/146
f 419/517/135 421/519/137 431/530/147
f 419/517/135 431/530/147 429/528/145
f 421/519/137 422/520/138 432/531/148
f 421/519/137 432/531/148 431/530/147
f 422/520/138 423/521/139 433/532/149
f 422/520/138 433/532/149 432/531/148
f 423/521/139 424/522/140 434/533/150
f 423/521/139 434/533/150 433/532/149
f 424/522/140 425/523/141 435/534/151
f 424/522/140 435/534/151 434/533/150
f 425/523/141 426/524/142 436/535/152
f 425/523/141 436/535/152 435/534/151
f 426/524/142 427/525/143 437/536/153
f 426/524/142 437/536/153 436/535/152
f 427/525/143 428/526/144 438/537/154
f 427/525/143 438/537/154 437/536/153
f 428/526/144 420/527/136 430/538/146
f 428/526/144 430/538/146 438/537/154
f 430/529/146 429/528/145 439/539/155
f 430/529/146 439/539/155 440/540/156
f 429/528/145 431/530/147 441/541/157
f 429/528/145 441/541/157 439/539/155
f 431/530/147 432/531/148 442/542/158
f 431/530/147 442/542/158 441/541/157
f 432/531/148 433/532/149 443/543/159
f 432/531/148 443/543/159 442/542/158
f 433/532/149 434/533/150 444/544/160
f 433/532/149 444/544/160 443/543/159
f 434/533/150 435/534/151 445/545/161
f 434/533/150 445/545/161 444/544/160
f 435/534/151 436/535/152 446/546/162
f 435/534/151 446/546/162 445/545/161
f 436/535/152 437/536/153 447/547/163
f 436/535/152 447/547/163 446/546/162
f 437/536/153 438/537/154 448/548/164
f 437/536/153 448/548/164 447/547/163
f 438/537/154 430/538/146 440/549/156
f 438/537/154 440/549/156 448/548/164
f 440/540/156 439/539/155 449/550/165
f 440/540/156 449/550/165 450/551/166
f 439/539/155 441/541/157 451/552/167
f 439/539/155 451/552/167 449/550/165
f 441/541/157 442/542/158 452/553/168
f 441/541/157 452/553/168 451/552/167
f 442/542/158 443/543/159 453/554/169
f 442/542/158 453/554/169 452/553/168
f 443/543/159 444/544/160 454/555/170
f 443/543/159 454/555/170 453/554/169
f 444/544/160 445/545/161 455/556/171
f 444/544/160 455/556/171 454/555/170
f 445/545/161 446/546/162 456/557/172
f 445/545/161 456/557/172 455/556/171
f 446/546/162 447/547/163 457/558/173
f 446/546/162 457/558/173 456/557/172
f 447/547/163 448/548/164 458/559/174
f 447/547/163 458/559/174 457/558/173
f 448/548/164 440/549/156 450/560/166
f 448/548/164 450/560/166 458/559/174
f 450/551/166 449/550/165 459/561/175
f 450/551/166 459/561/175 460/562/176
f 449/550/165 451/552/167 461/563/177
f 449/550/165 461/563/177 459/561/175
f 451/552/167 452/553/168 462/564/178
f 451/552/167 462/564/178 461/563/177
f 452/553/168 453/554/169 463/565/179
f 452/553/168 463/565/179 462/564/178
f 453/554/169 454/555/170 464/566/180
f 453/554/169 464/566/180 463/565/179
f 454/555/170 455/556/171 465/567/181
f 454/555/170 465/567/181 464/566/180
f 455/556/171 456/557/172 466/568/182
f 455/556/171 466/568/182 465/567/181
f 456/557/172 457/558/173 467/569/183
f 456/557/172 467/569/183 466/568/182
f 457/558/173 458/559/174 468/570/184
f 457/558/173 468/570/184 467/569/183
f 458/559/174 450/560/166 460/571/176
f 458/559/174 460/571/176 468/570/184
f 460/562/176 459/561/175 469/572/185
f 460/562/176 469/572/185 470/573/186
f 459/561/175 461/563/177 471/574/187
f 459/561/175 471/574/187 469/572/185
f 461/563/177 462/564/178 472/575/188
f 461/563/177 472/575/188 471/574/187
f 462/564/178 463/565/179 473/576/189
f 462/564/178 473/576/189 472/575/188
f 463/565/179 464/566/180 474/577/190
f 463/565/179 474/577/190 473/576/189
f 464/566/180 465/567/181 475/578/191
f 464/566/180 475/578/191 474/577/190
f 465/567/181 466/568/182 476/579/192
f 465/567/181 476/579/192 475/578/191
f 466/568/182 467/569/183 477/580/193
f 466/568/182 477/580/193 476/579/192
f 467/569/183 468/570/184 478/581/194
f 467/569/183 478/581/194 477/580/193
f 468/570/184 460/571/176 470/582/186
f 468/570/184 470/582/186 478/581/194
f 470/573/186 469/572/185 479/583/195
f 470/573/186 479/583/195 480/4/196
f 469/572/185 471/574/187 481/584/197
f 469/572/185 481/584/197 479/583/195
f 471/574/187 472/575/188 482/585/198
f 471/574/187 482/585/198 481/584/197
f 472/575/188 473/576/189 483/586/199
f 472/575/188 483/586/199 482/585/198
f 473/576/189 474/577/190 484/488/200
f 473/576/189 484/488/200 483/586/199
f 474/577/190 475/578/191 485/587/201
f 474/577/190 485/587/201 484/488/200
f 475/578/191 476/579/192 486/588/202
f 475/578/191 486/588/202 485/587/201
f 476/579/192 477/580/193 487/589/203
f 476/579/192 487/589/203 486/588/202
f 477/580/193 478/581/194 488/590/204
f 477/580/193 488/590/204 487/589/203
f 478/581/194 470/582/186 480/94/196
f 478/581/194 480/94/196 488/590/204
f 400/591/36 399/592/36 489/593/36
f 403/594/36 400/591/36 489/593/36
f 405/595/36 403/594/36 489/593/36
f 407/596/36 405/595/36 489/593/36
f 409/597/36 407/596/36 489/593/36
f 411/598/36 409/597/36 489/593/36
f 413/599/36 411/598/36 489/593/36
f 415/600/36 413/599/36 489/593/36
f 417/601/36 415/600/36 489/593/36
f 399/592/36 417/601/36 489/593/36
f 490/593/70 480/592/70 479/591/70
f 490/593/70 479/591/70 481/594/70
f 490/593/70 481/594/70 482/595/70
f 490/593/70 482/595/70 483/596/70
f 490/593/70 483/596/70 484/597/70
f 490/593/70 484/597/70 485/598/70
f 490/593/70 485/598/70 486/599/70
f 490/593/70 486/599/70 487/600/70
f 490/593/70 487/600/70 488/601/70
f 490/593/70 488/601/70 480/592/70
f 491/494/2 492/495/2 493/496/2
f 493/496/2 494/497/2 491/494/2
f 495/494/35 496/495/35 497/496/35
f 497/496/35 498/497/35 495/494/35
f 492/497/36 491/494/36 496/495/36
f 496/495/36 495/496/36 492/497/36
f 491/495/1 494/496/1 497/497/1
f 497/497/1 496/494/1 491/495/1
f 493/497/37 492/494/37 495/495/37
f 495/495/37 498/496/37 493/497/37
f 499/1/37 500/498/117 501/499/118
f 499/1/37 501/499/118 502/500/119
f 500/498/117 503/501/120 504/502/121
f 500/498/117 504/502/121 501/499/118
f 503/501/120 505/503/122 506/504/123
f 503/501/120 506/504/123 504/502/121
f 505/503/122 507/505/124 508/506/125
f 505/503/122 508/506/125 506/504/123
f 507/505/124 509/489/1 510/507/126
f 507/505/124 510/507/126 508/506/125
f 509/489/1 511/508/127 512/509/128
f 509/489/1 512/509/128 510/507/126
f 511/508/127 513/510/129 514/511/130
f 511/508/127 514/511/130 512/509/128
f 513/510/129 515/512/131 516/513/132
f 513/510/129 516/513/132 514/511/130
f 515/512/131 517/514/133 518/515/134
f 515/512/131 518/515/134 516/513/132
f 517/514/133 499/93/37 502/516/119
f 517/514/133 502/516/119 518/515/134
f 502/500/119 501/499/118 519/517/135
f 502/500/119 519/517/135 520/518/136
f 501/499/118 504/502/121 521/519/137
f 501/499/118 521/519/137 519/517/135
f 504/502/121 506/504/123 522/520/138
f 504/502/121 522/520/138 521/519/137
f 506/504/123 508/506/125 523/521/139
f 506/504/123 523/521/139 522/520/138
f 508/506/125 510/507/126 524/522/140
f 508/506/125 524/522/140 523/521/139
f 510/507/126 512/509/128 525/523/141
f 510/507/126 525/523/141 524/522/140
f 512/509/128 514/511/130 526/524/142
f 512/509/128 526/524/142 525/523/141
f 514/511/130 516/513/132 527/525/143
f 514/511/130 527/525/143 526/524/142
f 516/513/132 518/515/134 528/526/144
f 516/513/132 528/526/144 527/525/143
f 518/515/134 502/516/119 520/527/136
f 518/515/134 520/527/136 528/526/144
f 520/518/136 519/517/135 529/528/145
f 520/518/136 529/528/145 530/529/146
f 519/517/135 521/519/137 531/530/147
f 519/517/135 531/530/147 529/528/145
f 521/519/137 522/520/138 532/531/148
f 521/519/137 532/531/148 531/530/147
f 522/520/138 523/521/139 533/532/149
f 522/520/138 533/532/149 532/531/148
f 523/521/139 524/522/140 534/533/150
f 523/521/139 534/533/150 533/532/149
f 524/522/140 525/523/141 535/534/151
f 524/522/140 535/534/151 534/533/150
f 525/523/141 526/524/142 536/535/152
f 525/523/141 536/535/152 535/534/151
f 526/524/142 527/525/143 537/536/153
f 526/524/142 537/536/153 536/535/152
f 527/525/143 528/526/144 538/537/154
f 527/525/143 538/537/154 537/536/153
f 528/526/144 520/527/136 530/538/146
f 528/526/144 530/538/146 538/537/154
f 530/529/146 529/528/145 539/539/155
f 530/529/146 539/539/155 540/540/156
f 529/528/145 531/530/147 541/541/157
f 529/528/145 541/541/157 539/539/155
f 531/530/147 532/531/148 542/542/158
f 531/530/147 542/542/158 541/541/157
f 532/531/148 533/532/149 543/543/159
f 532/531/148 543/543/159 542/542/158
f 533/532/149 534/533/150 544/544/160
f 533/532/149 544/544/160 543/543/159
f 534/533/150 535/534/151 545/545/161
f 534/533/150 545/545/161 544/544/160
f 535/534/151 536/535/152 546/546/162
f 535/534/151 546/546/162 545/545/161
f 536/535/152 537/536/153 547/547/163
f 536/535/152 547/547/163 546/546/162
f 537/536/153 538/537/154 548/548/164
f 537/536/153 548/548/164 547/547/163
f 538/537/154 530/538/146 540/549/156
f 538/537/154 540/549/156 548/548/164
f 540/540/156 539/539/155 549/550/165
f 540/540/156 549/550/165 550/551/166
f 539/539/155 541/541/157 551/552/167
f 539/539/155 551/552/167 549/550/165
f 541/541/157 542/542/158 552/553/168
f 541/541/157 552/553/168 551/552/167
f 542/542/158 543/543/159 553/554/169
f 542/542/158 553/554/169 552/553/168
f 543/543/159 544/544/160 554/555/170
f 543/543/159 554/555/170 553/554/169
f 544/544/160 545/545/161 555/556/171
f 544/544/160 555/556/171 554/555/170
f 545/545/161 546/546/162 556/557/172
f 545/545/161 556/557/172 555/556/171
f 546/546/162 547/547/163 557/558/173
f 546/546/162 557/558/173 556/557/172
f 547/547/163 548/548/164 558/559/174
f 547/547/163 558/559/174 557/558/173
f 548/548/164 540/549/156 550/560/166
f 548/548/164 550/560/166 558/559/174
f 550/551/166 549/550/165 559/561/175
f 550/551/166 559/561/175 560/562/176
f 549/550/165 551/552/167 561/563/177
f 549/550/165 561/563/177 559/561/175
f 551/552/167 552/553/168 562/564/178
f 551/552/167 562/564/178 561/563/177
f 552/553/168 553/554/169 563/565/179
f 552/553/168 563/565/179 562/564/178
f 553/554/169 554/555/170 564/566/180
f 553/554/169 564/566/180 563/565/179
f 554/555/170 555/556/171 565/567/181
f 554/555/170 565/567/181 564/566/180
f 555/556/171 556/557/172 566/568/182
f 555/556/171 566/568/182 565/567/181
f 556/557/172 557/558/173 567/569/183
f 556/557/172 567/569/183 566/568/182
f 557/558/173 558/559/174 568/570/184
f 557/558/173 568/570/184 567/569/183
f 558/559/174 550/560/166 560/571/176
f 558/559/174 560/571/176 568/570/184
f 560/562/176 559/561/175 569/572/185
f 560/562/176 569/572/185 570/573/186
f 559/561/175 561/563/177 571/574/187
f 559/561/175 571/574/187 569/572/185
f 561/563/177 562/564/178 572/575/188
f 561/563/177 572/575/188 571/574/187
f 562/564/178 563/565/179 573/576/189
f 562/564/178 573/576/189 572/575/188
f 563/565/179 564/566/180 574/577/190
f 563/565/179 574/577/190 573/576/189
f 564/566/180 565/567/181 575/578/191
f 564/566/180 575/578/191 574/577/190
f 565/567/181 566/568/182 576/579/192
f 565/567/181 576/579/192 575/578/191
f 566/568/182 567/569/183 577/580/193
f 566/568/182 577/580/193 576/579/192
f 567/569/183 568/570/184 578/581/194
f 567/569/183 578/581/194 577/580/193
f 568/570/184 560/571/176 570/582/186
f 568/570/184 570/582/186 578/581/194
f 570/573/186 569/572/185 579/583/195
f 570/573/186 579/583/195 580/4/196
f 569/572/185 571/574/187 581/584/197
f 569/572/185 581/584/197 579/583/195
f 571/574/187 572/575/188 582/585/198
f 571/574/187 582/585/198 581/584/197
f 572/575/188 573/576/189 583/586/199
f 572/575/188 583/586/199 582/585/198
f 573/576/189 574/577/190 584/488/200
f 573/576/189 584/488/200 583/586/199
f 574/577/190 575/578/191 585/587/201
f 574/577/190 585/587/201 584/488/200
f 575/578/191 576/579/192 586/588/202
f 575/578/191 586/588/202 585/587/201
f 576/579/192 577/580/193 587/589/203
f 576/579/192 587/589/203 586/588/202
f 577/580/193 578/581/194 588/590/204
f 577/580/193 588/590/204 587/589/203
f 578/581/194 570/582/186 580/94/196
f 578/581/194 580/94/196 588/590/204
f 500/591/36 499/592/36 589/593/36
f 503/594/36 500/591/36 589/593/36
f 505/595/36 503/594/36 589/593/36
f 507/596/36 505/595/36 589/593/36
f 509/597/36 507/596/36 589/593/36
f 511/598/36 509/597/36 589/593/36
f 513/599/36 511/598/36 589/593/36
f 515/600/36 513/599/36 589/593/36
f 517/601/36 515/600/36 589/593/36
f 499/592/36 517/601/36 589/593/36
f 590/593/70 580/592/70 579/591/70
f 590/593/70 579/591/70 581/594/70
f 590/593/70 581/594/70 582/595/70
f 590/593/70 582/595/70 583/596/70
f 590/593/70 583/596/70 584/597/70
f 590/593/70 584/597/70 585/598/70
f 590/593/70 585/598/70 586/599/70
f 590/593/70 586/599/70 587/600/70
f 590/593/70 587/600/70 588/601/70
f 590/593/70 588/601/70 580/592/70
f 591/494/2 592/495/2 593/496/2
f 593/496/2 594/497/2 591/494/2
f 595/494/35 596/495/35 597/496/35
f 597/496/35 598/497/35 595/494/35
f 592/497/36 591/494/36 596/495/36
f 596/495/36 595/496/36 592/497/36
f 591/495/1 594/496/1 597/497/1
f 597/497/1 596/494/1 591/495/1
f 593/497/37 592/494/37 595/495/37
f 595/495/37 598/496/37 593/497/37
f 599/1/37 600/498/117 601/499/118
f 599/1/37 601/499/118 602/500/119
f 600/498/117 603/501/120 604/502/121
f 600/498/117 604/502/121 601/499/118
f 603/501/120 605/503/122 606/504/123
f 603/501/120 606/504/123 604/502/121
f 605/503/122 607/505/124 608/506/125
f 605/503/122 608/506/125 606/504/123
f 607/505/124 609/489/1 610/507/126
f 607/505/124 610/507/126 608/506/125
f 609/489/1 611/508/127 612/509/128
f 609/489/1 612/509/128 610/507/126
f 611/508/127 613/510/129 614/511/130
f 611/508/127 614/511/130 612/509/128
f 613/510/129 615/512/131 616/513/132
f 613/510/129 616/513/132 614/511/130
f 615/512/131 617/514/133 618/515/134
f 615/512/131 618/515/134 616/513/132
f 617/514/133 599/93/37 602/516/119
f 617/514/133 602/516/119 618/515/134
f 602/500/119 601/499/118 619/517/135
f 602/500/119 619/517/135 620/518/136
f 601/499/118 604/502/121 621/519/137
f 601/499/118 621/519/137 619/517/135
f 604/502/121 606/504/123 622/520/138
f 604/502/121 622/520/138 621/519/137
f 606/504/123 608/506/125 623/521/139
f 606/504/123 623/521/139 622/520/138
f 608/506/125 610/507/126 624/522/140
f 608/506/125 624/522/140 623/521/139
f 610/507/126 612/509/128 625/523/141
f 610/507/126 625/523/141 624/522/140
f 612/509/128 614/511/130 626/524/142
f 612/509/128 626/524/142 625/523/141
f 614/511/130 616/513/132 627/525/143
f 614/511/130 627/525/143 626/524/142
f 616/513/132 618/515/134 628/526/144
f 616/513/132 628/526/144 627/525/143
f 618/515/134 602/516/119 620/527/136
f 618/515/134 620/527/136 628/526/144
f 620/518/136 619/517/135 629/528/145
f 620/518/136 629/528/145 630/529/146
f 619/517/135 621/519/137 631/530/147
f 619/517/135 631/530/147 629/528/145
f 621/519/137 622/520/138 632/531/148
f 621/519/137 632/531/148 631/530/147
f 622/520/138 623/521/139 633/532/149
f 622/520/138 633/532/149 632/531/148
f 623/521/139 624/522/140 634/533/150
f 623/521/139 634/533/150 633/532/149
f 624/522/140 625/523/141 635/534/151
f 624/522/140 635/534/151 634/533/150
f 625/523/141 626/524/142 636/535/152
f 625/523/141 636/535/152 635/534/151
f 626/524/142 627/525/143 637/536/153
f 626/524/142 637/536/153 636/535/152
f 627/525/143 628/526/144 638/537/154
f 627/525/143 638/537/154 637/536/153
f 628/526/144 620/527/136 630/538/146
f 628/526/144 630/538/146 638/537/154
f 630/529/146 629/528/145 639/539/155
f 630/529/146 639/539/155 640/540/156
f 629/528/145 631/530/147 641/541/157
f 629/528/145 641/541/157 639/539/155
f 631/530/147 632/531/148 642/542/158
f 631/530/147 642/542/158 641/541/157
f 632/531/148 633/532/149 643/543/159
f 632/531/148 643/543/159 642/542/158
f 633/532/149 634/533/150 644/544/160
f 633/532/149 644/544/160 643/543/159
f 634/533/150 635/534/151 645/545/161
f 634/533/150 645/545/161 644/544/160
f 635/534/151 636/535/152 646/546/162
f 635/534/151 646/546/162 645/545/161
f 636/535/152 637/536/153 647/547/163
f 636/535/152 647/547/163 646/546/162
f 637/536/153 638/537/154 648/548/164
f 637/536/153 648/548/164 647/547/163
f 638/537/154 630/538/146 640/549/156
f 638/537/154 640/549/156 648/548/164
f 640/540/156 639/539/155 649/550/165
f 640/540/156 649/550/165 650/551/166
f 639/539/155 641/541/157 651/552/167
f 639/539/155 651/552/167 649/550/165
f 641/541/157 642/542/158 652/553/168
f 641/541/157 652/553/168 651/552/167
f 642/542/158 643/543/159 653/554/169
f 642/542/158 653/554/169 652/553/168
f 643/543/159 644/544/160 654/555/170
f 643/543/159 654/555/170 653/554/169
f 644/544/160 645/545/161 655/556/171
f 644/544/160 655/556/171 654/555/170
f 645/545/161 646/546/162 656/557/172
f 645/545/161 656/557/172 655/556/171
f 646/546/162 647/547/163 657/558/173
f 646/546/162 657/558/173 656/557/172
f 647/547/163 648/548/164 658/559/174
f 647/547/163 658/559/174 657/558/173
f 648/548/164 640/549/156 650/560/166
f 648/548/164 650/560/166 658/559/174
f 650/551/166 649/550/165 659/561/175
f 650/551/166 659/561/175 660/562/176
f 649/550/165 651/552/167 661/563/177
f 649/550/165 661/563/177 659/561/175
f 651/552/167 652/553/168 662/564/178
f 651/552/167 662/564/178 661/563/177
f 652/553/168 653/554/169 663/565/179
f 652/553/168 663/565/179 662/564/178
f 653/554/169 654/555/170 664/566/180
f 653/554/169 664/566/180 663/565/179
f 654/555/170 655/556/171 665/567/181
f 654/555/170 665/567/181 664/566/180
f 655/556/171 656/557/172 666/568/182
f 655/556/171 666/568/182 665/567/181
f 656/557/172 657/558/173 667/569/183
f 656/557/172 667/569/183 666/568/182
f 657/558/173 658/559/174 668/570/184
f 657/558/173 668/570/184 667/569/183
f 658/559/174 650/560/166 660/571/176
f 658/559/174 660/571/176 668/570/184
f 660/562/176 659/561/175 669/572/185
f 660/562/176 669/572/185 670/573/186
f 659/561/175 661/563/177 671/574/187
f 659/561/175 671/574/187 669/572/185
f 661/563/177 662/564/178 672/575/188
f 661/563/177 672/575/188 671/574/187
f 662/564/178 663/565/179 673/576/189
f 662/564/178 673/576/189 672/575/188
f 663/565/179 664/566/180 674/577/190
f 663/565/179 674/577/190 673/576/189
f 664/566/180 665/567/181 675/578/191
f 664/566/180 675/578/191 674/577/190
f 665/567/181 666/568/182 676/579/192
f 665/567/181 676/579/192 675/578/191
f 666/568/182 667/569/183 677/580/193
f 666/568/182 677/580/193 676/579/192
f 667/569/183 668/570/184 678/581/194
f 667/569/183 678/581/194 677/580/193
f 668/570/184 660/571/176 670/582/186
f 668/570/184 670/582/186 678/581/194
f 670/573/186 669/572/185 679/583/195
f 670/573/186 679/583/195 680/4/196
f 669/572/185 671/574/187 681/584/197
f 669/572/185 681/584/197 679/583/195
f 671/574/187 672/575/188 682/585/198
f 671/574/187 682/585/198 681/584/197
f 672/575/188 673/576/189 683/586/199
f 672/575/188 683/586/199 682/585/198
f 673/576/189 674/577/190 684/488/200
f 673/576/189 684/488/200 683/586/199
f 674/577/190 675/578/191 685/587/201
f 674/577/190 685/587/201 684/488/200
f 675/578/191 676/579/192 686/588/202
f 675/578/191 686/588/202 685/587/201
f 676/579/192 677/580/193 687/589/203
f 676/579/192 687/589/203 686/588/202
f 677/580/193 678/581/194 688/590/204
f 677/580/193 688/590/204 687/589/203
f 678/581/194 670/582/186 680/94/196
f 678/581/194 680/94/196 688/590/204
f 600/591/36 599/592/36 689/593/36
f 603/594/36 600/591/36 689/593/36
f 605/595/36 603/594/36 689/593/36
f 607/596/36 605/595/36 689/593/36
f 609/597/36 607/596/36 689/593/36
f 611/598/36 609/597/36 689/593/36
f 613/599/36 611/598/36 689/593/36
f 615/600/36 613/599/36 689/593/36
f 617/601/36 615/600/36 689/593/36
f 599/592/36 617/601/36 689/593/36
f 690/593/70 680/592/70 679/591/70
f 690/593/70 679/591/70 681/594/70
f 690/593/70 681/594/70 682/595/70
f 690/593/70 682/595/70 683/596/70
f 690/593/70 683/596/70 684/597/70
f 690/593/70 684/597/70 685/598/70
f 690/593/70 685/598/70 686/599/70
f 690/593/70 686/599/70 687/600/70
f 690/593/70 687/600/70 688/601/70
f 690/593/70 688/601/70 680/592/70
f 691/494/2 692/495/2 693/496/2
f 693/496/2 694/497/2 691/494/2
f 695/494/35 696/495/35 697/496/35
f 697/496/35 698/497/35 695/494/35
f 692/497/36 691/494/36 696/495/36
f 696/495/36 695/496/36 692/497/36
f 691/495/1 694/496/1 697/497/1
f 697/497/1 696/494/1 691/495/1
f 693/497/37 692/494/37 695/495/37
f 695/495/37 698/496/37 693/497/37
f 699/4/37 700/484/205 701/485/205
f 699/4/37 701/485/205 702/1/37
f 700/484/205 703/486/206 704/487/206
f 700/484/205 704/487/206 701/485/205
f 703/486/206 705/488/1 706/489/1
f 703/486/206 706/489/1 704/487/206
f 705/488/1 707/490/207 708/491/207
f 705/488/1 708/491/207 706/489/1
f 707/490/207 709/492/208 710/493/208
f 707/490/207 710/493/208 708/491/207
f 709/492/208 699/94/37 702/93/37
f 709/492/208 702/93/37 710/493/208
f 703/488/36 700/488/36 699/488/36
f 705/488/36 703/488/36 699/488/36
f 707/488/36 705/488/36 699/488/36
f 709/488/36 707/488/36 699/488/36
f 702/488/70 701/488/70 704/488/70
f 702/488/70 704/488/70 706/488/70
f 702/488/70 706/488/70 708/488/70
f 702/488/70 708/488/70 710/488/70
f 711/4/37 712/484/205 713/485/205
f 711/4/37 713/485/205 714/1/37
f 712/484/205 715/486/206 716/487/206
f 712/484/205 716/487/206 713/485/205
f 715/486/206 717/488/1 718/489/1
f 715/486/206 718/489/1 716/487/206
f 717/488/1 719/490/207 720/491/207
f 717/488/1 720/491/207 718/489/1
f 719/490/207 721/492/208 722/493/208
f 719/490/207 722/493/208 720/491/207
f 721/492/208 711/94/37 714/93/37
f 721/492/208 714/93/37 722/493/208
f 715/488/36 712/488/36 711/488/36
f 717/488/36 715/488/36 711/488/36
f 719/488/36 717/488/36 711/488/36
f 721/488/36 719/488/36 711/488/36
f 714/488/70 713/488/70 716/488/70
f 714/488/70 716/488/70 718/488/70
f 714/488/70 718/488/70 720/488/70
f 714/488/70 720/488/70 722/488/70
f 723/1/2 724/93/2 725/94/2
f 725/94/2 726/4/2 723/1/2
f 727/1/35 728/93/35 729/94/35
f 729/94/35 730/4/35 727/1/35
f 724/4/36 723/1/36 728/93/36
f 728/93/36 727/94/36 724/4/36
f 726/4/70 725/1/70 730/93/70
f 730/93/70 729/94/70 726/4/70
f 723/93/1 726/94/1 729/4/1
f 729/4/1 728/1/1 723/93/1
f 725/4/37 724/1/37 727/93/37
f 727/93/37 730/94/37 725/4/37
f 731/494/2 732/495/2 733/496/2
f 733/496/2 734/497/2 731/494/2
f 735/494/35 736/495/35 737/496/35
f 737/496/35 738/497/35 735/494/35
f 732/497/36 731/494/36 736/495/36
f 736/495/36 735/496/36 732/497/36
f 734/497/70 733/494/70 738/495/70
f 738/495/70 737/496/70 734/497/70
f 731/495/1 734/496/1 737/497/1
f 737/497/1 736/494/1 731/495/1
f 739/494/2 740/495/2 741/496/2
f 741/496/2 742/497/2 739/494/2
f 743/494/35 744/495/35 745/496/35
f 745/496/35 746/497/35 743/494/35
f 740/497/36 739/494/36 744/495/36
f 744/495/36 743/496/36 740/497/36
f 742/497/70 741/494/70 746/495/70
f 746/495/70 745/496/70 742/497/70
f 739/495/1 742/496/1 745/497/1
f 745/497/1 744/494/1 739/495/1
f 747/494/2 748/495/2 749/496/2
f 749/496/2 750/497/2 747/494/2
f 751/494/35 752/495/35 753/496/35
f 753/496/35 754/497/35 751/494/35
f 748/497/36 747/494/36 752/495/36
f 752/495/36 751/496/36 748/497/36
f 750/497/70 749/494/70 754/495/70
f 754/495/70 753/496/70 750/497/70
f 747/495/1 750/496/1 753/497/1
f 753/497/1 752/494/1 747/495/1
