# Procedurally generated by dev-env-utils/scripts/gen_furnishings_showpieces.py -- do not hand edit
mtllib grandfatherclock.mtl
o grandfatherclock
v 0.287500 0.001250 0.684375
v 0.311807 0.001250 0.674307
v 0.320646 0.021875 0.683146
v 0.287500 0.021875 0.696875
v 0.321875 0.001250 0.650000
v 0.334375 0.021875 0.650000
v 0.311807 0.001250 0.625693
v 0.320646 0.021875 0.616854
v 0.287500 0.001250 0.615625
v 0.287500 0.021875 0.603125
v 0.263193 0.001250 0.625693
v 0.254354 0.021875 0.616854
v 0.253125 0.001250 0.650000
v 0.240625 0.021875 0.650000
v 0.263193 0.001250 0.674307
v 0.254354 0.021875 0.683146
v 0.320646 0.043750 0.683146
v 0.287500 0.043750 0.696875
v 0.334375 0.043750 0.650000
v 0.320646 0.043750 0.616854
v 0.287500 0.043750 0.603125
v 0.254354 0.043750 0.616854
v 0.240625 0.043750 0.650000
v 0.254354 0.043750 0.683146
v 0.314016 0.063750 0.676516
v 0.287500 0.063750 0.687500
v 0.325000 0.063750 0.650000
v 0.314016 0.063750 0.623484
v 0.287500 0.063750 0.612500
v 0.260984 0.063750 0.623484
v 0.250000 0.063750 0.650000
v 0.260984 0.063750 0.676516
v 0.287500 0.001250 0.650000
v 0.287500 0.001250 0.971875
v 0.311807 0.001250 0.961807
v 0.320646 0.021875 0.970646
v 0.287500 0.021875 0.984375
v 0.321875 0.001250 0.937500
v 0.334375 0.021875 0.937500
v 0.311807 0.001250 0.913193
v 0.320646 0.021875 0.904354
v 0.287500 0.001250 0.903125
v 0.287500 0.021875 0.890625
v 0.263193 0.001250 0.913193
v 0.254354 0.021875 0.904354
v 0.253125 0.001250 0.937500
v 0.240625 0.021875 0.937500
v 0.263193 0.001250 0.961807
v 0.254354 0.021875 0.970646
v 0.320646 0.043750 0.970646
v 0.287500 0.043750 0.984375
v 0.334375 0.043750 0.937500
v 0.320646 0.043750 0.904354
v 0.287500 0.043750 0.890625
v 0.254354 0.043750 0.904354
v 0.240625 0.043750 0.937500
v 0.254354 0.043750 0.970646
v 0.314016 0.063750 0.964016
v 0.287500 0.063750 0.975000
v 0.325000 0.063750 0.937500
v 0.314016 0.063750 0.910984
v 0.287500 0.063750 0.900000
v 0.260984 0.063750 0.910984
v 0.250000 0.063750 0.937500
v 0.260984 0.063750 0.964016
v 0.287500 0.001250 0.937500
v 0.712500 0.001250 0.684375
v 0.736807 0.001250 0.674307
v 0.745646 0.021875 0.683146
v 0.712500 0.021875 0.696875
v 0.746875 0.001250 0.650000
v 0.759375 0.021875 0.650000
v 0.736807 0.001250 0.625693
v 0.745646 0.021875 0.616854
v 0.712500 0.001250 0.615625
v 0.712500 0.021875 0.603125
v 0.688193 0.001250 0.625693
v 0.679354 0.021875 0.616854
v 0.678125 0.001250 0.650000
v 0.665625 0.021875 0.650000
v 0.688193 0.001250 0.674307
v 0.679354 0.021875 0.683146
v 0.745646 0.043750 0.683146
v 0.712500 0.043750 0.696875
v 0.759375 0.043750 0.650000
v 0.745646 0.043750 0.616854
v 0.712500 0.043750 0.603125
v 0.679354 0.043750 0.616854
v 0.665625 0.043750 0.650000
v 0.679354 0.043750 0.683146
v 0.739016 0.063750 0.676516
v 0.712500 0.063750 0.687500
v 0.750000 0.063750 0.650000
v 0.739016 0.063750 0.623484
v 0.712500 0.063750 0.612500
v 0.685984 0.063750 0.623484
v 0.675000 0.063750 0.650000
v 0.685984 0.063750 0.676516
v 0.712500 0.001250 0.650000
v 0.712500 0.001250 0.971875
v 0.736807 0.001250 0.961807
v 0.745646 0.021875 0.970646
v 0.712500 0.021875 0.984375
v 0.746875 0.001250 0.937500
v 0.759375 0.021875 0.937500
v 0.736807 0.001250 0.913193
v 0.745646 0.021875 0.904354
v 0.712500 0.001250 0.903125
v 0.712500 0.021875 0.890625
v 0.688193 0.001250 0.913193
v 0.679354 0.021875 0.904354
v 0.678125 0.001250 0.937500
v 0.665625 0.021875 0.937500
v 0.688193 0.001250 0.961807
v 0.679354 0.021875 0.970646
v 0.745646 0.043750 0.970646
v 0.712500 0.043750 0.984375
v 0.759375 0.043750 0.937500
v 0.745646 0.043750 0.904354
v 0.712500 0.043750 0.890625
v 0.679354 0.043750 0.904354
v 0.665625 0.043750 0.937500
v 0.679354 0.043750 0.970646
v 0.739016 0.063750 0.964016
v 0.712500 0.063750 0.975000
v 0.750000 0.063750 0.937500
v 0.739016 0.063750 0.910984
v 0.712500 0.063750 0.900000
v 0.685984 0.063750 0.910984
v 0.675000 0.063750 0.937500
v 0.685984 0.063750 0.964016
v 0.712500 0.001250 0.937500
v 0.250000 0.062500 0.612500
v 0.250000 0.062500 0.987500
v 0.250000 0.500000 0.987500
v 0.250000 0.500000 0.612500
v 0.750000 0.062500 0.987500
v 0.750000 0.062500 0.612500
v 0.750000 0.500000 0.612500
v 0.750000 0.500000 0.987500
v 0.287500 0.125000 0.600000
v 0.287500 0.125000 0.612500
v 0.287500 0.437500 0.612500
v 0.287500 0.437500 0.600000
v 0.712500 0.125000 0.612500
v 0.712500 0.125000 0.600000
v 0.712500 0.437500 0.600000
v 0.712500 0.437500 0.612500
v 0.225000 0.500000 0.587500
v 0.225000 0.500000 0.987500
v 0.225000 0.550000 0.987500
v 0.225000 0.550000 0.587500
v 0.775000 0.500000 0.987500
v 0.775000 0.500000 0.587500
v 0.775000 0.550000 0.587500
v 0.775000 0.550000 0.987500
v 0.300000 0.550000 0.650000
v 0.300000 0.550000 0.987500
v 0.300000 1.375000 0.987500
v 0.300000 1.375000 0.650000
v 0.387500 0.550000 0.987500
v 0.387500 0.550000 0.650000
v 0.387500 1.375000 0.650000
v 0.387500 1.375000 0.987500
v 0.612500 0.550000 0.650000
v 0.612500 0.550000 0.987500
v 0.612500 1.375000 0.987500
v 0.612500 1.375000 0.650000
v 0.700000 0.550000 0.987500
v 0.700000 0.550000 0.650000
v 0.700000 1.375000 0.650000
v 0.700000 1.375000 0.987500
v 0.387500 0.687500 0.650000
v 0.387500 0.687500 0.987500
v 0.612500 0.687500 0.987500
v 0.612500 0.687500 0.650000
v 0.387500 1.250000 0.987500
v 0.387500 1.250000 0.650000
v 0.612500 1.250000 0.650000
v 0.612500 1.250000 0.987500
v 0.387500 0.687500 0.912500
v 0.387500 1.250000 0.912500
v 0.612500 1.250000 0.912500
v 0.612500 0.687500 0.912500
v 0.387500 0.687500 0.659375
v 0.387500 1.250000 0.659375
v 0.612500 1.250000 0.659375
v 0.612500 0.687500 0.659375
v 0.490625 0.825000 0.778125
v 0.490625 0.825000 0.790625
v 0.490625 1.237500 0.790625
v 0.490625 1.237500 0.778125
v 0.509375 0.825000 0.790625
v 0.509375 0.825000 0.778125
v 0.509375 1.237500 0.778125
v 0.509375 1.237500 0.790625
v 0.500000 0.825000 0.762500
v 0.539062 0.757342 0.770625
v 0.500000 0.746875 0.770625
v 0.567658 0.785937 0.770625
v 0.578125 0.825000 0.770625
v 0.567658 0.864062 0.770625
v 0.539062 0.892658 0.770625
v 0.500000 0.903125 0.770625
v 0.460938 0.892658 0.770625
v 0.432342 0.864062 0.770625
v 0.421875 0.825000 0.770625
v 0.432342 0.785937 0.770625
v 0.460938 0.757342 0.770625
v 0.545312 0.746516 0.784375
v 0.500000 0.734375 0.784375
v 0.578484 0.779687 0.784375
v 0.590625 0.825000 0.784375
v 0.578484 0.870313 0.784375
v 0.545312 0.903484 0.784375
v 0.500000 0.915625 0.784375
v 0.454688 0.903484 0.784375
v 0.421516 0.870313 0.784375
v 0.409375 0.825000 0.784375
v 0.421516 0.779687 0.784375
v 0.454688 0.746516 0.784375
v 0.539062 0.757342 0.798125
v 0.500000 0.746875 0.798125
v 0.567658 0.785937 0.798125
v 0.578125 0.825000 0.798125
v 0.567658 0.864062 0.798125
v 0.539062 0.892658 0.798125
v 0.500000 0.903125 0.798125
v 0.460938 0.892658 0.798125
v 0.432342 0.864062 0.798125
v 0.421875 0.825000 0.798125
v 0.432342 0.785937 0.798125
v 0.460938 0.757342 0.798125
v 0.500000 0.825000 0.806250
v 0.434375 0.987500 0.881250
v 0.456472 0.987500 0.872097
v 0.456472 1.137500 0.872097
v 0.434375 1.137500 0.881250
v 0.465625 0.987500 0.850000
v 0.465625 1.137500 0.850000
v 0.456472 0.987500 0.827903
v 0.456472 1.137500 0.827903
v 0.434375 0.987500 0.818750
v 0.434375 1.137500 0.818750
v 0.412278 0.987500 0.827903
v 0.412278 1.137500 0.827903
v 0.403125 0.987500 0.850000
v 0.403125 1.137500 0.850000
v 0.412278 0.987500 0.872097
v 0.412278 1.137500 0.872097
v 0.434375 0.987500 0.850000
v 0.434375 1.137500 0.850000
v 0.434375 1.137500 0.855000
v 0.439375 1.137500 0.850000
v 0.439375 1.250000 0.850000
v 0.434375 1.250000 0.855000
v 0.434375 1.137500 0.845000
v 0.434375 1.250000 0.845000
v 0.429375 1.137500 0.850000
v 0.429375 1.250000 0.850000
v 0.565625 1.062500 0.881250
v 0.587722 1.062500 0.872097
v 0.587722 1.212500 0.872097
v 0.565625 1.212500 0.881250
v 0.596875 1.062500 0.850000
v 0.596875 1.212500 0.850000
v 0.587722 1.062500 0.827903
v 0.587722 1.212500 0.827903
v 0.565625 1.062500 0.818750
v 0.565625 1.212500 0.818750
v 0.543528 1.062500 0.827903
v 0.543528 1.212500 0.827903
v 0.534375 1.062500 0.850000
v 0.534375 1.212500 0.850000
v 0.543528 1.062500 0.872097
v 0.543528 1.212500 0.872097
v 0.565625 1.062500 0.850000
v 0.565625 1.212500 0.850000
v 0.565625 1.212500 0.855000
v 0.570625 1.212500 0.850000
v 0.570625 1.250000 0.850000
v 0.565625 1.250000 0.855000
v 0.565625 1.212500 0.845000
v 0.565625 1.250000 0.845000
v 0.560625 1.212500 0.850000
v 0.560625 1.250000 0.850000
v 0.262500 1.375000 0.618750
v 0.262500 1.375000 0.987500
v 0.262500 1.425000 0.987500
v 0.262500 1.425000 0.618750
v 0.737500 1.375000 0.987500
v 0.737500 1.375000 0.618750
v 0.737500 1.425000 0.618750
v 0.737500 1.425000 0.987500
v 0.250000 1.425000 0.637500
v 0.250000 1.425000 0.987500
v 0.250000 1.900000 0.987500
v 0.250000 1.900000 0.637500
v 0.750000 1.425000 0.987500
v 0.750000 1.425000 0.637500
v 0.750000 1.900000 0.637500
v 0.750000 1.900000 0.987500
v 0.278125 1.425000 0.653125
v 0.300222 1.425000 0.643972
v 0.300222 1.456250 0.643972
v 0.278125 1.456250 0.653125
v 0.309375 1.425000 0.621875
v 0.309375 1.456250 0.621875
v 0.300222 1.425000 0.599778
v 0.300222 1.456250 0.599778
v 0.278125 1.425000 0.590625
v 0.278125 1.456250 0.590625
v 0.256028 1.425000 0.599778
v 0.256028 1.456250 0.599778
v 0.246875 1.425000 0.621875
v 0.246875 1.456250 0.621875
v 0.256028 1.425000 0.643972
v 0.256028 1.456250 0.643972
v 0.293593 1.468750 0.637343
v 0.278125 1.468750 0.643750
v 0.300000 1.468750 0.621875
v 0.293593 1.468750 0.606407
v 0.278125 1.468750 0.600000
v 0.262657 1.468750 0.606407
v 0.256250 1.468750 0.621875
v 0.262657 1.468750 0.637343
v 0.293593 1.856250 0.637343
v 0.278125 1.856250 0.643750
v 0.300000 1.856250 0.621875
v 0.293593 1.856250 0.606407
v 0.278125 1.856250 0.600000
v 0.262657 1.856250 0.606407
v 0.256250 1.856250 0.621875
v 0.262657 1.856250 0.637343
v 0.300222 1.868750 0.643972
v 0.278125 1.868750 0.653125
v 0.309375 1.868750 0.621875
v 0.300222 1.868750 0.599778
v 0.278125 1.868750 0.590625
v 0.256028 1.868750 0.599778
v 0.246875 1.868750 0.621875
v 0.256028 1.868750 0.643972
v 0.300222 1.900000 0.643972
v 0.278125 1.900000 0.653125
v 0.309375 1.900000 0.621875
v 0.300222 1.900000 0.599778
v 0.278125 1.900000 0.590625
v 0.256028 1.900000 0.599778
v 0.246875 1.900000 0.621875
v 0.256028 1.900000 0.643972
v 0.721875 1.425000 0.653125
v 0.743972 1.425000 0.643972
v 0.743972 1.456250 0.643972
v 0.721875 1.456250 0.653125
v 0.753125 1.425000 0.621875
v 0.753125 1.456250 0.621875
v 0.743972 1.425000 0.599778
v 0.743972 1.456250 0.599778
v 0.721875 1.425000 0.590625
v 0.721875 1.456250 0.590625
v 0.699778 1.425000 0.599778
v 0.699778 1.456250 0.599778
v 0.690625 1.425000 0.621875
v 0.690625 1.456250 0.621875
v 0.699778 1.425000 0.643972
v 0.699778 1.456250 0.643972
v 0.737343 1.468750 0.637343
v 0.721875 1.468750 0.643750
v 0.743750 1.468750 0.621875
v 0.737343 1.468750 0.606407
v 0.721875 1.468750 0.600000
v 0.706407 1.468750 0.606407
v 0.700000 1.468750 0.621875
v 0.706407 1.468750 0.637343
v 0.737343 1.856250 0.637343
v 0.721875 1.856250 0.643750
v 0.743750 1.856250 0.621875
v 0.737343 1.856250 0.606407
v 0.721875 1.856250 0.600000
v 0.706407 1.856250 0.606407
v 0.700000 1.856250 0.621875
v 0.706407 1.856250 0.637343
v 0.743972 1.868750 0.643972
v 0.721875 1.868750 0.653125
v 0.753125 1.868750 0.621875
v 0.743972 1.868750 0.599778
v 0.721875 1.868750 0.590625
v 0.699778 1.868750 0.599778
v 0.690625 1.868750 0.621875
v 0.699778 1.868750 0.643972
v 0.743972 1.900000 0.643972
v 0.721875 1.900000 0.653125
v 0.753125 1.900000 0.621875
v 0.743972 1.900000 0.599778
v 0.721875 1.900000 0.590625
v 0.699778 1.900000 0.599778
v 0.690625 1.900000 0.621875
v 0.699778 1.900000 0.643972
v 0.687500 1.662500 0.628125
v 0.681111 1.613971 0.628125
v 0.662380 1.568750 0.628125
v 0.632583 1.529918 0.628125
v 0.593750 1.500120 0.628125
v 0.548529 1.481389 0.628125
v 0.500000 1.475000 0.628125
v 0.451471 1.481389 0.628125
v 0.406250 1.500120 0.628125
v 0.367418 1.529918 0.628125
v 0.337620 1.568750 0.628125
v 0.318889 1.613971 0.628125
v 0.312500 1.662500 0.628125
v 0.318889 1.711029 0.628125
v 0.337620 1.756250 0.628125
v 0.367418 1.795082 0.628125
v 0.406250 1.824880 0.628125
v 0.451471 1.843611 0.628125
v 0.500000 1.850000 0.628125
v 0.548529 1.843611 0.628125
v 0.593750 1.824880 0.628125
v 0.632583 1.795082 0.628125
v 0.662380 1.756250 0.628125
v 0.681111 1.711029 0.628125
v 0.696875 1.662500 0.635625
v 0.708783 1.662500 0.628750
v 0.701669 1.716537 0.628750
v 0.690167 1.713455 0.635625
v 0.708783 1.662500 0.615000
v 0.701669 1.716537 0.615000
v 0.696875 1.662500 0.608125
v 0.690167 1.713455 0.608125
v 0.684967 1.662500 0.615000
v 0.678664 1.710373 0.615000
v 0.684967 1.662500 0.628750
v 0.678664 1.710373 0.628750
v 0.680811 1.766891 0.628750
v 0.670499 1.760938 0.635625
v 0.680811 1.766891 0.615000
v 0.670499 1.760938 0.608125
v 0.660186 1.754984 0.615000
v 0.660186 1.754984 0.628750
v 0.647632 1.810132 0.628750
v 0.639212 1.801712 0.635625
v 0.647632 1.810132 0.615000
v 0.639212 1.801712 0.608125
v 0.630791 1.793291 0.615000
v 0.630791 1.793291 0.628750
v 0.604391 1.843311 0.628750
v 0.598437 1.832999 0.635625
v 0.604391 1.843311 0.615000
v 0.598437 1.832999 0.608125
v 0.592484 1.822686 0.615000
v 0.592484 1.822686 0.628750
v 0.554037 1.864169 0.628750
v 0.550955 1.852667 0.635625
v 0.554037 1.864169 0.615000
v 0.550955 1.852667 0.608125
v 0.547873 1.841164 0.615000
v 0.547873 1.841164 0.628750
v 0.500000 1.871283 0.628750
v 0.500000 1.859375 0.635625
v 0.500000 1.871283 0.615000
v 0.500000 1.859375 0.608125
v 0.500000 1.847467 0.615000
v 0.500000 1.847467 0.628750
v 0.445963 1.864169 0.628750
v 0.449045 1.852667 0.635625
v 0.445963 1.864169 0.615000
v 0.449045 1.852667 0.608125
v 0.452127 1.841164 0.615000
v 0.452127 1.841164 0.628750
v 0.395609 1.843311 0.628750
v 0.401562 1.832999 0.635625
v 0.395609 1.843311 0.615000
v 0.401562 1.832999 0.608125
v 0.407516 1.822686 0.615000
v 0.407516 1.822686 0.628750
v 0.352368 1.810132 0.628750
v 0.360788 1.801712 0.635625
v 0.352368 1.810132 0.615000
v 0.360788 1.801712 0.608125
v 0.369209 1.793291 0.615000
v 0.369209 1.793291 0.628750
v 0.319189 1.766891 0.628750
v 0.329501 1.760938 0.635625
v 0.319189 1.766891 0.615000
v 0.329501 1.760938 0.608125
v 0.339814 1.754984 0.615000
v 0.339814 1.754984 0.628750
v 0.298331 1.716537 0.628750
v 0.309833 1.713455 0.635625
v 0.298331 1.716537 0.615000
v 0.309833 1.713455 0.608125
v 0.321336 1.710373 0.615000
v 0.321336 1.710373 0.628750
v 0.291217 1.662500 0.628750
v 0.303125 1.662500 0.635625
v 0.291217 1.662500 0.615000
v 0.303125 1.662500 0.608125
v 0.315033 1.662500 0.615000
v 0.315033 1.662500 0.628750
v 0.298331 1.608463 0.628750
v 0.309833 1.611545 0.635625
v 0.298331 1.608463 0.615000
v 0.309833 1.611545 0.608125
v 0.321336 1.614627 0.615000
v 0.321336 1.614627 0.628750
v 0.319189 1.558109 0.628750
v 0.329501 1.564062 0.635625
v 0.319189 1.558109 0.615000
v 0.329501 1.564062 0.608125
v 0.339814 1.570016 0.615000
v 0.339814 1.570016 0.628750
v 0.352368 1.514868 0.628750
v 0.360788 1.523288 0.635625
v 0.352368 1.514868 0.615000
v 0.360788 1.523288 0.608125
v 0.369209 1.531709 0.615000
v 0.369209 1.531709 0.628750
v 0.395609 1.481689 0.628750
v 0.401562 1.492001 0.635625
v 0.395609 1.481689 0.615000
v 0.401562 1.492001 0.608125
v 0.407516 1.502314 0.615000
v 0.407516 1.502314 0.628750
v 0.445963 1.460831 0.628750
v 0.449045 1.472333 0.635625
v 0.445963 1.460831 0.615000
v 0.449045 1.472333 0.608125
v 0.452127 1.483836 0.615000
v 0.452127 1.483836 0.628750
v 0.500000 1.453717 0.628750
v 0.500000 1.465625 0.635625
v 0.500000 1.453717 0.615000
v 0.500000 1.465625 0.608125
v 0.500000 1.477533 0.615000
v 0.500000 1.477533 0.628750
v 0.554037 1.460831 0.628750
v 0.550955 1.472333 0.635625
v 0.554037 1.460831 0.615000
v 0.550955 1.472333 0.608125
v 0.547873 1.483836 0.615000
v 0.547873 1.483836 0.628750
v 0.604391 1.481689 0.628750
v 0.598437 1.492001 0.635625
v 0.604391 1.481689 0.615000
v 0.598437 1.492001 0.608125
v 0.592484 1.502314 0.615000
v 0.592484 1.502314 0.628750
v 0.647632 1.514868 0.628750
v 0.639212 1.523288 0.635625
v 0.647632 1.514868 0.615000
v 0.639212 1.523288 0.608125
v 0.630791 1.531709 0.615000
v 0.630791 1.531709 0.628750
v 0.680811 1.558109 0.628750
v 0.670499 1.564062 0.635625
v 0.680811 1.558109 0.615000
v 0.670499 1.564062 0.608125
v 0.660186 1.570016 0.615000
v 0.660186 1.570016 0.628750
v 0.701669 1.608463 0.628750
v 0.690167 1.611545 0.635625
v 0.701669 1.608463 0.615000
v 0.690167 1.611545 0.608125
v 0.678664 1.614627 0.615000
v 0.678664 1.614627 0.628750
v 0.225000 1.900000 0.606250
v 0.225000 1.900000 0.987500
v 0.225000 1.950000 0.987500
v 0.225000 1.950000 0.606250
v 0.775000 1.900000 0.987500
v 0.775000 1.900000 0.606250
v 0.775000 1.950000 0.606250
v 0.775000 1.950000 0.987500
v 0.262500 1.950000 0.987500
v 0.267064 1.976825 0.987500
v 0.267064 1.976825 0.625000
v 0.262500 1.950000 0.625000
v 0.280579 2.002619 0.987500
v 0.280579 2.002619 0.625000
v 0.302526 2.026391 0.987500
v 0.302526 2.026391 0.625000
v 0.332062 2.047227 0.987500
v 0.332062 2.047227 0.625000
v 0.368052 2.064327 0.987500
v 0.368052 2.064327 0.625000
v 0.409112 2.077033 0.987500
v 0.409112 2.077033 0.625000
v 0.453666 2.084858 0.987500
v 0.453666 2.084858 0.625000
v 0.500000 2.087500 0.987500
v 0.500000 2.087500 0.625000
v 0.546334 2.084858 0.987500
v 0.546334 2.084858 0.625000
v 0.590888 2.077033 0.987500
v 0.590888 2.077033 0.625000
v 0.631948 2.064327 0.987500
v 0.631948 2.064327 0.625000
v 0.667938 2.047227 0.987500
v 0.667938 2.047227 0.625000
v 0.697474 2.026391 0.987500
v 0.697474 2.026391 0.625000
v 0.719421 2.002619 0.987500
v 0.719421 2.002619 0.625000
v 0.732936 1.976825 0.987500
v 0.732936 1.976825 0.625000
v 0.737500 1.950000 0.987500
v 0.737500 1.950000 0.625000
v 0.500000 2.081250 0.825000
v 0.513258 2.081250 0.819508
v 0.524307 2.100000 0.830557
v 0.500000 2.100000 0.840625
v 0.518750 2.081250 0.806250
v 0.534375 2.100000 0.806250
v 0.513258 2.081250 0.792992
v 0.524307 2.100000 0.781943
v 0.500000 2.081250 0.787500
v 0.500000 2.100000 0.771875
v 0.486742 2.081250 0.792992
v 0.475693 2.100000 0.781943
v 0.481250 2.081250 0.806250
v 0.465625 2.100000 0.806250
v 0.486742 2.081250 0.819508
v 0.475693 2.100000 0.830557
v 0.528726 2.125000 0.834976
v 0.500000 2.125000 0.846875
v 0.540625 2.125000 0.806250
v 0.528726 2.125000 0.777524
v 0.500000 2.125000 0.765625
v 0.471274 2.125000 0.777524
v 0.459375 2.125000 0.806250
v 0.471274 2.125000 0.834976
v 0.522097 2.150000 0.828347
v 0.500000 2.150000 0.837500
v 0.531250 2.150000 0.806250
v 0.522097 2.150000 0.784153
v 0.500000 2.150000 0.775000
v 0.477903 2.150000 0.784153
v 0.468750 2.150000 0.806250
v 0.477903 2.150000 0.828347
v 0.500000 2.168750 0.806250
vt 0.009770 0.744140
vt 0.024900 0.744140
vt 0.024900 0.831320
vt 0.009770 0.831320
vt 0.040040 0.744140
vt 0.040040 0.831320
vt 0.055180 0.744140
vt 0.055180 0.831320
vt 0.070310 0.744140
vt 0.070310 0.831320
vt 0.085450 0.744140
vt 0.085450 0.831320
vt 0.100590 0.744140
vt 0.100590 0.831320
vt 0.115720 0.744140
vt 0.115720 0.831320
vt 0.130860 0.744140
vt 0.130860 0.831320
vt 0.024900 0.910390
vt 0.009770 0.910390
vt 0.040040 0.910390
vt 0.055180 0.910390
vt 0.070310 0.910390
vt 0.085450 0.910390
vt 0.100590 0.910390
vt 0.115720 0.910390
vt 0.130860 0.910390
vt 0.024900 0.990230
vt 0.009770 0.990230
vt 0.040040 0.990230
vt 0.055180 0.990230
vt 0.070310 0.990230
vt 0.085450 0.990230
vt 0.100590 0.990230
vt 0.115720 0.990230
vt 0.130860 0.990230
vt 0.113130 0.780180
vt 0.130860 0.867190
vt 0.070310 0.867190
vt 0.027500 0.780180
vt 0.009770 0.867190
vt 0.027500 0.954200
vt 0.113130 0.954200
vt 0.208980 0.869140
vt 0.208980 0.990230
vt 0.150390 0.990230
vt 0.150390 0.869140
vt 0.693360 0.744140
vt 0.693360 0.990230
vt 0.572270 0.990230
vt 0.572270 0.744140
vt 0.228520 0.931640
vt 0.287110 0.931640
vt 0.287110 0.990230
vt 0.228520 0.990230
vt 0.233400 0.955330
vt 0.228520 0.955330
vt 0.233400 0.931640
vt 0.238280 0.955330
vt 0.238280 0.931640
vt 0.243160 0.955330
vt 0.243160 0.931640
vt 0.248050 0.955330
vt 0.248050 0.931640
vt 0.252930 0.955330
vt 0.252930 0.931640
vt 0.257810 0.955330
vt 0.257810 0.931640
vt 0.262700 0.955330
vt 0.262700 0.931640
vt 0.267580 0.955330
vt 0.267580 0.931640
vt 0.272460 0.955330
vt 0.272460 0.931640
vt 0.277340 0.955330
vt 0.277340 0.931640
vt 0.282230 0.955330
vt 0.282230 0.931640
vt 0.287110 0.955330
vt 0.233400 0.960940
vt 0.228520 0.960940
vt 0.238280 0.960940
vt 0.243160 0.960940
vt 0.248050 0.960940
vt 0.252930 0.960940
vt 0.257810 0.960940
vt 0.262700 0.960940
vt 0.267580 0.960940
vt 0.272460 0.960940
vt 0.277340 0.960940
vt 0.282230 0.960940
vt 0.287110 0.960940
vt 0.233400 0.966540
vt 0.228520 0.966540
vt 0.238280 0.966540
vt 0.243160 0.966540
vt 0.248050 0.966540
vt 0.252930 0.966540
vt 0.257810 0.966540
vt 0.262700 0.966540
vt 0.267580 0.966540
vt 0.272460 0.966540
vt 0.277340 0.966540
vt 0.282230 0.966540
vt 0.287110 0.966540
vt 0.233400 0.990230
vt 0.238280 0.990230
vt 0.243160 0.990230
vt 0.248050 0.990230
vt 0.252930 0.990230
vt 0.257810 0.990230
vt 0.262700 0.990230
vt 0.267580 0.990230
vt 0.272460 0.990230
vt 0.277340 0.990230
vt 0.282230 0.990230
vt 0.235840 0.931640
vt 0.235840 0.990230
vt 0.250490 0.931640
vt 0.250490 0.990230
vt 0.265140 0.931640
vt 0.265140 0.990230
vt 0.279790 0.931640
vt 0.279790 0.990230
vt 0.278530 0.940220
vt 0.237100 0.940220
vt 0.237100 0.981650
vt 0.278530 0.981650
vt 0.235840 0.935440
vt 0.228520 0.935440
vt 0.243160 0.935440
vt 0.250490 0.935440
vt 0.257810 0.935440
vt 0.265140 0.935440
vt 0.272460 0.935440
vt 0.279790 0.935440
vt 0.287110 0.935440
vt 0.235840 0.937350
vt 0.228520 0.937350
vt 0.243160 0.937350
vt 0.250490 0.937350
vt 0.257810 0.937350
vt 0.265140 0.937350
vt 0.272460 0.937350
vt 0.279790 0.937350
vt 0.287110 0.937350
vt 0.235840 0.984530
vt 0.228520 0.984530
vt 0.243160 0.984530
vt 0.250490 0.984530
vt 0.257810 0.984530
vt 0.265140 0.984530
vt 0.272460 0.984530
vt 0.279790 0.984530
vt 0.287110 0.984530
vt 0.235840 0.986430
vt 0.228520 0.986430
vt 0.243160 0.986430
vt 0.250490 0.986430
vt 0.257810 0.986430
vt 0.265140 0.986430
vt 0.272460 0.986430
vt 0.279790 0.986430
vt 0.287110 0.986430
vt 0.306640 0.867190
vt 0.310830 0.835340
vt 0.323130 0.805660
vt 0.342680 0.780180
vt 0.368160 0.760630
vt 0.397840 0.748330
vt 0.429690 0.744140
vt 0.461530 0.748330
vt 0.491210 0.760630
vt 0.516700 0.780180
vt 0.536250 0.805660
vt 0.548540 0.835340
vt 0.552730 0.867190
vt 0.548540 0.899030
vt 0.536250 0.928710
vt 0.516700 0.954200
vt 0.491210 0.973750
vt 0.461530 0.986040
vt 0.429690 0.990230
vt 0.397840 0.986040
vt 0.368160 0.973750
vt 0.342680 0.954200
vt 0.323130 0.928710
vt 0.310830 0.899030
vt 0.238280 0.987790
vt 0.228520 0.987790
vt 0.248050 0.987790
vt 0.257810 0.987790
vt 0.267580 0.987790
vt 0.277340 0.987790
vt 0.287110 0.987790
vt 0.238280 0.985350
vt 0.228520 0.985350
vt 0.248050 0.985350
vt 0.257810 0.985350
vt 0.267580 0.985350
vt 0.277340 0.985350
vt 0.287110 0.985350
vt 0.238280 0.982910
vt 0.228520 0.982910
vt 0.248050 0.982910
vt 0.257810 0.982910
vt 0.267580 0.982910
vt 0.277340 0.982910
vt 0.287110 0.982910
vt 0.238280 0.980470
vt 0.228520 0.980470
vt 0.248050 0.980470
vt 0.257810 0.980470
vt 0.267580 0.980470
vt 0.277340 0.980470
vt 0.287110 0.980470
vt 0.238280 0.978030
vt 0.228520 0.978030
vt 0.248050 0.978030
vt 0.257810 0.978030
vt 0.267580 0.978030
vt 0.277340 0.978030
vt 0.287110 0.978030
vt 0.238280 0.975590
vt 0.228520 0.975590
vt 0.248050 0.975590
vt 0.257810 0.975590
vt 0.267580 0.975590
vt 0.277340 0.975590
vt 0.287110 0.975590
vt 0.238280 0.973150
vt 0.228520 0.973150
vt 0.248050 0.973150
vt 0.257810 0.973150
vt 0.267580 0.973150
vt 0.277340 0.973150
vt 0.287110 0.973150
vt 0.238280 0.970700
vt 0.228520 0.970700
vt 0.248050 0.970700
vt 0.257810 0.970700
vt 0.267580 0.970700
vt 0.277340 0.970700
vt 0.287110 0.970700
vt 0.238280 0.968260
vt 0.228520 0.968260
vt 0.248050 0.968260
vt 0.257810 0.968260
vt 0.267580 0.968260
vt 0.277340 0.968260
vt 0.287110 0.968260
vt 0.238280 0.965820
vt 0.228520 0.965820
vt 0.248050 0.965820
vt 0.257810 0.965820
vt 0.267580 0.965820
vt 0.277340 0.965820
vt 0.287110 0.965820
vt 0.238280 0.963380
vt 0.228520 0.963380
vt 0.248050 0.963380
vt 0.257810 0.963380
vt 0.267580 0.963380
vt 0.277340 0.963380
vt 0.287110 0.963380
vt 0.238280 0.958500
vt 0.228520 0.958500
vt 0.248050 0.958500
vt 0.257810 0.958500
vt 0.267580 0.958500
vt 0.277340 0.958500
vt 0.287110 0.958500
vt 0.238280 0.956050
vt 0.228520 0.956050
vt 0.248050 0.956050
vt 0.257810 0.956050
vt 0.267580 0.956050
vt 0.277340 0.956050
vt 0.287110 0.956050
vt 0.238280 0.953610
vt 0.228520 0.953610
vt 0.248050 0.953610
vt 0.257810 0.953610
vt 0.267580 0.953610
vt 0.277340 0.953610
vt 0.287110 0.953610
vt 0.238280 0.951170
vt 0.228520 0.951170
vt 0.248050 0.951170
vt 0.257810 0.951170
vt 0.267580 0.951170
vt 0.277340 0.951170
vt 0.287110 0.951170
vt 0.238280 0.948730
vt 0.228520 0.948730
vt 0.248050 0.948730
vt 0.257810 0.948730
vt 0.267580 0.948730
vt 0.277340 0.948730
vt 0.287110 0.948730
vt 0.238280 0.946290
vt 0.228520 0.946290
vt 0.248050 0.946290
vt 0.257810 0.946290
vt 0.267580 0.946290
vt 0.277340 0.946290
vt 0.287110 0.946290
vt 0.238280 0.943850
vt 0.228520 0.943850
vt 0.248050 0.943850
vt 0.257810 0.943850
vt 0.267580 0.943850
vt 0.277340 0.943850
vt 0.287110 0.943850
vt 0.238280 0.941410
vt 0.228520 0.941410
vt 0.248050 0.941410
vt 0.257810 0.941410
vt 0.267580 0.941410
vt 0.277340 0.941410
vt 0.287110 0.941410
vt 0.238280 0.938970
vt 0.228520 0.938970
vt 0.248050 0.938970
vt 0.257810 0.938970
vt 0.267580 0.938970
vt 0.277340 0.938970
vt 0.287110 0.938970
vt 0.238280 0.936520
vt 0.228520 0.936520
vt 0.248050 0.936520
vt 0.257810 0.936520
vt 0.267580 0.936520
vt 0.277340 0.936520
vt 0.287110 0.936520
vt 0.238280 0.934080
vt 0.228520 0.934080
vt 0.248050 0.934080
vt 0.257810 0.934080
vt 0.267580 0.934080
vt 0.277340 0.934080
vt 0.287110 0.934080
vt 0.012830 0.744140
vt 0.012830 0.990230
vt 0.016120 0.744140
vt 0.016120 0.990230
vt 0.019770 0.744140
vt 0.019770 0.990230
vt 0.023850 0.744140
vt 0.023850 0.990230
vt 0.028340 0.744140
vt 0.028340 0.990230
vt 0.033190 0.744140
vt 0.033190 0.990230
vt 0.038290 0.744140
vt 0.038290 0.990230
vt 0.043520 0.744140
vt 0.043520 0.990230
vt 0.048760 0.744140
vt 0.048760 0.990230
vt 0.053860 0.744140
vt 0.053860 0.990230
vt 0.058710 0.744140
vt 0.058710 0.990230
vt 0.063200 0.744140
vt 0.063200 0.990230
vt 0.067280 0.744140
vt 0.067280 0.990230
vt 0.070930 0.744140
vt 0.070930 0.990230
vt 0.074210 0.744140
vt 0.074210 0.990230
vt 0.077280 0.744140
vt 0.077280 0.990230
vt 0.129700 0.792150
vt 0.126250 0.838320
vt 0.120650 0.880860
vt 0.113130 0.918160
vt 0.103950 0.948760
vt 0.093480 0.971500
vt 0.082130 0.985510
vt 0.058500 0.985510
vt 0.047140 0.971500
vt 0.036670 0.948760
vt 0.027500 0.918160
vt 0.019970 0.880860
vt 0.014370 0.838320
vt 0.010930 0.792150
vt 0.235840 0.944260
vt 0.228520 0.944260
vt 0.243160 0.944260
vt 0.250490 0.944260
vt 0.257810 0.944260
vt 0.265140 0.944260
vt 0.272460 0.944260
vt 0.279790 0.944260
vt 0.287110 0.944260
vt 0.235840 0.957590
vt 0.228520 0.957590
vt 0.243160 0.957590
vt 0.250490 0.957590
vt 0.257810 0.957590
vt 0.265140 0.957590
vt 0.272460 0.957590
vt 0.279790 0.957590
vt 0.287110 0.957590
vt 0.235840 0.971390
vt 0.228520 0.971390
vt 0.243160 0.971390
vt 0.250490 0.971390
vt 0.257810 0.971390
vt 0.265140 0.971390
vt 0.272460 0.971390
vt 0.279790 0.971390
vt 0.287110 0.971390
vn 0.00000 -0.51830 0.85520
vn 0.60472 -0.51830 0.60472
vn 0.67837 -0.28217 0.67837
vn 0.00000 -0.28217 0.95937
vn 0.85520 -0.51830 0.00000
vn 0.95937 -0.28217 0.00000
vn 0.60472 -0.51830 -0.60472
vn 0.67837 -0.28217 -0.67837
vn 0.00000 -0.51830 -0.85520
vn 0.00000 -0.28217 -0.95937
vn -0.60472 -0.51830 -0.60472
vn -0.67837 -0.28217 -0.67837
vn -0.85520 -0.51830 -0.00000
vn -0.95937 -0.28217 -0.00000
vn -0.60472 -0.51830 0.60472
vn -0.67837 -0.28217 0.67837
vn 0.69003 0.21847 0.69003
vn 0.00000 0.21847 0.97584
vn 0.97584 0.21847 0.00000
vn 0.69003 0.21847 -0.69003
vn 0.00000 0.21847 -0.97584
vn -0.69003 0.21847 -0.69003
vn -0.97584 0.21847 -0.00000
vn -0.69003 0.21847 0.69003
vn 0.64026 0.42443 0.64026
vn 0.00000 0.42443 0.90546
vn 0.90546 0.42443 0.00000
vn 0.64026 0.42443 -0.64026
vn 0.00000 0.42443 -0.90546
vn -0.64026 0.42443 -0.64026
vn -0.90546 0.42443 -0.00000
vn -0.64026 0.42443 0.64026
vn -0.00000 -1.00000 -0.00000
vn -1.00000 -0.00000 -0.00000
vn 1.00000 0.00000 0.00000
vn 0.00000 1.00000 0.00000
vn -0.00000 -0.00000 -1.00000
vn 0.00000 0.00000 1.00000
vn 0.05877 -0.21933 -0.97388
vn 0.11732 -0.20320 -0.97208
vn 0.00000 -0.23464 -0.97208
vn 0.16056 -0.16056 -0.97388
vn 0.20320 -0.11732 -0.97208
vn 0.21933 -0.05877 -0.97388
vn 0.23464 -0.00000 -0.97208
vn 0.21933 0.05877 -0.97388
vn 0.20320 0.11732 -0.97208
vn 0.16056 0.16056 -0.97388
vn 0.11732 0.20320 -0.97208
vn 0.05877 0.21933 -0.97388
vn 0.00000 0.23464 -0.97208
vn -0.05877 0.21933 -0.97388
vn -0.11732 0.20320 -0.97208
vn -0.16056 0.16056 -0.97388
vn -0.20320 0.11732 -0.97208
vn -0.21933 0.05877 -0.97388
vn -0.23464 0.00000 -0.97208
vn -0.21933 -0.05877 -0.97388
vn -0.20320 -0.11732 -0.97208
vn -0.16056 -0.16056 -0.97388
vn -0.11732 -0.20320 -0.97208
vn -0.05877 -0.21933 -0.97388
vn 0.50000 -0.86603 0.00000
vn 0.86603 -0.50000 0.00000
vn 0.86603 0.50000 -0.00000
vn 0.50000 0.86603 -0.00000
vn -0.50000 0.86603 0.00000
vn -0.86603 0.50000 0.00000
vn -0.86603 -0.50000 0.00000
vn -0.50000 -0.86603 0.00000
vn 0.11732 -0.20320 0.97208
vn 0.00000 -0.23464 0.97208
vn 0.20320 -0.11732 0.97208
vn 0.23464 -0.00000 0.97208
vn 0.20320 0.11732 0.97208
vn 0.11732 0.20320 0.97208
vn 0.00000 0.23464 0.97208
vn -0.11732 0.20320 0.97208
vn -0.20320 0.11732 0.97208
vn -0.23464 0.00000 0.97208
vn -0.20320 -0.11732 0.97208
vn -0.11732 -0.20320 0.97208
vn 0.05877 -0.21933 0.97388
vn 0.16056 -0.16056 0.97388
vn 0.21933 -0.05877 0.97388
vn 0.21933 0.05877 0.97388
vn 0.16056 0.16056 0.97388
vn 0.05877 0.21933 0.97388
vn -0.05877 0.21933 0.97388
vn -0.16056 0.16056 0.97388
vn -0.21933 0.05877 0.97388
vn -0.21933 -0.05877 0.97388
vn -0.16056 -0.16056 0.97388
vn -0.05877 -0.21933 0.97388
vn 0.70711 0.00000 0.70711
vn 0.70711 0.00000 -0.70711
vn -0.70711 -0.00000 -0.70711
vn -0.70711 0.00000 0.70711
vn 0.69141 0.20953 0.69141
vn 0.00000 0.20953 0.97780
vn 0.97780 0.20953 0.00000
vn 0.69141 0.20953 -0.69141
vn 0.00000 0.20953 -0.97780
vn -0.69141 0.20953 -0.69141
vn -0.97780 0.20953 -0.00000
vn -0.69141 0.20953 0.69141
vn 0.70691 0.02343 0.70691
vn 0.00000 0.02343 0.99973
vn 0.99973 0.02343 0.00000
vn 0.70691 0.02343 -0.70691
vn 0.00000 0.02343 -0.99973
vn -0.70691 0.02343 -0.70691
vn -0.99973 0.02343 -0.00000
vn -0.70691 0.02343 0.70691
vn 0.70691 -0.02343 0.70691
vn 0.00000 -0.02343 0.99973
vn 0.99973 -0.02343 0.00000
vn 0.70691 -0.02343 -0.70691
vn 0.00000 -0.02343 -0.99973
vn -0.70691 -0.02343 -0.70691
vn -0.99973 -0.02343 -0.00000
vn -0.70691 -0.02343 0.70691
vn 0.69141 -0.20953 0.69141
vn 0.00000 -0.20953 0.97780
vn 0.97780 -0.20953 0.00000
vn 0.69141 -0.20953 -0.69141
vn 0.00000 -0.20953 -0.97780
vn -0.69141 -0.20953 -0.69141
vn -0.97780 -0.20953 -0.00000
vn -0.69141 -0.20953 0.69141
vn 0.86603 -0.00000 0.50000
vn 0.83652 0.22414 0.50000
vn 0.86603 -0.00000 -0.50000
vn 0.83652 0.22414 -0.50000
vn -0.86603 0.00000 -0.50000
vn -0.83652 -0.22414 -0.50000
vn -0.86603 0.00000 0.50000
vn -0.83652 -0.22414 0.50000
vn 0.75000 0.43301 0.50000
vn 0.75000 0.43301 -0.50000
vn -0.75000 -0.43301 -0.50000
vn -0.75000 -0.43301 0.50000
vn 0.61237 0.61237 0.50000
vn 0.61237 0.61237 -0.50000
vn -0.61237 -0.61237 -0.50000
vn -0.61237 -0.61237 0.50000
vn 0.43301 0.75000 0.50000
vn 0.43301 0.75000 -0.50000
vn -0.43301 -0.75000 -0.50000
vn -0.43301 -0.75000 0.50000
vn 0.22414 0.83652 0.50000
vn 0.22414 0.83652 -0.50000
vn -0.22414 -0.83652 -0.50000
vn -0.22414 -0.83652 0.50000
vn 0.00000 0.86603 0.50000
vn 0.00000 0.86603 -0.50000
vn -0.00000 -0.86603 -0.50000
vn 0.00000 -0.86603 0.50000
vn -0.22414 0.83652 0.50000
vn -0.22414 0.83652 -0.50000
vn 0.22414 -0.83652 -0.50000
vn 0.22414 -0.83652 0.50000
vn -0.43301 0.75000 0.50000
vn -0.43301 0.75000 -0.50000
vn 0.43301 -0.75000 -0.50000
vn 0.43301 -0.75000 0.50000
vn -0.61237 0.61237 0.50000
vn -0.61237 0.61237 -0.50000
vn 0.61237 -0.61237 -0.50000
vn 0.61237 -0.61237 0.50000
vn -0.75000 0.43301 0.50000
vn -0.75000 0.43301 -0.50000
vn 0.75000 -0.43301 -0.50000
vn 0.75000 -0.43301 0.50000
vn -0.83652 0.22414 0.50000
vn -0.83652 0.22414 -0.50000
vn 0.83652 -0.22414 -0.50000
vn 0.83652 -0.22414 0.50000
vn -0.98584 0.16771 0.00000
vn -0.88578 0.46411 0.00000
vn -0.73474 0.67835 0.00000
vn -0.57645 0.81713 0.00000
vn -0.42915 0.90323 0.00000
vn -0.29562 0.95530 0.00000
vn -0.17297 0.98493 0.00000
vn -0.05693 0.99838 0.00000
vn 0.05693 0.99838 0.00000
vn 0.17297 0.98493 0.00000
vn 0.29562 0.95530 0.00000
vn 0.42915 0.90323 0.00000
vn 0.57645 0.81713 0.00000
vn 0.73474 0.67835 0.00000
vn 0.88578 0.46411 0.00000
vn 0.98584 0.16771 0.00000
vn 0.00000 -0.64018 0.76822
vn 0.54321 -0.64018 0.54321
vn 0.63246 -0.44721 0.63246
vn 0.00000 -0.44721 0.89443
vn 0.76822 -0.64018 0.00000
vn 0.89443 -0.44721 0.00000
vn 0.54321 -0.64018 -0.54321
vn 0.63246 -0.44721 -0.63246
vn 0.00000 -0.64018 -0.76822
vn 0.00000 -0.44721 -0.89443
vn -0.54321 -0.64018 -0.54321
vn -0.63246 -0.44721 -0.63246
vn -0.76822 -0.64018 -0.00000
vn -0.89443 -0.44721 -0.00000
vn -0.54321 -0.64018 0.54321
vn -0.63246 -0.44721 0.63246
vn 0.70573 0.06238 0.70573
vn 0.00000 0.06238 0.99805
vn 0.99805 0.06238 0.00000
vn 0.70573 0.06238 -0.70573
vn 0.00000 0.06238 -0.99805
vn -0.70573 0.06238 -0.70573
vn -0.99805 0.06238 -0.00000
vn -0.70573 0.06238 0.70573
vn 0.51816 0.68045 0.51816
vn 0.00000 0.68045 0.73279
vn 0.73279 0.68045 0.00000
vn 0.51816 0.68045 -0.51816
vn 0.00000 0.68045 -0.73279
vn -0.51816 0.68045 -0.51816
vn -0.73279 0.68045 -0.00000
vn -0.51816 0.68045 0.51816
vn 0.26991 0.70890 0.65162
vn 0.65162 0.70890 0.26991
vn 0.65162 0.70890 -0.26991
vn 0.26991 0.70890 -0.65162
vn -0.26991 0.70890 -0.65162
vn -0.65162 0.70890 -0.26991
vn -0.65162 0.70890 0.26991
vn -0.26991 0.70890 0.65162
usemtl body
f 1/1/1 2/2/2 3/3/3
f 1/1/1 3/3/3 4/4/4
f 2/2/2 5/5/5 6/6/6
f 2/2/2 6/6/6 3/3/3
f 5/5/5 7/7/7 8/8/8
f 5/5/5 8/8/8 6/6/6
f 7/7/7 9/9/9 10/10/10
f 7/7/7 10/10/10 8/8/8
f 9/9/9 11/11/11 12/12/12
f 9/9/9 12/12/12 10/10/10
f 11/11/11 13/13/13 14/14/14
f 11/11/11 14/14/14 12/12/12
f 13/13/13 15/15/15 16/16/16
f 13/13/13 16/16/16 14/14/14
f 15/15/15 1/17/1 4/18/4
f 15/15/15 4/18/4 16/16/16
f 4/4/4 3/3/3 17/19/17
f 4/4/4 17/19/17 18/20/18
f 3/3/3 6/6/6 19/21/19
f 3/3/3 19/21/19 17/19/17
f 6/6/6 8/8/8 20/22/20
f 6/6/6 20/22/20 19/21/19
f 8/8/8 10/10/10 21/23/21
f 8/8/8 21/23/21 20/22/20
f 10/10/10 12/12/12 22/24/22
f 10/10/10 22/24/22 21/23/21
f 12/12/12 14/14/14 23/25/23
f 12/12/12 23/25/23 22/24/22
f 14/14/14 16/16/16 24/26/24
f 14/14/14 24/26/24 23/25/23
f 16/16/16 4/18/4 18/27/18
f 16/16/16 18/27/18 24/26/24
f 18/20/18 17/19/17 25/28/25
f 18/20/18 25/28/25 26/29/26
f 17/19/17 19/21/19 27/30/27
f 17/19/17 27/30/27 25/28/25
f 19/21/19 20/22/20 28/31/28
f 19/21/19 28/31/28 27/30/27
f 20/22/20 21/23/21 29/32/29
f 20/22/20 29/32/29 28/31/28
f 21/23/21 22/24/22 30/33/30
f 21/23/21 30/33/30 29/32/29
f 22/24/22 23/25/23 31/34/31
f 22/24/22 31/34/31 30/33/30
f 23/25/23 24/26/24 32/35/32
f 23/25/23 32/35/32 31/34/31
f 24/26/24 18/27/18 26/36/26
f 24/26/24 26/36/26 32/35/32
f 2/37/33 1/38/33 33/39/33
f 5/9/33 2/37/33 33/39/33
f 7/40/33 5/9/33 33/39/33
f 9/41/33 7/40/33 33/39/33
f 11/42/33 9/41/33 33/39/33
f 13/32/33 11/42/33 33/39/33
f 15/43/33 13/32/33 33/39/33
f 1/38/33 15/43/33 33/39/33
f 34/1/1 35/2/2 36/3/3
f 34/1/1 36/3/3 37/4/4
f 35/2/2 38/5/5 39/6/6
f 35/2/2 39/6/6 36/3/3
f 38/5/5 40/7/7 41/8/8
f 38/5/5 41/8/8 39/6/6
f 40/7/7 42/9/9 43/10/10
f 40/7/7 43/10/10 41/8/8
f 42/9/9 44/11/11 45/12/12
f 42/9/9 45/12/12 43/10/10
f 44/11/11 46/13/13 47/14/14
f 44/11/11 47/14/14 45/12/12
f 46/13/13 48/15/15 49/16/16
f 46/13/13 49/16/16 47/14/14
f 48/15/15 34/17/1 37/18/4
f 48/15/15 37/18/4 49/16/16
f 37/4/4 36/3/3 50/19/17
f 37/4/4 50/19/17 51/20/18
f 36/3/3 39/6/6 52/21/19
f 36/3/3 52/21/19 50/19/17
f 39/6/6 41/8/8 53/22/20
f 39/6/6 53/22/20 52/21/19
f 41/8/8 43/10/10 54/23/21
f 41/8/8 54/23/21 53/22/20
f 43/10/10 45/12/12 55/24/22
f 43/10/10 55/24/22 54/23/21
f 45/12/12 47/14/14 56/25/23
f 45/12/12 56/25/23 55/24/22
f 47/14/14 49/16/16 57/26/24
f 47/14/14 57/26/24 56/25/23
f 49/16/16 37/18/4 51/27/18
f 49/16/16 51/27/18 57/26/24
f 51/20/18 50/19/17 58/28/25
f 51/20/18 58/28/25 59/29/26
f 50/19/17 52/21/19 60/30/27
f 50/19/17 60/30/27 58/28/25
f 52/21/19 53/22/20 61/31/28
f 52/21/19 61/31/28 60/30/27
f 53/22/20 54/23/21 62/32/29
f 53/22/20 62/32/29 61/31/28
f 54/23/21 55/24/22 63/33/30
f 54/23/21 63/33/30 62/32/29
f 55/24/22 56/25/23 64/34/31
f 55/24/22 64/34/31 63/33/30
f 56/25/23 57/26/24 65/35/32
f 56/25/23 65/35/32 64/34/31
f 57/26/24 51/27/18 59/36/26
f 57/26/24 59/36/26 65/35/32
f 35/37/33 34/38/33 66/39/33
f 38/9/33 35/37/33 66/39/33
f 40/40/33 38/9/33 66/39/33
f 42/41/33 40/40/33 66/39/33
f 44/42/33 42/41/33 66/39/33
f 46/32/33 44/42/33 66/39/33
f 48/43/33 46/32/33 66/39/33
f 34/38/33 48/43/33 66/39/33
f 67/1/1 68/2/2 69/3/3
f 67/1/1 69/3/3 70/4/4
f 68/2/2 71/5/5 72/6/6
f 68/2/2 72/6/6 69/3/3
f 71/5/5 73/7/7 74/8/8
f 71/5/5 74/8/8 72/6/6
f 73/7/7 75/9/9 76/10/10
f 73/7/7 76/10/10 74/8/8
f 75/9/9 77/11/11 78/12/12
f 75/9/9 78/12/12 76/10/10
f 77/11/11 79/13/13 80/14/14
f 77/11/11 80/14/14 78/12/12
f 79/13/13 81/15/15 82/16/16
f 79/13/13 82/16/16 80/14/14
f 81/15/15 67/17/1 70/18/4
f 81/15/15 70/18/4 82/16/16
f 70/4/4 69/3/3 83/19/17
f 70/4/4 83/19/17 84/20/18
f 69/3/3 72/6/6 85/21/19
f 69/3/3 85/21/19 83/19/17
f 72/6/6 74/8/8 86/22/20
f 72/6/6 86/22/20 85/21/19
f 74/8/8 76/10/10 87/23/21
f 74/8/8 87/23/21 86/22/20
f 76/10/10 78/12/12 88/24/22
f 76/10/10 88/24/22 87/23/21
f 78/12/12 80/14/14 89/25/23
f 78/12/12 89/25/23 88/24/22
f 80/14/14 82/16/16 90/26/24
f 80/14/14 90/26/24 89/25/23
f 82/16/16 70/18/4 84/27/18
f 82/16/16 84/27/18 90/26/24
f 84/20/18 83/19/17 91/28/25
f 84/20/18 91/28/25 92/29/26
f 83/19/17 85/21/19 93/30/27
f 83/19/17 93/30/27 91/28/25
f 85/21/19 86/22/20 94/31/28
f 85/21/19 94/31/28 93/30/27
f 86/22/20 87/23/21 95/32/29
f 86/22/20 95/32/29 94/31/28
f 87/23/21 88/24/22 96/33/30
f 87/23/21 96/33/30 95/32/29
f 88/24/22 89/25/23 97/34/31
f 88/24/22 97/34/31 96/33/30
f 89/25/23 90/26/24 98/35/32
f 89/25/23 98/35/32 97/34/31
f 90/26/24 84/27/18 92/36/26
f 90/26/24 92/36/26 98/35/32
f 68/37/33 67/38/33 99/39/33
f 71/9/33 68/37/33 99/39/33
f 73/40/33 71/9/33 99/39/33
f 75/41/33 73/40/33 99/39/33
f 77/42/33 75/41/33 99/39/33
f 79/32/33 77/42/33 99/39/33
f 81/43/33 79/32/33 99/39/33
f 67/38/33 81/43/33 99/39/33
f 100/1/1 101/2/2 102/3/3
f 100/1/1 102/3/3 103/4/4
f 101/2/2 104/5/5 105/6/6
f 101/2/2 105/6/6 102/3/3
f 104/5/5 106/7/7 107/8/8
f 104/5/5 107/8/8 105/6/6
f 106/7/7 108/9/9 109/10/10
f 106/7/7 109/10/10 107/8/8
f 108/9/9 110/11/11 111/12/12
f 108/9/9 111/12/12 109/10/10
f 110/11/11 112/13/13 113/14/14
f 110/11/11 113/14/14 111/12/12
f 112/13/13 114/15/15 115/16/16
f 112/13/13 115/16/16 113/14/14
f 114/15/15 100/17/1 103/18/4
f 114/15/15 103/18/4 115/16/16
f 103/4/4 102/3/3 116/19/17
f 103/4/4 116/19/17 117/20/18
f 102/3/3 105/6/6 118/21/19
f 102/3/3 118/21/19 116/19/17
f 105/6/6 107/8/8 119/22/20
f 105/6/6 119/22/20 118/21/19
f 107/8/8 109/10/10 120/23/21
f 107/8/8 120/23/21 119/22/20
f 109/10/10 111/12/12 121/24/22
f 109/10/10 121/24/22 120/23/21
f 111/12/12 113/14/14 122/25/23
f 111/12/12 122/25/23 121/24/22
f 113/14/14 115/16/16 123/26/24
f 113/14/14 123/26/24 122/25/23
f 115/16/16 103/18/4 117/27/18
f 115/16/16 117/27/18 123/26/24
f 117/20/18 116/19/17 124/28/25
f 117/20/18 124/28/25 125/29/26
f 116/19/17 118/21/19 126/30/27
f 116/19/17 126/30/27 124/28/25
f 118/21/19 119/22/20 127/31/28
f 118/21/19 127/31/28 126/30/27
f 119/22/20 120/23/21 128/32/29
f 119/22/20 128/32/29 127/31/28
f 120/23/21 121/24/22 129/33/30
f 120/23/21 129/33/30 128/32/29
f 121/24/22 122/25/23 130/34/31
f 121/24/22 130/34/31 129/33/30
f 122/25/23 123/26/24 131/35/32
f 122/25/23 131/35/32 130/34/31
f 123/26/24 117/27/18 125/36/26
f 123/26/24 125/36/26 131/35/32
f 101/37/33 100/38/33 132/39/33
f 104/9/33 101/37/33 132/39/33
f 106/40/33 104/9/33 132/39/33
f 108/41/33 106/40/33 132/39/33
f 110/42/33 108/41/33 132/39/33
f 112/32/33 110/42/33 132/39/33
f 114/43/33 112/32/33 132/39/33
f 100/38/33 114/43/33 132/39/33
f 133/1/34 134/17/34 135/36/34
f 135/36/34 136/29/34 133/1/34
f 137/1/35 138/17/35 139/36/35
f 139/36/35 140/29/35 137/1/35
f 134/29/33 133/1/33 138/17/33
f 138/17/33 137/36/33 134/29/33
f 136/29/36 135/1/36 140/17/36
f 140/17/36 139/36/36 136/29/36
f 133/17/37 136/36/37 139/29/37
f 139/29/37 138/1/37 133/17/37
f 135/29/38 134/1/38 137/17/38
f 137/17/38 140/36/38 135/29/38
f 141/1/34 142/17/34 143/36/34
f 143/36/34 144/29/34 141/1/34
f 145/1/35 146/17/35 147/36/35
f 147/36/35 148/29/35 145/1/35
f 142/29/33 141/1/33 146/17/33
f 146/17/33 145/36/33 142/29/33
f 144/29/36 143/1/36 148/17/36
f 148/17/36 147/36/36 144/29/36
f 141/17/37 144/36/37 147/29/37
f 147/29/37 146/1/37 141/17/37
f 149/1/34 150/17/34 151/36/34
f 151/36/34 152/29/34 149/1/34
f 153/1/35 154/17/35 155/36/35
f 155/36/35 156/29/35 153/1/35
f 150/1/33 149/17/33 154/36/33
f 154/36/33 153/29/33 150/1/33
f 152/1/36 151/17/36 156/36/36
f 156/36/36 155/29/36 152/1/36
f 149/1/37 152/17/37 155/36/37
f 155/36/37 154/29/37 149/1/37
f 151/1/38 150/17/38 153/36/38
f 153/36/38 156/29/38 151/1/38
f 157/1/34 158/17/34 159/36/34
f 159/36/34 160/29/34 157/1/34
f 161/1/35 162/17/35 163/36/35
f 163/36/35 164/29/35 161/1/35
f 158/29/33 157/1/33 162/17/33
f 162/17/33 161/36/33 158/29/33
f 160/29/36 159/1/36 164/17/36
f 164/17/36 163/36/36 160/29/36
f 157/17/37 160/36/37 163/29/37
f 163/29/37 162/1/37 157/17/37
f 159/29/38 158/1/38 161/17/38
f 161/17/38 164/36/38 159/29/38
f 165/1/34 166/17/34 167/36/34
f 167/36/34 168/29/34 165/1/34
f 169/1/35 170/17/35 171/36/35
f 171/36/35 172/29/35 169/1/35
f 166/29/33 165/1/33 170/17/33
f 170/17/33 169/36/33 166/29/33
f 168/29/36 167/1/36 172/17/36
f 172/17/36 171/36/36 168/29/36
f 165/17/37 168/36/37 171/29/37
f 171/29/37 170/1/37 165/17/37
f 167/29/38 166/1/38 169/17/38
f 169/17/38 172/36/38 167/29/38
f 161/1/33 162/17/33 165/36/33
f 165/36/33 166/29/33 161/1/33
f 173/1/36 174/17/36 175/36/36
f 175/36/36 176/29/36 173/1/36
f 162/1/37 173/17/37 176/36/37
f 176/36/37 165/29/37 162/1/37
f 174/1/38 161/17/38 166/36/38
f 166/36/38 175/29/38 174/1/38
f 177/1/33 178/17/33 179/36/33
f 179/36/33 180/29/33 177/1/33
f 163/1/36 164/17/36 167/36/36
f 167/36/36 168/29/36 163/1/36
f 178/1/37 163/17/37 168/36/37
f 168/36/37 179/29/37 178/1/37
f 164/1/38 177/17/38 180/36/38
f 180/36/38 167/29/38 164/1/38
f 181/44/37 182/45/37 183/46/37
f 183/46/37 184/47/37 181/44/37
f 177/29/38 174/1/38 175/17/38
f 175/17/38 180/36/38 177/29/38
f 185/48/37 186/49/37 187/50/37
f 187/50/37 188/51/37 185/48/37
f 189/52/34 190/53/34 191/54/34
f 191/54/34 192/55/34 189/52/34
f 193/52/35 194/53/35 195/54/35
f 195/54/35 196/55/35 193/52/35
f 190/55/33 189/52/33 194/53/33
f 194/53/33 193/54/33 190/55/33
f 192/55/36 191/52/36 196/53/36
f 196/53/36 195/54/36 192/55/36
f 189/53/37 192/54/37 195/55/37
f 195/55/37 194/52/37 189/53/37
f 191/55/38 190/52/38 193/53/38
f 193/53/38 196/54/38 191/55/38
f 197/52/39 198/56/40 199/57/41
f 197/58/42 200/59/43 198/56/40
f 197/60/44 201/61/45 200/59/43
f 197/62/46 202/63/47 201/61/45
f 197/64/48 203/65/49 202/63/47
f 197/66/50 204/67/51 203/65/49
f 197/68/52 205/69/53 204/67/51
f 197/70/54 206/71/55 205/69/53
f 197/72/56 207/73/57 206/71/55
f 197/74/58 208/75/59 207/73/57
f 197/76/60 209/77/61 208/75/59
f 197/78/62 199/79/41 209/77/61
f 199/57/41 198/56/40 210/80/63
f 199/57/41 210/80/63 211/81/33
f 198/56/40 200/59/43 212/82/64
f 198/56/40 212/82/64 210/80/63
f 200/59/43 201/61/45 213/83/35
f 200/59/43 213/83/35 212/82/64
f 201/61/45 202/63/47 214/84/65
f 201/61/45 214/84/65 213/83/35
f 202/63/47 203/65/49 215/85/66
f 202/63/47 215/85/66 214/84/65
f 203/65/49 204/67/51 216/86/36
f 203/65/49 216/86/36 215/85/66
f 204/67/51 205/69/53 217/87/67
f 204/67/51 217/87/67 216/86/36
f 205/69/53 206/71/55 218/88/68
f 205/69/53 218/88/68 217/87/67
f 206/71/55 207/73/57 219/89/34
f 206/71/55 219/89/34 218/88/68
f 207/73/57 208/75/59 220/90/69
f 207/73/57 220/90/69 219/89/34
f 208/75/59 209/77/61 221/91/70
f 208/75/59 221/91/70 220/90/69
f 209/77/61 199/79/41 211/92/33
f 209/77/61 211/92/33 221/91/70
f 211/81/33 210/80/63 222/93/71
f 211/81/33 222/93/71 223/94/72
f 210/80/63 212/82/64 224/95/73
f 210/80/63 224/95/73 222/93/71
f 212/82/64 213/83/35 225/96/74
f 212/82/64 225/96/74 224/95/73
f 213/83/35 214/84/65 226/97/75
f 213/83/35 226/97/75 225/96/74
f 214/84/65 215/85/66 227/98/76
f 214/84/65 227/98/76 226/97/75
f 215/85/66 216/86/36 228/99/77
f 215/85/66 228/99/77 227/98/76
f 216/86/36 217/87/67 229/100/78
f 216/86/36 229/100/78 228/99/77
f 217/87/67 218/88/68 230/101/79
f 217/87/67 230/101/79 229/100/78
f 218/88/68 219/89/34 231/102/80
f 218/88/68 231/102/80 230/101/79
f 219/89/34 220/90/69 232/103/81
f 219/89/34 232/103/81 231/102/80
f 220/90/69 221/91/70 233/104/82
f 220/90/69 233/104/82 232/103/81
f 221/91/70 211/92/33 223/105/72
f 221/91/70 223/105/72 233/104/82
f 223/94/72 222/93/71 234/55/83
f 222/93/71 224/95/73 234/106/84
f 224/95/73 225/96/74 234/107/85
f 225/96/74 226/97/75 234/108/86
f 226/97/75 227/98/76 234/109/87
f 227/98/76 228/99/77 234/110/88
f 228/99/77 229/100/78 234/111/89
f 229/100/78 230/101/79 234/112/90
f 230/101/79 231/102/80 234/113/91
f 231/102/80 232/103/81 234/114/92
f 232/103/81 233/104/82 234/115/93
f 233/104/82 223/105/72 234/116/94
f 235/52/38 236/117/95 237/118/95
f 235/52/38 237/118/95 238/55/38
f 236/117/95 239/62/35 240/108/35
f 236/117/95 240/108/35 237/118/95
f 239/62/35 241/119/96 242/120/96
f 239/62/35 242/120/96 240/108/35
f 241/119/96 243/68/37 244/111/37
f 241/119/96 244/111/37 242/120/96
f 243/68/37 245/121/97 246/122/97
f 243/68/37 246/122/97 244/111/37
f 245/121/97 247/74/34 248/114/34
f 245/121/97 248/114/34 246/122/97
f 247/74/34 249/123/98 250/124/98
f 247/74/34 250/124/98 248/114/34
f 249/123/98 235/53/38 238/54/38
f 249/123/98 238/54/38 250/124/98
f 236/125/33 235/92/33 251/86/33
f 239/68/33 236/125/33 251/86/33
f 241/126/33 239/68/33 251/86/33
f 243/81/33 241/126/33 251/86/33
f 245/127/33 243/81/33 251/86/33
f 247/111/33 245/127/33 251/86/33
f 249/128/33 247/111/33 251/86/33
f 235/92/33 249/128/33 251/86/33
f 252/86/36 238/92/36 237/125/36
f 252/86/36 237/125/36 240/68/36
f 252/86/36 240/68/36 242/126/36
f 252/86/36 242/126/36 244/81/36
f 252/86/36 244/81/36 246/127/36
f 252/86/36 246/127/36 248/111/36
f 252/86/36 248/111/36 250/128/36
f 252/86/36 250/128/36 238/92/36
f 253/55/38 254/108/35 255/62/35
f 253/55/38 255/62/35 256/52/38
f 254/108/35 257/111/37 258/68/37
f 254/108/35 258/68/37 255/62/35
f 257/111/37 259/114/34 260/74/34
f 257/111/37 260/74/34 258/68/37
f 259/114/34 253/54/38 256/53/38
f 259/114/34 256/53/38 260/74/34
f 257/111/33 254/111/33 253/111/33
f 259/111/33 257/111/33 253/111/33
f 256/111/36 255/111/36 258/111/36
f 256/111/36 258/111/36 260/111/36
f 261/52/38 262/117/95 263/118/95
f 261/52/38 263/118/95 264/55/38
f 262/117/95 265/62/35 266/108/35
f 262/117/95 266/108/35 263/118/95
f 265/62/35 267/119/96 268/120/96
f 265/62/35 268/120/96 266/108/35
f 267/119/96 269/68/37 270/111/37
f 267/119/96 270/111/37 268/120/96
f 269/68/37 271/121/97 272/122/97
f 269/68/37 272/122/97 270/111/37
f 271/121/97 273/74/34 274/114/34
f 271/121/97 274/114/34 272/122/97
f 273/74/34 275/123/98 276/124/98
f 273/74/34 276/124/98 274/114/34
f 275/123/98 261/53/38 264/54/38
f 275/123/98 264/54/38 276/124/98
f 262/125/33 261/92/33 277/86/33
f 265/68/33 262/125/33 277/86/33
f 267/126/33 265/68/33 277/86/33
f 269/81/33 267/126/33 277/86/33
f 271/127/33 269/81/33 277/86/33
f 273/111/33 271/127/33 277/86/33
f 275/128/33 273/111/33 277/86/33
f 261/92/33 275/128/33 277/86/33
f 278/86/36 264/92/36 263/125/36
f 278/86/36 263/125/36 266/68/36
f 278/86/36 266/68/36 268/126/36
f 278/86/36 268/126/36 270/81/36
f 278/86/36 270/81/36 272/127/36
f 278/86/36 272/127/36 274/111/36
f 278/86/36 274/111/36 276/128/36
f 278/86/36 276/128/36 264/92/36
f 279/55/38 280/108/35 281/62/35
f 279/55/38 281/62/35 282/52/38
f 280/108/35 283/111/37 284/68/37
f 280/108/35 284/68/37 281/62/35
f 283/111/37 285/114/34 286/74/34
f 283/111/37 286/74/34 284/68/37
f 285/114/34 279/54/38 282/53/38
f 285/114/34 282/53/38 286/74/34
f 283/111/33 280/111/33 279/111/33
f 285/111/33 283/111/33 279/111/33
f 282/111/36 281/111/36 284/111/36
f 282/111/36 284/111/36 286/111/36
f 287/1/34 288/17/34 289/36/34
f 289/36/34 290/29/34 287/1/34
f 291/1/35 292/17/35 293/36/35
f 293/36/35 294/29/35 291/1/35
f 288/1/33 287/17/33 292/36/33
f 292/36/33 291/29/33 288/1/33
f 290/1/36 289/17/36 294/36/36
f 294/36/36 293/29/36 290/1/36
f 287/1/37 290/17/37 293/36/37
f 293/36/37 292/29/37 287/1/37
f 289/1/38 288/17/38 291/36/38
f 291/36/38 294/29/38 289/1/38
f 295/1/34 296/17/34 297/36/34
f 297/36/34 298/29/34 295/1/34
f 299/1/35 300/17/35 301/36/35
f 301/36/35 302/29/35 299/1/35
f 296/29/33 295/1/33 300/17/33
f 300/17/33 299/36/33 296/29/33
f 298/29/36 297/1/36 302/17/36
f 302/17/36 301/36/36 298/29/36
f 295/17/37 298/36/37 301/29/37
f 301/29/37 300/1/37 295/17/37
f 297/29/38 296/1/38 299/17/38
f 299/17/38 302/36/38 297/29/38
f 303/52/38 304/117/95 305/129/99
f 303/52/38 305/129/99 306/130/100
f 304/117/95 307/62/35 308/131/101
f 304/117/95 308/131/101 305/129/99
f 307/62/35 309/119/96 310/132/102
f 307/62/35 310/132/102 308/131/101
f 309/119/96 311/68/37 312/133/103
f 309/119/96 312/133/103 310/132/102
f 311/68/37 313/121/97 314/134/104
f 311/68/37 314/134/104 312/133/103
f 313/121/97 315/74/34 316/135/105
f 313/121/97 316/135/105 314/134/104
f 315/74/34 317/123/98 318/136/106
f 315/74/34 318/136/106 316/135/105
f 317/123/98 303/53/38 306/137/100
f 317/123/98 306/137/100 318/136/106
f 306/130/100 305/129/99 319/138/107
f 306/130/100 319/138/107 320/139/108
f 305/129/99 308/131/101 321/140/109
f 305/129/99 321/140/109 319/138/107
f 308/131/101 310/132/102 322/141/110
f 308/131/101 322/141/110 321/140/109
f 310/132/102 312/133/103 323/142/111
f 310/132/102 323/142/111 322/141/110
f 312/133/103 314/134/104 324/143/112
f 312/133/103 324/143/112 323/142/111
f 314/134/104 316/135/105 325/144/113
f 314/134/104 325/144/113 324/143/112
f 316/135/105 318/136/106 326/145/114
f 316/135/105 326/145/114 325/144/113
f 318/136/106 306/137/100 320/146/108
f 318/136/106 320/146/108 326/145/114
f 320/139/108 319/138/107 327/147/115
f 320/139/108 327/147/115 328/148/116
f 319/138/107 321/140/109 329/149/117
f 319/138/107 329/149/117 327/147/115
f 321/140/109 322/141/110 330/150/118
f 321/140/109 330/150/118 329/149/117
f 322/141/110 323/142/111 331/151/119
f 322/141/110 331/151/119 330/150/118
f 323/142/111 324/143/112 332/152/120
f 323/142/111 332/152/120 331/151/119
f 324/143/112 325/144/113 333/153/121
f 324/143/112 333/153/121 332/152/120
f 325/144/113 326/145/114 334/154/122
f 325/144/113 334/154/122 333/153/121
f 326/145/114 320/146/108 328/155/116
f 326/145/114 328/155/116 334/154/122
f 328/148/116 327/147/115 335/156/123
f 328/148/116 335/156/123 336/157/124
f 327/147/115 329/149/117 337/158/125
f 327/147/115 337/158/125 335/156/123
f 329/149/117 330/150/118 338/159/126
f 329/149/117 338/159/126 337/158/125
f 330/150/118 331/151/119 339/160/127
f 330/150/118 339/160/127 338/159/126
f 331/151/119 332/152/120 340/161/128
f 331/151/119 340/161/128 339/160/127
f 332/152/120 333/153/121 341/162/129
f 332/152/120 341/162/129 340/161/128
f 333/153/121 334/154/122 342/163/130
f 333/153/121 342/163/130 341/162/129
f 334/154/122 328/155/116 336/164/124
f 334/154/122 336/164/124 342/163/130
f 336/157/124 335/156/123 343/118/95
f 336/157/124 343/118/95 344/55/38
f 335/156/123 337/158/125 345/108/35
f 335/156/123 345/108/35 343/118/95
f 337/158/125 338/159/126 346/120/96
f 337/158/125 346/120/96 345/108/35
f 338/159/126 339/160/127 347/111/37
f 338/159/126 347/111/37 346/120/96
f 339/160/127 340/161/128 348/122/97
f 339/160/127 348/122/97 347/111/37
f 340/161/128 341/162/129 349/114/34
f 340/161/128 349/114/34 348/122/97
f 341/162/129 342/163/130 350/124/98
f 341/162/129 350/124/98 349/114/34
f 342/163/130 336/164/124 344/54/38
f 342/163/130 344/54/38 350/124/98
f 351/52/38 352/117/95 353/129/99
f 351/52/38 353/129/99 354/130/100
f 352/117/95 355/62/35 356/131/101
f 352/117/95 356/131/101 353/129/99
f 355/62/35 357/119/96 358/132/102
f 355/62/35 358/132/102 356/131/101
f 357/119/96 359/68/37 360/133/103
f 357/119/96 360/133/103 358/132/102
f 359/68/37 361/121/97 362/134/104
f 359/68/37 362/134/104 360/133/103
f 361/121/97 363/74/34 364/135/105
f 361/121/97 364/135/105 362/134/104
f 363/74/34 365/123/98 366/136/106
f 363/74/34 366/136/106 364/135/105
f 365/123/98 351/53/38 354/137/100
f 365/123/98 354/137/100 366/136/106
f 354/130/100 353/129/99 367/138/107
f 354/130/100 367/138/107 368/139/108
f 353/129/99 356/131/101 369/140/109
f 353/129/99 369/140/109 367/138/107
f 356/131/101 358/132/102 370/141/110
f 356/131/101 370/141/110 369/140/109
f 358/132/102 360/133/103 371/142/111
f 358/132/102 371/142/111 370/141/110
f 360/133/103 362/134/104 372/143/112
f 360/133/103 372/143/112 371/142/111
f 362/134/104 364/135/105 373/144/113
f 362/134/104 373/144/113 372/143/112
f 364/135/105 366/136/106 374/145/114
f 364/135/105 374/145/114 373/144/113
f 366/136/106 354/137/100 368/146/108
f 366/136/106 368/146/108 374/145/114
f 368/139/108 367/138/107 375/147/115
f 368/139/108 375/147/115 376/148/116
f 367/138/107 369/140/109 377/149/117
f 367/138/107 377/149/117 375/147/115
f 369/140/109 370/141/110 378/150/118
f 369/140/109 378/150/118 377/149/117
f 370/141/110 371/142/111 379/151/119
f 370/141/110 379/151/119 378/150/118
f 371/142/111 372/143/112 380/152/120
f 371/142/111 380/152/120 379/151/119
f 372/143/112 373/144/113 381/153/121
f 372/143/112 381/153/121 380/152/120
f 373/144/113 374/145/114 382/154/122
f 373/144/113 382/154/122 381/153/121
f 374/145/114 368/146/108 376/155/116
f 374/145/114 376/155/116 382/154/122
f 376/148/116 375/147/115 383/156/123
f 376/148/116 383/156/123 384/157/124
f 375/147/115 377/149/117 385/158/125
f 375/147/115 385/158/125 383/156/123
f 377/149/117 378/150/118 386/159/126
f 377/149/117 386/159/126 385/158/125
f 378/150/118 379/151/119 387/160/127
f 378/150/118 387/160/127 386/159/126
f 379/151/119 380/152/120 388/161/128
f 379/151/119 388/161/128 387/160/127
f 380/152/120 381/153/121 389/162/129
f 380/152/120 389/162/129 388/161/128
f 381/153/121 382/154/122 390/163/130
f 381/153/121 390/163/130 389/162/129
f 382/154/122 376/155/116 384/164/124
f 382/154/122 384/164/124 390/163/130
f 384/157/124 383/156/123 391/118/95
f 384/157/124 391/118/95 392/55/38
f 383/156/123 385/158/125 393/108/35
f 383/156/123 393/108/35 391/118/95
f 385/158/125 386/159/126 394/120/96
f 385/158/125 394/120/96 393/108/35
f 386/159/126 387/160/127 395/111/37
f 386/159/126 395/111/37 394/120/96
f 387/160/127 388/161/128 396/122/97
f 387/160/127 396/122/97 395/111/37
f 388/161/128 389/162/129 397/114/34
f 388/161/128 397/114/34 396/122/97
f 389/162/129 390/163/130 398/124/98
f 389/162/129 398/124/98 397/114/34
f 390/163/130 384/164/124 392/54/38
f 390/163/130 392/54/38 398/124/98
f 399/165/37 400/166/37 401/167/37
f 399/165/37 401/167/37 402/168/37
f 399/165/37 402/168/37 403/169/37
f 399/165/37 403/169/37 404/170/37
f 399/165/37 404/170/37 405/171/37
f 399/165/37 405/171/37 406/172/37
f 399/165/37 406/172/37 407/173/37
f 399/165/37 407/173/37 408/174/37
f 399/165/37 408/174/37 409/175/37
f 399/165/37 409/175/37 410/176/37
f 399/165/37 410/176/37 411/177/37
f 399/165/37 411/177/37 412/178/37
f 399/165/37 412/178/37 413/179/37
f 399/165/37 413/179/37 414/180/37
f 399/165/37 414/180/37 415/181/37
f 399/165/37 415/181/37 416/182/37
f 399/165/37 416/182/37 417/183/37
f 399/165/37 417/183/37 418/184/37
f 399/165/37 418/184/37 419/185/37
f 399/165/37 419/185/37 420/186/37
f 399/165/37 420/186/37 421/187/37
f 421/187/37 422/188/37 399/165/37
f 423/55/38 424/107/131 425/189/132
f 423/55/38 425/189/132 426/190/38
f 424/107/131 427/109/133 428/191/134
f 424/107/131 428/191/134 425/189/132
f 427/109/133 429/111/37 430/192/37
f 427/109/133 430/192/37 428/191/134
f 429/111/37 431/113/135 432/193/136
f 429/111/37 432/193/136 430/192/37
f 431/113/135 433/115/137 434/194/138
f 431/113/135 434/194/138 432/193/136
f 433/115/137 423/54/38 426/195/38
f 433/115/137 426/195/38 434/194/138
f 426/190/38 425/189/132 435/196/139
f 426/190/38 435/196/139 436/197/38
f 425/189/132 428/191/134 437/198/140
f 425/189/132 437/198/140 435/196/139
f 428/191/134 430/192/37 438/199/37
f 428/191/134 438/199/37 437/198/140
f 430/192/37 432/193/136 439/200/141
f 430/192/37 439/200/141 438/199/37
f 432/193/136 434/194/138 440/201/142
f 432/193/136 440/201/142 439/200/141
f 434/194/138 426/195/38 436/202/38
f 434/194/138 436/202/38 440/201/142
f 436/197/38 435/196/139 441/203/143
f 436/197/38 441/203/143 442/204/38
f 435/196/139 437/198/140 443/205/144
f 435/196/139 443/205/144 441/203/143
f 437/198/140 438/199/37 444/206/37
f 437/198/140 444/206/37 443/205/144
f 438/199/37 439/200/141 445/207/145
f 438/199/37 445/207/145 444/206/37
f 439/200/141 440/201/142 446/208/146
f 439/200/141 446/208/146 445/207/145
f 440/201/142 436/202/38 442/209/38
f 440/201/142 442/209/38 446/208/146
f 442/204/38 441/203/143 447/210/147
f 442/204/38 447/210/147 448/211/38
f 441/203/143 443/205/144 449/212/148
f 441/203/143 449/212/148 447/210/147
f 443/205/144 444/206/37 450/213/37
f 443/205/144 450/213/37 449/212/148
f 444/206/37 445/207/145 451/214/149
f 444/206/37 451/214/149 450/213/37
f 445/207/145 446/208/146 452/215/150
f 445/207/145 452/215/150 451/214/149
f 446/208/146 442/209/38 448/216/38
f 446/208/146 448/216/38 452/215/150
f 448/211/38 447/210/147 453/217/151
f 448/211/38 453/217/151 454/218/38
f 447/210/147 449/212/148 455/219/152
f 447/210/147 455/219/152 453/217/151
f 449/212/148 450/213/37 456/220/37
f 449/212/148 456/220/37 455/219/152
f 450/213/37 451/214/149 457/221/153
f 450/213/37 457/221/153 456/220/37
f 451/214/149 452/215/150 458/222/154
f 451/214/149 458/222/154 457/221/153
f 452/215/150 448/216/38 454/223/38
f 452/215/150 454/223/38 458/222/154
f 454/218/38 453/217/151 459/224/155
f 454/218/38 459/224/155 460/225/38
f 453/217/151 455/219/152 461/226/156
f 453/217/151 461/226/156 459/224/155
f 455/219/152 456/220/37 462/227/37
f 455/219/152 462/227/37 461/226/156
f 456/220/37 457/221/153 463/228/157
f 456/220/37 463/228/157 462/227/37
f 457/221/153 458/222/154 464/229/158
f 457/221/153 464/229/158 463/228/157
f 458/222/154 454/223/38 460/230/38
f 458/222/154 460/230/38 464/229/158
f 460/225/38 459/224/155 465/231/159
f 460/225/38 465/231/159 466/232/38
f 459/224/155 461/226/156 467/233/160
f 459/224/155 467/233/160 465/231/159
f 461/226/156 462/227/37 468/234/37
f 461/226/156 468/234/37 467/233/160
f 462/227/37 463/228/157 469/235/161
f 462/227/37 469/235/161 468/234/37
f 463/228/157 464/229/158 470/236/162
f 463/228/157 470/236/162 469/235/161
f 464/229/158 460/230/38 466/237/38
f 464/229/158 466/237/38 470/236/162
f 466/232/38 465/231/159 471/238/163
f 466/232/38 471/238/163 472/239/38
f 465/231/159 467/233/160 473/240/164
f 465/231/159 473/240/164 471/238/163
f 467/233/160 468/234/37 474/241/37
f 467/233/160 474/241/37 473/240/164
f 468/234/37 469/235/161 475/242/165
f 468/234/37 475/242/165 474/241/37
f 469/235/161 470/236/162 476/243/166
f 469/235/161 476/243/166 475/242/165
f 470/236/162 466/237/38 472/244/38
f 470/236/162 472/244/38 476/243/166
f 472/239/38 471/238/163 477/245/167
f 472/239/38 477/245/167 478/246/38
f 471/238/163 473/240/164 479/247/168
f 471/238/163 479/247/168 477/245/167
f 473/240/164 474/241/37 480/248/37
f 473/240/164 480/248/37 479/247/168
f 474/241/37 475/242/165 481/249/169
f 474/241/37 481/249/169 480/248/37
f 475/242/165 476/243/166 482/250/170
f 475/242/165 482/250/170 481/249/169
f 476/243/166 472/244/38 478/251/38
f 476/243/166 478/251/38 482/250/170
f 478/246/38 477/245/167 483/252/171
f 478/246/38 483/252/171 484/253/38
f 477/245/167 479/247/168 485/254/172
f 477/245/167 485/254/172 483/252/171
f 479/247/168 480/248/37 486/255/37
f 479/247/168 486/255/37 485/254/172
f 480/248/37 481/249/169 487/256/173
f 480/248/37 487/256/173 486/255/37
f 481/249/169 482/250/170 488/257/174
f 481/249/169 488/257/174 487/256/173
f 482/250/170 478/251/38 484/258/38
f 482/250/170 484/258/38 488/257/174
f 484/253/38 483/252/171 489/259/175
f 484/253/38 489/259/175 490/260/38
f 483/252/171 485/254/172 491/261/176
f 483/252/171 491/261/176 489/259/175
f 485/254/172 486/255/37 492/262/37
f 485/254/172 492/262/37 491/261/176
f 486/255/37 487/256/173 493/263/177
f 486/255/37 493/263/177 492/262/37
f 487/256/173 488/257/174 494/264/178
f 487/256/173 494/264/178 493/263/177
f 488/257/174 484/258/38 490/265/38
f 488/257/174 490/265/38 494/264/178
f 490/260/38 489/259/175 495/82/137
f 490/260/38 495/82/137 496/81/38
f 489/259/175 491/261/176 497/84/135
f 489/259/175 497/84/135 495/82/137
f 491/261/176 492/262/37 498/86/37
f 491/261/176 498/86/37 497/84/135
f 492/262/37 493/263/177 499/88/133
f 492/262/37 499/88/133 498/86/37
f 493/263/177 494/264/178 500/90/131
f 493/263/177 500/90/131 499/88/133
f 494/264/178 490/265/38 496/92/38
f 494/264/178 496/92/38 500/90/131
f 496/81/38 495/82/137 501/266/138
f 496/81/38 501/266/138 502/267/38
f 495/82/137 497/84/135 503/268/136
f 495/82/137 503/268/136 501/266/138
f 497/84/135 498/86/37 504/269/37
f 497/84/135 504/269/37 503/268/136
f 498/86/37 499/88/133 505/270/134
f 498/86/37 505/270/134 504/269/37
f 499/88/133 500/90/131 506/271/132
f 499/88/133 506/271/132 505/270/134
f 500/90/131 496/92/38 502/272/38
f 500/90/131 502/272/38 506/271/132
f 502/267/38 501/266/138 507/273/142
f 502/267/38 507/273/142 508/274/38
f 501/266/138 503/268/136 509/275/141
f 501/266/138 509/275/141 507/273/142
f 503/268/136 504/269/37 510/276/37
f 503/268/136 510/276/37 509/275/141
f 504/269/37 505/270/134 511/277/140
f 504/269/37 511/277/140 510/276/37
f 505/270/134 506/271/132 512/278/139
f 505/270/134 512/278/139 511/277/140
f 506/271/132 502/272/38 508/279/38
f 506/271/132 508/279/38 512/278/139
f 508/274/38 507/273/142 513/280/146
f 508/274/38 513/280/146 514/281/38
f 507/273/142 509/275/141 515/282/145
f 507/273/142 515/282/145 513/280/146
f 509/275/141 510/276/37 516/283/37
f 509/275/141 516/283/37 515/282/145
f 510/276/37 511/277/140 517/284/144
f 510/276/37 517/284/144 516/283/37
f 511/277/140 512/278/139 518/285/143
f 511/277/140 518/285/143 517/284/144
f 512/278/139 508/279/38 514/286/38
f 512/278/139 514/286/38 518/285/143
f 514/281/38 513/280/146 519/287/150
f 514/281/38 519/287/150 520/288/38
f 513/280/146 515/282/145 521/289/149
f 513/280/146 521/289/149 519/287/150
f 515/282/145 516/283/37 522/290/37
f 515/282/145 522/290/37 521/289/149
f 516/283/37 517/284/144 523/291/148
f 516/283/37 523/291/148 522/290/37
f 517/284/144 518/285/143 524/292/147
f 517/284/144 524/292/147 523/291/148
f 518/285/143 514/286/38 520/293/38
f 518/285/143 520/293/38 524/292/147
f 520/288/38 519/287/150 525/294/154
f 520/288/38 525/294/154 526/295/38
f 519/287/150 521/289/149 527/296/153
f 519/287/150 527/296/153 525/294/154
f 521/289/149 522/290/37 528/297/37
f 521/289/149 528/297/37 527/296/153
f 522/290/37 523/291/148 529/298/152
f 522/290/37 529/298/152 528/297/37
f 523/291/148 524/292/147 530/299/151
f 523/291/148 530/299/151 529/298/152
f 524/292/147 520/293/38 526/300/38
f 524/292/147 526/300/38 530/299/151
f 526/295/38 525/294/154 531/301/158
f 526/295/38 531/301/158 532/302/38
f 525/294/154 527/296/153 533/303/157
f 525/294/154 533/303/157 531/301/158
f 527/296/153 528/297/37 534/304/37
f 527/296/153 534/304/37 533/303/157
f 528/297/37 529/298/152 535/305/156
f 528/297/37 535/305/156 534/304/37
f 529/298/152 530/299/151 536/306/155
f 529/298/152 536/306/155 535/305/156
f 530/299/151 526/300/38 532/307/38
f 530/299/151 532/307/38 536/306/155
f 532/302/38 531/301/158 537/308/162
f 532/302/38 537/308/162 538/309/38
f 531/301/158 533/303/157 539/310/161
f 531/301/158 539/310/161 537/308/162
f 533/303/157 534/304/37 540/311/37
f 533/303/157 540/311/37 539/310/161
f 534/304/37 535/305/156 541/312/160
f 534/304/37 541/312/160 540/311/37
f 535/305/156 536/306/155 542/313/159
f 535/305/156 542/313/159 541/312/160
f 536/306/155 532/307/38 538/314/38
f 536/306/155 538/314/38 542/313/159
f 538/309/38 537/308/162 543/315/166
f 538/309/38 543/315/166 544/316/38
f 537/308/162 539/310/161 545/317/165
f 537/308/162 545/317/165 543/315/166
f 539/310/161 540/311/37 546/318/37
f 539/310/161 546/318/37 545/317/165
f 540/311/37 541/312/160 547/319/164
f 540/311/37 547/319/164 546/318/37
f 541/312/160 542/313/159 548/320/163
f 541/312/160 548/320/163 547/319/164
f 542/313/159 538/314/38 544/321/38
f 542/313/159 544/321/38 548/320/163
f 544/316/38 543/315/166 549/322/170
f 544/316/38 549/322/170 550/323/38
f 543/315/166 545/317/165 551/324/169
f 543/315/166 551/324/169 549/322/170
f 545/317/165 546/318/37 552/325/37
f 545/317/165 552/325/37 551/324/169
f 546/318/37 547/319/164 553/326/168
f 546/318/37 553/326/168 552/325/37
f 547/319/164 548/320/163 554/327/167
f 547/319/164 554/327/167 553/326/168
f 548/320/163 544/321/38 550/328/38
f 548/320/163 550/328/38 554/327/167
f 550/323/38 549/322/170 555/329/174
f 550/323/38 555/329/174 556/330/38
f 549/322/170 551/324/169 557/331/173
f 549/322/170 557/331/173 555/329/174
f 551/324/169 552/325/37 558/332/37
f 551/324/169 558/332/37 557/331/173
f 552/325/37 553/326/168 559/333/172
f 552/325/37 559/333/172 558/332/37
f 553/326/168 554/327/167 560/334/171
f 553/326/168 560/334/171 559/333/172
f 554/327/167 550/328/38 556/335/38
f 554/327/167 556/335/38 560/334/171
f 556/330/38 555/329/174 561/336/178
f 556/330/38 561/336/178 562/337/38
f 555/329/174 557/331/173 563/338/177
f 555/329/174 563/338/177 561/336/178
f 557/331/173 558/332/37 564/339/37
f 557/331/173 564/339/37 563/338/177
f 558/332/37 559/333/172 565/340/176
f 558/332/37 565/340/176 564/339/37
f 559/333/172 560/334/171 566/341/175
f 559/333/172 566/341/175 565/340/176
f 560/334/171 556/335/38 562/342/38
f 560/334/171 562/342/38 566/341/175
f 562/337/38 561/336/178 424/60/131
f 562/337/38 424/60/131 423/52/38
f 561/336/178 563/338/177 427/64/133
f 561/336/178 427/64/133 424/60/131
f 563/338/177 564/339/37 429/68/37
f 563/338/177 429/68/37 427/64/133
f 564/339/37 565/340/176 431/72/135
f 564/339/37 431/72/135 429/68/37
f 565/340/176 566/341/175 433/76/137
f 565/340/176 433/76/137 431/72/135
f 566/341/175 562/342/38 423/53/38
f 566/341/175 423/53/38 433/76/137
f 567/1/34 568/17/34 569/36/34
f 569/36/34 570/29/34 567/1/34
f 571/1/35 572/17/35 573/36/35
f 573/36/35 574/29/35 571/1/35
f 568/1/33 567/17/33 572/36/33
f 572/36/33 571/29/33 568/1/33
f 570/1/36 569/17/36 574/36/36
f 574/36/36 573/29/36 570/1/36
f 567/1/37 570/17/37 573/36/37
f 573/36/37 572/29/37 567/1/37
f 569/1/38 568/17/38 571/36/38
f 571/36/38 574/29/38 569/1/38
f 575/1/179 576/343/179 577/344/179
f 575/1/179 577/344/179 578/29/179
f 576/343/180 579/345/180 580/346/180
f 576/343/180 580/346/180 577/344/180
f 579/345/181 581/347/181 582/348/181
f 579/345/181 582/348/181 580/346/181
f 581/347/182 583/349/182 584/350/182
f 581/347/182 584/350/182 582/348/182
f 583/349/183 585/351/183 586/352/183
f 583/349/183 586/352/183 584/350/183
f 585/351/184 587/353/184 588/354/184
f 585/351/184 588/354/184 586/352/184
f 587/353/185 589/355/185 590/356/185
f 587/353/185 590/356/185 588/354/185
f 589/355/186 591/357/186 592/358/186
f 589/355/186 592/358/186 590/356/186
f 591/357/187 593/359/187 594/360/187
f 591/357/187 594/360/187 592/358/187
f 593/359/188 595/361/188 596/362/188
f 593/359/188 596/362/188 594/360/188
f 595/361/189 597/363/189 598/364/189
f 595/361/189 598/364/189 596/362/189
f 597/363/190 599/365/190 600/366/190
f 597/363/190 600/366/190 598/364/190
f 599/365/191 601/367/191 602/368/191
f 599/365/191 602/368/191 600/366/191
f 601/367/192 603/369/192 604/370/192
f 601/367/192 604/370/192 602/368/192
f 603/369/193 605/371/193 606/372/193
f 603/369/193 606/372/193 604/370/193
f 605/371/194 607/373/194 608/374/194
f 605/371/194 608/374/194 606/372/194
f 607/373/33 575/17/33 578/36/33
f 607/373/33 578/36/33 608/374/33
f 608/1/37 578/17/37 577/375/37
f 608/1/37 577/375/37 580/376/37
f 608/1/37 580/376/37 582/377/37
f 608/1/37 582/377/37 584/378/37
f 608/1/37 584/378/37 586/379/37
f 608/1/37 586/379/37 588/380/37
f 608/1/37 588/380/37 590/381/37
f 608/1/37 590/381/37 592/32/37
f 608/1/37 592/32/37 594/382/37
f 608/1/37 594/382/37 596/383/37
f 608/1/37 596/383/37 598/384/37
f 608/1/37 598/384/37 600/385/37
f 608/1/37 600/385/37 602/386/37
f 608/1/37 602/386/37 604/387/37
f 604/387/37 606/388/37 608/1/37
f 575/1/38 607/17/38 605/375/38
f 575/1/38 605/375/38 603/376/38
f 575/1/38 603/376/38 601/377/38
f 575/1/38 601/377/38 599/378/38
f 575/1/38 599/378/38 597/379/38
f 575/1/38 597/379/38 595/380/38
f 575/1/38 595/380/38 593/381/38
f 575/1/38 593/381/38 591/32/38
f 575/1/38 591/32/38 589/382/38
f 575/1/38 589/382/38 587/383/38
f 575/1/38 587/383/38 585/384/38
f 575/1/38 585/384/38 583/385/38
f 575/1/38 583/385/38 581/386/38
f 575/1/38 581/386/38 579/387/38
f 579/387/38 576/388/38 575/1/38
f 609/52/195 610/117/196 611/389/197
f 609/52/195 611/389/197 612/390/198
f 610/117/196 613/62/199 614/391/200
f 610/117/196 614/391/200 611/389/197
f 613/62/199 615/119/201 616/392/202
f 613/62/199 616/392/202 614/391/200
f 615/119/201 617/68/203 618/393/204
f 615/119/201 618/393/204 616/392/202
f 617/68/203 619/121/205 620/394/206
f 617/68/203 620/394/206 618/393/204
f 619/121/205 621/74/207 622/395/208
f 619/121/205 622/395/208 620/394/206
f 621/74/207 623/123/209 624/396/210
f 621/74/207 624/396/210 622/395/208
f 623/123/209 609/53/195 612/397/198
f 623/123/209 612/397/198 624/396/210
f 612/390/198 611/389/197 625/398/211
f 612/390/198 625/398/211 626/399/212
f 611/389/197 614/391/200 627/400/213
f 611/389/197 627/400/213 625/398/211
f 614/391/200 616/392/202 628/401/214
f 614/391/200 628/401/214 627/400/213
f 616/392/202 618/393/204 629/402/215
f 616/392/202 629/402/215 628/401/214
f 618/393/204 620/394/206 630/403/216
f 618/393/204 630/403/216 629/402/215
f 620/394/206 622/395/208 631/404/217
f 620/394/206 631/404/217 630/403/216
f 622/395/208 624/396/210 632/405/218
f 622/395/208 632/405/218 631/404/217
f 624/396/210 612/397/198 626/406/212
f 624/396/210 626/406/212 632/405/218
f 626/399/212 625/398/211 633/407/219
f 626/399/212 633/407/219 634/408/220
f 625/398/211 627/400/213 635/409/221
f 625/398/211 635/409/221 633/407/219
f 627/400/213 628/401/214 636/410/222
f 627/400/213 636/410/222 635/409/221
f 628/401/214 629/402/215 637/411/223
f 628/401/214 637/411/223 636/410/222
f 629/402/215 630/403/216 638/412/224
f 629/402/215 638/412/224 637/411/223
f 630/403/216 631/404/217 639/413/225
f 630/403/216 639/413/225 638/412/224
f 631/404/217 632/405/218 640/414/226
f 631/404/217 640/414/226 639/413/225
f 632/405/218 626/406/212 634/415/220
f 632/405/218 634/415/220 640/414/226
f 634/408/220 633/407/219 641/55/227
f 633/407/219 635/409/221 641/118/228
f 635/409/221 636/410/222 641/108/229
f 636/410/222 637/411/223 641/120/230
f 637/411/223 638/412/224 641/111/231
f 638/412/224 639/413/225 641/122/232
f 639/413/225 640/414/226 641/114/233
f 640/414/226 634/415/220 641/124/234
