# Procedurally generated by dev-env-utils/scripts/gen_park_legacy_amenities.py -- do not hand edit
mtllib birdbath_cast.mtl
o birdbath
v 0.586104 0.075000 0.707873
v 0.586104 0.000000 0.707873
v 0.707873 0.000000 0.586104
v 0.707873 0.075000 0.586104
v 0.413896 0.075000 0.707873
v 0.413896 0.000000 0.707873
v 0.292127 0.075000 0.586104
v 0.292127 0.000000 0.586104
v 0.292127 0.075000 0.413896
v 0.292127 0.000000 0.413896
v 0.413896 0.075000 0.292127
v 0.413896 0.000000 0.292127
v 0.586104 0.075000 0.292127
v 0.586104 0.000000 0.292127
v 0.707873 0.075000 0.413896
v 0.707873 0.000000 0.413896
v 0.540660 0.075000 0.598162
v 0.598162 0.075000 0.540660
v 0.459340 0.075000 0.598162
v 0.401838 0.075000 0.540660
v 0.401838 0.075000 0.459340
v 0.459340 0.075000 0.401838
v 0.540660 0.075000 0.401838
v 0.598162 0.075000 0.459340
v 0.550227 0.312500 0.621259
v 0.621259 0.312500 0.550227
v 0.449773 0.312500 0.621259
v 0.378741 0.312500 0.550227
v 0.378741 0.312500 0.449773
v 0.449773 0.312500 0.378741
v 0.550227 0.312500 0.378741
v 0.621259 0.312500 0.449773
v 0.533485 0.537500 0.580839
v 0.580839 0.537500 0.533485
v 0.466515 0.537500 0.580839
v 0.419161 0.537500 0.533485
v 0.419161 0.537500 0.466515
v 0.466515 0.537500 0.419161
v 0.533485 0.537500 0.419161
v 0.580839 0.537500 0.466515
v 0.633939 0.662500 0.823358
v 0.823358 0.662500 0.633939
v 0.366061 0.662500 0.823358
v 0.176642 0.662500 0.633939
v 0.176642 0.662500 0.366061
v 0.366061 0.662500 0.176642
v 0.633939 0.662500 0.176642
v 0.823358 0.662500 0.366061
v 0.633939 0.731250 0.823358
v 0.823358 0.731250 0.633939
v 0.366061 0.731250 0.823358
v 0.176642 0.731250 0.633939
v 0.176642 0.731250 0.366061
v 0.366061 0.731250 0.176642
v 0.633939 0.731250 0.176642
v 0.823358 0.731250 0.366061
v 0.612413 0.731250 0.771390
v 0.771390 0.731250 0.612413
v 0.387587 0.731250 0.771390
v 0.228610 0.731250 0.612413
v 0.228610 0.731250 0.387587
v 0.387587 0.731250 0.228610
v 0.612413 0.731250 0.228610
v 0.771390 0.731250 0.387587
v 0.612413 0.687500 0.771390
v 0.771390 0.687500 0.612413
v 0.387587 0.687500 0.771390
v 0.228610 0.687500 0.612413
v 0.228610 0.687500 0.387587
v 0.387587 0.687500 0.228610
v 0.612413 0.687500 0.228610
v 0.771390 0.687500 0.387587
v 0.500000 0.000000 0.500000
vt 0.312500 0.712500
vt 0.312500 0.750000
vt 0.250000 0.750000
vt 0.250000 0.712500
vt 0.375000 0.712500
vt 0.375000 0.750000
vt 0.437500 0.712500
vt 0.437500 0.750000
vt 0.500000 0.712500
vt 0.500000 0.750000
vt 0.562500 0.712500
vt 0.562500 0.750000
vt 0.625000 0.712500
vt 0.625000 0.750000
vt 0.687500 0.712500
vt 0.687500 0.750000
vt 0.750000 0.712500
vt 0.750000 0.750000
vt 0.312500 0.593750
vt 0.250000 0.593750
vt 0.375000 0.593750
vt 0.437500 0.593750
vt 0.500000 0.593750
vt 0.562500 0.593750
vt 0.625000 0.593750
vt 0.687500 0.593750
vt 0.750000 0.593750
vt 0.312500 0.481250
vt 0.250000 0.481250
vt 0.375000 0.481250
vt 0.437500 0.481250
vt 0.500000 0.481250
vt 0.562500 0.481250
vt 0.625000 0.481250
vt 0.687500 0.481250
vt 0.750000 0.481250
vt 0.312500 0.418750
vt 0.250000 0.418750
vt 0.375000 0.418750
vt 0.437500 0.418750
vt 0.500000 0.418750
vt 0.562500 0.418750
vt 0.625000 0.418750
vt 0.687500 0.418750
vt 0.750000 0.418750
vt 0.312500 0.384375
vt 0.250000 0.384375
vt 0.375000 0.384375
vt 0.437500 0.384375
vt 0.500000 0.384375
vt 0.562500 0.384375
vt 0.625000 0.384375
vt 0.687500 0.384375
vt 0.750000 0.384375
vt 0.312500 0.406250
vt 0.250000 0.406250
vt 0.375000 0.406250
vt 0.437500 0.406250
vt 0.500000 0.406250
vt 0.562500 0.406250
vt 0.625000 0.406250
vt 0.687500 0.406250
vt 0.750000 0.406250
vt 0.500000 0.500000
vt 0.730970 0.404329
vt 0.595671 0.269030
vt 0.404329 0.269030
vt 0.269030 0.404329
vt 0.269030 0.595671
vt 0.404329 0.730970
vt 0.595671 0.730970
vt 0.730970 0.595671
vn 0.204350 0.845489 0.493345
vn 0.382683 -0.000000 0.923880
vn 0.923880 -0.000000 0.382683
vn 0.493345 0.845489 0.204350
vn -0.204350 0.845489 0.493345
vn -0.382683 -0.000000 0.923880
vn -0.493345 0.845489 0.204350
vn -0.923880 -0.000000 0.382683
vn -0.493345 0.845489 -0.204350
vn -0.923880 -0.000000 -0.382683
vn -0.204350 0.845489 -0.493345
vn -0.382683 -0.000000 -0.923880
vn 0.204350 0.845489 -0.493345
vn 0.382683 -0.000000 -0.923880
vn 0.493345 0.845489 -0.204350
vn 0.923880 -0.000000 -0.382683
vn 0.355955 0.367167 0.859351
vn 0.859351 0.367167 0.355955
vn -0.355955 0.367167 0.859351
vn -0.859351 0.367167 0.355955
vn -0.859351 0.367167 -0.355955
vn -0.355955 0.367167 -0.859351
vn 0.355955 0.367167 -0.859351
vn 0.859351 0.367167 -0.355955
vn 0.382369 0.040507 0.923121
vn 0.923121 0.040507 0.382369
vn -0.382369 0.040507 0.923121
vn -0.923121 0.040507 0.382369
vn -0.923121 0.040507 -0.382369
vn -0.382369 0.040507 -0.923121
vn 0.382369 0.040507 -0.923121
vn 0.923121 0.040507 -0.382369
vn 0.324515 -0.529999 0.783448
vn 0.783448 -0.529999 0.324515
vn -0.324515 -0.529999 0.783448
vn -0.783448 -0.529999 0.324515
vn -0.783448 -0.529999 -0.324515
vn -0.324515 -0.529999 -0.783448
vn 0.324515 -0.529999 -0.783448
vn 0.783448 -0.529999 -0.324515
vn 0.227257 -0.804574 0.548648
vn 0.548648 -0.804574 0.227257
vn -0.227257 -0.804574 0.548648
vn -0.548648 -0.804574 0.227257
vn -0.548648 -0.804574 -0.227257
vn -0.227257 -0.804574 -0.548648
vn 0.227257 -0.804574 -0.548648
vn 0.548648 -0.804574 -0.227257
vn 0.296181 0.633238 0.715043
vn 0.715043 0.633238 0.296181
vn -0.296181 0.633238 0.715043
vn -0.715043 0.633238 0.296181
vn -0.715043 0.633238 -0.296181
vn -0.296181 0.633238 -0.715043
vn 0.296181 0.633238 -0.715043
vn 0.715043 0.633238 -0.296181
vn -0.234945 0.789352 -0.567207
vn -0.567207 0.789352 -0.234945
vn 0.234945 0.789352 -0.567207
vn 0.567207 0.789352 -0.234945
vn 0.567207 0.789352 0.234945
vn 0.234945 0.789352 0.567207
vn -0.234945 0.789352 0.567207
vn -0.567207 0.789352 0.234945
vn 0.000000 -1.000000 0.000000
v 0.500000 0.706250 0.500000
v 0.613609 0.706250 0.774277
v 0.774277 0.706250 0.613609
v 0.386391 0.706250 0.774277
v 0.225723 0.706250 0.613609
v 0.225723 0.706250 0.386391
v 0.386391 0.706250 0.225723
v 0.613609 0.706250 0.225723
v 0.774277 0.706250 0.386391
vt 0.500000 0.500000
vt 0.595671 0.269030
vt 0.730970 0.404329
vt 0.404329 0.269030
vt 0.269030 0.404329
vt 0.269030 0.595671
vt 0.404329 0.730970
vt 0.595671 0.730970
vt 0.730970 0.595671
vn 0.000000 1.000000 0.000000
usemtl stone
f 1/1/1 2/2/2 3/3/3
f 4/4/4 1/1/1 3/3/3
f 5/5/5 6/6/6 2/2/2
f 1/1/1 5/5/5 2/2/2
f 7/7/7 8/8/8 6/6/6
f 5/5/5 7/7/7 6/6/6
f 9/9/9 10/10/10 8/8/8
f 7/7/7 9/9/9 8/8/8
f 11/11/11 12/12/12 10/10/10
f 9/9/9 11/11/11 10/10/10
f 13/13/13 14/14/14 12/12/12
f 11/11/11 13/13/13 12/12/12
f 15/15/15 16/16/16 14/14/14
f 13/13/13 15/15/15 14/14/14
f 4/17/4 3/18/3 16/16/16
f 15/15/15 4/17/4 16/16/16
f 17/1/17 1/1/1 4/4/4
f 18/4/18 17/1/17 4/4/4
f 19/5/19 5/5/5 1/1/1
f 17/1/17 19/5/19 1/1/1
f 20/7/20 7/7/7 5/5/5
f 19/5/19 20/7/20 5/5/5
f 21/9/21 9/9/9 7/7/7
f 20/7/20 21/9/21 7/7/7
f 22/11/22 11/11/11 9/9/9
f 21/9/21 22/11/22 9/9/9
f 23/13/23 13/13/13 11/11/11
f 22/11/22 23/13/23 11/11/11
f 24/15/24 15/15/15 13/13/13
f 23/13/23 24/15/24 13/13/13
f 18/17/18 4/17/4 15/15/15
f 24/15/24 18/17/18 15/15/15
f 25/19/25 17/1/17 18/4/18
f 26/20/26 25/19/25 18/4/18
f 27/21/27 19/5/19 17/1/17
f 25/19/25 27/21/27 17/1/17
f 28/22/28 20/7/20 19/5/19
f 27/21/27 28/22/28 19/5/19
f 29/23/29 21/9/21 20/7/20
f 28/22/28 29/23/29 20/7/20
f 30/24/30 22/11/22 21/9/21
f 29/23/29 30/24/30 21/9/21
f 31/25/31 23/13/23 22/11/22
f 30/24/30 31/25/31 22/11/22
f 32/26/32 24/15/24 23/13/23
f 31/25/31 32/26/32 23/13/23
f 26/27/26 18/17/18 24/15/24
f 32/26/32 26/27/26 24/15/24
f 33/28/33 25/19/25 26/20/26
f 34/29/34 33/28/33 26/20/26
f 35/30/35 27/21/27 25/19/25
f 33/28/33 35/30/35 25/19/25
f 36/31/36 28/22/28 27/21/27
f 35/30/35 36/31/36 27/21/27
f 37/32/37 29/23/29 28/22/28
f 36/31/36 37/32/37 28/22/28
f 38/33/38 30/24/30 29/23/29
f 37/32/37 38/33/38 29/23/29
f 39/34/39 31/25/31 30/24/30
f 38/33/38 39/34/39 30/24/30
f 40/35/40 32/26/32 31/25/31
f 39/34/39 40/35/40 31/25/31
f 34/36/34 26/27/26 32/26/32
f 40/35/40 34/36/34 32/26/32
f 41/37/41 33/28/33 34/29/34
f 42/38/42 41/37/41 34/29/34
f 43/39/43 35/30/35 33/28/33
f 41/37/41 43/39/43 33/28/33
f 44/40/44 36/31/36 35/30/35
f 43/39/43 44/40/44 35/30/35
f 45/41/45 37/32/37 36/31/36
f 44/40/44 45/41/45 36/31/36
f 46/42/46 38/33/38 37/32/37
f 45/41/45 46/42/46 37/32/37
f 47/43/47 39/34/39 38/33/38
f 46/42/46 47/43/47 38/33/38
f 48/44/48 40/35/40 39/34/39
f 47/43/47 48/44/48 39/34/39
f 42/45/42 34/36/34 40/35/40
f 48/44/48 42/45/42 40/35/40
f 49/46/49 41/37/41 42/38/42
f 50/47/50 49/46/49 42/38/42
f 51/48/51 43/39/43 41/37/41
f 49/46/49 51/48/51 41/37/41
f 52/49/52 44/40/44 43/39/43
f 51/48/51 52/49/52 43/39/43
f 53/50/53 45/41/45 44/40/44
f 52/49/52 53/50/53 44/40/44
f 54/51/54 46/42/46 45/41/45
f 53/50/53 54/51/54 45/41/45
f 55/52/55 47/43/47 46/42/46
f 54/51/54 55/52/55 46/42/46
f 56/53/56 48/44/48 47/43/47
f 55/52/55 56/53/56 47/43/47
f 50/54/50 42/45/42 48/44/48
f 56/53/56 50/54/50 48/44/48
f 57/46/57 49/46/49 50/47/50
f 58/47/58 57/46/57 50/47/50
f 59/48/59 51/48/51 49/46/49
f 57/46/57 59/48/59 49/46/49
f 60/49/60 52/49/52 51/48/51
f 59/48/59 60/49/60 51/48/51
f 61/50/61 53/50/53 52/49/52
f 60/49/60 61/50/61 52/49/52
f 62/51/62 54/51/54 53/50/53
f 61/50/61 62/51/62 53/50/53
f 63/52/63 55/52/55 54/51/54
f 62/51/62 63/52/63 54/51/54
f 64/53/64 56/53/56 55/52/55
f 63/52/63 64/53/64 55/52/55
f 58/54/58 50/54/50 56/53/56
f 64/53/64 58/54/58 56/53/56
f 65/55/12 57/46/57 58/47/58
f 66/56/10 65/55/12 58/47/58
f 67/57/14 59/48/59 57/46/57
f 65/55/12 67/57/14 57/46/57
f 68/58/16 60/49/60 59/48/59
f 67/57/14 68/58/16 59/48/59
f 69/59/3 61/50/61 60/49/60
f 68/58/16 69/59/3 60/49/60
f 70/60/2 62/51/62 61/50/61
f 69/59/3 70/60/2 61/50/61
f 71/61/6 63/52/63 62/51/62
f 70/60/2 71/61/6 62/51/62
f 72/62/8 64/53/64 63/52/63
f 71/61/6 72/62/8 63/52/63
f 66/63/10 58/54/58 64/53/64
f 72/62/8 66/63/10 64/53/64
f 73/64/65 3/65/65 2/66/65
f 73/64/65 2/66/65 6/67/65
f 73/64/65 6/67/65 8/68/65
f 73/64/65 8/68/65 10/69/65
f 73/64/65 10/69/65 12/70/65
f 73/64/65 12/70/65 14/71/65
f 73/64/65 14/71/65 16/72/65
f 73/64/65 16/72/65 3/65/65
usemtl water
f 74/73/66 75/74/66 76/75/66
f 74/73/66 77/76/66 75/74/66
f 74/73/66 78/77/66 77/76/66
f 74/73/66 79/78/66 78/77/66
f 74/73/66 80/79/66 79/78/66
f 74/73/66 81/80/66 80/79/66
f 74/73/66 82/81/66 81/80/66
f 74/73/66 76/75/66 82/81/66
