# Generated by dev-env-utils/scripts/gen_park_amenities.py -- do not hand edit
mtllib gazebo_roof.mtl
o gazebo_roof
v -2.187500 0.001250 -2.187500
v -1.187500 0.001250 -2.187500
v -1.187500 0.001250 -1.187500
v -2.187500 0.001250 -1.187500
v -2.187500 0.001250 -1.187500
v -1.187500 0.001250 -1.187500
v -1.187500 0.001250 -0.187500
v -2.187500 0.001250 -0.187500
v -2.187500 0.001250 -0.187500
v -1.187500 0.001250 -0.187500
v -1.187500 0.001250 0.812500
v -2.187500 0.001250 0.812500
v -2.187500 0.001250 0.812500
v -1.187500 0.001250 0.812500
v -1.187500 0.001250 1.812500
v -2.187500 0.001250 1.812500
v -2.187500 0.001250 1.812500
v -1.187500 0.001250 1.812500
v -1.187500 0.001250 2.812500
v -2.187500 0.001250 2.812500
v -2.187500 0.001250 2.812500
v -1.187500 0.001250 2.812500
v -1.187500 0.001250 3.187500
v -2.187500 0.001250 3.187500
v -1.187500 0.001250 -2.187500
v -0.187500 0.001250 -2.187500
v -0.187500 0.001250 -1.187500
v -1.187500 0.001250 -1.187500
v -1.187500 0.001250 -1.187500
v -0.187500 0.001250 -1.187500
v -0.187500 0.001250 -0.187500
v -1.187500 0.001250 -0.187500
v -1.187500 0.001250 -0.187500
v -0.187500 0.001250 -0.187500
v -0.187500 0.001250 0.812500
v -1.187500 0.001250 0.812500
v -1.187500 0.001250 0.812500
v -0.187500 0.001250 0.812500
v -0.187500 0.001250 1.812500
v -1.187500 0.001250 1.812500
v -1.187500 0.001250 1.812500
v -0.187500 0.001250 1.812500
v -0.187500 0.001250 2.812500
v -1.187500 0.001250 2.812500
v -1.187500 0.001250 2.812500
v -0.187500 0.001250 2.812500
v -0.187500 0.001250 3.187500
v -1.187500 0.001250 3.187500
v -0.187500 0.001250 -2.187500
v 0.812500 0.001250 -2.187500
v 0.812500 0.001250 -1.187500
v -0.187500 0.001250 -1.187500
v -0.187500 0.001250 -1.187500
v 0.812500 0.001250 -1.187500
v 0.812500 0.001250 -0.187500
v -0.187500 0.001250 -0.187500
v -0.187500 0.001250 -0.187500
v 0.812500 0.001250 -0.187500
v 0.812500 0.001250 0.812500
v -0.187500 0.001250 0.812500
v -0.187500 0.001250 0.812500
v 0.812500 0.001250 0.812500
v 0.812500 0.001250 1.812500
v -0.187500 0.001250 1.812500
v -0.187500 0.001250 1.812500
v 0.812500 0.001250 1.812500
v 0.812500 0.001250 2.812500
v -0.187500 0.001250 2.812500
v -0.187500 0.001250 2.812500
v 0.812500 0.001250 2.812500
v 0.812500 0.001250 3.187500
v -0.187500 0.001250 3.187500
v 0.812500 0.001250 -2.187500
v 1.812500 0.001250 -2.187500
v 1.812500 0.001250 -1.187500
v 0.812500 0.001250 -1.187500
v 0.812500 0.001250 -1.187500
v 1.812500 0.001250 -1.187500
v 1.812500 0.001250 -0.187500
v 0.812500 0.001250 -0.187500
v 0.812500 0.001250 -0.187500
v 1.812500 0.001250 -0.187500
v 1.812500 0.001250 0.812500
v 0.812500 0.001250 0.812500
v 0.812500 0.001250 0.812500
v 1.812500 0.001250 0.812500
v 1.812500 0.001250 1.812500
v 0.812500 0.001250 1.812500
v 0.812500 0.001250 1.812500
v 1.812500 0.001250 1.812500
v 1.812500 0.001250 2.812500
v 0.812500 0.001250 2.812500
v 0.812500 0.001250 2.812500
v 1.812500 0.001250 2.812500
v 1.812500 0.001250 3.187500
v 0.812500 0.001250 3.187500
v 1.812500 0.001250 -2.187500
v 2.812500 0.001250 -2.187500
v 2.812500 0.001250 -1.187500
v 1.812500 0.001250 -1.187500
v 1.812500 0.001250 -1.187500
v 2.812500 0.001250 -1.187500
v 2.812500 0.001250 -0.187500
v 1.812500 0.001250 -0.187500
v 1.812500 0.001250 -0.187500
v 2.812500 0.001250 -0.187500
v 2.812500 0.001250 0.812500
v 1.812500 0.001250 0.812500
v 1.812500 0.001250 0.812500
v 2.812500 0.001250 0.812500
v 2.812500 0.001250 1.812500
v 1.812500 0.001250 1.812500
v 1.812500 0.001250 1.812500
v 2.812500 0.001250 1.812500
v 2.812500 0.001250 2.812500
v 1.812500 0.001250 2.812500
v 1.812500 0.001250 2.812500
v 2.812500 0.001250 2.812500
v 2.812500 0.001250 3.187500
v 1.812500 0.001250 3.187500
v 2.812500 0.001250 -2.187500
v 3.187500 0.001250 -2.187500
v 3.187500 0.001250 -1.187500
v 2.812500 0.001250 -1.187500
v 2.812500 0.001250 -1.187500
v 3.187500 0.001250 -1.187500
v 3.187500 0.001250 -0.187500
v 2.812500 0.001250 -0.187500
v 2.812500 0.001250 -0.187500
v 3.187500 0.001250 -0.187500
v 3.187500 0.001250 0.812500
v 2.812500 0.001250 0.812500
v 2.812500 0.001250 0.812500
v 3.187500 0.001250 0.812500
v 3.187500 0.001250 1.812500
v 2.812500 0.001250 1.812500
v 2.812500 0.001250 1.812500
v 3.187500 0.001250 1.812500
v 3.187500 0.001250 2.812500
v 2.812500 0.001250 2.812500
v 2.812500 0.001250 2.812500
v 3.187500 0.001250 2.812500
v 3.187500 0.001250 3.187500
v 2.812500 0.001250 3.187500
v -2.187500 0.000000 -2.187500
v 3.187500 0.000000 -2.187500
v 3.187500 0.000000 -2.112500
v -2.187500 0.000000 -2.112500
v -2.187500 0.000000 -2.187500
v -2.187500 0.125000 -2.187500
v 3.187500 0.125000 -2.187500
v 3.187500 0.000000 -2.187500
v -2.187500 0.000000 -2.112500
v 3.187500 0.000000 -2.112500
v 3.187500 0.125000 -2.112500
v -2.187500 0.125000 -2.112500
v -2.187500 0.000000 -2.187500
v -2.187500 0.000000 -2.112500
v -2.187500 0.125000 -2.112500
v -2.187500 0.125000 -2.187500
v 3.187500 0.000000 -2.187500
v 3.187500 0.125000 -2.187500
v 3.187500 0.125000 -2.112500
v 3.187500 0.000000 -2.112500
v -2.187500 0.000000 3.112500
v 3.187500 0.000000 3.112500
v 3.187500 0.000000 3.187500
v -2.187500 0.000000 3.187500
v -2.187500 0.000000 3.112500
v -2.187500 0.125000 3.112500
v 3.187500 0.125000 3.112500
v 3.187500 0.000000 3.112500
v -2.187500 0.000000 3.187500
v 3.187500 0.000000 3.187500
v 3.187500 0.125000 3.187500
v -2.187500 0.125000 3.187500
v -2.187500 0.000000 3.112500
v -2.187500 0.000000 3.187500
v -2.187500 0.125000 3.187500
v -2.187500 0.125000 3.112500
v 3.187500 0.000000 3.112500
v 3.187500 0.125000 3.112500
v 3.187500 0.125000 3.187500
v 3.187500 0.000000 3.187500
v -2.187500 0.000000 -2.112500
v -2.112500 0.000000 -2.112500
v -2.112500 0.000000 3.112500
v -2.187500 0.000000 3.112500
v -2.187500 0.000000 -2.112500
v -2.187500 0.000000 3.112500
v -2.187500 0.125000 3.112500
v -2.187500 0.125000 -2.112500
v -2.112500 0.000000 -2.112500
v -2.112500 0.125000 -2.112500
v -2.112500 0.125000 3.112500
v -2.112500 0.000000 3.112500
v 3.112500 0.000000 -2.112500
v 3.187500 0.000000 -2.112500
v 3.187500 0.000000 3.112500
v 3.112500 0.000000 3.112500
v 3.112500 0.000000 -2.112500
v 3.112500 0.000000 3.112500
v 3.112500 0.125000 3.112500
v 3.112500 0.125000 -2.112500
v 3.187500 0.000000 -2.112500
v 3.187500 0.125000 -2.112500
v 3.187500 0.125000 3.112500
v 3.187500 0.000000 3.112500
v 0.500000 1.791250 0.500000
v 3.187500 0.125000 -2.187500
v -2.187500 0.125000 -2.187500
v 0.500000 1.791250 0.500000
v 3.187500 0.125000 3.187500
v 3.187500 0.125000 -2.187500
v 0.500000 1.791250 0.500000
v -2.187500 0.125000 3.187500
v 3.187500 0.125000 3.187500
v 0.500000 1.791250 0.500000
v -2.187500 0.125000 -2.187500
v -2.187500 0.125000 3.187500
v 0.218750 1.866875 0.218750
v 0.218750 1.866875 0.781250
v 0.781250 1.866875 0.781250
v 0.781250 1.866875 0.218750
v 0.218750 1.554375 0.218750
v 0.218750 1.866875 0.218750
v 0.781250 1.866875 0.218750
v 0.781250 1.554375 0.218750
v 0.218750 1.554375 0.781250
v 0.781250 1.554375 0.781250
v 0.781250 1.866875 0.781250
v 0.218750 1.866875 0.781250
v 0.218750 1.554375 0.218750
v 0.218750 1.554375 0.781250
v 0.218750 1.866875 0.781250
v 0.218750 1.866875 0.218750
v 0.781250 1.554375 0.218750
v 0.781250 1.866875 0.218750
v 0.781250 1.866875 0.781250
v 0.781250 1.554375 0.781250
v 0.500000 2.116875 0.500000
v 0.875000 1.866875 0.125000
v 0.125000 1.866875 0.125000
v 0.500000 2.116875 0.500000
v 0.875000 1.866875 0.875000
v 0.875000 1.866875 0.125000
v 0.500000 2.116875 0.500000
v 0.125000 1.866875 0.875000
v 0.875000 1.866875 0.875000
v 0.500000 2.116875 0.500000
v 0.125000 1.866875 0.125000
v 0.125000 1.866875 0.875000
v 0.125000 1.866875 0.125000
v 0.875000 1.866875 0.125000
v 0.875000 1.866875 0.875000
v 0.125000 1.866875 0.875000
v 0.453125 2.304375 0.453125
v 0.453125 2.304375 0.546875
v 0.546875 2.304375 0.546875
v 0.546875 2.304375 0.453125
v 0.453125 2.054375 0.453125
v 0.453125 2.304375 0.453125
v 0.546875 2.304375 0.453125
v 0.546875 2.054375 0.453125
v 0.453125 2.054375 0.546875
v 0.546875 2.054375 0.546875
v 0.546875 2.304375 0.546875
v 0.453125 2.304375 0.546875
v 0.453125 2.054375 0.453125
v 0.453125 2.054375 0.546875
v 0.453125 2.304375 0.546875
v 0.453125 2.304375 0.453125
v 0.546875 2.054375 0.453125
v 0.546875 2.304375 0.453125
v 0.546875 2.304375 0.546875
v 0.546875 2.054375 0.546875
vt 0.020000 0.980000
vt 0.980000 0.980000
vt 0.980000 0.020000
vt 0.020000 0.020000
vt 0.020000 0.980000
vt 0.980000 0.980000
vt 0.980000 0.020000
vt 0.020000 0.020000
vt 0.020000 0.980000
vt 0.980000 0.980000
vt 0.980000 0.020000
vt 0.020000 0.020000
vt 0.020000 0.980000
vt 0.980000 0.980000
vt 0.980000 0.020000
vt 0.020000 0.020000
vt 0.020000 0.980000
vt 0.980000 0.980000
vt 0.980000 0.020000
vt 0.020000 0.020000
vt 0.020000 0.980000
vt 0.980000 0.980000
vt 0.980000 0.620000
vt 0.020000 0.620000
vt 0.020000 0.980000
vt 0.980000 0.980000
vt 0.980000 0.020000
vt 0.020000 0.020000
vt 0.020000 0.980000
vt 0.980000 0.980000
vt 0.980000 0.020000
vt 0.020000 0.020000
vt 0.020000 0.980000
vt 0.980000 0.980000
vt 0.980000 0.020000
vt 0.020000 0.020000
vt 0.020000 0.980000
vt 0.980000 0.980000
vt 0.980000 0.020000
vt 0.020000 0.020000
vt 0.020000 0.980000
vt 0.980000 0.980000
vt 0.980000 0.020000
vt 0.020000 0.020000
vt 0.020000 0.980000
vt 0.980000 0.980000
vt 0.980000 0.620000
vt 0.020000 0.620000
vt 0.020000 0.980000
vt 0.980000 0.980000
vt 0.980000 0.020000
vt 0.020000 0.020000
vt 0.020000 0.980000
vt 0.980000 0.980000
vt 0.980000 0.020000
vt 0.020000 0.020000
vt 0.020000 0.980000
vt 0.980000 0.980000
vt 0.980000 0.020000
vt 0.020000 0.020000
vt 0.020000 0.980000
vt 0.980000 0.980000
vt 0.980000 0.020000
vt 0.020000 0.020000
vt 0.020000 0.980000
vt 0.980000 0.980000
vt 0.980000 0.020000
vt 0.020000 0.020000
vt 0.020000 0.980000
vt 0.980000 0.980000
vt 0.980000 0.620000
vt 0.020000 0.620000
vt 0.020000 0.980000
vt 0.980000 0.980000
vt 0.980000 0.020000
vt 0.020000 0.020000
vt 0.020000 0.980000
vt 0.980000 0.980000
vt 0.980000 0.020000
vt 0.020000 0.020000
vt 0.020000 0.980000
vt 0.980000 0.980000
vt 0.980000 0.020000
vt 0.020000 0.020000
vt 0.020000 0.980000
vt 0.980000 0.980000
vt 0.980000 0.020000
vt 0.020000 0.020000
vt 0.020000 0.980000
vt 0.980000 0.980000
vt 0.980000 0.020000
vt 0.020000 0.020000
vt 0.020000 0.980000
vt 0.980000 0.980000
vt 0.980000 0.620000
vt 0.020000 0.620000
vt 0.020000 0.980000
vt 0.980000 0.980000
vt 0.980000 0.020000
vt 0.020000 0.020000
vt 0.020000 0.980000
vt 0.980000 0.980000
vt 0.980000 0.020000
vt 0.020000 0.020000
vt 0.020000 0.980000
vt 0.980000 0.980000
vt 0.980000 0.020000
vt 0.020000 0.020000
vt 0.020000 0.980000
vt 0.980000 0.980000
vt 0.980000 0.020000
vt 0.020000 0.020000
vt 0.020000 0.980000
vt 0.980000 0.980000
vt 0.980000 0.020000
vt 0.020000 0.020000
vt 0.020000 0.980000
vt 0.980000 0.980000
vt 0.980000 0.620000
vt 0.020000 0.620000
vt 0.020000 0.980000
vt 0.380000 0.980000
vt 0.380000 0.020000
vt 0.020000 0.020000
vt 0.020000 0.980000
vt 0.380000 0.980000
vt 0.380000 0.020000
vt 0.020000 0.020000
vt 0.020000 0.980000
vt 0.380000 0.980000
vt 0.380000 0.020000
vt 0.020000 0.020000
vt 0.020000 0.980000
vt 0.380000 0.980000
vt 0.380000 0.020000
vt 0.020000 0.020000
vt 0.020000 0.980000
vt 0.380000 0.980000
vt 0.380000 0.020000
vt 0.020000 0.020000
vt 0.020000 0.980000
vt 0.380000 0.980000
vt 0.380000 0.620000
vt 0.020000 0.620000
vt 0.020000 0.980000
vt 0.980000 0.980000
vt 0.980000 0.020000
vt 0.020000 0.020000
vt 0.020000 0.980000
vt 0.980000 0.980000
vt 0.980000 0.020000
vt 0.020000 0.020000
vt 0.020000 0.980000
vt 0.980000 0.980000
vt 0.980000 0.020000
vt 0.020000 0.020000
vt 0.020000 0.980000
vt 0.980000 0.980000
vt 0.980000 0.020000
vt 0.020000 0.020000
vt 0.020000 0.980000
vt 0.980000 0.980000
vt 0.980000 0.020000
vt 0.020000 0.020000
vt 0.020000 0.980000
vt 0.980000 0.980000
vt 0.980000 0.020000
vt 0.020000 0.020000
vt 0.020000 0.980000
vt 0.980000 0.980000
vt 0.980000 0.020000
vt 0.020000 0.020000
vt 0.020000 0.980000
vt 0.980000 0.980000
vt 0.980000 0.020000
vt 0.020000 0.020000
vt 0.020000 0.980000
vt 0.980000 0.980000
vt 0.980000 0.020000
vt 0.020000 0.020000
vt 0.020000 0.980000
vt 0.980000 0.980000
vt 0.980000 0.020000
vt 0.020000 0.020000
vt 0.020000 0.980000
vt 0.980000 0.980000
vt 0.980000 0.020000
vt 0.020000 0.020000
vt 0.020000 0.980000
vt 0.980000 0.980000
vt 0.980000 0.020000
vt 0.020000 0.020000
vt 0.020000 0.980000
vt 0.980000 0.980000
vt 0.980000 0.020000
vt 0.020000 0.020000
vt 0.020000 0.980000
vt 0.980000 0.980000
vt 0.980000 0.020000
vt 0.020000 0.020000
vt 0.020000 0.980000
vt 0.980000 0.980000
vt 0.980000 0.020000
vt 0.020000 0.020000
vt 0.020000 0.980000
vt 0.980000 0.980000
vt 0.980000 0.020000
vt 0.020000 0.020000
vt 0.500000 0.020000
vt 0.980000 0.980000
vt 0.020000 0.980000
vt 0.500000 0.020000
vt 0.980000 0.980000
vt 0.020000 0.980000
vt 0.500000 0.020000
vt 0.980000 0.980000
vt 0.020000 0.980000
vt 0.500000 0.020000
vt 0.980000 0.980000
vt 0.020000 0.980000
vt 0.020000 0.980000
vt 0.980000 0.980000
vt 0.980000 0.020000
vt 0.020000 0.020000
vt 0.020000 0.980000
vt 0.980000 0.980000
vt 0.980000 0.020000
vt 0.020000 0.020000
vt 0.020000 0.980000
vt 0.980000 0.980000
vt 0.980000 0.020000
vt 0.020000 0.020000
vt 0.020000 0.980000
vt 0.980000 0.980000
vt 0.980000 0.020000
vt 0.020000 0.020000
vt 0.020000 0.980000
vt 0.980000 0.980000
vt 0.980000 0.020000
vt 0.020000 0.020000
vt 0.500000 0.020000
vt 0.980000 0.980000
vt 0.020000 0.980000
vt 0.500000 0.020000
vt 0.980000 0.980000
vt 0.020000 0.980000
vt 0.500000 0.020000
vt 0.980000 0.980000
vt 0.020000 0.980000
vt 0.500000 0.020000
vt 0.980000 0.980000
vt 0.020000 0.980000
vt 0.020000 0.980000
vt 0.980000 0.980000
vt 0.980000 0.020000
vt 0.020000 0.020000
vt 0.020000 0.980000
vt 0.980000 0.980000
vt 0.980000 0.020000
vt 0.020000 0.020000
vt 0.020000 0.980000
vt 0.980000 0.980000
vt 0.980000 0.020000
vt 0.020000 0.020000
vt 0.020000 0.980000
vt 0.980000 0.980000
vt 0.980000 0.020000
vt 0.020000 0.020000
vt 0.020000 0.980000
vt 0.980000 0.980000
vt 0.980000 0.020000
vt 0.020000 0.020000
vt 0.020000 0.980000
vt 0.980000 0.980000
vt 0.980000 0.020000
vt 0.020000 0.020000
vn 0.000000 -1.000000 0.000000
vn 0.000000 -1.000000 0.000000
vn 0.000000 -1.000000 0.000000
vn 0.000000 -1.000000 0.000000
vn 0.000000 -1.000000 0.000000
vn 0.000000 -1.000000 0.000000
vn 0.000000 -1.000000 0.000000
vn 0.000000 -1.000000 0.000000
vn 0.000000 -1.000000 0.000000
vn 0.000000 -1.000000 0.000000
vn 0.000000 -1.000000 0.000000
vn 0.000000 -1.000000 0.000000
vn 0.000000 -1.000000 0.000000
vn 0.000000 -1.000000 0.000000
vn 0.000000 -1.000000 0.000000
vn 0.000000 -1.000000 0.000000
vn 0.000000 -1.000000 0.000000
vn 0.000000 -1.000000 0.000000
vn 0.000000 -1.000000 0.000000
vn 0.000000 -1.000000 0.000000
vn 0.000000 -1.000000 0.000000
vn 0.000000 -1.000000 0.000000
vn 0.000000 -1.000000 0.000000
vn 0.000000 -1.000000 0.000000
vn 0.000000 -1.000000 0.000000
vn 0.000000 -1.000000 0.000000
vn 0.000000 -1.000000 0.000000
vn 0.000000 -1.000000 0.000000
vn 0.000000 -1.000000 0.000000
vn 0.000000 -1.000000 0.000000
vn 0.000000 -1.000000 0.000000
vn 0.000000 -1.000000 0.000000
vn 0.000000 -1.000000 0.000000
vn 0.000000 -1.000000 0.000000
vn 0.000000 -1.000000 0.000000
vn 0.000000 -1.000000 0.000000
vn 0.000000 -1.000000 0.000000
vn 0.000000 0.000000 -1.000000
vn 0.000000 0.000000 1.000000
vn -1.000000 0.000000 0.000000
vn 1.000000 0.000000 0.000000
vn 0.000000 -1.000000 0.000000
vn 0.000000 0.000000 -1.000000
vn 0.000000 0.000000 1.000000
vn -1.000000 0.000000 0.000000
vn 1.000000 0.000000 0.000000
vn 0.000000 -1.000000 0.000000
vn -1.000000 0.000000 0.000000
vn 1.000000 0.000000 0.000000
vn 0.000000 -1.000000 0.000000
vn -1.000000 0.000000 0.000000
vn 1.000000 0.000000 0.000000
vn 0.000000 0.849903 -0.526940
vn 0.526940 0.849903 0.000000
vn 0.000000 0.849903 0.526940
vn -0.526940 0.849903 0.000000
vn 0.000000 1.000000 0.000000
vn 0.000000 0.000000 -1.000000
vn 0.000000 0.000000 1.000000
vn -1.000000 0.000000 0.000000
vn 1.000000 0.000000 0.000000
vn 0.000000 0.832050 -0.554700
vn 0.554700 0.832050 0.000000
vn 0.000000 0.832050 0.554700
vn -0.554700 0.832050 0.000000
vn 0.000000 -1.000000 0.000000
vn 0.000000 1.000000 0.000000
vn 0.000000 0.000000 -1.000000
vn 0.000000 0.000000 1.000000
vn -1.000000 0.000000 0.000000
vn 1.000000 0.000000 0.000000
usemtl ceiling
f 1/1/1 2/2/1 3/3/1 4/4/1
f 5/5/2 6/6/2 7/7/2 8/8/2
f 9/9/3 10/10/3 11/11/3 12/12/3
f 13/13/4 14/14/4 15/15/4 16/16/4
f 17/17/5 18/18/5 19/19/5 20/20/5
f 21/21/6 22/22/6 23/23/6 24/24/6
f 25/25/7 26/26/7 27/27/7 28/28/7
f 29/29/8 30/30/8 31/31/8 32/32/8
f 33/33/9 34/34/9 35/35/9 36/36/9
f 37/37/10 38/38/10 39/39/10 40/40/10
f 41/41/11 42/42/11 43/43/11 44/44/11
f 45/45/12 46/46/12 47/47/12 48/48/12
f 49/49/13 50/50/13 51/51/13 52/52/13
f 53/53/14 54/54/14 55/55/14 56/56/14
f 57/57/15 58/58/15 59/59/15 60/60/15
f 61/61/16 62/62/16 63/63/16 64/64/16
f 65/65/17 66/66/17 67/67/17 68/68/17
f 69/69/18 70/70/18 71/71/18 72/72/18
f 73/73/19 74/74/19 75/75/19 76/76/19
f 77/77/20 78/78/20 79/79/20 80/80/20
f 81/81/21 82/82/21 83/83/21 84/84/21
f 85/85/22 86/86/22 87/87/22 88/88/22
f 89/89/23 90/90/23 91/91/23 92/92/23
f 93/93/24 94/94/24 95/95/24 96/96/24
f 97/97/25 98/98/25 99/99/25 100/100/25
f 101/101/26 102/102/26 103/103/26 104/104/26
f 105/105/27 106/106/27 107/107/27 108/108/27
f 109/109/28 110/110/28 111/111/28 112/112/28
f 113/113/29 114/114/29 115/115/29 116/116/29
f 117/117/30 118/118/30 119/119/30 120/120/30
f 121/121/31 122/122/31 123/123/31 124/124/31
f 125/125/32 126/126/32 127/127/32 128/128/32
f 129/129/33 130/130/33 131/131/33 132/132/33
f 133/133/34 134/134/34 135/135/34 136/136/34
f 137/137/35 138/138/35 139/139/35 140/140/35
f 141/141/36 142/142/36 143/143/36 144/144/36
f 253/253/66 254/254/66 255/255/66 256/256/66
usemtl shingle
f 209/209/53 210/210/53 211/211/53
f 212/212/54 213/213/54 214/214/54
f 215/215/55 216/216/55 217/217/55
f 218/218/56 219/219/56 220/220/56
f 241/241/62 242/242/62 243/243/62
f 244/244/63 245/245/63 246/246/63
f 247/247/64 248/248/64 249/249/64
f 250/250/65 251/251/65 252/252/65
usemtl trim
f 145/145/37 146/146/37 147/147/37 148/148/37
f 149/149/38 150/150/38 151/151/38 152/152/38
f 153/153/39 154/154/39 155/155/39 156/156/39
f 157/157/40 158/158/40 159/159/40 160/160/40
f 161/161/41 162/162/41 163/163/41 164/164/41
f 165/165/42 166/166/42 167/167/42 168/168/42
f 169/169/43 170/170/43 171/171/43 172/172/43
f 173/173/44 174/174/44 175/175/44 176/176/44
f 177/177/45 178/178/45 179/179/45 180/180/45
f 181/181/46 182/182/46 183/183/46 184/184/46
f 185/185/47 186/186/47 187/187/47 188/188/47
f 189/189/48 190/190/48 191/191/48 192/192/48
f 193/193/49 194/194/49 195/195/49 196/196/49
f 197/197/50 198/198/50 199/199/50 200/200/50
f 201/201/51 202/202/51 203/203/51 204/204/51
f 205/205/52 206/206/52 207/207/52 208/208/52
f 221/221/57 222/222/57 223/223/57 224/224/57
f 225/225/58 226/226/58 227/227/58 228/228/58
f 229/229/59 230/230/59 231/231/59 232/232/59
f 233/233/60 234/234/60 235/235/60 236/236/60
f 237/237/61 238/238/61 239/239/61 240/240/61
f 257/257/67 258/258/67 259/259/67 260/260/67
f 261/261/68 262/262/68 263/263/68 264/264/68
f 265/265/69 266/266/69 267/267/69 268/268/69
f 269/269/70 270/270/70 271/271/70 272/272/70
f 273/273/71 274/274/71 275/275/71 276/276/71
