# Procedurally generated by dev-env-utils/scripts/gen_park_legacy_amenities.py -- do not hand edit
mtllib swing_sets.mtl
o swing_tyre_set
v 0.000000 2.643750 0.437500
v -0.875000 2.643750 0.437500
v -0.875000 2.768750 0.437500
v 0.000000 2.768750 0.437500
v -0.875000 2.643750 0.562500
v 0.000000 2.643750 0.562500
v 0.000000 2.768750 0.562500
v -0.875000 2.768750 0.562500
v 1.000000 2.643750 0.437500
v 1.000000 2.768750 0.437500
v 1.000000 2.643750 0.562500
v 1.000000 2.768750 0.562500
v 1.875000 2.643750 0.437500
v 1.875000 2.768750 0.437500
v 1.875000 2.643750 0.562500
v 1.875000 2.768750 0.562500
v -0.781250 0.017961 -0.651319
v -0.875000 0.017961 -0.651319
v -0.875000 0.221561 -0.566985
v -0.781250 0.221561 -0.566985
v -0.875000 -0.017916 -0.564705
v -0.781250 -0.017916 -0.564705
v -0.781250 0.185684 -0.480371
v -0.875000 0.185684 -0.480371
v -0.875000 1.145440 -0.184302
v -0.781250 1.145440 -0.184302
v -0.781250 1.109563 -0.097688
v -0.875000 1.109563 -0.097688
v -0.875000 2.069320 0.198382
v -0.781250 2.069320 0.198382
v -0.781250 2.033443 0.284996
v -0.875000 2.033443 0.284996
v -0.875000 2.548582 0.396899
v -0.781250 2.548582 0.396899
v -0.781250 2.512706 0.483513
v -0.875000 2.512706 0.483513
v -0.781250 -0.017916 1.564705
v -0.875000 -0.017916 1.564705
v -0.875000 0.185684 1.480371
v -0.781250 0.185684 1.480371
v -0.875000 0.017961 1.651319
v -0.781250 0.017961 1.651319
v -0.781250 0.221561 1.566985
v -0.875000 0.221561 1.566985
v -0.875000 1.109563 1.097688
v -0.781250 1.109563 1.097688
v -0.781250 1.145440 1.184302
v -0.875000 1.145440 1.184302
v -0.875000 2.033443 0.715004
v -0.781250 2.033443 0.715004
v -0.781250 2.069320 0.801618
v -0.875000 2.069320 0.801618
v -0.875000 2.512706 0.516487
v -0.781250 2.512706 0.516487
v -0.781250 2.548582 0.603101
v -0.875000 2.548582 0.603101
v -0.796875 1.031250 -0.130438
v -0.859375 1.031250 -0.130438
v -0.859375 1.093750 -0.130438
v -0.796875 1.093750 -0.130438
v -0.796875 1.031250 0.000000
v -0.796875 1.093750 0.000000
v -0.859375 1.031250 0.000000
v -0.859375 1.093750 0.000000
v -0.796875 1.031250 1.000000
v -0.796875 1.093750 1.000000
v -0.859375 1.031250 1.000000
v -0.859375 1.093750 1.000000
v -0.859375 1.031250 1.130437
v -0.796875 1.031250 1.130437
v -0.796875 1.093750 1.130437
v -0.859375 1.093750 1.130437
v -0.765625 2.456250 0.346125
v -0.890625 2.456250 0.346125
v -0.890625 2.784375 0.346125
v -0.765625 2.784375 0.346125
v -0.890625 2.456250 0.653875
v -0.765625 2.456250 0.653875
v -0.765625 2.784375 0.653875
v -0.890625 2.784375 0.653875
v 1.875000 0.017961 -0.651319
v 1.781250 0.017961 -0.651319
v 1.781250 0.221561 -0.566985
v 1.875000 0.221561 -0.566985
v 1.781250 -0.017916 -0.564705
v 1.875000 -0.017916 -0.564705
v 1.875000 0.185684 -0.480371
v 1.781250 0.185684 -0.480371
v 1.781250 1.145440 -0.184302
v 1.875000 1.145440 -0.184302
v 1.875000 1.109563 -0.097688
v 1.781250 1.109563 -0.097688
v 1.781250 2.069320 0.198382
v 1.875000 2.069320 0.198382
v 1.875000 2.033443 0.284996
v 1.781250 2.033443 0.284996
v 1.781250 2.548582 0.396899
v 1.875000 2.548582 0.396899
v 1.875000 2.512706 0.483513
v 1.781250 2.512706 0.483513
v 1.875000 -0.017916 1.564705
v 1.781250 -0.017916 1.564705
v 1.781250 0.185684 1.480371
v 1.875000 0.185684 1.480371
v 1.781250 0.017961 1.651319
v 1.875000 0.017961 1.651319
v 1.875000 0.221561 1.566985
v 1.781250 0.221561 1.566985
v 1.781250 1.109563 1.097688
v 1.875000 1.109563 1.097688
v 1.875000 1.145440 1.184302
v 1.781250 1.145440 1.184302
v 1.781250 2.033443 0.715004
v 1.875000 2.033443 0.715004
v 1.875000 2.069320 0.801618
v 1.781250 2.069320 0.801618
v 1.781250 2.512706 0.516487
v 1.875000 2.512706 0.516487
v 1.875000 2.548582 0.603101
v 1.781250 2.548582 0.603101
v 1.859375 1.031250 -0.130438
v 1.796875 1.031250 -0.130438
v 1.796875 1.093750 -0.130438
v 1.859375 1.093750 -0.130438
v 1.859375 1.031250 0.000000
v 1.859375 1.093750 0.000000
v 1.796875 1.031250 0.000000
v 1.796875 1.093750 0.000000
v 1.859375 1.031250 1.000000
v 1.859375 1.093750 1.000000
v 1.796875 1.031250 1.000000
v 1.796875 1.093750 1.000000
v 1.796875 1.031250 1.130437
v 1.859375 1.031250 1.130437
v 1.859375 1.093750 1.130437
v 1.796875 1.093750 1.130437
v 1.890625 2.456250 0.346125
v 1.765625 2.456250 0.346125
v 1.765625 2.784375 0.346125
v 1.890625 2.784375 0.346125
v 1.765625 2.456250 0.653875
v 1.890625 2.456250 0.653875
v 1.890625 2.784375 0.653875
v 1.765625 2.784375 0.653875
v 0.906250 0.593750 0.668275
v 0.668275 0.593750 0.906250
v 0.668275 0.375000 0.906250
v 0.906250 0.375000 0.668275
v 0.718750 0.375000 0.590606
v 0.590606 0.375000 0.718750
v 0.590606 0.593750 0.718750
v 0.718750 0.593750 0.590606
v 0.331725 0.593750 0.906250
v 0.331725 0.375000 0.906250
v 0.409394 0.375000 0.718750
v 0.409394 0.593750 0.718750
v 0.093750 0.593750 0.668275
v 0.093750 0.375000 0.668275
v 0.281250 0.375000 0.590606
v 0.281250 0.593750 0.590606
v 0.093750 0.593750 0.331725
v 0.093750 0.375000 0.331725
v 0.281250 0.375000 0.409394
v 0.281250 0.593750 0.409394
v 0.331725 0.593750 0.093750
v 0.331725 0.375000 0.093750
v 0.409394 0.375000 0.281250
v 0.409394 0.593750 0.281250
v 0.668275 0.593750 0.093750
v 0.668275 0.375000 0.093750
v 0.590606 0.375000 0.281250
v 0.590606 0.593750 0.281250
v 0.906250 0.593750 0.331725
v 0.906250 0.375000 0.331725
v 0.718750 0.375000 0.409394
v 0.718750 0.593750 0.409394
v 0.512500 0.596770 0.175369
v 0.487500 0.596770 0.175369
v 0.487500 1.028187 0.282933
v 0.512500 1.028187 0.282933
v 0.487500 0.590721 0.199626
v 0.512500 0.590721 0.199626
v 0.512500 1.022139 0.307191
v 0.487500 1.022139 0.307191
v 0.487500 1.740991 0.460655
v 0.512500 1.740991 0.460655
v 0.512500 1.734943 0.484912
v 0.487500 1.734943 0.484912
v 0.512500 0.590721 0.800374
v 0.487500 0.590721 0.800374
v 0.487500 1.022139 0.692809
v 0.512500 1.022139 0.692809
v 0.487500 0.596770 0.824631
v 0.512500 0.596770 0.824631
v 0.512500 1.028187 0.717067
v 0.487500 1.028187 0.717067
v 0.487500 1.734943 0.515088
v 0.512500 1.734943 0.515088
v 0.512500 1.740991 0.539345
v 0.487500 1.740991 0.539345
v 0.824631 0.596770 0.487500
v 0.800374 0.590721 0.487500
v 0.692809 1.022139 0.487500
v 0.717067 1.028187 0.487500
v 0.800374 0.590721 0.512500
v 0.824631 0.596770 0.512500
v 0.717067 1.028187 0.512500
v 0.692809 1.022139 0.512500
v 0.515088 1.734943 0.487500
v 0.539345 1.740991 0.487500
v 0.539345 1.740991 0.512500
v 0.515088 1.734943 0.512500
v 0.199626 0.590721 0.487500
v 0.175369 0.596770 0.487500
v 0.282933 1.028187 0.487500
v 0.307191 1.022139 0.487500
v 0.175369 0.596770 0.512500
v 0.199626 0.590721 0.512500
v 0.307191 1.022139 0.512500
v 0.282933 1.028187 0.512500
v 0.460655 1.740991 0.487500
v 0.484912 1.734943 0.487500
v 0.484912 1.734943 0.512500
v 0.460655 1.740991 0.512500
v 0.568750 1.722125 0.431250
v 0.431250 1.722125 0.431250
v 0.431250 1.894000 0.431250
v 0.568750 1.894000 0.431250
v 0.431250 1.722125 0.568750
v 0.568750 1.722125 0.568750
v 0.568750 1.894000 0.568750
v 0.431250 1.894000 0.568750
v 0.512500 1.894000 0.487500
v 0.487500 1.894000 0.487500
v 0.487500 2.000000 0.487500
v 0.512500 2.000000 0.487500
v 0.487500 1.894000 0.512500
v 0.512500 1.894000 0.512500
v 0.512500 2.000000 0.512500
v 0.487500 2.000000 0.512500
v 0.487500 2.518750 0.487500
v 0.512500 2.518750 0.487500
v 0.512500 2.518750 0.512500
v 0.487500 2.518750 0.512500
v 0.556250 2.518750 0.443750
v 0.443750 2.518750 0.443750
v 0.443750 2.643750 0.443750
v 0.556250 2.643750 0.443750
v 0.443750 2.518750 0.556250
v 0.556250 2.518750 0.556250
v 0.556250 2.643750 0.556250
v 0.443750 2.643750 0.556250
vt 0.010000 0.640875
vt 0.867500 0.640875
vt 0.867500 0.763375
vt 0.010000 0.763375
vt 0.132500 0.640875
vt 0.990000 0.640875
vt 0.990000 0.763375
vt 0.132500 0.763375
vt 0.132500 0.438750
vt 0.990000 0.438750
vt 0.990000 0.561250
vt 0.132500 0.561250
vt 0.010000 0.438750
vt 0.010000 0.561250
vt 0.867500 0.438750
vt 0.867500 0.561250
vt 0.775625 0.774033
vt 0.867500 0.774033
vt 0.867500 0.990000
vt 0.775625 0.990000
vt 0.132500 0.774033
vt 0.224375 0.774033
vt 0.224375 0.990000
vt 0.132500 0.990000
vt 0.454062 0.774033
vt 0.545937 0.774033
vt 0.545937 0.990000
vt 0.454062 0.990000
vt 0.132500 0.454063
vt 0.224375 0.454063
vt 0.224375 0.545937
vt 0.132500 0.545937
vt 0.775625 0.010000
vt 0.867500 0.010000
vt 0.132500 0.010000
vt 0.224375 0.010000
vt 0.454062 0.010000
vt 0.545937 0.010000
vt 0.867500 0.518375
vt 0.775625 0.518375
vt 0.224375 0.518375
vt 0.132500 0.518375
vt 0.545937 0.518375
vt 0.454062 0.518375
vt 0.790937 0.040625
vt 0.852187 0.040625
vt 0.852187 0.101875
vt 0.790937 0.101875
vt 0.010000 0.040625
vt 0.137829 0.040625
vt 0.137829 0.101875
vt 0.010000 0.101875
vt 0.862171 0.040625
vt 0.990000 0.040625
vt 0.990000 0.101875
vt 0.862171 0.101875
vt 0.147813 0.010000
vt 0.209063 0.010000
vt 0.209063 0.137829
vt 0.147813 0.137829
vt 0.147813 0.862171
vt 0.209063 0.862171
vt 0.209063 0.990000
vt 0.147813 0.990000
vt 0.147813 0.040625
vt 0.209063 0.040625
vt 0.209063 0.101875
vt 0.147813 0.101875
vt 0.760312 0.457125
vt 0.882812 0.457125
vt 0.882812 0.778687
vt 0.760312 0.778687
vt 0.117187 0.457125
vt 0.239687 0.457125
vt 0.239687 0.778687
vt 0.117187 0.778687
vt 0.349203 0.457125
vt 0.650798 0.457125
vt 0.650798 0.778687
vt 0.349203 0.778687
vt 0.117187 0.349202
vt 0.239687 0.349202
vt 0.239687 0.650797
vt 0.117187 0.650797
vt 0.775625 0.454063
vt 0.867500 0.454063
vt 0.867500 0.545937
vt 0.775625 0.545937
vt 0.790937 0.010000
vt 0.852187 0.010000
vt 0.852187 0.137829
vt 0.790937 0.137829
vt 0.790937 0.862171
vt 0.852187 0.862171
vt 0.852187 0.990000
vt 0.790937 0.990000
vt 0.760312 0.349202
vt 0.882812 0.349202
vt 0.882812 0.650797
vt 0.760312 0.650797
vt 0.010000 0.591875
vt 0.339819 0.591875
vt 0.339819 0.377500
vt 0.010000 0.377500
vt 0.187594 0.377500
vt 0.187594 0.591875
vt 0.714375 0.411206
vt 0.588794 0.285625
vt 0.664909 0.101875
vt 0.898125 0.335091
vt 0.411206 0.285625
vt 0.335091 0.101875
vt 0.285625 0.411206
vt 0.101875 0.335091
vt 0.285625 0.588794
vt 0.101875 0.664910
vt 0.411206 0.714375
vt 0.335091 0.898125
vt 0.588794 0.714375
vt 0.664909 0.898125
vt 0.714375 0.588794
vt 0.898125 0.664910
vt 0.487750 0.554268
vt 0.512250 0.554268
vt 0.512250 0.990000
vt 0.487750 0.990000
vt 0.487750 0.010000
vt 0.512250 0.010000
vt 0.512250 0.729932
vt 0.487750 0.729932
vt 0.432625 0.717683
vt 0.567375 0.717683
vt 0.567375 0.886120
vt 0.432625 0.886120
vt 0.432625 0.432625
vt 0.567375 0.432625
vt 0.567375 0.567375
vt 0.432625 0.567375
vt 0.487750 0.886120
vt 0.512250 0.886120
vt 0.512250 0.518375
vt 0.487750 0.518375
vt 0.444875 0.518375
vt 0.555125 0.518375
vt 0.555125 0.640875
vt 0.444875 0.640875
vt 0.444875 0.444875
vt 0.555125 0.444875
vt 0.555125 0.555125
vt 0.444875 0.555125
vn 0.000000 0.000000 -1.000000
vn 0.000000 0.000000 1.000000
vn 0.000000 1.000000 0.000000
vn 0.000000 -1.000000 0.000000
vn 0.000000 0.382683 -0.923880
vn 0.000000 -0.382683 0.923880
vn 1.000000 0.000000 0.000000
vn -1.000000 0.000000 0.000000
vn 0.000000 -0.923880 -0.382683
vn 0.000000 -0.382683 -0.923880
vn 0.000000 0.382683 0.923880
vn 0.000000 -0.923880 0.382683
vn 0.707107 0.000000 0.707107
vn -0.707107 0.000000 -0.707107
vn -0.707107 0.000000 0.707107
vn 0.707107 0.000000 -0.707107
vn 0.000000 0.241922 -0.970296
vn 0.000000 -0.241922 0.970296
vn 0.000000 -0.241922 -0.970296
vn 0.000000 0.241922 0.970296
vn 0.970296 0.241922 0.000000
vn -0.970296 -0.241922 0.000000
vn 0.970296 -0.241922 0.000000
vn -0.970296 0.241922 0.000000
usemtl cap
f 73/69/1 74/70/1 75/71/1 76/72/1
f 77/73/2 78/74/2 79/75/2 80/76/2
f 78/77/7 73/78/7 76/79/7 79/80/7
f 74/77/8 77/78/8 80/79/8 75/80/8
f 80/81/3 79/82/3 76/83/3 75/84/3
f 74/81/4 73/82/4 78/83/4 77/84/4
f 137/73/1 138/74/1 139/75/1 140/76/1
f 141/69/2 142/70/2 143/71/2 144/72/2
f 142/77/7 137/78/7 140/79/7 143/80/7
f 138/77/8 141/78/8 144/79/8 139/80/8
f 144/97/3 143/98/3 140/99/3 139/100/3
f 138/97/4 137/98/4 142/99/4 141/100/4
usemtl chain
f 177/123/17 178/124/17 179/125/17 180/126/17
f 181/123/18 182/124/18 183/125/18 184/126/18
f 182/123/7 177/124/7 180/125/7 183/126/7
f 178/123/8 181/124/8 184/125/8 179/126/8
f 180/127/17 179/128/17 185/129/17 186/130/17
f 184/127/18 183/128/18 187/129/18 188/130/18
f 183/127/7 180/128/7 186/129/7 187/130/7
f 179/127/8 184/128/8 188/129/8 185/130/8
f 189/123/19 190/124/19 191/125/19 192/126/19
f 193/123/20 194/124/20 195/125/20 196/126/20
f 194/123/7 189/124/7 192/125/7 195/126/7
f 190/123/8 193/124/8 196/125/8 191/126/8
f 192/127/19 191/128/19 197/129/19 198/130/19
f 196/127/20 195/128/20 199/129/20 200/130/20
f 195/127/7 192/128/7 198/129/7 199/130/7
f 191/127/8 196/128/8 200/129/8 197/130/8
f 201/123/1 202/124/1 203/125/1 204/126/1
f 205/123/2 206/124/2 207/125/2 208/126/2
f 206/123/21 201/124/21 204/125/21 207/126/21
f 202/123/22 205/124/22 208/125/22 203/126/22
f 204/127/1 203/128/1 209/129/1 210/130/1
f 208/127/2 207/128/2 211/129/2 212/130/2
f 207/127/21 204/128/21 210/129/21 211/130/21
f 203/127/22 208/128/22 212/129/22 209/130/22
f 213/123/1 214/124/1 215/125/1 216/126/1
f 217/123/2 218/124/2 219/125/2 220/126/2
f 218/123/23 213/124/23 216/125/23 219/126/23
f 214/123/24 217/124/24 220/125/24 215/126/24
f 216/127/1 215/128/1 221/129/1 222/130/1
f 220/127/2 219/128/2 223/129/2 224/130/2
f 219/127/23 216/128/23 222/129/23 223/130/23
f 215/127/24 220/128/24 224/129/24 221/130/24
f 233/139/1 234/140/1 235/125/1 236/126/1
f 237/139/2 238/140/2 239/125/2 240/126/2
f 238/139/7 233/140/7 236/125/7 239/126/7
f 234/139/8 237/140/8 240/125/8 235/126/8
f 236/127/1 235/128/1 241/141/1 242/142/1
f 240/127/2 239/128/2 243/141/2 244/142/2
f 239/127/7 236/128/7 242/141/7 243/142/7
f 235/127/8 240/128/8 244/141/8 241/142/8
usemtl clamp
f 225/131/1 226/132/1 227/133/1 228/134/1
f 229/131/2 230/132/2 231/133/2 232/134/2
f 230/131/7 225/132/7 228/133/7 231/134/7
f 226/131/8 229/132/8 232/133/8 227/134/8
f 232/135/3 231/136/3 228/137/3 227/138/3
f 226/135/4 225/136/4 230/137/4 229/138/4
f 245/143/1 246/144/1 247/145/1 248/146/1
f 249/143/2 250/144/2 251/145/2 252/146/2
f 250/143/7 245/144/7 248/145/7 251/146/7
f 246/143/8 249/144/8 252/145/8 247/146/8
f 252/147/3 251/148/3 248/149/3 247/150/3
f 246/147/4 245/148/4 250/149/4 249/150/4
usemtl frame
f 1/1/1 2/2/1 3/3/1 4/4/1
f 5/5/2 6/6/2 7/7/2 8/8/2
f 8/9/3 7/10/3 4/11/3 3/12/3
f 2/9/4 1/10/4 6/11/4 5/12/4
f 9/1/1 1/6/1 4/7/1 10/4/1
f 6/1/2 11/6/2 12/7/2 7/4/2
f 7/13/3 12/10/3 10/11/3 4/14/3
f 1/13/4 9/10/4 11/11/4 6/14/4
f 13/5/1 9/6/1 10/7/1 14/8/1
f 11/1/2 15/2/2 16/3/2 12/4/2
f 12/13/3 16/15/3 14/16/3 10/14/3
f 9/13/4 13/15/4 15/16/4 11/14/4
f 17/17/5 18/18/5 19/19/5 20/20/5
f 21/21/6 22/22/6 23/23/6 24/24/6
f 22/25/7 17/26/7 20/27/7 23/28/7
f 18/25/8 21/26/8 24/27/8 19/28/8
f 18/29/9 17/30/9 22/31/9 21/32/9
f 20/33/5 19/34/5 25/19/5 26/20/5
f 24/35/6 23/36/6 27/23/6 28/24/6
f 23/37/7 20/38/7 26/27/7 27/28/7
f 19/37/8 24/38/8 28/27/8 25/28/8
f 26/33/5 25/34/5 29/19/5 30/20/5
f 28/35/6 27/36/6 31/23/6 32/24/6
f 27/37/7 26/38/7 30/27/7 31/28/7
f 25/37/8 28/38/8 32/27/8 29/28/8
f 30/33/5 29/34/5 33/39/5 34/40/5
f 32/35/6 31/36/6 35/41/6 36/42/6
f 31/37/7 30/38/7 34/43/7 35/44/7
f 29/37/8 32/38/8 36/43/8 33/44/8
f 37/17/10 38/18/10 39/19/10 40/20/10
f 41/21/11 42/22/11 43/23/11 44/24/11
f 42/25/7 37/26/7 40/27/7 43/28/7
f 38/25/8 41/26/8 44/27/8 39/28/8
f 38/29/12 37/30/12 42/31/12 41/32/12
f 40/33/10 39/34/10 45/19/10 46/20/10
f 44/35/11 43/36/11 47/23/11 48/24/11
f 43/37/7 40/38/7 46/27/7 47/28/7
f 39/37/8 44/38/8 48/27/8 45/28/8
f 46/33/10 45/34/10 49/19/10 50/20/10
f 48/35/11 47/36/11 51/23/11 52/24/11
f 47/37/7 46/38/7 50/27/7 51/28/7
f 45/37/8 48/38/8 52/27/8 49/28/8
f 50/33/10 49/34/10 53/39/10 54/40/10
f 52/35/11 51/36/11 55/41/11 56/42/11
f 51/37/7 50/38/7 54/43/7 55/44/7
f 49/37/8 52/38/8 56/43/8 53/44/8
f 57/45/1 58/46/1 59/47/1 60/48/1
f 61/49/7 57/50/7 60/51/7 62/52/7
f 58/53/8 63/54/8 64/55/8 59/56/8
f 64/57/3 62/58/3 60/59/3 59/60/3
f 58/61/4 57/62/4 61/63/4 63/64/4
f 65/49/7 61/54/7 62/55/7 66/52/7
f 63/49/8 67/54/8 68/55/8 64/52/8
f 68/57/3 66/58/3 62/63/3 64/64/3
f 63/57/4 61/58/4 65/63/4 67/64/4
f 69/65/2 70/66/2 71/67/2 72/68/2
f 70/53/7 65/54/7 66/55/7 71/56/7
f 67/49/8 69/50/8 72/51/8 68/52/8
f 72/61/3 71/62/3 66/63/3 68/64/3
f 67/57/4 65/58/4 70/59/4 69/60/4
f 81/21/5 82/22/5 83/23/5 84/24/5
f 85/17/6 86/18/6 87/19/6 88/20/6
f 86/25/7 81/26/7 84/27/7 87/28/7
f 82/25/8 85/26/8 88/27/8 83/28/8
f 82/85/9 81/86/9 86/87/9 85/88/9
f 84/35/5 83/36/5 89/23/5 90/24/5
f 88/33/6 87/34/6 91/19/6 92/20/6
f 87/37/7 84/38/7 90/27/7 91/28/7
f 83/37/8 88/38/8 92/27/8 89/28/8
f 90/35/5 89/36/5 93/23/5 94/24/5
f 92/33/6 91/34/6 95/19/6 96/20/6
f 91/37/7 90/38/7 94/27/7 95/28/7
f 89/37/8 92/38/8 96/27/8 93/28/8
f 94/35/5 93/36/5 97/41/5 98/42/5
f 96/33/6 95/34/6 99/39/6 100/40/6
f 95/37/7 94/38/7 98/43/7 99/44/7
f 93/37/8 96/38/8 100/43/8 97/44/8
f 101/21/10 102/22/10 103/23/10 104/24/10
f 105/17/11 106/18/11 107/19/11 108/20/11
f 106/25/7 101/26/7 104/27/7 107/28/7
f 102/25/8 105/26/8 108/27/8 103/28/8
f 102/85/12 101/86/12 106/87/12 105/88/12
f 104/35/10 103/36/10 109/23/10 110/24/10
f 108/33/11 107/34/11 111/19/11 112/20/11
f 107/37/7 104/38/7 110/27/7 111/28/7
f 103/37/8 108/38/8 112/27/8 109/28/8
f 110/35/10 109/36/10 113/23/10 114/24/10
f 112/33/11 111/34/11 115/19/11 116/20/11
f 111/37/7 110/38/7 114/27/7 115/28/7
f 109/37/8 112/38/8 116/27/8 113/28/8
f 114/35/10 113/36/10 117/41/10 118/42/10
f 116/33/11 115/34/11 119/39/11 120/40/11
f 115/37/7 114/38/7 118/43/7 119/44/7
f 113/37/8 116/38/8 120/43/8 117/44/8
f 121/65/1 122/66/1 123/67/1 124/68/1
f 125/49/7 121/50/7 124/51/7 126/52/7
f 122/53/8 127/54/8 128/55/8 123/56/8
f 128/89/3 126/90/3 124/91/3 123/92/3
f 122/93/4 121/94/4 125/95/4 127/96/4
f 129/49/7 125/54/7 126/55/7 130/52/7
f 127/49/8 131/54/8 132/55/8 128/52/8
f 132/89/3 130/90/3 126/95/3 128/96/3
f 127/89/4 125/90/4 129/95/4 131/96/4
f 133/45/2 134/46/2 135/47/2 136/48/2
f 134/53/7 129/54/7 130/55/7 135/56/7
f 131/49/8 133/50/8 136/51/8 132/52/8
f 136/93/3 135/94/3 130/95/3 132/96/3
f 131/89/4 129/90/4 134/91/4 133/92/4
usemtl tyre
f 145/101/13 146/102/13 147/103/13 148/104/13
f 149/104/14 150/105/14 151/106/14 152/101/14
f 152/107/3 151/108/3 146/109/3 145/110/3
f 148/110/4 147/109/4 150/108/4 149/107/4
f 146/101/2 153/102/2 154/103/2 147/104/2
f 150/104/1 155/105/1 156/106/1 151/101/1
f 151/108/3 156/111/3 153/112/3 146/109/3
f 147/109/4 154/112/4 155/111/4 150/108/4
f 153/101/15 157/102/15 158/103/15 154/104/15
f 155/104/16 159/105/16 160/106/16 156/101/16
f 156/111/3 160/113/3 157/114/3 153/112/3
f 154/112/4 158/114/4 159/113/4 155/111/4
f 157/101/8 161/102/8 162/103/8 158/104/8
f 159/104/7 163/105/7 164/106/7 160/101/7
f 160/113/3 164/115/3 161/116/3 157/114/3
f 158/114/4 162/116/4 163/115/4 159/113/4
f 161/101/14 165/102/14 166/103/14 162/104/14
f 163/104/13 167/105/13 168/106/13 164/101/13
f 164/115/3 168/117/3 165/118/3 161/116/3
f 162/116/4 166/118/4 167/117/4 163/115/4
f 165/101/1 169/102/1 170/103/1 166/104/1
f 167/104/2 171/105/2 172/106/2 168/101/2
f 168/117/3 172/119/3 169/120/3 165/118/3
f 166/118/4 170/120/4 171/119/4 167/117/4
f 169/101/16 173/102/16 174/103/16 170/104/16
f 171/104/15 175/105/15 176/106/15 172/101/15
f 172/119/3 176/121/3 173/122/3 169/120/3
f 170/120/4 174/122/4 175/121/4 171/119/4
f 173/101/7 145/102/7 148/103/7 174/104/7
f 175/104/8 149/105/8 152/106/8 176/101/8
f 176/121/3 152/107/3 145/110/3 173/122/3
f 174/122/4 148/110/4 149/107/4 175/121/4
