# Procedurally generated by dev-env-utils/scripts/gen_park_legacy_amenities.py -- do not hand edit
mtllib swing_sets.mtl
o swing_belt_set
v 0.000000 2.643750 0.437500
v -0.875000 2.643750 0.437500
v -0.875000 2.768750 0.437500
v 0.000000 2.768750 0.437500
v -0.875000 2.643750 0.562500
v 0.000000 2.643750 0.562500
v 0.000000 2.768750 0.562500
v -0.875000 2.768750 0.562500
v 1.000000 2.643750 0.437500
v 1.000000 2.768750 0.437500
v 1.000000 2.643750 0.562500
v 1.000000 2.768750 0.562500
v 1.875000 2.643750 0.437500
v 1.875000 2.768750 0.437500
v 1.875000 2.643750 0.562500
v 1.875000 2.768750 0.562500
v -0.781250 0.017961 -0.651319
v -0.875000 0.017961 -0.651319
v -0.875000 0.221561 -0.566985
v -0.781250 0.221561 -0.566985
v -0.875000 -0.017916 -0.564705
v -0.781250 -0.017916 -0.564705
v -0.781250 0.185684 -0.480371
v -0.875000 0.185684 -0.480371
v -0.875000 1.145440 -0.184302
v -0.781250 1.145440 -0.184302
v -0.781250 1.109563 -0.097688
v -0.875000 1.109563 -0.097688
v -0.875000 2.069320 0.198382
v -0.781250 2.069320 0.198382
v -0.781250 2.033443 0.284996
v -0.875000 2.033443 0.284996
v -0.875000 2.548582 0.396899
v -0.781250 2.548582 0.396899
v -0.781250 2.512706 0.483513
v -0.875000 2.512706 0.483513
v -0.781250 -0.017916 1.564705
v -0.875000 -0.017916 1.564705
v -0.875000 0.185684 1.480371
v -0.781250 0.185684 1.480371
v -0.875000 0.017961 1.651319
v -0.781250 0.017961 1.651319
v -0.781250 0.221561 1.566985
v -0.875000 0.221561 1.566985
v -0.875000 1.109563 1.097688
v -0.781250 1.109563 1.097688
v -0.781250 1.145440 1.184302
v -0.875000 1.145440 1.184302
v -0.875000 2.033443 0.715004
v -0.781250 2.033443 0.715004
v -0.781250 2.069320 0.801618
v -0.875000 2.069320 0.801618
v -0.875000 2.512706 0.516487
v -0.781250 2.512706 0.516487
v -0.781250 2.548582 0.603101
v -0.875000 2.548582 0.603101
v -0.796875 1.031250 -0.130438
v -0.859375 1.031250 -0.130438
v -0.859375 1.093750 -0.130438
v -0.796875 1.093750 -0.130438
v -0.796875 1.031250 0.000000
v -0.796875 1.093750 0.000000
v -0.859375 1.031250 0.000000
v -0.859375 1.093750 0.000000
v -0.796875 1.031250 1.000000
v -0.796875 1.093750 1.000000
v -0.859375 1.031250 1.000000
v -0.859375 1.093750 1.000000
v -0.859375 1.031250 1.130437
v -0.796875 1.031250 1.130437
v -0.796875 1.093750 1.130437
v -0.859375 1.093750 1.130437
v -0.765625 2.456250 0.346125
v -0.890625 2.456250 0.346125
v -0.890625 2.784375 0.346125
v -0.765625 2.784375 0.346125
v -0.890625 2.456250 0.653875
v -0.765625 2.456250 0.653875
v -0.765625 2.784375 0.653875
v -0.890625 2.784375 0.653875
v 1.875000 0.017961 -0.651319
v 1.781250 0.017961 -0.651319
v 1.781250 0.221561 -0.566985
v 1.875000 0.221561 -0.566985
v 1.781250 -0.017916 -0.564705
v 1.875000 -0.017916 -0.564705
v 1.875000 0.185684 -0.480371
v 1.781250 0.185684 -0.480371
v 1.781250 1.145440 -0.184302
v 1.875000 1.145440 -0.184302
v 1.875000 1.109563 -0.097688
v 1.781250 1.109563 -0.097688
v 1.781250 2.069320 0.198382
v 1.875000 2.069320 0.198382
v 1.875000 2.033443 0.284996
v 1.781250 2.033443 0.284996
v 1.781250 2.548582 0.396899
v 1.875000 2.548582 0.396899
v 1.875000 2.512706 0.483513
v 1.781250 2.512706 0.483513
v 1.875000 -0.017916 1.564705
v 1.781250 -0.017916 1.564705
v 1.781250 0.185684 1.480371
v 1.875000 0.185684 1.480371
v 1.781250 0.017961 1.651319
v 1.875000 0.017961 1.651319
v 1.875000 0.221561 1.566985
v 1.781250 0.221561 1.566985
v 1.781250 1.109563 1.097688
v 1.875000 1.109563 1.097688
v 1.875000 1.145440 1.184302
v 1.781250 1.145440 1.184302
v 1.781250 2.033443 0.715004
v 1.875000 2.033443 0.715004
v 1.875000 2.069320 0.801618
v 1.781250 2.069320 0.801618
v 1.781250 2.512706 0.516487
v 1.875000 2.512706 0.516487
v 1.875000 2.548582 0.603101
v 1.781250 2.548582 0.603101
v 1.859375 1.031250 -0.130438
v 1.796875 1.031250 -0.130438
v 1.796875 1.093750 -0.130438
v 1.859375 1.093750 -0.130438
v 1.859375 1.031250 0.000000
v 1.859375 1.093750 0.000000
v 1.796875 1.031250 0.000000
v 1.796875 1.093750 0.000000
v 1.859375 1.031250 1.000000
v 1.859375 1.093750 1.000000
v 1.796875 1.031250 1.000000
v 1.796875 1.093750 1.000000
v 1.796875 1.031250 1.130437
v 1.859375 1.031250 1.130437
v 1.859375 1.093750 1.130437
v 1.796875 1.093750 1.130437
v 1.890625 2.456250 0.346125
v 1.765625 2.456250 0.346125
v 1.765625 2.784375 0.346125
v 1.890625 2.784375 0.346125
v 1.765625 2.456250 0.653875
v 1.890625 2.456250 0.653875
v 1.890625 2.784375 0.653875
v 1.765625 2.784375 0.653875
v 0.000000 0.437500 0.406250
v -0.250000 0.437500 0.406250
v -0.250000 0.484375 0.406250
v 0.000000 0.484375 0.406250
v -0.250000 0.437500 0.593750
v 0.000000 0.437500 0.593750
v 0.000000 0.484375 0.593750
v -0.250000 0.484375 0.593750
v 0.062500 0.437500 0.406250
v 0.062500 0.484375 0.406250
v 0.062500 0.437500 0.593750
v 0.062500 0.484375 0.593750
v -0.250000 0.437500 0.412500
v -0.388582 0.494903 0.412500
v -0.370644 0.538209 0.412500
v -0.232062 0.480807 0.412500
v -0.388582 0.494903 0.587500
v -0.250000 0.437500 0.587500
v -0.232062 0.480807 0.587500
v -0.370644 0.538209 0.587500
v -0.343750 0.475000 0.453125
v -0.406250 0.475000 0.453125
v -0.406250 0.575000 0.453125
v -0.343750 0.575000 0.453125
v -0.406250 0.475000 0.546875
v -0.343750 0.475000 0.546875
v -0.343750 0.575000 0.546875
v -0.406250 0.575000 0.546875
v -0.362500 0.575000 0.487500
v -0.387500 0.575000 0.487500
v -0.387500 1.000000 0.487500
v -0.362500 1.000000 0.487500
v -0.387500 0.575000 0.512500
v -0.362500 0.575000 0.512500
v -0.362500 1.000000 0.512500
v -0.387500 1.000000 0.512500
v -0.387500 2.000000 0.487500
v -0.362500 2.000000 0.487500
v -0.362500 2.000000 0.512500
v -0.387500 2.000000 0.512500
v -0.387500 2.593750 0.487500
v -0.362500 2.593750 0.487500
v -0.362500 2.593750 0.512500
v -0.387500 2.593750 0.512500
v -0.337500 2.593750 0.450000
v -0.412500 2.593750 0.450000
v -0.412500 2.643750 0.450000
v -0.337500 2.643750 0.450000
v -0.412500 2.593750 0.550000
v -0.337500 2.593750 0.550000
v -0.337500 2.643750 0.550000
v -0.412500 2.643750 0.550000
v 0.201082 0.494903 0.412500
v 0.062500 0.437500 0.412500
v 0.044562 0.480807 0.412500
v 0.183144 0.538209 0.412500
v 0.062500 0.437500 0.587500
v 0.201082 0.494903 0.587500
v 0.183144 0.538209 0.587500
v 0.044562 0.480807 0.587500
v 0.218750 0.475000 0.453125
v 0.156250 0.475000 0.453125
v 0.156250 0.575000 0.453125
v 0.218750 0.575000 0.453125
v 0.156250 0.475000 0.546875
v 0.218750 0.475000 0.546875
v 0.218750 0.575000 0.546875
v 0.156250 0.575000 0.546875
v 0.200000 0.575000 0.487500
v 0.175000 0.575000 0.487500
v 0.175000 1.000000 0.487500
v 0.200000 1.000000 0.487500
v 0.175000 0.575000 0.512500
v 0.200000 0.575000 0.512500
v 0.200000 1.000000 0.512500
v 0.175000 1.000000 0.512500
v 0.175000 2.000000 0.487500
v 0.200000 2.000000 0.487500
v 0.200000 2.000000 0.512500
v 0.175000 2.000000 0.512500
v 0.175000 2.593750 0.487500
v 0.200000 2.593750 0.487500
v 0.200000 2.593750 0.512500
v 0.175000 2.593750 0.512500
v 0.225000 2.593750 0.450000
v 0.150000 2.593750 0.450000
v 0.150000 2.643750 0.450000
v 0.225000 2.643750 0.450000
v 0.150000 2.593750 0.550000
v 0.225000 2.593750 0.550000
v 0.225000 2.643750 0.550000
v 0.150000 2.643750 0.550000
v 1.000000 0.437500 0.406250
v 0.937500 0.437500 0.406250
v 0.937500 0.484375 0.406250
v 1.000000 0.484375 0.406250
v 0.937500 0.437500 0.593750
v 1.000000 0.437500 0.593750
v 1.000000 0.484375 0.593750
v 0.937500 0.484375 0.593750
v 1.250000 0.437500 0.406250
v 1.250000 0.484375 0.406250
v 1.250000 0.437500 0.593750
v 1.250000 0.484375 0.593750
v 0.937500 0.437500 0.412500
v 0.798918 0.494903 0.412500
v 0.816856 0.538209 0.412500
v 0.955438 0.480807 0.412500
v 0.798918 0.494903 0.587500
v 0.937500 0.437500 0.587500
v 0.955438 0.480807 0.587500
v 0.816856 0.538209 0.587500
v 0.843750 0.475000 0.453125
v 0.781250 0.475000 0.453125
v 0.781250 0.575000 0.453125
v 0.843750 0.575000 0.453125
v 0.781250 0.475000 0.546875
v 0.843750 0.475000 0.546875
v 0.843750 0.575000 0.546875
v 0.781250 0.575000 0.546875
v 0.825000 0.575000 0.487500
v 0.800000 0.575000 0.487500
v 0.800000 1.000000 0.487500
v 0.825000 1.000000 0.487500
v 0.800000 0.575000 0.512500
v 0.825000 0.575000 0.512500
v 0.825000 1.000000 0.512500
v 0.800000 1.000000 0.512500
v 0.800000 2.000000 0.487500
v 0.825000 2.000000 0.487500
v 0.825000 2.000000 0.512500
v 0.800000 2.000000 0.512500
v 0.800000 2.593750 0.487500
v 0.825000 2.593750 0.487500
v 0.825000 2.593750 0.512500
v 0.800000 2.593750 0.512500
v 0.850000 2.593750 0.450000
v 0.775000 2.593750 0.450000
v 0.775000 2.643750 0.450000
v 0.850000 2.643750 0.450000
v 0.775000 2.593750 0.550000
v 0.850000 2.593750 0.550000
v 0.850000 2.643750 0.550000
v 0.775000 2.643750 0.550000
v 1.388582 0.494903 0.412500
v 1.250000 0.437500 0.412500
v 1.232062 0.480807 0.412500
v 1.370644 0.538209 0.412500
v 1.250000 0.437500 0.587500
v 1.388582 0.494903 0.587500
v 1.370644 0.538209 0.587500
v 1.232062 0.480807 0.587500
v 1.406250 0.475000 0.453125
v 1.343750 0.475000 0.453125
v 1.343750 0.575000 0.453125
v 1.406250 0.575000 0.453125
v 1.343750 0.475000 0.546875
v 1.406250 0.475000 0.546875
v 1.406250 0.575000 0.546875
v 1.343750 0.575000 0.546875
v 1.387500 0.575000 0.487500
v 1.362500 0.575000 0.487500
v 1.362500 1.000000 0.487500
v 1.387500 1.000000 0.487500
v 1.362500 0.575000 0.512500
v 1.387500 0.575000 0.512500
v 1.387500 1.000000 0.512500
v 1.362500 1.000000 0.512500
v 1.362500 2.000000 0.487500
v 1.387500 2.000000 0.487500
v 1.387500 2.000000 0.512500
v 1.362500 2.000000 0.512500
v 1.362500 2.593750 0.487500
v 1.387500 2.593750 0.487500
v 1.387500 2.593750 0.512500
v 1.362500 2.593750 0.512500
v 1.412500 2.593750 0.450000
v 1.337500 2.593750 0.450000
v 1.337500 2.643750 0.450000
v 1.412500 2.643750 0.450000
v 1.337500 2.593750 0.550000
v 1.412500 2.593750 0.550000
v 1.412500 2.643750 0.550000
v 1.337500 2.643750 0.550000
vt 0.010000 0.640875
vt 0.867500 0.640875
vt 0.867500 0.763375
vt 0.010000 0.763375
vt 0.132500 0.640875
vt 0.990000 0.640875
vt 0.990000 0.763375
vt 0.132500 0.763375
vt 0.132500 0.438750
vt 0.990000 0.438750
vt 0.990000 0.561250
vt 0.132500 0.561250
vt 0.010000 0.438750
vt 0.010000 0.561250
vt 0.867500 0.438750
vt 0.867500 0.561250
vt 0.775625 0.774033
vt 0.867500 0.774033
vt 0.867500 0.990000
vt 0.775625 0.990000
vt 0.132500 0.774033
vt 0.224375 0.774033
vt 0.224375 0.990000
vt 0.132500 0.990000
vt 0.454062 0.774033
vt 0.545937 0.774033
vt 0.545937 0.990000
vt 0.454062 0.990000
vt 0.132500 0.454063
vt 0.224375 0.454063
vt 0.224375 0.545937
vt 0.132500 0.545937
vt 0.775625 0.010000
vt 0.867500 0.010000
vt 0.132500 0.010000
vt 0.224375 0.010000
vt 0.454062 0.010000
vt 0.545937 0.010000
vt 0.867500 0.518375
vt 0.775625 0.518375
vt 0.224375 0.518375
vt 0.132500 0.518375
vt 0.545937 0.518375
vt 0.454062 0.518375
vt 0.790937 0.040625
vt 0.852187 0.040625
vt 0.852187 0.101875
vt 0.790937 0.101875
vt 0.010000 0.040625
vt 0.137829 0.040625
vt 0.137829 0.101875
vt 0.010000 0.101875
vt 0.862171 0.040625
vt 0.990000 0.040625
vt 0.990000 0.101875
vt 0.862171 0.101875
vt 0.147813 0.010000
vt 0.209063 0.010000
vt 0.209063 0.137829
vt 0.147813 0.137829
vt 0.147813 0.862171
vt 0.209063 0.862171
vt 0.209063 0.990000
vt 0.147813 0.990000
vt 0.147813 0.040625
vt 0.209063 0.040625
vt 0.209063 0.101875
vt 0.147813 0.101875
vt 0.760312 0.457125
vt 0.882812 0.457125
vt 0.882812 0.778687
vt 0.760312 0.778687
vt 0.117187 0.457125
vt 0.239687 0.457125
vt 0.239687 0.778687
vt 0.117187 0.778687
vt 0.349203 0.457125
vt 0.650798 0.457125
vt 0.650798 0.778687
vt 0.349203 0.778687
vt 0.117187 0.349202
vt 0.239687 0.349202
vt 0.239687 0.650797
vt 0.117187 0.650797
vt 0.775625 0.454063
vt 0.867500 0.454063
vt 0.867500 0.545937
vt 0.775625 0.545937
vt 0.790937 0.010000
vt 0.852187 0.010000
vt 0.852187 0.137829
vt 0.790937 0.137829
vt 0.790937 0.862171
vt 0.852187 0.862171
vt 0.852187 0.990000
vt 0.790937 0.990000
vt 0.760312 0.349202
vt 0.882812 0.349202
vt 0.882812 0.650797
vt 0.760312 0.650797
vt 0.255000 0.438750
vt 0.255000 0.484688
vt 0.010000 0.484688
vt 0.745000 0.438750
vt 0.990000 0.484688
vt 0.745000 0.484688
vt 0.408125 0.438750
vt 0.591875 0.438750
vt 0.591875 0.484688
vt 0.408125 0.484688
vt 0.745000 0.408125
vt 0.990000 0.408125
vt 0.990000 0.591875
vt 0.745000 0.591875
vt 0.928750 0.438750
vt 0.928750 0.484688
vt 0.071250 0.438750
vt 0.071250 0.484688
vt 0.010000 0.408125
vt 0.071250 0.408125
vt 0.071250 0.591875
vt 0.010000 0.591875
vt 0.402000 0.438750
vt 0.402000 0.484688
vt 0.598000 0.438750
vt 0.598000 0.484688
vt 0.414250 0.438750
vt 0.585750 0.438750
vt 0.585750 0.484688
vt 0.414250 0.484688
vt 0.598000 0.414250
vt 0.745000 0.414250
vt 0.745000 0.585750
vt 0.598000 0.585750
vt 0.346875 0.475500
vt 0.408125 0.475500
vt 0.408125 0.573500
vt 0.346875 0.573500
vt 0.591875 0.475500
vt 0.653125 0.475500
vt 0.653125 0.573500
vt 0.591875 0.573500
vt 0.454062 0.475500
vt 0.545937 0.475500
vt 0.545937 0.573500
vt 0.454062 0.573500
vt 0.591875 0.454063
vt 0.653125 0.454063
vt 0.653125 0.545937
vt 0.591875 0.545937
vt 0.365250 0.573500
vt 0.389750 0.573500
vt 0.389750 0.990000
vt 0.365250 0.990000
vt 0.610250 0.573500
vt 0.634750 0.573500
vt 0.634750 0.990000
vt 0.610250 0.990000
vt 0.487750 0.573500
vt 0.512250 0.573500
vt 0.512250 0.990000
vt 0.487750 0.990000
vt 0.365250 0.010000
vt 0.389750 0.010000
vt 0.610250 0.010000
vt 0.634750 0.010000
vt 0.487750 0.010000
vt 0.512250 0.010000
vt 0.389750 0.591875
vt 0.365250 0.591875
vt 0.634750 0.591875
vt 0.610250 0.591875
vt 0.512250 0.591875
vt 0.487750 0.591875
vt 0.340750 0.591875
vt 0.414250 0.591875
vt 0.414250 0.640875
vt 0.340750 0.640875
vt 0.585750 0.591875
vt 0.659250 0.591875
vt 0.659250 0.640875
vt 0.585750 0.640875
vt 0.451000 0.591875
vt 0.549000 0.591875
vt 0.549000 0.640875
vt 0.451000 0.640875
vt 0.585750 0.451000
vt 0.659250 0.451000
vt 0.659250 0.549000
vt 0.585750 0.549000
vt 0.781750 0.438750
vt 0.781750 0.484688
vt 0.218250 0.438750
vt 0.218250 0.484688
vt 0.071250 0.414250
vt 0.218250 0.414250
vt 0.218250 0.585750
vt 0.071250 0.585750
vt 0.775625 0.475500
vt 0.836875 0.475500
vt 0.836875 0.573500
vt 0.775625 0.573500
vt 0.163125 0.475500
vt 0.224375 0.475500
vt 0.224375 0.573500
vt 0.163125 0.573500
vt 0.163125 0.454063
vt 0.163125 0.545937
vt 0.794000 0.573500
vt 0.818500 0.573500
vt 0.818500 0.990000
vt 0.794000 0.990000
vt 0.181500 0.573500
vt 0.206000 0.573500
vt 0.206000 0.990000
vt 0.181500 0.990000
vt 0.794000 0.010000
vt 0.818500 0.010000
vt 0.181500 0.010000
vt 0.206000 0.010000
vt 0.818500 0.591875
vt 0.794000 0.591875
vt 0.206000 0.591875
vt 0.181500 0.591875
vt 0.769500 0.591875
vt 0.843000 0.591875
vt 0.843000 0.640875
vt 0.769500 0.640875
vt 0.157000 0.591875
vt 0.230500 0.591875
vt 0.230500 0.640875
vt 0.157000 0.640875
vt 0.157000 0.451000
vt 0.230500 0.451000
vt 0.230500 0.549000
vt 0.157000 0.549000
vt 0.928750 0.408125
vt 0.928750 0.591875
vt 0.255000 0.408125
vt 0.255000 0.591875
vt 0.781750 0.414250
vt 0.928750 0.414250
vt 0.928750 0.585750
vt 0.781750 0.585750
vt 0.836875 0.454063
vt 0.836875 0.545937
vt 0.769500 0.451000
vt 0.843000 0.451000
vt 0.843000 0.549000
vt 0.769500 0.549000
vt 0.255000 0.414250
vt 0.402000 0.414250
vt 0.402000 0.585750
vt 0.255000 0.585750
vt 0.346875 0.454063
vt 0.408125 0.454063
vt 0.408125 0.545937
vt 0.346875 0.545937
vt 0.340750 0.451000
vt 0.414250 0.451000
vt 0.414250 0.549000
vt 0.340750 0.549000
vn 0.000000 0.000000 -1.000000
vn 0.000000 0.000000 1.000000
vn 0.000000 1.000000 0.000000
vn 0.000000 -1.000000 0.000000
vn 0.000000 0.382683 -0.923880
vn 0.000000 -0.382683 0.923880
vn 1.000000 0.000000 0.000000
vn -1.000000 0.000000 0.000000
vn 0.000000 -0.923880 -0.382683
vn 0.000000 -0.382683 -0.923880
vn 0.000000 0.382683 0.923880
vn 0.000000 -0.923880 0.382683
vn 0.923880 -0.382683 0.000000
vn -0.923880 0.382683 0.000000
vn 0.382683 0.923880 0.000000
vn -0.382683 -0.923880 0.000000
vn 0.923880 0.382683 0.000000
vn -0.923880 -0.382683 0.000000
vn -0.382683 0.923880 0.000000
vn 0.382683 -0.923880 0.000000
usemtl belt
f 145/13/1 146/101/1 147/102/1 148/103/1
f 149/104/2 150/10/2 151/105/2 152/106/2
f 146/107/8 149/108/8 152/109/8 147/110/8
f 152/111/3 151/112/3 148/113/3 147/114/3
f 146/111/4 145/112/4 150/113/4 149/114/4
f 153/115/1 145/10/1 148/105/1 154/116/1
f 150/13/2 155/117/2 156/118/2 151/103/2
f 155/107/7 153/108/7 154/109/7 156/110/7
f 151/119/3 156/120/3 154/121/3 148/122/3
f 145/119/4 153/120/4 155/121/4 150/122/4
f 157/101/1 158/123/1 159/124/1 160/102/1
f 161/125/2 162/104/2 163/106/2 164/126/2
f 162/127/13 157/128/13 160/129/13 163/130/13
f 158/127/14 161/128/14 164/129/14 159/130/14
f 164/131/15 163/132/15 160/133/15 159/134/15
f 158/131/16 157/132/16 162/133/16 161/134/16
f 197/191/1 198/115/1 199/116/1 200/192/1
f 201/117/2 202/193/2 203/194/2 204/118/2
f 202/127/17 197/128/17 200/129/17 203/130/17
f 198/127/18 201/128/18 204/129/18 199/130/18
f 204/195/19 203/196/19 200/197/19 199/198/19
f 198/195/20 197/196/20 202/197/20 201/198/20
f 237/13/1 238/117/1 239/118/1 240/103/1
f 241/115/2 242/10/2 243/105/2 244/116/2
f 238/107/8 241/108/8 244/109/8 239/110/8
f 244/237/3 243/112/3 240/113/3 239/238/3
f 238/237/4 237/112/4 242/113/4 241/238/4
f 245/104/1 237/10/1 240/105/1 246/106/1
f 242/13/2 247/101/2 248/102/2 243/103/2
f 247/107/7 245/108/7 246/109/7 248/110/7
f 243/119/3 248/239/3 246/240/3 240/122/3
f 237/119/4 245/239/4 247/240/4 242/122/4
f 249/117/1 250/193/1 251/194/1 252/118/1
f 253/191/2 254/115/2 255/116/2 256/192/2
f 254/127/13 249/128/13 252/129/13 255/130/13
f 250/127/14 253/128/14 256/129/14 251/130/14
f 256/241/15 255/242/15 252/243/15 251/244/15
f 250/241/16 249/242/16 254/243/16 253/244/16
f 289/125/1 290/104/1 291/106/1 292/126/1
f 293/101/2 294/123/2 295/124/2 296/102/2
f 294/127/17 289/128/17 292/129/17 295/130/17
f 290/127/18 293/128/18 296/129/18 291/130/18
f 296/251/19 295/252/19 292/253/19 291/254/19
f 290/251/20 289/252/20 294/253/20 293/254/20
usemtl cap
f 73/69/1 74/70/1 75/71/1 76/72/1
f 77/73/2 78/74/2 79/75/2 80/76/2
f 78/77/7 73/78/7 76/79/7 79/80/7
f 74/77/8 77/78/8 80/79/8 75/80/8
f 80/81/3 79/82/3 76/83/3 75/84/3
f 74/81/4 73/82/4 78/83/4 77/84/4
f 137/73/1 138/74/1 139/75/1 140/76/1
f 141/69/2 142/70/2 143/71/2 144/72/2
f 142/77/7 137/78/7 140/79/7 143/80/7
f 138/77/8 141/78/8 144/79/8 139/80/8
f 144/97/3 143/98/3 140/99/3 139/100/3
f 138/97/4 137/98/4 142/99/4 141/100/4
usemtl chain
f 173/151/1 174/152/1 175/153/1 176/154/1
f 177/155/2 178/156/2 179/157/2 180/158/2
f 178/159/7 173/160/7 176/161/7 179/162/7
f 174/159/8 177/160/8 180/161/8 175/162/8
f 176/163/1 175/164/1 181/153/1 182/154/1
f 180/165/2 179/166/2 183/157/2 184/158/2
f 179/167/7 176/168/7 182/161/7 183/162/7
f 175/167/8 180/168/8 184/161/8 181/162/8
f 182/163/1 181/164/1 185/169/1 186/170/1
f 184/165/2 183/166/2 187/171/2 188/172/2
f 183/167/7 182/168/7 186/173/7 187/174/7
f 181/167/8 184/168/8 188/173/8 185/174/8
f 213/209/1 214/210/1 215/211/1 216/212/1
f 217/213/2 218/214/2 219/215/2 220/216/2
f 218/159/7 213/160/7 216/161/7 219/162/7
f 214/159/8 217/160/8 220/161/8 215/162/8
f 216/217/1 215/218/1 221/211/1 222/212/1
f 220/219/2 219/220/2 223/215/2 224/216/2
f 219/167/7 216/168/7 222/161/7 223/162/7
f 215/167/8 220/168/8 224/161/8 221/162/8
f 222/217/1 221/218/1 225/221/1 226/222/1
f 224/219/2 223/220/2 227/223/2 228/224/2
f 223/167/7 222/168/7 226/173/7 227/174/7
f 221/167/8 224/168/8 228/173/8 225/174/8
f 265/213/1 266/214/1 267/215/1 268/216/1
f 269/209/2 270/210/2 271/211/2 272/212/2
f 270/159/7 265/160/7 268/161/7 271/162/7
f 266/159/8 269/160/8 272/161/8 267/162/8
f 268/219/1 267/220/1 273/215/1 274/216/1
f 272/217/2 271/218/2 275/211/2 276/212/2
f 271/167/7 268/168/7 274/161/7 275/162/7
f 267/167/8 272/168/8 276/161/8 273/162/8
f 274/219/1 273/220/1 277/223/1 278/224/1
f 276/217/2 275/218/2 279/221/2 280/222/2
f 275/167/7 274/168/7 278/173/7 279/174/7
f 273/167/8 276/168/8 280/173/8 277/174/8
f 305/155/1 306/156/1 307/157/1 308/158/1
f 309/151/2 310/152/2 311/153/2 312/154/2
f 310/159/7 305/160/7 308/161/7 311/162/7
f 306/159/8 309/160/8 312/161/8 307/162/8
f 308/165/1 307/166/1 313/157/1 314/158/1
f 312/163/2 311/164/2 315/153/2 316/154/2
f 311/167/7 308/168/7 314/161/7 315/162/7
f 307/167/8 312/168/8 316/161/8 313/162/8
f 314/165/1 313/166/1 317/171/1 318/172/1
f 316/163/2 315/164/2 319/169/2 320/170/2
f 315/167/7 314/168/7 318/173/7 319/174/7
f 313/167/8 316/168/8 320/173/8 317/174/8
usemtl clamp
f 165/135/1 166/136/1 167/137/1 168/138/1
f 169/139/2 170/140/2 171/141/2 172/142/2
f 170/143/7 165/144/7 168/145/7 171/146/7
f 166/143/8 169/144/8 172/145/8 167/146/8
f 172/147/3 171/148/3 168/149/3 167/150/3
f 166/147/4 165/148/4 170/149/4 169/150/4
f 189/175/1 190/176/1 191/177/1 192/178/1
f 193/179/2 194/180/2 195/181/2 196/182/2
f 194/183/7 189/184/7 192/185/7 195/186/7
f 190/183/8 193/184/8 196/185/8 191/186/8
f 196/187/3 195/188/3 192/189/3 191/190/3
f 190/187/4 189/188/4 194/189/4 193/190/4
f 205/199/1 206/200/1 207/201/1 208/202/1
f 209/203/2 210/204/2 211/205/2 212/206/2
f 210/143/7 205/144/7 208/145/7 211/146/7
f 206/143/8 209/144/8 212/145/8 207/146/8
f 212/207/3 211/30/3 208/31/3 207/208/3
f 206/207/4 205/30/4 210/31/4 209/208/4
f 229/225/1 230/226/1 231/227/1 232/228/1
f 233/229/2 234/230/2 235/231/2 236/232/2
f 234/183/7 229/184/7 232/185/7 235/186/7
f 230/183/8 233/184/8 236/185/8 231/186/8
f 236/233/3 235/234/3 232/235/3 231/236/3
f 230/233/4 229/234/4 234/235/4 233/236/4
f 257/203/1 258/204/1 259/205/1 260/206/1
f 261/199/2 262/200/2 263/201/2 264/202/2
f 262/143/7 257/144/7 260/145/7 263/146/7
f 258/143/8 261/144/8 264/145/8 259/146/8
f 264/85/3 263/245/3 260/246/3 259/88/3
f 258/85/4 257/245/4 262/246/4 261/88/4
f 281/229/1 282/230/1 283/231/1 284/232/1
f 285/225/2 286/226/2 287/227/2 288/228/2
f 286/183/7 281/184/7 284/185/7 287/186/7
f 282/183/8 285/184/8 288/185/8 283/186/8
f 288/247/3 287/248/3 284/249/3 283/250/3
f 282/247/4 281/248/4 286/249/4 285/250/4
f 297/139/1 298/140/1 299/141/1 300/142/1
f 301/135/2 302/136/2 303/137/2 304/138/2
f 302/143/7 297/144/7 300/145/7 303/146/7
f 298/143/8 301/144/8 304/145/8 299/146/8
f 304/255/3 303/256/3 300/257/3 299/258/3
f 298/255/4 297/256/4 302/257/4 301/258/4
f 321/179/1 322/180/1 323/181/1 324/182/1
f 325/175/2 326/176/2 327/177/2 328/178/2
f 326/183/7 321/184/7 324/185/7 327/186/7
f 322/183/8 325/184/8 328/185/8 323/186/8
f 328/259/3 327/260/3 324/261/3 323/262/3
f 322/259/4 321/260/4 326/261/4 325/262/4
usemtl frame
f 1/1/1 2/2/1 3/3/1 4/4/1
f 5/5/2 6/6/2 7/7/2 8/8/2
f 8/9/3 7/10/3 4/11/3 3/12/3
f 2/9/4 1/10/4 6/11/4 5/12/4
f 9/1/1 1/6/1 4/7/1 10/4/1
f 6/1/2 11/6/2 12/7/2 7/4/2
f 7/13/3 12/10/3 10/11/3 4/14/3
f 1/13/4 9/10/4 11/11/4 6/14/4
f 13/5/1 9/6/1 10/7/1 14/8/1
f 11/1/2 15/2/2 16/3/2 12/4/2
f 12/13/3 16/15/3 14/16/3 10/14/3
f 9/13/4 13/15/4 15/16/4 11/14/4
f 17/17/5 18/18/5 19/19/5 20/20/5
f 21/21/6 22/22/6 23/23/6 24/24/6
f 22/25/7 17/26/7 20/27/7 23/28/7
f 18/25/8 21/26/8 24/27/8 19/28/8
f 18/29/9 17/30/9 22/31/9 21/32/9
f 20/33/5 19/34/5 25/19/5 26/20/5
f 24/35/6 23/36/6 27/23/6 28/24/6
f 23/37/7 20/38/7 26/27/7 27/28/7
f 19/37/8 24/38/8 28/27/8 25/28/8
f 26/33/5 25/34/5 29/19/5 30/20/5
f 28/35/6 27/36/6 31/23/6 32/24/6
f 27/37/7 26/38/7 30/27/7 31/28/7
f 25/37/8 28/38/8 32/27/8 29/28/8
f 30/33/5 29/34/5 33/39/5 34/40/5
f 32/35/6 31/36/6 35/41/6 36/42/6
f 31/37/7 30/38/7 34/43/7 35/44/7
f 29/37/8 32/38/8 36/43/8 33/44/8
f 37/17/10 38/18/10 39/19/10 40/20/10
f 41/21/11 42/22/11 43/23/11 44/24/11
f 42/25/7 37/26/7 40/27/7 43/28/7
f 38/25/8 41/26/8 44/27/8 39/28/8
f 38/29/12 37/30/12 42/31/12 41/32/12
f 40/33/10 39/34/10 45/19/10 46/20/10
f 44/35/11 43/36/11 47/23/11 48/24/11
f 43/37/7 40/38/7 46/27/7 47/28/7
f 39/37/8 44/38/8 48/27/8 45/28/8
f 46/33/10 45/34/10 49/19/10 50/20/10
f 48/35/11 47/36/11 51/23/11 52/24/11
f 47/37/7 46/38/7 50/27/7 51/28/7
f 45/37/8 48/38/8 52/27/8 49/28/8
f 50/33/10 49/34/10 53/39/10 54/40/10
f 52/35/11 51/36/11 55/41/11 56/42/11
f 51/37/7 50/38/7 54/43/7 55/44/7
f 49/37/8 52/38/8 56/43/8 53/44/8
f 57/45/1 58/46/1 59/47/1 60/48/1
f 61/49/7 57/50/7 60/51/7 62/52/7
f 58/53/8 63/54/8 64/55/8 59/56/8
f 64/57/3 62/58/3 60/59/3 59/60/3
f 58/61/4 57/62/4 61/63/4 63/64/4
f 65/49/7 61/54/7 62/55/7 66/52/7
f 63/49/8 67/54/8 68/55/8 64/52/8
f 68/57/3 66/58/3 62/63/3 64/64/3
f 63/57/4 61/58/4 65/63/4 67/64/4
f 69/65/2 70/66/2 71/67/2 72/68/2
f 70/53/7 65/54/7 66/55/7 71/56/7
f 67/49/8 69/50/8 72/51/8 68/52/8
f 72/61/3 71/62/3 66/63/3 68/64/3
f 67/57/4 65/58/4 70/59/4 69/60/4
f 81/21/5 82/22/5 83/23/5 84/24/5
f 85/17/6 86/18/6 87/19/6 88/20/6
f 86/25/7 81/26/7 84/27/7 87/28/7
f 82/25/8 85/26/8 88/27/8 83/28/8
f 82/85/9 81/86/9 86/87/9 85/88/9
f 84/35/5 83/36/5 89/23/5 90/24/5
f 88/33/6 87/34/6 91/19/6 92/20/6
f 87/37/7 84/38/7 90/27/7 91/28/7
f 83/37/8 88/38/8 92/27/8 89/28/8
f 90/35/5 89/36/5 93/23/5 94/24/5
f 92/33/6 91/34/6 95/19/6 96/20/6
f 91/37/7 90/38/7 94/27/7 95/28/7
f 89/37/8 92/38/8 96/27/8 93/28/8
f 94/35/5 93/36/5 97/41/5 98/42/5
f 96/33/6 95/34/6 99/39/6 100/40/6
f 95/37/7 94/38/7 98/43/7 99/44/7
f 93/37/8 96/38/8 100/43/8 97/44/8
f 101/21/10 102/22/10 103/23/10 104/24/10
f 105/17/11 106/18/11 107/19/11 108/20/11
f 106/25/7 101/26/7 104/27/7 107/28/7
f 102/25/8 105/26/8 108/27/8 103/28/8
f 102/85/12 101/86/12 106/87/12 105/88/12
f 104/35/10 103/36/10 109/23/10 110/24/10
f 108/33/11 107/34/11 111/19/11 112/20/11
f 107/37/7 104/38/7 110/27/7 111/28/7
f 103/37/8 108/38/8 112/27/8 109/28/8
f 110/35/10 109/36/10 113/23/10 114/24/10
f 112/33/11 111/34/11 115/19/11 116/20/11
f 111/37/7 110/38/7 114/27/7 115/28/7
f 109/37/8 112/38/8 116/27/8 113/28/8
f 114/35/10 113/36/10 117/41/10 118/42/10
f 116/33/11 115/34/11 119/39/11 120/40/11
f 115/37/7 114/38/7 118/43/7 119/44/7
f 113/37/8 116/38/8 120/43/8 117/44/8
f 121/65/1 122/66/1 123/67/1 124/68/1
f 125/49/7 121/50/7 124/51/7 126/52/7
f 122/53/8 127/54/8 128/55/8 123/56/8
f 128/89/3 126/90/3 124/91/3 123/92/3
f 122/93/4 121/94/4 125/95/4 127/96/4
f 129/49/7 125/54/7 126/55/7 130/52/7
f 127/49/8 131/54/8 132/55/8 128/52/8
f 132/89/3 130/90/3 126/95/3 128/96/3
f 127/89/4 125/90/4 129/95/4 131/96/4
f 133/45/2 134/46/2 135/47/2 136/48/2
f 134/53/7 129/54/7 130/55/7 135/56/7
f 131/49/8 133/50/8 136/51/8 132/52/8
f 136/93/3 135/94/3 130/95/3 132/96/3
f 131/89/4 129/90/4 134/91/4 133/92/4
