# Procedurally generated by dev-env-utils/scripts/gen_streetscape_bollards.py -- do not hand edit
mtllib bollard_sphere.mtl
o bollard_sphere
v 0.661642 0.025184 0.566954
v 0.594528 0.000000 0.539155
v 0.601442 0.000000 0.513355
v 0.673464 0.025184 0.522837
v 0.638805 0.025184 0.606509
v 0.581173 0.000000 0.562287
v 0.606509 0.025184 0.638805
v 0.562287 0.000000 0.581173
v 0.566954 0.025184 0.661642
v 0.539155 0.000000 0.594528
v 0.522837 0.025184 0.673464
v 0.513355 0.000000 0.601442
v 0.477163 0.025184 0.673464
v 0.486645 0.000000 0.601442
v 0.433046 0.025184 0.661642
v 0.460845 0.000000 0.594528
v 0.393491 0.025184 0.638805
v 0.437713 0.000000 0.581173
v 0.361195 0.025184 0.606509
v 0.418827 0.000000 0.562287
v 0.338358 0.025184 0.566954
v 0.405472 0.000000 0.539155
v 0.326536 0.025184 0.522837
v 0.398558 0.000000 0.513355
v 0.326536 0.025184 0.477163
v 0.398558 0.000000 0.486645
v 0.338358 0.025184 0.433046
v 0.405472 0.000000 0.460845
v 0.361195 0.025184 0.393491
v 0.418827 0.000000 0.437713
v 0.393491 0.025184 0.361195
v 0.437713 0.000000 0.418827
v 0.433046 0.025184 0.338358
v 0.460845 0.000000 0.405472
v 0.477163 0.025184 0.326536
v 0.486645 0.000000 0.398558
v 0.522837 0.025184 0.326536
v 0.513355 0.000000 0.398558
v 0.566954 0.025184 0.338358
v 0.539155 0.000000 0.405472
v 0.606509 0.025184 0.361195
v 0.562287 0.000000 0.418827
v 0.638805 0.025184 0.393491
v 0.581173 0.000000 0.437713
v 0.661642 0.025184 0.433046
v 0.594528 0.000000 0.460845
v 0.673464 0.025184 0.477163
v 0.601442 0.000000 0.486645
v 0.723466 0.063043 0.592563
v 0.739809 0.063043 0.531571
v 0.691895 0.063043 0.647246
v 0.647246 0.063043 0.691895
v 0.592563 0.063043 0.723466
v 0.531571 0.063043 0.739809
v 0.468429 0.063043 0.739809
v 0.407437 0.063043 0.723466
v 0.352754 0.063043 0.691895
v 0.308105 0.063043 0.647246
v 0.276534 0.063043 0.592563
v 0.260191 0.063043 0.531571
v 0.260191 0.063043 0.468429
v 0.276534 0.063043 0.407437
v 0.308105 0.063043 0.352754
v 0.352754 0.063043 0.308105
v 0.407437 0.063043 0.276534
v 0.468429 0.063043 0.260191
v 0.531571 0.063043 0.260191
v 0.592563 0.063043 0.276534
v 0.647246 0.063043 0.308105
v 0.691895 0.063043 0.352754
v 0.723466 0.063043 0.407437
v 0.739809 0.063043 0.468429
v 0.777977 0.112340 0.615142
v 0.798306 0.112340 0.539273
v 0.738704 0.112340 0.683164
v 0.683164 0.112340 0.738704
v 0.615142 0.112340 0.777977
v 0.539273 0.112340 0.798306
v 0.460727 0.112340 0.798306
v 0.384858 0.112340 0.777977
v 0.316836 0.112340 0.738704
v 0.261296 0.112340 0.683164
v 0.222023 0.112340 0.615142
v 0.201694 0.112340 0.539273
v 0.201694 0.112340 0.460727
v 0.222023 0.112340 0.384858
v 0.261296 0.112340 0.316836
v 0.316836 0.112340 0.261296
v 0.384858 0.112340 0.222023
v 0.460727 0.112340 0.201694
v 0.539273 0.112340 0.201694
v 0.615142 0.112340 0.222023
v 0.683164 0.112340 0.261296
v 0.738704 0.112340 0.316836
v 0.777977 0.112340 0.384858
v 0.798306 0.112340 0.460727
v 0.823390 0.171459 0.633952
v 0.847040 0.171459 0.545689
v 0.777701 0.171459 0.713088
v 0.713088 0.171459 0.777701
v 0.633952 0.171459 0.823390
v 0.545689 0.171459 0.847040
v 0.454311 0.171459 0.847040
v 0.366048 0.171459 0.823390
v 0.286912 0.171459 0.777701
v 0.222299 0.171459 0.713088
v 0.176610 0.171459 0.633952
v 0.152960 0.171459 0.545689
v 0.152960 0.171459 0.454311
v 0.176610 0.171459 0.366048
v 0.222299 0.171459 0.286912
v 0.286912 0.171459 0.222299
v 0.366048 0.171459 0.176610
v 0.454311 0.171459 0.152960
v 0.545689 0.171459 0.152960
v 0.633952 0.171459 0.176610
v 0.713088 0.171459 0.222299
v 0.777701 0.171459 0.286912
v 0.823390 0.171459 0.366048
v 0.847040 0.171459 0.454311
v 0.858219 0.238467 0.648379
v 0.884417 0.238467 0.550609
v 0.807610 0.238467 0.736037
v 0.736037 0.238467 0.807610
v 0.648379 0.238467 0.858219
v 0.550609 0.238467 0.884417
v 0.449391 0.238467 0.884417
v 0.351621 0.238467 0.858219
v 0.263963 0.238467 0.807610
v 0.192390 0.238467 0.736037
v 0.141781 0.238467 0.648379
v 0.115583 0.238467 0.550609
v 0.115583 0.238467 0.449391
v 0.141781 0.238467 0.351621
v 0.192390 0.238467 0.263963
v 0.263963 0.238467 0.192390
v 0.351621 0.238467 0.141781
v 0.449391 0.238467 0.115583
v 0.550609 0.238467 0.115583
v 0.648379 0.238467 0.141781
v 0.736037 0.238467 0.192390
v 0.807610 0.238467 0.263963
v 0.858219 0.238467 0.351621
v 0.884417 0.238467 0.449391
v 0.881325 0.311171 0.657950
v 0.909213 0.311171 0.553874
v 0.827452 0.311171 0.751262
v 0.751262 0.311171 0.827452
v 0.657950 0.311171 0.881325
v 0.553874 0.311171 0.909213
v 0.446126 0.311171 0.909213
v 0.342050 0.311171 0.881325
v 0.248738 0.311171 0.827452
v 0.172548 0.311171 0.751262
v 0.118675 0.311171 0.657950
v 0.090787 0.311171 0.553874
v 0.090787 0.311171 0.446126
v 0.118675 0.311171 0.342050
v 0.172548 0.311171 0.248738
v 0.248738 0.311171 0.172548
v 0.342050 0.311171 0.118675
v 0.446126 0.311171 0.090787
v 0.553874 0.311171 0.090787
v 0.657950 0.311171 0.118675
v 0.751262 0.311171 0.172548
v 0.827452 0.311171 0.248738
v 0.881325 0.311171 0.342050
v 0.909213 0.311171 0.446126
v 0.891952 0.387191 0.662352
v 0.920616 0.387191 0.555375
v 0.836577 0.387191 0.758264
v 0.758264 0.387191 0.836577
v 0.662352 0.387191 0.891952
v 0.555375 0.387191 0.920616
v 0.444625 0.387191 0.920616
v 0.337648 0.387191 0.891952
v 0.241736 0.387191 0.836577
v 0.163423 0.387191 0.758264
v 0.108048 0.387191 0.662352
v 0.079384 0.387191 0.555375
v 0.079384 0.387191 0.444625
v 0.108048 0.387191 0.337648
v 0.163423 0.387191 0.241736
v 0.241736 0.387191 0.163423
v 0.337648 0.387191 0.108048
v 0.444625 0.387191 0.079384
v 0.555375 0.387191 0.079384
v 0.662352 0.387191 0.108048
v 0.758264 0.387191 0.163423
v 0.836577 0.387191 0.241736
v 0.891952 0.387191 0.337648
v 0.920616 0.387191 0.444625
v 0.889751 0.464039 0.661440
v 0.918254 0.464039 0.555064
v 0.834687 0.464039 0.756814
v 0.756814 0.464039 0.834687
v 0.661440 0.464039 0.889751
v 0.555064 0.464039 0.918254
v 0.444936 0.464039 0.918254
v 0.338560 0.464039 0.889751
v 0.243186 0.464039 0.834687
v 0.165313 0.464039 0.756814
v 0.110249 0.464039 0.661440
v 0.081746 0.464039 0.555064
v 0.081746 0.464039 0.444936
v 0.110249 0.464039 0.338560
v 0.165313 0.464039 0.243186
v 0.243186 0.464039 0.165313
v 0.338560 0.464039 0.110249
v 0.444936 0.464039 0.081746
v 0.555064 0.464039 0.081746
v 0.661440 0.464039 0.110249
v 0.756814 0.464039 0.165313
v 0.834687 0.464039 0.243186
v 0.889751 0.464039 0.338560
v 0.918254 0.464039 0.444936
v 0.874795 0.539200 0.655245
v 0.902204 0.539200 0.552951
v 0.821843 0.539200 0.746959
v 0.746959 0.539200 0.821843
v 0.655245 0.539200 0.874795
v 0.552951 0.539200 0.902204
v 0.447049 0.539200 0.902204
v 0.344755 0.539200 0.874795
v 0.253041 0.539200 0.821843
v 0.178157 0.539200 0.746959
v 0.125205 0.539200 0.655245
v 0.097796 0.539200 0.552951
v 0.097796 0.539200 0.447049
v 0.125205 0.539200 0.344755
v 0.178157 0.539200 0.253041
v 0.253041 0.539200 0.178157
v 0.344755 0.539200 0.125205
v 0.447049 0.539200 0.097796
v 0.552951 0.539200 0.097796
v 0.655245 0.539200 0.125205
v 0.746959 0.539200 0.178157
v 0.821843 0.539200 0.253041
v 0.874795 0.539200 0.344755
v 0.902204 0.539200 0.447049
v 0.847572 0.610215 0.643969
v 0.872991 0.610215 0.549105
v 0.798467 0.610215 0.729022
v 0.729022 0.610215 0.798467
v 0.643969 0.610215 0.847572
v 0.549105 0.610215 0.872991
v 0.450895 0.610215 0.872991
v 0.356031 0.610215 0.847572
v 0.270978 0.610215 0.798467
v 0.201533 0.610215 0.729022
v 0.152428 0.610215 0.643969
v 0.127009 0.610215 0.549105
v 0.127009 0.610215 0.450895
v 0.152428 0.610215 0.356031
v 0.201533 0.610215 0.270978
v 0.270978 0.610215 0.201533
v 0.356031 0.610215 0.152428
v 0.450895 0.610215 0.127009
v 0.549105 0.610215 0.127009
v 0.643969 0.610215 0.152428
v 0.729022 0.610215 0.201533
v 0.798467 0.610215 0.270978
v 0.847572 0.610215 0.356031
v 0.872991 0.610215 0.450895
v 0.808975 0.674759 0.627982
v 0.831571 0.674759 0.543652
v 0.765323 0.674759 0.703589
v 0.703589 0.674759 0.765323
v 0.627982 0.674759 0.808975
v 0.543652 0.674759 0.831571
v 0.456348 0.674759 0.831571
v 0.372018 0.674759 0.808975
v 0.296411 0.674759 0.765323
v 0.234677 0.674759 0.703589
v 0.191025 0.674759 0.627982
v 0.168429 0.674759 0.543652
v 0.168429 0.674759 0.456348
v 0.191025 0.674759 0.372018
v 0.234677 0.674759 0.296411
v 0.296411 0.674759 0.234677
v 0.372018 0.674759 0.191025
v 0.456348 0.674759 0.168429
v 0.543652 0.674759 0.168429
v 0.627982 0.674759 0.191025
v 0.703589 0.674759 0.234677
v 0.765323 0.674759 0.296411
v 0.808975 0.674759 0.372018
v 0.831571 0.674759 0.456348
v 0.760266 0.730721 0.607806
v 0.779300 0.730721 0.536771
v 0.723496 0.730721 0.671494
v 0.671494 0.730721 0.723496
v 0.607806 0.730721 0.760266
v 0.536771 0.730721 0.779300
v 0.463229 0.730721 0.779300
v 0.392194 0.730721 0.760266
v 0.328506 0.730721 0.723496
v 0.276504 0.730721 0.671494
v 0.239734 0.730721 0.607806
v 0.220700 0.730721 0.536771
v 0.220700 0.730721 0.463229
v 0.239734 0.730721 0.392194
v 0.276504 0.730721 0.328506
v 0.328506 0.730721 0.276504
v 0.392194 0.730721 0.239734
v 0.463229 0.730721 0.220700
v 0.536771 0.730721 0.220700
v 0.607806 0.730721 0.239734
v 0.671494 0.730721 0.276504
v 0.723496 0.730721 0.328506
v 0.760266 0.730721 0.392194
v 0.779300 0.730721 0.463229
v 0.703039 0.776268 0.584102
v 0.717888 0.776268 0.528685
v 0.674354 0.776268 0.633786
v 0.633786 0.776268 0.674354
v 0.584102 0.776268 0.703039
v 0.528685 0.776268 0.717888
v 0.471315 0.776268 0.717888
v 0.415898 0.776268 0.703039
v 0.366214 0.776268 0.674354
v 0.325646 0.776268 0.633786
v 0.296961 0.776268 0.584102
v 0.282112 0.776268 0.528685
v 0.282112 0.776268 0.471315
v 0.296961 0.776268 0.415898
v 0.325646 0.776268 0.366214
v 0.366214 0.776268 0.325646
v 0.415898 0.776268 0.296961
v 0.471315 0.776268 0.282112
v 0.528685 0.776268 0.282112
v 0.584102 0.776268 0.296961
v 0.633786 0.776268 0.325646
v 0.674354 0.776268 0.366214
v 0.703039 0.776268 0.415898
v 0.717888 0.776268 0.471315
v 0.639168 0.809910 0.557645
v 0.649345 0.809910 0.519662
v 0.619506 0.809910 0.591700
v 0.591700 0.809910 0.619506
v 0.557645 0.809910 0.639168
v 0.519662 0.809910 0.649345
v 0.480338 0.809910 0.649345
v 0.442355 0.809910 0.639168
v 0.408300 0.809910 0.619506
v 0.380494 0.809910 0.591700
v 0.360832 0.809910 0.557645
v 0.350655 0.809910 0.519662
v 0.350655 0.809910 0.480338
v 0.360832 0.809910 0.442355
v 0.380494 0.809910 0.408300
v 0.408300 0.809910 0.380494
v 0.442355 0.809910 0.360832
v 0.480338 0.809910 0.350655
v 0.519662 0.809910 0.350655
v 0.557645 0.809910 0.360832
v 0.591700 0.809910 0.380494
v 0.619506 0.809910 0.408300
v 0.639168 0.809910 0.442355
v 0.649345 0.809910 0.480338
v 0.570741 0.830546 0.529302
v 0.575915 0.830546 0.509994
v 0.560747 0.830546 0.546613
v 0.546613 0.830546 0.560747
v 0.529302 0.830546 0.570741
v 0.509994 0.830546 0.575915
v 0.490006 0.830546 0.575915
v 0.470698 0.830546 0.570741
v 0.453387 0.830546 0.560747
v 0.439253 0.830546 0.546613
v 0.429259 0.830546 0.529302
v 0.424085 0.830546 0.509994
v 0.424085 0.830546 0.490006
v 0.429259 0.830546 0.470698
v 0.439253 0.830546 0.453387
v 0.453387 0.830546 0.439253
v 0.470698 0.830546 0.429259
v 0.490006 0.830546 0.424085
v 0.509994 0.830546 0.424085
v 0.529302 0.830546 0.429259
v 0.546613 0.830546 0.439253
v 0.560747 0.830546 0.453387
v 0.570741 0.830546 0.470698
v 0.575915 0.830546 0.490006
v 0.500000 0.837500 0.500000
v 0.500000 0.000000 0.500000
vt 0.270833 0.735186
vt 0.270833 0.750000
vt 0.250000 0.750000
vt 0.250000 0.735186
vt 0.291667 0.735186
vt 0.291667 0.750000
vt 0.312500 0.735186
vt 0.312500 0.750000
vt 0.333333 0.735186
vt 0.333333 0.750000
vt 0.354167 0.735186
vt 0.354167 0.750000
vt 0.375000 0.735186
vt 0.375000 0.750000
vt 0.395833 0.735186
vt 0.395833 0.750000
vt 0.416667 0.735186
vt 0.416667 0.750000
vt 0.437500 0.735186
vt 0.437500 0.750000
vt 0.458333 0.735186
vt 0.458333 0.750000
vt 0.479167 0.735186
vt 0.479167 0.750000
vt 0.500000 0.735186
vt 0.500000 0.750000
vt 0.520833 0.735186
vt 0.520833 0.750000
vt 0.541667 0.735186
vt 0.541667 0.750000
vt 0.562500 0.735186
vt 0.562500 0.750000
vt 0.583333 0.735186
vt 0.583333 0.750000
vt 0.604167 0.735186
vt 0.604167 0.750000
vt 0.625000 0.735186
vt 0.625000 0.750000
vt 0.645833 0.735186
vt 0.645833 0.750000
vt 0.666667 0.735186
vt 0.666667 0.750000
vt 0.687500 0.735186
vt 0.687500 0.750000
vt 0.708333 0.735186
vt 0.708333 0.750000
vt 0.729167 0.735186
vt 0.729167 0.750000
vt 0.750000 0.735186
vt 0.750000 0.750000
vt 0.270833 0.712916
vt 0.250000 0.712916
vt 0.291667 0.712916
vt 0.312500 0.712916
vt 0.333333 0.712916
vt 0.354167 0.712916
vt 0.375000 0.712916
vt 0.395833 0.712916
vt 0.416667 0.712916
vt 0.437500 0.712916
vt 0.458333 0.712916
vt 0.479167 0.712916
vt 0.500000 0.712916
vt 0.520833 0.712916
vt 0.541667 0.712916
vt 0.562500 0.712916
vt 0.583333 0.712916
vt 0.604167 0.712916
vt 0.625000 0.712916
vt 0.645833 0.712916
vt 0.666667 0.712916
vt 0.687500 0.712916
vt 0.708333 0.712916
vt 0.729167 0.712916
vt 0.750000 0.712916
vt 0.270833 0.683918
vt 0.250000 0.683918
vt 0.291667 0.683918
vt 0.312500 0.683918
vt 0.333333 0.683918
vt 0.354167 0.683918
vt 0.375000 0.683918
vt 0.395833 0.683918
vt 0.416667 0.683918
vt 0.437500 0.683918
vt 0.458333 0.683918
vt 0.479167 0.683918
vt 0.500000 0.683918
vt 0.520833 0.683918
vt 0.541667 0.683918
vt 0.562500 0.683918
vt 0.583333 0.683918
vt 0.604167 0.683918
vt 0.625000 0.683918
vt 0.645833 0.683918
vt 0.666667 0.683918
vt 0.687500 0.683918
vt 0.708333 0.683918
vt 0.729167 0.683918
vt 0.750000 0.683918
vt 0.270833 0.649142
vt 0.250000 0.649142
vt 0.291667 0.649142
vt 0.312500 0.649142
vt 0.333333 0.649142
vt 0.354167 0.649142
vt 0.375000 0.649142
vt 0.395833 0.649142
vt 0.416667 0.649142
vt 0.437500 0.649142
vt 0.458333 0.649142
vt 0.479167 0.649142
vt 0.500000 0.649142
vt 0.520833 0.649142
vt 0.541667 0.649142
vt 0.562500 0.649142
vt 0.583333 0.649142
vt 0.604167 0.649142
vt 0.625000 0.649142
vt 0.645833 0.649142
vt 0.666667 0.649142
vt 0.687500 0.649142
vt 0.708333 0.649142
vt 0.729167 0.649142
vt 0.750000 0.649142
vt 0.270833 0.609725
vt 0.250000 0.609725
vt 0.291667 0.609725
vt 0.312500 0.609725
vt 0.333333 0.609725
vt 0.354167 0.609725
vt 0.375000 0.609725
vt 0.395833 0.609725
vt 0.416667 0.609725
vt 0.437500 0.609725
vt 0.458333 0.609725
vt 0.479167 0.609725
vt 0.500000 0.609725
vt 0.520833 0.609725
vt 0.541667 0.609725
vt 0.562500 0.609725
vt 0.583333 0.609725
vt 0.604167 0.609725
vt 0.625000 0.609725
vt 0.645833 0.609725
vt 0.666667 0.609725
vt 0.687500 0.609725
vt 0.708333 0.609725
vt 0.729167 0.609725
vt 0.750000 0.609725
vt 0.270833 0.566958
vt 0.250000 0.566958
vt 0.291667 0.566958
vt 0.312500 0.566958
vt 0.333333 0.566958
vt 0.354167 0.566958
vt 0.375000 0.566958
vt 0.395833 0.566958
vt 0.416667 0.566958
vt 0.437500 0.566958
vt 0.458333 0.566958
vt 0.479167 0.566958
vt 0.500000 0.566958
vt 0.520833 0.566958
vt 0.541667 0.566958
vt 0.562500 0.566958
vt 0.583333 0.566958
vt 0.604167 0.566958
vt 0.625000 0.566958
vt 0.645833 0.566958
vt 0.666667 0.566958
vt 0.687500 0.566958
vt 0.708333 0.566958
vt 0.729167 0.566958
vt 0.750000 0.566958
vt 0.270833 0.522241
vt 0.250000 0.522241
vt 0.291667 0.522241
vt 0.312500 0.522241
vt 0.333333 0.522241
vt 0.354167 0.522241
vt 0.375000 0.522241
vt 0.395833 0.522241
vt 0.416667 0.522241
vt 0.437500 0.522241
vt 0.458333 0.522241
vt 0.479167 0.522241
vt 0.500000 0.522241
vt 0.520833 0.522241
vt 0.541667 0.522241
vt 0.562500 0.522241
vt 0.583333 0.522241
vt 0.604167 0.522241
vt 0.625000 0.522241
vt 0.645833 0.522241
vt 0.666667 0.522241
vt 0.687500 0.522241
vt 0.708333 0.522241
vt 0.729167 0.522241
vt 0.750000 0.522241
vt 0.270833 0.477036
vt 0.250000 0.477036
vt 0.291667 0.477036
vt 0.312500 0.477036
vt 0.333333 0.477036
vt 0.354167 0.477036
vt 0.375000 0.477036
vt 0.395833 0.477036
vt 0.416667 0.477036
vt 0.437500 0.477036
vt 0.458333 0.477036
vt 0.479167 0.477036
vt 0.500000 0.477036
vt 0.520833 0.477036
vt 0.541667 0.477036
vt 0.562500 0.477036
vt 0.583333 0.477036
vt 0.604167 0.477036
vt 0.625000 0.477036
vt 0.645833 0.477036
vt 0.666667 0.477036
vt 0.687500 0.477036
vt 0.708333 0.477036
vt 0.729167 0.477036
vt 0.750000 0.477036
vt 0.270833 0.432823
vt 0.250000 0.432823
vt 0.291667 0.432823
vt 0.312500 0.432823
vt 0.333333 0.432823
vt 0.354167 0.432823
vt 0.375000 0.432823
vt 0.395833 0.432823
vt 0.416667 0.432823
vt 0.437500 0.432823
vt 0.458333 0.432823
vt 0.479167 0.432823
vt 0.500000 0.432823
vt 0.520833 0.432823
vt 0.541667 0.432823
vt 0.562500 0.432823
vt 0.583333 0.432823
vt 0.604167 0.432823
vt 0.625000 0.432823
vt 0.645833 0.432823
vt 0.666667 0.432823
vt 0.687500 0.432823
vt 0.708333 0.432823
vt 0.729167 0.432823
vt 0.750000 0.432823
vt 0.270833 0.391050
vt 0.250000 0.391050
vt 0.291667 0.391050
vt 0.312500 0.391050
vt 0.333333 0.391050
vt 0.354167 0.391050
vt 0.375000 0.391050
vt 0.395833 0.391050
vt 0.416667 0.391050
vt 0.437500 0.391050
vt 0.458333 0.391050
vt 0.479167 0.391050
vt 0.500000 0.391050
vt 0.520833 0.391050
vt 0.541667 0.391050
vt 0.562500 0.391050
vt 0.583333 0.391050
vt 0.604167 0.391050
vt 0.625000 0.391050
vt 0.645833 0.391050
vt 0.666667 0.391050
vt 0.687500 0.391050
vt 0.708333 0.391050
vt 0.729167 0.391050
vt 0.750000 0.391050
vt 0.270833 0.353083
vt 0.250000 0.353083
vt 0.291667 0.353083
vt 0.312500 0.353083
vt 0.333333 0.353083
vt 0.354167 0.353083
vt 0.375000 0.353083
vt 0.395833 0.353083
vt 0.416667 0.353083
vt 0.437500 0.353083
vt 0.458333 0.353083
vt 0.479167 0.353083
vt 0.500000 0.353083
vt 0.520833 0.353083
vt 0.541667 0.353083
vt 0.562500 0.353083
vt 0.583333 0.353083
vt 0.604167 0.353083
vt 0.625000 0.353083
vt 0.645833 0.353083
vt 0.666667 0.353083
vt 0.687500 0.353083
vt 0.708333 0.353083
vt 0.729167 0.353083
vt 0.750000 0.353083
vt 0.270833 0.320164
vt 0.250000 0.320164
vt 0.291667 0.320164
vt 0.312500 0.320164
vt 0.333333 0.320164
vt 0.354167 0.320164
vt 0.375000 0.320164
vt 0.395833 0.320164
vt 0.416667 0.320164
vt 0.437500 0.320164
vt 0.458333 0.320164
vt 0.479167 0.320164
vt 0.500000 0.320164
vt 0.520833 0.320164
vt 0.541667 0.320164
vt 0.562500 0.320164
vt 0.583333 0.320164
vt 0.604167 0.320164
vt 0.625000 0.320164
vt 0.645833 0.320164
vt 0.666667 0.320164
vt 0.687500 0.320164
vt 0.708333 0.320164
vt 0.729167 0.320164
vt 0.750000 0.320164
vt 0.270833 0.293372
vt 0.250000 0.293372
vt 0.291667 0.293372
vt 0.312500 0.293372
vt 0.333333 0.293372
vt 0.354167 0.293372
vt 0.375000 0.293372
vt 0.395833 0.293372
vt 0.416667 0.293372
vt 0.437500 0.293372
vt 0.458333 0.293372
vt 0.479167 0.293372
vt 0.500000 0.293372
vt 0.520833 0.293372
vt 0.541667 0.293372
vt 0.562500 0.293372
vt 0.583333 0.293372
vt 0.604167 0.293372
vt 0.625000 0.293372
vt 0.645833 0.293372
vt 0.666667 0.293372
vt 0.687500 0.293372
vt 0.708333 0.293372
vt 0.729167 0.293372
vt 0.750000 0.293372
vt 0.270833 0.273583
vt 0.250000 0.273583
vt 0.291667 0.273583
vt 0.312500 0.273583
vt 0.333333 0.273583
vt 0.354167 0.273583
vt 0.375000 0.273583
vt 0.395833 0.273583
vt 0.416667 0.273583
vt 0.437500 0.273583
vt 0.458333 0.273583
vt 0.479167 0.273583
vt 0.500000 0.273583
vt 0.520833 0.273583
vt 0.541667 0.273583
vt 0.562500 0.273583
vt 0.583333 0.273583
vt 0.604167 0.273583
vt 0.625000 0.273583
vt 0.645833 0.273583
vt 0.666667 0.273583
vt 0.687500 0.273583
vt 0.708333 0.273583
vt 0.729167 0.273583
vt 0.750000 0.273583
vt 0.270833 0.261444
vt 0.250000 0.261444
vt 0.291667 0.261444
vt 0.312500 0.261444
vt 0.333333 0.261444
vt 0.354167 0.261444
vt 0.375000 0.261444
vt 0.395833 0.261444
vt 0.416667 0.261444
vt 0.437500 0.261444
vt 0.458333 0.261444
vt 0.479167 0.261444
vt 0.500000 0.261444
vt 0.520833 0.261444
vt 0.541667 0.261444
vt 0.562500 0.261444
vt 0.583333 0.261444
vt 0.604167 0.261444
vt 0.625000 0.261444
vt 0.645833 0.261444
vt 0.666667 0.261444
vt 0.687500 0.261444
vt 0.708333 0.261444
vt 0.729167 0.261444
vt 0.750000 0.261444
vt 0.260417 0.257353
vt 0.281250 0.257353
vt 0.302083 0.257353
vt 0.322917 0.257353
vt 0.343750 0.257353
vt 0.364583 0.257353
vt 0.385417 0.257353
vt 0.406250 0.257353
vt 0.427083 0.257353
vt 0.447917 0.257353
vt 0.468750 0.257353
vt 0.489583 0.257353
vt 0.510417 0.257353
vt 0.531250 0.257353
vt 0.552083 0.257353
vt 0.572917 0.257353
vt 0.593750 0.257353
vt 0.614583 0.257353
vt 0.635417 0.257353
vt 0.656250 0.257353
vt 0.677083 0.257353
vt 0.697917 0.257353
vt 0.718750 0.257353
vt 0.739583 0.257353
vt 0.500000 0.500000
vt 0.747861 0.467368
vt 0.730970 0.404329
vt 0.698338 0.347810
vt 0.652190 0.301662
vt 0.595671 0.269030
vt 0.532632 0.252139
vt 0.467368 0.252139
vt 0.404329 0.269030
vt 0.347810 0.301662
vt 0.301662 0.347810
vt 0.269030 0.404329
vt 0.252139 0.467368
vt 0.252139 0.532632
vt 0.269030 0.595671
vt 0.301662 0.652190
vt 0.347810 0.698338
vt 0.404329 0.730970
vt 0.467368 0.747861
vt 0.532632 0.747861
vt 0.595671 0.730970
vt 0.652190 0.698338
vt 0.698338 0.652190
vt 0.730970 0.595671
vt 0.747861 0.532632
vn 0.380335 -0.911332 0.157540
vn 0.302618 -0.944833 0.125349
vn 0.324749 -0.944833 0.042754
vn 0.408150 -0.911332 0.053734
vn 0.326601 -0.911332 0.250610
vn 0.259864 -0.944833 0.199401
vn 0.250610 -0.911332 0.326601
vn 0.199401 -0.944833 0.259864
vn 0.157540 -0.911332 0.380335
vn 0.125349 -0.944833 0.302618
vn 0.053734 -0.911332 0.408150
vn 0.042754 -0.944833 0.324749
vn -0.053734 -0.911332 0.408150
vn -0.042754 -0.944833 0.324749
vn -0.157540 -0.911332 0.380335
vn -0.125349 -0.944833 0.302618
vn -0.250610 -0.911332 0.326601
vn -0.199401 -0.944833 0.259864
vn -0.326601 -0.911332 0.250610
vn -0.259864 -0.944833 0.199401
vn -0.380335 -0.911332 0.157540
vn -0.302618 -0.944833 0.125349
vn -0.408150 -0.911332 0.053734
vn -0.324749 -0.944833 0.042754
vn -0.408150 -0.911332 -0.053734
vn -0.324749 -0.944833 -0.042754
vn -0.380335 -0.911332 -0.157540
vn -0.302618 -0.944833 -0.125349
vn -0.326601 -0.911332 -0.250610
vn -0.259864 -0.944833 -0.199401
vn -0.250610 -0.911332 -0.326601
vn -0.199401 -0.944833 -0.259864
vn -0.157540 -0.911332 -0.380335
vn -0.125349 -0.944833 -0.302618
vn -0.053734 -0.911332 -0.408150
vn -0.042754 -0.944833 -0.324749
vn 0.053734 -0.911332 -0.408150
vn 0.042754 -0.944833 -0.324749
vn 0.157540 -0.911332 -0.380335
vn 0.125349 -0.944833 -0.302618
vn 0.250610 -0.911332 -0.326601
vn 0.199401 -0.944833 -0.259864
vn 0.326601 -0.911332 -0.250610
vn 0.259864 -0.944833 -0.199401
vn 0.380335 -0.911332 -0.157540
vn 0.302618 -0.944833 -0.125349
vn 0.408150 -0.911332 -0.053734
vn 0.324749 -0.944833 -0.042754
vn 0.525803 -0.822251 0.217795
vn 0.564256 -0.822251 0.074286
vn 0.451517 -0.822251 0.346461
vn 0.346461 -0.822251 0.451517
vn 0.217795 -0.822251 0.525803
vn 0.074286 -0.822251 0.564256
vn -0.074286 -0.822251 0.564256
vn -0.217795 -0.822251 0.525803
vn -0.346461 -0.822251 0.451517
vn -0.451517 -0.822251 0.346461
vn -0.525803 -0.822251 0.217795
vn -0.564256 -0.822251 0.074286
vn -0.564256 -0.822251 -0.074286
vn -0.525803 -0.822251 -0.217795
vn -0.451517 -0.822251 -0.346461
vn -0.346461 -0.822251 -0.451517
vn -0.217795 -0.822251 -0.525803
vn -0.074286 -0.822251 -0.564256
vn 0.074286 -0.822251 -0.564256
vn 0.217795 -0.822251 -0.525803
vn 0.346461 -0.822251 -0.451517
vn 0.451517 -0.822251 -0.346461
vn 0.525803 -0.822251 -0.217795
vn 0.564256 -0.822251 -0.074286
vn 0.654063 -0.706260 0.270922
vn 0.701896 -0.706260 0.092406
vn 0.561657 -0.706260 0.430974
vn 0.430974 -0.706260 0.561657
vn 0.270922 -0.706260 0.654063
vn 0.092406 -0.706260 0.701896
vn -0.092406 -0.706260 0.701896
vn -0.270922 -0.706260 0.654063
vn -0.430974 -0.706260 0.561657
vn -0.561657 -0.706260 0.430974
vn -0.654063 -0.706260 0.270922
vn -0.701896 -0.706260 0.092406
vn -0.701896 -0.706260 -0.092406
vn -0.654063 -0.706260 -0.270922
vn -0.561657 -0.706260 -0.430974
vn -0.430974 -0.706260 -0.561657
vn -0.270922 -0.706260 -0.654063
vn -0.092406 -0.706260 -0.701896
vn 0.092406 -0.706260 -0.701896
vn 0.270922 -0.706260 -0.654063
vn 0.430974 -0.706260 -0.561657
vn 0.561657 -0.706260 -0.430974
vn 0.654063 -0.706260 -0.270922
vn 0.701896 -0.706260 -0.092406
vn 0.760917 -0.567155 0.315182
vn 0.816565 -0.567155 0.107503
vn 0.653415 -0.567155 0.501383
vn 0.501383 -0.567155 0.653415
vn 0.315182 -0.567155 0.760917
vn 0.107503 -0.567155 0.816565
vn -0.107503 -0.567155 0.816565
vn -0.315182 -0.567155 0.760917
vn -0.501383 -0.567155 0.653415
vn -0.653415 -0.567155 0.501383
vn -0.760917 -0.567155 0.315182
vn -0.816565 -0.567155 0.107503
vn -0.816565 -0.567155 -0.107503
vn -0.760917 -0.567155 -0.315182
vn -0.653415 -0.567155 -0.501383
vn -0.501383 -0.567155 -0.653415
vn -0.315182 -0.567155 -0.760917
vn -0.107503 -0.567155 -0.816565
vn 0.107503 -0.567155 -0.816565
vn 0.315182 -0.567155 -0.760917
vn 0.501383 -0.567155 -0.653415
vn 0.653415 -0.567155 -0.501383
vn 0.760917 -0.567155 -0.315182
vn 0.816565 -0.567155 -0.107503
vn 0.842869 -0.409489 0.349128
vn 0.904510 -0.409489 0.119081
vn 0.723788 -0.409489 0.555382
vn 0.555382 -0.409489 0.723788
vn 0.349128 -0.409489 0.842869
vn 0.119081 -0.409489 0.904510
vn -0.119081 -0.409489 0.904510
vn -0.349128 -0.409489 0.842869
vn -0.555382 -0.409489 0.723788
vn -0.723788 -0.409489 0.555382
vn -0.842869 -0.409489 0.349128
vn -0.904510 -0.409489 0.119081
vn -0.904510 -0.409489 -0.119081
vn -0.842869 -0.409489 -0.349128
vn -0.723788 -0.409489 -0.555382
vn -0.555382 -0.409489 -0.723788
vn -0.349128 -0.409489 -0.842869
vn -0.119081 -0.409489 -0.904510
vn 0.119081 -0.409489 -0.904510
vn 0.349128 -0.409489 -0.842869
vn 0.555382 -0.409489 -0.723788
vn 0.723788 -0.409489 -0.555382
vn 0.842869 -0.409489 -0.349128
vn 0.904510 -0.409489 -0.119081
vn 0.897236 -0.238422 0.371648
vn 0.962853 -0.238422 0.126762
vn 0.770474 -0.238422 0.591206
vn 0.591206 -0.238422 0.770474
vn 0.371648 -0.238422 0.897236
vn 0.126762 -0.238422 0.962853
vn -0.126762 -0.238422 0.962853
vn -0.371648 -0.238422 0.897236
vn -0.591206 -0.238422 0.770474
vn -0.770474 -0.238422 0.591206
vn -0.897236 -0.238422 0.371648
vn -0.962853 -0.238422 0.126762
vn -0.962853 -0.238422 -0.126762
vn -0.897236 -0.238422 -0.371648
vn -0.770474 -0.238422 -0.591206
vn -0.591206 -0.238422 -0.770474
vn -0.371648 -0.238422 -0.897236
vn -0.126762 -0.238422 -0.962853
vn 0.126762 -0.238422 -0.962853
vn 0.371648 -0.238422 -0.897236
vn 0.591206 -0.238422 -0.770474
vn 0.770474 -0.238422 -0.591206
vn 0.897236 -0.238422 -0.371648
vn 0.962853 -0.238422 -0.126762
vn 0.922240 -0.059551 0.382004
vn 0.989685 -0.059551 0.130295
vn 0.791945 -0.059551 0.607681
vn 0.607681 -0.059551 0.791945
vn 0.382004 -0.059551 0.922240
vn 0.130295 -0.059551 0.989685
vn -0.130295 -0.059551 0.989685
vn -0.382004 -0.059551 0.922240
vn -0.607681 -0.059551 0.791945
vn -0.791945 -0.059551 0.607681
vn -0.922240 -0.059551 0.382004
vn -0.989685 -0.059551 0.130295
vn -0.989685 -0.059551 -0.130295
vn -0.922240 -0.059551 -0.382004
vn -0.791945 -0.059551 -0.607681
vn -0.607681 -0.059551 -0.791945
vn -0.382004 -0.059551 -0.922240
vn -0.130295 -0.059551 -0.989685
vn 0.130295 -0.059551 -0.989685
vn 0.382004 -0.059551 -0.922240
vn 0.607681 -0.059551 -0.791945
vn 0.791945 -0.059551 -0.607681
vn 0.922240 -0.059551 -0.382004
vn 0.989685 -0.059551 -0.130295
vn 0.917061 0.121268 0.379859
vn 0.984128 0.121268 0.129563
vn 0.787498 0.121268 0.604269
vn 0.604269 0.121268 0.787498
vn 0.379859 0.121268 0.917061
vn 0.129563 0.121268 0.984128
vn -0.129563 0.121268 0.984128
vn -0.379859 0.121268 0.917061
vn -0.604269 0.121268 0.787498
vn -0.787498 0.121268 0.604269
vn -0.917061 0.121268 0.379859
vn -0.984128 0.121268 0.129563
vn -0.984128 0.121268 -0.129563
vn -0.917061 0.121268 -0.379859
vn -0.787498 0.121268 -0.604269
vn -0.604269 0.121268 -0.787498
vn -0.379859 0.121268 -0.917061
vn -0.129563 0.121268 -0.984128
vn 0.129563 0.121268 -0.984128
vn 0.379859 0.121268 -0.917061
vn 0.604269 0.121268 -0.787498
vn 0.787498 0.121268 -0.604269
vn 0.917061 0.121268 -0.379859
vn 0.984128 0.121268 -0.129563
vn 0.881870 0.298118 0.365282
vn 0.946363 0.298118 0.124591
vn 0.757279 0.298118 0.581080
vn 0.581080 0.298118 0.757279
vn 0.365282 0.298118 0.881870
vn 0.124591 0.298118 0.946363
vn -0.124591 0.298118 0.946363
vn -0.365282 0.298118 0.881870
vn -0.581080 0.298118 0.757279
vn -0.757279 0.298118 0.581080
vn -0.881870 0.298118 0.365282
vn -0.946363 0.298118 0.124591
vn -0.946363 0.298118 -0.124591
vn -0.881870 0.298118 -0.365282
vn -0.757279 0.298118 -0.581080
vn -0.581080 0.298118 -0.757279
vn -0.365282 0.298118 -0.881870
vn -0.124591 0.298118 -0.946363
vn 0.124591 0.298118 -0.946363
vn 0.365282 0.298118 -0.881870
vn 0.581080 0.298118 -0.757279
vn 0.757279 0.298118 -0.581080
vn 0.881870 0.298118 -0.365282
vn 0.946363 0.298118 -0.124591
vn 0.817817 0.465212 0.338751
vn 0.877626 0.465212 0.115542
vn 0.702276 0.465212 0.538875
vn 0.538875 0.465212 0.702276
vn 0.338751 0.465212 0.817817
vn 0.115542 0.465212 0.877626
vn -0.115542 0.465212 0.877626
vn -0.338751 0.465212 0.817817
vn -0.538875 0.465212 0.702276
vn -0.702276 0.465212 0.538875
vn -0.817817 0.465212 0.338751
vn -0.877626 0.465212 0.115542
vn -0.877626 0.465212 -0.115542
vn -0.817817 0.465212 -0.338751
vn -0.702276 0.465212 -0.538875
vn -0.538875 0.465212 -0.702276
vn -0.338751 0.465212 -0.817817
vn -0.115542 0.465212 -0.877626
vn 0.115542 0.465212 -0.877626
vn 0.338751 0.465212 -0.817817
vn 0.538875 0.465212 -0.702276
vn 0.702276 0.465212 -0.538875
vn 0.817817 0.465212 -0.338751
vn 0.877626 0.465212 -0.115542
vn 0.727000 0.617081 0.301133
vn 0.780167 0.617081 0.102711
vn 0.624289 0.617081 0.479034
vn 0.479034 0.617081 0.624289
vn 0.301133 0.617081 0.727000
vn 0.102711 0.617081 0.780167
vn -0.102711 0.617081 0.780167
vn -0.301133 0.617081 0.727000
vn -0.479034 0.617081 0.624289
vn -0.624289 0.617081 0.479034
vn -0.727000 0.617081 0.301133
vn -0.780167 0.617081 0.102711
vn -0.780167 0.617081 -0.102711
vn -0.727000 0.617081 -0.301133
vn -0.624289 0.617081 -0.479034
vn -0.479034 0.617081 -0.624289
vn -0.301133 0.617081 -0.727000
vn -0.102711 0.617081 -0.780167
vn 0.102711 0.617081 -0.780167
vn 0.301133 0.617081 -0.727000
vn 0.479034 0.617081 -0.624289
vn 0.624289 0.617081 -0.479034
vn 0.727000 0.617081 -0.301133
vn 0.780167 0.617081 -0.102711
vn 0.612391 0.748755 0.253661
vn 0.657176 0.748755 0.086519
vn 0.525872 0.748755 0.403516
vn 0.403516 0.748755 0.525872
vn 0.253661 0.748755 0.612391
vn 0.086519 0.748755 0.657176
vn -0.086519 0.748755 0.657176
vn -0.253661 0.748755 0.612391
vn -0.403516 0.748755 0.525872
vn -0.525872 0.748755 0.403516
vn -0.612391 0.748755 0.253661
vn -0.657176 0.748755 0.086519
vn -0.657176 0.748755 -0.086519
vn -0.612391 0.748755 -0.253661
vn -0.525872 0.748755 -0.403516
vn -0.403516 0.748755 -0.525872
vn -0.253661 0.748755 -0.612391
vn -0.086519 0.748755 -0.657176
vn 0.086519 0.748755 -0.657176
vn 0.253661 0.748755 -0.612391
vn 0.403516 0.748755 -0.525872
vn 0.525872 0.748755 -0.403516
vn 0.612391 0.748755 -0.253661
vn 0.657176 0.748755 -0.086519
vn 0.477739 0.855924 0.197886
vn 0.512678 0.855924 0.067495
vn 0.410244 0.855924 0.314791
vn 0.314791 0.855924 0.410244
vn 0.197886 0.855924 0.477739
vn 0.067495 0.855924 0.512678
vn -0.067495 0.855924 0.512678
vn -0.197886 0.855924 0.477739
vn -0.314791 0.855924 0.410244
vn -0.410244 0.855924 0.314791
vn -0.477739 0.855924 0.197886
vn -0.512678 0.855924 0.067495
vn -0.512678 0.855924 -0.067495
vn -0.477739 0.855924 -0.197886
vn -0.410244 0.855924 -0.314791
vn -0.314791 0.855924 -0.410244
vn -0.197886 0.855924 -0.477739
vn -0.067495 0.855924 -0.512678
vn 0.067495 0.855924 -0.512678
vn 0.197886 0.855924 -0.477739
vn 0.314791 0.855924 -0.410244
vn 0.410244 0.855924 -0.314791
vn 0.477739 0.855924 -0.197886
vn 0.512678 0.855924 -0.067495
vn 0.327453 0.935082 0.135636
vn 0.351400 0.935082 0.046263
vn 0.281190 0.935082 0.215765
vn 0.215765 0.935082 0.281190
vn 0.135636 0.935082 0.327453
vn 0.046263 0.935082 0.351400
vn -0.046263 0.935082 0.351400
vn -0.135636 0.935082 0.327453
vn -0.215765 0.935082 0.281190
vn -0.281190 0.935082 0.215765
vn -0.327453 0.935082 0.135636
vn -0.351400 0.935082 0.046263
vn -0.351400 0.935082 -0.046263
vn -0.327453 0.935082 -0.135636
vn -0.281190 0.935082 -0.215765
vn -0.215765 0.935082 -0.281190
vn -0.135636 0.935082 -0.327453
vn -0.046263 0.935082 -0.351400
vn 0.046263 0.935082 -0.351400
vn 0.135636 0.935082 -0.327453
vn 0.215765 0.935082 -0.281190
vn 0.281190 0.935082 -0.215765
vn 0.327453 0.935082 -0.135636
vn 0.351400 0.935082 -0.046263
vn 0.166450 0.983636 0.068946
vn 0.178623 0.983636 0.023516
vn 0.142934 0.983636 0.109677
vn 0.109677 0.983636 0.142934
vn 0.068946 0.983636 0.166450
vn 0.023516 0.983636 0.178623
vn -0.023516 0.983636 0.178623
vn -0.068946 0.983636 0.166450
vn -0.109677 0.983636 0.142934
vn -0.142934 0.983636 0.109677
vn -0.166450 0.983636 0.068946
vn -0.178623 0.983636 0.023516
vn -0.178623 0.983636 -0.023516
vn -0.166450 0.983636 -0.068946
vn -0.142934 0.983636 -0.109677
vn -0.109677 0.983636 -0.142934
vn -0.068946 0.983636 -0.166450
vn -0.023516 0.983636 -0.178623
vn 0.023516 0.983636 -0.178623
vn 0.068946 0.983636 -0.166450
vn 0.109677 0.983636 -0.142934
vn 0.142934 0.983636 -0.109677
vn 0.166450 0.983636 -0.068946
vn 0.178623 0.983636 -0.023516
vn 0.089679 0.995901 0.011806
vn 0.083568 0.995901 0.034615
vn 0.071761 0.995901 0.055064
vn 0.055064 0.995901 0.071761
vn 0.034615 0.995901 0.083568
vn 0.011806 0.995901 0.089679
vn -0.011806 0.995901 0.089679
vn -0.034615 0.995901 0.083568
vn -0.055064 0.995901 0.071761
vn -0.071761 0.995901 0.055064
vn -0.083568 0.995901 0.034615
vn -0.089679 0.995901 0.011806
vn -0.089679 0.995901 -0.011806
vn -0.083568 0.995901 -0.034615
vn -0.071761 0.995901 -0.055064
vn -0.055064 0.995901 -0.071761
vn -0.034615 0.995901 -0.083568
vn -0.011806 0.995901 -0.089679
vn 0.011806 0.995901 -0.089679
vn 0.034615 0.995901 -0.083568
vn 0.055064 0.995901 -0.071761
vn 0.071761 0.995901 -0.055064
vn 0.083568 0.995901 -0.034615
vn 0.089679 0.995901 -0.011806
vn 0.000000 -1.000000 0.000000
usemtl sphere
f 1/1/1 2/2/2 3/3/3
f 4/4/4 1/1/1 3/3/3
f 5/5/5 6/6/6 2/2/2
f 1/1/1 5/5/5 2/2/2
f 7/7/7 8/8/8 6/6/6
f 5/5/5 7/7/7 6/6/6
f 9/9/9 10/10/10 8/8/8
f 7/7/7 9/9/9 8/8/8
f 11/11/11 12/12/12 10/10/10
f 9/9/9 11/11/11 10/10/10
f 13/13/13 14/14/14 12/12/12
f 11/11/11 13/13/13 12/12/12
f 15/15/15 16/16/16 14/14/14
f 13/13/13 15/15/15 14/14/14
f 17/17/17 18/18/18 16/16/16
f 15/15/15 17/17/17 16/16/16
f 19/19/19 20/20/20 18/18/18
f 17/17/17 19/19/19 18/18/18
f 21/21/21 22/22/22 20/20/20
f 19/19/19 21/21/21 20/20/20
f 23/23/23 24/24/24 22/22/22
f 21/21/21 23/23/23 22/22/22
f 25/25/25 26/26/26 24/24/24
f 23/23/23 25/25/25 24/24/24
f 27/27/27 28/28/28 26/26/26
f 25/25/25 27/27/27 26/26/26
f 29/29/29 30/30/30 28/28/28
f 27/27/27 29/29/29 28/28/28
f 31/31/31 32/32/32 30/30/30
f 29/29/29 31/31/31 30/30/30
f 33/33/33 34/34/34 32/32/32
f 31/31/31 33/33/33 32/32/32
f 35/35/35 36/36/36 34/34/34
f 33/33/33 35/35/35 34/34/34
f 37/37/37 38/38/38 36/36/36
f 35/35/35 37/37/37 36/36/36
f 39/39/39 40/40/40 38/38/38
f 37/37/37 39/39/39 38/38/38
f 41/41/41 42/42/42 40/40/40
f 39/39/39 41/41/41 40/40/40
f 43/43/43 44/44/44 42/42/42
f 41/41/41 43/43/43 42/42/42
f 45/45/45 46/46/46 44/44/44
f 43/43/43 45/45/45 44/44/44
f 47/47/47 48/48/48 46/46/46
f 45/45/45 47/47/47 46/46/46
f 4/49/4 3/50/3 48/48/48
f 47/47/47 4/49/4 48/48/48
f 49/51/49 1/1/1 4/4/4
f 50/52/50 49/51/49 4/4/4
f 51/53/51 5/5/5 1/1/1
f 49/51/49 51/53/51 1/1/1
f 52/54/52 7/7/7 5/5/5
f 51/53/51 52/54/52 5/5/5
f 53/55/53 9/9/9 7/7/7
f 52/54/52 53/55/53 7/7/7
f 54/56/54 11/11/11 9/9/9
f 53/55/53 54/56/54 9/9/9
f 55/57/55 13/13/13 11/11/11
f 54/56/54 55/57/55 11/11/11
f 56/58/56 15/15/15 13/13/13
f 55/57/55 56/58/56 13/13/13
f 57/59/57 17/17/17 15/15/15
f 56/58/56 57/59/57 15/15/15
f 58/60/58 19/19/19 17/17/17
f 57/59/57 58/60/58 17/17/17
f 59/61/59 21/21/21 19/19/19
f 58/60/58 59/61/59 19/19/19
f 60/62/60 23/23/23 21/21/21
f 59/61/59 60/62/60 21/21/21
f 61/63/61 25/25/25 23/23/23
f 60/62/60 61/63/61 23/23/23
f 62/64/62 27/27/27 25/25/25
f 61/63/61 62/64/62 25/25/25
f 63/65/63 29/29/29 27/27/27
f 62/64/62 63/65/63 27/27/27
f 64/66/64 31/31/31 29/29/29
f 63/65/63 64/66/64 29/29/29
f 65/67/65 33/33/33 31/31/31
f 64/66/64 65/67/65 31/31/31
f 66/68/66 35/35/35 33/33/33
f 65/67/65 66/68/66 33/33/33
f 67/69/67 37/37/37 35/35/35
f 66/68/66 67/69/67 35/35/35
f 68/70/68 39/39/39 37/37/37
f 67/69/67 68/70/68 37/37/37
f 69/71/69 41/41/41 39/39/39
f 68/70/68 69/71/69 39/39/39
f 70/72/70 43/43/43 41/41/41
f 69/71/69 70/72/70 41/41/41
f 71/73/71 45/45/45 43/43/43
f 70/72/70 71/73/71 43/43/43
f 72/74/72 47/47/47 45/45/45
f 71/73/71 72/74/72 45/45/45
f 50/75/50 4/49/4 47/47/47
f 72/74/72 50/75/50 47/47/47
f 73/76/73 49/51/49 50/52/50
f 74/77/74 73/76/73 50/52/50
f 75/78/75 51/53/51 49/51/49
f 73/76/73 75/78/75 49/51/49
f 76/79/76 52/54/52 51/53/51
f 75/78/75 76/79/76 51/53/51
f 77/80/77 53/55/53 52/54/52
f 76/79/76 77/80/77 52/54/52
f 78/81/78 54/56/54 53/55/53
f 77/80/77 78/81/78 53/55/53
f 79/82/79 55/57/55 54/56/54
f 78/81/78 79/82/79 54/56/54
f 80/83/80 56/58/56 55/57/55
f 79/82/79 80/83/80 55/57/55
f 81/84/81 57/59/57 56/58/56
f 80/83/80 81/84/81 56/58/56
f 82/85/82 58/60/58 57/59/57
f 81/84/81 82/85/82 57/59/57
f 83/86/83 59/61/59 58/60/58
f 82/85/82 83/86/83 58/60/58
f 84/87/84 60/62/60 59/61/59
f 83/86/83 84/87/84 59/61/59
f 85/88/85 61/63/61 60/62/60
f 84/87/84 85/88/85 60/62/60
f 86/89/86 62/64/62 61/63/61
f 85/88/85 86/89/86 61/63/61
f 87/90/87 63/65/63 62/64/62
f 86/89/86 87/90/87 62/64/62
f 88/91/88 64/66/64 63/65/63
f 87/90/87 88/91/88 63/65/63
f 89/92/89 65/67/65 64/66/64
f 88/91/88 89/92/89 64/66/64
f 90/93/90 66/68/66 65/67/65
f 89/92/89 90/93/90 65/67/65
f 91/94/91 67/69/67 66/68/66
f 90/93/90 91/94/91 66/68/66
f 92/95/92 68/70/68 67/69/67
f 91/94/91 92/95/92 67/69/67
f 93/96/93 69/71/69 68/70/68
f 92/95/92 93/96/93 68/70/68
f 94/97/94 70/72/70 69/71/69
f 93/96/93 94/97/94 69/71/69
f 95/98/95 71/73/71 70/72/70
f 94/97/94 95/98/95 70/72/70
f 96/99/96 72/74/72 71/73/71
f 95/98/95 96/99/96 71/73/71
f 74/100/74 50/75/50 72/74/72
f 96/99/96 74/100/74 72/74/72
f 97/101/97 73/76/73 74/77/74
f 98/102/98 97/101/97 74/77/74
f 99/103/99 75/78/75 73/76/73
f 97/101/97 99/103/99 73/76/73
f 100/104/100 76/79/76 75/78/75
f 99/103/99 100/104/100 75/78/75
f 101/105/101 77/80/77 76/79/76
f 100/104/100 101/105/101 76/79/76
f 102/106/102 78/81/78 77/80/77
f 101/105/101 102/106/102 77/80/77
f 103/107/103 79/82/79 78/81/78
f 102/106/102 103/107/103 78/81/78
f 104/108/104 80/83/80 79/82/79
f 103/107/103 104/108/104 79/82/79
f 105/109/105 81/84/81 80/83/80
f 104/108/104 105/109/105 80/83/80
f 106/110/106 82/85/82 81/84/81
f 105/109/105 106/110/106 81/84/81
f 107/111/107 83/86/83 82/85/82
f 106/110/106 107/111/107 82/85/82
f 108/112/108 84/87/84 83/86/83
f 107/111/107 108/112/108 83/86/83
f 109/113/109 85/88/85 84/87/84
f 108/112/108 109/113/109 84/87/84
f 110/114/110 86/89/86 85/88/85
f 109/113/109 110/114/110 85/88/85
f 111/115/111 87/90/87 86/89/86
f 110/114/110 111/115/111 86/89/86
f 112/116/112 88/91/88 87/90/87
f 111/115/111 112/116/112 87/90/87
f 113/117/113 89/92/89 88/91/88
f 112/116/112 113/117/113 88/91/88
f 114/118/114 90/93/90 89/92/89
f 113/117/113 114/118/114 89/92/89
f 115/119/115 91/94/91 90/93/90
f 114/118/114 115/119/115 90/93/90
f 116/120/116 92/95/92 91/94/91
f 115/119/115 116/120/116 91/94/91
f 117/121/117 93/96/93 92/95/92
f 116/120/116 117/121/117 92/95/92
f 118/122/118 94/97/94 93/96/93
f 117/121/117 118/122/118 93/96/93
f 119/123/119 95/98/95 94/97/94
f 118/122/118 119/123/119 94/97/94
f 120/124/120 96/99/96 95/98/95
f 119/123/119 120/124/120 95/98/95
f 98/125/98 74/100/74 96/99/96
f 120/124/120 98/125/98 96/99/96
f 121/126/121 97/101/97 98/102/98
f 122/127/122 121/126/121 98/102/98
f 123/128/123 99/103/99 97/101/97
f 121/126/121 123/128/123 97/101/97
f 124/129/124 100/104/100 99/103/99
f 123/128/123 124/129/124 99/103/99
f 125/130/125 101/105/101 100/104/100
f 124/129/124 125/130/125 100/104/100
f 126/131/126 102/106/102 101/105/101
f 125/130/125 126/131/126 101/105/101
f 127/132/127 103/107/103 102/106/102
f 126/131/126 127/132/127 102/106/102
f 128/133/128 104/108/104 103/107/103
f 127/132/127 128/133/128 103/107/103
f 129/134/129 105/109/105 104/108/104
f 128/133/128 129/134/129 104/108/104
f 130/135/130 106/110/106 105/109/105
f 129/134/129 130/135/130 105/109/105
f 131/136/131 107/111/107 106/110/106
f 130/135/130 131/136/131 106/110/106
f 132/137/132 108/112/108 107/111/107
f 131/136/131 132/137/132 107/111/107
f 133/138/133 109/113/109 108/112/108
f 132/137/132 133/138/133 108/112/108
f 134/139/134 110/114/110 109/113/109
f 133/138/133 134/139/134 109/113/109
f 135/140/135 111/115/111 110/114/110
f 134/139/134 135/140/135 110/114/110
f 136/141/136 112/116/112 111/115/111
f 135/140/135 136/141/136 111/115/111
f 137/142/137 113/117/113 112/116/112
f 136/141/136 137/142/137 112/116/112
f 138/143/138 114/118/114 113/117/113
f 137/142/137 138/143/138 113/117/113
f 139/144/139 115/119/115 114/118/114
f 138/143/138 139/144/139 114/118/114
f 140/145/140 116/120/116 115/119/115
f 139/144/139 140/145/140 115/119/115
f 141/146/141 117/121/117 116/120/116
f 140/145/140 141/146/141 116/120/116
f 142/147/142 118/122/118 117/121/117
f 141/146/141 142/147/142 117/121/117
f 143/148/143 119/123/119 118/122/118
f 142/147/142 143/148/143 118/122/118
f 144/149/144 120/124/120 119/123/119
f 143/148/143 144/149/144 119/123/119
f 122/150/122 98/125/98 120/124/120
f 144/149/144 122/150/122 120/124/120
f 145/151/145 121/126/121 122/127/122
f 146/152/146 145/151/145 122/127/122
f 147/153/147 123/128/123 121/126/121
f 145/151/145 147/153/147 121/126/121
f 148/154/148 124/129/124 123/128/123
f 147/153/147 148/154/148 123/128/123
f 149/155/149 125/130/125 124/129/124
f 148/154/148 149/155/149 124/129/124
f 150/156/150 126/131/126 125/130/125
f 149/155/149 150/156/150 125/130/125
f 151/157/151 127/132/127 126/131/126
f 150/156/150 151/157/151 126/131/126
f 152/158/152 128/133/128 127/132/127
f 151/157/151 152/158/152 127/132/127
f 153/159/153 129/134/129 128/133/128
f 152/158/152 153/159/153 128/133/128
f 154/160/154 130/135/130 129/134/129
f 153/159/153 154/160/154 129/134/129
f 155/161/155 131/136/131 130/135/130
f 154/160/154 155/161/155 130/135/130
f 156/162/156 132/137/132 131/136/131
f 155/161/155 156/162/156 131/136/131
f 157/163/157 133/138/133 132/137/132
f 156/162/156 157/163/157 132/137/132
f 158/164/158 134/139/134 133/138/133
f 157/163/157 158/164/158 133/138/133
f 159/165/159 135/140/135 134/139/134
f 158/164/158 159/165/159 134/139/134
f 160/166/160 136/141/136 135/140/135
f 159/165/159 160/166/160 135/140/135
f 161/167/161 137/142/137 136/141/136
f 160/166/160 161/167/161 136/141/136
f 162/168/162 138/143/138 137/142/137
f 161/167/161 162/168/162 137/142/137
f 163/169/163 139/144/139 138/143/138
f 162/168/162 163/169/163 138/143/138
f 164/170/164 140/145/140 139/144/139
f 163/169/163 164/170/164 139/144/139
f 165/171/165 141/146/141 140/145/140
f 164/170/164 165/171/165 140/145/140
f 166/172/166 142/147/142 141/146/141
f 165/171/165 166/172/166 141/146/141
f 167/173/167 143/148/143 142/147/142
f 166/172/166 167/173/167 142/147/142
f 168/174/168 144/149/144 143/148/143
f 167/173/167 168/174/168 143/148/143
f 146/175/146 122/150/122 144/149/144
f 168/174/168 146/175/146 144/149/144
f 169/176/169 145/151/145 146/152/146
f 170/177/170 169/176/169 146/152/146
f 171/178/171 147/153/147 145/151/145
f 169/176/169 171/178/171 145/151/145
f 172/179/172 148/154/148 147/153/147
f 171/178/171 172/179/172 147/153/147
f 173/180/173 149/155/149 148/154/148
f 172/179/172 173/180/173 148/154/148
f 174/181/174 150/156/150 149/155/149
f 173/180/173 174/181/174 149/155/149
f 175/182/175 151/157/151 150/156/150
f 174/181/174 175/182/175 150/156/150
f 176/183/176 152/158/152 151/157/151
f 175/182/175 176/183/176 151/157/151
f 177/184/177 153/159/153 152/158/152
f 176/183/176 177/184/177 152/158/152
f 178/185/178 154/160/154 153/159/153
f 177/184/177 178/185/178 153/159/153
f 179/186/179 155/161/155 154/160/154
f 178/185/178 179/186/179 154/160/154
f 180/187/180 156/162/156 155/161/155
f 179/186/179 180/187/180 155/161/155
f 181/188/181 157/163/157 156/162/156
f 180/187/180 181/188/181 156/162/156
f 182/189/182 158/164/158 157/163/157
f 181/188/181 182/189/182 157/163/157
f 183/190/183 159/165/159 158/164/158
f 182/189/182 183/190/183 158/164/158
f 184/191/184 160/166/160 159/165/159
f 183/190/183 184/191/184 159/165/159
f 185/192/185 161/167/161 160/166/160
f 184/191/184 185/192/185 160/166/160
f 186/193/186 162/168/162 161/167/161
f 185/192/185 186/193/186 161/167/161
f 187/194/187 163/169/163 162/168/162
f 186/193/186 187/194/187 162/168/162
f 188/195/188 164/170/164 163/169/163
f 187/194/187 188/195/188 163/169/163
f 189/196/189 165/171/165 164/170/164
f 188/195/188 189/196/189 164/170/164
f 190/197/190 166/172/166 165/171/165
f 189/196/189 190/197/190 165/171/165
f 191/198/191 167/173/167 166/172/166
f 190/197/190 191/198/191 166/172/166
f 192/199/192 168/174/168 167/173/167
f 191/198/191 192/199/192 167/173/167
f 170/200/170 146/175/146 168/174/168
f 192/199/192 170/200/170 168/174/168
f 193/201/193 169/176/169 170/177/170
f 194/202/194 193/201/193 170/177/170
f 195/203/195 171/178/171 169/176/169
f 193/201/193 195/203/195 169/176/169
f 196/204/196 172/179/172 171/178/171
f 195/203/195 196/204/196 171/178/171
f 197/205/197 173/180/173 172/179/172
f 196/204/196 197/205/197 172/179/172
f 198/206/198 174/181/174 173/180/173
f 197/205/197 198/206/198 173/180/173
f 199/207/199 175/182/175 174/181/174
f 198/206/198 199/207/199 174/181/174
f 200/208/200 176/183/176 175/182/175
f 199/207/199 200/208/200 175/182/175
f 201/209/201 177/184/177 176/183/176
f 200/208/200 201/209/201 176/183/176
f 202/210/202 178/185/178 177/184/177
f 201/209/201 202/210/202 177/184/177
f 203/211/203 179/186/179 178/185/178
f 202/210/202 203/211/203 178/185/178
f 204/212/204 180/187/180 179/186/179
f 203/211/203 204/212/204 179/186/179
f 205/213/205 181/188/181 180/187/180
f 204/212/204 205/213/205 180/187/180
f 206/214/206 182/189/182 181/188/181
f 205/213/205 206/214/206 181/188/181
f 207/215/207 183/190/183 182/189/182
f 206/214/206 207/215/207 182/189/182
f 208/216/208 184/191/184 183/190/183
f 207/215/207 208/216/208 183/190/183
f 209/217/209 185/192/185 184/191/184
f 208/216/208 209/217/209 184/191/184
f 210/218/210 186/193/186 185/192/185
f 209/217/209 210/218/210 185/192/185
f 211/219/211 187/194/187 186/193/186
f 210/218/210 211/219/211 186/193/186
f 212/220/212 188/195/188 187/194/187
f 211/219/211 212/220/212 187/194/187
f 213/221/213 189/196/189 188/195/188
f 212/220/212 213/221/213 188/195/188
f 214/222/214 190/197/190 189/196/189
f 213/221/213 214/222/214 189/196/189
f 215/223/215 191/198/191 190/197/190
f 214/222/214 215/223/215 190/197/190
f 216/224/216 192/199/192 191/198/191
f 215/223/215 216/224/216 191/198/191
f 194/225/194 170/200/170 192/199/192
f 216/224/216 194/225/194 192/199/192
f 217/226/217 193/201/193 194/202/194
f 218/227/218 217/226/217 194/202/194
f 219/228/219 195/203/195 193/201/193
f 217/226/217 219/228/219 193/201/193
f 220/229/220 196/204/196 195/203/195
f 219/228/219 220/229/220 195/203/195
f 221/230/221 197/205/197 196/204/196
f 220/229/220 221/230/221 196/204/196
f 222/231/222 198/206/198 197/205/197
f 221/230/221 222/231/222 197/205/197
f 223/232/223 199/207/199 198/206/198
f 222/231/222 223/232/223 198/206/198
f 224/233/224 200/208/200 199/207/199
f 223/232/223 224/233/224 199/207/199
f 225/234/225 201/209/201 200/208/200
f 224/233/224 225/234/225 200/208/200
f 226/235/226 202/210/202 201/209/201
f 225/234/225 226/235/226 201/209/201
f 227/236/227 203/211/203 202/210/202
f 226/235/226 227/236/227 202/210/202
f 228/237/228 204/212/204 203/211/203
f 227/236/227 228/237/228 203/211/203
f 229/238/229 205/213/205 204/212/204
f 228/237/228 229/238/229 204/212/204
f 230/239/230 206/214/206 205/213/205
f 229/238/229 230/239/230 205/213/205
f 231/240/231 207/215/207 206/214/206
f 230/239/230 231/240/231 206/214/206
f 232/241/232 208/216/208 207/215/207
f 231/240/231 232/241/232 207/215/207
f 233/242/233 209/217/209 208/216/208
f 232/241/232 233/242/233 208/216/208
f 234/243/234 210/218/210 209/217/209
f 233/242/233 234/243/234 209/217/209
f 235/244/235 211/219/211 210/218/210
f 234/243/234 235/244/235 210/218/210
f 236/245/236 212/220/212 211/219/211
f 235/244/235 236/245/236 211/219/211
f 237/246/237 213/221/213 212/220/212
f 236/245/236 237/246/237 212/220/212
f 238/247/238 214/222/214 213/221/213
f 237/246/237 238/247/238 213/221/213
f 239/248/239 215/223/215 214/222/214
f 238/247/238 239/248/239 214/222/214
f 240/249/240 216/224/216 215/223/215
f 239/248/239 240/249/240 215/223/215
f 218/250/218 194/225/194 216/224/216
f 240/249/240 218/250/218 216/224/216
f 241/251/241 217/226/217 218/227/218
f 242/252/242 241/251/241 218/227/218
f 243/253/243 219/228/219 217/226/217
f 241/251/241 243/253/243 217/226/217
f 244/254/244 220/229/220 219/228/219
f 243/253/243 244/254/244 219/228/219
f 245/255/245 221/230/221 220/229/220
f 244/254/244 245/255/245 220/229/220
f 246/256/246 222/231/222 221/230/221
f 245/255/245 246/256/246 221/230/221
f 247/257/247 223/232/223 222/231/222
f 246/256/246 247/257/247 222/231/222
f 248/258/248 224/233/224 223/232/223
f 247/257/247 248/258/248 223/232/223
f 249/259/249 225/234/225 224/233/224
f 248/258/248 249/259/249 224/233/224
f 250/260/250 226/235/226 225/234/225
f 249/259/249 250/260/250 225/234/225
f 251/261/251 227/236/227 226/235/226
f 250/260/250 251/261/251 226/235/226
f 252/262/252 228/237/228 227/236/227
f 251/261/251 252/262/252 227/236/227
f 253/263/253 229/238/229 228/237/228
f 252/262/252 253/263/253 228/237/228
f 254/264/254 230/239/230 229/238/229
f 253/263/253 254/264/254 229/238/229
f 255/265/255 231/240/231 230/239/230
f 254/264/254 255/265/255 230/239/230
f 256/266/256 232/241/232 231/240/231
f 255/265/255 256/266/256 231/240/231
f 257/267/257 233/242/233 232/241/232
f 256/266/256 257/267/257 232/241/232
f 258/268/258 234/243/234 233/242/233
f 257/267/257 258/268/258 233/242/233
f 259/269/259 235/244/235 234/243/234
f 258/268/258 259/269/259 234/243/234
f 260/270/260 236/245/236 235/244/235
f 259/269/259 260/270/260 235/244/235
f 261/271/261 237/246/237 236/245/236
f 260/270/260 261/271/261 236/245/236
f 262/272/262 238/247/238 237/246/237
f 261/271/261 262/272/262 237/246/237
f 263/273/263 239/248/239 238/247/238
f 262/272/262 263/273/263 238/247/238
f 264/274/264 240/249/240 239/248/239
f 263/273/263 264/274/264 239/248/239
f 242/275/242 218/250/218 240/249/240
f 264/274/264 242/275/242 240/249/240
f 265/276/265 241/251/241 242/252/242
f 266/277/266 265/276/265 242/252/242
f 267/278/267 243/253/243 241/251/241
f 265/276/265 267/278/267 241/251/241
f 268/279/268 244/254/244 243/253/243
f 267/278/267 268/279/268 243/253/243
f 269/280/269 245/255/245 244/254/244
f 268/279/268 269/280/269 244/254/244
f 270/281/270 246/256/246 245/255/245
f 269/280/269 270/281/270 245/255/245
f 271/282/271 247/257/247 246/256/246
f 270/281/270 271/282/271 246/256/246
f 272/283/272 248/258/248 247/257/247
f 271/282/271 272/283/272 247/257/247
f 273/284/273 249/259/249 248/258/248
f 272/283/272 273/284/273 248/258/248
f 274/285/274 250/260/250 249/259/249
f 273/284/273 274/285/274 249/259/249
f 275/286/275 251/261/251 250/260/250
f 274/285/274 275/286/275 250/260/250
f 276/287/276 252/262/252 251/261/251
f 275/286/275 276/287/276 251/261/251
f 277/288/277 253/263/253 252/262/252
f 276/287/276 277/288/277 252/262/252
f 278/289/278 254/264/254 253/263/253
f 277/288/277 278/289/278 253/263/253
f 279/290/279 255/265/255 254/264/254
f 278/289/278 279/290/279 254/264/254
f 280/291/280 256/266/256 255/265/255
f 279/290/279 280/291/280 255/265/255
f 281/292/281 257/267/257 256/266/256
f 280/291/280 281/292/281 256/266/256
f 282/293/282 258/268/258 257/267/257
f 281/292/281 282/293/282 257/267/257
f 283/294/283 259/269/259 258/268/258
f 282/293/282 283/294/283 258/268/258
f 284/295/284 260/270/260 259/269/259
f 283/294/283 284/295/284 259/269/259
f 285/296/285 261/271/261 260/270/260
f 284/295/284 285/296/285 260/270/260
f 286/297/286 262/272/262 261/271/261
f 285/296/285 286/297/286 261/271/261
f 287/298/287 263/273/263 262/272/262
f 286/297/286 287/298/287 262/272/262
f 288/299/288 264/274/264 263/273/263
f 287/298/287 288/299/288 263/273/263
f 266/300/266 242/275/242 264/274/264
f 288/299/288 266/300/266 264/274/264
f 289/301/289 265/276/265 266/277/266
f 290/302/290 289/301/289 266/277/266
f 291/303/291 267/278/267 265/276/265
f 289/301/289 291/303/291 265/276/265
f 292/304/292 268/279/268 267/278/267
f 291/303/291 292/304/292 267/278/267
f 293/305/293 269/280/269 268/279/268
f 292/304/292 293/305/293 268/279/268
f 294/306/294 270/281/270 269/280/269
f 293/305/293 294/306/294 269/280/269
f 295/307/295 271/282/271 270/281/270
f 294/306/294 295/307/295 270/281/270
f 296/308/296 272/283/272 271/282/271
f 295/307/295 296/308/296 271/282/271
f 297/309/297 273/284/273 272/283/272
f 296/308/296 297/309/297 272/283/272
f 298/310/298 274/285/274 273/284/273
f 297/309/297 298/310/298 273/284/273
f 299/311/299 275/286/275 274/285/274
f 298/310/298 299/311/299 274/285/274
f 300/312/300 276/287/276 275/286/275
f 299/311/299 300/312/300 275/286/275
f 301/313/301 277/288/277 276/287/276
f 300/312/300 301/313/301 276/287/276
f 302/314/302 278/289/278 277/288/277
f 301/313/301 302/314/302 277/288/277
f 303/315/303 279/290/279 278/289/278
f 302/314/302 303/315/303 278/289/278
f 304/316/304 280/291/280 279/290/279
f 303/315/303 304/316/304 279/290/279
f 305/317/305 281/292/281 280/291/280
f 304/316/304 305/317/305 280/291/280
f 306/318/306 282/293/282 281/292/281
f 305/317/305 306/318/306 281/292/281
f 307/319/307 283/294/283 282/293/282
f 306/318/306 307/319/307 282/293/282
f 308/320/308 284/295/284 283/294/283
f 307/319/307 308/320/308 283/294/283
f 309/321/309 285/296/285 284/295/284
f 308/320/308 309/321/309 284/295/284
f 310/322/310 286/297/286 285/296/285
f 309/321/309 310/322/310 285/296/285
f 311/323/311 287/298/287 286/297/286
f 310/322/310 311/323/311 286/297/286
f 312/324/312 288/299/288 287/298/287
f 311/323/311 312/324/312 287/298/287
f 290/325/290 266/300/266 288/299/288
f 312/324/312 290/325/290 288/299/288
f 313/326/313 289/301/289 290/302/290
f 314/327/314 313/326/313 290/302/290
f 315/328/315 291/303/291 289/301/289
f 313/326/313 315/328/315 289/301/289
f 316/329/316 292/304/292 291/303/291
f 315/328/315 316/329/316 291/303/291
f 317/330/317 293/305/293 292/304/292
f 316/329/316 317/330/317 292/304/292
f 318/331/318 294/306/294 293/305/293
f 317/330/317 318/331/318 293/305/293
f 319/332/319 295/307/295 294/306/294
f 318/331/318 319/332/319 294/306/294
f 320/333/320 296/308/296 295/307/295
f 319/332/319 320/333/320 295/307/295
f 321/334/321 297/309/297 296/308/296
f 320/333/320 321/334/321 296/308/296
f 322/335/322 298/310/298 297/309/297
f 321/334/321 322/335/322 297/309/297
f 323/336/323 299/311/299 298/310/298
f 322/335/322 323/336/323 298/310/298
f 324/337/324 300/312/300 299/311/299
f 323/336/323 324/337/324 299/311/299
f 325/338/325 301/313/301 300/312/300
f 324/337/324 325/338/325 300/312/300
f 326/339/326 302/314/302 301/313/301
f 325/338/325 326/339/326 301/313/301
f 327/340/327 303/315/303 302/314/302
f 326/339/326 327/340/327 302/314/302
f 328/341/328 304/316/304 303/315/303
f 327/340/327 328/341/328 303/315/303
f 329/342/329 305/317/305 304/316/304
f 328/341/328 329/342/329 304/316/304
f 330/343/330 306/318/306 305/317/305
f 329/342/329 330/343/330 305/317/305
f 331/344/331 307/319/307 306/318/306
f 330/343/330 331/344/331 306/318/306
f 332/345/332 308/320/308 307/319/307
f 331/344/331 332/345/332 307/319/307
f 333/346/333 309/321/309 308/320/308
f 332/345/332 333/346/333 308/320/308
f 334/347/334 310/322/310 309/321/309
f 333/346/333 334/347/334 309/321/309
f 335/348/335 311/323/311 310/322/310
f 334/347/334 335/348/335 310/322/310
f 336/349/336 312/324/312 311/323/311
f 335/348/335 336/349/336 311/323/311
f 314/350/314 290/325/290 312/324/312
f 336/349/336 314/350/314 312/324/312
f 337/351/337 313/326/313 314/327/314
f 338/352/338 337/351/337 314/327/314
f 339/353/339 315/328/315 313/326/313
f 337/351/337 339/353/339 313/326/313
f 340/354/340 316/329/316 315/328/315
f 339/353/339 340/354/340 315/328/315
f 341/355/341 317/330/317 316/329/316
f 340/354/340 341/355/341 316/329/316
f 342/356/342 318/331/318 317/330/317
f 341/355/341 342/356/342 317/330/317
f 343/357/343 319/332/319 318/331/318
f 342/356/342 343/357/343 318/331/318
f 344/358/344 320/333/320 319/332/319
f 343/357/343 344/358/344 319/332/319
f 345/359/345 321/334/321 320/333/320
f 344/358/344 345/359/345 320/333/320
f 346/360/346 322/335/322 321/334/321
f 345/359/345 346/360/346 321/334/321
f 347/361/347 323/336/323 322/335/322
f 346/360/346 347/361/347 322/335/322
f 348/362/348 324/337/324 323/336/323
f 347/361/347 348/362/348 323/336/323
f 349/363/349 325/338/325 324/337/324
f 348/362/348 349/363/349 324/337/324
f 350/364/350 326/339/326 325/338/325
f 349/363/349 350/364/350 325/338/325
f 351/365/351 327/340/327 326/339/326
f 350/364/350 351/365/351 326/339/326
f 352/366/352 328/341/328 327/340/327
f 351/365/351 352/366/352 327/340/327
f 353/367/353 329/342/329 328/341/328
f 352/366/352 353/367/353 328/341/328
f 354/368/354 330/343/330 329/342/329
f 353/367/353 354/368/354 329/342/329
f 355/369/355 331/344/331 330/343/330
f 354/368/354 355/369/355 330/343/330
f 356/370/356 332/345/332 331/344/331
f 355/369/355 356/370/356 331/344/331
f 357/371/357 333/346/333 332/345/332
f 356/370/356 357/371/357 332/345/332
f 358/372/358 334/347/334 333/346/333
f 357/371/357 358/372/358 333/346/333
f 359/373/359 335/348/335 334/347/334
f 358/372/358 359/373/359 334/347/334
f 360/374/360 336/349/336 335/348/335
f 359/373/359 360/374/360 335/348/335
f 338/375/338 314/350/314 336/349/336
f 360/374/360 338/375/338 336/349/336
f 361/376/361 337/351/337 338/352/338
f 362/377/362 361/376/361 338/352/338
f 363/378/363 339/353/339 337/351/337
f 361/376/361 363/378/363 337/351/337
f 364/379/364 340/354/340 339/353/339
f 363/378/363 364/379/364 339/353/339
f 365/380/365 341/355/341 340/354/340
f 364/379/364 365/380/365 340/354/340
f 366/381/366 342/356/342 341/355/341
f 365/380/365 366/381/366 341/355/341
f 367/382/367 343/357/343 342/356/342
f 366/381/366 367/382/367 342/356/342
f 368/383/368 344/358/344 343/357/343
f 367/382/367 368/383/368 343/357/343
f 369/384/369 345/359/345 344/358/344
f 368/383/368 369/384/369 344/358/344
f 370/385/370 346/360/346 345/359/345
f 369/384/369 370/385/370 345/359/345
f 371/386/371 347/361/347 346/360/346
f 370/385/370 371/386/371 346/360/346
f 372/387/372 348/362/348 347/361/347
f 371/386/371 372/387/372 347/361/347
f 373/388/373 349/363/349 348/362/348
f 372/387/372 373/388/373 348/362/348
f 374/389/374 350/364/350 349/363/349
f 373/388/373 374/389/374 349/363/349
f 375/390/375 351/365/351 350/364/350
f 374/389/374 375/390/375 350/364/350
f 376/391/376 352/366/352 351/365/351
f 375/390/375 376/391/376 351/365/351
f 377/392/377 353/367/353 352/366/352
f 376/391/376 377/392/377 352/366/352
f 378/393/378 354/368/354 353/367/353
f 377/392/377 378/393/378 353/367/353
f 379/394/379 355/369/355 354/368/354
f 378/393/378 379/394/379 354/368/354
f 380/395/380 356/370/356 355/369/355
f 379/394/379 380/395/380 355/369/355
f 381/396/381 357/371/357 356/370/356
f 380/395/380 381/396/381 356/370/356
f 382/397/382 358/372/358 357/371/357
f 381/396/381 382/397/382 357/371/357
f 383/398/383 359/373/359 358/372/358
f 382/397/382 383/398/383 358/372/358
f 384/399/384 360/374/360 359/373/359
f 383/398/383 384/399/384 359/373/359
f 362/400/362 338/375/338 360/374/360
f 384/399/384 362/400/362 360/374/360
f 385/401/385 361/376/361 362/377/362
f 385/402/386 363/378/363 361/376/361
f 385/403/387 364/379/364 363/378/363
f 385/404/388 365/380/365 364/379/364
f 385/405/389 366/381/366 365/380/365
f 385/406/390 367/382/367 366/381/366
f 385/407/391 368/383/368 367/382/367
f 385/408/392 369/384/369 368/383/368
f 385/409/393 370/385/370 369/384/369
f 385/410/394 371/386/371 370/385/370
f 385/411/395 372/387/372 371/386/371
f 385/412/396 373/388/373 372/387/372
f 385/413/397 374/389/374 373/388/373
f 385/414/398 375/390/375 374/389/374
f 385/415/399 376/391/376 375/390/375
f 385/416/400 377/392/377 376/391/376
f 385/417/401 378/393/378 377/392/377
f 385/418/402 379/394/379 378/393/378
f 385/419/403 380/395/380 379/394/379
f 385/420/404 381/396/381 380/395/380
f 385/421/405 382/397/382 381/396/381
f 385/422/406 383/398/383 382/397/382
f 385/423/407 384/399/384 383/398/383
f 385/424/408 362/400/362 384/399/384
f 386/425/409 3/426/409 2/427/409
f 386/425/409 2/427/409 6/428/409
f 386/425/409 6/428/409 8/429/409
f 386/425/409 8/429/409 10/430/409
f 386/425/409 10/430/409 12/431/409
f 386/425/409 12/431/409 14/432/409
f 386/425/409 14/432/409 16/433/409
f 386/425/409 16/433/409 18/434/409
f 386/425/409 18/434/409 20/435/409
f 386/425/409 20/435/409 22/436/409
f 386/425/409 22/436/409 24/437/409
f 386/425/409 24/437/409 26/438/409
f 386/425/409 26/438/409 28/439/409
f 386/425/409 28/439/409 30/440/409
f 386/425/409 30/440/409 32/441/409
f 386/425/409 32/441/409 34/442/409
f 386/425/409 34/442/409 36/443/409
f 386/425/409 36/443/409 38/444/409
f 386/425/409 38/444/409 40/445/409
f 386/425/409 40/445/409 42/446/409
f 386/425/409 42/446/409 44/447/409
f 386/425/409 44/447/409 46/448/409
f 386/425/409 46/448/409 48/449/409
f 386/425/409 48/449/409 3/426/409
