# Procedurally generated by dev-env-utils/scripts/gen_mast_arm_curves.py
# cell 7 of 8 at (+5 along arm, +2 up)
mtllib mastarmcurve.mtl
o mastarm_6x2_c7
v 0.756250 0.444444 1.000000
v 0.755729 0.453318 0.916667
v 0.736263 0.550678 0.926583
v 0.736744 0.541907 1.010829
v 0.680828 0.633215 0.934990
v 0.681196 0.624532 1.020010
v 0.597863 0.688365 0.940607
v 0.598063 0.679741 1.026144
v 0.500000 0.707731 0.942579
v 0.500000 0.699127 1.028298
v 0.402137 0.688365 0.940607
v 0.401937 0.679741 1.026144
v 0.319172 0.633215 0.934990
v 0.318804 0.624532 1.020010
v 0.263737 0.550678 0.926583
v 0.263256 0.541907 1.010829
v 0.244271 0.453318 0.916667
v 0.243750 0.444444 1.000000
v 0.263737 0.355958 0.906750
v 0.263256 0.346982 0.989171
v 0.319172 0.273421 0.898344
v 0.318804 0.264357 0.979990
v 0.402137 0.218271 0.892727
v 0.401937 0.209148 0.973856
v 0.500000 0.198905 0.890754
v 0.500000 0.189762 0.971702
v 0.597863 0.218271 0.892727
v 0.598063 0.209148 0.973856
v 0.680828 0.273421 0.898344
v 0.681196 0.264357 0.979990
v 0.736263 0.355958 0.906750
v 0.736744 0.346982 0.989171
v 0.755208 0.461420 0.833333
v 0.735782 0.558668 0.842338
v 0.680460 0.641111 0.849971
v 0.597664 0.696197 0.855072
v 0.500000 0.715541 0.856863
v 0.402336 0.696197 0.855072
v 0.319540 0.641111 0.849971
v 0.264218 0.558668 0.842338
v 0.244792 0.461420 0.833333
v 0.264218 0.364172 0.824329
v 0.319540 0.281729 0.816695
v 0.402336 0.226642 0.811595
v 0.500000 0.207298 0.809804
v 0.597664 0.226642 0.811595
v 0.680460 0.281729 0.816695
v 0.735782 0.364172 0.824329
v 0.754687 0.468750 0.750000
v 0.735301 0.565878 0.758094
v 0.680091 0.648219 0.764956
v 0.597465 0.703238 0.769541
v 0.500000 0.722558 0.771151
v 0.402535 0.703238 0.769541
v 0.319909 0.648219 0.764956
v 0.264699 0.565878 0.758094
v 0.245312 0.468750 0.750000
v 0.264699 0.371622 0.741906
v 0.319909 0.289281 0.735044
v 0.402535 0.234262 0.730459
v 0.500000 0.214942 0.728849
v 0.597465 0.234262 0.730459
v 0.680091 0.289281 0.735044
v 0.735301 0.371622 0.741906
v 0.754167 0.475309 0.666667
v 0.734819 0.572308 0.673852
v 0.679723 0.654541 0.679943
v 0.597265 0.709486 0.684013
v 0.500000 0.728781 0.685442
v 0.402735 0.709486 0.684013
v 0.320277 0.654541 0.679943
v 0.265181 0.572308 0.673852
v 0.245833 0.475309 0.666667
v 0.265181 0.378309 0.659482
v 0.320277 0.296077 0.653390
v 0.402735 0.241131 0.649320
v 0.500000 0.221836 0.647891
v 0.597265 0.241131 0.649320
v 0.679723 0.296077 0.653390
v 0.734819 0.378309 0.659482
v 0.753646 0.481096 0.583333
v 0.734338 0.577958 0.589611
v 0.679355 0.660075 0.594934
v 0.597066 0.714943 0.598490
v 0.500000 0.734210 0.599739
v 0.402934 0.714943 0.598490
v 0.320645 0.660075 0.594934
v 0.265662 0.577958 0.589611
v 0.246354 0.481096 0.583333
v 0.265662 0.384233 0.577055
v 0.320645 0.302117 0.571733
v 0.402934 0.247248 0.568177
v 0.500000 0.227981 0.566928
v 0.597066 0.247248 0.568177
v 0.679355 0.302117 0.571733
v 0.734338 0.384233 0.577055
v 0.753125 0.486111 0.500000
v 0.733857 0.582829 0.505373
v 0.678986 0.664822 0.509928
v 0.596867 0.719608 0.512972
v 0.500000 0.738846 0.514041
v 0.403133 0.719608 0.512972
v 0.321014 0.664822 0.509928
v 0.266143 0.582829 0.505373
v 0.246875 0.486111 0.500000
v 0.266143 0.389394 0.494627
v 0.321014 0.307400 0.490072
v 0.403133 0.252614 0.487028
v 0.500000 0.233376 0.485959
v 0.596867 0.252614 0.487028
v 0.678986 0.307400 0.490072
v 0.733857 0.389394 0.494627
v 0.752604 0.490355 0.416667
v 0.733376 0.586919 0.421137
v 0.678618 0.668782 0.424927
v 0.596667 0.723481 0.427460
v 0.500000 0.742689 0.428349
v 0.403333 0.723481 0.427460
v 0.321382 0.668782 0.424927
v 0.266624 0.586919 0.421137
v 0.247396 0.490355 0.416667
v 0.266624 0.393791 0.412196
v 0.321382 0.311928 0.408406
v 0.403333 0.257229 0.405874
v 0.500000 0.238021 0.404985
v 0.596667 0.257229 0.405874
v 0.678618 0.311928 0.408406
v 0.733376 0.393791 0.412196
v 0.752083 0.493827 0.333333
v 0.732895 0.590229 0.336904
v 0.678250 0.671955 0.339931
v 0.596468 0.726562 0.341953
v 0.500000 0.745738 0.342663
v 0.403532 0.726562 0.341953
v 0.321750 0.671955 0.339931
v 0.267105 0.590229 0.336904
v 0.247917 0.493827 0.333333
v 0.267105 0.397425 0.329763
v 0.321750 0.315699 0.326736
v 0.403532 0.261092 0.324714
v 0.500000 0.241917 0.324003
v 0.596468 0.261092 0.324714
v 0.678250 0.315699 0.326736
v 0.732895 0.397425 0.329763
v 0.751563 0.496528 0.250000
v 0.732413 0.592759 0.252673
v 0.677882 0.674341 0.254939
v 0.596269 0.728852 0.256453
v 0.500000 0.747993 0.256985
v 0.403731 0.728852 0.256453
v 0.322118 0.674341 0.254939
v 0.267587 0.592759 0.252673
v 0.248437 0.496528 0.250000
v 0.267587 0.400296 0.247327
v 0.322118 0.318715 0.245061
v 0.403731 0.264204 0.243547
v 0.500000 0.245062 0.243015
v 0.596269 0.264204 0.243547
v 0.677882 0.318715 0.245061
v 0.732413 0.400296 0.247327
v 0.751042 0.498457 0.166667
v 0.731932 0.594510 0.168445
v 0.677513 0.675940 0.169953
v 0.596069 0.730349 0.170961
v 0.500000 0.749455 0.171315
v 0.403931 0.730349 0.170961
v 0.322487 0.675940 0.169953
v 0.268068 0.594510 0.168445
v 0.248958 0.498457 0.166667
v 0.268068 0.402404 0.164888
v 0.322487 0.320974 0.163380
v 0.403931 0.266564 0.162372
v 0.500000 0.247458 0.162019
v 0.596069 0.266564 0.162372
v 0.677513 0.320974 0.163380
v 0.731932 0.402404 0.164888
v 0.750521 0.499614 0.083333
v 0.731451 0.595480 0.084221
v 0.677145 0.676752 0.084973
v 0.595870 0.731055 0.085476
v 0.500000 0.750124 0.085653
v 0.404130 0.731055 0.085476
v 0.322855 0.676752 0.084973
v 0.268549 0.595480 0.084221
v 0.249479 0.499614 0.083333
v 0.268549 0.403748 0.082446
v 0.322855 0.322477 0.081693
v 0.404130 0.268173 0.081190
v 0.500000 0.249104 0.081014
v 0.595870 0.268173 0.081190
v 0.677145 0.322477 0.081693
v 0.731451 0.403748 0.082446
v 0.750004 0.500000 0.000625
v 0.730973 0.595672 0.000632
v 0.676779 0.676779 0.000637
v 0.595672 0.730973 0.000641
v 0.500000 0.750004 0.000642
v 0.404328 0.730973 0.000641
v 0.323221 0.676779 0.000637
v 0.269027 0.595672 0.000632
v 0.249996 0.500000 0.000625
v 0.269027 0.404328 0.000618
v 0.323221 0.323221 0.000613
v 0.404328 0.269026 0.000609
v 0.500000 0.249996 0.000608
v 0.595672 0.269026 0.000609
v 0.676779 0.323221 0.000613
v 0.730973 0.404328 0.000618
v 0.500000 0.500000 0.000625
vt 0.250000 0.431512
vt 0.250000 0.473414
vt 0.281250 0.473414
vt 0.281250 0.431512
vt 0.312500 0.473414
vt 0.312500 0.431512
vt 0.343750 0.473414
vt 0.343750 0.431512
vt 0.375000 0.473414
vt 0.375000 0.431512
vt 0.406250 0.473414
vt 0.406250 0.431512
vt 0.437500 0.473414
vt 0.437500 0.431512
vt 0.468750 0.473414
vt 0.468750 0.431512
vt 0.500000 0.473414
vt 0.500000 0.431512
vt 0.531250 0.473414
vt 0.531250 0.431512
vt 0.562500 0.473414
vt 0.562500 0.431512
vt 0.593750 0.473414
vt 0.593750 0.431512
vt 0.625000 0.473414
vt 0.625000 0.431512
vt 0.656250 0.473414
vt 0.656250 0.431512
vt 0.687500 0.473414
vt 0.687500 0.431512
vt 0.718750 0.473414
vt 0.718750 0.431512
vt 0.750000 0.473414
vt 0.750000 0.431512
vt 0.250000 0.515278
vt 0.281250 0.515278
vt 0.312500 0.515278
vt 0.343750 0.515278
vt 0.375000 0.515278
vt 0.406250 0.515278
vt 0.437500 0.515278
vt 0.468750 0.515278
vt 0.500000 0.515278
vt 0.531250 0.515278
vt 0.562500 0.515278
vt 0.593750 0.515278
vt 0.625000 0.515278
vt 0.656250 0.515278
vt 0.687500 0.515278
vt 0.718750 0.515278
vt 0.750000 0.515278
vt 0.250000 0.557105
vt 0.281250 0.557105
vt 0.312500 0.557105
vt 0.343750 0.557105
vt 0.375000 0.557105
vt 0.406250 0.557105
vt 0.437500 0.557105
vt 0.468750 0.557105
vt 0.500000 0.557105
vt 0.531250 0.557105
vt 0.562500 0.557105
vt 0.593750 0.557105
vt 0.625000 0.557105
vt 0.656250 0.557105
vt 0.687500 0.557105
vt 0.718750 0.557105
vt 0.750000 0.557105
vt 0.250000 0.598901
vt 0.281250 0.598901
vt 0.312500 0.598901
vt 0.343750 0.598901
vt 0.375000 0.598901
vt 0.406250 0.598901
vt 0.437500 0.598901
vt 0.468750 0.598901
vt 0.500000 0.598901
vt 0.531250 0.598901
vt 0.562500 0.598901
vt 0.593750 0.598901
vt 0.625000 0.598901
vt 0.656250 0.598901
vt 0.687500 0.598901
vt 0.718750 0.598901
vt 0.750000 0.598901
vt 0.250000 0.640668
vt 0.281250 0.640668
vt 0.312500 0.640668
vt 0.343750 0.640668
vt 0.375000 0.640668
vt 0.406250 0.640668
vt 0.437500 0.640668
vt 0.468750 0.640668
vt 0.500000 0.640668
vt 0.531250 0.640668
vt 0.562500 0.640668
vt 0.593750 0.640668
vt 0.625000 0.640668
vt 0.656250 0.640668
vt 0.687500 0.640668
vt 0.718750 0.640668
vt 0.750000 0.640668
vt 0.250000 0.682410
vt 0.281250 0.682410
vt 0.312500 0.682410
vt 0.343750 0.682410
vt 0.375000 0.682410
vt 0.406250 0.682410
vt 0.437500 0.682410
vt 0.468750 0.682410
vt 0.500000 0.682410
vt 0.531250 0.682410
vt 0.562500 0.682410
vt 0.593750 0.682410
vt 0.625000 0.682410
vt 0.656250 0.682410
vt 0.687500 0.682410
vt 0.718750 0.682410
vt 0.750000 0.682410
vt 0.250000 0.724130
vt 0.281250 0.724130
vt 0.312500 0.724130
vt 0.343750 0.724130
vt 0.375000 0.724130
vt 0.406250 0.724130
vt 0.437500 0.724130
vt 0.468750 0.724130
vt 0.500000 0.724130
vt 0.531250 0.724130
vt 0.562500 0.724130
vt 0.593750 0.724130
vt 0.625000 0.724130
vt 0.656250 0.724130
vt 0.687500 0.724130
vt 0.718750 0.724130
vt 0.750000 0.724130
vt 0.250000 0.734167
vt 0.281250 0.734167
vt 0.312500 0.734167
vt 0.343750 0.734167
vt 0.375000 0.734167
vt 0.406250 0.734167
vt 0.437500 0.734167
vt 0.468750 0.734167
vt 0.500000 0.734167
vt 0.531250 0.734167
vt 0.562500 0.734167
vt 0.593750 0.734167
vt 0.625000 0.734167
vt 0.656250 0.734167
vt 0.687500 0.734167
vt 0.718750 0.734167
vt 0.750000 0.734167
vt 0.250000 0.692478
vt 0.281250 0.692478
vt 0.312500 0.692478
vt 0.343750 0.692478
vt 0.375000 0.692478
vt 0.406250 0.692478
vt 0.437500 0.692478
vt 0.468750 0.692478
vt 0.500000 0.692478
vt 0.531250 0.692478
vt 0.562500 0.692478
vt 0.593750 0.692478
vt 0.625000 0.692478
vt 0.656250 0.692478
vt 0.687500 0.692478
vt 0.718750 0.692478
vt 0.750000 0.692478
vt 0.250000 0.650800
vt 0.281250 0.650800
vt 0.312500 0.650800
vt 0.343750 0.650800
vt 0.375000 0.650800
vt 0.406250 0.650800
vt 0.437500 0.650800
vt 0.468750 0.650800
vt 0.500000 0.650800
vt 0.531250 0.650800
vt 0.562500 0.650800
vt 0.593750 0.650800
vt 0.625000 0.650800
vt 0.656250 0.650800
vt 0.687500 0.650800
vt 0.718750 0.650800
vt 0.750000 0.650800
vt 0.250000 0.609130
vt 0.281250 0.609130
vt 0.312500 0.609130
vt 0.343750 0.609130
vt 0.375000 0.609130
vt 0.406250 0.609130
vt 0.437500 0.609130
vt 0.468750 0.609130
vt 0.500000 0.609130
vt 0.531250 0.609130
vt 0.562500 0.609130
vt 0.593750 0.609130
vt 0.625000 0.609130
vt 0.656250 0.609130
vt 0.687500 0.609130
vt 0.718750 0.609130
vt 0.750000 0.609130
vt 0.250000 0.567775
vt 0.281250 0.567775
vt 0.312500 0.567775
vt 0.343750 0.567775
vt 0.375000 0.567775
vt 0.406250 0.567775
vt 0.437500 0.567775
vt 0.468750 0.567775
vt 0.500000 0.567775
vt 0.531250 0.567775
vt 0.562500 0.567775
vt 0.593750 0.567775
vt 0.625000 0.567775
vt 0.656250 0.567775
vt 0.687500 0.567775
vt 0.718750 0.567775
vt 0.750000 0.567775
vt 0.500000 0.500000
vt 0.684776 0.423463
vt 0.700000 0.500000
vt 0.641421 0.358579
vt 0.576537 0.315224
vt 0.500000 0.300000
vt 0.423463 0.315224
vt 0.358579 0.358579
vt 0.315224 0.423463
vt 0.300000 0.500000
vt 0.315224 0.576537
vt 0.358579 0.641421
vt 0.423463 0.684776
vt 0.500000 0.700000
vt 0.576537 0.684776
vt 0.641421 0.641421
vt 0.684776 0.576537
vn 1.000000 0.000000 0.000000
vn 0.923880 0.380714 0.038776
vn 0.923880 0.380343 0.042260
vn 0.707107 0.703467 0.071649
vn 0.707107 0.702782 0.078087
vn 0.382683 0.919124 0.093615
vn 0.382683 0.918229 0.102025
vn 0.000000 0.994853 0.101328
vn 0.000000 0.993884 0.110432
vn -0.382683 0.919124 0.093615
vn -0.382683 0.918229 0.102025
vn -0.707107 0.703467 0.071649
vn -0.707107 0.702782 0.078087
vn -0.923880 0.380714 0.038776
vn -0.923880 0.380343 0.042260
vn -1.000000 0.000000 0.000000
vn -0.923880 -0.380714 -0.038776
vn -0.923880 -0.380343 -0.042260
vn -0.707107 -0.703467 -0.071649
vn -0.707107 -0.702782 -0.078087
vn -0.382683 -0.919124 -0.093615
vn -0.382683 -0.918229 -0.102025
vn -0.000000 -0.994853 -0.101328
vn -0.000000 -0.993884 -0.110432
vn 0.382683 -0.919124 -0.093615
vn 0.382683 -0.918229 -0.102025
vn 0.707107 -0.703467 -0.071649
vn 0.707107 -0.702782 -0.078087
vn 0.923880 -0.380714 -0.038776
vn 0.923880 -0.380343 -0.042260
vn 0.923880 0.381053 0.035283
vn 0.707107 0.704095 0.065194
vn 0.382683 0.919944 0.085180
vn 0.000000 0.995741 0.092198
vn -0.382683 0.919944 0.085180
vn -0.707107 0.704095 0.065194
vn -0.923880 0.381053 0.035283
vn -0.923880 -0.381053 -0.035283
vn -0.707107 -0.704095 -0.065194
vn -0.382683 -0.919944 -0.085180
vn -0.000000 -0.995741 -0.092198
vn 0.382683 -0.919944 -0.085180
vn 0.707107 -0.704095 -0.065194
vn 0.923880 -0.381053 -0.035283
vn 0.923880 0.381362 0.031780
vn 0.707107 0.704664 0.058722
vn 0.382683 0.920688 0.076724
vn 0.000000 0.996546 0.083045
vn -0.382683 0.920688 0.076724
vn -0.707107 0.704664 0.058722
vn -0.923880 0.381362 0.031780
vn -0.923880 -0.381362 -0.031780
vn -0.707107 -0.704664 -0.058722
vn -0.382683 -0.920688 -0.076724
vn -0.000000 -0.996546 -0.083045
vn 0.382683 -0.920688 -0.076724
vn 0.707107 -0.704664 -0.058722
vn 0.923880 -0.381362 -0.031780
vn 0.923880 0.381638 0.028269
vn 0.707107 0.705175 0.052235
vn 0.382683 0.921355 0.068249
vn 0.000000 0.997268 0.073872
vn -0.382683 0.921355 0.068249
vn -0.707107 0.705175 0.052235
vn -0.923880 0.381638 0.028269
vn -0.923880 -0.381638 -0.028269
vn -0.707107 -0.705175 -0.052235
vn -0.382683 -0.921355 -0.068249
vn -0.000000 -0.997268 -0.073872
vn 0.382683 -0.921355 -0.068249
vn 0.707107 -0.705175 -0.052235
vn 0.923880 -0.381638 -0.028269
vn 0.923880 0.381882 0.024752
vn 0.707107 0.705626 0.045735
vn 0.382683 0.921945 0.059756
vn 0.000000 0.997906 0.064679
vn -0.382683 0.921945 0.059756
vn -0.707107 0.705626 0.045735
vn -0.923880 0.381882 0.024752
vn -0.923880 -0.381882 -0.024752
vn -0.707107 -0.705626 -0.045735
vn -0.382683 -0.921945 -0.059756
vn -0.000000 -0.997906 -0.064679
vn 0.382683 -0.921945 -0.059756
vn 0.707107 -0.705626 -0.045735
vn 0.923880 -0.381882 -0.024752
vn 0.923880 0.382094 0.021227
vn 0.707107 0.706018 0.039223
vn 0.382683 0.922457 0.051248
vn 0.000000 0.998460 0.055470
vn -0.382683 0.922457 0.051248
vn -0.707107 0.706018 0.039223
vn -0.923880 0.382094 0.021227
vn -0.923880 -0.382094 -0.021227
vn -0.707107 -0.706018 -0.039223
vn -0.382683 -0.922457 -0.051248
vn -0.000000 -0.998460 -0.055470
vn 0.382683 -0.922457 -0.051248
vn 0.707107 -0.706018 -0.039223
vn 0.923880 -0.382094 -0.021227
vn 0.923880 0.382274 0.017698
vn 0.707107 0.706350 0.032701
vn 0.382683 0.922891 0.042726
vn 0.000000 0.998930 0.046247
vn -0.382683 0.922891 0.042726
vn -0.707107 0.706350 0.032701
vn -0.923880 0.382274 0.017698
vn -0.923880 -0.382274 -0.017698
vn -0.707107 -0.706350 -0.032701
vn -0.382683 -0.922891 -0.042726
vn -0.000000 -0.998930 -0.046247
vn 0.382683 -0.922891 -0.042726
vn 0.707107 -0.706350 -0.032701
vn 0.923880 -0.382274 -0.017698
vn 0.923880 0.382421 0.014164
vn 0.707107 0.706622 0.026171
vn 0.382683 0.923247 0.034194
vn 0.000000 0.999315 0.037012
vn -0.382683 0.923247 0.034194
vn -0.707107 0.706622 0.026171
vn -0.923880 0.382421 0.014164
vn -0.923880 -0.382421 -0.014164
vn -0.707107 -0.706622 -0.026171
vn -0.382683 -0.923247 -0.034194
vn -0.000000 -0.999315 -0.037012
vn 0.382683 -0.923247 -0.034194
vn 0.707107 -0.706622 -0.026171
vn 0.923880 -0.382421 -0.014164
vn 0.923880 0.382536 0.010626
vn 0.707107 0.706834 0.019634
vn 0.382683 0.923523 0.025653
vn 0.000000 0.999614 0.027767
vn -0.382683 0.923523 0.025653
vn -0.707107 0.706834 0.019634
vn -0.923880 0.382536 0.010626
vn -0.923880 -0.382536 -0.010626
vn -0.707107 -0.706834 -0.019634
vn -0.382683 -0.923523 -0.025653
vn -0.000000 -0.999614 -0.027767
vn 0.382683 -0.923523 -0.025653
vn 0.707107 -0.706834 -0.019634
vn 0.923880 -0.382536 -0.010626
vn 0.923880 0.382618 0.007086
vn 0.707107 0.706986 0.013092
vn 0.382683 0.923721 0.017106
vn 0.000000 0.999829 0.018515
vn -0.382683 0.923721 0.017106
vn -0.707107 0.706986 0.013092
vn -0.923880 0.382618 0.007086
vn -0.923880 -0.382618 -0.007086
vn -0.707107 -0.706986 -0.013092
vn -0.382683 -0.923721 -0.017106
vn -0.000000 -0.999829 -0.018515
vn 0.382683 -0.923721 -0.017106
vn 0.707107 -0.706986 -0.013092
vn 0.923880 -0.382618 -0.007086
vn 0.923880 0.382667 0.003543
vn 0.707107 0.707076 0.006547
vn 0.382683 0.923840 0.008554
vn 0.000000 0.999957 0.009259
vn -0.382683 0.923840 0.008554
vn -0.707107 0.707076 0.006547
vn -0.923880 0.382667 0.003543
vn -0.923880 -0.382667 -0.003543
vn -0.707107 -0.707076 -0.006547
vn -0.382683 -0.923840 -0.008554
vn -0.000000 -0.999957 -0.009259
vn 0.382683 -0.923840 -0.008554
vn 0.707107 -0.707076 -0.006547
vn 0.923880 -0.382667 -0.003543
vn 0.923880 0.382683 0.000027
vn 0.707107 0.707107 0.000049
vn 0.382683 0.923880 0.000064
vn 0.000000 1.000000 0.000069
vn -0.382683 0.923880 0.000064
vn -0.707107 0.707107 0.000049
vn -0.923880 0.382683 0.000027
vn -0.923880 -0.382683 -0.000027
vn -0.707107 -0.707107 -0.000049
vn -0.382683 -0.923880 -0.000064
vn -0.000000 -1.000000 -0.000069
vn 0.382683 -0.923880 -0.000064
vn 0.707107 -0.707107 -0.000049
vn 0.923880 -0.382683 -0.000027
vn 0.000000 0.000000 -1.000000
usemtl body
f 1/1/1 2/2/1 3/3/2
f 1/1/1 3/3/2 4/4/3
f 4/4/3 3/3/2 5/5/4
f 4/4/3 5/5/4 6/6/5
f 6/6/5 5/5/4 7/7/6
f 6/6/5 7/7/6 8/8/7
f 8/8/7 7/7/6 9/9/8
f 8/8/7 9/9/8 10/10/9
f 10/10/9 9/9/8 11/11/10
f 10/10/9 11/11/10 12/12/11
f 12/12/11 11/11/10 13/13/12
f 12/12/11 13/13/12 14/14/13
f 14/14/13 13/13/12 15/15/14
f 14/14/13 15/15/14 16/16/15
f 16/16/15 15/15/14 17/17/16
f 16/16/15 17/17/16 18/18/16
f 18/18/16 17/17/16 19/19/17
f 18/18/16 19/19/17 20/20/18
f 20/20/18 19/19/17 21/21/19
f 20/20/18 21/21/19 22/22/20
f 22/22/20 21/21/19 23/23/21
f 22/22/20 23/23/21 24/24/22
f 24/24/22 23/23/21 25/25/23
f 24/24/22 25/25/23 26/26/24
f 26/26/24 25/25/23 27/27/25
f 26/26/24 27/27/25 28/28/26
f 28/28/26 27/27/25 29/29/27
f 28/28/26 29/29/27 30/30/28
f 30/30/28 29/29/27 31/31/29
f 30/30/28 31/31/29 32/32/30
f 32/32/30 31/31/29 2/33/1
f 32/32/30 2/33/1 1/34/1
f 2/2/1 33/35/1 34/36/31
f 2/2/1 34/36/31 3/3/2
f 3/3/2 34/36/31 35/37/32
f 3/3/2 35/37/32 5/5/4
f 5/5/4 35/37/32 36/38/33
f 5/5/4 36/38/33 7/7/6
f 7/7/6 36/38/33 37/39/34
f 7/7/6 37/39/34 9/9/8
f 9/9/8 37/39/34 38/40/35
f 9/9/8 38/40/35 11/11/10
f 11/11/10 38/40/35 39/41/36
f 11/11/10 39/41/36 13/13/12
f 13/13/12 39/41/36 40/42/37
f 13/13/12 40/42/37 15/15/14
f 15/15/14 40/42/37 41/43/16
f 15/15/14 41/43/16 17/17/16
f 17/17/16 41/43/16 42/44/38
f 17/17/16 42/44/38 19/19/17
f 19/19/17 42/44/38 43/45/39
f 19/19/17 43/45/39 21/21/19
f 21/21/19 43/45/39 44/46/40
f 21/21/19 44/46/40 23/23/21
f 23/23/21 44/46/40 45/47/41
f 23/23/21 45/47/41 25/25/23
f 25/25/23 45/47/41 46/48/42
f 25/25/23 46/48/42 27/27/25
f 27/27/25 46/48/42 47/49/43
f 27/27/25 47/49/43 29/29/27
f 29/29/27 47/49/43 48/50/44
f 29/29/27 48/50/44 31/31/29
f 31/31/29 48/50/44 33/51/1
f 31/31/29 33/51/1 2/33/1
f 33/35/1 49/52/1 50/53/45
f 33/35/1 50/53/45 34/36/31
f 34/36/31 50/53/45 51/54/46
f 34/36/31 51/54/46 35/37/32
f 35/37/32 51/54/46 52/55/47
f 35/37/32 52/55/47 36/38/33
f 36/38/33 52/55/47 53/56/48
f 36/38/33 53/56/48 37/39/34
f 37/39/34 53/56/48 54/57/49
f 37/39/34 54/57/49 38/40/35
f 38/40/35 54/57/49 55/58/50
f 38/40/35 55/58/50 39/41/36
f 39/41/36 55/58/50 56/59/51
f 39/41/36 56/59/51 40/42/37
f 40/42/37 56/59/51 57/60/16
f 40/42/37 57/60/16 41/43/16
f 41/43/16 57/60/16 58/61/52
f 41/43/16 58/61/52 42/44/38
f 42/44/38 58/61/52 59/62/53
f 42/44/38 59/62/53 43/45/39
f 43/45/39 59/62/53 60/63/54
f 43/45/39 60/63/54 44/46/40
f 44/46/40 60/63/54 61/64/55
f 44/46/40 61/64/55 45/47/41
f 45/47/41 61/64/55 62/65/56
f 45/47/41 62/65/56 46/48/42
f 46/48/42 62/65/56 63/66/57
f 46/48/42 63/66/57 47/49/43
f 47/49/43 63/66/57 64/67/58
f 47/49/43 64/67/58 48/50/44
f 48/50/44 64/67/58 49/68/1
f 48/50/44 49/68/1 33/51/1
f 49/52/1 65/69/1 66/70/59
f 49/52/1 66/70/59 50/53/45
f 50/53/45 66/70/59 67/71/60
f 50/53/45 67/71/60 51/54/46
f 51/54/46 67/71/60 68/72/61
f 51/54/46 68/72/61 52/55/47
f 52/55/47 68/72/61 69/73/62
f 52/55/47 69/73/62 53/56/48
f 53/56/48 69/73/62 70/74/63
f 53/56/48 70/74/63 54/57/49
f 54/57/49 70/74/63 71/75/64
f 54/57/49 71/75/64 55/58/50
f 55/58/50 71/75/64 72/76/65
f 55/58/50 72/76/65 56/59/51
f 56/59/51 72/76/65 73/77/16
f 56/59/51 73/77/16 57/60/16
f 57/60/16 73/77/16 74/78/66
f 57/60/16 74/78/66 58/61/52
f 58/61/52 74/78/66 75/79/67
f 58/61/52 75/79/67 59/62/53
f 59/62/53 75/79/67 76/80/68
f 59/62/53 76/80/68 60/63/54
f 60/63/54 76/80/68 77/81/69
f 60/63/54 77/81/69 61/64/55
f 61/64/55 77/81/69 78/82/70
f 61/64/55 78/82/70 62/65/56
f 62/65/56 78/82/70 79/83/71
f 62/65/56 79/83/71 63/66/57
f 63/66/57 79/83/71 80/84/72
f 63/66/57 80/84/72 64/67/58
f 64/67/58 80/84/72 65/85/1
f 64/67/58 65/85/1 49/68/1
f 65/69/1 81/86/1 82/87/73
f 65/69/1 82/87/73 66/70/59
f 66/70/59 82/87/73 83/88/74
f 66/70/59 83/88/74 67/71/60
f 67/71/60 83/88/74 84/89/75
f 67/71/60 84/89/75 68/72/61
f 68/72/61 84/89/75 85/90/76
f 68/72/61 85/90/76 69/73/62
f 69/73/62 85/90/76 86/91/77
f 69/73/62 86/91/77 70/74/63
f 70/74/63 86/91/77 87/92/78
f 70/74/63 87/92/78 71/75/64
f 71/75/64 87/92/78 88/93/79
f 71/75/64 88/93/79 72/76/65
f 72/76/65 88/93/79 89/94/16
f 72/76/65 89/94/16 73/77/16
f 73/77/16 89/94/16 90/95/80
f 73/77/16 90/95/80 74/78/66
f 74/78/66 90/95/80 91/96/81
f 74/78/66 91/96/81 75/79/67
f 75/79/67 91/96/81 92/97/82
f 75/79/67 92/97/82 76/80/68
f 76/80/68 92/97/82 93/98/83
f 76/80/68 93/98/83 77/81/69
f 77/81/69 93/98/83 94/99/84
f 77/81/69 94/99/84 78/82/70
f 78/82/70 94/99/84 95/100/85
f 78/82/70 95/100/85 79/83/71
f 79/83/71 95/100/85 96/101/86
f 79/83/71 96/101/86 80/84/72
f 80/84/72 96/101/86 81/102/1
f 80/84/72 81/102/1 65/85/1
f 81/86/1 97/103/1 98/104/87
f 81/86/1 98/104/87 82/87/73
f 82/87/73 98/104/87 99/105/88
f 82/87/73 99/105/88 83/88/74
f 83/88/74 99/105/88 100/106/89
f 83/88/74 100/106/89 84/89/75
f 84/89/75 100/106/89 101/107/90
f 84/89/75 101/107/90 85/90/76
f 85/90/76 101/107/90 102/108/91
f 85/90/76 102/108/91 86/91/77
f 86/91/77 102/108/91 103/109/92
f 86/91/77 103/109/92 87/92/78
f 87/92/78 103/109/92 104/110/93
f 87/92/78 104/110/93 88/93/79
f 88/93/79 104/110/93 105/111/16
f 88/93/79 105/111/16 89/94/16
f 89/94/16 105/111/16 106/112/94
f 89/94/16 106/112/94 90/95/80
f 90/95/80 106/112/94 107/113/95
f 90/95/80 107/113/95 91/96/81
f 91/96/81 107/113/95 108/114/96
f 91/96/81 108/114/96 92/97/82
f 92/97/82 108/114/96 109/115/97
f 92/97/82 109/115/97 93/98/83
f 93/98/83 109/115/97 110/116/98
f 93/98/83 110/116/98 94/99/84
f 94/99/84 110/116/98 111/117/99
f 94/99/84 111/117/99 95/100/85
f 95/100/85 111/117/99 112/118/100
f 95/100/85 112/118/100 96/101/86
f 96/101/86 112/118/100 97/119/1
f 96/101/86 97/119/1 81/102/1
f 97/103/1 113/120/1 114/121/101
f 97/103/1 114/121/101 98/104/87
f 98/104/87 114/121/101 115/122/102
f 98/104/87 115/122/102 99/105/88
f 99/105/88 115/122/102 116/123/103
f 99/105/88 116/123/103 100/106/89
f 100/106/89 116/123/103 117/124/104
f 100/106/89 117/124/104 101/107/90
f 101/107/90 117/124/104 118/125/105
f 101/107/90 118/125/105 102/108/91
f 102/108/91 118/125/105 119/126/106
f 102/108/91 119/126/106 103/109/92
f 103/109/92 119/126/106 120/127/107
f 103/109/92 120/127/107 104/110/93
f 104/110/93 120/127/107 121/128/16
f 104/110/93 121/128/16 105/111/16
f 105/111/16 121/128/16 122/129/108
f 105/111/16 122/129/108 106/112/94
f 106/112/94 122/129/108 123/130/109
f 106/112/94 123/130/109 107/113/95
f 107/113/95 123/130/109 124/131/110
f 107/113/95 124/131/110 108/114/96
f 108/114/96 124/131/110 125/132/111
f 108/114/96 125/132/111 109/115/97
f 109/115/97 125/132/111 126/133/112
f 109/115/97 126/133/112 110/116/98
f 110/116/98 126/133/112 127/134/113
f 110/116/98 127/134/113 111/117/99
f 111/117/99 127/134/113 128/135/114
f 111/117/99 128/135/114 112/118/100
f 112/118/100 128/135/114 113/136/1
f 112/118/100 113/136/1 97/119/1
f 113/120/1 129/137/1 130/138/115
f 113/120/1 130/138/115 114/121/101
f 114/121/101 130/138/115 131/139/116
f 114/121/101 131/139/116 115/122/102
f 115/122/102 131/139/116 132/140/117
f 115/122/102 132/140/117 116/123/103
f 116/123/103 132/140/117 133/141/118
f 116/123/103 133/141/118 117/124/104
f 117/124/104 133/141/118 134/142/119
f 117/124/104 134/142/119 118/125/105
f 118/125/105 134/142/119 135/143/120
f 118/125/105 135/143/120 119/126/106
f 119/126/106 135/143/120 136/144/121
f 119/126/106 136/144/121 120/127/107
f 120/127/107 136/144/121 137/145/16
f 120/127/107 137/145/16 121/128/16
f 121/128/16 137/145/16 138/146/122
f 121/128/16 138/146/122 122/129/108
f 122/129/108 138/146/122 139/147/123
f 122/129/108 139/147/123 123/130/109
f 123/130/109 139/147/123 140/148/124
f 123/130/109 140/148/124 124/131/110
f 124/131/110 140/148/124 141/149/125
f 124/131/110 141/149/125 125/132/111
f 125/132/111 141/149/125 142/150/126
f 125/132/111 142/150/126 126/133/112
f 126/133/112 142/150/126 143/151/127
f 126/133/112 143/151/127 127/134/113
f 127/134/113 143/151/127 144/152/128
f 127/134/113 144/152/128 128/135/114
f 128/135/114 144/152/128 129/153/1
f 128/135/114 129/153/1 113/136/1
f 129/137/1 145/154/1 146/155/129
f 129/137/1 146/155/129 130/138/115
f 130/138/115 146/155/129 147/156/130
f 130/138/115 147/156/130 131/139/116
f 131/139/116 147/156/130 148/157/131
f 131/139/116 148/157/131 132/140/117
f 132/140/117 148/157/131 149/158/132
f 132/140/117 149/158/132 133/141/118
f 133/141/118 149/158/132 150/159/133
f 133/141/118 150/159/133 134/142/119
f 134/142/119 150/159/133 151/160/134
f 134/142/119 151/160/134 135/143/120
f 135/143/120 151/160/134 152/161/135
f 135/143/120 152/161/135 136/144/121
f 136/144/121 152/161/135 153/162/16
f 136/144/121 153/162/16 137/145/16
f 137/145/16 153/162/16 154/163/136
f 137/145/16 154/163/136 138/146/122
f 138/146/122 154/163/136 155/164/137
f 138/146/122 155/164/137 139/147/123
f 139/147/123 155/164/137 156/165/138
f 139/147/123 156/165/138 140/148/124
f 140/148/124 156/165/138 157/166/139
f 140/148/124 157/166/139 141/149/125
f 141/149/125 157/166/139 158/167/140
f 141/149/125 158/167/140 142/150/126
f 142/150/126 158/167/140 159/168/141
f 142/150/126 159/168/141 143/151/127
f 143/151/127 159/168/141 160/169/142
f 143/151/127 160/169/142 144/152/128
f 144/152/128 160/169/142 145/170/1
f 144/152/128 145/170/1 129/153/1
f 145/154/1 161/171/1 162/172/143
f 145/154/1 162/172/143 146/155/129
f 146/155/129 162/172/143 163/173/144
f 146/155/129 163/173/144 147/156/130
f 147/156/130 163/173/144 164/174/145
f 147/156/130 164/174/145 148/157/131
f 148/157/131 164/174/145 165/175/146
f 148/157/131 165/175/146 149/158/132
f 149/158/132 165/175/146 166/176/147
f 149/158/132 166/176/147 150/159/133
f 150/159/133 166/176/147 167/177/148
f 150/159/133 167/177/148 151/160/134
f 151/160/134 167/177/148 168/178/149
f 151/160/134 168/178/149 152/161/135
f 152/161/135 168/178/149 169/179/16
f 152/161/135 169/179/16 153/162/16
f 153/162/16 169/179/16 170/180/150
f 153/162/16 170/180/150 154/163/136
f 154/163/136 170/180/150 171/181/151
f 154/163/136 171/181/151 155/164/137
f 155/164/137 171/181/151 172/182/152
f 155/164/137 172/182/152 156/165/138
f 156/165/138 172/182/152 173/183/153
f 156/165/138 173/183/153 157/166/139
f 157/166/139 173/183/153 174/184/154
f 157/166/139 174/184/154 158/167/140
f 158/167/140 174/184/154 175/185/155
f 158/167/140 175/185/155 159/168/141
f 159/168/141 175/185/155 176/186/156
f 159/168/141 176/186/156 160/169/142
f 160/169/142 176/186/156 161/187/1
f 160/169/142 161/187/1 145/170/1
f 161/171/1 177/188/1 178/189/157
f 161/171/1 178/189/157 162/172/143
f 162/172/143 178/189/157 179/190/158
f 162/172/143 179/190/158 163/173/144
f 163/173/144 179/190/158 180/191/159
f 163/173/144 180/191/159 164/174/145
f 164/174/145 180/191/159 181/192/160
f 164/174/145 181/192/160 165/175/146
f 165/175/146 181/192/160 182/193/161
f 165/175/146 182/193/161 166/176/147
f 166/176/147 182/193/161 183/194/162
f 166/176/147 183/194/162 167/177/148
f 167/177/148 183/194/162 184/195/163
f 167/177/148 184/195/163 168/178/149
f 168/178/149 184/195/163 185/196/16
f 168/178/149 185/196/16 169/179/16
f 169/179/16 185/196/16 186/197/164
f 169/179/16 186/197/164 170/180/150
f 170/180/150 186/197/164 187/198/165
f 170/180/150 187/198/165 171/181/151
f 171/181/151 187/198/165 188/199/166
f 171/181/151 188/199/166 172/182/152
f 172/182/152 188/199/166 189/200/167
f 172/182/152 189/200/167 173/183/153
f 173/183/153 189/200/167 190/201/168
f 173/183/153 190/201/168 174/184/154
f 174/184/154 190/201/168 191/202/169
f 174/184/154 191/202/169 175/185/155
f 175/185/155 191/202/169 192/203/170
f 175/185/155 192/203/170 176/186/156
f 176/186/156 192/203/170 177/204/1
f 176/186/156 177/204/1 161/187/1
f 177/188/1 193/205/1 194/206/171
f 177/188/1 194/206/171 178/189/157
f 178/189/157 194/206/171 195/207/172
f 178/189/157 195/207/172 179/190/158
f 179/190/158 195/207/172 196/208/173
f 179/190/158 196/208/173 180/191/159
f 180/191/159 196/208/173 197/209/174
f 180/191/159 197/209/174 181/192/160
f 181/192/160 197/209/174 198/210/175
f 181/192/160 198/210/175 182/193/161
f 182/193/161 198/210/175 199/211/176
f 182/193/161 199/211/176 183/194/162
f 183/194/162 199/211/176 200/212/177
f 183/194/162 200/212/177 184/195/163
f 184/195/163 200/212/177 201/213/16
f 184/195/163 201/213/16 185/196/16
f 185/196/16 201/213/16 202/214/178
f 185/196/16 202/214/178 186/197/164
f 186/197/164 202/214/178 203/215/179
f 186/197/164 203/215/179 187/198/165
f 187/198/165 203/215/179 204/216/180
f 187/198/165 204/216/180 188/199/166
f 188/199/166 204/216/180 205/217/181
f 188/199/166 205/217/181 189/200/167
f 189/200/167 205/217/181 206/218/182
f 189/200/167 206/218/182 190/201/168
f 190/201/168 206/218/182 207/219/183
f 190/201/168 207/219/183 191/202/169
f 191/202/169 207/219/183 208/220/184
f 191/202/169 208/220/184 192/203/170
f 192/203/170 208/220/184 193/221/1
f 192/203/170 193/221/1 177/204/1
f 209/222/185 194/223/185 193/224/185
f 209/222/185 195/225/185 194/223/185
f 209/222/185 196/226/185 195/225/185
f 209/222/185 197/227/185 196/226/185
f 209/222/185 198/228/185 197/227/185
f 209/222/185 199/229/185 198/228/185
f 209/222/185 200/230/185 199/229/185
f 209/222/185 201/231/185 200/230/185
f 209/222/185 202/232/185 201/231/185
f 209/222/185 203/233/185 202/232/185
f 209/222/185 204/234/185 203/233/185
f 209/222/185 205/235/185 204/234/185
f 209/222/185 206/236/185 205/235/185
f 209/222/185 207/237/185 206/236/185
f 209/222/185 208/238/185 207/237/185
f 209/222/185 193/224/185 208/238/185
