# Procedurally generated by dev-env-utils/scripts/gen_mast_arm_curves.py
# mount hardware on cell 0, model-space west
mtllib mastarmcurve.mtl
o mastarm_6x2_c0_west
v 0.865053 0.679792 0.724513
v 0.865053 0.779422 0.565673
v 0.837265 0.897768 0.639904
v 0.837265 0.798138 0.798744
v 0.758131 0.998097 0.702833
v 0.758131 0.898467 0.861673
v 0.639700 1.065135 0.744882
v 0.639700 0.965505 0.903722
v 0.500000 1.088675 0.759647
v 0.500000 0.989046 0.918487
v 0.360300 1.065135 0.744882
v 0.360300 0.965505 0.903722
v 0.241869 0.998097 0.702833
v 0.241869 0.898467 0.861673
v 0.162735 0.897768 0.639904
v 0.162735 0.798138 0.798744
v 0.134947 0.779422 0.565673
v 0.134947 0.679792 0.724513
v 0.162735 0.661075 0.491442
v 0.162735 0.561446 0.650282
v 0.241869 0.560746 0.428513
v 0.241869 0.461117 0.587353
v 0.360300 0.493709 0.386464
v 0.360300 0.394079 0.545305
v 0.500000 0.470168 0.371699
v 0.500000 0.370538 0.530539
v 0.639700 0.493709 0.386464
v 0.639700 0.394079 0.545305
v 0.758131 0.560746 0.428513
v 0.758131 0.461117 0.587353
v 0.837265 0.661075 0.491442
v 0.837265 0.561446 0.650282
v 0.500000 0.679792 0.724513
v 0.500000 0.779422 0.565673
v 0.075000 0.700000 0.500000
v 0.000625 0.700000 0.500000
v 0.000625 0.641421 0.641421
v 0.075000 0.641421 0.641421
v 0.000625 0.500000 0.700000
v 0.075000 0.500000 0.700000
v 0.000625 0.358579 0.641421
v 0.075000 0.358579 0.641421
v 0.000625 0.300000 0.500000
v 0.075000 0.300000 0.500000
v 0.000625 0.358579 0.358579
v 0.075000 0.358579 0.358579
v 0.000625 0.500000 0.300000
v 0.075000 0.500000 0.300000
v 0.000625 0.641421 0.358579
v 0.075000 0.641421 0.358579
v 0.075000 0.500000 0.500000
v 0.000625 0.500000 0.500000
v 0.207469 0.704213 0.575913
v 0.020869 0.584082 0.500000
v 0.014514 0.564058 0.547309
v 0.201115 0.684188 0.623222
v 0.024367 0.526869 0.581941
v 0.210967 0.646999 0.657854
v 0.047787 0.482480 0.594618
v 0.234387 0.602611 0.670530
v 0.078498 0.442786 0.581941
v 0.265098 0.562917 0.657854
v 0.108272 0.418423 0.547309
v 0.294872 0.538553 0.623222
v 0.129131 0.415918 0.500000
v 0.315731 0.536048 0.575913
v 0.135486 0.435942 0.452691
v 0.322086 0.556073 0.528604
v 0.125633 0.473131 0.418059
v 0.312233 0.593262 0.493972
v 0.102213 0.517520 0.405382
v 0.288814 0.637650 0.481295
v 0.071502 0.557214 0.418059
v 0.258103 0.677344 0.493972
v 0.041728 0.581577 0.452691
v 0.228328 0.701708 0.528604
v 0.261600 0.620131 0.575913
vt 0.250000 0.750000
vt 0.250000 0.567473
vt 0.281250 0.567473
vt 0.281250 0.750000
vt 0.312500 0.567473
vt 0.312500 0.750000
vt 0.343750 0.567473
vt 0.343750 0.750000
vt 0.375000 0.567473
vt 0.375000 0.750000
vt 0.406250 0.567473
vt 0.406250 0.750000
vt 0.437500 0.567473
vt 0.437500 0.750000
vt 0.468750 0.567473
vt 0.468750 0.750000
vt 0.500000 0.567473
vt 0.500000 0.750000
vt 0.531250 0.567473
vt 0.531250 0.750000
vt 0.562500 0.567473
vt 0.562500 0.750000
vt 0.593750 0.567473
vt 0.593750 0.750000
vt 0.625000 0.567473
vt 0.625000 0.750000
vt 0.656250 0.567473
vt 0.656250 0.750000
vt 0.687500 0.567473
vt 0.687500 0.750000
vt 0.718750 0.567473
vt 0.718750 0.750000
vt 0.750000 0.567473
vt 0.750000 0.750000
vt 0.500000 0.500000
vt 0.400000 0.600000
vt 0.600000 0.400000
vt 0.250000 0.650000
vt 0.312500 0.650000
vt 0.375000 0.650000
vt 0.437500 0.650000
vt 0.500000 0.650000
vt 0.562500 0.650000
vt 0.625000 0.650000
vt 0.687500 0.650000
vt 0.750000 0.650000
vt 0.250000 0.700000
vt 0.291667 0.700000
vt 0.291667 0.750000
vt 0.333333 0.700000
vt 0.333333 0.750000
vt 0.375000 0.700000
vt 0.416667 0.700000
vt 0.416667 0.750000
vt 0.458333 0.700000
vt 0.458333 0.750000
vt 0.500000 0.700000
vt 0.541667 0.700000
vt 0.541667 0.750000
vt 0.583333 0.700000
vt 0.583333 0.750000
vt 0.625000 0.700000
vt 0.666667 0.700000
vt 0.666667 0.750000
vt 0.708333 0.700000
vt 0.708333 0.750000
vt 0.750000 0.700000
vn 1.000000 0.000000 0.000000
vn 0.923880 0.324189 0.203342
vn 0.707107 0.599024 0.375727
vn 0.382683 0.782662 0.490911
vn 0.000000 0.847147 0.531358
vn -0.382683 0.782662 0.490911
vn -0.707107 0.599024 0.375727
vn -0.923880 0.324189 0.203342
vn -1.000000 0.000000 0.000000
vn -0.923880 -0.324189 -0.203342
vn -0.707107 -0.599024 -0.375727
vn -0.382683 -0.782662 -0.490911
vn -0.000000 -0.847147 -0.531358
vn 0.382683 -0.782662 -0.490911
vn 0.707107 -0.599024 -0.375727
vn 0.923880 -0.324189 -0.203342
vn -0.000000 -0.531358 0.847147
vn 0.000000 0.531358 -0.847147
vn 0.000000 1.000000 0.000000
vn 0.000000 0.707107 0.707107
vn 0.000000 0.000000 1.000000
vn 0.000000 -0.707107 0.707107
vn 0.000000 -1.000000 0.000000
vn -0.000000 -0.707107 -0.707107
vn -0.000000 -0.000000 -1.000000
vn 0.000000 0.707107 -0.707107
vn -0.541309 0.840823 0.000000
vn -0.604855 0.640576 0.473088
vn -0.506330 0.268687 0.819412
vn -0.272135 -0.175196 0.946176
vn 0.034979 -0.572136 0.819412
vn 0.332720 -0.815773 0.473088
vn 0.541309 -0.840823 0.000000
vn 0.604855 -0.640576 -0.473088
vn 0.506330 -0.268687 -0.819412
vn 0.272135 0.175196 -0.946176
vn -0.034979 0.572136 -0.819412
vn -0.332720 0.815773 -0.473088
vn 0.795567 0.512174 0.323653
vn -0.795567 -0.512174 -0.323653
usemtl body
f 1/1/1 2/2/1 3/3/2
f 1/1/1 3/3/2 4/4/2
f 4/4/2 3/3/2 5/5/3
f 4/4/2 5/5/3 6/6/3
f 6/6/3 5/5/3 7/7/4
f 6/6/3 7/7/4 8/8/4
f 8/8/4 7/7/4 9/9/5
f 8/8/4 9/9/5 10/10/5
f 10/10/5 9/9/5 11/11/6
f 10/10/5 11/11/6 12/12/6
f 12/12/6 11/11/6 13/13/7
f 12/12/6 13/13/7 14/14/7
f 14/14/7 13/13/7 15/15/8
f 14/14/7 15/15/8 16/16/8
f 16/16/8 15/15/8 17/17/9
f 16/16/8 17/17/9 18/18/9
f 18/18/9 17/17/9 19/19/10
f 18/18/9 19/19/10 20/20/10
f 20/20/10 19/19/10 21/21/11
f 20/20/10 21/21/11 22/22/11
f 22/22/11 21/21/11 23/23/12
f 22/22/11 23/23/12 24/24/12
f 24/24/12 23/23/12 25/25/13
f 24/24/12 25/25/13 26/26/13
f 26/26/13 25/25/13 27/27/14
f 26/26/13 27/27/14 28/28/14
f 28/28/14 27/27/14 29/29/15
f 28/28/14 29/29/15 30/30/15
f 30/30/15 29/29/15 31/31/16
f 30/30/15 31/31/16 32/32/16
f 32/32/16 31/31/16 2/33/1
f 32/32/16 2/33/1 1/34/1
f 33/35/17 1/36/17 4/37/17
f 33/35/17 4/36/17 6/37/17
f 33/35/17 6/36/17 8/37/17
f 33/35/17 8/36/17 10/37/17
f 33/35/17 10/36/17 12/37/17
f 33/35/17 12/36/17 14/37/17
f 33/35/17 14/36/17 16/37/17
f 33/35/17 16/36/17 18/37/17
f 33/35/17 18/36/17 20/37/17
f 33/35/17 20/36/17 22/37/17
f 33/35/17 22/36/17 24/37/17
f 33/35/17 24/36/17 26/37/17
f 33/35/17 26/36/17 28/37/17
f 33/35/17 28/36/17 30/37/17
f 33/35/17 30/36/17 32/37/17
f 33/35/17 32/36/17 1/37/17
f 34/35/18 3/37/18 2/36/18
f 34/35/18 5/37/18 3/36/18
f 34/35/18 7/37/18 5/36/18
f 34/35/18 9/37/18 7/36/18
f 34/35/18 11/37/18 9/36/18
f 34/35/18 13/37/18 11/36/18
f 34/35/18 15/37/18 13/36/18
f 34/35/18 17/37/18 15/36/18
f 34/35/18 19/37/18 17/36/18
f 34/35/18 21/37/18 19/36/18
f 34/35/18 23/37/18 21/36/18
f 34/35/18 25/37/18 23/36/18
f 34/35/18 27/37/18 25/36/18
f 34/35/18 29/37/18 27/36/18
f 34/35/18 31/37/18 29/36/18
f 34/35/18 2/37/18 31/36/18
f 35/1/19 36/38/19 37/39/20
f 35/1/19 37/39/20 38/6/20
f 38/6/20 37/39/20 39/40/21
f 38/6/20 39/40/21 40/10/21
f 40/10/21 39/40/21 41/41/22
f 40/10/21 41/41/22 42/14/22
f 42/14/22 41/41/22 43/42/23
f 42/14/22 43/42/23 44/18/23
f 44/18/23 43/42/23 45/43/24
f 44/18/23 45/43/24 46/22/24
f 46/22/24 45/43/24 47/44/25
f 46/22/24 47/44/25 48/26/25
f 48/26/25 47/44/25 49/45/26
f 48/26/25 49/45/26 50/30/26
f 50/30/26 49/45/26 36/46/19
f 50/30/26 36/46/19 35/34/19
f 51/35/1 35/36/1 38/37/1
f 51/35/1 38/36/1 40/37/1
f 51/35/1 40/36/1 42/37/1
f 51/35/1 42/36/1 44/37/1
f 51/35/1 44/36/1 46/37/1
f 51/35/1 46/36/1 48/37/1
f 51/35/1 48/36/1 50/37/1
f 51/35/1 50/36/1 35/37/1
f 52/35/9 37/37/9 36/36/9
f 52/35/9 39/37/9 37/36/9
f 52/35/9 41/37/9 39/36/9
f 52/35/9 43/37/9 41/36/9
f 52/35/9 45/37/9 43/36/9
f 52/35/9 47/37/9 45/36/9
f 52/35/9 49/37/9 47/36/9
f 52/35/9 36/37/9 49/36/9
f 53/1/27 54/47/27 55/48/28
f 53/1/27 55/48/28 56/49/28
f 56/49/28 55/48/28 57/50/29
f 56/49/28 57/50/29 58/51/29
f 58/51/29 57/50/29 59/52/30
f 58/51/29 59/52/30 60/10/30
f 60/10/30 59/52/30 61/53/31
f 60/10/30 61/53/31 62/54/31
f 62/54/31 61/53/31 63/55/32
f 62/54/31 63/55/32 64/56/32
f 64/56/32 63/55/32 65/57/33
f 64/56/32 65/57/33 66/18/33
f 66/18/33 65/57/33 67/58/34
f 66/18/33 67/58/34 68/59/34
f 68/59/34 67/58/34 69/60/35
f 68/59/34 69/60/35 70/61/35
f 70/61/35 69/60/35 71/62/36
f 70/61/35 71/62/36 72/26/36
f 72/26/36 71/62/36 73/63/37
f 72/26/36 73/63/37 74/64/37
f 74/64/37 73/63/37 75/65/38
f 74/64/37 75/65/38 76/66/38
f 76/66/38 75/65/38 54/67/27
f 76/66/38 54/67/27 53/34/27
f 77/35/39 53/36/39 56/37/39
f 77/35/39 56/36/39 58/37/39
f 77/35/39 58/36/39 60/37/39
f 77/35/39 60/36/39 62/37/39
f 77/35/39 62/36/39 64/37/39
f 77/35/39 64/36/39 66/37/39
f 77/35/39 66/36/39 68/37/39
f 77/35/39 68/36/39 70/37/39
f 77/35/39 70/36/39 72/37/39
f 77/35/39 72/36/39 74/37/39
f 77/35/39 74/36/39 76/37/39
f 77/35/39 76/36/39 53/37/39
f 51/35/40 55/37/40 54/36/40
f 51/35/40 57/37/40 55/36/40
f 51/35/40 59/37/40 57/36/40
f 51/35/40 61/37/40 59/36/40
f 51/35/40 63/37/40 61/36/40
f 51/35/40 65/37/40 63/36/40
f 51/35/40 67/37/40 65/36/40
f 51/35/40 69/37/40 67/36/40
f 51/35/40 71/37/40 69/36/40
f 51/35/40 73/37/40 71/36/40
f 51/35/40 75/37/40 73/36/40
f 51/35/40 54/37/40 75/36/40
