# Procedurally generated by dev-env-utils/scripts/gen_mast_arm_curves.py
# cell 0 of 12 at (+0 along arm, +0 up)
mtllib mastarmcurve.mtl
o mastarm_10x2_c0
v 0.500000 0.417371 1.203384
v 0.813604 0.380513 1.294385
v 0.789462 0.523558 1.261595
v 0.721274 0.659160 1.197241
v 0.619642 0.753224 1.144598
v 0.500000 0.786607 1.125000
v 0.380358 0.753224 1.144598
v 0.278726 0.659160 1.197241
v 0.210538 0.523558 1.261595
v 0.186396 0.380513 1.294385
v 0.210221 0.264045 1.261980
v 0.278282 0.180597 1.197567
v 0.380046 0.128932 1.144703
v 0.500000 0.111265 1.125000
v 0.619954 0.128932 1.144703
v 0.721718 0.180597 1.197567
v 0.789779 0.264045 1.261980
v 0.812500 0.500000 1.000000
v 0.788712 0.611035 1.044414
v 0.720971 0.705166 1.082067
v 0.619589 0.768063 1.107225
v 0.500000 0.790149 1.116060
v 0.380411 0.768063 1.107225
v 0.279029 0.705166 1.082067
v 0.211288 0.611035 1.044414
v 0.187500 0.500000 1.000000
v 0.211288 0.388965 0.955586
v 0.279029 0.294834 0.917933
v 0.380411 0.231937 0.892775
v 0.500000 0.209851 0.883940
v 0.619589 0.231937 0.892775
v 0.720971 0.294834 0.917933
v 0.788712 0.388965 0.955586
v 0.803593 0.533194 0.916667
v 0.780483 0.641189 0.959504
v 0.714673 0.732741 0.995820
v 0.616180 0.793915 1.020086
v 0.500000 0.815397 1.028607
v 0.383820 0.793915 1.020086
v 0.285327 0.732741 0.995820
v 0.219517 0.641189 0.959504
v 0.196407 0.533194 0.916667
v 0.219517 0.425200 0.873829
v 0.285327 0.333647 0.837513
v 0.383820 0.272474 0.813247
v 0.500000 0.250992 0.804726
v 0.616180 0.272474 0.813247
v 0.714673 0.333647 0.837513
v 0.780483 0.425200 0.873829
v 0.796121 0.566111 0.833333
v 0.773580 0.671567 0.874813
v 0.709389 0.760969 0.909977
v 0.613321 0.820705 0.933474
v 0.500000 0.841681 0.941724
v 0.386679 0.820705 0.933474
v 0.290611 0.760969 0.909977
v 0.226420 0.671567 0.874813
v 0.203879 0.566111 0.833333
v 0.226420 0.460655 0.791854
v 0.290611 0.371254 0.756689
v 0.386679 0.311517 0.733193
v 0.500000 0.290541 0.724942
v 0.613321 0.311517 0.733193
v 0.709389 0.371254 0.756689
v 0.773580 0.460655 0.791854
v 0.790313 0.598750 0.750000
v 0.768214 0.702255 0.790367
v 0.705282 0.790002 0.824588
v 0.611098 0.848633 0.847454
v 0.500000 0.869221 0.855484
v 0.388902 0.848633 0.847454
v 0.294718 0.790002 0.824588
v 0.231786 0.702255 0.790367
v 0.209687 0.598750 0.750000
v 0.231786 0.495245 0.709633
v 0.294718 0.407498 0.675412
v 0.388902 0.348867 0.652546
v 0.500000 0.328279 0.644516
v 0.611098 0.348867 0.652546
v 0.705282 0.407498 0.675412
v 0.768214 0.495245 0.709633
v 0.786639 0.631111 0.666667
v 0.764819 0.733421 0.706226
v 0.702684 0.820155 0.739764
v 0.609692 0.878109 0.762173
v 0.500000 0.898460 0.770041
v 0.390308 0.878109 0.762173
v 0.297316 0.820155 0.739764
v 0.235181 0.733421 0.706226
v 0.213361 0.631111 0.666667
v 0.235181 0.528801 0.627107
v 0.297316 0.442067 0.593570
v 0.390308 0.384113 0.571161
v 0.500000 0.363762 0.563292
v 0.609692 0.384113 0.571161
v 0.702684 0.442067 0.593570
v 0.764819 0.528801 0.627107
v 0.785937 0.663194 0.583333
v 0.764172 0.765368 0.622500
v 0.702188 0.851987 0.655704
v 0.609424 0.909864 0.677890
v 0.500000 0.930187 0.685681
v 0.390576 0.909864 0.677890
v 0.297812 0.851987 0.655704
v 0.235828 0.765368 0.622500
v 0.214063 0.663194 0.583333
v 0.235828 0.561021 0.544167
v 0.297812 0.474402 0.510963
v 0.390576 0.416525 0.488777
v 0.500000 0.396201 0.480986
v 0.609424 0.416525 0.488777
v 0.702188 0.474402 0.510963
v 0.764172 0.561021 0.544167
v 0.785625 0.695000 0.500000
v 0.763883 0.797176 0.538827
v 0.701967 0.883796 0.571742
v 0.609304 0.941674 0.593736
v 0.500000 0.961998 0.601459
v 0.390696 0.941674 0.593736
v 0.298033 0.883796 0.571742
v 0.236117 0.797176 0.538827
v 0.214375 0.695000 0.500000
v 0.236117 0.592824 0.461173
v 0.298033 0.506204 0.428258
v 0.390696 0.448326 0.406264
v 0.500000 0.428002 0.398541
v 0.609304 0.448326 0.406264
v 0.701967 0.506204 0.428258
v 0.763883 0.592824 0.461173
v 0.785312 0.726528 0.416667
v 0.763594 0.828704 0.455153
v 0.701746 0.915325 0.487780
v 0.609184 0.973203 0.509581
v 0.500000 0.993528 0.517237
v 0.390816 0.973203 0.509581
v 0.298254 0.915325 0.487780
v 0.236406 0.828704 0.455153
v 0.214688 0.726528 0.416667
v 0.236406 0.624351 0.378180
v 0.298254 0.537730 0.345553
v 0.390816 0.479852 0.323752
v 0.500000 0.459528 0.316097
v 0.609184 0.479852 0.323752
v 0.701746 0.537730 0.345553
v 0.763594 0.624351 0.378180
v 0.785000 0.757778 0.333333
v 0.763306 0.859954 0.371479
v 0.701525 0.946575 0.403818
v 0.609065 1.004453 0.425426
v 0.500000 1.024778 0.433013
v 0.390935 1.004453 0.425426
v 0.298475 0.946575 0.403818
v 0.236694 0.859954 0.371479
v 0.215000 0.757778 0.333333
v 0.236694 0.655601 0.295187
v 0.298475 0.568980 0.262849
v 0.390935 0.511102 0.241241
v 0.500000 0.490778 0.233653
v 0.609065 0.511102 0.241241
v 0.701525 0.568980 0.262849
v 0.763306 0.655601 0.295187
v 0.784687 0.788750 0.250000
v 0.763017 0.890926 0.287805
v 0.701304 0.977546 0.319854
v 0.608945 1.035424 0.341269
v 0.500000 1.055748 0.348789
v 0.391055 1.035424 0.341269
v 0.298696 0.977546 0.319854
v 0.236983 0.890926 0.287805
v 0.215313 0.788750 0.250000
v 0.236983 0.686574 0.212195
v 0.298696 0.599954 0.180146
v 0.391055 0.542076 0.158731
v 0.500000 0.521752 0.151211
v 0.608945 0.542076 0.158731
v 0.701304 0.599954 0.180146
v 0.763017 0.686574 0.212195
v 0.784375 0.819444 0.166667
v 0.762728 0.921618 0.204130
v 0.701083 1.008237 0.235891
v 0.608826 1.066114 0.257112
v 0.500000 1.086437 0.264564
v 0.391174 1.066114 0.257112
v 0.298917 1.008237 0.235891
v 0.237272 0.921618 0.204130
v 0.215625 0.819444 0.166667
v 0.237272 0.717271 0.129203
v 0.298917 0.630652 0.097443
v 0.391174 0.572775 0.076221
v 0.500000 0.552451 0.068769
v 0.608826 0.572775 0.076221
v 0.701083 0.630652 0.097443
v 0.762728 0.717271 0.129203
v 0.784062 0.849861 0.083333
v 0.762440 0.952032 0.120456
v 0.700863 1.038649 0.151926
v 0.608706 1.096524 0.172954
v 0.500000 1.116847 0.180338
v 0.391294 1.096524 0.172954
v 0.299137 1.038649 0.151926
v 0.237560 0.952032 0.120456
v 0.215938 0.849861 0.083333
v 0.237560 0.747690 0.046211
v 0.299137 0.661073 0.014740
v 0.391294 0.603198 -0.006288
v 0.500000 0.582875 -0.013672
v 0.608706 0.603198 -0.006288
v 0.700863 0.661073 0.014740
v 0.762440 0.747690 0.046211
v 0.783750 0.880000 0.000000
v 0.762151 0.982168 0.036780
v 0.700642 1.068781 0.067961
v 0.608586 1.126654 0.088796
v 0.500000 1.146977 0.096112
v 0.391414 1.126654 0.088796
v 0.299358 1.068781 0.067961
v 0.237849 0.982168 0.036780
v 0.216250 0.880000 0.000000
v 0.237849 0.777832 -0.036780
v 0.299358 0.691219 -0.067961
v 0.391414 0.633346 -0.088796
v 0.500000 0.613023 -0.096112
v 0.608586 0.633346 -0.088796
v 0.700642 0.691219 -0.067961
v 0.762151 0.777832 -0.036780
vt 0.500000 0.500000
vt 0.700000 0.500000
vt 0.684776 0.423463
vt 0.641421 0.358579
vt 0.576537 0.315224
vt 0.500000 0.300000
vt 0.423463 0.315224
vt 0.358579 0.358579
vt 0.315224 0.423463
vt 0.300000 0.500000
vt 0.315224 0.576537
vt 0.358579 0.641421
vt 0.423463 0.684776
vt 0.500000 0.700000
vt 0.576537 0.684776
vt 0.641421 0.641421
vt 0.684776 0.576537
vt 0.250000 0.750000
vt 0.250000 0.745239
vt 0.281250 0.745239
vt 0.281250 0.750000
vt 0.312500 0.745239
vt 0.312500 0.750000
vt 0.343750 0.745239
vt 0.343750 0.750000
vt 0.375000 0.745239
vt 0.375000 0.750000
vt 0.406250 0.745239
vt 0.406250 0.750000
vt 0.437500 0.745239
vt 0.437500 0.750000
vt 0.468750 0.745239
vt 0.468750 0.750000
vt 0.500000 0.745239
vt 0.500000 0.750000
vt 0.531250 0.745239
vt 0.531250 0.750000
vt 0.562500 0.745239
vt 0.562500 0.750000
vt 0.593750 0.745239
vt 0.593750 0.750000
vt 0.625000 0.745239
vt 0.625000 0.750000
vt 0.656250 0.745239
vt 0.656250 0.750000
vt 0.687500 0.745239
vt 0.687500 0.750000
vt 0.718750 0.745239
vt 0.718750 0.750000
vt 0.750000 0.745239
vt 0.750000 0.750000
vt 0.250000 0.700389
vt 0.281250 0.700389
vt 0.312500 0.700389
vt 0.343750 0.700389
vt 0.375000 0.700389
vt 0.406250 0.700389
vt 0.437500 0.700389
vt 0.468750 0.700389
vt 0.500000 0.700389
vt 0.531250 0.700389
vt 0.562500 0.700389
vt 0.593750 0.700389
vt 0.625000 0.700389
vt 0.656250 0.700389
vt 0.687500 0.700389
vt 0.718750 0.700389
vt 0.750000 0.700389
vt 0.250000 0.655589
vt 0.281250 0.655589
vt 0.312500 0.655589
vt 0.343750 0.655589
vt 0.375000 0.655589
vt 0.406250 0.655589
vt 0.437500 0.655589
vt 0.468750 0.655589
vt 0.500000 0.655589
vt 0.531250 0.655589
vt 0.562500 0.655589
vt 0.593750 0.655589
vt 0.625000 0.655589
vt 0.656250 0.655589
vt 0.687500 0.655589
vt 0.718750 0.655589
vt 0.750000 0.655589
vt 0.250000 0.610841
vt 0.281250 0.610841
vt 0.312500 0.610841
vt 0.343750 0.610841
vt 0.375000 0.610841
vt 0.406250 0.610841
vt 0.437500 0.610841
vt 0.468750 0.610841
vt 0.500000 0.610841
vt 0.531250 0.610841
vt 0.562500 0.610841
vt 0.593750 0.610841
vt 0.625000 0.610841
vt 0.656250 0.610841
vt 0.687500 0.610841
vt 0.718750 0.610841
vt 0.750000 0.610841
vt 0.250000 0.566143
vt 0.281250 0.566143
vt 0.312500 0.566143
vt 0.343750 0.566143
vt 0.375000 0.566143
vt 0.406250 0.566143
vt 0.437500 0.566143
vt 0.468750 0.566143
vt 0.500000 0.566143
vt 0.531250 0.566143
vt 0.562500 0.566143
vt 0.593750 0.566143
vt 0.625000 0.566143
vt 0.656250 0.566143
vt 0.687500 0.566143
vt 0.718750 0.566143
vt 0.750000 0.566143
vt 0.250000 0.521495
vt 0.281250 0.521495
vt 0.312500 0.521495
vt 0.343750 0.521495
vt 0.375000 0.521495
vt 0.406250 0.521495
vt 0.437500 0.521495
vt 0.468750 0.521495
vt 0.500000 0.521495
vt 0.531250 0.521495
vt 0.562500 0.521495
vt 0.593750 0.521495
vt 0.625000 0.521495
vt 0.656250 0.521495
vt 0.687500 0.521495
vt 0.718750 0.521495
vt 0.750000 0.521495
vt 0.250000 0.476896
vt 0.281250 0.476896
vt 0.312500 0.476896
vt 0.343750 0.476896
vt 0.375000 0.476896
vt 0.406250 0.476896
vt 0.437500 0.476896
vt 0.468750 0.476896
vt 0.500000 0.476896
vt 0.531250 0.476896
vt 0.562500 0.476896
vt 0.593750 0.476896
vt 0.625000 0.476896
vt 0.656250 0.476896
vt 0.687500 0.476896
vt 0.718750 0.476896
vt 0.750000 0.476896
vt 0.250000 0.432347
vt 0.281250 0.432347
vt 0.312500 0.432347
vt 0.343750 0.432347
vt 0.375000 0.432347
vt 0.406250 0.432347
vt 0.437500 0.432347
vt 0.468750 0.432347
vt 0.500000 0.432347
vt 0.531250 0.432347
vt 0.562500 0.432347
vt 0.593750 0.432347
vt 0.625000 0.432347
vt 0.656250 0.432347
vt 0.687500 0.432347
vt 0.718750 0.432347
vt 0.750000 0.432347
vt 0.250000 0.387847
vt 0.281250 0.387847
vt 0.312500 0.387847
vt 0.343750 0.387847
vt 0.375000 0.387847
vt 0.406250 0.387847
vt 0.437500 0.387847
vt 0.468750 0.387847
vt 0.500000 0.387847
vt 0.531250 0.387847
vt 0.562500 0.387847
vt 0.593750 0.387847
vt 0.625000 0.387847
vt 0.656250 0.387847
vt 0.687500 0.387847
vt 0.718750 0.387847
vt 0.750000 0.387847
vt 0.250000 0.343396
vt 0.281250 0.343396
vt 0.312500 0.343396
vt 0.343750 0.343396
vt 0.375000 0.343396
vt 0.406250 0.343396
vt 0.437500 0.343396
vt 0.468750 0.343396
vt 0.500000 0.343396
vt 0.531250 0.343396
vt 0.562500 0.343396
vt 0.593750 0.343396
vt 0.625000 0.343396
vt 0.656250 0.343396
vt 0.687500 0.343396
vt 0.718750 0.343396
vt 0.750000 0.343396
vt 0.250000 0.298993
vt 0.281250 0.298993
vt 0.312500 0.298993
vt 0.343750 0.298993
vt 0.375000 0.298993
vt 0.406250 0.298993
vt 0.437500 0.298993
vt 0.468750 0.298993
vt 0.500000 0.298993
vt 0.531250 0.298993
vt 0.562500 0.298993
vt 0.593750 0.298993
vt 0.625000 0.298993
vt 0.656250 0.298993
vt 0.687500 0.298993
vt 0.718750 0.298993
vt 0.750000 0.298993
vt 0.250000 0.254637
vt 0.281250 0.254637
vt 0.312500 0.254637
vt 0.343750 0.254637
vt 0.375000 0.254637
vt 0.406250 0.254637
vt 0.437500 0.254637
vt 0.468750 0.254637
vt 0.500000 0.254637
vt 0.531250 0.254637
vt 0.562500 0.254637
vt 0.593750 0.254637
vt 0.625000 0.254637
vt 0.656250 0.254637
vt 0.687500 0.254637
vt 0.718750 0.254637
vt 0.750000 0.254637
vt 0.250000 0.289671
vt 0.281250 0.289671
vt 0.312500 0.289671
vt 0.343750 0.289671
vt 0.375000 0.289671
vt 0.406250 0.289671
vt 0.437500 0.289671
vt 0.468750 0.289671
vt 0.500000 0.289671
vt 0.531250 0.289671
vt 0.562500 0.289671
vt 0.593750 0.289671
vt 0.625000 0.289671
vt 0.656250 0.289671
vt 0.687500 0.289671
vt 0.718750 0.289671
vt 0.750000 0.289671
vn 0.000000 0.000000 1.000000
vn 1.000000 0.000000 0.000000
vn 0.923880 0.355313 0.142125
vn 0.923880 0.354246 0.144763
vn 0.707107 0.656532 0.262613
vn 0.707107 0.655494 0.265193
vn 0.382683 0.857801 0.343120
vn 0.382683 0.857363 0.344213
vn 0.000000 0.928477 0.371391
vn 0.000000 0.928363 0.371674
vn -0.382683 0.857801 0.343120
vn -0.382683 0.857363 0.344213
vn -0.707107 0.656532 0.262613
vn -0.707107 0.655494 0.265193
vn -0.923880 0.355313 0.142125
vn -0.923880 0.354246 0.144763
vn -1.000000 0.000000 0.000000
vn -0.923880 -0.355313 -0.142125
vn -0.923880 -0.353791 -0.145871
vn -0.707107 -0.656532 -0.262613
vn -0.707107 -0.653959 -0.268957
vn -0.382683 -0.857801 -0.343120
vn -0.382683 -0.854766 -0.350611
vn -0.000000 -0.928477 -0.371391
vn -0.000000 -0.925332 -0.379158
vn 0.382683 -0.857801 -0.343120
vn 0.382683 -0.854766 -0.350611
vn 0.707107 -0.656532 -0.262613
vn 0.707107 -0.653959 -0.268957
vn 0.923880 -0.355313 -0.142125
vn 0.923880 -0.353791 -0.145871
vn 0.923880 0.355720 0.141102
vn 0.707107 0.657285 0.260723
vn 0.382683 0.858784 0.340651
vn 0.000000 0.929541 0.368718
vn -0.382683 0.858784 0.340651
vn -0.707107 0.657285 0.260723
vn -0.923880 0.355720 0.141102
vn -0.923880 -0.355720 -0.141102
vn -0.707107 -0.657285 -0.260723
vn -0.382683 -0.858784 -0.340651
vn -0.000000 -0.929541 -0.368718
vn 0.382683 -0.858784 -0.340651
vn 0.707107 -0.657285 -0.260723
vn 0.923880 -0.355720 -0.141102
vn 0.923880 0.356125 0.140076
vn 0.707107 0.658034 0.258827
vn 0.382683 0.859763 0.338173
vn 0.000000 0.930601 0.366036
vn -0.382683 0.859763 0.338173
vn -0.707107 0.658034 0.258827
vn -0.923880 0.356125 0.140076
vn -0.923880 -0.356125 -0.140076
vn -0.707107 -0.658034 -0.258827
vn -0.382683 -0.859763 -0.338173
vn -0.000000 -0.930601 -0.366036
vn 0.382683 -0.859763 -0.338173
vn 0.707107 -0.658034 -0.258827
vn 0.923880 -0.356125 -0.140076
vn 0.923880 0.356529 0.139046
vn 0.707107 0.658779 0.256924
vn 0.382683 0.860737 0.335687
vn 0.000000 0.931655 0.363345
vn -0.382683 0.860737 0.335687
vn -0.707107 0.658779 0.256924
vn -0.923880 0.356529 0.139046
vn -0.923880 -0.356529 -0.139046
vn -0.707107 -0.658779 -0.256924
vn -0.382683 -0.860737 -0.335687
vn -0.000000 -0.931655 -0.363345
vn 0.382683 -0.860737 -0.335687
vn 0.707107 -0.658779 -0.256924
vn 0.923880 -0.356529 -0.139046
vn 0.923880 0.356930 0.138013
vn 0.707107 0.659521 0.255015
vn 0.382683 0.861705 0.333193
vn 0.000000 0.932703 0.360645
vn -0.382683 0.861705 0.333193
vn -0.707107 0.659521 0.255015
vn -0.923880 0.356930 0.138013
vn -0.923880 -0.356930 -0.138013
vn -0.707107 -0.659521 -0.255015
vn -0.382683 -0.861705 -0.333193
vn -0.000000 -0.932703 -0.360645
vn 0.382683 -0.861705 -0.333193
vn 0.707107 -0.659521 -0.255015
vn 0.923880 -0.356930 -0.138013
vn 0.923880 0.357329 0.136976
vn 0.707107 0.660258 0.253099
vn 0.382683 0.862669 0.330690
vn 0.000000 0.933746 0.357936
vn -0.382683 0.862669 0.330690
vn -0.707107 0.660258 0.253099
vn -0.923880 0.357329 0.136976
vn -0.923880 -0.357329 -0.136976
vn -0.707107 -0.660258 -0.253099
vn -0.382683 -0.862669 -0.330690
vn -0.000000 -0.933746 -0.357936
vn 0.382683 -0.862669 -0.330690
vn 0.707107 -0.660258 -0.253099
vn 0.923880 -0.357329 -0.136976
vn 0.923880 0.357726 0.135936
vn 0.707107 0.660992 0.251177
vn 0.382683 0.863627 0.328178
vn 0.000000 0.934784 0.355218
vn -0.382683 0.863627 0.328178
vn -0.707107 0.660992 0.251177
vn -0.923880 0.357726 0.135936
vn -0.923880 -0.357726 -0.135936
vn -0.707107 -0.660992 -0.251177
vn -0.382683 -0.863627 -0.328178
vn -0.000000 -0.934784 -0.355218
vn 0.382683 -0.863627 -0.328178
vn 0.707107 -0.660992 -0.251177
vn 0.923880 -0.357726 -0.135936
vn 0.923880 0.358121 0.134892
vn 0.707107 0.661721 0.249248
vn 0.382683 0.864581 0.325659
vn 0.000000 0.935815 0.352490
vn -0.382683 0.864581 0.325659
vn -0.707107 0.661721 0.249248
vn -0.923880 0.358121 0.134892
vn -0.923880 -0.358121 -0.134892
vn -0.707107 -0.661721 -0.249248
vn -0.382683 -0.864581 -0.325659
vn -0.000000 -0.935815 -0.352490
vn 0.382683 -0.864581 -0.325659
vn 0.707107 -0.661721 -0.249248
vn 0.923880 -0.358121 -0.134892
vn 0.923880 0.358514 0.133845
vn 0.707107 0.662447 0.247314
vn 0.382683 0.865529 0.323131
vn 0.000000 0.936842 0.349754
vn -0.382683 0.865529 0.323131
vn -0.707107 0.662447 0.247314
vn -0.923880 0.358514 0.133845
vn -0.923880 -0.358514 -0.133845
vn -0.707107 -0.662447 -0.247314
vn -0.382683 -0.865529 -0.323131
vn -0.000000 -0.936842 -0.349754
vn 0.382683 -0.865529 -0.323131
vn 0.707107 -0.662447 -0.247314
vn 0.923880 -0.358514 -0.133845
vn 0.923880 0.358904 0.132795
vn 0.707107 0.663168 0.245372
vn 0.382683 0.866471 0.320594
vn 0.000000 0.937862 0.347009
vn -0.382683 0.866471 0.320594
vn -0.707107 0.663168 0.245372
vn -0.923880 0.358904 0.132795
vn -0.923880 -0.358904 -0.132795
vn -0.707107 -0.663168 -0.245372
vn -0.382683 -0.866471 -0.320594
vn -0.000000 -0.937862 -0.347009
vn 0.382683 -0.866471 -0.320594
vn 0.707107 -0.663168 -0.245372
vn 0.923880 -0.358904 -0.132795
vn 0.923880 0.359292 0.131741
vn 0.707107 0.663886 0.243425
vn 0.382683 0.867409 0.318050
vn 0.000000 0.938876 0.344255
vn -0.382683 0.867409 0.318050
vn -0.707107 0.663886 0.243425
vn -0.923880 0.359292 0.131741
vn -0.923880 -0.359292 -0.131741
vn -0.707107 -0.663886 -0.243425
vn -0.382683 -0.867409 -0.318050
vn -0.000000 -0.938876 -0.344255
vn 0.382683 -0.867409 -0.318050
vn 0.707107 -0.663886 -0.243425
vn 0.923880 -0.359292 -0.131741
vn 0.923880 0.359678 0.130683
vn 0.707107 0.664599 0.241471
vn 0.382683 0.868340 0.315497
vn 0.000000 0.939885 0.341492
vn -0.382683 0.868340 0.315497
vn -0.707107 0.664599 0.241471
vn -0.923880 0.359678 0.130683
vn -0.923880 -0.359678 -0.130683
vn -0.707107 -0.664599 -0.241471
vn -0.382683 -0.868340 -0.315497
vn -0.000000 -0.939885 -0.341492
vn 0.382683 -0.868340 -0.315497
vn 0.707107 -0.664599 -0.241471
vn 0.923880 -0.359678 -0.130683
vn 0.923880 0.360062 0.129622
vn 0.707107 0.665308 0.239511
vn 0.382683 0.869267 0.312936
vn 0.000000 0.940887 0.338719
vn -0.382683 0.869267 0.312936
vn -0.707107 0.665308 0.239511
vn -0.923880 0.360062 0.129622
vn -0.923880 -0.360062 -0.129622
vn -0.707107 -0.665308 -0.239511
vn -0.382683 -0.869267 -0.312936
vn -0.000000 -0.940887 -0.338719
vn 0.382683 -0.869267 -0.312936
vn 0.707107 -0.665308 -0.239511
vn 0.923880 -0.360062 -0.129622
usemtl body
f 1/1/1 2/2/1 3/3/1
f 1/1/1 3/3/1 4/4/1
f 1/1/1 4/4/1 5/5/1
f 1/1/1 5/5/1 6/6/1
f 1/1/1 6/6/1 7/7/1
f 1/1/1 7/7/1 8/8/1
f 1/1/1 8/8/1 9/9/1
f 1/1/1 9/9/1 10/10/1
f 1/1/1 10/10/1 11/11/1
f 1/1/1 11/11/1 12/12/1
f 1/1/1 12/12/1 13/13/1
f 1/1/1 13/13/1 14/14/1
f 1/1/1 14/14/1 15/15/1
f 1/1/1 15/15/1 16/16/1
f 1/1/1 16/16/1 17/17/1
f 1/1/1 17/17/1 2/2/1
f 2/18/2 18/19/2 19/20/3
f 2/18/2 19/20/3 3/21/4
f 3/21/4 19/20/3 20/22/5
f 3/21/4 20/22/5 4/23/6
f 4/23/6 20/22/5 21/24/7
f 4/23/6 21/24/7 5/25/8
f 5/25/8 21/24/7 22/26/9
f 5/25/8 22/26/9 6/27/10
f 6/27/10 22/26/9 23/28/11
f 6/27/10 23/28/11 7/29/12
f 7/29/12 23/28/11 24/30/13
f 7/29/12 24/30/13 8/31/14
f 8/31/14 24/30/13 25/32/15
f 8/31/14 25/32/15 9/33/16
f 9/33/16 25/32/15 26/34/17
f 9/33/16 26/34/17 10/35/17
f 10/35/17 26/34/17 27/36/18
f 10/35/17 27/36/18 11/37/19
f 11/37/19 27/36/18 28/38/20
f 11/37/19 28/38/20 12/39/21
f 12/39/21 28/38/20 29/40/22
f 12/39/21 29/40/22 13/41/23
f 13/41/23 29/40/22 30/42/24
f 13/41/23 30/42/24 14/43/25
f 14/43/25 30/42/24 31/44/26
f 14/43/25 31/44/26 15/45/27
f 15/45/27 31/44/26 32/46/28
f 15/45/27 32/46/28 16/47/29
f 16/47/29 32/46/28 33/48/30
f 16/47/29 33/48/30 17/49/31
f 17/49/31 33/48/30 18/50/2
f 17/49/31 18/50/2 2/51/2
f 18/19/2 34/52/2 35/53/32
f 18/19/2 35/53/32 19/20/3
f 19/20/3 35/53/32 36/54/33
f 19/20/3 36/54/33 20/22/5
f 20/22/5 36/54/33 37/55/34
f 20/22/5 37/55/34 21/24/7
f 21/24/7 37/55/34 38/56/35
f 21/24/7 38/56/35 22/26/9
f 22/26/9 38/56/35 39/57/36
f 22/26/9 39/57/36 23/28/11
f 23/28/11 39/57/36 40/58/37
f 23/28/11 40/58/37 24/30/13
f 24/30/13 40/58/37 41/59/38
f 24/30/13 41/59/38 25/32/15
f 25/32/15 41/59/38 42/60/17
f 25/32/15 42/60/17 26/34/17
f 26/34/17 42/60/17 43/61/39
f 26/34/17 43/61/39 27/36/18
f 27/36/18 43/61/39 44/62/40
f 27/36/18 44/62/40 28/38/20
f 28/38/20 44/62/40 45/63/41
f 28/38/20 45/63/41 29/40/22
f 29/40/22 45/63/41 46/64/42
f 29/40/22 46/64/42 30/42/24
f 30/42/24 46/64/42 47/65/43
f 30/42/24 47/65/43 31/44/26
f 31/44/26 47/65/43 48/66/44
f 31/44/26 48/66/44 32/46/28
f 32/46/28 48/66/44 49/67/45
f 32/46/28 49/67/45 33/48/30
f 33/48/30 49/67/45 34/68/2
f 33/48/30 34/68/2 18/50/2
f 34/52/2 50/69/2 51/70/46
f 34/52/2 51/70/46 35/53/32
f 35/53/32 51/70/46 52/71/47
f 35/53/32 52/71/47 36/54/33
f 36/54/33 52/71/47 53/72/48
f 36/54/33 53/72/48 37/55/34
f 37/55/34 53/72/48 54/73/49
f 37/55/34 54/73/49 38/56/35
f 38/56/35 54/73/49 55/74/50
f 38/56/35 55/74/50 39/57/36
f 39/57/36 55/74/50 56/75/51
f 39/57/36 56/75/51 40/58/37
f 40/58/37 56/75/51 57/76/52
f 40/58/37 57/76/52 41/59/38
f 41/59/38 57/76/52 58/77/17
f 41/59/38 58/77/17 42/60/17
f 42/60/17 58/77/17 59/78/53
f 42/60/17 59/78/53 43/61/39
f 43/61/39 59/78/53 60/79/54
f 43/61/39 60/79/54 44/62/40
f 44/62/40 60/79/54 61/80/55
f 44/62/40 61/80/55 45/63/41
f 45/63/41 61/80/55 62/81/56
f 45/63/41 62/81/56 46/64/42
f 46/64/42 62/81/56 63/82/57
f 46/64/42 63/82/57 47/65/43
f 47/65/43 63/82/57 64/83/58
f 47/65/43 64/83/58 48/66/44
f 48/66/44 64/83/58 65/84/59
f 48/66/44 65/84/59 49/67/45
f 49/67/45 65/84/59 50/85/2
f 49/67/45 50/85/2 34/68/2
f 50/69/2 66/86/2 67/87/60
f 50/69/2 67/87/60 51/70/46
f 51/70/46 67/87/60 68/88/61
f 51/70/46 68/88/61 52/71/47
f 52/71/47 68/88/61 69/89/62
f 52/71/47 69/89/62 53/72/48
f 53/72/48 69/89/62 70/90/63
f 53/72/48 70/90/63 54/73/49
f 54/73/49 70/90/63 71/91/64
f 54/73/49 71/91/64 55/74/50
f 55/74/50 71/91/64 72/92/65
f 55/74/50 72/92/65 56/75/51
f 56/75/51 72/92/65 73/93/66
f 56/75/51 73/93/66 57/76/52
f 57/76/52 73/93/66 74/94/17
f 57/76/52 74/94/17 58/77/17
f 58/77/17 74/94/17 75/95/67
f 58/77/17 75/95/67 59/78/53
f 59/78/53 75/95/67 76/96/68
f 59/78/53 76/96/68 60/79/54
f 60/79/54 76/96/68 77/97/69
f 60/79/54 77/97/69 61/80/55
f 61/80/55 77/97/69 78/98/70
f 61/80/55 78/98/70 62/81/56
f 62/81/56 78/98/70 79/99/71
f 62/81/56 79/99/71 63/82/57
f 63/82/57 79/99/71 80/100/72
f 63/82/57 80/100/72 64/83/58
f 64/83/58 80/100/72 81/101/73
f 64/83/58 81/101/73 65/84/59
f 65/84/59 81/101/73 66/102/2
f 65/84/59 66/102/2 50/85/2
f 66/86/2 82/103/2 83/104/74
f 66/86/2 83/104/74 67/87/60
f 67/87/60 83/104/74 84/105/75
f 67/87/60 84/105/75 68/88/61
f 68/88/61 84/105/75 85/106/76
f 68/88/61 85/106/76 69/89/62
f 69/89/62 85/106/76 86/107/77
f 69/89/62 86/107/77 70/90/63
f 70/90/63 86/107/77 87/108/78
f 70/90/63 87/108/78 71/91/64
f 71/91/64 87/108/78 88/109/79
f 71/91/64 88/109/79 72/92/65
f 72/92/65 88/109/79 89/110/80
f 72/92/65 89/110/80 73/93/66
f 73/93/66 89/110/80 90/111/17
f 73/93/66 90/111/17 74/94/17
f 74/94/17 90/111/17 91/112/81
f 74/94/17 91/112/81 75/95/67
f 75/95/67 91/112/81 92/113/82
f 75/95/67 92/113/82 76/96/68
f 76/96/68 92/113/82 93/114/83
f 76/96/68 93/114/83 77/97/69
f 77/97/69 93/114/83 94/115/84
f 77/97/69 94/115/84 78/98/70
f 78/98/70 94/115/84 95/116/85
f 78/98/70 95/116/85 79/99/71
f 79/99/71 95/116/85 96/117/86
f 79/99/71 96/117/86 80/100/72
f 80/100/72 96/117/86 97/118/87
f 80/100/72 97/118/87 81/101/73
f 81/101/73 97/118/87 82/119/2
f 81/101/73 82/119/2 66/102/2
f 82/103/2 98/120/2 99/121/88
f 82/103/2 99/121/88 83/104/74
f 83/104/74 99/121/88 100/122/89
f 83/104/74 100/122/89 84/105/75
f 84/105/75 100/122/89 101/123/90
f 84/105/75 101/123/90 85/106/76
f 85/106/76 101/123/90 102/124/91
f 85/106/76 102/124/91 86/107/77
f 86/107/77 102/124/91 103/125/92
f 86/107/77 103/125/92 87/108/78
f 87/108/78 103/125/92 104/126/93
f 87/108/78 104/126/93 88/109/79
f 88/109/79 104/126/93 105/127/94
f 88/109/79 105/127/94 89/110/80
f 89/110/80 105/127/94 106/128/17
f 89/110/80 106/128/17 90/111/17
f 90/111/17 106/128/17 107/129/95
f 90/111/17 107/129/95 91/112/81
f 91/112/81 107/129/95 108/130/96
f 91/112/81 108/130/96 92/113/82
f 92/113/82 108/130/96 109/131/97
f 92/113/82 109/131/97 93/114/83
f 93/114/83 109/131/97 110/132/98
f 93/114/83 110/132/98 94/115/84
f 94/115/84 110/132/98 111/133/99
f 94/115/84 111/133/99 95/116/85
f 95/116/85 111/133/99 112/134/100
f 95/116/85 112/134/100 96/117/86
f 96/117/86 112/134/100 113/135/101
f 96/117/86 113/135/101 97/118/87
f 97/118/87 113/135/101 98/136/2
f 97/118/87 98/136/2 82/119/2
f 98/120/2 114/137/2 115/138/102
f 98/120/2 115/138/102 99/121/88
f 99/121/88 115/138/102 116/139/103
f 99/121/88 116/139/103 100/122/89
f 100/122/89 116/139/103 117/140/104
f 100/122/89 117/140/104 101/123/90
f 101/123/90 117/140/104 118/141/105
f 101/123/90 118/141/105 102/124/91
f 102/124/91 118/141/105 119/142/106
f 102/124/91 119/142/106 103/125/92
f 103/125/92 119/142/106 120/143/107
f 103/125/92 120/143/107 104/126/93
f 104/126/93 120/143/107 121/144/108
f 104/126/93 121/144/108 105/127/94
f 105/127/94 121/144/108 122/145/17
f 105/127/94 122/145/17 106/128/17
f 106/128/17 122/145/17 123/146/109
f 106/128/17 123/146/109 107/129/95
f 107/129/95 123/146/109 124/147/110
f 107/129/95 124/147/110 108/130/96
f 108/130/96 124/147/110 125/148/111
f 108/130/96 125/148/111 109/131/97
f 109/131/97 125/148/111 126/149/112
f 109/131/97 126/149/112 110/132/98
f 110/132/98 126/149/112 127/150/113
f 110/132/98 127/150/113 111/133/99
f 111/133/99 127/150/113 128/151/114
f 111/133/99 128/151/114 112/134/100
f 112/134/100 128/151/114 129/152/115
f 112/134/100 129/152/115 113/135/101
f 113/135/101 129/152/115 114/153/2
f 113/135/101 114/153/2 98/136/2
f 114/137/2 130/154/2 131/155/116
f 114/137/2 131/155/116 115/138/102
f 115/138/102 131/155/116 132/156/117
f 115/138/102 132/156/117 116/139/103
f 116/139/103 132/156/117 133/157/118
f 116/139/103 133/157/118 117/140/104
f 117/140/104 133/157/118 134/158/119
f 117/140/104 134/158/119 118/141/105
f 118/141/105 134/158/119 135/159/120
f 118/141/105 135/159/120 119/142/106
f 119/142/106 135/159/120 136/160/121
f 119/142/106 136/160/121 120/143/107
f 120/143/107 136/160/121 137/161/122
f 120/143/107 137/161/122 121/144/108
f 121/144/108 137/161/122 138/162/17
f 121/144/108 138/162/17 122/145/17
f 122/145/17 138/162/17 139/163/123
f 122/145/17 139/163/123 123/146/109
f 123/146/109 139/163/123 140/164/124
f 123/146/109 140/164/124 124/147/110
f 124/147/110 140/164/124 141/165/125
f 124/147/110 141/165/125 125/148/111
f 125/148/111 141/165/125 142/166/126
f 125/148/111 142/166/126 126/149/112
f 126/149/112 142/166/126 143/167/127
f 126/149/112 143/167/127 127/150/113
f 127/150/113 143/167/127 144/168/128
f 127/150/113 144/168/128 128/151/114
f 128/151/114 144/168/128 145/169/129
f 128/151/114 145/169/129 129/152/115
f 129/152/115 145/169/129 130/170/2
f 129/152/115 130/170/2 114/153/2
f 130/154/2 146/171/2 147/172/130
f 130/154/2 147/172/130 131/155/116
f 131/155/116 147/172/130 148/173/131
f 131/155/116 148/173/131 132/156/117
f 132/156/117 148/173/131 149/174/132
f 132/156/117 149/174/132 133/157/118
f 133/157/118 149/174/132 150/175/133
f 133/157/118 150/175/133 134/158/119
f 134/158/119 150/175/133 151/176/134
f 134/158/119 151/176/134 135/159/120
f 135/159/120 151/176/134 152/177/135
f 135/159/120 152/177/135 136/160/121
f 136/160/121 152/177/135 153/178/136
f 136/160/121 153/178/136 137/161/122
f 137/161/122 153/178/136 154/179/17
f 137/161/122 154/179/17 138/162/17
f 138/162/17 154/179/17 155/180/137
f 138/162/17 155/180/137 139/163/123
f 139/163/123 155/180/137 156/181/138
f 139/163/123 156/181/138 140/164/124
f 140/164/124 156/181/138 157/182/139
f 140/164/124 157/182/139 141/165/125
f 141/165/125 157/182/139 158/183/140
f 141/165/125 158/183/140 142/166/126
f 142/166/126 158/183/140 159/184/141
f 142/166/126 159/184/141 143/167/127
f 143/167/127 159/184/141 160/185/142
f 143/167/127 160/185/142 144/168/128
f 144/168/128 160/185/142 161/186/143
f 144/168/128 161/186/143 145/169/129
f 145/169/129 161/186/143 146/187/2
f 145/169/129 146/187/2 130/170/2
f 146/171/2 162/188/2 163/189/144
f 146/171/2 163/189/144 147/172/130
f 147/172/130 163/189/144 164/190/145
f 147/172/130 164/190/145 148/173/131
f 148/173/131 164/190/145 165/191/146
f 148/173/131 165/191/146 149/174/132
f 149/174/132 165/191/146 166/192/147
f 149/174/132 166/192/147 150/175/133
f 150/175/133 166/192/147 167/193/148
f 150/175/133 167/193/148 151/176/134
f 151/176/134 167/193/148 168/194/149
f 151/176/134 168/194/149 152/177/135
f 152/177/135 168/194/149 169/195/150
f 152/177/135 169/195/150 153/178/136
f 153/178/136 169/195/150 170/196/17
f 153/178/136 170/196/17 154/179/17
f 154/179/17 170/196/17 171/197/151
f 154/179/17 171/197/151 155/180/137
f 155/180/137 171/197/151 172/198/152
f 155/180/137 172/198/152 156/181/138
f 156/181/138 172/198/152 173/199/153
f 156/181/138 173/199/153 157/182/139
f 157/182/139 173/199/153 174/200/154
f 157/182/139 174/200/154 158/183/140
f 158/183/140 174/200/154 175/201/155
f 158/183/140 175/201/155 159/184/141
f 159/184/141 175/201/155 176/202/156
f 159/184/141 176/202/156 160/185/142
f 160/185/142 176/202/156 177/203/157
f 160/185/142 177/203/157 161/186/143
f 161/186/143 177/203/157 162/204/2
f 161/186/143 162/204/2 146/187/2
f 162/188/2 178/205/2 179/206/158
f 162/188/2 179/206/158 163/189/144
f 163/189/144 179/206/158 180/207/159
f 163/189/144 180/207/159 164/190/145
f 164/190/145 180/207/159 181/208/160
f 164/190/145 181/208/160 165/191/146
f 165/191/146 181/208/160 182/209/161
f 165/191/146 182/209/161 166/192/147
f 166/192/147 182/209/161 183/210/162
f 166/192/147 183/210/162 167/193/148
f 167/193/148 183/210/162 184/211/163
f 167/193/148 184/211/163 168/194/149
f 168/194/149 184/211/163 185/212/164
f 168/194/149 185/212/164 169/195/150
f 169/195/150 185/212/164 186/213/17
f 169/195/150 186/213/17 170/196/17
f 170/196/17 186/213/17 187/214/165
f 170/196/17 187/214/165 171/197/151
f 171/197/151 187/214/165 188/215/166
f 171/197/151 188/215/166 172/198/152
f 172/198/152 188/215/166 189/216/167
f 172/198/152 189/216/167 173/199/153
f 173/199/153 189/216/167 190/217/168
f 173/199/153 190/217/168 174/200/154
f 174/200/154 190/217/168 191/218/169
f 174/200/154 191/218/169 175/201/155
f 175/201/155 191/218/169 192/219/170
f 175/201/155 192/219/170 176/202/156
f 176/202/156 192/219/170 193/220/171
f 176/202/156 193/220/171 177/203/157
f 177/203/157 193/220/171 178/221/2
f 177/203/157 178/221/2 162/204/2
f 178/205/2 194/222/2 195/223/172
f 178/205/2 195/223/172 179/206/158
f 179/206/158 195/223/172 196/224/173
f 179/206/158 196/224/173 180/207/159
f 180/207/159 196/224/173 197/225/174
f 180/207/159 197/225/174 181/208/160
f 181/208/160 197/225/174 198/226/175
f 181/208/160 198/226/175 182/209/161
f 182/209/161 198/226/175 199/227/176
f 182/209/161 199/227/176 183/210/162
f 183/210/162 199/227/176 200/228/177
f 183/210/162 200/228/177 184/211/163
f 184/211/163 200/228/177 201/229/178
f 184/211/163 201/229/178 185/212/164
f 185/212/164 201/229/178 202/230/17
f 185/212/164 202/230/17 186/213/17
f 186/213/17 202/230/17 203/231/179
f 186/213/17 203/231/179 187/214/165
f 187/214/165 203/231/179 204/232/180
f 187/214/165 204/232/180 188/215/166
f 188/215/166 204/232/180 205/233/181
f 188/215/166 205/233/181 189/216/167
f 189/216/167 205/233/181 206/234/182
f 189/216/167 206/234/182 190/217/168
f 190/217/168 206/234/182 207/235/183
f 190/217/168 207/235/183 191/218/169
f 191/218/169 207/235/183 208/236/184
f 191/218/169 208/236/184 192/219/170
f 192/219/170 208/236/184 209/237/185
f 192/219/170 209/237/185 193/220/171
f 193/220/171 209/237/185 194/238/2
f 193/220/171 194/238/2 178/221/2
f 194/222/2 210/239/2 211/240/186
f 194/222/2 211/240/186 195/223/172
f 195/223/172 211/240/186 212/241/187
f 195/223/172 212/241/187 196/224/173
f 196/224/173 212/241/187 213/242/188
f 196/224/173 213/242/188 197/225/174
f 197/225/174 213/242/188 214/243/189
f 197/225/174 214/243/189 198/226/175
f 198/226/175 214/243/189 215/244/190
f 198/226/175 215/244/190 199/227/176
f 199/227/176 215/244/190 216/245/191
f 199/227/176 216/245/191 200/228/177
f 200/228/177 216/245/191 217/246/192
f 200/228/177 217/246/192 201/229/178
f 201/229/178 217/246/192 218/247/17
f 201/229/178 218/247/17 202/230/17
f 202/230/17 218/247/17 219/248/193
f 202/230/17 219/248/193 203/231/179
f 203/231/179 219/248/193 220/249/194
f 203/231/179 220/249/194 204/232/180
f 204/232/180 220/249/194 221/250/195
f 204/232/180 221/250/195 205/233/181
f 205/233/181 221/250/195 222/251/196
f 205/233/181 222/251/196 206/234/182
f 206/234/182 222/251/196 223/252/197
f 206/234/182 223/252/197 207/235/183
f 207/235/183 223/252/197 224/253/198
f 207/235/183 224/253/198 208/236/184
f 208/236/184 224/253/198 225/254/199
f 208/236/184 225/254/199 209/237/185
f 209/237/185 225/254/199 210/255/2
f 209/237/185 210/255/2 194/238/2
