# Procedurally generated by dev-env-utils/scripts/gen_mast_arm_curves.py
# cell 5 of 12 at (+4 along arm, +1 up)
mtllib mastarmcurve.mtl
o mastarm_10x2_c5
v 0.772500 0.780000 1.000000
v 0.772188 0.799861 0.916667
v 0.751468 0.901223 0.940656
v 0.751757 0.881402 1.024336
v 0.692466 0.987153 0.960992
v 0.692687 0.967366 1.044968
v 0.604162 1.044570 0.974581
v 0.604281 1.024805 1.058753
v 0.500000 1.064732 0.979353
v 0.500000 1.044976 1.063594
v 0.395838 1.044570 0.974581
v 0.395719 1.024805 1.058753
v 0.307534 0.987153 0.960992
v 0.307313 0.967366 1.044968
v 0.248532 0.901223 0.940656
v 0.248243 0.881402 1.024336
v 0.227813 0.799861 0.916667
v 0.227500 0.780000 1.000000
v 0.248532 0.698499 0.892678
v 0.248243 0.678598 0.975664
v 0.307534 0.612569 0.872341
v 0.307313 0.592634 0.955032
v 0.395838 0.555152 0.858752
v 0.395719 0.535195 0.941247
v 0.500000 0.534990 0.853981
v 0.500000 0.515024 0.936406
v 0.604162 0.555152 0.858752
v 0.604281 0.535195 0.941247
v 0.692466 0.612569 0.872341
v 0.692687 0.592634 0.955032
v 0.751468 0.698499 0.892678
v 0.751757 0.678598 0.975664
v 0.771875 0.819444 0.833333
v 0.751180 0.920765 0.856975
v 0.692245 1.006660 0.877017
v 0.604042 1.064054 0.890409
v 0.500000 1.084208 0.895111
v 0.395958 1.064054 0.890409
v 0.307755 1.006660 0.877017
v 0.248820 0.920765 0.856975
v 0.228125 0.819444 0.833333
v 0.248820 0.718124 0.809692
v 0.307755 0.632229 0.789650
v 0.395958 0.574835 0.776258
v 0.500000 0.554681 0.771555
v 0.604042 0.574835 0.776258
v 0.692245 0.632229 0.789650
v 0.751180 0.718124 0.809692
v 0.771562 0.838750 0.750000
v 0.750891 0.940028 0.773294
v 0.692024 1.025888 0.793042
v 0.603922 1.083257 0.806237
v 0.500000 1.103403 0.810870
v 0.396078 1.083257 0.806237
v 0.307976 1.025888 0.793042
v 0.249109 0.940028 0.773294
v 0.228438 0.838750 0.750000
v 0.249109 0.737472 0.726706
v 0.307976 0.651612 0.706958
v 0.396078 0.594243 0.693763
v 0.500000 0.574097 0.689130
v 0.603922 0.594243 0.693763
v 0.692024 0.651612 0.706958
v 0.750891 0.737472 0.726706
v 0.771250 0.857778 0.666667
v 0.750602 0.959013 0.689613
v 0.691803 1.044835 0.709066
v 0.603803 1.102180 0.722065
v 0.500000 1.122317 0.726629
v 0.396197 1.102180 0.722065
v 0.308197 1.044835 0.709066
v 0.249398 0.959013 0.689613
v 0.228750 0.857778 0.666667
v 0.249398 0.756543 0.643720
v 0.308197 0.670720 0.624267
v 0.396197 0.613375 0.611269
v 0.500000 0.593238 0.606704
v 0.603803 0.613375 0.611269
v 0.691803 0.670720 0.624267
v 0.750602 0.756543 0.643720
v 0.770938 0.876528 0.583333
v 0.750314 0.977718 0.605933
v 0.691582 1.063503 0.625091
v 0.603683 1.120823 0.637893
v 0.500000 1.140951 0.642388
v 0.396317 1.120823 0.637893
v 0.308418 1.063503 0.625091
v 0.249686 0.977718 0.605933
v 0.229063 0.876528 0.583333
v 0.249686 0.775337 0.560734
v 0.308418 0.689552 0.541575
v 0.396317 0.632232 0.528774
v 0.500000 0.612104 0.524279
v 0.603683 0.632232 0.528774
v 0.691582 0.689552 0.541575
v 0.750314 0.775337 0.560734
v 0.770625 0.895000 0.500000
v 0.750025 0.996145 0.522252
v 0.691361 1.081891 0.541116
v 0.603564 1.139185 0.553721
v 0.500000 1.159304 0.558147
v 0.396436 1.139185 0.553721
v 0.308639 1.081891 0.541116
v 0.249975 0.996145 0.522252
v 0.229375 0.895000 0.500000
v 0.249975 0.793855 0.477748
v 0.308639 0.708109 0.458884
v 0.396436 0.650815 0.446279
v 0.500000 0.630696 0.441853
v 0.603564 0.650815 0.446279
v 0.691361 0.708109 0.458884
v 0.750025 0.793855 0.477748
v 0.770312 0.913194 0.416667
v 0.749736 1.014293 0.438571
v 0.691140 1.100000 0.457141
v 0.603444 1.157267 0.469549
v 0.500000 1.177377 0.473906
v 0.396556 1.157267 0.469549
v 0.308860 1.100000 0.457141
v 0.250264 1.014293 0.438571
v 0.229687 0.913194 0.416667
v 0.250264 0.812096 0.394762
v 0.308860 0.726389 0.376192
v 0.396556 0.669121 0.363784
v 0.500000 0.649012 0.359427
v 0.603444 0.669121 0.363784
v 0.691140 0.726389 0.376192
v 0.749736 0.812096 0.394762
v 0.770000 0.931111 0.333333
v 0.749447 1.032162 0.354891
v 0.690919 1.117828 0.373166
v 0.603325 1.175069 0.385378
v 0.500000 1.195169 0.389666
v 0.396675 1.175069 0.385378
v 0.309081 1.117828 0.373166
v 0.250553 1.032162 0.354891
v 0.230000 0.931111 0.333333
v 0.250553 0.830060 0.311776
v 0.309081 0.744394 0.293500
v 0.396675 0.687153 0.281289
v 0.500000 0.667053 0.277001
v 0.603325 0.687153 0.281289
v 0.690919 0.744394 0.293500
v 0.749447 0.830060 0.311776
v 0.769687 0.948750 0.250000
v 0.749159 1.049752 0.271210
v 0.690698 1.135377 0.289192
v 0.603205 1.192590 0.301206
v 0.500000 1.212681 0.305425
v 0.396795 1.192590 0.301206
v 0.309302 1.135377 0.289192
v 0.250841 1.049752 0.271210
v 0.230313 0.948750 0.250000
v 0.250841 0.847748 0.228790
v 0.309302 0.762123 0.210808
v 0.396795 0.704910 0.198794
v 0.500000 0.684819 0.194575
v 0.603205 0.704910 0.198794
v 0.690698 0.762123 0.210808
v 0.749159 0.847748 0.228790
v 0.769375 0.966111 0.166667
v 0.748870 1.067063 0.187530
v 0.690477 1.152646 0.205217
v 0.603085 1.209831 0.217035
v 0.500000 1.229911 0.221185
v 0.396915 1.209831 0.217035
v 0.309523 1.152646 0.205217
v 0.251130 1.067063 0.187530
v 0.230625 0.966111 0.166667
v 0.251130 0.865159 0.145803
v 0.309523 0.779576 0.128116
v 0.396915 0.722391 0.116298
v 0.500000 0.702311 0.112148
v 0.603085 0.722391 0.116298
v 0.690477 0.779576 0.128116
v 0.748870 0.865159 0.145803
v 0.769062 0.983194 0.083333
v 0.748581 1.084095 0.103850
v 0.690256 1.169635 0.121243
v 0.602966 1.226791 0.132865
v 0.500000 1.246862 0.136946
v 0.397034 1.226791 0.132865
v 0.309744 1.169635 0.121243
v 0.251419 1.084095 0.103850
v 0.230938 0.983194 0.083333
v 0.251419 0.882293 0.062817
v 0.309744 0.796754 0.045424
v 0.397034 0.739598 0.033802
v 0.500000 0.719527 0.029721
v 0.602966 0.739598 0.033802
v 0.690256 0.796754 0.045424
v 0.748581 0.882293 0.062817
v 0.768750 1.000000 0.000000
v 0.748293 1.100849 0.020170
v 0.690035 1.186345 0.037269
v 0.602846 1.243471 0.048694
v 0.500000 1.263531 0.052706
v 0.397154 1.243471 0.048694
v 0.309965 1.186345 0.037269
v 0.251707 1.100849 0.020170
v 0.231250 1.000000 0.000000
v 0.251707 0.899151 -0.020170
v 0.309965 0.813655 -0.037269
v 0.397154 0.756529 -0.048694
v 0.500000 0.736469 -0.052706
v 0.602846 0.756529 -0.048694
v 0.690035 0.813655 -0.037269
v 0.748293 0.899151 -0.020170
vt 0.250000 0.643493
vt 0.250000 0.600659
vt 0.281250 0.600659
vt 0.281250 0.643493
vt 0.312500 0.600659
vt 0.312500 0.643493
vt 0.343750 0.600659
vt 0.343750 0.643493
vt 0.375000 0.600659
vt 0.375000 0.643493
vt 0.406250 0.600659
vt 0.406250 0.643493
vt 0.437500 0.600659
vt 0.437500 0.643493
vt 0.468750 0.600659
vt 0.468750 0.643493
vt 0.500000 0.600659
vt 0.500000 0.643493
vt 0.531250 0.600659
vt 0.531250 0.643493
vt 0.562500 0.600659
vt 0.562500 0.643493
vt 0.593750 0.600659
vt 0.593750 0.643493
vt 0.625000 0.600659
vt 0.625000 0.643493
vt 0.656250 0.600659
vt 0.656250 0.643493
vt 0.687500 0.600659
vt 0.687500 0.643493
vt 0.718750 0.600659
vt 0.718750 0.643493
vt 0.750000 0.600659
vt 0.750000 0.643493
vt 0.250000 0.557858
vt 0.281250 0.557858
vt 0.312500 0.557858
vt 0.343750 0.557858
vt 0.375000 0.557858
vt 0.406250 0.557858
vt 0.437500 0.557858
vt 0.468750 0.557858
vt 0.500000 0.557858
vt 0.531250 0.557858
vt 0.562500 0.557858
vt 0.593750 0.557858
vt 0.625000 0.557858
vt 0.656250 0.557858
vt 0.687500 0.557858
vt 0.718750 0.557858
vt 0.750000 0.557858
vt 0.250000 0.515088
vt 0.281250 0.515088
vt 0.312500 0.515088
vt 0.343750 0.515088
vt 0.375000 0.515088
vt 0.406250 0.515088
vt 0.437500 0.515088
vt 0.468750 0.515088
vt 0.500000 0.515088
vt 0.531250 0.515088
vt 0.562500 0.515088
vt 0.593750 0.515088
vt 0.625000 0.515088
vt 0.656250 0.515088
vt 0.687500 0.515088
vt 0.718750 0.515088
vt 0.750000 0.515088
vt 0.250000 0.472349
vt 0.281250 0.472349
vt 0.312500 0.472349
vt 0.343750 0.472349
vt 0.375000 0.472349
vt 0.406250 0.472349
vt 0.437500 0.472349
vt 0.468750 0.472349
vt 0.500000 0.472349
vt 0.531250 0.472349
vt 0.562500 0.472349
vt 0.593750 0.472349
vt 0.625000 0.472349
vt 0.656250 0.472349
vt 0.687500 0.472349
vt 0.718750 0.472349
vt 0.750000 0.472349
vt 0.250000 0.429640
vt 0.281250 0.429640
vt 0.312500 0.429640
vt 0.343750 0.429640
vt 0.375000 0.429640
vt 0.406250 0.429640
vt 0.437500 0.429640
vt 0.468750 0.429640
vt 0.500000 0.429640
vt 0.531250 0.429640
vt 0.562500 0.429640
vt 0.593750 0.429640
vt 0.625000 0.429640
vt 0.656250 0.429640
vt 0.687500 0.429640
vt 0.718750 0.429640
vt 0.750000 0.429640
vt 0.250000 0.386962
vt 0.281250 0.386962
vt 0.312500 0.386962
vt 0.343750 0.386962
vt 0.375000 0.386962
vt 0.406250 0.386962
vt 0.437500 0.386962
vt 0.468750 0.386962
vt 0.500000 0.386962
vt 0.531250 0.386962
vt 0.562500 0.386962
vt 0.593750 0.386962
vt 0.625000 0.386962
vt 0.656250 0.386962
vt 0.687500 0.386962
vt 0.718750 0.386962
vt 0.750000 0.386962
vt 0.250000 0.344314
vt 0.281250 0.344314
vt 0.312500 0.344314
vt 0.343750 0.344314
vt 0.375000 0.344314
vt 0.406250 0.344314
vt 0.437500 0.344314
vt 0.468750 0.344314
vt 0.500000 0.344314
vt 0.531250 0.344314
vt 0.562500 0.344314
vt 0.593750 0.344314
vt 0.625000 0.344314
vt 0.656250 0.344314
vt 0.687500 0.344314
vt 0.718750 0.344314
vt 0.750000 0.344314
vt 0.250000 0.301695
vt 0.281250 0.301695
vt 0.312500 0.301695
vt 0.343750 0.301695
vt 0.375000 0.301695
vt 0.406250 0.301695
vt 0.437500 0.301695
vt 0.468750 0.301695
vt 0.500000 0.301695
vt 0.531250 0.301695
vt 0.562500 0.301695
vt 0.593750 0.301695
vt 0.625000 0.301695
vt 0.656250 0.301695
vt 0.687500 0.301695
vt 0.718750 0.301695
vt 0.750000 0.301695
vt 0.250000 0.259105
vt 0.281250 0.259105
vt 0.312500 0.259105
vt 0.343750 0.259105
vt 0.375000 0.259105
vt 0.406250 0.259105
vt 0.437500 0.259105
vt 0.468750 0.259105
vt 0.500000 0.259105
vt 0.531250 0.259105
vt 0.562500 0.259105
vt 0.593750 0.259105
vt 0.625000 0.259105
vt 0.656250 0.259105
vt 0.687500 0.259105
vt 0.718750 0.259105
vt 0.750000 0.259105
vt 0.250000 0.283456
vt 0.281250 0.283456
vt 0.312500 0.283456
vt 0.343750 0.283456
vt 0.375000 0.283456
vt 0.406250 0.283456
vt 0.437500 0.283456
vt 0.468750 0.283456
vt 0.500000 0.283456
vt 0.531250 0.283456
vt 0.562500 0.283456
vt 0.593750 0.283456
vt 0.625000 0.283456
vt 0.656250 0.283456
vt 0.687500 0.283456
vt 0.718750 0.283456
vt 0.750000 0.283456
vt 0.250000 0.325989
vt 0.281250 0.325989
vt 0.312500 0.325989
vt 0.343750 0.325989
vt 0.375000 0.325989
vt 0.406250 0.325989
vt 0.437500 0.325989
vt 0.468750 0.325989
vt 0.500000 0.325989
vt 0.531250 0.325989
vt 0.562500 0.325989
vt 0.593750 0.325989
vt 0.625000 0.325989
vt 0.656250 0.325989
vt 0.687500 0.325989
vt 0.718750 0.325989
vt 0.750000 0.325989
vt 0.250000 0.368495
vt 0.281250 0.368495
vt 0.312500 0.368495
vt 0.343750 0.368495
vt 0.375000 0.368495
vt 0.406250 0.368495
vt 0.437500 0.368495
vt 0.468750 0.368495
vt 0.500000 0.368495
vt 0.531250 0.368495
vt 0.562500 0.368495
vt 0.593750 0.368495
vt 0.625000 0.368495
vt 0.656250 0.368495
vt 0.687500 0.368495
vt 0.718750 0.368495
vt 0.750000 0.368495
vn 1.000000 0.000000 0.000000
vn 0.923880 0.372396 0.088134
vn 0.923880 0.372117 0.089308
vn 0.707107 0.688099 0.162850
vn 0.707107 0.687582 0.165020
vn 0.382683 0.899044 0.212774
vn 0.382683 0.898369 0.215608
vn 0.000000 0.973119 0.230305
vn 0.000000 0.972387 0.233373
vn -0.382683 0.899044 0.212774
vn -0.382683 0.898369 0.215608
vn -0.707107 0.688099 0.162850
vn -0.707107 0.687582 0.165020
vn -0.923880 0.372396 0.088134
vn -0.923880 0.372117 0.089308
vn -1.000000 0.000000 0.000000
vn -0.923880 -0.372396 -0.088134
vn -0.923880 -0.372117 -0.089308
vn -0.707107 -0.688099 -0.162850
vn -0.707107 -0.687582 -0.165020
vn -0.382683 -0.899044 -0.212774
vn -0.382683 -0.898369 -0.215608
vn -0.000000 -0.973119 -0.230305
vn -0.000000 -0.972387 -0.233373
vn 0.382683 -0.899044 -0.212774
vn 0.382683 -0.898369 -0.215608
vn 0.707107 -0.688099 -0.162850
vn 0.707107 -0.687582 -0.165020
vn 0.923880 -0.372396 -0.088134
vn 0.923880 -0.372117 -0.089308
vn 0.923880 0.372673 0.086957
vn 0.707107 0.688610 0.160676
vn 0.382683 0.899712 0.209933
vn 0.000000 0.973841 0.227230
vn -0.382683 0.899712 0.209933
vn -0.707107 0.688610 0.160676
vn -0.923880 0.372673 0.086957
vn -0.923880 -0.372673 -0.086957
vn -0.707107 -0.688610 -0.160676
vn -0.382683 -0.899712 -0.209933
vn -0.000000 -0.973841 -0.227230
vn 0.382683 -0.899712 -0.209933
vn 0.707107 -0.688610 -0.160676
vn 0.923880 -0.372673 -0.086957
vn 0.923880 0.372946 0.085778
vn 0.707107 0.689115 0.158496
vn 0.382683 0.900372 0.207085
vn 0.000000 0.974555 0.224148
vn -0.382683 0.900372 0.207085
vn -0.707107 0.689115 0.158496
vn -0.923880 0.372946 0.085778
vn -0.923880 -0.372946 -0.085778
vn -0.707107 -0.689115 -0.158496
vn -0.382683 -0.900372 -0.207085
vn -0.000000 -0.974555 -0.224148
vn 0.382683 -0.900372 -0.207085
vn 0.707107 -0.689115 -0.158496
vn 0.923880 -0.372946 -0.085778
vn 0.923880 0.373216 0.084596
vn 0.707107 0.689613 0.156312
vn 0.382683 0.901023 0.204232
vn 0.000000 0.975260 0.221059
vn -0.382683 0.901023 0.204232
vn -0.707107 0.689613 0.156312
vn -0.923880 0.373216 0.084596
vn -0.923880 -0.373216 -0.084596
vn -0.707107 -0.689613 -0.156312
vn -0.382683 -0.901023 -0.204232
vn -0.000000 -0.975260 -0.221059
vn 0.382683 -0.901023 -0.204232
vn 0.707107 -0.689613 -0.156312
vn 0.923880 -0.373216 -0.084596
vn 0.923880 0.373483 0.083411
vn 0.707107 0.690106 0.154124
vn 0.382683 0.901667 0.201372
vn 0.000000 0.975957 0.217964
vn -0.382683 0.901667 0.201372
vn -0.707107 0.690106 0.154124
vn -0.923880 0.373483 0.083411
vn -0.923880 -0.373483 -0.083411
vn -0.707107 -0.690106 -0.154124
vn -0.382683 -0.901667 -0.201372
vn -0.000000 -0.975957 -0.217964
vn 0.382683 -0.901667 -0.201372
vn 0.707107 -0.690106 -0.154124
vn 0.923880 -0.373483 -0.083411
vn 0.923880 0.373746 0.082224
vn 0.707107 0.690592 0.151930
vn 0.382683 0.902302 0.198506
vn 0.000000 0.976644 0.214862
vn -0.382683 0.902302 0.198506
vn -0.707107 0.690592 0.151930
vn -0.923880 0.373746 0.082224
vn -0.923880 -0.373746 -0.082224
vn -0.707107 -0.690592 -0.151930
vn -0.382683 -0.902302 -0.198506
vn -0.000000 -0.976644 -0.214862
vn 0.382683 -0.902302 -0.198506
vn 0.707107 -0.690592 -0.151930
vn 0.923880 -0.373746 -0.082224
vn 0.923880 0.374005 0.081034
vn 0.707107 0.691072 0.149732
vn 0.382683 0.902929 0.195635
vn 0.000000 0.977323 0.211753
vn -0.382683 0.902929 0.195635
vn -0.707107 0.691072 0.149732
vn -0.923880 0.374005 0.081034
vn -0.923880 -0.374005 -0.081034
vn -0.707107 -0.691072 -0.149732
vn -0.382683 -0.902929 -0.195635
vn -0.000000 -0.977323 -0.211753
vn 0.382683 -0.902929 -0.195635
vn 0.707107 -0.691072 -0.149732
vn 0.923880 -0.374005 -0.081034
vn 0.923880 0.374262 0.079842
vn 0.707107 0.691545 0.147530
vn 0.382683 0.903548 0.192757
vn 0.000000 0.977993 0.208638
vn -0.382683 0.903548 0.192757
vn -0.707107 0.691545 0.147530
vn -0.923880 0.374262 0.079842
vn -0.923880 -0.374262 -0.079842
vn -0.707107 -0.691545 -0.147530
vn -0.382683 -0.903548 -0.192757
vn -0.000000 -0.977993 -0.208638
vn 0.382683 -0.903548 -0.192757
vn 0.707107 -0.691545 -0.147530
vn 0.923880 -0.374262 -0.079842
vn 0.923880 0.374514 0.078648
vn 0.707107 0.692013 0.145323
vn 0.382683 0.904158 0.189873
vn 0.000000 0.978653 0.205517
vn -0.382683 0.904158 0.189873
vn -0.707107 0.692013 0.145323
vn -0.923880 0.374514 0.078648
vn -0.923880 -0.374514 -0.078648
vn -0.707107 -0.692013 -0.145323
vn -0.382683 -0.904158 -0.189873
vn -0.000000 -0.978653 -0.205517
vn 0.382683 -0.904158 -0.189873
vn 0.707107 -0.692013 -0.145323
vn 0.923880 -0.374514 -0.078648
vn 0.923880 0.374764 0.077451
vn 0.707107 0.692473 0.143111
vn 0.382683 0.904760 0.186984
vn 0.000000 0.979305 0.202390
vn -0.382683 0.904760 0.186984
vn -0.707107 0.692473 0.143111
vn -0.923880 0.374764 0.077451
vn -0.923880 -0.374764 -0.077451
vn -0.707107 -0.692473 -0.143111
vn -0.382683 -0.904760 -0.186984
vn -0.000000 -0.979305 -0.202390
vn 0.382683 -0.904760 -0.186984
vn 0.707107 -0.692473 -0.143111
vn 0.923880 -0.374764 -0.077451
vn 0.923880 0.375010 0.076252
vn 0.707107 0.692928 0.140895
vn 0.382683 0.905353 0.184089
vn 0.000000 0.979947 0.199256
vn -0.382683 0.905353 0.184089
vn -0.707107 0.692928 0.140895
vn -0.923880 0.375010 0.076252
vn -0.923880 -0.375010 -0.076252
vn -0.707107 -0.692928 -0.140895
vn -0.382683 -0.905353 -0.184089
vn -0.000000 -0.979947 -0.199256
vn 0.382683 -0.905353 -0.184089
vn 0.707107 -0.692928 -0.140895
vn 0.923880 -0.375010 -0.076252
vn 0.923880 0.375252 0.075050
vn 0.707107 0.693375 0.138675
vn 0.382683 0.905938 0.181188
vn 0.000000 0.980581 0.196116
vn -0.382683 0.905938 0.181188
vn -0.707107 0.693375 0.138675
vn -0.923880 0.375252 0.075050
vn -0.923880 -0.375252 -0.075050
vn -0.707107 -0.693375 -0.138675
vn -0.382683 -0.905938 -0.181188
vn -0.000000 -0.980581 -0.196116
vn 0.382683 -0.905938 -0.181188
vn 0.707107 -0.693375 -0.138675
vn 0.923880 -0.375252 -0.075050
usemtl body
f 1/1/1 2/2/1 3/3/2
f 1/1/1 3/3/2 4/4/3
f 4/4/3 3/3/2 5/5/4
f 4/4/3 5/5/4 6/6/5
f 6/6/5 5/5/4 7/7/6
f 6/6/5 7/7/6 8/8/7
f 8/8/7 7/7/6 9/9/8
f 8/8/7 9/9/8 10/10/9
f 10/10/9 9/9/8 11/11/10
f 10/10/9 11/11/10 12/12/11
f 12/12/11 11/11/10 13/13/12
f 12/12/11 13/13/12 14/14/13
f 14/14/13 13/13/12 15/15/14
f 14/14/13 15/15/14 16/16/15
f 16/16/15 15/15/14 17/17/16
f 16/16/15 17/17/16 18/18/16
f 18/18/16 17/17/16 19/19/17
f 18/18/16 19/19/17 20/20/18
f 20/20/18 19/19/17 21/21/19
f 20/20/18 21/21/19 22/22/20
f 22/22/20 21/21/19 23/23/21
f 22/22/20 23/23/21 24/24/22
f 24/24/22 23/23/21 25/25/23
f 24/24/22 25/25/23 26/26/24
f 26/26/24 25/25/23 27/27/25
f 26/26/24 27/27/25 28/28/26
f 28/28/26 27/27/25 29/29/27
f 28/28/26 29/29/27 30/30/28
f 30/30/28 29/29/27 31/31/29
f 30/30/28 31/31/29 32/32/30
f 32/32/30 31/31/29 2/33/1
f 32/32/30 2/33/1 1/34/1
f 2/2/1 33/35/1 34/36/31
f 2/2/1 34/36/31 3/3/2
f 3/3/2 34/36/31 35/37/32
f 3/3/2 35/37/32 5/5/4
f 5/5/4 35/37/32 36/38/33
f 5/5/4 36/38/33 7/7/6
f 7/7/6 36/38/33 37/39/34
f 7/7/6 37/39/34 9/9/8
f 9/9/8 37/39/34 38/40/35
f 9/9/8 38/40/35 11/11/10
f 11/11/10 38/40/35 39/41/36
f 11/11/10 39/41/36 13/13/12
f 13/13/12 39/41/36 40/42/37
f 13/13/12 40/42/37 15/15/14
f 15/15/14 40/42/37 41/43/16
f 15/15/14 41/43/16 17/17/16
f 17/17/16 41/43/16 42/44/38
f 17/17/16 42/44/38 19/19/17
f 19/19/17 42/44/38 43/45/39
f 19/19/17 43/45/39 21/21/19
f 21/21/19 43/45/39 44/46/40
f 21/21/19 44/46/40 23/23/21
f 23/23/21 44/46/40 45/47/41
f 23/23/21 45/47/41 25/25/23
f 25/25/23 45/47/41 46/48/42
f 25/25/23 46/48/42 27/27/25
f 27/27/25 46/48/42 47/49/43
f 27/27/25 47/49/43 29/29/27
f 29/29/27 47/49/43 48/50/44
f 29/29/27 48/50/44 31/31/29
f 31/31/29 48/50/44 33/51/1
f 31/31/29 33/51/1 2/33/1
f 33/35/1 49/52/1 50/53/45
f 33/35/1 50/53/45 34/36/31
f 34/36/31 50/53/45 51/54/46
f 34/36/31 51/54/46 35/37/32
f 35/37/32 51/54/46 52/55/47
f 35/37/32 52/55/47 36/38/33
f 36/38/33 52/55/47 53/56/48
f 36/38/33 53/56/48 37/39/34
f 37/39/34 53/56/48 54/57/49
f 37/39/34 54/57/49 38/40/35
f 38/40/35 54/57/49 55/58/50
f 38/40/35 55/58/50 39/41/36
f 39/41/36 55/58/50 56/59/51
f 39/41/36 56/59/51 40/42/37
f 40/42/37 56/59/51 57/60/16
f 40/42/37 57/60/16 41/43/16
f 41/43/16 57/60/16 58/61/52
f 41/43/16 58/61/52 42/44/38
f 42/44/38 58/61/52 59/62/53
f 42/44/38 59/62/53 43/45/39
f 43/45/39 59/62/53 60/63/54
f 43/45/39 60/63/54 44/46/40
f 44/46/40 60/63/54 61/64/55
f 44/46/40 61/64/55 45/47/41
f 45/47/41 61/64/55 62/65/56
f 45/47/41 62/65/56 46/48/42
f 46/48/42 62/65/56 63/66/57
f 46/48/42 63/66/57 47/49/43
f 47/49/43 63/66/57 64/67/58
f 47/49/43 64/67/58 48/50/44
f 48/50/44 64/67/58 49/68/1
f 48/50/44 49/68/1 33/51/1
f 49/52/1 65/69/1 66/70/59
f 49/52/1 66/70/59 50/53/45
f 50/53/45 66/70/59 67/71/60
f 50/53/45 67/71/60 51/54/46
f 51/54/46 67/71/60 68/72/61
f 51/54/46 68/72/61 52/55/47
f 52/55/47 68/72/61 69/73/62
f 52/55/47 69/73/62 53/56/48
f 53/56/48 69/73/62 70/74/63
f 53/56/48 70/74/63 54/57/49
f 54/57/49 70/74/63 71/75/64
f 54/57/49 71/75/64 55/58/50
f 55/58/50 71/75/64 72/76/65
f 55/58/50 72/76/65 56/59/51
f 56/59/51 72/76/65 73/77/16
f 56/59/51 73/77/16 57/60/16
f 57/60/16 73/77/16 74/78/66
f 57/60/16 74/78/66 58/61/52
f 58/61/52 74/78/66 75/79/67
f 58/61/52 75/79/67 59/62/53
f 59/62/53 75/79/67 76/80/68
f 59/62/53 76/80/68 60/63/54
f 60/63/54 76/80/68 77/81/69
f 60/63/54 77/81/69 61/64/55
f 61/64/55 77/81/69 78/82/70
f 61/64/55 78/82/70 62/65/56
f 62/65/56 78/82/70 79/83/71
f 62/65/56 79/83/71 63/66/57
f 63/66/57 79/83/71 80/84/72
f 63/66/57 80/84/72 64/67/58
f 64/67/58 80/84/72 65/85/1
f 64/67/58 65/85/1 49/68/1
f 65/69/1 81/86/1 82/87/73
f 65/69/1 82/87/73 66/70/59
f 66/70/59 82/87/73 83/88/74
f 66/70/59 83/88/74 67/71/60
f 67/71/60 83/88/74 84/89/75
f 67/71/60 84/89/75 68/72/61
f 68/72/61 84/89/75 85/90/76
f 68/72/61 85/90/76 69/73/62
f 69/73/62 85/90/76 86/91/77
f 69/73/62 86/91/77 70/74/63
f 70/74/63 86/91/77 87/92/78
f 70/74/63 87/92/78 71/75/64
f 71/75/64 87/92/78 88/93/79
f 71/75/64 88/93/79 72/76/65
f 72/76/65 88/93/79 89/94/16
f 72/76/65 89/94/16 73/77/16
f 73/77/16 89/94/16 90/95/80
f 73/77/16 90/95/80 74/78/66
f 74/78/66 90/95/80 91/96/81
f 74/78/66 91/96/81 75/79/67
f 75/79/67 91/96/81 92/97/82
f 75/79/67 92/97/82 76/80/68
f 76/80/68 92/97/82 93/98/83
f 76/80/68 93/98/83 77/81/69
f 77/81/69 93/98/83 94/99/84
f 77/81/69 94/99/84 78/82/70
f 78/82/70 94/99/84 95/100/85
f 78/82/70 95/100/85 79/83/71
f 79/83/71 95/100/85 96/101/86
f 79/83/71 96/101/86 80/84/72
f 80/84/72 96/101/86 81/102/1
f 80/84/72 81/102/1 65/85/1
f 81/86/1 97/103/1 98/104/87
f 81/86/1 98/104/87 82/87/73
f 82/87/73 98/104/87 99/105/88
f 82/87/73 99/105/88 83/88/74
f 83/88/74 99/105/88 100/106/89
f 83/88/74 100/106/89 84/89/75
f 84/89/75 100/106/89 101/107/90
f 84/89/75 101/107/90 85/90/76
f 85/90/76 101/107/90 102/108/91
f 85/90/76 102/108/91 86/91/77
f 86/91/77 102/108/91 103/109/92
f 86/91/77 103/109/92 87/92/78
f 87/92/78 103/109/92 104/110/93
f 87/92/78 104/110/93 88/93/79
f 88/93/79 104/110/93 105/111/16
f 88/93/79 105/111/16 89/94/16
f 89/94/16 105/111/16 106/112/94
f 89/94/16 106/112/94 90/95/80
f 90/95/80 106/112/94 107/113/95
f 90/95/80 107/113/95 91/96/81
f 91/96/81 107/113/95 108/114/96
f 91/96/81 108/114/96 92/97/82
f 92/97/82 108/114/96 109/115/97
f 92/97/82 109/115/97 93/98/83
f 93/98/83 109/115/97 110/116/98
f 93/98/83 110/116/98 94/99/84
f 94/99/84 110/116/98 111/117/99
f 94/99/84 111/117/99 95/100/85
f 95/100/85 111/117/99 112/118/100
f 95/100/85 112/118/100 96/101/86
f 96/101/86 112/118/100 97/119/1
f 96/101/86 97/119/1 81/102/1
f 97/103/1 113/120/1 114/121/101
f 97/103/1 114/121/101 98/104/87
f 98/104/87 114/121/101 115/122/102
f 98/104/87 115/122/102 99/105/88
f 99/105/88 115/122/102 116/123/103
f 99/105/88 116/123/103 100/106/89
f 100/106/89 116/123/103 117/124/104
f 100/106/89 117/124/104 101/107/90
f 101/107/90 117/124/104 118/125/105
f 101/107/90 118/125/105 102/108/91
f 102/108/91 118/125/105 119/126/106
f 102/108/91 119/126/106 103/109/92
f 103/109/92 119/126/106 120/127/107
f 103/109/92 120/127/107 104/110/93
f 104/110/93 120/127/107 121/128/16
f 104/110/93 121/128/16 105/111/16
f 105/111/16 121/128/16 122/129/108
f 105/111/16 122/129/108 106/112/94
f 106/112/94 122/129/108 123/130/109
f 106/112/94 123/130/109 107/113/95
f 107/113/95 123/130/109 124/131/110
f 107/113/95 124/131/110 108/114/96
f 108/114/96 124/131/110 125/132/111
f 108/114/96 125/132/111 109/115/97
f 109/115/97 125/132/111 126/133/112
f 109/115/97 126/133/112 110/116/98
f 110/116/98 126/133/112 127/134/113
f 110/116/98 127/134/113 111/117/99
f 111/117/99 127/134/113 128/135/114
f 111/117/99 128/135/114 112/118/100
f 112/118/100 128/135/114 113/136/1
f 112/118/100 113/136/1 97/119/1
f 113/120/1 129/137/1 130/138/115
f 113/120/1 130/138/115 114/121/101
f 114/121/101 130/138/115 131/139/116
f 114/121/101 131/139/116 115/122/102
f 115/122/102 131/139/116 132/140/117
f 115/122/102 132/140/117 116/123/103
f 116/123/103 132/140/117 133/141/118
f 116/123/103 133/141/118 117/124/104
f 117/124/104 133/141/118 134/142/119
f 117/124/104 134/142/119 118/125/105
f 118/125/105 134/142/119 135/143/120
f 118/125/105 135/143/120 119/126/106
f 119/126/106 135/143/120 136/144/121
f 119/126/106 136/144/121 120/127/107
f 120/127/107 136/144/121 137/145/16
f 120/127/107 137/145/16 121/128/16
f 121/128/16 137/145/16 138/146/122
f 121/128/16 138/146/122 122/129/108
f 122/129/108 138/146/122 139/147/123
f 122/129/108 139/147/123 123/130/109
f 123/130/109 139/147/123 140/148/124
f 123/130/109 140/148/124 124/131/110
f 124/131/110 140/148/124 141/149/125
f 124/131/110 141/149/125 125/132/111
f 125/132/111 141/149/125 142/150/126
f 125/132/111 142/150/126 126/133/112
f 126/133/112 142/150/126 143/151/127
f 126/133/112 143/151/127 127/134/113
f 127/134/113 143/151/127 144/152/128
f 127/134/113 144/152/128 128/135/114
f 128/135/114 144/152/128 129/153/1
f 128/135/114 129/153/1 113/136/1
f 129/137/1 145/154/1 146/155/129
f 129/137/1 146/155/129 130/138/115
f 130/138/115 146/155/129 147/156/130
f 130/138/115 147/156/130 131/139/116
f 131/139/116 147/156/130 148/157/131
f 131/139/116 148/157/131 132/140/117
f 132/140/117 148/157/131 149/158/132
f 132/140/117 149/158/132 133/141/118
f 133/141/118 149/158/132 150/159/133
f 133/141/118 150/159/133 134/142/119
f 134/142/119 150/159/133 151/160/134
f 134/142/119 151/160/134 135/143/120
f 135/143/120 151/160/134 152/161/135
f 135/143/120 152/161/135 136/144/121
f 136/144/121 152/161/135 153/162/16
f 136/144/121 153/162/16 137/145/16
f 137/145/16 153/162/16 154/163/136
f 137/145/16 154/163/136 138/146/122
f 138/146/122 154/163/136 155/164/137
f 138/146/122 155/164/137 139/147/123
f 139/147/123 155/164/137 156/165/138
f 139/147/123 156/165/138 140/148/124
f 140/148/124 156/165/138 157/166/139
f 140/148/124 157/166/139 141/149/125
f 141/149/125 157/166/139 158/167/140
f 141/149/125 158/167/140 142/150/126
f 142/150/126 158/167/140 159/168/141
f 142/150/126 159/168/141 143/151/127
f 143/151/127 159/168/141 160/169/142
f 143/151/127 160/169/142 144/152/128
f 144/152/128 160/169/142 145/170/1
f 144/152/128 145/170/1 129/153/1
f 145/154/1 161/171/1 162/172/143
f 145/154/1 162/172/143 146/155/129
f 146/155/129 162/172/143 163/173/144
f 146/155/129 163/173/144 147/156/130
f 147/156/130 163/173/144 164/174/145
f 147/156/130 164/174/145 148/157/131
f 148/157/131 164/174/145 165/175/146
f 148/157/131 165/175/146 149/158/132
f 149/158/132 165/175/146 166/176/147
f 149/158/132 166/176/147 150/159/133
f 150/159/133 166/176/147 167/177/148
f 150/159/133 167/177/148 151/160/134
f 151/160/134 167/177/148 168/178/149
f 151/160/134 168/178/149 152/161/135
f 152/161/135 168/178/149 169/179/16
f 152/161/135 169/179/16 153/162/16
f 153/162/16 169/179/16 170/180/150
f 153/162/16 170/180/150 154/163/136
f 154/163/136 170/180/150 171/181/151
f 154/163/136 171/181/151 155/164/137
f 155/164/137 171/181/151 172/182/152
f 155/164/137 172/182/152 156/165/138
f 156/165/138 172/182/152 173/183/153
f 156/165/138 173/183/153 157/166/139
f 157/166/139 173/183/153 174/184/154
f 157/166/139 174/184/154 158/167/140
f 158/167/140 174/184/154 175/185/155
f 158/167/140 175/185/155 159/168/141
f 159/168/141 175/185/155 176/186/156
f 159/168/141 176/186/156 160/169/142
f 160/169/142 176/186/156 161/187/1
f 160/169/142 161/187/1 145/170/1
f 161/171/1 177/188/1 178/189/157
f 161/171/1 178/189/157 162/172/143
f 162/172/143 178/189/157 179/190/158
f 162/172/143 179/190/158 163/173/144
f 163/173/144 179/190/158 180/191/159
f 163/173/144 180/191/159 164/174/145
f 164/174/145 180/191/159 181/192/160
f 164/174/145 181/192/160 165/175/146
f 165/175/146 181/192/160 182/193/161
f 165/175/146 182/193/161 166/176/147
f 166/176/147 182/193/161 183/194/162
f 166/176/147 183/194/162 167/177/148
f 167/177/148 183/194/162 184/195/163
f 167/177/148 184/195/163 168/178/149
f 168/178/149 184/195/163 185/196/16
f 168/178/149 185/196/16 169/179/16
f 169/179/16 185/196/16 186/197/164
f 169/179/16 186/197/164 170/180/150
f 170/180/150 186/197/164 187/198/165
f 170/180/150 187/198/165 171/181/151
f 171/181/151 187/198/165 188/199/166
f 171/181/151 188/199/166 172/182/152
f 172/182/152 188/199/166 189/200/167
f 172/182/152 189/200/167 173/183/153
f 173/183/153 189/200/167 190/201/168
f 173/183/153 190/201/168 174/184/154
f 174/184/154 190/201/168 191/202/169
f 174/184/154 191/202/169 175/185/155
f 175/185/155 191/202/169 192/203/170
f 175/185/155 192/203/170 176/186/156
f 176/186/156 192/203/170 177/204/1
f 176/186/156 177/204/1 161/187/1
f 177/188/1 193/205/1 194/206/171
f 177/188/1 194/206/171 178/189/157
f 178/189/157 194/206/171 195/207/172
f 178/189/157 195/207/172 179/190/158
f 179/190/158 195/207/172 196/208/173
f 179/190/158 196/208/173 180/191/159
f 180/191/159 196/208/173 197/209/174
f 180/191/159 197/209/174 181/192/160
f 181/192/160 197/209/174 198/210/175
f 181/192/160 198/210/175 182/193/161
f 182/193/161 198/210/175 199/211/176
f 182/193/161 199/211/176 183/194/162
f 183/194/162 199/211/176 200/212/177
f 183/194/162 200/212/177 184/195/163
f 184/195/163 200/212/177 201/213/16
f 184/195/163 201/213/16 185/196/16
f 185/196/16 201/213/16 202/214/178
f 185/196/16 202/214/178 186/197/164
f 186/197/164 202/214/178 203/215/179
f 186/197/164 203/215/179 187/198/165
f 187/198/165 203/215/179 204/216/180
f 187/198/165 204/216/180 188/199/166
f 188/199/166 204/216/180 205/217/181
f 188/199/166 205/217/181 189/200/167
f 189/200/167 205/217/181 206/218/182
f 189/200/167 206/218/182 190/201/168
f 190/201/168 206/218/182 207/219/183
f 190/201/168 207/219/183 191/202/169
f 191/202/169 207/219/183 208/220/184
f 191/202/169 208/220/184 192/203/170
f 192/203/170 208/220/184 193/221/1
f 192/203/170 193/221/1 177/204/1
