# Procedurally generated by dev-env-utils/scripts/gen_mast_arm_curves.py
# cell 1 of 10 at (+1 along arm, +0 up)
mtllib mastarmcurve.mtl
o mastarm_8x2_c1
v 0.804688 0.968750 1.000000
v 0.804127 1.000000 0.928203
v 0.780976 1.106801 0.974450
v 0.781495 1.075573 1.046735
v 0.715050 1.197343 1.013655
v 0.715447 1.166133 1.086355
v 0.616384 1.257842 1.039852
v 0.616599 1.226643 1.112828
v 0.500000 1.279086 1.049051
v 0.500000 1.247892 1.122124
v 0.383616 1.257842 1.039852
v 0.383401 1.226643 1.112828
v 0.284950 1.197343 1.013655
v 0.284553 1.166133 1.086355
v 0.219024 1.106801 0.974450
v 0.218505 1.075573 1.046735
v 0.195873 1.000000 0.928203
v 0.195312 0.968750 1.000000
v 0.219024 0.893199 0.881957
v 0.218505 0.861927 0.953265
v 0.284950 0.802657 0.842751
v 0.284553 0.771367 0.913645
v 0.383616 0.742158 0.816555
v 0.383401 0.710857 0.887172
v 0.500000 0.720914 0.807356
v 0.500000 0.689608 0.877876
v 0.616384 0.742158 0.816555
v 0.616599 0.710857 0.887172
v 0.715050 0.802657 0.842751
v 0.715447 0.771367 0.913645
v 0.780976 0.893199 0.881957
v 0.781495 0.861927 0.953265
vt 0.250000 0.311331
vt 0.250000 0.350483
vt 0.281250 0.350483
vt 0.281250 0.311331
vt 0.312500 0.350483
vt 0.312500 0.311331
vt 0.343750 0.350483
vt 0.343750 0.311331
vt 0.375000 0.350483
vt 0.375000 0.311331
vt 0.406250 0.350483
vt 0.406250 0.311331
vt 0.437500 0.350483
vt 0.437500 0.311331
vt 0.468750 0.350483
vt 0.468750 0.311331
vt 0.500000 0.350483
vt 0.500000 0.311331
vt 0.531250 0.350483
vt 0.531250 0.311331
vt 0.562500 0.350483
vt 0.562500 0.311331
vt 0.593750 0.350483
vt 0.593750 0.311331
vt 0.625000 0.350483
vt 0.625000 0.311331
vt 0.656250 0.350483
vt 0.656250 0.311331
vt 0.687500 0.350483
vt 0.687500 0.311331
vt 0.718750 0.350483
vt 0.718750 0.311331
vt 0.750000 0.350483
vt 0.750000 0.311331
vn 1.000000 0.000000 0.000000
vn 0.923880 0.351174 0.152063
vn 0.923880 0.350598 0.153387
vn 0.707107 0.648886 0.280976
vn 0.707107 0.647821 0.283422
vn 0.382683 0.847810 0.367113
vn 0.382683 0.846419 0.370308
vn 0.000000 0.917663 0.397360
vn 0.000000 0.916157 0.400819
vn -0.382683 0.847810 0.367113
vn -0.382683 0.846419 0.370308
vn -0.707107 0.648886 0.280976
vn -0.707107 0.647821 0.283422
vn -0.923880 0.351174 0.152063
vn -0.923880 0.350598 0.153387
vn -1.000000 0.000000 0.000000
vn -0.923880 -0.351174 -0.152063
vn -0.923880 -0.350598 -0.153387
vn -0.707107 -0.648886 -0.280976
vn -0.707107 -0.647821 -0.283422
vn -0.382683 -0.847810 -0.367113
vn -0.382683 -0.846419 -0.370308
vn -0.000000 -0.917663 -0.397360
vn -0.000000 -0.916157 -0.400819
vn 0.382683 -0.847810 -0.367113
vn 0.382683 -0.846419 -0.370308
vn 0.707107 -0.648886 -0.280976
vn 0.707107 -0.647821 -0.283422
vn 0.923880 -0.351174 -0.152063
vn 0.923880 -0.350598 -0.153387
usemtl body
f 1/1/1 2/2/1 3/3/2
f 1/1/1 3/3/2 4/4/3
f 4/4/3 3/3/2 5/5/4
f 4/4/3 5/5/4 6/6/5
f 6/6/5 5/5/4 7/7/6
f 6/6/5 7/7/6 8/8/7
f 8/8/7 7/7/6 9/9/8
f 8/8/7 9/9/8 10/10/9
f 10/10/9 9/9/8 11/11/10
f 10/10/9 11/11/10 12/12/11
f 12/12/11 11/11/10 13/13/12
f 12/12/11 13/13/12 14/14/13
f 14/14/13 13/13/12 15/15/14
f 14/14/13 15/15/14 16/16/15
f 16/16/15 15/15/14 17/17/16
f 16/16/15 17/17/16 18/18/16
f 18/18/16 17/17/16 19/19/17
f 18/18/16 19/19/17 20/20/18
f 20/20/18 19/19/17 21/21/19
f 20/20/18 21/21/19 22/22/20
f 22/22/20 21/21/19 23/23/21
f 22/22/20 23/23/21 24/24/22
f 24/24/22 23/23/21 25/25/23
f 24/24/22 25/25/23 26/26/24
f 26/26/24 25/25/23 27/27/25
f 26/26/24 27/27/25 28/28/26
f 28/28/26 27/27/25 29/29/27
f 28/28/26 29/29/27 30/30/28
f 30/30/28 29/29/27 31/31/29
f 30/30/28 31/31/29 32/32/30
f 32/32/30 31/31/29 2/33/1
f 32/32/30 2/33/1 1/34/1
