# Procedurally generated by dev-env-utils/scripts/gen_mast_arm_curves.py
# cell 1 of 5 at (+1 along arm, +0 up)
mtllib mastarmcurve.mtl
o mastarm_4x1_c1
v 0.778125 0.937500 1.000000
v 0.777344 0.968316 0.916667
v 0.756232 1.068030 0.953021
v 0.756954 1.037157 1.037371
v 0.696112 1.152564 0.983841
v 0.696664 1.121642 1.069053
v 0.606135 1.209048 1.004434
v 0.606434 1.178094 1.090223
v 0.500000 1.228882 1.011665
v 0.500000 1.197917 1.097656
v 0.393865 1.209048 1.004434
v 0.393566 1.178094 1.090223
v 0.303888 1.152564 0.983841
v 0.303336 1.121642 1.069053
v 0.243768 1.068030 0.953021
v 0.243046 1.037157 1.037371
v 0.222656 0.968316 0.916667
v 0.221875 0.937500 1.000000
v 0.243768 0.868601 0.880312
v 0.243046 0.837843 0.962629
v 0.303888 0.784068 0.849493
v 0.303336 0.753358 0.930947
v 0.393865 0.727584 0.828900
v 0.393566 0.696906 0.909777
v 0.500000 0.707749 0.821668
v 0.500000 0.677083 0.902344
v 0.606135 0.727584 0.828900
v 0.606434 0.696906 0.909777
v 0.696112 0.784068 0.849493
v 0.696664 0.753358 0.930947
v 0.756232 0.868601 0.880312
v 0.756954 0.837843 0.962629
v 0.776563 0.998264 0.833333
v 0.755510 1.098028 0.868666
v 0.695559 1.182603 0.898620
v 0.605836 1.239115 0.918635
v 0.500000 1.258959 0.925663
v 0.394164 1.239115 0.918635
v 0.304441 1.182603 0.898620
v 0.244490 1.098028 0.868666
v 0.223438 0.998264 0.833333
v 0.244490 0.898500 0.798000
v 0.304441 0.813924 0.768046
v 0.394164 0.757413 0.748032
v 0.500000 0.737569 0.741004
v 0.605836 0.757413 0.748032
v 0.695559 0.813924 0.768046
v 0.755510 0.898500 0.798000
v 0.776517 1.000000 0.828427
v 0.755468 1.099766 0.863700
v 0.695527 1.184344 0.893603
v 0.605818 1.240857 0.913583
v 0.500000 1.260702 0.920599
v 0.394182 1.240857 0.913583
v 0.304473 1.184344 0.893603
v 0.244532 1.099766 0.863700
v 0.223483 1.000000 0.828427
v 0.244532 0.900234 0.793154
v 0.304473 0.815656 0.763252
v 0.394182 0.759143 0.743271
v 0.500000 0.739298 0.736255
v 0.605818 0.759143 0.743271
v 0.695527 0.815656 0.763252
v 0.755468 0.900234 0.793154
vt 0.250000 0.288380
vt 0.250000 0.332804
vt 0.281250 0.332804
vt 0.281250 0.288380
vt 0.312500 0.332804
vt 0.312500 0.288380
vt 0.343750 0.332804
vt 0.343750 0.288380
vt 0.375000 0.332804
vt 0.375000 0.288380
vt 0.406250 0.332804
vt 0.406250 0.288380
vt 0.437500 0.332804
vt 0.437500 0.288380
vt 0.468750 0.332804
vt 0.468750 0.288380
vt 0.500000 0.332804
vt 0.500000 0.288380
vt 0.531250 0.332804
vt 0.531250 0.288380
vt 0.562500 0.332804
vt 0.562500 0.288380
vt 0.593750 0.332804
vt 0.593750 0.288380
vt 0.625000 0.332804
vt 0.625000 0.288380
vt 0.656250 0.332804
vt 0.656250 0.288380
vt 0.687500 0.332804
vt 0.687500 0.288380
vt 0.718750 0.332804
vt 0.718750 0.288380
vt 0.750000 0.332804
vt 0.750000 0.288380
vt 0.250000 0.377080
vt 0.281250 0.377080
vt 0.312500 0.377080
vt 0.343750 0.377080
vt 0.375000 0.377080
vt 0.406250 0.377080
vt 0.437500 0.377080
vt 0.468750 0.377080
vt 0.500000 0.377080
vt 0.531250 0.377080
vt 0.562500 0.377080
vt 0.593750 0.377080
vt 0.625000 0.377080
vt 0.656250 0.377080
vt 0.687500 0.377080
vt 0.718750 0.377080
vt 0.750000 0.377080
vt 0.250000 0.379682
vt 0.281250 0.379682
vt 0.312500 0.379682
vt 0.343750 0.379682
vt 0.375000 0.379682
vt 0.406250 0.379682
vt 0.437500 0.379682
vt 0.468750 0.379682
vt 0.500000 0.379682
vt 0.531250 0.379682
vt 0.562500 0.379682
vt 0.593750 0.379682
vt 0.625000 0.379682
vt 0.656250 0.379682
vt 0.687500 0.379682
vt 0.718750 0.379682
vt 0.750000 0.379682
vn 1.000000 0.000000 0.000000
vn 0.923880 0.359534 0.131080
vn 0.923880 0.358318 0.134369
vn 0.707107 0.664332 0.242204
vn 0.707107 0.662085 0.248282
vn 0.382683 0.867992 0.316455
vn 0.382683 0.865055 0.324396
vn 0.000000 0.939507 0.342529
vn 0.000000 0.936329 0.351123
vn -0.382683 0.867992 0.316455
vn -0.382683 0.865055 0.324396
vn -0.707107 0.664332 0.242204
vn -0.707107 0.662085 0.248282
vn -0.923880 0.359534 0.131080
vn -0.923880 0.358318 0.134369
vn -1.000000 0.000000 0.000000
vn -0.923880 -0.359534 -0.131080
vn -0.923880 -0.358318 -0.134369
vn -0.707107 -0.664332 -0.242204
vn -0.707107 -0.662085 -0.248282
vn -0.382683 -0.867992 -0.316455
vn -0.382683 -0.865055 -0.324396
vn -0.000000 -0.939507 -0.342529
vn -0.000000 -0.936329 -0.351123
vn 0.382683 -0.867992 -0.316455
vn 0.382683 -0.865055 -0.324396
vn 0.707107 -0.664332 -0.242204
vn 0.707107 -0.662085 -0.248282
vn 0.923880 -0.359534 -0.131080
vn 0.923880 -0.358318 -0.134369
vn 0.923880 0.360728 0.127758
vn 0.707107 0.666538 0.236066
vn 0.382683 0.870874 0.308435
vn 0.000000 0.942627 0.333847
vn -0.382683 0.870874 0.308435
vn -0.707107 0.666538 0.236066
vn -0.923880 0.360728 0.127758
vn -0.923880 -0.360728 -0.127758
vn -0.707107 -0.666538 -0.236066
vn -0.382683 -0.870874 -0.308435
vn -0.000000 -0.942627 -0.333847
vn 0.382683 -0.870874 -0.308435
vn 0.707107 -0.666538 -0.236066
vn 0.923880 -0.360728 -0.127758
vn 0.923880 0.360797 0.127561
vn 0.707107 0.666667 0.235702
vn 0.382683 0.871042 0.307960
vn 0.000000 0.942809 0.333333
vn -0.382683 0.871042 0.307960
vn -0.707107 0.666667 0.235702
vn -0.923880 0.360797 0.127561
vn -0.923880 -0.360797 -0.127561
vn -0.707107 -0.666667 -0.235702
vn -0.382683 -0.871042 -0.307960
vn -0.000000 -0.942809 -0.333333
vn 0.382683 -0.871042 -0.307960
vn 0.707107 -0.666667 -0.235702
vn 0.923880 -0.360797 -0.127561
usemtl body
f 1/1/1 2/2/1 3/3/2
f 1/1/1 3/3/2 4/4/3
f 4/4/3 3/3/2 5/5/4
f 4/4/3 5/5/4 6/6/5
f 6/6/5 5/5/4 7/7/6
f 6/6/5 7/7/6 8/8/7
f 8/8/7 7/7/6 9/9/8
f 8/8/7 9/9/8 10/10/9
f 10/10/9 9/9/8 11/11/10
f 10/10/9 11/11/10 12/12/11
f 12/12/11 11/11/10 13/13/12
f 12/12/11 13/13/12 14/14/13
f 14/14/13 13/13/12 15/15/14
f 14/14/13 15/15/14 16/16/15
f 16/16/15 15/15/14 17/17/16
f 16/16/15 17/17/16 18/18/16
f 18/18/16 17/17/16 19/19/17
f 18/18/16 19/19/17 20/20/18
f 20/20/18 19/19/17 21/21/19
f 20/20/18 21/21/19 22/22/20
f 22/22/20 21/21/19 23/23/21
f 22/22/20 23/23/21 24/24/22
f 24/24/22 23/23/21 25/25/23
f 24/24/22 25/25/23 26/26/24
f 26/26/24 25/25/23 27/27/25
f 26/26/24 27/27/25 28/28/26
f 28/28/26 27/27/25 29/29/27
f 28/28/26 29/29/27 30/30/28
f 30/30/28 29/29/27 31/31/29
f 30/30/28 31/31/29 32/32/30
f 32/32/30 31/31/29 2/33/1
f 32/32/30 2/33/1 1/34/1
f 2/2/1 33/35/1 34/36/31
f 2/2/1 34/36/31 3/3/2
f 3/3/2 34/36/31 35/37/32
f 3/3/2 35/37/32 5/5/4
f 5/5/4 35/37/32 36/38/33
f 5/5/4 36/38/33 7/7/6
f 7/7/6 36/38/33 37/39/34
f 7/7/6 37/39/34 9/9/8
f 9/9/8 37/39/34 38/40/35
f 9/9/8 38/40/35 11/11/10
f 11/11/10 38/40/35 39/41/36
f 11/11/10 39/41/36 13/13/12
f 13/13/12 39/41/36 40/42/37
f 13/13/12 40/42/37 15/15/14
f 15/15/14 40/42/37 41/43/16
f 15/15/14 41/43/16 17/17/16
f 17/17/16 41/43/16 42/44/38
f 17/17/16 42/44/38 19/19/17
f 19/19/17 42/44/38 43/45/39
f 19/19/17 43/45/39 21/21/19
f 21/21/19 43/45/39 44/46/40
f 21/21/19 44/46/40 23/23/21
f 23/23/21 44/46/40 45/47/41
f 23/23/21 45/47/41 25/25/23
f 25/25/23 45/47/41 46/48/42
f 25/25/23 46/48/42 27/27/25
f 27/27/25 46/48/42 47/49/43
f 27/27/25 47/49/43 29/29/27
f 29/29/27 47/49/43 48/50/44
f 29/29/27 48/50/44 31/31/29
f 31/31/29 48/50/44 33/51/1
f 31/31/29 33/51/1 2/33/1
f 33/35/1 49/52/1 50/53/45
f 33/35/1 50/53/45 34/36/31
f 34/36/31 50/53/45 51/54/46
f 34/36/31 51/54/46 35/37/32
f 35/37/32 51/54/46 52/55/47
f 35/37/32 52/55/47 36/38/33
f 36/38/33 52/55/47 53/56/48
f 36/38/33 53/56/48 37/39/34
f 37/39/34 53/56/48 54/57/49
f 37/39/34 54/57/49 38/40/35
f 38/40/35 54/57/49 55/58/50
f 38/40/35 55/58/50 39/41/36
f 39/41/36 55/58/50 56/59/51
f 39/41/36 56/59/51 40/42/37
f 40/42/37 56/59/51 57/60/16
f 40/42/37 57/60/16 41/43/16
f 41/43/16 57/60/16 58/61/52
f 41/43/16 58/61/52 42/44/38
f 42/44/38 58/61/52 59/62/53
f 42/44/38 59/62/53 43/45/39
f 43/45/39 59/62/53 60/63/54
f 43/45/39 60/63/54 44/46/40
f 44/46/40 60/63/54 61/64/55
f 44/46/40 61/64/55 45/47/41
f 45/47/41 61/64/55 62/65/56
f 45/47/41 62/65/56 46/48/42
f 46/48/42 62/65/56 63/66/57
f 46/48/42 63/66/57 47/49/43
f 47/49/43 63/66/57 64/67/58
f 47/49/43 64/67/58 48/50/44
f 48/50/44 64/67/58 49/68/1
f 48/50/44 49/68/1 33/51/1
