# Procedurally generated by dev-env-utils/scripts/gen_mast_arm_curves.py
# cell 2 of 10 at (+1 along arm, +1 up)
mtllib mastarmcurve.mtl
o mastarm_8x2_c2
v 0.804127 0.000000 0.928203
v 0.804036 0.004991 0.916667
v 0.780893 0.111789 0.962835
v 0.780976 0.106801 0.974450
v 0.714986 0.202328 1.001974
v 0.715050 0.197343 1.013655
v 0.616350 0.262824 1.028126
v 0.616384 0.257842 1.039852
v 0.500000 0.284068 1.037309
v 0.500000 0.279086 1.049051
v 0.383650 0.262824 1.028126
v 0.383616 0.257842 1.039852
v 0.285014 0.202328 1.001974
v 0.284950 0.197343 1.013655
v 0.219107 0.111789 0.962835
v 0.219024 0.106801 0.974450
v 0.195964 0.004991 0.916667
v 0.195873 0.000000 0.928203
v 0.219107 -0.101807 0.870499
v 0.219024 -0.106801 0.881957
v 0.285014 -0.192345 0.831360
v 0.284950 -0.197343 0.842751
v 0.383650 -0.252842 0.805208
v 0.383616 -0.257842 0.816555
v 0.500000 -0.274085 0.796024
v 0.500000 -0.279086 0.807356
v 0.616350 -0.252842 0.805208
v 0.616384 -0.257842 0.816555
v 0.714986 -0.192345 0.831360
v 0.715050 -0.197343 0.842751
v 0.780893 -0.101807 0.870499
v 0.780976 -0.106801 0.881957
v 0.803385 0.040799 0.833333
v 0.780292 0.147569 0.878933
v 0.714526 0.238085 0.917591
v 0.616101 0.298566 0.943421
v 0.500000 0.319804 0.952492
v 0.383899 0.298566 0.943421
v 0.285474 0.238085 0.917591
v 0.219708 0.147569 0.878933
v 0.196615 0.040799 0.833333
v 0.219708 -0.065972 0.787733
v 0.285474 -0.156488 0.749076
v 0.383899 -0.216969 0.723245
v 0.500000 -0.238207 0.714175
v 0.616101 -0.216969 0.723245
v 0.714526 -0.156488 0.749076
v 0.780292 -0.065972 0.787733
v 0.802734 0.076172 0.750000
v 0.779690 0.182913 0.795032
v 0.714066 0.273404 0.833207
v 0.615851 0.333868 0.858716
v 0.500000 0.355100 0.867673
v 0.384149 0.333868 0.858716
v 0.285934 0.273404 0.833207
v 0.220310 0.182913 0.795032
v 0.197266 0.076172 0.750000
v 0.220310 -0.030569 0.704968
v 0.285934 -0.121060 0.666793
v 0.384149 -0.181525 0.641284
v 0.500000 -0.202757 0.632327
v 0.615851 -0.181525 0.641284
v 0.714066 -0.121060 0.666793
v 0.779690 -0.030569 0.704968
v 0.802083 0.111111 0.666667
v 0.779089 0.217821 0.711129
v 0.713605 0.308285 0.748823
v 0.615602 0.368731 0.774008
v 0.500000 0.389957 0.782853
v 0.384398 0.368731 0.774008
v 0.286395 0.308285 0.748823
v 0.220911 0.217821 0.711129
v 0.197917 0.111111 0.666667
v 0.220911 0.004401 0.622204
v 0.286395 -0.086063 0.584511
v 0.384398 -0.146509 0.559325
v 0.500000 -0.167735 0.550481
v 0.615602 -0.146509 0.559325
v 0.713605 -0.086063 0.584511
v 0.779089 0.004401 0.622204
v 0.801432 0.145616 0.583333
v 0.778487 0.252292 0.627226
v 0.713145 0.342728 0.664437
v 0.615353 0.403155 0.689300
v 0.500000 0.424374 0.698031
v 0.384647 0.403155 0.689300
v 0.286855 0.342728 0.664437
v 0.221513 0.252292 0.627226
v 0.198568 0.145616 0.583333
v 0.221513 0.038940 0.539441
v 0.286855 -0.051495 0.502230
v 0.384647 -0.111922 0.477367
v 0.500000 -0.133142 0.468636
v 0.615353 -0.111922 0.477367
v 0.713145 -0.051495 0.502230
v 0.778487 0.038940 0.539441
v 0.800781 0.179688 0.500000
v 0.777886 0.286328 0.543323
v 0.712684 0.376733 0.580050
v 0.615104 0.437139 0.604590
v 0.500000 0.458351 0.613207
v 0.384896 0.437139 0.604590
v 0.287316 0.376733 0.580050
v 0.222114 0.286328 0.543323
v 0.199219 0.179688 0.500000
v 0.222114 0.073047 0.456677
v 0.287316 -0.017358 0.419950
v 0.384896 -0.077764 0.395410
v 0.500000 -0.098976 0.386793
v 0.615104 -0.077764 0.395410
v 0.712684 -0.017358 0.419950
v 0.777886 0.073047 0.456677
v 0.800130 0.213325 0.416667
v 0.777284 0.319926 0.459418
v 0.712224 0.410299 0.495662
v 0.614855 0.470684 0.519878
v 0.500000 0.491888 0.528382
v 0.385145 0.470684 0.519878
v 0.287776 0.410299 0.495662
v 0.222716 0.319926 0.459418
v 0.199870 0.213325 0.416667
v 0.222716 0.106723 0.373915
v 0.287776 0.016350 0.337672
v 0.385145 -0.044035 0.313455
v 0.500000 -0.065239 0.304951
v 0.614855 -0.044035 0.313455
v 0.712224 0.016350 0.337672
v 0.777284 0.106723 0.373915
v 0.799479 0.246528 0.333333
v 0.776683 0.353089 0.375514
v 0.711764 0.443427 0.411273
v 0.614606 0.503789 0.435166
v 0.500000 0.524985 0.443556
v 0.385394 0.503789 0.435166
v 0.288236 0.443427 0.411273
v 0.223317 0.353089 0.375514
v 0.200521 0.246528 0.333333
v 0.223317 0.139967 0.291153
v 0.288236 0.049628 0.255394
v 0.385394 -0.010734 0.231501
v 0.500000 -0.031930 0.223110
v 0.614606 -0.010734 0.231501
v 0.711764 0.049628 0.255394
v 0.776683 0.139967 0.291153
v 0.798828 0.279297 0.250000
v 0.776081 0.385815 0.291609
v 0.711303 0.476117 0.326883
v 0.614357 0.536455 0.350452
v 0.500000 0.557643 0.358729
v 0.385643 0.536455 0.350452
v 0.288697 0.476117 0.326883
v 0.223919 0.385815 0.291609
v 0.201172 0.279297 0.250000
v 0.223919 0.172779 0.208391
v 0.288697 0.082477 0.173117
v 0.385643 0.022139 0.149548
v 0.500000 0.000951 0.141271
v 0.614357 0.022139 0.149548
v 0.711303 0.082477 0.173117
v 0.776081 0.172779 0.208391
v 0.798177 0.311632 0.166667
v 0.775480 0.418105 0.207703
v 0.710843 0.508369 0.242492
v 0.614107 0.568681 0.265738
v 0.500000 0.589859 0.273900
v 0.385893 0.568681 0.265738
v 0.289157 0.508369 0.242492
v 0.224520 0.418105 0.207703
v 0.201823 0.311632 0.166667
v 0.224520 0.205159 0.125630
v 0.289157 0.114895 0.090841
v 0.385893 0.054583 0.067596
v 0.500000 0.033404 0.059433
v 0.614107 0.054583 0.067596
v 0.710843 0.114895 0.090841
v 0.775480 0.205159 0.125630
v 0.797526 0.343533 0.083333
v 0.774878 0.449958 0.123797
v 0.710383 0.540182 0.158101
v 0.613858 0.600467 0.181022
v 0.500000 0.621636 0.189070
v 0.386142 0.600467 0.181022
v 0.289617 0.540182 0.158101
v 0.225122 0.449958 0.123797
v 0.202474 0.343533 0.083333
v 0.225122 0.237107 0.042869
v 0.289617 0.146884 0.008566
v 0.386142 0.086599 -0.014355
v 0.500000 0.065430 -0.022404
v 0.613858 0.086599 -0.014355
v 0.710383 0.146884 0.008566
v 0.774878 0.237107 0.042869
v 0.796875 0.375000 0.000000
v 0.774277 0.481376 0.039891
v 0.709922 0.571556 0.073709
v 0.613609 0.631813 0.096305
v 0.500000 0.652973 0.104240
v 0.386391 0.631813 0.096305
v 0.290078 0.571556 0.073709
v 0.225723 0.481376 0.039891
v 0.203125 0.375000 0.000000
v 0.225723 0.268624 -0.039891
v 0.290078 0.178444 -0.073709
v 0.386391 0.118187 -0.096305
v 0.500000 0.097027 -0.104240
v 0.613609 0.118187 -0.096305
v 0.709922 0.178444 -0.073709
v 0.774277 0.268624 -0.039891
vt 0.250000 0.350483
vt 0.250000 0.356768
vt 0.281250 0.356768
vt 0.281250 0.350483
vt 0.312500 0.356768
vt 0.312500 0.350483
vt 0.343750 0.356768
vt 0.343750 0.350483
vt 0.375000 0.356768
vt 0.375000 0.350483
vt 0.406250 0.356768
vt 0.406250 0.350483
vt 0.437500 0.356768
vt 0.437500 0.350483
vt 0.468750 0.356768
vt 0.468750 0.350483
vt 0.500000 0.356768
vt 0.500000 0.350483
vt 0.531250 0.356768
vt 0.531250 0.350483
vt 0.562500 0.356768
vt 0.562500 0.350483
vt 0.593750 0.356768
vt 0.593750 0.350483
vt 0.625000 0.356768
vt 0.625000 0.350483
vt 0.656250 0.356768
vt 0.656250 0.350483
vt 0.687500 0.356768
vt 0.687500 0.350483
vt 0.718750 0.356768
vt 0.718750 0.350483
vt 0.750000 0.356768
vt 0.750000 0.350483
vt 0.250000 0.402118
vt 0.281250 0.402118
vt 0.312500 0.402118
vt 0.343750 0.402118
vt 0.375000 0.402118
vt 0.406250 0.402118
vt 0.437500 0.402118
vt 0.468750 0.402118
vt 0.500000 0.402118
vt 0.531250 0.402118
vt 0.562500 0.402118
vt 0.593750 0.402118
vt 0.625000 0.402118
vt 0.656250 0.402118
vt 0.687500 0.402118
vt 0.718750 0.402118
vt 0.750000 0.402118
vt 0.250000 0.447383
vt 0.281250 0.447383
vt 0.312500 0.447383
vt 0.343750 0.447383
vt 0.375000 0.447383
vt 0.406250 0.447383
vt 0.437500 0.447383
vt 0.468750 0.447383
vt 0.500000 0.447383
vt 0.531250 0.447383
vt 0.562500 0.447383
vt 0.593750 0.447383
vt 0.625000 0.447383
vt 0.656250 0.447383
vt 0.687500 0.447383
vt 0.718750 0.447383
vt 0.750000 0.447383
vt 0.250000 0.492564
vt 0.281250 0.492564
vt 0.312500 0.492564
vt 0.343750 0.492564
vt 0.375000 0.492564
vt 0.406250 0.492564
vt 0.437500 0.492564
vt 0.468750 0.492564
vt 0.500000 0.492564
vt 0.531250 0.492564
vt 0.562500 0.492564
vt 0.593750 0.492564
vt 0.625000 0.492564
vt 0.656250 0.492564
vt 0.687500 0.492564
vt 0.718750 0.492564
vt 0.750000 0.492564
vt 0.250000 0.537661
vt 0.281250 0.537661
vt 0.312500 0.537661
vt 0.343750 0.537661
vt 0.375000 0.537661
vt 0.406250 0.537661
vt 0.437500 0.537661
vt 0.468750 0.537661
vt 0.500000 0.537661
vt 0.531250 0.537661
vt 0.562500 0.537661
vt 0.593750 0.537661
vt 0.625000 0.537661
vt 0.656250 0.537661
vt 0.687500 0.537661
vt 0.718750 0.537661
vt 0.750000 0.537661
vt 0.250000 0.582676
vt 0.281250 0.582676
vt 0.312500 0.582676
vt 0.343750 0.582676
vt 0.375000 0.582676
vt 0.406250 0.582676
vt 0.437500 0.582676
vt 0.468750 0.582676
vt 0.500000 0.582676
vt 0.531250 0.582676
vt 0.562500 0.582676
vt 0.593750 0.582676
vt 0.625000 0.582676
vt 0.656250 0.582676
vt 0.687500 0.582676
vt 0.718750 0.582676
vt 0.750000 0.582676
vt 0.250000 0.627609
vt 0.281250 0.627609
vt 0.312500 0.627609
vt 0.343750 0.627609
vt 0.375000 0.627609
vt 0.406250 0.627609
vt 0.437500 0.627609
vt 0.468750 0.627609
vt 0.500000 0.627609
vt 0.531250 0.627609
vt 0.562500 0.627609
vt 0.593750 0.627609
vt 0.625000 0.627609
vt 0.656250 0.627609
vt 0.687500 0.627609
vt 0.718750 0.627609
vt 0.750000 0.627609
vt 0.250000 0.672461
vt 0.281250 0.672461
vt 0.312500 0.672461
vt 0.343750 0.672461
vt 0.375000 0.672461
vt 0.406250 0.672461
vt 0.437500 0.672461
vt 0.468750 0.672461
vt 0.500000 0.672461
vt 0.531250 0.672461
vt 0.562500 0.672461
vt 0.593750 0.672461
vt 0.625000 0.672461
vt 0.656250 0.672461
vt 0.687500 0.672461
vt 0.718750 0.672461
vt 0.750000 0.672461
vt 0.250000 0.717233
vt 0.281250 0.717233
vt 0.312500 0.717233
vt 0.343750 0.717233
vt 0.375000 0.717233
vt 0.406250 0.717233
vt 0.437500 0.717233
vt 0.468750 0.717233
vt 0.500000 0.717233
vt 0.531250 0.717233
vt 0.562500 0.717233
vt 0.593750 0.717233
vt 0.625000 0.717233
vt 0.656250 0.717233
vt 0.687500 0.717233
vt 0.718750 0.717233
vt 0.750000 0.717233
vt 0.250000 0.738073
vt 0.281250 0.738073
vt 0.312500 0.738073
vt 0.343750 0.738073
vt 0.375000 0.738073
vt 0.406250 0.738073
vt 0.437500 0.738073
vt 0.468750 0.738073
vt 0.500000 0.738073
vt 0.531250 0.738073
vt 0.562500 0.738073
vt 0.593750 0.738073
vt 0.625000 0.738073
vt 0.656250 0.738073
vt 0.687500 0.738073
vt 0.718750 0.738073
vt 0.750000 0.738073
vt 0.250000 0.693458
vt 0.281250 0.693458
vt 0.312500 0.693458
vt 0.343750 0.693458
vt 0.375000 0.693458
vt 0.406250 0.693458
vt 0.437500 0.693458
vt 0.468750 0.693458
vt 0.500000 0.693458
vt 0.531250 0.693458
vt 0.562500 0.693458
vt 0.593750 0.693458
vt 0.625000 0.693458
vt 0.656250 0.693458
vt 0.687500 0.693458
vt 0.718750 0.693458
vt 0.750000 0.693458
vt 0.250000 0.648920
vt 0.281250 0.648920
vt 0.312500 0.648920
vt 0.343750 0.648920
vt 0.375000 0.648920
vt 0.406250 0.648920
vt 0.437500 0.648920
vt 0.468750 0.648920
vt 0.500000 0.648920
vt 0.531250 0.648920
vt 0.562500 0.648920
vt 0.593750 0.648920
vt 0.625000 0.648920
vt 0.656250 0.648920
vt 0.687500 0.648920
vt 0.718750 0.648920
vt 0.750000 0.648920
vn 1.000000 0.000000 0.000000
vn 0.923880 0.351267 0.151850
vn 0.923880 0.351174 0.152063
vn 0.707107 0.649056 0.280582
vn 0.707107 0.648886 0.280976
vn 0.382683 0.848033 0.366598
vn 0.382683 0.847810 0.367113
vn 0.000000 0.917904 0.396802
vn 0.000000 0.917663 0.397360
vn -0.382683 0.848033 0.366598
vn -0.382683 0.847810 0.367113
vn -0.707107 0.649056 0.280582
vn -0.707107 0.648886 0.280976
vn -0.923880 0.351267 0.151850
vn -0.923880 0.351174 0.152063
vn -1.000000 0.000000 0.000000
vn -0.923880 -0.351267 -0.151850
vn -0.923880 -0.351174 -0.152063
vn -0.707107 -0.649056 -0.280582
vn -0.707107 -0.648886 -0.280976
vn -0.382683 -0.848033 -0.366598
vn -0.382683 -0.847810 -0.367113
vn -0.000000 -0.917904 -0.396802
vn -0.000000 -0.917663 -0.397360
vn 0.382683 -0.848033 -0.366598
vn 0.382683 -0.847810 -0.367113
vn 0.707107 -0.649056 -0.280582
vn 0.707107 -0.648886 -0.280976
vn 0.923880 -0.351267 -0.151850
vn 0.923880 -0.351174 -0.152063
vn 0.923880 0.351931 0.150304
vn 0.707107 0.650284 0.277725
vn 0.382683 0.849636 0.362866
vn 0.000000 0.919640 0.392763
vn -0.382683 0.849636 0.362866
vn -0.707107 0.650284 0.277725
vn -0.923880 0.351931 0.150304
vn -0.923880 -0.351931 -0.150304
vn -0.707107 -0.650284 -0.277725
vn -0.382683 -0.849636 -0.362866
vn -0.000000 -0.919640 -0.392763
vn 0.382683 -0.849636 -0.362866
vn 0.707107 -0.650284 -0.277725
vn 0.923880 -0.351931 -0.150304
vn 0.923880 0.352591 0.148749
vn 0.707107 0.651503 0.274853
vn 0.382683 0.851229 0.359112
vn 0.000000 0.921364 0.388701
vn -0.382683 0.851229 0.359112
vn -0.707107 0.651503 0.274853
vn -0.923880 0.352591 0.148749
vn -0.923880 -0.352591 -0.148749
vn -0.707107 -0.651503 -0.274853
vn -0.382683 -0.851229 -0.359112
vn -0.000000 -0.921364 -0.388701
vn 0.382683 -0.851229 -0.359112
vn 0.707107 -0.651503 -0.274853
vn 0.923880 -0.352591 -0.148749
vn 0.923880 0.353246 0.147186
vn 0.707107 0.652714 0.271964
vn 0.382683 0.852812 0.355338
vn 0.000000 0.923077 0.384615
vn -0.382683 0.852812 0.355338
vn -0.707107 0.652714 0.271964
vn -0.923880 0.353246 0.147186
vn -0.923880 -0.353246 -0.147186
vn -0.707107 -0.652714 -0.271964
vn -0.382683 -0.852812 -0.355338
vn -0.000000 -0.923077 -0.384615
vn 0.382683 -0.852812 -0.355338
vn 0.707107 -0.652714 -0.271964
vn 0.923880 -0.353246 -0.147186
vn 0.923880 0.353897 0.145614
vn 0.707107 0.653917 0.269059
vn 0.382683 0.854383 0.351543
vn 0.000000 0.924778 0.380508
vn -0.382683 0.854383 0.351543
vn -0.707107 0.653917 0.269059
vn -0.923880 0.353897 0.145614
vn -0.923880 -0.353897 -0.145614
vn -0.707107 -0.653917 -0.269059
vn -0.382683 -0.854383 -0.351543
vn -0.000000 -0.924778 -0.380508
vn 0.382683 -0.854383 -0.351543
vn 0.707107 -0.653917 -0.269059
vn 0.923880 -0.353897 -0.145614
vn 0.923880 0.354543 0.144033
vn 0.707107 0.655111 0.266139
vn 0.382683 0.855944 0.347727
vn 0.000000 0.926467 0.376377
vn -0.382683 0.855944 0.347727
vn -0.707107 0.655111 0.266139
vn -0.923880 0.354543 0.144033
vn -0.923880 -0.354543 -0.144033
vn -0.707107 -0.655111 -0.266139
vn -0.382683 -0.855944 -0.347727
vn -0.000000 -0.926467 -0.376377
vn 0.382683 -0.855944 -0.347727
vn 0.707107 -0.655111 -0.266139
vn 0.923880 -0.354543 -0.144033
vn 0.923880 0.355185 0.142444
vn 0.707107 0.656296 0.263202
vn 0.382683 0.857492 0.343890
vn 0.000000 0.928143 0.372224
vn -0.382683 0.857492 0.343890
vn -0.707107 0.656296 0.263202
vn -0.923880 0.355185 0.142444
vn -0.923880 -0.355185 -0.142444
vn -0.707107 -0.656296 -0.263202
vn -0.382683 -0.857492 -0.343890
vn -0.000000 -0.928143 -0.372224
vn 0.382683 -0.857492 -0.343890
vn 0.707107 -0.656296 -0.263202
vn 0.923880 -0.355185 -0.142444
vn 0.923880 0.355822 0.140846
vn 0.707107 0.657473 0.260250
vn 0.382683 0.859029 0.340032
vn 0.000000 0.929807 0.368048
vn -0.382683 0.859029 0.340032
vn -0.707107 0.657473 0.260250
vn -0.923880 0.355822 0.140846
vn -0.923880 -0.355822 -0.140846
vn -0.707107 -0.657473 -0.260250
vn -0.382683 -0.859029 -0.340032
vn -0.000000 -0.929807 -0.368048
vn 0.382683 -0.859029 -0.340032
vn 0.707107 -0.657473 -0.260250
vn 0.923880 -0.355822 -0.140846
vn 0.923880 0.356453 0.139240
vn 0.707107 0.658640 0.257281
vn 0.382683 0.860554 0.336154
vn 0.000000 0.931457 0.363851
vn -0.382683 0.860554 0.336154
vn -0.707107 0.658640 0.257281
vn -0.923880 0.356453 0.139240
vn -0.923880 -0.356453 -0.139240
vn -0.707107 -0.658640 -0.257281
vn -0.382683 -0.860554 -0.336154
vn -0.000000 -0.931457 -0.363851
vn 0.382683 -0.860554 -0.336154
vn 0.707107 -0.658640 -0.257281
vn 0.923880 -0.356453 -0.139240
vn 0.923880 0.357080 0.137625
vn 0.707107 0.659798 0.254297
vn 0.382683 0.862067 0.332255
vn 0.000000 0.933095 0.359630
vn -0.382683 0.862067 0.332255
vn -0.707107 0.659798 0.254297
vn -0.923880 0.357080 0.137625
vn -0.923880 -0.357080 -0.137625
vn -0.707107 -0.659798 -0.254297
vn -0.382683 -0.862067 -0.332255
vn -0.000000 -0.933095 -0.359630
vn 0.382683 -0.862067 -0.332255
vn 0.707107 -0.659798 -0.254297
vn 0.923880 -0.357080 -0.137625
vn 0.923880 0.357701 0.136001
vn 0.707107 0.660946 0.251297
vn 0.382683 0.863568 0.328336
vn 0.000000 0.934719 0.355388
vn -0.382683 0.863568 0.328336
vn -0.707107 0.660946 0.251297
vn -0.923880 0.357701 0.136001
vn -0.923880 -0.357701 -0.136001
vn -0.707107 -0.660946 -0.251297
vn -0.382683 -0.863568 -0.328336
vn -0.000000 -0.934719 -0.355388
vn 0.382683 -0.863568 -0.328336
vn 0.707107 -0.660946 -0.251297
vn 0.923880 -0.357701 -0.136001
vn 0.923880 0.358318 0.134369
vn 0.707107 0.662085 0.248282
vn 0.382683 0.865055 0.324396
vn 0.000000 0.936329 0.351123
vn -0.382683 0.865055 0.324396
vn -0.707107 0.662085 0.248282
vn -0.923880 0.358318 0.134369
vn -0.923880 -0.358318 -0.134369
vn -0.707107 -0.662085 -0.248282
vn -0.382683 -0.865055 -0.324396
vn -0.000000 -0.936329 -0.351123
vn 0.382683 -0.865055 -0.324396
vn 0.707107 -0.662085 -0.248282
vn 0.923880 -0.358318 -0.134369
usemtl body
f 1/1/1 2/2/1 3/3/2
f 1/1/1 3/3/2 4/4/3
f 4/4/3 3/3/2 5/5/4
f 4/4/3 5/5/4 6/6/5
f 6/6/5 5/5/4 7/7/6
f 6/6/5 7/7/6 8/8/7
f 8/8/7 7/7/6 9/9/8
f 8/8/7 9/9/8 10/10/9
f 10/10/9 9/9/8 11/11/10
f 10/10/9 11/11/10 12/12/11
f 12/12/11 11/11/10 13/13/12
f 12/12/11 13/13/12 14/14/13
f 14/14/13 13/13/12 15/15/14
f 14/14/13 15/15/14 16/16/15
f 16/16/15 15/15/14 17/17/16
f 16/16/15 17/17/16 18/18/16
f 18/18/16 17/17/16 19/19/17
f 18/18/16 19/19/17 20/20/18
f 20/20/18 19/19/17 21/21/19
f 20/20/18 21/21/19 22/22/20
f 22/22/20 21/21/19 23/23/21
f 22/22/20 23/23/21 24/24/22
f 24/24/22 23/23/21 25/25/23
f 24/24/22 25/25/23 26/26/24
f 26/26/24 25/25/23 27/27/25
f 26/26/24 27/27/25 28/28/26
f 28/28/26 27/27/25 29/29/27
f 28/28/26 29/29/27 30/30/28
f 30/30/28 29/29/27 31/31/29
f 30/30/28 31/31/29 32/32/30
f 32/32/30 31/31/29 2/33/1
f 32/32/30 2/33/1 1/34/1
f 2/2/1 33/35/1 34/36/31
f 2/2/1 34/36/31 3/3/2
f 3/3/2 34/36/31 35/37/32
f 3/3/2 35/37/32 5/5/4
f 5/5/4 35/37/32 36/38/33
f 5/5/4 36/38/33 7/7/6
f 7/7/6 36/38/33 37/39/34
f 7/7/6 37/39/34 9/9/8
f 9/9/8 37/39/34 38/40/35
f 9/9/8 38/40/35 11/11/10
f 11/11/10 38/40/35 39/41/36
f 11/11/10 39/41/36 13/13/12
f 13/13/12 39/41/36 40/42/37
f 13/13/12 40/42/37 15/15/14
f 15/15/14 40/42/37 41/43/16
f 15/15/14 41/43/16 17/17/16
f 17/17/16 41/43/16 42/44/38
f 17/17/16 42/44/38 19/19/17
f 19/19/17 42/44/38 43/45/39
f 19/19/17 43/45/39 21/21/19
f 21/21/19 43/45/39 44/46/40
f 21/21/19 44/46/40 23/23/21
f 23/23/21 44/46/40 45/47/41
f 23/23/21 45/47/41 25/25/23
f 25/25/23 45/47/41 46/48/42
f 25/25/23 46/48/42 27/27/25
f 27/27/25 46/48/42 47/49/43
f 27/27/25 47/49/43 29/29/27
f 29/29/27 47/49/43 48/50/44
f 29/29/27 48/50/44 31/31/29
f 31/31/29 48/50/44 33/51/1
f 31/31/29 33/51/1 2/33/1
f 33/35/1 49/52/1 50/53/45
f 33/35/1 50/53/45 34/36/31
f 34/36/31 50/53/45 51/54/46
f 34/36/31 51/54/46 35/37/32
f 35/37/32 51/54/46 52/55/47
f 35/37/32 52/55/47 36/38/33
f 36/38/33 52/55/47 53/56/48
f 36/38/33 53/56/48 37/39/34
f 37/39/34 53/56/48 54/57/49
f 37/39/34 54/57/49 38/40/35
f 38/40/35 54/57/49 55/58/50
f 38/40/35 55/58/50 39/41/36
f 39/41/36 55/58/50 56/59/51
f 39/41/36 56/59/51 40/42/37
f 40/42/37 56/59/51 57/60/16
f 40/42/37 57/60/16 41/43/16
f 41/43/16 57/60/16 58/61/52
f 41/43/16 58/61/52 42/44/38
f 42/44/38 58/61/52 59/62/53
f 42/44/38 59/62/53 43/45/39
f 43/45/39 59/62/53 60/63/54
f 43/45/39 60/63/54 44/46/40
f 44/46/40 60/63/54 61/64/55
f 44/46/40 61/64/55 45/47/41
f 45/47/41 61/64/55 62/65/56
f 45/47/41 62/65/56 46/48/42
f 46/48/42 62/65/56 63/66/57
f 46/48/42 63/66/57 47/49/43
f 47/49/43 63/66/57 64/67/58
f 47/49/43 64/67/58 48/50/44
f 48/50/44 64/67/58 49/68/1
f 48/50/44 49/68/1 33/51/1
f 49/52/1 65/69/1 66/70/59
f 49/52/1 66/70/59 50/53/45
f 50/53/45 66/70/59 67/71/60
f 50/53/45 67/71/60 51/54/46
f 51/54/46 67/71/60 68/72/61
f 51/54/46 68/72/61 52/55/47
f 52/55/47 68/72/61 69/73/62
f 52/55/47 69/73/62 53/56/48
f 53/56/48 69/73/62 70/74/63
f 53/56/48 70/74/63 54/57/49
f 54/57/49 70/74/63 71/75/64
f 54/57/49 71/75/64 55/58/50
f 55/58/50 71/75/64 72/76/65
f 55/58/50 72/76/65 56/59/51
f 56/59/51 72/76/65 73/77/16
f 56/59/51 73/77/16 57/60/16
f 57/60/16 73/77/16 74/78/66
f 57/60/16 74/78/66 58/61/52
f 58/61/52 74/78/66 75/79/67
f 58/61/52 75/79/67 59/62/53
f 59/62/53 75/79/67 76/80/68
f 59/62/53 76/80/68 60/63/54
f 60/63/54 76/80/68 77/81/69
f 60/63/54 77/81/69 61/64/55
f 61/64/55 77/81/69 78/82/70
f 61/64/55 78/82/70 62/65/56
f 62/65/56 78/82/70 79/83/71
f 62/65/56 79/83/71 63/66/57
f 63/66/57 79/83/71 80/84/72
f 63/66/57 80/84/72 64/67/58
f 64/67/58 80/84/72 65/85/1
f 64/67/58 65/85/1 49/68/1
f 65/69/1 81/86/1 82/87/73
f 65/69/1 82/87/73 66/70/59
f 66/70/59 82/87/73 83/88/74
f 66/70/59 83/88/74 67/71/60
f 67/71/60 83/88/74 84/89/75
f 67/71/60 84/89/75 68/72/61
f 68/72/61 84/89/75 85/90/76
f 68/72/61 85/90/76 69/73/62
f 69/73/62 85/90/76 86/91/77
f 69/73/62 86/91/77 70/74/63
f 70/74/63 86/91/77 87/92/78
f 70/74/63 87/92/78 71/75/64
f 71/75/64 87/92/78 88/93/79
f 71/75/64 88/93/79 72/76/65
f 72/76/65 88/93/79 89/94/16
f 72/76/65 89/94/16 73/77/16
f 73/77/16 89/94/16 90/95/80
f 73/77/16 90/95/80 74/78/66
f 74/78/66 90/95/80 91/96/81
f 74/78/66 91/96/81 75/79/67
f 75/79/67 91/96/81 92/97/82
f 75/79/67 92/97/82 76/80/68
f 76/80/68 92/97/82 93/98/83
f 76/80/68 93/98/83 77/81/69
f 77/81/69 93/98/83 94/99/84
f 77/81/69 94/99/84 78/82/70
f 78/82/70 94/99/84 95/100/85
f 78/82/70 95/100/85 79/83/71
f 79/83/71 95/100/85 96/101/86
f 79/83/71 96/101/86 80/84/72
f 80/84/72 96/101/86 81/102/1
f 80/84/72 81/102/1 65/85/1
f 81/86/1 97/103/1 98/104/87
f 81/86/1 98/104/87 82/87/73
f 82/87/73 98/104/87 99/105/88
f 82/87/73 99/105/88 83/88/74
f 83/88/74 99/105/88 100/106/89
f 83/88/74 100/106/89 84/89/75
f 84/89/75 100/106/89 101/107/90
f 84/89/75 101/107/90 85/90/76
f 85/90/76 101/107/90 102/108/91
f 85/90/76 102/108/91 86/91/77
f 86/91/77 102/108/91 103/109/92
f 86/91/77 103/109/92 87/92/78
f 87/92/78 103/109/92 104/110/93
f 87/92/78 104/110/93 88/93/79
f 88/93/79 104/110/93 105/111/16
f 88/93/79 105/111/16 89/94/16
f 89/94/16 105/111/16 106/112/94
f 89/94/16 106/112/94 90/95/80
f 90/95/80 106/112/94 107/113/95
f 90/95/80 107/113/95 91/96/81
f 91/96/81 107/113/95 108/114/96
f 91/96/81 108/114/96 92/97/82
f 92/97/82 108/114/96 109/115/97
f 92/97/82 109/115/97 93/98/83
f 93/98/83 109/115/97 110/116/98
f 93/98/83 110/116/98 94/99/84
f 94/99/84 110/116/98 111/117/99
f 94/99/84 111/117/99 95/100/85
f 95/100/85 111/117/99 112/118/100
f 95/100/85 112/118/100 96/101/86
f 96/101/86 112/118/100 97/119/1
f 96/101/86 97/119/1 81/102/1
f 97/103/1 113/120/1 114/121/101
f 97/103/1 114/121/101 98/104/87
f 98/104/87 114/121/101 115/122/102
f 98/104/87 115/122/102 99/105/88
f 99/105/88 115/122/102 116/123/103
f 99/105/88 116/123/103 100/106/89
f 100/106/89 116/123/103 117/124/104
f 100/106/89 117/124/104 101/107/90
f 101/107/90 117/124/104 118/125/105
f 101/107/90 118/125/105 102/108/91
f 102/108/91 118/125/105 119/126/106
f 102/108/91 119/126/106 103/109/92
f 103/109/92 119/126/106 120/127/107
f 103/109/92 120/127/107 104/110/93
f 104/110/93 120/127/107 121/128/16
f 104/110/93 121/128/16 105/111/16
f 105/111/16 121/128/16 122/129/108
f 105/111/16 122/129/108 106/112/94
f 106/112/94 122/129/108 123/130/109
f 106/112/94 123/130/109 107/113/95
f 107/113/95 123/130/109 124/131/110
f 107/113/95 124/131/110 108/114/96
f 108/114/96 124/131/110 125/132/111
f 108/114/96 125/132/111 109/115/97
f 109/115/97 125/132/111 126/133/112
f 109/115/97 126/133/112 110/116/98
f 110/116/98 126/133/112 127/134/113
f 110/116/98 127/134/113 111/117/99
f 111/117/99 127/134/113 128/135/114
f 111/117/99 128/135/114 112/118/100
f 112/118/100 128/135/114 113/136/1
f 112/118/100 113/136/1 97/119/1
f 113/120/1 129/137/1 130/138/115
f 113/120/1 130/138/115 114/121/101
f 114/121/101 130/138/115 131/139/116
f 114/121/101 131/139/116 115/122/102
f 115/122/102 131/139/116 132/140/117
f 115/122/102 132/140/117 116/123/103
f 116/123/103 132/140/117 133/141/118
f 116/123/103 133/141/118 117/124/104
f 117/124/104 133/141/118 134/142/119
f 117/124/104 134/142/119 118/125/105
f 118/125/105 134/142/119 135/143/120
f 118/125/105 135/143/120 119/126/106
f 119/126/106 135/143/120 136/144/121
f 119/126/106 136/144/121 120/127/107
f 120/127/107 136/144/121 137/145/16
f 120/127/107 137/145/16 121/128/16
f 121/128/16 137/145/16 138/146/122
f 121/128/16 138/146/122 122/129/108
f 122/129/108 138/146/122 139/147/123
f 122/129/108 139/147/123 123/130/109
f 123/130/109 139/147/123 140/148/124
f 123/130/109 140/148/124 124/131/110
f 124/131/110 140/148/124 141/149/125
f 124/131/110 141/149/125 125/132/111
f 125/132/111 141/149/125 142/150/126
f 125/132/111 142/150/126 126/133/112
f 126/133/112 142/150/126 143/151/127
f 126/133/112 143/151/127 127/134/113
f 127/134/113 143/151/127 144/152/128
f 127/134/113 144/152/128 128/135/114
f 128/135/114 144/152/128 129/153/1
f 128/135/114 129/153/1 113/136/1
f 129/137/1 145/154/1 146/155/129
f 129/137/1 146/155/129 130/138/115
f 130/138/115 146/155/129 147/156/130
f 130/138/115 147/156/130 131/139/116
f 131/139/116 147/156/130 148/157/131
f 131/139/116 148/157/131 132/140/117
f 132/140/117 148/157/131 149/158/132
f 132/140/117 149/158/132 133/141/118
f 133/141/118 149/158/132 150/159/133
f 133/141/118 150/159/133 134/142/119
f 134/142/119 150/159/133 151/160/134
f 134/142/119 151/160/134 135/143/120
f 135/143/120 151/160/134 152/161/135
f 135/143/120 152/161/135 136/144/121
f 136/144/121 152/161/135 153/162/16
f 136/144/121 153/162/16 137/145/16
f 137/145/16 153/162/16 154/163/136
f 137/145/16 154/163/136 138/146/122
f 138/146/122 154/163/136 155/164/137
f 138/146/122 155/164/137 139/147/123
f 139/147/123 155/164/137 156/165/138
f 139/147/123 156/165/138 140/148/124
f 140/148/124 156/165/138 157/166/139
f 140/148/124 157/166/139 141/149/125
f 141/149/125 157/166/139 158/167/140
f 141/149/125 158/167/140 142/150/126
f 142/150/126 158/167/140 159/168/141
f 142/150/126 159/168/141 143/151/127
f 143/151/127 159/168/141 160/169/142
f 143/151/127 160/169/142 144/152/128
f 144/152/128 160/169/142 145/170/1
f 144/152/128 145/170/1 129/153/1
f 145/154/1 161/171/1 162/172/143
f 145/154/1 162/172/143 146/155/129
f 146/155/129 162/172/143 163/173/144
f 146/155/129 163/173/144 147/156/130
f 147/156/130 163/173/144 164/174/145
f 147/156/130 164/174/145 148/157/131
f 148/157/131 164/174/145 165/175/146
f 148/157/131 165/175/146 149/158/132
f 149/158/132 165/175/146 166/176/147
f 149/158/132 166/176/147 150/159/133
f 150/159/133 166/176/147 167/177/148
f 150/159/133 167/177/148 151/160/134
f 151/160/134 167/177/148 168/178/149
f 151/160/134 168/178/149 152/161/135
f 152/161/135 168/178/149 169/179/16
f 152/161/135 169/179/16 153/162/16
f 153/162/16 169/179/16 170/180/150
f 153/162/16 170/180/150 154/163/136
f 154/163/136 170/180/150 171/181/151
f 154/163/136 171/181/151 155/164/137
f 155/164/137 171/181/151 172/182/152
f 155/164/137 172/182/152 156/165/138
f 156/165/138 172/182/152 173/183/153
f 156/165/138 173/183/153 157/166/139
f 157/166/139 173/183/153 174/184/154
f 157/166/139 174/184/154 158/167/140
f 158/167/140 174/184/154 175/185/155
f 158/167/140 175/185/155 159/168/141
f 159/168/141 175/185/155 176/186/156
f 159/168/141 176/186/156 160/169/142
f 160/169/142 176/186/156 161/187/1
f 160/169/142 161/187/1 145/170/1
f 161/171/1 177/188/1 178/189/157
f 161/171/1 178/189/157 162/172/143
f 162/172/143 178/189/157 179/190/158
f 162/172/143 179/190/158 163/173/144
f 163/173/144 179/190/158 180/191/159
f 163/173/144 180/191/159 164/174/145
f 164/174/145 180/191/159 181/192/160
f 164/174/145 181/192/160 165/175/146
f 165/175/146 181/192/160 182/193/161
f 165/175/146 182/193/161 166/176/147
f 166/176/147 182/193/161 183/194/162
f 166/176/147 183/194/162 167/177/148
f 167/177/148 183/194/162 184/195/163
f 167/177/148 184/195/163 168/178/149
f 168/178/149 184/195/163 185/196/16
f 168/178/149 185/196/16 169/179/16
f 169/179/16 185/196/16 186/197/164
f 169/179/16 186/197/164 170/180/150
f 170/180/150 186/197/164 187/198/165
f 170/180/150 187/198/165 171/181/151
f 171/181/151 187/198/165 188/199/166
f 171/181/151 188/199/166 172/182/152
f 172/182/152 188/199/166 189/200/167
f 172/182/152 189/200/167 173/183/153
f 173/183/153 189/200/167 190/201/168
f 173/183/153 190/201/168 174/184/154
f 174/184/154 190/201/168 191/202/169
f 174/184/154 191/202/169 175/185/155
f 175/185/155 191/202/169 192/203/170
f 175/185/155 192/203/170 176/186/156
f 176/186/156 192/203/170 177/204/1
f 176/186/156 177/204/1 161/187/1
f 177/188/1 193/205/1 194/206/171
f 177/188/1 194/206/171 178/189/157
f 178/189/157 194/206/171 195/207/172
f 178/189/157 195/207/172 179/190/158
f 179/190/158 195/207/172 196/208/173
f 179/190/158 196/208/173 180/191/159
f 180/191/159 196/208/173 197/209/174
f 180/191/159 197/209/174 181/192/160
f 181/192/160 197/209/174 198/210/175
f 181/192/160 198/210/175 182/193/161
f 182/193/161 198/210/175 199/211/176
f 182/193/161 199/211/176 183/194/162
f 183/194/162 199/211/176 200/212/177
f 183/194/162 200/212/177 184/195/163
f 184/195/163 200/212/177 201/213/16
f 184/195/163 201/213/16 185/196/16
f 185/196/16 201/213/16 202/214/178
f 185/196/16 202/214/178 186/197/164
f 186/197/164 202/214/178 203/215/179
f 186/197/164 203/215/179 187/198/165
f 187/198/165 203/215/179 204/216/180
f 187/198/165 204/216/180 188/199/166
f 188/199/166 204/216/180 205/217/181
f 188/199/166 205/217/181 189/200/167
f 189/200/167 205/217/181 206/218/182
f 189/200/167 206/218/182 190/201/168
f 190/201/168 206/218/182 207/219/183
f 190/201/168 207/219/183 191/202/169
f 191/202/169 207/219/183 208/220/184
f 191/202/169 208/220/184 192/203/170
f 192/203/170 208/220/184 193/221/1
f 192/203/170 193/221/1 177/204/1
