# Procedurally generated by dev-env-utils/scripts/gen_mast_arm_curves.py
# cell 5 of 10 at (+4 along arm, +1 up)
mtllib mastarmcurve.mtl
o mastarm_8x2_c5
v 0.781250 1.000000 1.000000
v 0.780599 1.020616 0.916667
v 0.759240 1.124917 0.942199
v 0.759841 1.104416 1.026104
v 0.698413 1.213339 0.963844
v 0.698874 1.192936 1.048234
v 0.607381 1.272421 0.978306
v 0.607630 1.252083 1.063021
v 0.500000 1.293168 0.983385
v 0.500000 1.272853 1.068213
v 0.392619 1.272421 0.978306
v 0.392370 1.252083 1.063021
v 0.301587 1.213339 0.963844
v 0.301126 1.192936 1.048234
v 0.240760 1.124917 0.942199
v 0.240159 1.104416 1.026104
v 0.219401 1.020616 0.916667
v 0.218750 1.000000 1.000000
v 0.240760 0.916315 0.891135
v 0.240159 0.895584 0.973896
v 0.301587 0.827893 0.869490
v 0.301126 0.807064 0.951766
v 0.392619 0.768811 0.855027
v 0.392370 0.747917 0.936979
v 0.500000 0.748065 0.849948
v 0.500000 0.727147 0.931787
v 0.607381 0.768811 0.855027
v 0.607630 0.747917 0.936979
v 0.698413 0.827893 0.869490
v 0.698874 0.807064 0.951766
v 0.759240 0.916315 0.891135
v 0.759841 0.895584 0.973896
vt 0.250000 0.600664
vt 0.250000 0.557741
vt 0.281250 0.557741
vt 0.281250 0.600664
vt 0.312500 0.557741
vt 0.312500 0.600664
vt 0.343750 0.557741
vt 0.343750 0.600664
vt 0.375000 0.557741
vt 0.375000 0.600664
vt 0.406250 0.557741
vt 0.406250 0.600664
vt 0.437500 0.557741
vt 0.437500 0.600664
vt 0.468750 0.557741
vt 0.468750 0.600664
vt 0.500000 0.557741
vt 0.500000 0.600664
vt 0.531250 0.557741
vt 0.531250 0.600664
vt 0.562500 0.557741
vt 0.562500 0.600664
vt 0.593750 0.557741
vt 0.593750 0.600664
vt 0.625000 0.557741
vt 0.625000 0.600664
vt 0.656250 0.557741
vt 0.656250 0.600664
vt 0.687500 0.557741
vt 0.687500 0.600664
vt 0.718750 0.557741
vt 0.718750 0.600664
vt 0.750000 0.557741
vt 0.750000 0.600664
vn 1.000000 0.000000 0.000000
vn 0.923880 0.371709 0.090991
vn 0.923880 0.371257 0.092814
vn 0.707107 0.686828 0.168130
vn 0.707107 0.685994 0.171499
vn 0.382683 0.897384 0.219672
vn 0.382683 0.896295 0.224074
vn 0.000000 0.971321 0.237771
vn 0.000000 0.970143 0.242536
vn -0.382683 0.897384 0.219672
vn -0.382683 0.896295 0.224074
vn -0.707107 0.686828 0.168130
vn -0.707107 0.685994 0.171499
vn -0.923880 0.371709 0.090991
vn -0.923880 0.371257 0.092814
vn -1.000000 0.000000 0.000000
vn -0.923880 -0.371709 -0.090991
vn -0.923880 -0.371257 -0.092814
vn -0.707107 -0.686828 -0.168130
vn -0.707107 -0.685994 -0.171499
vn -0.382683 -0.897384 -0.219672
vn -0.382683 -0.896295 -0.224074
vn -0.000000 -0.971321 -0.237771
vn -0.000000 -0.970143 -0.242536
vn 0.382683 -0.897384 -0.219672
vn 0.382683 -0.896295 -0.224074
vn 0.707107 -0.686828 -0.168130
vn 0.707107 -0.685994 -0.171499
vn 0.923880 -0.371709 -0.090991
vn 0.923880 -0.371257 -0.092814
usemtl body
f 1/1/1 2/2/1 3/3/2
f 1/1/1 3/3/2 4/4/3
f 4/4/3 3/3/2 5/5/4
f 4/4/3 5/5/4 6/6/5
f 6/6/5 5/5/4 7/7/6
f 6/6/5 7/7/6 8/8/7
f 8/8/7 7/7/6 9/9/8
f 8/8/7 9/9/8 10/10/9
f 10/10/9 9/9/8 11/11/10
f 10/10/9 11/11/10 12/12/11
f 12/12/11 11/11/10 13/13/12
f 12/12/11 13/13/12 14/14/13
f 14/14/13 13/13/12 15/15/14
f 14/14/13 15/15/14 16/16/15
f 16/16/15 15/15/14 17/17/16
f 16/16/15 17/17/16 18/18/16
f 18/18/16 17/17/16 19/19/17
f 18/18/16 19/19/17 20/20/18
f 20/20/18 19/19/17 21/21/19
f 20/20/18 21/21/19 22/22/20
f 22/22/20 21/21/19 23/23/21
f 22/22/20 23/23/21 24/24/22
f 24/24/22 23/23/21 25/25/23
f 24/24/22 25/25/23 26/26/24
f 26/26/24 25/25/23 27/27/25
f 26/26/24 27/27/25 28/28/26
f 28/28/26 27/27/25 29/29/27
f 28/28/26 29/29/27 30/30/28
f 30/30/28 29/29/27 31/31/29
f 30/30/28 31/31/29 32/32/30
f 32/32/30 31/31/29 2/33/1
f 32/32/30 2/33/1 1/34/1
