# Procedurally generated by dev-env-utils/scripts/gen_mast_arm_curves.py
# cell 4 of 6 at (+3 along arm, +1 up)
mtllib mastarmcurve.mtl
o mastarm_5x1_c4
v 0.765000 0.340000 1.000000
v 0.764375 0.353056 0.916667
v 0.744251 0.453059 0.932000
v 0.744828 0.440137 1.016022
v 0.686941 0.537837 0.945000
v 0.687383 0.525030 1.029605
v 0.601172 0.594485 0.953686
v 0.601411 0.581753 1.038681
v 0.500000 0.614376 0.956736
v 0.500000 0.601672 1.041867
v 0.398828 0.594485 0.953686
v 0.398589 0.581753 1.038681
v 0.313059 0.537837 0.945000
v 0.312617 0.525030 1.029605
v 0.255749 0.453059 0.932000
v 0.255172 0.440137 1.016022
v 0.235625 0.353056 0.916667
v 0.235000 0.340000 1.000000
v 0.255749 0.253052 0.901333
v 0.255172 0.239863 0.983978
v 0.313059 0.168274 0.888333
v 0.312617 0.154970 0.970395
v 0.398828 0.111627 0.879648
v 0.398589 0.098247 0.961319
v 0.500000 0.091735 0.876597
v 0.500000 0.078328 0.958133
v 0.601172 0.111627 0.879648
v 0.601411 0.098247 0.961319
v 0.686941 0.168274 0.888333
v 0.687383 0.154970 0.970395
v 0.744251 0.253052 0.901333
v 0.744828 0.239863 0.983978
v 0.763750 0.365556 0.833333
v 0.743673 0.465420 0.847980
v 0.686499 0.550081 0.860397
v 0.600933 0.606649 0.868694
v 0.500000 0.626514 0.871607
v 0.399067 0.606649 0.868694
v 0.313501 0.550081 0.860397
v 0.256327 0.465420 0.847980
v 0.236250 0.365556 0.833333
v 0.256327 0.265691 0.818687
v 0.313501 0.181030 0.806270
v 0.399067 0.124462 0.797973
v 0.500000 0.104597 0.795059
v 0.600933 0.124462 0.797973
v 0.686499 0.181030 0.806270
v 0.743673 0.265691 0.818687
v 0.763125 0.377500 0.750000
v 0.743096 0.477221 0.763961
v 0.686057 0.561760 0.775796
v 0.600694 0.618248 0.783705
v 0.500000 0.638084 0.786482
v 0.399306 0.618248 0.783705
v 0.313943 0.561760 0.775796
v 0.256904 0.477221 0.763961
v 0.236875 0.377500 0.750000
v 0.256904 0.277779 0.736039
v 0.313943 0.193240 0.724204
v 0.399306 0.136752 0.716295
v 0.500000 0.116916 0.713518
v 0.600694 0.136752 0.716295
v 0.686057 0.193240 0.724204
v 0.743096 0.277779 0.736039
v 0.762500 0.388889 0.666667
v 0.742518 0.488462 0.679943
v 0.685616 0.572876 0.691198
v 0.600454 0.629280 0.698719
v 0.500000 0.649086 0.701360
v 0.399546 0.629280 0.698719
v 0.314384 0.572876 0.691198
v 0.257482 0.488462 0.679943
v 0.237500 0.388889 0.666667
v 0.257482 0.289316 0.653390
v 0.314384 0.204902 0.642135
v 0.399546 0.148498 0.634615
v 0.500000 0.128692 0.631974
v 0.600454 0.148498 0.634615
v 0.685616 0.204902 0.642135
v 0.742518 0.289316 0.653390
v 0.761875 0.399722 0.583333
v 0.741941 0.499143 0.595927
v 0.685174 0.583428 0.606603
v 0.600215 0.639745 0.613736
v 0.500000 0.659521 0.616241
v 0.399785 0.639745 0.613736
v 0.314826 0.583428 0.606603
v 0.258059 0.499143 0.595927
v 0.238125 0.399722 0.583333
v 0.258059 0.300301 0.570740
v 0.314826 0.216016 0.560064
v 0.399785 0.159699 0.552930
v 0.500000 0.139923 0.550425
v 0.600215 0.159699 0.552930
v 0.685174 0.216016 0.560064
v 0.741941 0.300301 0.570740
v 0.761250 0.410000 0.500000
v 0.741364 0.509264 0.511912
v 0.684732 0.593416 0.522010
v 0.599976 0.649644 0.528757
v 0.500000 0.669389 0.531127
v 0.400024 0.649644 0.528757
v 0.315268 0.593416 0.522010
v 0.258636 0.509264 0.511912
v 0.238750 0.410000 0.500000
v 0.258636 0.310736 0.488088
v 0.315268 0.226584 0.477990
v 0.400024 0.170356 0.471243
v 0.500000 0.150611 0.468873
v 0.599976 0.170356 0.471243
v 0.684732 0.226584 0.477990
v 0.741364 0.310736 0.488088
v 0.760625 0.419722 0.416667
v 0.740786 0.518825 0.427898
v 0.684290 0.602840 0.437420
v 0.599737 0.658977 0.443782
v 0.500000 0.678689 0.446016
v 0.400263 0.658977 0.443782
v 0.315710 0.602840 0.437420
v 0.259214 0.518825 0.427898
v 0.239375 0.419722 0.416667
v 0.259214 0.320620 0.405435
v 0.315710 0.236605 0.395913
v 0.400263 0.180468 0.389551
v 0.500000 0.160755 0.387317
v 0.599737 0.180468 0.389551
v 0.684290 0.236605 0.395913
v 0.740786 0.320620 0.405435
v 0.760000 0.428889 0.333333
v 0.740209 0.527825 0.343887
v 0.683848 0.611700 0.352833
v 0.599498 0.667743 0.358811
v 0.500000 0.687422 0.360910
v 0.400502 0.667743 0.358811
v 0.316152 0.611700 0.352833
v 0.259791 0.527825 0.343887
v 0.240000 0.428889 0.333333
v 0.259791 0.329952 0.322780
v 0.316152 0.246078 0.313834
v 0.400502 0.190035 0.307856
v 0.500000 0.170355 0.305756
v 0.599498 0.190035 0.307856
v 0.683848 0.246078 0.313834
v 0.740209 0.329952 0.322780
v 0.759375 0.437500 0.250000
v 0.739631 0.536266 0.259877
v 0.683406 0.619996 0.268250
v 0.599259 0.675942 0.273844
v 0.500000 0.695588 0.275809
v 0.400741 0.675942 0.273844
v 0.316594 0.619996 0.268250
v 0.260369 0.536266 0.259877
v 0.240625 0.437500 0.250000
v 0.260369 0.338734 0.240123
v 0.316594 0.255004 0.231750
v 0.400741 0.199058 0.226156
v 0.500000 0.179412 0.224191
v 0.599259 0.199058 0.226156
v 0.683406 0.255004 0.231750
v 0.739631 0.338734 0.240123
v 0.758750 0.445556 0.166667
v 0.739054 0.544146 0.175868
v 0.682964 0.627728 0.183669
v 0.599019 0.683575 0.188882
v 0.500000 0.703186 0.190712
v 0.400981 0.683575 0.188882
v 0.317036 0.627728 0.183669
v 0.260946 0.544146 0.175868
v 0.241250 0.445556 0.166667
v 0.260946 0.346965 0.157465
v 0.317036 0.263383 0.149664
v 0.400981 0.207536 0.144452
v 0.500000 0.187925 0.142621
v 0.599019 0.207536 0.144452
v 0.682964 0.263383 0.149664
v 0.739054 0.346965 0.157465
v 0.758125 0.453056 0.083333
v 0.738476 0.551467 0.091862
v 0.682522 0.634896 0.099093
v 0.598780 0.690641 0.103924
v 0.500000 0.710217 0.105621
v 0.401220 0.690641 0.103924
v 0.317478 0.634896 0.099093
v 0.261524 0.551467 0.091862
v 0.241875 0.453056 0.083333
v 0.261524 0.354644 0.074804
v 0.317478 0.271215 0.067574
v 0.401220 0.215470 0.062743
v 0.500000 0.195895 0.061046
v 0.598780 0.215470 0.062743
v 0.682522 0.271215 0.067574
v 0.738476 0.354644 0.074804
v 0.757500 0.460000 0.000000
v 0.737899 0.558227 0.007858
v 0.682080 0.641500 0.014520
v 0.598541 0.697141 0.018971
v 0.500000 0.716680 0.020534
v 0.401459 0.697141 0.018971
v 0.317920 0.641500 0.014520
v 0.262101 0.558227 0.007858
v 0.242500 0.460000 0.000000
v 0.262101 0.361773 -0.007858
v 0.317920 0.278500 -0.014520
v 0.401459 0.222859 -0.018971
v 0.500000 0.203320 -0.020534
v 0.598541 0.222859 -0.018971
v 0.682080 0.278500 -0.014520
v 0.737899 0.361773 -0.007858
vt 0.250000 0.315607
vt 0.250000 0.357781
vt 0.281250 0.357781
vt 0.281250 0.315607
vt 0.312500 0.357781
vt 0.312500 0.315607
vt 0.343750 0.357781
vt 0.343750 0.315607
vt 0.375000 0.357781
vt 0.375000 0.315607
vt 0.406250 0.357781
vt 0.406250 0.315607
vt 0.437500 0.357781
vt 0.437500 0.315607
vt 0.468750 0.357781
vt 0.468750 0.315607
vt 0.500000 0.357781
vt 0.500000 0.315607
vt 0.531250 0.357781
vt 0.531250 0.315607
vt 0.562500 0.357781
vt 0.562500 0.315607
vt 0.593750 0.357781
vt 0.593750 0.315607
vt 0.625000 0.357781
vt 0.625000 0.315607
vt 0.656250 0.357781
vt 0.656250 0.315607
vt 0.687500 0.357781
vt 0.687500 0.315607
vt 0.718750 0.357781
vt 0.718750 0.315607
vt 0.750000 0.357781
vt 0.750000 0.315607
vt 0.250000 0.399914
vt 0.281250 0.399914
vt 0.312500 0.399914
vt 0.343750 0.399914
vt 0.375000 0.399914
vt 0.406250 0.399914
vt 0.437500 0.399914
vt 0.468750 0.399914
vt 0.500000 0.399914
vt 0.531250 0.399914
vt 0.562500 0.399914
vt 0.593750 0.399914
vt 0.625000 0.399914
vt 0.656250 0.399914
vt 0.687500 0.399914
vt 0.718750 0.399914
vt 0.750000 0.399914
vt 0.250000 0.442007
vt 0.281250 0.442007
vt 0.312500 0.442007
vt 0.343750 0.442007
vt 0.375000 0.442007
vt 0.406250 0.442007
vt 0.437500 0.442007
vt 0.468750 0.442007
vt 0.500000 0.442007
vt 0.531250 0.442007
vt 0.562500 0.442007
vt 0.593750 0.442007
vt 0.625000 0.442007
vt 0.656250 0.442007
vt 0.687500 0.442007
vt 0.718750 0.442007
vt 0.750000 0.442007
vt 0.250000 0.484061
vt 0.281250 0.484061
vt 0.312500 0.484061
vt 0.343750 0.484061
vt 0.375000 0.484061
vt 0.406250 0.484061
vt 0.437500 0.484061
vt 0.468750 0.484061
vt 0.500000 0.484061
vt 0.531250 0.484061
vt 0.562500 0.484061
vt 0.593750 0.484061
vt 0.625000 0.484061
vt 0.656250 0.484061
vt 0.687500 0.484061
vt 0.718750 0.484061
vt 0.750000 0.484061
vt 0.250000 0.526078
vt 0.281250 0.526078
vt 0.312500 0.526078
vt 0.343750 0.526078
vt 0.375000 0.526078
vt 0.406250 0.526078
vt 0.437500 0.526078
vt 0.468750 0.526078
vt 0.500000 0.526078
vt 0.531250 0.526078
vt 0.562500 0.526078
vt 0.593750 0.526078
vt 0.625000 0.526078
vt 0.656250 0.526078
vt 0.687500 0.526078
vt 0.718750 0.526078
vt 0.750000 0.526078
vt 0.250000 0.568060
vt 0.281250 0.568060
vt 0.312500 0.568060
vt 0.343750 0.568060
vt 0.375000 0.568060
vt 0.406250 0.568060
vt 0.437500 0.568060
vt 0.468750 0.568060
vt 0.500000 0.568060
vt 0.531250 0.568060
vt 0.562500 0.568060
vt 0.593750 0.568060
vt 0.625000 0.568060
vt 0.656250 0.568060
vt 0.687500 0.568060
vt 0.718750 0.568060
vt 0.750000 0.568060
vt 0.250000 0.610010
vt 0.281250 0.610010
vt 0.312500 0.610010
vt 0.343750 0.610010
vt 0.375000 0.610010
vt 0.406250 0.610010
vt 0.437500 0.610010
vt 0.468750 0.610010
vt 0.500000 0.610010
vt 0.531250 0.610010
vt 0.562500 0.610010
vt 0.593750 0.610010
vt 0.625000 0.610010
vt 0.656250 0.610010
vt 0.687500 0.610010
vt 0.718750 0.610010
vt 0.750000 0.610010
vt 0.250000 0.651928
vt 0.281250 0.651928
vt 0.312500 0.651928
vt 0.343750 0.651928
vt 0.375000 0.651928
vt 0.406250 0.651928
vt 0.437500 0.651928
vt 0.468750 0.651928
vt 0.500000 0.651928
vt 0.531250 0.651928
vt 0.562500 0.651928
vt 0.593750 0.651928
vt 0.625000 0.651928
vt 0.656250 0.651928
vt 0.687500 0.651928
vt 0.718750 0.651928
vt 0.750000 0.651928
vt 0.250000 0.693816
vt 0.281250 0.693816
vt 0.312500 0.693816
vt 0.343750 0.693816
vt 0.375000 0.693816
vt 0.406250 0.693816
vt 0.437500 0.693816
vt 0.468750 0.693816
vt 0.500000 0.693816
vt 0.531250 0.693816
vt 0.562500 0.693816
vt 0.593750 0.693816
vt 0.625000 0.693816
vt 0.656250 0.693816
vt 0.687500 0.693816
vt 0.718750 0.693816
vt 0.750000 0.693816
vt 0.250000 0.735677
vt 0.281250 0.735677
vt 0.312500 0.735677
vt 0.343750 0.735677
vt 0.375000 0.735677
vt 0.406250 0.735677
vt 0.437500 0.735677
vt 0.468750 0.735677
vt 0.500000 0.735677
vt 0.531250 0.735677
vt 0.562500 0.735677
vt 0.593750 0.735677
vt 0.625000 0.735677
vt 0.656250 0.735677
vt 0.687500 0.735677
vt 0.718750 0.735677
vt 0.750000 0.735677
vt 0.250000 0.722488
vt 0.281250 0.722488
vt 0.312500 0.722488
vt 0.343750 0.722488
vt 0.375000 0.722488
vt 0.406250 0.722488
vt 0.437500 0.722488
vt 0.468750 0.722488
vt 0.500000 0.722488
vt 0.531250 0.722488
vt 0.562500 0.722488
vt 0.593750 0.722488
vt 0.625000 0.722488
vt 0.656250 0.722488
vt 0.687500 0.722488
vt 0.718750 0.722488
vt 0.750000 0.722488
vt 0.250000 0.680677
vt 0.281250 0.680677
vt 0.312500 0.680677
vt 0.343750 0.680677
vt 0.375000 0.680677
vt 0.406250 0.680677
vt 0.437500 0.680677
vt 0.468750 0.680677
vt 0.500000 0.680677
vt 0.531250 0.680677
vt 0.562500 0.680677
vt 0.593750 0.680677
vt 0.625000 0.680677
vt 0.656250 0.680677
vt 0.687500 0.680677
vt 0.718750 0.680677
vt 0.750000 0.680677
vn 1.000000 0.000000 0.000000
vn 0.923880 0.378263 0.058000
vn 0.923880 0.377877 0.060460
vn 0.707107 0.698938 0.107171
vn 0.707107 0.698226 0.111716
vn 0.382683 0.913207 0.140025
vn 0.382683 0.912276 0.145964
vn 0.000000 0.988448 0.151562
vn 0.000000 0.987441 0.157991
vn -0.382683 0.913207 0.140025
vn -0.382683 0.912276 0.145964
vn -0.707107 0.698938 0.107171
vn -0.707107 0.698226 0.111716
vn -0.923880 0.378263 0.058000
vn -0.923880 0.377877 0.060460
vn -1.000000 0.000000 0.000000
vn -0.923880 -0.378263 -0.058000
vn -0.923880 -0.377877 -0.060460
vn -0.707107 -0.698938 -0.107171
vn -0.707107 -0.698226 -0.111716
vn -0.382683 -0.913207 -0.140025
vn -0.382683 -0.912276 -0.145964
vn -0.000000 -0.988448 -0.151562
vn -0.000000 -0.987441 -0.157991
vn 0.382683 -0.913207 -0.140025
vn 0.382683 -0.912276 -0.145964
vn 0.707107 -0.698938 -0.107171
vn 0.707107 -0.698226 -0.111716
vn 0.923880 -0.378263 -0.058000
vn 0.923880 -0.377877 -0.060460
vn 0.923880 0.378633 0.055533
vn 0.707107 0.699622 0.102611
vn 0.382683 0.914100 0.134068
vn 0.000000 0.989415 0.145114
vn -0.382683 0.914100 0.134068
vn -0.707107 0.699622 0.102611
vn -0.923880 0.378633 0.055533
vn -0.923880 -0.378633 -0.055533
vn -0.707107 -0.699622 -0.102611
vn -0.382683 -0.914100 -0.134068
vn -0.000000 -0.989415 -0.145114
vn 0.382683 -0.914100 -0.134068
vn 0.707107 -0.699622 -0.102611
vn 0.923880 -0.378633 -0.055533
vn 0.923880 0.378987 0.053058
vn 0.707107 0.700277 0.098039
vn 0.382683 0.914956 0.128094
vn 0.000000 0.990342 0.138648
vn -0.382683 0.914956 0.128094
vn -0.707107 0.700277 0.098039
vn -0.923880 0.378987 0.053058
vn -0.923880 -0.378987 -0.053058
vn -0.707107 -0.700277 -0.098039
vn -0.382683 -0.914956 -0.128094
vn -0.000000 -0.990342 -0.138648
vn 0.382683 -0.914956 -0.128094
vn 0.707107 -0.700277 -0.098039
vn 0.923880 -0.378987 -0.053058
vn 0.923880 0.379326 0.050577
vn 0.707107 0.700904 0.093454
vn 0.382683 0.915775 0.122103
vn 0.000000 0.991228 0.132164
vn -0.382683 0.915775 0.122103
vn -0.707107 0.700904 0.093454
vn -0.923880 0.379326 0.050577
vn -0.923880 -0.379326 -0.050577
vn -0.707107 -0.700904 -0.093454
vn -0.382683 -0.915775 -0.122103
vn -0.000000 -0.991228 -0.132164
vn 0.382683 -0.915775 -0.122103
vn 0.707107 -0.700904 -0.093454
vn 0.923880 -0.379326 -0.050577
vn 0.923880 0.379650 0.048089
vn 0.707107 0.701502 0.088857
vn 0.382683 0.916556 0.116097
vn 0.000000 0.992073 0.125663
vn -0.382683 0.916556 0.116097
vn -0.707107 0.701502 0.088857
vn -0.923880 0.379650 0.048089
vn -0.923880 -0.379650 -0.048089
vn -0.707107 -0.701502 -0.088857
vn -0.382683 -0.916556 -0.116097
vn -0.000000 -0.992073 -0.125663
vn 0.382683 -0.916556 -0.116097
vn 0.707107 -0.701502 -0.088857
vn 0.923880 -0.379650 -0.048089
vn 0.923880 0.379958 0.045595
vn 0.707107 0.702070 0.084248
vn 0.382683 0.917299 0.110076
vn 0.000000 0.992877 0.119145
vn -0.382683 0.917299 0.110076
vn -0.707107 0.702070 0.084248
vn -0.923880 0.379958 0.045595
vn -0.923880 -0.379958 -0.045595
vn -0.707107 -0.702070 -0.084248
vn -0.382683 -0.917299 -0.110076
vn -0.000000 -0.992877 -0.119145
vn 0.382683 -0.917299 -0.110076
vn 0.707107 -0.702070 -0.084248
vn 0.923880 -0.379958 -0.045595
vn 0.923880 0.380249 0.043095
vn 0.707107 0.702609 0.079629
vn 0.382683 0.918003 0.104040
vn 0.000000 0.993639 0.112612
vn -0.382683 0.918003 0.104040
vn -0.707107 0.702609 0.079629
vn -0.923880 0.380249 0.043095
vn -0.923880 -0.380249 -0.043095
vn -0.707107 -0.702609 -0.079629
vn -0.382683 -0.918003 -0.104040
vn -0.000000 -0.993639 -0.112612
vn 0.382683 -0.918003 -0.104040
vn 0.707107 -0.702609 -0.079629
vn 0.923880 -0.380249 -0.043095
vn 0.923880 0.380525 0.040589
vn 0.707107 0.703118 0.074999
vn 0.382683 0.918668 0.097991
vn 0.000000 0.994359 0.106065
vn -0.382683 0.918668 0.097991
vn -0.707107 0.703118 0.074999
vn -0.923880 0.380525 0.040589
vn -0.923880 -0.380525 -0.040589
vn -0.707107 -0.703118 -0.074999
vn -0.382683 -0.918668 -0.097991
vn -0.000000 -0.994359 -0.106065
vn 0.382683 -0.918668 -0.097991
vn 0.707107 -0.703118 -0.074999
vn 0.923880 -0.380525 -0.040589
vn 0.923880 0.380784 0.038078
vn 0.707107 0.703598 0.070360
vn 0.382683 0.919294 0.091929
vn 0.000000 0.995037 0.099504
vn -0.382683 0.919294 0.091929
vn -0.707107 0.703598 0.070360
vn -0.923880 0.380784 0.038078
vn -0.923880 -0.380784 -0.038078
vn -0.707107 -0.703598 -0.070360
vn -0.382683 -0.919294 -0.091929
vn -0.000000 -0.995037 -0.099504
vn 0.382683 -0.919294 -0.091929
vn 0.707107 -0.703598 -0.070360
vn 0.923880 -0.380784 -0.038078
vn 0.923880 0.381027 0.035563
vn 0.707107 0.704047 0.065711
vn 0.382683 0.919882 0.085856
vn 0.000000 0.995673 0.092929
vn -0.382683 0.919882 0.085856
vn -0.707107 0.704047 0.065711
vn -0.923880 0.381027 0.035563
vn -0.923880 -0.381027 -0.035563
vn -0.707107 -0.704047 -0.065711
vn -0.382683 -0.919882 -0.085856
vn -0.000000 -0.995673 -0.092929
vn 0.382683 -0.919882 -0.085856
vn 0.707107 -0.704047 -0.065711
vn 0.923880 -0.381027 -0.035563
vn 0.923880 0.381254 0.033042
vn 0.707107 0.704466 0.061054
vn 0.382683 0.920429 0.079771
vn 0.000000 0.996265 0.086343
vn -0.382683 0.920429 0.079771
vn -0.707107 0.704466 0.061054
vn -0.923880 0.381254 0.033042
vn -0.923880 -0.381254 -0.033042
vn -0.707107 -0.704466 -0.061054
vn -0.382683 -0.920429 -0.079771
vn -0.000000 -0.996265 -0.086343
vn 0.382683 -0.920429 -0.079771
vn 0.707107 -0.704466 -0.061054
vn 0.923880 -0.381254 -0.033042
vn 0.923880 0.381465 0.030517
vn 0.707107 0.704855 0.056388
vn 0.382683 0.920937 0.073675
vn 0.000000 0.996815 0.079745
vn -0.382683 0.920937 0.073675
vn -0.707107 0.704855 0.056388
vn -0.923880 0.381465 0.030517
vn -0.923880 -0.381465 -0.030517
vn -0.707107 -0.704855 -0.056388
vn -0.382683 -0.920937 -0.073675
vn -0.000000 -0.996815 -0.079745
vn 0.382683 -0.920937 -0.073675
vn 0.707107 -0.704855 -0.056388
vn 0.923880 -0.381465 -0.030517
usemtl body
f 1/1/1 2/2/1 3/3/2
f 1/1/1 3/3/2 4/4/3
f 4/4/3 3/3/2 5/5/4
f 4/4/3 5/5/4 6/6/5
f 6/6/5 5/5/4 7/7/6
f 6/6/5 7/7/6 8/8/7
f 8/8/7 7/7/6 9/9/8
f 8/8/7 9/9/8 10/10/9
f 10/10/9 9/9/8 11/11/10
f 10/10/9 11/11/10 12/12/11
f 12/12/11 11/11/10 13/13/12
f 12/12/11 13/13/12 14/14/13
f 14/14/13 13/13/12 15/15/14
f 14/14/13 15/15/14 16/16/15
f 16/16/15 15/15/14 17/17/16
f 16/16/15 17/17/16 18/18/16
f 18/18/16 17/17/16 19/19/17
f 18/18/16 19/19/17 20/20/18
f 20/20/18 19/19/17 21/21/19
f 20/20/18 21/21/19 22/22/20
f 22/22/20 21/21/19 23/23/21
f 22/22/20 23/23/21 24/24/22
f 24/24/22 23/23/21 25/25/23
f 24/24/22 25/25/23 26/26/24
f 26/26/24 25/25/23 27/27/25
f 26/26/24 27/27/25 28/28/26
f 28/28/26 27/27/25 29/29/27
f 28/28/26 29/29/27 30/30/28
f 30/30/28 29/29/27 31/31/29
f 30/30/28 31/31/29 32/32/30
f 32/32/30 31/31/29 2/33/1
f 32/32/30 2/33/1 1/34/1
f 2/2/1 33/35/1 34/36/31
f 2/2/1 34/36/31 3/3/2
f 3/3/2 34/36/31 35/37/32
f 3/3/2 35/37/32 5/5/4
f 5/5/4 35/37/32 36/38/33
f 5/5/4 36/38/33 7/7/6
f 7/7/6 36/38/33 37/39/34
f 7/7/6 37/39/34 9/9/8
f 9/9/8 37/39/34 38/40/35
f 9/9/8 38/40/35 11/11/10
f 11/11/10 38/40/35 39/41/36
f 11/11/10 39/41/36 13/13/12
f 13/13/12 39/41/36 40/42/37
f 13/13/12 40/42/37 15/15/14
f 15/15/14 40/42/37 41/43/16
f 15/15/14 41/43/16 17/17/16
f 17/17/16 41/43/16 42/44/38
f 17/17/16 42/44/38 19/19/17
f 19/19/17 42/44/38 43/45/39
f 19/19/17 43/45/39 21/21/19
f 21/21/19 43/45/39 44/46/40
f 21/21/19 44/46/40 23/23/21
f 23/23/21 44/46/40 45/47/41
f 23/23/21 45/47/41 25/25/23
f 25/25/23 45/47/41 46/48/42
f 25/25/23 46/48/42 27/27/25
f 27/27/25 46/48/42 47/49/43
f 27/27/25 47/49/43 29/29/27
f 29/29/27 47/49/43 48/50/44
f 29/29/27 48/50/44 31/31/29
f 31/31/29 48/50/44 33/51/1
f 31/31/29 33/51/1 2/33/1
f 33/35/1 49/52/1 50/53/45
f 33/35/1 50/53/45 34/36/31
f 34/36/31 50/53/45 51/54/46
f 34/36/31 51/54/46 35/37/32
f 35/37/32 51/54/46 52/55/47
f 35/37/32 52/55/47 36/38/33
f 36/38/33 52/55/47 53/56/48
f 36/38/33 53/56/48 37/39/34
f 37/39/34 53/56/48 54/57/49
f 37/39/34 54/57/49 38/40/35
f 38/40/35 54/57/49 55/58/50
f 38/40/35 55/58/50 39/41/36
f 39/41/36 55/58/50 56/59/51
f 39/41/36 56/59/51 40/42/37
f 40/42/37 56/59/51 57/60/16
f 40/42/37 57/60/16 41/43/16
f 41/43/16 57/60/16 58/61/52
f 41/43/16 58/61/52 42/44/38
f 42/44/38 58/61/52 59/62/53
f 42/44/38 59/62/53 43/45/39
f 43/45/39 59/62/53 60/63/54
f 43/45/39 60/63/54 44/46/40
f 44/46/40 60/63/54 61/64/55
f 44/46/40 61/64/55 45/47/41
f 45/47/41 61/64/55 62/65/56
f 45/47/41 62/65/56 46/48/42
f 46/48/42 62/65/56 63/66/57
f 46/48/42 63/66/57 47/49/43
f 47/49/43 63/66/57 64/67/58
f 47/49/43 64/67/58 48/50/44
f 48/50/44 64/67/58 49/68/1
f 48/50/44 49/68/1 33/51/1
f 49/52/1 65/69/1 66/70/59
f 49/52/1 66/70/59 50/53/45
f 50/53/45 66/70/59 67/71/60
f 50/53/45 67/71/60 51/54/46
f 51/54/46 67/71/60 68/72/61
f 51/54/46 68/72/61 52/55/47
f 52/55/47 68/72/61 69/73/62
f 52/55/47 69/73/62 53/56/48
f 53/56/48 69/73/62 70/74/63
f 53/56/48 70/74/63 54/57/49
f 54/57/49 70/74/63 71/75/64
f 54/57/49 71/75/64 55/58/50
f 55/58/50 71/75/64 72/76/65
f 55/58/50 72/76/65 56/59/51
f 56/59/51 72/76/65 73/77/16
f 56/59/51 73/77/16 57/60/16
f 57/60/16 73/77/16 74/78/66
f 57/60/16 74/78/66 58/61/52
f 58/61/52 74/78/66 75/79/67
f 58/61/52 75/79/67 59/62/53
f 59/62/53 75/79/67 76/80/68
f 59/62/53 76/80/68 60/63/54
f 60/63/54 76/80/68 77/81/69
f 60/63/54 77/81/69 61/64/55
f 61/64/55 77/81/69 78/82/70
f 61/64/55 78/82/70 62/65/56
f 62/65/56 78/82/70 79/83/71
f 62/65/56 79/83/71 63/66/57
f 63/66/57 79/83/71 80/84/72
f 63/66/57 80/84/72 64/67/58
f 64/67/58 80/84/72 65/85/1
f 64/67/58 65/85/1 49/68/1
f 65/69/1 81/86/1 82/87/73
f 65/69/1 82/87/73 66/70/59
f 66/70/59 82/87/73 83/88/74
f 66/70/59 83/88/74 67/71/60
f 67/71/60 83/88/74 84/89/75
f 67/71/60 84/89/75 68/72/61
f 68/72/61 84/89/75 85/90/76
f 68/72/61 85/90/76 69/73/62
f 69/73/62 85/90/76 86/91/77
f 69/73/62 86/91/77 70/74/63
f 70/74/63 86/91/77 87/92/78
f 70/74/63 87/92/78 71/75/64
f 71/75/64 87/92/78 88/93/79
f 71/75/64 88/93/79 72/76/65
f 72/76/65 88/93/79 89/94/16
f 72/76/65 89/94/16 73/77/16
f 73/77/16 89/94/16 90/95/80
f 73/77/16 90/95/80 74/78/66
f 74/78/66 90/95/80 91/96/81
f 74/78/66 91/96/81 75/79/67
f 75/79/67 91/96/81 92/97/82
f 75/79/67 92/97/82 76/80/68
f 76/80/68 92/97/82 93/98/83
f 76/80/68 93/98/83 77/81/69
f 77/81/69 93/98/83 94/99/84
f 77/81/69 94/99/84 78/82/70
f 78/82/70 94/99/84 95/100/85
f 78/82/70 95/100/85 79/83/71
f 79/83/71 95/100/85 96/101/86
f 79/83/71 96/101/86 80/84/72
f 80/84/72 96/101/86 81/102/1
f 80/84/72 81/102/1 65/85/1
f 81/86/1 97/103/1 98/104/87
f 81/86/1 98/104/87 82/87/73
f 82/87/73 98/104/87 99/105/88
f 82/87/73 99/105/88 83/88/74
f 83/88/74 99/105/88 100/106/89
f 83/88/74 100/106/89 84/89/75
f 84/89/75 100/106/89 101/107/90
f 84/89/75 101/107/90 85/90/76
f 85/90/76 101/107/90 102/108/91
f 85/90/76 102/108/91 86/91/77
f 86/91/77 102/108/91 103/109/92
f 86/91/77 103/109/92 87/92/78
f 87/92/78 103/109/92 104/110/93
f 87/92/78 104/110/93 88/93/79
f 88/93/79 104/110/93 105/111/16
f 88/93/79 105/111/16 89/94/16
f 89/94/16 105/111/16 106/112/94
f 89/94/16 106/112/94 90/95/80
f 90/95/80 106/112/94 107/113/95
f 90/95/80 107/113/95 91/96/81
f 91/96/81 107/113/95 108/114/96
f 91/96/81 108/114/96 92/97/82
f 92/97/82 108/114/96 109/115/97
f 92/97/82 109/115/97 93/98/83
f 93/98/83 109/115/97 110/116/98
f 93/98/83 110/116/98 94/99/84
f 94/99/84 110/116/98 111/117/99
f 94/99/84 111/117/99 95/100/85
f 95/100/85 111/117/99 112/118/100
f 95/100/85 112/118/100 96/101/86
f 96/101/86 112/118/100 97/119/1
f 96/101/86 97/119/1 81/102/1
f 97/103/1 113/120/1 114/121/101
f 97/103/1 114/121/101 98/104/87
f 98/104/87 114/121/101 115/122/102
f 98/104/87 115/122/102 99/105/88
f 99/105/88 115/122/102 116/123/103
f 99/105/88 116/123/103 100/106/89
f 100/106/89 116/123/103 117/124/104
f 100/106/89 117/124/104 101/107/90
f 101/107/90 117/124/104 118/125/105
f 101/107/90 118/125/105 102/108/91
f 102/108/91 118/125/105 119/126/106
f 102/108/91 119/126/106 103/109/92
f 103/109/92 119/126/106 120/127/107
f 103/109/92 120/127/107 104/110/93
f 104/110/93 120/127/107 121/128/16
f 104/110/93 121/128/16 105/111/16
f 105/111/16 121/128/16 122/129/108
f 105/111/16 122/129/108 106/112/94
f 106/112/94 122/129/108 123/130/109
f 106/112/94 123/130/109 107/113/95
f 107/113/95 123/130/109 124/131/110
f 107/113/95 124/131/110 108/114/96
f 108/114/96 124/131/110 125/132/111
f 108/114/96 125/132/111 109/115/97
f 109/115/97 125/132/111 126/133/112
f 109/115/97 126/133/112 110/116/98
f 110/116/98 126/133/112 127/134/113
f 110/116/98 127/134/113 111/117/99
f 111/117/99 127/134/113 128/135/114
f 111/117/99 128/135/114 112/118/100
f 112/118/100 128/135/114 113/136/1
f 112/118/100 113/136/1 97/119/1
f 113/120/1 129/137/1 130/138/115
f 113/120/1 130/138/115 114/121/101
f 114/121/101 130/138/115 131/139/116
f 114/121/101 131/139/116 115/122/102
f 115/122/102 131/139/116 132/140/117
f 115/122/102 132/140/117 116/123/103
f 116/123/103 132/140/117 133/141/118
f 116/123/103 133/141/118 117/124/104
f 117/124/104 133/141/118 134/142/119
f 117/124/104 134/142/119 118/125/105
f 118/125/105 134/142/119 135/143/120
f 118/125/105 135/143/120 119/126/106
f 119/126/106 135/143/120 136/144/121
f 119/126/106 136/144/121 120/127/107
f 120/127/107 136/144/121 137/145/16
f 120/127/107 137/145/16 121/128/16
f 121/128/16 137/145/16 138/146/122
f 121/128/16 138/146/122 122/129/108
f 122/129/108 138/146/122 139/147/123
f 122/129/108 139/147/123 123/130/109
f 123/130/109 139/147/123 140/148/124
f 123/130/109 140/148/124 124/131/110
f 124/131/110 140/148/124 141/149/125
f 124/131/110 141/149/125 125/132/111
f 125/132/111 141/149/125 142/150/126
f 125/132/111 142/150/126 126/133/112
f 126/133/112 142/150/126 143/151/127
f 126/133/112 143/151/127 127/134/113
f 127/134/113 143/151/127 144/152/128
f 127/134/113 144/152/128 128/135/114
f 128/135/114 144/152/128 129/153/1
f 128/135/114 129/153/1 113/136/1
f 129/137/1 145/154/1 146/155/129
f 129/137/1 146/155/129 130/138/115
f 130/138/115 146/155/129 147/156/130
f 130/138/115 147/156/130 131/139/116
f 131/139/116 147/156/130 148/157/131
f 131/139/116 148/157/131 132/140/117
f 132/140/117 148/157/131 149/158/132
f 132/140/117 149/158/132 133/141/118
f 133/141/118 149/158/132 150/159/133
f 133/141/118 150/159/133 134/142/119
f 134/142/119 150/159/133 151/160/134
f 134/142/119 151/160/134 135/143/120
f 135/143/120 151/160/134 152/161/135
f 135/143/120 152/161/135 136/144/121
f 136/144/121 152/161/135 153/162/16
f 136/144/121 153/162/16 137/145/16
f 137/145/16 153/162/16 154/163/136
f 137/145/16 154/163/136 138/146/122
f 138/146/122 154/163/136 155/164/137
f 138/146/122 155/164/137 139/147/123
f 139/147/123 155/164/137 156/165/138
f 139/147/123 156/165/138 140/148/124
f 140/148/124 156/165/138 157/166/139
f 140/148/124 157/166/139 141/149/125
f 141/149/125 157/166/139 158/167/140
f 141/149/125 158/167/140 142/150/126
f 142/150/126 158/167/140 159/168/141
f 142/150/126 159/168/141 143/151/127
f 143/151/127 159/168/141 160/169/142
f 143/151/127 160/169/142 144/152/128
f 144/152/128 160/169/142 145/170/1
f 144/152/128 145/170/1 129/153/1
f 145/154/1 161/171/1 162/172/143
f 145/154/1 162/172/143 146/155/129
f 146/155/129 162/172/143 163/173/144
f 146/155/129 163/173/144 147/156/130
f 147/156/130 163/173/144 164/174/145
f 147/156/130 164/174/145 148/157/131
f 148/157/131 164/174/145 165/175/146
f 148/157/131 165/175/146 149/158/132
f 149/158/132 165/175/146 166/176/147
f 149/158/132 166/176/147 150/159/133
f 150/159/133 166/176/147 167/177/148
f 150/159/133 167/177/148 151/160/134
f 151/160/134 167/177/148 168/178/149
f 151/160/134 168/178/149 152/161/135
f 152/161/135 168/178/149 169/179/16
f 152/161/135 169/179/16 153/162/16
f 153/162/16 169/179/16 170/180/150
f 153/162/16 170/180/150 154/163/136
f 154/163/136 170/180/150 171/181/151
f 154/163/136 171/181/151 155/164/137
f 155/164/137 171/181/151 172/182/152
f 155/164/137 172/182/152 156/165/138
f 156/165/138 172/182/152 173/183/153
f 156/165/138 173/183/153 157/166/139
f 157/166/139 173/183/153 174/184/154
f 157/166/139 174/184/154 158/167/140
f 158/167/140 174/184/154 175/185/155
f 158/167/140 175/185/155 159/168/141
f 159/168/141 175/185/155 176/186/156
f 159/168/141 176/186/156 160/169/142
f 160/169/142 176/186/156 161/187/1
f 160/169/142 161/187/1 145/170/1
f 161/171/1 177/188/1 178/189/157
f 161/171/1 178/189/157 162/172/143
f 162/172/143 178/189/157 179/190/158
f 162/172/143 179/190/158 163/173/144
f 163/173/144 179/190/158 180/191/159
f 163/173/144 180/191/159 164/174/145
f 164/174/145 180/191/159 181/192/160
f 164/174/145 181/192/160 165/175/146
f 165/175/146 181/192/160 182/193/161
f 165/175/146 182/193/161 166/176/147
f 166/176/147 182/193/161 183/194/162
f 166/176/147 183/194/162 167/177/148
f 167/177/148 183/194/162 184/195/163
f 167/177/148 184/195/163 168/178/149
f 168/178/149 184/195/163 185/196/16
f 168/178/149 185/196/16 169/179/16
f 169/179/16 185/196/16 186/197/164
f 169/179/16 186/197/164 170/180/150
f 170/180/150 186/197/164 187/198/165
f 170/180/150 187/198/165 171/181/151
f 171/181/151 187/198/165 188/199/166
f 171/181/151 188/199/166 172/182/152
f 172/182/152 188/199/166 189/200/167
f 172/182/152 189/200/167 173/183/153
f 173/183/153 189/200/167 190/201/168
f 173/183/153 190/201/168 174/184/154
f 174/184/154 190/201/168 191/202/169
f 174/184/154 191/202/169 175/185/155
f 175/185/155 191/202/169 192/203/170
f 175/185/155 192/203/170 176/186/156
f 176/186/156 192/203/170 177/204/1
f 176/186/156 177/204/1 161/187/1
f 177/188/1 193/205/1 194/206/171
f 177/188/1 194/206/171 178/189/157
f 178/189/157 194/206/171 195/207/172
f 178/189/157 195/207/172 179/190/158
f 179/190/158 195/207/172 196/208/173
f 179/190/158 196/208/173 180/191/159
f 180/191/159 196/208/173 197/209/174
f 180/191/159 197/209/174 181/192/160
f 181/192/160 197/209/174 198/210/175
f 181/192/160 198/210/175 182/193/161
f 182/193/161 198/210/175 199/211/176
f 182/193/161 199/211/176 183/194/162
f 183/194/162 199/211/176 200/212/177
f 183/194/162 200/212/177 184/195/163
f 184/195/163 200/212/177 201/213/16
f 184/195/163 201/213/16 185/196/16
f 185/196/16 201/213/16 202/214/178
f 185/196/16 202/214/178 186/197/164
f 186/197/164 202/214/178 203/215/179
f 186/197/164 203/215/179 187/198/165
f 187/198/165 203/215/179 204/216/180
f 187/198/165 204/216/180 188/199/166
f 188/199/166 204/216/180 205/217/181
f 188/199/166 205/217/181 189/200/167
f 189/200/167 205/217/181 206/218/182
f 189/200/167 206/218/182 190/201/168
f 190/201/168 206/218/182 207/219/183
f 190/201/168 207/219/183 191/202/169
f 191/202/169 207/219/183 208/220/184
f 191/202/169 208/220/184 192/203/170
f 192/203/170 208/220/184 193/221/1
f 192/203/170 193/221/1 177/204/1
