# Procedurally generated by dev-env-utils/scripts/gen_mast_arm_curves.py
# mount hardware on cell 1, model-space west
mtllib mastarmcurve.mtl
o mastarm_5x1_c1_west
v 0.500000 0.606949 0.628889
v 0.500000 0.659333 0.448856
v 0.634595 0.685040 0.456336
v 0.634595 0.632655 0.636369
v 0.748699 0.758246 0.477636
v 0.748699 0.705861 0.657670
v 0.824942 0.867806 0.509515
v 0.824942 0.815422 0.689549
v 0.851714 0.997042 0.547119
v 0.851714 0.944657 0.727153
v 0.824942 1.126278 0.584723
v 0.824942 1.073893 0.764756
v 0.748699 1.235838 0.616602
v 0.748699 1.183454 0.796635
v 0.634595 1.309044 0.637903
v 0.634595 1.256660 0.817936
v 0.500000 1.334751 0.645382
v 0.500000 1.282366 0.825416
v 0.365405 1.309044 0.637903
v 0.365405 1.256660 0.817936
v 0.251301 1.235838 0.616602
v 0.251301 1.183454 0.796635
v 0.175058 1.126278 0.584723
v 0.175058 1.073893 0.764756
v 0.148286 0.997042 0.547119
v 0.148286 0.944657 0.727153
v 0.175058 0.867806 0.509515
v 0.175058 0.815422 0.689549
v 0.251301 0.758246 0.477636
v 0.251301 0.705861 0.657670
v 0.365405 0.685040 0.456336
v 0.365405 0.632655 0.636369
v 0.500000 0.944657 0.727153
v 0.500000 0.997042 0.547119
v 0.075000 0.700000 0.500000
v 0.000625 0.700000 0.500000
v 0.000625 0.641421 0.641421
v 0.075000 0.641421 0.641421
v 0.000625 0.500000 0.700000
v 0.075000 0.500000 0.700000
v 0.000625 0.358579 0.641421
v 0.075000 0.358579 0.641421
v 0.000625 0.300000 0.500000
v 0.075000 0.300000 0.500000
v 0.000625 0.358579 0.358579
v 0.075000 0.358579 0.358579
v 0.000625 0.500000 0.300000
v 0.075000 0.500000 0.300000
v 0.000625 0.641421 0.358579
v 0.075000 0.641421 0.358579
v 0.075000 0.500000 0.500000
v 0.000625 0.500000 0.500000
v 0.238119 0.860352 0.586625
v -0.002716 0.562930 0.500000
v 0.000749 0.545921 0.548766
v 0.241584 0.843342 0.635391
v 0.024110 0.516607 0.584466
v 0.264945 0.814028 0.671090
v 0.061107 0.482843 0.597533
v 0.301942 0.780264 0.684157
v 0.101827 0.453677 0.584466
v 0.342661 0.751098 0.671090
v 0.135358 0.436922 0.548766
v 0.376193 0.734344 0.635391
v 0.152716 0.437070 0.500000
v 0.393551 0.734491 0.586625
v 0.149251 0.454079 0.451234
v 0.390085 0.751501 0.537858
v 0.125890 0.483393 0.415534
v 0.366724 0.780815 0.502159
v 0.088893 0.517157 0.402467
v 0.329728 0.814579 0.489092
v 0.048173 0.546323 0.415534
v 0.289008 0.843745 0.502159
v 0.014642 0.563078 0.451234
v 0.255477 0.860499 0.537858
v 0.315835 0.797422 0.586625
vt 0.250000 0.750000
vt 0.250000 0.574143
vt 0.281250 0.574143
vt 0.281250 0.750000
vt 0.312500 0.574143
vt 0.312500 0.750000
vt 0.343750 0.574143
vt 0.343750 0.750000
vt 0.375000 0.574143
vt 0.375000 0.750000
vt 0.406250 0.574143
vt 0.406250 0.750000
vt 0.437500 0.574143
vt 0.437500 0.750000
vt 0.468750 0.574143
vt 0.468750 0.750000
vt 0.500000 0.574143
vt 0.500000 0.750000
vt 0.531250 0.574143
vt 0.531250 0.750000
vt 0.562500 0.574143
vt 0.562500 0.750000
vt 0.593750 0.574143
vt 0.593750 0.750000
vt 0.625000 0.574143
vt 0.625000 0.750000
vt 0.656250 0.574143
vt 0.656250 0.750000
vt 0.687500 0.574143
vt 0.687500 0.750000
vt 0.718750 0.574143
vt 0.718750 0.750000
vt 0.750000 0.574143
vt 0.750000 0.750000
vt 0.500000 0.500000
vt 0.400000 0.600000
vt 0.600000 0.400000
vt 0.250000 0.650000
vt 0.312500 0.650000
vt 0.375000 0.650000
vt 0.437500 0.650000
vt 0.500000 0.650000
vt 0.562500 0.650000
vt 0.625000 0.650000
vt 0.687500 0.650000
vt 0.750000 0.650000
vt 0.250000 0.700000
vt 0.291667 0.700000
vt 0.291667 0.750000
vt 0.333333 0.700000
vt 0.333333 0.750000
vt 0.375000 0.700000
vt 0.416667 0.700000
vt 0.416667 0.750000
vt 0.458333 0.700000
vt 0.458333 0.750000
vt 0.500000 0.700000
vt 0.541667 0.700000
vt 0.541667 0.750000
vt 0.583333 0.700000
vt 0.583333 0.750000
vt 0.625000 0.700000
vt 0.666667 0.700000
vt 0.666667 0.750000
vt 0.708333 0.700000
vt 0.708333 0.750000
vt 0.750000 0.700000
vn 0.000000 -0.960179 -0.279384
vn 0.382683 -0.887090 -0.258117
vn 0.707107 -0.678949 -0.197554
vn 0.923880 -0.367445 -0.106916
vn 1.000000 -0.000000 -0.000000
vn 0.923880 0.367445 0.106916
vn 0.707107 0.678949 0.197554
vn 0.382683 0.887090 0.258117
vn 0.000000 0.960179 0.279384
vn -0.382683 0.887090 0.258117
vn -0.707107 0.678949 0.197554
vn -0.923880 0.367445 0.106916
vn -1.000000 0.000000 0.000000
vn -0.923880 -0.367445 -0.106916
vn -0.707107 -0.678949 -0.197554
vn -0.382683 -0.887090 -0.258117
vn -0.000000 -0.279384 0.960179
vn 0.000000 0.279384 -0.960179
vn 0.000000 1.000000 0.000000
vn 0.000000 0.707107 0.707107
vn 0.000000 0.000000 1.000000
vn 0.000000 -0.707107 0.707107
vn 0.000000 -1.000000 0.000000
vn -0.000000 -0.707107 -0.707107
vn -0.000000 -0.000000 -1.000000
vn 0.000000 0.707107 -0.707107
vn -0.777162 0.629301 0.000000
vn -0.742506 0.459206 0.487664
vn -0.508896 0.166066 0.844658
vn -0.138928 -0.171570 0.975327
vn 0.268266 -0.463235 0.844658
vn 0.603578 -0.630776 0.487664
vn 0.777162 -0.629301 0.000000
vn 0.742506 -0.459206 -0.487664
vn 0.508896 -0.166066 -0.844658
vn 0.138928 0.171570 -0.975327
vn -0.268266 0.463235 -0.844658
vn -0.603578 0.630776 -0.487664
vn 0.613774 0.757987 0.220765
vn -0.613774 -0.757987 -0.220765
usemtl body
f 1/1/1 2/2/1 3/3/2
f 1/1/1 3/3/2 4/4/2
f 4/4/2 3/3/2 5/5/3
f 4/4/2 5/5/3 6/6/3
f 6/6/3 5/5/3 7/7/4
f 6/6/3 7/7/4 8/8/4
f 8/8/4 7/7/4 9/9/5
f 8/8/4 9/9/5 10/10/5
f 10/10/5 9/9/5 11/11/6
f 10/10/5 11/11/6 12/12/6
f 12/12/6 11/11/6 13/13/7
f 12/12/6 13/13/7 14/14/7
f 14/14/7 13/13/7 15/15/8
f 14/14/7 15/15/8 16/16/8
f 16/16/8 15/15/8 17/17/9
f 16/16/8 17/17/9 18/18/9
f 18/18/9 17/17/9 19/19/10
f 18/18/9 19/19/10 20/20/10
f 20/20/10 19/19/10 21/21/11
f 20/20/10 21/21/11 22/22/11
f 22/22/11 21/21/11 23/23/12
f 22/22/11 23/23/12 24/24/12
f 24/24/12 23/23/12 25/25/13
f 24/24/12 25/25/13 26/26/13
f 26/26/13 25/25/13 27/27/14
f 26/26/13 27/27/14 28/28/14
f 28/28/14 27/27/14 29/29/15
f 28/28/14 29/29/15 30/30/15
f 30/30/15 29/29/15 31/31/16
f 30/30/15 31/31/16 32/32/16
f 32/32/16 31/31/16 2/33/1
f 32/32/16 2/33/1 1/34/1
f 33/35/17 1/36/17 4/37/17
f 33/35/17 4/36/17 6/37/17
f 33/35/17 6/36/17 8/37/17
f 33/35/17 8/36/17 10/37/17
f 33/35/17 10/36/17 12/37/17
f 33/35/17 12/36/17 14/37/17
f 33/35/17 14/36/17 16/37/17
f 33/35/17 16/36/17 18/37/17
f 33/35/17 18/36/17 20/37/17
f 33/35/17 20/36/17 22/37/17
f 33/35/17 22/36/17 24/37/17
f 33/35/17 24/36/17 26/37/17
f 33/35/17 26/36/17 28/37/17
f 33/35/17 28/36/17 30/37/17
f 33/35/17 30/36/17 32/37/17
f 33/35/17 32/36/17 1/37/17
f 34/35/18 3/37/18 2/36/18
f 34/35/18 5/37/18 3/36/18
f 34/35/18 7/37/18 5/36/18
f 34/35/18 9/37/18 7/36/18
f 34/35/18 11/37/18 9/36/18
f 34/35/18 13/37/18 11/36/18
f 34/35/18 15/37/18 13/36/18
f 34/35/18 17/37/18 15/36/18
f 34/35/18 19/37/18 17/36/18
f 34/35/18 21/37/18 19/36/18
f 34/35/18 23/37/18 21/36/18
f 34/35/18 25/37/18 23/36/18
f 34/35/18 27/37/18 25/36/18
f 34/35/18 29/37/18 27/36/18
f 34/35/18 31/37/18 29/36/18
f 34/35/18 2/37/18 31/36/18
f 35/1/19 36/38/19 37/39/20
f 35/1/19 37/39/20 38/6/20
f 38/6/20 37/39/20 39/40/21
f 38/6/20 39/40/21 40/10/21
f 40/10/21 39/40/21 41/41/22
f 40/10/21 41/41/22 42/14/22
f 42/14/22 41/41/22 43/42/23
f 42/14/22 43/42/23 44/18/23
f 44/18/23 43/42/23 45/43/24
f 44/18/23 45/43/24 46/22/24
f 46/22/24 45/43/24 47/44/25
f 46/22/24 47/44/25 48/26/25
f 48/26/25 47/44/25 49/45/26
f 48/26/25 49/45/26 50/30/26
f 50/30/26 49/45/26 36/46/19
f 50/30/26 36/46/19 35/34/19
f 51/35/5 35/36/5 38/37/5
f 51/35/5 38/36/5 40/37/5
f 51/35/5 40/36/5 42/37/5
f 51/35/5 42/36/5 44/37/5
f 51/35/5 44/36/5 46/37/5
f 51/35/5 46/36/5 48/37/5
f 51/35/5 48/36/5 50/37/5
f 51/35/5 50/36/5 35/37/5
f 52/35/13 37/37/13 36/36/13
f 52/35/13 39/37/13 37/36/13
f 52/35/13 41/37/13 39/36/13
f 52/35/13 43/37/13 41/36/13
f 52/35/13 45/37/13 43/36/13
f 52/35/13 47/37/13 45/36/13
f 52/35/13 49/37/13 47/36/13
f 52/35/13 36/37/13 49/36/13
f 53/1/27 54/47/27 55/48/28
f 53/1/27 55/48/28 56/49/28
f 56/49/28 55/48/28 57/50/29
f 56/49/28 57/50/29 58/51/29
f 58/51/29 57/50/29 59/52/30
f 58/51/29 59/52/30 60/10/30
f 60/10/30 59/52/30 61/53/31
f 60/10/30 61/53/31 62/54/31
f 62/54/31 61/53/31 63/55/32
f 62/54/31 63/55/32 64/56/32
f 64/56/32 63/55/32 65/57/33
f 64/56/32 65/57/33 66/18/33
f 66/18/33 65/57/33 67/58/34
f 66/18/33 67/58/34 68/59/34
f 68/59/34 67/58/34 69/60/35
f 68/59/34 69/60/35 70/61/35
f 70/61/35 69/60/35 71/62/36
f 70/61/35 71/62/36 72/26/36
f 72/26/36 71/62/36 73/63/37
f 72/26/36 73/63/37 74/64/37
f 74/64/37 73/63/37 75/65/38
f 74/64/37 75/65/38 76/66/38
f 76/66/38 75/65/38 54/67/27
f 76/66/38 54/67/27 53/34/27
f 77/35/39 53/36/39 56/37/39
f 77/35/39 56/36/39 58/37/39
f 77/35/39 58/36/39 60/37/39
f 77/35/39 60/36/39 62/37/39
f 77/35/39 62/36/39 64/37/39
f 77/35/39 64/36/39 66/37/39
f 77/35/39 66/36/39 68/37/39
f 77/35/39 68/36/39 70/37/39
f 77/35/39 70/36/39 72/37/39
f 77/35/39 72/36/39 74/37/39
f 77/35/39 74/36/39 76/37/39
f 77/35/39 76/36/39 53/37/39
f 51/35/40 55/37/40 54/36/40
f 51/35/40 57/37/40 55/36/40
f 51/35/40 59/37/40 57/36/40
f 51/35/40 61/37/40 59/36/40
f 51/35/40 63/37/40 61/36/40
f 51/35/40 65/37/40 63/36/40
f 51/35/40 67/37/40 65/36/40
f 51/35/40 69/37/40 67/36/40
f 51/35/40 71/37/40 69/36/40
f 51/35/40 73/37/40 71/36/40
f 51/35/40 75/37/40 73/36/40
f 51/35/40 54/37/40 75/36/40
