# Procedurally generated by dev-env-utils/scripts/gen_mast_arm_curves.py
# mount hardware on cell 5, model-space east
mtllib mastarmcurve.mtl
o mastarm_8x2_c5_east
v 0.500000 0.671137 0.927635
v 0.500000 0.715719 0.745512
v 0.628907 0.740625 0.751609
v 0.628907 0.696042 0.933732
v 0.738188 0.811550 0.768971
v 0.738188 0.766968 0.951094
v 0.811208 0.917698 0.794955
v 0.811208 0.873116 0.977078
v 0.836849 1.042907 0.825605
v 0.836849 0.998325 1.007728
v 0.811208 1.168117 0.856256
v 0.811208 1.123535 1.038378
v 0.738188 1.274265 0.882240
v 0.738188 1.229682 1.064362
v 0.628907 1.345190 0.899602
v 0.628907 1.300608 1.081724
v 0.500000 1.370096 0.905698
v 0.500000 1.325514 1.087821
v 0.371093 1.345190 0.899602
v 0.371093 1.300608 1.081724
v 0.261812 1.274265 0.882240
v 0.261812 1.229682 1.064362
v 0.188792 1.168117 0.856256
v 0.188792 1.123535 1.038378
v 0.163151 1.042907 0.825605
v 0.163151 0.998325 1.007728
v 0.188792 0.917698 0.794955
v 0.188792 0.873116 0.977078
v 0.261812 0.811550 0.768971
v 0.261812 0.766968 0.951094
v 0.371093 0.740625 0.751609
v 0.371093 0.696042 0.933732
v 0.500000 0.998325 1.007728
v 0.500000 1.042907 0.825605
v 0.925000 0.300000 0.500000
v 0.999375 0.300000 0.500000
v 0.999375 0.358579 0.641421
v 0.925000 0.358579 0.641421
v 0.999375 0.500000 0.700000
v 0.925000 0.500000 0.700000
v 0.999375 0.641421 0.641421
v 0.925000 0.641421 0.641421
v 0.999375 0.700000 0.500000
v 0.925000 0.700000 0.500000
v 0.999375 0.641421 0.358579
v 0.925000 0.641421 0.358579
v 0.999375 0.500000 0.300000
v 0.925000 0.500000 0.300000
v 0.999375 0.358579 0.358579
v 0.925000 0.358579 0.358579
v 0.925000 0.500000 0.500000
v 0.999375 0.500000 0.500000
v 0.566107 0.808408 0.795135
v 0.845269 0.439642 0.500000
v 0.872185 0.426284 0.542150
v 0.593023 0.795050 0.837285
v 0.913253 0.432678 0.573005
v 0.634090 0.801444 0.868141
v 0.957468 0.457111 0.584299
v 0.678305 0.825877 0.879435
v 0.992983 0.493036 0.573005
v 0.713821 0.861801 0.868141
v 1.010283 0.530827 0.542150
v 0.731120 0.899592 0.837285
v 1.004731 0.560358 0.500000
v 0.725568 0.929123 0.795135
v 0.977815 0.573716 0.457850
v 0.698652 0.942481 0.752986
v 0.936747 0.567322 0.426995
v 0.657585 0.936087 0.722130
v 0.892532 0.542889 0.415701
v 0.613370 0.911654 0.710836
v 0.857017 0.506964 0.426995
v 0.577854 0.875730 0.722130
v 0.839717 0.469173 0.457850
v 0.560555 0.837939 0.752986
v 0.645838 0.868766 0.795135
vt 0.250000 0.750000
vt 0.250000 0.581576
vt 0.281250 0.581576
vt 0.281250 0.750000
vt 0.312500 0.581576
vt 0.312500 0.750000
vt 0.343750 0.581576
vt 0.343750 0.750000
vt 0.375000 0.581576
vt 0.375000 0.750000
vt 0.406250 0.581576
vt 0.406250 0.750000
vt 0.437500 0.581576
vt 0.437500 0.750000
vt 0.468750 0.581576
vt 0.468750 0.750000
vt 0.500000 0.581576
vt 0.500000 0.750000
vt 0.531250 0.581576
vt 0.531250 0.750000
vt 0.562500 0.581576
vt 0.562500 0.750000
vt 0.593750 0.581576
vt 0.593750 0.750000
vt 0.625000 0.581576
vt 0.625000 0.750000
vt 0.656250 0.581576
vt 0.656250 0.750000
vt 0.687500 0.581576
vt 0.687500 0.750000
vt 0.718750 0.581576
vt 0.718750 0.750000
vt 0.750000 0.581576
vt 0.750000 0.750000
vt 0.500000 0.500000
vt 0.400000 0.600000
vt 0.600000 0.400000
vt 0.250000 0.650000
vt 0.312500 0.650000
vt 0.375000 0.650000
vt 0.437500 0.650000
vt 0.500000 0.650000
vt 0.562500 0.650000
vt 0.625000 0.650000
vt 0.687500 0.650000
vt 0.750000 0.650000
vt 0.250000 0.700000
vt 0.291667 0.700000
vt 0.291667 0.750000
vt 0.333333 0.700000
vt 0.333333 0.750000
vt 0.375000 0.700000
vt 0.416667 0.700000
vt 0.416667 0.750000
vt 0.458333 0.700000
vt 0.458333 0.750000
vt 0.500000 0.700000
vt 0.541667 0.700000
vt 0.541667 0.750000
vt 0.583333 0.700000
vt 0.583333 0.750000
vt 0.625000 0.700000
vt 0.666667 0.700000
vt 0.666667 0.750000
vt 0.708333 0.700000
vt 0.708333 0.750000
vt 0.750000 0.700000
vn 0.000000 -0.971321 -0.237771
vn 0.382683 -0.897384 -0.219672
vn 0.707107 -0.686828 -0.168130
vn 0.923880 -0.371709 -0.090991
vn 1.000000 -0.000000 -0.000000
vn 0.923880 0.371709 0.090991
vn 0.707107 0.686828 0.168130
vn 0.382683 0.897384 0.219672
vn 0.000000 0.971321 0.237771
vn -0.382683 0.897384 0.219672
vn -0.707107 0.686828 0.168130
vn -0.923880 0.371709 0.090991
vn -1.000000 0.000000 0.000000
vn -0.923880 -0.371709 -0.090991
vn -0.707107 -0.686828 -0.168130
vn -0.382683 -0.897384 -0.219672
vn -0.000000 -0.237771 0.971321
vn 0.000000 0.237771 -0.971321
vn 0.000000 -1.000000 0.000000
vn 0.000000 -0.707107 0.707107
vn 0.000000 -0.000000 1.000000
vn -0.000000 0.707107 0.707107
vn -0.000000 1.000000 0.000000
vn 0.000000 0.707107 -0.707107
vn 0.000000 0.000000 -1.000000
vn 0.000000 -0.707107 -0.707107
vn -0.797306 -0.603576 0.000000
vn -0.528148 -0.737156 0.421497
vn -0.117474 -0.673217 0.730054
vn 0.324677 -0.428889 0.842994
vn 0.679832 -0.069641 0.730054
vn 0.852826 0.308267 0.421497
vn 0.797306 0.603576 0.000000
vn 0.528148 0.737156 -0.421497
vn 0.117474 0.673217 -0.730054
vn -0.324677 0.428889 -0.842994
vn -0.679832 0.069641 -0.730054
vn -0.852826 -0.308267 -0.421497
vn -0.508810 0.672124 0.537923
vn 0.508810 -0.672124 -0.537923
usemtl body
f 1/1/1 2/2/1 3/3/2
f 1/1/1 3/3/2 4/4/2
f 4/4/2 3/3/2 5/5/3
f 4/4/2 5/5/3 6/6/3
f 6/6/3 5/5/3 7/7/4
f 6/6/3 7/7/4 8/8/4
f 8/8/4 7/7/4 9/9/5
f 8/8/4 9/9/5 10/10/5
f 10/10/5 9/9/5 11/11/6
f 10/10/5 11/11/6 12/12/6
f 12/12/6 11/11/6 13/13/7
f 12/12/6 13/13/7 14/14/7
f 14/14/7 13/13/7 15/15/8
f 14/14/7 15/15/8 16/16/8
f 16/16/8 15/15/8 17/17/9
f 16/16/8 17/17/9 18/18/9
f 18/18/9 17/17/9 19/19/10
f 18/18/9 19/19/10 20/20/10
f 20/20/10 19/19/10 21/21/11
f 20/20/10 21/21/11 22/22/11
f 22/22/11 21/21/11 23/23/12
f 22/22/11 23/23/12 24/24/12
f 24/24/12 23/23/12 25/25/13
f 24/24/12 25/25/13 26/26/13
f 26/26/13 25/25/13 27/27/14
f 26/26/13 27/27/14 28/28/14
f 28/28/14 27/27/14 29/29/15
f 28/28/14 29/29/15 30/30/15
f 30/30/15 29/29/15 31/31/16
f 30/30/15 31/31/16 32/32/16
f 32/32/16 31/31/16 2/33/1
f 32/32/16 2/33/1 1/34/1
f 33/35/17 1/36/17 4/37/17
f 33/35/17 4/36/17 6/37/17
f 33/35/17 6/36/17 8/37/17
f 33/35/17 8/36/17 10/37/17
f 33/35/17 10/36/17 12/37/17
f 33/35/17 12/36/17 14/37/17
f 33/35/17 14/36/17 16/37/17
f 33/35/17 16/36/17 18/37/17
f 33/35/17 18/36/17 20/37/17
f 33/35/17 20/36/17 22/37/17
f 33/35/17 22/36/17 24/37/17
f 33/35/17 24/36/17 26/37/17
f 33/35/17 26/36/17 28/37/17
f 33/35/17 28/36/17 30/37/17
f 33/35/17 30/36/17 32/37/17
f 33/35/17 32/36/17 1/37/17
f 34/35/18 3/37/18 2/36/18
f 34/35/18 5/37/18 3/36/18
f 34/35/18 7/37/18 5/36/18
f 34/35/18 9/37/18 7/36/18
f 34/35/18 11/37/18 9/36/18
f 34/35/18 13/37/18 11/36/18
f 34/35/18 15/37/18 13/36/18
f 34/35/18 17/37/18 15/36/18
f 34/35/18 19/37/18 17/36/18
f 34/35/18 21/37/18 19/36/18
f 34/35/18 23/37/18 21/36/18
f 34/35/18 25/37/18 23/36/18
f 34/35/18 27/37/18 25/36/18
f 34/35/18 29/37/18 27/36/18
f 34/35/18 31/37/18 29/36/18
f 34/35/18 2/37/18 31/36/18
f 35/1/19 36/38/19 37/39/20
f 35/1/19 37/39/20 38/6/20
f 38/6/20 37/39/20 39/40/21
f 38/6/20 39/40/21 40/10/21
f 40/10/21 39/40/21 41/41/22
f 40/10/21 41/41/22 42/14/22
f 42/14/22 41/41/22 43/42/23
f 42/14/22 43/42/23 44/18/23
f 44/18/23 43/42/23 45/43/24
f 44/18/23 45/43/24 46/22/24
f 46/22/24 45/43/24 47/44/25
f 46/22/24 47/44/25 48/26/25
f 48/26/25 47/44/25 49/45/26
f 48/26/25 49/45/26 50/30/26
f 50/30/26 49/45/26 36/46/19
f 50/30/26 36/46/19 35/34/19
f 51/35/13 35/36/13 38/37/13
f 51/35/13 38/36/13 40/37/13
f 51/35/13 40/36/13 42/37/13
f 51/35/13 42/36/13 44/37/13
f 51/35/13 44/36/13 46/37/13
f 51/35/13 46/36/13 48/37/13
f 51/35/13 48/36/13 50/37/13
f 51/35/13 50/36/13 35/37/13
f 52/35/5 37/37/5 36/36/5
f 52/35/5 39/37/5 37/36/5
f 52/35/5 41/37/5 39/36/5
f 52/35/5 43/37/5 41/36/5
f 52/35/5 45/37/5 43/36/5
f 52/35/5 47/37/5 45/36/5
f 52/35/5 49/37/5 47/36/5
f 52/35/5 36/37/5 49/36/5
f 53/1/27 54/47/27 55/48/28
f 53/1/27 55/48/28 56/49/28
f 56/49/28 55/48/28 57/50/29
f 56/49/28 57/50/29 58/51/29
f 58/51/29 57/50/29 59/52/30
f 58/51/29 59/52/30 60/10/30
f 60/10/30 59/52/30 61/53/31
f 60/10/30 61/53/31 62/54/31
f 62/54/31 61/53/31 63/55/32
f 62/54/31 63/55/32 64/56/32
f 64/56/32 63/55/32 65/57/33
f 64/56/32 65/57/33 66/18/33
f 66/18/33 65/57/33 67/58/34
f 66/18/33 67/58/34 68/59/34
f 68/59/34 67/58/34 69/60/35
f 68/59/34 69/60/35 70/61/35
f 70/61/35 69/60/35 71/62/36
f 70/61/35 71/62/36 72/26/36
f 72/26/36 71/62/36 73/63/37
f 72/26/36 73/63/37 74/64/37
f 74/64/37 73/63/37 75/65/38
f 74/64/37 75/65/38 76/66/38
f 76/66/38 75/65/38 54/67/27
f 76/66/38 54/67/27 53/34/27
f 77/35/39 53/36/39 56/37/39
f 77/35/39 56/36/39 58/37/39
f 77/35/39 58/36/39 60/37/39
f 77/35/39 60/36/39 62/37/39
f 77/35/39 62/36/39 64/37/39
f 77/35/39 64/36/39 66/37/39
f 77/35/39 66/36/39 68/37/39
f 77/35/39 68/36/39 70/37/39
f 77/35/39 70/36/39 72/37/39
f 77/35/39 72/36/39 74/37/39
f 77/35/39 74/36/39 76/37/39
f 77/35/39 76/36/39 53/37/39
f 51/35/40 55/37/40 54/36/40
f 51/35/40 57/37/40 55/36/40
f 51/35/40 59/37/40 57/36/40
f 51/35/40 61/37/40 59/36/40
f 51/35/40 63/37/40 61/36/40
f 51/35/40 65/37/40 63/36/40
f 51/35/40 67/37/40 65/36/40
f 51/35/40 69/37/40 67/36/40
f 51/35/40 71/37/40 69/36/40
f 51/35/40 73/37/40 71/36/40
f 51/35/40 75/37/40 73/36/40
f 51/35/40 54/37/40 75/36/40
