# Procedurally generated by dev-env-utils/scripts/gen_mast_arm_curves.py
# mount hardware on cell 4, model-space west
mtllib mastarmcurve.mtl
o mastarm_10x2_c4_west
v 0.500000 0.301084 0.546060
v 0.500000 0.348531 0.364662
v 0.626581 0.372890 0.371034
v 0.626581 0.325443 0.552431
v 0.733891 0.442258 0.389178
v 0.733891 0.394811 0.570575
v 0.805593 0.546076 0.416333
v 0.805593 0.498629 0.597730
v 0.830771 0.668537 0.448364
v 0.830771 0.621090 0.629761
v 0.805593 0.790998 0.480395
v 0.805593 0.743551 0.661792
v 0.733891 0.894815 0.507550
v 0.733891 0.847368 0.688947
v 0.626581 0.964184 0.525694
v 0.626581 0.916737 0.707091
v 0.500000 0.988543 0.532065
v 0.500000 0.941096 0.713463
v 0.373419 0.964184 0.525694
v 0.373419 0.916737 0.707091
v 0.266109 0.894815 0.507550
v 0.266109 0.847368 0.688947
v 0.194407 0.790998 0.480395
v 0.194407 0.743551 0.661792
v 0.169229 0.668537 0.448364
v 0.169229 0.621090 0.629761
v 0.194407 0.546076 0.416333
v 0.194407 0.498629 0.597730
v 0.266109 0.442258 0.389178
v 0.266109 0.394811 0.570575
v 0.373419 0.372890 0.371034
v 0.373419 0.325443 0.552431
v 0.500000 0.621090 0.629761
v 0.500000 0.668537 0.448364
v 0.075000 0.700000 0.500000
v 0.000625 0.700000 0.500000
v 0.000625 0.641421 0.641421
v 0.075000 0.641421 0.641421
v 0.000625 0.500000 0.700000
v 0.075000 0.500000 0.700000
v 0.000625 0.358579 0.641421
v 0.075000 0.358579 0.641421
v 0.000625 0.300000 0.500000
v 0.075000 0.300000 0.500000
v 0.000625 0.358579 0.358579
v 0.075000 0.358579 0.358579
v 0.000625 0.500000 0.300000
v 0.075000 0.500000 0.300000
v 0.000625 0.641421 0.358579
v 0.075000 0.641421 0.358579
v 0.075000 0.500000 0.500000
v 0.000625 0.500000 0.500000
v 0.235886 0.671929 0.521326
v 0.037913 0.592869 0.500000
v 0.038260 0.578581 0.549752
v 0.236233 0.657641 0.571078
v 0.048451 0.543237 0.586172
v 0.246424 0.622297 0.607498
v 0.065756 0.496308 0.599503
v 0.263729 0.575369 0.620829
v 0.085538 0.450369 0.586172
v 0.283511 0.529429 0.607498
v 0.102496 0.417728 0.549752
v 0.300469 0.496788 0.571078
v 0.112087 0.407131 0.500000
v 0.310060 0.486192 0.521326
v 0.111740 0.421419 0.450248
v 0.309714 0.500480 0.471574
v 0.101549 0.456763 0.413828
v 0.299523 0.535823 0.435154
v 0.084244 0.503692 0.400497
v 0.282218 0.582752 0.421823
v 0.064462 0.549631 0.413828
v 0.262436 0.628692 0.435154
v 0.047504 0.582272 0.450248
v 0.245477 0.661333 0.471574
v 0.272973 0.579060 0.521326
vt 0.250000 0.750000
vt 0.250000 0.584614
vt 0.281250 0.584614
vt 0.281250 0.750000
vt 0.312500 0.584614
vt 0.312500 0.750000
vt 0.343750 0.584614
vt 0.343750 0.750000
vt 0.375000 0.584614
vt 0.375000 0.750000
vt 0.406250 0.584614
vt 0.406250 0.750000
vt 0.437500 0.584614
vt 0.437500 0.750000
vt 0.468750 0.584614
vt 0.468750 0.750000
vt 0.500000 0.584614
vt 0.500000 0.750000
vt 0.531250 0.584614
vt 0.531250 0.750000
vt 0.562500 0.584614
vt 0.562500 0.750000
vt 0.593750 0.584614
vt 0.593750 0.750000
vt 0.625000 0.584614
vt 0.625000 0.750000
vt 0.656250 0.584614
vt 0.656250 0.750000
vt 0.687500 0.584614
vt 0.687500 0.750000
vt 0.718750 0.584614
vt 0.718750 0.750000
vt 0.750000 0.584614
vt 0.750000 0.750000
vt 0.500000 0.500000
vt 0.400000 0.600000
vt 0.600000 0.400000
vt 0.250000 0.650000
vt 0.312500 0.650000
vt 0.375000 0.650000
vt 0.437500 0.650000
vt 0.500000 0.650000
vt 0.562500 0.650000
vt 0.625000 0.650000
vt 0.687500 0.650000
vt 0.750000 0.650000
vt 0.250000 0.700000
vt 0.291667 0.700000
vt 0.291667 0.750000
vt 0.333333 0.700000
vt 0.333333 0.750000
vt 0.375000 0.700000
vt 0.416667 0.700000
vt 0.416667 0.750000
vt 0.458333 0.700000
vt 0.458333 0.750000
vt 0.500000 0.700000
vt 0.541667 0.700000
vt 0.541667 0.750000
vt 0.583333 0.700000
vt 0.583333 0.750000
vt 0.625000 0.700000
vt 0.666667 0.700000
vt 0.666667 0.750000
vt 0.708333 0.700000
vt 0.708333 0.750000
vt 0.750000 0.700000
vn 0.000000 -0.967453 -0.253050
vn 0.382683 -0.893810 -0.233787
vn 0.707107 -0.684093 -0.178933
vn 0.923880 -0.370228 -0.096838
vn 1.000000 -0.000000 -0.000000
vn 0.923880 0.370228 0.096838
vn 0.707107 0.684093 0.178933
vn 0.382683 0.893810 0.233787
vn 0.000000 0.967453 0.253050
vn -0.382683 0.893810 0.233787
vn -0.707107 0.684093 0.178933
vn -0.923880 0.370228 0.096838
vn -1.000000 0.000000 0.000000
vn -0.923880 -0.370228 -0.096838
vn -0.707107 -0.684093 -0.178933
vn -0.382683 -0.893810 -0.233787
vn -0.000000 -0.253050 0.967453
vn 0.000000 0.253050 -0.967453
vn 0.000000 1.000000 0.000000
vn 0.000000 0.707107 0.707107
vn 0.000000 0.000000 1.000000
vn 0.000000 -0.707107 0.707107
vn 0.000000 -1.000000 0.000000
vn -0.000000 -0.707107 -0.707107
vn -0.000000 -0.000000 -1.000000
vn 0.000000 0.707107 -0.707107
vn -0.370869 0.928685 0.000000
vn -0.367404 0.785806 0.497517
vn -0.265493 0.432371 0.861724
vn -0.092444 -0.036917 0.995033
vn 0.105376 -0.496314 0.861724
vn 0.274960 -0.822724 0.497517
vn 0.370869 -0.928685 0.000000
vn 0.367404 -0.785806 -0.497517
vn 0.265493 -0.432371 -0.861724
vn 0.092444 0.036917 -0.995033
vn -0.105376 0.496314 -0.861724
vn -0.274960 0.822724 -0.497517
vn 0.924073 0.369027 0.099543
vn -0.924073 -0.369027 -0.099543
usemtl body
f 1/1/1 2/2/1 3/3/2
f 1/1/1 3/3/2 4/4/2
f 4/4/2 3/3/2 5/5/3
f 4/4/2 5/5/3 6/6/3
f 6/6/3 5/5/3 7/7/4
f 6/6/3 7/7/4 8/8/4
f 8/8/4 7/7/4 9/9/5
f 8/8/4 9/9/5 10/10/5
f 10/10/5 9/9/5 11/11/6
f 10/10/5 11/11/6 12/12/6
f 12/12/6 11/11/6 13/13/7
f 12/12/6 13/13/7 14/14/7
f 14/14/7 13/13/7 15/15/8
f 14/14/7 15/15/8 16/16/8
f 16/16/8 15/15/8 17/17/9
f 16/16/8 17/17/9 18/18/9
f 18/18/9 17/17/9 19/19/10
f 18/18/9 19/19/10 20/20/10
f 20/20/10 19/19/10 21/21/11
f 20/20/10 21/21/11 22/22/11
f 22/22/11 21/21/11 23/23/12
f 22/22/11 23/23/12 24/24/12
f 24/24/12 23/23/12 25/25/13
f 24/24/12 25/25/13 26/26/13
f 26/26/13 25/25/13 27/27/14
f 26/26/13 27/27/14 28/28/14
f 28/28/14 27/27/14 29/29/15
f 28/28/14 29/29/15 30/30/15
f 30/30/15 29/29/15 31/31/16
f 30/30/15 31/31/16 32/32/16
f 32/32/16 31/31/16 2/33/1
f 32/32/16 2/33/1 1/34/1
f 33/35/17 1/36/17 4/37/17
f 33/35/17 4/36/17 6/37/17
f 33/35/17 6/36/17 8/37/17
f 33/35/17 8/36/17 10/37/17
f 33/35/17 10/36/17 12/37/17
f 33/35/17 12/36/17 14/37/17
f 33/35/17 14/36/17 16/37/17
f 33/35/17 16/36/17 18/37/17
f 33/35/17 18/36/17 20/37/17
f 33/35/17 20/36/17 22/37/17
f 33/35/17 22/36/17 24/37/17
f 33/35/17 24/36/17 26/37/17
f 33/35/17 26/36/17 28/37/17
f 33/35/17 28/36/17 30/37/17
f 33/35/17 30/36/17 32/37/17
f 33/35/17 32/36/17 1/37/17
f 34/35/18 3/37/18 2/36/18
f 34/35/18 5/37/18 3/36/18
f 34/35/18 7/37/18 5/36/18
f 34/35/18 9/37/18 7/36/18
f 34/35/18 11/37/18 9/36/18
f 34/35/18 13/37/18 11/36/18
f 34/35/18 15/37/18 13/36/18
f 34/35/18 17/37/18 15/36/18
f 34/35/18 19/37/18 17/36/18
f 34/35/18 21/37/18 19/36/18
f 34/35/18 23/37/18 21/36/18
f 34/35/18 25/37/18 23/36/18
f 34/35/18 27/37/18 25/36/18
f 34/35/18 29/37/18 27/36/18
f 34/35/18 31/37/18 29/36/18
f 34/35/18 2/37/18 31/36/18
f 35/1/19 36/38/19 37/39/20
f 35/1/19 37/39/20 38/6/20
f 38/6/20 37/39/20 39/40/21
f 38/6/20 39/40/21 40/10/21
f 40/10/21 39/40/21 41/41/22
f 40/10/21 41/41/22 42/14/22
f 42/14/22 41/41/22 43/42/23
f 42/14/22 43/42/23 44/18/23
f 44/18/23 43/42/23 45/43/24
f 44/18/23 45/43/24 46/22/24
f 46/22/24 45/43/24 47/44/25
f 46/22/24 47/44/25 48/26/25
f 48/26/25 47/44/25 49/45/26
f 48/26/25 49/45/26 50/30/26
f 50/30/26 49/45/26 36/46/19
f 50/30/26 36/46/19 35/34/19
f 51/35/5 35/36/5 38/37/5
f 51/35/5 38/36/5 40/37/5
f 51/35/5 40/36/5 42/37/5
f 51/35/5 42/36/5 44/37/5
f 51/35/5 44/36/5 46/37/5
f 51/35/5 46/36/5 48/37/5
f 51/35/5 48/36/5 50/37/5
f 51/35/5 50/36/5 35/37/5
f 52/35/13 37/37/13 36/36/13
f 52/35/13 39/37/13 37/36/13
f 52/35/13 41/37/13 39/36/13
f 52/35/13 43/37/13 41/36/13
f 52/35/13 45/37/13 43/36/13
f 52/35/13 47/37/13 45/36/13
f 52/35/13 49/37/13 47/36/13
f 52/35/13 36/37/13 49/36/13
f 53/1/27 54/47/27 55/48/28
f 53/1/27 55/48/28 56/49/28
f 56/49/28 55/48/28 57/50/29
f 56/49/28 57/50/29 58/51/29
f 58/51/29 57/50/29 59/52/30
f 58/51/29 59/52/30 60/10/30
f 60/10/30 59/52/30 61/53/31
f 60/10/30 61/53/31 62/54/31
f 62/54/31 61/53/31 63/55/32
f 62/54/31 63/55/32 64/56/32
f 64/56/32 63/55/32 65/57/33
f 64/56/32 65/57/33 66/18/33
f 66/18/33 65/57/33 67/58/34
f 66/18/33 67/58/34 68/59/34
f 68/59/34 67/58/34 69/60/35
f 68/59/34 69/60/35 70/61/35
f 70/61/35 69/60/35 71/62/36
f 70/61/35 71/62/36 72/26/36
f 72/26/36 71/62/36 73/63/37
f 72/26/36 73/63/37 74/64/37
f 74/64/37 73/63/37 75/65/38
f 74/64/37 75/65/38 76/66/38
f 76/66/38 75/65/38 54/67/27
f 76/66/38 54/67/27 53/34/27
f 77/35/39 53/36/39 56/37/39
f 77/35/39 56/36/39 58/37/39
f 77/35/39 58/36/39 60/37/39
f 77/35/39 60/36/39 62/37/39
f 77/35/39 62/36/39 64/37/39
f 77/35/39 64/36/39 66/37/39
f 77/35/39 66/36/39 68/37/39
f 77/35/39 68/36/39 70/37/39
f 77/35/39 70/36/39 72/37/39
f 77/35/39 72/36/39 74/37/39
f 77/35/39 74/36/39 76/37/39
f 77/35/39 76/36/39 53/37/39
f 51/35/40 55/37/40 54/36/40
f 51/35/40 57/37/40 55/36/40
f 51/35/40 59/37/40 57/36/40
f 51/35/40 61/37/40 59/36/40
f 51/35/40 63/37/40 61/36/40
f 51/35/40 65/37/40 63/36/40
f 51/35/40 67/37/40 65/36/40
f 51/35/40 69/37/40 67/36/40
f 51/35/40 71/37/40 69/36/40
f 51/35/40 73/37/40 71/36/40
f 51/35/40 75/37/40 73/36/40
f 51/35/40 54/37/40 75/36/40
