# Procedurally generated by dev-env-utils/scripts/gen_mast_arm_curves.py
# cell 0 of 10 at (+0 along arm, +0 up)
mtllib mastarmcurve.mtl
o mastarm_8x2_c0
v 0.887500 0.500000 1.156250
v 0.887500 0.500000 1.025000
v 0.858003 0.662405 1.025000
v 0.858003 0.662405 1.156250
v 0.774004 0.800086 1.025000
v 0.774004 0.800086 1.156250
v 0.648290 0.892081 1.025000
v 0.648290 0.892081 1.156250
v 0.500000 0.924386 1.025000
v 0.500000 0.924386 1.156250
v 0.351710 0.892081 1.025000
v 0.351710 0.892081 1.156250
v 0.225996 0.800086 1.025000
v 0.225996 0.800086 1.156250
v 0.141997 0.662405 1.025000
v 0.141997 0.662405 1.156250
v 0.112500 0.500000 1.025000
v 0.112500 0.500000 1.156250
v 0.141997 0.337595 1.025000
v 0.141997 0.337595 1.156250
v 0.225996 0.199914 1.025000
v 0.225996 0.199914 1.156250
v 0.351710 0.107919 1.025000
v 0.351710 0.107919 1.156250
v 0.500000 0.075614 1.025000
v 0.500000 0.075614 1.156250
v 0.648290 0.107919 1.025000
v 0.648290 0.107919 1.156250
v 0.774004 0.199914 1.025000
v 0.774004 0.199914 1.156250
v 0.858003 0.337595 1.025000
v 0.858003 0.337595 1.156250
v 0.500000 0.500000 1.156250
v 0.500000 0.500000 1.025000
v 0.813721 0.421112 1.156250
v 0.812500 0.500000 1.000000
v 0.788712 0.606963 1.053482
v 0.789449 0.555593 1.156250
v 0.720971 0.697642 1.098821
v 0.721284 0.669177 1.156250
v 0.619589 0.758232 1.129116
v 0.619668 0.744858 1.156250
v 0.500000 0.779508 1.139754
v 0.500000 0.771394 1.156250
v 0.380411 0.758232 1.129116
v 0.380332 0.744858 1.156250
v 0.279029 0.697642 1.098821
v 0.278716 0.669177 1.156250
v 0.211288 0.606963 1.053482
v 0.210551 0.555593 1.156250
v 0.187500 0.500000 1.000000
v 0.186279 0.421112 1.156250
v 0.211288 0.393037 0.946518
v 0.209764 0.286079 1.156250
v 0.279029 0.302358 0.901179
v 0.277602 0.171163 1.156250
v 0.380411 0.241768 0.870884
v 0.379544 0.094149 1.156250
v 0.500000 0.220492 0.860246
v 0.500000 0.067061 1.156250
v 0.619589 0.241768 0.870884
v 0.620456 0.094149 1.156250
v 0.720971 0.302358 0.901179
v 0.722398 0.171163 1.156250
v 0.788712 0.393037 0.946518
v 0.790236 0.286079 1.156250
v 0.811849 0.541450 0.916667
v 0.788111 0.648412 0.969591
v 0.720511 0.739090 1.014458
v 0.619339 0.799680 1.044437
v 0.500000 0.820956 1.054964
v 0.380661 0.799680 1.044437
v 0.279489 0.739090 1.014458
v 0.211889 0.648412 0.969591
v 0.188151 0.541450 0.916667
v 0.211889 0.434487 0.863743
v 0.279489 0.343809 0.818876
v 0.380661 0.283220 0.788897
v 0.500000 0.261944 0.778369
v 0.619339 0.283220 0.788897
v 0.720511 0.343809 0.818876
v 0.788111 0.434487 0.863743
v 0.811198 0.582465 0.833333
v 0.787509 0.689425 0.885699
v 0.720050 0.780101 0.930092
v 0.619090 0.840688 0.959755
v 0.500000 0.861964 0.970171
v 0.380910 0.840688 0.959755
v 0.279950 0.780101 0.930092
v 0.212491 0.689425 0.885699
v 0.188802 0.582465 0.833333
v 0.212491 0.475506 0.780968
v 0.279950 0.384830 0.736574
v 0.380910 0.324242 0.706912
v 0.500000 0.302967 0.696495
v 0.619090 0.324242 0.706912
v 0.720050 0.384830 0.736574
v 0.787509 0.475506 0.780968
v 0.810547 0.623047 0.750000
v 0.786908 0.730002 0.801806
v 0.719590 0.820674 0.845725
v 0.618841 0.881259 0.875071
v 0.500000 0.902533 0.885376
v 0.381159 0.881259 0.875071
v 0.280410 0.820674 0.845725
v 0.213092 0.730002 0.801806
v 0.189453 0.623047 0.750000
v 0.213092 0.516092 0.698194
v 0.280410 0.425420 0.654275
v 0.381159 0.364835 0.624929
v 0.500000 0.343560 0.614624
v 0.618841 0.364835 0.624929
v 0.719590 0.425420 0.654275
v 0.786908 0.516092 0.698194
v 0.809896 0.663194 0.666667
v 0.786306 0.770143 0.717913
v 0.719129 0.860809 0.761357
v 0.618592 0.921390 0.790385
v 0.500000 0.942663 0.800579
v 0.381408 0.921390 0.790385
v 0.280871 0.860809 0.761357
v 0.213694 0.770143 0.717913
v 0.190104 0.663194 0.666667
v 0.213694 0.556246 0.615421
v 0.280871 0.465580 0.571976
v 0.381408 0.404999 0.542948
v 0.500000 0.383725 0.532754
v 0.618592 0.404999 0.542948
v 0.719129 0.465580 0.571976
v 0.786306 0.556246 0.615421
v 0.809245 0.702908 0.583333
v 0.785705 0.809848 0.634018
v 0.718669 0.900507 0.676987
v 0.618343 0.961083 0.705698
v 0.500000 0.982355 0.715779
v 0.381657 0.961083 0.705698
v 0.281331 0.900507 0.676987
v 0.214295 0.809848 0.634018
v 0.190755 0.702908 0.583333
v 0.214295 0.595968 0.532648
v 0.281331 0.505309 0.489680
v 0.381657 0.444733 0.460969
v 0.500000 0.423461 0.450887
v 0.618343 0.444733 0.460969
v 0.718669 0.505309 0.489680
v 0.785705 0.595968 0.532648
v 0.808594 0.742188 0.500000
v 0.785103 0.849117 0.550123
v 0.718209 0.939767 0.592615
v 0.618094 1.000337 0.621008
v 0.500000 1.021606 0.630978
v 0.381906 1.000337 0.621008
v 0.281791 0.939767 0.592615
v 0.214897 0.849117 0.550123
v 0.191406 0.742188 0.500000
v 0.214897 0.635258 0.449877
v 0.281791 0.544608 0.407385
v 0.381906 0.484038 0.378992
v 0.500000 0.462769 0.369022
v 0.618094 0.484038 0.378992
v 0.718209 0.544608 0.407385
v 0.785103 0.635258 0.449877
v 0.807943 0.781033 0.416667
v 0.784502 0.887949 0.466227
v 0.717748 0.978589 0.508242
v 0.617845 1.039152 0.536316
v 0.500000 1.060419 0.546174
v 0.382155 1.039152 0.536316
v 0.282252 0.978589 0.508242
v 0.215498 0.887949 0.466227
v 0.192057 0.781033 0.416667
v 0.215498 0.674117 0.367106
v 0.282252 0.583477 0.325091
v 0.382155 0.522914 0.297018
v 0.500000 0.501647 0.287160
v 0.617845 0.522914 0.297018
v 0.717748 0.583477 0.325091
v 0.784502 0.674117 0.367106
v 0.807292 0.819444 0.333333
v 0.783900 0.926346 0.382330
v 0.717288 1.016973 0.423867
v 0.617595 1.077528 0.451622
v 0.500000 1.098792 0.461368
v 0.382405 1.077528 0.451622
v 0.282712 1.016973 0.423867
v 0.216100 0.926346 0.382330
v 0.192708 0.819444 0.333333
v 0.216100 0.712543 0.284337
v 0.282712 0.621916 0.242799
v 0.382405 0.561361 0.215045
v 0.500000 0.540096 0.205299
v 0.617595 0.561361 0.215045
v 0.717288 0.621916 0.242799
v 0.783900 0.712543 0.284337
v 0.806641 0.857422 0.250000
v 0.783299 0.964307 0.298432
v 0.716828 1.054920 0.339491
v 0.617346 1.115466 0.366926
v 0.500000 1.136726 0.376560
v 0.382654 1.115466 0.366926
v 0.283172 1.054920 0.339491
v 0.216701 0.964307 0.298432
v 0.193359 0.857422 0.250000
v 0.216701 0.750537 0.201568
v 0.283172 0.659924 0.160509
v 0.382654 0.599378 0.133074
v 0.500000 0.578117 0.123440
v 0.617346 0.599378 0.133074
v 0.716828 0.659924 0.160509
v 0.783299 0.750537 0.201568
v 0.805990 0.894965 0.166667
v 0.782698 1.001832 0.214534
v 0.716367 1.092429 0.255114
v 0.617097 1.152964 0.282229
v 0.500000 1.174221 0.291750
v 0.382903 1.152964 0.282229
v 0.283633 1.092429 0.255114
v 0.217302 1.001832 0.214534
v 0.194010 0.894965 0.166667
v 0.217302 0.788099 0.118799
v 0.283633 0.697502 0.078219
v 0.382903 0.636967 0.051105
v 0.500000 0.615710 0.041583
v 0.617097 0.636967 0.051105
v 0.716367 0.697502 0.078219
v 0.782698 0.788099 0.118799
v 0.805339 0.932075 0.083333
v 0.782096 1.038920 0.130635
v 0.715907 1.129500 0.170735
v 0.616848 1.190023 0.197529
v 0.500000 1.211276 0.206938
v 0.383152 1.190023 0.197529
v 0.284093 1.129500 0.170735
v 0.217904 1.038920 0.130635
v 0.194661 0.932075 0.083333
v 0.217904 0.825229 0.036032
v 0.284093 0.734649 -0.004068
v 0.383152 0.674126 -0.030863
v 0.500000 0.652873 -0.040271
v 0.616848 0.674126 -0.030863
v 0.715907 0.734649 -0.004068
v 0.782096 0.825229 0.036032
v 0.804688 0.968750 0.000000
v 0.781495 1.075573 0.046735
v 0.715447 1.166133 0.086355
v 0.616599 1.226643 0.112828
v 0.500000 1.247892 0.122124
v 0.383401 1.226643 0.112828
v 0.284553 1.166133 0.086355
v 0.218505 1.075573 0.046735
v 0.195312 0.968750 0.000000
v 0.218505 0.861927 -0.046735
v 0.284553 0.771367 -0.086355
v 0.383401 0.710857 -0.112828
v 0.500000 0.689608 -0.122124
v 0.616599 0.710857 -0.112828
v 0.715447 0.771367 -0.086355
v 0.781495 0.861927 -0.046735
vt 0.250000 0.750000
vt 0.250000 0.684375
vt 0.281250 0.684375
vt 0.281250 0.750000
vt 0.312500 0.684375
vt 0.312500 0.750000
vt 0.343750 0.684375
vt 0.343750 0.750000
vt 0.375000 0.684375
vt 0.375000 0.750000
vt 0.406250 0.684375
vt 0.406250 0.750000
vt 0.437500 0.684375
vt 0.437500 0.750000
vt 0.468750 0.684375
vt 0.468750 0.750000
vt 0.500000 0.684375
vt 0.500000 0.750000
vt 0.531250 0.684375
vt 0.531250 0.750000
vt 0.562500 0.684375
vt 0.562500 0.750000
vt 0.593750 0.684375
vt 0.593750 0.750000
vt 0.625000 0.684375
vt 0.625000 0.750000
vt 0.656250 0.684375
vt 0.656250 0.750000
vt 0.687500 0.684375
vt 0.687500 0.750000
vt 0.718750 0.684375
vt 0.718750 0.750000
vt 0.750000 0.684375
vt 0.750000 0.750000
vt 0.500000 0.500000
vt 0.700000 0.500000
vt 0.684776 0.423463
vt 0.641421 0.358579
vt 0.576537 0.315224
vt 0.500000 0.300000
vt 0.423463 0.315224
vt 0.358579 0.358579
vt 0.315224 0.423463
vt 0.300000 0.500000
vt 0.315224 0.576537
vt 0.358579 0.641421
vt 0.423463 0.684776
vt 0.500000 0.700000
vt 0.576537 0.684776
vt 0.641421 0.641421
vt 0.684776 0.576537
vt 0.250000 0.740935
vt 0.281250 0.740935
vt 0.312500 0.740935
vt 0.343750 0.740935
vt 0.375000 0.740935
vt 0.406250 0.740935
vt 0.437500 0.740935
vt 0.468750 0.740935
vt 0.500000 0.740935
vt 0.531250 0.740935
vt 0.562500 0.740935
vt 0.593750 0.740935
vt 0.625000 0.740935
vt 0.656250 0.740935
vt 0.687500 0.740935
vt 0.718750 0.740935
vt 0.750000 0.740935
vt 0.250000 0.694399
vt 0.281250 0.694399
vt 0.312500 0.694399
vt 0.343750 0.694399
vt 0.375000 0.694399
vt 0.406250 0.694399
vt 0.437500 0.694399
vt 0.468750 0.694399
vt 0.500000 0.694399
vt 0.531250 0.694399
vt 0.562500 0.694399
vt 0.593750 0.694399
vt 0.625000 0.694399
vt 0.656250 0.694399
vt 0.687500 0.694399
vt 0.718750 0.694399
vt 0.750000 0.694399
vt 0.250000 0.647959
vt 0.281250 0.647959
vt 0.312500 0.647959
vt 0.343750 0.647959
vt 0.375000 0.647959
vt 0.406250 0.647959
vt 0.437500 0.647959
vt 0.468750 0.647959
vt 0.500000 0.647959
vt 0.531250 0.647959
vt 0.562500 0.647959
vt 0.593750 0.647959
vt 0.625000 0.647959
vt 0.656250 0.647959
vt 0.687500 0.647959
vt 0.718750 0.647959
vt 0.750000 0.647959
vt 0.250000 0.601614
vt 0.281250 0.601614
vt 0.312500 0.601614
vt 0.343750 0.601614
vt 0.375000 0.601614
vt 0.406250 0.601614
vt 0.437500 0.601614
vt 0.468750 0.601614
vt 0.500000 0.601614
vt 0.531250 0.601614
vt 0.562500 0.601614
vt 0.593750 0.601614
vt 0.625000 0.601614
vt 0.656250 0.601614
vt 0.687500 0.601614
vt 0.718750 0.601614
vt 0.750000 0.601614
vt 0.250000 0.555364
vt 0.281250 0.555364
vt 0.312500 0.555364
vt 0.343750 0.555364
vt 0.375000 0.555364
vt 0.406250 0.555364
vt 0.437500 0.555364
vt 0.468750 0.555364
vt 0.500000 0.555364
vt 0.531250 0.555364
vt 0.562500 0.555364
vt 0.593750 0.555364
vt 0.625000 0.555364
vt 0.656250 0.555364
vt 0.687500 0.555364
vt 0.718750 0.555364
vt 0.750000 0.555364
vt 0.250000 0.509208
vt 0.281250 0.509208
vt 0.312500 0.509208
vt 0.343750 0.509208
vt 0.375000 0.509208
vt 0.406250 0.509208
vt 0.437500 0.509208
vt 0.468750 0.509208
vt 0.500000 0.509208
vt 0.531250 0.509208
vt 0.562500 0.509208
vt 0.593750 0.509208
vt 0.625000 0.509208
vt 0.656250 0.509208
vt 0.687500 0.509208
vt 0.718750 0.509208
vt 0.750000 0.509208
vt 0.250000 0.463144
vt 0.281250 0.463144
vt 0.312500 0.463144
vt 0.343750 0.463144
vt 0.375000 0.463144
vt 0.406250 0.463144
vt 0.437500 0.463144
vt 0.468750 0.463144
vt 0.500000 0.463144
vt 0.531250 0.463144
vt 0.562500 0.463144
vt 0.593750 0.463144
vt 0.625000 0.463144
vt 0.656250 0.463144
vt 0.687500 0.463144
vt 0.718750 0.463144
vt 0.750000 0.463144
vt 0.250000 0.417173
vt 0.281250 0.417173
vt 0.312500 0.417173
vt 0.343750 0.417173
vt 0.375000 0.417173
vt 0.406250 0.417173
vt 0.437500 0.417173
vt 0.468750 0.417173
vt 0.500000 0.417173
vt 0.531250 0.417173
vt 0.562500 0.417173
vt 0.593750 0.417173
vt 0.625000 0.417173
vt 0.656250 0.417173
vt 0.687500 0.417173
vt 0.718750 0.417173
vt 0.750000 0.417173
vt 0.250000 0.371293
vt 0.281250 0.371293
vt 0.312500 0.371293
vt 0.343750 0.371293
vt 0.375000 0.371293
vt 0.406250 0.371293
vt 0.437500 0.371293
vt 0.468750 0.371293
vt 0.500000 0.371293
vt 0.531250 0.371293
vt 0.562500 0.371293
vt 0.593750 0.371293
vt 0.625000 0.371293
vt 0.656250 0.371293
vt 0.687500 0.371293
vt 0.718750 0.371293
vt 0.750000 0.371293
vt 0.250000 0.325504
vt 0.281250 0.325504
vt 0.312500 0.325504
vt 0.343750 0.325504
vt 0.375000 0.325504
vt 0.406250 0.325504
vt 0.437500 0.325504
vt 0.468750 0.325504
vt 0.500000 0.325504
vt 0.531250 0.325504
vt 0.562500 0.325504
vt 0.593750 0.325504
vt 0.625000 0.325504
vt 0.656250 0.325504
vt 0.687500 0.325504
vt 0.718750 0.325504
vt 0.750000 0.325504
vt 0.250000 0.279804
vt 0.281250 0.279804
vt 0.312500 0.279804
vt 0.343750 0.279804
vt 0.375000 0.279804
vt 0.406250 0.279804
vt 0.437500 0.279804
vt 0.468750 0.279804
vt 0.500000 0.279804
vt 0.531250 0.279804
vt 0.562500 0.279804
vt 0.593750 0.279804
vt 0.625000 0.279804
vt 0.656250 0.279804
vt 0.687500 0.279804
vt 0.718750 0.279804
vt 0.750000 0.279804
vt 0.250000 0.265808
vt 0.281250 0.265808
vt 0.312500 0.265808
vt 0.343750 0.265808
vt 0.375000 0.265808
vt 0.406250 0.265808
vt 0.437500 0.265808
vt 0.468750 0.265808
vt 0.500000 0.265808
vt 0.531250 0.265808
vt 0.562500 0.265808
vt 0.593750 0.265808
vt 0.625000 0.265808
vt 0.656250 0.265808
vt 0.687500 0.265808
vt 0.718750 0.265808
vt 0.750000 0.265808
vt 0.250000 0.311331
vt 0.281250 0.311331
vt 0.312500 0.311331
vt 0.343750 0.311331
vt 0.375000 0.311331
vt 0.406250 0.311331
vt 0.437500 0.311331
vt 0.468750 0.311331
vt 0.500000 0.311331
vt 0.531250 0.311331
vt 0.562500 0.311331
vt 0.593750 0.311331
vt 0.625000 0.311331
vt 0.656250 0.311331
vt 0.687500 0.311331
vt 0.718750 0.311331
vt 0.750000 0.311331
vn 1.000000 0.000000 0.000000
vn 0.935338 0.353756 0.000000
vn 0.738470 0.674286 0.000000
vn 0.413121 0.910676 0.000000
vn 0.000000 1.000000 0.000000
vn -0.413121 0.910676 0.000000
vn -0.738470 0.674286 0.000000
vn -0.935338 0.353756 0.000000
vn -1.000000 0.000000 0.000000
vn -0.935338 -0.353756 0.000000
vn -0.738470 -0.674286 0.000000
vn -0.413121 -0.910676 0.000000
vn -0.000000 -1.000000 0.000000
vn 0.413121 -0.910676 0.000000
vn 0.738470 -0.674286 0.000000
vn 0.935338 -0.353756 0.000000
vn 0.000000 0.000000 1.000000
vn 0.000000 0.000000 -1.000000
vn 0.923880 0.342282 0.171141
vn 0.923880 0.341407 0.172882
vn 0.707107 0.632456 0.316228
vn 0.707107 0.631557 0.318018
vn 0.382683 0.826343 0.413171
vn 0.382683 0.825791 0.414274
vn 0.000000 0.894427 0.447214
vn 0.000000 0.894065 0.447938
vn -0.382683 0.826343 0.413171
vn -0.382683 0.825791 0.414274
vn -0.707107 0.632456 0.316228
vn -0.707107 0.631557 0.318018
vn -0.923880 0.342282 0.171141
vn -0.923880 0.341407 0.172882
vn -0.923880 -0.342282 -0.171141
vn -0.923880 -0.340466 -0.174726
vn -0.707107 -0.632456 -0.316228
vn -0.707107 -0.628347 -0.324315
vn -0.382683 -0.826343 -0.413171
vn -0.382683 -0.820309 -0.425025
vn -0.000000 -0.894427 -0.447214
vn -0.000000 -0.887642 -0.460534
vn 0.382683 -0.826343 -0.413171
vn 0.382683 -0.820309 -0.425025
vn 0.707107 -0.632456 -0.316228
vn 0.707107 -0.628347 -0.324315
vn 0.923880 -0.342282 -0.171141
vn 0.923880 -0.340466 -0.174726
vn 0.923880 0.342994 0.169711
vn 0.707107 0.633770 0.313584
vn 0.382683 0.828061 0.409718
vn 0.000000 0.896287 0.443475
vn -0.382683 0.828061 0.409718
vn -0.707107 0.633770 0.313584
vn -0.923880 0.342994 0.169711
vn -0.923880 -0.342994 -0.169711
vn -0.707107 -0.633770 -0.313584
vn -0.382683 -0.828061 -0.409718
vn -0.000000 -0.896287 -0.443475
vn 0.382683 -0.828061 -0.409718
vn 0.707107 -0.633770 -0.313584
vn 0.923880 -0.342994 -0.169711
vn 0.923880 0.343703 0.168271
vn 0.707107 0.635080 0.310924
vn 0.382683 0.829771 0.406242
vn 0.000000 0.898138 0.439713
vn -0.382683 0.829771 0.406242
vn -0.707107 0.635080 0.310924
vn -0.923880 0.343703 0.168271
vn -0.923880 -0.343703 -0.168271
vn -0.707107 -0.635080 -0.310924
vn -0.382683 -0.829771 -0.406242
vn -0.000000 -0.898138 -0.439713
vn 0.382683 -0.829771 -0.406242
vn 0.707107 -0.635080 -0.310924
vn 0.923880 -0.343703 -0.168271
vn 0.923880 0.344408 0.166823
vn 0.707107 0.636383 0.308248
vn 0.382683 0.831474 0.402745
vn 0.000000 0.899981 0.435928
vn -0.382683 0.831474 0.402745
vn -0.707107 0.636383 0.308248
vn -0.923880 0.344408 0.166823
vn -0.923880 -0.344408 -0.166823
vn -0.707107 -0.636383 -0.308248
vn -0.382683 -0.831474 -0.402745
vn -0.000000 -0.899981 -0.435928
vn 0.382683 -0.831474 -0.402745
vn 0.707107 -0.636383 -0.308248
vn 0.923880 -0.344408 -0.166823
vn 0.923880 0.345110 0.165365
vn 0.707107 0.637680 0.305555
vn 0.382683 0.833169 0.399227
vn 0.000000 0.901816 0.432120
vn -0.382683 0.833169 0.399227
vn -0.707107 0.637680 0.305555
vn -0.923880 0.345110 0.165365
vn -0.923880 -0.345110 -0.165365
vn -0.707107 -0.637680 -0.305555
vn -0.382683 -0.833169 -0.399227
vn -0.000000 -0.901816 -0.432120
vn 0.382683 -0.833169 -0.399227
vn 0.707107 -0.637680 -0.305555
vn 0.923880 -0.345110 -0.165365
vn 0.923880 0.345809 0.163899
vn 0.707107 0.638971 0.302846
vn 0.382683 0.834856 0.395687
vn 0.000000 0.903642 0.428289
vn -0.382683 0.834856 0.395687
vn -0.707107 0.638971 0.302846
vn -0.923880 0.345809 0.163899
vn -0.923880 -0.345809 -0.163899
vn -0.707107 -0.638971 -0.302846
vn -0.382683 -0.834856 -0.395687
vn -0.000000 -0.903642 -0.428289
vn 0.382683 -0.834856 -0.395687
vn 0.707107 -0.638971 -0.302846
vn 0.923880 -0.345809 -0.163899
vn 0.923880 0.346504 0.162424
vn 0.707107 0.640256 0.300120
vn 0.382683 0.836535 0.392126
vn 0.000000 0.905459 0.424434
vn -0.382683 0.836535 0.392126
vn -0.707107 0.640256 0.300120
vn -0.923880 0.346504 0.162424
vn -0.923880 -0.346504 -0.162424
vn -0.707107 -0.640256 -0.300120
vn -0.382683 -0.836535 -0.392126
vn -0.000000 -0.905459 -0.424434
vn 0.382683 -0.836535 -0.392126
vn 0.707107 -0.640256 -0.300120
vn 0.923880 -0.346504 -0.162424
vn 0.923880 0.347196 0.160940
vn 0.707107 0.641534 0.297378
vn 0.382683 0.838205 0.388543
vn 0.000000 0.907267 0.420556
vn -0.382683 0.838205 0.388543
vn -0.707107 0.641534 0.297378
vn -0.923880 0.347196 0.160940
vn -0.923880 -0.347196 -0.160940
vn -0.707107 -0.641534 -0.297378
vn -0.382683 -0.838205 -0.388543
vn -0.000000 -0.907267 -0.420556
vn 0.382683 -0.838205 -0.388543
vn 0.707107 -0.641534 -0.297378
vn 0.923880 -0.347196 -0.160940
vn 0.923880 0.347884 0.159447
vn 0.707107 0.642806 0.294619
vn 0.382683 0.839866 0.384939
vn 0.000000 0.909065 0.416655
vn -0.382683 0.839866 0.384939
vn -0.707107 0.642806 0.294619
vn -0.923880 0.347884 0.159447
vn -0.923880 -0.347884 -0.159447
vn -0.707107 -0.642806 -0.294619
vn -0.382683 -0.839866 -0.384939
vn -0.000000 -0.909065 -0.416655
vn 0.382683 -0.839866 -0.384939
vn 0.707107 -0.642806 -0.294619
vn 0.923880 -0.347884 -0.159447
vn 0.923880 0.348568 0.157945
vn 0.707107 0.644071 0.291844
vn 0.382683 0.841519 0.381313
vn 0.000000 0.910853 0.412730
vn -0.382683 0.841519 0.381313
vn -0.707107 0.644071 0.291844
vn -0.923880 0.348568 0.157945
vn -0.923880 -0.348568 -0.157945
vn -0.707107 -0.644071 -0.291844
vn -0.382683 -0.841519 -0.381313
vn -0.000000 -0.910853 -0.412730
vn 0.382683 -0.841519 -0.381313
vn 0.707107 -0.644071 -0.291844
vn 0.923880 -0.348568 -0.157945
vn 0.923880 0.349249 0.156434
vn 0.707107 0.645328 0.289053
vn 0.382683 0.843162 0.377666
vn 0.000000 0.912632 0.408783
vn -0.382683 0.843162 0.377666
vn -0.707107 0.645328 0.289053
vn -0.923880 0.349249 0.156434
vn -0.923880 -0.349249 -0.156434
vn -0.707107 -0.645328 -0.289053
vn -0.382683 -0.843162 -0.377666
vn -0.000000 -0.912632 -0.408783
vn 0.382683 -0.843162 -0.377666
vn 0.707107 -0.645328 -0.289053
vn 0.923880 -0.349249 -0.156434
vn 0.923880 0.349926 0.154915
vn 0.707107 0.646578 0.286246
vn 0.382683 0.844795 0.373998
vn 0.000000 0.914400 0.404812
vn -0.382683 0.844795 0.373998
vn -0.707107 0.646578 0.286246
vn -0.923880 0.349926 0.154915
vn -0.923880 -0.349926 -0.154915
vn -0.707107 -0.646578 -0.286246
vn -0.382683 -0.844795 -0.373998
vn -0.000000 -0.914400 -0.404812
vn 0.382683 -0.844795 -0.373998
vn 0.707107 -0.646578 -0.286246
vn 0.923880 -0.349926 -0.154915
vn 0.923880 0.350598 0.153387
vn 0.707107 0.647821 0.283422
vn 0.382683 0.846419 0.370308
vn 0.000000 0.916157 0.400819
vn -0.382683 0.846419 0.370308
vn -0.707107 0.647821 0.283422
vn -0.923880 0.350598 0.153387
vn -0.923880 -0.350598 -0.153387
vn -0.707107 -0.647821 -0.283422
vn -0.382683 -0.846419 -0.370308
vn -0.000000 -0.916157 -0.400819
vn 0.382683 -0.846419 -0.370308
vn 0.707107 -0.647821 -0.283422
vn 0.923880 -0.350598 -0.153387
usemtl body
f 1/1/1 2/2/1 3/3/2
f 1/1/1 3/3/2 4/4/2
f 4/4/2 3/3/2 5/5/3
f 4/4/2 5/5/3 6/6/3
f 6/6/3 5/5/3 7/7/4
f 6/6/3 7/7/4 8/8/4
f 8/8/4 7/7/4 9/9/5
f 8/8/4 9/9/5 10/10/5
f 10/10/5 9/9/5 11/11/6
f 10/10/5 11/11/6 12/12/6
f 12/12/6 11/11/6 13/13/7
f 12/12/6 13/13/7 14/14/7
f 14/14/7 13/13/7 15/15/8
f 14/14/7 15/15/8 16/16/8
f 16/16/8 15/15/8 17/17/9
f 16/16/8 17/17/9 18/18/9
f 18/18/9 17/17/9 19/19/10
f 18/18/9 19/19/10 20/20/10
f 20/20/10 19/19/10 21/21/11
f 20/20/10 21/21/11 22/22/11
f 22/22/11 21/21/11 23/23/12
f 22/22/11 23/23/12 24/24/12
f 24/24/12 23/23/12 25/25/13
f 24/24/12 25/25/13 26/26/13
f 26/26/13 25/25/13 27/27/14
f 26/26/13 27/27/14 28/28/14
f 28/28/14 27/27/14 29/29/15
f 28/28/14 29/29/15 30/30/15
f 30/30/15 29/29/15 31/31/16
f 30/30/15 31/31/16 32/32/16
f 32/32/16 31/31/16 2/33/1
f 32/32/16 2/33/1 1/34/1
f 33/35/17 1/36/17 4/37/17
f 33/35/17 4/37/17 6/38/17
f 33/35/17 6/38/17 8/39/17
f 33/35/17 8/39/17 10/40/17
f 33/35/17 10/40/17 12/41/17
f 33/35/17 12/41/17 14/42/17
f 33/35/17 14/42/17 16/43/17
f 33/35/17 16/43/17 18/44/17
f 33/35/17 18/44/17 20/45/17
f 33/35/17 20/45/17 22/46/17
f 33/35/17 22/46/17 24/47/17
f 33/35/17 24/47/17 26/48/17
f 33/35/17 26/48/17 28/49/17
f 33/35/17 28/49/17 30/50/17
f 33/35/17 30/50/17 32/51/17
f 33/35/17 32/51/17 1/36/17
f 34/35/18 3/37/18 2/36/18
f 34/35/18 5/38/18 3/37/18
f 34/35/18 7/39/18 5/38/18
f 34/35/18 9/40/18 7/39/18
f 34/35/18 11/41/18 9/40/18
f 34/35/18 13/42/18 11/41/18
f 34/35/18 15/43/18 13/42/18
f 34/35/18 17/44/18 15/43/18
f 34/35/18 19/45/18 17/44/18
f 34/35/18 21/46/18 19/45/18
f 34/35/18 23/47/18 21/46/18
f 34/35/18 25/48/18 23/47/18
f 34/35/18 27/49/18 25/48/18
f 34/35/18 29/50/18 27/49/18
f 34/35/18 31/51/18 29/50/18
f 34/35/18 2/36/18 31/51/18
f 35/1/1 36/52/1 37/53/19
f 35/1/1 37/53/19 38/4/20
f 38/4/20 37/53/19 39/54/21
f 38/4/20 39/54/21 40/6/22
f 40/6/22 39/54/21 41/55/23
f 40/6/22 41/55/23 42/8/24
f 42/8/24 41/55/23 43/56/25
f 42/8/24 43/56/25 44/10/26
f 44/10/26 43/56/25 45/57/27
f 44/10/26 45/57/27 46/12/28
f 46/12/28 45/57/27 47/58/29
f 46/12/28 47/58/29 48/14/30
f 48/14/30 47/58/29 49/59/31
f 48/14/30 49/59/31 50/16/32
f 50/16/32 49/59/31 51/60/9
f 50/16/32 51/60/9 52/18/9
f 52/18/9 51/60/9 53/61/33
f 52/18/9 53/61/33 54/20/34
f 54/20/34 53/61/33 55/62/35
f 54/20/34 55/62/35 56/22/36
f 56/22/36 55/62/35 57/63/37
f 56/22/36 57/63/37 58/24/38
f 58/24/38 57/63/37 59/64/39
f 58/24/38 59/64/39 60/26/40
f 60/26/40 59/64/39 61/65/41
f 60/26/40 61/65/41 62/28/42
f 62/28/42 61/65/41 63/66/43
f 62/28/42 63/66/43 64/30/44
f 64/30/44 63/66/43 65/67/45
f 64/30/44 65/67/45 66/32/46
f 66/32/46 65/67/45 36/68/1
f 66/32/46 36/68/1 35/34/1
f 36/52/1 67/69/1 68/70/47
f 36/52/1 68/70/47 37/53/19
f 37/53/19 68/70/47 69/71/48
f 37/53/19 69/71/48 39/54/21
f 39/54/21 69/71/48 70/72/49
f 39/54/21 70/72/49 41/55/23
f 41/55/23 70/72/49 71/73/50
f 41/55/23 71/73/50 43/56/25
f 43/56/25 71/73/50 72/74/51
f 43/56/25 72/74/51 45/57/27
f 45/57/27 72/74/51 73/75/52
f 45/57/27 73/75/52 47/58/29
f 47/58/29 73/75/52 74/76/53
f 47/58/29 74/76/53 49/59/31
f 49/59/31 74/76/53 75/77/9
f 49/59/31 75/77/9 51/60/9
f 51/60/9 75/77/9 76/78/54
f 51/60/9 76/78/54 53/61/33
f 53/61/33 76/78/54 77/79/55
f 53/61/33 77/79/55 55/62/35
f 55/62/35 77/79/55 78/80/56
f 55/62/35 78/80/56 57/63/37
f 57/63/37 78/80/56 79/81/57
f 57/63/37 79/81/57 59/64/39
f 59/64/39 79/81/57 80/82/58
f 59/64/39 80/82/58 61/65/41
f 61/65/41 80/82/58 81/83/59
f 61/65/41 81/83/59 63/66/43
f 63/66/43 81/83/59 82/84/60
f 63/66/43 82/84/60 65/67/45
f 65/67/45 82/84/60 67/85/1
f 65/67/45 67/85/1 36/68/1
f 67/69/1 83/86/1 84/87/61
f 67/69/1 84/87/61 68/70/47
f 68/70/47 84/87/61 85/88/62
f 68/70/47 85/88/62 69/71/48
f 69/71/48 85/88/62 86/89/63
f 69/71/48 86/89/63 70/72/49
f 70/72/49 86/89/63 87/90/64
f 70/72/49 87/90/64 71/73/50
f 71/73/50 87/90/64 88/91/65
f 71/73/50 88/91/65 72/74/51
f 72/74/51 88/91/65 89/92/66
f 72/74/51 89/92/66 73/75/52
f 73/75/52 89/92/66 90/93/67
f 73/75/52 90/93/67 74/76/53
f 74/76/53 90/93/67 91/94/9
f 74/76/53 91/94/9 75/77/9
f 75/77/9 91/94/9 92/95/68
f 75/77/9 92/95/68 76/78/54
f 76/78/54 92/95/68 93/96/69
f 76/78/54 93/96/69 77/79/55
f 77/79/55 93/96/69 94/97/70
f 77/79/55 94/97/70 78/80/56
f 78/80/56 94/97/70 95/98/71
f 78/80/56 95/98/71 79/81/57
f 79/81/57 95/98/71 96/99/72
f 79/81/57 96/99/72 80/82/58
f 80/82/58 96/99/72 97/100/73
f 80/82/58 97/100/73 81/83/59
f 81/83/59 97/100/73 98/101/74
f 81/83/59 98/101/74 82/84/60
f 82/84/60 98/101/74 83/102/1
f 82/84/60 83/102/1 67/85/1
f 83/86/1 99/103/1 100/104/75
f 83/86/1 100/104/75 84/87/61
f 84/87/61 100/104/75 101/105/76
f 84/87/61 101/105/76 85/88/62
f 85/88/62 101/105/76 102/106/77
f 85/88/62 102/106/77 86/89/63
f 86/89/63 102/106/77 103/107/78
f 86/89/63 103/107/78 87/90/64
f 87/90/64 103/107/78 104/108/79
f 87/90/64 104/108/79 88/91/65
f 88/91/65 104/108/79 105/109/80
f 88/91/65 105/109/80 89/92/66
f 89/92/66 105/109/80 106/110/81
f 89/92/66 106/110/81 90/93/67
f 90/93/67 106/110/81 107/111/9
f 90/93/67 107/111/9 91/94/9
f 91/94/9 107/111/9 108/112/82
f 91/94/9 108/112/82 92/95/68
f 92/95/68 108/112/82 109/113/83
f 92/95/68 109/113/83 93/96/69
f 93/96/69 109/113/83 110/114/84
f 93/96/69 110/114/84 94/97/70
f 94/97/70 110/114/84 111/115/85
f 94/97/70 111/115/85 95/98/71
f 95/98/71 111/115/85 112/116/86
f 95/98/71 112/116/86 96/99/72
f 96/99/72 112/116/86 113/117/87
f 96/99/72 113/117/87 97/100/73
f 97/100/73 113/117/87 114/118/88
f 97/100/73 114/118/88 98/101/74
f 98/101/74 114/118/88 99/119/1
f 98/101/74 99/119/1 83/102/1
f 99/103/1 115/120/1 116/121/89
f 99/103/1 116/121/89 100/104/75
f 100/104/75 116/121/89 117/122/90
f 100/104/75 117/122/90 101/105/76
f 101/105/76 117/122/90 118/123/91
f 101/105/76 118/123/91 102/106/77
f 102/106/77 118/123/91 119/124/92
f 102/106/77 119/124/92 103/107/78
f 103/107/78 119/124/92 120/125/93
f 103/107/78 120/125/93 104/108/79
f 104/108/79 120/125/93 121/126/94
f 104/108/79 121/126/94 105/109/80
f 105/109/80 121/126/94 122/127/95
f 105/109/80 122/127/95 106/110/81
f 106/110/81 122/127/95 123/128/9
f 106/110/81 123/128/9 107/111/9
f 107/111/9 123/128/9 124/129/96
f 107/111/9 124/129/96 108/112/82
f 108/112/82 124/129/96 125/130/97
f 108/112/82 125/130/97 109/113/83
f 109/113/83 125/130/97 126/131/98
f 109/113/83 126/131/98 110/114/84
f 110/114/84 126/131/98 127/132/99
f 110/114/84 127/132/99 111/115/85
f 111/115/85 127/132/99 128/133/100
f 111/115/85 128/133/100 112/116/86
f 112/116/86 128/133/100 129/134/101
f 112/116/86 129/134/101 113/117/87
f 113/117/87 129/134/101 130/135/102
f 113/117/87 130/135/102 114/118/88
f 114/118/88 130/135/102 115/136/1
f 114/118/88 115/136/1 99/119/1
f 115/120/1 131/137/1 132/138/103
f 115/120/1 132/138/103 116/121/89
f 116/121/89 132/138/103 133/139/104
f 116/121/89 133/139/104 117/122/90
f 117/122/90 133/139/104 134/140/105
f 117/122/90 134/140/105 118/123/91
f 118/123/91 134/140/105 135/141/106
f 118/123/91 135/141/106 119/124/92
f 119/124/92 135/141/106 136/142/107
f 119/124/92 136/142/107 120/125/93
f 120/125/93 136/142/107 137/143/108
f 120/125/93 137/143/108 121/126/94
f 121/126/94 137/143/108 138/144/109
f 121/126/94 138/144/109 122/127/95
f 122/127/95 138/144/109 139/145/9
f 122/127/95 139/145/9 123/128/9
f 123/128/9 139/145/9 140/146/110
f 123/128/9 140/146/110 124/129/96
f 124/129/96 140/146/110 141/147/111
f 124/129/96 141/147/111 125/130/97
f 125/130/97 141/147/111 142/148/112
f 125/130/97 142/148/112 126/131/98
f 126/131/98 142/148/112 143/149/113
f 126/131/98 143/149/113 127/132/99
f 127/132/99 143/149/113 144/150/114
f 127/132/99 144/150/114 128/133/100
f 128/133/100 144/150/114 145/151/115
f 128/133/100 145/151/115 129/134/101
f 129/134/101 145/151/115 146/152/116
f 129/134/101 146/152/116 130/135/102
f 130/135/102 146/152/116 131/153/1
f 130/135/102 131/153/1 115/136/1
f 131/137/1 147/154/1 148/155/117
f 131/137/1 148/155/117 132/138/103
f 132/138/103 148/155/117 149/156/118
f 132/138/103 149/156/118 133/139/104
f 133/139/104 149/156/118 150/157/119
f 133/139/104 150/157/119 134/140/105
f 134/140/105 150/157/119 151/158/120
f 134/140/105 151/158/120 135/141/106
f 135/141/106 151/158/120 152/159/121
f 135/141/106 152/159/121 136/142/107
f 136/142/107 152/159/121 153/160/122
f 136/142/107 153/160/122 137/143/108
f 137/143/108 153/160/122 154/161/123
f 137/143/108 154/161/123 138/144/109
f 138/144/109 154/161/123 155/162/9
f 138/144/109 155/162/9 139/145/9
f 139/145/9 155/162/9 156/163/124
f 139/145/9 156/163/124 140/146/110
f 140/146/110 156/163/124 157/164/125
f 140/146/110 157/164/125 141/147/111
f 141/147/111 157/164/125 158/165/126
f 141/147/111 158/165/126 142/148/112
f 142/148/112 158/165/126 159/166/127
f 142/148/112 159/166/127 143/149/113
f 143/149/113 159/166/127 160/167/128
f 143/149/113 160/167/128 144/150/114
f 144/150/114 160/167/128 161/168/129
f 144/150/114 161/168/129 145/151/115
f 145/151/115 161/168/129 162/169/130
f 145/151/115 162/169/130 146/152/116
f 146/152/116 162/169/130 147/170/1
f 146/152/116 147/170/1 131/153/1
f 147/154/1 163/171/1 164/172/131
f 147/154/1 164/172/131 148/155/117
f 148/155/117 164/172/131 165/173/132
f 148/155/117 165/173/132 149/156/118
f 149/156/118 165/173/132 166/174/133
f 149/156/118 166/174/133 150/157/119
f 150/157/119 166/174/133 167/175/134
f 150/157/119 167/175/134 151/158/120
f 151/158/120 167/175/134 168/176/135
f 151/158/120 168/176/135 152/159/121
f 152/159/121 168/176/135 169/177/136
f 152/159/121 169/177/136 153/160/122
f 153/160/122 169/177/136 170/178/137
f 153/160/122 170/178/137 154/161/123
f 154/161/123 170/178/137 171/179/9
f 154/161/123 171/179/9 155/162/9
f 155/162/9 171/179/9 172/180/138
f 155/162/9 172/180/138 156/163/124
f 156/163/124 172/180/138 173/181/139
f 156/163/124 173/181/139 157/164/125
f 157/164/125 173/181/139 174/182/140
f 157/164/125 174/182/140 158/165/126
f 158/165/126 174/182/140 175/183/141
f 158/165/126 175/183/141 159/166/127
f 159/166/127 175/183/141 176/184/142
f 159/166/127 176/184/142 160/167/128
f 160/167/128 176/184/142 177/185/143
f 160/167/128 177/185/143 161/168/129
f 161/168/129 177/185/143 178/186/144
f 161/168/129 178/186/144 162/169/130
f 162/169/130 178/186/144 163/187/1
f 162/169/130 163/187/1 147/170/1
f 163/171/1 179/188/1 180/189/145
f 163/171/1 180/189/145 164/172/131
f 164/172/131 180/189/145 181/190/146
f 164/172/131 181/190/146 165/173/132
f 165/173/132 181/190/146 182/191/147
f 165/173/132 182/191/147 166/174/133
f 166/174/133 182/191/147 183/192/148
f 166/174/133 183/192/148 167/175/134
f 167/175/134 183/192/148 184/193/149
f 167/175/134 184/193/149 168/176/135
f 168/176/135 184/193/149 185/194/150
f 168/176/135 185/194/150 169/177/136
f 169/177/136 185/194/150 186/195/151
f 169/177/136 186/195/151 170/178/137
f 170/178/137 186/195/151 187/196/9
f 170/178/137 187/196/9 171/179/9
f 171/179/9 187/196/9 188/197/152
f 171/179/9 188/197/152 172/180/138
f 172/180/138 188/197/152 189/198/153
f 172/180/138 189/198/153 173/181/139
f 173/181/139 189/198/153 190/199/154
f 173/181/139 190/199/154 174/182/140
f 174/182/140 190/199/154 191/200/155
f 174/182/140 191/200/155 175/183/141
f 175/183/141 191/200/155 192/201/156
f 175/183/141 192/201/156 176/184/142
f 176/184/142 192/201/156 193/202/157
f 176/184/142 193/202/157 177/185/143
f 177/185/143 193/202/157 194/203/158
f 177/185/143 194/203/158 178/186/144
f 178/186/144 194/203/158 179/204/1
f 178/186/144 179/204/1 163/187/1
f 179/188/1 195/205/1 196/206/159
f 179/188/1 196/206/159 180/189/145
f 180/189/145 196/206/159 197/207/160
f 180/189/145 197/207/160 181/190/146
f 181/190/146 197/207/160 198/208/161
f 181/190/146 198/208/161 182/191/147
f 182/191/147 198/208/161 199/209/162
f 182/191/147 199/209/162 183/192/148
f 183/192/148 199/209/162 200/210/163
f 183/192/148 200/210/163 184/193/149
f 184/193/149 200/210/163 201/211/164
f 184/193/149 201/211/164 185/194/150
f 185/194/150 201/211/164 202/212/165
f 185/194/150 202/212/165 186/195/151
f 186/195/151 202/212/165 203/213/9
f 186/195/151 203/213/9 187/196/9
f 187/196/9 203/213/9 204/214/166
f 187/196/9 204/214/166 188/197/152
f 188/197/152 204/214/166 205/215/167
f 188/197/152 205/215/167 189/198/153
f 189/198/153 205/215/167 206/216/168
f 189/198/153 206/216/168 190/199/154
f 190/199/154 206/216/168 207/217/169
f 190/199/154 207/217/169 191/200/155
f 191/200/155 207/217/169 208/218/170
f 191/200/155 208/218/170 192/201/156
f 192/201/156 208/218/170 209/219/171
f 192/201/156 209/219/171 193/202/157
f 193/202/157 209/219/171 210/220/172
f 193/202/157 210/220/172 194/203/158
f 194/203/158 210/220/172 195/221/1
f 194/203/158 195/221/1 179/204/1
f 195/205/1 211/222/1 212/223/173
f 195/205/1 212/223/173 196/206/159
f 196/206/159 212/223/173 213/224/174
f 196/206/159 213/224/174 197/207/160
f 197/207/160 213/224/174 214/225/175
f 197/207/160 214/225/175 198/208/161
f 198/208/161 214/225/175 215/226/176
f 198/208/161 215/226/176 199/209/162
f 199/209/162 215/226/176 216/227/177
f 199/209/162 216/227/177 200/210/163
f 200/210/163 216/227/177 217/228/178
f 200/210/163 217/228/178 201/211/164
f 201/211/164 217/228/178 218/229/179
f 201/211/164 218/229/179 202/212/165
f 202/212/165 218/229/179 219/230/9
f 202/212/165 219/230/9 203/213/9
f 203/213/9 219/230/9 220/231/180
f 203/213/9 220/231/180 204/214/166
f 204/214/166 220/231/180 221/232/181
f 204/214/166 221/232/181 205/215/167
f 205/215/167 221/232/181 222/233/182
f 205/215/167 222/233/182 206/216/168
f 206/216/168 222/233/182 223/234/183
f 206/216/168 223/234/183 207/217/169
f 207/217/169 223/234/183 224/235/184
f 207/217/169 224/235/184 208/218/170
f 208/218/170 224/235/184 225/236/185
f 208/218/170 225/236/185 209/219/171
f 209/219/171 225/236/185 226/237/186
f 209/219/171 226/237/186 210/220/172
f 210/220/172 226/237/186 211/238/1
f 210/220/172 211/238/1 195/221/1
f 211/222/1 227/239/1 228/240/187
f 211/222/1 228/240/187 212/223/173
f 212/223/173 228/240/187 229/241/188
f 212/223/173 229/241/188 213/224/174
f 213/224/174 229/241/188 230/242/189
f 213/224/174 230/242/189 214/225/175
f 214/225/175 230/242/189 231/243/190
f 214/225/175 231/243/190 215/226/176
f 215/226/176 231/243/190 232/244/191
f 215/226/176 232/244/191 216/227/177
f 216/227/177 232/244/191 233/245/192
f 216/227/177 233/245/192 217/228/178
f 217/228/178 233/245/192 234/246/193
f 217/228/178 234/246/193 218/229/179
f 218/229/179 234/246/193 235/247/9
f 218/229/179 235/247/9 219/230/9
f 219/230/9 235/247/9 236/248/194
f 219/230/9 236/248/194 220/231/180
f 220/231/180 236/248/194 237/249/195
f 220/231/180 237/249/195 221/232/181
f 221/232/181 237/249/195 238/250/196
f 221/232/181 238/250/196 222/233/182
f 222/233/182 238/250/196 239/251/197
f 222/233/182 239/251/197 223/234/183
f 223/234/183 239/251/197 240/252/198
f 223/234/183 240/252/198 224/235/184
f 224/235/184 240/252/198 241/253/199
f 224/235/184 241/253/199 225/236/185
f 225/236/185 241/253/199 242/254/200
f 225/236/185 242/254/200 226/237/186
f 226/237/186 242/254/200 227/255/1
f 226/237/186 227/255/1 211/238/1
f 227/239/1 243/256/1 244/257/201
f 227/239/1 244/257/201 228/240/187
f 228/240/187 244/257/201 245/258/202
f 228/240/187 245/258/202 229/241/188
f 229/241/188 245/258/202 246/259/203
f 229/241/188 246/259/203 230/242/189
f 230/242/189 246/259/203 247/260/204
f 230/242/189 247/260/204 231/243/190
f 231/243/190 247/260/204 248/261/205
f 231/243/190 248/261/205 232/244/191
f 232/244/191 248/261/205 249/262/206
f 232/244/191 249/262/206 233/245/192
f 233/245/192 249/262/206 250/263/207
f 233/245/192 250/263/207 234/246/193
f 234/246/193 250/263/207 251/264/9
f 234/246/193 251/264/9 235/247/9
f 235/247/9 251/264/9 252/265/208
f 235/247/9 252/265/208 236/248/194
f 236/248/194 252/265/208 253/266/209
f 236/248/194 253/266/209 237/249/195
f 237/249/195 253/266/209 254/267/210
f 237/249/195 254/267/210 238/250/196
f 238/250/196 254/267/210 255/268/211
f 238/250/196 255/268/211 239/251/197
f 239/251/197 255/268/211 256/269/212
f 239/251/197 256/269/212 240/252/198
f 240/252/198 256/269/212 257/270/213
f 240/252/198 257/270/213 241/253/199
f 241/253/199 257/270/213 258/271/214
f 241/253/199 258/271/214 242/254/200
f 242/254/200 258/271/214 243/272/1
f 242/254/200 243/272/1 227/255/1
