# Procedurally generated by dev-env-utils/scripts/gen_mast_arm_curves.py
# mount hardware on cell 9, model-space down
mtllib mastarmcurve.mtl
o mastarm_8x2_c9_down
v 0.500000 0.178541 0.599629
v 0.500000 0.184584 0.412226
v 0.618739 0.208190 0.412988
v 0.618739 0.202147 0.600390
v 0.719402 0.275416 0.415155
v 0.719402 0.269373 0.602558
v 0.786662 0.376026 0.418400
v 0.786662 0.369983 0.605802
v 0.810281 0.494703 0.422226
v 0.810281 0.488660 0.609629
v 0.786662 0.613381 0.426053
v 0.786662 0.607338 0.613456
v 0.719402 0.713991 0.429297
v 0.719402 0.707948 0.616700
v 0.618739 0.781216 0.431465
v 0.618739 0.775173 0.618868
v 0.500000 0.804823 0.432226
v 0.500000 0.798780 0.619629
v 0.381261 0.781216 0.431465
v 0.381261 0.775173 0.618868
v 0.280598 0.713991 0.429297
v 0.280598 0.707948 0.616700
v 0.213338 0.613381 0.426053
v 0.213338 0.607338 0.613456
v 0.189719 0.494703 0.422226
v 0.189719 0.488660 0.609629
v 0.213338 0.376026 0.418400
v 0.213338 0.369983 0.605802
v 0.280598 0.275416 0.415155
v 0.280598 0.269373 0.602558
v 0.381261 0.208190 0.412988
v 0.381261 0.202147 0.600390
v 0.500000 0.488660 0.609629
v 0.500000 0.494703 0.422226
v 0.300000 0.075000 0.500000
v 0.300000 0.000625 0.500000
v 0.358579 0.000625 0.641421
v 0.358579 0.075000 0.641421
v 0.500000 0.000625 0.700000
v 0.500000 0.075000 0.700000
v 0.641421 0.000625 0.641421
v 0.641421 0.075000 0.641421
v 0.700000 0.000625 0.500000
v 0.700000 0.075000 0.500000
v 0.641421 0.000625 0.358579
v 0.641421 0.075000 0.358579
v 0.500000 0.000625 0.300000
v 0.500000 0.075000 0.300000
v 0.358579 0.000625 0.358579
v 0.358579 0.075000 0.358579
v 0.500000 0.075000 0.500000
v 0.500000 0.000625 0.500000
v 0.400000 0.275265 0.508917
v 0.400000 0.075000 0.500000
v 0.413397 0.072776 0.549951
v 0.413397 0.273041 0.558868
v 0.450000 0.071148 0.586517
v 0.450000 0.271412 0.595434
v 0.500000 0.070552 0.599901
v 0.500000 0.270816 0.608818
v 0.550000 0.071148 0.586517
v 0.550000 0.271412 0.595434
v 0.586603 0.072776 0.549951
v 0.586603 0.273041 0.558868
v 0.600000 0.075000 0.500000
v 0.600000 0.275265 0.508917
v 0.586603 0.077224 0.450049
v 0.586603 0.277489 0.458967
v 0.550000 0.078852 0.413483
v 0.550000 0.279117 0.422400
v 0.500000 0.079448 0.400099
v 0.500000 0.279713 0.409016
v 0.450000 0.078852 0.413483
v 0.450000 0.279117 0.422400
v 0.413397 0.077224 0.450049
v 0.413397 0.277489 0.458967
v 0.500000 0.275265 0.508917
vt 0.250000 0.750000
vt 0.250000 0.594860
vt 0.281250 0.594860
vt 0.281250 0.750000
vt 0.312500 0.594860
vt 0.312500 0.750000
vt 0.343750 0.594860
vt 0.343750 0.750000
vt 0.375000 0.594860
vt 0.375000 0.750000
vt 0.406250 0.594860
vt 0.406250 0.750000
vt 0.437500 0.594860
vt 0.437500 0.750000
vt 0.468750 0.594860
vt 0.468750 0.750000
vt 0.500000 0.594860
vt 0.500000 0.750000
vt 0.531250 0.594860
vt 0.531250 0.750000
vt 0.562500 0.594860
vt 0.562500 0.750000
vt 0.593750 0.594860
vt 0.593750 0.750000
vt 0.625000 0.594860
vt 0.625000 0.750000
vt 0.656250 0.594860
vt 0.656250 0.750000
vt 0.687500 0.594860
vt 0.687500 0.750000
vt 0.718750 0.594860
vt 0.718750 0.750000
vt 0.750000 0.594860
vt 0.750000 0.750000
vt 0.500000 0.500000
vt 0.400000 0.600000
vt 0.600000 0.400000
vt 0.250000 0.650000
vt 0.312500 0.650000
vt 0.375000 0.650000
vt 0.437500 0.650000
vt 0.500000 0.650000
vt 0.562500 0.650000
vt 0.625000 0.650000
vt 0.687500 0.650000
vt 0.750000 0.650000
vt 0.250000 0.700000
vt 0.291667 0.700000
vt 0.291667 0.750000
vt 0.333333 0.700000
vt 0.333333 0.750000
vt 0.375000 0.700000
vt 0.416667 0.700000
vt 0.416667 0.750000
vt 0.458333 0.700000
vt 0.458333 0.750000
vt 0.500000 0.700000
vt 0.541667 0.700000
vt 0.541667 0.750000
vt 0.583333 0.700000
vt 0.583333 0.750000
vt 0.625000 0.700000
vt 0.666667 0.700000
vt 0.666667 0.750000
vt 0.708333 0.700000
vt 0.708333 0.750000
vt 0.750000 0.700000
vn 0.000000 -0.999481 -0.032229
vn 0.382683 -0.923400 -0.029775
vn 0.707107 -0.706739 -0.022789
vn 0.923880 -0.382485 -0.012333
vn 1.000000 -0.000000 -0.000000
vn 0.923880 0.382485 0.012333
vn 0.707107 0.706739 0.022789
vn 0.382683 0.923400 0.029775
vn 0.000000 0.999481 0.032229
vn -0.382683 0.923400 0.029775
vn -0.707107 0.706739 0.022789
vn -0.923880 0.382485 0.012333
vn -1.000000 0.000000 0.000000
vn -0.923880 -0.382485 -0.012333
vn -0.707107 -0.706739 -0.022789
vn -0.382683 -0.923400 -0.029775
vn -0.000000 -0.032229 0.999481
vn 0.000000 0.032229 -0.999481
vn -0.707107 0.000000 0.707107
vn -0.000000 0.000000 1.000000
vn 0.707107 0.000000 0.707107
vn 0.707107 -0.000000 -0.707107
vn 0.000000 -0.000000 -1.000000
vn -0.707107 0.000000 -0.707107
vn -0.000000 1.000000 -0.000000
vn 0.000000 -1.000000 0.000000
vn -0.866025 -0.022241 0.499505
vn -0.500000 -0.038523 0.865168
vn -0.000000 -0.044482 0.999010
vn 0.500000 -0.038523 0.865168
vn 0.866025 -0.022241 0.499505
vn 0.866025 0.022241 -0.499505
vn 0.500000 0.038523 -0.865168
vn 0.000000 0.044482 -0.999010
vn -0.500000 0.038523 -0.865168
vn -0.866025 0.022241 -0.499505
vn -0.000000 0.999010 0.044482
vn 0.000000 -0.999010 -0.044482
usemtl body
f 1/1/1 2/2/1 3/3/2
f 1/1/1 3/3/2 4/4/2
f 4/4/2 3/3/2 5/5/3
f 4/4/2 5/5/3 6/6/3
f 6/6/3 5/5/3 7/7/4
f 6/6/3 7/7/4 8/8/4
f 8/8/4 7/7/4 9/9/5
f 8/8/4 9/9/5 10/10/5
f 10/10/5 9/9/5 11/11/6
f 10/10/5 11/11/6 12/12/6
f 12/12/6 11/11/6 13/13/7
f 12/12/6 13/13/7 14/14/7
f 14/14/7 13/13/7 15/15/8
f 14/14/7 15/15/8 16/16/8
f 16/16/8 15/15/8 17/17/9
f 16/16/8 17/17/9 18/18/9
f 18/18/9 17/17/9 19/19/10
f 18/18/9 19/19/10 20/20/10
f 20/20/10 19/19/10 21/21/11
f 20/20/10 21/21/11 22/22/11
f 22/22/11 21/21/11 23/23/12
f 22/22/11 23/23/12 24/24/12
f 24/24/12 23/23/12 25/25/13
f 24/24/12 25/25/13 26/26/13
f 26/26/13 25/25/13 27/27/14
f 26/26/13 27/27/14 28/28/14
f 28/28/14 27/27/14 29/29/15
f 28/28/14 29/29/15 30/30/15
f 30/30/15 29/29/15 31/31/16
f 30/30/15 31/31/16 32/32/16
f 32/32/16 31/31/16 2/33/1
f 32/32/16 2/33/1 1/34/1
f 33/35/17 1/36/17 4/37/17
f 33/35/17 4/36/17 6/37/17
f 33/35/17 6/36/17 8/37/17
f 33/35/17 8/36/17 10/37/17
f 33/35/17 10/36/17 12/37/17
f 33/35/17 12/36/17 14/37/17
f 33/35/17 14/36/17 16/37/17
f 33/35/17 16/36/17 18/37/17
f 33/35/17 18/36/17 20/37/17
f 33/35/17 20/36/17 22/37/17
f 33/35/17 22/36/17 24/37/17
f 33/35/17 24/36/17 26/37/17
f 33/35/17 26/36/17 28/37/17
f 33/35/17 28/36/17 30/37/17
f 33/35/17 30/36/17 32/37/17
f 33/35/17 32/36/17 1/37/17
f 34/35/18 3/37/18 2/36/18
f 34/35/18 5/37/18 3/36/18
f 34/35/18 7/37/18 5/36/18
f 34/35/18 9/37/18 7/36/18
f 34/35/18 11/37/18 9/36/18
f 34/35/18 13/37/18 11/36/18
f 34/35/18 15/37/18 13/36/18
f 34/35/18 17/37/18 15/36/18
f 34/35/18 19/37/18 17/36/18
f 34/35/18 21/37/18 19/36/18
f 34/35/18 23/37/18 21/36/18
f 34/35/18 25/37/18 23/36/18
f 34/35/18 27/37/18 25/36/18
f 34/35/18 29/37/18 27/36/18
f 34/35/18 31/37/18 29/36/18
f 34/35/18 2/37/18 31/36/18
f 35/1/13 36/38/13 37/39/19
f 35/1/13 37/39/19 38/6/19
f 38/6/19 37/39/19 39/40/20
f 38/6/19 39/40/20 40/10/20
f 40/10/20 39/40/20 41/41/21
f 40/10/20 41/41/21 42/14/21
f 42/14/21 41/41/21 43/42/5
f 42/14/21 43/42/5 44/18/5
f 44/18/5 43/42/5 45/43/22
f 44/18/5 45/43/22 46/22/22
f 46/22/22 45/43/22 47/44/23
f 46/22/22 47/44/23 48/26/23
f 48/26/23 47/44/23 49/45/24
f 48/26/23 49/45/24 50/30/24
f 50/30/24 49/45/24 36/46/13
f 50/30/24 36/46/13 35/34/13
f 51/35/25 35/36/25 38/37/25
f 51/35/25 38/36/25 40/37/25
f 51/35/25 40/36/25 42/37/25
f 51/35/25 42/36/25 44/37/25
f 51/35/25 44/36/25 46/37/25
f 51/35/25 46/36/25 48/37/25
f 51/35/25 48/36/25 50/37/25
f 51/35/25 50/36/25 35/37/25
f 52/35/26 37/37/26 36/36/26
f 52/35/26 39/37/26 37/36/26
f 52/35/26 41/37/26 39/36/26
f 52/35/26 43/37/26 41/36/26
f 52/35/26 45/37/26 43/36/26
f 52/35/26 47/37/26 45/36/26
f 52/35/26 49/37/26 47/36/26
f 52/35/26 36/37/26 49/36/26
f 53/1/13 54/47/13 55/48/27
f 53/1/13 55/48/27 56/49/27
f 56/49/27 55/48/27 57/50/28
f 56/49/27 57/50/28 58/51/28
f 58/51/28 57/50/28 59/52/29
f 58/51/28 59/52/29 60/10/29
f 60/10/29 59/52/29 61/53/30
f 60/10/29 61/53/30 62/54/30
f 62/54/30 61/53/30 63/55/31
f 62/54/30 63/55/31 64/56/31
f 64/56/31 63/55/31 65/57/5
f 64/56/31 65/57/5 66/18/5
f 66/18/5 65/57/5 67/58/32
f 66/18/5 67/58/32 68/59/32
f 68/59/32 67/58/32 69/60/33
f 68/59/32 69/60/33 70/61/33
f 70/61/33 69/60/33 71/62/34
f 70/61/33 71/62/34 72/26/34
f 72/26/34 71/62/34 73/63/35
f 72/26/34 73/63/35 74/64/35
f 74/64/35 73/63/35 75/65/36
f 74/64/35 75/65/36 76/66/36
f 76/66/36 75/65/36 54/67/13
f 76/66/36 54/67/13 53/34/13
f 77/35/37 53/36/37 56/37/37
f 77/35/37 56/36/37 58/37/37
f 77/35/37 58/36/37 60/37/37
f 77/35/37 60/36/37 62/37/37
f 77/35/37 62/36/37 64/37/37
f 77/35/37 64/36/37 66/37/37
f 77/35/37 66/36/37 68/37/37
f 77/35/37 68/36/37 70/37/37
f 77/35/37 70/36/37 72/37/37
f 77/35/37 72/36/37 74/37/37
f 77/35/37 74/36/37 76/37/37
f 77/35/37 76/36/37 53/37/37
f 51/35/38 55/37/38 54/36/38
f 51/35/38 57/37/38 55/36/38
f 51/35/38 59/37/38 57/36/38
f 51/35/38 61/37/38 59/36/38
f 51/35/38 63/37/38 61/36/38
f 51/35/38 65/37/38 63/36/38
f 51/35/38 67/37/38 65/36/38
f 51/35/38 69/37/38 67/36/38
f 51/35/38 71/37/38 69/36/38
f 51/35/38 73/37/38 71/36/38
f 51/35/38 75/37/38 73/36/38
f 51/35/38 54/37/38 75/36/38
