# Procedurally generated by dev-env-utils/scripts/gen_mast_arm_curves.py
# mount hardware on cell 4, model-space west
mtllib mastarmcurve.mtl
o mastarm_6x2_c4_west
v 0.500000 0.678254 0.902070
v 0.500000 0.736059 0.723703
v 0.628823 0.760435 0.731603
v 0.628823 0.702631 0.909970
v 0.738035 0.829853 0.754099
v 0.738035 0.772049 0.932467
v 0.811007 0.933745 0.787768
v 0.811007 0.875941 0.966135
v 0.836632 1.056294 0.827483
v 0.836632 0.998490 1.005850
v 0.811007 1.178843 0.867198
v 0.811007 1.121039 1.045565
v 0.738035 1.282735 0.900867
v 0.738035 1.224931 1.079234
v 0.628823 1.352153 0.923363
v 0.628823 1.294349 1.101731
v 0.500000 1.376530 0.931263
v 0.500000 1.318725 1.109630
v 0.371177 1.352153 0.923363
v 0.371177 1.294349 1.101731
v 0.261965 1.282735 0.900867
v 0.261965 1.224931 1.079234
v 0.188993 1.178843 0.867198
v 0.188993 1.121039 1.045565
v 0.163368 1.056294 0.827483
v 0.163368 0.998490 1.005850
v 0.188993 0.933745 0.787768
v 0.188993 0.875941 0.966135
v 0.261965 0.829853 0.754099
v 0.261965 0.772049 0.932467
v 0.371177 0.760435 0.731603
v 0.371177 0.702631 0.909970
v 0.500000 0.998490 1.005850
v 0.500000 1.056294 0.827483
v 0.075000 0.700000 0.500000
v 0.000625 0.700000 0.500000
v 0.000625 0.641421 0.641421
v 0.075000 0.641421 0.641421
v 0.000625 0.500000 0.700000
v 0.075000 0.500000 0.700000
v 0.000625 0.358579 0.641421
v 0.075000 0.358579 0.641421
v 0.000625 0.300000 0.500000
v 0.075000 0.300000 0.500000
v 0.000625 0.358579 0.358579
v 0.075000 0.358579 0.358579
v 0.000625 0.500000 0.300000
v 0.075000 0.500000 0.300000
v 0.000625 0.641421 0.358579
v 0.075000 0.641421 0.358579
v 0.075000 0.500000 0.500000
v 0.000625 0.500000 0.500000
v 0.274947 0.934368 0.795860
v -0.005085 0.559886 0.500000
v -0.010366 0.530453 0.542253
v 0.269666 0.904935 0.838113
v 0.007227 0.492860 0.573184
v 0.287259 0.867342 0.869044
v 0.042980 0.457180 0.584506
v 0.323012 0.831662 0.880365
v 0.087312 0.432974 0.573184
v 0.367344 0.807456 0.869044
v 0.128346 0.426727 0.542253
v 0.408377 0.801209 0.838113
v 0.155085 0.440114 0.500000
v 0.435117 0.814595 0.795860
v 0.160366 0.469547 0.457747
v 0.440397 0.844028 0.753607
v 0.142773 0.507140 0.426816
v 0.422804 0.881622 0.722676
v 0.107020 0.542820 0.415494
v 0.387052 0.917301 0.711354
v 0.062688 0.567026 0.426816
v 0.342719 0.941508 0.722676
v 0.021654 0.573273 0.457747
v 0.301686 0.947755 0.753607
v 0.355032 0.874482 0.795860
vt 0.250000 0.750000
vt 0.250000 0.581684
vt 0.281250 0.581684
vt 0.281250 0.750000
vt 0.312500 0.581684
vt 0.312500 0.750000
vt 0.343750 0.581684
vt 0.343750 0.750000
vt 0.375000 0.581684
vt 0.375000 0.750000
vt 0.406250 0.581684
vt 0.406250 0.750000
vt 0.437500 0.581684
vt 0.437500 0.750000
vt 0.468750 0.581684
vt 0.468750 0.750000
vt 0.500000 0.581684
vt 0.500000 0.750000
vt 0.531250 0.581684
vt 0.531250 0.750000
vt 0.562500 0.581684
vt 0.562500 0.750000
vt 0.593750 0.581684
vt 0.593750 0.750000
vt 0.625000 0.581684
vt 0.625000 0.750000
vt 0.656250 0.581684
vt 0.656250 0.750000
vt 0.687500 0.581684
vt 0.687500 0.750000
vt 0.718750 0.581684
vt 0.718750 0.750000
vt 0.750000 0.581684
vt 0.750000 0.750000
vt 0.500000 0.500000
vt 0.400000 0.600000
vt 0.600000 0.400000
vt 0.250000 0.650000
vt 0.312500 0.650000
vt 0.375000 0.650000
vt 0.437500 0.650000
vt 0.500000 0.650000
vt 0.562500 0.650000
vt 0.625000 0.650000
vt 0.687500 0.650000
vt 0.750000 0.650000
vt 0.250000 0.700000
vt 0.291667 0.700000
vt 0.291667 0.750000
vt 0.333333 0.700000
vt 0.333333 0.750000
vt 0.375000 0.700000
vt 0.416667 0.700000
vt 0.416667 0.750000
vt 0.458333 0.700000
vt 0.458333 0.750000
vt 0.500000 0.700000
vt 0.541667 0.700000
vt 0.541667 0.750000
vt 0.583333 0.700000
vt 0.583333 0.750000
vt 0.625000 0.700000
vt 0.666667 0.700000
vt 0.666667 0.750000
vt 0.708333 0.700000
vt 0.708333 0.750000
vt 0.750000 0.700000
vn 0.000000 -0.951293 -0.308289
vn 0.382683 -0.878880 -0.284822
vn 0.707107 -0.672665 -0.217993
vn 0.923880 -0.364044 -0.117977
vn 1.000000 -0.000000 -0.000000
vn 0.923880 0.364044 0.117977
vn 0.707107 0.672665 0.217993
vn 0.382683 0.878880 0.284822
vn 0.000000 0.951293 0.308289
vn -0.382683 0.878880 0.284822
vn -0.707107 0.672665 0.217993
vn -0.923880 0.364044 0.117977
vn -1.000000 0.000000 0.000000
vn -0.923880 -0.364044 -0.117977
vn -0.707107 -0.672665 -0.217993
vn -0.382683 -0.878880 -0.284822
vn -0.000000 -0.308289 0.951293
vn 0.000000 0.308289 -0.951293
vn 0.000000 1.000000 0.000000
vn 0.000000 0.707107 0.707107
vn 0.000000 0.000000 1.000000
vn 0.000000 -0.707107 0.707107
vn 0.000000 -1.000000 0.000000
vn -0.000000 -0.707107 -0.707107
vn -0.000000 -0.000000 -1.000000
vn 0.000000 0.707107 -0.707107
vn -0.800851 0.598864 0.000000
vn -0.853657 0.304533 0.422528
vn -0.677726 -0.071398 0.731840
vn -0.320199 -0.428197 0.845056
vn 0.123125 -0.670262 0.731840
vn 0.533457 -0.732730 0.422528
vn 0.800851 -0.598864 0.000000
vn 0.853657 -0.304533 -0.422528
vn 0.677726 0.071398 -0.731840
vn 0.320199 0.428197 -0.845056
vn -0.123125 0.670262 -0.731840
vn -0.533457 0.732730 -0.422528
vn 0.506074 0.676764 0.534678
vn -0.506074 -0.676764 -0.534678
usemtl body
f 1/1/1 2/2/1 3/3/2
f 1/1/1 3/3/2 4/4/2
f 4/4/2 3/3/2 5/5/3
f 4/4/2 5/5/3 6/6/3
f 6/6/3 5/5/3 7/7/4
f 6/6/3 7/7/4 8/8/4
f 8/8/4 7/7/4 9/9/5
f 8/8/4 9/9/5 10/10/5
f 10/10/5 9/9/5 11/11/6
f 10/10/5 11/11/6 12/12/6
f 12/12/6 11/11/6 13/13/7
f 12/12/6 13/13/7 14/14/7
f 14/14/7 13/13/7 15/15/8
f 14/14/7 15/15/8 16/16/8
f 16/16/8 15/15/8 17/17/9
f 16/16/8 17/17/9 18/18/9
f 18/18/9 17/17/9 19/19/10
f 18/18/9 19/19/10 20/20/10
f 20/20/10 19/19/10 21/21/11
f 20/20/10 21/21/11 22/22/11
f 22/22/11 21/21/11 23/23/12
f 22/22/11 23/23/12 24/24/12
f 24/24/12 23/23/12 25/25/13
f 24/24/12 25/25/13 26/26/13
f 26/26/13 25/25/13 27/27/14
f 26/26/13 27/27/14 28/28/14
f 28/28/14 27/27/14 29/29/15
f 28/28/14 29/29/15 30/30/15
f 30/30/15 29/29/15 31/31/16
f 30/30/15 31/31/16 32/32/16
f 32/32/16 31/31/16 2/33/1
f 32/32/16 2/33/1 1/34/1
f 33/35/17 1/36/17 4/37/17
f 33/35/17 4/36/17 6/37/17
f 33/35/17 6/36/17 8/37/17
f 33/35/17 8/36/17 10/37/17
f 33/35/17 10/36/17 12/37/17
f 33/35/17 12/36/17 14/37/17
f 33/35/17 14/36/17 16/37/17
f 33/35/17 16/36/17 18/37/17
f 33/35/17 18/36/17 20/37/17
f 33/35/17 20/36/17 22/37/17
f 33/35/17 22/36/17 24/37/17
f 33/35/17 24/36/17 26/37/17
f 33/35/17 26/36/17 28/37/17
f 33/35/17 28/36/17 30/37/17
f 33/35/17 30/36/17 32/37/17
f 33/35/17 32/36/17 1/37/17
f 34/35/18 3/37/18 2/36/18
f 34/35/18 5/37/18 3/36/18
f 34/35/18 7/37/18 5/36/18
f 34/35/18 9/37/18 7/36/18
f 34/35/18 11/37/18 9/36/18
f 34/35/18 13/37/18 11/36/18
f 34/35/18 15/37/18 13/36/18
f 34/35/18 17/37/18 15/36/18
f 34/35/18 19/37/18 17/36/18
f 34/35/18 21/37/18 19/36/18
f 34/35/18 23/37/18 21/36/18
f 34/35/18 25/37/18 23/36/18
f 34/35/18 27/37/18 25/36/18
f 34/35/18 29/37/18 27/36/18
f 34/35/18 31/37/18 29/36/18
f 34/35/18 2/37/18 31/36/18
f 35/1/19 36/38/19 37/39/20
f 35/1/19 37/39/20 38/6/20
f 38/6/20 37/39/20 39/40/21
f 38/6/20 39/40/21 40/10/21
f 40/10/21 39/40/21 41/41/22
f 40/10/21 41/41/22 42/14/22
f 42/14/22 41/41/22 43/42/23
f 42/14/22 43/42/23 44/18/23
f 44/18/23 43/42/23 45/43/24
f 44/18/23 45/43/24 46/22/24
f 46/22/24 45/43/24 47/44/25
f 46/22/24 47/44/25 48/26/25
f 48/26/25 47/44/25 49/45/26
f 48/26/25 49/45/26 50/30/26
f 50/30/26 49/45/26 36/46/19
f 50/30/26 36/46/19 35/34/19
f 51/35/5 35/36/5 38/37/5
f 51/35/5 38/36/5 40/37/5
f 51/35/5 40/36/5 42/37/5
f 51/35/5 42/36/5 44/37/5
f 51/35/5 44/36/5 46/37/5
f 51/35/5 46/36/5 48/37/5
f 51/35/5 48/36/5 50/37/5
f 51/35/5 50/36/5 35/37/5
f 52/35/13 37/37/13 36/36/13
f 52/35/13 39/37/13 37/36/13
f 52/35/13 41/37/13 39/36/13
f 52/35/13 43/37/13 41/36/13
f 52/35/13 45/37/13 43/36/13
f 52/35/13 47/37/13 45/36/13
f 52/35/13 49/37/13 47/36/13
f 52/35/13 36/37/13 49/36/13
f 53/1/27 54/47/27 55/48/28
f 53/1/27 55/48/28 56/49/28
f 56/49/28 55/48/28 57/50/29
f 56/49/28 57/50/29 58/51/29
f 58/51/29 57/50/29 59/52/30
f 58/51/29 59/52/30 60/10/30
f 60/10/30 59/52/30 61/53/31
f 60/10/30 61/53/31 62/54/31
f 62/54/31 61/53/31 63/55/32
f 62/54/31 63/55/32 64/56/32
f 64/56/32 63/55/32 65/57/33
f 64/56/32 65/57/33 66/18/33
f 66/18/33 65/57/33 67/58/34
f 66/18/33 67/58/34 68/59/34
f 68/59/34 67/58/34 69/60/35
f 68/59/34 69/60/35 70/61/35
f 70/61/35 69/60/35 71/62/36
f 70/61/35 71/62/36 72/26/36
f 72/26/36 71/62/36 73/63/37
f 72/26/36 73/63/37 74/64/37
f 74/64/37 73/63/37 75/65/38
f 74/64/37 75/65/38 76/66/38
f 76/66/38 75/65/38 54/67/27
f 76/66/38 54/67/27 53/34/27
f 77/35/39 53/36/39 56/37/39
f 77/35/39 56/36/39 58/37/39
f 77/35/39 58/36/39 60/37/39
f 77/35/39 60/36/39 62/37/39
f 77/35/39 62/36/39 64/37/39
f 77/35/39 64/36/39 66/37/39
f 77/35/39 66/36/39 68/37/39
f 77/35/39 68/36/39 70/37/39
f 77/35/39 70/36/39 72/37/39
f 77/35/39 72/36/39 74/37/39
f 77/35/39 74/36/39 76/37/39
f 77/35/39 76/36/39 53/37/39
f 51/35/40 55/37/40 54/36/40
f 51/35/40 57/37/40 55/36/40
f 51/35/40 59/37/40 57/36/40
f 51/35/40 61/37/40 59/36/40
f 51/35/40 63/37/40 61/36/40
f 51/35/40 65/37/40 63/36/40
f 51/35/40 67/37/40 65/36/40
f 51/35/40 69/37/40 67/36/40
f 51/35/40 71/37/40 69/36/40
f 51/35/40 73/37/40 71/36/40
f 51/35/40 75/37/40 73/36/40
f 51/35/40 54/37/40 75/36/40
