# Procedurally generated by dev-env-utils/scripts/gen_mast_arm_curves.py
# cell 0 of 8 at (+0 along arm, +0 up)
mtllib mastarmcurve.mtl
o mastarm_6x2_c0
v 0.887500 0.500000 1.156250
v 0.887500 0.500000 1.025000
v 0.858003 0.672429 1.025000
v 0.858003 0.672429 1.156250
v 0.774004 0.818607 1.025000
v 0.774004 0.818607 1.156250
v 0.648290 0.916280 1.025000
v 0.648290 0.916280 1.156250
v 0.500000 0.950578 1.025000
v 0.500000 0.950578 1.156250
v 0.351710 0.916280 1.025000
v 0.351710 0.916280 1.156250
v 0.225996 0.818607 1.025000
v 0.225996 0.818607 1.156250
v 0.141997 0.672429 1.025000
v 0.141997 0.672429 1.156250
v 0.112500 0.500000 1.025000
v 0.112500 0.500000 1.156250
v 0.141997 0.327571 1.025000
v 0.141997 0.327571 1.156250
v 0.225996 0.181393 1.025000
v 0.225996 0.181393 1.156250
v 0.351710 0.083720 1.025000
v 0.351710 0.083720 1.156250
v 0.500000 0.049422 1.025000
v 0.500000 0.049422 1.156250
v 0.648290 0.083720 1.025000
v 0.648290 0.083720 1.156250
v 0.774004 0.181393 1.025000
v 0.774004 0.181393 1.156250
v 0.858003 0.327571 1.025000
v 0.858003 0.327571 1.156250
v 0.500000 0.500000 1.156250
v 0.500000 0.500000 1.025000
v 0.814128 0.394477 1.156250
v 0.811632 0.555170 0.916667
v 0.787910 0.654821 0.982178
v 0.789569 0.539544 1.156250
v 0.720357 0.739301 1.037716
v 0.721214 0.661638 1.156250
v 0.619256 0.795749 1.074825
v 0.619573 0.742778 1.156250
v 0.500000 0.815571 1.087856
v 0.500000 0.771187 1.156250
v 0.380744 0.795749 1.074825
v 0.380427 0.742778 1.156250
v 0.279643 0.739301 1.037716
v 0.278786 0.661638 1.156250
v 0.212090 0.654821 0.982178
v 0.210431 0.539544 1.156250
v 0.188368 0.555170 0.916667
v 0.185872 0.394477 1.156250
v 0.212090 0.455519 0.851155
v 0.209124 0.248243 1.156250
v 0.279643 0.371039 0.795617
v 0.276938 0.123329 1.156250
v 0.380744 0.314591 0.758508
v 0.379120 0.039369 1.156250
v 0.500000 0.294769 0.745477
v 0.500000 0.009790 1.156250
v 0.619256 0.314591 0.758508
v 0.620880 0.039369 1.156250
v 0.720357 0.371039 0.795617
v 0.723062 0.123329 1.156250
v 0.787910 0.455519 0.851155
v 0.790876 0.248243 1.156250
v 0.810764 0.609568 0.833333
v 0.787108 0.709363 0.898016
v 0.719743 0.793966 0.952851
v 0.618924 0.850496 0.989490
v 0.500000 0.870346 1.002356
v 0.381076 0.850496 0.989490
v 0.280257 0.793966 0.952851
v 0.212892 0.709363 0.898016
v 0.189236 0.609568 0.833333
v 0.212892 0.509772 0.768651
v 0.280257 0.425170 0.713816
v 0.381076 0.368640 0.677176
v 0.500000 0.348789 0.664310
v 0.618924 0.368640 0.677176
v 0.719743 0.425170 0.713816
v 0.787108 0.509772 0.768651
v 0.809896 0.663194 0.750000
v 0.786306 0.763131 0.813849
v 0.719129 0.847854 0.867977
v 0.618592 0.904464 0.904144
v 0.500000 0.924343 0.916845
v 0.381408 0.904464 0.904144
v 0.280871 0.847854 0.867977
v 0.213694 0.763131 0.813849
v 0.190104 0.663194 0.750000
v 0.213694 0.563257 0.686151
v 0.280871 0.478535 0.632023
v 0.381408 0.421925 0.595856
v 0.500000 0.402046 0.583155
v 0.618592 0.421925 0.595856
v 0.719129 0.478535 0.632023
v 0.786306 0.563257 0.686151
v 0.809028 0.716049 0.666667
v 0.785504 0.816125 0.729677
v 0.718516 0.900964 0.783095
v 0.618260 0.957653 0.818787
v 0.500000 0.977559 0.831321
v 0.381740 0.957653 0.818787
v 0.281484 0.900964 0.783095
v 0.214496 0.816125 0.729677
v 0.190972 0.716049 0.666667
v 0.214496 0.615974 0.603656
v 0.281484 0.531134 0.550239
v 0.381740 0.474446 0.514546
v 0.500000 0.454540 0.502013
v 0.618260 0.474446 0.514546
v 0.718516 0.531134 0.550239
v 0.785504 0.615974 0.603656
v 0.808160 0.768133 0.583333
v 0.784702 0.868343 0.645501
v 0.717902 0.953297 0.698204
v 0.617928 1.010062 0.733419
v 0.500000 1.029995 0.745785
v 0.382072 1.010062 0.733419
v 0.282098 0.953297 0.698204
v 0.215298 0.868343 0.645501
v 0.191840 0.768133 0.583333
v 0.215298 0.667922 0.521166
v 0.282098 0.582968 0.468463
v 0.382072 0.526203 0.433248
v 0.500000 0.506270 0.420882
v 0.617928 0.526203 0.433248
v 0.717902 0.582968 0.468463
v 0.784702 0.667922 0.521166
v 0.807292 0.819444 0.500000
v 0.783900 0.919786 0.561320
v 0.717288 1.004852 0.613305
v 0.617595 1.061692 0.648040
v 0.500000 1.081651 0.660237
v 0.382405 1.061692 0.648040
v 0.282712 1.004852 0.613305
v 0.216100 0.919786 0.561320
v 0.192708 0.819444 0.500000
v 0.216100 0.719102 0.438680
v 0.282712 0.634037 0.386695
v 0.382405 0.577197 0.351960
v 0.500000 0.557238 0.339763
v 0.617595 0.577197 0.351960
v 0.717288 0.634037 0.386695
v 0.783900 0.719102 0.438680
v 0.806424 0.869985 0.416667
v 0.783099 0.970455 0.477135
v 0.716674 1.055629 0.528397
v 0.617263 1.112541 0.562650
v 0.500000 1.132526 0.574678
v 0.382737 1.112541 0.562650
v 0.283326 1.055629 0.528397
v 0.216901 0.970455 0.477135
v 0.193576 0.869985 0.416667
v 0.216901 0.769514 0.356198
v 0.283326 0.684340 0.304936
v 0.382737 0.627428 0.270684
v 0.500000 0.607443 0.258656
v 0.617263 0.627428 0.270684
v 0.716674 0.684340 0.304936
v 0.783099 0.769514 0.356198
v 0.805556 0.919753 0.333333
v 0.782297 1.020348 0.392945
v 0.716060 1.105628 0.443481
v 0.616931 1.162610 0.477249
v 0.500000 1.182620 0.489106
v 0.383069 1.162610 0.477249
v 0.283940 1.105628 0.443481
v 0.217703 1.020348 0.392945
v 0.194444 0.919753 0.333333
v 0.217703 0.819158 0.273722
v 0.283940 0.733878 0.223185
v 0.383069 0.676896 0.189418
v 0.500000 0.656886 0.177560
v 0.616931 0.676896 0.189418
v 0.716060 0.733878 0.223185
v 0.782297 0.819158 0.273722
v 0.804688 0.968750 0.250000
v 0.781495 1.069466 0.308751
v 0.715447 1.154848 0.358557
v 0.616599 1.211899 0.391837
v 0.500000 1.231933 0.403523
v 0.383401 1.211899 0.391837
v 0.284553 1.154848 0.358557
v 0.218505 1.069466 0.308751
v 0.195312 0.968750 0.250000
v 0.218505 0.868034 0.191249
v 0.284553 0.782652 0.141443
v 0.383401 0.725601 0.108163
v 0.500000 0.705567 0.096477
v 0.616599 0.725601 0.108163
v 0.715447 0.782652 0.141443
v 0.781495 0.868034 0.191249
v 0.804127 1.000000 0.196152
v 0.780976 1.100792 0.254345
v 0.715050 1.186239 0.303677
v 0.616384 1.243333 0.336641
v 0.500000 1.263381 0.348216
v 0.383616 1.243333 0.336641
v 0.284950 1.186239 0.303677
v 0.219024 1.100792 0.254345
v 0.195873 1.000000 0.196152
v 0.219024 0.899208 0.137960
v 0.284950 0.813761 0.088627
v 0.383616 0.756667 0.055664
v 0.500000 0.736619 0.044089
v 0.616384 0.756667 0.055664
v 0.715050 0.813761 0.088627
v 0.780976 0.899208 0.137960
vt 0.250000 0.750000
vt 0.250000 0.684375
vt 0.281250 0.684375
vt 0.281250 0.750000
vt 0.312500 0.684375
vt 0.312500 0.750000
vt 0.343750 0.684375
vt 0.343750 0.750000
vt 0.375000 0.684375
vt 0.375000 0.750000
vt 0.406250 0.684375
vt 0.406250 0.750000
vt 0.437500 0.684375
vt 0.437500 0.750000
vt 0.468750 0.684375
vt 0.468750 0.750000
vt 0.500000 0.684375
vt 0.500000 0.750000
vt 0.531250 0.684375
vt 0.531250 0.750000
vt 0.562500 0.684375
vt 0.562500 0.750000
vt 0.593750 0.684375
vt 0.593750 0.750000
vt 0.625000 0.684375
vt 0.625000 0.750000
vt 0.656250 0.684375
vt 0.656250 0.750000
vt 0.687500 0.684375
vt 0.687500 0.750000
vt 0.718750 0.684375
vt 0.718750 0.750000
vt 0.750000 0.684375
vt 0.750000 0.750000
vt 0.500000 0.500000
vt 0.700000 0.500000
vt 0.684776 0.423463
vt 0.641421 0.358579
vt 0.576537 0.315224
vt 0.500000 0.300000
vt 0.423463 0.315224
vt 0.358579 0.358579
vt 0.315224 0.423463
vt 0.300000 0.500000
vt 0.315224 0.576537
vt 0.358579 0.641421
vt 0.423463 0.684776
vt 0.500000 0.700000
vt 0.576537 0.684776
vt 0.641421 0.641421
vt 0.684776 0.576537
vt 0.250000 0.710039
vt 0.281250 0.710039
vt 0.312500 0.710039
vt 0.343750 0.710039
vt 0.375000 0.710039
vt 0.406250 0.710039
vt 0.437500 0.710039
vt 0.468750 0.710039
vt 0.500000 0.710039
vt 0.531250 0.710039
vt 0.562500 0.710039
vt 0.593750 0.710039
vt 0.625000 0.710039
vt 0.656250 0.710039
vt 0.687500 0.710039
vt 0.718750 0.710039
vt 0.750000 0.710039
vt 0.250000 0.660281
vt 0.281250 0.660281
vt 0.312500 0.660281
vt 0.343750 0.660281
vt 0.375000 0.660281
vt 0.406250 0.660281
vt 0.437500 0.660281
vt 0.468750 0.660281
vt 0.500000 0.660281
vt 0.531250 0.660281
vt 0.562500 0.660281
vt 0.593750 0.660281
vt 0.625000 0.660281
vt 0.656250 0.660281
vt 0.687500 0.660281
vt 0.718750 0.660281
vt 0.750000 0.660281
vt 0.250000 0.610732
vt 0.281250 0.610732
vt 0.312500 0.610732
vt 0.343750 0.610732
vt 0.375000 0.610732
vt 0.406250 0.610732
vt 0.437500 0.610732
vt 0.468750 0.610732
vt 0.500000 0.610732
vt 0.531250 0.610732
vt 0.562500 0.610732
vt 0.593750 0.610732
vt 0.625000 0.610732
vt 0.656250 0.610732
vt 0.687500 0.610732
vt 0.718750 0.610732
vt 0.750000 0.610732
vt 0.250000 0.561391
vt 0.281250 0.561391
vt 0.312500 0.561391
vt 0.343750 0.561391
vt 0.375000 0.561391
vt 0.406250 0.561391
vt 0.437500 0.561391
vt 0.468750 0.561391
vt 0.500000 0.561391
vt 0.531250 0.561391
vt 0.562500 0.561391
vt 0.593750 0.561391
vt 0.625000 0.561391
vt 0.656250 0.561391
vt 0.687500 0.561391
vt 0.718750 0.561391
vt 0.750000 0.561391
vt 0.250000 0.512256
vt 0.281250 0.512256
vt 0.312500 0.512256
vt 0.343750 0.512256
vt 0.375000 0.512256
vt 0.406250 0.512256
vt 0.437500 0.512256
vt 0.468750 0.512256
vt 0.500000 0.512256
vt 0.531250 0.512256
vt 0.562500 0.512256
vt 0.593750 0.512256
vt 0.625000 0.512256
vt 0.656250 0.512256
vt 0.687500 0.512256
vt 0.718750 0.512256
vt 0.750000 0.512256
vt 0.250000 0.463324
vt 0.281250 0.463324
vt 0.312500 0.463324
vt 0.343750 0.463324
vt 0.375000 0.463324
vt 0.406250 0.463324
vt 0.437500 0.463324
vt 0.468750 0.463324
vt 0.500000 0.463324
vt 0.531250 0.463324
vt 0.562500 0.463324
vt 0.593750 0.463324
vt 0.625000 0.463324
vt 0.656250 0.463324
vt 0.687500 0.463324
vt 0.718750 0.463324
vt 0.750000 0.463324
vt 0.250000 0.414593
vt 0.281250 0.414593
vt 0.312500 0.414593
vt 0.343750 0.414593
vt 0.375000 0.414593
vt 0.406250 0.414593
vt 0.437500 0.414593
vt 0.468750 0.414593
vt 0.500000 0.414593
vt 0.531250 0.414593
vt 0.562500 0.414593
vt 0.593750 0.414593
vt 0.625000 0.414593
vt 0.656250 0.414593
vt 0.687500 0.414593
vt 0.718750 0.414593
vt 0.750000 0.414593
vt 0.250000 0.366061
vt 0.281250 0.366061
vt 0.312500 0.366061
vt 0.343750 0.366061
vt 0.375000 0.366061
vt 0.406250 0.366061
vt 0.437500 0.366061
vt 0.468750 0.366061
vt 0.500000 0.366061
vt 0.531250 0.366061
vt 0.562500 0.366061
vt 0.593750 0.366061
vt 0.625000 0.366061
vt 0.656250 0.366061
vt 0.687500 0.366061
vt 0.718750 0.366061
vt 0.750000 0.366061
vt 0.250000 0.317726
vt 0.281250 0.317726
vt 0.312500 0.317726
vt 0.343750 0.317726
vt 0.375000 0.317726
vt 0.406250 0.317726
vt 0.437500 0.317726
vt 0.468750 0.317726
vt 0.500000 0.317726
vt 0.531250 0.317726
vt 0.562500 0.317726
vt 0.593750 0.317726
vt 0.625000 0.317726
vt 0.656250 0.317726
vt 0.687500 0.317726
vt 0.718750 0.317726
vt 0.750000 0.317726
vt 0.250000 0.286597
vt 0.281250 0.286597
vt 0.312500 0.286597
vt 0.343750 0.286597
vt 0.375000 0.286597
vt 0.406250 0.286597
vt 0.437500 0.286597
vt 0.468750 0.286597
vt 0.500000 0.286597
vt 0.531250 0.286597
vt 0.562500 0.286597
vt 0.593750 0.286597
vt 0.625000 0.286597
vt 0.656250 0.286597
vt 0.687500 0.286597
vt 0.718750 0.286597
vt 0.750000 0.286597
vn 1.000000 0.000000 0.000000
vn 0.942015 0.335570 0.000000
vn 0.758183 0.652042 0.000000
vn 0.433932 0.900946 0.000000
vn 0.000000 1.000000 0.000000
vn -0.433932 0.900946 0.000000
vn -0.758183 0.652042 0.000000
vn -0.942015 0.335570 0.000000
vn -1.000000 0.000000 0.000000
vn -0.942015 -0.335570 0.000000
vn -0.758183 -0.652042 0.000000
vn -0.433932 -0.900946 0.000000
vn -0.000000 -1.000000 0.000000
vn 0.433932 -0.900946 0.000000
vn 0.758183 -0.652042 0.000000
vn 0.942015 -0.335570 0.000000
vn 0.000000 0.000000 1.000000
vn 0.000000 0.000000 -1.000000
vn 0.923880 0.319772 0.210220
vn 0.923880 0.316957 0.214441
vn 0.707107 0.590861 0.388437
vn 0.707107 0.587350 0.393725
vn 0.382683 0.771997 0.507517
vn 0.382683 0.768864 0.512251
vn 0.000000 0.835604 0.549332
vn 0.000000 0.832761 0.553632
vn -0.382683 0.771997 0.507517
vn -0.382683 0.768864 0.512251
vn -0.707107 0.590861 0.388437
vn -0.707107 0.587350 0.393725
vn -0.923880 0.319772 0.210220
vn -0.923880 0.316957 0.214441
vn -0.923880 -0.319772 -0.210220
vn -0.923880 -0.314737 -0.217686
vn -0.707107 -0.590861 -0.388437
vn -0.707107 -0.579770 -0.404805
vn -0.382683 -0.771997 -0.507517
vn -0.382683 -0.755922 -0.531164
vn -0.000000 -0.835604 -0.549332
vn -0.000000 -0.817598 -0.575790
vn 0.382683 -0.771997 -0.507517
vn 0.382683 -0.755922 -0.531164
vn 0.707107 -0.590861 -0.388437
vn 0.707107 -0.579770 -0.404805
vn 0.923880 -0.319772 -0.210220
vn 0.923880 -0.314737 -0.217686
vn 0.923880 0.321130 0.208140
vn 0.707107 0.593371 0.384592
vn 0.382683 0.775276 0.502494
vn 0.000000 0.839153 0.543895
vn -0.382683 0.775276 0.502494
vn -0.707107 0.593371 0.384592
vn -0.923880 0.321130 0.208140
vn -0.923880 -0.321130 -0.208140
vn -0.707107 -0.593371 -0.384592
vn -0.382683 -0.775276 -0.502494
vn -0.000000 -0.839153 -0.543895
vn 0.382683 -0.775276 -0.502494
vn 0.707107 -0.593371 -0.384592
vn 0.923880 -0.321130 -0.208140
vn 0.923880 0.322486 0.206033
vn 0.707107 0.595876 0.380699
vn 0.382683 0.778550 0.497407
vn 0.000000 0.842696 0.538389
vn -0.382683 0.778550 0.497407
vn -0.707107 0.595876 0.380699
vn -0.923880 0.322486 0.206033
vn -0.923880 -0.322486 -0.206033
vn -0.707107 -0.595876 -0.380699
vn -0.382683 -0.778550 -0.497407
vn -0.000000 -0.842696 -0.538389
vn 0.382683 -0.778550 -0.497407
vn 0.707107 -0.595876 -0.380699
vn 0.923880 -0.322486 -0.206033
vn 0.923880 0.323839 0.203899
vn 0.707107 0.598377 0.376756
vn 0.382683 0.781817 0.492255
vn 0.000000 0.846233 0.532813
vn -0.382683 0.781817 0.492255
vn -0.707107 0.598377 0.376756
vn -0.923880 0.323839 0.203899
vn -0.923880 -0.323839 -0.203899
vn -0.707107 -0.598377 -0.376756
vn -0.382683 -0.781817 -0.492255
vn -0.000000 -0.846233 -0.532813
vn 0.382683 -0.781817 -0.492255
vn 0.707107 -0.598377 -0.376756
vn 0.923880 -0.323839 -0.203899
vn 0.923880 0.325190 0.201738
vn 0.707107 0.600872 0.372763
vn 0.382683 0.785077 0.487039
vn 0.000000 0.849762 0.527167
vn -0.382683 0.785077 0.487039
vn -0.707107 0.600872 0.372763
vn -0.923880 0.325190 0.201738
vn -0.923880 -0.325190 -0.201738
vn -0.707107 -0.600872 -0.372763
vn -0.382683 -0.785077 -0.487039
vn -0.000000 -0.849762 -0.527167
vn 0.382683 -0.785077 -0.487039
vn 0.707107 -0.600872 -0.372763
vn 0.923880 -0.325190 -0.201738
vn 0.923880 0.326537 0.199550
vn 0.707107 0.603361 0.368721
vn 0.382683 0.788330 0.481757
vn 0.000000 0.853282 0.521450
vn -0.382683 0.788330 0.481757
vn -0.707107 0.603361 0.368721
vn -0.923880 0.326537 0.199550
vn -0.923880 -0.326537 -0.199550
vn -0.707107 -0.603361 -0.368721
vn -0.382683 -0.788330 -0.481757
vn -0.000000 -0.853282 -0.521450
vn 0.382683 -0.788330 -0.481757
vn 0.707107 -0.603361 -0.368721
vn 0.923880 -0.326537 -0.199550
vn 0.923880 0.327880 0.197335
vn 0.707107 0.605844 0.364628
vn 0.382683 0.791573 0.476410
vn 0.000000 0.856792 0.515662
vn -0.382683 0.791573 0.476410
vn -0.707107 0.605844 0.364628
vn -0.923880 0.327880 0.197335
vn -0.923880 -0.327880 -0.197335
vn -0.707107 -0.605844 -0.364628
vn -0.382683 -0.791573 -0.476410
vn -0.000000 -0.856792 -0.515662
vn 0.382683 -0.791573 -0.476410
vn 0.707107 -0.605844 -0.364628
vn 0.923880 -0.327880 -0.197335
vn 0.923880 0.329219 0.195093
vn 0.707107 0.608318 0.360485
vn 0.382683 0.794806 0.470996
vn 0.000000 0.860292 0.509802
vn -0.382683 0.794806 0.470996
vn -0.707107 0.608318 0.360485
vn -0.923880 0.329219 0.195093
vn -0.923880 -0.329219 -0.195093
vn -0.707107 -0.608318 -0.360485
vn -0.382683 -0.794806 -0.470996
vn -0.000000 -0.860292 -0.509802
vn 0.382683 -0.794806 -0.470996
vn 0.707107 -0.608318 -0.360485
vn 0.923880 -0.329219 -0.195093
vn 0.923880 0.330554 0.192823
vn 0.707107 0.610784 0.356291
vn 0.382683 0.798028 0.465516
vn 0.000000 0.863779 0.503871
vn -0.382683 0.798028 0.465516
vn -0.707107 0.610784 0.356291
vn -0.923880 0.330554 0.192823
vn -0.923880 -0.330554 -0.192823
vn -0.707107 -0.610784 -0.356291
vn -0.382683 -0.798028 -0.465516
vn -0.000000 -0.863779 -0.503871
vn 0.382683 -0.798028 -0.465516
vn 0.707107 -0.610784 -0.356291
vn 0.923880 -0.330554 -0.192823
vn 0.923880 0.331414 0.191342
vn 0.707107 0.612372 0.353553
vn 0.382683 0.800103 0.461940
vn 0.000000 0.866025 0.500000
vn -0.382683 0.800103 0.461940
vn -0.707107 0.612372 0.353553
vn -0.923880 0.331414 0.191342
vn -0.923880 -0.331414 -0.191342
vn -0.707107 -0.612372 -0.353553
vn -0.382683 -0.800103 -0.461940
vn -0.000000 -0.866025 -0.500000
vn 0.382683 -0.800103 -0.461940
vn 0.707107 -0.612372 -0.353553
vn 0.923880 -0.331414 -0.191342
usemtl body
f 1/1/1 2/2/1 3/3/2
f 1/1/1 3/3/2 4/4/2
f 4/4/2 3/3/2 5/5/3
f 4/4/2 5/5/3 6/6/3
f 6/6/3 5/5/3 7/7/4
f 6/6/3 7/7/4 8/8/4
f 8/8/4 7/7/4 9/9/5
f 8/8/4 9/9/5 10/10/5
f 10/10/5 9/9/5 11/11/6
f 10/10/5 11/11/6 12/12/6
f 12/12/6 11/11/6 13/13/7
f 12/12/6 13/13/7 14/14/7
f 14/14/7 13/13/7 15/15/8
f 14/14/7 15/15/8 16/16/8
f 16/16/8 15/15/8 17/17/9
f 16/16/8 17/17/9 18/18/9
f 18/18/9 17/17/9 19/19/10
f 18/18/9 19/19/10 20/20/10
f 20/20/10 19/19/10 21/21/11
f 20/20/10 21/21/11 22/22/11
f 22/22/11 21/21/11 23/23/12
f 22/22/11 23/23/12 24/24/12
f 24/24/12 23/23/12 25/25/13
f 24/24/12 25/25/13 26/26/13
f 26/26/13 25/25/13 27/27/14
f 26/26/13 27/27/14 28/28/14
f 28/28/14 27/27/14 29/29/15
f 28/28/14 29/29/15 30/30/15
f 30/30/15 29/29/15 31/31/16
f 30/30/15 31/31/16 32/32/16
f 32/32/16 31/31/16 2/33/1
f 32/32/16 2/33/1 1/34/1
f 33/35/17 1/36/17 4/37/17
f 33/35/17 4/37/17 6/38/17
f 33/35/17 6/38/17 8/39/17
f 33/35/17 8/39/17 10/40/17
f 33/35/17 10/40/17 12/41/17
f 33/35/17 12/41/17 14/42/17
f 33/35/17 14/42/17 16/43/17
f 33/35/17 16/43/17 18/44/17
f 33/35/17 18/44/17 20/45/17
f 33/35/17 20/45/17 22/46/17
f 33/35/17 22/46/17 24/47/17
f 33/35/17 24/47/17 26/48/17
f 33/35/17 26/48/17 28/49/17
f 33/35/17 28/49/17 30/50/17
f 33/35/17 30/50/17 32/51/17
f 33/35/17 32/51/17 1/36/17
f 34/35/18 3/37/18 2/36/18
f 34/35/18 5/38/18 3/37/18
f 34/35/18 7/39/18 5/38/18
f 34/35/18 9/40/18 7/39/18
f 34/35/18 11/41/18 9/40/18
f 34/35/18 13/42/18 11/41/18
f 34/35/18 15/43/18 13/42/18
f 34/35/18 17/44/18 15/43/18
f 34/35/18 19/45/18 17/44/18
f 34/35/18 21/46/18 19/45/18
f 34/35/18 23/47/18 21/46/18
f 34/35/18 25/48/18 23/47/18
f 34/35/18 27/49/18 25/48/18
f 34/35/18 29/50/18 27/49/18
f 34/35/18 31/51/18 29/50/18
f 34/35/18 2/36/18 31/51/18
f 35/1/1 36/52/1 37/53/19
f 35/1/1 37/53/19 38/4/20
f 38/4/20 37/53/19 39/54/21
f 38/4/20 39/54/21 40/6/22
f 40/6/22 39/54/21 41/55/23
f 40/6/22 41/55/23 42/8/24
f 42/8/24 41/55/23 43/56/25
f 42/8/24 43/56/25 44/10/26
f 44/10/26 43/56/25 45/57/27
f 44/10/26 45/57/27 46/12/28
f 46/12/28 45/57/27 47/58/29
f 46/12/28 47/58/29 48/14/30
f 48/14/30 47/58/29 49/59/31
f 48/14/30 49/59/31 50/16/32
f 50/16/32 49/59/31 51/60/9
f 50/16/32 51/60/9 52/18/9
f 52/18/9 51/60/9 53/61/33
f 52/18/9 53/61/33 54/20/34
f 54/20/34 53/61/33 55/62/35
f 54/20/34 55/62/35 56/22/36
f 56/22/36 55/62/35 57/63/37
f 56/22/36 57/63/37 58/24/38
f 58/24/38 57/63/37 59/64/39
f 58/24/38 59/64/39 60/26/40
f 60/26/40 59/64/39 61/65/41
f 60/26/40 61/65/41 62/28/42
f 62/28/42 61/65/41 63/66/43
f 62/28/42 63/66/43 64/30/44
f 64/30/44 63/66/43 65/67/45
f 64/30/44 65/67/45 66/32/46
f 66/32/46 65/67/45 36/68/1
f 66/32/46 36/68/1 35/34/1
f 36/52/1 67/69/1 68/70/47
f 36/52/1 68/70/47 37/53/19
f 37/53/19 68/70/47 69/71/48
f 37/53/19 69/71/48 39/54/21
f 39/54/21 69/71/48 70/72/49
f 39/54/21 70/72/49 41/55/23
f 41/55/23 70/72/49 71/73/50
f 41/55/23 71/73/50 43/56/25
f 43/56/25 71/73/50 72/74/51
f 43/56/25 72/74/51 45/57/27
f 45/57/27 72/74/51 73/75/52
f 45/57/27 73/75/52 47/58/29
f 47/58/29 73/75/52 74/76/53
f 47/58/29 74/76/53 49/59/31
f 49/59/31 74/76/53 75/77/9
f 49/59/31 75/77/9 51/60/9
f 51/60/9 75/77/9 76/78/54
f 51/60/9 76/78/54 53/61/33
f 53/61/33 76/78/54 77/79/55
f 53/61/33 77/79/55 55/62/35
f 55/62/35 77/79/55 78/80/56
f 55/62/35 78/80/56 57/63/37
f 57/63/37 78/80/56 79/81/57
f 57/63/37 79/81/57 59/64/39
f 59/64/39 79/81/57 80/82/58
f 59/64/39 80/82/58 61/65/41
f 61/65/41 80/82/58 81/83/59
f 61/65/41 81/83/59 63/66/43
f 63/66/43 81/83/59 82/84/60
f 63/66/43 82/84/60 65/67/45
f 65/67/45 82/84/60 67/85/1
f 65/67/45 67/85/1 36/68/1
f 67/69/1 83/86/1 84/87/61
f 67/69/1 84/87/61 68/70/47
f 68/70/47 84/87/61 85/88/62
f 68/70/47 85/88/62 69/71/48
f 69/71/48 85/88/62 86/89/63
f 69/71/48 86/89/63 70/72/49
f 70/72/49 86/89/63 87/90/64
f 70/72/49 87/90/64 71/73/50
f 71/73/50 87/90/64 88/91/65
f 71/73/50 88/91/65 72/74/51
f 72/74/51 88/91/65 89/92/66
f 72/74/51 89/92/66 73/75/52
f 73/75/52 89/92/66 90/93/67
f 73/75/52 90/93/67 74/76/53
f 74/76/53 90/93/67 91/94/9
f 74/76/53 91/94/9 75/77/9
f 75/77/9 91/94/9 92/95/68
f 75/77/9 92/95/68 76/78/54
f 76/78/54 92/95/68 93/96/69
f 76/78/54 93/96/69 77/79/55
f 77/79/55 93/96/69 94/97/70
f 77/79/55 94/97/70 78/80/56
f 78/80/56 94/97/70 95/98/71
f 78/80/56 95/98/71 79/81/57
f 79/81/57 95/98/71 96/99/72
f 79/81/57 96/99/72 80/82/58
f 80/82/58 96/99/72 97/100/73
f 80/82/58 97/100/73 81/83/59
f 81/83/59 97/100/73 98/101/74
f 81/83/59 98/101/74 82/84/60
f 82/84/60 98/101/74 83/102/1
f 82/84/60 83/102/1 67/85/1
f 83/86/1 99/103/1 100/104/75
f 83/86/1 100/104/75 84/87/61
f 84/87/61 100/104/75 101/105/76
f 84/87/61 101/105/76 85/88/62
f 85/88/62 101/105/76 102/106/77
f 85/88/62 102/106/77 86/89/63
f 86/89/63 102/106/77 103/107/78
f 86/89/63 103/107/78 87/90/64
f 87/90/64 103/107/78 104/108/79
f 87/90/64 104/108/79 88/91/65
f 88/91/65 104/108/79 105/109/80
f 88/91/65 105/109/80 89/92/66
f 89/92/66 105/109/80 106/110/81
f 89/92/66 106/110/81 90/93/67
f 90/93/67 106/110/81 107/111/9
f 90/93/67 107/111/9 91/94/9
f 91/94/9 107/111/9 108/112/82
f 91/94/9 108/112/82 92/95/68
f 92/95/68 108/112/82 109/113/83
f 92/95/68 109/113/83 93/96/69
f 93/96/69 109/113/83 110/114/84
f 93/96/69 110/114/84 94/97/70
f 94/97/70 110/114/84 111/115/85
f 94/97/70 111/115/85 95/98/71
f 95/98/71 111/115/85 112/116/86
f 95/98/71 112/116/86 96/99/72
f 96/99/72 112/116/86 113/117/87
f 96/99/72 113/117/87 97/100/73
f 97/100/73 113/117/87 114/118/88
f 97/100/73 114/118/88 98/101/74
f 98/101/74 114/118/88 99/119/1
f 98/101/74 99/119/1 83/102/1
f 99/103/1 115/120/1 116/121/89
f 99/103/1 116/121/89 100/104/75
f 100/104/75 116/121/89 117/122/90
f 100/104/75 117/122/90 101/105/76
f 101/105/76 117/122/90 118/123/91
f 101/105/76 118/123/91 102/106/77
f 102/106/77 118/123/91 119/124/92
f 102/106/77 119/124/92 103/107/78
f 103/107/78 119/124/92 120/125/93
f 103/107/78 120/125/93 104/108/79
f 104/108/79 120/125/93 121/126/94
f 104/108/79 121/126/94 105/109/80
f 105/109/80 121/126/94 122/127/95
f 105/109/80 122/127/95 106/110/81
f 106/110/81 122/127/95 123/128/9
f 106/110/81 123/128/9 107/111/9
f 107/111/9 123/128/9 124/129/96
f 107/111/9 124/129/96 108/112/82
f 108/112/82 124/129/96 125/130/97
f 108/112/82 125/130/97 109/113/83
f 109/113/83 125/130/97 126/131/98
f 109/113/83 126/131/98 110/114/84
f 110/114/84 126/131/98 127/132/99
f 110/114/84 127/132/99 111/115/85
f 111/115/85 127/132/99 128/133/100
f 111/115/85 128/133/100 112/116/86
f 112/116/86 128/133/100 129/134/101
f 112/116/86 129/134/101 113/117/87
f 113/117/87 129/134/101 130/135/102
f 113/117/87 130/135/102 114/118/88
f 114/118/88 130/135/102 115/136/1
f 114/118/88 115/136/1 99/119/1
f 115/120/1 131/137/1 132/138/103
f 115/120/1 132/138/103 116/121/89
f 116/121/89 132/138/103 133/139/104
f 116/121/89 133/139/104 117/122/90
f 117/122/90 133/139/104 134/140/105
f 117/122/90 134/140/105 118/123/91
f 118/123/91 134/140/105 135/141/106
f 118/123/91 135/141/106 119/124/92
f 119/124/92 135/141/106 136/142/107
f 119/124/92 136/142/107 120/125/93
f 120/125/93 136/142/107 137/143/108
f 120/125/93 137/143/108 121/126/94
f 121/126/94 137/143/108 138/144/109
f 121/126/94 138/144/109 122/127/95
f 122/127/95 138/144/109 139/145/9
f 122/127/95 139/145/9 123/128/9
f 123/128/9 139/145/9 140/146/110
f 123/128/9 140/146/110 124/129/96
f 124/129/96 140/146/110 141/147/111
f 124/129/96 141/147/111 125/130/97
f 125/130/97 141/147/111 142/148/112
f 125/130/97 142/148/112 126/131/98
f 126/131/98 142/148/112 143/149/113
f 126/131/98 143/149/113 127/132/99
f 127/132/99 143/149/113 144/150/114
f 127/132/99 144/150/114 128/133/100
f 128/133/100 144/150/114 145/151/115
f 128/133/100 145/151/115 129/134/101
f 129/134/101 145/151/115 146/152/116
f 129/134/101 146/152/116 130/135/102
f 130/135/102 146/152/116 131/153/1
f 130/135/102 131/153/1 115/136/1
f 131/137/1 147/154/1 148/155/117
f 131/137/1 148/155/117 132/138/103
f 132/138/103 148/155/117 149/156/118
f 132/138/103 149/156/118 133/139/104
f 133/139/104 149/156/118 150/157/119
f 133/139/104 150/157/119 134/140/105
f 134/140/105 150/157/119 151/158/120
f 134/140/105 151/158/120 135/141/106
f 135/141/106 151/158/120 152/159/121
f 135/141/106 152/159/121 136/142/107
f 136/142/107 152/159/121 153/160/122
f 136/142/107 153/160/122 137/143/108
f 137/143/108 153/160/122 154/161/123
f 137/143/108 154/161/123 138/144/109
f 138/144/109 154/161/123 155/162/9
f 138/144/109 155/162/9 139/145/9
f 139/145/9 155/162/9 156/163/124
f 139/145/9 156/163/124 140/146/110
f 140/146/110 156/163/124 157/164/125
f 140/146/110 157/164/125 141/147/111
f 141/147/111 157/164/125 158/165/126
f 141/147/111 158/165/126 142/148/112
f 142/148/112 158/165/126 159/166/127
f 142/148/112 159/166/127 143/149/113
f 143/149/113 159/166/127 160/167/128
f 143/149/113 160/167/128 144/150/114
f 144/150/114 160/167/128 161/168/129
f 144/150/114 161/168/129 145/151/115
f 145/151/115 161/168/129 162/169/130
f 145/151/115 162/169/130 146/152/116
f 146/152/116 162/169/130 147/170/1
f 146/152/116 147/170/1 131/153/1
f 147/154/1 163/171/1 164/172/131
f 147/154/1 164/172/131 148/155/117
f 148/155/117 164/172/131 165/173/132
f 148/155/117 165/173/132 149/156/118
f 149/156/118 165/173/132 166/174/133
f 149/156/118 166/174/133 150/157/119
f 150/157/119 166/174/133 167/175/134
f 150/157/119 167/175/134 151/158/120
f 151/158/120 167/175/134 168/176/135
f 151/158/120 168/176/135 152/159/121
f 152/159/121 168/176/135 169/177/136
f 152/159/121 169/177/136 153/160/122
f 153/160/122 169/177/136 170/178/137
f 153/160/122 170/178/137 154/161/123
f 154/161/123 170/178/137 171/179/9
f 154/161/123 171/179/9 155/162/9
f 155/162/9 171/179/9 172/180/138
f 155/162/9 172/180/138 156/163/124
f 156/163/124 172/180/138 173/181/139
f 156/163/124 173/181/139 157/164/125
f 157/164/125 173/181/139 174/182/140
f 157/164/125 174/182/140 158/165/126
f 158/165/126 174/182/140 175/183/141
f 158/165/126 175/183/141 159/166/127
f 159/166/127 175/183/141 176/184/142
f 159/166/127 176/184/142 160/167/128
f 160/167/128 176/184/142 177/185/143
f 160/167/128 177/185/143 161/168/129
f 161/168/129 177/185/143 178/186/144
f 161/168/129 178/186/144 162/169/130
f 162/169/130 178/186/144 163/187/1
f 162/169/130 163/187/1 147/170/1
f 163/171/1 179/188/1 180/189/145
f 163/171/1 180/189/145 164/172/131
f 164/172/131 180/189/145 181/190/146
f 164/172/131 181/190/146 165/173/132
f 165/173/132 181/190/146 182/191/147
f 165/173/132 182/191/147 166/174/133
f 166/174/133 182/191/147 183/192/148
f 166/174/133 183/192/148 167/175/134
f 167/175/134 183/192/148 184/193/149
f 167/175/134 184/193/149 168/176/135
f 168/176/135 184/193/149 185/194/150
f 168/176/135 185/194/150 169/177/136
f 169/177/136 185/194/150 186/195/151
f 169/177/136 186/195/151 170/178/137
f 170/178/137 186/195/151 187/196/9
f 170/178/137 187/196/9 171/179/9
f 171/179/9 187/196/9 188/197/152
f 171/179/9 188/197/152 172/180/138
f 172/180/138 188/197/152 189/198/153
f 172/180/138 189/198/153 173/181/139
f 173/181/139 189/198/153 190/199/154
f 173/181/139 190/199/154 174/182/140
f 174/182/140 190/199/154 191/200/155
f 174/182/140 191/200/155 175/183/141
f 175/183/141 191/200/155 192/201/156
f 175/183/141 192/201/156 176/184/142
f 176/184/142 192/201/156 193/202/157
f 176/184/142 193/202/157 177/185/143
f 177/185/143 193/202/157 194/203/158
f 177/185/143 194/203/158 178/186/144
f 178/186/144 194/203/158 179/204/1
f 178/186/144 179/204/1 163/187/1
f 179/188/1 195/205/1 196/206/159
f 179/188/1 196/206/159 180/189/145
f 180/189/145 196/206/159 197/207/160
f 180/189/145 197/207/160 181/190/146
f 181/190/146 197/207/160 198/208/161
f 181/190/146 198/208/161 182/191/147
f 182/191/147 198/208/161 199/209/162
f 182/191/147 199/209/162 183/192/148
f 183/192/148 199/209/162 200/210/163
f 183/192/148 200/210/163 184/193/149
f 184/193/149 200/210/163 201/211/164
f 184/193/149 201/211/164 185/194/150
f 185/194/150 201/211/164 202/212/165
f 185/194/150 202/212/165 186/195/151
f 186/195/151 202/212/165 203/213/9
f 186/195/151 203/213/9 187/196/9
f 187/196/9 203/213/9 204/214/166
f 187/196/9 204/214/166 188/197/152
f 188/197/152 204/214/166 205/215/167
f 188/197/152 205/215/167 189/198/153
f 189/198/153 205/215/167 206/216/168
f 189/198/153 206/216/168 190/199/154
f 190/199/154 206/216/168 207/217/169
f 190/199/154 207/217/169 191/200/155
f 191/200/155 207/217/169 208/218/170
f 191/200/155 208/218/170 192/201/156
f 192/201/156 208/218/170 209/219/171
f 192/201/156 209/219/171 193/202/157
f 193/202/157 209/219/171 210/220/172
f 193/202/157 210/220/172 194/203/158
f 194/203/158 210/220/172 195/221/1
f 194/203/158 195/221/1 179/204/1
