# Procedurally generated by dev-env-utils/scripts/gen_mast_arm_curves.py
# cell 8 of 10 at (+6 along arm, +2 up)
mtllib mastarmcurve.mtl
o mastarm_8x2_c8
v 0.759375 0.375000 1.000000
v 0.758984 0.385200 0.916667
v 0.739270 0.483605 0.928455
v 0.739631 0.473492 1.012312
v 0.683130 0.567029 0.938448
v 0.683406 0.556990 1.022749
v 0.599109 0.622772 0.945126
v 0.599259 0.612781 1.029723
v 0.500000 0.642346 0.947471
v 0.500000 0.632372 1.032172
v 0.400891 0.622772 0.945126
v 0.400741 0.612781 1.029723
v 0.316870 0.567029 0.938448
v 0.316594 0.556990 1.022749
v 0.260730 0.483605 0.928455
v 0.260369 0.473492 1.012312
v 0.241016 0.385200 0.916667
v 0.240625 0.375000 1.000000
v 0.260730 0.286794 0.904879
v 0.260369 0.276508 0.987688
v 0.316870 0.203370 0.894885
v 0.316594 0.193010 0.977251
v 0.400891 0.147628 0.888208
v 0.400741 0.137219 0.970277
v 0.500000 0.128054 0.885863
v 0.500000 0.117628 0.967828
v 0.599109 0.147628 0.888208
v 0.599259 0.137219 0.970277
v 0.683130 0.203370 0.894885
v 0.683406 0.193010 0.977251
v 0.739270 0.286794 0.904879
v 0.739631 0.276508 0.987688
v 0.758594 0.394965 0.833333
v 0.738909 0.493282 0.844599
v 0.682853 0.576630 0.854149
v 0.598960 0.632322 0.860530
v 0.500000 0.651878 0.862771
v 0.401040 0.632322 0.860530
v 0.317147 0.576630 0.854149
v 0.261091 0.493282 0.844599
v 0.241406 0.394965 0.833333
v 0.261091 0.296649 0.822068
v 0.317147 0.213301 0.812518
v 0.401040 0.157609 0.806136
v 0.500000 0.138053 0.803895
v 0.598960 0.157609 0.806136
v 0.682853 0.213301 0.812518
v 0.738909 0.296649 0.822068
v 0.758203 0.404297 0.750000
v 0.738549 0.502521 0.760743
v 0.682577 0.585792 0.769851
v 0.598810 0.641431 0.775937
v 0.500000 0.660969 0.778074
v 0.401190 0.641431 0.775937
v 0.317423 0.585792 0.769851
v 0.261451 0.502521 0.760743
v 0.241797 0.404297 0.750000
v 0.261451 0.306073 0.739257
v 0.317423 0.222802 0.730149
v 0.401190 0.167162 0.724063
v 0.500000 0.147624 0.721926
v 0.598810 0.167162 0.724063
v 0.682577 0.222802 0.730149
v 0.738549 0.306073 0.739257
v 0.757812 0.413194 0.666667
v 0.738188 0.511324 0.676889
v 0.682301 0.594514 0.685554
v 0.598661 0.650100 0.691344
v 0.500000 0.669620 0.693378
v 0.401339 0.650100 0.691344
v 0.317699 0.594514 0.685554
v 0.261812 0.511324 0.676889
v 0.242188 0.413194 0.666667
v 0.261812 0.315065 0.656445
v 0.317699 0.231875 0.647779
v 0.401339 0.176289 0.641989
v 0.500000 0.156769 0.639956
v 0.598661 0.176289 0.641989
v 0.682301 0.231875 0.647779
v 0.738188 0.315065 0.656445
v 0.757422 0.421658 0.583333
v 0.737827 0.519690 0.593034
v 0.682025 0.602798 0.601259
v 0.598511 0.658329 0.606754
v 0.500000 0.677829 0.608684
v 0.401489 0.658329 0.606754
v 0.317975 0.602798 0.601259
v 0.262173 0.519690 0.593034
v 0.242578 0.421658 0.583333
v 0.262173 0.323626 0.573632
v 0.317975 0.240518 0.565408
v 0.401489 0.184987 0.559913
v 0.500000 0.165487 0.557983
v 0.598511 0.184987 0.559913
v 0.682025 0.240518 0.565408
v 0.737827 0.323626 0.573632
v 0.757031 0.429688 0.500000
v 0.737466 0.527620 0.509181
v 0.681749 0.610643 0.516965
v 0.598362 0.666117 0.522165
v 0.500000 0.685597 0.523991
v 0.401638 0.666117 0.522165
v 0.318251 0.610643 0.516965
v 0.262534 0.527620 0.509181
v 0.242969 0.429688 0.500000
v 0.262534 0.331755 0.490819
v 0.318251 0.248732 0.483035
v 0.401638 0.193258 0.477835
v 0.500000 0.173778 0.476009
v 0.598362 0.193258 0.477835
v 0.681749 0.248732 0.483035
v 0.737466 0.331755 0.490819
v 0.756641 0.437283 0.416667
v 0.737105 0.535112 0.425329
v 0.681472 0.618048 0.432672
v 0.598212 0.673464 0.437579
v 0.500000 0.692924 0.439302
v 0.401788 0.673464 0.437579
v 0.318528 0.618048 0.432672
v 0.262895 0.535112 0.425329
v 0.243359 0.437283 0.416667
v 0.262895 0.339454 0.408005
v 0.318528 0.256518 0.400661
v 0.401788 0.201102 0.395755
v 0.500000 0.181642 0.394032
v 0.598212 0.201102 0.395755
v 0.681472 0.256518 0.400661
v 0.737105 0.339454 0.408005
v 0.756250 0.444444 0.333333
v 0.736744 0.542168 0.341477
v 0.681196 0.625015 0.348381
v 0.598063 0.680371 0.352994
v 0.500000 0.699809 0.354614
v 0.401937 0.680371 0.352994
v 0.318804 0.625015 0.348381
v 0.263256 0.542168 0.341477
v 0.243750 0.444444 0.333333
v 0.263256 0.346721 0.325190
v 0.318804 0.263874 0.318286
v 0.401937 0.208518 0.313673
v 0.500000 0.189080 0.312053
v 0.598063 0.208518 0.313673
v 0.681196 0.263874 0.318286
v 0.736744 0.346721 0.325190
v 0.755859 0.451172 0.250000
v 0.736383 0.548788 0.257626
v 0.680920 0.631542 0.264091
v 0.597913 0.686837 0.268411
v 0.500000 0.706254 0.269928
v 0.402087 0.686837 0.268411
v 0.319080 0.631542 0.264091
v 0.263617 0.548788 0.257626
v 0.244141 0.451172 0.250000
v 0.263617 0.353556 0.242374
v 0.319080 0.270802 0.235909
v 0.402087 0.215507 0.231589
v 0.500000 0.196090 0.230072
v 0.597913 0.215507 0.231589
v 0.680920 0.270802 0.235909
v 0.736383 0.353556 0.242374
v 0.755469 0.457465 0.166667
v 0.736022 0.554970 0.173776
v 0.680644 0.637631 0.179804
v 0.597764 0.692863 0.183831
v 0.500000 0.712258 0.185245
v 0.402236 0.692863 0.183831
v 0.319356 0.637631 0.179804
v 0.263978 0.554970 0.173776
v 0.244531 0.457465 0.166667
v 0.263978 0.359960 0.159557
v 0.319356 0.277300 0.153530
v 0.402236 0.222068 0.149502
v 0.500000 0.202673 0.148088
v 0.597764 0.222068 0.149502
v 0.680644 0.277300 0.153530
v 0.736022 0.359960 0.159557
v 0.755078 0.463325 0.083333
v 0.735661 0.560716 0.089928
v 0.680367 0.643280 0.095518
v 0.597614 0.698448 0.099253
v 0.500000 0.717820 0.100565
v 0.402386 0.698448 0.099253
v 0.319633 0.643280 0.095518
v 0.264339 0.560716 0.089928
v 0.244922 0.463325 0.083333
v 0.264339 0.365933 0.076739
v 0.319633 0.283369 0.071149
v 0.402386 0.228202 0.067414
v 0.500000 0.208829 0.066102
v 0.597614 0.228202 0.067414
v 0.680367 0.283369 0.071149
v 0.735661 0.365933 0.076739
v 0.754687 0.468750 0.000000
v 0.735301 0.566025 0.006080
v 0.680091 0.648491 0.011234
v 0.597465 0.703592 0.014678
v 0.500000 0.722942 0.015887
v 0.402535 0.703592 0.014678
v 0.319909 0.648491 0.011234
v 0.264699 0.566025 0.006080
v 0.245312 0.468750 0.000000
v 0.264699 0.371475 -0.006080
v 0.319909 0.289009 -0.011234
v 0.402535 0.233908 -0.014678
v 0.500000 0.214558 -0.015887
v 0.597465 0.233908 -0.014678
v 0.680091 0.289009 -0.011234
v 0.735301 0.371475 -0.006080
vt 0.250000 0.599428
vt 0.250000 0.557450
vt 0.281250 0.557450
vt 0.281250 0.599428
vt 0.312500 0.557450
vt 0.312500 0.599428
vt 0.343750 0.557450
vt 0.343750 0.599428
vt 0.375000 0.557450
vt 0.375000 0.599428
vt 0.406250 0.557450
vt 0.406250 0.599428
vt 0.437500 0.557450
vt 0.437500 0.599428
vt 0.468750 0.557450
vt 0.468750 0.599428
vt 0.500000 0.557450
vt 0.500000 0.599428
vt 0.531250 0.557450
vt 0.531250 0.599428
vt 0.562500 0.557450
vt 0.562500 0.599428
vt 0.593750 0.557450
vt 0.593750 0.599428
vt 0.625000 0.557450
vt 0.625000 0.599428
vt 0.656250 0.557450
vt 0.656250 0.599428
vt 0.687500 0.557450
vt 0.687500 0.599428
vt 0.718750 0.557450
vt 0.718750 0.599428
vt 0.750000 0.557450
vt 0.750000 0.599428
vt 0.250000 0.515499
vt 0.281250 0.515499
vt 0.312500 0.515499
vt 0.343750 0.515499
vt 0.375000 0.515499
vt 0.406250 0.515499
vt 0.437500 0.515499
vt 0.468750 0.515499
vt 0.500000 0.515499
vt 0.531250 0.515499
vt 0.562500 0.515499
vt 0.593750 0.515499
vt 0.625000 0.515499
vt 0.656250 0.515499
vt 0.687500 0.515499
vt 0.718750 0.515499
vt 0.750000 0.515499
vt 0.250000 0.473571
vt 0.281250 0.473571
vt 0.312500 0.473571
vt 0.343750 0.473571
vt 0.375000 0.473571
vt 0.406250 0.473571
vt 0.437500 0.473571
vt 0.468750 0.473571
vt 0.500000 0.473571
vt 0.531250 0.473571
vt 0.562500 0.473571
vt 0.593750 0.473571
vt 0.625000 0.473571
vt 0.656250 0.473571
vt 0.687500 0.473571
vt 0.718750 0.473571
vt 0.750000 0.473571
vt 0.250000 0.431668
vt 0.281250 0.431668
vt 0.312500 0.431668
vt 0.343750 0.431668
vt 0.375000 0.431668
vt 0.406250 0.431668
vt 0.437500 0.431668
vt 0.468750 0.431668
vt 0.500000 0.431668
vt 0.531250 0.431668
vt 0.562500 0.431668
vt 0.593750 0.431668
vt 0.625000 0.431668
vt 0.656250 0.431668
vt 0.687500 0.431668
vt 0.718750 0.431668
vt 0.750000 0.431668
vt 0.250000 0.389787
vt 0.281250 0.389787
vt 0.312500 0.389787
vt 0.343750 0.389787
vt 0.375000 0.389787
vt 0.406250 0.389787
vt 0.437500 0.389787
vt 0.468750 0.389787
vt 0.500000 0.389787
vt 0.531250 0.389787
vt 0.562500 0.389787
vt 0.593750 0.389787
vt 0.625000 0.389787
vt 0.656250 0.389787
vt 0.687500 0.389787
vt 0.718750 0.389787
vt 0.750000 0.389787
vt 0.250000 0.347927
vt 0.281250 0.347927
vt 0.312500 0.347927
vt 0.343750 0.347927
vt 0.375000 0.347927
vt 0.406250 0.347927
vt 0.437500 0.347927
vt 0.468750 0.347927
vt 0.500000 0.347927
vt 0.531250 0.347927
vt 0.562500 0.347927
vt 0.593750 0.347927
vt 0.625000 0.347927
vt 0.656250 0.347927
vt 0.687500 0.347927
vt 0.718750 0.347927
vt 0.750000 0.347927
vt 0.250000 0.306088
vt 0.281250 0.306088
vt 0.312500 0.306088
vt 0.343750 0.306088
vt 0.375000 0.306088
vt 0.406250 0.306088
vt 0.437500 0.306088
vt 0.468750 0.306088
vt 0.500000 0.306088
vt 0.531250 0.306088
vt 0.562500 0.306088
vt 0.593750 0.306088
vt 0.625000 0.306088
vt 0.656250 0.306088
vt 0.687500 0.306088
vt 0.718750 0.306088
vt 0.750000 0.306088
vt 0.250000 0.264268
vt 0.281250 0.264268
vt 0.312500 0.264268
vt 0.343750 0.264268
vt 0.375000 0.264268
vt 0.406250 0.264268
vt 0.437500 0.264268
vt 0.468750 0.264268
vt 0.500000 0.264268
vt 0.531250 0.264268
vt 0.562500 0.264268
vt 0.593750 0.264268
vt 0.625000 0.264268
vt 0.656250 0.264268
vt 0.687500 0.264268
vt 0.718750 0.264268
vt 0.750000 0.264268
vt 0.250000 0.277535
vt 0.281250 0.277535
vt 0.312500 0.277535
vt 0.343750 0.277535
vt 0.375000 0.277535
vt 0.406250 0.277535
vt 0.437500 0.277535
vt 0.468750 0.277535
vt 0.500000 0.277535
vt 0.531250 0.277535
vt 0.562500 0.277535
vt 0.593750 0.277535
vt 0.625000 0.277535
vt 0.656250 0.277535
vt 0.687500 0.277535
vt 0.718750 0.277535
vt 0.750000 0.277535
vt 0.250000 0.319320
vt 0.281250 0.319320
vt 0.312500 0.319320
vt 0.343750 0.319320
vt 0.375000 0.319320
vt 0.406250 0.319320
vt 0.437500 0.319320
vt 0.468750 0.319320
vt 0.500000 0.319320
vt 0.531250 0.319320
vt 0.562500 0.319320
vt 0.593750 0.319320
vt 0.625000 0.319320
vt 0.656250 0.319320
vt 0.687500 0.319320
vt 0.718750 0.319320
vt 0.750000 0.319320
vt 0.250000 0.361089
vt 0.281250 0.361089
vt 0.312500 0.361089
vt 0.343750 0.361089
vt 0.375000 0.361089
vt 0.406250 0.361089
vt 0.437500 0.361089
vt 0.468750 0.361089
vt 0.500000 0.361089
vt 0.531250 0.361089
vt 0.562500 0.361089
vt 0.593750 0.361089
vt 0.625000 0.361089
vt 0.656250 0.361089
vt 0.687500 0.361089
vt 0.718750 0.361089
vt 0.750000 0.361089
vt 0.250000 0.402844
vt 0.281250 0.402844
vt 0.312500 0.402844
vt 0.343750 0.402844
vt 0.375000 0.402844
vt 0.406250 0.402844
vt 0.437500 0.402844
vt 0.468750 0.402844
vt 0.500000 0.402844
vt 0.531250 0.402844
vt 0.562500 0.402844
vt 0.593750 0.402844
vt 0.625000 0.402844
vt 0.656250 0.402844
vt 0.687500 0.402844
vt 0.718750 0.402844
vt 0.750000 0.402844
vn 1.000000 0.000000 0.000000
vn 0.923880 0.379967 0.045517
vn 0.923880 0.379728 0.047466
vn 0.707107 0.702087 0.084104
vn 0.707107 0.701646 0.087706
vn 0.382683 0.917321 0.109887
vn 0.382683 0.916745 0.114593
vn 0.000000 0.992901 0.118941
vn 0.000000 0.992278 0.124035
vn -0.382683 0.917321 0.109887
vn -0.382683 0.916745 0.114593
vn -0.707107 0.702087 0.084104
vn -0.707107 0.701646 0.087706
vn -0.923880 0.379967 0.045517
vn -0.923880 0.379728 0.047466
vn -1.000000 0.000000 0.000000
vn -0.923880 -0.379967 -0.045517
vn -0.923880 -0.379728 -0.047466
vn -0.707107 -0.702087 -0.084104
vn -0.707107 -0.701646 -0.087706
vn -0.382683 -0.917321 -0.109887
vn -0.382683 -0.916745 -0.114593
vn -0.000000 -0.992901 -0.118941
vn -0.000000 -0.992278 -0.124035
vn 0.382683 -0.917321 -0.109887
vn 0.382683 -0.916745 -0.114593
vn 0.707107 -0.702087 -0.084104
vn 0.707107 -0.701646 -0.087706
vn 0.923880 -0.379967 -0.045517
vn 0.923880 -0.379728 -0.047466
vn 0.923880 0.380196 0.043564
vn 0.707107 0.702510 0.080496
vn 0.382683 0.917874 0.105173
vn 0.000000 0.993499 0.113838
vn -0.382683 0.917874 0.105173
vn -0.707107 0.702510 0.080496
vn -0.923880 0.380196 0.043564
vn -0.923880 -0.380196 -0.043564
vn -0.707107 -0.702510 -0.080496
vn -0.382683 -0.917874 -0.105173
vn -0.000000 -0.993499 -0.113838
vn 0.382683 -0.917874 -0.105173
vn 0.707107 -0.702510 -0.080496
vn 0.923880 -0.380196 -0.043564
vn 0.923880 0.380415 0.041608
vn 0.707107 0.702915 0.076881
vn 0.382683 0.918402 0.100450
vn 0.000000 0.994072 0.108727
vn -0.382683 0.918402 0.100450
vn -0.707107 0.702915 0.076881
vn -0.923880 0.380415 0.041608
vn -0.923880 -0.380415 -0.041608
vn -0.707107 -0.702915 -0.076881
vn -0.382683 -0.918402 -0.100450
vn -0.000000 -0.994072 -0.108727
vn 0.382683 -0.918402 -0.100450
vn 0.707107 -0.702915 -0.076881
vn 0.923880 -0.380415 -0.041608
vn 0.923880 0.380624 0.039648
vn 0.707107 0.703301 0.073261
vn 0.382683 0.918908 0.095720
vn 0.000000 0.994618 0.103606
vn -0.382683 0.918908 0.095720
vn -0.707107 0.703301 0.073261
vn -0.923880 0.380624 0.039648
vn -0.923880 -0.380624 -0.039648
vn -0.707107 -0.703301 -0.073261
vn -0.382683 -0.918908 -0.095720
vn -0.000000 -0.994618 -0.103606
vn 0.382683 -0.918908 -0.095720
vn 0.707107 -0.703301 -0.073261
vn 0.923880 -0.380624 -0.039648
vn 0.923880 0.380823 0.037686
vn 0.707107 0.703670 0.069634
vn 0.382683 0.919389 0.090981
vn 0.000000 0.995139 0.098477
vn -0.382683 0.919389 0.090981
vn -0.707107 0.703670 0.069634
vn -0.923880 0.380823 0.037686
vn -0.923880 -0.380823 -0.037686
vn -0.707107 -0.703670 -0.069634
vn -0.382683 -0.919389 -0.090981
vn -0.000000 -0.995139 -0.098477
vn 0.382683 -0.919389 -0.090981
vn 0.707107 -0.703670 -0.069634
vn 0.923880 -0.380823 -0.037686
vn 0.923880 0.381013 0.035720
vn 0.707107 0.704020 0.066002
vn 0.382683 0.919846 0.086236
vn 0.000000 0.995634 0.093341
vn -0.382683 0.919846 0.086236
vn -0.707107 0.704020 0.066002
vn -0.923880 0.381013 0.035720
vn -0.923880 -0.381013 -0.035720
vn -0.707107 -0.704020 -0.066002
vn -0.382683 -0.919846 -0.086236
vn -0.000000 -0.995634 -0.093341
vn 0.382683 -0.919846 -0.086236
vn 0.707107 -0.704020 -0.066002
vn 0.923880 -0.381013 -0.035720
vn 0.923880 0.381192 0.033751
vn 0.707107 0.704351 0.062364
vn 0.382683 0.920279 0.081483
vn 0.000000 0.996103 0.088197
vn -0.382683 0.920279 0.081483
vn -0.707107 0.704351 0.062364
vn -0.923880 0.381192 0.033751
vn -0.923880 -0.381192 -0.033751
vn -0.707107 -0.704351 -0.062364
vn -0.382683 -0.920279 -0.081483
vn -0.000000 -0.996103 -0.088197
vn 0.382683 -0.920279 -0.081483
vn 0.707107 -0.704351 -0.062364
vn 0.923880 -0.381192 -0.033751
vn 0.923880 0.381362 0.031780
vn 0.707107 0.704664 0.058722
vn 0.382683 0.920688 0.076724
vn 0.000000 0.996546 0.083045
vn -0.382683 0.920688 0.076724
vn -0.707107 0.704664 0.058722
vn -0.923880 0.381362 0.031780
vn -0.923880 -0.381362 -0.031780
vn -0.707107 -0.704664 -0.058722
vn -0.382683 -0.920688 -0.076724
vn -0.000000 -0.996546 -0.083045
vn 0.382683 -0.920688 -0.076724
vn 0.707107 -0.704664 -0.058722
vn 0.923880 -0.381362 -0.031780
vn 0.923880 0.381521 0.029806
vn 0.707107 0.704959 0.055075
vn 0.382683 0.921073 0.071959
vn 0.000000 0.996962 0.077888
vn -0.382683 0.921073 0.071959
vn -0.707107 0.704959 0.055075
vn -0.923880 0.381521 0.029806
vn -0.923880 -0.381521 -0.029806
vn -0.707107 -0.704959 -0.055075
vn -0.382683 -0.921073 -0.071959
vn -0.000000 -0.996962 -0.077888
vn 0.382683 -0.921073 -0.071959
vn 0.707107 -0.704959 -0.055075
vn 0.923880 -0.381521 -0.029806
vn 0.923880 0.381670 0.027830
vn 0.707107 0.705234 0.051423
vn 0.382683 0.921433 0.067188
vn 0.000000 0.997352 0.072724
vn -0.382683 0.921433 0.067188
vn -0.707107 0.705234 0.051423
vn -0.923880 0.381670 0.027830
vn -0.923880 -0.381670 -0.027830
vn -0.707107 -0.705234 -0.051423
vn -0.382683 -0.921433 -0.067188
vn -0.000000 -0.997352 -0.072724
vn 0.382683 -0.921433 -0.067188
vn 0.707107 -0.705234 -0.051423
vn 0.923880 -0.381670 -0.027830
vn 0.923880 0.381809 0.025852
vn 0.707107 0.705491 0.047768
vn 0.382683 0.921769 0.062411
vn 0.000000 0.997716 0.067554
vn -0.382683 0.921769 0.062411
vn -0.707107 0.705491 0.047768
vn -0.923880 0.381809 0.025852
vn -0.923880 -0.381809 -0.025852
vn -0.707107 -0.705491 -0.047768
vn -0.382683 -0.921769 -0.062411
vn -0.000000 -0.997716 -0.067554
vn 0.382683 -0.921769 -0.062411
vn 0.707107 -0.705491 -0.047768
vn 0.923880 -0.381809 -0.025852
vn 0.923880 0.381938 0.023871
vn 0.707107 0.705730 0.044108
vn 0.382683 0.922080 0.057630
vn 0.000000 0.998053 0.062378
vn -0.382683 0.922080 0.057630
vn -0.707107 0.705730 0.044108
vn -0.923880 0.381938 0.023871
vn -0.923880 -0.381938 -0.023871
vn -0.707107 -0.705730 -0.044108
vn -0.382683 -0.922080 -0.057630
vn -0.000000 -0.998053 -0.062378
vn 0.382683 -0.922080 -0.057630
vn 0.707107 -0.705730 -0.044108
vn 0.923880 -0.381938 -0.023871
usemtl body
f 1/1/1 2/2/1 3/3/2
f 1/1/1 3/3/2 4/4/3
f 4/4/3 3/3/2 5/5/4
f 4/4/3 5/5/4 6/6/5
f 6/6/5 5/5/4 7/7/6
f 6/6/5 7/7/6 8/8/7
f 8/8/7 7/7/6 9/9/8
f 8/8/7 9/9/8 10/10/9
f 10/10/9 9/9/8 11/11/10
f 10/10/9 11/11/10 12/12/11
f 12/12/11 11/11/10 13/13/12
f 12/12/11 13/13/12 14/14/13
f 14/14/13 13/13/12 15/15/14
f 14/14/13 15/15/14 16/16/15
f 16/16/15 15/15/14 17/17/16
f 16/16/15 17/17/16 18/18/16
f 18/18/16 17/17/16 19/19/17
f 18/18/16 19/19/17 20/20/18
f 20/20/18 19/19/17 21/21/19
f 20/20/18 21/21/19 22/22/20
f 22/22/20 21/21/19 23/23/21
f 22/22/20 23/23/21 24/24/22
f 24/24/22 23/23/21 25/25/23
f 24/24/22 25/25/23 26/26/24
f 26/26/24 25/25/23 27/27/25
f 26/26/24 27/27/25 28/28/26
f 28/28/26 27/27/25 29/29/27
f 28/28/26 29/29/27 30/30/28
f 30/30/28 29/29/27 31/31/29
f 30/30/28 31/31/29 32/32/30
f 32/32/30 31/31/29 2/33/1
f 32/32/30 2/33/1 1/34/1
f 2/2/1 33/35/1 34/36/31
f 2/2/1 34/36/31 3/3/2
f 3/3/2 34/36/31 35/37/32
f 3/3/2 35/37/32 5/5/4
f 5/5/4 35/37/32 36/38/33
f 5/5/4 36/38/33 7/7/6
f 7/7/6 36/38/33 37/39/34
f 7/7/6 37/39/34 9/9/8
f 9/9/8 37/39/34 38/40/35
f 9/9/8 38/40/35 11/11/10
f 11/11/10 38/40/35 39/41/36
f 11/11/10 39/41/36 13/13/12
f 13/13/12 39/41/36 40/42/37
f 13/13/12 40/42/37 15/15/14
f 15/15/14 40/42/37 41/43/16
f 15/15/14 41/43/16 17/17/16
f 17/17/16 41/43/16 42/44/38
f 17/17/16 42/44/38 19/19/17
f 19/19/17 42/44/38 43/45/39
f 19/19/17 43/45/39 21/21/19
f 21/21/19 43/45/39 44/46/40
f 21/21/19 44/46/40 23/23/21
f 23/23/21 44/46/40 45/47/41
f 23/23/21 45/47/41 25/25/23
f 25/25/23 45/47/41 46/48/42
f 25/25/23 46/48/42 27/27/25
f 27/27/25 46/48/42 47/49/43
f 27/27/25 47/49/43 29/29/27
f 29/29/27 47/49/43 48/50/44
f 29/29/27 48/50/44 31/31/29
f 31/31/29 48/50/44 33/51/1
f 31/31/29 33/51/1 2/33/1
f 33/35/1 49/52/1 50/53/45
f 33/35/1 50/53/45 34/36/31
f 34/36/31 50/53/45 51/54/46
f 34/36/31 51/54/46 35/37/32
f 35/37/32 51/54/46 52/55/47
f 35/37/32 52/55/47 36/38/33
f 36/38/33 52/55/47 53/56/48
f 36/38/33 53/56/48 37/39/34
f 37/39/34 53/56/48 54/57/49
f 37/39/34 54/57/49 38/40/35
f 38/40/35 54/57/49 55/58/50
f 38/40/35 55/58/50 39/41/36
f 39/41/36 55/58/50 56/59/51
f 39/41/36 56/59/51 40/42/37
f 40/42/37 56/59/51 57/60/16
f 40/42/37 57/60/16 41/43/16
f 41/43/16 57/60/16 58/61/52
f 41/43/16 58/61/52 42/44/38
f 42/44/38 58/61/52 59/62/53
f 42/44/38 59/62/53 43/45/39
f 43/45/39 59/62/53 60/63/54
f 43/45/39 60/63/54 44/46/40
f 44/46/40 60/63/54 61/64/55
f 44/46/40 61/64/55 45/47/41
f 45/47/41 61/64/55 62/65/56
f 45/47/41 62/65/56 46/48/42
f 46/48/42 62/65/56 63/66/57
f 46/48/42 63/66/57 47/49/43
f 47/49/43 63/66/57 64/67/58
f 47/49/43 64/67/58 48/50/44
f 48/50/44 64/67/58 49/68/1
f 48/50/44 49/68/1 33/51/1
f 49/52/1 65/69/1 66/70/59
f 49/52/1 66/70/59 50/53/45
f 50/53/45 66/70/59 67/71/60
f 50/53/45 67/71/60 51/54/46
f 51/54/46 67/71/60 68/72/61
f 51/54/46 68/72/61 52/55/47
f 52/55/47 68/72/61 69/73/62
f 52/55/47 69/73/62 53/56/48
f 53/56/48 69/73/62 70/74/63
f 53/56/48 70/74/63 54/57/49
f 54/57/49 70/74/63 71/75/64
f 54/57/49 71/75/64 55/58/50
f 55/58/50 71/75/64 72/76/65
f 55/58/50 72/76/65 56/59/51
f 56/59/51 72/76/65 73/77/16
f 56/59/51 73/77/16 57/60/16
f 57/60/16 73/77/16 74/78/66
f 57/60/16 74/78/66 58/61/52
f 58/61/52 74/78/66 75/79/67
f 58/61/52 75/79/67 59/62/53
f 59/62/53 75/79/67 76/80/68
f 59/62/53 76/80/68 60/63/54
f 60/63/54 76/80/68 77/81/69
f 60/63/54 77/81/69 61/64/55
f 61/64/55 77/81/69 78/82/70
f 61/64/55 78/82/70 62/65/56
f 62/65/56 78/82/70 79/83/71
f 62/65/56 79/83/71 63/66/57
f 63/66/57 79/83/71 80/84/72
f 63/66/57 80/84/72 64/67/58
f 64/67/58 80/84/72 65/85/1
f 64/67/58 65/85/1 49/68/1
f 65/69/1 81/86/1 82/87/73
f 65/69/1 82/87/73 66/70/59
f 66/70/59 82/87/73 83/88/74
f 66/70/59 83/88/74 67/71/60
f 67/71/60 83/88/74 84/89/75
f 67/71/60 84/89/75 68/72/61
f 68/72/61 84/89/75 85/90/76
f 68/72/61 85/90/76 69/73/62
f 69/73/62 85/90/76 86/91/77
f 69/73/62 86/91/77 70/74/63
f 70/74/63 86/91/77 87/92/78
f 70/74/63 87/92/78 71/75/64
f 71/75/64 87/92/78 88/93/79
f 71/75/64 88/93/79 72/76/65
f 72/76/65 88/93/79 89/94/16
f 72/76/65 89/94/16 73/77/16
f 73/77/16 89/94/16 90/95/80
f 73/77/16 90/95/80 74/78/66
f 74/78/66 90/95/80 91/96/81
f 74/78/66 91/96/81 75/79/67
f 75/79/67 91/96/81 92/97/82
f 75/79/67 92/97/82 76/80/68
f 76/80/68 92/97/82 93/98/83
f 76/80/68 93/98/83 77/81/69
f 77/81/69 93/98/83 94/99/84
f 77/81/69 94/99/84 78/82/70
f 78/82/70 94/99/84 95/100/85
f 78/82/70 95/100/85 79/83/71
f 79/83/71 95/100/85 96/101/86
f 79/83/71 96/101/86 80/84/72
f 80/84/72 96/101/86 81/102/1
f 80/84/72 81/102/1 65/85/1
f 81/86/1 97/103/1 98/104/87
f 81/86/1 98/104/87 82/87/73
f 82/87/73 98/104/87 99/105/88
f 82/87/73 99/105/88 83/88/74
f 83/88/74 99/105/88 100/106/89
f 83/88/74 100/106/89 84/89/75
f 84/89/75 100/106/89 101/107/90
f 84/89/75 101/107/90 85/90/76
f 85/90/76 101/107/90 102/108/91
f 85/90/76 102/108/91 86/91/77
f 86/91/77 102/108/91 103/109/92
f 86/91/77 103/109/92 87/92/78
f 87/92/78 103/109/92 104/110/93
f 87/92/78 104/110/93 88/93/79
f 88/93/79 104/110/93 105/111/16
f 88/93/79 105/111/16 89/94/16
f 89/94/16 105/111/16 106/112/94
f 89/94/16 106/112/94 90/95/80
f 90/95/80 106/112/94 107/113/95
f 90/95/80 107/113/95 91/96/81
f 91/96/81 107/113/95 108/114/96
f 91/96/81 108/114/96 92/97/82
f 92/97/82 108/114/96 109/115/97
f 92/97/82 109/115/97 93/98/83
f 93/98/83 109/115/97 110/116/98
f 93/98/83 110/116/98 94/99/84
f 94/99/84 110/116/98 111/117/99
f 94/99/84 111/117/99 95/100/85
f 95/100/85 111/117/99 112/118/100
f 95/100/85 112/118/100 96/101/86
f 96/101/86 112/118/100 97/119/1
f 96/101/86 97/119/1 81/102/1
f 97/103/1 113/120/1 114/121/101
f 97/103/1 114/121/101 98/104/87
f 98/104/87 114/121/101 115/122/102
f 98/104/87 115/122/102 99/105/88
f 99/105/88 115/122/102 116/123/103
f 99/105/88 116/123/103 100/106/89
f 100/106/89 116/123/103 117/124/104
f 100/106/89 117/124/104 101/107/90
f 101/107/90 117/124/104 118/125/105
f 101/107/90 118/125/105 102/108/91
f 102/108/91 118/125/105 119/126/106
f 102/108/91 119/126/106 103/109/92
f 103/109/92 119/126/106 120/127/107
f 103/109/92 120/127/107 104/110/93
f 104/110/93 120/127/107 121/128/16
f 104/110/93 121/128/16 105/111/16
f 105/111/16 121/128/16 122/129/108
f 105/111/16 122/129/108 106/112/94
f 106/112/94 122/129/108 123/130/109
f 106/112/94 123/130/109 107/113/95
f 107/113/95 123/130/109 124/131/110
f 107/113/95 124/131/110 108/114/96
f 108/114/96 124/131/110 125/132/111
f 108/114/96 125/132/111 109/115/97
f 109/115/97 125/132/111 126/133/112
f 109/115/97 126/133/112 110/116/98
f 110/116/98 126/133/112 127/134/113
f 110/116/98 127/134/113 111/117/99
f 111/117/99 127/134/113 128/135/114
f 111/117/99 128/135/114 112/118/100
f 112/118/100 128/135/114 113/136/1
f 112/118/100 113/136/1 97/119/1
f 113/120/1 129/137/1 130/138/115
f 113/120/1 130/138/115 114/121/101
f 114/121/101 130/138/115 131/139/116
f 114/121/101 131/139/116 115/122/102
f 115/122/102 131/139/116 132/140/117
f 115/122/102 132/140/117 116/123/103
f 116/123/103 132/140/117 133/141/118
f 116/123/103 133/141/118 117/124/104
f 117/124/104 133/141/118 134/142/119
f 117/124/104 134/142/119 118/125/105
f 118/125/105 134/142/119 135/143/120
f 118/125/105 135/143/120 119/126/106
f 119/126/106 135/143/120 136/144/121
f 119/126/106 136/144/121 120/127/107
f 120/127/107 136/144/121 137/145/16
f 120/127/107 137/145/16 121/128/16
f 121/128/16 137/145/16 138/146/122
f 121/128/16 138/146/122 122/129/108
f 122/129/108 138/146/122 139/147/123
f 122/129/108 139/147/123 123/130/109
f 123/130/109 139/147/123 140/148/124
f 123/130/109 140/148/124 124/131/110
f 124/131/110 140/148/124 141/149/125
f 124/131/110 141/149/125 125/132/111
f 125/132/111 141/149/125 142/150/126
f 125/132/111 142/150/126 126/133/112
f 126/133/112 142/150/126 143/151/127
f 126/133/112 143/151/127 127/134/113
f 127/134/113 143/151/127 144/152/128
f 127/134/113 144/152/128 128/135/114
f 128/135/114 144/152/128 129/153/1
f 128/135/114 129/153/1 113/136/1
f 129/137/1 145/154/1 146/155/129
f 129/137/1 146/155/129 130/138/115
f 130/138/115 146/155/129 147/156/130
f 130/138/115 147/156/130 131/139/116
f 131/139/116 147/156/130 148/157/131
f 131/139/116 148/157/131 132/140/117
f 132/140/117 148/157/131 149/158/132
f 132/140/117 149/158/132 133/141/118
f 133/141/118 149/158/132 150/159/133
f 133/141/118 150/159/133 134/142/119
f 134/142/119 150/159/133 151/160/134
f 134/142/119 151/160/134 135/143/120
f 135/143/120 151/160/134 152/161/135
f 135/143/120 152/161/135 136/144/121
f 136/144/121 152/161/135 153/162/16
f 136/144/121 153/162/16 137/145/16
f 137/145/16 153/162/16 154/163/136
f 137/145/16 154/163/136 138/146/122
f 138/146/122 154/163/136 155/164/137
f 138/146/122 155/164/137 139/147/123
f 139/147/123 155/164/137 156/165/138
f 139/147/123 156/165/138 140/148/124
f 140/148/124 156/165/138 157/166/139
f 140/148/124 157/166/139 141/149/125
f 141/149/125 157/166/139 158/167/140
f 141/149/125 158/167/140 142/150/126
f 142/150/126 158/167/140 159/168/141
f 142/150/126 159/168/141 143/151/127
f 143/151/127 159/168/141 160/169/142
f 143/151/127 160/169/142 144/152/128
f 144/152/128 160/169/142 145/170/1
f 144/152/128 145/170/1 129/153/1
f 145/154/1 161/171/1 162/172/143
f 145/154/1 162/172/143 146/155/129
f 146/155/129 162/172/143 163/173/144
f 146/155/129 163/173/144 147/156/130
f 147/156/130 163/173/144 164/174/145
f 147/156/130 164/174/145 148/157/131
f 148/157/131 164/174/145 165/175/146
f 148/157/131 165/175/146 149/158/132
f 149/158/132 165/175/146 166/176/147
f 149/158/132 166/176/147 150/159/133
f 150/159/133 166/176/147 167/177/148
f 150/159/133 167/177/148 151/160/134
f 151/160/134 167/177/148 168/178/149
f 151/160/134 168/178/149 152/161/135
f 152/161/135 168/178/149 169/179/16
f 152/161/135 169/179/16 153/162/16
f 153/162/16 169/179/16 170/180/150
f 153/162/16 170/180/150 154/163/136
f 154/163/136 170/180/150 171/181/151
f 154/163/136 171/181/151 155/164/137
f 155/164/137 171/181/151 172/182/152
f 155/164/137 172/182/152 156/165/138
f 156/165/138 172/182/152 173/183/153
f 156/165/138 173/183/153 157/166/139
f 157/166/139 173/183/153 174/184/154
f 157/166/139 174/184/154 158/167/140
f 158/167/140 174/184/154 175/185/155
f 158/167/140 175/185/155 159/168/141
f 159/168/141 175/185/155 176/186/156
f 159/168/141 176/186/156 160/169/142
f 160/169/142 176/186/156 161/187/1
f 160/169/142 161/187/1 145/170/1
f 161/171/1 177/188/1 178/189/157
f 161/171/1 178/189/157 162/172/143
f 162/172/143 178/189/157 179/190/158
f 162/172/143 179/190/158 163/173/144
f 163/173/144 179/190/158 180/191/159
f 163/173/144 180/191/159 164/174/145
f 164/174/145 180/191/159 181/192/160
f 164/174/145 181/192/160 165/175/146
f 165/175/146 181/192/160 182/193/161
f 165/175/146 182/193/161 166/176/147
f 166/176/147 182/193/161 183/194/162
f 166/176/147 183/194/162 167/177/148
f 167/177/148 183/194/162 184/195/163
f 167/177/148 184/195/163 168/178/149
f 168/178/149 184/195/163 185/196/16
f 168/178/149 185/196/16 169/179/16
f 169/179/16 185/196/16 186/197/164
f 169/179/16 186/197/164 170/180/150
f 170/180/150 186/197/164 187/198/165
f 170/180/150 187/198/165 171/181/151
f 171/181/151 187/198/165 188/199/166
f 171/181/151 188/199/166 172/182/152
f 172/182/152 188/199/166 189/200/167
f 172/182/152 189/200/167 173/183/153
f 173/183/153 189/200/167 190/201/168
f 173/183/153 190/201/168 174/184/154
f 174/184/154 190/201/168 191/202/169
f 174/184/154 191/202/169 175/185/155
f 175/185/155 191/202/169 192/203/170
f 175/185/155 192/203/170 176/186/156
f 176/186/156 192/203/170 177/204/1
f 176/186/156 177/204/1 161/187/1
f 177/188/1 193/205/1 194/206/171
f 177/188/1 194/206/171 178/189/157
f 178/189/157 194/206/171 195/207/172
f 178/189/157 195/207/172 179/190/158
f 179/190/158 195/207/172 196/208/173
f 179/190/158 196/208/173 180/191/159
f 180/191/159 196/208/173 197/209/174
f 180/191/159 197/209/174 181/192/160
f 181/192/160 197/209/174 198/210/175
f 181/192/160 198/210/175 182/193/161
f 182/193/161 198/210/175 199/211/176
f 182/193/161 199/211/176 183/194/162
f 183/194/162 199/211/176 200/212/177
f 183/194/162 200/212/177 184/195/163
f 184/195/163 200/212/177 201/213/16
f 184/195/163 201/213/16 185/196/16
f 185/196/16 201/213/16 202/214/178
f 185/196/16 202/214/178 186/197/164
f 186/197/164 202/214/178 203/215/179
f 186/197/164 203/215/179 187/198/165
f 187/198/165 203/215/179 204/216/180
f 187/198/165 204/216/180 188/199/166
f 188/199/166 204/216/180 205/217/181
f 188/199/166 205/217/181 189/200/167
f 189/200/167 205/217/181 206/218/182
f 189/200/167 206/218/182 190/201/168
f 190/201/168 206/218/182 207/219/183
f 190/201/168 207/219/183 191/202/169
f 191/202/169 207/219/183 208/220/184
f 191/202/169 208/220/184 192/203/170
f 192/203/170 208/220/184 193/221/1
f 192/203/170 193/221/1 177/204/1
