# Procedurally generated by dev-env-utils/scripts/gen_mast_arm_curves.py
# cell 2 of 8 at (+1 along arm, +1 up)
mtllib mastarmcurve.mtl
o mastarm_6x2_c2
v 0.781250 0.111111 1.000000
v 0.780729 0.157022 0.916667
v 0.759360 0.251301 0.968171
v 0.759841 0.205196 1.052270
v 0.698505 0.331227 1.011834
v 0.698874 0.284958 1.096582
v 0.607430 0.384632 1.041009
v 0.607630 0.338253 1.126190
v 0.500000 0.403385 1.051254
v 0.500000 0.356968 1.136587
v 0.392570 0.384632 1.041009
v 0.392370 0.338253 1.126190
v 0.301495 0.331227 1.011834
v 0.301126 0.284958 1.096582
v 0.240640 0.251301 0.968171
v 0.240159 0.205196 1.052270
v 0.219271 0.157022 0.916667
v 0.218750 0.111111 1.000000
v 0.240640 0.062742 0.865162
v 0.240159 0.017026 0.947730
v 0.301495 -0.017184 0.821499
v 0.301126 -0.062736 0.903418
v 0.392570 -0.070589 0.792324
v 0.392370 -0.116031 0.873810
v 0.500000 -0.089342 0.782079
v 0.500000 -0.134746 0.863413
v 0.607430 -0.070589 0.792324
v 0.607630 -0.116031 0.873810
v 0.698505 -0.017184 0.821499
v 0.698874 -0.062736 0.903418
v 0.759360 0.062742 0.865162
v 0.759841 0.017026 0.947730
v 0.780208 0.202160 0.833333
v 0.758879 0.296630 0.884067
v 0.698137 0.376718 0.927077
v 0.607231 0.430231 0.955816
v 0.500000 0.449022 0.965907
v 0.392769 0.430231 0.955816
v 0.301863 0.376718 0.927077
v 0.241121 0.296630 0.884067
v 0.219792 0.202160 0.833333
v 0.241121 0.107691 0.782599
v 0.301863 0.027603 0.739589
v 0.392769 -0.025910 0.710851
v 0.500000 -0.044701 0.700759
v 0.607231 -0.025910 0.710851
v 0.698137 0.027603 0.739589
v 0.758879 0.107691 0.782599
v 0.779687 0.246528 0.750000
v 0.758398 0.341185 0.799958
v 0.697769 0.421432 0.842310
v 0.607032 0.475051 0.870609
v 0.500000 0.493879 0.880547
v 0.392968 0.475051 0.870609
v 0.302231 0.421432 0.842310
v 0.241602 0.341185 0.799958
v 0.220313 0.246528 0.750000
v 0.241602 0.151871 0.700042
v 0.302231 0.071624 0.657690
v 0.392968 0.018005 0.629391
v 0.500000 -0.000824 0.619453
v 0.607032 0.018005 0.629391
v 0.697769 0.071624 0.657690
v 0.758398 0.151871 0.700042
v 0.779167 0.290123 0.666667
v 0.757916 0.384964 0.715843
v 0.697401 0.465367 0.757534
v 0.606832 0.519090 0.785390
v 0.500000 0.537955 0.795172
v 0.393168 0.519090 0.785390
v 0.302599 0.465367 0.757534
v 0.242084 0.384964 0.715843
v 0.220833 0.290123 0.666667
v 0.242084 0.195282 0.617490
v 0.302599 0.114880 0.575800
v 0.393168 0.061157 0.547943
v 0.500000 0.042292 0.538161
v 0.606832 0.061157 0.547943
v 0.697401 0.114880 0.575800
v 0.757916 0.195282 0.617490
v 0.778646 0.332948 0.583333
v 0.757435 0.427969 0.631724
v 0.697032 0.508524 0.672747
v 0.606633 0.562349 0.700158
v 0.500000 0.581250 0.709783
v 0.393367 0.562349 0.700158
v 0.302968 0.508524 0.672747
v 0.242565 0.427969 0.631724
v 0.221354 0.332948 0.583333
v 0.242565 0.237926 0.534943
v 0.302968 0.157372 0.493920
v 0.393367 0.103546 0.466509
v 0.500000 0.084646 0.456883
v 0.606633 0.103546 0.466509
v 0.697032 0.157372 0.493920
v 0.757435 0.237926 0.534943
v 0.778125 0.375000 0.500000
v 0.756954 0.470197 0.547599
v 0.696664 0.550902 0.587951
v 0.606434 0.604827 0.614913
v 0.500000 0.623763 0.624381
v 0.393566 0.604827 0.614913
v 0.303336 0.550902 0.587951
v 0.243046 0.470197 0.547599
v 0.221875 0.375000 0.500000
v 0.243046 0.279803 0.452401
v 0.303336 0.199098 0.412049
v 0.393566 0.145173 0.385087
v 0.500000 0.126237 0.375619
v 0.606434 0.145173 0.385087
v 0.696664 0.199098 0.412049
v 0.756954 0.279803 0.452401
v 0.777604 0.416281 0.416667
v 0.756473 0.511650 0.463468
v 0.696296 0.592501 0.503145
v 0.606235 0.646524 0.529656
v 0.500000 0.665494 0.538966
v 0.393765 0.646524 0.529656
v 0.303704 0.592501 0.503145
v 0.243527 0.511650 0.463468
v 0.222396 0.416281 0.416667
v 0.243527 0.320911 0.369865
v 0.303704 0.240061 0.330188
v 0.393765 0.186038 0.303677
v 0.500000 0.167068 0.294368
v 0.606235 0.186038 0.303677
v 0.696296 0.240061 0.330188
v 0.756473 0.320911 0.369865
v 0.777083 0.456790 0.333333
v 0.755992 0.552328 0.379333
v 0.695928 0.633321 0.418330
v 0.606035 0.687439 0.444386
v 0.500000 0.706443 0.453536
v 0.393965 0.687439 0.444386
v 0.304072 0.633321 0.418330
v 0.244008 0.552328 0.379333
v 0.222917 0.456790 0.333333
v 0.244008 0.361252 0.287334
v 0.304072 0.280259 0.248337
v 0.393965 0.226141 0.222280
v 0.500000 0.207138 0.213130
v 0.606035 0.226141 0.222280
v 0.695928 0.280259 0.248337
v 0.755992 0.361252 0.287334
v 0.776563 0.496528 0.250000
v 0.755510 0.592230 0.295193
v 0.695559 0.673362 0.333505
v 0.605836 0.727573 0.359105
v 0.500000 0.746609 0.368094
v 0.394164 0.727573 0.359105
v 0.304441 0.673362 0.333505
v 0.244490 0.592230 0.295193
v 0.223438 0.496528 0.250000
v 0.244490 0.400826 0.204807
v 0.304441 0.319694 0.166495
v 0.394164 0.265483 0.140895
v 0.500000 0.246447 0.131906
v 0.605836 0.265483 0.140895
v 0.695559 0.319694 0.166495
v 0.755510 0.400826 0.204807
v 0.776042 0.535494 0.166667
v 0.755029 0.631356 0.211047
v 0.695191 0.712623 0.248671
v 0.605637 0.766924 0.273810
v 0.500000 0.785993 0.282638
v 0.394363 0.766924 0.273810
v 0.304809 0.712623 0.248671
v 0.244971 0.631356 0.211047
v 0.223958 0.535494 0.166667
v 0.244971 0.439632 0.122286
v 0.304809 0.358365 0.084662
v 0.394363 0.304063 0.059523
v 0.500000 0.284995 0.050695
v 0.605637 0.304063 0.059523
v 0.695191 0.358365 0.084662
v 0.755029 0.439632 0.122286
v 0.775521 0.573688 0.083333
v 0.754548 0.669705 0.126897
v 0.694823 0.751104 0.163828
v 0.605437 0.805494 0.188504
v 0.500000 0.824593 0.197170
v 0.394563 0.805494 0.188504
v 0.305177 0.751104 0.163828
v 0.245452 0.669705 0.126897
v 0.224479 0.573688 0.083333
v 0.245452 0.477671 0.039770
v 0.305177 0.396272 0.002839
v 0.394563 0.341883 -0.021838
v 0.500000 0.322784 -0.030503
v 0.605437 0.341883 -0.021838
v 0.694823 0.396272 0.002839
v 0.754548 0.477671 0.039770
v 0.775000 0.611111 0.000000
v 0.754067 0.707279 0.042741
v 0.694454 0.788806 0.078975
v 0.605238 0.843280 0.103186
v 0.500000 0.862409 0.111688
v 0.394762 0.843280 0.103186
v 0.305546 0.788806 0.078975
v 0.245933 0.707279 0.042741
v 0.225000 0.611111 0.000000
v 0.245933 0.514943 -0.042741
v 0.305546 0.433416 -0.078975
v 0.394762 0.378942 -0.103186
v 0.500000 0.359813 -0.111688
v 0.605238 0.378942 -0.103186
v 0.694454 0.433416 -0.078975
v 0.754067 0.514943 -0.042741
vt 0.250000 0.309326
vt 0.250000 0.356897
vt 0.281250 0.356897
vt 0.281250 0.309326
vt 0.312500 0.356897
vt 0.312500 0.309326
vt 0.343750 0.356897
vt 0.343750 0.309326
vt 0.375000 0.356897
vt 0.375000 0.309326
vt 0.406250 0.356897
vt 0.406250 0.309326
vt 0.437500 0.356897
vt 0.437500 0.309326
vt 0.468750 0.356897
vt 0.468750 0.309326
vt 0.500000 0.356897
vt 0.500000 0.309326
vt 0.531250 0.356897
vt 0.531250 0.309326
vt 0.562500 0.356897
vt 0.562500 0.309326
vt 0.593750 0.356897
vt 0.593750 0.309326
vt 0.625000 0.356897
vt 0.625000 0.309326
vt 0.656250 0.356897
vt 0.656250 0.309326
vt 0.687500 0.356897
vt 0.687500 0.309326
vt 0.718750 0.356897
vt 0.718750 0.309326
vt 0.750000 0.356897
vt 0.750000 0.309326
vt 0.250000 0.404284
vt 0.281250 0.404284
vt 0.312500 0.404284
vt 0.343750 0.404284
vt 0.375000 0.404284
vt 0.406250 0.404284
vt 0.437500 0.404284
vt 0.468750 0.404284
vt 0.500000 0.404284
vt 0.531250 0.404284
vt 0.562500 0.404284
vt 0.593750 0.404284
vt 0.625000 0.404284
vt 0.656250 0.404284
vt 0.687500 0.404284
vt 0.718750 0.404284
vt 0.750000 0.404284
vt 0.250000 0.451488
vt 0.281250 0.451488
vt 0.312500 0.451488
vt 0.343750 0.451488
vt 0.375000 0.451488
vt 0.406250 0.451488
vt 0.437500 0.451488
vt 0.468750 0.451488
vt 0.500000 0.451488
vt 0.531250 0.451488
vt 0.562500 0.451488
vt 0.593750 0.451488
vt 0.625000 0.451488
vt 0.656250 0.451488
vt 0.687500 0.451488
vt 0.718750 0.451488
vt 0.750000 0.451488
vt 0.250000 0.498512
vt 0.281250 0.498512
vt 0.312500 0.498512
vt 0.343750 0.498512
vt 0.375000 0.498512
vt 0.406250 0.498512
vt 0.437500 0.498512
vt 0.468750 0.498512
vt 0.500000 0.498512
vt 0.531250 0.498512
vt 0.562500 0.498512
vt 0.593750 0.498512
vt 0.625000 0.498512
vt 0.656250 0.498512
vt 0.687500 0.498512
vt 0.718750 0.498512
vt 0.750000 0.498512
vt 0.250000 0.545358
vt 0.281250 0.545358
vt 0.312500 0.545358
vt 0.343750 0.545358
vt 0.375000 0.545358
vt 0.406250 0.545358
vt 0.437500 0.545358
vt 0.468750 0.545358
vt 0.500000 0.545358
vt 0.531250 0.545358
vt 0.562500 0.545358
vt 0.593750 0.545358
vt 0.625000 0.545358
vt 0.656250 0.545358
vt 0.687500 0.545358
vt 0.718750 0.545358
vt 0.750000 0.545358
vt 0.250000 0.592030
vt 0.281250 0.592030
vt 0.312500 0.592030
vt 0.343750 0.592030
vt 0.375000 0.592030
vt 0.406250 0.592030
vt 0.437500 0.592030
vt 0.468750 0.592030
vt 0.500000 0.592030
vt 0.531250 0.592030
vt 0.562500 0.592030
vt 0.593750 0.592030
vt 0.625000 0.592030
vt 0.656250 0.592030
vt 0.687500 0.592030
vt 0.718750 0.592030
vt 0.750000 0.592030
vt 0.250000 0.638529
vt 0.281250 0.638529
vt 0.312500 0.638529
vt 0.343750 0.638529
vt 0.375000 0.638529
vt 0.406250 0.638529
vt 0.437500 0.638529
vt 0.468750 0.638529
vt 0.500000 0.638529
vt 0.531250 0.638529
vt 0.562500 0.638529
vt 0.593750 0.638529
vt 0.625000 0.638529
vt 0.656250 0.638529
vt 0.687500 0.638529
vt 0.718750 0.638529
vt 0.750000 0.638529
vt 0.250000 0.684857
vt 0.281250 0.684857
vt 0.312500 0.684857
vt 0.343750 0.684857
vt 0.375000 0.684857
vt 0.406250 0.684857
vt 0.437500 0.684857
vt 0.468750 0.684857
vt 0.500000 0.684857
vt 0.531250 0.684857
vt 0.562500 0.684857
vt 0.593750 0.684857
vt 0.625000 0.684857
vt 0.656250 0.684857
vt 0.687500 0.684857
vt 0.718750 0.684857
vt 0.750000 0.684857
vt 0.250000 0.731019
vt 0.281250 0.731019
vt 0.312500 0.731019
vt 0.343750 0.731019
vt 0.375000 0.731019
vt 0.406250 0.731019
vt 0.437500 0.731019
vt 0.468750 0.731019
vt 0.500000 0.731019
vt 0.531250 0.731019
vt 0.562500 0.731019
vt 0.593750 0.731019
vt 0.625000 0.731019
vt 0.656250 0.731019
vt 0.687500 0.731019
vt 0.718750 0.731019
vt 0.750000 0.731019
vt 0.250000 0.722984
vt 0.281250 0.722984
vt 0.312500 0.722984
vt 0.343750 0.722984
vt 0.375000 0.722984
vt 0.406250 0.722984
vt 0.437500 0.722984
vt 0.468750 0.722984
vt 0.500000 0.722984
vt 0.531250 0.722984
vt 0.562500 0.722984
vt 0.593750 0.722984
vt 0.625000 0.722984
vt 0.656250 0.722984
vt 0.687500 0.722984
vt 0.718750 0.722984
vt 0.750000 0.722984
vt 0.250000 0.677150
vt 0.281250 0.677150
vt 0.312500 0.677150
vt 0.343750 0.677150
vt 0.375000 0.677150
vt 0.406250 0.677150
vt 0.437500 0.677150
vt 0.468750 0.677150
vt 0.500000 0.677150
vt 0.531250 0.677150
vt 0.562500 0.677150
vt 0.593750 0.677150
vt 0.625000 0.677150
vt 0.656250 0.677150
vt 0.687500 0.677150
vt 0.718750 0.677150
vt 0.750000 0.677150
vt 0.250000 0.631475
vt 0.281250 0.631475
vt 0.312500 0.631475
vt 0.343750 0.631475
vt 0.375000 0.631475
vt 0.406250 0.631475
vt 0.437500 0.631475
vt 0.468750 0.631475
vt 0.500000 0.631475
vt 0.531250 0.631475
vt 0.562500 0.631475
vt 0.593750 0.631475
vt 0.625000 0.631475
vt 0.656250 0.631475
vt 0.687500 0.631475
vt 0.718750 0.631475
vt 0.750000 0.631475
vn 1.000000 0.000000 0.000000
vn 0.923880 0.335837 0.183467
vn 0.923880 0.334526 0.185848
vn 0.707107 0.620546 0.339002
vn 0.707107 0.618123 0.343401
vn 0.382683 0.810783 0.442928
vn 0.382683 0.807616 0.448676
vn 0.000000 0.877585 0.479421
vn 0.000000 0.874157 0.485643
vn -0.382683 0.810783 0.442928
vn -0.382683 0.807616 0.448676
vn -0.707107 0.620546 0.339002
vn -0.707107 0.618123 0.343401
vn -0.923880 0.335837 0.183467
vn -0.923880 0.334526 0.185848
vn -1.000000 0.000000 0.000000
vn -0.923880 -0.335837 -0.183467
vn -0.923880 -0.334526 -0.185848
vn -0.707107 -0.620546 -0.339002
vn -0.707107 -0.618123 -0.343401
vn -0.382683 -0.810783 -0.442928
vn -0.382683 -0.807616 -0.448676
vn -0.000000 -0.877585 -0.479421
vn -0.000000 -0.874157 -0.485643
vn 0.382683 -0.810783 -0.442928
vn 0.382683 -0.807616 -0.448676
vn 0.707107 -0.620546 -0.339002
vn 0.707107 -0.618123 -0.343401
vn 0.923880 -0.335837 -0.183467
vn 0.923880 -0.334526 -0.185848
vn 0.923880 0.337142 0.181058
vn 0.707107 0.622957 0.334551
vn 0.382683 0.813933 0.437112
vn 0.000000 0.880994 0.473127
vn -0.382683 0.813933 0.437112
vn -0.707107 0.622957 0.334551
vn -0.923880 0.337142 0.181058
vn -0.923880 -0.337142 -0.181058
vn -0.707107 -0.622957 -0.334551
vn -0.382683 -0.813933 -0.437112
vn -0.000000 -0.880994 -0.473127
vn 0.382683 -0.813933 -0.437112
vn 0.707107 -0.622957 -0.334551
vn 0.923880 -0.337142 -0.181058
vn 0.923880 0.338439 0.178621
vn 0.707107 0.625354 0.330048
vn 0.382683 0.817065 0.431229
vn 0.000000 0.884385 0.466759
vn -0.382683 0.817065 0.431229
vn -0.707107 0.625354 0.330048
vn -0.923880 0.338439 0.178621
vn -0.923880 -0.338439 -0.178621
vn -0.707107 -0.625354 -0.330048
vn -0.382683 -0.817065 -0.431229
vn -0.000000 -0.884385 -0.466759
vn 0.382683 -0.817065 -0.431229
vn 0.707107 -0.625354 -0.330048
vn 0.923880 -0.338439 -0.178621
vn 0.923880 0.339729 0.176156
vn 0.707107 0.627737 0.325493
vn 0.382683 0.820178 0.425278
vn 0.000000 0.887755 0.460317
vn -0.382683 0.820178 0.425278
vn -0.707107 0.627737 0.325493
vn -0.923880 0.339729 0.176156
vn -0.923880 -0.339729 -0.176156
vn -0.707107 -0.627737 -0.325493
vn -0.382683 -0.820178 -0.425278
vn -0.000000 -0.887755 -0.460317
vn 0.382683 -0.820178 -0.425278
vn 0.707107 -0.627737 -0.325493
vn 0.923880 -0.339729 -0.176156
vn 0.923880 0.341010 0.173663
vn 0.707107 0.630105 0.320887
vn 0.382683 0.823271 0.419259
vn 0.000000 0.891102 0.453802
vn -0.382683 0.823271 0.419259
vn -0.707107 0.630105 0.320887
vn -0.923880 0.341010 0.173663
vn -0.923880 -0.341010 -0.173663
vn -0.707107 -0.630105 -0.320887
vn -0.382683 -0.823271 -0.419259
vn -0.000000 -0.891102 -0.453802
vn 0.382683 -0.823271 -0.419259
vn 0.707107 -0.630105 -0.320887
vn 0.923880 -0.341010 -0.173663
vn 0.923880 0.342282 0.171141
vn 0.707107 0.632456 0.316228
vn 0.382683 0.826343 0.413171
vn 0.000000 0.894427 0.447214
vn -0.382683 0.826343 0.413171
vn -0.707107 0.632456 0.316228
vn -0.923880 0.342282 0.171141
vn -0.923880 -0.342282 -0.171141
vn -0.707107 -0.632456 -0.316228
vn -0.382683 -0.826343 -0.413171
vn -0.000000 -0.894427 -0.447214
vn 0.382683 -0.826343 -0.413171
vn 0.707107 -0.632456 -0.316228
vn 0.923880 -0.342282 -0.171141
vn 0.923880 0.343545 0.168592
vn 0.707107 0.634789 0.311517
vn 0.382683 0.829392 0.407016
vn 0.000000 0.897727 0.440551
vn -0.382683 0.829392 0.407016
vn -0.707107 0.634789 0.311517
vn -0.923880 0.343545 0.168592
vn -0.923880 -0.343545 -0.168592
vn -0.707107 -0.634789 -0.311517
vn -0.382683 -0.829392 -0.407016
vn -0.000000 -0.897727 -0.440551
vn 0.382683 -0.829392 -0.407016
vn 0.707107 -0.634789 -0.311517
vn 0.923880 -0.343545 -0.168592
vn 0.923880 0.344798 0.166014
vn 0.707107 0.637104 0.306754
vn 0.382683 0.832417 0.400793
vn 0.000000 0.901002 0.433816
vn -0.382683 0.832417 0.400793
vn -0.707107 0.637104 0.306754
vn -0.923880 0.344798 0.166014
vn -0.923880 -0.344798 -0.166014
vn -0.707107 -0.637104 -0.306754
vn -0.382683 -0.832417 -0.400793
vn -0.000000 -0.901002 -0.433816
vn 0.382683 -0.832417 -0.400793
vn 0.707107 -0.637104 -0.306754
vn 0.923880 -0.344798 -0.166014
vn 0.923880 0.346041 0.163408
vn 0.707107 0.639400 0.301939
vn 0.382683 0.835417 0.394502
vn 0.000000 0.904249 0.427006
vn -0.382683 0.835417 0.394502
vn -0.707107 0.639400 0.301939
vn -0.923880 0.346041 0.163408
vn -0.923880 -0.346041 -0.163408
vn -0.707107 -0.639400 -0.301939
vn -0.382683 -0.835417 -0.394502
vn -0.000000 -0.904249 -0.427006
vn 0.382683 -0.835417 -0.394502
vn 0.707107 -0.639400 -0.301939
vn 0.923880 -0.346041 -0.163408
vn 0.923880 0.347273 0.160774
vn 0.707107 0.641676 0.297072
vn 0.382683 0.838390 0.388144
vn 0.000000 0.907467 0.420124
vn -0.382683 0.838390 0.388144
vn -0.707107 0.641676 0.297072
vn -0.923880 0.347273 0.160774
vn -0.923880 -0.347273 -0.160774
vn -0.707107 -0.641676 -0.297072
vn -0.382683 -0.838390 -0.388144
vn -0.000000 -0.907467 -0.420124
vn 0.382683 -0.838390 -0.388144
vn 0.707107 -0.641676 -0.297072
vn 0.923880 -0.347273 -0.160774
vn 0.923880 0.348493 0.158112
vn 0.707107 0.643930 0.292154
vn 0.382683 0.841336 0.381717
vn 0.000000 0.910655 0.413168
vn -0.382683 0.841336 0.381717
vn -0.707107 0.643930 0.292154
vn -0.923880 0.348493 0.158112
vn -0.923880 -0.348493 -0.158112
vn -0.707107 -0.643930 -0.292154
vn -0.382683 -0.841336 -0.381717
vn -0.000000 -0.910655 -0.413168
vn 0.382683 -0.841336 -0.381717
vn 0.707107 -0.643930 -0.292154
vn 0.923880 -0.348493 -0.158112
vn 0.923880 0.349701 0.155422
vn 0.707107 0.646162 0.287183
vn 0.382683 0.844252 0.375223
vn 0.000000 0.913812 0.406138
vn -0.382683 0.844252 0.375223
vn -0.707107 0.646162 0.287183
vn -0.923880 0.349701 0.155422
vn -0.923880 -0.349701 -0.155422
vn -0.707107 -0.646162 -0.287183
vn -0.382683 -0.844252 -0.375223
vn -0.000000 -0.913812 -0.406138
vn 0.382683 -0.844252 -0.375223
vn 0.707107 -0.646162 -0.287183
vn 0.923880 -0.349701 -0.155422
usemtl body
f 1/1/1 2/2/1 3/3/2
f 1/1/1 3/3/2 4/4/3
f 4/4/3 3/3/2 5/5/4
f 4/4/3 5/5/4 6/6/5
f 6/6/5 5/5/4 7/7/6
f 6/6/5 7/7/6 8/8/7
f 8/8/7 7/7/6 9/9/8
f 8/8/7 9/9/8 10/10/9
f 10/10/9 9/9/8 11/11/10
f 10/10/9 11/11/10 12/12/11
f 12/12/11 11/11/10 13/13/12
f 12/12/11 13/13/12 14/14/13
f 14/14/13 13/13/12 15/15/14
f 14/14/13 15/15/14 16/16/15
f 16/16/15 15/15/14 17/17/16
f 16/16/15 17/17/16 18/18/16
f 18/18/16 17/17/16 19/19/17
f 18/18/16 19/19/17 20/20/18
f 20/20/18 19/19/17 21/21/19
f 20/20/18 21/21/19 22/22/20
f 22/22/20 21/21/19 23/23/21
f 22/22/20 23/23/21 24/24/22
f 24/24/22 23/23/21 25/25/23
f 24/24/22 25/25/23 26/26/24
f 26/26/24 25/25/23 27/27/25
f 26/26/24 27/27/25 28/28/26
f 28/28/26 27/27/25 29/29/27
f 28/28/26 29/29/27 30/30/28
f 30/30/28 29/29/27 31/31/29
f 30/30/28 31/31/29 32/32/30
f 32/32/30 31/31/29 2/33/1
f 32/32/30 2/33/1 1/34/1
f 2/2/1 33/35/1 34/36/31
f 2/2/1 34/36/31 3/3/2
f 3/3/2 34/36/31 35/37/32
f 3/3/2 35/37/32 5/5/4
f 5/5/4 35/37/32 36/38/33
f 5/5/4 36/38/33 7/7/6
f 7/7/6 36/38/33 37/39/34
f 7/7/6 37/39/34 9/9/8
f 9/9/8 37/39/34 38/40/35
f 9/9/8 38/40/35 11/11/10
f 11/11/10 38/40/35 39/41/36
f 11/11/10 39/41/36 13/13/12
f 13/13/12 39/41/36 40/42/37
f 13/13/12 40/42/37 15/15/14
f 15/15/14 40/42/37 41/43/16
f 15/15/14 41/43/16 17/17/16
f 17/17/16 41/43/16 42/44/38
f 17/17/16 42/44/38 19/19/17
f 19/19/17 42/44/38 43/45/39
f 19/19/17 43/45/39 21/21/19
f 21/21/19 43/45/39 44/46/40
f 21/21/19 44/46/40 23/23/21
f 23/23/21 44/46/40 45/47/41
f 23/23/21 45/47/41 25/25/23
f 25/25/23 45/47/41 46/48/42
f 25/25/23 46/48/42 27/27/25
f 27/27/25 46/48/42 47/49/43
f 27/27/25 47/49/43 29/29/27
f 29/29/27 47/49/43 48/50/44
f 29/29/27 48/50/44 31/31/29
f 31/31/29 48/50/44 33/51/1
f 31/31/29 33/51/1 2/33/1
f 33/35/1 49/52/1 50/53/45
f 33/35/1 50/53/45 34/36/31
f 34/36/31 50/53/45 51/54/46
f 34/36/31 51/54/46 35/37/32
f 35/37/32 51/54/46 52/55/47
f 35/37/32 52/55/47 36/38/33
f 36/38/33 52/55/47 53/56/48
f 36/38/33 53/56/48 37/39/34
f 37/39/34 53/56/48 54/57/49
f 37/39/34 54/57/49 38/40/35
f 38/40/35 54/57/49 55/58/50
f 38/40/35 55/58/50 39/41/36
f 39/41/36 55/58/50 56/59/51
f 39/41/36 56/59/51 40/42/37
f 40/42/37 56/59/51 57/60/16
f 40/42/37 57/60/16 41/43/16
f 41/43/16 57/60/16 58/61/52
f 41/43/16 58/61/52 42/44/38
f 42/44/38 58/61/52 59/62/53
f 42/44/38 59/62/53 43/45/39
f 43/45/39 59/62/53 60/63/54
f 43/45/39 60/63/54 44/46/40
f 44/46/40 60/63/54 61/64/55
f 44/46/40 61/64/55 45/47/41
f 45/47/41 61/64/55 62/65/56
f 45/47/41 62/65/56 46/48/42
f 46/48/42 62/65/56 63/66/57
f 46/48/42 63/66/57 47/49/43
f 47/49/43 63/66/57 64/67/58
f 47/49/43 64/67/58 48/50/44
f 48/50/44 64/67/58 49/68/1
f 48/50/44 49/68/1 33/51/1
f 49/52/1 65/69/1 66/70/59
f 49/52/1 66/70/59 50/53/45
f 50/53/45 66/70/59 67/71/60
f 50/53/45 67/71/60 51/54/46
f 51/54/46 67/71/60 68/72/61
f 51/54/46 68/72/61 52/55/47
f 52/55/47 68/72/61 69/73/62
f 52/55/47 69/73/62 53/56/48
f 53/56/48 69/73/62 70/74/63
f 53/56/48 70/74/63 54/57/49
f 54/57/49 70/74/63 71/75/64
f 54/57/49 71/75/64 55/58/50
f 55/58/50 71/75/64 72/76/65
f 55/58/50 72/76/65 56/59/51
f 56/59/51 72/76/65 73/77/16
f 56/59/51 73/77/16 57/60/16
f 57/60/16 73/77/16 74/78/66
f 57/60/16 74/78/66 58/61/52
f 58/61/52 74/78/66 75/79/67
f 58/61/52 75/79/67 59/62/53
f 59/62/53 75/79/67 76/80/68
f 59/62/53 76/80/68 60/63/54
f 60/63/54 76/80/68 77/81/69
f 60/63/54 77/81/69 61/64/55
f 61/64/55 77/81/69 78/82/70
f 61/64/55 78/82/70 62/65/56
f 62/65/56 78/82/70 79/83/71
f 62/65/56 79/83/71 63/66/57
f 63/66/57 79/83/71 80/84/72
f 63/66/57 80/84/72 64/67/58
f 64/67/58 80/84/72 65/85/1
f 64/67/58 65/85/1 49/68/1
f 65/69/1 81/86/1 82/87/73
f 65/69/1 82/87/73 66/70/59
f 66/70/59 82/87/73 83/88/74
f 66/70/59 83/88/74 67/71/60
f 67/71/60 83/88/74 84/89/75
f 67/71/60 84/89/75 68/72/61
f 68/72/61 84/89/75 85/90/76
f 68/72/61 85/90/76 69/73/62
f 69/73/62 85/90/76 86/91/77
f 69/73/62 86/91/77 70/74/63
f 70/74/63 86/91/77 87/92/78
f 70/74/63 87/92/78 71/75/64
f 71/75/64 87/92/78 88/93/79
f 71/75/64 88/93/79 72/76/65
f 72/76/65 88/93/79 89/94/16
f 72/76/65 89/94/16 73/77/16
f 73/77/16 89/94/16 90/95/80
f 73/77/16 90/95/80 74/78/66
f 74/78/66 90/95/80 91/96/81
f 74/78/66 91/96/81 75/79/67
f 75/79/67 91/96/81 92/97/82
f 75/79/67 92/97/82 76/80/68
f 76/80/68 92/97/82 93/98/83
f 76/80/68 93/98/83 77/81/69
f 77/81/69 93/98/83 94/99/84
f 77/81/69 94/99/84 78/82/70
f 78/82/70 94/99/84 95/100/85
f 78/82/70 95/100/85 79/83/71
f 79/83/71 95/100/85 96/101/86
f 79/83/71 96/101/86 80/84/72
f 80/84/72 96/101/86 81/102/1
f 80/84/72 81/102/1 65/85/1
f 81/86/1 97/103/1 98/104/87
f 81/86/1 98/104/87 82/87/73
f 82/87/73 98/104/87 99/105/88
f 82/87/73 99/105/88 83/88/74
f 83/88/74 99/105/88 100/106/89
f 83/88/74 100/106/89 84/89/75
f 84/89/75 100/106/89 101/107/90
f 84/89/75 101/107/90 85/90/76
f 85/90/76 101/107/90 102/108/91
f 85/90/76 102/108/91 86/91/77
f 86/91/77 102/108/91 103/109/92
f 86/91/77 103/109/92 87/92/78
f 87/92/78 103/109/92 104/110/93
f 87/92/78 104/110/93 88/93/79
f 88/93/79 104/110/93 105/111/16
f 88/93/79 105/111/16 89/94/16
f 89/94/16 105/111/16 106/112/94
f 89/94/16 106/112/94 90/95/80
f 90/95/80 106/112/94 107/113/95
f 90/95/80 107/113/95 91/96/81
f 91/96/81 107/113/95 108/114/96
f 91/96/81 108/114/96 92/97/82
f 92/97/82 108/114/96 109/115/97
f 92/97/82 109/115/97 93/98/83
f 93/98/83 109/115/97 110/116/98
f 93/98/83 110/116/98 94/99/84
f 94/99/84 110/116/98 111/117/99
f 94/99/84 111/117/99 95/100/85
f 95/100/85 111/117/99 112/118/100
f 95/100/85 112/118/100 96/101/86
f 96/101/86 112/118/100 97/119/1
f 96/101/86 97/119/1 81/102/1
f 97/103/1 113/120/1 114/121/101
f 97/103/1 114/121/101 98/104/87
f 98/104/87 114/121/101 115/122/102
f 98/104/87 115/122/102 99/105/88
f 99/105/88 115/122/102 116/123/103
f 99/105/88 116/123/103 100/106/89
f 100/106/89 116/123/103 117/124/104
f 100/106/89 117/124/104 101/107/90
f 101/107/90 117/124/104 118/125/105
f 101/107/90 118/125/105 102/108/91
f 102/108/91 118/125/105 119/126/106
f 102/108/91 119/126/106 103/109/92
f 103/109/92 119/126/106 120/127/107
f 103/109/92 120/127/107 104/110/93
f 104/110/93 120/127/107 121/128/16
f 104/110/93 121/128/16 105/111/16
f 105/111/16 121/128/16 122/129/108
f 105/111/16 122/129/108 106/112/94
f 106/112/94 122/129/108 123/130/109
f 106/112/94 123/130/109 107/113/95
f 107/113/95 123/130/109 124/131/110
f 107/113/95 124/131/110 108/114/96
f 108/114/96 124/131/110 125/132/111
f 108/114/96 125/132/111 109/115/97
f 109/115/97 125/132/111 126/133/112
f 109/115/97 126/133/112 110/116/98
f 110/116/98 126/133/112 127/134/113
f 110/116/98 127/134/113 111/117/99
f 111/117/99 127/134/113 128/135/114
f 111/117/99 128/135/114 112/118/100
f 112/118/100 128/135/114 113/136/1
f 112/118/100 113/136/1 97/119/1
f 113/120/1 129/137/1 130/138/115
f 113/120/1 130/138/115 114/121/101
f 114/121/101 130/138/115 131/139/116
f 114/121/101 131/139/116 115/122/102
f 115/122/102 131/139/116 132/140/117
f 115/122/102 132/140/117 116/123/103
f 116/123/103 132/140/117 133/141/118
f 116/123/103 133/141/118 117/124/104
f 117/124/104 133/141/118 134/142/119
f 117/124/104 134/142/119 118/125/105
f 118/125/105 134/142/119 135/143/120
f 118/125/105 135/143/120 119/126/106
f 119/126/106 135/143/120 136/144/121
f 119/126/106 136/144/121 120/127/107
f 120/127/107 136/144/121 137/145/16
f 120/127/107 137/145/16 121/128/16
f 121/128/16 137/145/16 138/146/122
f 121/128/16 138/146/122 122/129/108
f 122/129/108 138/146/122 139/147/123
f 122/129/108 139/147/123 123/130/109
f 123/130/109 139/147/123 140/148/124
f 123/130/109 140/148/124 124/131/110
f 124/131/110 140/148/124 141/149/125
f 124/131/110 141/149/125 125/132/111
f 125/132/111 141/149/125 142/150/126
f 125/132/111 142/150/126 126/133/112
f 126/133/112 142/150/126 143/151/127
f 126/133/112 143/151/127 127/134/113
f 127/134/113 143/151/127 144/152/128
f 127/134/113 144/152/128 128/135/114
f 128/135/114 144/152/128 129/153/1
f 128/135/114 129/153/1 113/136/1
f 129/137/1 145/154/1 146/155/129
f 129/137/1 146/155/129 130/138/115
f 130/138/115 146/155/129 147/156/130
f 130/138/115 147/156/130 131/139/116
f 131/139/116 147/156/130 148/157/131
f 131/139/116 148/157/131 132/140/117
f 132/140/117 148/157/131 149/158/132
f 132/140/117 149/158/132 133/141/118
f 133/141/118 149/158/132 150/159/133
f 133/141/118 150/159/133 134/142/119
f 134/142/119 150/159/133 151/160/134
f 134/142/119 151/160/134 135/143/120
f 135/143/120 151/160/134 152/161/135
f 135/143/120 152/161/135 136/144/121
f 136/144/121 152/161/135 153/162/16
f 136/144/121 153/162/16 137/145/16
f 137/145/16 153/162/16 154/163/136
f 137/145/16 154/163/136 138/146/122
f 138/146/122 154/163/136 155/164/137
f 138/146/122 155/164/137 139/147/123
f 139/147/123 155/164/137 156/165/138
f 139/147/123 156/165/138 140/148/124
f 140/148/124 156/165/138 157/166/139
f 140/148/124 157/166/139 141/149/125
f 141/149/125 157/166/139 158/167/140
f 141/149/125 158/167/140 142/150/126
f 142/150/126 158/167/140 159/168/141
f 142/150/126 159/168/141 143/151/127
f 143/151/127 159/168/141 160/169/142
f 143/151/127 160/169/142 144/152/128
f 144/152/128 160/169/142 145/170/1
f 144/152/128 145/170/1 129/153/1
f 145/154/1 161/171/1 162/172/143
f 145/154/1 162/172/143 146/155/129
f 146/155/129 162/172/143 163/173/144
f 146/155/129 163/173/144 147/156/130
f 147/156/130 163/173/144 164/174/145
f 147/156/130 164/174/145 148/157/131
f 148/157/131 164/174/145 165/175/146
f 148/157/131 165/175/146 149/158/132
f 149/158/132 165/175/146 166/176/147
f 149/158/132 166/176/147 150/159/133
f 150/159/133 166/176/147 167/177/148
f 150/159/133 167/177/148 151/160/134
f 151/160/134 167/177/148 168/178/149
f 151/160/134 168/178/149 152/161/135
f 152/161/135 168/178/149 169/179/16
f 152/161/135 169/179/16 153/162/16
f 153/162/16 169/179/16 170/180/150
f 153/162/16 170/180/150 154/163/136
f 154/163/136 170/180/150 171/181/151
f 154/163/136 171/181/151 155/164/137
f 155/164/137 171/181/151 172/182/152
f 155/164/137 172/182/152 156/165/138
f 156/165/138 172/182/152 173/183/153
f 156/165/138 173/183/153 157/166/139
f 157/166/139 173/183/153 174/184/154
f 157/166/139 174/184/154 158/167/140
f 158/167/140 174/184/154 175/185/155
f 158/167/140 175/185/155 159/168/141
f 159/168/141 175/185/155 176/186/156
f 159/168/141 176/186/156 160/169/142
f 160/169/142 176/186/156 161/187/1
f 160/169/142 161/187/1 145/170/1
f 161/171/1 177/188/1 178/189/157
f 161/171/1 178/189/157 162/172/143
f 162/172/143 178/189/157 179/190/158
f 162/172/143 179/190/158 163/173/144
f 163/173/144 179/190/158 180/191/159
f 163/173/144 180/191/159 164/174/145
f 164/174/145 180/191/159 181/192/160
f 164/174/145 181/192/160 165/175/146
f 165/175/146 181/192/160 182/193/161
f 165/175/146 182/193/161 166/176/147
f 166/176/147 182/193/161 183/194/162
f 166/176/147 183/194/162 167/177/148
f 167/177/148 183/194/162 184/195/163
f 167/177/148 184/195/163 168/178/149
f 168/178/149 184/195/163 185/196/16
f 168/178/149 185/196/16 169/179/16
f 169/179/16 185/196/16 186/197/164
f 169/179/16 186/197/164 170/180/150
f 170/180/150 186/197/164 187/198/165
f 170/180/150 187/198/165 171/181/151
f 171/181/151 187/198/165 188/199/166
f 171/181/151 188/199/166 172/182/152
f 172/182/152 188/199/166 189/200/167
f 172/182/152 189/200/167 173/183/153
f 173/183/153 189/200/167 190/201/168
f 173/183/153 190/201/168 174/184/154
f 174/184/154 190/201/168 191/202/169
f 174/184/154 191/202/169 175/185/155
f 175/185/155 191/202/169 192/203/170
f 175/185/155 192/203/170 176/186/156
f 176/186/156 192/203/170 177/204/1
f 176/186/156 177/204/1 161/187/1
f 177/188/1 193/205/1 194/206/171
f 177/188/1 194/206/171 178/189/157
f 178/189/157 194/206/171 195/207/172
f 178/189/157 195/207/172 179/190/158
f 179/190/158 195/207/172 196/208/173
f 179/190/158 196/208/173 180/191/159
f 180/191/159 196/208/173 197/209/174
f 180/191/159 197/209/174 181/192/160
f 181/192/160 197/209/174 198/210/175
f 181/192/160 198/210/175 182/193/161
f 182/193/161 198/210/175 199/211/176
f 182/193/161 199/211/176 183/194/162
f 183/194/162 199/211/176 200/212/177
f 183/194/162 200/212/177 184/195/163
f 184/195/163 200/212/177 201/213/16
f 184/195/163 201/213/16 185/196/16
f 185/196/16 201/213/16 202/214/178
f 185/196/16 202/214/178 186/197/164
f 186/197/164 202/214/178 203/215/179
f 186/197/164 203/215/179 187/198/165
f 187/198/165 203/215/179 204/216/180
f 187/198/165 204/216/180 188/199/166
f 188/199/166 204/216/180 205/217/181
f 188/199/166 205/217/181 189/200/167
f 189/200/167 205/217/181 206/218/182
f 189/200/167 206/218/182 190/201/168
f 190/201/168 206/218/182 207/219/183
f 190/201/168 207/219/183 191/202/169
f 191/202/169 207/219/183 208/220/184
f 191/202/169 208/220/184 192/203/170
f 192/203/170 208/220/184 193/221/1
f 192/203/170 193/221/1 177/204/1
