# Procedurally generated by dev-env-utils/scripts/gen_mast_arm_curves.py
# mount hardware on cell 4, model-space east
mtllib mastarmcurve.mtl
o mastarm_10x2_c4_east
v 0.500000 0.285268 0.541923
v 0.500000 0.332715 0.360525
v 0.632837 0.358278 0.367212
v 0.632837 0.310831 0.548609
v 0.745450 0.431075 0.386253
v 0.745450 0.383628 0.567650
v 0.820696 0.540023 0.414749
v 0.820696 0.492576 0.596147
v 0.847119 0.668537 0.448364
v 0.847119 0.621090 0.629761
v 0.820696 0.797050 0.481978
v 0.820696 0.749603 0.663376
v 0.745450 0.905998 0.510475
v 0.745450 0.858552 0.691872
v 0.632837 0.978795 0.529516
v 0.632837 0.931349 0.710913
v 0.500000 1.004358 0.536202
v 0.500000 0.956911 0.717600
v 0.367163 0.978795 0.529516
v 0.367163 0.931349 0.710913
v 0.254550 0.905998 0.510475
v 0.254550 0.858552 0.691872
v 0.179304 0.797050 0.481978
v 0.179304 0.749603 0.663376
v 0.152881 0.668537 0.448364
v 0.152881 0.621090 0.629761
v 0.179304 0.540023 0.414749
v 0.179304 0.492576 0.596147
v 0.254550 0.431075 0.386253
v 0.254550 0.383628 0.567650
v 0.367163 0.358278 0.367212
v 0.367163 0.310831 0.548609
v 0.500000 0.621090 0.629761
v 0.500000 0.668537 0.448364
v 0.925000 0.300000 0.500000
v 0.999375 0.300000 0.500000
v 0.999375 0.358579 0.641421
v 0.925000 0.358579 0.641421
v 0.999375 0.500000 0.700000
v 0.925000 0.500000 0.700000
v 0.999375 0.641421 0.641421
v 0.925000 0.641421 0.641421
v 0.999375 0.700000 0.500000
v 0.925000 0.700000 0.500000
v 0.999375 0.641421 0.358579
v 0.925000 0.641421 0.358579
v 0.999375 0.500000 0.300000
v 0.925000 0.500000 0.300000
v 0.999375 0.358579 0.358579
v 0.925000 0.358579 0.358579
v 0.925000 0.500000 0.500000
v 0.999375 0.500000 0.500000
v 0.704847 0.481960 0.520103
v 0.887162 0.407435 0.500000
v 0.896931 0.417915 0.549742
v 0.714616 0.492441 0.569844
v 0.914221 0.450390 0.586155
v 0.731906 0.524915 0.606258
v 0.934399 0.496158 0.599483
v 0.752084 0.570683 0.619586
v 0.952059 0.542955 0.586155
v 0.769744 0.617480 0.606258
v 0.962468 0.578243 0.549742
v 0.780153 0.652768 0.569844
v 0.962838 0.592565 0.500000
v 0.780523 0.667090 0.520103
v 0.953069 0.582085 0.450258
v 0.770754 0.656610 0.470361
v 0.935779 0.549610 0.413845
v 0.753464 0.624135 0.433948
v 0.915601 0.503842 0.400517
v 0.733286 0.578367 0.420620
v 0.897941 0.457045 0.413845
v 0.715626 0.531570 0.433948
v 0.887532 0.421757 0.450258
v 0.705217 0.496283 0.470361
v 0.742685 0.574525 0.520103
vt 0.250000 0.750000
vt 0.250000 0.576440
vt 0.281250 0.576440
vt 0.281250 0.750000
vt 0.312500 0.576440
vt 0.312500 0.750000
vt 0.343750 0.576440
vt 0.343750 0.750000
vt 0.375000 0.576440
vt 0.375000 0.750000
vt 0.406250 0.576440
vt 0.406250 0.750000
vt 0.437500 0.576440
vt 0.437500 0.750000
vt 0.468750 0.576440
vt 0.468750 0.750000
vt 0.500000 0.576440
vt 0.500000 0.750000
vt 0.531250 0.576440
vt 0.531250 0.750000
vt 0.562500 0.576440
vt 0.562500 0.750000
vt 0.593750 0.576440
vt 0.593750 0.750000
vt 0.625000 0.576440
vt 0.625000 0.750000
vt 0.656250 0.576440
vt 0.656250 0.750000
vt 0.687500 0.576440
vt 0.687500 0.750000
vt 0.718750 0.576440
vt 0.718750 0.750000
vt 0.750000 0.576440
vt 0.750000 0.750000
vt 0.500000 0.500000
vt 0.400000 0.600000
vt 0.600000 0.400000
vt 0.250000 0.650000
vt 0.312500 0.650000
vt 0.375000 0.650000
vt 0.437500 0.650000
vt 0.500000 0.650000
vt 0.562500 0.650000
vt 0.625000 0.650000
vt 0.687500 0.650000
vt 0.750000 0.650000
vt 0.250000 0.700000
vt 0.291667 0.700000
vt 0.291667 0.750000
vt 0.333333 0.700000
vt 0.333333 0.750000
vt 0.375000 0.700000
vt 0.416667 0.700000
vt 0.416667 0.750000
vt 0.458333 0.700000
vt 0.458333 0.750000
vt 0.500000 0.700000
vt 0.541667 0.700000
vt 0.541667 0.750000
vt 0.583333 0.700000
vt 0.583333 0.750000
vt 0.625000 0.700000
vt 0.666667 0.700000
vt 0.666667 0.750000
vt 0.708333 0.700000
vt 0.708333 0.750000
vt 0.750000 0.700000
vn 0.000000 -0.967453 -0.253050
vn 0.382683 -0.893810 -0.233787
vn 0.707107 -0.684093 -0.178933
vn 0.923880 -0.370228 -0.096838
vn 1.000000 -0.000000 -0.000000
vn 0.923880 0.370228 0.096838
vn 0.707107 0.684093 0.178933
vn 0.382683 0.893810 0.233787
vn 0.000000 0.967453 0.253050
vn -0.382683 0.893810 0.233787
vn -0.707107 0.684093 0.178933
vn -0.923880 0.370228 0.096838
vn -1.000000 0.000000 0.000000
vn -0.923880 -0.370228 -0.096838
vn -0.707107 -0.684093 -0.178933
vn -0.382683 -0.893810 -0.233787
vn -0.000000 -0.253050 0.967453
vn 0.000000 0.253050 -0.967453
vn 0.000000 -1.000000 0.000000
vn 0.000000 -0.707107 0.707107
vn 0.000000 -0.000000 1.000000
vn -0.000000 0.707107 0.707107
vn -0.000000 1.000000 0.000000
vn 0.000000 0.707107 -0.707107
vn 0.000000 0.000000 -1.000000
vn 0.000000 -0.707107 -0.707107
vn -0.378380 -0.925650 0.000000
vn -0.280692 -0.820847 0.497416
vn -0.107793 -0.496098 0.861549
vn 0.093989 -0.038420 0.994832
vn 0.270587 0.429553 0.861549
vn 0.374681 0.782427 0.497416
vn 0.378380 0.925650 0.000000
vn 0.280692 0.820847 -0.497416
vn 0.107793 0.496098 -0.861549
vn -0.093989 0.038420 -0.994832
vn -0.270587 -0.429553 -0.861549
vn -0.374681 -0.782427 -0.497416
vn -0.920866 0.376424 0.101538
vn 0.920866 -0.376424 -0.101538
usemtl body
f 1/1/1 2/2/1 3/3/2
f 1/1/1 3/3/2 4/4/2
f 4/4/2 3/3/2 5/5/3
f 4/4/2 5/5/3 6/6/3
f 6/6/3 5/5/3 7/7/4
f 6/6/3 7/7/4 8/8/4
f 8/8/4 7/7/4 9/9/5
f 8/8/4 9/9/5 10/10/5
f 10/10/5 9/9/5 11/11/6
f 10/10/5 11/11/6 12/12/6
f 12/12/6 11/11/6 13/13/7
f 12/12/6 13/13/7 14/14/7
f 14/14/7 13/13/7 15/15/8
f 14/14/7 15/15/8 16/16/8
f 16/16/8 15/15/8 17/17/9
f 16/16/8 17/17/9 18/18/9
f 18/18/9 17/17/9 19/19/10
f 18/18/9 19/19/10 20/20/10
f 20/20/10 19/19/10 21/21/11
f 20/20/10 21/21/11 22/22/11
f 22/22/11 21/21/11 23/23/12
f 22/22/11 23/23/12 24/24/12
f 24/24/12 23/23/12 25/25/13
f 24/24/12 25/25/13 26/26/13
f 26/26/13 25/25/13 27/27/14
f 26/26/13 27/27/14 28/28/14
f 28/28/14 27/27/14 29/29/15
f 28/28/14 29/29/15 30/30/15
f 30/30/15 29/29/15 31/31/16
f 30/30/15 31/31/16 32/32/16
f 32/32/16 31/31/16 2/33/1
f 32/32/16 2/33/1 1/34/1
f 33/35/17 1/36/17 4/37/17
f 33/35/17 4/36/17 6/37/17
f 33/35/17 6/36/17 8/37/17
f 33/35/17 8/36/17 10/37/17
f 33/35/17 10/36/17 12/37/17
f 33/35/17 12/36/17 14/37/17
f 33/35/17 14/36/17 16/37/17
f 33/35/17 16/36/17 18/37/17
f 33/35/17 18/36/17 20/37/17
f 33/35/17 20/36/17 22/37/17
f 33/35/17 22/36/17 24/37/17
f 33/35/17 24/36/17 26/37/17
f 33/35/17 26/36/17 28/37/17
f 33/35/17 28/36/17 30/37/17
f 33/35/17 30/36/17 32/37/17
f 33/35/17 32/36/17 1/37/17
f 34/35/18 3/37/18 2/36/18
f 34/35/18 5/37/18 3/36/18
f 34/35/18 7/37/18 5/36/18
f 34/35/18 9/37/18 7/36/18
f 34/35/18 11/37/18 9/36/18
f 34/35/18 13/37/18 11/36/18
f 34/35/18 15/37/18 13/36/18
f 34/35/18 17/37/18 15/36/18
f 34/35/18 19/37/18 17/36/18
f 34/35/18 21/37/18 19/36/18
f 34/35/18 23/37/18 21/36/18
f 34/35/18 25/37/18 23/36/18
f 34/35/18 27/37/18 25/36/18
f 34/35/18 29/37/18 27/36/18
f 34/35/18 31/37/18 29/36/18
f 34/35/18 2/37/18 31/36/18
f 35/1/19 36/38/19 37/39/20
f 35/1/19 37/39/20 38/6/20
f 38/6/20 37/39/20 39/40/21
f 38/6/20 39/40/21 40/10/21
f 40/10/21 39/40/21 41/41/22
f 40/10/21 41/41/22 42/14/22
f 42/14/22 41/41/22 43/42/23
f 42/14/22 43/42/23 44/18/23
f 44/18/23 43/42/23 45/43/24
f 44/18/23 45/43/24 46/22/24
f 46/22/24 45/43/24 47/44/25
f 46/22/24 47/44/25 48/26/25
f 48/26/25 47/44/25 49/45/26
f 48/26/25 49/45/26 50/30/26
f 50/30/26 49/45/26 36/46/19
f 50/30/26 36/46/19 35/34/19
f 51/35/13 35/36/13 38/37/13
f 51/35/13 38/36/13 40/37/13
f 51/35/13 40/36/13 42/37/13
f 51/35/13 42/36/13 44/37/13
f 51/35/13 44/36/13 46/37/13
f 51/35/13 46/36/13 48/37/13
f 51/35/13 48/36/13 50/37/13
f 51/35/13 50/36/13 35/37/13
f 52/35/5 37/37/5 36/36/5
f 52/35/5 39/37/5 37/36/5
f 52/35/5 41/37/5 39/36/5
f 52/35/5 43/37/5 41/36/5
f 52/35/5 45/37/5 43/36/5
f 52/35/5 47/37/5 45/36/5
f 52/35/5 49/37/5 47/36/5
f 52/35/5 36/37/5 49/36/5
f 53/1/27 54/47/27 55/48/28
f 53/1/27 55/48/28 56/49/28
f 56/49/28 55/48/28 57/50/29
f 56/49/28 57/50/29 58/51/29
f 58/51/29 57/50/29 59/52/30
f 58/51/29 59/52/30 60/10/30
f 60/10/30 59/52/30 61/53/31
f 60/10/30 61/53/31 62/54/31
f 62/54/31 61/53/31 63/55/32
f 62/54/31 63/55/32 64/56/32
f 64/56/32 63/55/32 65/57/33
f 64/56/32 65/57/33 66/18/33
f 66/18/33 65/57/33 67/58/34
f 66/18/33 67/58/34 68/59/34
f 68/59/34 67/58/34 69/60/35
f 68/59/34 69/60/35 70/61/35
f 70/61/35 69/60/35 71/62/36
f 70/61/35 71/62/36 72/26/36
f 72/26/36 71/62/36 73/63/37
f 72/26/36 73/63/37 74/64/37
f 74/64/37 73/63/37 75/65/38
f 74/64/37 75/65/38 76/66/38
f 76/66/38 75/65/38 54/67/27
f 76/66/38 54/67/27 53/34/27
f 77/35/39 53/36/39 56/37/39
f 77/35/39 56/36/39 58/37/39
f 77/35/39 58/36/39 60/37/39
f 77/35/39 60/36/39 62/37/39
f 77/35/39 62/36/39 64/37/39
f 77/35/39 64/36/39 66/37/39
f 77/35/39 66/36/39 68/37/39
f 77/35/39 68/36/39 70/37/39
f 77/35/39 70/36/39 72/37/39
f 77/35/39 72/36/39 74/37/39
f 77/35/39 74/36/39 76/37/39
f 77/35/39 76/36/39 53/37/39
f 51/35/40 55/37/40 54/36/40
f 51/35/40 57/37/40 55/36/40
f 51/35/40 59/37/40 57/36/40
f 51/35/40 61/37/40 59/36/40
f 51/35/40 63/37/40 61/36/40
f 51/35/40 65/37/40 63/36/40
f 51/35/40 67/37/40 65/36/40
f 51/35/40 69/37/40 67/36/40
f 51/35/40 71/37/40 69/36/40
f 51/35/40 73/37/40 71/36/40
f 51/35/40 75/37/40 73/36/40
f 51/35/40 54/37/40 75/36/40
