# Procedurally generated by dev-env-utils/scripts/gen_mast_arm_curves.py
# mount hardware on cell 4, model-space east
mtllib mastarmcurve.mtl
o mastarm_5x1_c4_east
v 0.500000 0.077211 0.546765
v 0.500000 0.099436 0.360587
v 0.624335 0.123993 0.363518
v 0.624335 0.101768 0.549696
v 0.729741 0.193927 0.371866
v 0.729741 0.171702 0.558045
v 0.800171 0.298589 0.384361
v 0.800171 0.276364 0.570539
v 0.824902 0.422048 0.399098
v 0.824902 0.399823 0.585277
v 0.800171 0.545506 0.413836
v 0.800171 0.523281 0.600014
v 0.729741 0.650169 0.426330
v 0.729741 0.627944 0.612509
v 0.624335 0.720102 0.434679
v 0.624335 0.697877 0.620857
v 0.500000 0.744659 0.437610
v 0.500000 0.722434 0.623788
v 0.375665 0.720102 0.434679
v 0.375665 0.697877 0.620857
v 0.270259 0.650169 0.426330
v 0.270259 0.627944 0.612509
v 0.199829 0.545506 0.413836
v 0.199829 0.523281 0.600014
v 0.175098 0.422048 0.399098
v 0.175098 0.399823 0.585277
v 0.199829 0.298589 0.384361
v 0.199829 0.276364 0.570539
v 0.270259 0.193927 0.371866
v 0.270259 0.171702 0.558045
v 0.375665 0.123993 0.363518
v 0.375665 0.101768 0.549696
v 0.500000 0.399823 0.585277
v 0.500000 0.422048 0.399098
v 0.925000 0.300000 0.500000
v 0.999375 0.300000 0.500000
v 0.999375 0.358579 0.641421
v 0.925000 0.358579 0.641421
v 0.999375 0.500000 0.700000
v 0.925000 0.500000 0.700000
v 0.999375 0.641421 0.641421
v 0.925000 0.641421 0.641421
v 0.999375 0.700000 0.500000
v 0.925000 0.700000 0.500000
v 0.999375 0.641421 0.358579
v 0.925000 0.641421 0.358579
v 0.999375 0.500000 0.300000
v 0.925000 0.500000 0.300000
v 0.999375 0.358579 0.358579
v 0.925000 0.358579 0.358579
v 0.925000 0.500000 0.500000
v 0.999375 0.500000 0.500000
v 0.751412 0.354358 0.495743
v 0.948868 0.402890 0.500000
v 0.944654 0.415651 0.549989
v 0.747198 0.367118 0.545732
v 0.935174 0.451012 0.586584
v 0.737717 0.402480 0.582326
v 0.922967 0.499500 0.599978
v 0.725510 0.450968 0.595721
v 0.911305 0.548122 0.586584
v 0.713849 0.499589 0.582326
v 0.903313 0.583850 0.549989
v 0.705856 0.535317 0.545732
v 0.901132 0.597110 0.500000
v 0.703675 0.548577 0.495743
v 0.905346 0.584349 0.450011
v 0.707889 0.535817 0.445754
v 0.914826 0.548988 0.413416
v 0.717369 0.500455 0.409159
v 0.927033 0.500500 0.400022
v 0.729576 0.451967 0.395765
v 0.938695 0.451878 0.413416
v 0.741238 0.403345 0.409159
v 0.946687 0.416150 0.450011
v 0.749230 0.367618 0.445754
v 0.727543 0.451467 0.495743
vt 0.250000 0.750000
vt 0.250000 0.587549
vt 0.281250 0.587549
vt 0.281250 0.750000
vt 0.312500 0.587549
vt 0.312500 0.750000
vt 0.343750 0.587549
vt 0.343750 0.750000
vt 0.375000 0.587549
vt 0.375000 0.750000
vt 0.406250 0.587549
vt 0.406250 0.750000
vt 0.437500 0.587549
vt 0.437500 0.750000
vt 0.468750 0.587549
vt 0.468750 0.750000
vt 0.500000 0.587549
vt 0.500000 0.750000
vt 0.531250 0.587549
vt 0.531250 0.750000
vt 0.562500 0.587549
vt 0.562500 0.750000
vt 0.593750 0.587549
vt 0.593750 0.750000
vt 0.625000 0.587549
vt 0.625000 0.750000
vt 0.656250 0.587549
vt 0.656250 0.750000
vt 0.687500 0.587549
vt 0.687500 0.750000
vt 0.718750 0.587549
vt 0.718750 0.750000
vt 0.750000 0.587549
vt 0.750000 0.750000
vt 0.500000 0.500000
vt 0.400000 0.600000
vt 0.600000 0.400000
vt 0.250000 0.650000
vt 0.312500 0.650000
vt 0.375000 0.650000
vt 0.437500 0.650000
vt 0.500000 0.650000
vt 0.562500 0.650000
vt 0.625000 0.650000
vt 0.687500 0.650000
vt 0.750000 0.650000
vt 0.250000 0.700000
vt 0.291667 0.700000
vt 0.291667 0.750000
vt 0.333333 0.700000
vt 0.333333 0.750000
vt 0.375000 0.700000
vt 0.416667 0.700000
vt 0.416667 0.750000
vt 0.458333 0.700000
vt 0.458333 0.750000
vt 0.500000 0.700000
vt 0.541667 0.700000
vt 0.541667 0.750000
vt 0.583333 0.700000
vt 0.583333 0.750000
vt 0.625000 0.700000
vt 0.666667 0.700000
vt 0.666667 0.750000
vt 0.708333 0.700000
vt 0.708333 0.750000
vt 0.750000 0.700000
vn 0.000000 -0.992950 -0.118533
vn 0.382683 -0.917366 -0.109511
vn 0.707107 -0.702122 -0.083816
vn 0.923880 -0.379986 -0.045361
vn 1.000000 -0.000000 -0.000000
vn 0.923880 0.379986 0.045361
vn 0.707107 0.702122 0.083816
vn 0.382683 0.917366 0.109511
vn 0.000000 0.992950 0.118533
vn -0.382683 0.917366 0.109511
vn -0.707107 0.702122 0.083816
vn -0.923880 0.379986 0.045361
vn -1.000000 0.000000 0.000000
vn -0.923880 -0.379986 -0.045361
vn -0.707107 -0.702122 -0.083816
vn -0.382683 -0.917366 -0.109511
vn -0.000000 -0.118533 0.992950
vn 0.000000 0.118533 -0.992950
vn 0.000000 -1.000000 0.000000
vn 0.000000 -0.707107 0.707107
vn 0.000000 -0.000000 1.000000
vn -0.000000 0.707107 0.707107
vn -0.000000 1.000000 0.000000
vn 0.000000 0.707107 -0.707107
vn 0.000000 0.000000 -1.000000
vn 0.000000 -0.707107 -0.707107
vn 0.238685 -0.971097 0.000000
vn 0.196544 -0.843493 0.499890
vn 0.101739 -0.489875 0.865836
vn -0.020327 -0.004996 0.999781
vn -0.136946 0.481222 0.865836
vn -0.216871 0.838497 0.499890
vn -0.238685 0.971097 0.000000
vn -0.196544 0.843493 -0.499890
vn -0.101739 0.489875 -0.865836
vn 0.020327 0.004996 -0.999781
vn 0.136946 -0.481222 -0.865836
vn 0.216871 -0.838497 -0.499890
vn -0.970884 -0.238633 -0.020932
vn 0.970884 0.238633 0.020932
usemtl body
f 1/1/1 2/2/1 3/3/2
f 1/1/1 3/3/2 4/4/2
f 4/4/2 3/3/2 5/5/3
f 4/4/2 5/5/3 6/6/3
f 6/6/3 5/5/3 7/7/4
f 6/6/3 7/7/4 8/8/4
f 8/8/4 7/7/4 9/9/5
f 8/8/4 9/9/5 10/10/5
f 10/10/5 9/9/5 11/11/6
f 10/10/5 11/11/6 12/12/6
f 12/12/6 11/11/6 13/13/7
f 12/12/6 13/13/7 14/14/7
f 14/14/7 13/13/7 15/15/8
f 14/14/7 15/15/8 16/16/8
f 16/16/8 15/15/8 17/17/9
f 16/16/8 17/17/9 18/18/9
f 18/18/9 17/17/9 19/19/10
f 18/18/9 19/19/10 20/20/10
f 20/20/10 19/19/10 21/21/11
f 20/20/10 21/21/11 22/22/11
f 22/22/11 21/21/11 23/23/12
f 22/22/11 23/23/12 24/24/12
f 24/24/12 23/23/12 25/25/13
f 24/24/12 25/25/13 26/26/13
f 26/26/13 25/25/13 27/27/14
f 26/26/13 27/27/14 28/28/14
f 28/28/14 27/27/14 29/29/15
f 28/28/14 29/29/15 30/30/15
f 30/30/15 29/29/15 31/31/16
f 30/30/15 31/31/16 32/32/16
f 32/32/16 31/31/16 2/33/1
f 32/32/16 2/33/1 1/34/1
f 33/35/17 1/36/17 4/37/17
f 33/35/17 4/36/17 6/37/17
f 33/35/17 6/36/17 8/37/17
f 33/35/17 8/36/17 10/37/17
f 33/35/17 10/36/17 12/37/17
f 33/35/17 12/36/17 14/37/17
f 33/35/17 14/36/17 16/37/17
f 33/35/17 16/36/17 18/37/17
f 33/35/17 18/36/17 20/37/17
f 33/35/17 20/36/17 22/37/17
f 33/35/17 22/36/17 24/37/17
f 33/35/17 24/36/17 26/37/17
f 33/35/17 26/36/17 28/37/17
f 33/35/17 28/36/17 30/37/17
f 33/35/17 30/36/17 32/37/17
f 33/35/17 32/36/17 1/37/17
f 34/35/18 3/37/18 2/36/18
f 34/35/18 5/37/18 3/36/18
f 34/35/18 7/37/18 5/36/18
f 34/35/18 9/37/18 7/36/18
f 34/35/18 11/37/18 9/36/18
f 34/35/18 13/37/18 11/36/18
f 34/35/18 15/37/18 13/36/18
f 34/35/18 17/37/18 15/36/18
f 34/35/18 19/37/18 17/36/18
f 34/35/18 21/37/18 19/36/18
f 34/35/18 23/37/18 21/36/18
f 34/35/18 25/37/18 23/36/18
f 34/35/18 27/37/18 25/36/18
f 34/35/18 29/37/18 27/36/18
f 34/35/18 31/37/18 29/36/18
f 34/35/18 2/37/18 31/36/18
f 35/1/19 36/38/19 37/39/20
f 35/1/19 37/39/20 38/6/20
f 38/6/20 37/39/20 39/40/21
f 38/6/20 39/40/21 40/10/21
f 40/10/21 39/40/21 41/41/22
f 40/10/21 41/41/22 42/14/22
f 42/14/22 41/41/22 43/42/23
f 42/14/22 43/42/23 44/18/23
f 44/18/23 43/42/23 45/43/24
f 44/18/23 45/43/24 46/22/24
f 46/22/24 45/43/24 47/44/25
f 46/22/24 47/44/25 48/26/25
f 48/26/25 47/44/25 49/45/26
f 48/26/25 49/45/26 50/30/26
f 50/30/26 49/45/26 36/46/19
f 50/30/26 36/46/19 35/34/19
f 51/35/13 35/36/13 38/37/13
f 51/35/13 38/36/13 40/37/13
f 51/35/13 40/36/13 42/37/13
f 51/35/13 42/36/13 44/37/13
f 51/35/13 44/36/13 46/37/13
f 51/35/13 46/36/13 48/37/13
f 51/35/13 48/36/13 50/37/13
f 51/35/13 50/36/13 35/37/13
f 52/35/5 37/37/5 36/36/5
f 52/35/5 39/37/5 37/36/5
f 52/35/5 41/37/5 39/36/5
f 52/35/5 43/37/5 41/36/5
f 52/35/5 45/37/5 43/36/5
f 52/35/5 47/37/5 45/36/5
f 52/35/5 49/37/5 47/36/5
f 52/35/5 36/37/5 49/36/5
f 53/1/27 54/47/27 55/48/28
f 53/1/27 55/48/28 56/49/28
f 56/49/28 55/48/28 57/50/29
f 56/49/28 57/50/29 58/51/29
f 58/51/29 57/50/29 59/52/30
f 58/51/29 59/52/30 60/10/30
f 60/10/30 59/52/30 61/53/31
f 60/10/30 61/53/31 62/54/31
f 62/54/31 61/53/31 63/55/32
f 62/54/31 63/55/32 64/56/32
f 64/56/32 63/55/32 65/57/33
f 64/56/32 65/57/33 66/18/33
f 66/18/33 65/57/33 67/58/34
f 66/18/33 67/58/34 68/59/34
f 68/59/34 67/58/34 69/60/35
f 68/59/34 69/60/35 70/61/35
f 70/61/35 69/60/35 71/62/36
f 70/61/35 71/62/36 72/26/36
f 72/26/36 71/62/36 73/63/37
f 72/26/36 73/63/37 74/64/37
f 74/64/37 73/63/37 75/65/38
f 74/64/37 75/65/38 76/66/38
f 76/66/38 75/65/38 54/67/27
f 76/66/38 54/67/27 53/34/27
f 77/35/39 53/36/39 56/37/39
f 77/35/39 56/36/39 58/37/39
f 77/35/39 58/36/39 60/37/39
f 77/35/39 60/36/39 62/37/39
f 77/35/39 62/36/39 64/37/39
f 77/35/39 64/36/39 66/37/39
f 77/35/39 66/36/39 68/37/39
f 77/35/39 68/36/39 70/37/39
f 77/35/39 70/36/39 72/37/39
f 77/35/39 72/36/39 74/37/39
f 77/35/39 74/36/39 76/37/39
f 77/35/39 76/36/39 53/37/39
f 51/35/40 55/37/40 54/36/40
f 51/35/40 57/37/40 55/36/40
f 51/35/40 59/37/40 57/36/40
f 51/35/40 61/37/40 59/36/40
f 51/35/40 63/37/40 61/36/40
f 51/35/40 65/37/40 63/36/40
f 51/35/40 67/37/40 65/36/40
f 51/35/40 69/37/40 67/36/40
f 51/35/40 71/37/40 69/36/40
f 51/35/40 73/37/40 71/36/40
f 51/35/40 75/37/40 73/36/40
f 51/35/40 54/37/40 75/36/40
