# Procedurally generated by dev-env-utils/scripts/gen_mast_arm_curves.py
# cell 2 of 5 at (+1 along arm, +1 up)
mtllib mastarmcurve.mtl
o mastarm_4x1_c2
v 0.794194 0.000000 0.828427
v 0.792969 0.027344 0.750000
v 0.770668 0.133369 0.786446
v 0.771800 0.106144 0.865955
v 0.707160 0.223252 0.817344
v 0.708027 0.196129 0.897769
v 0.612114 0.283311 0.837989
v 0.612583 0.256255 0.919027
v 0.500000 0.304400 0.845238
v 0.500000 0.277369 0.926492
v 0.387886 0.283311 0.837989
v 0.387417 0.256255 0.919027
v 0.292840 0.223252 0.817344
v 0.291973 0.196129 0.897769
v 0.229332 0.133369 0.786446
v 0.228200 0.106144 0.865955
v 0.207031 0.027344 0.750000
v 0.205806 0.000000 0.828427
v 0.229332 -0.078681 0.713554
v 0.228200 -0.106144 0.790899
v 0.292840 -0.168565 0.682656
v 0.291973 -0.196129 0.759085
v 0.387886 -0.228623 0.662011
v 0.387417 -0.256255 0.737827
v 0.500000 -0.249713 0.654762
v 0.500000 -0.277369 0.730362
v 0.612114 -0.228623 0.662011
v 0.612583 -0.256255 0.737827
v 0.707160 -0.168565 0.682656
v 0.708027 -0.196129 0.759085
v 0.770668 -0.078681 0.713554
v 0.771800 -0.106144 0.790899
v 0.791667 0.055556 0.666667
v 0.769465 0.161444 0.701963
v 0.706239 0.251212 0.731885
v 0.611616 0.311192 0.751879
v 0.500000 0.332255 0.758900
v 0.388384 0.311192 0.751879
v 0.293761 0.251212 0.731885
v 0.230535 0.161444 0.701963
v 0.208333 0.055556 0.666667
v 0.230535 -0.050333 0.631371
v 0.293761 -0.140100 0.601448
v 0.388384 -0.200081 0.581454
v 0.500000 -0.221144 0.574434
v 0.611616 -0.200081 0.581454
v 0.706239 -0.140100 0.601448
v 0.769465 -0.050333 0.631371
v 0.790365 0.082899 0.583333
v 0.768262 0.188641 0.617479
v 0.705319 0.278284 0.646426
v 0.611118 0.338181 0.665768
v 0.500000 0.359215 0.672560
v 0.388882 0.338181 0.665768
v 0.294681 0.278284 0.646426
v 0.231738 0.188641 0.617479
v 0.209635 0.082899 0.583333
v 0.231738 -0.022842 0.549188
v 0.294681 -0.112485 0.520240
v 0.388882 -0.172383 0.500898
v 0.500000 -0.193416 0.494107
v 0.611118 -0.172383 0.500898
v 0.705319 -0.112485 0.520240
v 0.768262 -0.022842 0.549188
v 0.789062 0.109375 0.500000
v 0.767059 0.214959 0.532995
v 0.704398 0.304469 0.560967
v 0.610619 0.364277 0.579657
v 0.500000 0.385279 0.586220
v 0.389381 0.364277 0.579657
v 0.295602 0.304469 0.560967
v 0.232941 0.214959 0.532995
v 0.210938 0.109375 0.500000
v 0.232941 0.003791 0.467005
v 0.295602 -0.085719 0.439033
v 0.389381 -0.145527 0.420343
v 0.500000 -0.166529 0.413780
v 0.610619 -0.145527 0.420343
v 0.704398 -0.085719 0.439033
v 0.767059 0.003791 0.467005
v 0.787760 0.134983 0.416667
v 0.765856 0.240399 0.448511
v 0.703477 0.329767 0.475508
v 0.610121 0.389480 0.493546
v 0.500000 0.410449 0.499880
v 0.389879 0.389480 0.493546
v 0.296523 0.329767 0.475508
v 0.234144 0.240399 0.448511
v 0.212240 0.134983 0.416667
v 0.234144 0.029566 0.384822
v 0.296523 -0.059801 0.357826
v 0.389879 -0.119515 0.339787
v 0.500000 -0.140483 0.333453
v 0.610121 -0.119515 0.339787
v 0.703477 -0.059801 0.357826
v 0.765856 0.029566 0.384822
v 0.786458 0.159722 0.333333
v 0.764653 0.264960 0.364028
v 0.702557 0.354177 0.390049
v 0.609623 0.413789 0.407436
v 0.500000 0.434722 0.413542
v 0.390377 0.413789 0.407436
v 0.297443 0.354177 0.390049
v 0.235347 0.264960 0.364028
v 0.213542 0.159722 0.333333
v 0.235347 0.054484 0.302639
v 0.297443 -0.034732 0.276617
v 0.390377 -0.094345 0.259230
v 0.500000 -0.115278 0.253125
v 0.609623 -0.094345 0.259230
v 0.702557 -0.034732 0.276617
v 0.764653 0.054484 0.302639
v 0.785156 0.183594 0.250000
v 0.763450 0.288643 0.279545
v 0.701636 0.377699 0.304592
v 0.609125 0.437204 0.321328
v 0.500000 0.458100 0.327205
v 0.390875 0.437204 0.321328
v 0.298364 0.377699 0.304592
v 0.236550 0.288643 0.279545
v 0.214844 0.183594 0.250000
v 0.236550 0.078545 0.220455
v 0.298364 -0.010511 0.195408
v 0.390875 -0.070017 0.178672
v 0.500000 -0.090912 0.172795
v 0.609125 -0.070017 0.178672
v 0.701636 -0.010511 0.195408
v 0.763450 0.078545 0.220455
v 0.783854 0.206597 0.166667
v 0.762247 0.311446 0.195063
v 0.700715 0.400333 0.219137
v 0.608626 0.459725 0.235222
v 0.500000 0.480581 0.240871
v 0.391374 0.459725 0.235222
v 0.299285 0.400333 0.219137
v 0.237753 0.311446 0.195063
v 0.216146 0.206597 0.166667
v 0.237753 0.101748 0.138270
v 0.299285 0.012862 0.114197
v 0.391374 -0.046531 0.098111
v 0.500000 -0.067386 0.092463
v 0.608626 -0.046531 0.098111
v 0.700715 0.012862 0.114197
v 0.762247 0.101748 0.138270
v 0.782552 0.228733 0.083333
v 0.761044 0.333371 0.110583
v 0.699794 0.422079 0.133684
v 0.608128 0.481351 0.149119
v 0.500000 0.502165 0.154540
v 0.391872 0.481351 0.149119
v 0.300206 0.422079 0.133684
v 0.238956 0.333371 0.110583
v 0.217448 0.228733 0.083333
v 0.238956 0.124095 0.056084
v 0.300206 0.035387 0.032983
v 0.391872 -0.023886 0.017547
v 0.500000 -0.044700 0.012127
v 0.608128 -0.023886 0.017547
v 0.699794 0.035387 0.032983
v 0.761044 0.124095 0.056084
v 0.781250 0.250000 0.000000
v 0.759841 0.354416 0.026104
v 0.698874 0.442936 0.048234
v 0.607630 0.502083 0.063021
v 0.500000 0.522853 0.068213
v 0.392370 0.502083 0.063021
v 0.301126 0.442936 0.048234
v 0.240159 0.354416 0.026104
v 0.218750 0.250000 0.000000
v 0.240159 0.145584 -0.026104
v 0.301126 0.057064 -0.048234
v 0.392370 -0.002083 -0.063021
v 0.500000 -0.022853 -0.068213
v 0.607630 -0.002083 -0.063021
v 0.698874 0.057064 -0.048234
v 0.759841 0.145584 -0.026104
vt 0.250000 0.396222
vt 0.250000 0.437751
vt 0.281250 0.437751
vt 0.281250 0.396222
vt 0.312500 0.437751
vt 0.312500 0.396222
vt 0.343750 0.437751
vt 0.343750 0.396222
vt 0.375000 0.437751
vt 0.375000 0.396222
vt 0.406250 0.437751
vt 0.406250 0.396222
vt 0.437500 0.437751
vt 0.437500 0.396222
vt 0.468750 0.437751
vt 0.468750 0.396222
vt 0.500000 0.437751
vt 0.500000 0.396222
vt 0.531250 0.437751
vt 0.531250 0.396222
vt 0.562500 0.437751
vt 0.562500 0.396222
vt 0.593750 0.437751
vt 0.593750 0.396222
vt 0.625000 0.437751
vt 0.625000 0.396222
vt 0.656250 0.437751
vt 0.656250 0.396222
vt 0.687500 0.437751
vt 0.687500 0.396222
vt 0.718750 0.437751
vt 0.718750 0.396222
vt 0.750000 0.437751
vt 0.750000 0.396222
vt 0.250000 0.481740
vt 0.281250 0.481740
vt 0.312500 0.481740
vt 0.343750 0.481740
vt 0.375000 0.481740
vt 0.406250 0.481740
vt 0.437500 0.481740
vt 0.468750 0.481740
vt 0.500000 0.481740
vt 0.531250 0.481740
vt 0.562500 0.481740
vt 0.593750 0.481740
vt 0.625000 0.481740
vt 0.656250 0.481740
vt 0.687500 0.481740
vt 0.718750 0.481740
vt 0.750000 0.481740
vt 0.250000 0.525593
vt 0.281250 0.525593
vt 0.312500 0.525593
vt 0.343750 0.525593
vt 0.375000 0.525593
vt 0.406250 0.525593
vt 0.437500 0.525593
vt 0.468750 0.525593
vt 0.500000 0.525593
vt 0.531250 0.525593
vt 0.562500 0.525593
vt 0.593750 0.525593
vt 0.625000 0.525593
vt 0.656250 0.525593
vt 0.687500 0.525593
vt 0.718750 0.525593
vt 0.750000 0.525593
vt 0.250000 0.569312
vt 0.281250 0.569312
vt 0.312500 0.569312
vt 0.343750 0.569312
vt 0.375000 0.569312
vt 0.406250 0.569312
vt 0.437500 0.569312
vt 0.468750 0.569312
vt 0.500000 0.569312
vt 0.531250 0.569312
vt 0.562500 0.569312
vt 0.593750 0.569312
vt 0.625000 0.569312
vt 0.656250 0.569312
vt 0.687500 0.569312
vt 0.718750 0.569312
vt 0.750000 0.569312
vt 0.250000 0.612901
vt 0.281250 0.612901
vt 0.312500 0.612901
vt 0.343750 0.612901
vt 0.375000 0.612901
vt 0.406250 0.612901
vt 0.437500 0.612901
vt 0.468750 0.612901
vt 0.500000 0.612901
vt 0.531250 0.612901
vt 0.562500 0.612901
vt 0.593750 0.612901
vt 0.625000 0.612901
vt 0.656250 0.612901
vt 0.687500 0.612901
vt 0.718750 0.612901
vt 0.750000 0.612901
vt 0.250000 0.656365
vt 0.281250 0.656365
vt 0.312500 0.656365
vt 0.343750 0.656365
vt 0.375000 0.656365
vt 0.406250 0.656365
vt 0.437500 0.656365
vt 0.468750 0.656365
vt 0.500000 0.656365
vt 0.531250 0.656365
vt 0.562500 0.656365
vt 0.593750 0.656365
vt 0.625000 0.656365
vt 0.656250 0.656365
vt 0.687500 0.656365
vt 0.718750 0.656365
vt 0.750000 0.656365
vt 0.250000 0.699708
vt 0.281250 0.699708
vt 0.312500 0.699708
vt 0.343750 0.699708
vt 0.375000 0.699708
vt 0.406250 0.699708
vt 0.437500 0.699708
vt 0.468750 0.699708
vt 0.500000 0.699708
vt 0.531250 0.699708
vt 0.562500 0.699708
vt 0.593750 0.699708
vt 0.625000 0.699708
vt 0.656250 0.699708
vt 0.687500 0.699708
vt 0.718750 0.699708
vt 0.750000 0.699708
vt 0.250000 0.742933
vt 0.281250 0.742933
vt 0.312500 0.742933
vt 0.343750 0.742933
vt 0.375000 0.742933
vt 0.406250 0.742933
vt 0.437500 0.742933
vt 0.468750 0.742933
vt 0.500000 0.742933
vt 0.531250 0.742933
vt 0.562500 0.742933
vt 0.593750 0.742933
vt 0.625000 0.742933
vt 0.656250 0.742933
vt 0.687500 0.742933
vt 0.718750 0.742933
vt 0.750000 0.742933
vt 0.250000 0.713956
vt 0.281250 0.713956
vt 0.312500 0.713956
vt 0.343750 0.713956
vt 0.375000 0.713956
vt 0.406250 0.713956
vt 0.437500 0.713956
vt 0.468750 0.713956
vt 0.500000 0.713956
vt 0.531250 0.713956
vt 0.562500 0.713956
vt 0.593750 0.713956
vt 0.625000 0.713956
vt 0.656250 0.713956
vt 0.687500 0.713956
vt 0.718750 0.713956
vt 0.750000 0.713956
vt 0.250000 0.670953
vt 0.281250 0.670953
vt 0.312500 0.670953
vt 0.343750 0.670953
vt 0.375000 0.670953
vt 0.406250 0.670953
vt 0.437500 0.670953
vt 0.468750 0.670953
vt 0.500000 0.670953
vt 0.531250 0.670953
vt 0.562500 0.670953
vt 0.593750 0.670953
vt 0.625000 0.670953
vt 0.656250 0.670953
vt 0.687500 0.670953
vt 0.718750 0.670953
vt 0.750000 0.670953
vn 1.000000 0.000000 0.000000
vn 0.923880 0.361899 0.124403
vn 0.923880 0.360797 0.127561
vn 0.707107 0.668701 0.229866
vn 0.707107 0.666667 0.235702
vn 0.382683 0.873700 0.300335
vn 0.382683 0.871042 0.307960
vn 0.000000 0.945687 0.325080
vn 0.000000 0.942809 0.333333
vn -0.382683 0.873700 0.300335
vn -0.382683 0.871042 0.307960
vn -0.707107 0.668701 0.229866
vn -0.707107 0.666667 0.235702
vn -0.923880 0.361899 0.124403
vn -0.923880 0.360797 0.127561
vn -1.000000 0.000000 0.000000
vn -0.923880 -0.361899 -0.124403
vn -0.923880 -0.360797 -0.127561
vn -0.707107 -0.668701 -0.229866
vn -0.707107 -0.666667 -0.235702
vn -0.382683 -0.873700 -0.300335
vn -0.382683 -0.871042 -0.307960
vn -0.000000 -0.945687 -0.325080
vn -0.000000 -0.942809 -0.333333
vn 0.382683 -0.873700 -0.300335
vn 0.382683 -0.871042 -0.307960
vn 0.707107 -0.668701 -0.229866
vn 0.707107 -0.666667 -0.235702
vn 0.923880 -0.361899 -0.124403
vn 0.923880 -0.360797 -0.127561
vn 0.923880 0.363045 0.121015
vn 0.707107 0.670820 0.223607
vn 0.382683 0.876469 0.292156
vn 0.000000 0.948683 0.316228
vn -0.382683 0.876469 0.292156
vn -0.707107 0.670820 0.223607
vn -0.923880 0.363045 0.121015
vn -0.923880 -0.363045 -0.121015
vn -0.707107 -0.670820 -0.223607
vn -0.382683 -0.876469 -0.292156
vn -0.000000 -0.948683 -0.316228
vn 0.382683 -0.876469 -0.292156
vn 0.707107 -0.670820 -0.223607
vn 0.923880 -0.363045 -0.121015
vn 0.923880 0.364167 0.117596
vn 0.707107 0.672894 0.217289
vn 0.382683 0.879178 0.283901
vn 0.000000 0.951615 0.307292
vn -0.382683 0.879178 0.283901
vn -0.707107 0.672894 0.217289
vn -0.923880 0.364167 0.117596
vn -0.923880 -0.364167 -0.117596
vn -0.707107 -0.672894 -0.217289
vn -0.382683 -0.879178 -0.283901
vn -0.000000 -0.951615 -0.307292
vn 0.382683 -0.879178 -0.283901
vn 0.707107 -0.672894 -0.217289
vn 0.923880 -0.364167 -0.117596
vn 0.923880 0.365264 0.114145
vn 0.707107 0.674919 0.210912
vn 0.382683 0.881825 0.275570
vn 0.000000 0.954480 0.298275
vn -0.382683 0.881825 0.275570
vn -0.707107 0.674919 0.210912
vn -0.923880 0.365264 0.114145
vn -0.923880 -0.365264 -0.114145
vn -0.707107 -0.674919 -0.210912
vn -0.382683 -0.881825 -0.275570
vn -0.000000 -0.954480 -0.298275
vn 0.382683 -0.881825 -0.275570
vn 0.707107 -0.674919 -0.210912
vn 0.923880 -0.365264 -0.114145
vn 0.923880 0.366334 0.110663
vn 0.707107 0.676896 0.204479
vn 0.382683 0.884407 0.267165
vn 0.000000 0.957276 0.289177
vn -0.382683 0.884407 0.267165
vn -0.707107 0.676896 0.204479
vn -0.923880 0.366334 0.110663
vn -0.923880 -0.366334 -0.110663
vn -0.707107 -0.676896 -0.204479
vn -0.382683 -0.884407 -0.267165
vn -0.000000 -0.957276 -0.289177
vn 0.382683 -0.884407 -0.267165
vn 0.707107 -0.676896 -0.204479
vn 0.923880 -0.366334 -0.110663
vn 0.923880 0.367376 0.107151
vn 0.707107 0.678823 0.197990
vn 0.382683 0.886924 0.258686
vn 0.000000 0.960000 0.280000
vn -0.382683 0.886924 0.258686
vn -0.707107 0.678823 0.197990
vn -0.923880 0.367376 0.107151
vn -0.923880 -0.367376 -0.107151
vn -0.707107 -0.678823 -0.197990
vn -0.382683 -0.886924 -0.258686
vn -0.000000 -0.960000 -0.280000
vn 0.382683 -0.886924 -0.258686
vn 0.707107 -0.678823 -0.197990
vn 0.923880 -0.367376 -0.107151
vn 0.923880 0.368391 0.103610
vn 0.707107 0.680697 0.191446
vn 0.382683 0.889374 0.250136
vn 0.000000 0.962651 0.270746
vn -0.382683 0.889374 0.250136
vn -0.707107 0.680697 0.191446
vn -0.923880 0.368391 0.103610
vn -0.923880 -0.368391 -0.103610
vn -0.707107 -0.680697 -0.191446
vn -0.382683 -0.889374 -0.250136
vn -0.000000 -0.962651 -0.270746
vn 0.382683 -0.889374 -0.250136
vn 0.707107 -0.680697 -0.191446
vn 0.923880 -0.368391 -0.103610
vn 0.923880 0.369376 0.100039
vn 0.707107 0.682518 0.184849
vn 0.382683 0.891753 0.241516
vn 0.000000 0.965226 0.261415
vn -0.382683 0.891753 0.241516
vn -0.707107 0.682518 0.184849
vn -0.923880 0.369376 0.100039
vn -0.923880 -0.369376 -0.100039
vn -0.707107 -0.682518 -0.184849
vn -0.382683 -0.891753 -0.241516
vn -0.000000 -0.965226 -0.261415
vn 0.382683 -0.891753 -0.241516
vn 0.707107 -0.682518 -0.184849
vn 0.923880 -0.369376 -0.100039
vn 0.923880 0.370332 0.096441
vn 0.707107 0.684284 0.178199
vn 0.382683 0.894061 0.232828
vn 0.000000 0.967724 0.252012
vn -0.382683 0.894061 0.232828
vn -0.707107 0.684284 0.178199
vn -0.923880 0.370332 0.096441
vn -0.923880 -0.370332 -0.096441
vn -0.707107 -0.684284 -0.178199
vn -0.382683 -0.894061 -0.232828
vn -0.000000 -0.967724 -0.252012
vn 0.382683 -0.894061 -0.232828
vn 0.707107 -0.684284 -0.178199
vn 0.923880 -0.370332 -0.096441
vn 0.923880 0.371257 0.092814
vn 0.707107 0.685994 0.171499
vn 0.382683 0.896295 0.224074
vn 0.000000 0.970143 0.242536
vn -0.382683 0.896295 0.224074
vn -0.707107 0.685994 0.171499
vn -0.923880 0.371257 0.092814
vn -0.923880 -0.371257 -0.092814
vn -0.707107 -0.685994 -0.171499
vn -0.382683 -0.896295 -0.224074
vn -0.000000 -0.970143 -0.242536
vn 0.382683 -0.896295 -0.224074
vn 0.707107 -0.685994 -0.171499
vn 0.923880 -0.371257 -0.092814
usemtl body
f 1/1/1 2/2/1 3/3/2
f 1/1/1 3/3/2 4/4/3
f 4/4/3 3/3/2 5/5/4
f 4/4/3 5/5/4 6/6/5
f 6/6/5 5/5/4 7/7/6
f 6/6/5 7/7/6 8/8/7
f 8/8/7 7/7/6 9/9/8
f 8/8/7 9/9/8 10/10/9
f 10/10/9 9/9/8 11/11/10
f 10/10/9 11/11/10 12/12/11
f 12/12/11 11/11/10 13/13/12
f 12/12/11 13/13/12 14/14/13
f 14/14/13 13/13/12 15/15/14
f 14/14/13 15/15/14 16/16/15
f 16/16/15 15/15/14 17/17/16
f 16/16/15 17/17/16 18/18/16
f 18/18/16 17/17/16 19/19/17
f 18/18/16 19/19/17 20/20/18
f 20/20/18 19/19/17 21/21/19
f 20/20/18 21/21/19 22/22/20
f 22/22/20 21/21/19 23/23/21
f 22/22/20 23/23/21 24/24/22
f 24/24/22 23/23/21 25/25/23
f 24/24/22 25/25/23 26/26/24
f 26/26/24 25/25/23 27/27/25
f 26/26/24 27/27/25 28/28/26
f 28/28/26 27/27/25 29/29/27
f 28/28/26 29/29/27 30/30/28
f 30/30/28 29/29/27 31/31/29
f 30/30/28 31/31/29 32/32/30
f 32/32/30 31/31/29 2/33/1
f 32/32/30 2/33/1 1/34/1
f 2/2/1 33/35/1 34/36/31
f 2/2/1 34/36/31 3/3/2
f 3/3/2 34/36/31 35/37/32
f 3/3/2 35/37/32 5/5/4
f 5/5/4 35/37/32 36/38/33
f 5/5/4 36/38/33 7/7/6
f 7/7/6 36/38/33 37/39/34
f 7/7/6 37/39/34 9/9/8
f 9/9/8 37/39/34 38/40/35
f 9/9/8 38/40/35 11/11/10
f 11/11/10 38/40/35 39/41/36
f 11/11/10 39/41/36 13/13/12
f 13/13/12 39/41/36 40/42/37
f 13/13/12 40/42/37 15/15/14
f 15/15/14 40/42/37 41/43/16
f 15/15/14 41/43/16 17/17/16
f 17/17/16 41/43/16 42/44/38
f 17/17/16 42/44/38 19/19/17
f 19/19/17 42/44/38 43/45/39
f 19/19/17 43/45/39 21/21/19
f 21/21/19 43/45/39 44/46/40
f 21/21/19 44/46/40 23/23/21
f 23/23/21 44/46/40 45/47/41
f 23/23/21 45/47/41 25/25/23
f 25/25/23 45/47/41 46/48/42
f 25/25/23 46/48/42 27/27/25
f 27/27/25 46/48/42 47/49/43
f 27/27/25 47/49/43 29/29/27
f 29/29/27 47/49/43 48/50/44
f 29/29/27 48/50/44 31/31/29
f 31/31/29 48/50/44 33/51/1
f 31/31/29 33/51/1 2/33/1
f 33/35/1 49/52/1 50/53/45
f 33/35/1 50/53/45 34/36/31
f 34/36/31 50/53/45 51/54/46
f 34/36/31 51/54/46 35/37/32
f 35/37/32 51/54/46 52/55/47
f 35/37/32 52/55/47 36/38/33
f 36/38/33 52/55/47 53/56/48
f 36/38/33 53/56/48 37/39/34
f 37/39/34 53/56/48 54/57/49
f 37/39/34 54/57/49 38/40/35
f 38/40/35 54/57/49 55/58/50
f 38/40/35 55/58/50 39/41/36
f 39/41/36 55/58/50 56/59/51
f 39/41/36 56/59/51 40/42/37
f 40/42/37 56/59/51 57/60/16
f 40/42/37 57/60/16 41/43/16
f 41/43/16 57/60/16 58/61/52
f 41/43/16 58/61/52 42/44/38
f 42/44/38 58/61/52 59/62/53
f 42/44/38 59/62/53 43/45/39
f 43/45/39 59/62/53 60/63/54
f 43/45/39 60/63/54 44/46/40
f 44/46/40 60/63/54 61/64/55
f 44/46/40 61/64/55 45/47/41
f 45/47/41 61/64/55 62/65/56
f 45/47/41 62/65/56 46/48/42
f 46/48/42 62/65/56 63/66/57
f 46/48/42 63/66/57 47/49/43
f 47/49/43 63/66/57 64/67/58
f 47/49/43 64/67/58 48/50/44
f 48/50/44 64/67/58 49/68/1
f 48/50/44 49/68/1 33/51/1
f 49/52/1 65/69/1 66/70/59
f 49/52/1 66/70/59 50/53/45
f 50/53/45 66/70/59 67/71/60
f 50/53/45 67/71/60 51/54/46
f 51/54/46 67/71/60 68/72/61
f 51/54/46 68/72/61 52/55/47
f 52/55/47 68/72/61 69/73/62
f 52/55/47 69/73/62 53/56/48
f 53/56/48 69/73/62 70/74/63
f 53/56/48 70/74/63 54/57/49
f 54/57/49 70/74/63 71/75/64
f 54/57/49 71/75/64 55/58/50
f 55/58/50 71/75/64 72/76/65
f 55/58/50 72/76/65 56/59/51
f 56/59/51 72/76/65 73/77/16
f 56/59/51 73/77/16 57/60/16
f 57/60/16 73/77/16 74/78/66
f 57/60/16 74/78/66 58/61/52
f 58/61/52 74/78/66 75/79/67
f 58/61/52 75/79/67 59/62/53
f 59/62/53 75/79/67 76/80/68
f 59/62/53 76/80/68 60/63/54
f 60/63/54 76/80/68 77/81/69
f 60/63/54 77/81/69 61/64/55
f 61/64/55 77/81/69 78/82/70
f 61/64/55 78/82/70 62/65/56
f 62/65/56 78/82/70 79/83/71
f 62/65/56 79/83/71 63/66/57
f 63/66/57 79/83/71 80/84/72
f 63/66/57 80/84/72 64/67/58
f 64/67/58 80/84/72 65/85/1
f 64/67/58 65/85/1 49/68/1
f 65/69/1 81/86/1 82/87/73
f 65/69/1 82/87/73 66/70/59
f 66/70/59 82/87/73 83/88/74
f 66/70/59 83/88/74 67/71/60
f 67/71/60 83/88/74 84/89/75
f 67/71/60 84/89/75 68/72/61
f 68/72/61 84/89/75 85/90/76
f 68/72/61 85/90/76 69/73/62
f 69/73/62 85/90/76 86/91/77
f 69/73/62 86/91/77 70/74/63
f 70/74/63 86/91/77 87/92/78
f 70/74/63 87/92/78 71/75/64
f 71/75/64 87/92/78 88/93/79
f 71/75/64 88/93/79 72/76/65
f 72/76/65 88/93/79 89/94/16
f 72/76/65 89/94/16 73/77/16
f 73/77/16 89/94/16 90/95/80
f 73/77/16 90/95/80 74/78/66
f 74/78/66 90/95/80 91/96/81
f 74/78/66 91/96/81 75/79/67
f 75/79/67 91/96/81 92/97/82
f 75/79/67 92/97/82 76/80/68
f 76/80/68 92/97/82 93/98/83
f 76/80/68 93/98/83 77/81/69
f 77/81/69 93/98/83 94/99/84
f 77/81/69 94/99/84 78/82/70
f 78/82/70 94/99/84 95/100/85
f 78/82/70 95/100/85 79/83/71
f 79/83/71 95/100/85 96/101/86
f 79/83/71 96/101/86 80/84/72
f 80/84/72 96/101/86 81/102/1
f 80/84/72 81/102/1 65/85/1
f 81/86/1 97/103/1 98/104/87
f 81/86/1 98/104/87 82/87/73
f 82/87/73 98/104/87 99/105/88
f 82/87/73 99/105/88 83/88/74
f 83/88/74 99/105/88 100/106/89
f 83/88/74 100/106/89 84/89/75
f 84/89/75 100/106/89 101/107/90
f 84/89/75 101/107/90 85/90/76
f 85/90/76 101/107/90 102/108/91
f 85/90/76 102/108/91 86/91/77
f 86/91/77 102/108/91 103/109/92
f 86/91/77 103/109/92 87/92/78
f 87/92/78 103/109/92 104/110/93
f 87/92/78 104/110/93 88/93/79
f 88/93/79 104/110/93 105/111/16
f 88/93/79 105/111/16 89/94/16
f 89/94/16 105/111/16 106/112/94
f 89/94/16 106/112/94 90/95/80
f 90/95/80 106/112/94 107/113/95
f 90/95/80 107/113/95 91/96/81
f 91/96/81 107/113/95 108/114/96
f 91/96/81 108/114/96 92/97/82
f 92/97/82 108/114/96 109/115/97
f 92/97/82 109/115/97 93/98/83
f 93/98/83 109/115/97 110/116/98
f 93/98/83 110/116/98 94/99/84
f 94/99/84 110/116/98 111/117/99
f 94/99/84 111/117/99 95/100/85
f 95/100/85 111/117/99 112/118/100
f 95/100/85 112/118/100 96/101/86
f 96/101/86 112/118/100 97/119/1
f 96/101/86 97/119/1 81/102/1
f 97/103/1 113/120/1 114/121/101
f 97/103/1 114/121/101 98/104/87
f 98/104/87 114/121/101 115/122/102
f 98/104/87 115/122/102 99/105/88
f 99/105/88 115/122/102 116/123/103
f 99/105/88 116/123/103 100/106/89
f 100/106/89 116/123/103 117/124/104
f 100/106/89 117/124/104 101/107/90
f 101/107/90 117/124/104 118/125/105
f 101/107/90 118/125/105 102/108/91
f 102/108/91 118/125/105 119/126/106
f 102/108/91 119/126/106 103/109/92
f 103/109/92 119/126/106 120/127/107
f 103/109/92 120/127/107 104/110/93
f 104/110/93 120/127/107 121/128/16
f 104/110/93 121/128/16 105/111/16
f 105/111/16 121/128/16 122/129/108
f 105/111/16 122/129/108 106/112/94
f 106/112/94 122/129/108 123/130/109
f 106/112/94 123/130/109 107/113/95
f 107/113/95 123/130/109 124/131/110
f 107/113/95 124/131/110 108/114/96
f 108/114/96 124/131/110 125/132/111
f 108/114/96 125/132/111 109/115/97
f 109/115/97 125/132/111 126/133/112
f 109/115/97 126/133/112 110/116/98
f 110/116/98 126/133/112 127/134/113
f 110/116/98 127/134/113 111/117/99
f 111/117/99 127/134/113 128/135/114
f 111/117/99 128/135/114 112/118/100
f 112/118/100 128/135/114 113/136/1
f 112/118/100 113/136/1 97/119/1
f 113/120/1 129/137/1 130/138/115
f 113/120/1 130/138/115 114/121/101
f 114/121/101 130/138/115 131/139/116
f 114/121/101 131/139/116 115/122/102
f 115/122/102 131/139/116 132/140/117
f 115/122/102 132/140/117 116/123/103
f 116/123/103 132/140/117 133/141/118
f 116/123/103 133/141/118 117/124/104
f 117/124/104 133/141/118 134/142/119
f 117/124/104 134/142/119 118/125/105
f 118/125/105 134/142/119 135/143/120
f 118/125/105 135/143/120 119/126/106
f 119/126/106 135/143/120 136/144/121
f 119/126/106 136/144/121 120/127/107
f 120/127/107 136/144/121 137/145/16
f 120/127/107 137/145/16 121/128/16
f 121/128/16 137/145/16 138/146/122
f 121/128/16 138/146/122 122/129/108
f 122/129/108 138/146/122 139/147/123
f 122/129/108 139/147/123 123/130/109
f 123/130/109 139/147/123 140/148/124
f 123/130/109 140/148/124 124/131/110
f 124/131/110 140/148/124 141/149/125
f 124/131/110 141/149/125 125/132/111
f 125/132/111 141/149/125 142/150/126
f 125/132/111 142/150/126 126/133/112
f 126/133/112 142/150/126 143/151/127
f 126/133/112 143/151/127 127/134/113
f 127/134/113 143/151/127 144/152/128
f 127/134/113 144/152/128 128/135/114
f 128/135/114 144/152/128 129/153/1
f 128/135/114 129/153/1 113/136/1
f 129/137/1 145/154/1 146/155/129
f 129/137/1 146/155/129 130/138/115
f 130/138/115 146/155/129 147/156/130
f 130/138/115 147/156/130 131/139/116
f 131/139/116 147/156/130 148/157/131
f 131/139/116 148/157/131 132/140/117
f 132/140/117 148/157/131 149/158/132
f 132/140/117 149/158/132 133/141/118
f 133/141/118 149/158/132 150/159/133
f 133/141/118 150/159/133 134/142/119
f 134/142/119 150/159/133 151/160/134
f 134/142/119 151/160/134 135/143/120
f 135/143/120 151/160/134 152/161/135
f 135/143/120 152/161/135 136/144/121
f 136/144/121 152/161/135 153/162/16
f 136/144/121 153/162/16 137/145/16
f 137/145/16 153/162/16 154/163/136
f 137/145/16 154/163/136 138/146/122
f 138/146/122 154/163/136 155/164/137
f 138/146/122 155/164/137 139/147/123
f 139/147/123 155/164/137 156/165/138
f 139/147/123 156/165/138 140/148/124
f 140/148/124 156/165/138 157/166/139
f 140/148/124 157/166/139 141/149/125
f 141/149/125 157/166/139 158/167/140
f 141/149/125 158/167/140 142/150/126
f 142/150/126 158/167/140 159/168/141
f 142/150/126 159/168/141 143/151/127
f 143/151/127 159/168/141 160/169/142
f 143/151/127 160/169/142 144/152/128
f 144/152/128 160/169/142 145/170/1
f 144/152/128 145/170/1 129/153/1
f 145/154/1 161/171/1 162/172/143
f 145/154/1 162/172/143 146/155/129
f 146/155/129 162/172/143 163/173/144
f 146/155/129 163/173/144 147/156/130
f 147/156/130 163/173/144 164/174/145
f 147/156/130 164/174/145 148/157/131
f 148/157/131 164/174/145 165/175/146
f 148/157/131 165/175/146 149/158/132
f 149/158/132 165/175/146 166/176/147
f 149/158/132 166/176/147 150/159/133
f 150/159/133 166/176/147 167/177/148
f 150/159/133 167/177/148 151/160/134
f 151/160/134 167/177/148 168/178/149
f 151/160/134 168/178/149 152/161/135
f 152/161/135 168/178/149 169/179/16
f 152/161/135 169/179/16 153/162/16
f 153/162/16 169/179/16 170/180/150
f 153/162/16 170/180/150 154/163/136
f 154/163/136 170/180/150 171/181/151
f 154/163/136 171/181/151 155/164/137
f 155/164/137 171/181/151 172/182/152
f 155/164/137 172/182/152 156/165/138
f 156/165/138 172/182/152 173/183/153
f 156/165/138 173/183/153 157/166/139
f 157/166/139 173/183/153 174/184/154
f 157/166/139 174/184/154 158/167/140
f 158/167/140 174/184/154 175/185/155
f 158/167/140 175/185/155 159/168/141
f 159/168/141 175/185/155 176/186/156
f 159/168/141 176/186/156 160/169/142
f 160/169/142 176/186/156 161/187/1
f 160/169/142 161/187/1 145/170/1
