# Procedurally generated by dev-env-utils/scripts/gen_mast_arm_curves.py
# mount hardware on cell 9, model-space up
mtllib mastarmcurve.mtl
o mastarm_10x2_c9_up
v 0.500000 0.052107 0.499611
v 0.500000 0.070302 0.312996
v 0.623027 0.094658 0.315370
v 0.623027 0.076463 0.501985
v 0.727324 0.164018 0.322133
v 0.727324 0.145823 0.508748
v 0.797013 0.267823 0.332254
v 0.797013 0.249628 0.518869
v 0.821484 0.390269 0.344192
v 0.821484 0.372074 0.530808
v 0.797013 0.512715 0.356131
v 0.797013 0.494521 0.542746
v 0.727324 0.616520 0.366252
v 0.727324 0.598325 0.552867
v 0.623027 0.685880 0.373015
v 0.623027 0.667685 0.559630
v 0.500000 0.710236 0.375389
v 0.500000 0.692042 0.562004
v 0.376973 0.685880 0.373015
v 0.376973 0.667685 0.559630
v 0.272676 0.616520 0.366252
v 0.272676 0.598325 0.552867
v 0.202987 0.512715 0.356131
v 0.202987 0.494521 0.542746
v 0.178516 0.390269 0.344192
v 0.178516 0.372074 0.530808
v 0.202987 0.267823 0.332254
v 0.202987 0.249628 0.518869
v 0.272676 0.164018 0.322133
v 0.272676 0.145823 0.508748
v 0.376973 0.094658 0.315370
v 0.376973 0.076463 0.501985
v 0.500000 0.372074 0.530808
v 0.500000 0.390269 0.344192
v 0.700000 0.925000 0.500000
v 0.700000 0.999375 0.500000
v 0.641421 0.999375 0.641421
v 0.641421 0.925000 0.641421
v 0.500000 0.999375 0.700000
v 0.500000 0.925000 0.700000
v 0.358579 0.999375 0.641421
v 0.358579 0.925000 0.641421
v 0.300000 0.999375 0.500000
v 0.300000 0.925000 0.500000
v 0.358579 0.999375 0.358579
v 0.358579 0.925000 0.358579
v 0.500000 0.999375 0.300000
v 0.500000 0.925000 0.300000
v 0.641421 0.999375 0.358579
v 0.641421 0.925000 0.358579
v 0.500000 0.925000 0.500000
v 0.500000 0.999375 0.500000
v 0.600000 0.607754 0.460384
v 0.600000 0.925000 0.500000
v 0.586603 0.918804 0.549615
v 0.586603 0.601558 0.509999
v 0.550000 0.914269 0.585935
v 0.550000 0.597022 0.546319
v 0.500000 0.912609 0.599229
v 0.500000 0.595362 0.559613
v 0.450000 0.914269 0.585935
v 0.450000 0.597022 0.546319
v 0.413397 0.918804 0.549615
v 0.413397 0.601558 0.509999
v 0.400000 0.925000 0.500000
v 0.400000 0.607754 0.460384
v 0.413397 0.931196 0.450385
v 0.413397 0.613949 0.410769
v 0.450000 0.935731 0.414065
v 0.450000 0.618485 0.374449
v 0.500000 0.937391 0.400771
v 0.500000 0.620145 0.361155
v 0.550000 0.935731 0.414065
v 0.550000 0.618485 0.374449
v 0.586603 0.931196 0.450385
v 0.586603 0.613949 0.410769
v 0.500000 0.607754 0.460384
vt 0.250000 0.750000
vt 0.250000 0.589258
vt 0.281250 0.589258
vt 0.281250 0.750000
vt 0.312500 0.589258
vt 0.312500 0.750000
vt 0.343750 0.589258
vt 0.343750 0.750000
vt 0.375000 0.589258
vt 0.375000 0.750000
vt 0.406250 0.589258
vt 0.406250 0.750000
vt 0.437500 0.589258
vt 0.437500 0.750000
vt 0.468750 0.589258
vt 0.468750 0.750000
vt 0.500000 0.589258
vt 0.500000 0.750000
vt 0.531250 0.589258
vt 0.531250 0.750000
vt 0.562500 0.589258
vt 0.562500 0.750000
vt 0.593750 0.589258
vt 0.593750 0.750000
vt 0.625000 0.589258
vt 0.625000 0.750000
vt 0.656250 0.589258
vt 0.656250 0.750000
vt 0.687500 0.589258
vt 0.687500 0.750000
vt 0.718750 0.589258
vt 0.718750 0.750000
vt 0.750000 0.589258
vt 0.750000 0.750000
vt 0.500000 0.500000
vt 0.400000 0.600000
vt 0.600000 0.400000
vt 0.250000 0.650000
vt 0.312500 0.650000
vt 0.375000 0.650000
vt 0.437500 0.650000
vt 0.500000 0.650000
vt 0.562500 0.650000
vt 0.625000 0.650000
vt 0.687500 0.650000
vt 0.750000 0.650000
vt 0.250000 0.700000
vt 0.291667 0.700000
vt 0.291667 0.750000
vt 0.333333 0.700000
vt 0.333333 0.750000
vt 0.375000 0.700000
vt 0.416667 0.700000
vt 0.416667 0.750000
vt 0.458333 0.700000
vt 0.458333 0.750000
vt 0.500000 0.700000
vt 0.541667 0.700000
vt 0.541667 0.750000
vt 0.583333 0.700000
vt 0.583333 0.750000
vt 0.625000 0.700000
vt 0.666667 0.700000
vt 0.666667 0.750000
vt 0.708333 0.700000
vt 0.708333 0.750000
vt 0.750000 0.700000
vn 0.000000 -0.995280 -0.097040
vn 0.382683 -0.919519 -0.089653
vn 0.707107 -0.703770 -0.068618
vn 0.923880 -0.380877 -0.037136
vn 1.000000 -0.000000 -0.000000
vn 0.923880 0.380877 0.037136
vn 0.707107 0.703770 0.068618
vn 0.382683 0.919519 0.089653
vn 0.000000 0.995280 0.097040
vn -0.382683 0.919519 0.089653
vn -0.707107 0.703770 0.068618
vn -0.923880 0.380877 0.037136
vn -1.000000 0.000000 0.000000
vn -0.923880 -0.380877 -0.037136
vn -0.707107 -0.703770 -0.068618
vn -0.382683 -0.919519 -0.089653
vn -0.000000 -0.097040 0.995280
vn 0.000000 0.097040 -0.995280
vn 0.707107 0.000000 0.707107
vn 0.000000 0.000000 1.000000
vn -0.707107 0.000000 0.707107
vn -0.707107 -0.000000 -0.707107
vn -0.000000 -0.000000 -1.000000
vn 0.707107 0.000000 -0.707107
vn -0.000000 -1.000000 -0.000000
vn 0.000000 1.000000 0.000000
vn 0.866025 -0.061956 0.496147
vn 0.500000 -0.107311 0.859351
vn 0.000000 -0.123912 0.992293
vn -0.500000 -0.107311 0.859351
vn -0.866025 -0.061956 0.496147
vn -0.866025 0.061956 -0.496147
vn -0.500000 0.107311 -0.859351
vn -0.000000 0.123912 -0.992293
vn 0.500000 0.107311 -0.859351
vn 0.866025 0.061956 -0.496147
vn -0.000000 -0.992293 -0.123912
vn 0.000000 0.992293 0.123912
usemtl body
f 1/1/1 2/2/1 3/3/2
f 1/1/1 3/3/2 4/4/2
f 4/4/2 3/3/2 5/5/3
f 4/4/2 5/5/3 6/6/3
f 6/6/3 5/5/3 7/7/4
f 6/6/3 7/7/4 8/8/4
f 8/8/4 7/7/4 9/9/5
f 8/8/4 9/9/5 10/10/5
f 10/10/5 9/9/5 11/11/6
f 10/10/5 11/11/6 12/12/6
f 12/12/6 11/11/6 13/13/7
f 12/12/6 13/13/7 14/14/7
f 14/14/7 13/13/7 15/15/8
f 14/14/7 15/15/8 16/16/8
f 16/16/8 15/15/8 17/17/9
f 16/16/8 17/17/9 18/18/9
f 18/18/9 17/17/9 19/19/10
f 18/18/9 19/19/10 20/20/10
f 20/20/10 19/19/10 21/21/11
f 20/20/10 21/21/11 22/22/11
f 22/22/11 21/21/11 23/23/12
f 22/22/11 23/23/12 24/24/12
f 24/24/12 23/23/12 25/25/13
f 24/24/12 25/25/13 26/26/13
f 26/26/13 25/25/13 27/27/14
f 26/26/13 27/27/14 28/28/14
f 28/28/14 27/27/14 29/29/15
f 28/28/14 29/29/15 30/30/15
f 30/30/15 29/29/15 31/31/16
f 30/30/15 31/31/16 32/32/16
f 32/32/16 31/31/16 2/33/1
f 32/32/16 2/33/1 1/34/1
f 33/35/17 1/36/17 4/37/17
f 33/35/17 4/36/17 6/37/17
f 33/35/17 6/36/17 8/37/17
f 33/35/17 8/36/17 10/37/17
f 33/35/17 10/36/17 12/37/17
f 33/35/17 12/36/17 14/37/17
f 33/35/17 14/36/17 16/37/17
f 33/35/17 16/36/17 18/37/17
f 33/35/17 18/36/17 20/37/17
f 33/35/17 20/36/17 22/37/17
f 33/35/17 22/36/17 24/37/17
f 33/35/17 24/36/17 26/37/17
f 33/35/17 26/36/17 28/37/17
f 33/35/17 28/36/17 30/37/17
f 33/35/17 30/36/17 32/37/17
f 33/35/17 32/36/17 1/37/17
f 34/35/18 3/37/18 2/36/18
f 34/35/18 5/37/18 3/36/18
f 34/35/18 7/37/18 5/36/18
f 34/35/18 9/37/18 7/36/18
f 34/35/18 11/37/18 9/36/18
f 34/35/18 13/37/18 11/36/18
f 34/35/18 15/37/18 13/36/18
f 34/35/18 17/37/18 15/36/18
f 34/35/18 19/37/18 17/36/18
f 34/35/18 21/37/18 19/36/18
f 34/35/18 23/37/18 21/36/18
f 34/35/18 25/37/18 23/36/18
f 34/35/18 27/37/18 25/36/18
f 34/35/18 29/37/18 27/36/18
f 34/35/18 31/37/18 29/36/18
f 34/35/18 2/37/18 31/36/18
f 35/1/5 36/38/5 37/39/19
f 35/1/5 37/39/19 38/6/19
f 38/6/19 37/39/19 39/40/20
f 38/6/19 39/40/20 40/10/20
f 40/10/20 39/40/20 41/41/21
f 40/10/20 41/41/21 42/14/21
f 42/14/21 41/41/21 43/42/13
f 42/14/21 43/42/13 44/18/13
f 44/18/13 43/42/13 45/43/22
f 44/18/13 45/43/22 46/22/22
f 46/22/22 45/43/22 47/44/23
f 46/22/22 47/44/23 48/26/23
f 48/26/23 47/44/23 49/45/24
f 48/26/23 49/45/24 50/30/24
f 50/30/24 49/45/24 36/46/5
f 50/30/24 36/46/5 35/34/5
f 51/35/25 35/36/25 38/37/25
f 51/35/25 38/36/25 40/37/25
f 51/35/25 40/36/25 42/37/25
f 51/35/25 42/36/25 44/37/25
f 51/35/25 44/36/25 46/37/25
f 51/35/25 46/36/25 48/37/25
f 51/35/25 48/36/25 50/37/25
f 51/35/25 50/36/25 35/37/25
f 52/35/26 37/37/26 36/36/26
f 52/35/26 39/37/26 37/36/26
f 52/35/26 41/37/26 39/36/26
f 52/35/26 43/37/26 41/36/26
f 52/35/26 45/37/26 43/36/26
f 52/35/26 47/37/26 45/36/26
f 52/35/26 49/37/26 47/36/26
f 52/35/26 36/37/26 49/36/26
f 53/1/5 54/47/5 55/48/27
f 53/1/5 55/48/27 56/49/27
f 56/49/27 55/48/27 57/50/28
f 56/49/27 57/50/28 58/51/28
f 58/51/28 57/50/28 59/52/29
f 58/51/28 59/52/29 60/10/29
f 60/10/29 59/52/29 61/53/30
f 60/10/29 61/53/30 62/54/30
f 62/54/30 61/53/30 63/55/31
f 62/54/30 63/55/31 64/56/31
f 64/56/31 63/55/31 65/57/13
f 64/56/31 65/57/13 66/18/13
f 66/18/13 65/57/13 67/58/32
f 66/18/13 67/58/32 68/59/32
f 68/59/32 67/58/32 69/60/33
f 68/59/32 69/60/33 70/61/33
f 70/61/33 69/60/33 71/62/34
f 70/61/33 71/62/34 72/26/34
f 72/26/34 71/62/34 73/63/35
f 72/26/34 73/63/35 74/64/35
f 74/64/35 73/63/35 75/65/36
f 74/64/35 75/65/36 76/66/36
f 76/66/36 75/65/36 54/67/5
f 76/66/36 54/67/5 53/34/5
f 77/35/37 53/36/37 56/37/37
f 77/35/37 56/36/37 58/37/37
f 77/35/37 58/36/37 60/37/37
f 77/35/37 60/36/37 62/37/37
f 77/35/37 62/36/37 64/37/37
f 77/35/37 64/36/37 66/37/37
f 77/35/37 66/36/37 68/37/37
f 77/35/37 68/36/37 70/37/37
f 77/35/37 70/36/37 72/37/37
f 77/35/37 72/36/37 74/37/37
f 77/35/37 74/36/37 76/37/37
f 77/35/37 76/36/37 53/37/37
f 51/35/38 55/37/38 54/36/38
f 51/35/38 57/37/38 55/36/38
f 51/35/38 59/37/38 57/36/38
f 51/35/38 61/37/38 59/36/38
f 51/35/38 63/37/38 61/36/38
f 51/35/38 65/37/38 63/36/38
f 51/35/38 67/37/38 65/36/38
f 51/35/38 69/37/38 67/36/38
f 51/35/38 71/37/38 69/36/38
f 51/35/38 73/37/38 71/36/38
f 51/35/38 75/37/38 73/36/38
f 51/35/38 54/37/38 75/36/38
