# Procedurally generated by dev-env-utils/scripts/gen_mast_arm_curves.py
# cell 6 of 8 at (+4 along arm, +2 up)
mtllib mastarmcurve.mtl
o mastarm_6x2_c6
v 0.770833 0.277778 1.000000
v 0.769965 0.295910 0.916667
v 0.749415 0.396956 0.938186
v 0.750217 0.378953 1.022483
v 0.690894 0.482618 0.956428
v 0.691508 0.464725 1.041544
v 0.603311 0.539855 0.968618
v 0.603643 0.522037 1.054280
v 0.500000 0.559955 0.972898
v 0.500000 0.542162 1.058752
v 0.396689 0.539855 0.968618
v 0.396357 0.522037 1.054280
v 0.309106 0.482618 0.956428
v 0.308492 0.464725 1.041544
v 0.250585 0.396956 0.938186
v 0.249783 0.378953 1.022483
v 0.230035 0.295910 0.916667
v 0.229167 0.277778 1.000000
v 0.250585 0.194865 0.895148
v 0.249783 0.176602 0.977517
v 0.309106 0.109203 0.876905
v 0.308492 0.090830 0.958456
v 0.396689 0.051966 0.864715
v 0.396357 0.033519 0.945720
v 0.500000 0.031866 0.860435
v 0.500000 0.013394 0.941248
v 0.603311 0.051966 0.864715
v 0.603643 0.033519 0.945720
v 0.690894 0.109203 0.876905
v 0.691508 0.090830 0.958456
v 0.749415 0.194865 0.895148
v 0.750217 0.176602 0.977517
v 0.769097 0.313272 0.833333
v 0.748613 0.414178 0.853888
v 0.690280 0.499723 0.871314
v 0.602979 0.556882 0.882958
v 0.500000 0.576954 0.887046
v 0.397021 0.556882 0.882958
v 0.309720 0.499723 0.871314
v 0.251387 0.414178 0.853888
v 0.230903 0.313272 0.833333
v 0.251387 0.212365 0.812778
v 0.309720 0.126820 0.795352
v 0.397021 0.069661 0.783709
v 0.500000 0.049590 0.779620
v 0.602979 0.069661 0.783709
v 0.690280 0.126820 0.795352
v 0.748613 0.212365 0.812778
v 0.768229 0.329861 0.750000
v 0.747811 0.430621 0.769592
v 0.689667 0.516041 0.786202
v 0.602647 0.573117 0.797300
v 0.500000 0.593159 0.801197
v 0.397353 0.573117 0.797300
v 0.310333 0.516041 0.786202
v 0.252189 0.430621 0.769592
v 0.231771 0.329861 0.750000
v 0.252189 0.229101 0.730408
v 0.310333 0.143681 0.713798
v 0.397353 0.086606 0.702700
v 0.500000 0.066563 0.698803
v 0.602647 0.086606 0.702700
v 0.689667 0.143681 0.713798
v 0.747811 0.229101 0.730408
v 0.767361 0.345679 0.666667
v 0.747009 0.446283 0.685297
v 0.689053 0.531571 0.701091
v 0.602315 0.588559 0.711644
v 0.500000 0.608570 0.715350
v 0.397685 0.588559 0.711644
v 0.310947 0.531571 0.701091
v 0.252991 0.446283 0.685297
v 0.232639 0.345679 0.666667
v 0.252991 0.245075 0.648036
v 0.310947 0.159787 0.632242
v 0.397685 0.102799 0.621689
v 0.500000 0.082788 0.617983
v 0.602315 0.102799 0.621689
v 0.689053 0.159787 0.632242
v 0.747009 0.245075 0.648036
v 0.766493 0.360725 0.583333
v 0.746207 0.461165 0.601003
v 0.688439 0.546314 0.615983
v 0.601982 0.603209 0.625992
v 0.500000 0.623188 0.629507
v 0.398018 0.603209 0.625992
v 0.311561 0.546314 0.615983
v 0.253793 0.461165 0.601003
v 0.233507 0.360725 0.583333
v 0.253793 0.260285 0.565663
v 0.311561 0.175136 0.550683
v 0.398018 0.118242 0.540674
v 0.500000 0.098263 0.537159
v 0.601982 0.118242 0.540674
v 0.688439 0.175136 0.550683
v 0.746207 0.260285 0.565663
v 0.765625 0.375000 0.500000
v 0.745406 0.475267 0.516711
v 0.687825 0.560270 0.530878
v 0.601650 0.617066 0.540344
v 0.500000 0.637011 0.543668
v 0.398350 0.617066 0.540344
v 0.312175 0.560270 0.530878
v 0.254594 0.475267 0.516711
v 0.234375 0.375000 0.500000
v 0.254594 0.274733 0.483289
v 0.312175 0.189730 0.469122
v 0.398350 0.132934 0.459656
v 0.500000 0.112989 0.456332
v 0.601650 0.132934 0.459656
v 0.687825 0.189730 0.469122
v 0.745406 0.274733 0.483289
v 0.764757 0.388503 0.416667
v 0.744604 0.488589 0.432421
v 0.687211 0.573437 0.445777
v 0.601318 0.630131 0.454701
v 0.500000 0.650040 0.457834
v 0.398682 0.630131 0.454701
v 0.312789 0.573437 0.445777
v 0.255396 0.488589 0.432421
v 0.235243 0.388503 0.416667
v 0.255396 0.288417 0.400912
v 0.312789 0.203569 0.387557
v 0.398682 0.146875 0.378633
v 0.500000 0.126966 0.375499
v 0.601318 0.146875 0.378633
v 0.687211 0.203569 0.387557
v 0.744604 0.288417 0.400912
v 0.763889 0.401235 0.333333
v 0.743802 0.501130 0.348133
v 0.686598 0.585818 0.360679
v 0.600986 0.642404 0.369062
v 0.500000 0.662274 0.372006
v 0.399014 0.642404 0.369062
v 0.313402 0.585818 0.360679
v 0.256198 0.501130 0.348133
v 0.236111 0.401235 0.333333
v 0.256198 0.301339 0.318534
v 0.313402 0.216652 0.305988
v 0.399014 0.160065 0.297605
v 0.500000 0.140195 0.294661
v 0.600986 0.160065 0.297605
v 0.686598 0.216652 0.305988
v 0.743802 0.301339 0.318534
v 0.763021 0.413194 0.250000
v 0.743000 0.512891 0.263847
v 0.685984 0.597410 0.275585
v 0.600654 0.653884 0.283429
v 0.500000 0.673715 0.286183
v 0.399346 0.653884 0.283429
v 0.314016 0.597410 0.275585
v 0.257000 0.512891 0.263847
v 0.236979 0.413194 0.250000
v 0.257000 0.313498 0.236153
v 0.314016 0.228979 0.224415
v 0.399346 0.172505 0.216571
v 0.500000 0.152674 0.213817
v 0.600654 0.172505 0.216571
v 0.685984 0.228979 0.224415
v 0.743000 0.313498 0.236153
v 0.762153 0.424383 0.166667
v 0.742198 0.523872 0.179563
v 0.685370 0.608215 0.190497
v 0.600322 0.664571 0.197802
v 0.500000 0.684360 0.200367
v 0.399678 0.664571 0.197802
v 0.314630 0.608215 0.190497
v 0.257802 0.523872 0.179563
v 0.237847 0.424383 0.166667
v 0.257802 0.324894 0.153770
v 0.314630 0.240551 0.142837
v 0.399678 0.184195 0.135531
v 0.500000 0.164405 0.132966
v 0.600322 0.184195 0.135531
v 0.685370 0.240551 0.142837
v 0.742198 0.324894 0.153770
v 0.761285 0.434799 0.083333
v 0.741396 0.534072 0.095283
v 0.684756 0.618231 0.105413
v 0.599989 0.674465 0.112182
v 0.500000 0.694212 0.114559
v 0.400011 0.674465 0.112182
v 0.315244 0.618231 0.105413
v 0.258604 0.534072 0.095283
v 0.238715 0.434799 0.083333
v 0.258604 0.335527 0.071384
v 0.315244 0.251367 0.061254
v 0.400011 0.195134 0.054485
v 0.500000 0.175387 0.052108
v 0.599989 0.195134 0.054485
v 0.684756 0.251367 0.061254
v 0.741396 0.335527 0.071384
v 0.760417 0.444444 0.000000
v 0.740594 0.543492 0.011005
v 0.684142 0.627461 0.020335
v 0.599657 0.683567 0.026569
v 0.500000 0.703268 0.028758
v 0.400343 0.683567 0.026569
v 0.315858 0.627461 0.020335
v 0.259406 0.543492 0.011005
v 0.239583 0.444444 0.000000
v 0.259406 0.345397 -0.011005
v 0.315858 0.261428 -0.020335
v 0.400343 0.205322 -0.026569
v 0.500000 0.185621 -0.028758
v 0.599657 0.205322 -0.026569
v 0.684142 0.261428 -0.020335
v 0.740594 0.345397 -0.011005
vt 0.250000 0.558833
vt 0.250000 0.516192
vt 0.281250 0.516192
vt 0.281250 0.558833
vt 0.312500 0.516192
vt 0.312500 0.558833
vt 0.343750 0.516192
vt 0.343750 0.558833
vt 0.375000 0.516192
vt 0.375000 0.558833
vt 0.406250 0.516192
vt 0.406250 0.558833
vt 0.437500 0.516192
vt 0.437500 0.558833
vt 0.468750 0.516192
vt 0.468750 0.558833
vt 0.500000 0.516192
vt 0.500000 0.558833
vt 0.531250 0.516192
vt 0.531250 0.558833
vt 0.562500 0.516192
vt 0.562500 0.558833
vt 0.593750 0.516192
vt 0.593750 0.558833
vt 0.625000 0.516192
vt 0.625000 0.558833
vt 0.656250 0.516192
vt 0.656250 0.558833
vt 0.687500 0.516192
vt 0.687500 0.558833
vt 0.718750 0.516192
vt 0.718750 0.558833
vt 0.750000 0.516192
vt 0.750000 0.558833
vt 0.250000 0.473630
vt 0.281250 0.473630
vt 0.312500 0.473630
vt 0.343750 0.473630
vt 0.375000 0.473630
vt 0.406250 0.473630
vt 0.437500 0.473630
vt 0.468750 0.473630
vt 0.500000 0.473630
vt 0.531250 0.473630
vt 0.562500 0.473630
vt 0.593750 0.473630
vt 0.625000 0.473630
vt 0.656250 0.473630
vt 0.687500 0.473630
vt 0.718750 0.473630
vt 0.750000 0.473630
vt 0.250000 0.431146
vt 0.281250 0.431146
vt 0.312500 0.431146
vt 0.343750 0.431146
vt 0.375000 0.431146
vt 0.406250 0.431146
vt 0.437500 0.431146
vt 0.468750 0.431146
vt 0.500000 0.431146
vt 0.531250 0.431146
vt 0.562500 0.431146
vt 0.593750 0.431146
vt 0.625000 0.431146
vt 0.656250 0.431146
vt 0.687500 0.431146
vt 0.718750 0.431146
vt 0.750000 0.431146
vt 0.250000 0.388735
vt 0.281250 0.388735
vt 0.312500 0.388735
vt 0.343750 0.388735
vt 0.375000 0.388735
vt 0.406250 0.388735
vt 0.437500 0.388735
vt 0.468750 0.388735
vt 0.500000 0.388735
vt 0.531250 0.388735
vt 0.562500 0.388735
vt 0.593750 0.388735
vt 0.625000 0.388735
vt 0.656250 0.388735
vt 0.687500 0.388735
vt 0.718750 0.388735
vt 0.750000 0.388735
vt 0.250000 0.346395
vt 0.281250 0.346395
vt 0.312500 0.346395
vt 0.343750 0.346395
vt 0.375000 0.346395
vt 0.406250 0.346395
vt 0.437500 0.346395
vt 0.468750 0.346395
vt 0.500000 0.346395
vt 0.531250 0.346395
vt 0.562500 0.346395
vt 0.593750 0.346395
vt 0.625000 0.346395
vt 0.656250 0.346395
vt 0.687500 0.346395
vt 0.718750 0.346395
vt 0.750000 0.346395
vt 0.250000 0.304121
vt 0.281250 0.304121
vt 0.312500 0.304121
vt 0.343750 0.304121
vt 0.375000 0.304121
vt 0.406250 0.304121
vt 0.437500 0.304121
vt 0.468750 0.304121
vt 0.500000 0.304121
vt 0.531250 0.304121
vt 0.562500 0.304121
vt 0.593750 0.304121
vt 0.625000 0.304121
vt 0.656250 0.304121
vt 0.687500 0.304121
vt 0.718750 0.304121
vt 0.750000 0.304121
vt 0.250000 0.261911
vt 0.281250 0.261911
vt 0.312500 0.261911
vt 0.343750 0.261911
vt 0.375000 0.261911
vt 0.406250 0.261911
vt 0.437500 0.261911
vt 0.468750 0.261911
vt 0.500000 0.261911
vt 0.531250 0.261911
vt 0.562500 0.261911
vt 0.593750 0.261911
vt 0.625000 0.261911
vt 0.656250 0.261911
vt 0.687500 0.261911
vt 0.718750 0.261911
vt 0.750000 0.261911
vt 0.250000 0.280239
vt 0.281250 0.280239
vt 0.312500 0.280239
vt 0.343750 0.280239
vt 0.375000 0.280239
vt 0.406250 0.280239
vt 0.437500 0.280239
vt 0.468750 0.280239
vt 0.500000 0.280239
vt 0.531250 0.280239
vt 0.562500 0.280239
vt 0.593750 0.280239
vt 0.625000 0.280239
vt 0.656250 0.280239
vt 0.687500 0.280239
vt 0.718750 0.280239
vt 0.750000 0.280239
vt 0.250000 0.322332
vt 0.281250 0.322332
vt 0.312500 0.322332
vt 0.343750 0.322332
vt 0.375000 0.322332
vt 0.406250 0.322332
vt 0.437500 0.322332
vt 0.468750 0.322332
vt 0.500000 0.322332
vt 0.531250 0.322332
vt 0.562500 0.322332
vt 0.593750 0.322332
vt 0.625000 0.322332
vt 0.656250 0.322332
vt 0.687500 0.322332
vt 0.718750 0.322332
vt 0.750000 0.322332
vt 0.250000 0.364373
vt 0.281250 0.364373
vt 0.312500 0.364373
vt 0.343750 0.364373
vt 0.375000 0.364373
vt 0.406250 0.364373
vt 0.437500 0.364373
vt 0.468750 0.364373
vt 0.500000 0.364373
vt 0.531250 0.364373
vt 0.562500 0.364373
vt 0.593750 0.364373
vt 0.625000 0.364373
vt 0.656250 0.364373
vt 0.687500 0.364373
vt 0.718750 0.364373
vt 0.750000 0.364373
vt 0.250000 0.406364
vt 0.281250 0.406364
vt 0.312500 0.406364
vt 0.343750 0.406364
vt 0.375000 0.406364
vt 0.406250 0.406364
vt 0.437500 0.406364
vt 0.468750 0.406364
vt 0.500000 0.406364
vt 0.531250 0.406364
vt 0.562500 0.406364
vt 0.593750 0.406364
vt 0.625000 0.406364
vt 0.656250 0.406364
vt 0.687500 0.406364
vt 0.718750 0.406364
vt 0.750000 0.406364
vt 0.250000 0.448309
vt 0.281250 0.448309
vt 0.312500 0.448309
vt 0.343750 0.448309
vt 0.375000 0.448309
vt 0.406250 0.448309
vt 0.437500 0.448309
vt 0.468750 0.448309
vt 0.500000 0.448309
vt 0.531250 0.448309
vt 0.562500 0.448309
vt 0.593750 0.448309
vt 0.625000 0.448309
vt 0.656250 0.448309
vt 0.687500 0.448309
vt 0.718750 0.448309
vt 0.750000 0.448309
vn 1.000000 0.000000 0.000000
vn 0.923880 0.374290 0.079710
vn 0.923880 0.373571 0.083016
vn 0.707107 0.691598 0.147285
vn 0.707107 0.690268 0.153393
vn 0.382683 0.903616 0.192437
vn 0.382683 0.901879 0.200418
vn 0.000000 0.978067 0.208292
vn 0.000000 0.976187 0.216930
vn -0.382683 0.903616 0.192437
vn -0.382683 0.901879 0.200418
vn -0.707107 0.691598 0.147285
vn -0.707107 0.690268 0.153393
vn -0.923880 0.374290 0.079710
vn -0.923880 0.373571 0.083016
vn -1.000000 0.000000 0.000000
vn -0.923880 -0.374290 -0.079710
vn -0.923880 -0.373571 -0.083016
vn -0.707107 -0.691598 -0.147285
vn -0.707107 -0.690268 -0.153393
vn -0.382683 -0.903616 -0.192437
vn -0.382683 -0.901879 -0.200418
vn -0.000000 -0.978067 -0.208292
vn -0.000000 -0.976187 -0.216930
vn 0.382683 -0.903616 -0.192437
vn 0.382683 -0.901879 -0.200418
vn 0.707107 -0.691598 -0.147285
vn 0.707107 -0.690268 -0.153393
vn 0.923880 -0.374290 -0.079710
vn 0.923880 -0.373571 -0.083016
vn 0.923880 0.374983 0.076385
vn 0.707107 0.692877 0.141142
vn 0.382683 0.905288 0.184410
vn 0.000000 0.979877 0.199604
vn -0.382683 0.905288 0.184410
vn -0.707107 0.692877 0.141142
vn -0.923880 0.374983 0.076385
vn -0.923880 -0.374983 -0.076385
vn -0.707107 -0.692877 -0.141142
vn -0.382683 -0.905288 -0.184410
vn -0.000000 -0.979877 -0.199604
vn 0.382683 -0.905288 -0.184410
vn 0.707107 -0.692877 -0.141142
vn 0.923880 -0.374983 -0.076385
vn 0.923880 0.375648 0.073043
vn 0.707107 0.694107 0.134965
vn 0.382683 0.906894 0.176341
vn 0.000000 0.981615 0.190870
vn -0.382683 0.906894 0.176341
vn -0.707107 0.694107 0.134965
vn -0.923880 0.375648 0.073043
vn -0.923880 -0.375648 -0.073043
vn -0.707107 -0.694107 -0.134965
vn -0.382683 -0.906894 -0.176341
vn -0.000000 -0.981615 -0.190870
vn 0.382683 -0.906894 -0.176341
vn 0.707107 -0.694107 -0.134965
vn 0.923880 -0.375648 -0.073043
vn 0.923880 0.376286 0.069683
vn 0.707107 0.695285 0.128757
vn 0.382683 0.908434 0.168229
vn 0.000000 0.983282 0.182089
vn -0.382683 0.908434 0.168229
vn -0.707107 0.695285 0.128757
vn -0.923880 0.376286 0.069683
vn -0.923880 -0.376286 -0.069683
vn -0.707107 -0.695285 -0.128757
vn -0.382683 -0.908434 -0.168229
vn -0.000000 -0.983282 -0.182089
vn 0.382683 -0.908434 -0.168229
vn 0.707107 -0.695285 -0.128757
vn 0.923880 -0.376286 -0.069683
vn 0.923880 0.376895 0.066306
vn 0.707107 0.696412 0.122517
vn 0.382683 0.909906 0.160076
vn 0.000000 0.984875 0.173265
vn -0.382683 0.909906 0.160076
vn -0.707107 0.696412 0.122517
vn -0.923880 0.376895 0.066306
vn -0.923880 -0.376895 -0.066306
vn -0.707107 -0.696412 -0.122517
vn -0.382683 -0.909906 -0.160076
vn -0.000000 -0.984875 -0.173265
vn 0.382683 -0.909906 -0.160076
vn 0.707107 -0.696412 -0.122517
vn 0.923880 -0.376895 -0.066306
vn 0.923880 0.377477 0.062913
vn 0.707107 0.697486 0.116248
vn 0.382683 0.911309 0.151885
vn 0.000000 0.986394 0.164399
vn -0.382683 0.911309 0.151885
vn -0.707107 0.697486 0.116248
vn -0.923880 0.377477 0.062913
vn -0.923880 -0.377477 -0.062913
vn -0.707107 -0.697486 -0.116248
vn -0.382683 -0.911309 -0.151885
vn -0.000000 -0.986394 -0.164399
vn 0.382683 -0.911309 -0.151885
vn 0.707107 -0.697486 -0.116248
vn 0.923880 -0.377477 -0.062913
vn 0.923880 0.378029 0.059505
vn 0.707107 0.698506 0.109950
vn 0.382683 0.912642 0.143657
vn 0.000000 0.987837 0.155493
vn -0.382683 0.912642 0.143657
vn -0.707107 0.698506 0.109950
vn -0.923880 0.378029 0.059505
vn -0.923880 -0.378029 -0.059505
vn -0.707107 -0.698506 -0.109950
vn -0.382683 -0.912642 -0.143657
vn -0.000000 -0.987837 -0.155493
vn 0.382683 -0.912642 -0.143657
vn 0.707107 -0.698506 -0.109950
vn 0.923880 -0.378029 -0.059505
vn 0.923880 0.378552 0.056082
vn 0.707107 0.699472 0.103626
vn 0.382683 0.913905 0.135393
vn 0.000000 0.989203 0.146549
vn -0.382683 0.913905 0.135393
vn -0.707107 0.699472 0.103626
vn -0.923880 0.378552 0.056082
vn -0.923880 -0.378552 -0.056082
vn -0.707107 -0.699472 -0.103626
vn -0.382683 -0.913905 -0.135393
vn -0.000000 -0.989203 -0.146549
vn 0.382683 -0.913905 -0.135393
vn 0.707107 -0.699472 -0.103626
vn 0.923880 -0.378552 -0.056082
vn 0.923880 0.379045 0.052645
vn 0.707107 0.700384 0.097276
vn 0.382683 0.915096 0.127097
vn 0.000000 0.990492 0.137568
vn -0.382683 0.915096 0.127097
vn -0.707107 0.700384 0.097276
vn -0.923880 0.379045 0.052645
vn -0.923880 -0.379045 -0.052645
vn -0.707107 -0.700384 -0.097276
vn -0.382683 -0.915096 -0.127097
vn -0.000000 -0.990492 -0.137568
vn 0.382683 -0.915096 -0.127097
vn 0.707107 -0.700384 -0.097276
vn 0.923880 -0.379045 -0.052645
vn 0.923880 0.379508 0.049195
vn 0.707107 0.701240 0.090901
vn 0.382683 0.916214 0.118768
vn 0.000000 0.991703 0.128554
vn -0.382683 0.916214 0.118768
vn -0.707107 0.701240 0.090901
vn -0.923880 0.379508 0.049195
vn -0.923880 -0.379508 -0.049195
vn -0.707107 -0.701240 -0.090901
vn -0.382683 -0.916214 -0.118768
vn -0.000000 -0.991703 -0.128554
vn 0.382683 -0.916214 -0.118768
vn 0.707107 -0.701240 -0.090901
vn 0.923880 -0.379508 -0.049195
vn 0.923880 0.379941 0.045734
vn 0.707107 0.702039 0.084505
vn 0.382683 0.917258 0.110411
vn 0.000000 0.992833 0.119508
vn -0.382683 0.917258 0.110411
vn -0.707107 0.702039 0.084505
vn -0.923880 0.379941 0.045734
vn -0.923880 -0.379941 -0.045734
vn -0.707107 -0.702039 -0.084505
vn -0.382683 -0.917258 -0.110411
vn -0.000000 -0.992833 -0.119508
vn 0.382683 -0.917258 -0.110411
vn 0.707107 -0.702039 -0.084505
vn 0.923880 -0.379941 -0.045734
vn 0.923880 0.380343 0.042260
vn 0.707107 0.702782 0.078087
vn 0.382683 0.918229 0.102025
vn 0.000000 0.993884 0.110432
vn -0.382683 0.918229 0.102025
vn -0.707107 0.702782 0.078087
vn -0.923880 0.380343 0.042260
vn -0.923880 -0.380343 -0.042260
vn -0.707107 -0.702782 -0.078087
vn -0.382683 -0.918229 -0.102025
vn -0.000000 -0.993884 -0.110432
vn 0.382683 -0.918229 -0.102025
vn 0.707107 -0.702782 -0.078087
vn 0.923880 -0.380343 -0.042260
usemtl body
f 1/1/1 2/2/1 3/3/2
f 1/1/1 3/3/2 4/4/3
f 4/4/3 3/3/2 5/5/4
f 4/4/3 5/5/4 6/6/5
f 6/6/5 5/5/4 7/7/6
f 6/6/5 7/7/6 8/8/7
f 8/8/7 7/7/6 9/9/8
f 8/8/7 9/9/8 10/10/9
f 10/10/9 9/9/8 11/11/10
f 10/10/9 11/11/10 12/12/11
f 12/12/11 11/11/10 13/13/12
f 12/12/11 13/13/12 14/14/13
f 14/14/13 13/13/12 15/15/14
f 14/14/13 15/15/14 16/16/15
f 16/16/15 15/15/14 17/17/16
f 16/16/15 17/17/16 18/18/16
f 18/18/16 17/17/16 19/19/17
f 18/18/16 19/19/17 20/20/18
f 20/20/18 19/19/17 21/21/19
f 20/20/18 21/21/19 22/22/20
f 22/22/20 21/21/19 23/23/21
f 22/22/20 23/23/21 24/24/22
f 24/24/22 23/23/21 25/25/23
f 24/24/22 25/25/23 26/26/24
f 26/26/24 25/25/23 27/27/25
f 26/26/24 27/27/25 28/28/26
f 28/28/26 27/27/25 29/29/27
f 28/28/26 29/29/27 30/30/28
f 30/30/28 29/29/27 31/31/29
f 30/30/28 31/31/29 32/32/30
f 32/32/30 31/31/29 2/33/1
f 32/32/30 2/33/1 1/34/1
f 2/2/1 33/35/1 34/36/31
f 2/2/1 34/36/31 3/3/2
f 3/3/2 34/36/31 35/37/32
f 3/3/2 35/37/32 5/5/4
f 5/5/4 35/37/32 36/38/33
f 5/5/4 36/38/33 7/7/6
f 7/7/6 36/38/33 37/39/34
f 7/7/6 37/39/34 9/9/8
f 9/9/8 37/39/34 38/40/35
f 9/9/8 38/40/35 11/11/10
f 11/11/10 38/40/35 39/41/36
f 11/11/10 39/41/36 13/13/12
f 13/13/12 39/41/36 40/42/37
f 13/13/12 40/42/37 15/15/14
f 15/15/14 40/42/37 41/43/16
f 15/15/14 41/43/16 17/17/16
f 17/17/16 41/43/16 42/44/38
f 17/17/16 42/44/38 19/19/17
f 19/19/17 42/44/38 43/45/39
f 19/19/17 43/45/39 21/21/19
f 21/21/19 43/45/39 44/46/40
f 21/21/19 44/46/40 23/23/21
f 23/23/21 44/46/40 45/47/41
f 23/23/21 45/47/41 25/25/23
f 25/25/23 45/47/41 46/48/42
f 25/25/23 46/48/42 27/27/25
f 27/27/25 46/48/42 47/49/43
f 27/27/25 47/49/43 29/29/27
f 29/29/27 47/49/43 48/50/44
f 29/29/27 48/50/44 31/31/29
f 31/31/29 48/50/44 33/51/1
f 31/31/29 33/51/1 2/33/1
f 33/35/1 49/52/1 50/53/45
f 33/35/1 50/53/45 34/36/31
f 34/36/31 50/53/45 51/54/46
f 34/36/31 51/54/46 35/37/32
f 35/37/32 51/54/46 52/55/47
f 35/37/32 52/55/47 36/38/33
f 36/38/33 52/55/47 53/56/48
f 36/38/33 53/56/48 37/39/34
f 37/39/34 53/56/48 54/57/49
f 37/39/34 54/57/49 38/40/35
f 38/40/35 54/57/49 55/58/50
f 38/40/35 55/58/50 39/41/36
f 39/41/36 55/58/50 56/59/51
f 39/41/36 56/59/51 40/42/37
f 40/42/37 56/59/51 57/60/16
f 40/42/37 57/60/16 41/43/16
f 41/43/16 57/60/16 58/61/52
f 41/43/16 58/61/52 42/44/38
f 42/44/38 58/61/52 59/62/53
f 42/44/38 59/62/53 43/45/39
f 43/45/39 59/62/53 60/63/54
f 43/45/39 60/63/54 44/46/40
f 44/46/40 60/63/54 61/64/55
f 44/46/40 61/64/55 45/47/41
f 45/47/41 61/64/55 62/65/56
f 45/47/41 62/65/56 46/48/42
f 46/48/42 62/65/56 63/66/57
f 46/48/42 63/66/57 47/49/43
f 47/49/43 63/66/57 64/67/58
f 47/49/43 64/67/58 48/50/44
f 48/50/44 64/67/58 49/68/1
f 48/50/44 49/68/1 33/51/1
f 49/52/1 65/69/1 66/70/59
f 49/52/1 66/70/59 50/53/45
f 50/53/45 66/70/59 67/71/60
f 50/53/45 67/71/60 51/54/46
f 51/54/46 67/71/60 68/72/61
f 51/54/46 68/72/61 52/55/47
f 52/55/47 68/72/61 69/73/62
f 52/55/47 69/73/62 53/56/48
f 53/56/48 69/73/62 70/74/63
f 53/56/48 70/74/63 54/57/49
f 54/57/49 70/74/63 71/75/64
f 54/57/49 71/75/64 55/58/50
f 55/58/50 71/75/64 72/76/65
f 55/58/50 72/76/65 56/59/51
f 56/59/51 72/76/65 73/77/16
f 56/59/51 73/77/16 57/60/16
f 57/60/16 73/77/16 74/78/66
f 57/60/16 74/78/66 58/61/52
f 58/61/52 74/78/66 75/79/67
f 58/61/52 75/79/67 59/62/53
f 59/62/53 75/79/67 76/80/68
f 59/62/53 76/80/68 60/63/54
f 60/63/54 76/80/68 77/81/69
f 60/63/54 77/81/69 61/64/55
f 61/64/55 77/81/69 78/82/70
f 61/64/55 78/82/70 62/65/56
f 62/65/56 78/82/70 79/83/71
f 62/65/56 79/83/71 63/66/57
f 63/66/57 79/83/71 80/84/72
f 63/66/57 80/84/72 64/67/58
f 64/67/58 80/84/72 65/85/1
f 64/67/58 65/85/1 49/68/1
f 65/69/1 81/86/1 82/87/73
f 65/69/1 82/87/73 66/70/59
f 66/70/59 82/87/73 83/88/74
f 66/70/59 83/88/74 67/71/60
f 67/71/60 83/88/74 84/89/75
f 67/71/60 84/89/75 68/72/61
f 68/72/61 84/89/75 85/90/76
f 68/72/61 85/90/76 69/73/62
f 69/73/62 85/90/76 86/91/77
f 69/73/62 86/91/77 70/74/63
f 70/74/63 86/91/77 87/92/78
f 70/74/63 87/92/78 71/75/64
f 71/75/64 87/92/78 88/93/79
f 71/75/64 88/93/79 72/76/65
f 72/76/65 88/93/79 89/94/16
f 72/76/65 89/94/16 73/77/16
f 73/77/16 89/94/16 90/95/80
f 73/77/16 90/95/80 74/78/66
f 74/78/66 90/95/80 91/96/81
f 74/78/66 91/96/81 75/79/67
f 75/79/67 91/96/81 92/97/82
f 75/79/67 92/97/82 76/80/68
f 76/80/68 92/97/82 93/98/83
f 76/80/68 93/98/83 77/81/69
f 77/81/69 93/98/83 94/99/84
f 77/81/69 94/99/84 78/82/70
f 78/82/70 94/99/84 95/100/85
f 78/82/70 95/100/85 79/83/71
f 79/83/71 95/100/85 96/101/86
f 79/83/71 96/101/86 80/84/72
f 80/84/72 96/101/86 81/102/1
f 80/84/72 81/102/1 65/85/1
f 81/86/1 97/103/1 98/104/87
f 81/86/1 98/104/87 82/87/73
f 82/87/73 98/104/87 99/105/88
f 82/87/73 99/105/88 83/88/74
f 83/88/74 99/105/88 100/106/89
f 83/88/74 100/106/89 84/89/75
f 84/89/75 100/106/89 101/107/90
f 84/89/75 101/107/90 85/90/76
f 85/90/76 101/107/90 102/108/91
f 85/90/76 102/108/91 86/91/77
f 86/91/77 102/108/91 103/109/92
f 86/91/77 103/109/92 87/92/78
f 87/92/78 103/109/92 104/110/93
f 87/92/78 104/110/93 88/93/79
f 88/93/79 104/110/93 105/111/16
f 88/93/79 105/111/16 89/94/16
f 89/94/16 105/111/16 106/112/94
f 89/94/16 106/112/94 90/95/80
f 90/95/80 106/112/94 107/113/95
f 90/95/80 107/113/95 91/96/81
f 91/96/81 107/113/95 108/114/96
f 91/96/81 108/114/96 92/97/82
f 92/97/82 108/114/96 109/115/97
f 92/97/82 109/115/97 93/98/83
f 93/98/83 109/115/97 110/116/98
f 93/98/83 110/116/98 94/99/84
f 94/99/84 110/116/98 111/117/99
f 94/99/84 111/117/99 95/100/85
f 95/100/85 111/117/99 112/118/100
f 95/100/85 112/118/100 96/101/86
f 96/101/86 112/118/100 97/119/1
f 96/101/86 97/119/1 81/102/1
f 97/103/1 113/120/1 114/121/101
f 97/103/1 114/121/101 98/104/87
f 98/104/87 114/121/101 115/122/102
f 98/104/87 115/122/102 99/105/88
f 99/105/88 115/122/102 116/123/103
f 99/105/88 116/123/103 100/106/89
f 100/106/89 116/123/103 117/124/104
f 100/106/89 117/124/104 101/107/90
f 101/107/90 117/124/104 118/125/105
f 101/107/90 118/125/105 102/108/91
f 102/108/91 118/125/105 119/126/106
f 102/108/91 119/126/106 103/109/92
f 103/109/92 119/126/106 120/127/107
f 103/109/92 120/127/107 104/110/93
f 104/110/93 120/127/107 121/128/16
f 104/110/93 121/128/16 105/111/16
f 105/111/16 121/128/16 122/129/108
f 105/111/16 122/129/108 106/112/94
f 106/112/94 122/129/108 123/130/109
f 106/112/94 123/130/109 107/113/95
f 107/113/95 123/130/109 124/131/110
f 107/113/95 124/131/110 108/114/96
f 108/114/96 124/131/110 125/132/111
f 108/114/96 125/132/111 109/115/97
f 109/115/97 125/132/111 126/133/112
f 109/115/97 126/133/112 110/116/98
f 110/116/98 126/133/112 127/134/113
f 110/116/98 127/134/113 111/117/99
f 111/117/99 127/134/113 128/135/114
f 111/117/99 128/135/114 112/118/100
f 112/118/100 128/135/114 113/136/1
f 112/118/100 113/136/1 97/119/1
f 113/120/1 129/137/1 130/138/115
f 113/120/1 130/138/115 114/121/101
f 114/121/101 130/138/115 131/139/116
f 114/121/101 131/139/116 115/122/102
f 115/122/102 131/139/116 132/140/117
f 115/122/102 132/140/117 116/123/103
f 116/123/103 132/140/117 133/141/118
f 116/123/103 133/141/118 117/124/104
f 117/124/104 133/141/118 134/142/119
f 117/124/104 134/142/119 118/125/105
f 118/125/105 134/142/119 135/143/120
f 118/125/105 135/143/120 119/126/106
f 119/126/106 135/143/120 136/144/121
f 119/126/106 136/144/121 120/127/107
f 120/127/107 136/144/121 137/145/16
f 120/127/107 137/145/16 121/128/16
f 121/128/16 137/145/16 138/146/122
f 121/128/16 138/146/122 122/129/108
f 122/129/108 138/146/122 139/147/123
f 122/129/108 139/147/123 123/130/109
f 123/130/109 139/147/123 140/148/124
f 123/130/109 140/148/124 124/131/110
f 124/131/110 140/148/124 141/149/125
f 124/131/110 141/149/125 125/132/111
f 125/132/111 141/149/125 142/150/126
f 125/132/111 142/150/126 126/133/112
f 126/133/112 142/150/126 143/151/127
f 126/133/112 143/151/127 127/134/113
f 127/134/113 143/151/127 144/152/128
f 127/134/113 144/152/128 128/135/114
f 128/135/114 144/152/128 129/153/1
f 128/135/114 129/153/1 113/136/1
f 129/137/1 145/154/1 146/155/129
f 129/137/1 146/155/129 130/138/115
f 130/138/115 146/155/129 147/156/130
f 130/138/115 147/156/130 131/139/116
f 131/139/116 147/156/130 148/157/131
f 131/139/116 148/157/131 132/140/117
f 132/140/117 148/157/131 149/158/132
f 132/140/117 149/158/132 133/141/118
f 133/141/118 149/158/132 150/159/133
f 133/141/118 150/159/133 134/142/119
f 134/142/119 150/159/133 151/160/134
f 134/142/119 151/160/134 135/143/120
f 135/143/120 151/160/134 152/161/135
f 135/143/120 152/161/135 136/144/121
f 136/144/121 152/161/135 153/162/16
f 136/144/121 153/162/16 137/145/16
f 137/145/16 153/162/16 154/163/136
f 137/145/16 154/163/136 138/146/122
f 138/146/122 154/163/136 155/164/137
f 138/146/122 155/164/137 139/147/123
f 139/147/123 155/164/137 156/165/138
f 139/147/123 156/165/138 140/148/124
f 140/148/124 156/165/138 157/166/139
f 140/148/124 157/166/139 141/149/125
f 141/149/125 157/166/139 158/167/140
f 141/149/125 158/167/140 142/150/126
f 142/150/126 158/167/140 159/168/141
f 142/150/126 159/168/141 143/151/127
f 143/151/127 159/168/141 160/169/142
f 143/151/127 160/169/142 144/152/128
f 144/152/128 160/169/142 145/170/1
f 144/152/128 145/170/1 129/153/1
f 145/154/1 161/171/1 162/172/143
f 145/154/1 162/172/143 146/155/129
f 146/155/129 162/172/143 163/173/144
f 146/155/129 163/173/144 147/156/130
f 147/156/130 163/173/144 164/174/145
f 147/156/130 164/174/145 148/157/131
f 148/157/131 164/174/145 165/175/146
f 148/157/131 165/175/146 149/158/132
f 149/158/132 165/175/146 166/176/147
f 149/158/132 166/176/147 150/159/133
f 150/159/133 166/176/147 167/177/148
f 150/159/133 167/177/148 151/160/134
f 151/160/134 167/177/148 168/178/149
f 151/160/134 168/178/149 152/161/135
f 152/161/135 168/178/149 169/179/16
f 152/161/135 169/179/16 153/162/16
f 153/162/16 169/179/16 170/180/150
f 153/162/16 170/180/150 154/163/136
f 154/163/136 170/180/150 171/181/151
f 154/163/136 171/181/151 155/164/137
f 155/164/137 171/181/151 172/182/152
f 155/164/137 172/182/152 156/165/138
f 156/165/138 172/182/152 173/183/153
f 156/165/138 173/183/153 157/166/139
f 157/166/139 173/183/153 174/184/154
f 157/166/139 174/184/154 158/167/140
f 158/167/140 174/184/154 175/185/155
f 158/167/140 175/185/155 159/168/141
f 159/168/141 175/185/155 176/186/156
f 159/168/141 176/186/156 160/169/142
f 160/169/142 176/186/156 161/187/1
f 160/169/142 161/187/1 145/170/1
f 161/171/1 177/188/1 178/189/157
f 161/171/1 178/189/157 162/172/143
f 162/172/143 178/189/157 179/190/158
f 162/172/143 179/190/158 163/173/144
f 163/173/144 179/190/158 180/191/159
f 163/173/144 180/191/159 164/174/145
f 164/174/145 180/191/159 181/192/160
f 164/174/145 181/192/160 165/175/146
f 165/175/146 181/192/160 182/193/161
f 165/175/146 182/193/161 166/176/147
f 166/176/147 182/193/161 183/194/162
f 166/176/147 183/194/162 167/177/148
f 167/177/148 183/194/162 184/195/163
f 167/177/148 184/195/163 168/178/149
f 168/178/149 184/195/163 185/196/16
f 168/178/149 185/196/16 169/179/16
f 169/179/16 185/196/16 186/197/164
f 169/179/16 186/197/164 170/180/150
f 170/180/150 186/197/164 187/198/165
f 170/180/150 187/198/165 171/181/151
f 171/181/151 187/198/165 188/199/166
f 171/181/151 188/199/166 172/182/152
f 172/182/152 188/199/166 189/200/167
f 172/182/152 189/200/167 173/183/153
f 173/183/153 189/200/167 190/201/168
f 173/183/153 190/201/168 174/184/154
f 174/184/154 190/201/168 191/202/169
f 174/184/154 191/202/169 175/185/155
f 175/185/155 191/202/169 192/203/170
f 175/185/155 192/203/170 176/186/156
f 176/186/156 192/203/170 177/204/1
f 176/186/156 177/204/1 161/187/1
f 177/188/1 193/205/1 194/206/171
f 177/188/1 194/206/171 178/189/157
f 178/189/157 194/206/171 195/207/172
f 178/189/157 195/207/172 179/190/158
f 179/190/158 195/207/172 196/208/173
f 179/190/158 196/208/173 180/191/159
f 180/191/159 196/208/173 197/209/174
f 180/191/159 197/209/174 181/192/160
f 181/192/160 197/209/174 198/210/175
f 181/192/160 198/210/175 182/193/161
f 182/193/161 198/210/175 199/211/176
f 182/193/161 199/211/176 183/194/162
f 183/194/162 199/211/176 200/212/177
f 183/194/162 200/212/177 184/195/163
f 184/195/163 200/212/177 201/213/16
f 184/195/163 201/213/16 185/196/16
f 185/196/16 201/213/16 202/214/178
f 185/196/16 202/214/178 186/197/164
f 186/197/164 202/214/178 203/215/179
f 186/197/164 203/215/179 187/198/165
f 187/198/165 203/215/179 204/216/180
f 187/198/165 204/216/180 188/199/166
f 188/199/166 204/216/180 205/217/181
f 188/199/166 205/217/181 189/200/167
f 189/200/167 205/217/181 206/218/182
f 189/200/167 206/218/182 190/201/168
f 190/201/168 206/218/182 207/219/183
f 190/201/168 207/219/183 191/202/169
f 191/202/169 207/219/183 208/220/184
f 191/202/169 208/220/184 192/203/170
f 192/203/170 208/220/184 193/221/1
f 192/203/170 193/221/1 177/204/1
