# Procedurally generated by dev-env-utils/scripts/gen_mast_arm_curves.py
# cell 1 of 12 at (+1 along arm, +0 up)
mtllib mastarmcurve.mtl
o mastarm_10x2_c1
v 0.783750 0.880000 1.000000
v 0.783438 0.909861 0.916667
v 0.761862 1.012024 0.953105
v 0.762151 0.982168 1.036780
v 0.700421 1.098634 0.983996
v 0.700642 1.068781 1.067961
v 0.608467 1.156505 1.004636
v 0.608586 1.126654 1.088796
v 0.500000 1.176826 1.011884
v 0.500000 1.146977 1.096112
v 0.391533 1.156505 1.004636
v 0.391414 1.126654 1.088796
v 0.299579 1.098634 0.983996
v 0.299358 1.068781 1.067961
v 0.238138 1.012024 0.953105
v 0.237849 0.982168 1.036780
v 0.216563 0.909861 0.916667
v 0.216250 0.880000 1.000000
v 0.238138 0.807698 0.880228
v 0.237849 0.777832 0.963220
v 0.299579 0.721088 0.849338
v 0.299358 0.691219 0.932039
v 0.391533 0.663217 0.828697
v 0.391414 0.633346 0.911204
v 0.500000 0.642896 0.821449
v 0.500000 0.613023 0.903888
v 0.608467 0.663217 0.828697
v 0.608586 0.633346 0.911204
v 0.700421 0.721088 0.849338
v 0.700642 0.691219 0.932039
v 0.761862 0.807698 0.880228
v 0.762151 0.777832 0.963220
v 0.783125 0.939444 0.833333
v 0.761573 1.041602 0.869429
v 0.700200 1.128207 0.900030
v 0.608347 1.186075 0.920476
v 0.500000 1.206396 0.927656
v 0.391653 1.186075 0.920476
v 0.299800 1.128207 0.900030
v 0.238427 1.041602 0.869429
v 0.216875 0.939444 0.833333
v 0.238427 0.837287 0.797238
v 0.299800 0.750681 0.766637
v 0.391653 0.692814 0.746190
v 0.500000 0.672493 0.739011
v 0.608347 0.692814 0.746190
v 0.700200 0.750681 0.766637
v 0.761573 0.837287 0.797238
v 0.782812 0.968750 0.750000
v 0.761285 1.070902 0.785753
v 0.699979 1.157502 0.816063
v 0.608228 1.215366 0.836316
v 0.500000 1.235685 0.843427
v 0.391772 1.215366 0.836316
v 0.300021 1.157502 0.816063
v 0.238715 1.070902 0.785753
v 0.217188 0.968750 0.750000
v 0.238715 0.866598 0.714247
v 0.300021 0.779998 0.683937
v 0.391772 0.722134 0.663684
v 0.500000 0.701815 0.656573
v 0.608228 0.722134 0.663684
v 0.699979 0.779998 0.683937
v 0.761285 0.866598 0.714247
v 0.782500 0.997778 0.666667
v 0.760996 1.099922 0.702077
v 0.699758 1.186516 0.732096
v 0.608108 1.244376 0.752154
v 0.500000 1.264694 0.759198
v 0.391892 1.244376 0.752154
v 0.300242 1.186516 0.732096
v 0.239004 1.099922 0.702077
v 0.217500 0.997778 0.666667
v 0.239004 0.895633 0.631257
v 0.300242 0.809040 0.601237
v 0.391892 0.751179 0.581179
v 0.500000 0.730862 0.574136
v 0.608108 0.751179 0.581179
v 0.699758 0.809040 0.601237
v 0.760996 0.895633 0.631257
v 0.782476 1.000000 0.660254
v 0.760974 1.102144 0.695638
v 0.699741 1.188737 0.725635
v 0.608099 1.246597 0.745678
v 0.500000 1.266915 0.752716
v 0.391901 1.246597 0.745678
v 0.300259 1.188737 0.725635
v 0.239026 1.102144 0.695638
v 0.217524 1.000000 0.660254
v 0.239026 0.897856 0.624870
v 0.300259 0.811263 0.594874
v 0.391901 0.753403 0.574830
v 0.500000 0.733085 0.567792
v 0.608099 0.753403 0.574830
v 0.699741 0.811263 0.594874
v 0.760974 0.897856 0.624870
vt 0.250000 0.289671
vt 0.250000 0.333932
vt 0.281250 0.333932
vt 0.281250 0.289671
vt 0.312500 0.333932
vt 0.312500 0.289671
vt 0.343750 0.333932
vt 0.343750 0.289671
vt 0.375000 0.333932
vt 0.375000 0.289671
vt 0.406250 0.333932
vt 0.406250 0.289671
vt 0.437500 0.333932
vt 0.437500 0.289671
vt 0.468750 0.333932
vt 0.468750 0.289671
vt 0.500000 0.333932
vt 0.500000 0.289671
vt 0.531250 0.333932
vt 0.531250 0.289671
vt 0.562500 0.333932
vt 0.562500 0.289671
vt 0.593750 0.333932
vt 0.593750 0.289671
vt 0.625000 0.333932
vt 0.625000 0.289671
vt 0.656250 0.333932
vt 0.656250 0.289671
vt 0.687500 0.333932
vt 0.687500 0.289671
vt 0.718750 0.333932
vt 0.718750 0.289671
vt 0.750000 0.333932
vt 0.750000 0.289671
vt 0.250000 0.378146
vt 0.281250 0.378146
vt 0.312500 0.378146
vt 0.343750 0.378146
vt 0.375000 0.378146
vt 0.406250 0.378146
vt 0.437500 0.378146
vt 0.468750 0.378146
vt 0.500000 0.378146
vt 0.531250 0.378146
vt 0.562500 0.378146
vt 0.593750 0.378146
vt 0.625000 0.378146
vt 0.656250 0.378146
vt 0.687500 0.378146
vt 0.718750 0.378146
vt 0.750000 0.378146
vt 0.250000 0.422314
vt 0.281250 0.422314
vt 0.312500 0.422314
vt 0.343750 0.422314
vt 0.375000 0.422314
vt 0.406250 0.422314
vt 0.437500 0.422314
vt 0.468750 0.422314
vt 0.500000 0.422314
vt 0.531250 0.422314
vt 0.562500 0.422314
vt 0.593750 0.422314
vt 0.625000 0.422314
vt 0.656250 0.422314
vt 0.687500 0.422314
vt 0.718750 0.422314
vt 0.750000 0.422314
vt 0.250000 0.466436
vt 0.281250 0.466436
vt 0.312500 0.466436
vt 0.343750 0.466436
vt 0.375000 0.466436
vt 0.406250 0.466436
vt 0.437500 0.466436
vt 0.468750 0.466436
vt 0.500000 0.466436
vt 0.531250 0.466436
vt 0.562500 0.466436
vt 0.593750 0.466436
vt 0.625000 0.466436
vt 0.656250 0.466436
vt 0.687500 0.466436
vt 0.718750 0.466436
vt 0.750000 0.466436
vt 0.250000 0.469830
vt 0.281250 0.469830
vt 0.312500 0.469830
vt 0.343750 0.469830
vt 0.375000 0.469830
vt 0.406250 0.469830
vt 0.437500 0.469830
vt 0.468750 0.469830
vt 0.500000 0.469830
vt 0.531250 0.469830
vt 0.562500 0.469830
vt 0.593750 0.469830
vt 0.625000 0.469830
vt 0.656250 0.469830
vt 0.687500 0.469830
vt 0.718750 0.469830
vt 0.750000 0.469830
vn 1.000000 0.000000 0.000000
vn 0.923880 0.360443 0.128558
vn 0.923880 0.360062 0.129622
vn 0.707107 0.666012 0.237544
vn 0.707107 0.665308 0.239511
vn 0.382683 0.870187 0.310367
vn 0.382683 0.869267 0.312936
vn 0.000000 0.941884 0.335939
vn 0.000000 0.940887 0.338719
vn -0.382683 0.870187 0.310367
vn -0.382683 0.869267 0.312936
vn -0.707107 0.666012 0.237544
vn -0.707107 0.665308 0.239511
vn -0.923880 0.360443 0.128558
vn -0.923880 0.360062 0.129622
vn -1.000000 0.000000 0.000000
vn -0.923880 -0.360443 -0.128558
vn -0.923880 -0.360062 -0.129622
vn -0.707107 -0.666012 -0.237544
vn -0.707107 -0.665308 -0.239511
vn -0.382683 -0.870187 -0.310367
vn -0.382683 -0.869267 -0.312936
vn -0.000000 -0.941884 -0.335939
vn -0.000000 -0.940887 -0.338719
vn 0.382683 -0.870187 -0.310367
vn 0.382683 -0.869267 -0.312936
vn 0.707107 -0.666012 -0.237544
vn 0.707107 -0.665308 -0.239511
vn 0.923880 -0.360443 -0.128558
vn 0.923880 -0.360062 -0.129622
vn 0.923880 0.360822 0.127491
vn 0.707107 0.666713 0.235572
vn 0.382683 0.871102 0.307789
vn 0.000000 0.942874 0.333149
vn -0.382683 0.871102 0.307789
vn -0.707107 0.666713 0.235572
vn -0.923880 0.360822 0.127491
vn -0.923880 -0.360822 -0.127491
vn -0.707107 -0.666713 -0.235572
vn -0.382683 -0.871102 -0.307789
vn -0.000000 -0.942874 -0.333149
vn 0.382683 -0.871102 -0.307789
vn 0.707107 -0.666713 -0.235572
vn 0.923880 -0.360822 -0.127491
vn 0.923880 0.361199 0.126420
vn 0.707107 0.667409 0.233593
vn 0.382683 0.872011 0.305204
vn 0.000000 0.943858 0.330350
vn -0.382683 0.872011 0.305204
vn -0.707107 0.667409 0.233593
vn -0.923880 0.361199 0.126420
vn -0.923880 -0.361199 -0.126420
vn -0.707107 -0.667409 -0.233593
vn -0.382683 -0.872011 -0.305204
vn -0.000000 -0.943858 -0.330350
vn 0.382683 -0.872011 -0.305204
vn 0.707107 -0.667409 -0.233593
vn 0.923880 -0.361199 -0.126420
vn 0.923880 0.361573 0.125345
vn 0.707107 0.668100 0.231608
vn 0.382683 0.872915 0.302610
vn 0.000000 0.944836 0.327543
vn -0.382683 0.872915 0.302610
vn -0.707107 0.668100 0.231608
vn -0.923880 0.361573 0.125345
vn -0.923880 -0.361573 -0.125345
vn -0.707107 -0.668100 -0.231608
vn -0.382683 -0.872915 -0.302610
vn -0.000000 -0.944836 -0.327543
vn 0.382683 -0.872915 -0.302610
vn 0.707107 -0.668100 -0.231608
vn 0.923880 -0.361573 -0.125345
vn 0.923880 0.361602 0.125263
vn 0.707107 0.668153 0.231455
vn 0.382683 0.872984 0.302411
vn 0.000000 0.944911 0.327327
vn -0.382683 0.872984 0.302411
vn -0.707107 0.668153 0.231455
vn -0.923880 0.361602 0.125263
vn -0.923880 -0.361602 -0.125263
vn -0.707107 -0.668153 -0.231455
vn -0.382683 -0.872984 -0.302411
vn -0.000000 -0.944911 -0.327327
vn 0.382683 -0.872984 -0.302411
vn 0.707107 -0.668153 -0.231455
vn 0.923880 -0.361602 -0.125263
usemtl body
f 1/1/1 2/2/1 3/3/2
f 1/1/1 3/3/2 4/4/3
f 4/4/3 3/3/2 5/5/4
f 4/4/3 5/5/4 6/6/5
f 6/6/5 5/5/4 7/7/6
f 6/6/5 7/7/6 8/8/7
f 8/8/7 7/7/6 9/9/8
f 8/8/7 9/9/8 10/10/9
f 10/10/9 9/9/8 11/11/10
f 10/10/9 11/11/10 12/12/11
f 12/12/11 11/11/10 13/13/12
f 12/12/11 13/13/12 14/14/13
f 14/14/13 13/13/12 15/15/14
f 14/14/13 15/15/14 16/16/15
f 16/16/15 15/15/14 17/17/16
f 16/16/15 17/17/16 18/18/16
f 18/18/16 17/17/16 19/19/17
f 18/18/16 19/19/17 20/20/18
f 20/20/18 19/19/17 21/21/19
f 20/20/18 21/21/19 22/22/20
f 22/22/20 21/21/19 23/23/21
f 22/22/20 23/23/21 24/24/22
f 24/24/22 23/23/21 25/25/23
f 24/24/22 25/25/23 26/26/24
f 26/26/24 25/25/23 27/27/25
f 26/26/24 27/27/25 28/28/26
f 28/28/26 27/27/25 29/29/27
f 28/28/26 29/29/27 30/30/28
f 30/30/28 29/29/27 31/31/29
f 30/30/28 31/31/29 32/32/30
f 32/32/30 31/31/29 2/33/1
f 32/32/30 2/33/1 1/34/1
f 2/2/1 33/35/1 34/36/31
f 2/2/1 34/36/31 3/3/2
f 3/3/2 34/36/31 35/37/32
f 3/3/2 35/37/32 5/5/4
f 5/5/4 35/37/32 36/38/33
f 5/5/4 36/38/33 7/7/6
f 7/7/6 36/38/33 37/39/34
f 7/7/6 37/39/34 9/9/8
f 9/9/8 37/39/34 38/40/35
f 9/9/8 38/40/35 11/11/10
f 11/11/10 38/40/35 39/41/36
f 11/11/10 39/41/36 13/13/12
f 13/13/12 39/41/36 40/42/37
f 13/13/12 40/42/37 15/15/14
f 15/15/14 40/42/37 41/43/16
f 15/15/14 41/43/16 17/17/16
f 17/17/16 41/43/16 42/44/38
f 17/17/16 42/44/38 19/19/17
f 19/19/17 42/44/38 43/45/39
f 19/19/17 43/45/39 21/21/19
f 21/21/19 43/45/39 44/46/40
f 21/21/19 44/46/40 23/23/21
f 23/23/21 44/46/40 45/47/41
f 23/23/21 45/47/41 25/25/23
f 25/25/23 45/47/41 46/48/42
f 25/25/23 46/48/42 27/27/25
f 27/27/25 46/48/42 47/49/43
f 27/27/25 47/49/43 29/29/27
f 29/29/27 47/49/43 48/50/44
f 29/29/27 48/50/44 31/31/29
f 31/31/29 48/50/44 33/51/1
f 31/31/29 33/51/1 2/33/1
f 33/35/1 49/52/1 50/53/45
f 33/35/1 50/53/45 34/36/31
f 34/36/31 50/53/45 51/54/46
f 34/36/31 51/54/46 35/37/32
f 35/37/32 51/54/46 52/55/47
f 35/37/32 52/55/47 36/38/33
f 36/38/33 52/55/47 53/56/48
f 36/38/33 53/56/48 37/39/34
f 37/39/34 53/56/48 54/57/49
f 37/39/34 54/57/49 38/40/35
f 38/40/35 54/57/49 55/58/50
f 38/40/35 55/58/50 39/41/36
f 39/41/36 55/58/50 56/59/51
f 39/41/36 56/59/51 40/42/37
f 40/42/37 56/59/51 57/60/16
f 40/42/37 57/60/16 41/43/16
f 41/43/16 57/60/16 58/61/52
f 41/43/16 58/61/52 42/44/38
f 42/44/38 58/61/52 59/62/53
f 42/44/38 59/62/53 43/45/39
f 43/45/39 59/62/53 60/63/54
f 43/45/39 60/63/54 44/46/40
f 44/46/40 60/63/54 61/64/55
f 44/46/40 61/64/55 45/47/41
f 45/47/41 61/64/55 62/65/56
f 45/47/41 62/65/56 46/48/42
f 46/48/42 62/65/56 63/66/57
f 46/48/42 63/66/57 47/49/43
f 47/49/43 63/66/57 64/67/58
f 47/49/43 64/67/58 48/50/44
f 48/50/44 64/67/58 49/68/1
f 48/50/44 49/68/1 33/51/1
f 49/52/1 65/69/1 66/70/59
f 49/52/1 66/70/59 50/53/45
f 50/53/45 66/70/59 67/71/60
f 50/53/45 67/71/60 51/54/46
f 51/54/46 67/71/60 68/72/61
f 51/54/46 68/72/61 52/55/47
f 52/55/47 68/72/61 69/73/62
f 52/55/47 69/73/62 53/56/48
f 53/56/48 69/73/62 70/74/63
f 53/56/48 70/74/63 54/57/49
f 54/57/49 70/74/63 71/75/64
f 54/57/49 71/75/64 55/58/50
f 55/58/50 71/75/64 72/76/65
f 55/58/50 72/76/65 56/59/51
f 56/59/51 72/76/65 73/77/16
f 56/59/51 73/77/16 57/60/16
f 57/60/16 73/77/16 74/78/66
f 57/60/16 74/78/66 58/61/52
f 58/61/52 74/78/66 75/79/67
f 58/61/52 75/79/67 59/62/53
f 59/62/53 75/79/67 76/80/68
f 59/62/53 76/80/68 60/63/54
f 60/63/54 76/80/68 77/81/69
f 60/63/54 77/81/69 61/64/55
f 61/64/55 77/81/69 78/82/70
f 61/64/55 78/82/70 62/65/56
f 62/65/56 78/82/70 79/83/71
f 62/65/56 79/83/71 63/66/57
f 63/66/57 79/83/71 80/84/72
f 63/66/57 80/84/72 64/67/58
f 64/67/58 80/84/72 65/85/1
f 64/67/58 65/85/1 49/68/1
f 65/69/1 81/86/1 82/87/73
f 65/69/1 82/87/73 66/70/59
f 66/70/59 82/87/73 83/88/74
f 66/70/59 83/88/74 67/71/60
f 67/71/60 83/88/74 84/89/75
f 67/71/60 84/89/75 68/72/61
f 68/72/61 84/89/75 85/90/76
f 68/72/61 85/90/76 69/73/62
f 69/73/62 85/90/76 86/91/77
f 69/73/62 86/91/77 70/74/63
f 70/74/63 86/91/77 87/92/78
f 70/74/63 87/92/78 71/75/64
f 71/75/64 87/92/78 88/93/79
f 71/75/64 88/93/79 72/76/65
f 72/76/65 88/93/79 89/94/16
f 72/76/65 89/94/16 73/77/16
f 73/77/16 89/94/16 90/95/80
f 73/77/16 90/95/80 74/78/66
f 74/78/66 90/95/80 91/96/81
f 74/78/66 91/96/81 75/79/67
f 75/79/67 91/96/81 92/97/82
f 75/79/67 92/97/82 76/80/68
f 76/80/68 92/97/82 93/98/83
f 76/80/68 93/98/83 77/81/69
f 77/81/69 93/98/83 94/99/84
f 77/81/69 94/99/84 78/82/70
f 78/82/70 94/99/84 95/100/85
f 78/82/70 95/100/85 79/83/71
f 79/83/71 95/100/85 96/101/86
f 79/83/71 96/101/86 80/84/72
f 80/84/72 96/101/86 81/102/1
f 80/84/72 81/102/1 65/85/1
