# Procedurally generated by dev-env-utils/scripts/gen_mast_arm_curves.py
# mount hardware on cell 2, model-space down
mtllib mastarmcurve.mtl
o mastarm_6x2_c2_down
v 0.835352 0.252440 0.739516
v 0.835352 0.338597 0.572984
v 0.809824 0.452580 0.631954
v 0.809824 0.366422 0.798486
v 0.737129 0.549210 0.681946
v 0.737129 0.463052 0.848479
v 0.628333 0.613776 0.715350
v 0.628333 0.527618 0.881883
v 0.500000 0.636448 0.727080
v 0.500000 0.550291 0.893613
v 0.371667 0.613776 0.715350
v 0.371667 0.527618 0.881883
v 0.262871 0.549210 0.681946
v 0.262871 0.463052 0.848479
v 0.190176 0.452580 0.631954
v 0.190176 0.366422 0.798486
v 0.164648 0.338597 0.572984
v 0.164648 0.252440 0.739516
v 0.190176 0.224615 0.514014
v 0.190176 0.138457 0.680546
v 0.262871 0.127985 0.464021
v 0.262871 0.041828 0.630554
v 0.371667 0.063419 0.430617
v 0.371667 -0.022738 0.597150
v 0.500000 0.040747 0.418887
v 0.500000 -0.045411 0.585420
v 0.628333 0.063419 0.430617
v 0.628333 -0.022738 0.597150
v 0.737129 0.127985 0.464021
v 0.737129 0.041828 0.630554
v 0.809824 0.224615 0.514014
v 0.809824 0.138457 0.680546
v 0.500000 0.252440 0.739516
v 0.500000 0.338597 0.572984
v 0.300000 0.075000 0.500000
v 0.300000 0.000625 0.500000
v 0.358579 0.000625 0.641421
v 0.358579 0.075000 0.641421
v 0.500000 0.000625 0.700000
v 0.500000 0.075000 0.700000
v 0.641421 0.000625 0.641421
v 0.641421 0.075000 0.641421
v 0.700000 0.000625 0.500000
v 0.700000 0.075000 0.500000
v 0.641421 0.000625 0.358579
v 0.641421 0.075000 0.358579
v 0.500000 0.000625 0.300000
v 0.500000 0.075000 0.300000
v 0.358579 0.000625 0.358579
v 0.358579 0.075000 0.358579
v 0.500000 0.075000 0.500000
v 0.500000 0.000625 0.500000
vt 0.250000 0.750000
vt 0.250000 0.582324
vt 0.281250 0.582324
vt 0.281250 0.750000
vt 0.312500 0.582324
vt 0.312500 0.750000
vt 0.343750 0.582324
vt 0.343750 0.750000
vt 0.375000 0.582324
vt 0.375000 0.750000
vt 0.406250 0.582324
vt 0.406250 0.750000
vt 0.437500 0.582324
vt 0.437500 0.750000
vt 0.468750 0.582324
vt 0.468750 0.750000
vt 0.500000 0.582324
vt 0.500000 0.750000
vt 0.531250 0.582324
vt 0.531250 0.750000
vt 0.562500 0.582324
vt 0.562500 0.750000
vt 0.593750 0.582324
vt 0.593750 0.750000
vt 0.625000 0.582324
vt 0.625000 0.750000
vt 0.656250 0.582324
vt 0.656250 0.750000
vt 0.687500 0.582324
vt 0.687500 0.750000
vt 0.718750 0.582324
vt 0.718750 0.750000
vt 0.750000 0.582324
vt 0.750000 0.750000
vt 0.500000 0.500000
vt 0.400000 0.600000
vt 0.600000 0.400000
vt 0.250000 0.650000
vt 0.312500 0.650000
vt 0.375000 0.650000
vt 0.437500 0.650000
vt 0.500000 0.650000
vt 0.562500 0.650000
vt 0.625000 0.650000
vt 0.687500 0.650000
vt 0.750000 0.650000
vn 1.000000 0.000000 0.000000
vn 0.923880 0.339890 0.175846
vn 0.707107 0.628034 0.324920
vn 0.382683 0.820566 0.424529
vn 0.000000 0.888174 0.459507
vn -0.382683 0.820566 0.424529
vn -0.707107 0.628034 0.324920
vn -0.923880 0.339890 0.175846
vn -1.000000 0.000000 0.000000
vn -0.923880 -0.339890 -0.175846
vn -0.707107 -0.628034 -0.324920
vn -0.382683 -0.820566 -0.424529
vn -0.000000 -0.888174 -0.459507
vn 0.382683 -0.820566 -0.424529
vn 0.707107 -0.628034 -0.324920
vn 0.923880 -0.339890 -0.175846
vn -0.000000 -0.459507 0.888174
vn 0.000000 0.459507 -0.888174
vn -0.707107 0.000000 0.707107
vn -0.000000 0.000000 1.000000
vn 0.707107 0.000000 0.707107
vn 0.707107 -0.000000 -0.707107
vn 0.000000 -0.000000 -1.000000
vn -0.707107 0.000000 -0.707107
vn -0.000000 1.000000 -0.000000
vn 0.000000 -1.000000 0.000000
usemtl body
f 1/1/1 2/2/1 3/3/2
f 1/1/1 3/3/2 4/4/2
f 4/4/2 3/3/2 5/5/3
f 4/4/2 5/5/3 6/6/3
f 6/6/3 5/5/3 7/7/4
f 6/6/3 7/7/4 8/8/4
f 8/8/4 7/7/4 9/9/5
f 8/8/4 9/9/5 10/10/5
f 10/10/5 9/9/5 11/11/6
f 10/10/5 11/11/6 12/12/6
f 12/12/6 11/11/6 13/13/7
f 12/12/6 13/13/7 14/14/7
f 14/14/7 13/13/7 15/15/8
f 14/14/7 15/15/8 16/16/8
f 16/16/8 15/15/8 17/17/9
f 16/16/8 17/17/9 18/18/9
f 18/18/9 17/17/9 19/19/10
f 18/18/9 19/19/10 20/20/10
f 20/20/10 19/19/10 21/21/11
f 20/20/10 21/21/11 22/22/11
f 22/22/11 21/21/11 23/23/12
f 22/22/11 23/23/12 24/24/12
f 24/24/12 23/23/12 25/25/13
f 24/24/12 25/25/13 26/26/13
f 26/26/13 25/25/13 27/27/14
f 26/26/13 27/27/14 28/28/14
f 28/28/14 27/27/14 29/29/15
f 28/28/14 29/29/15 30/30/15
f 30/30/15 29/29/15 31/31/16
f 30/30/15 31/31/16 32/32/16
f 32/32/16 31/31/16 2/33/1
f 32/32/16 2/33/1 1/34/1
f 33/35/17 1/36/17 4/37/17
f 33/35/17 4/36/17 6/37/17
f 33/35/17 6/36/17 8/37/17
f 33/35/17 8/36/17 10/37/17
f 33/35/17 10/36/17 12/37/17
f 33/35/17 12/36/17 14/37/17
f 33/35/17 14/36/17 16/37/17
f 33/35/17 16/36/17 18/37/17
f 33/35/17 18/36/17 20/37/17
f 33/35/17 20/36/17 22/37/17
f 33/35/17 22/36/17 24/37/17
f 33/35/17 24/36/17 26/37/17
f 33/35/17 26/36/17 28/37/17
f 33/35/17 28/36/17 30/37/17
f 33/35/17 30/36/17 32/37/17
f 33/35/17 32/36/17 1/37/17
f 34/35/18 3/37/18 2/36/18
f 34/35/18 5/37/18 3/36/18
f 34/35/18 7/37/18 5/36/18
f 34/35/18 9/37/18 7/36/18
f 34/35/18 11/37/18 9/36/18
f 34/35/18 13/37/18 11/36/18
f 34/35/18 15/37/18 13/36/18
f 34/35/18 17/37/18 15/36/18
f 34/35/18 19/37/18 17/36/18
f 34/35/18 21/37/18 19/36/18
f 34/35/18 23/37/18 21/36/18
f 34/35/18 25/37/18 23/36/18
f 34/35/18 27/37/18 25/36/18
f 34/35/18 29/37/18 27/36/18
f 34/35/18 31/37/18 29/36/18
f 34/35/18 2/37/18 31/36/18
f 35/1/9 36/38/9 37/39/19
f 35/1/9 37/39/19 38/6/19
f 38/6/19 37/39/19 39/40/20
f 38/6/19 39/40/20 40/10/20
f 40/10/20 39/40/20 41/41/21
f 40/10/20 41/41/21 42/14/21
f 42/14/21 41/41/21 43/42/1
f 42/14/21 43/42/1 44/18/1
f 44/18/1 43/42/1 45/43/22
f 44/18/1 45/43/22 46/22/22
f 46/22/22 45/43/22 47/44/23
f 46/22/22 47/44/23 48/26/23
f 48/26/23 47/44/23 49/45/24
f 48/26/23 49/45/24 50/30/24
f 50/30/24 49/45/24 36/46/9
f 50/30/24 36/46/9 35/34/9
f 51/35/25 35/36/25 38/37/25
f 51/35/25 38/36/25 40/37/25
f 51/35/25 40/36/25 42/37/25
f 51/35/25 42/36/25 44/37/25
f 51/35/25 44/36/25 46/37/25
f 51/35/25 46/36/25 48/37/25
f 51/35/25 48/36/25 50/37/25
f 51/35/25 50/36/25 35/37/25
f 52/35/26 37/37/26 36/36/26
f 52/35/26 39/37/26 37/36/26
f 52/35/26 41/37/26 39/36/26
f 52/35/26 43/37/26 41/36/26
f 52/35/26 45/37/26 43/36/26
f 52/35/26 47/37/26 45/36/26
f 52/35/26 49/37/26 47/36/26
f 52/35/26 36/37/26 49/36/26
