# Procedurally generated by dev-env-utils/scripts/gen_mast_arm_curves.py
# mount hardware on cell 2, model-space west
mtllib mastarmcurve.mtl
o mastarm_6x2_c2_west
v 0.852637 0.356740 0.537152
v 0.852637 0.439891 0.369098
v 0.825794 0.560844 0.428944
v 0.825794 0.477692 0.596998
v 0.749352 0.663382 0.479679
v 0.749352 0.580230 0.647733
v 0.634948 0.731896 0.513580
v 0.634948 0.648744 0.681633
v 0.500000 0.755955 0.525484
v 0.500000 0.672803 0.693538
v 0.365052 0.731896 0.513580
v 0.365052 0.648744 0.681633
v 0.250648 0.663382 0.479679
v 0.250648 0.580230 0.647733
v 0.174206 0.560844 0.428944
v 0.174206 0.477692 0.596998
v 0.147363 0.439891 0.369098
v 0.147363 0.356740 0.537152
v 0.174206 0.318939 0.309252
v 0.174206 0.235787 0.477306
v 0.250648 0.216401 0.258517
v 0.250648 0.133249 0.426571
v 0.365052 0.147887 0.224617
v 0.365052 0.064735 0.392670
v 0.500000 0.123828 0.212712
v 0.500000 0.040676 0.380766
v 0.634948 0.147887 0.224617
v 0.634948 0.064735 0.392670
v 0.749352 0.216401 0.258517
v 0.749352 0.133249 0.426571
v 0.825794 0.318939 0.309252
v 0.825794 0.235787 0.477306
v 0.500000 0.356740 0.537152
v 0.500000 0.439891 0.369098
v 0.075000 0.700000 0.500000
v 0.000625 0.700000 0.500000
v 0.000625 0.641421 0.641421
v 0.075000 0.641421 0.641421
v 0.000625 0.500000 0.700000
v 0.075000 0.500000 0.700000
v 0.000625 0.358579 0.641421
v 0.075000 0.358579 0.641421
v 0.000625 0.300000 0.500000
v 0.075000 0.300000 0.500000
v 0.000625 0.358579 0.358579
v 0.075000 0.358579 0.358579
v 0.000625 0.500000 0.300000
v 0.075000 0.500000 0.300000
v 0.000625 0.641421 0.358579
v 0.075000 0.641421 0.358579
v 0.075000 0.500000 0.500000
v 0.000625 0.500000 0.500000
v 0.275387 0.545688 0.476809
v 0.103017 0.595995 0.500000
v 0.105411 0.581340 0.549588
v 0.277782 0.531032 0.526397
v 0.099657 0.544890 0.585889
v 0.272027 0.494582 0.562698
v 0.087296 0.496411 0.599176
v 0.259666 0.446104 0.575985
v 0.071640 0.448895 0.585889
v 0.244010 0.398587 0.562698
v 0.056885 0.415071 0.549588
v 0.229255 0.364764 0.526397
v 0.046983 0.404005 0.500000
v 0.219353 0.353697 0.476809
v 0.044589 0.418660 0.450412
v 0.216959 0.368353 0.427221
v 0.050343 0.455110 0.414111
v 0.222713 0.404803 0.390920
v 0.062704 0.503589 0.400824
v 0.235074 0.453281 0.377633
v 0.078360 0.551105 0.414111
v 0.250730 0.500798 0.390920
v 0.093115 0.584929 0.450412
v 0.265486 0.534621 0.427221
v 0.247370 0.449693 0.476809
vt 0.250000 0.750000
vt 0.250000 0.573682
vt 0.281250 0.573682
vt 0.281250 0.750000
vt 0.312500 0.573682
vt 0.312500 0.750000
vt 0.343750 0.573682
vt 0.343750 0.750000
vt 0.375000 0.573682
vt 0.375000 0.750000
vt 0.406250 0.573682
vt 0.406250 0.750000
vt 0.437500 0.573682
vt 0.437500 0.750000
vt 0.468750 0.573682
vt 0.468750 0.750000
vt 0.500000 0.573682
vt 0.500000 0.750000
vt 0.531250 0.573682
vt 0.531250 0.750000
vt 0.562500 0.573682
vt 0.562500 0.750000
vt 0.593750 0.573682
vt 0.593750 0.750000
vt 0.625000 0.573682
vt 0.625000 0.750000
vt 0.656250 0.573682
vt 0.656250 0.750000
vt 0.687500 0.573682
vt 0.687500 0.750000
vt 0.718750 0.573682
vt 0.718750 0.750000
vt 0.750000 0.573682
vt 0.750000 0.750000
vt 0.500000 0.500000
vt 0.400000 0.600000
vt 0.600000 0.400000
vt 0.250000 0.650000
vt 0.312500 0.650000
vt 0.375000 0.650000
vt 0.437500 0.650000
vt 0.500000 0.650000
vt 0.562500 0.650000
vt 0.625000 0.650000
vt 0.687500 0.650000
vt 0.750000 0.650000
vt 0.250000 0.700000
vt 0.291667 0.700000
vt 0.291667 0.750000
vt 0.333333 0.700000
vt 0.333333 0.750000
vt 0.375000 0.700000
vt 0.416667 0.700000
vt 0.416667 0.750000
vt 0.458333 0.700000
vt 0.458333 0.750000
vt 0.500000 0.700000
vt 0.541667 0.700000
vt 0.541667 0.750000
vt 0.583333 0.700000
vt 0.583333 0.750000
vt 0.625000 0.700000
vt 0.666667 0.700000
vt 0.666667 0.750000
vt 0.708333 0.700000
vt 0.708333 0.750000
vt 0.750000 0.700000
vn 1.000000 0.000000 0.000000
vn 0.923880 0.342994 0.169711
vn 0.707107 0.633770 0.313584
vn 0.382683 0.828061 0.409718
vn 0.000000 0.896287 0.443475
vn -0.382683 0.828061 0.409718
vn -0.707107 0.633770 0.313584
vn -0.923880 0.342994 0.169711
vn -1.000000 0.000000 0.000000
vn -0.923880 -0.342994 -0.169711
vn -0.707107 -0.633770 -0.313584
vn -0.382683 -0.828061 -0.409718
vn -0.000000 -0.896287 -0.443475
vn 0.382683 -0.828061 -0.409718
vn 0.707107 -0.633770 -0.313584
vn 0.923880 -0.342994 -0.169711
vn -0.000000 -0.443475 0.896287
vn 0.000000 0.443475 -0.896287
vn 0.000000 1.000000 0.000000
vn 0.000000 0.707107 0.707107
vn 0.000000 0.000000 1.000000
vn 0.000000 -0.707107 0.707107
vn 0.000000 -1.000000 0.000000
vn -0.000000 -0.707107 -0.707107
vn -0.000000 -0.000000 -1.000000
vn 0.000000 0.707107 -0.707107
vn 0.280168 0.959951 0.000000
vn 0.304113 0.813399 0.495881
vn 0.246570 0.448897 0.858892
vn 0.122960 -0.035887 0.991763
vn -0.033598 -0.511054 0.858892
vn -0.181153 -0.849285 0.495881
vn -0.280168 -0.959951 0.000000
vn -0.304113 -0.813399 -0.495881
vn -0.246570 -0.448897 -0.858892
vn -0.122960 0.035887 -0.991763
vn 0.033598 0.511054 -0.858892
vn 0.181153 0.849285 -0.495881
vn 0.952043 -0.277861 -0.128089
vn -0.952043 0.277861 0.128089
usemtl body
f 1/1/1 2/2/1 3/3/2
f 1/1/1 3/3/2 4/4/2
f 4/4/2 3/3/2 5/5/3
f 4/4/2 5/5/3 6/6/3
f 6/6/3 5/5/3 7/7/4
f 6/6/3 7/7/4 8/8/4
f 8/8/4 7/7/4 9/9/5
f 8/8/4 9/9/5 10/10/5
f 10/10/5 9/9/5 11/11/6
f 10/10/5 11/11/6 12/12/6
f 12/12/6 11/11/6 13/13/7
f 12/12/6 13/13/7 14/14/7
f 14/14/7 13/13/7 15/15/8
f 14/14/7 15/15/8 16/16/8
f 16/16/8 15/15/8 17/17/9
f 16/16/8 17/17/9 18/18/9
f 18/18/9 17/17/9 19/19/10
f 18/18/9 19/19/10 20/20/10
f 20/20/10 19/19/10 21/21/11
f 20/20/10 21/21/11 22/22/11
f 22/22/11 21/21/11 23/23/12
f 22/22/11 23/23/12 24/24/12
f 24/24/12 23/23/12 25/25/13
f 24/24/12 25/25/13 26/26/13
f 26/26/13 25/25/13 27/27/14
f 26/26/13 27/27/14 28/28/14
f 28/28/14 27/27/14 29/29/15
f 28/28/14 29/29/15 30/30/15
f 30/30/15 29/29/15 31/31/16
f 30/30/15 31/31/16 32/32/16
f 32/32/16 31/31/16 2/33/1
f 32/32/16 2/33/1 1/34/1
f 33/35/17 1/36/17 4/37/17
f 33/35/17 4/36/17 6/37/17
f 33/35/17 6/36/17 8/37/17
f 33/35/17 8/36/17 10/37/17
f 33/35/17 10/36/17 12/37/17
f 33/35/17 12/36/17 14/37/17
f 33/35/17 14/36/17 16/37/17
f 33/35/17 16/36/17 18/37/17
f 33/35/17 18/36/17 20/37/17
f 33/35/17 20/36/17 22/37/17
f 33/35/17 22/36/17 24/37/17
f 33/35/17 24/36/17 26/37/17
f 33/35/17 26/36/17 28/37/17
f 33/35/17 28/36/17 30/37/17
f 33/35/17 30/36/17 32/37/17
f 33/35/17 32/36/17 1/37/17
f 34/35/18 3/37/18 2/36/18
f 34/35/18 5/37/18 3/36/18
f 34/35/18 7/37/18 5/36/18
f 34/35/18 9/37/18 7/36/18
f 34/35/18 11/37/18 9/36/18
f 34/35/18 13/37/18 11/36/18
f 34/35/18 15/37/18 13/36/18
f 34/35/18 17/37/18 15/36/18
f 34/35/18 19/37/18 17/36/18
f 34/35/18 21/37/18 19/36/18
f 34/35/18 23/37/18 21/36/18
f 34/35/18 25/37/18 23/36/18
f 34/35/18 27/37/18 25/36/18
f 34/35/18 29/37/18 27/36/18
f 34/35/18 31/37/18 29/36/18
f 34/35/18 2/37/18 31/36/18
f 35/1/19 36/38/19 37/39/20
f 35/1/19 37/39/20 38/6/20
f 38/6/20 37/39/20 39/40/21
f 38/6/20 39/40/21 40/10/21
f 40/10/21 39/40/21 41/41/22
f 40/10/21 41/41/22 42/14/22
f 42/14/22 41/41/22 43/42/23
f 42/14/22 43/42/23 44/18/23
f 44/18/23 43/42/23 45/43/24
f 44/18/23 45/43/24 46/22/24
f 46/22/24 45/43/24 47/44/25
f 46/22/24 47/44/25 48/26/25
f 48/26/25 47/44/25 49/45/26
f 48/26/25 49/45/26 50/30/26
f 50/30/26 49/45/26 36/46/19
f 50/30/26 36/46/19 35/34/19
f 51/35/1 35/36/1 38/37/1
f 51/35/1 38/36/1 40/37/1
f 51/35/1 40/36/1 42/37/1
f 51/35/1 42/36/1 44/37/1
f 51/35/1 44/36/1 46/37/1
f 51/35/1 46/36/1 48/37/1
f 51/35/1 48/36/1 50/37/1
f 51/35/1 50/36/1 35/37/1
f 52/35/9 37/37/9 36/36/9
f 52/35/9 39/37/9 37/36/9
f 52/35/9 41/37/9 39/36/9
f 52/35/9 43/37/9 41/36/9
f 52/35/9 45/37/9 43/36/9
f 52/35/9 47/37/9 45/36/9
f 52/35/9 49/37/9 47/36/9
f 52/35/9 36/37/9 49/36/9
f 53/1/27 54/47/27 55/48/28
f 53/1/27 55/48/28 56/49/28
f 56/49/28 55/48/28 57/50/29
f 56/49/28 57/50/29 58/51/29
f 58/51/29 57/50/29 59/52/30
f 58/51/29 59/52/30 60/10/30
f 60/10/30 59/52/30 61/53/31
f 60/10/30 61/53/31 62/54/31
f 62/54/31 61/53/31 63/55/32
f 62/54/31 63/55/32 64/56/32
f 64/56/32 63/55/32 65/57/33
f 64/56/32 65/57/33 66/18/33
f 66/18/33 65/57/33 67/58/34
f 66/18/33 67/58/34 68/59/34
f 68/59/34 67/58/34 69/60/35
f 68/59/34 69/60/35 70/61/35
f 70/61/35 69/60/35 71/62/36
f 70/61/35 71/62/36 72/26/36
f 72/26/36 71/62/36 73/63/37
f 72/26/36 73/63/37 74/64/37
f 74/64/37 73/63/37 75/65/38
f 74/64/37 75/65/38 76/66/38
f 76/66/38 75/65/38 54/67/27
f 76/66/38 54/67/27 53/34/27
f 77/35/39 53/36/39 56/37/39
f 77/35/39 56/36/39 58/37/39
f 77/35/39 58/36/39 60/37/39
f 77/35/39 60/36/39 62/37/39
f 77/35/39 62/36/39 64/37/39
f 77/35/39 64/36/39 66/37/39
f 77/35/39 66/36/39 68/37/39
f 77/35/39 68/36/39 70/37/39
f 77/35/39 70/36/39 72/37/39
f 77/35/39 72/36/39 74/37/39
f 77/35/39 74/36/39 76/37/39
f 77/35/39 76/36/39 53/37/39
f 51/35/40 55/37/40 54/36/40
f 51/35/40 57/37/40 55/36/40
f 51/35/40 59/37/40 57/36/40
f 51/35/40 61/37/40 59/36/40
f 51/35/40 63/37/40 61/36/40
f 51/35/40 65/37/40 63/36/40
f 51/35/40 67/37/40 65/36/40
f 51/35/40 69/37/40 67/36/40
f 51/35/40 71/37/40 69/36/40
f 51/35/40 73/37/40 71/36/40
f 51/35/40 75/37/40 73/36/40
f 51/35/40 54/37/40 75/36/40
