# Procedurally generated by dev-env-utils/scripts/gen_mast_arm_curves.py
# cell 3 of 5 at (+2 along arm, +1 up)
mtllib mastarmcurve.mtl
o mastarm_4x1_c3
v 0.781250 0.250000 1.000000
v 0.779948 0.270399 0.916667
v 0.758638 0.374582 0.941627
v 0.759841 0.354416 1.026104
v 0.697953 0.462905 0.962788
v 0.698874 0.442936 1.048234
v 0.607131 0.521920 0.976927
v 0.607630 0.502083 1.063021
v 0.500000 0.542643 0.981892
v 0.500000 0.522853 1.068213
v 0.392869 0.521920 0.976927
v 0.392370 0.502083 1.063021
v 0.302047 0.462905 0.962788
v 0.301126 0.442936 1.048234
v 0.241362 0.374582 0.941627
v 0.240159 0.354416 1.026104
v 0.220052 0.270399 0.916667
v 0.218750 0.250000 1.000000
v 0.241362 0.166216 0.891706
v 0.240159 0.145584 0.973896
v 0.302047 0.077894 0.870546
v 0.301126 0.057064 0.951766
v 0.392869 0.018879 0.856407
v 0.392370 -0.002083 0.936979
v 0.500000 -0.001844 0.851442
v 0.500000 -0.022853 0.931787
v 0.607131 0.018879 0.856407
v 0.607630 -0.002083 0.936979
v 0.697953 0.077894 0.870546
v 0.698874 0.057064 0.951766
v 0.758638 0.166216 0.891706
v 0.759841 0.145584 0.973896
v 0.778646 0.289931 0.833333
v 0.757435 0.393869 0.857153
v 0.697032 0.481984 0.877346
v 0.606633 0.540861 0.890838
v 0.500000 0.561536 0.895576
v 0.393367 0.540861 0.890838
v 0.302968 0.481984 0.877346
v 0.242565 0.393869 0.857153
v 0.221354 0.289931 0.833333
v 0.242565 0.185992 0.809514
v 0.302968 0.097877 0.789321
v 0.393367 0.039000 0.775828
v 0.500000 0.018325 0.771090
v 0.606633 0.039000 0.775828
v 0.697032 0.097877 0.789321
v 0.757435 0.185992 0.809514
v 0.777344 0.308594 0.750000
v 0.756232 0.412277 0.772681
v 0.696112 0.500175 0.791908
v 0.606135 0.558907 0.804756
v 0.500000 0.579531 0.809267
v 0.393865 0.558907 0.804756
v 0.303888 0.500175 0.791908
v 0.243768 0.412277 0.772681
v 0.222656 0.308594 0.750000
v 0.243768 0.204911 0.727319
v 0.303888 0.117012 0.708092
v 0.393865 0.058280 0.695244
v 0.500000 0.037657 0.690733
v 0.606135 0.058280 0.695244
v 0.696112 0.117012 0.708092
v 0.756232 0.204911 0.727319
v 0.776042 0.326389 0.666667
v 0.755029 0.429805 0.688212
v 0.695191 0.517477 0.706477
v 0.605637 0.576058 0.718681
v 0.500000 0.596628 0.722967
v 0.394363 0.576058 0.718681
v 0.304809 0.517477 0.706477
v 0.244971 0.429805 0.688212
v 0.223958 0.326389 0.666667
v 0.244971 0.222973 0.645122
v 0.304809 0.135301 0.626857
v 0.394363 0.076720 0.614652
v 0.500000 0.056150 0.610367
v 0.605637 0.076720 0.614652
v 0.695191 0.135301 0.626857
v 0.755029 0.222973 0.645122
v 0.774740 0.343316 0.583333
v 0.753826 0.446454 0.603746
v 0.694270 0.533890 0.621051
v 0.605138 0.592312 0.632614
v 0.500000 0.612828 0.636674
v 0.394862 0.592312 0.632614
v 0.305730 0.533890 0.621051
v 0.246174 0.446454 0.603746
v 0.225260 0.343316 0.583333
v 0.246174 0.240178 0.562921
v 0.305730 0.152742 0.545616
v 0.394862 0.094320 0.534053
v 0.500000 0.073804 0.529992
v 0.605138 0.094320 0.534053
v 0.694270 0.152742 0.545616
v 0.753826 0.240178 0.562921
v 0.773438 0.359375 0.500000
v 0.752623 0.462223 0.519284
v 0.693350 0.549413 0.535632
v 0.604640 0.607671 0.546556
v 0.500000 0.628129 0.550391
v 0.395360 0.607671 0.546556
v 0.306650 0.549413 0.535632
v 0.247377 0.462223 0.519284
v 0.226562 0.359375 0.500000
v 0.247377 0.256527 0.480716
v 0.306650 0.169337 0.464368
v 0.395360 0.111079 0.453444
v 0.500000 0.090621 0.449609
v 0.604640 0.111079 0.453444
v 0.693350 0.169337 0.464368
v 0.752623 0.256527 0.480716
v 0.772135 0.374566 0.416667
v 0.751420 0.477112 0.434826
v 0.692429 0.564047 0.450221
v 0.604142 0.622135 0.460507
v 0.500000 0.642532 0.464119
v 0.395858 0.622135 0.460507
v 0.307571 0.564047 0.450221
v 0.248580 0.477112 0.434826
v 0.227865 0.374566 0.416667
v 0.248580 0.272020 0.398507
v 0.307571 0.185085 0.383113
v 0.395858 0.126997 0.372826
v 0.500000 0.106600 0.369214
v 0.604142 0.126997 0.372826
v 0.692429 0.185085 0.383113
v 0.751420 0.272020 0.398507
v 0.770833 0.388889 0.333333
v 0.750217 0.491122 0.350372
v 0.691508 0.577791 0.364817
v 0.603643 0.635702 0.374469
v 0.500000 0.656037 0.377858
v 0.396357 0.635702 0.374469
v 0.308492 0.577791 0.364817
v 0.249783 0.491122 0.350372
v 0.229167 0.388889 0.333333
v 0.249783 0.286656 0.316294
v 0.308492 0.199986 0.301850
v 0.396357 0.142076 0.292198
v 0.500000 0.121741 0.288809
v 0.603643 0.142076 0.292198
v 0.691508 0.199986 0.301850
v 0.750217 0.286656 0.316294
v 0.769531 0.402344 0.250000
v 0.749014 0.504252 0.265923
v 0.690587 0.590646 0.279422
v 0.603145 0.648373 0.288442
v 0.500000 0.668644 0.291609
v 0.396855 0.648373 0.288442
v 0.309413 0.590646 0.279422
v 0.250986 0.504252 0.265923
v 0.230469 0.402344 0.250000
v 0.250986 0.300435 0.234077
v 0.309413 0.214041 0.220578
v 0.396855 0.156315 0.211558
v 0.500000 0.136044 0.208391
v 0.603145 0.156315 0.211558
v 0.690587 0.214041 0.220578
v 0.749014 0.300435 0.234077
v 0.768229 0.414931 0.166667
v 0.747811 0.516503 0.181479
v 0.689667 0.602612 0.194037
v 0.602647 0.660148 0.202428
v 0.500000 0.680352 0.205374
v 0.397353 0.660148 0.202428
v 0.310333 0.602612 0.194037
v 0.252189 0.516503 0.181479
v 0.231771 0.414931 0.166667
v 0.252189 0.313358 0.151854
v 0.310333 0.227249 0.139296
v 0.397353 0.169713 0.130906
v 0.500000 0.149509 0.127959
v 0.602647 0.169713 0.130906
v 0.689667 0.227249 0.139296
v 0.747811 0.313358 0.151854
v 0.766927 0.426649 0.083333
v 0.746608 0.527874 0.097041
v 0.688746 0.613688 0.108662
v 0.602149 0.671027 0.116426
v 0.500000 0.691162 0.119153
v 0.397851 0.671027 0.116426
v 0.311254 0.613688 0.108662
v 0.253392 0.527874 0.097041
v 0.233073 0.426649 0.083333
v 0.253392 0.325425 0.069626
v 0.311254 0.239610 0.058005
v 0.397851 0.182271 0.050240
v 0.500000 0.162136 0.047514
v 0.602149 0.182271 0.050240
v 0.688746 0.239610 0.058005
v 0.746608 0.325425 0.069626
v 0.765625 0.437500 0.000000
v 0.745406 0.538365 0.012608
v 0.687825 0.623875 0.023297
v 0.601650 0.681010 0.030439
v 0.500000 0.701074 0.032947
v 0.398350 0.681010 0.030439
v 0.312175 0.623875 0.023297
v 0.254594 0.538365 0.012608
v 0.234375 0.437500 0.000000
v 0.254594 0.336635 -0.012608
v 0.312175 0.251125 -0.023297
v 0.398350 0.193990 -0.030439
v 0.500000 0.173926 -0.032947
v 0.601650 0.193990 -0.030439
v 0.687825 0.251125 -0.023297
v 0.745406 0.336635 -0.012608
vt 0.250000 0.670953
vt 0.250000 0.628057
vt 0.281250 0.628057
vt 0.281250 0.670953
vt 0.312500 0.628057
vt 0.312500 0.670953
vt 0.343750 0.628057
vt 0.343750 0.670953
vt 0.375000 0.628057
vt 0.375000 0.670953
vt 0.406250 0.628057
vt 0.406250 0.670953
vt 0.437500 0.628057
vt 0.437500 0.670953
vt 0.468750 0.628057
vt 0.468750 0.670953
vt 0.500000 0.628057
vt 0.500000 0.670953
vt 0.531250 0.628057
vt 0.531250 0.670953
vt 0.562500 0.628057
vt 0.562500 0.670953
vt 0.593750 0.628057
vt 0.593750 0.670953
vt 0.625000 0.628057
vt 0.625000 0.670953
vt 0.656250 0.628057
vt 0.656250 0.670953
vt 0.687500 0.628057
vt 0.687500 0.670953
vt 0.718750 0.628057
vt 0.718750 0.670953
vt 0.750000 0.628057
vt 0.750000 0.670953
vt 0.250000 0.585261
vt 0.281250 0.585261
vt 0.312500 0.585261
vt 0.343750 0.585261
vt 0.375000 0.585261
vt 0.406250 0.585261
vt 0.437500 0.585261
vt 0.468750 0.585261
vt 0.500000 0.585261
vt 0.531250 0.585261
vt 0.562500 0.585261
vt 0.593750 0.585261
vt 0.625000 0.585261
vt 0.656250 0.585261
vt 0.687500 0.585261
vt 0.718750 0.585261
vt 0.750000 0.585261
vt 0.250000 0.542562
vt 0.281250 0.542562
vt 0.312500 0.542562
vt 0.343750 0.542562
vt 0.375000 0.542562
vt 0.406250 0.542562
vt 0.437500 0.542562
vt 0.468750 0.542562
vt 0.500000 0.542562
vt 0.531250 0.542562
vt 0.562500 0.542562
vt 0.593750 0.542562
vt 0.625000 0.542562
vt 0.656250 0.542562
vt 0.687500 0.542562
vt 0.718750 0.542562
vt 0.750000 0.542562
vt 0.250000 0.499956
vt 0.281250 0.499956
vt 0.312500 0.499956
vt 0.343750 0.499956
vt 0.375000 0.499956
vt 0.406250 0.499956
vt 0.437500 0.499956
vt 0.468750 0.499956
vt 0.500000 0.499956
vt 0.531250 0.499956
vt 0.562500 0.499956
vt 0.593750 0.499956
vt 0.625000 0.499956
vt 0.656250 0.499956
vt 0.687500 0.499956
vt 0.718750 0.499956
vt 0.750000 0.499956
vt 0.250000 0.457438
vt 0.281250 0.457438
vt 0.312500 0.457438
vt 0.343750 0.457438
vt 0.375000 0.457438
vt 0.406250 0.457438
vt 0.437500 0.457438
vt 0.468750 0.457438
vt 0.500000 0.457438
vt 0.531250 0.457438
vt 0.562500 0.457438
vt 0.593750 0.457438
vt 0.625000 0.457438
vt 0.656250 0.457438
vt 0.687500 0.457438
vt 0.718750 0.457438
vt 0.750000 0.457438
vt 0.250000 0.415005
vt 0.281250 0.415005
vt 0.312500 0.415005
vt 0.343750 0.415005
vt 0.375000 0.415005
vt 0.406250 0.415005
vt 0.437500 0.415005
vt 0.468750 0.415005
vt 0.500000 0.415005
vt 0.531250 0.415005
vt 0.562500 0.415005
vt 0.593750 0.415005
vt 0.625000 0.415005
vt 0.656250 0.415005
vt 0.687500 0.415005
vt 0.718750 0.415005
vt 0.750000 0.415005
vt 0.250000 0.372652
vt 0.281250 0.372652
vt 0.312500 0.372652
vt 0.343750 0.372652
vt 0.375000 0.372652
vt 0.406250 0.372652
vt 0.437500 0.372652
vt 0.468750 0.372652
vt 0.500000 0.372652
vt 0.531250 0.372652
vt 0.562500 0.372652
vt 0.593750 0.372652
vt 0.625000 0.372652
vt 0.656250 0.372652
vt 0.687500 0.372652
vt 0.718750 0.372652
vt 0.750000 0.372652
vt 0.250000 0.330374
vt 0.281250 0.330374
vt 0.312500 0.330374
vt 0.343750 0.330374
vt 0.375000 0.330374
vt 0.406250 0.330374
vt 0.437500 0.330374
vt 0.468750 0.330374
vt 0.500000 0.330374
vt 0.531250 0.330374
vt 0.562500 0.330374
vt 0.593750 0.330374
vt 0.625000 0.330374
vt 0.656250 0.330374
vt 0.687500 0.330374
vt 0.718750 0.330374
vt 0.750000 0.330374
vt 0.250000 0.288168
vt 0.281250 0.288168
vt 0.312500 0.288168
vt 0.343750 0.288168
vt 0.375000 0.288168
vt 0.406250 0.288168
vt 0.437500 0.288168
vt 0.468750 0.288168
vt 0.500000 0.288168
vt 0.531250 0.288168
vt 0.562500 0.288168
vt 0.593750 0.288168
vt 0.625000 0.288168
vt 0.656250 0.288168
vt 0.687500 0.288168
vt 0.718750 0.288168
vt 0.750000 0.288168
vt 0.250000 0.253971
vt 0.281250 0.253971
vt 0.312500 0.253971
vt 0.343750 0.253971
vt 0.375000 0.253971
vt 0.406250 0.253971
vt 0.437500 0.253971
vt 0.468750 0.253971
vt 0.500000 0.253971
vt 0.531250 0.253971
vt 0.562500 0.253971
vt 0.593750 0.253971
vt 0.625000 0.253971
vt 0.656250 0.253971
vt 0.687500 0.253971
vt 0.718750 0.253971
vt 0.750000 0.253971
vt 0.250000 0.296048
vt 0.281250 0.296048
vt 0.312500 0.296048
vt 0.343750 0.296048
vt 0.375000 0.296048
vt 0.406250 0.296048
vt 0.437500 0.296048
vt 0.468750 0.296048
vt 0.500000 0.296048
vt 0.531250 0.296048
vt 0.562500 0.296048
vt 0.593750 0.296048
vt 0.625000 0.296048
vt 0.656250 0.296048
vt 0.687500 0.296048
vt 0.718750 0.296048
vt 0.750000 0.296048
vt 0.250000 0.338067
vt 0.281250 0.338067
vt 0.312500 0.338067
vt 0.343750 0.338067
vt 0.375000 0.338067
vt 0.406250 0.338067
vt 0.437500 0.338067
vt 0.468750 0.338067
vt 0.500000 0.338067
vt 0.531250 0.338067
vt 0.562500 0.338067
vt 0.593750 0.338067
vt 0.625000 0.338067
vt 0.656250 0.338067
vt 0.687500 0.338067
vt 0.718750 0.338067
vt 0.750000 0.338067
vn 1.000000 0.000000 0.000000
vn 0.923880 0.372152 0.089161
vn 0.923880 0.371257 0.092814
vn 0.707107 0.687647 0.164749
vn 0.707107 0.685994 0.171499
vn 0.382683 0.898454 0.215255
vn 0.382683 0.896295 0.224074
vn 0.000000 0.972479 0.232990
vn 0.000000 0.970143 0.242536
vn -0.382683 0.898454 0.215255
vn -0.382683 0.896295 0.224074
vn -0.707107 0.687647 0.164749
vn -0.707107 0.685994 0.171499
vn -0.923880 0.372152 0.089161
vn -0.923880 0.371257 0.092814
vn -1.000000 0.000000 0.000000
vn -0.923880 -0.372152 -0.089161
vn -0.923880 -0.371257 -0.092814
vn -0.707107 -0.687647 -0.164749
vn -0.707107 -0.685994 -0.171499
vn -0.382683 -0.898454 -0.215255
vn -0.382683 -0.896295 -0.224074
vn -0.000000 -0.972479 -0.232990
vn -0.000000 -0.970143 -0.242536
vn 0.382683 -0.898454 -0.215255
vn 0.382683 -0.896295 -0.224074
vn 0.707107 -0.687647 -0.164749
vn 0.707107 -0.685994 -0.171499
vn 0.923880 -0.372152 -0.089161
vn 0.923880 -0.371257 -0.092814
vn 0.923880 0.373014 0.085482
vn 0.707107 0.689240 0.157951
vn 0.382683 0.900535 0.206373
vn 0.000000 0.974732 0.223376
vn -0.382683 0.900535 0.206373
vn -0.707107 0.689240 0.157951
vn -0.923880 0.373014 0.085482
vn -0.923880 -0.373014 -0.085482
vn -0.707107 -0.689240 -0.157951
vn -0.382683 -0.900535 -0.206373
vn -0.000000 -0.974732 -0.223376
vn 0.382683 -0.900535 -0.206373
vn 0.707107 -0.689240 -0.157951
vn 0.923880 -0.373014 -0.085482
vn 0.923880 0.373843 0.081778
vn 0.707107 0.690773 0.151107
vn 0.382683 0.902538 0.197430
vn 0.000000 0.976900 0.213697
vn -0.382683 0.902538 0.197430
vn -0.707107 0.690773 0.151107
vn -0.923880 0.373843 0.081778
vn -0.923880 -0.373843 -0.081778
vn -0.707107 -0.690773 -0.151107
vn -0.382683 -0.902538 -0.197430
vn -0.000000 -0.976900 -0.213697
vn 0.382683 -0.902538 -0.197430
vn 0.707107 -0.690773 -0.151107
vn 0.923880 -0.373843 -0.081778
vn 0.923880 0.374640 0.078050
vn 0.707107 0.692244 0.144217
vn 0.382683 0.904460 0.188429
vn 0.000000 0.978980 0.203954
vn -0.382683 0.904460 0.188429
vn -0.707107 0.692244 0.144217
vn -0.923880 0.374640 0.078050
vn -0.923880 -0.374640 -0.078050
vn -0.707107 -0.692244 -0.144217
vn -0.382683 -0.904460 -0.188429
vn -0.000000 -0.978980 -0.203954
vn 0.382683 -0.904460 -0.188429
vn 0.707107 -0.692244 -0.144217
vn 0.923880 -0.374640 -0.078050
vn 0.923880 0.375402 0.074298
vn 0.707107 0.693652 0.137285
vn 0.382683 0.906300 0.179372
vn 0.000000 0.980972 0.194151
vn -0.382683 0.906300 0.179372
vn -0.707107 0.693652 0.137285
vn -0.923880 0.375402 0.074298
vn -0.923880 -0.375402 -0.074298
vn -0.707107 -0.693652 -0.137285
vn -0.382683 -0.906300 -0.179372
vn -0.000000 -0.980972 -0.194151
vn 0.382683 -0.906300 -0.179372
vn 0.707107 -0.693652 -0.137285
vn 0.923880 -0.375402 -0.074298
vn 0.923880 0.376129 0.070524
vn 0.707107 0.694996 0.130312
vn 0.382683 0.908055 0.170260
vn 0.000000 0.982872 0.184289
vn -0.382683 0.908055 0.170260
vn -0.707107 0.694996 0.130312
vn -0.923880 0.376129 0.070524
vn -0.923880 -0.376129 -0.070524
vn -0.707107 -0.694996 -0.130312
vn -0.382683 -0.908055 -0.170260
vn -0.000000 -0.982872 -0.184289
vn 0.382683 -0.908055 -0.170260
vn 0.707107 -0.694996 -0.130312
vn 0.923880 -0.376129 -0.070524
vn 0.923880 0.376821 0.066729
vn 0.707107 0.696274 0.123299
vn 0.382683 0.909726 0.161097
vn 0.000000 0.984680 0.174370
vn -0.382683 0.909726 0.161097
vn -0.707107 0.696274 0.123299
vn -0.923880 0.376821 0.066729
vn -0.923880 -0.376821 -0.066729
vn -0.707107 -0.696274 -0.123299
vn -0.382683 -0.909726 -0.161097
vn -0.000000 -0.984680 -0.174370
vn 0.382683 -0.909726 -0.161097
vn 0.707107 -0.696274 -0.123299
vn 0.923880 -0.376821 -0.066729
vn 0.923880 0.377477 0.062913
vn 0.707107 0.697486 0.116248
vn 0.382683 0.911309 0.151885
vn 0.000000 0.986394 0.164399
vn -0.382683 0.911309 0.151885
vn -0.707107 0.697486 0.116248
vn -0.923880 0.377477 0.062913
vn -0.923880 -0.377477 -0.062913
vn -0.707107 -0.697486 -0.116248
vn -0.382683 -0.911309 -0.151885
vn -0.000000 -0.986394 -0.164399
vn 0.382683 -0.911309 -0.151885
vn 0.707107 -0.697486 -0.116248
vn 0.923880 -0.377477 -0.062913
vn 0.923880 0.378096 0.059077
vn 0.707107 0.698630 0.109161
vn 0.382683 0.912804 0.142626
vn 0.000000 0.988012 0.154377
vn -0.382683 0.912804 0.142626
vn -0.707107 0.698630 0.109161
vn -0.923880 0.378096 0.059077
vn -0.923880 -0.378096 -0.059077
vn -0.707107 -0.698630 -0.109161
vn -0.382683 -0.912804 -0.142626
vn -0.000000 -0.988012 -0.154377
vn 0.382683 -0.912804 -0.142626
vn 0.707107 -0.698630 -0.109161
vn 0.923880 -0.378096 -0.059077
vn 0.923880 0.378678 0.055224
vn 0.707107 0.699705 0.102040
vn 0.382683 0.914209 0.133322
vn 0.000000 0.989533 0.144307
vn -0.382683 0.914209 0.133322
vn -0.707107 0.699705 0.102040
vn -0.923880 0.378678 0.055224
vn -0.923880 -0.378678 -0.055224
vn -0.707107 -0.699705 -0.102040
vn -0.382683 -0.914209 -0.133322
vn -0.000000 -0.989533 -0.144307
vn 0.382683 -0.914209 -0.133322
vn 0.707107 -0.699705 -0.102040
vn 0.923880 -0.378678 -0.055224
vn 0.923880 0.379222 0.051353
vn 0.707107 0.700711 0.094888
vn 0.382683 0.915523 0.123977
vn 0.000000 0.990955 0.134192
vn -0.382683 0.915523 0.123977
vn -0.707107 0.700711 0.094888
vn -0.923880 0.379222 0.051353
vn -0.923880 -0.379222 -0.051353
vn -0.707107 -0.700711 -0.094888
vn -0.382683 -0.915523 -0.123977
vn -0.000000 -0.990955 -0.134192
vn 0.382683 -0.915523 -0.123977
vn 0.707107 -0.700711 -0.094888
vn 0.923880 -0.379222 -0.051353
vn 0.923880 0.379728 0.047466
vn 0.707107 0.701646 0.087706
vn 0.382683 0.916745 0.114593
vn 0.000000 0.992278 0.124035
vn -0.382683 0.916745 0.114593
vn -0.707107 0.701646 0.087706
vn -0.923880 0.379728 0.047466
vn -0.923880 -0.379728 -0.047466
vn -0.707107 -0.701646 -0.087706
vn -0.382683 -0.916745 -0.114593
vn -0.000000 -0.992278 -0.124035
vn 0.382683 -0.916745 -0.114593
vn 0.707107 -0.701646 -0.087706
vn 0.923880 -0.379728 -0.047466
usemtl body
f 1/1/1 2/2/1 3/3/2
f 1/1/1 3/3/2 4/4/3
f 4/4/3 3/3/2 5/5/4
f 4/4/3 5/5/4 6/6/5
f 6/6/5 5/5/4 7/7/6
f 6/6/5 7/7/6 8/8/7
f 8/8/7 7/7/6 9/9/8
f 8/8/7 9/9/8 10/10/9
f 10/10/9 9/9/8 11/11/10
f 10/10/9 11/11/10 12/12/11
f 12/12/11 11/11/10 13/13/12
f 12/12/11 13/13/12 14/14/13
f 14/14/13 13/13/12 15/15/14
f 14/14/13 15/15/14 16/16/15
f 16/16/15 15/15/14 17/17/16
f 16/16/15 17/17/16 18/18/16
f 18/18/16 17/17/16 19/19/17
f 18/18/16 19/19/17 20/20/18
f 20/20/18 19/19/17 21/21/19
f 20/20/18 21/21/19 22/22/20
f 22/22/20 21/21/19 23/23/21
f 22/22/20 23/23/21 24/24/22
f 24/24/22 23/23/21 25/25/23
f 24/24/22 25/25/23 26/26/24
f 26/26/24 25/25/23 27/27/25
f 26/26/24 27/27/25 28/28/26
f 28/28/26 27/27/25 29/29/27
f 28/28/26 29/29/27 30/30/28
f 30/30/28 29/29/27 31/31/29
f 30/30/28 31/31/29 32/32/30
f 32/32/30 31/31/29 2/33/1
f 32/32/30 2/33/1 1/34/1
f 2/2/1 33/35/1 34/36/31
f 2/2/1 34/36/31 3/3/2
f 3/3/2 34/36/31 35/37/32
f 3/3/2 35/37/32 5/5/4
f 5/5/4 35/37/32 36/38/33
f 5/5/4 36/38/33 7/7/6
f 7/7/6 36/38/33 37/39/34
f 7/7/6 37/39/34 9/9/8
f 9/9/8 37/39/34 38/40/35
f 9/9/8 38/40/35 11/11/10
f 11/11/10 38/40/35 39/41/36
f 11/11/10 39/41/36 13/13/12
f 13/13/12 39/41/36 40/42/37
f 13/13/12 40/42/37 15/15/14
f 15/15/14 40/42/37 41/43/16
f 15/15/14 41/43/16 17/17/16
f 17/17/16 41/43/16 42/44/38
f 17/17/16 42/44/38 19/19/17
f 19/19/17 42/44/38 43/45/39
f 19/19/17 43/45/39 21/21/19
f 21/21/19 43/45/39 44/46/40
f 21/21/19 44/46/40 23/23/21
f 23/23/21 44/46/40 45/47/41
f 23/23/21 45/47/41 25/25/23
f 25/25/23 45/47/41 46/48/42
f 25/25/23 46/48/42 27/27/25
f 27/27/25 46/48/42 47/49/43
f 27/27/25 47/49/43 29/29/27
f 29/29/27 47/49/43 48/50/44
f 29/29/27 48/50/44 31/31/29
f 31/31/29 48/50/44 33/51/1
f 31/31/29 33/51/1 2/33/1
f 33/35/1 49/52/1 50/53/45
f 33/35/1 50/53/45 34/36/31
f 34/36/31 50/53/45 51/54/46
f 34/36/31 51/54/46 35/37/32
f 35/37/32 51/54/46 52/55/47
f 35/37/32 52/55/47 36/38/33
f 36/38/33 52/55/47 53/56/48
f 36/38/33 53/56/48 37/39/34
f 37/39/34 53/56/48 54/57/49
f 37/39/34 54/57/49 38/40/35
f 38/40/35 54/57/49 55/58/50
f 38/40/35 55/58/50 39/41/36
f 39/41/36 55/58/50 56/59/51
f 39/41/36 56/59/51 40/42/37
f 40/42/37 56/59/51 57/60/16
f 40/42/37 57/60/16 41/43/16
f 41/43/16 57/60/16 58/61/52
f 41/43/16 58/61/52 42/44/38
f 42/44/38 58/61/52 59/62/53
f 42/44/38 59/62/53 43/45/39
f 43/45/39 59/62/53 60/63/54
f 43/45/39 60/63/54 44/46/40
f 44/46/40 60/63/54 61/64/55
f 44/46/40 61/64/55 45/47/41
f 45/47/41 61/64/55 62/65/56
f 45/47/41 62/65/56 46/48/42
f 46/48/42 62/65/56 63/66/57
f 46/48/42 63/66/57 47/49/43
f 47/49/43 63/66/57 64/67/58
f 47/49/43 64/67/58 48/50/44
f 48/50/44 64/67/58 49/68/1
f 48/50/44 49/68/1 33/51/1
f 49/52/1 65/69/1 66/70/59
f 49/52/1 66/70/59 50/53/45
f 50/53/45 66/70/59 67/71/60
f 50/53/45 67/71/60 51/54/46
f 51/54/46 67/71/60 68/72/61
f 51/54/46 68/72/61 52/55/47
f 52/55/47 68/72/61 69/73/62
f 52/55/47 69/73/62 53/56/48
f 53/56/48 69/73/62 70/74/63
f 53/56/48 70/74/63 54/57/49
f 54/57/49 70/74/63 71/75/64
f 54/57/49 71/75/64 55/58/50
f 55/58/50 71/75/64 72/76/65
f 55/58/50 72/76/65 56/59/51
f 56/59/51 72/76/65 73/77/16
f 56/59/51 73/77/16 57/60/16
f 57/60/16 73/77/16 74/78/66
f 57/60/16 74/78/66 58/61/52
f 58/61/52 74/78/66 75/79/67
f 58/61/52 75/79/67 59/62/53
f 59/62/53 75/79/67 76/80/68
f 59/62/53 76/80/68 60/63/54
f 60/63/54 76/80/68 77/81/69
f 60/63/54 77/81/69 61/64/55
f 61/64/55 77/81/69 78/82/70
f 61/64/55 78/82/70 62/65/56
f 62/65/56 78/82/70 79/83/71
f 62/65/56 79/83/71 63/66/57
f 63/66/57 79/83/71 80/84/72
f 63/66/57 80/84/72 64/67/58
f 64/67/58 80/84/72 65/85/1
f 64/67/58 65/85/1 49/68/1
f 65/69/1 81/86/1 82/87/73
f 65/69/1 82/87/73 66/70/59
f 66/70/59 82/87/73 83/88/74
f 66/70/59 83/88/74 67/71/60
f 67/71/60 83/88/74 84/89/75
f 67/71/60 84/89/75 68/72/61
f 68/72/61 84/89/75 85/90/76
f 68/72/61 85/90/76 69/73/62
f 69/73/62 85/90/76 86/91/77
f 69/73/62 86/91/77 70/74/63
f 70/74/63 86/91/77 87/92/78
f 70/74/63 87/92/78 71/75/64
f 71/75/64 87/92/78 88/93/79
f 71/75/64 88/93/79 72/76/65
f 72/76/65 88/93/79 89/94/16
f 72/76/65 89/94/16 73/77/16
f 73/77/16 89/94/16 90/95/80
f 73/77/16 90/95/80 74/78/66
f 74/78/66 90/95/80 91/96/81
f 74/78/66 91/96/81 75/79/67
f 75/79/67 91/96/81 92/97/82
f 75/79/67 92/97/82 76/80/68
f 76/80/68 92/97/82 93/98/83
f 76/80/68 93/98/83 77/81/69
f 77/81/69 93/98/83 94/99/84
f 77/81/69 94/99/84 78/82/70
f 78/82/70 94/99/84 95/100/85
f 78/82/70 95/100/85 79/83/71
f 79/83/71 95/100/85 96/101/86
f 79/83/71 96/101/86 80/84/72
f 80/84/72 96/101/86 81/102/1
f 80/84/72 81/102/1 65/85/1
f 81/86/1 97/103/1 98/104/87
f 81/86/1 98/104/87 82/87/73
f 82/87/73 98/104/87 99/105/88
f 82/87/73 99/105/88 83/88/74
f 83/88/74 99/105/88 100/106/89
f 83/88/74 100/106/89 84/89/75
f 84/89/75 100/106/89 101/107/90
f 84/89/75 101/107/90 85/90/76
f 85/90/76 101/107/90 102/108/91
f 85/90/76 102/108/91 86/91/77
f 86/91/77 102/108/91 103/109/92
f 86/91/77 103/109/92 87/92/78
f 87/92/78 103/109/92 104/110/93
f 87/92/78 104/110/93 88/93/79
f 88/93/79 104/110/93 105/111/16
f 88/93/79 105/111/16 89/94/16
f 89/94/16 105/111/16 106/112/94
f 89/94/16 106/112/94 90/95/80
f 90/95/80 106/112/94 107/113/95
f 90/95/80 107/113/95 91/96/81
f 91/96/81 107/113/95 108/114/96
f 91/96/81 108/114/96 92/97/82
f 92/97/82 108/114/96 109/115/97
f 92/97/82 109/115/97 93/98/83
f 93/98/83 109/115/97 110/116/98
f 93/98/83 110/116/98 94/99/84
f 94/99/84 110/116/98 111/117/99
f 94/99/84 111/117/99 95/100/85
f 95/100/85 111/117/99 112/118/100
f 95/100/85 112/118/100 96/101/86
f 96/101/86 112/118/100 97/119/1
f 96/101/86 97/119/1 81/102/1
f 97/103/1 113/120/1 114/121/101
f 97/103/1 114/121/101 98/104/87
f 98/104/87 114/121/101 115/122/102
f 98/104/87 115/122/102 99/105/88
f 99/105/88 115/122/102 116/123/103
f 99/105/88 116/123/103 100/106/89
f 100/106/89 116/123/103 117/124/104
f 100/106/89 117/124/104 101/107/90
f 101/107/90 117/124/104 118/125/105
f 101/107/90 118/125/105 102/108/91
f 102/108/91 118/125/105 119/126/106
f 102/108/91 119/126/106 103/109/92
f 103/109/92 119/126/106 120/127/107
f 103/109/92 120/127/107 104/110/93
f 104/110/93 120/127/107 121/128/16
f 104/110/93 121/128/16 105/111/16
f 105/111/16 121/128/16 122/129/108
f 105/111/16 122/129/108 106/112/94
f 106/112/94 122/129/108 123/130/109
f 106/112/94 123/130/109 107/113/95
f 107/113/95 123/130/109 124/131/110
f 107/113/95 124/131/110 108/114/96
f 108/114/96 124/131/110 125/132/111
f 108/114/96 125/132/111 109/115/97
f 109/115/97 125/132/111 126/133/112
f 109/115/97 126/133/112 110/116/98
f 110/116/98 126/133/112 127/134/113
f 110/116/98 127/134/113 111/117/99
f 111/117/99 127/134/113 128/135/114
f 111/117/99 128/135/114 112/118/100
f 112/118/100 128/135/114 113/136/1
f 112/118/100 113/136/1 97/119/1
f 113/120/1 129/137/1 130/138/115
f 113/120/1 130/138/115 114/121/101
f 114/121/101 130/138/115 131/139/116
f 114/121/101 131/139/116 115/122/102
f 115/122/102 131/139/116 132/140/117
f 115/122/102 132/140/117 116/123/103
f 116/123/103 132/140/117 133/141/118
f 116/123/103 133/141/118 117/124/104
f 117/124/104 133/141/118 134/142/119
f 117/124/104 134/142/119 118/125/105
f 118/125/105 134/142/119 135/143/120
f 118/125/105 135/143/120 119/126/106
f 119/126/106 135/143/120 136/144/121
f 119/126/106 136/144/121 120/127/107
f 120/127/107 136/144/121 137/145/16
f 120/127/107 137/145/16 121/128/16
f 121/128/16 137/145/16 138/146/122
f 121/128/16 138/146/122 122/129/108
f 122/129/108 138/146/122 139/147/123
f 122/129/108 139/147/123 123/130/109
f 123/130/109 139/147/123 140/148/124
f 123/130/109 140/148/124 124/131/110
f 124/131/110 140/148/124 141/149/125
f 124/131/110 141/149/125 125/132/111
f 125/132/111 141/149/125 142/150/126
f 125/132/111 142/150/126 126/133/112
f 126/133/112 142/150/126 143/151/127
f 126/133/112 143/151/127 127/134/113
f 127/134/113 143/151/127 144/152/128
f 127/134/113 144/152/128 128/135/114
f 128/135/114 144/152/128 129/153/1
f 128/135/114 129/153/1 113/136/1
f 129/137/1 145/154/1 146/155/129
f 129/137/1 146/155/129 130/138/115
f 130/138/115 146/155/129 147/156/130
f 130/138/115 147/156/130 131/139/116
f 131/139/116 147/156/130 148/157/131
f 131/139/116 148/157/131 132/140/117
f 132/140/117 148/157/131 149/158/132
f 132/140/117 149/158/132 133/141/118
f 133/141/118 149/158/132 150/159/133
f 133/141/118 150/159/133 134/142/119
f 134/142/119 150/159/133 151/160/134
f 134/142/119 151/160/134 135/143/120
f 135/143/120 151/160/134 152/161/135
f 135/143/120 152/161/135 136/144/121
f 136/144/121 152/161/135 153/162/16
f 136/144/121 153/162/16 137/145/16
f 137/145/16 153/162/16 154/163/136
f 137/145/16 154/163/136 138/146/122
f 138/146/122 154/163/136 155/164/137
f 138/146/122 155/164/137 139/147/123
f 139/147/123 155/164/137 156/165/138
f 139/147/123 156/165/138 140/148/124
f 140/148/124 156/165/138 157/166/139
f 140/148/124 157/166/139 141/149/125
f 141/149/125 157/166/139 158/167/140
f 141/149/125 158/167/140 142/150/126
f 142/150/126 158/167/140 159/168/141
f 142/150/126 159/168/141 143/151/127
f 143/151/127 159/168/141 160/169/142
f 143/151/127 160/169/142 144/152/128
f 144/152/128 160/169/142 145/170/1
f 144/152/128 145/170/1 129/153/1
f 145/154/1 161/171/1 162/172/143
f 145/154/1 162/172/143 146/155/129
f 146/155/129 162/172/143 163/173/144
f 146/155/129 163/173/144 147/156/130
f 147/156/130 163/173/144 164/174/145
f 147/156/130 164/174/145 148/157/131
f 148/157/131 164/174/145 165/175/146
f 148/157/131 165/175/146 149/158/132
f 149/158/132 165/175/146 166/176/147
f 149/158/132 166/176/147 150/159/133
f 150/159/133 166/176/147 167/177/148
f 150/159/133 167/177/148 151/160/134
f 151/160/134 167/177/148 168/178/149
f 151/160/134 168/178/149 152/161/135
f 152/161/135 168/178/149 169/179/16
f 152/161/135 169/179/16 153/162/16
f 153/162/16 169/179/16 170/180/150
f 153/162/16 170/180/150 154/163/136
f 154/163/136 170/180/150 171/181/151
f 154/163/136 171/181/151 155/164/137
f 155/164/137 171/181/151 172/182/152
f 155/164/137 172/182/152 156/165/138
f 156/165/138 172/182/152 173/183/153
f 156/165/138 173/183/153 157/166/139
f 157/166/139 173/183/153 174/184/154
f 157/166/139 174/184/154 158/167/140
f 158/167/140 174/184/154 175/185/155
f 158/167/140 175/185/155 159/168/141
f 159/168/141 175/185/155 176/186/156
f 159/168/141 176/186/156 160/169/142
f 160/169/142 176/186/156 161/187/1
f 160/169/142 161/187/1 145/170/1
f 161/171/1 177/188/1 178/189/157
f 161/171/1 178/189/157 162/172/143
f 162/172/143 178/189/157 179/190/158
f 162/172/143 179/190/158 163/173/144
f 163/173/144 179/190/158 180/191/159
f 163/173/144 180/191/159 164/174/145
f 164/174/145 180/191/159 181/192/160
f 164/174/145 181/192/160 165/175/146
f 165/175/146 181/192/160 182/193/161
f 165/175/146 182/193/161 166/176/147
f 166/176/147 182/193/161 183/194/162
f 166/176/147 183/194/162 167/177/148
f 167/177/148 183/194/162 184/195/163
f 167/177/148 184/195/163 168/178/149
f 168/178/149 184/195/163 185/196/16
f 168/178/149 185/196/16 169/179/16
f 169/179/16 185/196/16 186/197/164
f 169/179/16 186/197/164 170/180/150
f 170/180/150 186/197/164 187/198/165
f 170/180/150 187/198/165 171/181/151
f 171/181/151 187/198/165 188/199/166
f 171/181/151 188/199/166 172/182/152
f 172/182/152 188/199/166 189/200/167
f 172/182/152 189/200/167 173/183/153
f 173/183/153 189/200/167 190/201/168
f 173/183/153 190/201/168 174/184/154
f 174/184/154 190/201/168 191/202/169
f 174/184/154 191/202/169 175/185/155
f 175/185/155 191/202/169 192/203/170
f 175/185/155 192/203/170 176/186/156
f 176/186/156 192/203/170 177/204/1
f 176/186/156 177/204/1 161/187/1
f 177/188/1 193/205/1 194/206/171
f 177/188/1 194/206/171 178/189/157
f 178/189/157 194/206/171 195/207/172
f 178/189/157 195/207/172 179/190/158
f 179/190/158 195/207/172 196/208/173
f 179/190/158 196/208/173 180/191/159
f 180/191/159 196/208/173 197/209/174
f 180/191/159 197/209/174 181/192/160
f 181/192/160 197/209/174 198/210/175
f 181/192/160 198/210/175 182/193/161
f 182/193/161 198/210/175 199/211/176
f 182/193/161 199/211/176 183/194/162
f 183/194/162 199/211/176 200/212/177
f 183/194/162 200/212/177 184/195/163
f 184/195/163 200/212/177 201/213/16
f 184/195/163 201/213/16 185/196/16
f 185/196/16 201/213/16 202/214/178
f 185/196/16 202/214/178 186/197/164
f 186/197/164 202/214/178 203/215/179
f 186/197/164 203/215/179 187/198/165
f 187/198/165 203/215/179 204/216/180
f 187/198/165 204/216/180 188/199/166
f 188/199/166 204/216/180 205/217/181
f 188/199/166 205/217/181 189/200/167
f 189/200/167 205/217/181 206/218/182
f 189/200/167 206/218/182 190/201/168
f 190/201/168 206/218/182 207/219/183
f 190/201/168 207/219/183 191/202/169
f 191/202/169 207/219/183 208/220/184
f 191/202/169 208/220/184 192/203/170
f 192/203/170 208/220/184 193/221/1
f 192/203/170 193/221/1 177/204/1
