# Procedurally generated by dev-env-utils/scripts/gen_mast_arm_curves.py
# mount hardware on cell 0, model-space down
mtllib mastarmcurve.mtl
o mastarm_8x2_c0_down
v 0.867140 0.560659 0.878198
v 0.867140 0.642770 0.709634
v 0.839193 0.769080 0.771162
v 0.839193 0.686969 0.939726
v 0.759607 0.876160 0.823323
v 0.759607 0.794049 0.991887
v 0.640498 0.947709 0.858175
v 0.640498 0.865598 1.026740
v 0.500000 0.972833 0.870414
v 0.500000 0.890722 1.038979
v 0.359502 0.947709 0.858175
v 0.359502 0.865598 1.026740
v 0.240393 0.876160 0.823323
v 0.240393 0.794049 0.991887
v 0.160807 0.769080 0.771162
v 0.160807 0.686969 0.939726
v 0.132860 0.642770 0.709634
v 0.132860 0.560659 0.878198
v 0.160807 0.516461 0.648106
v 0.160807 0.434350 0.816670
v 0.240393 0.409381 0.595945
v 0.240393 0.327269 0.764510
v 0.359502 0.337832 0.561092
v 0.359502 0.255721 0.729657
v 0.500000 0.312707 0.548854
v 0.500000 0.230596 0.717418
v 0.640498 0.337832 0.561092
v 0.640498 0.255721 0.729657
v 0.759607 0.409381 0.595945
v 0.759607 0.327269 0.764510
v 0.839193 0.516461 0.648106
v 0.839193 0.434350 0.816670
v 0.500000 0.560659 0.878198
v 0.500000 0.642770 0.709634
v 0.300000 0.075000 0.500000
v 0.300000 0.000625 0.500000
v 0.358579 0.000625 0.641421
v 0.358579 0.075000 0.641421
v 0.500000 0.000625 0.700000
v 0.500000 0.075000 0.700000
v 0.641421 0.000625 0.641421
v 0.641421 0.075000 0.641421
v 0.700000 0.000625 0.500000
v 0.700000 0.075000 0.500000
v 0.641421 0.000625 0.358579
v 0.641421 0.075000 0.358579
v 0.500000 0.000625 0.300000
v 0.500000 0.075000 0.300000
v 0.358579 0.000625 0.358579
v 0.358579 0.075000 0.358579
v 0.500000 0.075000 0.500000
v 0.500000 0.000625 0.500000
v 0.400000 0.356064 0.673925
v 0.400000 0.075000 0.500000
v 0.413397 0.048690 0.542518
v 0.413397 0.329754 0.716442
v 0.450000 0.029429 0.573643
v 0.450000 0.310493 0.747568
v 0.500000 0.022379 0.585036
v 0.500000 0.303444 0.758960
v 0.550000 0.029429 0.573643
v 0.550000 0.310493 0.747568
v 0.586603 0.048690 0.542518
v 0.586603 0.329754 0.716442
v 0.600000 0.075000 0.500000
v 0.600000 0.356064 0.673925
v 0.586603 0.101310 0.457482
v 0.586603 0.382375 0.631407
v 0.550000 0.120571 0.426357
v 0.550000 0.401635 0.600282
v 0.500000 0.127621 0.414964
v 0.500000 0.408685 0.588889
v 0.450000 0.120571 0.426357
v 0.450000 0.401635 0.600282
v 0.413397 0.101310 0.457482
v 0.413397 0.382375 0.631407
v 0.500000 0.356064 0.673925
vt 0.250000 0.750000
vt 0.250000 0.566430
vt 0.281250 0.566430
vt 0.281250 0.750000
vt 0.312500 0.566430
vt 0.312500 0.750000
vt 0.343750 0.566430
vt 0.343750 0.750000
vt 0.375000 0.566430
vt 0.375000 0.750000
vt 0.406250 0.566430
vt 0.406250 0.750000
vt 0.437500 0.566430
vt 0.437500 0.750000
vt 0.468750 0.566430
vt 0.468750 0.750000
vt 0.500000 0.566430
vt 0.500000 0.750000
vt 0.531250 0.566430
vt 0.531250 0.750000
vt 0.562500 0.566430
vt 0.562500 0.750000
vt 0.593750 0.566430
vt 0.593750 0.750000
vt 0.625000 0.566430
vt 0.625000 0.750000
vt 0.656250 0.566430
vt 0.656250 0.750000
vt 0.687500 0.566430
vt 0.687500 0.750000
vt 0.718750 0.566430
vt 0.718750 0.750000
vt 0.750000 0.566430
vt 0.750000 0.750000
vt 0.500000 0.500000
vt 0.400000 0.600000
vt 0.600000 0.400000
vt 0.250000 0.650000
vt 0.312500 0.650000
vt 0.375000 0.650000
vt 0.437500 0.650000
vt 0.500000 0.650000
vt 0.562500 0.650000
vt 0.625000 0.650000
vt 0.687500 0.650000
vt 0.750000 0.650000
vt 0.250000 0.700000
vt 0.291667 0.700000
vt 0.291667 0.750000
vt 0.333333 0.700000
vt 0.333333 0.750000
vt 0.375000 0.700000
vt 0.416667 0.700000
vt 0.416667 0.750000
vt 0.458333 0.700000
vt 0.458333 0.750000
vt 0.500000 0.700000
vt 0.541667 0.700000
vt 0.541667 0.750000
vt 0.583333 0.700000
vt 0.583333 0.750000
vt 0.625000 0.700000
vt 0.666667 0.700000
vt 0.666667 0.750000
vt 0.708333 0.700000
vt 0.708333 0.750000
vt 0.750000 0.700000
vn 1.000000 0.000000 0.000000
vn 0.923880 0.344037 0.167587
vn 0.707107 0.635697 0.309660
vn 0.382683 0.830578 0.404591
vn 0.000000 0.899011 0.437926
vn -0.382683 0.830578 0.404591
vn -0.707107 0.635697 0.309660
vn -0.923880 0.344037 0.167587
vn -1.000000 0.000000 0.000000
vn -0.923880 -0.344037 -0.167587
vn -0.707107 -0.635697 -0.309660
vn -0.382683 -0.830578 -0.404591
vn -0.000000 -0.899011 -0.437926
vn 0.382683 -0.830578 -0.404591
vn 0.707107 -0.635697 -0.309660
vn 0.923880 -0.344037 -0.167587
vn -0.000000 -0.437926 0.899011
vn 0.000000 0.437926 -0.899011
vn -0.707107 0.000000 0.707107
vn -0.000000 0.000000 1.000000
vn 0.707107 0.000000 0.707107
vn 0.707107 -0.000000 -0.707107
vn 0.000000 -0.000000 -1.000000
vn -0.707107 0.000000 -0.707107
vn -0.000000 1.000000 -0.000000
vn 0.000000 -1.000000 0.000000
vn -0.866025 -0.263103 0.425178
vn -0.500000 -0.455709 0.736430
vn -0.000000 -0.526207 0.850357
vn 0.500000 -0.455709 0.736430
vn 0.866025 -0.263103 0.425178
vn 0.866025 0.263103 -0.425178
vn 0.500000 0.455709 -0.736430
vn 0.000000 0.526207 -0.850357
vn -0.500000 0.455709 -0.736430
vn -0.866025 0.263103 -0.425178
vn -0.000000 0.850357 0.526207
vn 0.000000 -0.850357 -0.526207
usemtl body
f 1/1/1 2/2/1 3/3/2
f 1/1/1 3/3/2 4/4/2
f 4/4/2 3/3/2 5/5/3
f 4/4/2 5/5/3 6/6/3
f 6/6/3 5/5/3 7/7/4
f 6/6/3 7/7/4 8/8/4
f 8/8/4 7/7/4 9/9/5
f 8/8/4 9/9/5 10/10/5
f 10/10/5 9/9/5 11/11/6
f 10/10/5 11/11/6 12/12/6
f 12/12/6 11/11/6 13/13/7
f 12/12/6 13/13/7 14/14/7
f 14/14/7 13/13/7 15/15/8
f 14/14/7 15/15/8 16/16/8
f 16/16/8 15/15/8 17/17/9
f 16/16/8 17/17/9 18/18/9
f 18/18/9 17/17/9 19/19/10
f 18/18/9 19/19/10 20/20/10
f 20/20/10 19/19/10 21/21/11
f 20/20/10 21/21/11 22/22/11
f 22/22/11 21/21/11 23/23/12
f 22/22/11 23/23/12 24/24/12
f 24/24/12 23/23/12 25/25/13
f 24/24/12 25/25/13 26/26/13
f 26/26/13 25/25/13 27/27/14
f 26/26/13 27/27/14 28/28/14
f 28/28/14 27/27/14 29/29/15
f 28/28/14 29/29/15 30/30/15
f 30/30/15 29/29/15 31/31/16
f 30/30/15 31/31/16 32/32/16
f 32/32/16 31/31/16 2/33/1
f 32/32/16 2/33/1 1/34/1
f 33/35/17 1/36/17 4/37/17
f 33/35/17 4/36/17 6/37/17
f 33/35/17 6/36/17 8/37/17
f 33/35/17 8/36/17 10/37/17
f 33/35/17 10/36/17 12/37/17
f 33/35/17 12/36/17 14/37/17
f 33/35/17 14/36/17 16/37/17
f 33/35/17 16/36/17 18/37/17
f 33/35/17 18/36/17 20/37/17
f 33/35/17 20/36/17 22/37/17
f 33/35/17 22/36/17 24/37/17
f 33/35/17 24/36/17 26/37/17
f 33/35/17 26/36/17 28/37/17
f 33/35/17 28/36/17 30/37/17
f 33/35/17 30/36/17 32/37/17
f 33/35/17 32/36/17 1/37/17
f 34/35/18 3/37/18 2/36/18
f 34/35/18 5/37/18 3/36/18
f 34/35/18 7/37/18 5/36/18
f 34/35/18 9/37/18 7/36/18
f 34/35/18 11/37/18 9/36/18
f 34/35/18 13/37/18 11/36/18
f 34/35/18 15/37/18 13/36/18
f 34/35/18 17/37/18 15/36/18
f 34/35/18 19/37/18 17/36/18
f 34/35/18 21/37/18 19/36/18
f 34/35/18 23/37/18 21/36/18
f 34/35/18 25/37/18 23/36/18
f 34/35/18 27/37/18 25/36/18
f 34/35/18 29/37/18 27/36/18
f 34/35/18 31/37/18 29/36/18
f 34/35/18 2/37/18 31/36/18
f 35/1/9 36/38/9 37/39/19
f 35/1/9 37/39/19 38/6/19
f 38/6/19 37/39/19 39/40/20
f 38/6/19 39/40/20 40/10/20
f 40/10/20 39/40/20 41/41/21
f 40/10/20 41/41/21 42/14/21
f 42/14/21 41/41/21 43/42/1
f 42/14/21 43/42/1 44/18/1
f 44/18/1 43/42/1 45/43/22
f 44/18/1 45/43/22 46/22/22
f 46/22/22 45/43/22 47/44/23
f 46/22/22 47/44/23 48/26/23
f 48/26/23 47/44/23 49/45/24
f 48/26/23 49/45/24 50/30/24
f 50/30/24 49/45/24 36/46/9
f 50/30/24 36/46/9 35/34/9
f 51/35/25 35/36/25 38/37/25
f 51/35/25 38/36/25 40/37/25
f 51/35/25 40/36/25 42/37/25
f 51/35/25 42/36/25 44/37/25
f 51/35/25 44/36/25 46/37/25
f 51/35/25 46/36/25 48/37/25
f 51/35/25 48/36/25 50/37/25
f 51/35/25 50/36/25 35/37/25
f 52/35/26 37/37/26 36/36/26
f 52/35/26 39/37/26 37/36/26
f 52/35/26 41/37/26 39/36/26
f 52/35/26 43/37/26 41/36/26
f 52/35/26 45/37/26 43/36/26
f 52/35/26 47/37/26 45/36/26
f 52/35/26 49/37/26 47/36/26
f 52/35/26 36/37/26 49/36/26
f 53/1/9 54/47/9 55/48/27
f 53/1/9 55/48/27 56/49/27
f 56/49/27 55/48/27 57/50/28
f 56/49/27 57/50/28 58/51/28
f 58/51/28 57/50/28 59/52/29
f 58/51/28 59/52/29 60/10/29
f 60/10/29 59/52/29 61/53/30
f 60/10/29 61/53/30 62/54/30
f 62/54/30 61/53/30 63/55/31
f 62/54/30 63/55/31 64/56/31
f 64/56/31 63/55/31 65/57/1
f 64/56/31 65/57/1 66/18/1
f 66/18/1 65/57/1 67/58/32
f 66/18/1 67/58/32 68/59/32
f 68/59/32 67/58/32 69/60/33
f 68/59/32 69/60/33 70/61/33
f 70/61/33 69/60/33 71/62/34
f 70/61/33 71/62/34 72/26/34
f 72/26/34 71/62/34 73/63/35
f 72/26/34 73/63/35 74/64/35
f 74/64/35 73/63/35 75/65/36
f 74/64/35 75/65/36 76/66/36
f 76/66/36 75/65/36 54/67/9
f 76/66/36 54/67/9 53/34/9
f 77/35/37 53/36/37 56/37/37
f 77/35/37 56/36/37 58/37/37
f 77/35/37 58/36/37 60/37/37
f 77/35/37 60/36/37 62/37/37
f 77/35/37 62/36/37 64/37/37
f 77/35/37 64/36/37 66/37/37
f 77/35/37 66/36/37 68/37/37
f 77/35/37 68/36/37 70/37/37
f 77/35/37 70/36/37 72/37/37
f 77/35/37 72/36/37 74/37/37
f 77/35/37 74/36/37 76/37/37
f 77/35/37 76/36/37 53/37/37
f 51/35/38 55/37/38 54/36/38
f 51/35/38 57/37/38 55/36/38
f 51/35/38 59/37/38 57/36/38
f 51/35/38 61/37/38 59/36/38
f 51/35/38 63/37/38 61/36/38
f 51/35/38 65/37/38 63/36/38
f 51/35/38 67/37/38 65/36/38
f 51/35/38 69/37/38 67/36/38
f 51/35/38 71/37/38 69/36/38
f 51/35/38 73/37/38 71/36/38
f 51/35/38 75/37/38 73/36/38
f 51/35/38 54/37/38 75/36/38
