# Procedurally generated by dev-env-utils/scripts/gen_mast_arm_curves.py
# cell 3 of 10 at (+2 along arm, +1 up)
mtllib mastarmcurve.mtl
o mastarm_8x2_c3
v 0.778125 0.375000 1.000000
v 0.777734 0.406033 0.916667
v 0.756593 0.505720 0.953530
v 0.756954 0.474657 1.037371
v 0.696388 0.590230 0.984781
v 0.696664 0.559142 1.069053
v 0.606284 0.646698 1.005663
v 0.606434 0.615594 1.090223
v 0.500000 0.666527 1.012995
v 0.500000 0.635417 1.097656
v 0.393716 0.646698 1.005663
v 0.393566 0.615594 1.090223
v 0.303612 0.590230 0.984781
v 0.303336 0.559142 1.069053
v 0.243407 0.505720 0.953530
v 0.243046 0.474657 1.037371
v 0.222266 0.406033 0.916667
v 0.221875 0.375000 1.000000
v 0.243407 0.306346 0.879803
v 0.243046 0.275343 0.962629
v 0.303612 0.221836 0.848552
v 0.303336 0.190858 0.930947
v 0.393716 0.165368 0.827671
v 0.393566 0.134406 0.909777
v 0.500000 0.145539 0.820338
v 0.500000 0.114583 0.902344
v 0.606284 0.165368 0.827671
v 0.606434 0.134406 0.909777
v 0.696388 0.221836 0.848552
v 0.696664 0.190858 0.930947
v 0.756593 0.306346 0.879803
v 0.756954 0.275343 0.962629
v 0.777344 0.436632 0.833333
v 0.756232 0.536346 0.869688
v 0.696112 0.620880 0.900507
v 0.606135 0.677364 0.921100
v 0.500000 0.697198 0.928332
v 0.393865 0.677364 0.921100
v 0.303888 0.620880 0.900507
v 0.243768 0.536346 0.869688
v 0.222656 0.436632 0.833333
v 0.243768 0.336917 0.796979
v 0.303888 0.252384 0.766159
v 0.393865 0.195900 0.745566
v 0.500000 0.176065 0.738335
v 0.606135 0.195900 0.745566
v 0.696112 0.252384 0.766159
v 0.756232 0.336917 0.796979
v 0.776953 0.466797 0.750000
v 0.755871 0.566537 0.785844
v 0.695835 0.651093 0.816231
v 0.605985 0.707591 0.836535
v 0.500000 0.727430 0.843665
v 0.394015 0.707591 0.836535
v 0.304165 0.651093 0.816231
v 0.244129 0.566537 0.785844
v 0.223047 0.466797 0.750000
v 0.244129 0.367057 0.714156
v 0.304165 0.282501 0.683769
v 0.394015 0.226003 0.663465
v 0.500000 0.206163 0.656335
v 0.605985 0.226003 0.663465
v 0.695835 0.282501 0.683769
v 0.755871 0.367057 0.714156
v 0.776563 0.496528 0.666667
v 0.755510 0.596292 0.702000
v 0.695559 0.680867 0.731954
v 0.605836 0.737379 0.751968
v 0.500000 0.757223 0.758996
v 0.394164 0.737379 0.751968
v 0.304441 0.680867 0.731954
v 0.244490 0.596292 0.702000
v 0.223438 0.496528 0.666667
v 0.244490 0.396764 0.631334
v 0.304441 0.312188 0.601380
v 0.394164 0.255677 0.581365
v 0.500000 0.235832 0.574337
v 0.605836 0.255677 0.581365
v 0.695559 0.312188 0.601380
v 0.755510 0.396764 0.631334
v 0.776172 0.525825 0.583333
v 0.755150 0.625610 0.618154
v 0.695283 0.710204 0.647674
v 0.605686 0.766728 0.667399
v 0.500000 0.786576 0.674325
v 0.394314 0.766728 0.667399
v 0.304717 0.710204 0.647674
v 0.244850 0.625610 0.618154
v 0.223828 0.525825 0.583333
v 0.244850 0.426039 0.548512
v 0.304717 0.341445 0.518993
v 0.394314 0.284921 0.499268
v 0.500000 0.265073 0.492342
v 0.605686 0.284921 0.499268
v 0.695283 0.341445 0.518993
v 0.755150 0.426039 0.548512
v 0.775781 0.554688 0.500000
v 0.754789 0.654492 0.534308
v 0.695007 0.739103 0.563393
v 0.605537 0.795638 0.582827
v 0.500000 0.815490 0.589651
v 0.394463 0.795638 0.582827
v 0.304993 0.739103 0.563393
v 0.245211 0.654492 0.534308
v 0.224219 0.554688 0.500000
v 0.245211 0.454883 0.465692
v 0.304993 0.370272 0.436607
v 0.394463 0.313737 0.417173
v 0.500000 0.293885 0.410349
v 0.605537 0.313737 0.417173
v 0.695007 0.370272 0.436607
v 0.754789 0.454883 0.465692
v 0.775391 0.583116 0.416667
v 0.754428 0.682939 0.450461
v 0.694731 0.767564 0.479110
v 0.605387 0.824108 0.498253
v 0.500000 0.843964 0.504975
v 0.394613 0.824108 0.498253
v 0.305269 0.767564 0.479110
v 0.245572 0.682939 0.450461
v 0.224609 0.583116 0.416667
v 0.245572 0.483294 0.382873
v 0.305269 0.398669 0.354224
v 0.394613 0.342124 0.335081
v 0.500000 0.322268 0.328359
v 0.605387 0.342124 0.335081
v 0.694731 0.398669 0.354224
v 0.754428 0.483294 0.382873
v 0.775000 0.611111 0.333333
v 0.754067 0.710949 0.366612
v 0.694454 0.795587 0.394825
v 0.605238 0.852140 0.413676
v 0.500000 0.871999 0.420296
v 0.394762 0.852140 0.413676
v 0.305546 0.795587 0.394825
v 0.245933 0.710949 0.366612
v 0.225000 0.611111 0.333333
v 0.245933 0.511274 0.300054
v 0.305546 0.426636 0.271841
v 0.394762 0.370082 0.252990
v 0.500000 0.350223 0.246371
v 0.605238 0.370082 0.252990
v 0.694454 0.426636 0.271841
v 0.754067 0.511274 0.300054
v 0.774609 0.638672 0.250000
v 0.753706 0.738522 0.282763
v 0.694178 0.823172 0.310539
v 0.605088 0.879733 0.329098
v 0.500000 0.899594 0.335615
v 0.394912 0.879733 0.329098
v 0.305822 0.823172 0.310539
v 0.246294 0.738522 0.282763
v 0.225391 0.638672 0.250000
v 0.246294 0.538821 0.217237
v 0.305822 0.454172 0.189461
v 0.394912 0.397611 0.170902
v 0.500000 0.377750 0.164385
v 0.605088 0.397611 0.170902
v 0.694178 0.454172 0.189461
v 0.753706 0.538821 0.217237
v 0.774219 0.665799 0.166667
v 0.753345 0.765660 0.198914
v 0.693902 0.850319 0.226251
v 0.604939 0.906886 0.244518
v 0.500000 0.926749 0.250932
v 0.395061 0.906886 0.244518
v 0.306098 0.850319 0.226251
v 0.246655 0.765660 0.198914
v 0.225781 0.665799 0.166667
v 0.246655 0.565937 0.134420
v 0.306098 0.481279 0.107082
v 0.395061 0.424712 0.088816
v 0.500000 0.404848 0.082401
v 0.604939 0.424712 0.088816
v 0.693902 0.481279 0.107082
v 0.753345 0.565937 0.134420
v 0.773828 0.692491 0.083333
v 0.752984 0.792362 0.115063
v 0.693626 0.877027 0.141962
v 0.604789 0.933599 0.159935
v 0.500000 0.953465 0.166247
v 0.395211 0.933599 0.159935
v 0.306374 0.877027 0.141962
v 0.247016 0.792362 0.115063
v 0.226172 0.692491 0.083333
v 0.247016 0.592621 0.051604
v 0.306374 0.507955 0.024705
v 0.395211 0.451383 0.006731
v 0.500000 0.431518 0.000420
v 0.604789 0.451383 0.006731
v 0.693626 0.507955 0.024705
v 0.752984 0.592621 0.051604
v 0.773438 0.718750 0.000000
v 0.752623 0.818627 0.031211
v 0.693350 0.903298 0.057671
v 0.604640 0.959874 0.075351
v 0.500000 0.979741 0.081560
v 0.395360 0.959874 0.075351
v 0.306650 0.903298 0.057671
v 0.247377 0.818627 0.031211
v 0.226562 0.718750 0.000000
v 0.247377 0.618873 -0.031211
v 0.306650 0.534202 -0.057671
v 0.395360 0.477626 -0.075351
v 0.500000 0.457759 -0.081560
v 0.604640 0.477626 -0.075351
v 0.693350 0.534202 -0.057671
v 0.752623 0.618873 -0.031211
vt 0.250000 0.665727
vt 0.250000 0.621265
vt 0.281250 0.621265
vt 0.281250 0.665727
vt 0.312500 0.621265
vt 0.312500 0.665727
vt 0.343750 0.621265
vt 0.343750 0.665727
vt 0.375000 0.621265
vt 0.375000 0.665727
vt 0.406250 0.621265
vt 0.406250 0.665727
vt 0.437500 0.621265
vt 0.437500 0.665727
vt 0.468750 0.621265
vt 0.468750 0.665727
vt 0.500000 0.621265
vt 0.500000 0.665727
vt 0.531250 0.621265
vt 0.531250 0.665727
vt 0.562500 0.621265
vt 0.562500 0.665727
vt 0.593750 0.621265
vt 0.593750 0.665727
vt 0.625000 0.621265
vt 0.625000 0.665727
vt 0.656250 0.621265
vt 0.656250 0.665727
vt 0.687500 0.621265
vt 0.687500 0.665727
vt 0.718750 0.621265
vt 0.718750 0.665727
vt 0.750000 0.621265
vt 0.750000 0.665727
vt 0.250000 0.576878
vt 0.281250 0.576878
vt 0.312500 0.576878
vt 0.343750 0.576878
vt 0.375000 0.576878
vt 0.406250 0.576878
vt 0.437500 0.576878
vt 0.468750 0.576878
vt 0.500000 0.576878
vt 0.531250 0.576878
vt 0.562500 0.576878
vt 0.593750 0.576878
vt 0.625000 0.576878
vt 0.656250 0.576878
vt 0.687500 0.576878
vt 0.718750 0.576878
vt 0.750000 0.576878
vt 0.250000 0.532566
vt 0.281250 0.532566
vt 0.312500 0.532566
vt 0.343750 0.532566
vt 0.375000 0.532566
vt 0.406250 0.532566
vt 0.437500 0.532566
vt 0.468750 0.532566
vt 0.500000 0.532566
vt 0.531250 0.532566
vt 0.562500 0.532566
vt 0.593750 0.532566
vt 0.625000 0.532566
vt 0.656250 0.532566
vt 0.687500 0.532566
vt 0.718750 0.532566
vt 0.750000 0.532566
vt 0.250000 0.488327
vt 0.281250 0.488327
vt 0.312500 0.488327
vt 0.343750 0.488327
vt 0.375000 0.488327
vt 0.406250 0.488327
vt 0.437500 0.488327
vt 0.468750 0.488327
vt 0.500000 0.488327
vt 0.531250 0.488327
vt 0.562500 0.488327
vt 0.593750 0.488327
vt 0.625000 0.488327
vt 0.656250 0.488327
vt 0.687500 0.488327
vt 0.718750 0.488327
vt 0.750000 0.488327
vt 0.250000 0.444160
vt 0.281250 0.444160
vt 0.312500 0.444160
vt 0.343750 0.444160
vt 0.375000 0.444160
vt 0.406250 0.444160
vt 0.437500 0.444160
vt 0.468750 0.444160
vt 0.500000 0.444160
vt 0.531250 0.444160
vt 0.562500 0.444160
vt 0.593750 0.444160
vt 0.625000 0.444160
vt 0.656250 0.444160
vt 0.687500 0.444160
vt 0.718750 0.444160
vt 0.750000 0.444160
vt 0.250000 0.400065
vt 0.281250 0.400065
vt 0.312500 0.400065
vt 0.343750 0.400065
vt 0.375000 0.400065
vt 0.406250 0.400065
vt 0.437500 0.400065
vt 0.468750 0.400065
vt 0.500000 0.400065
vt 0.531250 0.400065
vt 0.562500 0.400065
vt 0.593750 0.400065
vt 0.625000 0.400065
vt 0.656250 0.400065
vt 0.687500 0.400065
vt 0.718750 0.400065
vt 0.750000 0.400065
vt 0.250000 0.356040
vt 0.281250 0.356040
vt 0.312500 0.356040
vt 0.343750 0.356040
vt 0.375000 0.356040
vt 0.406250 0.356040
vt 0.437500 0.356040
vt 0.468750 0.356040
vt 0.500000 0.356040
vt 0.531250 0.356040
vt 0.562500 0.356040
vt 0.593750 0.356040
vt 0.625000 0.356040
vt 0.656250 0.356040
vt 0.687500 0.356040
vt 0.718750 0.356040
vt 0.750000 0.356040
vt 0.250000 0.312085
vt 0.281250 0.312085
vt 0.312500 0.312085
vt 0.343750 0.312085
vt 0.375000 0.312085
vt 0.406250 0.312085
vt 0.437500 0.312085
vt 0.468750 0.312085
vt 0.500000 0.312085
vt 0.531250 0.312085
vt 0.562500 0.312085
vt 0.593750 0.312085
vt 0.625000 0.312085
vt 0.656250 0.312085
vt 0.687500 0.312085
vt 0.718750 0.312085
vt 0.750000 0.312085
vt 0.250000 0.268199
vt 0.281250 0.268199
vt 0.312500 0.268199
vt 0.343750 0.268199
vt 0.375000 0.268199
vt 0.406250 0.268199
vt 0.437500 0.268199
vt 0.468750 0.268199
vt 0.500000 0.268199
vt 0.531250 0.268199
vt 0.562500 0.268199
vt 0.593750 0.268199
vt 0.625000 0.268199
vt 0.656250 0.268199
vt 0.687500 0.268199
vt 0.718750 0.268199
vt 0.750000 0.268199
vt 0.250000 0.275620
vt 0.281250 0.275620
vt 0.312500 0.275620
vt 0.343750 0.275620
vt 0.375000 0.275620
vt 0.406250 0.275620
vt 0.437500 0.275620
vt 0.468750 0.275620
vt 0.500000 0.275620
vt 0.531250 0.275620
vt 0.562500 0.275620
vt 0.593750 0.275620
vt 0.625000 0.275620
vt 0.656250 0.275620
vt 0.687500 0.275620
vt 0.718750 0.275620
vt 0.750000 0.275620
vt 0.250000 0.319372
vt 0.281250 0.319372
vt 0.312500 0.319372
vt 0.343750 0.319372
vt 0.375000 0.319372
vt 0.406250 0.319372
vt 0.437500 0.319372
vt 0.468750 0.319372
vt 0.500000 0.319372
vt 0.531250 0.319372
vt 0.562500 0.319372
vt 0.593750 0.319372
vt 0.625000 0.319372
vt 0.656250 0.319372
vt 0.687500 0.319372
vt 0.718750 0.319372
vt 0.750000 0.319372
vt 0.250000 0.363058
vt 0.281250 0.363058
vt 0.312500 0.363058
vt 0.343750 0.363058
vt 0.375000 0.363058
vt 0.406250 0.363058
vt 0.437500 0.363058
vt 0.468750 0.363058
vt 0.500000 0.363058
vt 0.531250 0.363058
vt 0.562500 0.363058
vt 0.593750 0.363058
vt 0.625000 0.363058
vt 0.656250 0.363058
vt 0.687500 0.363058
vt 0.718750 0.363058
vt 0.750000 0.363058
vn 1.000000 0.000000 0.000000
vn 0.923880 0.358929 0.132729
vn 0.923880 0.358318 0.134369
vn 0.707107 0.663213 0.245251
vn 0.707107 0.662085 0.248282
vn 0.382683 0.866530 0.320436
vn 0.382683 0.865055 0.324396
vn 0.000000 0.937925 0.346837
vn 0.000000 0.936329 0.351123
vn -0.382683 0.866530 0.320436
vn -0.382683 0.865055 0.324396
vn -0.707107 0.663213 0.245251
vn -0.707107 0.662085 0.248282
vn -0.923880 0.358929 0.132729
vn -0.923880 0.358318 0.134369
vn -1.000000 0.000000 0.000000
vn -0.923880 -0.358929 -0.132729
vn -0.923880 -0.358318 -0.134369
vn -0.707107 -0.663213 -0.245251
vn -0.707107 -0.662085 -0.248282
vn -0.382683 -0.866530 -0.320436
vn -0.382683 -0.865055 -0.324396
vn -0.000000 -0.937925 -0.346837
vn -0.000000 -0.936329 -0.351123
vn 0.382683 -0.866530 -0.320436
vn 0.382683 -0.865055 -0.324396
vn 0.707107 -0.663213 -0.245251
vn 0.707107 -0.662085 -0.248282
vn 0.923880 -0.358929 -0.132729
vn 0.923880 -0.358318 -0.134369
vn 0.923880 0.359534 0.131080
vn 0.707107 0.664332 0.242204
vn 0.382683 0.867992 0.316455
vn 0.000000 0.939507 0.342529
vn -0.382683 0.867992 0.316455
vn -0.707107 0.664332 0.242204
vn -0.923880 0.359534 0.131080
vn -0.923880 -0.359534 -0.131080
vn -0.707107 -0.664332 -0.242204
vn -0.382683 -0.867992 -0.316455
vn -0.000000 -0.939507 -0.342529
vn 0.382683 -0.867992 -0.316455
vn 0.707107 -0.664332 -0.242204
vn 0.923880 -0.359534 -0.131080
vn 0.923880 0.360134 0.129423
vn 0.707107 0.665440 0.239143
vn 0.382683 0.869440 0.312455
vn 0.000000 0.941075 0.338199
vn -0.382683 0.869440 0.312455
vn -0.707107 0.665440 0.239143
vn -0.923880 0.360134 0.129423
vn -0.923880 -0.360134 -0.129423
vn -0.707107 -0.665440 -0.239143
vn -0.382683 -0.869440 -0.312455
vn -0.000000 -0.941075 -0.338199
vn 0.382683 -0.869440 -0.312455
vn 0.707107 -0.665440 -0.239143
vn 0.923880 -0.360134 -0.129423
vn 0.923880 0.360728 0.127758
vn 0.707107 0.666538 0.236066
vn 0.382683 0.870874 0.308435
vn 0.000000 0.942627 0.333847
vn -0.382683 0.870874 0.308435
vn -0.707107 0.666538 0.236066
vn -0.923880 0.360728 0.127758
vn -0.923880 -0.360728 -0.127758
vn -0.707107 -0.666538 -0.236066
vn -0.382683 -0.870874 -0.308435
vn -0.000000 -0.942627 -0.333847
vn 0.382683 -0.870874 -0.308435
vn 0.707107 -0.666538 -0.236066
vn 0.923880 -0.360728 -0.127758
vn 0.923880 0.361316 0.126084
vn 0.707107 0.667625 0.232973
vn 0.382683 0.872294 0.304394
vn 0.000000 0.944165 0.329474
vn -0.382683 0.872294 0.304394
vn -0.707107 0.667625 0.232973
vn -0.923880 0.361316 0.126084
vn -0.923880 -0.361316 -0.126084
vn -0.707107 -0.667625 -0.232973
vn -0.382683 -0.872294 -0.304394
vn -0.000000 -0.944165 -0.329474
vn 0.382683 -0.872294 -0.304394
vn 0.707107 -0.667625 -0.232973
vn 0.923880 -0.361316 -0.126084
vn 0.923880 0.361899 0.124403
vn 0.707107 0.668701 0.229866
vn 0.382683 0.873700 0.300335
vn 0.000000 0.945687 0.325080
vn -0.382683 0.873700 0.300335
vn -0.707107 0.668701 0.229866
vn -0.923880 0.361899 0.124403
vn -0.923880 -0.361899 -0.124403
vn -0.707107 -0.668701 -0.229866
vn -0.382683 -0.873700 -0.300335
vn -0.000000 -0.945687 -0.325080
vn 0.382683 -0.873700 -0.300335
vn 0.707107 -0.668701 -0.229866
vn 0.923880 -0.361899 -0.124403
vn 0.923880 0.362475 0.122713
vn 0.707107 0.669767 0.226744
vn 0.382683 0.875092 0.296255
vn 0.000000 0.947193 0.320664
vn -0.382683 0.875092 0.296255
vn -0.707107 0.669767 0.226744
vn -0.923880 0.362475 0.122713
vn -0.923880 -0.362475 -0.122713
vn -0.707107 -0.669767 -0.226744
vn -0.382683 -0.875092 -0.296255
vn -0.000000 -0.947193 -0.320664
vn 0.382683 -0.875092 -0.296255
vn 0.707107 -0.669767 -0.226744
vn 0.923880 -0.362475 -0.122713
vn 0.923880 0.363045 0.121015
vn 0.707107 0.670820 0.223607
vn 0.382683 0.876469 0.292156
vn 0.000000 0.948683 0.316228
vn -0.382683 0.876469 0.292156
vn -0.707107 0.670820 0.223607
vn -0.923880 0.363045 0.121015
vn -0.923880 -0.363045 -0.121015
vn -0.707107 -0.670820 -0.223607
vn -0.382683 -0.876469 -0.292156
vn -0.000000 -0.948683 -0.316228
vn 0.382683 -0.876469 -0.292156
vn 0.707107 -0.670820 -0.223607
vn 0.923880 -0.363045 -0.121015
vn 0.923880 0.363610 0.119309
vn 0.707107 0.671863 0.220455
vn 0.382683 0.877831 0.288038
vn 0.000000 0.950157 0.311770
vn -0.382683 0.877831 0.288038
vn -0.707107 0.671863 0.220455
vn -0.923880 0.363610 0.119309
vn -0.923880 -0.363610 -0.119309
vn -0.707107 -0.671863 -0.220455
vn -0.382683 -0.877831 -0.288038
vn -0.000000 -0.950157 -0.311770
vn 0.382683 -0.877831 -0.288038
vn 0.707107 -0.671863 -0.220455
vn 0.923880 -0.363610 -0.119309
vn 0.923880 0.364167 0.117596
vn 0.707107 0.672894 0.217289
vn 0.382683 0.879178 0.283901
vn 0.000000 0.951615 0.307292
vn -0.382683 0.879178 0.283901
vn -0.707107 0.672894 0.217289
vn -0.923880 0.364167 0.117596
vn -0.923880 -0.364167 -0.117596
vn -0.707107 -0.672894 -0.217289
vn -0.382683 -0.879178 -0.283901
vn -0.000000 -0.951615 -0.307292
vn 0.382683 -0.879178 -0.283901
vn 0.707107 -0.672894 -0.217289
vn 0.923880 -0.364167 -0.117596
vn 0.923880 0.364719 0.115874
vn 0.707107 0.673912 0.214108
vn 0.382683 0.880509 0.279745
vn 0.000000 0.953056 0.302794
vn -0.382683 0.880509 0.279745
vn -0.707107 0.673912 0.214108
vn -0.923880 0.364719 0.115874
vn -0.923880 -0.364719 -0.115874
vn -0.707107 -0.673912 -0.214108
vn -0.382683 -0.880509 -0.279745
vn -0.000000 -0.953056 -0.302794
vn 0.382683 -0.880509 -0.279745
vn 0.707107 -0.673912 -0.214108
vn 0.923880 -0.364719 -0.115874
vn 0.923880 0.365264 0.114145
vn 0.707107 0.674919 0.210912
vn 0.382683 0.881825 0.275570
vn 0.000000 0.954480 0.298275
vn -0.382683 0.881825 0.275570
vn -0.707107 0.674919 0.210912
vn -0.923880 0.365264 0.114145
vn -0.923880 -0.365264 -0.114145
vn -0.707107 -0.674919 -0.210912
vn -0.382683 -0.881825 -0.275570
vn -0.000000 -0.954480 -0.298275
vn 0.382683 -0.881825 -0.275570
vn 0.707107 -0.674919 -0.210912
vn 0.923880 -0.365264 -0.114145
usemtl body
f 1/1/1 2/2/1 3/3/2
f 1/1/1 3/3/2 4/4/3
f 4/4/3 3/3/2 5/5/4
f 4/4/3 5/5/4 6/6/5
f 6/6/5 5/5/4 7/7/6
f 6/6/5 7/7/6 8/8/7
f 8/8/7 7/7/6 9/9/8
f 8/8/7 9/9/8 10/10/9
f 10/10/9 9/9/8 11/11/10
f 10/10/9 11/11/10 12/12/11
f 12/12/11 11/11/10 13/13/12
f 12/12/11 13/13/12 14/14/13
f 14/14/13 13/13/12 15/15/14
f 14/14/13 15/15/14 16/16/15
f 16/16/15 15/15/14 17/17/16
f 16/16/15 17/17/16 18/18/16
f 18/18/16 17/17/16 19/19/17
f 18/18/16 19/19/17 20/20/18
f 20/20/18 19/19/17 21/21/19
f 20/20/18 21/21/19 22/22/20
f 22/22/20 21/21/19 23/23/21
f 22/22/20 23/23/21 24/24/22
f 24/24/22 23/23/21 25/25/23
f 24/24/22 25/25/23 26/26/24
f 26/26/24 25/25/23 27/27/25
f 26/26/24 27/27/25 28/28/26
f 28/28/26 27/27/25 29/29/27
f 28/28/26 29/29/27 30/30/28
f 30/30/28 29/29/27 31/31/29
f 30/30/28 31/31/29 32/32/30
f 32/32/30 31/31/29 2/33/1
f 32/32/30 2/33/1 1/34/1
f 2/2/1 33/35/1 34/36/31
f 2/2/1 34/36/31 3/3/2
f 3/3/2 34/36/31 35/37/32
f 3/3/2 35/37/32 5/5/4
f 5/5/4 35/37/32 36/38/33
f 5/5/4 36/38/33 7/7/6
f 7/7/6 36/38/33 37/39/34
f 7/7/6 37/39/34 9/9/8
f 9/9/8 37/39/34 38/40/35
f 9/9/8 38/40/35 11/11/10
f 11/11/10 38/40/35 39/41/36
f 11/11/10 39/41/36 13/13/12
f 13/13/12 39/41/36 40/42/37
f 13/13/12 40/42/37 15/15/14
f 15/15/14 40/42/37 41/43/16
f 15/15/14 41/43/16 17/17/16
f 17/17/16 41/43/16 42/44/38
f 17/17/16 42/44/38 19/19/17
f 19/19/17 42/44/38 43/45/39
f 19/19/17 43/45/39 21/21/19
f 21/21/19 43/45/39 44/46/40
f 21/21/19 44/46/40 23/23/21
f 23/23/21 44/46/40 45/47/41
f 23/23/21 45/47/41 25/25/23
f 25/25/23 45/47/41 46/48/42
f 25/25/23 46/48/42 27/27/25
f 27/27/25 46/48/42 47/49/43
f 27/27/25 47/49/43 29/29/27
f 29/29/27 47/49/43 48/50/44
f 29/29/27 48/50/44 31/31/29
f 31/31/29 48/50/44 33/51/1
f 31/31/29 33/51/1 2/33/1
f 33/35/1 49/52/1 50/53/45
f 33/35/1 50/53/45 34/36/31
f 34/36/31 50/53/45 51/54/46
f 34/36/31 51/54/46 35/37/32
f 35/37/32 51/54/46 52/55/47
f 35/37/32 52/55/47 36/38/33
f 36/38/33 52/55/47 53/56/48
f 36/38/33 53/56/48 37/39/34
f 37/39/34 53/56/48 54/57/49
f 37/39/34 54/57/49 38/40/35
f 38/40/35 54/57/49 55/58/50
f 38/40/35 55/58/50 39/41/36
f 39/41/36 55/58/50 56/59/51
f 39/41/36 56/59/51 40/42/37
f 40/42/37 56/59/51 57/60/16
f 40/42/37 57/60/16 41/43/16
f 41/43/16 57/60/16 58/61/52
f 41/43/16 58/61/52 42/44/38
f 42/44/38 58/61/52 59/62/53
f 42/44/38 59/62/53 43/45/39
f 43/45/39 59/62/53 60/63/54
f 43/45/39 60/63/54 44/46/40
f 44/46/40 60/63/54 61/64/55
f 44/46/40 61/64/55 45/47/41
f 45/47/41 61/64/55 62/65/56
f 45/47/41 62/65/56 46/48/42
f 46/48/42 62/65/56 63/66/57
f 46/48/42 63/66/57 47/49/43
f 47/49/43 63/66/57 64/67/58
f 47/49/43 64/67/58 48/50/44
f 48/50/44 64/67/58 49/68/1
f 48/50/44 49/68/1 33/51/1
f 49/52/1 65/69/1 66/70/59
f 49/52/1 66/70/59 50/53/45
f 50/53/45 66/70/59 67/71/60
f 50/53/45 67/71/60 51/54/46
f 51/54/46 67/71/60 68/72/61
f 51/54/46 68/72/61 52/55/47
f 52/55/47 68/72/61 69/73/62
f 52/55/47 69/73/62 53/56/48
f 53/56/48 69/73/62 70/74/63
f 53/56/48 70/74/63 54/57/49
f 54/57/49 70/74/63 71/75/64
f 54/57/49 71/75/64 55/58/50
f 55/58/50 71/75/64 72/76/65
f 55/58/50 72/76/65 56/59/51
f 56/59/51 72/76/65 73/77/16
f 56/59/51 73/77/16 57/60/16
f 57/60/16 73/77/16 74/78/66
f 57/60/16 74/78/66 58/61/52
f 58/61/52 74/78/66 75/79/67
f 58/61/52 75/79/67 59/62/53
f 59/62/53 75/79/67 76/80/68
f 59/62/53 76/80/68 60/63/54
f 60/63/54 76/80/68 77/81/69
f 60/63/54 77/81/69 61/64/55
f 61/64/55 77/81/69 78/82/70
f 61/64/55 78/82/70 62/65/56
f 62/65/56 78/82/70 79/83/71
f 62/65/56 79/83/71 63/66/57
f 63/66/57 79/83/71 80/84/72
f 63/66/57 80/84/72 64/67/58
f 64/67/58 80/84/72 65/85/1
f 64/67/58 65/85/1 49/68/1
f 65/69/1 81/86/1 82/87/73
f 65/69/1 82/87/73 66/70/59
f 66/70/59 82/87/73 83/88/74
f 66/70/59 83/88/74 67/71/60
f 67/71/60 83/88/74 84/89/75
f 67/71/60 84/89/75 68/72/61
f 68/72/61 84/89/75 85/90/76
f 68/72/61 85/90/76 69/73/62
f 69/73/62 85/90/76 86/91/77
f 69/73/62 86/91/77 70/74/63
f 70/74/63 86/91/77 87/92/78
f 70/74/63 87/92/78 71/75/64
f 71/75/64 87/92/78 88/93/79
f 71/75/64 88/93/79 72/76/65
f 72/76/65 88/93/79 89/94/16
f 72/76/65 89/94/16 73/77/16
f 73/77/16 89/94/16 90/95/80
f 73/77/16 90/95/80 74/78/66
f 74/78/66 90/95/80 91/96/81
f 74/78/66 91/96/81 75/79/67
f 75/79/67 91/96/81 92/97/82
f 75/79/67 92/97/82 76/80/68
f 76/80/68 92/97/82 93/98/83
f 76/80/68 93/98/83 77/81/69
f 77/81/69 93/98/83 94/99/84
f 77/81/69 94/99/84 78/82/70
f 78/82/70 94/99/84 95/100/85
f 78/82/70 95/100/85 79/83/71
f 79/83/71 95/100/85 96/101/86
f 79/83/71 96/101/86 80/84/72
f 80/84/72 96/101/86 81/102/1
f 80/84/72 81/102/1 65/85/1
f 81/86/1 97/103/1 98/104/87
f 81/86/1 98/104/87 82/87/73
f 82/87/73 98/104/87 99/105/88
f 82/87/73 99/105/88 83/88/74
f 83/88/74 99/105/88 100/106/89
f 83/88/74 100/106/89 84/89/75
f 84/89/75 100/106/89 101/107/90
f 84/89/75 101/107/90 85/90/76
f 85/90/76 101/107/90 102/108/91
f 85/90/76 102/108/91 86/91/77
f 86/91/77 102/108/91 103/109/92
f 86/91/77 103/109/92 87/92/78
f 87/92/78 103/109/92 104/110/93
f 87/92/78 104/110/93 88/93/79
f 88/93/79 104/110/93 105/111/16
f 88/93/79 105/111/16 89/94/16
f 89/94/16 105/111/16 106/112/94
f 89/94/16 106/112/94 90/95/80
f 90/95/80 106/112/94 107/113/95
f 90/95/80 107/113/95 91/96/81
f 91/96/81 107/113/95 108/114/96
f 91/96/81 108/114/96 92/97/82
f 92/97/82 108/114/96 109/115/97
f 92/97/82 109/115/97 93/98/83
f 93/98/83 109/115/97 110/116/98
f 93/98/83 110/116/98 94/99/84
f 94/99/84 110/116/98 111/117/99
f 94/99/84 111/117/99 95/100/85
f 95/100/85 111/117/99 112/118/100
f 95/100/85 112/118/100 96/101/86
f 96/101/86 112/118/100 97/119/1
f 96/101/86 97/119/1 81/102/1
f 97/103/1 113/120/1 114/121/101
f 97/103/1 114/121/101 98/104/87
f 98/104/87 114/121/101 115/122/102
f 98/104/87 115/122/102 99/105/88
f 99/105/88 115/122/102 116/123/103
f 99/105/88 116/123/103 100/106/89
f 100/106/89 116/123/103 117/124/104
f 100/106/89 117/124/104 101/107/90
f 101/107/90 117/124/104 118/125/105
f 101/107/90 118/125/105 102/108/91
f 102/108/91 118/125/105 119/126/106
f 102/108/91 119/126/106 103/109/92
f 103/109/92 119/126/106 120/127/107
f 103/109/92 120/127/107 104/110/93
f 104/110/93 120/127/107 121/128/16
f 104/110/93 121/128/16 105/111/16
f 105/111/16 121/128/16 122/129/108
f 105/111/16 122/129/108 106/112/94
f 106/112/94 122/129/108 123/130/109
f 106/112/94 123/130/109 107/113/95
f 107/113/95 123/130/109 124/131/110
f 107/113/95 124/131/110 108/114/96
f 108/114/96 124/131/110 125/132/111
f 108/114/96 125/132/111 109/115/97
f 109/115/97 125/132/111 126/133/112
f 109/115/97 126/133/112 110/116/98
f 110/116/98 126/133/112 127/134/113
f 110/116/98 127/134/113 111/117/99
f 111/117/99 127/134/113 128/135/114
f 111/117/99 128/135/114 112/118/100
f 112/118/100 128/135/114 113/136/1
f 112/118/100 113/136/1 97/119/1
f 113/120/1 129/137/1 130/138/115
f 113/120/1 130/138/115 114/121/101
f 114/121/101 130/138/115 131/139/116
f 114/121/101 131/139/116 115/122/102
f 115/122/102 131/139/116 132/140/117
f 115/122/102 132/140/117 116/123/103
f 116/123/103 132/140/117 133/141/118
f 116/123/103 133/141/118 117/124/104
f 117/124/104 133/141/118 134/142/119
f 117/124/104 134/142/119 118/125/105
f 118/125/105 134/142/119 135/143/120
f 118/125/105 135/143/120 119/126/106
f 119/126/106 135/143/120 136/144/121
f 119/126/106 136/144/121 120/127/107
f 120/127/107 136/144/121 137/145/16
f 120/127/107 137/145/16 121/128/16
f 121/128/16 137/145/16 138/146/122
f 121/128/16 138/146/122 122/129/108
f 122/129/108 138/146/122 139/147/123
f 122/129/108 139/147/123 123/130/109
f 123/130/109 139/147/123 140/148/124
f 123/130/109 140/148/124 124/131/110
f 124/131/110 140/148/124 141/149/125
f 124/131/110 141/149/125 125/132/111
f 125/132/111 141/149/125 142/150/126
f 125/132/111 142/150/126 126/133/112
f 126/133/112 142/150/126 143/151/127
f 126/133/112 143/151/127 127/134/113
f 127/134/113 143/151/127 144/152/128
f 127/134/113 144/152/128 128/135/114
f 128/135/114 144/152/128 129/153/1
f 128/135/114 129/153/1 113/136/1
f 129/137/1 145/154/1 146/155/129
f 129/137/1 146/155/129 130/138/115
f 130/138/115 146/155/129 147/156/130
f 130/138/115 147/156/130 131/139/116
f 131/139/116 147/156/130 148/157/131
f 131/139/116 148/157/131 132/140/117
f 132/140/117 148/157/131 149/158/132
f 132/140/117 149/158/132 133/141/118
f 133/141/118 149/158/132 150/159/133
f 133/141/118 150/159/133 134/142/119
f 134/142/119 150/159/133 151/160/134
f 134/142/119 151/160/134 135/143/120
f 135/143/120 151/160/134 152/161/135
f 135/143/120 152/161/135 136/144/121
f 136/144/121 152/161/135 153/162/16
f 136/144/121 153/162/16 137/145/16
f 137/145/16 153/162/16 154/163/136
f 137/145/16 154/163/136 138/146/122
f 138/146/122 154/163/136 155/164/137
f 138/146/122 155/164/137 139/147/123
f 139/147/123 155/164/137 156/165/138
f 139/147/123 156/165/138 140/148/124
f 140/148/124 156/165/138 157/166/139
f 140/148/124 157/166/139 141/149/125
f 141/149/125 157/166/139 158/167/140
f 141/149/125 158/167/140 142/150/126
f 142/150/126 158/167/140 159/168/141
f 142/150/126 159/168/141 143/151/127
f 143/151/127 159/168/141 160/169/142
f 143/151/127 160/169/142 144/152/128
f 144/152/128 160/169/142 145/170/1
f 144/152/128 145/170/1 129/153/1
f 145/154/1 161/171/1 162/172/143
f 145/154/1 162/172/143 146/155/129
f 146/155/129 162/172/143 163/173/144
f 146/155/129 163/173/144 147/156/130
f 147/156/130 163/173/144 164/174/145
f 147/156/130 164/174/145 148/157/131
f 148/157/131 164/174/145 165/175/146
f 148/157/131 165/175/146 149/158/132
f 149/158/132 165/175/146 166/176/147
f 149/158/132 166/176/147 150/159/133
f 150/159/133 166/176/147 167/177/148
f 150/159/133 167/177/148 151/160/134
f 151/160/134 167/177/148 168/178/149
f 151/160/134 168/178/149 152/161/135
f 152/161/135 168/178/149 169/179/16
f 152/161/135 169/179/16 153/162/16
f 153/162/16 169/179/16 170/180/150
f 153/162/16 170/180/150 154/163/136
f 154/163/136 170/180/150 171/181/151
f 154/163/136 171/181/151 155/164/137
f 155/164/137 171/181/151 172/182/152
f 155/164/137 172/182/152 156/165/138
f 156/165/138 172/182/152 173/183/153
f 156/165/138 173/183/153 157/166/139
f 157/166/139 173/183/153 174/184/154
f 157/166/139 174/184/154 158/167/140
f 158/167/140 174/184/154 175/185/155
f 158/167/140 175/185/155 159/168/141
f 159/168/141 175/185/155 176/186/156
f 159/168/141 176/186/156 160/169/142
f 160/169/142 176/186/156 161/187/1
f 160/169/142 161/187/1 145/170/1
f 161/171/1 177/188/1 178/189/157
f 161/171/1 178/189/157 162/172/143
f 162/172/143 178/189/157 179/190/158
f 162/172/143 179/190/158 163/173/144
f 163/173/144 179/190/158 180/191/159
f 163/173/144 180/191/159 164/174/145
f 164/174/145 180/191/159 181/192/160
f 164/174/145 181/192/160 165/175/146
f 165/175/146 181/192/160 182/193/161
f 165/175/146 182/193/161 166/176/147
f 166/176/147 182/193/161 183/194/162
f 166/176/147 183/194/162 167/177/148
f 167/177/148 183/194/162 184/195/163
f 167/177/148 184/195/163 168/178/149
f 168/178/149 184/195/163 185/196/16
f 168/178/149 185/196/16 169/179/16
f 169/179/16 185/196/16 186/197/164
f 169/179/16 186/197/164 170/180/150
f 170/180/150 186/197/164 187/198/165
f 170/180/150 187/198/165 171/181/151
f 171/181/151 187/198/165 188/199/166
f 171/181/151 188/199/166 172/182/152
f 172/182/152 188/199/166 189/200/167
f 172/182/152 189/200/167 173/183/153
f 173/183/153 189/200/167 190/201/168
f 173/183/153 190/201/168 174/184/154
f 174/184/154 190/201/168 191/202/169
f 174/184/154 191/202/169 175/185/155
f 175/185/155 191/202/169 192/203/170
f 175/185/155 192/203/170 176/186/156
f 176/186/156 192/203/170 177/204/1
f 176/186/156 177/204/1 161/187/1
f 177/188/1 193/205/1 194/206/171
f 177/188/1 194/206/171 178/189/157
f 178/189/157 194/206/171 195/207/172
f 178/189/157 195/207/172 179/190/158
f 179/190/158 195/207/172 196/208/173
f 179/190/158 196/208/173 180/191/159
f 180/191/159 196/208/173 197/209/174
f 180/191/159 197/209/174 181/192/160
f 181/192/160 197/209/174 198/210/175
f 181/192/160 198/210/175 182/193/161
f 182/193/161 198/210/175 199/211/176
f 182/193/161 199/211/176 183/194/162
f 183/194/162 199/211/176 200/212/177
f 183/194/162 200/212/177 184/195/163
f 184/195/163 200/212/177 201/213/16
f 184/195/163 201/213/16 185/196/16
f 185/196/16 201/213/16 202/214/178
f 185/196/16 202/214/178 186/197/164
f 186/197/164 202/214/178 203/215/179
f 186/197/164 203/215/179 187/198/165
f 187/198/165 203/215/179 204/216/180
f 187/198/165 204/216/180 188/199/166
f 188/199/166 204/216/180 205/217/181
f 188/199/166 205/217/181 189/200/167
f 189/200/167 205/217/181 206/218/182
f 189/200/167 206/218/182 190/201/168
f 190/201/168 206/218/182 207/219/183
f 190/201/168 207/219/183 191/202/169
f 191/202/169 207/219/183 208/220/184
f 191/202/169 208/220/184 192/203/170
f 192/203/170 208/220/184 193/221/1
f 192/203/170 193/221/1 177/204/1
