# Procedurally generated by dev-env-utils/scripts/gen_mast_arm_curves.py
# cell 5 of 8 at (+3 along arm, +2 up)
mtllib mastarmcurve.mtl
o mastarm_6x2_c5
v 0.780382 0.027392 0.916667
v 0.779514 0.054012 0.833333
v 0.758237 0.156041 0.865454
v 0.759039 0.129463 0.949745
v 0.697646 0.242537 0.892684
v 0.698260 0.215995 0.977788
v 0.606965 0.300332 0.910878
v 0.607298 0.273814 0.996526
v 0.500000 0.320626 0.917267
v 0.500000 0.294117 1.003105
v 0.393035 0.300332 0.910878
v 0.392702 0.273814 0.996526
v 0.302354 0.242537 0.892684
v 0.301740 0.215995 0.977788
v 0.241763 0.156041 0.865454
v 0.240961 0.129463 0.949745
v 0.220486 0.054012 0.833333
v 0.219618 0.027392 0.916667
v 0.241763 -0.048016 0.801213
v 0.240961 -0.074679 0.883588
v 0.302354 -0.134512 0.773983
v 0.301740 -0.161211 0.855545
v 0.393035 -0.192307 0.755788
v 0.392702 -0.219030 0.836808
v 0.500000 -0.212602 0.749399
v 0.500000 -0.239333 0.830228
v 0.606965 -0.192307 0.755788
v 0.607298 -0.219030 0.836808
v 0.697646 -0.134512 0.773983
v 0.698260 -0.161211 0.855545
v 0.758237 -0.048016 0.801213
v 0.759039 -0.074679 0.883588
v 0.778646 0.079861 0.750000
v 0.757435 0.181840 0.781160
v 0.697032 0.268293 0.807577
v 0.606633 0.326060 0.825227
v 0.500000 0.346344 0.831425
v 0.393367 0.326060 0.825227
v 0.302968 0.268293 0.807577
v 0.242565 0.181840 0.781160
v 0.221354 0.079861 0.750000
v 0.242565 -0.022118 0.718840
v 0.302968 -0.108571 0.692423
v 0.393367 -0.166337 0.674773
v 0.500000 -0.186622 0.668575
v 0.606633 -0.166337 0.674773
v 0.697032 -0.108571 0.692423
v 0.757435 -0.022118 0.718840
v 0.777778 0.104938 0.666667
v 0.756633 0.206859 0.696866
v 0.696419 0.293264 0.722467
v 0.606301 0.350998 0.739573
v 0.500000 0.371271 0.745580
v 0.393699 0.350998 0.739573
v 0.303581 0.293264 0.722467
v 0.243367 0.206859 0.696866
v 0.222222 0.104938 0.666667
v 0.243367 0.003017 0.636468
v 0.303581 -0.083387 0.610866
v 0.393699 -0.141121 0.593760
v 0.500000 -0.161395 0.587753
v 0.606301 -0.141121 0.593760
v 0.696419 -0.083387 0.610866
v 0.756633 0.003017 0.636468
v 0.776910 0.129244 0.583333
v 0.755831 0.231100 0.612570
v 0.695805 0.317449 0.637355
v 0.605969 0.375146 0.653916
v 0.500000 0.395406 0.659732
v 0.394031 0.375146 0.653916
v 0.304195 0.317449 0.637355
v 0.244169 0.231100 0.612570
v 0.223090 0.129244 0.583333
v 0.244169 0.027388 0.554097
v 0.304195 -0.058961 0.529312
v 0.394031 -0.116658 0.512750
v 0.500000 -0.136918 0.506935
v 0.605969 -0.116658 0.512750
v 0.695805 -0.058961 0.529312
v 0.755831 0.027388 0.554097
v 0.776042 0.152778 0.500000
v 0.755029 0.254561 0.528273
v 0.695191 0.340848 0.552242
v 0.605637 0.398503 0.568257
v 0.500000 0.418749 0.573881
v 0.394363 0.398503 0.568257
v 0.304809 0.340848 0.552242
v 0.244971 0.254561 0.528273
v 0.223958 0.152778 0.500000
v 0.244971 0.050995 0.471727
v 0.304809 -0.035292 0.447758
v 0.394363 -0.092947 0.431743
v 0.500000 -0.113193 0.426119
v 0.605637 -0.092947 0.431743
v 0.695191 -0.035292 0.447758
v 0.755029 0.050995 0.471727
v 0.775174 0.175540 0.416667
v 0.754227 0.277242 0.443975
v 0.694577 0.363460 0.467127
v 0.605304 0.421070 0.482596
v 0.500000 0.441300 0.488028
v 0.394696 0.421070 0.482596
v 0.305423 0.363460 0.467127
v 0.245773 0.277242 0.443975
v 0.224826 0.175540 0.416667
v 0.245773 0.073838 0.389358
v 0.305423 -0.012380 0.366207
v 0.394696 -0.069990 0.350737
v 0.500000 -0.090219 0.345305
v 0.605304 -0.069990 0.350737
v 0.694577 -0.012380 0.366207
v 0.754227 0.073838 0.389358
v 0.774306 0.197531 0.333333
v 0.753425 0.299144 0.359677
v 0.693963 0.385287 0.382011
v 0.604972 0.442846 0.396933
v 0.500000 0.463058 0.402174
v 0.395028 0.442846 0.396933
v 0.306037 0.385287 0.382011
v 0.246575 0.299144 0.359677
v 0.225694 0.197531 0.333333
v 0.246575 0.095918 0.306989
v 0.306037 0.009775 0.284656
v 0.395028 -0.047784 0.269733
v 0.500000 -0.067996 0.264493
v 0.604972 -0.047784 0.269733
v 0.693963 0.009775 0.284656
v 0.753425 0.095918 0.306989
v 0.773438 0.218750 0.250000
v 0.752623 0.320266 0.275379
v 0.693350 0.406327 0.296894
v 0.604640 0.463831 0.311270
v 0.500000 0.484023 0.316318
v 0.395360 0.463831 0.311270
v 0.306650 0.406327 0.296894
v 0.247377 0.320266 0.275379
v 0.226562 0.218750 0.250000
v 0.247377 0.117234 0.224621
v 0.306650 0.031173 0.203106
v 0.395360 -0.026331 0.188730
v 0.500000 -0.046523 0.183682
v 0.604640 -0.026331 0.188730
v 0.693350 0.031173 0.203106
v 0.752623 0.117234 0.224621
v 0.772569 0.239198 0.166667
v 0.751821 0.340608 0.191080
v 0.692736 0.426580 0.211777
v 0.604308 0.484024 0.225606
v 0.500000 0.504196 0.230463
v 0.395692 0.484024 0.225606
v 0.307264 0.426580 0.211777
v 0.248179 0.340608 0.191080
v 0.227431 0.239198 0.166667
v 0.248179 0.137787 0.142253
v 0.307264 0.051815 0.121556
v 0.395692 -0.005629 0.107727
v 0.500000 -0.025801 0.102871
v 0.604308 -0.005629 0.107727
v 0.692736 0.051815 0.121556
v 0.751821 0.137787 0.142253
v 0.771701 0.258873 0.083333
v 0.751019 0.360171 0.106782
v 0.692122 0.446046 0.126660
v 0.603976 0.503426 0.139943
v 0.500000 0.523576 0.144607
v 0.396024 0.503426 0.139943
v 0.307878 0.446046 0.126660
v 0.248981 0.360171 0.106782
v 0.228299 0.258873 0.083333
v 0.248981 0.157576 0.059885
v 0.307878 0.071701 0.040006
v 0.396024 0.014321 0.026724
v 0.500000 -0.005829 0.022060
v 0.603976 0.014321 0.026724
v 0.692122 0.071701 0.040006
v 0.751019 0.157576 0.059885
v 0.770833 0.277778 0.000000
v 0.750217 0.378953 0.022483
v 0.691508 0.464725 0.041544
v 0.603643 0.522037 0.054280
v 0.500000 0.542162 0.058752
v 0.396357 0.522037 0.054280
v 0.308492 0.464725 0.041544
v 0.249783 0.378953 0.022483
v 0.229167 0.277778 0.000000
v 0.249783 0.176602 -0.022483
v 0.308492 0.090830 -0.041544
v 0.396357 0.033519 -0.054280
v 0.500000 0.013394 -0.058752
v 0.603643 0.033519 -0.054280
v 0.691508 0.090830 -0.041544
v 0.750217 0.176602 -0.022483
vt 0.250000 0.465867
vt 0.250000 0.509608
vt 0.281250 0.509608
vt 0.281250 0.465867
vt 0.312500 0.509608
vt 0.312500 0.465867
vt 0.343750 0.509608
vt 0.343750 0.465867
vt 0.375000 0.509608
vt 0.375000 0.465867
vt 0.406250 0.509608
vt 0.406250 0.465867
vt 0.437500 0.509608
vt 0.437500 0.465867
vt 0.468750 0.509608
vt 0.468750 0.465867
vt 0.500000 0.509608
vt 0.500000 0.465867
vt 0.531250 0.509608
vt 0.531250 0.465867
vt 0.562500 0.509608
vt 0.562500 0.465867
vt 0.593750 0.509608
vt 0.593750 0.465867
vt 0.625000 0.509608
vt 0.625000 0.465867
vt 0.656250 0.509608
vt 0.656250 0.465867
vt 0.687500 0.509608
vt 0.687500 0.465867
vt 0.718750 0.509608
vt 0.718750 0.465867
vt 0.750000 0.509608
vt 0.750000 0.465867
vt 0.250000 0.553233
vt 0.281250 0.553233
vt 0.312500 0.553233
vt 0.343750 0.553233
vt 0.375000 0.553233
vt 0.406250 0.553233
vt 0.437500 0.553233
vt 0.468750 0.553233
vt 0.500000 0.553233
vt 0.531250 0.553233
vt 0.562500 0.553233
vt 0.593750 0.553233
vt 0.625000 0.553233
vt 0.656250 0.553233
vt 0.687500 0.553233
vt 0.718750 0.553233
vt 0.750000 0.553233
vt 0.250000 0.596745
vt 0.281250 0.596745
vt 0.312500 0.596745
vt 0.343750 0.596745
vt 0.375000 0.596745
vt 0.406250 0.596745
vt 0.437500 0.596745
vt 0.468750 0.596745
vt 0.500000 0.596745
vt 0.531250 0.596745
vt 0.562500 0.596745
vt 0.593750 0.596745
vt 0.625000 0.596745
vt 0.656250 0.596745
vt 0.687500 0.596745
vt 0.718750 0.596745
vt 0.750000 0.596745
vt 0.250000 0.640148
vt 0.281250 0.640148
vt 0.312500 0.640148
vt 0.343750 0.640148
vt 0.375000 0.640148
vt 0.406250 0.640148
vt 0.437500 0.640148
vt 0.468750 0.640148
vt 0.500000 0.640148
vt 0.531250 0.640148
vt 0.562500 0.640148
vt 0.593750 0.640148
vt 0.625000 0.640148
vt 0.656250 0.640148
vt 0.687500 0.640148
vt 0.718750 0.640148
vt 0.750000 0.640148
vt 0.250000 0.683444
vt 0.281250 0.683444
vt 0.312500 0.683444
vt 0.343750 0.683444
vt 0.375000 0.683444
vt 0.406250 0.683444
vt 0.437500 0.683444
vt 0.468750 0.683444
vt 0.500000 0.683444
vt 0.531250 0.683444
vt 0.562500 0.683444
vt 0.593750 0.683444
vt 0.625000 0.683444
vt 0.656250 0.683444
vt 0.687500 0.683444
vt 0.718750 0.683444
vt 0.750000 0.683444
vt 0.250000 0.726637
vt 0.281250 0.726637
vt 0.312500 0.726637
vt 0.343750 0.726637
vt 0.375000 0.726637
vt 0.406250 0.726637
vt 0.437500 0.726637
vt 0.468750 0.726637
vt 0.500000 0.726637
vt 0.531250 0.726637
vt 0.562500 0.726637
vt 0.593750 0.726637
vt 0.625000 0.726637
vt 0.656250 0.726637
vt 0.687500 0.726637
vt 0.718750 0.726637
vt 0.750000 0.726637
vt 0.250000 0.730270
vt 0.281250 0.730270
vt 0.312500 0.730270
vt 0.343750 0.730270
vt 0.375000 0.730270
vt 0.406250 0.730270
vt 0.437500 0.730270
vt 0.468750 0.730270
vt 0.500000 0.730270
vt 0.531250 0.730270
vt 0.562500 0.730270
vt 0.593750 0.730270
vt 0.625000 0.730270
vt 0.656250 0.730270
vt 0.687500 0.730270
vt 0.718750 0.730270
vt 0.750000 0.730270
vt 0.250000 0.687274
vt 0.281250 0.687274
vt 0.312500 0.687274
vt 0.343750 0.687274
vt 0.375000 0.687274
vt 0.406250 0.687274
vt 0.437500 0.687274
vt 0.468750 0.687274
vt 0.500000 0.687274
vt 0.531250 0.687274
vt 0.562500 0.687274
vt 0.593750 0.687274
vt 0.625000 0.687274
vt 0.656250 0.687274
vt 0.687500 0.687274
vt 0.718750 0.687274
vt 0.750000 0.687274
vt 0.250000 0.644371
vt 0.281250 0.644371
vt 0.312500 0.644371
vt 0.343750 0.644371
vt 0.375000 0.644371
vt 0.406250 0.644371
vt 0.437500 0.644371
vt 0.468750 0.644371
vt 0.500000 0.644371
vt 0.531250 0.644371
vt 0.562500 0.644371
vt 0.593750 0.644371
vt 0.625000 0.644371
vt 0.656250 0.644371
vt 0.687500 0.644371
vt 0.718750 0.644371
vt 0.750000 0.644371
vt 0.250000 0.601559
vt 0.281250 0.601559
vt 0.312500 0.601559
vt 0.343750 0.601559
vt 0.375000 0.601559
vt 0.406250 0.601559
vt 0.437500 0.601559
vt 0.468750 0.601559
vt 0.500000 0.601559
vt 0.531250 0.601559
vt 0.562500 0.601559
vt 0.593750 0.601559
vt 0.625000 0.601559
vt 0.656250 0.601559
vt 0.687500 0.601559
vt 0.718750 0.601559
vt 0.750000 0.601559
vt 0.250000 0.558833
vt 0.281250 0.558833
vt 0.312500 0.558833
vt 0.343750 0.558833
vt 0.375000 0.558833
vt 0.406250 0.558833
vt 0.437500 0.558833
vt 0.468750 0.558833
vt 0.500000 0.558833
vt 0.531250 0.558833
vt 0.562500 0.558833
vt 0.593750 0.558833
vt 0.625000 0.558833
vt 0.656250 0.558833
vt 0.687500 0.558833
vt 0.718750 0.558833
vt 0.750000 0.558833
vn 1.000000 0.000000 0.000000
vn 0.923880 0.365022 0.114914
vn 0.923880 0.364044 0.117977
vn 0.707107 0.674473 0.212334
vn 0.707107 0.672665 0.217993
vn 0.382683 0.881242 0.277428
vn 0.382683 0.878880 0.284822
vn 0.000000 0.953849 0.300286
vn 0.000000 0.951293 0.308289
vn -0.382683 0.881242 0.277428
vn -0.382683 0.878880 0.284822
vn -0.707107 0.674473 0.212334
vn -0.707107 0.672665 0.217993
vn -0.923880 0.365022 0.114914
vn -0.923880 0.364044 0.117977
vn -1.000000 0.000000 0.000000
vn -0.923880 -0.365022 -0.114914
vn -0.923880 -0.364044 -0.117977
vn -0.707107 -0.674473 -0.212334
vn -0.707107 -0.672665 -0.217993
vn -0.382683 -0.881242 -0.277428
vn -0.382683 -0.878880 -0.284822
vn -0.000000 -0.953849 -0.300286
vn -0.000000 -0.951293 -0.308289
vn 0.382683 -0.881242 -0.277428
vn 0.382683 -0.878880 -0.284822
vn 0.707107 -0.674473 -0.212334
vn 0.707107 -0.672665 -0.217993
vn 0.923880 -0.365022 -0.114914
vn 0.923880 -0.364044 -0.117977
vn 0.923880 0.365980 0.111827
vn 0.707107 0.676243 0.206630
vn 0.382683 0.883554 0.269975
vn 0.000000 0.956352 0.292219
vn -0.382683 0.883554 0.269975
vn -0.707107 0.676243 0.206630
vn -0.923880 0.365980 0.111827
vn -0.923880 -0.365980 -0.111827
vn -0.707107 -0.676243 -0.206630
vn -0.382683 -0.883554 -0.269975
vn -0.000000 -0.956352 -0.292219
vn 0.382683 -0.883554 -0.269975
vn 0.707107 -0.676243 -0.206630
vn 0.923880 -0.365980 -0.111827
vn 0.923880 0.366916 0.108716
vn 0.707107 0.677973 0.200881
vn 0.382683 0.885814 0.262463
vn 0.000000 0.958798 0.284088
vn -0.382683 0.885814 0.262463
vn -0.707107 0.677973 0.200881
vn -0.923880 0.366916 0.108716
vn -0.923880 -0.366916 -0.108716
vn -0.707107 -0.677973 -0.200881
vn -0.382683 -0.885814 -0.262463
vn -0.000000 -0.958798 -0.284088
vn 0.382683 -0.885814 -0.262463
vn 0.707107 -0.677973 -0.200881
vn 0.923880 -0.366916 -0.108716
vn 0.923880 0.367830 0.105581
vn 0.707107 0.679662 0.195088
vn 0.382683 0.888021 0.254895
vn 0.000000 0.961187 0.275896
vn -0.382683 0.888021 0.254895
vn -0.707107 0.679662 0.195088
vn -0.923880 0.367830 0.105581
vn -0.923880 -0.367830 -0.105581
vn -0.707107 -0.679662 -0.195088
vn -0.382683 -0.888021 -0.254895
vn -0.000000 -0.961187 -0.275896
vn 0.382683 -0.888021 -0.254895
vn 0.707107 -0.679662 -0.195088
vn 0.923880 -0.367830 -0.105581
vn 0.923880 0.368722 0.102423
vn 0.707107 0.681310 0.189253
vn 0.382683 0.890174 0.247271
vn 0.000000 0.963518 0.267644
vn -0.382683 0.890174 0.247271
vn -0.707107 0.681310 0.189253
vn -0.923880 0.368722 0.102423
vn -0.923880 -0.368722 -0.102423
vn -0.707107 -0.681310 -0.189253
vn -0.382683 -0.890174 -0.247271
vn -0.000000 -0.963518 -0.267644
vn 0.382683 -0.890174 -0.247271
vn 0.707107 -0.681310 -0.189253
vn 0.923880 -0.368722 -0.102423
vn 0.923880 0.369591 0.099242
vn 0.707107 0.682915 0.183375
vn 0.382683 0.892272 0.239592
vn 0.000000 0.965788 0.259332
vn -0.382683 0.892272 0.239592
vn -0.707107 0.682915 0.183375
vn -0.923880 0.369591 0.099242
vn -0.923880 -0.369591 -0.099242
vn -0.707107 -0.682915 -0.183375
vn -0.382683 -0.892272 -0.239592
vn -0.000000 -0.965788 -0.259332
vn 0.382683 -0.892272 -0.239592
vn 0.707107 -0.682915 -0.183375
vn 0.923880 -0.369591 -0.099242
vn 0.923880 0.370436 0.096039
vn 0.707107 0.684477 0.177457
vn 0.382683 0.894313 0.231859
vn 0.000000 0.967997 0.250962
vn -0.382683 0.894313 0.231859
vn -0.707107 0.684477 0.177457
vn -0.923880 0.370436 0.096039
vn -0.923880 -0.370436 -0.096039
vn -0.707107 -0.684477 -0.177457
vn -0.382683 -0.894313 -0.231859
vn -0.000000 -0.967997 -0.250962
vn 0.382683 -0.894313 -0.231859
vn 0.707107 -0.684477 -0.177457
vn 0.923880 -0.370436 -0.096039
vn 0.923880 0.371257 0.092814
vn 0.707107 0.685994 0.171499
vn 0.382683 0.896295 0.224074
vn 0.000000 0.970143 0.242536
vn -0.382683 0.896295 0.224074
vn -0.707107 0.685994 0.171499
vn -0.923880 0.371257 0.092814
vn -0.923880 -0.371257 -0.092814
vn -0.707107 -0.685994 -0.171499
vn -0.382683 -0.896295 -0.224074
vn -0.000000 -0.970143 -0.242536
vn 0.382683 -0.896295 -0.224074
vn 0.707107 -0.685994 -0.171499
vn 0.923880 -0.371257 -0.092814
vn 0.923880 0.372054 0.089569
vn 0.707107 0.687466 0.165501
vn 0.382683 0.898218 0.216238
vn 0.000000 0.972224 0.234054
vn -0.382683 0.898218 0.216238
vn -0.707107 0.687466 0.165501
vn -0.923880 0.372054 0.089569
vn -0.923880 -0.372054 -0.089569
vn -0.707107 -0.687466 -0.165501
vn -0.382683 -0.898218 -0.216238
vn -0.000000 -0.972224 -0.234054
vn 0.382683 -0.898218 -0.216238
vn 0.707107 -0.687466 -0.165501
vn 0.923880 -0.372054 -0.089569
vn 0.923880 0.372825 0.086302
vn 0.707107 0.688891 0.159465
vn 0.382683 0.900079 0.208352
vn 0.000000 0.974239 0.225518
vn -0.382683 0.900079 0.208352
vn -0.707107 0.688891 0.159465
vn -0.923880 0.372825 0.086302
vn -0.923880 -0.372825 -0.086302
vn -0.707107 -0.688891 -0.159465
vn -0.382683 -0.900079 -0.208352
vn -0.000000 -0.974239 -0.225518
vn 0.382683 -0.900079 -0.208352
vn 0.707107 -0.688891 -0.159465
vn 0.923880 -0.372825 -0.086302
vn 0.923880 0.373571 0.083016
vn 0.707107 0.690268 0.153393
vn 0.382683 0.901879 0.200418
vn 0.000000 0.976187 0.216930
vn -0.382683 0.901879 0.200418
vn -0.707107 0.690268 0.153393
vn -0.923880 0.373571 0.083016
vn -0.923880 -0.373571 -0.083016
vn -0.707107 -0.690268 -0.153393
vn -0.382683 -0.901879 -0.200418
vn -0.000000 -0.976187 -0.216930
vn 0.382683 -0.901879 -0.200418
vn 0.707107 -0.690268 -0.153393
vn 0.923880 -0.373571 -0.083016
usemtl body
f 1/1/1 2/2/1 3/3/2
f 1/1/1 3/3/2 4/4/3
f 4/4/3 3/3/2 5/5/4
f 4/4/3 5/5/4 6/6/5
f 6/6/5 5/5/4 7/7/6
f 6/6/5 7/7/6 8/8/7
f 8/8/7 7/7/6 9/9/8
f 8/8/7 9/9/8 10/10/9
f 10/10/9 9/9/8 11/11/10
f 10/10/9 11/11/10 12/12/11
f 12/12/11 11/11/10 13/13/12
f 12/12/11 13/13/12 14/14/13
f 14/14/13 13/13/12 15/15/14
f 14/14/13 15/15/14 16/16/15
f 16/16/15 15/15/14 17/17/16
f 16/16/15 17/17/16 18/18/16
f 18/18/16 17/17/16 19/19/17
f 18/18/16 19/19/17 20/20/18
f 20/20/18 19/19/17 21/21/19
f 20/20/18 21/21/19 22/22/20
f 22/22/20 21/21/19 23/23/21
f 22/22/20 23/23/21 24/24/22
f 24/24/22 23/23/21 25/25/23
f 24/24/22 25/25/23 26/26/24
f 26/26/24 25/25/23 27/27/25
f 26/26/24 27/27/25 28/28/26
f 28/28/26 27/27/25 29/29/27
f 28/28/26 29/29/27 30/30/28
f 30/30/28 29/29/27 31/31/29
f 30/30/28 31/31/29 32/32/30
f 32/32/30 31/31/29 2/33/1
f 32/32/30 2/33/1 1/34/1
f 2/2/1 33/35/1 34/36/31
f 2/2/1 34/36/31 3/3/2
f 3/3/2 34/36/31 35/37/32
f 3/3/2 35/37/32 5/5/4
f 5/5/4 35/37/32 36/38/33
f 5/5/4 36/38/33 7/7/6
f 7/7/6 36/38/33 37/39/34
f 7/7/6 37/39/34 9/9/8
f 9/9/8 37/39/34 38/40/35
f 9/9/8 38/40/35 11/11/10
f 11/11/10 38/40/35 39/41/36
f 11/11/10 39/41/36 13/13/12
f 13/13/12 39/41/36 40/42/37
f 13/13/12 40/42/37 15/15/14
f 15/15/14 40/42/37 41/43/16
f 15/15/14 41/43/16 17/17/16
f 17/17/16 41/43/16 42/44/38
f 17/17/16 42/44/38 19/19/17
f 19/19/17 42/44/38 43/45/39
f 19/19/17 43/45/39 21/21/19
f 21/21/19 43/45/39 44/46/40
f 21/21/19 44/46/40 23/23/21
f 23/23/21 44/46/40 45/47/41
f 23/23/21 45/47/41 25/25/23
f 25/25/23 45/47/41 46/48/42
f 25/25/23 46/48/42 27/27/25
f 27/27/25 46/48/42 47/49/43
f 27/27/25 47/49/43 29/29/27
f 29/29/27 47/49/43 48/50/44
f 29/29/27 48/50/44 31/31/29
f 31/31/29 48/50/44 33/51/1
f 31/31/29 33/51/1 2/33/1
f 33/35/1 49/52/1 50/53/45
f 33/35/1 50/53/45 34/36/31
f 34/36/31 50/53/45 51/54/46
f 34/36/31 51/54/46 35/37/32
f 35/37/32 51/54/46 52/55/47
f 35/37/32 52/55/47 36/38/33
f 36/38/33 52/55/47 53/56/48
f 36/38/33 53/56/48 37/39/34
f 37/39/34 53/56/48 54/57/49
f 37/39/34 54/57/49 38/40/35
f 38/40/35 54/57/49 55/58/50
f 38/40/35 55/58/50 39/41/36
f 39/41/36 55/58/50 56/59/51
f 39/41/36 56/59/51 40/42/37
f 40/42/37 56/59/51 57/60/16
f 40/42/37 57/60/16 41/43/16
f 41/43/16 57/60/16 58/61/52
f 41/43/16 58/61/52 42/44/38
f 42/44/38 58/61/52 59/62/53
f 42/44/38 59/62/53 43/45/39
f 43/45/39 59/62/53 60/63/54
f 43/45/39 60/63/54 44/46/40
f 44/46/40 60/63/54 61/64/55
f 44/46/40 61/64/55 45/47/41
f 45/47/41 61/64/55 62/65/56
f 45/47/41 62/65/56 46/48/42
f 46/48/42 62/65/56 63/66/57
f 46/48/42 63/66/57 47/49/43
f 47/49/43 63/66/57 64/67/58
f 47/49/43 64/67/58 48/50/44
f 48/50/44 64/67/58 49/68/1
f 48/50/44 49/68/1 33/51/1
f 49/52/1 65/69/1 66/70/59
f 49/52/1 66/70/59 50/53/45
f 50/53/45 66/70/59 67/71/60
f 50/53/45 67/71/60 51/54/46
f 51/54/46 67/71/60 68/72/61
f 51/54/46 68/72/61 52/55/47
f 52/55/47 68/72/61 69/73/62
f 52/55/47 69/73/62 53/56/48
f 53/56/48 69/73/62 70/74/63
f 53/56/48 70/74/63 54/57/49
f 54/57/49 70/74/63 71/75/64
f 54/57/49 71/75/64 55/58/50
f 55/58/50 71/75/64 72/76/65
f 55/58/50 72/76/65 56/59/51
f 56/59/51 72/76/65 73/77/16
f 56/59/51 73/77/16 57/60/16
f 57/60/16 73/77/16 74/78/66
f 57/60/16 74/78/66 58/61/52
f 58/61/52 74/78/66 75/79/67
f 58/61/52 75/79/67 59/62/53
f 59/62/53 75/79/67 76/80/68
f 59/62/53 76/80/68 60/63/54
f 60/63/54 76/80/68 77/81/69
f 60/63/54 77/81/69 61/64/55
f 61/64/55 77/81/69 78/82/70
f 61/64/55 78/82/70 62/65/56
f 62/65/56 78/82/70 79/83/71
f 62/65/56 79/83/71 63/66/57
f 63/66/57 79/83/71 80/84/72
f 63/66/57 80/84/72 64/67/58
f 64/67/58 80/84/72 65/85/1
f 64/67/58 65/85/1 49/68/1
f 65/69/1 81/86/1 82/87/73
f 65/69/1 82/87/73 66/70/59
f 66/70/59 82/87/73 83/88/74
f 66/70/59 83/88/74 67/71/60
f 67/71/60 83/88/74 84/89/75
f 67/71/60 84/89/75 68/72/61
f 68/72/61 84/89/75 85/90/76
f 68/72/61 85/90/76 69/73/62
f 69/73/62 85/90/76 86/91/77
f 69/73/62 86/91/77 70/74/63
f 70/74/63 86/91/77 87/92/78
f 70/74/63 87/92/78 71/75/64
f 71/75/64 87/92/78 88/93/79
f 71/75/64 88/93/79 72/76/65
f 72/76/65 88/93/79 89/94/16
f 72/76/65 89/94/16 73/77/16
f 73/77/16 89/94/16 90/95/80
f 73/77/16 90/95/80 74/78/66
f 74/78/66 90/95/80 91/96/81
f 74/78/66 91/96/81 75/79/67
f 75/79/67 91/96/81 92/97/82
f 75/79/67 92/97/82 76/80/68
f 76/80/68 92/97/82 93/98/83
f 76/80/68 93/98/83 77/81/69
f 77/81/69 93/98/83 94/99/84
f 77/81/69 94/99/84 78/82/70
f 78/82/70 94/99/84 95/100/85
f 78/82/70 95/100/85 79/83/71
f 79/83/71 95/100/85 96/101/86
f 79/83/71 96/101/86 80/84/72
f 80/84/72 96/101/86 81/102/1
f 80/84/72 81/102/1 65/85/1
f 81/86/1 97/103/1 98/104/87
f 81/86/1 98/104/87 82/87/73
f 82/87/73 98/104/87 99/105/88
f 82/87/73 99/105/88 83/88/74
f 83/88/74 99/105/88 100/106/89
f 83/88/74 100/106/89 84/89/75
f 84/89/75 100/106/89 101/107/90
f 84/89/75 101/107/90 85/90/76
f 85/90/76 101/107/90 102/108/91
f 85/90/76 102/108/91 86/91/77
f 86/91/77 102/108/91 103/109/92
f 86/91/77 103/109/92 87/92/78
f 87/92/78 103/109/92 104/110/93
f 87/92/78 104/110/93 88/93/79
f 88/93/79 104/110/93 105/111/16
f 88/93/79 105/111/16 89/94/16
f 89/94/16 105/111/16 106/112/94
f 89/94/16 106/112/94 90/95/80
f 90/95/80 106/112/94 107/113/95
f 90/95/80 107/113/95 91/96/81
f 91/96/81 107/113/95 108/114/96
f 91/96/81 108/114/96 92/97/82
f 92/97/82 108/114/96 109/115/97
f 92/97/82 109/115/97 93/98/83
f 93/98/83 109/115/97 110/116/98
f 93/98/83 110/116/98 94/99/84
f 94/99/84 110/116/98 111/117/99
f 94/99/84 111/117/99 95/100/85
f 95/100/85 111/117/99 112/118/100
f 95/100/85 112/118/100 96/101/86
f 96/101/86 112/118/100 97/119/1
f 96/101/86 97/119/1 81/102/1
f 97/103/1 113/120/1 114/121/101
f 97/103/1 114/121/101 98/104/87
f 98/104/87 114/121/101 115/122/102
f 98/104/87 115/122/102 99/105/88
f 99/105/88 115/122/102 116/123/103
f 99/105/88 116/123/103 100/106/89
f 100/106/89 116/123/103 117/124/104
f 100/106/89 117/124/104 101/107/90
f 101/107/90 117/124/104 118/125/105
f 101/107/90 118/125/105 102/108/91
f 102/108/91 118/125/105 119/126/106
f 102/108/91 119/126/106 103/109/92
f 103/109/92 119/126/106 120/127/107
f 103/109/92 120/127/107 104/110/93
f 104/110/93 120/127/107 121/128/16
f 104/110/93 121/128/16 105/111/16
f 105/111/16 121/128/16 122/129/108
f 105/111/16 122/129/108 106/112/94
f 106/112/94 122/129/108 123/130/109
f 106/112/94 123/130/109 107/113/95
f 107/113/95 123/130/109 124/131/110
f 107/113/95 124/131/110 108/114/96
f 108/114/96 124/131/110 125/132/111
f 108/114/96 125/132/111 109/115/97
f 109/115/97 125/132/111 126/133/112
f 109/115/97 126/133/112 110/116/98
f 110/116/98 126/133/112 127/134/113
f 110/116/98 127/134/113 111/117/99
f 111/117/99 127/134/113 128/135/114
f 111/117/99 128/135/114 112/118/100
f 112/118/100 128/135/114 113/136/1
f 112/118/100 113/136/1 97/119/1
f 113/120/1 129/137/1 130/138/115
f 113/120/1 130/138/115 114/121/101
f 114/121/101 130/138/115 131/139/116
f 114/121/101 131/139/116 115/122/102
f 115/122/102 131/139/116 132/140/117
f 115/122/102 132/140/117 116/123/103
f 116/123/103 132/140/117 133/141/118
f 116/123/103 133/141/118 117/124/104
f 117/124/104 133/141/118 134/142/119
f 117/124/104 134/142/119 118/125/105
f 118/125/105 134/142/119 135/143/120
f 118/125/105 135/143/120 119/126/106
f 119/126/106 135/143/120 136/144/121
f 119/126/106 136/144/121 120/127/107
f 120/127/107 136/144/121 137/145/16
f 120/127/107 137/145/16 121/128/16
f 121/128/16 137/145/16 138/146/122
f 121/128/16 138/146/122 122/129/108
f 122/129/108 138/146/122 139/147/123
f 122/129/108 139/147/123 123/130/109
f 123/130/109 139/147/123 140/148/124
f 123/130/109 140/148/124 124/131/110
f 124/131/110 140/148/124 141/149/125
f 124/131/110 141/149/125 125/132/111
f 125/132/111 141/149/125 142/150/126
f 125/132/111 142/150/126 126/133/112
f 126/133/112 142/150/126 143/151/127
f 126/133/112 143/151/127 127/134/113
f 127/134/113 143/151/127 144/152/128
f 127/134/113 144/152/128 128/135/114
f 128/135/114 144/152/128 129/153/1
f 128/135/114 129/153/1 113/136/1
f 129/137/1 145/154/1 146/155/129
f 129/137/1 146/155/129 130/138/115
f 130/138/115 146/155/129 147/156/130
f 130/138/115 147/156/130 131/139/116
f 131/139/116 147/156/130 148/157/131
f 131/139/116 148/157/131 132/140/117
f 132/140/117 148/157/131 149/158/132
f 132/140/117 149/158/132 133/141/118
f 133/141/118 149/158/132 150/159/133
f 133/141/118 150/159/133 134/142/119
f 134/142/119 150/159/133 151/160/134
f 134/142/119 151/160/134 135/143/120
f 135/143/120 151/160/134 152/161/135
f 135/143/120 152/161/135 136/144/121
f 136/144/121 152/161/135 153/162/16
f 136/144/121 153/162/16 137/145/16
f 137/145/16 153/162/16 154/163/136
f 137/145/16 154/163/136 138/146/122
f 138/146/122 154/163/136 155/164/137
f 138/146/122 155/164/137 139/147/123
f 139/147/123 155/164/137 156/165/138
f 139/147/123 156/165/138 140/148/124
f 140/148/124 156/165/138 157/166/139
f 140/148/124 157/166/139 141/149/125
f 141/149/125 157/166/139 158/167/140
f 141/149/125 158/167/140 142/150/126
f 142/150/126 158/167/140 159/168/141
f 142/150/126 159/168/141 143/151/127
f 143/151/127 159/168/141 160/169/142
f 143/151/127 160/169/142 144/152/128
f 144/152/128 160/169/142 145/170/1
f 144/152/128 145/170/1 129/153/1
f 145/154/1 161/171/1 162/172/143
f 145/154/1 162/172/143 146/155/129
f 146/155/129 162/172/143 163/173/144
f 146/155/129 163/173/144 147/156/130
f 147/156/130 163/173/144 164/174/145
f 147/156/130 164/174/145 148/157/131
f 148/157/131 164/174/145 165/175/146
f 148/157/131 165/175/146 149/158/132
f 149/158/132 165/175/146 166/176/147
f 149/158/132 166/176/147 150/159/133
f 150/159/133 166/176/147 167/177/148
f 150/159/133 167/177/148 151/160/134
f 151/160/134 167/177/148 168/178/149
f 151/160/134 168/178/149 152/161/135
f 152/161/135 168/178/149 169/179/16
f 152/161/135 169/179/16 153/162/16
f 153/162/16 169/179/16 170/180/150
f 153/162/16 170/180/150 154/163/136
f 154/163/136 170/180/150 171/181/151
f 154/163/136 171/181/151 155/164/137
f 155/164/137 171/181/151 172/182/152
f 155/164/137 172/182/152 156/165/138
f 156/165/138 172/182/152 173/183/153
f 156/165/138 173/183/153 157/166/139
f 157/166/139 173/183/153 174/184/154
f 157/166/139 174/184/154 158/167/140
f 158/167/140 174/184/154 175/185/155
f 158/167/140 175/185/155 159/168/141
f 159/168/141 175/185/155 176/186/156
f 159/168/141 176/186/156 160/169/142
f 160/169/142 176/186/156 161/187/1
f 160/169/142 161/187/1 145/170/1
f 161/171/1 177/188/1 178/189/157
f 161/171/1 178/189/157 162/172/143
f 162/172/143 178/189/157 179/190/158
f 162/172/143 179/190/158 163/173/144
f 163/173/144 179/190/158 180/191/159
f 163/173/144 180/191/159 164/174/145
f 164/174/145 180/191/159 181/192/160
f 164/174/145 181/192/160 165/175/146
f 165/175/146 181/192/160 182/193/161
f 165/175/146 182/193/161 166/176/147
f 166/176/147 182/193/161 183/194/162
f 166/176/147 183/194/162 167/177/148
f 167/177/148 183/194/162 184/195/163
f 167/177/148 184/195/163 168/178/149
f 168/178/149 184/195/163 185/196/16
f 168/178/149 185/196/16 169/179/16
f 169/179/16 185/196/16 186/197/164
f 169/179/16 186/197/164 170/180/150
f 170/180/150 186/197/164 187/198/165
f 170/180/150 187/198/165 171/181/151
f 171/181/151 187/198/165 188/199/166
f 171/181/151 188/199/166 172/182/152
f 172/182/152 188/199/166 189/200/167
f 172/182/152 189/200/167 173/183/153
f 173/183/153 189/200/167 190/201/168
f 173/183/153 190/201/168 174/184/154
f 174/184/154 190/201/168 191/202/169
f 174/184/154 191/202/169 175/185/155
f 175/185/155 191/202/169 192/203/170
f 175/185/155 192/203/170 176/186/156
f 176/186/156 192/203/170 177/204/1
f 176/186/156 177/204/1 161/187/1
