# Procedurally generated by dev-env-utils/scripts/gen_mast_arm_curves.py
# mount hardware on cell 0, model-space west
mtllib mastarmcurve.mtl
o mastarm_8x2_c0_west
v 0.500000 0.326697 0.523347
v 0.500000 0.407106 0.353964
v 0.639905 0.432246 0.365898
v 0.639905 0.351837 0.535281
v 0.758511 0.503838 0.399884
v 0.758511 0.423430 0.569267
v 0.837761 0.610984 0.450748
v 0.837761 0.530575 0.620131
v 0.865589 0.737371 0.510745
v 0.865589 0.656962 0.680129
v 0.837761 0.863758 0.570743
v 0.837761 0.783349 0.740126
v 0.758511 0.970904 0.621607
v 0.758511 0.890495 0.790990
v 0.639905 1.042496 0.655593
v 0.639905 0.962088 0.824976
v 0.500000 1.067636 0.667527
v 0.500000 0.987228 0.836910
v 0.360095 1.042496 0.655593
v 0.360095 0.962088 0.824976
v 0.241489 0.970904 0.621607
v 0.241489 0.890495 0.790990
v 0.162239 0.863758 0.570743
v 0.162239 0.783349 0.740126
v 0.134411 0.737371 0.510745
v 0.134411 0.656962 0.680129
v 0.162239 0.610984 0.450748
v 0.162239 0.530575 0.620131
v 0.241489 0.503838 0.399884
v 0.241489 0.423430 0.569267
v 0.360095 0.432246 0.365898
v 0.360095 0.351837 0.535281
v 0.500000 0.656962 0.680129
v 0.500000 0.737371 0.510745
v 0.075000 0.700000 0.500000
v 0.000625 0.700000 0.500000
v 0.000625 0.641421 0.641421
v 0.075000 0.641421 0.641421
v 0.000625 0.500000 0.700000
v 0.075000 0.500000 0.700000
v 0.000625 0.358579 0.641421
v 0.075000 0.358579 0.641421
v 0.000625 0.300000 0.500000
v 0.075000 0.300000 0.500000
v 0.000625 0.358579 0.358579
v 0.075000 0.358579 0.358579
v 0.000625 0.500000 0.300000
v 0.075000 0.500000 0.300000
v 0.000625 0.641421 0.358579
v 0.075000 0.641421 0.358579
v 0.075000 0.500000 0.500000
v 0.000625 0.500000 0.500000
v 0.201990 0.686143 0.547911
v 0.025983 0.587163 0.500000
v 0.022489 0.569827 0.548649
v 0.198496 0.668808 0.596560
v 0.033065 0.533781 0.584263
v 0.209073 0.632762 0.632174
v 0.054878 0.488684 0.597299
v 0.230885 0.587665 0.645210
v 0.082083 0.446619 0.584263
v 0.258090 0.545599 0.632174
v 0.107389 0.418857 0.548649
v 0.283397 0.517838 0.596560
v 0.124017 0.412837 0.500000
v 0.300025 0.511818 0.547911
v 0.127511 0.430173 0.451351
v 0.303518 0.529154 0.499261
v 0.116935 0.466219 0.415737
v 0.292942 0.565199 0.463648
v 0.095122 0.511316 0.402701
v 0.271129 0.610296 0.450612
v 0.067917 0.553381 0.415737
v 0.243925 0.652362 0.463648
v 0.042611 0.581143 0.451351
v 0.218618 0.680124 0.499261
v 0.251007 0.598981 0.547911
vt 0.250000 0.750000
vt 0.250000 0.567205
vt 0.281250 0.567205
vt 0.281250 0.750000
vt 0.312500 0.567205
vt 0.312500 0.750000
vt 0.343750 0.567205
vt 0.343750 0.750000
vt 0.375000 0.567205
vt 0.375000 0.750000
vt 0.406250 0.567205
vt 0.406250 0.750000
vt 0.437500 0.567205
vt 0.437500 0.750000
vt 0.468750 0.567205
vt 0.468750 0.750000
vt 0.500000 0.567205
vt 0.500000 0.750000
vt 0.531250 0.567205
vt 0.531250 0.750000
vt 0.562500 0.567205
vt 0.562500 0.750000
vt 0.593750 0.567205
vt 0.593750 0.750000
vt 0.625000 0.567205
vt 0.625000 0.750000
vt 0.656250 0.567205
vt 0.656250 0.750000
vt 0.687500 0.567205
vt 0.687500 0.750000
vt 0.718750 0.567205
vt 0.718750 0.750000
vt 0.750000 0.567205
vt 0.750000 0.750000
vt 0.500000 0.500000
vt 0.400000 0.600000
vt 0.600000 0.400000
vt 0.250000 0.650000
vt 0.312500 0.650000
vt 0.375000 0.650000
vt 0.437500 0.650000
vt 0.500000 0.650000
vt 0.562500 0.650000
vt 0.625000 0.650000
vt 0.687500 0.650000
vt 0.750000 0.650000
vt 0.250000 0.700000
vt 0.291667 0.700000
vt 0.291667 0.750000
vt 0.333333 0.700000
vt 0.333333 0.750000
vt 0.375000 0.700000
vt 0.416667 0.700000
vt 0.416667 0.750000
vt 0.458333 0.700000
vt 0.458333 0.750000
vt 0.500000 0.700000
vt 0.541667 0.700000
vt 0.541667 0.750000
vt 0.583333 0.700000
vt 0.583333 0.750000
vt 0.625000 0.700000
vt 0.666667 0.700000
vt 0.666667 0.750000
vt 0.708333 0.700000
vt 0.708333 0.750000
vt 0.750000 0.700000
vn 0.000000 -0.903377 -0.428847
vn 0.382683 -0.834612 -0.396203
vn 0.707107 -0.638784 -0.303240
vn 0.923880 -0.345708 -0.164112
vn 1.000000 -0.000000 -0.000000
vn 0.923880 0.345708 0.164112
vn 0.707107 0.638784 0.303240
vn 0.382683 0.834612 0.396203
vn 0.000000 0.903377 0.428847
vn -0.382683 0.834612 0.396203
vn -0.707107 0.638784 0.303240
vn -0.923880 0.345708 0.164112
vn -1.000000 0.000000 0.000000
vn -0.923880 -0.345708 -0.164112
vn -0.707107 -0.638784 -0.303240
vn -0.382683 -0.834612 -0.396203
vn -0.000000 -0.428847 0.903377
vn 0.000000 0.428847 -0.903377
vn 0.000000 1.000000 0.000000
vn 0.000000 0.707107 0.707107
vn 0.000000 0.000000 1.000000
vn 0.000000 -0.707107 0.707107
vn 0.000000 -1.000000 0.000000
vn -0.000000 -0.707107 -0.707107
vn -0.000000 -0.000000 -1.000000
vn 0.000000 0.707107 -0.707107
vn -0.490173 0.871625 0.000000
vn -0.525112 0.698270 0.486494
vn -0.419348 0.337814 0.842632
vn -0.201219 -0.113159 0.972988
vn 0.070825 -0.533811 0.842632
vn 0.323892 -0.811429 0.486494
vn 0.490173 -0.871625 0.000000
vn 0.525112 -0.698270 -0.486494
vn 0.419348 -0.337814 -0.842632
vn 0.201219 0.113159 -0.972988
vn -0.070825 0.533811 -0.842632
vn -0.323892 0.811429 -0.486494
vn 0.848081 0.476932 0.230855
vn -0.848081 -0.476932 -0.230855
usemtl body
f 1/1/1 2/2/1 3/3/2
f 1/1/1 3/3/2 4/4/2
f 4/4/2 3/3/2 5/5/3
f 4/4/2 5/5/3 6/6/3
f 6/6/3 5/5/3 7/7/4
f 6/6/3 7/7/4 8/8/4
f 8/8/4 7/7/4 9/9/5
f 8/8/4 9/9/5 10/10/5
f 10/10/5 9/9/5 11/11/6
f 10/10/5 11/11/6 12/12/6
f 12/12/6 11/11/6 13/13/7
f 12/12/6 13/13/7 14/14/7
f 14/14/7 13/13/7 15/15/8
f 14/14/7 15/15/8 16/16/8
f 16/16/8 15/15/8 17/17/9
f 16/16/8 17/17/9 18/18/9
f 18/18/9 17/17/9 19/19/10
f 18/18/9 19/19/10 20/20/10
f 20/20/10 19/19/10 21/21/11
f 20/20/10 21/21/11 22/22/11
f 22/22/11 21/21/11 23/23/12
f 22/22/11 23/23/12 24/24/12
f 24/24/12 23/23/12 25/25/13
f 24/24/12 25/25/13 26/26/13
f 26/26/13 25/25/13 27/27/14
f 26/26/13 27/27/14 28/28/14
f 28/28/14 27/27/14 29/29/15
f 28/28/14 29/29/15 30/30/15
f 30/30/15 29/29/15 31/31/16
f 30/30/15 31/31/16 32/32/16
f 32/32/16 31/31/16 2/33/1
f 32/32/16 2/33/1 1/34/1
f 33/35/17 1/36/17 4/37/17
f 33/35/17 4/36/17 6/37/17
f 33/35/17 6/36/17 8/37/17
f 33/35/17 8/36/17 10/37/17
f 33/35/17 10/36/17 12/37/17
f 33/35/17 12/36/17 14/37/17
f 33/35/17 14/36/17 16/37/17
f 33/35/17 16/36/17 18/37/17
f 33/35/17 18/36/17 20/37/17
f 33/35/17 20/36/17 22/37/17
f 33/35/17 22/36/17 24/37/17
f 33/35/17 24/36/17 26/37/17
f 33/35/17 26/36/17 28/37/17
f 33/35/17 28/36/17 30/37/17
f 33/35/17 30/36/17 32/37/17
f 33/35/17 32/36/17 1/37/17
f 34/35/18 3/37/18 2/36/18
f 34/35/18 5/37/18 3/36/18
f 34/35/18 7/37/18 5/36/18
f 34/35/18 9/37/18 7/36/18
f 34/35/18 11/37/18 9/36/18
f 34/35/18 13/37/18 11/36/18
f 34/35/18 15/37/18 13/36/18
f 34/35/18 17/37/18 15/36/18
f 34/35/18 19/37/18 17/36/18
f 34/35/18 21/37/18 19/36/18
f 34/35/18 23/37/18 21/36/18
f 34/35/18 25/37/18 23/36/18
f 34/35/18 27/37/18 25/36/18
f 34/35/18 29/37/18 27/36/18
f 34/35/18 31/37/18 29/36/18
f 34/35/18 2/37/18 31/36/18
f 35/1/19 36/38/19 37/39/20
f 35/1/19 37/39/20 38/6/20
f 38/6/20 37/39/20 39/40/21
f 38/6/20 39/40/21 40/10/21
f 40/10/21 39/40/21 41/41/22
f 40/10/21 41/41/22 42/14/22
f 42/14/22 41/41/22 43/42/23
f 42/14/22 43/42/23 44/18/23
f 44/18/23 43/42/23 45/43/24
f 44/18/23 45/43/24 46/22/24
f 46/22/24 45/43/24 47/44/25
f 46/22/24 47/44/25 48/26/25
f 48/26/25 47/44/25 49/45/26
f 48/26/25 49/45/26 50/30/26
f 50/30/26 49/45/26 36/46/19
f 50/30/26 36/46/19 35/34/19
f 51/35/5 35/36/5 38/37/5
f 51/35/5 38/36/5 40/37/5
f 51/35/5 40/36/5 42/37/5
f 51/35/5 42/36/5 44/37/5
f 51/35/5 44/36/5 46/37/5
f 51/35/5 46/36/5 48/37/5
f 51/35/5 48/36/5 50/37/5
f 51/35/5 50/36/5 35/37/5
f 52/35/13 37/37/13 36/36/13
f 52/35/13 39/37/13 37/36/13
f 52/35/13 41/37/13 39/36/13
f 52/35/13 43/37/13 41/36/13
f 52/35/13 45/37/13 43/36/13
f 52/35/13 47/37/13 45/36/13
f 52/35/13 49/37/13 47/36/13
f 52/35/13 36/37/13 49/36/13
f 53/1/27 54/47/27 55/48/28
f 53/1/27 55/48/28 56/49/28
f 56/49/28 55/48/28 57/50/29
f 56/49/28 57/50/29 58/51/29
f 58/51/29 57/50/29 59/52/30
f 58/51/29 59/52/30 60/10/30
f 60/10/30 59/52/30 61/53/31
f 60/10/30 61/53/31 62/54/31
f 62/54/31 61/53/31 63/55/32
f 62/54/31 63/55/32 64/56/32
f 64/56/32 63/55/32 65/57/33
f 64/56/32 65/57/33 66/18/33
f 66/18/33 65/57/33 67/58/34
f 66/18/33 67/58/34 68/59/34
f 68/59/34 67/58/34 69/60/35
f 68/59/34 69/60/35 70/61/35
f 70/61/35 69/60/35 71/62/36
f 70/61/35 71/62/36 72/26/36
f 72/26/36 71/62/36 73/63/37
f 72/26/36 73/63/37 74/64/37
f 74/64/37 73/63/37 75/65/38
f 74/64/37 75/65/38 76/66/38
f 76/66/38 75/65/38 54/67/27
f 76/66/38 54/67/27 53/34/27
f 77/35/39 53/36/39 56/37/39
f 77/35/39 56/36/39 58/37/39
f 77/35/39 58/36/39 60/37/39
f 77/35/39 60/36/39 62/37/39
f 77/35/39 62/36/39 64/37/39
f 77/35/39 64/36/39 66/37/39
f 77/35/39 66/36/39 68/37/39
f 77/35/39 68/36/39 70/37/39
f 77/35/39 70/36/39 72/37/39
f 77/35/39 72/36/39 74/37/39
f 77/35/39 74/36/39 76/37/39
f 77/35/39 76/36/39 53/37/39
f 51/35/40 55/37/40 54/36/40
f 51/35/40 57/37/40 55/36/40
f 51/35/40 59/37/40 57/36/40
f 51/35/40 61/37/40 59/36/40
f 51/35/40 63/37/40 61/36/40
f 51/35/40 65/37/40 63/36/40
f 51/35/40 67/37/40 65/36/40
f 51/35/40 69/37/40 67/36/40
f 51/35/40 71/37/40 69/36/40
f 51/35/40 73/37/40 71/36/40
f 51/35/40 75/37/40 73/36/40
f 51/35/40 54/37/40 75/36/40
