# Procedurally generated by dev-env-utils/scripts/gen_mast_arm_curves.py
# mount hardware on cell 2, model-space west
mtllib mastarmcurve.mtl
o mastarm_4x1_c2_west
v 0.500000 -0.214560 0.386054
v 0.500000 -0.160789 0.206429
v 0.631516 -0.135728 0.213931
v 0.631516 -0.189499 0.393556
v 0.743010 -0.064359 0.235295
v 0.743010 -0.118130 0.414920
v 0.817508 0.042452 0.267269
v 0.817508 -0.011318 0.446894
v 0.843669 0.168444 0.304985
v 0.843669 0.114674 0.484610
v 0.817508 0.294437 0.342701
v 0.817508 0.240666 0.522325
v 0.743010 0.401248 0.374675
v 0.743010 0.347477 0.554299
v 0.631516 0.472617 0.396039
v 0.631516 0.418846 0.575663
v 0.500000 0.497678 0.403541
v 0.500000 0.443908 0.583166
v 0.368484 0.472617 0.396039
v 0.368484 0.418846 0.575663
v 0.256990 0.401248 0.374675
v 0.256990 0.347477 0.554299
v 0.182492 0.294437 0.342701
v 0.182492 0.240666 0.522325
v 0.156331 0.168444 0.304985
v 0.156331 0.114674 0.484610
v 0.182492 0.042452 0.267269
v 0.182492 -0.011318 0.446894
v 0.256990 -0.064359 0.235295
v 0.256990 -0.118130 0.414920
v 0.368484 -0.135728 0.213931
v 0.368484 -0.189499 0.393556
v 0.500000 0.114674 0.484610
v 0.500000 0.168444 0.304985
v 0.075000 0.700000 0.500000
v 0.000625 0.700000 0.500000
v 0.000625 0.641421 0.641421
v 0.075000 0.641421 0.641421
v 0.000625 0.500000 0.700000
v 0.075000 0.500000 0.700000
v 0.000625 0.358579 0.641421
v 0.075000 0.358579 0.641421
v 0.000625 0.300000 0.500000
v 0.075000 0.300000 0.500000
v 0.000625 0.358579 0.358579
v 0.075000 0.358579 0.358579
v 0.000625 0.500000 0.300000
v 0.075000 0.500000 0.300000
v 0.000625 0.641421 0.358579
v 0.075000 0.641421 0.358579
v 0.075000 0.500000 0.500000
v 0.000625 0.500000 0.500000
v 0.368894 0.357368 0.436923
v 0.144105 0.572281 0.500000
v 0.142031 0.555729 0.549002
v 0.366819 0.340816 0.485925
v 0.121995 0.524244 0.584874
v 0.346784 0.309331 0.521797
v 0.089368 0.486264 0.598004
v 0.314156 0.271350 0.534927
v 0.052890 0.451964 0.584874
v 0.277679 0.237051 0.521797
v 0.022337 0.430535 0.549002
v 0.247126 0.215622 0.485925
v 0.005895 0.427719 0.500000
v 0.230684 0.212806 0.436923
v 0.007969 0.444271 0.450998
v 0.232758 0.229358 0.387921
v 0.028005 0.475756 0.415126
v 0.252793 0.260843 0.352048
v 0.060632 0.513736 0.401996
v 0.285421 0.298823 0.338918
v 0.097110 0.548036 0.415126
v 0.321898 0.333123 0.352048
v 0.127663 0.569465 0.450998
v 0.352452 0.354552 0.387921
v 0.299789 0.285087 0.436923
vt 0.250000 0.750000
vt 0.250000 0.578166
vt 0.281250 0.578166
vt 0.281250 0.750000
vt 0.312500 0.578166
vt 0.312500 0.750000
vt 0.343750 0.578166
vt 0.343750 0.750000
vt 0.375000 0.578166
vt 0.375000 0.750000
vt 0.406250 0.578166
vt 0.406250 0.750000
vt 0.437500 0.578166
vt 0.437500 0.750000
vt 0.468750 0.578166
vt 0.468750 0.750000
vt 0.500000 0.578166
vt 0.500000 0.750000
vt 0.531250 0.578166
vt 0.531250 0.750000
vt 0.562500 0.578166
vt 0.562500 0.750000
vt 0.593750 0.578166
vt 0.593750 0.750000
vt 0.625000 0.578166
vt 0.625000 0.750000
vt 0.656250 0.578166
vt 0.656250 0.750000
vt 0.687500 0.578166
vt 0.687500 0.750000
vt 0.718750 0.578166
vt 0.718750 0.750000
vt 0.750000 0.578166
vt 0.750000 0.750000
vt 0.500000 0.500000
vt 0.400000 0.600000
vt 0.600000 0.400000
vt 0.250000 0.650000
vt 0.312500 0.650000
vt 0.375000 0.650000
vt 0.437500 0.650000
vt 0.500000 0.650000
vt 0.562500 0.650000
vt 0.625000 0.650000
vt 0.687500 0.650000
vt 0.750000 0.650000
vt 0.250000 0.700000
vt 0.291667 0.700000
vt 0.291667 0.750000
vt 0.333333 0.700000
vt 0.333333 0.750000
vt 0.375000 0.700000
vt 0.416667 0.700000
vt 0.416667 0.750000
vt 0.458333 0.700000
vt 0.458333 0.750000
vt 0.500000 0.700000
vt 0.541667 0.700000
vt 0.541667 0.750000
vt 0.583333 0.700000
vt 0.583333 0.750000
vt 0.625000 0.700000
vt 0.666667 0.700000
vt 0.666667 0.750000
vt 0.708333 0.700000
vt 0.708333 0.750000
vt 0.750000 0.700000
vn 0.000000 -0.957998 -0.286776
vn 0.382683 -0.885074 -0.264947
vn 0.707107 -0.677407 -0.202781
vn 0.923880 -0.366610 -0.109745
vn 1.000000 -0.000000 -0.000000
vn 0.923880 0.366610 0.109745
vn 0.707107 0.677407 0.202781
vn 0.382683 0.885074 0.264947
vn 0.000000 0.957998 0.286776
vn -0.382683 0.885074 0.264947
vn -0.707107 0.677407 0.202781
vn -0.923880 0.366610 0.109745
vn -1.000000 0.000000 0.000000
vn -0.923880 -0.366610 -0.109745
vn -0.707107 -0.677407 -0.202781
vn -0.382683 -0.885074 -0.264947
vn -0.000000 -0.286776 0.957998
vn 0.000000 0.286776 -0.957998
vn 0.000000 1.000000 0.000000
vn 0.000000 0.707107 0.707107
vn 0.000000 0.000000 1.000000
vn 0.000000 -0.707107 0.707107
vn 0.000000 -1.000000 0.000000
vn -0.000000 -0.707107 -0.707107
vn -0.000000 -0.000000 -1.000000
vn 0.000000 0.707107 -0.707107
vn 0.691051 0.722806 0.000000
vn 0.670306 0.557286 0.490022
vn 0.469953 0.242442 0.848744
vn 0.143677 -0.137365 0.980045
vn -0.221098 -0.480364 0.848744
vn -0.526629 -0.694651 0.490022
vn -0.691051 -0.722806 0.000000
vn -0.670306 -0.557286 -0.490022
vn -0.469953 -0.242442 -0.848744
vn -0.143677 0.137365 -0.980045
vn 0.221098 0.480364 -0.848744
vn 0.526629 0.694651 -0.490022
vn 0.708382 -0.677261 -0.198777
vn -0.708382 0.677261 0.198777
usemtl body
f 1/1/1 2/2/1 3/3/2
f 1/1/1 3/3/2 4/4/2
f 4/4/2 3/3/2 5/5/3
f 4/4/2 5/5/3 6/6/3
f 6/6/3 5/5/3 7/7/4
f 6/6/3 7/7/4 8/8/4
f 8/8/4 7/7/4 9/9/5
f 8/8/4 9/9/5 10/10/5
f 10/10/5 9/9/5 11/11/6
f 10/10/5 11/11/6 12/12/6
f 12/12/6 11/11/6 13/13/7
f 12/12/6 13/13/7 14/14/7
f 14/14/7 13/13/7 15/15/8
f 14/14/7 15/15/8 16/16/8
f 16/16/8 15/15/8 17/17/9
f 16/16/8 17/17/9 18/18/9
f 18/18/9 17/17/9 19/19/10
f 18/18/9 19/19/10 20/20/10
f 20/20/10 19/19/10 21/21/11
f 20/20/10 21/21/11 22/22/11
f 22/22/11 21/21/11 23/23/12
f 22/22/11 23/23/12 24/24/12
f 24/24/12 23/23/12 25/25/13
f 24/24/12 25/25/13 26/26/13
f 26/26/13 25/25/13 27/27/14
f 26/26/13 27/27/14 28/28/14
f 28/28/14 27/27/14 29/29/15
f 28/28/14 29/29/15 30/30/15
f 30/30/15 29/29/15 31/31/16
f 30/30/15 31/31/16 32/32/16
f 32/32/16 31/31/16 2/33/1
f 32/32/16 2/33/1 1/34/1
f 33/35/17 1/36/17 4/37/17
f 33/35/17 4/36/17 6/37/17
f 33/35/17 6/36/17 8/37/17
f 33/35/17 8/36/17 10/37/17
f 33/35/17 10/36/17 12/37/17
f 33/35/17 12/36/17 14/37/17
f 33/35/17 14/36/17 16/37/17
f 33/35/17 16/36/17 18/37/17
f 33/35/17 18/36/17 20/37/17
f 33/35/17 20/36/17 22/37/17
f 33/35/17 22/36/17 24/37/17
f 33/35/17 24/36/17 26/37/17
f 33/35/17 26/36/17 28/37/17
f 33/35/17 28/36/17 30/37/17
f 33/35/17 30/36/17 32/37/17
f 33/35/17 32/36/17 1/37/17
f 34/35/18 3/37/18 2/36/18
f 34/35/18 5/37/18 3/36/18
f 34/35/18 7/37/18 5/36/18
f 34/35/18 9/37/18 7/36/18
f 34/35/18 11/37/18 9/36/18
f 34/35/18 13/37/18 11/36/18
f 34/35/18 15/37/18 13/36/18
f 34/35/18 17/37/18 15/36/18
f 34/35/18 19/37/18 17/36/18
f 34/35/18 21/37/18 19/36/18
f 34/35/18 23/37/18 21/36/18
f 34/35/18 25/37/18 23/36/18
f 34/35/18 27/37/18 25/36/18
f 34/35/18 29/37/18 27/36/18
f 34/35/18 31/37/18 29/36/18
f 34/35/18 2/37/18 31/36/18
f 35/1/19 36/38/19 37/39/20
f 35/1/19 37/39/20 38/6/20
f 38/6/20 37/39/20 39/40/21
f 38/6/20 39/40/21 40/10/21
f 40/10/21 39/40/21 41/41/22
f 40/10/21 41/41/22 42/14/22
f 42/14/22 41/41/22 43/42/23
f 42/14/22 43/42/23 44/18/23
f 44/18/23 43/42/23 45/43/24
f 44/18/23 45/43/24 46/22/24
f 46/22/24 45/43/24 47/44/25
f 46/22/24 47/44/25 48/26/25
f 48/26/25 47/44/25 49/45/26
f 48/26/25 49/45/26 50/30/26
f 50/30/26 49/45/26 36/46/19
f 50/30/26 36/46/19 35/34/19
f 51/35/5 35/36/5 38/37/5
f 51/35/5 38/36/5 40/37/5
f 51/35/5 40/36/5 42/37/5
f 51/35/5 42/36/5 44/37/5
f 51/35/5 44/36/5 46/37/5
f 51/35/5 46/36/5 48/37/5
f 51/35/5 48/36/5 50/37/5
f 51/35/5 50/36/5 35/37/5
f 52/35/13 37/37/13 36/36/13
f 52/35/13 39/37/13 37/36/13
f 52/35/13 41/37/13 39/36/13
f 52/35/13 43/37/13 41/36/13
f 52/35/13 45/37/13 43/36/13
f 52/35/13 47/37/13 45/36/13
f 52/35/13 49/37/13 47/36/13
f 52/35/13 36/37/13 49/36/13
f 53/1/27 54/47/27 55/48/28
f 53/1/27 55/48/28 56/49/28
f 56/49/28 55/48/28 57/50/29
f 56/49/28 57/50/29 58/51/29
f 58/51/29 57/50/29 59/52/30
f 58/51/29 59/52/30 60/10/30
f 60/10/30 59/52/30 61/53/31
f 60/10/30 61/53/31 62/54/31
f 62/54/31 61/53/31 63/55/32
f 62/54/31 63/55/32 64/56/32
f 64/56/32 63/55/32 65/57/33
f 64/56/32 65/57/33 66/18/33
f 66/18/33 65/57/33 67/58/34
f 66/18/33 67/58/34 68/59/34
f 68/59/34 67/58/34 69/60/35
f 68/59/34 69/60/35 70/61/35
f 70/61/35 69/60/35 71/62/36
f 70/61/35 71/62/36 72/26/36
f 72/26/36 71/62/36 73/63/37
f 72/26/36 73/63/37 74/64/37
f 74/64/37 73/63/37 75/65/38
f 74/64/37 75/65/38 76/66/38
f 76/66/38 75/65/38 54/67/27
f 76/66/38 54/67/27 53/34/27
f 77/35/39 53/36/39 56/37/39
f 77/35/39 56/36/39 58/37/39
f 77/35/39 58/36/39 60/37/39
f 77/35/39 60/36/39 62/37/39
f 77/35/39 62/36/39 64/37/39
f 77/35/39 64/36/39 66/37/39
f 77/35/39 66/36/39 68/37/39
f 77/35/39 68/36/39 70/37/39
f 77/35/39 70/36/39 72/37/39
f 77/35/39 72/36/39 74/37/39
f 77/35/39 74/36/39 76/37/39
f 77/35/39 76/36/39 53/37/39
f 51/35/40 55/37/40 54/36/40
f 51/35/40 57/37/40 55/36/40
f 51/35/40 59/37/40 57/36/40
f 51/35/40 61/37/40 59/36/40
f 51/35/40 63/37/40 61/36/40
f 51/35/40 65/37/40 63/36/40
f 51/35/40 67/37/40 65/36/40
f 51/35/40 69/37/40 67/36/40
f 51/35/40 71/37/40 69/36/40
f 51/35/40 73/37/40 71/36/40
f 51/35/40 75/37/40 73/36/40
f 51/35/40 54/37/40 75/36/40
