# Procedurally generated by dev-env-utils/scripts/gen_mast_arm_curves.py
# mount hardware on cell 3, model-space west
mtllib mastarmcurve.mtl
o mastarm_5x1_c3_west
v 0.500000 -0.077339 0.482600
v 0.500000 -0.041230 0.298610
v 0.624238 -0.016981 0.303369
v 0.624238 -0.053089 0.487360
v 0.729561 0.052077 0.316922
v 0.729561 0.015969 0.500912
v 0.799936 0.155429 0.337205
v 0.799936 0.119321 0.521195
v 0.824648 0.277341 0.361130
v 0.824648 0.241233 0.545120
v 0.799936 0.399253 0.385055
v 0.799936 0.363145 0.569045
v 0.729561 0.502605 0.405338
v 0.729561 0.466497 0.589328
v 0.624238 0.571663 0.418890
v 0.624238 0.535555 0.602881
v 0.500000 0.595913 0.423650
v 0.500000 0.559805 0.607640
v 0.375762 0.571663 0.418890
v 0.375762 0.535555 0.602881
v 0.270439 0.502605 0.405338
v 0.270439 0.466497 0.589328
v 0.200064 0.399253 0.385055
v 0.200064 0.363145 0.569045
v 0.175352 0.277341 0.361130
v 0.175352 0.241233 0.545120
v 0.200064 0.155429 0.337205
v 0.200064 0.119321 0.521195
v 0.270439 0.052077 0.316922
v 0.270439 0.015969 0.500912
v 0.375762 -0.016981 0.303369
v 0.375762 -0.053089 0.487360
v 0.500000 0.241233 0.545120
v 0.500000 0.277341 0.361130
v 0.075000 0.700000 0.500000
v 0.000625 0.700000 0.500000
v 0.000625 0.641421 0.641421
v 0.075000 0.641421 0.641421
v 0.000625 0.500000 0.700000
v 0.075000 0.500000 0.700000
v 0.000625 0.358579 0.641421
v 0.075000 0.358579 0.641421
v 0.000625 0.300000 0.500000
v 0.075000 0.300000 0.500000
v 0.000625 0.358579 0.358579
v 0.075000 0.358579 0.358579
v 0.000625 0.500000 0.300000
v 0.075000 0.500000 0.300000
v 0.000625 0.641421 0.358579
v 0.075000 0.641421 0.358579
v 0.075000 0.500000 0.500000
v 0.000625 0.500000 0.500000
v 0.347032 0.443038 0.472560
v 0.129339 0.583948 0.500000
v 0.126475 0.569842 0.549722
v 0.344169 0.428932 0.522282
v 0.109820 0.537022 0.586122
v 0.327513 0.396112 0.558682
v 0.083834 0.494282 0.599445
v 0.301528 0.353372 0.572005
v 0.055481 0.453074 0.586122
v 0.273175 0.312164 0.558682
v 0.032358 0.424440 0.549722
v 0.250052 0.283529 0.522282
v 0.020661 0.416052 0.500000
v 0.238355 0.275141 0.472560
v 0.023525 0.430158 0.450278
v 0.241218 0.289247 0.422838
v 0.040180 0.462978 0.413878
v 0.257874 0.322067 0.386438
v 0.066166 0.505718 0.400555
v 0.283860 0.364808 0.373115
v 0.094519 0.546926 0.413878
v 0.312213 0.406016 0.386438
v 0.117642 0.575560 0.450278
v 0.335336 0.434650 0.422838
v 0.292694 0.359090 0.472560
vt 0.250000 0.750000
vt 0.250000 0.587676
vt 0.281250 0.587676
vt 0.281250 0.750000
vt 0.312500 0.587676
vt 0.312500 0.750000
vt 0.343750 0.587676
vt 0.343750 0.750000
vt 0.375000 0.587676
vt 0.375000 0.750000
vt 0.406250 0.587676
vt 0.406250 0.750000
vt 0.437500 0.587676
vt 0.437500 0.750000
vt 0.468750 0.587676
vt 0.468750 0.750000
vt 0.500000 0.587676
vt 0.500000 0.750000
vt 0.531250 0.587676
vt 0.531250 0.750000
vt 0.562500 0.587676
vt 0.562500 0.750000
vt 0.593750 0.587676
vt 0.593750 0.750000
vt 0.625000 0.587676
vt 0.625000 0.750000
vt 0.656250 0.587676
vt 0.656250 0.750000
vt 0.687500 0.587676
vt 0.687500 0.750000
vt 0.718750 0.587676
vt 0.718750 0.750000
vt 0.750000 0.587676
vt 0.750000 0.750000
vt 0.500000 0.500000
vt 0.400000 0.600000
vt 0.600000 0.400000
vt 0.250000 0.650000
vt 0.312500 0.650000
vt 0.375000 0.650000
vt 0.437500 0.650000
vt 0.500000 0.650000
vt 0.562500 0.650000
vt 0.625000 0.650000
vt 0.687500 0.650000
vt 0.750000 0.650000
vt 0.250000 0.700000
vt 0.291667 0.700000
vt 0.291667 0.750000
vt 0.333333 0.700000
vt 0.333333 0.750000
vt 0.375000 0.700000
vt 0.416667 0.700000
vt 0.416667 0.750000
vt 0.458333 0.700000
vt 0.458333 0.750000
vt 0.500000 0.700000
vt 0.541667 0.700000
vt 0.541667 0.750000
vt 0.583333 0.700000
vt 0.583333 0.750000
vt 0.625000 0.700000
vt 0.666667 0.700000
vt 0.666667 0.750000
vt 0.708333 0.700000
vt 0.708333 0.750000
vt 0.750000 0.700000
vn 0.000000 -0.981282 -0.192577
vn 0.382683 -0.906586 -0.177918
vn 0.707107 -0.693871 -0.136172
vn 0.923880 -0.375520 -0.073696
vn 1.000000 -0.000000 -0.000000
vn 0.923880 0.375520 0.073696
vn 0.707107 0.693871 0.136172
vn 0.382683 0.906586 0.177918
vn 0.000000 0.981282 0.192577
vn -0.382683 0.906586 0.177918
vn -0.707107 0.693871 0.136172
vn -0.923880 0.375520 0.073696
vn -1.000000 0.000000 0.000000
vn -0.923880 -0.375520 -0.073696
vn -0.707107 -0.693871 -0.136172
vn -0.382683 -0.906586 -0.177918
vn -0.000000 -0.192577 0.981282
vn 0.000000 0.192577 -0.981282
vn 0.000000 1.000000 0.000000
vn 0.000000 0.707107 0.707107
vn 0.000000 0.000000 1.000000
vn 0.000000 -0.707107 0.707107
vn 0.000000 -1.000000 0.000000
vn -0.000000 -0.707107 -0.707107
vn -0.000000 -0.000000 -1.000000
vn 0.000000 0.707107 -0.707107
vn 0.543386 0.839483 0.000000
vn 0.514755 0.698424 0.497224
vn 0.348196 0.370222 0.861217
vn 0.088337 -0.057180 0.994448
vn -0.195191 -0.469260 0.861217
vn -0.426418 -0.755603 0.497224
vn -0.543386 -0.839483 0.000000
vn -0.514755 -0.698424 -0.497224
vn -0.348196 -0.370222 -0.861217
vn -0.088337 0.057180 -0.994448
vn 0.195191 0.469260 -0.861217
vn 0.426418 0.755603 -0.497224
vn 0.834822 -0.540369 -0.105228
vn -0.834822 0.540369 0.105228
usemtl body
f 1/1/1 2/2/1 3/3/2
f 1/1/1 3/3/2 4/4/2
f 4/4/2 3/3/2 5/5/3
f 4/4/2 5/5/3 6/6/3
f 6/6/3 5/5/3 7/7/4
f 6/6/3 7/7/4 8/8/4
f 8/8/4 7/7/4 9/9/5
f 8/8/4 9/9/5 10/10/5
f 10/10/5 9/9/5 11/11/6
f 10/10/5 11/11/6 12/12/6
f 12/12/6 11/11/6 13/13/7
f 12/12/6 13/13/7 14/14/7
f 14/14/7 13/13/7 15/15/8
f 14/14/7 15/15/8 16/16/8
f 16/16/8 15/15/8 17/17/9
f 16/16/8 17/17/9 18/18/9
f 18/18/9 17/17/9 19/19/10
f 18/18/9 19/19/10 20/20/10
f 20/20/10 19/19/10 21/21/11
f 20/20/10 21/21/11 22/22/11
f 22/22/11 21/21/11 23/23/12
f 22/22/11 23/23/12 24/24/12
f 24/24/12 23/23/12 25/25/13
f 24/24/12 25/25/13 26/26/13
f 26/26/13 25/25/13 27/27/14
f 26/26/13 27/27/14 28/28/14
f 28/28/14 27/27/14 29/29/15
f 28/28/14 29/29/15 30/30/15
f 30/30/15 29/29/15 31/31/16
f 30/30/15 31/31/16 32/32/16
f 32/32/16 31/31/16 2/33/1
f 32/32/16 2/33/1 1/34/1
f 33/35/17 1/36/17 4/37/17
f 33/35/17 4/36/17 6/37/17
f 33/35/17 6/36/17 8/37/17
f 33/35/17 8/36/17 10/37/17
f 33/35/17 10/36/17 12/37/17
f 33/35/17 12/36/17 14/37/17
f 33/35/17 14/36/17 16/37/17
f 33/35/17 16/36/17 18/37/17
f 33/35/17 18/36/17 20/37/17
f 33/35/17 20/36/17 22/37/17
f 33/35/17 22/36/17 24/37/17
f 33/35/17 24/36/17 26/37/17
f 33/35/17 26/36/17 28/37/17
f 33/35/17 28/36/17 30/37/17
f 33/35/17 30/36/17 32/37/17
f 33/35/17 32/36/17 1/37/17
f 34/35/18 3/37/18 2/36/18
f 34/35/18 5/37/18 3/36/18
f 34/35/18 7/37/18 5/36/18
f 34/35/18 9/37/18 7/36/18
f 34/35/18 11/37/18 9/36/18
f 34/35/18 13/37/18 11/36/18
f 34/35/18 15/37/18 13/36/18
f 34/35/18 17/37/18 15/36/18
f 34/35/18 19/37/18 17/36/18
f 34/35/18 21/37/18 19/36/18
f 34/35/18 23/37/18 21/36/18
f 34/35/18 25/37/18 23/36/18
f 34/35/18 27/37/18 25/36/18
f 34/35/18 29/37/18 27/36/18
f 34/35/18 31/37/18 29/36/18
f 34/35/18 2/37/18 31/36/18
f 35/1/19 36/38/19 37/39/20
f 35/1/19 37/39/20 38/6/20
f 38/6/20 37/39/20 39/40/21
f 38/6/20 39/40/21 40/10/21
f 40/10/21 39/40/21 41/41/22
f 40/10/21 41/41/22 42/14/22
f 42/14/22 41/41/22 43/42/23
f 42/14/22 43/42/23 44/18/23
f 44/18/23 43/42/23 45/43/24
f 44/18/23 45/43/24 46/22/24
f 46/22/24 45/43/24 47/44/25
f 46/22/24 47/44/25 48/26/25
f 48/26/25 47/44/25 49/45/26
f 48/26/25 49/45/26 50/30/26
f 50/30/26 49/45/26 36/46/19
f 50/30/26 36/46/19 35/34/19
f 51/35/5 35/36/5 38/37/5
f 51/35/5 38/36/5 40/37/5
f 51/35/5 40/36/5 42/37/5
f 51/35/5 42/36/5 44/37/5
f 51/35/5 44/36/5 46/37/5
f 51/35/5 46/36/5 48/37/5
f 51/35/5 48/36/5 50/37/5
f 51/35/5 50/36/5 35/37/5
f 52/35/13 37/37/13 36/36/13
f 52/35/13 39/37/13 37/36/13
f 52/35/13 41/37/13 39/36/13
f 52/35/13 43/37/13 41/36/13
f 52/35/13 45/37/13 43/36/13
f 52/35/13 47/37/13 45/36/13
f 52/35/13 49/37/13 47/36/13
f 52/35/13 36/37/13 49/36/13
f 53/1/27 54/47/27 55/48/28
f 53/1/27 55/48/28 56/49/28
f 56/49/28 55/48/28 57/50/29
f 56/49/28 57/50/29 58/51/29
f 58/51/29 57/50/29 59/52/30
f 58/51/29 59/52/30 60/10/30
f 60/10/30 59/52/30 61/53/31
f 60/10/30 61/53/31 62/54/31
f 62/54/31 61/53/31 63/55/32
f 62/54/31 63/55/32 64/56/32
f 64/56/32 63/55/32 65/57/33
f 64/56/32 65/57/33 66/18/33
f 66/18/33 65/57/33 67/58/34
f 66/18/33 67/58/34 68/59/34
f 68/59/34 67/58/34 69/60/35
f 68/59/34 69/60/35 70/61/35
f 70/61/35 69/60/35 71/62/36
f 70/61/35 71/62/36 72/26/36
f 72/26/36 71/62/36 73/63/37
f 72/26/36 73/63/37 74/64/37
f 74/64/37 73/63/37 75/65/38
f 74/64/37 75/65/38 76/66/38
f 76/66/38 75/65/38 54/67/27
f 76/66/38 54/67/27 53/34/27
f 77/35/39 53/36/39 56/37/39
f 77/35/39 56/36/39 58/37/39
f 77/35/39 58/36/39 60/37/39
f 77/35/39 60/36/39 62/37/39
f 77/35/39 62/36/39 64/37/39
f 77/35/39 64/36/39 66/37/39
f 77/35/39 66/36/39 68/37/39
f 77/35/39 68/36/39 70/37/39
f 77/35/39 70/36/39 72/37/39
f 77/35/39 72/36/39 74/37/39
f 77/35/39 74/36/39 76/37/39
f 77/35/39 76/36/39 53/37/39
f 51/35/40 55/37/40 54/36/40
f 51/35/40 57/37/40 55/36/40
f 51/35/40 59/37/40 57/36/40
f 51/35/40 61/37/40 59/36/40
f 51/35/40 63/37/40 61/36/40
f 51/35/40 65/37/40 63/36/40
f 51/35/40 67/37/40 65/36/40
f 51/35/40 69/37/40 67/36/40
f 51/35/40 71/37/40 69/36/40
f 51/35/40 73/37/40 71/36/40
f 51/35/40 75/37/40 73/36/40
f 51/35/40 54/37/40 75/36/40
