# Procedurally generated by dev-env-utils/scripts/gen_mast_arm_curves.py
# cell 3 of 8 at (+2 along arm, +1 up)
mtllib mastarmcurve.mtl
o mastarm_6x2_c3
v 0.791667 0.611111 1.000000
v 0.790799 0.647762 0.916667
v 0.768663 0.749802 0.961073
v 0.769465 0.713107 1.045332
v 0.705626 0.836308 0.998719
v 0.706239 0.799575 1.083762
v 0.611284 0.894109 1.023873
v 0.611616 0.857351 1.109440
v 0.500000 0.914406 1.032706
v 0.500000 0.877639 1.118457
v 0.388716 0.894109 1.023873
v 0.388384 0.857351 1.109440
v 0.294374 0.836308 0.998719
v 0.293761 0.799575 1.083762
v 0.231337 0.749802 0.961073
v 0.230535 0.713107 1.045332
v 0.209201 0.647762 0.916667
v 0.208333 0.611111 1.000000
v 0.231337 0.545722 0.872260
v 0.230535 0.509115 0.954668
v 0.294374 0.459217 0.834615
v 0.293761 0.422647 0.916238
v 0.388716 0.401416 0.809460
v 0.388384 0.364871 0.890560
v 0.500000 0.381119 0.800627
v 0.500000 0.344583 0.881543
v 0.611284 0.401416 0.809460
v 0.611616 0.364871 0.890560
v 0.705626 0.459217 0.834615
v 0.706239 0.422647 0.916238
v 0.768663 0.545722 0.872260
v 0.769465 0.509115 0.954668
v 0.789931 0.683642 0.833333
v 0.767861 0.785720 0.876811
v 0.705012 0.872258 0.913670
v 0.610952 0.930080 0.938298
v 0.500000 0.950385 0.946946
v 0.389048 0.930080 0.938298
v 0.294988 0.872258 0.913670
v 0.232139 0.785720 0.876811
v 0.210069 0.683642 0.833333
v 0.232139 0.581564 0.789856
v 0.294988 0.495026 0.752997
v 0.389048 0.437204 0.728369
v 0.500000 0.416899 0.719721
v 0.610952 0.437204 0.728369
v 0.705012 0.495026 0.752997
v 0.767861 0.581564 0.789856
v 0.789062 0.718750 0.750000
v 0.767059 0.820860 0.792546
v 0.704398 0.907425 0.828615
v 0.610619 0.965266 0.852715
v 0.500000 0.985577 0.861178
v 0.389381 0.965266 0.852715
v 0.295602 0.907425 0.828615
v 0.232941 0.820860 0.792546
v 0.210938 0.718750 0.750000
v 0.232941 0.616640 0.707454
v 0.295602 0.530075 0.671385
v 0.389381 0.472234 0.647285
v 0.500000 0.451923 0.638822
v 0.610619 0.472234 0.647285
v 0.704398 0.530075 0.671385
v 0.767059 0.616640 0.707454
v 0.788194 0.753086 0.666667
v 0.766257 0.855223 0.708278
v 0.703784 0.941809 0.743554
v 0.610287 0.999665 0.767125
v 0.500000 1.019981 0.775402
v 0.389713 0.999665 0.767125
v 0.296216 0.941809 0.743554
v 0.233743 0.855223 0.708278
v 0.211806 0.753086 0.666667
v 0.233743 0.650950 0.625056
v 0.296216 0.564363 0.589780
v 0.389713 0.506508 0.566209
v 0.500000 0.486192 0.557932
v 0.610287 0.506508 0.566209
v 0.703784 0.564363 0.589780
v 0.766257 0.650950 0.625056
v 0.787326 0.786651 0.583333
v 0.765455 0.888807 0.624006
v 0.703170 0.975411 0.658488
v 0.609955 1.033277 0.681527
v 0.500000 1.053597 0.689617
v 0.390045 1.033277 0.681527
v 0.296830 0.975411 0.658488
v 0.234545 0.888807 0.624006
v 0.212674 0.786651 0.583333
v 0.234545 0.684495 0.542660
v 0.296830 0.597892 0.508179
v 0.390045 0.540025 0.485140
v 0.500000 0.519705 0.477049
v 0.609955 0.540025 0.485140
v 0.703170 0.597892 0.508179
v 0.765455 0.684495 0.542660
v 0.786458 0.819444 0.500000
v 0.764653 0.921613 0.539732
v 0.702557 1.008228 0.573416
v 0.609623 1.066102 0.595922
v 0.500000 1.086425 0.603826
v 0.390377 1.066102 0.595922
v 0.297443 1.008228 0.573416
v 0.235347 0.921613 0.539732
v 0.213542 0.819444 0.500000
v 0.235347 0.717275 0.460268
v 0.297443 0.630661 0.426584
v 0.390377 0.572787 0.404078
v 0.500000 0.552464 0.396174
v 0.609623 0.572787 0.404078
v 0.702557 0.630661 0.426584
v 0.764653 0.717275 0.460268
v 0.785590 0.851466 0.416667
v 0.763851 0.953642 0.455456
v 0.701943 1.040262 0.488339
v 0.609291 1.098140 0.510311
v 0.500000 1.118464 0.518027
v 0.390709 1.098140 0.510311
v 0.298057 1.040262 0.488339
v 0.236149 0.953642 0.455456
v 0.214410 0.851466 0.416667
v 0.236149 0.749290 0.377878
v 0.298057 0.662670 0.344994
v 0.390709 0.604792 0.323022
v 0.500000 0.584468 0.315306
v 0.609291 0.604792 0.323022
v 0.701943 0.662670 0.344994
v 0.763851 0.749290 0.377878
v 0.784722 0.882716 0.333333
v 0.763049 0.984892 0.371176
v 0.701329 1.071512 0.403258
v 0.608958 1.129390 0.424694
v 0.500000 1.149714 0.432221
v 0.391042 1.129390 0.424694
v 0.298671 1.071512 0.403258
v 0.236951 0.984892 0.371176
v 0.215278 0.882716 0.333333
v 0.236951 0.780540 0.295490
v 0.298671 0.693920 0.263409
v 0.391042 0.636042 0.241973
v 0.500000 0.615718 0.234445
v 0.608958 0.636042 0.241973
v 0.701329 0.693920 0.263409
v 0.763049 0.780540 0.295490
v 0.783854 0.913194 0.250000
v 0.762247 1.015363 0.286894
v 0.700715 1.101978 0.318172
v 0.608626 1.159852 0.339071
v 0.500000 1.180175 0.346409
v 0.391374 1.159852 0.339071
v 0.299285 1.101978 0.318172
v 0.237753 1.015363 0.286894
v 0.216146 0.913194 0.250000
v 0.237753 0.811026 0.213106
v 0.299285 0.724411 0.181828
v 0.391374 0.666537 0.160929
v 0.500000 0.646214 0.153591
v 0.608626 0.666537 0.160929
v 0.700715 0.724411 0.181828
v 0.762247 0.811026 0.213106
v 0.782986 0.942901 0.166667
v 0.761445 1.045056 0.202610
v 0.700101 1.131659 0.233082
v 0.608294 1.189526 0.253442
v 0.500000 1.209846 0.260592
v 0.391706 1.189526 0.253442
v 0.299899 1.131659 0.233082
v 0.238555 1.045056 0.202610
v 0.217014 0.942901 0.166667
v 0.238555 0.840746 0.130723
v 0.299899 0.754143 0.100252
v 0.391706 0.696277 0.079891
v 0.500000 0.675957 0.072742
v 0.608294 0.696277 0.079891
v 0.700101 0.754143 0.100252
v 0.761445 0.840746 0.130723
v 0.782118 0.971836 0.083333
v 0.760643 1.073971 0.118324
v 0.699488 1.160556 0.147987
v 0.607962 1.218411 0.167808
v 0.500000 1.238727 0.174768
v 0.392038 1.218411 0.167808
v 0.300512 1.160556 0.147987
v 0.239357 1.073971 0.118324
v 0.217882 0.971836 0.083333
v 0.239357 0.869702 0.048343
v 0.300512 0.783117 0.018679
v 0.392038 0.725262 -0.001141
v 0.500000 0.704946 -0.008101
v 0.607962 0.725262 -0.001141
v 0.699488 0.783117 0.018679
v 0.760643 0.869702 0.048343
v 0.781250 1.000000 0.000000
v 0.759841 1.102107 0.034036
v 0.698874 1.188668 0.062889
v 0.607630 1.246507 0.082169
v 0.500000 1.266817 0.088939
v 0.392370 1.246507 0.082169
v 0.301126 1.188668 0.062889
v 0.240159 1.102107 0.034036
v 0.218750 1.000000 0.000000
v 0.240159 0.897893 -0.034036
v 0.301126 0.811332 -0.062889
v 0.392370 0.753493 -0.082169
v 0.500000 0.733183 -0.088939
v 0.607630 0.753493 -0.082169
v 0.698874 0.811332 -0.062889
v 0.759841 0.897893 -0.034036
vt 0.250000 0.614678
vt 0.250000 0.569160
vt 0.281250 0.569160
vt 0.281250 0.614678
vt 0.312500 0.569160
vt 0.312500 0.614678
vt 0.343750 0.569160
vt 0.343750 0.614678
vt 0.375000 0.569160
vt 0.375000 0.614678
vt 0.406250 0.569160
vt 0.406250 0.614678
vt 0.437500 0.569160
vt 0.437500 0.614678
vt 0.468750 0.569160
vt 0.468750 0.614678
vt 0.500000 0.569160
vt 0.500000 0.614678
vt 0.531250 0.569160
vt 0.531250 0.614678
vt 0.562500 0.569160
vt 0.562500 0.614678
vt 0.593750 0.569160
vt 0.593750 0.614678
vt 0.625000 0.569160
vt 0.625000 0.614678
vt 0.656250 0.569160
vt 0.656250 0.614678
vt 0.687500 0.569160
vt 0.687500 0.614678
vt 0.718750 0.569160
vt 0.718750 0.614678
vt 0.750000 0.569160
vt 0.750000 0.614678
vt 0.250000 0.523795
vt 0.281250 0.523795
vt 0.312500 0.523795
vt 0.343750 0.523795
vt 0.375000 0.523795
vt 0.406250 0.523795
vt 0.437500 0.523795
vt 0.468750 0.523795
vt 0.500000 0.523795
vt 0.531250 0.523795
vt 0.562500 0.523795
vt 0.593750 0.523795
vt 0.625000 0.523795
vt 0.656250 0.523795
vt 0.687500 0.523795
vt 0.718750 0.523795
vt 0.750000 0.523795
vt 0.250000 0.478581
vt 0.281250 0.478581
vt 0.312500 0.478581
vt 0.343750 0.478581
vt 0.375000 0.478581
vt 0.406250 0.478581
vt 0.437500 0.478581
vt 0.468750 0.478581
vt 0.500000 0.478581
vt 0.531250 0.478581
vt 0.562500 0.478581
vt 0.593750 0.478581
vt 0.625000 0.478581
vt 0.656250 0.478581
vt 0.687500 0.478581
vt 0.718750 0.478581
vt 0.750000 0.478581
vt 0.250000 0.433516
vt 0.281250 0.433516
vt 0.312500 0.433516
vt 0.343750 0.433516
vt 0.375000 0.433516
vt 0.406250 0.433516
vt 0.437500 0.433516
vt 0.468750 0.433516
vt 0.500000 0.433516
vt 0.531250 0.433516
vt 0.562500 0.433516
vt 0.593750 0.433516
vt 0.625000 0.433516
vt 0.656250 0.433516
vt 0.687500 0.433516
vt 0.718750 0.433516
vt 0.750000 0.433516
vt 0.250000 0.388597
vt 0.281250 0.388597
vt 0.312500 0.388597
vt 0.343750 0.388597
vt 0.375000 0.388597
vt 0.406250 0.388597
vt 0.437500 0.388597
vt 0.468750 0.388597
vt 0.500000 0.388597
vt 0.531250 0.388597
vt 0.562500 0.388597
vt 0.593750 0.388597
vt 0.625000 0.388597
vt 0.656250 0.388597
vt 0.687500 0.388597
vt 0.718750 0.388597
vt 0.750000 0.388597
vt 0.250000 0.343820
vt 0.281250 0.343820
vt 0.312500 0.343820
vt 0.343750 0.343820
vt 0.375000 0.343820
vt 0.406250 0.343820
vt 0.437500 0.343820
vt 0.468750 0.343820
vt 0.500000 0.343820
vt 0.531250 0.343820
vt 0.562500 0.343820
vt 0.593750 0.343820
vt 0.625000 0.343820
vt 0.656250 0.343820
vt 0.687500 0.343820
vt 0.718750 0.343820
vt 0.750000 0.343820
vt 0.250000 0.299183
vt 0.281250 0.299183
vt 0.312500 0.299183
vt 0.343750 0.299183
vt 0.375000 0.299183
vt 0.406250 0.299183
vt 0.437500 0.299183
vt 0.468750 0.299183
vt 0.500000 0.299183
vt 0.531250 0.299183
vt 0.562500 0.299183
vt 0.593750 0.299183
vt 0.625000 0.299183
vt 0.656250 0.299183
vt 0.687500 0.299183
vt 0.718750 0.299183
vt 0.750000 0.299183
vt 0.250000 0.254683
vt 0.281250 0.254683
vt 0.312500 0.254683
vt 0.343750 0.254683
vt 0.375000 0.254683
vt 0.406250 0.254683
vt 0.437500 0.254683
vt 0.468750 0.254683
vt 0.500000 0.254683
vt 0.531250 0.254683
vt 0.562500 0.254683
vt 0.593750 0.254683
vt 0.625000 0.254683
vt 0.656250 0.254683
vt 0.687500 0.254683
vt 0.718750 0.254683
vt 0.750000 0.254683
vt 0.250000 0.289683
vt 0.281250 0.289683
vt 0.312500 0.289683
vt 0.343750 0.289683
vt 0.375000 0.289683
vt 0.406250 0.289683
vt 0.437500 0.289683
vt 0.468750 0.289683
vt 0.500000 0.289683
vt 0.531250 0.289683
vt 0.562500 0.289683
vt 0.593750 0.289683
vt 0.625000 0.289683
vt 0.656250 0.289683
vt 0.687500 0.289683
vt 0.718750 0.289683
vt 0.750000 0.289683
vt 0.250000 0.333918
vt 0.281250 0.333918
vt 0.312500 0.333918
vt 0.343750 0.333918
vt 0.375000 0.333918
vt 0.406250 0.333918
vt 0.437500 0.333918
vt 0.468750 0.333918
vt 0.500000 0.333918
vt 0.531250 0.333918
vt 0.562500 0.333918
vt 0.593750 0.333918
vt 0.625000 0.333918
vt 0.656250 0.333918
vt 0.687500 0.333918
vt 0.718750 0.333918
vt 0.750000 0.333918
vt 0.250000 0.378025
vt 0.281250 0.378025
vt 0.312500 0.378025
vt 0.343750 0.378025
vt 0.375000 0.378025
vt 0.406250 0.378025
vt 0.437500 0.378025
vt 0.468750 0.378025
vt 0.500000 0.378025
vt 0.531250 0.378025
vt 0.562500 0.378025
vt 0.593750 0.378025
vt 0.625000 0.378025
vt 0.656250 0.378025
vt 0.687500 0.378025
vt 0.718750 0.378025
vt 0.750000 0.378025
vt 0.250000 0.422007
vt 0.281250 0.422007
vt 0.312500 0.422007
vt 0.343750 0.422007
vt 0.375000 0.422007
vt 0.406250 0.422007
vt 0.437500 0.422007
vt 0.468750 0.422007
vt 0.500000 0.422007
vt 0.531250 0.422007
vt 0.562500 0.422007
vt 0.593750 0.422007
vt 0.625000 0.422007
vt 0.656250 0.422007
vt 0.687500 0.422007
vt 0.718750 0.422007
vt 0.750000 0.422007
vn 1.000000 0.000000 0.000000
vn 0.923880 0.350896 0.152705
vn 0.923880 0.349701 0.155422
vn 0.707107 0.648371 0.282161
vn 0.707107 0.646162 0.287183
vn 0.382683 0.847138 0.368662
vn 0.382683 0.844252 0.375223
vn 0.000000 0.916935 0.399037
vn 0.000000 0.913812 0.406138
vn -0.382683 0.847138 0.368662
vn -0.382683 0.844252 0.375223
vn -0.707107 0.648371 0.282161
vn -0.707107 0.646162 0.287183
vn -0.923880 0.350896 0.152705
vn -0.923880 0.349701 0.155422
vn -1.000000 0.000000 0.000000
vn -0.923880 -0.350896 -0.152705
vn -0.923880 -0.349701 -0.155422
vn -0.707107 -0.648371 -0.282161
vn -0.707107 -0.646162 -0.287183
vn -0.382683 -0.847138 -0.368662
vn -0.382683 -0.844252 -0.375223
vn -0.000000 -0.916935 -0.399037
vn -0.000000 -0.913812 -0.406138
vn 0.382683 -0.847138 -0.368662
vn 0.382683 -0.844252 -0.375223
vn 0.707107 -0.648371 -0.282161
vn 0.707107 -0.646162 -0.287183
vn 0.923880 -0.350896 -0.152705
vn 0.923880 -0.349701 -0.155422
vn 0.923880 0.352078 0.149959
vn 0.707107 0.650555 0.277088
vn 0.382683 0.849991 0.362033
vn 0.000000 0.920024 0.391862
vn -0.382683 0.849991 0.362033
vn -0.707107 0.650555 0.277088
vn -0.923880 0.352078 0.149959
vn -0.923880 -0.352078 -0.149959
vn -0.707107 -0.650555 -0.277088
vn -0.382683 -0.849991 -0.362033
vn -0.000000 -0.920024 -0.391862
vn 0.382683 -0.849991 -0.362033
vn 0.707107 -0.650555 -0.277088
vn 0.923880 -0.352078 -0.149959
vn 0.923880 0.353246 0.147186
vn 0.707107 0.652714 0.271964
vn 0.382683 0.852812 0.355338
vn 0.000000 0.923077 0.384615
vn -0.382683 0.852812 0.355338
vn -0.707107 0.652714 0.271964
vn -0.923880 0.353246 0.147186
vn -0.923880 -0.353246 -0.147186
vn -0.707107 -0.652714 -0.271964
vn -0.382683 -0.852812 -0.355338
vn -0.000000 -0.923077 -0.384615
vn 0.382683 -0.852812 -0.355338
vn 0.707107 -0.652714 -0.271964
vn 0.923880 -0.353246 -0.147186
vn 0.923880 0.354400 0.144385
vn 0.707107 0.654846 0.266789
vn 0.382683 0.855598 0.348577
vn 0.000000 0.926092 0.377297
vn -0.382683 0.855598 0.348577
vn -0.707107 0.654846 0.266789
vn -0.923880 0.354400 0.144385
vn -0.923880 -0.354400 -0.144385
vn -0.707107 -0.654846 -0.266789
vn -0.382683 -0.855598 -0.348577
vn -0.000000 -0.926092 -0.377297
vn 0.382683 -0.855598 -0.348577
vn 0.707107 -0.654846 -0.266789
vn 0.923880 -0.354400 -0.144385
vn 0.923880 0.355539 0.141557
vn 0.707107 0.656951 0.261564
vn 0.382683 0.858348 0.341750
vn 0.000000 0.929069 0.369907
vn -0.382683 0.858348 0.341750
vn -0.707107 0.656951 0.261564
vn -0.923880 0.355539 0.141557
vn -0.923880 -0.355539 -0.141557
vn -0.707107 -0.656951 -0.261564
vn -0.382683 -0.858348 -0.341750
vn -0.000000 -0.929069 -0.369907
vn 0.382683 -0.858348 -0.341750
vn 0.707107 -0.656951 -0.261564
vn 0.923880 -0.355539 -0.141557
vn 0.923880 0.356663 0.138702
vn 0.707107 0.659027 0.256288
vn 0.382683 0.861060 0.334857
vn 0.000000 0.932005 0.362446
vn -0.382683 0.861060 0.334857
vn -0.707107 0.659027 0.256288
vn -0.923880 0.356663 0.138702
vn -0.923880 -0.356663 -0.138702
vn -0.707107 -0.659027 -0.256288
vn -0.382683 -0.861060 -0.334857
vn -0.000000 -0.932005 -0.362446
vn 0.382683 -0.861060 -0.334857
vn 0.707107 -0.659027 -0.256288
vn 0.923880 -0.356663 -0.138702
vn 0.923880 0.357770 0.135820
vn 0.707107 0.661073 0.250963
vn 0.382683 0.863734 0.327899
vn 0.000000 0.934899 0.354915
vn -0.382683 0.863734 0.327899
vn -0.707107 0.661073 0.250963
vn -0.923880 0.357770 0.135820
vn -0.923880 -0.357770 -0.135820
vn -0.707107 -0.661073 -0.250963
vn -0.382683 -0.863734 -0.327899
vn -0.000000 -0.934899 -0.354915
vn 0.382683 -0.863734 -0.327899
vn 0.707107 -0.661073 -0.250963
vn 0.923880 -0.357770 -0.135820
vn 0.923880 0.358861 0.132911
vn 0.707107 0.663089 0.245588
vn 0.382683 0.866367 0.320877
vn 0.000000 0.937749 0.347314
vn -0.382683 0.866367 0.320877
vn -0.707107 0.663089 0.245588
vn -0.923880 0.358861 0.132911
vn -0.923880 -0.358861 -0.132911
vn -0.707107 -0.663089 -0.245588
vn -0.382683 -0.866367 -0.320877
vn -0.000000 -0.937749 -0.347314
vn 0.382683 -0.866367 -0.320877
vn 0.707107 -0.663089 -0.245588
vn 0.923880 -0.358861 -0.132911
vn 0.923880 0.359934 0.129976
vn 0.707107 0.665072 0.240165
vn 0.382683 0.868958 0.313791
vn 0.000000 0.940554 0.339644
vn -0.382683 0.868958 0.313791
vn -0.707107 0.665072 0.240165
vn -0.923880 0.359934 0.129976
vn -0.923880 -0.359934 -0.129976
vn -0.707107 -0.665072 -0.240165
vn -0.382683 -0.868958 -0.313791
vn -0.000000 -0.940554 -0.339644
vn 0.382683 -0.868958 -0.313791
vn 0.707107 -0.665072 -0.240165
vn 0.923880 -0.359934 -0.129976
vn 0.923880 0.360990 0.127015
vn 0.707107 0.667023 0.234693
vn 0.382683 0.871507 0.306641
vn 0.000000 0.943312 0.331906
vn -0.382683 0.871507 0.306641
vn -0.707107 0.667023 0.234693
vn -0.923880 0.360990 0.127015
vn -0.923880 -0.360990 -0.127015
vn -0.707107 -0.667023 -0.234693
vn -0.382683 -0.871507 -0.306641
vn -0.000000 -0.943312 -0.331906
vn 0.382683 -0.871507 -0.306641
vn 0.707107 -0.667023 -0.234693
vn 0.923880 -0.360990 -0.127015
vn 0.923880 0.362027 0.124028
vn 0.707107 0.668939 0.229174
vn 0.382683 0.874011 0.299430
vn 0.000000 0.946023 0.324100
vn -0.382683 0.874011 0.299430
vn -0.707107 0.668939 0.229174
vn -0.923880 0.362027 0.124028
vn -0.923880 -0.362027 -0.124028
vn -0.707107 -0.668939 -0.229174
vn -0.382683 -0.874011 -0.299430
vn -0.000000 -0.946023 -0.324100
vn 0.382683 -0.874011 -0.299430
vn 0.707107 -0.668939 -0.229174
vn 0.923880 -0.362027 -0.124028
vn 0.923880 0.363045 0.121015
vn 0.707107 0.670820 0.223607
vn 0.382683 0.876469 0.292156
vn 0.000000 0.948683 0.316228
vn -0.382683 0.876469 0.292156
vn -0.707107 0.670820 0.223607
vn -0.923880 0.363045 0.121015
vn -0.923880 -0.363045 -0.121015
vn -0.707107 -0.670820 -0.223607
vn -0.382683 -0.876469 -0.292156
vn -0.000000 -0.948683 -0.316228
vn 0.382683 -0.876469 -0.292156
vn 0.707107 -0.670820 -0.223607
vn 0.923880 -0.363045 -0.121015
usemtl body
f 1/1/1 2/2/1 3/3/2
f 1/1/1 3/3/2 4/4/3
f 4/4/3 3/3/2 5/5/4
f 4/4/3 5/5/4 6/6/5
f 6/6/5 5/5/4 7/7/6
f 6/6/5 7/7/6 8/8/7
f 8/8/7 7/7/6 9/9/8
f 8/8/7 9/9/8 10/10/9
f 10/10/9 9/9/8 11/11/10
f 10/10/9 11/11/10 12/12/11
f 12/12/11 11/11/10 13/13/12
f 12/12/11 13/13/12 14/14/13
f 14/14/13 13/13/12 15/15/14
f 14/14/13 15/15/14 16/16/15
f 16/16/15 15/15/14 17/17/16
f 16/16/15 17/17/16 18/18/16
f 18/18/16 17/17/16 19/19/17
f 18/18/16 19/19/17 20/20/18
f 20/20/18 19/19/17 21/21/19
f 20/20/18 21/21/19 22/22/20
f 22/22/20 21/21/19 23/23/21
f 22/22/20 23/23/21 24/24/22
f 24/24/22 23/23/21 25/25/23
f 24/24/22 25/25/23 26/26/24
f 26/26/24 25/25/23 27/27/25
f 26/26/24 27/27/25 28/28/26
f 28/28/26 27/27/25 29/29/27
f 28/28/26 29/29/27 30/30/28
f 30/30/28 29/29/27 31/31/29
f 30/30/28 31/31/29 32/32/30
f 32/32/30 31/31/29 2/33/1
f 32/32/30 2/33/1 1/34/1
f 2/2/1 33/35/1 34/36/31
f 2/2/1 34/36/31 3/3/2
f 3/3/2 34/36/31 35/37/32
f 3/3/2 35/37/32 5/5/4
f 5/5/4 35/37/32 36/38/33
f 5/5/4 36/38/33 7/7/6
f 7/7/6 36/38/33 37/39/34
f 7/7/6 37/39/34 9/9/8
f 9/9/8 37/39/34 38/40/35
f 9/9/8 38/40/35 11/11/10
f 11/11/10 38/40/35 39/41/36
f 11/11/10 39/41/36 13/13/12
f 13/13/12 39/41/36 40/42/37
f 13/13/12 40/42/37 15/15/14
f 15/15/14 40/42/37 41/43/16
f 15/15/14 41/43/16 17/17/16
f 17/17/16 41/43/16 42/44/38
f 17/17/16 42/44/38 19/19/17
f 19/19/17 42/44/38 43/45/39
f 19/19/17 43/45/39 21/21/19
f 21/21/19 43/45/39 44/46/40
f 21/21/19 44/46/40 23/23/21
f 23/23/21 44/46/40 45/47/41
f 23/23/21 45/47/41 25/25/23
f 25/25/23 45/47/41 46/48/42
f 25/25/23 46/48/42 27/27/25
f 27/27/25 46/48/42 47/49/43
f 27/27/25 47/49/43 29/29/27
f 29/29/27 47/49/43 48/50/44
f 29/29/27 48/50/44 31/31/29
f 31/31/29 48/50/44 33/51/1
f 31/31/29 33/51/1 2/33/1
f 33/35/1 49/52/1 50/53/45
f 33/35/1 50/53/45 34/36/31
f 34/36/31 50/53/45 51/54/46
f 34/36/31 51/54/46 35/37/32
f 35/37/32 51/54/46 52/55/47
f 35/37/32 52/55/47 36/38/33
f 36/38/33 52/55/47 53/56/48
f 36/38/33 53/56/48 37/39/34
f 37/39/34 53/56/48 54/57/49
f 37/39/34 54/57/49 38/40/35
f 38/40/35 54/57/49 55/58/50
f 38/40/35 55/58/50 39/41/36
f 39/41/36 55/58/50 56/59/51
f 39/41/36 56/59/51 40/42/37
f 40/42/37 56/59/51 57/60/16
f 40/42/37 57/60/16 41/43/16
f 41/43/16 57/60/16 58/61/52
f 41/43/16 58/61/52 42/44/38
f 42/44/38 58/61/52 59/62/53
f 42/44/38 59/62/53 43/45/39
f 43/45/39 59/62/53 60/63/54
f 43/45/39 60/63/54 44/46/40
f 44/46/40 60/63/54 61/64/55
f 44/46/40 61/64/55 45/47/41
f 45/47/41 61/64/55 62/65/56
f 45/47/41 62/65/56 46/48/42
f 46/48/42 62/65/56 63/66/57
f 46/48/42 63/66/57 47/49/43
f 47/49/43 63/66/57 64/67/58
f 47/49/43 64/67/58 48/50/44
f 48/50/44 64/67/58 49/68/1
f 48/50/44 49/68/1 33/51/1
f 49/52/1 65/69/1 66/70/59
f 49/52/1 66/70/59 50/53/45
f 50/53/45 66/70/59 67/71/60
f 50/53/45 67/71/60 51/54/46
f 51/54/46 67/71/60 68/72/61
f 51/54/46 68/72/61 52/55/47
f 52/55/47 68/72/61 69/73/62
f 52/55/47 69/73/62 53/56/48
f 53/56/48 69/73/62 70/74/63
f 53/56/48 70/74/63 54/57/49
f 54/57/49 70/74/63 71/75/64
f 54/57/49 71/75/64 55/58/50
f 55/58/50 71/75/64 72/76/65
f 55/58/50 72/76/65 56/59/51
f 56/59/51 72/76/65 73/77/16
f 56/59/51 73/77/16 57/60/16
f 57/60/16 73/77/16 74/78/66
f 57/60/16 74/78/66 58/61/52
f 58/61/52 74/78/66 75/79/67
f 58/61/52 75/79/67 59/62/53
f 59/62/53 75/79/67 76/80/68
f 59/62/53 76/80/68 60/63/54
f 60/63/54 76/80/68 77/81/69
f 60/63/54 77/81/69 61/64/55
f 61/64/55 77/81/69 78/82/70
f 61/64/55 78/82/70 62/65/56
f 62/65/56 78/82/70 79/83/71
f 62/65/56 79/83/71 63/66/57
f 63/66/57 79/83/71 80/84/72
f 63/66/57 80/84/72 64/67/58
f 64/67/58 80/84/72 65/85/1
f 64/67/58 65/85/1 49/68/1
f 65/69/1 81/86/1 82/87/73
f 65/69/1 82/87/73 66/70/59
f 66/70/59 82/87/73 83/88/74
f 66/70/59 83/88/74 67/71/60
f 67/71/60 83/88/74 84/89/75
f 67/71/60 84/89/75 68/72/61
f 68/72/61 84/89/75 85/90/76
f 68/72/61 85/90/76 69/73/62
f 69/73/62 85/90/76 86/91/77
f 69/73/62 86/91/77 70/74/63
f 70/74/63 86/91/77 87/92/78
f 70/74/63 87/92/78 71/75/64
f 71/75/64 87/92/78 88/93/79
f 71/75/64 88/93/79 72/76/65
f 72/76/65 88/93/79 89/94/16
f 72/76/65 89/94/16 73/77/16
f 73/77/16 89/94/16 90/95/80
f 73/77/16 90/95/80 74/78/66
f 74/78/66 90/95/80 91/96/81
f 74/78/66 91/96/81 75/79/67
f 75/79/67 91/96/81 92/97/82
f 75/79/67 92/97/82 76/80/68
f 76/80/68 92/97/82 93/98/83
f 76/80/68 93/98/83 77/81/69
f 77/81/69 93/98/83 94/99/84
f 77/81/69 94/99/84 78/82/70
f 78/82/70 94/99/84 95/100/85
f 78/82/70 95/100/85 79/83/71
f 79/83/71 95/100/85 96/101/86
f 79/83/71 96/101/86 80/84/72
f 80/84/72 96/101/86 81/102/1
f 80/84/72 81/102/1 65/85/1
f 81/86/1 97/103/1 98/104/87
f 81/86/1 98/104/87 82/87/73
f 82/87/73 98/104/87 99/105/88
f 82/87/73 99/105/88 83/88/74
f 83/88/74 99/105/88 100/106/89
f 83/88/74 100/106/89 84/89/75
f 84/89/75 100/106/89 101/107/90
f 84/89/75 101/107/90 85/90/76
f 85/90/76 101/107/90 102/108/91
f 85/90/76 102/108/91 86/91/77
f 86/91/77 102/108/91 103/109/92
f 86/91/77 103/109/92 87/92/78
f 87/92/78 103/109/92 104/110/93
f 87/92/78 104/110/93 88/93/79
f 88/93/79 104/110/93 105/111/16
f 88/93/79 105/111/16 89/94/16
f 89/94/16 105/111/16 106/112/94
f 89/94/16 106/112/94 90/95/80
f 90/95/80 106/112/94 107/113/95
f 90/95/80 107/113/95 91/96/81
f 91/96/81 107/113/95 108/114/96
f 91/96/81 108/114/96 92/97/82
f 92/97/82 108/114/96 109/115/97
f 92/97/82 109/115/97 93/98/83
f 93/98/83 109/115/97 110/116/98
f 93/98/83 110/116/98 94/99/84
f 94/99/84 110/116/98 111/117/99
f 94/99/84 111/117/99 95/100/85
f 95/100/85 111/117/99 112/118/100
f 95/100/85 112/118/100 96/101/86
f 96/101/86 112/118/100 97/119/1
f 96/101/86 97/119/1 81/102/1
f 97/103/1 113/120/1 114/121/101
f 97/103/1 114/121/101 98/104/87
f 98/104/87 114/121/101 115/122/102
f 98/104/87 115/122/102 99/105/88
f 99/105/88 115/122/102 116/123/103
f 99/105/88 116/123/103 100/106/89
f 100/106/89 116/123/103 117/124/104
f 100/106/89 117/124/104 101/107/90
f 101/107/90 117/124/104 118/125/105
f 101/107/90 118/125/105 102/108/91
f 102/108/91 118/125/105 119/126/106
f 102/108/91 119/126/106 103/109/92
f 103/109/92 119/126/106 120/127/107
f 103/109/92 120/127/107 104/110/93
f 104/110/93 120/127/107 121/128/16
f 104/110/93 121/128/16 105/111/16
f 105/111/16 121/128/16 122/129/108
f 105/111/16 122/129/108 106/112/94
f 106/112/94 122/129/108 123/130/109
f 106/112/94 123/130/109 107/113/95
f 107/113/95 123/130/109 124/131/110
f 107/113/95 124/131/110 108/114/96
f 108/114/96 124/131/110 125/132/111
f 108/114/96 125/132/111 109/115/97
f 109/115/97 125/132/111 126/133/112
f 109/115/97 126/133/112 110/116/98
f 110/116/98 126/133/112 127/134/113
f 110/116/98 127/134/113 111/117/99
f 111/117/99 127/134/113 128/135/114
f 111/117/99 128/135/114 112/118/100
f 112/118/100 128/135/114 113/136/1
f 112/118/100 113/136/1 97/119/1
f 113/120/1 129/137/1 130/138/115
f 113/120/1 130/138/115 114/121/101
f 114/121/101 130/138/115 131/139/116
f 114/121/101 131/139/116 115/122/102
f 115/122/102 131/139/116 132/140/117
f 115/122/102 132/140/117 116/123/103
f 116/123/103 132/140/117 133/141/118
f 116/123/103 133/141/118 117/124/104
f 117/124/104 133/141/118 134/142/119
f 117/124/104 134/142/119 118/125/105
f 118/125/105 134/142/119 135/143/120
f 118/125/105 135/143/120 119/126/106
f 119/126/106 135/143/120 136/144/121
f 119/126/106 136/144/121 120/127/107
f 120/127/107 136/144/121 137/145/16
f 120/127/107 137/145/16 121/128/16
f 121/128/16 137/145/16 138/146/122
f 121/128/16 138/146/122 122/129/108
f 122/129/108 138/146/122 139/147/123
f 122/129/108 139/147/123 123/130/109
f 123/130/109 139/147/123 140/148/124
f 123/130/109 140/148/124 124/131/110
f 124/131/110 140/148/124 141/149/125
f 124/131/110 141/149/125 125/132/111
f 125/132/111 141/149/125 142/150/126
f 125/132/111 142/150/126 126/133/112
f 126/133/112 142/150/126 143/151/127
f 126/133/112 143/151/127 127/134/113
f 127/134/113 143/151/127 144/152/128
f 127/134/113 144/152/128 128/135/114
f 128/135/114 144/152/128 129/153/1
f 128/135/114 129/153/1 113/136/1
f 129/137/1 145/154/1 146/155/129
f 129/137/1 146/155/129 130/138/115
f 130/138/115 146/155/129 147/156/130
f 130/138/115 147/156/130 131/139/116
f 131/139/116 147/156/130 148/157/131
f 131/139/116 148/157/131 132/140/117
f 132/140/117 148/157/131 149/158/132
f 132/140/117 149/158/132 133/141/118
f 133/141/118 149/158/132 150/159/133
f 133/141/118 150/159/133 134/142/119
f 134/142/119 150/159/133 151/160/134
f 134/142/119 151/160/134 135/143/120
f 135/143/120 151/160/134 152/161/135
f 135/143/120 152/161/135 136/144/121
f 136/144/121 152/161/135 153/162/16
f 136/144/121 153/162/16 137/145/16
f 137/145/16 153/162/16 154/163/136
f 137/145/16 154/163/136 138/146/122
f 138/146/122 154/163/136 155/164/137
f 138/146/122 155/164/137 139/147/123
f 139/147/123 155/164/137 156/165/138
f 139/147/123 156/165/138 140/148/124
f 140/148/124 156/165/138 157/166/139
f 140/148/124 157/166/139 141/149/125
f 141/149/125 157/166/139 158/167/140
f 141/149/125 158/167/140 142/150/126
f 142/150/126 158/167/140 159/168/141
f 142/150/126 159/168/141 143/151/127
f 143/151/127 159/168/141 160/169/142
f 143/151/127 160/169/142 144/152/128
f 144/152/128 160/169/142 145/170/1
f 144/152/128 145/170/1 129/153/1
f 145/154/1 161/171/1 162/172/143
f 145/154/1 162/172/143 146/155/129
f 146/155/129 162/172/143 163/173/144
f 146/155/129 163/173/144 147/156/130
f 147/156/130 163/173/144 164/174/145
f 147/156/130 164/174/145 148/157/131
f 148/157/131 164/174/145 165/175/146
f 148/157/131 165/175/146 149/158/132
f 149/158/132 165/175/146 166/176/147
f 149/158/132 166/176/147 150/159/133
f 150/159/133 166/176/147 167/177/148
f 150/159/133 167/177/148 151/160/134
f 151/160/134 167/177/148 168/178/149
f 151/160/134 168/178/149 152/161/135
f 152/161/135 168/178/149 169/179/16
f 152/161/135 169/179/16 153/162/16
f 153/162/16 169/179/16 170/180/150
f 153/162/16 170/180/150 154/163/136
f 154/163/136 170/180/150 171/181/151
f 154/163/136 171/181/151 155/164/137
f 155/164/137 171/181/151 172/182/152
f 155/164/137 172/182/152 156/165/138
f 156/165/138 172/182/152 173/183/153
f 156/165/138 173/183/153 157/166/139
f 157/166/139 173/183/153 174/184/154
f 157/166/139 174/184/154 158/167/140
f 158/167/140 174/184/154 175/185/155
f 158/167/140 175/185/155 159/168/141
f 159/168/141 175/185/155 176/186/156
f 159/168/141 176/186/156 160/169/142
f 160/169/142 176/186/156 161/187/1
f 160/169/142 161/187/1 145/170/1
f 161/171/1 177/188/1 178/189/157
f 161/171/1 178/189/157 162/172/143
f 162/172/143 178/189/157 179/190/158
f 162/172/143 179/190/158 163/173/144
f 163/173/144 179/190/158 180/191/159
f 163/173/144 180/191/159 164/174/145
f 164/174/145 180/191/159 181/192/160
f 164/174/145 181/192/160 165/175/146
f 165/175/146 181/192/160 182/193/161
f 165/175/146 182/193/161 166/176/147
f 166/176/147 182/193/161 183/194/162
f 166/176/147 183/194/162 167/177/148
f 167/177/148 183/194/162 184/195/163
f 167/177/148 184/195/163 168/178/149
f 168/178/149 184/195/163 185/196/16
f 168/178/149 185/196/16 169/179/16
f 169/179/16 185/196/16 186/197/164
f 169/179/16 186/197/164 170/180/150
f 170/180/150 186/197/164 187/198/165
f 170/180/150 187/198/165 171/181/151
f 171/181/151 187/198/165 188/199/166
f 171/181/151 188/199/166 172/182/152
f 172/182/152 188/199/166 189/200/167
f 172/182/152 189/200/167 173/183/153
f 173/183/153 189/200/167 190/201/168
f 173/183/153 190/201/168 174/184/154
f 174/184/154 190/201/168 191/202/169
f 174/184/154 191/202/169 175/185/155
f 175/185/155 191/202/169 192/203/170
f 175/185/155 192/203/170 176/186/156
f 176/186/156 192/203/170 177/204/1
f 176/186/156 177/204/1 161/187/1
f 177/188/1 193/205/1 194/206/171
f 177/188/1 194/206/171 178/189/157
f 178/189/157 194/206/171 195/207/172
f 178/189/157 195/207/172 179/190/158
f 179/190/158 195/207/172 196/208/173
f 179/190/158 196/208/173 180/191/159
f 180/191/159 196/208/173 197/209/174
f 180/191/159 197/209/174 181/192/160
f 181/192/160 197/209/174 198/210/175
f 181/192/160 198/210/175 182/193/161
f 182/193/161 198/210/175 199/211/176
f 182/193/161 199/211/176 183/194/162
f 183/194/162 199/211/176 200/212/177
f 183/194/162 200/212/177 184/195/163
f 184/195/163 200/212/177 201/213/16
f 184/195/163 201/213/16 185/196/16
f 185/196/16 201/213/16 202/214/178
f 185/196/16 202/214/178 186/197/164
f 186/197/164 202/214/178 203/215/179
f 186/197/164 203/215/179 187/198/165
f 187/198/165 203/215/179 204/216/180
f 187/198/165 204/216/180 188/199/166
f 188/199/166 204/216/180 205/217/181
f 188/199/166 205/217/181 189/200/167
f 189/200/167 205/217/181 206/218/182
f 189/200/167 206/218/182 190/201/168
f 190/201/168 206/218/182 207/219/183
f 190/201/168 207/219/183 191/202/169
f 191/202/169 207/219/183 208/220/184
f 191/202/169 208/220/184 192/203/170
f 192/203/170 208/220/184 193/221/1
f 192/203/170 193/221/1 177/204/1
