# Procedurally generated by dev-env-utils/scripts/gen_mast_arm_curves.py
# mount hardware on cell 0, model-space east
mtllib mastarmcurve.mtl
o mastarm_5x1_c0_east
v 0.500000 0.294798 0.523784
v 0.500000 0.359058 0.347640
v 0.639011 0.385034 0.357116
v 0.639011 0.320774 0.533261
v 0.756858 0.459009 0.384103
v 0.756858 0.394748 0.560248
v 0.835602 0.569719 0.424492
v 0.835602 0.505459 0.600637
v 0.863253 0.700311 0.472134
v 0.863253 0.636051 0.648279
v 0.835602 0.830903 0.519776
v 0.835602 0.766642 0.695921
v 0.756858 0.941613 0.560165
v 0.756858 0.877353 0.736310
v 0.639011 1.015587 0.587152
v 0.639011 0.951327 0.763297
v 0.500000 1.041564 0.596629
v 0.500000 0.977303 0.772773
v 0.360989 1.015587 0.587152
v 0.360989 0.951327 0.763297
v 0.243142 0.941613 0.560165
v 0.243142 0.877353 0.736310
v 0.164398 0.830903 0.519776
v 0.164398 0.766642 0.695921
v 0.136747 0.700311 0.472134
v 0.136747 0.636051 0.648279
v 0.164398 0.569719 0.424492
v 0.164398 0.505459 0.600637
v 0.243142 0.459009 0.384103
v 0.243142 0.394748 0.560248
v 0.360989 0.385034 0.357116
v 0.360989 0.320774 0.533261
v 0.500000 0.636051 0.648279
v 0.500000 0.700311 0.472134
v 0.925000 0.300000 0.500000
v 0.999375 0.300000 0.500000
v 0.999375 0.358579 0.641421
v 0.925000 0.358579 0.641421
v 0.999375 0.500000 0.700000
v 0.925000 0.500000 0.700000
v 0.999375 0.641421 0.641421
v 0.925000 0.641421 0.641421
v 0.999375 0.700000 0.500000
v 0.925000 0.700000 0.500000
v 0.999375 0.641421 0.358579
v 0.925000 0.641421 0.358579
v 0.999375 0.500000 0.300000
v 0.925000 0.500000 0.300000
v 0.999375 0.358579 0.358579
v 0.925000 0.358579 0.358579
v 0.925000 0.500000 0.500000
v 0.999375 0.500000 0.500000
v 0.710248 0.492793 0.529647
v 0.881456 0.409978 0.500000
v 0.894222 0.418686 0.549403
v 0.723014 0.501500 0.579050
v 0.915236 0.449181 0.585569
v 0.744028 0.531996 0.615216
v 0.938865 0.493293 0.598807
v 0.767657 0.576108 0.628453
v 0.958780 0.539203 0.585569
v 0.787572 0.622017 0.615216
v 0.969643 0.574608 0.549403
v 0.798435 0.657422 0.579050
v 0.968544 0.590022 0.500000
v 0.797336 0.672836 0.529647
v 0.955778 0.581314 0.450597
v 0.784570 0.664129 0.480243
v 0.934764 0.550819 0.414431
v 0.763556 0.633634 0.444077
v 0.911135 0.506707 0.401193
v 0.739927 0.589522 0.430840
v 0.891220 0.460797 0.414431
v 0.720012 0.543612 0.444077
v 0.880357 0.425392 0.450597
v 0.709149 0.508207 0.480243
v 0.753792 0.582815 0.529647
vt 0.250000 0.750000
vt 0.250000 0.568374
vt 0.281250 0.568374
vt 0.281250 0.750000
vt 0.312500 0.568374
vt 0.312500 0.750000
vt 0.343750 0.568374
vt 0.343750 0.750000
vt 0.375000 0.568374
vt 0.375000 0.750000
vt 0.406250 0.568374
vt 0.406250 0.750000
vt 0.437500 0.568374
vt 0.437500 0.750000
vt 0.468750 0.568374
vt 0.468750 0.750000
vt 0.500000 0.568374
vt 0.500000 0.750000
vt 0.531250 0.568374
vt 0.531250 0.750000
vt 0.562500 0.568374
vt 0.562500 0.750000
vt 0.593750 0.568374
vt 0.593750 0.750000
vt 0.625000 0.568374
vt 0.625000 0.750000
vt 0.656250 0.568374
vt 0.656250 0.750000
vt 0.687500 0.568374
vt 0.687500 0.750000
vt 0.718750 0.568374
vt 0.718750 0.750000
vt 0.750000 0.568374
vt 0.750000 0.750000
vt 0.500000 0.500000
vt 0.400000 0.600000
vt 0.600000 0.400000
vt 0.250000 0.650000
vt 0.312500 0.650000
vt 0.375000 0.650000
vt 0.437500 0.650000
vt 0.500000 0.650000
vt 0.562500 0.650000
vt 0.625000 0.650000
vt 0.687500 0.650000
vt 0.750000 0.650000
vt 0.250000 0.700000
vt 0.291667 0.700000
vt 0.291667 0.750000
vt 0.333333 0.700000
vt 0.333333 0.750000
vt 0.375000 0.700000
vt 0.416667 0.700000
vt 0.416667 0.750000
vt 0.458333 0.700000
vt 0.458333 0.750000
vt 0.500000 0.700000
vt 0.541667 0.700000
vt 0.541667 0.750000
vt 0.583333 0.700000
vt 0.583333 0.750000
vt 0.625000 0.700000
vt 0.666667 0.700000
vt 0.666667 0.750000
vt 0.708333 0.700000
vt 0.708333 0.750000
vt 0.750000 0.700000
vn 0.000000 -0.939437 -0.342722
vn 0.382683 -0.867926 -0.316634
vn 0.707107 -0.664282 -0.242341
vn 0.923880 -0.359507 -0.131154
vn 1.000000 -0.000000 -0.000000
vn 0.923880 0.359507 0.131154
vn 0.707107 0.664282 0.242341
vn 0.382683 0.867926 0.316634
vn 0.000000 0.939437 0.342722
vn -0.382683 0.867926 0.316634
vn -0.707107 0.664282 0.242341
vn -0.923880 0.359507 0.131154
vn -1.000000 0.000000 0.000000
vn -0.923880 -0.359507 -0.131154
vn -0.707107 -0.664282 -0.242341
vn -0.382683 -0.867926 -0.316634
vn -0.000000 -0.342722 0.939437
vn 0.000000 0.342722 -0.939437
vn 0.000000 -1.000000 0.000000
vn 0.000000 -0.707107 0.707107
vn 0.000000 -0.000000 1.000000
vn -0.000000 0.707107 0.707107
vn -0.000000 1.000000 0.000000
vn 0.000000 0.707107 -0.707107
vn 0.000000 0.000000 -1.000000
vn 0.000000 -0.707107 -0.707107
vn -0.435443 -0.900216 0.000000
vn -0.307778 -0.813144 0.494034
vn -0.097644 -0.508191 0.855691
vn 0.138654 -0.067068 0.988067
vn 0.337799 0.392026 0.855691
vn 0.446431 0.746076 0.494034
vn 0.435443 0.900216 0.000000
vn 0.307778 0.813144 -0.494034
vn 0.097644 0.508191 -0.855691
vn -0.138654 0.067068 -0.988067
vn -0.337799 -0.392026 -0.855691
vn -0.446431 -0.746076 -0.494034
vn -0.889474 0.430247 0.154023
vn 0.889474 -0.430247 -0.154023
usemtl body
f 1/1/1 2/2/1 3/3/2
f 1/1/1 3/3/2 4/4/2
f 4/4/2 3/3/2 5/5/3
f 4/4/2 5/5/3 6/6/3
f 6/6/3 5/5/3 7/7/4
f 6/6/3 7/7/4 8/8/4
f 8/8/4 7/7/4 9/9/5
f 8/8/4 9/9/5 10/10/5
f 10/10/5 9/9/5 11/11/6
f 10/10/5 11/11/6 12/12/6
f 12/12/6 11/11/6 13/13/7
f 12/12/6 13/13/7 14/14/7
f 14/14/7 13/13/7 15/15/8
f 14/14/7 15/15/8 16/16/8
f 16/16/8 15/15/8 17/17/9
f 16/16/8 17/17/9 18/18/9
f 18/18/9 17/17/9 19/19/10
f 18/18/9 19/19/10 20/20/10
f 20/20/10 19/19/10 21/21/11
f 20/20/10 21/21/11 22/22/11
f 22/22/11 21/21/11 23/23/12
f 22/22/11 23/23/12 24/24/12
f 24/24/12 23/23/12 25/25/13
f 24/24/12 25/25/13 26/26/13
f 26/26/13 25/25/13 27/27/14
f 26/26/13 27/27/14 28/28/14
f 28/28/14 27/27/14 29/29/15
f 28/28/14 29/29/15 30/30/15
f 30/30/15 29/29/15 31/31/16
f 30/30/15 31/31/16 32/32/16
f 32/32/16 31/31/16 2/33/1
f 32/32/16 2/33/1 1/34/1
f 33/35/17 1/36/17 4/37/17
f 33/35/17 4/36/17 6/37/17
f 33/35/17 6/36/17 8/37/17
f 33/35/17 8/36/17 10/37/17
f 33/35/17 10/36/17 12/37/17
f 33/35/17 12/36/17 14/37/17
f 33/35/17 14/36/17 16/37/17
f 33/35/17 16/36/17 18/37/17
f 33/35/17 18/36/17 20/37/17
f 33/35/17 20/36/17 22/37/17
f 33/35/17 22/36/17 24/37/17
f 33/35/17 24/36/17 26/37/17
f 33/35/17 26/36/17 28/37/17
f 33/35/17 28/36/17 30/37/17
f 33/35/17 30/36/17 32/37/17
f 33/35/17 32/36/17 1/37/17
f 34/35/18 3/37/18 2/36/18
f 34/35/18 5/37/18 3/36/18
f 34/35/18 7/37/18 5/36/18
f 34/35/18 9/37/18 7/36/18
f 34/35/18 11/37/18 9/36/18
f 34/35/18 13/37/18 11/36/18
f 34/35/18 15/37/18 13/36/18
f 34/35/18 17/37/18 15/36/18
f 34/35/18 19/37/18 17/36/18
f 34/35/18 21/37/18 19/36/18
f 34/35/18 23/37/18 21/36/18
f 34/35/18 25/37/18 23/36/18
f 34/35/18 27/37/18 25/36/18
f 34/35/18 29/37/18 27/36/18
f 34/35/18 31/37/18 29/36/18
f 34/35/18 2/37/18 31/36/18
f 35/1/19 36/38/19 37/39/20
f 35/1/19 37/39/20 38/6/20
f 38/6/20 37/39/20 39/40/21
f 38/6/20 39/40/21 40/10/21
f 40/10/21 39/40/21 41/41/22
f 40/10/21 41/41/22 42/14/22
f 42/14/22 41/41/22 43/42/23
f 42/14/22 43/42/23 44/18/23
f 44/18/23 43/42/23 45/43/24
f 44/18/23 45/43/24 46/22/24
f 46/22/24 45/43/24 47/44/25
f 46/22/24 47/44/25 48/26/25
f 48/26/25 47/44/25 49/45/26
f 48/26/25 49/45/26 50/30/26
f 50/30/26 49/45/26 36/46/19
f 50/30/26 36/46/19 35/34/19
f 51/35/13 35/36/13 38/37/13
f 51/35/13 38/36/13 40/37/13
f 51/35/13 40/36/13 42/37/13
f 51/35/13 42/36/13 44/37/13
f 51/35/13 44/36/13 46/37/13
f 51/35/13 46/36/13 48/37/13
f 51/35/13 48/36/13 50/37/13
f 51/35/13 50/36/13 35/37/13
f 52/35/5 37/37/5 36/36/5
f 52/35/5 39/37/5 37/36/5
f 52/35/5 41/37/5 39/36/5
f 52/35/5 43/37/5 41/36/5
f 52/35/5 45/37/5 43/36/5
f 52/35/5 47/37/5 45/36/5
f 52/35/5 49/37/5 47/36/5
f 52/35/5 36/37/5 49/36/5
f 53/1/27 54/47/27 55/48/28
f 53/1/27 55/48/28 56/49/28
f 56/49/28 55/48/28 57/50/29
f 56/49/28 57/50/29 58/51/29
f 58/51/29 57/50/29 59/52/30
f 58/51/29 59/52/30 60/10/30
f 60/10/30 59/52/30 61/53/31
f 60/10/30 61/53/31 62/54/31
f 62/54/31 61/53/31 63/55/32
f 62/54/31 63/55/32 64/56/32
f 64/56/32 63/55/32 65/57/33
f 64/56/32 65/57/33 66/18/33
f 66/18/33 65/57/33 67/58/34
f 66/18/33 67/58/34 68/59/34
f 68/59/34 67/58/34 69/60/35
f 68/59/34 69/60/35 70/61/35
f 70/61/35 69/60/35 71/62/36
f 70/61/35 71/62/36 72/26/36
f 72/26/36 71/62/36 73/63/37
f 72/26/36 73/63/37 74/64/37
f 74/64/37 73/63/37 75/65/38
f 74/64/37 75/65/38 76/66/38
f 76/66/38 75/65/38 54/67/27
f 76/66/38 54/67/27 53/34/27
f 77/35/39 53/36/39 56/37/39
f 77/35/39 56/36/39 58/37/39
f 77/35/39 58/36/39 60/37/39
f 77/35/39 60/36/39 62/37/39
f 77/35/39 62/36/39 64/37/39
f 77/35/39 64/36/39 66/37/39
f 77/35/39 66/36/39 68/37/39
f 77/35/39 68/36/39 70/37/39
f 77/35/39 70/36/39 72/37/39
f 77/35/39 72/36/39 74/37/39
f 77/35/39 74/36/39 76/37/39
f 77/35/39 76/36/39 53/37/39
f 51/35/40 55/37/40 54/36/40
f 51/35/40 57/37/40 55/36/40
f 51/35/40 59/37/40 57/36/40
f 51/35/40 61/37/40 59/36/40
f 51/35/40 63/37/40 61/36/40
f 51/35/40 65/37/40 63/36/40
f 51/35/40 67/37/40 65/36/40
f 51/35/40 69/37/40 67/36/40
f 51/35/40 71/37/40 69/36/40
f 51/35/40 73/37/40 71/36/40
f 51/35/40 75/37/40 73/36/40
f 51/35/40 54/37/40 75/36/40
