# Procedurally generated by dev-env-utils/scripts/gen_mast_arm_curves.py
# mount hardware on cell 2, model-space east
mtllib mastarmcurve.mtl
o mastarm_5x1_c2_east
v 0.500000 -0.316891 0.376184
v 0.500000 -0.267995 0.195172
v 0.633349 -0.242388 0.202089
v 0.633349 -0.291284 0.383101
v 0.746396 -0.169466 0.221787
v 0.746396 -0.218361 0.402799
v 0.821932 -0.060330 0.251267
v 0.821932 -0.109225 0.432279
v 0.848457 0.068405 0.286041
v 0.848457 0.019509 0.467053
v 0.821932 0.197140 0.320815
v 0.821932 0.148244 0.501828
v 0.746396 0.306276 0.350296
v 0.746396 0.257380 0.531308
v 0.633349 0.379198 0.369994
v 0.633349 0.330302 0.551006
v 0.500000 0.404805 0.376911
v 0.500000 0.355909 0.557923
v 0.366651 0.379198 0.369994
v 0.366651 0.330302 0.551006
v 0.253604 0.306276 0.350296
v 0.253604 0.257380 0.531308
v 0.178068 0.197140 0.320815
v 0.178068 0.148244 0.501828
v 0.151543 0.068405 0.286041
v 0.151543 0.019509 0.467053
v 0.178068 -0.060330 0.251267
v 0.178068 -0.109225 0.432279
v 0.253604 -0.169466 0.221787
v 0.253604 -0.218361 0.402799
v 0.366651 -0.242388 0.202089
v 0.366651 -0.291284 0.383101
v 0.500000 0.019509 0.467053
v 0.500000 0.068405 0.286041
v 0.925000 0.300000 0.500000
v 0.999375 0.300000 0.500000
v 0.999375 0.358579 0.641421
v 0.925000 0.358579 0.641421
v 0.999375 0.500000 0.700000
v 0.925000 0.500000 0.700000
v 0.999375 0.641421 0.641421
v 0.925000 0.641421 0.641421
v 0.999375 0.700000 0.500000
v 0.925000 0.700000 0.500000
v 0.999375 0.641421 0.358579
v 0.925000 0.641421 0.358579
v 0.999375 0.500000 0.300000
v 0.925000 0.500000 0.300000
v 0.999375 0.358579 0.358579
v 0.925000 0.358579 0.358579
v 0.925000 0.500000 0.500000
v 0.999375 0.500000 0.500000
v 0.761882 0.148709 0.422257
v 1.001750 0.435896 0.500000
v 0.984948 0.436678 0.548955
v 0.745079 0.149491 0.471212
v 0.952082 0.454427 0.584792
v 0.712214 0.167240 0.507049
v 0.911960 0.484387 0.597909
v 0.672092 0.197201 0.520166
v 0.875332 0.518531 0.584792
v 0.635463 0.231344 0.507049
v 0.852012 0.547710 0.548955
v 0.612144 0.260523 0.471212
v 0.848250 0.564104 0.500000
v 0.608381 0.276918 0.422257
v 0.865052 0.563322 0.451045
v 0.625184 0.276136 0.373303
v 0.897918 0.545573 0.415208
v 0.658050 0.258386 0.337466
v 0.938040 0.515613 0.402091
v 0.698172 0.228426 0.324348
v 0.974668 0.481469 0.415208
v 0.734800 0.194282 0.337466
v 0.997988 0.452290 0.451045
v 0.758120 0.165103 0.373303
v 0.685132 0.212813 0.422257
vt 0.250000 0.750000
vt 0.250000 0.575772
vt 0.281250 0.575772
vt 0.281250 0.750000
vt 0.312500 0.575772
vt 0.312500 0.750000
vt 0.343750 0.575772
vt 0.343750 0.750000
vt 0.375000 0.575772
vt 0.375000 0.750000
vt 0.406250 0.575772
vt 0.406250 0.750000
vt 0.437500 0.575772
vt 0.437500 0.750000
vt 0.468750 0.575772
vt 0.468750 0.750000
vt 0.500000 0.575772
vt 0.500000 0.750000
vt 0.531250 0.575772
vt 0.531250 0.750000
vt 0.562500 0.575772
vt 0.562500 0.750000
vt 0.593750 0.575772
vt 0.593750 0.750000
vt 0.625000 0.575772
vt 0.625000 0.750000
vt 0.656250 0.575772
vt 0.656250 0.750000
vt 0.687500 0.575772
vt 0.687500 0.750000
vt 0.718750 0.575772
vt 0.718750 0.750000
vt 0.750000 0.575772
vt 0.750000 0.750000
vt 0.500000 0.500000
vt 0.400000 0.600000
vt 0.600000 0.400000
vt 0.250000 0.650000
vt 0.312500 0.650000
vt 0.375000 0.650000
vt 0.437500 0.650000
vt 0.500000 0.650000
vt 0.562500 0.650000
vt 0.625000 0.650000
vt 0.687500 0.650000
vt 0.750000 0.650000
vt 0.250000 0.700000
vt 0.291667 0.700000
vt 0.291667 0.750000
vt 0.333333 0.700000
vt 0.333333 0.750000
vt 0.375000 0.700000
vt 0.416667 0.700000
vt 0.416667 0.750000
vt 0.458333 0.700000
vt 0.458333 0.750000
vt 0.500000 0.700000
vt 0.541667 0.700000
vt 0.541667 0.750000
vt 0.583333 0.700000
vt 0.583333 0.750000
vt 0.625000 0.700000
vt 0.666667 0.700000
vt 0.666667 0.750000
vt 0.708333 0.700000
vt 0.708333 0.750000
vt 0.750000 0.700000
vn 0.000000 -0.965399 -0.260777
vn 0.382683 -0.891912 -0.240927
vn 0.707107 -0.682640 -0.184397
vn 0.923880 -0.369442 -0.099795
vn 1.000000 -0.000000 -0.000000
vn 0.923880 0.369442 0.099795
vn 0.707107 0.682640 0.184397
vn 0.382683 0.891912 0.240927
vn 0.000000 0.965399 0.260777
vn -0.382683 0.891912 0.240927
vn -0.707107 0.682640 0.184397
vn -0.923880 0.369442 0.099795
vn -1.000000 0.000000 0.000000
vn -0.923880 -0.369442 -0.099795
vn -0.707107 -0.682640 -0.184397
vn -0.382683 -0.891912 -0.240927
vn -0.000000 -0.260777 0.965399
vn 0.000000 0.260777 -0.965399
vn 0.000000 -1.000000 0.000000
vn 0.000000 -0.707107 0.707107
vn 0.000000 -0.000000 1.000000
vn -0.000000 0.707107 0.707107
vn -0.000000 1.000000 0.000000
vn 0.000000 0.707107 -0.707107
vn 0.000000 0.000000 -1.000000
vn 0.000000 -0.707107 -0.707107
vn 0.767503 -0.641045 0.000000
vn 0.599476 -0.633225 0.489546
vn 0.270820 -0.455733 0.847918
vn -0.130403 -0.156127 0.979091
vn -0.496684 0.185312 0.847918
vn -0.729879 0.477098 0.489546
vn -0.767503 0.641045 0.000000
vn -0.599476 0.633225 -0.489546
vn -0.270820 0.455733 -0.847918
vn 0.130403 0.156127 -0.979091
vn 0.496684 -0.185312 -0.847918
vn 0.729879 -0.477098 -0.489546
vn -0.627641 -0.751456 -0.203422
vn 0.627641 0.751456 0.203422
usemtl body
f 1/1/1 2/2/1 3/3/2
f 1/1/1 3/3/2 4/4/2
f 4/4/2 3/3/2 5/5/3
f 4/4/2 5/5/3 6/6/3
f 6/6/3 5/5/3 7/7/4
f 6/6/3 7/7/4 8/8/4
f 8/8/4 7/7/4 9/9/5
f 8/8/4 9/9/5 10/10/5
f 10/10/5 9/9/5 11/11/6
f 10/10/5 11/11/6 12/12/6
f 12/12/6 11/11/6 13/13/7
f 12/12/6 13/13/7 14/14/7
f 14/14/7 13/13/7 15/15/8
f 14/14/7 15/15/8 16/16/8
f 16/16/8 15/15/8 17/17/9
f 16/16/8 17/17/9 18/18/9
f 18/18/9 17/17/9 19/19/10
f 18/18/9 19/19/10 20/20/10
f 20/20/10 19/19/10 21/21/11
f 20/20/10 21/21/11 22/22/11
f 22/22/11 21/21/11 23/23/12
f 22/22/11 23/23/12 24/24/12
f 24/24/12 23/23/12 25/25/13
f 24/24/12 25/25/13 26/26/13
f 26/26/13 25/25/13 27/27/14
f 26/26/13 27/27/14 28/28/14
f 28/28/14 27/27/14 29/29/15
f 28/28/14 29/29/15 30/30/15
f 30/30/15 29/29/15 31/31/16
f 30/30/15 31/31/16 32/32/16
f 32/32/16 31/31/16 2/33/1
f 32/32/16 2/33/1 1/34/1
f 33/35/17 1/36/17 4/37/17
f 33/35/17 4/36/17 6/37/17
f 33/35/17 6/36/17 8/37/17
f 33/35/17 8/36/17 10/37/17
f 33/35/17 10/36/17 12/37/17
f 33/35/17 12/36/17 14/37/17
f 33/35/17 14/36/17 16/37/17
f 33/35/17 16/36/17 18/37/17
f 33/35/17 18/36/17 20/37/17
f 33/35/17 20/36/17 22/37/17
f 33/35/17 22/36/17 24/37/17
f 33/35/17 24/36/17 26/37/17
f 33/35/17 26/36/17 28/37/17
f 33/35/17 28/36/17 30/37/17
f 33/35/17 30/36/17 32/37/17
f 33/35/17 32/36/17 1/37/17
f 34/35/18 3/37/18 2/36/18
f 34/35/18 5/37/18 3/36/18
f 34/35/18 7/37/18 5/36/18
f 34/35/18 9/37/18 7/36/18
f 34/35/18 11/37/18 9/36/18
f 34/35/18 13/37/18 11/36/18
f 34/35/18 15/37/18 13/36/18
f 34/35/18 17/37/18 15/36/18
f 34/35/18 19/37/18 17/36/18
f 34/35/18 21/37/18 19/36/18
f 34/35/18 23/37/18 21/36/18
f 34/35/18 25/37/18 23/36/18
f 34/35/18 27/37/18 25/36/18
f 34/35/18 29/37/18 27/36/18
f 34/35/18 31/37/18 29/36/18
f 34/35/18 2/37/18 31/36/18
f 35/1/19 36/38/19 37/39/20
f 35/1/19 37/39/20 38/6/20
f 38/6/20 37/39/20 39/40/21
f 38/6/20 39/40/21 40/10/21
f 40/10/21 39/40/21 41/41/22
f 40/10/21 41/41/22 42/14/22
f 42/14/22 41/41/22 43/42/23
f 42/14/22 43/42/23 44/18/23
f 44/18/23 43/42/23 45/43/24
f 44/18/23 45/43/24 46/22/24
f 46/22/24 45/43/24 47/44/25
f 46/22/24 47/44/25 48/26/25
f 48/26/25 47/44/25 49/45/26
f 48/26/25 49/45/26 50/30/26
f 50/30/26 49/45/26 36/46/19
f 50/30/26 36/46/19 35/34/19
f 51/35/13 35/36/13 38/37/13
f 51/35/13 38/36/13 40/37/13
f 51/35/13 40/36/13 42/37/13
f 51/35/13 42/36/13 44/37/13
f 51/35/13 44/36/13 46/37/13
f 51/35/13 46/36/13 48/37/13
f 51/35/13 48/36/13 50/37/13
f 51/35/13 50/36/13 35/37/13
f 52/35/5 37/37/5 36/36/5
f 52/35/5 39/37/5 37/36/5
f 52/35/5 41/37/5 39/36/5
f 52/35/5 43/37/5 41/36/5
f 52/35/5 45/37/5 43/36/5
f 52/35/5 47/37/5 45/36/5
f 52/35/5 49/37/5 47/36/5
f 52/35/5 36/37/5 49/36/5
f 53/1/27 54/47/27 55/48/28
f 53/1/27 55/48/28 56/49/28
f 56/49/28 55/48/28 57/50/29
f 56/49/28 57/50/29 58/51/29
f 58/51/29 57/50/29 59/52/30
f 58/51/29 59/52/30 60/10/30
f 60/10/30 59/52/30 61/53/31
f 60/10/30 61/53/31 62/54/31
f 62/54/31 61/53/31 63/55/32
f 62/54/31 63/55/32 64/56/32
f 64/56/32 63/55/32 65/57/33
f 64/56/32 65/57/33 66/18/33
f 66/18/33 65/57/33 67/58/34
f 66/18/33 67/58/34 68/59/34
f 68/59/34 67/58/34 69/60/35
f 68/59/34 69/60/35 70/61/35
f 70/61/35 69/60/35 71/62/36
f 70/61/35 71/62/36 72/26/36
f 72/26/36 71/62/36 73/63/37
f 72/26/36 73/63/37 74/64/37
f 74/64/37 73/63/37 75/65/38
f 74/64/37 75/65/38 76/66/38
f 76/66/38 75/65/38 54/67/27
f 76/66/38 54/67/27 53/34/27
f 77/35/39 53/36/39 56/37/39
f 77/35/39 56/36/39 58/37/39
f 77/35/39 58/36/39 60/37/39
f 77/35/39 60/36/39 62/37/39
f 77/35/39 62/36/39 64/37/39
f 77/35/39 64/36/39 66/37/39
f 77/35/39 66/36/39 68/37/39
f 77/35/39 68/36/39 70/37/39
f 77/35/39 70/36/39 72/37/39
f 77/35/39 72/36/39 74/37/39
f 77/35/39 74/36/39 76/37/39
f 77/35/39 76/36/39 53/37/39
f 51/35/40 55/37/40 54/36/40
f 51/35/40 57/37/40 55/36/40
f 51/35/40 59/37/40 57/36/40
f 51/35/40 61/37/40 59/36/40
f 51/35/40 63/37/40 61/36/40
f 51/35/40 65/37/40 63/36/40
f 51/35/40 67/37/40 65/36/40
f 51/35/40 69/37/40 67/36/40
f 51/35/40 71/37/40 69/36/40
f 51/35/40 73/37/40 71/36/40
f 51/35/40 75/37/40 73/36/40
f 51/35/40 54/37/40 75/36/40
