# Procedurally generated by dev-env-utils/scripts/gen_mast_arm_curves.py
# cell 1 of 6 at (+1 along arm, +0 up)
mtllib mastarmcurve.mtl
o mastarm_5x1_c1
v 0.800000 0.860000 1.000000
v 0.798958 0.886389 0.916667
v 0.776201 0.995562 0.950874
v 0.777164 0.969343 1.034990
v 0.711395 1.088114 0.979874
v 0.712132 1.062040 1.064653
v 0.614406 1.149955 0.999251
v 0.614805 1.123978 1.084473
v 0.500000 1.171671 1.006055
v 0.500000 1.145727 1.091433
v 0.385594 1.149955 0.999251
v 0.385195 1.123978 1.084473
v 0.288605 1.088114 0.979874
v 0.287868 1.062040 1.064653
v 0.223799 0.995562 0.950874
v 0.222836 0.969343 1.034990
v 0.201042 0.886389 0.916667
v 0.200000 0.860000 1.000000
v 0.223799 0.777216 0.882459
v 0.222836 0.750657 0.965010
v 0.288605 0.684664 0.853460
v 0.287868 0.657960 0.935347
v 0.385594 0.622823 0.834083
v 0.385195 0.596022 0.915527
v 0.500000 0.601107 0.827278
v 0.500000 0.574273 0.908567
v 0.614406 0.622823 0.834083
v 0.614805 0.596022 0.915527
v 0.711395 0.684664 0.853460
v 0.712132 0.657960 0.935347
v 0.776201 0.777216 0.882459
v 0.777164 0.750657 0.965010
v 0.797917 0.912222 0.833333
v 0.775239 1.021220 0.866759
v 0.710659 1.113624 0.895096
v 0.614008 1.175366 0.914031
v 0.500000 1.197047 0.920680
v 0.385992 1.175366 0.914031
v 0.289341 1.113624 0.895096
v 0.224761 1.021220 0.866759
v 0.202083 0.912222 0.833333
v 0.224761 0.803225 0.799907
v 0.289341 0.710821 0.771570
v 0.385992 0.649079 0.752636
v 0.500000 0.627398 0.745987
v 0.614008 0.649079 0.752636
v 0.710659 0.710821 0.771570
v 0.775239 0.803225 0.799907
v 0.796875 0.937500 0.750000
v 0.774277 1.046318 0.782645
v 0.709922 1.138569 0.810321
v 0.613609 1.200209 0.828813
v 0.500000 1.221855 0.835306
v 0.386391 1.200209 0.828813
v 0.290078 1.138569 0.810321
v 0.225723 1.046318 0.782645
v 0.203125 0.937500 0.750000
v 0.225723 0.828682 0.717355
v 0.290078 0.736431 0.689679
v 0.386391 0.674791 0.671187
v 0.500000 0.653145 0.664694
v 0.613609 0.674791 0.671187
v 0.709922 0.736431 0.689679
v 0.774277 0.828682 0.717355
v 0.795833 0.962222 0.666667
v 0.773314 1.070856 0.698532
v 0.709186 1.162950 0.725547
v 0.613211 1.224486 0.743597
v 0.500000 1.246095 0.749936
v 0.386789 1.224486 0.743597
v 0.290814 1.162950 0.725547
v 0.226686 1.070856 0.698532
v 0.204167 0.962222 0.666667
v 0.226686 0.853589 0.634801
v 0.290814 0.761494 0.607786
v 0.386789 0.699958 0.589736
v 0.500000 0.678350 0.583397
v 0.613211 0.699958 0.589736
v 0.709186 0.761494 0.607786
v 0.773314 0.853589 0.634801
v 0.794792 0.986389 0.583333
v 0.772352 1.094833 0.614421
v 0.708449 1.186767 0.640775
v 0.612812 1.248196 0.658385
v 0.500000 1.269767 0.664568
v 0.387188 1.248196 0.658385
v 0.291551 1.186767 0.640775
v 0.227648 1.094833 0.614421
v 0.205208 0.986389 0.583333
v 0.227648 0.877945 0.552246
v 0.291551 0.786010 0.525892
v 0.387188 0.724582 0.508282
v 0.500000 0.703011 0.502098
v 0.612812 0.724582 0.508282
v 0.708449 0.786010 0.525892
v 0.772352 0.877945 0.552246
v 0.794194 1.000000 0.535534
v 0.771800 1.108333 0.566175
v 0.708027 1.200174 0.592152
v 0.612583 1.261540 0.609508
v 0.500000 1.283088 0.615603
v 0.387417 1.261540 0.609508
v 0.291973 1.200174 0.592152
v 0.228200 1.108333 0.566175
v 0.205806 1.000000 0.535534
v 0.228200 0.891667 0.504893
v 0.291973 0.799826 0.478916
v 0.387417 0.738460 0.461559
v 0.500000 0.716912 0.455464
v 0.612583 0.738460 0.461559
v 0.708027 0.799826 0.478916
v 0.771800 0.891667 0.504893
vt 0.250000 0.302657
vt 0.250000 0.346363
vt 0.281250 0.346363
vt 0.281250 0.302657
vt 0.312500 0.346363
vt 0.312500 0.302657
vt 0.343750 0.346363
vt 0.343750 0.302657
vt 0.375000 0.346363
vt 0.375000 0.302657
vt 0.406250 0.346363
vt 0.406250 0.302657
vt 0.437500 0.346363
vt 0.437500 0.302657
vt 0.468750 0.346363
vt 0.468750 0.302657
vt 0.500000 0.346363
vt 0.500000 0.302657
vt 0.531250 0.346363
vt 0.531250 0.302657
vt 0.562500 0.346363
vt 0.562500 0.302657
vt 0.593750 0.346363
vt 0.593750 0.302657
vt 0.625000 0.346363
vt 0.625000 0.302657
vt 0.656250 0.346363
vt 0.656250 0.302657
vt 0.687500 0.346363
vt 0.687500 0.302657
vt 0.718750 0.346363
vt 0.718750 0.302657
vt 0.750000 0.346363
vt 0.750000 0.302657
vt 0.250000 0.389986
vt 0.281250 0.389986
vt 0.312500 0.389986
vt 0.343750 0.389986
vt 0.375000 0.389986
vt 0.406250 0.389986
vt 0.437500 0.389986
vt 0.468750 0.389986
vt 0.500000 0.389986
vt 0.531250 0.389986
vt 0.562500 0.389986
vt 0.593750 0.389986
vt 0.625000 0.389986
vt 0.656250 0.389986
vt 0.687500 0.389986
vt 0.718750 0.389986
vt 0.750000 0.389986
vt 0.250000 0.433528
vt 0.281250 0.433528
vt 0.312500 0.433528
vt 0.343750 0.433528
vt 0.375000 0.433528
vt 0.406250 0.433528
vt 0.437500 0.433528
vt 0.468750 0.433528
vt 0.500000 0.433528
vt 0.531250 0.433528
vt 0.562500 0.433528
vt 0.593750 0.433528
vt 0.625000 0.433528
vt 0.656250 0.433528
vt 0.687500 0.433528
vt 0.718750 0.433528
vt 0.750000 0.433528
vt 0.250000 0.476989
vt 0.281250 0.476989
vt 0.312500 0.476989
vt 0.343750 0.476989
vt 0.375000 0.476989
vt 0.406250 0.476989
vt 0.437500 0.476989
vt 0.468750 0.476989
vt 0.500000 0.476989
vt 0.531250 0.476989
vt 0.562500 0.476989
vt 0.593750 0.476989
vt 0.625000 0.476989
vt 0.656250 0.476989
vt 0.687500 0.476989
vt 0.718750 0.476989
vt 0.750000 0.476989
vt 0.250000 0.520372
vt 0.281250 0.520372
vt 0.312500 0.520372
vt 0.343750 0.520372
vt 0.375000 0.520372
vt 0.406250 0.520372
vt 0.437500 0.520372
vt 0.468750 0.520372
vt 0.500000 0.520372
vt 0.531250 0.520372
vt 0.562500 0.520372
vt 0.593750 0.520372
vt 0.625000 0.520372
vt 0.656250 0.520372
vt 0.687500 0.520372
vt 0.718750 0.520372
vt 0.750000 0.520372
vt 0.250000 0.545222
vt 0.281250 0.545222
vt 0.312500 0.545222
vt 0.343750 0.545222
vt 0.375000 0.545222
vt 0.406250 0.545222
vt 0.437500 0.545222
vt 0.468750 0.545222
vt 0.500000 0.545222
vt 0.531250 0.545222
vt 0.562500 0.545222
vt 0.593750 0.545222
vt 0.625000 0.545222
vt 0.656250 0.545222
vt 0.687500 0.545222
vt 0.718750 0.545222
vt 0.750000 0.545222
vn 1.000000 0.000000 0.000000
vn 0.923880 0.365177 0.114422
vn 0.923880 0.364477 0.116633
vn 0.707107 0.674759 0.211424
vn 0.707107 0.673466 0.215509
vn 0.382683 0.881615 0.276239
vn 0.382683 0.879925 0.281576
vn 0.000000 0.954253 0.298999
vn 0.000000 0.952424 0.304776
vn -0.382683 0.881615 0.276239
vn -0.382683 0.879925 0.281576
vn -0.707107 0.674759 0.211424
vn -0.707107 0.673466 0.215509
vn -0.923880 0.365177 0.114422
vn -0.923880 0.364477 0.116633
vn -1.000000 0.000000 0.000000
vn -0.923880 -0.365177 -0.114422
vn -0.923880 -0.364477 -0.116633
vn -0.707107 -0.674759 -0.211424
vn -0.707107 -0.673466 -0.215509
vn -0.382683 -0.881615 -0.276239
vn -0.382683 -0.879925 -0.281576
vn -0.000000 -0.954253 -0.298999
vn -0.000000 -0.952424 -0.304776
vn 0.382683 -0.881615 -0.276239
vn 0.382683 -0.879925 -0.281576
vn 0.707107 -0.674759 -0.211424
vn 0.707107 -0.673466 -0.215509
vn 0.923880 -0.365177 -0.114422
vn 0.923880 -0.364477 -0.116633
vn 0.923880 0.365866 0.112199
vn 0.707107 0.676032 0.207317
vn 0.382683 0.883279 0.270872
vn 0.000000 0.956054 0.293190
vn -0.382683 0.883279 0.270872
vn -0.707107 0.676032 0.207317
vn -0.923880 0.365866 0.112199
vn -0.923880 -0.365866 -0.112199
vn -0.707107 -0.676032 -0.207317
vn -0.382683 -0.883279 -0.270872
vn -0.000000 -0.956054 -0.293190
vn 0.382683 -0.883279 -0.270872
vn 0.707107 -0.676032 -0.207317
vn 0.923880 -0.365866 -0.112199
vn 0.923880 0.366544 0.109963
vn 0.707107 0.677285 0.203186
vn 0.382683 0.884916 0.265475
vn 0.000000 0.957826 0.287348
vn -0.382683 0.884916 0.265475
vn -0.707107 0.677285 0.203186
vn -0.923880 0.366544 0.109963
vn -0.923880 -0.366544 -0.109963
vn -0.707107 -0.677285 -0.203186
vn -0.382683 -0.884916 -0.265475
vn -0.000000 -0.957826 -0.287348
vn 0.382683 -0.884916 -0.265475
vn 0.707107 -0.677285 -0.203186
vn 0.923880 -0.366544 -0.109963
vn 0.923880 0.367211 0.107715
vn 0.707107 0.678518 0.199032
vn 0.382683 0.886526 0.260048
vn 0.000000 0.959569 0.281474
vn -0.382683 0.886526 0.260048
vn -0.707107 0.678518 0.199032
vn -0.923880 0.367211 0.107715
vn -0.923880 -0.367211 -0.107715
vn -0.707107 -0.678518 -0.199032
vn -0.382683 -0.886526 -0.260048
vn -0.000000 -0.959569 -0.281474
vn 0.382683 -0.886526 -0.260048
vn 0.707107 -0.678518 -0.199032
vn 0.923880 -0.367211 -0.107715
vn 0.923880 0.367867 0.105455
vn 0.707107 0.679729 0.194856
vn 0.382683 0.888109 0.254591
vn 0.000000 0.961282 0.275567
vn -0.382683 0.888109 0.254591
vn -0.707107 0.679729 0.194856
vn -0.923880 0.367867 0.105455
vn -0.923880 -0.367867 -0.105455
vn -0.707107 -0.679729 -0.194856
vn -0.382683 -0.888109 -0.254591
vn -0.000000 -0.961282 -0.275567
vn 0.382683 -0.888109 -0.254591
vn 0.707107 -0.679729 -0.194856
vn 0.923880 -0.367867 -0.105455
vn 0.923880 0.368237 0.104153
vn 0.707107 0.680414 0.192450
vn 0.382683 0.889003 0.251448
vn 0.000000 0.962250 0.272166
vn -0.382683 0.889003 0.251448
vn -0.707107 0.680414 0.192450
vn -0.923880 0.368237 0.104153
vn -0.923880 -0.368237 -0.104153
vn -0.707107 -0.680414 -0.192450
vn -0.382683 -0.889003 -0.251448
vn -0.000000 -0.962250 -0.272166
vn 0.382683 -0.889003 -0.251448
vn 0.707107 -0.680414 -0.192450
vn 0.923880 -0.368237 -0.104153
usemtl body
f 1/1/1 2/2/1 3/3/2
f 1/1/1 3/3/2 4/4/3
f 4/4/3 3/3/2 5/5/4
f 4/4/3 5/5/4 6/6/5
f 6/6/5 5/5/4 7/7/6
f 6/6/5 7/7/6 8/8/7
f 8/8/7 7/7/6 9/9/8
f 8/8/7 9/9/8 10/10/9
f 10/10/9 9/9/8 11/11/10
f 10/10/9 11/11/10 12/12/11
f 12/12/11 11/11/10 13/13/12
f 12/12/11 13/13/12 14/14/13
f 14/14/13 13/13/12 15/15/14
f 14/14/13 15/15/14 16/16/15
f 16/16/15 15/15/14 17/17/16
f 16/16/15 17/17/16 18/18/16
f 18/18/16 17/17/16 19/19/17
f 18/18/16 19/19/17 20/20/18
f 20/20/18 19/19/17 21/21/19
f 20/20/18 21/21/19 22/22/20
f 22/22/20 21/21/19 23/23/21
f 22/22/20 23/23/21 24/24/22
f 24/24/22 23/23/21 25/25/23
f 24/24/22 25/25/23 26/26/24
f 26/26/24 25/25/23 27/27/25
f 26/26/24 27/27/25 28/28/26
f 28/28/26 27/27/25 29/29/27
f 28/28/26 29/29/27 30/30/28
f 30/30/28 29/29/27 31/31/29
f 30/30/28 31/31/29 32/32/30
f 32/32/30 31/31/29 2/33/1
f 32/32/30 2/33/1 1/34/1
f 2/2/1 33/35/1 34/36/31
f 2/2/1 34/36/31 3/3/2
f 3/3/2 34/36/31 35/37/32
f 3/3/2 35/37/32 5/5/4
f 5/5/4 35/37/32 36/38/33
f 5/5/4 36/38/33 7/7/6
f 7/7/6 36/38/33 37/39/34
f 7/7/6 37/39/34 9/9/8
f 9/9/8 37/39/34 38/40/35
f 9/9/8 38/40/35 11/11/10
f 11/11/10 38/40/35 39/41/36
f 11/11/10 39/41/36 13/13/12
f 13/13/12 39/41/36 40/42/37
f 13/13/12 40/42/37 15/15/14
f 15/15/14 40/42/37 41/43/16
f 15/15/14 41/43/16 17/17/16
f 17/17/16 41/43/16 42/44/38
f 17/17/16 42/44/38 19/19/17
f 19/19/17 42/44/38 43/45/39
f 19/19/17 43/45/39 21/21/19
f 21/21/19 43/45/39 44/46/40
f 21/21/19 44/46/40 23/23/21
f 23/23/21 44/46/40 45/47/41
f 23/23/21 45/47/41 25/25/23
f 25/25/23 45/47/41 46/48/42
f 25/25/23 46/48/42 27/27/25
f 27/27/25 46/48/42 47/49/43
f 27/27/25 47/49/43 29/29/27
f 29/29/27 47/49/43 48/50/44
f 29/29/27 48/50/44 31/31/29
f 31/31/29 48/50/44 33/51/1
f 31/31/29 33/51/1 2/33/1
f 33/35/1 49/52/1 50/53/45
f 33/35/1 50/53/45 34/36/31
f 34/36/31 50/53/45 51/54/46
f 34/36/31 51/54/46 35/37/32
f 35/37/32 51/54/46 52/55/47
f 35/37/32 52/55/47 36/38/33
f 36/38/33 52/55/47 53/56/48
f 36/38/33 53/56/48 37/39/34
f 37/39/34 53/56/48 54/57/49
f 37/39/34 54/57/49 38/40/35
f 38/40/35 54/57/49 55/58/50
f 38/40/35 55/58/50 39/41/36
f 39/41/36 55/58/50 56/59/51
f 39/41/36 56/59/51 40/42/37
f 40/42/37 56/59/51 57/60/16
f 40/42/37 57/60/16 41/43/16
f 41/43/16 57/60/16 58/61/52
f 41/43/16 58/61/52 42/44/38
f 42/44/38 58/61/52 59/62/53
f 42/44/38 59/62/53 43/45/39
f 43/45/39 59/62/53 60/63/54
f 43/45/39 60/63/54 44/46/40
f 44/46/40 60/63/54 61/64/55
f 44/46/40 61/64/55 45/47/41
f 45/47/41 61/64/55 62/65/56
f 45/47/41 62/65/56 46/48/42
f 46/48/42 62/65/56 63/66/57
f 46/48/42 63/66/57 47/49/43
f 47/49/43 63/66/57 64/67/58
f 47/49/43 64/67/58 48/50/44
f 48/50/44 64/67/58 49/68/1
f 48/50/44 49/68/1 33/51/1
f 49/52/1 65/69/1 66/70/59
f 49/52/1 66/70/59 50/53/45
f 50/53/45 66/70/59 67/71/60
f 50/53/45 67/71/60 51/54/46
f 51/54/46 67/71/60 68/72/61
f 51/54/46 68/72/61 52/55/47
f 52/55/47 68/72/61 69/73/62
f 52/55/47 69/73/62 53/56/48
f 53/56/48 69/73/62 70/74/63
f 53/56/48 70/74/63 54/57/49
f 54/57/49 70/74/63 71/75/64
f 54/57/49 71/75/64 55/58/50
f 55/58/50 71/75/64 72/76/65
f 55/58/50 72/76/65 56/59/51
f 56/59/51 72/76/65 73/77/16
f 56/59/51 73/77/16 57/60/16
f 57/60/16 73/77/16 74/78/66
f 57/60/16 74/78/66 58/61/52
f 58/61/52 74/78/66 75/79/67
f 58/61/52 75/79/67 59/62/53
f 59/62/53 75/79/67 76/80/68
f 59/62/53 76/80/68 60/63/54
f 60/63/54 76/80/68 77/81/69
f 60/63/54 77/81/69 61/64/55
f 61/64/55 77/81/69 78/82/70
f 61/64/55 78/82/70 62/65/56
f 62/65/56 78/82/70 79/83/71
f 62/65/56 79/83/71 63/66/57
f 63/66/57 79/83/71 80/84/72
f 63/66/57 80/84/72 64/67/58
f 64/67/58 80/84/72 65/85/1
f 64/67/58 65/85/1 49/68/1
f 65/69/1 81/86/1 82/87/73
f 65/69/1 82/87/73 66/70/59
f 66/70/59 82/87/73 83/88/74
f 66/70/59 83/88/74 67/71/60
f 67/71/60 83/88/74 84/89/75
f 67/71/60 84/89/75 68/72/61
f 68/72/61 84/89/75 85/90/76
f 68/72/61 85/90/76 69/73/62
f 69/73/62 85/90/76 86/91/77
f 69/73/62 86/91/77 70/74/63
f 70/74/63 86/91/77 87/92/78
f 70/74/63 87/92/78 71/75/64
f 71/75/64 87/92/78 88/93/79
f 71/75/64 88/93/79 72/76/65
f 72/76/65 88/93/79 89/94/16
f 72/76/65 89/94/16 73/77/16
f 73/77/16 89/94/16 90/95/80
f 73/77/16 90/95/80 74/78/66
f 74/78/66 90/95/80 91/96/81
f 74/78/66 91/96/81 75/79/67
f 75/79/67 91/96/81 92/97/82
f 75/79/67 92/97/82 76/80/68
f 76/80/68 92/97/82 93/98/83
f 76/80/68 93/98/83 77/81/69
f 77/81/69 93/98/83 94/99/84
f 77/81/69 94/99/84 78/82/70
f 78/82/70 94/99/84 95/100/85
f 78/82/70 95/100/85 79/83/71
f 79/83/71 95/100/85 96/101/86
f 79/83/71 96/101/86 80/84/72
f 80/84/72 96/101/86 81/102/1
f 80/84/72 81/102/1 65/85/1
f 81/86/1 97/103/1 98/104/87
f 81/86/1 98/104/87 82/87/73
f 82/87/73 98/104/87 99/105/88
f 82/87/73 99/105/88 83/88/74
f 83/88/74 99/105/88 100/106/89
f 83/88/74 100/106/89 84/89/75
f 84/89/75 100/106/89 101/107/90
f 84/89/75 101/107/90 85/90/76
f 85/90/76 101/107/90 102/108/91
f 85/90/76 102/108/91 86/91/77
f 86/91/77 102/108/91 103/109/92
f 86/91/77 103/109/92 87/92/78
f 87/92/78 103/109/92 104/110/93
f 87/92/78 104/110/93 88/93/79
f 88/93/79 104/110/93 105/111/16
f 88/93/79 105/111/16 89/94/16
f 89/94/16 105/111/16 106/112/94
f 89/94/16 106/112/94 90/95/80
f 90/95/80 106/112/94 107/113/95
f 90/95/80 107/113/95 91/96/81
f 91/96/81 107/113/95 108/114/96
f 91/96/81 108/114/96 92/97/82
f 92/97/82 108/114/96 109/115/97
f 92/97/82 109/115/97 93/98/83
f 93/98/83 109/115/97 110/116/98
f 93/98/83 110/116/98 94/99/84
f 94/99/84 110/116/98 111/117/99
f 94/99/84 111/117/99 95/100/85
f 95/100/85 111/117/99 112/118/100
f 95/100/85 112/118/100 96/101/86
f 96/101/86 112/118/100 97/119/1
f 96/101/86 97/119/1 81/102/1
