# Procedurally generated by dev-env-utils/scripts/gen_mast_arm_curves.py
# mount hardware on cell 4, model-space east
mtllib mastarmcurve.mtl
o mastarm_8x2_c4_east
v 0.500000 0.499619 0.593404
v 0.500000 0.551362 0.413185
v 0.625437 0.575344 0.420071
v 0.625437 0.523601 0.600290
v 0.731778 0.643639 0.439679
v 0.731778 0.591897 0.619898
v 0.802832 0.745851 0.469025
v 0.802832 0.694108 0.649244
v 0.827783 0.866417 0.503640
v 0.827783 0.814674 0.683860
v 0.802832 0.986983 0.538256
v 0.802832 0.935241 0.718475
v 0.731778 1.089195 0.567602
v 0.731778 1.037452 0.747821
v 0.625437 1.157490 0.587210
v 0.625437 1.105747 0.767429
v 0.500000 1.181472 0.594096
v 0.500000 1.129729 0.774315
v 0.374563 1.157490 0.587210
v 0.374563 1.105747 0.767429
v 0.268222 1.089195 0.567602
v 0.268222 1.037452 0.747821
v 0.197168 0.986983 0.538256
v 0.197168 0.935241 0.718475
v 0.172217 0.866417 0.503640
v 0.172217 0.814674 0.683860
v 0.197168 0.745851 0.469025
v 0.197168 0.694108 0.649244
v 0.268222 0.643639 0.439679
v 0.268222 0.591897 0.619898
v 0.374563 0.575344 0.420071
v 0.374563 0.523601 0.600290
v 0.500000 0.814674 0.683860
v 0.500000 0.866417 0.503640
v 0.925000 0.300000 0.500000
v 0.999375 0.300000 0.500000
v 0.999375 0.358579 0.641421
v 0.925000 0.358579 0.641421
v 0.999375 0.500000 0.700000
v 0.925000 0.500000 0.700000
v 0.999375 0.641421 0.641421
v 0.925000 0.641421 0.641421
v 0.999375 0.700000 0.500000
v 0.925000 0.700000 0.500000
v 0.999375 0.641421 0.358579
v 0.925000 0.641421 0.358579
v 0.999375 0.500000 0.300000
v 0.925000 0.500000 0.300000
v 0.999375 0.358579 0.358579
v 0.925000 0.358579 0.358579
v 0.925000 0.500000 0.500000
v 0.999375 0.500000 0.500000
v 0.624271 0.636009 0.557910
v 0.858123 0.425653 0.500000
v 0.873814 0.429559 0.549174
v 0.639962 0.639915 0.607083
v 0.903220 0.452340 0.585171
v 0.669368 0.662696 0.643081
v 0.938462 0.487891 0.598347
v 0.704610 0.698247 0.656257
v 0.970097 0.526687 0.585171
v 0.736245 0.737043 0.643081
v 0.989648 0.558332 0.549174
v 0.755796 0.768688 0.607083
v 0.991877 0.574347 0.500000
v 0.758025 0.784703 0.557910
v 0.976186 0.570441 0.450826
v 0.742335 0.780797 0.508736
v 0.946780 0.547660 0.414829
v 0.712929 0.758016 0.472739
v 0.911538 0.512109 0.401653
v 0.677687 0.722465 0.459563
v 0.879903 0.473313 0.414829
v 0.646052 0.683670 0.472739
v 0.860352 0.441668 0.450826
v 0.626500 0.652024 0.508736
v 0.691148 0.710356 0.557910
vt 0.250000 0.750000
vt 0.250000 0.586108
vt 0.281250 0.586108
vt 0.281250 0.750000
vt 0.312500 0.586108
vt 0.312500 0.750000
vt 0.343750 0.586108
vt 0.343750 0.750000
vt 0.375000 0.586108
vt 0.375000 0.750000
vt 0.406250 0.586108
vt 0.406250 0.750000
vt 0.437500 0.586108
vt 0.437500 0.750000
vt 0.468750 0.586108
vt 0.468750 0.750000
vt 0.500000 0.586108
vt 0.500000 0.750000
vt 0.531250 0.586108
vt 0.531250 0.750000
vt 0.562500 0.586108
vt 0.562500 0.750000
vt 0.593750 0.586108
vt 0.593750 0.750000
vt 0.625000 0.586108
vt 0.625000 0.750000
vt 0.656250 0.586108
vt 0.656250 0.750000
vt 0.687500 0.586108
vt 0.687500 0.750000
vt 0.718750 0.586108
vt 0.718750 0.750000
vt 0.750000 0.586108
vt 0.750000 0.750000
vt 0.500000 0.500000
vt 0.400000 0.600000
vt 0.600000 0.400000
vt 0.250000 0.650000
vt 0.312500 0.650000
vt 0.375000 0.650000
vt 0.437500 0.650000
vt 0.500000 0.650000
vt 0.562500 0.650000
vt 0.625000 0.650000
vt 0.687500 0.650000
vt 0.750000 0.650000
vt 0.250000 0.700000
vt 0.291667 0.700000
vt 0.291667 0.750000
vt 0.333333 0.700000
vt 0.333333 0.750000
vt 0.375000 0.700000
vt 0.416667 0.700000
vt 0.416667 0.750000
vt 0.458333 0.700000
vt 0.458333 0.750000
vt 0.500000 0.700000
vt 0.541667 0.700000
vt 0.541667 0.750000
vt 0.583333 0.700000
vt 0.583333 0.750000
vt 0.625000 0.700000
vt 0.666667 0.700000
vt 0.666667 0.750000
vt 0.708333 0.700000
vt 0.708333 0.750000
vt 0.750000 0.700000
vn 0.000000 -0.961169 -0.275961
vn 0.382683 -0.888004 -0.254954
vn 0.707107 -0.679649 -0.195134
vn 0.923880 -0.367823 -0.105606
vn 1.000000 -0.000000 -0.000000
vn 0.923880 0.367823 0.105606
vn 0.707107 0.679649 0.195134
vn 0.382683 0.888004 0.254954
vn 0.000000 0.961169 0.275961
vn -0.382683 0.888004 0.254954
vn -0.707107 0.679649 0.195134
vn -0.923880 0.367823 0.105606
vn -1.000000 0.000000 0.000000
vn -0.923880 -0.367823 -0.105606
vn -0.707107 -0.679649 -0.195134
vn -0.382683 -0.888004 -0.254954
vn -0.000000 -0.275961 0.961169
vn 0.000000 0.275961 -0.961169
vn 0.000000 -1.000000 0.000000
vn 0.000000 -0.707107 0.707107
vn 0.000000 -0.000000 1.000000
vn -0.000000 0.707107 0.707107
vn -0.000000 1.000000 0.000000
vn 0.000000 0.707107 -0.707107
vn 0.000000 0.000000 -1.000000
vn 0.000000 -0.707107 -0.707107
vn -0.668771 -0.743468 0.000000
vn -0.511865 -0.704408 0.491736
vn -0.217804 -0.476602 0.851711
vn 0.134616 -0.121091 0.983471
vn 0.450967 0.266866 0.851711
vn 0.646481 0.583317 0.491736
vn 0.668771 0.743468 0.000000
vn 0.511865 0.704408 -0.491736
vn 0.217804 0.476602 -0.851711
vn -0.134616 0.121091 -0.983471
vn -0.450967 -0.266866 -0.851711
vn -0.646481 -0.583317 -0.491736
vn -0.731180 0.657717 0.181065
vn 0.731180 -0.657717 -0.181065
usemtl body
f 1/1/1 2/2/1 3/3/2
f 1/1/1 3/3/2 4/4/2
f 4/4/2 3/3/2 5/5/3
f 4/4/2 5/5/3 6/6/3
f 6/6/3 5/5/3 7/7/4
f 6/6/3 7/7/4 8/8/4
f 8/8/4 7/7/4 9/9/5
f 8/8/4 9/9/5 10/10/5
f 10/10/5 9/9/5 11/11/6
f 10/10/5 11/11/6 12/12/6
f 12/12/6 11/11/6 13/13/7
f 12/12/6 13/13/7 14/14/7
f 14/14/7 13/13/7 15/15/8
f 14/14/7 15/15/8 16/16/8
f 16/16/8 15/15/8 17/17/9
f 16/16/8 17/17/9 18/18/9
f 18/18/9 17/17/9 19/19/10
f 18/18/9 19/19/10 20/20/10
f 20/20/10 19/19/10 21/21/11
f 20/20/10 21/21/11 22/22/11
f 22/22/11 21/21/11 23/23/12
f 22/22/11 23/23/12 24/24/12
f 24/24/12 23/23/12 25/25/13
f 24/24/12 25/25/13 26/26/13
f 26/26/13 25/25/13 27/27/14
f 26/26/13 27/27/14 28/28/14
f 28/28/14 27/27/14 29/29/15
f 28/28/14 29/29/15 30/30/15
f 30/30/15 29/29/15 31/31/16
f 30/30/15 31/31/16 32/32/16
f 32/32/16 31/31/16 2/33/1
f 32/32/16 2/33/1 1/34/1
f 33/35/17 1/36/17 4/37/17
f 33/35/17 4/36/17 6/37/17
f 33/35/17 6/36/17 8/37/17
f 33/35/17 8/36/17 10/37/17
f 33/35/17 10/36/17 12/37/17
f 33/35/17 12/36/17 14/37/17
f 33/35/17 14/36/17 16/37/17
f 33/35/17 16/36/17 18/37/17
f 33/35/17 18/36/17 20/37/17
f 33/35/17 20/36/17 22/37/17
f 33/35/17 22/36/17 24/37/17
f 33/35/17 24/36/17 26/37/17
f 33/35/17 26/36/17 28/37/17
f 33/35/17 28/36/17 30/37/17
f 33/35/17 30/36/17 32/37/17
f 33/35/17 32/36/17 1/37/17
f 34/35/18 3/37/18 2/36/18
f 34/35/18 5/37/18 3/36/18
f 34/35/18 7/37/18 5/36/18
f 34/35/18 9/37/18 7/36/18
f 34/35/18 11/37/18 9/36/18
f 34/35/18 13/37/18 11/36/18
f 34/35/18 15/37/18 13/36/18
f 34/35/18 17/37/18 15/36/18
f 34/35/18 19/37/18 17/36/18
f 34/35/18 21/37/18 19/36/18
f 34/35/18 23/37/18 21/36/18
f 34/35/18 25/37/18 23/36/18
f 34/35/18 27/37/18 25/36/18
f 34/35/18 29/37/18 27/36/18
f 34/35/18 31/37/18 29/36/18
f 34/35/18 2/37/18 31/36/18
f 35/1/19 36/38/19 37/39/20
f 35/1/19 37/39/20 38/6/20
f 38/6/20 37/39/20 39/40/21
f 38/6/20 39/40/21 40/10/21
f 40/10/21 39/40/21 41/41/22
f 40/10/21 41/41/22 42/14/22
f 42/14/22 41/41/22 43/42/23
f 42/14/22 43/42/23 44/18/23
f 44/18/23 43/42/23 45/43/24
f 44/18/23 45/43/24 46/22/24
f 46/22/24 45/43/24 47/44/25
f 46/22/24 47/44/25 48/26/25
f 48/26/25 47/44/25 49/45/26
f 48/26/25 49/45/26 50/30/26
f 50/30/26 49/45/26 36/46/19
f 50/30/26 36/46/19 35/34/19
f 51/35/13 35/36/13 38/37/13
f 51/35/13 38/36/13 40/37/13
f 51/35/13 40/36/13 42/37/13
f 51/35/13 42/36/13 44/37/13
f 51/35/13 44/36/13 46/37/13
f 51/35/13 46/36/13 48/37/13
f 51/35/13 48/36/13 50/37/13
f 51/35/13 50/36/13 35/37/13
f 52/35/5 37/37/5 36/36/5
f 52/35/5 39/37/5 37/36/5
f 52/35/5 41/37/5 39/36/5
f 52/35/5 43/37/5 41/36/5
f 52/35/5 45/37/5 43/36/5
f 52/35/5 47/37/5 45/36/5
f 52/35/5 49/37/5 47/36/5
f 52/35/5 36/37/5 49/36/5
f 53/1/27 54/47/27 55/48/28
f 53/1/27 55/48/28 56/49/28
f 56/49/28 55/48/28 57/50/29
f 56/49/28 57/50/29 58/51/29
f 58/51/29 57/50/29 59/52/30
f 58/51/29 59/52/30 60/10/30
f 60/10/30 59/52/30 61/53/31
f 60/10/30 61/53/31 62/54/31
f 62/54/31 61/53/31 63/55/32
f 62/54/31 63/55/32 64/56/32
f 64/56/32 63/55/32 65/57/33
f 64/56/32 65/57/33 66/18/33
f 66/18/33 65/57/33 67/58/34
f 66/18/33 67/58/34 68/59/34
f 68/59/34 67/58/34 69/60/35
f 68/59/34 69/60/35 70/61/35
f 70/61/35 69/60/35 71/62/36
f 70/61/35 71/62/36 72/26/36
f 72/26/36 71/62/36 73/63/37
f 72/26/36 73/63/37 74/64/37
f 74/64/37 73/63/37 75/65/38
f 74/64/37 75/65/38 76/66/38
f 76/66/38 75/65/38 54/67/27
f 76/66/38 54/67/27 53/34/27
f 77/35/39 53/36/39 56/37/39
f 77/35/39 56/36/39 58/37/39
f 77/35/39 58/36/39 60/37/39
f 77/35/39 60/36/39 62/37/39
f 77/35/39 62/36/39 64/37/39
f 77/35/39 64/36/39 66/37/39
f 77/35/39 66/36/39 68/37/39
f 77/35/39 68/36/39 70/37/39
f 77/35/39 70/36/39 72/37/39
f 77/35/39 72/36/39 74/37/39
f 77/35/39 74/36/39 76/37/39
f 77/35/39 76/36/39 53/37/39
f 51/35/40 55/37/40 54/36/40
f 51/35/40 57/37/40 55/36/40
f 51/35/40 59/37/40 57/36/40
f 51/35/40 61/37/40 59/36/40
f 51/35/40 63/37/40 61/36/40
f 51/35/40 65/37/40 63/36/40
f 51/35/40 67/37/40 65/36/40
f 51/35/40 69/37/40 67/36/40
f 51/35/40 71/37/40 69/36/40
f 51/35/40 73/37/40 71/36/40
f 51/35/40 75/37/40 73/36/40
f 51/35/40 54/37/40 75/36/40
