# Procedurally generated by dev-env-utils/scripts/gen_mast_arm_curves.py
# mount hardware on cell 9, model-space west
mtllib mastarmcurve.mtl
o mastarm_10x2_c9_west
v 0.500000 0.053267 0.546460
v 0.500000 0.071809 0.359879
v 0.620762 0.095712 0.362254
v 0.620762 0.077171 0.548835
v 0.723139 0.163783 0.369019
v 0.723139 0.145241 0.555600
v 0.791545 0.265658 0.379143
v 0.791545 0.247117 0.565724
v 0.815566 0.385828 0.391085
v 0.815566 0.367287 0.577665
v 0.791545 0.505998 0.403026
v 0.791545 0.487457 0.589607
v 0.723139 0.607874 0.413150
v 0.723139 0.589332 0.599731
v 0.620762 0.675945 0.419915
v 0.620762 0.657403 0.606496
v 0.500000 0.699848 0.422290
v 0.500000 0.681307 0.608871
v 0.379238 0.675945 0.419915
v 0.379238 0.657403 0.606496
v 0.276861 0.607874 0.413150
v 0.276861 0.589332 0.599731
v 0.208455 0.505998 0.403026
v 0.208455 0.487457 0.589607
v 0.184434 0.385828 0.391085
v 0.184434 0.367287 0.577665
v 0.208455 0.265658 0.379143
v 0.208455 0.247117 0.565724
v 0.276861 0.163783 0.369019
v 0.276861 0.145241 0.555600
v 0.379238 0.095712 0.362254
v 0.379238 0.077171 0.548835
v 0.500000 0.367287 0.577665
v 0.500000 0.385828 0.391085
v 0.075000 0.700000 0.500000
v 0.000625 0.700000 0.500000
v 0.000625 0.641421 0.641421
v 0.075000 0.641421 0.641421
v 0.000625 0.500000 0.700000
v 0.075000 0.500000 0.700000
v 0.000625 0.358579 0.641421
v 0.075000 0.358579 0.641421
v 0.000625 0.300000 0.500000
v 0.075000 0.300000 0.500000
v 0.000625 0.358579 0.358579
v 0.075000 0.358579 0.358579
v 0.000625 0.500000 0.300000
v 0.075000 0.500000 0.300000
v 0.000625 0.641421 0.358579
v 0.075000 0.641421 0.358579
v 0.075000 0.500000 0.500000
v 0.000625 0.500000 0.500000
v 0.316528 0.524516 0.491102
v 0.106779 0.594816 0.500000
v 0.104427 0.581475 0.549960
v 0.314175 0.511174 0.541061
v 0.094190 0.546302 0.586533
v 0.303938 0.476002 0.577634
v 0.078811 0.498723 0.599919
v 0.288559 0.428423 0.591021
v 0.062411 0.451486 0.586533
v 0.272159 0.381186 0.577634
v 0.049384 0.417248 0.549960
v 0.259133 0.346948 0.541061
v 0.043221 0.405184 0.500000
v 0.252970 0.334884 0.491102
v 0.045573 0.418525 0.450040
v 0.255322 0.348225 0.441142
v 0.055810 0.453698 0.413467
v 0.265559 0.383398 0.404569
v 0.071189 0.501277 0.400081
v 0.280938 0.430977 0.391182
v 0.087589 0.548514 0.413467
v 0.297338 0.478214 0.404569
v 0.100616 0.582752 0.450040
v 0.310365 0.512452 0.441142
v 0.284749 0.429700 0.491102
vt 0.250000 0.750000
vt 0.250000 0.592217
vt 0.281250 0.592217
vt 0.281250 0.750000
vt 0.312500 0.592217
vt 0.312500 0.750000
vt 0.343750 0.592217
vt 0.343750 0.750000
vt 0.375000 0.592217
vt 0.375000 0.750000
vt 0.406250 0.592217
vt 0.406250 0.750000
vt 0.437500 0.592217
vt 0.437500 0.750000
vt 0.468750 0.592217
vt 0.468750 0.750000
vt 0.500000 0.592217
vt 0.500000 0.750000
vt 0.531250 0.592217
vt 0.531250 0.750000
vt 0.562500 0.592217
vt 0.562500 0.750000
vt 0.593750 0.592217
vt 0.593750 0.750000
vt 0.625000 0.592217
vt 0.625000 0.750000
vt 0.656250 0.592217
vt 0.656250 0.750000
vt 0.687500 0.592217
vt 0.687500 0.750000
vt 0.718750 0.592217
vt 0.718750 0.750000
vt 0.750000 0.592217
vt 0.750000 0.750000
vt 0.500000 0.500000
vt 0.400000 0.600000
vt 0.600000 0.400000
vt 0.250000 0.650000
vt 0.312500 0.650000
vt 0.375000 0.650000
vt 0.437500 0.650000
vt 0.500000 0.650000
vt 0.562500 0.650000
vt 0.625000 0.650000
vt 0.687500 0.650000
vt 0.750000 0.650000
vt 0.250000 0.700000
vt 0.291667 0.700000
vt 0.291667 0.750000
vt 0.333333 0.700000
vt 0.333333 0.750000
vt 0.375000 0.700000
vt 0.416667 0.700000
vt 0.416667 0.750000
vt 0.458333 0.700000
vt 0.458333 0.750000
vt 0.500000 0.700000
vt 0.541667 0.700000
vt 0.541667 0.750000
vt 0.583333 0.700000
vt 0.583333 0.750000
vt 0.625000 0.700000
vt 0.666667 0.700000
vt 0.666667 0.750000
vt 0.708333 0.700000
vt 0.708333 0.750000
vt 0.750000 0.700000
vn 0.000000 -0.995099 -0.098888
vn 0.382683 -0.919351 -0.091361
vn 0.707107 -0.703641 -0.069924
vn 0.923880 -0.380808 -0.037843
vn 1.000000 -0.000000 -0.000000
vn 0.923880 0.380808 0.037843
vn 0.707107 0.703641 0.069924
vn 0.382683 0.919351 0.091361
vn 0.000000 0.995099 0.098888
vn -0.382683 0.919351 0.091361
vn -0.707107 0.703641 0.069924
vn -0.923880 0.380808 0.037843
vn -1.000000 0.000000 0.000000
vn -0.923880 -0.380808 -0.037843
vn -0.707107 -0.703641 -0.069924
vn -0.382683 -0.919351 -0.091361
vn -0.000000 -0.098888 0.995099
vn 0.000000 0.098888 -0.995099
vn 0.000000 1.000000 0.000000
vn 0.000000 0.707107 0.707107
vn 0.000000 0.000000 1.000000
vn 0.000000 -0.707107 0.707107
vn 0.000000 -1.000000 0.000000
vn -0.000000 -0.707107 -0.707107
vn -0.000000 -0.000000 -1.000000
vn 0.000000 0.707107 -0.707107
vn 0.317789 0.948161 0.000000
vn 0.294268 0.814746 0.499596
vn 0.191898 0.463019 0.865326
vn 0.038109 -0.012773 0.999192
vn -0.125891 -0.485142 0.865326
vn -0.256159 -0.827518 0.499596
vn -0.317789 -0.948161 0.000000
vn -0.294268 -0.814746 -0.499596
vn -0.191898 -0.463019 -0.865326
vn -0.038109 0.012773 -0.999192
vn 0.125891 0.485142 -0.865326
vn 0.256159 0.827518 -0.499596
vn 0.947395 -0.317532 -0.040192
vn -0.947395 0.317532 0.040192
usemtl body
f 1/1/1 2/2/1 3/3/2
f 1/1/1 3/3/2 4/4/2
f 4/4/2 3/3/2 5/5/3
f 4/4/2 5/5/3 6/6/3
f 6/6/3 5/5/3 7/7/4
f 6/6/3 7/7/4 8/8/4
f 8/8/4 7/7/4 9/9/5
f 8/8/4 9/9/5 10/10/5
f 10/10/5 9/9/5 11/11/6
f 10/10/5 11/11/6 12/12/6
f 12/12/6 11/11/6 13/13/7
f 12/12/6 13/13/7 14/14/7
f 14/14/7 13/13/7 15/15/8
f 14/14/7 15/15/8 16/16/8
f 16/16/8 15/15/8 17/17/9
f 16/16/8 17/17/9 18/18/9
f 18/18/9 17/17/9 19/19/10
f 18/18/9 19/19/10 20/20/10
f 20/20/10 19/19/10 21/21/11
f 20/20/10 21/21/11 22/22/11
f 22/22/11 21/21/11 23/23/12
f 22/22/11 23/23/12 24/24/12
f 24/24/12 23/23/12 25/25/13
f 24/24/12 25/25/13 26/26/13
f 26/26/13 25/25/13 27/27/14
f 26/26/13 27/27/14 28/28/14
f 28/28/14 27/27/14 29/29/15
f 28/28/14 29/29/15 30/30/15
f 30/30/15 29/29/15 31/31/16
f 30/30/15 31/31/16 32/32/16
f 32/32/16 31/31/16 2/33/1
f 32/32/16 2/33/1 1/34/1
f 33/35/17 1/36/17 4/37/17
f 33/35/17 4/36/17 6/37/17
f 33/35/17 6/36/17 8/37/17
f 33/35/17 8/36/17 10/37/17
f 33/35/17 10/36/17 12/37/17
f 33/35/17 12/36/17 14/37/17
f 33/35/17 14/36/17 16/37/17
f 33/35/17 16/36/17 18/37/17
f 33/35/17 18/36/17 20/37/17
f 33/35/17 20/36/17 22/37/17
f 33/35/17 22/36/17 24/37/17
f 33/35/17 24/36/17 26/37/17
f 33/35/17 26/36/17 28/37/17
f 33/35/17 28/36/17 30/37/17
f 33/35/17 30/36/17 32/37/17
f 33/35/17 32/36/17 1/37/17
f 34/35/18 3/37/18 2/36/18
f 34/35/18 5/37/18 3/36/18
f 34/35/18 7/37/18 5/36/18
f 34/35/18 9/37/18 7/36/18
f 34/35/18 11/37/18 9/36/18
f 34/35/18 13/37/18 11/36/18
f 34/35/18 15/37/18 13/36/18
f 34/35/18 17/37/18 15/36/18
f 34/35/18 19/37/18 17/36/18
f 34/35/18 21/37/18 19/36/18
f 34/35/18 23/37/18 21/36/18
f 34/35/18 25/37/18 23/36/18
f 34/35/18 27/37/18 25/36/18
f 34/35/18 29/37/18 27/36/18
f 34/35/18 31/37/18 29/36/18
f 34/35/18 2/37/18 31/36/18
f 35/1/19 36/38/19 37/39/20
f 35/1/19 37/39/20 38/6/20
f 38/6/20 37/39/20 39/40/21
f 38/6/20 39/40/21 40/10/21
f 40/10/21 39/40/21 41/41/22
f 40/10/21 41/41/22 42/14/22
f 42/14/22 41/41/22 43/42/23
f 42/14/22 43/42/23 44/18/23
f 44/18/23 43/42/23 45/43/24
f 44/18/23 45/43/24 46/22/24
f 46/22/24 45/43/24 47/44/25
f 46/22/24 47/44/25 48/26/25
f 48/26/25 47/44/25 49/45/26
f 48/26/25 49/45/26 50/30/26
f 50/30/26 49/45/26 36/46/19
f 50/30/26 36/46/19 35/34/19
f 51/35/5 35/36/5 38/37/5
f 51/35/5 38/36/5 40/37/5
f 51/35/5 40/36/5 42/37/5
f 51/35/5 42/36/5 44/37/5
f 51/35/5 44/36/5 46/37/5
f 51/35/5 46/36/5 48/37/5
f 51/35/5 48/36/5 50/37/5
f 51/35/5 50/36/5 35/37/5
f 52/35/13 37/37/13 36/36/13
f 52/35/13 39/37/13 37/36/13
f 52/35/13 41/37/13 39/36/13
f 52/35/13 43/37/13 41/36/13
f 52/35/13 45/37/13 43/36/13
f 52/35/13 47/37/13 45/36/13
f 52/35/13 49/37/13 47/36/13
f 52/35/13 36/37/13 49/36/13
f 53/1/27 54/47/27 55/48/28
f 53/1/27 55/48/28 56/49/28
f 56/49/28 55/48/28 57/50/29
f 56/49/28 57/50/29 58/51/29
f 58/51/29 57/50/29 59/52/30
f 58/51/29 59/52/30 60/10/30
f 60/10/30 59/52/30 61/53/31
f 60/10/30 61/53/31 62/54/31
f 62/54/31 61/53/31 63/55/32
f 62/54/31 63/55/32 64/56/32
f 64/56/32 63/55/32 65/57/33
f 64/56/32 65/57/33 66/18/33
f 66/18/33 65/57/33 67/58/34
f 66/18/33 67/58/34 68/59/34
f 68/59/34 67/58/34 69/60/35
f 68/59/34 69/60/35 70/61/35
f 70/61/35 69/60/35 71/62/36
f 70/61/35 71/62/36 72/26/36
f 72/26/36 71/62/36 73/63/37
f 72/26/36 73/63/37 74/64/37
f 74/64/37 73/63/37 75/65/38
f 74/64/37 75/65/38 76/66/38
f 76/66/38 75/65/38 54/67/27
f 76/66/38 54/67/27 53/34/27
f 77/35/39 53/36/39 56/37/39
f 77/35/39 56/36/39 58/37/39
f 77/35/39 58/36/39 60/37/39
f 77/35/39 60/36/39 62/37/39
f 77/35/39 62/36/39 64/37/39
f 77/35/39 64/36/39 66/37/39
f 77/35/39 66/36/39 68/37/39
f 77/35/39 68/36/39 70/37/39
f 77/35/39 70/36/39 72/37/39
f 77/35/39 72/36/39 74/37/39
f 77/35/39 74/36/39 76/37/39
f 77/35/39 76/36/39 53/37/39
f 51/35/40 55/37/40 54/36/40
f 51/35/40 57/37/40 55/36/40
f 51/35/40 59/37/40 57/36/40
f 51/35/40 61/37/40 59/36/40
f 51/35/40 63/37/40 61/36/40
f 51/35/40 65/37/40 63/36/40
f 51/35/40 67/37/40 65/36/40
f 51/35/40 69/37/40 67/36/40
f 51/35/40 71/37/40 69/36/40
f 51/35/40 73/37/40 71/36/40
f 51/35/40 75/37/40 73/36/40
f 51/35/40 54/37/40 75/36/40
