# Procedurally generated by dev-env-utils/scripts/gen_large_custom_signs.py -- do not hand edit
# 5 x 1 block plate centred on its block, shift=back_to_back
mtllib cars_only_banner_sign.mtl
o cars_only_banner_sign_back_to_back
v 3.000000 0.000000 1.750000
v -2.000000 0.000000 1.750000
v -2.000000 1.000000 1.750000
v 3.000000 1.000000 1.750000
v -2.000000 0.000000 1.781250
v 3.000000 0.000000 1.781250
v 3.000000 1.000000 1.781250
v -2.000000 1.000000 1.781250
vt 0.000000 0.000000
vt 1.000000 0.000000
vt 1.000000 1.000000
vt 0.000000 1.000000
vt 1.000000 0.031250
vt 0.000000 0.031250
vt 0.031250 0.000000
vt 0.031250 1.000000
vn 0.000000 0.000000 -1.000000
vn 0.000000 0.000000 1.000000
vn 0.000000 1.000000 0.000000
vn 0.000000 -1.000000 0.000000
vn 1.000000 0.000000 0.000000
vn -1.000000 0.000000 0.000000
usemtl back
f 5/1/2 6/2/2 7/3/2
f 5/1/2 7/3/2 8/4/2
f 8/1/3 7/2/3 4/5/3
f 8/1/3 4/5/3 3/6/3
f 2/1/4 1/2/4 6/5/4
f 2/1/4 6/5/4 5/6/4
f 6/1/5 1/7/5 4/8/5
f 6/1/5 4/8/5 7/4/5
f 2/1/6 5/7/6 8/8/6
f 2/1/6 8/8/6 3/4/6
usemtl face
f 1/1/1 2/2/1 3/3/1
f 1/1/1 3/3/1 4/4/1
