# Procedurally generated by dev-env-utils/scripts/gen_large_custom_signs.py -- do not hand edit
# 3 x 2 block plate centred on its block, shift=back_to_back
mtllib danger_low_clearance_sign.mtl
o danger_low_clearance_sign_back_to_back
v 2.000000 -0.500000 1.750000
v -1.000000 -0.500000 1.750000
v -1.000000 1.500000 1.750000
v 2.000000 1.500000 1.750000
v -1.000000 -0.500000 1.781250
v 2.000000 -0.500000 1.781250
v 2.000000 1.500000 1.781250
v -1.000000 1.500000 1.781250
vt 0.063477 0.209961
vt 0.934570 0.209961
vt 0.934570 0.790039
vt 0.063477 0.790039
vt 0.000000 0.000000
vt 1.000000 0.000000
vt 1.000000 1.000000
vt 0.000000 1.000000
vt 1.000000 0.031250
vt 0.000000 0.031250
vt 0.031250 0.000000
vt 0.031250 1.000000
vn 0.000000 0.000000 -1.000000
vn 0.000000 0.000000 1.000000
vn 0.000000 1.000000 0.000000
vn 0.000000 -1.000000 0.000000
vn 1.000000 0.000000 0.000000
vn -1.000000 0.000000 0.000000
usemtl back
f 5/5/2 6/6/2 7/7/2
f 5/5/2 7/7/2 8/8/2
f 8/5/3 7/6/3 4/9/3
f 8/5/3 4/9/3 3/10/3
f 2/5/4 1/6/4 6/9/4
f 2/5/4 6/9/4 5/10/4
f 6/5/5 1/11/5 4/12/5
f 6/5/5 4/12/5 7/8/5
f 2/5/6 5/11/6 8/12/6
f 2/5/6 8/12/6 3/8/6
usemtl face
f 1/1/1 2/2/1 3/3/1
f 1/1/1 3/3/1 4/4/1
