# Procedurally generated by dev-env-utils/scripts/gen_large_custom_signs.py -- do not hand edit
# 3 x 2 block plate centred on its block, shift=none
mtllib danger_low_clearance_sign.mtl
o danger_low_clearance_sign
v 2.000000 -0.500000 0.000000
v -1.000000 -0.500000 0.000000
v -1.000000 1.500000 0.000000
v 2.000000 1.500000 0.000000
v -1.000000 -0.500000 0.031250
v 2.000000 -0.500000 0.031250
v 2.000000 1.500000 0.031250
v -1.000000 1.500000 0.031250
v 0.468750 0.000000 0.218750
v 0.531250 0.000000 0.218750
v 0.531250 1.000000 0.218750
v 0.468750 1.000000 0.218750
v 0.531250 0.000000 0.031250
v 0.531250 1.000000 0.031250
v 0.468750 0.000000 0.031250
v 0.468750 1.000000 0.031250
vt 0.063477 0.209961
vt 0.934570 0.209961
vt 0.934570 0.790039
vt 0.063477 0.790039
vt 0.000000 0.000000
vt 1.000000 0.000000
vt 1.000000 1.000000
vt 0.000000 1.000000
vt 1.000000 0.031250
vt 0.000000 0.031250
vt 0.031250 0.000000
vt 0.031250 1.000000
vt 0.250000 0.000000
vt 0.250000 1.000000
vn 0.000000 0.000000 -1.000000
vn 0.000000 0.000000 1.000000
vn 0.000000 1.000000 0.000000
vn 0.000000 -1.000000 0.000000
vn 1.000000 0.000000 0.000000
vn -1.000000 0.000000 0.000000
usemtl back
f 5/5/2 6/6/2 7/7/2
f 5/5/2 7/7/2 8/8/2
f 8/5/3 7/6/3 4/9/3
f 8/5/3 4/9/3 3/10/3
f 2/5/4 1/6/4 6/9/4
f 2/5/4 6/9/4 5/10/4
f 6/5/5 1/11/5 4/12/5
f 6/5/5 4/12/5 7/8/5
f 2/5/6 5/11/6 8/12/6
f 2/5/6 8/12/6 3/8/6
f 9/5/2 10/13/2 11/14/2
f 9/5/2 11/14/2 12/8/2
f 10/5/5 13/13/5 14/14/5
f 10/5/5 14/14/5 11/8/5
f 15/5/6 9/13/6 12/14/6
f 15/5/6 12/14/6 16/8/6
f 12/5/3 11/13/3 14/14/3
f 12/5/3 14/14/3 16/8/3
f 15/5/4 13/13/4 10/14/4
f 15/5/4 10/14/4 9/8/4
usemtl face
f 1/1/1 2/2/1 3/3/1
f 1/1/1 3/3/1 4/4/1
