# Generated by dev-env-utils/scripts/gen_garage_doors.py -- do not edit
mtllib commercial_run.mtl
o run
v 0.00000 1.43750 -0.25000
v 1.00000 1.43750 -0.25000
v 1.00000 1.43750 -1.25000
v 0.00000 1.43750 -1.25000
v 0.00000 1.31250 -0.25000
v 0.00000 1.31250 -1.25000
v 1.00000 1.31250 -1.25000
v 1.00000 1.31250 -0.25000
v 0.00000 1.43750 -1.25000
v 1.00000 1.43750 -1.25000
v 1.00000 1.43750 -2.25000
v 0.00000 1.43750 -2.25000
v 0.00000 1.31250 -1.25000
v 0.00000 1.31250 -2.25000
v 1.00000 1.31250 -2.25000
v 1.00000 1.31250 -1.25000
v 0.00000 1.43750 -2.25000
v 1.00000 1.43750 -2.25000
v 1.00000 1.43750 -3.25000
v 0.00000 1.43750 -3.25000
v 0.00000 1.31250 -2.25000
v 0.00000 1.31250 -3.25000
v 1.00000 1.31250 -3.25000
v 1.00000 1.31250 -2.25000
v 0.00000 1.43750 -3.25000
v 1.00000 1.43750 -3.25000
v 1.00000 1.43750 -4.25000
v 0.00000 1.43750 -4.25000
v 0.00000 1.31250 -3.25000
v 0.00000 1.31250 -4.25000
v 1.00000 1.31250 -4.25000
v 1.00000 1.31250 -3.25000
v 0.00000 1.43750 -4.25000
v 1.00000 1.43750 -4.25000
v 1.00000 1.43750 -5.25000
v 0.00000 1.43750 -5.25000
v 0.00000 1.31250 -4.25000
v 0.00000 1.31250 -5.25000
v 1.00000 1.31250 -5.25000
v 1.00000 1.31250 -4.25000
v 0.00000 1.43750 -5.25000
v 1.00000 1.43750 -5.25000
v 1.00000 1.43750 -6.25000
v 0.00000 1.43750 -6.25000
v 0.00000 1.31250 -5.25000
v 0.00000 1.31250 -6.25000
v 1.00000 1.31250 -6.25000
v 1.00000 1.31250 -5.25000
v 0.00000 1.43750 -6.25000
v 1.00000 1.43750 -6.25000
v 1.00000 1.43750 -7.25000
v 0.00000 1.43750 -7.25000
v 0.00000 1.31250 -6.25000
v 0.00000 1.31250 -7.25000
v 1.00000 1.31250 -7.25000
v 1.00000 1.31250 -6.25000
v 0.00000 1.43750 -7.25000
v 1.00000 1.43750 -7.25000
v 1.00000 1.43750 -8.25000
v 0.00000 1.43750 -8.25000
v 0.00000 1.31250 -7.25000
v 0.00000 1.31250 -8.25000
v 1.00000 1.31250 -8.25000
v 1.00000 1.31250 -7.25000
v 0.00000 1.31250 -0.25000
v 1.00000 1.31250 -0.25000
v 1.00000 1.43750 -0.25000
v 0.00000 1.43750 -0.25000
v 0.00000 1.31250 -8.25000
v 0.00000 1.43750 -8.25000
v 1.00000 1.43750 -8.25000
v 1.00000 1.31250 -8.25000
vt 0.00000 1.00000
vt 1.00000 1.00000
vt 1.00000 0.00000
vt 0.00000 0.00000
vt 1.00000 1.00000
vt 1.00000 0.00000
vt 0.00000 0.00000
vt 0.00000 1.00000
vt 0.00000 1.00000
vt 1.00000 1.00000
vt 1.00000 0.00000
vt 0.00000 0.00000
vt 1.00000 1.00000
vt 1.00000 0.00000
vt 0.00000 0.00000
vt 0.00000 1.00000
vt 0.00000 1.00000
vt 1.00000 1.00000
vt 1.00000 0.00000
vt 0.00000 0.00000
vt 1.00000 1.00000
vt 1.00000 0.00000
vt 0.00000 0.00000
vt 0.00000 1.00000
vt 0.00000 1.00000
vt 1.00000 1.00000
vt 1.00000 0.00000
vt 0.00000 0.00000
vt 1.00000 1.00000
vt 1.00000 0.00000
vt 0.00000 0.00000
vt 0.00000 1.00000
vt 0.00000 1.00000
vt 1.00000 1.00000
vt 1.00000 0.00000
vt 0.00000 0.00000
vt 1.00000 1.00000
vt 1.00000 0.00000
vt 0.00000 0.00000
vt 0.00000 1.00000
vt 0.00000 1.00000
vt 1.00000 1.00000
vt 1.00000 0.00000
vt 0.00000 0.00000
vt 1.00000 1.00000
vt 1.00000 0.00000
vt 0.00000 0.00000
vt 0.00000 1.00000
vt 0.00000 1.00000
vt 1.00000 1.00000
vt 1.00000 0.00000
vt 0.00000 0.00000
vt 1.00000 1.00000
vt 1.00000 0.00000
vt 0.00000 0.00000
vt 0.00000 1.00000
vt 0.00000 1.00000
vt 1.00000 1.00000
vt 1.00000 0.00000
vt 0.00000 0.00000
vt 1.00000 1.00000
vt 1.00000 0.00000
vt 0.00000 0.00000
vt 0.00000 1.00000
vt 0.00000 0.93750
vt 1.00000 0.93750
vt 1.00000 1.00000
vt 0.00000 1.00000
vt 0.00000 0.93750
vt 0.00000 1.00000
vt 1.00000 1.00000
vt 1.00000 0.93750
usemtl face
f 1/1 2/2 3/3 4/4
usemtl back
f 5/5 6/6 7/7 8/8
usemtl face
f 9/9 10/10 11/11 12/12
usemtl back
f 13/13 14/14 15/15 16/16
usemtl face
f 17/17 18/18 19/19 20/20
usemtl back
f 21/21 22/22 23/23 24/24
usemtl face
f 25/25 26/26 27/27 28/28
usemtl back
f 29/29 30/30 31/31 32/32
usemtl face
f 33/33 34/34 35/35 36/36
usemtl back
f 37/37 38/38 39/39 40/40
usemtl face
f 41/41 42/42 43/43 44/44
usemtl back
f 45/45 46/46 47/47 48/48
usemtl face
f 49/49 50/50 51/51 52/52
usemtl back
f 53/53 54/54 55/55 56/56
usemtl face_top
f 57/57 58/58 59/59 60/60
usemtl back_top
f 61/61 62/62 63/63 64/64
usemtl back
f 65/65 66/66 67/67 68/68
usemtl back_top
f 69/69 70/70 71/71 72/72
