# Generated by dev-env-utils/scripts/gen_garage_doors.py -- do not edit
mtllib commercial_run.mtl
o run
v 0.00000 1.43750 -0.46875
v 1.00000 1.43750 -0.46875
v 1.00000 1.43750 -1.46875
v 0.00000 1.43750 -1.46875
v 0.00000 1.31250 -0.46875
v 0.00000 1.31250 -1.46875
v 1.00000 1.31250 -1.46875
v 1.00000 1.31250 -0.46875
v 0.00000 1.31250 -0.46875
v 1.00000 1.31250 -0.46875
v 1.00000 1.43750 -0.46875
v 0.00000 1.43750 -0.46875
v 0.00000 1.31250 -1.46875
v 0.00000 1.43750 -1.46875
v 1.00000 1.43750 -1.46875
v 1.00000 1.31250 -1.46875
vt 0.00000 1.00000
vt 1.00000 1.00000
vt 1.00000 0.00000
vt 0.00000 0.00000
vt 1.00000 1.00000
vt 1.00000 0.00000
vt 0.00000 0.00000
vt 0.00000 1.00000
vt 0.00000 0.93750
vt 1.00000 0.93750
vt 1.00000 1.00000
vt 0.00000 1.00000
vt 0.00000 0.93750
vt 0.00000 1.00000
vt 1.00000 1.00000
vt 1.00000 0.93750
usemtl face_top
f 1/1 2/2 3/3 4/4
usemtl back_top
f 5/5 6/6 7/7 8/8
usemtl back
f 9/9 10/10 11/11 12/12
usemtl back_top
f 13/13 14/14 15/15 16/16
