# Generated by dev-env-utils/scripts/gen_garage_doors.py -- do not edit
mtllib garage_track.mtl
o track
v 1.00000 1.01224 -0.00080
v 1.09375 1.01224 -0.00080
v 1.09375 1.12132 -0.01597
v 1.00000 1.12132 -0.01597
v 1.00000 0.98776 -0.18670
v 1.00000 1.07279 -0.19708
v 1.09375 1.07279 -0.19708
v 1.09375 0.98776 -0.18670
v 1.00000 1.01224 -0.00080
v 1.00000 1.12132 -0.01597
v 1.00000 1.07279 -0.19708
v 1.00000 0.98776 -0.18670
v 1.09375 1.01224 -0.00080
v 1.09375 0.98776 -0.18670
v 1.09375 1.07279 -0.19708
v 1.09375 1.12132 -0.01597
v 1.00000 1.12132 -0.01597
v 1.09375 1.12132 -0.01597
v 1.09375 1.23438 -0.06280
v 1.00000 1.23438 -0.06280
v 1.00000 1.07279 -0.19708
v 1.00000 1.14062 -0.22518
v 1.09375 1.14062 -0.22518
v 1.09375 1.07279 -0.19708
v 1.00000 1.12132 -0.01597
v 1.00000 1.23438 -0.06280
v 1.00000 1.14062 -0.22518
v 1.00000 1.07279 -0.19708
v 1.09375 1.12132 -0.01597
v 1.09375 1.07279 -0.19708
v 1.09375 1.14062 -0.22518
v 1.09375 1.23438 -0.06280
v 1.00000 1.23438 -0.06280
v 1.09375 1.23438 -0.06280
v 1.09375 1.33146 -0.13729
v 1.00000 1.33146 -0.13729
v 1.00000 1.14062 -0.22518
v 1.00000 1.19887 -0.26988
v 1.09375 1.19887 -0.26988
v 1.09375 1.14062 -0.22518
v 1.00000 1.23438 -0.06280
v 1.00000 1.33146 -0.13729
v 1.00000 1.19887 -0.26988
v 1.00000 1.14062 -0.22518
v 1.09375 1.23438 -0.06280
v 1.09375 1.14062 -0.22518
v 1.09375 1.19887 -0.26988
v 1.09375 1.33146 -0.13729
v 1.00000 1.33146 -0.13729
v 1.09375 1.33146 -0.13729
v 1.09375 1.40595 -0.23437
v 1.00000 1.40595 -0.23437
v 1.00000 1.19887 -0.26988
v 1.00000 1.24357 -0.32812
v 1.09375 1.24357 -0.32812
v 1.09375 1.19887 -0.26988
v 1.00000 1.33146 -0.13729
v 1.00000 1.40595 -0.23437
v 1.00000 1.24357 -0.32812
v 1.00000 1.19887 -0.26988
v 1.09375 1.33146 -0.13729
v 1.09375 1.19887 -0.26988
v 1.09375 1.24357 -0.32812
v 1.09375 1.40595 -0.23437
v 1.00000 1.40595 -0.23437
v 1.09375 1.40595 -0.23437
v 1.09375 1.45278 -0.34743
v 1.00000 1.45278 -0.34743
v 1.00000 1.24357 -0.32812
v 1.00000 1.27167 -0.39596
v 1.09375 1.27167 -0.39596
v 1.09375 1.24357 -0.32812
v 1.00000 1.40595 -0.23437
v 1.00000 1.45278 -0.34743
v 1.00000 1.27167 -0.39596
v 1.00000 1.24357 -0.32812
v 1.09375 1.40595 -0.23437
v 1.09375 1.24357 -0.32812
v 1.09375 1.27167 -0.39596
v 1.09375 1.45278 -0.34743
v 1.00000 1.45278 -0.34743
v 1.09375 1.45278 -0.34743
v 1.09375 1.46875 -0.46800
v 1.00000 1.46875 -0.46800
v 1.00000 1.27167 -0.39596
v 1.00000 1.28125 -0.46950
v 1.09375 1.28125 -0.46950
v 1.09375 1.27167 -0.39596
v 1.00000 1.45278 -0.34743
v 1.00000 1.46875 -0.46800
v 1.00000 1.28125 -0.46950
v 1.00000 1.27167 -0.39596
v 1.09375 1.45278 -0.34743
v 1.09375 1.27167 -0.39596
v 1.09375 1.28125 -0.46950
v 1.09375 1.46875 -0.46800
v 1.00000 1.46875 -0.46800
v 1.09375 1.46875 -0.46800
v 1.09375 1.46875 -1.96875
v 1.00000 1.46875 -1.96875
v 1.00000 1.28125 -0.46950
v 1.00000 1.28125 -1.96875
v 1.09375 1.28125 -1.96875
v 1.09375 1.28125 -0.46950
v 1.00000 1.46875 -0.46800
v 1.00000 1.46875 -1.96875
v 1.00000 1.28125 -1.96875
v 1.00000 1.28125 -0.46950
v 1.09375 1.46875 -0.46800
v 1.09375 1.28125 -0.46950
v 1.09375 1.28125 -1.96875
v 1.09375 1.46875 -1.96875
v 1.00000 1.46875 -1.96875
v 1.09375 1.46875 -1.96875
v 1.09375 1.28125 -1.96875
v 1.00000 1.28125 -1.96875
vt 0.00000 0.00000
vt 0.06250 0.00000
vt 0.06250 1.00000
vt 0.00000 1.00000
vt 0.00000 0.00000
vt 0.00000 1.00000
vt 0.06250 1.00000
vt 0.06250 0.00000
vt 0.00000 0.00000
vt 0.00000 1.00000
vt 0.06250 1.00000
vt 0.06250 0.00000
vt 0.00000 0.00000
vt 0.06250 0.00000
vt 0.06250 1.00000
vt 0.00000 1.00000
vt 0.00000 0.00000
vt 0.06250 0.00000
vt 0.06250 1.00000
vt 0.00000 1.00000
vt 0.00000 0.00000
vt 0.00000 1.00000
vt 0.06250 1.00000
vt 0.06250 0.00000
vt 0.00000 0.00000
vt 0.00000 1.00000
vt 0.06250 1.00000
vt 0.06250 0.00000
vt 0.00000 0.00000
vt 0.06250 0.00000
vt 0.06250 1.00000
vt 0.00000 1.00000
vt 0.00000 0.00000
vt 0.06250 0.00000
vt 0.06250 1.00000
vt 0.00000 1.00000
vt 0.00000 0.00000
vt 0.00000 1.00000
vt 0.06250 1.00000
vt 0.06250 0.00000
vt 0.00000 0.00000
vt 0.00000 1.00000
vt 0.06250 1.00000
vt 0.06250 0.00000
vt 0.00000 0.00000
vt 0.06250 0.00000
vt 0.06250 1.00000
vt 0.00000 1.00000
vt 0.00000 0.00000
vt 0.06250 0.00000
vt 0.06250 1.00000
vt 0.00000 1.00000
vt 0.00000 0.00000
vt 0.00000 1.00000
vt 0.06250 1.00000
vt 0.06250 0.00000
vt 0.00000 0.00000
vt 0.00000 1.00000
vt 0.06250 1.00000
vt 0.06250 0.00000
vt 0.00000 0.00000
vt 0.06250 0.00000
vt 0.06250 1.00000
vt 0.00000 1.00000
vt 0.00000 0.00000
vt 0.06250 0.00000
vt 0.06250 1.00000
vt 0.00000 1.00000
vt 0.00000 0.00000
vt 0.00000 1.00000
vt 0.06250 1.00000
vt 0.06250 0.00000
vt 0.00000 0.00000
vt 0.00000 1.00000
vt 0.06250 1.00000
vt 0.06250 0.00000
vt 0.00000 0.00000
vt 0.06250 0.00000
vt 0.06250 1.00000
vt 0.00000 1.00000
vt 0.00000 0.00000
vt 0.06250 0.00000
vt 0.06250 1.00000
vt 0.00000 1.00000
vt 0.00000 0.00000
vt 0.00000 1.00000
vt 0.06250 1.00000
vt 0.06250 0.00000
vt 0.00000 0.00000
vt 0.00000 1.00000
vt 0.06250 1.00000
vt 0.06250 0.00000
vt 0.00000 0.00000
vt 0.06250 0.00000
vt 0.06250 1.00000
vt 0.00000 1.00000
vt 0.00000 0.00000
vt 0.06250 0.00000
vt 0.06250 1.00000
vt 0.00000 1.00000
vt 0.00000 0.00000
vt 0.00000 1.00000
vt 0.06250 1.00000
vt 0.06250 0.00000
vt 0.00000 0.00000
vt 0.00000 1.00000
vt 0.06250 1.00000
vt 0.06250 0.00000
vt 0.00000 0.00000
vt 0.06250 0.00000
vt 0.06250 1.00000
vt 0.00000 1.00000
vt 0.00000 0.00000
vt 0.06250 0.00000
vt 0.06250 1.00000
vt 0.00000 1.00000
usemtl track
f 1/1 2/2 3/3 4/4
f 5/5 6/6 7/7 8/8
f 9/9 10/10 11/11 12/12
f 13/13 14/14 15/15 16/16
f 17/17 18/18 19/19 20/20
f 21/21 22/22 23/23 24/24
f 25/25 26/26 27/27 28/28
f 29/29 30/30 31/31 32/32
f 33/33 34/34 35/35 36/36
f 37/37 38/38 39/39 40/40
f 41/41 42/42 43/43 44/44
f 45/45 46/46 47/47 48/48
f 49/49 50/50 51/51 52/52
f 53/53 54/54 55/55 56/56
f 57/57 58/58 59/59 60/60
f 61/61 62/62 63/63 64/64
f 65/65 66/66 67/67 68/68
f 69/69 70/70 71/71 72/72
f 73/73 74/74 75/75 76/76
f 77/77 78/78 79/79 80/80
f 81/81 82/82 83/83 84/84
f 85/85 86/86 87/87 88/88
f 89/89 90/90 91/91 92/92
f 93/93 94/94 95/95 96/96
f 97/97 98/98 99/99 100/100
f 101/101 102/102 103/103 104/104
f 105/105 106/106 107/107 108/108
f 109/109 110/110 111/111 112/112
f 113/113 114/114 115/115 116/116
