# Generated by dev-env-utils/scripts/gen_garage_doors.py -- do not edit
mtllib white_run.mtl
o run
v 0.00000 1.43750 -0.46875
v 1.00000 1.43750 -0.46875
v 1.00000 1.43750 -1.46875
v 0.00000 1.43750 -1.46875
v 0.00000 1.31250 -0.46875
v 0.00000 1.31250 -1.46875
v 1.00000 1.31250 -1.46875
v 1.00000 1.31250 -0.46875
v 0.00000 1.43750 -1.46875
v 1.00000 1.43750 -1.46875
v 1.00000 1.43750 -2.46875
v 0.00000 1.43750 -2.46875
v 0.00000 1.31250 -1.46875
v 0.00000 1.31250 -2.46875
v 1.00000 1.31250 -2.46875
v 1.00000 1.31250 -1.46875
v 0.00000 1.43750 -2.46875
v 1.00000 1.43750 -2.46875
v 1.00000 1.43750 -3.46875
v 0.00000 1.43750 -3.46875
v 0.00000 1.31250 -2.46875
v 0.00000 1.31250 -3.46875
v 1.00000 1.31250 -3.46875
v 1.00000 1.31250 -2.46875
v 0.00000 1.31250 -0.46875
v 1.00000 1.31250 -0.46875
v 1.00000 1.43750 -0.46875
v 0.00000 1.43750 -0.46875
v 0.00000 1.31250 -3.46875
v 0.00000 1.43750 -3.46875
v 1.00000 1.43750 -3.46875
v 1.00000 1.31250 -3.46875
vt 0.00000 1.00000
vt 1.00000 1.00000
vt 1.00000 0.00000
vt 0.00000 0.00000
vt 1.00000 1.00000
vt 1.00000 0.00000
vt 0.00000 0.00000
vt 0.00000 1.00000
vt 0.00000 1.00000
vt 1.00000 1.00000
vt 1.00000 0.00000
vt 0.00000 0.00000
vt 1.00000 1.00000
vt 1.00000 0.00000
vt 0.00000 0.00000
vt 0.00000 1.00000
vt 0.00000 1.00000
vt 1.00000 1.00000
vt 1.00000 0.00000
vt 0.00000 0.00000
vt 1.00000 1.00000
vt 1.00000 0.00000
vt 0.00000 0.00000
vt 0.00000 1.00000
vt 0.00000 0.93750
vt 1.00000 0.93750
vt 1.00000 1.00000
vt 0.00000 1.00000
vt 0.00000 0.93750
vt 0.00000 1.00000
vt 1.00000 1.00000
vt 1.00000 0.93750
usemtl face
f 1/1 2/2 3/3 4/4
usemtl back
f 5/5 6/6 7/7 8/8
usemtl face
f 9/9 10/10 11/11 12/12
usemtl back
f 13/13 14/14 15/15 16/16
usemtl face_top
f 17/17 18/18 19/19 20/20
usemtl back_top
f 21/21 22/22 23/23 24/24
usemtl back
f 25/25 26/26 27/27 28/28
usemtl back_top
f 29/29 30/30 31/31 32/32
