# Generated by dev-env-utils/scripts/gen_garage_doors.py -- do not edit
mtllib white_run.mtl
o run
v 0.00000 1.43750 -0.46875
v 1.00000 1.43750 -0.46875
v 1.00000 1.43750 -1.46875
v 0.00000 1.43750 -1.46875
v 0.00000 1.31250 -0.46875
v 0.00000 1.31250 -1.46875
v 1.00000 1.31250 -1.46875
v 1.00000 1.31250 -0.46875
v 0.00000 1.31250 -0.46875
v 1.00000 1.31250 -0.46875
v 1.00000 1.43750 -0.46875
v 0.00000 1.43750 -0.46875
v 0.00000 1.31250 -1.46875
v 0.00000 1.43750 -1.46875
v 1.00000 1.43750 -1.46875
v 1.00000 1.31250 -1.46875
vt 0.00000 1.00000
vt 1.00000 1.00000
vt 1.00000 0.00000
vt 0.00000 0.00000
vt 1.00000 1.00000
vt 1.00000 0.00000
vt 0.00000 0.00000
vt 0.00000 1.00000
vt 0.00000 0.93750
vt 1.00000 0.93750
vt 1.00000 1.00000
vt 0.00000 1.00000
vt 0.00000 0.93750
vt 0.00000 1.00000
vt 1.00000 1.00000
vt 1.00000 0.93750
vn -0.00000 1.00000 0.00000
vn 0.00000 -1.00000 0.00000
vn 0.00000 0.00000 1.00000
vn 0.00000 0.00000 -1.00000
usemtl face_top
f 1/1/1 2/2/1 3/3/1 4/4/1
usemtl back_top
f 5/5/2 6/6/2 7/7/2 8/8/2
usemtl back
f 9/9/3 10/10/3 11/11/3 12/12/3
usemtl back_top
f 13/13/4 14/14/4 15/15/4 16/16/4
