# Generated by dev-env-utils/scripts/gen_garage_doors.py -- do not edit
mtllib windowed_run.mtl
o run
v 0.00000 1.43750 -0.46875
v 1.00000 1.43750 -0.46875
v 1.00000 1.43750 -1.46875
v 0.00000 1.43750 -1.46875
v 0.00000 1.31250 -0.46875
v 0.00000 1.31250 -1.46875
v 1.00000 1.31250 -1.46875
v 1.00000 1.31250 -0.46875
v 0.00000 1.43750 -1.46875
v 1.00000 1.43750 -1.46875
v 1.00000 1.43750 -2.46875
v 0.00000 1.43750 -2.46875
v 0.00000 1.31250 -1.46875
v 0.00000 1.31250 -2.46875
v 1.00000 1.31250 -2.46875
v 1.00000 1.31250 -1.46875
v 0.00000 1.43750 -2.46875
v 1.00000 1.43750 -2.46875
v 1.00000 1.43750 -3.46875
v 0.00000 1.43750 -3.46875
v 0.00000 1.31250 -2.46875
v 0.00000 1.31250 -3.46875
v 1.00000 1.31250 -3.46875
v 1.00000 1.31250 -2.46875
v 0.00000 1.43750 -3.46875
v 1.00000 1.43750 -3.46875
v 1.00000 1.43750 -4.46875
v 0.00000 1.43750 -4.46875
v 0.00000 1.31250 -3.46875
v 0.00000 1.31250 -4.46875
v 1.00000 1.31250 -4.46875
v 1.00000 1.31250 -3.46875
v 0.00000 1.43750 -4.46875
v 1.00000 1.43750 -4.46875
v 1.00000 1.43750 -5.46875
v 0.00000 1.43750 -5.46875
v 0.00000 1.31250 -4.46875
v 0.00000 1.31250 -5.46875
v 1.00000 1.31250 -5.46875
v 1.00000 1.31250 -4.46875
v 0.00000 1.31250 -0.46875
v 1.00000 1.31250 -0.46875
v 1.00000 1.43750 -0.46875
v 0.00000 1.43750 -0.46875
v 0.00000 1.31250 -5.46875
v 0.00000 1.43750 -5.46875
v 1.00000 1.43750 -5.46875
v 1.00000 1.31250 -5.46875
vt 0.00000 1.00000
vt 1.00000 1.00000
vt 1.00000 0.00000
vt 0.00000 0.00000
vt 1.00000 1.00000
vt 1.00000 0.00000
vt 0.00000 0.00000
vt 0.00000 1.00000
vt 0.00000 1.00000
vt 1.00000 1.00000
vt 1.00000 0.00000
vt 0.00000 0.00000
vt 1.00000 1.00000
vt 1.00000 0.00000
vt 0.00000 0.00000
vt 0.00000 1.00000
vt 0.00000 1.00000
vt 1.00000 1.00000
vt 1.00000 0.00000
vt 0.00000 0.00000
vt 1.00000 1.00000
vt 1.00000 0.00000
vt 0.00000 0.00000
vt 0.00000 1.00000
vt 0.00000 1.00000
vt 1.00000 1.00000
vt 1.00000 0.00000
vt 0.00000 0.00000
vt 1.00000 1.00000
vt 1.00000 0.00000
vt 0.00000 0.00000
vt 0.00000 1.00000
vt 0.00000 1.00000
vt 1.00000 1.00000
vt 1.00000 0.00000
vt 0.00000 0.00000
vt 1.00000 1.00000
vt 1.00000 0.00000
vt 0.00000 0.00000
vt 0.00000 1.00000
vt 0.00000 0.93750
vt 1.00000 0.93750
vt 1.00000 1.00000
vt 0.00000 1.00000
vt 0.00000 0.93750
vt 0.00000 1.00000
vt 1.00000 1.00000
vt 1.00000 0.93750
vn -0.00000 1.00000 0.00000
vn 0.00000 -1.00000 0.00000
vn -0.00000 1.00000 0.00000
vn 0.00000 -1.00000 0.00000
vn -0.00000 1.00000 0.00000
vn 0.00000 -1.00000 0.00000
vn -0.00000 1.00000 0.00000
vn 0.00000 -1.00000 0.00000
vn -0.00000 1.00000 0.00000
vn 0.00000 -1.00000 0.00000
vn 0.00000 0.00000 1.00000
vn 0.00000 0.00000 -1.00000
usemtl face
f 1/1/1 2/2/1 3/3/1 4/4/1
usemtl back
f 5/5/2 6/6/2 7/7/2 8/8/2
usemtl face
f 9/9/3 10/10/3 11/11/3 12/12/3
usemtl back
f 13/13/4 14/14/4 15/15/4 16/16/4
usemtl face
f 17/17/5 18/18/5 19/19/5 20/20/5
usemtl back
f 21/21/6 22/22/6 23/23/6 24/24/6
usemtl face
f 25/25/7 26/26/7 27/27/7 28/28/7
usemtl back
f 29/29/8 30/30/8 31/31/8 32/32/8
usemtl face_top
f 33/33/9 34/34/9 35/35/9 36/36/9
usemtl back_top
f 37/37/10 38/38/10 39/39/10 40/40/10
usemtl back
f 41/41/11 42/42/11 43/43/11 44/44/11
usemtl back_top
f 45/45/12 46/46/12 47/47/12 48/48/12
