# generated by dev-env-utils/scripts/gen_vehicle_fleet.py
o wheel
v 0.17000 0.55000 0.00000
v -0.17000 0.55000 0.00000
v -0.17000 0.50813 0.21048
v 0.17000 0.50813 0.21048
vt 0.020000 0.980000
vt 0.480000 0.980000
vt 0.480000 0.520000
vt 0.020000 0.520000
vn 0.0000 0.9808 0.1951
f 1/1/1 2/2/1 3/3/1 4/4/1
v 0.17000 0.00000 0.00000
v 0.17000 0.55000 0.00000
v 0.17000 0.50813 0.21048
vt 0.750000 0.250000
vt 0.990000 0.250000
vt 0.971731 0.158156
vn 1.0000 0.0000 0.0000
f 5/5/2 6/6/2 7/7/2
v -0.17000 0.00000 0.00000
v -0.17000 0.50813 0.21048
v -0.17000 0.55000 0.00000
vt 0.750000 0.250000
vt 0.971731 0.158156
vt 0.990000 0.250000
vn -1.0000 0.0000 0.0000
f 8/8/3 9/9/3 10/10/3
v 0.17000 0.50813 0.21048
v -0.17000 0.50813 0.21048
v -0.17000 0.38891 0.38891
v 0.17000 0.38891 0.38891
vt 0.020000 0.980000
vt 0.480000 0.980000
vt 0.480000 0.520000
vt 0.020000 0.520000
vn 0.0000 0.8315 0.5556
f 11/11/4 12/12/4 13/13/4 14/14/4
v 0.17000 0.00000 0.00000
v 0.17000 0.50813 0.21048
v 0.17000 0.38891 0.38891
vt 0.750000 0.250000
vt 0.971731 0.158156
vt 0.919706 0.080294
vn 1.0000 0.0000 0.0000
f 15/15/5 16/16/5 17/17/5
v -0.17000 0.00000 0.00000
v -0.17000 0.38891 0.38891
v -0.17000 0.50813 0.21048
vt 0.750000 0.250000
vt 0.919706 0.080294
vt 0.971731 0.158156
vn -1.0000 0.0000 0.0000
f 18/18/6 19/19/6 20/20/6
v 0.17000 0.38891 0.38891
v -0.17000 0.38891 0.38891
v -0.17000 0.21048 0.50813
v 0.17000 0.21048 0.50813
vt 0.020000 0.980000
vt 0.480000 0.980000
vt 0.480000 0.520000
vt 0.020000 0.520000
vn 0.0000 0.5556 0.8315
f 21/21/7 22/22/7 23/23/7 24/24/7
v 0.17000 0.00000 0.00000
v 0.17000 0.38891 0.38891
v 0.17000 0.21048 0.50813
vt 0.750000 0.250000
vt 0.919706 0.080294
vt 0.841844 0.028269
vn 1.0000 0.0000 0.0000
f 25/25/8 26/26/8 27/27/8
v -0.17000 0.00000 0.00000
v -0.17000 0.21048 0.50813
v -0.17000 0.38891 0.38891
vt 0.750000 0.250000
vt 0.841844 0.028269
vt 0.919706 0.080294
vn -1.0000 0.0000 0.0000
f 28/28/9 29/29/9 30/30/9
v 0.17000 0.21048 0.50813
v -0.17000 0.21048 0.50813
v -0.17000 0.00000 0.55000
v 0.17000 0.00000 0.55000
vt 0.020000 0.980000
vt 0.480000 0.980000
vt 0.480000 0.520000
vt 0.020000 0.520000
vn 0.0000 0.1951 0.9808
f 31/31/10 32/32/10 33/33/10 34/34/10
v 0.17000 0.00000 0.00000
v 0.17000 0.21048 0.50813
v 0.17000 0.00000 0.55000
vt 0.750000 0.250000
vt 0.841844 0.028269
vt 0.750000 0.010000
vn 1.0000 0.0000 0.0000
f 35/35/11 36/36/11 37/37/11
v -0.17000 0.00000 0.00000
v -0.17000 0.00000 0.55000
v -0.17000 0.21048 0.50813
vt 0.750000 0.250000
vt 0.750000 0.010000
vt 0.841844 0.028269
vn -1.0000 0.0000 0.0000
f 38/38/12 39/39/12 40/40/12
v 0.17000 0.00000 0.55000
v -0.17000 0.00000 0.55000
v -0.17000 -0.21048 0.50813
v 0.17000 -0.21048 0.50813
vt 0.020000 0.980000
vt 0.480000 0.980000
vt 0.480000 0.520000
vt 0.020000 0.520000
vn 0.0000 -0.1951 0.9808
f 41/41/13 42/42/13 43/43/13 44/44/13
v 0.17000 0.00000 0.00000
v 0.17000 0.00000 0.55000
v 0.17000 -0.21048 0.50813
vt 0.750000 0.250000
vt 0.750000 0.010000
vt 0.658156 0.028269
vn 1.0000 0.0000 0.0000
f 45/45/14 46/46/14 47/47/14
v -0.17000 0.00000 0.00000
v -0.17000 -0.21048 0.50813
v -0.17000 0.00000 0.55000
vt 0.750000 0.250000
vt 0.658156 0.028269
vt 0.750000 0.010000
vn -1.0000 0.0000 0.0000
f 48/48/15 49/49/15 50/50/15
v 0.17000 -0.21048 0.50813
v -0.17000 -0.21048 0.50813
v -0.17000 -0.38891 0.38891
v 0.17000 -0.38891 0.38891
vt 0.020000 0.980000
vt 0.480000 0.980000
vt 0.480000 0.520000
vt 0.020000 0.520000
vn 0.0000 -0.5556 0.8315
f 51/51/16 52/52/16 53/53/16 54/54/16
v 0.17000 0.00000 0.00000
v 0.17000 -0.21048 0.50813
v 0.17000 -0.38891 0.38891
vt 0.750000 0.250000
vt 0.658156 0.028269
vt 0.580294 0.080294
vn 1.0000 0.0000 0.0000
f 55/55/17 56/56/17 57/57/17
v -0.17000 0.00000 0.00000
v -0.17000 -0.38891 0.38891
v -0.17000 -0.21048 0.50813
vt 0.750000 0.250000
vt 0.580294 0.080294
vt 0.658156 0.028269
vn -1.0000 0.0000 0.0000
f 58/58/18 59/59/18 60/60/18
v 0.17000 -0.38891 0.38891
v -0.17000 -0.38891 0.38891
v -0.17000 -0.50813 0.21048
v 0.17000 -0.50813 0.21048
vt 0.020000 0.980000
vt 0.480000 0.980000
vt 0.480000 0.520000
vt 0.020000 0.520000
vn 0.0000 -0.8315 0.5556
f 61/61/19 62/62/19 63/63/19 64/64/19
v 0.17000 0.00000 0.00000
v 0.17000 -0.38891 0.38891
v 0.17000 -0.50813 0.21048
vt 0.750000 0.250000
vt 0.580294 0.080294
vt 0.528269 0.158156
vn 1.0000 0.0000 0.0000
f 65/65/20 66/66/20 67/67/20
v -0.17000 0.00000 0.00000
v -0.17000 -0.50813 0.21048
v -0.17000 -0.38891 0.38891
vt 0.750000 0.250000
vt 0.528269 0.158156
vt 0.580294 0.080294
vn -1.0000 0.0000 0.0000
f 68/68/21 69/69/21 70/70/21
v 0.17000 -0.50813 0.21048
v -0.17000 -0.50813 0.21048
v -0.17000 -0.55000 0.00000
v 0.17000 -0.55000 0.00000
vt 0.020000 0.980000
vt 0.480000 0.980000
vt 0.480000 0.520000
vt 0.020000 0.520000
vn 0.0000 -0.9808 0.1951
f 71/71/22 72/72/22 73/73/22 74/74/22
v 0.17000 0.00000 0.00000
v 0.17000 -0.50813 0.21048
v 0.17000 -0.55000 0.00000
vt 0.750000 0.250000
vt 0.528269 0.158156
vt 0.510000 0.250000
vn 1.0000 0.0000 0.0000
f 75/75/23 76/76/23 77/77/23
v -0.17000 0.00000 0.00000
v -0.17000 -0.55000 0.00000
v -0.17000 -0.50813 0.21048
vt 0.750000 0.250000
vt 0.510000 0.250000
vt 0.528269 0.158156
vn -1.0000 0.0000 0.0000
f 78/78/24 79/79/24 80/80/24
v 0.17000 -0.55000 0.00000
v -0.17000 -0.55000 0.00000
v -0.17000 -0.50813 -0.21048
v 0.17000 -0.50813 -0.21048
vt 0.020000 0.980000
vt 0.480000 0.980000
vt 0.480000 0.520000
vt 0.020000 0.520000
vn 0.0000 -0.9808 -0.1951
f 81/81/25 82/82/25 83/83/25 84/84/25
v 0.17000 0.00000 0.00000
v 0.17000 -0.55000 0.00000
v 0.17000 -0.50813 -0.21048
vt 0.750000 0.250000
vt 0.510000 0.250000
vt 0.528269 0.341844
vn 1.0000 0.0000 0.0000
f 85/85/26 86/86/26 87/87/26
v -0.17000 0.00000 0.00000
v -0.17000 -0.50813 -0.21048
v -0.17000 -0.55000 0.00000
vt 0.750000 0.250000
vt 0.528269 0.341844
vt 0.510000 0.250000
vn -1.0000 0.0000 0.0000
f 88/88/27 89/89/27 90/90/27
v 0.17000 -0.50813 -0.21048
v -0.17000 -0.50813 -0.21048
v -0.17000 -0.38891 -0.38891
v 0.17000 -0.38891 -0.38891
vt 0.020000 0.980000
vt 0.480000 0.980000
vt 0.480000 0.520000
vt 0.020000 0.520000
vn 0.0000 -0.8315 -0.5556
f 91/91/28 92/92/28 93/93/28 94/94/28
v 0.17000 0.00000 0.00000
v 0.17000 -0.50813 -0.21048
v 0.17000 -0.38891 -0.38891
vt 0.750000 0.250000
vt 0.528269 0.341844
vt 0.580294 0.419706
vn 1.0000 0.0000 0.0000
f 95/95/29 96/96/29 97/97/29
v -0.17000 0.00000 0.00000
v -0.17000 -0.38891 -0.38891
v -0.17000 -0.50813 -0.21048
vt 0.750000 0.250000
vt 0.580294 0.419706
vt 0.528269 0.341844
vn -1.0000 0.0000 0.0000
f 98/98/30 99/99/30 100/100/30
v 0.17000 -0.38891 -0.38891
v -0.17000 -0.38891 -0.38891
v -0.17000 -0.21048 -0.50813
v 0.17000 -0.21048 -0.50813
vt 0.020000 0.980000
vt 0.480000 0.980000
vt 0.480000 0.520000
vt 0.020000 0.520000
vn 0.0000 -0.5556 -0.8315
f 101/101/31 102/102/31 103/103/31 104/104/31
v 0.17000 0.00000 0.00000
v 0.17000 -0.38891 -0.38891
v 0.17000 -0.21048 -0.50813
vt 0.750000 0.250000
vt 0.580294 0.419706
vt 0.658156 0.471731
vn 1.0000 0.0000 0.0000
f 105/105/32 106/106/32 107/107/32
v -0.17000 0.00000 0.00000
v -0.17000 -0.21048 -0.50813
v -0.17000 -0.38891 -0.38891
vt 0.750000 0.250000
vt 0.658156 0.471731
vt 0.580294 0.419706
vn -1.0000 0.0000 0.0000
f 108/108/33 109/109/33 110/110/33
v 0.17000 -0.21048 -0.50813
v -0.17000 -0.21048 -0.50813
v -0.17000 -0.00000 -0.55000
v 0.17000 -0.00000 -0.55000
vt 0.020000 0.980000
vt 0.480000 0.980000
vt 0.480000 0.520000
vt 0.020000 0.520000
vn 0.0000 -0.1951 -0.9808
f 111/111/34 112/112/34 113/113/34 114/114/34
v 0.17000 0.00000 0.00000
v 0.17000 -0.21048 -0.50813
v 0.17000 -0.00000 -0.55000
vt 0.750000 0.250000
vt 0.658156 0.471731
vt 0.750000 0.490000
vn 1.0000 0.0000 0.0000
f 115/115/35 116/116/35 117/117/35
v -0.17000 0.00000 0.00000
v -0.17000 -0.00000 -0.55000
v -0.17000 -0.21048 -0.50813
vt 0.750000 0.250000
vt 0.750000 0.490000
vt 0.658156 0.471731
vn -1.0000 0.0000 0.0000
f 118/118/36 119/119/36 120/120/36
v 0.17000 -0.00000 -0.55000
v -0.17000 -0.00000 -0.55000
v -0.17000 0.21048 -0.50813
v 0.17000 0.21048 -0.50813
vt 0.020000 0.980000
vt 0.480000 0.980000
vt 0.480000 0.520000
vt 0.020000 0.520000
vn 0.0000 0.1951 -0.9808
f 121/121/37 122/122/37 123/123/37 124/124/37
v 0.17000 0.00000 0.00000
v 0.17000 -0.00000 -0.55000
v 0.17000 0.21048 -0.50813
vt 0.750000 0.250000
vt 0.750000 0.490000
vt 0.841844 0.471731
vn 1.0000 0.0000 0.0000
f 125/125/38 126/126/38 127/127/38
v -0.17000 0.00000 0.00000
v -0.17000 0.21048 -0.50813
v -0.17000 -0.00000 -0.55000
vt 0.750000 0.250000
vt 0.841844 0.471731
vt 0.750000 0.490000
vn -1.0000 0.0000 0.0000
f 128/128/39 129/129/39 130/130/39
v 0.17000 0.21048 -0.50813
v -0.17000 0.21048 -0.50813
v -0.17000 0.38891 -0.38891
v 0.17000 0.38891 -0.38891
vt 0.020000 0.980000
vt 0.480000 0.980000
vt 0.480000 0.520000
vt 0.020000 0.520000
vn 0.0000 0.5556 -0.8315
f 131/131/40 132/132/40 133/133/40 134/134/40
v 0.17000 0.00000 0.00000
v 0.17000 0.21048 -0.50813
v 0.17000 0.38891 -0.38891
vt 0.750000 0.250000
vt 0.841844 0.471731
vt 0.919706 0.419706
vn 1.0000 0.0000 0.0000
f 135/135/41 136/136/41 137/137/41
v -0.17000 0.00000 0.00000
v -0.17000 0.38891 -0.38891
v -0.17000 0.21048 -0.50813
vt 0.750000 0.250000
vt 0.919706 0.419706
vt 0.841844 0.471731
vn -1.0000 0.0000 0.0000
f 138/138/42 139/139/42 140/140/42
v 0.17000 0.38891 -0.38891
v -0.17000 0.38891 -0.38891
v -0.17000 0.50813 -0.21048
v 0.17000 0.50813 -0.21048
vt 0.020000 0.980000
vt 0.480000 0.980000
vt 0.480000 0.520000
vt 0.020000 0.520000
vn 0.0000 0.8315 -0.5556
f 141/141/43 142/142/43 143/143/43 144/144/43
v 0.17000 0.00000 0.00000
v 0.17000 0.38891 -0.38891
v 0.17000 0.50813 -0.21048
vt 0.750000 0.250000
vt 0.919706 0.419706
vt 0.971731 0.341844
vn 1.0000 0.0000 0.0000
f 145/145/44 146/146/44 147/147/44
v -0.17000 0.00000 0.00000
v -0.17000 0.50813 -0.21048
v -0.17000 0.38891 -0.38891
vt 0.750000 0.250000
vt 0.971731 0.341844
vt 0.919706 0.419706
vn -1.0000 0.0000 0.0000
f 148/148/45 149/149/45 150/150/45
v 0.17000 0.50813 -0.21048
v -0.17000 0.50813 -0.21048
v -0.17000 0.55000 -0.00000
v 0.17000 0.55000 -0.00000
vt 0.020000 0.980000
vt 0.480000 0.980000
vt 0.480000 0.520000
vt 0.020000 0.520000
vn 0.0000 0.9808 -0.1951
f 151/151/46 152/152/46 153/153/46 154/154/46
v 0.17000 0.00000 0.00000
v 0.17000 0.50813 -0.21048
v 0.17000 0.55000 -0.00000
vt 0.750000 0.250000
vt 0.971731 0.341844
vt 0.990000 0.250000
vn 1.0000 0.0000 0.0000
f 155/155/47 156/156/47 157/157/47
v -0.17000 0.00000 0.00000
v -0.17000 0.55000 -0.00000
v -0.17000 0.50813 -0.21048
vt 0.750000 0.250000
vt 0.990000 0.250000
vt 0.971731 0.341844
vn -1.0000 0.0000 0.0000
f 158/158/48 159/159/48 160/160/48
