# generated by dev-env-utils/scripts/gen_vehicle_fleet.py
o body
v 0.25000 0.00000 -0.25000
v -0.25000 0.00000 -0.25000
v -0.25000 0.12000 -0.25000
v 0.25000 0.12000 -0.25000
vt 0.007812 0.507812
vt 0.492188 0.507812
vt 0.492188 0.992188
vt 0.007812 0.992188
vn 0 0 -1
f 1/1/1 2/2/1 3/3/1 4/4/1
v -0.25000 0.00000 0.25000
v 0.25000 0.00000 0.25000
v 0.25000 0.12000 0.25000
v -0.25000 0.12000 0.25000
vt 0.007812 0.507812
vt 0.492188 0.507812
vt 0.492188 0.992188
vt 0.007812 0.992188
vn 0 0 1
f 5/5/2 6/6/2 7/7/2 8/8/2
v 0.25000 0.00000 0.25000
v 0.25000 0.00000 -0.25000
v 0.25000 0.12000 -0.25000
v 0.25000 0.12000 0.25000
vt 0.007812 0.507812
vt 0.492188 0.507812
vt 0.492188 0.992188
vt 0.007812 0.992188
vn 1 0 0
f 9/9/3 10/10/3 11/11/3 12/12/3
v -0.25000 0.00000 -0.25000
v -0.25000 0.00000 0.25000
v -0.25000 0.12000 0.25000
v -0.25000 0.12000 -0.25000
vt 0.007812 0.507812
vt 0.492188 0.507812
vt 0.492188 0.992188
vt 0.007812 0.992188
vn -1 0 0
f 13/13/4 14/14/4 15/15/4 16/16/4
v -0.25000 0.12000 0.25000
v 0.25000 0.12000 0.25000
v 0.25000 0.12000 -0.25000
v -0.25000 0.12000 -0.25000
vt 0.007812 0.507812
vt 0.492188 0.507812
vt 0.492188 0.992188
vt 0.007812 0.992188
vn 0 1 0
f 17/17/5 18/18/5 19/19/5 20/20/5
v -0.25000 0.00000 -0.25000
v 0.25000 0.00000 -0.25000
v 0.25000 0.00000 0.25000
v -0.25000 0.00000 0.25000
vt 0.007812 0.507812
vt 0.492188 0.507812
vt 0.492188 0.992188
vt 0.007812 0.992188
vn 0 -1 0
f 21/21/6 22/22/6 23/23/6 24/24/6
v 0.25000 0.12000 -0.32000
v -0.25000 0.12000 -0.32000
v -0.25000 0.75000 -0.32000
v 0.25000 0.75000 -0.32000
vt 0.007812 0.507812
vt 0.492188 0.507812
vt 0.492188 0.992188
vt 0.007812 0.992188
vn 0 0 -1
f 25/25/7 26/26/7 27/27/7 28/28/7
v -0.25000 0.12000 -0.20000
v 0.25000 0.12000 -0.20000
v 0.25000 0.75000 -0.20000
v -0.25000 0.75000 -0.20000
vt 0.007812 0.507812
vt 0.492188 0.507812
vt 0.492188 0.992188
vt 0.007812 0.992188
vn 0 0 1
f 29/29/8 30/30/8 31/31/8 32/32/8
v 0.25000 0.12000 -0.20000
v 0.25000 0.12000 -0.32000
v 0.25000 0.75000 -0.32000
v 0.25000 0.75000 -0.20000
vt 0.007812 0.507812
vt 0.492188 0.507812
vt 0.492188 0.992188
vt 0.007812 0.992188
vn 1 0 0
f 33/33/9 34/34/9 35/35/9 36/36/9
v -0.25000 0.12000 -0.32000
v -0.25000 0.12000 -0.20000
v -0.25000 0.75000 -0.20000
v -0.25000 0.75000 -0.32000
vt 0.007812 0.507812
vt 0.492188 0.507812
vt 0.492188 0.992188
vt 0.007812 0.992188
vn -1 0 0
f 37/37/10 38/38/10 39/39/10 40/40/10
v -0.25000 0.75000 -0.20000
v 0.25000 0.75000 -0.20000
v 0.25000 0.75000 -0.32000
v -0.25000 0.75000 -0.32000
vt 0.007812 0.507812
vt 0.492188 0.507812
vt 0.492188 0.992188
vt 0.007812 0.992188
vn 0 1 0
f 41/41/11 42/42/11 43/43/11 44/44/11
v -0.25000 0.12000 -0.32000
v 0.25000 0.12000 -0.32000
v 0.25000 0.12000 -0.20000
v -0.25000 0.12000 -0.20000
vt 0.007812 0.507812
vt 0.492188 0.507812
vt 0.492188 0.992188
vt 0.007812 0.992188
vn 0 -1 0
f 45/45/12 46/46/12 47/47/12 48/48/12
v 0.20000 -0.15000 -0.20000
v -0.20000 -0.15000 -0.20000
v -0.20000 0.00000 -0.20000
v 0.20000 0.00000 -0.20000
vt 0.507812 0.507812
vt 0.992188 0.507812
vt 0.992188 0.992188
vt 0.507812 0.992188
vn 0 0 -1
f 49/49/13 50/50/13 51/51/13 52/52/13
v -0.20000 -0.15000 0.20000
v 0.20000 -0.15000 0.20000
v 0.20000 0.00000 0.20000
v -0.20000 0.00000 0.20000
vt 0.507812 0.507812
vt 0.992188 0.507812
vt 0.992188 0.992188
vt 0.507812 0.992188
vn 0 0 1
f 53/53/14 54/54/14 55/55/14 56/56/14
v 0.20000 -0.15000 0.20000
v 0.20000 -0.15000 -0.20000
v 0.20000 0.00000 -0.20000
v 0.20000 0.00000 0.20000
vt 0.507812 0.507812
vt 0.992188 0.507812
vt 0.992188 0.992188
vt 0.507812 0.992188
vn 1 0 0
f 57/57/15 58/58/15 59/59/15 60/60/15
v -0.20000 -0.15000 -0.20000
v -0.20000 -0.15000 0.20000
v -0.20000 0.00000 0.20000
v -0.20000 0.00000 -0.20000
vt 0.507812 0.507812
vt 0.992188 0.507812
vt 0.992188 0.992188
vt 0.507812 0.992188
vn -1 0 0
f 61/61/16 62/62/16 63/63/16 64/64/16
v -0.20000 0.00000 0.20000
v 0.20000 0.00000 0.20000
v 0.20000 0.00000 -0.20000
v -0.20000 0.00000 -0.20000
vt 0.507812 0.507812
vt 0.992188 0.507812
vt 0.992188 0.992188
vt 0.507812 0.992188
vn 0 1 0
f 65/65/17 66/66/17 67/67/17 68/68/17
v -0.20000 -0.15000 -0.20000
v 0.20000 -0.15000 -0.20000
v 0.20000 -0.15000 0.20000
v -0.20000 -0.15000 0.20000
vt 0.507812 0.507812
vt 0.992188 0.507812
vt 0.992188 0.992188
vt 0.507812 0.992188
vn 0 -1 0
f 69/69/18 70/70/18 71/71/18 72/72/18
