# generated by dev-env-utils/scripts/gen_vehicle_parts.py
o body
v 1.36000 0.00000 -1.50000
v -1.36000 0.00000 -1.50000
v -1.36000 0.10000 -1.50000
v 1.36000 0.10000 -1.50000
vt 0.253906 0.753906
vt 0.496094 0.753906
vt 0.496094 0.996094
vt 0.253906 0.996094
vn 0 0 -1
f 1/1/1 2/2/1 3/3/1 4/4/1
v -1.36000 0.00000 1.45000
v 1.36000 0.00000 1.45000
v 1.36000 0.10000 1.45000
v -1.36000 0.10000 1.45000
vt 0.253906 0.753906
vt 0.496094 0.753906
vt 0.496094 0.996094
vt 0.253906 0.996094
vn 0 0 1
f 5/5/2 6/6/2 7/7/2 8/8/2
v 1.36000 0.00000 1.45000
v 1.36000 0.00000 -1.50000
v 1.36000 0.10000 -1.50000
v 1.36000 0.10000 1.45000
vt 0.253906 0.753906
vt 0.496094 0.753906
vt 0.496094 0.996094
vt 0.253906 0.996094
vn 1 0 0
f 9/9/3 10/10/3 11/11/3 12/12/3
v -1.36000 0.00000 -1.50000
v -1.36000 0.00000 1.45000
v -1.36000 0.10000 1.45000
v -1.36000 0.10000 -1.50000
vt 0.253906 0.753906
vt 0.496094 0.753906
vt 0.496094 0.996094
vt 0.253906 0.996094
vn -1 0 0
f 13/13/4 14/14/4 15/15/4 16/16/4
v -1.36000 0.10000 1.45000
v 1.36000 0.10000 1.45000
v 1.36000 0.10000 -1.50000
v -1.36000 0.10000 -1.50000
vt 0.253906 0.753906
vt 0.496094 0.753906
vt 0.496094 0.996094
vt 0.253906 0.996094
vn 0 1 0
f 17/17/5 18/18/5 19/19/5 20/20/5
v -1.36000 0.00000 -1.50000
v 1.36000 0.00000 -1.50000
v 1.36000 0.00000 1.45000
v -1.36000 0.00000 1.45000
vt 0.253906 0.753906
vt 0.496094 0.753906
vt 0.496094 0.996094
vt 0.253906 0.996094
vn 0 -1 0
f 21/21/6 22/22/6 23/23/6 24/24/6
v -1.28000 0.35000 1.37000
v 1.28000 0.35000 1.37000
v 1.28000 0.35000 -1.42000
v -1.28000 0.35000 -1.42000
vt 0.003906 0.503906
vt 0.246094 0.503906
vt 0.246094 0.746094
vt 0.003906 0.746094
vn 0 1 0
f 25/25/7 26/26/7 27/27/7 28/28/7
v 1.36000 0.10000 -1.50000
v 1.28000 0.10000 -1.50000
v 1.28000 1.75000 -1.50000
v 1.36000 1.75000 -1.50000
vt 0.003906 0.753906
vt 0.246094 0.753906
vt 0.246094 0.996094
vt 0.003906 0.996094
vn 0 0 -1
f 29/29/8 30/30/8 31/31/8 32/32/8
v 1.28000 0.10000 1.45000
v 1.36000 0.10000 1.45000
v 1.36000 1.75000 1.45000
v 1.28000 1.75000 1.45000
vt 0.003906 0.753906
vt 0.246094 0.753906
vt 0.246094 0.996094
vt 0.003906 0.996094
vn 0 0 1
f 33/33/9 34/34/9 35/35/9 36/36/9
v 1.36000 0.10000 1.45000
v 1.36000 0.10000 -1.50000
v 1.36000 1.75000 -1.50000
v 1.36000 1.75000 1.45000
vt 0.003906 0.753906
vt 0.246094 0.753906
vt 0.246094 0.996094
vt 0.003906 0.996094
vn 1 0 0
f 37/37/10 38/38/10 39/39/10 40/40/10
v 1.28000 0.10000 -1.50000
v 1.28000 0.10000 1.45000
v 1.28000 1.75000 1.45000
v 1.28000 1.75000 -1.50000
vt 0.003906 0.753906
vt 0.246094 0.753906
vt 0.246094 0.996094
vt 0.003906 0.996094
vn -1 0 0
f 41/41/11 42/42/11 43/43/11 44/44/11
v 1.28000 1.75000 1.45000
v 1.36000 1.75000 1.45000
v 1.36000 1.75000 -1.50000
v 1.28000 1.75000 -1.50000
vt 0.003906 0.753906
vt 0.246094 0.753906
vt 0.246094 0.996094
vt 0.003906 0.996094
vn 0 1 0
f 45/45/12 46/46/12 47/47/12 48/48/12
v 1.28000 0.10000 -1.50000
v 1.36000 0.10000 -1.50000
v 1.36000 0.10000 1.45000
v 1.28000 0.10000 1.45000
vt 0.003906 0.753906
vt 0.246094 0.753906
vt 0.246094 0.996094
vt 0.003906 0.996094
vn 0 -1 0
f 49/49/13 50/50/13 51/51/13 52/52/13
v -1.28000 0.10000 -1.50000
v -1.36000 0.10000 -1.50000
v -1.36000 1.75000 -1.50000
v -1.28000 1.75000 -1.50000
vt 0.003906 0.753906
vt 0.246094 0.753906
vt 0.246094 0.996094
vt 0.003906 0.996094
vn 0 0 -1
f 53/53/14 54/54/14 55/55/14 56/56/14
v -1.36000 0.10000 1.45000
v -1.28000 0.10000 1.45000
v -1.28000 1.75000 1.45000
v -1.36000 1.75000 1.45000
vt 0.003906 0.753906
vt 0.246094 0.753906
vt 0.246094 0.996094
vt 0.003906 0.996094
vn 0 0 1
f 57/57/15 58/58/15 59/59/15 60/60/15
v -1.28000 0.10000 1.45000
v -1.28000 0.10000 -1.50000
v -1.28000 1.75000 -1.50000
v -1.28000 1.75000 1.45000
vt 0.003906 0.753906
vt 0.246094 0.753906
vt 0.246094 0.996094
vt 0.003906 0.996094
vn 1 0 0
f 61/61/16 62/62/16 63/63/16 64/64/16
v -1.36000 0.10000 -1.50000
v -1.36000 0.10000 1.45000
v -1.36000 1.75000 1.45000
v -1.36000 1.75000 -1.50000
vt 0.003906 0.753906
vt 0.246094 0.753906
vt 0.246094 0.996094
vt 0.003906 0.996094
vn -1 0 0
f 65/65/17 66/66/17 67/67/17 68/68/17
v -1.36000 1.75000 1.45000
v -1.28000 1.75000 1.45000
v -1.28000 1.75000 -1.50000
v -1.36000 1.75000 -1.50000
vt 0.003906 0.753906
vt 0.246094 0.753906
vt 0.246094 0.996094
vt 0.003906 0.996094
vn 0 1 0
f 69/69/18 70/70/18 71/71/18 72/72/18
v -1.36000 0.10000 -1.50000
v -1.28000 0.10000 -1.50000
v -1.28000 0.10000 1.45000
v -1.36000 0.10000 1.45000
vt 0.003906 0.753906
vt 0.246094 0.753906
vt 0.246094 0.996094
vt 0.003906 0.996094
vn 0 -1 0
f 73/73/19 74/74/19 75/75/19 76/76/19
v 1.28000 0.10000 1.37000
v -1.28000 0.10000 1.37000
v -1.28000 2.00000 1.37000
v 1.28000 2.00000 1.37000
vt 0.003906 0.753906
vt 0.246094 0.753906
vt 0.246094 0.996094
vt 0.003906 0.996094
vn 0 0 -1
f 77/77/20 78/78/20 79/79/20 80/80/20
v -1.28000 0.10000 1.45000
v 1.28000 0.10000 1.45000
v 1.28000 2.00000 1.45000
v -1.28000 2.00000 1.45000
vt 0.003906 0.753906
vt 0.246094 0.753906
vt 0.246094 0.996094
vt 0.003906 0.996094
vn 0 0 1
f 81/81/21 82/82/21 83/83/21 84/84/21
v 1.28000 0.10000 1.45000
v 1.28000 0.10000 1.37000
v 1.28000 2.00000 1.37000
v 1.28000 2.00000 1.45000
vt 0.003906 0.753906
vt 0.246094 0.753906
vt 0.246094 0.996094
vt 0.003906 0.996094
vn 1 0 0
f 85/85/22 86/86/22 87/87/22 88/88/22
v -1.28000 0.10000 1.37000
v -1.28000 0.10000 1.45000
v -1.28000 2.00000 1.45000
v -1.28000 2.00000 1.37000
vt 0.003906 0.753906
vt 0.246094 0.753906
vt 0.246094 0.996094
vt 0.003906 0.996094
vn -1 0 0
f 89/89/23 90/90/23 91/91/23 92/92/23
v -1.28000 2.00000 1.45000
v 1.28000 2.00000 1.45000
v 1.28000 2.00000 1.37000
v -1.28000 2.00000 1.37000
vt 0.003906 0.753906
vt 0.246094 0.753906
vt 0.246094 0.996094
vt 0.003906 0.996094
vn 0 1 0
f 93/93/24 94/94/24 95/95/24 96/96/24
v -1.28000 0.10000 1.37000
v 1.28000 0.10000 1.37000
v 1.28000 0.10000 1.45000
v -1.28000 0.10000 1.45000
vt 0.003906 0.753906
vt 0.246094 0.753906
vt 0.246094 0.996094
vt 0.003906 0.996094
vn 0 -1 0
f 97/97/25 98/98/25 99/99/25 100/100/25
v 1.36000 1.75000 0.35000
v -1.36000 1.75000 0.35000
v -1.36000 1.83000 0.35000
v 1.36000 1.83000 0.35000
vt 0.003906 0.753906
vt 0.246094 0.753906
vt 0.246094 0.996094
vt 0.003906 0.996094
vn 0 0 -1
f 101/101/26 102/102/26 103/103/26 104/104/26
v -1.36000 1.75000 1.45000
v 1.36000 1.75000 1.45000
v 1.36000 1.83000 1.45000
v -1.36000 1.83000 1.45000
vt 0.003906 0.753906
vt 0.246094 0.753906
vt 0.246094 0.996094
vt 0.003906 0.996094
vn 0 0 1
f 105/105/27 106/106/27 107/107/27 108/108/27
v 1.36000 1.75000 1.45000
v 1.36000 1.75000 0.35000
v 1.36000 1.83000 0.35000
v 1.36000 1.83000 1.45000
vt 0.003906 0.753906
vt 0.246094 0.753906
vt 0.246094 0.996094
vt 0.003906 0.996094
vn 1 0 0
f 109/109/28 110/110/28 111/111/28 112/112/28
v -1.36000 1.75000 0.35000
v -1.36000 1.75000 1.45000
v -1.36000 1.83000 1.45000
v -1.36000 1.83000 0.35000
vt 0.003906 0.753906
vt 0.246094 0.753906
vt 0.246094 0.996094
vt 0.003906 0.996094
vn -1 0 0
f 113/113/29 114/114/29 115/115/29 116/116/29
v -1.36000 1.83000 1.45000
v 1.36000 1.83000 1.45000
v 1.36000 1.83000 0.35000
v -1.36000 1.83000 0.35000
vt 0.003906 0.753906
vt 0.246094 0.753906
vt 0.246094 0.996094
vt 0.003906 0.996094
vn 0 1 0
f 117/117/30 118/118/30 119/119/30 120/120/30
v -1.36000 1.75000 0.35000
v 1.36000 1.75000 0.35000
v 1.36000 1.75000 1.45000
v -1.36000 1.75000 1.45000
vt 0.003906 0.753906
vt 0.246094 0.753906
vt 0.246094 0.996094
vt 0.003906 0.996094
vn 0 -1 0
f 121/121/31 122/122/31 123/123/31 124/124/31
v 1.36000 1.75000 -1.50000
v 1.26000 1.75000 -1.50000
v 1.26000 1.81000 -1.50000
v 1.36000 1.81000 -1.50000
vt 0.253906 0.753906
vt 0.496094 0.753906
vt 0.496094 0.996094
vt 0.253906 0.996094
vn 0 0 -1
f 125/125/32 126/126/32 127/127/32 128/128/32
v 1.26000 1.75000 0.35000
v 1.36000 1.75000 0.35000
v 1.36000 1.81000 0.35000
v 1.26000 1.81000 0.35000
vt 0.253906 0.753906
vt 0.496094 0.753906
vt 0.496094 0.996094
vt 0.253906 0.996094
vn 0 0 1
f 129/129/33 130/130/33 131/131/33 132/132/33
v 1.36000 1.75000 0.35000
v 1.36000 1.75000 -1.50000
v 1.36000 1.81000 -1.50000
v 1.36000 1.81000 0.35000
vt 0.253906 0.753906
vt 0.496094 0.753906
vt 0.496094 0.996094
vt 0.253906 0.996094
vn 1 0 0
f 133/133/34 134/134/34 135/135/34 136/136/34
v 1.26000 1.75000 -1.50000
v 1.26000 1.75000 0.35000
v 1.26000 1.81000 0.35000
v 1.26000 1.81000 -1.50000
vt 0.253906 0.753906
vt 0.496094 0.753906
vt 0.496094 0.996094
vt 0.253906 0.996094
vn -1 0 0
f 137/137/35 138/138/35 139/139/35 140/140/35
v 1.26000 1.81000 0.35000
v 1.36000 1.81000 0.35000
v 1.36000 1.81000 -1.50000
v 1.26000 1.81000 -1.50000
vt 0.253906 0.753906
vt 0.496094 0.753906
vt 0.496094 0.996094
vt 0.253906 0.996094
vn 0 1 0
f 141/141/36 142/142/36 143/143/36 144/144/36
v 1.26000 1.75000 -1.50000
v 1.36000 1.75000 -1.50000
v 1.36000 1.75000 0.35000
v 1.26000 1.75000 0.35000
vt 0.253906 0.753906
vt 0.496094 0.753906
vt 0.496094 0.996094
vt 0.253906 0.996094
vn 0 -1 0
f 145/145/37 146/146/37 147/147/37 148/148/37
v -1.26000 1.75000 -1.50000
v -1.36000 1.75000 -1.50000
v -1.36000 1.81000 -1.50000
v -1.26000 1.81000 -1.50000
vt 0.253906 0.753906
vt 0.496094 0.753906
vt 0.496094 0.996094
vt 0.253906 0.996094
vn 0 0 -1
f 149/149/38 150/150/38 151/151/38 152/152/38
v -1.36000 1.75000 0.35000
v -1.26000 1.75000 0.35000
v -1.26000 1.81000 0.35000
v -1.36000 1.81000 0.35000
vt 0.253906 0.753906
vt 0.496094 0.753906
vt 0.496094 0.996094
vt 0.253906 0.996094
vn 0 0 1
f 153/153/39 154/154/39 155/155/39 156/156/39
v -1.26000 1.75000 0.35000
v -1.26000 1.75000 -1.50000
v -1.26000 1.81000 -1.50000
v -1.26000 1.81000 0.35000
vt 0.253906 0.753906
vt 0.496094 0.753906
vt 0.496094 0.996094
vt 0.253906 0.996094
vn 1 0 0
f 157/157/40 158/158/40 159/159/40 160/160/40
v -1.36000 1.75000 -1.50000
v -1.36000 1.75000 0.35000
v -1.36000 1.81000 0.35000
v -1.36000 1.81000 -1.50000
vt 0.253906 0.753906
vt 0.496094 0.753906
vt 0.496094 0.996094
vt 0.253906 0.996094
vn -1 0 0
f 161/161/41 162/162/41 163/163/41 164/164/41
v -1.36000 1.81000 0.35000
v -1.26000 1.81000 0.35000
v -1.26000 1.81000 -1.50000
v -1.36000 1.81000 -1.50000
vt 0.253906 0.753906
vt 0.496094 0.753906
vt 0.496094 0.996094
vt 0.253906 0.996094
vn 0 1 0
f 165/165/42 166/166/42 167/167/42 168/168/42
v -1.36000 1.75000 -1.50000
v -1.26000 1.75000 -1.50000
v -1.26000 1.75000 0.35000
v -1.36000 1.75000 0.35000
vt 0.253906 0.753906
vt 0.496094 0.753906
vt 0.496094 0.996094
vt 0.253906 0.996094
vn 0 -1 0
f 169/169/43 170/170/43 171/171/43 172/172/43
v 1.28000 0.10000 -1.50000
v 0.02000 0.10000 -1.50000
v 0.02000 1.30000 -1.50000
v 1.28000 1.30000 -1.50000
vt 0.003906 0.753906
vt 0.246094 0.753906
vt 0.246094 0.996094
vt 0.003906 0.996094
vn 0 0 -1
f 173/173/44 174/174/44 175/175/44 176/176/44
v 0.02000 0.10000 -1.44000
v 1.28000 0.10000 -1.44000
v 1.28000 1.30000 -1.44000
v 0.02000 1.30000 -1.44000
vt 0.003906 0.753906
vt 0.246094 0.753906
vt 0.246094 0.996094
vt 0.003906 0.996094
vn 0 0 1
f 177/177/45 178/178/45 179/179/45 180/180/45
v 1.28000 0.10000 -1.44000
v 1.28000 0.10000 -1.50000
v 1.28000 1.30000 -1.50000
v 1.28000 1.30000 -1.44000
vt 0.003906 0.753906
vt 0.246094 0.753906
vt 0.246094 0.996094
vt 0.003906 0.996094
vn 1 0 0
f 181/181/46 182/182/46 183/183/46 184/184/46
v 0.02000 0.10000 -1.50000
v 0.02000 0.10000 -1.44000
v 0.02000 1.30000 -1.44000
v 0.02000 1.30000 -1.50000
vt 0.003906 0.753906
vt 0.246094 0.753906
vt 0.246094 0.996094
vt 0.003906 0.996094
vn -1 0 0
f 185/185/47 186/186/47 187/187/47 188/188/47
v 0.02000 1.30000 -1.44000
v 1.28000 1.30000 -1.44000
v 1.28000 1.30000 -1.50000
v 0.02000 1.30000 -1.50000
vt 0.003906 0.753906
vt 0.246094 0.753906
vt 0.246094 0.996094
vt 0.003906 0.996094
vn 0 1 0
f 189/189/48 190/190/48 191/191/48 192/192/48
v 0.02000 0.10000 -1.50000
v 1.28000 0.10000 -1.50000
v 1.28000 0.10000 -1.44000
v 0.02000 0.10000 -1.44000
vt 0.003906 0.753906
vt 0.246094 0.753906
vt 0.246094 0.996094
vt 0.003906 0.996094
vn 0 -1 0
f 193/193/49 194/194/49 195/195/49 196/196/49
v -0.02000 0.10000 -1.50000
v -1.28000 0.10000 -1.50000
v -1.28000 1.30000 -1.50000
v -0.02000 1.30000 -1.50000
vt 0.003906 0.753906
vt 0.246094 0.753906
vt 0.246094 0.996094
vt 0.003906 0.996094
vn 0 0 -1
f 197/197/50 198/198/50 199/199/50 200/200/50
v -1.28000 0.10000 -1.44000
v -0.02000 0.10000 -1.44000
v -0.02000 1.30000 -1.44000
v -1.28000 1.30000 -1.44000
vt 0.003906 0.753906
vt 0.246094 0.753906
vt 0.246094 0.996094
vt 0.003906 0.996094
vn 0 0 1
f 201/201/51 202/202/51 203/203/51 204/204/51
v -0.02000 0.10000 -1.44000
v -0.02000 0.10000 -1.50000
v -0.02000 1.30000 -1.50000
v -0.02000 1.30000 -1.44000
vt 0.003906 0.753906
vt 0.246094 0.753906
vt 0.246094 0.996094
vt 0.003906 0.996094
vn 1 0 0
f 205/205/52 206/206/52 207/207/52 208/208/52
v -1.28000 0.10000 -1.50000
v -1.28000 0.10000 -1.44000
v -1.28000 1.30000 -1.44000
v -1.28000 1.30000 -1.50000
vt 0.003906 0.753906
vt 0.246094 0.753906
vt 0.246094 0.996094
vt 0.003906 0.996094
vn -1 0 0
f 209/209/53 210/210/53 211/211/53 212/212/53
v -1.28000 1.30000 -1.44000
v -0.02000 1.30000 -1.44000
v -0.02000 1.30000 -1.50000
v -1.28000 1.30000 -1.50000
vt 0.003906 0.753906
vt 0.246094 0.753906
vt 0.246094 0.996094
vt 0.003906 0.996094
vn 0 1 0
f 213/213/54 214/214/54 215/215/54 216/216/54
v -1.28000 0.10000 -1.50000
v -0.02000 0.10000 -1.50000
v -0.02000 0.10000 -1.44000
v -1.28000 0.10000 -1.44000
vt 0.003906 0.753906
vt 0.246094 0.753906
vt 0.246094 0.996094
vt 0.003906 0.996094
vn 0 -1 0
f 217/217/55 218/218/55 219/219/55 220/220/55
v 1.28000 1.55000 -1.50000
v -1.28000 1.55000 -1.50000
v -1.28000 1.75000 -1.50000
v 1.28000 1.75000 -1.50000
vt 0.003906 0.753906
vt 0.246094 0.753906
vt 0.246094 0.996094
vt 0.003906 0.996094
vn 0 0 -1
f 221/221/56 222/222/56 223/223/56 224/224/56
v -1.28000 1.55000 -1.44000
v 1.28000 1.55000 -1.44000
v 1.28000 1.75000 -1.44000
v -1.28000 1.75000 -1.44000
vt 0.003906 0.753906
vt 0.246094 0.753906
vt 0.246094 0.996094
vt 0.003906 0.996094
vn 0 0 1
f 225/225/57 226/226/57 227/227/57 228/228/57
v 1.28000 1.55000 -1.44000
v 1.28000 1.55000 -1.50000
v 1.28000 1.75000 -1.50000
v 1.28000 1.75000 -1.44000
vt 0.003906 0.753906
vt 0.246094 0.753906
vt 0.246094 0.996094
vt 0.003906 0.996094
vn 1 0 0
f 229/229/58 230/230/58 231/231/58 232/232/58
v -1.28000 1.55000 -1.50000
v -1.28000 1.55000 -1.44000
v -1.28000 1.75000 -1.44000
v -1.28000 1.75000 -1.50000
vt 0.003906 0.753906
vt 0.246094 0.753906
vt 0.246094 0.996094
vt 0.003906 0.996094
vn -1 0 0
f 233/233/59 234/234/59 235/235/59 236/236/59
v -1.28000 1.75000 -1.44000
v 1.28000 1.75000 -1.44000
v 1.28000 1.75000 -1.50000
v -1.28000 1.75000 -1.50000
vt 0.003906 0.753906
vt 0.246094 0.753906
vt 0.246094 0.996094
vt 0.003906 0.996094
vn 0 1 0
f 237/237/60 238/238/60 239/239/60 240/240/60
v -1.28000 1.55000 -1.50000
v 1.28000 1.55000 -1.50000
v 1.28000 1.55000 -1.44000
v -1.28000 1.55000 -1.44000
vt 0.003906 0.753906
vt 0.246094 0.753906
vt 0.246094 0.996094
vt 0.003906 0.996094
vn 0 -1 0
f 241/241/61 242/242/61 243/243/61 244/244/61
v 0.55000 0.15000 -2.35000
v -0.55000 0.15000 -2.35000
v -0.55000 1.05000 -2.35000
v 0.55000 1.05000 -2.35000
vt 0.503906 0.753906
vt 0.746094 0.753906
vt 0.746094 0.996094
vt 0.503906 0.996094
vn 0 0 -1
f 245/245/62 246/246/62 247/247/62 248/248/62
v -0.55000 0.15000 -1.52000
v 0.55000 0.15000 -1.52000
v 0.55000 1.05000 -1.52000
v -0.55000 1.05000 -1.52000
vt 0.503906 0.753906
vt 0.746094 0.753906
vt 0.746094 0.996094
vt 0.503906 0.996094
vn 0 0 1
f 249/249/63 250/250/63 251/251/63 252/252/63
v 0.55000 0.15000 -1.52000
v 0.55000 0.15000 -2.35000
v 0.55000 1.05000 -2.35000
v 0.55000 1.05000 -1.52000
vt 0.503906 0.753906
vt 0.746094 0.753906
vt 0.746094 0.996094
vt 0.503906 0.996094
vn 1 0 0
f 253/253/64 254/254/64 255/255/64 256/256/64
v -0.55000 0.15000 -2.35000
v -0.55000 0.15000 -1.52000
v -0.55000 1.05000 -1.52000
v -0.55000 1.05000 -2.35000
vt 0.503906 0.753906
vt 0.746094 0.753906
vt 0.746094 0.996094
vt 0.503906 0.996094
vn -1 0 0
f 257/257/65 258/258/65 259/259/65 260/260/65
v -0.55000 1.05000 -1.52000
v 0.55000 1.05000 -1.52000
v 0.55000 1.05000 -2.35000
v -0.55000 1.05000 -2.35000
vt 0.503906 0.753906
vt 0.746094 0.753906
vt 0.746094 0.996094
vt 0.503906 0.996094
vn 0 1 0
f 261/261/66 262/262/66 263/263/66 264/264/66
v -0.55000 0.15000 -2.35000
v 0.55000 0.15000 -2.35000
v 0.55000 0.15000 -1.52000
v -0.55000 0.15000 -1.52000
vt 0.503906 0.753906
vt 0.746094 0.753906
vt 0.746094 0.996094
vt 0.503906 0.996094
vn 0 -1 0
f 265/265/67 266/266/67 267/267/67 268/268/67
v 0.40000 0.25000 -2.70000
v -0.40000 0.25000 -2.70000
v -0.40000 0.75000 -2.70000
v 0.40000 0.75000 -2.70000
vt 0.753906 0.753906
vt 0.996094 0.753906
vt 0.996094 0.996094
vt 0.753906 0.996094
vn 0 0 -1
f 269/269/68 270/270/68 271/271/68 272/272/68
v 0.40000 0.25000 -2.35000
v 0.40000 0.25000 -2.70000
v 0.40000 0.75000 -2.70000
v 0.40000 0.75000 -2.35000
vt 0.753906 0.753906
vt 0.996094 0.753906
vt 0.996094 0.996094
vt 0.753906 0.996094
vn 1 0 0
f 273/273/69 274/274/69 275/275/69 276/276/69
v -0.40000 0.25000 -2.70000
v -0.40000 0.25000 -2.35000
v -0.40000 0.75000 -2.35000
v -0.40000 0.75000 -2.70000
vt 0.753906 0.753906
vt 0.996094 0.753906
vt 0.996094 0.996094
vt 0.753906 0.996094
vn -1 0 0
f 277/277/70 278/278/70 279/279/70 280/280/70
v -0.40000 0.75000 -2.35000
v 0.40000 0.75000 -2.35000
v 0.40000 0.75000 -2.70000
v -0.40000 0.75000 -2.70000
vt 0.753906 0.753906
vt 0.996094 0.753906
vt 0.996094 0.996094
vt 0.753906 0.996094
vn 0 1 0
f 281/281/71 282/282/71 283/283/71 284/284/71
v -0.40000 0.25000 -2.70000
v 0.40000 0.25000 -2.70000
v 0.40000 0.25000 -2.35000
v -0.40000 0.25000 -2.35000
vt 0.753906 0.753906
vt 0.996094 0.753906
vt 0.996094 0.996094
vt 0.753906 0.996094
vn 0 -1 0
f 285/285/72 286/286/72 287/287/72 288/288/72
v 0.60000 0.20000 -2.95000
v -0.60000 0.20000 -2.95000
v -0.60000 0.28000 -2.95000
v 0.60000 0.28000 -2.95000
vt 0.753906 0.503906
vt 0.996094 0.503906
vt 0.996094 0.746094
vt 0.753906 0.746094
vn 0 0 -1
f 289/289/73 290/290/73 291/291/73 292/292/73
v -0.60000 0.20000 -2.35000
v 0.60000 0.20000 -2.35000
v 0.60000 0.28000 -2.35000
v -0.60000 0.28000 -2.35000
vt 0.753906 0.503906
vt 0.996094 0.503906
vt 0.996094 0.746094
vt 0.753906 0.746094
vn 0 0 1
f 293/293/74 294/294/74 295/295/74 296/296/74
v 0.60000 0.20000 -2.35000
v 0.60000 0.20000 -2.95000
v 0.60000 0.28000 -2.95000
v 0.60000 0.28000 -2.35000
vt 0.753906 0.503906
vt 0.996094 0.503906
vt 0.996094 0.746094
vt 0.753906 0.746094
vn 1 0 0
f 297/297/75 298/298/75 299/299/75 300/300/75
v -0.60000 0.20000 -2.95000
v -0.60000 0.20000 -2.35000
v -0.60000 0.28000 -2.35000
v -0.60000 0.28000 -2.95000
vt 0.753906 0.503906
vt 0.996094 0.503906
vt 0.996094 0.746094
vt 0.753906 0.746094
vn -1 0 0
f 301/301/76 302/302/76 303/303/76 304/304/76
v -0.60000 0.28000 -2.35000
v 0.60000 0.28000 -2.35000
v 0.60000 0.28000 -2.95000
v -0.60000 0.28000 -2.95000
vt 0.753906 0.503906
vt 0.996094 0.503906
vt 0.996094 0.746094
vt 0.753906 0.746094
vn 0 1 0
f 305/305/77 306/306/77 307/307/77 308/308/77
v -0.60000 0.20000 -2.95000
v 0.60000 0.20000 -2.95000
v 0.60000 0.20000 -2.35000
v -0.60000 0.20000 -2.35000
vt 0.753906 0.503906
vt 0.996094 0.503906
vt 0.996094 0.746094
vt 0.753906 0.746094
vn 0 -1 0
f 309/309/78 310/310/78 311/311/78 312/312/78
v 0.60000 0.28000 -2.95000
v 0.52000 0.28000 -2.95000
v 0.52000 0.70000 -2.95000
v 0.60000 0.70000 -2.95000
vt 0.503906 0.753906
vt 0.746094 0.753906
vt 0.746094 0.996094
vt 0.503906 0.996094
vn 0 0 -1
f 313/313/79 314/314/79 315/315/79 316/316/79
v 0.52000 0.28000 -2.35000
v 0.60000 0.28000 -2.35000
v 0.60000 0.70000 -2.35000
v 0.52000 0.70000 -2.35000
vt 0.503906 0.753906
vt 0.746094 0.753906
vt 0.746094 0.996094
vt 0.503906 0.996094
vn 0 0 1
f 317/317/80 318/318/80 319/319/80 320/320/80
v 0.60000 0.28000 -2.35000
v 0.60000 0.28000 -2.95000
v 0.60000 0.70000 -2.95000
v 0.60000 0.70000 -2.35000
vt 0.503906 0.753906
vt 0.746094 0.753906
vt 0.746094 0.996094
vt 0.503906 0.996094
vn 1 0 0
f 321/321/81 322/322/81 323/323/81 324/324/81
v 0.52000 0.28000 -2.95000
v 0.52000 0.28000 -2.35000
v 0.52000 0.70000 -2.35000
v 0.52000 0.70000 -2.95000
vt 0.503906 0.753906
vt 0.746094 0.753906
vt 0.746094 0.996094
vt 0.503906 0.996094
vn -1 0 0
f 325/325/82 326/326/82 327/327/82 328/328/82
v 0.52000 0.70000 -2.35000
v 0.60000 0.70000 -2.35000
v 0.60000 0.70000 -2.95000
v 0.52000 0.70000 -2.95000
vt 0.503906 0.753906
vt 0.746094 0.753906
vt 0.746094 0.996094
vt 0.503906 0.996094
vn 0 1 0
f 329/329/83 330/330/83 331/331/83 332/332/83
v 0.52000 0.28000 -2.95000
v 0.60000 0.28000 -2.95000
v 0.60000 0.28000 -2.35000
v 0.52000 0.28000 -2.35000
vt 0.503906 0.753906
vt 0.746094 0.753906
vt 0.746094 0.996094
vt 0.503906 0.996094
vn 0 -1 0
f 333/333/84 334/334/84 335/335/84 336/336/84
v -0.52000 0.28000 -2.95000
v -0.60000 0.28000 -2.95000
v -0.60000 0.70000 -2.95000
v -0.52000 0.70000 -2.95000
vt 0.503906 0.753906
vt 0.746094 0.753906
vt 0.746094 0.996094
vt 0.503906 0.996094
vn 0 0 -1
f 337/337/85 338/338/85 339/339/85 340/340/85
v -0.60000 0.28000 -2.35000
v -0.52000 0.28000 -2.35000
v -0.52000 0.70000 -2.35000
v -0.60000 0.70000 -2.35000
vt 0.503906 0.753906
vt 0.746094 0.753906
vt 0.746094 0.996094
vt 0.503906 0.996094
vn 0 0 1
f 341/341/86 342/342/86 343/343/86 344/344/86
v -0.52000 0.28000 -2.35000
v -0.52000 0.28000 -2.95000
v -0.52000 0.70000 -2.95000
v -0.52000 0.70000 -2.35000
vt 0.503906 0.753906
vt 0.746094 0.753906
vt 0.746094 0.996094
vt 0.503906 0.996094
vn 1 0 0
f 345/345/87 346/346/87 347/347/87 348/348/87
v -0.60000 0.28000 -2.95000
v -0.60000 0.28000 -2.35000
v -0.60000 0.70000 -2.35000
v -0.60000 0.70000 -2.95000
vt 0.503906 0.753906
vt 0.746094 0.753906
vt 0.746094 0.996094
vt 0.503906 0.996094
vn -1 0 0
f 349/349/88 350/350/88 351/351/88 352/352/88
v -0.60000 0.70000 -2.35000
v -0.52000 0.70000 -2.35000
v -0.52000 0.70000 -2.95000
v -0.60000 0.70000 -2.95000
vt 0.503906 0.753906
vt 0.746094 0.753906
vt 0.746094 0.996094
vt 0.503906 0.996094
vn 0 1 0
f 353/353/89 354/354/89 355/355/89 356/356/89
v -0.60000 0.28000 -2.95000
v -0.52000 0.28000 -2.95000
v -0.52000 0.28000 -2.35000
v -0.60000 0.28000 -2.35000
vt 0.503906 0.753906
vt 0.746094 0.753906
vt 0.746094 0.996094
vt 0.503906 0.996094
vn 0 -1 0
f 357/357/90 358/358/90 359/359/90 360/360/90
v -0.55000 0.35000 -2.20000
v -0.62000 0.35000 -2.20000
v -0.62000 0.95000 -2.20000
v -0.55000 0.95000 -2.20000
vt 0.253906 0.753906
vt 0.496094 0.753906
vt 0.496094 0.996094
vt 0.253906 0.996094
vn 0 0 -1
f 361/361/91 362/362/91 363/363/91 364/364/91
v -0.62000 0.35000 -1.65000
v -0.55000 0.35000 -1.65000
v -0.55000 0.95000 -1.65000
v -0.62000 0.95000 -1.65000
vt 0.253906 0.753906
vt 0.496094 0.753906
vt 0.496094 0.996094
vt 0.253906 0.996094
vn 0 0 1
f 365/365/92 366/366/92 367/367/92 368/368/92
v -0.55000 0.35000 -1.65000
v -0.55000 0.35000 -2.20000
v -0.55000 0.95000 -2.20000
v -0.55000 0.95000 -1.65000
vt 0.253906 0.753906
vt 0.496094 0.753906
vt 0.496094 0.996094
vt 0.253906 0.996094
vn 1 0 0
f 369/369/93 370/370/93 371/371/93 372/372/93
v -0.62000 0.35000 -2.20000
v -0.62000 0.35000 -1.65000
v -0.62000 0.95000 -1.65000
v -0.62000 0.95000 -2.20000
vt 0.253906 0.753906
vt 0.496094 0.753906
vt 0.496094 0.996094
vt 0.253906 0.996094
vn -1 0 0
f 373/373/94 374/374/94 375/375/94 376/376/94
v -0.62000 0.95000 -1.65000
v -0.55000 0.95000 -1.65000
v -0.55000 0.95000 -2.20000
v -0.62000 0.95000 -2.20000
vt 0.253906 0.753906
vt 0.496094 0.753906
vt 0.496094 0.996094
vt 0.253906 0.996094
vn 0 1 0
f 377/377/95 378/378/95 379/379/95 380/380/95
v -0.62000 0.35000 -2.20000
v -0.55000 0.35000 -2.20000
v -0.55000 0.35000 -1.65000
v -0.62000 0.35000 -1.65000
vt 0.253906 0.753906
vt 0.496094 0.753906
vt 0.496094 0.996094
vt 0.253906 0.996094
vn 0 -1 0
f 381/381/96 382/382/96 383/383/96 384/384/96
v 0.12000 1.05000 -2.05000
v -0.12000 1.05000 -2.05000
v -0.12000 1.70000 -2.05000
v 0.12000 1.70000 -2.05000
vt 0.503906 0.753906
vt 0.746094 0.753906
vt 0.746094 0.996094
vt 0.503906 0.996094
vn 0 0 -1
f 385/385/97 386/386/97 387/387/97 388/388/97
v -0.12000 1.05000 -1.81000
v 0.12000 1.05000 -1.81000
v 0.12000 1.70000 -1.81000
v -0.12000 1.70000 -1.81000
vt 0.503906 0.753906
vt 0.746094 0.753906
vt 0.746094 0.996094
vt 0.503906 0.996094
vn 0 0 1
f 389/389/98 390/390/98 391/391/98 392/392/98
v 0.12000 1.05000 -1.81000
v 0.12000 1.05000 -2.05000
v 0.12000 1.70000 -2.05000
v 0.12000 1.70000 -1.81000
vt 0.503906 0.753906
vt 0.746094 0.753906
vt 0.746094 0.996094
vt 0.503906 0.996094
vn 1 0 0
f 393/393/99 394/394/99 395/395/99 396/396/99
v -0.12000 1.05000 -2.05000
v -0.12000 1.05000 -1.81000
v -0.12000 1.70000 -1.81000
v -0.12000 1.70000 -2.05000
vt 0.503906 0.753906
vt 0.746094 0.753906
vt 0.746094 0.996094
vt 0.503906 0.996094
vn -1 0 0
f 397/397/100 398/398/100 399/399/100 400/400/100
v -0.12000 1.70000 -1.81000
v 0.12000 1.70000 -1.81000
v 0.12000 1.70000 -2.05000
v -0.12000 1.70000 -2.05000
vt 0.503906 0.753906
vt 0.746094 0.753906
vt 0.746094 0.996094
vt 0.503906 0.996094
vn 0 1 0
f 401/401/101 402/402/101 403/403/101 404/404/101
v -0.12000 1.05000 -2.05000
v 0.12000 1.05000 -2.05000
v 0.12000 1.05000 -1.81000
v -0.12000 1.05000 -1.81000
vt 0.503906 0.753906
vt 0.746094 0.753906
vt 0.746094 0.996094
vt 0.503906 0.996094
vn 0 -1 0
f 405/405/102 406/406/102 407/407/102 408/408/102
v 0.12000 1.46000 -2.05000
v -0.12000 1.46000 -2.05000
v -0.12000 1.70000 -2.05000
v 0.12000 1.70000 -2.05000
vt 0.503906 0.753906
vt 0.746094 0.753906
vt 0.746094 0.996094
vt 0.503906 0.996094
vn 0 0 -1
f 409/409/103 410/410/103 411/411/103 412/412/103
v -0.12000 1.46000 -1.20000
v 0.12000 1.46000 -1.20000
v 0.12000 1.70000 -1.20000
v -0.12000 1.70000 -1.20000
vt 0.503906 0.753906
vt 0.746094 0.753906
vt 0.746094 0.996094
vt 0.503906 0.996094
vn 0 0 1
f 413/413/104 414/414/104 415/415/104 416/416/104
v 0.12000 1.46000 -1.20000
v 0.12000 1.46000 -2.05000
v 0.12000 1.70000 -2.05000
v 0.12000 1.70000 -1.20000
vt 0.503906 0.753906
vt 0.746094 0.753906
vt 0.746094 0.996094
vt 0.503906 0.996094
vn 1 0 0
f 417/417/105 418/418/105 419/419/105 420/420/105
v -0.12000 1.46000 -2.05000
v -0.12000 1.46000 -1.20000
v -0.12000 1.70000 -1.20000
v -0.12000 1.70000 -2.05000
vt 0.503906 0.753906
vt 0.746094 0.753906
vt 0.746094 0.996094
vt 0.503906 0.996094
vn -1 0 0
f 421/421/106 422/422/106 423/423/106 424/424/106
v -0.12000 1.70000 -1.20000
v 0.12000 1.70000 -1.20000
v 0.12000 1.70000 -2.05000
v -0.12000 1.70000 -2.05000
vt 0.503906 0.753906
vt 0.746094 0.753906
vt 0.746094 0.996094
vt 0.503906 0.996094
vn 0 1 0
f 425/425/107 426/426/107 427/427/107 428/428/107
v -0.12000 1.46000 -2.05000
v 0.12000 1.46000 -2.05000
v 0.12000 1.46000 -1.20000
v -0.12000 1.46000 -1.20000
vt 0.503906 0.753906
vt 0.746094 0.753906
vt 0.746094 0.996094
vt 0.503906 0.996094
vn 0 -1 0
f 429/429/108 430/430/108 431/431/108 432/432/108
o &LightBrakeLeft
v 1.24000 0.20000 -1.53000
v 1.06000 0.20000 -1.53000
v 1.06000 0.40000 -1.53000
v 1.24000 0.40000 -1.53000
vt 0.253906 0.628906
vt 0.371094 0.628906
vt 0.371094 0.746094
vt 0.253906 0.746094
vn 0 0 -1
f 433/433/109 434/434/109 435/435/109 436/436/109
v 1.24000 0.20000 -1.50000
v 1.24000 0.20000 -1.53000
v 1.24000 0.40000 -1.53000
v 1.24000 0.40000 -1.50000
vt 0.253906 0.628906
vt 0.371094 0.628906
vt 0.371094 0.746094
vt 0.253906 0.746094
vn 1 0 0
f 437/437/110 438/438/110 439/439/110 440/440/110
v 1.06000 0.20000 -1.53000
v 1.06000 0.20000 -1.50000
v 1.06000 0.40000 -1.50000
v 1.06000 0.40000 -1.53000
vt 0.253906 0.628906
vt 0.371094 0.628906
vt 0.371094 0.746094
vt 0.253906 0.746094
vn -1 0 0
f 441/441/111 442/442/111 443/443/111 444/444/111
v 1.06000 0.40000 -1.50000
v 1.24000 0.40000 -1.50000
v 1.24000 0.40000 -1.53000
v 1.06000 0.40000 -1.53000
vt 0.253906 0.628906
vt 0.371094 0.628906
vt 0.371094 0.746094
vt 0.253906 0.746094
vn 0 1 0
f 445/445/112 446/446/112 447/447/112 448/448/112
v 1.06000 0.20000 -1.53000
v 1.24000 0.20000 -1.53000
v 1.24000 0.20000 -1.50000
v 1.06000 0.20000 -1.50000
vt 0.253906 0.628906
vt 0.371094 0.628906
vt 0.371094 0.746094
vt 0.253906 0.746094
vn 0 -1 0
f 449/449/113 450/450/113 451/451/113 452/452/113
o &LightBrakeRight
v -1.06000 0.20000 -1.53000
v -1.24000 0.20000 -1.53000
v -1.24000 0.40000 -1.53000
v -1.06000 0.40000 -1.53000
vt 0.253906 0.628906
vt 0.371094 0.628906
vt 0.371094 0.746094
vt 0.253906 0.746094
vn 0 0 -1
f 453/453/114 454/454/114 455/455/114 456/456/114
v -1.06000 0.20000 -1.50000
v -1.06000 0.20000 -1.53000
v -1.06000 0.40000 -1.53000
v -1.06000 0.40000 -1.50000
vt 0.253906 0.628906
vt 0.371094 0.628906
vt 0.371094 0.746094
vt 0.253906 0.746094
vn 1 0 0
f 457/457/115 458/458/115 459/459/115 460/460/115
v -1.24000 0.20000 -1.53000
v -1.24000 0.20000 -1.50000
v -1.24000 0.40000 -1.50000
v -1.24000 0.40000 -1.53000
vt 0.253906 0.628906
vt 0.371094 0.628906
vt 0.371094 0.746094
vt 0.253906 0.746094
vn -1 0 0
f 461/461/116 462/462/116 463/463/116 464/464/116
v -1.24000 0.40000 -1.50000
v -1.06000 0.40000 -1.50000
v -1.06000 0.40000 -1.53000
v -1.24000 0.40000 -1.53000
vt 0.253906 0.628906
vt 0.371094 0.628906
vt 0.371094 0.746094
vt 0.253906 0.746094
vn 0 1 0
f 465/465/117 466/466/117 467/467/117 468/468/117
v -1.24000 0.20000 -1.53000
v -1.06000 0.20000 -1.53000
v -1.06000 0.20000 -1.50000
v -1.24000 0.20000 -1.50000
vt 0.253906 0.628906
vt 0.371094 0.628906
vt 0.371094 0.746094
vt 0.253906 0.746094
vn 0 -1 0
f 469/469/118 470/470/118 471/471/118 472/472/118
o &LightTurnLeftBack
v 1.24000 0.42000 -1.53000
v 1.06000 0.42000 -1.53000
v 1.06000 0.54000 -1.53000
v 1.24000 0.54000 -1.53000
vt 0.378906 0.628906
vt 0.496094 0.628906
vt 0.496094 0.746094
vt 0.378906 0.746094
vn 0 0 -1
f 473/473/119 474/474/119 475/475/119 476/476/119
v 1.24000 0.42000 -1.50000
v 1.24000 0.42000 -1.53000
v 1.24000 0.54000 -1.53000
v 1.24000 0.54000 -1.50000
vt 0.378906 0.628906
vt 0.496094 0.628906
vt 0.496094 0.746094
vt 0.378906 0.746094
vn 1 0 0
f 477/477/120 478/478/120 479/479/120 480/480/120
v 1.06000 0.42000 -1.53000
v 1.06000 0.42000 -1.50000
v 1.06000 0.54000 -1.50000
v 1.06000 0.54000 -1.53000
vt 0.378906 0.628906
vt 0.496094 0.628906
vt 0.496094 0.746094
vt 0.378906 0.746094
vn -1 0 0
f 481/481/121 482/482/121 483/483/121 484/484/121
v 1.06000 0.54000 -1.50000
v 1.24000 0.54000 -1.50000
v 1.24000 0.54000 -1.53000
v 1.06000 0.54000 -1.53000
vt 0.378906 0.628906
vt 0.496094 0.628906
vt 0.496094 0.746094
vt 0.378906 0.746094
vn 0 1 0
f 485/485/122 486/486/122 487/487/122 488/488/122
v 1.06000 0.42000 -1.53000
v 1.24000 0.42000 -1.53000
v 1.24000 0.42000 -1.50000
v 1.06000 0.42000 -1.50000
vt 0.378906 0.628906
vt 0.496094 0.628906
vt 0.496094 0.746094
vt 0.378906 0.746094
vn 0 -1 0
f 489/489/123 490/490/123 491/491/123 492/492/123
o &LightTurnRightBack
v -1.06000 0.42000 -1.53000
v -1.24000 0.42000 -1.53000
v -1.24000 0.54000 -1.53000
v -1.06000 0.54000 -1.53000
vt 0.378906 0.628906
vt 0.496094 0.628906
vt 0.496094 0.746094
vt 0.378906 0.746094
vn 0 0 -1
f 493/493/124 494/494/124 495/495/124 496/496/124
v -1.06000 0.42000 -1.50000
v -1.06000 0.42000 -1.53000
v -1.06000 0.54000 -1.53000
v -1.06000 0.54000 -1.50000
vt 0.378906 0.628906
vt 0.496094 0.628906
vt 0.496094 0.746094
vt 0.378906 0.746094
vn 1 0 0
f 497/497/125 498/498/125 499/499/125 500/500/125
v -1.24000 0.42000 -1.53000
v -1.24000 0.42000 -1.50000
v -1.24000 0.54000 -1.50000
v -1.24000 0.54000 -1.53000
vt 0.378906 0.628906
vt 0.496094 0.628906
vt 0.496094 0.746094
vt 0.378906 0.746094
vn -1 0 0
f 501/501/126 502/502/126 503/503/126 504/504/126
v -1.24000 0.54000 -1.50000
v -1.06000 0.54000 -1.50000
v -1.06000 0.54000 -1.53000
v -1.24000 0.54000 -1.53000
vt 0.378906 0.628906
vt 0.496094 0.628906
vt 0.496094 0.746094
vt 0.378906 0.746094
vn 0 1 0
f 505/505/127 506/506/127 507/507/127 508/508/127
v -1.24000 0.42000 -1.53000
v -1.06000 0.42000 -1.53000
v -1.06000 0.42000 -1.50000
v -1.24000 0.42000 -1.50000
vt 0.378906 0.628906
vt 0.496094 0.628906
vt 0.496094 0.746094
vt 0.378906 0.746094
vn 0 -1 0
f 509/509/128 510/510/128 511/511/128 512/512/128
o &LightReverse
v 1.24000 0.56000 -1.53000
v 1.06000 0.56000 -1.53000
v 1.06000 0.64000 -1.53000
v 1.24000 0.64000 -1.53000
vt 0.503906 0.628906
vt 0.621094 0.628906
vt 0.621094 0.746094
vt 0.503906 0.746094
vn 0 0 -1
f 513/513/129 514/514/129 515/515/129 516/516/129
v 1.24000 0.56000 -1.50000
v 1.24000 0.56000 -1.53000
v 1.24000 0.64000 -1.53000
v 1.24000 0.64000 -1.50000
vt 0.503906 0.628906
vt 0.621094 0.628906
vt 0.621094 0.746094
vt 0.503906 0.746094
vn 1 0 0
f 517/517/130 518/518/130 519/519/130 520/520/130
v 1.06000 0.56000 -1.53000
v 1.06000 0.56000 -1.50000
v 1.06000 0.64000 -1.50000
v 1.06000 0.64000 -1.53000
vt 0.503906 0.628906
vt 0.621094 0.628906
vt 0.621094 0.746094
vt 0.503906 0.746094
vn -1 0 0
f 521/521/131 522/522/131 523/523/131 524/524/131
v 1.06000 0.64000 -1.50000
v 1.24000 0.64000 -1.50000
v 1.24000 0.64000 -1.53000
v 1.06000 0.64000 -1.53000
vt 0.503906 0.628906
vt 0.621094 0.628906
vt 0.621094 0.746094
vt 0.503906 0.746094
vn 0 1 0
f 525/525/132 526/526/132 527/527/132 528/528/132
v 1.06000 0.56000 -1.53000
v 1.24000 0.56000 -1.53000
v 1.24000 0.56000 -1.50000
v 1.06000 0.56000 -1.50000
vt 0.503906 0.628906
vt 0.621094 0.628906
vt 0.621094 0.746094
vt 0.503906 0.746094
vn 0 -1 0
f 529/529/133 530/530/133 531/531/133 532/532/133
