# Generated by dev-env-utils/scripts/gen_transit_airside.py -- do not edit
mtllib jet_bridge_large.mtl
o airport_jet_bridge_large_uturn_c2
v 0.08440 0.09375 1.00000
v 0.00000 0.09375 0.59387
v 0.00000 0.09375 1.00000
v 0.00000 0.00000 1.00000
v 0.00000 0.00000 0.59387
v 0.08440 0.00000 1.00000
v 0.08440 4.24547 1.00000
v 0.00000 4.24547 0.59387
v 0.00000 4.24547 1.00000
v 0.00000 4.09375 1.00000
v 0.00000 4.09375 0.59387
v 0.08440 4.09375 1.00000
v 0.06867 0.09375 0.00000
v 0.00000 0.09375 0.00000
v 0.00000 0.09375 0.59387
v 0.08440 0.09375 1.00000
v 0.21244 0.09375 1.00000
v 0.06867 0.09375 0.00000
v 0.08440 0.09375 1.00000
v 0.08440 0.00000 1.00000
v 0.00000 0.00000 0.59387
v 0.00000 0.00000 0.00000
v 0.06867 0.00000 0.00000
v 0.08440 0.00000 1.00000
v 0.06867 0.00000 0.00000
v 0.21244 0.00000 1.00000
v 0.06867 4.24547 0.00000
v 0.00000 4.24547 0.00000
v 0.00000 4.24547 0.59387
v 0.08440 4.24547 1.00000
v 0.21244 4.24547 1.00000
v 0.06867 4.24547 0.00000
v 0.08440 4.24547 1.00000
v 0.08440 4.09375 1.00000
v 0.00000 4.09375 0.59387
v 0.00000 4.09375 0.00000
v 0.06867 4.09375 0.00000
v 0.08440 4.09375 1.00000
v 0.06867 4.09375 0.00000
v 0.21244 4.09375 1.00000
v 0.22511 0.09375 1.00000
v 0.08766 0.09375 0.00000
v 0.06867 0.09375 0.00000
v 0.21244 0.09375 1.00000
v 0.21244 0.00000 1.00000
v 0.06867 0.00000 0.00000
v 0.08766 0.00000 0.00000
v 0.22511 0.00000 1.00000
v 0.22511 4.24547 1.00000
v 0.08766 4.24547 0.00000
v 0.06867 4.24547 0.00000
v 0.21244 4.24547 1.00000
v 0.21244 4.09375 1.00000
v 0.06867 4.09375 0.00000
v 0.08766 4.09375 0.00000
v 0.22511 4.09375 1.00000
v 0.36320 0.09375 1.00000
v 0.29479 0.09375 0.00000
v 0.08766 0.09375 0.00000
v 0.22511 0.09375 1.00000
v 0.22511 0.00000 1.00000
v 0.08766 0.00000 0.00000
v 0.29479 0.00000 0.00000
v 0.36320 0.00000 1.00000
v 0.36320 4.24547 1.00000
v 0.29479 4.24547 0.00000
v 0.08766 4.24547 0.00000
v 0.22511 4.24547 1.00000
v 0.22511 4.09375 1.00000
v 0.08766 4.09375 0.00000
v 0.29479 4.09375 0.00000
v 0.36320 4.09375 1.00000
v 0.50000 0.09375 1.00000
v 0.50000 0.09375 0.00000
v 0.29479 0.09375 0.00000
v 0.36320 0.09375 1.00000
v 0.36320 0.00000 1.00000
v 0.29479 0.00000 0.00000
v 0.50000 0.00000 0.00000
v 0.50000 0.00000 1.00000
v 0.50000 4.24547 1.00000
v 0.50000 4.24547 0.00000
v 0.29479 4.24547 0.00000
v 0.36320 4.24547 1.00000
v 0.36320 4.09375 1.00000
v 0.29479 4.09375 0.00000
v 0.50000 4.09375 0.00000
v 0.50000 4.09375 1.00000
v 0.63680 0.09375 1.00000
v 0.70521 0.09375 0.00000
v 0.50000 0.09375 0.00000
v 0.50000 0.09375 1.00000
v 0.50000 0.00000 1.00000
v 0.50000 0.00000 0.00000
v 0.70521 0.00000 0.00000
v 0.63680 0.00000 1.00000
v 0.63680 4.24547 1.00000
v 0.70521 4.24547 0.00000
v 0.50000 4.24547 0.00000
v 0.50000 4.24547 1.00000
v 0.50000 4.09375 1.00000
v 0.50000 4.09375 0.00000
v 0.70521 4.09375 0.00000
v 0.63680 4.09375 1.00000
v 0.77489 0.09375 1.00000
v 0.91234 0.09375 0.00000
v 0.70521 0.09375 0.00000
v 0.63680 0.09375 1.00000
v 0.63680 0.00000 1.00000
v 0.70521 0.00000 0.00000
v 0.91234 0.00000 0.00000
v 0.77489 0.00000 1.00000
v 0.77489 4.24547 1.00000
v 0.91234 4.24547 0.00000
v 0.70521 4.24547 0.00000
v 0.63680 4.24547 1.00000
v 0.63680 4.09375 1.00000
v 0.70521 4.09375 0.00000
v 0.91234 4.09375 0.00000
v 0.77489 4.09375 1.00000
v 0.78756 0.09375 1.00000
v 0.93133 0.09375 0.00000
v 0.91234 0.09375 0.00000
v 0.77489 0.09375 1.00000
v 0.77489 0.00000 1.00000
v 0.91234 0.00000 0.00000
v 0.93133 0.00000 0.00000
v 0.78756 0.00000 1.00000
v 0.78756 4.24547 1.00000
v 0.93133 4.24547 0.00000
v 0.91234 4.24547 0.00000
v 0.77489 4.24547 1.00000
v 0.77489 4.09375 1.00000
v 0.91234 4.09375 0.00000
v 0.93133 4.09375 0.00000
v 0.78756 4.09375 1.00000
v 1.00000 0.09375 0.59387
v 1.00000 0.09375 0.00000
v 0.93133 0.09375 0.00000
v 0.78756 0.09375 1.00000
v 0.91560 0.09375 1.00000
v 1.00000 0.09375 0.59387
v 0.78756 0.09375 1.00000
v 0.78756 0.00000 1.00000
v 0.93133 0.00000 0.00000
v 1.00000 0.00000 0.00000
v 1.00000 0.00000 0.59387
v 0.78756 0.00000 1.00000
v 1.00000 0.00000 0.59387
v 0.91560 0.00000 1.00000
v 1.00000 4.24547 0.59387
v 1.00000 4.24547 0.00000
v 0.93133 4.24547 0.00000
v 0.78756 4.24547 1.00000
v 0.91560 4.24547 1.00000
v 1.00000 4.24547 0.59387
v 0.78756 4.24547 1.00000
v 0.78756 4.09375 1.00000
v 0.93133 4.09375 0.00000
v 1.00000 4.09375 0.00000
v 1.00000 4.09375 0.59387
v 0.78756 4.09375 1.00000
v 1.00000 4.09375 0.59387
v 0.91560 4.09375 1.00000
v 1.00000 0.09375 1.00000
v 1.00000 0.09375 0.59387
v 0.91560 0.09375 1.00000
v 0.91560 0.00000 1.00000
v 1.00000 0.00000 0.59387
v 1.00000 0.00000 1.00000
v 1.00000 4.24547 1.00000
v 1.00000 4.24547 0.59387
v 0.91560 4.24547 1.00000
v 0.91560 4.09375 1.00000
v 1.00000 4.09375 0.59387
v 1.00000 4.09375 1.00000
v 0.06867 0.09375 0.00000
v 0.00000 0.09375 -0.47758
v 0.00000 0.09375 0.00000
v 0.00000 0.00000 0.00000
v 0.00000 0.00000 -0.47758
v 0.06867 0.00000 0.00000
v 0.06867 4.24547 0.00000
v 0.00000 4.24547 -0.47758
v 0.00000 4.24547 0.00000
v 0.00000 4.09375 0.00000
v 0.00000 4.09375 -0.47758
v 0.06867 4.09375 0.00000
v 0.00229 0.09375 -0.62113
v 0.00000 0.09375 -0.62081
v 0.00000 0.09375 -0.47758
v 0.06867 0.09375 0.00000
v 0.08766 0.09375 0.00000
v 0.00229 0.09375 -0.62113
v 0.06867 0.09375 0.00000
v 0.06867 0.00000 0.00000
v 0.00000 0.00000 -0.47758
v 0.00000 0.00000 -0.62081
v 0.00229 0.00000 -0.62113
v 0.06867 0.00000 0.00000
v 0.00229 0.00000 -0.62113
v 0.08766 0.00000 0.00000
v 0.00229 4.24547 -0.62113
v 0.00000 4.24547 -0.62081
v 0.00000 4.24547 -0.47758
v 0.06867 4.24547 0.00000
v 0.08766 4.24547 0.00000
v 0.00229 4.24547 -0.62113
v 0.06867 4.24547 0.00000
v 0.06867 4.09375 0.00000
v 0.00000 4.09375 -0.47758
v 0.00000 4.09375 -0.62081
v 0.00229 4.09375 -0.62113
v 0.06867 4.09375 0.00000
v 0.00229 4.09375 -0.62113
v 0.08766 4.09375 0.00000
v 0.29479 0.09375 0.00000
v 0.25056 0.09375 -0.64665
v 0.00229 0.09375 -0.62113
v 0.08766 0.09375 0.00000
v 0.08766 0.00000 0.00000
v 0.00229 0.00000 -0.62113
v 0.25056 0.00000 -0.64665
v 0.29479 0.00000 0.00000
v 0.29479 4.24547 0.00000
v 0.25056 4.24547 -0.64665
v 0.00229 4.24547 -0.62113
v 0.08766 4.24547 0.00000
v 0.08766 4.09375 0.00000
v 0.00229 4.09375 -0.62113
v 0.25056 4.09375 -0.64665
v 0.29479 4.09375 0.00000
v 0.50000 0.09375 0.00000
v 0.50000 0.09375 -0.65517
v 0.25056 0.09375 -0.64665
v 0.29479 0.09375 0.00000
v 0.29479 0.00000 0.00000
v 0.25056 0.00000 -0.64665
v 0.50000 0.00000 -0.65517
v 0.50000 0.00000 0.00000
v 0.50000 4.24547 0.00000
v 0.50000 4.24547 -0.65517
v 0.25056 4.24547 -0.64665
v 0.29479 4.24547 0.00000
v 0.29479 4.09375 0.00000
v 0.25056 4.09375 -0.64665
v 0.50000 4.09375 -0.65517
v 0.50000 4.09375 0.00000
v 0.70521 0.09375 0.00000
v 0.74944 0.09375 -0.64665
v 0.50000 0.09375 -0.65517
v 0.50000 0.09375 0.00000
v 0.50000 0.00000 0.00000
v 0.50000 0.00000 -0.65517
v 0.74944 0.00000 -0.64665
v 0.70521 0.00000 0.00000
v 0.70521 4.24547 0.00000
v 0.74944 4.24547 -0.64665
v 0.50000 4.24547 -0.65517
v 0.50000 4.24547 0.00000
v 0.50000 4.09375 0.00000
v 0.50000 4.09375 -0.65517
v 0.74944 4.09375 -0.64665
v 0.70521 4.09375 0.00000
v 0.91234 0.09375 0.00000
v 0.99771 0.09375 -0.62113
v 0.74944 0.09375 -0.64665
v 0.70521 0.09375 0.00000
v 0.70521 0.00000 0.00000
v 0.74944 0.00000 -0.64665
v 0.99771 0.00000 -0.62113
v 0.91234 0.00000 0.00000
v 0.91234 4.24547 0.00000
v 0.99771 4.24547 -0.62113
v 0.74944 4.24547 -0.64665
v 0.70521 4.24547 0.00000
v 0.70521 4.09375 0.00000
v 0.74944 4.09375 -0.64665
v 0.99771 4.09375 -0.62113
v 0.91234 4.09375 0.00000
v 1.00000 0.09375 -0.47758
v 1.00000 0.09375 -0.62081
v 0.99771 0.09375 -0.62113
v 0.91234 0.09375 0.00000
v 0.93133 0.09375 0.00000
v 1.00000 0.09375 -0.47758
v 0.91234 0.09375 0.00000
v 0.91234 0.00000 0.00000
v 0.99771 0.00000 -0.62113
v 1.00000 0.00000 -0.62081
v 1.00000 0.00000 -0.47758
v 0.91234 0.00000 0.00000
v 1.00000 0.00000 -0.47758
v 0.93133 0.00000 0.00000
v 1.00000 4.24547 -0.47758
v 1.00000 4.24547 -0.62081
v 0.99771 4.24547 -0.62113
v 0.91234 4.24547 0.00000
v 0.93133 4.24547 0.00000
v 1.00000 4.24547 -0.47758
v 0.91234 4.24547 0.00000
v 0.91234 4.09375 0.00000
v 0.99771 4.09375 -0.62113
v 1.00000 4.09375 -0.62081
v 1.00000 4.09375 -0.47758
v 0.91234 4.09375 0.00000
v 1.00000 4.09375 -0.47758
v 0.93133 4.09375 0.00000
v 1.00000 0.09375 0.00000
v 1.00000 0.09375 -0.47758
v 0.93133 0.09375 0.00000
v 0.93133 0.00000 0.00000
v 1.00000 0.00000 -0.47758
v 1.00000 0.00000 0.00000
v 1.00000 4.24547 0.00000
v 1.00000 4.24547 -0.47758
v 0.93133 4.24547 0.00000
v 0.93133 4.09375 0.00000
v 1.00000 4.09375 -0.47758
v 1.00000 4.09375 0.00000
v 0.00000 0.09375 -0.46404
v 0.00190 0.09375 -0.46438
v 0.00190 4.09375 -0.46438
v 0.00000 4.09375 -0.46404
v 0.00000 4.09375 -0.62081
v 0.00229 4.09375 -0.62113
v 0.00229 0.09375 -0.62113
v 0.00000 0.09375 -0.62081
v 0.00000 0.09375 -0.62081
v 0.00229 0.09375 -0.62113
v 0.00229 0.00000 -0.62113
v 0.00000 0.00000 -0.62081
v 0.00000 4.24547 -0.62081
v 0.00229 4.24547 -0.62113
v 0.00229 4.09375 -0.62113
v 0.00000 4.09375 -0.62081
v 0.00190 4.09375 -0.46438
v 0.00190 0.09375 -0.46438
v 0.02342 0.09375 -0.46740
v 0.02342 4.09375 -0.46740
v 0.25056 4.09375 -0.64665
v 0.25056 0.09375 -0.64665
v 0.00229 0.09375 -0.62113
v 0.00229 4.09375 -0.62113
v 0.25056 0.09375 -0.64665
v 0.25056 0.00000 -0.64665
v 0.00229 0.00000 -0.62113
v 0.00229 0.09375 -0.62113
v 0.25056 4.24547 -0.64665
v 0.25056 4.09375 -0.64665
v 0.00229 4.09375 -0.62113
v 0.00229 4.24547 -0.62113
v 0.02342 4.09375 -0.46740
v 0.02342 0.09375 -0.46740
v 0.26115 0.09375 -0.49184
v 0.26115 4.09375 -0.49184
v 0.50000 4.09375 -0.65517
v 0.50000 0.09375 -0.65517
v 0.25056 0.09375 -0.64665
v 0.25056 4.09375 -0.64665
v 0.50000 0.09375 -0.65517
v 0.50000 0.00000 -0.65517
v 0.25056 0.00000 -0.64665
v 0.25056 0.09375 -0.64665
v 0.50000 4.24547 -0.65517
v 0.50000 4.09375 -0.65517
v 0.25056 4.09375 -0.64665
v 0.25056 4.24547 -0.64665
v 0.26115 4.09375 -0.49184
v 0.26115 0.09375 -0.49184
v 0.50000 0.09375 -0.50000
v 0.50000 4.09375 -0.50000
v 0.74944 4.09375 -0.64665
v 0.74944 0.09375 -0.64665
v 0.50000 0.09375 -0.65517
v 0.50000 4.09375 -0.65517
v 0.74944 0.09375 -0.64665
v 0.74944 0.00000 -0.64665
v 0.50000 0.00000 -0.65517
v 0.50000 0.09375 -0.65517
v 0.74944 4.24547 -0.64665
v 0.74944 4.09375 -0.64665
v 0.50000 4.09375 -0.65517
v 0.50000 4.24547 -0.65517
v 0.50000 4.09375 -0.50000
v 0.50000 0.09375 -0.50000
v 0.73885 0.09375 -0.49184
v 0.73885 4.09375 -0.49184
v 0.99771 4.09375 -0.62113
v 0.99771 0.09375 -0.62113
v 0.74944 0.09375 -0.64665
v 0.74944 4.09375 -0.64665
v 0.99771 0.09375 -0.62113
v 0.99771 0.00000 -0.62113
v 0.74944 0.00000 -0.64665
v 0.74944 0.09375 -0.64665
v 0.99771 4.24547 -0.62113
v 0.99771 4.09375 -0.62113
v 0.74944 4.09375 -0.64665
v 0.74944 4.24547 -0.64665
v 0.73885 4.09375 -0.49184
v 0.73885 0.09375 -0.49184
v 0.97658 0.09375 -0.46740
v 0.97658 4.09375 -0.46740
v 1.00000 4.09375 -0.62081
v 1.00000 0.09375 -0.62081
v 0.99771 0.09375 -0.62113
v 0.99771 4.09375 -0.62113
v 1.00000 0.09375 -0.62081
v 1.00000 0.00000 -0.62081
v 0.99771 0.00000 -0.62113
v 0.99771 0.09375 -0.62113
v 1.00000 4.24547 -0.62081
v 1.00000 4.09375 -0.62081
v 0.99771 4.09375 -0.62113
v 0.99771 4.24547 -0.62113
v 0.97658 4.09375 -0.46740
v 0.97658 0.09375 -0.46740
v 0.99810 0.09375 -0.46438
v 0.99810 4.09375 -0.46438
v 0.99810 4.09375 -0.46438
v 0.99810 0.09375 -0.46438
v 1.00000 0.09375 -0.46404
v 1.00000 4.09375 -0.46404
vt 0.52110 0.75000
vt 0.50000 0.64847
vt 0.50000 0.75000
vt 0.50000 0.75000
vt 0.50000 0.64847
vt 0.52110 0.75000
vt 0.52110 0.75000
vt 0.50000 0.64847
vt 0.50000 0.75000
vt 0.25930 0.16291
vt 0.31911 0.18295
vt 0.25645 0.18295
vt 0.51717 0.50000
vt 0.50000 0.50000
vt 0.50000 0.64847
vt 0.52110 0.75000
vt 0.55311 0.75000
vt 0.51717 0.50000
vt 0.52110 0.75000
vt 0.52110 0.75000
vt 0.50000 0.64847
vt 0.50000 0.50000
vt 0.51717 0.50000
vt 0.52110 0.75000
vt 0.51717 0.50000
vt 0.55311 0.75000
vt 0.51717 0.50000
vt 0.50000 0.50000
vt 0.50000 0.64847
vt 0.52110 0.75000
vt 0.55311 0.75000
vt 0.51717 0.50000
vt 0.52110 0.75000
vt 0.25645 0.18295
vt 0.31911 0.18295
vt 0.40729 0.20282
vt 0.40570 0.21400
vt 0.25645 0.18295
vt 0.40570 0.21400
vt 0.25311 0.21400
vt 0.55628 0.75000
vt 0.52191 0.50000
vt 0.51717 0.50000
vt 0.55311 0.75000
vt 0.55311 0.75000
vt 0.51717 0.50000
vt 0.52191 0.50000
vt 0.55628 0.75000
vt 0.55628 0.75000
vt 0.52191 0.50000
vt 0.51717 0.50000
vt 0.55311 0.75000
vt 0.25311 0.21400
vt 0.40570 0.21400
vt 0.40530 0.21710
vt 0.25284 0.21710
vt 0.59080 0.75000
vt 0.57370 0.50000
vt 0.52191 0.50000
vt 0.55628 0.75000
vt 0.55628 0.75000
vt 0.52191 0.50000
vt 0.57370 0.50000
vt 0.59080 0.75000
vt 0.59080 0.75000
vt 0.57370 0.50000
vt 0.52191 0.50000
vt 0.55628 0.75000
vt 0.25284 0.21710
vt 0.40530 0.21710
vt 0.40210 0.25125
vt 0.25071 0.25125
vt 0.62500 0.75000
vt 0.62500 0.50000
vt 0.57370 0.50000
vt 0.59080 0.75000
vt 0.59080 0.75000
vt 0.57370 0.50000
vt 0.62500 0.50000
vt 0.62500 0.75000
vt 0.62500 0.75000
vt 0.62500 0.50000
vt 0.57370 0.50000
vt 0.59080 0.75000
vt 0.25071 0.25125
vt 0.40210 0.25125
vt 0.40104 0.28540
vt 0.25000 0.28540
vt 0.65920 0.75000
vt 0.67630 0.50000
vt 0.62500 0.50000
vt 0.62500 0.75000
vt 0.62500 0.75000
vt 0.62500 0.50000
vt 0.67630 0.50000
vt 0.65920 0.75000
vt 0.65920 0.75000
vt 0.67630 0.50000
vt 0.62500 0.50000
vt 0.62500 0.75000
vt 0.25000 0.28540
vt 0.40104 0.28540
vt 0.40210 0.31955
vt 0.25071 0.31955
vt 0.69372 0.75000
vt 0.72809 0.50000
vt 0.67630 0.50000
vt 0.65920 0.75000
vt 0.65920 0.75000
vt 0.67630 0.50000
vt 0.72809 0.50000
vt 0.69372 0.75000
vt 0.69372 0.75000
vt 0.72809 0.50000
vt 0.67630 0.50000
vt 0.65920 0.75000
vt 0.25071 0.31955
vt 0.40210 0.31955
vt 0.40530 0.35369
vt 0.25284 0.35369
vt 0.69689 0.75000
vt 0.73283 0.50000
vt 0.72809 0.50000
vt 0.69372 0.75000
vt 0.69372 0.75000
vt 0.72809 0.50000
vt 0.73283 0.50000
vt 0.69689 0.75000
vt 0.69689 0.75000
vt 0.73283 0.50000
vt 0.72809 0.50000
vt 0.69372 0.75000
vt 0.25284 0.35369
vt 0.40530 0.35369
vt 0.40570 0.35680
vt 0.25311 0.35680
vt 0.75000 0.64847
vt 0.75000 0.50000
vt 0.73283 0.50000
vt 0.69689 0.75000
vt 0.72890 0.75000
vt 0.75000 0.64847
vt 0.69689 0.75000
vt 0.69689 0.75000
vt 0.73283 0.50000
vt 0.75000 0.50000
vt 0.75000 0.64847
vt 0.69689 0.75000
vt 0.75000 0.64847
vt 0.72890 0.75000
vt 0.75000 0.64847
vt 0.75000 0.50000
vt 0.73283 0.50000
vt 0.69689 0.75000
vt 0.72890 0.75000
vt 0.75000 0.64847
vt 0.69689 0.75000
vt 0.25311 0.35680
vt 0.40570 0.35680
vt 0.40729 0.36797
vt 0.31911 0.38784
vt 0.25311 0.35680
vt 0.31911 0.38784
vt 0.25645 0.38784
vt 0.75000 0.75000
vt 0.75000 0.64847
vt 0.72890 0.75000
vt 0.72890 0.75000
vt 0.75000 0.64847
vt 0.75000 0.75000
vt 0.75000 0.75000
vt 0.75000 0.64847
vt 0.72890 0.75000
vt 0.25645 0.38784
vt 0.31911 0.38784
vt 0.25930 0.40789
vt 0.51717 0.50000
vt 0.50000 0.38061
vt 0.50000 0.50000
vt 0.50000 0.50000
vt 0.50000 0.38061
vt 0.51717 0.50000
vt 0.51717 0.50000
vt 0.50000 0.38061
vt 0.50000 0.50000
vt 0.40729 0.20282
vt 0.47858 0.21400
vt 0.40570 0.21400
vt 0.50057 0.34472
vt 0.50000 0.34480
vt 0.50000 0.38061
vt 0.51717 0.50000
vt 0.52191 0.50000
vt 0.50057 0.34472
vt 0.51717 0.50000
vt 0.51717 0.50000
vt 0.50000 0.38061
vt 0.50000 0.34480
vt 0.50057 0.34472
vt 0.51717 0.50000
vt 0.50057 0.34472
vt 0.52191 0.50000
vt 0.50057 0.34472
vt 0.50000 0.34480
vt 0.50000 0.38061
vt 0.51717 0.50000
vt 0.52191 0.50000
vt 0.50057 0.34472
vt 0.51717 0.50000
vt 0.40570 0.21400
vt 0.47858 0.21400
vt 0.50000 0.21679
vt 0.50000 0.21710
vt 0.40570 0.21400
vt 0.50000 0.21710
vt 0.40530 0.21710
vt 0.57370 0.50000
vt 0.56264 0.33834
vt 0.50057 0.34472
vt 0.52191 0.50000
vt 0.52191 0.50000
vt 0.50057 0.34472
vt 0.56264 0.33834
vt 0.57370 0.50000
vt 0.57370 0.50000
vt 0.56264 0.33834
vt 0.50057 0.34472
vt 0.52191 0.50000
vt 0.40530 0.21710
vt 0.50000 0.21710
vt 0.50000 0.25125
vt 0.40210 0.25125
vt 0.62500 0.50000
vt 0.62500 0.33621
vt 0.56264 0.33834
vt 0.57370 0.50000
vt 0.57370 0.50000
vt 0.56264 0.33834
vt 0.62500 0.33621
vt 0.62500 0.50000
vt 0.62500 0.50000
vt 0.62500 0.33621
vt 0.56264 0.33834
vt 0.57370 0.50000
vt 0.40210 0.25125
vt 0.50000 0.25125
vt 0.50000 0.28540
vt 0.40104 0.28540
vt 0.67630 0.50000
vt 0.68736 0.33834
vt 0.62500 0.33621
vt 0.62500 0.50000
vt 0.62500 0.50000
vt 0.62500 0.33621
vt 0.68736 0.33834
vt 0.67630 0.50000
vt 0.67630 0.50000
vt 0.68736 0.33834
vt 0.62500 0.33621
vt 0.62500 0.50000
vt 0.40104 0.28540
vt 0.50000 0.28540
vt 0.50000 0.31955
vt 0.40210 0.31955
vt 0.72809 0.50000
vt 0.74943 0.34472
vt 0.68736 0.33834
vt 0.67630 0.50000
vt 0.67630 0.50000
vt 0.68736 0.33834
vt 0.74943 0.34472
vt 0.72809 0.50000
vt 0.72809 0.50000
vt 0.74943 0.34472
vt 0.68736 0.33834
vt 0.67630 0.50000
vt 0.40210 0.31955
vt 0.50000 0.31955
vt 0.50000 0.35369
vt 0.40530 0.35369
vt 0.75000 0.38061
vt 0.75000 0.34480
vt 0.74943 0.34472
vt 0.72809 0.50000
vt 0.73283 0.50000
vt 0.75000 0.38061
vt 0.72809 0.50000
vt 0.72809 0.50000
vt 0.74943 0.34472
vt 0.75000 0.34480
vt 0.75000 0.38061
vt 0.72809 0.50000
vt 0.75000 0.38061
vt 0.73283 0.50000
vt 0.75000 0.38061
vt 0.75000 0.34480
vt 0.74943 0.34472
vt 0.72809 0.50000
vt 0.73283 0.50000
vt 0.75000 0.38061
vt 0.72809 0.50000
vt 0.40530 0.35369
vt 0.50000 0.35369
vt 0.50000 0.35401
vt 0.47858 0.35680
vt 0.40530 0.35369
vt 0.47858 0.35680
vt 0.40570 0.35680
vt 0.75000 0.50000
vt 0.75000 0.38061
vt 0.73283 0.50000
vt 0.73283 0.50000
vt 0.75000 0.38061
vt 0.75000 0.50000
vt 0.75000 0.50000
vt 0.75000 0.38061
vt 0.73283 0.50000
vt 0.40570 0.35680
vt 0.47858 0.35680
vt 0.40729 0.36797
vt 0.49904 0.90625
vt 0.50000 0.90625
vt 0.50000 0.00000
vt 0.49904 0.00000
vt 0.00977 0.00000
vt 0.01087 0.00000
vt 0.01087 0.90625
vt 0.00977 0.90625
vt 0.01953 0.00000
vt 0.02174 0.00000
vt 0.02174 0.09375
vt 0.01953 0.09375
vt 0.01953 0.00000
vt 0.02174 0.00000
vt 0.02174 0.09375
vt 0.01953 0.09375
vt 0.00000 0.00000
vt 0.00000 0.90625
vt 0.01087 0.90625
vt 0.01087 0.00000
vt 0.13044 0.00000
vt 0.13044 0.90625
vt 0.01087 0.90625
vt 0.01087 0.00000
vt 0.26087 0.00000
vt 0.26087 0.09375
vt 0.02174 0.09375
vt 0.02174 0.00000
vt 0.26087 0.00000
vt 0.26087 0.09375
vt 0.02174 0.09375
vt 0.02174 0.00000
vt 0.01087 0.00000
vt 0.01087 0.90625
vt 0.13044 0.90625
vt 0.13044 0.00000
vt 0.25000 0.00000
vt 0.25000 0.90625
vt 0.13044 0.90625
vt 0.13044 0.00000
vt 0.50000 0.00000
vt 0.50000 0.09375
vt 0.26087 0.09375
vt 0.26087 0.00000
vt 0.50000 0.00000
vt 0.50000 0.09375
vt 0.26087 0.09375
vt 0.26087 0.00000
vt 0.13044 0.00000
vt 0.13044 0.90625
vt 0.25000 0.90625
vt 0.25000 0.00000
vt 0.36956 0.00000
vt 0.36956 0.90625
vt 0.25000 0.90625
vt 0.25000 0.00000
vt 0.73913 0.00000
vt 0.73913 0.09375
vt 0.50000 0.09375
vt 0.50000 0.00000
vt 0.73913 0.00000
vt 0.73913 0.09375
vt 0.50000 0.09375
vt 0.50000 0.00000
vt 0.25000 0.00000
vt 0.25000 0.90625
vt 0.36956 0.90625
vt 0.36956 0.00000
vt 0.48913 0.00000
vt 0.48913 0.90625
vt 0.36956 0.90625
vt 0.36956 0.00000
vt 0.97826 0.00000
vt 0.97826 0.09375
vt 0.73913 0.09375
vt 0.73913 0.00000
vt 0.97826 0.00000
vt 0.97826 0.09375
vt 0.73913 0.09375
vt 0.73913 0.00000
vt 0.36956 0.00000
vt 0.36956 0.90625
vt 0.48913 0.90625
vt 0.48913 0.00000
vt 0.49023 0.00000
vt 0.49023 0.90625
vt 0.48913 0.90625
vt 0.48913 0.00000
vt 0.98047 0.00000
vt 0.98047 0.09375
vt 0.97826 0.09375
vt 0.97826 0.00000
vt 0.98047 0.00000
vt 0.98047 0.09375
vt 0.97826 0.09375
vt 0.97826 0.00000
vt 0.48913 0.00000
vt 0.48913 0.90625
vt 0.50000 0.90625
vt 0.50000 0.00000
vt 0.00000 0.00000
vt 0.00000 0.90625
vt 0.00096 0.90625
vt 0.00096 0.00000
vn 0.00000 1.00000 0.00000
vn 0.00000 1.00000 0.00000
vn 0.00000 1.00000 0.00000
vn 0.00000 -1.00000 0.00000
vn 0.00000 -1.00000 0.00000
vn 0.00000 -1.00000 0.00000
vn 0.00000 1.00000 0.00000
vn 0.00000 1.00000 0.00000
vn 0.00000 1.00000 0.00000
vn 0.00000 -1.00000 0.00000
vn 0.00000 -1.00000 0.00000
vn 0.00000 -1.00000 0.00000
vn 0.00000 1.00000 0.00000
vn 0.00000 1.00000 0.00000
vn 0.00000 1.00000 0.00000
vn 0.00000 1.00000 0.00000
vn 0.00000 1.00000 0.00000
vn 0.00000 1.00000 0.00000
vn 0.00000 1.00000 0.00000
vn 0.00000 -1.00000 0.00000
vn 0.00000 -1.00000 0.00000
vn 0.00000 -1.00000 0.00000
vn 0.00000 -1.00000 0.00000
vn 0.00000 -1.00000 0.00000
vn 0.00000 -1.00000 0.00000
vn 0.00000 -1.00000 0.00000
vn 0.00000 1.00000 0.00000
vn 0.00000 1.00000 0.00000
vn 0.00000 1.00000 0.00000
vn 0.00000 1.00000 0.00000
vn 0.00000 1.00000 0.00000
vn 0.00000 1.00000 0.00000
vn 0.00000 1.00000 0.00000
vn 0.00000 -1.00000 0.00000
vn 0.00000 -1.00000 0.00000
vn 0.00000 -1.00000 0.00000
vn 0.00000 -1.00000 0.00000
vn 0.00000 -1.00000 0.00000
vn 0.00000 -1.00000 0.00000
vn 0.00000 -1.00000 0.00000
vn 0.00000 1.00000 0.00000
vn 0.00000 1.00000 0.00000
vn 0.00000 1.00000 0.00000
vn 0.00000 1.00000 0.00000
vn 0.00000 -1.00000 0.00000
vn 0.00000 -1.00000 0.00000
vn 0.00000 -1.00000 0.00000
vn 0.00000 -1.00000 0.00000
vn 0.00000 1.00000 0.00000
vn 0.00000 1.00000 0.00000
vn 0.00000 1.00000 0.00000
vn 0.00000 1.00000 0.00000
vn 0.00000 -1.00000 0.00000
vn 0.00000 -1.00000 0.00000
vn 0.00000 -1.00000 0.00000
vn 0.00000 -1.00000 0.00000
vn 0.00000 1.00000 0.00000
vn 0.00000 1.00000 0.00000
vn 0.00000 1.00000 0.00000
vn 0.00000 1.00000 0.00000
vn 0.00000 -1.00000 0.00000
vn 0.00000 -1.00000 0.00000
vn 0.00000 -1.00000 0.00000
vn 0.00000 -1.00000 0.00000
vn 0.00000 1.00000 0.00000
vn 0.00000 1.00000 0.00000
vn 0.00000 1.00000 0.00000
vn 0.00000 1.00000 0.00000
vn 0.00000 -1.00000 0.00000
vn 0.00000 -1.00000 0.00000
vn 0.00000 -1.00000 0.00000
vn 0.00000 -1.00000 0.00000
vn 0.00000 1.00000 0.00000
vn 0.00000 1.00000 0.00000
vn 0.00000 1.00000 0.00000
vn 0.00000 1.00000 0.00000
vn 0.00000 -1.00000 0.00000
vn 0.00000 -1.00000 0.00000
vn 0.00000 -1.00000 0.00000
vn 0.00000 -1.00000 0.00000
vn 0.00000 1.00000 0.00000
vn 0.00000 1.00000 0.00000
vn 0.00000 1.00000 0.00000
vn 0.00000 1.00000 0.00000
vn 0.00000 -1.00000 0.00000
vn 0.00000 -1.00000 0.00000
vn 0.00000 -1.00000 0.00000
vn 0.00000 -1.00000 0.00000
vn 0.00000 1.00000 0.00000
vn 0.00000 1.00000 0.00000
vn 0.00000 1.00000 0.00000
vn 0.00000 1.00000 0.00000
vn 0.00000 -1.00000 0.00000
vn 0.00000 -1.00000 0.00000
vn 0.00000 -1.00000 0.00000
vn 0.00000 -1.00000 0.00000
vn 0.00000 1.00000 0.00000
vn 0.00000 1.00000 0.00000
vn 0.00000 1.00000 0.00000
vn 0.00000 1.00000 0.00000
vn 0.00000 -1.00000 0.00000
vn 0.00000 -1.00000 0.00000
vn 0.00000 -1.00000 0.00000
vn 0.00000 -1.00000 0.00000
vn 0.00000 1.00000 0.00000
vn 0.00000 1.00000 0.00000
vn 0.00000 1.00000 0.00000
vn 0.00000 1.00000 0.00000
vn 0.00000 -1.00000 0.00000
vn 0.00000 -1.00000 0.00000
vn 0.00000 -1.00000 0.00000
vn 0.00000 -1.00000 0.00000
vn 0.00000 1.00000 0.00000
vn 0.00000 1.00000 0.00000
vn 0.00000 1.00000 0.00000
vn 0.00000 1.00000 0.00000
vn 0.00000 -1.00000 0.00000
vn 0.00000 -1.00000 0.00000
vn 0.00000 -1.00000 0.00000
vn 0.00000 -1.00000 0.00000
vn 0.00000 1.00000 0.00000
vn 0.00000 1.00000 0.00000
vn 0.00000 1.00000 0.00000
vn 0.00000 1.00000 0.00000
vn 0.00000 -1.00000 0.00000
vn 0.00000 -1.00000 0.00000
vn 0.00000 -1.00000 0.00000
vn 0.00000 -1.00000 0.00000
vn 0.00000 1.00000 0.00000
vn 0.00000 1.00000 0.00000
vn 0.00000 1.00000 0.00000
vn 0.00000 1.00000 0.00000
vn 0.00000 -1.00000 0.00000
vn 0.00000 -1.00000 0.00000
vn 0.00000 -1.00000 0.00000
vn 0.00000 -1.00000 0.00000
vn 0.00000 1.00000 0.00000
vn 0.00000 1.00000 0.00000
vn 0.00000 1.00000 0.00000
vn 0.00000 1.00000 0.00000
vn 0.00000 1.00000 0.00000
vn 0.00000 1.00000 0.00000
vn 0.00000 1.00000 0.00000
vn 0.00000 -1.00000 0.00000
vn 0.00000 -1.00000 0.00000
vn 0.00000 -1.00000 0.00000
vn 0.00000 -1.00000 0.00000
vn 0.00000 -1.00000 0.00000
vn 0.00000 -1.00000 0.00000
vn 0.00000 -1.00000 0.00000
vn 0.00000 1.00000 0.00000
vn 0.00000 1.00000 0.00000
vn 0.00000 1.00000 0.00000
vn 0.00000 1.00000 0.00000
vn 0.00000 1.00000 0.00000
vn 0.00000 1.00000 0.00000
vn 0.00000 1.00000 0.00000
vn 0.00000 -1.00000 0.00000
vn 0.00000 -1.00000 0.00000
vn 0.00000 -1.00000 0.00000
vn 0.00000 -1.00000 0.00000
vn 0.00000 -1.00000 0.00000
vn 0.00000 -1.00000 0.00000
vn 0.00000 -1.00000 0.00000
vn 0.00000 1.00000 0.00000
vn 0.00000 1.00000 0.00000
vn 0.00000 1.00000 0.00000
vn 0.00000 -1.00000 0.00000
vn 0.00000 -1.00000 0.00000
vn 0.00000 -1.00000 0.00000
vn 0.00000 1.00000 0.00000
vn 0.00000 1.00000 0.00000
vn 0.00000 1.00000 0.00000
vn 0.00000 -1.00000 0.00000
vn 0.00000 -1.00000 0.00000
vn 0.00000 -1.00000 0.00000
vn 0.00000 1.00000 0.00000
vn 0.00000 1.00000 0.00000
vn 0.00000 1.00000 0.00000
vn 0.00000 -1.00000 0.00000
vn 0.00000 -1.00000 0.00000
vn 0.00000 -1.00000 0.00000
vn 0.00000 1.00000 0.00000
vn 0.00000 1.00000 0.00000
vn 0.00000 1.00000 0.00000
vn 0.00000 -1.00000 0.00000
vn 0.00000 -1.00000 0.00000
vn 0.00000 -1.00000 0.00000
vn 0.00000 1.00000 0.00000
vn 0.00000 1.00000 0.00000
vn 0.00000 1.00000 0.00000
vn 0.00000 1.00000 0.00000
vn 0.00000 1.00000 0.00000
vn 0.00000 1.00000 0.00000
vn 0.00000 1.00000 0.00000
vn 0.00000 -1.00000 0.00000
vn 0.00000 -1.00000 0.00000
vn 0.00000 -1.00000 0.00000
vn 0.00000 -1.00000 0.00000
vn 0.00000 -1.00000 0.00000
vn 0.00000 -1.00000 0.00000
vn 0.00000 -1.00000 0.00000
vn 0.00000 1.00000 0.00000
vn 0.00000 1.00000 0.00000
vn 0.00000 1.00000 0.00000
vn 0.00000 1.00000 0.00000
vn 0.00000 1.00000 0.00000
vn 0.00000 1.00000 0.00000
vn 0.00000 1.00000 0.00000
vn 0.00000 -1.00000 0.00000
vn 0.00000 -1.00000 0.00000
vn 0.00000 -1.00000 0.00000
vn 0.00000 -1.00000 0.00000
vn 0.00000 -1.00000 0.00000
vn 0.00000 -1.00000 0.00000
vn 0.00000 -1.00000 0.00000
vn 0.00000 1.00000 0.00000
vn 0.00000 1.00000 0.00000
vn 0.00000 1.00000 0.00000
vn 0.00000 1.00000 0.00000
vn 0.00000 -1.00000 0.00000
vn 0.00000 -1.00000 0.00000
vn 0.00000 -1.00000 0.00000
vn 0.00000 -1.00000 0.00000
vn 0.00000 1.00000 0.00000
vn 0.00000 1.00000 0.00000
vn 0.00000 1.00000 0.00000
vn 0.00000 1.00000 0.00000
vn 0.00000 -1.00000 0.00000
vn 0.00000 -1.00000 0.00000
vn 0.00000 -1.00000 0.00000
vn 0.00000 -1.00000 0.00000
vn 0.00000 1.00000 0.00000
vn 0.00000 1.00000 0.00000
vn 0.00000 1.00000 0.00000
vn 0.00000 1.00000 0.00000
vn 0.00000 -1.00000 0.00000
vn 0.00000 -1.00000 0.00000
vn 0.00000 -1.00000 0.00000
vn 0.00000 -1.00000 0.00000
vn 0.00000 1.00000 0.00000
vn 0.00000 1.00000 0.00000
vn 0.00000 1.00000 0.00000
vn 0.00000 1.00000 0.00000
vn 0.00000 -1.00000 0.00000
vn 0.00000 -1.00000 0.00000
vn 0.00000 -1.00000 0.00000
vn 0.00000 -1.00000 0.00000
vn 0.00000 1.00000 0.00000
vn 0.00000 1.00000 0.00000
vn 0.00000 1.00000 0.00000
vn 0.00000 1.00000 0.00000
vn 0.00000 -1.00000 0.00000
vn 0.00000 -1.00000 0.00000
vn 0.00000 -1.00000 0.00000
vn 0.00000 -1.00000 0.00000
vn 0.00000 1.00000 0.00000
vn 0.00000 1.00000 0.00000
vn 0.00000 1.00000 0.00000
vn 0.00000 1.00000 0.00000
vn 0.00000 -1.00000 0.00000
vn 0.00000 -1.00000 0.00000
vn 0.00000 -1.00000 0.00000
vn 0.00000 -1.00000 0.00000
vn 0.00000 1.00000 0.00000
vn 0.00000 1.00000 0.00000
vn 0.00000 1.00000 0.00000
vn 0.00000 1.00000 0.00000
vn 0.00000 -1.00000 0.00000
vn 0.00000 -1.00000 0.00000
vn 0.00000 -1.00000 0.00000
vn 0.00000 -1.00000 0.00000
vn 0.00000 1.00000 0.00000
vn 0.00000 1.00000 0.00000
vn 0.00000 1.00000 0.00000
vn 0.00000 1.00000 0.00000
vn 0.00000 -1.00000 0.00000
vn 0.00000 -1.00000 0.00000
vn 0.00000 -1.00000 0.00000
vn 0.00000 -1.00000 0.00000
vn 0.00000 1.00000 0.00000
vn 0.00000 1.00000 0.00000
vn 0.00000 1.00000 0.00000
vn 0.00000 1.00000 0.00000
vn 0.00000 1.00000 0.00000
vn 0.00000 1.00000 0.00000
vn 0.00000 1.00000 0.00000
vn 0.00000 -1.00000 0.00000
vn 0.00000 -1.00000 0.00000
vn 0.00000 -1.00000 0.00000
vn 0.00000 -1.00000 0.00000
vn 0.00000 -1.00000 0.00000
vn 0.00000 -1.00000 0.00000
vn 0.00000 -1.00000 0.00000
vn 0.00000 1.00000 0.00000
vn 0.00000 1.00000 0.00000
vn 0.00000 1.00000 0.00000
vn 0.00000 1.00000 0.00000
vn 0.00000 1.00000 0.00000
vn 0.00000 1.00000 0.00000
vn 0.00000 1.00000 0.00000
vn 0.00000 -1.00000 0.00000
vn 0.00000 -1.00000 0.00000
vn 0.00000 -1.00000 0.00000
vn 0.00000 -1.00000 0.00000
vn 0.00000 -1.00000 0.00000
vn 0.00000 -1.00000 0.00000
vn 0.00000 -1.00000 0.00000
vn 0.00000 1.00000 0.00000
vn 0.00000 1.00000 0.00000
vn 0.00000 1.00000 0.00000
vn 0.00000 -1.00000 0.00000
vn 0.00000 -1.00000 0.00000
vn 0.00000 -1.00000 0.00000
vn 0.00000 1.00000 0.00000
vn 0.00000 1.00000 0.00000
vn 0.00000 1.00000 0.00000
vn 0.00000 -1.00000 0.00000
vn 0.00000 -1.00000 0.00000
vn 0.00000 -1.00000 0.00000
vn 0.17297 0.00000 0.98493
vn 0.17297 0.00000 0.98493
vn 0.17297 0.00000 0.98493
vn 0.17297 0.00000 0.98493
vn -0.13924 0.00000 -0.99026
vn -0.13924 0.00000 -0.99026
vn -0.13924 0.00000 -0.99026
vn -0.13924 0.00000 -0.99026
vn -0.13924 0.00000 -0.99026
vn -0.13924 0.00000 -0.99026
vn -0.13924 0.00000 -0.99026
vn -0.13924 0.00000 -0.99026
vn -0.13924 0.00000 -0.99026
vn -0.13924 0.00000 -0.99026
vn -0.13924 0.00000 -0.99026
vn -0.13924 0.00000 -0.99026
vn 0.13924 0.00000 0.99026
vn 0.13924 0.00000 0.99026
vn 0.13924 0.00000 0.99026
vn 0.13924 0.00000 0.99026
vn -0.10226 0.00000 -0.99476
vn -0.10226 0.00000 -0.99476
vn -0.10226 0.00000 -0.99476
vn -0.10226 0.00000 -0.99476
vn -0.10226 0.00000 -0.99476
vn -0.10226 0.00000 -0.99476
vn -0.10226 0.00000 -0.99476
vn -0.10226 0.00000 -0.99476
vn -0.10226 0.00000 -0.99476
vn -0.10226 0.00000 -0.99476
vn -0.10226 0.00000 -0.99476
vn -0.10226 0.00000 -0.99476
vn 0.10226 0.00000 0.99476
vn 0.10226 0.00000 0.99476
vn 0.10226 0.00000 0.99476
vn 0.10226 0.00000 0.99476
vn -0.03414 0.00000 -0.99942
vn -0.03414 0.00000 -0.99942
vn -0.03414 0.00000 -0.99942
vn -0.03414 0.00000 -0.99942
vn -0.03414 0.00000 -0.99942
vn -0.03414 0.00000 -0.99942
vn -0.03414 0.00000 -0.99942
vn -0.03414 0.00000 -0.99942
vn -0.03414 0.00000 -0.99942
vn -0.03414 0.00000 -0.99942
vn -0.03414 0.00000 -0.99942
vn -0.03414 0.00000 -0.99942
vn 0.03414 0.00000 0.99942
vn 0.03414 0.00000 0.99942
vn 0.03414 0.00000 0.99942
vn 0.03414 0.00000 0.99942
vn 0.03414 0.00000 -0.99942
vn 0.03414 0.00000 -0.99942
vn 0.03414 0.00000 -0.99942
vn 0.03414 0.00000 -0.99942
vn 0.03414 0.00000 -0.99942
vn 0.03414 0.00000 -0.99942
vn 0.03414 0.00000 -0.99942
vn 0.03414 0.00000 -0.99942
vn 0.03414 0.00000 -0.99942
vn 0.03414 0.00000 -0.99942
vn 0.03414 0.00000 -0.99942
vn 0.03414 0.00000 -0.99942
vn -0.03414 0.00000 0.99942
vn -0.03414 0.00000 0.99942
vn -0.03414 0.00000 0.99942
vn -0.03414 0.00000 0.99942
vn 0.10226 0.00000 -0.99476
vn 0.10226 0.00000 -0.99476
vn 0.10226 0.00000 -0.99476
vn 0.10226 0.00000 -0.99476
vn 0.10226 0.00000 -0.99476
vn 0.10226 0.00000 -0.99476
vn 0.10226 0.00000 -0.99476
vn 0.10226 0.00000 -0.99476
vn 0.10226 0.00000 -0.99476
vn 0.10226 0.00000 -0.99476
vn 0.10226 0.00000 -0.99476
vn 0.10226 0.00000 -0.99476
vn -0.10226 0.00000 0.99476
vn -0.10226 0.00000 0.99476
vn -0.10226 0.00000 0.99476
vn -0.10226 0.00000 0.99476
vn 0.13924 0.00000 -0.99026
vn 0.13924 0.00000 -0.99026
vn 0.13924 0.00000 -0.99026
vn 0.13924 0.00000 -0.99026
vn 0.13924 0.00000 -0.99026
vn 0.13924 0.00000 -0.99026
vn 0.13924 0.00000 -0.99026
vn 0.13924 0.00000 -0.99026
vn 0.13924 0.00000 -0.99026
vn 0.13924 0.00000 -0.99026
vn 0.13924 0.00000 -0.99026
vn 0.13924 0.00000 -0.99026
vn -0.13924 0.00000 0.99026
vn -0.13924 0.00000 0.99026
vn -0.13924 0.00000 0.99026
vn -0.13924 0.00000 0.99026
vn -0.17297 0.00000 0.98493
vn -0.17297 0.00000 0.98493
vn -0.17297 0.00000 0.98493
vn -0.17297 0.00000 0.98493
usemtl ceiling
f 10/10/10 11/11/11 12/12/12
f 34/34/34 35/35/35 36/36/36 37/37/37
f 38/38/38 39/39/39 40/40/40
f 53/53/53 54/54/54 55/55/55 56/56/56
f 69/69/69 70/70/70 71/71/71 72/72/72
f 85/85/85 86/86/86 87/87/87 88/88/88
f 101/101/101 102/102/102 103/103/103 104/104/104
f 117/117/117 118/118/118 119/119/119 120/120/120
f 133/133/133 134/134/134 135/135/135 136/136/136
f 158/158/158 159/159/159 160/160/160 161/161/161
f 162/162/162 163/163/163 164/164/164
f 174/174/174 175/175/175 176/176/176
f 186/186/186 187/187/187 188/188/188
f 210/210/210 211/211/211 212/212/212 213/213/213
f 214/214/214 215/215/215 216/216/216
f 229/229/229 230/230/230 231/231/231 232/232/232
f 245/245/245 246/246/246 247/247/247 248/248/248
f 261/261/261 262/262/262 263/263/263 264/264/264
f 277/277/277 278/278/278 279/279/279 280/280/280
f 302/302/302 303/303/303 304/304/304 305/305/305
f 306/306/306 307/307/307 308/308/308
f 318/318/318 319/319/319 320/320/320
usemtl floor
f 1/1/1 2/2/2 3/3/3
f 13/13/13 14/14/14 15/15/15 16/16/16
f 17/17/17 18/18/18 19/19/19
f 41/41/41 42/42/42 43/43/43 44/44/44
f 57/57/57 58/58/58 59/59/59 60/60/60
f 73/73/73 74/74/74 75/75/75 76/76/76
f 89/89/89 90/90/90 91/91/91 92/92/92
f 105/105/105 106/106/106 107/107/107 108/108/108
f 121/121/121 122/122/122 123/123/123 124/124/124
f 137/137/137 138/138/138 139/139/139 140/140/140
f 141/141/141 142/142/142 143/143/143
f 165/165/165 166/166/166 167/167/167
f 177/177/177 178/178/178 179/179/179
f 189/189/189 190/190/190 191/191/191 192/192/192
f 193/193/193 194/194/194 195/195/195
f 217/217/217 218/218/218 219/219/219 220/220/220
f 233/233/233 234/234/234 235/235/235 236/236/236
f 249/249/249 250/250/250 251/251/251 252/252/252
f 265/265/265 266/266/266 267/267/267 268/268/268
f 281/281/281 282/282/282 283/283/283 284/284/284
f 285/285/285 286/286/286 287/287/287
f 309/309/309 310/310/310 311/311/311
usemtl frame
f 329/329/329 330/330/330 331/331/331 332/332/332
f 333/333/333 334/334/334 335/335/335 336/336/336
f 345/345/345 346/346/346 347/347/347 348/348/348
f 349/349/349 350/350/350 351/351/351 352/352/352
f 361/361/361 362/362/362 363/363/363 364/364/364
f 365/365/365 366/366/366 367/367/367 368/368/368
f 377/377/377 378/378/378 379/379/379 380/380/380
f 381/381/381 382/382/382 383/383/383 384/384/384
f 393/393/393 394/394/394 395/395/395 396/396/396
f 397/397/397 398/398/398 399/399/399 400/400/400
f 409/409/409 410/410/410 411/411/411 412/412/412
f 413/413/413 414/414/414 415/415/415 416/416/416
usemtl inner
f 321/321/321 322/322/322 323/323/323 324/324/324
f 337/337/337 338/338/338 339/339/339 340/340/340
f 353/353/353 354/354/354 355/355/355 356/356/356
f 369/369/369 370/370/370 371/371/371 372/372/372
f 385/385/385 386/386/386 387/387/387 388/388/388
f 401/401/401 402/402/402 403/403/403 404/404/404
f 417/417/417 418/418/418 419/419/419 420/420/420
f 421/421/421 422/422/422 423/423/423 424/424/424
usemtl roof
f 7/7/7 8/8/8 9/9/9
f 27/27/27 28/28/28 29/29/29 30/30/30
f 31/31/31 32/32/32 33/33/33
f 49/49/49 50/50/50 51/51/51 52/52/52
f 65/65/65 66/66/66 67/67/67 68/68/68
f 81/81/81 82/82/82 83/83/83 84/84/84
f 97/97/97 98/98/98 99/99/99 100/100/100
f 113/113/113 114/114/114 115/115/115 116/116/116
f 129/129/129 130/130/130 131/131/131 132/132/132
f 151/151/151 152/152/152 153/153/153 154/154/154
f 155/155/155 156/156/156 157/157/157
f 171/171/171 172/172/172 173/173/173
f 183/183/183 184/184/184 185/185/185
f 203/203/203 204/204/204 205/205/205 206/206/206
f 207/207/207 208/208/208 209/209/209
f 225/225/225 226/226/226 227/227/227 228/228/228
f 241/241/241 242/242/242 243/243/243 244/244/244
f 257/257/257 258/258/258 259/259/259 260/260/260
f 273/273/273 274/274/274 275/275/275 276/276/276
f 295/295/295 296/296/296 297/297/297 298/298/298
f 299/299/299 300/300/300 301/301/301
f 315/315/315 316/316/316 317/317/317
usemtl skin
f 325/325/325 326/326/326 327/327/327 328/328/328
f 341/341/341 342/342/342 343/343/343 344/344/344
f 357/357/357 358/358/358 359/359/359 360/360/360
f 373/373/373 374/374/374 375/375/375 376/376/376
f 389/389/389 390/390/390 391/391/391 392/392/392
f 405/405/405 406/406/406 407/407/407 408/408/408
usemtl under
f 4/4/4 5/5/5 6/6/6
f 20/20/20 21/21/21 22/22/22 23/23/23
f 24/24/24 25/25/25 26/26/26
f 45/45/45 46/46/46 47/47/47 48/48/48
f 61/61/61 62/62/62 63/63/63 64/64/64
f 77/77/77 78/78/78 79/79/79 80/80/80
f 93/93/93 94/94/94 95/95/95 96/96/96
f 109/109/109 110/110/110 111/111/111 112/112/112
f 125/125/125 126/126/126 127/127/127 128/128/128
f 144/144/144 145/145/145 146/146/146 147/147/147
f 148/148/148 149/149/149 150/150/150
f 168/168/168 169/169/169 170/170/170
f 180/180/180 181/181/181 182/182/182
f 196/196/196 197/197/197 198/198/198 199/199/199
f 200/200/200 201/201/201 202/202/202
f 221/221/221 222/222/222 223/223/223 224/224/224
f 237/237/237 238/238/238 239/239/239 240/240/240
f 253/253/253 254/254/254 255/255/255 256/256/256
f 269/269/269 270/270/270 271/271/271 272/272/272
f 288/288/288 289/289/289 290/290/290 291/291/291
f 292/292/292 293/293/293 294/294/294
f 312/312/312 313/313/313 314/314/314
