# Generated by dev-env-utils/scripts/gen_transit_airside.py -- do not edit
mtllib jet_bridge_slope.mtl
o airport_jet_bridge_turn_c4
v -0.07768 0.09375 1.00000
v -0.32870 0.09375 0.91844
v -0.35392 0.09375 1.00000
v -0.35392 0.00000 1.00000
v -0.32870 0.00000 0.91844
v -0.07768 0.00000 1.00000
v -0.07768 1.97500 1.00000
v -0.32870 1.97500 0.91844
v -0.35392 1.97500 1.00000
v -0.35392 1.90625 1.00000
v -0.32870 1.90625 0.91844
v -0.07768 1.90625 1.00000
v 0.00000 0.09375 0.88106
v -0.27932 0.09375 0.77688
v -0.32870 0.09375 0.91844
v -0.07768 0.09375 1.00000
v 0.00000 0.09375 1.00000
v 0.00000 0.09375 0.88106
v -0.07768 0.09375 1.00000
v -0.07768 0.00000 1.00000
v -0.32870 0.00000 0.91844
v -0.27932 0.00000 0.77688
v 0.00000 0.00000 0.88106
v -0.07768 0.00000 1.00000
v 0.00000 0.00000 0.88106
v 0.00000 0.00000 1.00000
v 0.00000 1.97500 0.88106
v -0.27932 1.97500 0.77688
v -0.32870 1.97500 0.91844
v -0.07768 1.97500 1.00000
v 0.00000 1.97500 1.00000
v 0.00000 1.97500 0.88106
v -0.07768 1.97500 1.00000
v -0.07768 1.90625 1.00000
v -0.32870 1.90625 0.91844
v -0.27932 1.90625 0.77688
v 0.00000 1.90625 0.88106
v -0.07768 1.90625 1.00000
v 0.00000 1.90625 0.88106
v 0.00000 1.90625 1.00000
v 0.00000 0.09375 0.62995
v -0.18371 0.09375 0.54605
v -0.27932 0.09375 0.77688
v 0.00000 0.09375 0.88106
v 0.00000 0.00000 0.88106
v -0.27932 0.00000 0.77688
v -0.18371 0.00000 0.54605
v 0.00000 0.00000 0.62995
v 0.00000 1.97500 0.62995
v -0.18371 1.97500 0.54605
v -0.27932 1.97500 0.77688
v 0.00000 1.97500 0.88106
v 0.00000 1.90625 0.88106
v -0.27932 1.90625 0.77688
v -0.18371 1.90625 0.54605
v 0.00000 1.90625 0.62995
v 0.00000 0.09375 0.36188
v -0.07188 0.09375 0.32263
v -0.18371 0.09375 0.54605
v 0.00000 0.09375 0.62995
v 0.00000 0.00000 0.62995
v -0.18371 0.00000 0.54605
v -0.07188 0.00000 0.32263
v 0.00000 0.00000 0.36188
v 0.00000 1.97500 0.36188
v -0.07188 1.97500 0.32263
v -0.18371 1.97500 0.54605
v 0.00000 1.97500 0.62995
v 0.00000 1.90625 0.62995
v -0.18371 1.90625 0.54605
v -0.07188 1.90625 0.32263
v 0.00000 1.90625 0.36188
v 0.00000 0.09375 0.26795
v -0.03109 0.09375 0.25000
v -0.07188 0.09375 0.32263
v 0.00000 0.09375 0.36188
v 0.00000 0.00000 0.36188
v -0.07188 0.00000 0.32263
v -0.03109 0.00000 0.25000
v 0.00000 0.00000 0.26795
v 0.00000 1.97500 0.26795
v -0.03109 1.97500 0.25000
v -0.07188 1.97500 0.32263
v 0.00000 1.97500 0.36188
v 0.00000 1.90625 0.36188
v -0.07188 1.90625 0.32263
v -0.03109 1.90625 0.25000
v 0.00000 1.90625 0.26795
v 0.00000 0.09375 0.19900
v -0.03109 0.09375 0.25000
v 0.00000 0.09375 0.26795
v 0.00000 0.00000 0.26795
v -0.03109 0.00000 0.25000
v 0.00000 0.00000 0.19900
v 0.00000 1.97500 0.19900
v -0.03109 1.97500 0.25000
v 0.00000 1.97500 0.26795
v 0.00000 1.90625 0.26795
v -0.03109 1.90625 0.25000
v 0.00000 1.90625 0.19900
v -0.35392 1.90625 1.00000
v -0.32870 1.90625 0.91844
v -0.32870 0.09375 0.91844
v -0.35392 0.09375 1.00000
v -0.35392 0.09375 1.00000
v -0.32870 0.09375 0.91844
v -0.32870 0.00000 0.91844
v -0.35392 0.00000 1.00000
v -0.35392 1.97500 1.00000
v -0.32870 1.97500 0.91844
v -0.32870 1.90625 0.91844
v -0.35392 1.90625 1.00000
v -0.25580 0.09375 1.00000
v -0.23954 0.09375 0.94741
v -0.23954 1.90625 0.94741
v -0.25580 1.90625 1.00000
v -0.27932 1.90625 0.77688
v -0.27932 0.09375 0.77688
v -0.32870 0.09375 0.91844
v -0.32870 1.90625 0.91844
v -0.27932 0.09375 0.77688
v -0.27932 0.00000 0.77688
v -0.32870 0.00000 0.91844
v -0.32870 0.09375 0.91844
v -0.27932 1.97500 0.77688
v -0.27932 1.90625 0.77688
v -0.32870 1.90625 0.91844
v -0.32870 1.97500 0.91844
v -0.23954 1.90625 0.94741
v -0.23954 0.09375 0.94741
v -0.19149 0.09375 0.80964
v -0.19149 1.90625 0.80964
v -0.18371 1.90625 0.54605
v -0.18371 0.09375 0.54605
v -0.27932 0.09375 0.77688
v -0.27932 1.90625 0.77688
v -0.18371 0.09375 0.54605
v -0.18371 0.00000 0.54605
v -0.27932 0.00000 0.77688
v -0.27932 0.09375 0.77688
v -0.18371 1.97500 0.54605
v -0.18371 1.90625 0.54605
v -0.27932 1.90625 0.77688
v -0.27932 1.97500 0.77688
v -0.19149 1.90625 0.80964
v -0.19149 0.09375 0.80964
v -0.09843 0.09375 0.58499
v -0.09843 1.90625 0.58499
v -0.07188 1.90625 0.32263
v -0.07188 0.09375 0.32263
v -0.18371 0.09375 0.54605
v -0.18371 1.90625 0.54605
v -0.07188 0.09375 0.32263
v -0.07188 0.00000 0.32263
v -0.18371 0.00000 0.54605
v -0.18371 0.09375 0.54605
v -0.07188 1.97500 0.32263
v -0.07188 1.90625 0.32263
v -0.18371 1.90625 0.54605
v -0.18371 1.97500 0.54605
v -0.09843 1.90625 0.58499
v -0.09843 0.09375 0.58499
v 0.00000 0.09375 0.38835
v 0.00000 1.90625 0.38835
v -0.03109 1.90625 0.25000
v -0.03109 0.09375 0.25000
v -0.07188 0.09375 0.32263
v -0.07188 1.90625 0.32263
v -0.03109 0.09375 0.25000
v -0.03109 0.00000 0.25000
v -0.07188 0.00000 0.32263
v -0.07188 0.09375 0.32263
v -0.03109 1.97500 0.25000
v -0.03109 1.90625 0.25000
v -0.07188 1.90625 0.32263
v -0.07188 1.97500 0.32263
v 0.00000 1.90625 0.19900
v 0.00000 0.09375 0.19900
v -0.03109 0.09375 0.25000
v -0.03109 1.90625 0.25000
v 0.00000 0.09375 0.19900
v 0.00000 0.00000 0.19900
v -0.03109 0.00000 0.25000
v -0.03109 0.09375 0.25000
v 0.00000 1.97500 0.19900
v 0.00000 1.90625 0.19900
v -0.03109 1.90625 0.25000
v -0.03109 1.97500 0.25000
v 0.31890 0.09375 1.00000
v 0.00000 0.09375 0.88106
v 0.00000 0.09375 1.00000
v 0.00000 0.00000 1.00000
v 0.00000 0.00000 0.88106
v 0.31890 0.00000 1.00000
v 0.31890 1.97500 1.00000
v 0.00000 1.97500 0.88106
v 0.00000 1.97500 1.00000
v 0.00000 1.90625 1.00000
v 0.00000 1.90625 0.88106
v 0.31890 1.90625 1.00000
v 0.81031 0.09375 1.00000
v 0.00000 0.09375 0.62995
v 0.00000 0.09375 0.88106
v 0.31890 0.09375 1.00000
v 0.31890 0.00000 1.00000
v 0.00000 0.00000 0.88106
v 0.00000 0.00000 0.62995
v 0.81031 0.00000 1.00000
v 0.81031 1.97500 1.00000
v 0.00000 1.97500 0.62995
v 0.00000 1.97500 0.88106
v 0.31890 1.97500 1.00000
v 0.31890 1.90625 1.00000
v 0.00000 1.90625 0.88106
v 0.00000 1.90625 0.62995
v 0.81031 1.90625 1.00000
v 1.00000 0.09375 0.90792
v 0.00000 0.09375 0.36188
v 0.00000 0.09375 0.62995
v 0.81031 0.09375 1.00000
v 1.00000 0.09375 1.00000
v 1.00000 0.09375 0.90792
v 0.81031 0.09375 1.00000
v 0.81031 0.00000 1.00000
v 0.00000 0.00000 0.62995
v 0.00000 0.00000 0.36188
v 1.00000 0.00000 0.90792
v 0.81031 0.00000 1.00000
v 1.00000 0.00000 0.90792
v 1.00000 0.00000 1.00000
v 1.00000 1.97500 0.90792
v 0.00000 1.97500 0.36188
v 0.00000 1.97500 0.62995
v 0.81031 1.97500 1.00000
v 1.00000 1.97500 1.00000
v 1.00000 1.97500 0.90792
v 0.81031 1.97500 1.00000
v 0.81031 1.90625 1.00000
v 0.00000 1.90625 0.62995
v 0.00000 1.90625 0.36188
v 1.00000 1.90625 0.90792
v 0.81031 1.90625 1.00000
v 1.00000 1.90625 0.90792
v 1.00000 1.90625 1.00000
v 1.00000 0.09375 0.84530
v 0.00000 0.09375 0.26795
v 0.00000 0.09375 0.36188
v 1.00000 0.09375 0.90792
v 1.00000 0.00000 0.90792
v 0.00000 0.00000 0.36188
v 0.00000 0.00000 0.26795
v 1.00000 0.00000 0.84530
v 1.00000 1.97500 0.84530
v 0.00000 1.97500 0.26795
v 0.00000 1.97500 0.36188
v 1.00000 1.97500 0.90792
v 1.00000 1.90625 0.90792
v 0.00000 1.90625 0.36188
v 0.00000 1.90625 0.26795
v 1.00000 1.90625 0.84530
v 0.05561 0.09375 0.10776
v 0.00000 0.09375 0.19900
v 0.00000 0.09375 0.26795
v 1.00000 0.09375 0.84530
v 1.00000 0.09375 0.71468
v 0.05561 0.09375 0.10776
v 1.00000 0.09375 0.84530
v 1.00000 0.00000 0.84530
v 0.00000 0.00000 0.26795
v 0.00000 0.00000 0.19900
v 0.05561 0.00000 0.10776
v 1.00000 0.00000 0.84530
v 0.05561 0.00000 0.10776
v 1.00000 0.00000 0.71468
v 0.05561 1.97500 0.10776
v 0.00000 1.97500 0.19900
v 0.00000 1.97500 0.26795
v 1.00000 1.97500 0.84530
v 1.00000 1.97500 0.71468
v 0.05561 1.97500 0.10776
v 1.00000 1.97500 0.84530
v 1.00000 1.90625 0.84530
v 0.00000 1.90625 0.26795
v 0.00000 1.90625 0.19900
v 0.05561 1.90625 0.10776
v 1.00000 1.90625 0.84530
v 0.05561 1.90625 0.10776
v 1.00000 1.90625 0.71468
v 0.24724 0.09375 0.00000
v 0.12930 0.09375 0.00000
v 0.05561 0.09375 0.10776
v 1.00000 0.09375 0.71468
v 1.00000 0.09375 0.54691
v 0.24724 0.09375 0.00000
v 1.00000 0.09375 0.71468
v 1.00000 0.00000 0.71468
v 0.05561 0.00000 0.10776
v 0.12930 0.00000 0.00000
v 0.24724 0.00000 0.00000
v 1.00000 0.00000 0.71468
v 0.24724 0.00000 0.00000
v 1.00000 0.00000 0.54691
v 0.24724 1.97500 0.00000
v 0.12930 1.97500 0.00000
v 0.05561 1.97500 0.10776
v 1.00000 1.97500 0.71468
v 1.00000 1.97500 0.54691
v 0.24724 1.97500 0.00000
v 1.00000 1.97500 0.71468
v 1.00000 1.90625 0.71468
v 0.05561 1.90625 0.10776
v 0.12930 1.90625 0.00000
v 0.24724 1.90625 0.00000
v 1.00000 1.90625 0.71468
v 0.24724 1.90625 0.00000
v 1.00000 1.90625 0.54691
v 1.00000 0.09375 0.50282
v 0.32831 0.09375 0.00000
v 0.24724 0.09375 0.00000
v 1.00000 0.09375 0.54691
v 1.00000 0.00000 0.54691
v 0.24724 0.00000 0.00000
v 0.32831 0.00000 0.00000
v 1.00000 0.00000 0.50282
v 1.00000 1.97500 0.50282
v 0.32831 1.97500 0.00000
v 0.24724 1.97500 0.00000
v 1.00000 1.97500 0.54691
v 1.00000 1.90625 0.54691
v 0.24724 1.90625 0.00000
v 0.32831 1.90625 0.00000
v 1.00000 1.90625 0.50282
v 1.00000 0.09375 0.26699
v 0.69188 0.09375 0.00000
v 0.32831 0.09375 0.00000
v 1.00000 0.09375 0.50282
v 1.00000 0.00000 0.50282
v 0.32831 0.00000 0.00000
v 0.69188 0.00000 0.00000
v 1.00000 0.00000 0.26699
v 1.00000 1.97500 0.26699
v 0.69188 1.97500 0.00000
v 0.32831 1.97500 0.00000
v 1.00000 1.97500 0.50282
v 1.00000 1.90625 0.50282
v 0.32831 1.90625 0.00000
v 0.69188 1.90625 0.00000
v 1.00000 1.90625 0.26699
v 1.00000 0.09375 0.00000
v 0.69188 0.09375 0.00000
v 1.00000 0.09375 0.26699
v 1.00000 0.00000 0.26699
v 0.69188 0.00000 0.00000
v 1.00000 0.00000 0.00000
v 1.00000 1.97500 0.00000
v 0.69188 1.97500 0.00000
v 1.00000 1.97500 0.26699
v 1.00000 1.90625 0.26699
v 0.69188 1.90625 0.00000
v 1.00000 1.90625 0.00000
v 0.00000 0.09375 0.38835
v 0.01041 0.09375 0.36756
v 0.01041 1.90625 0.36756
v 0.00000 1.90625 0.38835
v 0.01041 1.90625 0.36756
v 0.01041 0.09375 0.36756
v 0.05010 0.09375 0.29688
v 0.05010 1.90625 0.29688
v 0.00000 1.90625 0.19900
v 0.05561 1.90625 0.10776
v 0.05561 0.09375 0.10776
v 0.00000 0.09375 0.19900
v 0.00000 0.09375 0.19900
v 0.05561 0.09375 0.10776
v 0.05561 0.00000 0.10776
v 0.00000 0.00000 0.19900
v 0.00000 1.97500 0.19900
v 0.05561 1.97500 0.10776
v 0.05561 1.90625 0.10776
v 0.00000 1.90625 0.19900
v 0.05010 1.90625 0.29688
v 0.05010 0.09375 0.29688
v 0.13448 0.09375 0.15844
v 0.13448 1.90625 0.15844
v 0.12930 1.90625 0.00000
v 0.12930 0.09375 0.00000
v 0.05561 0.09375 0.10776
v 0.05561 1.90625 0.10776
v 0.12930 0.09375 0.00000
v 0.12930 0.00000 0.00000
v 0.05561 0.00000 0.10776
v 0.05561 0.09375 0.10776
v 0.12930 1.97500 0.00000
v 0.12930 1.90625 0.00000
v 0.05561 1.90625 0.10776
v 0.05561 1.97500 0.10776
v 0.13448 1.90625 0.15844
v 0.13448 0.09375 0.15844
v 0.24282 0.09375 0.00000
v 0.24282 1.90625 0.00000
vt 0.98058 1.00000
vt 0.91783 0.97961
vt 0.91152 1.00000
vt 0.91152 1.00000
vt 0.91783 0.97961
vt 0.98058 1.00000
vt 0.98058 1.00000
vt 0.91783 0.97961
vt 0.91152 1.00000
vt 0.49996 0.18110
vt 0.50000 0.19635
vt 0.43402 0.19635
vt 1.00000 0.97026
vt 0.93017 0.94422
vt 0.91783 0.97961
vt 0.98058 1.00000
vt 1.00000 1.00000
vt 1.00000 0.97026
vt 0.98058 1.00000
vt 0.98058 1.00000
vt 0.91783 0.97961
vt 0.93017 0.94422
vt 1.00000 0.97026
vt 0.98058 1.00000
vt 1.00000 0.97026
vt 1.00000 1.00000
vt 1.00000 0.97026
vt 0.93017 0.94422
vt 0.91783 0.97961
vt 0.98058 1.00000
vt 1.00000 1.00000
vt 1.00000 0.97026
vt 0.98058 1.00000
vt 0.43402 0.19635
vt 0.50000 0.19635
vt 0.50000 0.22312
vt 0.42547 0.22312
vt 0.43402 0.19635
vt 0.42547 0.22312
vt 0.41557 0.20109
vt 1.00000 0.90749
vt 0.95407 0.88651
vt 0.93017 0.94422
vt 1.00000 0.97026
vt 1.00000 0.97026
vt 0.93017 0.94422
vt 0.95407 0.88651
vt 1.00000 0.90749
vt 1.00000 0.90749
vt 0.95407 0.88651
vt 0.93017 0.94422
vt 1.00000 0.97026
vt 0.42547 0.22312
vt 0.50000 0.22312
vt 0.50000 0.26775
vt 0.44951 0.26775
vt 1.00000 0.84047
vt 0.98203 0.83066
vt 0.95407 0.88651
vt 1.00000 0.90749
vt 1.00000 0.90749
vt 0.95407 0.88651
vt 0.98203 0.83066
vt 1.00000 0.84047
vt 1.00000 0.84047
vt 0.98203 0.83066
vt 0.95407 0.88651
vt 1.00000 0.90749
vt 0.44951 0.26775
vt 0.50000 0.26775
vt 0.50000 0.31237
vt 0.47953 0.31237
vt 1.00000 0.81699
vt 0.99223 0.81250
vt 0.98203 0.83066
vt 1.00000 0.84047
vt 1.00000 0.84047
vt 0.98203 0.83066
vt 0.99223 0.81250
vt 1.00000 0.81699
vt 1.00000 0.81699
vt 0.99223 0.81250
vt 0.98203 0.83066
vt 1.00000 0.84047
vt 0.47953 0.31237
vt 0.50000 0.31237
vt 0.50000 0.32725
vt 0.49103 0.32725
vt 1.00000 0.79975
vt 0.99223 0.81250
vt 1.00000 0.81699
vt 1.00000 0.81699
vt 0.99223 0.81250
vt 1.00000 0.79975
vt 1.00000 0.79975
vt 0.99223 0.81250
vt 1.00000 0.81699
vt 0.49103 0.32725
vt 0.50000 0.32725
vt 0.49977 0.33792
vt 0.46117 0.00000
vt 0.50000 0.00000
vt 0.50000 0.90625
vt 0.46117 0.90625
vt 0.92235 0.00000
vt 1.00000 0.00000
vt 1.00000 0.09375
vt 0.92235 0.09375
vt 0.92235 0.00000
vt 1.00000 0.00000
vt 1.00000 0.09375
vt 0.92235 0.09375
vt 0.47428 0.90625
vt 0.50000 0.90625
vt 0.50000 0.00000
vt 0.47428 0.00000
vt 0.06819 0.00000
vt 0.06819 0.90625
vt 0.00000 0.90625
vt 0.00000 0.00000
vt 0.13637 0.00000
vt 0.13637 0.09375
vt 0.00000 0.09375
vt 0.00000 0.00000
vt 0.13637 0.00000
vt 0.13637 0.09375
vt 0.00000 0.09375
vt 0.00000 0.00000
vt 0.00000 0.00000
vt 0.00000 0.90625
vt 0.06819 0.90625
vt 0.06819 0.00000
vt 0.18182 0.00000
vt 0.18182 0.90625
vt 0.06819 0.90625
vt 0.06819 0.00000
vt 0.36363 0.00000
vt 0.36363 0.09375
vt 0.13637 0.09375
vt 0.13637 0.00000
vt 0.36363 0.00000
vt 0.36363 0.09375
vt 0.13637 0.09375
vt 0.13637 0.00000
vt 0.06819 0.00000
vt 0.06819 0.90625
vt 0.18182 0.90625
vt 0.18182 0.00000
vt 0.29544 0.00000
vt 0.29544 0.90625
vt 0.18182 0.90625
vt 0.18182 0.00000
vt 0.59089 0.00000
vt 0.59089 0.09375
vt 0.36363 0.09375
vt 0.36363 0.00000
vt 0.59089 0.00000
vt 0.59089 0.09375
vt 0.36363 0.09375
vt 0.36363 0.00000
vt 0.18182 0.00000
vt 0.18182 0.90625
vt 0.28458 0.90625
vt 0.28458 0.00000
vt 0.33333 0.00000
vt 0.33333 0.90625
vt 0.29544 0.90625
vt 0.29544 0.00000
vt 0.66666 0.00000
vt 0.66666 0.09375
vt 0.59089 0.09375
vt 0.59089 0.00000
vt 0.66666 0.00000
vt 0.66666 0.09375
vt 0.59089 0.09375
vt 0.59089 0.00000
vt 0.36049 0.00000
vt 0.36049 0.90625
vt 0.33333 0.90625
vt 0.33333 0.00000
vt 0.72099 0.00000
vt 0.72099 0.09375
vt 0.66666 0.09375
vt 0.66666 0.00000
vt 0.72099 0.00000
vt 0.72099 0.09375
vt 0.66666 0.09375
vt 0.66666 0.00000
vt 0.07972 1.00000
vt 0.00000 0.97026
vt 0.00000 1.00000
vt 0.00000 1.00000
vt 0.00000 0.97026
vt 0.07972 1.00000
vt 0.07972 1.00000
vt 0.00000 0.97026
vt 0.00000 1.00000
vt 0.41557 0.20109
vt 0.42547 0.22312
vt 0.34038 0.22312
vt 0.20258 1.00000
vt 0.00000 0.90749
vt 0.00000 0.97026
vt 0.07972 1.00000
vt 0.07972 1.00000
vt 0.00000 0.97026
vt 0.00000 0.90749
vt 0.20258 1.00000
vt 0.20258 1.00000
vt 0.00000 0.90749
vt 0.00000 0.97026
vt 0.07972 1.00000
vt 0.34038 0.22312
vt 0.42547 0.22312
vt 0.44951 0.26775
vt 0.22681 0.26775
vt 0.25000 0.97698
vt 0.00000 0.84047
vt 0.00000 0.90749
vt 0.20258 1.00000
vt 0.25000 1.00000
vt 0.25000 0.97698
vt 0.20258 1.00000
vt 0.20258 1.00000
vt 0.00000 0.90749
vt 0.00000 0.84047
vt 0.25000 0.97698
vt 0.20258 1.00000
vt 0.25000 0.97698
vt 0.25000 1.00000
vt 0.25000 0.97698
vt 0.00000 0.84047
vt 0.00000 0.90749
vt 0.20258 1.00000
vt 0.25000 1.00000
vt 0.25000 0.97698
vt 0.20258 1.00000
vt 0.22681 0.26775
vt 0.44951 0.26775
vt 0.47953 0.31237
vt 0.19468 0.31237
vt 0.22681 0.26775
vt 0.19468 0.31237
vt 0.18402 0.28978
vt 0.25000 0.96132
vt 0.00000 0.81699
vt 0.00000 0.84047
vt 0.25000 0.97698
vt 0.25000 0.97698
vt 0.00000 0.84047
vt 0.00000 0.81699
vt 0.25000 0.96132
vt 0.25000 0.96132
vt 0.00000 0.81699
vt 0.00000 0.84047
vt 0.25000 0.97698
vt 0.19468 0.31237
vt 0.47953 0.31237
vt 0.49103 0.32725
vt 0.20235 0.32725
vt 0.01390 0.77694
vt 0.00000 0.79975
vt 0.00000 0.81699
vt 0.25000 0.96132
vt 0.25000 0.92867
vt 0.01390 0.77694
vt 0.25000 0.96132
vt 0.25000 0.96132
vt 0.00000 0.81699
vt 0.00000 0.79975
vt 0.01390 0.77694
vt 0.25000 0.96132
vt 0.01390 0.77694
vt 0.25000 0.92867
vt 0.01390 0.77694
vt 0.00000 0.79975
vt 0.00000 0.81699
vt 0.25000 0.96132
vt 0.25000 0.92867
vt 0.01390 0.77694
vt 0.25000 0.96132
vt 0.20235 0.32725
vt 0.49103 0.32725
vt 0.49977 0.33792
vt 0.50000 0.35700
vt 0.20235 0.32725
vt 0.50000 0.35700
vt 0.21935 0.35700
vt 0.06181 0.75000
vt 0.03232 0.75000
vt 0.01390 0.77694
vt 0.25000 0.92867
vt 0.25000 0.88673
vt 0.06181 0.75000
vt 0.25000 0.92867
vt 0.25000 0.92867
vt 0.01390 0.77694
vt 0.03232 0.75000
vt 0.06181 0.75000
vt 0.25000 0.92867
vt 0.06181 0.75000
vt 0.25000 0.88673
vt 0.06181 0.75000
vt 0.03232 0.75000
vt 0.01390 0.77694
vt 0.25000 0.92867
vt 0.25000 0.88673
vt 0.06181 0.75000
vt 0.25000 0.92867
vt 0.21935 0.35700
vt 0.50000 0.35700
vt 0.49968 0.38031
vt 0.47565 0.39270
vt 0.21935 0.35700
vt 0.47565 0.39270
vt 0.24303 0.39270
vt 0.25000 0.87570
vt 0.08208 0.75000
vt 0.06181 0.75000
vt 0.25000 0.88673
vt 0.25000 0.88673
vt 0.06181 0.75000
vt 0.08208 0.75000
vt 0.25000 0.87570
vt 0.25000 0.87570
vt 0.08208 0.75000
vt 0.06181 0.75000
vt 0.25000 0.88673
vt 0.24303 0.39270
vt 0.47565 0.39270
vt 0.45934 0.40162
vt 0.24958 0.40162
vt 0.25000 0.81675
vt 0.17297 0.75000
vt 0.08208 0.75000
vt 0.25000 0.87570
vt 0.25000 0.87570
vt 0.08208 0.75000
vt 0.17297 0.75000
vt 0.25000 0.81675
vt 0.25000 0.81675
vt 0.17297 0.75000
vt 0.08208 0.75000
vt 0.25000 0.87570
vt 0.24958 0.40162
vt 0.45934 0.40162
vt 0.38852 0.44625
vt 0.28659 0.44625
vt 0.25000 0.75000
vt 0.17297 0.75000
vt 0.25000 0.81675
vt 0.25000 0.81675
vt 0.17297 0.75000
vt 0.25000 0.75000
vt 0.25000 0.75000
vt 0.17297 0.75000
vt 0.25000 0.81675
vt 0.28659 0.44625
vt 0.38852 0.44625
vt 0.33211 0.49087
vt 0.28458 0.90625
vt 0.29544 0.90625
vt 0.29544 0.00000
vt 0.28458 0.00000
vt 0.29544 0.00000
vt 0.29544 0.90625
vt 0.33333 0.90625
vt 0.33333 0.00000
vt 0.36049 0.00000
vt 0.40909 0.00000
vt 0.40909 0.90625
vt 0.36049 0.90625
vt 0.72099 0.00000
vt 0.81818 0.00000
vt 0.81818 0.09375
vt 0.72099 0.09375
vt 0.72099 0.00000
vt 0.81818 0.00000
vt 0.81818 0.09375
vt 0.72099 0.09375
vt 0.33333 0.00000
vt 0.33333 0.90625
vt 0.40909 0.90625
vt 0.40909 0.00000
vt 0.46846 0.00000
vt 0.46846 0.90625
vt 0.40909 0.90625
vt 0.40909 0.00000
vt 0.93692 0.00000
vt 0.93692 0.09375
vt 0.81818 0.09375
vt 0.81818 0.00000
vt 0.93692 0.00000
vt 0.93692 0.09375
vt 0.81818 0.09375
vt 0.81818 0.00000
vt 0.40909 0.00000
vt 0.40909 0.90625
vt 0.49879 0.90625
vt 0.49879 0.00000
vn 0.00000 1.00000 0.00000
vn 0.00000 1.00000 0.00000
vn 0.00000 1.00000 0.00000
vn 0.00000 -1.00000 0.00000
vn 0.00000 -1.00000 0.00000
vn 0.00000 -1.00000 0.00000
vn 0.00000 1.00000 0.00000
vn 0.00000 1.00000 0.00000
vn 0.00000 1.00000 0.00000
vn 0.00000 -1.00000 0.00000
vn 0.00000 -1.00000 0.00000
vn 0.00000 -1.00000 0.00000
vn 0.00000 1.00000 0.00000
vn 0.00000 1.00000 0.00000
vn 0.00000 1.00000 0.00000
vn 0.00000 1.00000 0.00000
vn 0.00000 1.00000 0.00000
vn 0.00000 1.00000 0.00000
vn 0.00000 1.00000 0.00000
vn 0.00000 -1.00000 0.00000
vn 0.00000 -1.00000 0.00000
vn 0.00000 -1.00000 0.00000
vn 0.00000 -1.00000 0.00000
vn 0.00000 -1.00000 0.00000
vn 0.00000 -1.00000 0.00000
vn 0.00000 -1.00000 0.00000
vn 0.00000 1.00000 0.00000
vn 0.00000 1.00000 0.00000
vn 0.00000 1.00000 0.00000
vn 0.00000 1.00000 0.00000
vn 0.00000 1.00000 0.00000
vn 0.00000 1.00000 0.00000
vn 0.00000 1.00000 0.00000
vn 0.00000 -1.00000 0.00000
vn 0.00000 -1.00000 0.00000
vn 0.00000 -1.00000 0.00000
vn 0.00000 -1.00000 0.00000
vn 0.00000 -1.00000 0.00000
vn 0.00000 -1.00000 0.00000
vn 0.00000 -1.00000 0.00000
vn 0.00000 1.00000 0.00000
vn 0.00000 1.00000 0.00000
vn 0.00000 1.00000 0.00000
vn 0.00000 1.00000 0.00000
vn 0.00000 -1.00000 0.00000
vn 0.00000 -1.00000 0.00000
vn 0.00000 -1.00000 0.00000
vn 0.00000 -1.00000 0.00000
vn 0.00000 1.00000 0.00000
vn 0.00000 1.00000 0.00000
vn 0.00000 1.00000 0.00000
vn 0.00000 1.00000 0.00000
vn 0.00000 -1.00000 0.00000
vn 0.00000 -1.00000 0.00000
vn 0.00000 -1.00000 0.00000
vn 0.00000 -1.00000 0.00000
vn 0.00000 1.00000 0.00000
vn 0.00000 1.00000 0.00000
vn 0.00000 1.00000 0.00000
vn 0.00000 1.00000 0.00000
vn 0.00000 -1.00000 0.00000
vn 0.00000 -1.00000 0.00000
vn 0.00000 -1.00000 0.00000
vn 0.00000 -1.00000 0.00000
vn 0.00000 1.00000 0.00000
vn 0.00000 1.00000 0.00000
vn 0.00000 1.00000 0.00000
vn 0.00000 1.00000 0.00000
vn 0.00000 -1.00000 0.00000
vn 0.00000 -1.00000 0.00000
vn 0.00000 -1.00000 0.00000
vn 0.00000 -1.00000 0.00000
vn 0.00000 1.00000 0.00000
vn 0.00000 1.00000 0.00000
vn 0.00000 1.00000 0.00000
vn 0.00000 1.00000 0.00000
vn 0.00000 -1.00000 0.00000
vn 0.00000 -1.00000 0.00000
vn 0.00000 -1.00000 0.00000
vn 0.00000 -1.00000 0.00000
vn 0.00000 1.00000 0.00000
vn 0.00000 1.00000 0.00000
vn 0.00000 1.00000 0.00000
vn 0.00000 1.00000 0.00000
vn 0.00000 -1.00000 0.00000
vn 0.00000 -1.00000 0.00000
vn 0.00000 -1.00000 0.00000
vn 0.00000 -1.00000 0.00000
vn 0.00000 1.00000 0.00000
vn 0.00000 1.00000 0.00000
vn 0.00000 1.00000 0.00000
vn 0.00000 -1.00000 0.00000
vn 0.00000 -1.00000 0.00000
vn 0.00000 -1.00000 0.00000
vn 0.00000 1.00000 0.00000
vn 0.00000 1.00000 0.00000
vn 0.00000 1.00000 0.00000
vn 0.00000 -1.00000 0.00000
vn 0.00000 -1.00000 0.00000
vn 0.00000 -1.00000 0.00000
vn -0.95537 0.00000 -0.29540
vn -0.95537 0.00000 -0.29540
vn -0.95537 0.00000 -0.29540
vn -0.95537 0.00000 -0.29540
vn -0.95537 0.00000 -0.29540
vn -0.95537 0.00000 -0.29540
vn -0.95537 0.00000 -0.29540
vn -0.95537 0.00000 -0.29540
vn -0.95537 0.00000 -0.29540
vn -0.95537 0.00000 -0.29540
vn -0.95537 0.00000 -0.29540
vn -0.95537 0.00000 -0.29540
vn 0.95537 0.00000 0.29540
vn 0.95537 0.00000 0.29540
vn 0.95537 0.00000 0.29540
vn 0.95537 0.00000 0.29540
vn -0.94422 0.00000 -0.32932
vn -0.94422 0.00000 -0.32932
vn -0.94422 0.00000 -0.32932
vn -0.94422 0.00000 -0.32932
vn -0.94422 0.00000 -0.32932
vn -0.94422 0.00000 -0.32932
vn -0.94422 0.00000 -0.32932
vn -0.94422 0.00000 -0.32932
vn -0.94422 0.00000 -0.32932
vn -0.94422 0.00000 -0.32932
vn -0.94422 0.00000 -0.32932
vn -0.94422 0.00000 -0.32932
vn 0.94422 0.00000 0.32932
vn 0.94422 0.00000 0.32932
vn 0.94422 0.00000 0.32932
vn 0.94422 0.00000 0.32932
vn -0.92388 0.00000 -0.38268
vn -0.92388 0.00000 -0.38268
vn -0.92388 0.00000 -0.38268
vn -0.92388 0.00000 -0.38268
vn -0.92388 0.00000 -0.38268
vn -0.92388 0.00000 -0.38268
vn -0.92388 0.00000 -0.38268
vn -0.92388 0.00000 -0.38268
vn -0.92388 0.00000 -0.38268
vn -0.92388 0.00000 -0.38268
vn -0.92388 0.00000 -0.38268
vn -0.92388 0.00000 -0.38268
vn 0.92388 0.00000 0.38268
vn 0.92388 0.00000 0.38268
vn 0.92388 0.00000 0.38268
vn 0.92388 0.00000 0.38268
vn -0.89423 0.00000 -0.44762
vn -0.89423 0.00000 -0.44762
vn -0.89423 0.00000 -0.44762
vn -0.89423 0.00000 -0.44762
vn -0.89423 0.00000 -0.44762
vn -0.89423 0.00000 -0.44762
vn -0.89423 0.00000 -0.44762
vn -0.89423 0.00000 -0.44762
vn -0.89423 0.00000 -0.44762
vn -0.89423 0.00000 -0.44762
vn -0.89423 0.00000 -0.44762
vn -0.89423 0.00000 -0.44762
vn 0.89423 0.00000 0.44762
vn 0.89423 0.00000 0.44762
vn 0.89423 0.00000 0.44762
vn 0.89423 0.00000 0.44762
vn -0.87191 0.00000 -0.48966
vn -0.87191 0.00000 -0.48966
vn -0.87191 0.00000 -0.48966
vn -0.87191 0.00000 -0.48966
vn -0.87191 0.00000 -0.48966
vn -0.87191 0.00000 -0.48966
vn -0.87191 0.00000 -0.48966
vn -0.87191 0.00000 -0.48966
vn -0.87191 0.00000 -0.48966
vn -0.87191 0.00000 -0.48966
vn -0.87191 0.00000 -0.48966
vn -0.87191 0.00000 -0.48966
vn -0.85388 0.00000 -0.52047
vn -0.85388 0.00000 -0.52047
vn -0.85388 0.00000 -0.52047
vn -0.85388 0.00000 -0.52047
vn -0.85388 0.00000 -0.52047
vn -0.85388 0.00000 -0.52047
vn -0.85388 0.00000 -0.52047
vn -0.85388 0.00000 -0.52047
vn -0.85388 0.00000 -0.52047
vn -0.85388 0.00000 -0.52047
vn -0.85388 0.00000 -0.52047
vn -0.85388 0.00000 -0.52047
vn 0.00000 1.00000 0.00000
vn 0.00000 1.00000 0.00000
vn 0.00000 1.00000 0.00000
vn 0.00000 -1.00000 0.00000
vn 0.00000 -1.00000 0.00000
vn 0.00000 -1.00000 0.00000
vn 0.00000 1.00000 0.00000
vn 0.00000 1.00000 0.00000
vn 0.00000 1.00000 0.00000
vn 0.00000 -1.00000 0.00000
vn 0.00000 -1.00000 0.00000
vn 0.00000 -1.00000 0.00000
vn 0.00000 1.00000 0.00000
vn 0.00000 1.00000 0.00000
vn 0.00000 1.00000 0.00000
vn 0.00000 1.00000 0.00000
vn 0.00000 -1.00000 0.00000
vn 0.00000 -1.00000 0.00000
vn 0.00000 -1.00000 0.00000
vn 0.00000 -1.00000 0.00000
vn 0.00000 1.00000 0.00000
vn 0.00000 1.00000 0.00000
vn 0.00000 1.00000 0.00000
vn 0.00000 1.00000 0.00000
vn 0.00000 -1.00000 0.00000
vn 0.00000 -1.00000 0.00000
vn 0.00000 -1.00000 0.00000
vn 0.00000 -1.00000 0.00000
vn 0.00000 1.00000 0.00000
vn 0.00000 1.00000 0.00000
vn 0.00000 1.00000 0.00000
vn 0.00000 1.00000 0.00000
vn 0.00000 1.00000 0.00000
vn 0.00000 1.00000 0.00000
vn 0.00000 1.00000 0.00000
vn 0.00000 -1.00000 0.00000
vn 0.00000 -1.00000 0.00000
vn 0.00000 -1.00000 0.00000
vn 0.00000 -1.00000 0.00000
vn 0.00000 -1.00000 0.00000
vn 0.00000 -1.00000 0.00000
vn 0.00000 -1.00000 0.00000
vn 0.00000 1.00000 0.00000
vn 0.00000 1.00000 0.00000
vn 0.00000 1.00000 0.00000
vn 0.00000 1.00000 0.00000
vn 0.00000 1.00000 0.00000
vn 0.00000 1.00000 0.00000
vn 0.00000 1.00000 0.00000
vn 0.00000 -1.00000 0.00000
vn 0.00000 -1.00000 0.00000
vn 0.00000 -1.00000 0.00000
vn 0.00000 -1.00000 0.00000
vn 0.00000 -1.00000 0.00000
vn 0.00000 -1.00000 0.00000
vn 0.00000 -1.00000 0.00000
vn 0.00000 1.00000 0.00000
vn 0.00000 1.00000 0.00000
vn 0.00000 1.00000 0.00000
vn 0.00000 1.00000 0.00000
vn 0.00000 -1.00000 0.00000
vn 0.00000 -1.00000 0.00000
vn 0.00000 -1.00000 0.00000
vn 0.00000 -1.00000 0.00000
vn 0.00000 1.00000 0.00000
vn 0.00000 1.00000 0.00000
vn 0.00000 1.00000 0.00000
vn 0.00000 1.00000 0.00000
vn 0.00000 -1.00000 0.00000
vn 0.00000 -1.00000 0.00000
vn 0.00000 -1.00000 0.00000
vn 0.00000 -1.00000 0.00000
vn 0.00000 1.00000 0.00000
vn 0.00000 1.00000 0.00000
vn 0.00000 1.00000 0.00000
vn 0.00000 1.00000 0.00000
vn 0.00000 1.00000 0.00000
vn 0.00000 1.00000 0.00000
vn 0.00000 1.00000 0.00000
vn 0.00000 -1.00000 0.00000
vn 0.00000 -1.00000 0.00000
vn 0.00000 -1.00000 0.00000
vn 0.00000 -1.00000 0.00000
vn 0.00000 -1.00000 0.00000
vn 0.00000 -1.00000 0.00000
vn 0.00000 -1.00000 0.00000
vn 0.00000 1.00000 0.00000
vn 0.00000 1.00000 0.00000
vn 0.00000 1.00000 0.00000
vn 0.00000 1.00000 0.00000
vn 0.00000 1.00000 0.00000
vn 0.00000 1.00000 0.00000
vn 0.00000 1.00000 0.00000
vn 0.00000 -1.00000 0.00000
vn 0.00000 -1.00000 0.00000
vn 0.00000 -1.00000 0.00000
vn 0.00000 -1.00000 0.00000
vn 0.00000 -1.00000 0.00000
vn 0.00000 -1.00000 0.00000
vn 0.00000 -1.00000 0.00000
vn 0.00000 1.00000 0.00000
vn 0.00000 1.00000 0.00000
vn 0.00000 1.00000 0.00000
vn 0.00000 1.00000 0.00000
vn 0.00000 1.00000 0.00000
vn 0.00000 1.00000 0.00000
vn 0.00000 1.00000 0.00000
vn 0.00000 -1.00000 0.00000
vn 0.00000 -1.00000 0.00000
vn 0.00000 -1.00000 0.00000
vn 0.00000 -1.00000 0.00000
vn 0.00000 -1.00000 0.00000
vn 0.00000 -1.00000 0.00000
vn 0.00000 -1.00000 0.00000
vn 0.00000 1.00000 0.00000
vn 0.00000 1.00000 0.00000
vn 0.00000 1.00000 0.00000
vn 0.00000 1.00000 0.00000
vn 0.00000 1.00000 0.00000
vn 0.00000 1.00000 0.00000
vn 0.00000 1.00000 0.00000
vn 0.00000 -1.00000 0.00000
vn 0.00000 -1.00000 0.00000
vn 0.00000 -1.00000 0.00000
vn 0.00000 -1.00000 0.00000
vn 0.00000 -1.00000 0.00000
vn 0.00000 -1.00000 0.00000
vn 0.00000 -1.00000 0.00000
vn 0.00000 1.00000 0.00000
vn 0.00000 1.00000 0.00000
vn 0.00000 1.00000 0.00000
vn 0.00000 1.00000 0.00000
vn 0.00000 -1.00000 0.00000
vn 0.00000 -1.00000 0.00000
vn 0.00000 -1.00000 0.00000
vn 0.00000 -1.00000 0.00000
vn 0.00000 1.00000 0.00000
vn 0.00000 1.00000 0.00000
vn 0.00000 1.00000 0.00000
vn 0.00000 1.00000 0.00000
vn 0.00000 -1.00000 0.00000
vn 0.00000 -1.00000 0.00000
vn 0.00000 -1.00000 0.00000
vn 0.00000 -1.00000 0.00000
vn 0.00000 1.00000 0.00000
vn 0.00000 1.00000 0.00000
vn 0.00000 1.00000 0.00000
vn 0.00000 1.00000 0.00000
vn 0.00000 -1.00000 0.00000
vn 0.00000 -1.00000 0.00000
vn 0.00000 -1.00000 0.00000
vn 0.00000 -1.00000 0.00000
vn 0.00000 1.00000 0.00000
vn 0.00000 1.00000 0.00000
vn 0.00000 1.00000 0.00000
vn 0.00000 1.00000 0.00000
vn 0.00000 -1.00000 0.00000
vn 0.00000 -1.00000 0.00000
vn 0.00000 -1.00000 0.00000
vn 0.00000 -1.00000 0.00000
vn 0.00000 1.00000 0.00000
vn 0.00000 1.00000 0.00000
vn 0.00000 1.00000 0.00000
vn 0.00000 -1.00000 0.00000
vn 0.00000 -1.00000 0.00000
vn 0.00000 -1.00000 0.00000
vn 0.00000 1.00000 0.00000
vn 0.00000 1.00000 0.00000
vn 0.00000 1.00000 0.00000
vn 0.00000 -1.00000 0.00000
vn 0.00000 -1.00000 0.00000
vn 0.00000 -1.00000 0.00000
vn 0.89423 0.00000 0.44762
vn 0.89423 0.00000 0.44762
vn 0.89423 0.00000 0.44762
vn 0.89423 0.00000 0.44762
vn 0.87191 0.00000 0.48966
vn 0.87191 0.00000 0.48966
vn 0.87191 0.00000 0.48966
vn 0.87191 0.00000 0.48966
vn -0.85388 0.00000 -0.52047
vn -0.85388 0.00000 -0.52047
vn -0.85388 0.00000 -0.52047
vn -0.85388 0.00000 -0.52047
vn -0.85388 0.00000 -0.52047
vn -0.85388 0.00000 -0.52047
vn -0.85388 0.00000 -0.52047
vn -0.85388 0.00000 -0.52047
vn -0.85388 0.00000 -0.52047
vn -0.85388 0.00000 -0.52047
vn -0.85388 0.00000 -0.52047
vn -0.85388 0.00000 -0.52047
vn 0.85388 0.00000 0.52047
vn 0.85388 0.00000 0.52047
vn 0.85388 0.00000 0.52047
vn 0.85388 0.00000 0.52047
vn -0.82547 0.00000 -0.56444
vn -0.82547 0.00000 -0.56444
vn -0.82547 0.00000 -0.56444
vn -0.82547 0.00000 -0.56444
vn -0.82547 0.00000 -0.56444
vn -0.82547 0.00000 -0.56444
vn -0.82547 0.00000 -0.56444
vn -0.82547 0.00000 -0.56444
vn -0.82547 0.00000 -0.56444
vn -0.82547 0.00000 -0.56444
vn -0.82547 0.00000 -0.56444
vn -0.82547 0.00000 -0.56444
vn 0.82547 0.00000 0.56444
vn 0.82547 0.00000 0.56444
vn 0.82547 0.00000 0.56444
vn 0.82547 0.00000 0.56444
usemtl ceiling
f 10/10/10 11/11/11 12/12/12
f 34/34/34 35/35/35 36/36/36 37/37/37
f 38/38/38 39/39/39 40/40/40
f 53/53/53 54/54/54 55/55/55 56/56/56
f 69/69/69 70/70/70 71/71/71 72/72/72
f 85/85/85 86/86/86 87/87/87 88/88/88
f 98/98/98 99/99/99 100/100/100
f 198/198/198 199/199/199 200/200/200
f 213/213/213 214/214/214 215/215/215 216/216/216
f 238/238/238 239/239/239 240/240/240 241/241/241
f 242/242/242 243/243/243 244/244/244
f 257/257/257 258/258/258 259/259/259 260/260/260
f 282/282/282 283/283/283 284/284/284 285/285/285
f 286/286/286 287/287/287 288/288/288
f 310/310/310 311/311/311 312/312/312 313/313/313
f 314/314/314 315/315/315 316/316/316
f 329/329/329 330/330/330 331/331/331 332/332/332
f 345/345/345 346/346/346 347/347/347 348/348/348
f 358/358/358 359/359/359 360/360/360
usemtl floor
f 1/1/1 2/2/2 3/3/3
f 13/13/13 14/14/14 15/15/15 16/16/16
f 17/17/17 18/18/18 19/19/19
f 41/41/41 42/42/42 43/43/43 44/44/44
f 57/57/57 58/58/58 59/59/59 60/60/60
f 73/73/73 74/74/74 75/75/75 76/76/76
f 89/89/89 90/90/90 91/91/91
f 189/189/189 190/190/190 191/191/191
f 201/201/201 202/202/202 203/203/203 204/204/204
f 217/217/217 218/218/218 219/219/219 220/220/220
f 221/221/221 222/222/222 223/223/223
f 245/245/245 246/246/246 247/247/247 248/248/248
f 261/261/261 262/262/262 263/263/263 264/264/264
f 265/265/265 266/266/266 267/267/267
f 289/289/289 290/290/290 291/291/291 292/292/292
f 293/293/293 294/294/294 295/295/295
f 317/317/317 318/318/318 319/319/319 320/320/320
f 333/333/333 334/334/334 335/335/335 336/336/336
f 349/349/349 350/350/350 351/351/351
usemtl frame
f 105/105/105 106/106/106 107/107/107 108/108/108
f 109/109/109 110/110/110 111/111/111 112/112/112
f 121/121/121 122/122/122 123/123/123 124/124/124
f 125/125/125 126/126/126 127/127/127 128/128/128
f 137/137/137 138/138/138 139/139/139 140/140/140
f 141/141/141 142/142/142 143/143/143 144/144/144
f 153/153/153 154/154/154 155/155/155 156/156/156
f 157/157/157 158/158/158 159/159/159 160/160/160
f 169/169/169 170/170/170 171/171/171 172/172/172
f 173/173/173 174/174/174 175/175/175 176/176/176
f 181/181/181 182/182/182 183/183/183 184/184/184
f 185/185/185 186/186/186 187/187/187 188/188/188
f 373/373/373 374/374/374 375/375/375 376/376/376
f 377/377/377 378/378/378 379/379/379 380/380/380
f 389/389/389 390/390/390 391/391/391 392/392/392
f 393/393/393 394/394/394 395/395/395 396/396/396
usemtl inner
f 113/113/113 114/114/114 115/115/115 116/116/116
f 129/129/129 130/130/130 131/131/131 132/132/132
f 145/145/145 146/146/146 147/147/147 148/148/148
f 161/161/161 162/162/162 163/163/163 164/164/164
f 361/361/361 362/362/362 363/363/363 364/364/364
f 365/365/365 366/366/366 367/367/367 368/368/368
f 381/381/381 382/382/382 383/383/383 384/384/384
f 397/397/397 398/398/398 399/399/399 400/400/400
usemtl roof
f 7/7/7 8/8/8 9/9/9
f 27/27/27 28/28/28 29/29/29 30/30/30
f 31/31/31 32/32/32 33/33/33
f 49/49/49 50/50/50 51/51/51 52/52/52
f 65/65/65 66/66/66 67/67/67 68/68/68
f 81/81/81 82/82/82 83/83/83 84/84/84
f 95/95/95 96/96/96 97/97/97
f 195/195/195 196/196/196 197/197/197
f 209/209/209 210/210/210 211/211/211 212/212/212
f 231/231/231 232/232/232 233/233/233 234/234/234
f 235/235/235 236/236/236 237/237/237
f 253/253/253 254/254/254 255/255/255 256/256/256
f 275/275/275 276/276/276 277/277/277 278/278/278
f 279/279/279 280/280/280 281/281/281
f 303/303/303 304/304/304 305/305/305 306/306/306
f 307/307/307 308/308/308 309/309/309
f 325/325/325 326/326/326 327/327/327 328/328/328
f 341/341/341 342/342/342 343/343/343 344/344/344
f 355/355/355 356/356/356 357/357/357
usemtl skin
f 101/101/101 102/102/102 103/103/103 104/104/104
f 117/117/117 118/118/118 119/119/119 120/120/120
f 133/133/133 134/134/134 135/135/135 136/136/136
f 149/149/149 150/150/150 151/151/151 152/152/152
f 165/165/165 166/166/166 167/167/167 168/168/168
f 177/177/177 178/178/178 179/179/179 180/180/180
f 369/369/369 370/370/370 371/371/371 372/372/372
f 385/385/385 386/386/386 387/387/387 388/388/388
usemtl under
f 4/4/4 5/5/5 6/6/6
f 20/20/20 21/21/21 22/22/22 23/23/23
f 24/24/24 25/25/25 26/26/26
f 45/45/45 46/46/46 47/47/47 48/48/48
f 61/61/61 62/62/62 63/63/63 64/64/64
f 77/77/77 78/78/78 79/79/79 80/80/80
f 92/92/92 93/93/93 94/94/94
f 192/192/192 193/193/193 194/194/194
f 205/205/205 206/206/206 207/207/207 208/208/208
f 224/224/224 225/225/225 226/226/226 227/227/227
f 228/228/228 229/229/229 230/230/230
f 249/249/249 250/250/250 251/251/251 252/252/252
f 268/268/268 269/269/269 270/270/270 271/271/271
f 272/272/272 273/273/273 274/274/274
f 296/296/296 297/297/297 298/298/298 299/299/299
f 300/300/300 301/301/301 302/302/302
f 321/321/321 322/322/322 323/323/323 324/324/324
f 337/337/337 338/338/338 339/339/339 340/340/340
f 352/352/352 353/353/353 354/354/354
