# Generated by dev-env-utils/scripts/gen_transit_airside.py -- do not edit
mtllib jet_bridge_large.mtl
o airport_jet_bridge_large_uturn_c0
v -1.00000 0.09375 0.76059
v -1.14665 0.09375 0.75056
v -1.15517 0.09375 1.00000
v -1.00000 0.09375 1.00000
v -1.00000 0.00000 1.00000
v -1.15517 0.00000 1.00000
v -1.14665 0.00000 0.75056
v -1.00000 0.00000 0.76059
v -1.00000 4.24547 0.76059
v -1.14665 4.24547 0.75056
v -1.15517 4.24547 1.00000
v -1.00000 4.24547 1.00000
v -1.00000 4.09375 1.00000
v -1.15517 4.09375 1.00000
v -1.14665 4.09375 0.75056
v -1.00000 4.09375 0.76059
v -1.00000 0.09375 0.51894
v -1.12113 0.09375 0.50229
v -1.14665 0.09375 0.75056
v -1.00000 0.09375 0.76059
v -1.00000 0.00000 0.76059
v -1.14665 0.00000 0.75056
v -1.12113 0.00000 0.50229
v -1.00000 0.00000 0.51894
v -1.00000 4.24547 0.51894
v -1.12113 4.24547 0.50229
v -1.14665 4.24547 0.75056
v -1.00000 4.24547 0.76059
v -1.00000 4.09375 0.76059
v -1.14665 4.09375 0.75056
v -1.12113 4.09375 0.50229
v -1.00000 4.09375 0.51894
v -1.00000 0.09375 0.27269
v -1.07872 0.09375 0.25633
v -1.12113 0.09375 0.50229
v -1.00000 0.09375 0.51894
v -1.00000 0.00000 0.51894
v -1.12113 0.00000 0.50229
v -1.07872 0.00000 0.25633
v -1.00000 0.00000 0.27269
v -1.00000 4.24547 0.27269
v -1.07872 4.24547 0.25633
v -1.12113 4.24547 0.50229
v -1.00000 4.24547 0.51894
v -1.00000 4.09375 0.51894
v -1.12113 4.09375 0.50229
v -1.07872 4.09375 0.25633
v -1.00000 4.09375 0.27269
v -1.00000 0.09375 0.01935
v -1.01963 0.09375 0.01385
v -1.07872 0.09375 0.25633
v -1.00000 0.09375 0.27269
v -1.00000 0.00000 0.27269
v -1.07872 0.00000 0.25633
v -1.01963 0.00000 0.01385
v -1.00000 0.00000 0.01935
v -1.00000 4.24547 0.01935
v -1.01963 4.24547 0.01385
v -1.07872 4.24547 0.25633
v -1.00000 4.24547 0.27269
v -1.00000 4.09375 0.27269
v -1.07872 4.09375 0.25633
v -1.01963 4.09375 0.01385
v -1.00000 4.09375 0.01935
v -1.00000 0.09375 0.00000
v -1.01566 0.09375 0.00000
v -1.01963 0.09375 0.01385
v -1.00000 0.09375 0.01935
v -1.00000 0.00000 0.01935
v -1.01963 0.00000 0.01385
v -1.01566 0.00000 0.00000
v -1.00000 0.00000 0.00000
v -1.00000 4.24547 0.00000
v -1.01566 4.24547 0.00000
v -1.01963 4.24547 0.01385
v -1.00000 4.24547 0.01935
v -1.00000 4.09375 0.01935
v -1.01963 4.09375 0.01385
v -1.01566 4.09375 0.00000
v -1.00000 4.09375 0.00000
v -1.14665 4.09375 0.75056
v -1.14665 0.09375 0.75056
v -1.15517 0.09375 1.00000
v -1.15517 4.09375 1.00000
v -1.14665 0.09375 0.75056
v -1.14665 0.00000 0.75056
v -1.15517 0.00000 1.00000
v -1.15517 0.09375 1.00000
v -1.14665 4.24547 0.75056
v -1.14665 4.09375 0.75056
v -1.15517 4.09375 1.00000
v -1.15517 4.24547 1.00000
v -1.12113 4.09375 0.50229
v -1.12113 0.09375 0.50229
v -1.14665 0.09375 0.75056
v -1.14665 4.09375 0.75056
v -1.12113 0.09375 0.50229
v -1.12113 0.00000 0.50229
v -1.14665 0.00000 0.75056
v -1.14665 0.09375 0.75056
v -1.12113 4.24547 0.50229
v -1.12113 4.09375 0.50229
v -1.14665 4.09375 0.75056
v -1.14665 4.24547 0.75056
v -1.07872 4.09375 0.25633
v -1.07872 0.09375 0.25633
v -1.12113 0.09375 0.50229
v -1.12113 4.09375 0.50229
v -1.07872 0.09375 0.25633
v -1.07872 0.00000 0.25633
v -1.12113 0.00000 0.50229
v -1.12113 0.09375 0.50229
v -1.07872 4.24547 0.25633
v -1.07872 4.09375 0.25633
v -1.12113 4.09375 0.50229
v -1.12113 4.24547 0.50229
v -1.01963 4.09375 0.01385
v -1.01963 0.09375 0.01385
v -1.07872 0.09375 0.25633
v -1.07872 4.09375 0.25633
v -1.01963 0.09375 0.01385
v -1.01963 0.00000 0.01385
v -1.07872 0.00000 0.25633
v -1.07872 0.09375 0.25633
v -1.01963 4.24547 0.01385
v -1.01963 4.09375 0.01385
v -1.07872 4.09375 0.25633
v -1.07872 4.24547 0.25633
v -1.01566 4.09375 0.00000
v -1.01566 0.09375 0.00000
v -1.01963 0.09375 0.01385
v -1.01963 4.09375 0.01385
v -1.01566 0.09375 0.00000
v -1.01566 0.00000 0.00000
v -1.01963 0.00000 0.01385
v -1.01963 0.09375 0.01385
v -1.01566 4.24547 0.00000
v -1.01566 4.09375 0.00000
v -1.01963 4.09375 0.01385
v -1.01963 4.24547 0.01385
v 0.00000 0.09375 0.82900
v -1.00000 0.09375 0.76059
v -1.00000 0.09375 1.00000
v 0.00000 0.09375 1.00000
v 0.00000 0.00000 1.00000
v -1.00000 0.00000 1.00000
v -1.00000 0.00000 0.76059
v 0.00000 0.00000 0.82900
v 0.00000 4.24547 0.82900
v -1.00000 4.24547 0.76059
v -1.00000 4.24547 1.00000
v 0.00000 4.24547 1.00000
v 0.00000 4.09375 1.00000
v -1.00000 4.09375 1.00000
v -1.00000 4.09375 0.76059
v 0.00000 4.09375 0.82900
v 0.00000 0.09375 0.65638
v -1.00000 0.09375 0.51894
v -1.00000 0.09375 0.76059
v 0.00000 0.09375 0.82900
v 0.00000 0.00000 0.82900
v -1.00000 0.00000 0.76059
v -1.00000 0.00000 0.51894
v 0.00000 0.00000 0.65638
v 0.00000 4.24547 0.65638
v -1.00000 4.24547 0.51894
v -1.00000 4.24547 0.76059
v 0.00000 4.24547 0.82900
v 0.00000 4.09375 0.82900
v -1.00000 4.09375 0.76059
v -1.00000 4.09375 0.51894
v 0.00000 4.09375 0.65638
v 0.00000 0.09375 0.48049
v -1.00000 0.09375 0.27269
v -1.00000 0.09375 0.51894
v 0.00000 0.09375 0.65638
v 0.00000 0.00000 0.65638
v -1.00000 0.00000 0.51894
v -1.00000 0.00000 0.27269
v 0.00000 0.00000 0.48049
v 0.00000 4.24547 0.48049
v -1.00000 4.24547 0.27269
v -1.00000 4.24547 0.51894
v 0.00000 4.24547 0.65638
v 0.00000 4.09375 0.65638
v -1.00000 4.09375 0.51894
v -1.00000 4.09375 0.27269
v 0.00000 4.09375 0.48049
v 0.00000 0.09375 0.29953
v -1.00000 0.09375 0.01935
v -1.00000 0.09375 0.27269
v 0.00000 0.09375 0.48049
v 0.00000 0.00000 0.48049
v -1.00000 0.00000 0.27269
v -1.00000 0.00000 0.01935
v 0.00000 0.00000 0.29953
v 0.00000 4.24547 0.29953
v -1.00000 4.24547 0.01935
v -1.00000 4.24547 0.27269
v 0.00000 4.24547 0.48049
v 0.00000 4.09375 0.48049
v -1.00000 4.09375 0.27269
v -1.00000 4.09375 0.01935
v 0.00000 4.09375 0.29953
v -0.90569 0.09375 0.00000
v -1.00000 0.09375 0.00000
v -1.00000 0.09375 0.01935
v 0.00000 0.09375 0.29953
v 0.00000 0.09375 0.26593
v -0.90569 0.09375 0.00000
v 0.00000 0.09375 0.29953
v 0.00000 0.00000 0.29953
v -1.00000 0.00000 0.01935
v -1.00000 0.00000 0.00000
v -0.90569 0.00000 0.00000
v 0.00000 0.00000 0.29953
v -0.90569 0.00000 0.00000
v 0.00000 0.00000 0.26593
v -0.90569 4.24547 0.00000
v -1.00000 4.24547 0.00000
v -1.00000 4.24547 0.01935
v 0.00000 4.24547 0.29953
v 0.00000 4.24547 0.26593
v -0.90569 4.24547 0.00000
v 0.00000 4.24547 0.29953
v 0.00000 4.09375 0.29953
v -1.00000 4.09375 0.01935
v -1.00000 4.09375 0.00000
v -0.90569 4.09375 0.00000
v 0.00000 4.09375 0.29953
v -0.90569 4.09375 0.00000
v 0.00000 4.09375 0.26593
v 0.00000 0.09375 0.11150
v -0.31373 0.09375 0.00000
v -0.90569 0.09375 0.00000
v 0.00000 0.09375 0.26593
v 0.00000 0.00000 0.26593
v -0.90569 0.00000 0.00000
v -0.31373 0.00000 0.00000
v 0.00000 0.00000 0.11150
v 0.00000 4.24547 0.11150
v -0.31373 4.24547 0.00000
v -0.90569 4.24547 0.00000
v 0.00000 4.24547 0.26593
v 0.00000 4.09375 0.26593
v -0.90569 4.09375 0.00000
v -0.31373 4.09375 0.00000
v 0.00000 4.09375 0.11150
v 0.00000 0.09375 0.00000
v -0.31373 0.09375 0.00000
v 0.00000 0.09375 0.11150
v 0.00000 0.00000 0.11150
v -0.31373 0.00000 0.00000
v 0.00000 0.00000 0.00000
v 0.00000 4.24547 0.00000
v -0.31373 4.24547 0.00000
v 0.00000 4.24547 0.11150
v 0.00000 4.09375 0.11150
v -0.31373 4.09375 0.00000
v 0.00000 4.09375 0.00000
v -1.00000 4.09375 1.00000
v -1.00000 0.09375 1.00000
v -0.99184 0.09375 0.76115
v -0.99184 4.09375 0.76115
v -0.99184 4.09375 0.76115
v -0.99184 0.09375 0.76115
v -0.96740 0.09375 0.52342
v -0.96740 4.09375 0.52342
v -0.96740 4.09375 0.52342
v -0.96740 0.09375 0.52342
v -0.92679 0.09375 0.28790
v -0.92679 4.09375 0.28790
v -0.92679 4.09375 0.28790
v -0.92679 0.09375 0.28790
v -0.87021 0.09375 0.05571
v -0.87021 4.09375 0.05571
v -0.87021 4.09375 0.05571
v -0.87021 0.09375 0.05571
v -0.85823 0.09375 0.01394
v -0.85823 4.09375 0.01394
v -0.85823 4.09375 0.01394
v -0.85823 0.09375 0.01394
v -0.85371 0.09375 0.00000
v -0.85371 4.09375 0.00000
v 1.00000 0.09375 0.89740
v 0.00000 0.09375 0.82900
v 0.00000 0.09375 1.00000
v 1.00000 0.09375 1.00000
v 1.00000 0.00000 1.00000
v 0.00000 0.00000 1.00000
v 0.00000 0.00000 0.82900
v 1.00000 0.00000 0.89740
v 1.00000 4.24547 0.89740
v 0.00000 4.24547 0.82900
v 0.00000 4.24547 1.00000
v 1.00000 4.24547 1.00000
v 1.00000 4.09375 1.00000
v 0.00000 4.09375 1.00000
v 0.00000 4.09375 0.82900
v 1.00000 4.09375 0.89740
v 1.00000 0.09375 0.79383
v 0.00000 0.09375 0.65638
v 0.00000 0.09375 0.82900
v 1.00000 0.09375 0.89740
v 1.00000 0.00000 0.89740
v 0.00000 0.00000 0.82900
v 0.00000 0.00000 0.65638
v 1.00000 0.00000 0.79383
v 1.00000 4.24547 0.79383
v 0.00000 4.24547 0.65638
v 0.00000 4.24547 0.82900
v 1.00000 4.24547 0.89740
v 1.00000 4.09375 0.89740
v 0.00000 4.09375 0.82900
v 0.00000 4.09375 0.65638
v 1.00000 4.09375 0.79383
v 1.00000 0.09375 0.68830
v 0.00000 0.09375 0.48049
v 0.00000 0.09375 0.65638
v 1.00000 0.09375 0.79383
v 1.00000 0.00000 0.79383
v 0.00000 0.00000 0.65638
v 0.00000 0.00000 0.48049
v 1.00000 0.00000 0.68830
v 1.00000 4.24547 0.68830
v 0.00000 4.24547 0.48049
v 0.00000 4.24547 0.65638
v 1.00000 4.24547 0.79383
v 1.00000 4.09375 0.79383
v 0.00000 4.09375 0.65638
v 0.00000 4.09375 0.48049
v 1.00000 4.09375 0.68830
v 1.00000 0.09375 0.57972
v 0.00000 0.09375 0.29953
v 0.00000 0.09375 0.48049
v 1.00000 0.09375 0.68830
v 1.00000 0.00000 0.68830
v 0.00000 0.00000 0.48049
v 0.00000 0.00000 0.29953
v 1.00000 0.00000 0.57972
v 1.00000 4.24547 0.57972
v 0.00000 4.24547 0.29953
v 0.00000 4.24547 0.48049
v 1.00000 4.24547 0.68830
v 1.00000 4.09375 0.68830
v 0.00000 4.09375 0.48049
v 0.00000 4.09375 0.29953
v 1.00000 4.09375 0.57972
v 1.00000 0.09375 0.55956
v 0.00000 0.09375 0.26593
v 0.00000 0.09375 0.29953
v 1.00000 0.09375 0.57972
v 1.00000 0.00000 0.57972
v 0.00000 0.00000 0.29953
v 0.00000 0.00000 0.26593
v 1.00000 0.00000 0.55956
v 1.00000 4.24547 0.55956
v 0.00000 4.24547 0.26593
v 0.00000 4.24547 0.29953
v 1.00000 4.24547 0.57972
v 1.00000 4.09375 0.57972
v 0.00000 4.09375 0.29953
v 0.00000 4.09375 0.26593
v 1.00000 4.09375 0.55956
v 1.00000 0.09375 0.46690
v 0.00000 0.09375 0.11150
v 0.00000 0.09375 0.26593
v 1.00000 0.09375 0.55956
v 1.00000 0.00000 0.55956
v 0.00000 0.00000 0.26593
v 0.00000 0.00000 0.11150
v 1.00000 0.00000 0.46690
v 1.00000 4.24547 0.46690
v 0.00000 4.24547 0.11150
v 0.00000 4.24547 0.26593
v 1.00000 4.24547 0.55956
v 1.00000 4.09375 0.55956
v 0.00000 4.09375 0.26593
v 0.00000 4.09375 0.11150
v 1.00000 4.09375 0.46690
v 0.19777 0.09375 0.00000
v 0.00000 0.09375 0.00000
v 0.00000 0.09375 0.11150
v 1.00000 0.09375 0.46690
v 1.00000 0.09375 0.34846
v 0.19777 0.09375 0.00000
v 1.00000 0.09375 0.46690
v 1.00000 0.00000 0.46690
v 0.00000 0.00000 0.11150
v 0.00000 0.00000 0.00000
v 0.19777 0.00000 0.00000
v 1.00000 0.00000 0.46690
v 0.19777 0.00000 0.00000
v 1.00000 0.00000 0.34846
v 0.19777 4.24547 0.00000
v 0.00000 4.24547 0.00000
v 0.00000 4.24547 0.11150
v 1.00000 4.24547 0.46690
v 1.00000 4.24547 0.34846
v 0.19777 4.24547 0.00000
v 1.00000 4.24547 0.46690
v 1.00000 4.09375 0.46690
v 0.00000 4.09375 0.11150
v 0.00000 4.09375 0.00000
v 0.19777 4.09375 0.00000
v 1.00000 4.09375 0.46690
v 0.19777 4.09375 0.00000
v 1.00000 4.09375 0.34846
v 1.00000 0.09375 0.22276
v 0.57009 0.09375 0.00000
v 0.19777 0.09375 0.00000
v 1.00000 0.09375 0.34846
v 1.00000 0.00000 0.34846
v 0.19777 0.00000 0.00000
v 0.57009 0.00000 0.00000
v 1.00000 0.00000 0.22276
v 1.00000 4.24547 0.22276
v 0.57009 4.24547 0.00000
v 0.19777 4.24547 0.00000
v 1.00000 4.24547 0.34846
v 1.00000 4.09375 0.34846
v 0.19777 4.09375 0.00000
v 0.57009 4.09375 0.00000
v 1.00000 4.09375 0.22276
v 1.00000 0.09375 0.08783
v 0.85557 0.09375 0.00000
v 0.57009 0.09375 0.00000
v 1.00000 0.09375 0.22276
v 1.00000 0.00000 0.22276
v 0.57009 0.00000 0.00000
v 0.85557 0.00000 0.00000
v 1.00000 0.00000 0.08783
v 1.00000 4.24547 0.08783
v 0.85557 4.24547 0.00000
v 0.57009 4.24547 0.00000
v 1.00000 4.24547 0.22276
v 1.00000 4.09375 0.22276
v 0.57009 4.09375 0.00000
v 0.85557 4.09375 0.00000
v 1.00000 4.09375 0.08783
v 1.00000 0.09375 0.03601
v 0.94397 0.09375 0.00000
v 0.85557 0.09375 0.00000
v 1.00000 0.09375 0.08783
v 1.00000 0.00000 0.08783
v 0.85557 0.00000 0.00000
v 0.94397 0.00000 0.00000
v 1.00000 0.00000 0.03601
v 1.00000 4.24547 0.03601
v 0.94397 4.24547 0.00000
v 0.85557 4.24547 0.00000
v 1.00000 4.24547 0.08783
v 1.00000 4.09375 0.08783
v 0.85557 4.09375 0.00000
v 0.94397 4.09375 0.00000
v 1.00000 4.09375 0.03601
v 1.00000 0.09375 0.00000
v 0.94397 0.09375 0.00000
v 1.00000 0.09375 0.03601
v 1.00000 0.00000 0.03601
v 0.94397 0.00000 0.00000
v 1.00000 0.00000 0.00000
v 1.00000 4.24547 0.00000
v 0.94397 4.24547 0.00000
v 1.00000 4.24547 0.03601
v 1.00000 4.09375 0.03601
v 0.94397 4.09375 0.00000
v 1.00000 4.09375 0.00000
vt 0.75000 0.19015
vt 0.71334 0.18764
vt 0.71121 0.25000
vt 0.75000 0.25000
vt 0.75000 0.25000
vt 0.71121 0.25000
vt 0.71334 0.18764
vt 0.75000 0.19015
vt 0.75000 0.19015
vt 0.71334 0.18764
vt 0.71121 0.25000
vt 0.75000 0.25000
vt 0.47656 0.00000
vt 0.50000 0.00000
vt 0.50000 0.03415
vt 0.47780 0.03415
vt 0.75000 0.12973
vt 0.71972 0.12557
vt 0.71334 0.18764
vt 0.75000 0.19015
vt 0.75000 0.19015
vt 0.71334 0.18764
vt 0.71972 0.12557
vt 0.75000 0.12973
vt 0.75000 0.12973
vt 0.71972 0.12557
vt 0.71334 0.18764
vt 0.75000 0.19015
vt 0.47780 0.03415
vt 0.50000 0.03415
vt 0.50000 0.06830
vt 0.48153 0.06830
vt 0.75000 0.06817
vt 0.73032 0.06408
vt 0.71972 0.12557
vt 0.75000 0.12973
vt 0.75000 0.12973
vt 0.71972 0.12557
vt 0.73032 0.06408
vt 0.75000 0.06817
vt 0.75000 0.06817
vt 0.73032 0.06408
vt 0.71972 0.12557
vt 0.75000 0.12973
vt 0.48153 0.06830
vt 0.50000 0.06830
vt 0.50000 0.10244
vt 0.48786 0.10244
vt 0.75000 0.00484
vt 0.74509 0.00346
vt 0.73032 0.06408
vt 0.75000 0.06817
vt 0.75000 0.06817
vt 0.73032 0.06408
vt 0.74509 0.00346
vt 0.75000 0.00484
vt 0.75000 0.00484
vt 0.74509 0.00346
vt 0.73032 0.06408
vt 0.75000 0.06817
vt 0.48786 0.10244
vt 0.50000 0.10244
vt 0.50000 0.13659
vt 0.49692 0.13659
vt 0.75000 0.00000
vt 0.74609 0.00000
vt 0.74509 0.00346
vt 0.75000 0.00484
vt 0.75000 0.00484
vt 0.74509 0.00346
vt 0.74609 0.00000
vt 0.75000 0.00000
vt 0.75000 0.00000
vt 0.74609 0.00000
vt 0.74509 0.00346
vt 0.75000 0.00484
vt 0.49692 0.13659
vt 0.50000 0.13659
vt 0.49999 0.13856
vt 0.49772 0.13915
vt 0.11956 0.00000
vt 0.11956 0.90625
vt 0.00000 0.90625
vt 0.00000 0.00000
vt 0.23913 0.00000
vt 0.23913 0.09375
vt 0.00000 0.09375
vt 0.00000 0.00000
vt 0.23913 0.00000
vt 0.23913 0.09375
vt 0.00000 0.09375
vt 0.00000 0.00000
vt 0.23913 0.00000
vt 0.23913 0.90625
vt 0.11956 0.90625
vt 0.11956 0.00000
vt 0.47826 0.00000
vt 0.47826 0.09375
vt 0.23913 0.09375
vt 0.23913 0.00000
vt 0.47826 0.00000
vt 0.47826 0.09375
vt 0.23913 0.09375
vt 0.23913 0.00000
vt 0.35869 0.00000
vt 0.35869 0.90625
vt 0.23913 0.90625
vt 0.23913 0.00000
vt 0.71739 0.00000
vt 0.71739 0.09375
vt 0.47826 0.09375
vt 0.47826 0.00000
vt 0.71739 0.00000
vt 0.71739 0.09375
vt 0.47826 0.09375
vt 0.47826 0.00000
vt 0.47826 0.00000
vt 0.47826 0.90625
vt 0.35869 0.90625
vt 0.35869 0.00000
vt 0.95651 0.00000
vt 0.95651 0.09375
vt 0.71739 0.09375
vt 0.71739 0.00000
vt 0.95651 0.00000
vt 0.95651 0.09375
vt 0.71739 0.09375
vt 0.71739 0.00000
vt 0.48516 0.00000
vt 0.48516 0.90625
vt 0.47826 0.90625
vt 0.47826 0.00000
vt 0.97031 0.00000
vt 0.97031 0.09375
vt 0.95651 0.09375
vt 0.95651 0.00000
vt 0.97031 0.00000
vt 0.97031 0.09375
vt 0.95651 0.09375
vt 0.95651 0.00000
vt 1.00000 0.20725
vt 0.75000 0.19015
vt 0.75000 0.25000
vt 1.00000 0.25000
vt 1.00000 0.25000
vt 0.75000 0.25000
vt 0.75000 0.19015
vt 1.00000 0.20725
vt 1.00000 0.20725
vt 0.75000 0.19015
vt 0.75000 0.25000
vt 1.00000 0.25000
vt 0.32552 0.00000
vt 0.47656 0.00000
vt 0.47780 0.03415
vt 0.32640 0.03415
vt 1.00000 0.16410
vt 0.75000 0.12973
vt 0.75000 0.19015
vt 1.00000 0.20725
vt 1.00000 0.20725
vt 0.75000 0.19015
vt 0.75000 0.12973
vt 1.00000 0.16410
vt 1.00000 0.16410
vt 0.75000 0.12973
vt 0.75000 0.19015
vt 1.00000 0.20725
vt 0.32640 0.03415
vt 0.47780 0.03415
vt 0.48153 0.06830
vt 0.32907 0.06830
vt 1.00000 0.12012
vt 0.75000 0.06817
vt 0.75000 0.12973
vt 1.00000 0.16410
vt 1.00000 0.16410
vt 0.75000 0.12973
vt 0.75000 0.06817
vt 1.00000 0.12012
vt 1.00000 0.12012
vt 0.75000 0.06817
vt 0.75000 0.12973
vt 1.00000 0.16410
vt 0.32907 0.06830
vt 0.48153 0.06830
vt 0.48786 0.10244
vt 0.33359 0.10244
vt 1.00000 0.07488
vt 0.75000 0.00484
vt 0.75000 0.06817
vt 1.00000 0.12012
vt 1.00000 0.12012
vt 0.75000 0.06817
vt 0.75000 0.00484
vt 1.00000 0.07488
vt 1.00000 0.07488
vt 0.75000 0.00484
vt 0.75000 0.06817
vt 1.00000 0.12012
vt 0.33359 0.10244
vt 0.48786 0.10244
vt 0.49692 0.13659
vt 0.34006 0.13659
vt 0.77358 0.00000
vt 0.75000 0.00000
vt 0.75000 0.00484
vt 1.00000 0.07488
vt 1.00000 0.06648
vt 0.77358 0.00000
vt 1.00000 0.07488
vt 1.00000 0.07488
vt 0.75000 0.00484
vt 0.75000 0.00000
vt 0.77358 0.00000
vt 1.00000 0.07488
vt 0.77358 0.00000
vt 1.00000 0.06648
vt 0.77358 0.00000
vt 0.75000 0.00000
vt 0.75000 0.00484
vt 1.00000 0.07488
vt 1.00000 0.06648
vt 0.77358 0.00000
vt 1.00000 0.07488
vt 0.34006 0.13659
vt 0.49692 0.13659
vt 0.49772 0.13915
vt 0.48403 0.14280
vt 0.34006 0.13659
vt 0.48403 0.14280
vt 0.34146 0.14280
vt 1.00000 0.02787
vt 0.92157 0.00000
vt 0.77358 0.00000
vt 1.00000 0.06648
vt 1.00000 0.06648
vt 0.77358 0.00000
vt 0.92157 0.00000
vt 1.00000 0.02787
vt 1.00000 0.02787
vt 0.92157 0.00000
vt 0.77358 0.00000
vt 1.00000 0.06648
vt 0.34146 0.14280
vt 0.48403 0.14280
vt 0.39895 0.17074
vt 0.34866 0.17074
vt 1.00000 0.00000
vt 0.92157 0.00000
vt 1.00000 0.02787
vt 1.00000 0.02787
vt 0.92157 0.00000
vt 1.00000 0.00000
vt 1.00000 0.00000
vt 0.92157 0.00000
vt 1.00000 0.02787
vt 0.34866 0.17074
vt 0.39895 0.17074
vt 0.35461 0.19025
vt 0.00000 0.00000
vt 0.00000 0.90625
vt 0.11956 0.90625
vt 0.11956 0.00000
vt 0.11956 0.00000
vt 0.11956 0.90625
vt 0.23913 0.90625
vt 0.23913 0.00000
vt 0.23913 0.00000
vt 0.23913 0.90625
vt 0.35869 0.90625
vt 0.35869 0.00000
vt 0.35869 0.00000
vt 0.35869 0.90625
vt 0.47826 0.90625
vt 0.47826 0.00000
vt 0.47826 0.00000
vt 0.47826 0.90625
vt 0.50000 0.90625
vt 0.50000 0.00000
vt 0.00000 0.00000
vt 0.00000 0.90625
vt 0.00733 0.90625
vt 0.00733 0.00000
vt 0.25000 0.22435
vt 0.00000 0.20725
vt 0.00000 0.25000
vt 0.25000 0.25000
vt 0.25000 0.25000
vt 0.00000 0.25000
vt 0.00000 0.20725
vt 0.25000 0.22435
vt 0.25000 0.22435
vt 0.00000 0.20725
vt 0.00000 0.25000
vt 0.25000 0.25000
vt 0.17448 0.00000
vt 0.32552 0.00000
vt 0.32640 0.03415
vt 0.17501 0.03415
vt 0.25000 0.19846
vt 0.00000 0.16410
vt 0.00000 0.20725
vt 0.25000 0.22435
vt 0.25000 0.22435
vt 0.00000 0.20725
vt 0.00000 0.16410
vt 0.25000 0.19846
vt 0.25000 0.19846
vt 0.00000 0.16410
vt 0.00000 0.20725
vt 0.25000 0.22435
vt 0.17501 0.03415
vt 0.32640 0.03415
vt 0.32907 0.06830
vt 0.17661 0.06830
vt 0.25000 0.17207
vt 0.00000 0.12012
vt 0.00000 0.16410
vt 0.25000 0.19846
vt 0.25000 0.19846
vt 0.00000 0.16410
vt 0.00000 0.12012
vt 0.25000 0.17207
vt 0.25000 0.17207
vt 0.00000 0.12012
vt 0.00000 0.16410
vt 0.25000 0.19846
vt 0.17661 0.06830
vt 0.32907 0.06830
vt 0.33359 0.10244
vt 0.17932 0.10244
vt 0.25000 0.14493
vt 0.00000 0.07488
vt 0.00000 0.12012
vt 0.25000 0.17207
vt 0.25000 0.17207
vt 0.00000 0.12012
vt 0.00000 0.07488
vt 0.25000 0.14493
vt 0.25000 0.14493
vt 0.00000 0.07488
vt 0.00000 0.12012
vt 0.25000 0.17207
vt 0.17932 0.10244
vt 0.33359 0.10244
vt 0.34006 0.13659
vt 0.18320 0.13659
vt 0.25000 0.13989
vt 0.00000 0.06648
vt 0.00000 0.07488
vt 0.25000 0.14493
vt 0.25000 0.14493
vt 0.00000 0.07488
vt 0.00000 0.06648
vt 0.25000 0.13989
vt 0.25000 0.13989
vt 0.00000 0.06648
vt 0.00000 0.07488
vt 0.25000 0.14493
vt 0.18320 0.13659
vt 0.34006 0.13659
vt 0.34146 0.14280
vt 0.18404 0.14280
vt 0.25000 0.11672
vt 0.00000 0.02787
vt 0.00000 0.06648
vt 0.25000 0.13989
vt 0.25000 0.13989
vt 0.00000 0.06648
vt 0.00000 0.02787
vt 0.25000 0.11672
vt 0.25000 0.11672
vt 0.00000 0.02787
vt 0.00000 0.06648
vt 0.25000 0.13989
vt 0.18404 0.14280
vt 0.34146 0.14280
vt 0.34866 0.17074
vt 0.18836 0.17074
vt 0.04944 0.00000
vt 0.00000 0.00000
vt 0.00000 0.02787
vt 0.25000 0.11672
vt 0.25000 0.08711
vt 0.04944 0.00000
vt 0.25000 0.11672
vt 0.25000 0.11672
vt 0.00000 0.02787
vt 0.00000 0.00000
vt 0.04944 0.00000
vt 0.25000 0.11672
vt 0.04944 0.00000
vt 0.25000 0.08711
vt 0.04944 0.00000
vt 0.00000 0.00000
vt 0.00000 0.02787
vt 0.25000 0.11672
vt 0.25000 0.08711
vt 0.04944 0.00000
vt 0.25000 0.11672
vt 0.18836 0.17074
vt 0.34866 0.17074
vt 0.35461 0.19025
vt 0.32704 0.20489
vt 0.18836 0.17074
vt 0.32704 0.20489
vt 0.19493 0.20489
vt 0.25000 0.05569
vt 0.14252 0.00000
vt 0.04944 0.00000
vt 0.25000 0.08711
vt 0.25000 0.08711
vt 0.04944 0.00000
vt 0.14252 0.00000
vt 0.25000 0.05569
vt 0.25000 0.05569
vt 0.14252 0.00000
vt 0.04944 0.00000
vt 0.25000 0.08711
vt 0.19493 0.20489
vt 0.32704 0.20489
vt 0.27622 0.23903
vt 0.20309 0.23903
vt 0.25000 0.02196
vt 0.21389 0.00000
vt 0.14252 0.00000
vt 0.25000 0.05569
vt 0.25000 0.05569
vt 0.14252 0.00000
vt 0.21389 0.00000
vt 0.25000 0.02196
vt 0.25000 0.02196
vt 0.21389 0.00000
vt 0.14252 0.00000
vt 0.25000 0.05569
vt 0.20309 0.23903
vt 0.27622 0.23903
vt 0.23861 0.27318
vt 0.21308 0.27318
vt 0.25000 0.00900
vt 0.23599 0.00000
vt 0.21389 0.00000
vt 0.25000 0.02196
vt 0.25000 0.02196
vt 0.21389 0.00000
vt 0.23599 0.00000
vt 0.25000 0.00900
vt 0.25000 0.00900
vt 0.23599 0.00000
vt 0.21389 0.00000
vt 0.25000 0.02196
vt 0.21308 0.27318
vt 0.23861 0.27318
vt 0.22729 0.28560
vt 0.21723 0.28560
vt 0.25000 0.00000
vt 0.23599 0.00000
vt 0.25000 0.00900
vt 0.25000 0.00900
vt 0.23599 0.00000
vt 0.25000 0.00000
vt 0.25000 0.00000
vt 0.23599 0.00000
vt 0.25000 0.00900
vt 0.21723 0.28560
vt 0.22729 0.28560
vt 0.22021 0.29400
vn 0.00000 1.00000 0.00000
vn 0.00000 1.00000 0.00000
vn 0.00000 1.00000 0.00000
vn 0.00000 1.00000 0.00000
vn 0.00000 -1.00000 0.00000
vn 0.00000 -1.00000 0.00000
vn 0.00000 -1.00000 0.00000
vn 0.00000 -1.00000 0.00000
vn 0.00000 1.00000 0.00000
vn 0.00000 1.00000 0.00000
vn 0.00000 1.00000 0.00000
vn 0.00000 1.00000 0.00000
vn 0.00000 -1.00000 0.00000
vn 0.00000 -1.00000 0.00000
vn 0.00000 -1.00000 0.00000
vn 0.00000 -1.00000 0.00000
vn 0.00000 1.00000 0.00000
vn 0.00000 1.00000 0.00000
vn 0.00000 1.00000 0.00000
vn 0.00000 1.00000 0.00000
vn 0.00000 -1.00000 0.00000
vn 0.00000 -1.00000 0.00000
vn 0.00000 -1.00000 0.00000
vn 0.00000 -1.00000 0.00000
vn 0.00000 1.00000 0.00000
vn 0.00000 1.00000 0.00000
vn 0.00000 1.00000 0.00000
vn 0.00000 1.00000 0.00000
vn 0.00000 -1.00000 0.00000
vn 0.00000 -1.00000 0.00000
vn 0.00000 -1.00000 0.00000
vn 0.00000 -1.00000 0.00000
vn 0.00000 1.00000 0.00000
vn 0.00000 1.00000 0.00000
vn 0.00000 1.00000 0.00000
vn 0.00000 1.00000 0.00000
vn 0.00000 -1.00000 0.00000
vn 0.00000 -1.00000 0.00000
vn 0.00000 -1.00000 0.00000
vn 0.00000 -1.00000 0.00000
vn 0.00000 1.00000 0.00000
vn 0.00000 1.00000 0.00000
vn 0.00000 1.00000 0.00000
vn 0.00000 1.00000 0.00000
vn 0.00000 -1.00000 0.00000
vn 0.00000 -1.00000 0.00000
vn 0.00000 -1.00000 0.00000
vn 0.00000 -1.00000 0.00000
vn 0.00000 1.00000 0.00000
vn 0.00000 1.00000 0.00000
vn 0.00000 1.00000 0.00000
vn 0.00000 1.00000 0.00000
vn 0.00000 -1.00000 0.00000
vn 0.00000 -1.00000 0.00000
vn 0.00000 -1.00000 0.00000
vn 0.00000 -1.00000 0.00000
vn 0.00000 1.00000 0.00000
vn 0.00000 1.00000 0.00000
vn 0.00000 1.00000 0.00000
vn 0.00000 1.00000 0.00000
vn 0.00000 -1.00000 0.00000
vn 0.00000 -1.00000 0.00000
vn 0.00000 -1.00000 0.00000
vn 0.00000 -1.00000 0.00000
vn 0.00000 1.00000 0.00000
vn 0.00000 1.00000 0.00000
vn 0.00000 1.00000 0.00000
vn 0.00000 1.00000 0.00000
vn 0.00000 -1.00000 0.00000
vn 0.00000 -1.00000 0.00000
vn 0.00000 -1.00000 0.00000
vn 0.00000 -1.00000 0.00000
vn 0.00000 1.00000 0.00000
vn 0.00000 1.00000 0.00000
vn 0.00000 1.00000 0.00000
vn 0.00000 1.00000 0.00000
vn 0.00000 -1.00000 0.00000
vn 0.00000 -1.00000 0.00000
vn 0.00000 -1.00000 0.00000
vn 0.00000 -1.00000 0.00000
vn -0.99942 0.00000 -0.03414
vn -0.99942 0.00000 -0.03414
vn -0.99942 0.00000 -0.03414
vn -0.99942 0.00000 -0.03414
vn -0.99942 0.00000 -0.03414
vn -0.99942 0.00000 -0.03414
vn -0.99942 0.00000 -0.03414
vn -0.99942 0.00000 -0.03414
vn -0.99942 0.00000 -0.03414
vn -0.99942 0.00000 -0.03414
vn -0.99942 0.00000 -0.03414
vn -0.99942 0.00000 -0.03414
vn -0.99476 0.00000 -0.10226
vn -0.99476 0.00000 -0.10226
vn -0.99476 0.00000 -0.10226
vn -0.99476 0.00000 -0.10226
vn -0.99476 0.00000 -0.10226
vn -0.99476 0.00000 -0.10226
vn -0.99476 0.00000 -0.10226
vn -0.99476 0.00000 -0.10226
vn -0.99476 0.00000 -0.10226
vn -0.99476 0.00000 -0.10226
vn -0.99476 0.00000 -0.10226
vn -0.99476 0.00000 -0.10226
vn -0.98546 0.00000 -0.16991
vn -0.98546 0.00000 -0.16991
vn -0.98546 0.00000 -0.16991
vn -0.98546 0.00000 -0.16991
vn -0.98546 0.00000 -0.16991
vn -0.98546 0.00000 -0.16991
vn -0.98546 0.00000 -0.16991
vn -0.98546 0.00000 -0.16991
vn -0.98546 0.00000 -0.16991
vn -0.98546 0.00000 -0.16991
vn -0.98546 0.00000 -0.16991
vn -0.98546 0.00000 -0.16991
vn -0.97157 0.00000 -0.23676
vn -0.97157 0.00000 -0.23676
vn -0.97157 0.00000 -0.23676
vn -0.97157 0.00000 -0.23676
vn -0.97157 0.00000 -0.23676
vn -0.97157 0.00000 -0.23676
vn -0.97157 0.00000 -0.23676
vn -0.97157 0.00000 -0.23676
vn -0.97157 0.00000 -0.23676
vn -0.97157 0.00000 -0.23676
vn -0.97157 0.00000 -0.23676
vn -0.97157 0.00000 -0.23676
vn -0.96122 0.00000 -0.27577
vn -0.96122 0.00000 -0.27577
vn -0.96122 0.00000 -0.27577
vn -0.96122 0.00000 -0.27577
vn -0.96122 0.00000 -0.27577
vn -0.96122 0.00000 -0.27577
vn -0.96122 0.00000 -0.27577
vn -0.96122 0.00000 -0.27577
vn -0.96122 0.00000 -0.27577
vn -0.96122 0.00000 -0.27577
vn -0.96122 0.00000 -0.27577
vn -0.96122 0.00000 -0.27577
vn 0.00000 1.00000 0.00000
vn 0.00000 1.00000 0.00000
vn 0.00000 1.00000 0.00000
vn 0.00000 1.00000 0.00000
vn 0.00000 -1.00000 0.00000
vn 0.00000 -1.00000 0.00000
vn 0.00000 -1.00000 0.00000
vn 0.00000 -1.00000 0.00000
vn 0.00000 1.00000 0.00000
vn 0.00000 1.00000 0.00000
vn 0.00000 1.00000 0.00000
vn 0.00000 1.00000 0.00000
vn 0.00000 -1.00000 0.00000
vn 0.00000 -1.00000 0.00000
vn 0.00000 -1.00000 0.00000
vn 0.00000 -1.00000 0.00000
vn 0.00000 1.00000 0.00000
vn 0.00000 1.00000 0.00000
vn 0.00000 1.00000 0.00000
vn 0.00000 1.00000 0.00000
vn 0.00000 -1.00000 0.00000
vn 0.00000 -1.00000 0.00000
vn 0.00000 -1.00000 0.00000
vn 0.00000 -1.00000 0.00000
vn 0.00000 1.00000 0.00000
vn 0.00000 1.00000 0.00000
vn 0.00000 1.00000 0.00000
vn 0.00000 1.00000 0.00000
vn 0.00000 -1.00000 0.00000
vn 0.00000 -1.00000 0.00000
vn 0.00000 -1.00000 0.00000
vn 0.00000 -1.00000 0.00000
vn 0.00000 1.00000 0.00000
vn 0.00000 1.00000 0.00000
vn 0.00000 1.00000 0.00000
vn 0.00000 1.00000 0.00000
vn 0.00000 -1.00000 0.00000
vn 0.00000 -1.00000 0.00000
vn 0.00000 -1.00000 0.00000
vn 0.00000 -1.00000 0.00000
vn 0.00000 1.00000 0.00000
vn 0.00000 1.00000 0.00000
vn 0.00000 1.00000 0.00000
vn 0.00000 1.00000 0.00000
vn 0.00000 -1.00000 0.00000
vn 0.00000 -1.00000 0.00000
vn 0.00000 -1.00000 0.00000
vn 0.00000 -1.00000 0.00000
vn 0.00000 1.00000 0.00000
vn 0.00000 1.00000 0.00000
vn 0.00000 1.00000 0.00000
vn 0.00000 1.00000 0.00000
vn 0.00000 -1.00000 0.00000
vn 0.00000 -1.00000 0.00000
vn 0.00000 -1.00000 0.00000
vn 0.00000 -1.00000 0.00000
vn 0.00000 1.00000 0.00000
vn 0.00000 1.00000 0.00000
vn 0.00000 1.00000 0.00000
vn 0.00000 1.00000 0.00000
vn 0.00000 -1.00000 0.00000
vn 0.00000 -1.00000 0.00000
vn 0.00000 -1.00000 0.00000
vn 0.00000 -1.00000 0.00000
vn 0.00000 1.00000 0.00000
vn 0.00000 1.00000 0.00000
vn 0.00000 1.00000 0.00000
vn 0.00000 1.00000 0.00000
vn 0.00000 1.00000 0.00000
vn 0.00000 1.00000 0.00000
vn 0.00000 1.00000 0.00000
vn 0.00000 -1.00000 0.00000
vn 0.00000 -1.00000 0.00000
vn 0.00000 -1.00000 0.00000
vn 0.00000 -1.00000 0.00000
vn 0.00000 -1.00000 0.00000
vn 0.00000 -1.00000 0.00000
vn 0.00000 -1.00000 0.00000
vn 0.00000 1.00000 0.00000
vn 0.00000 1.00000 0.00000
vn 0.00000 1.00000 0.00000
vn 0.00000 1.00000 0.00000
vn 0.00000 1.00000 0.00000
vn 0.00000 1.00000 0.00000
vn 0.00000 1.00000 0.00000
vn 0.00000 -1.00000 0.00000
vn 0.00000 -1.00000 0.00000
vn 0.00000 -1.00000 0.00000
vn 0.00000 -1.00000 0.00000
vn 0.00000 -1.00000 0.00000
vn 0.00000 -1.00000 0.00000
vn 0.00000 -1.00000 0.00000
vn 0.00000 1.00000 0.00000
vn 0.00000 1.00000 0.00000
vn 0.00000 1.00000 0.00000
vn 0.00000 1.00000 0.00000
vn 0.00000 -1.00000 0.00000
vn 0.00000 -1.00000 0.00000
vn 0.00000 -1.00000 0.00000
vn 0.00000 -1.00000 0.00000
vn 0.00000 1.00000 0.00000
vn 0.00000 1.00000 0.00000
vn 0.00000 1.00000 0.00000
vn 0.00000 1.00000 0.00000
vn 0.00000 -1.00000 0.00000
vn 0.00000 -1.00000 0.00000
vn 0.00000 -1.00000 0.00000
vn 0.00000 -1.00000 0.00000
vn 0.00000 1.00000 0.00000
vn 0.00000 1.00000 0.00000
vn 0.00000 1.00000 0.00000
vn 0.00000 -1.00000 0.00000
vn 0.00000 -1.00000 0.00000
vn 0.00000 -1.00000 0.00000
vn 0.00000 1.00000 0.00000
vn 0.00000 1.00000 0.00000
vn 0.00000 1.00000 0.00000
vn 0.00000 -1.00000 0.00000
vn 0.00000 -1.00000 0.00000
vn 0.00000 -1.00000 0.00000
vn 0.99942 0.00000 0.03414
vn 0.99942 0.00000 0.03414
vn 0.99942 0.00000 0.03414
vn 0.99942 0.00000 0.03414
vn 0.99476 0.00000 0.10226
vn 0.99476 0.00000 0.10226
vn 0.99476 0.00000 0.10226
vn 0.99476 0.00000 0.10226
vn 0.98546 0.00000 0.16991
vn 0.98546 0.00000 0.16991
vn 0.98546 0.00000 0.16991
vn 0.98546 0.00000 0.16991
vn 0.97157 0.00000 0.23676
vn 0.97157 0.00000 0.23676
vn 0.97157 0.00000 0.23676
vn 0.97157 0.00000 0.23676
vn 0.96122 0.00000 0.27577
vn 0.96122 0.00000 0.27577
vn 0.96122 0.00000 0.27577
vn 0.96122 0.00000 0.27577
vn 0.95125 0.00000 0.30843
vn 0.95125 0.00000 0.30843
vn 0.95125 0.00000 0.30843
vn 0.95125 0.00000 0.30843
vn 0.00000 1.00000 0.00000
vn 0.00000 1.00000 0.00000
vn 0.00000 1.00000 0.00000
vn 0.00000 1.00000 0.00000
vn 0.00000 -1.00000 0.00000
vn 0.00000 -1.00000 0.00000
vn 0.00000 -1.00000 0.00000
vn 0.00000 -1.00000 0.00000
vn 0.00000 1.00000 0.00000
vn 0.00000 1.00000 0.00000
vn 0.00000 1.00000 0.00000
vn 0.00000 1.00000 0.00000
vn 0.00000 -1.00000 0.00000
vn 0.00000 -1.00000 0.00000
vn 0.00000 -1.00000 0.00000
vn 0.00000 -1.00000 0.00000
vn 0.00000 1.00000 0.00000
vn 0.00000 1.00000 0.00000
vn 0.00000 1.00000 0.00000
vn 0.00000 1.00000 0.00000
vn 0.00000 -1.00000 0.00000
vn 0.00000 -1.00000 0.00000
vn 0.00000 -1.00000 0.00000
vn 0.00000 -1.00000 0.00000
vn 0.00000 1.00000 0.00000
vn 0.00000 1.00000 0.00000
vn 0.00000 1.00000 0.00000
vn 0.00000 1.00000 0.00000
vn 0.00000 -1.00000 0.00000
vn 0.00000 -1.00000 0.00000
vn 0.00000 -1.00000 0.00000
vn 0.00000 -1.00000 0.00000
vn 0.00000 1.00000 0.00000
vn 0.00000 1.00000 0.00000
vn 0.00000 1.00000 0.00000
vn 0.00000 1.00000 0.00000
vn 0.00000 -1.00000 0.00000
vn 0.00000 -1.00000 0.00000
vn 0.00000 -1.00000 0.00000
vn 0.00000 -1.00000 0.00000
vn 0.00000 1.00000 0.00000
vn 0.00000 1.00000 0.00000
vn 0.00000 1.00000 0.00000
vn 0.00000 1.00000 0.00000
vn 0.00000 -1.00000 0.00000
vn 0.00000 -1.00000 0.00000
vn 0.00000 -1.00000 0.00000
vn 0.00000 -1.00000 0.00000
vn 0.00000 1.00000 0.00000
vn 0.00000 1.00000 0.00000
vn 0.00000 1.00000 0.00000
vn 0.00000 1.00000 0.00000
vn 0.00000 -1.00000 0.00000
vn 0.00000 -1.00000 0.00000
vn 0.00000 -1.00000 0.00000
vn 0.00000 -1.00000 0.00000
vn 0.00000 1.00000 0.00000
vn 0.00000 1.00000 0.00000
vn 0.00000 1.00000 0.00000
vn 0.00000 1.00000 0.00000
vn 0.00000 -1.00000 0.00000
vn 0.00000 -1.00000 0.00000
vn 0.00000 -1.00000 0.00000
vn 0.00000 -1.00000 0.00000
vn 0.00000 1.00000 0.00000
vn 0.00000 1.00000 0.00000
vn 0.00000 1.00000 0.00000
vn 0.00000 1.00000 0.00000
vn 0.00000 -1.00000 0.00000
vn 0.00000 -1.00000 0.00000
vn 0.00000 -1.00000 0.00000
vn 0.00000 -1.00000 0.00000
vn 0.00000 1.00000 0.00000
vn 0.00000 1.00000 0.00000
vn 0.00000 1.00000 0.00000
vn 0.00000 1.00000 0.00000
vn 0.00000 -1.00000 0.00000
vn 0.00000 -1.00000 0.00000
vn 0.00000 -1.00000 0.00000
vn 0.00000 -1.00000 0.00000
vn 0.00000 1.00000 0.00000
vn 0.00000 1.00000 0.00000
vn 0.00000 1.00000 0.00000
vn 0.00000 1.00000 0.00000
vn 0.00000 -1.00000 0.00000
vn 0.00000 -1.00000 0.00000
vn 0.00000 -1.00000 0.00000
vn 0.00000 -1.00000 0.00000
vn 0.00000 1.00000 0.00000
vn 0.00000 1.00000 0.00000
vn 0.00000 1.00000 0.00000
vn 0.00000 1.00000 0.00000
vn 0.00000 -1.00000 0.00000
vn 0.00000 -1.00000 0.00000
vn 0.00000 -1.00000 0.00000
vn 0.00000 -1.00000 0.00000
vn 0.00000 1.00000 0.00000
vn 0.00000 1.00000 0.00000
vn 0.00000 1.00000 0.00000
vn 0.00000 1.00000 0.00000
vn 0.00000 1.00000 0.00000
vn 0.00000 1.00000 0.00000
vn 0.00000 1.00000 0.00000
vn 0.00000 -1.00000 0.00000
vn 0.00000 -1.00000 0.00000
vn 0.00000 -1.00000 0.00000
vn 0.00000 -1.00000 0.00000
vn 0.00000 -1.00000 0.00000
vn 0.00000 -1.00000 0.00000
vn 0.00000 -1.00000 0.00000
vn 0.00000 1.00000 0.00000
vn 0.00000 1.00000 0.00000
vn 0.00000 1.00000 0.00000
vn 0.00000 1.00000 0.00000
vn 0.00000 1.00000 0.00000
vn 0.00000 1.00000 0.00000
vn 0.00000 1.00000 0.00000
vn 0.00000 -1.00000 0.00000
vn 0.00000 -1.00000 0.00000
vn 0.00000 -1.00000 0.00000
vn 0.00000 -1.00000 0.00000
vn 0.00000 -1.00000 0.00000
vn 0.00000 -1.00000 0.00000
vn 0.00000 -1.00000 0.00000
vn 0.00000 1.00000 0.00000
vn 0.00000 1.00000 0.00000
vn 0.00000 1.00000 0.00000
vn 0.00000 1.00000 0.00000
vn 0.00000 -1.00000 0.00000
vn 0.00000 -1.00000 0.00000
vn 0.00000 -1.00000 0.00000
vn 0.00000 -1.00000 0.00000
vn 0.00000 1.00000 0.00000
vn 0.00000 1.00000 0.00000
vn 0.00000 1.00000 0.00000
vn 0.00000 1.00000 0.00000
vn 0.00000 -1.00000 0.00000
vn 0.00000 -1.00000 0.00000
vn 0.00000 -1.00000 0.00000
vn 0.00000 -1.00000 0.00000
vn 0.00000 1.00000 0.00000
vn 0.00000 1.00000 0.00000
vn 0.00000 1.00000 0.00000
vn 0.00000 1.00000 0.00000
vn 0.00000 -1.00000 0.00000
vn 0.00000 -1.00000 0.00000
vn 0.00000 -1.00000 0.00000
vn 0.00000 -1.00000 0.00000
vn 0.00000 1.00000 0.00000
vn 0.00000 1.00000 0.00000
vn 0.00000 1.00000 0.00000
vn 0.00000 1.00000 0.00000
vn 0.00000 -1.00000 0.00000
vn 0.00000 -1.00000 0.00000
vn 0.00000 -1.00000 0.00000
vn 0.00000 -1.00000 0.00000
vn 0.00000 1.00000 0.00000
vn 0.00000 1.00000 0.00000
vn 0.00000 1.00000 0.00000
vn 0.00000 1.00000 0.00000
vn 0.00000 -1.00000 0.00000
vn 0.00000 -1.00000 0.00000
vn 0.00000 -1.00000 0.00000
vn 0.00000 -1.00000 0.00000
vn 0.00000 1.00000 0.00000
vn 0.00000 1.00000 0.00000
vn 0.00000 1.00000 0.00000
vn 0.00000 1.00000 0.00000
vn 0.00000 -1.00000 0.00000
vn 0.00000 -1.00000 0.00000
vn 0.00000 -1.00000 0.00000
vn 0.00000 -1.00000 0.00000
vn 0.00000 1.00000 0.00000
vn 0.00000 1.00000 0.00000
vn 0.00000 1.00000 0.00000
vn 0.00000 -1.00000 0.00000
vn 0.00000 -1.00000 0.00000
vn 0.00000 -1.00000 0.00000
vn 0.00000 1.00000 0.00000
vn 0.00000 1.00000 0.00000
vn 0.00000 1.00000 0.00000
vn 0.00000 -1.00000 0.00000
vn 0.00000 -1.00000 0.00000
vn 0.00000 -1.00000 0.00000
usemtl ceiling
f 13/13/13 14/14/14 15/15/15 16/16/16
f 29/29/29 30/30/30 31/31/31 32/32/32
f 45/45/45 46/46/46 47/47/47 48/48/48
f 61/61/61 62/62/62 63/63/63 64/64/64
f 77/77/77 78/78/78 79/79/79 80/80/80
f 153/153/153 154/154/154 155/155/155 156/156/156
f 169/169/169 170/170/170 171/171/171 172/172/172
f 185/185/185 186/186/186 187/187/187 188/188/188
f 201/201/201 202/202/202 203/203/203 204/204/204
f 226/226/226 227/227/227 228/228/228 229/229/229
f 230/230/230 231/231/231 232/232/232
f 245/245/245 246/246/246 247/247/247 248/248/248
f 258/258/258 259/259/259 260/260/260
f 297/297/297 298/298/298 299/299/299 300/300/300
f 313/313/313 314/314/314 315/315/315 316/316/316
f 329/329/329 330/330/330 331/331/331 332/332/332
f 345/345/345 346/346/346 347/347/347 348/348/348
f 361/361/361 362/362/362 363/363/363 364/364/364
f 377/377/377 378/378/378 379/379/379 380/380/380
f 402/402/402 403/403/403 404/404/404 405/405/405
f 406/406/406 407/407/407 408/408/408
f 421/421/421 422/422/422 423/423/423 424/424/424
f 437/437/437 438/438/438 439/439/439 440/440/440
f 453/453/453 454/454/454 455/455/455 456/456/456
f 466/466/466 467/467/467 468/468/468
usemtl floor
f 1/1/1 2/2/2 3/3/3 4/4/4
f 17/17/17 18/18/18 19/19/19 20/20/20
f 33/33/33 34/34/34 35/35/35 36/36/36
f 49/49/49 50/50/50 51/51/51 52/52/52
f 65/65/65 66/66/66 67/67/67 68/68/68
f 141/141/141 142/142/142 143/143/143 144/144/144
f 157/157/157 158/158/158 159/159/159 160/160/160
f 173/173/173 174/174/174 175/175/175 176/176/176
f 189/189/189 190/190/190 191/191/191 192/192/192
f 205/205/205 206/206/206 207/207/207 208/208/208
f 209/209/209 210/210/210 211/211/211
f 233/233/233 234/234/234 235/235/235 236/236/236
f 249/249/249 250/250/250 251/251/251
f 285/285/285 286/286/286 287/287/287 288/288/288
f 301/301/301 302/302/302 303/303/303 304/304/304
f 317/317/317 318/318/318 319/319/319 320/320/320
f 333/333/333 334/334/334 335/335/335 336/336/336
f 349/349/349 350/350/350 351/351/351 352/352/352
f 365/365/365 366/366/366 367/367/367 368/368/368
f 381/381/381 382/382/382 383/383/383 384/384/384
f 385/385/385 386/386/386 387/387/387
f 409/409/409 410/410/410 411/411/411 412/412/412
f 425/425/425 426/426/426 427/427/427 428/428/428
f 441/441/441 442/442/442 443/443/443 444/444/444
f 457/457/457 458/458/458 459/459/459
usemtl frame
f 85/85/85 86/86/86 87/87/87 88/88/88
f 89/89/89 90/90/90 91/91/91 92/92/92
f 97/97/97 98/98/98 99/99/99 100/100/100
f 101/101/101 102/102/102 103/103/103 104/104/104
f 109/109/109 110/110/110 111/111/111 112/112/112
f 113/113/113 114/114/114 115/115/115 116/116/116
f 121/121/121 122/122/122 123/123/123 124/124/124
f 125/125/125 126/126/126 127/127/127 128/128/128
f 133/133/133 134/134/134 135/135/135 136/136/136
f 137/137/137 138/138/138 139/139/139 140/140/140
usemtl inner
f 261/261/261 262/262/262 263/263/263 264/264/264
f 265/265/265 266/266/266 267/267/267 268/268/268
f 269/269/269 270/270/270 271/271/271 272/272/272
f 273/273/273 274/274/274 275/275/275 276/276/276
f 277/277/277 278/278/278 279/279/279 280/280/280
f 281/281/281 282/282/282 283/283/283 284/284/284
usemtl roof
f 9/9/9 10/10/10 11/11/11 12/12/12
f 25/25/25 26/26/26 27/27/27 28/28/28
f 41/41/41 42/42/42 43/43/43 44/44/44
f 57/57/57 58/58/58 59/59/59 60/60/60
f 73/73/73 74/74/74 75/75/75 76/76/76
f 149/149/149 150/150/150 151/151/151 152/152/152
f 165/165/165 166/166/166 167/167/167 168/168/168
f 181/181/181 182/182/182 183/183/183 184/184/184
f 197/197/197 198/198/198 199/199/199 200/200/200
f 219/219/219 220/220/220 221/221/221 222/222/222
f 223/223/223 224/224/224 225/225/225
f 241/241/241 242/242/242 243/243/243 244/244/244
f 255/255/255 256/256/256 257/257/257
f 293/293/293 294/294/294 295/295/295 296/296/296
f 309/309/309 310/310/310 311/311/311 312/312/312
f 325/325/325 326/326/326 327/327/327 328/328/328
f 341/341/341 342/342/342 343/343/343 344/344/344
f 357/357/357 358/358/358 359/359/359 360/360/360
f 373/373/373 374/374/374 375/375/375 376/376/376
f 395/395/395 396/396/396 397/397/397 398/398/398
f 399/399/399 400/400/400 401/401/401
f 417/417/417 418/418/418 419/419/419 420/420/420
f 433/433/433 434/434/434 435/435/435 436/436/436
f 449/449/449 450/450/450 451/451/451 452/452/452
f 463/463/463 464/464/464 465/465/465
usemtl skin
f 81/81/81 82/82/82 83/83/83 84/84/84
f 93/93/93 94/94/94 95/95/95 96/96/96
f 105/105/105 106/106/106 107/107/107 108/108/108
f 117/117/117 118/118/118 119/119/119 120/120/120
f 129/129/129 130/130/130 131/131/131 132/132/132
usemtl under
f 5/5/5 6/6/6 7/7/7 8/8/8
f 21/21/21 22/22/22 23/23/23 24/24/24
f 37/37/37 38/38/38 39/39/39 40/40/40
f 53/53/53 54/54/54 55/55/55 56/56/56
f 69/69/69 70/70/70 71/71/71 72/72/72
f 145/145/145 146/146/146 147/147/147 148/148/148
f 161/161/161 162/162/162 163/163/163 164/164/164
f 177/177/177 178/178/178 179/179/179 180/180/180
f 193/193/193 194/194/194 195/195/195 196/196/196
f 212/212/212 213/213/213 214/214/214 215/215/215
f 216/216/216 217/217/217 218/218/218
f 237/237/237 238/238/238 239/239/239 240/240/240
f 252/252/252 253/253/253 254/254/254
f 289/289/289 290/290/290 291/291/291 292/292/292
f 305/305/305 306/306/306 307/307/307 308/308/308
f 321/321/321 322/322/322 323/323/323 324/324/324
f 337/337/337 338/338/338 339/339/339 340/340/340
f 353/353/353 354/354/354 355/355/355 356/356/356
f 369/369/369 370/370/370 371/371/371 372/372/372
f 388/388/388 389/389/389 390/390/390 391/391/391
f 392/392/392 393/393/393 394/394/394
f 413/413/413 414/414/414 415/415/415 416/416/416
f 429/429/429 430/430/430 431/431/431 432/432/432
f 445/445/445 446/446/446 447/447/447 448/448/448
f 460/460/460 461/461/461 462/462/462
