# Generated by dev-env-utils/scripts/gen_transit_airside.py -- do not edit
mtllib jet_bridge_slope.mtl
o airport_jet_bridge_corner_c2
v 0.00000 0.09375 1.00000
v 0.31250 0.09375 1.00000
v 0.31250 0.09375 0.00000
v 0.00000 0.09375 0.00000
v 0.00000 0.00000 0.00000
v 0.31250 0.00000 0.00000
v 0.31250 0.00000 1.00000
v 0.00000 0.00000 1.00000
v 0.00000 1.97500 1.00000
v 0.31250 1.97500 1.00000
v 0.31250 1.97500 0.00000
v 0.00000 1.97500 0.00000
v 0.00000 1.90625 0.00000
v 0.31250 1.90625 0.00000
v 0.31250 1.90625 1.00000
v 0.00000 1.90625 1.00000
v 0.31250 0.09375 1.00000
v 0.68750 0.09375 1.00000
v 0.68750 0.09375 0.00000
v 0.31250 0.09375 0.00000
v 0.31250 0.00000 0.00000
v 0.68750 0.00000 0.00000
v 0.68750 0.00000 1.00000
v 0.31250 0.00000 1.00000
v 0.31250 1.97500 1.00000
v 0.68750 1.97500 1.00000
v 0.68750 1.97500 0.00000
v 0.31250 1.97500 0.00000
v 0.31250 1.90625 0.00000
v 0.68750 1.90625 0.00000
v 0.68750 1.90625 1.00000
v 0.31250 1.90625 1.00000
v 0.68750 0.09375 1.00000
v 1.00000 0.09375 1.00000
v 1.00000 0.09375 0.00000
v 0.68750 0.09375 0.00000
v 0.68750 0.00000 0.00000
v 1.00000 0.00000 0.00000
v 1.00000 0.00000 1.00000
v 0.68750 0.00000 1.00000
v 0.68750 1.97500 1.00000
v 1.00000 1.97500 1.00000
v 1.00000 1.97500 0.00000
v 0.68750 1.97500 0.00000
v 0.68750 1.90625 0.00000
v 1.00000 1.90625 0.00000
v 1.00000 1.90625 1.00000
v 0.68750 1.90625 1.00000
v 1.00000 1.90625 0.00000
v 1.00000 0.09375 0.00000
v 0.00000 0.09375 0.00000
v 0.00000 1.90625 0.00000
v 1.00000 0.09375 0.00000
v 1.00000 0.00000 0.00000
v 0.00000 0.00000 0.00000
v 0.00000 0.09375 0.00000
v 1.00000 1.97500 0.00000
v 1.00000 1.90625 0.00000
v 0.00000 1.90625 0.00000
v 0.00000 1.97500 0.00000
v 0.00000 1.90625 0.09375
v 0.00000 0.09375 0.09375
v 1.00000 0.09375 0.09375
v 1.00000 1.90625 0.09375
vt 0.00000 0.75000
vt 0.07812 0.75000
vt 0.07812 0.50000
vt 0.00000 0.50000
vt 0.00000 0.50000
vt 0.07812 0.50000
vt 0.07812 0.75000
vt 0.00000 0.75000
vt 0.00000 0.75000
vt 0.07812 0.75000
vt 0.07812 0.50000
vt 0.00000 0.50000
vt 0.37500 0.50000
vt 0.45312 0.50000
vt 0.45312 0.75000
vt 0.37500 0.75000
vt 0.07812 0.75000
vt 0.17188 0.75000
vt 0.17188 0.50000
vt 0.07812 0.50000
vt 0.07812 0.50000
vt 0.17188 0.50000
vt 0.17188 0.75000
vt 0.07812 0.75000
vt 0.07812 0.75000
vt 0.17188 0.75000
vt 0.17188 0.50000
vt 0.07812 0.50000
vt 0.45312 0.50000
vt 0.54688 0.50000
vt 0.54688 0.75000
vt 0.45312 0.75000
vt 0.17188 0.75000
vt 0.25000 0.75000
vt 0.25000 0.50000
vt 0.17188 0.50000
vt 0.17188 0.50000
vt 0.25000 0.50000
vt 0.25000 0.75000
vt 0.17188 0.75000
vt 0.17188 0.75000
vt 0.25000 0.75000
vt 0.25000 0.50000
vt 0.17188 0.50000
vt 0.54688 0.50000
vt 0.62500 0.50000
vt 0.62500 0.75000
vt 0.54688 0.75000
vt 0.50000 0.00000
vt 0.50000 0.90625
vt 0.00000 0.90625
vt 0.00000 0.00000
vt 1.00000 0.00000
vt 1.00000 0.09375
vt 0.00000 0.09375
vt 0.00000 0.00000
vt 1.00000 0.00000
vt 1.00000 0.09375
vt 0.00000 0.09375
vt 0.00000 0.00000
vt 0.00000 0.00000
vt 0.00000 0.90625
vt 0.50000 0.90625
vt 0.50000 0.00000
vn 0.00000 1.00000 0.00000
vn 0.00000 1.00000 0.00000
vn 0.00000 1.00000 0.00000
vn 0.00000 1.00000 0.00000
vn 0.00000 -1.00000 0.00000
vn 0.00000 -1.00000 0.00000
vn 0.00000 -1.00000 0.00000
vn 0.00000 -1.00000 0.00000
vn 0.00000 1.00000 0.00000
vn 0.00000 1.00000 0.00000
vn 0.00000 1.00000 0.00000
vn 0.00000 1.00000 0.00000
vn 0.00000 -1.00000 0.00000
vn 0.00000 -1.00000 0.00000
vn 0.00000 -1.00000 0.00000
vn 0.00000 -1.00000 0.00000
vn 0.00000 1.00000 0.00000
vn 0.00000 1.00000 0.00000
vn 0.00000 1.00000 0.00000
vn 0.00000 1.00000 0.00000
vn 0.00000 -1.00000 0.00000
vn 0.00000 -1.00000 0.00000
vn 0.00000 -1.00000 0.00000
vn 0.00000 -1.00000 0.00000
vn 0.00000 1.00000 0.00000
vn 0.00000 1.00000 0.00000
vn 0.00000 1.00000 0.00000
vn 0.00000 1.00000 0.00000
vn 0.00000 -1.00000 0.00000
vn 0.00000 -1.00000 0.00000
vn 0.00000 -1.00000 0.00000
vn 0.00000 -1.00000 0.00000
vn 0.00000 1.00000 0.00000
vn 0.00000 1.00000 0.00000
vn 0.00000 1.00000 0.00000
vn 0.00000 1.00000 0.00000
vn 0.00000 -1.00000 0.00000
vn 0.00000 -1.00000 0.00000
vn 0.00000 -1.00000 0.00000
vn 0.00000 -1.00000 0.00000
vn 0.00000 1.00000 0.00000
vn 0.00000 1.00000 0.00000
vn 0.00000 1.00000 0.00000
vn 0.00000 1.00000 0.00000
vn 0.00000 -1.00000 0.00000
vn 0.00000 -1.00000 0.00000
vn 0.00000 -1.00000 0.00000
vn 0.00000 -1.00000 0.00000
vn 0.00000 0.00000 -1.00000
vn 0.00000 0.00000 -1.00000
vn 0.00000 0.00000 -1.00000
vn 0.00000 0.00000 -1.00000
vn 0.00000 0.00000 -1.00000
vn 0.00000 0.00000 -1.00000
vn 0.00000 0.00000 -1.00000
vn 0.00000 0.00000 -1.00000
vn 0.00000 0.00000 -1.00000
vn 0.00000 0.00000 -1.00000
vn 0.00000 0.00000 -1.00000
vn 0.00000 0.00000 -1.00000
vn -0.00000 0.00000 1.00000
vn -0.00000 0.00000 1.00000
vn -0.00000 0.00000 1.00000
vn -0.00000 0.00000 1.00000
usemtl ceiling
f 13/13/13 14/14/14 15/15/15 16/16/16
f 29/29/29 30/30/30 31/31/31 32/32/32
f 45/45/45 46/46/46 47/47/47 48/48/48
usemtl floor
f 1/1/1 2/2/2 3/3/3 4/4/4
f 17/17/17 18/18/18 19/19/19 20/20/20
f 33/33/33 34/34/34 35/35/35 36/36/36
usemtl frame
f 53/53/53 54/54/54 55/55/55 56/56/56
f 57/57/57 58/58/58 59/59/59 60/60/60
usemtl inner
f 61/61/61 62/62/62 63/63/63 64/64/64
usemtl roof
f 9/9/9 10/10/10 11/11/11 12/12/12
f 25/25/25 26/26/26 27/27/27 28/28/28
f 41/41/41 42/42/42 43/43/43 44/44/44
usemtl skin
f 49/49/49 50/50/50 51/51/51 52/52/52
usemtl under
f 5/5/5 6/6/6 7/7/7 8/8/8
f 21/21/21 22/22/22 23/23/23 24/24/24
f 37/37/37 38/38/38 39/39/39 40/40/40
