# Generated by dev-env-utils/scripts/gen_transit_airside.py -- do not edit
mtllib jet_bridge_large.mtl
o airport_jet_bridge_large_uturn_c1
v 0.08825 0.09375 1.00000
v 0.00000 0.09375 0.87498
v 0.00000 0.09375 1.00000
v 0.00000 0.00000 1.00000
v 0.00000 0.00000 0.87498
v 0.08825 0.00000 1.00000
v 0.08825 4.24547 1.00000
v 0.00000 4.24547 0.87498
v 0.00000 4.24547 1.00000
v 0.00000 4.09375 1.00000
v 0.00000 4.09375 0.87498
v 0.08825 4.09375 1.00000
v 0.28377 0.09375 1.00000
v 0.00000 0.09375 0.53336
v 0.00000 0.09375 0.87498
v 0.08825 0.09375 1.00000
v 0.08825 0.00000 1.00000
v 0.00000 0.00000 0.87498
v 0.00000 0.00000 0.53336
v 0.28377 0.00000 1.00000
v 0.28377 4.24547 1.00000
v 0.00000 4.24547 0.53336
v 0.00000 4.24547 0.87498
v 0.08825 4.24547 1.00000
v 0.08825 4.09375 1.00000
v 0.00000 4.09375 0.87498
v 0.00000 4.09375 0.53336
v 0.28377 4.09375 1.00000
v 0.46368 0.09375 1.00000
v 0.00000 0.09375 0.10513
v 0.00000 0.09375 0.53336
v 0.28377 0.09375 1.00000
v 0.28377 0.00000 1.00000
v 0.00000 0.00000 0.53336
v 0.00000 0.00000 0.10513
v 0.46368 0.00000 1.00000
v 0.46368 4.24547 1.00000
v 0.00000 4.24547 0.10513
v 0.00000 4.24547 0.53336
v 0.28377 4.24547 1.00000
v 0.28377 4.09375 1.00000
v 0.00000 4.09375 0.53336
v 0.00000 4.09375 0.10513
v 0.46368 4.09375 1.00000
v 0.12995 0.09375 0.00000
v 0.00000 0.09375 0.00000
v 0.00000 0.09375 0.10513
v 0.46368 0.09375 1.00000
v 0.58663 0.09375 1.00000
v 0.12995 0.09375 0.00000
v 0.46368 0.09375 1.00000
v 0.46368 0.00000 1.00000
v 0.00000 0.00000 0.10513
v 0.00000 0.00000 0.00000
v 0.12995 0.00000 0.00000
v 0.46368 0.00000 1.00000
v 0.12995 0.00000 0.00000
v 0.58663 0.00000 1.00000
v 0.12995 4.24547 0.00000
v 0.00000 4.24547 0.00000
v 0.00000 4.24547 0.10513
v 0.46368 4.24547 1.00000
v 0.58663 4.24547 1.00000
v 0.12995 4.24547 0.00000
v 0.46368 4.24547 1.00000
v 0.46368 4.09375 1.00000
v 0.00000 4.09375 0.10513
v 0.00000 4.09375 0.00000
v 0.12995 4.09375 0.00000
v 0.46368 4.09375 1.00000
v 0.12995 4.09375 0.00000
v 0.58663 4.09375 1.00000
v 0.63128 0.09375 1.00000
v 0.19692 0.09375 0.00000
v 0.12995 0.09375 0.00000
v 0.58663 0.09375 1.00000
v 0.58663 0.00000 1.00000
v 0.12995 0.00000 0.00000
v 0.19692 0.00000 0.00000
v 0.63128 0.00000 1.00000
v 0.63128 4.24547 1.00000
v 0.19692 4.24547 0.00000
v 0.12995 4.24547 0.00000
v 0.58663 4.24547 1.00000
v 0.58663 4.09375 1.00000
v 0.12995 4.09375 0.00000
v 0.19692 4.09375 0.00000
v 0.63128 4.09375 1.00000
v 0.78920 0.09375 1.00000
v 0.43380 0.09375 0.00000
v 0.19692 0.09375 0.00000
v 0.63128 0.09375 1.00000
v 0.63128 0.00000 1.00000
v 0.19692 0.00000 0.00000
v 0.43380 0.00000 0.00000
v 0.78920 0.00000 1.00000
v 0.78920 4.24547 1.00000
v 0.43380 4.24547 0.00000
v 0.19692 4.24547 0.00000
v 0.63128 4.24547 1.00000
v 0.63128 4.09375 1.00000
v 0.19692 4.09375 0.00000
v 0.43380 4.09375 0.00000
v 0.78920 4.09375 1.00000
v 0.93963 0.09375 1.00000
v 0.65944 0.09375 0.00000
v 0.43380 0.09375 0.00000
v 0.78920 0.09375 1.00000
v 0.78920 0.00000 1.00000
v 0.43380 0.00000 0.00000
v 0.65944 0.00000 0.00000
v 0.93963 0.00000 1.00000
v 0.93963 4.24547 1.00000
v 0.65944 4.24547 0.00000
v 0.43380 4.24547 0.00000
v 0.78920 4.24547 1.00000
v 0.78920 4.09375 1.00000
v 0.43380 4.09375 0.00000
v 0.65944 4.09375 0.00000
v 0.93963 4.09375 1.00000
v 1.00000 0.09375 0.59387
v 0.87659 0.09375 0.00000
v 0.65944 0.09375 0.00000
v 0.93963 0.09375 1.00000
v 1.00000 0.09375 1.00000
v 1.00000 0.09375 0.59387
v 0.93963 0.09375 1.00000
v 0.93963 0.00000 1.00000
v 0.65944 0.00000 0.00000
v 0.87659 0.00000 0.00000
v 1.00000 0.00000 0.59387
v 0.93963 0.00000 1.00000
v 1.00000 0.00000 0.59387
v 1.00000 0.00000 1.00000
v 1.00000 4.24547 0.59387
v 0.87659 4.24547 0.00000
v 0.65944 4.24547 0.00000
v 0.93963 4.24547 1.00000
v 1.00000 4.24547 1.00000
v 1.00000 4.24547 0.59387
v 0.93963 4.24547 1.00000
v 0.93963 4.09375 1.00000
v 0.65944 4.09375 0.00000
v 0.87659 4.09375 0.00000
v 1.00000 4.09375 0.59387
v 0.93963 4.09375 1.00000
v 1.00000 4.09375 0.59387
v 1.00000 4.09375 1.00000
v 1.00000 0.09375 0.00000
v 0.87659 0.09375 0.00000
v 1.00000 0.09375 0.59387
v 1.00000 0.00000 0.59387
v 0.87659 0.00000 0.00000
v 1.00000 0.00000 0.00000
v 1.00000 4.24547 0.00000
v 0.87659 4.24547 0.00000
v 1.00000 4.24547 0.59387
v 1.00000 4.09375 0.59387
v 0.87659 4.09375 0.00000
v 1.00000 4.09375 0.00000
v -0.32434 0.09375 0.00000
v -0.39917 0.09375 -0.12305
v -0.58678 0.09375 0.00000
v -0.58678 0.00000 0.00000
v -0.39917 0.00000 -0.12305
v -0.32434 0.00000 0.00000
v -0.32434 4.24547 0.00000
v -0.39917 4.24547 -0.12305
v -0.58678 4.24547 0.00000
v -0.58678 4.09375 0.00000
v -0.39917 4.09375 -0.12305
v -0.32434 4.09375 0.00000
v -0.05447 0.09375 0.00000
v -0.18162 0.09375 -0.24538
v -0.39917 0.09375 -0.12305
v -0.32434 0.09375 0.00000
v -0.32434 0.00000 0.00000
v -0.39917 0.00000 -0.12305
v -0.18162 0.00000 -0.24538
v -0.05447 0.00000 0.00000
v -0.05447 4.24547 0.00000
v -0.18162 4.24547 -0.24538
v -0.39917 4.24547 -0.12305
v -0.32434 4.24547 0.00000
v -0.32434 4.09375 0.00000
v -0.39917 4.09375 -0.12305
v -0.18162 4.09375 -0.24538
v -0.05447 4.09375 0.00000
v 0.00000 0.09375 -0.28454
v -0.01841 0.09375 -0.32486
v -0.18162 0.09375 -0.24538
v -0.05447 0.09375 0.00000
v 0.00000 0.09375 0.00000
v 0.00000 0.09375 -0.28454
v -0.05447 0.09375 0.00000
v -0.05447 0.00000 0.00000
v -0.18162 0.00000 -0.24538
v -0.01841 0.00000 -0.32486
v 0.00000 0.00000 -0.28454
v -0.05447 0.00000 0.00000
v 0.00000 0.00000 -0.28454
v 0.00000 0.00000 0.00000
v 0.00000 4.24547 -0.28454
v -0.01841 4.24547 -0.32486
v -0.18162 4.24547 -0.24538
v -0.05447 4.24547 0.00000
v 0.00000 4.24547 0.00000
v 0.00000 4.24547 -0.28454
v -0.05447 4.24547 0.00000
v -0.05447 4.09375 0.00000
v -0.18162 4.09375 -0.24538
v -0.01841 4.09375 -0.32486
v 0.00000 4.09375 -0.28454
v -0.05447 4.09375 0.00000
v 0.00000 4.09375 -0.28454
v 0.00000 4.09375 0.00000
v 0.00000 0.09375 -0.33307
v -0.01841 0.09375 -0.32486
v 0.00000 0.09375 -0.28454
v 0.00000 0.00000 -0.28454
v -0.01841 0.00000 -0.32486
v 0.00000 0.00000 -0.33307
v 0.00000 4.24547 -0.33307
v -0.01841 4.24547 -0.32486
v 0.00000 4.24547 -0.28454
v 0.00000 4.09375 -0.28454
v -0.01841 4.09375 -0.32486
v 0.00000 4.09375 -0.33307
v -0.58678 4.09375 0.00000
v -0.39917 4.09375 -0.12305
v -0.39917 0.09375 -0.12305
v -0.58678 0.09375 0.00000
v -0.58678 0.09375 0.00000
v -0.39917 0.09375 -0.12305
v -0.39917 0.00000 -0.12305
v -0.58678 0.00000 0.00000
v -0.58678 4.24547 0.00000
v -0.39917 4.24547 -0.12305
v -0.39917 4.09375 -0.12305
v -0.58678 4.09375 0.00000
v -0.18162 4.09375 -0.24538
v -0.18162 0.09375 -0.24538
v -0.39917 0.09375 -0.12305
v -0.39917 4.09375 -0.12305
v -0.18162 0.09375 -0.24538
v -0.18162 0.00000 -0.24538
v -0.39917 0.00000 -0.12305
v -0.39917 0.09375 -0.12305
v -0.18162 4.24547 -0.24538
v -0.18162 4.09375 -0.24538
v -0.39917 4.09375 -0.12305
v -0.39917 4.24547 -0.12305
v -0.30159 0.09375 0.00000
v -0.11023 0.09375 -0.10760
v -0.11023 4.09375 -0.10760
v -0.30159 4.09375 0.00000
v -0.01841 4.09375 -0.32486
v -0.01841 0.09375 -0.32486
v -0.18162 0.09375 -0.24538
v -0.18162 4.09375 -0.24538
v -0.01841 0.09375 -0.32486
v -0.01841 0.00000 -0.32486
v -0.18162 0.00000 -0.24538
v -0.18162 0.09375 -0.24538
v -0.01841 4.24547 -0.32486
v -0.01841 4.09375 -0.32486
v -0.18162 4.09375 -0.24538
v -0.18162 4.24547 -0.24538
v -0.11023 4.09375 -0.10760
v -0.11023 0.09375 -0.10760
v 0.00000 0.09375 -0.16128
v 0.00000 4.09375 -0.16128
v 0.00000 4.09375 -0.33307
v 0.00000 0.09375 -0.33307
v -0.01841 0.09375 -0.32486
v -0.01841 4.09375 -0.32486
v 0.00000 0.09375 -0.33307
v 0.00000 0.00000 -0.33307
v -0.01841 0.00000 -0.32486
v -0.01841 0.09375 -0.32486
v 0.00000 4.24547 -0.33307
v 0.00000 4.09375 -0.33307
v -0.01841 4.09375 -0.32486
v -0.01841 4.24547 -0.32486
v 0.12995 0.09375 0.00000
v 0.00000 0.09375 -0.28454
v 0.00000 0.09375 0.00000
v 0.00000 0.00000 0.00000
v 0.00000 0.00000 -0.28454
v 0.12995 0.00000 0.00000
v 0.12995 4.24547 0.00000
v 0.00000 4.24547 -0.28454
v 0.00000 4.24547 0.00000
v 0.00000 4.09375 0.00000
v 0.00000 4.09375 -0.28454
v 0.12995 4.09375 0.00000
v 0.04377 0.09375 -0.35257
v 0.00000 0.09375 -0.33307
v 0.00000 0.09375 -0.28454
v 0.12995 0.09375 0.00000
v 0.19692 0.09375 0.00000
v 0.04377 0.09375 -0.35257
v 0.12995 0.09375 0.00000
v 0.12995 0.00000 0.00000
v 0.00000 0.00000 -0.28454
v 0.00000 0.00000 -0.33307
v 0.04377 0.00000 -0.35257
v 0.12995 0.00000 0.00000
v 0.04377 0.00000 -0.35257
v 0.19692 0.00000 0.00000
v 0.04377 4.24547 -0.35257
v 0.00000 4.24547 -0.33307
v 0.00000 4.24547 -0.28454
v 0.12995 4.24547 0.00000
v 0.19692 4.24547 0.00000
v 0.04377 4.24547 -0.35257
v 0.12995 4.24547 0.00000
v 0.12995 4.09375 0.00000
v 0.00000 4.09375 -0.28454
v 0.00000 4.09375 -0.33307
v 0.04377 4.09375 -0.35257
v 0.12995 4.09375 0.00000
v 0.04377 4.09375 -0.35257
v 0.19692 4.09375 0.00000
v 0.43380 0.09375 0.00000
v 0.27596 0.09375 -0.44413
v 0.04377 0.09375 -0.35257
v 0.19692 0.09375 0.00000
v 0.19692 0.00000 0.00000
v 0.04377 0.00000 -0.35257
v 0.27596 0.00000 -0.44413
v 0.43380 0.00000 0.00000
v 0.43380 4.24547 0.00000
v 0.27596 4.24547 -0.44413
v 0.04377 4.24547 -0.35257
v 0.19692 4.24547 0.00000
v 0.19692 4.09375 0.00000
v 0.04377 4.09375 -0.35257
v 0.27596 4.09375 -0.44413
v 0.43380 4.09375 0.00000
v 0.65944 0.09375 0.00000
v 0.51385 0.09375 -0.51963
v 0.27596 0.09375 -0.44413
v 0.43380 0.09375 0.00000
v 0.43380 0.00000 0.00000
v 0.27596 0.00000 -0.44413
v 0.51385 0.00000 -0.51963
v 0.65944 0.00000 0.00000
v 0.65944 4.24547 0.00000
v 0.51385 4.24547 -0.51963
v 0.27596 4.24547 -0.44413
v 0.43380 4.24547 0.00000
v 0.43380 4.09375 0.00000
v 0.27596 4.09375 -0.44413
v 0.51385 4.09375 -0.51963
v 0.65944 4.09375 0.00000
v 0.87659 0.09375 0.00000
v 0.75633 0.09375 -0.57872
v 0.51385 0.09375 -0.51963
v 0.65944 0.09375 0.00000
v 0.65944 0.00000 0.00000
v 0.51385 0.00000 -0.51963
v 0.75633 0.00000 -0.57872
v 0.87659 0.00000 0.00000
v 0.87659 4.24547 0.00000
v 0.75633 4.24547 -0.57872
v 0.51385 4.24547 -0.51963
v 0.65944 4.24547 0.00000
v 0.65944 4.09375 0.00000
v 0.51385 4.09375 -0.51963
v 0.75633 4.09375 -0.57872
v 0.87659 4.09375 0.00000
v 1.00000 0.09375 -0.47758
v 0.97981 0.09375 -0.61797
v 0.75633 0.09375 -0.57872
v 0.87659 0.09375 0.00000
v 1.00000 0.09375 0.00000
v 1.00000 0.09375 -0.47758
v 0.87659 0.09375 0.00000
v 0.87659 0.00000 0.00000
v 0.75633 0.00000 -0.57872
v 0.97981 0.00000 -0.61797
v 1.00000 0.00000 -0.47758
v 0.87659 0.00000 0.00000
v 1.00000 0.00000 -0.47758
v 1.00000 0.00000 0.00000
v 1.00000 4.24547 -0.47758
v 0.97981 4.24547 -0.61797
v 0.75633 4.24547 -0.57872
v 0.87659 4.24547 0.00000
v 1.00000 4.24547 0.00000
v 1.00000 4.24547 -0.47758
v 0.87659 4.24547 0.00000
v 0.87659 4.09375 0.00000
v 0.75633 4.09375 -0.57872
v 0.97981 4.09375 -0.61797
v 1.00000 4.09375 -0.47758
v 0.87659 4.09375 0.00000
v 1.00000 4.09375 -0.47758
v 1.00000 4.09375 0.00000
v 1.00000 0.09375 -0.62081
v 0.97981 0.09375 -0.61797
v 1.00000 0.09375 -0.47758
v 1.00000 0.00000 -0.47758
v 0.97981 0.00000 -0.61797
v 1.00000 0.00000 -0.62081
v 1.00000 4.24547 -0.62081
v 0.97981 4.24547 -0.61797
v 1.00000 4.24547 -0.47758
v 1.00000 4.09375 -0.47758
v 0.97981 4.09375 -0.61797
v 1.00000 4.09375 -0.62081
v 0.00000 0.09375 -0.16128
v 0.04605 0.09375 -0.18371
v 0.04605 4.09375 -0.18371
v 0.00000 4.09375 -0.16128
v 0.00000 4.09375 -0.33307
v 0.04377 4.09375 -0.35257
v 0.04377 0.09375 -0.35257
v 0.00000 0.09375 -0.33307
v 0.00000 0.09375 -0.33307
v 0.04377 0.09375 -0.35257
v 0.04377 0.00000 -0.35257
v 0.00000 0.00000 -0.33307
v 0.00000 4.24547 -0.33307
v 0.04377 4.24547 -0.35257
v 0.04377 4.09375 -0.35257
v 0.00000 4.09375 -0.33307
v 0.04605 4.09375 -0.18371
v 0.04605 0.09375 -0.18371
v 0.10560 0.09375 -0.21024
v 0.10560 4.09375 -0.21024
v 0.27596 4.09375 -0.44413
v 0.27596 0.09375 -0.44413
v 0.04377 0.09375 -0.35257
v 0.04377 4.09375 -0.35257
v 0.27596 0.09375 -0.44413
v 0.27596 0.00000 -0.44413
v 0.04377 0.00000 -0.35257
v 0.04377 0.09375 -0.35257
v 0.27596 4.24547 -0.44413
v 0.27596 4.09375 -0.44413
v 0.04377 4.09375 -0.35257
v 0.04377 4.24547 -0.35257
v 0.10560 4.09375 -0.21024
v 0.10560 0.09375 -0.21024
v 0.32792 0.09375 -0.29791
v 0.32792 4.09375 -0.29791
v 0.51385 4.09375 -0.51963
v 0.51385 0.09375 -0.51963
v 0.27596 0.09375 -0.44413
v 0.27596 4.09375 -0.44413
v 0.51385 0.09375 -0.51963
v 0.51385 0.00000 -0.51963
v 0.27596 0.00000 -0.44413
v 0.27596 0.09375 -0.44413
v 0.51385 4.24547 -0.51963
v 0.51385 4.09375 -0.51963
v 0.27596 4.09375 -0.44413
v 0.27596 4.24547 -0.44413
v 0.32792 4.09375 -0.29791
v 0.32792 0.09375 -0.29791
v 0.55571 0.09375 -0.37021
v 0.55571 4.09375 -0.37021
v 0.75633 4.09375 -0.57872
v 0.75633 0.09375 -0.57872
v 0.51385 0.09375 -0.51963
v 0.51385 4.09375 -0.51963
v 0.75633 0.09375 -0.57872
v 0.75633 0.00000 -0.57872
v 0.51385 0.00000 -0.51963
v 0.51385 0.09375 -0.51963
v 0.75633 4.24547 -0.57872
v 0.75633 4.09375 -0.57872
v 0.51385 4.09375 -0.51963
v 0.51385 4.24547 -0.51963
v 0.55571 4.09375 -0.37021
v 0.55571 0.09375 -0.37021
v 0.78790 0.09375 -0.42679
v 0.78790 4.09375 -0.42679
v 0.97981 4.09375 -0.61797
v 0.97981 0.09375 -0.61797
v 0.75633 0.09375 -0.57872
v 0.75633 4.09375 -0.57872
v 0.97981 0.09375 -0.61797
v 0.97981 0.00000 -0.61797
v 0.75633 0.00000 -0.57872
v 0.75633 0.09375 -0.57872
v 0.97981 4.24547 -0.61797
v 0.97981 4.09375 -0.61797
v 0.75633 4.09375 -0.57872
v 0.75633 4.24547 -0.57872
v 0.78790 4.09375 -0.42679
v 0.78790 0.09375 -0.42679
v 1.00000 0.09375 -0.46404
v 1.00000 4.09375 -0.46404
v 1.00000 4.09375 -0.62081
v 1.00000 0.09375 -0.62081
v 0.97981 0.09375 -0.61797
v 0.97981 4.09375 -0.61797
v 1.00000 0.09375 -0.62081
v 1.00000 0.00000 -0.62081
v 0.97981 0.00000 -0.61797
v 0.97981 0.09375 -0.61797
v 1.00000 4.24547 -0.62081
v 1.00000 4.09375 -0.62081
v 0.97981 4.09375 -0.61797
v 0.97981 4.24547 -0.61797
vt 0.27206 0.75000
vt 0.25000 0.71875
vt 0.25000 0.75000
vt 0.25000 0.75000
vt 0.25000 0.71875
vt 0.27206 0.75000
vt 0.27206 0.75000
vt 0.25000 0.71875
vt 0.25000 0.75000
vt 0.32552 0.46365
vt 0.34079 0.47807
vt 0.31768 0.47807
vt 0.32094 0.75000
vt 0.25000 0.63334
vt 0.25000 0.71875
vt 0.27206 0.75000
vt 0.27206 0.75000
vt 0.25000 0.71875
vt 0.25000 0.63334
vt 0.32094 0.75000
vt 0.32094 0.75000
vt 0.25000 0.63334
vt 0.25000 0.71875
vt 0.27206 0.75000
vt 0.31768 0.47807
vt 0.34079 0.47807
vt 0.38396 0.51222
vt 0.30147 0.51222
vt 0.36592 0.75000
vt 0.25000 0.52628
vt 0.25000 0.63334
vt 0.32094 0.75000
vt 0.32094 0.75000
vt 0.25000 0.63334
vt 0.25000 0.52628
vt 0.36592 0.75000
vt 0.36592 0.75000
vt 0.25000 0.52628
vt 0.25000 0.63334
vt 0.32094 0.75000
vt 0.30147 0.01222
vt 0.38396 0.01222
vt 0.44037 0.04636
vt 0.28814 0.04636
vt 0.28249 0.50000
vt 0.25000 0.50000
vt 0.25000 0.52628
vt 0.36592 0.75000
vt 0.39666 0.75000
vt 0.28249 0.50000
vt 0.36592 0.75000
vt 0.36592 0.75000
vt 0.25000 0.52628
vt 0.25000 0.50000
vt 0.28249 0.50000
vt 0.36592 0.75000
vt 0.28249 0.50000
vt 0.39666 0.75000
vt 0.28249 0.50000
vt 0.25000 0.50000
vt 0.25000 0.52628
vt 0.36592 0.75000
vt 0.39666 0.75000
vt 0.28249 0.50000
vt 0.36592 0.75000
vt 0.28814 0.04636
vt 0.44037 0.04636
vt 0.45453 0.05357
vt 0.44606 0.07120
vt 0.28814 0.04636
vt 0.44606 0.07120
vt 0.28001 0.07120
vt 0.40782 0.75000
vt 0.29923 0.50000
vt 0.28249 0.50000
vt 0.39666 0.75000
vt 0.39666 0.75000
vt 0.28249 0.50000
vt 0.29923 0.50000
vt 0.40782 0.75000
vt 0.40782 0.75000
vt 0.29923 0.50000
vt 0.28249 0.50000
vt 0.39666 0.75000
vt 0.28001 0.07120
vt 0.44606 0.07120
vt 0.44194 0.08051
vt 0.27727 0.08051
vt 0.44730 0.75000
vt 0.35845 0.50000
vt 0.29923 0.50000
vt 0.40782 0.75000
vt 0.40782 0.75000
vt 0.29923 0.50000
vt 0.35845 0.50000
vt 0.44730 0.75000
vt 0.44730 0.75000
vt 0.35845 0.50000
vt 0.29923 0.50000
vt 0.40782 0.75000
vt 0.27727 0.08051
vt 0.44194 0.08051
vt 0.42881 0.11466
vt 0.26851 0.11466
vt 0.48491 0.75000
vt 0.41486 0.50000
vt 0.35845 0.50000
vt 0.44730 0.75000
vt 0.44730 0.75000
vt 0.35845 0.50000
vt 0.41486 0.50000
vt 0.48491 0.75000
vt 0.48491 0.75000
vt 0.41486 0.50000
vt 0.35845 0.50000
vt 0.44730 0.75000
vt 0.26851 0.11466
vt 0.42881 0.11466
vt 0.41849 0.14881
vt 0.26163 0.14881
vt 0.50000 0.64847
vt 0.46915 0.50000
vt 0.41486 0.50000
vt 0.48491 0.75000
vt 0.50000 0.75000
vt 0.50000 0.64847
vt 0.48491 0.75000
vt 0.48491 0.75000
vt 0.41486 0.50000
vt 0.46915 0.50000
vt 0.50000 0.64847
vt 0.48491 0.75000
vt 0.50000 0.64847
vt 0.50000 0.75000
vt 0.50000 0.64847
vt 0.46915 0.50000
vt 0.41486 0.50000
vt 0.48491 0.75000
vt 0.50000 0.75000
vt 0.50000 0.64847
vt 0.48491 0.75000
vt 0.26163 0.14881
vt 0.41849 0.14881
vt 0.41072 0.18295
vt 0.31911 0.18295
vt 0.26163 0.14881
vt 0.31911 0.18295
vt 0.25930 0.16291
vt 0.50000 0.50000
vt 0.46915 0.50000
vt 0.50000 0.64847
vt 0.50000 0.64847
vt 0.46915 0.50000
vt 0.50000 0.50000
vt 0.50000 0.50000
vt 0.46915 0.50000
vt 0.50000 0.64847
vt 0.31911 0.18295
vt 0.41072 0.18295
vt 0.40729 0.20282
vt 0.16891 0.50000
vt 0.15021 0.46924
vt 0.10331 0.50000
vt 0.10331 0.50000
vt 0.15021 0.46924
vt 0.16891 0.50000
vt 0.16891 0.50000
vt 0.15021 0.46924
vt 0.10331 0.50000
vt 0.49988 0.48152
vt 0.50000 0.51222
vt 0.47825 0.51222
vt 0.23638 0.50000
vt 0.20460 0.43866
vt 0.15021 0.46924
vt 0.16891 0.50000
vt 0.16891 0.50000
vt 0.15021 0.46924
vt 0.20460 0.43866
vt 0.23638 0.50000
vt 0.23638 0.50000
vt 0.20460 0.43866
vt 0.15021 0.46924
vt 0.16891 0.50000
vt 0.47825 0.01222
vt 0.50000 0.01222
vt 0.50000 0.04636
vt 0.45826 0.04636
vt 0.25000 0.42886
vt 0.24540 0.41878
vt 0.20460 0.43866
vt 0.23638 0.50000
vt 0.25000 0.50000
vt 0.25000 0.42886
vt 0.23638 0.50000
vt 0.23638 0.50000
vt 0.20460 0.43866
vt 0.24540 0.41878
vt 0.25000 0.42886
vt 0.23638 0.50000
vt 0.25000 0.42886
vt 0.25000 0.50000
vt 0.25000 0.42886
vt 0.24540 0.41878
vt 0.20460 0.43866
vt 0.23638 0.50000
vt 0.25000 0.50000
vt 0.25000 0.42886
vt 0.23638 0.50000
vt 0.45826 0.04636
vt 0.50000 0.04636
vt 0.50000 0.07120
vt 0.49330 0.07120
vt 0.45826 0.04636
vt 0.49330 0.07120
vt 0.45453 0.05357
vt 0.25000 0.41673
vt 0.24540 0.41878
vt 0.25000 0.42886
vt 0.25000 0.42886
vt 0.24540 0.41878
vt 0.25000 0.41673
vt 0.25000 0.41673
vt 0.24540 0.41878
vt 0.25000 0.42886
vt 0.49330 0.07120
vt 0.50000 0.07120
vt 0.49998 0.07396
vt 0.18600 0.00000
vt 0.29348 0.00000
vt 0.29348 0.90625
vt 0.18600 0.90625
vt 0.37199 0.00000
vt 0.58695 0.00000
vt 0.58695 0.09375
vt 0.37199 0.09375
vt 0.37199 0.00000
vt 0.58695 0.00000
vt 0.58695 0.09375
vt 0.37199 0.09375
vt 0.41304 0.00000
vt 0.41304 0.90625
vt 0.29348 0.90625
vt 0.29348 0.00000
vt 0.82608 0.00000
vt 0.82608 0.09375
vt 0.58695 0.09375
vt 0.58695 0.00000
vt 0.82608 0.00000
vt 0.82608 0.09375
vt 0.58695 0.09375
vt 0.58695 0.00000
vt 0.30321 0.90625
vt 0.41304 0.90625
vt 0.41304 0.00000
vt 0.30321 0.00000
vt 0.50000 0.00000
vt 0.50000 0.90625
vt 0.41304 0.90625
vt 0.41304 0.00000
vt 1.00000 0.00000
vt 1.00000 0.09375
vt 0.82608 0.09375
vt 0.82608 0.00000
vt 1.00000 0.00000
vt 1.00000 0.09375
vt 0.82608 0.09375
vt 0.82608 0.00000
vt 0.41304 0.00000
vt 0.41304 0.90625
vt 0.47438 0.90625
vt 0.47438 0.00000
vt 0.00966 0.00000
vt 0.00966 0.90625
vt 0.00000 0.90625
vt 0.00000 0.00000
vt 0.01931 0.00000
vt 0.01931 0.09375
vt 0.00000 0.09375
vt 0.00000 0.00000
vt 0.01931 0.00000
vt 0.01931 0.09375
vt 0.00000 0.09375
vt 0.00000 0.00000
vt 0.28249 0.50000
vt 0.25000 0.42886
vt 0.25000 0.50000
vt 0.25000 0.50000
vt 0.25000 0.42886
vt 0.28249 0.50000
vt 0.28249 0.50000
vt 0.25000 0.42886
vt 0.25000 0.50000
vt 0.45453 0.05357
vt 0.49330 0.07120
vt 0.44606 0.07120
vt 0.26094 0.41186
vt 0.25000 0.41673
vt 0.25000 0.42886
vt 0.28249 0.50000
vt 0.29923 0.50000
vt 0.26094 0.41186
vt 0.28249 0.50000
vt 0.28249 0.50000
vt 0.25000 0.42886
vt 0.25000 0.41673
vt 0.26094 0.41186
vt 0.28249 0.50000
vt 0.26094 0.41186
vt 0.29923 0.50000
vt 0.26094 0.41186
vt 0.25000 0.41673
vt 0.25000 0.42886
vt 0.28249 0.50000
vt 0.29923 0.50000
vt 0.26094 0.41186
vt 0.28249 0.50000
vt 0.44606 0.07120
vt 0.49330 0.07120
vt 0.49998 0.07396
vt 0.50000 0.08051
vt 0.44606 0.07120
vt 0.50000 0.08051
vt 0.44194 0.08051
vt 0.35845 0.50000
vt 0.31899 0.38897
vt 0.26094 0.41186
vt 0.29923 0.50000
vt 0.29923 0.50000
vt 0.26094 0.41186
vt 0.31899 0.38897
vt 0.35845 0.50000
vt 0.35845 0.50000
vt 0.31899 0.38897
vt 0.26094 0.41186
vt 0.29923 0.50000
vt 0.44194 0.08051
vt 0.50000 0.08051
vt 0.50000 0.11466
vt 0.42881 0.11466
vt 0.41486 0.50000
vt 0.37846 0.37009
vt 0.31899 0.38897
vt 0.35845 0.50000
vt 0.35845 0.50000
vt 0.31899 0.38897
vt 0.37846 0.37009
vt 0.41486 0.50000
vt 0.41486 0.50000
vt 0.37846 0.37009
vt 0.31899 0.38897
vt 0.35845 0.50000
vt 0.42881 0.11466
vt 0.50000 0.11466
vt 0.50000 0.14881
vt 0.41849 0.14881
vt 0.46915 0.50000
vt 0.43908 0.35532
vt 0.37846 0.37009
vt 0.41486 0.50000
vt 0.41486 0.50000
vt 0.37846 0.37009
vt 0.43908 0.35532
vt 0.46915 0.50000
vt 0.46915 0.50000
vt 0.43908 0.35532
vt 0.37846 0.37009
vt 0.41486 0.50000
vt 0.41849 0.14881
vt 0.50000 0.14881
vt 0.50000 0.18295
vt 0.41072 0.18295
vt 0.50000 0.38061
vt 0.49495 0.34551
vt 0.43908 0.35532
vt 0.46915 0.50000
vt 0.50000 0.50000
vt 0.50000 0.38061
vt 0.46915 0.50000
vt 0.46915 0.50000
vt 0.43908 0.35532
vt 0.49495 0.34551
vt 0.50000 0.38061
vt 0.46915 0.50000
vt 0.50000 0.38061
vt 0.50000 0.50000
vt 0.50000 0.38061
vt 0.49495 0.34551
vt 0.43908 0.35532
vt 0.46915 0.50000
vt 0.50000 0.50000
vt 0.50000 0.38061
vt 0.46915 0.50000
vt 0.41072 0.18295
vt 0.50000 0.18295
vt 0.50000 0.21400
vt 0.47858 0.21400
vt 0.41072 0.18295
vt 0.47858 0.21400
vt 0.40729 0.20282
vt 0.50000 0.34480
vt 0.49495 0.34551
vt 0.50000 0.38061
vt 0.50000 0.38061
vt 0.49495 0.34551
vt 0.50000 0.34480
vt 0.50000 0.34480
vt 0.49495 0.34551
vt 0.50000 0.38061
vt 0.47858 0.21400
vt 0.50000 0.21400
vt 0.50000 0.21679
vt 0.47438 0.90625
vt 0.50000 0.90625
vt 0.50000 0.00000
vt 0.47438 0.00000
vt 0.00966 0.00000
vt 0.03261 0.00000
vt 0.03261 0.90625
vt 0.00966 0.90625
vt 0.01931 0.00000
vt 0.06523 0.00000
vt 0.06523 0.09375
vt 0.01931 0.09375
vt 0.01931 0.00000
vt 0.06523 0.00000
vt 0.06523 0.09375
vt 0.01931 0.09375
vt 0.00000 0.00000
vt 0.00000 0.90625
vt 0.03261 0.90625
vt 0.03261 0.00000
vt 0.15218 0.00000
vt 0.15218 0.90625
vt 0.03261 0.90625
vt 0.03261 0.00000
vt 0.30435 0.00000
vt 0.30435 0.09375
vt 0.06523 0.09375
vt 0.06523 0.00000
vt 0.30435 0.00000
vt 0.30435 0.09375
vt 0.06523 0.09375
vt 0.06523 0.00000
vt 0.03261 0.00000
vt 0.03261 0.90625
vt 0.15218 0.90625
vt 0.15218 0.00000
vt 0.27174 0.00000
vt 0.27174 0.90625
vt 0.15218 0.90625
vt 0.15218 0.00000
vt 0.54348 0.00000
vt 0.54348 0.09375
vt 0.30435 0.09375
vt 0.30435 0.00000
vt 0.54348 0.00000
vt 0.54348 0.09375
vt 0.30435 0.09375
vt 0.30435 0.00000
vt 0.15218 0.00000
vt 0.15218 0.90625
vt 0.27174 0.90625
vt 0.27174 0.00000
vt 0.39130 0.00000
vt 0.39130 0.90625
vt 0.27174 0.90625
vt 0.27174 0.00000
vt 0.78261 0.00000
vt 0.78261 0.09375
vt 0.54348 0.09375
vt 0.54348 0.00000
vt 0.78261 0.00000
vt 0.78261 0.09375
vt 0.54348 0.09375
vt 0.54348 0.00000
vt 0.27174 0.00000
vt 0.27174 0.90625
vt 0.39130 0.90625
vt 0.39130 0.00000
vt 0.50000 0.00000
vt 0.50000 0.90625
vt 0.39130 0.90625
vt 0.39130 0.00000
vt 1.00000 0.00000
vt 1.00000 0.09375
vt 0.78261 0.09375
vt 0.78261 0.00000
vt 1.00000 0.00000
vt 1.00000 0.09375
vt 0.78261 0.09375
vt 0.78261 0.00000
vt 0.39130 0.00000
vt 0.39130 0.90625
vt 0.49904 0.90625
vt 0.49904 0.00000
vt 0.00977 0.00000
vt 0.00977 0.90625
vt 0.00000 0.90625
vt 0.00000 0.00000
vt 0.01953 0.00000
vt 0.01953 0.09375
vt 0.00000 0.09375
vt 0.00000 0.00000
vt 0.01953 0.00000
vt 0.01953 0.09375
vt 0.00000 0.09375
vt 0.00000 0.00000
vn 0.00000 1.00000 0.00000
vn 0.00000 1.00000 0.00000
vn 0.00000 1.00000 0.00000
vn 0.00000 -1.00000 0.00000
vn 0.00000 -1.00000 0.00000
vn 0.00000 -1.00000 0.00000
vn 0.00000 1.00000 0.00000
vn 0.00000 1.00000 0.00000
vn 0.00000 1.00000 0.00000
vn 0.00000 -1.00000 0.00000
vn 0.00000 -1.00000 0.00000
vn 0.00000 -1.00000 0.00000
vn 0.00000 1.00000 0.00000
vn 0.00000 1.00000 0.00000
vn 0.00000 1.00000 0.00000
vn 0.00000 1.00000 0.00000
vn 0.00000 -1.00000 0.00000
vn 0.00000 -1.00000 0.00000
vn 0.00000 -1.00000 0.00000
vn 0.00000 -1.00000 0.00000
vn 0.00000 1.00000 0.00000
vn 0.00000 1.00000 0.00000
vn 0.00000 1.00000 0.00000
vn 0.00000 1.00000 0.00000
vn 0.00000 -1.00000 0.00000
vn 0.00000 -1.00000 0.00000
vn 0.00000 -1.00000 0.00000
vn 0.00000 -1.00000 0.00000
vn 0.00000 1.00000 0.00000
vn 0.00000 1.00000 0.00000
vn 0.00000 1.00000 0.00000
vn 0.00000 1.00000 0.00000
vn 0.00000 -1.00000 0.00000
vn 0.00000 -1.00000 0.00000
vn 0.00000 -1.00000 0.00000
vn 0.00000 -1.00000 0.00000
vn 0.00000 1.00000 0.00000
vn 0.00000 1.00000 0.00000
vn 0.00000 1.00000 0.00000
vn 0.00000 1.00000 0.00000
vn 0.00000 -1.00000 0.00000
vn 0.00000 -1.00000 0.00000
vn 0.00000 -1.00000 0.00000
vn 0.00000 -1.00000 0.00000
vn 0.00000 1.00000 0.00000
vn 0.00000 1.00000 0.00000
vn 0.00000 1.00000 0.00000
vn 0.00000 1.00000 0.00000
vn 0.00000 1.00000 0.00000
vn 0.00000 1.00000 0.00000
vn 0.00000 1.00000 0.00000
vn 0.00000 -1.00000 0.00000
vn 0.00000 -1.00000 0.00000
vn 0.00000 -1.00000 0.00000
vn 0.00000 -1.00000 0.00000
vn 0.00000 -1.00000 0.00000
vn 0.00000 -1.00000 0.00000
vn 0.00000 -1.00000 0.00000
vn 0.00000 1.00000 0.00000
vn 0.00000 1.00000 0.00000
vn 0.00000 1.00000 0.00000
vn 0.00000 1.00000 0.00000
vn 0.00000 1.00000 0.00000
vn 0.00000 1.00000 0.00000
vn 0.00000 1.00000 0.00000
vn 0.00000 -1.00000 0.00000
vn 0.00000 -1.00000 0.00000
vn 0.00000 -1.00000 0.00000
vn 0.00000 -1.00000 0.00000
vn 0.00000 -1.00000 0.00000
vn 0.00000 -1.00000 0.00000
vn 0.00000 -1.00000 0.00000
vn 0.00000 1.00000 0.00000
vn 0.00000 1.00000 0.00000
vn 0.00000 1.00000 0.00000
vn 0.00000 1.00000 0.00000
vn 0.00000 -1.00000 0.00000
vn 0.00000 -1.00000 0.00000
vn 0.00000 -1.00000 0.00000
vn 0.00000 -1.00000 0.00000
vn 0.00000 1.00000 0.00000
vn 0.00000 1.00000 0.00000
vn 0.00000 1.00000 0.00000
vn 0.00000 1.00000 0.00000
vn 0.00000 -1.00000 0.00000
vn 0.00000 -1.00000 0.00000
vn 0.00000 -1.00000 0.00000
vn 0.00000 -1.00000 0.00000
vn 0.00000 1.00000 0.00000
vn 0.00000 1.00000 0.00000
vn 0.00000 1.00000 0.00000
vn 0.00000 1.00000 0.00000
vn 0.00000 -1.00000 0.00000
vn 0.00000 -1.00000 0.00000
vn 0.00000 -1.00000 0.00000
vn 0.00000 -1.00000 0.00000
vn 0.00000 1.00000 0.00000
vn 0.00000 1.00000 0.00000
vn 0.00000 1.00000 0.00000
vn 0.00000 1.00000 0.00000
vn 0.00000 -1.00000 0.00000
vn 0.00000 -1.00000 0.00000
vn 0.00000 -1.00000 0.00000
vn 0.00000 -1.00000 0.00000
vn 0.00000 1.00000 0.00000
vn 0.00000 1.00000 0.00000
vn 0.00000 1.00000 0.00000
vn 0.00000 1.00000 0.00000
vn 0.00000 -1.00000 0.00000
vn 0.00000 -1.00000 0.00000
vn 0.00000 -1.00000 0.00000
vn 0.00000 -1.00000 0.00000
vn 0.00000 1.00000 0.00000
vn 0.00000 1.00000 0.00000
vn 0.00000 1.00000 0.00000
vn 0.00000 1.00000 0.00000
vn 0.00000 -1.00000 0.00000
vn 0.00000 -1.00000 0.00000
vn 0.00000 -1.00000 0.00000
vn 0.00000 -1.00000 0.00000
vn 0.00000 1.00000 0.00000
vn 0.00000 1.00000 0.00000
vn 0.00000 1.00000 0.00000
vn 0.00000 1.00000 0.00000
vn 0.00000 1.00000 0.00000
vn 0.00000 1.00000 0.00000
vn 0.00000 1.00000 0.00000
vn 0.00000 -1.00000 0.00000
vn 0.00000 -1.00000 0.00000
vn 0.00000 -1.00000 0.00000
vn 0.00000 -1.00000 0.00000
vn 0.00000 -1.00000 0.00000
vn 0.00000 -1.00000 0.00000
vn 0.00000 -1.00000 0.00000
vn 0.00000 1.00000 0.00000
vn 0.00000 1.00000 0.00000
vn 0.00000 1.00000 0.00000
vn 0.00000 1.00000 0.00000
vn 0.00000 1.00000 0.00000
vn 0.00000 1.00000 0.00000
vn 0.00000 1.00000 0.00000
vn 0.00000 -1.00000 0.00000
vn 0.00000 -1.00000 0.00000
vn 0.00000 -1.00000 0.00000
vn 0.00000 -1.00000 0.00000
vn 0.00000 -1.00000 0.00000
vn 0.00000 -1.00000 0.00000
vn 0.00000 -1.00000 0.00000
vn 0.00000 1.00000 0.00000
vn 0.00000 1.00000 0.00000
vn 0.00000 1.00000 0.00000
vn 0.00000 -1.00000 0.00000
vn 0.00000 -1.00000 0.00000
vn 0.00000 -1.00000 0.00000
vn 0.00000 1.00000 0.00000
vn 0.00000 1.00000 0.00000
vn 0.00000 1.00000 0.00000
vn 0.00000 -1.00000 0.00000
vn 0.00000 -1.00000 0.00000
vn 0.00000 -1.00000 0.00000
vn 0.00000 1.00000 0.00000
vn 0.00000 1.00000 0.00000
vn 0.00000 1.00000 0.00000
vn 0.00000 -1.00000 0.00000
vn 0.00000 -1.00000 0.00000
vn 0.00000 -1.00000 0.00000
vn 0.00000 1.00000 0.00000
vn 0.00000 1.00000 0.00000
vn 0.00000 1.00000 0.00000
vn 0.00000 -1.00000 0.00000
vn 0.00000 -1.00000 0.00000
vn 0.00000 -1.00000 0.00000
vn 0.00000 1.00000 0.00000
vn 0.00000 1.00000 0.00000
vn 0.00000 1.00000 0.00000
vn 0.00000 1.00000 0.00000
vn 0.00000 -1.00000 0.00000
vn 0.00000 -1.00000 0.00000
vn 0.00000 -1.00000 0.00000
vn 0.00000 -1.00000 0.00000
vn 0.00000 1.00000 0.00000
vn 0.00000 1.00000 0.00000
vn 0.00000 1.00000 0.00000
vn 0.00000 1.00000 0.00000
vn 0.00000 -1.00000 0.00000
vn 0.00000 -1.00000 0.00000
vn 0.00000 -1.00000 0.00000
vn 0.00000 -1.00000 0.00000
vn 0.00000 1.00000 0.00000
vn 0.00000 1.00000 0.00000
vn 0.00000 1.00000 0.00000
vn 0.00000 1.00000 0.00000
vn 0.00000 1.00000 0.00000
vn 0.00000 1.00000 0.00000
vn 0.00000 1.00000 0.00000
vn 0.00000 -1.00000 0.00000
vn 0.00000 -1.00000 0.00000
vn 0.00000 -1.00000 0.00000
vn 0.00000 -1.00000 0.00000
vn 0.00000 -1.00000 0.00000
vn 0.00000 -1.00000 0.00000
vn 0.00000 -1.00000 0.00000
vn 0.00000 1.00000 0.00000
vn 0.00000 1.00000 0.00000
vn 0.00000 1.00000 0.00000
vn 0.00000 1.00000 0.00000
vn 0.00000 1.00000 0.00000
vn 0.00000 1.00000 0.00000
vn 0.00000 1.00000 0.00000
vn 0.00000 -1.00000 0.00000
vn 0.00000 -1.00000 0.00000
vn 0.00000 -1.00000 0.00000
vn 0.00000 -1.00000 0.00000
vn 0.00000 -1.00000 0.00000
vn 0.00000 -1.00000 0.00000
vn 0.00000 -1.00000 0.00000
vn 0.00000 1.00000 0.00000
vn 0.00000 1.00000 0.00000
vn 0.00000 1.00000 0.00000
vn 0.00000 -1.00000 0.00000
vn 0.00000 -1.00000 0.00000
vn 0.00000 -1.00000 0.00000
vn 0.00000 1.00000 0.00000
vn 0.00000 1.00000 0.00000
vn 0.00000 1.00000 0.00000
vn 0.00000 -1.00000 0.00000
vn 0.00000 -1.00000 0.00000
vn 0.00000 -1.00000 0.00000
vn -0.54845 0.00000 -0.83618
vn -0.54845 0.00000 -0.83618
vn -0.54845 0.00000 -0.83618
vn -0.54845 0.00000 -0.83618
vn -0.54845 0.00000 -0.83618
vn -0.54845 0.00000 -0.83618
vn -0.54845 0.00000 -0.83618
vn -0.54845 0.00000 -0.83618
vn -0.54845 0.00000 -0.83618
vn -0.54845 0.00000 -0.83618
vn -0.54845 0.00000 -0.83618
vn -0.54845 0.00000 -0.83618
vn -0.49011 0.00000 -0.87166
vn -0.49011 0.00000 -0.87166
vn -0.49011 0.00000 -0.87166
vn -0.49011 0.00000 -0.87166
vn -0.49011 0.00000 -0.87166
vn -0.49011 0.00000 -0.87166
vn -0.49011 0.00000 -0.87166
vn -0.49011 0.00000 -0.87166
vn -0.49011 0.00000 -0.87166
vn -0.49011 0.00000 -0.87166
vn -0.49011 0.00000 -0.87166
vn -0.49011 0.00000 -0.87166
vn 0.49011 0.00000 0.87166
vn 0.49011 0.00000 0.87166
vn 0.49011 0.00000 0.87166
vn 0.49011 0.00000 0.87166
vn -0.43788 0.00000 -0.89904
vn -0.43788 0.00000 -0.89904
vn -0.43788 0.00000 -0.89904
vn -0.43788 0.00000 -0.89904
vn -0.43788 0.00000 -0.89904
vn -0.43788 0.00000 -0.89904
vn -0.43788 0.00000 -0.89904
vn -0.43788 0.00000 -0.89904
vn -0.43788 0.00000 -0.89904
vn -0.43788 0.00000 -0.89904
vn -0.43788 0.00000 -0.89904
vn -0.43788 0.00000 -0.89904
vn 0.43788 0.00000 0.89904
vn 0.43788 0.00000 0.89904
vn 0.43788 0.00000 0.89904
vn 0.43788 0.00000 0.89904
vn -0.40693 0.00000 -0.91346
vn -0.40693 0.00000 -0.91346
vn -0.40693 0.00000 -0.91346
vn -0.40693 0.00000 -0.91346
vn -0.40693 0.00000 -0.91346
vn -0.40693 0.00000 -0.91346
vn -0.40693 0.00000 -0.91346
vn -0.40693 0.00000 -0.91346
vn -0.40693 0.00000 -0.91346
vn -0.40693 0.00000 -0.91346
vn -0.40693 0.00000 -0.91346
vn -0.40693 0.00000 -0.91346
vn 0.00000 1.00000 0.00000
vn 0.00000 1.00000 0.00000
vn 0.00000 1.00000 0.00000
vn 0.00000 -1.00000 0.00000
vn 0.00000 -1.00000 0.00000
vn 0.00000 -1.00000 0.00000
vn 0.00000 1.00000 0.00000
vn 0.00000 1.00000 0.00000
vn 0.00000 1.00000 0.00000
vn 0.00000 -1.00000 0.00000
vn 0.00000 -1.00000 0.00000
vn 0.00000 -1.00000 0.00000
vn 0.00000 1.00000 0.00000
vn 0.00000 1.00000 0.00000
vn 0.00000 1.00000 0.00000
vn 0.00000 1.00000 0.00000
vn 0.00000 1.00000 0.00000
vn 0.00000 1.00000 0.00000
vn 0.00000 1.00000 0.00000
vn 0.00000 -1.00000 0.00000
vn 0.00000 -1.00000 0.00000
vn 0.00000 -1.00000 0.00000
vn 0.00000 -1.00000 0.00000
vn 0.00000 -1.00000 0.00000
vn 0.00000 -1.00000 0.00000
vn 0.00000 -1.00000 0.00000
vn 0.00000 1.00000 0.00000
vn 0.00000 1.00000 0.00000
vn 0.00000 1.00000 0.00000
vn 0.00000 1.00000 0.00000
vn 0.00000 1.00000 0.00000
vn 0.00000 1.00000 0.00000
vn 0.00000 1.00000 0.00000
vn 0.00000 -1.00000 0.00000
vn 0.00000 -1.00000 0.00000
vn 0.00000 -1.00000 0.00000
vn 0.00000 -1.00000 0.00000
vn 0.00000 -1.00000 0.00000
vn 0.00000 -1.00000 0.00000
vn 0.00000 -1.00000 0.00000
vn 0.00000 1.00000 0.00000
vn 0.00000 1.00000 0.00000
vn 0.00000 1.00000 0.00000
vn 0.00000 1.00000 0.00000
vn 0.00000 -1.00000 0.00000
vn 0.00000 -1.00000 0.00000
vn 0.00000 -1.00000 0.00000
vn 0.00000 -1.00000 0.00000
vn 0.00000 1.00000 0.00000
vn 0.00000 1.00000 0.00000
vn 0.00000 1.00000 0.00000
vn 0.00000 1.00000 0.00000
vn 0.00000 -1.00000 0.00000
vn 0.00000 -1.00000 0.00000
vn 0.00000 -1.00000 0.00000
vn 0.00000 -1.00000 0.00000
vn 0.00000 1.00000 0.00000
vn 0.00000 1.00000 0.00000
vn 0.00000 1.00000 0.00000
vn 0.00000 1.00000 0.00000
vn 0.00000 -1.00000 0.00000
vn 0.00000 -1.00000 0.00000
vn 0.00000 -1.00000 0.00000
vn 0.00000 -1.00000 0.00000
vn 0.00000 1.00000 0.00000
vn 0.00000 1.00000 0.00000
vn 0.00000 1.00000 0.00000
vn 0.00000 1.00000 0.00000
vn 0.00000 -1.00000 0.00000
vn 0.00000 -1.00000 0.00000
vn 0.00000 -1.00000 0.00000
vn 0.00000 -1.00000 0.00000
vn 0.00000 1.00000 0.00000
vn 0.00000 1.00000 0.00000
vn 0.00000 1.00000 0.00000
vn 0.00000 1.00000 0.00000
vn 0.00000 -1.00000 0.00000
vn 0.00000 -1.00000 0.00000
vn 0.00000 -1.00000 0.00000
vn 0.00000 -1.00000 0.00000
vn 0.00000 1.00000 0.00000
vn 0.00000 1.00000 0.00000
vn 0.00000 1.00000 0.00000
vn 0.00000 1.00000 0.00000
vn 0.00000 -1.00000 0.00000
vn 0.00000 -1.00000 0.00000
vn 0.00000 -1.00000 0.00000
vn 0.00000 -1.00000 0.00000
vn 0.00000 1.00000 0.00000
vn 0.00000 1.00000 0.00000
vn 0.00000 1.00000 0.00000
vn 0.00000 1.00000 0.00000
vn 0.00000 1.00000 0.00000
vn 0.00000 1.00000 0.00000
vn 0.00000 1.00000 0.00000
vn 0.00000 -1.00000 0.00000
vn 0.00000 -1.00000 0.00000
vn 0.00000 -1.00000 0.00000
vn 0.00000 -1.00000 0.00000
vn 0.00000 -1.00000 0.00000
vn 0.00000 -1.00000 0.00000
vn 0.00000 -1.00000 0.00000
vn 0.00000 1.00000 0.00000
vn 0.00000 1.00000 0.00000
vn 0.00000 1.00000 0.00000
vn 0.00000 1.00000 0.00000
vn 0.00000 1.00000 0.00000
vn 0.00000 1.00000 0.00000
vn 0.00000 1.00000 0.00000
vn 0.00000 -1.00000 0.00000
vn 0.00000 -1.00000 0.00000
vn 0.00000 -1.00000 0.00000
vn 0.00000 -1.00000 0.00000
vn 0.00000 -1.00000 0.00000
vn 0.00000 -1.00000 0.00000
vn 0.00000 -1.00000 0.00000
vn 0.00000 1.00000 0.00000
vn 0.00000 1.00000 0.00000
vn 0.00000 1.00000 0.00000
vn 0.00000 -1.00000 0.00000
vn 0.00000 -1.00000 0.00000
vn 0.00000 -1.00000 0.00000
vn 0.00000 1.00000 0.00000
vn 0.00000 1.00000 0.00000
vn 0.00000 1.00000 0.00000
vn 0.00000 -1.00000 0.00000
vn 0.00000 -1.00000 0.00000
vn 0.00000 -1.00000 0.00000
vn 0.43788 0.00000 0.89904
vn 0.43788 0.00000 0.89904
vn 0.43788 0.00000 0.89904
vn 0.43788 0.00000 0.89904
vn -0.40693 0.00000 -0.91346
vn -0.40693 0.00000 -0.91346
vn -0.40693 0.00000 -0.91346
vn -0.40693 0.00000 -0.91346
vn -0.40693 0.00000 -0.91346
vn -0.40693 0.00000 -0.91346
vn -0.40693 0.00000 -0.91346
vn -0.40693 0.00000 -0.91346
vn -0.40693 0.00000 -0.91346
vn -0.40693 0.00000 -0.91346
vn -0.40693 0.00000 -0.91346
vn -0.40693 0.00000 -0.91346
vn 0.40693 0.00000 0.91346
vn 0.40693 0.00000 0.91346
vn 0.40693 0.00000 0.91346
vn 0.40693 0.00000 0.91346
vn -0.36685 0.00000 -0.93028
vn -0.36685 0.00000 -0.93028
vn -0.36685 0.00000 -0.93028
vn -0.36685 0.00000 -0.93028
vn -0.36685 0.00000 -0.93028
vn -0.36685 0.00000 -0.93028
vn -0.36685 0.00000 -0.93028
vn -0.36685 0.00000 -0.93028
vn -0.36685 0.00000 -0.93028
vn -0.36685 0.00000 -0.93028
vn -0.36685 0.00000 -0.93028
vn -0.36685 0.00000 -0.93028
vn 0.36685 0.00000 0.93028
vn 0.36685 0.00000 0.93028
vn 0.36685 0.00000 0.93028
vn 0.36685 0.00000 0.93028
vn -0.30251 0.00000 -0.95314
vn -0.30251 0.00000 -0.95314
vn -0.30251 0.00000 -0.95314
vn -0.30251 0.00000 -0.95314
vn -0.30251 0.00000 -0.95314
vn -0.30251 0.00000 -0.95314
vn -0.30251 0.00000 -0.95314
vn -0.30251 0.00000 -0.95314
vn -0.30251 0.00000 -0.95314
vn -0.30251 0.00000 -0.95314
vn -0.30251 0.00000 -0.95314
vn -0.30251 0.00000 -0.95314
vn 0.30251 0.00000 0.95314
vn 0.30251 0.00000 0.95314
vn 0.30251 0.00000 0.95314
vn 0.30251 0.00000 0.95314
vn -0.23676 0.00000 -0.97157
vn -0.23676 0.00000 -0.97157
vn -0.23676 0.00000 -0.97157
vn -0.23676 0.00000 -0.97157
vn -0.23676 0.00000 -0.97157
vn -0.23676 0.00000 -0.97157
vn -0.23676 0.00000 -0.97157
vn -0.23676 0.00000 -0.97157
vn -0.23676 0.00000 -0.97157
vn -0.23676 0.00000 -0.97157
vn -0.23676 0.00000 -0.97157
vn -0.23676 0.00000 -0.97157
vn 0.23676 0.00000 0.97157
vn 0.23676 0.00000 0.97157
vn 0.23676 0.00000 0.97157
vn 0.23676 0.00000 0.97157
vn -0.17297 0.00000 -0.98493
vn -0.17297 0.00000 -0.98493
vn -0.17297 0.00000 -0.98493
vn -0.17297 0.00000 -0.98493
vn -0.17297 0.00000 -0.98493
vn -0.17297 0.00000 -0.98493
vn -0.17297 0.00000 -0.98493
vn -0.17297 0.00000 -0.98493
vn -0.17297 0.00000 -0.98493
vn -0.17297 0.00000 -0.98493
vn -0.17297 0.00000 -0.98493
vn -0.17297 0.00000 -0.98493
vn 0.17297 0.00000 0.98493
vn 0.17297 0.00000 0.98493
vn 0.17297 0.00000 0.98493
vn 0.17297 0.00000 0.98493
vn -0.13924 0.00000 -0.99026
vn -0.13924 0.00000 -0.99026
vn -0.13924 0.00000 -0.99026
vn -0.13924 0.00000 -0.99026
vn -0.13924 0.00000 -0.99026
vn -0.13924 0.00000 -0.99026
vn -0.13924 0.00000 -0.99026
vn -0.13924 0.00000 -0.99026
vn -0.13924 0.00000 -0.99026
vn -0.13924 0.00000 -0.99026
vn -0.13924 0.00000 -0.99026
vn -0.13924 0.00000 -0.99026
usemtl ceiling
f 10/10/10 11/11/11 12/12/12
f 25/25/25 26/26/26 27/27/27 28/28/28
f 41/41/41 42/42/42 43/43/43 44/44/44
f 66/66/66 67/67/67 68/68/68 69/69/69
f 70/70/70 71/71/71 72/72/72
f 85/85/85 86/86/86 87/87/87 88/88/88
f 101/101/101 102/102/102 103/103/103 104/104/104
f 117/117/117 118/118/118 119/119/119 120/120/120
f 142/142/142 143/143/143 144/144/144 145/145/145
f 146/146/146 147/147/147 148/148/148
f 158/158/158 159/159/159 160/160/160
f 170/170/170 171/171/171 172/172/172
f 185/185/185 186/186/186 187/187/187 188/188/188
f 210/210/210 211/211/211 212/212/212 213/213/213
f 214/214/214 215/215/215 216/216/216
f 226/226/226 227/227/227 228/228/228
f 294/294/294 295/295/295 296/296/296
f 318/318/318 319/319/319 320/320/320 321/321/321
f 322/322/322 323/323/323 324/324/324
f 337/337/337 338/338/338 339/339/339 340/340/340
f 353/353/353 354/354/354 355/355/355 356/356/356
f 369/369/369 370/370/370 371/371/371 372/372/372
f 394/394/394 395/395/395 396/396/396 397/397/397
f 398/398/398 399/399/399 400/400/400
f 410/410/410 411/411/411 412/412/412
usemtl floor
f 1/1/1 2/2/2 3/3/3
f 13/13/13 14/14/14 15/15/15 16/16/16
f 29/29/29 30/30/30 31/31/31 32/32/32
f 45/45/45 46/46/46 47/47/47 48/48/48
f 49/49/49 50/50/50 51/51/51
f 73/73/73 74/74/74 75/75/75 76/76/76
f 89/89/89 90/90/90 91/91/91 92/92/92
f 105/105/105 106/106/106 107/107/107 108/108/108
f 121/121/121 122/122/122 123/123/123 124/124/124
f 125/125/125 126/126/126 127/127/127
f 149/149/149 150/150/150 151/151/151
f 161/161/161 162/162/162 163/163/163
f 173/173/173 174/174/174 175/175/175 176/176/176
f 189/189/189 190/190/190 191/191/191 192/192/192
f 193/193/193 194/194/194 195/195/195
f 217/217/217 218/218/218 219/219/219
f 285/285/285 286/286/286 287/287/287
f 297/297/297 298/298/298 299/299/299 300/300/300
f 301/301/301 302/302/302 303/303/303
f 325/325/325 326/326/326 327/327/327 328/328/328
f 341/341/341 342/342/342 343/343/343 344/344/344
f 357/357/357 358/358/358 359/359/359 360/360/360
f 373/373/373 374/374/374 375/375/375 376/376/376
f 377/377/377 378/378/378 379/379/379
f 401/401/401 402/402/402 403/403/403
usemtl frame
f 233/233/233 234/234/234 235/235/235 236/236/236
f 237/237/237 238/238/238 239/239/239 240/240/240
f 245/245/245 246/246/246 247/247/247 248/248/248
f 249/249/249 250/250/250 251/251/251 252/252/252
f 261/261/261 262/262/262 263/263/263 264/264/264
f 265/265/265 266/266/266 267/267/267 268/268/268
f 277/277/277 278/278/278 279/279/279 280/280/280
f 281/281/281 282/282/282 283/283/283 284/284/284
f 421/421/421 422/422/422 423/423/423 424/424/424
f 425/425/425 426/426/426 427/427/427 428/428/428
f 437/437/437 438/438/438 439/439/439 440/440/440
f 441/441/441 442/442/442 443/443/443 444/444/444
f 453/453/453 454/454/454 455/455/455 456/456/456
f 457/457/457 458/458/458 459/459/459 460/460/460
f 469/469/469 470/470/470 471/471/471 472/472/472
f 473/473/473 474/474/474 475/475/475 476/476/476
f 485/485/485 486/486/486 487/487/487 488/488/488
f 489/489/489 490/490/490 491/491/491 492/492/492
f 501/501/501 502/502/502 503/503/503 504/504/504
f 505/505/505 506/506/506 507/507/507 508/508/508
usemtl inner
f 253/253/253 254/254/254 255/255/255 256/256/256
f 269/269/269 270/270/270 271/271/271 272/272/272
f 413/413/413 414/414/414 415/415/415 416/416/416
f 429/429/429 430/430/430 431/431/431 432/432/432
f 445/445/445 446/446/446 447/447/447 448/448/448
f 461/461/461 462/462/462 463/463/463 464/464/464
f 477/477/477 478/478/478 479/479/479 480/480/480
f 493/493/493 494/494/494 495/495/495 496/496/496
usemtl roof
f 7/7/7 8/8/8 9/9/9
f 21/21/21 22/22/22 23/23/23 24/24/24
f 37/37/37 38/38/38 39/39/39 40/40/40
f 59/59/59 60/60/60 61/61/61 62/62/62
f 63/63/63 64/64/64 65/65/65
f 81/81/81 82/82/82 83/83/83 84/84/84
f 97/97/97 98/98/98 99/99/99 100/100/100
f 113/113/113 114/114/114 115/115/115 116/116/116
f 135/135/135 136/136/136 137/137/137 138/138/138
f 139/139/139 140/140/140 141/141/141
f 155/155/155 156/156/156 157/157/157
f 167/167/167 168/168/168 169/169/169
f 181/181/181 182/182/182 183/183/183 184/184/184
f 203/203/203 204/204/204 205/205/205 206/206/206
f 207/207/207 208/208/208 209/209/209
f 223/223/223 224/224/224 225/225/225
f 291/291/291 292/292/292 293/293/293
f 311/311/311 312/312/312 313/313/313 314/314/314
f 315/315/315 316/316/316 317/317/317
f 333/333/333 334/334/334 335/335/335 336/336/336
f 349/349/349 350/350/350 351/351/351 352/352/352
f 365/365/365 366/366/366 367/367/367 368/368/368
f 387/387/387 388/388/388 389/389/389 390/390/390
f 391/391/391 392/392/392 393/393/393
f 407/407/407 408/408/408 409/409/409
usemtl skin
f 229/229/229 230/230/230 231/231/231 232/232/232
f 241/241/241 242/242/242 243/243/243 244/244/244
f 257/257/257 258/258/258 259/259/259 260/260/260
f 273/273/273 274/274/274 275/275/275 276/276/276
f 417/417/417 418/418/418 419/419/419 420/420/420
f 433/433/433 434/434/434 435/435/435 436/436/436
f 449/449/449 450/450/450 451/451/451 452/452/452
f 465/465/465 466/466/466 467/467/467 468/468/468
f 481/481/481 482/482/482 483/483/483 484/484/484
f 497/497/497 498/498/498 499/499/499 500/500/500
usemtl under
f 4/4/4 5/5/5 6/6/6
f 17/17/17 18/18/18 19/19/19 20/20/20
f 33/33/33 34/34/34 35/35/35 36/36/36
f 52/52/52 53/53/53 54/54/54 55/55/55
f 56/56/56 57/57/57 58/58/58
f 77/77/77 78/78/78 79/79/79 80/80/80
f 93/93/93 94/94/94 95/95/95 96/96/96
f 109/109/109 110/110/110 111/111/111 112/112/112
f 128/128/128 129/129/129 130/130/130 131/131/131
f 132/132/132 133/133/133 134/134/134
f 152/152/152 153/153/153 154/154/154
f 164/164/164 165/165/165 166/166/166
f 177/177/177 178/178/178 179/179/179 180/180/180
f 196/196/196 197/197/197 198/198/198 199/199/199
f 200/200/200 201/201/201 202/202/202
f 220/220/220 221/221/221 222/222/222
f 288/288/288 289/289/289 290/290/290
f 304/304/304 305/305/305 306/306/306 307/307/307
f 308/308/308 309/309/309 310/310/310
f 329/329/329 330/330/330 331/331/331 332/332/332
f 345/345/345 346/346/346 347/347/347 348/348/348
f 361/361/361 362/362/362 363/363/363 364/364/364
f 380/380/380 381/381/381 382/382/382 383/383/383
f 384/384/384 385/385/385 386/386/386
f 404/404/404 405/405/405 406/406/406
