# Generated by dev-env-utils/scripts/gen_transit_airside.py -- do not edit
mtllib jet_bridge_large.mtl
o airport_jet_bridge_large_turn_c10
v 1.00000 0.09375 0.90473
v 0.00000 0.09375 0.85709
v 0.00000 0.09375 1.00000
v 1.00000 0.09375 1.00000
v 1.00000 0.00000 1.00000
v 0.00000 0.00000 1.00000
v 0.00000 0.00000 0.85709
v 1.00000 0.00000 0.90473
v 1.00000 4.24547 0.90473
v 0.00000 4.24547 0.85709
v 0.00000 4.24547 1.00000
v 1.00000 4.24547 1.00000
v 1.00000 4.09375 1.00000
v 0.00000 4.09375 1.00000
v 0.00000 4.09375 0.85709
v 1.00000 4.09375 0.90473
v 1.00000 0.09375 0.80902
v 0.00000 0.09375 0.71353
v 0.00000 0.09375 0.85709
v 1.00000 0.09375 0.90473
v 1.00000 0.00000 0.90473
v 0.00000 0.00000 0.85709
v 0.00000 0.00000 0.71353
v 1.00000 0.00000 0.80902
v 1.00000 4.24547 0.80902
v 0.00000 4.24547 0.71353
v 0.00000 4.24547 0.85709
v 1.00000 4.24547 0.90473
v 1.00000 4.09375 0.90473
v 0.00000 4.09375 0.85709
v 0.00000 4.09375 0.71353
v 1.00000 4.09375 0.80902
v 1.00000 0.09375 0.71244
v 0.00000 0.09375 0.56867
v 0.00000 0.09375 0.71353
v 1.00000 0.09375 0.80902
v 1.00000 0.00000 0.80902
v 0.00000 0.00000 0.71353
v 0.00000 0.00000 0.56867
v 1.00000 0.00000 0.71244
v 1.00000 4.24547 0.71244
v 0.00000 4.24547 0.56867
v 0.00000 4.24547 0.71353
v 1.00000 4.24547 0.80902
v 1.00000 4.09375 0.80902
v 0.00000 4.09375 0.71353
v 0.00000 4.09375 0.56867
v 1.00000 4.09375 0.71244
v 1.00000 0.09375 0.61453
v 0.00000 0.09375 0.42180
v 0.00000 0.09375 0.56867
v 1.00000 0.09375 0.71244
v 1.00000 0.00000 0.71244
v 0.00000 0.00000 0.56867
v 0.00000 0.00000 0.42180
v 1.00000 0.00000 0.61453
v 1.00000 4.24547 0.61453
v 0.00000 4.24547 0.42180
v 0.00000 4.24547 0.56867
v 1.00000 4.24547 0.71244
v 1.00000 4.09375 0.71244
v 0.00000 4.09375 0.56867
v 0.00000 4.09375 0.42180
v 1.00000 4.09375 0.61453
v 1.00000 0.09375 0.60218
v 0.00000 0.09375 0.40326
v 0.00000 0.09375 0.42180
v 1.00000 0.09375 0.61453
v 1.00000 0.00000 0.61453
v 0.00000 0.00000 0.42180
v 0.00000 0.00000 0.40326
v 1.00000 0.00000 0.60218
v 1.00000 4.24547 0.60218
v 0.00000 4.24547 0.40326
v 0.00000 4.24547 0.42180
v 1.00000 4.24547 0.61453
v 1.00000 4.09375 0.61453
v 0.00000 4.09375 0.42180
v 0.00000 4.09375 0.40326
v 1.00000 4.09375 0.60218
v 1.00000 0.09375 0.51481
v 0.00000 0.09375 0.27221
v 0.00000 0.09375 0.40326
v 1.00000 0.09375 0.60218
v 1.00000 0.00000 0.60218
v 0.00000 0.00000 0.40326
v 0.00000 0.00000 0.27221
v 1.00000 0.00000 0.51481
v 1.00000 4.24547 0.51481
v 0.00000 4.24547 0.27221
v 0.00000 4.24547 0.40326
v 1.00000 4.24547 0.60218
v 1.00000 4.09375 0.60218
v 0.00000 4.09375 0.40326
v 0.00000 4.09375 0.27221
v 1.00000 4.09375 0.51481
v 1.00000 0.09375 0.41275
v 0.00000 0.09375 0.11912
v 0.00000 0.09375 0.27221
v 1.00000 0.09375 0.51481
v 1.00000 0.00000 0.51481
v 0.00000 0.00000 0.27221
v 0.00000 0.00000 0.11912
v 1.00000 0.00000 0.41275
v 1.00000 4.24547 0.41275
v 0.00000 4.24547 0.11912
v 0.00000 4.24547 0.27221
v 1.00000 4.24547 0.51481
v 1.00000 4.09375 0.51481
v 0.00000 4.09375 0.27221
v 0.00000 4.09375 0.11912
v 1.00000 4.09375 0.41275
v 0.11069 0.09375 0.00000
v -0.00000 0.09375 0.00000
v 0.00000 0.09375 0.11912
v 1.00000 0.09375 0.41275
v 1.00000 0.09375 0.30779
v 0.11069 0.09375 0.00000
v 1.00000 0.09375 0.41275
v 1.00000 0.00000 0.41275
v 0.00000 0.00000 0.11912
v -0.00000 0.00000 0.00000
v 0.11069 0.00000 0.00000
v 1.00000 0.00000 0.41275
v 0.11069 0.00000 0.00000
v 1.00000 0.00000 0.30779
v 0.11069 4.24547 0.00000
v -0.00000 4.24547 0.00000
v 0.00000 4.24547 0.11912
v 1.00000 4.24547 0.41275
v 1.00000 4.24547 0.30779
v 0.11069 4.24547 0.00000
v 1.00000 4.24547 0.41275
v 1.00000 4.09375 0.41275
v 0.00000 4.09375 0.11912
v -0.00000 4.09375 0.00000
v 0.11069 4.09375 0.00000
v 1.00000 4.09375 0.41275
v 0.11069 4.09375 0.00000
v 1.00000 4.09375 0.30779
v 1.00000 0.09375 0.19932
v 0.50212 0.09375 0.00000
v 0.11069 0.09375 0.00000
v 1.00000 0.09375 0.30779
v 1.00000 0.00000 0.30779
v 0.11069 0.00000 0.00000
v 0.50212 0.00000 0.00000
v 1.00000 0.00000 0.19932
v 1.00000 4.24547 0.19932
v 0.50212 4.24547 0.00000
v 0.11069 4.24547 0.00000
v 1.00000 4.24547 0.30779
v 1.00000 4.09375 0.30779
v 0.11069 4.09375 0.00000
v 0.50212 4.09375 0.00000
v 1.00000 4.09375 0.19932
v 1.00000 0.09375 0.17157
v 0.58579 0.09375 0.00000
v 0.50212 0.09375 0.00000
v 1.00000 0.09375 0.19932
v 1.00000 0.00000 0.19932
v 0.50212 0.00000 0.00000
v 0.58579 0.00000 0.00000
v 1.00000 0.00000 0.17157
v 1.00000 4.24547 0.17157
v 0.58579 4.24547 0.00000
v 0.50212 4.24547 0.00000
v 1.00000 4.24547 0.19932
v 1.00000 4.09375 0.19932
v 0.50212 4.09375 0.00000
v 0.58579 4.09375 0.00000
v 1.00000 4.09375 0.17157
v 1.00000 0.09375 0.08663
v 0.81031 0.09375 0.00000
v 0.58579 0.09375 0.00000
v 1.00000 0.09375 0.17157
v 1.00000 0.00000 0.17157
v 0.58579 0.00000 0.00000
v 0.81031 0.00000 0.00000
v 1.00000 0.00000 0.08663
v 1.00000 4.24547 0.08663
v 0.81031 4.24547 0.00000
v 0.58579 4.24547 0.00000
v 1.00000 4.24547 0.17157
v 1.00000 4.09375 0.17157
v 0.58579 4.09375 0.00000
v 0.81031 4.09375 0.00000
v 1.00000 4.09375 0.08663
v 1.00000 0.09375 0.00000
v 0.81031 0.09375 0.00000
v 1.00000 0.09375 0.08663
v 1.00000 0.00000 0.08663
v 0.81031 0.00000 0.00000
v 1.00000 0.00000 0.00000
v 1.00000 4.24547 0.00000
v 0.81031 4.24547 0.00000
v 1.00000 4.24547 0.08663
v 1.00000 4.09375 0.08663
v 0.81031 4.09375 0.00000
v 1.00000 4.09375 0.00000
v 1.15726 0.09375 0.91222
v 1.00000 0.09375 0.90473
v 1.00000 0.09375 1.00000
v 1.15517 0.09375 1.00000
v 1.15517 0.00000 1.00000
v 1.00000 0.00000 1.00000
v 1.00000 0.00000 0.90473
v 1.15726 0.00000 0.91222
v 1.15726 4.24547 0.91222
v 1.00000 4.24547 0.90473
v 1.00000 4.24547 1.00000
v 1.15517 4.24547 1.00000
v 1.15517 4.09375 1.00000
v 1.00000 4.09375 1.00000
v 1.00000 4.09375 0.90473
v 1.15726 4.09375 0.91222
v 1.16353 0.09375 0.82464
v 1.00000 0.09375 0.80902
v 1.00000 0.09375 0.90473
v 1.15726 0.09375 0.91222
v 1.15726 0.00000 0.91222
v 1.00000 0.00000 0.90473
v 1.00000 0.00000 0.80902
v 1.16353 0.00000 0.82464
v 1.16353 4.24547 0.82464
v 1.00000 4.24547 0.80902
v 1.00000 4.24547 0.90473
v 1.15726 4.24547 0.91222
v 1.15726 4.09375 0.91222
v 1.00000 4.09375 0.90473
v 1.00000 4.09375 0.80902
v 1.16353 4.09375 0.82464
v 1.17395 0.09375 0.73745
v 1.00000 0.09375 0.71244
v 1.00000 0.09375 0.80902
v 1.16353 0.09375 0.82464
v 1.16353 0.00000 0.82464
v 1.00000 0.00000 0.80902
v 1.00000 0.00000 0.71244
v 1.17395 0.00000 0.73745
v 1.17395 4.24547 0.73745
v 1.00000 4.24547 0.71244
v 1.00000 4.24547 0.80902
v 1.16353 4.24547 0.82464
v 1.16353 4.09375 0.82464
v 1.00000 4.09375 0.80902
v 1.00000 4.09375 0.71244
v 1.17395 4.09375 0.73745
v 1.18851 0.09375 0.65086
v 1.00000 0.09375 0.61453
v 1.00000 0.09375 0.71244
v 1.17395 0.09375 0.73745
v 1.17395 0.00000 0.73745
v 1.00000 0.00000 0.71244
v 1.00000 0.00000 0.61453
v 1.18851 0.00000 0.65086
v 1.18851 4.24547 0.65086
v 1.00000 4.24547 0.61453
v 1.00000 4.24547 0.71244
v 1.17395 4.24547 0.73745
v 1.17395 4.09375 0.73745
v 1.00000 4.09375 0.71244
v 1.00000 4.09375 0.61453
v 1.18851 4.09375 0.65086
v 1.19062 0.09375 0.64009
v 1.00000 0.09375 0.60218
v 1.00000 0.09375 0.61453
v 1.18851 0.09375 0.65086
v 1.18851 0.00000 0.65086
v 1.00000 0.00000 0.61453
v 1.00000 0.00000 0.60218
v 1.19062 0.00000 0.64009
v 1.19062 4.24547 0.64009
v 1.00000 4.24547 0.60218
v 1.00000 4.24547 0.61453
v 1.18851 4.24547 0.65086
v 1.18851 4.09375 0.65086
v 1.00000 4.09375 0.61453
v 1.00000 4.09375 0.60218
v 1.19062 4.09375 0.64009
v 1.20718 0.09375 0.56507
v 1.00000 0.09375 0.51481
v 1.00000 0.09375 0.60218
v 1.19062 0.09375 0.64009
v 1.19062 0.00000 0.64009
v 1.00000 0.00000 0.60218
v 1.00000 0.00000 0.51481
v 1.20718 0.00000 0.56507
v 1.20718 4.24547 0.56507
v 1.00000 4.24547 0.51481
v 1.00000 4.24547 0.60218
v 1.19062 4.24547 0.64009
v 1.19062 4.09375 0.64009
v 1.00000 4.09375 0.60218
v 1.00000 4.09375 0.51481
v 1.20718 4.09375 0.56507
v 1.22990 0.09375 0.48025
v 1.00000 0.09375 0.41275
v 1.00000 0.09375 0.51481
v 1.20718 0.09375 0.56507
v 1.20718 0.00000 0.56507
v 1.00000 0.00000 0.51481
v 1.00000 0.00000 0.41275
v 1.22990 0.00000 0.48025
v 1.22990 4.24547 0.48025
v 1.00000 4.24547 0.41275
v 1.00000 4.24547 0.51481
v 1.20718 4.24547 0.56507
v 1.20718 4.09375 0.56507
v 1.00000 4.09375 0.51481
v 1.00000 4.09375 0.41275
v 1.22990 4.09375 0.48025
v 1.25664 0.09375 0.39662
v 1.00000 0.09375 0.30779
v 1.00000 0.09375 0.41275
v 1.22990 0.09375 0.48025
v 1.22990 0.00000 0.48025
v 1.00000 0.00000 0.41275
v 1.00000 0.00000 0.30779
v 1.25664 0.00000 0.39662
v 1.25664 4.24547 0.39662
v 1.00000 4.24547 0.30779
v 1.00000 4.24547 0.41275
v 1.22990 4.24547 0.48025
v 1.22990 4.09375 0.48025
v 1.00000 4.09375 0.41275
v 1.00000 4.09375 0.30779
v 1.25664 4.09375 0.39662
v 1.28732 0.09375 0.31435
v 1.00000 0.09375 0.19932
v 1.00000 0.09375 0.30779
v 1.25664 0.09375 0.39662
v 1.25664 0.00000 0.39662
v 1.00000 0.00000 0.30779
v 1.00000 0.00000 0.19932
v 1.28732 0.00000 0.31435
v 1.28732 4.24547 0.31435
v 1.00000 4.24547 0.19932
v 1.00000 4.24547 0.30779
v 1.25664 4.24547 0.39662
v 1.25664 4.09375 0.39662
v 1.00000 4.09375 0.30779
v 1.00000 4.09375 0.19932
v 1.28732 4.09375 0.31435
v 1.29560 0.09375 0.29402
v 1.00000 0.09375 0.17157
v 1.00000 0.09375 0.19932
v 1.28732 0.09375 0.31435
v 1.28732 0.00000 0.31435
v 1.00000 0.00000 0.19932
v 1.00000 0.00000 0.17157
v 1.29560 0.00000 0.29402
v 1.29560 4.24547 0.29402
v 1.00000 4.24547 0.17157
v 1.00000 4.24547 0.19932
v 1.28732 4.24547 0.31435
v 1.28732 4.09375 0.31435
v 1.00000 4.09375 0.19932
v 1.00000 4.09375 0.17157
v 1.29560 4.09375 0.29402
v 1.32189 0.09375 0.23363
v 1.00000 0.09375 0.08663
v 1.00000 0.09375 0.17157
v 1.29560 0.09375 0.29402
v 1.29560 0.00000 0.29402
v 1.00000 0.00000 0.17157
v 1.00000 0.00000 0.08663
v 1.32189 0.00000 0.23363
v 1.32189 4.24547 0.23363
v 1.00000 4.24547 0.08663
v 1.00000 4.24547 0.17157
v 1.29560 4.24547 0.29402
v 1.29560 4.09375 0.29402
v 1.00000 4.09375 0.17157
v 1.00000 4.09375 0.08663
v 1.32189 4.09375 0.23363
v 1.06027 0.09375 0.00000
v 1.00000 0.09375 0.00000
v 1.00000 0.09375 0.08663
v 1.32189 0.09375 0.23363
v 1.36025 0.09375 0.15465
v 1.06027 0.09375 0.00000
v 1.32189 0.09375 0.23363
v 1.32189 0.00000 0.23363
v 1.00000 0.00000 0.08663
v 1.00000 0.00000 0.00000
v 1.06027 0.00000 0.00000
v 1.32189 0.00000 0.23363
v 1.06027 0.00000 0.00000
v 1.36025 0.00000 0.15465
v 1.06027 4.24547 0.00000
v 1.00000 4.24547 0.00000
v 1.00000 4.24547 0.08663
v 1.32189 4.24547 0.23363
v 1.36025 4.24547 0.15465
v 1.06027 4.24547 0.00000
v 1.32189 4.24547 0.23363
v 1.32189 4.09375 0.23363
v 1.00000 4.09375 0.08663
v 1.00000 4.09375 0.00000
v 1.06027 4.09375 0.00000
v 1.32189 4.09375 0.23363
v 1.06027 4.09375 0.00000
v 1.36025 4.09375 0.15465
v 1.40233 0.09375 0.07759
v 1.26795 0.09375 0.00000
v 1.06027 0.09375 0.00000
v 1.36025 0.09375 0.15465
v 1.36025 0.00000 0.15465
v 1.06027 0.00000 0.00000
v 1.26795 0.00000 0.00000
v 1.40233 0.00000 0.07759
v 1.40233 4.24547 0.07759
v 1.26795 4.24547 0.00000
v 1.06027 4.24547 0.00000
v 1.36025 4.24547 0.15465
v 1.36025 4.09375 0.15465
v 1.06027 4.09375 0.00000
v 1.26795 4.09375 0.00000
v 1.40233 4.09375 0.07759
v 1.44803 0.09375 0.00261
v 1.44397 0.09375 0.00000
v 1.26795 0.09375 0.00000
v 1.40233 0.09375 0.07759
v 1.40233 0.00000 0.07759
v 1.26795 0.00000 0.00000
v 1.44397 0.00000 0.00000
v 1.44803 0.00000 0.00261
v 1.44803 4.24547 0.00261
v 1.44397 4.24547 0.00000
v 1.26795 4.24547 0.00000
v 1.40233 4.24547 0.07759
v 1.40233 4.09375 0.07759
v 1.26795 4.09375 0.00000
v 1.44397 4.09375 0.00000
v 1.44803 4.09375 0.00261
v 1.44975 0.09375 0.00000
v 1.44397 0.09375 0.00000
v 1.44803 0.09375 0.00261
v 1.44803 0.00000 0.00261
v 1.44397 0.00000 0.00000
v 1.44975 0.00000 0.00000
v 1.44975 4.24547 0.00000
v 1.44397 4.24547 0.00000
v 1.44803 4.24547 0.00261
v 1.44803 4.09375 0.00261
v 1.44397 4.09375 0.00000
v 1.44975 4.09375 0.00000
v 1.15517 4.09375 1.00000
v 1.15517 0.09375 1.00000
v 1.15726 0.09375 0.91222
v 1.15726 4.09375 0.91222
v 1.15517 0.09375 1.00000
v 1.15517 0.00000 1.00000
v 1.15726 0.00000 0.91222
v 1.15726 0.09375 0.91222
v 1.15517 4.24547 1.00000
v 1.15517 4.09375 1.00000
v 1.15726 4.09375 0.91222
v 1.15726 4.24547 0.91222
v 1.00227 4.09375 0.90484
v 1.00227 0.09375 0.90484
v 1.00000 0.09375 1.00000
v 1.00000 4.09375 1.00000
v 1.15726 4.09375 0.91222
v 1.15726 0.09375 0.91222
v 1.16353 0.09375 0.82464
v 1.16353 4.09375 0.82464
v 1.15726 0.09375 0.91222
v 1.15726 0.00000 0.91222
v 1.16353 0.00000 0.82464
v 1.16353 0.09375 0.82464
v 1.15726 4.24547 0.91222
v 1.15726 4.09375 0.91222
v 1.16353 4.09375 0.82464
v 1.16353 4.24547 0.82464
v 1.00906 4.09375 0.80989
v 1.00906 0.09375 0.80989
v 1.00227 0.09375 0.90484
v 1.00227 4.09375 0.90484
v 1.16353 4.09375 0.82464
v 1.16353 0.09375 0.82464
v 1.17395 0.09375 0.73745
v 1.17395 4.09375 0.73745
v 1.16353 0.09375 0.82464
v 1.16353 0.00000 0.82464
v 1.17395 0.00000 0.73745
v 1.17395 0.09375 0.73745
v 1.16353 4.24547 0.82464
v 1.16353 4.09375 0.82464
v 1.17395 4.09375 0.73745
v 1.17395 4.24547 0.73745
v 1.02036 4.09375 0.71537
v 1.02036 0.09375 0.71537
v 1.00906 0.09375 0.80989
v 1.00906 4.09375 0.80989
v 1.17395 4.09375 0.73745
v 1.17395 0.09375 0.73745
v 1.18851 0.09375 0.65086
v 1.18851 4.09375 0.65086
v 1.17395 0.09375 0.73745
v 1.17395 0.00000 0.73745
v 1.18851 0.00000 0.65086
v 1.18851 0.09375 0.65086
v 1.17395 4.24547 0.73745
v 1.17395 4.09375 0.73745
v 1.18851 4.09375 0.65086
v 1.18851 4.24547 0.65086
v 1.03614 4.09375 0.62150
v 1.03614 0.09375 0.62150
v 1.02036 0.09375 0.71537
v 1.02036 4.09375 0.71537
v 1.18851 4.09375 0.65086
v 1.18851 0.09375 0.65086
v 1.19062 0.09375 0.64009
v 1.19062 4.09375 0.64009
v 1.18851 0.09375 0.65086
v 1.18851 0.00000 0.65086
v 1.19062 0.00000 0.64009
v 1.19062 0.09375 0.64009
v 1.18851 4.24547 0.65086
v 1.18851 4.09375 0.65086
v 1.19062 4.09375 0.64009
v 1.19062 4.24547 0.64009
v 1.03843 4.09375 0.60982
v 1.03843 0.09375 0.60982
v 1.03614 0.09375 0.62150
v 1.03614 4.09375 0.62150
v 1.19062 4.09375 0.64009
v 1.19062 0.09375 0.64009
v 1.20718 0.09375 0.56507
v 1.20718 4.09375 0.56507
v 1.19062 0.09375 0.64009
v 1.19062 0.00000 0.64009
v 1.20718 0.00000 0.56507
v 1.20718 0.09375 0.56507
v 1.19062 4.24547 0.64009
v 1.19062 4.09375 0.64009
v 1.20718 4.09375 0.56507
v 1.20718 4.24547 0.56507
v 1.05638 4.09375 0.52848
v 1.05638 0.09375 0.52848
v 1.03843 0.09375 0.60982
v 1.03843 4.09375 0.60982
v 1.20718 4.09375 0.56507
v 1.20718 0.09375 0.56507
v 1.22990 0.09375 0.48025
v 1.22990 4.09375 0.48025
v 1.20718 0.09375 0.56507
v 1.20718 0.00000 0.56507
v 1.22990 0.00000 0.48025
v 1.22990 0.09375 0.48025
v 1.20718 4.24547 0.56507
v 1.20718 4.09375 0.56507
v 1.22990 4.09375 0.48025
v 1.22990 4.24547 0.48025
v 1.08101 4.09375 0.43653
v 1.08101 0.09375 0.43653
v 1.05638 0.09375 0.52848
v 1.05638 4.09375 0.52848
v 1.22990 4.09375 0.48025
v 1.22990 0.09375 0.48025
v 1.25664 0.09375 0.39662
v 1.25664 4.09375 0.39662
v 1.22990 0.09375 0.48025
v 1.22990 0.00000 0.48025
v 1.25664 0.00000 0.39662
v 1.25664 0.09375 0.39662
v 1.22990 4.24547 0.48025
v 1.22990 4.09375 0.48025
v 1.25664 4.09375 0.39662
v 1.25664 4.24547 0.39662
v 1.11000 4.09375 0.34586
v 1.11000 0.09375 0.34586
v 1.08101 0.09375 0.43653
v 1.08101 4.09375 0.43653
v 1.25664 4.09375 0.39662
v 1.25664 0.09375 0.39662
v 1.28732 0.09375 0.31435
v 1.28732 4.09375 0.31435
v 1.25664 0.09375 0.39662
v 1.25664 0.00000 0.39662
v 1.28732 0.00000 0.31435
v 1.28732 0.09375 0.31435
v 1.25664 4.24547 0.39662
v 1.25664 4.09375 0.39662
v 1.28732 4.09375 0.31435
v 1.28732 4.24547 0.31435
v 1.14326 4.09375 0.25668
v 1.14326 0.09375 0.25668
v 1.11000 0.09375 0.34586
v 1.11000 4.09375 0.34586
v 1.28732 4.09375 0.31435
v 1.28732 0.09375 0.31435
v 1.29560 0.09375 0.29402
v 1.29560 4.09375 0.29402
v 1.28732 0.09375 0.31435
v 1.28732 0.00000 0.31435
v 1.29560 0.00000 0.29402
v 1.29560 0.09375 0.29402
v 1.28732 4.24547 0.31435
v 1.28732 4.09375 0.31435
v 1.29560 4.09375 0.29402
v 1.29560 4.24547 0.29402
v 1.15224 4.09375 0.23463
v 1.15224 0.09375 0.23463
v 1.14326 0.09375 0.25668
v 1.14326 4.09375 0.25668
v 1.29560 4.09375 0.29402
v 1.29560 0.09375 0.29402
v 1.32189 0.09375 0.23363
v 1.32189 4.09375 0.23363
v 1.29560 0.09375 0.29402
v 1.29560 0.00000 0.29402
v 1.32189 0.00000 0.23363
v 1.32189 0.09375 0.23363
v 1.29560 4.24547 0.29402
v 1.29560 4.09375 0.29402
v 1.32189 4.09375 0.23363
v 1.32189 4.24547 0.23363
v 1.18074 4.09375 0.16917
v 1.18074 0.09375 0.16917
v 1.15224 0.09375 0.23463
v 1.15224 4.09375 0.23463
v 1.32189 4.09375 0.23363
v 1.32189 0.09375 0.23363
v 1.36025 0.09375 0.15465
v 1.36025 4.09375 0.15465
v 1.32189 0.09375 0.23363
v 1.32189 0.00000 0.23363
v 1.36025 0.00000 0.15465
v 1.36025 0.09375 0.15465
v 1.32189 4.24547 0.23363
v 1.32189 4.09375 0.23363
v 1.36025 4.09375 0.15465
v 1.36025 4.24547 0.15465
v 1.22233 4.09375 0.08355
v 1.22233 0.09375 0.08355
v 1.18074 0.09375 0.16917
v 1.18074 4.09375 0.16917
v 1.36025 4.09375 0.15465
v 1.36025 0.09375 0.15465
v 1.40233 0.09375 0.07759
v 1.40233 4.09375 0.07759
v 1.36025 0.09375 0.15465
v 1.36025 0.00000 0.15465
v 1.40233 0.00000 0.07759
v 1.40233 0.09375 0.07759
v 1.36025 4.24547 0.15465
v 1.36025 4.09375 0.15465
v 1.40233 4.09375 0.07759
v 1.40233 4.24547 0.07759
v 1.26795 4.09375 0.00000
v 1.26795 0.09375 0.00000
v 1.22233 0.09375 0.08355
v 1.22233 4.09375 0.08355
v 1.40233 4.09375 0.07759
v 1.40233 0.09375 0.07759
v 1.44803 0.09375 0.00261
v 1.44803 4.09375 0.00261
v 1.40233 0.09375 0.07759
v 1.40233 0.00000 0.07759
v 1.44803 0.00000 0.00261
v 1.44803 0.09375 0.00261
v 1.40233 4.24547 0.07759
v 1.40233 4.09375 0.07759
v 1.44803 4.09375 0.00261
v 1.44803 4.24547 0.00261
v 1.44803 4.09375 0.00261
v 1.44803 0.09375 0.00261
v 1.44975 0.09375 0.00000
v 1.44975 4.09375 0.00000
v 1.44803 0.09375 0.00261
v 1.44803 0.00000 0.00261
v 1.44975 0.00000 0.00000
v 1.44975 0.09375 0.00000
v 1.44803 4.24547 0.00261
v 1.44803 4.09375 0.00261
v 1.44975 4.09375 0.00000
v 1.44975 4.24547 0.00000
vt 0.50000 0.22618
vt 0.25000 0.21427
vt 0.25000 0.25000
vt 0.50000 0.25000
vt 0.50000 0.25000
vt 0.25000 0.25000
vt 0.25000 0.21427
vt 0.50000 0.22618
vt 0.50000 0.22618
vt 0.25000 0.21427
vt 0.25000 0.25000
vt 0.50000 0.25000
vt 0.02344 0.00000
vt 0.17448 0.00000
vt 0.17499 0.04165
vt 0.02378 0.04165
vt 0.50000 0.20226
vt 0.25000 0.17838
vt 0.25000 0.21427
vt 0.50000 0.22618
vt 0.50000 0.22618
vt 0.25000 0.21427
vt 0.25000 0.17838
vt 0.50000 0.20226
vt 0.50000 0.20226
vt 0.25000 0.17838
vt 0.25000 0.21427
vt 0.50000 0.22618
vt 0.02378 0.04165
vt 0.17499 0.04165
vt 0.17654 0.08330
vt 0.02481 0.08330
vt 0.50000 0.17811
vt 0.25000 0.14217
vt 0.25000 0.17838
vt 0.50000 0.20226
vt 0.50000 0.20226
vt 0.25000 0.17838
vt 0.25000 0.14217
vt 0.50000 0.17811
vt 0.50000 0.17811
vt 0.25000 0.14217
vt 0.25000 0.17838
vt 0.50000 0.20226
vt 0.02481 0.08330
vt 0.17654 0.08330
vt 0.17914 0.12495
vt 0.02654 0.12495
vt 0.50000 0.15363
vt 0.25000 0.10545
vt 0.25000 0.14217
vt 0.50000 0.17811
vt 0.50000 0.17811
vt 0.25000 0.14217
vt 0.25000 0.10545
vt 0.50000 0.15363
vt 0.50000 0.15363
vt 0.25000 0.10545
vt 0.25000 0.14217
vt 0.50000 0.17811
vt 0.02654 0.12495
vt 0.17914 0.12495
vt 0.18282 0.16660
vt 0.02900 0.16660
vt 0.50000 0.15054
vt 0.25000 0.10082
vt 0.25000 0.10545
vt 0.50000 0.15363
vt 0.50000 0.15363
vt 0.25000 0.10545
vt 0.25000 0.10082
vt 0.50000 0.15054
vt 0.50000 0.15054
vt 0.25000 0.10082
vt 0.25000 0.10545
vt 0.50000 0.15363
vt 0.02900 0.16660
vt 0.18282 0.16660
vt 0.18336 0.17181
vt 0.02936 0.17181
vt 0.50000 0.12870
vt 0.25000 0.06805
vt 0.25000 0.10082
vt 0.50000 0.15054
vt 0.50000 0.15054
vt 0.25000 0.10082
vt 0.25000 0.06805
vt 0.50000 0.12870
vt 0.50000 0.12870
vt 0.25000 0.06805
vt 0.25000 0.10082
vt 0.50000 0.15054
vt 0.02936 0.17181
vt 0.18336 0.17181
vt 0.18762 0.20825
vt 0.03220 0.20825
vt 0.50000 0.10319
vt 0.25000 0.02978
vt 0.25000 0.06805
vt 0.50000 0.12870
vt 0.50000 0.12870
vt 0.25000 0.06805
vt 0.25000 0.02978
vt 0.50000 0.10319
vt 0.50000 0.10319
vt 0.25000 0.02978
vt 0.25000 0.06805
vt 0.50000 0.12870
vt 0.03220 0.20825
vt 0.18762 0.20825
vt 0.19361 0.24990
vt 0.03619 0.24990
vt 0.27767 0.00000
vt 0.25000 0.00000
vt 0.25000 0.02978
vt 0.50000 0.10319
vt 0.50000 0.07695
vt 0.27767 0.00000
vt 0.50000 0.10319
vt 0.50000 0.10319
vt 0.25000 0.02978
vt 0.25000 0.00000
vt 0.27767 0.00000
vt 0.50000 0.10319
vt 0.27767 0.00000
vt 0.50000 0.07695
vt 0.27767 0.00000
vt 0.25000 0.00000
vt 0.25000 0.02978
vt 0.50000 0.10319
vt 0.50000 0.07695
vt 0.27767 0.00000
vt 0.50000 0.10319
vt 0.03619 0.24990
vt 0.19361 0.24990
vt 0.19899 0.28153
vt 0.18316 0.29155
vt 0.03619 0.24990
vt 0.18316 0.29155
vt 0.04102 0.29155
vt 0.50000 0.04983
vt 0.37553 0.00000
vt 0.27767 0.00000
vt 0.50000 0.07695
vt 0.50000 0.07695
vt 0.27767 0.00000
vt 0.37553 0.00000
vt 0.50000 0.04983
vt 0.50000 0.04983
vt 0.37553 0.00000
vt 0.27767 0.00000
vt 0.50000 0.07695
vt 0.04102 0.29155
vt 0.18316 0.29155
vt 0.12775 0.33320
vt 0.04675 0.33320
vt 0.50000 0.04289
vt 0.39645 0.00000
vt 0.37553 0.00000
vt 0.50000 0.04983
vt 0.50000 0.04983
vt 0.37553 0.00000
vt 0.39645 0.00000
vt 0.50000 0.04289
vt 0.50000 0.04289
vt 0.39645 0.00000
vt 0.37553 0.00000
vt 0.50000 0.04983
vt 0.04675 0.33320
vt 0.12775 0.33320
vt 0.11605 0.34361
vt 0.04833 0.34361
vt 0.50000 0.02166
vt 0.45258 0.00000
vt 0.39645 0.00000
vt 0.50000 0.04289
vt 0.50000 0.04289
vt 0.39645 0.00000
vt 0.45258 0.00000
vt 0.50000 0.02166
vt 0.50000 0.02166
vt 0.45258 0.00000
vt 0.39645 0.00000
vt 0.50000 0.04289
vt 0.04833 0.34361
vt 0.11605 0.34361
vt 0.08495 0.37485
vt 0.05345 0.37485
vt 0.50000 0.00000
vt 0.45258 0.00000
vt 0.50000 0.02166
vt 0.50000 0.02166
vt 0.45258 0.00000
vt 0.50000 0.00000
vt 0.50000 0.00000
vt 0.45258 0.00000
vt 0.50000 0.02166
vt 0.05345 0.37485
vt 0.08495 0.37485
vt 0.05909 0.40569
vt 0.53932 0.22805
vt 0.50000 0.22618
vt 0.50000 0.25000
vt 0.53879 0.25000
vt 0.53879 0.25000
vt 0.50000 0.25000
vt 0.50000 0.22618
vt 0.53932 0.22805
vt 0.53932 0.22805
vt 0.50000 0.22618
vt 0.50000 0.25000
vt 0.53879 0.25000
vt 0.00000 0.00000
vt 0.02344 0.00000
vt 0.02378 0.04165
vt 0.00000 0.04165
vt 0.54088 0.20616
vt 0.50000 0.20226
vt 0.50000 0.22618
vt 0.53932 0.22805
vt 0.53932 0.22805
vt 0.50000 0.22618
vt 0.50000 0.20226
vt 0.54088 0.20616
vt 0.54088 0.20616
vt 0.50000 0.20226
vt 0.50000 0.22618
vt 0.53932 0.22805
vt 0.00000 0.04165
vt 0.02378 0.04165
vt 0.02481 0.08330
vt 0.00000 0.08330
vt 0.54349 0.18436
vt 0.50000 0.17811
vt 0.50000 0.20226
vt 0.54088 0.20616
vt 0.54088 0.20616
vt 0.50000 0.20226
vt 0.50000 0.17811
vt 0.54349 0.18436
vt 0.54349 0.18436
vt 0.50000 0.17811
vt 0.50000 0.20226
vt 0.54088 0.20616
vt 0.00000 0.08330
vt 0.02481 0.08330
vt 0.02654 0.12495
vt 0.00000 0.12495
vt 0.54713 0.16272
vt 0.50000 0.15363
vt 0.50000 0.17811
vt 0.54349 0.18436
vt 0.54349 0.18436
vt 0.50000 0.17811
vt 0.50000 0.15363
vt 0.54713 0.16272
vt 0.54713 0.16272
vt 0.50000 0.15363
vt 0.50000 0.17811
vt 0.54349 0.18436
vt 0.00000 0.12495
vt 0.02654 0.12495
vt 0.02900 0.16660
vt 0.00000 0.16660
vt 0.54766 0.16002
vt 0.50000 0.15054
vt 0.50000 0.15363
vt 0.54713 0.16272
vt 0.54713 0.16272
vt 0.50000 0.15363
vt 0.50000 0.15054
vt 0.54766 0.16002
vt 0.54766 0.16002
vt 0.50000 0.15054
vt 0.50000 0.15363
vt 0.54713 0.16272
vt 0.00000 0.16660
vt 0.02900 0.16660
vt 0.02936 0.17181
vt 0.00000 0.17181
vt 0.55179 0.14127
vt 0.50000 0.12870
vt 0.50000 0.15054
vt 0.54766 0.16002
vt 0.54766 0.16002
vt 0.50000 0.15054
vt 0.50000 0.12870
vt 0.55179 0.14127
vt 0.55179 0.14127
vt 0.50000 0.12870
vt 0.50000 0.15054
vt 0.54766 0.16002
vt 0.00000 0.17181
vt 0.02936 0.17181
vt 0.03220 0.20825
vt 0.00000 0.20825
vt 0.55748 0.12006
vt 0.50000 0.10319
vt 0.50000 0.12870
vt 0.55179 0.14127
vt 0.55179 0.14127
vt 0.50000 0.12870
vt 0.50000 0.10319
vt 0.55748 0.12006
vt 0.55748 0.12006
vt 0.50000 0.10319
vt 0.50000 0.12870
vt 0.55179 0.14127
vt 0.00000 0.20825
vt 0.03220 0.20825
vt 0.03619 0.24990
vt 0.00000 0.24990
vt 0.56416 0.09915
vt 0.50000 0.07695
vt 0.50000 0.10319
vt 0.55748 0.12006
vt 0.55748 0.12006
vt 0.50000 0.10319
vt 0.50000 0.07695
vt 0.56416 0.09915
vt 0.56416 0.09915
vt 0.50000 0.07695
vt 0.50000 0.10319
vt 0.55748 0.12006
vt 0.00000 0.24990
vt 0.03619 0.24990
vt 0.04102 0.29155
vt 0.00000 0.29155
vt 0.57183 0.07859
vt 0.50000 0.04983
vt 0.50000 0.07695
vt 0.56416 0.09915
vt 0.56416 0.09915
vt 0.50000 0.07695
vt 0.50000 0.04983
vt 0.57183 0.07859
vt 0.57183 0.07859
vt 0.50000 0.04983
vt 0.50000 0.07695
vt 0.56416 0.09915
vt 0.00000 0.29155
vt 0.04102 0.29155
vt 0.04675 0.33320
vt 0.00000 0.33320
vt 0.57390 0.07350
vt 0.50000 0.04289
vt 0.50000 0.04983
vt 0.57183 0.07859
vt 0.57183 0.07859
vt 0.50000 0.04983
vt 0.50000 0.04289
vt 0.57390 0.07350
vt 0.57390 0.07350
vt 0.50000 0.04289
vt 0.50000 0.04983
vt 0.57183 0.07859
vt 0.00000 0.33320
vt 0.04675 0.33320
vt 0.04833 0.34361
vt 0.00000 0.34361
vt 0.58047 0.05841
vt 0.50000 0.02166
vt 0.50000 0.04289
vt 0.57390 0.07350
vt 0.57390 0.07350
vt 0.50000 0.04289
vt 0.50000 0.02166
vt 0.58047 0.05841
vt 0.58047 0.05841
vt 0.50000 0.02166
vt 0.50000 0.04289
vt 0.57390 0.07350
vt 0.00000 0.34361
vt 0.04833 0.34361
vt 0.05345 0.37485
vt 0.00000 0.37485
vt 0.51507 0.00000
vt 0.50000 0.00000
vt 0.50000 0.02166
vt 0.58047 0.05841
vt 0.59006 0.03866
vt 0.51507 0.00000
vt 0.58047 0.05841
vt 0.58047 0.05841
vt 0.50000 0.02166
vt 0.50000 0.00000
vt 0.51507 0.00000
vt 0.58047 0.05841
vt 0.51507 0.00000
vt 0.59006 0.03866
vt 0.51507 0.00000
vt 0.50000 0.00000
vt 0.50000 0.02166
vt 0.58047 0.05841
vt 0.59006 0.03866
vt 0.51507 0.00000
vt 0.58047 0.05841
vt 0.00000 0.37485
vt 0.05345 0.37485
vt 0.05909 0.40569
vt 0.05098 0.41650
vt 0.00000 0.37485
vt 0.05098 0.41650
vt 0.00000 0.41650
vt 0.60058 0.01940
vt 0.56699 0.00000
vt 0.51507 0.00000
vt 0.59006 0.03866
vt 0.59006 0.03866
vt 0.51507 0.00000
vt 0.56699 0.00000
vt 0.60058 0.01940
vt 0.60058 0.01940
vt 0.56699 0.00000
vt 0.51507 0.00000
vt 0.59006 0.03866
vt 0.00000 0.41650
vt 0.05098 0.41650
vt 0.02344 0.45815
vt 0.00000 0.45815
vt 0.61201 0.00065
vt 0.61099 0.00000
vt 0.56699 0.00000
vt 0.60058 0.01940
vt 0.60058 0.01940
vt 0.56699 0.00000
vt 0.61099 0.00000
vt 0.61201 0.00065
vt 0.61201 0.00065
vt 0.61099 0.00000
vt 0.56699 0.00000
vt 0.60058 0.01940
vt 0.00000 0.45815
vt 0.02344 0.45815
vt 0.00073 0.49980
vt 0.00000 0.49980
vt 0.61244 0.00000
vt 0.61099 0.00000
vt 0.61201 0.00065
vt 0.61201 0.00065
vt 0.61099 0.00000
vt 0.61244 0.00000
vt 0.61244 0.00000
vt 0.61099 0.00000
vt 0.61201 0.00065
vt 0.00000 0.00000
vt 0.00073 0.00000
vt 0.00000 0.00128
vt 0.00000 0.00000
vt 0.00000 0.90625
vt 0.04545 0.90625
vt 0.04545 0.00000
vt 0.00000 0.00000
vt 0.00000 0.09375
vt 0.09091 0.09375
vt 0.09091 0.00000
vt 0.00000 0.00000
vt 0.00000 0.09375
vt 0.09091 0.09375
vt 0.09091 0.00000
vt 0.04545 0.00000
vt 0.04545 0.90625
vt 0.00000 0.90625
vt 0.00000 0.00000
vt 0.04545 0.00000
vt 0.04545 0.90625
vt 0.09091 0.90625
vt 0.09091 0.00000
vt 0.09091 0.00000
vt 0.09091 0.09375
vt 0.18182 0.09375
vt 0.18182 0.00000
vt 0.09091 0.00000
vt 0.09091 0.09375
vt 0.18182 0.09375
vt 0.18182 0.00000
vt 0.09091 0.00000
vt 0.09091 0.90625
vt 0.04545 0.90625
vt 0.04545 0.00000
vt 0.09091 0.00000
vt 0.09091 0.90625
vt 0.13636 0.90625
vt 0.13636 0.00000
vt 0.18182 0.00000
vt 0.18182 0.09375
vt 0.27273 0.09375
vt 0.27273 0.00000
vt 0.18182 0.00000
vt 0.18182 0.09375
vt 0.27273 0.09375
vt 0.27273 0.00000
vt 0.13636 0.00000
vt 0.13636 0.90625
vt 0.09091 0.90625
vt 0.09091 0.00000
vt 0.13636 0.00000
vt 0.13636 0.90625
vt 0.18182 0.90625
vt 0.18182 0.00000
vt 0.27273 0.00000
vt 0.27273 0.09375
vt 0.36363 0.09375
vt 0.36363 0.00000
vt 0.27273 0.00000
vt 0.27273 0.09375
vt 0.36363 0.09375
vt 0.36363 0.00000
vt 0.18182 0.00000
vt 0.18182 0.90625
vt 0.13636 0.90625
vt 0.13636 0.00000
vt 0.18182 0.00000
vt 0.18182 0.90625
vt 0.18750 0.90625
vt 0.18750 0.00000
vt 0.36363 0.00000
vt 0.36363 0.09375
vt 0.37500 0.09375
vt 0.37500 0.00000
vt 0.36363 0.00000
vt 0.36363 0.09375
vt 0.37500 0.09375
vt 0.37500 0.00000
vt 0.18750 0.00000
vt 0.18750 0.90625
vt 0.18182 0.90625
vt 0.18182 0.00000
vt 0.18750 0.00000
vt 0.18750 0.90625
vt 0.22727 0.90625
vt 0.22727 0.00000
vt 0.37500 0.00000
vt 0.37500 0.09375
vt 0.45454 0.09375
vt 0.45454 0.00000
vt 0.37500 0.00000
vt 0.37500 0.09375
vt 0.45454 0.09375
vt 0.45454 0.00000
vt 0.22727 0.00000
vt 0.22727 0.90625
vt 0.18750 0.90625
vt 0.18750 0.00000
vt 0.22727 0.00000
vt 0.22727 0.90625
vt 0.27273 0.90625
vt 0.27273 0.00000
vt 0.45454 0.00000
vt 0.45454 0.09375
vt 0.54545 0.09375
vt 0.54545 0.00000
vt 0.45454 0.00000
vt 0.45454 0.09375
vt 0.54545 0.09375
vt 0.54545 0.00000
vt 0.27273 0.00000
vt 0.27273 0.90625
vt 0.22727 0.90625
vt 0.22727 0.00000
vt 0.27273 0.00000
vt 0.27273 0.90625
vt 0.31818 0.90625
vt 0.31818 0.00000
vt 0.54545 0.00000
vt 0.54545 0.09375
vt 0.63636 0.09375
vt 0.63636 0.00000
vt 0.54545 0.00000
vt 0.54545 0.09375
vt 0.63636 0.09375
vt 0.63636 0.00000
vt 0.31818 0.00000
vt 0.31818 0.90625
vt 0.27273 0.90625
vt 0.27273 0.00000
vt 0.31818 0.00000
vt 0.31818 0.90625
vt 0.36363 0.90625
vt 0.36363 0.00000
vt 0.63636 0.00000
vt 0.63636 0.09375
vt 0.72727 0.09375
vt 0.72727 0.00000
vt 0.63636 0.00000
vt 0.63636 0.09375
vt 0.72727 0.09375
vt 0.72727 0.00000
vt 0.36363 0.00000
vt 0.36363 0.90625
vt 0.31818 0.90625
vt 0.31818 0.00000
vt 0.36363 0.00000
vt 0.36363 0.90625
vt 0.37500 0.90625
vt 0.37500 0.00000
vt 0.72727 0.00000
vt 0.72727 0.09375
vt 0.75000 0.09375
vt 0.75000 0.00000
vt 0.72727 0.00000
vt 0.72727 0.09375
vt 0.75000 0.09375
vt 0.75000 0.00000
vt 0.37500 0.00000
vt 0.37500 0.90625
vt 0.36363 0.90625
vt 0.36363 0.00000
vt 0.37500 0.00000
vt 0.37500 0.90625
vt 0.40909 0.90625
vt 0.40909 0.00000
vt 0.75000 0.00000
vt 0.75000 0.09375
vt 0.81818 0.09375
vt 0.81818 0.00000
vt 0.75000 0.00000
vt 0.75000 0.09375
vt 0.81818 0.09375
vt 0.81818 0.00000
vt 0.40909 0.00000
vt 0.40909 0.90625
vt 0.37500 0.90625
vt 0.37500 0.00000
vt 0.40909 0.00000
vt 0.40909 0.90625
vt 0.45455 0.90625
vt 0.45455 0.00000
vt 0.81818 0.00000
vt 0.81818 0.09375
vt 0.90909 0.09375
vt 0.90909 0.00000
vt 0.81818 0.00000
vt 0.81818 0.09375
vt 0.90909 0.09375
vt 0.90909 0.00000
vt 0.45455 0.00000
vt 0.45455 0.90625
vt 0.40909 0.90625
vt 0.40909 0.00000
vt 0.45455 0.00000
vt 0.45455 0.90625
vt 0.50000 0.90625
vt 0.50000 0.00000
vt 0.90909 0.00000
vt 0.90909 0.09375
vt 1.00000 0.09375
vt 1.00000 0.00000
vt 0.90909 0.00000
vt 0.90909 0.09375
vt 1.00000 0.09375
vt 1.00000 0.00000
vt 0.50000 0.00000
vt 0.50000 0.90625
vt 0.45455 0.90625
vt 0.45455 0.00000
vt 0.00000 0.00000
vt 0.00000 0.90625
vt 0.04545 0.90625
vt 0.04545 0.00000
vt 0.00000 0.00000
vt 0.00000 0.09375
vt 0.09091 0.09375
vt 0.09091 0.00000
vt 0.00000 0.00000
vt 0.00000 0.09375
vt 0.09091 0.09375
vt 0.09091 0.00000
vt 0.04545 0.00000
vt 0.04545 0.90625
vt 0.04707 0.90625
vt 0.04707 0.00000
vt 0.09091 0.00000
vt 0.09091 0.09375
vt 0.09414 0.09375
vt 0.09414 0.00000
vt 0.09091 0.00000
vt 0.09091 0.09375
vt 0.09414 0.09375
vt 0.09414 0.00000
vn 0.00000 1.00000 0.00000
vn 0.00000 1.00000 0.00000
vn 0.00000 1.00000 0.00000
vn 0.00000 1.00000 0.00000
vn 0.00000 -1.00000 0.00000
vn 0.00000 -1.00000 0.00000
vn 0.00000 -1.00000 0.00000
vn 0.00000 -1.00000 0.00000
vn 0.00000 1.00000 0.00000
vn 0.00000 1.00000 0.00000
vn 0.00000 1.00000 0.00000
vn 0.00000 1.00000 0.00000
vn 0.00000 -1.00000 0.00000
vn 0.00000 -1.00000 0.00000
vn 0.00000 -1.00000 0.00000
vn 0.00000 -1.00000 0.00000
vn 0.00000 1.00000 0.00000
vn 0.00000 1.00000 0.00000
vn 0.00000 1.00000 0.00000
vn 0.00000 1.00000 0.00000
vn 0.00000 -1.00000 0.00000
vn 0.00000 -1.00000 0.00000
vn 0.00000 -1.00000 0.00000
vn 0.00000 -1.00000 0.00000
vn 0.00000 1.00000 0.00000
vn 0.00000 1.00000 0.00000
vn 0.00000 1.00000 0.00000
vn 0.00000 1.00000 0.00000
vn 0.00000 -1.00000 0.00000
vn 0.00000 -1.00000 0.00000
vn 0.00000 -1.00000 0.00000
vn 0.00000 -1.00000 0.00000
vn 0.00000 1.00000 0.00000
vn 0.00000 1.00000 0.00000
vn 0.00000 1.00000 0.00000
vn 0.00000 1.00000 0.00000
vn 0.00000 -1.00000 0.00000
vn 0.00000 -1.00000 0.00000
vn 0.00000 -1.00000 0.00000
vn 0.00000 -1.00000 0.00000
vn 0.00000 1.00000 0.00000
vn 0.00000 1.00000 0.00000
vn 0.00000 1.00000 0.00000
vn 0.00000 1.00000 0.00000
vn 0.00000 -1.00000 0.00000
vn 0.00000 -1.00000 0.00000
vn 0.00000 -1.00000 0.00000
vn 0.00000 -1.00000 0.00000
vn 0.00000 1.00000 0.00000
vn 0.00000 1.00000 0.00000
vn 0.00000 1.00000 0.00000
vn 0.00000 1.00000 0.00000
vn 0.00000 -1.00000 0.00000
vn 0.00000 -1.00000 0.00000
vn 0.00000 -1.00000 0.00000
vn 0.00000 -1.00000 0.00000
vn 0.00000 1.00000 0.00000
vn 0.00000 1.00000 0.00000
vn 0.00000 1.00000 0.00000
vn 0.00000 1.00000 0.00000
vn 0.00000 -1.00000 0.00000
vn 0.00000 -1.00000 0.00000
vn 0.00000 -1.00000 0.00000
vn 0.00000 -1.00000 0.00000
vn 0.00000 1.00000 0.00000
vn 0.00000 1.00000 0.00000
vn 0.00000 1.00000 0.00000
vn 0.00000 1.00000 0.00000
vn 0.00000 -1.00000 0.00000
vn 0.00000 -1.00000 0.00000
vn 0.00000 -1.00000 0.00000
vn 0.00000 -1.00000 0.00000
vn 0.00000 1.00000 0.00000
vn 0.00000 1.00000 0.00000
vn 0.00000 1.00000 0.00000
vn 0.00000 1.00000 0.00000
vn 0.00000 -1.00000 0.00000
vn 0.00000 -1.00000 0.00000
vn 0.00000 -1.00000 0.00000
vn 0.00000 -1.00000 0.00000
vn 0.00000 1.00000 0.00000
vn 0.00000 1.00000 0.00000
vn 0.00000 1.00000 0.00000
vn 0.00000 1.00000 0.00000
vn 0.00000 -1.00000 0.00000
vn 0.00000 -1.00000 0.00000
vn 0.00000 -1.00000 0.00000
vn 0.00000 -1.00000 0.00000
vn 0.00000 1.00000 0.00000
vn 0.00000 1.00000 0.00000
vn 0.00000 1.00000 0.00000
vn 0.00000 1.00000 0.00000
vn 0.00000 -1.00000 0.00000
vn 0.00000 -1.00000 0.00000
vn 0.00000 -1.00000 0.00000
vn 0.00000 -1.00000 0.00000
vn 0.00000 1.00000 0.00000
vn 0.00000 1.00000 0.00000
vn 0.00000 1.00000 0.00000
vn 0.00000 1.00000 0.00000
vn 0.00000 -1.00000 0.00000
vn 0.00000 -1.00000 0.00000
vn 0.00000 -1.00000 0.00000
vn 0.00000 -1.00000 0.00000
vn 0.00000 1.00000 0.00000
vn 0.00000 1.00000 0.00000
vn 0.00000 1.00000 0.00000
vn 0.00000 1.00000 0.00000
vn 0.00000 -1.00000 0.00000
vn 0.00000 -1.00000 0.00000
vn 0.00000 -1.00000 0.00000
vn 0.00000 -1.00000 0.00000
vn 0.00000 1.00000 0.00000
vn 0.00000 1.00000 0.00000
vn 0.00000 1.00000 0.00000
vn 0.00000 1.00000 0.00000
vn 0.00000 1.00000 0.00000
vn 0.00000 1.00000 0.00000
vn 0.00000 1.00000 0.00000
vn 0.00000 -1.00000 0.00000
vn 0.00000 -1.00000 0.00000
vn 0.00000 -1.00000 0.00000
vn 0.00000 -1.00000 0.00000
vn 0.00000 -1.00000 0.00000
vn 0.00000 -1.00000 0.00000
vn 0.00000 -1.00000 0.00000
vn 0.00000 1.00000 0.00000
vn 0.00000 1.00000 0.00000
vn 0.00000 1.00000 0.00000
vn 0.00000 1.00000 0.00000
vn 0.00000 1.00000 0.00000
vn 0.00000 1.00000 0.00000
vn 0.00000 1.00000 0.00000
vn 0.00000 -1.00000 0.00000
vn 0.00000 -1.00000 0.00000
vn 0.00000 -1.00000 0.00000
vn 0.00000 -1.00000 0.00000
vn 0.00000 -1.00000 0.00000
vn 0.00000 -1.00000 0.00000
vn 0.00000 -1.00000 0.00000
vn 0.00000 1.00000 0.00000
vn 0.00000 1.00000 0.00000
vn 0.00000 1.00000 0.00000
vn 0.00000 1.00000 0.00000
vn 0.00000 -1.00000 0.00000
vn 0.00000 -1.00000 0.00000
vn 0.00000 -1.00000 0.00000
vn 0.00000 -1.00000 0.00000
vn 0.00000 1.00000 0.00000
vn 0.00000 1.00000 0.00000
vn 0.00000 1.00000 0.00000
vn 0.00000 1.00000 0.00000
vn 0.00000 -1.00000 0.00000
vn 0.00000 -1.00000 0.00000
vn 0.00000 -1.00000 0.00000
vn 0.00000 -1.00000 0.00000
vn 0.00000 1.00000 0.00000
vn 0.00000 1.00000 0.00000
vn 0.00000 1.00000 0.00000
vn 0.00000 1.00000 0.00000
vn 0.00000 -1.00000 0.00000
vn 0.00000 -1.00000 0.00000
vn 0.00000 -1.00000 0.00000
vn 0.00000 -1.00000 0.00000
vn 0.00000 1.00000 0.00000
vn 0.00000 1.00000 0.00000
vn 0.00000 1.00000 0.00000
vn 0.00000 1.00000 0.00000
vn 0.00000 -1.00000 0.00000
vn 0.00000 -1.00000 0.00000
vn 0.00000 -1.00000 0.00000
vn 0.00000 -1.00000 0.00000
vn 0.00000 1.00000 0.00000
vn 0.00000 1.00000 0.00000
vn 0.00000 1.00000 0.00000
vn 0.00000 1.00000 0.00000
vn 0.00000 -1.00000 0.00000
vn 0.00000 -1.00000 0.00000
vn 0.00000 -1.00000 0.00000
vn 0.00000 -1.00000 0.00000
vn 0.00000 1.00000 0.00000
vn 0.00000 1.00000 0.00000
vn 0.00000 1.00000 0.00000
vn 0.00000 1.00000 0.00000
vn 0.00000 -1.00000 0.00000
vn 0.00000 -1.00000 0.00000
vn 0.00000 -1.00000 0.00000
vn 0.00000 -1.00000 0.00000
vn 0.00000 1.00000 0.00000
vn 0.00000 1.00000 0.00000
vn 0.00000 1.00000 0.00000
vn 0.00000 -1.00000 0.00000
vn 0.00000 -1.00000 0.00000
vn 0.00000 -1.00000 0.00000
vn 0.00000 1.00000 0.00000
vn 0.00000 1.00000 0.00000
vn 0.00000 1.00000 0.00000
vn 0.00000 -1.00000 0.00000
vn 0.00000 -1.00000 0.00000
vn 0.00000 -1.00000 0.00000
vn 0.00000 1.00000 0.00000
vn 0.00000 1.00000 0.00000
vn 0.00000 1.00000 0.00000
vn 0.00000 1.00000 0.00000
vn 0.00000 -1.00000 0.00000
vn 0.00000 -1.00000 0.00000
vn 0.00000 -1.00000 0.00000
vn 0.00000 -1.00000 0.00000
vn 0.00000 1.00000 0.00000
vn 0.00000 1.00000 0.00000
vn 0.00000 1.00000 0.00000
vn 0.00000 1.00000 0.00000
vn 0.00000 -1.00000 0.00000
vn 0.00000 -1.00000 0.00000
vn 0.00000 -1.00000 0.00000
vn 0.00000 -1.00000 0.00000
vn 0.00000 1.00000 0.00000
vn 0.00000 1.00000 0.00000
vn 0.00000 1.00000 0.00000
vn 0.00000 1.00000 0.00000
vn 0.00000 -1.00000 0.00000
vn 0.00000 -1.00000 0.00000
vn 0.00000 -1.00000 0.00000
vn 0.00000 -1.00000 0.00000
vn 0.00000 1.00000 0.00000
vn 0.00000 1.00000 0.00000
vn 0.00000 1.00000 0.00000
vn 0.00000 1.00000 0.00000
vn 0.00000 -1.00000 0.00000
vn 0.00000 -1.00000 0.00000
vn 0.00000 -1.00000 0.00000
vn 0.00000 -1.00000 0.00000
vn 0.00000 1.00000 0.00000
vn 0.00000 1.00000 0.00000
vn 0.00000 1.00000 0.00000
vn 0.00000 1.00000 0.00000
vn 0.00000 -1.00000 0.00000
vn 0.00000 -1.00000 0.00000
vn 0.00000 -1.00000 0.00000
vn 0.00000 -1.00000 0.00000
vn 0.00000 1.00000 0.00000
vn 0.00000 1.00000 0.00000
vn 0.00000 1.00000 0.00000
vn 0.00000 1.00000 0.00000
vn 0.00000 -1.00000 0.00000
vn 0.00000 -1.00000 0.00000
vn 0.00000 -1.00000 0.00000
vn 0.00000 -1.00000 0.00000
vn 0.00000 1.00000 0.00000
vn 0.00000 1.00000 0.00000
vn 0.00000 1.00000 0.00000
vn 0.00000 1.00000 0.00000
vn 0.00000 -1.00000 0.00000
vn 0.00000 -1.00000 0.00000
vn 0.00000 -1.00000 0.00000
vn 0.00000 -1.00000 0.00000
vn 0.00000 1.00000 0.00000
vn 0.00000 1.00000 0.00000
vn 0.00000 1.00000 0.00000
vn 0.00000 1.00000 0.00000
vn 0.00000 -1.00000 0.00000
vn 0.00000 -1.00000 0.00000
vn 0.00000 -1.00000 0.00000
vn 0.00000 -1.00000 0.00000
vn 0.00000 1.00000 0.00000
vn 0.00000 1.00000 0.00000
vn 0.00000 1.00000 0.00000
vn 0.00000 1.00000 0.00000
vn 0.00000 -1.00000 0.00000
vn 0.00000 -1.00000 0.00000
vn 0.00000 -1.00000 0.00000
vn 0.00000 -1.00000 0.00000
vn 0.00000 1.00000 0.00000
vn 0.00000 1.00000 0.00000
vn 0.00000 1.00000 0.00000
vn 0.00000 1.00000 0.00000
vn 0.00000 -1.00000 0.00000
vn 0.00000 -1.00000 0.00000
vn 0.00000 -1.00000 0.00000
vn 0.00000 -1.00000 0.00000
vn 0.00000 1.00000 0.00000
vn 0.00000 1.00000 0.00000
vn 0.00000 1.00000 0.00000
vn 0.00000 1.00000 0.00000
vn 0.00000 -1.00000 0.00000
vn 0.00000 -1.00000 0.00000
vn 0.00000 -1.00000 0.00000
vn 0.00000 -1.00000 0.00000
vn 0.00000 1.00000 0.00000
vn 0.00000 1.00000 0.00000
vn 0.00000 1.00000 0.00000
vn 0.00000 1.00000 0.00000
vn 0.00000 -1.00000 0.00000
vn 0.00000 -1.00000 0.00000
vn 0.00000 -1.00000 0.00000
vn 0.00000 -1.00000 0.00000
vn 0.00000 1.00000 0.00000
vn 0.00000 1.00000 0.00000
vn 0.00000 1.00000 0.00000
vn 0.00000 1.00000 0.00000
vn 0.00000 -1.00000 0.00000
vn 0.00000 -1.00000 0.00000
vn 0.00000 -1.00000 0.00000
vn 0.00000 -1.00000 0.00000
vn 0.00000 1.00000 0.00000
vn 0.00000 1.00000 0.00000
vn 0.00000 1.00000 0.00000
vn 0.00000 1.00000 0.00000
vn 0.00000 -1.00000 0.00000
vn 0.00000 -1.00000 0.00000
vn 0.00000 -1.00000 0.00000
vn 0.00000 -1.00000 0.00000
vn 0.00000 1.00000 0.00000
vn 0.00000 1.00000 0.00000
vn 0.00000 1.00000 0.00000
vn 0.00000 1.00000 0.00000
vn 0.00000 -1.00000 0.00000
vn 0.00000 -1.00000 0.00000
vn 0.00000 -1.00000 0.00000
vn 0.00000 -1.00000 0.00000
vn 0.00000 1.00000 0.00000
vn 0.00000 1.00000 0.00000
vn 0.00000 1.00000 0.00000
vn 0.00000 1.00000 0.00000
vn 0.00000 -1.00000 0.00000
vn 0.00000 -1.00000 0.00000
vn 0.00000 -1.00000 0.00000
vn 0.00000 -1.00000 0.00000
vn 0.00000 1.00000 0.00000
vn 0.00000 1.00000 0.00000
vn 0.00000 1.00000 0.00000
vn 0.00000 1.00000 0.00000
vn 0.00000 -1.00000 0.00000
vn 0.00000 -1.00000 0.00000
vn 0.00000 -1.00000 0.00000
vn 0.00000 -1.00000 0.00000
vn 0.00000 1.00000 0.00000
vn 0.00000 1.00000 0.00000
vn 0.00000 1.00000 0.00000
vn 0.00000 1.00000 0.00000
vn 0.00000 -1.00000 0.00000
vn 0.00000 -1.00000 0.00000
vn 0.00000 -1.00000 0.00000
vn 0.00000 -1.00000 0.00000
vn 0.00000 1.00000 0.00000
vn 0.00000 1.00000 0.00000
vn 0.00000 1.00000 0.00000
vn 0.00000 1.00000 0.00000
vn 0.00000 -1.00000 0.00000
vn 0.00000 -1.00000 0.00000
vn 0.00000 -1.00000 0.00000
vn 0.00000 -1.00000 0.00000
vn 0.00000 1.00000 0.00000
vn 0.00000 1.00000 0.00000
vn 0.00000 1.00000 0.00000
vn 0.00000 1.00000 0.00000
vn 0.00000 -1.00000 0.00000
vn 0.00000 -1.00000 0.00000
vn 0.00000 -1.00000 0.00000
vn 0.00000 -1.00000 0.00000
vn 0.00000 1.00000 0.00000
vn 0.00000 1.00000 0.00000
vn 0.00000 1.00000 0.00000
vn 0.00000 1.00000 0.00000
vn 0.00000 -1.00000 0.00000
vn 0.00000 -1.00000 0.00000
vn 0.00000 -1.00000 0.00000
vn 0.00000 -1.00000 0.00000
vn 0.00000 1.00000 0.00000
vn 0.00000 1.00000 0.00000
vn 0.00000 1.00000 0.00000
vn 0.00000 1.00000 0.00000
vn 0.00000 -1.00000 0.00000
vn 0.00000 -1.00000 0.00000
vn 0.00000 -1.00000 0.00000
vn 0.00000 -1.00000 0.00000
vn 0.00000 1.00000 0.00000
vn 0.00000 1.00000 0.00000
vn 0.00000 1.00000 0.00000
vn 0.00000 1.00000 0.00000
vn 0.00000 1.00000 0.00000
vn 0.00000 1.00000 0.00000
vn 0.00000 1.00000 0.00000
vn 0.00000 -1.00000 0.00000
vn 0.00000 -1.00000 0.00000
vn 0.00000 -1.00000 0.00000
vn 0.00000 -1.00000 0.00000
vn 0.00000 -1.00000 0.00000
vn 0.00000 -1.00000 0.00000
vn 0.00000 -1.00000 0.00000
vn 0.00000 1.00000 0.00000
vn 0.00000 1.00000 0.00000
vn 0.00000 1.00000 0.00000
vn 0.00000 1.00000 0.00000
vn 0.00000 1.00000 0.00000
vn 0.00000 1.00000 0.00000
vn 0.00000 1.00000 0.00000
vn 0.00000 -1.00000 0.00000
vn 0.00000 -1.00000 0.00000
vn 0.00000 -1.00000 0.00000
vn 0.00000 -1.00000 0.00000
vn 0.00000 -1.00000 0.00000
vn 0.00000 -1.00000 0.00000
vn 0.00000 -1.00000 0.00000
vn 0.00000 1.00000 0.00000
vn 0.00000 1.00000 0.00000
vn 0.00000 1.00000 0.00000
vn 0.00000 1.00000 0.00000
vn 0.00000 -1.00000 0.00000
vn 0.00000 -1.00000 0.00000
vn 0.00000 -1.00000 0.00000
vn 0.00000 -1.00000 0.00000
vn 0.00000 1.00000 0.00000
vn 0.00000 1.00000 0.00000
vn 0.00000 1.00000 0.00000
vn 0.00000 1.00000 0.00000
vn 0.00000 -1.00000 0.00000
vn 0.00000 -1.00000 0.00000
vn 0.00000 -1.00000 0.00000
vn 0.00000 -1.00000 0.00000
vn 0.00000 1.00000 0.00000
vn 0.00000 1.00000 0.00000
vn 0.00000 1.00000 0.00000
vn 0.00000 1.00000 0.00000
vn 0.00000 -1.00000 0.00000
vn 0.00000 -1.00000 0.00000
vn 0.00000 -1.00000 0.00000
vn 0.00000 -1.00000 0.00000
vn 0.00000 1.00000 0.00000
vn 0.00000 1.00000 0.00000
vn 0.00000 1.00000 0.00000
vn 0.00000 1.00000 0.00000
vn 0.00000 -1.00000 0.00000
vn 0.00000 -1.00000 0.00000
vn 0.00000 -1.00000 0.00000
vn 0.00000 -1.00000 0.00000
vn 0.00000 1.00000 0.00000
vn 0.00000 1.00000 0.00000
vn 0.00000 1.00000 0.00000
vn 0.00000 -1.00000 0.00000
vn 0.00000 -1.00000 0.00000
vn 0.00000 -1.00000 0.00000
vn 0.00000 1.00000 0.00000
vn 0.00000 1.00000 0.00000
vn 0.00000 1.00000 0.00000
vn 0.00000 -1.00000 0.00000
vn 0.00000 -1.00000 0.00000
vn 0.00000 -1.00000 0.00000
vn 0.99972 0.00000 0.02380
vn 0.99972 0.00000 0.02380
vn 0.99972 0.00000 0.02380
vn 0.99972 0.00000 0.02380
vn 0.99972 0.00000 0.02380
vn 0.99972 0.00000 0.02380
vn 0.99972 0.00000 0.02380
vn 0.99972 0.00000 0.02380
vn 0.99972 0.00000 0.02380
vn 0.99972 0.00000 0.02380
vn 0.99972 0.00000 0.02380
vn 0.99972 0.00000 0.02380
vn -0.99972 0.00000 -0.02380
vn -0.99972 0.00000 -0.02380
vn -0.99972 0.00000 -0.02380
vn -0.99972 0.00000 -0.02380
vn 0.99745 0.00000 0.07134
vn 0.99745 0.00000 0.07134
vn 0.99745 0.00000 0.07134
vn 0.99745 0.00000 0.07134
vn 0.99745 0.00000 0.07134
vn 0.99745 0.00000 0.07134
vn 0.99745 0.00000 0.07134
vn 0.99745 0.00000 0.07134
vn 0.99745 0.00000 0.07134
vn 0.99745 0.00000 0.07134
vn 0.99745 0.00000 0.07134
vn 0.99745 0.00000 0.07134
vn -0.99745 0.00000 -0.07134
vn -0.99745 0.00000 -0.07134
vn -0.99745 0.00000 -0.07134
vn -0.99745 0.00000 -0.07134
vn 0.99293 0.00000 0.11872
vn 0.99293 0.00000 0.11872
vn 0.99293 0.00000 0.11872
vn 0.99293 0.00000 0.11872
vn 0.99293 0.00000 0.11872
vn 0.99293 0.00000 0.11872
vn 0.99293 0.00000 0.11872
vn 0.99293 0.00000 0.11872
vn 0.99293 0.00000 0.11872
vn 0.99293 0.00000 0.11872
vn 0.99293 0.00000 0.11872
vn 0.99293 0.00000 0.11872
vn -0.99293 0.00000 -0.11872
vn -0.99293 0.00000 -0.11872
vn -0.99293 0.00000 -0.11872
vn -0.99293 0.00000 -0.11872
vn 0.98615 0.00000 0.16583
vn 0.98615 0.00000 0.16583
vn 0.98615 0.00000 0.16583
vn 0.98615 0.00000 0.16583
vn 0.98615 0.00000 0.16583
vn 0.98615 0.00000 0.16583
vn 0.98615 0.00000 0.16583
vn 0.98615 0.00000 0.16583
vn 0.98615 0.00000 0.16583
vn 0.98615 0.00000 0.16583
vn 0.98615 0.00000 0.16583
vn 0.98615 0.00000 0.16583
vn -0.98615 0.00000 -0.16583
vn -0.98615 0.00000 -0.16583
vn -0.98615 0.00000 -0.16583
vn -0.98615 0.00000 -0.16583
vn 0.98136 0.00000 0.19217
vn 0.98136 0.00000 0.19217
vn 0.98136 0.00000 0.19217
vn 0.98136 0.00000 0.19217
vn 0.98136 0.00000 0.19217
vn 0.98136 0.00000 0.19217
vn 0.98136 0.00000 0.19217
vn 0.98136 0.00000 0.19217
vn 0.98136 0.00000 0.19217
vn 0.98136 0.00000 0.19217
vn 0.98136 0.00000 0.19217
vn 0.98136 0.00000 0.19217
vn -0.98136 0.00000 -0.19217
vn -0.98136 0.00000 -0.19217
vn -0.98136 0.00000 -0.19217
vn -0.98136 0.00000 -0.19217
vn 0.97651 0.00000 0.21547
vn 0.97651 0.00000 0.21547
vn 0.97651 0.00000 0.21547
vn 0.97651 0.00000 0.21547
vn 0.97651 0.00000 0.21547
vn 0.97651 0.00000 0.21547
vn 0.97651 0.00000 0.21547
vn 0.97651 0.00000 0.21547
vn 0.97651 0.00000 0.21547
vn 0.97651 0.00000 0.21547
vn 0.97651 0.00000 0.21547
vn 0.97651 0.00000 0.21547
vn -0.97651 0.00000 -0.21547
vn -0.97651 0.00000 -0.21547
vn -0.97651 0.00000 -0.21547
vn -0.97651 0.00000 -0.21547
vn 0.96593 0.00000 0.25882
vn 0.96593 0.00000 0.25882
vn 0.96593 0.00000 0.25882
vn 0.96593 0.00000 0.25882
vn 0.96593 0.00000 0.25882
vn 0.96593 0.00000 0.25882
vn 0.96593 0.00000 0.25882
vn 0.96593 0.00000 0.25882
vn 0.96593 0.00000 0.25882
vn 0.96593 0.00000 0.25882
vn 0.96593 0.00000 0.25882
vn 0.96593 0.00000 0.25882
vn -0.96593 0.00000 -0.25882
vn -0.96593 0.00000 -0.25882
vn -0.96593 0.00000 -0.25882
vn -0.96593 0.00000 -0.25882
vn 0.95252 0.00000 0.30449
vn 0.95252 0.00000 0.30449
vn 0.95252 0.00000 0.30449
vn 0.95252 0.00000 0.30449
vn 0.95252 0.00000 0.30449
vn 0.95252 0.00000 0.30449
vn 0.95252 0.00000 0.30449
vn 0.95252 0.00000 0.30449
vn 0.95252 0.00000 0.30449
vn 0.95252 0.00000 0.30449
vn 0.95252 0.00000 0.30449
vn 0.95252 0.00000 0.30449
vn -0.95252 0.00000 -0.30449
vn -0.95252 0.00000 -0.30449
vn -0.95252 0.00000 -0.30449
vn -0.95252 0.00000 -0.30449
vn 0.93695 0.00000 0.34946
vn 0.93695 0.00000 0.34946
vn 0.93695 0.00000 0.34946
vn 0.93695 0.00000 0.34946
vn 0.93695 0.00000 0.34946
vn 0.93695 0.00000 0.34946
vn 0.93695 0.00000 0.34946
vn 0.93695 0.00000 0.34946
vn 0.93695 0.00000 0.34946
vn 0.93695 0.00000 0.34946
vn 0.93695 0.00000 0.34946
vn 0.93695 0.00000 0.34946
vn -0.93695 0.00000 -0.34946
vn -0.93695 0.00000 -0.34946
vn -0.93695 0.00000 -0.34946
vn -0.93695 0.00000 -0.34946
vn 0.92614 0.00000 0.37718
vn 0.92614 0.00000 0.37718
vn 0.92614 0.00000 0.37718
vn 0.92614 0.00000 0.37718
vn 0.92614 0.00000 0.37718
vn 0.92614 0.00000 0.37718
vn 0.92614 0.00000 0.37718
vn 0.92614 0.00000 0.37718
vn 0.92614 0.00000 0.37718
vn 0.92614 0.00000 0.37718
vn 0.92614 0.00000 0.37718
vn 0.92614 0.00000 0.37718
vn -0.92614 0.00000 -0.37718
vn -0.92614 0.00000 -0.37718
vn -0.92614 0.00000 -0.37718
vn -0.92614 0.00000 -0.37718
vn 0.91690 0.00000 0.39911
vn 0.91690 0.00000 0.39911
vn 0.91690 0.00000 0.39911
vn 0.91690 0.00000 0.39911
vn 0.91690 0.00000 0.39911
vn 0.91690 0.00000 0.39911
vn 0.91690 0.00000 0.39911
vn 0.91690 0.00000 0.39911
vn 0.91690 0.00000 0.39911
vn 0.91690 0.00000 0.39911
vn 0.91690 0.00000 0.39911
vn 0.91690 0.00000 0.39911
vn -0.91690 0.00000 -0.39911
vn -0.91690 0.00000 -0.39911
vn -0.91690 0.00000 -0.39911
vn -0.91690 0.00000 -0.39911
vn 0.89949 0.00000 0.43694
vn 0.89949 0.00000 0.43694
vn 0.89949 0.00000 0.43694
vn 0.89949 0.00000 0.43694
vn 0.89949 0.00000 0.43694
vn 0.89949 0.00000 0.43694
vn 0.89949 0.00000 0.43694
vn 0.89949 0.00000 0.43694
vn 0.89949 0.00000 0.43694
vn 0.89949 0.00000 0.43694
vn 0.89949 0.00000 0.43694
vn 0.89949 0.00000 0.43694
vn -0.89949 0.00000 -0.43694
vn -0.89949 0.00000 -0.43694
vn -0.89949 0.00000 -0.43694
vn -0.89949 0.00000 -0.43694
vn 0.87768 0.00000 0.47925
vn 0.87768 0.00000 0.47925
vn 0.87768 0.00000 0.47925
vn 0.87768 0.00000 0.47925
vn 0.87768 0.00000 0.47925
vn 0.87768 0.00000 0.47925
vn 0.87768 0.00000 0.47925
vn 0.87768 0.00000 0.47925
vn 0.87768 0.00000 0.47925
vn 0.87768 0.00000 0.47925
vn 0.87768 0.00000 0.47925
vn 0.87768 0.00000 0.47925
vn -0.87768 0.00000 -0.47925
vn -0.87768 0.00000 -0.47925
vn -0.87768 0.00000 -0.47925
vn -0.87768 0.00000 -0.47925
vn 0.85388 0.00000 0.52047
vn 0.85388 0.00000 0.52047
vn 0.85388 0.00000 0.52047
vn 0.85388 0.00000 0.52047
vn 0.85388 0.00000 0.52047
vn 0.85388 0.00000 0.52047
vn 0.85388 0.00000 0.52047
vn 0.85388 0.00000 0.52047
vn 0.85388 0.00000 0.52047
vn 0.85388 0.00000 0.52047
vn 0.85388 0.00000 0.52047
vn 0.85388 0.00000 0.52047
vn 0.83639 0.00000 0.54813
vn 0.83639 0.00000 0.54813
vn 0.83639 0.00000 0.54813
vn 0.83639 0.00000 0.54813
vn 0.83639 0.00000 0.54813
vn 0.83639 0.00000 0.54813
vn 0.83639 0.00000 0.54813
vn 0.83639 0.00000 0.54813
vn 0.83639 0.00000 0.54813
vn 0.83639 0.00000 0.54813
vn 0.83639 0.00000 0.54813
vn 0.83639 0.00000 0.54813
usemtl ceiling
f 13/13/13 14/14/14 15/15/15 16/16/16
f 29/29/29 30/30/30 31/31/31 32/32/32
f 45/45/45 46/46/46 47/47/47 48/48/48
f 61/61/61 62/62/62 63/63/63 64/64/64
f 77/77/77 78/78/78 79/79/79 80/80/80
f 93/93/93 94/94/94 95/95/95 96/96/96
f 109/109/109 110/110/110 111/111/111 112/112/112
f 134/134/134 135/135/135 136/136/136 137/137/137
f 138/138/138 139/139/139 140/140/140
f 153/153/153 154/154/154 155/155/155 156/156/156
f 169/169/169 170/170/170 171/171/171 172/172/172
f 185/185/185 186/186/186 187/187/187 188/188/188
f 198/198/198 199/199/199 200/200/200
f 213/213/213 214/214/214 215/215/215 216/216/216
f 229/229/229 230/230/230 231/231/231 232/232/232
f 245/245/245 246/246/246 247/247/247 248/248/248
f 261/261/261 262/262/262 263/263/263 264/264/264
f 277/277/277 278/278/278 279/279/279 280/280/280
f 293/293/293 294/294/294 295/295/295 296/296/296
f 309/309/309 310/310/310 311/311/311 312/312/312
f 325/325/325 326/326/326 327/327/327 328/328/328
f 341/341/341 342/342/342 343/343/343 344/344/344
f 357/357/357 358/358/358 359/359/359 360/360/360
f 373/373/373 374/374/374 375/375/375 376/376/376
f 398/398/398 399/399/399 400/400/400 401/401/401
f 402/402/402 403/403/403 404/404/404
f 417/417/417 418/418/418 419/419/419 420/420/420
f 433/433/433 434/434/434 435/435/435 436/436/436
f 446/446/446 447/447/447 448/448/448
usemtl floor
f 1/1/1 2/2/2 3/3/3 4/4/4
f 17/17/17 18/18/18 19/19/19 20/20/20
f 33/33/33 34/34/34 35/35/35 36/36/36
f 49/49/49 50/50/50 51/51/51 52/52/52
f 65/65/65 66/66/66 67/67/67 68/68/68
f 81/81/81 82/82/82 83/83/83 84/84/84
f 97/97/97 98/98/98 99/99/99 100/100/100
f 113/113/113 114/114/114 115/115/115 116/116/116
f 117/117/117 118/118/118 119/119/119
f 141/141/141 142/142/142 143/143/143 144/144/144
f 157/157/157 158/158/158 159/159/159 160/160/160
f 173/173/173 174/174/174 175/175/175 176/176/176
f 189/189/189 190/190/190 191/191/191
f 201/201/201 202/202/202 203/203/203 204/204/204
f 217/217/217 218/218/218 219/219/219 220/220/220
f 233/233/233 234/234/234 235/235/235 236/236/236
f 249/249/249 250/250/250 251/251/251 252/252/252
f 265/265/265 266/266/266 267/267/267 268/268/268
f 281/281/281 282/282/282 283/283/283 284/284/284
f 297/297/297 298/298/298 299/299/299 300/300/300
f 313/313/313 314/314/314 315/315/315 316/316/316
f 329/329/329 330/330/330 331/331/331 332/332/332
f 345/345/345 346/346/346 347/347/347 348/348/348
f 361/361/361 362/362/362 363/363/363 364/364/364
f 377/377/377 378/378/378 379/379/379 380/380/380
f 381/381/381 382/382/382 383/383/383
f 405/405/405 406/406/406 407/407/407 408/408/408
f 421/421/421 422/422/422 423/423/423 424/424/424
f 437/437/437 438/438/438 439/439/439
usemtl frame
f 453/453/453 454/454/454 455/455/455 456/456/456
f 457/457/457 458/458/458 459/459/459 460/460/460
f 469/469/469 470/470/470 471/471/471 472/472/472
f 473/473/473 474/474/474 475/475/475 476/476/476
f 485/485/485 486/486/486 487/487/487 488/488/488
f 489/489/489 490/490/490 491/491/491 492/492/492
f 501/501/501 502/502/502 503/503/503 504/504/504
f 505/505/505 506/506/506 507/507/507 508/508/508
f 517/517/517 518/518/518 519/519/519 520/520/520
f 521/521/521 522/522/522 523/523/523 524/524/524
f 533/533/533 534/534/534 535/535/535 536/536/536
f 537/537/537 538/538/538 539/539/539 540/540/540
f 549/549/549 550/550/550 551/551/551 552/552/552
f 553/553/553 554/554/554 555/555/555 556/556/556
f 565/565/565 566/566/566 567/567/567 568/568/568
f 569/569/569 570/570/570 571/571/571 572/572/572
f 581/581/581 582/582/582 583/583/583 584/584/584
f 585/585/585 586/586/586 587/587/587 588/588/588
f 597/597/597 598/598/598 599/599/599 600/600/600
f 601/601/601 602/602/602 603/603/603 604/604/604
f 613/613/613 614/614/614 615/615/615 616/616/616
f 617/617/617 618/618/618 619/619/619 620/620/620
f 629/629/629 630/630/630 631/631/631 632/632/632
f 633/633/633 634/634/634 635/635/635 636/636/636
f 645/645/645 646/646/646 647/647/647 648/648/648
f 649/649/649 650/650/650 651/651/651 652/652/652
f 661/661/661 662/662/662 663/663/663 664/664/664
f 665/665/665 666/666/666 667/667/667 668/668/668
f 673/673/673 674/674/674 675/675/675 676/676/676
f 677/677/677 678/678/678 679/679/679 680/680/680
usemtl inner
f 461/461/461 462/462/462 463/463/463 464/464/464
f 477/477/477 478/478/478 479/479/479 480/480/480
f 493/493/493 494/494/494 495/495/495 496/496/496
f 509/509/509 510/510/510 511/511/511 512/512/512
f 525/525/525 526/526/526 527/527/527 528/528/528
f 541/541/541 542/542/542 543/543/543 544/544/544
f 557/557/557 558/558/558 559/559/559 560/560/560
f 573/573/573 574/574/574 575/575/575 576/576/576
f 589/589/589 590/590/590 591/591/591 592/592/592
f 605/605/605 606/606/606 607/607/607 608/608/608
f 621/621/621 622/622/622 623/623/623 624/624/624
f 637/637/637 638/638/638 639/639/639 640/640/640
f 653/653/653 654/654/654 655/655/655 656/656/656
usemtl roof
f 9/9/9 10/10/10 11/11/11 12/12/12
f 25/25/25 26/26/26 27/27/27 28/28/28
f 41/41/41 42/42/42 43/43/43 44/44/44
f 57/57/57 58/58/58 59/59/59 60/60/60
f 73/73/73 74/74/74 75/75/75 76/76/76
f 89/89/89 90/90/90 91/91/91 92/92/92
f 105/105/105 106/106/106 107/107/107 108/108/108
f 127/127/127 128/128/128 129/129/129 130/130/130
f 131/131/131 132/132/132 133/133/133
f 149/149/149 150/150/150 151/151/151 152/152/152
f 165/165/165 166/166/166 167/167/167 168/168/168
f 181/181/181 182/182/182 183/183/183 184/184/184
f 195/195/195 196/196/196 197/197/197
f 209/209/209 210/210/210 211/211/211 212/212/212
f 225/225/225 226/226/226 227/227/227 228/228/228
f 241/241/241 242/242/242 243/243/243 244/244/244
f 257/257/257 258/258/258 259/259/259 260/260/260
f 273/273/273 274/274/274 275/275/275 276/276/276
f 289/289/289 290/290/290 291/291/291 292/292/292
f 305/305/305 306/306/306 307/307/307 308/308/308
f 321/321/321 322/322/322 323/323/323 324/324/324
f 337/337/337 338/338/338 339/339/339 340/340/340
f 353/353/353 354/354/354 355/355/355 356/356/356
f 369/369/369 370/370/370 371/371/371 372/372/372
f 391/391/391 392/392/392 393/393/393 394/394/394
f 395/395/395 396/396/396 397/397/397
f 413/413/413 414/414/414 415/415/415 416/416/416
f 429/429/429 430/430/430 431/431/431 432/432/432
f 443/443/443 444/444/444 445/445/445
usemtl skin
f 449/449/449 450/450/450 451/451/451 452/452/452
f 465/465/465 466/466/466 467/467/467 468/468/468
f 481/481/481 482/482/482 483/483/483 484/484/484
f 497/497/497 498/498/498 499/499/499 500/500/500
f 513/513/513 514/514/514 515/515/515 516/516/516
f 529/529/529 530/530/530 531/531/531 532/532/532
f 545/545/545 546/546/546 547/547/547 548/548/548
f 561/561/561 562/562/562 563/563/563 564/564/564
f 577/577/577 578/578/578 579/579/579 580/580/580
f 593/593/593 594/594/594 595/595/595 596/596/596
f 609/609/609 610/610/610 611/611/611 612/612/612
f 625/625/625 626/626/626 627/627/627 628/628/628
f 641/641/641 642/642/642 643/643/643 644/644/644
f 657/657/657 658/658/658 659/659/659 660/660/660
f 669/669/669 670/670/670 671/671/671 672/672/672
usemtl under
f 5/5/5 6/6/6 7/7/7 8/8/8
f 21/21/21 22/22/22 23/23/23 24/24/24
f 37/37/37 38/38/38 39/39/39 40/40/40
f 53/53/53 54/54/54 55/55/55 56/56/56
f 69/69/69 70/70/70 71/71/71 72/72/72
f 85/85/85 86/86/86 87/87/87 88/88/88
f 101/101/101 102/102/102 103/103/103 104/104/104
f 120/120/120 121/121/121 122/122/122 123/123/123
f 124/124/124 125/125/125 126/126/126
f 145/145/145 146/146/146 147/147/147 148/148/148
f 161/161/161 162/162/162 163/163/163 164/164/164
f 177/177/177 178/178/178 179/179/179 180/180/180
f 192/192/192 193/193/193 194/194/194
f 205/205/205 206/206/206 207/207/207 208/208/208
f 221/221/221 222/222/222 223/223/223 224/224/224
f 237/237/237 238/238/238 239/239/239 240/240/240
f 253/253/253 254/254/254 255/255/255 256/256/256
f 269/269/269 270/270/270 271/271/271 272/272/272
f 285/285/285 286/286/286 287/287/287 288/288/288
f 301/301/301 302/302/302 303/303/303 304/304/304
f 317/317/317 318/318/318 319/319/319 320/320/320
f 333/333/333 334/334/334 335/335/335 336/336/336
f 349/349/349 350/350/350 351/351/351 352/352/352
f 365/365/365 366/366/366 367/367/367 368/368/368
f 384/384/384 385/385/385 386/386/386 387/387/387
f 388/388/388 389/389/389 390/390/390
f 409/409/409 410/410/410 411/411/411 412/412/412
f 425/425/425 426/426/426 427/427/427 428/428/428
f 440/440/440 441/441/441 442/442/442
