# Generated by dev-env-utils/scripts/gen_transit_airside.py -- do not edit
mtllib jet_bridge_slope.mtl
o airport_jet_bridge_turn_c0
v 0.00000 0.09375 0.78544
v -0.49108 0.09375 0.75031
v -0.50000 0.09375 1.00000
v 0.00000 0.09375 1.00000
v 0.00000 0.00000 1.00000
v -0.50000 0.00000 1.00000
v -0.49108 0.00000 0.75031
v 0.00000 0.00000 0.78544
v 0.00000 1.97500 0.78544
v -0.49108 1.97500 0.75031
v -0.50000 1.97500 1.00000
v 0.00000 1.97500 1.00000
v 0.00000 1.90625 1.00000
v -0.50000 1.90625 1.00000
v -0.49108 1.90625 0.75031
v 0.00000 1.90625 0.78544
v 0.00000 0.09375 0.56867
v -0.46438 0.09375 0.50190
v -0.49108 0.09375 0.75031
v 0.00000 0.09375 0.78544
v 0.00000 0.00000 0.78544
v -0.49108 0.00000 0.75031
v -0.46438 0.00000 0.50190
v 0.00000 0.00000 0.56867
v 0.00000 1.97500 0.56867
v -0.46438 1.97500 0.50190
v -0.49108 1.97500 0.75031
v 0.00000 1.97500 0.78544
v 0.00000 1.90625 0.78544
v -0.49108 1.90625 0.75031
v -0.46438 1.90625 0.50190
v 0.00000 1.90625 0.56867
v 0.00000 0.09375 0.34739
v -0.42001 0.09375 0.25602
v -0.46438 0.09375 0.50190
v 0.00000 0.09375 0.56867
v 0.00000 0.00000 0.56867
v -0.46438 0.00000 0.50190
v -0.42001 0.00000 0.25602
v 0.00000 0.00000 0.34739
v 0.00000 1.97500 0.34739
v -0.42001 1.97500 0.25602
v -0.46438 1.97500 0.50190
v 0.00000 1.97500 0.56867
v 0.00000 1.90625 0.56867
v -0.46438 1.90625 0.50190
v -0.42001 1.90625 0.25602
v 0.00000 1.90625 0.34739
v 0.00000 0.09375 0.11912
v -0.35823 0.09375 0.01394
v -0.42001 0.09375 0.25602
v 0.00000 0.09375 0.34739
v 0.00000 0.00000 0.34739
v -0.42001 0.00000 0.25602
v -0.35823 0.00000 0.01394
v 0.00000 0.00000 0.11912
v 0.00000 1.97500 0.11912
v -0.35823 1.97500 0.01394
v -0.42001 1.97500 0.25602
v 0.00000 1.97500 0.34739
v 0.00000 1.90625 0.34739
v -0.42001 1.90625 0.25602
v -0.35823 1.90625 0.01394
v 0.00000 1.90625 0.11912
v -0.07768 0.09375 0.00000
v -0.35392 0.09375 0.00000
v -0.35823 0.09375 0.01394
v 0.00000 0.09375 0.11912
v 0.00000 0.09375 0.02524
v -0.07768 0.09375 0.00000
v 0.00000 0.09375 0.11912
v 0.00000 0.00000 0.11912
v -0.35823 0.00000 0.01394
v -0.35392 0.00000 0.00000
v -0.07768 0.00000 0.00000
v 0.00000 0.00000 0.11912
v -0.07768 0.00000 0.00000
v 0.00000 0.00000 0.02524
v -0.07768 1.97500 0.00000
v -0.35392 1.97500 0.00000
v -0.35823 1.97500 0.01394
v 0.00000 1.97500 0.11912
v 0.00000 1.97500 0.02524
v -0.07768 1.97500 0.00000
v 0.00000 1.97500 0.11912
v 0.00000 1.90625 0.11912
v -0.35823 1.90625 0.01394
v -0.35392 1.90625 0.00000
v -0.07768 1.90625 0.00000
v 0.00000 1.90625 0.11912
v -0.07768 1.90625 0.00000
v 0.00000 1.90625 0.02524
v 0.00000 0.09375 0.00000
v -0.07768 0.09375 0.00000
v 0.00000 0.09375 0.02524
v 0.00000 0.00000 0.02524
v -0.07768 0.00000 0.00000
v 0.00000 0.00000 0.00000
v 0.00000 1.97500 0.00000
v -0.07768 1.97500 0.00000
v 0.00000 1.97500 0.02524
v 0.00000 1.90625 0.02524
v -0.07768 1.90625 0.00000
v 0.00000 1.90625 0.00000
v -0.49108 1.90625 0.75031
v -0.49108 0.09375 0.75031
v -0.50000 0.09375 1.00000
v -0.50000 1.90625 1.00000
v -0.49108 0.09375 0.75031
v -0.49108 0.00000 0.75031
v -0.50000 0.00000 1.00000
v -0.50000 0.09375 1.00000
v -0.49108 1.97500 0.75031
v -0.49108 1.90625 0.75031
v -0.50000 1.90625 1.00000
v -0.50000 1.97500 1.00000
v -0.40625 1.90625 1.00000
v -0.40625 0.09375 1.00000
v -0.39757 0.09375 0.75700
v -0.39757 1.90625 0.75700
v -0.46438 1.90625 0.50190
v -0.46438 0.09375 0.50190
v -0.49108 0.09375 0.75031
v -0.49108 1.90625 0.75031
v -0.46438 0.09375 0.50190
v -0.46438 0.00000 0.50190
v -0.49108 0.00000 0.75031
v -0.49108 0.09375 0.75031
v -0.46438 1.97500 0.50190
v -0.46438 1.90625 0.50190
v -0.49108 1.90625 0.75031
v -0.49108 1.97500 0.75031
v -0.39757 1.90625 0.75700
v -0.39757 0.09375 0.75700
v -0.37158 0.09375 0.51524
v -0.37158 1.90625 0.51524
v -0.42001 1.90625 0.25602
v -0.42001 0.09375 0.25602
v -0.46438 0.09375 0.50190
v -0.46438 1.90625 0.50190
v -0.42001 0.09375 0.25602
v -0.42001 0.00000 0.25602
v -0.46438 0.00000 0.50190
v -0.46438 0.09375 0.50190
v -0.42001 1.97500 0.25602
v -0.42001 1.90625 0.25602
v -0.46438 1.90625 0.50190
v -0.46438 1.97500 0.50190
v -0.37158 1.90625 0.51524
v -0.37158 0.09375 0.51524
v -0.32841 0.09375 0.27595
v -0.32841 1.90625 0.27595
v -0.35823 1.90625 0.01394
v -0.35823 0.09375 0.01394
v -0.42001 0.09375 0.25602
v -0.42001 1.90625 0.25602
v -0.35823 0.09375 0.01394
v -0.35823 0.00000 0.01394
v -0.42001 0.00000 0.25602
v -0.42001 0.09375 0.25602
v -0.35823 1.97500 0.01394
v -0.35823 1.90625 0.01394
v -0.42001 1.90625 0.25602
v -0.42001 1.97500 0.25602
v -0.32841 1.90625 0.27595
v -0.32841 0.09375 0.27595
v -0.26827 0.09375 0.04035
v -0.26827 1.90625 0.04035
v -0.35392 1.90625 0.00000
v -0.35392 0.09375 0.00000
v -0.35823 0.09375 0.01394
v -0.35823 1.90625 0.01394
v -0.35392 0.09375 0.00000
v -0.35392 0.00000 0.00000
v -0.35823 0.00000 0.01394
v -0.35823 0.09375 0.01394
v -0.35392 1.97500 0.00000
v -0.35392 1.90625 0.00000
v -0.35823 1.90625 0.01394
v -0.35823 1.97500 0.01394
v -0.26827 1.90625 0.04035
v -0.26827 0.09375 0.04035
v -0.25580 0.09375 0.00000
v -0.25580 1.90625 -0.00000
v 1.00000 0.09375 0.85696
v 0.00000 0.09375 0.78544
v 0.00000 0.09375 1.00000
v 1.00000 0.09375 1.00000
v 1.00000 0.00000 1.00000
v 0.00000 0.00000 1.00000
v 0.00000 0.00000 0.78544
v 1.00000 0.00000 0.85696
v 1.00000 1.97500 0.85696
v 0.00000 1.97500 0.78544
v 0.00000 1.97500 1.00000
v 1.00000 1.97500 1.00000
v 1.00000 1.90625 1.00000
v 0.00000 1.90625 1.00000
v 0.00000 1.90625 0.78544
v 1.00000 1.90625 0.85696
v 1.00000 0.09375 0.71244
v 0.00000 0.09375 0.56867
v 0.00000 0.09375 0.78544
v 1.00000 0.09375 0.85696
v 1.00000 0.00000 0.85696
v 0.00000 0.00000 0.78544
v 0.00000 0.00000 0.56867
v 1.00000 0.00000 0.71244
v 1.00000 1.97500 0.71244
v 0.00000 1.97500 0.56867
v 0.00000 1.97500 0.78544
v 1.00000 1.97500 0.85696
v 1.00000 1.90625 0.85696
v 0.00000 1.90625 0.78544
v 0.00000 1.90625 0.56867
v 1.00000 1.90625 0.71244
v 1.00000 0.09375 0.56493
v 0.00000 0.09375 0.34739
v 0.00000 0.09375 0.56867
v 1.00000 0.09375 0.71244
v 1.00000 0.00000 0.71244
v 0.00000 0.00000 0.56867
v 0.00000 0.00000 0.34739
v 1.00000 0.00000 0.56493
v 1.00000 1.97500 0.56493
v 0.00000 1.97500 0.34739
v 0.00000 1.97500 0.56867
v 1.00000 1.97500 0.71244
v 1.00000 1.90625 0.71244
v 0.00000 1.90625 0.56867
v 0.00000 1.90625 0.34739
v 1.00000 1.90625 0.56493
v 1.00000 0.09375 0.41275
v 0.00000 0.09375 0.11912
v 0.00000 0.09375 0.34739
v 1.00000 0.09375 0.56493
v 1.00000 0.00000 0.56493
v 0.00000 0.00000 0.34739
v 0.00000 0.00000 0.11912
v 1.00000 0.00000 0.41275
v 1.00000 1.97500 0.41275
v 0.00000 1.97500 0.11912
v 0.00000 1.97500 0.34739
v 1.00000 1.97500 0.56493
v 1.00000 1.90625 0.56493
v 0.00000 1.90625 0.34739
v 0.00000 1.90625 0.11912
v 1.00000 1.90625 0.41275
v 1.00000 0.09375 0.35016
v 0.00000 0.09375 0.02524
v 0.00000 0.09375 0.11912
v 1.00000 0.09375 0.41275
v 1.00000 0.00000 0.41275
v 0.00000 0.00000 0.11912
v 0.00000 0.00000 0.02524
v 1.00000 0.00000 0.35016
v 1.00000 1.97500 0.35016
v 0.00000 1.97500 0.02524
v 0.00000 1.97500 0.11912
v 1.00000 1.97500 0.41275
v 1.00000 1.90625 0.41275
v 0.00000 1.90625 0.11912
v 0.00000 1.90625 0.02524
v 1.00000 1.90625 0.35016
v 0.31890 0.09375 0.00000
v 0.00000 0.09375 0.00000
v 0.00000 0.09375 0.02524
v 1.00000 0.09375 0.35016
v 1.00000 0.09375 0.25404
v 0.31890 0.09375 0.00000
v 1.00000 0.09375 0.35016
v 1.00000 0.00000 0.35016
v 0.00000 0.00000 0.02524
v 0.00000 0.00000 0.00000
v 0.31890 0.00000 0.00000
v 1.00000 0.00000 0.35016
v 0.31890 0.00000 0.00000
v 1.00000 0.00000 0.25404
v 0.31890 1.97500 0.00000
v 0.00000 1.97500 0.00000
v 0.00000 1.97500 0.02524
v 1.00000 1.97500 0.35016
v 1.00000 1.97500 0.25404
v 0.31890 1.97500 0.00000
v 1.00000 1.97500 0.35016
v 1.00000 1.90625 0.35016
v 0.00000 1.90625 0.02524
v 0.00000 1.90625 0.00000
v 0.31890 1.90625 0.00000
v 1.00000 1.90625 0.35016
v 0.31890 1.90625 0.00000
v 1.00000 1.90625 0.25404
v 1.00000 0.09375 0.08663
v 0.81031 0.09375 0.00000
v 0.31890 0.09375 0.00000
v 1.00000 0.09375 0.25404
v 1.00000 0.00000 0.25404
v 0.31890 0.00000 0.00000
v 0.81031 0.00000 0.00000
v 1.00000 0.00000 0.08663
v 1.00000 1.97500 0.08663
v 0.81031 1.97500 0.00000
v 0.31890 1.97500 0.00000
v 1.00000 1.97500 0.25404
v 1.00000 1.90625 0.25404
v 0.31890 1.90625 0.00000
v 0.81031 1.90625 0.00000
v 1.00000 1.90625 0.08663
v 1.00000 0.09375 0.00000
v 0.81031 0.09375 0.00000
v 1.00000 0.09375 0.08663
v 1.00000 0.00000 0.08663
v 0.81031 0.00000 0.00000
v 1.00000 0.00000 0.00000
v 1.00000 1.97500 0.00000
v 0.81031 1.97500 0.00000
v 1.00000 1.97500 0.08663
v 1.00000 1.90625 0.08663
v 0.81031 1.90625 0.00000
v 1.00000 1.90625 0.00000
vt 1.00000 0.19636
vt 0.87723 0.18758
vt 0.87500 0.25000
vt 1.00000 0.25000
vt 1.00000 0.25000
vt 0.87500 0.25000
vt 0.87723 0.18758
vt 1.00000 0.19636
vt 1.00000 0.19636
vt 0.87723 0.18758
vt 0.87500 0.25000
vt 1.00000 0.25000
vt 0.37500 0.00000
vt 0.50000 0.00000
vt 0.50000 0.04462
vt 0.37692 0.04462
vt 1.00000 0.14217
vt 0.88391 0.12547
vt 0.87723 0.18758
vt 1.00000 0.19636
vt 1.00000 0.19636
vt 0.87723 0.18758
vt 0.88391 0.12547
vt 1.00000 0.14217
vt 1.00000 0.14217
vt 0.88391 0.12547
vt 0.87723 0.18758
vt 1.00000 0.19636
vt 0.37692 0.04462
vt 0.50000 0.04462
vt 0.50000 0.08925
vt 0.38271 0.08925
vt 1.00000 0.08685
vt 0.89500 0.06401
vt 0.88391 0.12547
vt 1.00000 0.14217
vt 1.00000 0.14217
vt 0.88391 0.12547
vt 0.89500 0.06401
vt 1.00000 0.08685
vt 1.00000 0.08685
vt 0.89500 0.06401
vt 0.88391 0.12547
vt 1.00000 0.14217
vt 0.38271 0.08925
vt 0.50000 0.08925
vt 0.50000 0.13387
vt 0.39254 0.13387
vt 1.00000 0.02978
vt 0.91044 0.00348
vt 0.89500 0.06401
vt 1.00000 0.08685
vt 1.00000 0.08685
vt 0.89500 0.06401
vt 0.91044 0.00348
vt 1.00000 0.02978
vt 1.00000 0.02978
vt 0.91044 0.00348
vt 0.89500 0.06401
vt 1.00000 0.08685
vt 0.39254 0.13387
vt 0.50000 0.13387
vt 0.50000 0.17850
vt 0.40666 0.17850
vt 0.98058 0.00000
vt 0.91152 0.00000
vt 0.91044 0.00348
vt 1.00000 0.02978
vt 1.00000 0.00631
vt 0.98058 0.00000
vt 1.00000 0.02978
vt 1.00000 0.02978
vt 0.91044 0.00348
vt 0.91152 0.00000
vt 0.98058 0.00000
vt 1.00000 0.02978
vt 0.98058 0.00000
vt 1.00000 0.00631
vt 0.98058 0.00000
vt 0.91152 0.00000
vt 0.91044 0.00348
vt 1.00000 0.02978
vt 1.00000 0.00631
vt 0.98058 0.00000
vt 1.00000 0.02978
vt 0.40666 0.17850
vt 0.50000 0.17850
vt 0.49996 0.18110
vt 0.43402 0.19635
vt 0.40666 0.17850
vt 0.43402 0.19635
vt 0.41360 0.19635
vt 1.00000 0.00000
vt 0.98058 0.00000
vt 1.00000 0.00631
vt 1.00000 0.00631
vt 0.98058 0.00000
vt 1.00000 0.00000
vt 1.00000 0.00000
vt 0.98058 0.00000
vt 1.00000 0.00631
vt 0.41360 0.19635
vt 0.43402 0.19635
vt 0.41557 0.20109
vt 0.11363 0.00000
vt 0.11363 0.90625
vt 0.00000 0.90625
vt 0.00000 0.00000
vt 0.22727 0.00000
vt 0.22727 0.09375
vt 0.00000 0.09375
vt 0.00000 0.00000
vt 0.22727 0.00000
vt 0.22727 0.09375
vt 0.00000 0.09375
vt 0.00000 0.00000
vt 0.00000 0.00000
vt 0.00000 0.90625
vt 0.11363 0.90625
vt 0.11363 0.00000
vt 0.22727 0.00000
vt 0.22727 0.90625
vt 0.11363 0.90625
vt 0.11363 0.00000
vt 0.45454 0.00000
vt 0.45454 0.09375
vt 0.22727 0.09375
vt 0.22727 0.00000
vt 0.45454 0.00000
vt 0.45454 0.09375
vt 0.22727 0.09375
vt 0.22727 0.00000
vt 0.11363 0.00000
vt 0.11363 0.90625
vt 0.22727 0.90625
vt 0.22727 0.00000
vt 0.34090 0.00000
vt 0.34090 0.90625
vt 0.22727 0.90625
vt 0.22727 0.00000
vt 0.68181 0.00000
vt 0.68181 0.09375
vt 0.45454 0.09375
vt 0.45454 0.00000
vt 0.68181 0.00000
vt 0.68181 0.09375
vt 0.45454 0.09375
vt 0.45454 0.00000
vt 0.22727 0.00000
vt 0.22727 0.90625
vt 0.34090 0.90625
vt 0.34090 0.00000
vt 0.45454 0.00000
vt 0.45454 0.90625
vt 0.34090 0.90625
vt 0.34090 0.00000
vt 0.90908 0.00000
vt 0.90908 0.09375
vt 0.68181 0.09375
vt 0.68181 0.00000
vt 0.90908 0.00000
vt 0.90908 0.09375
vt 0.68181 0.09375
vt 0.68181 0.00000
vt 0.34090 0.00000
vt 0.34090 0.90625
vt 0.45454 0.90625
vt 0.45454 0.00000
vt 0.46117 0.00000
vt 0.46117 0.90625
vt 0.45454 0.90625
vt 0.45454 0.00000
vt 0.92235 0.00000
vt 0.92235 0.09375
vt 0.90908 0.09375
vt 0.90908 0.00000
vt 0.92235 0.00000
vt 0.92235 0.09375
vt 0.90908 0.09375
vt 0.90908 0.00000
vt 0.45454 0.00000
vt 0.45454 0.90625
vt 0.47428 0.90625
vt 0.47428 0.00000
vt 0.25000 0.21424
vt 0.00000 0.19636
vt 0.00000 0.25000
vt 0.25000 0.25000
vt 0.25000 0.25000
vt 0.00000 0.25000
vt 0.00000 0.19636
vt 0.25000 0.21424
vt 0.25000 0.21424
vt 0.00000 0.19636
vt 0.00000 0.25000
vt 0.25000 0.25000
vt 0.12500 0.00000
vt 0.37500 0.00000
vt 0.37692 0.04462
vt 0.12628 0.04462
vt 0.25000 0.17811
vt 0.00000 0.14217
vt 0.00000 0.19636
vt 0.25000 0.21424
vt 0.25000 0.21424
vt 0.00000 0.19636
vt 0.00000 0.14217
vt 0.25000 0.17811
vt 0.25000 0.17811
vt 0.00000 0.14217
vt 0.00000 0.19636
vt 0.25000 0.21424
vt 0.12628 0.04462
vt 0.37692 0.04462
vt 0.38271 0.08925
vt 0.13014 0.08925
vt 0.25000 0.14123
vt 0.00000 0.08685
vt 0.00000 0.14217
vt 0.25000 0.17811
vt 0.25000 0.17811
vt 0.00000 0.14217
vt 0.00000 0.08685
vt 0.25000 0.14123
vt 0.25000 0.14123
vt 0.00000 0.08685
vt 0.00000 0.14217
vt 0.25000 0.17811
vt 0.13014 0.08925
vt 0.38271 0.08925
vt 0.39254 0.13387
vt 0.13669 0.13387
vt 0.25000 0.10319
vt 0.00000 0.02978
vt 0.00000 0.08685
vt 0.25000 0.14123
vt 0.25000 0.14123
vt 0.00000 0.08685
vt 0.00000 0.02978
vt 0.25000 0.10319
vt 0.25000 0.10319
vt 0.00000 0.02978
vt 0.00000 0.08685
vt 0.25000 0.14123
vt 0.13669 0.13387
vt 0.39254 0.13387
vt 0.40666 0.17850
vt 0.14611 0.17850
vt 0.25000 0.08754
vt 0.00000 0.00631
vt 0.00000 0.02978
vt 0.25000 0.10319
vt 0.25000 0.10319
vt 0.00000 0.02978
vt 0.00000 0.00631
vt 0.25000 0.08754
vt 0.25000 0.08754
vt 0.00000 0.00631
vt 0.00000 0.02978
vt 0.25000 0.10319
vt 0.14611 0.17850
vt 0.40666 0.17850
vt 0.41360 0.19635
vt 0.15073 0.19635
vt 0.07972 0.00000
vt 0.00000 0.00000
vt 0.00000 0.00631
vt 0.25000 0.08754
vt 0.25000 0.06351
vt 0.07972 0.00000
vt 0.25000 0.08754
vt 0.25000 0.08754
vt 0.00000 0.00631
vt 0.00000 0.00000
vt 0.07972 0.00000
vt 0.25000 0.08754
vt 0.07972 0.00000
vt 0.25000 0.06351
vt 0.07972 0.00000
vt 0.00000 0.00000
vt 0.00000 0.00631
vt 0.25000 0.08754
vt 0.25000 0.06351
vt 0.07972 0.00000
vt 0.25000 0.08754
vt 0.15073 0.19635
vt 0.41360 0.19635
vt 0.41557 0.20109
vt 0.34038 0.22312
vt 0.15073 0.19635
vt 0.34038 0.22312
vt 0.15865 0.22312
vt 0.25000 0.02166
vt 0.20258 0.00000
vt 0.07972 0.00000
vt 0.25000 0.06351
vt 0.25000 0.06351
vt 0.07972 0.00000
vt 0.20258 0.00000
vt 0.25000 0.02166
vt 0.25000 0.02166
vt 0.20258 0.00000
vt 0.07972 0.00000
vt 0.25000 0.06351
vt 0.15865 0.22312
vt 0.34038 0.22312
vt 0.22681 0.26775
vt 0.17467 0.26775
vt 0.25000 0.00000
vt 0.20258 0.00000
vt 0.25000 0.02166
vt 0.25000 0.02166
vt 0.20258 0.00000
vt 0.25000 0.00000
vt 0.25000 0.00000
vt 0.20258 0.00000
vt 0.25000 0.02166
vt 0.17467 0.26775
vt 0.22681 0.26775
vt 0.18402 0.28978
vn 0.00000 1.00000 0.00000
vn 0.00000 1.00000 0.00000
vn 0.00000 1.00000 0.00000
vn 0.00000 1.00000 0.00000
vn 0.00000 -1.00000 0.00000
vn 0.00000 -1.00000 0.00000
vn 0.00000 -1.00000 0.00000
vn 0.00000 -1.00000 0.00000
vn 0.00000 1.00000 0.00000
vn 0.00000 1.00000 0.00000
vn 0.00000 1.00000 0.00000
vn 0.00000 1.00000 0.00000
vn 0.00000 -1.00000 0.00000
vn 0.00000 -1.00000 0.00000
vn 0.00000 -1.00000 0.00000
vn 0.00000 -1.00000 0.00000
vn 0.00000 1.00000 0.00000
vn 0.00000 1.00000 0.00000
vn 0.00000 1.00000 0.00000
vn 0.00000 1.00000 0.00000
vn 0.00000 -1.00000 0.00000
vn 0.00000 -1.00000 0.00000
vn 0.00000 -1.00000 0.00000
vn 0.00000 -1.00000 0.00000
vn 0.00000 1.00000 0.00000
vn 0.00000 1.00000 0.00000
vn 0.00000 1.00000 0.00000
vn 0.00000 1.00000 0.00000
vn 0.00000 -1.00000 0.00000
vn 0.00000 -1.00000 0.00000
vn 0.00000 -1.00000 0.00000
vn 0.00000 -1.00000 0.00000
vn 0.00000 1.00000 0.00000
vn 0.00000 1.00000 0.00000
vn 0.00000 1.00000 0.00000
vn 0.00000 1.00000 0.00000
vn 0.00000 -1.00000 0.00000
vn 0.00000 -1.00000 0.00000
vn 0.00000 -1.00000 0.00000
vn 0.00000 -1.00000 0.00000
vn 0.00000 1.00000 0.00000
vn 0.00000 1.00000 0.00000
vn 0.00000 1.00000 0.00000
vn 0.00000 1.00000 0.00000
vn 0.00000 -1.00000 0.00000
vn 0.00000 -1.00000 0.00000
vn 0.00000 -1.00000 0.00000
vn 0.00000 -1.00000 0.00000
vn 0.00000 1.00000 0.00000
vn 0.00000 1.00000 0.00000
vn 0.00000 1.00000 0.00000
vn 0.00000 1.00000 0.00000
vn 0.00000 -1.00000 0.00000
vn 0.00000 -1.00000 0.00000
vn 0.00000 -1.00000 0.00000
vn 0.00000 -1.00000 0.00000
vn 0.00000 1.00000 0.00000
vn 0.00000 1.00000 0.00000
vn 0.00000 1.00000 0.00000
vn 0.00000 1.00000 0.00000
vn 0.00000 -1.00000 0.00000
vn 0.00000 -1.00000 0.00000
vn 0.00000 -1.00000 0.00000
vn 0.00000 -1.00000 0.00000
vn 0.00000 1.00000 0.00000
vn 0.00000 1.00000 0.00000
vn 0.00000 1.00000 0.00000
vn 0.00000 1.00000 0.00000
vn 0.00000 1.00000 0.00000
vn 0.00000 1.00000 0.00000
vn 0.00000 1.00000 0.00000
vn 0.00000 -1.00000 0.00000
vn 0.00000 -1.00000 0.00000
vn 0.00000 -1.00000 0.00000
vn 0.00000 -1.00000 0.00000
vn 0.00000 -1.00000 0.00000
vn 0.00000 -1.00000 0.00000
vn 0.00000 -1.00000 0.00000
vn 0.00000 1.00000 0.00000
vn 0.00000 1.00000 0.00000
vn 0.00000 1.00000 0.00000
vn 0.00000 1.00000 0.00000
vn 0.00000 1.00000 0.00000
vn 0.00000 1.00000 0.00000
vn 0.00000 1.00000 0.00000
vn 0.00000 -1.00000 0.00000
vn 0.00000 -1.00000 0.00000
vn 0.00000 -1.00000 0.00000
vn 0.00000 -1.00000 0.00000
vn 0.00000 -1.00000 0.00000
vn 0.00000 -1.00000 0.00000
vn 0.00000 -1.00000 0.00000
vn 0.00000 1.00000 0.00000
vn 0.00000 1.00000 0.00000
vn 0.00000 1.00000 0.00000
vn 0.00000 -1.00000 0.00000
vn 0.00000 -1.00000 0.00000
vn 0.00000 -1.00000 0.00000
vn 0.00000 1.00000 0.00000
vn 0.00000 1.00000 0.00000
vn 0.00000 1.00000 0.00000
vn 0.00000 -1.00000 0.00000
vn 0.00000 -1.00000 0.00000
vn 0.00000 -1.00000 0.00000
vn -0.99936 0.00000 -0.03569
vn -0.99936 0.00000 -0.03569
vn -0.99936 0.00000 -0.03569
vn -0.99936 0.00000 -0.03569
vn -0.99936 0.00000 -0.03569
vn -0.99936 0.00000 -0.03569
vn -0.99936 0.00000 -0.03569
vn -0.99936 0.00000 -0.03569
vn -0.99936 0.00000 -0.03569
vn -0.99936 0.00000 -0.03569
vn -0.99936 0.00000 -0.03569
vn -0.99936 0.00000 -0.03569
vn 0.99936 0.00000 0.03569
vn 0.99936 0.00000 0.03569
vn 0.99936 0.00000 0.03569
vn 0.99936 0.00000 0.03569
vn -0.99427 0.00000 -0.10690
vn -0.99427 0.00000 -0.10690
vn -0.99427 0.00000 -0.10690
vn -0.99427 0.00000 -0.10690
vn -0.99427 0.00000 -0.10690
vn -0.99427 0.00000 -0.10690
vn -0.99427 0.00000 -0.10690
vn -0.99427 0.00000 -0.10690
vn -0.99427 0.00000 -0.10690
vn -0.99427 0.00000 -0.10690
vn -0.99427 0.00000 -0.10690
vn -0.99427 0.00000 -0.10690
vn 0.99427 0.00000 0.10690
vn 0.99427 0.00000 0.10690
vn 0.99427 0.00000 0.10690
vn 0.99427 0.00000 0.10690
vn -0.98411 0.00000 -0.17755
vn -0.98411 0.00000 -0.17755
vn -0.98411 0.00000 -0.17755
vn -0.98411 0.00000 -0.17755
vn -0.98411 0.00000 -0.17755
vn -0.98411 0.00000 -0.17755
vn -0.98411 0.00000 -0.17755
vn -0.98411 0.00000 -0.17755
vn -0.98411 0.00000 -0.17755
vn -0.98411 0.00000 -0.17755
vn -0.98411 0.00000 -0.17755
vn -0.98411 0.00000 -0.17755
vn 0.98411 0.00000 0.17755
vn 0.98411 0.00000 0.17755
vn 0.98411 0.00000 0.17755
vn 0.98411 0.00000 0.17755
vn -0.96894 0.00000 -0.24731
vn -0.96894 0.00000 -0.24731
vn -0.96894 0.00000 -0.24731
vn -0.96894 0.00000 -0.24731
vn -0.96894 0.00000 -0.24731
vn -0.96894 0.00000 -0.24731
vn -0.96894 0.00000 -0.24731
vn -0.96894 0.00000 -0.24731
vn -0.96894 0.00000 -0.24731
vn -0.96894 0.00000 -0.24731
vn -0.96894 0.00000 -0.24731
vn -0.96894 0.00000 -0.24731
vn 0.96894 0.00000 0.24731
vn 0.96894 0.00000 0.24731
vn 0.96894 0.00000 0.24731
vn 0.96894 0.00000 0.24731
vn -0.95537 0.00000 -0.29540
vn -0.95537 0.00000 -0.29540
vn -0.95537 0.00000 -0.29540
vn -0.95537 0.00000 -0.29540
vn -0.95537 0.00000 -0.29540
vn -0.95537 0.00000 -0.29540
vn -0.95537 0.00000 -0.29540
vn -0.95537 0.00000 -0.29540
vn -0.95537 0.00000 -0.29540
vn -0.95537 0.00000 -0.29540
vn -0.95537 0.00000 -0.29540
vn -0.95537 0.00000 -0.29540
vn 0.95537 0.00000 0.29540
vn 0.95537 0.00000 0.29540
vn 0.95537 0.00000 0.29540
vn 0.95537 0.00000 0.29540
vn 0.00000 1.00000 0.00000
vn 0.00000 1.00000 0.00000
vn 0.00000 1.00000 0.00000
vn 0.00000 1.00000 0.00000
vn 0.00000 -1.00000 0.00000
vn 0.00000 -1.00000 0.00000
vn 0.00000 -1.00000 0.00000
vn 0.00000 -1.00000 0.00000
vn 0.00000 1.00000 0.00000
vn 0.00000 1.00000 0.00000
vn 0.00000 1.00000 0.00000
vn 0.00000 1.00000 0.00000
vn 0.00000 -1.00000 0.00000
vn 0.00000 -1.00000 0.00000
vn 0.00000 -1.00000 0.00000
vn 0.00000 -1.00000 0.00000
vn 0.00000 1.00000 0.00000
vn 0.00000 1.00000 0.00000
vn 0.00000 1.00000 0.00000
vn 0.00000 1.00000 0.00000
vn 0.00000 -1.00000 0.00000
vn 0.00000 -1.00000 0.00000
vn 0.00000 -1.00000 0.00000
vn 0.00000 -1.00000 0.00000
vn 0.00000 1.00000 0.00000
vn 0.00000 1.00000 0.00000
vn 0.00000 1.00000 0.00000
vn 0.00000 1.00000 0.00000
vn 0.00000 -1.00000 0.00000
vn 0.00000 -1.00000 0.00000
vn 0.00000 -1.00000 0.00000
vn 0.00000 -1.00000 0.00000
vn 0.00000 1.00000 0.00000
vn 0.00000 1.00000 0.00000
vn 0.00000 1.00000 0.00000
vn 0.00000 1.00000 0.00000
vn 0.00000 -1.00000 0.00000
vn 0.00000 -1.00000 0.00000
vn 0.00000 -1.00000 0.00000
vn 0.00000 -1.00000 0.00000
vn 0.00000 1.00000 0.00000
vn 0.00000 1.00000 0.00000
vn 0.00000 1.00000 0.00000
vn 0.00000 1.00000 0.00000
vn 0.00000 -1.00000 0.00000
vn 0.00000 -1.00000 0.00000
vn 0.00000 -1.00000 0.00000
vn 0.00000 -1.00000 0.00000
vn 0.00000 1.00000 0.00000
vn 0.00000 1.00000 0.00000
vn 0.00000 1.00000 0.00000
vn 0.00000 1.00000 0.00000
vn 0.00000 -1.00000 0.00000
vn 0.00000 -1.00000 0.00000
vn 0.00000 -1.00000 0.00000
vn 0.00000 -1.00000 0.00000
vn 0.00000 1.00000 0.00000
vn 0.00000 1.00000 0.00000
vn 0.00000 1.00000 0.00000
vn 0.00000 1.00000 0.00000
vn 0.00000 -1.00000 0.00000
vn 0.00000 -1.00000 0.00000
vn 0.00000 -1.00000 0.00000
vn 0.00000 -1.00000 0.00000
vn 0.00000 1.00000 0.00000
vn 0.00000 1.00000 0.00000
vn 0.00000 1.00000 0.00000
vn 0.00000 1.00000 0.00000
vn 0.00000 -1.00000 0.00000
vn 0.00000 -1.00000 0.00000
vn 0.00000 -1.00000 0.00000
vn 0.00000 -1.00000 0.00000
vn 0.00000 1.00000 0.00000
vn 0.00000 1.00000 0.00000
vn 0.00000 1.00000 0.00000
vn 0.00000 1.00000 0.00000
vn 0.00000 -1.00000 0.00000
vn 0.00000 -1.00000 0.00000
vn 0.00000 -1.00000 0.00000
vn 0.00000 -1.00000 0.00000
vn 0.00000 1.00000 0.00000
vn 0.00000 1.00000 0.00000
vn 0.00000 1.00000 0.00000
vn 0.00000 1.00000 0.00000
vn 0.00000 1.00000 0.00000
vn 0.00000 1.00000 0.00000
vn 0.00000 1.00000 0.00000
vn 0.00000 -1.00000 0.00000
vn 0.00000 -1.00000 0.00000
vn 0.00000 -1.00000 0.00000
vn 0.00000 -1.00000 0.00000
vn 0.00000 -1.00000 0.00000
vn 0.00000 -1.00000 0.00000
vn 0.00000 -1.00000 0.00000
vn 0.00000 1.00000 0.00000
vn 0.00000 1.00000 0.00000
vn 0.00000 1.00000 0.00000
vn 0.00000 1.00000 0.00000
vn 0.00000 1.00000 0.00000
vn 0.00000 1.00000 0.00000
vn 0.00000 1.00000 0.00000
vn 0.00000 -1.00000 0.00000
vn 0.00000 -1.00000 0.00000
vn 0.00000 -1.00000 0.00000
vn 0.00000 -1.00000 0.00000
vn 0.00000 -1.00000 0.00000
vn 0.00000 -1.00000 0.00000
vn 0.00000 -1.00000 0.00000
vn 0.00000 1.00000 0.00000
vn 0.00000 1.00000 0.00000
vn 0.00000 1.00000 0.00000
vn 0.00000 1.00000 0.00000
vn 0.00000 -1.00000 0.00000
vn 0.00000 -1.00000 0.00000
vn 0.00000 -1.00000 0.00000
vn 0.00000 -1.00000 0.00000
vn 0.00000 1.00000 0.00000
vn 0.00000 1.00000 0.00000
vn 0.00000 1.00000 0.00000
vn 0.00000 1.00000 0.00000
vn 0.00000 -1.00000 0.00000
vn 0.00000 -1.00000 0.00000
vn 0.00000 -1.00000 0.00000
vn 0.00000 -1.00000 0.00000
vn 0.00000 1.00000 0.00000
vn 0.00000 1.00000 0.00000
vn 0.00000 1.00000 0.00000
vn 0.00000 -1.00000 0.00000
vn 0.00000 -1.00000 0.00000
vn 0.00000 -1.00000 0.00000
vn 0.00000 1.00000 0.00000
vn 0.00000 1.00000 0.00000
vn 0.00000 1.00000 0.00000
vn 0.00000 -1.00000 0.00000
vn 0.00000 -1.00000 0.00000
vn 0.00000 -1.00000 0.00000
usemtl ceiling
f 13/13/13 14/14/14 15/15/15 16/16/16
f 29/29/29 30/30/30 31/31/31 32/32/32
f 45/45/45 46/46/46 47/47/47 48/48/48
f 61/61/61 62/62/62 63/63/63 64/64/64
f 86/86/86 87/87/87 88/88/88 89/89/89
f 90/90/90 91/91/91 92/92/92
f 102/102/102 103/103/103 104/104/104
f 197/197/197 198/198/198 199/199/199 200/200/200
f 213/213/213 214/214/214 215/215/215 216/216/216
f 229/229/229 230/230/230 231/231/231 232/232/232
f 245/245/245 246/246/246 247/247/247 248/248/248
f 261/261/261 262/262/262 263/263/263 264/264/264
f 286/286/286 287/287/287 288/288/288 289/289/289
f 290/290/290 291/291/291 292/292/292
f 305/305/305 306/306/306 307/307/307 308/308/308
f 318/318/318 319/319/319 320/320/320
usemtl floor
f 1/1/1 2/2/2 3/3/3 4/4/4
f 17/17/17 18/18/18 19/19/19 20/20/20
f 33/33/33 34/34/34 35/35/35 36/36/36
f 49/49/49 50/50/50 51/51/51 52/52/52
f 65/65/65 66/66/66 67/67/67 68/68/68
f 69/69/69 70/70/70 71/71/71
f 93/93/93 94/94/94 95/95/95
f 185/185/185 186/186/186 187/187/187 188/188/188
f 201/201/201 202/202/202 203/203/203 204/204/204
f 217/217/217 218/218/218 219/219/219 220/220/220
f 233/233/233 234/234/234 235/235/235 236/236/236
f 249/249/249 250/250/250 251/251/251 252/252/252
f 265/265/265 266/266/266 267/267/267 268/268/268
f 269/269/269 270/270/270 271/271/271
f 293/293/293 294/294/294 295/295/295 296/296/296
f 309/309/309 310/310/310 311/311/311
usemtl frame
f 109/109/109 110/110/110 111/111/111 112/112/112
f 113/113/113 114/114/114 115/115/115 116/116/116
f 125/125/125 126/126/126 127/127/127 128/128/128
f 129/129/129 130/130/130 131/131/131 132/132/132
f 141/141/141 142/142/142 143/143/143 144/144/144
f 145/145/145 146/146/146 147/147/147 148/148/148
f 157/157/157 158/158/158 159/159/159 160/160/160
f 161/161/161 162/162/162 163/163/163 164/164/164
f 173/173/173 174/174/174 175/175/175 176/176/176
f 177/177/177 178/178/178 179/179/179 180/180/180
usemtl inner
f 117/117/117 118/118/118 119/119/119 120/120/120
f 133/133/133 134/134/134 135/135/135 136/136/136
f 149/149/149 150/150/150 151/151/151 152/152/152
f 165/165/165 166/166/166 167/167/167 168/168/168
f 181/181/181 182/182/182 183/183/183 184/184/184
usemtl roof
f 9/9/9 10/10/10 11/11/11 12/12/12
f 25/25/25 26/26/26 27/27/27 28/28/28
f 41/41/41 42/42/42 43/43/43 44/44/44
f 57/57/57 58/58/58 59/59/59 60/60/60
f 79/79/79 80/80/80 81/81/81 82/82/82
f 83/83/83 84/84/84 85/85/85
f 99/99/99 100/100/100 101/101/101
f 193/193/193 194/194/194 195/195/195 196/196/196
f 209/209/209 210/210/210 211/211/211 212/212/212
f 225/225/225 226/226/226 227/227/227 228/228/228
f 241/241/241 242/242/242 243/243/243 244/244/244
f 257/257/257 258/258/258 259/259/259 260/260/260
f 279/279/279 280/280/280 281/281/281 282/282/282
f 283/283/283 284/284/284 285/285/285
f 301/301/301 302/302/302 303/303/303 304/304/304
f 315/315/315 316/316/316 317/317/317
usemtl skin
f 105/105/105 106/106/106 107/107/107 108/108/108
f 121/121/121 122/122/122 123/123/123 124/124/124
f 137/137/137 138/138/138 139/139/139 140/140/140
f 153/153/153 154/154/154 155/155/155 156/156/156
f 169/169/169 170/170/170 171/171/171 172/172/172
usemtl under
f 5/5/5 6/6/6 7/7/7 8/8/8
f 21/21/21 22/22/22 23/23/23 24/24/24
f 37/37/37 38/38/38 39/39/39 40/40/40
f 53/53/53 54/54/54 55/55/55 56/56/56
f 72/72/72 73/73/73 74/74/74 75/75/75
f 76/76/76 77/77/77 78/78/78
f 96/96/96 97/97/97 98/98/98
f 189/189/189 190/190/190 191/191/191 192/192/192
f 205/205/205 206/206/206 207/207/207 208/208/208
f 221/221/221 222/222/222 223/223/223 224/224/224
f 237/237/237 238/238/238 239/239/239 240/240/240
f 253/253/253 254/254/254 255/255/255 256/256/256
f 272/272/272 273/273/273 274/274/274 275/275/275
f 276/276/276 277/277/277 278/278/278
f 297/297/297 298/298/298 299/299/299 300/300/300
f 312/312/312 313/313/313 314/314/314
