# Generated by dev-env-utils/scripts/gen_transit_airside.py -- do not edit
mtllib jet_bridge_large.mtl
o airport_jet_bridge_large_uturn_c6
v 0.04332 0.09375 1.00000
v 0.00000 0.09375 0.90515
v 0.00000 0.09375 1.00000
v 0.00000 0.00000 1.00000
v 0.00000 0.00000 0.90515
v 0.04332 0.00000 1.00000
v 0.04332 4.24547 1.00000
v 0.00000 4.24547 0.90515
v 0.00000 4.24547 1.00000
v 0.00000 4.09375 1.00000
v 0.00000 4.09375 0.90515
v 0.04332 4.09375 1.00000
v 0.06564 0.09375 1.00000
v 0.00000 0.09375 0.84888
v 0.00000 0.09375 0.90515
v 0.04332 0.09375 1.00000
v 0.04332 0.00000 1.00000
v 0.00000 0.00000 0.90515
v 0.00000 0.00000 0.84888
v 0.06564 0.00000 1.00000
v 0.06564 4.24547 1.00000
v 0.00000 4.24547 0.84888
v 0.00000 4.24547 0.90515
v 0.04332 4.24547 1.00000
v 0.04332 4.09375 1.00000
v 0.00000 4.09375 0.90515
v 0.00000 4.09375 0.84888
v 0.06564 4.09375 1.00000
v 0.14460 0.09375 1.00000
v 0.00000 0.09375 0.59313
v 0.00000 0.09375 0.84888
v 0.06564 0.09375 1.00000
v 0.06564 0.00000 1.00000
v 0.00000 0.00000 0.84888
v 0.00000 0.00000 0.59313
v 0.14460 0.00000 1.00000
v 0.14460 4.24547 1.00000
v 0.00000 4.24547 0.59313
v 0.00000 4.24547 0.84888
v 0.06564 4.24547 1.00000
v 0.06564 4.09375 1.00000
v 0.00000 4.09375 0.84888
v 0.00000 4.09375 0.59313
v 0.14460 4.09375 1.00000
v 0.21981 0.09375 1.00000
v 0.00000 0.09375 0.21548
v 0.00000 0.09375 0.59313
v 0.14460 0.09375 1.00000
v 0.14460 0.00000 1.00000
v 0.00000 0.00000 0.59313
v 0.00000 0.00000 0.21548
v 0.21981 0.00000 1.00000
v 0.21981 4.24547 1.00000
v 0.00000 4.24547 0.21548
v 0.00000 4.24547 0.59313
v 0.14460 4.24547 1.00000
v 0.14460 4.09375 1.00000
v 0.00000 4.09375 0.59313
v 0.00000 4.09375 0.21548
v 0.21981 4.09375 1.00000
v 0.08440 0.09375 0.00000
v 0.00000 0.09375 0.00000
v 0.00000 0.09375 0.21548
v 0.21981 0.09375 1.00000
v 0.29220 0.09375 1.00000
v 0.08440 0.09375 0.00000
v 0.21981 0.09375 1.00000
v 0.21981 0.00000 1.00000
v 0.00000 0.00000 0.21548
v 0.00000 0.00000 0.00000
v 0.08440 0.00000 0.00000
v 0.21981 0.00000 1.00000
v 0.08440 0.00000 0.00000
v 0.29220 0.00000 1.00000
v 0.08440 4.24547 0.00000
v 0.00000 4.24547 0.00000
v 0.00000 4.24547 0.21548
v 0.21981 4.24547 1.00000
v 0.29220 4.24547 1.00000
v 0.08440 4.24547 0.00000
v 0.21981 4.24547 1.00000
v 0.21981 4.09375 1.00000
v 0.00000 4.09375 0.21548
v 0.00000 4.09375 0.00000
v 0.08440 4.09375 0.00000
v 0.21981 4.09375 1.00000
v 0.08440 4.09375 0.00000
v 0.29220 4.09375 1.00000
v 0.35622 0.09375 1.00000
v 0.21244 0.09375 0.00000
v 0.08440 0.09375 0.00000
v 0.29220 0.09375 1.00000
v 0.29220 0.00000 1.00000
v 0.08440 0.00000 0.00000
v 0.21244 0.00000 0.00000
v 0.35622 0.00000 1.00000
v 0.35622 4.24547 1.00000
v 0.21244 4.24547 0.00000
v 0.08440 4.24547 0.00000
v 0.29220 4.24547 1.00000
v 0.29220 4.09375 1.00000
v 0.08440 4.09375 0.00000
v 0.21244 4.09375 0.00000
v 0.35622 4.09375 1.00000
v 0.36255 0.09375 1.00000
v 0.22511 0.09375 0.00000
v 0.21244 0.09375 -0.00000
v 0.35622 0.09375 1.00000
v 0.35622 0.00000 1.00000
v 0.21244 0.00000 -0.00000
v 0.22511 0.00000 0.00000
v 0.36255 0.00000 1.00000
v 0.36255 4.24547 1.00000
v 0.22511 4.24547 0.00000
v 0.21244 4.24547 -0.00000
v 0.35622 4.24547 1.00000
v 0.35622 4.09375 1.00000
v 0.21244 4.09375 -0.00000
v 0.22511 4.09375 0.00000
v 0.36255 4.09375 1.00000
v 0.43160 0.09375 1.00000
v 0.36320 0.09375 0.00000
v 0.22511 0.09375 -0.00000
v 0.36255 0.09375 1.00000
v 0.36255 0.00000 1.00000
v 0.22511 0.00000 -0.00000
v 0.36320 0.00000 0.00000
v 0.43160 0.00000 1.00000
v 0.43160 4.24547 1.00000
v 0.36320 4.24547 0.00000
v 0.22511 4.24547 -0.00000
v 0.36255 4.24547 1.00000
v 0.36255 4.09375 1.00000
v 0.22511 4.09375 -0.00000
v 0.36320 4.09375 0.00000
v 0.43160 4.09375 1.00000
v 0.50000 0.09375 1.00000
v 0.50000 0.09375 0.00000
v 0.36320 0.09375 0.00000
v 0.43160 0.09375 1.00000
v 0.43160 0.00000 1.00000
v 0.36320 0.00000 0.00000
v 0.50000 0.00000 0.00000
v 0.50000 0.00000 1.00000
v 0.50000 4.24547 1.00000
v 0.50000 4.24547 0.00000
v 0.36320 4.24547 0.00000
v 0.43160 4.24547 1.00000
v 0.43160 4.09375 1.00000
v 0.36320 4.09375 0.00000
v 0.50000 4.09375 0.00000
v 0.50000 4.09375 1.00000
v 0.56840 0.09375 1.00000
v 0.63680 0.09375 0.00000
v 0.50000 0.09375 -0.00000
v 0.50000 0.09375 1.00000
v 0.50000 0.00000 1.00000
v 0.50000 0.00000 -0.00000
v 0.63680 0.00000 0.00000
v 0.56840 0.00000 1.00000
v 0.56840 4.24547 1.00000
v 0.63680 4.24547 0.00000
v 0.50000 4.24547 -0.00000
v 0.50000 4.24547 1.00000
v 0.50000 4.09375 1.00000
v 0.50000 4.09375 -0.00000
v 0.63680 4.09375 0.00000
v 0.56840 4.09375 1.00000
v 0.63745 0.09375 1.00000
v 0.77489 0.09375 0.00000
v 0.63680 0.09375 0.00000
v 0.56840 0.09375 1.00000
v 0.56840 0.00000 1.00000
v 0.63680 0.00000 0.00000
v 0.77489 0.00000 0.00000
v 0.63745 0.00000 1.00000
v 0.63745 4.24547 1.00000
v 0.77489 4.24547 0.00000
v 0.63680 4.24547 0.00000
v 0.56840 4.24547 1.00000
v 0.56840 4.09375 1.00000
v 0.63680 4.09375 0.00000
v 0.77489 4.09375 0.00000
v 0.63745 4.09375 1.00000
v 0.64378 0.09375 1.00000
v 0.78756 0.09375 0.00000
v 0.77489 0.09375 -0.00000
v 0.63745 0.09375 1.00000
v 0.63745 0.00000 1.00000
v 0.77489 0.00000 -0.00000
v 0.78756 0.00000 0.00000
v 0.64378 0.00000 1.00000
v 0.64378 4.24547 1.00000
v 0.78756 4.24547 0.00000
v 0.77489 4.24547 -0.00000
v 0.63745 4.24547 1.00000
v 0.63745 4.09375 1.00000
v 0.77489 4.09375 -0.00000
v 0.78756 4.09375 0.00000
v 0.64378 4.09375 1.00000
v 0.70780 0.09375 1.00000
v 0.91560 0.09375 0.00000
v 0.78756 0.09375 -0.00000
v 0.64378 0.09375 1.00000
v 0.64378 0.00000 1.00000
v 0.78756 0.00000 -0.00000
v 0.91560 0.00000 0.00000
v 0.70780 0.00000 1.00000
v 0.70780 4.24547 1.00000
v 0.91560 4.24547 0.00000
v 0.78756 4.24547 -0.00000
v 0.64378 4.24547 1.00000
v 0.64378 4.09375 1.00000
v 0.78756 4.09375 -0.00000
v 0.91560 4.09375 0.00000
v 0.70780 4.09375 1.00000
v 1.00000 0.09375 0.21548
v 1.00000 0.09375 0.00000
v 0.91560 0.09375 0.00000
v 0.70780 0.09375 1.00000
v 0.78019 0.09375 1.00000
v 1.00000 0.09375 0.21548
v 0.70780 0.09375 1.00000
v 0.70780 0.00000 1.00000
v 0.91560 0.00000 0.00000
v 1.00000 0.00000 0.00000
v 1.00000 0.00000 0.21548
v 0.70780 0.00000 1.00000
v 1.00000 0.00000 0.21548
v 0.78019 0.00000 1.00000
v 1.00000 4.24547 0.21548
v 1.00000 4.24547 0.00000
v 0.91560 4.24547 0.00000
v 0.70780 4.24547 1.00000
v 0.78019 4.24547 1.00000
v 1.00000 4.24547 0.21548
v 0.70780 4.24547 1.00000
v 0.70780 4.09375 1.00000
v 0.91560 4.09375 0.00000
v 1.00000 4.09375 0.00000
v 1.00000 4.09375 0.21548
v 0.70780 4.09375 1.00000
v 1.00000 4.09375 0.21548
v 0.78019 4.09375 1.00000
v 0.85540 0.09375 1.00000
v 1.00000 0.09375 0.59313
v 1.00000 0.09375 0.21548
v 0.78019 0.09375 1.00000
v 0.78019 0.00000 1.00000
v 1.00000 0.00000 0.21548
v 1.00000 0.00000 0.59313
v 0.85540 0.00000 1.00000
v 0.85540 4.24547 1.00000
v 1.00000 4.24547 0.59313
v 1.00000 4.24547 0.21548
v 0.78019 4.24547 1.00000
v 0.78019 4.09375 1.00000
v 1.00000 4.09375 0.21548
v 1.00000 4.09375 0.59313
v 0.85540 4.09375 1.00000
v 0.93436 0.09375 1.00000
v 1.00000 0.09375 0.84888
v 1.00000 0.09375 0.59313
v 0.85540 0.09375 1.00000
v 0.85540 0.00000 1.00000
v 1.00000 0.00000 0.59313
v 1.00000 0.00000 0.84888
v 0.93436 0.00000 1.00000
v 0.93436 4.24547 1.00000
v 1.00000 4.24547 0.84888
v 1.00000 4.24547 0.59313
v 0.85540 4.24547 1.00000
v 0.85540 4.09375 1.00000
v 1.00000 4.09375 0.59313
v 1.00000 4.09375 0.84888
v 0.93436 4.09375 1.00000
v 0.95668 0.09375 1.00000
v 1.00000 0.09375 0.90515
v 1.00000 0.09375 0.84888
v 0.93436 0.09375 1.00000
v 0.93436 0.00000 1.00000
v 1.00000 0.00000 0.84888
v 1.00000 0.00000 0.90515
v 0.95668 0.00000 1.00000
v 0.95668 4.24547 1.00000
v 1.00000 4.24547 0.90515
v 1.00000 4.24547 0.84888
v 0.93436 4.24547 1.00000
v 0.93436 4.09375 1.00000
v 1.00000 4.09375 0.84888
v 1.00000 4.09375 0.90515
v 0.95668 4.09375 1.00000
v 1.00000 0.09375 1.00000
v 1.00000 0.09375 0.90515
v 0.95668 0.09375 1.00000
v 0.95668 0.00000 1.00000
v 1.00000 0.00000 0.90515
v 1.00000 0.00000 1.00000
v 1.00000 4.24547 1.00000
v 1.00000 4.24547 0.90515
v 0.95668 4.24547 1.00000
v 0.95668 4.09375 1.00000
v 1.00000 4.09375 0.90515
v 1.00000 4.09375 1.00000
vt 0.51083 1.00000
vt 0.50000 0.97629
vt 0.50000 1.00000
vt 0.50000 1.00000
vt 0.50000 0.97629
vt 0.51083 1.00000
vt 0.51083 1.00000
vt 0.50000 0.97629
vt 0.50000 1.00000
vt 0.11679 0.05357
vt 0.12971 0.07120
vt 0.11396 0.07120
vt 0.51641 1.00000
vt 0.50000 0.96222
vt 0.50000 0.97629
vt 0.51083 1.00000
vt 0.51083 1.00000
vt 0.50000 0.97629
vt 0.50000 0.96222
vt 0.51641 1.00000
vt 0.51641 1.00000
vt 0.50000 0.96222
vt 0.50000 0.97629
vt 0.51083 1.00000
vt 0.11396 0.07120
vt 0.12971 0.07120
vt 0.13748 0.08051
vt 0.11259 0.08051
vt 0.53615 1.00000
vt 0.50000 0.89828
vt 0.50000 0.96222
vt 0.51641 1.00000
vt 0.51641 1.00000
vt 0.50000 0.96222
vt 0.50000 0.89828
vt 0.53615 1.00000
vt 0.53615 1.00000
vt 0.50000 0.89828
vt 0.50000 0.96222
vt 0.51641 1.00000
vt 0.11259 0.08051
vt 0.13748 0.08051
vt 0.17343 0.11466
vt 0.10821 0.11466
vt 0.55495 1.00000
vt 0.50000 0.80387
vt 0.50000 0.89828
vt 0.53615 1.00000
vt 0.53615 1.00000
vt 0.50000 0.89828
vt 0.50000 0.80387
vt 0.55495 1.00000
vt 0.55495 1.00000
vt 0.50000 0.80387
vt 0.50000 0.89828
vt 0.53615 1.00000
vt 0.10821 0.11466
vt 0.17343 0.11466
vt 0.22783 0.14881
vt 0.10478 0.14881
vt 0.52110 0.75000
vt 0.50000 0.75000
vt 0.50000 0.80387
vt 0.55495 1.00000
vt 0.57305 1.00000
vt 0.52110 0.75000
vt 0.55495 1.00000
vt 0.55495 1.00000
vt 0.50000 0.80387
vt 0.50000 0.75000
vt 0.52110 0.75000
vt 0.55495 1.00000
vt 0.52110 0.75000
vt 0.57305 1.00000
vt 0.52110 0.75000
vt 0.50000 0.75000
vt 0.50000 0.80387
vt 0.55495 1.00000
vt 0.57305 1.00000
vt 0.52110 0.75000
vt 0.55495 1.00000
vt 0.10478 0.14881
vt 0.22783 0.14881
vt 0.25930 0.16291
vt 0.25645 0.18295
vt 0.10478 0.14881
vt 0.25645 0.18295
vt 0.10219 0.18295
vt 0.58906 1.00000
vt 0.55311 0.75000
vt 0.52110 0.75000
vt 0.57305 1.00000
vt 0.57305 1.00000
vt 0.52110 0.75000
vt 0.55311 0.75000
vt 0.58906 1.00000
vt 0.58906 1.00000
vt 0.55311 0.75000
vt 0.52110 0.75000
vt 0.57305 1.00000
vt 0.10219 0.18295
vt 0.25645 0.18295
vt 0.25311 0.21400
vt 0.10051 0.21400
vt 0.59064 1.00000
vt 0.55628 0.75000
vt 0.55311 0.75000
vt 0.58906 1.00000
vt 0.58906 1.00000
vt 0.55311 0.75000
vt 0.55628 0.75000
vt 0.59064 1.00000
vt 0.59064 1.00000
vt 0.55628 0.75000
vt 0.55311 0.75000
vt 0.58906 1.00000
vt 0.10051 0.21400
vt 0.25311 0.21400
vt 0.25284 0.21710
vt 0.10038 0.21710
vt 0.60790 1.00000
vt 0.59080 0.75000
vt 0.55628 0.75000
vt 0.59064 1.00000
vt 0.59064 1.00000
vt 0.55628 0.75000
vt 0.59080 0.75000
vt 0.60790 1.00000
vt 0.60790 1.00000
vt 0.59080 0.75000
vt 0.55628 0.75000
vt 0.59064 1.00000
vt 0.10038 0.21710
vt 0.25284 0.21710
vt 0.25071 0.25125
vt 0.09931 0.25125
vt 0.62500 1.00000
vt 0.62500 0.75000
vt 0.59080 0.75000
vt 0.60790 1.00000
vt 0.60790 1.00000
vt 0.59080 0.75000
vt 0.62500 0.75000
vt 0.62500 1.00000
vt 0.62500 1.00000
vt 0.62500 0.75000
vt 0.59080 0.75000
vt 0.60790 1.00000
vt 0.09931 0.25125
vt 0.25071 0.25125
vt 0.25000 0.28540
vt 0.09896 0.28540
vt 0.64210 1.00000
vt 0.65920 0.75000
vt 0.62500 0.75000
vt 0.62500 1.00000
vt 0.62500 1.00000
vt 0.62500 0.75000
vt 0.65920 0.75000
vt 0.64210 1.00000
vt 0.64210 1.00000
vt 0.65920 0.75000
vt 0.62500 0.75000
vt 0.62500 1.00000
vt 0.09896 0.28540
vt 0.25000 0.28540
vt 0.25071 0.31955
vt 0.09931 0.31955
vt 0.65936 1.00000
vt 0.69372 0.75000
vt 0.65920 0.75000
vt 0.64210 1.00000
vt 0.64210 1.00000
vt 0.65920 0.75000
vt 0.69372 0.75000
vt 0.65936 1.00000
vt 0.65936 1.00000
vt 0.69372 0.75000
vt 0.65920 0.75000
vt 0.64210 1.00000
vt 0.09931 0.31955
vt 0.25071 0.31955
vt 0.25284 0.35369
vt 0.10038 0.35369
vt 0.66094 1.00000
vt 0.69689 0.75000
vt 0.69372 0.75000
vt 0.65936 1.00000
vt 0.65936 1.00000
vt 0.69372 0.75000
vt 0.69689 0.75000
vt 0.66094 1.00000
vt 0.66094 1.00000
vt 0.69689 0.75000
vt 0.69372 0.75000
vt 0.65936 1.00000
vt 0.10038 0.35369
vt 0.25284 0.35369
vt 0.25311 0.35680
vt 0.10051 0.35680
vt 0.67695 1.00000
vt 0.72890 0.75000
vt 0.69689 0.75000
vt 0.66094 1.00000
vt 0.66094 1.00000
vt 0.69689 0.75000
vt 0.72890 0.75000
vt 0.67695 1.00000
vt 0.67695 1.00000
vt 0.72890 0.75000
vt 0.69689 0.75000
vt 0.66094 1.00000
vt 0.10051 0.35680
vt 0.25311 0.35680
vt 0.25645 0.38784
vt 0.10219 0.38784
vt 0.75000 0.80387
vt 0.75000 0.75000
vt 0.72890 0.75000
vt 0.67695 1.00000
vt 0.69505 1.00000
vt 0.75000 0.80387
vt 0.67695 1.00000
vt 0.67695 1.00000
vt 0.72890 0.75000
vt 0.75000 0.75000
vt 0.75000 0.80387
vt 0.67695 1.00000
vt 0.75000 0.80387
vt 0.69505 1.00000
vt 0.75000 0.80387
vt 0.75000 0.75000
vt 0.72890 0.75000
vt 0.67695 1.00000
vt 0.69505 1.00000
vt 0.75000 0.80387
vt 0.67695 1.00000
vt 0.10219 0.38784
vt 0.25645 0.38784
vt 0.25930 0.40789
vt 0.22783 0.42199
vt 0.10219 0.38784
vt 0.22783 0.42199
vt 0.10478 0.42199
vt 0.71385 1.00000
vt 0.75000 0.89828
vt 0.75000 0.80387
vt 0.69505 1.00000
vt 0.69505 1.00000
vt 0.75000 0.80387
vt 0.75000 0.89828
vt 0.71385 1.00000
vt 0.71385 1.00000
vt 0.75000 0.89828
vt 0.75000 0.80387
vt 0.69505 1.00000
vt 0.10478 0.42199
vt 0.22783 0.42199
vt 0.17343 0.45614
vt 0.10821 0.45614
vt 0.73359 1.00000
vt 0.75000 0.96222
vt 0.75000 0.89828
vt 0.71385 1.00000
vt 0.71385 1.00000
vt 0.75000 0.89828
vt 0.75000 0.96222
vt 0.73359 1.00000
vt 0.73359 1.00000
vt 0.75000 0.96222
vt 0.75000 0.89828
vt 0.71385 1.00000
vt 0.10821 0.45614
vt 0.17343 0.45614
vt 0.13748 0.49028
vt 0.11259 0.49028
vt 0.73917 1.00000
vt 0.75000 0.97629
vt 0.75000 0.96222
vt 0.73359 1.00000
vt 0.73359 1.00000
vt 0.75000 0.96222
vt 0.75000 0.97629
vt 0.73917 1.00000
vt 0.73917 1.00000
vt 0.75000 0.97629
vt 0.75000 0.96222
vt 0.73359 1.00000
vt 0.11259 0.49028
vt 0.13748 0.49028
vt 0.12971 0.49960
vt 0.11396 0.49960
vt 0.75000 1.00000
vt 0.75000 0.97629
vt 0.73917 1.00000
vt 0.73917 1.00000
vt 0.75000 0.97629
vt 0.75000 1.00000
vt 0.75000 1.00000
vt 0.75000 0.97629
vt 0.73917 1.00000
vt 0.11396 0.00000
vt 0.12971 0.00000
vt 0.11679 0.01722
vn 0.00000 1.00000 0.00000
vn 0.00000 1.00000 0.00000
vn 0.00000 1.00000 0.00000
vn 0.00000 -1.00000 0.00000
vn 0.00000 -1.00000 0.00000
vn 0.00000 -1.00000 0.00000
vn 0.00000 1.00000 0.00000
vn 0.00000 1.00000 0.00000
vn 0.00000 1.00000 0.00000
vn 0.00000 -1.00000 0.00000
vn 0.00000 -1.00000 0.00000
vn 0.00000 -1.00000 0.00000
vn 0.00000 1.00000 0.00000
vn 0.00000 1.00000 0.00000
vn 0.00000 1.00000 0.00000
vn 0.00000 1.00000 0.00000
vn 0.00000 -1.00000 0.00000
vn 0.00000 -1.00000 0.00000
vn 0.00000 -1.00000 0.00000
vn 0.00000 -1.00000 0.00000
vn 0.00000 1.00000 0.00000
vn 0.00000 1.00000 0.00000
vn 0.00000 1.00000 0.00000
vn 0.00000 1.00000 0.00000
vn 0.00000 -1.00000 0.00000
vn 0.00000 -1.00000 0.00000
vn 0.00000 -1.00000 0.00000
vn 0.00000 -1.00000 0.00000
vn 0.00000 1.00000 0.00000
vn 0.00000 1.00000 0.00000
vn 0.00000 1.00000 0.00000
vn 0.00000 1.00000 0.00000
vn 0.00000 -1.00000 0.00000
vn 0.00000 -1.00000 0.00000
vn 0.00000 -1.00000 0.00000
vn 0.00000 -1.00000 0.00000
vn 0.00000 1.00000 0.00000
vn 0.00000 1.00000 0.00000
vn 0.00000 1.00000 0.00000
vn 0.00000 1.00000 0.00000
vn 0.00000 -1.00000 0.00000
vn 0.00000 -1.00000 0.00000
vn 0.00000 -1.00000 0.00000
vn 0.00000 -1.00000 0.00000
vn 0.00000 1.00000 0.00000
vn 0.00000 1.00000 0.00000
vn 0.00000 1.00000 0.00000
vn 0.00000 1.00000 0.00000
vn 0.00000 -1.00000 0.00000
vn 0.00000 -1.00000 0.00000
vn 0.00000 -1.00000 0.00000
vn 0.00000 -1.00000 0.00000
vn 0.00000 1.00000 0.00000
vn 0.00000 1.00000 0.00000
vn 0.00000 1.00000 0.00000
vn 0.00000 1.00000 0.00000
vn 0.00000 -1.00000 0.00000
vn 0.00000 -1.00000 0.00000
vn 0.00000 -1.00000 0.00000
vn 0.00000 -1.00000 0.00000
vn 0.00000 1.00000 0.00000
vn 0.00000 1.00000 0.00000
vn 0.00000 1.00000 0.00000
vn 0.00000 1.00000 0.00000
vn 0.00000 1.00000 0.00000
vn 0.00000 1.00000 0.00000
vn 0.00000 1.00000 0.00000
vn 0.00000 -1.00000 0.00000
vn 0.00000 -1.00000 0.00000
vn 0.00000 -1.00000 0.00000
vn 0.00000 -1.00000 0.00000
vn 0.00000 -1.00000 0.00000
vn 0.00000 -1.00000 0.00000
vn 0.00000 -1.00000 0.00000
vn 0.00000 1.00000 0.00000
vn 0.00000 1.00000 0.00000
vn 0.00000 1.00000 0.00000
vn 0.00000 1.00000 0.00000
vn 0.00000 1.00000 0.00000
vn 0.00000 1.00000 0.00000
vn 0.00000 1.00000 0.00000
vn 0.00000 -1.00000 0.00000
vn 0.00000 -1.00000 0.00000
vn 0.00000 -1.00000 0.00000
vn 0.00000 -1.00000 0.00000
vn 0.00000 -1.00000 0.00000
vn 0.00000 -1.00000 0.00000
vn 0.00000 -1.00000 0.00000
vn 0.00000 1.00000 0.00000
vn 0.00000 1.00000 0.00000
vn 0.00000 1.00000 0.00000
vn 0.00000 1.00000 0.00000
vn 0.00000 -1.00000 0.00000
vn 0.00000 -1.00000 0.00000
vn 0.00000 -1.00000 0.00000
vn 0.00000 -1.00000 0.00000
vn 0.00000 1.00000 0.00000
vn 0.00000 1.00000 0.00000
vn 0.00000 1.00000 0.00000
vn 0.00000 1.00000 0.00000
vn 0.00000 -1.00000 0.00000
vn 0.00000 -1.00000 0.00000
vn 0.00000 -1.00000 0.00000
vn 0.00000 -1.00000 0.00000
vn 0.00000 1.00000 0.00000
vn 0.00000 1.00000 0.00000
vn 0.00000 1.00000 0.00000
vn 0.00000 1.00000 0.00000
vn 0.00000 -1.00000 0.00000
vn 0.00000 -1.00000 0.00000
vn 0.00000 -1.00000 0.00000
vn 0.00000 -1.00000 0.00000
vn 0.00000 1.00000 0.00000
vn 0.00000 1.00000 0.00000
vn 0.00000 1.00000 0.00000
vn 0.00000 1.00000 0.00000
vn 0.00000 -1.00000 0.00000
vn 0.00000 -1.00000 0.00000
vn 0.00000 -1.00000 0.00000
vn 0.00000 -1.00000 0.00000
vn 0.00000 1.00000 0.00000
vn 0.00000 1.00000 0.00000
vn 0.00000 1.00000 0.00000
vn 0.00000 1.00000 0.00000
vn 0.00000 -1.00000 0.00000
vn 0.00000 -1.00000 0.00000
vn 0.00000 -1.00000 0.00000
vn 0.00000 -1.00000 0.00000
vn 0.00000 1.00000 0.00000
vn 0.00000 1.00000 0.00000
vn 0.00000 1.00000 0.00000
vn 0.00000 1.00000 0.00000
vn 0.00000 -1.00000 0.00000
vn 0.00000 -1.00000 0.00000
vn 0.00000 -1.00000 0.00000
vn 0.00000 -1.00000 0.00000
vn 0.00000 1.00000 0.00000
vn 0.00000 1.00000 0.00000
vn 0.00000 1.00000 0.00000
vn 0.00000 1.00000 0.00000
vn 0.00000 -1.00000 0.00000
vn 0.00000 -1.00000 0.00000
vn 0.00000 -1.00000 0.00000
vn 0.00000 -1.00000 0.00000
vn 0.00000 1.00000 0.00000
vn 0.00000 1.00000 0.00000
vn 0.00000 1.00000 0.00000
vn 0.00000 1.00000 0.00000
vn 0.00000 -1.00000 0.00000
vn 0.00000 -1.00000 0.00000
vn 0.00000 -1.00000 0.00000
vn 0.00000 -1.00000 0.00000
vn 0.00000 1.00000 0.00000
vn 0.00000 1.00000 0.00000
vn 0.00000 1.00000 0.00000
vn 0.00000 1.00000 0.00000
vn 0.00000 -1.00000 0.00000
vn 0.00000 -1.00000 0.00000
vn 0.00000 -1.00000 0.00000
vn 0.00000 -1.00000 0.00000
vn 0.00000 1.00000 0.00000
vn 0.00000 1.00000 0.00000
vn 0.00000 1.00000 0.00000
vn 0.00000 1.00000 0.00000
vn 0.00000 -1.00000 0.00000
vn 0.00000 -1.00000 0.00000
vn 0.00000 -1.00000 0.00000
vn 0.00000 -1.00000 0.00000
vn 0.00000 1.00000 0.00000
vn 0.00000 1.00000 0.00000
vn 0.00000 1.00000 0.00000
vn 0.00000 1.00000 0.00000
vn 0.00000 -1.00000 0.00000
vn 0.00000 -1.00000 0.00000
vn 0.00000 -1.00000 0.00000
vn 0.00000 -1.00000 0.00000
vn 0.00000 1.00000 0.00000
vn 0.00000 1.00000 0.00000
vn 0.00000 1.00000 0.00000
vn 0.00000 1.00000 0.00000
vn 0.00000 -1.00000 0.00000
vn 0.00000 -1.00000 0.00000
vn 0.00000 -1.00000 0.00000
vn 0.00000 -1.00000 0.00000
vn 0.00000 1.00000 0.00000
vn 0.00000 1.00000 0.00000
vn 0.00000 1.00000 0.00000
vn 0.00000 1.00000 0.00000
vn 0.00000 -1.00000 0.00000
vn 0.00000 -1.00000 0.00000
vn 0.00000 -1.00000 0.00000
vn 0.00000 -1.00000 0.00000
vn 0.00000 1.00000 0.00000
vn 0.00000 1.00000 0.00000
vn 0.00000 1.00000 0.00000
vn 0.00000 1.00000 0.00000
vn 0.00000 -1.00000 0.00000
vn 0.00000 -1.00000 0.00000
vn 0.00000 -1.00000 0.00000
vn 0.00000 -1.00000 0.00000
vn 0.00000 1.00000 0.00000
vn 0.00000 1.00000 0.00000
vn 0.00000 1.00000 0.00000
vn 0.00000 1.00000 0.00000
vn 0.00000 -1.00000 0.00000
vn 0.00000 -1.00000 0.00000
vn 0.00000 -1.00000 0.00000
vn 0.00000 -1.00000 0.00000
vn 0.00000 1.00000 0.00000
vn 0.00000 1.00000 0.00000
vn 0.00000 1.00000 0.00000
vn 0.00000 1.00000 0.00000
vn 0.00000 -1.00000 0.00000
vn 0.00000 -1.00000 0.00000
vn 0.00000 -1.00000 0.00000
vn 0.00000 -1.00000 0.00000
vn 0.00000 1.00000 0.00000
vn 0.00000 1.00000 0.00000
vn 0.00000 1.00000 0.00000
vn 0.00000 1.00000 0.00000
vn 0.00000 1.00000 0.00000
vn 0.00000 1.00000 0.00000
vn 0.00000 1.00000 0.00000
vn 0.00000 -1.00000 0.00000
vn 0.00000 -1.00000 0.00000
vn 0.00000 -1.00000 0.00000
vn 0.00000 -1.00000 0.00000
vn 0.00000 -1.00000 0.00000
vn 0.00000 -1.00000 0.00000
vn 0.00000 -1.00000 0.00000
vn 0.00000 1.00000 0.00000
vn 0.00000 1.00000 0.00000
vn 0.00000 1.00000 0.00000
vn 0.00000 1.00000 0.00000
vn 0.00000 1.00000 0.00000
vn 0.00000 1.00000 0.00000
vn 0.00000 1.00000 0.00000
vn 0.00000 -1.00000 0.00000
vn 0.00000 -1.00000 0.00000
vn 0.00000 -1.00000 0.00000
vn 0.00000 -1.00000 0.00000
vn 0.00000 -1.00000 0.00000
vn 0.00000 -1.00000 0.00000
vn 0.00000 -1.00000 0.00000
vn 0.00000 1.00000 0.00000
vn 0.00000 1.00000 0.00000
vn 0.00000 1.00000 0.00000
vn 0.00000 1.00000 0.00000
vn 0.00000 -1.00000 0.00000
vn 0.00000 -1.00000 0.00000
vn 0.00000 -1.00000 0.00000
vn 0.00000 -1.00000 0.00000
vn 0.00000 1.00000 0.00000
vn 0.00000 1.00000 0.00000
vn 0.00000 1.00000 0.00000
vn 0.00000 1.00000 0.00000
vn 0.00000 -1.00000 0.00000
vn 0.00000 -1.00000 0.00000
vn 0.00000 -1.00000 0.00000
vn 0.00000 -1.00000 0.00000
vn 0.00000 1.00000 0.00000
vn 0.00000 1.00000 0.00000
vn 0.00000 1.00000 0.00000
vn 0.00000 1.00000 0.00000
vn 0.00000 -1.00000 0.00000
vn 0.00000 -1.00000 0.00000
vn 0.00000 -1.00000 0.00000
vn 0.00000 -1.00000 0.00000
vn 0.00000 1.00000 0.00000
vn 0.00000 1.00000 0.00000
vn 0.00000 1.00000 0.00000
vn 0.00000 1.00000 0.00000
vn 0.00000 -1.00000 0.00000
vn 0.00000 -1.00000 0.00000
vn 0.00000 -1.00000 0.00000
vn 0.00000 -1.00000 0.00000
vn 0.00000 1.00000 0.00000
vn 0.00000 1.00000 0.00000
vn 0.00000 1.00000 0.00000
vn 0.00000 1.00000 0.00000
vn 0.00000 -1.00000 0.00000
vn 0.00000 -1.00000 0.00000
vn 0.00000 -1.00000 0.00000
vn 0.00000 -1.00000 0.00000
vn 0.00000 1.00000 0.00000
vn 0.00000 1.00000 0.00000
vn 0.00000 1.00000 0.00000
vn 0.00000 1.00000 0.00000
vn 0.00000 -1.00000 0.00000
vn 0.00000 -1.00000 0.00000
vn 0.00000 -1.00000 0.00000
vn 0.00000 -1.00000 0.00000
vn 0.00000 1.00000 0.00000
vn 0.00000 1.00000 0.00000
vn 0.00000 1.00000 0.00000
vn 0.00000 -1.00000 0.00000
vn 0.00000 -1.00000 0.00000
vn 0.00000 -1.00000 0.00000
vn 0.00000 1.00000 0.00000
vn 0.00000 1.00000 0.00000
vn 0.00000 1.00000 0.00000
vn 0.00000 -1.00000 0.00000
vn 0.00000 -1.00000 0.00000
vn 0.00000 -1.00000 0.00000
usemtl ceiling
f 10/10/10 11/11/11 12/12/12
f 25/25/25 26/26/26 27/27/27 28/28/28
f 41/41/41 42/42/42 43/43/43 44/44/44
f 57/57/57 58/58/58 59/59/59 60/60/60
f 82/82/82 83/83/83 84/84/84 85/85/85
f 86/86/86 87/87/87 88/88/88
f 101/101/101 102/102/102 103/103/103 104/104/104
f 117/117/117 118/118/118 119/119/119 120/120/120
f 133/133/133 134/134/134 135/135/135 136/136/136
f 149/149/149 150/150/150 151/151/151 152/152/152
f 165/165/165 166/166/166 167/167/167 168/168/168
f 181/181/181 182/182/182 183/183/183 184/184/184
f 197/197/197 198/198/198 199/199/199 200/200/200
f 213/213/213 214/214/214 215/215/215 216/216/216
f 238/238/238 239/239/239 240/240/240 241/241/241
f 242/242/242 243/243/243 244/244/244
f 257/257/257 258/258/258 259/259/259 260/260/260
f 273/273/273 274/274/274 275/275/275 276/276/276
f 289/289/289 290/290/290 291/291/291 292/292/292
f 302/302/302 303/303/303 304/304/304
usemtl floor
f 1/1/1 2/2/2 3/3/3
f 13/13/13 14/14/14 15/15/15 16/16/16
f 29/29/29 30/30/30 31/31/31 32/32/32
f 45/45/45 46/46/46 47/47/47 48/48/48
f 61/61/61 62/62/62 63/63/63 64/64/64
f 65/65/65 66/66/66 67/67/67
f 89/89/89 90/90/90 91/91/91 92/92/92
f 105/105/105 106/106/106 107/107/107 108/108/108
f 121/121/121 122/122/122 123/123/123 124/124/124
f 137/137/137 138/138/138 139/139/139 140/140/140
f 153/153/153 154/154/154 155/155/155 156/156/156
f 169/169/169 170/170/170 171/171/171 172/172/172
f 185/185/185 186/186/186 187/187/187 188/188/188
f 201/201/201 202/202/202 203/203/203 204/204/204
f 217/217/217 218/218/218 219/219/219 220/220/220
f 221/221/221 222/222/222 223/223/223
f 245/245/245 246/246/246 247/247/247 248/248/248
f 261/261/261 262/262/262 263/263/263 264/264/264
f 277/277/277 278/278/278 279/279/279 280/280/280
f 293/293/293 294/294/294 295/295/295
usemtl roof
f 7/7/7 8/8/8 9/9/9
f 21/21/21 22/22/22 23/23/23 24/24/24
f 37/37/37 38/38/38 39/39/39 40/40/40
f 53/53/53 54/54/54 55/55/55 56/56/56
f 75/75/75 76/76/76 77/77/77 78/78/78
f 79/79/79 80/80/80 81/81/81
f 97/97/97 98/98/98 99/99/99 100/100/100
f 113/113/113 114/114/114 115/115/115 116/116/116
f 129/129/129 130/130/130 131/131/131 132/132/132
f 145/145/145 146/146/146 147/147/147 148/148/148
f 161/161/161 162/162/162 163/163/163 164/164/164
f 177/177/177 178/178/178 179/179/179 180/180/180
f 193/193/193 194/194/194 195/195/195 196/196/196
f 209/209/209 210/210/210 211/211/211 212/212/212
f 231/231/231 232/232/232 233/233/233 234/234/234
f 235/235/235 236/236/236 237/237/237
f 253/253/253 254/254/254 255/255/255 256/256/256
f 269/269/269 270/270/270 271/271/271 272/272/272
f 285/285/285 286/286/286 287/287/287 288/288/288
f 299/299/299 300/300/300 301/301/301
usemtl under
f 4/4/4 5/5/5 6/6/6
f 17/17/17 18/18/18 19/19/19 20/20/20
f 33/33/33 34/34/34 35/35/35 36/36/36
f 49/49/49 50/50/50 51/51/51 52/52/52
f 68/68/68 69/69/69 70/70/70 71/71/71
f 72/72/72 73/73/73 74/74/74
f 93/93/93 94/94/94 95/95/95 96/96/96
f 109/109/109 110/110/110 111/111/111 112/112/112
f 125/125/125 126/126/126 127/127/127 128/128/128
f 141/141/141 142/142/142 143/143/143 144/144/144
f 157/157/157 158/158/158 159/159/159 160/160/160
f 173/173/173 174/174/174 175/175/175 176/176/176
f 189/189/189 190/190/190 191/191/191 192/192/192
f 205/205/205 206/206/206 207/207/207 208/208/208
f 224/224/224 225/225/225 226/226/226 227/227/227
f 228/228/228 229/229/229 230/230/230
f 249/249/249 250/250/250 251/251/251 252/252/252
f 265/265/265 266/266/266 267/267/267 268/268/268
f 281/281/281 282/282/282 283/283/283 284/284/284
f 296/296/296 297/297/297 298/298/298
