# Generated by dev-env-utils/scripts/gen_transit_airside.py -- do not edit
mtllib jet_bridge_large.mtl
o airport_jet_bridge_large_corner_c4
v 0.00000 0.09375 1.00000
v 1.00000 0.09375 1.00000
v 1.00000 0.09375 0.00000
v 0.00000 0.09375 0.00000
v 0.00000 0.00000 0.00000
v 1.00000 0.00000 0.00000
v 1.00000 0.00000 1.00000
v 0.00000 0.00000 1.00000
v 0.00000 4.24547 1.00000
v 1.00000 4.24547 1.00000
v 1.00000 4.24547 0.00000
v 0.00000 4.24547 0.00000
v 0.00000 4.09375 0.00000
v 1.00000 4.09375 0.00000
v 1.00000 4.09375 1.00000
v 0.00000 4.09375 1.00000
v 1.00000 4.09375 0.00000
v 1.00000 0.09375 0.00000
v 0.00000 0.09375 0.00000
v 0.00000 4.09375 0.00000
v 1.00000 0.09375 0.00000
v 1.00000 0.00000 0.00000
v 0.00000 0.00000 0.00000
v 0.00000 0.09375 0.00000
v 1.00000 4.24547 0.00000
v 1.00000 4.09375 0.00000
v 0.00000 4.09375 0.00000
v 0.00000 4.24547 0.00000
v 0.00000 4.09375 0.15517
v 0.00000 0.09375 0.15517
v 1.00000 0.09375 0.15517
v 1.00000 4.09375 0.15517
vt 0.25000 0.25000
vt 0.50000 0.25000
vt 0.50000 0.00000
vt 0.25000 0.00000
vt 0.25000 0.00000
vt 0.50000 0.00000
vt 0.50000 0.25000
vt 0.25000 0.25000
vt 0.25000 0.25000
vt 0.50000 0.25000
vt 0.50000 0.00000
vt 0.25000 0.00000
vt 0.62500 0.00000
vt 0.87500 0.00000
vt 0.87500 0.25000
vt 0.62500 0.25000
vt 0.50000 0.00000
vt 0.50000 0.90625
vt 0.00000 0.90625
vt 0.00000 0.00000
vt 1.00000 0.00000
vt 1.00000 0.09375
vt 0.00000 0.09375
vt 0.00000 0.00000
vt 1.00000 0.00000
vt 1.00000 0.09375
vt 0.00000 0.09375
vt 0.00000 0.00000
vt 0.00000 0.00000
vt 0.00000 0.90625
vt 0.50000 0.90625
vt 0.50000 0.00000
vn 0.00000 1.00000 0.00000
vn 0.00000 1.00000 0.00000
vn 0.00000 1.00000 0.00000
vn 0.00000 1.00000 0.00000
vn 0.00000 -1.00000 0.00000
vn 0.00000 -1.00000 0.00000
vn 0.00000 -1.00000 0.00000
vn 0.00000 -1.00000 0.00000
vn 0.00000 1.00000 0.00000
vn 0.00000 1.00000 0.00000
vn 0.00000 1.00000 0.00000
vn 0.00000 1.00000 0.00000
vn 0.00000 -1.00000 0.00000
vn 0.00000 -1.00000 0.00000
vn 0.00000 -1.00000 0.00000
vn 0.00000 -1.00000 0.00000
vn 0.00000 0.00000 -1.00000
vn 0.00000 0.00000 -1.00000
vn 0.00000 0.00000 -1.00000
vn 0.00000 0.00000 -1.00000
vn 0.00000 0.00000 -1.00000
vn 0.00000 0.00000 -1.00000
vn 0.00000 0.00000 -1.00000
vn 0.00000 0.00000 -1.00000
vn 0.00000 0.00000 -1.00000
vn 0.00000 0.00000 -1.00000
vn 0.00000 0.00000 -1.00000
vn 0.00000 0.00000 -1.00000
vn -0.00000 0.00000 1.00000
vn -0.00000 0.00000 1.00000
vn -0.00000 0.00000 1.00000
vn -0.00000 0.00000 1.00000
usemtl ceiling
f 13/13/13 14/14/14 15/15/15 16/16/16
usemtl floor
f 1/1/1 2/2/2 3/3/3 4/4/4
usemtl frame
f 21/21/21 22/22/22 23/23/23 24/24/24
f 25/25/25 26/26/26 27/27/27 28/28/28
usemtl inner
f 29/29/29 30/30/30 31/31/31 32/32/32
usemtl roof
f 9/9/9 10/10/10 11/11/11 12/12/12
usemtl skin
f 17/17/17 18/18/18 19/19/19 20/20/20
usemtl under
f 5/5/5 6/6/6 7/7/7 8/8/8
