# Generated by dev-env-utils/scripts/gen_transit_airside.py -- do not edit
mtllib jet_bridge_slope.mtl
o airport_jet_bridge_corner_c5
v 0.00000 0.09375 0.00000
v 0.00000 0.09375 0.31250
v 0.31250 0.09375 0.31250
v 0.31250 0.09375 0.00000
v 0.31250 0.00000 0.00000
v 0.31250 0.00000 0.31250
v 0.00000 0.00000 0.31250
v 0.00000 0.00000 0.00000
v 0.00000 1.97500 0.00000
v 0.00000 1.97500 0.31250
v 0.31250 1.97500 0.31250
v 0.31250 1.97500 0.00000
v 0.31250 1.90625 0.00000
v 0.31250 1.90625 0.31250
v 0.00000 1.90625 0.31250
v 0.00000 1.90625 0.00000
v 0.00000 0.09375 0.68750
v 0.31250 0.09375 0.68750
v 0.31250 0.09375 0.31250
v 0.00000 0.09375 0.31250
v 0.00000 0.00000 0.31250
v 0.31250 0.00000 0.31250
v 0.31250 0.00000 0.68750
v 0.00000 0.00000 0.68750
v 0.00000 1.97500 0.68750
v 0.31250 1.97500 0.68750
v 0.31250 1.97500 0.31250
v 0.00000 1.97500 0.31250
v 0.00000 1.90625 0.31250
v 0.31250 1.90625 0.31250
v 0.31250 1.90625 0.68750
v 0.00000 1.90625 0.68750
v 0.00000 0.09375 1.00000
v 0.31250 0.09375 1.00000
v 0.31250 0.09375 0.68750
v 0.00000 0.09375 0.68750
v 0.00000 0.00000 0.68750
v 0.31250 0.00000 0.68750
v 0.31250 0.00000 1.00000
v 0.00000 0.00000 1.00000
v 0.00000 1.97500 1.00000
v 0.31250 1.97500 1.00000
v 0.31250 1.97500 0.68750
v 0.00000 1.97500 0.68750
v 0.00000 1.90625 0.68750
v 0.31250 1.90625 0.68750
v 0.31250 1.90625 1.00000
v 0.00000 1.90625 1.00000
v 0.31250 0.09375 0.00000
v 0.31250 0.09375 0.31250
v 0.68750 0.09375 0.31250
v 0.68750 0.09375 0.00000
v 0.68750 0.00000 0.00000
v 0.68750 0.00000 0.31250
v 0.31250 0.00000 0.31250
v 0.31250 0.00000 0.00000
v 0.31250 1.97500 0.00000
v 0.31250 1.97500 0.31250
v 0.68750 1.97500 0.31250
v 0.68750 1.97500 0.00000
v 0.68750 1.90625 0.00000
v 0.68750 1.90625 0.31250
v 0.31250 1.90625 0.31250
v 0.31250 1.90625 0.00000
v 0.31250 0.09375 0.68750
v 0.68750 0.09375 0.68750
v 0.68750 0.09375 0.31250
v 0.31250 0.09375 0.31250
v 0.31250 0.00000 0.31250
v 0.68750 0.00000 0.31250
v 0.68750 0.00000 0.68750
v 0.31250 0.00000 0.68750
v 0.31250 1.97500 0.68750
v 0.68750 1.97500 0.68750
v 0.68750 1.97500 0.31250
v 0.31250 1.97500 0.31250
v 0.31250 1.90625 0.31250
v 0.68750 1.90625 0.31250
v 0.68750 1.90625 0.68750
v 0.31250 1.90625 0.68750
v 0.31250 0.09375 1.00000
v 0.68750 0.09375 1.00000
v 0.68750 0.09375 0.68750
v 0.31250 0.09375 0.68750
v 0.31250 0.00000 0.68750
v 0.68750 0.00000 0.68750
v 0.68750 0.00000 1.00000
v 0.31250 0.00000 1.00000
v 0.31250 1.97500 1.00000
v 0.68750 1.97500 1.00000
v 0.68750 1.97500 0.68750
v 0.31250 1.97500 0.68750
v 0.31250 1.90625 0.68750
v 0.68750 1.90625 0.68750
v 0.68750 1.90625 1.00000
v 0.31250 1.90625 1.00000
v 0.68750 0.09375 0.00000
v 0.68750 0.09375 0.31250
v 1.00000 0.09375 0.31250
v 1.00000 0.09375 0.00000
v 1.00000 0.00000 0.00000
v 1.00000 0.00000 0.31250
v 0.68750 0.00000 0.31250
v 0.68750 0.00000 0.00000
v 0.68750 1.97500 0.00000
v 0.68750 1.97500 0.31250
v 1.00000 1.97500 0.31250
v 1.00000 1.97500 0.00000
v 1.00000 1.90625 0.00000
v 1.00000 1.90625 0.31250
v 0.68750 1.90625 0.31250
v 0.68750 1.90625 0.00000
v 0.68750 0.09375 0.68750
v 1.00000 0.09375 0.68750
v 1.00000 0.09375 0.31250
v 0.68750 0.09375 0.31250
v 0.68750 0.00000 0.31250
v 1.00000 0.00000 0.31250
v 1.00000 0.00000 0.68750
v 0.68750 0.00000 0.68750
v 0.68750 1.97500 0.68750
v 1.00000 1.97500 0.68750
v 1.00000 1.97500 0.31250
v 0.68750 1.97500 0.31250
v 0.68750 1.90625 0.31250
v 1.00000 1.90625 0.31250
v 1.00000 1.90625 0.68750
v 0.68750 1.90625 0.68750
v 0.68750 0.09375 1.00000
v 1.00000 0.09375 1.00000
v 1.00000 0.09375 0.68750
v 0.68750 0.09375 0.68750
v 0.68750 0.00000 0.68750
v 1.00000 0.00000 0.68750
v 1.00000 0.00000 1.00000
v 0.68750 0.00000 1.00000
v 0.68750 1.97500 1.00000
v 1.00000 1.97500 1.00000
v 1.00000 1.97500 0.68750
v 0.68750 1.97500 0.68750
v 0.68750 1.90625 0.68750
v 1.00000 1.90625 0.68750
v 1.00000 1.90625 1.00000
v 0.68750 1.90625 1.00000
vt 0.00000 0.75000
vt 0.00000 0.82812
vt 0.07812 0.82812
vt 0.07812 0.75000
vt 0.07812 0.75000
vt 0.07812 0.82812
vt 0.00000 0.82812
vt 0.00000 0.75000
vt 0.00000 0.75000
vt 0.00000 0.82812
vt 0.07812 0.82812
vt 0.07812 0.75000
vt 0.45312 0.75000
vt 0.45312 0.82812
vt 0.37500 0.82812
vt 0.37500 0.75000
vt 0.00000 0.92188
vt 0.07812 0.92188
vt 0.07812 0.82812
vt 0.00000 0.82812
vt 0.00000 0.82812
vt 0.07812 0.82812
vt 0.07812 0.92188
vt 0.00000 0.92188
vt 0.00000 0.92188
vt 0.07812 0.92188
vt 0.07812 0.82812
vt 0.00000 0.82812
vt 0.37500 0.82812
vt 0.45312 0.82812
vt 0.45312 0.92188
vt 0.37500 0.92188
vt 0.00000 1.00000
vt 0.07812 1.00000
vt 0.07812 0.92188
vt 0.00000 0.92188
vt 0.00000 0.92188
vt 0.07812 0.92188
vt 0.07812 1.00000
vt 0.00000 1.00000
vt 0.00000 1.00000
vt 0.07812 1.00000
vt 0.07812 0.92188
vt 0.00000 0.92188
vt 0.37500 0.92188
vt 0.45312 0.92188
vt 0.45312 1.00000
vt 0.37500 1.00000
vt 0.07812 0.75000
vt 0.07812 0.82812
vt 0.17188 0.82812
vt 0.17188 0.75000
vt 0.17188 0.75000
vt 0.17188 0.82812
vt 0.07812 0.82812
vt 0.07812 0.75000
vt 0.07812 0.75000
vt 0.07812 0.82812
vt 0.17188 0.82812
vt 0.17188 0.75000
vt 0.54688 0.75000
vt 0.54688 0.82812
vt 0.45312 0.82812
vt 0.45312 0.75000
vt 0.07812 0.92188
vt 0.17188 0.92188
vt 0.17188 0.82812
vt 0.07812 0.82812
vt 0.07812 0.82812
vt 0.17188 0.82812
vt 0.17188 0.92188
vt 0.07812 0.92188
vt 0.07812 0.92188
vt 0.17188 0.92188
vt 0.17188 0.82812
vt 0.07812 0.82812
vt 0.20312 0.82812
vt 0.29688 0.82812
vt 0.29688 0.92188
vt 0.20312 0.92188
vt 0.07812 1.00000
vt 0.17188 1.00000
vt 0.17188 0.92188
vt 0.07812 0.92188
vt 0.07812 0.92188
vt 0.17188 0.92188
vt 0.17188 1.00000
vt 0.07812 1.00000
vt 0.07812 1.00000
vt 0.17188 1.00000
vt 0.17188 0.92188
vt 0.07812 0.92188
vt 0.20312 0.92188
vt 0.29688 0.92188
vt 0.29688 1.00000
vt 0.20312 1.00000
vt 0.17188 0.75000
vt 0.17188 0.82812
vt 0.25000 0.82812
vt 0.25000 0.75000
vt 0.25000 0.75000
vt 0.25000 0.82812
vt 0.17188 0.82812
vt 0.17188 0.75000
vt 0.17188 0.75000
vt 0.17188 0.82812
vt 0.25000 0.82812
vt 0.25000 0.75000
vt 0.62500 0.75000
vt 0.62500 0.82812
vt 0.54688 0.82812
vt 0.54688 0.75000
vt 0.17188 0.92188
vt 0.25000 0.92188
vt 0.25000 0.82812
vt 0.17188 0.82812
vt 0.17188 0.82812
vt 0.25000 0.82812
vt 0.25000 0.92188
vt 0.17188 0.92188
vt 0.17188 0.92188
vt 0.25000 0.92188
vt 0.25000 0.82812
vt 0.17188 0.82812
vt 0.20312 0.17188
vt 0.20312 0.25000
vt 0.29688 0.25000
vt 0.29688 0.17188
vt 0.17188 1.00000
vt 0.25000 1.00000
vt 0.25000 0.92188
vt 0.17188 0.92188
vt 0.17188 0.92188
vt 0.25000 0.92188
vt 0.25000 1.00000
vt 0.17188 1.00000
vt 0.17188 1.00000
vt 0.25000 1.00000
vt 0.25000 0.92188
vt 0.17188 0.92188
vt 0.54688 0.92188
vt 0.62500 0.92188
vt 0.62500 1.00000
vt 0.54688 1.00000
vn 0.00000 1.00000 0.00000
vn 0.00000 1.00000 0.00000
vn 0.00000 1.00000 0.00000
vn 0.00000 1.00000 0.00000
vn 0.00000 -1.00000 0.00000
vn 0.00000 -1.00000 0.00000
vn 0.00000 -1.00000 0.00000
vn 0.00000 -1.00000 0.00000
vn 0.00000 1.00000 0.00000
vn 0.00000 1.00000 0.00000
vn 0.00000 1.00000 0.00000
vn 0.00000 1.00000 0.00000
vn 0.00000 -1.00000 0.00000
vn 0.00000 -1.00000 0.00000
vn 0.00000 -1.00000 0.00000
vn 0.00000 -1.00000 0.00000
vn 0.00000 1.00000 0.00000
vn 0.00000 1.00000 0.00000
vn 0.00000 1.00000 0.00000
vn 0.00000 1.00000 0.00000
vn 0.00000 -1.00000 0.00000
vn 0.00000 -1.00000 0.00000
vn 0.00000 -1.00000 0.00000
vn 0.00000 -1.00000 0.00000
vn 0.00000 1.00000 0.00000
vn 0.00000 1.00000 0.00000
vn 0.00000 1.00000 0.00000
vn 0.00000 1.00000 0.00000
vn 0.00000 -1.00000 0.00000
vn 0.00000 -1.00000 0.00000
vn 0.00000 -1.00000 0.00000
vn 0.00000 -1.00000 0.00000
vn 0.00000 1.00000 0.00000
vn 0.00000 1.00000 0.00000
vn 0.00000 1.00000 0.00000
vn 0.00000 1.00000 0.00000
vn 0.00000 -1.00000 0.00000
vn 0.00000 -1.00000 0.00000
vn 0.00000 -1.00000 0.00000
vn 0.00000 -1.00000 0.00000
vn 0.00000 1.00000 0.00000
vn 0.00000 1.00000 0.00000
vn 0.00000 1.00000 0.00000
vn 0.00000 1.00000 0.00000
vn 0.00000 -1.00000 0.00000
vn 0.00000 -1.00000 0.00000
vn 0.00000 -1.00000 0.00000
vn 0.00000 -1.00000 0.00000
vn 0.00000 1.00000 0.00000
vn 0.00000 1.00000 0.00000
vn 0.00000 1.00000 0.00000
vn 0.00000 1.00000 0.00000
vn 0.00000 -1.00000 0.00000
vn 0.00000 -1.00000 0.00000
vn 0.00000 -1.00000 0.00000
vn 0.00000 -1.00000 0.00000
vn 0.00000 1.00000 0.00000
vn 0.00000 1.00000 0.00000
vn 0.00000 1.00000 0.00000
vn 0.00000 1.00000 0.00000
vn 0.00000 -1.00000 0.00000
vn 0.00000 -1.00000 0.00000
vn 0.00000 -1.00000 0.00000
vn 0.00000 -1.00000 0.00000
vn 0.00000 1.00000 0.00000
vn 0.00000 1.00000 0.00000
vn 0.00000 1.00000 0.00000
vn 0.00000 1.00000 0.00000
vn 0.00000 -1.00000 0.00000
vn 0.00000 -1.00000 0.00000
vn 0.00000 -1.00000 0.00000
vn 0.00000 -1.00000 0.00000
vn 0.00000 1.00000 0.00000
vn 0.00000 1.00000 0.00000
vn 0.00000 1.00000 0.00000
vn 0.00000 1.00000 0.00000
vn 0.00000 -1.00000 0.00000
vn 0.00000 -1.00000 0.00000
vn 0.00000 -1.00000 0.00000
vn 0.00000 -1.00000 0.00000
vn 0.00000 1.00000 0.00000
vn 0.00000 1.00000 0.00000
vn 0.00000 1.00000 0.00000
vn 0.00000 1.00000 0.00000
vn 0.00000 -1.00000 0.00000
vn 0.00000 -1.00000 0.00000
vn 0.00000 -1.00000 0.00000
vn 0.00000 -1.00000 0.00000
vn 0.00000 1.00000 0.00000
vn 0.00000 1.00000 0.00000
vn 0.00000 1.00000 0.00000
vn 0.00000 1.00000 0.00000
vn 0.00000 -1.00000 0.00000
vn 0.00000 -1.00000 0.00000
vn 0.00000 -1.00000 0.00000
vn 0.00000 -1.00000 0.00000
vn 0.00000 1.00000 0.00000
vn 0.00000 1.00000 0.00000
vn 0.00000 1.00000 0.00000
vn 0.00000 1.00000 0.00000
vn 0.00000 -1.00000 0.00000
vn 0.00000 -1.00000 0.00000
vn 0.00000 -1.00000 0.00000
vn 0.00000 -1.00000 0.00000
vn 0.00000 1.00000 0.00000
vn 0.00000 1.00000 0.00000
vn 0.00000 1.00000 0.00000
vn 0.00000 1.00000 0.00000
vn 0.00000 -1.00000 0.00000
vn 0.00000 -1.00000 0.00000
vn 0.00000 -1.00000 0.00000
vn 0.00000 -1.00000 0.00000
vn 0.00000 1.00000 0.00000
vn 0.00000 1.00000 0.00000
vn 0.00000 1.00000 0.00000
vn 0.00000 1.00000 0.00000
vn 0.00000 -1.00000 0.00000
vn 0.00000 -1.00000 0.00000
vn 0.00000 -1.00000 0.00000
vn 0.00000 -1.00000 0.00000
vn 0.00000 1.00000 0.00000
vn 0.00000 1.00000 0.00000
vn 0.00000 1.00000 0.00000
vn 0.00000 1.00000 0.00000
vn 0.00000 -1.00000 0.00000
vn 0.00000 -1.00000 0.00000
vn 0.00000 -1.00000 0.00000
vn 0.00000 -1.00000 0.00000
vn 0.00000 1.00000 0.00000
vn 0.00000 1.00000 0.00000
vn 0.00000 1.00000 0.00000
vn 0.00000 1.00000 0.00000
vn 0.00000 -1.00000 0.00000
vn 0.00000 -1.00000 0.00000
vn 0.00000 -1.00000 0.00000
vn 0.00000 -1.00000 0.00000
vn 0.00000 1.00000 0.00000
vn 0.00000 1.00000 0.00000
vn 0.00000 1.00000 0.00000
vn 0.00000 1.00000 0.00000
vn 0.00000 -1.00000 0.00000
vn 0.00000 -1.00000 0.00000
vn 0.00000 -1.00000 0.00000
vn 0.00000 -1.00000 0.00000
usemtl ceiling
f 13/13/13 14/14/14 15/15/15 16/16/16
f 29/29/29 30/30/30 31/31/31 32/32/32
f 45/45/45 46/46/46 47/47/47 48/48/48
f 61/61/61 62/62/62 63/63/63 64/64/64
f 77/77/77 78/78/78 79/79/79 80/80/80
f 93/93/93 94/94/94 95/95/95 96/96/96
f 109/109/109 110/110/110 111/111/111 112/112/112
f 125/125/125 126/126/126 127/127/127 128/128/128
f 141/141/141 142/142/142 143/143/143 144/144/144
usemtl floor
f 1/1/1 2/2/2 3/3/3 4/4/4
f 17/17/17 18/18/18 19/19/19 20/20/20
f 33/33/33 34/34/34 35/35/35 36/36/36
f 49/49/49 50/50/50 51/51/51 52/52/52
f 65/65/65 66/66/66 67/67/67 68/68/68
f 81/81/81 82/82/82 83/83/83 84/84/84
f 97/97/97 98/98/98 99/99/99 100/100/100
f 113/113/113 114/114/114 115/115/115 116/116/116
f 129/129/129 130/130/130 131/131/131 132/132/132
usemtl roof
f 9/9/9 10/10/10 11/11/11 12/12/12
f 25/25/25 26/26/26 27/27/27 28/28/28
f 41/41/41 42/42/42 43/43/43 44/44/44
f 57/57/57 58/58/58 59/59/59 60/60/60
f 73/73/73 74/74/74 75/75/75 76/76/76
f 89/89/89 90/90/90 91/91/91 92/92/92
f 105/105/105 106/106/106 107/107/107 108/108/108
f 121/121/121 122/122/122 123/123/123 124/124/124
f 137/137/137 138/138/138 139/139/139 140/140/140
usemtl under
f 5/5/5 6/6/6 7/7/7 8/8/8
f 21/21/21 22/22/22 23/23/23 24/24/24
f 37/37/37 38/38/38 39/39/39 40/40/40
f 53/53/53 54/54/54 55/55/55 56/56/56
f 69/69/69 70/70/70 71/71/71 72/72/72
f 85/85/85 86/86/86 87/87/87 88/88/88
f 101/101/101 102/102/102 103/103/103 104/104/104
f 117/117/117 118/118/118 119/119/119 120/120/120
f 133/133/133 134/134/134 135/135/135 136/136/136
