# Generated by dev-env-utils/scripts/gen_transit_airside.py -- do not edit
mtllib jet_bridge_slope.mtl
o airport_jet_bridge_turn_c6
v 0.00000 0.09375 0.88286
v 0.01771 0.09375 0.86638
v 0.00000 0.09375 0.84594
v 0.00000 0.00000 0.84594
v 0.01771 0.00000 0.86638
v 0.00000 0.00000 0.88286
v 0.00000 1.97500 0.88286
v 0.01771 1.97500 0.86638
v 0.00000 1.97500 0.84594
v 0.00000 1.90625 0.84594
v 0.01771 1.90625 0.86638
v 0.00000 1.90625 0.88286
v 0.10108 0.09375 0.79919
v 0.00000 0.09375 0.66416
v 0.00000 0.09375 0.84594
v 0.01771 0.09375 0.86638
v 0.01771 0.00000 0.86638
v 0.00000 0.00000 0.84594
v 0.00000 0.00000 0.66416
v 0.10108 0.00000 0.79919
v 0.10108 1.97500 0.79919
v 0.00000 1.97500 0.66416
v 0.00000 1.97500 0.84594
v 0.01771 1.97500 0.86638
v 0.01771 1.90625 0.86638
v 0.00000 1.90625 0.84594
v 0.00000 1.90625 0.66416
v 0.10108 1.90625 0.79919
v 0.11832 0.09375 0.78647
v 0.00000 0.09375 0.62362
v 0.00000 0.09375 0.66416
v 0.10108 0.09375 0.79919
v 0.10108 0.00000 0.79919
v 0.00000 0.00000 0.66416
v 0.00000 0.00000 0.62362
v 0.11832 0.00000 0.78647
v 0.11832 1.97500 0.78647
v 0.00000 1.97500 0.62362
v 0.00000 1.97500 0.66416
v 0.10108 1.97500 0.79919
v 0.10108 1.90625 0.79919
v 0.00000 1.90625 0.66416
v 0.00000 1.90625 0.62362
v 0.11832 1.90625 0.78647
v 0.18904 0.09375 0.73812
v 0.00000 0.09375 0.44397
v 0.00000 0.09375 0.62362
v 0.11832 0.09375 0.78647
v 0.11832 0.00000 0.78647
v 0.00000 0.00000 0.62362
v 0.00000 0.00000 0.44397
v 0.18904 0.00000 0.73812
v 0.18904 1.97500 0.73812
v 0.00000 1.97500 0.44397
v 0.00000 1.97500 0.62362
v 0.11832 1.97500 0.78647
v 0.11832 1.90625 0.78647
v 0.00000 1.90625 0.62362
v 0.00000 1.90625 0.44397
v 0.18904 1.90625 0.73812
v 0.25000 0.09375 0.70096
v 0.00000 0.09375 0.26795
v 0.00000 0.09375 0.44397
v 0.18904 0.09375 0.73812
v 0.18904 0.00000 0.73812
v 0.00000 0.00000 0.44397
v 0.00000 0.00000 0.26795
v 0.25000 0.00000 0.70096
v 0.25000 1.97500 0.70096
v 0.00000 1.97500 0.26795
v 0.00000 1.97500 0.44397
v 0.18904 1.97500 0.73812
v 0.18904 1.90625 0.73812
v 0.00000 1.90625 0.44397
v 0.00000 1.90625 0.26795
v 0.25000 1.90625 0.70096
v 0.28113 0.09375 0.68348
v 0.00000 0.09375 0.16864
v 0.00000 0.09375 0.26795
v 0.25000 0.09375 0.70096
v 0.25000 0.00000 0.70096
v 0.00000 0.00000 0.26795
v 0.00000 0.00000 0.16864
v 0.28113 0.00000 0.68348
v 0.28113 1.97500 0.68348
v 0.00000 1.97500 0.16864
v 0.00000 1.97500 0.26795
v 0.25000 1.97500 0.70096
v 0.25000 1.90625 0.70096
v 0.00000 1.90625 0.26795
v 0.00000 1.90625 0.16864
v 0.28113 1.90625 0.68348
v 0.08663 0.09375 0.00000
v 0.00000 0.09375 0.00000
v 0.00000 0.09375 0.16864
v 0.28113 0.09375 0.68348
v 0.37688 0.09375 0.63555
v 0.08663 0.09375 0.00000
v 0.28113 0.09375 0.68348
v 0.28113 0.00000 0.68348
v 0.00000 0.00000 0.16864
v 0.00000 0.00000 0.00000
v 0.08663 0.00000 0.00000
v 0.28113 0.00000 0.68348
v 0.08663 0.00000 0.00000
v 0.37688 0.00000 0.63555
v 0.08663 1.97500 0.00000
v 0.00000 1.97500 0.00000
v 0.00000 1.97500 0.16864
v 0.28113 1.97500 0.68348
v 0.37688 1.97500 0.63555
v 0.08663 1.97500 0.00000
v 0.28113 1.97500 0.68348
v 0.28113 1.90625 0.68348
v 0.00000 1.90625 0.16864
v 0.00000 1.90625 0.00000
v 0.08663 1.90625 0.00000
v 0.28113 1.90625 0.68348
v 0.08663 1.90625 0.00000
v 0.37688 1.90625 0.63555
v 0.47580 0.09375 0.59458
v 0.25404 0.09375 0.00000
v 0.08663 0.09375 0.00000
v 0.37688 0.09375 0.63555
v 0.37688 0.00000 0.63555
v 0.08663 0.00000 0.00000
v 0.25404 0.00000 0.00000
v 0.47580 0.00000 0.59458
v 0.47580 1.97500 0.59458
v 0.25404 1.97500 0.00000
v 0.08663 1.97500 0.00000
v 0.37688 1.97500 0.63555
v 0.37688 1.90625 0.63555
v 0.08663 1.90625 0.00000
v 0.25404 1.90625 0.00000
v 0.47580 1.90625 0.59458
v 0.53647 0.09375 0.57342
v 0.35016 0.09375 0.00000
v 0.25404 0.09375 0.00000
v 0.47580 0.09375 0.59458
v 0.47580 0.00000 0.59458
v 0.25404 0.00000 0.00000
v 0.35016 0.00000 0.00000
v 0.53647 0.00000 0.57342
v 0.53647 1.97500 0.57342
v 0.35016 1.97500 0.00000
v 0.25404 1.97500 0.00000
v 0.47580 1.97500 0.59458
v 0.47580 1.90625 0.59458
v 0.25404 1.90625 0.00000
v 0.35016 1.90625 0.00000
v 0.53647 1.90625 0.57342
v 0.57740 0.09375 0.56076
v 0.41275 0.09375 0.00000
v 0.35016 0.09375 0.00000
v 0.53647 0.09375 0.57342
v 0.53647 0.00000 0.57342
v 0.35016 0.00000 0.00000
v 0.41275 0.00000 0.00000
v 0.57740 0.00000 0.56076
v 0.57740 1.97500 0.56076
v 0.41275 1.97500 0.00000
v 0.35016 1.97500 0.00000
v 0.53647 1.97500 0.57342
v 0.53647 1.90625 0.57342
v 0.35016 1.90625 0.00000
v 0.41275 1.90625 0.00000
v 0.57740 1.90625 0.56076
v 0.68115 0.09375 0.53428
v 0.56493 0.09375 0.00000
v 0.41275 0.09375 0.00000
v 0.57740 0.09375 0.56076
v 0.57740 0.00000 0.56076
v 0.41275 0.00000 0.00000
v 0.56493 0.00000 0.00000
v 0.68115 0.00000 0.53428
v 0.68115 1.97500 0.53428
v 0.56493 1.97500 0.00000
v 0.41275 1.97500 0.00000
v 0.57740 1.97500 0.56076
v 0.57740 1.90625 0.56076
v 0.41275 1.90625 0.00000
v 0.56493 1.90625 0.00000
v 0.68115 1.90625 0.53428
v 0.78653 0.09375 0.51527
v 0.71244 0.09375 0.00000
v 0.56493 0.09375 0.00000
v 0.68115 0.09375 0.53428
v 0.68115 0.00000 0.53428
v 0.56493 0.00000 0.00000
v 0.71244 0.00000 0.00000
v 0.78653 0.00000 0.51527
v 0.78653 1.97500 0.51527
v 0.71244 1.97500 0.00000
v 0.56493 1.97500 0.00000
v 0.68115 1.97500 0.53428
v 0.68115 1.90625 0.53428
v 0.56493 1.90625 0.00000
v 0.71244 1.90625 0.00000
v 0.78653 1.90625 0.51527
v 0.89299 0.09375 0.50382
v 0.85696 0.09375 0.00000
v 0.71244 0.09375 0.00000
v 0.78653 0.09375 0.51527
v 0.78653 0.00000 0.51527
v 0.71244 0.00000 0.00000
v 0.85696 0.00000 0.00000
v 0.89299 0.00000 0.50382
v 0.89299 1.97500 0.50382
v 0.85696 1.97500 0.00000
v 0.71244 1.97500 0.00000
v 0.78653 1.97500 0.51527
v 0.78653 1.90625 0.51527
v 0.71244 1.90625 0.00000
v 0.85696 1.90625 0.00000
v 0.89299 1.90625 0.50382
v 1.00000 0.09375 0.50000
v 1.00000 0.09375 0.00000
v 0.85696 0.09375 0.00000
v 0.89299 0.09375 0.50382
v 0.89299 0.00000 0.50382
v 0.85696 0.00000 0.00000
v 1.00000 0.00000 0.00000
v 1.00000 0.00000 0.50000
v 1.00000 1.97500 0.50000
v 1.00000 1.97500 0.00000
v 0.85696 1.97500 0.00000
v 0.89299 1.97500 0.50382
v 0.89299 1.90625 0.50382
v 0.85696 1.90625 0.00000
v 1.00000 1.90625 0.00000
v 1.00000 1.90625 0.50000
v 0.00000 0.09375 0.88286
v 0.01771 0.09375 0.86638
v 0.01771 1.90625 0.86638
v 0.00000 1.90625 0.88286
v 0.00000 0.00000 0.88286
v 0.01771 0.00000 0.86638
v 0.01771 0.09375 0.86638
v 0.00000 0.09375 0.88286
v 0.00000 1.90625 0.88286
v 0.01771 1.90625 0.86638
v 0.01771 1.97500 0.86638
v 0.00000 1.97500 0.88286
v 0.01771 1.90625 0.86638
v 0.01771 0.09375 0.86638
v 0.10108 0.09375 0.79919
v 0.10108 1.90625 0.79919
v 0.01771 0.09375 0.86638
v 0.01771 0.00000 0.86638
v 0.10108 0.00000 0.79919
v 0.10108 0.09375 0.79919
v 0.01771 1.97500 0.86638
v 0.01771 1.90625 0.86638
v 0.10108 1.90625 0.79919
v 0.10108 1.97500 0.79919
v 0.00000 1.90625 0.76032
v 0.04490 1.90625 0.72414
v 0.04490 0.09375 0.72414
v 0.00000 0.09375 0.76032
v 0.10108 1.90625 0.79919
v 0.10108 0.09375 0.79919
v 0.11832 0.09375 0.78647
v 0.11832 1.90625 0.78647
v 0.10108 0.09375 0.79919
v 0.10108 0.00000 0.79919
v 0.11832 0.00000 0.78647
v 0.11832 0.09375 0.78647
v 0.10108 1.97500 0.79919
v 0.10108 1.90625 0.79919
v 0.11832 1.90625 0.78647
v 0.11832 1.97500 0.78647
v 0.06322 1.90625 0.71063
v 0.06322 0.09375 0.71063
v 0.04490 0.09375 0.72414
v 0.04490 1.90625 0.72414
v 0.11832 1.90625 0.78647
v 0.11832 0.09375 0.78647
v 0.18904 0.09375 0.73812
v 0.18904 1.90625 0.73812
v 0.11832 0.09375 0.78647
v 0.11832 0.00000 0.78647
v 0.18904 0.00000 0.73812
v 0.18904 0.09375 0.73812
v 0.11832 1.97500 0.78647
v 0.11832 1.90625 0.78647
v 0.18904 1.90625 0.73812
v 0.18904 1.97500 0.73812
v 0.13835 1.90625 0.65925
v 0.13835 0.09375 0.65925
v 0.06322 0.09375 0.71063
v 0.06322 1.90625 0.71063
v 0.18904 1.90625 0.73812
v 0.18904 0.09375 0.73812
v 0.25000 0.09375 0.70096
v 0.25000 1.90625 0.70096
v 0.18904 0.09375 0.73812
v 0.18904 0.00000 0.73812
v 0.25000 0.00000 0.70096
v 0.25000 0.09375 0.70096
v 0.18904 1.97500 0.73812
v 0.18904 1.90625 0.73812
v 0.25000 1.90625 0.70096
v 0.25000 1.97500 0.70096
v 0.20312 1.90625 0.61977
v 0.20312 0.09375 0.61977
v 0.13835 0.09375 0.65925
v 0.13835 1.90625 0.65925
v 0.25000 1.90625 0.70096
v 0.25000 0.09375 0.70096
v 0.28113 0.09375 0.68348
v 0.28113 1.90625 0.68348
v 0.25000 0.09375 0.70096
v 0.25000 0.00000 0.70096
v 0.28113 0.00000 0.68348
v 0.28113 0.09375 0.68348
v 0.25000 1.97500 0.70096
v 0.25000 1.90625 0.70096
v 0.28113 1.90625 0.68348
v 0.28113 1.97500 0.68348
v 0.23620 1.90625 0.60120
v 0.23620 0.09375 0.60120
v 0.20312 0.09375 0.61977
v 0.20312 1.90625 0.61977
v 0.28113 1.90625 0.68348
v 0.28113 0.09375 0.68348
v 0.37688 0.09375 0.63555
v 0.37688 1.90625 0.63555
v 0.28113 0.09375 0.68348
v 0.28113 0.00000 0.68348
v 0.37688 0.00000 0.63555
v 0.37688 0.09375 0.63555
v 0.28113 1.97500 0.68348
v 0.28113 1.90625 0.68348
v 0.37688 1.90625 0.63555
v 0.37688 1.97500 0.63555
v 0.33793 1.90625 0.55027
v 0.33793 0.09375 0.55027
v 0.23620 0.09375 0.60120
v 0.23620 1.90625 0.60120
v 0.37688 1.90625 0.63555
v 0.37688 0.09375 0.63555
v 0.47580 0.09375 0.59458
v 0.47580 1.90625 0.59458
v 0.37688 0.09375 0.63555
v 0.37688 0.00000 0.63555
v 0.47580 0.00000 0.59458
v 0.47580 0.09375 0.59458
v 0.37688 1.97500 0.63555
v 0.37688 1.90625 0.63555
v 0.47580 1.90625 0.59458
v 0.47580 1.97500 0.59458
v 0.44304 1.90625 0.50674
v 0.44304 0.09375 0.50674
v 0.33793 0.09375 0.55027
v 0.33793 1.90625 0.55027
v 0.47580 1.90625 0.59458
v 0.47580 0.09375 0.59458
v 0.53647 0.09375 0.57342
v 0.53647 1.90625 0.57342
v 0.47580 0.09375 0.59458
v 0.47580 0.00000 0.59458
v 0.53647 0.00000 0.57342
v 0.53647 0.09375 0.57342
v 0.47580 1.97500 0.59458
v 0.47580 1.90625 0.59458
v 0.53647 1.90625 0.57342
v 0.53647 1.97500 0.57342
v 0.50750 1.90625 0.48425
v 0.50750 0.09375 0.48425
v 0.44304 0.09375 0.50674
v 0.44304 1.90625 0.50674
v 0.53647 1.90625 0.57342
v 0.53647 0.09375 0.57342
v 0.57740 0.09375 0.56076
v 0.57740 1.90625 0.56076
v 0.53647 0.09375 0.57342
v 0.53647 0.00000 0.57342
v 0.57740 0.00000 0.56076
v 0.57740 0.09375 0.56076
v 0.53647 1.97500 0.57342
v 0.53647 1.90625 0.57342
v 0.57740 1.90625 0.56076
v 0.57740 1.97500 0.56076
v 0.55099 1.90625 0.47081
v 0.55099 0.09375 0.47081
v 0.50750 0.09375 0.48425
v 0.50750 1.90625 0.48425
v 0.57740 1.90625 0.56076
v 0.57740 0.09375 0.56076
v 0.68115 0.09375 0.53428
v 0.68115 1.90625 0.53428
v 0.57740 0.09375 0.56076
v 0.57740 0.00000 0.56076
v 0.68115 0.00000 0.53428
v 0.68115 0.09375 0.53428
v 0.57740 1.97500 0.56076
v 0.57740 1.90625 0.56076
v 0.68115 1.90625 0.53428
v 0.68115 1.97500 0.53428
v 0.66122 1.90625 0.44267
v 0.66122 0.09375 0.44267
v 0.55099 0.09375 0.47081
v 0.55099 1.90625 0.47081
v 0.68115 1.90625 0.53428
v 0.68115 0.09375 0.53428
v 0.78653 0.09375 0.51527
v 0.78653 1.90625 0.51527
v 0.68115 0.09375 0.53428
v 0.68115 0.00000 0.53428
v 0.78653 0.00000 0.51527
v 0.78653 0.09375 0.51527
v 0.68115 1.97500 0.53428
v 0.68115 1.90625 0.53428
v 0.78653 1.90625 0.51527
v 0.78653 1.97500 0.51527
v 0.77319 1.90625 0.42247
v 0.77319 0.09375 0.42247
v 0.66122 0.09375 0.44267
v 0.66122 1.90625 0.44267
v 0.78653 1.90625 0.51527
v 0.78653 0.09375 0.51527
v 0.89299 0.09375 0.50382
v 0.89299 1.90625 0.50382
v 0.78653 0.09375 0.51527
v 0.78653 0.00000 0.51527
v 0.89299 0.00000 0.50382
v 0.89299 0.09375 0.50382
v 0.78653 1.97500 0.51527
v 0.78653 1.90625 0.51527
v 0.89299 1.90625 0.50382
v 0.89299 1.97500 0.50382
v 0.88630 1.90625 0.41031
v 0.88630 0.09375 0.41031
v 0.77319 0.09375 0.42247
v 0.77319 1.90625 0.42247
v 0.89299 1.90625 0.50382
v 0.89299 0.09375 0.50382
v 1.00000 0.09375 0.50000
v 1.00000 1.90625 0.50000
v 0.89299 0.09375 0.50382
v 0.89299 0.00000 0.50382
v 1.00000 0.00000 0.50000
v 1.00000 0.09375 0.50000
v 0.89299 1.97500 0.50382
v 0.89299 1.90625 0.50382
v 1.00000 1.90625 0.50000
v 1.00000 1.97500 0.50000
v 1.00000 1.90625 0.40625
v 1.00000 0.09375 0.40625
v 0.88630 0.09375 0.41031
v 0.88630 1.90625 0.41031
vt 0.50000 0.97072
vt 0.50443 0.96659
vt 0.50000 0.96148
vt 0.50000 0.96148
vt 0.50443 0.96659
vt 0.50000 0.97072
vt 0.50000 0.97072
vt 0.50443 0.96659
vt 0.50000 0.96148
vt 0.00676 0.03550
vt 0.00000 0.03550
vt 0.00000 0.02542
vt 0.52527 0.94980
vt 0.50000 0.91604
vt 0.50000 0.96148
vt 0.50443 0.96659
vt 0.50443 0.96659
vt 0.50000 0.96148
vt 0.50000 0.91604
vt 0.52527 0.94980
vt 0.52527 0.94980
vt 0.50000 0.91604
vt 0.50000 0.96148
vt 0.50443 0.96659
vt 0.00000 0.03550
vt 0.00676 0.03550
vt 0.04217 0.08012
vt 0.00000 0.08012
vt 0.52958 0.94662
vt 0.50000 0.90590
vt 0.50000 0.91604
vt 0.52527 0.94980
vt 0.52527 0.94980
vt 0.50000 0.91604
vt 0.50000 0.90590
vt 0.52958 0.94662
vt 0.52958 0.94662
vt 0.50000 0.90590
vt 0.50000 0.91604
vt 0.52527 0.94980
vt 0.00000 0.08012
vt 0.04217 0.08012
vt 0.05033 0.08905
vt 0.00000 0.08905
vt 0.54726 0.93453
vt 0.50000 0.86099
vt 0.50000 0.90590
vt 0.52958 0.94662
vt 0.52958 0.94662
vt 0.50000 0.90590
vt 0.50000 0.86099
vt 0.54726 0.93453
vt 0.54726 0.93453
vt 0.50000 0.86099
vt 0.50000 0.90590
vt 0.52958 0.94662
vt 0.00000 0.08905
vt 0.05033 0.08905
vt 0.08741 0.12475
vt 0.00000 0.12475
vt 0.56250 0.92524
vt 0.50000 0.81699
vt 0.50000 0.86099
vt 0.54726 0.93453
vt 0.54726 0.93453
vt 0.50000 0.86099
vt 0.50000 0.81699
vt 0.56250 0.92524
vt 0.56250 0.92524
vt 0.50000 0.81699
vt 0.50000 0.86099
vt 0.54726 0.93453
vt 0.00000 0.12475
vt 0.08741 0.12475
vt 0.12500 0.15450
vt 0.00000 0.15450
vt 0.57028 0.92087
vt 0.50000 0.79216
vt 0.50000 0.81699
vt 0.56250 0.92524
vt 0.56250 0.92524
vt 0.50000 0.81699
vt 0.50000 0.79216
vt 0.57028 0.92087
vt 0.57028 0.92087
vt 0.50000 0.79216
vt 0.50000 0.81699
vt 0.56250 0.92524
vt 0.00000 0.15450
vt 0.12500 0.15450
vt 0.14665 0.16937
vt 0.00000 0.16937
vt 0.52166 0.75000
vt 0.50000 0.75000
vt 0.50000 0.79216
vt 0.57028 0.92087
vt 0.59422 0.90889
vt 0.52166 0.75000
vt 0.57028 0.92087
vt 0.57028 0.92087
vt 0.50000 0.79216
vt 0.50000 0.75000
vt 0.52166 0.75000
vt 0.57028 0.92087
vt 0.52166 0.75000
vt 0.59422 0.90889
vt 0.52166 0.75000
vt 0.50000 0.75000
vt 0.50000 0.79216
vt 0.57028 0.92087
vt 0.59422 0.90889
vt 0.52166 0.75000
vt 0.57028 0.92087
vt 0.00000 0.16937
vt 0.14665 0.16937
vt 0.18402 0.19197
vt 0.17467 0.21400
vt 0.00000 0.16937
vt 0.17467 0.21400
vt 0.00000 0.21400
vt 0.61895 0.89864
vt 0.56351 0.75000
vt 0.52166 0.75000
vt 0.59422 0.90889
vt 0.59422 0.90889
vt 0.52166 0.75000
vt 0.56351 0.75000
vt 0.61895 0.89864
vt 0.61895 0.89864
vt 0.56351 0.75000
vt 0.52166 0.75000
vt 0.59422 0.90889
vt 0.00000 0.21400
vt 0.17467 0.21400
vt 0.15865 0.25862
vt 0.00000 0.25862
vt 0.63412 0.89335
vt 0.58754 0.75000
vt 0.56351 0.75000
vt 0.61895 0.89864
vt 0.61895 0.89864
vt 0.56351 0.75000
vt 0.58754 0.75000
vt 0.63412 0.89335
vt 0.63412 0.89335
vt 0.58754 0.75000
vt 0.56351 0.75000
vt 0.61895 0.89864
vt 0.00000 0.25862
vt 0.15865 0.25862
vt 0.15073 0.28540
vt 0.00000 0.28540
vt 0.64435 0.89019
vt 0.60319 0.75000
vt 0.58754 0.75000
vt 0.63412 0.89335
vt 0.63412 0.89335
vt 0.58754 0.75000
vt 0.60319 0.75000
vt 0.64435 0.89019
vt 0.64435 0.89019
vt 0.60319 0.75000
vt 0.58754 0.75000
vt 0.63412 0.89335
vt 0.00000 0.28540
vt 0.15073 0.28540
vt 0.14611 0.30325
vt 0.00000 0.30325
vt 0.67029 0.88357
vt 0.64123 0.75000
vt 0.60319 0.75000
vt 0.64435 0.89019
vt 0.64435 0.89019
vt 0.60319 0.75000
vt 0.64123 0.75000
vt 0.67029 0.88357
vt 0.67029 0.88357
vt 0.64123 0.75000
vt 0.60319 0.75000
vt 0.64435 0.89019
vt 0.00000 0.30325
vt 0.14611 0.30325
vt 0.13669 0.34787
vt 0.00000 0.34787
vt 0.69663 0.87882
vt 0.67811 0.75000
vt 0.64123 0.75000
vt 0.67029 0.88357
vt 0.67029 0.88357
vt 0.64123 0.75000
vt 0.67811 0.75000
vt 0.69663 0.87882
vt 0.69663 0.87882
vt 0.67811 0.75000
vt 0.64123 0.75000
vt 0.67029 0.88357
vt 0.00000 0.34787
vt 0.13669 0.34787
vt 0.13014 0.39250
vt 0.00000 0.39250
vt 0.72325 0.87596
vt 0.71424 0.75000
vt 0.67811 0.75000
vt 0.69663 0.87882
vt 0.69663 0.87882
vt 0.67811 0.75000
vt 0.71424 0.75000
vt 0.72325 0.87596
vt 0.72325 0.87596
vt 0.71424 0.75000
vt 0.67811 0.75000
vt 0.69663 0.87882
vt 0.00000 0.39250
vt 0.13014 0.39250
vt 0.12628 0.43712
vt 0.00000 0.43712
vt 0.75000 0.87500
vt 0.75000 0.75000
vt 0.71424 0.75000
vt 0.72325 0.87596
vt 0.72325 0.87596
vt 0.71424 0.75000
vt 0.75000 0.75000
vt 0.75000 0.87500
vt 0.75000 0.87500
vt 0.75000 0.75000
vt 0.71424 0.75000
vt 0.72325 0.87596
vt 0.00000 0.43712
vt 0.12628 0.43712
vt 0.12500 0.48175
vt 0.00000 0.48175
vt 0.03518 0.90625
vt 0.04545 0.90625
vt 0.04545 0.00000
vt 0.03518 0.00000
vt 0.07036 0.09375
vt 0.09091 0.09375
vt 0.09091 0.00000
vt 0.07036 0.00000
vt 0.07036 0.09375
vt 0.09091 0.09375
vt 0.09091 0.00000
vt 0.07036 0.00000
vt 0.04545 0.00000
vt 0.04545 0.90625
vt 0.09091 0.90625
vt 0.09091 0.00000
vt 0.09091 0.00000
vt 0.09091 0.09375
vt 0.18181 0.09375
vt 0.18181 0.00000
vt 0.09091 0.00000
vt 0.09091 0.09375
vt 0.18181 0.09375
vt 0.18181 0.00000
vt 0.35180 0.00000
vt 0.38636 0.00000
vt 0.38636 0.90625
vt 0.35180 0.90625
vt 0.09091 0.00000
vt 0.09091 0.90625
vt 0.10000 0.90625
vt 0.10000 0.00000
vt 0.18181 0.00000
vt 0.18181 0.09375
vt 0.20000 0.09375
vt 0.20000 0.00000
vt 0.18181 0.00000
vt 0.18181 0.09375
vt 0.20000 0.09375
vt 0.20000 0.00000
vt 0.40000 0.00000
vt 0.40000 0.90625
vt 0.38636 0.90625
vt 0.38636 0.00000
vt 0.10000 0.00000
vt 0.10000 0.90625
vt 0.13636 0.90625
vt 0.13636 0.00000
vt 0.20000 0.00000
vt 0.20000 0.09375
vt 0.27273 0.09375
vt 0.27273 0.00000
vt 0.20000 0.00000
vt 0.20000 0.09375
vt 0.27273 0.09375
vt 0.27273 0.00000
vt 0.45454 0.00000
vt 0.45454 0.90625
vt 0.40000 0.90625
vt 0.40000 0.00000
vt 0.13636 0.00000
vt 0.13636 0.90625
vt 0.16667 0.90625
vt 0.16667 0.00000
vt 0.27273 0.00000
vt 0.27273 0.09375
vt 0.33334 0.09375
vt 0.33334 0.00000
vt 0.27273 0.00000
vt 0.27273 0.09375
vt 0.33334 0.09375
vt 0.33334 0.00000
vt 0.50000 0.00000
vt 0.50000 0.90625
vt 0.45454 0.90625
vt 0.45454 0.00000
vt 0.16667 0.00000
vt 0.16667 0.90625
vt 0.18182 0.90625
vt 0.18182 0.00000
vt 0.33334 0.00000
vt 0.33334 0.09375
vt 0.36365 0.09375
vt 0.36365 0.00000
vt 0.33334 0.00000
vt 0.33334 0.09375
vt 0.36365 0.09375
vt 0.36365 0.00000
vt 0.02273 0.00000
vt 0.02273 0.90625
vt 0.00000 0.90625
vt 0.00000 0.00000
vt 0.18182 0.00000
vt 0.18182 0.90625
vt 0.22728 0.90625
vt 0.22728 0.00000
vt 0.36365 0.00000
vt 0.36365 0.09375
vt 0.45455 0.09375
vt 0.45455 0.00000
vt 0.36365 0.00000
vt 0.36365 0.09375
vt 0.45455 0.09375
vt 0.45455 0.00000
vt 0.09091 0.00000
vt 0.09091 0.90625
vt 0.02273 0.90625
vt 0.02273 0.00000
vt 0.22728 0.00000
vt 0.22728 0.90625
vt 0.27273 0.90625
vt 0.27273 0.00000
vt 0.45455 0.00000
vt 0.45455 0.09375
vt 0.54546 0.09375
vt 0.54546 0.00000
vt 0.45455 0.00000
vt 0.45455 0.09375
vt 0.54546 0.09375
vt 0.54546 0.00000
vt 0.15909 0.00000
vt 0.15909 0.90625
vt 0.09091 0.90625
vt 0.09091 0.00000
vt 0.27273 0.00000
vt 0.27273 0.90625
vt 0.30000 0.90625
vt 0.30000 0.00000
vt 0.54546 0.00000
vt 0.54546 0.09375
vt 0.60001 0.09375
vt 0.60001 0.00000
vt 0.54546 0.00000
vt 0.54546 0.09375
vt 0.60001 0.09375
vt 0.60001 0.00000
vt 0.20000 0.00000
vt 0.20000 0.90625
vt 0.15909 0.90625
vt 0.15909 0.00000
vt 0.30000 0.00000
vt 0.30000 0.90625
vt 0.31819 0.90625
vt 0.31819 0.00000
vt 0.60001 0.00000
vt 0.60001 0.09375
vt 0.63638 0.09375
vt 0.63638 0.00000
vt 0.60001 0.00000
vt 0.60001 0.09375
vt 0.63638 0.09375
vt 0.63638 0.00000
vt 0.22728 0.00000
vt 0.22728 0.90625
vt 0.20000 0.90625
vt 0.20000 0.00000
vt 0.31819 0.00000
vt 0.31819 0.90625
vt 0.36364 0.90625
vt 0.36364 0.00000
vt 0.63638 0.00000
vt 0.63638 0.09375
vt 0.72728 0.09375
vt 0.72728 0.00000
vt 0.63638 0.00000
vt 0.63638 0.09375
vt 0.72728 0.09375
vt 0.72728 0.00000
vt 0.29546 0.00000
vt 0.29546 0.90625
vt 0.22728 0.90625
vt 0.22728 0.00000
vt 0.36364 0.00000
vt 0.36364 0.90625
vt 0.40909 0.90625
vt 0.40909 0.00000
vt 0.72728 0.00000
vt 0.72728 0.09375
vt 0.81819 0.09375
vt 0.81819 0.00000
vt 0.72728 0.00000
vt 0.72728 0.09375
vt 0.81819 0.09375
vt 0.81819 0.00000
vt 0.36364 0.00000
vt 0.36364 0.90625
vt 0.29546 0.90625
vt 0.29546 0.00000
vt 0.40909 0.00000
vt 0.40909 0.90625
vt 0.45455 0.90625
vt 0.45455 0.00000
vt 0.81819 0.00000
vt 0.81819 0.09375
vt 0.90909 0.09375
vt 0.90909 0.00000
vt 0.81819 0.00000
vt 0.81819 0.09375
vt 0.90909 0.09375
vt 0.90909 0.00000
vt 0.43182 0.00000
vt 0.43182 0.90625
vt 0.36364 0.90625
vt 0.36364 0.00000
vt 0.45455 0.00000
vt 0.45455 0.90625
vt 0.50000 0.90625
vt 0.50000 0.00000
vt 0.90909 0.00000
vt 0.90909 0.09375
vt 1.00000 0.09375
vt 1.00000 0.00000
vt 0.90909 0.00000
vt 0.90909 0.09375
vt 1.00000 0.09375
vt 1.00000 0.00000
vt 0.50000 0.00000
vt 0.50000 0.90625
vt 0.43182 0.90625
vt 0.43182 0.00000
vn 0.00000 1.00000 0.00000
vn 0.00000 1.00000 0.00000
vn 0.00000 1.00000 0.00000
vn 0.00000 -1.00000 0.00000
vn 0.00000 -1.00000 0.00000
vn 0.00000 -1.00000 0.00000
vn 0.00000 1.00000 0.00000
vn 0.00000 1.00000 0.00000
vn 0.00000 1.00000 0.00000
vn 0.00000 -1.00000 0.00000
vn 0.00000 -1.00000 0.00000
vn 0.00000 -1.00000 0.00000
vn 0.00000 1.00000 0.00000
vn 0.00000 1.00000 0.00000
vn 0.00000 1.00000 0.00000
vn 0.00000 1.00000 0.00000
vn 0.00000 -1.00000 0.00000
vn 0.00000 -1.00000 0.00000
vn 0.00000 -1.00000 0.00000
vn 0.00000 -1.00000 0.00000
vn 0.00000 1.00000 0.00000
vn 0.00000 1.00000 0.00000
vn 0.00000 1.00000 0.00000
vn 0.00000 1.00000 0.00000
vn 0.00000 -1.00000 0.00000
vn 0.00000 -1.00000 0.00000
vn 0.00000 -1.00000 0.00000
vn 0.00000 -1.00000 0.00000
vn 0.00000 1.00000 0.00000
vn 0.00000 1.00000 0.00000
vn 0.00000 1.00000 0.00000
vn 0.00000 1.00000 0.00000
vn 0.00000 -1.00000 0.00000
vn 0.00000 -1.00000 0.00000
vn 0.00000 -1.00000 0.00000
vn 0.00000 -1.00000 0.00000
vn 0.00000 1.00000 0.00000
vn 0.00000 1.00000 0.00000
vn 0.00000 1.00000 0.00000
vn 0.00000 1.00000 0.00000
vn 0.00000 -1.00000 0.00000
vn 0.00000 -1.00000 0.00000
vn 0.00000 -1.00000 0.00000
vn 0.00000 -1.00000 0.00000
vn 0.00000 1.00000 0.00000
vn 0.00000 1.00000 0.00000
vn 0.00000 1.00000 0.00000
vn 0.00000 1.00000 0.00000
vn 0.00000 -1.00000 0.00000
vn 0.00000 -1.00000 0.00000
vn 0.00000 -1.00000 0.00000
vn 0.00000 -1.00000 0.00000
vn 0.00000 1.00000 0.00000
vn 0.00000 1.00000 0.00000
vn 0.00000 1.00000 0.00000
vn 0.00000 1.00000 0.00000
vn 0.00000 -1.00000 0.00000
vn 0.00000 -1.00000 0.00000
vn 0.00000 -1.00000 0.00000
vn 0.00000 -1.00000 0.00000
vn 0.00000 1.00000 0.00000
vn 0.00000 1.00000 0.00000
vn 0.00000 1.00000 0.00000
vn 0.00000 1.00000 0.00000
vn 0.00000 -1.00000 0.00000
vn 0.00000 -1.00000 0.00000
vn 0.00000 -1.00000 0.00000
vn 0.00000 -1.00000 0.00000
vn 0.00000 1.00000 0.00000
vn 0.00000 1.00000 0.00000
vn 0.00000 1.00000 0.00000
vn 0.00000 1.00000 0.00000
vn 0.00000 -1.00000 0.00000
vn 0.00000 -1.00000 0.00000
vn 0.00000 -1.00000 0.00000
vn 0.00000 -1.00000 0.00000
vn 0.00000 1.00000 0.00000
vn 0.00000 1.00000 0.00000
vn 0.00000 1.00000 0.00000
vn 0.00000 1.00000 0.00000
vn 0.00000 -1.00000 0.00000
vn 0.00000 -1.00000 0.00000
vn 0.00000 -1.00000 0.00000
vn 0.00000 -1.00000 0.00000
vn 0.00000 1.00000 0.00000
vn 0.00000 1.00000 0.00000
vn 0.00000 1.00000 0.00000
vn 0.00000 1.00000 0.00000
vn 0.00000 -1.00000 0.00000
vn 0.00000 -1.00000 0.00000
vn 0.00000 -1.00000 0.00000
vn 0.00000 -1.00000 0.00000
vn 0.00000 1.00000 0.00000
vn 0.00000 1.00000 0.00000
vn 0.00000 1.00000 0.00000
vn 0.00000 1.00000 0.00000
vn 0.00000 1.00000 0.00000
vn 0.00000 1.00000 0.00000
vn 0.00000 1.00000 0.00000
vn 0.00000 -1.00000 0.00000
vn 0.00000 -1.00000 0.00000
vn 0.00000 -1.00000 0.00000
vn 0.00000 -1.00000 0.00000
vn 0.00000 -1.00000 0.00000
vn 0.00000 -1.00000 0.00000
vn 0.00000 -1.00000 0.00000
vn 0.00000 1.00000 0.00000
vn 0.00000 1.00000 0.00000
vn 0.00000 1.00000 0.00000
vn 0.00000 1.00000 0.00000
vn 0.00000 1.00000 0.00000
vn 0.00000 1.00000 0.00000
vn 0.00000 1.00000 0.00000
vn 0.00000 -1.00000 0.00000
vn 0.00000 -1.00000 0.00000
vn 0.00000 -1.00000 0.00000
vn 0.00000 -1.00000 0.00000
vn 0.00000 -1.00000 0.00000
vn 0.00000 -1.00000 0.00000
vn 0.00000 -1.00000 0.00000
vn 0.00000 1.00000 0.00000
vn 0.00000 1.00000 0.00000
vn 0.00000 1.00000 0.00000
vn 0.00000 1.00000 0.00000
vn 0.00000 -1.00000 0.00000
vn 0.00000 -1.00000 0.00000
vn 0.00000 -1.00000 0.00000
vn 0.00000 -1.00000 0.00000
vn 0.00000 1.00000 0.00000
vn 0.00000 1.00000 0.00000
vn 0.00000 1.00000 0.00000
vn 0.00000 1.00000 0.00000
vn 0.00000 -1.00000 0.00000
vn 0.00000 -1.00000 0.00000
vn 0.00000 -1.00000 0.00000
vn 0.00000 -1.00000 0.00000
vn 0.00000 1.00000 0.00000
vn 0.00000 1.00000 0.00000
vn 0.00000 1.00000 0.00000
vn 0.00000 1.00000 0.00000
vn 0.00000 -1.00000 0.00000
vn 0.00000 -1.00000 0.00000
vn 0.00000 -1.00000 0.00000
vn 0.00000 -1.00000 0.00000
vn 0.00000 1.00000 0.00000
vn 0.00000 1.00000 0.00000
vn 0.00000 1.00000 0.00000
vn 0.00000 1.00000 0.00000
vn 0.00000 -1.00000 0.00000
vn 0.00000 -1.00000 0.00000
vn 0.00000 -1.00000 0.00000
vn 0.00000 -1.00000 0.00000
vn 0.00000 1.00000 0.00000
vn 0.00000 1.00000 0.00000
vn 0.00000 1.00000 0.00000
vn 0.00000 1.00000 0.00000
vn 0.00000 -1.00000 0.00000
vn 0.00000 -1.00000 0.00000
vn 0.00000 -1.00000 0.00000
vn 0.00000 -1.00000 0.00000
vn 0.00000 1.00000 0.00000
vn 0.00000 1.00000 0.00000
vn 0.00000 1.00000 0.00000
vn 0.00000 1.00000 0.00000
vn 0.00000 -1.00000 0.00000
vn 0.00000 -1.00000 0.00000
vn 0.00000 -1.00000 0.00000
vn 0.00000 -1.00000 0.00000
vn 0.00000 1.00000 0.00000
vn 0.00000 1.00000 0.00000
vn 0.00000 1.00000 0.00000
vn 0.00000 1.00000 0.00000
vn 0.00000 -1.00000 0.00000
vn 0.00000 -1.00000 0.00000
vn 0.00000 -1.00000 0.00000
vn 0.00000 -1.00000 0.00000
vn 0.00000 1.00000 0.00000
vn 0.00000 1.00000 0.00000
vn 0.00000 1.00000 0.00000
vn 0.00000 1.00000 0.00000
vn 0.00000 -1.00000 0.00000
vn 0.00000 -1.00000 0.00000
vn 0.00000 -1.00000 0.00000
vn 0.00000 -1.00000 0.00000
vn 0.00000 1.00000 0.00000
vn 0.00000 1.00000 0.00000
vn 0.00000 1.00000 0.00000
vn 0.00000 1.00000 0.00000
vn 0.00000 -1.00000 0.00000
vn 0.00000 -1.00000 0.00000
vn 0.00000 -1.00000 0.00000
vn 0.00000 -1.00000 0.00000
vn 0.00000 1.00000 0.00000
vn 0.00000 1.00000 0.00000
vn 0.00000 1.00000 0.00000
vn 0.00000 1.00000 0.00000
vn 0.00000 -1.00000 0.00000
vn 0.00000 -1.00000 0.00000
vn 0.00000 -1.00000 0.00000
vn 0.00000 -1.00000 0.00000
vn 0.00000 1.00000 0.00000
vn 0.00000 1.00000 0.00000
vn 0.00000 1.00000 0.00000
vn 0.00000 1.00000 0.00000
vn 0.00000 -1.00000 0.00000
vn 0.00000 -1.00000 0.00000
vn 0.00000 -1.00000 0.00000
vn 0.00000 -1.00000 0.00000
vn 0.00000 1.00000 0.00000
vn 0.00000 1.00000 0.00000
vn 0.00000 1.00000 0.00000
vn 0.00000 1.00000 0.00000
vn 0.00000 -1.00000 0.00000
vn 0.00000 -1.00000 0.00000
vn 0.00000 -1.00000 0.00000
vn 0.00000 -1.00000 0.00000
vn 0.00000 1.00000 0.00000
vn 0.00000 1.00000 0.00000
vn 0.00000 1.00000 0.00000
vn 0.00000 1.00000 0.00000
vn 0.00000 -1.00000 0.00000
vn 0.00000 -1.00000 0.00000
vn 0.00000 -1.00000 0.00000
vn 0.00000 -1.00000 0.00000
vn 0.00000 1.00000 0.00000
vn 0.00000 1.00000 0.00000
vn 0.00000 1.00000 0.00000
vn 0.00000 1.00000 0.00000
vn 0.00000 -1.00000 0.00000
vn 0.00000 -1.00000 0.00000
vn 0.00000 -1.00000 0.00000
vn 0.00000 -1.00000 0.00000
vn 0.68142 0.00000 0.73189
vn 0.68142 0.00000 0.73189
vn 0.68142 0.00000 0.73189
vn 0.68142 0.00000 0.73189
vn 0.68142 0.00000 0.73189
vn 0.68142 0.00000 0.73189
vn 0.68142 0.00000 0.73189
vn 0.68142 0.00000 0.73189
vn 0.68142 0.00000 0.73189
vn 0.68142 0.00000 0.73189
vn 0.68142 0.00000 0.73189
vn 0.68142 0.00000 0.73189
vn 0.62747 0.00000 0.77864
vn 0.62747 0.00000 0.77864
vn 0.62747 0.00000 0.77864
vn 0.62747 0.00000 0.77864
vn 0.62747 0.00000 0.77864
vn 0.62747 0.00000 0.77864
vn 0.62747 0.00000 0.77864
vn 0.62747 0.00000 0.77864
vn 0.62747 0.00000 0.77864
vn 0.62747 0.00000 0.77864
vn 0.62747 0.00000 0.77864
vn 0.62747 0.00000 0.77864
vn -0.62747 0.00000 -0.77864
vn -0.62747 0.00000 -0.77864
vn -0.62747 0.00000 -0.77864
vn -0.62747 0.00000 -0.77864
vn 0.59355 0.00000 0.80480
vn 0.59355 0.00000 0.80480
vn 0.59355 0.00000 0.80480
vn 0.59355 0.00000 0.80480
vn 0.59355 0.00000 0.80480
vn 0.59355 0.00000 0.80480
vn 0.59355 0.00000 0.80480
vn 0.59355 0.00000 0.80480
vn 0.59355 0.00000 0.80480
vn 0.59355 0.00000 0.80480
vn 0.59355 0.00000 0.80480
vn 0.59355 0.00000 0.80480
vn -0.59355 0.00000 -0.80480
vn -0.59355 0.00000 -0.80480
vn -0.59355 0.00000 -0.80480
vn -0.59355 0.00000 -0.80480
vn 0.56444 0.00000 0.82547
vn 0.56444 0.00000 0.82547
vn 0.56444 0.00000 0.82547
vn 0.56444 0.00000 0.82547
vn 0.56444 0.00000 0.82547
vn 0.56444 0.00000 0.82547
vn 0.56444 0.00000 0.82547
vn 0.56444 0.00000 0.82547
vn 0.56444 0.00000 0.82547
vn 0.56444 0.00000 0.82547
vn 0.56444 0.00000 0.82547
vn 0.56444 0.00000 0.82547
vn -0.56444 0.00000 -0.82547
vn -0.56444 0.00000 -0.82547
vn -0.56444 0.00000 -0.82547
vn -0.56444 0.00000 -0.82547
vn 0.52047 0.00000 0.85388
vn 0.52047 0.00000 0.85388
vn 0.52047 0.00000 0.85388
vn 0.52047 0.00000 0.85388
vn 0.52047 0.00000 0.85388
vn 0.52047 0.00000 0.85388
vn 0.52047 0.00000 0.85388
vn 0.52047 0.00000 0.85388
vn 0.52047 0.00000 0.85388
vn 0.52047 0.00000 0.85388
vn 0.52047 0.00000 0.85388
vn 0.52047 0.00000 0.85388
vn -0.52047 0.00000 -0.85388
vn -0.52047 0.00000 -0.85388
vn -0.52047 0.00000 -0.85388
vn -0.52047 0.00000 -0.85388
vn 0.48966 0.00000 0.87191
vn 0.48966 0.00000 0.87191
vn 0.48966 0.00000 0.87191
vn 0.48966 0.00000 0.87191
vn 0.48966 0.00000 0.87191
vn 0.48966 0.00000 0.87191
vn 0.48966 0.00000 0.87191
vn 0.48966 0.00000 0.87191
vn 0.48966 0.00000 0.87191
vn 0.48966 0.00000 0.87191
vn 0.48966 0.00000 0.87191
vn 0.48966 0.00000 0.87191
vn -0.48966 0.00000 -0.87191
vn -0.48966 0.00000 -0.87191
vn -0.48966 0.00000 -0.87191
vn -0.48966 0.00000 -0.87191
vn 0.44762 0.00000 0.89423
vn 0.44762 0.00000 0.89423
vn 0.44762 0.00000 0.89423
vn 0.44762 0.00000 0.89423
vn 0.44762 0.00000 0.89423
vn 0.44762 0.00000 0.89423
vn 0.44762 0.00000 0.89423
vn 0.44762 0.00000 0.89423
vn 0.44762 0.00000 0.89423
vn 0.44762 0.00000 0.89423
vn 0.44762 0.00000 0.89423
vn 0.44762 0.00000 0.89423
vn -0.44762 0.00000 -0.89423
vn -0.44762 0.00000 -0.89423
vn -0.44762 0.00000 -0.89423
vn -0.44762 0.00000 -0.89423
vn 0.38268 0.00000 0.92388
vn 0.38268 0.00000 0.92388
vn 0.38268 0.00000 0.92388
vn 0.38268 0.00000 0.92388
vn 0.38268 0.00000 0.92388
vn 0.38268 0.00000 0.92388
vn 0.38268 0.00000 0.92388
vn 0.38268 0.00000 0.92388
vn 0.38268 0.00000 0.92388
vn 0.38268 0.00000 0.92388
vn 0.38268 0.00000 0.92388
vn 0.38268 0.00000 0.92388
vn -0.38268 0.00000 -0.92388
vn -0.38268 0.00000 -0.92388
vn -0.38268 0.00000 -0.92388
vn -0.38268 0.00000 -0.92388
vn 0.32932 0.00000 0.94422
vn 0.32932 0.00000 0.94422
vn 0.32932 0.00000 0.94422
vn 0.32932 0.00000 0.94422
vn 0.32932 0.00000 0.94422
vn 0.32932 0.00000 0.94422
vn 0.32932 0.00000 0.94422
vn 0.32932 0.00000 0.94422
vn 0.32932 0.00000 0.94422
vn 0.32932 0.00000 0.94422
vn 0.32932 0.00000 0.94422
vn 0.32932 0.00000 0.94422
vn -0.32932 0.00000 -0.94422
vn -0.32932 0.00000 -0.94422
vn -0.32932 0.00000 -0.94422
vn -0.32932 0.00000 -0.94422
vn 0.29540 0.00000 0.95537
vn 0.29540 0.00000 0.95537
vn 0.29540 0.00000 0.95537
vn 0.29540 0.00000 0.95537
vn 0.29540 0.00000 0.95537
vn 0.29540 0.00000 0.95537
vn 0.29540 0.00000 0.95537
vn 0.29540 0.00000 0.95537
vn 0.29540 0.00000 0.95537
vn 0.29540 0.00000 0.95537
vn 0.29540 0.00000 0.95537
vn 0.29540 0.00000 0.95537
vn -0.29540 0.00000 -0.95537
vn -0.29540 0.00000 -0.95537
vn -0.29540 0.00000 -0.95537
vn -0.29540 0.00000 -0.95537
vn 0.24731 0.00000 0.96894
vn 0.24731 0.00000 0.96894
vn 0.24731 0.00000 0.96894
vn 0.24731 0.00000 0.96894
vn 0.24731 0.00000 0.96894
vn 0.24731 0.00000 0.96894
vn 0.24731 0.00000 0.96894
vn 0.24731 0.00000 0.96894
vn 0.24731 0.00000 0.96894
vn 0.24731 0.00000 0.96894
vn 0.24731 0.00000 0.96894
vn 0.24731 0.00000 0.96894
vn -0.24731 0.00000 -0.96894
vn -0.24731 0.00000 -0.96894
vn -0.24731 0.00000 -0.96894
vn -0.24731 0.00000 -0.96894
vn 0.17755 0.00000 0.98411
vn 0.17755 0.00000 0.98411
vn 0.17755 0.00000 0.98411
vn 0.17755 0.00000 0.98411
vn 0.17755 0.00000 0.98411
vn 0.17755 0.00000 0.98411
vn 0.17755 0.00000 0.98411
vn 0.17755 0.00000 0.98411
vn 0.17755 0.00000 0.98411
vn 0.17755 0.00000 0.98411
vn 0.17755 0.00000 0.98411
vn 0.17755 0.00000 0.98411
vn -0.17755 0.00000 -0.98411
vn -0.17755 0.00000 -0.98411
vn -0.17755 0.00000 -0.98411
vn -0.17755 0.00000 -0.98411
vn 0.10690 0.00000 0.99427
vn 0.10690 0.00000 0.99427
vn 0.10690 0.00000 0.99427
vn 0.10690 0.00000 0.99427
vn 0.10690 0.00000 0.99427
vn 0.10690 0.00000 0.99427
vn 0.10690 0.00000 0.99427
vn 0.10690 0.00000 0.99427
vn 0.10690 0.00000 0.99427
vn 0.10690 0.00000 0.99427
vn 0.10690 0.00000 0.99427
vn 0.10690 0.00000 0.99427
vn -0.10690 0.00000 -0.99427
vn -0.10690 0.00000 -0.99427
vn -0.10690 0.00000 -0.99427
vn -0.10690 0.00000 -0.99427
vn 0.03569 0.00000 0.99936
vn 0.03569 0.00000 0.99936
vn 0.03569 0.00000 0.99936
vn 0.03569 0.00000 0.99936
vn 0.03569 0.00000 0.99936
vn 0.03569 0.00000 0.99936
vn 0.03569 0.00000 0.99936
vn 0.03569 0.00000 0.99936
vn 0.03569 0.00000 0.99936
vn 0.03569 0.00000 0.99936
vn 0.03569 0.00000 0.99936
vn 0.03569 0.00000 0.99936
vn -0.03569 0.00000 -0.99936
vn -0.03569 0.00000 -0.99936
vn -0.03569 0.00000 -0.99936
vn -0.03569 0.00000 -0.99936
usemtl ceiling
f 10/10/10 11/11/11 12/12/12
f 25/25/25 26/26/26 27/27/27 28/28/28
f 41/41/41 42/42/42 43/43/43 44/44/44
f 57/57/57 58/58/58 59/59/59 60/60/60
f 73/73/73 74/74/74 75/75/75 76/76/76
f 89/89/89 90/90/90 91/91/91 92/92/92
f 114/114/114 115/115/115 116/116/116 117/117/117
f 118/118/118 119/119/119 120/120/120
f 133/133/133 134/134/134 135/135/135 136/136/136
f 149/149/149 150/150/150 151/151/151 152/152/152
f 165/165/165 166/166/166 167/167/167 168/168/168
f 181/181/181 182/182/182 183/183/183 184/184/184
f 197/197/197 198/198/198 199/199/199 200/200/200
f 213/213/213 214/214/214 215/215/215 216/216/216
f 229/229/229 230/230/230 231/231/231 232/232/232
usemtl floor
f 1/1/1 2/2/2 3/3/3
f 13/13/13 14/14/14 15/15/15 16/16/16
f 29/29/29 30/30/30 31/31/31 32/32/32
f 45/45/45 46/46/46 47/47/47 48/48/48
f 61/61/61 62/62/62 63/63/63 64/64/64
f 77/77/77 78/78/78 79/79/79 80/80/80
f 93/93/93 94/94/94 95/95/95 96/96/96
f 97/97/97 98/98/98 99/99/99
f 121/121/121 122/122/122 123/123/123 124/124/124
f 137/137/137 138/138/138 139/139/139 140/140/140
f 153/153/153 154/154/154 155/155/155 156/156/156
f 169/169/169 170/170/170 171/171/171 172/172/172
f 185/185/185 186/186/186 187/187/187 188/188/188
f 201/201/201 202/202/202 203/203/203 204/204/204
f 217/217/217 218/218/218 219/219/219 220/220/220
usemtl frame
f 237/237/237 238/238/238 239/239/239 240/240/240
f 241/241/241 242/242/242 243/243/243 244/244/244
f 249/249/249 250/250/250 251/251/251 252/252/252
f 253/253/253 254/254/254 255/255/255 256/256/256
f 265/265/265 266/266/266 267/267/267 268/268/268
f 269/269/269 270/270/270 271/271/271 272/272/272
f 281/281/281 282/282/282 283/283/283 284/284/284
f 285/285/285 286/286/286 287/287/287 288/288/288
f 297/297/297 298/298/298 299/299/299 300/300/300
f 301/301/301 302/302/302 303/303/303 304/304/304
f 313/313/313 314/314/314 315/315/315 316/316/316
f 317/317/317 318/318/318 319/319/319 320/320/320
f 329/329/329 330/330/330 331/331/331 332/332/332
f 333/333/333 334/334/334 335/335/335 336/336/336
f 345/345/345 346/346/346 347/347/347 348/348/348
f 349/349/349 350/350/350 351/351/351 352/352/352
f 361/361/361 362/362/362 363/363/363 364/364/364
f 365/365/365 366/366/366 367/367/367 368/368/368
f 377/377/377 378/378/378 379/379/379 380/380/380
f 381/381/381 382/382/382 383/383/383 384/384/384
f 393/393/393 394/394/394 395/395/395 396/396/396
f 397/397/397 398/398/398 399/399/399 400/400/400
f 409/409/409 410/410/410 411/411/411 412/412/412
f 413/413/413 414/414/414 415/415/415 416/416/416
f 425/425/425 426/426/426 427/427/427 428/428/428
f 429/429/429 430/430/430 431/431/431 432/432/432
f 441/441/441 442/442/442 443/443/443 444/444/444
f 445/445/445 446/446/446 447/447/447 448/448/448
usemtl inner
f 257/257/257 258/258/258 259/259/259 260/260/260
f 273/273/273 274/274/274 275/275/275 276/276/276
f 289/289/289 290/290/290 291/291/291 292/292/292
f 305/305/305 306/306/306 307/307/307 308/308/308
f 321/321/321 322/322/322 323/323/323 324/324/324
f 337/337/337 338/338/338 339/339/339 340/340/340
f 353/353/353 354/354/354 355/355/355 356/356/356
f 369/369/369 370/370/370 371/371/371 372/372/372
f 385/385/385 386/386/386 387/387/387 388/388/388
f 401/401/401 402/402/402 403/403/403 404/404/404
f 417/417/417 418/418/418 419/419/419 420/420/420
f 433/433/433 434/434/434 435/435/435 436/436/436
f 449/449/449 450/450/450 451/451/451 452/452/452
usemtl roof
f 7/7/7 8/8/8 9/9/9
f 21/21/21 22/22/22 23/23/23 24/24/24
f 37/37/37 38/38/38 39/39/39 40/40/40
f 53/53/53 54/54/54 55/55/55 56/56/56
f 69/69/69 70/70/70 71/71/71 72/72/72
f 85/85/85 86/86/86 87/87/87 88/88/88
f 107/107/107 108/108/108 109/109/109 110/110/110
f 111/111/111 112/112/112 113/113/113
f 129/129/129 130/130/130 131/131/131 132/132/132
f 145/145/145 146/146/146 147/147/147 148/148/148
f 161/161/161 162/162/162 163/163/163 164/164/164
f 177/177/177 178/178/178 179/179/179 180/180/180
f 193/193/193 194/194/194 195/195/195 196/196/196
f 209/209/209 210/210/210 211/211/211 212/212/212
f 225/225/225 226/226/226 227/227/227 228/228/228
usemtl skin
f 233/233/233 234/234/234 235/235/235 236/236/236
f 245/245/245 246/246/246 247/247/247 248/248/248
f 261/261/261 262/262/262 263/263/263 264/264/264
f 277/277/277 278/278/278 279/279/279 280/280/280
f 293/293/293 294/294/294 295/295/295 296/296/296
f 309/309/309 310/310/310 311/311/311 312/312/312
f 325/325/325 326/326/326 327/327/327 328/328/328
f 341/341/341 342/342/342 343/343/343 344/344/344
f 357/357/357 358/358/358 359/359/359 360/360/360
f 373/373/373 374/374/374 375/375/375 376/376/376
f 389/389/389 390/390/390 391/391/391 392/392/392
f 405/405/405 406/406/406 407/407/407 408/408/408
f 421/421/421 422/422/422 423/423/423 424/424/424
f 437/437/437 438/438/438 439/439/439 440/440/440
usemtl under
f 4/4/4 5/5/5 6/6/6
f 17/17/17 18/18/18 19/19/19 20/20/20
f 33/33/33 34/34/34 35/35/35 36/36/36
f 49/49/49 50/50/50 51/51/51 52/52/52
f 65/65/65 66/66/66 67/67/67 68/68/68
f 81/81/81 82/82/82 83/83/83 84/84/84
f 100/100/100 101/101/101 102/102/102 103/103/103
f 104/104/104 105/105/105 106/106/106
f 125/125/125 126/126/126 127/127/127 128/128/128
f 141/141/141 142/142/142 143/143/143 144/144/144
f 157/157/157 158/158/158 159/159/159 160/160/160
f 173/173/173 174/174/174 175/175/175 176/176/176
f 189/189/189 190/190/190 191/191/191 192/192/192
f 205/205/205 206/206/206 207/207/207 208/208/208
f 221/221/221 222/222/222 223/223/223 224/224/224
