# Generated by dev-env-utils/scripts/gen_transit_airside.py -- do not edit
mtllib jet_bridge_large.mtl
o airport_jet_bridge_large_turn_c8
v -1.02734 0.09375 1.00000
v -1.05612 0.09375 0.99428
v -1.05724 0.09375 1.00000
v -1.05724 0.00000 1.00000
v -1.05612 0.00000 0.99428
v -1.02734 0.00000 1.00000
v -1.02734 4.24547 1.00000
v -1.05612 4.24547 0.99428
v -1.05724 4.24547 1.00000
v -1.05724 4.09375 1.00000
v -1.05612 4.09375 0.99428
v -1.02734 4.09375 1.00000
v -1.00000 0.09375 0.78701
v -1.00986 0.09375 0.78462
v -1.05612 0.09375 0.99428
v -1.02734 0.09375 1.00000
v -1.00000 0.09375 1.00000
v -1.00000 0.09375 0.78701
v -1.02734 0.09375 1.00000
v -1.02734 0.00000 1.00000
v -1.05612 0.00000 0.99428
v -1.00986 0.00000 0.78462
v -1.00000 0.00000 0.78701
v -1.02734 0.00000 1.00000
v -1.00000 0.00000 0.78701
v -1.00000 0.00000 1.00000
v -1.00000 4.24547 0.78701
v -1.00986 4.24547 0.78462
v -1.05612 4.24547 0.99428
v -1.02734 4.24547 1.00000
v -1.00000 4.24547 1.00000
v -1.00000 4.24547 0.78701
v -1.02734 4.24547 1.00000
v -1.02734 4.09375 1.00000
v -1.05612 4.09375 0.99428
v -1.00986 4.09375 0.78462
v -1.00000 4.09375 0.78701
v -1.02734 4.09375 1.00000
v -1.00000 4.09375 0.78701
v -1.00000 4.09375 1.00000
v -1.00000 0.09375 0.74783
v -1.00986 0.09375 0.78462
v -1.00000 0.09375 0.78701
v -1.00000 0.00000 0.78701
v -1.00986 0.00000 0.78462
v -1.00000 0.00000 0.74783
v -1.00000 4.24547 0.74783
v -1.00986 4.24547 0.78462
v -1.00000 4.24547 0.78701
v -1.00000 4.09375 0.78701
v -1.00986 4.09375 0.78462
v -1.00000 4.09375 0.74783
v -1.05724 4.09375 1.00000
v -1.05612 4.09375 0.99428
v -1.05612 0.09375 0.99428
v -1.05724 0.09375 1.00000
v -1.05724 0.09375 1.00000
v -1.05612 0.09375 0.99428
v -1.05612 0.00000 0.99428
v -1.05724 0.00000 1.00000
v -1.05724 4.24547 1.00000
v -1.05612 4.24547 0.99428
v -1.05612 4.09375 0.99428
v -1.05724 4.09375 1.00000
v -1.00986 4.09375 0.78462
v -1.00986 0.09375 0.78462
v -1.05612 0.09375 0.99428
v -1.05612 4.09375 0.99428
v -1.00986 0.09375 0.78462
v -1.00986 0.00000 0.78462
v -1.05612 0.00000 0.99428
v -1.05612 0.09375 0.99428
v -1.00986 4.24547 0.78462
v -1.00986 4.09375 0.78462
v -1.05612 4.09375 0.99428
v -1.05612 4.24547 0.99428
v -1.00000 4.09375 0.74783
v -1.00000 0.09375 0.74783
v -1.00986 0.09375 0.78462
v -1.00986 4.09375 0.78462
v -1.00000 0.09375 0.74783
v -1.00000 0.00000 0.74783
v -1.00986 0.00000 0.78462
v -1.00986 0.09375 0.78462
v -1.00000 4.24547 0.74783
v -1.00000 4.09375 0.74783
v -1.00986 4.09375 0.78462
v -1.00986 4.24547 0.78462
v -0.12206 0.09375 1.00000
v -1.00000 0.09375 0.78701
v -1.00000 0.09375 1.00000
v -1.00000 0.00000 1.00000
v -1.00000 0.00000 0.78701
v -0.12206 0.00000 1.00000
v -0.12206 4.24547 1.00000
v -1.00000 4.24547 0.78701
v -1.00000 4.24547 1.00000
v -1.00000 4.09375 1.00000
v -1.00000 4.09375 0.78701
v -0.12206 4.09375 1.00000
v -0.94635 0.09375 0.54762
v -1.00000 0.09375 0.74783
v -1.00000 0.09375 0.78701
v -0.12206 0.09375 1.00000
v 0.00000 0.09375 1.00000
v 0.00000 0.09375 0.82549
v -0.94635 0.09375 0.54762
v -0.12206 0.09375 1.00000
v -0.12206 0.00000 1.00000
v -1.00000 0.00000 0.78701
v -1.00000 0.00000 0.74783
v -0.94635 0.00000 0.54762
v -0.12206 0.00000 1.00000
v -0.94635 0.00000 0.54762
v 0.00000 0.00000 0.82549
v 0.00000 0.00000 1.00000
v -0.94635 4.24547 0.54762
v -1.00000 4.24547 0.74783
v -1.00000 4.24547 0.78701
v -0.12206 4.24547 1.00000
v 0.00000 4.24547 1.00000
v 0.00000 4.24547 0.82549
v -0.94635 4.24547 0.54762
v -0.12206 4.24547 1.00000
v -0.12206 4.09375 1.00000
v -1.00000 4.09375 0.78701
v -1.00000 4.09375 0.74783
v -0.94635 4.09375 0.54762
v -0.12206 4.09375 1.00000
v -0.94635 4.09375 0.54762
v 0.00000 4.09375 0.82549
v 0.00000 4.09375 1.00000
v 0.00000 0.09375 0.61559
v -0.87164 0.09375 0.31391
v -0.94635 0.09375 0.54762
v 0.00000 0.09375 0.82549
v 0.00000 0.00000 0.82549
v -0.94635 0.00000 0.54762
v -0.87164 0.00000 0.31391
v 0.00000 0.00000 0.61559
v 0.00000 4.24547 0.61559
v -0.87164 4.24547 0.31391
v -0.94635 4.24547 0.54762
v 0.00000 4.24547 0.82549
v 0.00000 4.09375 0.82549
v -0.94635 4.09375 0.54762
v -0.87164 4.09375 0.31391
v 0.00000 4.09375 0.61559
v 0.00000 0.09375 0.39864
v -0.78590 0.09375 0.08402
v -0.87164 0.09375 0.31391
v 0.00000 0.09375 0.61559
v 0.00000 0.00000 0.61559
v -0.87164 0.00000 0.31391
v -0.78590 0.00000 0.08402
v 0.00000 0.00000 0.39864
v 0.00000 4.24547 0.39864
v -0.78590 4.24547 0.08402
v -0.87164 4.24547 0.31391
v 0.00000 4.24547 0.61559
v 0.00000 4.09375 0.61559
v -0.87164 4.09375 0.31391
v -0.78590 4.09375 0.08402
v 0.00000 4.09375 0.39864
v 0.00000 0.09375 0.34315
v -0.76276 0.09375 0.02720
v -0.78590 0.09375 0.08402
v 0.00000 0.09375 0.39864
v 0.00000 0.00000 0.39864
v -0.78590 0.00000 0.08402
v -0.76276 0.00000 0.02720
v 0.00000 0.00000 0.34315
v 0.00000 4.24547 0.34315
v -0.76276 4.24547 0.02720
v -0.78590 4.24547 0.08402
v 0.00000 4.24547 0.39864
v 0.00000 4.09375 0.39864
v -0.78590 4.09375 0.08402
v -0.76276 4.09375 0.02720
v 0.00000 4.09375 0.34315
v -0.37939 0.09375 0.00000
v -0.75092 0.09375 0.00000
v -0.76276 0.09375 0.02720
v 0.00000 0.09375 0.34315
v 0.00000 0.09375 0.17326
v -0.37939 0.09375 0.00000
v 0.00000 0.09375 0.34315
v 0.00000 0.00000 0.34315
v -0.76276 0.00000 0.02720
v -0.75092 0.00000 0.00000
v -0.37939 0.00000 0.00000
v 0.00000 0.00000 0.34315
v -0.37939 0.00000 0.00000
v 0.00000 0.00000 0.17326
v -0.37939 4.24547 0.00000
v -0.75092 4.24547 0.00000
v -0.76276 4.24547 0.02720
v 0.00000 4.24547 0.34315
v 0.00000 4.24547 0.17326
v -0.37939 4.24547 0.00000
v 0.00000 4.24547 0.34315
v 0.00000 4.09375 0.34315
v -0.76276 4.09375 0.02720
v -0.75092 4.09375 0.00000
v -0.37939 4.09375 0.00000
v 0.00000 4.09375 0.34315
v -0.37939 4.09375 0.00000
v 0.00000 4.09375 0.17326
v 0.00000 0.09375 0.00000
v -0.37939 0.09375 0.00000
v 0.00000 0.09375 0.17326
v 0.00000 0.00000 0.17326
v -0.37939 0.00000 0.00000
v 0.00000 0.00000 0.00000
v 0.00000 4.24547 0.00000
v -0.37939 4.24547 0.00000
v 0.00000 4.24547 0.17326
v 0.00000 4.09375 0.17326
v -0.37939 4.09375 0.00000
v 0.00000 4.09375 0.00000
v -0.89851 0.09375 1.00000
v -0.85906 0.09375 0.82121
v -0.85906 4.09375 0.82121
v -0.89851 4.09375 1.00000
v -1.00000 4.09375 0.74783
v -0.94635 4.09375 0.54762
v -0.94635 0.09375 0.54762
v -1.00000 0.09375 0.74783
v -1.00000 0.09375 0.74783
v -0.94635 0.09375 0.54762
v -0.94635 0.00000 0.54762
v -1.00000 0.00000 0.74783
v -1.00000 4.24547 0.74783
v -0.94635 4.24547 0.54762
v -0.94635 4.09375 0.54762
v -1.00000 4.09375 0.74783
v -0.85906 4.09375 0.82121
v -0.85906 0.09375 0.82121
v -0.79746 0.09375 0.59134
v -0.79746 4.09375 0.59134
v -0.87164 4.09375 0.31391
v -0.87164 0.09375 0.31391
v -0.94635 0.09375 0.54762
v -0.94635 4.09375 0.54762
v -0.87164 0.09375 0.31391
v -0.87164 0.00000 0.31391
v -0.94635 0.00000 0.54762
v -0.94635 0.09375 0.54762
v -0.87164 4.24547 0.31391
v -0.87164 4.09375 0.31391
v -0.94635 4.09375 0.54762
v -0.94635 4.24547 0.54762
v -0.79746 4.09375 0.59134
v -0.79746 0.09375 0.59134
v -0.72500 0.09375 0.36466
v -0.72500 4.09375 0.36466
v -0.78590 4.09375 0.08402
v -0.78590 0.09375 0.08402
v -0.87164 0.09375 0.31391
v -0.87164 4.09375 0.31391
v -0.78590 0.09375 0.08402
v -0.78590 0.00000 0.08402
v -0.87164 0.00000 0.31391
v -0.87164 0.09375 0.31391
v -0.78590 4.24547 0.08402
v -0.78590 4.09375 0.08402
v -0.87164 4.09375 0.31391
v -0.87164 4.24547 0.31391
v -0.72500 4.09375 0.36466
v -0.72500 0.09375 0.36466
v -0.64184 0.09375 0.14169
v -0.64184 4.09375 0.14169
v -0.76276 4.09375 0.02720
v -0.76276 0.09375 0.02720
v -0.78590 0.09375 0.08402
v -0.78590 4.09375 0.08402
v -0.76276 0.09375 0.02720
v -0.76276 0.00000 0.02720
v -0.78590 0.00000 0.08402
v -0.78590 0.09375 0.08402
v -0.76276 4.24547 0.02720
v -0.76276 4.09375 0.02720
v -0.78590 4.09375 0.08402
v -0.78590 4.24547 0.08402
v -0.64184 4.09375 0.14169
v -0.64184 0.09375 0.14169
v -0.61940 0.09375 0.08658
v -0.61940 4.09375 0.08658
v -0.75092 4.09375 0.00000
v -0.75092 0.09375 0.00000
v -0.76276 0.09375 0.02720
v -0.76276 4.09375 0.02720
v -0.75092 0.09375 0.00000
v -0.75092 0.00000 0.00000
v -0.76276 0.00000 0.02720
v -0.76276 0.09375 0.02720
v -0.75092 4.24547 0.00000
v -0.75092 4.09375 0.00000
v -0.76276 4.09375 0.02720
v -0.76276 4.24547 0.02720
v -0.61940 4.09375 0.08658
v -0.61940 0.09375 0.08658
v -0.58171 0.09375 0.00000
v -0.58171 4.09375 0.00000
v 0.59431 0.09375 1.00000
v 0.00000 0.09375 0.82549
v 0.00000 0.09375 1.00000
v 0.00000 0.00000 1.00000
v 0.00000 0.00000 0.82549
v 0.59431 0.00000 1.00000
v 0.59431 4.24547 1.00000
v 0.00000 4.24547 0.82549
v 0.00000 4.24547 1.00000
v 0.00000 4.09375 1.00000
v 0.00000 4.09375 0.82549
v 0.59431 4.09375 1.00000
v 1.00000 0.09375 0.96169
v 0.00000 0.09375 0.61559
v 0.00000 0.09375 0.82549
v 0.59431 0.09375 1.00000
v 1.00000 0.09375 1.00000
v 1.00000 0.09375 0.96169
v 0.59431 0.09375 1.00000
v 0.59431 0.00000 1.00000
v 0.00000 0.00000 0.82549
v 0.00000 0.00000 0.61559
v 1.00000 0.00000 0.96169
v 0.59431 0.00000 1.00000
v 1.00000 0.00000 0.96169
v 1.00000 0.00000 1.00000
v 1.00000 4.24547 0.96169
v 0.00000 4.24547 0.61559
v 0.00000 4.24547 0.82549
v 0.59431 4.24547 1.00000
v 1.00000 4.24547 1.00000
v 1.00000 4.24547 0.96169
v 0.59431 4.24547 1.00000
v 0.59431 4.09375 1.00000
v 0.00000 4.09375 0.82549
v 0.00000 4.09375 0.61559
v 1.00000 4.09375 0.96169
v 0.59431 4.09375 1.00000
v 1.00000 4.09375 0.96169
v 1.00000 4.09375 1.00000
v 1.00000 0.09375 0.79898
v 0.00000 0.09375 0.39864
v 0.00000 0.09375 0.61559
v 1.00000 0.09375 0.96169
v 1.00000 0.00000 0.96169
v 0.00000 0.00000 0.61559
v 0.00000 0.00000 0.39864
v 1.00000 0.00000 0.79898
v 1.00000 4.24547 0.79898
v 0.00000 4.24547 0.39864
v 0.00000 4.24547 0.61559
v 1.00000 4.24547 0.96169
v 1.00000 4.09375 0.96169
v 0.00000 4.09375 0.61559
v 0.00000 4.09375 0.39864
v 1.00000 4.09375 0.79898
v 1.00000 0.09375 0.75736
v 0.00000 0.09375 0.34315
v 0.00000 0.09375 0.39864
v 1.00000 0.09375 0.79898
v 1.00000 0.00000 0.79898
v 0.00000 0.00000 0.39864
v 0.00000 0.00000 0.34315
v 1.00000 0.00000 0.75736
v 1.00000 4.24547 0.75736
v 0.00000 4.24547 0.34315
v 0.00000 4.24547 0.39864
v 1.00000 4.24547 0.79898
v 1.00000 4.09375 0.79898
v 0.00000 4.09375 0.39864
v 0.00000 4.09375 0.34315
v 1.00000 4.09375 0.75736
v 1.00000 0.09375 0.62995
v 0.00000 0.09375 0.17326
v 0.00000 0.09375 0.34315
v 1.00000 0.09375 0.75736
v 1.00000 0.00000 0.75736
v 0.00000 0.00000 0.34315
v 0.00000 0.00000 0.17326
v 1.00000 0.00000 0.62995
v 1.00000 4.24547 0.62995
v 0.00000 4.24547 0.17326
v 0.00000 4.24547 0.34315
v 1.00000 4.24547 0.75736
v 1.00000 4.09375 0.75736
v 0.00000 4.09375 0.34315
v 0.00000 4.09375 0.17326
v 1.00000 4.09375 0.62995
v 0.12054 0.09375 0.00000
v 0.00000 0.09375 0.00000
v 0.00000 0.09375 0.17326
v 1.00000 0.09375 0.62995
v 1.00000 0.09375 0.45339
v 0.12054 0.09375 0.00000
v 1.00000 0.09375 0.62995
v 1.00000 0.00000 0.62995
v 0.00000 0.00000 0.17326
v 0.00000 0.00000 0.00000
v 0.12054 0.00000 0.00000
v 1.00000 0.00000 0.62995
v 0.12054 0.00000 0.00000
v 1.00000 0.00000 0.45339
v 0.12054 4.24547 0.00000
v 0.00000 4.24547 0.00000
v 0.00000 4.24547 0.17326
v 1.00000 4.24547 0.62995
v 1.00000 4.24547 0.45339
v 0.12054 4.24547 0.00000
v 1.00000 4.24547 0.62995
v 1.00000 4.09375 0.62995
v 0.00000 4.09375 0.17326
v 0.00000 4.09375 0.00000
v 0.12054 4.09375 0.00000
v 1.00000 4.09375 0.62995
v 0.12054 4.09375 0.00000
v 1.00000 4.09375 0.45339
v 1.00000 0.09375 0.26795
v 0.53590 0.09375 0.00000
v 0.12054 0.09375 0.00000
v 1.00000 0.09375 0.45339
v 1.00000 0.00000 0.45339
v 0.12054 0.00000 0.00000
v 0.53590 0.00000 0.00000
v 1.00000 0.00000 0.26795
v 1.00000 4.24547 0.26795
v 0.53590 4.24547 0.00000
v 0.12054 4.24547 0.00000
v 1.00000 4.24547 0.45339
v 1.00000 4.09375 0.45339
v 0.12054 4.09375 0.00000
v 0.53590 4.09375 0.00000
v 1.00000 4.09375 0.26795
v 1.00000 0.09375 0.07202
v 0.88794 0.09375 0.00000
v 0.53590 0.09375 0.00000
v 1.00000 0.09375 0.26795
v 1.00000 0.00000 0.26795
v 0.53590 0.00000 0.00000
v 0.88794 0.00000 0.00000
v 1.00000 0.00000 0.07202
v 1.00000 4.24547 0.07202
v 0.88794 4.24547 0.00000
v 0.53590 4.24547 0.00000
v 1.00000 4.24547 0.26795
v 1.00000 4.09375 0.26795
v 0.53590 4.09375 0.00000
v 0.88794 4.09375 0.00000
v 1.00000 4.09375 0.07202
v 1.00000 0.09375 0.00000
v 0.88794 0.09375 0.00000
v 1.00000 0.09375 0.07202
v 1.00000 0.00000 0.07202
v 0.88794 0.00000 0.00000
v 1.00000 0.00000 0.00000
v 1.00000 4.24547 0.00000
v 0.88794 4.24547 0.00000
v 1.00000 4.24547 0.07202
v 1.00000 4.09375 0.07202
v 0.88794 4.09375 0.00000
v 1.00000 4.09375 0.00000
vt 0.74317 1.00000
vt 0.73597 0.99857
vt 0.73569 1.00000
vt 0.73569 1.00000
vt 0.73597 0.99857
vt 0.74317 1.00000
vt 0.74317 1.00000
vt 0.73597 0.99857
vt 0.73569 1.00000
vt 0.50000 0.17082
vt 0.50000 0.17181
vt 0.49557 0.17181
vt 0.75000 0.94675
vt 0.74754 0.94616
vt 0.73597 0.99857
vt 0.74317 1.00000
vt 0.75000 1.00000
vt 0.75000 0.94675
vt 0.74317 1.00000
vt 0.74317 1.00000
vt 0.73597 0.99857
vt 0.74754 0.94616
vt 0.75000 0.94675
vt 0.74317 1.00000
vt 0.75000 0.94675
vt 0.75000 1.00000
vt 0.75000 0.94675
vt 0.74754 0.94616
vt 0.73597 0.99857
vt 0.74317 1.00000
vt 0.75000 1.00000
vt 0.75000 0.94675
vt 0.74317 1.00000
vt 0.49557 0.17181
vt 0.50000 0.17181
vt 0.50000 0.20825
vt 0.49847 0.20825
vt 0.49557 0.17181
vt 0.49847 0.20825
vt 0.49152 0.17272
vt 0.75000 0.93696
vt 0.74754 0.94616
vt 0.75000 0.94675
vt 0.75000 0.94675
vt 0.74754 0.94616
vt 0.75000 0.93696
vt 0.75000 0.93696
vt 0.74754 0.94616
vt 0.75000 0.94675
vt 0.49847 0.20825
vt 0.50000 0.20825
vt 0.49988 0.21471
vt 0.49712 0.00000
vt 0.50000 0.00000
vt 0.50000 0.90625
vt 0.49712 0.90625
vt 0.99424 0.00000
vt 1.00000 0.00000
vt 1.00000 0.09375
vt 0.99424 0.09375
vt 0.99424 0.00000
vt 1.00000 0.00000
vt 1.00000 0.09375
vt 0.99424 0.09375
vt 0.10606 0.00000
vt 0.10606 0.90625
vt 0.00000 0.90625
vt 0.00000 0.00000
vt 0.21212 0.00000
vt 0.21212 0.09375
vt 0.00000 0.09375
vt 0.00000 0.00000
vt 0.21212 0.00000
vt 0.21212 0.09375
vt 0.00000 0.09375
vt 0.00000 0.00000
vt 0.12488 0.00000
vt 0.12488 0.90625
vt 0.10606 0.90625
vt 0.10606 0.00000
vt 0.24976 0.00000
vt 0.24976 0.09375
vt 0.21212 0.09375
vt 0.21212 0.00000
vt 0.24976 0.00000
vt 0.24976 0.09375
vt 0.21212 0.09375
vt 0.21212 0.00000
vt 0.96949 1.00000
vt 0.75000 0.94675
vt 0.75000 1.00000
vt 0.75000 1.00000
vt 0.75000 0.94675
vt 0.96949 1.00000
vt 0.96949 1.00000
vt 0.75000 0.94675
vt 0.75000 1.00000
vt 0.49152 0.17272
vt 0.49847 0.20825
vt 0.36202 0.20825
vt 0.76341 0.88690
vt 0.75000 0.93696
vt 0.75000 0.94675
vt 0.96949 1.00000
vt 1.00000 1.00000
vt 1.00000 0.95637
vt 0.76341 0.88690
vt 0.96949 1.00000
vt 0.96949 1.00000
vt 0.75000 0.94675
vt 0.75000 0.93696
vt 0.76341 0.88690
vt 0.96949 1.00000
vt 0.76341 0.88690
vt 1.00000 0.95637
vt 1.00000 1.00000
vt 0.76341 0.88690
vt 0.75000 0.93696
vt 0.75000 0.94675
vt 0.96949 1.00000
vt 1.00000 1.00000
vt 1.00000 0.95637
vt 0.76341 0.88690
vt 0.96949 1.00000
vt 0.36202 0.20825
vt 0.49847 0.20825
vt 0.49988 0.21471
vt 0.50000 0.24990
vt 0.36202 0.20825
vt 0.50000 0.24990
vt 0.35103 0.24990
vt 0.34411 0.21436
vt 1.00000 0.90390
vt 0.78209 0.82848
vt 0.76341 0.88690
vt 1.00000 0.95637
vt 1.00000 0.95637
vt 0.76341 0.88690
vt 0.78209 0.82848
vt 1.00000 0.90390
vt 1.00000 0.90390
vt 0.78209 0.82848
vt 0.76341 0.88690
vt 1.00000 0.95637
vt 0.35103 0.24990
vt 0.50000 0.24990
vt 0.50000 0.29155
vt 0.36068 0.29155
vt 1.00000 0.84966
vt 0.80353 0.77100
vt 0.78209 0.82848
vt 1.00000 0.90390
vt 1.00000 0.90390
vt 0.78209 0.82848
vt 0.80353 0.77100
vt 1.00000 0.84966
vt 1.00000 0.84966
vt 0.80353 0.77100
vt 0.78209 0.82848
vt 1.00000 0.90390
vt 0.36068 0.29155
vt 0.50000 0.29155
vt 0.50000 0.33320
vt 0.37214 0.33320
vt 1.00000 0.83579
vt 0.80931 0.75680
vt 0.80353 0.77100
vt 1.00000 0.84966
vt 1.00000 0.84966
vt 0.80353 0.77100
vt 0.80931 0.75680
vt 1.00000 0.83579
vt 1.00000 0.83579
vt 0.80931 0.75680
vt 0.80353 0.77100
vt 1.00000 0.84966
vt 0.37214 0.33320
vt 0.50000 0.33320
vt 0.50000 0.34361
vt 0.37530 0.34361
vt 0.90515 0.75000
vt 0.81227 0.75000
vt 0.80931 0.75680
vt 1.00000 0.83579
vt 1.00000 0.79332
vt 0.90515 0.75000
vt 1.00000 0.83579
vt 1.00000 0.83579
vt 0.80931 0.75680
vt 0.81227 0.75000
vt 0.90515 0.75000
vt 1.00000 0.83579
vt 0.90515 0.75000
vt 1.00000 0.79332
vt 0.90515 0.75000
vt 0.81227 0.75000
vt 0.80931 0.75680
vt 1.00000 0.83579
vt 1.00000 0.79332
vt 0.90515 0.75000
vt 1.00000 0.83579
vt 0.37530 0.34361
vt 0.50000 0.34361
vt 0.49993 0.34865
vt 0.44854 0.37485
vt 0.37530 0.34361
vt 0.44854 0.37485
vt 0.38554 0.37485
vt 1.00000 0.75000
vt 0.90515 0.75000
vt 1.00000 0.79332
vt 1.00000 0.79332
vt 0.90515 0.75000
vt 1.00000 0.75000
vt 1.00000 0.75000
vt 0.90515 0.75000
vt 1.00000 0.79332
vt 0.38554 0.37485
vt 0.44854 0.37485
vt 0.39683 0.40569
vt 0.01280 0.90625
vt 0.10606 0.90625
vt 0.10606 0.00000
vt 0.01280 0.00000
vt 0.12488 0.00000
vt 0.22727 0.00000
vt 0.22727 0.90625
vt 0.12488 0.90625
vt 0.24976 0.00000
vt 0.45455 0.00000
vt 0.45455 0.09375
vt 0.24976 0.09375
vt 0.24976 0.00000
vt 0.45455 0.00000
vt 0.45455 0.09375
vt 0.24976 0.09375
vt 0.10606 0.00000
vt 0.10606 0.90625
vt 0.22727 0.90625
vt 0.22727 0.00000
vt 0.34848 0.00000
vt 0.34848 0.90625
vt 0.22727 0.90625
vt 0.22727 0.00000
vt 0.69697 0.00000
vt 0.69697 0.09375
vt 0.45455 0.09375
vt 0.45455 0.00000
vt 0.69697 0.00000
vt 0.69697 0.09375
vt 0.45455 0.09375
vt 0.45455 0.00000
vt 0.22727 0.00000
vt 0.22727 0.90625
vt 0.34848 0.90625
vt 0.34848 0.00000
vt 0.46969 0.00000
vt 0.46969 0.90625
vt 0.34848 0.90625
vt 0.34848 0.00000
vt 0.93939 0.00000
vt 0.93939 0.09375
vt 0.69697 0.09375
vt 0.69697 0.00000
vt 0.93939 0.00000
vt 0.93939 0.09375
vt 0.69697 0.09375
vt 0.69697 0.00000
vt 0.34848 0.00000
vt 0.34848 0.90625
vt 0.46969 0.90625
vt 0.46969 0.00000
vt 0.50000 0.00000
vt 0.50000 0.90625
vt 0.46969 0.90625
vt 0.46969 0.00000
vt 1.00000 0.00000
vt 1.00000 0.09375
vt 0.93939 0.09375
vt 0.93939 0.00000
vt 1.00000 0.00000
vt 1.00000 0.09375
vt 0.93939 0.09375
vt 0.93939 0.00000
vt 0.46969 0.00000
vt 0.46969 0.90625
vt 0.50000 0.90625
vt 0.50000 0.00000
vt 0.01465 0.00000
vt 0.01465 0.90625
vt 0.00000 0.90625
vt 0.00000 0.00000
vt 0.02931 0.00000
vt 0.02931 0.09375
vt 0.00000 0.09375
vt 0.00000 0.00000
vt 0.02931 0.00000
vt 0.02931 0.09375
vt 0.00000 0.09375
vt 0.00000 0.00000
vt 0.00000 0.00000
vt 0.00000 0.90625
vt 0.04810 0.90625
vt 0.04810 0.00000
vt 0.14858 1.00000
vt 0.00000 0.95637
vt 0.00000 1.00000
vt 0.00000 1.00000
vt 0.00000 0.95637
vt 0.14858 1.00000
vt 0.14858 1.00000
vt 0.00000 0.95637
vt 0.00000 1.00000
vt 0.34411 0.21436
vt 0.35103 0.24990
vt 0.25747 0.24990
vt 0.25000 0.99042
vt 0.00000 0.90390
vt 0.00000 0.95637
vt 0.14858 1.00000
vt 0.25000 1.00000
vt 0.25000 0.99042
vt 0.14858 1.00000
vt 0.14858 1.00000
vt 0.00000 0.95637
vt 0.00000 0.90390
vt 0.25000 0.99042
vt 0.14858 1.00000
vt 0.25000 0.99042
vt 0.25000 1.00000
vt 0.25000 0.99042
vt 0.00000 0.90390
vt 0.00000 0.95637
vt 0.14858 1.00000
vt 0.25000 1.00000
vt 0.25000 0.99042
vt 0.14858 1.00000
vt 0.25747 0.24990
vt 0.35103 0.24990
vt 0.36068 0.29155
vt 0.20085 0.29155
vt 0.25747 0.24990
vt 0.20085 0.29155
vt 0.19899 0.28153
vt 0.25000 0.94975
vt 0.00000 0.84966
vt 0.00000 0.90390
vt 0.25000 0.99042
vt 0.25000 0.99042
vt 0.00000 0.90390
vt 0.00000 0.84966
vt 0.25000 0.94975
vt 0.25000 0.94975
vt 0.00000 0.84966
vt 0.00000 0.90390
vt 0.25000 0.99042
vt 0.20085 0.29155
vt 0.36068 0.29155
vt 0.37214 0.33320
vt 0.20944 0.33320
vt 0.25000 0.93934
vt 0.00000 0.83579
vt 0.00000 0.84966
vt 0.25000 0.94975
vt 0.25000 0.94975
vt 0.00000 0.84966
vt 0.00000 0.83579
vt 0.25000 0.93934
vt 0.25000 0.93934
vt 0.00000 0.83579
vt 0.00000 0.84966
vt 0.25000 0.94975
vt 0.20944 0.33320
vt 0.37214 0.33320
vt 0.37530 0.34361
vt 0.21181 0.34361
vt 0.25000 0.90749
vt 0.00000 0.79332
vt 0.00000 0.83579
vt 0.25000 0.93934
vt 0.25000 0.93934
vt 0.00000 0.83579
vt 0.00000 0.79332
vt 0.25000 0.90749
vt 0.25000 0.90749
vt 0.00000 0.79332
vt 0.00000 0.83579
vt 0.25000 0.93934
vt 0.21181 0.34361
vt 0.37530 0.34361
vt 0.38554 0.37485
vt 0.21950 0.37485
vt 0.03014 0.75000
vt 0.00000 0.75000
vt 0.00000 0.79332
vt 0.25000 0.90749
vt 0.25000 0.86335
vt 0.03014 0.75000
vt 0.25000 0.90749
vt 0.25000 0.90749
vt 0.00000 0.79332
vt 0.00000 0.75000
vt 0.03014 0.75000
vt 0.25000 0.90749
vt 0.03014 0.75000
vt 0.25000 0.86335
vt 0.03014 0.75000
vt 0.00000 0.75000
vt 0.00000 0.79332
vt 0.25000 0.90749
vt 0.25000 0.86335
vt 0.03014 0.75000
vt 0.25000 0.90749
vt 0.21950 0.37485
vt 0.38554 0.37485
vt 0.39683 0.40569
vt 0.38060 0.41650
vt 0.21950 0.37485
vt 0.38060 0.41650
vt 0.23115 0.41650
vt 0.25000 0.81699
vt 0.13397 0.75000
vt 0.03014 0.75000
vt 0.25000 0.86335
vt 0.25000 0.86335
vt 0.03014 0.75000
vt 0.13397 0.75000
vt 0.25000 0.81699
vt 0.25000 0.81699
vt 0.13397 0.75000
vt 0.03014 0.75000
vt 0.25000 0.86335
vt 0.23115 0.41650
vt 0.38060 0.41650
vt 0.32552 0.45815
vt 0.24458 0.45815
vt 0.25000 0.76800
vt 0.22198 0.75000
vt 0.13397 0.75000
vt 0.25000 0.81699
vt 0.25000 0.81699
vt 0.13397 0.75000
vt 0.22198 0.75000
vt 0.25000 0.76800
vt 0.25000 0.76800
vt 0.22198 0.75000
vt 0.13397 0.75000
vt 0.25000 0.81699
vt 0.24458 0.45815
vt 0.32552 0.45815
vt 0.28010 0.49980
vt 0.25998 0.49980
vt 0.25000 0.75000
vt 0.22198 0.75000
vt 0.25000 0.76800
vt 0.25000 0.76800
vt 0.22198 0.75000
vt 0.25000 0.75000
vt 0.25000 0.75000
vt 0.22198 0.75000
vt 0.25000 0.76800
vt 0.25998 0.00000
vt 0.28010 0.00000
vt 0.26594 0.01450
vn 0.00000 1.00000 0.00000
vn 0.00000 1.00000 0.00000
vn 0.00000 1.00000 0.00000
vn 0.00000 -1.00000 0.00000
vn 0.00000 -1.00000 0.00000
vn 0.00000 -1.00000 0.00000
vn 0.00000 1.00000 0.00000
vn 0.00000 1.00000 0.00000
vn 0.00000 1.00000 0.00000
vn 0.00000 -1.00000 0.00000
vn 0.00000 -1.00000 0.00000
vn 0.00000 -1.00000 0.00000
vn 0.00000 1.00000 0.00000
vn 0.00000 1.00000 0.00000
vn 0.00000 1.00000 0.00000
vn 0.00000 1.00000 0.00000
vn 0.00000 1.00000 0.00000
vn 0.00000 1.00000 0.00000
vn 0.00000 1.00000 0.00000
vn 0.00000 -1.00000 0.00000
vn 0.00000 -1.00000 0.00000
vn 0.00000 -1.00000 0.00000
vn 0.00000 -1.00000 0.00000
vn 0.00000 -1.00000 0.00000
vn 0.00000 -1.00000 0.00000
vn 0.00000 -1.00000 0.00000
vn 0.00000 1.00000 0.00000
vn 0.00000 1.00000 0.00000
vn 0.00000 1.00000 0.00000
vn 0.00000 1.00000 0.00000
vn 0.00000 1.00000 0.00000
vn 0.00000 1.00000 0.00000
vn 0.00000 1.00000 0.00000
vn 0.00000 -1.00000 0.00000
vn 0.00000 -1.00000 0.00000
vn 0.00000 -1.00000 0.00000
vn 0.00000 -1.00000 0.00000
vn 0.00000 -1.00000 0.00000
vn 0.00000 -1.00000 0.00000
vn 0.00000 -1.00000 0.00000
vn 0.00000 1.00000 0.00000
vn 0.00000 1.00000 0.00000
vn 0.00000 1.00000 0.00000
vn 0.00000 -1.00000 0.00000
vn 0.00000 -1.00000 0.00000
vn 0.00000 -1.00000 0.00000
vn 0.00000 1.00000 0.00000
vn 0.00000 1.00000 0.00000
vn 0.00000 1.00000 0.00000
vn 0.00000 -1.00000 0.00000
vn 0.00000 -1.00000 0.00000
vn 0.00000 -1.00000 0.00000
vn -0.98136 0.00000 -0.19217
vn -0.98136 0.00000 -0.19217
vn -0.98136 0.00000 -0.19217
vn -0.98136 0.00000 -0.19217
vn -0.98136 0.00000 -0.19217
vn -0.98136 0.00000 -0.19217
vn -0.98136 0.00000 -0.19217
vn -0.98136 0.00000 -0.19217
vn -0.98136 0.00000 -0.19217
vn -0.98136 0.00000 -0.19217
vn -0.98136 0.00000 -0.19217
vn -0.98136 0.00000 -0.19217
vn -0.97651 0.00000 -0.21547
vn -0.97651 0.00000 -0.21547
vn -0.97651 0.00000 -0.21547
vn -0.97651 0.00000 -0.21547
vn -0.97651 0.00000 -0.21547
vn -0.97651 0.00000 -0.21547
vn -0.97651 0.00000 -0.21547
vn -0.97651 0.00000 -0.21547
vn -0.97651 0.00000 -0.21547
vn -0.97651 0.00000 -0.21547
vn -0.97651 0.00000 -0.21547
vn -0.97651 0.00000 -0.21547
vn -0.96593 0.00000 -0.25882
vn -0.96593 0.00000 -0.25882
vn -0.96593 0.00000 -0.25882
vn -0.96593 0.00000 -0.25882
vn -0.96593 0.00000 -0.25882
vn -0.96593 0.00000 -0.25882
vn -0.96593 0.00000 -0.25882
vn -0.96593 0.00000 -0.25882
vn -0.96593 0.00000 -0.25882
vn -0.96593 0.00000 -0.25882
vn -0.96593 0.00000 -0.25882
vn -0.96593 0.00000 -0.25882
vn 0.00000 1.00000 0.00000
vn 0.00000 1.00000 0.00000
vn 0.00000 1.00000 0.00000
vn 0.00000 -1.00000 0.00000
vn 0.00000 -1.00000 0.00000
vn 0.00000 -1.00000 0.00000
vn 0.00000 1.00000 0.00000
vn 0.00000 1.00000 0.00000
vn 0.00000 1.00000 0.00000
vn 0.00000 -1.00000 0.00000
vn 0.00000 -1.00000 0.00000
vn 0.00000 -1.00000 0.00000
vn 0.00000 1.00000 0.00000
vn 0.00000 1.00000 0.00000
vn 0.00000 1.00000 0.00000
vn 0.00000 1.00000 0.00000
vn 0.00000 1.00000 0.00000
vn 0.00000 1.00000 0.00000
vn 0.00000 1.00000 0.00000
vn 0.00000 1.00000 0.00000
vn 0.00000 -1.00000 0.00000
vn 0.00000 -1.00000 0.00000
vn 0.00000 -1.00000 0.00000
vn 0.00000 -1.00000 0.00000
vn 0.00000 -1.00000 0.00000
vn 0.00000 -1.00000 0.00000
vn 0.00000 -1.00000 0.00000
vn 0.00000 -1.00000 0.00000
vn 0.00000 1.00000 0.00000
vn 0.00000 1.00000 0.00000
vn 0.00000 1.00000 0.00000
vn 0.00000 1.00000 0.00000
vn 0.00000 1.00000 0.00000
vn 0.00000 1.00000 0.00000
vn 0.00000 1.00000 0.00000
vn 0.00000 1.00000 0.00000
vn 0.00000 -1.00000 0.00000
vn 0.00000 -1.00000 0.00000
vn 0.00000 -1.00000 0.00000
vn 0.00000 -1.00000 0.00000
vn 0.00000 -1.00000 0.00000
vn 0.00000 -1.00000 0.00000
vn 0.00000 -1.00000 0.00000
vn 0.00000 -1.00000 0.00000
vn 0.00000 1.00000 0.00000
vn 0.00000 1.00000 0.00000
vn 0.00000 1.00000 0.00000
vn 0.00000 1.00000 0.00000
vn 0.00000 -1.00000 0.00000
vn 0.00000 -1.00000 0.00000
vn 0.00000 -1.00000 0.00000
vn 0.00000 -1.00000 0.00000
vn 0.00000 1.00000 0.00000
vn 0.00000 1.00000 0.00000
vn 0.00000 1.00000 0.00000
vn 0.00000 1.00000 0.00000
vn 0.00000 -1.00000 0.00000
vn 0.00000 -1.00000 0.00000
vn 0.00000 -1.00000 0.00000
vn 0.00000 -1.00000 0.00000
vn 0.00000 1.00000 0.00000
vn 0.00000 1.00000 0.00000
vn 0.00000 1.00000 0.00000
vn 0.00000 1.00000 0.00000
vn 0.00000 -1.00000 0.00000
vn 0.00000 -1.00000 0.00000
vn 0.00000 -1.00000 0.00000
vn 0.00000 -1.00000 0.00000
vn 0.00000 1.00000 0.00000
vn 0.00000 1.00000 0.00000
vn 0.00000 1.00000 0.00000
vn 0.00000 1.00000 0.00000
vn 0.00000 -1.00000 0.00000
vn 0.00000 -1.00000 0.00000
vn 0.00000 -1.00000 0.00000
vn 0.00000 -1.00000 0.00000
vn 0.00000 1.00000 0.00000
vn 0.00000 1.00000 0.00000
vn 0.00000 1.00000 0.00000
vn 0.00000 1.00000 0.00000
vn 0.00000 -1.00000 0.00000
vn 0.00000 -1.00000 0.00000
vn 0.00000 -1.00000 0.00000
vn 0.00000 -1.00000 0.00000
vn 0.00000 1.00000 0.00000
vn 0.00000 1.00000 0.00000
vn 0.00000 1.00000 0.00000
vn 0.00000 1.00000 0.00000
vn 0.00000 -1.00000 0.00000
vn 0.00000 -1.00000 0.00000
vn 0.00000 -1.00000 0.00000
vn 0.00000 -1.00000 0.00000
vn 0.00000 1.00000 0.00000
vn 0.00000 1.00000 0.00000
vn 0.00000 1.00000 0.00000
vn 0.00000 1.00000 0.00000
vn 0.00000 1.00000 0.00000
vn 0.00000 1.00000 0.00000
vn 0.00000 1.00000 0.00000
vn 0.00000 -1.00000 0.00000
vn 0.00000 -1.00000 0.00000
vn 0.00000 -1.00000 0.00000
vn 0.00000 -1.00000 0.00000
vn 0.00000 -1.00000 0.00000
vn 0.00000 -1.00000 0.00000
vn 0.00000 -1.00000 0.00000
vn 0.00000 1.00000 0.00000
vn 0.00000 1.00000 0.00000
vn 0.00000 1.00000 0.00000
vn 0.00000 1.00000 0.00000
vn 0.00000 1.00000 0.00000
vn 0.00000 1.00000 0.00000
vn 0.00000 1.00000 0.00000
vn 0.00000 -1.00000 0.00000
vn 0.00000 -1.00000 0.00000
vn 0.00000 -1.00000 0.00000
vn 0.00000 -1.00000 0.00000
vn 0.00000 -1.00000 0.00000
vn 0.00000 -1.00000 0.00000
vn 0.00000 -1.00000 0.00000
vn 0.00000 1.00000 0.00000
vn 0.00000 1.00000 0.00000
vn 0.00000 1.00000 0.00000
vn 0.00000 -1.00000 0.00000
vn 0.00000 -1.00000 0.00000
vn 0.00000 -1.00000 0.00000
vn 0.00000 1.00000 0.00000
vn 0.00000 1.00000 0.00000
vn 0.00000 1.00000 0.00000
vn 0.00000 -1.00000 0.00000
vn 0.00000 -1.00000 0.00000
vn 0.00000 -1.00000 0.00000
vn 0.97651 0.00000 0.21547
vn 0.97651 0.00000 0.21547
vn 0.97651 0.00000 0.21547
vn 0.97651 0.00000 0.21547
vn -0.96593 0.00000 -0.25882
vn -0.96593 0.00000 -0.25882
vn -0.96593 0.00000 -0.25882
vn -0.96593 0.00000 -0.25882
vn -0.96593 0.00000 -0.25882
vn -0.96593 0.00000 -0.25882
vn -0.96593 0.00000 -0.25882
vn -0.96593 0.00000 -0.25882
vn -0.96593 0.00000 -0.25882
vn -0.96593 0.00000 -0.25882
vn -0.96593 0.00000 -0.25882
vn -0.96593 0.00000 -0.25882
vn 0.96593 0.00000 0.25882
vn 0.96593 0.00000 0.25882
vn 0.96593 0.00000 0.25882
vn 0.96593 0.00000 0.25882
vn -0.95252 0.00000 -0.30449
vn -0.95252 0.00000 -0.30449
vn -0.95252 0.00000 -0.30449
vn -0.95252 0.00000 -0.30449
vn -0.95252 0.00000 -0.30449
vn -0.95252 0.00000 -0.30449
vn -0.95252 0.00000 -0.30449
vn -0.95252 0.00000 -0.30449
vn -0.95252 0.00000 -0.30449
vn -0.95252 0.00000 -0.30449
vn -0.95252 0.00000 -0.30449
vn -0.95252 0.00000 -0.30449
vn 0.95252 0.00000 0.30449
vn 0.95252 0.00000 0.30449
vn 0.95252 0.00000 0.30449
vn 0.95252 0.00000 0.30449
vn -0.93695 0.00000 -0.34946
vn -0.93695 0.00000 -0.34946
vn -0.93695 0.00000 -0.34946
vn -0.93695 0.00000 -0.34946
vn -0.93695 0.00000 -0.34946
vn -0.93695 0.00000 -0.34946
vn -0.93695 0.00000 -0.34946
vn -0.93695 0.00000 -0.34946
vn -0.93695 0.00000 -0.34946
vn -0.93695 0.00000 -0.34946
vn -0.93695 0.00000 -0.34946
vn -0.93695 0.00000 -0.34946
vn 0.93695 0.00000 0.34946
vn 0.93695 0.00000 0.34946
vn 0.93695 0.00000 0.34946
vn 0.93695 0.00000 0.34946
vn -0.92614 0.00000 -0.37718
vn -0.92614 0.00000 -0.37718
vn -0.92614 0.00000 -0.37718
vn -0.92614 0.00000 -0.37718
vn -0.92614 0.00000 -0.37718
vn -0.92614 0.00000 -0.37718
vn -0.92614 0.00000 -0.37718
vn -0.92614 0.00000 -0.37718
vn -0.92614 0.00000 -0.37718
vn -0.92614 0.00000 -0.37718
vn -0.92614 0.00000 -0.37718
vn -0.92614 0.00000 -0.37718
vn 0.92614 0.00000 0.37718
vn 0.92614 0.00000 0.37718
vn 0.92614 0.00000 0.37718
vn 0.92614 0.00000 0.37718
vn -0.91690 0.00000 -0.39911
vn -0.91690 0.00000 -0.39911
vn -0.91690 0.00000 -0.39911
vn -0.91690 0.00000 -0.39911
vn -0.91690 0.00000 -0.39911
vn -0.91690 0.00000 -0.39911
vn -0.91690 0.00000 -0.39911
vn -0.91690 0.00000 -0.39911
vn -0.91690 0.00000 -0.39911
vn -0.91690 0.00000 -0.39911
vn -0.91690 0.00000 -0.39911
vn -0.91690 0.00000 -0.39911
vn 0.91690 0.00000 0.39911
vn 0.91690 0.00000 0.39911
vn 0.91690 0.00000 0.39911
vn 0.91690 0.00000 0.39911
vn 0.00000 1.00000 0.00000
vn 0.00000 1.00000 0.00000
vn 0.00000 1.00000 0.00000
vn 0.00000 -1.00000 0.00000
vn 0.00000 -1.00000 0.00000
vn 0.00000 -1.00000 0.00000
vn 0.00000 1.00000 0.00000
vn 0.00000 1.00000 0.00000
vn 0.00000 1.00000 0.00000
vn 0.00000 -1.00000 0.00000
vn 0.00000 -1.00000 0.00000
vn 0.00000 -1.00000 0.00000
vn 0.00000 1.00000 0.00000
vn 0.00000 1.00000 0.00000
vn 0.00000 1.00000 0.00000
vn 0.00000 1.00000 0.00000
vn 0.00000 1.00000 0.00000
vn 0.00000 1.00000 0.00000
vn 0.00000 1.00000 0.00000
vn 0.00000 -1.00000 0.00000
vn 0.00000 -1.00000 0.00000
vn 0.00000 -1.00000 0.00000
vn 0.00000 -1.00000 0.00000
vn 0.00000 -1.00000 0.00000
vn 0.00000 -1.00000 0.00000
vn 0.00000 -1.00000 0.00000
vn 0.00000 1.00000 0.00000
vn 0.00000 1.00000 0.00000
vn 0.00000 1.00000 0.00000
vn 0.00000 1.00000 0.00000
vn 0.00000 1.00000 0.00000
vn 0.00000 1.00000 0.00000
vn 0.00000 1.00000 0.00000
vn 0.00000 -1.00000 0.00000
vn 0.00000 -1.00000 0.00000
vn 0.00000 -1.00000 0.00000
vn 0.00000 -1.00000 0.00000
vn 0.00000 -1.00000 0.00000
vn 0.00000 -1.00000 0.00000
vn 0.00000 -1.00000 0.00000
vn 0.00000 1.00000 0.00000
vn 0.00000 1.00000 0.00000
vn 0.00000 1.00000 0.00000
vn 0.00000 1.00000 0.00000
vn 0.00000 -1.00000 0.00000
vn 0.00000 -1.00000 0.00000
vn 0.00000 -1.00000 0.00000
vn 0.00000 -1.00000 0.00000
vn 0.00000 1.00000 0.00000
vn 0.00000 1.00000 0.00000
vn 0.00000 1.00000 0.00000
vn 0.00000 1.00000 0.00000
vn 0.00000 -1.00000 0.00000
vn 0.00000 -1.00000 0.00000
vn 0.00000 -1.00000 0.00000
vn 0.00000 -1.00000 0.00000
vn 0.00000 1.00000 0.00000
vn 0.00000 1.00000 0.00000
vn 0.00000 1.00000 0.00000
vn 0.00000 1.00000 0.00000
vn 0.00000 -1.00000 0.00000
vn 0.00000 -1.00000 0.00000
vn 0.00000 -1.00000 0.00000
vn 0.00000 -1.00000 0.00000
vn 0.00000 1.00000 0.00000
vn 0.00000 1.00000 0.00000
vn 0.00000 1.00000 0.00000
vn 0.00000 1.00000 0.00000
vn 0.00000 -1.00000 0.00000
vn 0.00000 -1.00000 0.00000
vn 0.00000 -1.00000 0.00000
vn 0.00000 -1.00000 0.00000
vn 0.00000 1.00000 0.00000
vn 0.00000 1.00000 0.00000
vn 0.00000 1.00000 0.00000
vn 0.00000 1.00000 0.00000
vn 0.00000 -1.00000 0.00000
vn 0.00000 -1.00000 0.00000
vn 0.00000 -1.00000 0.00000
vn 0.00000 -1.00000 0.00000
vn 0.00000 1.00000 0.00000
vn 0.00000 1.00000 0.00000
vn 0.00000 1.00000 0.00000
vn 0.00000 1.00000 0.00000
vn 0.00000 -1.00000 0.00000
vn 0.00000 -1.00000 0.00000
vn 0.00000 -1.00000 0.00000
vn 0.00000 -1.00000 0.00000
vn 0.00000 1.00000 0.00000
vn 0.00000 1.00000 0.00000
vn 0.00000 1.00000 0.00000
vn 0.00000 1.00000 0.00000
vn 0.00000 1.00000 0.00000
vn 0.00000 1.00000 0.00000
vn 0.00000 1.00000 0.00000
vn 0.00000 -1.00000 0.00000
vn 0.00000 -1.00000 0.00000
vn 0.00000 -1.00000 0.00000
vn 0.00000 -1.00000 0.00000
vn 0.00000 -1.00000 0.00000
vn 0.00000 -1.00000 0.00000
vn 0.00000 -1.00000 0.00000
vn 0.00000 1.00000 0.00000
vn 0.00000 1.00000 0.00000
vn 0.00000 1.00000 0.00000
vn 0.00000 1.00000 0.00000
vn 0.00000 1.00000 0.00000
vn 0.00000 1.00000 0.00000
vn 0.00000 1.00000 0.00000
vn 0.00000 -1.00000 0.00000
vn 0.00000 -1.00000 0.00000
vn 0.00000 -1.00000 0.00000
vn 0.00000 -1.00000 0.00000
vn 0.00000 -1.00000 0.00000
vn 0.00000 -1.00000 0.00000
vn 0.00000 -1.00000 0.00000
vn 0.00000 1.00000 0.00000
vn 0.00000 1.00000 0.00000
vn 0.00000 1.00000 0.00000
vn 0.00000 1.00000 0.00000
vn 0.00000 -1.00000 0.00000
vn 0.00000 -1.00000 0.00000
vn 0.00000 -1.00000 0.00000
vn 0.00000 -1.00000 0.00000
vn 0.00000 1.00000 0.00000
vn 0.00000 1.00000 0.00000
vn 0.00000 1.00000 0.00000
vn 0.00000 1.00000 0.00000
vn 0.00000 -1.00000 0.00000
vn 0.00000 -1.00000 0.00000
vn 0.00000 -1.00000 0.00000
vn 0.00000 -1.00000 0.00000
vn 0.00000 1.00000 0.00000
vn 0.00000 1.00000 0.00000
vn 0.00000 1.00000 0.00000
vn 0.00000 1.00000 0.00000
vn 0.00000 -1.00000 0.00000
vn 0.00000 -1.00000 0.00000
vn 0.00000 -1.00000 0.00000
vn 0.00000 -1.00000 0.00000
vn 0.00000 1.00000 0.00000
vn 0.00000 1.00000 0.00000
vn 0.00000 1.00000 0.00000
vn 0.00000 1.00000 0.00000
vn 0.00000 -1.00000 0.00000
vn 0.00000 -1.00000 0.00000
vn 0.00000 -1.00000 0.00000
vn 0.00000 -1.00000 0.00000
vn 0.00000 1.00000 0.00000
vn 0.00000 1.00000 0.00000
vn 0.00000 1.00000 0.00000
vn 0.00000 -1.00000 0.00000
vn 0.00000 -1.00000 0.00000
vn 0.00000 -1.00000 0.00000
vn 0.00000 1.00000 0.00000
vn 0.00000 1.00000 0.00000
vn 0.00000 1.00000 0.00000
vn 0.00000 -1.00000 0.00000
vn 0.00000 -1.00000 0.00000
vn 0.00000 -1.00000 0.00000
usemtl ceiling
f 10/10/10 11/11/11 12/12/12
f 34/34/34 35/35/35 36/36/36 37/37/37
f 38/38/38 39/39/39 40/40/40
f 50/50/50 51/51/51 52/52/52
f 98/98/98 99/99/99 100/100/100
f 125/125/125 126/126/126 127/127/127 128/128/128
f 129/129/129 130/130/130 131/131/131 132/132/132
f 145/145/145 146/146/146 147/147/147 148/148/148
f 161/161/161 162/162/162 163/163/163 164/164/164
f 177/177/177 178/178/178 179/179/179 180/180/180
f 202/202/202 203/203/203 204/204/204 205/205/205
f 206/206/206 207/207/207 208/208/208
f 218/218/218 219/219/219 220/220/220
f 314/314/314 315/315/315 316/316/316
f 338/338/338 339/339/339 340/340/340 341/341/341
f 342/342/342 343/343/343 344/344/344
f 357/357/357 358/358/358 359/359/359 360/360/360
f 373/373/373 374/374/374 375/375/375 376/376/376
f 389/389/389 390/390/390 391/391/391 392/392/392
f 414/414/414 415/415/415 416/416/416 417/417/417
f 418/418/418 419/419/419 420/420/420
f 433/433/433 434/434/434 435/435/435 436/436/436
f 449/449/449 450/450/450 451/451/451 452/452/452
f 462/462/462 463/463/463 464/464/464
usemtl floor
f 1/1/1 2/2/2 3/3/3
f 13/13/13 14/14/14 15/15/15 16/16/16
f 17/17/17 18/18/18 19/19/19
f 41/41/41 42/42/42 43/43/43
f 89/89/89 90/90/90 91/91/91
f 101/101/101 102/102/102 103/103/103 104/104/104
f 105/105/105 106/106/106 107/107/107 108/108/108
f 133/133/133 134/134/134 135/135/135 136/136/136
f 149/149/149 150/150/150 151/151/151 152/152/152
f 165/165/165 166/166/166 167/167/167 168/168/168
f 181/181/181 182/182/182 183/183/183 184/184/184
f 185/185/185 186/186/186 187/187/187
f 209/209/209 210/210/210 211/211/211
f 305/305/305 306/306/306 307/307/307
f 317/317/317 318/318/318 319/319/319 320/320/320
f 321/321/321 322/322/322 323/323/323
f 345/345/345 346/346/346 347/347/347 348/348/348
f 361/361/361 362/362/362 363/363/363 364/364/364
f 377/377/377 378/378/378 379/379/379 380/380/380
f 393/393/393 394/394/394 395/395/395 396/396/396
f 397/397/397 398/398/398 399/399/399
f 421/421/421 422/422/422 423/423/423 424/424/424
f 437/437/437 438/438/438 439/439/439 440/440/440
f 453/453/453 454/454/454 455/455/455
usemtl frame
f 57/57/57 58/58/58 59/59/59 60/60/60
f 61/61/61 62/62/62 63/63/63 64/64/64
f 69/69/69 70/70/70 71/71/71 72/72/72
f 73/73/73 74/74/74 75/75/75 76/76/76
f 81/81/81 82/82/82 83/83/83 84/84/84
f 85/85/85 86/86/86 87/87/87 88/88/88
f 229/229/229 230/230/230 231/231/231 232/232/232
f 233/233/233 234/234/234 235/235/235 236/236/236
f 245/245/245 246/246/246 247/247/247 248/248/248
f 249/249/249 250/250/250 251/251/251 252/252/252
f 261/261/261 262/262/262 263/263/263 264/264/264
f 265/265/265 266/266/266 267/267/267 268/268/268
f 277/277/277 278/278/278 279/279/279 280/280/280
f 281/281/281 282/282/282 283/283/283 284/284/284
f 293/293/293 294/294/294 295/295/295 296/296/296
f 297/297/297 298/298/298 299/299/299 300/300/300
usemtl inner
f 221/221/221 222/222/222 223/223/223 224/224/224
f 237/237/237 238/238/238 239/239/239 240/240/240
f 253/253/253 254/254/254 255/255/255 256/256/256
f 269/269/269 270/270/270 271/271/271 272/272/272
f 285/285/285 286/286/286 287/287/287 288/288/288
f 301/301/301 302/302/302 303/303/303 304/304/304
usemtl roof
f 7/7/7 8/8/8 9/9/9
f 27/27/27 28/28/28 29/29/29 30/30/30
f 31/31/31 32/32/32 33/33/33
f 47/47/47 48/48/48 49/49/49
f 95/95/95 96/96/96 97/97/97
f 117/117/117 118/118/118 119/119/119 120/120/120
f 121/121/121 122/122/122 123/123/123 124/124/124
f 141/141/141 142/142/142 143/143/143 144/144/144
f 157/157/157 158/158/158 159/159/159 160/160/160
f 173/173/173 174/174/174 175/175/175 176/176/176
f 195/195/195 196/196/196 197/197/197 198/198/198
f 199/199/199 200/200/200 201/201/201
f 215/215/215 216/216/216 217/217/217
f 311/311/311 312/312/312 313/313/313
f 331/331/331 332/332/332 333/333/333 334/334/334
f 335/335/335 336/336/336 337/337/337
f 353/353/353 354/354/354 355/355/355 356/356/356
f 369/369/369 370/370/370 371/371/371 372/372/372
f 385/385/385 386/386/386 387/387/387 388/388/388
f 407/407/407 408/408/408 409/409/409 410/410/410
f 411/411/411 412/412/412 413/413/413
f 429/429/429 430/430/430 431/431/431 432/432/432
f 445/445/445 446/446/446 447/447/447 448/448/448
f 459/459/459 460/460/460 461/461/461
usemtl skin
f 53/53/53 54/54/54 55/55/55 56/56/56
f 65/65/65 66/66/66 67/67/67 68/68/68
f 77/77/77 78/78/78 79/79/79 80/80/80
f 225/225/225 226/226/226 227/227/227 228/228/228
f 241/241/241 242/242/242 243/243/243 244/244/244
f 257/257/257 258/258/258 259/259/259 260/260/260
f 273/273/273 274/274/274 275/275/275 276/276/276
f 289/289/289 290/290/290 291/291/291 292/292/292
usemtl under
f 4/4/4 5/5/5 6/6/6
f 20/20/20 21/21/21 22/22/22 23/23/23
f 24/24/24 25/25/25 26/26/26
f 44/44/44 45/45/45 46/46/46
f 92/92/92 93/93/93 94/94/94
f 109/109/109 110/110/110 111/111/111 112/112/112
f 113/113/113 114/114/114 115/115/115 116/116/116
f 137/137/137 138/138/138 139/139/139 140/140/140
f 153/153/153 154/154/154 155/155/155 156/156/156
f 169/169/169 170/170/170 171/171/171 172/172/172
f 188/188/188 189/189/189 190/190/190 191/191/191
f 192/192/192 193/193/193 194/194/194
f 212/212/212 213/213/213 214/214/214
f 308/308/308 309/309/309 310/310/310
f 324/324/324 325/325/325 326/326/326 327/327/327
f 328/328/328 329/329/329 330/330/330
f 349/349/349 350/350/350 351/351/351 352/352/352
f 365/365/365 366/366/366 367/367/367 368/368/368
f 381/381/381 382/382/382 383/383/383 384/384/384
f 400/400/400 401/401/401 402/402/402 403/403/403
f 404/404/404 405/405/405 406/406/406
f 425/425/425 426/426/426 427/427/427 428/428/428
f 441/441/441 442/442/442 443/443/443 444/444/444
f 456/456/456 457/457/457 458/458/458
