# Generated by dev-env-utils/scripts/gen_transit_airside.py -- do not edit
mtllib jet_bridge_large.mtl
o airport_jet_bridge_large_turn_c2
v 0.07202 0.09375 1.00000
v 0.00000 0.09375 0.88794
v 0.00000 0.09375 1.00000
v 0.00000 0.00000 1.00000
v 0.00000 0.00000 0.88794
v 0.07202 0.00000 1.00000
v 0.07202 4.24547 1.00000
v 0.00000 4.24547 0.88794
v 0.00000 4.24547 1.00000
v 0.00000 4.09375 1.00000
v 0.00000 4.09375 0.88794
v 0.07202 4.09375 1.00000
v 0.26795 0.09375 1.00000
v 0.00000 0.09375 0.53590
v 0.00000 0.09375 0.88794
v 0.07202 0.09375 1.00000
v 0.07202 0.00000 1.00000
v 0.00000 0.00000 0.88794
v 0.00000 0.00000 0.53590
v 0.26795 0.00000 1.00000
v 0.26795 4.24547 1.00000
v 0.00000 4.24547 0.53590
v 0.00000 4.24547 0.88794
v 0.07202 4.24547 1.00000
v 0.07202 4.09375 1.00000
v 0.00000 4.09375 0.88794
v 0.00000 4.09375 0.53590
v 0.26795 4.09375 1.00000
v 0.45339 0.09375 1.00000
v 0.00000 0.09375 0.12054
v 0.00000 0.09375 0.53590
v 0.26795 0.09375 1.00000
v 0.26795 0.00000 1.00000
v 0.00000 0.00000 0.53590
v 0.00000 0.00000 0.12054
v 0.45339 0.00000 1.00000
v 0.45339 4.24547 1.00000
v 0.00000 4.24547 0.12054
v 0.00000 4.24547 0.53590
v 0.26795 4.24547 1.00000
v 0.26795 4.09375 1.00000
v 0.00000 4.09375 0.53590
v 0.00000 4.09375 0.12054
v 0.45339 4.09375 1.00000
v 0.17326 0.09375 0.00000
v 0.00000 0.09375 0.00000
v 0.00000 0.09375 0.12054
v 0.45339 0.09375 1.00000
v 0.62995 0.09375 1.00000
v 0.17326 0.09375 0.00000
v 0.45339 0.09375 1.00000
v 0.45339 0.00000 1.00000
v 0.00000 0.00000 0.12054
v 0.00000 0.00000 0.00000
v 0.17326 0.00000 0.00000
v 0.45339 0.00000 1.00000
v 0.17326 0.00000 0.00000
v 0.62995 0.00000 1.00000
v 0.17326 4.24547 0.00000
v 0.00000 4.24547 0.00000
v 0.00000 4.24547 0.12054
v 0.45339 4.24547 1.00000
v 0.62995 4.24547 1.00000
v 0.17326 4.24547 0.00000
v 0.45339 4.24547 1.00000
v 0.45339 4.09375 1.00000
v 0.00000 4.09375 0.12054
v 0.00000 4.09375 0.00000
v 0.17326 4.09375 0.00000
v 0.45339 4.09375 1.00000
v 0.17326 4.09375 0.00000
v 0.62995 4.09375 1.00000
v 0.75736 0.09375 1.00000
v 0.34315 0.09375 0.00000
v 0.17326 0.09375 0.00000
v 0.62995 0.09375 1.00000
v 0.62995 0.00000 1.00000
v 0.17326 0.00000 0.00000
v 0.34315 0.00000 0.00000
v 0.75736 0.00000 1.00000
v 0.75736 4.24547 1.00000
v 0.34315 4.24547 0.00000
v 0.17326 4.24547 0.00000
v 0.62995 4.24547 1.00000
v 0.62995 4.09375 1.00000
v 0.17326 4.09375 0.00000
v 0.34315 4.09375 0.00000
v 0.75736 4.09375 1.00000
v 0.79898 0.09375 1.00000
v 0.39864 0.09375 0.00000
v 0.34315 0.09375 0.00000
v 0.75736 0.09375 1.00000
v 0.75736 0.00000 1.00000
v 0.34315 0.00000 0.00000
v 0.39864 0.00000 0.00000
v 0.79898 0.00000 1.00000
v 0.79898 4.24547 1.00000
v 0.39864 4.24547 0.00000
v 0.34315 4.24547 0.00000
v 0.75736 4.24547 1.00000
v 0.75736 4.09375 1.00000
v 0.34315 4.09375 0.00000
v 0.39864 4.09375 0.00000
v 0.79898 4.09375 1.00000
v 0.96169 0.09375 1.00000
v 0.61559 0.09375 0.00000
v 0.39864 0.09375 0.00000
v 0.79898 0.09375 1.00000
v 0.79898 0.00000 1.00000
v 0.39864 0.00000 0.00000
v 0.61559 0.00000 0.00000
v 0.96169 0.00000 1.00000
v 0.96169 4.24547 1.00000
v 0.61559 4.24547 0.00000
v 0.39864 4.24547 0.00000
v 0.79898 4.24547 1.00000
v 0.79898 4.09375 1.00000
v 0.39864 4.09375 0.00000
v 0.61559 4.09375 0.00000
v 0.96169 4.09375 1.00000
v 1.00000 0.09375 0.59431
v 0.82549 0.09375 0.00000
v 0.61559 0.09375 0.00000
v 0.96169 0.09375 1.00000
v 1.00000 0.09375 1.00000
v 1.00000 0.09375 0.59431
v 0.96169 0.09375 1.00000
v 0.96169 0.00000 1.00000
v 0.61559 0.00000 0.00000
v 0.82549 0.00000 0.00000
v 1.00000 0.00000 0.59431
v 0.96169 0.00000 1.00000
v 1.00000 0.00000 0.59431
v 1.00000 0.00000 1.00000
v 1.00000 4.24547 0.59431
v 0.82549 4.24547 0.00000
v 0.61559 4.24547 0.00000
v 0.96169 4.24547 1.00000
v 1.00000 4.24547 1.00000
v 1.00000 4.24547 0.59431
v 0.96169 4.24547 1.00000
v 0.96169 4.09375 1.00000
v 0.61559 4.09375 0.00000
v 0.82549 4.09375 0.00000
v 1.00000 4.09375 0.59431
v 0.96169 4.09375 1.00000
v 1.00000 4.09375 0.59431
v 1.00000 4.09375 1.00000
v 1.00000 0.09375 0.00000
v 0.82549 0.09375 0.00000
v 1.00000 0.09375 0.59431
v 1.00000 0.00000 0.59431
v 0.82549 0.00000 0.00000
v 1.00000 0.00000 0.00000
v 1.00000 4.24547 0.00000
v 0.82549 4.24547 0.00000
v 1.00000 4.24547 0.59431
v 1.00000 4.09375 0.59431
v 0.82549 4.09375 0.00000
v 1.00000 4.09375 0.00000
v 0.17326 0.09375 0.00000
v 0.00000 0.09375 -0.37939
v 0.00000 0.09375 0.00000
v 0.00000 0.00000 0.00000
v 0.00000 0.00000 -0.37939
v 0.17326 0.00000 0.00000
v 0.17326 4.24547 0.00000
v 0.00000 4.24547 -0.37939
v 0.00000 4.24547 0.00000
v 0.00000 4.09375 0.00000
v 0.00000 4.09375 -0.37939
v 0.17326 4.09375 0.00000
v 0.02720 0.09375 -0.76276
v 0.00000 0.09375 -0.75092
v 0.00000 0.09375 -0.37939
v 0.17326 0.09375 0.00000
v 0.34315 0.09375 0.00000
v 0.02720 0.09375 -0.76276
v 0.17326 0.09375 0.00000
v 0.17326 0.00000 0.00000
v 0.00000 0.00000 -0.37939
v 0.00000 0.00000 -0.75092
v 0.02720 0.00000 -0.76276
v 0.17326 0.00000 0.00000
v 0.02720 0.00000 -0.76276
v 0.34315 0.00000 0.00000
v 0.02720 4.24547 -0.76276
v 0.00000 4.24547 -0.75092
v 0.00000 4.24547 -0.37939
v 0.17326 4.24547 0.00000
v 0.34315 4.24547 0.00000
v 0.02720 4.24547 -0.76276
v 0.17326 4.24547 0.00000
v 0.17326 4.09375 0.00000
v 0.00000 4.09375 -0.37939
v 0.00000 4.09375 -0.75092
v 0.02720 4.09375 -0.76276
v 0.17326 4.09375 0.00000
v 0.02720 4.09375 -0.76276
v 0.34315 4.09375 0.00000
v 0.39864 0.09375 0.00000
v 0.08402 0.09375 -0.78590
v 0.02720 0.09375 -0.76276
v 0.34315 0.09375 0.00000
v 0.34315 0.00000 0.00000
v 0.02720 0.00000 -0.76276
v 0.08402 0.00000 -0.78590
v 0.39864 0.00000 0.00000
v 0.39864 4.24547 0.00000
v 0.08402 4.24547 -0.78590
v 0.02720 4.24547 -0.76276
v 0.34315 4.24547 0.00000
v 0.34315 4.09375 0.00000
v 0.02720 4.09375 -0.76276
v 0.08402 4.09375 -0.78590
v 0.39864 4.09375 0.00000
v 0.61559 0.09375 0.00000
v 0.31391 0.09375 -0.87164
v 0.08402 0.09375 -0.78590
v 0.39864 0.09375 0.00000
v 0.39864 0.00000 0.00000
v 0.08402 0.00000 -0.78590
v 0.31391 0.00000 -0.87164
v 0.61559 0.00000 0.00000
v 0.61559 4.24547 0.00000
v 0.31391 4.24547 -0.87164
v 0.08402 4.24547 -0.78590
v 0.39864 4.24547 0.00000
v 0.39864 4.09375 0.00000
v 0.08402 4.09375 -0.78590
v 0.31391 4.09375 -0.87164
v 0.61559 4.09375 0.00000
v 0.82549 0.09375 0.00000
v 0.54762 0.09375 -0.94635
v 0.31391 0.09375 -0.87164
v 0.61559 0.09375 0.00000
v 0.61559 0.00000 0.00000
v 0.31391 0.00000 -0.87164
v 0.54762 0.00000 -0.94635
v 0.82549 0.00000 0.00000
v 0.82549 4.24547 0.00000
v 0.54762 4.24547 -0.94635
v 0.31391 4.24547 -0.87164
v 0.61559 4.24547 0.00000
v 0.61559 4.09375 0.00000
v 0.31391 4.09375 -0.87164
v 0.54762 4.09375 -0.94635
v 0.82549 4.09375 0.00000
v 0.78701 0.09375 -1.00000
v 0.74783 0.09375 -1.00000
v 0.54762 0.09375 -0.94635
v 0.82549 0.09375 0.00000
v 1.00000 0.09375 0.00000
v 1.00000 0.09375 -0.12206
v 0.78701 0.09375 -1.00000
v 0.82549 0.09375 0.00000
v 0.82549 0.00000 0.00000
v 0.54762 0.00000 -0.94635
v 0.74783 0.00000 -1.00000
v 0.78701 0.00000 -1.00000
v 0.82549 0.00000 0.00000
v 0.78701 0.00000 -1.00000
v 1.00000 0.00000 -0.12206
v 1.00000 0.00000 0.00000
v 0.78701 4.24547 -1.00000
v 0.74783 4.24547 -1.00000
v 0.54762 4.24547 -0.94635
v 0.82549 4.24547 0.00000
v 1.00000 4.24547 0.00000
v 1.00000 4.24547 -0.12206
v 0.78701 4.24547 -1.00000
v 0.82549 4.24547 0.00000
v 0.82549 4.09375 0.00000
v 0.54762 4.09375 -0.94635
v 0.74783 4.09375 -1.00000
v 0.78701 4.09375 -1.00000
v 0.82549 4.09375 0.00000
v 0.78701 4.09375 -1.00000
v 1.00000 4.09375 -0.12206
v 1.00000 4.09375 0.00000
v 1.00000 0.09375 -1.00000
v 0.78701 0.09375 -1.00000
v 1.00000 0.09375 -0.12206
v 1.00000 0.00000 -0.12206
v 0.78701 0.00000 -1.00000
v 1.00000 0.00000 -1.00000
v 1.00000 4.24547 -1.00000
v 0.78701 4.24547 -1.00000
v 1.00000 4.24547 -0.12206
v 1.00000 4.09375 -0.12206
v 0.78701 4.09375 -1.00000
v 1.00000 4.09375 -1.00000
v 0.00000 4.09375 -0.75092
v 0.02720 4.09375 -0.76276
v 0.02720 0.09375 -0.76276
v 0.00000 0.09375 -0.75092
v 0.00000 0.09375 -0.75092
v 0.02720 0.09375 -0.76276
v 0.02720 0.00000 -0.76276
v 0.00000 0.00000 -0.75092
v 0.00000 4.24547 -0.75092
v 0.02720 4.24547 -0.76276
v 0.02720 4.09375 -0.76276
v 0.00000 4.09375 -0.75092
v 0.00000 0.09375 -0.58171
v 0.08658 0.09375 -0.61940
v 0.08658 4.09375 -0.61940
v 0.00000 4.09375 -0.58171
v 0.08402 4.09375 -0.78590
v 0.08402 0.09375 -0.78590
v 0.02720 0.09375 -0.76276
v 0.02720 4.09375 -0.76276
v 0.08402 0.09375 -0.78590
v 0.08402 0.00000 -0.78590
v 0.02720 0.00000 -0.76276
v 0.02720 0.09375 -0.76276
v 0.08402 4.24547 -0.78590
v 0.08402 4.09375 -0.78590
v 0.02720 4.09375 -0.76276
v 0.02720 4.24547 -0.76276
v 0.08658 4.09375 -0.61940
v 0.08658 0.09375 -0.61940
v 0.14169 0.09375 -0.64184
v 0.14169 4.09375 -0.64184
v 0.31391 4.09375 -0.87164
v 0.31391 0.09375 -0.87164
v 0.08402 0.09375 -0.78590
v 0.08402 4.09375 -0.78590
v 0.31391 0.09375 -0.87164
v 0.31391 0.00000 -0.87164
v 0.08402 0.00000 -0.78590
v 0.08402 0.09375 -0.78590
v 0.31391 4.24547 -0.87164
v 0.31391 4.09375 -0.87164
v 0.08402 4.09375 -0.78590
v 0.08402 4.24547 -0.78590
v 0.14169 4.09375 -0.64184
v 0.14169 0.09375 -0.64184
v 0.36466 0.09375 -0.72500
v 0.36466 4.09375 -0.72500
v 0.54762 4.09375 -0.94635
v 0.54762 0.09375 -0.94635
v 0.31391 0.09375 -0.87164
v 0.31391 4.09375 -0.87164
v 0.54762 0.09375 -0.94635
v 0.54762 0.00000 -0.94635
v 0.31391 0.00000 -0.87164
v 0.31391 0.09375 -0.87164
v 0.54762 4.24547 -0.94635
v 0.54762 4.09375 -0.94635
v 0.31391 4.09375 -0.87164
v 0.31391 4.24547 -0.87164
v 0.36466 4.09375 -0.72500
v 0.36466 0.09375 -0.72500
v 0.59134 0.09375 -0.79746
v 0.59134 4.09375 -0.79746
v 0.74783 4.09375 -1.00000
v 0.74783 0.09375 -1.00000
v 0.54762 0.09375 -0.94635
v 0.54762 4.09375 -0.94635
v 0.74783 0.09375 -1.00000
v 0.74783 0.00000 -1.00000
v 0.54762 0.00000 -0.94635
v 0.54762 0.09375 -0.94635
v 0.74783 4.24547 -1.00000
v 0.74783 4.09375 -1.00000
v 0.54762 4.09375 -0.94635
v 0.54762 4.24547 -0.94635
v 0.59134 4.09375 -0.79746
v 0.59134 0.09375 -0.79746
v 0.82121 0.09375 -0.85906
v 0.82121 4.09375 -0.85906
v 0.82121 4.09375 -0.85906
v 0.82121 0.09375 -0.85906
v 1.00000 0.09375 -0.89851
v 1.00000 4.09375 -0.89851
v 0.78701 0.09375 -1.00000
v 0.78462 0.09375 -1.00986
v 0.74783 0.09375 -1.00000
v 0.74783 0.00000 -1.00000
v 0.78462 0.00000 -1.00986
v 0.78701 0.00000 -1.00000
v 0.78701 4.24547 -1.00000
v 0.78462 4.24547 -1.00986
v 0.74783 4.24547 -1.00000
v 0.74783 4.09375 -1.00000
v 0.78462 4.09375 -1.00986
v 0.78701 4.09375 -1.00000
v 1.00000 0.09375 -1.02734
v 0.99428 0.09375 -1.05612
v 0.78462 0.09375 -1.00986
v 0.78701 0.09375 -1.00000
v 1.00000 0.09375 -1.00000
v 1.00000 0.09375 -1.02734
v 0.78701 0.09375 -1.00000
v 0.78701 0.00000 -1.00000
v 0.78462 0.00000 -1.00986
v 0.99428 0.00000 -1.05612
v 1.00000 0.00000 -1.02734
v 0.78701 0.00000 -1.00000
v 1.00000 0.00000 -1.02734
v 1.00000 0.00000 -1.00000
v 1.00000 4.24547 -1.02734
v 0.99428 4.24547 -1.05612
v 0.78462 4.24547 -1.00986
v 0.78701 4.24547 -1.00000
v 1.00000 4.24547 -1.00000
v 1.00000 4.24547 -1.02734
v 0.78701 4.24547 -1.00000
v 0.78701 4.09375 -1.00000
v 0.78462 4.09375 -1.00986
v 0.99428 4.09375 -1.05612
v 1.00000 4.09375 -1.02734
v 0.78701 4.09375 -1.00000
v 1.00000 4.09375 -1.02734
v 1.00000 4.09375 -1.00000
v 1.00000 0.09375 -1.05724
v 0.99428 0.09375 -1.05612
v 1.00000 0.09375 -1.02734
v 1.00000 0.00000 -1.02734
v 0.99428 0.00000 -1.05612
v 1.00000 0.00000 -1.05724
v 1.00000 4.24547 -1.05724
v 0.99428 4.24547 -1.05612
v 1.00000 4.24547 -1.02734
v 1.00000 4.09375 -1.02734
v 0.99428 4.09375 -1.05612
v 1.00000 4.09375 -1.05724
v 0.74783 4.09375 -1.00000
v 0.78462 4.09375 -1.00986
v 0.78462 0.09375 -1.00986
v 0.74783 0.09375 -1.00000
v 0.74783 0.09375 -1.00000
v 0.78462 0.09375 -1.00986
v 0.78462 0.00000 -1.00986
v 0.74783 0.00000 -1.00000
v 0.74783 4.24547 -1.00000
v 0.78462 4.24547 -1.00986
v 0.78462 4.09375 -1.00986
v 0.74783 4.09375 -1.00000
v 0.99428 4.09375 -1.05612
v 0.99428 0.09375 -1.05612
v 0.78462 0.09375 -1.00986
v 0.78462 4.09375 -1.00986
v 0.99428 0.09375 -1.05612
v 0.99428 0.00000 -1.05612
v 0.78462 0.00000 -1.00986
v 0.78462 0.09375 -1.00986
v 0.99428 4.24547 -1.05612
v 0.99428 4.09375 -1.05612
v 0.78462 4.09375 -1.00986
v 0.78462 4.24547 -1.00986
v 1.00000 4.09375 -1.05724
v 1.00000 0.09375 -1.05724
v 0.99428 0.09375 -1.05612
v 0.99428 4.09375 -1.05612
v 1.00000 0.09375 -1.05724
v 1.00000 0.00000 -1.05724
v 0.99428 0.00000 -1.05612
v 0.99428 0.09375 -1.05612
v 1.00000 4.24547 -1.05724
v 1.00000 4.09375 -1.05724
v 0.99428 4.09375 -1.05612
v 0.99428 4.24547 -1.05612
vt 0.51800 0.50000
vt 0.50000 0.47198
vt 0.50000 0.50000
vt 0.50000 0.50000
vt 0.50000 0.47198
vt 0.51800 0.50000
vt 0.51800 0.50000
vt 0.50000 0.47198
vt 0.50000 0.50000
vt 0.26594 0.35994
vt 0.28010 0.37465
vt 0.25998 0.37465
vt 0.56699 0.50000
vt 0.50000 0.38397
vt 0.50000 0.47198
vt 0.51800 0.50000
vt 0.51800 0.50000
vt 0.50000 0.47198
vt 0.50000 0.38397
vt 0.56699 0.50000
vt 0.56699 0.50000
vt 0.50000 0.38397
vt 0.50000 0.47198
vt 0.51800 0.50000
vt 0.25998 0.37465
vt 0.28010 0.37465
vt 0.32552 0.41630
vt 0.24458 0.41630
vt 0.61335 0.50000
vt 0.50000 0.28014
vt 0.50000 0.38397
vt 0.56699 0.50000
vt 0.56699 0.50000
vt 0.50000 0.38397
vt 0.50000 0.28014
vt 0.61335 0.50000
vt 0.61335 0.50000
vt 0.50000 0.28014
vt 0.50000 0.38397
vt 0.56699 0.50000
vt 0.24458 0.41630
vt 0.32552 0.41630
vt 0.38060 0.45795
vt 0.23115 0.45795
vt 0.54332 0.25000
vt 0.50000 0.25000
vt 0.50000 0.28014
vt 0.61335 0.50000
vt 0.65749 0.50000
vt 0.54332 0.25000
vt 0.61335 0.50000
vt 0.61335 0.50000
vt 0.50000 0.28014
vt 0.50000 0.25000
vt 0.54332 0.25000
vt 0.61335 0.50000
vt 0.54332 0.25000
vt 0.65749 0.50000
vt 0.54332 0.25000
vt 0.50000 0.25000
vt 0.50000 0.28014
vt 0.61335 0.50000
vt 0.65749 0.50000
vt 0.54332 0.25000
vt 0.61335 0.50000
vt 0.23115 0.45795
vt 0.38060 0.45795
vt 0.39683 0.46876
vt 0.38554 0.49960
vt 0.23115 0.45795
vt 0.38554 0.49960
vt 0.21950 0.49960
vt 0.68934 0.50000
vt 0.58579 0.25000
vt 0.54332 0.25000
vt 0.65749 0.50000
vt 0.65749 0.50000
vt 0.54332 0.25000
vt 0.58579 0.25000
vt 0.68934 0.50000
vt 0.68934 0.50000
vt 0.58579 0.25000
vt 0.54332 0.25000
vt 0.65749 0.50000
vt 0.21950 0.00000
vt 0.38554 0.00000
vt 0.37530 0.03084
vt 0.21181 0.03084
vt 0.69975 0.50000
vt 0.59966 0.25000
vt 0.58579 0.25000
vt 0.68934 0.50000
vt 0.68934 0.50000
vt 0.58579 0.25000
vt 0.59966 0.25000
vt 0.69975 0.50000
vt 0.69975 0.50000
vt 0.59966 0.25000
vt 0.58579 0.25000
vt 0.68934 0.50000
vt 0.21181 0.03084
vt 0.37530 0.03084
vt 0.37214 0.04125
vt 0.20944 0.04125
vt 0.74042 0.50000
vt 0.65390 0.25000
vt 0.59966 0.25000
vt 0.69975 0.50000
vt 0.69975 0.50000
vt 0.59966 0.25000
vt 0.65390 0.25000
vt 0.74042 0.50000
vt 0.74042 0.50000
vt 0.65390 0.25000
vt 0.59966 0.25000
vt 0.69975 0.50000
vt 0.20944 0.04125
vt 0.37214 0.04125
vt 0.36068 0.08290
vt 0.20085 0.08290
vt 0.75000 0.39858
vt 0.70637 0.25000
vt 0.65390 0.25000
vt 0.74042 0.50000
vt 0.75000 0.50000
vt 0.75000 0.39858
vt 0.74042 0.50000
vt 0.74042 0.50000
vt 0.65390 0.25000
vt 0.70637 0.25000
vt 0.75000 0.39858
vt 0.74042 0.50000
vt 0.75000 0.39858
vt 0.75000 0.50000
vt 0.75000 0.39858
vt 0.70637 0.25000
vt 0.65390 0.25000
vt 0.74042 0.50000
vt 0.75000 0.50000
vt 0.75000 0.39858
vt 0.74042 0.50000
vt 0.20085 0.08290
vt 0.36068 0.08290
vt 0.35103 0.12455
vt 0.25747 0.12455
vt 0.20085 0.08290
vt 0.25747 0.12455
vt 0.19899 0.09292
vt 0.75000 0.25000
vt 0.70637 0.25000
vt 0.75000 0.39858
vt 0.75000 0.39858
vt 0.70637 0.25000
vt 0.75000 0.25000
vt 0.75000 0.25000
vt 0.70637 0.25000
vt 0.75000 0.39858
vt 0.25747 0.12455
vt 0.35103 0.12455
vt 0.34411 0.16009
vt 0.54332 0.25000
vt 0.50000 0.15515
vt 0.50000 0.25000
vt 0.50000 0.25000
vt 0.50000 0.15515
vt 0.54332 0.25000
vt 0.54332 0.25000
vt 0.50000 0.15515
vt 0.50000 0.25000
vt 0.39683 0.46876
vt 0.44854 0.49960
vt 0.38554 0.49960
vt 0.50680 0.05931
vt 0.50000 0.06227
vt 0.50000 0.15515
vt 0.54332 0.25000
vt 0.58579 0.25000
vt 0.50680 0.05931
vt 0.54332 0.25000
vt 0.54332 0.25000
vt 0.50000 0.15515
vt 0.50000 0.06227
vt 0.50680 0.05931
vt 0.54332 0.25000
vt 0.50680 0.05931
vt 0.58579 0.25000
vt 0.50680 0.05931
vt 0.50000 0.06227
vt 0.50000 0.15515
vt 0.54332 0.25000
vt 0.58579 0.25000
vt 0.50680 0.05931
vt 0.54332 0.25000
vt 0.38554 0.00000
vt 0.44854 0.00000
vt 0.49993 0.02580
vt 0.50000 0.03084
vt 0.38554 0.00000
vt 0.50000 0.03084
vt 0.37530 0.03084
vt 0.59966 0.25000
vt 0.52100 0.05353
vt 0.50680 0.05931
vt 0.58579 0.25000
vt 0.58579 0.25000
vt 0.50680 0.05931
vt 0.52100 0.05353
vt 0.59966 0.25000
vt 0.59966 0.25000
vt 0.52100 0.05353
vt 0.50680 0.05931
vt 0.58579 0.25000
vt 0.37530 0.03084
vt 0.50000 0.03084
vt 0.50000 0.04125
vt 0.37214 0.04125
vt 0.65390 0.25000
vt 0.57848 0.03209
vt 0.52100 0.05353
vt 0.59966 0.25000
vt 0.59966 0.25000
vt 0.52100 0.05353
vt 0.57848 0.03209
vt 0.65390 0.25000
vt 0.65390 0.25000
vt 0.57848 0.03209
vt 0.52100 0.05353
vt 0.59966 0.25000
vt 0.37214 0.04125
vt 0.50000 0.04125
vt 0.50000 0.08290
vt 0.36068 0.08290
vt 0.70637 0.25000
vt 0.63690 0.01341
vt 0.57848 0.03209
vt 0.65390 0.25000
vt 0.65390 0.25000
vt 0.57848 0.03209
vt 0.63690 0.01341
vt 0.70637 0.25000
vt 0.70637 0.25000
vt 0.63690 0.01341
vt 0.57848 0.03209
vt 0.65390 0.25000
vt 0.36068 0.08290
vt 0.50000 0.08290
vt 0.50000 0.12455
vt 0.35103 0.12455
vt 0.69675 0.00000
vt 0.68696 0.00000
vt 0.63690 0.01341
vt 0.70637 0.25000
vt 0.75000 0.25000
vt 0.75000 0.21949
vt 0.69675 0.00000
vt 0.70637 0.25000
vt 0.70637 0.25000
vt 0.63690 0.01341
vt 0.68696 0.00000
vt 0.69675 0.00000
vt 0.70637 0.25000
vt 0.69675 0.00000
vt 0.75000 0.21949
vt 0.75000 0.25000
vt 0.69675 0.00000
vt 0.68696 0.00000
vt 0.63690 0.01341
vt 0.70637 0.25000
vt 0.75000 0.25000
vt 0.75000 0.21949
vt 0.69675 0.00000
vt 0.70637 0.25000
vt 0.35103 0.12455
vt 0.50000 0.12455
vt 0.49988 0.15973
vt 0.49847 0.16620
vt 0.35103 0.12455
vt 0.49847 0.16620
vt 0.36202 0.16620
vt 0.34411 0.16009
vt 0.75000 0.00000
vt 0.69675 0.00000
vt 0.75000 0.21949
vt 0.75000 0.21949
vt 0.69675 0.00000
vt 0.75000 0.00000
vt 0.75000 0.00000
vt 0.69675 0.00000
vt 0.75000 0.21949
vt 0.36202 0.16620
vt 0.49847 0.16620
vt 0.49152 0.20173
vt 0.48535 0.00000
vt 0.50000 0.00000
vt 0.50000 0.90625
vt 0.48535 0.90625
vt 0.97069 0.00000
vt 1.00000 0.00000
vt 1.00000 0.09375
vt 0.97069 0.09375
vt 0.97069 0.00000
vt 1.00000 0.00000
vt 1.00000 0.09375
vt 0.97069 0.09375
vt 0.45190 0.90625
vt 0.50000 0.90625
vt 0.50000 0.00000
vt 0.45190 0.00000
vt 0.03031 0.00000
vt 0.03031 0.90625
vt 0.00000 0.90625
vt 0.00000 0.00000
vt 0.06061 0.00000
vt 0.06061 0.09375
vt 0.00000 0.09375
vt 0.00000 0.00000
vt 0.06061 0.00000
vt 0.06061 0.09375
vt 0.00000 0.09375
vt 0.00000 0.00000
vt 0.00000 0.00000
vt 0.00000 0.90625
vt 0.03031 0.90625
vt 0.03031 0.00000
vt 0.15152 0.00000
vt 0.15152 0.90625
vt 0.03031 0.90625
vt 0.03031 0.00000
vt 0.30303 0.00000
vt 0.30303 0.09375
vt 0.06061 0.09375
vt 0.06061 0.00000
vt 0.30303 0.00000
vt 0.30303 0.09375
vt 0.06061 0.09375
vt 0.06061 0.00000
vt 0.03031 0.00000
vt 0.03031 0.90625
vt 0.15152 0.90625
vt 0.15152 0.00000
vt 0.27273 0.00000
vt 0.27273 0.90625
vt 0.15152 0.90625
vt 0.15152 0.00000
vt 0.54545 0.00000
vt 0.54545 0.09375
vt 0.30303 0.09375
vt 0.30303 0.00000
vt 0.54545 0.00000
vt 0.54545 0.09375
vt 0.30303 0.09375
vt 0.30303 0.00000
vt 0.15152 0.00000
vt 0.15152 0.90625
vt 0.27273 0.90625
vt 0.27273 0.00000
vt 0.37512 0.00000
vt 0.37512 0.90625
vt 0.27273 0.90625
vt 0.27273 0.00000
vt 0.75024 0.00000
vt 0.75024 0.09375
vt 0.54545 0.09375
vt 0.54545 0.00000
vt 0.75024 0.00000
vt 0.75024 0.09375
vt 0.54545 0.09375
vt 0.54545 0.00000
vt 0.27273 0.00000
vt 0.27273 0.90625
vt 0.39394 0.90625
vt 0.39394 0.00000
vt 0.39394 0.00000
vt 0.39394 0.90625
vt 0.48720 0.90625
vt 0.48720 0.00000
vt 0.69675 1.00000
vt 0.69616 0.99754
vt 0.68696 1.00000
vt 0.68696 1.00000
vt 0.69616 0.99754
vt 0.69675 1.00000
vt 0.69675 1.00000
vt 0.69616 0.99754
vt 0.68696 1.00000
vt 0.49988 0.15973
vt 0.50000 0.16620
vt 0.49847 0.16620
vt 0.75000 0.99317
vt 0.74857 0.98597
vt 0.69616 0.99754
vt 0.69675 1.00000
vt 0.75000 1.00000
vt 0.75000 0.99317
vt 0.69675 1.00000
vt 0.69675 1.00000
vt 0.69616 0.99754
vt 0.74857 0.98597
vt 0.75000 0.99317
vt 0.69675 1.00000
vt 0.75000 0.99317
vt 0.75000 1.00000
vt 0.75000 0.99317
vt 0.74857 0.98597
vt 0.69616 0.99754
vt 0.69675 1.00000
vt 0.75000 1.00000
vt 0.75000 0.99317
vt 0.69675 1.00000
vt 0.49847 0.16620
vt 0.50000 0.16620
vt 0.50000 0.20264
vt 0.49557 0.20264
vt 0.49847 0.16620
vt 0.49557 0.20264
vt 0.49152 0.20173
vt 0.75000 0.98569
vt 0.74857 0.98597
vt 0.75000 0.99317
vt 0.75000 0.99317
vt 0.74857 0.98597
vt 0.75000 0.98569
vt 0.75000 0.98569
vt 0.74857 0.98597
vt 0.75000 0.99317
vt 0.49557 0.20264
vt 0.50000 0.20264
vt 0.50000 0.20363
vt 0.37512 0.00000
vt 0.39394 0.00000
vt 0.39394 0.90625
vt 0.37512 0.90625
vt 0.75024 0.00000
vt 0.78788 0.00000
vt 0.78788 0.09375
vt 0.75024 0.09375
vt 0.75024 0.00000
vt 0.78788 0.00000
vt 0.78788 0.09375
vt 0.75024 0.09375
vt 0.50000 0.00000
vt 0.50000 0.90625
vt 0.39394 0.90625
vt 0.39394 0.00000
vt 1.00000 0.00000
vt 1.00000 0.09375
vt 0.78788 0.09375
vt 0.78788 0.00000
vt 1.00000 0.00000
vt 1.00000 0.09375
vt 0.78788 0.09375
vt 0.78788 0.00000
vt 0.00288 0.00000
vt 0.00288 0.90625
vt 0.00000 0.90625
vt 0.00000 0.00000
vt 0.00576 0.00000
vt 0.00576 0.09375
vt 0.00000 0.09375
vt 0.00000 0.00000
vt 0.00576 0.00000
vt 0.00576 0.09375
vt 0.00000 0.09375
vt 0.00000 0.00000
vn 0.00000 1.00000 0.00000
vn 0.00000 1.00000 0.00000
vn 0.00000 1.00000 0.00000
vn 0.00000 -1.00000 0.00000
vn 0.00000 -1.00000 0.00000
vn 0.00000 -1.00000 0.00000
vn 0.00000 1.00000 0.00000
vn 0.00000 1.00000 0.00000
vn 0.00000 1.00000 0.00000
vn 0.00000 -1.00000 0.00000
vn 0.00000 -1.00000 0.00000
vn 0.00000 -1.00000 0.00000
vn 0.00000 1.00000 0.00000
vn 0.00000 1.00000 0.00000
vn 0.00000 1.00000 0.00000
vn 0.00000 1.00000 0.00000
vn 0.00000 -1.00000 0.00000
vn 0.00000 -1.00000 0.00000
vn 0.00000 -1.00000 0.00000
vn 0.00000 -1.00000 0.00000
vn 0.00000 1.00000 0.00000
vn 0.00000 1.00000 0.00000
vn 0.00000 1.00000 0.00000
vn 0.00000 1.00000 0.00000
vn 0.00000 -1.00000 0.00000
vn 0.00000 -1.00000 0.00000
vn 0.00000 -1.00000 0.00000
vn 0.00000 -1.00000 0.00000
vn 0.00000 1.00000 0.00000
vn 0.00000 1.00000 0.00000
vn 0.00000 1.00000 0.00000
vn 0.00000 1.00000 0.00000
vn 0.00000 -1.00000 0.00000
vn 0.00000 -1.00000 0.00000
vn 0.00000 -1.00000 0.00000
vn 0.00000 -1.00000 0.00000
vn 0.00000 1.00000 0.00000
vn 0.00000 1.00000 0.00000
vn 0.00000 1.00000 0.00000
vn 0.00000 1.00000 0.00000
vn 0.00000 -1.00000 0.00000
vn 0.00000 -1.00000 0.00000
vn 0.00000 -1.00000 0.00000
vn 0.00000 -1.00000 0.00000
vn 0.00000 1.00000 0.00000
vn 0.00000 1.00000 0.00000
vn 0.00000 1.00000 0.00000
vn 0.00000 1.00000 0.00000
vn 0.00000 1.00000 0.00000
vn 0.00000 1.00000 0.00000
vn 0.00000 1.00000 0.00000
vn 0.00000 -1.00000 0.00000
vn 0.00000 -1.00000 0.00000
vn 0.00000 -1.00000 0.00000
vn 0.00000 -1.00000 0.00000
vn 0.00000 -1.00000 0.00000
vn 0.00000 -1.00000 0.00000
vn 0.00000 -1.00000 0.00000
vn 0.00000 1.00000 0.00000
vn 0.00000 1.00000 0.00000
vn 0.00000 1.00000 0.00000
vn 0.00000 1.00000 0.00000
vn 0.00000 1.00000 0.00000
vn 0.00000 1.00000 0.00000
vn 0.00000 1.00000 0.00000
vn 0.00000 -1.00000 0.00000
vn 0.00000 -1.00000 0.00000
vn 0.00000 -1.00000 0.00000
vn 0.00000 -1.00000 0.00000
vn 0.00000 -1.00000 0.00000
vn 0.00000 -1.00000 0.00000
vn 0.00000 -1.00000 0.00000
vn 0.00000 1.00000 0.00000
vn 0.00000 1.00000 0.00000
vn 0.00000 1.00000 0.00000
vn 0.00000 1.00000 0.00000
vn 0.00000 -1.00000 0.00000
vn 0.00000 -1.00000 0.00000
vn 0.00000 -1.00000 0.00000
vn 0.00000 -1.00000 0.00000
vn 0.00000 1.00000 0.00000
vn 0.00000 1.00000 0.00000
vn 0.00000 1.00000 0.00000
vn 0.00000 1.00000 0.00000
vn 0.00000 -1.00000 0.00000
vn 0.00000 -1.00000 0.00000
vn 0.00000 -1.00000 0.00000
vn 0.00000 -1.00000 0.00000
vn 0.00000 1.00000 0.00000
vn 0.00000 1.00000 0.00000
vn 0.00000 1.00000 0.00000
vn 0.00000 1.00000 0.00000
vn 0.00000 -1.00000 0.00000
vn 0.00000 -1.00000 0.00000
vn 0.00000 -1.00000 0.00000
vn 0.00000 -1.00000 0.00000
vn 0.00000 1.00000 0.00000
vn 0.00000 1.00000 0.00000
vn 0.00000 1.00000 0.00000
vn 0.00000 1.00000 0.00000
vn 0.00000 -1.00000 0.00000
vn 0.00000 -1.00000 0.00000
vn 0.00000 -1.00000 0.00000
vn 0.00000 -1.00000 0.00000
vn 0.00000 1.00000 0.00000
vn 0.00000 1.00000 0.00000
vn 0.00000 1.00000 0.00000
vn 0.00000 1.00000 0.00000
vn 0.00000 -1.00000 0.00000
vn 0.00000 -1.00000 0.00000
vn 0.00000 -1.00000 0.00000
vn 0.00000 -1.00000 0.00000
vn 0.00000 1.00000 0.00000
vn 0.00000 1.00000 0.00000
vn 0.00000 1.00000 0.00000
vn 0.00000 1.00000 0.00000
vn 0.00000 -1.00000 0.00000
vn 0.00000 -1.00000 0.00000
vn 0.00000 -1.00000 0.00000
vn 0.00000 -1.00000 0.00000
vn 0.00000 1.00000 0.00000
vn 0.00000 1.00000 0.00000
vn 0.00000 1.00000 0.00000
vn 0.00000 1.00000 0.00000
vn 0.00000 1.00000 0.00000
vn 0.00000 1.00000 0.00000
vn 0.00000 1.00000 0.00000
vn 0.00000 -1.00000 0.00000
vn 0.00000 -1.00000 0.00000
vn 0.00000 -1.00000 0.00000
vn 0.00000 -1.00000 0.00000
vn 0.00000 -1.00000 0.00000
vn 0.00000 -1.00000 0.00000
vn 0.00000 -1.00000 0.00000
vn 0.00000 1.00000 0.00000
vn 0.00000 1.00000 0.00000
vn 0.00000 1.00000 0.00000
vn 0.00000 1.00000 0.00000
vn 0.00000 1.00000 0.00000
vn 0.00000 1.00000 0.00000
vn 0.00000 1.00000 0.00000
vn 0.00000 -1.00000 0.00000
vn 0.00000 -1.00000 0.00000
vn 0.00000 -1.00000 0.00000
vn 0.00000 -1.00000 0.00000
vn 0.00000 -1.00000 0.00000
vn 0.00000 -1.00000 0.00000
vn 0.00000 -1.00000 0.00000
vn 0.00000 1.00000 0.00000
vn 0.00000 1.00000 0.00000
vn 0.00000 1.00000 0.00000
vn 0.00000 -1.00000 0.00000
vn 0.00000 -1.00000 0.00000
vn 0.00000 -1.00000 0.00000
vn 0.00000 1.00000 0.00000
vn 0.00000 1.00000 0.00000
vn 0.00000 1.00000 0.00000
vn 0.00000 -1.00000 0.00000
vn 0.00000 -1.00000 0.00000
vn 0.00000 -1.00000 0.00000
vn 0.00000 1.00000 0.00000
vn 0.00000 1.00000 0.00000
vn 0.00000 1.00000 0.00000
vn 0.00000 -1.00000 0.00000
vn 0.00000 -1.00000 0.00000
vn 0.00000 -1.00000 0.00000
vn 0.00000 1.00000 0.00000
vn 0.00000 1.00000 0.00000
vn 0.00000 1.00000 0.00000
vn 0.00000 -1.00000 0.00000
vn 0.00000 -1.00000 0.00000
vn 0.00000 -1.00000 0.00000
vn 0.00000 1.00000 0.00000
vn 0.00000 1.00000 0.00000
vn 0.00000 1.00000 0.00000
vn 0.00000 1.00000 0.00000
vn 0.00000 1.00000 0.00000
vn 0.00000 1.00000 0.00000
vn 0.00000 1.00000 0.00000
vn 0.00000 -1.00000 0.00000
vn 0.00000 -1.00000 0.00000
vn 0.00000 -1.00000 0.00000
vn 0.00000 -1.00000 0.00000
vn 0.00000 -1.00000 0.00000
vn 0.00000 -1.00000 0.00000
vn 0.00000 -1.00000 0.00000
vn 0.00000 1.00000 0.00000
vn 0.00000 1.00000 0.00000
vn 0.00000 1.00000 0.00000
vn 0.00000 1.00000 0.00000
vn 0.00000 1.00000 0.00000
vn 0.00000 1.00000 0.00000
vn 0.00000 1.00000 0.00000
vn 0.00000 -1.00000 0.00000
vn 0.00000 -1.00000 0.00000
vn 0.00000 -1.00000 0.00000
vn 0.00000 -1.00000 0.00000
vn 0.00000 -1.00000 0.00000
vn 0.00000 -1.00000 0.00000
vn 0.00000 -1.00000 0.00000
vn 0.00000 1.00000 0.00000
vn 0.00000 1.00000 0.00000
vn 0.00000 1.00000 0.00000
vn 0.00000 1.00000 0.00000
vn 0.00000 -1.00000 0.00000
vn 0.00000 -1.00000 0.00000
vn 0.00000 -1.00000 0.00000
vn 0.00000 -1.00000 0.00000
vn 0.00000 1.00000 0.00000
vn 0.00000 1.00000 0.00000
vn 0.00000 1.00000 0.00000
vn 0.00000 1.00000 0.00000
vn 0.00000 -1.00000 0.00000
vn 0.00000 -1.00000 0.00000
vn 0.00000 -1.00000 0.00000
vn 0.00000 -1.00000 0.00000
vn 0.00000 1.00000 0.00000
vn 0.00000 1.00000 0.00000
vn 0.00000 1.00000 0.00000
vn 0.00000 1.00000 0.00000
vn 0.00000 -1.00000 0.00000
vn 0.00000 -1.00000 0.00000
vn 0.00000 -1.00000 0.00000
vn 0.00000 -1.00000 0.00000
vn 0.00000 1.00000 0.00000
vn 0.00000 1.00000 0.00000
vn 0.00000 1.00000 0.00000
vn 0.00000 1.00000 0.00000
vn 0.00000 -1.00000 0.00000
vn 0.00000 -1.00000 0.00000
vn 0.00000 -1.00000 0.00000
vn 0.00000 -1.00000 0.00000
vn 0.00000 1.00000 0.00000
vn 0.00000 1.00000 0.00000
vn 0.00000 1.00000 0.00000
vn 0.00000 1.00000 0.00000
vn 0.00000 -1.00000 0.00000
vn 0.00000 -1.00000 0.00000
vn 0.00000 -1.00000 0.00000
vn 0.00000 -1.00000 0.00000
vn 0.00000 1.00000 0.00000
vn 0.00000 1.00000 0.00000
vn 0.00000 1.00000 0.00000
vn 0.00000 1.00000 0.00000
vn 0.00000 -1.00000 0.00000
vn 0.00000 -1.00000 0.00000
vn 0.00000 -1.00000 0.00000
vn 0.00000 -1.00000 0.00000
vn 0.00000 1.00000 0.00000
vn 0.00000 1.00000 0.00000
vn 0.00000 1.00000 0.00000
vn 0.00000 1.00000 0.00000
vn 0.00000 1.00000 0.00000
vn 0.00000 1.00000 0.00000
vn 0.00000 1.00000 0.00000
vn 0.00000 1.00000 0.00000
vn 0.00000 -1.00000 0.00000
vn 0.00000 -1.00000 0.00000
vn 0.00000 -1.00000 0.00000
vn 0.00000 -1.00000 0.00000
vn 0.00000 -1.00000 0.00000
vn 0.00000 -1.00000 0.00000
vn 0.00000 -1.00000 0.00000
vn 0.00000 -1.00000 0.00000
vn 0.00000 1.00000 0.00000
vn 0.00000 1.00000 0.00000
vn 0.00000 1.00000 0.00000
vn 0.00000 1.00000 0.00000
vn 0.00000 1.00000 0.00000
vn 0.00000 1.00000 0.00000
vn 0.00000 1.00000 0.00000
vn 0.00000 1.00000 0.00000
vn 0.00000 -1.00000 0.00000
vn 0.00000 -1.00000 0.00000
vn 0.00000 -1.00000 0.00000
vn 0.00000 -1.00000 0.00000
vn 0.00000 -1.00000 0.00000
vn 0.00000 -1.00000 0.00000
vn 0.00000 -1.00000 0.00000
vn 0.00000 -1.00000 0.00000
vn 0.00000 1.00000 0.00000
vn 0.00000 1.00000 0.00000
vn 0.00000 1.00000 0.00000
vn 0.00000 -1.00000 0.00000
vn 0.00000 -1.00000 0.00000
vn 0.00000 -1.00000 0.00000
vn 0.00000 1.00000 0.00000
vn 0.00000 1.00000 0.00000
vn 0.00000 1.00000 0.00000
vn 0.00000 -1.00000 0.00000
vn 0.00000 -1.00000 0.00000
vn 0.00000 -1.00000 0.00000
vn -0.39911 0.00000 -0.91690
vn -0.39911 0.00000 -0.91690
vn -0.39911 0.00000 -0.91690
vn -0.39911 0.00000 -0.91690
vn -0.39911 0.00000 -0.91690
vn -0.39911 0.00000 -0.91690
vn -0.39911 0.00000 -0.91690
vn -0.39911 0.00000 -0.91690
vn -0.39911 0.00000 -0.91690
vn -0.39911 0.00000 -0.91690
vn -0.39911 0.00000 -0.91690
vn -0.39911 0.00000 -0.91690
vn 0.39911 0.00000 0.91690
vn 0.39911 0.00000 0.91690
vn 0.39911 0.00000 0.91690
vn 0.39911 0.00000 0.91690
vn -0.37718 0.00000 -0.92614
vn -0.37718 0.00000 -0.92614
vn -0.37718 0.00000 -0.92614
vn -0.37718 0.00000 -0.92614
vn -0.37718 0.00000 -0.92614
vn -0.37718 0.00000 -0.92614
vn -0.37718 0.00000 -0.92614
vn -0.37718 0.00000 -0.92614
vn -0.37718 0.00000 -0.92614
vn -0.37718 0.00000 -0.92614
vn -0.37718 0.00000 -0.92614
vn -0.37718 0.00000 -0.92614
vn 0.37718 0.00000 0.92614
vn 0.37718 0.00000 0.92614
vn 0.37718 0.00000 0.92614
vn 0.37718 0.00000 0.92614
vn -0.34946 0.00000 -0.93695
vn -0.34946 0.00000 -0.93695
vn -0.34946 0.00000 -0.93695
vn -0.34946 0.00000 -0.93695
vn -0.34946 0.00000 -0.93695
vn -0.34946 0.00000 -0.93695
vn -0.34946 0.00000 -0.93695
vn -0.34946 0.00000 -0.93695
vn -0.34946 0.00000 -0.93695
vn -0.34946 0.00000 -0.93695
vn -0.34946 0.00000 -0.93695
vn -0.34946 0.00000 -0.93695
vn 0.34946 0.00000 0.93695
vn 0.34946 0.00000 0.93695
vn 0.34946 0.00000 0.93695
vn 0.34946 0.00000 0.93695
vn -0.30449 0.00000 -0.95252
vn -0.30449 0.00000 -0.95252
vn -0.30449 0.00000 -0.95252
vn -0.30449 0.00000 -0.95252
vn -0.30449 0.00000 -0.95252
vn -0.30449 0.00000 -0.95252
vn -0.30449 0.00000 -0.95252
vn -0.30449 0.00000 -0.95252
vn -0.30449 0.00000 -0.95252
vn -0.30449 0.00000 -0.95252
vn -0.30449 0.00000 -0.95252
vn -0.30449 0.00000 -0.95252
vn 0.30449 0.00000 0.95252
vn 0.30449 0.00000 0.95252
vn 0.30449 0.00000 0.95252
vn 0.30449 0.00000 0.95252
vn -0.25882 0.00000 -0.96593
vn -0.25882 0.00000 -0.96593
vn -0.25882 0.00000 -0.96593
vn -0.25882 0.00000 -0.96593
vn -0.25882 0.00000 -0.96593
vn -0.25882 0.00000 -0.96593
vn -0.25882 0.00000 -0.96593
vn -0.25882 0.00000 -0.96593
vn -0.25882 0.00000 -0.96593
vn -0.25882 0.00000 -0.96593
vn -0.25882 0.00000 -0.96593
vn -0.25882 0.00000 -0.96593
vn 0.25882 0.00000 0.96593
vn 0.25882 0.00000 0.96593
vn 0.25882 0.00000 0.96593
vn 0.25882 0.00000 0.96593
vn 0.21547 0.00000 0.97651
vn 0.21547 0.00000 0.97651
vn 0.21547 0.00000 0.97651
vn 0.21547 0.00000 0.97651
vn 0.00000 1.00000 0.00000
vn 0.00000 1.00000 0.00000
vn 0.00000 1.00000 0.00000
vn 0.00000 -1.00000 0.00000
vn 0.00000 -1.00000 0.00000
vn 0.00000 -1.00000 0.00000
vn 0.00000 1.00000 0.00000
vn 0.00000 1.00000 0.00000
vn 0.00000 1.00000 0.00000
vn 0.00000 -1.00000 0.00000
vn 0.00000 -1.00000 0.00000
vn 0.00000 -1.00000 0.00000
vn 0.00000 1.00000 0.00000
vn 0.00000 1.00000 0.00000
vn 0.00000 1.00000 0.00000
vn 0.00000 1.00000 0.00000
vn 0.00000 1.00000 0.00000
vn 0.00000 1.00000 0.00000
vn 0.00000 1.00000 0.00000
vn 0.00000 -1.00000 0.00000
vn 0.00000 -1.00000 0.00000
vn 0.00000 -1.00000 0.00000
vn 0.00000 -1.00000 0.00000
vn 0.00000 -1.00000 0.00000
vn 0.00000 -1.00000 0.00000
vn 0.00000 -1.00000 0.00000
vn 0.00000 1.00000 0.00000
vn 0.00000 1.00000 0.00000
vn 0.00000 1.00000 0.00000
vn 0.00000 1.00000 0.00000
vn 0.00000 1.00000 0.00000
vn 0.00000 1.00000 0.00000
vn 0.00000 1.00000 0.00000
vn 0.00000 -1.00000 0.00000
vn 0.00000 -1.00000 0.00000
vn 0.00000 -1.00000 0.00000
vn 0.00000 -1.00000 0.00000
vn 0.00000 -1.00000 0.00000
vn 0.00000 -1.00000 0.00000
vn 0.00000 -1.00000 0.00000
vn 0.00000 1.00000 0.00000
vn 0.00000 1.00000 0.00000
vn 0.00000 1.00000 0.00000
vn 0.00000 -1.00000 0.00000
vn 0.00000 -1.00000 0.00000
vn 0.00000 -1.00000 0.00000
vn 0.00000 1.00000 0.00000
vn 0.00000 1.00000 0.00000
vn 0.00000 1.00000 0.00000
vn 0.00000 -1.00000 0.00000
vn 0.00000 -1.00000 0.00000
vn 0.00000 -1.00000 0.00000
vn -0.25882 0.00000 -0.96593
vn -0.25882 0.00000 -0.96593
vn -0.25882 0.00000 -0.96593
vn -0.25882 0.00000 -0.96593
vn -0.25882 0.00000 -0.96593
vn -0.25882 0.00000 -0.96593
vn -0.25882 0.00000 -0.96593
vn -0.25882 0.00000 -0.96593
vn -0.25882 0.00000 -0.96593
vn -0.25882 0.00000 -0.96593
vn -0.25882 0.00000 -0.96593
vn -0.25882 0.00000 -0.96593
vn -0.21547 0.00000 -0.97651
vn -0.21547 0.00000 -0.97651
vn -0.21547 0.00000 -0.97651
vn -0.21547 0.00000 -0.97651
vn -0.21547 0.00000 -0.97651
vn -0.21547 0.00000 -0.97651
vn -0.21547 0.00000 -0.97651
vn -0.21547 0.00000 -0.97651
vn -0.21547 0.00000 -0.97651
vn -0.21547 0.00000 -0.97651
vn -0.21547 0.00000 -0.97651
vn -0.21547 0.00000 -0.97651
vn -0.19217 0.00000 -0.98136
vn -0.19217 0.00000 -0.98136
vn -0.19217 0.00000 -0.98136
vn -0.19217 0.00000 -0.98136
vn -0.19217 0.00000 -0.98136
vn -0.19217 0.00000 -0.98136
vn -0.19217 0.00000 -0.98136
vn -0.19217 0.00000 -0.98136
vn -0.19217 0.00000 -0.98136
vn -0.19217 0.00000 -0.98136
vn -0.19217 0.00000 -0.98136
vn -0.19217 0.00000 -0.98136
usemtl ceiling
f 10/10/10 11/11/11 12/12/12
f 25/25/25 26/26/26 27/27/27 28/28/28
f 41/41/41 42/42/42 43/43/43 44/44/44
f 66/66/66 67/67/67 68/68/68 69/69/69
f 70/70/70 71/71/71 72/72/72
f 85/85/85 86/86/86 87/87/87 88/88/88
f 101/101/101 102/102/102 103/103/103 104/104/104
f 117/117/117 118/118/118 119/119/119 120/120/120
f 142/142/142 143/143/143 144/144/144 145/145/145
f 146/146/146 147/147/147 148/148/148
f 158/158/158 159/159/159 160/160/160
f 170/170/170 171/171/171 172/172/172
f 194/194/194 195/195/195 196/196/196 197/197/197
f 198/198/198 199/199/199 200/200/200
f 213/213/213 214/214/214 215/215/215 216/216/216
f 229/229/229 230/230/230 231/231/231 232/232/232
f 245/245/245 246/246/246 247/247/247 248/248/248
f 273/273/273 274/274/274 275/275/275 276/276/276
f 277/277/277 278/278/278 279/279/279 280/280/280
f 290/290/290 291/291/291 292/292/292
f 386/386/386 387/387/387 388/388/388
f 410/410/410 411/411/411 412/412/412 413/413/413
f 414/414/414 415/415/415 416/416/416
f 426/426/426 427/427/427 428/428/428
usemtl floor
f 1/1/1 2/2/2 3/3/3
f 13/13/13 14/14/14 15/15/15 16/16/16
f 29/29/29 30/30/30 31/31/31 32/32/32
f 45/45/45 46/46/46 47/47/47 48/48/48
f 49/49/49 50/50/50 51/51/51
f 73/73/73 74/74/74 75/75/75 76/76/76
f 89/89/89 90/90/90 91/91/91 92/92/92
f 105/105/105 106/106/106 107/107/107 108/108/108
f 121/121/121 122/122/122 123/123/123 124/124/124
f 125/125/125 126/126/126 127/127/127
f 149/149/149 150/150/150 151/151/151
f 161/161/161 162/162/162 163/163/163
f 173/173/173 174/174/174 175/175/175 176/176/176
f 177/177/177 178/178/178 179/179/179
f 201/201/201 202/202/202 203/203/203 204/204/204
f 217/217/217 218/218/218 219/219/219 220/220/220
f 233/233/233 234/234/234 235/235/235 236/236/236
f 249/249/249 250/250/250 251/251/251 252/252/252
f 253/253/253 254/254/254 255/255/255 256/256/256
f 281/281/281 282/282/282 283/283/283
f 377/377/377 378/378/378 379/379/379
f 389/389/389 390/390/390 391/391/391 392/392/392
f 393/393/393 394/394/394 395/395/395
f 417/417/417 418/418/418 419/419/419
usemtl frame
f 297/297/297 298/298/298 299/299/299 300/300/300
f 301/301/301 302/302/302 303/303/303 304/304/304
f 313/313/313 314/314/314 315/315/315 316/316/316
f 317/317/317 318/318/318 319/319/319 320/320/320
f 329/329/329 330/330/330 331/331/331 332/332/332
f 333/333/333 334/334/334 335/335/335 336/336/336
f 345/345/345 346/346/346 347/347/347 348/348/348
f 349/349/349 350/350/350 351/351/351 352/352/352
f 361/361/361 362/362/362 363/363/363 364/364/364
f 365/365/365 366/366/366 367/367/367 368/368/368
f 433/433/433 434/434/434 435/435/435 436/436/436
f 437/437/437 438/438/438 439/439/439 440/440/440
f 445/445/445 446/446/446 447/447/447 448/448/448
f 449/449/449 450/450/450 451/451/451 452/452/452
f 457/457/457 458/458/458 459/459/459 460/460/460
f 461/461/461 462/462/462 463/463/463 464/464/464
usemtl inner
f 305/305/305 306/306/306 307/307/307 308/308/308
f 321/321/321 322/322/322 323/323/323 324/324/324
f 337/337/337 338/338/338 339/339/339 340/340/340
f 353/353/353 354/354/354 355/355/355 356/356/356
f 369/369/369 370/370/370 371/371/371 372/372/372
f 373/373/373 374/374/374 375/375/375 376/376/376
usemtl roof
f 7/7/7 8/8/8 9/9/9
f 21/21/21 22/22/22 23/23/23 24/24/24
f 37/37/37 38/38/38 39/39/39 40/40/40
f 59/59/59 60/60/60 61/61/61 62/62/62
f 63/63/63 64/64/64 65/65/65
f 81/81/81 82/82/82 83/83/83 84/84/84
f 97/97/97 98/98/98 99/99/99 100/100/100
f 113/113/113 114/114/114 115/115/115 116/116/116
f 135/135/135 136/136/136 137/137/137 138/138/138
f 139/139/139 140/140/140 141/141/141
f 155/155/155 156/156/156 157/157/157
f 167/167/167 168/168/168 169/169/169
f 187/187/187 188/188/188 189/189/189 190/190/190
f 191/191/191 192/192/192 193/193/193
f 209/209/209 210/210/210 211/211/211 212/212/212
f 225/225/225 226/226/226 227/227/227 228/228/228
f 241/241/241 242/242/242 243/243/243 244/244/244
f 265/265/265 266/266/266 267/267/267 268/268/268
f 269/269/269 270/270/270 271/271/271 272/272/272
f 287/287/287 288/288/288 289/289/289
f 383/383/383 384/384/384 385/385/385
f 403/403/403 404/404/404 405/405/405 406/406/406
f 407/407/407 408/408/408 409/409/409
f 423/423/423 424/424/424 425/425/425
usemtl skin
f 293/293/293 294/294/294 295/295/295 296/296/296
f 309/309/309 310/310/310 311/311/311 312/312/312
f 325/325/325 326/326/326 327/327/327 328/328/328
f 341/341/341 342/342/342 343/343/343 344/344/344
f 357/357/357 358/358/358 359/359/359 360/360/360
f 429/429/429 430/430/430 431/431/431 432/432/432
f 441/441/441 442/442/442 443/443/443 444/444/444
f 453/453/453 454/454/454 455/455/455 456/456/456
usemtl under
f 4/4/4 5/5/5 6/6/6
f 17/17/17 18/18/18 19/19/19 20/20/20
f 33/33/33 34/34/34 35/35/35 36/36/36
f 52/52/52 53/53/53 54/54/54 55/55/55
f 56/56/56 57/57/57 58/58/58
f 77/77/77 78/78/78 79/79/79 80/80/80
f 93/93/93 94/94/94 95/95/95 96/96/96
f 109/109/109 110/110/110 111/111/111 112/112/112
f 128/128/128 129/129/129 130/130/130 131/131/131
f 132/132/132 133/133/133 134/134/134
f 152/152/152 153/153/153 154/154/154
f 164/164/164 165/165/165 166/166/166
f 180/180/180 181/181/181 182/182/182 183/183/183
f 184/184/184 185/185/185 186/186/186
f 205/205/205 206/206/206 207/207/207 208/208/208
f 221/221/221 222/222/222 223/223/223 224/224/224
f 237/237/237 238/238/238 239/239/239 240/240/240
f 257/257/257 258/258/258 259/259/259 260/260/260
f 261/261/261 262/262/262 263/263/263 264/264/264
f 284/284/284 285/285/285 286/286/286
f 380/380/380 381/381/381 382/382/382
f 396/396/396 397/397/397 398/398/398 399/399/399
f 400/400/400 401/401/401 402/402/402
f 420/420/420 421/421/421 422/422/422
