# Generated by dev-env-utils/scripts/gen_transit_airside.py -- do not edit
mtllib jet_bridge_large.mtl
o airport_jet_bridge_large_turn_c1
v 0.13951 0.09375 1.00000
v 0.00000 0.09375 0.85369
v 0.00000 0.09375 1.00000
v 0.00000 0.00000 1.00000
v 0.00000 0.00000 0.85369
v 0.13951 0.00000 1.00000
v 0.13951 4.24547 1.00000
v 0.00000 4.24547 0.85369
v 0.00000 4.24547 1.00000
v 0.00000 4.09375 1.00000
v 0.00000 4.09375 0.85369
v 0.13951 4.09375 1.00000
v 0.40049 0.09375 1.00000
v 0.00000 0.09375 0.53782
v 0.00000 0.09375 0.85369
v 0.13951 0.09375 1.00000
v 0.13951 0.00000 1.00000
v 0.00000 0.00000 0.85369
v 0.00000 0.00000 0.53782
v 0.40049 0.00000 1.00000
v 0.40049 4.24547 1.00000
v 0.00000 4.24547 0.53782
v 0.00000 4.24547 0.85369
v 0.13951 4.24547 1.00000
v 0.13951 4.09375 1.00000
v 0.00000 4.09375 0.85369
v 0.00000 4.09375 0.53782
v 0.40049 4.09375 1.00000
v 0.64077 0.09375 1.00000
v 0.00000 0.09375 0.18519
v 0.00000 0.09375 0.53782
v 0.40049 0.09375 1.00000
v 0.40049 0.00000 1.00000
v 0.00000 0.00000 0.53782
v 0.00000 0.00000 0.18519
v 0.64077 0.00000 1.00000
v 0.64077 4.24547 1.00000
v 0.00000 4.24547 0.18519
v 0.00000 4.24547 0.53782
v 0.40049 4.24547 1.00000
v 0.40049 4.09375 1.00000
v 0.00000 4.09375 0.53782
v 0.00000 4.09375 0.18519
v 0.64077 4.09375 1.00000
v 0.15161 0.09375 0.00000
v 0.00000 0.09375 0.00000
v 0.00000 0.09375 0.18519
v 0.64077 0.09375 1.00000
v 0.86371 0.09375 1.00000
v 0.15161 0.09375 0.00000
v 0.64077 0.09375 1.00000
v 0.64077 0.00000 1.00000
v 0.00000 0.00000 0.18519
v 0.00000 0.00000 0.00000
v 0.15161 0.00000 0.00000
v 0.64077 0.00000 1.00000
v 0.15161 0.00000 0.00000
v 0.86371 0.00000 1.00000
v 0.15161 4.24547 0.00000
v 0.00000 4.24547 0.00000
v 0.00000 4.24547 0.18519
v 0.64077 4.24547 1.00000
v 0.86371 4.24547 1.00000
v 0.15161 4.24547 0.00000
v 0.64077 4.24547 1.00000
v 0.64077 4.09375 1.00000
v 0.00000 4.09375 0.18519
v 0.00000 4.09375 0.00000
v 0.15161 4.09375 0.00000
v 0.64077 4.09375 1.00000
v 0.15161 4.09375 0.00000
v 0.86371 4.09375 1.00000
v 0.99546 0.09375 1.00000
v 0.32729 0.09375 0.00000
v 0.15161 0.09375 0.00000
v 0.86371 0.09375 1.00000
v 0.86371 0.00000 1.00000
v 0.15161 0.00000 0.00000
v 0.32729 0.00000 0.00000
v 0.99546 0.00000 1.00000
v 0.99546 4.24547 1.00000
v 0.32729 4.24547 0.00000
v 0.15161 4.24547 0.00000
v 0.86371 4.24547 1.00000
v 0.86371 4.09375 1.00000
v 0.15161 4.09375 0.00000
v 0.32729 4.09375 0.00000
v 0.99546 4.09375 1.00000
v 1.00000 0.09375 0.88794
v 0.42936 0.09375 0.00000
v 0.32729 0.09375 0.00000
v 0.99546 0.09375 1.00000
v 1.00000 0.09375 1.00000
v 1.00000 0.09375 0.88794
v 0.99546 0.09375 1.00000
v 0.99546 0.00000 1.00000
v 0.32729 0.00000 0.00000
v 0.42936 0.00000 0.00000
v 1.00000 0.00000 0.88794
v 0.99546 0.00000 1.00000
v 1.00000 0.00000 0.88794
v 1.00000 0.00000 1.00000
v 1.00000 4.24547 0.88794
v 0.42936 4.24547 0.00000
v 0.32729 4.24547 0.00000
v 0.99546 4.24547 1.00000
v 1.00000 4.24547 1.00000
v 1.00000 4.24547 0.88794
v 0.99546 4.24547 1.00000
v 0.99546 4.09375 1.00000
v 0.32729 4.09375 0.00000
v 0.42936 4.09375 0.00000
v 1.00000 4.09375 0.88794
v 0.99546 4.09375 1.00000
v 1.00000 4.09375 0.88794
v 1.00000 4.09375 1.00000
v 1.00000 0.09375 0.53590
v 0.69060 0.09375 0.00000
v 0.42936 0.09375 0.00000
v 1.00000 0.09375 0.88794
v 1.00000 0.00000 0.88794
v 0.42936 0.00000 0.00000
v 0.69060 0.00000 0.00000
v 1.00000 0.00000 0.53590
v 1.00000 4.24547 0.53590
v 0.69060 4.24547 0.00000
v 0.42936 4.24547 0.00000
v 1.00000 4.24547 0.88794
v 1.00000 4.09375 0.88794
v 0.42936 4.09375 0.00000
v 0.69060 4.09375 0.00000
v 1.00000 4.09375 0.53590
v 1.00000 0.09375 0.12054
v 0.93786 0.09375 0.00000
v 0.69060 0.09375 0.00000
v 1.00000 0.09375 0.53590
v 1.00000 0.00000 0.53590
v 0.69060 0.00000 0.00000
v 0.93786 0.00000 0.00000
v 1.00000 0.00000 0.12054
v 1.00000 4.24547 0.12054
v 0.93786 4.24547 0.00000
v 0.69060 4.24547 0.00000
v 1.00000 4.24547 0.53590
v 1.00000 4.09375 0.53590
v 0.69060 4.09375 0.00000
v 0.93786 4.09375 0.00000
v 1.00000 4.09375 0.12054
v 1.00000 0.09375 0.00000
v 0.93786 0.09375 0.00000
v 1.00000 0.09375 0.12054
v 1.00000 0.00000 0.12054
v 0.93786 0.00000 0.00000
v 1.00000 0.00000 0.00000
v 1.00000 4.24547 0.00000
v 0.93786 4.24547 0.00000
v 1.00000 4.24547 0.12054
v 1.00000 4.09375 0.12054
v 0.93786 4.09375 0.00000
v 1.00000 4.09375 0.00000
v 0.00000 0.09375 0.00177
v 0.00236 0.09375 0.00000
v 0.00236 4.09375 0.00000
v 0.00000 4.09375 0.00177
v -0.14563 0.09375 0.00000
v -0.18672 0.09375 -0.05224
v -0.24999 0.09375 0.00000
v -0.24999 0.00000 0.00000
v -0.18672 0.00000 -0.05224
v -0.14563 0.00000 0.00000
v -0.14563 4.24547 0.00000
v -0.18672 4.24547 -0.05224
v -0.24999 4.24547 0.00000
v -0.24999 4.09375 0.00000
v -0.18672 4.09375 -0.05224
v -0.14563 4.09375 0.00000
v 0.00000 0.09375 0.00000
v 0.00000 0.09375 -0.19202
v -0.18672 0.09375 -0.05224
v -0.14563 0.09375 0.00000
v -0.14563 0.00000 0.00000
v -0.18672 0.00000 -0.05224
v 0.00000 0.00000 -0.19202
v 0.00000 0.00000 0.00000
v 0.00000 4.24547 0.00000
v 0.00000 4.24547 -0.19202
v -0.18672 4.24547 -0.05224
v -0.14563 4.24547 0.00000
v -0.14563 4.09375 0.00000
v -0.18672 4.09375 -0.05224
v 0.00000 4.09375 -0.19202
v 0.00000 4.09375 0.00000
v -0.24999 4.09375 0.00000
v -0.18672 4.09375 -0.05224
v -0.18672 0.09375 -0.05224
v -0.24999 0.09375 0.00000
v -0.24999 0.09375 0.00000
v -0.18672 0.09375 -0.05224
v -0.18672 0.00000 -0.05224
v -0.24999 0.00000 0.00000
v -0.24999 4.24547 0.00000
v -0.18672 4.24547 -0.05224
v -0.18672 4.09375 -0.05224
v -0.24999 4.09375 0.00000
v 0.00000 4.09375 -0.19202
v 0.00000 0.09375 -0.19202
v -0.18672 0.09375 -0.05224
v -0.18672 4.09375 -0.05224
v 0.00000 0.09375 -0.19202
v 0.00000 0.00000 -0.19202
v -0.18672 0.00000 -0.05224
v -0.18672 0.09375 -0.05224
v 0.00000 4.24547 -0.19202
v 0.00000 4.09375 -0.19202
v -0.18672 4.09375 -0.05224
v -0.18672 4.24547 -0.05224
v 0.15161 0.09375 0.00000
v 0.00971 0.09375 -0.19928
v 0.00000 0.09375 -0.19202
v 0.00000 0.09375 0.00000
v 0.00000 0.00000 0.00000
v 0.00000 0.00000 -0.19202
v 0.00971 0.00000 -0.19928
v 0.15161 0.00000 0.00000
v 0.15161 4.24547 0.00000
v 0.00971 4.24547 -0.19928
v 0.00000 4.24547 -0.19202
v 0.00000 4.24547 0.00000
v 0.00000 4.09375 0.00000
v 0.00000 4.09375 -0.19202
v 0.00971 4.09375 -0.19928
v 0.15161 4.09375 0.00000
v 0.32729 0.09375 0.00000
v 0.13594 0.09375 -0.28637
v 0.00971 0.09375 -0.19928
v 0.15161 0.09375 0.00000
v 0.15161 0.00000 0.00000
v 0.00971 0.00000 -0.19928
v 0.13594 0.00000 -0.28637
v 0.32729 0.00000 0.00000
v 0.32729 4.24547 0.00000
v 0.13594 4.24547 -0.28637
v 0.00971 4.24547 -0.19928
v 0.15161 4.24547 0.00000
v 0.15161 4.09375 0.00000
v 0.00971 4.09375 -0.19928
v 0.13594 4.09375 -0.28637
v 0.32729 4.09375 0.00000
v 0.42936 0.09375 0.00000
v 0.21290 0.09375 -0.33681
v 0.13594 0.09375 -0.28637
v 0.32729 0.09375 0.00000
v 0.32729 0.00000 0.00000
v 0.13594 0.00000 -0.28637
v 0.21290 0.00000 -0.33681
v 0.42936 0.00000 0.00000
v 0.42936 4.24547 0.00000
v 0.21290 4.24547 -0.33681
v 0.13594 4.24547 -0.28637
v 0.32729 4.24547 0.00000
v 0.32729 4.09375 0.00000
v 0.13594 4.09375 -0.28637
v 0.21290 4.09375 -0.33681
v 0.42936 4.09375 0.00000
v 0.69060 0.09375 0.00000
v 0.42241 0.09375 -0.46451
v 0.21290 0.09375 -0.33681
v 0.42936 0.09375 0.00000
v 0.42936 0.00000 0.00000
v 0.21290 0.00000 -0.33681
v 0.42241 0.00000 -0.46451
v 0.69060 0.00000 0.00000
v 0.69060 4.24547 0.00000
v 0.42241 4.24547 -0.46451
v 0.21290 4.24547 -0.33681
v 0.42936 4.24547 0.00000
v 0.42936 4.09375 0.00000
v 0.21290 4.09375 -0.33681
v 0.42241 4.09375 -0.46451
v 0.69060 4.09375 0.00000
v 0.93786 0.09375 0.00000
v 0.63776 0.09375 -0.58210
v 0.42241 0.09375 -0.46451
v 0.69060 0.09375 0.00000
v 0.69060 0.00000 0.00000
v 0.42241 0.00000 -0.46451
v 0.63776 0.00000 -0.58210
v 0.93786 0.00000 0.00000
v 0.93786 4.24547 0.00000
v 0.63776 4.24547 -0.58210
v 0.42241 4.24547 -0.46451
v 0.69060 4.24547 0.00000
v 0.69060 4.09375 0.00000
v 0.42241 4.09375 -0.46451
v 0.63776 4.09375 -0.58210
v 0.93786 4.09375 0.00000
v 1.00000 0.09375 -0.37939
v 0.85846 0.09375 -0.68931
v 0.63776 0.09375 -0.58210
v 0.93786 0.09375 0.00000
v 1.00000 0.09375 0.00000
v 1.00000 0.09375 -0.37939
v 0.93786 0.09375 0.00000
v 0.93786 0.00000 0.00000
v 0.63776 0.00000 -0.58210
v 0.85846 0.00000 -0.68931
v 1.00000 0.00000 -0.37939
v 0.93786 0.00000 0.00000
v 1.00000 0.00000 -0.37939
v 1.00000 0.00000 0.00000
v 1.00000 4.24547 -0.37939
v 0.85846 4.24547 -0.68931
v 0.63776 4.24547 -0.58210
v 0.93786 4.24547 0.00000
v 1.00000 4.24547 0.00000
v 1.00000 4.24547 -0.37939
v 0.93786 4.24547 0.00000
v 0.93786 4.09375 0.00000
v 0.63776 4.09375 -0.58210
v 0.85846 4.09375 -0.68931
v 1.00000 4.09375 -0.37939
v 0.93786 4.09375 0.00000
v 1.00000 4.09375 -0.37939
v 1.00000 4.09375 0.00000
v 1.00000 0.09375 -0.75092
v 0.85846 0.09375 -0.68931
v 1.00000 0.09375 -0.37939
v 1.00000 0.00000 -0.37939
v 0.85846 0.00000 -0.68931
v 1.00000 0.00000 -0.75092
v 1.00000 4.24547 -0.75092
v 0.85846 4.24547 -0.68931
v 1.00000 4.24547 -0.37939
v 1.00000 4.09375 -0.37939
v 0.85846 4.09375 -0.68931
v 1.00000 4.09375 -0.75092
v 0.00000 4.09375 -0.19202
v 0.00971 4.09375 -0.19928
v 0.00971 0.09375 -0.19928
v 0.00000 0.09375 -0.19202
v 0.00000 0.09375 -0.19202
v 0.00971 0.09375 -0.19928
v 0.00971 0.00000 -0.19928
v 0.00000 0.00000 -0.19202
v 0.00000 4.24547 -0.19202
v 0.00971 4.24547 -0.19928
v 0.00971 4.09375 -0.19928
v 0.00000 4.09375 -0.19202
v 0.00236 0.09375 0.00000
v 0.09972 0.09375 -0.07288
v 0.09972 4.09375 -0.07288
v 0.00236 4.09375 0.00000
v 0.13594 4.09375 -0.28637
v 0.13594 0.09375 -0.28637
v 0.00971 0.09375 -0.19928
v 0.00971 4.09375 -0.19928
v 0.13594 0.09375 -0.28637
v 0.13594 0.00000 -0.28637
v 0.00971 0.00000 -0.19928
v 0.00971 0.09375 -0.19928
v 0.13594 4.24547 -0.28637
v 0.13594 4.09375 -0.28637
v 0.00971 4.09375 -0.19928
v 0.00971 4.24547 -0.19928
v 0.09972 4.09375 -0.07288
v 0.09972 0.09375 -0.07288
v 0.22215 0.09375 -0.15735
v 0.22215 4.09375 -0.15735
v 0.21290 4.09375 -0.33681
v 0.21290 0.09375 -0.33681
v 0.13594 0.09375 -0.28637
v 0.13594 4.09375 -0.28637
v 0.21290 0.09375 -0.33681
v 0.21290 0.00000 -0.33681
v 0.13594 0.00000 -0.28637
v 0.13594 0.09375 -0.28637
v 0.21290 4.24547 -0.33681
v 0.21290 4.09375 -0.33681
v 0.13594 4.09375 -0.28637
v 0.13594 4.24547 -0.28637
v 0.22215 4.09375 -0.15735
v 0.22215 0.09375 -0.15735
v 0.29680 0.09375 -0.20627
v 0.29680 4.09375 -0.20627
v 0.42241 4.09375 -0.46451
v 0.42241 0.09375 -0.46451
v 0.21290 0.09375 -0.33681
v 0.21290 4.09375 -0.33681
v 0.42241 0.09375 -0.46451
v 0.42241 0.00000 -0.46451
v 0.21290 0.00000 -0.33681
v 0.21290 0.09375 -0.33681
v 0.42241 4.24547 -0.46451
v 0.42241 4.09375 -0.46451
v 0.21290 4.09375 -0.33681
v 0.21290 4.24547 -0.33681
v 0.29680 4.09375 -0.20627
v 0.29680 0.09375 -0.20627
v 0.50000 0.09375 -0.33013
v 0.50000 4.09375 -0.33013
v 0.63776 4.09375 -0.58210
v 0.63776 0.09375 -0.58210
v 0.42241 0.09375 -0.46451
v 0.42241 4.09375 -0.46451
v 0.63776 0.09375 -0.58210
v 0.63776 0.00000 -0.58210
v 0.42241 0.00000 -0.46451
v 0.42241 0.09375 -0.46451
v 0.63776 4.24547 -0.58210
v 0.63776 4.09375 -0.58210
v 0.42241 4.09375 -0.46451
v 0.42241 4.24547 -0.46451
v 0.50000 4.09375 -0.33013
v 0.50000 0.09375 -0.33013
v 0.70887 0.09375 -0.44418
v 0.70887 4.09375 -0.44418
v 0.85846 4.09375 -0.68931
v 0.85846 0.09375 -0.68931
v 0.63776 0.09375 -0.58210
v 0.63776 4.09375 -0.58210
v 0.85846 0.09375 -0.68931
v 0.85846 0.00000 -0.68931
v 0.63776 0.00000 -0.58210
v 0.63776 0.09375 -0.58210
v 0.85846 4.24547 -0.68931
v 0.85846 4.09375 -0.68931
v 0.63776 4.09375 -0.58210
v 0.63776 4.24547 -0.58210
v 0.70887 4.09375 -0.44418
v 0.70887 0.09375 -0.44418
v 0.92292 0.09375 -0.54816
v 0.92292 4.09375 -0.54816
v 1.00000 4.09375 -0.75092
v 1.00000 0.09375 -0.75092
v 0.85846 0.09375 -0.68931
v 0.85846 4.09375 -0.68931
v 1.00000 0.09375 -0.75092
v 1.00000 0.00000 -0.75092
v 0.85846 0.00000 -0.68931
v 0.85846 0.09375 -0.68931
v 1.00000 4.24547 -0.75092
v 1.00000 4.09375 -0.75092
v 0.85846 4.09375 -0.68931
v 0.85846 4.24547 -0.68931
v 0.92292 4.09375 -0.54816
v 0.92292 0.09375 -0.54816
v 1.00000 0.09375 -0.58171
v 1.00000 4.09375 -0.58171
vt 0.28488 0.50000
vt 0.25000 0.46342
vt 0.25000 0.50000
vt 0.25000 0.50000
vt 0.25000 0.46342
vt 0.28488 0.50000
vt 0.28488 0.50000
vt 0.25000 0.46342
vt 0.25000 0.50000
vt 0.36217 0.18722
vt 0.37798 0.20805
vt 0.34745 0.20805
vt 0.35012 0.50000
vt 0.25000 0.38445
vt 0.25000 0.46342
vt 0.28488 0.50000
vt 0.28488 0.50000
vt 0.25000 0.46342
vt 0.25000 0.38445
vt 0.35012 0.50000
vt 0.35012 0.50000
vt 0.25000 0.38445
vt 0.25000 0.46342
vt 0.28488 0.50000
vt 0.34745 0.20805
vt 0.37798 0.20805
vt 0.41329 0.24970
vt 0.32092 0.24970
vt 0.41019 0.50000
vt 0.25000 0.29630
vt 0.25000 0.38445
vt 0.35012 0.50000
vt 0.35012 0.50000
vt 0.25000 0.38445
vt 0.25000 0.29630
vt 0.41019 0.50000
vt 0.41019 0.50000
vt 0.25000 0.29630
vt 0.25000 0.38445
vt 0.35012 0.50000
vt 0.32092 0.24970
vt 0.41329 0.24970
vt 0.45438 0.29135
vt 0.29781 0.29135
vt 0.28790 0.25000
vt 0.25000 0.25000
vt 0.25000 0.29630
vt 0.41019 0.50000
vt 0.46593 0.50000
vt 0.28790 0.25000
vt 0.41019 0.50000
vt 0.41019 0.50000
vt 0.25000 0.29630
vt 0.25000 0.25000
vt 0.28790 0.25000
vt 0.41019 0.50000
vt 0.28790 0.25000
vt 0.46593 0.50000
vt 0.28790 0.25000
vt 0.25000 0.25000
vt 0.25000 0.29630
vt 0.41019 0.50000
vt 0.46593 0.50000
vt 0.28790 0.25000
vt 0.41019 0.50000
vt 0.29781 0.29135
vt 0.45438 0.29135
vt 0.47656 0.31138
vt 0.46305 0.33300
vt 0.29781 0.29135
vt 0.46305 0.33300
vt 0.27763 0.33300
vt 0.49887 0.50000
vt 0.33182 0.25000
vt 0.28790 0.25000
vt 0.46593 0.50000
vt 0.46593 0.50000
vt 0.28790 0.25000
vt 0.33182 0.25000
vt 0.49887 0.50000
vt 0.49887 0.50000
vt 0.33182 0.25000
vt 0.28790 0.25000
vt 0.46593 0.50000
vt 0.27763 0.33300
vt 0.46305 0.33300
vt 0.44798 0.35903
vt 0.26632 0.35903
vt 0.50000 0.47198
vt 0.35734 0.25000
vt 0.33182 0.25000
vt 0.49887 0.50000
vt 0.50000 0.50000
vt 0.50000 0.47198
vt 0.49887 0.50000
vt 0.49887 0.50000
vt 0.33182 0.25000
vt 0.35734 0.25000
vt 0.50000 0.47198
vt 0.49887 0.50000
vt 0.50000 0.47198
vt 0.50000 0.50000
vt 0.50000 0.47198
vt 0.35734 0.25000
vt 0.33182 0.25000
vt 0.49887 0.50000
vt 0.50000 0.50000
vt 0.50000 0.47198
vt 0.49887 0.50000
vt 0.26632 0.35903
vt 0.44798 0.35903
vt 0.43953 0.37465
vt 0.28010 0.37465
vt 0.26632 0.35903
vt 0.28010 0.37465
vt 0.26594 0.35994
vt 0.50000 0.38397
vt 0.42265 0.25000
vt 0.35734 0.25000
vt 0.50000 0.47198
vt 0.50000 0.47198
vt 0.35734 0.25000
vt 0.42265 0.25000
vt 0.50000 0.38397
vt 0.50000 0.38397
vt 0.42265 0.25000
vt 0.35734 0.25000
vt 0.50000 0.47198
vt 0.28010 0.37465
vt 0.43953 0.37465
vt 0.41899 0.41630
vt 0.32552 0.41630
vt 0.50000 0.28014
vt 0.48446 0.25000
vt 0.42265 0.25000
vt 0.50000 0.38397
vt 0.50000 0.38397
vt 0.42265 0.25000
vt 0.48446 0.25000
vt 0.50000 0.28014
vt 0.50000 0.28014
vt 0.48446 0.25000
vt 0.42265 0.25000
vt 0.50000 0.38397
vt 0.32552 0.41630
vt 0.41899 0.41630
vt 0.40108 0.45795
vt 0.38060 0.45795
vt 0.50000 0.25000
vt 0.48446 0.25000
vt 0.50000 0.28014
vt 0.50000 0.28014
vt 0.48446 0.25000
vt 0.50000 0.25000
vt 0.50000 0.25000
vt 0.48446 0.25000
vt 0.50000 0.28014
vt 0.38060 0.45795
vt 0.40108 0.45795
vt 0.39683 0.46876
vt 0.36080 0.90625
vt 0.36230 0.90625
vt 0.36230 0.00000
vt 0.36080 0.00000
vt 0.21359 0.25000
vt 0.20332 0.23694
vt 0.18750 0.25000
vt 0.18750 0.25000
vt 0.20332 0.23694
vt 0.21359 0.25000
vt 0.21359 0.25000
vt 0.20332 0.23694
vt 0.18750 0.25000
vt 0.49980 0.27742
vt 0.50000 0.29135
vt 0.48996 0.29135
vt 0.25000 0.25000
vt 0.25000 0.20200
vt 0.20332 0.23694
vt 0.21359 0.25000
vt 0.21359 0.25000
vt 0.20332 0.23694
vt 0.25000 0.20200
vt 0.25000 0.25000
vt 0.25000 0.25000
vt 0.25000 0.20200
vt 0.20332 0.23694
vt 0.21359 0.25000
vt 0.48996 0.29135
vt 0.50000 0.29135
vt 0.49996 0.33094
vt 0.47656 0.31138
vt 0.26250 0.00000
vt 0.30303 0.00000
vt 0.30303 0.90625
vt 0.26250 0.90625
vt 0.52499 0.00000
vt 0.60606 0.00000
vt 0.60606 0.09375
vt 0.52499 0.09375
vt 0.52499 0.00000
vt 0.60606 0.00000
vt 0.60606 0.09375
vt 0.52499 0.09375
vt 0.41825 0.00000
vt 0.41825 0.90625
vt 0.30303 0.90625
vt 0.30303 0.00000
vt 0.83650 0.00000
vt 0.83650 0.09375
vt 0.60606 0.09375
vt 0.60606 0.00000
vt 0.83650 0.00000
vt 0.83650 0.09375
vt 0.60606 0.09375
vt 0.60606 0.00000
vt 0.28790 0.25000
vt 0.25243 0.20018
vt 0.25000 0.20200
vt 0.25000 0.25000
vt 0.25000 0.25000
vt 0.25000 0.20200
vt 0.25243 0.20018
vt 0.28790 0.25000
vt 0.28790 0.25000
vt 0.25243 0.20018
vt 0.25000 0.20200
vt 0.25000 0.25000
vt 0.47656 0.31138
vt 0.49996 0.33094
vt 0.50000 0.33300
vt 0.46305 0.33300
vt 0.33182 0.25000
vt 0.28398 0.17841
vt 0.25243 0.20018
vt 0.28790 0.25000
vt 0.28790 0.25000
vt 0.25243 0.20018
vt 0.28398 0.17841
vt 0.33182 0.25000
vt 0.33182 0.25000
vt 0.28398 0.17841
vt 0.25243 0.20018
vt 0.28790 0.25000
vt 0.46305 0.33300
vt 0.50000 0.33300
vt 0.50000 0.35903
vt 0.44798 0.35903
vt 0.35734 0.25000
vt 0.30323 0.16580
vt 0.28398 0.17841
vt 0.33182 0.25000
vt 0.33182 0.25000
vt 0.28398 0.17841
vt 0.30323 0.16580
vt 0.35734 0.25000
vt 0.35734 0.25000
vt 0.30323 0.16580
vt 0.28398 0.17841
vt 0.33182 0.25000
vt 0.44798 0.35903
vt 0.50000 0.35903
vt 0.50000 0.37465
vt 0.43953 0.37465
vt 0.42265 0.25000
vt 0.35560 0.13387
vt 0.30323 0.16580
vt 0.35734 0.25000
vt 0.35734 0.25000
vt 0.30323 0.16580
vt 0.35560 0.13387
vt 0.42265 0.25000
vt 0.42265 0.25000
vt 0.35560 0.13387
vt 0.30323 0.16580
vt 0.35734 0.25000
vt 0.43953 0.37465
vt 0.50000 0.37465
vt 0.50000 0.41630
vt 0.41899 0.41630
vt 0.48446 0.25000
vt 0.40944 0.10447
vt 0.35560 0.13387
vt 0.42265 0.25000
vt 0.42265 0.25000
vt 0.35560 0.13387
vt 0.40944 0.10447
vt 0.48446 0.25000
vt 0.48446 0.25000
vt 0.40944 0.10447
vt 0.35560 0.13387
vt 0.42265 0.25000
vt 0.41899 0.41630
vt 0.50000 0.41630
vt 0.50000 0.45795
vt 0.40108 0.45795
vt 0.50000 0.15515
vt 0.46462 0.07767
vt 0.40944 0.10447
vt 0.48446 0.25000
vt 0.50000 0.25000
vt 0.50000 0.15515
vt 0.48446 0.25000
vt 0.48446 0.25000
vt 0.40944 0.10447
vt 0.46462 0.07767
vt 0.50000 0.15515
vt 0.48446 0.25000
vt 0.50000 0.15515
vt 0.50000 0.25000
vt 0.50000 0.15515
vt 0.46462 0.07767
vt 0.40944 0.10447
vt 0.48446 0.25000
vt 0.50000 0.25000
vt 0.50000 0.15515
vt 0.48446 0.25000
vt 0.40108 0.45795
vt 0.50000 0.45795
vt 0.50000 0.49960
vt 0.44854 0.49960
vt 0.40108 0.45795
vt 0.44854 0.49960
vt 0.39683 0.46876
vt 0.50000 0.06227
vt 0.46462 0.07767
vt 0.50000 0.15515
vt 0.50000 0.15515
vt 0.46462 0.07767
vt 0.50000 0.06227
vt 0.50000 0.06227
vt 0.46462 0.07767
vt 0.50000 0.15515
vt 0.44854 0.00000
vt 0.50000 0.00000
vt 0.49993 0.02580
vt 0.41825 0.00000
vt 0.42424 0.00000
vt 0.42424 0.90625
vt 0.41825 0.90625
vt 0.83650 0.00000
vt 0.84848 0.00000
vt 0.84848 0.09375
vt 0.83650 0.09375
vt 0.83650 0.00000
vt 0.84848 0.00000
vt 0.84848 0.09375
vt 0.83650 0.09375
vt 0.36230 0.90625
vt 0.42424 0.90625
vt 0.42424 0.00000
vt 0.36230 0.00000
vt 0.50000 0.00000
vt 0.50000 0.90625
vt 0.42424 0.90625
vt 0.42424 0.00000
vt 1.00000 0.00000
vt 1.00000 0.09375
vt 0.84848 0.09375
vt 0.84848 0.00000
vt 1.00000 0.00000
vt 1.00000 0.09375
vt 0.84848 0.09375
vt 0.84848 0.00000
vt 0.42424 0.00000
vt 0.42424 0.90625
vt 0.50000 0.90625
vt 0.50000 0.00000
vt 0.04546 0.00000
vt 0.04546 0.90625
vt 0.00000 0.90625
vt 0.00000 0.00000
vt 0.09092 0.00000
vt 0.09092 0.09375
vt 0.00000 0.09375
vt 0.00000 0.00000
vt 0.09092 0.00000
vt 0.09092 0.09375
vt 0.00000 0.09375
vt 0.00000 0.00000
vt 0.00000 0.00000
vt 0.00000 0.90625
vt 0.04546 0.90625
vt 0.04546 0.00000
vt 0.16667 0.00000
vt 0.16667 0.90625
vt 0.04546 0.90625
vt 0.04546 0.00000
vt 0.33334 0.00000
vt 0.33334 0.09375
vt 0.09092 0.09375
vt 0.09092 0.00000
vt 0.33334 0.00000
vt 0.33334 0.09375
vt 0.09092 0.09375
vt 0.09092 0.00000
vt 0.04546 0.00000
vt 0.04546 0.90625
vt 0.16667 0.90625
vt 0.16667 0.00000
vt 0.28788 0.00000
vt 0.28788 0.90625
vt 0.16667 0.90625
vt 0.16667 0.00000
vt 0.57576 0.00000
vt 0.57576 0.09375
vt 0.33334 0.09375
vt 0.33334 0.00000
vt 0.57576 0.00000
vt 0.57576 0.09375
vt 0.33334 0.09375
vt 0.33334 0.00000
vt 0.16667 0.00000
vt 0.16667 0.90625
vt 0.28788 0.90625
vt 0.28788 0.00000
vt 0.40909 0.00000
vt 0.40909 0.90625
vt 0.28788 0.90625
vt 0.28788 0.00000
vt 0.81818 0.00000
vt 0.81818 0.09375
vt 0.57576 0.09375
vt 0.57576 0.00000
vt 0.81818 0.00000
vt 0.81818 0.09375
vt 0.57576 0.09375
vt 0.57576 0.00000
vt 0.28788 0.00000
vt 0.28788 0.90625
vt 0.40909 0.90625
vt 0.40909 0.00000
vt 0.48535 0.00000
vt 0.48535 0.90625
vt 0.40909 0.90625
vt 0.40909 0.00000
vt 0.97069 0.00000
vt 0.97069 0.09375
vt 0.81818 0.09375
vt 0.81818 0.00000
vt 0.97069 0.00000
vt 0.97069 0.09375
vt 0.81818 0.09375
vt 0.81818 0.00000
vt 0.40909 0.00000
vt 0.40909 0.90625
vt 0.45190 0.90625
vt 0.45190 0.00000
vn 0.00000 1.00000 0.00000
vn 0.00000 1.00000 0.00000
vn 0.00000 1.00000 0.00000
vn 0.00000 -1.00000 0.00000
vn 0.00000 -1.00000 0.00000
vn 0.00000 -1.00000 0.00000
vn 0.00000 1.00000 0.00000
vn 0.00000 1.00000 0.00000
vn 0.00000 1.00000 0.00000
vn 0.00000 -1.00000 0.00000
vn 0.00000 -1.00000 0.00000
vn 0.00000 -1.00000 0.00000
vn 0.00000 1.00000 0.00000
vn 0.00000 1.00000 0.00000
vn 0.00000 1.00000 0.00000
vn 0.00000 1.00000 0.00000
vn 0.00000 -1.00000 0.00000
vn 0.00000 -1.00000 0.00000
vn 0.00000 -1.00000 0.00000
vn 0.00000 -1.00000 0.00000
vn 0.00000 1.00000 0.00000
vn 0.00000 1.00000 0.00000
vn 0.00000 1.00000 0.00000
vn 0.00000 1.00000 0.00000
vn 0.00000 -1.00000 0.00000
vn 0.00000 -1.00000 0.00000
vn 0.00000 -1.00000 0.00000
vn 0.00000 -1.00000 0.00000
vn 0.00000 1.00000 0.00000
vn 0.00000 1.00000 0.00000
vn 0.00000 1.00000 0.00000
vn 0.00000 1.00000 0.00000
vn 0.00000 -1.00000 0.00000
vn 0.00000 -1.00000 0.00000
vn 0.00000 -1.00000 0.00000
vn 0.00000 -1.00000 0.00000
vn 0.00000 1.00000 0.00000
vn 0.00000 1.00000 0.00000
vn 0.00000 1.00000 0.00000
vn 0.00000 1.00000 0.00000
vn 0.00000 -1.00000 0.00000
vn 0.00000 -1.00000 0.00000
vn 0.00000 -1.00000 0.00000
vn 0.00000 -1.00000 0.00000
vn 0.00000 1.00000 0.00000
vn 0.00000 1.00000 0.00000
vn 0.00000 1.00000 0.00000
vn 0.00000 1.00000 0.00000
vn 0.00000 1.00000 0.00000
vn 0.00000 1.00000 0.00000
vn 0.00000 1.00000 0.00000
vn 0.00000 -1.00000 0.00000
vn 0.00000 -1.00000 0.00000
vn 0.00000 -1.00000 0.00000
vn 0.00000 -1.00000 0.00000
vn 0.00000 -1.00000 0.00000
vn 0.00000 -1.00000 0.00000
vn 0.00000 -1.00000 0.00000
vn 0.00000 1.00000 0.00000
vn 0.00000 1.00000 0.00000
vn 0.00000 1.00000 0.00000
vn 0.00000 1.00000 0.00000
vn 0.00000 1.00000 0.00000
vn 0.00000 1.00000 0.00000
vn 0.00000 1.00000 0.00000
vn 0.00000 -1.00000 0.00000
vn 0.00000 -1.00000 0.00000
vn 0.00000 -1.00000 0.00000
vn 0.00000 -1.00000 0.00000
vn 0.00000 -1.00000 0.00000
vn 0.00000 -1.00000 0.00000
vn 0.00000 -1.00000 0.00000
vn 0.00000 1.00000 0.00000
vn 0.00000 1.00000 0.00000
vn 0.00000 1.00000 0.00000
vn 0.00000 1.00000 0.00000
vn 0.00000 -1.00000 0.00000
vn 0.00000 -1.00000 0.00000
vn 0.00000 -1.00000 0.00000
vn 0.00000 -1.00000 0.00000
vn 0.00000 1.00000 0.00000
vn 0.00000 1.00000 0.00000
vn 0.00000 1.00000 0.00000
vn 0.00000 1.00000 0.00000
vn 0.00000 -1.00000 0.00000
vn 0.00000 -1.00000 0.00000
vn 0.00000 -1.00000 0.00000
vn 0.00000 -1.00000 0.00000
vn 0.00000 1.00000 0.00000
vn 0.00000 1.00000 0.00000
vn 0.00000 1.00000 0.00000
vn 0.00000 1.00000 0.00000
vn 0.00000 1.00000 0.00000
vn 0.00000 1.00000 0.00000
vn 0.00000 1.00000 0.00000
vn 0.00000 -1.00000 0.00000
vn 0.00000 -1.00000 0.00000
vn 0.00000 -1.00000 0.00000
vn 0.00000 -1.00000 0.00000
vn 0.00000 -1.00000 0.00000
vn 0.00000 -1.00000 0.00000
vn 0.00000 -1.00000 0.00000
vn 0.00000 1.00000 0.00000
vn 0.00000 1.00000 0.00000
vn 0.00000 1.00000 0.00000
vn 0.00000 1.00000 0.00000
vn 0.00000 1.00000 0.00000
vn 0.00000 1.00000 0.00000
vn 0.00000 1.00000 0.00000
vn 0.00000 -1.00000 0.00000
vn 0.00000 -1.00000 0.00000
vn 0.00000 -1.00000 0.00000
vn 0.00000 -1.00000 0.00000
vn 0.00000 -1.00000 0.00000
vn 0.00000 -1.00000 0.00000
vn 0.00000 -1.00000 0.00000
vn 0.00000 1.00000 0.00000
vn 0.00000 1.00000 0.00000
vn 0.00000 1.00000 0.00000
vn 0.00000 1.00000 0.00000
vn 0.00000 -1.00000 0.00000
vn 0.00000 -1.00000 0.00000
vn 0.00000 -1.00000 0.00000
vn 0.00000 -1.00000 0.00000
vn 0.00000 1.00000 0.00000
vn 0.00000 1.00000 0.00000
vn 0.00000 1.00000 0.00000
vn 0.00000 1.00000 0.00000
vn 0.00000 -1.00000 0.00000
vn 0.00000 -1.00000 0.00000
vn 0.00000 -1.00000 0.00000
vn 0.00000 -1.00000 0.00000
vn 0.00000 1.00000 0.00000
vn 0.00000 1.00000 0.00000
vn 0.00000 1.00000 0.00000
vn 0.00000 1.00000 0.00000
vn 0.00000 -1.00000 0.00000
vn 0.00000 -1.00000 0.00000
vn 0.00000 -1.00000 0.00000
vn 0.00000 -1.00000 0.00000
vn 0.00000 1.00000 0.00000
vn 0.00000 1.00000 0.00000
vn 0.00000 1.00000 0.00000
vn 0.00000 1.00000 0.00000
vn 0.00000 -1.00000 0.00000
vn 0.00000 -1.00000 0.00000
vn 0.00000 -1.00000 0.00000
vn 0.00000 -1.00000 0.00000
vn 0.00000 1.00000 0.00000
vn 0.00000 1.00000 0.00000
vn 0.00000 1.00000 0.00000
vn 0.00000 -1.00000 0.00000
vn 0.00000 -1.00000 0.00000
vn 0.00000 -1.00000 0.00000
vn 0.00000 1.00000 0.00000
vn 0.00000 1.00000 0.00000
vn 0.00000 1.00000 0.00000
vn 0.00000 -1.00000 0.00000
vn 0.00000 -1.00000 0.00000
vn 0.00000 -1.00000 0.00000
vn 0.59928 0.00000 0.80054
vn 0.59928 0.00000 0.80054
vn 0.59928 0.00000 0.80054
vn 0.59928 0.00000 0.80054
vn 0.00000 1.00000 0.00000
vn 0.00000 1.00000 0.00000
vn 0.00000 1.00000 0.00000
vn 0.00000 -1.00000 0.00000
vn 0.00000 -1.00000 0.00000
vn 0.00000 -1.00000 0.00000
vn 0.00000 1.00000 0.00000
vn 0.00000 1.00000 0.00000
vn 0.00000 1.00000 0.00000
vn 0.00000 -1.00000 0.00000
vn 0.00000 -1.00000 0.00000
vn 0.00000 -1.00000 0.00000
vn 0.00000 1.00000 0.00000
vn 0.00000 1.00000 0.00000
vn 0.00000 1.00000 0.00000
vn 0.00000 1.00000 0.00000
vn 0.00000 -1.00000 0.00000
vn 0.00000 -1.00000 0.00000
vn 0.00000 -1.00000 0.00000
vn 0.00000 -1.00000 0.00000
vn 0.00000 1.00000 0.00000
vn 0.00000 1.00000 0.00000
vn 0.00000 1.00000 0.00000
vn 0.00000 1.00000 0.00000
vn 0.00000 -1.00000 0.00000
vn 0.00000 -1.00000 0.00000
vn 0.00000 -1.00000 0.00000
vn 0.00000 -1.00000 0.00000
vn -0.63669 0.00000 -0.77112
vn -0.63669 0.00000 -0.77112
vn -0.63669 0.00000 -0.77112
vn -0.63669 0.00000 -0.77112
vn -0.63669 0.00000 -0.77112
vn -0.63669 0.00000 -0.77112
vn -0.63669 0.00000 -0.77112
vn -0.63669 0.00000 -0.77112
vn -0.63669 0.00000 -0.77112
vn -0.63669 0.00000 -0.77112
vn -0.63669 0.00000 -0.77112
vn -0.63669 0.00000 -0.77112
vn -0.59928 0.00000 -0.80054
vn -0.59928 0.00000 -0.80054
vn -0.59928 0.00000 -0.80054
vn -0.59928 0.00000 -0.80054
vn -0.59928 0.00000 -0.80054
vn -0.59928 0.00000 -0.80054
vn -0.59928 0.00000 -0.80054
vn -0.59928 0.00000 -0.80054
vn -0.59928 0.00000 -0.80054
vn -0.59928 0.00000 -0.80054
vn -0.59928 0.00000 -0.80054
vn -0.59928 0.00000 -0.80054
vn 0.00000 1.00000 0.00000
vn 0.00000 1.00000 0.00000
vn 0.00000 1.00000 0.00000
vn 0.00000 1.00000 0.00000
vn 0.00000 -1.00000 0.00000
vn 0.00000 -1.00000 0.00000
vn 0.00000 -1.00000 0.00000
vn 0.00000 -1.00000 0.00000
vn 0.00000 1.00000 0.00000
vn 0.00000 1.00000 0.00000
vn 0.00000 1.00000 0.00000
vn 0.00000 1.00000 0.00000
vn 0.00000 -1.00000 0.00000
vn 0.00000 -1.00000 0.00000
vn 0.00000 -1.00000 0.00000
vn 0.00000 -1.00000 0.00000
vn 0.00000 1.00000 0.00000
vn 0.00000 1.00000 0.00000
vn 0.00000 1.00000 0.00000
vn 0.00000 1.00000 0.00000
vn 0.00000 -1.00000 0.00000
vn 0.00000 -1.00000 0.00000
vn 0.00000 -1.00000 0.00000
vn 0.00000 -1.00000 0.00000
vn 0.00000 1.00000 0.00000
vn 0.00000 1.00000 0.00000
vn 0.00000 1.00000 0.00000
vn 0.00000 1.00000 0.00000
vn 0.00000 -1.00000 0.00000
vn 0.00000 -1.00000 0.00000
vn 0.00000 -1.00000 0.00000
vn 0.00000 -1.00000 0.00000
vn 0.00000 1.00000 0.00000
vn 0.00000 1.00000 0.00000
vn 0.00000 1.00000 0.00000
vn 0.00000 1.00000 0.00000
vn 0.00000 -1.00000 0.00000
vn 0.00000 -1.00000 0.00000
vn 0.00000 -1.00000 0.00000
vn 0.00000 -1.00000 0.00000
vn 0.00000 1.00000 0.00000
vn 0.00000 1.00000 0.00000
vn 0.00000 1.00000 0.00000
vn 0.00000 1.00000 0.00000
vn 0.00000 -1.00000 0.00000
vn 0.00000 -1.00000 0.00000
vn 0.00000 -1.00000 0.00000
vn 0.00000 -1.00000 0.00000
vn 0.00000 1.00000 0.00000
vn 0.00000 1.00000 0.00000
vn 0.00000 1.00000 0.00000
vn 0.00000 1.00000 0.00000
vn 0.00000 -1.00000 0.00000
vn 0.00000 -1.00000 0.00000
vn 0.00000 -1.00000 0.00000
vn 0.00000 -1.00000 0.00000
vn 0.00000 1.00000 0.00000
vn 0.00000 1.00000 0.00000
vn 0.00000 1.00000 0.00000
vn 0.00000 1.00000 0.00000
vn 0.00000 -1.00000 0.00000
vn 0.00000 -1.00000 0.00000
vn 0.00000 -1.00000 0.00000
vn 0.00000 -1.00000 0.00000
vn 0.00000 1.00000 0.00000
vn 0.00000 1.00000 0.00000
vn 0.00000 1.00000 0.00000
vn 0.00000 1.00000 0.00000
vn 0.00000 -1.00000 0.00000
vn 0.00000 -1.00000 0.00000
vn 0.00000 -1.00000 0.00000
vn 0.00000 -1.00000 0.00000
vn 0.00000 1.00000 0.00000
vn 0.00000 1.00000 0.00000
vn 0.00000 1.00000 0.00000
vn 0.00000 1.00000 0.00000
vn 0.00000 -1.00000 0.00000
vn 0.00000 -1.00000 0.00000
vn 0.00000 -1.00000 0.00000
vn 0.00000 -1.00000 0.00000
vn 0.00000 1.00000 0.00000
vn 0.00000 1.00000 0.00000
vn 0.00000 1.00000 0.00000
vn 0.00000 1.00000 0.00000
vn 0.00000 1.00000 0.00000
vn 0.00000 1.00000 0.00000
vn 0.00000 1.00000 0.00000
vn 0.00000 -1.00000 0.00000
vn 0.00000 -1.00000 0.00000
vn 0.00000 -1.00000 0.00000
vn 0.00000 -1.00000 0.00000
vn 0.00000 -1.00000 0.00000
vn 0.00000 -1.00000 0.00000
vn 0.00000 -1.00000 0.00000
vn 0.00000 1.00000 0.00000
vn 0.00000 1.00000 0.00000
vn 0.00000 1.00000 0.00000
vn 0.00000 1.00000 0.00000
vn 0.00000 1.00000 0.00000
vn 0.00000 1.00000 0.00000
vn 0.00000 1.00000 0.00000
vn 0.00000 -1.00000 0.00000
vn 0.00000 -1.00000 0.00000
vn 0.00000 -1.00000 0.00000
vn 0.00000 -1.00000 0.00000
vn 0.00000 -1.00000 0.00000
vn 0.00000 -1.00000 0.00000
vn 0.00000 -1.00000 0.00000
vn 0.00000 1.00000 0.00000
vn 0.00000 1.00000 0.00000
vn 0.00000 1.00000 0.00000
vn 0.00000 -1.00000 0.00000
vn 0.00000 -1.00000 0.00000
vn 0.00000 -1.00000 0.00000
vn 0.00000 1.00000 0.00000
vn 0.00000 1.00000 0.00000
vn 0.00000 1.00000 0.00000
vn 0.00000 -1.00000 0.00000
vn 0.00000 -1.00000 0.00000
vn 0.00000 -1.00000 0.00000
vn -0.59928 0.00000 -0.80054
vn -0.59928 0.00000 -0.80054
vn -0.59928 0.00000 -0.80054
vn -0.59928 0.00000 -0.80054
vn -0.59928 0.00000 -0.80054
vn -0.59928 0.00000 -0.80054
vn -0.59928 0.00000 -0.80054
vn -0.59928 0.00000 -0.80054
vn -0.59928 0.00000 -0.80054
vn -0.59928 0.00000 -0.80054
vn -0.59928 0.00000 -0.80054
vn -0.59928 0.00000 -0.80054
vn 0.59928 0.00000 0.80054
vn 0.59928 0.00000 0.80054
vn 0.59928 0.00000 0.80054
vn 0.59928 0.00000 0.80054
vn -0.56788 0.00000 -0.82311
vn -0.56788 0.00000 -0.82311
vn -0.56788 0.00000 -0.82311
vn -0.56788 0.00000 -0.82311
vn -0.56788 0.00000 -0.82311
vn -0.56788 0.00000 -0.82311
vn -0.56788 0.00000 -0.82311
vn -0.56788 0.00000 -0.82311
vn -0.56788 0.00000 -0.82311
vn -0.56788 0.00000 -0.82311
vn -0.56788 0.00000 -0.82311
vn -0.56788 0.00000 -0.82311
vn 0.56788 0.00000 0.82311
vn 0.56788 0.00000 0.82311
vn 0.56788 0.00000 0.82311
vn 0.56788 0.00000 0.82311
vn -0.54813 0.00000 -0.83639
vn -0.54813 0.00000 -0.83639
vn -0.54813 0.00000 -0.83639
vn -0.54813 0.00000 -0.83639
vn -0.54813 0.00000 -0.83639
vn -0.54813 0.00000 -0.83639
vn -0.54813 0.00000 -0.83639
vn -0.54813 0.00000 -0.83639
vn -0.54813 0.00000 -0.83639
vn -0.54813 0.00000 -0.83639
vn -0.54813 0.00000 -0.83639
vn -0.54813 0.00000 -0.83639
vn 0.54813 0.00000 0.83639
vn 0.54813 0.00000 0.83639
vn 0.54813 0.00000 0.83639
vn 0.54813 0.00000 0.83639
vn -0.52047 0.00000 -0.85388
vn -0.52047 0.00000 -0.85388
vn -0.52047 0.00000 -0.85388
vn -0.52047 0.00000 -0.85388
vn -0.52047 0.00000 -0.85388
vn -0.52047 0.00000 -0.85388
vn -0.52047 0.00000 -0.85388
vn -0.52047 0.00000 -0.85388
vn -0.52047 0.00000 -0.85388
vn -0.52047 0.00000 -0.85388
vn -0.52047 0.00000 -0.85388
vn -0.52047 0.00000 -0.85388
vn 0.52047 0.00000 0.85388
vn 0.52047 0.00000 0.85388
vn 0.52047 0.00000 0.85388
vn 0.52047 0.00000 0.85388
vn -0.47925 0.00000 -0.87768
vn -0.47925 0.00000 -0.87768
vn -0.47925 0.00000 -0.87768
vn -0.47925 0.00000 -0.87768
vn -0.47925 0.00000 -0.87768
vn -0.47925 0.00000 -0.87768
vn -0.47925 0.00000 -0.87768
vn -0.47925 0.00000 -0.87768
vn -0.47925 0.00000 -0.87768
vn -0.47925 0.00000 -0.87768
vn -0.47925 0.00000 -0.87768
vn -0.47925 0.00000 -0.87768
vn 0.47925 0.00000 0.87768
vn 0.47925 0.00000 0.87768
vn 0.47925 0.00000 0.87768
vn 0.47925 0.00000 0.87768
vn -0.43694 0.00000 -0.89949
vn -0.43694 0.00000 -0.89949
vn -0.43694 0.00000 -0.89949
vn -0.43694 0.00000 -0.89949
vn -0.43694 0.00000 -0.89949
vn -0.43694 0.00000 -0.89949
vn -0.43694 0.00000 -0.89949
vn -0.43694 0.00000 -0.89949
vn -0.43694 0.00000 -0.89949
vn -0.43694 0.00000 -0.89949
vn -0.43694 0.00000 -0.89949
vn -0.43694 0.00000 -0.89949
vn 0.43694 0.00000 0.89949
vn 0.43694 0.00000 0.89949
vn 0.43694 0.00000 0.89949
vn 0.43694 0.00000 0.89949
vn -0.39911 0.00000 -0.91690
vn -0.39911 0.00000 -0.91690
vn -0.39911 0.00000 -0.91690
vn -0.39911 0.00000 -0.91690
vn -0.39911 0.00000 -0.91690
vn -0.39911 0.00000 -0.91690
vn -0.39911 0.00000 -0.91690
vn -0.39911 0.00000 -0.91690
vn -0.39911 0.00000 -0.91690
vn -0.39911 0.00000 -0.91690
vn -0.39911 0.00000 -0.91690
vn -0.39911 0.00000 -0.91690
vn 0.39911 0.00000 0.91690
vn 0.39911 0.00000 0.91690
vn 0.39911 0.00000 0.91690
vn 0.39911 0.00000 0.91690
usemtl ceiling
f 10/10/10 11/11/11 12/12/12
f 25/25/25 26/26/26 27/27/27 28/28/28
f 41/41/41 42/42/42 43/43/43 44/44/44
f 66/66/66 67/67/67 68/68/68 69/69/69
f 70/70/70 71/71/71 72/72/72
f 85/85/85 86/86/86 87/87/87 88/88/88
f 110/110/110 111/111/111 112/112/112 113/113/113
f 114/114/114 115/115/115 116/116/116
f 129/129/129 130/130/130 131/131/131 132/132/132
f 145/145/145 146/146/146 147/147/147 148/148/148
f 158/158/158 159/159/159 160/160/160
f 174/174/174 175/175/175 176/176/176
f 189/189/189 190/190/190 191/191/191 192/192/192
f 229/229/229 230/230/230 231/231/231 232/232/232
f 245/245/245 246/246/246 247/247/247 248/248/248
f 261/261/261 262/262/262 263/263/263 264/264/264
f 277/277/277 278/278/278 279/279/279 280/280/280
f 293/293/293 294/294/294 295/295/295 296/296/296
f 318/318/318 319/319/319 320/320/320 321/321/321
f 322/322/322 323/323/323 324/324/324
f 334/334/334 335/335/335 336/336/336
usemtl floor
f 1/1/1 2/2/2 3/3/3
f 13/13/13 14/14/14 15/15/15 16/16/16
f 29/29/29 30/30/30 31/31/31 32/32/32
f 45/45/45 46/46/46 47/47/47 48/48/48
f 49/49/49 50/50/50 51/51/51
f 73/73/73 74/74/74 75/75/75 76/76/76
f 89/89/89 90/90/90 91/91/91 92/92/92
f 93/93/93 94/94/94 95/95/95
f 117/117/117 118/118/118 119/119/119 120/120/120
f 133/133/133 134/134/134 135/135/135 136/136/136
f 149/149/149 150/150/150 151/151/151
f 165/165/165 166/166/166 167/167/167
f 177/177/177 178/178/178 179/179/179 180/180/180
f 217/217/217 218/218/218 219/219/219 220/220/220
f 233/233/233 234/234/234 235/235/235 236/236/236
f 249/249/249 250/250/250 251/251/251 252/252/252
f 265/265/265 266/266/266 267/267/267 268/268/268
f 281/281/281 282/282/282 283/283/283 284/284/284
f 297/297/297 298/298/298 299/299/299 300/300/300
f 301/301/301 302/302/302 303/303/303
f 325/325/325 326/326/326 327/327/327
usemtl frame
f 197/197/197 198/198/198 199/199/199 200/200/200
f 201/201/201 202/202/202 203/203/203 204/204/204
f 209/209/209 210/210/210 211/211/211 212/212/212
f 213/213/213 214/214/214 215/215/215 216/216/216
f 341/341/341 342/342/342 343/343/343 344/344/344
f 345/345/345 346/346/346 347/347/347 348/348/348
f 357/357/357 358/358/358 359/359/359 360/360/360
f 361/361/361 362/362/362 363/363/363 364/364/364
f 373/373/373 374/374/374 375/375/375 376/376/376
f 377/377/377 378/378/378 379/379/379 380/380/380
f 389/389/389 390/390/390 391/391/391 392/392/392
f 393/393/393 394/394/394 395/395/395 396/396/396
f 405/405/405 406/406/406 407/407/407 408/408/408
f 409/409/409 410/410/410 411/411/411 412/412/412
f 421/421/421 422/422/422 423/423/423 424/424/424
f 425/425/425 426/426/426 427/427/427 428/428/428
f 437/437/437 438/438/438 439/439/439 440/440/440
f 441/441/441 442/442/442 443/443/443 444/444/444
usemtl inner
f 161/161/161 162/162/162 163/163/163 164/164/164
f 349/349/349 350/350/350 351/351/351 352/352/352
f 365/365/365 366/366/366 367/367/367 368/368/368
f 381/381/381 382/382/382 383/383/383 384/384/384
f 397/397/397 398/398/398 399/399/399 400/400/400
f 413/413/413 414/414/414 415/415/415 416/416/416
f 429/429/429 430/430/430 431/431/431 432/432/432
f 445/445/445 446/446/446 447/447/447 448/448/448
usemtl roof
f 7/7/7 8/8/8 9/9/9
f 21/21/21 22/22/22 23/23/23 24/24/24
f 37/37/37 38/38/38 39/39/39 40/40/40
f 59/59/59 60/60/60 61/61/61 62/62/62
f 63/63/63 64/64/64 65/65/65
f 81/81/81 82/82/82 83/83/83 84/84/84
f 103/103/103 104/104/104 105/105/105 106/106/106
f 107/107/107 108/108/108 109/109/109
f 125/125/125 126/126/126 127/127/127 128/128/128
f 141/141/141 142/142/142 143/143/143 144/144/144
f 155/155/155 156/156/156 157/157/157
f 171/171/171 172/172/172 173/173/173
f 185/185/185 186/186/186 187/187/187 188/188/188
f 225/225/225 226/226/226 227/227/227 228/228/228
f 241/241/241 242/242/242 243/243/243 244/244/244
f 257/257/257 258/258/258 259/259/259 260/260/260
f 273/273/273 274/274/274 275/275/275 276/276/276
f 289/289/289 290/290/290 291/291/291 292/292/292
f 311/311/311 312/312/312 313/313/313 314/314/314
f 315/315/315 316/316/316 317/317/317
f 331/331/331 332/332/332 333/333/333
usemtl skin
f 193/193/193 194/194/194 195/195/195 196/196/196
f 205/205/205 206/206/206 207/207/207 208/208/208
f 337/337/337 338/338/338 339/339/339 340/340/340
f 353/353/353 354/354/354 355/355/355 356/356/356
f 369/369/369 370/370/370 371/371/371 372/372/372
f 385/385/385 386/386/386 387/387/387 388/388/388
f 401/401/401 402/402/402 403/403/403 404/404/404
f 417/417/417 418/418/418 419/419/419 420/420/420
f 433/433/433 434/434/434 435/435/435 436/436/436
usemtl under
f 4/4/4 5/5/5 6/6/6
f 17/17/17 18/18/18 19/19/19 20/20/20
f 33/33/33 34/34/34 35/35/35 36/36/36
f 52/52/52 53/53/53 54/54/54 55/55/55
f 56/56/56 57/57/57 58/58/58
f 77/77/77 78/78/78 79/79/79 80/80/80
f 96/96/96 97/97/97 98/98/98 99/99/99
f 100/100/100 101/101/101 102/102/102
f 121/121/121 122/122/122 123/123/123 124/124/124
f 137/137/137 138/138/138 139/139/139 140/140/140
f 152/152/152 153/153/153 154/154/154
f 168/168/168 169/169/169 170/170/170
f 181/181/181 182/182/182 183/183/183 184/184/184
f 221/221/221 222/222/222 223/223/223 224/224/224
f 237/237/237 238/238/238 239/239/239 240/240/240
f 253/253/253 254/254/254 255/255/255 256/256/256
f 269/269/269 270/270/270 271/271/271 272/272/272
f 285/285/285 286/286/286 287/287/287 288/288/288
f 304/304/304 305/305/305 306/306/306 307/307/307
f 308/308/308 309/309/309 310/310/310
f 328/328/328 329/329/329 330/330/330
