# Generated by dev-env-utils/scripts/gen_transit_airside.py -- do not edit
mtllib jet_bridge_large.mtl
o airport_jet_bridge_large_turn_c3
v 0.11912 0.09375 1.00000
v 0.00000 0.09375 0.59431
v 0.00000 0.09375 1.00000
v 0.00000 0.00000 1.00000
v 0.00000 0.00000 0.59431
v 0.11912 0.00000 1.00000
v 0.11912 4.24547 1.00000
v 0.00000 4.24547 0.59431
v 0.00000 4.24547 1.00000
v 0.00000 4.09375 1.00000
v 0.00000 4.09375 0.59431
v 0.11912 4.09375 1.00000
v 0.02961 0.09375 0.00000
v 0.00000 0.09375 0.00000
v 0.00000 0.09375 0.59431
v 0.11912 0.09375 1.00000
v 0.27221 0.09375 1.00000
v 0.02961 0.09375 0.00000
v 0.11912 0.09375 1.00000
v 0.11912 0.00000 1.00000
v 0.00000 0.00000 0.59431
v 0.00000 0.00000 0.00000
v 0.02961 0.00000 0.00000
v 0.11912 0.00000 1.00000
v 0.02961 0.00000 0.00000
v 0.27221 0.00000 1.00000
v 0.02961 4.24547 0.00000
v 0.00000 4.24547 0.00000
v 0.00000 4.24547 0.59431
v 0.11912 4.24547 1.00000
v 0.27221 4.24547 1.00000
v 0.02961 4.24547 0.00000
v 0.11912 4.24547 1.00000
v 0.11912 4.09375 1.00000
v 0.00000 4.09375 0.59431
v 0.00000 4.09375 0.00000
v 0.02961 4.09375 0.00000
v 0.11912 4.09375 1.00000
v 0.02961 4.09375 0.00000
v 0.27221 4.09375 1.00000
v 0.40326 0.09375 1.00000
v 0.20435 0.09375 0.00000
v 0.02961 0.09375 0.00000
v 0.27221 0.09375 1.00000
v 0.27221 0.00000 1.00000
v 0.02961 0.00000 0.00000
v 0.20435 0.00000 0.00000
v 0.40326 0.00000 1.00000
v 0.40326 4.24547 1.00000
v 0.20435 4.24547 0.00000
v 0.02961 4.24547 0.00000
v 0.27221 4.24547 1.00000
v 0.27221 4.09375 1.00000
v 0.02961 4.09375 0.00000
v 0.20435 4.09375 0.00000
v 0.40326 4.09375 1.00000
v 0.42180 0.09375 1.00000
v 0.22906 0.09375 0.00000
v 0.20435 0.09375 0.00000
v 0.40326 0.09375 1.00000
v 0.40326 0.00000 1.00000
v 0.20435 0.00000 0.00000
v 0.22906 0.00000 0.00000
v 0.42180 0.00000 1.00000
v 0.42180 4.24547 1.00000
v 0.22906 4.24547 0.00000
v 0.20435 4.24547 0.00000
v 0.40326 4.24547 1.00000
v 0.40326 4.09375 1.00000
v 0.20435 4.09375 0.00000
v 0.22906 4.09375 0.00000
v 0.42180 4.09375 1.00000
v 0.56867 0.09375 1.00000
v 0.42489 0.09375 0.00000
v 0.22906 0.09375 0.00000
v 0.42180 0.09375 1.00000
v 0.42180 0.00000 1.00000
v 0.22906 0.00000 0.00000
v 0.42489 0.00000 0.00000
v 0.56867 0.00000 1.00000
v 0.56867 4.24547 1.00000
v 0.42489 4.24547 0.00000
v 0.22906 4.24547 0.00000
v 0.42180 4.24547 1.00000
v 0.42180 4.09375 1.00000
v 0.22906 4.09375 0.00000
v 0.42489 4.09375 0.00000
v 0.56867 4.09375 1.00000
v 0.71353 0.09375 1.00000
v 0.61805 0.09375 0.00000
v 0.42489 0.09375 0.00000
v 0.56867 0.09375 1.00000
v 0.56867 0.00000 1.00000
v 0.42489 0.00000 0.00000
v 0.61805 0.00000 0.00000
v 0.71353 0.00000 1.00000
v 0.71353 4.24547 1.00000
v 0.61805 4.24547 0.00000
v 0.42489 4.24547 0.00000
v 0.56867 4.24547 1.00000
v 0.56867 4.09375 1.00000
v 0.42489 4.09375 0.00000
v 0.61805 4.09375 0.00000
v 0.71353 4.09375 1.00000
v 0.85709 0.09375 1.00000
v 0.80946 0.09375 0.00000
v 0.61805 0.09375 0.00000
v 0.71353 0.09375 1.00000
v 0.71353 0.00000 1.00000
v 0.61805 0.00000 0.00000
v 0.80946 0.00000 0.00000
v 0.85709 0.00000 1.00000
v 0.85709 4.24547 1.00000
v 0.80946 4.24547 0.00000
v 0.61805 4.24547 0.00000
v 0.71353 4.24547 1.00000
v 0.71353 4.09375 1.00000
v 0.61805 4.09375 0.00000
v 0.80946 4.09375 0.00000
v 0.85709 4.09375 1.00000
v 1.00000 0.09375 1.00000
v 1.00000 0.09375 0.00000
v 0.80946 0.09375 0.00000
v 0.85709 0.09375 1.00000
v 0.85709 0.00000 1.00000
v 0.80946 0.00000 0.00000
v 1.00000 0.00000 0.00000
v 1.00000 0.00000 1.00000
v 1.00000 4.24547 1.00000
v 1.00000 4.24547 0.00000
v 0.80946 4.24547 0.00000
v 0.85709 4.24547 1.00000
v 0.85709 4.09375 1.00000
v 0.80946 4.09375 0.00000
v 1.00000 4.09375 0.00000
v 1.00000 4.09375 1.00000
v 0.02961 0.09375 0.00000
v 0.00000 0.09375 -0.12206
v 0.00000 0.09375 0.00000
v 0.00000 0.00000 0.00000
v 0.00000 0.00000 -0.12206
v 0.02961 0.00000 0.00000
v 0.02961 4.24547 0.00000
v 0.00000 4.24547 -0.12206
v 0.00000 4.24547 0.00000
v 0.00000 4.09375 0.00000
v 0.00000 4.09375 -0.12206
v 0.02961 4.09375 0.00000
v 0.00544 0.09375 -1.00000
v 0.00000 0.09375 -1.00000
v 0.00000 0.09375 -0.12206
v 0.02961 0.09375 0.00000
v 0.20435 0.09375 0.00000
v 0.00544 0.09375 -1.00000
v 0.02961 0.09375 0.00000
v 0.02961 0.00000 0.00000
v 0.00000 0.00000 -0.12206
v 0.00000 0.00000 -1.00000
v 0.00544 0.00000 -1.00000
v 0.02961 0.00000 0.00000
v 0.00544 0.00000 -1.00000
v 0.20435 0.00000 0.00000
v 0.00544 4.24547 -1.00000
v 0.00000 4.24547 -1.00000
v 0.00000 4.24547 -0.12206
v 0.02961 4.24547 0.00000
v 0.20435 4.24547 0.00000
v 0.00544 4.24547 -1.00000
v 0.02961 4.24547 0.00000
v 0.02961 4.09375 0.00000
v 0.00000 4.09375 -0.12206
v 0.00000 4.09375 -1.00000
v 0.00544 4.09375 -1.00000
v 0.02961 4.09375 0.00000
v 0.00544 4.09375 -1.00000
v 0.20435 4.09375 0.00000
v 0.22906 0.09375 0.00000
v 0.03633 0.09375 -1.00000
v 0.00544 0.09375 -1.00000
v 0.20435 0.09375 0.00000
v 0.20435 0.00000 0.00000
v 0.00544 0.00000 -1.00000
v 0.03633 0.00000 -1.00000
v 0.22906 0.00000 0.00000
v 0.22906 4.24547 0.00000
v 0.03633 4.24547 -1.00000
v 0.00544 4.24547 -1.00000
v 0.20435 4.24547 0.00000
v 0.20435 4.09375 0.00000
v 0.00544 4.09375 -1.00000
v 0.03633 4.09375 -1.00000
v 0.22906 4.09375 0.00000
v 0.42489 0.09375 0.00000
v 0.28111 0.09375 -1.00000
v 0.03633 0.09375 -1.00000
v 0.22906 0.09375 0.00000
v 0.22906 0.00000 0.00000
v 0.03633 0.00000 -1.00000
v 0.28111 0.00000 -1.00000
v 0.42489 0.00000 0.00000
v 0.42489 4.24547 0.00000
v 0.28111 4.24547 -1.00000
v 0.03633 4.24547 -1.00000
v 0.22906 4.24547 0.00000
v 0.22906 4.09375 0.00000
v 0.03633 4.09375 -1.00000
v 0.28111 4.09375 -1.00000
v 0.42489 4.09375 0.00000
v 0.61805 0.09375 0.00000
v 0.52256 0.09375 -1.00000
v 0.28111 0.09375 -1.00000
v 0.42489 0.09375 0.00000
v 0.42489 0.00000 0.00000
v 0.28111 0.00000 -1.00000
v 0.52256 0.00000 -1.00000
v 0.61805 0.00000 0.00000
v 0.61805 4.24547 0.00000
v 0.52256 4.24547 -1.00000
v 0.28111 4.24547 -1.00000
v 0.42489 4.24547 0.00000
v 0.42489 4.09375 0.00000
v 0.28111 4.09375 -1.00000
v 0.52256 4.09375 -1.00000
v 0.61805 4.09375 0.00000
v 0.80946 0.09375 0.00000
v 0.76182 0.09375 -1.00000
v 0.52256 0.09375 -1.00000
v 0.61805 0.09375 0.00000
v 0.61805 0.00000 0.00000
v 0.52256 0.00000 -1.00000
v 0.76182 0.00000 -1.00000
v 0.80946 0.00000 0.00000
v 0.80946 4.24547 0.00000
v 0.76182 4.24547 -1.00000
v 0.52256 4.24547 -1.00000
v 0.61805 4.24547 0.00000
v 0.61805 4.09375 0.00000
v 0.52256 4.09375 -1.00000
v 0.76182 4.09375 -1.00000
v 0.80946 4.09375 0.00000
v 1.00000 0.09375 0.00000
v 1.00000 0.09375 -1.00000
v 0.76182 0.09375 -1.00000
v 0.80946 0.09375 0.00000
v 0.80946 0.00000 0.00000
v 0.76182 0.00000 -1.00000
v 1.00000 0.00000 -1.00000
v 1.00000 0.00000 0.00000
v 1.00000 4.24547 0.00000
v 1.00000 4.24547 -1.00000
v 0.76182 4.24547 -1.00000
v 0.80946 4.24547 0.00000
v 0.80946 4.09375 0.00000
v 0.76182 4.09375 -1.00000
v 1.00000 4.09375 -1.00000
v 1.00000 4.09375 0.00000
v 0.00000 0.09375 -0.89851
v 0.02455 0.09375 -0.90393
v 0.02455 4.09375 -0.90393
v 0.00000 4.09375 -0.89851
v 0.02455 4.09375 -0.90393
v 0.02455 0.09375 -0.90393
v 0.05374 0.09375 -0.90964
v 0.05374 4.09375 -0.90964
v 0.05374 4.09375 -0.90964
v 0.05374 0.09375 -0.90964
v 0.28843 0.09375 -0.94911
v 0.28843 4.09375 -0.94911
v 0.28843 4.09375 -0.94911
v 0.28843 0.09375 -0.94911
v 0.52472 0.09375 -0.97736
v 0.52472 4.09375 -0.97736
v 0.52472 4.09375 -0.97736
v 0.52472 0.09375 -0.97736
v 0.76209 0.09375 -0.99434
v 0.76209 4.09375 -0.99434
v 0.76209 4.09375 -0.99434
v 0.76209 0.09375 -0.99434
v 1.00000 0.09375 -1.00000
v 1.00000 4.09375 -1.00000
v 0.00544 0.09375 -1.00000
v 0.00000 0.09375 -1.02734
v 0.00000 0.09375 -1.00000
v 0.00000 0.00000 -1.00000
v 0.00000 0.00000 -1.02734
v 0.00544 0.00000 -1.00000
v 0.00544 4.24547 -1.00000
v 0.00000 4.24547 -1.02734
v 0.00000 4.24547 -1.00000
v 0.00000 4.09375 -1.00000
v 0.00000 4.09375 -1.02734
v 0.00544 4.09375 -1.00000
v 0.02438 0.09375 -1.06201
v 0.00000 0.09375 -1.05724
v 0.00000 0.09375 -1.02734
v 0.00544 0.09375 -1.00000
v 0.03633 0.09375 -1.00000
v 0.02438 0.09375 -1.06201
v 0.00544 0.09375 -1.00000
v 0.00544 0.00000 -1.00000
v 0.00000 0.00000 -1.02734
v 0.00000 0.00000 -1.05724
v 0.02438 0.00000 -1.06201
v 0.00544 0.00000 -1.00000
v 0.02438 0.00000 -1.06201
v 0.03633 0.00000 -1.00000
v 0.02438 4.24547 -1.06201
v 0.00000 4.24547 -1.05724
v 0.00000 4.24547 -1.02734
v 0.00544 4.24547 -1.00000
v 0.03633 4.24547 -1.00000
v 0.02438 4.24547 -1.06201
v 0.00544 4.24547 -1.00000
v 0.00544 4.09375 -1.00000
v 0.00000 4.09375 -1.02734
v 0.00000 4.09375 -1.05724
v 0.02438 4.09375 -1.06201
v 0.00544 4.09375 -1.00000
v 0.02438 4.09375 -1.06201
v 0.03633 4.09375 -1.00000
v 0.28111 0.09375 -1.00000
v 0.26634 0.09375 -1.10270
v 0.02438 0.09375 -1.06201
v 0.03633 0.09375 -1.00000
v 0.03633 0.00000 -1.00000
v 0.02438 0.00000 -1.06201
v 0.26634 0.00000 -1.10270
v 0.28111 0.00000 -1.00000
v 0.28111 4.24547 -1.00000
v 0.26634 4.24547 -1.10270
v 0.02438 4.24547 -1.06201
v 0.03633 4.24547 -1.00000
v 0.03633 4.09375 -1.00000
v 0.02438 4.09375 -1.06201
v 0.26634 4.09375 -1.10270
v 0.28111 4.09375 -1.00000
v 0.52256 0.09375 -1.00000
v 0.50997 0.09375 -1.13183
v 0.26634 0.09375 -1.10270
v 0.28111 0.09375 -1.00000
v 0.28111 0.00000 -1.00000
v 0.26634 0.00000 -1.10270
v 0.50997 0.00000 -1.13183
v 0.52256 0.00000 -1.00000
v 0.52256 4.24547 -1.00000
v 0.50997 4.24547 -1.13183
v 0.26634 4.24547 -1.10270
v 0.28111 4.24547 -1.00000
v 0.28111 4.09375 -1.00000
v 0.26634 4.09375 -1.10270
v 0.50997 4.09375 -1.13183
v 0.52256 4.09375 -1.00000
v 0.76182 0.09375 -1.00000
v 0.75471 0.09375 -1.14934
v 0.50997 0.09375 -1.13183
v 0.52256 0.09375 -1.00000
v 0.52256 0.00000 -1.00000
v 0.50997 0.00000 -1.13183
v 0.75471 0.00000 -1.14934
v 0.76182 0.00000 -1.00000
v 0.76182 4.24547 -1.00000
v 0.75471 4.24547 -1.14934
v 0.50997 4.24547 -1.13183
v 0.52256 4.24547 -1.00000
v 0.52256 4.09375 -1.00000
v 0.50997 4.09375 -1.13183
v 0.75471 4.09375 -1.14934
v 0.76182 4.09375 -1.00000
v 1.00000 0.09375 -1.00000
v 1.00000 0.09375 -1.15517
v 0.75471 0.09375 -1.14934
v 0.76182 0.09375 -1.00000
v 0.76182 0.00000 -1.00000
v 0.75471 0.00000 -1.14934
v 1.00000 0.00000 -1.15517
v 1.00000 0.00000 -1.00000
v 1.00000 4.24547 -1.00000
v 1.00000 4.24547 -1.15517
v 0.75471 4.24547 -1.14934
v 0.76182 4.24547 -1.00000
v 0.76182 4.09375 -1.00000
v 0.75471 4.09375 -1.14934
v 1.00000 4.09375 -1.15517
v 1.00000 4.09375 -1.00000
v 0.00000 4.09375 -1.05724
v 0.02438 4.09375 -1.06201
v 0.02438 0.09375 -1.06201
v 0.00000 0.09375 -1.05724
v 0.00000 0.09375 -1.05724
v 0.02438 0.09375 -1.06201
v 0.02438 0.00000 -1.06201
v 0.00000 0.00000 -1.05724
v 0.00000 4.24547 -1.05724
v 0.02438 4.24547 -1.06201
v 0.02438 4.09375 -1.06201
v 0.00000 4.09375 -1.05724
v 0.26634 4.09375 -1.10270
v 0.26634 0.09375 -1.10270
v 0.02438 0.09375 -1.06201
v 0.02438 4.09375 -1.06201
v 0.26634 0.09375 -1.10270
v 0.26634 0.00000 -1.10270
v 0.02438 0.00000 -1.06201
v 0.02438 0.09375 -1.06201
v 0.26634 4.24547 -1.10270
v 0.26634 4.09375 -1.10270
v 0.02438 4.09375 -1.06201
v 0.02438 4.24547 -1.06201
v 0.50997 4.09375 -1.13183
v 0.50997 0.09375 -1.13183
v 0.26634 0.09375 -1.10270
v 0.26634 4.09375 -1.10270
v 0.50997 0.09375 -1.13183
v 0.50997 0.00000 -1.13183
v 0.26634 0.00000 -1.10270
v 0.26634 0.09375 -1.10270
v 0.50997 4.24547 -1.13183
v 0.50997 4.09375 -1.13183
v 0.26634 4.09375 -1.10270
v 0.26634 4.24547 -1.10270
v 0.75471 4.09375 -1.14934
v 0.75471 0.09375 -1.14934
v 0.50997 0.09375 -1.13183
v 0.50997 4.09375 -1.13183
v 0.75471 0.09375 -1.14934
v 0.75471 0.00000 -1.14934
v 0.50997 0.00000 -1.13183
v 0.50997 0.09375 -1.13183
v 0.75471 4.24547 -1.14934
v 0.75471 4.09375 -1.14934
v 0.50997 4.09375 -1.13183
v 0.50997 4.24547 -1.13183
v 1.00000 4.09375 -1.15517
v 1.00000 0.09375 -1.15517
v 0.75471 0.09375 -1.14934
v 0.75471 4.09375 -1.14934
v 1.00000 0.09375 -1.15517
v 1.00000 0.00000 -1.15517
v 0.75471 0.00000 -1.14934
v 0.75471 0.09375 -1.14934
v 1.00000 4.24547 -1.15517
v 1.00000 4.09375 -1.15517
v 0.75471 4.09375 -1.14934
v 0.75471 4.24547 -1.14934
vt 0.77978 0.50000
vt 0.75000 0.39858
vt 0.75000 0.50000
vt 0.75000 0.50000
vt 0.75000 0.39858
vt 0.77978 0.50000
vt 0.77978 0.50000
vt 0.75000 0.39858
vt 0.75000 0.50000
vt 0.19899 0.09292
vt 0.25747 0.12455
vt 0.19361 0.12455
vt 0.75740 0.25000
vt 0.75000 0.25000
vt 0.75000 0.39858
vt 0.77978 0.50000
vt 0.81805 0.50000
vt 0.75740 0.25000
vt 0.77978 0.50000
vt 0.77978 0.50000
vt 0.75000 0.39858
vt 0.75000 0.25000
vt 0.75740 0.25000
vt 0.77978 0.50000
vt 0.75740 0.25000
vt 0.81805 0.50000
vt 0.75740 0.25000
vt 0.75000 0.25000
vt 0.75000 0.39858
vt 0.77978 0.50000
vt 0.81805 0.50000
vt 0.75740 0.25000
vt 0.77978 0.50000
vt 0.19361 0.12455
vt 0.25747 0.12455
vt 0.34411 0.16009
vt 0.34305 0.16620
vt 0.19361 0.12455
vt 0.34305 0.16620
vt 0.18762 0.16620
vt 0.85082 0.50000
vt 0.80109 0.25000
vt 0.75740 0.25000
vt 0.81805 0.50000
vt 0.81805 0.50000
vt 0.75740 0.25000
vt 0.80109 0.25000
vt 0.85082 0.50000
vt 0.85082 0.50000
vt 0.80109 0.25000
vt 0.75740 0.25000
vt 0.81805 0.50000
vt 0.18762 0.16620
vt 0.34305 0.16620
vt 0.33736 0.20264
vt 0.18336 0.20264
vt 0.85545 0.50000
vt 0.80727 0.25000
vt 0.80109 0.25000
vt 0.85082 0.50000
vt 0.85082 0.50000
vt 0.80109 0.25000
vt 0.80727 0.25000
vt 0.85545 0.50000
vt 0.85545 0.50000
vt 0.80727 0.25000
vt 0.80109 0.25000
vt 0.85082 0.50000
vt 0.18336 0.20264
vt 0.33736 0.20264
vt 0.33664 0.20785
vt 0.18282 0.20785
vt 0.89217 0.50000
vt 0.85622 0.25000
vt 0.80727 0.25000
vt 0.85545 0.50000
vt 0.85545 0.50000
vt 0.80727 0.25000
vt 0.85622 0.25000
vt 0.89217 0.50000
vt 0.89217 0.50000
vt 0.85622 0.25000
vt 0.80727 0.25000
vt 0.85545 0.50000
vt 0.18282 0.20785
vt 0.33664 0.20785
vt 0.33173 0.24950
vt 0.17914 0.24950
vt 0.92838 0.50000
vt 0.90451 0.25000
vt 0.85622 0.25000
vt 0.89217 0.50000
vt 0.89217 0.50000
vt 0.85622 0.25000
vt 0.90451 0.25000
vt 0.92838 0.50000
vt 0.92838 0.50000
vt 0.90451 0.25000
vt 0.85622 0.25000
vt 0.89217 0.50000
vt 0.17914 0.24950
vt 0.33173 0.24950
vt 0.32827 0.29115
vt 0.17654 0.29115
vt 0.96427 0.50000
vt 0.95236 0.25000
vt 0.90451 0.25000
vt 0.92838 0.50000
vt 0.92838 0.50000
vt 0.90451 0.25000
vt 0.95236 0.25000
vt 0.96427 0.50000
vt 0.96427 0.50000
vt 0.95236 0.25000
vt 0.90451 0.25000
vt 0.92838 0.50000
vt 0.17654 0.29115
vt 0.32827 0.29115
vt 0.32621 0.33280
vt 0.17499 0.33280
vt 1.00000 0.50000
vt 1.00000 0.25000
vt 0.95236 0.25000
vt 0.96427 0.50000
vt 0.96427 0.50000
vt 0.95236 0.25000
vt 1.00000 0.25000
vt 1.00000 0.50000
vt 1.00000 0.50000
vt 1.00000 0.25000
vt 0.95236 0.25000
vt 0.96427 0.50000
vt 0.17499 0.33280
vt 0.32621 0.33280
vt 0.32552 0.37445
vt 0.17448 0.37445
vt 0.75740 0.25000
vt 0.75000 0.21949
vt 0.75000 0.25000
vt 0.75000 0.25000
vt 0.75000 0.21949
vt 0.75740 0.25000
vt 0.75740 0.25000
vt 0.75000 0.21949
vt 0.75000 0.25000
vt 0.34411 0.16009
vt 0.36202 0.16620
vt 0.34305 0.16620
vt 0.75136 0.00000
vt 0.75000 0.00000
vt 0.75000 0.21949
vt 0.75740 0.25000
vt 0.80109 0.25000
vt 0.75136 0.00000
vt 0.75740 0.25000
vt 0.75740 0.25000
vt 0.75000 0.21949
vt 0.75000 0.00000
vt 0.75136 0.00000
vt 0.75740 0.25000
vt 0.75136 0.00000
vt 0.80109 0.25000
vt 0.75136 0.00000
vt 0.75000 0.00000
vt 0.75000 0.21949
vt 0.75740 0.25000
vt 0.80109 0.25000
vt 0.75136 0.00000
vt 0.75740 0.25000
vt 0.34305 0.16620
vt 0.36202 0.16620
vt 0.49152 0.20173
vt 0.49136 0.20264
vt 0.34305 0.16620
vt 0.49136 0.20264
vt 0.33736 0.20264
vt 0.80727 0.25000
vt 0.75908 0.00000
vt 0.75136 0.00000
vt 0.80109 0.25000
vt 0.80109 0.25000
vt 0.75136 0.00000
vt 0.75908 0.00000
vt 0.80727 0.25000
vt 0.80727 0.25000
vt 0.75908 0.00000
vt 0.75136 0.00000
vt 0.80109 0.25000
vt 0.33736 0.20264
vt 0.49136 0.20264
vt 0.49046 0.20785
vt 0.33664 0.20785
vt 0.85622 0.25000
vt 0.82028 0.00000
vt 0.75908 0.00000
vt 0.80727 0.25000
vt 0.80727 0.25000
vt 0.75908 0.00000
vt 0.82028 0.00000
vt 0.85622 0.25000
vt 0.85622 0.25000
vt 0.82028 0.00000
vt 0.75908 0.00000
vt 0.80727 0.25000
vt 0.33664 0.20785
vt 0.49046 0.20785
vt 0.48433 0.24950
vt 0.33173 0.24950
vt 0.90451 0.25000
vt 0.88064 0.00000
vt 0.82028 0.00000
vt 0.85622 0.25000
vt 0.85622 0.25000
vt 0.82028 0.00000
vt 0.88064 0.00000
vt 0.90451 0.25000
vt 0.90451 0.25000
vt 0.88064 0.00000
vt 0.82028 0.00000
vt 0.85622 0.25000
vt 0.33173 0.24950
vt 0.48433 0.24950
vt 0.48000 0.29115
vt 0.32827 0.29115
vt 0.95236 0.25000
vt 0.94046 0.00000
vt 0.88064 0.00000
vt 0.90451 0.25000
vt 0.90451 0.25000
vt 0.88064 0.00000
vt 0.94046 0.00000
vt 0.95236 0.25000
vt 0.95236 0.25000
vt 0.94046 0.00000
vt 0.88064 0.00000
vt 0.90451 0.25000
vt 0.32827 0.29115
vt 0.48000 0.29115
vt 0.47742 0.33280
vt 0.32621 0.33280
vt 1.00000 0.25000
vt 1.00000 0.00000
vt 0.94046 0.00000
vt 0.95236 0.25000
vt 0.95236 0.25000
vt 0.94046 0.00000
vt 1.00000 0.00000
vt 1.00000 0.25000
vt 1.00000 0.25000
vt 1.00000 0.00000
vt 0.94046 0.00000
vt 0.95236 0.25000
vt 0.32621 0.33280
vt 0.47742 0.33280
vt 0.47656 0.37445
vt 0.32552 0.37445
vt 0.48720 0.90625
vt 0.50000 0.90625
vt 0.50000 0.00000
vt 0.48720 0.00000
vt 0.00000 0.00000
vt 0.00000 0.90625
vt 0.01515 0.90625
vt 0.01515 0.00000
vt 0.01515 0.00000
vt 0.01515 0.90625
vt 0.13636 0.90625
vt 0.13636 0.00000
vt 0.13636 0.00000
vt 0.13636 0.90625
vt 0.25758 0.90625
vt 0.25758 0.00000
vt 0.25758 0.00000
vt 0.25758 0.90625
vt 0.37879 0.90625
vt 0.37879 0.00000
vt 0.37879 0.00000
vt 0.37879 0.90625
vt 0.50000 0.90625
vt 0.50000 0.00000
vt 0.75136 1.00000
vt 0.75000 0.99317
vt 0.75000 1.00000
vt 0.75000 1.00000
vt 0.75000 0.99317
vt 0.75136 1.00000
vt 0.75136 1.00000
vt 0.75000 0.99317
vt 0.75000 1.00000
vt 0.49152 0.20173
vt 0.49557 0.20264
vt 0.49136 0.20264
vt 0.75609 0.98450
vt 0.75000 0.98569
vt 0.75000 0.99317
vt 0.75136 1.00000
vt 0.75908 1.00000
vt 0.75609 0.98450
vt 0.75136 1.00000
vt 0.75136 1.00000
vt 0.75000 0.99317
vt 0.75000 0.98569
vt 0.75609 0.98450
vt 0.75136 1.00000
vt 0.75609 0.98450
vt 0.75908 1.00000
vt 0.75609 0.98450
vt 0.75000 0.98569
vt 0.75000 0.99317
vt 0.75136 1.00000
vt 0.75908 1.00000
vt 0.75609 0.98450
vt 0.75136 1.00000
vt 0.49136 0.20264
vt 0.49557 0.20264
vt 0.50000 0.20363
vt 0.50000 0.20785
vt 0.49136 0.20264
vt 0.50000 0.20785
vt 0.49046 0.20785
vt 0.82028 1.00000
vt 0.81659 0.97432
vt 0.75609 0.98450
vt 0.75908 1.00000
vt 0.75908 1.00000
vt 0.75609 0.98450
vt 0.81659 0.97432
vt 0.82028 1.00000
vt 0.82028 1.00000
vt 0.81659 0.97432
vt 0.75609 0.98450
vt 0.75908 1.00000
vt 0.49046 0.20785
vt 0.50000 0.20785
vt 0.50000 0.24950
vt 0.48433 0.24950
vt 0.88064 1.00000
vt 0.87749 0.96704
vt 0.81659 0.97432
vt 0.82028 1.00000
vt 0.82028 1.00000
vt 0.81659 0.97432
vt 0.87749 0.96704
vt 0.88064 1.00000
vt 0.88064 1.00000
vt 0.87749 0.96704
vt 0.81659 0.97432
vt 0.82028 1.00000
vt 0.48433 0.24950
vt 0.50000 0.24950
vt 0.50000 0.29115
vt 0.48000 0.29115
vt 0.94046 1.00000
vt 0.93868 0.96267
vt 0.87749 0.96704
vt 0.88064 1.00000
vt 0.88064 1.00000
vt 0.87749 0.96704
vt 0.93868 0.96267
vt 0.94046 1.00000
vt 0.94046 1.00000
vt 0.93868 0.96267
vt 0.87749 0.96704
vt 0.88064 1.00000
vt 0.48000 0.29115
vt 0.50000 0.29115
vt 0.50000 0.33280
vt 0.47742 0.33280
vt 1.00000 1.00000
vt 1.00000 0.96121
vt 0.93868 0.96267
vt 0.94046 1.00000
vt 0.94046 1.00000
vt 0.93868 0.96267
vt 1.00000 0.96121
vt 1.00000 1.00000
vt 1.00000 1.00000
vt 1.00000 0.96121
vt 0.93868 0.96267
vt 0.94046 1.00000
vt 0.47742 0.33280
vt 0.50000 0.33280
vt 0.50000 0.37445
vt 0.47656 0.37445
vt 0.00288 0.00000
vt 0.01515 0.00000
vt 0.01515 0.90625
vt 0.00288 0.90625
vt 0.00576 0.00000
vt 0.03031 0.00000
vt 0.03031 0.09375
vt 0.00576 0.09375
vt 0.00576 0.00000
vt 0.03031 0.00000
vt 0.03031 0.09375
vt 0.00576 0.09375
vt 0.13636 0.00000
vt 0.13636 0.90625
vt 0.01515 0.90625
vt 0.01515 0.00000
vt 0.27273 0.00000
vt 0.27273 0.09375
vt 0.03031 0.09375
vt 0.03031 0.00000
vt 0.27273 0.00000
vt 0.27273 0.09375
vt 0.03031 0.09375
vt 0.03031 0.00000
vt 0.25758 0.00000
vt 0.25758 0.90625
vt 0.13636 0.90625
vt 0.13636 0.00000
vt 0.51515 0.00000
vt 0.51515 0.09375
vt 0.27273 0.09375
vt 0.27273 0.00000
vt 0.51515 0.00000
vt 0.51515 0.09375
vt 0.27273 0.09375
vt 0.27273 0.00000
vt 0.37879 0.00000
vt 0.37879 0.90625
vt 0.25758 0.90625
vt 0.25758 0.00000
vt 0.75758 0.00000
vt 0.75758 0.09375
vt 0.51515 0.09375
vt 0.51515 0.00000
vt 0.75758 0.00000
vt 0.75758 0.09375
vt 0.51515 0.09375
vt 0.51515 0.00000
vt 0.50000 0.00000
vt 0.50000 0.90625
vt 0.37879 0.90625
vt 0.37879 0.00000
vt 1.00000 0.00000
vt 1.00000 0.09375
vt 0.75758 0.09375
vt 0.75758 0.00000
vt 1.00000 0.00000
vt 1.00000 0.09375
vt 0.75758 0.09375
vt 0.75758 0.00000
vn 0.00000 1.00000 0.00000
vn 0.00000 1.00000 0.00000
vn 0.00000 1.00000 0.00000
vn 0.00000 -1.00000 0.00000
vn 0.00000 -1.00000 0.00000
vn 0.00000 -1.00000 0.00000
vn 0.00000 1.00000 0.00000
vn 0.00000 1.00000 0.00000
vn 0.00000 1.00000 0.00000
vn 0.00000 -1.00000 0.00000
vn 0.00000 -1.00000 0.00000
vn 0.00000 -1.00000 0.00000
vn 0.00000 1.00000 0.00000
vn 0.00000 1.00000 0.00000
vn 0.00000 1.00000 0.00000
vn 0.00000 1.00000 0.00000
vn 0.00000 1.00000 0.00000
vn 0.00000 1.00000 0.00000
vn 0.00000 1.00000 0.00000
vn 0.00000 -1.00000 0.00000
vn 0.00000 -1.00000 0.00000
vn 0.00000 -1.00000 0.00000
vn 0.00000 -1.00000 0.00000
vn 0.00000 -1.00000 0.00000
vn 0.00000 -1.00000 0.00000
vn 0.00000 -1.00000 0.00000
vn 0.00000 1.00000 0.00000
vn 0.00000 1.00000 0.00000
vn 0.00000 1.00000 0.00000
vn 0.00000 1.00000 0.00000
vn 0.00000 1.00000 0.00000
vn 0.00000 1.00000 0.00000
vn 0.00000 1.00000 0.00000
vn 0.00000 -1.00000 0.00000
vn 0.00000 -1.00000 0.00000
vn 0.00000 -1.00000 0.00000
vn 0.00000 -1.00000 0.00000
vn 0.00000 -1.00000 0.00000
vn 0.00000 -1.00000 0.00000
vn 0.00000 -1.00000 0.00000
vn 0.00000 1.00000 0.00000
vn 0.00000 1.00000 0.00000
vn 0.00000 1.00000 0.00000
vn 0.00000 1.00000 0.00000
vn 0.00000 -1.00000 0.00000
vn 0.00000 -1.00000 0.00000
vn 0.00000 -1.00000 0.00000
vn 0.00000 -1.00000 0.00000
vn 0.00000 1.00000 0.00000
vn 0.00000 1.00000 0.00000
vn 0.00000 1.00000 0.00000
vn 0.00000 1.00000 0.00000
vn 0.00000 -1.00000 0.00000
vn 0.00000 -1.00000 0.00000
vn 0.00000 -1.00000 0.00000
vn 0.00000 -1.00000 0.00000
vn 0.00000 1.00000 0.00000
vn 0.00000 1.00000 0.00000
vn 0.00000 1.00000 0.00000
vn 0.00000 1.00000 0.00000
vn 0.00000 -1.00000 0.00000
vn 0.00000 -1.00000 0.00000
vn 0.00000 -1.00000 0.00000
vn 0.00000 -1.00000 0.00000
vn 0.00000 1.00000 0.00000
vn 0.00000 1.00000 0.00000
vn 0.00000 1.00000 0.00000
vn 0.00000 1.00000 0.00000
vn 0.00000 -1.00000 0.00000
vn 0.00000 -1.00000 0.00000
vn 0.00000 -1.00000 0.00000
vn 0.00000 -1.00000 0.00000
vn 0.00000 1.00000 0.00000
vn 0.00000 1.00000 0.00000
vn 0.00000 1.00000 0.00000
vn 0.00000 1.00000 0.00000
vn 0.00000 -1.00000 0.00000
vn 0.00000 -1.00000 0.00000
vn 0.00000 -1.00000 0.00000
vn 0.00000 -1.00000 0.00000
vn 0.00000 1.00000 0.00000
vn 0.00000 1.00000 0.00000
vn 0.00000 1.00000 0.00000
vn 0.00000 1.00000 0.00000
vn 0.00000 -1.00000 0.00000
vn 0.00000 -1.00000 0.00000
vn 0.00000 -1.00000 0.00000
vn 0.00000 -1.00000 0.00000
vn 0.00000 1.00000 0.00000
vn 0.00000 1.00000 0.00000
vn 0.00000 1.00000 0.00000
vn 0.00000 1.00000 0.00000
vn 0.00000 -1.00000 0.00000
vn 0.00000 -1.00000 0.00000
vn 0.00000 -1.00000 0.00000
vn 0.00000 -1.00000 0.00000
vn 0.00000 1.00000 0.00000
vn 0.00000 1.00000 0.00000
vn 0.00000 1.00000 0.00000
vn 0.00000 1.00000 0.00000
vn 0.00000 -1.00000 0.00000
vn 0.00000 -1.00000 0.00000
vn 0.00000 -1.00000 0.00000
vn 0.00000 -1.00000 0.00000
vn 0.00000 1.00000 0.00000
vn 0.00000 1.00000 0.00000
vn 0.00000 1.00000 0.00000
vn 0.00000 1.00000 0.00000
vn 0.00000 -1.00000 0.00000
vn 0.00000 -1.00000 0.00000
vn 0.00000 -1.00000 0.00000
vn 0.00000 -1.00000 0.00000
vn 0.00000 1.00000 0.00000
vn 0.00000 1.00000 0.00000
vn 0.00000 1.00000 0.00000
vn 0.00000 1.00000 0.00000
vn 0.00000 -1.00000 0.00000
vn 0.00000 -1.00000 0.00000
vn 0.00000 -1.00000 0.00000
vn 0.00000 -1.00000 0.00000
vn 0.00000 1.00000 0.00000
vn 0.00000 1.00000 0.00000
vn 0.00000 1.00000 0.00000
vn 0.00000 1.00000 0.00000
vn 0.00000 -1.00000 0.00000
vn 0.00000 -1.00000 0.00000
vn 0.00000 -1.00000 0.00000
vn 0.00000 -1.00000 0.00000
vn 0.00000 1.00000 0.00000
vn 0.00000 1.00000 0.00000
vn 0.00000 1.00000 0.00000
vn 0.00000 1.00000 0.00000
vn 0.00000 -1.00000 0.00000
vn 0.00000 -1.00000 0.00000
vn 0.00000 -1.00000 0.00000
vn 0.00000 -1.00000 0.00000
vn 0.00000 1.00000 0.00000
vn 0.00000 1.00000 0.00000
vn 0.00000 1.00000 0.00000
vn 0.00000 -1.00000 0.00000
vn 0.00000 -1.00000 0.00000
vn 0.00000 -1.00000 0.00000
vn 0.00000 1.00000 0.00000
vn 0.00000 1.00000 0.00000
vn 0.00000 1.00000 0.00000
vn 0.00000 -1.00000 0.00000
vn 0.00000 -1.00000 0.00000
vn 0.00000 -1.00000 0.00000
vn 0.00000 1.00000 0.00000
vn 0.00000 1.00000 0.00000
vn 0.00000 1.00000 0.00000
vn 0.00000 1.00000 0.00000
vn 0.00000 1.00000 0.00000
vn 0.00000 1.00000 0.00000
vn 0.00000 1.00000 0.00000
vn 0.00000 -1.00000 0.00000
vn 0.00000 -1.00000 0.00000
vn 0.00000 -1.00000 0.00000
vn 0.00000 -1.00000 0.00000
vn 0.00000 -1.00000 0.00000
vn 0.00000 -1.00000 0.00000
vn 0.00000 -1.00000 0.00000
vn 0.00000 1.00000 0.00000
vn 0.00000 1.00000 0.00000
vn 0.00000 1.00000 0.00000
vn 0.00000 1.00000 0.00000
vn 0.00000 1.00000 0.00000
vn 0.00000 1.00000 0.00000
vn 0.00000 1.00000 0.00000
vn 0.00000 -1.00000 0.00000
vn 0.00000 -1.00000 0.00000
vn 0.00000 -1.00000 0.00000
vn 0.00000 -1.00000 0.00000
vn 0.00000 -1.00000 0.00000
vn 0.00000 -1.00000 0.00000
vn 0.00000 -1.00000 0.00000
vn 0.00000 1.00000 0.00000
vn 0.00000 1.00000 0.00000
vn 0.00000 1.00000 0.00000
vn 0.00000 1.00000 0.00000
vn 0.00000 -1.00000 0.00000
vn 0.00000 -1.00000 0.00000
vn 0.00000 -1.00000 0.00000
vn 0.00000 -1.00000 0.00000
vn 0.00000 1.00000 0.00000
vn 0.00000 1.00000 0.00000
vn 0.00000 1.00000 0.00000
vn 0.00000 1.00000 0.00000
vn 0.00000 -1.00000 0.00000
vn 0.00000 -1.00000 0.00000
vn 0.00000 -1.00000 0.00000
vn 0.00000 -1.00000 0.00000
vn 0.00000 1.00000 0.00000
vn 0.00000 1.00000 0.00000
vn 0.00000 1.00000 0.00000
vn 0.00000 1.00000 0.00000
vn 0.00000 -1.00000 0.00000
vn 0.00000 -1.00000 0.00000
vn 0.00000 -1.00000 0.00000
vn 0.00000 -1.00000 0.00000
vn 0.00000 1.00000 0.00000
vn 0.00000 1.00000 0.00000
vn 0.00000 1.00000 0.00000
vn 0.00000 1.00000 0.00000
vn 0.00000 -1.00000 0.00000
vn 0.00000 -1.00000 0.00000
vn 0.00000 -1.00000 0.00000
vn 0.00000 -1.00000 0.00000
vn 0.00000 1.00000 0.00000
vn 0.00000 1.00000 0.00000
vn 0.00000 1.00000 0.00000
vn 0.00000 1.00000 0.00000
vn 0.00000 -1.00000 0.00000
vn 0.00000 -1.00000 0.00000
vn 0.00000 -1.00000 0.00000
vn 0.00000 -1.00000 0.00000
vn 0.00000 1.00000 0.00000
vn 0.00000 1.00000 0.00000
vn 0.00000 1.00000 0.00000
vn 0.00000 1.00000 0.00000
vn 0.00000 -1.00000 0.00000
vn 0.00000 -1.00000 0.00000
vn 0.00000 -1.00000 0.00000
vn 0.00000 -1.00000 0.00000
vn 0.00000 1.00000 0.00000
vn 0.00000 1.00000 0.00000
vn 0.00000 1.00000 0.00000
vn 0.00000 1.00000 0.00000
vn 0.00000 -1.00000 0.00000
vn 0.00000 -1.00000 0.00000
vn 0.00000 -1.00000 0.00000
vn 0.00000 -1.00000 0.00000
vn 0.00000 1.00000 0.00000
vn 0.00000 1.00000 0.00000
vn 0.00000 1.00000 0.00000
vn 0.00000 1.00000 0.00000
vn 0.00000 -1.00000 0.00000
vn 0.00000 -1.00000 0.00000
vn 0.00000 -1.00000 0.00000
vn 0.00000 -1.00000 0.00000
vn 0.00000 1.00000 0.00000
vn 0.00000 1.00000 0.00000
vn 0.00000 1.00000 0.00000
vn 0.00000 1.00000 0.00000
vn 0.00000 -1.00000 0.00000
vn 0.00000 -1.00000 0.00000
vn 0.00000 -1.00000 0.00000
vn 0.00000 -1.00000 0.00000
vn 0.00000 1.00000 0.00000
vn 0.00000 1.00000 0.00000
vn 0.00000 1.00000 0.00000
vn 0.00000 1.00000 0.00000
vn 0.00000 -1.00000 0.00000
vn 0.00000 -1.00000 0.00000
vn 0.00000 -1.00000 0.00000
vn 0.00000 -1.00000 0.00000
vn 0.21547 0.00000 0.97651
vn 0.21547 0.00000 0.97651
vn 0.21547 0.00000 0.97651
vn 0.21547 0.00000 0.97651
vn 0.19217 0.00000 0.98136
vn 0.19217 0.00000 0.98136
vn 0.19217 0.00000 0.98136
vn 0.19217 0.00000 0.98136
vn 0.16583 0.00000 0.98615
vn 0.16583 0.00000 0.98615
vn 0.16583 0.00000 0.98615
vn 0.16583 0.00000 0.98615
vn 0.11872 0.00000 0.99293
vn 0.11872 0.00000 0.99293
vn 0.11872 0.00000 0.99293
vn 0.11872 0.00000 0.99293
vn 0.07134 0.00000 0.99745
vn 0.07134 0.00000 0.99745
vn 0.07134 0.00000 0.99745
vn 0.07134 0.00000 0.99745
vn 0.02380 0.00000 0.99972
vn 0.02380 0.00000 0.99972
vn 0.02380 0.00000 0.99972
vn 0.02380 0.00000 0.99972
vn 0.00000 1.00000 0.00000
vn 0.00000 1.00000 0.00000
vn 0.00000 1.00000 0.00000
vn 0.00000 -1.00000 0.00000
vn 0.00000 -1.00000 0.00000
vn 0.00000 -1.00000 0.00000
vn 0.00000 1.00000 0.00000
vn 0.00000 1.00000 0.00000
vn 0.00000 1.00000 0.00000
vn 0.00000 -1.00000 0.00000
vn 0.00000 -1.00000 0.00000
vn 0.00000 -1.00000 0.00000
vn 0.00000 1.00000 0.00000
vn 0.00000 1.00000 0.00000
vn 0.00000 1.00000 0.00000
vn 0.00000 1.00000 0.00000
vn 0.00000 1.00000 0.00000
vn 0.00000 1.00000 0.00000
vn 0.00000 1.00000 0.00000
vn 0.00000 -1.00000 0.00000
vn 0.00000 -1.00000 0.00000
vn 0.00000 -1.00000 0.00000
vn 0.00000 -1.00000 0.00000
vn 0.00000 -1.00000 0.00000
vn 0.00000 -1.00000 0.00000
vn 0.00000 -1.00000 0.00000
vn 0.00000 1.00000 0.00000
vn 0.00000 1.00000 0.00000
vn 0.00000 1.00000 0.00000
vn 0.00000 1.00000 0.00000
vn 0.00000 1.00000 0.00000
vn 0.00000 1.00000 0.00000
vn 0.00000 1.00000 0.00000
vn 0.00000 -1.00000 0.00000
vn 0.00000 -1.00000 0.00000
vn 0.00000 -1.00000 0.00000
vn 0.00000 -1.00000 0.00000
vn 0.00000 -1.00000 0.00000
vn 0.00000 -1.00000 0.00000
vn 0.00000 -1.00000 0.00000
vn 0.00000 1.00000 0.00000
vn 0.00000 1.00000 0.00000
vn 0.00000 1.00000 0.00000
vn 0.00000 1.00000 0.00000
vn 0.00000 -1.00000 0.00000
vn 0.00000 -1.00000 0.00000
vn 0.00000 -1.00000 0.00000
vn 0.00000 -1.00000 0.00000
vn 0.00000 1.00000 0.00000
vn 0.00000 1.00000 0.00000
vn 0.00000 1.00000 0.00000
vn 0.00000 1.00000 0.00000
vn 0.00000 -1.00000 0.00000
vn 0.00000 -1.00000 0.00000
vn 0.00000 -1.00000 0.00000
vn 0.00000 -1.00000 0.00000
vn 0.00000 1.00000 0.00000
vn 0.00000 1.00000 0.00000
vn 0.00000 1.00000 0.00000
vn 0.00000 1.00000 0.00000
vn 0.00000 -1.00000 0.00000
vn 0.00000 -1.00000 0.00000
vn 0.00000 -1.00000 0.00000
vn 0.00000 -1.00000 0.00000
vn 0.00000 1.00000 0.00000
vn 0.00000 1.00000 0.00000
vn 0.00000 1.00000 0.00000
vn 0.00000 1.00000 0.00000
vn 0.00000 -1.00000 0.00000
vn 0.00000 -1.00000 0.00000
vn 0.00000 -1.00000 0.00000
vn 0.00000 -1.00000 0.00000
vn 0.00000 1.00000 0.00000
vn 0.00000 1.00000 0.00000
vn 0.00000 1.00000 0.00000
vn 0.00000 1.00000 0.00000
vn 0.00000 -1.00000 0.00000
vn 0.00000 -1.00000 0.00000
vn 0.00000 -1.00000 0.00000
vn 0.00000 -1.00000 0.00000
vn 0.00000 1.00000 0.00000
vn 0.00000 1.00000 0.00000
vn 0.00000 1.00000 0.00000
vn 0.00000 1.00000 0.00000
vn 0.00000 -1.00000 0.00000
vn 0.00000 -1.00000 0.00000
vn 0.00000 -1.00000 0.00000
vn 0.00000 -1.00000 0.00000
vn 0.00000 1.00000 0.00000
vn 0.00000 1.00000 0.00000
vn 0.00000 1.00000 0.00000
vn 0.00000 1.00000 0.00000
vn 0.00000 -1.00000 0.00000
vn 0.00000 -1.00000 0.00000
vn 0.00000 -1.00000 0.00000
vn 0.00000 -1.00000 0.00000
vn 0.00000 1.00000 0.00000
vn 0.00000 1.00000 0.00000
vn 0.00000 1.00000 0.00000
vn 0.00000 1.00000 0.00000
vn 0.00000 -1.00000 0.00000
vn 0.00000 -1.00000 0.00000
vn 0.00000 -1.00000 0.00000
vn 0.00000 -1.00000 0.00000
vn -0.19217 0.00000 -0.98136
vn -0.19217 0.00000 -0.98136
vn -0.19217 0.00000 -0.98136
vn -0.19217 0.00000 -0.98136
vn -0.19217 0.00000 -0.98136
vn -0.19217 0.00000 -0.98136
vn -0.19217 0.00000 -0.98136
vn -0.19217 0.00000 -0.98136
vn -0.19217 0.00000 -0.98136
vn -0.19217 0.00000 -0.98136
vn -0.19217 0.00000 -0.98136
vn -0.19217 0.00000 -0.98136
vn -0.16583 0.00000 -0.98615
vn -0.16583 0.00000 -0.98615
vn -0.16583 0.00000 -0.98615
vn -0.16583 0.00000 -0.98615
vn -0.16583 0.00000 -0.98615
vn -0.16583 0.00000 -0.98615
vn -0.16583 0.00000 -0.98615
vn -0.16583 0.00000 -0.98615
vn -0.16583 0.00000 -0.98615
vn -0.16583 0.00000 -0.98615
vn -0.16583 0.00000 -0.98615
vn -0.16583 0.00000 -0.98615
vn -0.11872 0.00000 -0.99293
vn -0.11872 0.00000 -0.99293
vn -0.11872 0.00000 -0.99293
vn -0.11872 0.00000 -0.99293
vn -0.11872 0.00000 -0.99293
vn -0.11872 0.00000 -0.99293
vn -0.11872 0.00000 -0.99293
vn -0.11872 0.00000 -0.99293
vn -0.11872 0.00000 -0.99293
vn -0.11872 0.00000 -0.99293
vn -0.11872 0.00000 -0.99293
vn -0.11872 0.00000 -0.99293
vn -0.07134 0.00000 -0.99745
vn -0.07134 0.00000 -0.99745
vn -0.07134 0.00000 -0.99745
vn -0.07134 0.00000 -0.99745
vn -0.07134 0.00000 -0.99745
vn -0.07134 0.00000 -0.99745
vn -0.07134 0.00000 -0.99745
vn -0.07134 0.00000 -0.99745
vn -0.07134 0.00000 -0.99745
vn -0.07134 0.00000 -0.99745
vn -0.07134 0.00000 -0.99745
vn -0.07134 0.00000 -0.99745
vn -0.02380 0.00000 -0.99972
vn -0.02380 0.00000 -0.99972
vn -0.02380 0.00000 -0.99972
vn -0.02380 0.00000 -0.99972
vn -0.02380 0.00000 -0.99972
vn -0.02380 0.00000 -0.99972
vn -0.02380 0.00000 -0.99972
vn -0.02380 0.00000 -0.99972
vn -0.02380 0.00000 -0.99972
vn -0.02380 0.00000 -0.99972
vn -0.02380 0.00000 -0.99972
vn -0.02380 0.00000 -0.99972
usemtl ceiling
f 10/10/10 11/11/11 12/12/12
f 34/34/34 35/35/35 36/36/36 37/37/37
f 38/38/38 39/39/39 40/40/40
f 53/53/53 54/54/54 55/55/55 56/56/56
f 69/69/69 70/70/70 71/71/71 72/72/72
f 85/85/85 86/86/86 87/87/87 88/88/88
f 101/101/101 102/102/102 103/103/103 104/104/104
f 117/117/117 118/118/118 119/119/119 120/120/120
f 133/133/133 134/134/134 135/135/135 136/136/136
f 146/146/146 147/147/147 148/148/148
f 170/170/170 171/171/171 172/172/172 173/173/173
f 174/174/174 175/175/175 176/176/176
f 189/189/189 190/190/190 191/191/191 192/192/192
f 205/205/205 206/206/206 207/207/207 208/208/208
f 221/221/221 222/222/222 223/223/223 224/224/224
f 237/237/237 238/238/238 239/239/239 240/240/240
f 253/253/253 254/254/254 255/255/255 256/256/256
f 290/290/290 291/291/291 292/292/292
f 314/314/314 315/315/315 316/316/316 317/317/317
f 318/318/318 319/319/319 320/320/320
f 333/333/333 334/334/334 335/335/335 336/336/336
f 349/349/349 350/350/350 351/351/351 352/352/352
f 365/365/365 366/366/366 367/367/367 368/368/368
f 381/381/381 382/382/382 383/383/383 384/384/384
usemtl floor
f 1/1/1 2/2/2 3/3/3
f 13/13/13 14/14/14 15/15/15 16/16/16
f 17/17/17 18/18/18 19/19/19
f 41/41/41 42/42/42 43/43/43 44/44/44
f 57/57/57 58/58/58 59/59/59 60/60/60
f 73/73/73 74/74/74 75/75/75 76/76/76
f 89/89/89 90/90/90 91/91/91 92/92/92
f 105/105/105 106/106/106 107/107/107 108/108/108
f 121/121/121 122/122/122 123/123/123 124/124/124
f 137/137/137 138/138/138 139/139/139
f 149/149/149 150/150/150 151/151/151 152/152/152
f 153/153/153 154/154/154 155/155/155
f 177/177/177 178/178/178 179/179/179 180/180/180
f 193/193/193 194/194/194 195/195/195 196/196/196
f 209/209/209 210/210/210 211/211/211 212/212/212
f 225/225/225 226/226/226 227/227/227 228/228/228
f 241/241/241 242/242/242 243/243/243 244/244/244
f 281/281/281 282/282/282 283/283/283
f 293/293/293 294/294/294 295/295/295 296/296/296
f 297/297/297 298/298/298 299/299/299
f 321/321/321 322/322/322 323/323/323 324/324/324
f 337/337/337 338/338/338 339/339/339 340/340/340
f 353/353/353 354/354/354 355/355/355 356/356/356
f 369/369/369 370/370/370 371/371/371 372/372/372
usemtl frame
f 389/389/389 390/390/390 391/391/391 392/392/392
f 393/393/393 394/394/394 395/395/395 396/396/396
f 401/401/401 402/402/402 403/403/403 404/404/404
f 405/405/405 406/406/406 407/407/407 408/408/408
f 413/413/413 414/414/414 415/415/415 416/416/416
f 417/417/417 418/418/418 419/419/419 420/420/420
f 425/425/425 426/426/426 427/427/427 428/428/428
f 429/429/429 430/430/430 431/431/431 432/432/432
f 437/437/437 438/438/438 439/439/439 440/440/440
f 441/441/441 442/442/442 443/443/443 444/444/444
usemtl inner
f 257/257/257 258/258/258 259/259/259 260/260/260
f 261/261/261 262/262/262 263/263/263 264/264/264
f 265/265/265 266/266/266 267/267/267 268/268/268
f 269/269/269 270/270/270 271/271/271 272/272/272
f 273/273/273 274/274/274 275/275/275 276/276/276
f 277/277/277 278/278/278 279/279/279 280/280/280
usemtl roof
f 7/7/7 8/8/8 9/9/9
f 27/27/27 28/28/28 29/29/29 30/30/30
f 31/31/31 32/32/32 33/33/33
f 49/49/49 50/50/50 51/51/51 52/52/52
f 65/65/65 66/66/66 67/67/67 68/68/68
f 81/81/81 82/82/82 83/83/83 84/84/84
f 97/97/97 98/98/98 99/99/99 100/100/100
f 113/113/113 114/114/114 115/115/115 116/116/116
f 129/129/129 130/130/130 131/131/131 132/132/132
f 143/143/143 144/144/144 145/145/145
f 163/163/163 164/164/164 165/165/165 166/166/166
f 167/167/167 168/168/168 169/169/169
f 185/185/185 186/186/186 187/187/187 188/188/188
f 201/201/201 202/202/202 203/203/203 204/204/204
f 217/217/217 218/218/218 219/219/219 220/220/220
f 233/233/233 234/234/234 235/235/235 236/236/236
f 249/249/249 250/250/250 251/251/251 252/252/252
f 287/287/287 288/288/288 289/289/289
f 307/307/307 308/308/308 309/309/309 310/310/310
f 311/311/311 312/312/312 313/313/313
f 329/329/329 330/330/330 331/331/331 332/332/332
f 345/345/345 346/346/346 347/347/347 348/348/348
f 361/361/361 362/362/362 363/363/363 364/364/364
f 377/377/377 378/378/378 379/379/379 380/380/380
usemtl skin
f 385/385/385 386/386/386 387/387/387 388/388/388
f 397/397/397 398/398/398 399/399/399 400/400/400
f 409/409/409 410/410/410 411/411/411 412/412/412
f 421/421/421 422/422/422 423/423/423 424/424/424
f 433/433/433 434/434/434 435/435/435 436/436/436
usemtl under
f 4/4/4 5/5/5 6/6/6
f 20/20/20 21/21/21 22/22/22 23/23/23
f 24/24/24 25/25/25 26/26/26
f 45/45/45 46/46/46 47/47/47 48/48/48
f 61/61/61 62/62/62 63/63/63 64/64/64
f 77/77/77 78/78/78 79/79/79 80/80/80
f 93/93/93 94/94/94 95/95/95 96/96/96
f 109/109/109 110/110/110 111/111/111 112/112/112
f 125/125/125 126/126/126 127/127/127 128/128/128
f 140/140/140 141/141/141 142/142/142
f 156/156/156 157/157/157 158/158/158 159/159/159
f 160/160/160 161/161/161 162/162/162
f 181/181/181 182/182/182 183/183/183 184/184/184
f 197/197/197 198/198/198 199/199/199 200/200/200
f 213/213/213 214/214/214 215/215/215 216/216/216
f 229/229/229 230/230/230 231/231/231 232/232/232
f 245/245/245 246/246/246 247/247/247 248/248/248
f 284/284/284 285/285/285 286/286/286
f 300/300/300 301/301/301 302/302/302 303/303/303
f 304/304/304 305/305/305 306/306/306
f 325/325/325 326/326/326 327/327/327 328/328/328
f 341/341/341 342/342/342 343/343/343 344/344/344
f 357/357/357 358/358/358 359/359/359 360/360/360
f 373/373/373 374/374/374 375/375/375 376/376/376
