# Generated by dev-env-utils/scripts/gen_transit_airside.py -- do not edit
mtllib jet_bridge_large.mtl
o airport_jet_bridge_large_uturn_c7
v 0.00000 0.09375 0.00000
v 0.00000 0.09375 0.21548
v 0.06037 0.09375 0.00000
v 0.06037 0.00000 0.00000
v 0.00000 0.00000 0.21548
v 0.00000 0.00000 0.00000
v 0.00000 4.24547 0.00000
v 0.00000 4.24547 0.21548
v 0.06037 4.24547 0.00000
v 0.06037 4.09375 0.00000
v 0.00000 4.09375 0.21548
v 0.00000 4.09375 0.00000
v 0.00000 0.09375 0.59313
v 0.21080 0.09375 0.00000
v 0.06037 0.09375 0.00000
v 0.00000 0.09375 0.21548
v 0.00000 0.00000 0.21548
v 0.06037 0.00000 0.00000
v 0.21080 0.00000 0.00000
v 0.00000 0.00000 0.59313
v 0.00000 4.24547 0.59313
v 0.21080 4.24547 0.00000
v 0.06037 4.24547 0.00000
v 0.00000 4.24547 0.21548
v 0.00000 4.09375 0.21548
v 0.06037 4.09375 0.00000
v 0.21080 4.09375 0.00000
v 0.00000 4.09375 0.59313
v 0.00000 0.09375 0.84888
v 0.36872 0.09375 0.00000
v 0.21080 0.09375 0.00000
v 0.00000 0.09375 0.59313
v 0.00000 0.00000 0.59313
v 0.21080 0.00000 0.00000
v 0.36872 0.00000 0.00000
v 0.00000 0.00000 0.84888
v 0.00000 4.24547 0.84888
v 0.36872 4.24547 0.00000
v 0.21080 4.24547 0.00000
v 0.00000 4.24547 0.59313
v 0.00000 4.09375 0.59313
v 0.21080 4.09375 0.00000
v 0.36872 4.09375 0.00000
v 0.00000 4.09375 0.84888
v 0.00000 0.09375 0.90515
v 0.41337 0.09375 0.00000
v 0.36872 0.09375 0.00000
v 0.00000 0.09375 0.84888
v 0.00000 0.00000 0.84888
v 0.36872 0.00000 0.00000
v 0.41337 0.00000 0.00000
v 0.00000 0.00000 0.90515
v 0.00000 4.24547 0.90515
v 0.41337 4.24547 0.00000
v 0.36872 4.24547 0.00000
v 0.00000 4.24547 0.84888
v 0.00000 4.09375 0.84888
v 0.36872 4.09375 0.00000
v 0.41337 4.09375 0.00000
v 0.00000 4.09375 0.90515
v 0.01816 0.09375 1.00000
v 0.53632 0.09375 0.00000
v 0.41337 0.09375 0.00000
v 0.00000 0.09375 0.90515
v 0.00000 0.09375 1.00000
v 0.01816 0.09375 1.00000
v 0.00000 0.09375 0.90515
v 0.00000 0.00000 0.90515
v 0.41337 0.00000 0.00000
v 0.53632 0.00000 0.00000
v 0.01816 0.00000 1.00000
v 0.00000 0.00000 0.90515
v 0.01816 0.00000 1.00000
v 0.00000 0.00000 1.00000
v 0.01816 4.24547 1.00000
v 0.53632 4.24547 0.00000
v 0.41337 4.24547 0.00000
v 0.00000 4.24547 0.90515
v 0.00000 4.24547 1.00000
v 0.01816 4.24547 1.00000
v 0.00000 4.24547 0.90515
v 0.00000 4.09375 0.90515
v 0.41337 4.09375 0.00000
v 0.53632 4.09375 0.00000
v 0.01816 4.09375 1.00000
v 0.00000 4.09375 0.90515
v 0.01816 4.09375 1.00000
v 0.00000 4.09375 1.00000
v 0.10811 0.09375 1.00000
v 0.71623 0.09375 0.00000
v 0.53632 0.09375 0.00000
v 0.01816 0.09375 1.00000
v 0.01816 0.00000 1.00000
v 0.53632 0.00000 0.00000
v 0.71623 0.00000 0.00000
v 0.10811 0.00000 1.00000
v 0.10811 4.24547 1.00000
v 0.71623 4.24547 0.00000
v 0.53632 4.24547 0.00000
v 0.01816 4.24547 1.00000
v 0.01816 4.09375 1.00000
v 0.53632 4.09375 0.00000
v 0.71623 4.09375 0.00000
v 0.10811 4.09375 1.00000
v 0.20588 0.09375 1.00000
v 0.91175 0.09375 0.00000
v 0.71623 0.09375 0.00000
v 0.10811 0.09375 1.00000
v 0.10811 0.00000 1.00000
v 0.71623 0.00000 0.00000
v 0.91175 0.00000 0.00000
v 0.20588 0.00000 1.00000
v 0.20588 4.24547 1.00000
v 0.91175 4.24547 0.00000
v 0.71623 4.24547 0.00000
v 0.10811 4.24547 1.00000
v 0.10811 4.09375 1.00000
v 0.71623 4.09375 0.00000
v 0.91175 4.09375 0.00000
v 0.20588 4.09375 1.00000
v 1.00000 0.09375 0.15625
v 1.00000 0.09375 0.00000
v 0.91175 0.09375 0.00000
v 0.20588 0.09375 1.00000
v 0.31356 0.09375 1.00000
v 1.00000 0.09375 0.15625
v 0.20588 0.09375 1.00000
v 0.20588 0.00000 1.00000
v 0.91175 0.00000 0.00000
v 1.00000 0.00000 0.00000
v 1.00000 0.00000 0.15625
v 0.20588 0.00000 1.00000
v 1.00000 0.00000 0.15625
v 0.31356 0.00000 1.00000
v 1.00000 4.24547 0.15625
v 1.00000 4.24547 0.00000
v 0.91175 4.24547 0.00000
v 0.20588 4.24547 1.00000
v 0.31356 4.24547 1.00000
v 1.00000 4.24547 0.15625
v 0.20588 4.24547 1.00000
v 0.20588 4.09375 1.00000
v 0.91175 4.09375 0.00000
v 1.00000 4.09375 0.00000
v 1.00000 4.09375 0.15625
v 0.20588 4.09375 1.00000
v 1.00000 4.09375 0.15625
v 0.31356 4.09375 1.00000
v 0.36650 0.09375 1.00000
v 1.00000 0.09375 0.26891
v 1.00000 0.09375 0.15625
v 0.31356 0.09375 1.00000
v 0.31356 0.00000 1.00000
v 1.00000 0.00000 0.15625
v 1.00000 0.00000 0.26891
v 0.36650 0.00000 1.00000
v 0.36650 4.24547 1.00000
v 1.00000 4.24547 0.26891
v 1.00000 4.24547 0.15625
v 0.31356 4.24547 1.00000
v 0.31356 4.09375 1.00000
v 1.00000 4.09375 0.15625
v 1.00000 4.09375 0.26891
v 0.36650 4.09375 1.00000
v 0.43393 0.09375 1.00000
v 1.00000 0.09375 0.39389
v 1.00000 0.09375 0.26891
v 0.36650 0.09375 1.00000
v 0.36650 0.00000 1.00000
v 1.00000 0.00000 0.26891
v 1.00000 0.00000 0.39389
v 0.43393 0.00000 1.00000
v 0.43393 4.24547 1.00000
v 1.00000 4.24547 0.39389
v 1.00000 4.24547 0.26891
v 0.36650 4.24547 1.00000
v 0.36650 4.09375 1.00000
v 1.00000 4.09375 0.26891
v 1.00000 4.09375 0.39389
v 0.43393 4.09375 1.00000
v 0.57074 0.09375 1.00000
v 1.00000 0.09375 0.59910
v 1.00000 0.09375 0.39389
v 0.43393 0.09375 1.00000
v 0.43393 0.00000 1.00000
v 1.00000 0.00000 0.39389
v 1.00000 0.00000 0.59910
v 0.57074 0.00000 1.00000
v 0.57074 4.24547 1.00000
v 1.00000 4.24547 0.59910
v 1.00000 4.24547 0.39389
v 0.43393 4.24547 1.00000
v 0.43393 4.09375 1.00000
v 1.00000 4.09375 0.39389
v 1.00000 4.09375 0.59910
v 0.57074 4.09375 1.00000
v 0.72917 0.09375 1.00000
v 1.00000 0.09375 0.77966
v 1.00000 0.09375 0.59910
v 0.57074 0.09375 1.00000
v 0.57074 0.00000 1.00000
v 1.00000 0.00000 0.59910
v 1.00000 0.00000 0.77966
v 0.72917 0.00000 1.00000
v 0.72917 4.24547 1.00000
v 1.00000 4.24547 0.77966
v 1.00000 4.24547 0.59910
v 0.57074 4.24547 1.00000
v 0.57074 4.09375 1.00000
v 1.00000 4.09375 0.59910
v 1.00000 4.09375 0.77966
v 0.72917 4.09375 1.00000
v 0.91668 0.09375 1.00000
v 1.00000 0.09375 0.94118
v 1.00000 0.09375 0.77966
v 0.72917 0.09375 1.00000
v 0.72917 0.00000 1.00000
v 1.00000 0.00000 0.77966
v 1.00000 0.00000 0.94118
v 0.91668 0.00000 1.00000
v 0.91668 4.24547 1.00000
v 1.00000 4.24547 0.94118
v 1.00000 4.24547 0.77966
v 0.72917 4.24547 1.00000
v 0.72917 4.09375 1.00000
v 1.00000 4.09375 0.77966
v 1.00000 4.09375 0.94118
v 0.91668 4.09375 1.00000
v 1.00000 0.09375 1.00000
v 1.00000 0.09375 0.94118
v 0.91668 0.09375 1.00000
v 0.91668 0.00000 1.00000
v 1.00000 0.00000 0.94118
v 1.00000 0.00000 1.00000
v 1.00000 4.24547 1.00000
v 1.00000 4.24547 0.94118
v 0.91668 4.24547 1.00000
v 0.91668 4.09375 1.00000
v 1.00000 4.09375 0.94118
v 1.00000 4.09375 1.00000
vt 0.75000 0.75000
vt 0.75000 0.80387
vt 0.76509 0.75000
vt 0.76509 0.75000
vt 0.75000 0.80387
vt 0.75000 0.75000
vt 0.75000 0.75000
vt 0.75000 0.80387
vt 0.76509 0.75000
vt 0.26163 0.42199
vt 0.22783 0.42199
vt 0.25930 0.40789
vt 0.75000 0.89828
vt 0.80270 0.75000
vt 0.76509 0.75000
vt 0.75000 0.80387
vt 0.75000 0.80387
vt 0.76509 0.75000
vt 0.80270 0.75000
vt 0.75000 0.89828
vt 0.75000 0.89828
vt 0.80270 0.75000
vt 0.76509 0.75000
vt 0.75000 0.80387
vt 0.22783 0.42199
vt 0.26163 0.42199
vt 0.26851 0.45614
vt 0.17343 0.45614
vt 0.75000 0.96222
vt 0.84218 0.75000
vt 0.80270 0.75000
vt 0.75000 0.89828
vt 0.75000 0.89828
vt 0.80270 0.75000
vt 0.84218 0.75000
vt 0.75000 0.96222
vt 0.75000 0.96222
vt 0.84218 0.75000
vt 0.80270 0.75000
vt 0.75000 0.89828
vt 0.17343 0.45614
vt 0.26851 0.45614
vt 0.27727 0.49028
vt 0.13748 0.49028
vt 0.75000 0.97629
vt 0.85334 0.75000
vt 0.84218 0.75000
vt 0.75000 0.96222
vt 0.75000 0.96222
vt 0.84218 0.75000
vt 0.85334 0.75000
vt 0.75000 0.97629
vt 0.75000 0.97629
vt 0.85334 0.75000
vt 0.84218 0.75000
vt 0.75000 0.96222
vt 0.13748 0.49028
vt 0.27727 0.49028
vt 0.28001 0.49960
vt 0.12971 0.49960
vt 0.75454 1.00000
vt 0.88408 0.75000
vt 0.85334 0.75000
vt 0.75000 0.97629
vt 0.75000 1.00000
vt 0.75454 1.00000
vt 0.75000 0.97629
vt 0.75000 0.97629
vt 0.85334 0.75000
vt 0.88408 0.75000
vt 0.75454 1.00000
vt 0.75000 0.97629
vt 0.75454 1.00000
vt 0.75000 1.00000
vt 0.75454 1.00000
vt 0.88408 0.75000
vt 0.85334 0.75000
vt 0.75000 0.97629
vt 0.75000 1.00000
vt 0.75454 1.00000
vt 0.75000 0.97629
vt 0.12971 0.00000
vt 0.28001 0.00000
vt 0.28814 0.02443
vt 0.11803 0.02443
vt 0.12971 0.00000
vt 0.11803 0.02443
vt 0.11679 0.01722
vt 0.77703 1.00000
vt 0.92906 0.75000
vt 0.88408 0.75000
vt 0.75454 1.00000
vt 0.75454 1.00000
vt 0.88408 0.75000
vt 0.92906 0.75000
vt 0.77703 1.00000
vt 0.77703 1.00000
vt 0.92906 0.75000
vt 0.88408 0.75000
vt 0.75454 1.00000
vt 0.11803 0.02443
vt 0.28814 0.02443
vt 0.30147 0.05858
vt 0.12469 0.05858
vt 0.80147 1.00000
vt 0.97794 0.75000
vt 0.92906 0.75000
vt 0.77703 1.00000
vt 0.77703 1.00000
vt 0.92906 0.75000
vt 0.97794 0.75000
vt 0.80147 1.00000
vt 0.80147 1.00000
vt 0.97794 0.75000
vt 0.92906 0.75000
vt 0.77703 1.00000
vt 0.12469 0.05858
vt 0.30147 0.05858
vt 0.31768 0.09273
vt 0.13280 0.09273
vt 1.00000 0.78906
vt 1.00000 0.75000
vt 0.97794 0.75000
vt 0.80147 1.00000
vt 0.82839 1.00000
vt 1.00000 0.78906
vt 0.80147 1.00000
vt 0.80147 1.00000
vt 0.97794 0.75000
vt 1.00000 0.75000
vt 1.00000 0.78906
vt 0.80147 1.00000
vt 1.00000 0.78906
vt 0.82839 1.00000
vt 1.00000 0.78906
vt 1.00000 0.75000
vt 0.97794 0.75000
vt 0.80147 1.00000
vt 0.82839 1.00000
vt 1.00000 0.78906
vt 0.80147 1.00000
vt 0.13280 0.09273
vt 0.31768 0.09273
vt 0.32552 0.10715
vt 0.30692 0.12688
vt 0.13280 0.09273
vt 0.30692 0.12688
vt 0.14263 0.12688
vt 0.84163 1.00000
vt 1.00000 0.81723
vt 1.00000 0.78906
vt 0.82839 1.00000
vt 0.82839 1.00000
vt 1.00000 0.78906
vt 1.00000 0.81723
vt 0.84163 1.00000
vt 0.84163 1.00000
vt 1.00000 0.81723
vt 1.00000 0.78906
vt 0.82839 1.00000
vt 0.14263 0.12688
vt 0.30692 0.12688
vt 0.29389 0.14240
vt 0.14777 0.14240
vt 0.85848 1.00000
vt 1.00000 0.84847
vt 1.00000 0.81723
vt 0.84163 1.00000
vt 0.84163 1.00000
vt 1.00000 0.81723
vt 1.00000 0.84847
vt 0.85848 1.00000
vt 0.85848 1.00000
vt 1.00000 0.84847
vt 1.00000 0.81723
vt 0.84163 1.00000
vt 0.14777 0.14240
vt 0.29389 0.14240
vt 0.27985 0.16102
vt 0.15459 0.16102
vt 0.89268 1.00000
vt 1.00000 0.89977
vt 1.00000 0.84847
vt 0.85848 1.00000
vt 0.85848 1.00000
vt 1.00000 0.84847
vt 1.00000 0.89977
vt 0.89268 1.00000
vt 0.89268 1.00000
vt 1.00000 0.89977
vt 1.00000 0.84847
vt 0.85848 1.00000
vt 0.15459 0.16102
vt 0.27985 0.16102
vt 0.25792 0.19517
vt 0.16921 0.19517
vt 0.93229 1.00000
vt 1.00000 0.94491
vt 1.00000 0.89977
vt 0.89268 1.00000
vt 0.89268 1.00000
vt 1.00000 0.89977
vt 1.00000 0.94491
vt 0.93229 1.00000
vt 0.93229 1.00000
vt 1.00000 0.94491
vt 1.00000 0.89977
vt 0.89268 1.00000
vt 0.16921 0.19517
vt 0.25792 0.19517
vt 0.23999 0.22932
vt 0.18725 0.22932
vt 0.97917 1.00000
vt 1.00000 0.98530
vt 1.00000 0.94491
vt 0.93229 1.00000
vt 0.93229 1.00000
vt 1.00000 0.94491
vt 1.00000 0.98530
vt 0.97917 1.00000
vt 0.97917 1.00000
vt 1.00000 0.98530
vt 1.00000 0.94491
vt 0.93229 1.00000
vt 0.18725 0.22932
vt 0.23999 0.22932
vt 0.22524 0.26347
vt 0.20983 0.26347
vt 1.00000 1.00000
vt 1.00000 0.98530
vt 0.97917 1.00000
vt 0.97917 1.00000
vt 1.00000 0.98530
vt 1.00000 1.00000
vt 1.00000 1.00000
vt 1.00000 0.98530
vt 0.97917 1.00000
vt 0.20983 0.26347
vt 0.22524 0.26347
vt 0.22021 0.27680
vn 0.00000 1.00000 0.00000
vn 0.00000 1.00000 0.00000
vn 0.00000 1.00000 0.00000
vn 0.00000 -1.00000 0.00000
vn 0.00000 -1.00000 0.00000
vn 0.00000 -1.00000 0.00000
vn 0.00000 1.00000 0.00000
vn 0.00000 1.00000 0.00000
vn 0.00000 1.00000 0.00000
vn 0.00000 -1.00000 0.00000
vn 0.00000 -1.00000 0.00000
vn 0.00000 -1.00000 0.00000
vn 0.00000 1.00000 0.00000
vn 0.00000 1.00000 0.00000
vn 0.00000 1.00000 0.00000
vn 0.00000 1.00000 0.00000
vn 0.00000 -1.00000 0.00000
vn 0.00000 -1.00000 0.00000
vn 0.00000 -1.00000 0.00000
vn 0.00000 -1.00000 0.00000
vn 0.00000 1.00000 0.00000
vn 0.00000 1.00000 0.00000
vn 0.00000 1.00000 0.00000
vn 0.00000 1.00000 0.00000
vn 0.00000 -1.00000 0.00000
vn 0.00000 -1.00000 0.00000
vn 0.00000 -1.00000 0.00000
vn 0.00000 -1.00000 0.00000
vn 0.00000 1.00000 0.00000
vn 0.00000 1.00000 0.00000
vn 0.00000 1.00000 0.00000
vn 0.00000 1.00000 0.00000
vn 0.00000 -1.00000 0.00000
vn 0.00000 -1.00000 0.00000
vn 0.00000 -1.00000 0.00000
vn 0.00000 -1.00000 0.00000
vn 0.00000 1.00000 0.00000
vn 0.00000 1.00000 0.00000
vn 0.00000 1.00000 0.00000
vn 0.00000 1.00000 0.00000
vn 0.00000 -1.00000 0.00000
vn 0.00000 -1.00000 0.00000
vn 0.00000 -1.00000 0.00000
vn 0.00000 -1.00000 0.00000
vn 0.00000 1.00000 0.00000
vn 0.00000 1.00000 0.00000
vn 0.00000 1.00000 0.00000
vn 0.00000 1.00000 0.00000
vn 0.00000 -1.00000 0.00000
vn 0.00000 -1.00000 0.00000
vn 0.00000 -1.00000 0.00000
vn 0.00000 -1.00000 0.00000
vn 0.00000 1.00000 0.00000
vn 0.00000 1.00000 0.00000
vn 0.00000 1.00000 0.00000
vn 0.00000 1.00000 0.00000
vn 0.00000 -1.00000 0.00000
vn 0.00000 -1.00000 0.00000
vn 0.00000 -1.00000 0.00000
vn 0.00000 -1.00000 0.00000
vn 0.00000 1.00000 0.00000
vn 0.00000 1.00000 0.00000
vn 0.00000 1.00000 0.00000
vn 0.00000 1.00000 0.00000
vn 0.00000 1.00000 0.00000
vn 0.00000 1.00000 0.00000
vn 0.00000 1.00000 0.00000
vn 0.00000 -1.00000 0.00000
vn 0.00000 -1.00000 0.00000
vn 0.00000 -1.00000 0.00000
vn 0.00000 -1.00000 0.00000
vn 0.00000 -1.00000 0.00000
vn 0.00000 -1.00000 0.00000
vn 0.00000 -1.00000 0.00000
vn 0.00000 1.00000 0.00000
vn 0.00000 1.00000 0.00000
vn 0.00000 1.00000 0.00000
vn 0.00000 1.00000 0.00000
vn 0.00000 1.00000 0.00000
vn 0.00000 1.00000 0.00000
vn 0.00000 1.00000 0.00000
vn 0.00000 -1.00000 0.00000
vn 0.00000 -1.00000 0.00000
vn 0.00000 -1.00000 0.00000
vn 0.00000 -1.00000 0.00000
vn 0.00000 -1.00000 0.00000
vn 0.00000 -1.00000 0.00000
vn 0.00000 -1.00000 0.00000
vn 0.00000 1.00000 0.00000
vn 0.00000 1.00000 0.00000
vn 0.00000 1.00000 0.00000
vn 0.00000 1.00000 0.00000
vn 0.00000 -1.00000 0.00000
vn 0.00000 -1.00000 0.00000
vn 0.00000 -1.00000 0.00000
vn 0.00000 -1.00000 0.00000
vn 0.00000 1.00000 0.00000
vn 0.00000 1.00000 0.00000
vn 0.00000 1.00000 0.00000
vn 0.00000 1.00000 0.00000
vn 0.00000 -1.00000 0.00000
vn 0.00000 -1.00000 0.00000
vn 0.00000 -1.00000 0.00000
vn 0.00000 -1.00000 0.00000
vn 0.00000 1.00000 0.00000
vn 0.00000 1.00000 0.00000
vn 0.00000 1.00000 0.00000
vn 0.00000 1.00000 0.00000
vn 0.00000 -1.00000 0.00000
vn 0.00000 -1.00000 0.00000
vn 0.00000 -1.00000 0.00000
vn 0.00000 -1.00000 0.00000
vn 0.00000 1.00000 0.00000
vn 0.00000 1.00000 0.00000
vn 0.00000 1.00000 0.00000
vn 0.00000 1.00000 0.00000
vn 0.00000 -1.00000 0.00000
vn 0.00000 -1.00000 0.00000
vn 0.00000 -1.00000 0.00000
vn 0.00000 -1.00000 0.00000
vn 0.00000 1.00000 0.00000
vn 0.00000 1.00000 0.00000
vn 0.00000 1.00000 0.00000
vn 0.00000 1.00000 0.00000
vn 0.00000 1.00000 0.00000
vn 0.00000 1.00000 0.00000
vn 0.00000 1.00000 0.00000
vn 0.00000 -1.00000 0.00000
vn 0.00000 -1.00000 0.00000
vn 0.00000 -1.00000 0.00000
vn 0.00000 -1.00000 0.00000
vn 0.00000 -1.00000 0.00000
vn 0.00000 -1.00000 0.00000
vn 0.00000 -1.00000 0.00000
vn 0.00000 1.00000 0.00000
vn 0.00000 1.00000 0.00000
vn 0.00000 1.00000 0.00000
vn 0.00000 1.00000 0.00000
vn 0.00000 1.00000 0.00000
vn 0.00000 1.00000 0.00000
vn 0.00000 1.00000 0.00000
vn 0.00000 -1.00000 0.00000
vn 0.00000 -1.00000 0.00000
vn 0.00000 -1.00000 0.00000
vn 0.00000 -1.00000 0.00000
vn 0.00000 -1.00000 0.00000
vn 0.00000 -1.00000 0.00000
vn 0.00000 -1.00000 0.00000
vn 0.00000 1.00000 0.00000
vn 0.00000 1.00000 0.00000
vn 0.00000 1.00000 0.00000
vn 0.00000 1.00000 0.00000
vn 0.00000 -1.00000 0.00000
vn 0.00000 -1.00000 0.00000
vn 0.00000 -1.00000 0.00000
vn 0.00000 -1.00000 0.00000
vn 0.00000 1.00000 0.00000
vn 0.00000 1.00000 0.00000
vn 0.00000 1.00000 0.00000
vn 0.00000 1.00000 0.00000
vn 0.00000 -1.00000 0.00000
vn 0.00000 -1.00000 0.00000
vn 0.00000 -1.00000 0.00000
vn 0.00000 -1.00000 0.00000
vn 0.00000 1.00000 0.00000
vn 0.00000 1.00000 0.00000
vn 0.00000 1.00000 0.00000
vn 0.00000 1.00000 0.00000
vn 0.00000 -1.00000 0.00000
vn 0.00000 -1.00000 0.00000
vn 0.00000 -1.00000 0.00000
vn 0.00000 -1.00000 0.00000
vn 0.00000 1.00000 0.00000
vn 0.00000 1.00000 0.00000
vn 0.00000 1.00000 0.00000
vn 0.00000 1.00000 0.00000
vn 0.00000 -1.00000 0.00000
vn 0.00000 -1.00000 0.00000
vn 0.00000 -1.00000 0.00000
vn 0.00000 -1.00000 0.00000
vn 0.00000 1.00000 0.00000
vn 0.00000 1.00000 0.00000
vn 0.00000 1.00000 0.00000
vn 0.00000 1.00000 0.00000
vn 0.00000 -1.00000 0.00000
vn 0.00000 -1.00000 0.00000
vn 0.00000 -1.00000 0.00000
vn 0.00000 -1.00000 0.00000
vn 0.00000 1.00000 0.00000
vn 0.00000 1.00000 0.00000
vn 0.00000 1.00000 0.00000
vn 0.00000 1.00000 0.00000
vn 0.00000 -1.00000 0.00000
vn 0.00000 -1.00000 0.00000
vn 0.00000 -1.00000 0.00000
vn 0.00000 -1.00000 0.00000
vn 0.00000 1.00000 0.00000
vn 0.00000 1.00000 0.00000
vn 0.00000 1.00000 0.00000
vn 0.00000 1.00000 0.00000
vn 0.00000 -1.00000 0.00000
vn 0.00000 -1.00000 0.00000
vn 0.00000 -1.00000 0.00000
vn 0.00000 -1.00000 0.00000
vn 0.00000 1.00000 0.00000
vn 0.00000 1.00000 0.00000
vn 0.00000 1.00000 0.00000
vn 0.00000 1.00000 0.00000
vn 0.00000 -1.00000 0.00000
vn 0.00000 -1.00000 0.00000
vn 0.00000 -1.00000 0.00000
vn 0.00000 -1.00000 0.00000
vn 0.00000 1.00000 0.00000
vn 0.00000 1.00000 0.00000
vn 0.00000 1.00000 0.00000
vn 0.00000 1.00000 0.00000
vn 0.00000 -1.00000 0.00000
vn 0.00000 -1.00000 0.00000
vn 0.00000 -1.00000 0.00000
vn 0.00000 -1.00000 0.00000
vn 0.00000 1.00000 0.00000
vn 0.00000 1.00000 0.00000
vn 0.00000 1.00000 0.00000
vn 0.00000 1.00000 0.00000
vn 0.00000 -1.00000 0.00000
vn 0.00000 -1.00000 0.00000
vn 0.00000 -1.00000 0.00000
vn 0.00000 -1.00000 0.00000
vn 0.00000 1.00000 0.00000
vn 0.00000 1.00000 0.00000
vn 0.00000 1.00000 0.00000
vn 0.00000 -1.00000 0.00000
vn 0.00000 -1.00000 0.00000
vn 0.00000 -1.00000 0.00000
vn 0.00000 1.00000 0.00000
vn 0.00000 1.00000 0.00000
vn 0.00000 1.00000 0.00000
vn 0.00000 -1.00000 0.00000
vn 0.00000 -1.00000 0.00000
vn 0.00000 -1.00000 0.00000
usemtl ceiling
f 10/10/10 11/11/11 12/12/12
f 25/25/25 26/26/26 27/27/27 28/28/28
f 41/41/41 42/42/42 43/43/43 44/44/44
f 57/57/57 58/58/58 59/59/59 60/60/60
f 82/82/82 83/83/83 84/84/84 85/85/85
f 86/86/86 87/87/87 88/88/88
f 101/101/101 102/102/102 103/103/103 104/104/104
f 117/117/117 118/118/118 119/119/119 120/120/120
f 142/142/142 143/143/143 144/144/144 145/145/145
f 146/146/146 147/147/147 148/148/148
f 161/161/161 162/162/162 163/163/163 164/164/164
f 177/177/177 178/178/178 179/179/179 180/180/180
f 193/193/193 194/194/194 195/195/195 196/196/196
f 209/209/209 210/210/210 211/211/211 212/212/212
f 225/225/225 226/226/226 227/227/227 228/228/228
f 238/238/238 239/239/239 240/240/240
usemtl floor
f 1/1/1 2/2/2 3/3/3
f 13/13/13 14/14/14 15/15/15 16/16/16
f 29/29/29 30/30/30 31/31/31 32/32/32
f 45/45/45 46/46/46 47/47/47 48/48/48
f 61/61/61 62/62/62 63/63/63 64/64/64
f 65/65/65 66/66/66 67/67/67
f 89/89/89 90/90/90 91/91/91 92/92/92
f 105/105/105 106/106/106 107/107/107 108/108/108
f 121/121/121 122/122/122 123/123/123 124/124/124
f 125/125/125 126/126/126 127/127/127
f 149/149/149 150/150/150 151/151/151 152/152/152
f 165/165/165 166/166/166 167/167/167 168/168/168
f 181/181/181 182/182/182 183/183/183 184/184/184
f 197/197/197 198/198/198 199/199/199 200/200/200
f 213/213/213 214/214/214 215/215/215 216/216/216
f 229/229/229 230/230/230 231/231/231
usemtl roof
f 7/7/7 8/8/8 9/9/9
f 21/21/21 22/22/22 23/23/23 24/24/24
f 37/37/37 38/38/38 39/39/39 40/40/40
f 53/53/53 54/54/54 55/55/55 56/56/56
f 75/75/75 76/76/76 77/77/77 78/78/78
f 79/79/79 80/80/80 81/81/81
f 97/97/97 98/98/98 99/99/99 100/100/100
f 113/113/113 114/114/114 115/115/115 116/116/116
f 135/135/135 136/136/136 137/137/137 138/138/138
f 139/139/139 140/140/140 141/141/141
f 157/157/157 158/158/158 159/159/159 160/160/160
f 173/173/173 174/174/174 175/175/175 176/176/176
f 189/189/189 190/190/190 191/191/191 192/192/192
f 205/205/205 206/206/206 207/207/207 208/208/208
f 221/221/221 222/222/222 223/223/223 224/224/224
f 235/235/235 236/236/236 237/237/237
usemtl under
f 4/4/4 5/5/5 6/6/6
f 17/17/17 18/18/18 19/19/19 20/20/20
f 33/33/33 34/34/34 35/35/35 36/36/36
f 49/49/49 50/50/50 51/51/51 52/52/52
f 68/68/68 69/69/69 70/70/70 71/71/71
f 72/72/72 73/73/73 74/74/74
f 93/93/93 94/94/94 95/95/95 96/96/96
f 109/109/109 110/110/110 111/111/111 112/112/112
f 128/128/128 129/129/129 130/130/130 131/131/131
f 132/132/132 133/133/133 134/134/134
f 153/153/153 154/154/154 155/155/155 156/156/156
f 169/169/169 170/170/170 171/171/171 172/172/172
f 185/185/185 186/186/186 187/187/187 188/188/188
f 201/201/201 202/202/202 203/203/203 204/204/204
f 217/217/217 218/218/218 219/219/219 220/220/220
f 232/232/232 233/233/233 234/234/234
