# Generated by dev-env-utils/scripts/gen_transit_airside.py -- do not edit
mtllib jet_bridge_large.mtl
o airport_jet_bridge_large_uturn_c4
v -1.00000 0.09375 1.00000
v -1.00000 0.09375 0.97231
v -1.00711 0.09375 0.97022
v -1.01566 0.09375 1.00000
v -1.01566 0.00000 1.00000
v -1.00711 0.00000 0.97022
v -1.00000 0.00000 0.97231
v -1.00000 0.00000 1.00000
v -1.00000 4.24547 1.00000
v -1.00000 4.24547 0.97231
v -1.00711 4.24547 0.97022
v -1.01566 4.24547 1.00000
v -1.01566 4.09375 1.00000
v -1.00711 4.09375 0.97022
v -1.00000 4.09375 0.97231
v -1.00000 4.09375 1.00000
v -1.00000 0.09375 0.94827
v -1.00711 0.09375 0.97022
v -1.00000 0.09375 0.97231
v -1.00000 0.00000 0.97231
v -1.00711 0.00000 0.97022
v -1.00000 0.00000 0.94827
v -1.00000 4.24547 0.94827
v -1.00711 4.24547 0.97022
v -1.00000 4.24547 0.97231
v -1.00000 4.09375 0.97231
v -1.00711 4.09375 0.97022
v -1.00000 4.09375 0.94827
v -1.01566 4.09375 1.00000
v -1.00711 4.09375 0.97022
v -1.00711 0.09375 0.97022
v -1.01566 0.09375 1.00000
v -1.01566 0.09375 1.00000
v -1.00711 0.09375 0.97022
v -1.00711 0.00000 0.97022
v -1.01566 0.00000 1.00000
v -1.01566 4.24547 1.00000
v -1.00711 4.24547 0.97022
v -1.00711 4.09375 0.97022
v -1.01566 4.09375 1.00000
v -1.00000 4.09375 0.94827
v -1.00000 0.09375 0.94827
v -1.00711 0.09375 0.97022
v -1.00711 4.09375 0.97022
v -1.00000 0.09375 0.94827
v -1.00000 0.00000 0.94827
v -1.00711 0.00000 0.97022
v -1.00711 0.09375 0.97022
v -1.00000 4.24547 0.94827
v -1.00000 4.09375 0.94827
v -1.00711 4.09375 0.97022
v -1.00711 4.24547 0.97022
v -0.90569 0.09375 1.00000
v -1.00000 0.09375 0.97231
v -1.00000 0.09375 1.00000
v -1.00000 0.00000 1.00000
v -1.00000 0.00000 0.97231
v -0.90569 0.00000 1.00000
v -0.90569 4.24547 1.00000
v -1.00000 4.24547 0.97231
v -1.00000 4.24547 1.00000
v -1.00000 4.09375 1.00000
v -1.00000 4.09375 0.97231
v -0.90569 4.09375 1.00000
v -0.94413 0.09375 0.77596
v -1.00000 0.09375 0.94827
v -1.00000 0.09375 0.97231
v -0.90569 0.09375 1.00000
v -0.31373 0.09375 1.00000
v -0.94413 0.09375 0.77596
v -0.90569 0.09375 1.00000
v -0.90569 0.00000 1.00000
v -1.00000 0.00000 0.97231
v -1.00000 0.00000 0.94827
v -0.94413 0.00000 0.77596
v -0.90569 0.00000 1.00000
v -0.94413 0.00000 0.77596
v -0.31373 0.00000 1.00000
v -0.94413 4.24547 0.77596
v -1.00000 4.24547 0.94827
v -1.00000 4.24547 0.97231
v -0.90569 4.24547 1.00000
v -0.31373 4.24547 1.00000
v -0.94413 4.24547 0.77596
v -0.90569 4.24547 1.00000
v -0.90569 4.09375 1.00000
v -1.00000 4.09375 0.97231
v -1.00000 4.09375 0.94827
v -0.94413 4.09375 0.77596
v -0.90569 4.09375 1.00000
v -0.94413 4.09375 0.77596
v -0.31373 4.09375 1.00000
v 0.00000 0.09375 0.91410
v -0.85257 0.09375 0.54377
v -0.94413 0.09375 0.77596
v -0.31373 0.09375 1.00000
v 0.00000 0.09375 1.00000
v 0.00000 0.09375 0.91410
v -0.31373 0.09375 1.00000
v -0.31373 0.00000 1.00000
v -0.94413 0.00000 0.77596
v -0.85257 0.00000 0.54377
v 0.00000 0.00000 0.91410
v -0.31373 0.00000 1.00000
v 0.00000 0.00000 0.91410
v 0.00000 0.00000 1.00000
v 0.00000 4.24547 0.91410
v -0.85257 4.24547 0.54377
v -0.94413 4.24547 0.77596
v -0.31373 4.24547 1.00000
v 0.00000 4.24547 1.00000
v 0.00000 4.24547 0.91410
v -0.31373 4.24547 1.00000
v -0.31373 4.09375 1.00000
v -0.94413 4.09375 0.77596
v -0.85257 4.09375 0.54377
v 0.00000 4.09375 0.91410
v -0.31373 4.09375 1.00000
v 0.00000 4.09375 0.91410
v 0.00000 4.09375 1.00000
v 0.00000 0.09375 0.70460
v -0.74538 0.09375 0.31838
v -0.85257 0.09375 0.54377
v 0.00000 0.09375 0.91410
v 0.00000 0.00000 0.91410
v -0.85257 0.00000 0.54377
v -0.74538 0.00000 0.31838
v 0.00000 0.00000 0.70460
v 0.00000 4.24547 0.70460
v -0.74538 4.24547 0.31838
v -0.85257 4.24547 0.54377
v 0.00000 4.24547 0.91410
v 0.00000 4.09375 0.91410
v -0.85257 4.09375 0.54377
v -0.74538 4.09375 0.31838
v 0.00000 4.09375 0.70460
v 0.00000 0.09375 0.47972
v -0.62305 0.09375 0.10083
v -0.74538 0.09375 0.31838
v 0.00000 0.09375 0.70460
v 0.00000 0.00000 0.70460
v -0.74538 0.00000 0.31838
v -0.62305 0.00000 0.10083
v 0.00000 0.00000 0.47972
v 0.00000 4.24547 0.47972
v -0.62305 4.24547 0.10083
v -0.74538 4.24547 0.31838
v 0.00000 4.24547 0.70460
v 0.00000 4.09375 0.70460
v -0.74538 4.09375 0.31838
v -0.62305 4.09375 0.10083
v 0.00000 4.09375 0.47972
v 0.00000 0.09375 0.39335
v -0.57493 0.09375 0.02386
v -0.62305 0.09375 0.10083
v 0.00000 0.09375 0.47972
v 0.00000 0.00000 0.47972
v -0.62305 0.00000 0.10083
v -0.57493 0.00000 0.02386
v 0.00000 0.00000 0.39335
v 0.00000 4.24547 0.39335
v -0.57493 4.24547 0.02386
v -0.62305 4.24547 0.10083
v 0.00000 4.24547 0.47972
v 0.00000 4.09375 0.47972
v -0.62305 4.09375 0.10083
v -0.57493 4.09375 0.02386
v 0.00000 4.09375 0.39335
v -0.33335 0.09375 0.00000
v -0.55885 0.09375 0.00000
v -0.57493 0.09375 0.02386
v 0.00000 0.09375 0.39335
v 0.00000 0.09375 0.23531
v -0.33335 0.09375 0.00000
v 0.00000 0.09375 0.39335
v 0.00000 0.00000 0.39335
v -0.57493 0.00000 0.02386
v -0.55885 0.00000 0.00000
v -0.33335 0.00000 0.00000
v 0.00000 0.00000 0.39335
v -0.33335 0.00000 0.00000
v 0.00000 0.00000 0.23531
v -0.33335 4.24547 0.00000
v -0.55885 4.24547 0.00000
v -0.57493 4.24547 0.02386
v 0.00000 4.24547 0.39335
v 0.00000 4.24547 0.23531
v -0.33335 4.24547 0.00000
v 0.00000 4.24547 0.39335
v 0.00000 4.09375 0.39335
v -0.57493 4.09375 0.02386
v -0.55885 4.09375 0.00000
v -0.33335 4.09375 0.00000
v 0.00000 4.09375 0.39335
v -0.33335 4.09375 0.00000
v 0.00000 4.09375 0.23531
v 0.00000 0.09375 0.00000
v -0.33335 0.09375 0.00000
v 0.00000 0.09375 0.23531
v 0.00000 0.00000 0.23531
v -0.33335 0.00000 0.00000
v 0.00000 0.00000 0.00000
v 0.00000 4.24547 0.00000
v -0.33335 4.24547 0.00000
v 0.00000 4.24547 0.23531
v 0.00000 4.09375 0.23531
v -0.33335 4.09375 0.00000
v 0.00000 4.09375 0.00000
v -1.00000 4.09375 0.94827
v -0.94413 4.09375 0.77596
v -0.94413 0.09375 0.77596
v -1.00000 0.09375 0.94827
v -1.00000 0.09375 0.94827
v -0.94413 0.09375 0.77596
v -0.94413 0.00000 0.77596
v -1.00000 0.00000 0.94827
v -1.00000 4.24547 0.94827
v -0.94413 4.24547 0.77596
v -0.94413 4.09375 0.77596
v -1.00000 4.09375 0.94827
v -0.85371 0.09375 1.00000
v -0.79791 0.09375 0.82792
v -0.79791 4.09375 0.82792
v -0.85371 4.09375 1.00000
v -0.85257 4.09375 0.54377
v -0.85257 0.09375 0.54377
v -0.94413 0.09375 0.77596
v -0.94413 4.09375 0.77596
v -0.85257 0.09375 0.54377
v -0.85257 0.00000 0.54377
v -0.94413 0.00000 0.77596
v -0.94413 0.09375 0.77596
v -0.85257 4.24547 0.54377
v -0.85257 4.09375 0.54377
v -0.94413 4.09375 0.77596
v -0.94413 4.24547 0.77596
v -0.79791 4.09375 0.82792
v -0.79791 0.09375 0.82792
v -0.71024 0.09375 0.60560
v -0.71024 4.09375 0.60560
v -0.74538 4.09375 0.31838
v -0.74538 0.09375 0.31838
v -0.85257 0.09375 0.54377
v -0.85257 4.09375 0.54377
v -0.74538 0.09375 0.31838
v -0.74538 0.00000 0.31838
v -0.85257 0.00000 0.54377
v -0.85257 0.09375 0.54377
v -0.74538 4.24547 0.31838
v -0.74538 4.09375 0.31838
v -0.85257 4.09375 0.54377
v -0.85257 4.24547 0.54377
v -0.71024 4.09375 0.60560
v -0.71024 0.09375 0.60560
v -0.60760 0.09375 0.38977
v -0.60760 4.09375 0.38977
v -0.62305 4.09375 0.10083
v -0.62305 0.09375 0.10083
v -0.74538 0.09375 0.31838
v -0.74538 4.09375 0.31838
v -0.62305 0.09375 0.10083
v -0.62305 0.00000 0.10083
v -0.74538 0.00000 0.31838
v -0.74538 0.09375 0.31838
v -0.62305 4.24547 0.10083
v -0.62305 4.09375 0.10083
v -0.74538 4.09375 0.31838
v -0.74538 4.24547 0.31838
v -0.60760 4.09375 0.38977
v -0.60760 0.09375 0.38977
v -0.49047 0.09375 0.18146
v -0.49047 4.09375 0.18146
v -0.57493 4.09375 0.02386
v -0.57493 0.09375 0.02386
v -0.62305 0.09375 0.10083
v -0.62305 4.09375 0.10083
v -0.57493 0.09375 0.02386
v -0.57493 0.00000 0.02386
v -0.62305 0.00000 0.10083
v -0.62305 0.09375 0.10083
v -0.57493 4.24547 0.02386
v -0.57493 4.09375 0.02386
v -0.62305 4.09375 0.10083
v -0.62305 4.24547 0.10083
v -0.49047 4.09375 0.18146
v -0.49047 0.09375 0.18146
v -0.44439 0.09375 0.10776
v -0.44439 4.09375 0.10776
v -0.55885 4.09375 0.00000
v -0.55885 0.09375 0.00000
v -0.57493 0.09375 0.02386
v -0.57493 4.09375 0.02386
v -0.55885 0.09375 0.00000
v -0.55885 0.00000 0.00000
v -0.57493 0.00000 0.02386
v -0.57493 0.09375 0.02386
v -0.55885 4.24547 0.00000
v -0.55885 4.09375 0.00000
v -0.57493 4.09375 0.02386
v -0.57493 4.24547 0.02386
v -0.44439 4.09375 0.10776
v -0.44439 0.09375 0.10776
v -0.37178 0.09375 0.00000
v -0.37178 4.09375 0.00000
v 0.19777 0.09375 1.00000
v 0.00000 0.09375 0.91410
v 0.00000 0.09375 1.00000
v 0.00000 0.00000 1.00000
v 0.00000 0.00000 0.91410
v 0.19777 0.00000 1.00000
v 0.19777 4.24547 1.00000
v 0.00000 4.24547 0.91410
v 0.00000 4.24547 1.00000
v 0.00000 4.09375 1.00000
v 0.00000 4.09375 0.91410
v 0.19777 4.09375 1.00000
v 0.57009 0.09375 1.00000
v 0.00000 0.09375 0.70460
v 0.00000 0.09375 0.91410
v 0.19777 0.09375 1.00000
v 0.19777 0.00000 1.00000
v 0.00000 0.00000 0.91410
v 0.00000 0.00000 0.70460
v 0.57009 0.00000 1.00000
v 0.57009 4.24547 1.00000
v 0.00000 4.24547 0.70460
v 0.00000 4.24547 0.91410
v 0.19777 4.24547 1.00000
v 0.19777 4.09375 1.00000
v 0.00000 4.09375 0.91410
v 0.00000 4.09375 0.70460
v 0.57009 4.09375 1.00000
v 0.85557 0.09375 1.00000
v 0.00000 0.09375 0.47972
v 0.00000 0.09375 0.70460
v 0.57009 0.09375 1.00000
v 0.57009 0.00000 1.00000
v 0.00000 0.00000 0.70460
v 0.00000 0.00000 0.47972
v 0.85557 0.00000 1.00000
v 0.85557 4.24547 1.00000
v 0.00000 4.24547 0.47972
v 0.00000 4.24547 0.70460
v 0.57009 4.24547 1.00000
v 0.57009 4.09375 1.00000
v 0.00000 4.09375 0.70460
v 0.00000 4.09375 0.47972
v 0.85557 4.09375 1.00000
v 0.94397 0.09375 1.00000
v 0.00000 0.09375 0.39335
v 0.00000 0.09375 0.47972
v 0.85557 0.09375 1.00000
v 0.85557 0.00000 1.00000
v 0.00000 0.00000 0.47972
v 0.00000 0.00000 0.39335
v 0.94397 0.00000 1.00000
v 0.94397 4.24547 1.00000
v 0.00000 4.24547 0.39335
v 0.00000 4.24547 0.47972
v 0.85557 4.24547 1.00000
v 0.85557 4.09375 1.00000
v 0.00000 4.09375 0.47972
v 0.00000 4.09375 0.39335
v 0.94397 4.09375 1.00000
v 1.00000 0.09375 0.94118
v 0.00000 0.09375 0.23531
v 0.00000 0.09375 0.39335
v 0.94397 0.09375 1.00000
v 1.00000 0.09375 1.00000
v 1.00000 0.09375 0.94118
v 0.94397 0.09375 1.00000
v 0.94397 0.00000 1.00000
v 0.00000 0.00000 0.39335
v 0.00000 0.00000 0.23531
v 1.00000 0.00000 0.94118
v 0.94397 0.00000 1.00000
v 1.00000 0.00000 0.94118
v 1.00000 0.00000 1.00000
v 1.00000 4.24547 0.94118
v 0.00000 4.24547 0.23531
v 0.00000 4.24547 0.39335
v 0.94397 4.24547 1.00000
v 1.00000 4.24547 1.00000
v 1.00000 4.24547 0.94118
v 0.94397 4.24547 1.00000
v 0.94397 4.09375 1.00000
v 0.00000 4.09375 0.39335
v 0.00000 4.09375 0.23531
v 1.00000 4.09375 0.94118
v 0.94397 4.09375 1.00000
v 1.00000 4.09375 0.94118
v 1.00000 4.09375 1.00000
v 0.04167 0.09375 0.00000
v 0.00000 0.09375 0.00000
v 0.00000 0.09375 0.23531
v 1.00000 0.09375 0.94118
v 1.00000 0.09375 0.77966
v 0.04167 0.09375 0.00000
v 1.00000 0.09375 0.94118
v 1.00000 0.00000 0.94118
v 0.00000 0.00000 0.23531
v 0.00000 0.00000 0.00000
v 0.04167 0.00000 0.00000
v 1.00000 0.00000 0.94118
v 0.04167 0.00000 0.00000
v 1.00000 0.00000 0.77966
v 0.04167 4.24547 0.00000
v 0.00000 4.24547 0.00000
v 0.00000 4.24547 0.23531
v 1.00000 4.24547 0.94118
v 1.00000 4.24547 0.77966
v 0.04167 4.24547 0.00000
v 1.00000 4.24547 0.94118
v 1.00000 4.09375 0.94118
v 0.00000 4.09375 0.23531
v 0.00000 4.09375 0.00000
v 0.04167 4.09375 0.00000
v 1.00000 4.09375 0.94118
v 0.04167 4.09375 0.00000
v 1.00000 4.09375 0.77966
v 1.00000 0.09375 0.59910
v 0.35852 0.09375 0.00000
v 0.04167 0.09375 0.00000
v 1.00000 0.09375 0.77966
v 1.00000 0.00000 0.77966
v 0.04167 0.00000 0.00000
v 0.35852 0.00000 0.00000
v 1.00000 0.00000 0.59910
v 1.00000 4.24547 0.59910
v 0.35852 4.24547 0.00000
v 0.04167 4.24547 0.00000
v 1.00000 4.24547 0.77966
v 1.00000 4.09375 0.77966
v 0.04167 4.09375 0.00000
v 0.35852 4.09375 0.00000
v 1.00000 4.09375 0.59910
v 1.00000 0.09375 0.39389
v 0.63213 0.09375 0.00000
v 0.35852 0.09375 0.00000
v 1.00000 0.09375 0.59910
v 1.00000 0.00000 0.59910
v 0.35852 0.00000 0.00000
v 0.63213 0.00000 0.00000
v 1.00000 0.00000 0.39389
v 1.00000 4.24547 0.39389
v 0.63213 4.24547 0.00000
v 0.35852 4.24547 0.00000
v 1.00000 4.24547 0.59910
v 1.00000 4.09375 0.59910
v 0.35852 4.09375 0.00000
v 0.63213 4.09375 0.00000
v 1.00000 4.09375 0.39389
v 1.00000 0.09375 0.26891
v 0.76699 0.09375 0.00000
v 0.63213 0.09375 0.00000
v 1.00000 0.09375 0.39389
v 1.00000 0.00000 0.39389
v 0.63213 0.00000 0.00000
v 0.76699 0.00000 0.00000
v 1.00000 0.00000 0.26891
v 1.00000 4.24547 0.26891
v 0.76699 4.24547 0.00000
v 0.63213 4.24547 0.00000
v 1.00000 4.24547 0.39389
v 1.00000 4.09375 0.39389
v 0.63213 4.09375 0.00000
v 0.76699 4.09375 0.00000
v 1.00000 4.09375 0.26891
v 1.00000 0.09375 0.15625
v 0.87288 0.09375 0.00000
v 0.76699 0.09375 0.00000
v 1.00000 0.09375 0.26891
v 1.00000 0.00000 0.26891
v 0.76699 0.00000 0.00000
v 0.87288 0.00000 0.00000
v 1.00000 0.00000 0.15625
v 1.00000 4.24547 0.15625
v 0.87288 4.24547 0.00000
v 0.76699 4.24547 0.00000
v 1.00000 4.24547 0.26891
v 1.00000 4.09375 0.26891
v 0.76699 4.09375 0.00000
v 0.87288 4.09375 0.00000
v 1.00000 4.09375 0.15625
v 1.00000 0.09375 0.00000
v 0.87288 0.09375 0.00000
v 1.00000 0.09375 0.15625
v 1.00000 0.00000 0.15625
v 0.87288 0.00000 0.00000
v 1.00000 0.00000 0.00000
v 1.00000 4.24547 0.00000
v 0.87288 4.24547 0.00000
v 1.00000 4.24547 0.15625
v 1.00000 4.09375 0.15625
v 0.87288 4.09375 0.00000
v 1.00000 4.09375 0.00000
v -0.33335 0.09375 0.00000
v -0.48617 0.09375 -0.10787
v -0.55885 0.09375 0.00000
v -0.55885 0.00000 0.00000
v -0.48617 0.00000 -0.10787
v -0.33335 0.00000 0.00000
v -0.33335 4.24547 0.00000
v -0.48617 4.24547 -0.10787
v -0.55885 4.24547 0.00000
v -0.55885 4.09375 0.00000
v -0.48617 4.09375 -0.10787
v -0.33335 4.09375 0.00000
v 0.00000 0.09375 -0.03390
v -0.33536 0.09375 -0.30674
v -0.48617 0.09375 -0.10787
v -0.33335 0.09375 0.00000
v 0.00000 0.09375 0.00000
v 0.00000 0.09375 -0.03390
v -0.33335 0.09375 0.00000
v -0.33335 0.00000 0.00000
v -0.48617 0.00000 -0.10787
v -0.33536 0.00000 -0.30674
v 0.00000 0.00000 -0.03390
v -0.33335 0.00000 0.00000
v 0.00000 0.00000 -0.03390
v 0.00000 0.00000 0.00000
v 0.00000 4.24547 -0.03390
v -0.33536 4.24547 -0.30674
v -0.48617 4.24547 -0.10787
v -0.33335 4.24547 0.00000
v 0.00000 4.24547 0.00000
v 0.00000 4.24547 -0.03390
v -0.33335 4.24547 0.00000
v -0.33335 4.09375 0.00000
v -0.48617 4.09375 -0.10787
v -0.33536 4.09375 -0.30674
v 0.00000 4.09375 -0.03390
v -0.33335 4.09375 0.00000
v 0.00000 4.09375 -0.03390
v 0.00000 4.09375 0.00000
v -0.00000 0.09375 -0.33484
v -0.17133 0.09375 -0.49485
v -0.33536 0.09375 -0.30674
v 0.00000 0.09375 -0.03390
v 0.00000 0.00000 -0.03390
v -0.33536 0.00000 -0.30674
v -0.17133 0.00000 -0.49485
v -0.00000 0.00000 -0.33484
v -0.00000 4.24547 -0.33484
v -0.17133 4.24547 -0.49485
v -0.33536 4.24547 -0.30674
v 0.00000 4.24547 -0.03390
v 0.00000 4.09375 -0.03390
v -0.33536 4.09375 -0.30674
v -0.17133 4.09375 -0.49485
v -0.00000 4.09375 -0.33484
v 0.00000 0.09375 -0.66618
v -0.17133 0.09375 -0.49485
v 0.00000 0.09375 -0.33484
v 0.00000 0.00000 -0.33484
v -0.17133 0.00000 -0.49485
v 0.00000 0.00000 -0.66618
v 0.00000 4.24547 -0.66618
v -0.17133 4.24547 -0.49485
v 0.00000 4.24547 -0.33484
v 0.00000 4.09375 -0.33484
v -0.17133 4.09375 -0.49485
v 0.00000 4.09375 -0.66618
v -0.55885 4.09375 0.00000
v -0.48617 4.09375 -0.10787
v -0.48617 0.09375 -0.10787
v -0.55885 0.09375 0.00000
v -0.55885 0.09375 0.00000
v -0.48617 0.09375 -0.10787
v -0.48617 0.00000 -0.10787
v -0.55885 0.00000 0.00000
v -0.55885 4.24547 0.00000
v -0.48617 4.24547 -0.10787
v -0.48617 4.09375 -0.10787
v -0.55885 4.09375 0.00000
v -0.37178 0.09375 0.00000
v -0.35939 0.09375 -0.01838
v -0.35939 4.09375 -0.01838
v -0.37178 4.09375 0.00000
v -0.33536 4.09375 -0.30674
v -0.33536 0.09375 -0.30674
v -0.48617 0.09375 -0.10787
v -0.48617 4.09375 -0.10787
v -0.33536 0.09375 -0.30674
v -0.33536 0.00000 -0.30674
v -0.48617 0.00000 -0.10787
v -0.48617 0.09375 -0.10787
v -0.33536 4.24547 -0.30674
v -0.33536 4.09375 -0.30674
v -0.48617 4.09375 -0.10787
v -0.48617 4.24547 -0.10787
v -0.35939 4.09375 -0.01838
v -0.35939 0.09375 -0.01838
v -0.21499 0.09375 -0.20881
v -0.21499 4.09375 -0.20881
v -0.17133 4.09375 -0.49485
v -0.17133 0.09375 -0.49485
v -0.33536 0.09375 -0.30674
v -0.33536 4.09375 -0.30674
v -0.17133 0.09375 -0.49485
v -0.17133 0.00000 -0.49485
v -0.33536 0.00000 -0.30674
v -0.33536 0.09375 -0.30674
v -0.17133 4.24547 -0.49485
v -0.17133 4.09375 -0.49485
v -0.33536 4.09375 -0.30674
v -0.33536 4.24547 -0.30674
v -0.21499 4.09375 -0.20881
v -0.21499 0.09375 -0.20881
v -0.05793 0.09375 -0.38894
v -0.05793 4.09375 -0.38894
v 0.00000 4.09375 -0.66618
v 0.00000 0.09375 -0.66618
v -0.17133 0.09375 -0.49485
v -0.17133 4.09375 -0.49485
v 0.00000 0.09375 -0.66618
v 0.00000 0.00000 -0.66618
v -0.17133 0.00000 -0.49485
v -0.17133 0.09375 -0.49485
v 0.00000 4.24547 -0.66618
v 0.00000 4.09375 -0.66618
v -0.17133 4.09375 -0.49485
v -0.17133 4.24547 -0.49485
v -0.05793 4.09375 -0.38894
v -0.05793 0.09375 -0.38894
v 0.00000 0.09375 -0.44686
v -0.00000 4.09375 -0.44686
v 0.04167 0.09375 0.00000
v 0.00000 0.09375 -0.03390
v 0.00000 0.09375 0.00000
v 0.00000 0.00000 0.00000
v 0.00000 0.00000 -0.03390
v 0.04167 0.00000 0.00000
v 0.04167 4.24547 0.00000
v 0.00000 4.24547 -0.03390
v 0.00000 4.24547 0.00000
v 0.00000 4.09375 0.00000
v 0.00000 4.09375 -0.03390
v 0.04167 4.09375 0.00000
v 0.35852 0.09375 0.00000
v -0.00000 0.09375 -0.33484
v 0.00000 0.09375 -0.03390
v 0.04167 0.09375 0.00000
v 0.04167 0.00000 0.00000
v 0.00000 0.00000 -0.03390
v -0.00000 0.00000 -0.33484
v 0.35852 0.00000 0.00000
v 0.35852 4.24547 0.00000
v -0.00000 4.24547 -0.33484
v 0.00000 4.24547 -0.03390
v 0.04167 4.24547 0.00000
v 0.04167 4.09375 0.00000
v 0.00000 4.09375 -0.03390
v -0.00000 4.09375 -0.33484
v 0.35852 4.09375 0.00000
v 0.00515 0.09375 -0.67133
v 0.00000 0.09375 -0.66618
v 0.00000 0.09375 -0.33484
v 0.35852 0.09375 0.00000
v 0.63213 0.09375 0.00000
v 0.00515 0.09375 -0.67133
v 0.35852 0.09375 0.00000
v 0.35852 0.00000 0.00000
v 0.00000 0.00000 -0.33484
v 0.00000 0.00000 -0.66618
v 0.00515 0.00000 -0.67133
v 0.35852 0.00000 0.00000
v 0.00515 0.00000 -0.67133
v 0.63213 0.00000 0.00000
v 0.00515 4.24547 -0.67133
v 0.00000 4.24547 -0.66618
v 0.00000 4.24547 -0.33484
v 0.35852 4.24547 0.00000
v 0.63213 4.24547 0.00000
v 0.00515 4.24547 -0.67133
v 0.35852 4.24547 0.00000
v 0.35852 4.09375 0.00000
v 0.00000 4.09375 -0.33484
v 0.00000 4.09375 -0.66618
v 0.00515 4.09375 -0.67133
v 0.35852 4.09375 0.00000
v 0.00515 4.09375 -0.67133
v 0.63213 4.09375 0.00000
v 0.76699 0.09375 0.00000
v 0.10637 0.09375 -0.76240
v 0.00515 0.09375 -0.67133
v 0.63213 0.09375 0.00000
v 0.63213 0.00000 0.00000
v 0.00515 0.00000 -0.67133
v 0.10637 0.00000 -0.76240
v 0.76699 0.00000 0.00000
v 0.76699 4.24547 0.00000
v 0.10637 4.24547 -0.76240
v 0.00515 4.24547 -0.67133
v 0.63213 4.24547 0.00000
v 0.63213 4.09375 0.00000
v 0.00515 4.09375 -0.67133
v 0.10637 4.09375 -0.76240
v 0.76699 4.09375 0.00000
v 0.87288 0.09375 0.00000
v 0.19326 0.09375 -0.83536
v 0.10637 0.09375 -0.76240
v 0.76699 0.09375 0.00000
v 0.76699 0.00000 0.00000
v 0.10637 0.00000 -0.76240
v 0.19326 0.00000 -0.83536
v 0.87288 0.00000 0.00000
v 0.87288 4.24547 0.00000
v 0.19326 4.24547 -0.83536
v 0.10637 4.24547 -0.76240
v 0.76699 4.24547 0.00000
v 0.76699 4.09375 0.00000
v 0.10637 4.09375 -0.76240
v 0.19326 4.09375 -0.83536
v 0.87288 4.09375 0.00000
v 1.00000 0.09375 -0.12502
v 0.39213 0.09375 -0.98617
v 0.19326 0.09375 -0.83536
v 0.87288 0.09375 0.00000
v 1.00000 0.09375 0.00000
v 1.00000 0.09375 -0.12502
v 0.87288 0.09375 0.00000
v 0.87288 0.00000 0.00000
v 0.19326 0.00000 -0.83536
v 0.39213 0.00000 -0.98617
v 1.00000 0.00000 -0.12502
v 0.87288 0.00000 0.00000
v 1.00000 0.00000 -0.12502
v 1.00000 0.00000 0.00000
v 1.00000 4.24547 -0.12502
v 0.39213 4.24547 -0.98617
v 0.19326 4.24547 -0.83536
v 0.87288 4.24547 0.00000
v 1.00000 4.24547 0.00000
v 1.00000 4.24547 -0.12502
v 0.87288 4.24547 0.00000
v 0.87288 4.09375 0.00000
v 0.19326 4.09375 -0.83536
v 0.39213 4.09375 -0.98617
v 1.00000 4.09375 -0.12502
v 0.87288 4.09375 0.00000
v 1.00000 4.09375 -0.12502
v 1.00000 4.09375 0.00000
v 0.67566 0.09375 -1.00000
v 0.41322 0.09375 -1.00000
v 0.39213 0.09375 -0.98617
v 1.00000 0.09375 -0.12502
v 1.00000 0.09375 -0.46664
v 0.67566 0.09375 -1.00000
v 1.00000 0.09375 -0.12502
v 1.00000 0.00000 -0.12502
v 0.39213 0.00000 -0.98617
v 0.41322 0.00000 -1.00000
v 0.67566 0.00000 -1.00000
v 1.00000 0.00000 -0.12502
v 0.67566 0.00000 -1.00000
v 1.00000 0.00000 -0.46664
v 0.67566 4.24547 -1.00000
v 0.41322 4.24547 -1.00000
v 0.39213 4.24547 -0.98617
v 1.00000 4.24547 -0.12502
v 1.00000 4.24547 -0.46664
v 0.67566 4.24547 -1.00000
v 1.00000 4.24547 -0.12502
v 1.00000 4.09375 -0.12502
v 0.39213 4.09375 -0.98617
v 0.41322 4.09375 -1.00000
v 0.67566 4.09375 -1.00000
v 1.00000 4.09375 -0.12502
v 0.67566 4.09375 -1.00000
v 1.00000 4.09375 -0.46664
v 1.00000 0.09375 -0.89487
v 0.94553 0.09375 -1.00000
v 0.67566 0.09375 -1.00000
v 1.00000 0.09375 -0.46664
v 1.00000 0.00000 -0.46664
v 0.67566 0.00000 -1.00000
v 0.94553 0.00000 -1.00000
v 1.00000 0.00000 -0.89487
v 1.00000 4.24547 -0.89487
v 0.94553 4.24547 -1.00000
v 0.67566 4.24547 -1.00000
v 1.00000 4.24547 -0.46664
v 1.00000 4.09375 -0.46664
v 0.67566 4.09375 -1.00000
v 0.94553 4.09375 -1.00000
v 1.00000 4.09375 -0.89487
v 1.00000 0.09375 -1.00000
v 0.94553 0.09375 -1.00000
v 1.00000 0.09375 -0.89487
v 1.00000 0.00000 -0.89487
v 0.94553 0.00000 -1.00000
v 1.00000 0.00000 -1.00000
v 1.00000 4.24547 -1.00000
v 0.94553 4.24547 -1.00000
v 1.00000 4.24547 -0.89487
v 1.00000 4.09375 -0.89487
v 0.94553 4.09375 -1.00000
v 1.00000 4.09375 -1.00000
v 0.00000 4.09375 -0.66618
v 0.00515 4.09375 -0.67133
v 0.00515 0.09375 -0.67133
v 0.00000 0.09375 -0.66618
v 0.00000 0.09375 -0.66618
v 0.00515 0.09375 -0.67133
v 0.00515 0.00000 -0.67133
v 0.00000 0.00000 -0.66618
v 0.00000 4.24547 -0.66618
v 0.00515 4.24547 -0.67133
v 0.00515 4.09375 -0.67133
v 0.00000 4.09375 -0.66618
v 0.00000 0.09375 -0.44686
v 0.11106 0.09375 -0.55793
v 0.11106 4.09375 -0.55793
v -0.00000 4.09375 -0.44686
v 0.10637 4.09375 -0.76240
v 0.10637 0.09375 -0.76240
v 0.00515 0.09375 -0.67133
v 0.00515 4.09375 -0.67133
v 0.10637 0.09375 -0.76240
v 0.10637 0.00000 -0.76240
v 0.00515 0.00000 -0.67133
v 0.00515 0.09375 -0.67133
v 0.10637 4.24547 -0.76240
v 0.10637 4.09375 -0.76240
v 0.00515 4.09375 -0.67133
v 0.00515 4.24547 -0.67133
v 0.11106 4.09375 -0.55793
v 0.11106 0.09375 -0.55793
v 0.20799 0.09375 -0.64512
v 0.20799 4.09375 -0.64512
v 0.19326 4.09375 -0.83536
v 0.19326 0.09375 -0.83536
v 0.10637 0.09375 -0.76240
v 0.10637 4.09375 -0.76240
v 0.19326 0.09375 -0.83536
v 0.19326 0.00000 -0.83536
v 0.10637 0.00000 -0.76240
v 0.10637 0.09375 -0.76240
v 0.19326 4.24547 -0.83536
v 0.19326 4.09375 -0.83536
v 0.10637 4.09375 -0.76240
v 0.10637 4.24547 -0.76240
v 0.20799 4.09375 -0.64512
v 0.20799 0.09375 -0.64512
v 0.29119 0.09375 -0.71499
v 0.29119 4.09375 -0.71499
v 0.39213 4.09375 -0.98617
v 0.39213 0.09375 -0.98617
v 0.19326 0.09375 -0.83536
v 0.19326 4.09375 -0.83536
v 0.39213 0.09375 -0.98617
v 0.39213 0.00000 -0.98617
v 0.19326 0.00000 -0.83536
v 0.19326 0.09375 -0.83536
v 0.39213 4.24547 -0.98617
v 0.39213 4.09375 -0.98617
v 0.19326 4.09375 -0.83536
v 0.19326 4.24547 -0.83536
v 0.29119 4.09375 -0.71499
v 0.29119 0.09375 -0.71499
v 0.48162 0.09375 -0.85939
v 0.48162 4.09375 -0.85939
v 0.41322 4.09375 -1.00000
v 0.41322 0.09375 -1.00000
v 0.39213 0.09375 -0.98617
v 0.39213 4.09375 -0.98617
v 0.41322 0.09375 -1.00000
v 0.41322 0.00000 -1.00000
v 0.39213 0.00000 -0.98617
v 0.39213 0.09375 -0.98617
v 0.41322 4.24547 -1.00000
v 0.41322 4.09375 -1.00000
v 0.39213 4.09375 -0.98617
v 0.39213 4.24547 -0.98617
v 0.48162 4.09375 -0.85939
v 0.48162 0.09375 -0.85939
v 0.68146 0.09375 -0.99047
v 0.68146 4.09375 -0.99047
v 0.68146 4.09375 -0.99047
v 0.68146 0.09375 -0.99047
v 0.69841 0.09375 -1.00000
v 0.69841 4.09375 -1.00000
vt 0.75000 1.00000
vt 0.75000 0.99308
vt 0.74822 0.99255
vt 0.74609 1.00000
vt 0.74609 1.00000
vt 0.74822 0.99255
vt 0.75000 0.99308
vt 0.75000 1.00000
vt 0.75000 1.00000
vt 0.75000 0.99308
vt 0.74822 0.99255
vt 0.74609 1.00000
vt 0.49999 0.13856
vt 0.50000 0.14280
vt 0.49888 0.14280
vt 0.49772 0.13915
vt 0.75000 0.98707
vt 0.74822 0.99255
vt 0.75000 0.99308
vt 0.75000 0.99308
vt 0.74822 0.99255
vt 0.75000 0.98707
vt 0.75000 0.98707
vt 0.74822 0.99255
vt 0.75000 0.99308
vt 0.49888 0.14280
vt 0.50000 0.14280
vt 0.49991 0.14595
vt 0.48516 0.00000
vt 0.50000 0.00000
vt 0.50000 0.90625
vt 0.48516 0.90625
vt 0.97031 0.00000
vt 1.00000 0.00000
vt 1.00000 0.09375
vt 0.97031 0.09375
vt 0.97031 0.00000
vt 1.00000 0.00000
vt 1.00000 0.09375
vt 0.97031 0.09375
vt 0.01105 0.00000
vt 0.01105 0.90625
vt 0.00000 0.90625
vt 0.00000 0.00000
vt 0.02210 0.00000
vt 0.02210 0.09375
vt 0.00000 0.09375
vt 0.00000 0.00000
vt 0.02210 0.00000
vt 0.02210 0.09375
vt 0.00000 0.09375
vt 0.00000 0.00000
vt 0.77358 1.00000
vt 0.75000 0.99308
vt 0.75000 1.00000
vt 0.75000 1.00000
vt 0.75000 0.99308
vt 0.77358 1.00000
vt 0.77358 1.00000
vt 0.75000 0.99308
vt 0.75000 1.00000
vt 0.49772 0.13915
vt 0.49888 0.14280
vt 0.48403 0.14280
vt 0.76397 0.94399
vt 0.75000 0.98707
vt 0.75000 0.99308
vt 0.77358 1.00000
vt 0.92157 1.00000
vt 0.76397 0.94399
vt 0.77358 1.00000
vt 0.77358 1.00000
vt 0.75000 0.99308
vt 0.75000 0.98707
vt 0.76397 0.94399
vt 0.77358 1.00000
vt 0.76397 0.94399
vt 0.92157 1.00000
vt 0.76397 0.94399
vt 0.75000 0.98707
vt 0.75000 0.99308
vt 0.77358 1.00000
vt 0.92157 1.00000
vt 0.76397 0.94399
vt 0.77358 1.00000
vt 0.48403 0.14280
vt 0.49888 0.14280
vt 0.49991 0.14595
vt 0.50000 0.17074
vt 0.48403 0.14280
vt 0.50000 0.17074
vt 0.39895 0.17074
vt 1.00000 0.97852
vt 0.78686 0.88594
vt 0.76397 0.94399
vt 0.92157 1.00000
vt 1.00000 1.00000
vt 1.00000 0.97852
vt 0.92157 1.00000
vt 0.92157 1.00000
vt 0.76397 0.94399
vt 0.78686 0.88594
vt 1.00000 0.97852
vt 0.92157 1.00000
vt 1.00000 0.97852
vt 1.00000 1.00000
vt 1.00000 0.97852
vt 0.78686 0.88594
vt 0.76397 0.94399
vt 0.92157 1.00000
vt 1.00000 1.00000
vt 1.00000 0.97852
vt 0.92157 1.00000
vt 0.39895 0.17074
vt 0.50000 0.17074
vt 0.50000 0.20489
vt 0.35960 0.20489
vt 0.39895 0.17074
vt 0.35960 0.20489
vt 0.35461 0.19025
vt 1.00000 0.92615
vt 0.81366 0.82960
vt 0.78686 0.88594
vt 1.00000 0.97852
vt 1.00000 0.97852
vt 0.78686 0.88594
vt 0.81366 0.82960
vt 1.00000 0.92615
vt 1.00000 0.92615
vt 0.81366 0.82960
vt 0.78686 0.88594
vt 1.00000 0.97852
vt 0.35960 0.20489
vt 0.50000 0.20489
vt 0.50000 0.23903
vt 0.37320 0.23903
vt 1.00000 0.86993
vt 0.84424 0.77521
vt 0.81366 0.82960
vt 1.00000 0.92615
vt 1.00000 0.92615
vt 0.81366 0.82960
vt 0.84424 0.77521
vt 1.00000 0.86993
vt 1.00000 0.86993
vt 0.84424 0.77521
vt 0.81366 0.82960
vt 1.00000 0.92615
vt 0.37320 0.23903
vt 0.50000 0.23903
vt 0.50000 0.27318
vt 0.38986 0.27318
vt 1.00000 0.84834
vt 0.85627 0.75597
vt 0.84424 0.77521
vt 1.00000 0.86993
vt 1.00000 0.86993
vt 0.84424 0.77521
vt 0.85627 0.75597
vt 1.00000 0.84834
vt 1.00000 0.84834
vt 0.85627 0.75597
vt 0.84424 0.77521
vt 1.00000 0.86993
vt 0.38986 0.27318
vt 0.50000 0.27318
vt 0.50000 0.28560
vt 0.39678 0.28560
vt 0.91666 0.75000
vt 0.86029 0.75000
vt 0.85627 0.75597
vt 1.00000 0.84834
vt 1.00000 0.80883
vt 0.91666 0.75000
vt 1.00000 0.84834
vt 1.00000 0.84834
vt 0.85627 0.75597
vt 0.86029 0.75000
vt 0.91666 0.75000
vt 1.00000 0.84834
vt 0.91666 0.75000
vt 1.00000 0.80883
vt 0.91666 0.75000
vt 0.86029 0.75000
vt 0.85627 0.75597
vt 1.00000 0.84834
vt 1.00000 0.80883
vt 0.91666 0.75000
vt 1.00000 0.84834
vt 0.39678 0.28560
vt 0.50000 0.28560
vt 0.49992 0.28954
vt 0.47175 0.30733
vt 0.39678 0.28560
vt 0.47175 0.30733
vt 0.41012 0.30733
vt 1.00000 0.75000
vt 0.91666 0.75000
vt 1.00000 0.80883
vt 1.00000 0.80883
vt 0.91666 0.75000
vt 1.00000 0.75000
vt 1.00000 0.75000
vt 0.91666 0.75000
vt 1.00000 0.80883
vt 0.41012 0.30733
vt 0.47175 0.30733
vt 0.43149 0.33737
vt 0.01105 0.00000
vt 0.09783 0.00000
vt 0.09783 0.90625
vt 0.01105 0.90625
vt 0.02210 0.00000
vt 0.19566 0.00000
vt 0.19566 0.09375
vt 0.02210 0.09375
vt 0.02210 0.00000
vt 0.19566 0.00000
vt 0.19566 0.09375
vt 0.02210 0.09375
vt 0.00733 0.90625
vt 0.09783 0.90625
vt 0.09783 0.00000
vt 0.00733 0.00000
vt 0.21739 0.00000
vt 0.21739 0.90625
vt 0.09783 0.90625
vt 0.09783 0.00000
vt 0.43478 0.00000
vt 0.43478 0.09375
vt 0.19566 0.09375
vt 0.19566 0.00000
vt 0.43478 0.00000
vt 0.43478 0.09375
vt 0.19566 0.09375
vt 0.19566 0.00000
vt 0.09783 0.00000
vt 0.09783 0.90625
vt 0.21739 0.90625
vt 0.21739 0.00000
vt 0.33695 0.00000
vt 0.33695 0.90625
vt 0.21739 0.90625
vt 0.21739 0.00000
vt 0.67391 0.00000
vt 0.67391 0.09375
vt 0.43478 0.09375
vt 0.43478 0.00000
vt 0.67391 0.00000
vt 0.67391 0.09375
vt 0.43478 0.09375
vt 0.43478 0.00000
vt 0.21739 0.00000
vt 0.21739 0.90625
vt 0.33695 0.90625
vt 0.33695 0.00000
vt 0.45652 0.00000
vt 0.45652 0.90625
vt 0.33695 0.90625
vt 0.33695 0.00000
vt 0.91303 0.00000
vt 0.91303 0.09375
vt 0.67391 0.09375
vt 0.67391 0.00000
vt 0.91303 0.00000
vt 0.91303 0.09375
vt 0.67391 0.09375
vt 0.67391 0.00000
vt 0.33695 0.00000
vt 0.33695 0.90625
vt 0.45652 0.90625
vt 0.45652 0.00000
vt 0.50000 0.00000
vt 0.50000 0.90625
vt 0.45652 0.90625
vt 0.45652 0.00000
vt 1.00000 0.00000
vt 1.00000 0.09375
vt 0.91303 0.09375
vt 0.91303 0.00000
vt 1.00000 0.00000
vt 1.00000 0.09375
vt 0.91303 0.09375
vt 0.91303 0.00000
vt 0.45652 0.00000
vt 0.45652 0.90625
vt 0.50000 0.90625
vt 0.50000 0.00000
vt 0.01378 0.00000
vt 0.01378 0.90625
vt 0.00000 0.90625
vt 0.00000 0.00000
vt 0.02757 0.00000
vt 0.02757 0.09375
vt 0.00000 0.09375
vt 0.00000 0.00000
vt 0.02757 0.00000
vt 0.02757 0.09375
vt 0.00000 0.09375
vt 0.00000 0.00000
vt 0.00000 0.00000
vt 0.00000 0.90625
vt 0.06500 0.90625
vt 0.06500 0.00000
vt 0.04944 1.00000
vt 0.00000 0.97852
vt 0.00000 1.00000
vt 0.00000 1.00000
vt 0.00000 0.97852
vt 0.04944 1.00000
vt 0.04944 1.00000
vt 0.00000 0.97852
vt 0.00000 1.00000
vt 0.35461 0.19025
vt 0.35960 0.20489
vt 0.32704 0.20489
vt 0.14252 1.00000
vt 0.00000 0.92615
vt 0.00000 0.97852
vt 0.04944 1.00000
vt 0.04944 1.00000
vt 0.00000 0.97852
vt 0.00000 0.92615
vt 0.14252 1.00000
vt 0.14252 1.00000
vt 0.00000 0.92615
vt 0.00000 0.97852
vt 0.04944 1.00000
vt 0.32704 0.20489
vt 0.35960 0.20489
vt 0.37320 0.23903
vt 0.27622 0.23903
vt 0.21389 1.00000
vt 0.00000 0.86993
vt 0.00000 0.92615
vt 0.14252 1.00000
vt 0.14252 1.00000
vt 0.00000 0.92615
vt 0.00000 0.86993
vt 0.21389 1.00000
vt 0.21389 1.00000
vt 0.00000 0.86993
vt 0.00000 0.92615
vt 0.14252 1.00000
vt 0.27622 0.23903
vt 0.37320 0.23903
vt 0.38986 0.27318
vt 0.23861 0.27318
vt 0.23599 1.00000
vt 0.00000 0.84834
vt 0.00000 0.86993
vt 0.21389 1.00000
vt 0.21389 1.00000
vt 0.00000 0.86993
vt 0.00000 0.84834
vt 0.23599 1.00000
vt 0.23599 1.00000
vt 0.00000 0.84834
vt 0.00000 0.86993
vt 0.21389 1.00000
vt 0.23861 0.27318
vt 0.38986 0.27318
vt 0.39678 0.28560
vt 0.22729 0.28560
vt 0.25000 0.98530
vt 0.00000 0.80883
vt 0.00000 0.84834
vt 0.23599 1.00000
vt 0.25000 1.00000
vt 0.25000 0.98530
vt 0.23599 1.00000
vt 0.23599 1.00000
vt 0.00000 0.84834
vt 0.00000 0.80883
vt 0.25000 0.98530
vt 0.23599 1.00000
vt 0.25000 0.98530
vt 0.25000 1.00000
vt 0.25000 0.98530
vt 0.00000 0.80883
vt 0.00000 0.84834
vt 0.23599 1.00000
vt 0.25000 1.00000
vt 0.25000 0.98530
vt 0.23599 1.00000
vt 0.22729 0.28560
vt 0.39678 0.28560
vt 0.41012 0.30733
vt 0.22524 0.30733
vt 0.22729 0.28560
vt 0.22524 0.30733
vt 0.22021 0.29400
vt 0.01042 0.75000
vt 0.00000 0.75000
vt 0.00000 0.80883
vt 0.25000 0.98530
vt 0.25000 0.94491
vt 0.01042 0.75000
vt 0.25000 0.98530
vt 0.25000 0.98530
vt 0.00000 0.80883
vt 0.00000 0.75000
vt 0.01042 0.75000
vt 0.25000 0.98530
vt 0.01042 0.75000
vt 0.25000 0.94491
vt 0.01042 0.75000
vt 0.00000 0.75000
vt 0.00000 0.80883
vt 0.25000 0.98530
vt 0.25000 0.94491
vt 0.01042 0.75000
vt 0.25000 0.98530
vt 0.22524 0.30733
vt 0.41012 0.30733
vt 0.43149 0.33737
vt 0.42659 0.34148
vt 0.22524 0.30733
vt 0.42659 0.34148
vt 0.23999 0.34148
vt 0.25000 0.89977
vt 0.08963 0.75000
vt 0.01042 0.75000
vt 0.25000 0.94491
vt 0.25000 0.94491
vt 0.01042 0.75000
vt 0.08963 0.75000
vt 0.25000 0.89977
vt 0.25000 0.89977
vt 0.08963 0.75000
vt 0.01042 0.75000
vt 0.25000 0.94491
vt 0.23999 0.34148
vt 0.42659 0.34148
vt 0.39049 0.37563
vt 0.25792 0.37563
vt 0.25000 0.84847
vt 0.15803 0.75000
vt 0.08963 0.75000
vt 0.25000 0.89977
vt 0.25000 0.89977
vt 0.08963 0.75000
vt 0.15803 0.75000
vt 0.25000 0.84847
vt 0.25000 0.84847
vt 0.15803 0.75000
vt 0.08963 0.75000
vt 0.25000 0.89977
vt 0.25792 0.37563
vt 0.39049 0.37563
vt 0.36126 0.40977
vt 0.27985 0.40977
vt 0.25000 0.81723
vt 0.19175 0.75000
vt 0.15803 0.75000
vt 0.25000 0.84847
vt 0.25000 0.84847
vt 0.15803 0.75000
vt 0.19175 0.75000
vt 0.25000 0.81723
vt 0.25000 0.81723
vt 0.19175 0.75000
vt 0.15803 0.75000
vt 0.25000 0.84847
vt 0.27985 0.40977
vt 0.36126 0.40977
vt 0.34763 0.42840
vt 0.29389 0.42840
vt 0.25000 0.78906
vt 0.21822 0.75000
vt 0.19175 0.75000
vt 0.25000 0.81723
vt 0.25000 0.81723
vt 0.19175 0.75000
vt 0.21822 0.75000
vt 0.25000 0.78906
vt 0.25000 0.78906
vt 0.21822 0.75000
vt 0.19175 0.75000
vt 0.25000 0.81723
vt 0.29389 0.42840
vt 0.34763 0.42840
vt 0.33734 0.44392
vt 0.30692 0.44392
vt 0.25000 0.75000
vt 0.21822 0.75000
vt 0.25000 0.78906
vt 0.25000 0.78906
vt 0.21822 0.75000
vt 0.25000 0.75000
vt 0.25000 0.75000
vt 0.21822 0.75000
vt 0.25000 0.78906
vt 0.30692 0.44392
vt 0.33734 0.44392
vt 0.32552 0.46365
vt 0.91666 0.75000
vt 0.87846 0.72303
vt 0.86029 0.75000
vt 0.86029 0.75000
vt 0.87846 0.72303
vt 0.91666 0.75000
vt 0.91666 0.75000
vt 0.87846 0.72303
vt 0.86029 0.75000
vt 0.49992 0.28954
vt 0.50000 0.30733
vt 0.47175 0.30733
vt 1.00000 0.74152
vt 0.91616 0.67332
vt 0.87846 0.72303
vt 0.91666 0.75000
vt 1.00000 0.75000
vt 1.00000 0.74152
vt 0.91666 0.75000
vt 0.91666 0.75000
vt 0.87846 0.72303
vt 0.91616 0.67332
vt 1.00000 0.74152
vt 0.91666 0.75000
vt 1.00000 0.74152
vt 1.00000 0.75000
vt 1.00000 0.74152
vt 0.91616 0.67332
vt 0.87846 0.72303
vt 0.91666 0.75000
vt 1.00000 0.75000
vt 1.00000 0.74152
vt 0.91666 0.75000
vt 0.47175 0.30733
vt 0.50000 0.30733
vt 0.50000 0.34148
vt 0.43470 0.34148
vt 0.47175 0.30733
vt 0.43470 0.34148
vt 0.43149 0.33737
vt 1.00000 0.66629
vt 0.95717 0.62629
vt 0.91616 0.67332
vt 1.00000 0.74152
vt 1.00000 0.74152
vt 0.91616 0.67332
vt 0.95717 0.62629
vt 1.00000 0.66629
vt 1.00000 0.66629
vt 0.95717 0.62629
vt 0.91616 0.67332
vt 1.00000 0.74152
vt 0.43470 0.34148
vt 0.50000 0.34148
vt 0.50000 0.37563
vt 0.46459 0.37563
vt 1.00000 0.58345
vt 0.95717 0.62629
vt 1.00000 0.66629
vt 1.00000 0.66629
vt 0.95717 0.62629
vt 1.00000 0.58345
vt 1.00000 0.58345
vt 0.95717 0.62629
vt 1.00000 0.66629
vt 0.46459 0.37563
vt 0.50000 0.37563
vt 0.49996 0.40878
vt 0.01378 0.00000
vt 0.07609 0.00000
vt 0.07609 0.90625
vt 0.01378 0.90625
vt 0.02757 0.00000
vt 0.15219 0.00000
vt 0.15219 0.09375
vt 0.02757 0.09375
vt 0.02757 0.00000
vt 0.15219 0.00000
vt 0.15219 0.09375
vt 0.02757 0.09375
vt 0.06500 0.90625
vt 0.07609 0.90625
vt 0.07609 0.00000
vt 0.06500 0.00000
vt 0.19565 0.00000
vt 0.19565 0.90625
vt 0.07609 0.90625
vt 0.07609 0.00000
vt 0.39131 0.00000
vt 0.39131 0.09375
vt 0.15219 0.09375
vt 0.15219 0.00000
vt 0.39131 0.00000
vt 0.39131 0.09375
vt 0.15219 0.09375
vt 0.15219 0.00000
vt 0.07609 0.00000
vt 0.07609 0.90625
vt 0.19565 0.90625
vt 0.19565 0.00000
vt 0.31522 0.00000
vt 0.31522 0.90625
vt 0.19565 0.90625
vt 0.19565 0.00000
vt 0.63043 0.00000
vt 0.63043 0.09375
vt 0.39131 0.09375
vt 0.39131 0.00000
vt 0.63043 0.00000
vt 0.63043 0.09375
vt 0.39131 0.09375
vt 0.39131 0.00000
vt 0.19565 0.00000
vt 0.19565 0.90625
vt 0.31522 0.90625
vt 0.31522 0.00000
vt 0.43129 0.00000
vt 0.43129 0.90625
vt 0.31522 0.90625
vt 0.31522 0.00000
vt 0.86258 0.00000
vt 0.86258 0.09375
vt 0.63043 0.09375
vt 0.63043 0.00000
vt 0.86258 0.00000
vt 0.86258 0.09375
vt 0.63043 0.09375
vt 0.63043 0.00000
vt 0.31522 0.00000
vt 0.31522 0.90625
vt 0.35620 0.90625
vt 0.35620 0.00000
vt 0.01042 0.75000
vt 0.00000 0.74152
vt 0.00000 0.75000
vt 0.00000 0.75000
vt 0.00000 0.74152
vt 0.01042 0.75000
vt 0.01042 0.75000
vt 0.00000 0.74152
vt 0.00000 0.75000
vt 0.43149 0.33737
vt 0.43470 0.34148
vt 0.42659 0.34148
vt 0.08963 0.75000
vt 0.00000 0.66629
vt 0.00000 0.74152
vt 0.01042 0.75000
vt 0.01042 0.75000
vt 0.00000 0.74152
vt 0.00000 0.66629
vt 0.08963 0.75000
vt 0.08963 0.75000
vt 0.00000 0.66629
vt 0.00000 0.74152
vt 0.01042 0.75000
vt 0.42659 0.34148
vt 0.43470 0.34148
vt 0.46459 0.37563
vt 0.39049 0.37563
vt 0.00129 0.58217
vt 0.00000 0.58345
vt 0.00000 0.66629
vt 0.08963 0.75000
vt 0.15803 0.75000
vt 0.00129 0.58217
vt 0.08963 0.75000
vt 0.08963 0.75000
vt 0.00000 0.66629
vt 0.00000 0.58345
vt 0.00129 0.58217
vt 0.08963 0.75000
vt 0.00129 0.58217
vt 0.15803 0.75000
vt 0.00129 0.58217
vt 0.00000 0.58345
vt 0.00000 0.66629
vt 0.08963 0.75000
vt 0.15803 0.75000
vt 0.00129 0.58217
vt 0.08963 0.75000
vt 0.39049 0.37563
vt 0.46459 0.37563
vt 0.49996 0.40878
vt 0.50000 0.40977
vt 0.39049 0.37563
vt 0.50000 0.40977
vt 0.36126 0.40977
vt 0.19175 0.75000
vt 0.02659 0.55940
vt 0.00129 0.58217
vt 0.15803 0.75000
vt 0.15803 0.75000
vt 0.00129 0.58217
vt 0.02659 0.55940
vt 0.19175 0.75000
vt 0.19175 0.75000
vt 0.02659 0.55940
vt 0.00129 0.58217
vt 0.15803 0.75000
vt 0.36126 0.40977
vt 0.50000 0.40977
vt 0.50000 0.42840
vt 0.34763 0.42840
vt 0.21822 0.75000
vt 0.04832 0.54116
vt 0.02659 0.55940
vt 0.19175 0.75000
vt 0.19175 0.75000
vt 0.02659 0.55940
vt 0.04832 0.54116
vt 0.21822 0.75000
vt 0.21822 0.75000
vt 0.04832 0.54116
vt 0.02659 0.55940
vt 0.19175 0.75000
vt 0.34763 0.42840
vt 0.50000 0.42840
vt 0.50000 0.44392
vt 0.33734 0.44392
vt 0.25000 0.71875
vt 0.09803 0.50346
vt 0.04832 0.54116
vt 0.21822 0.75000
vt 0.25000 0.75000
vt 0.25000 0.71875
vt 0.21822 0.75000
vt 0.21822 0.75000
vt 0.04832 0.54116
vt 0.09803 0.50346
vt 0.25000 0.71875
vt 0.21822 0.75000
vt 0.25000 0.71875
vt 0.25000 0.75000
vt 0.25000 0.71875
vt 0.09803 0.50346
vt 0.04832 0.54116
vt 0.21822 0.75000
vt 0.25000 0.75000
vt 0.25000 0.71875
vt 0.21822 0.75000
vt 0.33734 0.44392
vt 0.50000 0.44392
vt 0.50000 0.47807
vt 0.34079 0.47807
vt 0.33734 0.44392
vt 0.34079 0.47807
vt 0.32552 0.46365
vt 0.16891 0.50000
vt 0.10331 0.50000
vt 0.09803 0.50346
vt 0.25000 0.71875
vt 0.25000 0.63334
vt 0.16891 0.50000
vt 0.25000 0.71875
vt 0.25000 0.71875
vt 0.09803 0.50346
vt 0.10331 0.50000
vt 0.16891 0.50000
vt 0.25000 0.71875
vt 0.16891 0.50000
vt 0.25000 0.63334
vt 0.16891 0.50000
vt 0.10331 0.50000
vt 0.09803 0.50346
vt 0.25000 0.71875
vt 0.25000 0.63334
vt 0.16891 0.50000
vt 0.25000 0.71875
vt 0.34079 0.47807
vt 0.50000 0.47807
vt 0.49988 0.48152
vt 0.47825 0.51222
vt 0.34079 0.47807
vt 0.47825 0.51222
vt 0.38396 0.51222
vt 0.25000 0.52628
vt 0.23638 0.50000
vt 0.16891 0.50000
vt 0.25000 0.63334
vt 0.25000 0.63334
vt 0.16891 0.50000
vt 0.23638 0.50000
vt 0.25000 0.52628
vt 0.25000 0.52628
vt 0.23638 0.50000
vt 0.16891 0.50000
vt 0.25000 0.63334
vt 0.38396 0.01222
vt 0.47825 0.01222
vt 0.45826 0.04636
vt 0.44037 0.04636
vt 0.25000 0.50000
vt 0.23638 0.50000
vt 0.25000 0.52628
vt 0.25000 0.52628
vt 0.23638 0.50000
vt 0.25000 0.50000
vt 0.25000 0.50000
vt 0.23638 0.50000
vt 0.25000 0.52628
vt 0.44037 0.04636
vt 0.45826 0.04636
vt 0.45453 0.05357
vt 0.43129 0.00000
vt 0.43478 0.00000
vt 0.43478 0.90625
vt 0.43129 0.90625
vt 0.86258 0.00000
vt 0.86955 0.00000
vt 0.86955 0.09375
vt 0.86258 0.09375
vt 0.86258 0.00000
vt 0.86955 0.00000
vt 0.86955 0.09375
vt 0.86258 0.09375
vt 0.35620 0.90625
vt 0.43478 0.90625
vt 0.43478 0.00000
vt 0.35620 0.00000
vt 0.50000 0.00000
vt 0.50000 0.90625
vt 0.43478 0.90625
vt 0.43478 0.00000
vt 1.00000 0.00000
vt 1.00000 0.09375
vt 0.86955 0.09375
vt 0.86955 0.00000
vt 1.00000 0.00000
vt 1.00000 0.09375
vt 0.86955 0.09375
vt 0.86955 0.00000
vt 0.43478 0.00000
vt 0.43478 0.90625
vt 0.50000 0.90625
vt 0.50000 0.00000
vt 0.05435 0.00000
vt 0.05435 0.90625
vt 0.00000 0.90625
vt 0.00000 0.00000
vt 0.10871 0.00000
vt 0.10871 0.09375
vt 0.00000 0.09375
vt 0.00000 0.00000
vt 0.10871 0.00000
vt 0.10871 0.09375
vt 0.00000 0.09375
vt 0.00000 0.00000
vt 0.00000 0.00000
vt 0.00000 0.90625
vt 0.05435 0.90625
vt 0.05435 0.00000
vt 0.17392 0.00000
vt 0.17392 0.90625
vt 0.05435 0.90625
vt 0.05435 0.00000
vt 0.34783 0.00000
vt 0.34783 0.09375
vt 0.10871 0.09375
vt 0.10871 0.00000
vt 0.34783 0.00000
vt 0.34783 0.09375
vt 0.10871 0.09375
vt 0.10871 0.00000
vt 0.05435 0.00000
vt 0.05435 0.90625
vt 0.17392 0.90625
vt 0.17392 0.00000
vt 0.18600 0.00000
vt 0.18600 0.90625
vt 0.17392 0.90625
vt 0.17392 0.00000
vt 0.37199 0.00000
vt 0.37199 0.09375
vt 0.34783 0.09375
vt 0.34783 0.00000
vt 0.37199 0.00000
vt 0.37199 0.09375
vt 0.34783 0.09375
vt 0.34783 0.00000
vt 0.17392 0.00000
vt 0.17392 0.90625
vt 0.29348 0.90625
vt 0.29348 0.00000
vt 0.29348 0.00000
vt 0.29348 0.90625
vt 0.30321 0.90625
vt 0.30321 0.00000
vn 0.00000 1.00000 0.00000
vn 0.00000 1.00000 0.00000
vn 0.00000 1.00000 0.00000
vn 0.00000 1.00000 0.00000
vn 0.00000 -1.00000 0.00000
vn 0.00000 -1.00000 0.00000
vn 0.00000 -1.00000 0.00000
vn 0.00000 -1.00000 0.00000
vn 0.00000 1.00000 0.00000
vn 0.00000 1.00000 0.00000
vn 0.00000 1.00000 0.00000
vn 0.00000 1.00000 0.00000
vn 0.00000 -1.00000 0.00000
vn 0.00000 -1.00000 0.00000
vn 0.00000 -1.00000 0.00000
vn 0.00000 -1.00000 0.00000
vn 0.00000 1.00000 0.00000
vn 0.00000 1.00000 0.00000
vn 0.00000 1.00000 0.00000
vn 0.00000 -1.00000 0.00000
vn 0.00000 -1.00000 0.00000
vn 0.00000 -1.00000 0.00000
vn 0.00000 1.00000 0.00000
vn 0.00000 1.00000 0.00000
vn 0.00000 1.00000 0.00000
vn 0.00000 -1.00000 0.00000
vn 0.00000 -1.00000 0.00000
vn 0.00000 -1.00000 0.00000
vn -0.96122 0.00000 -0.27577
vn -0.96122 0.00000 -0.27577
vn -0.96122 0.00000 -0.27577
vn -0.96122 0.00000 -0.27577
vn -0.96122 0.00000 -0.27577
vn -0.96122 0.00000 -0.27577
vn -0.96122 0.00000 -0.27577
vn -0.96122 0.00000 -0.27577
vn -0.96122 0.00000 -0.27577
vn -0.96122 0.00000 -0.27577
vn -0.96122 0.00000 -0.27577
vn -0.96122 0.00000 -0.27577
vn -0.95125 0.00000 -0.30843
vn -0.95125 0.00000 -0.30843
vn -0.95125 0.00000 -0.30843
vn -0.95125 0.00000 -0.30843
vn -0.95125 0.00000 -0.30843
vn -0.95125 0.00000 -0.30843
vn -0.95125 0.00000 -0.30843
vn -0.95125 0.00000 -0.30843
vn -0.95125 0.00000 -0.30843
vn -0.95125 0.00000 -0.30843
vn -0.95125 0.00000 -0.30843
vn -0.95125 0.00000 -0.30843
vn 0.00000 1.00000 0.00000
vn 0.00000 1.00000 0.00000
vn 0.00000 1.00000 0.00000
vn 0.00000 -1.00000 0.00000
vn 0.00000 -1.00000 0.00000
vn 0.00000 -1.00000 0.00000
vn 0.00000 1.00000 0.00000
vn 0.00000 1.00000 0.00000
vn 0.00000 1.00000 0.00000
vn 0.00000 -1.00000 0.00000
vn 0.00000 -1.00000 0.00000
vn 0.00000 -1.00000 0.00000
vn 0.00000 1.00000 0.00000
vn 0.00000 1.00000 0.00000
vn 0.00000 1.00000 0.00000
vn 0.00000 1.00000 0.00000
vn 0.00000 1.00000 0.00000
vn 0.00000 1.00000 0.00000
vn 0.00000 1.00000 0.00000
vn 0.00000 -1.00000 0.00000
vn 0.00000 -1.00000 0.00000
vn 0.00000 -1.00000 0.00000
vn 0.00000 -1.00000 0.00000
vn 0.00000 -1.00000 0.00000
vn 0.00000 -1.00000 0.00000
vn 0.00000 -1.00000 0.00000
vn 0.00000 1.00000 0.00000
vn 0.00000 1.00000 0.00000
vn 0.00000 1.00000 0.00000
vn 0.00000 1.00000 0.00000
vn 0.00000 1.00000 0.00000
vn 0.00000 1.00000 0.00000
vn 0.00000 1.00000 0.00000
vn 0.00000 -1.00000 0.00000
vn 0.00000 -1.00000 0.00000
vn 0.00000 -1.00000 0.00000
vn 0.00000 -1.00000 0.00000
vn 0.00000 -1.00000 0.00000
vn 0.00000 -1.00000 0.00000
vn 0.00000 -1.00000 0.00000
vn 0.00000 1.00000 0.00000
vn 0.00000 1.00000 0.00000
vn 0.00000 1.00000 0.00000
vn 0.00000 1.00000 0.00000
vn 0.00000 1.00000 0.00000
vn 0.00000 1.00000 0.00000
vn 0.00000 1.00000 0.00000
vn 0.00000 -1.00000 0.00000
vn 0.00000 -1.00000 0.00000
vn 0.00000 -1.00000 0.00000
vn 0.00000 -1.00000 0.00000
vn 0.00000 -1.00000 0.00000
vn 0.00000 -1.00000 0.00000
vn 0.00000 -1.00000 0.00000
vn 0.00000 1.00000 0.00000
vn 0.00000 1.00000 0.00000
vn 0.00000 1.00000 0.00000
vn 0.00000 1.00000 0.00000
vn 0.00000 1.00000 0.00000
vn 0.00000 1.00000 0.00000
vn 0.00000 1.00000 0.00000
vn 0.00000 -1.00000 0.00000
vn 0.00000 -1.00000 0.00000
vn 0.00000 -1.00000 0.00000
vn 0.00000 -1.00000 0.00000
vn 0.00000 -1.00000 0.00000
vn 0.00000 -1.00000 0.00000
vn 0.00000 -1.00000 0.00000
vn 0.00000 1.00000 0.00000
vn 0.00000 1.00000 0.00000
vn 0.00000 1.00000 0.00000
vn 0.00000 1.00000 0.00000
vn 0.00000 -1.00000 0.00000
vn 0.00000 -1.00000 0.00000
vn 0.00000 -1.00000 0.00000
vn 0.00000 -1.00000 0.00000
vn 0.00000 1.00000 0.00000
vn 0.00000 1.00000 0.00000
vn 0.00000 1.00000 0.00000
vn 0.00000 1.00000 0.00000
vn 0.00000 -1.00000 0.00000
vn 0.00000 -1.00000 0.00000
vn 0.00000 -1.00000 0.00000
vn 0.00000 -1.00000 0.00000
vn 0.00000 1.00000 0.00000
vn 0.00000 1.00000 0.00000
vn 0.00000 1.00000 0.00000
vn 0.00000 1.00000 0.00000
vn 0.00000 -1.00000 0.00000
vn 0.00000 -1.00000 0.00000
vn 0.00000 -1.00000 0.00000
vn 0.00000 -1.00000 0.00000
vn 0.00000 1.00000 0.00000
vn 0.00000 1.00000 0.00000
vn 0.00000 1.00000 0.00000
vn 0.00000 1.00000 0.00000
vn 0.00000 -1.00000 0.00000
vn 0.00000 -1.00000 0.00000
vn 0.00000 -1.00000 0.00000
vn 0.00000 -1.00000 0.00000
vn 0.00000 1.00000 0.00000
vn 0.00000 1.00000 0.00000
vn 0.00000 1.00000 0.00000
vn 0.00000 1.00000 0.00000
vn 0.00000 -1.00000 0.00000
vn 0.00000 -1.00000 0.00000
vn 0.00000 -1.00000 0.00000
vn 0.00000 -1.00000 0.00000
vn 0.00000 1.00000 0.00000
vn 0.00000 1.00000 0.00000
vn 0.00000 1.00000 0.00000
vn 0.00000 1.00000 0.00000
vn 0.00000 -1.00000 0.00000
vn 0.00000 -1.00000 0.00000
vn 0.00000 -1.00000 0.00000
vn 0.00000 -1.00000 0.00000
vn 0.00000 1.00000 0.00000
vn 0.00000 1.00000 0.00000
vn 0.00000 1.00000 0.00000
vn 0.00000 1.00000 0.00000
vn 0.00000 1.00000 0.00000
vn 0.00000 1.00000 0.00000
vn 0.00000 1.00000 0.00000
vn 0.00000 -1.00000 0.00000
vn 0.00000 -1.00000 0.00000
vn 0.00000 -1.00000 0.00000
vn 0.00000 -1.00000 0.00000
vn 0.00000 -1.00000 0.00000
vn 0.00000 -1.00000 0.00000
vn 0.00000 -1.00000 0.00000
vn 0.00000 1.00000 0.00000
vn 0.00000 1.00000 0.00000
vn 0.00000 1.00000 0.00000
vn 0.00000 1.00000 0.00000
vn 0.00000 1.00000 0.00000
vn 0.00000 1.00000 0.00000
vn 0.00000 1.00000 0.00000
vn 0.00000 -1.00000 0.00000
vn 0.00000 -1.00000 0.00000
vn 0.00000 -1.00000 0.00000
vn 0.00000 -1.00000 0.00000
vn 0.00000 -1.00000 0.00000
vn 0.00000 -1.00000 0.00000
vn 0.00000 -1.00000 0.00000
vn 0.00000 1.00000 0.00000
vn 0.00000 1.00000 0.00000
vn 0.00000 1.00000 0.00000
vn 0.00000 -1.00000 0.00000
vn 0.00000 -1.00000 0.00000
vn 0.00000 -1.00000 0.00000
vn 0.00000 1.00000 0.00000
vn 0.00000 1.00000 0.00000
vn 0.00000 1.00000 0.00000
vn 0.00000 -1.00000 0.00000
vn 0.00000 -1.00000 0.00000
vn 0.00000 -1.00000 0.00000
vn -0.95125 0.00000 -0.30843
vn -0.95125 0.00000 -0.30843
vn -0.95125 0.00000 -0.30843
vn -0.95125 0.00000 -0.30843
vn -0.95125 0.00000 -0.30843
vn -0.95125 0.00000 -0.30843
vn -0.95125 0.00000 -0.30843
vn -0.95125 0.00000 -0.30843
vn -0.95125 0.00000 -0.30843
vn -0.95125 0.00000 -0.30843
vn -0.95125 0.00000 -0.30843
vn -0.95125 0.00000 -0.30843
vn 0.95125 0.00000 0.30843
vn 0.95125 0.00000 0.30843
vn 0.95125 0.00000 0.30843
vn 0.95125 0.00000 0.30843
vn -0.93028 0.00000 -0.36685
vn -0.93028 0.00000 -0.36685
vn -0.93028 0.00000 -0.36685
vn -0.93028 0.00000 -0.36685
vn -0.93028 0.00000 -0.36685
vn -0.93028 0.00000 -0.36685
vn -0.93028 0.00000 -0.36685
vn -0.93028 0.00000 -0.36685
vn -0.93028 0.00000 -0.36685
vn -0.93028 0.00000 -0.36685
vn -0.93028 0.00000 -0.36685
vn -0.93028 0.00000 -0.36685
vn 0.93028 0.00000 0.36685
vn 0.93028 0.00000 0.36685
vn 0.93028 0.00000 0.36685
vn 0.93028 0.00000 0.36685
vn -0.90307 0.00000 -0.42948
vn -0.90307 0.00000 -0.42948
vn -0.90307 0.00000 -0.42948
vn -0.90307 0.00000 -0.42948
vn -0.90307 0.00000 -0.42948
vn -0.90307 0.00000 -0.42948
vn -0.90307 0.00000 -0.42948
vn -0.90307 0.00000 -0.42948
vn -0.90307 0.00000 -0.42948
vn -0.90307 0.00000 -0.42948
vn -0.90307 0.00000 -0.42948
vn -0.90307 0.00000 -0.42948
vn 0.90307 0.00000 0.42948
vn 0.90307 0.00000 0.42948
vn 0.90307 0.00000 0.42948
vn 0.90307 0.00000 0.42948
vn -0.87166 0.00000 -0.49011
vn -0.87166 0.00000 -0.49011
vn -0.87166 0.00000 -0.49011
vn -0.87166 0.00000 -0.49011
vn -0.87166 0.00000 -0.49011
vn -0.87166 0.00000 -0.49011
vn -0.87166 0.00000 -0.49011
vn -0.87166 0.00000 -0.49011
vn -0.87166 0.00000 -0.49011
vn -0.87166 0.00000 -0.49011
vn -0.87166 0.00000 -0.49011
vn -0.87166 0.00000 -0.49011
vn 0.87166 0.00000 0.49011
vn 0.87166 0.00000 0.49011
vn 0.87166 0.00000 0.49011
vn 0.87166 0.00000 0.49011
vn -0.84790 0.00000 -0.53015
vn -0.84790 0.00000 -0.53015
vn -0.84790 0.00000 -0.53015
vn -0.84790 0.00000 -0.53015
vn -0.84790 0.00000 -0.53015
vn -0.84790 0.00000 -0.53015
vn -0.84790 0.00000 -0.53015
vn -0.84790 0.00000 -0.53015
vn -0.84790 0.00000 -0.53015
vn -0.84790 0.00000 -0.53015
vn -0.84790 0.00000 -0.53015
vn -0.84790 0.00000 -0.53015
vn 0.84790 0.00000 0.53015
vn 0.84790 0.00000 0.53015
vn 0.84790 0.00000 0.53015
vn 0.84790 0.00000 0.53015
vn -0.82931 0.00000 -0.55879
vn -0.82931 0.00000 -0.55879
vn -0.82931 0.00000 -0.55879
vn -0.82931 0.00000 -0.55879
vn -0.82931 0.00000 -0.55879
vn -0.82931 0.00000 -0.55879
vn -0.82931 0.00000 -0.55879
vn -0.82931 0.00000 -0.55879
vn -0.82931 0.00000 -0.55879
vn -0.82931 0.00000 -0.55879
vn -0.82931 0.00000 -0.55879
vn -0.82931 0.00000 -0.55879
vn 0.82931 0.00000 0.55879
vn 0.82931 0.00000 0.55879
vn 0.82931 0.00000 0.55879
vn 0.82931 0.00000 0.55879
vn 0.00000 1.00000 0.00000
vn 0.00000 1.00000 0.00000
vn 0.00000 1.00000 0.00000
vn 0.00000 -1.00000 0.00000
vn 0.00000 -1.00000 0.00000
vn 0.00000 -1.00000 0.00000
vn 0.00000 1.00000 0.00000
vn 0.00000 1.00000 0.00000
vn 0.00000 1.00000 0.00000
vn 0.00000 -1.00000 0.00000
vn 0.00000 -1.00000 0.00000
vn 0.00000 -1.00000 0.00000
vn 0.00000 1.00000 0.00000
vn 0.00000 1.00000 0.00000
vn 0.00000 1.00000 0.00000
vn 0.00000 1.00000 0.00000
vn 0.00000 -1.00000 0.00000
vn 0.00000 -1.00000 0.00000
vn 0.00000 -1.00000 0.00000
vn 0.00000 -1.00000 0.00000
vn 0.00000 1.00000 0.00000
vn 0.00000 1.00000 0.00000
vn 0.00000 1.00000 0.00000
vn 0.00000 1.00000 0.00000
vn 0.00000 -1.00000 0.00000
vn 0.00000 -1.00000 0.00000
vn 0.00000 -1.00000 0.00000
vn 0.00000 -1.00000 0.00000
vn 0.00000 1.00000 0.00000
vn 0.00000 1.00000 0.00000
vn 0.00000 1.00000 0.00000
vn 0.00000 1.00000 0.00000
vn 0.00000 -1.00000 0.00000
vn 0.00000 -1.00000 0.00000
vn 0.00000 -1.00000 0.00000
vn 0.00000 -1.00000 0.00000
vn 0.00000 1.00000 0.00000
vn 0.00000 1.00000 0.00000
vn 0.00000 1.00000 0.00000
vn 0.00000 1.00000 0.00000
vn 0.00000 -1.00000 0.00000
vn 0.00000 -1.00000 0.00000
vn 0.00000 -1.00000 0.00000
vn 0.00000 -1.00000 0.00000
vn 0.00000 1.00000 0.00000
vn 0.00000 1.00000 0.00000
vn 0.00000 1.00000 0.00000
vn 0.00000 1.00000 0.00000
vn 0.00000 -1.00000 0.00000
vn 0.00000 -1.00000 0.00000
vn 0.00000 -1.00000 0.00000
vn 0.00000 -1.00000 0.00000
vn 0.00000 1.00000 0.00000
vn 0.00000 1.00000 0.00000
vn 0.00000 1.00000 0.00000
vn 0.00000 1.00000 0.00000
vn 0.00000 -1.00000 0.00000
vn 0.00000 -1.00000 0.00000
vn 0.00000 -1.00000 0.00000
vn 0.00000 -1.00000 0.00000
vn 0.00000 1.00000 0.00000
vn 0.00000 1.00000 0.00000
vn 0.00000 1.00000 0.00000
vn 0.00000 1.00000 0.00000
vn 0.00000 1.00000 0.00000
vn 0.00000 1.00000 0.00000
vn 0.00000 1.00000 0.00000
vn 0.00000 -1.00000 0.00000
vn 0.00000 -1.00000 0.00000
vn 0.00000 -1.00000 0.00000
vn 0.00000 -1.00000 0.00000
vn 0.00000 -1.00000 0.00000
vn 0.00000 -1.00000 0.00000
vn 0.00000 -1.00000 0.00000
vn 0.00000 1.00000 0.00000
vn 0.00000 1.00000 0.00000
vn 0.00000 1.00000 0.00000
vn 0.00000 1.00000 0.00000
vn 0.00000 1.00000 0.00000
vn 0.00000 1.00000 0.00000
vn 0.00000 1.00000 0.00000
vn 0.00000 -1.00000 0.00000
vn 0.00000 -1.00000 0.00000
vn 0.00000 -1.00000 0.00000
vn 0.00000 -1.00000 0.00000
vn 0.00000 -1.00000 0.00000
vn 0.00000 -1.00000 0.00000
vn 0.00000 -1.00000 0.00000
vn 0.00000 1.00000 0.00000
vn 0.00000 1.00000 0.00000
vn 0.00000 1.00000 0.00000
vn 0.00000 1.00000 0.00000
vn 0.00000 1.00000 0.00000
vn 0.00000 1.00000 0.00000
vn 0.00000 1.00000 0.00000
vn 0.00000 -1.00000 0.00000
vn 0.00000 -1.00000 0.00000
vn 0.00000 -1.00000 0.00000
vn 0.00000 -1.00000 0.00000
vn 0.00000 -1.00000 0.00000
vn 0.00000 -1.00000 0.00000
vn 0.00000 -1.00000 0.00000
vn 0.00000 1.00000 0.00000
vn 0.00000 1.00000 0.00000
vn 0.00000 1.00000 0.00000
vn 0.00000 1.00000 0.00000
vn 0.00000 1.00000 0.00000
vn 0.00000 1.00000 0.00000
vn 0.00000 1.00000 0.00000
vn 0.00000 -1.00000 0.00000
vn 0.00000 -1.00000 0.00000
vn 0.00000 -1.00000 0.00000
vn 0.00000 -1.00000 0.00000
vn 0.00000 -1.00000 0.00000
vn 0.00000 -1.00000 0.00000
vn 0.00000 -1.00000 0.00000
vn 0.00000 1.00000 0.00000
vn 0.00000 1.00000 0.00000
vn 0.00000 1.00000 0.00000
vn 0.00000 1.00000 0.00000
vn 0.00000 -1.00000 0.00000
vn 0.00000 -1.00000 0.00000
vn 0.00000 -1.00000 0.00000
vn 0.00000 -1.00000 0.00000
vn 0.00000 1.00000 0.00000
vn 0.00000 1.00000 0.00000
vn 0.00000 1.00000 0.00000
vn 0.00000 1.00000 0.00000
vn 0.00000 -1.00000 0.00000
vn 0.00000 -1.00000 0.00000
vn 0.00000 -1.00000 0.00000
vn 0.00000 -1.00000 0.00000
vn 0.00000 1.00000 0.00000
vn 0.00000 1.00000 0.00000
vn 0.00000 1.00000 0.00000
vn 0.00000 1.00000 0.00000
vn 0.00000 -1.00000 0.00000
vn 0.00000 -1.00000 0.00000
vn 0.00000 -1.00000 0.00000
vn 0.00000 -1.00000 0.00000
vn 0.00000 1.00000 0.00000
vn 0.00000 1.00000 0.00000
vn 0.00000 1.00000 0.00000
vn 0.00000 1.00000 0.00000
vn 0.00000 -1.00000 0.00000
vn 0.00000 -1.00000 0.00000
vn 0.00000 -1.00000 0.00000
vn 0.00000 -1.00000 0.00000
vn 0.00000 1.00000 0.00000
vn 0.00000 1.00000 0.00000
vn 0.00000 1.00000 0.00000
vn 0.00000 1.00000 0.00000
vn 0.00000 -1.00000 0.00000
vn 0.00000 -1.00000 0.00000
vn 0.00000 -1.00000 0.00000
vn 0.00000 -1.00000 0.00000
vn 0.00000 1.00000 0.00000
vn 0.00000 1.00000 0.00000
vn 0.00000 1.00000 0.00000
vn 0.00000 1.00000 0.00000
vn 0.00000 -1.00000 0.00000
vn 0.00000 -1.00000 0.00000
vn 0.00000 -1.00000 0.00000
vn 0.00000 -1.00000 0.00000
vn 0.00000 1.00000 0.00000
vn 0.00000 1.00000 0.00000
vn 0.00000 1.00000 0.00000
vn 0.00000 1.00000 0.00000
vn 0.00000 -1.00000 0.00000
vn 0.00000 -1.00000 0.00000
vn 0.00000 -1.00000 0.00000
vn 0.00000 -1.00000 0.00000
vn 0.00000 1.00000 0.00000
vn 0.00000 1.00000 0.00000
vn 0.00000 1.00000 0.00000
vn 0.00000 1.00000 0.00000
vn 0.00000 -1.00000 0.00000
vn 0.00000 -1.00000 0.00000
vn 0.00000 -1.00000 0.00000
vn 0.00000 -1.00000 0.00000
vn 0.00000 1.00000 0.00000
vn 0.00000 1.00000 0.00000
vn 0.00000 1.00000 0.00000
vn 0.00000 -1.00000 0.00000
vn 0.00000 -1.00000 0.00000
vn 0.00000 -1.00000 0.00000
vn 0.00000 1.00000 0.00000
vn 0.00000 1.00000 0.00000
vn 0.00000 1.00000 0.00000
vn 0.00000 -1.00000 0.00000
vn 0.00000 -1.00000 0.00000
vn 0.00000 -1.00000 0.00000
vn 0.00000 1.00000 0.00000
vn 0.00000 1.00000 0.00000
vn 0.00000 1.00000 0.00000
vn 0.00000 -1.00000 0.00000
vn 0.00000 -1.00000 0.00000
vn 0.00000 -1.00000 0.00000
vn 0.00000 1.00000 0.00000
vn 0.00000 1.00000 0.00000
vn 0.00000 1.00000 0.00000
vn 0.00000 -1.00000 0.00000
vn 0.00000 -1.00000 0.00000
vn 0.00000 -1.00000 0.00000
vn 0.00000 1.00000 0.00000
vn 0.00000 1.00000 0.00000
vn 0.00000 1.00000 0.00000
vn 0.00000 1.00000 0.00000
vn 0.00000 1.00000 0.00000
vn 0.00000 1.00000 0.00000
vn 0.00000 1.00000 0.00000
vn 0.00000 -1.00000 0.00000
vn 0.00000 -1.00000 0.00000
vn 0.00000 -1.00000 0.00000
vn 0.00000 -1.00000 0.00000
vn 0.00000 -1.00000 0.00000
vn 0.00000 -1.00000 0.00000
vn 0.00000 -1.00000 0.00000
vn 0.00000 1.00000 0.00000
vn 0.00000 1.00000 0.00000
vn 0.00000 1.00000 0.00000
vn 0.00000 1.00000 0.00000
vn 0.00000 1.00000 0.00000
vn 0.00000 1.00000 0.00000
vn 0.00000 1.00000 0.00000
vn 0.00000 -1.00000 0.00000
vn 0.00000 -1.00000 0.00000
vn 0.00000 -1.00000 0.00000
vn 0.00000 -1.00000 0.00000
vn 0.00000 -1.00000 0.00000
vn 0.00000 -1.00000 0.00000
vn 0.00000 -1.00000 0.00000
vn 0.00000 1.00000 0.00000
vn 0.00000 1.00000 0.00000
vn 0.00000 1.00000 0.00000
vn 0.00000 1.00000 0.00000
vn 0.00000 -1.00000 0.00000
vn 0.00000 -1.00000 0.00000
vn 0.00000 -1.00000 0.00000
vn 0.00000 -1.00000 0.00000
vn 0.00000 1.00000 0.00000
vn 0.00000 1.00000 0.00000
vn 0.00000 1.00000 0.00000
vn 0.00000 1.00000 0.00000
vn 0.00000 -1.00000 0.00000
vn 0.00000 -1.00000 0.00000
vn 0.00000 -1.00000 0.00000
vn 0.00000 -1.00000 0.00000
vn 0.00000 1.00000 0.00000
vn 0.00000 1.00000 0.00000
vn 0.00000 1.00000 0.00000
vn 0.00000 -1.00000 0.00000
vn 0.00000 -1.00000 0.00000
vn 0.00000 -1.00000 0.00000
vn 0.00000 1.00000 0.00000
vn 0.00000 1.00000 0.00000
vn 0.00000 1.00000 0.00000
vn 0.00000 -1.00000 0.00000
vn 0.00000 -1.00000 0.00000
vn 0.00000 -1.00000 0.00000
vn -0.82931 0.00000 -0.55879
vn -0.82931 0.00000 -0.55879
vn -0.82931 0.00000 -0.55879
vn -0.82931 0.00000 -0.55879
vn -0.82931 0.00000 -0.55879
vn -0.82931 0.00000 -0.55879
vn -0.82931 0.00000 -0.55879
vn -0.82931 0.00000 -0.55879
vn -0.82931 0.00000 -0.55879
vn -0.82931 0.00000 -0.55879
vn -0.82931 0.00000 -0.55879
vn -0.82931 0.00000 -0.55879
vn 0.82931 0.00000 0.55879
vn 0.82931 0.00000 0.55879
vn 0.82931 0.00000 0.55879
vn 0.82931 0.00000 0.55879
vn -0.79681 0.00000 -0.60424
vn -0.79681 0.00000 -0.60424
vn -0.79681 0.00000 -0.60424
vn -0.79681 0.00000 -0.60424
vn -0.79681 0.00000 -0.60424
vn -0.79681 0.00000 -0.60424
vn -0.79681 0.00000 -0.60424
vn -0.79681 0.00000 -0.60424
vn -0.79681 0.00000 -0.60424
vn -0.79681 0.00000 -0.60424
vn -0.79681 0.00000 -0.60424
vn -0.79681 0.00000 -0.60424
vn 0.79681 0.00000 0.60424
vn 0.79681 0.00000 0.60424
vn 0.79681 0.00000 0.60424
vn 0.79681 0.00000 0.60424
vn -0.75371 0.00000 -0.65720
vn -0.75371 0.00000 -0.65720
vn -0.75371 0.00000 -0.65720
vn -0.75371 0.00000 -0.65720
vn -0.75371 0.00000 -0.65720
vn -0.75371 0.00000 -0.65720
vn -0.75371 0.00000 -0.65720
vn -0.75371 0.00000 -0.65720
vn -0.75371 0.00000 -0.65720
vn -0.75371 0.00000 -0.65720
vn -0.75371 0.00000 -0.65720
vn -0.75371 0.00000 -0.65720
vn 0.75371 0.00000 0.65720
vn 0.75371 0.00000 0.65720
vn 0.75371 0.00000 0.65720
vn 0.75371 0.00000 0.65720
vn -0.70711 0.00000 -0.70711
vn -0.70711 0.00000 -0.70711
vn -0.70711 0.00000 -0.70711
vn -0.70711 0.00000 -0.70711
vn -0.70711 0.00000 -0.70711
vn -0.70711 0.00000 -0.70711
vn -0.70711 0.00000 -0.70711
vn -0.70711 0.00000 -0.70711
vn -0.70711 0.00000 -0.70711
vn -0.70711 0.00000 -0.70711
vn -0.70711 0.00000 -0.70711
vn -0.70711 0.00000 -0.70711
vn 0.70711 0.00000 0.70711
vn 0.70711 0.00000 0.70711
vn 0.70711 0.00000 0.70711
vn 0.70711 0.00000 0.70711
vn 0.00000 1.00000 0.00000
vn 0.00000 1.00000 0.00000
vn 0.00000 1.00000 0.00000
vn 0.00000 -1.00000 0.00000
vn 0.00000 -1.00000 0.00000
vn 0.00000 -1.00000 0.00000
vn 0.00000 1.00000 0.00000
vn 0.00000 1.00000 0.00000
vn 0.00000 1.00000 0.00000
vn 0.00000 -1.00000 0.00000
vn 0.00000 -1.00000 0.00000
vn 0.00000 -1.00000 0.00000
vn 0.00000 1.00000 0.00000
vn 0.00000 1.00000 0.00000
vn 0.00000 1.00000 0.00000
vn 0.00000 1.00000 0.00000
vn 0.00000 -1.00000 0.00000
vn 0.00000 -1.00000 0.00000
vn 0.00000 -1.00000 0.00000
vn 0.00000 -1.00000 0.00000
vn 0.00000 1.00000 0.00000
vn 0.00000 1.00000 0.00000
vn 0.00000 1.00000 0.00000
vn 0.00000 1.00000 0.00000
vn 0.00000 -1.00000 0.00000
vn 0.00000 -1.00000 0.00000
vn 0.00000 -1.00000 0.00000
vn 0.00000 -1.00000 0.00000
vn 0.00000 1.00000 0.00000
vn 0.00000 1.00000 0.00000
vn 0.00000 1.00000 0.00000
vn 0.00000 1.00000 0.00000
vn 0.00000 1.00000 0.00000
vn 0.00000 1.00000 0.00000
vn 0.00000 1.00000 0.00000
vn 0.00000 -1.00000 0.00000
vn 0.00000 -1.00000 0.00000
vn 0.00000 -1.00000 0.00000
vn 0.00000 -1.00000 0.00000
vn 0.00000 -1.00000 0.00000
vn 0.00000 -1.00000 0.00000
vn 0.00000 -1.00000 0.00000
vn 0.00000 1.00000 0.00000
vn 0.00000 1.00000 0.00000
vn 0.00000 1.00000 0.00000
vn 0.00000 1.00000 0.00000
vn 0.00000 1.00000 0.00000
vn 0.00000 1.00000 0.00000
vn 0.00000 1.00000 0.00000
vn 0.00000 -1.00000 0.00000
vn 0.00000 -1.00000 0.00000
vn 0.00000 -1.00000 0.00000
vn 0.00000 -1.00000 0.00000
vn 0.00000 -1.00000 0.00000
vn 0.00000 -1.00000 0.00000
vn 0.00000 -1.00000 0.00000
vn 0.00000 1.00000 0.00000
vn 0.00000 1.00000 0.00000
vn 0.00000 1.00000 0.00000
vn 0.00000 1.00000 0.00000
vn 0.00000 -1.00000 0.00000
vn 0.00000 -1.00000 0.00000
vn 0.00000 -1.00000 0.00000
vn 0.00000 -1.00000 0.00000
vn 0.00000 1.00000 0.00000
vn 0.00000 1.00000 0.00000
vn 0.00000 1.00000 0.00000
vn 0.00000 1.00000 0.00000
vn 0.00000 -1.00000 0.00000
vn 0.00000 -1.00000 0.00000
vn 0.00000 -1.00000 0.00000
vn 0.00000 -1.00000 0.00000
vn 0.00000 1.00000 0.00000
vn 0.00000 1.00000 0.00000
vn 0.00000 1.00000 0.00000
vn 0.00000 1.00000 0.00000
vn 0.00000 -1.00000 0.00000
vn 0.00000 -1.00000 0.00000
vn 0.00000 -1.00000 0.00000
vn 0.00000 -1.00000 0.00000
vn 0.00000 1.00000 0.00000
vn 0.00000 1.00000 0.00000
vn 0.00000 1.00000 0.00000
vn 0.00000 1.00000 0.00000
vn 0.00000 -1.00000 0.00000
vn 0.00000 -1.00000 0.00000
vn 0.00000 -1.00000 0.00000
vn 0.00000 -1.00000 0.00000
vn 0.00000 1.00000 0.00000
vn 0.00000 1.00000 0.00000
vn 0.00000 1.00000 0.00000
vn 0.00000 1.00000 0.00000
vn 0.00000 1.00000 0.00000
vn 0.00000 1.00000 0.00000
vn 0.00000 1.00000 0.00000
vn 0.00000 -1.00000 0.00000
vn 0.00000 -1.00000 0.00000
vn 0.00000 -1.00000 0.00000
vn 0.00000 -1.00000 0.00000
vn 0.00000 -1.00000 0.00000
vn 0.00000 -1.00000 0.00000
vn 0.00000 -1.00000 0.00000
vn 0.00000 1.00000 0.00000
vn 0.00000 1.00000 0.00000
vn 0.00000 1.00000 0.00000
vn 0.00000 1.00000 0.00000
vn 0.00000 1.00000 0.00000
vn 0.00000 1.00000 0.00000
vn 0.00000 1.00000 0.00000
vn 0.00000 -1.00000 0.00000
vn 0.00000 -1.00000 0.00000
vn 0.00000 -1.00000 0.00000
vn 0.00000 -1.00000 0.00000
vn 0.00000 -1.00000 0.00000
vn 0.00000 -1.00000 0.00000
vn 0.00000 -1.00000 0.00000
vn 0.00000 1.00000 0.00000
vn 0.00000 1.00000 0.00000
vn 0.00000 1.00000 0.00000
vn 0.00000 1.00000 0.00000
vn 0.00000 1.00000 0.00000
vn 0.00000 1.00000 0.00000
vn 0.00000 1.00000 0.00000
vn 0.00000 -1.00000 0.00000
vn 0.00000 -1.00000 0.00000
vn 0.00000 -1.00000 0.00000
vn 0.00000 -1.00000 0.00000
vn 0.00000 -1.00000 0.00000
vn 0.00000 -1.00000 0.00000
vn 0.00000 -1.00000 0.00000
vn 0.00000 1.00000 0.00000
vn 0.00000 1.00000 0.00000
vn 0.00000 1.00000 0.00000
vn 0.00000 1.00000 0.00000
vn 0.00000 1.00000 0.00000
vn 0.00000 1.00000 0.00000
vn 0.00000 1.00000 0.00000
vn 0.00000 -1.00000 0.00000
vn 0.00000 -1.00000 0.00000
vn 0.00000 -1.00000 0.00000
vn 0.00000 -1.00000 0.00000
vn 0.00000 -1.00000 0.00000
vn 0.00000 -1.00000 0.00000
vn 0.00000 -1.00000 0.00000
vn 0.00000 1.00000 0.00000
vn 0.00000 1.00000 0.00000
vn 0.00000 1.00000 0.00000
vn 0.00000 1.00000 0.00000
vn 0.00000 -1.00000 0.00000
vn 0.00000 -1.00000 0.00000
vn 0.00000 -1.00000 0.00000
vn 0.00000 -1.00000 0.00000
vn 0.00000 1.00000 0.00000
vn 0.00000 1.00000 0.00000
vn 0.00000 1.00000 0.00000
vn 0.00000 1.00000 0.00000
vn 0.00000 -1.00000 0.00000
vn 0.00000 -1.00000 0.00000
vn 0.00000 -1.00000 0.00000
vn 0.00000 -1.00000 0.00000
vn 0.00000 1.00000 0.00000
vn 0.00000 1.00000 0.00000
vn 0.00000 1.00000 0.00000
vn 0.00000 -1.00000 0.00000
vn 0.00000 -1.00000 0.00000
vn 0.00000 -1.00000 0.00000
vn 0.00000 1.00000 0.00000
vn 0.00000 1.00000 0.00000
vn 0.00000 1.00000 0.00000
vn 0.00000 -1.00000 0.00000
vn 0.00000 -1.00000 0.00000
vn 0.00000 -1.00000 0.00000
vn -0.70711 0.00000 -0.70711
vn -0.70711 0.00000 -0.70711
vn -0.70711 0.00000 -0.70711
vn -0.70711 0.00000 -0.70711
vn -0.70711 0.00000 -0.70711
vn -0.70711 0.00000 -0.70711
vn -0.70711 0.00000 -0.70711
vn -0.70711 0.00000 -0.70711
vn -0.70711 0.00000 -0.70711
vn -0.70711 0.00000 -0.70711
vn -0.70711 0.00000 -0.70711
vn -0.70711 0.00000 -0.70711
vn 0.70711 0.00000 0.70711
vn 0.70711 0.00000 0.70711
vn 0.70711 0.00000 0.70711
vn 0.70711 0.00000 0.70711
vn -0.66882 0.00000 -0.74342
vn -0.66882 0.00000 -0.74342
vn -0.66882 0.00000 -0.74342
vn -0.66882 0.00000 -0.74342
vn -0.66882 0.00000 -0.74342
vn -0.66882 0.00000 -0.74342
vn -0.66882 0.00000 -0.74342
vn -0.66882 0.00000 -0.74342
vn -0.66882 0.00000 -0.74342
vn -0.66882 0.00000 -0.74342
vn -0.66882 0.00000 -0.74342
vn -0.66882 0.00000 -0.74342
vn 0.66882 0.00000 0.74342
vn 0.66882 0.00000 0.74342
vn 0.66882 0.00000 0.74342
vn 0.66882 0.00000 0.74342
vn -0.64305 0.00000 -0.76582
vn -0.64305 0.00000 -0.76582
vn -0.64305 0.00000 -0.76582
vn -0.64305 0.00000 -0.76582
vn -0.64305 0.00000 -0.76582
vn -0.64305 0.00000 -0.76582
vn -0.64305 0.00000 -0.76582
vn -0.64305 0.00000 -0.76582
vn -0.64305 0.00000 -0.76582
vn -0.64305 0.00000 -0.76582
vn -0.64305 0.00000 -0.76582
vn -0.64305 0.00000 -0.76582
vn 0.64305 0.00000 0.76582
vn 0.64305 0.00000 0.76582
vn 0.64305 0.00000 0.76582
vn 0.64305 0.00000 0.76582
vn -0.60424 0.00000 -0.79681
vn -0.60424 0.00000 -0.79681
vn -0.60424 0.00000 -0.79681
vn -0.60424 0.00000 -0.79681
vn -0.60424 0.00000 -0.79681
vn -0.60424 0.00000 -0.79681
vn -0.60424 0.00000 -0.79681
vn -0.60424 0.00000 -0.79681
vn -0.60424 0.00000 -0.79681
vn -0.60424 0.00000 -0.79681
vn -0.60424 0.00000 -0.79681
vn -0.60424 0.00000 -0.79681
vn 0.60424 0.00000 0.79681
vn 0.60424 0.00000 0.79681
vn 0.60424 0.00000 0.79681
vn 0.60424 0.00000 0.79681
vn -0.54845 0.00000 -0.83618
vn -0.54845 0.00000 -0.83618
vn -0.54845 0.00000 -0.83618
vn -0.54845 0.00000 -0.83618
vn -0.54845 0.00000 -0.83618
vn -0.54845 0.00000 -0.83618
vn -0.54845 0.00000 -0.83618
vn -0.54845 0.00000 -0.83618
vn -0.54845 0.00000 -0.83618
vn -0.54845 0.00000 -0.83618
vn -0.54845 0.00000 -0.83618
vn -0.54845 0.00000 -0.83618
vn 0.54845 0.00000 0.83618
vn 0.54845 0.00000 0.83618
vn 0.54845 0.00000 0.83618
vn 0.54845 0.00000 0.83618
vn 0.49011 0.00000 0.87166
vn 0.49011 0.00000 0.87166
vn 0.49011 0.00000 0.87166
vn 0.49011 0.00000 0.87166
usemtl ceiling
f 13/13/13 14/14/14 15/15/15 16/16/16
f 26/26/26 27/27/27 28/28/28
f 62/62/62 63/63/63 64/64/64
f 86/86/86 87/87/87 88/88/88 89/89/89
f 90/90/90 91/91/91 92/92/92
f 114/114/114 115/115/115 116/116/116 117/117/117
f 118/118/118 119/119/119 120/120/120
f 133/133/133 134/134/134 135/135/135 136/136/136
f 149/149/149 150/150/150 151/151/151 152/152/152
f 165/165/165 166/166/166 167/167/167 168/168/168
f 190/190/190 191/191/191 192/192/192 193/193/193
f 194/194/194 195/195/195 196/196/196
f 206/206/206 207/207/207 208/208/208
f 314/314/314 315/315/315 316/316/316
f 329/329/329 330/330/330 331/331/331 332/332/332
f 345/345/345 346/346/346 347/347/347 348/348/348
f 361/361/361 362/362/362 363/363/363 364/364/364
f 386/386/386 387/387/387 388/388/388 389/389/389
f 390/390/390 391/391/391 392/392/392
f 414/414/414 415/415/415 416/416/416 417/417/417
f 418/418/418 419/419/419 420/420/420
f 433/433/433 434/434/434 435/435/435 436/436/436
f 449/449/449 450/450/450 451/451/451 452/452/452
f 465/465/465 466/466/466 467/467/467 468/468/468
f 481/481/481 482/482/482 483/483/483 484/484/484
f 494/494/494 495/495/495 496/496/496
f 506/506/506 507/507/507 508/508/508
f 530/530/530 531/531/531 532/532/532 533/533/533
f 534/534/534 535/535/535 536/536/536
f 549/549/549 550/550/550 551/551/551 552/552/552
f 562/562/562 563/563/563 564/564/564
f 638/638/638 639/639/639 640/640/640
f 653/653/653 654/654/654 655/655/655 656/656/656
f 678/678/678 679/679/679 680/680/680 681/681/681
f 682/682/682 683/683/683 684/684/684
f 697/697/697 698/698/698 699/699/699 700/700/700
f 713/713/713 714/714/714 715/715/715 716/716/716
f 738/738/738 739/739/739 740/740/740 741/741/741
f 742/742/742 743/743/743 744/744/744
f 766/766/766 767/767/767 768/768/768 769/769/769
f 770/770/770 771/771/771 772/772/772
f 785/785/785 786/786/786 787/787/787 788/788/788
f 798/798/798 799/799/799 800/800/800
usemtl floor
f 1/1/1 2/2/2 3/3/3 4/4/4
f 17/17/17 18/18/18 19/19/19
f 53/53/53 54/54/54 55/55/55
f 65/65/65 66/66/66 67/67/67 68/68/68
f 69/69/69 70/70/70 71/71/71
f 93/93/93 94/94/94 95/95/95 96/96/96
f 97/97/97 98/98/98 99/99/99
f 121/121/121 122/122/122 123/123/123 124/124/124
f 137/137/137 138/138/138 139/139/139 140/140/140
f 153/153/153 154/154/154 155/155/155 156/156/156
f 169/169/169 170/170/170 171/171/171 172/172/172
f 173/173/173 174/174/174 175/175/175
f 197/197/197 198/198/198 199/199/199
f 305/305/305 306/306/306 307/307/307
f 317/317/317 318/318/318 319/319/319 320/320/320
f 333/333/333 334/334/334 335/335/335 336/336/336
f 349/349/349 350/350/350 351/351/351 352/352/352
f 365/365/365 366/366/366 367/367/367 368/368/368
f 369/369/369 370/370/370 371/371/371
f 393/393/393 394/394/394 395/395/395 396/396/396
f 397/397/397 398/398/398 399/399/399
f 421/421/421 422/422/422 423/423/423 424/424/424
f 437/437/437 438/438/438 439/439/439 440/440/440
f 453/453/453 454/454/454 455/455/455 456/456/456
f 469/469/469 470/470/470 471/471/471 472/472/472
f 485/485/485 486/486/486 487/487/487
f 497/497/497 498/498/498 499/499/499
f 509/509/509 510/510/510 511/511/511 512/512/512
f 513/513/513 514/514/514 515/515/515
f 537/537/537 538/538/538 539/539/539 540/540/540
f 553/553/553 554/554/554 555/555/555
f 629/629/629 630/630/630 631/631/631
f 641/641/641 642/642/642 643/643/643 644/644/644
f 657/657/657 658/658/658 659/659/659 660/660/660
f 661/661/661 662/662/662 663/663/663
f 685/685/685 686/686/686 687/687/687 688/688/688
f 701/701/701 702/702/702 703/703/703 704/704/704
f 717/717/717 718/718/718 719/719/719 720/720/720
f 721/721/721 722/722/722 723/723/723
f 745/745/745 746/746/746 747/747/747 748/748/748
f 749/749/749 750/750/750 751/751/751
f 773/773/773 774/774/774 775/775/775 776/776/776
f 789/789/789 790/790/790 791/791/791
usemtl frame
f 33/33/33 34/34/34 35/35/35 36/36/36
f 37/37/37 38/38/38 39/39/39 40/40/40
f 45/45/45 46/46/46 47/47/47 48/48/48
f 49/49/49 50/50/50 51/51/51 52/52/52
f 213/213/213 214/214/214 215/215/215 216/216/216
f 217/217/217 218/218/218 219/219/219 220/220/220
f 229/229/229 230/230/230 231/231/231 232/232/232
f 233/233/233 234/234/234 235/235/235 236/236/236
f 245/245/245 246/246/246 247/247/247 248/248/248
f 249/249/249 250/250/250 251/251/251 252/252/252
f 261/261/261 262/262/262 263/263/263 264/264/264
f 265/265/265 266/266/266 267/267/267 268/268/268
f 277/277/277 278/278/278 279/279/279 280/280/280
f 281/281/281 282/282/282 283/283/283 284/284/284
f 293/293/293 294/294/294 295/295/295 296/296/296
f 297/297/297 298/298/298 299/299/299 300/300/300
f 569/569/569 570/570/570 571/571/571 572/572/572
f 573/573/573 574/574/574 575/575/575 576/576/576
f 585/585/585 586/586/586 587/587/587 588/588/588
f 589/589/589 590/590/590 591/591/591 592/592/592
f 601/601/601 602/602/602 603/603/603 604/604/604
f 605/605/605 606/606/606 607/607/607 608/608/608
f 617/617/617 618/618/618 619/619/619 620/620/620
f 621/621/621 622/622/622 623/623/623 624/624/624
f 805/805/805 806/806/806 807/807/807 808/808/808
f 809/809/809 810/810/810 811/811/811 812/812/812
f 821/821/821 822/822/822 823/823/823 824/824/824
f 825/825/825 826/826/826 827/827/827 828/828/828
f 837/837/837 838/838/838 839/839/839 840/840/840
f 841/841/841 842/842/842 843/843/843 844/844/844
f 853/853/853 854/854/854 855/855/855 856/856/856
f 857/857/857 858/858/858 859/859/859 860/860/860
f 869/869/869 870/870/870 871/871/871 872/872/872
f 873/873/873 874/874/874 875/875/875 876/876/876
usemtl inner
f 221/221/221 222/222/222 223/223/223 224/224/224
f 237/237/237 238/238/238 239/239/239 240/240/240
f 253/253/253 254/254/254 255/255/255 256/256/256
f 269/269/269 270/270/270 271/271/271 272/272/272
f 285/285/285 286/286/286 287/287/287 288/288/288
f 301/301/301 302/302/302 303/303/303 304/304/304
f 577/577/577 578/578/578 579/579/579 580/580/580
f 593/593/593 594/594/594 595/595/595 596/596/596
f 609/609/609 610/610/610 611/611/611 612/612/612
f 625/625/625 626/626/626 627/627/627 628/628/628
f 813/813/813 814/814/814 815/815/815 816/816/816
f 829/829/829 830/830/830 831/831/831 832/832/832
f 845/845/845 846/846/846 847/847/847 848/848/848
f 861/861/861 862/862/862 863/863/863 864/864/864
f 877/877/877 878/878/878 879/879/879 880/880/880
f 881/881/881 882/882/882 883/883/883 884/884/884
usemtl roof
f 9/9/9 10/10/10 11/11/11 12/12/12
f 23/23/23 24/24/24 25/25/25
f 59/59/59 60/60/60 61/61/61
f 79/79/79 80/80/80 81/81/81 82/82/82
f 83/83/83 84/84/84 85/85/85
f 107/107/107 108/108/108 109/109/109 110/110/110
f 111/111/111 112/112/112 113/113/113
f 129/129/129 130/130/130 131/131/131 132/132/132
f 145/145/145 146/146/146 147/147/147 148/148/148
f 161/161/161 162/162/162 163/163/163 164/164/164
f 183/183/183 184/184/184 185/185/185 186/186/186
f 187/187/187 188/188/188 189/189/189
f 203/203/203 204/204/204 205/205/205
f 311/311/311 312/312/312 313/313/313
f 325/325/325 326/326/326 327/327/327 328/328/328
f 341/341/341 342/342/342 343/343/343 344/344/344
f 357/357/357 358/358/358 359/359/359 360/360/360
f 379/379/379 380/380/380 381/381/381 382/382/382
f 383/383/383 384/384/384 385/385/385
f 407/407/407 408/408/408 409/409/409 410/410/410
f 411/411/411 412/412/412 413/413/413
f 429/429/429 430/430/430 431/431/431 432/432/432
f 445/445/445 446/446/446 447/447/447 448/448/448
f 461/461/461 462/462/462 463/463/463 464/464/464
f 477/477/477 478/478/478 479/479/479 480/480/480
f 491/491/491 492/492/492 493/493/493
f 503/503/503 504/504/504 505/505/505
f 523/523/523 524/524/524 525/525/525 526/526/526
f 527/527/527 528/528/528 529/529/529
f 545/545/545 546/546/546 547/547/547 548/548/548
f 559/559/559 560/560/560 561/561/561
f 635/635/635 636/636/636 637/637/637
f 649/649/649 650/650/650 651/651/651 652/652/652
f 671/671/671 672/672/672 673/673/673 674/674/674
f 675/675/675 676/676/676 677/677/677
f 693/693/693 694/694/694 695/695/695 696/696/696
f 709/709/709 710/710/710 711/711/711 712/712/712
f 731/731/731 732/732/732 733/733/733 734/734/734
f 735/735/735 736/736/736 737/737/737
f 759/759/759 760/760/760 761/761/761 762/762/762
f 763/763/763 764/764/764 765/765/765
f 781/781/781 782/782/782 783/783/783 784/784/784
f 795/795/795 796/796/796 797/797/797
usemtl skin
f 29/29/29 30/30/30 31/31/31 32/32/32
f 41/41/41 42/42/42 43/43/43 44/44/44
f 209/209/209 210/210/210 211/211/211 212/212/212
f 225/225/225 226/226/226 227/227/227 228/228/228
f 241/241/241 242/242/242 243/243/243 244/244/244
f 257/257/257 258/258/258 259/259/259 260/260/260
f 273/273/273 274/274/274 275/275/275 276/276/276
f 289/289/289 290/290/290 291/291/291 292/292/292
f 565/565/565 566/566/566 567/567/567 568/568/568
f 581/581/581 582/582/582 583/583/583 584/584/584
f 597/597/597 598/598/598 599/599/599 600/600/600
f 613/613/613 614/614/614 615/615/615 616/616/616
f 801/801/801 802/802/802 803/803/803 804/804/804
f 817/817/817 818/818/818 819/819/819 820/820/820
f 833/833/833 834/834/834 835/835/835 836/836/836
f 849/849/849 850/850/850 851/851/851 852/852/852
f 865/865/865 866/866/866 867/867/867 868/868/868
usemtl under
f 5/5/5 6/6/6 7/7/7 8/8/8
f 20/20/20 21/21/21 22/22/22
f 56/56/56 57/57/57 58/58/58
f 72/72/72 73/73/73 74/74/74 75/75/75
f 76/76/76 77/77/77 78/78/78
f 100/100/100 101/101/101 102/102/102 103/103/103
f 104/104/104 105/105/105 106/106/106
f 125/125/125 126/126/126 127/127/127 128/128/128
f 141/141/141 142/142/142 143/143/143 144/144/144
f 157/157/157 158/158/158 159/159/159 160/160/160
f 176/176/176 177/177/177 178/178/178 179/179/179
f 180/180/180 181/181/181 182/182/182
f 200/200/200 201/201/201 202/202/202
f 308/308/308 309/309/309 310/310/310
f 321/321/321 322/322/322 323/323/323 324/324/324
f 337/337/337 338/338/338 339/339/339 340/340/340
f 353/353/353 354/354/354 355/355/355 356/356/356
f 372/372/372 373/373/373 374/374/374 375/375/375
f 376/376/376 377/377/377 378/378/378
f 400/400/400 401/401/401 402/402/402 403/403/403
f 404/404/404 405/405/405 406/406/406
f 425/425/425 426/426/426 427/427/427 428/428/428
f 441/441/441 442/442/442 443/443/443 444/444/444
f 457/457/457 458/458/458 459/459/459 460/460/460
f 473/473/473 474/474/474 475/475/475 476/476/476
f 488/488/488 489/489/489 490/490/490
f 500/500/500 501/501/501 502/502/502
f 516/516/516 517/517/517 518/518/518 519/519/519
f 520/520/520 521/521/521 522/522/522
f 541/541/541 542/542/542 543/543/543 544/544/544
f 556/556/556 557/557/557 558/558/558
f 632/632/632 633/633/633 634/634/634
f 645/645/645 646/646/646 647/647/647 648/648/648
f 664/664/664 665/665/665 666/666/666 667/667/667
f 668/668/668 669/669/669 670/670/670
f 689/689/689 690/690/690 691/691/691 692/692/692
f 705/705/705 706/706/706 707/707/707 708/708/708
f 724/724/724 725/725/725 726/726/726 727/727/727
f 728/728/728 729/729/729 730/730/730
f 752/752/752 753/753/753 754/754/754 755/755/755
f 756/756/756 757/757/757 758/758/758
f 777/777/777 778/778/778 779/779/779 780/780/780
f 792/792/792 793/793/793 794/794/794
