# Generated by dev-env-utils/scripts/gen_transit_airside.py -- do not edit
mtllib jet_bridge_large.mtl
o airport_jet_bridge_large_turn_c0
v -1.00000 0.09375 0.76182
v -1.14934 0.09375 0.75471
v -1.15517 0.09375 1.00000
v -1.00000 0.09375 1.00000
v -1.00000 0.00000 1.00000
v -1.15517 0.00000 1.00000
v -1.14934 0.00000 0.75471
v -1.00000 0.00000 0.76182
v -1.00000 4.24547 0.76182
v -1.14934 4.24547 0.75471
v -1.15517 4.24547 1.00000
v -1.00000 4.24547 1.00000
v -1.00000 4.09375 1.00000
v -1.15517 4.09375 1.00000
v -1.14934 4.09375 0.75471
v -1.00000 4.09375 0.76182
v -1.00000 0.09375 0.52256
v -1.13183 0.09375 0.50997
v -1.14934 0.09375 0.75471
v -1.00000 0.09375 0.76182
v -1.00000 0.00000 0.76182
v -1.14934 0.00000 0.75471
v -1.13183 0.00000 0.50997
v -1.00000 0.00000 0.52256
v -1.00000 4.24547 0.52256
v -1.13183 4.24547 0.50997
v -1.14934 4.24547 0.75471
v -1.00000 4.24547 0.76182
v -1.00000 4.09375 0.76182
v -1.14934 4.09375 0.75471
v -1.13183 4.09375 0.50997
v -1.00000 4.09375 0.52256
v -1.00000 0.09375 0.28111
v -1.10270 0.09375 0.26634
v -1.13183 0.09375 0.50997
v -1.00000 0.09375 0.52256
v -1.00000 0.00000 0.52256
v -1.13183 0.00000 0.50997
v -1.10270 0.00000 0.26634
v -1.00000 0.00000 0.28111
v -1.00000 4.24547 0.28111
v -1.10270 4.24547 0.26634
v -1.13183 4.24547 0.50997
v -1.00000 4.24547 0.52256
v -1.00000 4.09375 0.52256
v -1.13183 4.09375 0.50997
v -1.10270 4.09375 0.26634
v -1.00000 4.09375 0.28111
v -1.00000 0.09375 0.03633
v -1.06201 0.09375 0.02438
v -1.10270 0.09375 0.26634
v -1.00000 0.09375 0.28111
v -1.00000 0.00000 0.28111
v -1.10270 0.00000 0.26634
v -1.06201 0.00000 0.02438
v -1.00000 0.00000 0.03633
v -1.00000 4.24547 0.03633
v -1.06201 4.24547 0.02438
v -1.10270 4.24547 0.26634
v -1.00000 4.24547 0.28111
v -1.00000 4.09375 0.28111
v -1.10270 4.09375 0.26634
v -1.06201 4.09375 0.02438
v -1.00000 4.09375 0.03633
v -1.02734 0.09375 0.00000
v -1.05724 0.09375 0.00000
v -1.06201 0.09375 0.02438
v -1.00000 0.09375 0.03633
v -1.00000 0.09375 0.00544
v -1.02734 0.09375 0.00000
v -1.00000 0.09375 0.03633
v -1.00000 0.00000 0.03633
v -1.06201 0.00000 0.02438
v -1.05724 0.00000 0.00000
v -1.02734 0.00000 0.00000
v -1.00000 0.00000 0.03633
v -1.02734 0.00000 0.00000
v -1.00000 0.00000 0.00544
v -1.02734 4.24547 0.00000
v -1.05724 4.24547 0.00000
v -1.06201 4.24547 0.02438
v -1.00000 4.24547 0.03633
v -1.00000 4.24547 0.00544
v -1.02734 4.24547 0.00000
v -1.00000 4.24547 0.03633
v -1.00000 4.09375 0.03633
v -1.06201 4.09375 0.02438
v -1.05724 4.09375 0.00000
v -1.02734 4.09375 0.00000
v -1.00000 4.09375 0.03633
v -1.02734 4.09375 0.00000
v -1.00000 4.09375 0.00544
v -1.00000 0.09375 0.00000
v -1.02734 0.09375 0.00000
v -1.00000 0.09375 0.00544
v -1.00000 0.00000 0.00544
v -1.02734 0.00000 0.00000
v -1.00000 0.00000 0.00000
v -1.00000 4.24547 0.00000
v -1.02734 4.24547 0.00000
v -1.00000 4.24547 0.00544
v -1.00000 4.09375 0.00544
v -1.02734 4.09375 0.00000
v -1.00000 4.09375 0.00000
v -1.14934 4.09375 0.75471
v -1.14934 0.09375 0.75471
v -1.15517 0.09375 1.00000
v -1.15517 4.09375 1.00000
v -1.14934 0.09375 0.75471
v -1.14934 0.00000 0.75471
v -1.15517 0.00000 1.00000
v -1.15517 0.09375 1.00000
v -1.14934 4.24547 0.75471
v -1.14934 4.09375 0.75471
v -1.15517 4.09375 1.00000
v -1.15517 4.24547 1.00000
v -1.13183 4.09375 0.50997
v -1.13183 0.09375 0.50997
v -1.14934 0.09375 0.75471
v -1.14934 4.09375 0.75471
v -1.13183 0.09375 0.50997
v -1.13183 0.00000 0.50997
v -1.14934 0.00000 0.75471
v -1.14934 0.09375 0.75471
v -1.13183 4.24547 0.50997
v -1.13183 4.09375 0.50997
v -1.14934 4.09375 0.75471
v -1.14934 4.24547 0.75471
v -1.10270 4.09375 0.26634
v -1.10270 0.09375 0.26634
v -1.13183 0.09375 0.50997
v -1.13183 4.09375 0.50997
v -1.10270 0.09375 0.26634
v -1.10270 0.00000 0.26634
v -1.13183 0.00000 0.50997
v -1.13183 0.09375 0.50997
v -1.10270 4.24547 0.26634
v -1.10270 4.09375 0.26634
v -1.13183 4.09375 0.50997
v -1.13183 4.24547 0.50997
v -1.06201 4.09375 0.02438
v -1.06201 0.09375 0.02438
v -1.10270 0.09375 0.26634
v -1.10270 4.09375 0.26634
v -1.06201 0.09375 0.02438
v -1.06201 0.00000 0.02438
v -1.10270 0.00000 0.26634
v -1.10270 0.09375 0.26634
v -1.06201 4.24547 0.02438
v -1.06201 4.09375 0.02438
v -1.10270 4.09375 0.26634
v -1.10270 4.24547 0.26634
v -1.05724 4.09375 0.00000
v -1.05724 0.09375 0.00000
v -1.06201 0.09375 0.02438
v -1.06201 4.09375 0.02438
v -1.05724 0.09375 0.00000
v -1.05724 0.00000 0.00000
v -1.06201 0.00000 0.02438
v -1.06201 0.09375 0.02438
v -1.05724 4.24547 0.00000
v -1.05724 4.09375 0.00000
v -1.06201 4.09375 0.02438
v -1.06201 4.24547 0.02438
v 0.00000 0.09375 0.80946
v -1.00000 0.09375 0.76182
v -1.00000 0.09375 1.00000
v 0.00000 0.09375 1.00000
v 0.00000 0.00000 1.00000
v -1.00000 0.00000 1.00000
v -1.00000 0.00000 0.76182
v 0.00000 0.00000 0.80946
v 0.00000 4.24547 0.80946
v -1.00000 4.24547 0.76182
v -1.00000 4.24547 1.00000
v 0.00000 4.24547 1.00000
v 0.00000 4.09375 1.00000
v -1.00000 4.09375 1.00000
v -1.00000 4.09375 0.76182
v 0.00000 4.09375 0.80946
v 0.00000 0.09375 0.61805
v -1.00000 0.09375 0.52256
v -1.00000 0.09375 0.76182
v 0.00000 0.09375 0.80946
v 0.00000 0.00000 0.80946
v -1.00000 0.00000 0.76182
v -1.00000 0.00000 0.52256
v 0.00000 0.00000 0.61805
v 0.00000 4.24547 0.61805
v -1.00000 4.24547 0.52256
v -1.00000 4.24547 0.76182
v 0.00000 4.24547 0.80946
v 0.00000 4.09375 0.80946
v -1.00000 4.09375 0.76182
v -1.00000 4.09375 0.52256
v 0.00000 4.09375 0.61805
v 0.00000 0.09375 0.42489
v -1.00000 0.09375 0.28111
v -1.00000 0.09375 0.52256
v 0.00000 0.09375 0.61805
v 0.00000 0.00000 0.61805
v -1.00000 0.00000 0.52256
v -1.00000 0.00000 0.28111
v 0.00000 0.00000 0.42489
v 0.00000 4.24547 0.42489
v -1.00000 4.24547 0.28111
v -1.00000 4.24547 0.52256
v 0.00000 4.24547 0.61805
v 0.00000 4.09375 0.61805
v -1.00000 4.09375 0.52256
v -1.00000 4.09375 0.28111
v 0.00000 4.09375 0.42489
v 0.00000 0.09375 0.22906
v -1.00000 0.09375 0.03633
v -1.00000 0.09375 0.28111
v 0.00000 0.09375 0.42489
v 0.00000 0.00000 0.42489
v -1.00000 0.00000 0.28111
v -1.00000 0.00000 0.03633
v 0.00000 0.00000 0.22906
v 0.00000 4.24547 0.22906
v -1.00000 4.24547 0.03633
v -1.00000 4.24547 0.28111
v 0.00000 4.24547 0.42489
v 0.00000 4.09375 0.42489
v -1.00000 4.09375 0.28111
v -1.00000 4.09375 0.03633
v 0.00000 4.09375 0.22906
v 0.00000 0.09375 0.20435
v -1.00000 0.09375 0.00544
v -1.00000 0.09375 0.03633
v 0.00000 0.09375 0.22906
v 0.00000 0.00000 0.22906
v -1.00000 0.00000 0.03633
v -1.00000 0.00000 0.00544
v 0.00000 0.00000 0.20435
v 0.00000 4.24547 0.20435
v -1.00000 4.24547 0.00544
v -1.00000 4.24547 0.03633
v 0.00000 4.24547 0.22906
v 0.00000 4.09375 0.22906
v -1.00000 4.09375 0.03633
v -1.00000 4.09375 0.00544
v 0.00000 4.09375 0.20435
v -0.12206 0.09375 0.00000
v -1.00000 0.09375 0.00000
v -1.00000 0.09375 0.00544
v 0.00000 0.09375 0.20435
v 0.00000 0.09375 0.02961
v -0.12206 0.09375 0.00000
v 0.00000 0.09375 0.20435
v 0.00000 0.00000 0.20435
v -1.00000 0.00000 0.00544
v -1.00000 0.00000 0.00000
v -0.12206 0.00000 0.00000
v 0.00000 0.00000 0.20435
v -0.12206 0.00000 0.00000
v 0.00000 0.00000 0.02961
v -0.12206 4.24547 0.00000
v -1.00000 4.24547 0.00000
v -1.00000 4.24547 0.00544
v 0.00000 4.24547 0.20435
v 0.00000 4.24547 0.02961
v -0.12206 4.24547 0.00000
v 0.00000 4.24547 0.20435
v 0.00000 4.09375 0.20435
v -1.00000 4.09375 0.00544
v -1.00000 4.09375 0.00000
v -0.12206 4.09375 0.00000
v 0.00000 4.09375 0.20435
v -0.12206 4.09375 0.00000
v 0.00000 4.09375 0.02961
v 0.00000 0.09375 0.00000
v -0.12206 0.09375 0.00000
v 0.00000 0.09375 0.02961
v 0.00000 0.00000 0.02961
v -0.12206 0.00000 0.00000
v 0.00000 0.00000 0.00000
v 0.00000 4.24547 0.00000
v -0.12206 4.24547 0.00000
v 0.00000 4.24547 0.02961
v 0.00000 4.09375 0.02961
v -0.12206 4.09375 0.00000
v 0.00000 4.09375 0.00000
v -1.00000 4.09375 1.00000
v -1.00000 0.09375 1.00000
v -0.99434 0.09375 0.76209
v -0.99434 4.09375 0.76209
v -0.99434 4.09375 0.76209
v -0.99434 0.09375 0.76209
v -0.97736 0.09375 0.52472
v -0.97736 4.09375 0.52472
v -0.97736 4.09375 0.52472
v -0.97736 0.09375 0.52472
v -0.94911 0.09375 0.28843
v -0.94911 4.09375 0.28843
v -0.94911 4.09375 0.28843
v -0.94911 0.09375 0.28843
v -0.90964 0.09375 0.05374
v -0.90964 4.09375 0.05374
v -0.90964 4.09375 0.05374
v -0.90964 0.09375 0.05374
v -0.90393 0.09375 0.02455
v -0.90393 4.09375 0.02455
v -0.90393 4.09375 0.02455
v -0.90393 0.09375 0.02455
v -0.89851 0.09375 0.00000
v -0.89851 4.09375 0.00000
v 1.00000 0.09375 0.85709
v 0.00000 0.09375 0.80946
v 0.00000 0.09375 1.00000
v 1.00000 0.09375 1.00000
v 1.00000 0.00000 1.00000
v 0.00000 0.00000 1.00000
v 0.00000 0.00000 0.80946
v 1.00000 0.00000 0.85709
v 1.00000 4.24547 0.85709
v 0.00000 4.24547 0.80946
v 0.00000 4.24547 1.00000
v 1.00000 4.24547 1.00000
v 1.00000 4.09375 1.00000
v 0.00000 4.09375 1.00000
v 0.00000 4.09375 0.80946
v 1.00000 4.09375 0.85709
v 1.00000 0.09375 0.71353
v 0.00000 0.09375 0.61805
v 0.00000 0.09375 0.80946
v 1.00000 0.09375 0.85709
v 1.00000 0.00000 0.85709
v 0.00000 0.00000 0.80946
v 0.00000 0.00000 0.61805
v 1.00000 0.00000 0.71353
v 1.00000 4.24547 0.71353
v 0.00000 4.24547 0.61805
v 0.00000 4.24547 0.80946
v 1.00000 4.24547 0.85709
v 1.00000 4.09375 0.85709
v 0.00000 4.09375 0.80946
v 0.00000 4.09375 0.61805
v 1.00000 4.09375 0.71353
v 1.00000 0.09375 0.56867
v 0.00000 0.09375 0.42489
v 0.00000 0.09375 0.61805
v 1.00000 0.09375 0.71353
v 1.00000 0.00000 0.71353
v 0.00000 0.00000 0.61805
v 0.00000 0.00000 0.42489
v 1.00000 0.00000 0.56867
v 1.00000 4.24547 0.56867
v 0.00000 4.24547 0.42489
v 0.00000 4.24547 0.61805
v 1.00000 4.24547 0.71353
v 1.00000 4.09375 0.71353
v 0.00000 4.09375 0.61805
v 0.00000 4.09375 0.42489
v 1.00000 4.09375 0.56867
v 1.00000 0.09375 0.42180
v 0.00000 0.09375 0.22906
v 0.00000 0.09375 0.42489
v 1.00000 0.09375 0.56867
v 1.00000 0.00000 0.56867
v 0.00000 0.00000 0.42489
v 0.00000 0.00000 0.22906
v 1.00000 0.00000 0.42180
v 1.00000 4.24547 0.42180
v 0.00000 4.24547 0.22906
v 0.00000 4.24547 0.42489
v 1.00000 4.24547 0.56867
v 1.00000 4.09375 0.56867
v 0.00000 4.09375 0.42489
v 0.00000 4.09375 0.22906
v 1.00000 4.09375 0.42180
v 1.00000 0.09375 0.40326
v 0.00000 0.09375 0.20435
v 0.00000 0.09375 0.22906
v 1.00000 0.09375 0.42180
v 1.00000 0.00000 0.42180
v 0.00000 0.00000 0.22906
v 0.00000 0.00000 0.20435
v 1.00000 0.00000 0.40326
v 1.00000 4.24547 0.40326
v 0.00000 4.24547 0.20435
v 0.00000 4.24547 0.22906
v 1.00000 4.24547 0.42180
v 1.00000 4.09375 0.42180
v 0.00000 4.09375 0.22906
v 0.00000 4.09375 0.20435
v 1.00000 4.09375 0.40326
v 1.00000 0.09375 0.27221
v 0.00000 0.09375 0.02961
v 0.00000 0.09375 0.20435
v 1.00000 0.09375 0.40326
v 1.00000 0.00000 0.40326
v 0.00000 0.00000 0.20435
v 0.00000 0.00000 0.02961
v 1.00000 0.00000 0.27221
v 1.00000 4.24547 0.27221
v 0.00000 4.24547 0.02961
v 0.00000 4.24547 0.20435
v 1.00000 4.24547 0.40326
v 1.00000 4.09375 0.40326
v 0.00000 4.09375 0.20435
v 0.00000 4.09375 0.02961
v 1.00000 4.09375 0.27221
v 0.59431 0.09375 0.00000
v 0.00000 0.09375 0.00000
v 0.00000 0.09375 0.02961
v 1.00000 0.09375 0.27221
v 1.00000 0.09375 0.11912
v 0.59431 0.09375 0.00000
v 1.00000 0.09375 0.27221
v 1.00000 0.00000 0.27221
v 0.00000 0.00000 0.02961
v 0.00000 0.00000 0.00000
v 0.59431 0.00000 0.00000
v 1.00000 0.00000 0.27221
v 0.59431 0.00000 0.00000
v 1.00000 0.00000 0.11912
v 0.59431 4.24547 0.00000
v 0.00000 4.24547 0.00000
v 0.00000 4.24547 0.02961
v 1.00000 4.24547 0.27221
v 1.00000 4.24547 0.11912
v 0.59431 4.24547 0.00000
v 1.00000 4.24547 0.27221
v 1.00000 4.09375 0.27221
v 0.00000 4.09375 0.02961
v 0.00000 4.09375 0.00000
v 0.59431 4.09375 0.00000
v 1.00000 4.09375 0.27221
v 0.59431 4.09375 0.00000
v 1.00000 4.09375 0.11912
v 1.00000 0.09375 0.00000
v 0.59431 0.09375 0.00000
v 1.00000 0.09375 0.11912
v 1.00000 0.00000 0.11912
v 0.59431 0.00000 0.00000
v 1.00000 0.00000 0.00000
v 1.00000 4.24547 0.00000
v 0.59431 4.24547 0.00000
v 1.00000 4.24547 0.11912
v 1.00000 4.09375 0.11912
v 0.59431 4.09375 0.00000
v 1.00000 4.09375 0.00000
vt 0.75000 0.19046
vt 0.71267 0.18868
vt 0.71121 0.25000
vt 0.75000 0.25000
vt 0.75000 0.25000
vt 0.71121 0.25000
vt 0.71267 0.18868
vt 0.75000 0.19046
vt 0.75000 0.19046
vt 0.71267 0.18868
vt 0.71121 0.25000
vt 0.75000 0.25000
vt 0.47656 0.00000
vt 0.50000 0.00000
vt 0.50000 0.04165
vt 0.47742 0.04165
vt 0.75000 0.13064
vt 0.71704 0.12749
vt 0.71267 0.18868
vt 0.75000 0.19046
vt 0.75000 0.19046
vt 0.71267 0.18868
vt 0.71704 0.12749
vt 0.75000 0.13064
vt 0.75000 0.13064
vt 0.71704 0.12749
vt 0.71267 0.18868
vt 0.75000 0.19046
vt 0.47742 0.04165
vt 0.50000 0.04165
vt 0.50000 0.08330
vt 0.48000 0.08330
vt 0.75000 0.07028
vt 0.72432 0.06659
vt 0.71704 0.12749
vt 0.75000 0.13064
vt 0.75000 0.13064
vt 0.71704 0.12749
vt 0.72432 0.06659
vt 0.75000 0.07028
vt 0.75000 0.07028
vt 0.72432 0.06659
vt 0.71704 0.12749
vt 0.75000 0.13064
vt 0.48000 0.08330
vt 0.50000 0.08330
vt 0.50000 0.12495
vt 0.48433 0.12495
vt 0.75000 0.00908
vt 0.73450 0.00609
vt 0.72432 0.06659
vt 0.75000 0.07028
vt 0.75000 0.07028
vt 0.72432 0.06659
vt 0.73450 0.00609
vt 0.75000 0.00908
vt 0.75000 0.00908
vt 0.73450 0.00609
vt 0.72432 0.06659
vt 0.75000 0.07028
vt 0.48433 0.12495
vt 0.50000 0.12495
vt 0.50000 0.16660
vt 0.49046 0.16660
vt 0.74317 0.00000
vt 0.73569 0.00000
vt 0.73450 0.00609
vt 0.75000 0.00908
vt 0.75000 0.00136
vt 0.74317 0.00000
vt 0.75000 0.00908
vt 0.75000 0.00908
vt 0.73450 0.00609
vt 0.73569 0.00000
vt 0.74317 0.00000
vt 0.75000 0.00908
vt 0.74317 0.00000
vt 0.75000 0.00136
vt 0.74317 0.00000
vt 0.73569 0.00000
vt 0.73450 0.00609
vt 0.75000 0.00908
vt 0.75000 0.00136
vt 0.74317 0.00000
vt 0.75000 0.00908
vt 0.49046 0.16660
vt 0.50000 0.16660
vt 0.50000 0.17082
vt 0.49557 0.17181
vt 0.49046 0.16660
vt 0.49557 0.17181
vt 0.49136 0.17181
vt 0.75000 0.00000
vt 0.74317 0.00000
vt 0.75000 0.00136
vt 0.75000 0.00136
vt 0.74317 0.00000
vt 0.75000 0.00000
vt 0.75000 0.00000
vt 0.74317 0.00000
vt 0.75000 0.00136
vt 0.49136 0.17181
vt 0.49557 0.17181
vt 0.49152 0.17272
vt 0.12121 0.00000
vt 0.12121 0.90625
vt 0.00000 0.90625
vt 0.00000 0.00000
vt 0.24242 0.00000
vt 0.24242 0.09375
vt 0.00000 0.09375
vt 0.00000 0.00000
vt 0.24242 0.00000
vt 0.24242 0.09375
vt 0.00000 0.09375
vt 0.00000 0.00000
vt 0.24242 0.00000
vt 0.24242 0.90625
vt 0.12121 0.90625
vt 0.12121 0.00000
vt 0.48485 0.00000
vt 0.48485 0.09375
vt 0.24242 0.09375
vt 0.24242 0.00000
vt 0.48485 0.00000
vt 0.48485 0.09375
vt 0.24242 0.09375
vt 0.24242 0.00000
vt 0.36364 0.00000
vt 0.36364 0.90625
vt 0.24242 0.90625
vt 0.24242 0.00000
vt 0.72727 0.00000
vt 0.72727 0.09375
vt 0.48485 0.09375
vt 0.48485 0.00000
vt 0.72727 0.00000
vt 0.72727 0.09375
vt 0.48485 0.09375
vt 0.48485 0.00000
vt 0.48485 0.00000
vt 0.48485 0.90625
vt 0.36364 0.90625
vt 0.36364 0.00000
vt 0.96969 0.00000
vt 0.96969 0.09375
vt 0.72727 0.09375
vt 0.72727 0.00000
vt 0.96969 0.00000
vt 0.96969 0.09375
vt 0.72727 0.09375
vt 0.72727 0.00000
vt 0.49712 0.00000
vt 0.49712 0.90625
vt 0.48485 0.90625
vt 0.48485 0.00000
vt 0.99424 0.00000
vt 0.99424 0.09375
vt 0.96969 0.09375
vt 0.96969 0.00000
vt 0.99424 0.00000
vt 0.99424 0.09375
vt 0.96969 0.09375
vt 0.96969 0.00000
vt 1.00000 0.20236
vt 0.75000 0.19046
vt 0.75000 0.25000
vt 1.00000 0.25000
vt 1.00000 0.25000
vt 0.75000 0.25000
vt 0.75000 0.19046
vt 1.00000 0.20236
vt 1.00000 0.20236
vt 0.75000 0.19046
vt 0.75000 0.25000
vt 1.00000 0.25000
vt 0.32552 0.00000
vt 0.47656 0.00000
vt 0.47742 0.04165
vt 0.32621 0.04165
vt 1.00000 0.15451
vt 0.75000 0.13064
vt 0.75000 0.19046
vt 1.00000 0.20236
vt 1.00000 0.20236
vt 0.75000 0.19046
vt 0.75000 0.13064
vt 1.00000 0.15451
vt 1.00000 0.15451
vt 0.75000 0.13064
vt 0.75000 0.19046
vt 1.00000 0.20236
vt 0.32621 0.04165
vt 0.47742 0.04165
vt 0.48000 0.08330
vt 0.32827 0.08330
vt 1.00000 0.10622
vt 0.75000 0.07028
vt 0.75000 0.13064
vt 1.00000 0.15451
vt 1.00000 0.15451
vt 0.75000 0.13064
vt 0.75000 0.07028
vt 1.00000 0.10622
vt 1.00000 0.10622
vt 0.75000 0.07028
vt 0.75000 0.13064
vt 1.00000 0.15451
vt 0.32827 0.08330
vt 0.48000 0.08330
vt 0.48433 0.12495
vt 0.33173 0.12495
vt 1.00000 0.05727
vt 0.75000 0.00908
vt 0.75000 0.07028
vt 1.00000 0.10622
vt 1.00000 0.10622
vt 0.75000 0.07028
vt 0.75000 0.00908
vt 1.00000 0.05727
vt 1.00000 0.05727
vt 0.75000 0.00908
vt 0.75000 0.07028
vt 1.00000 0.10622
vt 0.33173 0.12495
vt 0.48433 0.12495
vt 0.49046 0.16660
vt 0.33664 0.16660
vt 1.00000 0.05109
vt 0.75000 0.00136
vt 0.75000 0.00908
vt 1.00000 0.05727
vt 1.00000 0.05727
vt 0.75000 0.00908
vt 0.75000 0.00136
vt 1.00000 0.05109
vt 1.00000 0.05109
vt 0.75000 0.00136
vt 0.75000 0.00908
vt 1.00000 0.05727
vt 0.33664 0.16660
vt 0.49046 0.16660
vt 0.49136 0.17181
vt 0.33736 0.17181
vt 0.96949 0.00000
vt 0.75000 0.00000
vt 0.75000 0.00136
vt 1.00000 0.05109
vt 1.00000 0.00740
vt 0.96949 0.00000
vt 1.00000 0.05109
vt 1.00000 0.05109
vt 0.75000 0.00136
vt 0.75000 0.00000
vt 0.96949 0.00000
vt 1.00000 0.05109
vt 0.96949 0.00000
vt 1.00000 0.00740
vt 0.96949 0.00000
vt 0.75000 0.00000
vt 0.75000 0.00136
vt 1.00000 0.05109
vt 1.00000 0.00740
vt 0.96949 0.00000
vt 1.00000 0.05109
vt 0.33736 0.17181
vt 0.49136 0.17181
vt 0.49152 0.17272
vt 0.36202 0.20825
vt 0.33736 0.17181
vt 0.36202 0.20825
vt 0.34305 0.20825
vt 1.00000 0.00000
vt 0.96949 0.00000
vt 1.00000 0.00740
vt 1.00000 0.00740
vt 0.96949 0.00000
vt 1.00000 0.00000
vt 1.00000 0.00000
vt 0.96949 0.00000
vt 1.00000 0.00740
vt 0.34305 0.20825
vt 0.36202 0.20825
vt 0.34411 0.21436
vt 0.00000 0.00000
vt 0.00000 0.90625
vt 0.12121 0.90625
vt 0.12121 0.00000
vt 0.12121 0.00000
vt 0.12121 0.90625
vt 0.24242 0.90625
vt 0.24242 0.00000
vt 0.24242 0.00000
vt 0.24242 0.90625
vt 0.36364 0.90625
vt 0.36364 0.00000
vt 0.36364 0.00000
vt 0.36364 0.90625
vt 0.48485 0.90625
vt 0.48485 0.00000
vt 0.48485 0.00000
vt 0.48485 0.90625
vt 0.50000 0.90625
vt 0.50000 0.00000
vt 0.00000 0.00000
vt 0.00000 0.90625
vt 0.01280 0.90625
vt 0.01280 0.00000
vt 0.25000 0.21427
vt 0.00000 0.20236
vt 0.00000 0.25000
vt 0.25000 0.25000
vt 0.25000 0.25000
vt 0.00000 0.25000
vt 0.00000 0.20236
vt 0.25000 0.21427
vt 0.25000 0.21427
vt 0.00000 0.20236
vt 0.00000 0.25000
vt 0.25000 0.25000
vt 0.17448 0.00000
vt 0.32552 0.00000
vt 0.32621 0.04165
vt 0.17499 0.04165
vt 0.25000 0.17838
vt 0.00000 0.15451
vt 0.00000 0.20236
vt 0.25000 0.21427
vt 0.25000 0.21427
vt 0.00000 0.20236
vt 0.00000 0.15451
vt 0.25000 0.17838
vt 0.25000 0.17838
vt 0.00000 0.15451
vt 0.00000 0.20236
vt 0.25000 0.21427
vt 0.17499 0.04165
vt 0.32621 0.04165
vt 0.32827 0.08330
vt 0.17654 0.08330
vt 0.25000 0.14217
vt 0.00000 0.10622
vt 0.00000 0.15451
vt 0.25000 0.17838
vt 0.25000 0.17838
vt 0.00000 0.15451
vt 0.00000 0.10622
vt 0.25000 0.14217
vt 0.25000 0.14217
vt 0.00000 0.10622
vt 0.00000 0.15451
vt 0.25000 0.17838
vt 0.17654 0.08330
vt 0.32827 0.08330
vt 0.33173 0.12495
vt 0.17914 0.12495
vt 0.25000 0.10545
vt 0.00000 0.05727
vt 0.00000 0.10622
vt 0.25000 0.14217
vt 0.25000 0.14217
vt 0.00000 0.10622
vt 0.00000 0.05727
vt 0.25000 0.10545
vt 0.25000 0.10545
vt 0.00000 0.05727
vt 0.00000 0.10622
vt 0.25000 0.14217
vt 0.17914 0.12495
vt 0.33173 0.12495
vt 0.33664 0.16660
vt 0.18282 0.16660
vt 0.25000 0.10082
vt 0.00000 0.05109
vt 0.00000 0.05727
vt 0.25000 0.10545
vt 0.25000 0.10545
vt 0.00000 0.05727
vt 0.00000 0.05109
vt 0.25000 0.10082
vt 0.25000 0.10082
vt 0.00000 0.05109
vt 0.00000 0.05727
vt 0.25000 0.10545
vt 0.18282 0.16660
vt 0.33664 0.16660
vt 0.33736 0.17181
vt 0.18336 0.17181
vt 0.25000 0.06805
vt 0.00000 0.00740
vt 0.00000 0.05109
vt 0.25000 0.10082
vt 0.25000 0.10082
vt 0.00000 0.05109
vt 0.00000 0.00740
vt 0.25000 0.06805
vt 0.25000 0.06805
vt 0.00000 0.00740
vt 0.00000 0.05109
vt 0.25000 0.10082
vt 0.18336 0.17181
vt 0.33736 0.17181
vt 0.34305 0.20825
vt 0.18762 0.20825
vt 0.14858 0.00000
vt 0.00000 0.00000
vt 0.00000 0.00740
vt 0.25000 0.06805
vt 0.25000 0.02978
vt 0.14858 0.00000
vt 0.25000 0.06805
vt 0.25000 0.06805
vt 0.00000 0.00740
vt 0.00000 0.00000
vt 0.14858 0.00000
vt 0.25000 0.06805
vt 0.14858 0.00000
vt 0.25000 0.02978
vt 0.14858 0.00000
vt 0.00000 0.00000
vt 0.00000 0.00740
vt 0.25000 0.06805
vt 0.25000 0.02978
vt 0.14858 0.00000
vt 0.25000 0.06805
vt 0.18762 0.20825
vt 0.34305 0.20825
vt 0.34411 0.21436
vt 0.25747 0.24990
vt 0.18762 0.20825
vt 0.25747 0.24990
vt 0.19361 0.24990
vt 0.25000 0.00000
vt 0.14858 0.00000
vt 0.25000 0.02978
vt 0.25000 0.02978
vt 0.14858 0.00000
vt 0.25000 0.00000
vt 0.25000 0.00000
vt 0.14858 0.00000
vt 0.25000 0.02978
vt 0.19361 0.24990
vt 0.25747 0.24990
vt 0.19899 0.28153
vn 0.00000 1.00000 0.00000
vn 0.00000 1.00000 0.00000
vn 0.00000 1.00000 0.00000
vn 0.00000 1.00000 0.00000
vn 0.00000 -1.00000 0.00000
vn 0.00000 -1.00000 0.00000
vn 0.00000 -1.00000 0.00000
vn 0.00000 -1.00000 0.00000
vn 0.00000 1.00000 0.00000
vn 0.00000 1.00000 0.00000
vn 0.00000 1.00000 0.00000
vn 0.00000 1.00000 0.00000
vn 0.00000 -1.00000 0.00000
vn 0.00000 -1.00000 0.00000
vn 0.00000 -1.00000 0.00000
vn 0.00000 -1.00000 0.00000
vn 0.00000 1.00000 0.00000
vn 0.00000 1.00000 0.00000
vn 0.00000 1.00000 0.00000
vn 0.00000 1.00000 0.00000
vn 0.00000 -1.00000 0.00000
vn 0.00000 -1.00000 0.00000
vn 0.00000 -1.00000 0.00000
vn 0.00000 -1.00000 0.00000
vn 0.00000 1.00000 0.00000
vn 0.00000 1.00000 0.00000
vn 0.00000 1.00000 0.00000
vn 0.00000 1.00000 0.00000
vn 0.00000 -1.00000 0.00000
vn 0.00000 -1.00000 0.00000
vn 0.00000 -1.00000 0.00000
vn 0.00000 -1.00000 0.00000
vn 0.00000 1.00000 0.00000
vn 0.00000 1.00000 0.00000
vn 0.00000 1.00000 0.00000
vn 0.00000 1.00000 0.00000
vn 0.00000 -1.00000 0.00000
vn 0.00000 -1.00000 0.00000
vn 0.00000 -1.00000 0.00000
vn 0.00000 -1.00000 0.00000
vn 0.00000 1.00000 0.00000
vn 0.00000 1.00000 0.00000
vn 0.00000 1.00000 0.00000
vn 0.00000 1.00000 0.00000
vn 0.00000 -1.00000 0.00000
vn 0.00000 -1.00000 0.00000
vn 0.00000 -1.00000 0.00000
vn 0.00000 -1.00000 0.00000
vn 0.00000 1.00000 0.00000
vn 0.00000 1.00000 0.00000
vn 0.00000 1.00000 0.00000
vn 0.00000 1.00000 0.00000
vn 0.00000 -1.00000 0.00000
vn 0.00000 -1.00000 0.00000
vn 0.00000 -1.00000 0.00000
vn 0.00000 -1.00000 0.00000
vn 0.00000 1.00000 0.00000
vn 0.00000 1.00000 0.00000
vn 0.00000 1.00000 0.00000
vn 0.00000 1.00000 0.00000
vn 0.00000 -1.00000 0.00000
vn 0.00000 -1.00000 0.00000
vn 0.00000 -1.00000 0.00000
vn 0.00000 -1.00000 0.00000
vn 0.00000 1.00000 0.00000
vn 0.00000 1.00000 0.00000
vn 0.00000 1.00000 0.00000
vn 0.00000 1.00000 0.00000
vn 0.00000 1.00000 0.00000
vn 0.00000 1.00000 0.00000
vn 0.00000 1.00000 0.00000
vn 0.00000 -1.00000 0.00000
vn 0.00000 -1.00000 0.00000
vn 0.00000 -1.00000 0.00000
vn 0.00000 -1.00000 0.00000
vn 0.00000 -1.00000 0.00000
vn 0.00000 -1.00000 0.00000
vn 0.00000 -1.00000 0.00000
vn 0.00000 1.00000 0.00000
vn 0.00000 1.00000 0.00000
vn 0.00000 1.00000 0.00000
vn 0.00000 1.00000 0.00000
vn 0.00000 1.00000 0.00000
vn 0.00000 1.00000 0.00000
vn 0.00000 1.00000 0.00000
vn 0.00000 -1.00000 0.00000
vn 0.00000 -1.00000 0.00000
vn 0.00000 -1.00000 0.00000
vn 0.00000 -1.00000 0.00000
vn 0.00000 -1.00000 0.00000
vn 0.00000 -1.00000 0.00000
vn 0.00000 -1.00000 0.00000
vn 0.00000 1.00000 0.00000
vn 0.00000 1.00000 0.00000
vn 0.00000 1.00000 0.00000
vn 0.00000 -1.00000 0.00000
vn 0.00000 -1.00000 0.00000
vn 0.00000 -1.00000 0.00000
vn 0.00000 1.00000 0.00000
vn 0.00000 1.00000 0.00000
vn 0.00000 1.00000 0.00000
vn 0.00000 -1.00000 0.00000
vn 0.00000 -1.00000 0.00000
vn 0.00000 -1.00000 0.00000
vn -0.99972 0.00000 -0.02380
vn -0.99972 0.00000 -0.02380
vn -0.99972 0.00000 -0.02380
vn -0.99972 0.00000 -0.02380
vn -0.99972 0.00000 -0.02380
vn -0.99972 0.00000 -0.02380
vn -0.99972 0.00000 -0.02380
vn -0.99972 0.00000 -0.02380
vn -0.99972 0.00000 -0.02380
vn -0.99972 0.00000 -0.02380
vn -0.99972 0.00000 -0.02380
vn -0.99972 0.00000 -0.02380
vn -0.99745 0.00000 -0.07134
vn -0.99745 0.00000 -0.07134
vn -0.99745 0.00000 -0.07134
vn -0.99745 0.00000 -0.07134
vn -0.99745 0.00000 -0.07134
vn -0.99745 0.00000 -0.07134
vn -0.99745 0.00000 -0.07134
vn -0.99745 0.00000 -0.07134
vn -0.99745 0.00000 -0.07134
vn -0.99745 0.00000 -0.07134
vn -0.99745 0.00000 -0.07134
vn -0.99745 0.00000 -0.07134
vn -0.99293 0.00000 -0.11872
vn -0.99293 0.00000 -0.11872
vn -0.99293 0.00000 -0.11872
vn -0.99293 0.00000 -0.11872
vn -0.99293 0.00000 -0.11872
vn -0.99293 0.00000 -0.11872
vn -0.99293 0.00000 -0.11872
vn -0.99293 0.00000 -0.11872
vn -0.99293 0.00000 -0.11872
vn -0.99293 0.00000 -0.11872
vn -0.99293 0.00000 -0.11872
vn -0.99293 0.00000 -0.11872
vn -0.98615 0.00000 -0.16583
vn -0.98615 0.00000 -0.16583
vn -0.98615 0.00000 -0.16583
vn -0.98615 0.00000 -0.16583
vn -0.98615 0.00000 -0.16583
vn -0.98615 0.00000 -0.16583
vn -0.98615 0.00000 -0.16583
vn -0.98615 0.00000 -0.16583
vn -0.98615 0.00000 -0.16583
vn -0.98615 0.00000 -0.16583
vn -0.98615 0.00000 -0.16583
vn -0.98615 0.00000 -0.16583
vn -0.98136 0.00000 -0.19217
vn -0.98136 0.00000 -0.19217
vn -0.98136 0.00000 -0.19217
vn -0.98136 0.00000 -0.19217
vn -0.98136 0.00000 -0.19217
vn -0.98136 0.00000 -0.19217
vn -0.98136 0.00000 -0.19217
vn -0.98136 0.00000 -0.19217
vn -0.98136 0.00000 -0.19217
vn -0.98136 0.00000 -0.19217
vn -0.98136 0.00000 -0.19217
vn -0.98136 0.00000 -0.19217
vn 0.00000 1.00000 0.00000
vn 0.00000 1.00000 0.00000
vn 0.00000 1.00000 0.00000
vn 0.00000 1.00000 0.00000
vn 0.00000 -1.00000 0.00000
vn 0.00000 -1.00000 0.00000
vn 0.00000 -1.00000 0.00000
vn 0.00000 -1.00000 0.00000
vn 0.00000 1.00000 0.00000
vn 0.00000 1.00000 0.00000
vn 0.00000 1.00000 0.00000
vn 0.00000 1.00000 0.00000
vn 0.00000 -1.00000 0.00000
vn 0.00000 -1.00000 0.00000
vn 0.00000 -1.00000 0.00000
vn 0.00000 -1.00000 0.00000
vn 0.00000 1.00000 0.00000
vn 0.00000 1.00000 0.00000
vn 0.00000 1.00000 0.00000
vn 0.00000 1.00000 0.00000
vn 0.00000 -1.00000 0.00000
vn 0.00000 -1.00000 0.00000
vn 0.00000 -1.00000 0.00000
vn 0.00000 -1.00000 0.00000
vn 0.00000 1.00000 0.00000
vn 0.00000 1.00000 0.00000
vn 0.00000 1.00000 0.00000
vn 0.00000 1.00000 0.00000
vn 0.00000 -1.00000 0.00000
vn 0.00000 -1.00000 0.00000
vn 0.00000 -1.00000 0.00000
vn 0.00000 -1.00000 0.00000
vn 0.00000 1.00000 0.00000
vn 0.00000 1.00000 0.00000
vn 0.00000 1.00000 0.00000
vn 0.00000 1.00000 0.00000
vn 0.00000 -1.00000 0.00000
vn 0.00000 -1.00000 0.00000
vn 0.00000 -1.00000 0.00000
vn 0.00000 -1.00000 0.00000
vn 0.00000 1.00000 0.00000
vn 0.00000 1.00000 0.00000
vn 0.00000 1.00000 0.00000
vn 0.00000 1.00000 0.00000
vn 0.00000 -1.00000 0.00000
vn 0.00000 -1.00000 0.00000
vn 0.00000 -1.00000 0.00000
vn 0.00000 -1.00000 0.00000
vn 0.00000 1.00000 0.00000
vn 0.00000 1.00000 0.00000
vn 0.00000 1.00000 0.00000
vn 0.00000 1.00000 0.00000
vn 0.00000 -1.00000 0.00000
vn 0.00000 -1.00000 0.00000
vn 0.00000 -1.00000 0.00000
vn 0.00000 -1.00000 0.00000
vn 0.00000 1.00000 0.00000
vn 0.00000 1.00000 0.00000
vn 0.00000 1.00000 0.00000
vn 0.00000 1.00000 0.00000
vn 0.00000 -1.00000 0.00000
vn 0.00000 -1.00000 0.00000
vn 0.00000 -1.00000 0.00000
vn 0.00000 -1.00000 0.00000
vn 0.00000 1.00000 0.00000
vn 0.00000 1.00000 0.00000
vn 0.00000 1.00000 0.00000
vn 0.00000 1.00000 0.00000
vn 0.00000 -1.00000 0.00000
vn 0.00000 -1.00000 0.00000
vn 0.00000 -1.00000 0.00000
vn 0.00000 -1.00000 0.00000
vn 0.00000 1.00000 0.00000
vn 0.00000 1.00000 0.00000
vn 0.00000 1.00000 0.00000
vn 0.00000 1.00000 0.00000
vn 0.00000 -1.00000 0.00000
vn 0.00000 -1.00000 0.00000
vn 0.00000 -1.00000 0.00000
vn 0.00000 -1.00000 0.00000
vn 0.00000 1.00000 0.00000
vn 0.00000 1.00000 0.00000
vn 0.00000 1.00000 0.00000
vn 0.00000 1.00000 0.00000
vn 0.00000 1.00000 0.00000
vn 0.00000 1.00000 0.00000
vn 0.00000 1.00000 0.00000
vn 0.00000 -1.00000 0.00000
vn 0.00000 -1.00000 0.00000
vn 0.00000 -1.00000 0.00000
vn 0.00000 -1.00000 0.00000
vn 0.00000 -1.00000 0.00000
vn 0.00000 -1.00000 0.00000
vn 0.00000 -1.00000 0.00000
vn 0.00000 1.00000 0.00000
vn 0.00000 1.00000 0.00000
vn 0.00000 1.00000 0.00000
vn 0.00000 1.00000 0.00000
vn 0.00000 1.00000 0.00000
vn 0.00000 1.00000 0.00000
vn 0.00000 1.00000 0.00000
vn 0.00000 -1.00000 0.00000
vn 0.00000 -1.00000 0.00000
vn 0.00000 -1.00000 0.00000
vn 0.00000 -1.00000 0.00000
vn 0.00000 -1.00000 0.00000
vn 0.00000 -1.00000 0.00000
vn 0.00000 -1.00000 0.00000
vn 0.00000 1.00000 0.00000
vn 0.00000 1.00000 0.00000
vn 0.00000 1.00000 0.00000
vn 0.00000 -1.00000 0.00000
vn 0.00000 -1.00000 0.00000
vn 0.00000 -1.00000 0.00000
vn 0.00000 1.00000 0.00000
vn 0.00000 1.00000 0.00000
vn 0.00000 1.00000 0.00000
vn 0.00000 -1.00000 0.00000
vn 0.00000 -1.00000 0.00000
vn 0.00000 -1.00000 0.00000
vn 0.99972 0.00000 0.02380
vn 0.99972 0.00000 0.02380
vn 0.99972 0.00000 0.02380
vn 0.99972 0.00000 0.02380
vn 0.99745 0.00000 0.07134
vn 0.99745 0.00000 0.07134
vn 0.99745 0.00000 0.07134
vn 0.99745 0.00000 0.07134
vn 0.99293 0.00000 0.11872
vn 0.99293 0.00000 0.11872
vn 0.99293 0.00000 0.11872
vn 0.99293 0.00000 0.11872
vn 0.98615 0.00000 0.16583
vn 0.98615 0.00000 0.16583
vn 0.98615 0.00000 0.16583
vn 0.98615 0.00000 0.16583
vn 0.98136 0.00000 0.19217
vn 0.98136 0.00000 0.19217
vn 0.98136 0.00000 0.19217
vn 0.98136 0.00000 0.19217
vn 0.97651 0.00000 0.21547
vn 0.97651 0.00000 0.21547
vn 0.97651 0.00000 0.21547
vn 0.97651 0.00000 0.21547
vn 0.00000 1.00000 0.00000
vn 0.00000 1.00000 0.00000
vn 0.00000 1.00000 0.00000
vn 0.00000 1.00000 0.00000
vn 0.00000 -1.00000 0.00000
vn 0.00000 -1.00000 0.00000
vn 0.00000 -1.00000 0.00000
vn 0.00000 -1.00000 0.00000
vn 0.00000 1.00000 0.00000
vn 0.00000 1.00000 0.00000
vn 0.00000 1.00000 0.00000
vn 0.00000 1.00000 0.00000
vn 0.00000 -1.00000 0.00000
vn 0.00000 -1.00000 0.00000
vn 0.00000 -1.00000 0.00000
vn 0.00000 -1.00000 0.00000
vn 0.00000 1.00000 0.00000
vn 0.00000 1.00000 0.00000
vn 0.00000 1.00000 0.00000
vn 0.00000 1.00000 0.00000
vn 0.00000 -1.00000 0.00000
vn 0.00000 -1.00000 0.00000
vn 0.00000 -1.00000 0.00000
vn 0.00000 -1.00000 0.00000
vn 0.00000 1.00000 0.00000
vn 0.00000 1.00000 0.00000
vn 0.00000 1.00000 0.00000
vn 0.00000 1.00000 0.00000
vn 0.00000 -1.00000 0.00000
vn 0.00000 -1.00000 0.00000
vn 0.00000 -1.00000 0.00000
vn 0.00000 -1.00000 0.00000
vn 0.00000 1.00000 0.00000
vn 0.00000 1.00000 0.00000
vn 0.00000 1.00000 0.00000
vn 0.00000 1.00000 0.00000
vn 0.00000 -1.00000 0.00000
vn 0.00000 -1.00000 0.00000
vn 0.00000 -1.00000 0.00000
vn 0.00000 -1.00000 0.00000
vn 0.00000 1.00000 0.00000
vn 0.00000 1.00000 0.00000
vn 0.00000 1.00000 0.00000
vn 0.00000 1.00000 0.00000
vn 0.00000 -1.00000 0.00000
vn 0.00000 -1.00000 0.00000
vn 0.00000 -1.00000 0.00000
vn 0.00000 -1.00000 0.00000
vn 0.00000 1.00000 0.00000
vn 0.00000 1.00000 0.00000
vn 0.00000 1.00000 0.00000
vn 0.00000 1.00000 0.00000
vn 0.00000 -1.00000 0.00000
vn 0.00000 -1.00000 0.00000
vn 0.00000 -1.00000 0.00000
vn 0.00000 -1.00000 0.00000
vn 0.00000 1.00000 0.00000
vn 0.00000 1.00000 0.00000
vn 0.00000 1.00000 0.00000
vn 0.00000 1.00000 0.00000
vn 0.00000 -1.00000 0.00000
vn 0.00000 -1.00000 0.00000
vn 0.00000 -1.00000 0.00000
vn 0.00000 -1.00000 0.00000
vn 0.00000 1.00000 0.00000
vn 0.00000 1.00000 0.00000
vn 0.00000 1.00000 0.00000
vn 0.00000 1.00000 0.00000
vn 0.00000 -1.00000 0.00000
vn 0.00000 -1.00000 0.00000
vn 0.00000 -1.00000 0.00000
vn 0.00000 -1.00000 0.00000
vn 0.00000 1.00000 0.00000
vn 0.00000 1.00000 0.00000
vn 0.00000 1.00000 0.00000
vn 0.00000 1.00000 0.00000
vn 0.00000 -1.00000 0.00000
vn 0.00000 -1.00000 0.00000
vn 0.00000 -1.00000 0.00000
vn 0.00000 -1.00000 0.00000
vn 0.00000 1.00000 0.00000
vn 0.00000 1.00000 0.00000
vn 0.00000 1.00000 0.00000
vn 0.00000 1.00000 0.00000
vn 0.00000 -1.00000 0.00000
vn 0.00000 -1.00000 0.00000
vn 0.00000 -1.00000 0.00000
vn 0.00000 -1.00000 0.00000
vn 0.00000 1.00000 0.00000
vn 0.00000 1.00000 0.00000
vn 0.00000 1.00000 0.00000
vn 0.00000 1.00000 0.00000
vn 0.00000 -1.00000 0.00000
vn 0.00000 -1.00000 0.00000
vn 0.00000 -1.00000 0.00000
vn 0.00000 -1.00000 0.00000
vn 0.00000 1.00000 0.00000
vn 0.00000 1.00000 0.00000
vn 0.00000 1.00000 0.00000
vn 0.00000 1.00000 0.00000
vn 0.00000 1.00000 0.00000
vn 0.00000 1.00000 0.00000
vn 0.00000 1.00000 0.00000
vn 0.00000 -1.00000 0.00000
vn 0.00000 -1.00000 0.00000
vn 0.00000 -1.00000 0.00000
vn 0.00000 -1.00000 0.00000
vn 0.00000 -1.00000 0.00000
vn 0.00000 -1.00000 0.00000
vn 0.00000 -1.00000 0.00000
vn 0.00000 1.00000 0.00000
vn 0.00000 1.00000 0.00000
vn 0.00000 1.00000 0.00000
vn 0.00000 1.00000 0.00000
vn 0.00000 1.00000 0.00000
vn 0.00000 1.00000 0.00000
vn 0.00000 1.00000 0.00000
vn 0.00000 -1.00000 0.00000
vn 0.00000 -1.00000 0.00000
vn 0.00000 -1.00000 0.00000
vn 0.00000 -1.00000 0.00000
vn 0.00000 -1.00000 0.00000
vn 0.00000 -1.00000 0.00000
vn 0.00000 -1.00000 0.00000
vn 0.00000 1.00000 0.00000
vn 0.00000 1.00000 0.00000
vn 0.00000 1.00000 0.00000
vn 0.00000 -1.00000 0.00000
vn 0.00000 -1.00000 0.00000
vn 0.00000 -1.00000 0.00000
vn 0.00000 1.00000 0.00000
vn 0.00000 1.00000 0.00000
vn 0.00000 1.00000 0.00000
vn 0.00000 -1.00000 0.00000
vn 0.00000 -1.00000 0.00000
vn 0.00000 -1.00000 0.00000
usemtl ceiling
f 13/13/13 14/14/14 15/15/15 16/16/16
f 29/29/29 30/30/30 31/31/31 32/32/32
f 45/45/45 46/46/46 47/47/47 48/48/48
f 61/61/61 62/62/62 63/63/63 64/64/64
f 86/86/86 87/87/87 88/88/88 89/89/89
f 90/90/90 91/91/91 92/92/92
f 102/102/102 103/103/103 104/104/104
f 177/177/177 178/178/178 179/179/179 180/180/180
f 193/193/193 194/194/194 195/195/195 196/196/196
f 209/209/209 210/210/210 211/211/211 212/212/212
f 225/225/225 226/226/226 227/227/227 228/228/228
f 241/241/241 242/242/242 243/243/243 244/244/244
f 266/266/266 267/267/267 268/268/268 269/269/269
f 270/270/270 271/271/271 272/272/272
f 282/282/282 283/283/283 284/284/284
f 321/321/321 322/322/322 323/323/323 324/324/324
f 337/337/337 338/338/338 339/339/339 340/340/340
f 353/353/353 354/354/354 355/355/355 356/356/356
f 369/369/369 370/370/370 371/371/371 372/372/372
f 385/385/385 386/386/386 387/387/387 388/388/388
f 401/401/401 402/402/402 403/403/403 404/404/404
f 426/426/426 427/427/427 428/428/428 429/429/429
f 430/430/430 431/431/431 432/432/432
f 442/442/442 443/443/443 444/444/444
usemtl floor
f 1/1/1 2/2/2 3/3/3 4/4/4
f 17/17/17 18/18/18 19/19/19 20/20/20
f 33/33/33 34/34/34 35/35/35 36/36/36
f 49/49/49 50/50/50 51/51/51 52/52/52
f 65/65/65 66/66/66 67/67/67 68/68/68
f 69/69/69 70/70/70 71/71/71
f 93/93/93 94/94/94 95/95/95
f 165/165/165 166/166/166 167/167/167 168/168/168
f 181/181/181 182/182/182 183/183/183 184/184/184
f 197/197/197 198/198/198 199/199/199 200/200/200
f 213/213/213 214/214/214 215/215/215 216/216/216
f 229/229/229 230/230/230 231/231/231 232/232/232
f 245/245/245 246/246/246 247/247/247 248/248/248
f 249/249/249 250/250/250 251/251/251
f 273/273/273 274/274/274 275/275/275
f 309/309/309 310/310/310 311/311/311 312/312/312
f 325/325/325 326/326/326 327/327/327 328/328/328
f 341/341/341 342/342/342 343/343/343 344/344/344
f 357/357/357 358/358/358 359/359/359 360/360/360
f 373/373/373 374/374/374 375/375/375 376/376/376
f 389/389/389 390/390/390 391/391/391 392/392/392
f 405/405/405 406/406/406 407/407/407 408/408/408
f 409/409/409 410/410/410 411/411/411
f 433/433/433 434/434/434 435/435/435
usemtl frame
f 109/109/109 110/110/110 111/111/111 112/112/112
f 113/113/113 114/114/114 115/115/115 116/116/116
f 121/121/121 122/122/122 123/123/123 124/124/124
f 125/125/125 126/126/126 127/127/127 128/128/128
f 133/133/133 134/134/134 135/135/135 136/136/136
f 137/137/137 138/138/138 139/139/139 140/140/140
f 145/145/145 146/146/146 147/147/147 148/148/148
f 149/149/149 150/150/150 151/151/151 152/152/152
f 157/157/157 158/158/158 159/159/159 160/160/160
f 161/161/161 162/162/162 163/163/163 164/164/164
usemtl inner
f 285/285/285 286/286/286 287/287/287 288/288/288
f 289/289/289 290/290/290 291/291/291 292/292/292
f 293/293/293 294/294/294 295/295/295 296/296/296
f 297/297/297 298/298/298 299/299/299 300/300/300
f 301/301/301 302/302/302 303/303/303 304/304/304
f 305/305/305 306/306/306 307/307/307 308/308/308
usemtl roof
f 9/9/9 10/10/10 11/11/11 12/12/12
f 25/25/25 26/26/26 27/27/27 28/28/28
f 41/41/41 42/42/42 43/43/43 44/44/44
f 57/57/57 58/58/58 59/59/59 60/60/60
f 79/79/79 80/80/80 81/81/81 82/82/82
f 83/83/83 84/84/84 85/85/85
f 99/99/99 100/100/100 101/101/101
f 173/173/173 174/174/174 175/175/175 176/176/176
f 189/189/189 190/190/190 191/191/191 192/192/192
f 205/205/205 206/206/206 207/207/207 208/208/208
f 221/221/221 222/222/222 223/223/223 224/224/224
f 237/237/237 238/238/238 239/239/239 240/240/240
f 259/259/259 260/260/260 261/261/261 262/262/262
f 263/263/263 264/264/264 265/265/265
f 279/279/279 280/280/280 281/281/281
f 317/317/317 318/318/318 319/319/319 320/320/320
f 333/333/333 334/334/334 335/335/335 336/336/336
f 349/349/349 350/350/350 351/351/351 352/352/352
f 365/365/365 366/366/366 367/367/367 368/368/368
f 381/381/381 382/382/382 383/383/383 384/384/384
f 397/397/397 398/398/398 399/399/399 400/400/400
f 419/419/419 420/420/420 421/421/421 422/422/422
f 423/423/423 424/424/424 425/425/425
f 439/439/439 440/440/440 441/441/441
usemtl skin
f 105/105/105 106/106/106 107/107/107 108/108/108
f 117/117/117 118/118/118 119/119/119 120/120/120
f 129/129/129 130/130/130 131/131/131 132/132/132
f 141/141/141 142/142/142 143/143/143 144/144/144
f 153/153/153 154/154/154 155/155/155 156/156/156
usemtl under
f 5/5/5 6/6/6 7/7/7 8/8/8
f 21/21/21 22/22/22 23/23/23 24/24/24
f 37/37/37 38/38/38 39/39/39 40/40/40
f 53/53/53 54/54/54 55/55/55 56/56/56
f 72/72/72 73/73/73 74/74/74 75/75/75
f 76/76/76 77/77/77 78/78/78
f 96/96/96 97/97/97 98/98/98
f 169/169/169 170/170/170 171/171/171 172/172/172
f 185/185/185 186/186/186 187/187/187 188/188/188
f 201/201/201 202/202/202 203/203/203 204/204/204
f 217/217/217 218/218/218 219/219/219 220/220/220
f 233/233/233 234/234/234 235/235/235 236/236/236
f 252/252/252 253/253/253 254/254/254 255/255/255
f 256/256/256 257/257/257 258/258/258
f 276/276/276 277/277/277 278/278/278
f 313/313/313 314/314/314 315/315/315 316/316/316
f 329/329/329 330/330/330 331/331/331 332/332/332
f 345/345/345 346/346/346 347/347/347 348/348/348
f 361/361/361 362/362/362 363/363/363 364/364/364
f 377/377/377 378/378/378 379/379/379 380/380/380
f 393/393/393 394/394/394 395/395/395 396/396/396
f 412/412/412 413/413/413 414/414/414 415/415/415
f 416/416/416 417/417/417 418/418/418
f 436/436/436 437/437/437 438/438/438
