# Generated by dev-env-utils/scripts/gen_transit_airside.py -- do not edit
mtllib jet_bridge_large.mtl
o airport_jet_bridge_large_turn_c4
v -0.37939 0.09375 1.00000
v -0.68931 0.09375 0.85846
v -0.75092 0.09375 1.00000
v -0.75092 0.00000 1.00000
v -0.68931 0.00000 0.85846
v -0.37939 0.00000 1.00000
v -0.37939 4.24547 1.00000
v -0.68931 4.24547 0.85846
v -0.75092 4.24547 1.00000
v -0.75092 4.09375 1.00000
v -0.68931 4.09375 0.85846
v -0.37939 4.09375 1.00000
v 0.00000 0.09375 0.93786
v -0.58210 0.09375 0.63776
v -0.68931 0.09375 0.85846
v -0.37939 0.09375 1.00000
v 0.00000 0.09375 1.00000
v 0.00000 0.09375 0.93786
v -0.37939 0.09375 1.00000
v -0.37939 0.00000 1.00000
v -0.68931 0.00000 0.85846
v -0.58210 0.00000 0.63776
v 0.00000 0.00000 0.93786
v -0.37939 0.00000 1.00000
v 0.00000 0.00000 0.93786
v 0.00000 0.00000 1.00000
v 0.00000 4.24547 0.93786
v -0.58210 4.24547 0.63776
v -0.68931 4.24547 0.85846
v -0.37939 4.24547 1.00000
v 0.00000 4.24547 1.00000
v 0.00000 4.24547 0.93786
v -0.37939 4.24547 1.00000
v -0.37939 4.09375 1.00000
v -0.68931 4.09375 0.85846
v -0.58210 4.09375 0.63776
v 0.00000 4.09375 0.93786
v -0.37939 4.09375 1.00000
v 0.00000 4.09375 0.93786
v 0.00000 4.09375 1.00000
v 0.00000 0.09375 0.69060
v -0.46451 0.09375 0.42241
v -0.58210 0.09375 0.63776
v 0.00000 0.09375 0.93786
v 0.00000 0.00000 0.93786
v -0.58210 0.00000 0.63776
v -0.46451 0.00000 0.42241
v 0.00000 0.00000 0.69060
v 0.00000 4.24547 0.69060
v -0.46451 4.24547 0.42241
v -0.58210 4.24547 0.63776
v 0.00000 4.24547 0.93786
v 0.00000 4.09375 0.93786
v -0.58210 4.09375 0.63776
v -0.46451 4.09375 0.42241
v 0.00000 4.09375 0.69060
v 0.00000 0.09375 0.42936
v -0.33681 0.09375 0.21290
v -0.46451 0.09375 0.42241
v 0.00000 0.09375 0.69060
v 0.00000 0.00000 0.69060
v -0.46451 0.00000 0.42241
v -0.33681 0.00000 0.21290
v 0.00000 0.00000 0.42936
v 0.00000 4.24547 0.42936
v -0.33681 4.24547 0.21290
v -0.46451 4.24547 0.42241
v 0.00000 4.24547 0.69060
v 0.00000 4.09375 0.69060
v -0.46451 4.09375 0.42241
v -0.33681 4.09375 0.21290
v 0.00000 4.09375 0.42936
v 0.00000 0.09375 0.32729
v -0.28637 0.09375 0.13594
v -0.33681 0.09375 0.21290
v 0.00000 0.09375 0.42936
v 0.00000 0.00000 0.42936
v -0.33681 0.00000 0.21290
v -0.28637 0.00000 0.13594
v 0.00000 0.00000 0.32729
v 0.00000 4.24547 0.32729
v -0.28637 4.24547 0.13594
v -0.33681 4.24547 0.21290
v 0.00000 4.24547 0.42936
v 0.00000 4.09375 0.42936
v -0.33681 4.09375 0.21290
v -0.28637 4.09375 0.13594
v 0.00000 4.09375 0.32729
v 0.00000 0.09375 0.15161
v -0.19928 0.09375 0.00971
v -0.28637 0.09375 0.13594
v 0.00000 0.09375 0.32729
v 0.00000 0.00000 0.32729
v -0.28637 0.00000 0.13594
v -0.19928 0.00000 0.00971
v 0.00000 0.00000 0.15161
v 0.00000 4.24547 0.15161
v -0.19928 4.24547 0.00971
v -0.28637 4.24547 0.13594
v 0.00000 4.24547 0.32729
v 0.00000 4.09375 0.32729
v -0.28637 4.09375 0.13594
v -0.19928 4.09375 0.00971
v 0.00000 4.09375 0.15161
v 0.00000 0.09375 0.00000
v -0.19202 0.09375 0.00000
v -0.19928 0.09375 0.00971
v 0.00000 0.09375 0.15161
v 0.00000 0.00000 0.15161
v -0.19928 0.00000 0.00971
v -0.19202 0.00000 0.00000
v 0.00000 0.00000 0.00000
v 0.00000 4.24547 0.00000
v -0.19202 4.24547 0.00000
v -0.19928 4.24547 0.00971
v 0.00000 4.24547 0.15161
v 0.00000 4.09375 0.15161
v -0.19928 4.09375 0.00971
v -0.19202 4.09375 0.00000
v 0.00000 4.09375 0.00000
v -0.75092 4.09375 1.00000
v -0.68931 4.09375 0.85846
v -0.68931 0.09375 0.85846
v -0.75092 0.09375 1.00000
v -0.75092 0.09375 1.00000
v -0.68931 0.09375 0.85846
v -0.68931 0.00000 0.85846
v -0.75092 0.00000 1.00000
v -0.75092 4.24547 1.00000
v -0.68931 4.24547 0.85846
v -0.68931 4.09375 0.85846
v -0.75092 4.09375 1.00000
v -0.58171 0.09375 1.00000
v -0.54816 0.09375 0.92292
v -0.54816 4.09375 0.92292
v -0.58171 4.09375 1.00000
v -0.58210 4.09375 0.63776
v -0.58210 0.09375 0.63776
v -0.68931 0.09375 0.85846
v -0.68931 4.09375 0.85846
v -0.58210 0.09375 0.63776
v -0.58210 0.00000 0.63776
v -0.68931 0.00000 0.85846
v -0.68931 0.09375 0.85846
v -0.58210 4.24547 0.63776
v -0.58210 4.09375 0.63776
v -0.68931 4.09375 0.85846
v -0.68931 4.24547 0.85846
v -0.54816 4.09375 0.92292
v -0.54816 0.09375 0.92292
v -0.44418 0.09375 0.70887
v -0.44418 4.09375 0.70887
v -0.46451 4.09375 0.42241
v -0.46451 0.09375 0.42241
v -0.58210 0.09375 0.63776
v -0.58210 4.09375 0.63776
v -0.46451 0.09375 0.42241
v -0.46451 0.00000 0.42241
v -0.58210 0.00000 0.63776
v -0.58210 0.09375 0.63776
v -0.46451 4.24547 0.42241
v -0.46451 4.09375 0.42241
v -0.58210 4.09375 0.63776
v -0.58210 4.24547 0.63776
v -0.44418 4.09375 0.70887
v -0.44418 0.09375 0.70887
v -0.33013 0.09375 0.50000
v -0.33013 4.09375 0.50000
v -0.33681 4.09375 0.21290
v -0.33681 0.09375 0.21290
v -0.46451 0.09375 0.42241
v -0.46451 4.09375 0.42241
v -0.33681 0.09375 0.21290
v -0.33681 0.00000 0.21290
v -0.46451 0.00000 0.42241
v -0.46451 0.09375 0.42241
v -0.33681 4.24547 0.21290
v -0.33681 4.09375 0.21290
v -0.46451 4.09375 0.42241
v -0.46451 4.24547 0.42241
v -0.33013 4.09375 0.50000
v -0.33013 0.09375 0.50000
v -0.20627 0.09375 0.29680
v -0.20627 4.09375 0.29680
v -0.28637 4.09375 0.13594
v -0.28637 0.09375 0.13594
v -0.33681 0.09375 0.21290
v -0.33681 4.09375 0.21290
v -0.28637 0.09375 0.13594
v -0.28637 0.00000 0.13594
v -0.33681 0.00000 0.21290
v -0.33681 0.09375 0.21290
v -0.28637 4.24547 0.13594
v -0.28637 4.09375 0.13594
v -0.33681 4.09375 0.21290
v -0.33681 4.24547 0.21290
v -0.20627 4.09375 0.29680
v -0.20627 0.09375 0.29680
v -0.15735 0.09375 0.22215
v -0.15735 4.09375 0.22215
v -0.19928 4.09375 0.00971
v -0.19928 0.09375 0.00971
v -0.28637 0.09375 0.13594
v -0.28637 4.09375 0.13594
v -0.19928 0.09375 0.00971
v -0.19928 0.00000 0.00971
v -0.28637 0.00000 0.13594
v -0.28637 0.09375 0.13594
v -0.19928 4.24547 0.00971
v -0.19928 4.09375 0.00971
v -0.28637 4.09375 0.13594
v -0.28637 4.24547 0.13594
v -0.15735 4.09375 0.22215
v -0.15735 0.09375 0.22215
v -0.07288 0.09375 0.09972
v -0.07288 4.09375 0.09972
v -0.19202 4.09375 0.00000
v -0.19202 0.09375 0.00000
v -0.19928 0.09375 0.00971
v -0.19928 4.09375 0.00971
v -0.19202 0.09375 0.00000
v -0.19202 0.00000 0.00000
v -0.19928 0.00000 0.00971
v -0.19928 0.09375 0.00971
v -0.19202 4.24547 0.00000
v -0.19202 4.09375 0.00000
v -0.19928 4.09375 0.00971
v -0.19928 4.24547 0.00971
v -0.07288 4.09375 0.09972
v -0.07288 0.09375 0.09972
v 0.00000 0.09375 0.00236
v 0.00000 4.09375 0.00236
v 0.12054 0.09375 1.00000
v 0.00000 0.09375 0.93786
v 0.00000 0.09375 1.00000
v 0.00000 0.00000 1.00000
v 0.00000 0.00000 0.93786
v 0.12054 0.00000 1.00000
v 0.12054 4.24547 1.00000
v 0.00000 4.24547 0.93786
v 0.00000 4.24547 1.00000
v 0.00000 4.09375 1.00000
v 0.00000 4.09375 0.93786
v 0.12054 4.09375 1.00000
v 0.53590 0.09375 1.00000
v 0.00000 0.09375 0.69060
v 0.00000 0.09375 0.93786
v 0.12054 0.09375 1.00000
v 0.12054 0.00000 1.00000
v 0.00000 0.00000 0.93786
v 0.00000 0.00000 0.69060
v 0.53590 0.00000 1.00000
v 0.53590 4.24547 1.00000
v 0.00000 4.24547 0.69060
v 0.00000 4.24547 0.93786
v 0.12054 4.24547 1.00000
v 0.12054 4.09375 1.00000
v 0.00000 4.09375 0.93786
v 0.00000 4.09375 0.69060
v 0.53590 4.09375 1.00000
v 0.88794 0.09375 1.00000
v 0.00000 0.09375 0.42936
v 0.00000 0.09375 0.69060
v 0.53590 0.09375 1.00000
v 0.53590 0.00000 1.00000
v 0.00000 0.00000 0.69060
v 0.00000 0.00000 0.42936
v 0.88794 0.00000 1.00000
v 0.88794 4.24547 1.00000
v 0.00000 4.24547 0.42936
v 0.00000 4.24547 0.69060
v 0.53590 4.24547 1.00000
v 0.53590 4.09375 1.00000
v 0.00000 4.09375 0.69060
v 0.00000 4.09375 0.42936
v 0.88794 4.09375 1.00000
v 1.00000 0.09375 0.99546
v 0.00000 0.09375 0.32729
v 0.00000 0.09375 0.42936
v 0.88794 0.09375 1.00000
v 1.00000 0.09375 1.00000
v 1.00000 0.09375 0.99546
v 0.88794 0.09375 1.00000
v 0.88794 0.00000 1.00000
v 0.00000 0.00000 0.42936
v 0.00000 0.00000 0.32729
v 1.00000 0.00000 0.99546
v 0.88794 0.00000 1.00000
v 1.00000 0.00000 0.99546
v 1.00000 0.00000 1.00000
v 1.00000 4.24547 0.99546
v 0.00000 4.24547 0.32729
v 0.00000 4.24547 0.42936
v 0.88794 4.24547 1.00000
v 1.00000 4.24547 1.00000
v 1.00000 4.24547 0.99546
v 0.88794 4.24547 1.00000
v 0.88794 4.09375 1.00000
v 0.00000 4.09375 0.42936
v 0.00000 4.09375 0.32729
v 1.00000 4.09375 0.99546
v 0.88794 4.09375 1.00000
v 1.00000 4.09375 0.99546
v 1.00000 4.09375 1.00000
v 1.00000 0.09375 0.86371
v 0.00000 0.09375 0.15161
v 0.00000 0.09375 0.32729
v 1.00000 0.09375 0.99546
v 1.00000 0.00000 0.99546
v 0.00000 0.00000 0.32729
v 0.00000 0.00000 0.15161
v 1.00000 0.00000 0.86371
v 1.00000 4.24547 0.86371
v 0.00000 4.24547 0.15161
v 0.00000 4.24547 0.32729
v 1.00000 4.24547 0.99546
v 1.00000 4.09375 0.99546
v 0.00000 4.09375 0.32729
v 0.00000 4.09375 0.15161
v 1.00000 4.09375 0.86371
v 0.18519 0.09375 0.00000
v 0.00000 0.09375 0.00000
v 0.00000 0.09375 0.15161
v 1.00000 0.09375 0.86371
v 1.00000 0.09375 0.64077
v 0.18519 0.09375 0.00000
v 1.00000 0.09375 0.86371
v 1.00000 0.00000 0.86371
v 0.00000 0.00000 0.15161
v 0.00000 0.00000 0.00000
v 0.18519 0.00000 0.00000
v 1.00000 0.00000 0.86371
v 0.18519 0.00000 0.00000
v 1.00000 0.00000 0.64077
v 0.18519 4.24547 0.00000
v 0.00000 4.24547 0.00000
v 0.00000 4.24547 0.15161
v 1.00000 4.24547 0.86371
v 1.00000 4.24547 0.64077
v 0.18519 4.24547 0.00000
v 1.00000 4.24547 0.86371
v 1.00000 4.09375 0.86371
v 0.00000 4.09375 0.15161
v 0.00000 4.09375 0.00000
v 0.18519 4.09375 0.00000
v 1.00000 4.09375 0.86371
v 0.18519 4.09375 0.00000
v 1.00000 4.09375 0.64077
v 1.00000 0.09375 0.40049
v 0.53782 0.09375 0.00000
v 0.18519 0.09375 0.00000
v 1.00000 0.09375 0.64077
v 1.00000 0.00000 0.64077
v 0.18519 0.00000 0.00000
v 0.53782 0.00000 0.00000
v 1.00000 0.00000 0.40049
v 1.00000 4.24547 0.40049
v 0.53782 4.24547 0.00000
v 0.18519 4.24547 0.00000
v 1.00000 4.24547 0.64077
v 1.00000 4.09375 0.64077
v 0.18519 4.09375 0.00000
v 0.53782 4.09375 0.00000
v 1.00000 4.09375 0.40049
v 1.00000 0.09375 0.13951
v 0.85369 0.09375 0.00000
v 0.53782 0.09375 0.00000
v 1.00000 0.09375 0.40049
v 1.00000 0.00000 0.40049
v 0.53782 0.00000 0.00000
v 0.85369 0.00000 0.00000
v 1.00000 0.00000 0.13951
v 1.00000 4.24547 0.13951
v 0.85369 4.24547 0.00000
v 0.53782 4.24547 0.00000
v 1.00000 4.24547 0.40049
v 1.00000 4.09375 0.40049
v 0.53782 4.09375 0.00000
v 0.85369 4.09375 0.00000
v 1.00000 4.09375 0.13951
v 1.00000 0.09375 0.00000
v 0.85369 0.09375 0.00000
v 1.00000 0.09375 0.13951
v 1.00000 0.00000 0.13951
v 0.85369 0.00000 0.00000
v 1.00000 0.00000 0.00000
v 1.00000 4.24547 0.00000
v 0.85369 4.24547 0.00000
v 1.00000 4.24547 0.13951
v 1.00000 4.09375 0.13951
v 0.85369 4.09375 0.00000
v 1.00000 4.09375 0.00000
v 0.00000 0.09375 0.00236
v 0.00177 0.09375 0.00000
v 0.00177 4.09375 0.00000
v 0.00000 4.09375 0.00236
v 0.00000 0.09375 0.00000
v 0.00000 0.09375 -0.14563
v -0.05224 0.09375 -0.18672
v -0.19202 0.09375 0.00000
v -0.19202 0.00000 0.00000
v -0.05224 0.00000 -0.18672
v 0.00000 0.00000 -0.14563
v 0.00000 0.00000 0.00000
v 0.00000 4.24547 0.00000
v 0.00000 4.24547 -0.14563
v -0.05224 4.24547 -0.18672
v -0.19202 4.24547 0.00000
v -0.19202 4.09375 0.00000
v -0.05224 4.09375 -0.18672
v 0.00000 4.09375 -0.14563
v 0.00000 4.09375 0.00000
v 0.00000 0.09375 -0.24999
v -0.05224 0.09375 -0.18672
v 0.00000 0.09375 -0.14563
v 0.00000 0.00000 -0.14563
v -0.05224 0.00000 -0.18672
v 0.00000 0.00000 -0.24999
v 0.00000 4.24547 -0.24999
v -0.05224 4.24547 -0.18672
v 0.00000 4.24547 -0.14563
v 0.00000 4.09375 -0.14563
v -0.05224 4.09375 -0.18672
v 0.00000 4.09375 -0.24999
v -0.19202 4.09375 0.00000
v -0.05224 4.09375 -0.18672
v -0.05224 0.09375 -0.18672
v -0.19202 0.09375 0.00000
v -0.19202 0.09375 0.00000
v -0.05224 0.09375 -0.18672
v -0.05224 0.00000 -0.18672
v -0.19202 0.00000 0.00000
v -0.19202 4.24547 0.00000
v -0.05224 4.24547 -0.18672
v -0.05224 4.09375 -0.18672
v -0.19202 4.09375 0.00000
v 0.00000 4.09375 -0.24999
v 0.00000 0.09375 -0.24999
v -0.05224 0.09375 -0.18672
v -0.05224 4.09375 -0.18672
v 0.00000 0.09375 -0.24999
v 0.00000 0.00000 -0.24999
v -0.05224 0.00000 -0.18672
v -0.05224 0.09375 -0.18672
v 0.00000 4.24547 -0.24999
v 0.00000 4.09375 -0.24999
v -0.05224 4.09375 -0.18672
v -0.05224 4.24547 -0.18672
v 0.18519 0.09375 0.00000
v 0.00000 0.09375 -0.14563
v 0.00000 0.09375 0.00000
v 0.00000 0.00000 0.00000
v 0.00000 0.00000 -0.14563
v 0.18519 0.00000 0.00000
v 0.18519 4.24547 0.00000
v 0.00000 4.24547 -0.14563
v 0.00000 4.24547 0.00000
v 0.00000 4.09375 0.00000
v 0.00000 4.09375 -0.14563
v 0.18519 4.09375 0.00000
v 0.10398 0.09375 -0.37592
v 0.00000 0.09375 -0.24999
v 0.00000 0.09375 -0.14563
v 0.18519 0.09375 0.00000
v 0.53782 0.09375 0.00000
v 0.10398 0.09375 -0.37592
v 0.18519 0.09375 0.00000
v 0.18519 0.00000 0.00000
v 0.00000 0.00000 -0.14563
v 0.00000 0.00000 -0.24999
v 0.10398 0.00000 -0.37592
v 0.18519 0.00000 0.00000
v 0.10398 0.00000 -0.37592
v 0.53782 0.00000 0.00000
v 0.10398 4.24547 -0.37592
v 0.00000 4.24547 -0.24999
v 0.00000 4.24547 -0.14563
v 0.18519 4.24547 0.00000
v 0.53782 4.24547 0.00000
v 0.10398 4.24547 -0.37592
v 0.18519 4.24547 0.00000
v 0.18519 4.09375 0.00000
v 0.00000 4.09375 -0.14563
v 0.00000 4.09375 -0.24999
v 0.10398 4.09375 -0.37592
v 0.18519 4.09375 0.00000
v 0.10398 4.09375 -0.37592
v 0.53782 4.09375 0.00000
v 0.85369 0.09375 0.00000
v 0.26902 0.09375 -0.55748
v 0.10398 0.09375 -0.37592
v 0.53782 0.09375 0.00000
v 0.53782 0.00000 0.00000
v 0.10398 0.00000 -0.37592
v 0.26902 0.00000 -0.55748
v 0.85369 0.00000 0.00000
v 0.85369 4.24547 0.00000
v 0.26902 4.24547 -0.55748
v 0.10398 4.24547 -0.37592
v 0.53782 4.24547 0.00000
v 0.53782 4.09375 0.00000
v 0.10398 4.09375 -0.37592
v 0.26902 4.09375 -0.55748
v 0.85369 4.09375 0.00000
v 1.00000 0.09375 0.00000
v 0.35474 0.09375 -0.64526
v 0.26902 0.09375 -0.55748
v 0.85369 0.09375 0.00000
v 0.85369 0.00000 0.00000
v 0.26902 0.00000 -0.55748
v 0.35474 0.00000 -0.64526
v 1.00000 0.00000 0.00000
v 1.00000 4.24547 0.00000
v 0.35474 4.24547 -0.64526
v 0.26902 4.24547 -0.55748
v 0.85369 4.24547 0.00000
v 0.85369 4.09375 0.00000
v 0.26902 4.09375 -0.55748
v 0.35474 4.09375 -0.64526
v 1.00000 4.09375 0.00000
v 1.00000 0.09375 -0.14631
v 0.44252 0.09375 -0.73098
v 0.35474 0.09375 -0.64526
v 1.00000 0.09375 0.00000
v 1.00000 0.00000 0.00000
v 0.35474 0.00000 -0.64526
v 0.44252 0.00000 -0.73098
v 1.00000 0.00000 -0.14631
v 1.00000 4.24547 -0.14631
v 0.44252 4.24547 -0.73098
v 0.35474 4.24547 -0.64526
v 1.00000 4.24547 0.00000
v 1.00000 4.09375 0.00000
v 0.35474 4.09375 -0.64526
v 0.44252 4.09375 -0.73098
v 1.00000 4.09375 -0.14631
v 1.00000 0.09375 -0.46218
v 0.62408 0.09375 -0.89602
v 0.44252 0.09375 -0.73098
v 1.00000 0.09375 -0.14631
v 1.00000 0.00000 -0.14631
v 0.44252 0.00000 -0.73098
v 0.62408 0.00000 -0.89602
v 1.00000 0.00000 -0.46218
v 1.00000 4.24547 -0.46218
v 0.62408 4.24547 -0.89602
v 0.44252 4.24547 -0.73098
v 1.00000 4.24547 -0.14631
v 1.00000 4.09375 -0.14631
v 0.44252 4.09375 -0.73098
v 0.62408 4.09375 -0.89602
v 1.00000 4.09375 -0.46218
v 0.85437 0.09375 -1.00000
v 0.75001 0.09375 -1.00000
v 0.62408 0.09375 -0.89602
v 1.00000 0.09375 -0.46218
v 1.00000 0.09375 -0.81481
v 0.85437 0.09375 -1.00000
v 1.00000 0.09375 -0.46218
v 1.00000 0.00000 -0.46218
v 0.62408 0.00000 -0.89602
v 0.75001 0.00000 -1.00000
v 0.85437 0.00000 -1.00000
v 1.00000 0.00000 -0.46218
v 0.85437 0.00000 -1.00000
v 1.00000 0.00000 -0.81481
v 0.85437 4.24547 -1.00000
v 0.75001 4.24547 -1.00000
v 0.62408 4.24547 -0.89602
v 1.00000 4.24547 -0.46218
v 1.00000 4.24547 -0.81481
v 0.85437 4.24547 -1.00000
v 1.00000 4.24547 -0.46218
v 1.00000 4.09375 -0.46218
v 0.62408 4.09375 -0.89602
v 0.75001 4.09375 -1.00000
v 0.85437 4.09375 -1.00000
v 1.00000 4.09375 -0.46218
v 0.85437 4.09375 -1.00000
v 1.00000 4.09375 -0.81481
v 1.00000 0.09375 -1.00000
v 0.85437 0.09375 -1.00000
v 1.00000 0.09375 -0.81481
v 1.00000 0.00000 -0.81481
v 0.85437 0.00000 -1.00000
v 1.00000 0.00000 -1.00000
v 1.00000 4.24547 -1.00000
v 0.85437 4.24547 -1.00000
v 1.00000 4.24547 -0.81481
v 1.00000 4.09375 -0.81481
v 0.85437 4.09375 -1.00000
v 1.00000 4.09375 -1.00000
v 0.00177 0.09375 0.00000
v 0.06973 0.09375 -0.09079
v 0.06973 4.09375 -0.09079
v 0.00177 4.09375 0.00000
v 0.00000 4.09375 -0.24999
v 0.10398 4.09375 -0.37592
v 0.10398 0.09375 -0.37592
v 0.00000 0.09375 -0.24999
v 0.00000 0.09375 -0.24999
v 0.10398 0.09375 -0.37592
v 0.10398 0.00000 -0.37592
v 0.00000 0.00000 -0.24999
v 0.00000 4.24547 -0.24999
v 0.10398 4.24547 -0.37592
v 0.10398 4.09375 -0.37592
v 0.00000 4.09375 -0.24999
v 0.06973 4.09375 -0.09079
v 0.06973 0.09375 -0.09079
v 0.22125 0.09375 -0.27430
v 0.22125 4.09375 -0.27430
v 0.26902 4.09375 -0.55748
v 0.26902 0.09375 -0.55748
v 0.10398 0.09375 -0.37592
v 0.10398 4.09375 -0.37592
v 0.26902 0.09375 -0.55748
v 0.26902 0.00000 -0.55748
v 0.10398 0.00000 -0.37592
v 0.10398 0.09375 -0.37592
v 0.26902 4.24547 -0.55748
v 0.26902 4.09375 -0.55748
v 0.10398 4.09375 -0.37592
v 0.10398 4.24547 -0.37592
v 0.22125 4.09375 -0.27430
v 0.22125 0.09375 -0.27430
v 0.38133 0.09375 -0.45040
v 0.38133 4.09375 -0.45040
v 0.35474 4.09375 -0.64526
v 0.35474 0.09375 -0.64526
v 0.26902 0.09375 -0.55748
v 0.26902 4.09375 -0.55748
v 0.35474 0.09375 -0.64526
v 0.35474 0.00000 -0.64526
v 0.26902 0.00000 -0.55748
v 0.26902 0.09375 -0.55748
v 0.35474 4.24547 -0.64526
v 0.35474 4.09375 -0.64526
v 0.26902 4.09375 -0.55748
v 0.26902 4.24547 -0.55748
v 0.38133 4.09375 -0.45040
v 0.38133 0.09375 -0.45040
v 0.46447 0.09375 -0.53553
v 0.46447 4.09375 -0.53553
v 0.44252 4.09375 -0.73098
v 0.44252 0.09375 -0.73098
v 0.35474 0.09375 -0.64526
v 0.35474 4.09375 -0.64526
v 0.44252 0.09375 -0.73098
v 0.44252 0.00000 -0.73098
v 0.35474 0.00000 -0.64526
v 0.35474 0.09375 -0.64526
v 0.44252 4.24547 -0.73098
v 0.44252 4.09375 -0.73098
v 0.35474 4.09375 -0.64526
v 0.35474 4.24547 -0.64526
v 0.46447 4.09375 -0.53553
v 0.46447 0.09375 -0.53553
v 0.54960 0.09375 -0.61867
v 0.54960 4.09375 -0.61867
v 0.62408 4.09375 -0.89602
v 0.62408 0.09375 -0.89602
v 0.44252 0.09375 -0.73098
v 0.44252 4.09375 -0.73098
v 0.62408 0.09375 -0.89602
v 0.62408 0.00000 -0.89602
v 0.44252 0.00000 -0.73098
v 0.44252 0.09375 -0.73098
v 0.62408 4.24547 -0.89602
v 0.62408 4.09375 -0.89602
v 0.44252 4.09375 -0.73098
v 0.44252 4.24547 -0.73098
v 0.54960 4.09375 -0.61867
v 0.54960 0.09375 -0.61867
v 0.72570 0.09375 -0.77875
v 0.72570 4.09375 -0.77875
v 0.75001 4.09375 -1.00000
v 0.75001 0.09375 -1.00000
v 0.62408 0.09375 -0.89602
v 0.62408 4.09375 -0.89602
v 0.75001 0.09375 -1.00000
v 0.75001 0.00000 -1.00000
v 0.62408 0.00000 -0.89602
v 0.62408 0.09375 -0.89602
v 0.75001 4.24547 -1.00000
v 0.75001 4.09375 -1.00000
v 0.62408 4.09375 -0.89602
v 0.62408 4.24547 -0.89602
v 0.72570 4.09375 -0.77875
v 0.72570 0.09375 -0.77875
v 0.90921 0.09375 -0.93027
v 0.90921 4.09375 -0.93027
v 0.90921 4.09375 -0.93027
v 0.90921 0.09375 -0.93027
v 1.00000 0.09375 -0.99823
v 1.00000 4.09375 -0.99823
vt 0.90515 0.75000
vt 0.82767 0.71462
vt 0.81227 0.75000
vt 0.81227 0.75000
vt 0.82767 0.71462
vt 0.90515 0.75000
vt 0.90515 0.75000
vt 0.82767 0.71462
vt 0.81227 0.75000
vt 0.49993 0.34865
vt 0.50000 0.37485
vt 0.44854 0.37485
vt 1.00000 0.73446
vt 0.85447 0.65944
vt 0.82767 0.71462
vt 0.90515 0.75000
vt 1.00000 0.75000
vt 1.00000 0.73446
vt 0.90515 0.75000
vt 0.90515 0.75000
vt 0.82767 0.71462
vt 0.85447 0.65944
vt 1.00000 0.73446
vt 0.90515 0.75000
vt 1.00000 0.73446
vt 1.00000 0.75000
vt 1.00000 0.73446
vt 0.85447 0.65944
vt 0.82767 0.71462
vt 0.90515 0.75000
vt 1.00000 0.75000
vt 1.00000 0.73446
vt 0.90515 0.75000
vt 0.44854 0.37485
vt 0.50000 0.37485
vt 0.50000 0.41650
vt 0.40108 0.41650
vt 0.44854 0.37485
vt 0.40108 0.41650
vt 0.39683 0.40569
vt 1.00000 0.67265
vt 0.88387 0.60560
vt 0.85447 0.65944
vt 1.00000 0.73446
vt 1.00000 0.73446
vt 0.85447 0.65944
vt 0.88387 0.60560
vt 1.00000 0.67265
vt 1.00000 0.67265
vt 0.88387 0.60560
vt 0.85447 0.65944
vt 1.00000 0.73446
vt 0.40108 0.41650
vt 0.50000 0.41650
vt 0.50000 0.45815
vt 0.41899 0.45815
vt 1.00000 0.60734
vt 0.91580 0.55323
vt 0.88387 0.60560
vt 1.00000 0.67265
vt 1.00000 0.67265
vt 0.88387 0.60560
vt 0.91580 0.55323
vt 1.00000 0.60734
vt 1.00000 0.60734
vt 0.91580 0.55323
vt 0.88387 0.60560
vt 1.00000 0.67265
vt 0.41899 0.45815
vt 0.50000 0.45815
vt 0.50000 0.49980
vt 0.43953 0.49980
vt 1.00000 0.58182
vt 0.92841 0.53398
vt 0.91580 0.55323
vt 1.00000 0.60734
vt 1.00000 0.60734
vt 0.91580 0.55323
vt 0.92841 0.53398
vt 1.00000 0.58182
vt 1.00000 0.58182
vt 0.92841 0.53398
vt 0.91580 0.55323
vt 1.00000 0.60734
vt 0.43953 0.00000
vt 0.50000 0.00000
vt 0.50000 0.01542
vt 0.44798 0.01542
vt 1.00000 0.53790
vt 0.95018 0.50243
vt 0.92841 0.53398
vt 1.00000 0.58182
vt 1.00000 0.58182
vt 0.92841 0.53398
vt 0.95018 0.50243
vt 1.00000 0.53790
vt 1.00000 0.53790
vt 0.95018 0.50243
vt 0.92841 0.53398
vt 1.00000 0.58182
vt 0.44798 0.01542
vt 0.50000 0.01542
vt 0.50000 0.04145
vt 0.46305 0.04145
vt 1.00000 0.50000
vt 0.95200 0.50000
vt 0.95018 0.50243
vt 1.00000 0.53790
vt 1.00000 0.53790
vt 0.95018 0.50243
vt 0.95200 0.50000
vt 1.00000 0.50000
vt 1.00000 0.50000
vt 0.95200 0.50000
vt 0.95018 0.50243
vt 1.00000 0.53790
vt 0.46305 0.04145
vt 0.50000 0.04145
vt 0.49996 0.04351
vt 0.47656 0.06306
vt 0.01465 0.00000
vt 0.09091 0.00000
vt 0.09091 0.90625
vt 0.01465 0.90625
vt 0.02931 0.00000
vt 0.18182 0.00000
vt 0.18182 0.09375
vt 0.02931 0.09375
vt 0.02931 0.00000
vt 0.18182 0.00000
vt 0.18182 0.09375
vt 0.02931 0.09375
vt 0.04810 0.90625
vt 0.09091 0.90625
vt 0.09091 0.00000
vt 0.04810 0.00000
vt 0.21212 0.00000
vt 0.21212 0.90625
vt 0.09091 0.90625
vt 0.09091 0.00000
vt 0.42424 0.00000
vt 0.42424 0.09375
vt 0.18182 0.09375
vt 0.18182 0.00000
vt 0.42424 0.00000
vt 0.42424 0.09375
vt 0.18182 0.09375
vt 0.18182 0.00000
vt 0.09091 0.00000
vt 0.09091 0.90625
vt 0.21212 0.90625
vt 0.21212 0.00000
vt 0.33333 0.00000
vt 0.33333 0.90625
vt 0.21212 0.90625
vt 0.21212 0.00000
vt 0.66666 0.00000
vt 0.66666 0.09375
vt 0.42424 0.09375
vt 0.42424 0.00000
vt 0.66666 0.00000
vt 0.66666 0.09375
vt 0.42424 0.09375
vt 0.42424 0.00000
vt 0.21212 0.00000
vt 0.21212 0.90625
vt 0.33333 0.90625
vt 0.33333 0.00000
vt 0.45454 0.00000
vt 0.45454 0.90625
vt 0.33333 0.90625
vt 0.33333 0.00000
vt 0.90908 0.00000
vt 0.90908 0.09375
vt 0.66666 0.09375
vt 0.66666 0.00000
vt 0.90908 0.00000
vt 0.90908 0.09375
vt 0.66666 0.09375
vt 0.66666 0.00000
vt 0.33333 0.00000
vt 0.33333 0.90625
vt 0.45454 0.90625
vt 0.45454 0.00000
vt 0.50000 0.00000
vt 0.50000 0.90625
vt 0.45454 0.90625
vt 0.45454 0.00000
vt 1.00000 0.00000
vt 1.00000 0.09375
vt 0.90908 0.09375
vt 0.90908 0.00000
vt 1.00000 0.00000
vt 1.00000 0.09375
vt 0.90908 0.09375
vt 0.90908 0.00000
vt 0.45454 0.00000
vt 0.45454 0.90625
vt 0.50000 0.90625
vt 0.50000 0.00000
vt 0.07576 0.00000
vt 0.07576 0.90625
vt 0.00000 0.90625
vt 0.00000 0.00000
vt 0.15152 0.00000
vt 0.15152 0.09375
vt 0.00000 0.09375
vt 0.00000 0.00000
vt 0.15152 0.00000
vt 0.15152 0.09375
vt 0.00000 0.09375
vt 0.00000 0.00000
vt 0.00000 0.00000
vt 0.00000 0.90625
vt 0.07576 0.90625
vt 0.07576 0.00000
vt 0.08175 0.00000
vt 0.08175 0.90625
vt 0.07576 0.90625
vt 0.07576 0.00000
vt 0.16350 0.00000
vt 0.16350 0.09375
vt 0.15152 0.09375
vt 0.15152 0.00000
vt 0.16350 0.00000
vt 0.16350 0.09375
vt 0.15152 0.09375
vt 0.15152 0.00000
vt 0.07576 0.00000
vt 0.07576 0.90625
vt 0.13770 0.90625
vt 0.13770 0.00000
vt 0.03014 0.75000
vt 0.00000 0.73446
vt 0.00000 0.75000
vt 0.00000 0.75000
vt 0.00000 0.73446
vt 0.03014 0.75000
vt 0.03014 0.75000
vt 0.00000 0.73446
vt 0.00000 0.75000
vt 0.39683 0.40569
vt 0.40108 0.41650
vt 0.38060 0.41650
vt 0.13397 0.75000
vt 0.00000 0.67265
vt 0.00000 0.73446
vt 0.03014 0.75000
vt 0.03014 0.75000
vt 0.00000 0.73446
vt 0.00000 0.67265
vt 0.13397 0.75000
vt 0.13397 0.75000
vt 0.00000 0.67265
vt 0.00000 0.73446
vt 0.03014 0.75000
vt 0.38060 0.41650
vt 0.40108 0.41650
vt 0.41899 0.45815
vt 0.32552 0.45815
vt 0.22198 0.75000
vt 0.00000 0.60734
vt 0.00000 0.67265
vt 0.13397 0.75000
vt 0.13397 0.75000
vt 0.00000 0.67265
vt 0.00000 0.60734
vt 0.22198 0.75000
vt 0.22198 0.75000
vt 0.00000 0.60734
vt 0.00000 0.67265
vt 0.13397 0.75000
vt 0.32552 0.45815
vt 0.41899 0.45815
vt 0.43953 0.49980
vt 0.28010 0.49980
vt 0.25000 0.74887
vt 0.00000 0.58182
vt 0.00000 0.60734
vt 0.22198 0.75000
vt 0.25000 0.75000
vt 0.25000 0.74887
vt 0.22198 0.75000
vt 0.22198 0.75000
vt 0.00000 0.60734
vt 0.00000 0.58182
vt 0.25000 0.74887
vt 0.22198 0.75000
vt 0.25000 0.74887
vt 0.25000 0.75000
vt 0.25000 0.74887
vt 0.00000 0.58182
vt 0.00000 0.60734
vt 0.22198 0.75000
vt 0.25000 0.75000
vt 0.25000 0.74887
vt 0.22198 0.75000
vt 0.28010 0.00000
vt 0.43953 0.00000
vt 0.44798 0.01542
vt 0.26632 0.01542
vt 0.28010 0.00000
vt 0.26632 0.01542
vt 0.26594 0.01450
vt 0.25000 0.71593
vt 0.00000 0.53790
vt 0.00000 0.58182
vt 0.25000 0.74887
vt 0.25000 0.74887
vt 0.00000 0.58182
vt 0.00000 0.53790
vt 0.25000 0.71593
vt 0.25000 0.71593
vt 0.00000 0.53790
vt 0.00000 0.58182
vt 0.25000 0.74887
vt 0.26632 0.01542
vt 0.44798 0.01542
vt 0.46305 0.04145
vt 0.27763 0.04145
vt 0.04630 0.50000
vt 0.00000 0.50000
vt 0.00000 0.53790
vt 0.25000 0.71593
vt 0.25000 0.66019
vt 0.04630 0.50000
vt 0.25000 0.71593
vt 0.25000 0.71593
vt 0.00000 0.53790
vt 0.00000 0.50000
vt 0.04630 0.50000
vt 0.25000 0.71593
vt 0.04630 0.50000
vt 0.25000 0.66019
vt 0.04630 0.50000
vt 0.00000 0.50000
vt 0.00000 0.53790
vt 0.25000 0.71593
vt 0.25000 0.66019
vt 0.04630 0.50000
vt 0.25000 0.71593
vt 0.27763 0.04145
vt 0.46305 0.04145
vt 0.47656 0.06306
vt 0.45438 0.08310
vt 0.27763 0.04145
vt 0.45438 0.08310
vt 0.29781 0.08310
vt 0.25000 0.60012
vt 0.13445 0.50000
vt 0.04630 0.50000
vt 0.25000 0.66019
vt 0.25000 0.66019
vt 0.04630 0.50000
vt 0.13445 0.50000
vt 0.25000 0.60012
vt 0.25000 0.60012
vt 0.13445 0.50000
vt 0.04630 0.50000
vt 0.25000 0.66019
vt 0.29781 0.08310
vt 0.45438 0.08310
vt 0.41329 0.12475
vt 0.32092 0.12475
vt 0.25000 0.53488
vt 0.21342 0.50000
vt 0.13445 0.50000
vt 0.25000 0.60012
vt 0.25000 0.60012
vt 0.13445 0.50000
vt 0.21342 0.50000
vt 0.25000 0.53488
vt 0.25000 0.53488
vt 0.21342 0.50000
vt 0.13445 0.50000
vt 0.25000 0.60012
vt 0.32092 0.12475
vt 0.41329 0.12475
vt 0.37798 0.16640
vt 0.34745 0.16640
vt 0.25000 0.50000
vt 0.21342 0.50000
vt 0.25000 0.53488
vt 0.25000 0.53488
vt 0.21342 0.50000
vt 0.25000 0.50000
vt 0.25000 0.50000
vt 0.21342 0.50000
vt 0.25000 0.53488
vt 0.34745 0.16640
vt 0.37798 0.16640
vt 0.36217 0.18722
vt 0.13770 0.90625
vt 0.13920 0.90625
vt 0.13920 0.00000
vt 0.13770 0.00000
vt 1.00000 0.50000
vt 1.00000 0.46359
vt 0.98694 0.45332
vt 0.95200 0.50000
vt 0.95200 0.50000
vt 0.98694 0.45332
vt 1.00000 0.46359
vt 1.00000 0.50000
vt 1.00000 0.50000
vt 1.00000 0.46359
vt 0.98694 0.45332
vt 0.95200 0.50000
vt 0.49996 0.04351
vt 0.50000 0.08310
vt 0.48996 0.08310
vt 0.47656 0.06306
vt 1.00000 0.43750
vt 0.98694 0.45332
vt 1.00000 0.46359
vt 1.00000 0.46359
vt 0.98694 0.45332
vt 1.00000 0.43750
vt 1.00000 0.43750
vt 0.98694 0.45332
vt 1.00000 0.46359
vt 0.48996 0.08310
vt 0.50000 0.08310
vt 0.49980 0.09703
vt 0.08175 0.00000
vt 0.19697 0.00000
vt 0.19697 0.90625
vt 0.08175 0.90625
vt 0.16350 0.00000
vt 0.39394 0.00000
vt 0.39394 0.09375
vt 0.16350 0.09375
vt 0.16350 0.00000
vt 0.39394 0.00000
vt 0.39394 0.09375
vt 0.16350 0.09375
vt 0.23750 0.00000
vt 0.23750 0.90625
vt 0.19697 0.90625
vt 0.19697 0.00000
vt 0.47501 0.00000
vt 0.47501 0.09375
vt 0.39394 0.09375
vt 0.39394 0.00000
vt 0.47501 0.00000
vt 0.47501 0.09375
vt 0.39394 0.09375
vt 0.39394 0.00000
vt 0.04630 0.50000
vt 0.00000 0.46359
vt 0.00000 0.50000
vt 0.00000 0.50000
vt 0.00000 0.46359
vt 0.04630 0.50000
vt 0.04630 0.50000
vt 0.00000 0.46359
vt 0.00000 0.50000
vt 0.47656 0.06306
vt 0.48996 0.08310
vt 0.45438 0.08310
vt 0.02599 0.40602
vt 0.00000 0.43750
vt 0.00000 0.46359
vt 0.04630 0.50000
vt 0.13445 0.50000
vt 0.02599 0.40602
vt 0.04630 0.50000
vt 0.04630 0.50000
vt 0.00000 0.46359
vt 0.00000 0.43750
vt 0.02599 0.40602
vt 0.04630 0.50000
vt 0.02599 0.40602
vt 0.13445 0.50000
vt 0.02599 0.40602
vt 0.00000 0.43750
vt 0.00000 0.46359
vt 0.04630 0.50000
vt 0.13445 0.50000
vt 0.02599 0.40602
vt 0.04630 0.50000
vt 0.45438 0.08310
vt 0.48996 0.08310
vt 0.49980 0.09703
vt 0.50000 0.12475
vt 0.45438 0.08310
vt 0.50000 0.12475
vt 0.41329 0.12475
vt 0.21342 0.50000
vt 0.06726 0.36063
vt 0.02599 0.40602
vt 0.13445 0.50000
vt 0.13445 0.50000
vt 0.02599 0.40602
vt 0.06726 0.36063
vt 0.21342 0.50000
vt 0.21342 0.50000
vt 0.06726 0.36063
vt 0.02599 0.40602
vt 0.13445 0.50000
vt 0.41329 0.12475
vt 0.50000 0.12475
vt 0.50000 0.16640
vt 0.37798 0.16640
vt 0.25000 0.50000
vt 0.08869 0.33869
vt 0.06726 0.36063
vt 0.21342 0.50000
vt 0.21342 0.50000
vt 0.06726 0.36063
vt 0.08869 0.33869
vt 0.25000 0.50000
vt 0.25000 0.50000
vt 0.08869 0.33869
vt 0.06726 0.36063
vt 0.21342 0.50000
vt 0.37798 0.16640
vt 0.50000 0.16640
vt 0.50000 0.18722
vt 0.36217 0.18722
vt 0.25000 0.46342
vt 0.11063 0.31726
vt 0.08869 0.33869
vt 0.25000 0.50000
vt 0.25000 0.50000
vt 0.08869 0.33869
vt 0.11063 0.31726
vt 0.25000 0.46342
vt 0.25000 0.46342
vt 0.11063 0.31726
vt 0.08869 0.33869
vt 0.25000 0.50000
vt 0.36217 0.18722
vt 0.50000 0.18722
vt 0.50000 0.20805
vt 0.37798 0.20805
vt 0.25000 0.38445
vt 0.15602 0.27599
vt 0.11063 0.31726
vt 0.25000 0.46342
vt 0.25000 0.46342
vt 0.11063 0.31726
vt 0.15602 0.27599
vt 0.25000 0.38445
vt 0.25000 0.38445
vt 0.15602 0.27599
vt 0.11063 0.31726
vt 0.25000 0.46342
vt 0.37798 0.20805
vt 0.50000 0.20805
vt 0.50000 0.24970
vt 0.41329 0.24970
vt 0.21359 0.25000
vt 0.18750 0.25000
vt 0.15602 0.27599
vt 0.25000 0.38445
vt 0.25000 0.29630
vt 0.21359 0.25000
vt 0.25000 0.38445
vt 0.25000 0.38445
vt 0.15602 0.27599
vt 0.18750 0.25000
vt 0.21359 0.25000
vt 0.25000 0.38445
vt 0.21359 0.25000
vt 0.25000 0.29630
vt 0.21359 0.25000
vt 0.18750 0.25000
vt 0.15602 0.27599
vt 0.25000 0.38445
vt 0.25000 0.29630
vt 0.21359 0.25000
vt 0.25000 0.38445
vt 0.41329 0.24970
vt 0.50000 0.24970
vt 0.49980 0.27742
vt 0.48996 0.29135
vt 0.41329 0.24970
vt 0.48996 0.29135
vt 0.45438 0.29135
vt 0.25000 0.25000
vt 0.21359 0.25000
vt 0.25000 0.29630
vt 0.25000 0.29630
vt 0.21359 0.25000
vt 0.25000 0.25000
vt 0.25000 0.25000
vt 0.21359 0.25000
vt 0.25000 0.29630
vt 0.45438 0.29135
vt 0.48996 0.29135
vt 0.47656 0.31138
vt 0.13920 0.90625
vt 0.19697 0.90625
vt 0.19697 0.00000
vt 0.13920 0.00000
vt 0.23750 0.00000
vt 0.31818 0.00000
vt 0.31818 0.90625
vt 0.23750 0.90625
vt 0.47501 0.00000
vt 0.63636 0.00000
vt 0.63636 0.09375
vt 0.47501 0.09375
vt 0.47501 0.00000
vt 0.63636 0.00000
vt 0.63636 0.09375
vt 0.47501 0.09375
vt 0.19697 0.00000
vt 0.19697 0.90625
vt 0.31818 0.90625
vt 0.31818 0.00000
vt 0.43939 0.00000
vt 0.43939 0.90625
vt 0.31818 0.90625
vt 0.31818 0.00000
vt 0.87878 0.00000
vt 0.87878 0.09375
vt 0.63636 0.09375
vt 0.63636 0.00000
vt 0.87878 0.00000
vt 0.87878 0.09375
vt 0.63636 0.09375
vt 0.63636 0.00000
vt 0.31818 0.00000
vt 0.31818 0.90625
vt 0.43939 0.90625
vt 0.43939 0.00000
vt 0.50000 0.00000
vt 0.50000 0.90625
vt 0.43939 0.90625
vt 0.43939 0.00000
vt 1.00000 0.00000
vt 1.00000 0.09375
vt 0.87878 0.09375
vt 0.87878 0.00000
vt 1.00000 0.00000
vt 1.00000 0.09375
vt 0.87878 0.09375
vt 0.87878 0.00000
vt 0.43939 0.00000
vt 0.43939 0.90625
vt 0.50000 0.90625
vt 0.50000 0.00000
vt 0.06061 0.00000
vt 0.06061 0.90625
vt 0.00000 0.90625
vt 0.00000 0.00000
vt 0.12122 0.00000
vt 0.12122 0.09375
vt 0.00000 0.09375
vt 0.00000 0.00000
vt 0.12122 0.00000
vt 0.12122 0.09375
vt 0.00000 0.09375
vt 0.00000 0.00000
vt 0.00000 0.00000
vt 0.00000 0.90625
vt 0.06061 0.90625
vt 0.06061 0.00000
vt 0.18182 0.00000
vt 0.18182 0.90625
vt 0.06061 0.90625
vt 0.06061 0.00000
vt 0.36364 0.00000
vt 0.36364 0.09375
vt 0.12122 0.09375
vt 0.12122 0.00000
vt 0.36364 0.00000
vt 0.36364 0.09375
vt 0.12122 0.09375
vt 0.12122 0.00000
vt 0.06061 0.00000
vt 0.06061 0.90625
vt 0.18182 0.90625
vt 0.18182 0.00000
vt 0.26250 0.00000
vt 0.26250 0.90625
vt 0.18182 0.90625
vt 0.18182 0.00000
vt 0.52499 0.00000
vt 0.52499 0.09375
vt 0.36364 0.09375
vt 0.36364 0.00000
vt 0.52499 0.00000
vt 0.52499 0.09375
vt 0.36364 0.09375
vt 0.36364 0.00000
vt 0.18182 0.00000
vt 0.18182 0.90625
vt 0.30303 0.90625
vt 0.30303 0.00000
vt 0.30303 0.00000
vt 0.30303 0.90625
vt 0.36080 0.90625
vt 0.36080 0.00000
vn 0.00000 1.00000 0.00000
vn 0.00000 1.00000 0.00000
vn 0.00000 1.00000 0.00000
vn 0.00000 -1.00000 0.00000
vn 0.00000 -1.00000 0.00000
vn 0.00000 -1.00000 0.00000
vn 0.00000 1.00000 0.00000
vn 0.00000 1.00000 0.00000
vn 0.00000 1.00000 0.00000
vn 0.00000 -1.00000 0.00000
vn 0.00000 -1.00000 0.00000
vn 0.00000 -1.00000 0.00000
vn 0.00000 1.00000 0.00000
vn 0.00000 1.00000 0.00000
vn 0.00000 1.00000 0.00000
vn 0.00000 1.00000 0.00000
vn 0.00000 1.00000 0.00000
vn 0.00000 1.00000 0.00000
vn 0.00000 1.00000 0.00000
vn 0.00000 -1.00000 0.00000
vn 0.00000 -1.00000 0.00000
vn 0.00000 -1.00000 0.00000
vn 0.00000 -1.00000 0.00000
vn 0.00000 -1.00000 0.00000
vn 0.00000 -1.00000 0.00000
vn 0.00000 -1.00000 0.00000
vn 0.00000 1.00000 0.00000
vn 0.00000 1.00000 0.00000
vn 0.00000 1.00000 0.00000
vn 0.00000 1.00000 0.00000
vn 0.00000 1.00000 0.00000
vn 0.00000 1.00000 0.00000
vn 0.00000 1.00000 0.00000
vn 0.00000 -1.00000 0.00000
vn 0.00000 -1.00000 0.00000
vn 0.00000 -1.00000 0.00000
vn 0.00000 -1.00000 0.00000
vn 0.00000 -1.00000 0.00000
vn 0.00000 -1.00000 0.00000
vn 0.00000 -1.00000 0.00000
vn 0.00000 1.00000 0.00000
vn 0.00000 1.00000 0.00000
vn 0.00000 1.00000 0.00000
vn 0.00000 1.00000 0.00000
vn 0.00000 -1.00000 0.00000
vn 0.00000 -1.00000 0.00000
vn 0.00000 -1.00000 0.00000
vn 0.00000 -1.00000 0.00000
vn 0.00000 1.00000 0.00000
vn 0.00000 1.00000 0.00000
vn 0.00000 1.00000 0.00000
vn 0.00000 1.00000 0.00000
vn 0.00000 -1.00000 0.00000
vn 0.00000 -1.00000 0.00000
vn 0.00000 -1.00000 0.00000
vn 0.00000 -1.00000 0.00000
vn 0.00000 1.00000 0.00000
vn 0.00000 1.00000 0.00000
vn 0.00000 1.00000 0.00000
vn 0.00000 1.00000 0.00000
vn 0.00000 -1.00000 0.00000
vn 0.00000 -1.00000 0.00000
vn 0.00000 -1.00000 0.00000
vn 0.00000 -1.00000 0.00000
vn 0.00000 1.00000 0.00000
vn 0.00000 1.00000 0.00000
vn 0.00000 1.00000 0.00000
vn 0.00000 1.00000 0.00000
vn 0.00000 -1.00000 0.00000
vn 0.00000 -1.00000 0.00000
vn 0.00000 -1.00000 0.00000
vn 0.00000 -1.00000 0.00000
vn 0.00000 1.00000 0.00000
vn 0.00000 1.00000 0.00000
vn 0.00000 1.00000 0.00000
vn 0.00000 1.00000 0.00000
vn 0.00000 -1.00000 0.00000
vn 0.00000 -1.00000 0.00000
vn 0.00000 -1.00000 0.00000
vn 0.00000 -1.00000 0.00000
vn 0.00000 1.00000 0.00000
vn 0.00000 1.00000 0.00000
vn 0.00000 1.00000 0.00000
vn 0.00000 1.00000 0.00000
vn 0.00000 -1.00000 0.00000
vn 0.00000 -1.00000 0.00000
vn 0.00000 -1.00000 0.00000
vn 0.00000 -1.00000 0.00000
vn 0.00000 1.00000 0.00000
vn 0.00000 1.00000 0.00000
vn 0.00000 1.00000 0.00000
vn 0.00000 1.00000 0.00000
vn 0.00000 -1.00000 0.00000
vn 0.00000 -1.00000 0.00000
vn 0.00000 -1.00000 0.00000
vn 0.00000 -1.00000 0.00000
vn 0.00000 1.00000 0.00000
vn 0.00000 1.00000 0.00000
vn 0.00000 1.00000 0.00000
vn 0.00000 1.00000 0.00000
vn 0.00000 -1.00000 0.00000
vn 0.00000 -1.00000 0.00000
vn 0.00000 -1.00000 0.00000
vn 0.00000 -1.00000 0.00000
vn 0.00000 1.00000 0.00000
vn 0.00000 1.00000 0.00000
vn 0.00000 1.00000 0.00000
vn 0.00000 1.00000 0.00000
vn 0.00000 -1.00000 0.00000
vn 0.00000 -1.00000 0.00000
vn 0.00000 -1.00000 0.00000
vn 0.00000 -1.00000 0.00000
vn 0.00000 1.00000 0.00000
vn 0.00000 1.00000 0.00000
vn 0.00000 1.00000 0.00000
vn 0.00000 1.00000 0.00000
vn 0.00000 -1.00000 0.00000
vn 0.00000 -1.00000 0.00000
vn 0.00000 -1.00000 0.00000
vn 0.00000 -1.00000 0.00000
vn -0.91690 0.00000 -0.39911
vn -0.91690 0.00000 -0.39911
vn -0.91690 0.00000 -0.39911
vn -0.91690 0.00000 -0.39911
vn -0.91690 0.00000 -0.39911
vn -0.91690 0.00000 -0.39911
vn -0.91690 0.00000 -0.39911
vn -0.91690 0.00000 -0.39911
vn -0.91690 0.00000 -0.39911
vn -0.91690 0.00000 -0.39911
vn -0.91690 0.00000 -0.39911
vn -0.91690 0.00000 -0.39911
vn 0.91690 0.00000 0.39911
vn 0.91690 0.00000 0.39911
vn 0.91690 0.00000 0.39911
vn 0.91690 0.00000 0.39911
vn -0.89949 0.00000 -0.43694
vn -0.89949 0.00000 -0.43694
vn -0.89949 0.00000 -0.43694
vn -0.89949 0.00000 -0.43694
vn -0.89949 0.00000 -0.43694
vn -0.89949 0.00000 -0.43694
vn -0.89949 0.00000 -0.43694
vn -0.89949 0.00000 -0.43694
vn -0.89949 0.00000 -0.43694
vn -0.89949 0.00000 -0.43694
vn -0.89949 0.00000 -0.43694
vn -0.89949 0.00000 -0.43694
vn 0.89949 0.00000 0.43694
vn 0.89949 0.00000 0.43694
vn 0.89949 0.00000 0.43694
vn 0.89949 0.00000 0.43694
vn -0.87768 0.00000 -0.47925
vn -0.87768 0.00000 -0.47925
vn -0.87768 0.00000 -0.47925
vn -0.87768 0.00000 -0.47925
vn -0.87768 0.00000 -0.47925
vn -0.87768 0.00000 -0.47925
vn -0.87768 0.00000 -0.47925
vn -0.87768 0.00000 -0.47925
vn -0.87768 0.00000 -0.47925
vn -0.87768 0.00000 -0.47925
vn -0.87768 0.00000 -0.47925
vn -0.87768 0.00000 -0.47925
vn 0.87768 0.00000 0.47925
vn 0.87768 0.00000 0.47925
vn 0.87768 0.00000 0.47925
vn 0.87768 0.00000 0.47925
vn -0.85388 0.00000 -0.52047
vn -0.85388 0.00000 -0.52047
vn -0.85388 0.00000 -0.52047
vn -0.85388 0.00000 -0.52047
vn -0.85388 0.00000 -0.52047
vn -0.85388 0.00000 -0.52047
vn -0.85388 0.00000 -0.52047
vn -0.85388 0.00000 -0.52047
vn -0.85388 0.00000 -0.52047
vn -0.85388 0.00000 -0.52047
vn -0.85388 0.00000 -0.52047
vn -0.85388 0.00000 -0.52047
vn 0.85388 0.00000 0.52047
vn 0.85388 0.00000 0.52047
vn 0.85388 0.00000 0.52047
vn 0.85388 0.00000 0.52047
vn -0.83639 0.00000 -0.54813
vn -0.83639 0.00000 -0.54813
vn -0.83639 0.00000 -0.54813
vn -0.83639 0.00000 -0.54813
vn -0.83639 0.00000 -0.54813
vn -0.83639 0.00000 -0.54813
vn -0.83639 0.00000 -0.54813
vn -0.83639 0.00000 -0.54813
vn -0.83639 0.00000 -0.54813
vn -0.83639 0.00000 -0.54813
vn -0.83639 0.00000 -0.54813
vn -0.83639 0.00000 -0.54813
vn 0.83639 0.00000 0.54813
vn 0.83639 0.00000 0.54813
vn 0.83639 0.00000 0.54813
vn 0.83639 0.00000 0.54813
vn -0.82311 0.00000 -0.56788
vn -0.82311 0.00000 -0.56788
vn -0.82311 0.00000 -0.56788
vn -0.82311 0.00000 -0.56788
vn -0.82311 0.00000 -0.56788
vn -0.82311 0.00000 -0.56788
vn -0.82311 0.00000 -0.56788
vn -0.82311 0.00000 -0.56788
vn -0.82311 0.00000 -0.56788
vn -0.82311 0.00000 -0.56788
vn -0.82311 0.00000 -0.56788
vn -0.82311 0.00000 -0.56788
vn 0.82311 0.00000 0.56788
vn 0.82311 0.00000 0.56788
vn 0.82311 0.00000 0.56788
vn 0.82311 0.00000 0.56788
vn -0.80054 0.00000 -0.59928
vn -0.80054 0.00000 -0.59928
vn -0.80054 0.00000 -0.59928
vn -0.80054 0.00000 -0.59928
vn -0.80054 0.00000 -0.59928
vn -0.80054 0.00000 -0.59928
vn -0.80054 0.00000 -0.59928
vn -0.80054 0.00000 -0.59928
vn -0.80054 0.00000 -0.59928
vn -0.80054 0.00000 -0.59928
vn -0.80054 0.00000 -0.59928
vn -0.80054 0.00000 -0.59928
vn 0.80054 0.00000 0.59928
vn 0.80054 0.00000 0.59928
vn 0.80054 0.00000 0.59928
vn 0.80054 0.00000 0.59928
vn 0.00000 1.00000 0.00000
vn 0.00000 1.00000 0.00000
vn 0.00000 1.00000 0.00000
vn 0.00000 -1.00000 0.00000
vn 0.00000 -1.00000 0.00000
vn 0.00000 -1.00000 0.00000
vn 0.00000 1.00000 0.00000
vn 0.00000 1.00000 0.00000
vn 0.00000 1.00000 0.00000
vn 0.00000 -1.00000 0.00000
vn 0.00000 -1.00000 0.00000
vn 0.00000 -1.00000 0.00000
vn 0.00000 1.00000 0.00000
vn 0.00000 1.00000 0.00000
vn 0.00000 1.00000 0.00000
vn 0.00000 1.00000 0.00000
vn 0.00000 -1.00000 0.00000
vn 0.00000 -1.00000 0.00000
vn 0.00000 -1.00000 0.00000
vn 0.00000 -1.00000 0.00000
vn 0.00000 1.00000 0.00000
vn 0.00000 1.00000 0.00000
vn 0.00000 1.00000 0.00000
vn 0.00000 1.00000 0.00000
vn 0.00000 -1.00000 0.00000
vn 0.00000 -1.00000 0.00000
vn 0.00000 -1.00000 0.00000
vn 0.00000 -1.00000 0.00000
vn 0.00000 1.00000 0.00000
vn 0.00000 1.00000 0.00000
vn 0.00000 1.00000 0.00000
vn 0.00000 1.00000 0.00000
vn 0.00000 -1.00000 0.00000
vn 0.00000 -1.00000 0.00000
vn 0.00000 -1.00000 0.00000
vn 0.00000 -1.00000 0.00000
vn 0.00000 1.00000 0.00000
vn 0.00000 1.00000 0.00000
vn 0.00000 1.00000 0.00000
vn 0.00000 1.00000 0.00000
vn 0.00000 -1.00000 0.00000
vn 0.00000 -1.00000 0.00000
vn 0.00000 -1.00000 0.00000
vn 0.00000 -1.00000 0.00000
vn 0.00000 1.00000 0.00000
vn 0.00000 1.00000 0.00000
vn 0.00000 1.00000 0.00000
vn 0.00000 1.00000 0.00000
vn 0.00000 1.00000 0.00000
vn 0.00000 1.00000 0.00000
vn 0.00000 1.00000 0.00000
vn 0.00000 -1.00000 0.00000
vn 0.00000 -1.00000 0.00000
vn 0.00000 -1.00000 0.00000
vn 0.00000 -1.00000 0.00000
vn 0.00000 -1.00000 0.00000
vn 0.00000 -1.00000 0.00000
vn 0.00000 -1.00000 0.00000
vn 0.00000 1.00000 0.00000
vn 0.00000 1.00000 0.00000
vn 0.00000 1.00000 0.00000
vn 0.00000 1.00000 0.00000
vn 0.00000 1.00000 0.00000
vn 0.00000 1.00000 0.00000
vn 0.00000 1.00000 0.00000
vn 0.00000 -1.00000 0.00000
vn 0.00000 -1.00000 0.00000
vn 0.00000 -1.00000 0.00000
vn 0.00000 -1.00000 0.00000
vn 0.00000 -1.00000 0.00000
vn 0.00000 -1.00000 0.00000
vn 0.00000 -1.00000 0.00000
vn 0.00000 1.00000 0.00000
vn 0.00000 1.00000 0.00000
vn 0.00000 1.00000 0.00000
vn 0.00000 1.00000 0.00000
vn 0.00000 -1.00000 0.00000
vn 0.00000 -1.00000 0.00000
vn 0.00000 -1.00000 0.00000
vn 0.00000 -1.00000 0.00000
vn 0.00000 1.00000 0.00000
vn 0.00000 1.00000 0.00000
vn 0.00000 1.00000 0.00000
vn 0.00000 1.00000 0.00000
vn 0.00000 -1.00000 0.00000
vn 0.00000 -1.00000 0.00000
vn 0.00000 -1.00000 0.00000
vn 0.00000 -1.00000 0.00000
vn 0.00000 1.00000 0.00000
vn 0.00000 1.00000 0.00000
vn 0.00000 1.00000 0.00000
vn 0.00000 1.00000 0.00000
vn 0.00000 1.00000 0.00000
vn 0.00000 1.00000 0.00000
vn 0.00000 1.00000 0.00000
vn 0.00000 -1.00000 0.00000
vn 0.00000 -1.00000 0.00000
vn 0.00000 -1.00000 0.00000
vn 0.00000 -1.00000 0.00000
vn 0.00000 -1.00000 0.00000
vn 0.00000 -1.00000 0.00000
vn 0.00000 -1.00000 0.00000
vn 0.00000 1.00000 0.00000
vn 0.00000 1.00000 0.00000
vn 0.00000 1.00000 0.00000
vn 0.00000 1.00000 0.00000
vn 0.00000 1.00000 0.00000
vn 0.00000 1.00000 0.00000
vn 0.00000 1.00000 0.00000
vn 0.00000 -1.00000 0.00000
vn 0.00000 -1.00000 0.00000
vn 0.00000 -1.00000 0.00000
vn 0.00000 -1.00000 0.00000
vn 0.00000 -1.00000 0.00000
vn 0.00000 -1.00000 0.00000
vn 0.00000 -1.00000 0.00000
vn 0.00000 1.00000 0.00000
vn 0.00000 1.00000 0.00000
vn 0.00000 1.00000 0.00000
vn 0.00000 1.00000 0.00000
vn 0.00000 -1.00000 0.00000
vn 0.00000 -1.00000 0.00000
vn 0.00000 -1.00000 0.00000
vn 0.00000 -1.00000 0.00000
vn 0.00000 1.00000 0.00000
vn 0.00000 1.00000 0.00000
vn 0.00000 1.00000 0.00000
vn 0.00000 1.00000 0.00000
vn 0.00000 -1.00000 0.00000
vn 0.00000 -1.00000 0.00000
vn 0.00000 -1.00000 0.00000
vn 0.00000 -1.00000 0.00000
vn 0.00000 1.00000 0.00000
vn 0.00000 1.00000 0.00000
vn 0.00000 1.00000 0.00000
vn 0.00000 1.00000 0.00000
vn 0.00000 -1.00000 0.00000
vn 0.00000 -1.00000 0.00000
vn 0.00000 -1.00000 0.00000
vn 0.00000 -1.00000 0.00000
vn 0.00000 1.00000 0.00000
vn 0.00000 1.00000 0.00000
vn 0.00000 1.00000 0.00000
vn 0.00000 1.00000 0.00000
vn 0.00000 -1.00000 0.00000
vn 0.00000 -1.00000 0.00000
vn 0.00000 -1.00000 0.00000
vn 0.00000 -1.00000 0.00000
vn 0.00000 1.00000 0.00000
vn 0.00000 1.00000 0.00000
vn 0.00000 1.00000 0.00000
vn 0.00000 -1.00000 0.00000
vn 0.00000 -1.00000 0.00000
vn 0.00000 -1.00000 0.00000
vn 0.00000 1.00000 0.00000
vn 0.00000 1.00000 0.00000
vn 0.00000 1.00000 0.00000
vn 0.00000 -1.00000 0.00000
vn 0.00000 -1.00000 0.00000
vn 0.00000 -1.00000 0.00000
vn 0.80054 0.00000 0.59928
vn 0.80054 0.00000 0.59928
vn 0.80054 0.00000 0.59928
vn 0.80054 0.00000 0.59928
vn 0.00000 1.00000 0.00000
vn 0.00000 1.00000 0.00000
vn 0.00000 1.00000 0.00000
vn 0.00000 1.00000 0.00000
vn 0.00000 -1.00000 0.00000
vn 0.00000 -1.00000 0.00000
vn 0.00000 -1.00000 0.00000
vn 0.00000 -1.00000 0.00000
vn 0.00000 1.00000 0.00000
vn 0.00000 1.00000 0.00000
vn 0.00000 1.00000 0.00000
vn 0.00000 1.00000 0.00000
vn 0.00000 -1.00000 0.00000
vn 0.00000 -1.00000 0.00000
vn 0.00000 -1.00000 0.00000
vn 0.00000 -1.00000 0.00000
vn 0.00000 1.00000 0.00000
vn 0.00000 1.00000 0.00000
vn 0.00000 1.00000 0.00000
vn 0.00000 -1.00000 0.00000
vn 0.00000 -1.00000 0.00000
vn 0.00000 -1.00000 0.00000
vn 0.00000 1.00000 0.00000
vn 0.00000 1.00000 0.00000
vn 0.00000 1.00000 0.00000
vn 0.00000 -1.00000 0.00000
vn 0.00000 -1.00000 0.00000
vn 0.00000 -1.00000 0.00000
vn -0.80054 0.00000 -0.59928
vn -0.80054 0.00000 -0.59928
vn -0.80054 0.00000 -0.59928
vn -0.80054 0.00000 -0.59928
vn -0.80054 0.00000 -0.59928
vn -0.80054 0.00000 -0.59928
vn -0.80054 0.00000 -0.59928
vn -0.80054 0.00000 -0.59928
vn -0.80054 0.00000 -0.59928
vn -0.80054 0.00000 -0.59928
vn -0.80054 0.00000 -0.59928
vn -0.80054 0.00000 -0.59928
vn -0.77112 0.00000 -0.63669
vn -0.77112 0.00000 -0.63669
vn -0.77112 0.00000 -0.63669
vn -0.77112 0.00000 -0.63669
vn -0.77112 0.00000 -0.63669
vn -0.77112 0.00000 -0.63669
vn -0.77112 0.00000 -0.63669
vn -0.77112 0.00000 -0.63669
vn -0.77112 0.00000 -0.63669
vn -0.77112 0.00000 -0.63669
vn -0.77112 0.00000 -0.63669
vn -0.77112 0.00000 -0.63669
vn 0.00000 1.00000 0.00000
vn 0.00000 1.00000 0.00000
vn 0.00000 1.00000 0.00000
vn 0.00000 -1.00000 0.00000
vn 0.00000 -1.00000 0.00000
vn 0.00000 -1.00000 0.00000
vn 0.00000 1.00000 0.00000
vn 0.00000 1.00000 0.00000
vn 0.00000 1.00000 0.00000
vn 0.00000 -1.00000 0.00000
vn 0.00000 -1.00000 0.00000
vn 0.00000 -1.00000 0.00000
vn 0.00000 1.00000 0.00000
vn 0.00000 1.00000 0.00000
vn 0.00000 1.00000 0.00000
vn 0.00000 1.00000 0.00000
vn 0.00000 1.00000 0.00000
vn 0.00000 1.00000 0.00000
vn 0.00000 1.00000 0.00000
vn 0.00000 -1.00000 0.00000
vn 0.00000 -1.00000 0.00000
vn 0.00000 -1.00000 0.00000
vn 0.00000 -1.00000 0.00000
vn 0.00000 -1.00000 0.00000
vn 0.00000 -1.00000 0.00000
vn 0.00000 -1.00000 0.00000
vn 0.00000 1.00000 0.00000
vn 0.00000 1.00000 0.00000
vn 0.00000 1.00000 0.00000
vn 0.00000 1.00000 0.00000
vn 0.00000 1.00000 0.00000
vn 0.00000 1.00000 0.00000
vn 0.00000 1.00000 0.00000
vn 0.00000 -1.00000 0.00000
vn 0.00000 -1.00000 0.00000
vn 0.00000 -1.00000 0.00000
vn 0.00000 -1.00000 0.00000
vn 0.00000 -1.00000 0.00000
vn 0.00000 -1.00000 0.00000
vn 0.00000 -1.00000 0.00000
vn 0.00000 1.00000 0.00000
vn 0.00000 1.00000 0.00000
vn 0.00000 1.00000 0.00000
vn 0.00000 1.00000 0.00000
vn 0.00000 -1.00000 0.00000
vn 0.00000 -1.00000 0.00000
vn 0.00000 -1.00000 0.00000
vn 0.00000 -1.00000 0.00000
vn 0.00000 1.00000 0.00000
vn 0.00000 1.00000 0.00000
vn 0.00000 1.00000 0.00000
vn 0.00000 1.00000 0.00000
vn 0.00000 -1.00000 0.00000
vn 0.00000 -1.00000 0.00000
vn 0.00000 -1.00000 0.00000
vn 0.00000 -1.00000 0.00000
vn 0.00000 1.00000 0.00000
vn 0.00000 1.00000 0.00000
vn 0.00000 1.00000 0.00000
vn 0.00000 1.00000 0.00000
vn 0.00000 -1.00000 0.00000
vn 0.00000 -1.00000 0.00000
vn 0.00000 -1.00000 0.00000
vn 0.00000 -1.00000 0.00000
vn 0.00000 1.00000 0.00000
vn 0.00000 1.00000 0.00000
vn 0.00000 1.00000 0.00000
vn 0.00000 1.00000 0.00000
vn 0.00000 -1.00000 0.00000
vn 0.00000 -1.00000 0.00000
vn 0.00000 -1.00000 0.00000
vn 0.00000 -1.00000 0.00000
vn 0.00000 1.00000 0.00000
vn 0.00000 1.00000 0.00000
vn 0.00000 1.00000 0.00000
vn 0.00000 1.00000 0.00000
vn 0.00000 -1.00000 0.00000
vn 0.00000 -1.00000 0.00000
vn 0.00000 -1.00000 0.00000
vn 0.00000 -1.00000 0.00000
vn 0.00000 1.00000 0.00000
vn 0.00000 1.00000 0.00000
vn 0.00000 1.00000 0.00000
vn 0.00000 1.00000 0.00000
vn 0.00000 -1.00000 0.00000
vn 0.00000 -1.00000 0.00000
vn 0.00000 -1.00000 0.00000
vn 0.00000 -1.00000 0.00000
vn 0.00000 1.00000 0.00000
vn 0.00000 1.00000 0.00000
vn 0.00000 1.00000 0.00000
vn 0.00000 1.00000 0.00000
vn 0.00000 -1.00000 0.00000
vn 0.00000 -1.00000 0.00000
vn 0.00000 -1.00000 0.00000
vn 0.00000 -1.00000 0.00000
vn 0.00000 1.00000 0.00000
vn 0.00000 1.00000 0.00000
vn 0.00000 1.00000 0.00000
vn 0.00000 1.00000 0.00000
vn 0.00000 -1.00000 0.00000
vn 0.00000 -1.00000 0.00000
vn 0.00000 -1.00000 0.00000
vn 0.00000 -1.00000 0.00000
vn 0.00000 1.00000 0.00000
vn 0.00000 1.00000 0.00000
vn 0.00000 1.00000 0.00000
vn 0.00000 1.00000 0.00000
vn 0.00000 1.00000 0.00000
vn 0.00000 1.00000 0.00000
vn 0.00000 1.00000 0.00000
vn 0.00000 -1.00000 0.00000
vn 0.00000 -1.00000 0.00000
vn 0.00000 -1.00000 0.00000
vn 0.00000 -1.00000 0.00000
vn 0.00000 -1.00000 0.00000
vn 0.00000 -1.00000 0.00000
vn 0.00000 -1.00000 0.00000
vn 0.00000 1.00000 0.00000
vn 0.00000 1.00000 0.00000
vn 0.00000 1.00000 0.00000
vn 0.00000 1.00000 0.00000
vn 0.00000 1.00000 0.00000
vn 0.00000 1.00000 0.00000
vn 0.00000 1.00000 0.00000
vn 0.00000 -1.00000 0.00000
vn 0.00000 -1.00000 0.00000
vn 0.00000 -1.00000 0.00000
vn 0.00000 -1.00000 0.00000
vn 0.00000 -1.00000 0.00000
vn 0.00000 -1.00000 0.00000
vn 0.00000 -1.00000 0.00000
vn 0.00000 1.00000 0.00000
vn 0.00000 1.00000 0.00000
vn 0.00000 1.00000 0.00000
vn 0.00000 -1.00000 0.00000
vn 0.00000 -1.00000 0.00000
vn 0.00000 -1.00000 0.00000
vn 0.00000 1.00000 0.00000
vn 0.00000 1.00000 0.00000
vn 0.00000 1.00000 0.00000
vn 0.00000 -1.00000 0.00000
vn 0.00000 -1.00000 0.00000
vn 0.00000 -1.00000 0.00000
vn 0.80054 0.00000 0.59928
vn 0.80054 0.00000 0.59928
vn 0.80054 0.00000 0.59928
vn 0.80054 0.00000 0.59928
vn -0.77112 0.00000 -0.63669
vn -0.77112 0.00000 -0.63669
vn -0.77112 0.00000 -0.63669
vn -0.77112 0.00000 -0.63669
vn -0.77112 0.00000 -0.63669
vn -0.77112 0.00000 -0.63669
vn -0.77112 0.00000 -0.63669
vn -0.77112 0.00000 -0.63669
vn -0.77112 0.00000 -0.63669
vn -0.77112 0.00000 -0.63669
vn -0.77112 0.00000 -0.63669
vn -0.77112 0.00000 -0.63669
vn 0.77112 0.00000 0.63669
vn 0.77112 0.00000 0.63669
vn 0.77112 0.00000 0.63669
vn 0.77112 0.00000 0.63669
vn -0.73995 0.00000 -0.67266
vn -0.73995 0.00000 -0.67266
vn -0.73995 0.00000 -0.67266
vn -0.73995 0.00000 -0.67266
vn -0.73995 0.00000 -0.67266
vn -0.73995 0.00000 -0.67266
vn -0.73995 0.00000 -0.67266
vn -0.73995 0.00000 -0.67266
vn -0.73995 0.00000 -0.67266
vn -0.73995 0.00000 -0.67266
vn -0.73995 0.00000 -0.67266
vn -0.73995 0.00000 -0.67266
vn 0.73995 0.00000 0.67266
vn 0.73995 0.00000 0.67266
vn 0.73995 0.00000 0.67266
vn 0.73995 0.00000 0.67266
vn -0.71547 0.00000 -0.69864
vn -0.71547 0.00000 -0.69864
vn -0.71547 0.00000 -0.69864
vn -0.71547 0.00000 -0.69864
vn -0.71547 0.00000 -0.69864
vn -0.71547 0.00000 -0.69864
vn -0.71547 0.00000 -0.69864
vn -0.71547 0.00000 -0.69864
vn -0.71547 0.00000 -0.69864
vn -0.71547 0.00000 -0.69864
vn -0.71547 0.00000 -0.69864
vn -0.71547 0.00000 -0.69864
vn 0.71547 0.00000 0.69864
vn 0.71547 0.00000 0.69864
vn 0.71547 0.00000 0.69864
vn 0.71547 0.00000 0.69864
vn -0.69864 0.00000 -0.71547
vn -0.69864 0.00000 -0.71547
vn -0.69864 0.00000 -0.71547
vn -0.69864 0.00000 -0.71547
vn -0.69864 0.00000 -0.71547
vn -0.69864 0.00000 -0.71547
vn -0.69864 0.00000 -0.71547
vn -0.69864 0.00000 -0.71547
vn -0.69864 0.00000 -0.71547
vn -0.69864 0.00000 -0.71547
vn -0.69864 0.00000 -0.71547
vn -0.69864 0.00000 -0.71547
vn 0.69864 0.00000 0.71547
vn 0.69864 0.00000 0.71547
vn 0.69864 0.00000 0.71547
vn 0.69864 0.00000 0.71547
vn -0.67266 0.00000 -0.73995
vn -0.67266 0.00000 -0.73995
vn -0.67266 0.00000 -0.73995
vn -0.67266 0.00000 -0.73995
vn -0.67266 0.00000 -0.73995
vn -0.67266 0.00000 -0.73995
vn -0.67266 0.00000 -0.73995
vn -0.67266 0.00000 -0.73995
vn -0.67266 0.00000 -0.73995
vn -0.67266 0.00000 -0.73995
vn -0.67266 0.00000 -0.73995
vn -0.67266 0.00000 -0.73995
vn 0.67266 0.00000 0.73995
vn 0.67266 0.00000 0.73995
vn 0.67266 0.00000 0.73995
vn 0.67266 0.00000 0.73995
vn -0.63669 0.00000 -0.77112
vn -0.63669 0.00000 -0.77112
vn -0.63669 0.00000 -0.77112
vn -0.63669 0.00000 -0.77112
vn -0.63669 0.00000 -0.77112
vn -0.63669 0.00000 -0.77112
vn -0.63669 0.00000 -0.77112
vn -0.63669 0.00000 -0.77112
vn -0.63669 0.00000 -0.77112
vn -0.63669 0.00000 -0.77112
vn -0.63669 0.00000 -0.77112
vn -0.63669 0.00000 -0.77112
vn 0.63669 0.00000 0.77112
vn 0.63669 0.00000 0.77112
vn 0.63669 0.00000 0.77112
vn 0.63669 0.00000 0.77112
vn 0.59928 0.00000 0.80054
vn 0.59928 0.00000 0.80054
vn 0.59928 0.00000 0.80054
vn 0.59928 0.00000 0.80054
usemtl ceiling
f 10/10/10 11/11/11 12/12/12
f 34/34/34 35/35/35 36/36/36 37/37/37
f 38/38/38 39/39/39 40/40/40
f 53/53/53 54/54/54 55/55/55 56/56/56
f 69/69/69 70/70/70 71/71/71 72/72/72
f 85/85/85 86/86/86 87/87/87 88/88/88
f 101/101/101 102/102/102 103/103/103 104/104/104
f 117/117/117 118/118/118 119/119/119 120/120/120
f 242/242/242 243/243/243 244/244/244
f 257/257/257 258/258/258 259/259/259 260/260/260
f 273/273/273 274/274/274 275/275/275 276/276/276
f 298/298/298 299/299/299 300/300/300 301/301/301
f 302/302/302 303/303/303 304/304/304
f 317/317/317 318/318/318 319/319/319 320/320/320
f 342/342/342 343/343/343 344/344/344 345/345/345
f 346/346/346 347/347/347 348/348/348
f 361/361/361 362/362/362 363/363/363 364/364/364
f 377/377/377 378/378/378 379/379/379 380/380/380
f 390/390/390 391/391/391 392/392/392
f 409/409/409 410/410/410 411/411/411 412/412/412
f 422/422/422 423/423/423 424/424/424
f 458/458/458 459/459/459 460/460/460
f 482/482/482 483/483/483 484/484/484 485/485/485
f 486/486/486 487/487/487 488/488/488
f 501/501/501 502/502/502 503/503/503 504/504/504
f 517/517/517 518/518/518 519/519/519 520/520/520
f 533/533/533 534/534/534 535/535/535 536/536/536
f 549/549/549 550/550/550 551/551/551 552/552/552
f 574/574/574 575/575/575 576/576/576 577/577/577
f 578/578/578 579/579/579 580/580/580
f 590/590/590 591/591/591 592/592/592
usemtl floor
f 1/1/1 2/2/2 3/3/3
f 13/13/13 14/14/14 15/15/15 16/16/16
f 17/17/17 18/18/18 19/19/19
f 41/41/41 42/42/42 43/43/43 44/44/44
f 57/57/57 58/58/58 59/59/59 60/60/60
f 73/73/73 74/74/74 75/75/75 76/76/76
f 89/89/89 90/90/90 91/91/91 92/92/92
f 105/105/105 106/106/106 107/107/107 108/108/108
f 233/233/233 234/234/234 235/235/235
f 245/245/245 246/246/246 247/247/247 248/248/248
f 261/261/261 262/262/262 263/263/263 264/264/264
f 277/277/277 278/278/278 279/279/279 280/280/280
f 281/281/281 282/282/282 283/283/283
f 305/305/305 306/306/306 307/307/307 308/308/308
f 321/321/321 322/322/322 323/323/323 324/324/324
f 325/325/325 326/326/326 327/327/327
f 349/349/349 350/350/350 351/351/351 352/352/352
f 365/365/365 366/366/366 367/367/367 368/368/368
f 381/381/381 382/382/382 383/383/383
f 397/397/397 398/398/398 399/399/399 400/400/400
f 413/413/413 414/414/414 415/415/415
f 449/449/449 450/450/450 451/451/451
f 461/461/461 462/462/462 463/463/463 464/464/464
f 465/465/465 466/466/466 467/467/467
f 489/489/489 490/490/490 491/491/491 492/492/492
f 505/505/505 506/506/506 507/507/507 508/508/508
f 521/521/521 522/522/522 523/523/523 524/524/524
f 537/537/537 538/538/538 539/539/539 540/540/540
f 553/553/553 554/554/554 555/555/555 556/556/556
f 557/557/557 558/558/558 559/559/559
f 581/581/581 582/582/582 583/583/583
usemtl frame
f 125/125/125 126/126/126 127/127/127 128/128/128
f 129/129/129 130/130/130 131/131/131 132/132/132
f 141/141/141 142/142/142 143/143/143 144/144/144
f 145/145/145 146/146/146 147/147/147 148/148/148
f 157/157/157 158/158/158 159/159/159 160/160/160
f 161/161/161 162/162/162 163/163/163 164/164/164
f 173/173/173 174/174/174 175/175/175 176/176/176
f 177/177/177 178/178/178 179/179/179 180/180/180
f 189/189/189 190/190/190 191/191/191 192/192/192
f 193/193/193 194/194/194 195/195/195 196/196/196
f 205/205/205 206/206/206 207/207/207 208/208/208
f 209/209/209 210/210/210 211/211/211 212/212/212
f 221/221/221 222/222/222 223/223/223 224/224/224
f 225/225/225 226/226/226 227/227/227 228/228/228
f 429/429/429 430/430/430 431/431/431 432/432/432
f 433/433/433 434/434/434 435/435/435 436/436/436
f 441/441/441 442/442/442 443/443/443 444/444/444
f 445/445/445 446/446/446 447/447/447 448/448/448
f 601/601/601 602/602/602 603/603/603 604/604/604
f 605/605/605 606/606/606 607/607/607 608/608/608
f 617/617/617 618/618/618 619/619/619 620/620/620
f 621/621/621 622/622/622 623/623/623 624/624/624
f 633/633/633 634/634/634 635/635/635 636/636/636
f 637/637/637 638/638/638 639/639/639 640/640/640
f 649/649/649 650/650/650 651/651/651 652/652/652
f 653/653/653 654/654/654 655/655/655 656/656/656
f 665/665/665 666/666/666 667/667/667 668/668/668
f 669/669/669 670/670/670 671/671/671 672/672/672
f 681/681/681 682/682/682 683/683/683 684/684/684
f 685/685/685 686/686/686 687/687/687 688/688/688
usemtl inner
f 133/133/133 134/134/134 135/135/135 136/136/136
f 149/149/149 150/150/150 151/151/151 152/152/152
f 165/165/165 166/166/166 167/167/167 168/168/168
f 181/181/181 182/182/182 183/183/183 184/184/184
f 197/197/197 198/198/198 199/199/199 200/200/200
f 213/213/213 214/214/214 215/215/215 216/216/216
f 229/229/229 230/230/230 231/231/231 232/232/232
f 393/393/393 394/394/394 395/395/395 396/396/396
f 593/593/593 594/594/594 595/595/595 596/596/596
f 609/609/609 610/610/610 611/611/611 612/612/612
f 625/625/625 626/626/626 627/627/627 628/628/628
f 641/641/641 642/642/642 643/643/643 644/644/644
f 657/657/657 658/658/658 659/659/659 660/660/660
f 673/673/673 674/674/674 675/675/675 676/676/676
f 689/689/689 690/690/690 691/691/691 692/692/692
f 693/693/693 694/694/694 695/695/695 696/696/696
usemtl roof
f 7/7/7 8/8/8 9/9/9
f 27/27/27 28/28/28 29/29/29 30/30/30
f 31/31/31 32/32/32 33/33/33
f 49/49/49 50/50/50 51/51/51 52/52/52
f 65/65/65 66/66/66 67/67/67 68/68/68
f 81/81/81 82/82/82 83/83/83 84/84/84
f 97/97/97 98/98/98 99/99/99 100/100/100
f 113/113/113 114/114/114 115/115/115 116/116/116
f 239/239/239 240/240/240 241/241/241
f 253/253/253 254/254/254 255/255/255 256/256/256
f 269/269/269 270/270/270 271/271/271 272/272/272
f 291/291/291 292/292/292 293/293/293 294/294/294
f 295/295/295 296/296/296 297/297/297
f 313/313/313 314/314/314 315/315/315 316/316/316
f 335/335/335 336/336/336 337/337/337 338/338/338
f 339/339/339 340/340/340 341/341/341
f 357/357/357 358/358/358 359/359/359 360/360/360
f 373/373/373 374/374/374 375/375/375 376/376/376
f 387/387/387 388/388/388 389/389/389
f 405/405/405 406/406/406 407/407/407 408/408/408
f 419/419/419 420/420/420 421/421/421
f 455/455/455 456/456/456 457/457/457
f 475/475/475 476/476/476 477/477/477 478/478/478
f 479/479/479 480/480/480 481/481/481
f 497/497/497 498/498/498 499/499/499 500/500/500
f 513/513/513 514/514/514 515/515/515 516/516/516
f 529/529/529 530/530/530 531/531/531 532/532/532
f 545/545/545 546/546/546 547/547/547 548/548/548
f 567/567/567 568/568/568 569/569/569 570/570/570
f 571/571/571 572/572/572 573/573/573
f 587/587/587 588/588/588 589/589/589
usemtl skin
f 121/121/121 122/122/122 123/123/123 124/124/124
f 137/137/137 138/138/138 139/139/139 140/140/140
f 153/153/153 154/154/154 155/155/155 156/156/156
f 169/169/169 170/170/170 171/171/171 172/172/172
f 185/185/185 186/186/186 187/187/187 188/188/188
f 201/201/201 202/202/202 203/203/203 204/204/204
f 217/217/217 218/218/218 219/219/219 220/220/220
f 425/425/425 426/426/426 427/427/427 428/428/428
f 437/437/437 438/438/438 439/439/439 440/440/440
f 597/597/597 598/598/598 599/599/599 600/600/600
f 613/613/613 614/614/614 615/615/615 616/616/616
f 629/629/629 630/630/630 631/631/631 632/632/632
f 645/645/645 646/646/646 647/647/647 648/648/648
f 661/661/661 662/662/662 663/663/663 664/664/664
f 677/677/677 678/678/678 679/679/679 680/680/680
usemtl under
f 4/4/4 5/5/5 6/6/6
f 20/20/20 21/21/21 22/22/22 23/23/23
f 24/24/24 25/25/25 26/26/26
f 45/45/45 46/46/46 47/47/47 48/48/48
f 61/61/61 62/62/62 63/63/63 64/64/64
f 77/77/77 78/78/78 79/79/79 80/80/80
f 93/93/93 94/94/94 95/95/95 96/96/96
f 109/109/109 110/110/110 111/111/111 112/112/112
f 236/236/236 237/237/237 238/238/238
f 249/249/249 250/250/250 251/251/251 252/252/252
f 265/265/265 266/266/266 267/267/267 268/268/268
f 284/284/284 285/285/285 286/286/286 287/287/287
f 288/288/288 289/289/289 290/290/290
f 309/309/309 310/310/310 311/311/311 312/312/312
f 328/328/328 329/329/329 330/330/330 331/331/331
f 332/332/332 333/333/333 334/334/334
f 353/353/353 354/354/354 355/355/355 356/356/356
f 369/369/369 370/370/370 371/371/371 372/372/372
f 384/384/384 385/385/385 386/386/386
f 401/401/401 402/402/402 403/403/403 404/404/404
f 416/416/416 417/417/417 418/418/418
f 452/452/452 453/453/453 454/454/454
f 468/468/468 469/469/469 470/470/470 471/471/471
f 472/472/472 473/473/473 474/474/474
f 493/493/493 494/494/494 495/495/495 496/496/496
f 509/509/509 510/510/510 511/511/511 512/512/512
f 525/525/525 526/526/526 527/527/527 528/528/528
f 541/541/541 542/542/542 543/543/543 544/544/544
f 560/560/560 561/561/561 562/562/562 563/563/563
f 564/564/564 565/565/565 566/566/566
f 584/584/584 585/585/585 586/586/586
