# Generated by dev-env-utils/scripts/gen_transit_airside.py -- do not edit
mtllib jet_bridge_slope.mtl
o airport_jet_bridge_turn_c3
v 0.08663 0.09375 1.00000
v 0.00000 0.09375 0.81031
v 0.00000 0.09375 1.00000
v 0.00000 0.00000 1.00000
v 0.00000 0.00000 0.81031
v 0.08663 0.00000 1.00000
v 0.08663 1.97500 1.00000
v 0.00000 1.97500 0.81031
v 0.00000 1.97500 1.00000
v 0.00000 1.90625 1.00000
v 0.00000 1.90625 0.81031
v 0.08663 1.90625 1.00000
v 0.25404 0.09375 1.00000
v 0.00000 0.09375 0.31890
v 0.00000 0.09375 0.81031
v 0.08663 0.09375 1.00000
v 0.08663 0.00000 1.00000
v 0.00000 0.00000 0.81031
v 0.00000 0.00000 0.31890
v 0.25404 0.00000 1.00000
v 0.25404 1.97500 1.00000
v 0.00000 1.97500 0.31890
v 0.00000 1.97500 0.81031
v 0.08663 1.97500 1.00000
v 0.08663 1.90625 1.00000
v 0.00000 1.90625 0.81031
v 0.00000 1.90625 0.31890
v 0.25404 1.90625 1.00000
v 0.02524 0.09375 0.00000
v 0.00000 0.09375 0.00000
v 0.00000 0.09375 0.31890
v 0.25404 0.09375 1.00000
v 0.35016 0.09375 1.00000
v 0.02524 0.09375 0.00000
v 0.25404 0.09375 1.00000
v 0.25404 0.00000 1.00000
v 0.00000 0.00000 0.31890
v 0.00000 0.00000 0.00000
v 0.02524 0.00000 0.00000
v 0.25404 0.00000 1.00000
v 0.02524 0.00000 0.00000
v 0.35016 0.00000 1.00000
v 0.02524 1.97500 0.00000
v 0.00000 1.97500 0.00000
v 0.00000 1.97500 0.31890
v 0.25404 1.97500 1.00000
v 0.35016 1.97500 1.00000
v 0.02524 1.97500 0.00000
v 0.25404 1.97500 1.00000
v 0.25404 1.90625 1.00000
v 0.00000 1.90625 0.31890
v 0.00000 1.90625 0.00000
v 0.02524 1.90625 0.00000
v 0.25404 1.90625 1.00000
v 0.02524 1.90625 0.00000
v 0.35016 1.90625 1.00000
v 0.41275 0.09375 1.00000
v 0.11912 0.09375 0.00000
v 0.02524 0.09375 0.00000
v 0.35016 0.09375 1.00000
v 0.35016 0.00000 1.00000
v 0.02524 0.00000 0.00000
v 0.11912 0.00000 0.00000
v 0.41275 0.00000 1.00000
v 0.41275 1.97500 1.00000
v 0.11912 1.97500 0.00000
v 0.02524 1.97500 0.00000
v 0.35016 1.97500 1.00000
v 0.35016 1.90625 1.00000
v 0.02524 1.90625 0.00000
v 0.11912 1.90625 0.00000
v 0.41275 1.90625 1.00000
v 0.56493 0.09375 1.00000
v 0.34739 0.09375 0.00000
v 0.11912 0.09375 0.00000
v 0.41275 0.09375 1.00000
v 0.41275 0.00000 1.00000
v 0.11912 0.00000 0.00000
v 0.34739 0.00000 0.00000
v 0.56493 0.00000 1.00000
v 0.56493 1.97500 1.00000
v 0.34739 1.97500 0.00000
v 0.11912 1.97500 0.00000
v 0.41275 1.97500 1.00000
v 0.41275 1.90625 1.00000
v 0.11912 1.90625 0.00000
v 0.34739 1.90625 0.00000
v 0.56493 1.90625 1.00000
v 0.71244 0.09375 1.00000
v 0.56867 0.09375 0.00000
v 0.34739 0.09375 0.00000
v 0.56493 0.09375 1.00000
v 0.56493 0.00000 1.00000
v 0.34739 0.00000 0.00000
v 0.56867 0.00000 0.00000
v 0.71244 0.00000 1.00000
v 0.71244 1.97500 1.00000
v 0.56867 1.97500 0.00000
v 0.34739 1.97500 0.00000
v 0.56493 1.97500 1.00000
v 0.56493 1.90625 1.00000
v 0.34739 1.90625 0.00000
v 0.56867 1.90625 0.00000
v 0.71244 1.90625 1.00000
v 0.85696 0.09375 1.00000
v 0.78544 0.09375 0.00000
v 0.56867 0.09375 0.00000
v 0.71244 0.09375 1.00000
v 0.71244 0.00000 1.00000
v 0.56867 0.00000 0.00000
v 0.78544 0.00000 0.00000
v 0.85696 0.00000 1.00000
v 0.85696 1.97500 1.00000
v 0.78544 1.97500 0.00000
v 0.56867 1.97500 0.00000
v 0.71244 1.97500 1.00000
v 0.71244 1.90625 1.00000
v 0.56867 1.90625 0.00000
v 0.78544 1.90625 0.00000
v 0.85696 1.90625 1.00000
v 1.00000 0.09375 1.00000
v 1.00000 0.09375 0.00000
v 0.78544 0.09375 0.00000
v 0.85696 0.09375 1.00000
v 0.85696 0.00000 1.00000
v 0.78544 0.00000 0.00000
v 1.00000 0.00000 0.00000
v 1.00000 0.00000 1.00000
v 1.00000 1.97500 1.00000
v 1.00000 1.97500 0.00000
v 0.78544 1.97500 0.00000
v 0.85696 1.97500 1.00000
v 0.85696 1.90625 1.00000
v 0.78544 1.90625 0.00000
v 1.00000 1.90625 0.00000
v 1.00000 1.90625 1.00000
v 0.02524 0.09375 0.00000
v 0.00000 0.09375 -0.07768
v 0.00000 0.09375 0.00000
v 0.00000 0.00000 0.00000
v 0.00000 0.00000 -0.07768
v 0.02524 0.00000 0.00000
v 0.02524 1.97500 0.00000
v 0.00000 1.97500 -0.07768
v 0.00000 1.97500 0.00000
v 0.00000 1.90625 0.00000
v 0.00000 1.90625 -0.07768
v 0.02524 1.90625 0.00000
v 0.01394 0.09375 -0.35823
v 0.00000 0.09375 -0.35392
v 0.00000 0.09375 -0.07768
v 0.02524 0.09375 0.00000
v 0.11912 0.09375 0.00000
v 0.01394 0.09375 -0.35823
v 0.02524 0.09375 0.00000
v 0.02524 0.00000 0.00000
v 0.00000 0.00000 -0.07768
v 0.00000 0.00000 -0.35392
v 0.01394 0.00000 -0.35823
v 0.02524 0.00000 0.00000
v 0.01394 0.00000 -0.35823
v 0.11912 0.00000 0.00000
v 0.01394 1.97500 -0.35823
v 0.00000 1.97500 -0.35392
v 0.00000 1.97500 -0.07768
v 0.02524 1.97500 0.00000
v 0.11912 1.97500 0.00000
v 0.01394 1.97500 -0.35823
v 0.02524 1.97500 0.00000
v 0.02524 1.90625 0.00000
v 0.00000 1.90625 -0.07768
v 0.00000 1.90625 -0.35392
v 0.01394 1.90625 -0.35823
v 0.02524 1.90625 0.00000
v 0.01394 1.90625 -0.35823
v 0.11912 1.90625 0.00000
v 0.34739 0.09375 0.00000
v 0.25602 0.09375 -0.42001
v 0.01394 0.09375 -0.35823
v 0.11912 0.09375 0.00000
v 0.11912 0.00000 0.00000
v 0.01394 0.00000 -0.35823
v 0.25602 0.00000 -0.42001
v 0.34739 0.00000 0.00000
v 0.34739 1.97500 0.00000
v 0.25602 1.97500 -0.42001
v 0.01394 1.97500 -0.35823
v 0.11912 1.97500 0.00000
v 0.11912 1.90625 0.00000
v 0.01394 1.90625 -0.35823
v 0.25602 1.90625 -0.42001
v 0.34739 1.90625 0.00000
v 0.56867 0.09375 0.00000
v 0.50190 0.09375 -0.46438
v 0.25602 0.09375 -0.42001
v 0.34739 0.09375 0.00000
v 0.34739 0.00000 0.00000
v 0.25602 0.00000 -0.42001
v 0.50190 0.00000 -0.46438
v 0.56867 0.00000 0.00000
v 0.56867 1.97500 0.00000
v 0.50190 1.97500 -0.46438
v 0.25602 1.97500 -0.42001
v 0.34739 1.97500 0.00000
v 0.34739 1.90625 0.00000
v 0.25602 1.90625 -0.42001
v 0.50190 1.90625 -0.46438
v 0.56867 1.90625 0.00000
v 0.78544 0.09375 0.00000
v 0.75031 0.09375 -0.49108
v 0.50190 0.09375 -0.46438
v 0.56867 0.09375 0.00000
v 0.56867 0.00000 0.00000
v 0.50190 0.00000 -0.46438
v 0.75031 0.00000 -0.49108
v 0.78544 0.00000 0.00000
v 0.78544 1.97500 0.00000
v 0.75031 1.97500 -0.49108
v 0.50190 1.97500 -0.46438
v 0.56867 1.97500 0.00000
v 0.56867 1.90625 0.00000
v 0.50190 1.90625 -0.46438
v 0.75031 1.90625 -0.49108
v 0.78544 1.90625 0.00000
v 1.00000 0.09375 0.00000
v 1.00000 0.09375 -0.50000
v 0.75031 0.09375 -0.49108
v 0.78544 0.09375 0.00000
v 0.78544 0.00000 0.00000
v 0.75031 0.00000 -0.49108
v 1.00000 0.00000 -0.50000
v 1.00000 0.00000 0.00000
v 1.00000 1.97500 0.00000
v 1.00000 1.97500 -0.50000
v 0.75031 1.97500 -0.49108
v 0.78544 1.97500 0.00000
v 0.78544 1.90625 0.00000
v 0.75031 1.90625 -0.49108
v 1.00000 1.90625 -0.50000
v 1.00000 1.90625 0.00000
v 0.00000 1.90625 -0.35392
v 0.01394 1.90625 -0.35823
v 0.01394 0.09375 -0.35823
v 0.00000 0.09375 -0.35392
v 0.00000 0.09375 -0.35392
v 0.01394 0.09375 -0.35823
v 0.01394 0.00000 -0.35823
v 0.00000 0.00000 -0.35392
v 0.00000 1.97500 -0.35392
v 0.01394 1.97500 -0.35823
v 0.01394 1.90625 -0.35823
v 0.00000 1.90625 -0.35392
v 0.00000 0.09375 -0.25580
v 0.04035 0.09375 -0.26827
v 0.04035 1.90625 -0.26827
v 0.00000 1.90625 -0.25580
v 0.25602 1.90625 -0.42001
v 0.25602 0.09375 -0.42001
v 0.01394 0.09375 -0.35823
v 0.01394 1.90625 -0.35823
v 0.25602 0.09375 -0.42001
v 0.25602 0.00000 -0.42001
v 0.01394 0.00000 -0.35823
v 0.01394 0.09375 -0.35823
v 0.25602 1.97500 -0.42001
v 0.25602 1.90625 -0.42001
v 0.01394 1.90625 -0.35823
v 0.01394 1.97500 -0.35823
v 0.04035 1.90625 -0.26827
v 0.04035 0.09375 -0.26827
v 0.27595 0.09375 -0.32841
v 0.27595 1.90625 -0.32841
v 0.50190 1.90625 -0.46438
v 0.50190 0.09375 -0.46438
v 0.25602 0.09375 -0.42001
v 0.25602 1.90625 -0.42001
v 0.50190 0.09375 -0.46438
v 0.50190 0.00000 -0.46438
v 0.25602 0.00000 -0.42001
v 0.25602 0.09375 -0.42001
v 0.50190 1.97500 -0.46438
v 0.50190 1.90625 -0.46438
v 0.25602 1.90625 -0.42001
v 0.25602 1.97500 -0.42001
v 0.27595 1.90625 -0.32841
v 0.27595 0.09375 -0.32841
v 0.51524 0.09375 -0.37158
v 0.51524 1.90625 -0.37158
v 0.75031 1.90625 -0.49108
v 0.75031 0.09375 -0.49108
v 0.50190 0.09375 -0.46438
v 0.50190 1.90625 -0.46438
v 0.75031 0.09375 -0.49108
v 0.75031 0.00000 -0.49108
v 0.50190 0.00000 -0.46438
v 0.50190 0.09375 -0.46438
v 0.75031 1.97500 -0.49108
v 0.75031 1.90625 -0.49108
v 0.50190 1.90625 -0.46438
v 0.50190 1.97500 -0.46438
v 0.51524 1.90625 -0.37158
v 0.51524 0.09375 -0.37158
v 0.75700 0.09375 -0.39757
v 0.75700 1.90625 -0.39757
v 1.00000 1.90625 -0.50000
v 1.00000 0.09375 -0.50000
v 0.75031 0.09375 -0.49108
v 0.75031 1.90625 -0.49108
v 1.00000 0.09375 -0.50000
v 1.00000 0.00000 -0.50000
v 0.75031 0.00000 -0.49108
v 0.75031 0.09375 -0.49108
v 1.00000 1.97500 -0.50000
v 1.00000 1.90625 -0.50000
v 0.75031 1.90625 -0.49108
v 0.75031 1.97500 -0.49108
v 0.75700 1.90625 -0.39757
v 0.75700 0.09375 -0.39757
v 1.00000 0.09375 -0.40625
v 1.00000 1.90625 -0.40625
vt 0.52166 0.75000
vt 0.50000 0.70258
vt 0.50000 0.75000
vt 0.50000 0.75000
vt 0.50000 0.70258
vt 0.52166 0.75000
vt 0.52166 0.75000
vt 0.50000 0.70258
vt 0.50000 0.75000
vt 0.18402 0.19197
vt 0.22681 0.21400
vt 0.17467 0.21400
vt 0.56351 0.75000
vt 0.50000 0.57972
vt 0.50000 0.70258
vt 0.52166 0.75000
vt 0.52166 0.75000
vt 0.50000 0.70258
vt 0.50000 0.57972
vt 0.56351 0.75000
vt 0.56351 0.75000
vt 0.50000 0.57972
vt 0.50000 0.70258
vt 0.52166 0.75000
vt 0.17467 0.21400
vt 0.22681 0.21400
vt 0.34038 0.25862
vt 0.15865 0.25862
vt 0.50631 0.50000
vt 0.50000 0.50000
vt 0.50000 0.57972
vt 0.56351 0.75000
vt 0.58754 0.75000
vt 0.50631 0.50000
vt 0.56351 0.75000
vt 0.56351 0.75000
vt 0.50000 0.57972
vt 0.50000 0.50000
vt 0.50631 0.50000
vt 0.56351 0.75000
vt 0.50631 0.50000
vt 0.58754 0.75000
vt 0.50631 0.50000
vt 0.50000 0.50000
vt 0.50000 0.57972
vt 0.56351 0.75000
vt 0.58754 0.75000
vt 0.50631 0.50000
vt 0.56351 0.75000
vt 0.15865 0.25862
vt 0.34038 0.25862
vt 0.41557 0.28065
vt 0.41360 0.28540
vt 0.15865 0.25862
vt 0.41360 0.28540
vt 0.15073 0.28540
vt 0.60319 0.75000
vt 0.52978 0.50000
vt 0.50631 0.50000
vt 0.58754 0.75000
vt 0.58754 0.75000
vt 0.50631 0.50000
vt 0.52978 0.50000
vt 0.60319 0.75000
vt 0.60319 0.75000
vt 0.52978 0.50000
vt 0.50631 0.50000
vt 0.58754 0.75000
vt 0.15073 0.28540
vt 0.41360 0.28540
vt 0.40666 0.30325
vt 0.14611 0.30325
vt 0.64123 0.75000
vt 0.58685 0.50000
vt 0.52978 0.50000
vt 0.60319 0.75000
vt 0.60319 0.75000
vt 0.52978 0.50000
vt 0.58685 0.50000
vt 0.64123 0.75000
vt 0.64123 0.75000
vt 0.58685 0.50000
vt 0.52978 0.50000
vt 0.60319 0.75000
vt 0.14611 0.30325
vt 0.40666 0.30325
vt 0.39254 0.34787
vt 0.13669 0.34787
vt 0.67811 0.75000
vt 0.64217 0.50000
vt 0.58685 0.50000
vt 0.64123 0.75000
vt 0.64123 0.75000
vt 0.58685 0.50000
vt 0.64217 0.50000
vt 0.67811 0.75000
vt 0.67811 0.75000
vt 0.64217 0.50000
vt 0.58685 0.50000
vt 0.64123 0.75000
vt 0.13669 0.34787
vt 0.39254 0.34787
vt 0.38271 0.39250
vt 0.13014 0.39250
vt 0.71424 0.75000
vt 0.69636 0.50000
vt 0.64217 0.50000
vt 0.67811 0.75000
vt 0.67811 0.75000
vt 0.64217 0.50000
vt 0.69636 0.50000
vt 0.71424 0.75000
vt 0.71424 0.75000
vt 0.69636 0.50000
vt 0.64217 0.50000
vt 0.67811 0.75000
vt 0.13014 0.39250
vt 0.38271 0.39250
vt 0.37692 0.43712
vt 0.12628 0.43712
vt 0.75000 0.75000
vt 0.75000 0.50000
vt 0.69636 0.50000
vt 0.71424 0.75000
vt 0.71424 0.75000
vt 0.69636 0.50000
vt 0.75000 0.50000
vt 0.75000 0.75000
vt 0.75000 0.75000
vt 0.75000 0.50000
vt 0.69636 0.50000
vt 0.71424 0.75000
vt 0.12628 0.43712
vt 0.37692 0.43712
vt 0.37500 0.48175
vt 0.12500 0.48175
vt 0.50631 0.50000
vt 0.50000 0.48058
vt 0.50000 0.50000
vt 0.50000 0.50000
vt 0.50000 0.48058
vt 0.50631 0.50000
vt 0.50631 0.50000
vt 0.50000 0.48058
vt 0.50000 0.50000
vt 0.41557 0.28065
vt 0.43402 0.28540
vt 0.41360 0.28540
vt 0.50348 0.41044
vt 0.50000 0.41152
vt 0.50000 0.48058
vt 0.50631 0.50000
vt 0.52978 0.50000
vt 0.50348 0.41044
vt 0.50631 0.50000
vt 0.50631 0.50000
vt 0.50000 0.48058
vt 0.50000 0.41152
vt 0.50348 0.41044
vt 0.50631 0.50000
vt 0.50348 0.41044
vt 0.52978 0.50000
vt 0.50348 0.41044
vt 0.50000 0.41152
vt 0.50000 0.48058
vt 0.50631 0.50000
vt 0.52978 0.50000
vt 0.50348 0.41044
vt 0.50631 0.50000
vt 0.41360 0.28540
vt 0.43402 0.28540
vt 0.49996 0.30064
vt 0.50000 0.30325
vt 0.41360 0.28540
vt 0.50000 0.30325
vt 0.40666 0.30325
vt 0.58685 0.50000
vt 0.56401 0.39500
vt 0.50348 0.41044
vt 0.52978 0.50000
vt 0.52978 0.50000
vt 0.50348 0.41044
vt 0.56401 0.39500
vt 0.58685 0.50000
vt 0.58685 0.50000
vt 0.56401 0.39500
vt 0.50348 0.41044
vt 0.52978 0.50000
vt 0.40666 0.30325
vt 0.50000 0.30325
vt 0.50000 0.34787
vt 0.39254 0.34787
vt 0.64217 0.50000
vt 0.62547 0.38391
vt 0.56401 0.39500
vt 0.58685 0.50000
vt 0.58685 0.50000
vt 0.56401 0.39500
vt 0.62547 0.38391
vt 0.64217 0.50000
vt 0.64217 0.50000
vt 0.62547 0.38391
vt 0.56401 0.39500
vt 0.58685 0.50000
vt 0.39254 0.34787
vt 0.50000 0.34787
vt 0.50000 0.39250
vt 0.38271 0.39250
vt 0.69636 0.50000
vt 0.68758 0.37723
vt 0.62547 0.38391
vt 0.64217 0.50000
vt 0.64217 0.50000
vt 0.62547 0.38391
vt 0.68758 0.37723
vt 0.69636 0.50000
vt 0.69636 0.50000
vt 0.68758 0.37723
vt 0.62547 0.38391
vt 0.64217 0.50000
vt 0.38271 0.39250
vt 0.50000 0.39250
vt 0.50000 0.43712
vt 0.37692 0.43712
vt 0.75000 0.50000
vt 0.75000 0.37500
vt 0.68758 0.37723
vt 0.69636 0.50000
vt 0.69636 0.50000
vt 0.68758 0.37723
vt 0.75000 0.37500
vt 0.75000 0.50000
vt 0.75000 0.50000
vt 0.75000 0.37500
vt 0.68758 0.37723
vt 0.69636 0.50000
vt 0.37692 0.43712
vt 0.50000 0.43712
vt 0.50000 0.48175
vt 0.37500 0.48175
vt 0.03883 0.00000
vt 0.04546 0.00000
vt 0.04546 0.90625
vt 0.03883 0.90625
vt 0.07765 0.00000
vt 0.09092 0.00000
vt 0.09092 0.09375
vt 0.07765 0.09375
vt 0.07765 0.00000
vt 0.09092 0.00000
vt 0.09092 0.09375
vt 0.07765 0.09375
vt 0.02572 0.90625
vt 0.04546 0.90625
vt 0.04546 0.00000
vt 0.02572 0.00000
vt 0.15910 0.00000
vt 0.15910 0.90625
vt 0.04546 0.90625
vt 0.04546 0.00000
vt 0.31819 0.00000
vt 0.31819 0.09375
vt 0.09092 0.09375
vt 0.09092 0.00000
vt 0.31819 0.00000
vt 0.31819 0.09375
vt 0.09092 0.09375
vt 0.09092 0.00000
vt 0.04546 0.00000
vt 0.04546 0.90625
vt 0.15910 0.90625
vt 0.15910 0.00000
vt 0.27273 0.00000
vt 0.27273 0.90625
vt 0.15910 0.90625
vt 0.15910 0.00000
vt 0.54546 0.00000
vt 0.54546 0.09375
vt 0.31819 0.09375
vt 0.31819 0.00000
vt 0.54546 0.00000
vt 0.54546 0.09375
vt 0.31819 0.09375
vt 0.31819 0.00000
vt 0.15910 0.00000
vt 0.15910 0.90625
vt 0.27273 0.90625
vt 0.27273 0.00000
vt 0.38637 0.00000
vt 0.38637 0.90625
vt 0.27273 0.90625
vt 0.27273 0.00000
vt 0.77273 0.00000
vt 0.77273 0.09375
vt 0.54546 0.09375
vt 0.54546 0.00000
vt 0.77273 0.00000
vt 0.77273 0.09375
vt 0.54546 0.09375
vt 0.54546 0.00000
vt 0.27273 0.00000
vt 0.27273 0.90625
vt 0.38637 0.90625
vt 0.38637 0.00000
vt 0.50000 0.00000
vt 0.50000 0.90625
vt 0.38637 0.90625
vt 0.38637 0.00000
vt 1.00000 0.00000
vt 1.00000 0.09375
vt 0.77273 0.09375
vt 0.77273 0.00000
vt 1.00000 0.00000
vt 1.00000 0.09375
vt 0.77273 0.09375
vt 0.77273 0.00000
vt 0.38637 0.00000
vt 0.38637 0.90625
vt 0.50000 0.90625
vt 0.50000 0.00000
vn 0.00000 1.00000 0.00000
vn 0.00000 1.00000 0.00000
vn 0.00000 1.00000 0.00000
vn 0.00000 -1.00000 0.00000
vn 0.00000 -1.00000 0.00000
vn 0.00000 -1.00000 0.00000
vn 0.00000 1.00000 0.00000
vn 0.00000 1.00000 0.00000
vn 0.00000 1.00000 0.00000
vn 0.00000 -1.00000 0.00000
vn 0.00000 -1.00000 0.00000
vn 0.00000 -1.00000 0.00000
vn 0.00000 1.00000 0.00000
vn 0.00000 1.00000 0.00000
vn 0.00000 1.00000 0.00000
vn 0.00000 1.00000 0.00000
vn 0.00000 -1.00000 0.00000
vn 0.00000 -1.00000 0.00000
vn 0.00000 -1.00000 0.00000
vn 0.00000 -1.00000 0.00000
vn 0.00000 1.00000 0.00000
vn 0.00000 1.00000 0.00000
vn 0.00000 1.00000 0.00000
vn 0.00000 1.00000 0.00000
vn 0.00000 -1.00000 0.00000
vn 0.00000 -1.00000 0.00000
vn 0.00000 -1.00000 0.00000
vn 0.00000 -1.00000 0.00000
vn 0.00000 1.00000 0.00000
vn 0.00000 1.00000 0.00000
vn 0.00000 1.00000 0.00000
vn 0.00000 1.00000 0.00000
vn 0.00000 1.00000 0.00000
vn 0.00000 1.00000 0.00000
vn 0.00000 1.00000 0.00000
vn 0.00000 -1.00000 0.00000
vn 0.00000 -1.00000 0.00000
vn 0.00000 -1.00000 0.00000
vn 0.00000 -1.00000 0.00000
vn 0.00000 -1.00000 0.00000
vn 0.00000 -1.00000 0.00000
vn 0.00000 -1.00000 0.00000
vn 0.00000 1.00000 0.00000
vn 0.00000 1.00000 0.00000
vn 0.00000 1.00000 0.00000
vn 0.00000 1.00000 0.00000
vn 0.00000 1.00000 0.00000
vn 0.00000 1.00000 0.00000
vn 0.00000 1.00000 0.00000
vn 0.00000 -1.00000 0.00000
vn 0.00000 -1.00000 0.00000
vn 0.00000 -1.00000 0.00000
vn 0.00000 -1.00000 0.00000
vn 0.00000 -1.00000 0.00000
vn 0.00000 -1.00000 0.00000
vn 0.00000 -1.00000 0.00000
vn 0.00000 1.00000 0.00000
vn 0.00000 1.00000 0.00000
vn 0.00000 1.00000 0.00000
vn 0.00000 1.00000 0.00000
vn 0.00000 -1.00000 0.00000
vn 0.00000 -1.00000 0.00000
vn 0.00000 -1.00000 0.00000
vn 0.00000 -1.00000 0.00000
vn 0.00000 1.00000 0.00000
vn 0.00000 1.00000 0.00000
vn 0.00000 1.00000 0.00000
vn 0.00000 1.00000 0.00000
vn 0.00000 -1.00000 0.00000
vn 0.00000 -1.00000 0.00000
vn 0.00000 -1.00000 0.00000
vn 0.00000 -1.00000 0.00000
vn 0.00000 1.00000 0.00000
vn 0.00000 1.00000 0.00000
vn 0.00000 1.00000 0.00000
vn 0.00000 1.00000 0.00000
vn 0.00000 -1.00000 0.00000
vn 0.00000 -1.00000 0.00000
vn 0.00000 -1.00000 0.00000
vn 0.00000 -1.00000 0.00000
vn 0.00000 1.00000 0.00000
vn 0.00000 1.00000 0.00000
vn 0.00000 1.00000 0.00000
vn 0.00000 1.00000 0.00000
vn 0.00000 -1.00000 0.00000
vn 0.00000 -1.00000 0.00000
vn 0.00000 -1.00000 0.00000
vn 0.00000 -1.00000 0.00000
vn 0.00000 1.00000 0.00000
vn 0.00000 1.00000 0.00000
vn 0.00000 1.00000 0.00000
vn 0.00000 1.00000 0.00000
vn 0.00000 -1.00000 0.00000
vn 0.00000 -1.00000 0.00000
vn 0.00000 -1.00000 0.00000
vn 0.00000 -1.00000 0.00000
vn 0.00000 1.00000 0.00000
vn 0.00000 1.00000 0.00000
vn 0.00000 1.00000 0.00000
vn 0.00000 1.00000 0.00000
vn 0.00000 -1.00000 0.00000
vn 0.00000 -1.00000 0.00000
vn 0.00000 -1.00000 0.00000
vn 0.00000 -1.00000 0.00000
vn 0.00000 1.00000 0.00000
vn 0.00000 1.00000 0.00000
vn 0.00000 1.00000 0.00000
vn 0.00000 1.00000 0.00000
vn 0.00000 -1.00000 0.00000
vn 0.00000 -1.00000 0.00000
vn 0.00000 -1.00000 0.00000
vn 0.00000 -1.00000 0.00000
vn 0.00000 1.00000 0.00000
vn 0.00000 1.00000 0.00000
vn 0.00000 1.00000 0.00000
vn 0.00000 1.00000 0.00000
vn 0.00000 -1.00000 0.00000
vn 0.00000 -1.00000 0.00000
vn 0.00000 -1.00000 0.00000
vn 0.00000 -1.00000 0.00000
vn 0.00000 1.00000 0.00000
vn 0.00000 1.00000 0.00000
vn 0.00000 1.00000 0.00000
vn 0.00000 1.00000 0.00000
vn 0.00000 -1.00000 0.00000
vn 0.00000 -1.00000 0.00000
vn 0.00000 -1.00000 0.00000
vn 0.00000 -1.00000 0.00000
vn 0.00000 1.00000 0.00000
vn 0.00000 1.00000 0.00000
vn 0.00000 1.00000 0.00000
vn 0.00000 1.00000 0.00000
vn 0.00000 -1.00000 0.00000
vn 0.00000 -1.00000 0.00000
vn 0.00000 -1.00000 0.00000
vn 0.00000 -1.00000 0.00000
vn 0.00000 1.00000 0.00000
vn 0.00000 1.00000 0.00000
vn 0.00000 1.00000 0.00000
vn 0.00000 -1.00000 0.00000
vn 0.00000 -1.00000 0.00000
vn 0.00000 -1.00000 0.00000
vn 0.00000 1.00000 0.00000
vn 0.00000 1.00000 0.00000
vn 0.00000 1.00000 0.00000
vn 0.00000 -1.00000 0.00000
vn 0.00000 -1.00000 0.00000
vn 0.00000 -1.00000 0.00000
vn 0.00000 1.00000 0.00000
vn 0.00000 1.00000 0.00000
vn 0.00000 1.00000 0.00000
vn 0.00000 1.00000 0.00000
vn 0.00000 1.00000 0.00000
vn 0.00000 1.00000 0.00000
vn 0.00000 1.00000 0.00000
vn 0.00000 -1.00000 0.00000
vn 0.00000 -1.00000 0.00000
vn 0.00000 -1.00000 0.00000
vn 0.00000 -1.00000 0.00000
vn 0.00000 -1.00000 0.00000
vn 0.00000 -1.00000 0.00000
vn 0.00000 -1.00000 0.00000
vn 0.00000 1.00000 0.00000
vn 0.00000 1.00000 0.00000
vn 0.00000 1.00000 0.00000
vn 0.00000 1.00000 0.00000
vn 0.00000 1.00000 0.00000
vn 0.00000 1.00000 0.00000
vn 0.00000 1.00000 0.00000
vn 0.00000 -1.00000 0.00000
vn 0.00000 -1.00000 0.00000
vn 0.00000 -1.00000 0.00000
vn 0.00000 -1.00000 0.00000
vn 0.00000 -1.00000 0.00000
vn 0.00000 -1.00000 0.00000
vn 0.00000 -1.00000 0.00000
vn 0.00000 1.00000 0.00000
vn 0.00000 1.00000 0.00000
vn 0.00000 1.00000 0.00000
vn 0.00000 1.00000 0.00000
vn 0.00000 -1.00000 0.00000
vn 0.00000 -1.00000 0.00000
vn 0.00000 -1.00000 0.00000
vn 0.00000 -1.00000 0.00000
vn 0.00000 1.00000 0.00000
vn 0.00000 1.00000 0.00000
vn 0.00000 1.00000 0.00000
vn 0.00000 1.00000 0.00000
vn 0.00000 -1.00000 0.00000
vn 0.00000 -1.00000 0.00000
vn 0.00000 -1.00000 0.00000
vn 0.00000 -1.00000 0.00000
vn 0.00000 1.00000 0.00000
vn 0.00000 1.00000 0.00000
vn 0.00000 1.00000 0.00000
vn 0.00000 1.00000 0.00000
vn 0.00000 -1.00000 0.00000
vn 0.00000 -1.00000 0.00000
vn 0.00000 -1.00000 0.00000
vn 0.00000 -1.00000 0.00000
vn 0.00000 1.00000 0.00000
vn 0.00000 1.00000 0.00000
vn 0.00000 1.00000 0.00000
vn 0.00000 1.00000 0.00000
vn 0.00000 -1.00000 0.00000
vn 0.00000 -1.00000 0.00000
vn 0.00000 -1.00000 0.00000
vn 0.00000 -1.00000 0.00000
vn 0.00000 1.00000 0.00000
vn 0.00000 1.00000 0.00000
vn 0.00000 1.00000 0.00000
vn 0.00000 1.00000 0.00000
vn 0.00000 -1.00000 0.00000
vn 0.00000 -1.00000 0.00000
vn 0.00000 -1.00000 0.00000
vn 0.00000 -1.00000 0.00000
vn 0.00000 1.00000 0.00000
vn 0.00000 1.00000 0.00000
vn 0.00000 1.00000 0.00000
vn 0.00000 1.00000 0.00000
vn 0.00000 -1.00000 0.00000
vn 0.00000 -1.00000 0.00000
vn 0.00000 -1.00000 0.00000
vn 0.00000 -1.00000 0.00000
vn 0.00000 1.00000 0.00000
vn 0.00000 1.00000 0.00000
vn 0.00000 1.00000 0.00000
vn 0.00000 1.00000 0.00000
vn 0.00000 -1.00000 0.00000
vn 0.00000 -1.00000 0.00000
vn 0.00000 -1.00000 0.00000
vn 0.00000 -1.00000 0.00000
vn 0.00000 1.00000 0.00000
vn 0.00000 1.00000 0.00000
vn 0.00000 1.00000 0.00000
vn 0.00000 1.00000 0.00000
vn 0.00000 -1.00000 0.00000
vn 0.00000 -1.00000 0.00000
vn 0.00000 -1.00000 0.00000
vn 0.00000 -1.00000 0.00000
vn -0.29540 0.00000 -0.95537
vn -0.29540 0.00000 -0.95537
vn -0.29540 0.00000 -0.95537
vn -0.29540 0.00000 -0.95537
vn -0.29540 0.00000 -0.95537
vn -0.29540 0.00000 -0.95537
vn -0.29540 0.00000 -0.95537
vn -0.29540 0.00000 -0.95537
vn -0.29540 0.00000 -0.95537
vn -0.29540 0.00000 -0.95537
vn -0.29540 0.00000 -0.95537
vn -0.29540 0.00000 -0.95537
vn 0.29540 0.00000 0.95537
vn 0.29540 0.00000 0.95537
vn 0.29540 0.00000 0.95537
vn 0.29540 0.00000 0.95537
vn -0.24731 0.00000 -0.96894
vn -0.24731 0.00000 -0.96894
vn -0.24731 0.00000 -0.96894
vn -0.24731 0.00000 -0.96894
vn -0.24731 0.00000 -0.96894
vn -0.24731 0.00000 -0.96894
vn -0.24731 0.00000 -0.96894
vn -0.24731 0.00000 -0.96894
vn -0.24731 0.00000 -0.96894
vn -0.24731 0.00000 -0.96894
vn -0.24731 0.00000 -0.96894
vn -0.24731 0.00000 -0.96894
vn 0.24731 0.00000 0.96894
vn 0.24731 0.00000 0.96894
vn 0.24731 0.00000 0.96894
vn 0.24731 0.00000 0.96894
vn -0.17755 0.00000 -0.98411
vn -0.17755 0.00000 -0.98411
vn -0.17755 0.00000 -0.98411
vn -0.17755 0.00000 -0.98411
vn -0.17755 0.00000 -0.98411
vn -0.17755 0.00000 -0.98411
vn -0.17755 0.00000 -0.98411
vn -0.17755 0.00000 -0.98411
vn -0.17755 0.00000 -0.98411
vn -0.17755 0.00000 -0.98411
vn -0.17755 0.00000 -0.98411
vn -0.17755 0.00000 -0.98411
vn 0.17755 0.00000 0.98411
vn 0.17755 0.00000 0.98411
vn 0.17755 0.00000 0.98411
vn 0.17755 0.00000 0.98411
vn -0.10690 0.00000 -0.99427
vn -0.10690 0.00000 -0.99427
vn -0.10690 0.00000 -0.99427
vn -0.10690 0.00000 -0.99427
vn -0.10690 0.00000 -0.99427
vn -0.10690 0.00000 -0.99427
vn -0.10690 0.00000 -0.99427
vn -0.10690 0.00000 -0.99427
vn -0.10690 0.00000 -0.99427
vn -0.10690 0.00000 -0.99427
vn -0.10690 0.00000 -0.99427
vn -0.10690 0.00000 -0.99427
vn 0.10690 0.00000 0.99427
vn 0.10690 0.00000 0.99427
vn 0.10690 0.00000 0.99427
vn 0.10690 0.00000 0.99427
vn -0.03569 0.00000 -0.99936
vn -0.03569 0.00000 -0.99936
vn -0.03569 0.00000 -0.99936
vn -0.03569 0.00000 -0.99936
vn -0.03569 0.00000 -0.99936
vn -0.03569 0.00000 -0.99936
vn -0.03569 0.00000 -0.99936
vn -0.03569 0.00000 -0.99936
vn -0.03569 0.00000 -0.99936
vn -0.03569 0.00000 -0.99936
vn -0.03569 0.00000 -0.99936
vn -0.03569 0.00000 -0.99936
vn 0.03569 0.00000 0.99936
vn 0.03569 0.00000 0.99936
vn 0.03569 0.00000 0.99936
vn 0.03569 0.00000 0.99936
usemtl ceiling
f 10/10/10 11/11/11 12/12/12
f 25/25/25 26/26/26 27/27/27 28/28/28
f 50/50/50 51/51/51 52/52/52 53/53/53
f 54/54/54 55/55/55 56/56/56
f 69/69/69 70/70/70 71/71/71 72/72/72
f 85/85/85 86/86/86 87/87/87 88/88/88
f 101/101/101 102/102/102 103/103/103 104/104/104
f 117/117/117 118/118/118 119/119/119 120/120/120
f 133/133/133 134/134/134 135/135/135 136/136/136
f 146/146/146 147/147/147 148/148/148
f 170/170/170 171/171/171 172/172/172 173/173/173
f 174/174/174 175/175/175 176/176/176
f 189/189/189 190/190/190 191/191/191 192/192/192
f 205/205/205 206/206/206 207/207/207 208/208/208
f 221/221/221 222/222/222 223/223/223 224/224/224
f 237/237/237 238/238/238 239/239/239 240/240/240
usemtl floor
f 1/1/1 2/2/2 3/3/3
f 13/13/13 14/14/14 15/15/15 16/16/16
f 29/29/29 30/30/30 31/31/31 32/32/32
f 33/33/33 34/34/34 35/35/35
f 57/57/57 58/58/58 59/59/59 60/60/60
f 73/73/73 74/74/74 75/75/75 76/76/76
f 89/89/89 90/90/90 91/91/91 92/92/92
f 105/105/105 106/106/106 107/107/107 108/108/108
f 121/121/121 122/122/122 123/123/123 124/124/124
f 137/137/137 138/138/138 139/139/139
f 149/149/149 150/150/150 151/151/151 152/152/152
f 153/153/153 154/154/154 155/155/155
f 177/177/177 178/178/178 179/179/179 180/180/180
f 193/193/193 194/194/194 195/195/195 196/196/196
f 209/209/209 210/210/210 211/211/211 212/212/212
f 225/225/225 226/226/226 227/227/227 228/228/228
usemtl frame
f 245/245/245 246/246/246 247/247/247 248/248/248
f 249/249/249 250/250/250 251/251/251 252/252/252
f 261/261/261 262/262/262 263/263/263 264/264/264
f 265/265/265 266/266/266 267/267/267 268/268/268
f 277/277/277 278/278/278 279/279/279 280/280/280
f 281/281/281 282/282/282 283/283/283 284/284/284
f 293/293/293 294/294/294 295/295/295 296/296/296
f 297/297/297 298/298/298 299/299/299 300/300/300
f 309/309/309 310/310/310 311/311/311 312/312/312
f 313/313/313 314/314/314 315/315/315 316/316/316
usemtl inner
f 253/253/253 254/254/254 255/255/255 256/256/256
f 269/269/269 270/270/270 271/271/271 272/272/272
f 285/285/285 286/286/286 287/287/287 288/288/288
f 301/301/301 302/302/302 303/303/303 304/304/304
f 317/317/317 318/318/318 319/319/319 320/320/320
usemtl roof
f 7/7/7 8/8/8 9/9/9
f 21/21/21 22/22/22 23/23/23 24/24/24
f 43/43/43 44/44/44 45/45/45 46/46/46
f 47/47/47 48/48/48 49/49/49
f 65/65/65 66/66/66 67/67/67 68/68/68
f 81/81/81 82/82/82 83/83/83 84/84/84
f 97/97/97 98/98/98 99/99/99 100/100/100
f 113/113/113 114/114/114 115/115/115 116/116/116
f 129/129/129 130/130/130 131/131/131 132/132/132
f 143/143/143 144/144/144 145/145/145
f 163/163/163 164/164/164 165/165/165 166/166/166
f 167/167/167 168/168/168 169/169/169
f 185/185/185 186/186/186 187/187/187 188/188/188
f 201/201/201 202/202/202 203/203/203 204/204/204
f 217/217/217 218/218/218 219/219/219 220/220/220
f 233/233/233 234/234/234 235/235/235 236/236/236
usemtl skin
f 241/241/241 242/242/242 243/243/243 244/244/244
f 257/257/257 258/258/258 259/259/259 260/260/260
f 273/273/273 274/274/274 275/275/275 276/276/276
f 289/289/289 290/290/290 291/291/291 292/292/292
f 305/305/305 306/306/306 307/307/307 308/308/308
usemtl under
f 4/4/4 5/5/5 6/6/6
f 17/17/17 18/18/18 19/19/19 20/20/20
f 36/36/36 37/37/37 38/38/38 39/39/39
f 40/40/40 41/41/41 42/42/42
f 61/61/61 62/62/62 63/63/63 64/64/64
f 77/77/77 78/78/78 79/79/79 80/80/80
f 93/93/93 94/94/94 95/95/95 96/96/96
f 109/109/109 110/110/110 111/111/111 112/112/112
f 125/125/125 126/126/126 127/127/127 128/128/128
f 140/140/140 141/141/141 142/142/142
f 156/156/156 157/157/157 158/158/158 159/159/159
f 160/160/160 161/161/161 162/162/162
f 181/181/181 182/182/182 183/183/183 184/184/184
f 197/197/197 198/198/198 199/199/199 200/200/200
f 213/213/213 214/214/214 215/215/215 216/216/216
f 229/229/229 230/230/230 231/231/231 232/232/232
