# Generated by dev-env-utils/scripts/gen_transit_airside.py -- do not edit
mtllib jet_bridge_large.mtl
o airport_jet_bridge_large_uturn_c5
v 0.08332 0.09375 1.00000
v 0.00000 0.09375 0.94118
v 0.00000 0.09375 1.00000
v 0.00000 0.00000 1.00000
v 0.00000 0.00000 0.94118
v 0.08332 0.00000 1.00000
v 0.08332 4.24547 1.00000
v 0.00000 4.24547 0.94118
v 0.00000 4.24547 1.00000
v 0.00000 4.09375 1.00000
v 0.00000 4.09375 0.94118
v 0.08332 4.09375 1.00000
v 0.27083 0.09375 1.00000
v 0.00000 0.09375 0.77966
v 0.00000 0.09375 0.94118
v 0.08332 0.09375 1.00000
v 0.08332 0.00000 1.00000
v 0.00000 0.00000 0.94118
v 0.00000 0.00000 0.77966
v 0.27083 0.00000 1.00000
v 0.27083 4.24547 1.00000
v 0.00000 4.24547 0.77966
v 0.00000 4.24547 0.94118
v 0.08332 4.24547 1.00000
v 0.08332 4.09375 1.00000
v 0.00000 4.09375 0.94118
v 0.00000 4.09375 0.77966
v 0.27083 4.09375 1.00000
v 0.42926 0.09375 1.00000
v 0.00000 0.09375 0.59910
v 0.00000 0.09375 0.77966
v 0.27083 0.09375 1.00000
v 0.27083 0.00000 1.00000
v 0.00000 0.00000 0.77966
v 0.00000 0.00000 0.59910
v 0.42926 0.00000 1.00000
v 0.42926 4.24547 1.00000
v 0.00000 4.24547 0.59910
v 0.00000 4.24547 0.77966
v 0.27083 4.24547 1.00000
v 0.27083 4.09375 1.00000
v 0.00000 4.09375 0.77966
v 0.00000 4.09375 0.59910
v 0.42926 4.09375 1.00000
v 0.56607 0.09375 1.00000
v 0.00000 0.09375 0.39389
v 0.00000 0.09375 0.59910
v 0.42926 0.09375 1.00000
v 0.42926 0.00000 1.00000
v 0.00000 0.00000 0.59910
v 0.00000 0.00000 0.39389
v 0.56607 0.00000 1.00000
v 0.56607 4.24547 1.00000
v 0.00000 4.24547 0.39389
v 0.00000 4.24547 0.59910
v 0.42926 4.24547 1.00000
v 0.42926 4.09375 1.00000
v 0.00000 4.09375 0.59910
v 0.00000 4.09375 0.39389
v 0.56607 4.09375 1.00000
v 0.63350 0.09375 1.00000
v 0.00000 0.09375 0.26891
v 0.00000 0.09375 0.39389
v 0.56607 0.09375 1.00000
v 0.56607 0.00000 1.00000
v 0.00000 0.00000 0.39389
v 0.00000 0.00000 0.26891
v 0.63350 0.00000 1.00000
v 0.63350 4.24547 1.00000
v 0.00000 4.24547 0.26891
v 0.00000 4.24547 0.39389
v 0.56607 4.24547 1.00000
v 0.56607 4.09375 1.00000
v 0.00000 4.09375 0.39389
v 0.00000 4.09375 0.26891
v 0.63350 4.09375 1.00000
v 0.68644 0.09375 1.00000
v 0.00000 0.09375 0.15625
v 0.00000 0.09375 0.26891
v 0.63350 0.09375 1.00000
v 0.63350 0.00000 1.00000
v 0.00000 0.00000 0.26891
v 0.00000 0.00000 0.15625
v 0.68644 0.00000 1.00000
v 0.68644 4.24547 1.00000
v 0.00000 4.24547 0.15625
v 0.00000 4.24547 0.26891
v 0.63350 4.24547 1.00000
v 0.63350 4.09375 1.00000
v 0.00000 4.09375 0.26891
v 0.00000 4.09375 0.15625
v 0.68644 4.09375 1.00000
v 0.08825 0.09375 0.00000
v 0.00000 0.09375 0.00000
v 0.00000 0.09375 0.15625
v 0.68644 0.09375 1.00000
v 0.79412 0.09375 1.00000
v 0.08825 0.09375 0.00000
v 0.68644 0.09375 1.00000
v 0.68644 0.00000 1.00000
v 0.00000 0.00000 0.15625
v 0.00000 0.00000 0.00000
v 0.08825 0.00000 0.00000
v 0.68644 0.00000 1.00000
v 0.08825 0.00000 0.00000
v 0.79412 0.00000 1.00000
v 0.08825 4.24547 0.00000
v 0.00000 4.24547 0.00000
v 0.00000 4.24547 0.15625
v 0.68644 4.24547 1.00000
v 0.79412 4.24547 1.00000
v 0.08825 4.24547 0.00000
v 0.68644 4.24547 1.00000
v 0.68644 4.09375 1.00000
v 0.00000 4.09375 0.15625
v 0.00000 4.09375 0.00000
v 0.08825 4.09375 0.00000
v 0.68644 4.09375 1.00000
v 0.08825 4.09375 0.00000
v 0.79412 4.09375 1.00000
v 0.89189 0.09375 1.00000
v 0.28377 0.09375 0.00000
v 0.08825 0.09375 0.00000
v 0.79412 0.09375 1.00000
v 0.79412 0.00000 1.00000
v 0.08825 0.00000 0.00000
v 0.28377 0.00000 0.00000
v 0.89189 0.00000 1.00000
v 0.89189 4.24547 1.00000
v 0.28377 4.24547 0.00000
v 0.08825 4.24547 0.00000
v 0.79412 4.24547 1.00000
v 0.79412 4.09375 1.00000
v 0.08825 4.09375 0.00000
v 0.28377 4.09375 0.00000
v 0.89189 4.09375 1.00000
v 0.98184 0.09375 1.00000
v 0.46368 0.09375 0.00000
v 0.28377 0.09375 0.00000
v 0.89189 0.09375 1.00000
v 0.89189 0.00000 1.00000
v 0.28377 0.00000 0.00000
v 0.46368 0.00000 0.00000
v 0.98184 0.00000 1.00000
v 0.98184 4.24547 1.00000
v 0.46368 4.24547 0.00000
v 0.28377 4.24547 0.00000
v 0.89189 4.24547 1.00000
v 0.89189 4.09375 1.00000
v 0.28377 4.09375 0.00000
v 0.46368 4.09375 0.00000
v 0.98184 4.09375 1.00000
v 1.00000 0.09375 0.90515
v 0.58663 0.09375 0.00000
v 0.46368 0.09375 0.00000
v 0.98184 0.09375 1.00000
v 1.00000 0.09375 1.00000
v 1.00000 0.09375 0.90515
v 0.98184 0.09375 1.00000
v 0.98184 0.00000 1.00000
v 0.46368 0.00000 0.00000
v 0.58663 0.00000 0.00000
v 1.00000 0.00000 0.90515
v 0.98184 0.00000 1.00000
v 1.00000 0.00000 0.90515
v 1.00000 0.00000 1.00000
v 1.00000 4.24547 0.90515
v 0.58663 4.24547 0.00000
v 0.46368 4.24547 0.00000
v 0.98184 4.24547 1.00000
v 1.00000 4.24547 1.00000
v 1.00000 4.24547 0.90515
v 0.98184 4.24547 1.00000
v 0.98184 4.09375 1.00000
v 0.46368 4.09375 0.00000
v 0.58663 4.09375 0.00000
v 1.00000 4.09375 0.90515
v 0.98184 4.09375 1.00000
v 1.00000 4.09375 0.90515
v 1.00000 4.09375 1.00000
v 1.00000 0.09375 0.84888
v 0.63128 0.09375 0.00000
v 0.58663 0.09375 0.00000
v 1.00000 0.09375 0.90515
v 1.00000 0.00000 0.90515
v 0.58663 0.00000 0.00000
v 0.63128 0.00000 0.00000
v 1.00000 0.00000 0.84888
v 1.00000 4.24547 0.84888
v 0.63128 4.24547 0.00000
v 0.58663 4.24547 0.00000
v 1.00000 4.24547 0.90515
v 1.00000 4.09375 0.90515
v 0.58663 4.09375 0.00000
v 0.63128 4.09375 0.00000
v 1.00000 4.09375 0.84888
v 1.00000 0.09375 0.59313
v 0.78920 0.09375 0.00000
v 0.63128 0.09375 0.00000
v 1.00000 0.09375 0.84888
v 1.00000 0.00000 0.84888
v 0.63128 0.00000 0.00000
v 0.78920 0.00000 0.00000
v 1.00000 0.00000 0.59313
v 1.00000 4.24547 0.59313
v 0.78920 4.24547 0.00000
v 0.63128 4.24547 0.00000
v 1.00000 4.24547 0.84888
v 1.00000 4.09375 0.84888
v 0.63128 4.09375 0.00000
v 0.78920 4.09375 0.00000
v 1.00000 4.09375 0.59313
v 1.00000 0.09375 0.21548
v 0.93963 0.09375 0.00000
v 0.78920 0.09375 0.00000
v 1.00000 0.09375 0.59313
v 1.00000 0.00000 0.59313
v 0.78920 0.00000 0.00000
v 0.93963 0.00000 0.00000
v 1.00000 0.00000 0.21548
v 1.00000 4.24547 0.21548
v 0.93963 4.24547 0.00000
v 0.78920 4.24547 0.00000
v 1.00000 4.24547 0.59313
v 1.00000 4.09375 0.59313
v 0.78920 4.09375 0.00000
v 0.93963 4.09375 0.00000
v 1.00000 4.09375 0.21548
v 1.00000 0.09375 0.00000
v 0.93963 0.09375 0.00000
v 1.00000 0.09375 0.21548
v 1.00000 0.00000 0.21548
v 0.93963 0.00000 0.00000
v 1.00000 0.00000 0.00000
v 1.00000 4.24547 0.00000
v 0.93963 4.24547 0.00000
v 1.00000 4.24547 0.21548
v 1.00000 4.09375 0.21548
v 0.93963 4.09375 0.00000
v 1.00000 4.09375 0.00000
vt 0.27083 1.00000
vt 0.25000 0.98530
vt 0.25000 1.00000
vt 0.25000 1.00000
vt 0.25000 0.98530
vt 0.27083 1.00000
vt 0.27083 1.00000
vt 0.25000 0.98530
vt 0.25000 1.00000
vt 0.22021 0.29400
vt 0.22524 0.30733
vt 0.20983 0.30733
vt 0.31771 1.00000
vt 0.25000 0.94491
vt 0.25000 0.98530
vt 0.27083 1.00000
vt 0.27083 1.00000
vt 0.25000 0.98530
vt 0.25000 0.94491
vt 0.31771 1.00000
vt 0.31771 1.00000
vt 0.25000 0.94491
vt 0.25000 0.98530
vt 0.27083 1.00000
vt 0.20983 0.30733
vt 0.22524 0.30733
vt 0.23999 0.34148
vt 0.18725 0.34148
vt 0.35732 1.00000
vt 0.25000 0.89977
vt 0.25000 0.94491
vt 0.31771 1.00000
vt 0.31771 1.00000
vt 0.25000 0.94491
vt 0.25000 0.89977
vt 0.35732 1.00000
vt 0.35732 1.00000
vt 0.25000 0.89977
vt 0.25000 0.94491
vt 0.31771 1.00000
vt 0.18725 0.34148
vt 0.23999 0.34148
vt 0.25792 0.37563
vt 0.16921 0.37563
vt 0.39152 1.00000
vt 0.25000 0.84847
vt 0.25000 0.89977
vt 0.35732 1.00000
vt 0.35732 1.00000
vt 0.25000 0.89977
vt 0.25000 0.84847
vt 0.39152 1.00000
vt 0.39152 1.00000
vt 0.25000 0.84847
vt 0.25000 0.89977
vt 0.35732 1.00000
vt 0.16921 0.37563
vt 0.25792 0.37563
vt 0.27985 0.40977
vt 0.15459 0.40977
vt 0.40837 1.00000
vt 0.25000 0.81723
vt 0.25000 0.84847
vt 0.39152 1.00000
vt 0.39152 1.00000
vt 0.25000 0.84847
vt 0.25000 0.81723
vt 0.40837 1.00000
vt 0.40837 1.00000
vt 0.25000 0.81723
vt 0.25000 0.84847
vt 0.39152 1.00000
vt 0.15459 0.40977
vt 0.27985 0.40977
vt 0.29389 0.42840
vt 0.14777 0.42840
vt 0.42161 1.00000
vt 0.25000 0.78906
vt 0.25000 0.81723
vt 0.40837 1.00000
vt 0.40837 1.00000
vt 0.25000 0.81723
vt 0.25000 0.78906
vt 0.42161 1.00000
vt 0.42161 1.00000
vt 0.25000 0.78906
vt 0.25000 0.81723
vt 0.40837 1.00000
vt 0.14777 0.42840
vt 0.29389 0.42840
vt 0.30692 0.44392
vt 0.14263 0.44392
vt 0.27206 0.75000
vt 0.25000 0.75000
vt 0.25000 0.78906
vt 0.42161 1.00000
vt 0.44853 1.00000
vt 0.27206 0.75000
vt 0.42161 1.00000
vt 0.42161 1.00000
vt 0.25000 0.78906
vt 0.25000 0.75000
vt 0.27206 0.75000
vt 0.42161 1.00000
vt 0.27206 0.75000
vt 0.44853 1.00000
vt 0.27206 0.75000
vt 0.25000 0.75000
vt 0.25000 0.78906
vt 0.42161 1.00000
vt 0.44853 1.00000
vt 0.27206 0.75000
vt 0.42161 1.00000
vt 0.14263 0.44392
vt 0.30692 0.44392
vt 0.32552 0.46365
vt 0.31768 0.47807
vt 0.14263 0.44392
vt 0.31768 0.47807
vt 0.13280 0.47807
vt 0.47297 1.00000
vt 0.32094 0.75000
vt 0.27206 0.75000
vt 0.44853 1.00000
vt 0.44853 1.00000
vt 0.27206 0.75000
vt 0.32094 0.75000
vt 0.47297 1.00000
vt 0.47297 1.00000
vt 0.32094 0.75000
vt 0.27206 0.75000
vt 0.44853 1.00000
vt 0.13280 0.47807
vt 0.31768 0.47807
vt 0.30147 0.51222
vt 0.12469 0.51222
vt 0.49546 1.00000
vt 0.36592 0.75000
vt 0.32094 0.75000
vt 0.47297 1.00000
vt 0.47297 1.00000
vt 0.32094 0.75000
vt 0.36592 0.75000
vt 0.49546 1.00000
vt 0.49546 1.00000
vt 0.36592 0.75000
vt 0.32094 0.75000
vt 0.47297 1.00000
vt 0.12469 0.01222
vt 0.30147 0.01222
vt 0.28814 0.04636
vt 0.11803 0.04636
vt 0.50000 0.97629
vt 0.39666 0.75000
vt 0.36592 0.75000
vt 0.49546 1.00000
vt 0.50000 1.00000
vt 0.50000 0.97629
vt 0.49546 1.00000
vt 0.49546 1.00000
vt 0.36592 0.75000
vt 0.39666 0.75000
vt 0.50000 0.97629
vt 0.49546 1.00000
vt 0.50000 0.97629
vt 0.50000 1.00000
vt 0.50000 0.97629
vt 0.39666 0.75000
vt 0.36592 0.75000
vt 0.49546 1.00000
vt 0.50000 1.00000
vt 0.50000 0.97629
vt 0.49546 1.00000
vt 0.11803 0.04636
vt 0.28814 0.04636
vt 0.28001 0.07120
vt 0.12971 0.07120
vt 0.11803 0.04636
vt 0.12971 0.07120
vt 0.11679 0.05357
vt 0.50000 0.96222
vt 0.40782 0.75000
vt 0.39666 0.75000
vt 0.50000 0.97629
vt 0.50000 0.97629
vt 0.39666 0.75000
vt 0.40782 0.75000
vt 0.50000 0.96222
vt 0.50000 0.96222
vt 0.40782 0.75000
vt 0.39666 0.75000
vt 0.50000 0.97629
vt 0.12971 0.07120
vt 0.28001 0.07120
vt 0.27727 0.08051
vt 0.13748 0.08051
vt 0.50000 0.89828
vt 0.44730 0.75000
vt 0.40782 0.75000
vt 0.50000 0.96222
vt 0.50000 0.96222
vt 0.40782 0.75000
vt 0.44730 0.75000
vt 0.50000 0.89828
vt 0.50000 0.89828
vt 0.44730 0.75000
vt 0.40782 0.75000
vt 0.50000 0.96222
vt 0.13748 0.08051
vt 0.27727 0.08051
vt 0.26851 0.11466
vt 0.17343 0.11466
vt 0.50000 0.80387
vt 0.48491 0.75000
vt 0.44730 0.75000
vt 0.50000 0.89828
vt 0.50000 0.89828
vt 0.44730 0.75000
vt 0.48491 0.75000
vt 0.50000 0.80387
vt 0.50000 0.80387
vt 0.48491 0.75000
vt 0.44730 0.75000
vt 0.50000 0.89828
vt 0.17343 0.11466
vt 0.26851 0.11466
vt 0.26163 0.14881
vt 0.22783 0.14881
vt 0.50000 0.75000
vt 0.48491 0.75000
vt 0.50000 0.80387
vt 0.50000 0.80387
vt 0.48491 0.75000
vt 0.50000 0.75000
vt 0.50000 0.75000
vt 0.48491 0.75000
vt 0.50000 0.80387
vt 0.22783 0.14881
vt 0.26163 0.14881
vt 0.25930 0.16291
vn 0.00000 1.00000 0.00000
vn 0.00000 1.00000 0.00000
vn 0.00000 1.00000 0.00000
vn 0.00000 -1.00000 0.00000
vn 0.00000 -1.00000 0.00000
vn 0.00000 -1.00000 0.00000
vn 0.00000 1.00000 0.00000
vn 0.00000 1.00000 0.00000
vn 0.00000 1.00000 0.00000
vn 0.00000 -1.00000 0.00000
vn 0.00000 -1.00000 0.00000
vn 0.00000 -1.00000 0.00000
vn 0.00000 1.00000 0.00000
vn 0.00000 1.00000 0.00000
vn 0.00000 1.00000 0.00000
vn 0.00000 1.00000 0.00000
vn 0.00000 -1.00000 0.00000
vn 0.00000 -1.00000 0.00000
vn 0.00000 -1.00000 0.00000
vn 0.00000 -1.00000 0.00000
vn 0.00000 1.00000 0.00000
vn 0.00000 1.00000 0.00000
vn 0.00000 1.00000 0.00000
vn 0.00000 1.00000 0.00000
vn 0.00000 -1.00000 0.00000
vn 0.00000 -1.00000 0.00000
vn 0.00000 -1.00000 0.00000
vn 0.00000 -1.00000 0.00000
vn 0.00000 1.00000 0.00000
vn 0.00000 1.00000 0.00000
vn 0.00000 1.00000 0.00000
vn 0.00000 1.00000 0.00000
vn 0.00000 -1.00000 0.00000
vn 0.00000 -1.00000 0.00000
vn 0.00000 -1.00000 0.00000
vn 0.00000 -1.00000 0.00000
vn 0.00000 1.00000 0.00000
vn 0.00000 1.00000 0.00000
vn 0.00000 1.00000 0.00000
vn 0.00000 1.00000 0.00000
vn 0.00000 -1.00000 0.00000
vn 0.00000 -1.00000 0.00000
vn 0.00000 -1.00000 0.00000
vn 0.00000 -1.00000 0.00000
vn 0.00000 1.00000 0.00000
vn 0.00000 1.00000 0.00000
vn 0.00000 1.00000 0.00000
vn 0.00000 1.00000 0.00000
vn 0.00000 -1.00000 0.00000
vn 0.00000 -1.00000 0.00000
vn 0.00000 -1.00000 0.00000
vn 0.00000 -1.00000 0.00000
vn 0.00000 1.00000 0.00000
vn 0.00000 1.00000 0.00000
vn 0.00000 1.00000 0.00000
vn 0.00000 1.00000 0.00000
vn 0.00000 -1.00000 0.00000
vn 0.00000 -1.00000 0.00000
vn 0.00000 -1.00000 0.00000
vn 0.00000 -1.00000 0.00000
vn 0.00000 1.00000 0.00000
vn 0.00000 1.00000 0.00000
vn 0.00000 1.00000 0.00000
vn 0.00000 1.00000 0.00000
vn 0.00000 -1.00000 0.00000
vn 0.00000 -1.00000 0.00000
vn 0.00000 -1.00000 0.00000
vn 0.00000 -1.00000 0.00000
vn 0.00000 1.00000 0.00000
vn 0.00000 1.00000 0.00000
vn 0.00000 1.00000 0.00000
vn 0.00000 1.00000 0.00000
vn 0.00000 -1.00000 0.00000
vn 0.00000 -1.00000 0.00000
vn 0.00000 -1.00000 0.00000
vn 0.00000 -1.00000 0.00000
vn 0.00000 1.00000 0.00000
vn 0.00000 1.00000 0.00000
vn 0.00000 1.00000 0.00000
vn 0.00000 1.00000 0.00000
vn 0.00000 -1.00000 0.00000
vn 0.00000 -1.00000 0.00000
vn 0.00000 -1.00000 0.00000
vn 0.00000 -1.00000 0.00000
vn 0.00000 1.00000 0.00000
vn 0.00000 1.00000 0.00000
vn 0.00000 1.00000 0.00000
vn 0.00000 1.00000 0.00000
vn 0.00000 -1.00000 0.00000
vn 0.00000 -1.00000 0.00000
vn 0.00000 -1.00000 0.00000
vn 0.00000 -1.00000 0.00000
vn 0.00000 1.00000 0.00000
vn 0.00000 1.00000 0.00000
vn 0.00000 1.00000 0.00000
vn 0.00000 1.00000 0.00000
vn 0.00000 1.00000 0.00000
vn 0.00000 1.00000 0.00000
vn 0.00000 1.00000 0.00000
vn 0.00000 -1.00000 0.00000
vn 0.00000 -1.00000 0.00000
vn 0.00000 -1.00000 0.00000
vn 0.00000 -1.00000 0.00000
vn 0.00000 -1.00000 0.00000
vn 0.00000 -1.00000 0.00000
vn 0.00000 -1.00000 0.00000
vn 0.00000 1.00000 0.00000
vn 0.00000 1.00000 0.00000
vn 0.00000 1.00000 0.00000
vn 0.00000 1.00000 0.00000
vn 0.00000 1.00000 0.00000
vn 0.00000 1.00000 0.00000
vn 0.00000 1.00000 0.00000
vn 0.00000 -1.00000 0.00000
vn 0.00000 -1.00000 0.00000
vn 0.00000 -1.00000 0.00000
vn 0.00000 -1.00000 0.00000
vn 0.00000 -1.00000 0.00000
vn 0.00000 -1.00000 0.00000
vn 0.00000 -1.00000 0.00000
vn 0.00000 1.00000 0.00000
vn 0.00000 1.00000 0.00000
vn 0.00000 1.00000 0.00000
vn 0.00000 1.00000 0.00000
vn 0.00000 -1.00000 0.00000
vn 0.00000 -1.00000 0.00000
vn 0.00000 -1.00000 0.00000
vn 0.00000 -1.00000 0.00000
vn 0.00000 1.00000 0.00000
vn 0.00000 1.00000 0.00000
vn 0.00000 1.00000 0.00000
vn 0.00000 1.00000 0.00000
vn 0.00000 -1.00000 0.00000
vn 0.00000 -1.00000 0.00000
vn 0.00000 -1.00000 0.00000
vn 0.00000 -1.00000 0.00000
vn 0.00000 1.00000 0.00000
vn 0.00000 1.00000 0.00000
vn 0.00000 1.00000 0.00000
vn 0.00000 1.00000 0.00000
vn 0.00000 -1.00000 0.00000
vn 0.00000 -1.00000 0.00000
vn 0.00000 -1.00000 0.00000
vn 0.00000 -1.00000 0.00000
vn 0.00000 1.00000 0.00000
vn 0.00000 1.00000 0.00000
vn 0.00000 1.00000 0.00000
vn 0.00000 1.00000 0.00000
vn 0.00000 -1.00000 0.00000
vn 0.00000 -1.00000 0.00000
vn 0.00000 -1.00000 0.00000
vn 0.00000 -1.00000 0.00000
vn 0.00000 1.00000 0.00000
vn 0.00000 1.00000 0.00000
vn 0.00000 1.00000 0.00000
vn 0.00000 1.00000 0.00000
vn 0.00000 1.00000 0.00000
vn 0.00000 1.00000 0.00000
vn 0.00000 1.00000 0.00000
vn 0.00000 -1.00000 0.00000
vn 0.00000 -1.00000 0.00000
vn 0.00000 -1.00000 0.00000
vn 0.00000 -1.00000 0.00000
vn 0.00000 -1.00000 0.00000
vn 0.00000 -1.00000 0.00000
vn 0.00000 -1.00000 0.00000
vn 0.00000 1.00000 0.00000
vn 0.00000 1.00000 0.00000
vn 0.00000 1.00000 0.00000
vn 0.00000 1.00000 0.00000
vn 0.00000 1.00000 0.00000
vn 0.00000 1.00000 0.00000
vn 0.00000 1.00000 0.00000
vn 0.00000 -1.00000 0.00000
vn 0.00000 -1.00000 0.00000
vn 0.00000 -1.00000 0.00000
vn 0.00000 -1.00000 0.00000
vn 0.00000 -1.00000 0.00000
vn 0.00000 -1.00000 0.00000
vn 0.00000 -1.00000 0.00000
vn 0.00000 1.00000 0.00000
vn 0.00000 1.00000 0.00000
vn 0.00000 1.00000 0.00000
vn 0.00000 1.00000 0.00000
vn 0.00000 -1.00000 0.00000
vn 0.00000 -1.00000 0.00000
vn 0.00000 -1.00000 0.00000
vn 0.00000 -1.00000 0.00000
vn 0.00000 1.00000 0.00000
vn 0.00000 1.00000 0.00000
vn 0.00000 1.00000 0.00000
vn 0.00000 1.00000 0.00000
vn 0.00000 -1.00000 0.00000
vn 0.00000 -1.00000 0.00000
vn 0.00000 -1.00000 0.00000
vn 0.00000 -1.00000 0.00000
vn 0.00000 1.00000 0.00000
vn 0.00000 1.00000 0.00000
vn 0.00000 1.00000 0.00000
vn 0.00000 1.00000 0.00000
vn 0.00000 -1.00000 0.00000
vn 0.00000 -1.00000 0.00000
vn 0.00000 -1.00000 0.00000
vn 0.00000 -1.00000 0.00000
vn 0.00000 1.00000 0.00000
vn 0.00000 1.00000 0.00000
vn 0.00000 1.00000 0.00000
vn 0.00000 1.00000 0.00000
vn 0.00000 -1.00000 0.00000
vn 0.00000 -1.00000 0.00000
vn 0.00000 -1.00000 0.00000
vn 0.00000 -1.00000 0.00000
vn 0.00000 1.00000 0.00000
vn 0.00000 1.00000 0.00000
vn 0.00000 1.00000 0.00000
vn 0.00000 1.00000 0.00000
vn 0.00000 -1.00000 0.00000
vn 0.00000 -1.00000 0.00000
vn 0.00000 -1.00000 0.00000
vn 0.00000 -1.00000 0.00000
vn 0.00000 1.00000 0.00000
vn 0.00000 1.00000 0.00000
vn 0.00000 1.00000 0.00000
vn 0.00000 1.00000 0.00000
vn 0.00000 -1.00000 0.00000
vn 0.00000 -1.00000 0.00000
vn 0.00000 -1.00000 0.00000
vn 0.00000 -1.00000 0.00000
vn 0.00000 1.00000 0.00000
vn 0.00000 1.00000 0.00000
vn 0.00000 1.00000 0.00000
vn 0.00000 -1.00000 0.00000
vn 0.00000 -1.00000 0.00000
vn 0.00000 -1.00000 0.00000
vn 0.00000 1.00000 0.00000
vn 0.00000 1.00000 0.00000
vn 0.00000 1.00000 0.00000
vn 0.00000 -1.00000 0.00000
vn 0.00000 -1.00000 0.00000
vn 0.00000 -1.00000 0.00000
usemtl ceiling
f 10/10/10 11/11/11 12/12/12
f 25/25/25 26/26/26 27/27/27 28/28/28
f 41/41/41 42/42/42 43/43/43 44/44/44
f 57/57/57 58/58/58 59/59/59 60/60/60
f 73/73/73 74/74/74 75/75/75 76/76/76
f 89/89/89 90/90/90 91/91/91 92/92/92
f 114/114/114 115/115/115 116/116/116 117/117/117
f 118/118/118 119/119/119 120/120/120
f 133/133/133 134/134/134 135/135/135 136/136/136
f 149/149/149 150/150/150 151/151/151 152/152/152
f 174/174/174 175/175/175 176/176/176 177/177/177
f 178/178/178 179/179/179 180/180/180
f 193/193/193 194/194/194 195/195/195 196/196/196
f 209/209/209 210/210/210 211/211/211 212/212/212
f 225/225/225 226/226/226 227/227/227 228/228/228
f 238/238/238 239/239/239 240/240/240
usemtl floor
f 1/1/1 2/2/2 3/3/3
f 13/13/13 14/14/14 15/15/15 16/16/16
f 29/29/29 30/30/30 31/31/31 32/32/32
f 45/45/45 46/46/46 47/47/47 48/48/48
f 61/61/61 62/62/62 63/63/63 64/64/64
f 77/77/77 78/78/78 79/79/79 80/80/80
f 93/93/93 94/94/94 95/95/95 96/96/96
f 97/97/97 98/98/98 99/99/99
f 121/121/121 122/122/122 123/123/123 124/124/124
f 137/137/137 138/138/138 139/139/139 140/140/140
f 153/153/153 154/154/154 155/155/155 156/156/156
f 157/157/157 158/158/158 159/159/159
f 181/181/181 182/182/182 183/183/183 184/184/184
f 197/197/197 198/198/198 199/199/199 200/200/200
f 213/213/213 214/214/214 215/215/215 216/216/216
f 229/229/229 230/230/230 231/231/231
usemtl roof
f 7/7/7 8/8/8 9/9/9
f 21/21/21 22/22/22 23/23/23 24/24/24
f 37/37/37 38/38/38 39/39/39 40/40/40
f 53/53/53 54/54/54 55/55/55 56/56/56
f 69/69/69 70/70/70 71/71/71 72/72/72
f 85/85/85 86/86/86 87/87/87 88/88/88
f 107/107/107 108/108/108 109/109/109 110/110/110
f 111/111/111 112/112/112 113/113/113
f 129/129/129 130/130/130 131/131/131 132/132/132
f 145/145/145 146/146/146 147/147/147 148/148/148
f 167/167/167 168/168/168 169/169/169 170/170/170
f 171/171/171 172/172/172 173/173/173
f 189/189/189 190/190/190 191/191/191 192/192/192
f 205/205/205 206/206/206 207/207/207 208/208/208
f 221/221/221 222/222/222 223/223/223 224/224/224
f 235/235/235 236/236/236 237/237/237
usemtl under
f 4/4/4 5/5/5 6/6/6
f 17/17/17 18/18/18 19/19/19 20/20/20
f 33/33/33 34/34/34 35/35/35 36/36/36
f 49/49/49 50/50/50 51/51/51 52/52/52
f 65/65/65 66/66/66 67/67/67 68/68/68
f 81/81/81 82/82/82 83/83/83 84/84/84
f 100/100/100 101/101/101 102/102/102 103/103/103
f 104/104/104 105/105/105 106/106/106
f 125/125/125 126/126/126 127/127/127 128/128/128
f 141/141/141 142/142/142 143/143/143 144/144/144
f 160/160/160 161/161/161 162/162/162 163/163/163
f 164/164/164 165/165/165 166/166/166
f 185/185/185 186/186/186 187/187/187 188/188/188
f 201/201/201 202/202/202 203/203/203 204/204/204
f 217/217/217 218/218/218 219/219/219 220/220/220
f 232/232/232 233/233/233 234/234/234
