# Generated by dev-env-utils/scripts/gen_transit_airside.py -- do not edit
mtllib jet_bridge_large.mtl
o airport_jet_bridge_large_turn_c6
v 0.09300 0.09375 1.00000
v 0.00000 0.09375 0.90246
v 0.00000 0.09375 1.00000
v 0.00000 0.00000 1.00000
v 0.00000 0.00000 0.90246
v 0.09300 0.00000 1.00000
v 0.09300 4.24547 1.00000
v 0.00000 4.24547 0.90246
v 0.00000 4.24547 1.00000
v 0.00000 4.09375 1.00000
v 0.00000 4.09375 0.90246
v 0.09300 4.09375 1.00000
v 0.26699 0.09375 1.00000
v 0.00000 0.09375 0.69188
v 0.00000 0.09375 0.90246
v 0.09300 0.09375 1.00000
v 0.09300 0.00000 1.00000
v 0.00000 0.00000 0.90246
v 0.00000 0.00000 0.69188
v 0.26699 0.00000 1.00000
v 0.26699 4.24547 1.00000
v 0.00000 4.24547 0.69188
v 0.00000 4.24547 0.90246
v 0.09300 4.24547 1.00000
v 0.09300 4.09375 1.00000
v 0.00000 4.09375 0.90246
v 0.00000 4.09375 0.69188
v 0.26699 4.09375 1.00000
v 0.42718 0.09375 1.00000
v 0.00000 0.09375 0.45679
v 0.00000 0.09375 0.69188
v 0.26699 0.09375 1.00000
v 0.26699 0.00000 1.00000
v 0.00000 0.00000 0.69188
v 0.00000 0.00000 0.45679
v 0.42718 0.00000 1.00000
v 0.42718 4.24547 1.00000
v 0.00000 4.24547 0.45679
v 0.00000 4.24547 0.69188
v 0.26699 4.24547 1.00000
v 0.26699 4.09375 1.00000
v 0.00000 4.09375 0.69188
v 0.00000 4.09375 0.45679
v 0.42718 4.09375 1.00000
v 0.57581 0.09375 1.00000
v 0.00000 0.09375 0.19139
v 0.00000 0.09375 0.45679
v 0.42718 0.09375 1.00000
v 0.42718 0.00000 1.00000
v 0.00000 0.00000 0.45679
v 0.00000 0.00000 0.19139
v 0.57581 0.00000 1.00000
v 0.57581 4.24547 1.00000
v 0.00000 4.24547 0.19139
v 0.00000 4.24547 0.45679
v 0.42718 4.24547 1.00000
v 0.42718 4.09375 1.00000
v 0.00000 4.09375 0.45679
v 0.00000 4.09375 0.19139
v 0.57581 4.09375 1.00000
v 0.66364 0.09375 1.00000
v 0.00000 0.09375 0.00679
v 0.00000 0.09375 0.19139
v 0.57581 0.09375 1.00000
v 0.57581 0.00000 1.00000
v 0.00000 0.00000 0.19139
v 0.00000 0.00000 0.00679
v 0.66364 0.00000 1.00000
v 0.66364 4.24547 1.00000
v 0.00000 4.24547 0.00679
v 0.00000 4.24547 0.19139
v 0.57581 4.24547 1.00000
v 0.57581 4.09375 1.00000
v 0.00000 4.09375 0.19139
v 0.00000 4.09375 0.00679
v 0.66364 4.09375 1.00000
v 0.07202 0.09375 0.00000
v 0.00000 0.09375 0.00000
v 0.00000 0.09375 0.00679
v 0.66364 0.09375 1.00000
v 0.71468 0.09375 1.00000
v 0.07202 0.09375 0.00000
v 0.66364 0.09375 1.00000
v 0.66364 0.00000 1.00000
v 0.00000 0.00000 0.00679
v 0.00000 0.00000 0.00000
v 0.07202 0.00000 0.00000
v 0.66364 0.00000 1.00000
v 0.07202 0.00000 0.00000
v 0.71468 0.00000 1.00000
v 0.07202 4.24547 0.00000
v 0.00000 4.24547 0.00000
v 0.00000 4.24547 0.00679
v 0.66364 4.24547 1.00000
v 0.71468 4.24547 1.00000
v 0.07202 4.24547 0.00000
v 0.66364 4.24547 1.00000
v 0.66364 4.09375 1.00000
v 0.00000 4.09375 0.00679
v 0.00000 4.09375 0.00000
v 0.07202 4.09375 0.00000
v 0.66364 4.09375 1.00000
v 0.07202 4.09375 0.00000
v 0.71468 4.09375 1.00000
v 0.84530 0.09375 1.00000
v 0.26795 0.09375 0.00000
v 0.07202 0.09375 0.00000
v 0.71468 0.09375 1.00000
v 0.71468 0.00000 1.00000
v 0.07202 0.00000 0.00000
v 0.26795 0.00000 0.00000
v 0.84530 0.00000 1.00000
v 0.84530 4.24547 1.00000
v 0.26795 4.24547 0.00000
v 0.07202 4.24547 0.00000
v 0.71468 4.24547 1.00000
v 0.71468 4.09375 1.00000
v 0.07202 4.09375 0.00000
v 0.26795 4.09375 0.00000
v 0.84530 4.09375 1.00000
v 0.96893 0.09375 1.00000
v 0.45339 0.09375 0.00000
v 0.26795 0.09375 0.00000
v 0.84530 0.09375 1.00000
v 0.84530 0.00000 1.00000
v 0.26795 0.00000 0.00000
v 0.45339 0.00000 0.00000
v 0.96893 0.00000 1.00000
v 0.96893 4.24547 1.00000
v 0.45339 4.24547 0.00000
v 0.26795 4.24547 0.00000
v 0.84530 4.24547 1.00000
v 0.84530 4.09375 1.00000
v 0.26795 4.09375 0.00000
v 0.45339 4.09375 0.00000
v 0.96893 4.09375 1.00000
v 1.00000 0.09375 0.81031
v 0.62995 0.09375 0.00000
v 0.45339 0.09375 0.00000
v 0.96893 0.09375 1.00000
v 1.00000 0.09375 1.00000
v 1.00000 0.09375 0.81031
v 0.96893 0.09375 1.00000
v 0.96893 0.00000 1.00000
v 0.45339 0.00000 0.00000
v 0.62995 0.00000 0.00000
v 1.00000 0.00000 0.81031
v 0.96893 0.00000 1.00000
v 1.00000 0.00000 0.81031
v 1.00000 0.00000 1.00000
v 1.00000 4.24547 0.81031
v 0.62995 4.24547 0.00000
v 0.45339 4.24547 0.00000
v 0.96893 4.24547 1.00000
v 1.00000 4.24547 1.00000
v 1.00000 4.24547 0.81031
v 0.96893 4.24547 1.00000
v 0.96893 4.09375 1.00000
v 0.45339 4.09375 0.00000
v 0.62995 4.09375 0.00000
v 1.00000 4.09375 0.81031
v 0.96893 4.09375 1.00000
v 1.00000 4.09375 0.81031
v 1.00000 4.09375 1.00000
v 1.00000 0.09375 0.58579
v 0.75736 0.09375 0.00000
v 0.62995 0.09375 0.00000
v 1.00000 0.09375 0.81031
v 1.00000 0.00000 0.81031
v 0.62995 0.00000 0.00000
v 0.75736 0.00000 0.00000
v 1.00000 0.00000 0.58579
v 1.00000 4.24547 0.58579
v 0.75736 4.24547 0.00000
v 0.62995 4.24547 0.00000
v 1.00000 4.24547 0.81031
v 1.00000 4.09375 0.81031
v 0.62995 4.09375 0.00000
v 0.75736 4.09375 0.00000
v 1.00000 4.09375 0.58579
v 1.00000 0.09375 0.50212
v 0.79898 0.09375 0.00000
v 0.75736 0.09375 0.00000
v 1.00000 0.09375 0.58579
v 1.00000 0.00000 0.58579
v 0.75736 0.00000 0.00000
v 0.79898 0.00000 0.00000
v 1.00000 0.00000 0.50212
v 1.00000 4.24547 0.50212
v 0.79898 4.24547 0.00000
v 0.75736 4.24547 0.00000
v 1.00000 4.24547 0.58579
v 1.00000 4.09375 0.58579
v 0.75736 4.09375 0.00000
v 0.79898 4.09375 0.00000
v 1.00000 4.09375 0.50212
v 1.00000 0.09375 0.11069
v 0.96169 0.09375 0.00000
v 0.79898 0.09375 0.00000
v 1.00000 0.09375 0.50212
v 1.00000 0.00000 0.50212
v 0.79898 0.00000 0.00000
v 0.96169 0.00000 0.00000
v 1.00000 0.00000 0.11069
v 1.00000 4.24547 0.11069
v 0.96169 4.24547 0.00000
v 0.79898 4.24547 0.00000
v 1.00000 4.24547 0.50212
v 1.00000 4.09375 0.50212
v 0.79898 4.09375 0.00000
v 0.96169 4.09375 0.00000
v 1.00000 4.09375 0.11069
v 1.00000 0.09375 0.00000
v 0.96169 0.09375 0.00000
v 1.00000 0.09375 0.11069
v 1.00000 0.00000 0.11069
v 0.96169 0.00000 0.00000
v 1.00000 0.00000 0.00000
v 1.00000 4.24547 0.00000
v 0.96169 4.24547 0.00000
v 1.00000 4.24547 0.11069
v 1.00000 4.09375 0.11069
v 0.96169 4.09375 0.00000
v 1.00000 4.09375 0.00000
vt 0.52325 0.75000
vt 0.50000 0.72562
vt 0.50000 0.75000
vt 0.50000 0.75000
vt 0.50000 0.72562
vt 0.52325 0.75000
vt 0.52325 0.75000
vt 0.50000 0.72562
vt 0.50000 0.75000
vt 0.14856 0.18722
vt 0.15911 0.20805
vt 0.13875 0.20805
vt 0.56675 0.75000
vt 0.50000 0.67297
vt 0.50000 0.72562
vt 0.52325 0.75000
vt 0.52325 0.75000
vt 0.50000 0.72562
vt 0.50000 0.67297
vt 0.56675 0.75000
vt 0.56675 0.75000
vt 0.50000 0.67297
vt 0.50000 0.72562
vt 0.52325 0.75000
vt 0.13875 0.20805
vt 0.15911 0.20805
vt 0.18265 0.24970
vt 0.12107 0.24970
vt 0.60680 0.75000
vt 0.50000 0.61420
vt 0.50000 0.67297
vt 0.56675 0.75000
vt 0.56675 0.75000
vt 0.50000 0.67297
vt 0.50000 0.61420
vt 0.60680 0.75000
vt 0.60680 0.75000
vt 0.50000 0.61420
vt 0.50000 0.67297
vt 0.56675 0.75000
vt 0.12107 0.24970
vt 0.18265 0.24970
vt 0.21004 0.29135
vt 0.10566 0.29135
vt 0.64395 0.75000
vt 0.50000 0.54785
vt 0.50000 0.61420
vt 0.60680 0.75000
vt 0.60680 0.75000
vt 0.50000 0.61420
vt 0.50000 0.54785
vt 0.64395 0.75000
vt 0.64395 0.75000
vt 0.50000 0.54785
vt 0.50000 0.61420
vt 0.60680 0.75000
vt 0.10566 0.29135
vt 0.21004 0.29135
vt 0.24214 0.33300
vt 0.09220 0.33300
vt 0.66591 0.75000
vt 0.50000 0.50170
vt 0.50000 0.54785
vt 0.64395 0.75000
vt 0.64395 0.75000
vt 0.50000 0.54785
vt 0.50000 0.50170
vt 0.66591 0.75000
vt 0.66591 0.75000
vt 0.50000 0.50170
vt 0.50000 0.54785
vt 0.64395 0.75000
vt 0.09220 0.33300
vt 0.24214 0.33300
vt 0.26509 0.35903
vt 0.08467 0.35903
vt 0.51800 0.50000
vt 0.50000 0.50000
vt 0.50000 0.50170
vt 0.66591 0.75000
vt 0.67867 0.75000
vt 0.51800 0.50000
vt 0.66591 0.75000
vt 0.66591 0.75000
vt 0.50000 0.50170
vt 0.50000 0.50000
vt 0.51800 0.50000
vt 0.66591 0.75000
vt 0.51800 0.50000
vt 0.67867 0.75000
vt 0.51800 0.50000
vt 0.50000 0.50000
vt 0.50000 0.50170
vt 0.66591 0.75000
vt 0.67867 0.75000
vt 0.51800 0.50000
vt 0.66591 0.75000
vt 0.08467 0.35903
vt 0.26509 0.35903
vt 0.26594 0.35994
vt 0.25998 0.37465
vt 0.08467 0.35903
vt 0.25998 0.37465
vt 0.08044 0.37465
vt 0.71132 0.75000
vt 0.56699 0.50000
vt 0.51800 0.50000
vt 0.67867 0.75000
vt 0.67867 0.75000
vt 0.51800 0.50000
vt 0.56699 0.50000
vt 0.71132 0.75000
vt 0.71132 0.75000
vt 0.56699 0.50000
vt 0.51800 0.50000
vt 0.67867 0.75000
vt 0.08044 0.37465
vt 0.25998 0.37465
vt 0.24458 0.41630
vt 0.07017 0.41630
vt 0.74223 0.75000
vt 0.61335 0.50000
vt 0.56699 0.50000
vt 0.71132 0.75000
vt 0.71132 0.75000
vt 0.56699 0.50000
vt 0.61335 0.50000
vt 0.74223 0.75000
vt 0.74223 0.75000
vt 0.61335 0.50000
vt 0.56699 0.50000
vt 0.71132 0.75000
vt 0.07017 0.41630
vt 0.24458 0.41630
vt 0.23115 0.45795
vt 0.06122 0.45795
vt 0.75000 0.70258
vt 0.65749 0.50000
vt 0.61335 0.50000
vt 0.74223 0.75000
vt 0.75000 0.75000
vt 0.75000 0.70258
vt 0.74223 0.75000
vt 0.74223 0.75000
vt 0.61335 0.50000
vt 0.65749 0.50000
vt 0.75000 0.70258
vt 0.74223 0.75000
vt 0.75000 0.70258
vt 0.75000 0.75000
vt 0.75000 0.70258
vt 0.65749 0.50000
vt 0.61335 0.50000
vt 0.74223 0.75000
vt 0.75000 0.75000
vt 0.75000 0.70258
vt 0.74223 0.75000
vt 0.06122 0.45795
vt 0.23115 0.45795
vt 0.21950 0.49960
vt 0.08495 0.49960
vt 0.06122 0.45795
vt 0.08495 0.49960
vt 0.05909 0.46876
vt 0.75000 0.64645
vt 0.68934 0.50000
vt 0.65749 0.50000
vt 0.75000 0.70258
vt 0.75000 0.70258
vt 0.65749 0.50000
vt 0.68934 0.50000
vt 0.75000 0.64645
vt 0.75000 0.64645
vt 0.68934 0.50000
vt 0.65749 0.50000
vt 0.75000 0.70258
vt 0.08495 0.00000
vt 0.21950 0.00000
vt 0.21181 0.03084
vt 0.11605 0.03084
vt 0.75000 0.62553
vt 0.69975 0.50000
vt 0.68934 0.50000
vt 0.75000 0.64645
vt 0.75000 0.64645
vt 0.68934 0.50000
vt 0.69975 0.50000
vt 0.75000 0.62553
vt 0.75000 0.62553
vt 0.69975 0.50000
vt 0.68934 0.50000
vt 0.75000 0.64645
vt 0.11605 0.03084
vt 0.21181 0.03084
vt 0.20944 0.04125
vt 0.12775 0.04125
vt 0.75000 0.52767
vt 0.74042 0.50000
vt 0.69975 0.50000
vt 0.75000 0.62553
vt 0.75000 0.62553
vt 0.69975 0.50000
vt 0.74042 0.50000
vt 0.75000 0.52767
vt 0.75000 0.52767
vt 0.74042 0.50000
vt 0.69975 0.50000
vt 0.75000 0.62553
vt 0.12775 0.04125
vt 0.20944 0.04125
vt 0.20085 0.08290
vt 0.18316 0.08290
vt 0.75000 0.50000
vt 0.74042 0.50000
vt 0.75000 0.52767
vt 0.75000 0.52767
vt 0.74042 0.50000
vt 0.75000 0.50000
vt 0.75000 0.50000
vt 0.74042 0.50000
vt 0.75000 0.52767
vt 0.18316 0.08290
vt 0.20085 0.08290
vt 0.19899 0.09292
vn 0.00000 1.00000 0.00000
vn 0.00000 1.00000 0.00000
vn 0.00000 1.00000 0.00000
vn 0.00000 -1.00000 0.00000
vn 0.00000 -1.00000 0.00000
vn 0.00000 -1.00000 0.00000
vn 0.00000 1.00000 0.00000
vn 0.00000 1.00000 0.00000
vn 0.00000 1.00000 0.00000
vn 0.00000 -1.00000 0.00000
vn 0.00000 -1.00000 0.00000
vn 0.00000 -1.00000 0.00000
vn 0.00000 1.00000 0.00000
vn 0.00000 1.00000 0.00000
vn 0.00000 1.00000 0.00000
vn 0.00000 1.00000 0.00000
vn 0.00000 -1.00000 0.00000
vn 0.00000 -1.00000 0.00000
vn 0.00000 -1.00000 0.00000
vn 0.00000 -1.00000 0.00000
vn 0.00000 1.00000 0.00000
vn 0.00000 1.00000 0.00000
vn 0.00000 1.00000 0.00000
vn 0.00000 1.00000 0.00000
vn 0.00000 -1.00000 0.00000
vn 0.00000 -1.00000 0.00000
vn 0.00000 -1.00000 0.00000
vn 0.00000 -1.00000 0.00000
vn 0.00000 1.00000 0.00000
vn 0.00000 1.00000 0.00000
vn 0.00000 1.00000 0.00000
vn 0.00000 1.00000 0.00000
vn 0.00000 -1.00000 0.00000
vn 0.00000 -1.00000 0.00000
vn 0.00000 -1.00000 0.00000
vn 0.00000 -1.00000 0.00000
vn 0.00000 1.00000 0.00000
vn 0.00000 1.00000 0.00000
vn 0.00000 1.00000 0.00000
vn 0.00000 1.00000 0.00000
vn 0.00000 -1.00000 0.00000
vn 0.00000 -1.00000 0.00000
vn 0.00000 -1.00000 0.00000
vn 0.00000 -1.00000 0.00000
vn 0.00000 1.00000 0.00000
vn 0.00000 1.00000 0.00000
vn 0.00000 1.00000 0.00000
vn 0.00000 1.00000 0.00000
vn 0.00000 -1.00000 0.00000
vn 0.00000 -1.00000 0.00000
vn 0.00000 -1.00000 0.00000
vn 0.00000 -1.00000 0.00000
vn 0.00000 1.00000 0.00000
vn 0.00000 1.00000 0.00000
vn 0.00000 1.00000 0.00000
vn 0.00000 1.00000 0.00000
vn 0.00000 -1.00000 0.00000
vn 0.00000 -1.00000 0.00000
vn 0.00000 -1.00000 0.00000
vn 0.00000 -1.00000 0.00000
vn 0.00000 1.00000 0.00000
vn 0.00000 1.00000 0.00000
vn 0.00000 1.00000 0.00000
vn 0.00000 1.00000 0.00000
vn 0.00000 -1.00000 0.00000
vn 0.00000 -1.00000 0.00000
vn 0.00000 -1.00000 0.00000
vn 0.00000 -1.00000 0.00000
vn 0.00000 1.00000 0.00000
vn 0.00000 1.00000 0.00000
vn 0.00000 1.00000 0.00000
vn 0.00000 1.00000 0.00000
vn 0.00000 -1.00000 0.00000
vn 0.00000 -1.00000 0.00000
vn 0.00000 -1.00000 0.00000
vn 0.00000 -1.00000 0.00000
vn 0.00000 1.00000 0.00000
vn 0.00000 1.00000 0.00000
vn 0.00000 1.00000 0.00000
vn 0.00000 1.00000 0.00000
vn 0.00000 1.00000 0.00000
vn 0.00000 1.00000 0.00000
vn 0.00000 1.00000 0.00000
vn 0.00000 -1.00000 0.00000
vn 0.00000 -1.00000 0.00000
vn 0.00000 -1.00000 0.00000
vn 0.00000 -1.00000 0.00000
vn 0.00000 -1.00000 0.00000
vn 0.00000 -1.00000 0.00000
vn 0.00000 -1.00000 0.00000
vn 0.00000 1.00000 0.00000
vn 0.00000 1.00000 0.00000
vn 0.00000 1.00000 0.00000
vn 0.00000 1.00000 0.00000
vn 0.00000 1.00000 0.00000
vn 0.00000 1.00000 0.00000
vn 0.00000 1.00000 0.00000
vn 0.00000 -1.00000 0.00000
vn 0.00000 -1.00000 0.00000
vn 0.00000 -1.00000 0.00000
vn 0.00000 -1.00000 0.00000
vn 0.00000 -1.00000 0.00000
vn 0.00000 -1.00000 0.00000
vn 0.00000 -1.00000 0.00000
vn 0.00000 1.00000 0.00000
vn 0.00000 1.00000 0.00000
vn 0.00000 1.00000 0.00000
vn 0.00000 1.00000 0.00000
vn 0.00000 -1.00000 0.00000
vn 0.00000 -1.00000 0.00000
vn 0.00000 -1.00000 0.00000
vn 0.00000 -1.00000 0.00000
vn 0.00000 1.00000 0.00000
vn 0.00000 1.00000 0.00000
vn 0.00000 1.00000 0.00000
vn 0.00000 1.00000 0.00000
vn 0.00000 -1.00000 0.00000
vn 0.00000 -1.00000 0.00000
vn 0.00000 -1.00000 0.00000
vn 0.00000 -1.00000 0.00000
vn 0.00000 1.00000 0.00000
vn 0.00000 1.00000 0.00000
vn 0.00000 1.00000 0.00000
vn 0.00000 1.00000 0.00000
vn 0.00000 -1.00000 0.00000
vn 0.00000 -1.00000 0.00000
vn 0.00000 -1.00000 0.00000
vn 0.00000 -1.00000 0.00000
vn 0.00000 1.00000 0.00000
vn 0.00000 1.00000 0.00000
vn 0.00000 1.00000 0.00000
vn 0.00000 1.00000 0.00000
vn 0.00000 -1.00000 0.00000
vn 0.00000 -1.00000 0.00000
vn 0.00000 -1.00000 0.00000
vn 0.00000 -1.00000 0.00000
vn 0.00000 1.00000 0.00000
vn 0.00000 1.00000 0.00000
vn 0.00000 1.00000 0.00000
vn 0.00000 1.00000 0.00000
vn 0.00000 1.00000 0.00000
vn 0.00000 1.00000 0.00000
vn 0.00000 1.00000 0.00000
vn 0.00000 -1.00000 0.00000
vn 0.00000 -1.00000 0.00000
vn 0.00000 -1.00000 0.00000
vn 0.00000 -1.00000 0.00000
vn 0.00000 -1.00000 0.00000
vn 0.00000 -1.00000 0.00000
vn 0.00000 -1.00000 0.00000
vn 0.00000 1.00000 0.00000
vn 0.00000 1.00000 0.00000
vn 0.00000 1.00000 0.00000
vn 0.00000 1.00000 0.00000
vn 0.00000 1.00000 0.00000
vn 0.00000 1.00000 0.00000
vn 0.00000 1.00000 0.00000
vn 0.00000 -1.00000 0.00000
vn 0.00000 -1.00000 0.00000
vn 0.00000 -1.00000 0.00000
vn 0.00000 -1.00000 0.00000
vn 0.00000 -1.00000 0.00000
vn 0.00000 -1.00000 0.00000
vn 0.00000 -1.00000 0.00000
vn 0.00000 1.00000 0.00000
vn 0.00000 1.00000 0.00000
vn 0.00000 1.00000 0.00000
vn 0.00000 1.00000 0.00000
vn 0.00000 -1.00000 0.00000
vn 0.00000 -1.00000 0.00000
vn 0.00000 -1.00000 0.00000
vn 0.00000 -1.00000 0.00000
vn 0.00000 1.00000 0.00000
vn 0.00000 1.00000 0.00000
vn 0.00000 1.00000 0.00000
vn 0.00000 1.00000 0.00000
vn 0.00000 -1.00000 0.00000
vn 0.00000 -1.00000 0.00000
vn 0.00000 -1.00000 0.00000
vn 0.00000 -1.00000 0.00000
vn 0.00000 1.00000 0.00000
vn 0.00000 1.00000 0.00000
vn 0.00000 1.00000 0.00000
vn 0.00000 1.00000 0.00000
vn 0.00000 -1.00000 0.00000
vn 0.00000 -1.00000 0.00000
vn 0.00000 -1.00000 0.00000
vn 0.00000 -1.00000 0.00000
vn 0.00000 1.00000 0.00000
vn 0.00000 1.00000 0.00000
vn 0.00000 1.00000 0.00000
vn 0.00000 1.00000 0.00000
vn 0.00000 -1.00000 0.00000
vn 0.00000 -1.00000 0.00000
vn 0.00000 -1.00000 0.00000
vn 0.00000 -1.00000 0.00000
vn 0.00000 1.00000 0.00000
vn 0.00000 1.00000 0.00000
vn 0.00000 1.00000 0.00000
vn 0.00000 1.00000 0.00000
vn 0.00000 -1.00000 0.00000
vn 0.00000 -1.00000 0.00000
vn 0.00000 -1.00000 0.00000
vn 0.00000 -1.00000 0.00000
vn 0.00000 1.00000 0.00000
vn 0.00000 1.00000 0.00000
vn 0.00000 1.00000 0.00000
vn 0.00000 1.00000 0.00000
vn 0.00000 -1.00000 0.00000
vn 0.00000 -1.00000 0.00000
vn 0.00000 -1.00000 0.00000
vn 0.00000 -1.00000 0.00000
vn 0.00000 1.00000 0.00000
vn 0.00000 1.00000 0.00000
vn 0.00000 1.00000 0.00000
vn 0.00000 -1.00000 0.00000
vn 0.00000 -1.00000 0.00000
vn 0.00000 -1.00000 0.00000
vn 0.00000 1.00000 0.00000
vn 0.00000 1.00000 0.00000
vn 0.00000 1.00000 0.00000
vn 0.00000 -1.00000 0.00000
vn 0.00000 -1.00000 0.00000
vn 0.00000 -1.00000 0.00000
usemtl ceiling
f 10/10/10 11/11/11 12/12/12
f 25/25/25 26/26/26 27/27/27 28/28/28
f 41/41/41 42/42/42 43/43/43 44/44/44
f 57/57/57 58/58/58 59/59/59 60/60/60
f 73/73/73 74/74/74 75/75/75 76/76/76
f 98/98/98 99/99/99 100/100/100 101/101/101
f 102/102/102 103/103/103 104/104/104
f 117/117/117 118/118/118 119/119/119 120/120/120
f 133/133/133 134/134/134 135/135/135 136/136/136
f 158/158/158 159/159/159 160/160/160 161/161/161
f 162/162/162 163/163/163 164/164/164
f 177/177/177 178/178/178 179/179/179 180/180/180
f 193/193/193 194/194/194 195/195/195 196/196/196
f 209/209/209 210/210/210 211/211/211 212/212/212
f 222/222/222 223/223/223 224/224/224
usemtl floor
f 1/1/1 2/2/2 3/3/3
f 13/13/13 14/14/14 15/15/15 16/16/16
f 29/29/29 30/30/30 31/31/31 32/32/32
f 45/45/45 46/46/46 47/47/47 48/48/48
f 61/61/61 62/62/62 63/63/63 64/64/64
f 77/77/77 78/78/78 79/79/79 80/80/80
f 81/81/81 82/82/82 83/83/83
f 105/105/105 106/106/106 107/107/107 108/108/108
f 121/121/121 122/122/122 123/123/123 124/124/124
f 137/137/137 138/138/138 139/139/139 140/140/140
f 141/141/141 142/142/142 143/143/143
f 165/165/165 166/166/166 167/167/167 168/168/168
f 181/181/181 182/182/182 183/183/183 184/184/184
f 197/197/197 198/198/198 199/199/199 200/200/200
f 213/213/213 214/214/214 215/215/215
usemtl roof
f 7/7/7 8/8/8 9/9/9
f 21/21/21 22/22/22 23/23/23 24/24/24
f 37/37/37 38/38/38 39/39/39 40/40/40
f 53/53/53 54/54/54 55/55/55 56/56/56
f 69/69/69 70/70/70 71/71/71 72/72/72
f 91/91/91 92/92/92 93/93/93 94/94/94
f 95/95/95 96/96/96 97/97/97
f 113/113/113 114/114/114 115/115/115 116/116/116
f 129/129/129 130/130/130 131/131/131 132/132/132
f 151/151/151 152/152/152 153/153/153 154/154/154
f 155/155/155 156/156/156 157/157/157
f 173/173/173 174/174/174 175/175/175 176/176/176
f 189/189/189 190/190/190 191/191/191 192/192/192
f 205/205/205 206/206/206 207/207/207 208/208/208
f 219/219/219 220/220/220 221/221/221
usemtl under
f 4/4/4 5/5/5 6/6/6
f 17/17/17 18/18/18 19/19/19 20/20/20
f 33/33/33 34/34/34 35/35/35 36/36/36
f 49/49/49 50/50/50 51/51/51 52/52/52
f 65/65/65 66/66/66 67/67/67 68/68/68
f 84/84/84 85/85/85 86/86/86 87/87/87
f 88/88/88 89/89/89 90/90/90
f 109/109/109 110/110/110 111/111/111 112/112/112
f 125/125/125 126/126/126 127/127/127 128/128/128
f 144/144/144 145/145/145 146/146/146 147/147/147
f 148/148/148 149/149/149 150/150/150
f 169/169/169 170/170/170 171/171/171 172/172/172
f 185/185/185 186/186/186 187/187/187 188/188/188
f 201/201/201 202/202/202 203/203/203 204/204/204
f 216/216/216 217/217/217 218/218/218
