# Generated by dev-env-utils/scripts/gen_transit_airside.py -- do not edit
mtllib jet_bridge_large.mtl
o airport_jet_bridge_large_uturn_c8
v 0.00000 0.09375 0.00000
v 0.00000 0.09375 0.15625
v 0.12712 0.09375 0.00000
v 0.12712 0.00000 0.00000
v 0.00000 0.00000 0.15625
v 0.00000 0.00000 0.00000
v 0.00000 4.24547 0.00000
v 0.00000 4.24547 0.15625
v 0.12712 4.24547 0.00000
v 0.12712 4.09375 0.00000
v 0.00000 4.09375 0.15625
v 0.00000 4.09375 0.00000
v 0.00000 0.09375 0.26891
v 0.23301 0.09375 0.00000
v 0.12712 0.09375 0.00000
v 0.00000 0.09375 0.15625
v 0.00000 0.00000 0.15625
v 0.12712 0.00000 0.00000
v 0.23301 0.00000 0.00000
v 0.00000 0.00000 0.26891
v 0.00000 4.24547 0.26891
v 0.23301 4.24547 0.00000
v 0.12712 4.24547 0.00000
v 0.00000 4.24547 0.15625
v 0.00000 4.09375 0.15625
v 0.12712 4.09375 0.00000
v 0.23301 4.09375 0.00000
v 0.00000 4.09375 0.26891
v 0.00000 0.09375 0.39389
v 0.36787 0.09375 0.00000
v 0.23301 0.09375 0.00000
v 0.00000 0.09375 0.26891
v 0.00000 0.00000 0.26891
v 0.23301 0.00000 0.00000
v 0.36787 0.00000 0.00000
v 0.00000 0.00000 0.39389
v 0.00000 4.24547 0.39389
v 0.36787 4.24547 0.00000
v 0.23301 4.24547 0.00000
v 0.00000 4.24547 0.26891
v 0.00000 4.09375 0.26891
v 0.23301 4.09375 0.00000
v 0.36787 4.09375 0.00000
v 0.00000 4.09375 0.39389
v 0.00000 0.09375 0.59910
v 0.64148 0.09375 0.00000
v 0.36787 0.09375 0.00000
v 0.00000 0.09375 0.39389
v 0.00000 0.00000 0.39389
v 0.36787 0.00000 0.00000
v 0.64148 0.00000 0.00000
v 0.00000 0.00000 0.59910
v 0.00000 4.24547 0.59910
v 0.64148 4.24547 0.00000
v 0.36787 4.24547 0.00000
v 0.00000 4.24547 0.39389
v 0.00000 4.09375 0.39389
v 0.36787 4.09375 0.00000
v 0.64148 4.09375 0.00000
v 0.00000 4.09375 0.59910
v 0.00000 0.09375 0.77966
v 0.95833 0.09375 0.00000
v 0.64148 0.09375 0.00000
v 0.00000 0.09375 0.59910
v 0.00000 0.00000 0.59910
v 0.64148 0.00000 0.00000
v 0.95833 0.00000 0.00000
v 0.00000 0.00000 0.77966
v 0.00000 4.24547 0.77966
v 0.95833 4.24547 0.00000
v 0.64148 4.24547 0.00000
v 0.00000 4.24547 0.59910
v 0.00000 4.09375 0.59910
v 0.64148 4.09375 0.00000
v 0.95833 4.09375 0.00000
v 0.00000 4.09375 0.77966
v 1.00000 0.09375 0.23531
v 1.00000 0.09375 0.00000
v 0.95833 0.09375 0.00000
v 0.00000 0.09375 0.77966
v 0.00000 0.09375 0.94118
v 1.00000 0.09375 0.23531
v 0.00000 0.09375 0.77966
v 0.00000 0.00000 0.77966
v 0.95833 0.00000 0.00000
v 1.00000 0.00000 0.00000
v 1.00000 0.00000 0.23531
v 0.00000 0.00000 0.77966
v 1.00000 0.00000 0.23531
v 0.00000 0.00000 0.94118
v 1.00000 4.24547 0.23531
v 1.00000 4.24547 0.00000
v 0.95833 4.24547 0.00000
v 0.00000 4.24547 0.77966
v 0.00000 4.24547 0.94118
v 1.00000 4.24547 0.23531
v 0.00000 4.24547 0.77966
v 0.00000 4.09375 0.77966
v 0.95833 4.09375 0.00000
v 1.00000 4.09375 0.00000
v 1.00000 4.09375 0.23531
v 0.00000 4.09375 0.77966
v 1.00000 4.09375 0.23531
v 0.00000 4.09375 0.94118
v 0.05603 0.09375 1.00000
v 1.00000 0.09375 0.39335
v 1.00000 0.09375 0.23531
v 0.00000 0.09375 0.94118
v 0.00000 0.09375 1.00000
v 0.05603 0.09375 1.00000
v 0.00000 0.09375 0.94118
v 0.00000 0.00000 0.94118
v 1.00000 0.00000 0.23531
v 1.00000 0.00000 0.39335
v 0.05603 0.00000 1.00000
v 0.00000 0.00000 0.94118
v 0.05603 0.00000 1.00000
v 0.00000 0.00000 1.00000
v 0.05603 4.24547 1.00000
v 1.00000 4.24547 0.39335
v 1.00000 4.24547 0.23531
v 0.00000 4.24547 0.94118
v 0.00000 4.24547 1.00000
v 0.05603 4.24547 1.00000
v 0.00000 4.24547 0.94118
v 0.00000 4.09375 0.94118
v 1.00000 4.09375 0.23531
v 1.00000 4.09375 0.39335
v 0.05603 4.09375 1.00000
v 0.00000 4.09375 0.94118
v 0.05603 4.09375 1.00000
v 0.00000 4.09375 1.00000
v 0.14443 0.09375 1.00000
v 1.00000 0.09375 0.47972
v 1.00000 0.09375 0.39335
v 0.05603 0.09375 1.00000
v 0.05603 0.00000 1.00000
v 1.00000 0.00000 0.39335
v 1.00000 0.00000 0.47972
v 0.14443 0.00000 1.00000
v 0.14443 4.24547 1.00000
v 1.00000 4.24547 0.47972
v 1.00000 4.24547 0.39335
v 0.05603 4.24547 1.00000
v 0.05603 4.09375 1.00000
v 1.00000 4.09375 0.39335
v 1.00000 4.09375 0.47972
v 0.14443 4.09375 1.00000
v 0.42991 0.09375 1.00000
v 1.00000 0.09375 0.70460
v 1.00000 0.09375 0.47972
v 0.14443 0.09375 1.00000
v 0.14443 0.00000 1.00000
v 1.00000 0.00000 0.47972
v 1.00000 0.00000 0.70460
v 0.42991 0.00000 1.00000
v 0.42991 4.24547 1.00000
v 1.00000 4.24547 0.70460
v 1.00000 4.24547 0.47972
v 0.14443 4.24547 1.00000
v 0.14443 4.09375 1.00000
v 1.00000 4.09375 0.47972
v 1.00000 4.09375 0.70460
v 0.42991 4.09375 1.00000
v 0.80223 0.09375 1.00000
v 1.00000 0.09375 0.91410
v 1.00000 0.09375 0.70460
v 0.42991 0.09375 1.00000
v 0.42991 0.00000 1.00000
v 1.00000 0.00000 0.70460
v 1.00000 0.00000 0.91410
v 0.80223 0.00000 1.00000
v 0.80223 4.24547 1.00000
v 1.00000 4.24547 0.91410
v 1.00000 4.24547 0.70460
v 0.42991 4.24547 1.00000
v 0.42991 4.09375 1.00000
v 1.00000 4.09375 0.70460
v 1.00000 4.09375 0.91410
v 0.80223 4.09375 1.00000
v 1.00000 0.09375 1.00000
v 1.00000 0.09375 0.91410
v 0.80223 0.09375 1.00000
v 0.80223 0.00000 1.00000
v 1.00000 0.00000 0.91410
v 1.00000 0.00000 1.00000
v 1.00000 4.24547 1.00000
v 1.00000 4.24547 0.91410
v 0.80223 4.24547 1.00000
v 0.80223 4.09375 1.00000
v 1.00000 4.09375 0.91410
v 1.00000 4.09375 1.00000
v 1.00000 0.09375 -0.33484
v 1.17133 0.09375 -0.49485
v 1.00000 0.09375 -0.66618
v 1.00000 0.00000 -0.66618
v 1.17133 0.00000 -0.49485
v 1.00000 0.00000 -0.33484
v 1.00000 4.24547 -0.33484
v 1.17133 4.24547 -0.49485
v 1.00000 4.24547 -0.66618
v 1.00000 4.09375 -0.66618
v 1.17133 4.09375 -0.49485
v 1.00000 4.09375 -0.33484
v 1.00000 0.09375 -0.03390
v 1.33536 0.09375 -0.30674
v 1.17133 0.09375 -0.49485
v 1.00000 0.09375 -0.33484
v 1.00000 0.00000 -0.33484
v 1.17133 0.00000 -0.49485
v 1.33536 0.00000 -0.30674
v 1.00000 0.00000 -0.03390
v 1.00000 4.24547 -0.03390
v 1.33536 4.24547 -0.30674
v 1.17133 4.24547 -0.49485
v 1.00000 4.24547 -0.33484
v 1.00000 4.09375 -0.33484
v 1.17133 4.09375 -0.49485
v 1.33536 4.09375 -0.30674
v 1.00000 4.09375 -0.03390
v 1.33335 0.09375 0.00000
v 1.48617 0.09375 -0.10787
v 1.33536 0.09375 -0.30674
v 1.00000 0.09375 -0.03390
v 1.00000 0.09375 0.00000
v 1.33335 0.09375 0.00000
v 1.00000 0.09375 -0.03390
v 1.00000 0.00000 -0.03390
v 1.33536 0.00000 -0.30674
v 1.48617 0.00000 -0.10787
v 1.33335 0.00000 0.00000
v 1.00000 0.00000 -0.03390
v 1.33335 0.00000 0.00000
v 1.00000 0.00000 0.00000
v 1.33335 4.24547 0.00000
v 1.48617 4.24547 -0.10787
v 1.33536 4.24547 -0.30674
v 1.00000 4.24547 -0.03390
v 1.00000 4.24547 0.00000
v 1.33335 4.24547 0.00000
v 1.00000 4.24547 -0.03390
v 1.00000 4.09375 -0.03390
v 1.33536 4.09375 -0.30674
v 1.48617 4.09375 -0.10787
v 1.33335 4.09375 0.00000
v 1.00000 4.09375 -0.03390
v 1.33335 4.09375 0.00000
v 1.00000 4.09375 0.00000
v 1.55885 0.09375 0.00000
v 1.48617 0.09375 -0.10787
v 1.33335 0.09375 0.00000
v 1.33335 0.00000 0.00000
v 1.48617 0.00000 -0.10787
v 1.55885 0.00000 0.00000
v 1.55885 4.24547 0.00000
v 1.48617 4.24547 -0.10787
v 1.33335 4.24547 0.00000
v 1.33335 4.09375 0.00000
v 1.48617 4.09375 -0.10787
v 1.55885 4.09375 0.00000
v 1.00000 4.09375 -0.66618
v 1.17133 4.09375 -0.49485
v 1.17133 0.09375 -0.49485
v 1.00000 0.09375 -0.66618
v 1.00000 0.09375 -0.66618
v 1.17133 0.09375 -0.49485
v 1.17133 0.00000 -0.49485
v 1.00000 0.00000 -0.66618
v 1.00000 4.24547 -0.66618
v 1.17133 4.24547 -0.49485
v 1.17133 4.09375 -0.49485
v 1.00000 4.09375 -0.66618
v 1.00000 0.09375 -0.44686
v 1.05793 0.09375 -0.38894
v 1.05793 4.09375 -0.38894
v 1.00000 4.09375 -0.44686
v 1.33536 4.09375 -0.30674
v 1.33536 0.09375 -0.30674
v 1.17133 0.09375 -0.49485
v 1.17133 4.09375 -0.49485
v 1.33536 0.09375 -0.30674
v 1.33536 0.00000 -0.30674
v 1.17133 0.00000 -0.49485
v 1.17133 0.09375 -0.49485
v 1.33536 4.24547 -0.30674
v 1.33536 4.09375 -0.30674
v 1.17133 4.09375 -0.49485
v 1.17133 4.24547 -0.49485
v 1.05793 4.09375 -0.38894
v 1.05793 0.09375 -0.38894
v 1.21499 0.09375 -0.20881
v 1.21499 4.09375 -0.20881
v 1.48617 4.09375 -0.10787
v 1.48617 0.09375 -0.10787
v 1.33536 0.09375 -0.30674
v 1.33536 4.09375 -0.30674
v 1.48617 0.09375 -0.10787
v 1.48617 0.00000 -0.10787
v 1.33536 0.00000 -0.30674
v 1.33536 0.09375 -0.30674
v 1.48617 4.24547 -0.10787
v 1.48617 4.09375 -0.10787
v 1.33536 4.09375 -0.30674
v 1.33536 4.24547 -0.30674
v 1.21499 4.09375 -0.20881
v 1.21499 0.09375 -0.20881
v 1.35939 0.09375 -0.01838
v 1.35939 4.09375 -0.01838
v 1.55885 4.09375 0.00000
v 1.55885 0.09375 0.00000
v 1.48617 0.09375 -0.10787
v 1.48617 4.09375 -0.10787
v 1.55885 0.09375 0.00000
v 1.55885 0.00000 0.00000
v 1.48617 0.00000 -0.10787
v 1.48617 0.09375 -0.10787
v 1.55885 4.24547 0.00000
v 1.55885 4.09375 0.00000
v 1.48617 4.09375 -0.10787
v 1.48617 4.24547 -0.10787
v 1.35939 4.09375 -0.01838
v 1.35939 0.09375 -0.01838
v 1.37178 0.09375 0.00000
v 1.37178 4.09375 0.00000
v 1.00000 0.09375 0.00000
v 1.00000 0.09375 0.23531
v 1.33335 0.09375 0.00000
v 1.33335 0.00000 0.00000
v 1.00000 0.00000 0.23531
v 1.00000 0.00000 0.00000
v 1.00000 4.24547 0.00000
v 1.00000 4.24547 0.23531
v 1.33335 4.24547 0.00000
v 1.33335 4.09375 0.00000
v 1.00000 4.09375 0.23531
v 1.00000 4.09375 0.00000
v 1.57493 0.09375 0.02386
v 1.55885 0.09375 0.00000
v 1.33335 0.09375 0.00000
v 1.00000 0.09375 0.23531
v 1.00000 0.09375 0.39335
v 1.57493 0.09375 0.02386
v 1.00000 0.09375 0.23531
v 1.00000 0.00000 0.23531
v 1.33335 0.00000 0.00000
v 1.55885 0.00000 0.00000
v 1.57493 0.00000 0.02386
v 1.00000 0.00000 0.23531
v 1.57493 0.00000 0.02386
v 1.00000 0.00000 0.39335
v 1.57493 4.24547 0.02386
v 1.55885 4.24547 0.00000
v 1.33335 4.24547 0.00000
v 1.00000 4.24547 0.23531
v 1.00000 4.24547 0.39335
v 1.57493 4.24547 0.02386
v 1.00000 4.24547 0.23531
v 1.00000 4.09375 0.23531
v 1.33335 4.09375 0.00000
v 1.55885 4.09375 0.00000
v 1.57493 4.09375 0.02386
v 1.00000 4.09375 0.23531
v 1.57493 4.09375 0.02386
v 1.00000 4.09375 0.39335
v 1.00000 0.09375 0.47972
v 1.62305 0.09375 0.10083
v 1.57493 0.09375 0.02386
v 1.00000 0.09375 0.39335
v 1.00000 0.00000 0.39335
v 1.57493 0.00000 0.02386
v 1.62305 0.00000 0.10083
v 1.00000 0.00000 0.47972
v 1.00000 4.24547 0.47972
v 1.62305 4.24547 0.10083
v 1.57493 4.24547 0.02386
v 1.00000 4.24547 0.39335
v 1.00000 4.09375 0.39335
v 1.57493 4.09375 0.02386
v 1.62305 4.09375 0.10083
v 1.00000 4.09375 0.47972
v 1.00000 0.09375 0.70460
v 1.74538 0.09375 0.31838
v 1.62305 0.09375 0.10083
v 1.00000 0.09375 0.47972
v 1.00000 0.00000 0.47972
v 1.62305 0.00000 0.10083
v 1.74538 0.00000 0.31838
v 1.00000 0.00000 0.70460
v 1.00000 4.24547 0.70460
v 1.74538 4.24547 0.31838
v 1.62305 4.24547 0.10083
v 1.00000 4.24547 0.47972
v 1.00000 4.09375 0.47972
v 1.62305 4.09375 0.10083
v 1.74538 4.09375 0.31838
v 1.00000 4.09375 0.70460
v 1.00000 0.09375 0.91410
v 1.85257 0.09375 0.54377
v 1.74538 0.09375 0.31838
v 1.00000 0.09375 0.70460
v 1.00000 0.00000 0.70460
v 1.74538 0.00000 0.31838
v 1.85257 0.00000 0.54377
v 1.00000 0.00000 0.91410
v 1.00000 4.24547 0.91410
v 1.85257 4.24547 0.54377
v 1.74538 4.24547 0.31838
v 1.00000 4.24547 0.70460
v 1.00000 4.09375 0.70460
v 1.74538 4.09375 0.31838
v 1.85257 4.09375 0.54377
v 1.00000 4.09375 0.91410
v 1.31373 0.09375 1.00000
v 1.94413 0.09375 0.77596
v 1.85257 0.09375 0.54377
v 1.00000 0.09375 0.91410
v 1.00000 0.09375 1.00000
v 1.31373 0.09375 1.00000
v 1.00000 0.09375 0.91410
v 1.00000 0.00000 0.91410
v 1.85257 0.00000 0.54377
v 1.94413 0.00000 0.77596
v 1.31373 0.00000 1.00000
v 1.00000 0.00000 0.91410
v 1.31373 0.00000 1.00000
v 1.00000 0.00000 1.00000
v 1.31373 4.24547 1.00000
v 1.94413 4.24547 0.77596
v 1.85257 4.24547 0.54377
v 1.00000 4.24547 0.91410
v 1.00000 4.24547 1.00000
v 1.31373 4.24547 1.00000
v 1.00000 4.24547 0.91410
v 1.00000 4.09375 0.91410
v 1.85257 4.09375 0.54377
v 1.94413 4.09375 0.77596
v 1.31373 4.09375 1.00000
v 1.00000 4.09375 0.91410
v 1.31373 4.09375 1.00000
v 1.00000 4.09375 1.00000
v 2.00000 0.09375 0.97231
v 2.00000 0.09375 0.94827
v 1.94413 0.09375 0.77596
v 1.31373 0.09375 1.00000
v 1.90569 0.09375 1.00000
v 2.00000 0.09375 0.97231
v 1.31373 0.09375 1.00000
v 1.31373 0.00000 1.00000
v 1.94413 0.00000 0.77596
v 2.00000 0.00000 0.94827
v 2.00000 0.00000 0.97231
v 1.31373 0.00000 1.00000
v 2.00000 0.00000 0.97231
v 1.90569 0.00000 1.00000
v 2.00000 4.24547 0.97231
v 2.00000 4.24547 0.94827
v 1.94413 4.24547 0.77596
v 1.31373 4.24547 1.00000
v 1.90569 4.24547 1.00000
v 2.00000 4.24547 0.97231
v 1.31373 4.24547 1.00000
v 1.31373 4.09375 1.00000
v 1.94413 4.09375 0.77596
v 2.00000 4.09375 0.94827
v 2.00000 4.09375 0.97231
v 1.31373 4.09375 1.00000
v 2.00000 4.09375 0.97231
v 1.90569 4.09375 1.00000
v 2.00000 0.09375 1.00000
v 2.00000 0.09375 0.97231
v 1.90569 0.09375 1.00000
v 1.90569 0.00000 1.00000
v 2.00000 0.00000 0.97231
v 2.00000 0.00000 1.00000
v 2.00000 4.24547 1.00000
v 2.00000 4.24547 0.97231
v 1.90569 4.24547 1.00000
v 1.90569 4.09375 1.00000
v 2.00000 4.09375 0.97231
v 2.00000 4.09375 1.00000
v 1.55885 4.09375 0.00000
v 1.57493 4.09375 0.02386
v 1.57493 0.09375 0.02386
v 1.55885 0.09375 0.00000
v 1.55885 0.09375 0.00000
v 1.57493 0.09375 0.02386
v 1.57493 0.00000 0.02386
v 1.55885 0.00000 0.00000
v 1.55885 4.24547 0.00000
v 1.57493 4.24547 0.02386
v 1.57493 4.09375 0.02386
v 1.55885 4.09375 0.00000
v 1.37178 0.09375 0.00000
v 1.44439 0.09375 0.10776
v 1.44439 4.09375 0.10776
v 1.37178 4.09375 0.00000
v 1.62305 4.09375 0.10083
v 1.62305 0.09375 0.10083
v 1.57493 0.09375 0.02386
v 1.57493 4.09375 0.02386
v 1.62305 0.09375 0.10083
v 1.62305 0.00000 0.10083
v 1.57493 0.00000 0.02386
v 1.57493 0.09375 0.02386
v 1.62305 4.24547 0.10083
v 1.62305 4.09375 0.10083
v 1.57493 4.09375 0.02386
v 1.57493 4.24547 0.02386
v 1.44439 4.09375 0.10776
v 1.44439 0.09375 0.10776
v 1.49047 0.09375 0.18146
v 1.49047 4.09375 0.18146
v 1.74538 4.09375 0.31838
v 1.74538 0.09375 0.31838
v 1.62305 0.09375 0.10083
v 1.62305 4.09375 0.10083
v 1.74538 0.09375 0.31838
v 1.74538 0.00000 0.31838
v 1.62305 0.00000 0.10083
v 1.62305 0.09375 0.10083
v 1.74538 4.24547 0.31838
v 1.74538 4.09375 0.31838
v 1.62305 4.09375 0.10083
v 1.62305 4.24547 0.10083
v 1.49047 4.09375 0.18146
v 1.49047 0.09375 0.18146
v 1.60760 0.09375 0.38977
v 1.60760 4.09375 0.38977
v 1.85257 4.09375 0.54377
v 1.85257 0.09375 0.54377
v 1.74538 0.09375 0.31838
v 1.74538 4.09375 0.31838
v 1.85257 0.09375 0.54377
v 1.85257 0.00000 0.54377
v 1.74538 0.00000 0.31838
v 1.74538 0.09375 0.31838
v 1.85257 4.24547 0.54377
v 1.85257 4.09375 0.54377
v 1.74538 4.09375 0.31838
v 1.74538 4.24547 0.31838
v 1.60760 4.09375 0.38977
v 1.60760 0.09375 0.38977
v 1.71024 0.09375 0.60560
v 1.71024 4.09375 0.60560
v 1.94413 4.09375 0.77596
v 1.94413 0.09375 0.77596
v 1.85257 0.09375 0.54377
v 1.85257 4.09375 0.54377
v 1.94413 0.09375 0.77596
v 1.94413 0.00000 0.77596
v 1.85257 0.00000 0.54377
v 1.85257 0.09375 0.54377
v 1.94413 4.24547 0.77596
v 1.94413 4.09375 0.77596
v 1.85257 4.09375 0.54377
v 1.85257 4.24547 0.54377
v 1.71024 4.09375 0.60560
v 1.71024 0.09375 0.60560
v 1.79791 0.09375 0.82792
v 1.79791 4.09375 0.82792
v 2.00000 4.09375 0.94827
v 2.00000 0.09375 0.94827
v 1.94413 0.09375 0.77596
v 1.94413 4.09375 0.77596
v 2.00000 0.09375 0.94827
v 2.00000 0.00000 0.94827
v 1.94413 0.00000 0.77596
v 1.94413 0.09375 0.77596
v 2.00000 4.24547 0.94827
v 2.00000 4.09375 0.94827
v 1.94413 4.09375 0.77596
v 1.94413 4.24547 0.77596
v 1.79791 4.09375 0.82792
v 1.79791 0.09375 0.82792
v 1.85371 0.09375 1.00000
v 1.85371 4.09375 1.00000
v 2.00000 0.09375 0.97231
v 2.00711 0.09375 0.97022
v 2.00000 0.09375 0.94827
v 2.00000 0.00000 0.94827
v 2.00711 0.00000 0.97022
v 2.00000 0.00000 0.97231
v 2.00000 4.24547 0.97231
v 2.00711 4.24547 0.97022
v 2.00000 4.24547 0.94827
v 2.00000 4.09375 0.94827
v 2.00711 4.09375 0.97022
v 2.00000 4.09375 0.97231
v 2.00000 0.09375 1.00000
v 2.01566 0.09375 1.00000
v 2.00711 0.09375 0.97022
v 2.00000 0.09375 0.97231
v 2.00000 0.00000 0.97231
v 2.00711 0.00000 0.97022
v 2.01566 0.00000 1.00000
v 2.00000 0.00000 1.00000
v 2.00000 4.24547 1.00000
v 2.01566 4.24547 1.00000
v 2.00711 4.24547 0.97022
v 2.00000 4.24547 0.97231
v 2.00000 4.09375 0.97231
v 2.00711 4.09375 0.97022
v 2.01566 4.09375 1.00000
v 2.00000 4.09375 1.00000
v 2.00000 4.09375 0.94827
v 2.00711 4.09375 0.97022
v 2.00711 0.09375 0.97022
v 2.00000 0.09375 0.94827
v 2.00000 0.09375 0.94827
v 2.00711 0.09375 0.97022
v 2.00711 0.00000 0.97022
v 2.00000 0.00000 0.94827
v 2.00000 4.24547 0.94827
v 2.00711 4.24547 0.97022
v 2.00711 4.09375 0.97022
v 2.00000 4.09375 0.94827
v 2.01566 4.09375 1.00000
v 2.01566 0.09375 1.00000
v 2.00711 0.09375 0.97022
v 2.00711 4.09375 0.97022
v 2.01566 0.09375 1.00000
v 2.01566 0.00000 1.00000
v 2.00711 0.00000 0.97022
v 2.00711 0.09375 0.97022
v 2.01566 4.24547 1.00000
v 2.01566 4.09375 1.00000
v 2.00711 4.09375 0.97022
v 2.00711 4.24547 0.97022
vt 0.00000 0.75000
vt 0.00000 0.78906
vt 0.03178 0.75000
vt 0.03178 0.75000
vt 0.00000 0.78906
vt 0.00000 0.75000
vt 0.00000 0.75000
vt 0.00000 0.78906
vt 0.03178 0.75000
vt 0.33734 0.12688
vt 0.30692 0.12688
vt 0.32552 0.10715
vt 0.00000 0.81723
vt 0.05825 0.75000
vt 0.03178 0.75000
vt 0.00000 0.78906
vt 0.00000 0.78906
vt 0.03178 0.75000
vt 0.05825 0.75000
vt 0.00000 0.81723
vt 0.00000 0.81723
vt 0.05825 0.75000
vt 0.03178 0.75000
vt 0.00000 0.78906
vt 0.30692 0.12688
vt 0.33734 0.12688
vt 0.34763 0.14240
vt 0.29389 0.14240
vt 0.00000 0.84847
vt 0.09197 0.75000
vt 0.05825 0.75000
vt 0.00000 0.81723
vt 0.00000 0.81723
vt 0.05825 0.75000
vt 0.09197 0.75000
vt 0.00000 0.84847
vt 0.00000 0.84847
vt 0.09197 0.75000
vt 0.05825 0.75000
vt 0.00000 0.81723
vt 0.29389 0.14240
vt 0.34763 0.14240
vt 0.36126 0.16102
vt 0.27985 0.16102
vt 0.00000 0.89977
vt 0.16037 0.75000
vt 0.09197 0.75000
vt 0.00000 0.84847
vt 0.00000 0.84847
vt 0.09197 0.75000
vt 0.16037 0.75000
vt 0.00000 0.89977
vt 0.00000 0.89977
vt 0.16037 0.75000
vt 0.09197 0.75000
vt 0.00000 0.84847
vt 0.27985 0.16102
vt 0.36126 0.16102
vt 0.39049 0.19517
vt 0.25792 0.19517
vt 0.00000 0.94491
vt 0.23958 0.75000
vt 0.16037 0.75000
vt 0.00000 0.89977
vt 0.00000 0.89977
vt 0.16037 0.75000
vt 0.23958 0.75000
vt 0.00000 0.94491
vt 0.00000 0.94491
vt 0.23958 0.75000
vt 0.16037 0.75000
vt 0.00000 0.89977
vt 0.25792 0.19517
vt 0.39049 0.19517
vt 0.42659 0.22932
vt 0.23999 0.22932
vt 0.25000 0.80883
vt 0.25000 0.75000
vt 0.23958 0.75000
vt 0.00000 0.94491
vt 0.00000 0.98530
vt 0.25000 0.80883
vt 0.00000 0.94491
vt 0.00000 0.94491
vt 0.23958 0.75000
vt 0.25000 0.75000
vt 0.25000 0.80883
vt 0.00000 0.94491
vt 0.25000 0.80883
vt 0.00000 0.98530
vt 0.25000 0.80883
vt 0.25000 0.75000
vt 0.23958 0.75000
vt 0.00000 0.94491
vt 0.00000 0.98530
vt 0.25000 0.80883
vt 0.00000 0.94491
vt 0.23999 0.22932
vt 0.42659 0.22932
vt 0.43149 0.23343
vt 0.41012 0.26347
vt 0.23999 0.22932
vt 0.41012 0.26347
vt 0.22524 0.26347
vt 0.01401 1.00000
vt 0.25000 0.84834
vt 0.25000 0.80883
vt 0.00000 0.98530
vt 0.00000 1.00000
vt 0.01401 1.00000
vt 0.00000 0.98530
vt 0.00000 0.98530
vt 0.25000 0.80883
vt 0.25000 0.84834
vt 0.01401 1.00000
vt 0.00000 0.98530
vt 0.01401 1.00000
vt 0.00000 1.00000
vt 0.01401 1.00000
vt 0.25000 0.84834
vt 0.25000 0.80883
vt 0.00000 0.98530
vt 0.00000 1.00000
vt 0.01401 1.00000
vt 0.00000 0.98530
vt 0.22524 0.26347
vt 0.41012 0.26347
vt 0.39678 0.28520
vt 0.22729 0.28520
vt 0.22524 0.26347
vt 0.22729 0.28520
vt 0.22021 0.27680
vt 0.03611 1.00000
vt 0.25000 0.86993
vt 0.25000 0.84834
vt 0.01401 1.00000
vt 0.01401 1.00000
vt 0.25000 0.84834
vt 0.25000 0.86993
vt 0.03611 1.00000
vt 0.03611 1.00000
vt 0.25000 0.86993
vt 0.25000 0.84834
vt 0.01401 1.00000
vt 0.22729 0.28520
vt 0.39678 0.28520
vt 0.38986 0.29761
vt 0.23861 0.29761
vt 0.10748 1.00000
vt 0.25000 0.92615
vt 0.25000 0.86993
vt 0.03611 1.00000
vt 0.03611 1.00000
vt 0.25000 0.86993
vt 0.25000 0.92615
vt 0.10748 1.00000
vt 0.10748 1.00000
vt 0.25000 0.92615
vt 0.25000 0.86993
vt 0.03611 1.00000
vt 0.23861 0.29761
vt 0.38986 0.29761
vt 0.37320 0.33176
vt 0.27622 0.33176
vt 0.20056 1.00000
vt 0.25000 0.97852
vt 0.25000 0.92615
vt 0.10748 1.00000
vt 0.10748 1.00000
vt 0.25000 0.92615
vt 0.25000 0.97852
vt 0.20056 1.00000
vt 0.20056 1.00000
vt 0.25000 0.97852
vt 0.25000 0.92615
vt 0.10748 1.00000
vt 0.27622 0.33176
vt 0.37320 0.33176
vt 0.35960 0.36591
vt 0.32704 0.36591
vt 0.25000 1.00000
vt 0.25000 0.97852
vt 0.20056 1.00000
vt 0.20056 1.00000
vt 0.25000 0.97852
vt 0.25000 1.00000
vt 0.25000 1.00000
vt 0.25000 0.97852
vt 0.20056 1.00000
vt 0.32704 0.36591
vt 0.35960 0.36591
vt 0.35461 0.38054
vt 0.25000 0.66629
vt 0.29283 0.62629
vt 0.25000 0.58345
vt 0.25000 0.58345
vt 0.29283 0.62629
vt 0.25000 0.66629
vt 0.25000 0.66629
vt 0.29283 0.62629
vt 0.25000 0.58345
vt 0.49996 0.16202
vt 0.50000 0.19517
vt 0.46459 0.19517
vt 0.25000 0.74152
vt 0.33384 0.67332
vt 0.29283 0.62629
vt 0.25000 0.66629
vt 0.25000 0.66629
vt 0.29283 0.62629
vt 0.33384 0.67332
vt 0.25000 0.74152
vt 0.25000 0.74152
vt 0.33384 0.67332
vt 0.29283 0.62629
vt 0.25000 0.66629
vt 0.46459 0.19517
vt 0.50000 0.19517
vt 0.50000 0.22932
vt 0.43470 0.22932
vt 0.33334 0.75000
vt 0.37154 0.72303
vt 0.33384 0.67332
vt 0.25000 0.74152
vt 0.25000 0.75000
vt 0.33334 0.75000
vt 0.25000 0.74152
vt 0.25000 0.74152
vt 0.33384 0.67332
vt 0.37154 0.72303
vt 0.33334 0.75000
vt 0.25000 0.74152
vt 0.33334 0.75000
vt 0.25000 0.75000
vt 0.33334 0.75000
vt 0.37154 0.72303
vt 0.33384 0.67332
vt 0.25000 0.74152
vt 0.25000 0.75000
vt 0.33334 0.75000
vt 0.25000 0.74152
vt 0.43470 0.22932
vt 0.50000 0.22932
vt 0.50000 0.26347
vt 0.47175 0.26347
vt 0.43470 0.22932
vt 0.47175 0.26347
vt 0.43149 0.23343
vt 0.38971 0.75000
vt 0.37154 0.72303
vt 0.33334 0.75000
vt 0.33334 0.75000
vt 0.37154 0.72303
vt 0.38971 0.75000
vt 0.38971 0.75000
vt 0.37154 0.72303
vt 0.33334 0.75000
vt 0.47175 0.26347
vt 0.50000 0.26347
vt 0.49992 0.28126
vt 0.06871 0.00000
vt 0.18478 0.00000
vt 0.18478 0.90625
vt 0.06871 0.90625
vt 0.13742 0.00000
vt 0.36957 0.00000
vt 0.36957 0.09375
vt 0.13742 0.09375
vt 0.13742 0.00000
vt 0.36957 0.00000
vt 0.36957 0.09375
vt 0.13742 0.09375
vt 0.14380 0.90625
vt 0.18478 0.90625
vt 0.18478 0.00000
vt 0.14380 0.00000
vt 0.30435 0.00000
vt 0.30435 0.90625
vt 0.18478 0.90625
vt 0.18478 0.00000
vt 0.60869 0.00000
vt 0.60869 0.09375
vt 0.36957 0.09375
vt 0.36957 0.00000
vt 0.60869 0.00000
vt 0.60869 0.09375
vt 0.36957 0.09375
vt 0.36957 0.00000
vt 0.18478 0.00000
vt 0.18478 0.90625
vt 0.30435 0.90625
vt 0.30435 0.00000
vt 0.42391 0.00000
vt 0.42391 0.90625
vt 0.30435 0.90625
vt 0.30435 0.00000
vt 0.84781 0.00000
vt 0.84781 0.09375
vt 0.60869 0.09375
vt 0.60869 0.00000
vt 0.84781 0.00000
vt 0.84781 0.09375
vt 0.60869 0.09375
vt 0.60869 0.00000
vt 0.30435 0.00000
vt 0.30435 0.90625
vt 0.42391 0.90625
vt 0.42391 0.00000
vt 0.48622 0.00000
vt 0.48622 0.90625
vt 0.42391 0.90625
vt 0.42391 0.00000
vt 0.97243 0.00000
vt 0.97243 0.09375
vt 0.84781 0.09375
vt 0.84781 0.00000
vt 0.97243 0.00000
vt 0.97243 0.09375
vt 0.84781 0.09375
vt 0.84781 0.00000
vt 0.42391 0.00000
vt 0.42391 0.90625
vt 0.43500 0.90625
vt 0.43500 0.00000
vt 0.25000 0.75000
vt 0.25000 0.80883
vt 0.33334 0.75000
vt 0.33334 0.75000
vt 0.25000 0.80883
vt 0.25000 0.75000
vt 0.25000 0.75000
vt 0.25000 0.80883
vt 0.33334 0.75000
vt 0.47175 0.26347
vt 0.41012 0.26347
vt 0.43149 0.23343
vt 0.39373 0.75597
vt 0.38971 0.75000
vt 0.33334 0.75000
vt 0.25000 0.80883
vt 0.25000 0.84834
vt 0.39373 0.75597
vt 0.25000 0.80883
vt 0.25000 0.80883
vt 0.33334 0.75000
vt 0.38971 0.75000
vt 0.39373 0.75597
vt 0.25000 0.80883
vt 0.39373 0.75597
vt 0.25000 0.84834
vt 0.39373 0.75597
vt 0.38971 0.75000
vt 0.33334 0.75000
vt 0.25000 0.80883
vt 0.25000 0.84834
vt 0.39373 0.75597
vt 0.25000 0.80883
vt 0.41012 0.26347
vt 0.47175 0.26347
vt 0.49992 0.28126
vt 0.50000 0.28520
vt 0.41012 0.26347
vt 0.50000 0.28520
vt 0.39678 0.28520
vt 0.25000 0.86993
vt 0.40576 0.77521
vt 0.39373 0.75597
vt 0.25000 0.84834
vt 0.25000 0.84834
vt 0.39373 0.75597
vt 0.40576 0.77521
vt 0.25000 0.86993
vt 0.25000 0.86993
vt 0.40576 0.77521
vt 0.39373 0.75597
vt 0.25000 0.84834
vt 0.39678 0.28520
vt 0.50000 0.28520
vt 0.50000 0.29761
vt 0.38986 0.29761
vt 0.25000 0.92615
vt 0.43634 0.82960
vt 0.40576 0.77521
vt 0.25000 0.86993
vt 0.25000 0.86993
vt 0.40576 0.77521
vt 0.43634 0.82960
vt 0.25000 0.92615
vt 0.25000 0.92615
vt 0.43634 0.82960
vt 0.40576 0.77521
vt 0.25000 0.86993
vt 0.38986 0.29761
vt 0.50000 0.29761
vt 0.50000 0.33176
vt 0.37320 0.33176
vt 0.25000 0.97852
vt 0.46314 0.88594
vt 0.43634 0.82960
vt 0.25000 0.92615
vt 0.25000 0.92615
vt 0.43634 0.82960
vt 0.46314 0.88594
vt 0.25000 0.97852
vt 0.25000 0.97852
vt 0.46314 0.88594
vt 0.43634 0.82960
vt 0.25000 0.92615
vt 0.37320 0.33176
vt 0.50000 0.33176
vt 0.50000 0.36591
vt 0.35960 0.36591
vt 0.32843 1.00000
vt 0.48603 0.94399
vt 0.46314 0.88594
vt 0.25000 0.97852
vt 0.25000 1.00000
vt 0.32843 1.00000
vt 0.25000 0.97852
vt 0.25000 0.97852
vt 0.46314 0.88594
vt 0.48603 0.94399
vt 0.32843 1.00000
vt 0.25000 0.97852
vt 0.32843 1.00000
vt 0.25000 1.00000
vt 0.32843 1.00000
vt 0.48603 0.94399
vt 0.46314 0.88594
vt 0.25000 0.97852
vt 0.25000 1.00000
vt 0.32843 1.00000
vt 0.25000 0.97852
vt 0.35960 0.36591
vt 0.50000 0.36591
vt 0.50000 0.40006
vt 0.39895 0.40006
vt 0.35960 0.36591
vt 0.39895 0.40006
vt 0.35461 0.38054
vt 0.50000 0.99308
vt 0.50000 0.98707
vt 0.48603 0.94399
vt 0.32843 1.00000
vt 0.47642 1.00000
vt 0.50000 0.99308
vt 0.32843 1.00000
vt 0.32843 1.00000
vt 0.48603 0.94399
vt 0.50000 0.98707
vt 0.50000 0.99308
vt 0.32843 1.00000
vt 0.50000 0.99308
vt 0.47642 1.00000
vt 0.50000 0.99308
vt 0.50000 0.98707
vt 0.48603 0.94399
vt 0.32843 1.00000
vt 0.47642 1.00000
vt 0.50000 0.99308
vt 0.32843 1.00000
vt 0.39895 0.40006
vt 0.50000 0.40006
vt 0.49991 0.42484
vt 0.49888 0.42800
vt 0.39895 0.40006
vt 0.49888 0.42800
vt 0.48403 0.42800
vt 0.50000 1.00000
vt 0.50000 0.99308
vt 0.47642 1.00000
vt 0.47642 1.00000
vt 0.50000 0.99308
vt 0.50000 1.00000
vt 0.50000 1.00000
vt 0.50000 0.99308
vt 0.47642 1.00000
vt 0.48403 0.42800
vt 0.49888 0.42800
vt 0.49772 0.43165
vt 0.48622 0.00000
vt 0.50000 0.00000
vt 0.50000 0.90625
vt 0.48622 0.90625
vt 0.97243 0.00000
vt 1.00000 0.00000
vt 1.00000 0.09375
vt 0.97243 0.09375
vt 0.97243 0.00000
vt 1.00000 0.00000
vt 1.00000 0.09375
vt 0.97243 0.09375
vt 0.43500 0.90625
vt 0.50000 0.90625
vt 0.50000 0.00000
vt 0.43500 0.00000
vt 0.04348 0.00000
vt 0.04348 0.90625
vt 0.00000 0.90625
vt 0.00000 0.00000
vt 0.08697 0.00000
vt 0.08697 0.09375
vt 0.00000 0.09375
vt 0.00000 0.00000
vt 0.08697 0.00000
vt 0.08697 0.09375
vt 0.00000 0.09375
vt 0.00000 0.00000
vt 0.00000 0.00000
vt 0.00000 0.90625
vt 0.04348 0.90625
vt 0.04348 0.00000
vt 0.16305 0.00000
vt 0.16305 0.90625
vt 0.04348 0.90625
vt 0.04348 0.00000
vt 0.32609 0.00000
vt 0.32609 0.09375
vt 0.08697 0.09375
vt 0.08697 0.00000
vt 0.32609 0.00000
vt 0.32609 0.09375
vt 0.08697 0.09375
vt 0.08697 0.00000
vt 0.04348 0.00000
vt 0.04348 0.90625
vt 0.16305 0.90625
vt 0.16305 0.00000
vt 0.28261 0.00000
vt 0.28261 0.90625
vt 0.16305 0.90625
vt 0.16305 0.00000
vt 0.56522 0.00000
vt 0.56522 0.09375
vt 0.32609 0.09375
vt 0.32609 0.00000
vt 0.56522 0.00000
vt 0.56522 0.09375
vt 0.32609 0.09375
vt 0.32609 0.00000
vt 0.16305 0.00000
vt 0.16305 0.90625
vt 0.28261 0.90625
vt 0.28261 0.00000
vt 0.40217 0.00000
vt 0.40217 0.90625
vt 0.28261 0.90625
vt 0.28261 0.00000
vt 0.80434 0.00000
vt 0.80434 0.09375
vt 0.56522 0.09375
vt 0.56522 0.00000
vt 0.80434 0.00000
vt 0.80434 0.09375
vt 0.56522 0.09375
vt 0.56522 0.00000
vt 0.28261 0.00000
vt 0.28261 0.90625
vt 0.40217 0.90625
vt 0.40217 0.00000
vt 0.48895 0.00000
vt 0.48895 0.90625
vt 0.40217 0.90625
vt 0.40217 0.00000
vt 0.97790 0.00000
vt 0.97790 0.09375
vt 0.80434 0.09375
vt 0.80434 0.00000
vt 0.97790 0.00000
vt 0.97790 0.09375
vt 0.80434 0.09375
vt 0.80434 0.00000
vt 0.40217 0.00000
vt 0.40217 0.90625
vt 0.49267 0.90625
vt 0.49267 0.00000
vt 0.50000 0.99308
vt 0.50178 0.99255
vt 0.50000 0.98707
vt 0.50000 0.98707
vt 0.50178 0.99255
vt 0.50000 0.99308
vt 0.50000 0.99308
vt 0.50178 0.99255
vt 0.50000 0.98707
vt 0.49991 0.42484
vt 0.50000 0.42800
vt 0.49888 0.42800
vt 0.50000 1.00000
vt 0.50391 1.00000
vt 0.50178 0.99255
vt 0.50000 0.99308
vt 0.50000 0.99308
vt 0.50178 0.99255
vt 0.50391 1.00000
vt 0.50000 1.00000
vt 0.50000 1.00000
vt 0.50391 1.00000
vt 0.50178 0.99255
vt 0.50000 0.99308
vt 0.49888 0.42800
vt 0.50000 0.42800
vt 0.49999 0.43223
vt 0.49772 0.43165
vt 0.48895 0.00000
vt 0.50000 0.00000
vt 0.50000 0.90625
vt 0.48895 0.90625
vt 0.97790 0.00000
vt 1.00000 0.00000
vt 1.00000 0.09375
vt 0.97790 0.09375
vt 0.97790 0.00000
vt 1.00000 0.00000
vt 1.00000 0.09375
vt 0.97790 0.09375
vt 0.01484 0.00000
vt 0.01484 0.90625
vt 0.00000 0.90625
vt 0.00000 0.00000
vt 0.02969 0.00000
vt 0.02969 0.09375
vt 0.00000 0.09375
vt 0.00000 0.00000
vt 0.02969 0.00000
vt 0.02969 0.09375
vt 0.00000 0.09375
vt 0.00000 0.00000
vn 0.00000 1.00000 0.00000
vn 0.00000 1.00000 0.00000
vn 0.00000 1.00000 0.00000
vn 0.00000 -1.00000 0.00000
vn 0.00000 -1.00000 0.00000
vn 0.00000 -1.00000 0.00000
vn 0.00000 1.00000 0.00000
vn 0.00000 1.00000 0.00000
vn 0.00000 1.00000 0.00000
vn 0.00000 -1.00000 0.00000
vn 0.00000 -1.00000 0.00000
vn 0.00000 -1.00000 0.00000
vn 0.00000 1.00000 0.00000
vn 0.00000 1.00000 0.00000
vn 0.00000 1.00000 0.00000
vn 0.00000 1.00000 0.00000
vn 0.00000 -1.00000 0.00000
vn 0.00000 -1.00000 0.00000
vn 0.00000 -1.00000 0.00000
vn 0.00000 -1.00000 0.00000
vn 0.00000 1.00000 0.00000
vn 0.00000 1.00000 0.00000
vn 0.00000 1.00000 0.00000
vn 0.00000 1.00000 0.00000
vn 0.00000 -1.00000 0.00000
vn 0.00000 -1.00000 0.00000
vn 0.00000 -1.00000 0.00000
vn 0.00000 -1.00000 0.00000
vn 0.00000 1.00000 0.00000
vn 0.00000 1.00000 0.00000
vn 0.00000 1.00000 0.00000
vn 0.00000 1.00000 0.00000
vn 0.00000 -1.00000 0.00000
vn 0.00000 -1.00000 0.00000
vn 0.00000 -1.00000 0.00000
vn 0.00000 -1.00000 0.00000
vn 0.00000 1.00000 0.00000
vn 0.00000 1.00000 0.00000
vn 0.00000 1.00000 0.00000
vn 0.00000 1.00000 0.00000
vn 0.00000 -1.00000 0.00000
vn 0.00000 -1.00000 0.00000
vn 0.00000 -1.00000 0.00000
vn 0.00000 -1.00000 0.00000
vn 0.00000 1.00000 0.00000
vn 0.00000 1.00000 0.00000
vn 0.00000 1.00000 0.00000
vn 0.00000 1.00000 0.00000
vn 0.00000 -1.00000 0.00000
vn 0.00000 -1.00000 0.00000
vn 0.00000 -1.00000 0.00000
vn 0.00000 -1.00000 0.00000
vn 0.00000 1.00000 0.00000
vn 0.00000 1.00000 0.00000
vn 0.00000 1.00000 0.00000
vn 0.00000 1.00000 0.00000
vn 0.00000 -1.00000 0.00000
vn 0.00000 -1.00000 0.00000
vn 0.00000 -1.00000 0.00000
vn 0.00000 -1.00000 0.00000
vn 0.00000 1.00000 0.00000
vn 0.00000 1.00000 0.00000
vn 0.00000 1.00000 0.00000
vn 0.00000 1.00000 0.00000
vn 0.00000 -1.00000 0.00000
vn 0.00000 -1.00000 0.00000
vn 0.00000 -1.00000 0.00000
vn 0.00000 -1.00000 0.00000
vn 0.00000 1.00000 0.00000
vn 0.00000 1.00000 0.00000
vn 0.00000 1.00000 0.00000
vn 0.00000 1.00000 0.00000
vn 0.00000 -1.00000 0.00000
vn 0.00000 -1.00000 0.00000
vn 0.00000 -1.00000 0.00000
vn 0.00000 -1.00000 0.00000
vn 0.00000 1.00000 0.00000
vn 0.00000 1.00000 0.00000
vn 0.00000 1.00000 0.00000
vn 0.00000 1.00000 0.00000
vn 0.00000 1.00000 0.00000
vn 0.00000 1.00000 0.00000
vn 0.00000 1.00000 0.00000
vn 0.00000 -1.00000 0.00000
vn 0.00000 -1.00000 0.00000
vn 0.00000 -1.00000 0.00000
vn 0.00000 -1.00000 0.00000
vn 0.00000 -1.00000 0.00000
vn 0.00000 -1.00000 0.00000
vn 0.00000 -1.00000 0.00000
vn 0.00000 1.00000 0.00000
vn 0.00000 1.00000 0.00000
vn 0.00000 1.00000 0.00000
vn 0.00000 1.00000 0.00000
vn 0.00000 1.00000 0.00000
vn 0.00000 1.00000 0.00000
vn 0.00000 1.00000 0.00000
vn 0.00000 -1.00000 0.00000
vn 0.00000 -1.00000 0.00000
vn 0.00000 -1.00000 0.00000
vn 0.00000 -1.00000 0.00000
vn 0.00000 -1.00000 0.00000
vn 0.00000 -1.00000 0.00000
vn 0.00000 -1.00000 0.00000
vn 0.00000 1.00000 0.00000
vn 0.00000 1.00000 0.00000
vn 0.00000 1.00000 0.00000
vn 0.00000 1.00000 0.00000
vn 0.00000 1.00000 0.00000
vn 0.00000 1.00000 0.00000
vn 0.00000 1.00000 0.00000
vn 0.00000 -1.00000 0.00000
vn 0.00000 -1.00000 0.00000
vn 0.00000 -1.00000 0.00000
vn 0.00000 -1.00000 0.00000
vn 0.00000 -1.00000 0.00000
vn 0.00000 -1.00000 0.00000
vn 0.00000 -1.00000 0.00000
vn 0.00000 1.00000 0.00000
vn 0.00000 1.00000 0.00000
vn 0.00000 1.00000 0.00000
vn 0.00000 1.00000 0.00000
vn 0.00000 1.00000 0.00000
vn 0.00000 1.00000 0.00000
vn 0.00000 1.00000 0.00000
vn 0.00000 -1.00000 0.00000
vn 0.00000 -1.00000 0.00000
vn 0.00000 -1.00000 0.00000
vn 0.00000 -1.00000 0.00000
vn 0.00000 -1.00000 0.00000
vn 0.00000 -1.00000 0.00000
vn 0.00000 -1.00000 0.00000
vn 0.00000 1.00000 0.00000
vn 0.00000 1.00000 0.00000
vn 0.00000 1.00000 0.00000
vn 0.00000 1.00000 0.00000
vn 0.00000 -1.00000 0.00000
vn 0.00000 -1.00000 0.00000
vn 0.00000 -1.00000 0.00000
vn 0.00000 -1.00000 0.00000
vn 0.00000 1.00000 0.00000
vn 0.00000 1.00000 0.00000
vn 0.00000 1.00000 0.00000
vn 0.00000 1.00000 0.00000
vn 0.00000 -1.00000 0.00000
vn 0.00000 -1.00000 0.00000
vn 0.00000 -1.00000 0.00000
vn 0.00000 -1.00000 0.00000
vn 0.00000 1.00000 0.00000
vn 0.00000 1.00000 0.00000
vn 0.00000 1.00000 0.00000
vn 0.00000 1.00000 0.00000
vn 0.00000 -1.00000 0.00000
vn 0.00000 -1.00000 0.00000
vn 0.00000 -1.00000 0.00000
vn 0.00000 -1.00000 0.00000
vn 0.00000 1.00000 0.00000
vn 0.00000 1.00000 0.00000
vn 0.00000 1.00000 0.00000
vn 0.00000 1.00000 0.00000
vn 0.00000 -1.00000 0.00000
vn 0.00000 -1.00000 0.00000
vn 0.00000 -1.00000 0.00000
vn 0.00000 -1.00000 0.00000
vn 0.00000 1.00000 0.00000
vn 0.00000 1.00000 0.00000
vn 0.00000 1.00000 0.00000
vn 0.00000 1.00000 0.00000
vn 0.00000 -1.00000 0.00000
vn 0.00000 -1.00000 0.00000
vn 0.00000 -1.00000 0.00000
vn 0.00000 -1.00000 0.00000
vn 0.00000 1.00000 0.00000
vn 0.00000 1.00000 0.00000
vn 0.00000 1.00000 0.00000
vn 0.00000 1.00000 0.00000
vn 0.00000 -1.00000 0.00000
vn 0.00000 -1.00000 0.00000
vn 0.00000 -1.00000 0.00000
vn 0.00000 -1.00000 0.00000
vn 0.00000 1.00000 0.00000
vn 0.00000 1.00000 0.00000
vn 0.00000 1.00000 0.00000
vn 0.00000 -1.00000 0.00000
vn 0.00000 -1.00000 0.00000
vn 0.00000 -1.00000 0.00000
vn 0.00000 1.00000 0.00000
vn 0.00000 1.00000 0.00000
vn 0.00000 1.00000 0.00000
vn 0.00000 -1.00000 0.00000
vn 0.00000 -1.00000 0.00000
vn 0.00000 -1.00000 0.00000
vn 0.00000 1.00000 0.00000
vn 0.00000 1.00000 0.00000
vn 0.00000 1.00000 0.00000
vn 0.00000 -1.00000 0.00000
vn 0.00000 -1.00000 0.00000
vn 0.00000 -1.00000 0.00000
vn 0.00000 1.00000 0.00000
vn 0.00000 1.00000 0.00000
vn 0.00000 1.00000 0.00000
vn 0.00000 -1.00000 0.00000
vn 0.00000 -1.00000 0.00000
vn 0.00000 -1.00000 0.00000
vn 0.00000 1.00000 0.00000
vn 0.00000 1.00000 0.00000
vn 0.00000 1.00000 0.00000
vn 0.00000 1.00000 0.00000
vn 0.00000 -1.00000 0.00000
vn 0.00000 -1.00000 0.00000
vn 0.00000 -1.00000 0.00000
vn 0.00000 -1.00000 0.00000
vn 0.00000 1.00000 0.00000
vn 0.00000 1.00000 0.00000
vn 0.00000 1.00000 0.00000
vn 0.00000 1.00000 0.00000
vn 0.00000 -1.00000 0.00000
vn 0.00000 -1.00000 0.00000
vn 0.00000 -1.00000 0.00000
vn 0.00000 -1.00000 0.00000
vn 0.00000 1.00000 0.00000
vn 0.00000 1.00000 0.00000
vn 0.00000 1.00000 0.00000
vn 0.00000 1.00000 0.00000
vn 0.00000 1.00000 0.00000
vn 0.00000 1.00000 0.00000
vn 0.00000 1.00000 0.00000
vn 0.00000 -1.00000 0.00000
vn 0.00000 -1.00000 0.00000
vn 0.00000 -1.00000 0.00000
vn 0.00000 -1.00000 0.00000
vn 0.00000 -1.00000 0.00000
vn 0.00000 -1.00000 0.00000
vn 0.00000 -1.00000 0.00000
vn 0.00000 1.00000 0.00000
vn 0.00000 1.00000 0.00000
vn 0.00000 1.00000 0.00000
vn 0.00000 1.00000 0.00000
vn 0.00000 1.00000 0.00000
vn 0.00000 1.00000 0.00000
vn 0.00000 1.00000 0.00000
vn 0.00000 -1.00000 0.00000
vn 0.00000 -1.00000 0.00000
vn 0.00000 -1.00000 0.00000
vn 0.00000 -1.00000 0.00000
vn 0.00000 -1.00000 0.00000
vn 0.00000 -1.00000 0.00000
vn 0.00000 -1.00000 0.00000
vn 0.00000 1.00000 0.00000
vn 0.00000 1.00000 0.00000
vn 0.00000 1.00000 0.00000
vn 0.00000 -1.00000 0.00000
vn 0.00000 -1.00000 0.00000
vn 0.00000 -1.00000 0.00000
vn 0.00000 1.00000 0.00000
vn 0.00000 1.00000 0.00000
vn 0.00000 1.00000 0.00000
vn 0.00000 -1.00000 0.00000
vn 0.00000 -1.00000 0.00000
vn 0.00000 -1.00000 0.00000
vn 0.70711 0.00000 -0.70711
vn 0.70711 0.00000 -0.70711
vn 0.70711 0.00000 -0.70711
vn 0.70711 0.00000 -0.70711
vn 0.70711 0.00000 -0.70711
vn 0.70711 0.00000 -0.70711
vn 0.70711 0.00000 -0.70711
vn 0.70711 0.00000 -0.70711
vn 0.70711 0.00000 -0.70711
vn 0.70711 0.00000 -0.70711
vn 0.70711 0.00000 -0.70711
vn 0.70711 0.00000 -0.70711
vn -0.70711 0.00000 0.70711
vn -0.70711 0.00000 0.70711
vn -0.70711 0.00000 0.70711
vn -0.70711 0.00000 0.70711
vn 0.75371 0.00000 -0.65720
vn 0.75371 0.00000 -0.65720
vn 0.75371 0.00000 -0.65720
vn 0.75371 0.00000 -0.65720
vn 0.75371 0.00000 -0.65720
vn 0.75371 0.00000 -0.65720
vn 0.75371 0.00000 -0.65720
vn 0.75371 0.00000 -0.65720
vn 0.75371 0.00000 -0.65720
vn 0.75371 0.00000 -0.65720
vn 0.75371 0.00000 -0.65720
vn 0.75371 0.00000 -0.65720
vn -0.75371 0.00000 0.65720
vn -0.75371 0.00000 0.65720
vn -0.75371 0.00000 0.65720
vn -0.75371 0.00000 0.65720
vn 0.79681 0.00000 -0.60424
vn 0.79681 0.00000 -0.60424
vn 0.79681 0.00000 -0.60424
vn 0.79681 0.00000 -0.60424
vn 0.79681 0.00000 -0.60424
vn 0.79681 0.00000 -0.60424
vn 0.79681 0.00000 -0.60424
vn 0.79681 0.00000 -0.60424
vn 0.79681 0.00000 -0.60424
vn 0.79681 0.00000 -0.60424
vn 0.79681 0.00000 -0.60424
vn 0.79681 0.00000 -0.60424
vn -0.79681 0.00000 0.60424
vn -0.79681 0.00000 0.60424
vn -0.79681 0.00000 0.60424
vn -0.79681 0.00000 0.60424
vn 0.82931 0.00000 -0.55879
vn 0.82931 0.00000 -0.55879
vn 0.82931 0.00000 -0.55879
vn 0.82931 0.00000 -0.55879
vn 0.82931 0.00000 -0.55879
vn 0.82931 0.00000 -0.55879
vn 0.82931 0.00000 -0.55879
vn 0.82931 0.00000 -0.55879
vn 0.82931 0.00000 -0.55879
vn 0.82931 0.00000 -0.55879
vn 0.82931 0.00000 -0.55879
vn 0.82931 0.00000 -0.55879
vn -0.82931 0.00000 0.55879
vn -0.82931 0.00000 0.55879
vn -0.82931 0.00000 0.55879
vn -0.82931 0.00000 0.55879
vn 0.00000 1.00000 0.00000
vn 0.00000 1.00000 0.00000
vn 0.00000 1.00000 0.00000
vn 0.00000 -1.00000 0.00000
vn 0.00000 -1.00000 0.00000
vn 0.00000 -1.00000 0.00000
vn 0.00000 1.00000 0.00000
vn 0.00000 1.00000 0.00000
vn 0.00000 1.00000 0.00000
vn 0.00000 -1.00000 0.00000
vn 0.00000 -1.00000 0.00000
vn 0.00000 -1.00000 0.00000
vn 0.00000 1.00000 0.00000
vn 0.00000 1.00000 0.00000
vn 0.00000 1.00000 0.00000
vn 0.00000 1.00000 0.00000
vn 0.00000 1.00000 0.00000
vn 0.00000 1.00000 0.00000
vn 0.00000 1.00000 0.00000
vn 0.00000 -1.00000 0.00000
vn 0.00000 -1.00000 0.00000
vn 0.00000 -1.00000 0.00000
vn 0.00000 -1.00000 0.00000
vn 0.00000 -1.00000 0.00000
vn 0.00000 -1.00000 0.00000
vn 0.00000 -1.00000 0.00000
vn 0.00000 1.00000 0.00000
vn 0.00000 1.00000 0.00000
vn 0.00000 1.00000 0.00000
vn 0.00000 1.00000 0.00000
vn 0.00000 1.00000 0.00000
vn 0.00000 1.00000 0.00000
vn 0.00000 1.00000 0.00000
vn 0.00000 -1.00000 0.00000
vn 0.00000 -1.00000 0.00000
vn 0.00000 -1.00000 0.00000
vn 0.00000 -1.00000 0.00000
vn 0.00000 -1.00000 0.00000
vn 0.00000 -1.00000 0.00000
vn 0.00000 -1.00000 0.00000
vn 0.00000 1.00000 0.00000
vn 0.00000 1.00000 0.00000
vn 0.00000 1.00000 0.00000
vn 0.00000 1.00000 0.00000
vn 0.00000 -1.00000 0.00000
vn 0.00000 -1.00000 0.00000
vn 0.00000 -1.00000 0.00000
vn 0.00000 -1.00000 0.00000
vn 0.00000 1.00000 0.00000
vn 0.00000 1.00000 0.00000
vn 0.00000 1.00000 0.00000
vn 0.00000 1.00000 0.00000
vn 0.00000 -1.00000 0.00000
vn 0.00000 -1.00000 0.00000
vn 0.00000 -1.00000 0.00000
vn 0.00000 -1.00000 0.00000
vn 0.00000 1.00000 0.00000
vn 0.00000 1.00000 0.00000
vn 0.00000 1.00000 0.00000
vn 0.00000 1.00000 0.00000
vn 0.00000 -1.00000 0.00000
vn 0.00000 -1.00000 0.00000
vn 0.00000 -1.00000 0.00000
vn 0.00000 -1.00000 0.00000
vn 0.00000 1.00000 0.00000
vn 0.00000 1.00000 0.00000
vn 0.00000 1.00000 0.00000
vn 0.00000 1.00000 0.00000
vn 0.00000 -1.00000 0.00000
vn 0.00000 -1.00000 0.00000
vn 0.00000 -1.00000 0.00000
vn 0.00000 -1.00000 0.00000
vn 0.00000 1.00000 0.00000
vn 0.00000 1.00000 0.00000
vn 0.00000 1.00000 0.00000
vn 0.00000 1.00000 0.00000
vn 0.00000 -1.00000 0.00000
vn 0.00000 -1.00000 0.00000
vn 0.00000 -1.00000 0.00000
vn 0.00000 -1.00000 0.00000
vn 0.00000 1.00000 0.00000
vn 0.00000 1.00000 0.00000
vn 0.00000 1.00000 0.00000
vn 0.00000 1.00000 0.00000
vn 0.00000 -1.00000 0.00000
vn 0.00000 -1.00000 0.00000
vn 0.00000 -1.00000 0.00000
vn 0.00000 -1.00000 0.00000
vn 0.00000 1.00000 0.00000
vn 0.00000 1.00000 0.00000
vn 0.00000 1.00000 0.00000
vn 0.00000 1.00000 0.00000
vn 0.00000 1.00000 0.00000
vn 0.00000 1.00000 0.00000
vn 0.00000 1.00000 0.00000
vn 0.00000 -1.00000 0.00000
vn 0.00000 -1.00000 0.00000
vn 0.00000 -1.00000 0.00000
vn 0.00000 -1.00000 0.00000
vn 0.00000 -1.00000 0.00000
vn 0.00000 -1.00000 0.00000
vn 0.00000 -1.00000 0.00000
vn 0.00000 1.00000 0.00000
vn 0.00000 1.00000 0.00000
vn 0.00000 1.00000 0.00000
vn 0.00000 1.00000 0.00000
vn 0.00000 1.00000 0.00000
vn 0.00000 1.00000 0.00000
vn 0.00000 1.00000 0.00000
vn 0.00000 -1.00000 0.00000
vn 0.00000 -1.00000 0.00000
vn 0.00000 -1.00000 0.00000
vn 0.00000 -1.00000 0.00000
vn 0.00000 -1.00000 0.00000
vn 0.00000 -1.00000 0.00000
vn 0.00000 -1.00000 0.00000
vn 0.00000 1.00000 0.00000
vn 0.00000 1.00000 0.00000
vn 0.00000 1.00000 0.00000
vn 0.00000 1.00000 0.00000
vn 0.00000 1.00000 0.00000
vn 0.00000 1.00000 0.00000
vn 0.00000 1.00000 0.00000
vn 0.00000 -1.00000 0.00000
vn 0.00000 -1.00000 0.00000
vn 0.00000 -1.00000 0.00000
vn 0.00000 -1.00000 0.00000
vn 0.00000 -1.00000 0.00000
vn 0.00000 -1.00000 0.00000
vn 0.00000 -1.00000 0.00000
vn 0.00000 1.00000 0.00000
vn 0.00000 1.00000 0.00000
vn 0.00000 1.00000 0.00000
vn 0.00000 1.00000 0.00000
vn 0.00000 1.00000 0.00000
vn 0.00000 1.00000 0.00000
vn 0.00000 1.00000 0.00000
vn 0.00000 -1.00000 0.00000
vn 0.00000 -1.00000 0.00000
vn 0.00000 -1.00000 0.00000
vn 0.00000 -1.00000 0.00000
vn 0.00000 -1.00000 0.00000
vn 0.00000 -1.00000 0.00000
vn 0.00000 -1.00000 0.00000
vn 0.00000 1.00000 0.00000
vn 0.00000 1.00000 0.00000
vn 0.00000 1.00000 0.00000
vn 0.00000 -1.00000 0.00000
vn 0.00000 -1.00000 0.00000
vn 0.00000 -1.00000 0.00000
vn 0.00000 1.00000 0.00000
vn 0.00000 1.00000 0.00000
vn 0.00000 1.00000 0.00000
vn 0.00000 -1.00000 0.00000
vn 0.00000 -1.00000 0.00000
vn 0.00000 -1.00000 0.00000
vn 0.82931 0.00000 -0.55879
vn 0.82931 0.00000 -0.55879
vn 0.82931 0.00000 -0.55879
vn 0.82931 0.00000 -0.55879
vn 0.82931 0.00000 -0.55879
vn 0.82931 0.00000 -0.55879
vn 0.82931 0.00000 -0.55879
vn 0.82931 0.00000 -0.55879
vn 0.82931 0.00000 -0.55879
vn 0.82931 0.00000 -0.55879
vn 0.82931 0.00000 -0.55879
vn 0.82931 0.00000 -0.55879
vn -0.82931 0.00000 0.55879
vn -0.82931 0.00000 0.55879
vn -0.82931 0.00000 0.55879
vn -0.82931 0.00000 0.55879
vn 0.84790 0.00000 -0.53015
vn 0.84790 0.00000 -0.53015
vn 0.84790 0.00000 -0.53015
vn 0.84790 0.00000 -0.53015
vn 0.84790 0.00000 -0.53015
vn 0.84790 0.00000 -0.53015
vn 0.84790 0.00000 -0.53015
vn 0.84790 0.00000 -0.53015
vn 0.84790 0.00000 -0.53015
vn 0.84790 0.00000 -0.53015
vn 0.84790 0.00000 -0.53015
vn 0.84790 0.00000 -0.53015
vn -0.84790 0.00000 0.53015
vn -0.84790 0.00000 0.53015
vn -0.84790 0.00000 0.53015
vn -0.84790 0.00000 0.53015
vn 0.87166 0.00000 -0.49011
vn 0.87166 0.00000 -0.49011
vn 0.87166 0.00000 -0.49011
vn 0.87166 0.00000 -0.49011
vn 0.87166 0.00000 -0.49011
vn 0.87166 0.00000 -0.49011
vn 0.87166 0.00000 -0.49011
vn 0.87166 0.00000 -0.49011
vn 0.87166 0.00000 -0.49011
vn 0.87166 0.00000 -0.49011
vn 0.87166 0.00000 -0.49011
vn 0.87166 0.00000 -0.49011
vn -0.87166 0.00000 0.49011
vn -0.87166 0.00000 0.49011
vn -0.87166 0.00000 0.49011
vn -0.87166 0.00000 0.49011
vn 0.90307 0.00000 -0.42948
vn 0.90307 0.00000 -0.42948
vn 0.90307 0.00000 -0.42948
vn 0.90307 0.00000 -0.42948
vn 0.90307 0.00000 -0.42948
vn 0.90307 0.00000 -0.42948
vn 0.90307 0.00000 -0.42948
vn 0.90307 0.00000 -0.42948
vn 0.90307 0.00000 -0.42948
vn 0.90307 0.00000 -0.42948
vn 0.90307 0.00000 -0.42948
vn 0.90307 0.00000 -0.42948
vn -0.90307 0.00000 0.42948
vn -0.90307 0.00000 0.42948
vn -0.90307 0.00000 0.42948
vn -0.90307 0.00000 0.42948
vn 0.93028 0.00000 -0.36685
vn 0.93028 0.00000 -0.36685
vn 0.93028 0.00000 -0.36685
vn 0.93028 0.00000 -0.36685
vn 0.93028 0.00000 -0.36685
vn 0.93028 0.00000 -0.36685
vn 0.93028 0.00000 -0.36685
vn 0.93028 0.00000 -0.36685
vn 0.93028 0.00000 -0.36685
vn 0.93028 0.00000 -0.36685
vn 0.93028 0.00000 -0.36685
vn 0.93028 0.00000 -0.36685
vn -0.93028 0.00000 0.36685
vn -0.93028 0.00000 0.36685
vn -0.93028 0.00000 0.36685
vn -0.93028 0.00000 0.36685
vn 0.95125 0.00000 -0.30843
vn 0.95125 0.00000 -0.30843
vn 0.95125 0.00000 -0.30843
vn 0.95125 0.00000 -0.30843
vn 0.95125 0.00000 -0.30843
vn 0.95125 0.00000 -0.30843
vn 0.95125 0.00000 -0.30843
vn 0.95125 0.00000 -0.30843
vn 0.95125 0.00000 -0.30843
vn 0.95125 0.00000 -0.30843
vn 0.95125 0.00000 -0.30843
vn 0.95125 0.00000 -0.30843
vn -0.95125 0.00000 0.30843
vn -0.95125 0.00000 0.30843
vn -0.95125 0.00000 0.30843
vn -0.95125 0.00000 0.30843
vn 0.00000 1.00000 0.00000
vn 0.00000 1.00000 0.00000
vn 0.00000 1.00000 0.00000
vn 0.00000 -1.00000 0.00000
vn 0.00000 -1.00000 0.00000
vn 0.00000 -1.00000 0.00000
vn 0.00000 1.00000 0.00000
vn 0.00000 1.00000 0.00000
vn 0.00000 1.00000 0.00000
vn 0.00000 -1.00000 0.00000
vn 0.00000 -1.00000 0.00000
vn 0.00000 -1.00000 0.00000
vn 0.00000 1.00000 0.00000
vn 0.00000 1.00000 0.00000
vn 0.00000 1.00000 0.00000
vn 0.00000 1.00000 0.00000
vn 0.00000 -1.00000 0.00000
vn 0.00000 -1.00000 0.00000
vn 0.00000 -1.00000 0.00000
vn 0.00000 -1.00000 0.00000
vn 0.00000 1.00000 0.00000
vn 0.00000 1.00000 0.00000
vn 0.00000 1.00000 0.00000
vn 0.00000 1.00000 0.00000
vn 0.00000 -1.00000 0.00000
vn 0.00000 -1.00000 0.00000
vn 0.00000 -1.00000 0.00000
vn 0.00000 -1.00000 0.00000
vn 0.95125 0.00000 -0.30843
vn 0.95125 0.00000 -0.30843
vn 0.95125 0.00000 -0.30843
vn 0.95125 0.00000 -0.30843
vn 0.95125 0.00000 -0.30843
vn 0.95125 0.00000 -0.30843
vn 0.95125 0.00000 -0.30843
vn 0.95125 0.00000 -0.30843
vn 0.95125 0.00000 -0.30843
vn 0.95125 0.00000 -0.30843
vn 0.95125 0.00000 -0.30843
vn 0.95125 0.00000 -0.30843
vn 0.96122 0.00000 -0.27577
vn 0.96122 0.00000 -0.27577
vn 0.96122 0.00000 -0.27577
vn 0.96122 0.00000 -0.27577
vn 0.96122 0.00000 -0.27577
vn 0.96122 0.00000 -0.27577
vn 0.96122 0.00000 -0.27577
vn 0.96122 0.00000 -0.27577
vn 0.96122 0.00000 -0.27577
vn 0.96122 0.00000 -0.27577
vn 0.96122 0.00000 -0.27577
vn 0.96122 0.00000 -0.27577
usemtl ceiling
f 10/10/10 11/11/11 12/12/12
f 25/25/25 26/26/26 27/27/27 28/28/28
f 41/41/41 42/42/42 43/43/43 44/44/44
f 57/57/57 58/58/58 59/59/59 60/60/60
f 73/73/73 74/74/74 75/75/75 76/76/76
f 98/98/98 99/99/99 100/100/100 101/101/101
f 102/102/102 103/103/103 104/104/104
f 126/126/126 127/127/127 128/128/128 129/129/129
f 130/130/130 131/131/131 132/132/132
f 145/145/145 146/146/146 147/147/147 148/148/148
f 161/161/161 162/162/162 163/163/163 164/164/164
f 177/177/177 178/178/178 179/179/179 180/180/180
f 190/190/190 191/191/191 192/192/192
f 202/202/202 203/203/203 204/204/204
f 217/217/217 218/218/218 219/219/219 220/220/220
f 242/242/242 243/243/243 244/244/244 245/245/245
f 246/246/246 247/247/247 248/248/248
f 258/258/258 259/259/259 260/260/260
f 334/334/334 335/335/335 336/336/336
f 358/358/358 359/359/359 360/360/360 361/361/361
f 362/362/362 363/363/363 364/364/364
f 377/377/377 378/378/378 379/379/379 380/380/380
f 393/393/393 394/394/394 395/395/395 396/396/396
f 409/409/409 410/410/410 411/411/411 412/412/412
f 434/434/434 435/435/435 436/436/436 437/437/437
f 438/438/438 439/439/439 440/440/440
f 462/462/462 463/463/463 464/464/464 465/465/465
f 466/466/466 467/467/467 468/468/468
f 478/478/478 479/479/479 480/480/480
f 586/586/586 587/587/587 588/588/588
f 601/601/601 602/602/602 603/603/603 604/604/604
usemtl floor
f 1/1/1 2/2/2 3/3/3
f 13/13/13 14/14/14 15/15/15 16/16/16
f 29/29/29 30/30/30 31/31/31 32/32/32
f 45/45/45 46/46/46 47/47/47 48/48/48
f 61/61/61 62/62/62 63/63/63 64/64/64
f 77/77/77 78/78/78 79/79/79 80/80/80
f 81/81/81 82/82/82 83/83/83
f 105/105/105 106/106/106 107/107/107 108/108/108
f 109/109/109 110/110/110 111/111/111
f 133/133/133 134/134/134 135/135/135 136/136/136
f 149/149/149 150/150/150 151/151/151 152/152/152
f 165/165/165 166/166/166 167/167/167 168/168/168
f 181/181/181 182/182/182 183/183/183
f 193/193/193 194/194/194 195/195/195
f 205/205/205 206/206/206 207/207/207 208/208/208
f 221/221/221 222/222/222 223/223/223 224/224/224
f 225/225/225 226/226/226 227/227/227
f 249/249/249 250/250/250 251/251/251
f 325/325/325 326/326/326 327/327/327
f 337/337/337 338/338/338 339/339/339 340/340/340
f 341/341/341 342/342/342 343/343/343
f 365/365/365 366/366/366 367/367/367 368/368/368
f 381/381/381 382/382/382 383/383/383 384/384/384
f 397/397/397 398/398/398 399/399/399 400/400/400
f 413/413/413 414/414/414 415/415/415 416/416/416
f 417/417/417 418/418/418 419/419/419
f 441/441/441 442/442/442 443/443/443 444/444/444
f 445/445/445 446/446/446 447/447/447
f 469/469/469 470/470/470 471/471/471
f 577/577/577 578/578/578 579/579/579
f 589/589/589 590/590/590 591/591/591 592/592/592
usemtl frame
f 265/265/265 266/266/266 267/267/267 268/268/268
f 269/269/269 270/270/270 271/271/271 272/272/272
f 281/281/281 282/282/282 283/283/283 284/284/284
f 285/285/285 286/286/286 287/287/287 288/288/288
f 297/297/297 298/298/298 299/299/299 300/300/300
f 301/301/301 302/302/302 303/303/303 304/304/304
f 313/313/313 314/314/314 315/315/315 316/316/316
f 317/317/317 318/318/318 319/319/319 320/320/320
f 485/485/485 486/486/486 487/487/487 488/488/488
f 489/489/489 490/490/490 491/491/491 492/492/492
f 501/501/501 502/502/502 503/503/503 504/504/504
f 505/505/505 506/506/506 507/507/507 508/508/508
f 517/517/517 518/518/518 519/519/519 520/520/520
f 521/521/521 522/522/522 523/523/523 524/524/524
f 533/533/533 534/534/534 535/535/535 536/536/536
f 537/537/537 538/538/538 539/539/539 540/540/540
f 549/549/549 550/550/550 551/551/551 552/552/552
f 553/553/553 554/554/554 555/555/555 556/556/556
f 565/565/565 566/566/566 567/567/567 568/568/568
f 569/569/569 570/570/570 571/571/571 572/572/572
f 609/609/609 610/610/610 611/611/611 612/612/612
f 613/613/613 614/614/614 615/615/615 616/616/616
f 621/621/621 622/622/622 623/623/623 624/624/624
f 625/625/625 626/626/626 627/627/627 628/628/628
usemtl inner
f 273/273/273 274/274/274 275/275/275 276/276/276
f 289/289/289 290/290/290 291/291/291 292/292/292
f 305/305/305 306/306/306 307/307/307 308/308/308
f 321/321/321 322/322/322 323/323/323 324/324/324
f 493/493/493 494/494/494 495/495/495 496/496/496
f 509/509/509 510/510/510 511/511/511 512/512/512
f 525/525/525 526/526/526 527/527/527 528/528/528
f 541/541/541 542/542/542 543/543/543 544/544/544
f 557/557/557 558/558/558 559/559/559 560/560/560
f 573/573/573 574/574/574 575/575/575 576/576/576
usemtl roof
f 7/7/7 8/8/8 9/9/9
f 21/21/21 22/22/22 23/23/23 24/24/24
f 37/37/37 38/38/38 39/39/39 40/40/40
f 53/53/53 54/54/54 55/55/55 56/56/56
f 69/69/69 70/70/70 71/71/71 72/72/72
f 91/91/91 92/92/92 93/93/93 94/94/94
f 95/95/95 96/96/96 97/97/97
f 119/119/119 120/120/120 121/121/121 122/122/122
f 123/123/123 124/124/124 125/125/125
f 141/141/141 142/142/142 143/143/143 144/144/144
f 157/157/157 158/158/158 159/159/159 160/160/160
f 173/173/173 174/174/174 175/175/175 176/176/176
f 187/187/187 188/188/188 189/189/189
f 199/199/199 200/200/200 201/201/201
f 213/213/213 214/214/214 215/215/215 216/216/216
f 235/235/235 236/236/236 237/237/237 238/238/238
f 239/239/239 240/240/240 241/241/241
f 255/255/255 256/256/256 257/257/257
f 331/331/331 332/332/332 333/333/333
f 351/351/351 352/352/352 353/353/353 354/354/354
f 355/355/355 356/356/356 357/357/357
f 373/373/373 374/374/374 375/375/375 376/376/376
f 389/389/389 390/390/390 391/391/391 392/392/392
f 405/405/405 406/406/406 407/407/407 408/408/408
f 427/427/427 428/428/428 429/429/429 430/430/430
f 431/431/431 432/432/432 433/433/433
f 455/455/455 456/456/456 457/457/457 458/458/458
f 459/459/459 460/460/460 461/461/461
f 475/475/475 476/476/476 477/477/477
f 583/583/583 584/584/584 585/585/585
f 597/597/597 598/598/598 599/599/599 600/600/600
usemtl skin
f 261/261/261 262/262/262 263/263/263 264/264/264
f 277/277/277 278/278/278 279/279/279 280/280/280
f 293/293/293 294/294/294 295/295/295 296/296/296
f 309/309/309 310/310/310 311/311/311 312/312/312
f 481/481/481 482/482/482 483/483/483 484/484/484
f 497/497/497 498/498/498 499/499/499 500/500/500
f 513/513/513 514/514/514 515/515/515 516/516/516
f 529/529/529 530/530/530 531/531/531 532/532/532
f 545/545/545 546/546/546 547/547/547 548/548/548
f 561/561/561 562/562/562 563/563/563 564/564/564
f 605/605/605 606/606/606 607/607/607 608/608/608
f 617/617/617 618/618/618 619/619/619 620/620/620
usemtl under
f 4/4/4 5/5/5 6/6/6
f 17/17/17 18/18/18 19/19/19 20/20/20
f 33/33/33 34/34/34 35/35/35 36/36/36
f 49/49/49 50/50/50 51/51/51 52/52/52
f 65/65/65 66/66/66 67/67/67 68/68/68
f 84/84/84 85/85/85 86/86/86 87/87/87
f 88/88/88 89/89/89 90/90/90
f 112/112/112 113/113/113 114/114/114 115/115/115
f 116/116/116 117/117/117 118/118/118
f 137/137/137 138/138/138 139/139/139 140/140/140
f 153/153/153 154/154/154 155/155/155 156/156/156
f 169/169/169 170/170/170 171/171/171 172/172/172
f 184/184/184 185/185/185 186/186/186
f 196/196/196 197/197/197 198/198/198
f 209/209/209 210/210/210 211/211/211 212/212/212
f 228/228/228 229/229/229 230/230/230 231/231/231
f 232/232/232 233/233/233 234/234/234
f 252/252/252 253/253/253 254/254/254
f 328/328/328 329/329/329 330/330/330
f 344/344/344 345/345/345 346/346/346 347/347/347
f 348/348/348 349/349/349 350/350/350
f 369/369/369 370/370/370 371/371/371 372/372/372
f 385/385/385 386/386/386 387/387/387 388/388/388
f 401/401/401 402/402/402 403/403/403 404/404/404
f 420/420/420 421/421/421 422/422/422 423/423/423
f 424/424/424 425/425/425 426/426/426
f 448/448/448 449/449/449 450/450/450 451/451/451
f 452/452/452 453/453/453 454/454/454
f 472/472/472 473/473/473 474/474/474
f 580/580/580 581/581/581 582/582/582
f 593/593/593 594/594/594 595/595/595 596/596/596
