# Generated by dev-env-utils/scripts/gen_transit_airside.py -- do not edit
mtllib jet_bridge_slope.mtl
o airport_jet_bridge_turn_c5
v 0.16864 0.09375 1.00000
v 0.00000 0.09375 0.90792
v 0.00000 0.09375 1.00000
v 0.00000 0.00000 1.00000
v 0.00000 0.00000 0.90792
v 0.16864 0.00000 1.00000
v 0.16864 1.97500 1.00000
v 0.00000 1.97500 0.90792
v 0.00000 1.97500 1.00000
v 0.00000 1.90625 1.00000
v 0.00000 1.90625 0.90792
v 0.16864 1.90625 1.00000
v 0.26795 0.09375 1.00000
v 0.00000 0.09375 0.84530
v 0.00000 0.09375 0.90792
v 0.16864 0.09375 1.00000
v 0.16864 0.00000 1.00000
v 0.00000 0.00000 0.90792
v 0.00000 0.00000 0.84530
v 0.26795 0.00000 1.00000
v 0.26795 1.97500 1.00000
v 0.00000 1.97500 0.84530
v 0.00000 1.97500 0.90792
v 0.16864 1.97500 1.00000
v 0.16864 1.90625 1.00000
v 0.00000 1.90625 0.90792
v 0.00000 1.90625 0.84530
v 0.26795 1.90625 1.00000
v 0.44397 0.09375 1.00000
v -0.00000 0.09375 0.71468
v 0.00000 0.09375 0.84530
v 0.26795 0.09375 1.00000
v 0.26795 0.00000 1.00000
v 0.00000 0.00000 0.84530
v -0.00000 0.00000 0.71468
v 0.44397 0.00000 1.00000
v 0.44397 1.97500 1.00000
v -0.00000 1.97500 0.71468
v 0.00000 1.97500 0.84530
v 0.26795 1.97500 1.00000
v 0.26795 1.90625 1.00000
v 0.00000 1.90625 0.84530
v -0.00000 1.90625 0.71468
v 0.44397 1.90625 1.00000
v 0.62362 0.09375 1.00000
v -0.00000 0.09375 0.54691
v 0.00000 0.09375 0.71468
v 0.44397 0.09375 1.00000
v 0.44397 0.00000 1.00000
v 0.00000 0.00000 0.71468
v -0.00000 0.00000 0.54691
v 0.62362 0.00000 1.00000
v 0.62362 1.97500 1.00000
v -0.00000 1.97500 0.54691
v 0.00000 1.97500 0.71468
v 0.44397 1.97500 1.00000
v 0.44397 1.90625 1.00000
v 0.00000 1.90625 0.71468
v -0.00000 1.90625 0.54691
v 0.62362 1.90625 1.00000
v 0.66416 0.09375 1.00000
v 0.00000 0.09375 0.50282
v 0.00000 0.09375 0.54691
v 0.62362 0.09375 1.00000
v 0.62362 0.00000 1.00000
v 0.00000 0.00000 0.54691
v 0.00000 0.00000 0.50282
v 0.66416 0.00000 1.00000
v 0.66416 1.97500 1.00000
v 0.00000 1.97500 0.50282
v 0.00000 1.97500 0.54691
v 0.62362 1.97500 1.00000
v 0.62362 1.90625 1.00000
v 0.00000 1.90625 0.54691
v 0.00000 1.90625 0.50282
v 0.66416 1.90625 1.00000
v 0.84594 0.09375 1.00000
v 0.00000 0.09375 0.26699
v 0.00000 0.09375 0.50282
v 0.66416 0.09375 1.00000
v 0.66416 0.00000 1.00000
v 0.00000 0.00000 0.50282
v 0.00000 0.00000 0.26699
v 0.84594 0.00000 1.00000
v 0.84594 1.97500 1.00000
v 0.00000 1.97500 0.26699
v 0.00000 1.97500 0.50282
v 0.66416 1.97500 1.00000
v 0.66416 1.90625 1.00000
v 0.00000 1.90625 0.50282
v 0.00000 1.90625 0.26699
v 0.84594 1.90625 1.00000
v 0.93934 0.09375 0.93934
v 0.00000 0.09375 0.00000
v 0.00000 0.09375 0.26699
v 0.84594 0.09375 1.00000
v 0.88286 0.09375 1.00000
v 0.93934 0.09375 0.93934
v 0.84594 0.09375 1.00000
v 0.84594 0.00000 1.00000
v 0.00000 0.00000 0.26699
v 0.00000 0.00000 0.00000
v 0.93934 0.00000 0.93934
v 0.84594 0.00000 1.00000
v 0.93934 0.00000 0.93934
v 0.88286 0.00000 1.00000
v 0.93934 1.97500 0.93934
v 0.00000 1.97500 0.00000
v 0.00000 1.97500 0.26699
v 0.84594 1.97500 1.00000
v 0.88286 1.97500 1.00000
v 0.93934 1.97500 0.93934
v 0.84594 1.97500 1.00000
v 0.84594 1.90625 1.00000
v 0.00000 1.90625 0.26699
v 0.00000 1.90625 0.00000
v 0.93934 1.90625 0.93934
v 0.84594 1.90625 1.00000
v 0.93934 1.90625 0.93934
v 0.88286 1.90625 1.00000
v 1.00000 0.09375 0.84594
v 0.26699 0.09375 0.00000
v 0.00000 0.09375 0.00000
v 0.93934 0.09375 0.93934
v 1.00000 0.09375 0.88286
v 1.00000 0.09375 0.84594
v 0.93934 0.09375 0.93934
v 0.93934 0.00000 0.93934
v 0.00000 0.00000 0.00000
v 0.26699 0.00000 0.00000
v 1.00000 0.00000 0.84594
v 0.93934 0.00000 0.93934
v 1.00000 0.00000 0.84594
v 1.00000 0.00000 0.88286
v 1.00000 1.97500 0.84594
v 0.26699 1.97500 0.00000
v 0.00000 1.97500 0.00000
v 0.93934 1.97500 0.93934
v 1.00000 1.97500 0.88286
v 1.00000 1.97500 0.84594
v 0.93934 1.97500 0.93934
v 0.93934 1.90625 0.93934
v 0.00000 1.90625 0.00000
v 0.26699 1.90625 0.00000
v 1.00000 1.90625 0.84594
v 0.93934 1.90625 0.93934
v 1.00000 1.90625 0.84594
v 1.00000 1.90625 0.88286
v 1.00000 0.09375 0.66416
v 0.50282 0.09375 0.00000
v 0.26699 0.09375 0.00000
v 1.00000 0.09375 0.84594
v 1.00000 0.00000 0.84594
v 0.26699 0.00000 0.00000
v 0.50282 0.00000 0.00000
v 1.00000 0.00000 0.66416
v 1.00000 1.97500 0.66416
v 0.50282 1.97500 0.00000
v 0.26699 1.97500 0.00000
v 1.00000 1.97500 0.84594
v 1.00000 1.90625 0.84594
v 0.26699 1.90625 0.00000
v 0.50282 1.90625 0.00000
v 1.00000 1.90625 0.66416
v 1.00000 0.09375 0.62362
v 0.54691 0.09375 0.00000
v 0.50282 0.09375 0.00000
v 1.00000 0.09375 0.66416
v 1.00000 0.00000 0.66416
v 0.50282 0.00000 0.00000
v 0.54691 0.00000 0.00000
v 1.00000 0.00000 0.62362
v 1.00000 1.97500 0.62362
v 0.54691 1.97500 0.00000
v 0.50282 1.97500 0.00000
v 1.00000 1.97500 0.66416
v 1.00000 1.90625 0.66416
v 0.50282 1.90625 0.00000
v 0.54691 1.90625 0.00000
v 1.00000 1.90625 0.62362
v 1.00000 0.09375 0.44397
v 0.71468 0.09375 0.00000
v 0.54691 0.09375 0.00000
v 1.00000 0.09375 0.62362
v 1.00000 0.00000 0.62362
v 0.54691 0.00000 0.00000
v 0.71468 0.00000 0.00000
v 1.00000 0.00000 0.44397
v 1.00000 1.97500 0.44397
v 0.71468 1.97500 0.00000
v 0.54691 1.97500 0.00000
v 1.00000 1.97500 0.62362
v 1.00000 1.90625 0.62362
v 0.54691 1.90625 0.00000
v 0.71468 1.90625 0.00000
v 1.00000 1.90625 0.44397
v 1.00000 0.09375 0.26795
v 0.84530 0.09375 0.00000
v 0.71468 0.09375 0.00000
v 1.00000 0.09375 0.44397
v 1.00000 0.00000 0.44397
v 0.71468 0.00000 0.00000
v 0.84530 0.00000 0.00000
v 1.00000 0.00000 0.26795
v 1.00000 1.97500 0.26795
v 0.84530 1.97500 0.00000
v 0.71468 1.97500 0.00000
v 1.00000 1.97500 0.44397
v 1.00000 1.90625 0.44397
v 0.71468 1.90625 0.00000
v 0.84530 1.90625 0.00000
v 1.00000 1.90625 0.26795
v 1.00000 0.09375 0.16864
v 0.90792 0.09375 0.00000
v 0.84530 0.09375 0.00000
v 1.00000 0.09375 0.26795
v 1.00000 0.00000 0.26795
v 0.84530 0.00000 0.00000
v 0.90792 0.00000 0.00000
v 1.00000 0.00000 0.16864
v 1.00000 1.97500 0.16864
v 0.90792 1.97500 0.00000
v 0.84530 1.97500 0.00000
v 1.00000 1.97500 0.26795
v 1.00000 1.90625 0.26795
v 0.84530 1.90625 0.00000
v 0.90792 1.90625 0.00000
v 1.00000 1.90625 0.16864
v 1.00000 0.09375 0.00000
v 0.90792 0.09375 0.00000
v 1.00000 0.09375 0.16864
v 1.00000 0.00000 0.16864
v 0.90792 0.00000 0.00000
v 1.00000 0.00000 0.00000
v 1.00000 1.97500 0.00000
v 0.90792 1.97500 0.00000
v 1.00000 1.97500 0.16864
v 1.00000 1.90625 0.16864
v 0.90792 1.90625 0.00000
v 1.00000 1.90625 0.00000
v 0.76032 1.90625 1.00000
v 0.79552 1.90625 0.95632
v 0.79552 0.09375 0.95632
v 0.76032 0.09375 1.00000
v 0.88286 0.09375 1.00000
v 0.93934 0.09375 0.93934
v 0.93934 1.90625 0.93934
v 0.88286 1.90625 1.00000
v 0.88286 0.00000 1.00000
v 0.93934 0.00000 0.93934
v 0.93934 0.09375 0.93934
v 0.88286 0.09375 1.00000
v 0.88286 1.90625 1.00000
v 0.93934 1.90625 0.93934
v 0.93934 1.97500 0.93934
v 0.88286 1.97500 1.00000
v 0.87305 1.90625 0.87305
v 0.87305 0.09375 0.87305
v 0.79552 0.09375 0.95632
v 0.79552 1.90625 0.95632
v 0.93934 1.90625 0.93934
v 0.93934 0.09375 0.93934
v 1.00000 0.09375 0.88286
v 1.00000 1.90625 0.88286
v 0.93934 0.09375 0.93934
v 0.93934 0.00000 0.93934
v 1.00000 0.00000 0.88286
v 1.00000 0.09375 0.88286
v 0.93934 1.97500 0.93934
v 0.93934 1.90625 0.93934
v 1.00000 1.90625 0.88286
v 1.00000 1.97500 0.88286
v 0.95632 1.90625 0.79552
v 0.95632 0.09375 0.79552
v 0.87305 0.09375 0.87305
v 0.87305 1.90625 0.87305
v 1.00000 1.90625 0.76032
v 1.00000 0.09375 0.76032
v 0.95632 0.09375 0.79552
v 0.95632 1.90625 0.79552
vt 0.29216 1.00000
vt 0.25000 0.97698
vt 0.25000 1.00000
vt 0.25000 1.00000
vt 0.25000 0.97698
vt 0.29216 1.00000
vt 0.29216 1.00000
vt 0.25000 0.97698
vt 0.25000 1.00000
vt 0.18402 0.28978
vt 0.19468 0.31237
vt 0.14665 0.31237
vt 0.31699 1.00000
vt 0.25000 0.96132
vt 0.25000 0.97698
vt 0.29216 1.00000
vt 0.29216 1.00000
vt 0.25000 0.97698
vt 0.25000 0.96132
vt 0.31699 1.00000
vt 0.31699 1.00000
vt 0.25000 0.96132
vt 0.25000 0.97698
vt 0.29216 1.00000
vt 0.14665 0.31237
vt 0.19468 0.31237
vt 0.20235 0.32725
vt 0.12500 0.32725
vt 0.36099 1.00000
vt 0.25000 0.92867
vt 0.25000 0.96132
vt 0.31699 1.00000
vt 0.31699 1.00000
vt 0.25000 0.96132
vt 0.25000 0.92867
vt 0.36099 1.00000
vt 0.36099 1.00000
vt 0.25000 0.92867
vt 0.25000 0.96132
vt 0.31699 1.00000
vt 0.12500 0.32725
vt 0.20235 0.32725
vt 0.21935 0.35700
vt 0.08741 0.35700
vt 0.40590 1.00000
vt 0.25000 0.88673
vt 0.25000 0.92867
vt 0.36099 1.00000
vt 0.36099 1.00000
vt 0.25000 0.92867
vt 0.25000 0.88673
vt 0.40590 1.00000
vt 0.40590 1.00000
vt 0.25000 0.88673
vt 0.25000 0.92867
vt 0.36099 1.00000
vt 0.08741 0.35700
vt 0.21935 0.35700
vt 0.24303 0.39270
vt 0.05033 0.39270
vt 0.41604 1.00000
vt 0.25000 0.87570
vt 0.25000 0.88673
vt 0.40590 1.00000
vt 0.40590 1.00000
vt 0.25000 0.88673
vt 0.25000 0.87570
vt 0.41604 1.00000
vt 0.41604 1.00000
vt 0.25000 0.87570
vt 0.25000 0.88673
vt 0.40590 1.00000
vt 0.05033 0.39270
vt 0.24303 0.39270
vt 0.24958 0.40162
vt 0.04217 0.40162
vt 0.46148 1.00000
vt 0.25000 0.81675
vt 0.25000 0.87570
vt 0.41604 1.00000
vt 0.41604 1.00000
vt 0.25000 0.87570
vt 0.25000 0.81675
vt 0.46148 1.00000
vt 0.46148 1.00000
vt 0.25000 0.81675
vt 0.25000 0.87570
vt 0.41604 1.00000
vt 0.04217 0.40162
vt 0.24958 0.40162
vt 0.28659 0.44625
vt 0.00676 0.44625
vt 0.48483 0.98483
vt 0.25000 0.75000
vt 0.25000 0.81675
vt 0.46148 1.00000
vt 0.47072 1.00000
vt 0.48483 0.98483
vt 0.46148 1.00000
vt 0.46148 1.00000
vt 0.25000 0.81675
vt 0.25000 0.75000
vt 0.48483 0.98483
vt 0.46148 1.00000
vt 0.48483 0.98483
vt 0.47072 1.00000
vt 0.48483 0.98483
vt 0.25000 0.75000
vt 0.25000 0.81675
vt 0.46148 1.00000
vt 0.47072 1.00000
vt 0.48483 0.98483
vt 0.46148 1.00000
vt 0.00676 0.44625
vt 0.28659 0.44625
vt 0.33211 0.49087
vt 0.00000 0.49087
vt 0.00676 0.44625
vt 0.00000 0.49087
vt 0.00000 0.45633
vt 0.50000 0.96148
vt 0.31675 0.75000
vt 0.25000 0.75000
vt 0.48483 0.98483
vt 0.50000 0.97072
vt 0.50000 0.96148
vt 0.48483 0.98483
vt 0.48483 0.98483
vt 0.25000 0.75000
vt 0.31675 0.75000
vt 0.50000 0.96148
vt 0.48483 0.98483
vt 0.50000 0.96148
vt 0.50000 0.97072
vt 0.50000 0.96148
vt 0.31675 0.75000
vt 0.25000 0.75000
vt 0.48483 0.98483
vt 0.50000 0.97072
vt 0.50000 0.96148
vt 0.48483 0.98483
vt 0.00000 0.00000
vt 0.33211 0.00000
vt 0.28659 0.03550
vt 0.00676 0.03550
vt 0.00000 0.00000
vt 0.00676 0.03550
vt 0.00000 0.02542
vt 0.50000 0.91604
vt 0.37570 0.75000
vt 0.31675 0.75000
vt 0.50000 0.96148
vt 0.50000 0.96148
vt 0.31675 0.75000
vt 0.37570 0.75000
vt 0.50000 0.91604
vt 0.50000 0.91604
vt 0.37570 0.75000
vt 0.31675 0.75000
vt 0.50000 0.96148
vt 0.00676 0.03550
vt 0.28659 0.03550
vt 0.24958 0.08012
vt 0.04217 0.08012
vt 0.50000 0.90590
vt 0.38673 0.75000
vt 0.37570 0.75000
vt 0.50000 0.91604
vt 0.50000 0.91604
vt 0.37570 0.75000
vt 0.38673 0.75000
vt 0.50000 0.90590
vt 0.50000 0.90590
vt 0.38673 0.75000
vt 0.37570 0.75000
vt 0.50000 0.91604
vt 0.04217 0.08012
vt 0.24958 0.08012
vt 0.24303 0.08905
vt 0.05033 0.08905
vt 0.50000 0.86099
vt 0.42867 0.75000
vt 0.38673 0.75000
vt 0.50000 0.90590
vt 0.50000 0.90590
vt 0.38673 0.75000
vt 0.42867 0.75000
vt 0.50000 0.86099
vt 0.50000 0.86099
vt 0.42867 0.75000
vt 0.38673 0.75000
vt 0.50000 0.90590
vt 0.05033 0.08905
vt 0.24303 0.08905
vt 0.21935 0.12475
vt 0.08741 0.12475
vt 0.50000 0.81699
vt 0.46132 0.75000
vt 0.42867 0.75000
vt 0.50000 0.86099
vt 0.50000 0.86099
vt 0.42867 0.75000
vt 0.46132 0.75000
vt 0.50000 0.81699
vt 0.50000 0.81699
vt 0.46132 0.75000
vt 0.42867 0.75000
vt 0.50000 0.86099
vt 0.08741 0.12475
vt 0.21935 0.12475
vt 0.20235 0.15450
vt 0.12500 0.15450
vt 0.50000 0.79216
vt 0.47698 0.75000
vt 0.46132 0.75000
vt 0.50000 0.81699
vt 0.50000 0.81699
vt 0.46132 0.75000
vt 0.47698 0.75000
vt 0.50000 0.79216
vt 0.50000 0.79216
vt 0.47698 0.75000
vt 0.46132 0.75000
vt 0.50000 0.81699
vt 0.12500 0.15450
vt 0.20235 0.15450
vt 0.19468 0.16937
vt 0.14665 0.16937
vt 0.50000 0.75000
vt 0.47698 0.75000
vt 0.50000 0.79216
vt 0.50000 0.79216
vt 0.47698 0.75000
vt 0.50000 0.75000
vt 0.50000 0.75000
vt 0.47698 0.75000
vt 0.50000 0.79216
vt 0.14665 0.16937
vt 0.19468 0.16937
vt 0.18402 0.19197
vt 0.14820 0.00000
vt 0.18182 0.00000
vt 0.18182 0.90625
vt 0.14820 0.90625
vt 0.46482 0.90625
vt 0.50000 0.90625
vt 0.50000 0.00000
vt 0.46482 0.00000
vt 0.92964 0.09375
vt 1.00000 0.09375
vt 1.00000 0.00000
vt 0.92964 0.00000
vt 0.92964 0.09375
vt 1.00000 0.09375
vt 1.00000 0.00000
vt 0.92964 0.00000
vt 0.25000 0.00000
vt 0.25000 0.90625
vt 0.18182 0.90625
vt 0.18182 0.00000
vt 0.00000 0.00000
vt 0.00000 0.90625
vt 0.03518 0.90625
vt 0.03518 0.00000
vt 0.00000 0.00000
vt 0.00000 0.09375
vt 0.07036 0.09375
vt 0.07036 0.00000
vt 0.00000 0.00000
vt 0.00000 0.09375
vt 0.07036 0.09375
vt 0.07036 0.00000
vt 0.31818 0.00000
vt 0.31818 0.90625
vt 0.25000 0.90625
vt 0.25000 0.00000
vt 0.35180 0.00000
vt 0.35180 0.90625
vt 0.31818 0.90625
vt 0.31818 0.00000
vn 0.00000 1.00000 0.00000
vn 0.00000 1.00000 0.00000
vn 0.00000 1.00000 0.00000
vn 0.00000 -1.00000 0.00000
vn 0.00000 -1.00000 0.00000
vn 0.00000 -1.00000 0.00000
vn 0.00000 1.00000 0.00000
vn 0.00000 1.00000 0.00000
vn 0.00000 1.00000 0.00000
vn 0.00000 -1.00000 0.00000
vn 0.00000 -1.00000 0.00000
vn 0.00000 -1.00000 0.00000
vn 0.00000 1.00000 0.00000
vn 0.00000 1.00000 0.00000
vn 0.00000 1.00000 0.00000
vn 0.00000 1.00000 0.00000
vn 0.00000 -1.00000 0.00000
vn 0.00000 -1.00000 0.00000
vn 0.00000 -1.00000 0.00000
vn 0.00000 -1.00000 0.00000
vn 0.00000 1.00000 0.00000
vn 0.00000 1.00000 0.00000
vn 0.00000 1.00000 0.00000
vn 0.00000 1.00000 0.00000
vn 0.00000 -1.00000 0.00000
vn 0.00000 -1.00000 0.00000
vn 0.00000 -1.00000 0.00000
vn 0.00000 -1.00000 0.00000
vn 0.00000 1.00000 0.00000
vn 0.00000 1.00000 0.00000
vn 0.00000 1.00000 0.00000
vn 0.00000 1.00000 0.00000
vn 0.00000 -1.00000 0.00000
vn 0.00000 -1.00000 0.00000
vn 0.00000 -1.00000 0.00000
vn 0.00000 -1.00000 0.00000
vn 0.00000 1.00000 0.00000
vn 0.00000 1.00000 0.00000
vn 0.00000 1.00000 0.00000
vn 0.00000 1.00000 0.00000
vn 0.00000 -1.00000 0.00000
vn 0.00000 -1.00000 0.00000
vn 0.00000 -1.00000 0.00000
vn 0.00000 -1.00000 0.00000
vn 0.00000 1.00000 0.00000
vn 0.00000 1.00000 0.00000
vn 0.00000 1.00000 0.00000
vn 0.00000 1.00000 0.00000
vn 0.00000 -1.00000 0.00000
vn 0.00000 -1.00000 0.00000
vn 0.00000 -1.00000 0.00000
vn 0.00000 -1.00000 0.00000
vn 0.00000 1.00000 0.00000
vn 0.00000 1.00000 0.00000
vn 0.00000 1.00000 0.00000
vn 0.00000 1.00000 0.00000
vn 0.00000 -1.00000 0.00000
vn 0.00000 -1.00000 0.00000
vn 0.00000 -1.00000 0.00000
vn 0.00000 -1.00000 0.00000
vn 0.00000 1.00000 0.00000
vn 0.00000 1.00000 0.00000
vn 0.00000 1.00000 0.00000
vn 0.00000 1.00000 0.00000
vn 0.00000 -1.00000 0.00000
vn 0.00000 -1.00000 0.00000
vn 0.00000 -1.00000 0.00000
vn 0.00000 -1.00000 0.00000
vn 0.00000 1.00000 0.00000
vn 0.00000 1.00000 0.00000
vn 0.00000 1.00000 0.00000
vn 0.00000 1.00000 0.00000
vn 0.00000 -1.00000 0.00000
vn 0.00000 -1.00000 0.00000
vn 0.00000 -1.00000 0.00000
vn 0.00000 -1.00000 0.00000
vn 0.00000 1.00000 0.00000
vn 0.00000 1.00000 0.00000
vn 0.00000 1.00000 0.00000
vn 0.00000 1.00000 0.00000
vn 0.00000 -1.00000 0.00000
vn 0.00000 -1.00000 0.00000
vn 0.00000 -1.00000 0.00000
vn 0.00000 -1.00000 0.00000
vn 0.00000 1.00000 0.00000
vn 0.00000 1.00000 0.00000
vn 0.00000 1.00000 0.00000
vn 0.00000 1.00000 0.00000
vn 0.00000 -1.00000 0.00000
vn 0.00000 -1.00000 0.00000
vn 0.00000 -1.00000 0.00000
vn 0.00000 -1.00000 0.00000
vn 0.00000 1.00000 0.00000
vn 0.00000 1.00000 0.00000
vn 0.00000 1.00000 0.00000
vn 0.00000 1.00000 0.00000
vn 0.00000 1.00000 0.00000
vn 0.00000 1.00000 0.00000
vn 0.00000 1.00000 0.00000
vn 0.00000 -1.00000 0.00000
vn 0.00000 -1.00000 0.00000
vn 0.00000 -1.00000 0.00000
vn 0.00000 -1.00000 0.00000
vn 0.00000 -1.00000 0.00000
vn 0.00000 -1.00000 0.00000
vn 0.00000 -1.00000 0.00000
vn 0.00000 1.00000 0.00000
vn 0.00000 1.00000 0.00000
vn 0.00000 1.00000 0.00000
vn 0.00000 1.00000 0.00000
vn 0.00000 1.00000 0.00000
vn 0.00000 1.00000 0.00000
vn 0.00000 1.00000 0.00000
vn 0.00000 -1.00000 0.00000
vn 0.00000 -1.00000 0.00000
vn 0.00000 -1.00000 0.00000
vn 0.00000 -1.00000 0.00000
vn 0.00000 -1.00000 0.00000
vn 0.00000 -1.00000 0.00000
vn 0.00000 -1.00000 0.00000
vn 0.00000 1.00000 0.00000
vn 0.00000 1.00000 0.00000
vn 0.00000 1.00000 0.00000
vn 0.00000 1.00000 0.00000
vn 0.00000 1.00000 0.00000
vn 0.00000 1.00000 0.00000
vn 0.00000 1.00000 0.00000
vn 0.00000 -1.00000 0.00000
vn 0.00000 -1.00000 0.00000
vn 0.00000 -1.00000 0.00000
vn 0.00000 -1.00000 0.00000
vn 0.00000 -1.00000 0.00000
vn 0.00000 -1.00000 0.00000
vn 0.00000 -1.00000 0.00000
vn 0.00000 1.00000 0.00000
vn 0.00000 1.00000 0.00000
vn 0.00000 1.00000 0.00000
vn 0.00000 1.00000 0.00000
vn 0.00000 1.00000 0.00000
vn 0.00000 1.00000 0.00000
vn 0.00000 1.00000 0.00000
vn 0.00000 -1.00000 0.00000
vn 0.00000 -1.00000 0.00000
vn 0.00000 -1.00000 0.00000
vn 0.00000 -1.00000 0.00000
vn 0.00000 -1.00000 0.00000
vn 0.00000 -1.00000 0.00000
vn 0.00000 -1.00000 0.00000
vn 0.00000 1.00000 0.00000
vn 0.00000 1.00000 0.00000
vn 0.00000 1.00000 0.00000
vn 0.00000 1.00000 0.00000
vn 0.00000 -1.00000 0.00000
vn 0.00000 -1.00000 0.00000
vn 0.00000 -1.00000 0.00000
vn 0.00000 -1.00000 0.00000
vn 0.00000 1.00000 0.00000
vn 0.00000 1.00000 0.00000
vn 0.00000 1.00000 0.00000
vn 0.00000 1.00000 0.00000
vn 0.00000 -1.00000 0.00000
vn 0.00000 -1.00000 0.00000
vn 0.00000 -1.00000 0.00000
vn 0.00000 -1.00000 0.00000
vn 0.00000 1.00000 0.00000
vn 0.00000 1.00000 0.00000
vn 0.00000 1.00000 0.00000
vn 0.00000 1.00000 0.00000
vn 0.00000 -1.00000 0.00000
vn 0.00000 -1.00000 0.00000
vn 0.00000 -1.00000 0.00000
vn 0.00000 -1.00000 0.00000
vn 0.00000 1.00000 0.00000
vn 0.00000 1.00000 0.00000
vn 0.00000 1.00000 0.00000
vn 0.00000 1.00000 0.00000
vn 0.00000 -1.00000 0.00000
vn 0.00000 -1.00000 0.00000
vn 0.00000 -1.00000 0.00000
vn 0.00000 -1.00000 0.00000
vn 0.00000 1.00000 0.00000
vn 0.00000 1.00000 0.00000
vn 0.00000 1.00000 0.00000
vn 0.00000 1.00000 0.00000
vn 0.00000 -1.00000 0.00000
vn 0.00000 -1.00000 0.00000
vn 0.00000 -1.00000 0.00000
vn 0.00000 -1.00000 0.00000
vn 0.00000 1.00000 0.00000
vn 0.00000 1.00000 0.00000
vn 0.00000 1.00000 0.00000
vn 0.00000 1.00000 0.00000
vn 0.00000 -1.00000 0.00000
vn 0.00000 -1.00000 0.00000
vn 0.00000 -1.00000 0.00000
vn 0.00000 -1.00000 0.00000
vn 0.00000 1.00000 0.00000
vn 0.00000 1.00000 0.00000
vn 0.00000 1.00000 0.00000
vn 0.00000 1.00000 0.00000
vn 0.00000 -1.00000 0.00000
vn 0.00000 -1.00000 0.00000
vn 0.00000 -1.00000 0.00000
vn 0.00000 -1.00000 0.00000
vn 0.00000 1.00000 0.00000
vn 0.00000 1.00000 0.00000
vn 0.00000 1.00000 0.00000
vn 0.00000 1.00000 0.00000
vn 0.00000 -1.00000 0.00000
vn 0.00000 -1.00000 0.00000
vn 0.00000 -1.00000 0.00000
vn 0.00000 -1.00000 0.00000
vn 0.00000 1.00000 0.00000
vn 0.00000 1.00000 0.00000
vn 0.00000 1.00000 0.00000
vn 0.00000 1.00000 0.00000
vn 0.00000 -1.00000 0.00000
vn 0.00000 -1.00000 0.00000
vn 0.00000 -1.00000 0.00000
vn 0.00000 -1.00000 0.00000
vn 0.00000 1.00000 0.00000
vn 0.00000 1.00000 0.00000
vn 0.00000 1.00000 0.00000
vn 0.00000 1.00000 0.00000
vn 0.00000 -1.00000 0.00000
vn 0.00000 -1.00000 0.00000
vn 0.00000 -1.00000 0.00000
vn 0.00000 -1.00000 0.00000
vn 0.00000 1.00000 0.00000
vn 0.00000 1.00000 0.00000
vn 0.00000 1.00000 0.00000
vn 0.00000 -1.00000 0.00000
vn 0.00000 -1.00000 0.00000
vn 0.00000 -1.00000 0.00000
vn 0.00000 1.00000 0.00000
vn 0.00000 1.00000 0.00000
vn 0.00000 1.00000 0.00000
vn 0.00000 -1.00000 0.00000
vn 0.00000 -1.00000 0.00000
vn 0.00000 -1.00000 0.00000
vn -0.77864 0.00000 -0.62747
vn -0.77864 0.00000 -0.62747
vn -0.77864 0.00000 -0.62747
vn -0.77864 0.00000 -0.62747
vn 0.73189 0.00000 0.68142
vn 0.73189 0.00000 0.68142
vn 0.73189 0.00000 0.68142
vn 0.73189 0.00000 0.68142
vn 0.73189 0.00000 0.68142
vn 0.73189 0.00000 0.68142
vn 0.73189 0.00000 0.68142
vn 0.73189 0.00000 0.68142
vn 0.73189 0.00000 0.68142
vn 0.73189 0.00000 0.68142
vn 0.73189 0.00000 0.68142
vn 0.73189 0.00000 0.68142
vn -0.73189 0.00000 -0.68142
vn -0.73189 0.00000 -0.68142
vn -0.73189 0.00000 -0.68142
vn -0.73189 0.00000 -0.68142
vn 0.68142 0.00000 0.73189
vn 0.68142 0.00000 0.73189
vn 0.68142 0.00000 0.73189
vn 0.68142 0.00000 0.73189
vn 0.68142 0.00000 0.73189
vn 0.68142 0.00000 0.73189
vn 0.68142 0.00000 0.73189
vn 0.68142 0.00000 0.73189
vn 0.68142 0.00000 0.73189
vn 0.68142 0.00000 0.73189
vn 0.68142 0.00000 0.73189
vn 0.68142 0.00000 0.73189
vn -0.68142 0.00000 -0.73189
vn -0.68142 0.00000 -0.73189
vn -0.68142 0.00000 -0.73189
vn -0.68142 0.00000 -0.73189
vn -0.62747 0.00000 -0.77864
vn -0.62747 0.00000 -0.77864
vn -0.62747 0.00000 -0.77864
vn -0.62747 0.00000 -0.77864
usemtl ceiling
f 10/10/10 11/11/11 12/12/12
f 25/25/25 26/26/26 27/27/27 28/28/28
f 41/41/41 42/42/42 43/43/43 44/44/44
f 57/57/57 58/58/58 59/59/59 60/60/60
f 73/73/73 74/74/74 75/75/75 76/76/76
f 89/89/89 90/90/90 91/91/91 92/92/92
f 114/114/114 115/115/115 116/116/116 117/117/117
f 118/118/118 119/119/119 120/120/120
f 142/142/142 143/143/143 144/144/144 145/145/145
f 146/146/146 147/147/147 148/148/148
f 161/161/161 162/162/162 163/163/163 164/164/164
f 177/177/177 178/178/178 179/179/179 180/180/180
f 193/193/193 194/194/194 195/195/195 196/196/196
f 209/209/209 210/210/210 211/211/211 212/212/212
f 225/225/225 226/226/226 227/227/227 228/228/228
f 238/238/238 239/239/239 240/240/240
usemtl floor
f 1/1/1 2/2/2 3/3/3
f 13/13/13 14/14/14 15/15/15 16/16/16
f 29/29/29 30/30/30 31/31/31 32/32/32
f 45/45/45 46/46/46 47/47/47 48/48/48
f 61/61/61 62/62/62 63/63/63 64/64/64
f 77/77/77 78/78/78 79/79/79 80/80/80
f 93/93/93 94/94/94 95/95/95 96/96/96
f 97/97/97 98/98/98 99/99/99
f 121/121/121 122/122/122 123/123/123 124/124/124
f 125/125/125 126/126/126 127/127/127
f 149/149/149 150/150/150 151/151/151 152/152/152
f 165/165/165 166/166/166 167/167/167 168/168/168
f 181/181/181 182/182/182 183/183/183 184/184/184
f 197/197/197 198/198/198 199/199/199 200/200/200
f 213/213/213 214/214/214 215/215/215 216/216/216
f 229/229/229 230/230/230 231/231/231
usemtl frame
f 249/249/249 250/250/250 251/251/251 252/252/252
f 253/253/253 254/254/254 255/255/255 256/256/256
f 265/265/265 266/266/266 267/267/267 268/268/268
f 269/269/269 270/270/270 271/271/271 272/272/272
usemtl inner
f 241/241/241 242/242/242 243/243/243 244/244/244
f 257/257/257 258/258/258 259/259/259 260/260/260
f 273/273/273 274/274/274 275/275/275 276/276/276
f 277/277/277 278/278/278 279/279/279 280/280/280
usemtl roof
f 7/7/7 8/8/8 9/9/9
f 21/21/21 22/22/22 23/23/23 24/24/24
f 37/37/37 38/38/38 39/39/39 40/40/40
f 53/53/53 54/54/54 55/55/55 56/56/56
f 69/69/69 70/70/70 71/71/71 72/72/72
f 85/85/85 86/86/86 87/87/87 88/88/88
f 107/107/107 108/108/108 109/109/109 110/110/110
f 111/111/111 112/112/112 113/113/113
f 135/135/135 136/136/136 137/137/137 138/138/138
f 139/139/139 140/140/140 141/141/141
f 157/157/157 158/158/158 159/159/159 160/160/160
f 173/173/173 174/174/174 175/175/175 176/176/176
f 189/189/189 190/190/190 191/191/191 192/192/192
f 205/205/205 206/206/206 207/207/207 208/208/208
f 221/221/221 222/222/222 223/223/223 224/224/224
f 235/235/235 236/236/236 237/237/237
usemtl skin
f 245/245/245 246/246/246 247/247/247 248/248/248
f 261/261/261 262/262/262 263/263/263 264/264/264
usemtl under
f 4/4/4 5/5/5 6/6/6
f 17/17/17 18/18/18 19/19/19 20/20/20
f 33/33/33 34/34/34 35/35/35 36/36/36
f 49/49/49 50/50/50 51/51/51 52/52/52
f 65/65/65 66/66/66 67/67/67 68/68/68
f 81/81/81 82/82/82 83/83/83 84/84/84
f 100/100/100 101/101/101 102/102/102 103/103/103
f 104/104/104 105/105/105 106/106/106
f 128/128/128 129/129/129 130/130/130 131/131/131
f 132/132/132 133/133/133 134/134/134
f 153/153/153 154/154/154 155/155/155 156/156/156
f 169/169/169 170/170/170 171/171/171 172/172/172
f 185/185/185 186/186/186 187/187/187 188/188/188
f 201/201/201 202/202/202 203/203/203 204/204/204
f 217/217/217 218/218/218 219/219/219 220/220/220
f 232/232/232 233/233/233 234/234/234
