# Generated by dev-env-utils/scripts/gen_transit_airside.py -- do not edit
mtllib jet_bridge_large.mtl
o airport_jet_bridge_large_slope_8_3_north
v -0.94827 3.79596 -0.03750
v -0.94827 -0.52969 -0.03750
v -1.21724 -0.52969 -0.03750
v -1.21724 3.79596 -0.03750
v -1.21724 3.80846 0.06250
v -1.21724 -0.51719 0.06250
v -0.94827 -0.51719 0.06250
v -0.94827 3.80846 0.06250
v -0.94827 3.80846 0.06250
v -0.94827 -0.51719 0.06250
v -0.94827 -0.52969 -0.03750
v -0.94827 3.79596 -0.03750
v -1.21724 3.79596 -0.03750
v -1.21724 -0.52969 -0.03750
v -1.21724 -0.51719 0.06250
v -1.21724 3.80846 0.06250
v -1.21724 3.79596 -0.03750
v -1.21724 3.80846 0.06250
v -0.94827 3.80846 0.06250
v -0.94827 3.79596 -0.03750
v -1.21724 -0.51719 0.06250
v -1.21724 -0.52969 -0.03750
v -0.94827 -0.52969 -0.03750
v -0.94827 -0.51719 0.06250
v 2.21724 3.79596 -0.03750
v 2.21724 -0.52969 -0.03750
v 1.94827 -0.52969 -0.03750
v 1.94827 3.79596 -0.03750
v 1.94827 3.80846 0.06250
v 1.94827 -0.51719 0.06250
v 2.21724 -0.51719 0.06250
v 2.21724 3.80846 0.06250
v 2.21724 3.80846 0.06250
v 2.21724 -0.51719 0.06250
v 2.21724 -0.52969 -0.03750
v 2.21724 3.79596 -0.03750
v 1.94827 3.79596 -0.03750
v 1.94827 -0.52969 -0.03750
v 1.94827 -0.51719 0.06250
v 1.94827 3.80846 0.06250
v 1.94827 3.79596 -0.03750
v 1.94827 3.80846 0.06250
v 2.21724 3.80846 0.06250
v 2.21724 3.79596 -0.03750
v 1.94827 -0.51719 0.06250
v 1.94827 -0.52969 -0.03750
v 2.21724 -0.52969 -0.03750
v 2.21724 -0.51719 0.06250
v 1.94827 3.79596 -0.03750
v 1.94827 3.47872 -0.03750
v -0.94827 3.47872 -0.03750
v -0.94827 3.79596 -0.03750
v -0.94827 3.80846 0.06250
v -0.94827 3.49122 0.06250
v 1.94827 3.49122 0.06250
v 1.94827 3.80846 0.06250
v -0.94827 3.79596 -0.03750
v -0.94827 3.80846 0.06250
v 1.94827 3.80846 0.06250
v 1.94827 3.79596 -0.03750
v -0.94827 3.49122 0.06250
v -0.94827 3.47872 -0.03750
v 1.94827 3.47872 -0.03750
v 1.94827 3.49122 0.06250
v 1.94827 -0.36956 -0.03750
v 1.94827 -0.52969 -0.03750
v -0.94827 -0.52969 -0.03750
v -0.94827 -0.36956 -0.03750
v -0.94827 -0.35706 0.06250
v -0.94827 -0.51719 0.06250
v 1.94827 -0.51719 0.06250
v 1.94827 -0.35706 0.06250
v -0.94827 -0.36956 -0.03750
v -0.94827 -0.35706 0.06250
v 1.94827 -0.35706 0.06250
v 1.94827 -0.36956 -0.03750
v -0.94827 -0.51719 0.06250
v -0.94827 -0.52969 -0.03750
v 1.94827 -0.52969 -0.03750
v 1.94827 -0.51719 0.06250
vt 0.37500 0.00000
vt 0.37500 1.00000
vt 0.53750 1.00000
vt 0.53750 0.00000
vt 0.46250 0.00000
vt 0.46250 1.00000
vt 0.62500 1.00000
vt 0.62500 0.00000
vt 0.00000 0.00000
vt 0.00000 1.00000
vt 0.10000 1.00000
vt 0.10000 0.00000
vt 0.00000 0.00000
vt 0.00000 1.00000
vt 0.10000 1.00000
vt 0.10000 0.00000
vt 0.46250 0.00000
vt 0.46250 0.10000
vt 0.62500 0.10000
vt 0.62500 0.00000
vt 0.46250 0.00000
vt 0.46250 0.10000
vt 0.62500 0.10000
vt 0.62500 0.00000
vt 0.46250 0.00000
vt 0.46250 1.00000
vt 0.62500 1.00000
vt 0.62500 0.00000
vt 0.37500 0.00000
vt 0.37500 1.00000
vt 0.53750 1.00000
vt 0.53750 0.00000
vt 0.00000 0.00000
vt 0.00000 1.00000
vt 0.10000 1.00000
vt 0.10000 0.00000
vt 0.00000 0.00000
vt 0.00000 1.00000
vt 0.10000 1.00000
vt 0.10000 0.00000
vt 0.37500 0.00000
vt 0.37500 0.10000
vt 0.53750 0.10000
vt 0.53750 0.00000
vt 0.37500 0.00000
vt 0.37500 0.10000
vt 0.53750 0.10000
vt 0.53750 0.00000
vt 0.00000 0.00000
vt 0.00000 0.14375
vt 1.00000 0.14375
vt 1.00000 0.00000
vt 0.00000 0.00000
vt 0.00000 0.14375
vt 1.00000 0.14375
vt 1.00000 0.00000
vt 0.00000 0.00000
vt 0.00000 0.10000
vt 1.00000 0.10000
vt 1.00000 0.00000
vt 0.00000 0.00000
vt 0.00000 0.10000
vt 1.00000 0.10000
vt 1.00000 0.00000
vt 0.00000 0.00000
vt 0.00000 0.13750
vt 1.00000 0.13750
vt 1.00000 0.00000
vt 0.00000 0.00000
vt 0.00000 0.13750
vt 1.00000 0.13750
vt 1.00000 0.00000
vt 0.00000 0.00000
vt 0.00000 0.10000
vt 1.00000 0.10000
vt 1.00000 0.00000
vt 0.00000 0.00000
vt 0.00000 0.10000
vt 1.00000 0.10000
vt 1.00000 0.00000
vn 0.00000 -0.00000 -1.00000
vn 0.00000 -0.00000 -1.00000
vn 0.00000 -0.00000 -1.00000
vn 0.00000 -0.00000 -1.00000
vn 0.00000 0.00000 1.00000
vn 0.00000 0.00000 1.00000
vn 0.00000 0.00000 1.00000
vn 0.00000 0.00000 1.00000
vn 1.00000 0.00000 0.00000
vn 1.00000 0.00000 0.00000
vn 1.00000 0.00000 0.00000
vn 1.00000 0.00000 0.00000
vn -1.00000 0.00000 0.00000
vn -1.00000 0.00000 0.00000
vn -1.00000 0.00000 0.00000
vn -1.00000 0.00000 0.00000
vn 0.00000 0.99228 -0.12403
vn 0.00000 0.99228 -0.12403
vn 0.00000 0.99228 -0.12403
vn 0.00000 0.99228 -0.12403
vn 0.00000 -0.99228 0.12403
vn 0.00000 -0.99228 0.12403
vn 0.00000 -0.99228 0.12403
vn 0.00000 -0.99228 0.12403
vn 0.00000 -0.00000 -1.00000
vn 0.00000 -0.00000 -1.00000
vn 0.00000 -0.00000 -1.00000
vn 0.00000 -0.00000 -1.00000
vn 0.00000 0.00000 1.00000
vn 0.00000 0.00000 1.00000
vn 0.00000 0.00000 1.00000
vn 0.00000 0.00000 1.00000
vn 1.00000 0.00000 0.00000
vn 1.00000 0.00000 0.00000
vn 1.00000 0.00000 0.00000
vn 1.00000 0.00000 0.00000
vn -1.00000 0.00000 0.00000
vn -1.00000 0.00000 0.00000
vn -1.00000 0.00000 0.00000
vn -1.00000 0.00000 0.00000
vn 0.00000 0.99228 -0.12403
vn 0.00000 0.99228 -0.12403
vn 0.00000 0.99228 -0.12403
vn 0.00000 0.99228 -0.12403
vn 0.00000 -0.99228 0.12403
vn 0.00000 -0.99228 0.12403
vn 0.00000 -0.99228 0.12403
vn 0.00000 -0.99228 0.12403
vn 0.00000 -0.00000 -1.00000
vn 0.00000 -0.00000 -1.00000
vn 0.00000 -0.00000 -1.00000
vn 0.00000 -0.00000 -1.00000
vn 0.00000 0.00000 1.00000
vn 0.00000 0.00000 1.00000
vn 0.00000 0.00000 1.00000
vn 0.00000 0.00000 1.00000
vn 0.00000 0.99228 -0.12403
vn 0.00000 0.99228 -0.12403
vn 0.00000 0.99228 -0.12403
vn 0.00000 0.99228 -0.12403
vn 0.00000 -0.99228 0.12403
vn 0.00000 -0.99228 0.12403
vn 0.00000 -0.99228 0.12403
vn 0.00000 -0.99228 0.12403
vn 0.00000 -0.00000 -1.00000
vn 0.00000 -0.00000 -1.00000
vn 0.00000 -0.00000 -1.00000
vn 0.00000 -0.00000 -1.00000
vn 0.00000 0.00000 1.00000
vn 0.00000 0.00000 1.00000
vn 0.00000 0.00000 1.00000
vn 0.00000 0.00000 1.00000
vn 0.00000 0.99228 -0.12403
vn 0.00000 0.99228 -0.12403
vn 0.00000 0.99228 -0.12403
vn 0.00000 0.99228 -0.12403
vn 0.00000 -0.99228 0.12403
vn 0.00000 -0.99228 0.12403
vn 0.00000 -0.99228 0.12403
vn 0.00000 -0.99228 0.12403
usemtl frame
f 1/1/1 2/2/2 3/3/3 4/4/4
f 5/5/5 6/6/6 7/7/7 8/8/8
f 9/9/9 10/10/10 11/11/11 12/12/12
f 13/13/13 14/14/14 15/15/15 16/16/16
f 17/17/17 18/18/18 19/19/19 20/20/20
f 21/21/21 22/22/22 23/23/23 24/24/24
f 25/25/25 26/26/26 27/27/27 28/28/28
f 29/29/29 30/30/30 31/31/31 32/32/32
f 33/33/33 34/34/34 35/35/35 36/36/36
f 37/37/37 38/38/38 39/39/39 40/40/40
f 41/41/41 42/42/42 43/43/43 44/44/44
f 45/45/45 46/46/46 47/47/47 48/48/48
f 49/49/49 50/50/50 51/51/51 52/52/52
f 53/53/53 54/54/54 55/55/55 56/56/56
f 57/57/57 58/58/58 59/59/59 60/60/60
f 61/61/61 62/62/62 63/63/63 64/64/64
f 65/65/65 66/66/66 67/67/67 68/68/68
f 69/69/69 70/70/70 71/71/71 72/72/72
f 73/73/73 74/74/74 75/75/75 76/76/76
f 77/77/77 78/78/78 79/79/79 80/80/80
