# Procedurally generated by dev-env-utils/scripts/gen_firealarm_obj.py
# Gentex Commander 3 weatherproof horn strobe
mtllib gentex_commander3_hornstrobe_outdoor.mtl
o gentex_commander3_hornstrobe_outdoor
v 0.500000 0.615625 0.762500
v 0.281953 0.977023 0.762500
v 0.316288 0.982429 0.762500
v 0.500000 0.615625 0.762500
v 0.250978 0.961335 0.762500
v 0.281953 0.977023 0.762500
v 0.500000 0.615625 0.762500
v 0.226397 0.936900 0.762500
v 0.250978 0.961335 0.762500
v 0.500000 0.615625 0.762500
v 0.210615 0.906110 0.762500
v 0.226397 0.936900 0.762500
v 0.500000 0.615625 0.762500
v 0.205177 0.871980 0.762500
v 0.210615 0.906110 0.762500
v 0.500000 0.615625 0.762500
v 0.205177 0.359270 0.762500
v 0.205177 0.871980 0.762500
v 0.500000 0.615625 0.762500
v 0.210615 0.325140 0.762500
v 0.205177 0.359270 0.762500
v 0.500000 0.615625 0.762500
v 0.226397 0.294350 0.762500
v 0.210615 0.325140 0.762500
v 0.500000 0.615625 0.762500
v 0.250978 0.269915 0.762500
v 0.226397 0.294350 0.762500
v 0.500000 0.615625 0.762500
v 0.281953 0.254227 0.762500
v 0.250978 0.269915 0.762500
v 0.500000 0.615625 0.762500
v 0.316288 0.248821 0.762500
v 0.281953 0.254227 0.762500
v 0.500000 0.615625 0.762500
v 0.683712 0.248821 0.762500
v 0.316288 0.248821 0.762500
v 0.500000 0.615625 0.762500
v 0.718047 0.254227 0.762500
v 0.683712 0.248821 0.762500
v 0.500000 0.615625 0.762500
v 0.749022 0.269915 0.762500
v 0.718047 0.254227 0.762500
v 0.500000 0.615625 0.762500
v 0.773603 0.294350 0.762500
v 0.749022 0.269915 0.762500
v 0.500000 0.615625 0.762500
v 0.789385 0.325140 0.762500
v 0.773603 0.294350 0.762500
v 0.500000 0.615625 0.762500
v 0.794823 0.359270 0.762500
v 0.789385 0.325140 0.762500
v 0.500000 0.615625 0.762500
v 0.794823 0.871980 0.762500
v 0.794823 0.359270 0.762500
v 0.500000 0.615625 0.762500
v 0.789385 0.906110 0.762500
v 0.794823 0.871980 0.762500
v 0.500000 0.615625 0.762500
v 0.773603 0.936900 0.762500
v 0.789385 0.906110 0.762500
v 0.500000 0.615625 0.762500
v 0.749022 0.961335 0.762500
v 0.773603 0.936900 0.762500
v 0.500000 0.615625 0.762500
v 0.718047 0.977023 0.762500
v 0.749022 0.961335 0.762500
v 0.500000 0.615625 0.762500
v 0.683712 0.982429 0.762500
v 0.718047 0.977023 0.762500
v 0.500000 0.615625 0.762500
v 0.316288 0.982429 0.762500
v 0.683712 0.982429 0.762500
v 0.316288 0.982429 0.762500
v 0.281953 0.977023 0.762500
v 0.281953 0.977023 1.000000
v 0.316288 0.982429 0.762500
v 0.281953 0.977023 1.000000
v 0.316288 0.982429 1.000000
v 0.281953 0.977023 0.762500
v 0.250978 0.961335 0.762500
v 0.250978 0.961335 1.000000
v 0.281953 0.977023 0.762500
v 0.250978 0.961335 1.000000
v 0.281953 0.977023 1.000000
v 0.250978 0.961335 0.762500
v 0.226397 0.936900 0.762500
v 0.226397 0.936900 1.000000
v 0.250978 0.961335 0.762500
v 0.226397 0.936900 1.000000
v 0.250978 0.961335 1.000000
v 0.226397 0.936900 0.762500
v 0.210615 0.906110 0.762500
v 0.210615 0.906110 1.000000
v 0.226397 0.936900 0.762500
v 0.210615 0.906110 1.000000
v 0.226397 0.936900 1.000000
v 0.210615 0.906110 0.762500
v 0.205177 0.871980 0.762500
v 0.205177 0.871980 1.000000
v 0.210615 0.906110 0.762500
v 0.205177 0.871980 1.000000
v 0.210615 0.906110 1.000000
v 0.205177 0.871980 0.762500
v 0.205177 0.359270 0.762500
v 0.205177 0.359270 1.000000
v 0.205177 0.871980 0.762500
v 0.205177 0.359270 1.000000
v 0.205177 0.871980 1.000000
v 0.205177 0.359270 0.762500
v 0.210615 0.325140 0.762500
v 0.210615 0.325140 1.000000
v 0.205177 0.359270 0.762500
v 0.210615 0.325140 1.000000
v 0.205177 0.359270 1.000000
v 0.210615 0.325140 0.762500
v 0.226397 0.294350 0.762500
v 0.226397 0.294350 1.000000
v 0.210615 0.325140 0.762500
v 0.226397 0.294350 1.000000
v 0.210615 0.325140 1.000000
v 0.226397 0.294350 0.762500
v 0.250978 0.269915 0.762500
v 0.250978 0.269915 1.000000
v 0.226397 0.294350 0.762500
v 0.250978 0.269915 1.000000
v 0.226397 0.294350 1.000000
v 0.250978 0.269915 0.762500
v 0.281953 0.254227 0.762500
v 0.281953 0.254227 1.000000
v 0.250978 0.269915 0.762500
v 0.281953 0.254227 1.000000
v 0.250978 0.269915 1.000000
v 0.281953 0.254227 0.762500
v 0.316288 0.248821 0.762500
v 0.316288 0.248821 1.000000
v 0.281953 0.254227 0.762500
v 0.316288 0.248821 1.000000
v 0.281953 0.254227 1.000000
v 0.316288 0.248821 0.762500
v 0.683712 0.248821 0.762500
v 0.683712 0.248821 1.000000
v 0.316288 0.248821 0.762500
v 0.683712 0.248821 1.000000
v 0.316288 0.248821 1.000000
v 0.683712 0.248821 0.762500
v 0.718047 0.254227 0.762500
v 0.718047 0.254227 1.000000
v 0.683712 0.248821 0.762500
v 0.718047 0.254227 1.000000
v 0.683712 0.248821 1.000000
v 0.718047 0.254227 0.762500
v 0.749022 0.269915 0.762500
v 0.749022 0.269915 1.000000
v 0.718047 0.254227 0.762500
v 0.749022 0.269915 1.000000
v 0.718047 0.254227 1.000000
v 0.749022 0.269915 0.762500
v 0.773603 0.294350 0.762500
v 0.773603 0.294350 1.000000
v 0.749022 0.269915 0.762500
v 0.773603 0.294350 1.000000
v 0.749022 0.269915 1.000000
v 0.773603 0.294350 0.762500
v 0.789385 0.325140 0.762500
v 0.789385 0.325140 1.000000
v 0.773603 0.294350 0.762500
v 0.789385 0.325140 1.000000
v 0.773603 0.294350 1.000000
v 0.789385 0.325140 0.762500
v 0.794823 0.359270 0.762500
v 0.794823 0.359270 1.000000
v 0.789385 0.325140 0.762500
v 0.794823 0.359270 1.000000
v 0.789385 0.325140 1.000000
v 0.794823 0.359270 0.762500
v 0.794823 0.871980 0.762500
v 0.794823 0.871980 1.000000
v 0.794823 0.359270 0.762500
v 0.794823 0.871980 1.000000
v 0.794823 0.359270 1.000000
v 0.794823 0.871980 0.762500
v 0.789385 0.906110 0.762500
v 0.789385 0.906110 1.000000
v 0.794823 0.871980 0.762500
v 0.789385 0.906110 1.000000
v 0.794823 0.871980 1.000000
v 0.789385 0.906110 0.762500
v 0.773603 0.936900 0.762500
v 0.773603 0.936900 1.000000
v 0.789385 0.906110 0.762500
v 0.773603 0.936900 1.000000
v 0.789385 0.906110 1.000000
v 0.773603 0.936900 0.762500
v 0.749022 0.961335 0.762500
v 0.749022 0.961335 1.000000
v 0.773603 0.936900 0.762500
v 0.749022 0.961335 1.000000
v 0.773603 0.936900 1.000000
v 0.749022 0.961335 0.762500
v 0.718047 0.977023 0.762500
v 0.718047 0.977023 1.000000
v 0.749022 0.961335 0.762500
v 0.718047 0.977023 1.000000
v 0.749022 0.961335 1.000000
v 0.718047 0.977023 0.762500
v 0.683712 0.982429 0.762500
v 0.683712 0.982429 1.000000
v 0.718047 0.977023 0.762500
v 0.683712 0.982429 1.000000
v 0.718047 0.977023 1.000000
v 0.683712 0.982429 0.762500
v 0.316288 0.982429 0.762500
v 0.316288 0.982429 1.000000
v 0.683712 0.982429 0.762500
v 0.316288 0.982429 1.000000
v 0.683712 0.982429 1.000000
v 0.500000 0.615625 1.000000
v 0.316288 0.982429 1.000000
v 0.281953 0.977023 1.000000
v 0.500000 0.615625 1.000000
v 0.281953 0.977023 1.000000
v 0.250978 0.961335 1.000000
v 0.500000 0.615625 1.000000
v 0.250978 0.961335 1.000000
v 0.226397 0.936900 1.000000
v 0.500000 0.615625 1.000000
v 0.226397 0.936900 1.000000
v 0.210615 0.906110 1.000000
v 0.500000 0.615625 1.000000
v 0.210615 0.906110 1.000000
v 0.205177 0.871980 1.000000
v 0.500000 0.615625 1.000000
v 0.205177 0.871980 1.000000
v 0.205177 0.359270 1.000000
v 0.500000 0.615625 1.000000
v 0.205177 0.359270 1.000000
v 0.210615 0.325140 1.000000
v 0.500000 0.615625 1.000000
v 0.210615 0.325140 1.000000
v 0.226397 0.294350 1.000000
v 0.500000 0.615625 1.000000
v 0.226397 0.294350 1.000000
v 0.250978 0.269915 1.000000
v 0.500000 0.615625 1.000000
v 0.250978 0.269915 1.000000
v 0.281953 0.254227 1.000000
v 0.500000 0.615625 1.000000
v 0.281953 0.254227 1.000000
v 0.316288 0.248821 1.000000
v 0.500000 0.615625 1.000000
v 0.316288 0.248821 1.000000
v 0.683712 0.248821 1.000000
v 0.500000 0.615625 1.000000
v 0.683712 0.248821 1.000000
v 0.718047 0.254227 1.000000
v 0.500000 0.615625 1.000000
v 0.718047 0.254227 1.000000
v 0.749022 0.269915 1.000000
v 0.500000 0.615625 1.000000
v 0.749022 0.269915 1.000000
v 0.773603 0.294350 1.000000
v 0.500000 0.615625 1.000000
v 0.773603 0.294350 1.000000
v 0.789385 0.325140 1.000000
v 0.500000 0.615625 1.000000
v 0.789385 0.325140 1.000000
v 0.794823 0.359270 1.000000
v 0.500000 0.615625 1.000000
v 0.794823 0.359270 1.000000
v 0.794823 0.871980 1.000000
v 0.500000 0.615625 1.000000
v 0.794823 0.871980 1.000000
v 0.789385 0.906110 1.000000
v 0.500000 0.615625 1.000000
v 0.789385 0.906110 1.000000
v 0.773603 0.936900 1.000000
v 0.500000 0.615625 1.000000
v 0.773603 0.936900 1.000000
v 0.749022 0.961335 1.000000
v 0.500000 0.615625 1.000000
v 0.749022 0.961335 1.000000
v 0.718047 0.977023 1.000000
v 0.500000 0.615625 1.000000
v 0.718047 0.977023 1.000000
v 0.683712 0.982429 1.000000
v 0.500000 0.615625 1.000000
v 0.683712 0.982429 1.000000
v 0.316288 0.982429 1.000000
v 0.650789 0.252587 0.762500
v 0.664539 0.254397 0.709375
v 0.664539 0.254397 0.762500
v 0.650789 0.252587 0.762500
v 0.650789 0.252587 0.709375
v 0.664539 0.254397 0.709375
v 0.664539 0.254397 0.762500
v 0.677352 0.259704 0.709375
v 0.677352 0.259704 0.762500
v 0.664539 0.254397 0.762500
v 0.664539 0.254397 0.709375
v 0.677352 0.259704 0.709375
v 0.677352 0.259704 0.762500
v 0.688354 0.268147 0.709375
v 0.688354 0.268147 0.762500
v 0.677352 0.259704 0.762500
v 0.677352 0.259704 0.709375
v 0.688354 0.268147 0.709375
v 0.688354 0.268147 0.762500
v 0.696797 0.279149 0.709375
v 0.696797 0.279149 0.762500
v 0.688354 0.268147 0.762500
v 0.688354 0.268147 0.709375
v 0.696797 0.279149 0.709375
v 0.696797 0.279149 0.762500
v 0.702104 0.291962 0.709375
v 0.702104 0.291962 0.762500
v 0.696797 0.279149 0.762500
v 0.696797 0.279149 0.709375
v 0.702104 0.291962 0.709375
v 0.702104 0.291962 0.762500
v 0.703914 0.305712 0.709375
v 0.703914 0.305712 0.762500
v 0.702104 0.291962 0.762500
v 0.702104 0.291962 0.709375
v 0.703914 0.305712 0.709375
v 0.703914 0.305712 0.762500
v 0.703914 0.932441 0.709375
v 0.703914 0.932441 0.762500
v 0.703914 0.305712 0.762500
v 0.703914 0.305712 0.709375
v 0.703914 0.932441 0.709375
v 0.703914 0.932441 0.762500
v 0.702104 0.946191 0.709375
v 0.702104 0.946191 0.762500
v 0.703914 0.932441 0.762500
v 0.703914 0.932441 0.709375
v 0.702104 0.946191 0.709375
v 0.702104 0.946191 0.762500
v 0.696797 0.959004 0.709375
v 0.696797 0.959004 0.762500
v 0.702104 0.946191 0.762500
v 0.702104 0.946191 0.709375
v 0.696797 0.959004 0.709375
v 0.696797 0.959004 0.762500
v 0.688354 0.970006 0.709375
v 0.688354 0.970006 0.762500
v 0.696797 0.959004 0.762500
v 0.696797 0.959004 0.709375
v 0.688354 0.970006 0.709375
v 0.688354 0.970006 0.762500
v 0.677352 0.978449 0.709375
v 0.677352 0.978449 0.762500
v 0.688354 0.970006 0.762500
v 0.688354 0.970006 0.709375
v 0.677352 0.978449 0.709375
v 0.677352 0.978449 0.762500
v 0.664539 0.983756 0.709375
v 0.664539 0.983756 0.762500
v 0.677352 0.978449 0.762500
v 0.677352 0.978449 0.709375
v 0.664539 0.983756 0.709375
v 0.664539 0.983756 0.762500
v 0.650789 0.985566 0.709375
v 0.650789 0.985566 0.762500
v 0.664539 0.983756 0.762500
v 0.664539 0.983756 0.709375
v 0.650789 0.985566 0.709375
v 0.650789 0.985566 0.762500
v 0.322696 0.985566 0.709375
v 0.322696 0.985566 0.762500
v 0.650789 0.985566 0.762500
v 0.650789 0.985566 0.709375
v 0.322696 0.985566 0.709375
v 0.322696 0.985566 0.762500
v 0.308946 0.983756 0.709375
v 0.308946 0.983756 0.762500
v 0.322696 0.985566 0.762500
v 0.322696 0.985566 0.709375
v 0.308946 0.983756 0.709375
v 0.308946 0.983756 0.762500
v 0.296133 0.978449 0.709375
v 0.296133 0.978449 0.762500
v 0.308946 0.983756 0.762500
v 0.308946 0.983756 0.709375
v 0.296133 0.978449 0.709375
v 0.296133 0.978449 0.762500
v 0.285131 0.970006 0.709375
v 0.285131 0.970006 0.762500
v 0.296133 0.978449 0.762500
v 0.296133 0.978449 0.709375
v 0.285131 0.970006 0.709375
v 0.285131 0.970006 0.762500
v 0.276688 0.959004 0.709375
v 0.276688 0.959004 0.762500
v 0.285131 0.970006 0.762500
v 0.285131 0.970006 0.709375
v 0.276688 0.959004 0.709375
v 0.276688 0.959004 0.762500
v 0.271381 0.946191 0.709375
v 0.271381 0.946191 0.762500
v 0.276688 0.959004 0.762500
v 0.276688 0.959004 0.709375
v 0.271381 0.946191 0.709375
v 0.271381 0.946191 0.762500
v 0.269571 0.932441 0.709375
v 0.269571 0.932441 0.762500
v 0.271381 0.946191 0.762500
v 0.271381 0.946191 0.709375
v 0.269571 0.932441 0.709375
v 0.269571 0.932441 0.762500
v 0.269571 0.305712 0.709375
v 0.269571 0.305712 0.762500
v 0.269571 0.932441 0.762500
v 0.269571 0.932441 0.709375
v 0.269571 0.305712 0.709375
v 0.269571 0.305712 0.762500
v 0.271381 0.291962 0.709375
v 0.271381 0.291962 0.762500
v 0.269571 0.305712 0.762500
v 0.269571 0.305712 0.709375
v 0.271381 0.291962 0.709375
v 0.271381 0.291962 0.762500
v 0.276688 0.279149 0.709375
v 0.276688 0.279149 0.762500
v 0.271381 0.291962 0.762500
v 0.271381 0.291962 0.709375
v 0.276688 0.279149 0.709375
v 0.276688 0.279149 0.762500
v 0.285131 0.268147 0.709375
v 0.285131 0.268147 0.762500
v 0.276688 0.279149 0.762500
v 0.276688 0.279149 0.709375
v 0.285131 0.268147 0.709375
v 0.285131 0.268147 0.762500
v 0.296133 0.259704 0.709375
v 0.296133 0.259704 0.762500
v 0.285131 0.268147 0.762500
v 0.285131 0.268147 0.709375
v 0.296133 0.259704 0.709375
v 0.296133 0.259704 0.762500
v 0.308946 0.254397 0.709375
v 0.308946 0.254397 0.762500
v 0.296133 0.259704 0.762500
v 0.296133 0.259704 0.709375
v 0.308946 0.254397 0.709375
v 0.308946 0.254397 0.762500
v 0.322696 0.252587 0.709375
v 0.322696 0.252587 0.762500
v 0.308946 0.254397 0.762500
v 0.308946 0.254397 0.709375
v 0.322696 0.252587 0.709375
v 0.322696 0.252587 0.762500
v 0.650789 0.252587 0.709375
v 0.650789 0.252587 0.762500
v 0.322696 0.252587 0.762500
v 0.322696 0.252587 0.709375
v 0.650789 0.252587 0.709375
v 0.650789 0.252587 0.709375
v 0.658513 0.266756 0.687500
v 0.664539 0.254397 0.709375
v 0.650789 0.252587 0.709375
v 0.645172 0.265137 0.687500
v 0.658513 0.266756 0.687500
v 0.664539 0.254397 0.709375
v 0.670909 0.271851 0.687500
v 0.677352 0.259704 0.709375
v 0.664539 0.254397 0.709375
v 0.658513 0.266756 0.687500
v 0.670909 0.271851 0.687500
v 0.677352 0.259704 0.709375
v 0.681505 0.280069 0.687500
v 0.688354 0.268147 0.709375
v 0.677352 0.259704 0.709375
v 0.670909 0.271851 0.687500
v 0.681505 0.280069 0.687500
v 0.688354 0.268147 0.709375
v 0.689569 0.290846 0.687500
v 0.696797 0.279149 0.709375
v 0.688354 0.268147 0.709375
v 0.681505 0.280069 0.687500
v 0.689569 0.290846 0.687500
v 0.696797 0.279149 0.709375
v 0.694543 0.303446 0.687500
v 0.702104 0.291962 0.709375
v 0.696797 0.279149 0.709375
v 0.689569 0.290846 0.687500
v 0.694543 0.303446 0.687500
v 0.702104 0.291962 0.709375
v 0.696082 0.317013 0.687500
v 0.703914 0.305712 0.709375
v 0.702104 0.291962 0.709375
v 0.694543 0.303446 0.687500
v 0.696082 0.317013 0.687500
v 0.703914 0.305712 0.709375
v 0.696082 0.921140 0.687500
v 0.703914 0.932441 0.709375
v 0.703914 0.305712 0.709375
v 0.696082 0.317013 0.687500
v 0.696082 0.921140 0.687500
v 0.703914 0.932441 0.709375
v 0.694543 0.934707 0.687500
v 0.702104 0.946191 0.709375
v 0.703914 0.932441 0.709375
v 0.696082 0.921140 0.687500
v 0.694543 0.934707 0.687500
v 0.702104 0.946191 0.709375
v 0.689569 0.947307 0.687500
v 0.696797 0.959004 0.709375
v 0.702104 0.946191 0.709375
v 0.694543 0.934707 0.687500
v 0.689569 0.947307 0.687500
v 0.696797 0.959004 0.709375
v 0.681505 0.958084 0.687500
v 0.688354 0.970006 0.709375
v 0.696797 0.959004 0.709375
v 0.689569 0.947307 0.687500
v 0.681505 0.958084 0.687500
v 0.688354 0.970006 0.709375
v 0.670909 0.966302 0.687500
v 0.677352 0.978449 0.709375
v 0.688354 0.970006 0.709375
v 0.681505 0.958084 0.687500
v 0.670909 0.966302 0.687500
v 0.677352 0.978449 0.709375
v 0.658513 0.971397 0.687500
v 0.664539 0.983756 0.709375
v 0.677352 0.978449 0.709375
v 0.670909 0.966302 0.687500
v 0.658513 0.971397 0.687500
v 0.664539 0.983756 0.709375
v 0.645172 0.973016 0.687500
v 0.650789 0.985566 0.709375
v 0.664539 0.983756 0.709375
v 0.658513 0.971397 0.687500
v 0.645172 0.973016 0.687500
v 0.650789 0.985566 0.709375
v 0.328313 0.973016 0.687500
v 0.322696 0.985566 0.709375
v 0.650789 0.985566 0.709375
v 0.645172 0.973016 0.687500
v 0.328313 0.973016 0.687500
v 0.322696 0.985566 0.709375
v 0.314972 0.971397 0.687500
v 0.308946 0.983756 0.709375
v 0.322696 0.985566 0.709375
v 0.328313 0.973016 0.687500
v 0.314972 0.971397 0.687500
v 0.308946 0.983756 0.709375
v 0.302576 0.966302 0.687500
v 0.296133 0.978449 0.709375
v 0.308946 0.983756 0.709375
v 0.314972 0.971397 0.687500
v 0.302576 0.966302 0.687500
v 0.296133 0.978449 0.709375
v 0.291980 0.958084 0.687500
v 0.285131 0.970006 0.709375
v 0.296133 0.978449 0.709375
v 0.302576 0.966302 0.687500
v 0.291980 0.958084 0.687500
v 0.285131 0.970006 0.709375
v 0.283916 0.947307 0.687500
v 0.276688 0.959004 0.709375
v 0.285131 0.970006 0.709375
v 0.291980 0.958084 0.687500
v 0.283916 0.947307 0.687500
v 0.276688 0.959004 0.709375
v 0.278942 0.934707 0.687500
v 0.271381 0.946191 0.709375
v 0.276688 0.959004 0.709375
v 0.283916 0.947307 0.687500
v 0.278942 0.934707 0.687500
v 0.271381 0.946191 0.709375
v 0.277403 0.921140 0.687500
v 0.269571 0.932441 0.709375
v 0.271381 0.946191 0.709375
v 0.278942 0.934707 0.687500
v 0.277403 0.921140 0.687500
v 0.269571 0.932441 0.709375
v 0.277403 0.317013 0.687500
v 0.269571 0.305712 0.709375
v 0.269571 0.932441 0.709375
v 0.277403 0.921140 0.687500
v 0.277403 0.317013 0.687500
v 0.269571 0.305712 0.709375
v 0.278942 0.303446 0.687500
v 0.271381 0.291962 0.709375
v 0.269571 0.305712 0.709375
v 0.277403 0.317013 0.687500
v 0.278942 0.303446 0.687500
v 0.271381 0.291962 0.709375
v 0.283916 0.290846 0.687500
v 0.276688 0.279149 0.709375
v 0.271381 0.291962 0.709375
v 0.278942 0.303446 0.687500
v 0.283916 0.290846 0.687500
v 0.276688 0.279149 0.709375
v 0.291980 0.280069 0.687500
v 0.285131 0.268147 0.709375
v 0.276688 0.279149 0.709375
v 0.283916 0.290846 0.687500
v 0.291980 0.280069 0.687500
v 0.285131 0.268147 0.709375
v 0.302576 0.271851 0.687500
v 0.296133 0.259704 0.709375
v 0.285131 0.268147 0.709375
v 0.291980 0.280069 0.687500
v 0.302576 0.271851 0.687500
v 0.296133 0.259704 0.709375
v 0.314972 0.266756 0.687500
v 0.308946 0.254397 0.709375
v 0.296133 0.259704 0.709375
v 0.302576 0.271851 0.687500
v 0.314972 0.266756 0.687500
v 0.308946 0.254397 0.709375
v 0.328313 0.265137 0.687500
v 0.322696 0.252587 0.709375
v 0.308946 0.254397 0.709375
v 0.314972 0.266756 0.687500
v 0.328313 0.265137 0.687500
v 0.322696 0.252587 0.709375
v 0.645172 0.265137 0.687500
v 0.650789 0.252587 0.709375
v 0.322696 0.252587 0.709375
v 0.328313 0.265137 0.687500
v 0.645172 0.265137 0.687500
v 0.486742 0.619077 0.687500
v 0.658513 0.266756 0.687500
v 0.645172 0.265137 0.687500
v 0.486742 0.619077 0.687500
v 0.670909 0.271851 0.687500
v 0.658513 0.266756 0.687500
v 0.486742 0.619077 0.687500
v 0.681505 0.280069 0.687500
v 0.670909 0.271851 0.687500
v 0.486742 0.619077 0.687500
v 0.689569 0.290846 0.687500
v 0.681505 0.280069 0.687500
v 0.486742 0.619077 0.687500
v 0.694543 0.303446 0.687500
v 0.689569 0.290846 0.687500
v 0.486742 0.619077 0.687500
v 0.696082 0.317013 0.687500
v 0.694543 0.303446 0.687500
v 0.486742 0.619077 0.687500
v 0.696082 0.921140 0.687500
v 0.696082 0.317013 0.687500
v 0.486742 0.619077 0.687500
v 0.694543 0.934707 0.687500
v 0.696082 0.921140 0.687500
v 0.486742 0.619077 0.687500
v 0.689569 0.947307 0.687500
v 0.694543 0.934707 0.687500
v 0.486742 0.619077 0.687500
v 0.681505 0.958084 0.687500
v 0.689569 0.947307 0.687500
v 0.486742 0.619077 0.687500
v 0.670909 0.966302 0.687500
v 0.681505 0.958084 0.687500
v 0.486742 0.619077 0.687500
v 0.658513 0.971397 0.687500
v 0.670909 0.966302 0.687500
v 0.486742 0.619077 0.687500
v 0.645172 0.973016 0.687500
v 0.658513 0.971397 0.687500
v 0.486742 0.619077 0.687500
v 0.328313 0.973016 0.687500
v 0.645172 0.973016 0.687500
v 0.486742 0.619077 0.687500
v 0.314972 0.971397 0.687500
v 0.328313 0.973016 0.687500
v 0.486742 0.619077 0.687500
v 0.302576 0.966302 0.687500
v 0.314972 0.971397 0.687500
v 0.486742 0.619077 0.687500
v 0.291980 0.958084 0.687500
v 0.302576 0.966302 0.687500
v 0.486742 0.619077 0.687500
v 0.283916 0.947307 0.687500
v 0.291980 0.958084 0.687500
v 0.486742 0.619077 0.687500
v 0.278942 0.934707 0.687500
v 0.283916 0.947307 0.687500
v 0.486742 0.619077 0.687500
v 0.277403 0.921140 0.687500
v 0.278942 0.934707 0.687500
v 0.486742 0.619077 0.687500
v 0.277403 0.317013 0.687500
v 0.277403 0.921140 0.687500
v 0.486742 0.619077 0.687500
v 0.278942 0.303446 0.687500
v 0.277403 0.317013 0.687500
v 0.486742 0.619077 0.687500
v 0.283916 0.290846 0.687500
v 0.278942 0.303446 0.687500
v 0.486742 0.619077 0.687500
v 0.291980 0.280069 0.687500
v 0.283916 0.290846 0.687500
v 0.486742 0.619077 0.687500
v 0.302576 0.271851 0.687500
v 0.291980 0.280069 0.687500
v 0.486742 0.619077 0.687500
v 0.314972 0.266756 0.687500
v 0.302576 0.271851 0.687500
v 0.486742 0.619077 0.687500
v 0.328313 0.265137 0.687500
v 0.314972 0.266756 0.687500
v 0.486742 0.619077 0.687500
v 0.645172 0.265137 0.687500
v 0.328313 0.265137 0.687500
v 0.654893 0.626607 0.687500
v 0.663790 0.627778 0.628125
v 0.663790 0.627778 0.687500
v 0.654893 0.626607 0.687500
v 0.654893 0.626607 0.628125
v 0.663790 0.627778 0.628125
v 0.663790 0.627778 0.687500
v 0.672080 0.631213 0.628125
v 0.672080 0.631213 0.687500
v 0.663790 0.627778 0.687500
v 0.663790 0.627778 0.628125
v 0.672080 0.631213 0.628125
v 0.672080 0.631213 0.687500
v 0.679199 0.636675 0.628125
v 0.679199 0.636675 0.687500
v 0.672080 0.631213 0.687500
v 0.672080 0.631213 0.628125
v 0.679199 0.636675 0.628125
v 0.679199 0.636675 0.687500
v 0.684662 0.643795 0.628125
v 0.684662 0.643795 0.687500
v 0.679199 0.636675 0.687500
v 0.679199 0.636675 0.628125
v 0.684662 0.643795 0.628125
v 0.684662 0.643795 0.687500
v 0.688096 0.652085 0.628125
v 0.688096 0.652085 0.687500
v 0.684662 0.643795 0.687500
v 0.684662 0.643795 0.628125
v 0.688096 0.652085 0.628125
v 0.688096 0.652085 0.687500
v 0.689268 0.660982 0.628125
v 0.689268 0.660982 0.687500
v 0.688096 0.652085 0.687500
v 0.688096 0.652085 0.628125
v 0.689268 0.660982 0.628125
v 0.689268 0.660982 0.687500
v 0.689268 0.928097 0.628125
v 0.689268 0.928097 0.687500
v 0.689268 0.660982 0.687500
v 0.689268 0.660982 0.628125
v 0.689268 0.928097 0.628125
v 0.689268 0.928097 0.687500
v 0.688096 0.936994 0.628125
v 0.688096 0.936994 0.687500
v 0.689268 0.928097 0.687500
v 0.689268 0.928097 0.628125
v 0.688096 0.936994 0.628125
v 0.688096 0.936994 0.687500
v 0.684662 0.945285 0.628125
v 0.684662 0.945285 0.687500
v 0.688096 0.936994 0.687500
v 0.688096 0.936994 0.628125
v 0.684662 0.945285 0.628125
v 0.684662 0.945285 0.687500
v 0.679199 0.952404 0.628125
v 0.679199 0.952404 0.687500
v 0.684662 0.945285 0.687500
v 0.684662 0.945285 0.628125
v 0.679199 0.952404 0.628125
v 0.679199 0.952404 0.687500
v 0.672080 0.957867 0.628125
v 0.672080 0.957867 0.687500
v 0.679199 0.952404 0.687500
v 0.679199 0.952404 0.628125
v 0.672080 0.957867 0.628125
v 0.672080 0.957867 0.687500
v 0.663790 0.961301 0.628125
v 0.663790 0.961301 0.687500
v 0.672080 0.957867 0.687500
v 0.672080 0.957867 0.628125
v 0.663790 0.961301 0.628125
v 0.663790 0.961301 0.687500
v 0.654893 0.962472 0.628125
v 0.654893 0.962472 0.687500
v 0.663790 0.961301 0.687500
v 0.663790 0.961301 0.628125
v 0.654893 0.962472 0.628125
v 0.654893 0.962472 0.687500
v 0.319602 0.962472 0.628125
v 0.319602 0.962472 0.687500
v 0.654893 0.962472 0.687500
v 0.654893 0.962472 0.628125
v 0.319602 0.962472 0.628125
v 0.319602 0.962472 0.687500
v 0.310705 0.961301 0.628125
v 0.310705 0.961301 0.687500
v 0.319602 0.962472 0.687500
v 0.319602 0.962472 0.628125
v 0.310705 0.961301 0.628125
v 0.310705 0.961301 0.687500
v 0.302415 0.957867 0.628125
v 0.302415 0.957867 0.687500
v 0.310705 0.961301 0.687500
v 0.310705 0.961301 0.628125
v 0.302415 0.957867 0.628125
v 0.302415 0.957867 0.687500
v 0.295295 0.952404 0.628125
v 0.295295 0.952404 0.687500
v 0.302415 0.957867 0.687500
v 0.302415 0.957867 0.628125
v 0.295295 0.952404 0.628125
v 0.295295 0.952404 0.687500
v 0.289833 0.945285 0.628125
v 0.289833 0.945285 0.687500
v 0.295295 0.952404 0.687500
v 0.295295 0.952404 0.628125
v 0.289833 0.945285 0.628125
v 0.289833 0.945285 0.687500
v 0.286399 0.936994 0.628125
v 0.286399 0.936994 0.687500
v 0.289833 0.945285 0.687500
v 0.289833 0.945285 0.628125
v 0.286399 0.936994 0.628125
v 0.286399 0.936994 0.687500
v 0.285227 0.928097 0.628125
v 0.285227 0.928097 0.687500
v 0.286399 0.936994 0.687500
v 0.286399 0.936994 0.628125
v 0.285227 0.928097 0.628125
v 0.285227 0.928097 0.687500
v 0.285227 0.660982 0.628125
v 0.285227 0.660982 0.687500
v 0.285227 0.928097 0.687500
v 0.285227 0.928097 0.628125
v 0.285227 0.660982 0.628125
v 0.285227 0.660982 0.687500
v 0.286399 0.652085 0.628125
v 0.286399 0.652085 0.687500
v 0.285227 0.660982 0.687500
v 0.285227 0.660982 0.628125
v 0.286399 0.652085 0.628125
v 0.286399 0.652085 0.687500
v 0.289833 0.643795 0.628125
v 0.289833 0.643795 0.687500
v 0.286399 0.652085 0.687500
v 0.286399 0.652085 0.628125
v 0.289833 0.643795 0.628125
v 0.289833 0.643795 0.687500
v 0.295295 0.636675 0.628125
v 0.295295 0.636675 0.687500
v 0.289833 0.643795 0.687500
v 0.289833 0.643795 0.628125
v 0.295295 0.636675 0.628125
v 0.295295 0.636675 0.687500
v 0.302415 0.631213 0.628125
v 0.302415 0.631213 0.687500
v 0.295295 0.636675 0.687500
v 0.295295 0.636675 0.628125
v 0.302415 0.631213 0.628125
v 0.302415 0.631213 0.687500
v 0.310705 0.627778 0.628125
v 0.310705 0.627778 0.687500
v 0.302415 0.631213 0.687500
v 0.302415 0.631213 0.628125
v 0.310705 0.627778 0.628125
v 0.310705 0.627778 0.687500
v 0.319602 0.626607 0.628125
v 0.319602 0.626607 0.687500
v 0.310705 0.627778 0.687500
v 0.310705 0.627778 0.628125
v 0.319602 0.626607 0.628125
v 0.319602 0.626607 0.687500
v 0.654893 0.626607 0.628125
v 0.654893 0.626607 0.687500
v 0.319602 0.626607 0.687500
v 0.319602 0.626607 0.628125
v 0.654893 0.626607 0.628125
v 0.654893 0.626607 0.628125
v 0.651068 0.639795 0.600000
v 0.663790 0.627778 0.628125
v 0.654893 0.626607 0.628125
v 0.642529 0.638992 0.600000
v 0.651068 0.639795 0.600000
v 0.663790 0.627778 0.628125
v 0.658966 0.642800 0.600000
v 0.672080 0.631213 0.628125
v 0.663790 0.627778 0.628125
v 0.651068 0.639795 0.600000
v 0.658966 0.642800 0.600000
v 0.672080 0.631213 0.628125
v 0.665683 0.647791 0.600000
v 0.679199 0.636675 0.628125
v 0.672080 0.631213 0.628125
v 0.658966 0.642800 0.600000
v 0.665683 0.647791 0.600000
v 0.679199 0.636675 0.628125
v 0.670754 0.654415 0.600000
v 0.684662 0.643795 0.628125
v 0.679199 0.636675 0.628125
v 0.665683 0.647791 0.600000
v 0.670754 0.654415 0.600000
v 0.684662 0.643795 0.628125
v 0.673822 0.662209 0.600000
v 0.688096 0.652085 0.628125
v 0.684662 0.643795 0.628125
v 0.670754 0.654415 0.600000
v 0.673822 0.662209 0.600000
v 0.688096 0.652085 0.628125
v 0.674669 0.670633 0.600000
v 0.689268 0.660982 0.628125
v 0.688096 0.652085 0.628125
v 0.673822 0.662209 0.600000
v 0.674669 0.670633 0.600000
v 0.689268 0.660982 0.628125
v 0.674669 0.918446 0.600000
v 0.689268 0.928097 0.628125
v 0.689268 0.660982 0.628125
v 0.674669 0.670633 0.600000
v 0.674669 0.918446 0.600000
v 0.689268 0.928097 0.628125
v 0.673822 0.926870 0.600000
v 0.688096 0.936994 0.628125
v 0.689268 0.928097 0.628125
v 0.674669 0.918446 0.600000
v 0.673822 0.926870 0.600000
v 0.688096 0.936994 0.628125
v 0.670754 0.934664 0.600000
v 0.684662 0.945285 0.628125
v 0.688096 0.936994 0.628125
v 0.673822 0.926870 0.600000
v 0.670754 0.934664 0.600000
v 0.684662 0.945285 0.628125
v 0.665683 0.941288 0.600000
v 0.679199 0.952404 0.628125
v 0.684662 0.945285 0.628125
v 0.670754 0.934664 0.600000
v 0.665683 0.941288 0.600000
v 0.679199 0.952404 0.628125
v 0.658966 0.946279 0.600000
v 0.672080 0.957867 0.628125
v 0.679199 0.952404 0.628125
v 0.665683 0.941288 0.600000
v 0.658966 0.946279 0.600000
v 0.672080 0.957867 0.628125
v 0.651068 0.949284 0.600000
v 0.663790 0.961301 0.628125
v 0.672080 0.957867 0.628125
v 0.658966 0.946279 0.600000
v 0.651068 0.949284 0.600000
v 0.663790 0.961301 0.628125
v 0.642529 0.950087 0.600000
v 0.654893 0.962472 0.628125
v 0.663790 0.961301 0.628125
v 0.651068 0.949284 0.600000
v 0.642529 0.950087 0.600000
v 0.654893 0.962472 0.628125
v 0.331966 0.950087 0.600000
v 0.319602 0.962472 0.628125
v 0.654893 0.962472 0.628125
v 0.642529 0.950087 0.600000
v 0.331966 0.950087 0.600000
v 0.319602 0.962472 0.628125
v 0.323427 0.949284 0.600000
v 0.310705 0.961301 0.628125
v 0.319602 0.962472 0.628125
v 0.331966 0.950087 0.600000
v 0.323427 0.949284 0.600000
v 0.310705 0.961301 0.628125
v 0.315528 0.946279 0.600000
v 0.302415 0.957867 0.628125
v 0.310705 0.961301 0.628125
v 0.323427 0.949284 0.600000
v 0.315528 0.946279 0.600000
v 0.302415 0.957867 0.628125
v 0.308812 0.941288 0.600000
v 0.295295 0.952404 0.628125
v 0.302415 0.957867 0.628125
v 0.315528 0.946279 0.600000
v 0.308812 0.941288 0.600000
v 0.295295 0.952404 0.628125
v 0.303741 0.934664 0.600000
v 0.289833 0.945285 0.628125
v 0.295295 0.952404 0.628125
v 0.308812 0.941288 0.600000
v 0.303741 0.934664 0.600000
v 0.289833 0.945285 0.628125
v 0.300673 0.926870 0.600000
v 0.286399 0.936994 0.628125
v 0.289833 0.945285 0.628125
v 0.303741 0.934664 0.600000
v 0.300673 0.926870 0.600000
v 0.286399 0.936994 0.628125
v 0.299825 0.918446 0.600000
v 0.285227 0.928097 0.628125
v 0.286399 0.936994 0.628125
v 0.300673 0.926870 0.600000
v 0.299825 0.918446 0.600000
v 0.285227 0.928097 0.628125
v 0.299825 0.670633 0.600000
v 0.285227 0.660982 0.628125
v 0.285227 0.928097 0.628125
v 0.299825 0.918446 0.600000
v 0.299825 0.670633 0.600000
v 0.285227 0.660982 0.628125
v 0.300673 0.662209 0.600000
v 0.286399 0.652085 0.628125
v 0.285227 0.660982 0.628125
v 0.299825 0.670633 0.600000
v 0.300673 0.662209 0.600000
v 0.286399 0.652085 0.628125
v 0.303741 0.654415 0.600000
v 0.289833 0.643795 0.628125
v 0.286399 0.652085 0.628125
v 0.300673 0.662209 0.600000
v 0.303741 0.654415 0.600000
v 0.289833 0.643795 0.628125
v 0.308812 0.647791 0.600000
v 0.295295 0.636675 0.628125
v 0.289833 0.643795 0.628125
v 0.303741 0.654415 0.600000
v 0.308812 0.647791 0.600000
v 0.295295 0.636675 0.628125
v 0.315528 0.642800 0.600000
v 0.302415 0.631213 0.628125
v 0.295295 0.636675 0.628125
v 0.308812 0.647791 0.600000
v 0.315528 0.642800 0.600000
v 0.302415 0.631213 0.628125
v 0.323427 0.639795 0.600000
v 0.310705 0.627778 0.628125
v 0.302415 0.631213 0.628125
v 0.315528 0.642800 0.600000
v 0.323427 0.639795 0.600000
v 0.310705 0.627778 0.628125
v 0.331966 0.638992 0.600000
v 0.319602 0.626607 0.628125
v 0.310705 0.627778 0.628125
v 0.323427 0.639795 0.600000
v 0.331966 0.638992 0.600000
v 0.319602 0.626607 0.628125
v 0.642529 0.638992 0.600000
v 0.654893 0.626607 0.628125
v 0.319602 0.626607 0.628125
v 0.331966 0.638992 0.600000
v 0.642529 0.638992 0.600000
v 0.487247 0.794540 0.600000
v 0.651068 0.639795 0.600000
v 0.642529 0.638992 0.600000
v 0.487247 0.794540 0.600000
v 0.658966 0.642800 0.600000
v 0.651068 0.639795 0.600000
v 0.487247 0.794540 0.600000
v 0.665683 0.647791 0.600000
v 0.658966 0.642800 0.600000
v 0.487247 0.794540 0.600000
v 0.670754 0.654415 0.600000
v 0.665683 0.647791 0.600000
v 0.487247 0.794540 0.600000
v 0.673822 0.662209 0.600000
v 0.670754 0.654415 0.600000
v 0.487247 0.794540 0.600000
v 0.674669 0.670633 0.600000
v 0.673822 0.662209 0.600000
v 0.487247 0.794540 0.600000
v 0.674669 0.918446 0.600000
v 0.674669 0.670633 0.600000
v 0.487247 0.794540 0.600000
v 0.673822 0.926870 0.600000
v 0.674669 0.918446 0.600000
v 0.487247 0.794540 0.600000
v 0.670754 0.934664 0.600000
v 0.673822 0.926870 0.600000
v 0.487247 0.794540 0.600000
v 0.665683 0.941288 0.600000
v 0.670754 0.934664 0.600000
v 0.487247 0.794540 0.600000
v 0.658966 0.946279 0.600000
v 0.665683 0.941288 0.600000
v 0.487247 0.794540 0.600000
v 0.651068 0.949284 0.600000
v 0.658966 0.946279 0.600000
v 0.487247 0.794540 0.600000
v 0.642529 0.950087 0.600000
v 0.651068 0.949284 0.600000
v 0.487247 0.794540 0.600000
v 0.331966 0.950087 0.600000
v 0.642529 0.950087 0.600000
v 0.487247 0.794540 0.600000
v 0.323427 0.949284 0.600000
v 0.331966 0.950087 0.600000
v 0.487247 0.794540 0.600000
v 0.315528 0.946279 0.600000
v 0.323427 0.949284 0.600000
v 0.487247 0.794540 0.600000
v 0.308812 0.941288 0.600000
v 0.315528 0.946279 0.600000
v 0.487247 0.794540 0.600000
v 0.303741 0.934664 0.600000
v 0.308812 0.941288 0.600000
v 0.487247 0.794540 0.600000
v 0.300673 0.926870 0.600000
v 0.303741 0.934664 0.600000
v 0.487247 0.794540 0.600000
v 0.299825 0.918446 0.600000
v 0.300673 0.926870 0.600000
v 0.487247 0.794540 0.600000
v 0.299825 0.670633 0.600000
v 0.299825 0.918446 0.600000
v 0.487247 0.794540 0.600000
v 0.300673 0.662209 0.600000
v 0.299825 0.670633 0.600000
v 0.487247 0.794540 0.600000
v 0.303741 0.654415 0.600000
v 0.300673 0.662209 0.600000
v 0.487247 0.794540 0.600000
v 0.308812 0.647791 0.600000
v 0.303741 0.654415 0.600000
v 0.487247 0.794540 0.600000
v 0.315528 0.642800 0.600000
v 0.308812 0.647791 0.600000
v 0.487247 0.794540 0.600000
v 0.323427 0.639795 0.600000
v 0.315528 0.642800 0.600000
v 0.487247 0.794540 0.600000
v 0.331966 0.638992 0.600000
v 0.323427 0.639795 0.600000
v 0.487247 0.794540 0.600000
v 0.642529 0.638992 0.600000
v 0.331966 0.638992 0.600000
vt 0.496094 0.501953
vt 0.765927 0.951864
vt 0.723437 0.958594
vt 0.496094 0.501953
vt 0.804258 0.932334
vt 0.765927 0.951864
vt 0.496094 0.501953
vt 0.834677 0.901914
vt 0.804258 0.932334
vt 0.496094 0.501953
vt 0.854208 0.863584
vt 0.834677 0.901914
vt 0.496094 0.501953
vt 0.860937 0.821094
vt 0.854208 0.863584
vt 0.496094 0.501953
vt 0.860937 0.182813
vt 0.860937 0.821094
vt 0.496094 0.501953
vt 0.854208 0.140323
vt 0.860937 0.182813
vt 0.496094 0.501953
vt 0.834677 0.101992
vt 0.854208 0.140323
vt 0.496094 0.501953
vt 0.804258 0.071573
vt 0.834677 0.101992
vt 0.496094 0.501953
vt 0.765927 0.052042
vt 0.804258 0.071573
vt 0.496094 0.501953
vt 0.723437 0.045313
vt 0.765927 0.052042
vt 0.496094 0.501953
vt 0.268750 0.045313
vt 0.723437 0.045313
vt 0.496094 0.501953
vt 0.226260 0.052042
vt 0.268750 0.045313
vt 0.496094 0.501953
vt 0.187930 0.071573
vt 0.226260 0.052042
vt 0.496094 0.501953
vt 0.157510 0.101992
vt 0.187930 0.071573
vt 0.496094 0.501953
vt 0.137980 0.140323
vt 0.157510 0.101992
vt 0.496094 0.501953
vt 0.131250 0.182813
vt 0.137980 0.140323
vt 0.496094 0.501953
vt 0.131250 0.821094
vt 0.131250 0.182813
vt 0.496094 0.501953
vt 0.137980 0.863584
vt 0.131250 0.821094
vt 0.496094 0.501953
vt 0.157510 0.901914
vt 0.137980 0.863584
vt 0.496094 0.501953
vt 0.187930 0.932334
vt 0.157510 0.901914
vt 0.496094 0.501953
vt 0.226260 0.951864
vt 0.187930 0.932334
vt 0.496094 0.501953
vt 0.268750 0.958594
vt 0.226260 0.951864
vt 0.496094 0.501953
vt 0.723437 0.958594
vt 0.268750 0.958594
vt 0.950000 0.987500
vt 0.987500 0.987500
vt 0.950000 0.950000
vt 0.950000 0.987500
vt 0.950000 0.950000
vt 0.987500 0.950000
vt 0.950000 0.987500
vt 0.987500 0.987500
vt 0.950000 0.950000
vt 0.950000 0.987500
vt 0.950000 0.950000
vt 0.987500 0.950000
vt 0.950000 0.987500
vt 0.987500 0.987500
vt 0.950000 0.950000
vt 0.950000 0.987500
vt 0.950000 0.950000
vt 0.987500 0.950000
vt 0.950000 0.987500
vt 0.987500 0.987500
vt 0.950000 0.950000
vt 0.950000 0.987500
vt 0.950000 0.950000
vt 0.987500 0.950000
vt 0.937500 0.863584
vt 0.937500 0.821094
vt 0.468750 0.821094
vt 0.937500 0.863584
vt 0.468750 0.821094
vt 0.468750 0.863584
vt 0.937500 0.821094
vt 0.937500 0.182813
vt 0.468750 0.182813
vt 0.937500 0.821094
vt 0.468750 0.182813
vt 0.468750 0.821094
vt 0.937500 0.182813
vt 0.937500 0.140323
vt 0.468750 0.140323
vt 0.937500 0.182813
vt 0.468750 0.140323
vt 0.468750 0.182813
vt 0.950000 0.987500
vt 0.987500 0.987500
vt 0.950000 0.950000
vt 0.950000 0.987500
vt 0.950000 0.950000
vt 0.987500 0.950000
vt 0.950000 0.987500
vt 0.987500 0.987500
vt 0.950000 0.950000
vt 0.950000 0.987500
vt 0.950000 0.950000
vt 0.987500 0.950000
vt 0.950000 0.987500
vt 0.987500 0.987500
vt 0.950000 0.950000
vt 0.950000 0.987500
vt 0.950000 0.950000
vt 0.987500 0.950000
vt 0.950000 0.987500
vt 0.987500 0.987500
vt 0.950000 0.950000
vt 0.950000 0.987500
vt 0.950000 0.950000
vt 0.987500 0.950000
vt 0.950000 0.987500
vt 0.987500 0.987500
vt 0.950000 0.950000
vt 0.950000 0.987500
vt 0.950000 0.950000
vt 0.987500 0.950000
vt 0.950000 0.987500
vt 0.987500 0.987500
vt 0.950000 0.950000
vt 0.950000 0.987500
vt 0.950000 0.950000
vt 0.987500 0.950000
vt 0.950000 0.987500
vt 0.987500 0.987500
vt 0.950000 0.950000
vt 0.950000 0.987500
vt 0.950000 0.950000
vt 0.987500 0.950000
vt 0.950000 0.987500
vt 0.987500 0.987500
vt 0.950000 0.950000
vt 0.950000 0.987500
vt 0.950000 0.950000
vt 0.987500 0.950000
vt 0.950000 0.987500
vt 0.987500 0.987500
vt 0.950000 0.950000
vt 0.950000 0.987500
vt 0.950000 0.950000
vt 0.987500 0.950000
vt 0.468750 0.140323
vt 0.468750 0.182813
vt 0.000625 0.182813
vt 0.468750 0.140323
vt 0.000625 0.182813
vt 0.000625 0.140323
vt 0.468750 0.182813
vt 0.468750 0.821094
vt 0.000625 0.821094
vt 0.468750 0.182813
vt 0.000625 0.821094
vt 0.000625 0.182813
vt 0.468750 0.821094
vt 0.468750 0.863584
vt 0.000625 0.863584
vt 0.468750 0.821094
vt 0.000625 0.863584
vt 0.000625 0.821094
vt 0.950000 0.987500
vt 0.987500 0.987500
vt 0.950000 0.950000
vt 0.950000 0.987500
vt 0.950000 0.950000
vt 0.987500 0.950000
vt 0.950000 0.987500
vt 0.987500 0.987500
vt 0.950000 0.950000
vt 0.950000 0.987500
vt 0.950000 0.950000
vt 0.987500 0.950000
vt 0.950000 0.987500
vt 0.987500 0.987500
vt 0.950000 0.950000
vt 0.950000 0.987500
vt 0.950000 0.950000
vt 0.987500 0.950000
vt 0.950000 0.987500
vt 0.987500 0.987500
vt 0.950000 0.950000
vt 0.950000 0.987500
vt 0.950000 0.950000
vt 0.987500 0.950000
vt 0.950000 0.987500
vt 0.987500 0.987500
vt 0.950000 0.950000
vt 0.950000 0.987500
vt 0.950000 0.950000
vt 0.987500 0.950000
vt 0.950000 0.987500
vt 0.987500 0.987500
vt 0.987500 0.950000
vt 0.950000 0.987500
vt 0.987500 0.987500
vt 0.987500 0.950000
vt 0.950000 0.987500
vt 0.987500 0.987500
vt 0.987500 0.950000
vt 0.950000 0.987500
vt 0.987500 0.987500
vt 0.987500 0.950000
vt 0.950000 0.987500
vt 0.987500 0.987500
vt 0.987500 0.950000
vt 0.950000 0.987500
vt 0.987500 0.987500
vt 0.987500 0.950000
vt 0.950000 0.987500
vt 0.987500 0.987500
vt 0.987500 0.950000
vt 0.950000 0.987500
vt 0.987500 0.987500
vt 0.987500 0.950000
vt 0.950000 0.987500
vt 0.987500 0.987500
vt 0.987500 0.950000
vt 0.950000 0.987500
vt 0.987500 0.987500
vt 0.987500 0.950000
vt 0.950000 0.987500
vt 0.987500 0.987500
vt 0.987500 0.950000
vt 0.950000 0.987500
vt 0.987500 0.987500
vt 0.987500 0.950000
vt 0.950000 0.987500
vt 0.987500 0.987500
vt 0.987500 0.950000
vt 0.950000 0.987500
vt 0.987500 0.987500
vt 0.987500 0.950000
vt 0.950000 0.987500
vt 0.987500 0.987500
vt 0.987500 0.950000
vt 0.950000 0.987500
vt 0.987500 0.987500
vt 0.987500 0.950000
vt 0.950000 0.987500
vt 0.987500 0.987500
vt 0.987500 0.950000
vt 0.950000 0.987500
vt 0.987500 0.987500
vt 0.987500 0.950000
vt 0.950000 0.987500
vt 0.987500 0.987500
vt 0.987500 0.950000
vt 0.950000 0.987500
vt 0.987500 0.987500
vt 0.987500 0.950000
vt 0.950000 0.987500
vt 0.987500 0.987500
vt 0.987500 0.950000
vt 0.950000 0.987500
vt 0.987500 0.987500
vt 0.987500 0.950000
vt 0.950000 0.987500
vt 0.987500 0.987500
vt 0.987500 0.950000
vt 0.950000 0.987500
vt 0.987500 0.987500
vt 0.987500 0.950000
vt 0.318972 0.071305
vt 0.297900 0.063444
vt 0.302645 0.073235
vt 0.318972 0.071305
vt 0.314548 0.061363
vt 0.297900 0.063444
vt 0.302645 0.073235
vt 0.282420 0.069859
vt 0.287493 0.079482
vt 0.302645 0.073235
vt 0.297900 0.063444
vt 0.282420 0.069859
vt 0.287493 0.079482
vt 0.269170 0.080165
vt 0.274564 0.089611
vt 0.287493 0.079482
vt 0.282420 0.069859
vt 0.269170 0.080165
vt 0.274564 0.089611
vt 0.259063 0.093659
vt 0.264755 0.102925
vt 0.274564 0.089611
vt 0.269170 0.080165
vt 0.259063 0.093659
vt 0.264755 0.102925
vt 0.252795 0.109417
vt 0.258749 0.118515
vt 0.264755 0.102925
vt 0.259063 0.093659
vt 0.252795 0.109417
vt 0.258749 0.118515
vt 0.250799 0.126368
vt 0.256967 0.135322
vt 0.258749 0.118515
vt 0.252795 0.109417
vt 0.250799 0.126368
vt 0.256967 0.135322
vt 0.250799 0.886132
vt 0.256967 0.877178
vt 0.256967 0.135322
vt 0.250799 0.126368
vt 0.250799 0.886132
vt 0.256967 0.877178
vt 0.252795 0.903083
vt 0.258749 0.893985
vt 0.256967 0.877178
vt 0.250799 0.886132
vt 0.252795 0.903083
vt 0.258749 0.893985
vt 0.259063 0.918841
vt 0.264755 0.909575
vt 0.258749 0.893985
vt 0.252795 0.903083
vt 0.259063 0.918841
vt 0.264755 0.909575
vt 0.269170 0.932335
vt 0.274564 0.922889
vt 0.264755 0.909575
vt 0.259063 0.918841
vt 0.269170 0.932335
vt 0.274564 0.922889
vt 0.282420 0.942641
vt 0.287493 0.933018
vt 0.274564 0.922889
vt 0.269170 0.932335
vt 0.282420 0.942641
vt 0.287493 0.933018
vt 0.297900 0.949056
vt 0.302645 0.939265
vt 0.287493 0.933018
vt 0.282420 0.942641
vt 0.297900 0.949056
vt 0.302645 0.939265
vt 0.314548 0.951137
vt 0.318972 0.941195
vt 0.302645 0.939265
vt 0.297900 0.949056
vt 0.314548 0.951137
vt 0.318972 0.941195
vt 0.710452 0.951137
vt 0.706028 0.941195
vt 0.318972 0.941195
vt 0.314548 0.951137
vt 0.710452 0.951137
vt 0.706028 0.941195
vt 0.727100 0.949056
vt 0.722355 0.939265
vt 0.706028 0.941195
vt 0.710452 0.951137
vt 0.727100 0.949056
vt 0.722355 0.939265
vt 0.742580 0.942641
vt 0.737507 0.933018
vt 0.722355 0.939265
vt 0.727100 0.949056
vt 0.742580 0.942641
vt 0.737507 0.933018
vt 0.755830 0.932335
vt 0.750436 0.922889
vt 0.737507 0.933018
vt 0.742580 0.942641
vt 0.755830 0.932335
vt 0.750436 0.922889
vt 0.765937 0.918841
vt 0.760245 0.909575
vt 0.750436 0.922889
vt 0.755830 0.932335
vt 0.765937 0.918841
vt 0.760245 0.909575
vt 0.772205 0.903083
vt 0.766251 0.893985
vt 0.760245 0.909575
vt 0.765937 0.918841
vt 0.772205 0.903083
vt 0.766251 0.893985
vt 0.774201 0.886132
vt 0.768033 0.877178
vt 0.766251 0.893985
vt 0.772205 0.903083
vt 0.774201 0.886132
vt 0.768033 0.877178
vt 0.774201 0.126368
vt 0.768033 0.135322
vt 0.768033 0.877178
vt 0.774201 0.886132
vt 0.774201 0.126368
vt 0.768033 0.135322
vt 0.772205 0.109417
vt 0.766251 0.118515
vt 0.768033 0.135322
vt 0.774201 0.126368
vt 0.772205 0.109417
vt 0.766251 0.118515
vt 0.765937 0.093659
vt 0.760245 0.102925
vt 0.766251 0.118515
vt 0.772205 0.109417
vt 0.765937 0.093659
vt 0.760245 0.102925
vt 0.755830 0.080165
vt 0.750436 0.089611
vt 0.760245 0.102925
vt 0.765937 0.093659
vt 0.755830 0.080165
vt 0.750436 0.089611
vt 0.742580 0.069859
vt 0.737507 0.079482
vt 0.750436 0.089611
vt 0.755830 0.080165
vt 0.742580 0.069859
vt 0.737507 0.079482
vt 0.727100 0.063444
vt 0.722355 0.073235
vt 0.737507 0.079482
vt 0.742580 0.069859
vt 0.727100 0.063444
vt 0.722355 0.073235
vt 0.710452 0.061363
vt 0.706028 0.071305
vt 0.722355 0.073235
vt 0.727100 0.063444
vt 0.710452 0.061363
vt 0.706028 0.071305
vt 0.314548 0.061363
vt 0.318972 0.071305
vt 0.706028 0.071305
vt 0.710452 0.061363
vt 0.314548 0.061363
vt 0.314548 0.061363
vt 0.294172 0.055750
vt 0.297900 0.063444
vt 0.314548 0.061363
vt 0.311072 0.053551
vt 0.294172 0.055750
vt 0.297900 0.063444
vt 0.278433 0.062297
vt 0.282420 0.069859
vt 0.297900 0.063444
vt 0.294172 0.055750
vt 0.278433 0.062297
vt 0.282420 0.069859
vt 0.264932 0.072744
vt 0.269170 0.080165
vt 0.282420 0.069859
vt 0.278433 0.062297
vt 0.264932 0.072744
vt 0.269170 0.080165
vt 0.254591 0.086378
vt 0.259063 0.093659
vt 0.269170 0.080165
vt 0.264932 0.072744
vt 0.254591 0.086378
vt 0.259063 0.093659
vt 0.248117 0.102268
vt 0.252795 0.109417
vt 0.259063 0.093659
vt 0.254591 0.086378
vt 0.248117 0.102268
vt 0.252795 0.109417
vt 0.245953 0.119334
vt 0.250799 0.126368
vt 0.252795 0.109417
vt 0.248117 0.102268
vt 0.245953 0.119334
vt 0.250799 0.126368
vt 0.245953 0.893166
vt 0.250799 0.886132
vt 0.250799 0.126368
vt 0.245953 0.119334
vt 0.245953 0.893166
vt 0.250799 0.886132
vt 0.248117 0.910232
vt 0.252795 0.903083
vt 0.250799 0.886132
vt 0.245953 0.893166
vt 0.248117 0.910232
vt 0.252795 0.903083
vt 0.254591 0.926122
vt 0.259063 0.918841
vt 0.252795 0.903083
vt 0.248117 0.910232
vt 0.254591 0.926122
vt 0.259063 0.918841
vt 0.264932 0.939756
vt 0.269170 0.932335
vt 0.259063 0.918841
vt 0.254591 0.926122
vt 0.264932 0.939756
vt 0.269170 0.932335
vt 0.278433 0.950203
vt 0.282420 0.942641
vt 0.269170 0.932335
vt 0.264932 0.939756
vt 0.278433 0.950203
vt 0.282420 0.942641
vt 0.294172 0.956750
vt 0.297900 0.949056
vt 0.282420 0.942641
vt 0.278433 0.950203
vt 0.294172 0.956750
vt 0.297900 0.949056
vt 0.311072 0.958949
vt 0.314548 0.951137
vt 0.297900 0.949056
vt 0.294172 0.956750
vt 0.311072 0.958949
vt 0.314548 0.951137
vt 0.713928 0.958949
vt 0.710452 0.951137
vt 0.314548 0.951137
vt 0.311072 0.958949
vt 0.713928 0.958949
vt 0.710452 0.951137
vt 0.730828 0.956750
vt 0.727100 0.949056
vt 0.710452 0.951137
vt 0.713928 0.958949
vt 0.730828 0.956750
vt 0.727100 0.949056
vt 0.746567 0.950203
vt 0.742580 0.942641
vt 0.727100 0.949056
vt 0.730828 0.956750
vt 0.746567 0.950203
vt 0.742580 0.942641
vt 0.760068 0.939756
vt 0.755830 0.932335
vt 0.742580 0.942641
vt 0.746567 0.950203
vt 0.760068 0.939756
vt 0.755830 0.932335
vt 0.770409 0.926122
vt 0.765937 0.918841
vt 0.755830 0.932335
vt 0.760068 0.939756
vt 0.770409 0.926122
vt 0.765937 0.918841
vt 0.776883 0.910232
vt 0.772205 0.903083
vt 0.765937 0.918841
vt 0.770409 0.926122
vt 0.776883 0.910232
vt 0.772205 0.903083
vt 0.779047 0.893166
vt 0.774201 0.886132
vt 0.772205 0.903083
vt 0.776883 0.910232
vt 0.779047 0.893166
vt 0.774201 0.886132
vt 0.779047 0.119334
vt 0.774201 0.126368
vt 0.774201 0.886132
vt 0.779047 0.893166
vt 0.779047 0.119334
vt 0.774201 0.126368
vt 0.776883 0.102268
vt 0.772205 0.109417
vt 0.774201 0.126368
vt 0.779047 0.119334
vt 0.776883 0.102268
vt 0.772205 0.109417
vt 0.770409 0.086378
vt 0.765937 0.093659
vt 0.772205 0.109417
vt 0.776883 0.102268
vt 0.770409 0.086378
vt 0.765937 0.093659
vt 0.760068 0.072744
vt 0.755830 0.080165
vt 0.765937 0.093659
vt 0.770409 0.086378
vt 0.760068 0.072744
vt 0.755830 0.080165
vt 0.746567 0.062297
vt 0.742580 0.069859
vt 0.755830 0.080165
vt 0.760068 0.072744
vt 0.746567 0.062297
vt 0.742580 0.069859
vt 0.730828 0.055750
vt 0.727100 0.063444
vt 0.742580 0.069859
vt 0.746567 0.062297
vt 0.730828 0.055750
vt 0.727100 0.063444
vt 0.713928 0.053551
vt 0.710452 0.061363
vt 0.727100 0.063444
vt 0.730828 0.055750
vt 0.713928 0.053551
vt 0.710452 0.061363
vt 0.311072 0.053551
vt 0.314548 0.061363
vt 0.710452 0.061363
vt 0.713928 0.053551
vt 0.311072 0.053551
vt 0.512500 0.506250
vt 0.292477 0.052254
vt 0.309492 0.050000
vt 0.512500 0.506250
vt 0.276621 0.058861
vt 0.292477 0.052254
vt 0.512500 0.506250
vt 0.263005 0.069371
vt 0.276621 0.058861
vt 0.512500 0.506250
vt 0.252558 0.083068
vt 0.263005 0.069371
vt 0.512500 0.506250
vt 0.245990 0.099019
vt 0.252558 0.083068
vt 0.512500 0.506250
vt 0.243750 0.116136
vt 0.245990 0.099019
vt 0.512500 0.506250
vt 0.243750 0.896364
vt 0.243750 0.116136
vt 0.512500 0.506250
vt 0.245990 0.913481
vt 0.243750 0.896364
vt 0.512500 0.506250
vt 0.252558 0.929432
vt 0.245990 0.913481
vt 0.512500 0.506250
vt 0.263005 0.943129
vt 0.252558 0.929432
vt 0.512500 0.506250
vt 0.276621 0.953639
vt 0.263005 0.943129
vt 0.512500 0.506250
vt 0.292477 0.960246
vt 0.276621 0.953639
vt 0.512500 0.506250
vt 0.309492 0.962500
vt 0.292477 0.960246
vt 0.512500 0.506250
vt 0.715508 0.962500
vt 0.309492 0.962500
vt 0.512500 0.506250
vt 0.732523 0.960246
vt 0.715508 0.962500
vt 0.512500 0.506250
vt 0.748379 0.953639
vt 0.732523 0.960246
vt 0.512500 0.506250
vt 0.761995 0.943129
vt 0.748379 0.953639
vt 0.512500 0.506250
vt 0.772442 0.929432
vt 0.761995 0.943129
vt 0.512500 0.506250
vt 0.779010 0.913481
vt 0.772442 0.929432
vt 0.512500 0.506250
vt 0.781250 0.896364
vt 0.779010 0.913481
vt 0.512500 0.506250
vt 0.781250 0.116136
vt 0.781250 0.896364
vt 0.512500 0.506250
vt 0.779010 0.099019
vt 0.781250 0.116136
vt 0.512500 0.506250
vt 0.772442 0.083068
vt 0.779010 0.099019
vt 0.512500 0.506250
vt 0.761995 0.069371
vt 0.772442 0.083068
vt 0.512500 0.506250
vt 0.748379 0.058861
vt 0.761995 0.069371
vt 0.512500 0.506250
vt 0.732523 0.052254
vt 0.748379 0.058861
vt 0.512500 0.506250
vt 0.715508 0.050000
vt 0.732523 0.052254
vt 0.512500 0.506250
vt 0.309492 0.050000
vt 0.715508 0.050000
vt 0.318621 0.529942
vt 0.300151 0.523495
vt 0.308023 0.530975
vt 0.318621 0.529942
vt 0.310971 0.522233
vt 0.300151 0.523495
vt 0.308023 0.530975
vt 0.290099 0.527541
vt 0.298214 0.534754
vt 0.308023 0.530975
vt 0.300151 0.523495
vt 0.290099 0.527541
vt 0.298214 0.534754
vt 0.281503 0.534090
vt 0.289866 0.541009
vt 0.298214 0.534754
vt 0.290099 0.527541
vt 0.281503 0.534090
vt 0.289866 0.541009
vt 0.274951 0.542689
vt 0.283557 0.549299
vt 0.289866 0.541009
vt 0.281503 0.534090
vt 0.274951 0.542689
vt 0.283557 0.549299
vt 0.270895 0.552745
vt 0.279727 0.559047
vt 0.283557 0.549299
vt 0.274951 0.542689
vt 0.270895 0.552745
vt 0.279727 0.559047
vt 0.269617 0.563568
vt 0.278650 0.569576
vt 0.279727 0.559047
vt 0.270895 0.552745
vt 0.269617 0.563568
vt 0.278650 0.569576
vt 0.269617 0.885807
vt 0.278650 0.879799
vt 0.278650 0.569576
vt 0.269617 0.563568
vt 0.269617 0.885807
vt 0.278650 0.879799
vt 0.270895 0.896630
vt 0.279727 0.890328
vt 0.278650 0.879799
vt 0.269617 0.885807
vt 0.270895 0.896630
vt 0.279727 0.890328
vt 0.274951 0.906686
vt 0.283557 0.900076
vt 0.279727 0.890328
vt 0.270895 0.896630
vt 0.274951 0.906686
vt 0.283557 0.900076
vt 0.281503 0.915285
vt 0.289866 0.908366
vt 0.283557 0.900076
vt 0.274951 0.906686
vt 0.281503 0.915285
vt 0.289866 0.908366
vt 0.290099 0.921834
vt 0.298214 0.914621
vt 0.289866 0.908366
vt 0.281503 0.915285
vt 0.290099 0.921834
vt 0.298214 0.914621
vt 0.300151 0.925880
vt 0.308023 0.918400
vt 0.298214 0.914621
vt 0.290099 0.921834
vt 0.300151 0.925880
vt 0.308023 0.918400
vt 0.310971 0.927142
vt 0.318621 0.919433
vt 0.308023 0.918400
vt 0.300151 0.925880
vt 0.310971 0.927142
vt 0.318621 0.919433
vt 0.712779 0.927142
vt 0.705129 0.919433
vt 0.318621 0.919433
vt 0.310971 0.927142
vt 0.712779 0.927142
vt 0.705129 0.919433
vt 0.723599 0.925880
vt 0.715727 0.918400
vt 0.705129 0.919433
vt 0.712779 0.927142
vt 0.723599 0.925880
vt 0.715727 0.918400
vt 0.733651 0.921834
vt 0.725536 0.914621
vt 0.715727 0.918400
vt 0.723599 0.925880
vt 0.733651 0.921834
vt 0.725536 0.914621
vt 0.742247 0.915285
vt 0.733884 0.908366
vt 0.725536 0.914621
vt 0.733651 0.921834
vt 0.742247 0.915285
vt 0.733884 0.908366
vt 0.748799 0.906686
vt 0.740193 0.900076
vt 0.733884 0.908366
vt 0.742247 0.915285
vt 0.748799 0.906686
vt 0.740193 0.900076
vt 0.752855 0.896630
vt 0.744023 0.890328
vt 0.740193 0.900076
vt 0.748799 0.906686
vt 0.752855 0.896630
vt 0.744023 0.890328
vt 0.754133 0.885807
vt 0.745100 0.879799
vt 0.744023 0.890328
vt 0.752855 0.896630
vt 0.754133 0.885807
vt 0.745100 0.879799
vt 0.754133 0.563568
vt 0.745100 0.569576
vt 0.745100 0.879799
vt 0.754133 0.885807
vt 0.754133 0.563568
vt 0.745100 0.569576
vt 0.752855 0.552745
vt 0.744023 0.559047
vt 0.745100 0.569576
vt 0.754133 0.563568
vt 0.752855 0.552745
vt 0.744023 0.559047
vt 0.748799 0.542689
vt 0.740193 0.549299
vt 0.744023 0.559047
vt 0.752855 0.552745
vt 0.748799 0.542689
vt 0.740193 0.549299
vt 0.742247 0.534090
vt 0.733884 0.541009
vt 0.740193 0.549299
vt 0.748799 0.542689
vt 0.742247 0.534090
vt 0.733884 0.541009
vt 0.733651 0.527541
vt 0.725536 0.534754
vt 0.733884 0.541009
vt 0.742247 0.534090
vt 0.733651 0.527541
vt 0.725536 0.534754
vt 0.723599 0.523495
vt 0.715727 0.530975
vt 0.725536 0.534754
vt 0.733651 0.527541
vt 0.723599 0.523495
vt 0.715727 0.530975
vt 0.712779 0.522233
vt 0.705129 0.529942
vt 0.715727 0.530975
vt 0.723599 0.523495
vt 0.712779 0.522233
vt 0.705129 0.529942
vt 0.310971 0.522233
vt 0.318621 0.529942
vt 0.705129 0.529942
vt 0.712779 0.522233
vt 0.310971 0.522233
vt 0.310971 0.522233
vt 0.295653 0.519220
vt 0.300151 0.523495
vt 0.310971 0.522233
vt 0.306600 0.517828
vt 0.295653 0.519220
vt 0.300151 0.523495
vt 0.285463 0.523419
vt 0.290099 0.527541
vt 0.300151 0.523495
vt 0.295653 0.519220
vt 0.285463 0.523419
vt 0.290099 0.527541
vt 0.276724 0.530136
vt 0.281503 0.534090
vt 0.290099 0.527541
vt 0.285463 0.523419
vt 0.276724 0.530136
vt 0.281503 0.534090
vt 0.270033 0.538911
vt 0.274951 0.542689
vt 0.281503 0.534090
vt 0.276724 0.530136
vt 0.270033 0.538911
vt 0.274951 0.542689
vt 0.265848 0.549144
vt 0.270895 0.552745
vt 0.274951 0.542689
vt 0.270033 0.538911
vt 0.265848 0.549144
vt 0.270895 0.552745
vt 0.264456 0.560135
vt 0.269617 0.563568
vt 0.270895 0.552745
vt 0.265848 0.549144
vt 0.264456 0.560135
vt 0.269617 0.563568
vt 0.264456 0.889240
vt 0.269617 0.885807
vt 0.269617 0.563568
vt 0.264456 0.560135
vt 0.264456 0.889240
vt 0.269617 0.885807
vt 0.265848 0.900231
vt 0.270895 0.896630
vt 0.269617 0.885807
vt 0.264456 0.889240
vt 0.265848 0.900231
vt 0.270895 0.896630
vt 0.270033 0.910464
vt 0.274951 0.906686
vt 0.270895 0.896630
vt 0.265848 0.900231
vt 0.270033 0.910464
vt 0.274951 0.906686
vt 0.276724 0.919239
vt 0.281503 0.915285
vt 0.274951 0.906686
vt 0.270033 0.910464
vt 0.276724 0.919239
vt 0.281503 0.915285
vt 0.285463 0.925956
vt 0.290099 0.921834
vt 0.281503 0.915285
vt 0.276724 0.919239
vt 0.285463 0.925956
vt 0.290099 0.921834
vt 0.295653 0.930155
vt 0.300151 0.925880
vt 0.290099 0.921834
vt 0.285463 0.925956
vt 0.295653 0.930155
vt 0.300151 0.925880
vt 0.306600 0.931547
vt 0.310971 0.927142
vt 0.300151 0.925880
vt 0.295653 0.930155
vt 0.306600 0.931547
vt 0.310971 0.927142
vt 0.717150 0.931547
vt 0.712779 0.927142
vt 0.310971 0.927142
vt 0.306600 0.931547
vt 0.717150 0.931547
vt 0.712779 0.927142
vt 0.728097 0.930155
vt 0.723599 0.925880
vt 0.712779 0.927142
vt 0.717150 0.931547
vt 0.728097 0.930155
vt 0.723599 0.925880
vt 0.738287 0.925956
vt 0.733651 0.921834
vt 0.723599 0.925880
vt 0.728097 0.930155
vt 0.738287 0.925956
vt 0.733651 0.921834
vt 0.747026 0.919239
vt 0.742247 0.915285
vt 0.733651 0.921834
vt 0.738287 0.925956
vt 0.747026 0.919239
vt 0.742247 0.915285
vt 0.753717 0.910464
vt 0.748799 0.906686
vt 0.742247 0.915285
vt 0.747026 0.919239
vt 0.753717 0.910464
vt 0.748799 0.906686
vt 0.757902 0.900231
vt 0.752855 0.896630
vt 0.748799 0.906686
vt 0.753717 0.910464
vt 0.757902 0.900231
vt 0.752855 0.896630
vt 0.759294 0.889240
vt 0.754133 0.885807
vt 0.752855 0.896630
vt 0.757902 0.900231
vt 0.759294 0.889240
vt 0.754133 0.885807
vt 0.759294 0.560135
vt 0.754133 0.563568
vt 0.754133 0.885807
vt 0.759294 0.889240
vt 0.759294 0.560135
vt 0.754133 0.563568
vt 0.757902 0.549144
vt 0.752855 0.552745
vt 0.754133 0.563568
vt 0.759294 0.560135
vt 0.757902 0.549144
vt 0.752855 0.552745
vt 0.753717 0.538911
vt 0.748799 0.542689
vt 0.752855 0.552745
vt 0.757902 0.549144
vt 0.753717 0.538911
vt 0.748799 0.542689
vt 0.747026 0.530136
vt 0.742247 0.534090
vt 0.748799 0.542689
vt 0.753717 0.538911
vt 0.747026 0.530136
vt 0.742247 0.534090
vt 0.738287 0.523419
vt 0.733651 0.527541
vt 0.742247 0.534090
vt 0.747026 0.530136
vt 0.738287 0.523419
vt 0.733651 0.527541
vt 0.728097 0.519220
vt 0.723599 0.523495
vt 0.733651 0.527541
vt 0.738287 0.523419
vt 0.728097 0.519220
vt 0.723599 0.523495
vt 0.717150 0.517828
vt 0.712779 0.522233
vt 0.723599 0.523495
vt 0.728097 0.519220
vt 0.717150 0.517828
vt 0.712779 0.522233
vt 0.306600 0.517828
vt 0.310971 0.522233
vt 0.712779 0.522233
vt 0.717150 0.517828
vt 0.306600 0.517828
vt 0.511875 0.724688
vt 0.293404 0.517083
vt 0.304414 0.515625
vt 0.511875 0.724688
vt 0.283145 0.521358
vt 0.293404 0.517083
vt 0.511875 0.724688
vt 0.274334 0.528159
vt 0.283145 0.521358
vt 0.511875 0.724688
vt 0.267574 0.537022
vt 0.274334 0.528159
vt 0.511875 0.724688
vt 0.263324 0.547343
vt 0.267574 0.537022
vt 0.511875 0.724688
vt 0.261875 0.558419
vt 0.263324 0.547343
vt 0.511875 0.724688
vt 0.261875 0.890956
vt 0.261875 0.558419
vt 0.511875 0.724688
vt 0.263324 0.902032
vt 0.261875 0.890956
vt 0.511875 0.724688
vt 0.267574 0.912353
vt 0.263324 0.902032
vt 0.511875 0.724688
vt 0.274334 0.921216
vt 0.267574 0.912353
vt 0.511875 0.724688
vt 0.283145 0.928017
vt 0.274334 0.921216
vt 0.511875 0.724688
vt 0.293404 0.932292
vt 0.283145 0.928017
vt 0.511875 0.724688
vt 0.304414 0.933750
vt 0.293404 0.932292
vt 0.511875 0.724688
vt 0.719336 0.933750
vt 0.304414 0.933750
vt 0.511875 0.724688
vt 0.730346 0.932292
vt 0.719336 0.933750
vt 0.511875 0.724688
vt 0.740605 0.928017
vt 0.730346 0.932292
vt 0.511875 0.724688
vt 0.749416 0.921216
vt 0.740605 0.928017
vt 0.511875 0.724688
vt 0.756176 0.912353
vt 0.749416 0.921216
vt 0.511875 0.724688
vt 0.760426 0.902032
vt 0.756176 0.912353
vt 0.511875 0.724688
vt 0.761875 0.890956
vt 0.760426 0.902032
vt 0.511875 0.724688
vt 0.761875 0.558419
vt 0.761875 0.890956
vt 0.511875 0.724688
vt 0.760426 0.547343
vt 0.761875 0.558419
vt 0.511875 0.724688
vt 0.756176 0.537022
vt 0.760426 0.547343
vt 0.511875 0.724688
vt 0.749416 0.528159
vt 0.756176 0.537022
vt 0.511875 0.724688
vt 0.740605 0.521358
vt 0.749416 0.528159
vt 0.511875 0.724688
vt 0.730346 0.517083
vt 0.740605 0.521358
vt 0.511875 0.724688
vt 0.719336 0.515625
vt 0.730346 0.517083
vt 0.511875 0.724688
vt 0.304414 0.515625
vt 0.719336 0.515625
vn 0.000000 0.000000 -1.000000
vn 0.000000 0.000000 -1.000000
vn 0.000000 0.000000 -1.000000
vn 0.000000 0.000000 -1.000000
vn 0.000000 0.000000 -1.000000
vn -0.000000 0.000000 -1.000000
vn 0.000000 0.000000 -1.000000
vn 0.000000 0.000000 -1.000000
vn 0.000000 0.000000 -1.000000
vn 0.000000 0.000000 -1.000000
vn 0.000000 0.000000 -1.000000
vn 0.000000 -0.000000 -1.000000
vn 0.000000 0.000000 -1.000000
vn 0.000000 0.000000 -1.000000
vn 0.000000 0.000000 -1.000000
vn 0.000000 0.000000 -1.000000
vn 0.000000 0.000000 -1.000000
vn 0.000000 0.000000 -1.000000
vn 0.000000 0.000000 -1.000000
vn 0.000000 0.000000 -1.000000
vn 0.000000 0.000000 -1.000000
vn 0.000000 0.000000 -1.000000
vn 0.000000 0.000000 -1.000000
vn 0.000000 0.000000 -1.000000
vn -0.155525 0.987832 0.000000
vn -0.155525 0.987832 0.000000
vn -0.451839 0.892100 0.000000
vn -0.451839 0.892100 0.000000
vn -0.704990 0.709217 0.000000
vn -0.704990 0.709217 0.000000
vn -0.889904 0.456147 0.000000
vn -0.889904 0.456147 0.000000
vn -0.987543 0.157349 0.000000
vn -0.987543 0.157349 0.000000
vn -1.000000 0.000000 0.000000
vn -1.000000 0.000000 0.000000
vn -0.987543 -0.157349 0.000000
vn -0.987543 -0.157349 0.000000
vn -0.889904 -0.456147 0.000000
vn -0.889904 -0.456147 0.000000
vn -0.704990 -0.709217 0.000000
vn -0.704990 -0.709217 0.000000
vn -0.451839 -0.892100 0.000000
vn -0.451839 -0.892100 0.000000
vn -0.155525 -0.987832 0.000000
vn -0.155525 -0.987832 0.000000
vn 0.000000 -1.000000 0.000000
vn 0.000000 -1.000000 0.000000
vn 0.155525 -0.987832 0.000000
vn 0.155525 -0.987832 0.000000
vn 0.451839 -0.892100 0.000000
vn 0.451839 -0.892100 0.000000
vn 0.704990 -0.709217 0.000000
vn 0.704990 -0.709217 0.000000
vn 0.889904 -0.456147 0.000000
vn 0.889904 -0.456147 0.000000
vn 0.987543 -0.157349 0.000000
vn 0.987543 -0.157349 0.000000
vn 1.000000 0.000000 0.000000
vn 1.000000 0.000000 0.000000
vn 0.987543 0.157349 0.000000
vn 0.987543 0.157349 -0.000000
vn 0.889904 0.456147 0.000000
vn 0.889904 0.456147 -0.000000
vn 0.704990 0.709217 0.000000
vn 0.704990 0.709217 -0.000000
vn 0.451839 0.892100 0.000000
vn 0.451839 0.892100 -0.000000
vn 0.155525 0.987832 0.000000
vn 0.155525 0.987832 -0.000000
vn 0.000000 1.000000 0.000000
vn 0.000000 1.000000 -0.000000
vn 0.000000 0.000000 1.000000
vn 0.000000 0.000000 1.000000
vn 0.000000 0.000000 1.000000
vn 0.000000 0.000000 1.000000
vn 0.000000 0.000000 1.000000
vn 0.000000 0.000000 1.000000
vn 0.000000 0.000000 1.000000
vn 0.000000 0.000000 1.000000
vn 0.000000 0.000000 1.000000
vn 0.000000 0.000000 1.000000
vn 0.000000 0.000000 1.000000
vn 0.000000 0.000000 1.000000
vn 0.000000 0.000000 1.000000
vn 0.000000 0.000000 1.000000
vn 0.000000 0.000000 1.000000
vn 0.000000 0.000000 1.000000
vn 0.000000 0.000000 1.000000
vn -0.000000 0.000000 1.000000
vn 0.000000 0.000000 1.000000
vn 0.000000 0.000000 1.000000
vn 0.000000 0.000000 1.000000
vn 0.000000 0.000000 1.000000
vn 0.000000 0.000000 1.000000
vn 0.000000 -0.000000 1.000000
vn 0.130526 -0.991445 0.000000
vn 0.130526 -0.991445 0.000000
vn 0.382683 -0.923880 0.000000
vn 0.382683 -0.923880 0.000000
vn 0.608761 -0.793353 0.000000
vn 0.608761 -0.793353 0.000000
vn 0.793353 -0.608761 0.000000
vn 0.793353 -0.608761 0.000000
vn 0.923880 -0.382683 0.000000
vn 0.923880 -0.382683 0.000000
vn 0.991445 -0.130526 0.000000
vn 0.991445 -0.130526 0.000000
vn 1.000000 -0.000000 0.000000
vn 1.000000 0.000000 0.000000
vn 0.991445 0.130526 0.000000
vn 0.991445 0.130526 0.000000
vn 0.923880 0.382683 0.000000
vn 0.923880 0.382683 0.000000
vn 0.793353 0.608761 0.000000
vn 0.793353 0.608761 0.000000
vn 0.608761 0.793353 0.000000
vn 0.608761 0.793353 0.000000
vn 0.382683 0.923880 0.000000
vn 0.382683 0.923880 0.000000
vn 0.130526 0.991445 0.000000
vn 0.130526 0.991445 0.000000
vn 0.000000 1.000000 0.000000
vn 0.000000 1.000000 0.000000
vn -0.130526 0.991445 0.000000
vn -0.130526 0.991445 0.000000
vn -0.382683 0.923880 0.000000
vn -0.382683 0.923880 0.000000
vn -0.608761 0.793353 0.000000
vn -0.608761 0.793353 0.000000
vn -0.793353 0.608761 0.000000
vn -0.793353 0.608761 0.000000
vn -0.923880 0.382683 0.000000
vn -0.923880 0.382683 0.000000
vn -0.991445 0.130526 0.000000
vn -0.991445 0.130526 0.000000
vn -1.000000 -0.000000 0.000000
vn -1.000000 0.000000 -0.000000
vn -0.991445 -0.130526 0.000000
vn -0.991445 -0.130526 -0.000000
vn -0.923880 -0.382683 0.000000
vn -0.923880 -0.382683 -0.000000
vn -0.793353 -0.608761 0.000000
vn -0.793353 -0.608761 -0.000000
vn -0.608761 -0.793353 0.000000
vn -0.608761 -0.793353 -0.000000
vn -0.382683 -0.923880 0.000000
vn -0.382683 -0.923880 -0.000000
vn -0.130526 -0.991445 0.000000
vn -0.130526 -0.991445 -0.000000
vn 0.000000 -1.000000 0.000000
vn 0.000000 -1.000000 0.000000
vn 0.112117 -0.851611 -0.512043
vn 0.103304 -0.851064 -0.514800
vn 0.324407 -0.783188 -0.530449
vn 0.322050 -0.783517 -0.531398
vn 0.516689 -0.673362 -0.528788
vn 0.521036 -0.671798 -0.526507
vn 0.683991 -0.524845 -0.506650
vn 0.693428 -0.518873 -0.499929
vn 0.819599 -0.339489 -0.461525
vn 0.830719 -0.327942 -0.449845
vn 0.913306 -0.120239 -0.389121
vn 0.921723 -0.104563 -0.373487
vn 0.941474 0.000000 -0.337087
vn 0.941474 0.000000 -0.337087
vn 0.916944 0.120718 -0.380316
vn 0.918062 0.104148 -0.382511
vn 0.823058 0.340922 -0.454254
vn 0.827169 0.326540 -0.457343
vn 0.686213 0.526550 -0.501854
vn 0.691121 0.517146 -0.504889
vn 0.517424 0.674320 -0.526844
vn 0.520270 0.670810 -0.528519
vn 0.324164 0.782601 -0.531463
vn 0.322300 0.784125 -0.530349
vn 0.111810 0.849283 -0.515963
vn 0.103596 0.853468 -0.510745
vn 0.000000 0.867386 -0.497636
vn 0.000000 0.867386 -0.497636
vn -0.112117 0.851611 -0.512043
vn -0.103304 0.851064 -0.514800
vn -0.324407 0.783188 -0.530449
vn -0.322050 0.783517 -0.531398
vn -0.516689 0.673362 -0.528788
vn -0.521036 0.671798 -0.526507
vn -0.683991 0.524845 -0.506650
vn -0.693428 0.518873 -0.499929
vn -0.819599 0.339489 -0.461525
vn -0.830719 0.327942 -0.449845
vn -0.913306 0.120239 -0.389121
vn -0.921723 0.104563 -0.373487
vn -0.941474 -0.000000 -0.337087
vn -0.941474 0.000000 -0.337087
vn -0.916944 -0.120718 -0.380316
vn -0.918062 -0.104148 -0.382511
vn -0.823058 -0.340922 -0.454254
vn -0.827169 -0.326540 -0.457343
vn -0.686213 -0.526550 -0.501854
vn -0.691121 -0.517146 -0.504889
vn -0.517424 -0.674320 -0.526844
vn -0.520270 -0.670810 -0.528519
vn -0.324164 -0.782601 -0.531463
vn -0.322300 -0.784125 -0.530349
vn -0.111810 -0.849283 -0.515963
vn -0.103596 -0.853468 -0.510745
vn 0.000000 -0.867386 -0.497636
vn 0.000000 -0.867386 -0.497636
vn 0.000000 0.000000 -1.000000
vn 0.000000 0.000000 -1.000000
vn 0.000000 0.000000 -1.000000
vn 0.000000 0.000000 -1.000000
vn 0.000000 0.000000 -1.000000
vn 0.000000 0.000000 -1.000000
vn 0.000000 0.000000 -1.000000
vn 0.000000 0.000000 -1.000000
vn 0.000000 0.000000 -1.000000
vn 0.000000 0.000000 -1.000000
vn 0.000000 0.000000 -1.000000
vn 0.000000 0.000000 -1.000000
vn 0.000000 0.000000 -1.000000
vn 0.000000 0.000000 -1.000000
vn 0.000000 0.000000 -1.000000
vn 0.000000 0.000000 -1.000000
vn 0.000000 0.000000 -1.000000
vn 0.000000 0.000000 -1.000000
vn 0.000000 0.000000 -1.000000
vn 0.000000 0.000000 -1.000000
vn -0.000000 0.000000 -1.000000
vn 0.000000 0.000000 -1.000000
vn 0.000000 0.000000 -1.000000
vn 0.000000 0.000000 -1.000000
vn 0.000000 0.000000 -1.000000
vn 0.000000 0.000000 -1.000000
vn 0.000000 0.000000 -1.000000
vn 0.000000 -0.000000 -1.000000
vn 0.130526 -0.991445 0.000000
vn 0.130526 -0.991445 0.000000
vn 0.382683 -0.923880 0.000000
vn 0.382683 -0.923880 0.000000
vn 0.608761 -0.793353 0.000000
vn 0.608761 -0.793353 0.000000
vn 0.793353 -0.608761 0.000000
vn 0.793353 -0.608761 0.000000
vn 0.923880 -0.382683 0.000000
vn 0.923880 -0.382683 0.000000
vn 0.991445 -0.130526 0.000000
vn 0.991445 -0.130526 0.000000
vn 1.000000 -0.000000 0.000000
vn 1.000000 0.000000 0.000000
vn 0.991445 0.130526 0.000000
vn 0.991445 0.130526 0.000000
vn 0.923880 0.382683 0.000000
vn 0.923880 0.382683 0.000000
vn 0.793353 0.608761 0.000000
vn 0.793353 0.608761 0.000000
vn 0.608761 0.793353 0.000000
vn 0.608761 0.793353 0.000000
vn 0.382683 0.923880 0.000000
vn 0.382683 0.923880 0.000000
vn 0.130526 0.991445 0.000000
vn 0.130526 0.991445 0.000000
vn 0.000000 1.000000 0.000000
vn 0.000000 1.000000 0.000000
vn -0.130526 0.991445 0.000000
vn -0.130526 0.991445 0.000000
vn -0.382683 0.923880 0.000000
vn -0.382683 0.923880 0.000000
vn -0.608761 0.793353 0.000000
vn -0.608761 0.793353 0.000000
vn -0.793353 0.608761 0.000000
vn -0.793353 0.608761 0.000000
vn -0.923880 0.382683 0.000000
vn -0.923880 0.382683 0.000000
vn -0.991445 0.130526 0.000000
vn -0.991445 0.130526 0.000000
vn -1.000000 -0.000000 0.000000
vn -1.000000 0.000000 -0.000000
vn -0.991445 -0.130526 0.000000
vn -0.991445 -0.130526 -0.000000
vn -0.923880 -0.382683 0.000000
vn -0.923880 -0.382683 -0.000000
vn -0.793353 -0.608761 0.000000
vn -0.793353 -0.608761 -0.000000
vn -0.608761 -0.793353 0.000000
vn -0.608761 -0.793353 -0.000000
vn -0.382683 -0.923880 0.000000
vn -0.382683 -0.923880 -0.000000
vn -0.130526 -0.991445 0.000000
vn -0.130526 -0.991445 -0.000000
vn 0.000000 -1.000000 0.000000
vn 0.000000 -1.000000 0.000000
vn 0.117550 -0.892884 -0.434673
vn 0.084450 -0.897703 -0.432432
vn 0.334024 -0.806405 -0.487995
vn 0.310229 -0.815416 -0.488728
vn 0.520599 -0.678458 -0.518335
vn 0.509430 -0.685615 -0.520013
vn 0.673602 -0.516873 -0.528301
vn 0.674331 -0.516159 -0.528069
vn 0.789894 -0.327185 -0.518668
vn 0.798412 -0.314343 -0.513543
vn 0.865264 -0.113914 -0.488202
vn 0.875121 -0.088019 -0.475831
vn 0.887563 0.000000 -0.460687
vn 0.887563 0.000000 -0.460687
vn 0.868658 0.114361 -0.482033
vn 0.871529 0.087658 -0.482445
vn 0.791732 0.327946 -0.515376
vn 0.796432 0.313563 -0.517083
vn 0.673709 0.516955 -0.528085
vn 0.674216 0.516071 -0.528302
vn 0.519536 0.677072 -0.521206
vn 0.510546 0.687117 -0.516926
vn 0.332775 0.803390 -0.493787
vn 0.311456 0.818642 -0.482514
vn 0.117027 0.888910 -0.442881
vn 0.084837 0.901823 -0.423696
vn 0.000000 0.915195 -0.403010
vn 0.000000 0.915195 -0.403010
vn -0.117550 0.892884 -0.434673
vn -0.084450 0.897703 -0.432432
vn -0.334024 0.806405 -0.487995
vn -0.310229 0.815416 -0.488728
vn -0.520599 0.678458 -0.518335
vn -0.509430 0.685615 -0.520013
vn -0.673602 0.516873 -0.528301
vn -0.674331 0.516159 -0.528069
vn -0.789894 0.327185 -0.518668
vn -0.798412 0.314343 -0.513543
vn -0.865264 0.113914 -0.488202
vn -0.875121 0.088019 -0.475831
vn -0.887563 -0.000000 -0.460687
vn -0.887563 0.000000 -0.460687
vn -0.868658 -0.114361 -0.482033
vn -0.871529 -0.087658 -0.482445
vn -0.791732 -0.327946 -0.515376
vn -0.796432 -0.313563 -0.517083
vn -0.673709 -0.516955 -0.528085
vn -0.674216 -0.516071 -0.528302
vn -0.519536 -0.677072 -0.521206
vn -0.510546 -0.687117 -0.516926
vn -0.332775 -0.803390 -0.493787
vn -0.311456 -0.818642 -0.482514
vn -0.117027 -0.888910 -0.442881
vn -0.084837 -0.901823 -0.423696
vn 0.000000 -0.915195 -0.403010
vn 0.000000 -0.915195 -0.403010
vn 0.000000 0.000000 -1.000000
vn 0.000000 0.000000 -1.000000
vn 0.000000 0.000000 -1.000000
vn 0.000000 0.000000 -1.000000
vn 0.000000 0.000000 -1.000000
vn 0.000000 0.000000 -1.000000
vn 0.000000 0.000000 -1.000000
vn 0.000000 0.000000 -1.000000
vn 0.000000 0.000000 -1.000000
vn 0.000000 0.000000 -1.000000
vn 0.000000 0.000000 -1.000000
vn 0.000000 0.000000 -1.000000
vn 0.000000 0.000000 -1.000000
vn 0.000000 0.000000 -1.000000
vn 0.000000 0.000000 -1.000000
vn 0.000000 0.000000 -1.000000
vn 0.000000 0.000000 -1.000000
vn 0.000000 0.000000 -1.000000
vn 0.000000 0.000000 -1.000000
vn 0.000000 0.000000 -1.000000
vn -0.000000 0.000000 -1.000000
vn 0.000000 0.000000 -1.000000
vn 0.000000 0.000000 -1.000000
vn 0.000000 0.000000 -1.000000
vn 0.000000 0.000000 -1.000000
vn 0.000000 0.000000 -1.000000
vn 0.000000 0.000000 -1.000000
vn 0.000000 -0.000000 -1.000000
usemtl body
f 1/1/1 2/2/1 3/3/1
f 4/4/2 5/5/2 6/6/2
f 7/7/3 8/8/3 9/9/3
f 10/10/4 11/11/4 12/12/4
f 13/13/5 14/14/5 15/15/5
f 16/16/6 17/17/6 18/18/6
f 19/19/7 20/20/7 21/21/7
f 22/22/8 23/23/8 24/24/8
f 25/25/9 26/26/9 27/27/9
f 28/28/10 29/29/10 30/30/10
f 31/31/11 32/32/11 33/33/11
f 34/34/12 35/35/12 36/36/12
f 37/37/13 38/38/13 39/39/13
f 40/40/14 41/41/14 42/42/14
f 43/43/15 44/44/15 45/45/15
f 46/46/16 47/47/16 48/48/16
f 49/49/17 50/50/17 51/51/17
f 52/52/18 53/53/18 54/54/18
f 55/55/19 56/56/19 57/57/19
f 58/58/20 59/59/20 60/60/20
f 61/61/21 62/62/21 63/63/21
f 64/64/22 65/65/22 66/66/22
f 67/67/23 68/68/23 69/69/23
f 70/70/24 71/71/24 72/72/24
f 289/289/97 290/290/97 291/291/97
f 292/292/98 293/293/98 294/294/98
f 295/295/99 296/296/99 297/297/99
f 298/298/100 299/299/100 300/300/100
f 301/301/101 302/302/101 303/303/101
f 304/304/102 305/305/102 306/306/102
f 307/307/103 308/308/103 309/309/103
f 310/310/104 311/311/104 312/312/104
f 313/313/105 314/314/105 315/315/105
f 316/316/106 317/317/106 318/318/106
f 319/319/107 320/320/107 321/321/107
f 322/322/108 323/323/108 324/324/108
f 325/325/109 326/326/109 327/327/109
f 328/328/110 329/329/110 330/330/110
f 331/331/111 332/332/111 333/333/111
f 334/334/112 335/335/112 336/336/112
f 337/337/113 338/338/113 339/339/113
f 340/340/114 341/341/114 342/342/114
f 343/343/115 344/344/115 345/345/115
f 346/346/116 347/347/116 348/348/116
f 349/349/117 350/350/117 351/351/117
f 352/352/118 353/353/118 354/354/118
f 355/355/119 356/356/119 357/357/119
f 358/358/120 359/359/120 360/360/120
f 361/361/121 362/362/121 363/363/121
f 364/364/122 365/365/122 366/366/122
f 367/367/123 368/368/123 369/369/123
f 370/370/124 371/371/124 372/372/124
f 373/373/125 374/374/125 375/375/125
f 376/376/126 377/377/126 378/378/126
f 379/379/127 380/380/127 381/381/127
f 382/382/128 383/383/128 384/384/128
f 385/385/129 386/386/129 387/387/129
f 388/388/130 389/389/130 390/390/130
f 391/391/131 392/392/131 393/393/131
f 394/394/132 395/395/132 396/396/132
f 397/397/133 398/398/133 399/399/133
f 400/400/134 401/401/134 402/402/134
f 403/403/135 404/404/135 405/405/135
f 406/406/136 407/407/136 408/408/136
f 409/409/137 410/410/137 411/411/137
f 412/412/138 413/413/138 414/414/138
f 415/415/139 416/416/139 417/417/139
f 418/418/140 419/419/140 420/420/140
f 421/421/141 422/422/141 423/423/141
f 424/424/142 425/425/142 426/426/142
f 427/427/143 428/428/143 429/429/143
f 430/430/144 431/431/144 432/432/144
f 433/433/145 434/434/145 435/435/145
f 436/436/146 437/437/146 438/438/146
f 439/439/147 440/440/147 441/441/147
f 442/442/148 443/443/148 444/444/148
f 445/445/149 446/446/149 447/447/149
f 448/448/150 449/449/150 450/450/150
f 451/451/151 452/452/151 453/453/151
f 454/454/152 455/455/152 456/456/152
f 457/457/153 458/458/153 459/459/153
f 460/460/154 461/461/154 462/462/154
f 463/463/155 464/464/155 465/465/155
f 466/466/156 467/467/156 468/468/156
f 469/469/157 470/470/157 471/471/157
f 472/472/158 473/473/158 474/474/158
f 475/475/159 476/476/159 477/477/159
f 478/478/160 479/479/160 480/480/160
f 481/481/161 482/482/161 483/483/161
f 484/484/162 485/485/162 486/486/162
f 487/487/163 488/488/163 489/489/163
f 490/490/164 491/491/164 492/492/164
f 493/493/165 494/494/165 495/495/165
f 496/496/166 497/497/166 498/498/166
f 499/499/167 500/500/167 501/501/167
f 502/502/168 503/503/168 504/504/168
f 505/505/169 506/506/169 507/507/169
f 508/508/170 509/509/170 510/510/170
f 511/511/171 512/512/171 513/513/171
f 514/514/172 515/515/172 516/516/172
f 517/517/173 518/518/173 519/519/173
f 520/520/174 521/521/174 522/522/174
f 523/523/175 524/524/175 525/525/175
f 526/526/176 527/527/176 528/528/176
f 529/529/177 530/530/177 531/531/177
f 532/532/178 533/533/178 534/534/178
f 535/535/179 536/536/179 537/537/179
f 538/538/180 539/539/180 540/540/180
f 541/541/181 542/542/181 543/543/181
f 544/544/182 545/545/182 546/546/182
f 547/547/183 548/548/183 549/549/183
f 550/550/184 551/551/184 552/552/184
f 553/553/185 554/554/185 555/555/185
f 556/556/186 557/557/186 558/558/186
f 559/559/187 560/560/187 561/561/187
f 562/562/188 563/563/188 564/564/188
f 565/565/189 566/566/189 567/567/189
f 568/568/190 569/569/190 570/570/190
f 571/571/191 572/572/191 573/573/191
f 574/574/192 575/575/192 576/576/192
f 577/577/193 578/578/193 579/579/193
f 580/580/194 581/581/194 582/582/194
f 583/583/195 584/584/195 585/585/195
f 586/586/196 587/587/196 588/588/196
f 589/589/197 590/590/197 591/591/197
f 592/592/198 593/593/198 594/594/198
f 595/595/199 596/596/199 597/597/199
f 598/598/200 599/599/200 600/600/200
f 601/601/201 602/602/201 603/603/201
f 604/604/202 605/605/202 606/606/202
f 607/607/203 608/608/203 609/609/203
f 610/610/204 611/611/204 612/612/204
f 613/613/205 614/614/205 615/615/205
f 616/616/206 617/617/206 618/618/206
f 619/619/207 620/620/207 621/621/207
f 622/622/208 623/623/208 624/624/208
f 625/625/209 626/626/209 627/627/209
f 628/628/210 629/629/210 630/630/210
f 631/631/211 632/632/211 633/633/211
f 634/634/212 635/635/212 636/636/212
f 637/637/213 638/638/213 639/639/213
f 640/640/214 641/641/214 642/642/214
f 643/643/215 644/644/215 645/645/215
f 646/646/216 647/647/216 648/648/216
f 649/649/217 650/650/217 651/651/217
f 652/652/218 653/653/218 654/654/218
f 655/655/219 656/656/219 657/657/219
f 658/658/220 659/659/220 660/660/220
f 661/661/221 662/662/221 663/663/221
f 664/664/222 665/665/222 666/666/222
f 667/667/223 668/668/223 669/669/223
f 670/670/224 671/671/224 672/672/224
f 673/673/225 674/674/225 675/675/225
f 676/676/226 677/677/226 678/678/226
f 679/679/227 680/680/227 681/681/227
f 682/682/228 683/683/228 684/684/228
f 685/685/229 686/686/229 687/687/229
f 688/688/230 689/689/230 690/690/230
f 691/691/231 692/692/231 693/693/231
f 694/694/232 695/695/232 696/696/232
f 697/697/233 698/698/233 699/699/233
f 700/700/234 701/701/234 702/702/234
f 703/703/235 704/704/235 705/705/235
f 706/706/236 707/707/236 708/708/236
f 709/709/237 710/710/237 711/711/237
f 712/712/238 713/713/238 714/714/238
f 715/715/239 716/716/239 717/717/239
f 718/718/240 719/719/240 720/720/240
f 721/721/241 722/722/241 723/723/241
f 724/724/242 725/725/242 726/726/242
f 727/727/243 728/728/243 729/729/243
f 730/730/244 731/731/244 732/732/244
f 733/733/245 734/734/245 735/735/245
f 736/736/246 737/737/246 738/738/246
f 739/739/247 740/740/247 741/741/247
f 742/742/248 743/743/248 744/744/248
f 745/745/249 746/746/249 747/747/249
f 748/748/250 749/749/250 750/750/250
f 751/751/251 752/752/251 753/753/251
f 754/754/252 755/755/252 756/756/252
f 757/757/253 758/758/253 759/759/253
f 760/760/254 761/761/254 762/762/254
f 763/763/255 764/764/255 765/765/255
f 766/766/256 767/767/256 768/768/256
f 769/769/257 770/770/257 771/771/257
f 772/772/258 773/773/258 774/774/258
f 775/775/259 776/776/259 777/777/259
f 778/778/260 779/779/260 780/780/260
f 781/781/261 782/782/261 783/783/261
f 784/784/262 785/785/262 786/786/262
f 787/787/263 788/788/263 789/789/263
f 790/790/264 791/791/264 792/792/264
f 793/793/265 794/794/265 795/795/265
f 796/796/266 797/797/266 798/798/266
f 799/799/267 800/800/267 801/801/267
f 802/802/268 803/803/268 804/804/268
f 805/805/269 806/806/269 807/807/269
f 808/808/270 809/809/270 810/810/270
f 811/811/271 812/812/271 813/813/271
f 814/814/272 815/815/272 816/816/272
f 817/817/273 818/818/273 819/819/273
f 820/820/274 821/821/274 822/822/274
f 823/823/275 824/824/275 825/825/275
f 826/826/276 827/827/276 828/828/276
f 829/829/277 830/830/277 831/831/277
f 832/832/278 833/833/278 834/834/278
f 835/835/279 836/836/279 837/837/279
f 838/838/280 839/839/280 840/840/280
f 841/841/281 842/842/281 843/843/281
f 844/844/282 845/845/282 846/846/282
f 847/847/283 848/848/283 849/849/283
f 850/850/284 851/851/284 852/852/284
f 853/853/285 854/854/285 855/855/285
f 856/856/286 857/857/286 858/858/286
f 859/859/287 860/860/287 861/861/287
f 862/862/288 863/863/288 864/864/288
f 865/865/289 866/866/289 867/867/289
f 868/868/290 869/869/290 870/870/290
f 871/871/291 872/872/291 873/873/291
f 874/874/292 875/875/292 876/876/292
f 877/877/293 878/878/293 879/879/293
f 880/880/294 881/881/294 882/882/294
f 883/883/295 884/884/295 885/885/295
f 886/886/296 887/887/296 888/888/296
f 889/889/297 890/890/297 891/891/297
f 892/892/298 893/893/298 894/894/298
f 895/895/299 896/896/299 897/897/299
f 898/898/300 899/899/300 900/900/300
f 901/901/301 902/902/301 903/903/301
f 904/904/302 905/905/302 906/906/302
f 907/907/303 908/908/303 909/909/303
f 910/910/304 911/911/304 912/912/304
f 913/913/305 914/914/305 915/915/305
f 916/916/306 917/917/306 918/918/306
f 919/919/307 920/920/307 921/921/307
f 922/922/308 923/923/308 924/924/308
f 925/925/309 926/926/309 927/927/309
f 928/928/310 929/929/310 930/930/310
f 931/931/311 932/932/311 933/933/311
f 934/934/312 935/935/312 936/936/312
f 937/937/313 938/938/313 939/939/313
f 940/940/314 941/941/314 942/942/314
f 943/943/315 944/944/315 945/945/315
f 946/946/316 947/947/316 948/948/316
f 949/949/317 950/950/317 951/951/317
f 952/952/318 953/953/318 954/954/318
f 955/955/319 956/956/319 957/957/319
f 958/958/320 959/959/320 960/960/320
f 961/961/321 962/962/321 963/963/321
f 964/964/322 965/965/322 966/966/322
f 967/967/323 968/968/323 969/969/323
f 970/970/324 971/971/324 972/972/324
f 973/973/325 974/974/325 975/975/325
f 976/976/326 977/977/326 978/978/326
f 979/979/327 980/980/327 981/981/327
f 982/982/328 983/983/328 984/984/328
f 985/985/329 986/986/329 987/987/329
f 988/988/330 989/989/330 990/990/330
f 991/991/331 992/992/331 993/993/331
f 994/994/332 995/995/332 996/996/332
f 997/997/333 998/998/333 999/999/333
f 1000/1000/334 1001/1001/334 1002/1002/334
f 1003/1003/335 1004/1004/335 1005/1005/335
f 1006/1006/336 1007/1007/336 1008/1008/336
f 1009/1009/337 1010/1010/337 1011/1011/337
f 1012/1012/338 1013/1013/338 1014/1014/338
f 1015/1015/339 1016/1016/339 1017/1017/339
f 1018/1018/340 1019/1019/340 1020/1020/340
f 1021/1021/341 1022/1022/341 1023/1023/341
f 1024/1024/342 1025/1025/342 1026/1026/342
f 1027/1027/343 1028/1028/343 1029/1029/343
f 1030/1030/344 1031/1031/344 1032/1032/344
f 1033/1033/345 1034/1034/345 1035/1035/345
f 1036/1036/346 1037/1037/346 1038/1038/346
f 1039/1039/347 1040/1040/347 1041/1041/347
f 1042/1042/348 1043/1043/348 1044/1044/348
f 1045/1045/349 1046/1046/349 1047/1047/349
f 1048/1048/350 1049/1049/350 1050/1050/350
f 1051/1051/351 1052/1052/351 1053/1053/351
f 1054/1054/352 1055/1055/352 1056/1056/352
f 1057/1057/353 1058/1058/353 1059/1059/353
f 1060/1060/354 1061/1061/354 1062/1062/354
f 1063/1063/355 1064/1064/355 1065/1065/355
f 1066/1066/356 1067/1067/356 1068/1068/356
f 1069/1069/357 1070/1070/357 1071/1071/357
f 1072/1072/358 1073/1073/358 1074/1074/358
f 1075/1075/359 1076/1076/359 1077/1077/359
f 1078/1078/360 1079/1079/360 1080/1080/360
f 1081/1081/361 1082/1082/361 1083/1083/361
f 1084/1084/362 1085/1085/362 1086/1086/362
f 1087/1087/363 1088/1088/363 1089/1089/363
f 1090/1090/364 1091/1091/364 1092/1092/364
f 1093/1093/365 1094/1094/365 1095/1095/365
f 1096/1096/366 1097/1097/366 1098/1098/366
f 1099/1099/367 1100/1100/367 1101/1101/367
f 1102/1102/368 1103/1103/368 1104/1104/368
f 1105/1105/369 1106/1106/369 1107/1107/369
f 1108/1108/370 1109/1109/370 1110/1110/370
f 1111/1111/371 1112/1112/371 1113/1113/371
f 1114/1114/372 1115/1115/372 1116/1116/372
f 1117/1117/373 1118/1118/373 1119/1119/373
f 1120/1120/374 1121/1121/374 1122/1122/374
f 1123/1123/375 1124/1124/375 1125/1125/375
f 1126/1126/376 1127/1127/376 1128/1128/376
usemtl flank
f 73/73/25 74/74/25 75/75/25
f 76/76/26 77/77/26 78/78/26
f 79/79/27 80/80/27 81/81/27
f 82/82/28 83/83/28 84/84/28
f 85/85/29 86/86/29 87/87/29
f 88/88/30 89/89/30 90/90/30
f 91/91/31 92/92/31 93/93/31
f 94/94/32 95/95/32 96/96/32
f 97/97/33 98/98/33 99/99/33
f 100/100/34 101/101/34 102/102/34
f 103/103/35 104/104/35 105/105/35
f 106/106/36 107/107/36 108/108/36
f 109/109/37 110/110/37 111/111/37
f 112/112/38 113/113/38 114/114/38
f 115/115/39 116/116/39 117/117/39
f 118/118/40 119/119/40 120/120/40
f 121/121/41 122/122/41 123/123/41
f 124/124/42 125/125/42 126/126/42
f 127/127/43 128/128/43 129/129/43
f 130/130/44 131/131/44 132/132/44
f 133/133/45 134/134/45 135/135/45
f 136/136/46 137/137/46 138/138/46
f 139/139/47 140/140/47 141/141/47
f 142/142/48 143/143/48 144/144/48
f 145/145/49 146/146/49 147/147/49
f 148/148/50 149/149/50 150/150/50
f 151/151/51 152/152/51 153/153/51
f 154/154/52 155/155/52 156/156/52
f 157/157/53 158/158/53 159/159/53
f 160/160/54 161/161/54 162/162/54
f 163/163/55 164/164/55 165/165/55
f 166/166/56 167/167/56 168/168/56
f 169/169/57 170/170/57 171/171/57
f 172/172/58 173/173/58 174/174/58
f 175/175/59 176/176/59 177/177/59
f 178/178/60 179/179/60 180/180/60
f 181/181/61 182/182/61 183/183/61
f 184/184/62 185/185/62 186/186/62
f 187/187/63 188/188/63 189/189/63
f 190/190/64 191/191/64 192/192/64
f 193/193/65 194/194/65 195/195/65
f 196/196/66 197/197/66 198/198/66
f 199/199/67 200/200/67 201/201/67
f 202/202/68 203/203/68 204/204/68
f 205/205/69 206/206/69 207/207/69
f 208/208/70 209/209/70 210/210/70
f 211/211/71 212/212/71 213/213/71
f 214/214/72 215/215/72 216/216/72
f 217/217/73 218/218/73 219/219/73
f 220/220/74 221/221/74 222/222/74
f 223/223/75 224/224/75 225/225/75
f 226/226/76 227/227/76 228/228/76
f 229/229/77 230/230/77 231/231/77
f 232/232/78 233/233/78 234/234/78
f 235/235/79 236/236/79 237/237/79
f 238/238/80 239/239/80 240/240/80
f 241/241/81 242/242/81 243/243/81
f 244/244/82 245/245/82 246/246/82
f 247/247/83 248/248/83 249/249/83
f 250/250/84 251/251/84 252/252/84
f 253/253/85 254/254/85 255/255/85
f 256/256/86 257/257/86 258/258/86
f 259/259/87 260/260/87 261/261/87
f 262/262/88 263/263/88 264/264/88
f 265/265/89 266/266/89 267/267/89
f 268/268/90 269/269/90 270/270/90
f 271/271/91 272/272/91 273/273/91
f 274/274/92 275/275/92 276/276/92
f 277/277/93 278/278/93 279/279/93
f 280/280/94 281/281/94 282/282/94
f 283/283/95 284/284/95 285/285/95
f 286/286/96 287/287/96 288/288/96
