# Procedurally generated by dev-env-utils/scripts/gen_firealarm_obj.py
# System Sensor SpectrAlert Advance LF low frequency sounder
mtllib systemsensor_sa_lf_hornstrobe.mtl
o sa_lf_hornstrobe
v 0.501661 0.569631 0.875000
v 0.552886 0.988059 0.875000
v 0.599174 0.988286 0.875000
v 0.501661 0.569631 0.875000
v 0.509952 0.987971 0.875000
v 0.552886 0.988059 0.875000
v 0.501661 0.569631 0.875000
v 0.467025 0.988010 0.875000
v 0.509952 0.987971 0.875000
v 0.501661 0.569631 0.875000
v 0.424079 0.985896 0.875000
v 0.467025 0.988010 0.875000
v 0.501661 0.569631 0.875000
v 0.381095 0.981623 0.875000
v 0.424079 0.985896 0.875000
v 0.501661 0.569631 0.875000
v 0.338046 0.976315 0.875000
v 0.381095 0.981623 0.875000
v 0.501661 0.569631 0.875000
v 0.298255 0.968786 0.875000
v 0.338046 0.976315 0.875000
v 0.501661 0.569631 0.875000
v 0.261743 0.958334 0.875000
v 0.298255 0.968786 0.875000
v 0.501661 0.569631 0.875000
v 0.225220 0.942505 0.875000
v 0.261743 0.958334 0.875000
v 0.501661 0.569631 0.875000
v 0.202189 0.912351 0.875000
v 0.225220 0.942505 0.875000
v 0.501661 0.569631 0.875000
v 0.202775 0.868473 0.875000
v 0.202189 0.912351 0.875000
v 0.501661 0.569631 0.875000
v 0.203453 0.821369 0.875000
v 0.202775 0.868473 0.875000
v 0.501661 0.569631 0.875000
v 0.204110 0.777800 0.875000
v 0.203453 0.821369 0.875000
v 0.501661 0.569631 0.875000
v 0.204763 0.734423 0.875000
v 0.204110 0.777800 0.875000
v 0.501661 0.569631 0.875000
v 0.205364 0.691256 0.875000
v 0.204763 0.734423 0.875000
v 0.501661 0.569631 0.875000
v 0.205853 0.648293 0.875000
v 0.205364 0.691256 0.875000
v 0.501661 0.569631 0.875000
v 0.206179 0.602205 0.875000
v 0.205853 0.648293 0.875000
v 0.501661 0.569631 0.875000
v 0.207375 0.559494 0.875000
v 0.206179 0.602205 0.875000
v 0.501661 0.569631 0.875000
v 0.210180 0.523359 0.875000
v 0.207375 0.559494 0.875000
v 0.501661 0.569631 0.875000
v 0.205815 0.487101 0.875000
v 0.210180 0.523359 0.875000
v 0.501661 0.569631 0.875000
v 0.207610 0.447463 0.875000
v 0.205815 0.487101 0.875000
v 0.501661 0.569631 0.875000
v 0.205927 0.407609 0.875000
v 0.207610 0.447463 0.875000
v 0.501661 0.569631 0.875000
v 0.206944 0.370954 0.875000
v 0.205927 0.407609 0.875000
v 0.501661 0.569631 0.875000
v 0.210357 0.330841 0.875000
v 0.206944 0.370954 0.875000
v 0.501661 0.569631 0.875000
v 0.209706 0.287148 0.875000
v 0.210357 0.330841 0.875000
v 0.501661 0.569631 0.875000
v 0.209096 0.243308 0.875000
v 0.209706 0.287148 0.875000
v 0.501661 0.569631 0.875000
v 0.207256 0.204074 0.875000
v 0.209096 0.243308 0.875000
v 0.501661 0.569631 0.875000
v 0.231773 0.186089 0.875000
v 0.207256 0.204074 0.875000
v 0.501661 0.569631 0.875000
v 0.271664 0.174121 0.875000
v 0.231773 0.186089 0.875000
v 0.501661 0.569631 0.875000
v 0.311480 0.163229 0.875000
v 0.271664 0.174121 0.875000
v 0.501661 0.569631 0.875000
v 0.354579 0.156833 0.875000
v 0.311480 0.163229 0.875000
v 0.501661 0.569631 0.875000
v 0.397598 0.150345 0.875000
v 0.354579 0.156833 0.875000
v 0.501661 0.569631 0.875000
v 0.440593 0.150576 0.875000
v 0.397598 0.150345 0.875000
v 0.501661 0.569631 0.875000
v 0.480230 0.147953 0.875000
v 0.440593 0.150576 0.875000
v 0.501661 0.569631 0.875000
v 0.519858 0.150692 0.875000
v 0.480230 0.147953 0.875000
v 0.501661 0.569631 0.875000
v 0.566106 0.150562 0.875000
v 0.519858 0.150692 0.875000
v 0.501661 0.569631 0.875000
v 0.609070 0.156009 0.875000
v 0.566106 0.150562 0.875000
v 0.501661 0.569631 0.875000
v 0.648816 0.156833 0.875000
v 0.609070 0.156009 0.875000
v 0.501661 0.569631 0.875000
v 0.688580 0.164396 0.875000
v 0.648816 0.156833 0.875000
v 0.501661 0.569631 0.875000
v 0.728413 0.173026 0.875000
v 0.688580 0.164396 0.875000
v 0.501661 0.569631 0.875000
v 0.768282 0.186128 0.875000
v 0.728413 0.173026 0.875000
v 0.501661 0.569631 0.875000
v 0.797007 0.206092 0.875000
v 0.768282 0.186128 0.875000
v 0.501661 0.569631 0.875000
v 0.797557 0.250014 0.875000
v 0.797007 0.206092 0.875000
v 0.501661 0.569631 0.875000
v 0.796894 0.297194 0.875000
v 0.797557 0.250014 0.875000
v 0.501661 0.569631 0.875000
v 0.796241 0.340847 0.875000
v 0.796894 0.297194 0.875000
v 0.501661 0.569631 0.875000
v 0.795575 0.384318 0.875000
v 0.796241 0.340847 0.875000
v 0.501661 0.569631 0.875000
v 0.794933 0.427581 0.875000
v 0.795575 0.384318 0.875000
v 0.501661 0.569631 0.875000
v 0.794373 0.470630 0.875000
v 0.794933 0.427581 0.875000
v 0.501661 0.569631 0.875000
v 0.793939 0.516777 0.875000
v 0.794373 0.470630 0.875000
v 0.501661 0.569631 0.875000
v 0.793757 0.559497 0.875000
v 0.793939 0.516777 0.875000
v 0.501661 0.569631 0.875000
v 0.793823 0.602191 0.875000
v 0.793757 0.559497 0.875000
v 0.501661 0.569631 0.875000
v 0.794123 0.644966 0.875000
v 0.793823 0.602191 0.875000
v 0.501661 0.569631 0.875000
v 0.796821 0.684621 0.875000
v 0.794123 0.644966 0.875000
v 0.501661 0.569631 0.875000
v 0.798488 0.724444 0.875000
v 0.796821 0.684621 0.875000
v 0.501661 0.569631 0.875000
v 0.795770 0.767722 0.875000
v 0.798488 0.724444 0.875000
v 0.501661 0.569631 0.875000
v 0.796436 0.811249 0.875000
v 0.795770 0.767722 0.875000
v 0.501661 0.569631 0.875000
v 0.797080 0.854950 0.875000
v 0.796436 0.811249 0.875000
v 0.501661 0.569631 0.875000
v 0.797684 0.898794 0.875000
v 0.797080 0.854950 0.875000
v 0.501661 0.569631 0.875000
v 0.792468 0.939781 0.875000
v 0.797684 0.898794 0.875000
v 0.501661 0.569631 0.875000
v 0.758347 0.959889 0.875000
v 0.792468 0.939781 0.875000
v 0.501661 0.569631 0.875000
v 0.721794 0.970103 0.875000
v 0.758347 0.959889 0.875000
v 0.501661 0.569631 0.875000
v 0.681984 0.979882 0.875000
v 0.721794 0.970103 0.875000
v 0.501661 0.569631 0.875000
v 0.638873 0.982730 0.875000
v 0.681984 0.979882 0.875000
v 0.501661 0.569631 0.875000
v 0.599174 0.988286 0.875000
v 0.638873 0.982730 0.875000
v 0.599174 0.988286 0.875000
v 0.552886 0.988059 0.875000
v 0.552886 0.988059 1.000000
v 0.599174 0.988286 0.875000
v 0.552886 0.988059 1.000000
v 0.599174 0.988286 1.000000
v 0.552886 0.988059 0.875000
v 0.509952 0.987971 0.875000
v 0.509952 0.987971 1.000000
v 0.552886 0.988059 0.875000
v 0.509952 0.987971 1.000000
v 0.552886 0.988059 1.000000
v 0.509952 0.987971 0.875000
v 0.467025 0.988010 0.875000
v 0.467025 0.988010 1.000000
v 0.509952 0.987971 0.875000
v 0.467025 0.988010 1.000000
v 0.509952 0.987971 1.000000
v 0.467025 0.988010 0.875000
v 0.424079 0.985896 0.875000
v 0.424079 0.985896 1.000000
v 0.467025 0.988010 0.875000
v 0.424079 0.985896 1.000000
v 0.467025 0.988010 1.000000
v 0.424079 0.985896 0.875000
v 0.381095 0.981623 0.875000
v 0.381095 0.981623 1.000000
v 0.424079 0.985896 0.875000
v 0.381095 0.981623 1.000000
v 0.424079 0.985896 1.000000
v 0.381095 0.981623 0.875000
v 0.338046 0.976315 0.875000
v 0.338046 0.976315 1.000000
v 0.381095 0.981623 0.875000
v 0.338046 0.976315 1.000000
v 0.381095 0.981623 1.000000
v 0.338046 0.976315 0.875000
v 0.298255 0.968786 0.875000
v 0.298255 0.968786 1.000000
v 0.338046 0.976315 0.875000
v 0.298255 0.968786 1.000000
v 0.338046 0.976315 1.000000
v 0.298255 0.968786 0.875000
v 0.261743 0.958334 0.875000
v 0.261743 0.958334 1.000000
v 0.298255 0.968786 0.875000
v 0.261743 0.958334 1.000000
v 0.298255 0.968786 1.000000
v 0.261743 0.958334 0.875000
v 0.225220 0.942505 0.875000
v 0.225220 0.942505 1.000000
v 0.261743 0.958334 0.875000
v 0.225220 0.942505 1.000000
v 0.261743 0.958334 1.000000
v 0.225220 0.942505 0.875000
v 0.202189 0.912351 0.875000
v 0.202189 0.912351 1.000000
v 0.225220 0.942505 0.875000
v 0.202189 0.912351 1.000000
v 0.225220 0.942505 1.000000
v 0.202189 0.912351 0.875000
v 0.202775 0.868473 0.875000
v 0.202775 0.868473 1.000000
v 0.202189 0.912351 0.875000
v 0.202775 0.868473 1.000000
v 0.202189 0.912351 1.000000
v 0.202775 0.868473 0.875000
v 0.203453 0.821369 0.875000
v 0.203453 0.821369 1.000000
v 0.202775 0.868473 0.875000
v 0.203453 0.821369 1.000000
v 0.202775 0.868473 1.000000
v 0.203453 0.821369 0.875000
v 0.204110 0.777800 0.875000
v 0.204110 0.777800 1.000000
v 0.203453 0.821369 0.875000
v 0.204110 0.777800 1.000000
v 0.203453 0.821369 1.000000
v 0.204110 0.777800 0.875000
v 0.204763 0.734423 0.875000
v 0.204763 0.734423 1.000000
v 0.204110 0.777800 0.875000
v 0.204763 0.734423 1.000000
v 0.204110 0.777800 1.000000
v 0.204763 0.734423 0.875000
v 0.205364 0.691256 0.875000
v 0.205364 0.691256 1.000000
v 0.204763 0.734423 0.875000
v 0.205364 0.691256 1.000000
v 0.204763 0.734423 1.000000
v 0.205364 0.691256 0.875000
v 0.205853 0.648293 0.875000
v 0.205853 0.648293 1.000000
v 0.205364 0.691256 0.875000
v 0.205853 0.648293 1.000000
v 0.205364 0.691256 1.000000
v 0.205853 0.648293 0.875000
v 0.206179 0.602205 0.875000
v 0.206179 0.602205 1.000000
v 0.205853 0.648293 0.875000
v 0.206179 0.602205 1.000000
v 0.205853 0.648293 1.000000
v 0.206179 0.602205 0.875000
v 0.207375 0.559494 0.875000
v 0.207375 0.559494 1.000000
v 0.206179 0.602205 0.875000
v 0.207375 0.559494 1.000000
v 0.206179 0.602205 1.000000
v 0.207375 0.559494 0.875000
v 0.210180 0.523359 0.875000
v 0.210180 0.523359 1.000000
v 0.207375 0.559494 0.875000
v 0.210180 0.523359 1.000000
v 0.207375 0.559494 1.000000
v 0.210180 0.523359 0.875000
v 0.205815 0.487101 0.875000
v 0.205815 0.487101 1.000000
v 0.210180 0.523359 0.875000
v 0.205815 0.487101 1.000000
v 0.210180 0.523359 1.000000
v 0.205815 0.487101 0.875000
v 0.207610 0.447463 0.875000
v 0.207610 0.447463 1.000000
v 0.205815 0.487101 0.875000
v 0.207610 0.447463 1.000000
v 0.205815 0.487101 1.000000
v 0.207610 0.447463 0.875000
v 0.205927 0.407609 0.875000
v 0.205927 0.407609 1.000000
v 0.207610 0.447463 0.875000
v 0.205927 0.407609 1.000000
v 0.207610 0.447463 1.000000
v 0.205927 0.407609 0.875000
v 0.206944 0.370954 0.875000
v 0.206944 0.370954 1.000000
v 0.205927 0.407609 0.875000
v 0.206944 0.370954 1.000000
v 0.205927 0.407609 1.000000
v 0.206944 0.370954 0.875000
v 0.210357 0.330841 0.875000
v 0.210357 0.330841 1.000000
v 0.206944 0.370954 0.875000
v 0.210357 0.330841 1.000000
v 0.206944 0.370954 1.000000
v 0.210357 0.330841 0.875000
v 0.209706 0.287148 0.875000
v 0.209706 0.287148 1.000000
v 0.210357 0.330841 0.875000
v 0.209706 0.287148 1.000000
v 0.210357 0.330841 1.000000
v 0.209706 0.287148 0.875000
v 0.209096 0.243308 0.875000
v 0.209096 0.243308 1.000000
v 0.209706 0.287148 0.875000
v 0.209096 0.243308 1.000000
v 0.209706 0.287148 1.000000
v 0.209096 0.243308 0.875000
v 0.207256 0.204074 0.875000
v 0.207256 0.204074 1.000000
v 0.209096 0.243308 0.875000
v 0.207256 0.204074 1.000000
v 0.209096 0.243308 1.000000
v 0.207256 0.204074 0.875000
v 0.231773 0.186089 0.875000
v 0.231773 0.186089 1.000000
v 0.207256 0.204074 0.875000
v 0.231773 0.186089 1.000000
v 0.207256 0.204074 1.000000
v 0.231773 0.186089 0.875000
v 0.271664 0.174121 0.875000
v 0.271664 0.174121 1.000000
v 0.231773 0.186089 0.875000
v 0.271664 0.174121 1.000000
v 0.231773 0.186089 1.000000
v 0.271664 0.174121 0.875000
v 0.311480 0.163229 0.875000
v 0.311480 0.163229 1.000000
v 0.271664 0.174121 0.875000
v 0.311480 0.163229 1.000000
v 0.271664 0.174121 1.000000
v 0.311480 0.163229 0.875000
v 0.354579 0.156833 0.875000
v 0.354579 0.156833 1.000000
v 0.311480 0.163229 0.875000
v 0.354579 0.156833 1.000000
v 0.311480 0.163229 1.000000
v 0.354579 0.156833 0.875000
v 0.397598 0.150345 0.875000
v 0.397598 0.150345 1.000000
v 0.354579 0.156833 0.875000
v 0.397598 0.150345 1.000000
v 0.354579 0.156833 1.000000
v 0.397598 0.150345 0.875000
v 0.440593 0.150576 0.875000
v 0.440593 0.150576 1.000000
v 0.397598 0.150345 0.875000
v 0.440593 0.150576 1.000000
v 0.397598 0.150345 1.000000
v 0.440593 0.150576 0.875000
v 0.480230 0.147953 0.875000
v 0.480230 0.147953 1.000000
v 0.440593 0.150576 0.875000
v 0.480230 0.147953 1.000000
v 0.440593 0.150576 1.000000
v 0.480230 0.147953 0.875000
v 0.519858 0.150692 0.875000
v 0.519858 0.150692 1.000000
v 0.480230 0.147953 0.875000
v 0.519858 0.150692 1.000000
v 0.480230 0.147953 1.000000
v 0.519858 0.150692 0.875000
v 0.566106 0.150562 0.875000
v 0.566106 0.150562 1.000000
v 0.519858 0.150692 0.875000
v 0.566106 0.150562 1.000000
v 0.519858 0.150692 1.000000
v 0.566106 0.150562 0.875000
v 0.609070 0.156009 0.875000
v 0.609070 0.156009 1.000000
v 0.566106 0.150562 0.875000
v 0.609070 0.156009 1.000000
v 0.566106 0.150562 1.000000
v 0.609070 0.156009 0.875000
v 0.648816 0.156833 0.875000
v 0.648816 0.156833 1.000000
v 0.609070 0.156009 0.875000
v 0.648816 0.156833 1.000000
v 0.609070 0.156009 1.000000
v 0.648816 0.156833 0.875000
v 0.688580 0.164396 0.875000
v 0.688580 0.164396 1.000000
v 0.648816 0.156833 0.875000
v 0.688580 0.164396 1.000000
v 0.648816 0.156833 1.000000
v 0.688580 0.164396 0.875000
v 0.728413 0.173026 0.875000
v 0.728413 0.173026 1.000000
v 0.688580 0.164396 0.875000
v 0.728413 0.173026 1.000000
v 0.688580 0.164396 1.000000
v 0.728413 0.173026 0.875000
v 0.768282 0.186128 0.875000
v 0.768282 0.186128 1.000000
v 0.728413 0.173026 0.875000
v 0.768282 0.186128 1.000000
v 0.728413 0.173026 1.000000
v 0.768282 0.186128 0.875000
v 0.797007 0.206092 0.875000
v 0.797007 0.206092 1.000000
v 0.768282 0.186128 0.875000
v 0.797007 0.206092 1.000000
v 0.768282 0.186128 1.000000
v 0.797007 0.206092 0.875000
v 0.797557 0.250014 0.875000
v 0.797557 0.250014 1.000000
v 0.797007 0.206092 0.875000
v 0.797557 0.250014 1.000000
v 0.797007 0.206092 1.000000
v 0.797557 0.250014 0.875000
v 0.796894 0.297194 0.875000
v 0.796894 0.297194 1.000000
v 0.797557 0.250014 0.875000
v 0.796894 0.297194 1.000000
v 0.797557 0.250014 1.000000
v 0.796894 0.297194 0.875000
v 0.796241 0.340847 0.875000
v 0.796241 0.340847 1.000000
v 0.796894 0.297194 0.875000
v 0.796241 0.340847 1.000000
v 0.796894 0.297194 1.000000
v 0.796241 0.340847 0.875000
v 0.795575 0.384318 0.875000
v 0.795575 0.384318 1.000000
v 0.796241 0.340847 0.875000
v 0.795575 0.384318 1.000000
v 0.796241 0.340847 1.000000
v 0.795575 0.384318 0.875000
v 0.794933 0.427581 0.875000
v 0.794933 0.427581 1.000000
v 0.795575 0.384318 0.875000
v 0.794933 0.427581 1.000000
v 0.795575 0.384318 1.000000
v 0.794933 0.427581 0.875000
v 0.794373 0.470630 0.875000
v 0.794373 0.470630 1.000000
v 0.794933 0.427581 0.875000
v 0.794373 0.470630 1.000000
v 0.794933 0.427581 1.000000
v 0.794373 0.470630 0.875000
v 0.793939 0.516777 0.875000
v 0.793939 0.516777 1.000000
v 0.794373 0.470630 0.875000
v 0.793939 0.516777 1.000000
v 0.794373 0.470630 1.000000
v 0.793939 0.516777 0.875000
v 0.793757 0.559497 0.875000
v 0.793757 0.559497 1.000000
v 0.793939 0.516777 0.875000
v 0.793757 0.559497 1.000000
v 0.793939 0.516777 1.000000
v 0.793757 0.559497 0.875000
v 0.793823 0.602191 0.875000
v 0.793823 0.602191 1.000000
v 0.793757 0.559497 0.875000
v 0.793823 0.602191 1.000000
v 0.793757 0.559497 1.000000
v 0.793823 0.602191 0.875000
v 0.794123 0.644966 0.875000
v 0.794123 0.644966 1.000000
v 0.793823 0.602191 0.875000
v 0.794123 0.644966 1.000000
v 0.793823 0.602191 1.000000
v 0.794123 0.644966 0.875000
v 0.796821 0.684621 0.875000
v 0.796821 0.684621 1.000000
v 0.794123 0.644966 0.875000
v 0.796821 0.684621 1.000000
v 0.794123 0.644966 1.000000
v 0.796821 0.684621 0.875000
v 0.798488 0.724444 0.875000
v 0.798488 0.724444 1.000000
v 0.796821 0.684621 0.875000
v 0.798488 0.724444 1.000000
v 0.796821 0.684621 1.000000
v 0.798488 0.724444 0.875000
v 0.795770 0.767722 0.875000
v 0.795770 0.767722 1.000000
v 0.798488 0.724444 0.875000
v 0.795770 0.767722 1.000000
v 0.798488 0.724444 1.000000
v 0.795770 0.767722 0.875000
v 0.796436 0.811249 0.875000
v 0.796436 0.811249 1.000000
v 0.795770 0.767722 0.875000
v 0.796436 0.811249 1.000000
v 0.795770 0.767722 1.000000
v 0.796436 0.811249 0.875000
v 0.797080 0.854950 0.875000
v 0.797080 0.854950 1.000000
v 0.796436 0.811249 0.875000
v 0.797080 0.854950 1.000000
v 0.796436 0.811249 1.000000
v 0.797080 0.854950 0.875000
v 0.797684 0.898794 0.875000
v 0.797684 0.898794 1.000000
v 0.797080 0.854950 0.875000
v 0.797684 0.898794 1.000000
v 0.797080 0.854950 1.000000
v 0.797684 0.898794 0.875000
v 0.792468 0.939781 0.875000
v 0.792468 0.939781 1.000000
v 0.797684 0.898794 0.875000
v 0.792468 0.939781 1.000000
v 0.797684 0.898794 1.000000
v 0.792468 0.939781 0.875000
v 0.758347 0.959889 0.875000
v 0.758347 0.959889 1.000000
v 0.792468 0.939781 0.875000
v 0.758347 0.959889 1.000000
v 0.792468 0.939781 1.000000
v 0.758347 0.959889 0.875000
v 0.721794 0.970103 0.875000
v 0.721794 0.970103 1.000000
v 0.758347 0.959889 0.875000
v 0.721794 0.970103 1.000000
v 0.758347 0.959889 1.000000
v 0.721794 0.970103 0.875000
v 0.681984 0.979882 0.875000
v 0.681984 0.979882 1.000000
v 0.721794 0.970103 0.875000
v 0.681984 0.979882 1.000000
v 0.721794 0.970103 1.000000
v 0.681984 0.979882 0.875000
v 0.638873 0.982730 0.875000
v 0.638873 0.982730 1.000000
v 0.681984 0.979882 0.875000
v 0.638873 0.982730 1.000000
v 0.681984 0.979882 1.000000
v 0.638873 0.982730 0.875000
v 0.599174 0.988286 0.875000
v 0.599174 0.988286 1.000000
v 0.638873 0.982730 0.875000
v 0.599174 0.988286 1.000000
v 0.638873 0.982730 1.000000
v 0.501661 0.569631 1.000000
v 0.599174 0.988286 1.000000
v 0.552886 0.988059 1.000000
v 0.501661 0.569631 1.000000
v 0.552886 0.988059 1.000000
v 0.509952 0.987971 1.000000
v 0.501661 0.569631 1.000000
v 0.509952 0.987971 1.000000
v 0.467025 0.988010 1.000000
v 0.501661 0.569631 1.000000
v 0.467025 0.988010 1.000000
v 0.424079 0.985896 1.000000
v 0.501661 0.569631 1.000000
v 0.424079 0.985896 1.000000
v 0.381095 0.981623 1.000000
v 0.501661 0.569631 1.000000
v 0.381095 0.981623 1.000000
v 0.338046 0.976315 1.000000
v 0.501661 0.569631 1.000000
v 0.338046 0.976315 1.000000
v 0.298255 0.968786 1.000000
v 0.501661 0.569631 1.000000
v 0.298255 0.968786 1.000000
v 0.261743 0.958334 1.000000
v 0.501661 0.569631 1.000000
v 0.261743 0.958334 1.000000
v 0.225220 0.942505 1.000000
v 0.501661 0.569631 1.000000
v 0.225220 0.942505 1.000000
v 0.202189 0.912351 1.000000
v 0.501661 0.569631 1.000000
v 0.202189 0.912351 1.000000
v 0.202775 0.868473 1.000000
v 0.501661 0.569631 1.000000
v 0.202775 0.868473 1.000000
v 0.203453 0.821369 1.000000
v 0.501661 0.569631 1.000000
v 0.203453 0.821369 1.000000
v 0.204110 0.777800 1.000000
v 0.501661 0.569631 1.000000
v 0.204110 0.777800 1.000000
v 0.204763 0.734423 1.000000
v 0.501661 0.569631 1.000000
v 0.204763 0.734423 1.000000
v 0.205364 0.691256 1.000000
v 0.501661 0.569631 1.000000
v 0.205364 0.691256 1.000000
v 0.205853 0.648293 1.000000
v 0.501661 0.569631 1.000000
v 0.205853 0.648293 1.000000
v 0.206179 0.602205 1.000000
v 0.501661 0.569631 1.000000
v 0.206179 0.602205 1.000000
v 0.207375 0.559494 1.000000
v 0.501661 0.569631 1.000000
v 0.207375 0.559494 1.000000
v 0.210180 0.523359 1.000000
v 0.501661 0.569631 1.000000
v 0.210180 0.523359 1.000000
v 0.205815 0.487101 1.000000
v 0.501661 0.569631 1.000000
v 0.205815 0.487101 1.000000
v 0.207610 0.447463 1.000000
v 0.501661 0.569631 1.000000
v 0.207610 0.447463 1.000000
v 0.205927 0.407609 1.000000
v 0.501661 0.569631 1.000000
v 0.205927 0.407609 1.000000
v 0.206944 0.370954 1.000000
v 0.501661 0.569631 1.000000
v 0.206944 0.370954 1.000000
v 0.210357 0.330841 1.000000
v 0.501661 0.569631 1.000000
v 0.210357 0.330841 1.000000
v 0.209706 0.287148 1.000000
v 0.501661 0.569631 1.000000
v 0.209706 0.287148 1.000000
v 0.209096 0.243308 1.000000
v 0.501661 0.569631 1.000000
v 0.209096 0.243308 1.000000
v 0.207256 0.204074 1.000000
v 0.501661 0.569631 1.000000
v 0.207256 0.204074 1.000000
v 0.231773 0.186089 1.000000
v 0.501661 0.569631 1.000000
v 0.231773 0.186089 1.000000
v 0.271664 0.174121 1.000000
v 0.501661 0.569631 1.000000
v 0.271664 0.174121 1.000000
v 0.311480 0.163229 1.000000
v 0.501661 0.569631 1.000000
v 0.311480 0.163229 1.000000
v 0.354579 0.156833 1.000000
v 0.501661 0.569631 1.000000
v 0.354579 0.156833 1.000000
v 0.397598 0.150345 1.000000
v 0.501661 0.569631 1.000000
v 0.397598 0.150345 1.000000
v 0.440593 0.150576 1.000000
v 0.501661 0.569631 1.000000
v 0.440593 0.150576 1.000000
v 0.480230 0.147953 1.000000
v 0.501661 0.569631 1.000000
v 0.480230 0.147953 1.000000
v 0.519858 0.150692 1.000000
v 0.501661 0.569631 1.000000
v 0.519858 0.150692 1.000000
v 0.566106 0.150562 1.000000
v 0.501661 0.569631 1.000000
v 0.566106 0.150562 1.000000
v 0.609070 0.156009 1.000000
v 0.501661 0.569631 1.000000
v 0.609070 0.156009 1.000000
v 0.648816 0.156833 1.000000
v 0.501661 0.569631 1.000000
v 0.648816 0.156833 1.000000
v 0.688580 0.164396 1.000000
v 0.501661 0.569631 1.000000
v 0.688580 0.164396 1.000000
v 0.728413 0.173026 1.000000
v 0.501661 0.569631 1.000000
v 0.728413 0.173026 1.000000
v 0.768282 0.186128 1.000000
v 0.501661 0.569631 1.000000
v 0.768282 0.186128 1.000000
v 0.797007 0.206092 1.000000
v 0.501661 0.569631 1.000000
v 0.797007 0.206092 1.000000
v 0.797557 0.250014 1.000000
v 0.501661 0.569631 1.000000
v 0.797557 0.250014 1.000000
v 0.796894 0.297194 1.000000
v 0.501661 0.569631 1.000000
v 0.796894 0.297194 1.000000
v 0.796241 0.340847 1.000000
v 0.501661 0.569631 1.000000
v 0.796241 0.340847 1.000000
v 0.795575 0.384318 1.000000
v 0.501661 0.569631 1.000000
v 0.795575 0.384318 1.000000
v 0.794933 0.427581 1.000000
v 0.501661 0.569631 1.000000
v 0.794933 0.427581 1.000000
v 0.794373 0.470630 1.000000
v 0.501661 0.569631 1.000000
v 0.794373 0.470630 1.000000
v 0.793939 0.516777 1.000000
v 0.501661 0.569631 1.000000
v 0.793939 0.516777 1.000000
v 0.793757 0.559497 1.000000
v 0.501661 0.569631 1.000000
v 0.793757 0.559497 1.000000
v 0.793823 0.602191 1.000000
v 0.501661 0.569631 1.000000
v 0.793823 0.602191 1.000000
v 0.794123 0.644966 1.000000
v 0.501661 0.569631 1.000000
v 0.794123 0.644966 1.000000
v 0.796821 0.684621 1.000000
v 0.501661 0.569631 1.000000
v 0.796821 0.684621 1.000000
v 0.798488 0.724444 1.000000
v 0.501661 0.569631 1.000000
v 0.798488 0.724444 1.000000
v 0.795770 0.767722 1.000000
v 0.501661 0.569631 1.000000
v 0.795770 0.767722 1.000000
v 0.796436 0.811249 1.000000
v 0.501661 0.569631 1.000000
v 0.796436 0.811249 1.000000
v 0.797080 0.854950 1.000000
v 0.501661 0.569631 1.000000
v 0.797080 0.854950 1.000000
v 0.797684 0.898794 1.000000
v 0.501661 0.569631 1.000000
v 0.797684 0.898794 1.000000
v 0.792468 0.939781 1.000000
v 0.501661 0.569631 1.000000
v 0.792468 0.939781 1.000000
v 0.758347 0.959889 1.000000
v 0.501661 0.569631 1.000000
v 0.758347 0.959889 1.000000
v 0.721794 0.970103 1.000000
v 0.501661 0.569631 1.000000
v 0.721794 0.970103 1.000000
v 0.681984 0.979882 1.000000
v 0.501661 0.569631 1.000000
v 0.681984 0.979882 1.000000
v 0.638873 0.982730 1.000000
v 0.501661 0.569631 1.000000
v 0.638873 0.982730 1.000000
v 0.599174 0.988286 1.000000
v 0.561141 0.283594 0.875000
v 0.585406 0.286788 0.821875
v 0.585406 0.286788 0.875000
v 0.561141 0.283594 0.875000
v 0.561141 0.283594 0.821875
v 0.585406 0.286788 0.821875
v 0.585406 0.286788 0.875000
v 0.608016 0.296154 0.821875
v 0.608016 0.296154 0.875000
v 0.585406 0.286788 0.875000
v 0.585406 0.286788 0.821875
v 0.608016 0.296154 0.821875
v 0.608016 0.296154 0.875000
v 0.627433 0.311052 0.821875
v 0.627433 0.311052 0.875000
v 0.608016 0.296154 0.875000
v 0.608016 0.296154 0.821875
v 0.627433 0.311052 0.821875
v 0.627433 0.311052 0.875000
v 0.642331 0.330469 0.821875
v 0.642331 0.330469 0.875000
v 0.627433 0.311052 0.875000
v 0.627433 0.311052 0.821875
v 0.642331 0.330469 0.821875
v 0.642331 0.330469 0.875000
v 0.651697 0.353079 0.821875
v 0.651697 0.353079 0.875000
v 0.642331 0.330469 0.875000
v 0.642331 0.330469 0.821875
v 0.651697 0.353079 0.821875
v 0.651697 0.353079 0.875000
v 0.654891 0.377344 0.821875
v 0.654891 0.377344 0.875000
v 0.651697 0.353079 0.875000
v 0.651697 0.353079 0.821875
v 0.654891 0.377344 0.821875
v 0.654891 0.377344 0.875000
v 0.654891 0.536016 0.821875
v 0.654891 0.536016 0.875000
v 0.654891 0.377344 0.875000
v 0.654891 0.377344 0.821875
v 0.654891 0.536016 0.821875
v 0.654891 0.536016 0.875000
v 0.651697 0.560280 0.821875
v 0.651697 0.560280 0.875000
v 0.654891 0.536016 0.875000
v 0.654891 0.536016 0.821875
v 0.651697 0.560280 0.821875
v 0.651697 0.560280 0.875000
v 0.642331 0.582891 0.821875
v 0.642331 0.582891 0.875000
v 0.651697 0.560280 0.875000
v 0.651697 0.560280 0.821875
v 0.642331 0.582891 0.821875
v 0.642331 0.582891 0.875000
v 0.627433 0.602307 0.821875
v 0.627433 0.602307 0.875000
v 0.642331 0.582891 0.875000
v 0.642331 0.582891 0.821875
v 0.627433 0.602307 0.821875
v 0.627433 0.602307 0.875000
v 0.608016 0.617206 0.821875
v 0.608016 0.617206 0.875000
v 0.627433 0.602307 0.875000
v 0.627433 0.602307 0.821875
v 0.608016 0.617206 0.821875
v 0.608016 0.617206 0.875000
v 0.585406 0.626571 0.821875
v 0.585406 0.626571 0.875000
v 0.608016 0.617206 0.875000
v 0.608016 0.617206 0.821875
v 0.585406 0.626571 0.821875
v 0.585406 0.626571 0.875000
v 0.561141 0.629766 0.821875
v 0.561141 0.629766 0.875000
v 0.585406 0.626571 0.875000
v 0.585406 0.626571 0.821875
v 0.561141 0.629766 0.821875
v 0.561141 0.629766 0.875000
v 0.405163 0.629766 0.821875
v 0.405163 0.629766 0.875000
v 0.561141 0.629766 0.875000
v 0.561141 0.629766 0.821875
v 0.405163 0.629766 0.821875
v 0.405163 0.629766 0.875000
v 0.380899 0.626571 0.821875
v 0.380899 0.626571 0.875000
v 0.405163 0.629766 0.875000
v 0.405163 0.629766 0.821875
v 0.380899 0.626571 0.821875
v 0.380899 0.626571 0.875000
v 0.358288 0.617206 0.821875
v 0.358288 0.617206 0.875000
v 0.380899 0.626571 0.875000
v 0.380899 0.626571 0.821875
v 0.358288 0.617206 0.821875
v 0.358288 0.617206 0.875000
v 0.338872 0.602307 0.821875
v 0.338872 0.602307 0.875000
v 0.358288 0.617206 0.875000
v 0.358288 0.617206 0.821875
v 0.338872 0.602307 0.821875
v 0.338872 0.602307 0.875000
v 0.323973 0.582891 0.821875
v 0.323973 0.582891 0.875000
v 0.338872 0.602307 0.875000
v 0.338872 0.602307 0.821875
v 0.323973 0.582891 0.821875
v 0.323973 0.582891 0.875000
v 0.314607 0.560280 0.821875
v 0.314607 0.560280 0.875000
v 0.323973 0.582891 0.875000
v 0.323973 0.582891 0.821875
v 0.314607 0.560280 0.821875
v 0.314607 0.560280 0.875000
v 0.311413 0.536016 0.821875
v 0.311413 0.536016 0.875000
v 0.314607 0.560280 0.875000
v 0.314607 0.560280 0.821875
v 0.311413 0.536016 0.821875
v 0.311413 0.536016 0.875000
v 0.311413 0.377344 0.821875
v 0.311413 0.377344 0.875000
v 0.311413 0.536016 0.875000
v 0.311413 0.536016 0.821875
v 0.311413 0.377344 0.821875
v 0.311413 0.377344 0.875000
v 0.314607 0.353079 0.821875
v 0.314607 0.353079 0.875000
v 0.311413 0.377344 0.875000
v 0.311413 0.377344 0.821875
v 0.314607 0.353079 0.821875
v 0.314607 0.353079 0.875000
v 0.323973 0.330469 0.821875
v 0.323973 0.330469 0.875000
v 0.314607 0.353079 0.875000
v 0.314607 0.353079 0.821875
v 0.323973 0.330469 0.821875
v 0.323973 0.330469 0.875000
v 0.338872 0.311052 0.821875
v 0.338872 0.311052 0.875000
v 0.323973 0.330469 0.875000
v 0.323973 0.330469 0.821875
v 0.338872 0.311052 0.821875
v 0.338872 0.311052 0.875000
v 0.358288 0.296154 0.821875
v 0.358288 0.296154 0.875000
v 0.338872 0.311052 0.875000
v 0.338872 0.311052 0.821875
v 0.358288 0.296154 0.821875
v 0.358288 0.296154 0.875000
v 0.380899 0.286788 0.821875
v 0.380899 0.286788 0.875000
v 0.358288 0.296154 0.875000
v 0.358288 0.296154 0.821875
v 0.380899 0.286788 0.821875
v 0.380899 0.286788 0.875000
v 0.405163 0.283594 0.821875
v 0.405163 0.283594 0.875000
v 0.380899 0.286788 0.875000
v 0.380899 0.286788 0.821875
v 0.405163 0.283594 0.821875
v 0.405163 0.283594 0.875000
v 0.561141 0.283594 0.821875
v 0.561141 0.283594 0.875000
v 0.405163 0.283594 0.875000
v 0.405163 0.283594 0.821875
v 0.561141 0.283594 0.821875
v 0.561141 0.283594 0.821875
v 0.575737 0.302853 0.806250
v 0.585406 0.286788 0.821875
v 0.561141 0.283594 0.821875
v 0.553439 0.300689 0.806250
v 0.575737 0.302853 0.806250
v 0.585406 0.286788 0.821875
v 0.596504 0.310954 0.806250
v 0.608016 0.296154 0.821875
v 0.585406 0.286788 0.821875
v 0.575737 0.302853 0.806250
v 0.596504 0.310954 0.806250
v 0.608016 0.296154 0.821875
v 0.614236 0.324372 0.806250
v 0.627433 0.311052 0.821875
v 0.608016 0.296154 0.821875
v 0.596504 0.310954 0.806250
v 0.614236 0.324372 0.806250
v 0.627433 0.311052 0.821875
v 0.627639 0.342118 0.806250
v 0.642331 0.330469 0.821875
v 0.627433 0.311052 0.821875
v 0.614236 0.324372 0.806250
v 0.627639 0.342118 0.806250
v 0.642331 0.330469 0.821875
v 0.635723 0.362898 0.806250
v 0.651697 0.353079 0.821875
v 0.642331 0.330469 0.821875
v 0.627639 0.342118 0.806250
v 0.635723 0.362898 0.806250
v 0.651697 0.353079 0.821875
v 0.637870 0.385207 0.806250
v 0.654891 0.377344 0.821875
v 0.651697 0.353079 0.821875
v 0.635723 0.362898 0.806250
v 0.637870 0.385207 0.806250
v 0.654891 0.377344 0.821875
v 0.637870 0.528152 0.806250
v 0.654891 0.536016 0.821875
v 0.654891 0.377344 0.821875
v 0.637870 0.385207 0.806250
v 0.637870 0.528152 0.806250
v 0.654891 0.536016 0.821875
v 0.635723 0.550461 0.806250
v 0.651697 0.560280 0.821875
v 0.654891 0.536016 0.821875
v 0.637870 0.528152 0.806250
v 0.635723 0.550461 0.806250
v 0.651697 0.560280 0.821875
v 0.627639 0.571241 0.806250
v 0.642331 0.582891 0.821875
v 0.651697 0.560280 0.821875
v 0.635723 0.550461 0.806250
v 0.627639 0.571241 0.806250
v 0.642331 0.582891 0.821875
v 0.614236 0.588987 0.806250
v 0.627433 0.602307 0.821875
v 0.642331 0.582891 0.821875
v 0.627639 0.571241 0.806250
v 0.614236 0.588987 0.806250
v 0.627433 0.602307 0.821875
v 0.596504 0.602406 0.806250
v 0.608016 0.617206 0.821875
v 0.627433 0.602307 0.821875
v 0.614236 0.588987 0.806250
v 0.596504 0.602406 0.806250
v 0.608016 0.617206 0.821875
v 0.575737 0.610506 0.806250
v 0.585406 0.626571 0.821875
v 0.608016 0.617206 0.821875
v 0.596504 0.602406 0.806250
v 0.575737 0.610506 0.806250
v 0.585406 0.626571 0.821875
v 0.553439 0.612671 0.806250
v 0.561141 0.629766 0.821875
v 0.585406 0.626571 0.821875
v 0.575737 0.610506 0.806250
v 0.553439 0.612671 0.806250
v 0.561141 0.629766 0.821875
v 0.412866 0.612671 0.806250
v 0.405163 0.629766 0.821875
v 0.561141 0.629766 0.821875
v 0.553439 0.612671 0.806250
v 0.412866 0.612671 0.806250
v 0.405163 0.629766 0.821875
v 0.390568 0.610506 0.806250
v 0.380899 0.626571 0.821875
v 0.405163 0.629766 0.821875
v 0.412866 0.612671 0.806250
v 0.390568 0.610506 0.806250
v 0.380899 0.626571 0.821875
v 0.369800 0.602406 0.806250
v 0.358288 0.617206 0.821875
v 0.380899 0.626571 0.821875
v 0.390568 0.610506 0.806250
v 0.369800 0.602406 0.806250
v 0.358288 0.617206 0.821875
v 0.352068 0.588987 0.806250
v 0.338872 0.602307 0.821875
v 0.358288 0.617206 0.821875
v 0.369800 0.602406 0.806250
v 0.352068 0.588987 0.806250
v 0.338872 0.602307 0.821875
v 0.338665 0.571241 0.806250
v 0.323973 0.582891 0.821875
v 0.338872 0.602307 0.821875
v 0.352068 0.588987 0.806250
v 0.338665 0.571241 0.806250
v 0.323973 0.582891 0.821875
v 0.330581 0.550461 0.806250
v 0.314607 0.560280 0.821875
v 0.323973 0.582891 0.821875
v 0.338665 0.571241 0.806250
v 0.330581 0.550461 0.806250
v 0.314607 0.560280 0.821875
v 0.328435 0.528152 0.806250
v 0.311413 0.536016 0.821875
v 0.314607 0.560280 0.821875
v 0.330581 0.550461 0.806250
v 0.328435 0.528152 0.806250
v 0.311413 0.536016 0.821875
v 0.328435 0.385207 0.806250
v 0.311413 0.377344 0.821875
v 0.311413 0.536016 0.821875
v 0.328435 0.528152 0.806250
v 0.328435 0.385207 0.806250
v 0.311413 0.377344 0.821875
v 0.330581 0.362898 0.806250
v 0.314607 0.353079 0.821875
v 0.311413 0.377344 0.821875
v 0.328435 0.385207 0.806250
v 0.330581 0.362898 0.806250
v 0.314607 0.353079 0.821875
v 0.338665 0.342118 0.806250
v 0.323973 0.330469 0.821875
v 0.314607 0.353079 0.821875
v 0.330581 0.362898 0.806250
v 0.338665 0.342118 0.806250
v 0.323973 0.330469 0.821875
v 0.352068 0.324372 0.806250
v 0.338872 0.311052 0.821875
v 0.323973 0.330469 0.821875
v 0.338665 0.342118 0.806250
v 0.352068 0.324372 0.806250
v 0.338872 0.311052 0.821875
v 0.369800 0.310954 0.806250
v 0.358288 0.296154 0.821875
v 0.338872 0.311052 0.821875
v 0.352068 0.324372 0.806250
v 0.369800 0.310954 0.806250
v 0.358288 0.296154 0.821875
v 0.390568 0.302853 0.806250
v 0.380899 0.286788 0.821875
v 0.358288 0.296154 0.821875
v 0.369800 0.310954 0.806250
v 0.390568 0.302853 0.806250
v 0.380899 0.286788 0.821875
v 0.412866 0.300689 0.806250
v 0.405163 0.283594 0.821875
v 0.380899 0.286788 0.821875
v 0.390568 0.302853 0.806250
v 0.412866 0.300689 0.806250
v 0.405163 0.283594 0.821875
v 0.553439 0.300689 0.806250
v 0.561141 0.283594 0.821875
v 0.405163 0.283594 0.821875
v 0.412866 0.300689 0.806250
v 0.553439 0.300689 0.806250
v 0.483152 0.456680 0.806250
v 0.575737 0.302853 0.806250
v 0.553439 0.300689 0.806250
v 0.483152 0.456680 0.806250
v 0.596504 0.310954 0.806250
v 0.575737 0.302853 0.806250
v 0.483152 0.456680 0.806250
v 0.614236 0.324372 0.806250
v 0.596504 0.310954 0.806250
v 0.483152 0.456680 0.806250
v 0.627639 0.342118 0.806250
v 0.614236 0.324372 0.806250
v 0.483152 0.456680 0.806250
v 0.635723 0.362898 0.806250
v 0.627639 0.342118 0.806250
v 0.483152 0.456680 0.806250
v 0.637870 0.385207 0.806250
v 0.635723 0.362898 0.806250
v 0.483152 0.456680 0.806250
v 0.637870 0.528152 0.806250
v 0.637870 0.385207 0.806250
v 0.483152 0.456680 0.806250
v 0.635723 0.550461 0.806250
v 0.637870 0.528152 0.806250
v 0.483152 0.456680 0.806250
v 0.627639 0.571241 0.806250
v 0.635723 0.550461 0.806250
v 0.483152 0.456680 0.806250
v 0.614236 0.588987 0.806250
v 0.627639 0.571241 0.806250
v 0.483152 0.456680 0.806250
v 0.596504 0.602406 0.806250
v 0.614236 0.588987 0.806250
v 0.483152 0.456680 0.806250
v 0.575737 0.610506 0.806250
v 0.596504 0.602406 0.806250
v 0.483152 0.456680 0.806250
v 0.553439 0.612671 0.806250
v 0.575737 0.610506 0.806250
v 0.483152 0.456680 0.806250
v 0.412866 0.612671 0.806250
v 0.553439 0.612671 0.806250
v 0.483152 0.456680 0.806250
v 0.390568 0.610506 0.806250
v 0.412866 0.612671 0.806250
v 0.483152 0.456680 0.806250
v 0.369800 0.602406 0.806250
v 0.390568 0.610506 0.806250
v 0.483152 0.456680 0.806250
v 0.352068 0.588987 0.806250
v 0.369800 0.602406 0.806250
v 0.483152 0.456680 0.806250
v 0.338665 0.571241 0.806250
v 0.352068 0.588987 0.806250
v 0.483152 0.456680 0.806250
v 0.330581 0.550461 0.806250
v 0.338665 0.571241 0.806250
v 0.483152 0.456680 0.806250
v 0.328435 0.528152 0.806250
v 0.330581 0.550461 0.806250
v 0.483152 0.456680 0.806250
v 0.328435 0.385207 0.806250
v 0.328435 0.528152 0.806250
v 0.483152 0.456680 0.806250
v 0.330581 0.362898 0.806250
v 0.328435 0.385207 0.806250
v 0.483152 0.456680 0.806250
v 0.338665 0.342118 0.806250
v 0.330581 0.362898 0.806250
v 0.483152 0.456680 0.806250
v 0.352068 0.324372 0.806250
v 0.338665 0.342118 0.806250
v 0.483152 0.456680 0.806250
v 0.369800 0.310954 0.806250
v 0.352068 0.324372 0.806250
v 0.483152 0.456680 0.806250
v 0.390568 0.302853 0.806250
v 0.369800 0.310954 0.806250
v 0.483152 0.456680 0.806250
v 0.412866 0.300689 0.806250
v 0.390568 0.302853 0.806250
v 0.483152 0.456680 0.806250
v 0.553439 0.300689 0.806250
v 0.412866 0.300689 0.806250
vt 0.498090 0.508150
vt 0.439181 0.986353
vt 0.385950 0.986613
vt 0.498090 0.508150
vt 0.488555 0.986253
vt 0.439181 0.986353
vt 0.498090 0.508150
vt 0.537921 0.986297
vt 0.488555 0.986253
vt 0.498090 0.508150
vt 0.587309 0.983881
vt 0.537921 0.986297
vt 0.498090 0.508150
vt 0.636741 0.978997
vt 0.587309 0.983881
vt 0.498090 0.508150
vt 0.686247 0.972932
vt 0.636741 0.978997
vt 0.498090 0.508150
vt 0.732007 0.964327
vt 0.686247 0.972932
vt 0.498090 0.508150
vt 0.773995 0.952382
vt 0.732007 0.964327
vt 0.498090 0.508150
vt 0.815997 0.934291
vt 0.773995 0.952382
vt 0.498090 0.508150
vt 0.842483 0.899830
vt 0.815997 0.934291
vt 0.498090 0.508150
vt 0.841809 0.849683
vt 0.842483 0.899830
vt 0.498090 0.508150
vt 0.841028 0.795850
vt 0.841809 0.849683
vt 0.498090 0.508150
vt 0.840273 0.746057
vt 0.841028 0.795850
vt 0.498090 0.508150
vt 0.839523 0.696484
vt 0.840273 0.746057
vt 0.498090 0.508150
vt 0.838831 0.647150
vt 0.839523 0.696484
vt 0.498090 0.508150
vt 0.838269 0.598049
vt 0.838831 0.647150
vt 0.498090 0.508150
vt 0.837894 0.545378
vt 0.838269 0.598049
vt 0.498090 0.508150
vt 0.836518 0.496564
vt 0.837894 0.545378
vt 0.498090 0.508150
vt 0.833293 0.455268
vt 0.836518 0.496564
vt 0.498090 0.508150
vt 0.838312 0.413830
vt 0.833293 0.455268
vt 0.498090 0.508150
vt 0.836249 0.368529
vt 0.838312 0.413830
vt 0.498090 0.508150
vt 0.838184 0.322981
vt 0.836249 0.368529
vt 0.498090 0.508150
vt 0.837014 0.281091
vt 0.838184 0.322981
vt 0.498090 0.508150
vt 0.833090 0.235247
vt 0.837014 0.281091
vt 0.498090 0.508150
vt 0.833839 0.185312
vt 0.833090 0.235247
vt 0.498090 0.508150
vt 0.834540 0.135209
vt 0.833839 0.185312
vt 0.498090 0.508150
vt 0.836655 0.090370
vt 0.834540 0.135209
vt 0.498090 0.508150
vt 0.808460 0.069815
vt 0.836655 0.090370
vt 0.498090 0.508150
vt 0.762587 0.056138
vt 0.808460 0.069815
vt 0.498090 0.508150
vt 0.716798 0.043690
vt 0.762587 0.056138
vt 0.498090 0.508150
vt 0.667234 0.036381
vt 0.716798 0.043690
vt 0.498090 0.508150
vt 0.617762 0.028965
vt 0.667234 0.036381
vt 0.498090 0.508150
vt 0.568318 0.029230
vt 0.617762 0.028965
vt 0.498090 0.508150
vt 0.522735 0.026232
vt 0.568318 0.029230
vt 0.498090 0.508150
vt 0.477163 0.029362
vt 0.522735 0.026232
vt 0.498090 0.508150
vt 0.423978 0.029213
vt 0.477163 0.029362
vt 0.498090 0.508150
vt 0.374570 0.035439
vt 0.423978 0.029213
vt 0.498090 0.508150
vt 0.328861 0.036380
vt 0.374570 0.035439
vt 0.498090 0.508150
vt 0.283133 0.045024
vt 0.328861 0.036380
vt 0.498090 0.508150
vt 0.237325 0.054887
vt 0.283133 0.045024
vt 0.498090 0.508150
vt 0.191476 0.069860
vt 0.237325 0.054887
vt 0.498090 0.508150
vt 0.158442 0.092677
vt 0.191476 0.069860
vt 0.498090 0.508150
vt 0.157810 0.142873
vt 0.158442 0.092677
vt 0.498090 0.508150
vt 0.158571 0.196793
vt 0.157810 0.142873
vt 0.498090 0.508150
vt 0.159322 0.246682
vt 0.158571 0.196793
vt 0.498090 0.508150
vt 0.160089 0.296363
vt 0.159322 0.246682
vt 0.498090 0.508150
vt 0.160827 0.345807
vt 0.160089 0.296363
vt 0.498090 0.508150
vt 0.161471 0.395006
vt 0.160827 0.345807
vt 0.498090 0.508150
vt 0.161971 0.447745
vt 0.161471 0.395006
vt 0.498090 0.508150
vt 0.162179 0.496568
vt 0.161971 0.447745
vt 0.498090 0.508150
vt 0.162104 0.545361
vt 0.162179 0.496568
vt 0.498090 0.508150
vt 0.161758 0.594246
vt 0.162104 0.545361
vt 0.498090 0.508150
vt 0.158656 0.639567
vt 0.161758 0.594246
vt 0.498090 0.508150
vt 0.156739 0.685079
vt 0.158656 0.639567
vt 0.498090 0.508150
vt 0.159864 0.734539
vt 0.156739 0.685079
vt 0.498090 0.508150
vt 0.159098 0.784285
vt 0.159864 0.734539
vt 0.498090 0.508150
vt 0.158358 0.834229
vt 0.159098 0.784285
vt 0.498090 0.508150
vt 0.157664 0.884336
vt 0.158358 0.834229
vt 0.498090 0.508150
vt 0.163661 0.931178
vt 0.157664 0.884336
vt 0.498090 0.508150
vt 0.202901 0.954159
vt 0.163661 0.931178
vt 0.498090 0.508150
vt 0.244936 0.965833
vt 0.202901 0.954159
vt 0.498090 0.508150
vt 0.290718 0.977008
vt 0.244936 0.965833
vt 0.498090 0.508150
vt 0.340296 0.980263
vt 0.290718 0.977008
vt 0.498090 0.508150
vt 0.385950 0.986613
vt 0.340296 0.980263
vt 0.709375 0.525000
vt 0.746875 0.525000
vt 0.709375 0.487500
vt 0.709375 0.525000
vt 0.709375 0.487500
vt 0.746875 0.487500
vt 0.709375 0.525000
vt 0.746875 0.525000
vt 0.709375 0.487500
vt 0.709375 0.525000
vt 0.709375 0.487500
vt 0.746875 0.487500
vt 0.709375 0.525000
vt 0.746875 0.525000
vt 0.709375 0.487500
vt 0.709375 0.525000
vt 0.709375 0.487500
vt 0.746875 0.487500
vt 0.709375 0.525000
vt 0.746875 0.525000
vt 0.709375 0.487500
vt 0.709375 0.525000
vt 0.709375 0.487500
vt 0.746875 0.487500
vt 0.709375 0.525000
vt 0.746875 0.525000
vt 0.709375 0.487500
vt 0.709375 0.525000
vt 0.709375 0.487500
vt 0.746875 0.487500
vt 0.709375 0.525000
vt 0.746875 0.525000
vt 0.709375 0.487500
vt 0.709375 0.525000
vt 0.709375 0.487500
vt 0.746875 0.487500
vt 0.709375 0.525000
vt 0.746875 0.525000
vt 0.709375 0.487500
vt 0.709375 0.525000
vt 0.709375 0.487500
vt 0.746875 0.487500
vt 0.709375 0.525000
vt 0.746875 0.525000
vt 0.709375 0.487500
vt 0.709375 0.525000
vt 0.709375 0.487500
vt 0.746875 0.487500
vt 0.709375 0.525000
vt 0.746875 0.525000
vt 0.709375 0.487500
vt 0.709375 0.525000
vt 0.709375 0.487500
vt 0.746875 0.487500
vt 0.709375 0.525000
vt 0.746875 0.525000
vt 0.709375 0.487500
vt 0.709375 0.525000
vt 0.709375 0.487500
vt 0.746875 0.487500
vt 0.709375 0.525000
vt 0.746875 0.525000
vt 0.709375 0.487500
vt 0.709375 0.525000
vt 0.709375 0.487500
vt 0.746875 0.487500
vt 0.709375 0.525000
vt 0.746875 0.525000
vt 0.709375 0.487500
vt 0.709375 0.525000
vt 0.709375 0.487500
vt 0.746875 0.487500
vt 0.709375 0.525000
vt 0.746875 0.525000
vt 0.709375 0.487500
vt 0.709375 0.525000
vt 0.709375 0.487500
vt 0.746875 0.487500
vt 0.709375 0.525000
vt 0.746875 0.525000
vt 0.709375 0.487500
vt 0.709375 0.525000
vt 0.709375 0.487500
vt 0.746875 0.487500
vt 0.709375 0.525000
vt 0.746875 0.525000
vt 0.709375 0.487500
vt 0.709375 0.525000
vt 0.709375 0.487500
vt 0.746875 0.487500
vt 0.709375 0.525000
vt 0.746875 0.525000
vt 0.709375 0.487500
vt 0.709375 0.525000
vt 0.709375 0.487500
vt 0.746875 0.487500
vt 0.709375 0.525000
vt 0.746875 0.525000
vt 0.709375 0.487500
vt 0.709375 0.525000
vt 0.709375 0.487500
vt 0.746875 0.487500
vt 0.709375 0.525000
vt 0.746875 0.525000
vt 0.709375 0.487500
vt 0.709375 0.525000
vt 0.709375 0.487500
vt 0.746875 0.487500
vt 0.709375 0.525000
vt 0.746875 0.525000
vt 0.709375 0.487500
vt 0.709375 0.525000
vt 0.709375 0.487500
vt 0.746875 0.487500
vt 0.709375 0.525000
vt 0.746875 0.525000
vt 0.709375 0.487500
vt 0.709375 0.525000
vt 0.709375 0.487500
vt 0.746875 0.487500
vt 0.709375 0.525000
vt 0.746875 0.525000
vt 0.709375 0.487500
vt 0.709375 0.525000
vt 0.709375 0.487500
vt 0.746875 0.487500
vt 0.709375 0.525000
vt 0.746875 0.525000
vt 0.709375 0.487500
vt 0.709375 0.525000
vt 0.709375 0.487500
vt 0.746875 0.487500
vt 0.709375 0.525000
vt 0.746875 0.525000
vt 0.709375 0.487500
vt 0.709375 0.525000
vt 0.709375 0.487500
vt 0.746875 0.487500
vt 0.709375 0.525000
vt 0.746875 0.525000
vt 0.709375 0.487500
vt 0.709375 0.525000
vt 0.709375 0.487500
vt 0.746875 0.487500
vt 0.709375 0.525000
vt 0.746875 0.525000
vt 0.709375 0.487500
vt 0.709375 0.525000
vt 0.709375 0.487500
vt 0.746875 0.487500
vt 0.709375 0.525000
vt 0.746875 0.525000
vt 0.709375 0.487500
vt 0.709375 0.525000
vt 0.709375 0.487500
vt 0.746875 0.487500
vt 0.709375 0.525000
vt 0.746875 0.525000
vt 0.709375 0.487500
vt 0.709375 0.525000
vt 0.709375 0.487500
vt 0.746875 0.487500
vt 0.709375 0.525000
vt 0.746875 0.525000
vt 0.709375 0.487500
vt 0.709375 0.525000
vt 0.709375 0.487500
vt 0.746875 0.487500
vt 0.709375 0.525000
vt 0.746875 0.525000
vt 0.709375 0.487500
vt 0.709375 0.525000
vt 0.709375 0.487500
vt 0.746875 0.487500
vt 0.709375 0.525000
vt 0.746875 0.525000
vt 0.709375 0.487500
vt 0.709375 0.525000
vt 0.709375 0.487500
vt 0.746875 0.487500
vt 0.709375 0.525000
vt 0.746875 0.525000
vt 0.709375 0.487500
vt 0.709375 0.525000
vt 0.709375 0.487500
vt 0.746875 0.487500
vt 0.709375 0.525000
vt 0.746875 0.525000
vt 0.709375 0.487500
vt 0.709375 0.525000
vt 0.709375 0.487500
vt 0.746875 0.487500
vt 0.709375 0.525000
vt 0.746875 0.525000
vt 0.709375 0.487500
vt 0.709375 0.525000
vt 0.709375 0.487500
vt 0.746875 0.487500
vt 0.709375 0.525000
vt 0.746875 0.525000
vt 0.709375 0.487500
vt 0.709375 0.525000
vt 0.709375 0.487500
vt 0.746875 0.487500
vt 0.709375 0.525000
vt 0.746875 0.525000
vt 0.709375 0.487500
vt 0.709375 0.525000
vt 0.709375 0.487500
vt 0.746875 0.487500
vt 0.709375 0.525000
vt 0.746875 0.525000
vt 0.709375 0.487500
vt 0.709375 0.525000
vt 0.709375 0.487500
vt 0.746875 0.487500
vt 0.709375 0.525000
vt 0.746875 0.525000
vt 0.709375 0.487500
vt 0.709375 0.525000
vt 0.709375 0.487500
vt 0.746875 0.487500
vt 0.709375 0.525000
vt 0.746875 0.525000
vt 0.709375 0.487500
vt 0.709375 0.525000
vt 0.709375 0.487500
vt 0.746875 0.487500
vt 0.709375 0.525000
vt 0.746875 0.525000
vt 0.709375 0.487500
vt 0.709375 0.525000
vt 0.709375 0.487500
vt 0.746875 0.487500
vt 0.709375 0.525000
vt 0.746875 0.525000
vt 0.709375 0.487500
vt 0.709375 0.525000
vt 0.709375 0.487500
vt 0.746875 0.487500
vt 0.709375 0.525000
vt 0.746875 0.525000
vt 0.709375 0.487500
vt 0.709375 0.525000
vt 0.709375 0.487500
vt 0.746875 0.487500
vt 0.709375 0.525000
vt 0.746875 0.525000
vt 0.709375 0.487500
vt 0.709375 0.525000
vt 0.709375 0.487500
vt 0.746875 0.487500
vt 0.709375 0.525000
vt 0.746875 0.525000
vt 0.709375 0.487500
vt 0.709375 0.525000
vt 0.709375 0.487500
vt 0.746875 0.487500
vt 0.709375 0.525000
vt 0.746875 0.525000
vt 0.709375 0.487500
vt 0.709375 0.525000
vt 0.709375 0.487500
vt 0.746875 0.487500
vt 0.709375 0.525000
vt 0.746875 0.525000
vt 0.709375 0.487500
vt 0.709375 0.525000
vt 0.709375 0.487500
vt 0.746875 0.487500
vt 0.709375 0.525000
vt 0.746875 0.525000
vt 0.709375 0.487500
vt 0.709375 0.525000
vt 0.709375 0.487500
vt 0.746875 0.487500
vt 0.709375 0.525000
vt 0.746875 0.525000
vt 0.709375 0.487500
vt 0.709375 0.525000
vt 0.709375 0.487500
vt 0.746875 0.487500
vt 0.709375 0.525000
vt 0.746875 0.525000
vt 0.709375 0.487500
vt 0.709375 0.525000
vt 0.709375 0.487500
vt 0.746875 0.487500
vt 0.709375 0.525000
vt 0.746875 0.525000
vt 0.709375 0.487500
vt 0.709375 0.525000
vt 0.709375 0.487500
vt 0.746875 0.487500
vt 0.709375 0.525000
vt 0.746875 0.525000
vt 0.709375 0.487500
vt 0.709375 0.525000
vt 0.709375 0.487500
vt 0.746875 0.487500
vt 0.709375 0.525000
vt 0.746875 0.525000
vt 0.709375 0.487500
vt 0.709375 0.525000
vt 0.709375 0.487500
vt 0.746875 0.487500
vt 0.709375 0.525000
vt 0.746875 0.525000
vt 0.709375 0.487500
vt 0.709375 0.525000
vt 0.709375 0.487500
vt 0.746875 0.487500
vt 0.709375 0.525000
vt 0.746875 0.525000
vt 0.709375 0.487500
vt 0.709375 0.525000
vt 0.709375 0.487500
vt 0.746875 0.487500
vt 0.709375 0.525000
vt 0.746875 0.525000
vt 0.709375 0.487500
vt 0.709375 0.525000
vt 0.709375 0.487500
vt 0.746875 0.487500
vt 0.709375 0.525000
vt 0.746875 0.525000
vt 0.709375 0.487500
vt 0.709375 0.525000
vt 0.709375 0.487500
vt 0.746875 0.487500
vt 0.709375 0.525000
vt 0.746875 0.525000
vt 0.709375 0.487500
vt 0.709375 0.525000
vt 0.709375 0.487500
vt 0.746875 0.487500
vt 0.709375 0.525000
vt 0.746875 0.525000
vt 0.709375 0.487500
vt 0.709375 0.525000
vt 0.709375 0.487500
vt 0.746875 0.487500
vt 0.709375 0.525000
vt 0.746875 0.525000
vt 0.709375 0.487500
vt 0.709375 0.525000
vt 0.709375 0.487500
vt 0.746875 0.487500
vt 0.709375 0.525000
vt 0.746875 0.525000
vt 0.709375 0.487500
vt 0.709375 0.525000
vt 0.709375 0.487500
vt 0.746875 0.487500
vt 0.709375 0.525000
vt 0.746875 0.525000
vt 0.709375 0.487500
vt 0.709375 0.525000
vt 0.709375 0.487500
vt 0.746875 0.487500
vt 0.709375 0.525000
vt 0.746875 0.525000
vt 0.709375 0.487500
vt 0.709375 0.525000
vt 0.709375 0.487500
vt 0.746875 0.487500
vt 0.709375 0.525000
vt 0.746875 0.525000
vt 0.709375 0.487500
vt 0.709375 0.525000
vt 0.709375 0.487500
vt 0.746875 0.487500
vt 0.709375 0.525000
vt 0.746875 0.525000
vt 0.709375 0.487500
vt 0.709375 0.525000
vt 0.709375 0.487500
vt 0.746875 0.487500
vt 0.709375 0.525000
vt 0.746875 0.525000
vt 0.709375 0.487500
vt 0.709375 0.525000
vt 0.709375 0.487500
vt 0.746875 0.487500
vt 0.709375 0.525000
vt 0.746875 0.525000
vt 0.746875 0.487500
vt 0.709375 0.525000
vt 0.746875 0.525000
vt 0.746875 0.487500
vt 0.709375 0.525000
vt 0.746875 0.525000
vt 0.746875 0.487500
vt 0.709375 0.525000
vt 0.746875 0.525000
vt 0.746875 0.487500
vt 0.709375 0.525000
vt 0.746875 0.525000
vt 0.746875 0.487500
vt 0.709375 0.525000
vt 0.746875 0.525000
vt 0.746875 0.487500
vt 0.709375 0.525000
vt 0.746875 0.525000
vt 0.746875 0.487500
vt 0.709375 0.525000
vt 0.746875 0.525000
vt 0.746875 0.487500
vt 0.709375 0.525000
vt 0.746875 0.525000
vt 0.746875 0.487500
vt 0.709375 0.525000
vt 0.746875 0.525000
vt 0.746875 0.487500
vt 0.709375 0.525000
vt 0.746875 0.525000
vt 0.746875 0.487500
vt 0.709375 0.525000
vt 0.746875 0.525000
vt 0.746875 0.487500
vt 0.709375 0.525000
vt 0.746875 0.525000
vt 0.746875 0.487500
vt 0.709375 0.525000
vt 0.746875 0.525000
vt 0.746875 0.487500
vt 0.709375 0.525000
vt 0.746875 0.525000
vt 0.746875 0.487500
vt 0.709375 0.525000
vt 0.746875 0.525000
vt 0.746875 0.487500
vt 0.709375 0.525000
vt 0.746875 0.525000
vt 0.746875 0.487500
vt 0.709375 0.525000
vt 0.746875 0.525000
vt 0.746875 0.487500
vt 0.709375 0.525000
vt 0.746875 0.525000
vt 0.746875 0.487500
vt 0.709375 0.525000
vt 0.746875 0.525000
vt 0.746875 0.487500
vt 0.709375 0.525000
vt 0.746875 0.525000
vt 0.746875 0.487500
vt 0.709375 0.525000
vt 0.746875 0.525000
vt 0.746875 0.487500
vt 0.709375 0.525000
vt 0.746875 0.525000
vt 0.746875 0.487500
vt 0.709375 0.525000
vt 0.746875 0.525000
vt 0.746875 0.487500
vt 0.709375 0.525000
vt 0.746875 0.525000
vt 0.746875 0.487500
vt 0.709375 0.525000
vt 0.746875 0.525000
vt 0.746875 0.487500
vt 0.709375 0.525000
vt 0.746875 0.525000
vt 0.746875 0.487500
vt 0.709375 0.525000
vt 0.746875 0.525000
vt 0.746875 0.487500
vt 0.709375 0.525000
vt 0.746875 0.525000
vt 0.746875 0.487500
vt 0.709375 0.525000
vt 0.746875 0.525000
vt 0.746875 0.487500
vt 0.709375 0.525000
vt 0.746875 0.525000
vt 0.746875 0.487500
vt 0.709375 0.525000
vt 0.746875 0.525000
vt 0.746875 0.487500
vt 0.709375 0.525000
vt 0.746875 0.525000
vt 0.746875 0.487500
vt 0.709375 0.525000
vt 0.746875 0.525000
vt 0.746875 0.487500
vt 0.709375 0.525000
vt 0.746875 0.525000
vt 0.746875 0.487500
vt 0.709375 0.525000
vt 0.746875 0.525000
vt 0.746875 0.487500
vt 0.709375 0.525000
vt 0.746875 0.525000
vt 0.746875 0.487500
vt 0.709375 0.525000
vt 0.746875 0.525000
vt 0.746875 0.487500
vt 0.709375 0.525000
vt 0.746875 0.525000
vt 0.746875 0.487500
vt 0.709375 0.525000
vt 0.746875 0.525000
vt 0.746875 0.487500
vt 0.709375 0.525000
vt 0.746875 0.525000
vt 0.746875 0.487500
vt 0.709375 0.525000
vt 0.746875 0.525000
vt 0.746875 0.487500
vt 0.709375 0.525000
vt 0.746875 0.525000
vt 0.746875 0.487500
vt 0.709375 0.525000
vt 0.746875 0.525000
vt 0.746875 0.487500
vt 0.709375 0.525000
vt 0.746875 0.525000
vt 0.746875 0.487500
vt 0.709375 0.525000
vt 0.746875 0.525000
vt 0.746875 0.487500
vt 0.709375 0.525000
vt 0.746875 0.525000
vt 0.746875 0.487500
vt 0.709375 0.525000
vt 0.746875 0.525000
vt 0.746875 0.487500
vt 0.709375 0.525000
vt 0.746875 0.525000
vt 0.746875 0.487500
vt 0.709375 0.525000
vt 0.746875 0.525000
vt 0.746875 0.487500
vt 0.709375 0.525000
vt 0.746875 0.525000
vt 0.746875 0.487500
vt 0.709375 0.525000
vt 0.746875 0.525000
vt 0.746875 0.487500
vt 0.709375 0.525000
vt 0.746875 0.525000
vt 0.746875 0.487500
vt 0.709375 0.525000
vt 0.746875 0.525000
vt 0.746875 0.487500
vt 0.709375 0.525000
vt 0.746875 0.525000
vt 0.746875 0.487500
vt 0.709375 0.525000
vt 0.746875 0.525000
vt 0.746875 0.487500
vt 0.709375 0.525000
vt 0.746875 0.525000
vt 0.746875 0.487500
vt 0.709375 0.525000
vt 0.746875 0.525000
vt 0.746875 0.487500
vt 0.709375 0.525000
vt 0.746875 0.525000
vt 0.746875 0.487500
vt 0.709375 0.525000
vt 0.746875 0.525000
vt 0.746875 0.487500
vt 0.709375 0.525000
vt 0.746875 0.525000
vt 0.746875 0.487500
vt 0.709375 0.525000
vt 0.746875 0.525000
vt 0.746875 0.487500
vt 0.709375 0.525000
vt 0.746875 0.525000
vt 0.746875 0.487500
vt 0.709375 0.525000
vt 0.746875 0.525000
vt 0.746875 0.487500
vt 0.454785 0.236605
vt 0.412903 0.203260
vt 0.433288 0.236920
vt 0.454785 0.236605
vt 0.438545 0.200787
vt 0.412903 0.203260
vt 0.433288 0.236920
vt 0.389020 0.212519
vt 0.413291 0.243528
vt 0.433288 0.236920
vt 0.412903 0.203260
vt 0.389020 0.212519
vt 0.413291 0.243528
vt 0.368629 0.227854
vt 0.396451 0.255762
vt 0.413291 0.243528
vt 0.389020 0.212519
vt 0.368629 0.227854
vt 0.396451 0.255762
vt 0.353215 0.248135
vt 0.384191 0.272543
vt 0.396451 0.255762
vt 0.368629 0.227854
vt 0.353215 0.248135
vt 0.384191 0.272543
vt 0.343918 0.271884
vt 0.377596 0.292456
vt 0.384191 0.272543
vt 0.353215 0.248135
vt 0.343918 0.271884
vt 0.377596 0.292456
vt 0.341450 0.297379
vt 0.377337 0.313855
vt 0.377596 0.292456
vt 0.343918 0.271884
vt 0.341450 0.297379
vt 0.377337 0.313855
vt 0.341450 0.460746
vt 0.377337 0.444270
vt 0.377337 0.313855
vt 0.341450 0.297379
vt 0.341450 0.460746
vt 0.377337 0.444270
vt 0.343918 0.486241
vt 0.377596 0.465669
vt 0.377337 0.444270
vt 0.341450 0.460746
vt 0.343918 0.486241
vt 0.377596 0.465669
vt 0.353215 0.509990
vt 0.384191 0.485582
vt 0.377596 0.465669
vt 0.343918 0.486241
vt 0.353215 0.509990
vt 0.384191 0.485582
vt 0.368629 0.530271
vt 0.396451 0.502363
vt 0.384191 0.485582
vt 0.353215 0.509990
vt 0.368629 0.530271
vt 0.396451 0.502363
vt 0.389020 0.545606
vt 0.413291 0.514597
vt 0.396451 0.502363
vt 0.368629 0.530271
vt 0.389020 0.545606
vt 0.413291 0.514597
vt 0.412903 0.554865
vt 0.433288 0.521205
vt 0.413291 0.514597
vt 0.389020 0.545606
vt 0.412903 0.554865
vt 0.433288 0.521205
vt 0.438545 0.557338
vt 0.454785 0.521520
vt 0.433288 0.521205
vt 0.412903 0.554865
vt 0.438545 0.557338
vt 0.454785 0.521520
vt 0.600205 0.557338
vt 0.583965 0.521520
vt 0.454785 0.521520
vt 0.438545 0.557338
vt 0.600205 0.557338
vt 0.583965 0.521520
vt 0.625847 0.554865
vt 0.605462 0.521205
vt 0.583965 0.521520
vt 0.600205 0.557338
vt 0.625847 0.554865
vt 0.605462 0.521205
vt 0.649730 0.545606
vt 0.625459 0.514597
vt 0.605462 0.521205
vt 0.625847 0.554865
vt 0.649730 0.545606
vt 0.625459 0.514597
vt 0.670121 0.530271
vt 0.642299 0.502363
vt 0.625459 0.514597
vt 0.649730 0.545606
vt 0.670121 0.530271
vt 0.642299 0.502363
vt 0.685535 0.509990
vt 0.654559 0.485582
vt 0.642299 0.502363
vt 0.670121 0.530271
vt 0.685535 0.509990
vt 0.654559 0.485582
vt 0.694832 0.486241
vt 0.661154 0.465669
vt 0.654559 0.485582
vt 0.685535 0.509990
vt 0.694832 0.486241
vt 0.661154 0.465669
vt 0.697300 0.460746
vt 0.661413 0.444270
vt 0.661154 0.465669
vt 0.694832 0.486241
vt 0.697300 0.460746
vt 0.661413 0.444270
vt 0.697300 0.297379
vt 0.661413 0.313855
vt 0.661413 0.444270
vt 0.697300 0.460746
vt 0.697300 0.297379
vt 0.661413 0.313855
vt 0.694832 0.271884
vt 0.661154 0.292456
vt 0.661413 0.313855
vt 0.697300 0.297379
vt 0.694832 0.271884
vt 0.661154 0.292456
vt 0.685535 0.248135
vt 0.654559 0.272543
vt 0.661154 0.292456
vt 0.694832 0.271884
vt 0.685535 0.248135
vt 0.654559 0.272543
vt 0.670121 0.227854
vt 0.642299 0.255762
vt 0.654559 0.272543
vt 0.685535 0.248135
vt 0.670121 0.227854
vt 0.642299 0.255762
vt 0.649730 0.212519
vt 0.625459 0.243528
vt 0.642299 0.255762
vt 0.670121 0.227854
vt 0.649730 0.212519
vt 0.625459 0.243528
vt 0.625847 0.203260
vt 0.605462 0.236920
vt 0.625459 0.243528
vt 0.649730 0.212519
vt 0.625847 0.203260
vt 0.605462 0.236920
vt 0.600205 0.200787
vt 0.583965 0.236605
vt 0.605462 0.236920
vt 0.625847 0.203260
vt 0.600205 0.200787
vt 0.583965 0.236605
vt 0.438545 0.200787
vt 0.454785 0.236605
vt 0.583965 0.236605
vt 0.600205 0.200787
vt 0.438545 0.200787
vt 0.438545 0.200787
vt 0.403637 0.187961
vt 0.412903 0.203260
vt 0.438545 0.200787
vt 0.431164 0.184506
vt 0.403637 0.187961
vt 0.412903 0.203260
vt 0.377988 0.198423
vt 0.389020 0.212519
vt 0.412903 0.203260
vt 0.403637 0.187961
vt 0.377988 0.198423
vt 0.389020 0.212519
vt 0.355982 0.215169
vt 0.368629 0.227854
vt 0.389020 0.212519
vt 0.377988 0.198423
vt 0.355982 0.215169
vt 0.368629 0.227854
vt 0.339135 0.237040
vt 0.353215 0.248135
vt 0.368629 0.227854
vt 0.355982 0.215169
vt 0.339135 0.237040
vt 0.353215 0.248135
vt 0.328610 0.262532
vt 0.343918 0.271884
vt 0.353215 0.248135
vt 0.339135 0.237040
vt 0.328610 0.262532
vt 0.343918 0.271884
vt 0.325137 0.289891
vt 0.341450 0.297379
vt 0.343918 0.271884
vt 0.328610 0.262532
vt 0.325137 0.289891
vt 0.341450 0.297379
vt 0.325137 0.468234
vt 0.341450 0.460746
vt 0.341450 0.297379
vt 0.325137 0.289891
vt 0.325137 0.468234
vt 0.341450 0.460746
vt 0.328610 0.495593
vt 0.343918 0.486241
vt 0.341450 0.460746
vt 0.325137 0.468234
vt 0.328610 0.495593
vt 0.343918 0.486241
vt 0.339135 0.521085
vt 0.353215 0.509990
vt 0.343918 0.486241
vt 0.328610 0.495593
vt 0.339135 0.521085
vt 0.353215 0.509990
vt 0.355982 0.542956
vt 0.368629 0.530271
vt 0.353215 0.509990
vt 0.339135 0.521085
vt 0.355982 0.542956
vt 0.368629 0.530271
vt 0.377988 0.559702
vt 0.389020 0.545606
vt 0.368629 0.530271
vt 0.355982 0.542956
vt 0.377988 0.559702
vt 0.389020 0.545606
vt 0.403637 0.570164
vt 0.412903 0.554865
vt 0.389020 0.545606
vt 0.377988 0.559702
vt 0.403637 0.570164
vt 0.412903 0.554865
vt 0.431164 0.573619
vt 0.438545 0.557338
vt 0.412903 0.554865
vt 0.403637 0.570164
vt 0.431164 0.573619
vt 0.438545 0.557338
vt 0.607586 0.573619
vt 0.600205 0.557338
vt 0.438545 0.557338
vt 0.431164 0.573619
vt 0.607586 0.573619
vt 0.600205 0.557338
vt 0.635113 0.570164
vt 0.625847 0.554865
vt 0.600205 0.557338
vt 0.607586 0.573619
vt 0.635113 0.570164
vt 0.625847 0.554865
vt 0.660762 0.559702
vt 0.649730 0.545606
vt 0.625847 0.554865
vt 0.635113 0.570164
vt 0.660762 0.559702
vt 0.649730 0.545606
vt 0.682768 0.542956
vt 0.670121 0.530271
vt 0.649730 0.545606
vt 0.660762 0.559702
vt 0.682768 0.542956
vt 0.670121 0.530271
vt 0.699615 0.521085
vt 0.685535 0.509990
vt 0.670121 0.530271
vt 0.682768 0.542956
vt 0.699615 0.521085
vt 0.685535 0.509990
vt 0.710140 0.495593
vt 0.694832 0.486241
vt 0.685535 0.509990
vt 0.699615 0.521085
vt 0.710140 0.495593
vt 0.694832 0.486241
vt 0.713613 0.468234
vt 0.697300 0.460746
vt 0.694832 0.486241
vt 0.710140 0.495593
vt 0.713613 0.468234
vt 0.697300 0.460746
vt 0.713613 0.289891
vt 0.697300 0.297379
vt 0.697300 0.460746
vt 0.713613 0.468234
vt 0.713613 0.289891
vt 0.697300 0.297379
vt 0.710140 0.262532
vt 0.694832 0.271884
vt 0.697300 0.297379
vt 0.713613 0.289891
vt 0.710140 0.262532
vt 0.694832 0.271884
vt 0.699615 0.237040
vt 0.685535 0.248135
vt 0.694832 0.271884
vt 0.710140 0.262532
vt 0.699615 0.237040
vt 0.685535 0.248135
vt 0.682768 0.215169
vt 0.670121 0.227854
vt 0.685535 0.248135
vt 0.699615 0.237040
vt 0.682768 0.215169
vt 0.670121 0.227854
vt 0.660762 0.198423
vt 0.649730 0.212519
vt 0.670121 0.227854
vt 0.682768 0.215169
vt 0.660762 0.198423
vt 0.649730 0.212519
vt 0.635113 0.187961
vt 0.625847 0.203260
vt 0.649730 0.212519
vt 0.660762 0.198423
vt 0.635113 0.187961
vt 0.625847 0.203260
vt 0.607586 0.184506
vt 0.600205 0.200787
vt 0.625847 0.203260
vt 0.635113 0.187961
vt 0.607586 0.184506
vt 0.600205 0.200787
vt 0.431164 0.184506
vt 0.438545 0.200787
vt 0.600205 0.200787
vt 0.607586 0.184506
vt 0.431164 0.184506
vt 0.519375 0.379062
vt 0.401784 0.184901
vt 0.429688 0.181250
vt 0.519375 0.379062
vt 0.375781 0.195604
vt 0.401784 0.184901
vt 0.519375 0.379062
vt 0.353453 0.212631
vt 0.375781 0.195604
vt 0.519375 0.379062
vt 0.336319 0.234821
vt 0.353453 0.212631
vt 0.519375 0.379062
vt 0.325549 0.260662
vt 0.336319 0.234821
vt 0.519375 0.379062
vt 0.321875 0.288393
vt 0.325549 0.260662
vt 0.519375 0.379062
vt 0.321875 0.469732
vt 0.321875 0.288393
vt 0.519375 0.379062
vt 0.325549 0.497463
vt 0.321875 0.469732
vt 0.519375 0.379062
vt 0.336319 0.523304
vt 0.325549 0.497463
vt 0.519375 0.379062
vt 0.353453 0.545494
vt 0.336319 0.523304
vt 0.519375 0.379062
vt 0.375781 0.562521
vt 0.353453 0.545494
vt 0.519375 0.379062
vt 0.401784 0.573224
vt 0.375781 0.562521
vt 0.519375 0.379062
vt 0.429688 0.576875
vt 0.401784 0.573224
vt 0.519375 0.379062
vt 0.609063 0.576875
vt 0.429688 0.576875
vt 0.519375 0.379062
vt 0.636966 0.573224
vt 0.609063 0.576875
vt 0.519375 0.379062
vt 0.662969 0.562521
vt 0.636966 0.573224
vt 0.519375 0.379062
vt 0.685297 0.545494
vt 0.662969 0.562521
vt 0.519375 0.379062
vt 0.702431 0.523304
vt 0.685297 0.545494
vt 0.519375 0.379062
vt 0.713201 0.497463
vt 0.702431 0.523304
vt 0.519375 0.379062
vt 0.716875 0.469732
vt 0.713201 0.497463
vt 0.519375 0.379062
vt 0.716875 0.288393
vt 0.716875 0.469732
vt 0.519375 0.379062
vt 0.713201 0.260662
vt 0.716875 0.288393
vt 0.519375 0.379062
vt 0.702431 0.234821
vt 0.713201 0.260662
vt 0.519375 0.379062
vt 0.685297 0.212631
vt 0.702431 0.234821
vt 0.519375 0.379062
vt 0.662969 0.195604
vt 0.685297 0.212631
vt 0.519375 0.379062
vt 0.636966 0.184901
vt 0.662969 0.195604
vt 0.519375 0.379062
vt 0.609063 0.181250
vt 0.636966 0.184901
vt 0.519375 0.379062
vt 0.429688 0.181250
vt 0.609063 0.181250
vn 0.000000 0.000000 -1.000000
vn 0.000000 0.000000 -1.000000
vn 0.000000 0.000000 -1.000000
vn 0.000000 0.000000 -1.000000
vn 0.000000 0.000000 -1.000000
vn 0.000000 0.000000 -1.000000
vn 0.000000 0.000000 -1.000000
vn 0.000000 0.000000 -1.000000
vn 0.000000 0.000000 -1.000000
vn 0.000000 0.000000 -1.000000
vn 0.000000 0.000000 -1.000000
vn 0.000000 0.000000 -1.000000
vn 0.000000 0.000000 -1.000000
vn 0.000000 0.000000 -1.000000
vn 0.000000 0.000000 -1.000000
vn 0.000000 0.000000 -1.000000
vn 0.000000 0.000000 -1.000000
vn -0.000000 0.000000 -1.000000
vn 0.000000 0.000000 -1.000000
vn 0.000000 0.000000 -1.000000
vn 0.000000 0.000000 -1.000000
vn 0.000000 0.000000 -1.000000
vn 0.000000 0.000000 -1.000000
vn 0.000000 0.000000 -1.000000
vn 0.000000 0.000000 -1.000000
vn 0.000000 0.000000 -1.000000
vn 0.000000 0.000000 -1.000000
vn 0.000000 0.000000 -1.000000
vn 0.000000 0.000000 -1.000000
vn 0.000000 0.000000 -1.000000
vn 0.000000 0.000000 -1.000000
vn 0.000000 0.000000 -1.000000
vn 0.000000 0.000000 -1.000000
vn 0.000000 0.000000 -1.000000
vn 0.000000 -0.000000 -1.000000
vn 0.000000 0.000000 -1.000000
vn 0.000000 0.000000 -1.000000
vn 0.000000 0.000000 -1.000000
vn 0.000000 0.000000 -1.000000
vn 0.000000 0.000000 -1.000000
vn 0.000000 0.000000 -1.000000
vn 0.000000 0.000000 -1.000000
vn 0.000000 0.000000 -1.000000
vn 0.000000 0.000000 -1.000000
vn 0.000000 0.000000 -1.000000
vn 0.000000 0.000000 -1.000000
vn 0.000000 0.000000 -1.000000
vn 0.000000 0.000000 -1.000000
vn 0.000000 0.000000 -1.000000
vn 0.000000 0.000000 -1.000000
vn 0.000000 0.000000 -1.000000
vn 0.000000 0.000000 -1.000000
vn 0.000000 0.000000 -1.000000
vn 0.000000 0.000000 -1.000000
vn 0.000000 0.000000 -1.000000
vn 0.000000 0.000000 -1.000000
vn 0.000000 0.000000 -1.000000
vn 0.000000 0.000000 -1.000000
vn 0.000000 0.000000 -1.000000
vn 0.000000 0.000000 -1.000000
vn 0.000000 0.000000 -1.000000
vn 0.000000 0.000000 -1.000000
vn 0.000000 0.000000 -1.000000
vn 0.000000 0.000000 -1.000000
vn -0.004908 0.999988 0.000000
vn -0.004908 0.999988 0.000000
vn -0.002047 0.999998 0.000000
vn -0.002047 0.999998 0.000000
vn 0.000912 1.000000 0.000000
vn 0.000912 1.000000 -0.000000
vn -0.049165 0.998791 0.000000
vn -0.049165 0.998791 0.000000
vn -0.098932 0.995094 0.000000
vn -0.098932 0.995094 0.000000
vn -0.122363 0.992485 0.000000
vn -0.122363 0.992485 0.000000
vn -0.185911 0.982567 0.000000
vn -0.185911 0.982567 0.000000
vn -0.275215 0.961383 0.000000
vn -0.275215 0.961383 0.000000
vn -0.397663 0.917532 0.000000
vn -0.397663 0.917532 0.000000
vn -0.794703 0.606999 0.000000
vn -0.794703 0.606999 0.000000
vn -0.999911 -0.013362 0.000000
vn -0.999911 -0.013362 0.000000
vn -0.999896 -0.014404 0.000000
vn -0.999896 -0.014404 0.000000
vn -0.999886 -0.015077 0.000000
vn -0.999886 -0.015077 0.000000
vn -0.999887 -0.015040 0.000000
vn -0.999887 -0.015040 0.000000
vn -0.999903 -0.013930 0.000000
vn -0.999903 -0.013930 0.000000
vn -0.999935 -0.011378 0.000000
vn -0.999935 -0.011378 0.000000
vn -0.999975 -0.007067 0.000000
vn -0.999975 -0.007067 0.000000
vn -0.999608 -0.027999 0.000000
vn -0.999608 -0.027999 0.000000
vn -0.997001 -0.077388 0.000000
vn -0.997001 -0.077388 0.000000
vn -0.992833 0.119512 0.000000
vn -0.992833 0.119512 0.000000
vn -0.998977 -0.045216 0.000000
vn -0.998977 -0.045216 0.000000
vn -0.999110 0.042188 0.000000
vn -0.999110 0.042188 0.000000
vn -0.999615 -0.027751 0.000000
vn -0.999615 -0.027751 0.000000
vn -0.996401 -0.084769 0.000000
vn -0.996401 -0.084769 0.000000
vn -0.999889 0.014905 0.000000
vn -0.999889 0.014905 0.000000
vn -0.999903 0.013903 0.000000
vn -0.999903 0.013903 0.000000
vn -0.998902 0.046842 0.000000
vn -0.998902 0.046842 0.000000
vn -0.591490 -0.806313 0.000000
vn -0.591490 -0.806313 0.000000
vn -0.287358 -0.957823 0.000000
vn -0.287358 -0.957823 0.000000
vn -0.263874 -0.964557 0.000000
vn -0.263874 -0.964557 0.000000
vn -0.146782 -0.989169 0.000000
vn -0.146782 -0.989169 0.000000
vn -0.149141 -0.988816 0.000000
vn -0.149141 -0.988816 0.000000
vn 0.005378 -0.999986 0.000000
vn 0.005378 -0.999986 0.000000
vn -0.066026 -0.997818 0.000000
vn -0.066026 -0.997818 0.000000
vn 0.068943 -0.997621 0.000000
vn 0.068943 -0.997621 0.000000
vn -0.002812 -0.999996 0.000000
vn -0.002812 -0.999996 0.000000
vn 0.125783 -0.992058 0.000000
vn 0.125783 -0.992058 0.000000
vn 0.020717 -0.999785 0.000000
vn 0.020717 -0.999785 0.000000
vn 0.186861 -0.982386 0.000000
vn 0.186861 -0.982386 0.000000
vn 0.211749 -0.977324 0.000000
vn 0.211749 -0.977324 0.000000
vn 0.312190 -0.950020 0.000000
vn 0.312190 -0.950020 0.000000
vn 0.570715 -0.821148 0.000000
vn 0.570715 -0.821148 0.000000
vn 0.999922 -0.012518 0.000000
vn 0.999922 -0.012518 0.000000
vn 0.999902 0.014034 0.000000
vn 0.999902 0.014034 -0.000000
vn 0.999888 0.014959 0.000000
vn 0.999888 0.014959 -0.000000
vn 0.999882 0.015335 0.000000
vn 0.999882 0.015335 -0.000000
vn 0.999890 0.014826 0.000000
vn 0.999890 0.014826 -0.000000
vn 0.999915 0.013009 0.000000
vn 0.999915 0.013009 -0.000000
vn 0.999956 0.009416 0.000000
vn 0.999956 0.009416 -0.000000
vn 0.999991 0.004247 0.000000
vn 0.999991 0.004247 -0.000000
vn 0.999999 -0.001536 0.000000
vn 0.999999 -0.001536 0.000000
vn 0.999975 -0.007033 0.000000
vn 0.999975 -0.007033 0.000000
vn 0.997694 -0.067867 0.000000
vn 0.997694 -0.067867 0.000000
vn 0.999125 -0.041822 0.000000
vn 0.999125 -0.041822 0.000000
vn 0.998034 0.062670 0.000000
vn 0.998034 0.062670 -0.000000
vn 0.999883 -0.015298 0.000000
vn 0.999883 -0.015298 0.000000
vn 0.999891 -0.014737 0.000000
vn 0.999891 -0.014737 0.000000
vn 0.999905 -0.013762 0.000000
vn 0.999905 -0.013762 0.000000
vn 0.992001 0.126228 0.000000
vn 0.992001 0.126228 -0.000000
vn 0.507709 0.861529 0.000000
vn 0.507709 0.861529 -0.000000
vn 0.269136 0.963102 0.000000
vn 0.269136 0.963102 -0.000000
vn 0.238548 0.971131 0.000000
vn 0.238548 0.971131 -0.000000
vn 0.065906 0.997826 0.000000
vn 0.065906 0.997826 -0.000000
vn 0.138610 0.990347 0.000000
vn 0.138610 0.990347 -0.000000
vn 0.000000 0.000000 1.000000
vn 0.000000 0.000000 1.000000
vn 0.000000 -0.000000 1.000000
vn 0.000000 0.000000 1.000000
vn 0.000000 0.000000 1.000000
vn 0.000000 0.000000 1.000000
vn 0.000000 0.000000 1.000000
vn 0.000000 0.000000 1.000000
vn 0.000000 0.000000 1.000000
vn 0.000000 0.000000 1.000000
vn 0.000000 0.000000 1.000000
vn 0.000000 0.000000 1.000000
vn 0.000000 0.000000 1.000000
vn 0.000000 0.000000 1.000000
vn 0.000000 0.000000 1.000000
vn 0.000000 0.000000 1.000000
vn 0.000000 0.000000 1.000000
vn 0.000000 0.000000 1.000000
vn 0.000000 0.000000 1.000000
vn 0.000000 0.000000 1.000000
vn 0.000000 0.000000 1.000000
vn 0.000000 0.000000 1.000000
vn 0.000000 0.000000 1.000000
vn 0.000000 0.000000 1.000000
vn 0.000000 0.000000 1.000000
vn 0.000000 0.000000 1.000000
vn 0.000000 0.000000 1.000000
vn 0.000000 0.000000 1.000000
vn 0.000000 0.000000 1.000000
vn 0.000000 0.000000 1.000000
vn 0.000000 0.000000 1.000000
vn 0.000000 0.000000 1.000000
vn 0.000000 0.000000 1.000000
vn 0.000000 0.000000 1.000000
vn 0.000000 0.000000 1.000000
vn 0.000000 0.000000 1.000000
vn 0.000000 0.000000 1.000000
vn 0.000000 0.000000 1.000000
vn 0.000000 0.000000 1.000000
vn 0.000000 0.000000 1.000000
vn 0.000000 0.000000 1.000000
vn 0.000000 0.000000 1.000000
vn 0.000000 0.000000 1.000000
vn 0.000000 0.000000 1.000000
vn 0.000000 0.000000 1.000000
vn 0.000000 0.000000 1.000000
vn 0.000000 0.000000 1.000000
vn 0.000000 0.000000 1.000000
vn 0.000000 0.000000 1.000000
vn 0.000000 0.000000 1.000000
vn -0.000000 0.000000 1.000000
vn 0.000000 0.000000 1.000000
vn 0.000000 0.000000 1.000000
vn 0.000000 0.000000 1.000000
vn 0.000000 0.000000 1.000000
vn 0.000000 0.000000 1.000000
vn 0.000000 0.000000 1.000000
vn 0.000000 0.000000 1.000000
vn 0.000000 0.000000 1.000000
vn 0.000000 0.000000 1.000000
vn 0.000000 0.000000 1.000000
vn 0.000000 0.000000 1.000000
vn 0.000000 0.000000 1.000000
vn 0.000000 0.000000 1.000000
vn 0.130526 -0.991445 0.000000
vn 0.130526 -0.991445 0.000000
vn 0.382683 -0.923880 0.000000
vn 0.382683 -0.923880 0.000000
vn 0.608761 -0.793353 0.000000
vn 0.608761 -0.793353 0.000000
vn 0.793353 -0.608761 0.000000
vn 0.793353 -0.608761 0.000000
vn 0.923880 -0.382683 0.000000
vn 0.923880 -0.382683 0.000000
vn 0.991445 -0.130526 0.000000
vn 0.991445 -0.130526 0.000000
vn 1.000000 -0.000000 0.000000
vn 1.000000 0.000000 0.000000
vn 0.991445 0.130526 0.000000
vn 0.991445 0.130526 0.000000
vn 0.923880 0.382683 0.000000
vn 0.923880 0.382683 0.000000
vn 0.793353 0.608761 0.000000
vn 0.793353 0.608761 0.000000
vn 0.608761 0.793353 0.000000
vn 0.608761 0.793353 0.000000
vn 0.382683 0.923880 0.000000
vn 0.382683 0.923880 0.000000
vn 0.130526 0.991445 0.000000
vn 0.130526 0.991445 0.000000
vn 0.000000 1.000000 0.000000
vn 0.000000 1.000000 0.000000
vn -0.130526 0.991445 0.000000
vn -0.130526 0.991445 0.000000
vn -0.382683 0.923880 0.000000
vn -0.382683 0.923880 0.000000
vn -0.608761 0.793353 0.000000
vn -0.608761 0.793353 0.000000
vn -0.793353 0.608761 0.000000
vn -0.793353 0.608761 0.000000
vn -0.923880 0.382683 0.000000
vn -0.923880 0.382683 0.000000
vn -0.991445 0.130526 0.000000
vn -0.991445 0.130526 0.000000
vn -1.000000 -0.000000 0.000000
vn -1.000000 0.000000 -0.000000
vn -0.991445 -0.130526 0.000000
vn -0.991445 -0.130526 -0.000000
vn -0.923880 -0.382683 0.000000
vn -0.923880 -0.382683 -0.000000
vn -0.793353 -0.608761 0.000000
vn -0.793353 -0.608761 -0.000000
vn -0.608761 -0.793353 0.000000
vn -0.608761 -0.793353 -0.000000
vn -0.382683 -0.923880 0.000000
vn -0.382683 -0.923880 -0.000000
vn -0.130526 -0.991445 0.000000
vn -0.130526 -0.991445 -0.000000
vn 0.000000 -1.000000 0.000000
vn 0.000000 -1.000000 0.000000
vn 0.087796 -0.666880 -0.739975
vn 0.063817 -0.657469 -0.750775
vn 0.250235 -0.604121 -0.756584
vn 0.234632 -0.601511 -0.763631
vn 0.391556 -0.510286 -0.765698
vn 0.386332 -0.510516 -0.768194
vn 0.507930 -0.389749 -0.768182
vn 0.513947 -0.388174 -0.764971
vn 0.595846 -0.246808 -0.764234
vn 0.612555 -0.238304 -0.753650
vn 0.651937 -0.085829 -0.753400
vn 0.677027 -0.065144 -0.733070
vn 0.676240 0.000000 -0.736681
vn 0.676240 0.000000 -0.736681
vn 0.668384 0.087994 -0.738593
vn 0.658830 0.063393 -0.749617
vn 0.605022 0.250608 -0.755741
vn 0.602358 0.234337 -0.763054
vn 0.510651 0.391837 -0.765310
vn 0.510933 0.385898 -0.768134
vn 0.389725 0.507899 -0.768214
vn 0.388330 0.513157 -0.765421
vn 0.246599 0.595342 -0.764694
vn 0.238436 0.611263 -0.754656
vn 0.085689 0.650870 -0.754338
vn 0.065536 0.675181 -0.734735
vn 0.000000 0.674662 -0.738127
vn 0.000000 0.674662 -0.738127
vn -0.087796 0.666880 -0.739975
vn -0.063817 0.657469 -0.750775
vn -0.250235 0.604121 -0.756584
vn -0.234632 0.601511 -0.763631
vn -0.391556 0.510286 -0.765698
vn -0.386332 0.510516 -0.768194
vn -0.507930 0.389749 -0.768182
vn -0.513947 0.388174 -0.764971
vn -0.595846 0.246808 -0.764234
vn -0.612555 0.238304 -0.753650
vn -0.651937 0.085829 -0.753400
vn -0.677027 0.065144 -0.733070
vn -0.676240 -0.000000 -0.736681
vn -0.676240 0.000000 -0.736681
vn -0.668384 -0.087994 -0.738593
vn -0.658830 -0.063393 -0.749617
vn -0.605022 -0.250608 -0.755741
vn -0.602358 -0.234337 -0.763054
vn -0.510651 -0.391837 -0.765310
vn -0.510933 -0.385898 -0.768134
vn -0.389725 -0.507899 -0.768214
vn -0.388330 -0.513157 -0.765421
vn -0.246599 -0.595342 -0.764694
vn -0.238436 -0.611263 -0.754656
vn -0.085689 -0.650870 -0.754338
vn -0.065536 -0.675181 -0.734735
vn 0.000000 -0.674662 -0.738127
vn 0.000000 -0.674662 -0.738127
vn 0.000000 0.000000 -1.000000
vn 0.000000 0.000000 -1.000000
vn 0.000000 0.000000 -1.000000
vn 0.000000 0.000000 -1.000000
vn 0.000000 0.000000 -1.000000
vn 0.000000 0.000000 -1.000000
vn 0.000000 0.000000 -1.000000
vn 0.000000 0.000000 -1.000000
vn 0.000000 0.000000 -1.000000
vn 0.000000 0.000000 -1.000000
vn 0.000000 0.000000 -1.000000
vn 0.000000 0.000000 -1.000000
vn 0.000000 0.000000 -1.000000
vn 0.000000 0.000000 -1.000000
vn 0.000000 0.000000 -1.000000
vn 0.000000 0.000000 -1.000000
vn 0.000000 0.000000 -1.000000
vn 0.000000 0.000000 -1.000000
vn 0.000000 0.000000 -1.000000
vn 0.000000 0.000000 -1.000000
vn -0.000000 0.000000 -1.000000
vn 0.000000 0.000000 -1.000000
vn 0.000000 0.000000 -1.000000
vn 0.000000 0.000000 -1.000000
vn 0.000000 0.000000 -1.000000
vn 0.000000 0.000000 -1.000000
vn 0.000000 0.000000 -1.000000
vn 0.000000 -0.000000 -1.000000
usemtl body
f 1/1/1 2/2/1 3/3/1
f 4/4/2 5/5/2 6/6/2
f 7/7/3 8/8/3 9/9/3
f 10/10/4 11/11/4 12/12/4
f 13/13/5 14/14/5 15/15/5
f 16/16/6 17/17/6 18/18/6
f 19/19/7 20/20/7 21/21/7
f 22/22/8 23/23/8 24/24/8
f 25/25/9 26/26/9 27/27/9
f 28/28/10 29/29/10 30/30/10
f 31/31/11 32/32/11 33/33/11
f 34/34/12 35/35/12 36/36/12
f 37/37/13 38/38/13 39/39/13
f 40/40/14 41/41/14 42/42/14
f 43/43/15 44/44/15 45/45/15
f 46/46/16 47/47/16 48/48/16
f 49/49/17 50/50/17 51/51/17
f 52/52/18 53/53/18 54/54/18
f 55/55/19 56/56/19 57/57/19
f 58/58/20 59/59/20 60/60/20
f 61/61/21 62/62/21 63/63/21
f 64/64/22 65/65/22 66/66/22
f 67/67/23 68/68/23 69/69/23
f 70/70/24 71/71/24 72/72/24
f 73/73/25 74/74/25 75/75/25
f 76/76/26 77/77/26 78/78/26
f 79/79/27 80/80/27 81/81/27
f 82/82/28 83/83/28 84/84/28
f 85/85/29 86/86/29 87/87/29
f 88/88/30 89/89/30 90/90/30
f 91/91/31 92/92/31 93/93/31
f 94/94/32 95/95/32 96/96/32
f 97/97/33 98/98/33 99/99/33
f 100/100/34 101/101/34 102/102/34
f 103/103/35 104/104/35 105/105/35
f 106/106/36 107/107/36 108/108/36
f 109/109/37 110/110/37 111/111/37
f 112/112/38 113/113/38 114/114/38
f 115/115/39 116/116/39 117/117/39
f 118/118/40 119/119/40 120/120/40
f 121/121/41 122/122/41 123/123/41
f 124/124/42 125/125/42 126/126/42
f 127/127/43 128/128/43 129/129/43
f 130/130/44 131/131/44 132/132/44
f 133/133/45 134/134/45 135/135/45
f 136/136/46 137/137/46 138/138/46
f 139/139/47 140/140/47 141/141/47
f 142/142/48 143/143/48 144/144/48
f 145/145/49 146/146/49 147/147/49
f 148/148/50 149/149/50 150/150/50
f 151/151/51 152/152/51 153/153/51
f 154/154/52 155/155/52 156/156/52
f 157/157/53 158/158/53 159/159/53
f 160/160/54 161/161/54 162/162/54
f 163/163/55 164/164/55 165/165/55
f 166/166/56 167/167/56 168/168/56
f 169/169/57 170/170/57 171/171/57
f 172/172/58 173/173/58 174/174/58
f 175/175/59 176/176/59 177/177/59
f 178/178/60 179/179/60 180/180/60
f 181/181/61 182/182/61 183/183/61
f 184/184/62 185/185/62 186/186/62
f 187/187/63 188/188/63 189/189/63
f 190/190/64 191/191/64 192/192/64
f 193/193/65 194/194/65 195/195/65
f 196/196/66 197/197/66 198/198/66
f 199/199/67 200/200/67 201/201/67
f 202/202/68 203/203/68 204/204/68
f 205/205/69 206/206/69 207/207/69
f 208/208/70 209/209/70 210/210/70
f 211/211/71 212/212/71 213/213/71
f 214/214/72 215/215/72 216/216/72
f 217/217/73 218/218/73 219/219/73
f 220/220/74 221/221/74 222/222/74
f 223/223/75 224/224/75 225/225/75
f 226/226/76 227/227/76 228/228/76
f 229/229/77 230/230/77 231/231/77
f 232/232/78 233/233/78 234/234/78
f 235/235/79 236/236/79 237/237/79
f 238/238/80 239/239/80 240/240/80
f 241/241/81 242/242/81 243/243/81
f 244/244/82 245/245/82 246/246/82
f 247/247/83 248/248/83 249/249/83
f 250/250/84 251/251/84 252/252/84
f 253/253/85 254/254/85 255/255/85
f 256/256/86 257/257/86 258/258/86
f 259/259/87 260/260/87 261/261/87
f 262/262/88 263/263/88 264/264/88
f 265/265/89 266/266/89 267/267/89
f 268/268/90 269/269/90 270/270/90
f 271/271/91 272/272/91 273/273/91
f 274/274/92 275/275/92 276/276/92
f 277/277/93 278/278/93 279/279/93
f 280/280/94 281/281/94 282/282/94
f 283/283/95 284/284/95 285/285/95
f 286/286/96 287/287/96 288/288/96
f 289/289/97 290/290/97 291/291/97
f 292/292/98 293/293/98 294/294/98
f 295/295/99 296/296/99 297/297/99
f 298/298/100 299/299/100 300/300/100
f 301/301/101 302/302/101 303/303/101
f 304/304/102 305/305/102 306/306/102
f 307/307/103 308/308/103 309/309/103
f 310/310/104 311/311/104 312/312/104
f 313/313/105 314/314/105 315/315/105
f 316/316/106 317/317/106 318/318/106
f 319/319/107 320/320/107 321/321/107
f 322/322/108 323/323/108 324/324/108
f 325/325/109 326/326/109 327/327/109
f 328/328/110 329/329/110 330/330/110
f 331/331/111 332/332/111 333/333/111
f 334/334/112 335/335/112 336/336/112
f 337/337/113 338/338/113 339/339/113
f 340/340/114 341/341/114 342/342/114
f 343/343/115 344/344/115 345/345/115
f 346/346/116 347/347/116 348/348/116
f 349/349/117 350/350/117 351/351/117
f 352/352/118 353/353/118 354/354/118
f 355/355/119 356/356/119 357/357/119
f 358/358/120 359/359/120 360/360/120
f 361/361/121 362/362/121 363/363/121
f 364/364/122 365/365/122 366/366/122
f 367/367/123 368/368/123 369/369/123
f 370/370/124 371/371/124 372/372/124
f 373/373/125 374/374/125 375/375/125
f 376/376/126 377/377/126 378/378/126
f 379/379/127 380/380/127 381/381/127
f 382/382/128 383/383/128 384/384/128
f 385/385/129 386/386/129 387/387/129
f 388/388/130 389/389/130 390/390/130
f 391/391/131 392/392/131 393/393/131
f 394/394/132 395/395/132 396/396/132
f 397/397/133 398/398/133 399/399/133
f 400/400/134 401/401/134 402/402/134
f 403/403/135 404/404/135 405/405/135
f 406/406/136 407/407/136 408/408/136
f 409/409/137 410/410/137 411/411/137
f 412/412/138 413/413/138 414/414/138
f 415/415/139 416/416/139 417/417/139
f 418/418/140 419/419/140 420/420/140
f 421/421/141 422/422/141 423/423/141
f 424/424/142 425/425/142 426/426/142
f 427/427/143 428/428/143 429/429/143
f 430/430/144 431/431/144 432/432/144
f 433/433/145 434/434/145 435/435/145
f 436/436/146 437/437/146 438/438/146
f 439/439/147 440/440/147 441/441/147
f 442/442/148 443/443/148 444/444/148
f 445/445/149 446/446/149 447/447/149
f 448/448/150 449/449/150 450/450/150
f 451/451/151 452/452/151 453/453/151
f 454/454/152 455/455/152 456/456/152
f 457/457/153 458/458/153 459/459/153
f 460/460/154 461/461/154 462/462/154
f 463/463/155 464/464/155 465/465/155
f 466/466/156 467/467/156 468/468/156
f 469/469/157 470/470/157 471/471/157
f 472/472/158 473/473/158 474/474/158
f 475/475/159 476/476/159 477/477/159
f 478/478/160 479/479/160 480/480/160
f 481/481/161 482/482/161 483/483/161
f 484/484/162 485/485/162 486/486/162
f 487/487/163 488/488/163 489/489/163
f 490/490/164 491/491/164 492/492/164
f 493/493/165 494/494/165 495/495/165
f 496/496/166 497/497/166 498/498/166
f 499/499/167 500/500/167 501/501/167
f 502/502/168 503/503/168 504/504/168
f 505/505/169 506/506/169 507/507/169
f 508/508/170 509/509/170 510/510/170
f 511/511/171 512/512/171 513/513/171
f 514/514/172 515/515/172 516/516/172
f 517/517/173 518/518/173 519/519/173
f 520/520/174 521/521/174 522/522/174
f 523/523/175 524/524/175 525/525/175
f 526/526/176 527/527/176 528/528/176
f 529/529/177 530/530/177 531/531/177
f 532/532/178 533/533/178 534/534/178
f 535/535/179 536/536/179 537/537/179
f 538/538/180 539/539/180 540/540/180
f 541/541/181 542/542/181 543/543/181
f 544/544/182 545/545/182 546/546/182
f 547/547/183 548/548/183 549/549/183
f 550/550/184 551/551/184 552/552/184
f 553/553/185 554/554/185 555/555/185
f 556/556/186 557/557/186 558/558/186
f 559/559/187 560/560/187 561/561/187
f 562/562/188 563/563/188 564/564/188
f 565/565/189 566/566/189 567/567/189
f 568/568/190 569/569/190 570/570/190
f 571/571/191 572/572/191 573/573/191
f 574/574/192 575/575/192 576/576/192
f 577/577/193 578/578/193 579/579/193
f 580/580/194 581/581/194 582/582/194
f 583/583/195 584/584/195 585/585/195
f 586/586/196 587/587/196 588/588/196
f 589/589/197 590/590/197 591/591/197
f 592/592/198 593/593/198 594/594/198
f 595/595/199 596/596/199 597/597/199
f 598/598/200 599/599/200 600/600/200
f 601/601/201 602/602/201 603/603/201
f 604/604/202 605/605/202 606/606/202
f 607/607/203 608/608/203 609/609/203
f 610/610/204 611/611/204 612/612/204
f 613/613/205 614/614/205 615/615/205
f 616/616/206 617/617/206 618/618/206
f 619/619/207 620/620/207 621/621/207
f 622/622/208 623/623/208 624/624/208
f 625/625/209 626/626/209 627/627/209
f 628/628/210 629/629/210 630/630/210
f 631/631/211 632/632/211 633/633/211
f 634/634/212 635/635/212 636/636/212
f 637/637/213 638/638/213 639/639/213
f 640/640/214 641/641/214 642/642/214
f 643/643/215 644/644/215 645/645/215
f 646/646/216 647/647/216 648/648/216
f 649/649/217 650/650/217 651/651/217
f 652/652/218 653/653/218 654/654/218
f 655/655/219 656/656/219 657/657/219
f 658/658/220 659/659/220 660/660/220
f 661/661/221 662/662/221 663/663/221
f 664/664/222 665/665/222 666/666/222
f 667/667/223 668/668/223 669/669/223
f 670/670/224 671/671/224 672/672/224
f 673/673/225 674/674/225 675/675/225
f 676/676/226 677/677/226 678/678/226
f 679/679/227 680/680/227 681/681/227
f 682/682/228 683/683/228 684/684/228
f 685/685/229 686/686/229 687/687/229
f 688/688/230 689/689/230 690/690/230
f 691/691/231 692/692/231 693/693/231
f 694/694/232 695/695/232 696/696/232
f 697/697/233 698/698/233 699/699/233
f 700/700/234 701/701/234 702/702/234
f 703/703/235 704/704/235 705/705/235
f 706/706/236 707/707/236 708/708/236
f 709/709/237 710/710/237 711/711/237
f 712/712/238 713/713/238 714/714/238
f 715/715/239 716/716/239 717/717/239
f 718/718/240 719/719/240 720/720/240
f 721/721/241 722/722/241 723/723/241
f 724/724/242 725/725/242 726/726/242
f 727/727/243 728/728/243 729/729/243
f 730/730/244 731/731/244 732/732/244
f 733/733/245 734/734/245 735/735/245
f 736/736/246 737/737/246 738/738/246
f 739/739/247 740/740/247 741/741/247
f 742/742/248 743/743/248 744/744/248
f 745/745/249 746/746/249 747/747/249
f 748/748/250 749/749/250 750/750/250
f 751/751/251 752/752/251 753/753/251
f 754/754/252 755/755/252 756/756/252
f 757/757/253 758/758/253 759/759/253
f 760/760/254 761/761/254 762/762/254
f 763/763/255 764/764/255 765/765/255
f 766/766/256 767/767/256 768/768/256
f 769/769/257 770/770/257 771/771/257
f 772/772/258 773/773/258 774/774/258
f 775/775/259 776/776/259 777/777/259
f 778/778/260 779/779/260 780/780/260
f 781/781/261 782/782/261 783/783/261
f 784/784/262 785/785/262 786/786/262
f 787/787/263 788/788/263 789/789/263
f 790/790/264 791/791/264 792/792/264
f 793/793/265 794/794/265 795/795/265
f 796/796/266 797/797/266 798/798/266
f 799/799/267 800/800/267 801/801/267
f 802/802/268 803/803/268 804/804/268
f 805/805/269 806/806/269 807/807/269
f 808/808/270 809/809/270 810/810/270
f 811/811/271 812/812/271 813/813/271
f 814/814/272 815/815/272 816/816/272
f 817/817/273 818/818/273 819/819/273
f 820/820/274 821/821/274 822/822/274
f 823/823/275 824/824/275 825/825/275
f 826/826/276 827/827/276 828/828/276
f 829/829/277 830/830/277 831/831/277
f 832/832/278 833/833/278 834/834/278
f 835/835/279 836/836/279 837/837/279
f 838/838/280 839/839/280 840/840/280
f 841/841/281 842/842/281 843/843/281
f 844/844/282 845/845/282 846/846/282
f 847/847/283 848/848/283 849/849/283
f 850/850/284 851/851/284 852/852/284
f 853/853/285 854/854/285 855/855/285
f 856/856/286 857/857/286 858/858/286
f 859/859/287 860/860/287 861/861/287
f 862/862/288 863/863/288 864/864/288
f 865/865/289 866/866/289 867/867/289
f 868/868/290 869/869/290 870/870/290
f 871/871/291 872/872/291 873/873/291
f 874/874/292 875/875/292 876/876/292
f 877/877/293 878/878/293 879/879/293
f 880/880/294 881/881/294 882/882/294
f 883/883/295 884/884/295 885/885/295
f 886/886/296 887/887/296 888/888/296
f 889/889/297 890/890/297 891/891/297
f 892/892/298 893/893/298 894/894/298
f 895/895/299 896/896/299 897/897/299
f 898/898/300 899/899/300 900/900/300
f 901/901/301 902/902/301 903/903/301
f 904/904/302 905/905/302 906/906/302
f 907/907/303 908/908/303 909/909/303
f 910/910/304 911/911/304 912/912/304
f 913/913/305 914/914/305 915/915/305
f 916/916/306 917/917/306 918/918/306
f 919/919/307 920/920/307 921/921/307
f 922/922/308 923/923/308 924/924/308
f 925/925/309 926/926/309 927/927/309
f 928/928/310 929/929/310 930/930/310
f 931/931/311 932/932/311 933/933/311
f 934/934/312 935/935/312 936/936/312
f 937/937/313 938/938/313 939/939/313
f 940/940/314 941/941/314 942/942/314
f 943/943/315 944/944/315 945/945/315
f 946/946/316 947/947/316 948/948/316
f 949/949/317 950/950/317 951/951/317
f 952/952/318 953/953/318 954/954/318
f 955/955/319 956/956/319 957/957/319
f 958/958/320 959/959/320 960/960/320
f 961/961/321 962/962/321 963/963/321
f 964/964/322 965/965/322 966/966/322
f 967/967/323 968/968/323 969/969/323
f 970/970/324 971/971/324 972/972/324
f 973/973/325 974/974/325 975/975/325
f 976/976/326 977/977/326 978/978/326
f 979/979/327 980/980/327 981/981/327
f 982/982/328 983/983/328 984/984/328
f 985/985/329 986/986/329 987/987/329
f 988/988/330 989/989/330 990/990/330
f 991/991/331 992/992/331 993/993/331
f 994/994/332 995/995/332 996/996/332
f 997/997/333 998/998/333 999/999/333
f 1000/1000/334 1001/1001/334 1002/1002/334
f 1003/1003/335 1004/1004/335 1005/1005/335
f 1006/1006/336 1007/1007/336 1008/1008/336
f 1009/1009/337 1010/1010/337 1011/1011/337
f 1012/1012/338 1013/1013/338 1014/1014/338
f 1015/1015/339 1016/1016/339 1017/1017/339
f 1018/1018/340 1019/1019/340 1020/1020/340
f 1021/1021/341 1022/1022/341 1023/1023/341
f 1024/1024/342 1025/1025/342 1026/1026/342
f 1027/1027/343 1028/1028/343 1029/1029/343
f 1030/1030/344 1031/1031/344 1032/1032/344
f 1033/1033/345 1034/1034/345 1035/1035/345
f 1036/1036/346 1037/1037/346 1038/1038/346
f 1039/1039/347 1040/1040/347 1041/1041/347
f 1042/1042/348 1043/1043/348 1044/1044/348
f 1045/1045/349 1046/1046/349 1047/1047/349
f 1048/1048/350 1049/1049/350 1050/1050/350
f 1051/1051/351 1052/1052/351 1053/1053/351
f 1054/1054/352 1055/1055/352 1056/1056/352
f 1057/1057/353 1058/1058/353 1059/1059/353
f 1060/1060/354 1061/1061/354 1062/1062/354
f 1063/1063/355 1064/1064/355 1065/1065/355
f 1066/1066/356 1067/1067/356 1068/1068/356
f 1069/1069/357 1070/1070/357 1071/1071/357
f 1072/1072/358 1073/1073/358 1074/1074/358
f 1075/1075/359 1076/1076/359 1077/1077/359
f 1078/1078/360 1079/1079/360 1080/1080/360
f 1081/1081/361 1082/1082/361 1083/1083/361
f 1084/1084/362 1085/1085/362 1086/1086/362
f 1087/1087/363 1088/1088/363 1089/1089/363
f 1090/1090/364 1091/1091/364 1092/1092/364
f 1093/1093/365 1094/1094/365 1095/1095/365
f 1096/1096/366 1097/1097/366 1098/1098/366
f 1099/1099/367 1100/1100/367 1101/1101/367
f 1102/1102/368 1103/1103/368 1104/1104/368
f 1105/1105/369 1106/1106/369 1107/1107/369
f 1108/1108/370 1109/1109/370 1110/1110/370
f 1111/1111/371 1112/1112/371 1113/1113/371
f 1114/1114/372 1115/1115/372 1116/1116/372
f 1117/1117/373 1118/1118/373 1119/1119/373
f 1120/1120/374 1121/1121/374 1122/1122/374
f 1123/1123/375 1124/1124/375 1125/1125/375
f 1126/1126/376 1127/1127/376 1128/1128/376
f 1129/1129/377 1130/1130/377 1131/1131/377
f 1132/1132/378 1133/1133/378 1134/1134/378
f 1135/1135/379 1136/1136/379 1137/1137/379
f 1138/1138/380 1139/1139/380 1140/1140/380
f 1141/1141/381 1142/1142/381 1143/1143/381
f 1144/1144/382 1145/1145/382 1146/1146/382
f 1147/1147/383 1148/1148/383 1149/1149/383
f 1150/1150/384 1151/1151/384 1152/1152/384
f 1153/1153/385 1154/1154/385 1155/1155/385
f 1156/1156/386 1157/1157/386 1158/1158/386
f 1159/1159/387 1160/1160/387 1161/1161/387
f 1162/1162/388 1163/1163/388 1164/1164/388
f 1165/1165/389 1166/1166/389 1167/1167/389
f 1168/1168/390 1169/1169/390 1170/1170/390
f 1171/1171/391 1172/1172/391 1173/1173/391
f 1174/1174/392 1175/1175/392 1176/1176/392
f 1177/1177/393 1178/1178/393 1179/1179/393
f 1180/1180/394 1181/1181/394 1182/1182/394
f 1183/1183/395 1184/1184/395 1185/1185/395
f 1186/1186/396 1187/1187/396 1188/1188/396
