# Procedurally generated by dev-env-utils/scripts/gen_firealarm_obj.py
# System Sensor L-Series LED weatherproof horn strobe
mtllib systemsensor_lseries_led_hornstrobe_outdoor.mtl
o lseries_led_hornstrobe_outdoor
v 0.750000 0.906250 0.812500
v 0.250000 0.093750 0.812500
v 0.250000 0.906250 0.812500
v 0.750000 0.906250 0.812500
v 0.750000 0.093750 0.812500
v 0.250000 0.093750 0.812500
v 0.750000 0.906250 1.000000
v 0.750000 0.093750 0.812500
v 0.750000 0.906250 0.812500
v 0.750000 0.906250 1.000000
v 0.750000 0.093750 1.000000
v 0.750000 0.093750 0.812500
v 0.250000 0.906250 0.812500
v 0.250000 0.093750 1.000000
v 0.250000 0.906250 1.000000
v 0.250000 0.906250 0.812500
v 0.250000 0.093750 0.812500
v 0.250000 0.093750 1.000000
v 0.250000 0.906250 0.812500
v 0.750000 0.906250 1.000000
v 0.750000 0.906250 0.812500
v 0.250000 0.906250 0.812500
v 0.250000 0.906250 1.000000
v 0.750000 0.906250 1.000000
v 0.250000 0.093750 1.000000
v 0.750000 0.093750 0.812500
v 0.750000 0.093750 1.000000
v 0.250000 0.093750 1.000000
v 0.250000 0.093750 0.812500
v 0.750000 0.093750 0.812500
v 0.250000 0.906250 1.000000
v 0.750000 0.093750 1.000000
v 0.750000 0.906250 1.000000
v 0.250000 0.906250 1.000000
v 0.250000 0.093750 1.000000
v 0.750000 0.093750 1.000000
v 0.504815 0.486946 0.718750
v 0.617857 0.907448 0.718750
v 0.658589 0.907851 0.718750
v 0.504815 0.486946 0.718750
v 0.577219 0.907146 0.718750
v 0.617857 0.907448 0.718750
v 0.504815 0.486946 0.718750
v 0.536628 0.898474 0.718750
v 0.577219 0.907146 0.718750
v 0.504815 0.486946 0.718750
v 0.496118 0.898432 0.718750
v 0.536628 0.898474 0.718750
v 0.504815 0.486946 0.718750
v 0.455586 0.901933 0.718750
v 0.496118 0.898432 0.718750
v 0.504815 0.486946 0.718750
v 0.419033 0.907233 0.718750
v 0.455586 0.901933 0.718750
v 0.504815 0.486946 0.718750
v 0.382438 0.907532 0.718750
v 0.419033 0.907233 0.718750
v 0.504815 0.486946 0.718750
v 0.341718 0.904572 0.718750
v 0.382438 0.907532 0.718750
v 0.504815 0.486946 0.718750
v 0.305110 0.891509 0.718750
v 0.341718 0.904572 0.718750
v 0.504815 0.486946 0.718750
v 0.276766 0.868727 0.718750
v 0.305110 0.891509 0.718750
v 0.504815 0.486946 0.718750
v 0.256737 0.837510 0.718750
v 0.276766 0.868727 0.718750
v 0.504815 0.486946 0.718750
v 0.245043 0.799988 0.718750
v 0.256737 0.837510 0.718750
v 0.504815 0.486946 0.718750
v 0.245808 0.758210 0.718750
v 0.245043 0.799988 0.718750
v 0.504815 0.486946 0.718750
v 0.246638 0.716615 0.718750
v 0.245808 0.758210 0.718750
v 0.504815 0.486946 0.718750
v 0.247514 0.675249 0.718750
v 0.246638 0.716615 0.718750
v 0.504815 0.486946 0.718750
v 0.248306 0.638253 0.718750
v 0.247514 0.675249 0.718750
v 0.504815 0.486946 0.718750
v 0.240724 0.601657 0.718750
v 0.248306 0.638253 0.718750
v 0.504815 0.486946 0.718750
v 0.241381 0.561073 0.718750
v 0.240724 0.601657 0.718750
v 0.504815 0.486946 0.718750
v 0.241804 0.520721 0.718750
v 0.241381 0.561073 0.718750
v 0.504815 0.486946 0.718750
v 0.241917 0.480490 0.718750
v 0.241804 0.520721 0.718750
v 0.504815 0.486946 0.718750
v 0.241699 0.440235 0.718750
v 0.241917 0.480490 0.718750
v 0.504815 0.486946 0.718750
v 0.241191 0.399818 0.718750
v 0.241699 0.440235 0.718750
v 0.504815 0.486946 0.718750
v 0.240478 0.359146 0.718750
v 0.241191 0.399818 0.718750
v 0.504815 0.486946 0.718750
v 0.239653 0.318185 0.718750
v 0.240478 0.359146 0.718750
v 0.504815 0.486946 0.718750
v 0.238796 0.276946 0.718750
v 0.239653 0.318185 0.718750
v 0.504815 0.486946 0.718750
v 0.237958 0.235463 0.718750
v 0.238796 0.276946 0.718750
v 0.504815 0.486946 0.718750
v 0.237172 0.193780 0.718750
v 0.237958 0.235463 0.718750
v 0.504815 0.486946 0.718750
v 0.242687 0.156233 0.718750
v 0.237172 0.193780 0.718750
v 0.504815 0.486946 0.718750
v 0.258579 0.122927 0.718750
v 0.242687 0.156233 0.718750
v 0.504815 0.486946 0.718750
v 0.288867 0.091816 0.718750
v 0.258579 0.122927 0.718750
v 0.504815 0.486946 0.718750
v 0.321399 0.077483 0.718750
v 0.288867 0.091816 0.718750
v 0.504815 0.486946 0.718750
v 0.358031 0.069457 0.718750
v 0.321399 0.077483 0.718750
v 0.504815 0.486946 0.718750
v 0.398738 0.069850 0.718750
v 0.358031 0.069457 0.718750
v 0.504815 0.486946 0.718750
v 0.439362 0.071834 0.718750
v 0.398738 0.069850 0.718750
v 0.504815 0.486946 0.718750
v 0.479921 0.078788 0.718750
v 0.439362 0.071834 0.718750
v 0.504815 0.486946 0.718750
v 0.516368 0.078811 0.718750
v 0.479921 0.078788 0.718750
v 0.504815 0.486946 0.718750
v 0.552859 0.070221 0.718750
v 0.516368 0.078811 0.718750
v 0.504815 0.486946 0.718750
v 0.593442 0.069987 0.718750
v 0.552859 0.070221 0.718750
v 0.504815 0.486946 0.718750
v 0.634106 0.069637 0.718750
v 0.593442 0.069987 0.718750
v 0.504815 0.486946 0.718750
v 0.674857 0.070886 0.718750
v 0.634106 0.069637 0.718750
v 0.504815 0.486946 0.718750
v 0.711456 0.085620 0.718750
v 0.674857 0.070886 0.718750
v 0.504815 0.486946 0.718750
v 0.741766 0.114664 0.718750
v 0.711456 0.085620 0.718750
v 0.504815 0.486946 0.718750
v 0.759709 0.147973 0.718750
v 0.741766 0.114664 0.718750
v 0.504815 0.486946 0.718750
v 0.763172 0.185596 0.718750
v 0.759709 0.147973 0.718750
v 0.504815 0.486946 0.718750
v 0.766584 0.223082 0.718750
v 0.763172 0.185596 0.718750
v 0.504815 0.486946 0.718750
v 0.769960 0.260404 0.718750
v 0.766584 0.223082 0.718750
v 0.504815 0.486946 0.718750
v 0.769102 0.301747 0.718750
v 0.769960 0.260404 0.718750
v 0.504815 0.486946 0.718750
v 0.768335 0.338727 0.718750
v 0.769102 0.301747 0.718750
v 0.504815 0.486946 0.718750
v 0.767623 0.375471 0.718750
v 0.768335 0.338727 0.718750
v 0.504815 0.486946 0.718750
v 0.766975 0.416028 0.718750
v 0.767623 0.375471 0.718750
v 0.504815 0.486946 0.718750
v 0.766571 0.456357 0.718750
v 0.766975 0.416028 0.718750
v 0.504815 0.486946 0.718750
v 0.766484 0.496574 0.718750
v 0.766571 0.456357 0.718750
v 0.504815 0.486946 0.718750
v 0.766729 0.536828 0.718750
v 0.766484 0.496574 0.718750
v 0.504815 0.486946 0.718750
v 0.767261 0.577255 0.718750
v 0.766729 0.536828 0.718750
v 0.504815 0.486946 0.718750
v 0.767991 0.617945 0.718750
v 0.767261 0.577255 0.718750
v 0.504815 0.486946 0.718750
v 0.768826 0.658927 0.718750
v 0.767991 0.617945 0.718750
v 0.504815 0.486946 0.718750
v 0.769687 0.700187 0.718750
v 0.768826 0.658927 0.718750
v 0.504815 0.486946 0.718750
v 0.768382 0.737487 0.718750
v 0.769687 0.700187 0.718750
v 0.504815 0.486946 0.718750
v 0.764572 0.774910 0.718750
v 0.768382 0.737487 0.718750
v 0.504815 0.486946 0.718750
v 0.763594 0.812530 0.718750
v 0.764572 0.774910 0.718750
v 0.504815 0.486946 0.718750
v 0.749420 0.850055 0.718750
v 0.763594 0.812530 0.718750
v 0.504815 0.486946 0.718750
v 0.723632 0.880527 0.718750
v 0.749420 0.850055 0.718750
v 0.504815 0.486946 0.718750
v 0.691156 0.899780 0.718750
v 0.723632 0.880527 0.718750
v 0.504815 0.486946 0.718750
v 0.658589 0.907851 0.718750
v 0.691156 0.899780 0.718750
v 0.658589 0.907851 0.718750
v 0.617857 0.907448 0.718750
v 0.617857 0.907448 0.812500
v 0.658589 0.907851 0.718750
v 0.617857 0.907448 0.812500
v 0.658589 0.907851 0.812500
v 0.617857 0.907448 0.718750
v 0.577219 0.907146 0.718750
v 0.577219 0.907146 0.812500
v 0.617857 0.907448 0.718750
v 0.577219 0.907146 0.812500
v 0.617857 0.907448 0.812500
v 0.577219 0.907146 0.718750
v 0.536628 0.898474 0.718750
v 0.536628 0.898474 0.812500
v 0.577219 0.907146 0.718750
v 0.536628 0.898474 0.812500
v 0.577219 0.907146 0.812500
v 0.536628 0.898474 0.718750
v 0.496118 0.898432 0.718750
v 0.496118 0.898432 0.812500
v 0.536628 0.898474 0.718750
v 0.496118 0.898432 0.812500
v 0.536628 0.898474 0.812500
v 0.496118 0.898432 0.718750
v 0.455586 0.901933 0.718750
v 0.455586 0.901933 0.812500
v 0.496118 0.898432 0.718750
v 0.455586 0.901933 0.812500
v 0.496118 0.898432 0.812500
v 0.455586 0.901933 0.718750
v 0.419033 0.907233 0.718750
v 0.419033 0.907233 0.812500
v 0.455586 0.901933 0.718750
v 0.419033 0.907233 0.812500
v 0.455586 0.901933 0.812500
v 0.419033 0.907233 0.718750
v 0.382438 0.907532 0.718750
v 0.382438 0.907532 0.812500
v 0.419033 0.907233 0.718750
v 0.382438 0.907532 0.812500
v 0.419033 0.907233 0.812500
v 0.382438 0.907532 0.718750
v 0.341718 0.904572 0.718750
v 0.341718 0.904572 0.812500
v 0.382438 0.907532 0.718750
v 0.341718 0.904572 0.812500
v 0.382438 0.907532 0.812500
v 0.341718 0.904572 0.718750
v 0.305110 0.891509 0.718750
v 0.305110 0.891509 0.812500
v 0.341718 0.904572 0.718750
v 0.305110 0.891509 0.812500
v 0.341718 0.904572 0.812500
v 0.305110 0.891509 0.718750
v 0.276766 0.868727 0.718750
v 0.276766 0.868727 0.812500
v 0.305110 0.891509 0.718750
v 0.276766 0.868727 0.812500
v 0.305110 0.891509 0.812500
v 0.276766 0.868727 0.718750
v 0.256737 0.837510 0.718750
v 0.256737 0.837510 0.812500
v 0.276766 0.868727 0.718750
v 0.256737 0.837510 0.812500
v 0.276766 0.868727 0.812500
v 0.256737 0.837510 0.718750
v 0.245043 0.799988 0.718750
v 0.245043 0.799988 0.812500
v 0.256737 0.837510 0.718750
v 0.245043 0.799988 0.812500
v 0.256737 0.837510 0.812500
v 0.245043 0.799988 0.718750
v 0.245808 0.758210 0.718750
v 0.245808 0.758210 0.812500
v 0.245043 0.799988 0.718750
v 0.245808 0.758210 0.812500
v 0.245043 0.799988 0.812500
v 0.245808 0.758210 0.718750
v 0.246638 0.716615 0.718750
v 0.246638 0.716615 0.812500
v 0.245808 0.758210 0.718750
v 0.246638 0.716615 0.812500
v 0.245808 0.758210 0.812500
v 0.246638 0.716615 0.718750
v 0.247514 0.675249 0.718750
v 0.247514 0.675249 0.812500
v 0.246638 0.716615 0.718750
v 0.247514 0.675249 0.812500
v 0.246638 0.716615 0.812500
v 0.247514 0.675249 0.718750
v 0.248306 0.638253 0.718750
v 0.248306 0.638253 0.812500
v 0.247514 0.675249 0.718750
v 0.248306 0.638253 0.812500
v 0.247514 0.675249 0.812500
v 0.248306 0.638253 0.718750
v 0.240724 0.601657 0.718750
v 0.240724 0.601657 0.812500
v 0.248306 0.638253 0.718750
v 0.240724 0.601657 0.812500
v 0.248306 0.638253 0.812500
v 0.240724 0.601657 0.718750
v 0.241381 0.561073 0.718750
v 0.241381 0.561073 0.812500
v 0.240724 0.601657 0.718750
v 0.241381 0.561073 0.812500
v 0.240724 0.601657 0.812500
v 0.241381 0.561073 0.718750
v 0.241804 0.520721 0.718750
v 0.241804 0.520721 0.812500
v 0.241381 0.561073 0.718750
v 0.241804 0.520721 0.812500
v 0.241381 0.561073 0.812500
v 0.241804 0.520721 0.718750
v 0.241917 0.480490 0.718750
v 0.241917 0.480490 0.812500
v 0.241804 0.520721 0.718750
v 0.241917 0.480490 0.812500
v 0.241804 0.520721 0.812500
v 0.241917 0.480490 0.718750
v 0.241699 0.440235 0.718750
v 0.241699 0.440235 0.812500
v 0.241917 0.480490 0.718750
v 0.241699 0.440235 0.812500
v 0.241917 0.480490 0.812500
v 0.241699 0.440235 0.718750
v 0.241191 0.399818 0.718750
v 0.241191 0.399818 0.812500
v 0.241699 0.440235 0.718750
v 0.241191 0.399818 0.812500
v 0.241699 0.440235 0.812500
v 0.241191 0.399818 0.718750
v 0.240478 0.359146 0.718750
v 0.240478 0.359146 0.812500
v 0.241191 0.399818 0.718750
v 0.240478 0.359146 0.812500
v 0.241191 0.399818 0.812500
v 0.240478 0.359146 0.718750
v 0.239653 0.318185 0.718750
v 0.239653 0.318185 0.812500
v 0.240478 0.359146 0.718750
v 0.239653 0.318185 0.812500
v 0.240478 0.359146 0.812500
v 0.239653 0.318185 0.718750
v 0.238796 0.276946 0.718750
v 0.238796 0.276946 0.812500
v 0.239653 0.318185 0.718750
v 0.238796 0.276946 0.812500
v 0.239653 0.318185 0.812500
v 0.238796 0.276946 0.718750
v 0.237958 0.235463 0.718750
v 0.237958 0.235463 0.812500
v 0.238796 0.276946 0.718750
v 0.237958 0.235463 0.812500
v 0.238796 0.276946 0.812500
v 0.237958 0.235463 0.718750
v 0.237172 0.193780 0.718750
v 0.237172 0.193780 0.812500
v 0.237958 0.235463 0.718750
v 0.237172 0.193780 0.812500
v 0.237958 0.235463 0.812500
v 0.237172 0.193780 0.718750
v 0.242687 0.156233 0.718750
v 0.242687 0.156233 0.812500
v 0.237172 0.193780 0.718750
v 0.242687 0.156233 0.812500
v 0.237172 0.193780 0.812500
v 0.242687 0.156233 0.718750
v 0.258579 0.122927 0.718750
v 0.258579 0.122927 0.812500
v 0.242687 0.156233 0.718750
v 0.258579 0.122927 0.812500
v 0.242687 0.156233 0.812500
v 0.258579 0.122927 0.718750
v 0.288867 0.091816 0.718750
v 0.288867 0.091816 0.812500
v 0.258579 0.122927 0.718750
v 0.288867 0.091816 0.812500
v 0.258579 0.122927 0.812500
v 0.288867 0.091816 0.718750
v 0.321399 0.077483 0.718750
v 0.321399 0.077483 0.812500
v 0.288867 0.091816 0.718750
v 0.321399 0.077483 0.812500
v 0.288867 0.091816 0.812500
v 0.321399 0.077483 0.718750
v 0.358031 0.069457 0.718750
v 0.358031 0.069457 0.812500
v 0.321399 0.077483 0.718750
v 0.358031 0.069457 0.812500
v 0.321399 0.077483 0.812500
v 0.358031 0.069457 0.718750
v 0.398738 0.069850 0.718750
v 0.398738 0.069850 0.812500
v 0.358031 0.069457 0.718750
v 0.398738 0.069850 0.812500
v 0.358031 0.069457 0.812500
v 0.398738 0.069850 0.718750
v 0.439362 0.071834 0.718750
v 0.439362 0.071834 0.812500
v 0.398738 0.069850 0.718750
v 0.439362 0.071834 0.812500
v 0.398738 0.069850 0.812500
v 0.439362 0.071834 0.718750
v 0.479921 0.078788 0.718750
v 0.479921 0.078788 0.812500
v 0.439362 0.071834 0.718750
v 0.479921 0.078788 0.812500
v 0.439362 0.071834 0.812500
v 0.479921 0.078788 0.718750
v 0.516368 0.078811 0.718750
v 0.516368 0.078811 0.812500
v 0.479921 0.078788 0.718750
v 0.516368 0.078811 0.812500
v 0.479921 0.078788 0.812500
v 0.516368 0.078811 0.718750
v 0.552859 0.070221 0.718750
v 0.552859 0.070221 0.812500
v 0.516368 0.078811 0.718750
v 0.552859 0.070221 0.812500
v 0.516368 0.078811 0.812500
v 0.552859 0.070221 0.718750
v 0.593442 0.069987 0.718750
v 0.593442 0.069987 0.812500
v 0.552859 0.070221 0.718750
v 0.593442 0.069987 0.812500
v 0.552859 0.070221 0.812500
v 0.593442 0.069987 0.718750
v 0.634106 0.069637 0.718750
v 0.634106 0.069637 0.812500
v 0.593442 0.069987 0.718750
v 0.634106 0.069637 0.812500
v 0.593442 0.069987 0.812500
v 0.634106 0.069637 0.718750
v 0.674857 0.070886 0.718750
v 0.674857 0.070886 0.812500
v 0.634106 0.069637 0.718750
v 0.674857 0.070886 0.812500
v 0.634106 0.069637 0.812500
v 0.674857 0.070886 0.718750
v 0.711456 0.085620 0.718750
v 0.711456 0.085620 0.812500
v 0.674857 0.070886 0.718750
v 0.711456 0.085620 0.812500
v 0.674857 0.070886 0.812500
v 0.711456 0.085620 0.718750
v 0.741766 0.114664 0.718750
v 0.741766 0.114664 0.812500
v 0.711456 0.085620 0.718750
v 0.741766 0.114664 0.812500
v 0.711456 0.085620 0.812500
v 0.741766 0.114664 0.718750
v 0.759709 0.147973 0.718750
v 0.759709 0.147973 0.812500
v 0.741766 0.114664 0.718750
v 0.759709 0.147973 0.812500
v 0.741766 0.114664 0.812500
v 0.759709 0.147973 0.718750
v 0.763172 0.185596 0.718750
v 0.763172 0.185596 0.812500
v 0.759709 0.147973 0.718750
v 0.763172 0.185596 0.812500
v 0.759709 0.147973 0.812500
v 0.763172 0.185596 0.718750
v 0.766584 0.223082 0.718750
v 0.766584 0.223082 0.812500
v 0.763172 0.185596 0.718750
v 0.766584 0.223082 0.812500
v 0.763172 0.185596 0.812500
v 0.766584 0.223082 0.718750
v 0.769960 0.260404 0.718750
v 0.769960 0.260404 0.812500
v 0.766584 0.223082 0.718750
v 0.769960 0.260404 0.812500
v 0.766584 0.223082 0.812500
v 0.769960 0.260404 0.718750
v 0.769102 0.301747 0.718750
v 0.769102 0.301747 0.812500
v 0.769960 0.260404 0.718750
v 0.769102 0.301747 0.812500
v 0.769960 0.260404 0.812500
v 0.769102 0.301747 0.718750
v 0.768335 0.338727 0.718750
v 0.768335 0.338727 0.812500
v 0.769102 0.301747 0.718750
v 0.768335 0.338727 0.812500
v 0.769102 0.301747 0.812500
v 0.768335 0.338727 0.718750
v 0.767623 0.375471 0.718750
v 0.767623 0.375471 0.812500
v 0.768335 0.338727 0.718750
v 0.767623 0.375471 0.812500
v 0.768335 0.338727 0.812500
v 0.767623 0.375471 0.718750
v 0.766975 0.416028 0.718750
v 0.766975 0.416028 0.812500
v 0.767623 0.375471 0.718750
v 0.766975 0.416028 0.812500
v 0.767623 0.375471 0.812500
v 0.766975 0.416028 0.718750
v 0.766571 0.456357 0.718750
v 0.766571 0.456357 0.812500
v 0.766975 0.416028 0.718750
v 0.766571 0.456357 0.812500
v 0.766975 0.416028 0.812500
v 0.766571 0.456357 0.718750
v 0.766484 0.496574 0.718750
v 0.766484 0.496574 0.812500
v 0.766571 0.456357 0.718750
v 0.766484 0.496574 0.812500
v 0.766571 0.456357 0.812500
v 0.766484 0.496574 0.718750
v 0.766729 0.536828 0.718750
v 0.766729 0.536828 0.812500
v 0.766484 0.496574 0.718750
v 0.766729 0.536828 0.812500
v 0.766484 0.496574 0.812500
v 0.766729 0.536828 0.718750
v 0.767261 0.577255 0.718750
v 0.767261 0.577255 0.812500
v 0.766729 0.536828 0.718750
v 0.767261 0.577255 0.812500
v 0.766729 0.536828 0.812500
v 0.767261 0.577255 0.718750
v 0.767991 0.617945 0.718750
v 0.767991 0.617945 0.812500
v 0.767261 0.577255 0.718750
v 0.767991 0.617945 0.812500
v 0.767261 0.577255 0.812500
v 0.767991 0.617945 0.718750
v 0.768826 0.658927 0.718750
v 0.768826 0.658927 0.812500
v 0.767991 0.617945 0.718750
v 0.768826 0.658927 0.812500
v 0.767991 0.617945 0.812500
v 0.768826 0.658927 0.718750
v 0.769687 0.700187 0.718750
v 0.769687 0.700187 0.812500
v 0.768826 0.658927 0.718750
v 0.769687 0.700187 0.812500
v 0.768826 0.658927 0.812500
v 0.769687 0.700187 0.718750
v 0.768382 0.737487 0.718750
v 0.768382 0.737487 0.812500
v 0.769687 0.700187 0.718750
v 0.768382 0.737487 0.812500
v 0.769687 0.700187 0.812500
v 0.768382 0.737487 0.718750
v 0.764572 0.774910 0.718750
v 0.764572 0.774910 0.812500
v 0.768382 0.737487 0.718750
v 0.764572 0.774910 0.812500
v 0.768382 0.737487 0.812500
v 0.764572 0.774910 0.718750
v 0.763594 0.812530 0.718750
v 0.763594 0.812530 0.812500
v 0.764572 0.774910 0.718750
v 0.763594 0.812530 0.812500
v 0.764572 0.774910 0.812500
v 0.763594 0.812530 0.718750
v 0.749420 0.850055 0.718750
v 0.749420 0.850055 0.812500
v 0.763594 0.812530 0.718750
v 0.749420 0.850055 0.812500
v 0.763594 0.812530 0.812500
v 0.749420 0.850055 0.718750
v 0.723632 0.880527 0.718750
v 0.723632 0.880527 0.812500
v 0.749420 0.850055 0.718750
v 0.723632 0.880527 0.812500
v 0.749420 0.850055 0.812500
v 0.723632 0.880527 0.718750
v 0.691156 0.899780 0.718750
v 0.691156 0.899780 0.812500
v 0.723632 0.880527 0.718750
v 0.691156 0.899780 0.812500
v 0.723632 0.880527 0.812500
v 0.691156 0.899780 0.718750
v 0.658589 0.907851 0.718750
v 0.658589 0.907851 0.812500
v 0.691156 0.899780 0.718750
v 0.658589 0.907851 0.812500
v 0.691156 0.899780 0.812500
v 0.624397 0.385023 0.718750
v 0.617065 0.415036 0.693750
v 0.620106 0.415805 0.718750
v 0.624397 0.385023 0.718750
v 0.621249 0.385023 0.693750
v 0.617065 0.415036 0.693750
v 0.620106 0.415805 0.718750
v 0.604799 0.443003 0.693750
v 0.607525 0.444489 0.718750
v 0.620106 0.415805 0.718750
v 0.617065 0.415036 0.693750
v 0.604799 0.443003 0.693750
v 0.607525 0.444489 0.718750
v 0.585286 0.467018 0.693750
v 0.587512 0.469121 0.718750
v 0.607525 0.444489 0.718750
v 0.604799 0.443003 0.693750
v 0.585286 0.467018 0.693750
v 0.587512 0.469121 0.718750
v 0.559856 0.485446 0.693750
v 0.561431 0.488021 0.718750
v 0.587512 0.469121 0.718750
v 0.585286 0.467018 0.693750
v 0.559856 0.485446 0.693750
v 0.561431 0.488021 0.718750
v 0.530243 0.497031 0.693750
v 0.531058 0.499903 0.718750
v 0.561431 0.488021 0.718750
v 0.559856 0.485446 0.693750
v 0.530243 0.497031 0.693750
v 0.531058 0.499903 0.718750
v 0.498464 0.500982 0.693750
v 0.498464 0.503955 0.718750
v 0.531058 0.499903 0.718750
v 0.530243 0.497031 0.693750
v 0.498464 0.500982 0.693750
v 0.498464 0.503955 0.718750
v 0.466685 0.497031 0.693750
v 0.465870 0.499903 0.718750
v 0.498464 0.503955 0.718750
v 0.498464 0.500982 0.693750
v 0.466685 0.497031 0.693750
v 0.465870 0.499903 0.718750
v 0.437072 0.485446 0.693750
v 0.435498 0.488021 0.718750
v 0.465870 0.499903 0.718750
v 0.466685 0.497031 0.693750
v 0.437072 0.485446 0.693750
v 0.435498 0.488021 0.718750
v 0.411642 0.467018 0.693750
v 0.409416 0.469121 0.718750
v 0.435498 0.488021 0.718750
v 0.437072 0.485446 0.693750
v 0.411642 0.467018 0.693750
v 0.409416 0.469121 0.718750
v 0.392130 0.443003 0.693750
v 0.389403 0.444489 0.718750
v 0.409416 0.469121 0.718750
v 0.411642 0.467018 0.693750
v 0.392130 0.443003 0.693750
v 0.389403 0.444489 0.718750
v 0.379863 0.415036 0.693750
v 0.376822 0.415805 0.718750
v 0.389403 0.444489 0.718750
v 0.392130 0.443003 0.693750
v 0.379863 0.415036 0.693750
v 0.376822 0.415805 0.718750
v 0.375680 0.385023 0.693750
v 0.372531 0.385023 0.718750
v 0.376822 0.415805 0.718750
v 0.379863 0.415036 0.693750
v 0.375680 0.385023 0.693750
v 0.372531 0.385023 0.718750
v 0.379863 0.355011 0.693750
v 0.376822 0.354241 0.718750
v 0.372531 0.385023 0.718750
v 0.375680 0.385023 0.693750
v 0.379863 0.355011 0.693750
v 0.376822 0.354241 0.718750
v 0.392130 0.327044 0.693750
v 0.389403 0.325557 0.718750
v 0.376822 0.354241 0.718750
v 0.379863 0.355011 0.693750
v 0.392130 0.327044 0.693750
v 0.389403 0.325557 0.718750
v 0.411642 0.303028 0.693750
v 0.409416 0.300926 0.718750
v 0.389403 0.325557 0.718750
v 0.392130 0.327044 0.693750
v 0.411642 0.303028 0.693750
v 0.409416 0.300926 0.718750
v 0.437072 0.284600 0.693750
v 0.435498 0.282025 0.718750
v 0.409416 0.300926 0.718750
v 0.411642 0.303028 0.693750
v 0.437072 0.284600 0.693750
v 0.435498 0.282025 0.718750
v 0.466685 0.273016 0.693750
v 0.465870 0.270144 0.718750
v 0.435498 0.282025 0.718750
v 0.437072 0.284600 0.693750
v 0.466685 0.273016 0.693750
v 0.465870 0.270144 0.718750
v 0.498464 0.269064 0.693750
v 0.498464 0.266091 0.718750
v 0.465870 0.270144 0.718750
v 0.466685 0.273016 0.693750
v 0.498464 0.269064 0.693750
v 0.498464 0.266091 0.718750
v 0.530243 0.273016 0.693750
v 0.531058 0.270144 0.718750
v 0.498464 0.266091 0.718750
v 0.498464 0.269064 0.693750
v 0.530243 0.273016 0.693750
v 0.531058 0.270144 0.718750
v 0.559856 0.284600 0.693750
v 0.561431 0.282025 0.718750
v 0.531058 0.270144 0.718750
v 0.530243 0.273016 0.693750
v 0.559856 0.284600 0.693750
v 0.561431 0.282025 0.718750
v 0.585286 0.303028 0.693750
v 0.587512 0.300926 0.718750
v 0.561431 0.282025 0.718750
v 0.559856 0.284600 0.693750
v 0.585286 0.303028 0.693750
v 0.587512 0.300926 0.718750
v 0.604799 0.327044 0.693750
v 0.607525 0.325557 0.718750
v 0.587512 0.300926 0.718750
v 0.585286 0.303028 0.693750
v 0.604799 0.327044 0.693750
v 0.607525 0.325557 0.718750
v 0.617065 0.355011 0.693750
v 0.620106 0.354241 0.718750
v 0.607525 0.325557 0.718750
v 0.604799 0.327044 0.693750
v 0.617065 0.355011 0.693750
v 0.620106 0.354241 0.718750
v 0.621249 0.385023 0.693750
v 0.624397 0.385023 0.718750
v 0.620106 0.354241 0.718750
v 0.617065 0.355011 0.693750
v 0.621249 0.385023 0.693750
v 0.621249 0.385023 0.693750
v 0.610983 0.413496 0.675000
v 0.617065 0.415036 0.693750
v 0.621249 0.385023 0.693750
v 0.614952 0.385023 0.675000
v 0.610983 0.413496 0.675000
v 0.617065 0.415036 0.693750
v 0.599346 0.440029 0.675000
v 0.604799 0.443003 0.693750
v 0.617065 0.415036 0.693750
v 0.610983 0.413496 0.675000
v 0.599346 0.440029 0.675000
v 0.604799 0.443003 0.693750
v 0.580834 0.462814 0.675000
v 0.585286 0.467018 0.693750
v 0.604799 0.443003 0.693750
v 0.599346 0.440029 0.675000
v 0.580834 0.462814 0.675000
v 0.585286 0.467018 0.693750
v 0.556708 0.480297 0.675000
v 0.559856 0.485446 0.693750
v 0.585286 0.467018 0.693750
v 0.580834 0.462814 0.675000
v 0.556708 0.480297 0.675000
v 0.559856 0.485446 0.693750
v 0.528614 0.491287 0.675000
v 0.530243 0.497031 0.693750
v 0.559856 0.485446 0.693750
v 0.556708 0.480297 0.675000
v 0.528614 0.491287 0.675000
v 0.530243 0.497031 0.693750
v 0.498464 0.495035 0.675000
v 0.498464 0.500982 0.693750
v 0.530243 0.497031 0.693750
v 0.528614 0.491287 0.675000
v 0.498464 0.495035 0.675000
v 0.498464 0.500982 0.693750
v 0.468315 0.491287 0.675000
v 0.466685 0.497031 0.693750
v 0.498464 0.500982 0.693750
v 0.498464 0.495035 0.675000
v 0.468315 0.491287 0.675000
v 0.466685 0.497031 0.693750
v 0.440220 0.480297 0.675000
v 0.437072 0.485446 0.693750
v 0.466685 0.497031 0.693750
v 0.468315 0.491287 0.675000
v 0.440220 0.480297 0.675000
v 0.437072 0.485446 0.693750
v 0.416095 0.462814 0.675000
v 0.411642 0.467018 0.693750
v 0.437072 0.485446 0.693750
v 0.440220 0.480297 0.675000
v 0.416095 0.462814 0.675000
v 0.411642 0.467018 0.693750
v 0.397583 0.440029 0.675000
v 0.392130 0.443003 0.693750
v 0.411642 0.467018 0.693750
v 0.416095 0.462814 0.675000
v 0.397583 0.440029 0.675000
v 0.392130 0.443003 0.693750
v 0.385946 0.413496 0.675000
v 0.379863 0.415036 0.693750
v 0.392130 0.443003 0.693750
v 0.397583 0.440029 0.675000
v 0.385946 0.413496 0.675000
v 0.379863 0.415036 0.693750
v 0.381976 0.385023 0.675000
v 0.375680 0.385023 0.693750
v 0.379863 0.415036 0.693750
v 0.385946 0.413496 0.675000
v 0.381976 0.385023 0.675000
v 0.375680 0.385023 0.693750
v 0.385946 0.356550 0.675000
v 0.379863 0.355011 0.693750
v 0.375680 0.385023 0.693750
v 0.381976 0.385023 0.675000
v 0.385946 0.356550 0.675000
v 0.379863 0.355011 0.693750
v 0.397583 0.330017 0.675000
v 0.392130 0.327044 0.693750
v 0.379863 0.355011 0.693750
v 0.385946 0.356550 0.675000
v 0.397583 0.330017 0.675000
v 0.392130 0.327044 0.693750
v 0.416095 0.307233 0.675000
v 0.411642 0.303028 0.693750
v 0.392130 0.327044 0.693750
v 0.397583 0.330017 0.675000
v 0.416095 0.307233 0.675000
v 0.411642 0.303028 0.693750
v 0.440220 0.289750 0.675000
v 0.437072 0.284600 0.693750
v 0.411642 0.303028 0.693750
v 0.416095 0.307233 0.675000
v 0.440220 0.289750 0.675000
v 0.437072 0.284600 0.693750
v 0.468315 0.278760 0.675000
v 0.466685 0.273016 0.693750
v 0.437072 0.284600 0.693750
v 0.440220 0.289750 0.675000
v 0.468315 0.278760 0.675000
v 0.466685 0.273016 0.693750
v 0.498464 0.275011 0.675000
v 0.498464 0.269064 0.693750
v 0.466685 0.273016 0.693750
v 0.468315 0.278760 0.675000
v 0.498464 0.275011 0.675000
v 0.498464 0.269064 0.693750
v 0.528614 0.278760 0.675000
v 0.530243 0.273016 0.693750
v 0.498464 0.269064 0.693750
v 0.498464 0.275011 0.675000
v 0.528614 0.278760 0.675000
v 0.530243 0.273016 0.693750
v 0.556708 0.289750 0.675000
v 0.559856 0.284600 0.693750
v 0.530243 0.273016 0.693750
v 0.528614 0.278760 0.675000
v 0.556708 0.289750 0.675000
v 0.559856 0.284600 0.693750
v 0.580834 0.307233 0.675000
v 0.585286 0.303028 0.693750
v 0.559856 0.284600 0.693750
v 0.556708 0.289750 0.675000
v 0.580834 0.307233 0.675000
v 0.585286 0.303028 0.693750
v 0.599346 0.330017 0.675000
v 0.604799 0.327044 0.693750
v 0.585286 0.303028 0.693750
v 0.580834 0.307233 0.675000
v 0.599346 0.330017 0.675000
v 0.604799 0.327044 0.693750
v 0.610983 0.356550 0.675000
v 0.617065 0.355011 0.693750
v 0.604799 0.327044 0.693750
v 0.599346 0.330017 0.675000
v 0.610983 0.356550 0.675000
v 0.617065 0.355011 0.693750
v 0.614952 0.385023 0.675000
v 0.621249 0.385023 0.693750
v 0.617065 0.355011 0.693750
v 0.610983 0.356550 0.675000
v 0.614952 0.385023 0.675000
v 0.614952 0.385023 0.675000
v 0.598210 0.410264 0.662500
v 0.610983 0.413496 0.675000
v 0.614952 0.385023 0.675000
v 0.601729 0.385023 0.662500
v 0.598210 0.410264 0.662500
v 0.610983 0.413496 0.675000
v 0.587894 0.433785 0.662500
v 0.599346 0.440029 0.675000
v 0.610983 0.413496 0.675000
v 0.598210 0.410264 0.662500
v 0.587894 0.433785 0.662500
v 0.599346 0.440029 0.675000
v 0.571484 0.453983 0.662500
v 0.580834 0.462814 0.675000
v 0.599346 0.440029 0.675000
v 0.587894 0.433785 0.662500
v 0.571484 0.453983 0.662500
v 0.580834 0.462814 0.675000
v 0.550097 0.469482 0.662500
v 0.556708 0.480297 0.675000
v 0.580834 0.462814 0.675000
v 0.571484 0.453983 0.662500
v 0.550097 0.469482 0.662500
v 0.556708 0.480297 0.675000
v 0.525191 0.479224 0.662500
v 0.528614 0.491287 0.675000
v 0.556708 0.480297 0.675000
v 0.550097 0.469482 0.662500
v 0.525191 0.479224 0.662500
v 0.528614 0.491287 0.675000
v 0.498464 0.482548 0.662500
v 0.498464 0.495035 0.675000
v 0.528614 0.491287 0.675000
v 0.525191 0.479224 0.662500
v 0.498464 0.482548 0.662500
v 0.498464 0.495035 0.675000
v 0.471737 0.479224 0.662500
v 0.468315 0.491287 0.675000
v 0.498464 0.495035 0.675000
v 0.498464 0.482548 0.662500
v 0.471737 0.479224 0.662500
v 0.468315 0.491287 0.675000
v 0.446832 0.469482 0.662500
v 0.440220 0.480297 0.675000
v 0.468315 0.491287 0.675000
v 0.471737 0.479224 0.662500
v 0.446832 0.469482 0.662500
v 0.440220 0.480297 0.675000
v 0.425445 0.453983 0.662500
v 0.416095 0.462814 0.675000
v 0.440220 0.480297 0.675000
v 0.446832 0.469482 0.662500
v 0.425445 0.453983 0.662500
v 0.416095 0.462814 0.675000
v 0.409034 0.433785 0.662500
v 0.397583 0.440029 0.675000
v 0.416095 0.462814 0.675000
v 0.425445 0.453983 0.662500
v 0.409034 0.433785 0.662500
v 0.397583 0.440029 0.675000
v 0.398718 0.410264 0.662500
v 0.385946 0.413496 0.675000
v 0.397583 0.440029 0.675000
v 0.409034 0.433785 0.662500
v 0.398718 0.410264 0.662500
v 0.385946 0.413496 0.675000
v 0.395199 0.385023 0.662500
v 0.381976 0.385023 0.675000
v 0.385946 0.413496 0.675000
v 0.398718 0.410264 0.662500
v 0.395199 0.385023 0.662500
v 0.381976 0.385023 0.675000
v 0.398718 0.359782 0.662500
v 0.385946 0.356550 0.675000
v 0.381976 0.385023 0.675000
v 0.395199 0.385023 0.662500
v 0.398718 0.359782 0.662500
v 0.385946 0.356550 0.675000
v 0.409034 0.336261 0.662500
v 0.397583 0.330017 0.675000
v 0.385946 0.356550 0.675000
v 0.398718 0.359782 0.662500
v 0.409034 0.336261 0.662500
v 0.397583 0.330017 0.675000
v 0.425445 0.316063 0.662500
v 0.416095 0.307233 0.675000
v 0.397583 0.330017 0.675000
v 0.409034 0.336261 0.662500
v 0.425445 0.316063 0.662500
v 0.416095 0.307233 0.675000
v 0.446832 0.300565 0.662500
v 0.440220 0.289750 0.675000
v 0.416095 0.307233 0.675000
v 0.425445 0.316063 0.662500
v 0.446832 0.300565 0.662500
v 0.440220 0.289750 0.675000
v 0.471737 0.290822 0.662500
v 0.468315 0.278760 0.675000
v 0.440220 0.289750 0.675000
v 0.446832 0.300565 0.662500
v 0.471737 0.290822 0.662500
v 0.468315 0.278760 0.675000
v 0.498464 0.287499 0.662500
v 0.498464 0.275011 0.675000
v 0.468315 0.278760 0.675000
v 0.471737 0.290822 0.662500
v 0.498464 0.287499 0.662500
v 0.498464 0.275011 0.675000
v 0.525191 0.290822 0.662500
v 0.528614 0.278760 0.675000
v 0.498464 0.275011 0.675000
v 0.498464 0.287499 0.662500
v 0.525191 0.290822 0.662500
v 0.528614 0.278760 0.675000
v 0.550097 0.300565 0.662500
v 0.556708 0.289750 0.675000
v 0.528614 0.278760 0.675000
v 0.525191 0.290822 0.662500
v 0.550097 0.300565 0.662500
v 0.556708 0.289750 0.675000
v 0.571484 0.316063 0.662500
v 0.580834 0.307233 0.675000
v 0.556708 0.289750 0.675000
v 0.550097 0.300565 0.662500
v 0.571484 0.316063 0.662500
v 0.580834 0.307233 0.675000
v 0.587894 0.336261 0.662500
v 0.599346 0.330017 0.675000
v 0.580834 0.307233 0.675000
v 0.571484 0.316063 0.662500
v 0.587894 0.336261 0.662500
v 0.599346 0.330017 0.675000
v 0.598210 0.359782 0.662500
v 0.610983 0.356550 0.675000
v 0.599346 0.330017 0.675000
v 0.587894 0.336261 0.662500
v 0.598210 0.359782 0.662500
v 0.610983 0.356550 0.675000
v 0.601729 0.385023 0.662500
v 0.614952 0.385023 0.675000
v 0.610983 0.356550 0.675000
v 0.598210 0.359782 0.662500
v 0.601729 0.385023 0.662500
v 0.601729 0.385023 0.662500
v 0.573882 0.404108 0.656250
v 0.598210 0.410264 0.662500
v 0.601729 0.385023 0.662500
v 0.576543 0.385023 0.656250
v 0.573882 0.404108 0.656250
v 0.598210 0.410264 0.662500
v 0.566082 0.421892 0.656250
v 0.587894 0.433785 0.662500
v 0.598210 0.410264 0.662500
v 0.573882 0.404108 0.656250
v 0.566082 0.421892 0.656250
v 0.587894 0.433785 0.662500
v 0.553674 0.437164 0.656250
v 0.571484 0.453983 0.662500
v 0.587894 0.433785 0.662500
v 0.566082 0.421892 0.656250
v 0.553674 0.437164 0.656250
v 0.571484 0.453983 0.662500
v 0.537503 0.448882 0.656250
v 0.550097 0.469482 0.662500
v 0.571484 0.453983 0.662500
v 0.553674 0.437164 0.656250
v 0.537503 0.448882 0.656250
v 0.550097 0.469482 0.662500
v 0.518672 0.456249 0.656250
v 0.525191 0.479224 0.662500
v 0.550097 0.469482 0.662500
v 0.537503 0.448882 0.656250
v 0.518672 0.456249 0.656250
v 0.525191 0.479224 0.662500
v 0.498464 0.458761 0.656250
v 0.498464 0.482548 0.662500
v 0.525191 0.479224 0.662500
v 0.518672 0.456249 0.656250
v 0.498464 0.458761 0.656250
v 0.498464 0.482548 0.662500
v 0.478256 0.456249 0.656250
v 0.471737 0.479224 0.662500
v 0.498464 0.482548 0.662500
v 0.498464 0.458761 0.656250
v 0.478256 0.456249 0.656250
v 0.471737 0.479224 0.662500
v 0.459425 0.448882 0.656250
v 0.446832 0.469482 0.662500
v 0.471737 0.479224 0.662500
v 0.478256 0.456249 0.656250
v 0.459425 0.448882 0.656250
v 0.446832 0.469482 0.662500
v 0.443254 0.437164 0.656250
v 0.425445 0.453983 0.662500
v 0.446832 0.469482 0.662500
v 0.459425 0.448882 0.656250
v 0.443254 0.437164 0.656250
v 0.425445 0.453983 0.662500
v 0.430846 0.421892 0.656250
v 0.409034 0.433785 0.662500
v 0.425445 0.453983 0.662500
v 0.443254 0.437164 0.656250
v 0.430846 0.421892 0.656250
v 0.409034 0.433785 0.662500
v 0.423046 0.404108 0.656250
v 0.398718 0.410264 0.662500
v 0.409034 0.433785 0.662500
v 0.430846 0.421892 0.656250
v 0.423046 0.404108 0.656250
v 0.398718 0.410264 0.662500
v 0.420386 0.385023 0.656250
v 0.395199 0.385023 0.662500
v 0.398718 0.410264 0.662500
v 0.423046 0.404108 0.656250
v 0.420386 0.385023 0.656250
v 0.395199 0.385023 0.662500
v 0.423046 0.365938 0.656250
v 0.398718 0.359782 0.662500
v 0.395199 0.385023 0.662500
v 0.420386 0.385023 0.656250
v 0.423046 0.365938 0.656250
v 0.398718 0.359782 0.662500
v 0.430846 0.348154 0.656250
v 0.409034 0.336261 0.662500
v 0.398718 0.359782 0.662500
v 0.423046 0.365938 0.656250
v 0.430846 0.348154 0.656250
v 0.409034 0.336261 0.662500
v 0.443254 0.332883 0.656250
v 0.425445 0.316063 0.662500
v 0.409034 0.336261 0.662500
v 0.430846 0.348154 0.656250
v 0.443254 0.332883 0.656250
v 0.425445 0.316063 0.662500
v 0.459425 0.321164 0.656250
v 0.446832 0.300565 0.662500
v 0.425445 0.316063 0.662500
v 0.443254 0.332883 0.656250
v 0.459425 0.321164 0.656250
v 0.446832 0.300565 0.662500
v 0.478256 0.313798 0.656250
v 0.471737 0.290822 0.662500
v 0.446832 0.300565 0.662500
v 0.459425 0.321164 0.656250
v 0.478256 0.313798 0.656250
v 0.471737 0.290822 0.662500
v 0.498464 0.311285 0.656250
v 0.498464 0.287499 0.662500
v 0.471737 0.290822 0.662500
v 0.478256 0.313798 0.656250
v 0.498464 0.311285 0.656250
v 0.498464 0.287499 0.662500
v 0.518672 0.313798 0.656250
v 0.525191 0.290822 0.662500
v 0.498464 0.287499 0.662500
v 0.498464 0.311285 0.656250
v 0.518672 0.313798 0.656250
v 0.525191 0.290822 0.662500
v 0.537503 0.321164 0.656250
v 0.550097 0.300565 0.662500
v 0.525191 0.290822 0.662500
v 0.518672 0.313798 0.656250
v 0.537503 0.321164 0.656250
v 0.550097 0.300565 0.662500
v 0.553674 0.332883 0.656250
v 0.571484 0.316063 0.662500
v 0.550097 0.300565 0.662500
v 0.537503 0.321164 0.656250
v 0.553674 0.332883 0.656250
v 0.571484 0.316063 0.662500
v 0.566082 0.348154 0.656250
v 0.587894 0.336261 0.662500
v 0.571484 0.316063 0.662500
v 0.553674 0.332883 0.656250
v 0.566082 0.348154 0.656250
v 0.587894 0.336261 0.662500
v 0.573882 0.365938 0.656250
v 0.598210 0.359782 0.662500
v 0.587894 0.336261 0.662500
v 0.566082 0.348154 0.656250
v 0.573882 0.365938 0.656250
v 0.598210 0.359782 0.662500
v 0.576543 0.385023 0.656250
v 0.601729 0.385023 0.662500
v 0.598210 0.359782 0.662500
v 0.573882 0.365938 0.656250
v 0.576543 0.385023 0.656250
v 0.498464 0.385023 0.656250
v 0.573882 0.404108 0.656250
v 0.576543 0.385023 0.656250
v 0.498464 0.385023 0.656250
v 0.566082 0.421892 0.656250
v 0.573882 0.404108 0.656250
v 0.498464 0.385023 0.656250
v 0.553674 0.437164 0.656250
v 0.566082 0.421892 0.656250
v 0.498464 0.385023 0.656250
v 0.537503 0.448882 0.656250
v 0.553674 0.437164 0.656250
v 0.498464 0.385023 0.656250
v 0.518672 0.456249 0.656250
v 0.537503 0.448882 0.656250
v 0.498464 0.385023 0.656250
v 0.498464 0.458761 0.656250
v 0.518672 0.456249 0.656250
v 0.498464 0.385023 0.656250
v 0.478256 0.456249 0.656250
v 0.498464 0.458761 0.656250
v 0.498464 0.385023 0.656250
v 0.459425 0.448882 0.656250
v 0.478256 0.456249 0.656250
v 0.498464 0.385023 0.656250
v 0.443254 0.437164 0.656250
v 0.459425 0.448882 0.656250
v 0.498464 0.385023 0.656250
v 0.430846 0.421892 0.656250
v 0.443254 0.437164 0.656250
v 0.498464 0.385023 0.656250
v 0.423046 0.404108 0.656250
v 0.430846 0.421892 0.656250
v 0.498464 0.385023 0.656250
v 0.420386 0.385023 0.656250
v 0.423046 0.404108 0.656250
v 0.498464 0.385023 0.656250
v 0.423046 0.365938 0.656250
v 0.420386 0.385023 0.656250
v 0.498464 0.385023 0.656250
v 0.430846 0.348154 0.656250
v 0.423046 0.365938 0.656250
v 0.498464 0.385023 0.656250
v 0.443254 0.332883 0.656250
v 0.430846 0.348154 0.656250
v 0.498464 0.385023 0.656250
v 0.459425 0.321164 0.656250
v 0.443254 0.332883 0.656250
v 0.498464 0.385023 0.656250
v 0.478256 0.313798 0.656250
v 0.459425 0.321164 0.656250
v 0.498464 0.385023 0.656250
v 0.498464 0.311285 0.656250
v 0.478256 0.313798 0.656250
v 0.498464 0.385023 0.656250
v 0.518672 0.313798 0.656250
v 0.498464 0.311285 0.656250
v 0.498464 0.385023 0.656250
v 0.537503 0.321164 0.656250
v 0.518672 0.313798 0.656250
v 0.498464 0.385023 0.656250
v 0.553674 0.332883 0.656250
v 0.537503 0.321164 0.656250
v 0.498464 0.385023 0.656250
v 0.566082 0.348154 0.656250
v 0.553674 0.332883 0.656250
v 0.498464 0.385023 0.656250
v 0.573882 0.365938 0.656250
v 0.566082 0.348154 0.656250
v 0.498464 0.385023 0.656250
v 0.576543 0.385023 0.656250
v 0.573882 0.365938 0.656250
vt 0.178125 0.759375
vt 0.215625 0.721875
vt 0.215625 0.759375
vt 0.178125 0.759375
vt 0.178125 0.721875
vt 0.215625 0.721875
vt 0.178125 0.759375
vt 0.215625 0.721875
vt 0.215625 0.759375
vt 0.178125 0.759375
vt 0.178125 0.721875
vt 0.215625 0.721875
vt 0.178125 0.759375
vt 0.215625 0.721875
vt 0.215625 0.759375
vt 0.178125 0.759375
vt 0.178125 0.721875
vt 0.215625 0.721875
vt 0.178125 0.759375
vt 0.215625 0.721875
vt 0.215625 0.759375
vt 0.178125 0.759375
vt 0.178125 0.721875
vt 0.215625 0.721875
vt 0.178125 0.759375
vt 0.215625 0.721875
vt 0.215625 0.759375
vt 0.178125 0.759375
vt 0.178125 0.721875
vt 0.215625 0.721875
vt 0.178125 0.759375
vt 0.215625 0.721875
vt 0.215625 0.759375
vt 0.178125 0.759375
vt 0.178125 0.721875
vt 0.215625 0.721875
vt 0.499426 0.498459
vt 0.394234 0.885170
vt 0.356330 0.885541
vt 0.499426 0.498459
vt 0.432049 0.884892
vt 0.394234 0.885170
vt 0.499426 0.498459
vt 0.469822 0.876917
vt 0.432049 0.884892
vt 0.499426 0.498459
vt 0.507519 0.876878
vt 0.469822 0.876917
vt 0.499426 0.498459
vt 0.545236 0.880098
vt 0.507519 0.876878
vt 0.499426 0.498459
vt 0.579250 0.884972
vt 0.545236 0.880098
vt 0.499426 0.498459
vt 0.613304 0.885247
vt 0.579250 0.884972
vt 0.499426 0.498459
vt 0.651197 0.882525
vt 0.613304 0.885247
vt 0.499426 0.498459
vt 0.685262 0.870512
vt 0.651197 0.882525
vt 0.499426 0.498459
vt 0.711638 0.849561
vt 0.685262 0.870512
vt 0.499426 0.498459
vt 0.730276 0.820852
vt 0.711638 0.849561
vt 0.499426 0.498459
vt 0.741158 0.786345
vt 0.730276 0.820852
vt 0.499426 0.498459
vt 0.740446 0.747924
vt 0.741158 0.786345
vt 0.499426 0.498459
vt 0.739673 0.709671
vt 0.740446 0.747924
vt 0.499426 0.498459
vt 0.738859 0.671629
vt 0.739673 0.709671
vt 0.499426 0.498459
vt 0.738121 0.637606
vt 0.738859 0.671629
vt 0.499426 0.498459
vt 0.745177 0.603951
vt 0.738121 0.637606
vt 0.499426 0.498459
vt 0.744565 0.566629
vt 0.745177 0.603951
vt 0.499426 0.498459
vt 0.744172 0.529519
vt 0.744565 0.566629
vt 0.499426 0.498459
vt 0.744067 0.492521
vt 0.744172 0.529519
vt 0.499426 0.498459
vt 0.744269 0.455501
vt 0.744067 0.492521
vt 0.499426 0.498459
vt 0.744742 0.418332
vt 0.744269 0.455501
vt 0.499426 0.498459
vt 0.745406 0.380928
vt 0.744742 0.418332
vt 0.499426 0.498459
vt 0.746173 0.343258
vt 0.745406 0.380928
vt 0.499426 0.498459
vt 0.746971 0.305333
vt 0.746173 0.343258
vt 0.499426 0.498459
vt 0.747750 0.267184
vt 0.746971 0.305333
vt 0.499426 0.498459
vt 0.748482 0.228850
vt 0.747750 0.267184
vt 0.499426 0.498459
vt 0.743350 0.194320
vt 0.748482 0.228850
vt 0.499426 0.498459
vt 0.728562 0.163690
vt 0.743350 0.194320
vt 0.499426 0.498459
vt 0.700377 0.135080
vt 0.728562 0.163690
vt 0.499426 0.498459
vt 0.670105 0.121899
vt 0.700377 0.135080
vt 0.499426 0.498459
vt 0.636016 0.114517
vt 0.670105 0.121899
vt 0.499426 0.498459
vt 0.598136 0.114879
vt 0.636016 0.114517
vt 0.499426 0.498459
vt 0.560334 0.116703
vt 0.598136 0.114879
vt 0.499426 0.498459
vt 0.522591 0.123099
vt 0.560334 0.116703
vt 0.499426 0.498459
vt 0.488675 0.123119
vt 0.522591 0.123099
vt 0.499426 0.498459
vt 0.454718 0.115220
vt 0.488675 0.123119
vt 0.499426 0.498459
vt 0.416954 0.115005
vt 0.454718 0.115220
vt 0.499426 0.498459
vt 0.379113 0.114683
vt 0.416954 0.115005
vt 0.499426 0.498459
vt 0.341192 0.115831
vt 0.379113 0.114683
vt 0.499426 0.498459
vt 0.307135 0.129382
vt 0.341192 0.115831
vt 0.499426 0.498459
vt 0.278929 0.156091
vt 0.307135 0.129382
vt 0.499426 0.498459
vt 0.262232 0.186724
vt 0.278929 0.156091
vt 0.499426 0.498459
vt 0.259010 0.221324
vt 0.262232 0.186724
vt 0.499426 0.498459
vt 0.255835 0.255798
vt 0.259010 0.221324
vt 0.499426 0.498459
vt 0.252693 0.290121
vt 0.255835 0.255798
vt 0.499426 0.498459
vt 0.253491 0.328141
vt 0.252693 0.290121
vt 0.499426 0.498459
vt 0.254206 0.362149
vt 0.253491 0.328141
vt 0.499426 0.498459
vt 0.254868 0.395941
vt 0.254206 0.362149
vt 0.499426 0.498459
vt 0.255471 0.433239
vt 0.254868 0.395941
vt 0.499426 0.498459
vt 0.255847 0.470328
vt 0.255471 0.433239
vt 0.499426 0.498459
vt 0.255928 0.507313
vt 0.255847 0.470328
vt 0.499426 0.498459
vt 0.255700 0.544332
vt 0.255928 0.507313
vt 0.499426 0.498459
vt 0.255205 0.581511
vt 0.255700 0.544332
vt 0.499426 0.498459
vt 0.254525 0.618931
vt 0.255205 0.581511
vt 0.499426 0.498459
vt 0.253749 0.656620
vt 0.254525 0.618931
vt 0.499426 0.498459
vt 0.252947 0.694564
vt 0.253749 0.656620
vt 0.499426 0.498459
vt 0.254162 0.728867
vt 0.252947 0.694564
vt 0.499426 0.498459
vt 0.257707 0.763282
vt 0.254162 0.728867
vt 0.499426 0.498459
vt 0.258617 0.797879
vt 0.257707 0.763282
vt 0.499426 0.498459
vt 0.271807 0.832388
vt 0.258617 0.797879
vt 0.499426 0.498459
vt 0.295804 0.860412
vt 0.271807 0.832388
vt 0.499426 0.498459
vt 0.326025 0.878118
vt 0.295804 0.860412
vt 0.499426 0.498459
vt 0.356330 0.885541
vt 0.326025 0.878118
vt 0.178125 0.759375
vt 0.215625 0.759375
vt 0.178125 0.721875
vt 0.178125 0.759375
vt 0.178125 0.721875
vt 0.215625 0.721875
vt 0.178125 0.759375
vt 0.215625 0.759375
vt 0.178125 0.721875
vt 0.178125 0.759375
vt 0.178125 0.721875
vt 0.215625 0.721875
vt 0.178125 0.759375
vt 0.215625 0.759375
vt 0.178125 0.721875
vt 0.178125 0.759375
vt 0.178125 0.721875
vt 0.215625 0.721875
vt 0.178125 0.759375
vt 0.215625 0.759375
vt 0.178125 0.721875
vt 0.178125 0.759375
vt 0.178125 0.721875
vt 0.215625 0.721875
vt 0.178125 0.759375
vt 0.215625 0.759375
vt 0.178125 0.721875
vt 0.178125 0.759375
vt 0.178125 0.721875
vt 0.215625 0.721875
vt 0.178125 0.759375
vt 0.215625 0.759375
vt 0.178125 0.721875
vt 0.178125 0.759375
vt 0.178125 0.721875
vt 0.215625 0.721875
vt 0.178125 0.759375
vt 0.215625 0.759375
vt 0.178125 0.721875
vt 0.178125 0.759375
vt 0.178125 0.721875
vt 0.215625 0.721875
vt 0.178125 0.759375
vt 0.215625 0.759375
vt 0.178125 0.721875
vt 0.178125 0.759375
vt 0.178125 0.721875
vt 0.215625 0.721875
vt 0.178125 0.759375
vt 0.215625 0.759375
vt 0.178125 0.721875
vt 0.178125 0.759375
vt 0.178125 0.721875
vt 0.215625 0.721875
vt 0.178125 0.759375
vt 0.215625 0.759375
vt 0.178125 0.721875
vt 0.178125 0.759375
vt 0.178125 0.721875
vt 0.215625 0.721875
vt 0.178125 0.759375
vt 0.215625 0.759375
vt 0.178125 0.721875
vt 0.178125 0.759375
vt 0.178125 0.721875
vt 0.215625 0.721875
vt 0.178125 0.759375
vt 0.215625 0.759375
vt 0.178125 0.721875
vt 0.178125 0.759375
vt 0.178125 0.721875
vt 0.215625 0.721875
vt 0.178125 0.759375
vt 0.215625 0.759375
vt 0.178125 0.721875
vt 0.178125 0.759375
vt 0.178125 0.721875
vt 0.215625 0.721875
vt 0.765625 0.747924
vt 0.765625 0.709671
vt 0.898438 0.709671
vt 0.765625 0.747924
vt 0.898438 0.709671
vt 0.898438 0.747924
vt 0.765625 0.709671
vt 0.765625 0.671629
vt 0.898438 0.671629
vt 0.765625 0.709671
vt 0.898438 0.671629
vt 0.898438 0.709671
vt 0.765625 0.671629
vt 0.765625 0.637606
vt 0.898438 0.637606
vt 0.765625 0.671629
vt 0.898438 0.637606
vt 0.898438 0.671629
vt 0.765625 0.637606
vt 0.765625 0.603951
vt 0.898438 0.603951
vt 0.765625 0.637606
vt 0.898438 0.603951
vt 0.898438 0.637606
vt 0.765625 0.603951
vt 0.765625 0.566629
vt 0.898438 0.566629
vt 0.765625 0.603951
vt 0.898438 0.566629
vt 0.898438 0.603951
vt 0.765625 0.566629
vt 0.765625 0.529519
vt 0.898438 0.529519
vt 0.765625 0.566629
vt 0.898438 0.529519
vt 0.898438 0.566629
vt 0.765625 0.529519
vt 0.765625 0.492521
vt 0.898438 0.492521
vt 0.765625 0.529519
vt 0.898438 0.492521
vt 0.898438 0.529519
vt 0.765625 0.492521
vt 0.765625 0.455501
vt 0.898438 0.455501
vt 0.765625 0.492521
vt 0.898438 0.455501
vt 0.898438 0.492521
vt 0.765625 0.455501
vt 0.765625 0.418332
vt 0.898438 0.418332
vt 0.765625 0.455501
vt 0.898438 0.418332
vt 0.898438 0.455501
vt 0.765625 0.418332
vt 0.765625 0.380928
vt 0.898438 0.380928
vt 0.765625 0.418332
vt 0.898438 0.380928
vt 0.898438 0.418332
vt 0.765625 0.380928
vt 0.765625 0.343258
vt 0.898438 0.343258
vt 0.765625 0.380928
vt 0.898438 0.343258
vt 0.898438 0.380928
vt 0.765625 0.343258
vt 0.765625 0.305333
vt 0.898438 0.305333
vt 0.765625 0.343258
vt 0.898438 0.305333
vt 0.898438 0.343258
vt 0.765625 0.305333
vt 0.765625 0.267184
vt 0.898438 0.267184
vt 0.765625 0.305333
vt 0.898438 0.267184
vt 0.898438 0.305333
vt 0.178125 0.759375
vt 0.215625 0.759375
vt 0.178125 0.721875
vt 0.178125 0.759375
vt 0.178125 0.721875
vt 0.215625 0.721875
vt 0.178125 0.759375
vt 0.215625 0.759375
vt 0.178125 0.721875
vt 0.178125 0.759375
vt 0.178125 0.721875
vt 0.215625 0.721875
vt 0.178125 0.759375
vt 0.215625 0.759375
vt 0.178125 0.721875
vt 0.178125 0.759375
vt 0.178125 0.721875
vt 0.215625 0.721875
vt 0.178125 0.759375
vt 0.215625 0.759375
vt 0.178125 0.721875
vt 0.178125 0.759375
vt 0.178125 0.721875
vt 0.215625 0.721875
vt 0.178125 0.759375
vt 0.215625 0.759375
vt 0.178125 0.721875
vt 0.178125 0.759375
vt 0.178125 0.721875
vt 0.215625 0.721875
vt 0.178125 0.759375
vt 0.215625 0.759375
vt 0.178125 0.721875
vt 0.178125 0.759375
vt 0.178125 0.721875
vt 0.215625 0.721875
vt 0.178125 0.759375
vt 0.215625 0.759375
vt 0.178125 0.721875
vt 0.178125 0.759375
vt 0.178125 0.721875
vt 0.215625 0.721875
vt 0.178125 0.759375
vt 0.215625 0.759375
vt 0.178125 0.721875
vt 0.178125 0.759375
vt 0.178125 0.721875
vt 0.215625 0.721875
vt 0.178125 0.759375
vt 0.215625 0.759375
vt 0.178125 0.721875
vt 0.178125 0.759375
vt 0.178125 0.721875
vt 0.215625 0.721875
vt 0.178125 0.759375
vt 0.215625 0.759375
vt 0.178125 0.721875
vt 0.178125 0.759375
vt 0.178125 0.721875
vt 0.215625 0.721875
vt 0.178125 0.759375
vt 0.215625 0.759375
vt 0.178125 0.721875
vt 0.178125 0.759375
vt 0.178125 0.721875
vt 0.215625 0.721875
vt 0.178125 0.759375
vt 0.215625 0.759375
vt 0.178125 0.721875
vt 0.178125 0.759375
vt 0.178125 0.721875
vt 0.215625 0.721875
vt 0.178125 0.759375
vt 0.215625 0.759375
vt 0.178125 0.721875
vt 0.178125 0.759375
vt 0.178125 0.721875
vt 0.215625 0.721875
vt 0.178125 0.759375
vt 0.215625 0.759375
vt 0.178125 0.721875
vt 0.178125 0.759375
vt 0.178125 0.721875
vt 0.215625 0.721875
vt 0.178125 0.759375
vt 0.215625 0.759375
vt 0.178125 0.721875
vt 0.178125 0.759375
vt 0.178125 0.721875
vt 0.215625 0.721875
vt 0.178125 0.759375
vt 0.215625 0.759375
vt 0.178125 0.721875
vt 0.178125 0.759375
vt 0.178125 0.721875
vt 0.215625 0.721875
vt 0.178125 0.759375
vt 0.215625 0.759375
vt 0.178125 0.721875
vt 0.178125 0.759375
vt 0.178125 0.721875
vt 0.215625 0.721875
vt 0.178125 0.759375
vt 0.215625 0.759375
vt 0.178125 0.721875
vt 0.178125 0.759375
vt 0.178125 0.721875
vt 0.215625 0.721875
vt 0.178125 0.759375
vt 0.215625 0.759375
vt 0.178125 0.721875
vt 0.178125 0.759375
vt 0.178125 0.721875
vt 0.215625 0.721875
vt 0.242188 0.255798
vt 0.242188 0.290121
vt 0.109375 0.290121
vt 0.242188 0.255798
vt 0.109375 0.290121
vt 0.109375 0.255798
vt 0.242188 0.290121
vt 0.242188 0.328141
vt 0.109375 0.328141
vt 0.242188 0.290121
vt 0.109375 0.328141
vt 0.109375 0.290121
vt 0.242188 0.328141
vt 0.242188 0.362149
vt 0.109375 0.362149
vt 0.242188 0.328141
vt 0.109375 0.362149
vt 0.109375 0.328141
vt 0.242188 0.362149
vt 0.242188 0.395941
vt 0.109375 0.395941
vt 0.242188 0.362149
vt 0.109375 0.395941
vt 0.109375 0.362149
vt 0.242188 0.395941
vt 0.242188 0.433239
vt 0.109375 0.433239
vt 0.242188 0.395941
vt 0.109375 0.433239
vt 0.109375 0.395941
vt 0.242188 0.433239
vt 0.242188 0.470328
vt 0.109375 0.470328
vt 0.242188 0.433239
vt 0.109375 0.470328
vt 0.109375 0.433239
vt 0.242188 0.470328
vt 0.242188 0.507313
vt 0.109375 0.507313
vt 0.242188 0.470328
vt 0.109375 0.507313
vt 0.109375 0.470328
vt 0.242188 0.507313
vt 0.242188 0.544332
vt 0.109375 0.544332
vt 0.242188 0.507313
vt 0.109375 0.544332
vt 0.109375 0.507313
vt 0.242188 0.544332
vt 0.242188 0.581511
vt 0.109375 0.581511
vt 0.242188 0.544332
vt 0.109375 0.581511
vt 0.109375 0.544332
vt 0.242188 0.581511
vt 0.242188 0.618931
vt 0.109375 0.618931
vt 0.242188 0.581511
vt 0.109375 0.618931
vt 0.109375 0.581511
vt 0.242188 0.618931
vt 0.242188 0.656620
vt 0.109375 0.656620
vt 0.242188 0.618931
vt 0.109375 0.656620
vt 0.109375 0.618931
vt 0.242188 0.656620
vt 0.242188 0.694564
vt 0.109375 0.694564
vt 0.242188 0.656620
vt 0.109375 0.694564
vt 0.109375 0.656620
vt 0.242188 0.694564
vt 0.242188 0.728867
vt 0.109375 0.728867
vt 0.242188 0.694564
vt 0.109375 0.728867
vt 0.109375 0.694564
vt 0.178125 0.759375
vt 0.215625 0.759375
vt 0.178125 0.721875
vt 0.178125 0.759375
vt 0.178125 0.721875
vt 0.215625 0.721875
vt 0.178125 0.759375
vt 0.215625 0.759375
vt 0.178125 0.721875
vt 0.178125 0.759375
vt 0.178125 0.721875
vt 0.215625 0.721875
vt 0.178125 0.759375
vt 0.215625 0.759375
vt 0.178125 0.721875
vt 0.178125 0.759375
vt 0.178125 0.721875
vt 0.215625 0.721875
vt 0.178125 0.759375
vt 0.215625 0.759375
vt 0.178125 0.721875
vt 0.178125 0.759375
vt 0.178125 0.721875
vt 0.215625 0.721875
vt 0.178125 0.759375
vt 0.215625 0.759375
vt 0.178125 0.721875
vt 0.178125 0.759375
vt 0.178125 0.721875
vt 0.215625 0.721875
vt 0.178125 0.759375
vt 0.215625 0.759375
vt 0.178125 0.721875
vt 0.178125 0.759375
vt 0.178125 0.721875
vt 0.215625 0.721875
vt 0.388148 0.404726
vt 0.394971 0.432326
vt 0.392141 0.433034
vt 0.388148 0.404726
vt 0.391078 0.404726
vt 0.394971 0.432326
vt 0.392141 0.433034
vt 0.406385 0.458046
vt 0.403848 0.459413
vt 0.392141 0.433034
vt 0.394971 0.432326
vt 0.406385 0.458046
vt 0.403848 0.459413
vt 0.424543 0.480132
vt 0.422471 0.482065
vt 0.403848 0.459413
vt 0.406385 0.458046
vt 0.424543 0.480132
vt 0.422471 0.482065
vt 0.448206 0.497079
vt 0.446742 0.499447
vt 0.422471 0.482065
vt 0.424543 0.480132
vt 0.448206 0.497079
vt 0.446742 0.499447
vt 0.475763 0.507733
vt 0.475005 0.510374
vt 0.446742 0.499447
vt 0.448206 0.497079
vt 0.475763 0.507733
vt 0.475005 0.510374
vt 0.505335 0.511366
vt 0.505335 0.514101
vt 0.475005 0.510374
vt 0.475763 0.507733
vt 0.505335 0.511366
vt 0.505335 0.514101
vt 0.534907 0.507733
vt 0.535666 0.510374
vt 0.505335 0.514101
vt 0.505335 0.511366
vt 0.534907 0.507733
vt 0.535666 0.510374
vt 0.562464 0.497079
vt 0.563929 0.499447
vt 0.535666 0.510374
vt 0.534907 0.507733
vt 0.562464 0.497079
vt 0.563929 0.499447
vt 0.586128 0.480132
vt 0.588199 0.482065
vt 0.563929 0.499447
vt 0.562464 0.497079
vt 0.586128 0.480132
vt 0.588199 0.482065
vt 0.604286 0.458046
vt 0.606823 0.459413
vt 0.588199 0.482065
vt 0.586128 0.480132
vt 0.604286 0.458046
vt 0.606823 0.459413
vt 0.615700 0.432326
vt 0.618530 0.433034
vt 0.606823 0.459413
vt 0.604286 0.458046
vt 0.615700 0.432326
vt 0.618530 0.433034
vt 0.619593 0.404726
vt 0.622523 0.404726
vt 0.618530 0.433034
vt 0.615700 0.432326
vt 0.619593 0.404726
vt 0.622523 0.404726
vt 0.615700 0.377125
vt 0.618530 0.376417
vt 0.622523 0.404726
vt 0.619593 0.404726
vt 0.615700 0.377125
vt 0.618530 0.376417
vt 0.604286 0.351405
vt 0.606823 0.350038
vt 0.618530 0.376417
vt 0.615700 0.377125
vt 0.604286 0.351405
vt 0.606823 0.350038
vt 0.586128 0.329319
vt 0.588199 0.327386
vt 0.606823 0.350038
vt 0.604286 0.351405
vt 0.586128 0.329319
vt 0.588199 0.327386
vt 0.562464 0.312372
vt 0.563929 0.310004
vt 0.588199 0.327386
vt 0.586128 0.329319
vt 0.562464 0.312372
vt 0.563929 0.310004
vt 0.534907 0.301719
vt 0.535666 0.299077
vt 0.563929 0.310004
vt 0.562464 0.312372
vt 0.534907 0.301719
vt 0.535666 0.299077
vt 0.505335 0.298085
vt 0.505335 0.295351
vt 0.535666 0.299077
vt 0.534907 0.301719
vt 0.505335 0.298085
vt 0.505335 0.295351
vt 0.475763 0.301719
vt 0.475005 0.299077
vt 0.505335 0.295351
vt 0.505335 0.298085
vt 0.475763 0.301719
vt 0.475005 0.299077
vt 0.448206 0.312372
vt 0.446742 0.310004
vt 0.475005 0.299077
vt 0.475763 0.301719
vt 0.448206 0.312372
vt 0.446742 0.310004
vt 0.424543 0.329319
vt 0.422471 0.327386
vt 0.446742 0.310004
vt 0.448206 0.312372
vt 0.424543 0.329319
vt 0.422471 0.327386
vt 0.406385 0.351405
vt 0.403848 0.350038
vt 0.422471 0.327386
vt 0.424543 0.329319
vt 0.406385 0.351405
vt 0.403848 0.350038
vt 0.394971 0.377125
vt 0.392141 0.376417
vt 0.403848 0.350038
vt 0.406385 0.351405
vt 0.394971 0.377125
vt 0.392141 0.376417
vt 0.391078 0.404726
vt 0.388148 0.404726
vt 0.392141 0.376417
vt 0.394971 0.377125
vt 0.391078 0.404726
vt 0.391078 0.404726
vt 0.400631 0.430911
vt 0.394971 0.432326
vt 0.391078 0.404726
vt 0.396937 0.404726
vt 0.400631 0.430911
vt 0.394971 0.432326
vt 0.411460 0.455312
vt 0.406385 0.458046
vt 0.394971 0.432326
vt 0.400631 0.430911
vt 0.411460 0.455312
vt 0.406385 0.458046
vt 0.428686 0.476265
vt 0.424543 0.480132
vt 0.406385 0.458046
vt 0.411460 0.455312
vt 0.428686 0.476265
vt 0.424543 0.480132
vt 0.451136 0.492343
vt 0.448206 0.497079
vt 0.424543 0.480132
vt 0.428686 0.476265
vt 0.451136 0.492343
vt 0.448206 0.497079
vt 0.477280 0.502450
vt 0.475763 0.507733
vt 0.448206 0.497079
vt 0.451136 0.492343
vt 0.477280 0.502450
vt 0.475763 0.507733
vt 0.505335 0.505897
vt 0.505335 0.511366
vt 0.475763 0.507733
vt 0.477280 0.502450
vt 0.505335 0.505897
vt 0.505335 0.511366
vt 0.533391 0.502450
vt 0.534907 0.507733
vt 0.505335 0.511366
vt 0.505335 0.505897
vt 0.533391 0.502450
vt 0.534907 0.507733
vt 0.559535 0.492343
vt 0.562464 0.497079
vt 0.534907 0.507733
vt 0.533391 0.502450
vt 0.559535 0.492343
vt 0.562464 0.497079
vt 0.581985 0.476265
vt 0.586128 0.480132
vt 0.562464 0.497079
vt 0.559535 0.492343
vt 0.581985 0.476265
vt 0.586128 0.480132
vt 0.599211 0.455312
vt 0.604286 0.458046
vt 0.586128 0.480132
vt 0.581985 0.476265
vt 0.599211 0.455312
vt 0.604286 0.458046
vt 0.610040 0.430911
vt 0.615700 0.432326
vt 0.604286 0.458046
vt 0.599211 0.455312
vt 0.610040 0.430911
vt 0.615700 0.432326
vt 0.613734 0.404726
vt 0.619593 0.404726
vt 0.615700 0.432326
vt 0.610040 0.430911
vt 0.613734 0.404726
vt 0.619593 0.404726
vt 0.610040 0.378540
vt 0.615700 0.377125
vt 0.619593 0.404726
vt 0.613734 0.404726
vt 0.610040 0.378540
vt 0.615700 0.377125
vt 0.599211 0.354140
vt 0.604286 0.351405
vt 0.615700 0.377125
vt 0.610040 0.378540
vt 0.599211 0.354140
vt 0.604286 0.351405
vt 0.581985 0.333186
vt 0.586128 0.329319
vt 0.604286 0.351405
vt 0.599211 0.354140
vt 0.581985 0.333186
vt 0.586128 0.329319
vt 0.559535 0.317108
vt 0.562464 0.312372
vt 0.586128 0.329319
vt 0.581985 0.333186
vt 0.559535 0.317108
vt 0.562464 0.312372
vt 0.533391 0.307001
vt 0.534907 0.301719
vt 0.562464 0.312372
vt 0.559535 0.317108
vt 0.533391 0.307001
vt 0.534907 0.301719
vt 0.505335 0.303554
vt 0.505335 0.298085
vt 0.534907 0.301719
vt 0.533391 0.307001
vt 0.505335 0.303554
vt 0.505335 0.298085
vt 0.477280 0.307001
vt 0.475763 0.301719
vt 0.505335 0.298085
vt 0.505335 0.303554
vt 0.477280 0.307001
vt 0.475763 0.301719
vt 0.451136 0.317108
vt 0.448206 0.312372
vt 0.475763 0.301719
vt 0.477280 0.307001
vt 0.451136 0.317108
vt 0.448206 0.312372
vt 0.428686 0.333186
vt 0.424543 0.329319
vt 0.448206 0.312372
vt 0.451136 0.317108
vt 0.428686 0.333186
vt 0.424543 0.329319
vt 0.411460 0.354140
vt 0.406385 0.351405
vt 0.424543 0.329319
vt 0.428686 0.333186
vt 0.411460 0.354140
vt 0.406385 0.351405
vt 0.400631 0.378540
vt 0.394971 0.377125
vt 0.406385 0.351405
vt 0.411460 0.354140
vt 0.400631 0.378540
vt 0.394971 0.377125
vt 0.396937 0.404726
vt 0.391078 0.404726
vt 0.394971 0.377125
vt 0.400631 0.378540
vt 0.396937 0.404726
vt 0.396937 0.404726
vt 0.412516 0.427938
vt 0.400631 0.430911
vt 0.396937 0.404726
vt 0.409242 0.404726
vt 0.412516 0.427938
vt 0.400631 0.430911
vt 0.422116 0.449569
vt 0.411460 0.455312
vt 0.400631 0.430911
vt 0.412516 0.427938
vt 0.422116 0.449569
vt 0.411460 0.455312
vt 0.437387 0.468144
vt 0.428686 0.476265
vt 0.411460 0.455312
vt 0.422116 0.449569
vt 0.437387 0.468144
vt 0.428686 0.476265
vt 0.457288 0.482397
vt 0.451136 0.492343
vt 0.428686 0.476265
vt 0.437387 0.468144
vt 0.457288 0.482397
vt 0.451136 0.492343
vt 0.480464 0.491357
vt 0.477280 0.502450
vt 0.451136 0.492343
vt 0.457288 0.482397
vt 0.480464 0.491357
vt 0.477280 0.502450
vt 0.505335 0.494413
vt 0.505335 0.505897
vt 0.477280 0.502450
vt 0.480464 0.491357
vt 0.505335 0.494413
vt 0.505335 0.505897
vt 0.530206 0.491357
vt 0.533391 0.502450
vt 0.505335 0.505897
vt 0.505335 0.494413
vt 0.530206 0.491357
vt 0.533391 0.502450
vt 0.553382 0.482397
vt 0.559535 0.492343
vt 0.533391 0.502450
vt 0.530206 0.491357
vt 0.553382 0.482397
vt 0.559535 0.492343
vt 0.573284 0.468144
vt 0.581985 0.476265
vt 0.559535 0.492343
vt 0.553382 0.482397
vt 0.573284 0.468144
vt 0.581985 0.476265
vt 0.588555 0.449569
vt 0.599211 0.455312
vt 0.581985 0.476265
vt 0.573284 0.468144
vt 0.588555 0.449569
vt 0.599211 0.455312
vt 0.598155 0.427938
vt 0.610040 0.430911
vt 0.599211 0.455312
vt 0.588555 0.449569
vt 0.598155 0.427938
vt 0.610040 0.430911
vt 0.601429 0.404726
vt 0.613734 0.404726
vt 0.610040 0.430911
vt 0.598155 0.427938
vt 0.601429 0.404726
vt 0.613734 0.404726
vt 0.598155 0.381513
vt 0.610040 0.378540
vt 0.613734 0.404726
vt 0.601429 0.404726
vt 0.598155 0.381513
vt 0.610040 0.378540
vt 0.588555 0.359882
vt 0.599211 0.354140
vt 0.610040 0.378540
vt 0.598155 0.381513
vt 0.588555 0.359882
vt 0.599211 0.354140
vt 0.573284 0.341307
vt 0.581985 0.333186
vt 0.599211 0.354140
vt 0.588555 0.359882
vt 0.573284 0.341307
vt 0.581985 0.333186
vt 0.553382 0.327054
vt 0.559535 0.317108
vt 0.581985 0.333186
vt 0.573284 0.341307
vt 0.553382 0.327054
vt 0.559535 0.317108
vt 0.530206 0.318094
vt 0.533391 0.307001
vt 0.559535 0.317108
vt 0.553382 0.327054
vt 0.530206 0.318094
vt 0.533391 0.307001
vt 0.505335 0.315038
vt 0.505335 0.303554
vt 0.533391 0.307001
vt 0.530206 0.318094
vt 0.505335 0.315038
vt 0.505335 0.303554
vt 0.480464 0.318094
vt 0.477280 0.307001
vt 0.505335 0.303554
vt 0.505335 0.315038
vt 0.480464 0.318094
vt 0.477280 0.307001
vt 0.457288 0.327054
vt 0.451136 0.317108
vt 0.477280 0.307001
vt 0.480464 0.318094
vt 0.457288 0.327054
vt 0.451136 0.317108
vt 0.437387 0.341307
vt 0.428686 0.333186
vt 0.451136 0.317108
vt 0.457288 0.327054
vt 0.437387 0.341307
vt 0.428686 0.333186
vt 0.422116 0.359882
vt 0.411460 0.354140
vt 0.428686 0.333186
vt 0.437387 0.341307
vt 0.422116 0.359882
vt 0.411460 0.354140
vt 0.412516 0.381513
vt 0.400631 0.378540
vt 0.411460 0.354140
vt 0.422116 0.359882
vt 0.412516 0.381513
vt 0.400631 0.378540
vt 0.409242 0.404726
vt 0.396937 0.404726
vt 0.400631 0.378540
vt 0.412516 0.381513
vt 0.409242 0.404726
vt 0.409242 0.404726
vt 0.435155 0.422277
vt 0.412516 0.427938
vt 0.409242 0.404726
vt 0.432679 0.404726
vt 0.435155 0.422277
vt 0.412516 0.427938
vt 0.442413 0.438632
vt 0.422116 0.449569
vt 0.412516 0.427938
vt 0.435155 0.422277
vt 0.442413 0.438632
vt 0.422116 0.449569
vt 0.453960 0.452676
vt 0.437387 0.468144
vt 0.422116 0.449569
vt 0.442413 0.438632
vt 0.453960 0.452676
vt 0.437387 0.468144
vt 0.469007 0.463453
vt 0.457288 0.482397
vt 0.437387 0.468144
vt 0.453960 0.452676
vt 0.469007 0.463453
vt 0.457288 0.482397
vt 0.486531 0.470227
vt 0.480464 0.491357
vt 0.457288 0.482397
vt 0.469007 0.463453
vt 0.486531 0.470227
vt 0.480464 0.491357
vt 0.505335 0.472538
vt 0.505335 0.494413
vt 0.480464 0.491357
vt 0.486531 0.470227
vt 0.505335 0.472538
vt 0.505335 0.494413
vt 0.524140 0.470227
vt 0.530206 0.491357
vt 0.505335 0.494413
vt 0.505335 0.472538
vt 0.524140 0.470227
vt 0.530206 0.491357
vt 0.541663 0.463453
vt 0.553382 0.482397
vt 0.530206 0.491357
vt 0.524140 0.470227
vt 0.541663 0.463453
vt 0.553382 0.482397
vt 0.556711 0.452676
vt 0.573284 0.468144
vt 0.553382 0.482397
vt 0.541663 0.463453
vt 0.556711 0.452676
vt 0.573284 0.468144
vt 0.568258 0.438632
vt 0.588555 0.449569
vt 0.573284 0.468144
vt 0.556711 0.452676
vt 0.568258 0.438632
vt 0.588555 0.449569
vt 0.575516 0.422277
vt 0.598155 0.427938
vt 0.588555 0.449569
vt 0.568258 0.438632
vt 0.575516 0.422277
vt 0.598155 0.427938
vt 0.577992 0.404726
vt 0.601429 0.404726
vt 0.598155 0.427938
vt 0.575516 0.422277
vt 0.577992 0.404726
vt 0.601429 0.404726
vt 0.575516 0.387174
vt 0.598155 0.381513
vt 0.601429 0.404726
vt 0.577992 0.404726
vt 0.575516 0.387174
vt 0.598155 0.381513
vt 0.568258 0.370819
vt 0.588555 0.359882
vt 0.598155 0.381513
vt 0.575516 0.387174
vt 0.568258 0.370819
vt 0.588555 0.359882
vt 0.556711 0.356775
vt 0.573284 0.341307
vt 0.588555 0.359882
vt 0.568258 0.370819
vt 0.556711 0.356775
vt 0.573284 0.341307
vt 0.541663 0.345998
vt 0.553382 0.327054
vt 0.573284 0.341307
vt 0.556711 0.356775
vt 0.541663 0.345998
vt 0.553382 0.327054
vt 0.524140 0.339224
vt 0.530206 0.318094
vt 0.553382 0.327054
vt 0.541663 0.345998
vt 0.524140 0.339224
vt 0.530206 0.318094
vt 0.505335 0.336913
vt 0.505335 0.315038
vt 0.530206 0.318094
vt 0.524140 0.339224
vt 0.505335 0.336913
vt 0.505335 0.315038
vt 0.486531 0.339224
vt 0.480464 0.318094
vt 0.505335 0.315038
vt 0.505335 0.336913
vt 0.486531 0.339224
vt 0.480464 0.318094
vt 0.469007 0.345998
vt 0.457288 0.327054
vt 0.480464 0.318094
vt 0.486531 0.339224
vt 0.469007 0.345998
vt 0.457288 0.327054
vt 0.453960 0.356775
vt 0.437387 0.341307
vt 0.457288 0.327054
vt 0.469007 0.345998
vt 0.453960 0.356775
vt 0.437387 0.341307
vt 0.442413 0.370819
vt 0.422116 0.359882
vt 0.437387 0.341307
vt 0.453960 0.356775
vt 0.442413 0.370819
vt 0.422116 0.359882
vt 0.435155 0.387174
vt 0.412516 0.381513
vt 0.422116 0.359882
vt 0.442413 0.370819
vt 0.435155 0.387174
vt 0.412516 0.381513
vt 0.432679 0.404726
vt 0.409242 0.404726
vt 0.412516 0.381513
vt 0.435155 0.387174
vt 0.432679 0.404726
vt 0.505335 0.404726
vt 0.435155 0.422277
vt 0.432679 0.404726
vt 0.505335 0.404726
vt 0.442413 0.438632
vt 0.435155 0.422277
vt 0.505335 0.404726
vt 0.453960 0.452676
vt 0.442413 0.438632
vt 0.505335 0.404726
vt 0.469007 0.463453
vt 0.453960 0.452676
vt 0.505335 0.404726
vt 0.486531 0.470227
vt 0.469007 0.463453
vt 0.505335 0.404726
vt 0.505335 0.472538
vt 0.486531 0.470227
vt 0.505335 0.404726
vt 0.524140 0.470227
vt 0.505335 0.472538
vt 0.505335 0.404726
vt 0.541663 0.463453
vt 0.524140 0.470227
vt 0.505335 0.404726
vt 0.556711 0.452676
vt 0.541663 0.463453
vt 0.505335 0.404726
vt 0.568258 0.438632
vt 0.556711 0.452676
vt 0.505335 0.404726
vt 0.575516 0.422277
vt 0.568258 0.438632
vt 0.505335 0.404726
vt 0.577992 0.404726
vt 0.575516 0.422277
vt 0.505335 0.404726
vt 0.575516 0.387174
vt 0.577992 0.404726
vt 0.505335 0.404726
vt 0.568258 0.370819
vt 0.575516 0.387174
vt 0.505335 0.404726
vt 0.556711 0.356775
vt 0.568258 0.370819
vt 0.505335 0.404726
vt 0.541663 0.345998
vt 0.556711 0.356775
vt 0.505335 0.404726
vt 0.524140 0.339224
vt 0.541663 0.345998
vt 0.505335 0.404726
vt 0.505335 0.336913
vt 0.524140 0.339224
vt 0.505335 0.404726
vt 0.486531 0.339224
vt 0.505335 0.336913
vt 0.505335 0.404726
vt 0.469007 0.345998
vt 0.486531 0.339224
vt 0.505335 0.404726
vt 0.453960 0.356775
vt 0.469007 0.345998
vt 0.505335 0.404726
vt 0.442413 0.370819
vt 0.453960 0.356775
vt 0.505335 0.404726
vt 0.435155 0.387174
vt 0.442413 0.370819
vt 0.505335 0.404726
vt 0.432679 0.404726
vt 0.435155 0.387174
vn -0.000000 0.000000 -1.000000
vn 0.000000 -0.000000 -1.000000
vn 1.000000 0.000000 0.000000
vn 1.000000 0.000000 0.000000
vn -1.000000 0.000000 0.000000
vn -1.000000 0.000000 0.000000
vn 0.000000 1.000000 0.000000
vn 0.000000 1.000000 0.000000
vn 0.000000 -1.000000 0.000000
vn 0.000000 -1.000000 0.000000
vn -0.000000 0.000000 1.000000
vn 0.000000 0.000000 1.000000
vn 0.000000 0.000000 -1.000000
vn 0.000000 0.000000 -1.000000
vn 0.000000 0.000000 -1.000000
vn 0.000000 0.000000 -1.000000
vn 0.000000 0.000000 -1.000000
vn 0.000000 0.000000 -1.000000
vn 0.000000 0.000000 -1.000000
vn 0.000000 0.000000 -1.000000
vn 0.000000 0.000000 -1.000000
vn 0.000000 0.000000 -1.000000
vn 0.000000 0.000000 -1.000000
vn 0.000000 0.000000 -1.000000
vn 0.000000 0.000000 -1.000000
vn 0.000000 0.000000 -1.000000
vn 0.000000 0.000000 -1.000000
vn 0.000000 0.000000 -1.000000
vn 0.000000 0.000000 -1.000000
vn 0.000000 0.000000 -1.000000
vn 0.000000 0.000000 -1.000000
vn -0.000000 0.000000 -1.000000
vn 0.000000 0.000000 -1.000000
vn 0.000000 0.000000 -1.000000
vn 0.000000 0.000000 -1.000000
vn 0.000000 0.000000 -1.000000
vn 0.000000 0.000000 -1.000000
vn 0.000000 0.000000 -1.000000
vn 0.000000 0.000000 -1.000000
vn 0.000000 0.000000 -1.000000
vn 0.000000 0.000000 -1.000000
vn 0.000000 0.000000 -1.000000
vn 0.000000 0.000000 -1.000000
vn 0.000000 0.000000 -1.000000
vn 0.000000 0.000000 -1.000000
vn 0.000000 0.000000 -1.000000
vn 0.000000 0.000000 -1.000000
vn 0.000000 -0.000000 -1.000000
vn 0.000000 0.000000 -1.000000
vn 0.000000 0.000000 -1.000000
vn 0.000000 0.000000 -1.000000
vn 0.000000 0.000000 -1.000000
vn 0.000000 0.000000 -1.000000
vn 0.000000 0.000000 -1.000000
vn 0.000000 0.000000 -1.000000
vn 0.000000 0.000000 -1.000000
vn 0.000000 0.000000 -1.000000
vn 0.000000 0.000000 -1.000000
vn 0.000000 0.000000 -1.000000
vn 0.000000 0.000000 -1.000000
vn 0.000000 0.000000 -1.000000
vn 0.000000 0.000000 -1.000000
vn 0.000000 0.000000 -1.000000
vn 0.000000 0.000000 -1.000000
vn 0.000000 0.000000 -1.000000
vn 0.000000 0.000000 -1.000000
vn 0.000000 0.000000 -1.000000
vn 0.000000 0.000000 -1.000000
vn 0.000000 0.000000 -1.000000
vn 0.000000 0.000000 -1.000000
vn 0.000000 0.000000 -1.000000
vn 0.000000 0.000000 -1.000000
vn 0.000000 0.000000 -1.000000
vn 0.000000 0.000000 -1.000000
vn 0.000000 0.000000 -1.000000
vn 0.000000 0.000000 -1.000000
vn -0.009902 0.999951 0.000000
vn -0.009902 0.999951 0.000000
vn -0.007432 0.999972 0.000000
vn -0.007432 0.999972 0.000000
vn -0.208920 0.977933 0.000000
vn -0.208920 0.977933 0.000000
vn -0.001040 0.999999 0.000000
vn -0.001040 0.999999 0.000000
vn 0.086060 0.996290 0.000000
vn 0.086060 0.996290 -0.000000
vn 0.143485 0.989653 0.000000
vn 0.143485 0.989653 -0.000000
vn 0.008190 0.999966 0.000000
vn 0.008190 0.999966 -0.000000
vn -0.072510 0.997368 0.000000
vn -0.072510 0.997368 0.000000
vn -0.336078 0.941834 0.000000
vn -0.336078 0.941834 0.000000
vn -0.626483 0.779435 0.000000
vn -0.626483 0.779435 0.000000
vn -0.841653 0.540019 0.000000
vn -0.841653 0.540019 0.000000
vn -0.954709 0.297542 0.000000
vn -0.954709 0.297542 0.000000
vn -0.999832 -0.018311 0.000000
vn -0.999832 -0.018311 0.000000
vn -0.999801 -0.019961 0.000000
vn -0.999801 -0.019961 0.000000
vn -0.999776 -0.021160 0.000000
vn -0.999776 -0.021160 0.000000
vn -0.999771 -0.021419 0.000000
vn -0.999771 -0.021419 0.000000
vn -0.979200 0.202898 0.000000
vn -0.979200 0.202898 0.000000
vn -0.999869 -0.016210 0.000000
vn -0.999869 -0.016210 0.000000
vn -0.999945 -0.010473 0.000000
vn -0.999945 -0.010473 0.000000
vn -0.999996 -0.002814 0.000000
vn -0.999996 -0.002814 0.000000
vn -0.999985 0.005414 0.000000
vn -0.999985 0.005414 0.000000
vn -0.999921 0.012567 0.000000
vn -0.999921 0.012567 0.000000
vn -0.999846 0.017539 0.000000
vn -0.999846 0.017539 0.000000
vn -0.999797 0.020130 0.000000
vn -0.999797 0.020130 0.000000
vn -0.999784 0.020791 0.000000
vn -0.999784 0.020791 0.000000
vn -0.999796 0.020178 0.000000
vn -0.999796 0.020178 0.000000
vn -0.999822 0.018865 0.000000
vn -0.999822 0.018865 0.000000
vn -0.989384 -0.145322 0.000000
vn -0.989384 -0.145322 0.000000
vn -0.902522 -0.430644 0.000000
vn -0.902522 -0.430644 0.000000
vn -0.716519 -0.697568 0.000000
vn -0.716519 -0.697568 0.000000
vn -0.403183 -0.915120 0.000000
vn -0.403183 -0.915120 0.000000
vn -0.214031 -0.976827 0.000000
vn -0.214031 -0.976827 0.000000
vn 0.009657 -0.999953 0.000000
vn 0.009657 -0.999953 0.000000
vn 0.048782 -0.998809 0.000000
vn 0.048782 -0.998809 0.000000
vn 0.168996 -0.985617 0.000000
vn 0.168996 -0.985617 0.000000
vn 0.000611 -1.000000 0.000000
vn 0.000611 -1.000000 0.000000
vn -0.229132 -0.973395 0.000000
vn -0.229132 -0.973395 0.000000
vn -0.005755 -0.999983 0.000000
vn -0.005755 -0.999983 0.000000
vn -0.008616 -0.999963 0.000000
vn -0.008616 -0.999963 0.000000
vn 0.030631 -0.999531 0.000000
vn 0.030631 -0.999531 0.000000
vn 0.373458 -0.927647 0.000000
vn 0.373458 -0.927647 0.000000
vn 0.691860 -0.722031 0.000000
vn 0.691860 -0.722031 0.000000
vn 0.880388 -0.474253 0.000000
vn 0.880388 -0.474253 0.000000
vn 0.995792 -0.091642 0.000000
vn 0.995792 -0.091642 0.000000
vn 0.995883 -0.090650 0.000000
vn 0.995883 -0.090650 0.000000
vn 0.995933 -0.090096 0.000000
vn 0.995933 -0.090096 0.000000
vn 0.999785 0.020745 0.000000
vn 0.999785 0.020745 -0.000000
vn 0.999785 0.020748 0.000000
vn 0.999785 0.020748 -0.000000
vn 0.999812 0.019381 0.000000
vn 0.999812 0.019381 -0.000000
vn 0.999873 0.015965 0.000000
vn 0.999873 0.015965 -0.000000
vn 0.999950 0.010011 0.000000
vn 0.999950 0.010011 -0.000000
vn 0.999998 0.002183 0.000000
vn 0.999998 0.002183 -0.000000
vn 0.999981 -0.006092 0.000000
vn 0.999981 -0.006092 0.000000
vn 0.999913 -0.013154 0.000000
vn 0.999913 -0.013154 0.000000
vn 0.999839 -0.017953 0.000000
vn 0.999839 -0.017953 0.000000
vn 0.999793 -0.020360 0.000000
vn 0.999793 -0.020360 0.000000
vn 0.999782 -0.020871 0.000000
vn 0.999782 -0.020871 0.000000
vn 0.999388 0.034976 0.000000
vn 0.999388 0.034976 -0.000000
vn 0.994858 0.101276 0.000000
vn 0.994858 0.101276 -0.000000
vn 0.999662 0.025991 0.000000
vn 0.999662 0.025991 -0.000000
vn 0.935489 0.353356 0.000000
vn 0.935489 0.353356 -0.000000
vn 0.763339 0.645998 0.000000
vn 0.763339 0.645998 -0.000000
vn 0.509956 0.860201 0.000000
vn 0.509956 0.860201 -0.000000
vn 0.240562 0.970634 0.000000
vn 0.240562 0.970634 -0.000000
vn 0.982808 0.137005 -0.123768
vn 0.982808 0.137005 -0.123768
vn 0.908854 0.398620 -0.122825
vn 0.908854 0.398620 -0.122825
vn 0.770391 0.625938 -0.121242
vn 0.770391 0.625938 -0.121242
vn 0.582589 0.803936 -0.119487
vn 0.582589 0.803936 -0.119487
vn 0.361758 0.924770 -0.118028
vn 0.361758 0.924770 -0.118028
vn 0.122533 0.985519 -0.117210
vn 0.122533 0.985519 -0.117210
vn -0.122533 0.985519 -0.117210
vn -0.122533 0.985519 -0.117210
vn -0.361758 0.924770 -0.118028
vn -0.361758 0.924770 -0.118028
vn -0.582589 0.803936 -0.119487
vn -0.582589 0.803936 -0.119487
vn -0.770391 0.625938 -0.121242
vn -0.770391 0.625938 -0.121242
vn -0.908854 0.398620 -0.122825
vn -0.908854 0.398620 -0.122825
vn -0.982808 0.137005 -0.123768
vn -0.982808 0.137005 -0.123768
vn -0.982808 -0.137005 -0.123768
vn -0.982808 -0.137005 -0.123768
vn -0.908854 -0.398620 -0.122825
vn -0.908854 -0.398620 -0.122825
vn -0.770391 -0.625938 -0.121242
vn -0.770391 -0.625938 -0.121242
vn -0.582589 -0.803936 -0.119487
vn -0.582589 -0.803936 -0.119487
vn -0.361758 -0.924770 -0.118028
vn -0.361758 -0.924770 -0.118028
vn -0.122533 -0.985519 -0.117210
vn -0.122533 -0.985519 -0.117210
vn 0.122533 -0.985519 -0.117210
vn 0.122533 -0.985519 -0.117210
vn 0.361758 -0.924770 -0.118028
vn 0.361758 -0.924770 -0.118028
vn 0.582589 -0.803936 -0.119487
vn 0.582589 -0.803936 -0.119487
vn 0.770391 -0.625938 -0.121242
vn 0.770391 -0.625938 -0.121242
vn 0.908854 -0.398620 -0.122825
vn 0.908854 -0.398620 -0.122825
vn 0.982808 -0.137005 -0.123768
vn 0.982808 -0.137005 -0.123768
vn 0.939803 0.131010 -0.315605
vn 0.939803 0.131010 -0.315605
vn 0.869651 0.381425 -0.313405
vn 0.869651 0.381425 -0.313405
vn 0.737958 0.599587 -0.309700
vn 0.737958 0.599587 -0.309700
vn 0.558724 0.771004 -0.305581
vn 0.558724 0.771004 -0.305581
vn 0.347278 0.887754 -0.302144
vn 0.347278 0.887754 -0.302144
vn 0.117692 0.946584 -0.300211
vn 0.117692 0.946584 -0.300211
vn -0.117692 0.946584 -0.300211
vn -0.117692 0.946584 -0.300211
vn -0.347278 0.887754 -0.302144
vn -0.347278 0.887754 -0.302144
vn -0.558724 0.771004 -0.305581
vn -0.558724 0.771004 -0.305581
vn -0.737958 0.599587 -0.309700
vn -0.737958 0.599587 -0.309700
vn -0.869651 0.381425 -0.313405
vn -0.869651 0.381425 -0.313405
vn -0.939803 0.131010 -0.315605
vn -0.939803 0.131010 -0.315605
vn -0.939803 -0.131010 -0.315605
vn -0.939803 -0.131010 -0.315605
vn -0.869651 -0.381425 -0.313405
vn -0.869651 -0.381425 -0.313405
vn -0.737958 -0.599587 -0.309700
vn -0.737958 -0.599587 -0.309700
vn -0.558724 -0.771004 -0.305581
vn -0.558724 -0.771004 -0.305581
vn -0.347278 -0.887754 -0.302144
vn -0.347278 -0.887754 -0.302144
vn -0.117692 -0.946584 -0.300211
vn -0.117692 -0.946584 -0.300211
vn 0.117692 -0.946584 -0.300211
vn 0.117692 -0.946584 -0.300211
vn 0.347278 -0.887754 -0.302144
vn 0.347278 -0.887754 -0.302144
vn 0.558724 -0.771004 -0.305581
vn 0.558724 -0.771004 -0.305581
vn 0.737958 -0.599587 -0.309700
vn 0.737958 -0.599587 -0.309700
vn 0.869651 -0.381425 -0.313405
vn 0.869651 -0.381425 -0.313405
vn 0.939803 -0.131010 -0.315605
vn 0.939803 -0.131010 -0.315605
vn 0.683834 0.095328 -0.723384
vn 0.683834 0.095328 -0.723384
vn 0.634868 0.278450 -0.720700
vn 0.634868 0.278450 -0.720700
vn 0.541710 0.440136 -0.716122
vn 0.541710 0.440136 -0.716122
vn 0.412662 0.569448 -0.710942
vn 0.412662 0.569448 -0.710942
vn 0.257806 0.659036 -0.706546
vn 0.257806 0.659036 -0.706546
vn 0.087622 0.704729 -0.704045
vn 0.087622 0.704729 -0.704045
vn -0.087622 0.704729 -0.704045
vn -0.087622 0.704729 -0.704045
vn -0.257806 0.659036 -0.706546
vn -0.257806 0.659036 -0.706546
vn -0.412662 0.569448 -0.710942
vn -0.412662 0.569448 -0.710942
vn -0.541710 0.440136 -0.716122
vn -0.541710 0.440136 -0.716122
vn -0.634868 0.278450 -0.720700
vn -0.634868 0.278450 -0.720700
vn -0.683834 0.095328 -0.723384
vn -0.683834 0.095328 -0.723384
vn -0.683834 -0.095328 -0.723384
vn -0.683834 -0.095328 -0.723384
vn -0.634868 -0.278450 -0.720700
vn -0.634868 -0.278450 -0.720700
vn -0.541710 -0.440136 -0.716122
vn -0.541710 -0.440136 -0.716122
vn -0.412662 -0.569448 -0.710942
vn -0.412662 -0.569448 -0.710942
vn -0.257806 -0.659036 -0.706546
vn -0.257806 -0.659036 -0.706546
vn -0.087622 -0.704729 -0.704045
vn -0.087622 -0.704729 -0.704045
vn 0.087622 -0.704729 -0.704045
vn 0.087622 -0.704729 -0.704045
vn 0.257806 -0.659036 -0.706546
vn 0.257806 -0.659036 -0.706546
vn 0.412662 -0.569448 -0.710942
vn 0.412662 -0.569448 -0.710942
vn 0.541710 -0.440136 -0.716122
vn 0.541710 -0.440136 -0.716122
vn 0.634868 -0.278450 -0.720700
vn 0.634868 -0.278450 -0.720700
vn 0.683834 -0.095328 -0.723384
vn 0.683834 -0.095328 -0.723384
vn 0.240708 0.033555 -0.970017
vn 0.240708 0.033555 -0.970017
vn 0.224201 0.098333 -0.969569
vn 0.224201 0.098333 -0.969569
vn 0.192372 0.156301 -0.968795
vn 0.192372 0.156301 -0.968795
vn 0.147476 0.203508 -0.967903
vn 0.147476 0.203508 -0.967903
vn 0.092633 0.236801 -0.967132
vn 0.092633 0.236801 -0.967132
vn 0.031581 0.254002 -0.966688
vn 0.031581 0.254002 -0.966688
vn -0.031581 0.254002 -0.966688
vn -0.031581 0.254002 -0.966688
vn -0.092633 0.236801 -0.967132
vn -0.092633 0.236801 -0.967132
vn -0.147476 0.203508 -0.967903
vn -0.147476 0.203508 -0.967903
vn -0.192372 0.156301 -0.968795
vn -0.192372 0.156301 -0.968795
vn -0.224201 0.098333 -0.969569
vn -0.224201 0.098333 -0.969569
vn -0.240708 0.033555 -0.970017
vn -0.240708 0.033555 -0.970017
vn -0.240708 -0.033555 -0.970017
vn -0.240708 -0.033555 -0.970017
vn -0.224201 -0.098333 -0.969569
vn -0.224201 -0.098333 -0.969569
vn -0.192372 -0.156301 -0.968795
vn -0.192372 -0.156301 -0.968795
vn -0.147476 -0.203508 -0.967903
vn -0.147476 -0.203508 -0.967903
vn -0.092633 -0.236801 -0.967132
vn -0.092633 -0.236801 -0.967132
vn -0.031581 -0.254002 -0.966688
vn -0.031581 -0.254002 -0.966688
vn 0.031581 -0.254002 -0.966688
vn 0.031581 -0.254002 -0.966688
vn 0.092633 -0.236801 -0.967132
vn 0.092633 -0.236801 -0.967132
vn 0.147476 -0.203508 -0.967903
vn 0.147476 -0.203508 -0.967903
vn 0.192372 -0.156301 -0.968795
vn 0.192372 -0.156301 -0.968795
vn 0.224201 -0.098333 -0.969569
vn 0.224201 -0.098333 -0.969569
vn 0.240708 -0.033555 -0.970017
vn 0.240708 -0.033555 -0.970017
vn 0.000000 0.000000 -1.000000
vn 0.000000 0.000000 -1.000000
vn 0.000000 0.000000 -1.000000
vn 0.000000 0.000000 -1.000000
vn 0.000000 0.000000 -1.000000
vn 0.000000 0.000000 -1.000000
vn 0.000000 0.000000 -1.000000
vn 0.000000 0.000000 -1.000000
vn 0.000000 0.000000 -1.000000
vn 0.000000 0.000000 -1.000000
vn 0.000000 0.000000 -1.000000
vn 0.000000 0.000000 -1.000000
vn -0.000000 0.000000 -1.000000
vn 0.000000 0.000000 -1.000000
vn 0.000000 0.000000 -1.000000
vn 0.000000 0.000000 -1.000000
vn 0.000000 0.000000 -1.000000
vn 0.000000 -0.000000 -1.000000
vn 0.000000 0.000000 -1.000000
vn 0.000000 0.000000 -1.000000
vn 0.000000 0.000000 -1.000000
vn 0.000000 0.000000 -1.000000
vn 0.000000 0.000000 -1.000000
vn 0.000000 0.000000 -1.000000
usemtl body
f 1/1/1 2/2/1 3/3/1
f 4/4/2 5/5/2 6/6/2
f 7/7/3 8/8/3 9/9/3
f 10/10/4 11/11/4 12/12/4
f 13/13/5 14/14/5 15/15/5
f 16/16/6 17/17/6 18/18/6
f 19/19/7 20/20/7 21/21/7
f 22/22/8 23/23/8 24/24/8
f 25/25/9 26/26/9 27/27/9
f 28/28/10 29/29/10 30/30/10
f 31/31/11 32/32/11 33/33/11
f 34/34/12 35/35/12 36/36/12
f 37/37/13 38/38/13 39/39/13
f 40/40/14 41/41/14 42/42/14
f 43/43/15 44/44/15 45/45/15
f 46/46/16 47/47/16 48/48/16
f 49/49/17 50/50/17 51/51/17
f 52/52/18 53/53/18 54/54/18
f 55/55/19 56/56/19 57/57/19
f 58/58/20 59/59/20 60/60/20
f 61/61/21 62/62/21 63/63/21
f 64/64/22 65/65/22 66/66/22
f 67/67/23 68/68/23 69/69/23
f 70/70/24 71/71/24 72/72/24
f 73/73/25 74/74/25 75/75/25
f 76/76/26 77/77/26 78/78/26
f 79/79/27 80/80/27 81/81/27
f 82/82/28 83/83/28 84/84/28
f 85/85/29 86/86/29 87/87/29
f 88/88/30 89/89/30 90/90/30
f 91/91/31 92/92/31 93/93/31
f 94/94/32 95/95/32 96/96/32
f 97/97/33 98/98/33 99/99/33
f 100/100/34 101/101/34 102/102/34
f 103/103/35 104/104/35 105/105/35
f 106/106/36 107/107/36 108/108/36
f 109/109/37 110/110/37 111/111/37
f 112/112/38 113/113/38 114/114/38
f 115/115/39 116/116/39 117/117/39
f 118/118/40 119/119/40 120/120/40
f 121/121/41 122/122/41 123/123/41
f 124/124/42 125/125/42 126/126/42
f 127/127/43 128/128/43 129/129/43
f 130/130/44 131/131/44 132/132/44
f 133/133/45 134/134/45 135/135/45
f 136/136/46 137/137/46 138/138/46
f 139/139/47 140/140/47 141/141/47
f 142/142/48 143/143/48 144/144/48
f 145/145/49 146/146/49 147/147/49
f 148/148/50 149/149/50 150/150/50
f 151/151/51 152/152/51 153/153/51
f 154/154/52 155/155/52 156/156/52
f 157/157/53 158/158/53 159/159/53
f 160/160/54 161/161/54 162/162/54
f 163/163/55 164/164/55 165/165/55
f 166/166/56 167/167/56 168/168/56
f 169/169/57 170/170/57 171/171/57
f 172/172/58 173/173/58 174/174/58
f 175/175/59 176/176/59 177/177/59
f 178/178/60 179/179/60 180/180/60
f 181/181/61 182/182/61 183/183/61
f 184/184/62 185/185/62 186/186/62
f 187/187/63 188/188/63 189/189/63
f 190/190/64 191/191/64 192/192/64
f 193/193/65 194/194/65 195/195/65
f 196/196/66 197/197/66 198/198/66
f 199/199/67 200/200/67 201/201/67
f 202/202/68 203/203/68 204/204/68
f 205/205/69 206/206/69 207/207/69
f 208/208/70 209/209/70 210/210/70
f 211/211/71 212/212/71 213/213/71
f 214/214/72 215/215/72 216/216/72
f 217/217/73 218/218/73 219/219/73
f 220/220/74 221/221/74 222/222/74
f 223/223/75 224/224/75 225/225/75
f 226/226/76 227/227/76 228/228/76
f 229/229/77 230/230/77 231/231/77
f 232/232/78 233/233/78 234/234/78
f 235/235/79 236/236/79 237/237/79
f 238/238/80 239/239/80 240/240/80
f 241/241/81 242/242/81 243/243/81
f 244/244/82 245/245/82 246/246/82
f 247/247/83 248/248/83 249/249/83
f 250/250/84 251/251/84 252/252/84
f 253/253/85 254/254/85 255/255/85
f 256/256/86 257/257/86 258/258/86
f 259/259/87 260/260/87 261/261/87
f 262/262/88 263/263/88 264/264/88
f 265/265/89 266/266/89 267/267/89
f 268/268/90 269/269/90 270/270/90
f 271/271/91 272/272/91 273/273/91
f 274/274/92 275/275/92 276/276/92
f 277/277/93 278/278/93 279/279/93
f 280/280/94 281/281/94 282/282/94
f 283/283/95 284/284/95 285/285/95
f 286/286/96 287/287/96 288/288/96
f 289/289/97 290/290/97 291/291/97
f 292/292/98 293/293/98 294/294/98
f 295/295/99 296/296/99 297/297/99
f 298/298/100 299/299/100 300/300/100
f 301/301/101 302/302/101 303/303/101
f 304/304/102 305/305/102 306/306/102
f 307/307/103 308/308/103 309/309/103
f 310/310/104 311/311/104 312/312/104
f 313/313/105 314/314/105 315/315/105
f 316/316/106 317/317/106 318/318/106
f 319/319/107 320/320/107 321/321/107
f 322/322/108 323/323/108 324/324/108
f 325/325/109 326/326/109 327/327/109
f 328/328/110 329/329/110 330/330/110
f 331/331/111 332/332/111 333/333/111
f 334/334/112 335/335/112 336/336/112
f 337/337/113 338/338/113 339/339/113
f 340/340/114 341/341/114 342/342/114
f 343/343/115 344/344/115 345/345/115
f 346/346/116 347/347/116 348/348/116
f 349/349/117 350/350/117 351/351/117
f 352/352/118 353/353/118 354/354/118
f 355/355/119 356/356/119 357/357/119
f 358/358/120 359/359/120 360/360/120
f 361/361/121 362/362/121 363/363/121
f 364/364/122 365/365/122 366/366/122
f 367/367/123 368/368/123 369/369/123
f 370/370/124 371/371/124 372/372/124
f 373/373/125 374/374/125 375/375/125
f 376/376/126 377/377/126 378/378/126
f 379/379/127 380/380/127 381/381/127
f 382/382/128 383/383/128 384/384/128
f 385/385/129 386/386/129 387/387/129
f 388/388/130 389/389/130 390/390/130
f 391/391/131 392/392/131 393/393/131
f 394/394/132 395/395/132 396/396/132
f 397/397/133 398/398/133 399/399/133
f 400/400/134 401/401/134 402/402/134
f 403/403/135 404/404/135 405/405/135
f 406/406/136 407/407/136 408/408/136
f 409/409/137 410/410/137 411/411/137
f 412/412/138 413/413/138 414/414/138
f 415/415/139 416/416/139 417/417/139
f 418/418/140 419/419/140 420/420/140
f 421/421/141 422/422/141 423/423/141
f 424/424/142 425/425/142 426/426/142
f 427/427/143 428/428/143 429/429/143
f 430/430/144 431/431/144 432/432/144
f 433/433/145 434/434/145 435/435/145
f 436/436/146 437/437/146 438/438/146
f 439/439/147 440/440/147 441/441/147
f 442/442/148 443/443/148 444/444/148
f 445/445/149 446/446/149 447/447/149
f 448/448/150 449/449/150 450/450/150
f 451/451/151 452/452/151 453/453/151
f 454/454/152 455/455/152 456/456/152
f 457/457/153 458/458/153 459/459/153
f 460/460/154 461/461/154 462/462/154
f 463/463/155 464/464/155 465/465/155
f 466/466/156 467/467/156 468/468/156
f 469/469/157 470/470/157 471/471/157
f 472/472/158 473/473/158 474/474/158
f 475/475/159 476/476/159 477/477/159
f 478/478/160 479/479/160 480/480/160
f 481/481/161 482/482/161 483/483/161
f 484/484/162 485/485/162 486/486/162
f 487/487/163 488/488/163 489/489/163
f 490/490/164 491/491/164 492/492/164
f 493/493/165 494/494/165 495/495/165
f 496/496/166 497/497/166 498/498/166
f 499/499/167 500/500/167 501/501/167
f 502/502/168 503/503/168 504/504/168
f 505/505/169 506/506/169 507/507/169
f 508/508/170 509/509/170 510/510/170
f 511/511/171 512/512/171 513/513/171
f 514/514/172 515/515/172 516/516/172
f 517/517/173 518/518/173 519/519/173
f 520/520/174 521/521/174 522/522/174
f 523/523/175 524/524/175 525/525/175
f 526/526/176 527/527/176 528/528/176
f 529/529/177 530/530/177 531/531/177
f 532/532/178 533/533/178 534/534/178
f 535/535/179 536/536/179 537/537/179
f 538/538/180 539/539/180 540/540/180
f 541/541/181 542/542/181 543/543/181
f 544/544/182 545/545/182 546/546/182
f 547/547/183 548/548/183 549/549/183
f 550/550/184 551/551/184 552/552/184
f 553/553/185 554/554/185 555/555/185
f 556/556/186 557/557/186 558/558/186
f 559/559/187 560/560/187 561/561/187
f 562/562/188 563/563/188 564/564/188
f 565/565/189 566/566/189 567/567/189
f 568/568/190 569/569/190 570/570/190
f 571/571/191 572/572/191 573/573/191
f 574/574/192 575/575/192 576/576/192
f 577/577/193 578/578/193 579/579/193
f 580/580/194 581/581/194 582/582/194
f 583/583/195 584/584/195 585/585/195
f 586/586/196 587/587/196 588/588/196
f 589/589/197 590/590/197 591/591/197
f 592/592/198 593/593/198 594/594/198
f 595/595/199 596/596/199 597/597/199
f 598/598/200 599/599/200 600/600/200
f 601/601/201 602/602/201 603/603/201
f 604/604/202 605/605/202 606/606/202
f 607/607/203 608/608/203 609/609/203
f 610/610/204 611/611/204 612/612/204
f 613/613/205 614/614/205 615/615/205
f 616/616/206 617/617/206 618/618/206
f 619/619/207 620/620/207 621/621/207
f 622/622/208 623/623/208 624/624/208
f 625/625/209 626/626/209 627/627/209
f 628/628/210 629/629/210 630/630/210
f 631/631/211 632/632/211 633/633/211
f 634/634/212 635/635/212 636/636/212
f 637/637/213 638/638/213 639/639/213
f 640/640/214 641/641/214 642/642/214
f 643/643/215 644/644/215 645/645/215
f 646/646/216 647/647/216 648/648/216
f 649/649/217 650/650/217 651/651/217
f 652/652/218 653/653/218 654/654/218
f 655/655/219 656/656/219 657/657/219
f 658/658/220 659/659/220 660/660/220
f 661/661/221 662/662/221 663/663/221
f 664/664/222 665/665/222 666/666/222
f 667/667/223 668/668/223 669/669/223
f 670/670/224 671/671/224 672/672/224
f 673/673/225 674/674/225 675/675/225
f 676/676/226 677/677/226 678/678/226
f 679/679/227 680/680/227 681/681/227
f 682/682/228 683/683/228 684/684/228
f 685/685/229 686/686/229 687/687/229
f 688/688/230 689/689/230 690/690/230
f 691/691/231 692/692/231 693/693/231
f 694/694/232 695/695/232 696/696/232
f 697/697/233 698/698/233 699/699/233
f 700/700/234 701/701/234 702/702/234
f 703/703/235 704/704/235 705/705/235
f 706/706/236 707/707/236 708/708/236
f 709/709/237 710/710/237 711/711/237
f 712/712/238 713/713/238 714/714/238
f 715/715/239 716/716/239 717/717/239
f 718/718/240 719/719/240 720/720/240
f 721/721/241 722/722/241 723/723/241
f 724/724/242 725/725/242 726/726/242
f 727/727/243 728/728/243 729/729/243
f 730/730/244 731/731/244 732/732/244
f 733/733/245 734/734/245 735/735/245
f 736/736/246 737/737/246 738/738/246
f 739/739/247 740/740/247 741/741/247
f 742/742/248 743/743/248 744/744/248
f 745/745/249 746/746/249 747/747/249
f 748/748/250 749/749/250 750/750/250
f 751/751/251 752/752/251 753/753/251
f 754/754/252 755/755/252 756/756/252
f 757/757/253 758/758/253 759/759/253
f 760/760/254 761/761/254 762/762/254
f 763/763/255 764/764/255 765/765/255
f 766/766/256 767/767/256 768/768/256
f 769/769/257 770/770/257 771/771/257
f 772/772/258 773/773/258 774/774/258
f 775/775/259 776/776/259 777/777/259
f 778/778/260 779/779/260 780/780/260
f 781/781/261 782/782/261 783/783/261
f 784/784/262 785/785/262 786/786/262
f 787/787/263 788/788/263 789/789/263
f 790/790/264 791/791/264 792/792/264
f 793/793/265 794/794/265 795/795/265
f 796/796/266 797/797/266 798/798/266
f 799/799/267 800/800/267 801/801/267
f 802/802/268 803/803/268 804/804/268
f 805/805/269 806/806/269 807/807/269
f 808/808/270 809/809/270 810/810/270
f 811/811/271 812/812/271 813/813/271
f 814/814/272 815/815/272 816/816/272
f 817/817/273 818/818/273 819/819/273
f 820/820/274 821/821/274 822/822/274
f 823/823/275 824/824/275 825/825/275
f 826/826/276 827/827/276 828/828/276
f 829/829/277 830/830/277 831/831/277
f 832/832/278 833/833/278 834/834/278
f 835/835/279 836/836/279 837/837/279
f 838/838/280 839/839/280 840/840/280
f 841/841/281 842/842/281 843/843/281
f 844/844/282 845/845/282 846/846/282
f 847/847/283 848/848/283 849/849/283
f 850/850/284 851/851/284 852/852/284
f 853/853/285 854/854/285 855/855/285
f 856/856/286 857/857/286 858/858/286
f 859/859/287 860/860/287 861/861/287
f 862/862/288 863/863/288 864/864/288
f 865/865/289 866/866/289 867/867/289
f 868/868/290 869/869/290 870/870/290
f 871/871/291 872/872/291 873/873/291
f 874/874/292 875/875/292 876/876/292
f 877/877/293 878/878/293 879/879/293
f 880/880/294 881/881/294 882/882/294
f 883/883/295 884/884/295 885/885/295
f 886/886/296 887/887/296 888/888/296
f 889/889/297 890/890/297 891/891/297
f 892/892/298 893/893/298 894/894/298
f 895/895/299 896/896/299 897/897/299
f 898/898/300 899/899/300 900/900/300
f 901/901/301 902/902/301 903/903/301
f 904/904/302 905/905/302 906/906/302
f 907/907/303 908/908/303 909/909/303
f 910/910/304 911/911/304 912/912/304
f 913/913/305 914/914/305 915/915/305
f 916/916/306 917/917/306 918/918/306
f 919/919/307 920/920/307 921/921/307
f 922/922/308 923/923/308 924/924/308
f 925/925/309 926/926/309 927/927/309
f 928/928/310 929/929/310 930/930/310
f 931/931/311 932/932/311 933/933/311
f 934/934/312 935/935/312 936/936/312
f 937/937/313 938/938/313 939/939/313
f 940/940/314 941/941/314 942/942/314
f 943/943/315 944/944/315 945/945/315
f 946/946/316 947/947/316 948/948/316
f 949/949/317 950/950/317 951/951/317
f 952/952/318 953/953/318 954/954/318
f 955/955/319 956/956/319 957/957/319
f 958/958/320 959/959/320 960/960/320
f 961/961/321 962/962/321 963/963/321
f 964/964/322 965/965/322 966/966/322
f 967/967/323 968/968/323 969/969/323
f 970/970/324 971/971/324 972/972/324
f 973/973/325 974/974/325 975/975/325
f 976/976/326 977/977/326 978/978/326
f 979/979/327 980/980/327 981/981/327
f 982/982/328 983/983/328 984/984/328
f 985/985/329 986/986/329 987/987/329
f 988/988/330 989/989/330 990/990/330
f 991/991/331 992/992/331 993/993/331
f 994/994/332 995/995/332 996/996/332
f 997/997/333 998/998/333 999/999/333
f 1000/1000/334 1001/1001/334 1002/1002/334
f 1003/1003/335 1004/1004/335 1005/1005/335
f 1006/1006/336 1007/1007/336 1008/1008/336
f 1009/1009/337 1010/1010/337 1011/1011/337
f 1012/1012/338 1013/1013/338 1014/1014/338
f 1015/1015/339 1016/1016/339 1017/1017/339
f 1018/1018/340 1019/1019/340 1020/1020/340
f 1021/1021/341 1022/1022/341 1023/1023/341
f 1024/1024/342 1025/1025/342 1026/1026/342
f 1027/1027/343 1028/1028/343 1029/1029/343
f 1030/1030/344 1031/1031/344 1032/1032/344
f 1033/1033/345 1034/1034/345 1035/1035/345
f 1036/1036/346 1037/1037/346 1038/1038/346
f 1039/1039/347 1040/1040/347 1041/1041/347
f 1042/1042/348 1043/1043/348 1044/1044/348
f 1045/1045/349 1046/1046/349 1047/1047/349
f 1048/1048/350 1049/1049/350 1050/1050/350
f 1051/1051/351 1052/1052/351 1053/1053/351
f 1054/1054/352 1055/1055/352 1056/1056/352
f 1057/1057/353 1058/1058/353 1059/1059/353
f 1060/1060/354 1061/1061/354 1062/1062/354
f 1063/1063/355 1064/1064/355 1065/1065/355
f 1066/1066/356 1067/1067/356 1068/1068/356
f 1069/1069/357 1070/1070/357 1071/1071/357
f 1072/1072/358 1073/1073/358 1074/1074/358
f 1075/1075/359 1076/1076/359 1077/1077/359
f 1078/1078/360 1079/1079/360 1080/1080/360
f 1081/1081/361 1082/1082/361 1083/1083/361
f 1084/1084/362 1085/1085/362 1086/1086/362
f 1087/1087/363 1088/1088/363 1089/1089/363
f 1090/1090/364 1091/1091/364 1092/1092/364
f 1093/1093/365 1094/1094/365 1095/1095/365
f 1096/1096/366 1097/1097/366 1098/1098/366
f 1099/1099/367 1100/1100/367 1101/1101/367
f 1102/1102/368 1103/1103/368 1104/1104/368
f 1105/1105/369 1106/1106/369 1107/1107/369
f 1108/1108/370 1109/1109/370 1110/1110/370
f 1111/1111/371 1112/1112/371 1113/1113/371
f 1114/1114/372 1115/1115/372 1116/1116/372
f 1117/1117/373 1118/1118/373 1119/1119/373
f 1120/1120/374 1121/1121/374 1122/1122/374
f 1123/1123/375 1124/1124/375 1125/1125/375
f 1126/1126/376 1127/1127/376 1128/1128/376
f 1129/1129/377 1130/1130/377 1131/1131/377
f 1132/1132/378 1133/1133/378 1134/1134/378
f 1135/1135/379 1136/1136/379 1137/1137/379
f 1138/1138/380 1139/1139/380 1140/1140/380
f 1141/1141/381 1142/1142/381 1143/1143/381
f 1144/1144/382 1145/1145/382 1146/1146/382
f 1147/1147/383 1148/1148/383 1149/1149/383
f 1150/1150/384 1151/1151/384 1152/1152/384
f 1153/1153/385 1154/1154/385 1155/1155/385
f 1156/1156/386 1157/1157/386 1158/1158/386
f 1159/1159/387 1160/1160/387 1161/1161/387
f 1162/1162/388 1163/1163/388 1164/1164/388
f 1165/1165/389 1166/1166/389 1167/1167/389
f 1168/1168/390 1169/1169/390 1170/1170/390
f 1171/1171/391 1172/1172/391 1173/1173/391
f 1174/1174/392 1175/1175/392 1176/1176/392
f 1177/1177/393 1178/1178/393 1179/1179/393
f 1180/1180/394 1181/1181/394 1182/1182/394
f 1183/1183/395 1184/1184/395 1185/1185/395
f 1186/1186/396 1187/1187/396 1188/1188/396
f 1189/1189/397 1190/1190/397 1191/1191/397
f 1192/1192/398 1193/1193/398 1194/1194/398
f 1195/1195/399 1196/1196/399 1197/1197/399
f 1198/1198/400 1199/1199/400 1200/1200/400
f 1201/1201/401 1202/1202/401 1203/1203/401
f 1204/1204/402 1205/1205/402 1206/1206/402
f 1207/1207/403 1208/1208/403 1209/1209/403
f 1210/1210/404 1211/1211/404 1212/1212/404
f 1213/1213/405 1214/1214/405 1215/1215/405
f 1216/1216/406 1217/1217/406 1218/1218/406
f 1219/1219/407 1220/1220/407 1221/1221/407
f 1222/1222/408 1223/1223/408 1224/1224/408
f 1225/1225/409 1226/1226/409 1227/1227/409
f 1228/1228/410 1229/1229/410 1230/1230/410
f 1231/1231/411 1232/1232/411 1233/1233/411
f 1234/1234/412 1235/1235/412 1236/1236/412
f 1237/1237/413 1238/1238/413 1239/1239/413
f 1240/1240/414 1241/1241/414 1242/1242/414
f 1243/1243/415 1244/1244/415 1245/1245/415
f 1246/1246/416 1247/1247/416 1248/1248/416
f 1249/1249/417 1250/1250/417 1251/1251/417
f 1252/1252/418 1253/1253/418 1254/1254/418
f 1255/1255/419 1256/1256/419 1257/1257/419
f 1258/1258/420 1259/1259/420 1260/1260/420
